<?xml version="1.0" encoding="utf-8"?>
<!-- Generator: Adobe Illustrator 17.1.0, SVG Export Plug-In . SVG Version: 6.00 Build 0)  -->
<!DOCTYPE svg PUBLIC "-//W3C//DTD SVG 1.1//EN" "http://www.w3.org/Graphics/SVG/1.1/DTD/svg11.dtd">
<svg version="1.1" id="Layer_1" xmlns="http://www.w3.org/2000/svg" xmlns:xlink="http://www.w3.org/1999/xlink" x="0px" y="0px"
	 width="282.9px" height="479.1px" viewBox="0 0 282.9 479.1" enable-background="new 0 0 282.9 479.1" xml:space="preserve">
<g>
	<ellipse fill="#D7E2FF" cx="129.6" cy="465.5" rx="115" ry="13.6"/>
	<g>
		<path fill="#FFECDB" d="M54.8,419c0,0-6.3,5.5-13.1,11.8c-14.4-4.5-23.3-12.7-23.1-23.3c0-1.2,0.1-2.3,0.4-3.5
			c9.4-9.4,22.2-18.8,37.9-27.3c-10.3,9.5-25,24.2-24,30.6C34.3,417.1,54.8,419,54.8,419z"/>
		<path fill="#FF942A" d="M168.6,412.4c-15.4,33.4-53.6,50.3-84.6,52.1c-8,0.5-20.9,1.3-34.2,0.9l8.1-9.7c0,0-33.1-1.2-32.6-6.4
			c0.5-5.2,29.4-30.2,29.4-30.2s-20.5-1.9-22-11.7c-1-6.4,13.7-21.2,24-30.6c27.1-14.8,62.8-27.2,104.9-32.9
			C161.8,343.8,190.3,365.4,168.6,412.4z"/>
		<path fill="#F2D0AD" d="M19,404c-0.2,1.2-0.4,2.3-0.4,3.5c-0.2,10.6,8.8,18.9,23.1,23.3c-7.7,7.2-16,15.6-16.3,18.4
			c-0.5,5.2,32.6,6.4,32.6,6.4l-8.1,9.7c-24.4-0.9-50.1-6.2-49.9-26.9C0.1,428.7,5,417.6,19,404z"/>
		<path fill="#F07837" d="M168.6,412.4c-15.4,33.4-53.6,50.3-84.6,52.1c-8,0.5-20.9,1.3-34.2,0.9l8.1-9.7c0,0-33.1-1.2-32.6-6.4
			c0.3-2.8,8.6-11.2,16.3-18.4c12.7,4,30.7,8.6,47.5,0c15.2-7.8,18.7-20.6,19.2-32c0.6-15.6-13.8-38.9-13.8-38.9
			c19.9-7.1,42.4-12.8,67.2-16.1C161.8,343.8,190.3,365.4,168.6,412.4z"/>
	</g>
	<path fill="#381706" d="M164,416.3c0,0,1.3,29.3,10.9,49.3h19.2c0,0-1.8-17.9-12-11.6c0,0-9.4-8.4-10.6-38.2L164,416.3z"/>
	<path fill="#F07837" d="M205.3,337.2c0,0,27.7,77.1-30.1,81.8c-7,0.6-11.2-2.7-11.2-2.7s14-17.6-3.6-45.6L205.3,337.2z"/>
	<path fill="#FFECDB" d="M213.7,325.4c-4.5,36.8-28.7,51.1-28.7,51.1c0.6-41-34.5-33.1-48-67.1c-7.1-18-3.4-45.6,1.6-67.6
		c2.3-9.9,4.8-18.6,6.8-24.9h36.9c3,5.1,5.7,10,8.2,14.7c7.8,14.8,13.3,28.2,17.1,40.4C214.2,293.5,215.4,311.1,213.7,325.4z"/>
	<path fill="#381706" d="M119.3,414.3c0,0-2.1,35.3,1.8,51.2h19.2c0,0,0.5-19.3-6.8-12.6c0,0-7.2-11.1-4.8-37.2L119.3,414.3z"/>
	<path fill="#FF942A" d="M185,376.5c-11.9,38.8-44.2,45.1-50.2,45.1c-5.9,0-15.5-7.3-15.5-7.3s5.3-5.3,4-15.7
		c-2.5-18.5-21.9-23.6-24-55.9c-2.9-43.9,16.5-89.3,27.8-111.6c4.5-9,7.8-14.2,7.8-14.2h10.6c-2,6.3-4.5,15-6.8,24.9
		c-5.1,22-8.8,49.7-1.6,67.6C150.5,343.4,185.6,335.4,185,376.5z"/>
	<path fill="#F2DBC9" d="M190.5,231.6c-13.3,9.7-18.2,28.1-26.9,28.1c-5.6,0-15.9-9.4-25-17.9c-4.4-4.1-8.4-8-11.6-10.7
		c4.5-9,7.8-14.2,7.8-14.2h47.4C185.2,221.9,188,226.8,190.5,231.6z"/>
	<g>
		<path fill="#FFECDB" d="M282.1,192.9c0,0-85.8,12.2-117,57.5c0,0-58.4-51.6-134.1-40.4c0,0,55.8-71.2,129.1-29.7
			C160.1,180.2,208.8,134.6,282.1,192.9z"/>
		<g>
			<path fill="#FF942A" d="M264,96.3c-27.7-33.7-60.6-45.8-79.1-50.2c26-44.9,87.9-51.3,96.1-42.9C286.5,8.8,279.8,62.9,264,96.3z"
				/>
			<path fill="#F07837" d="M264.8,16.1c7.6,5.4-5.7,78.3-18.3,80.4c-12.6,2-38.1-28.6-37.4-37.9c0.7-9.3,20.1-8.1,20.1-8.1
				l-16.2-8.6l25.4-8.9L225,27.2C225,27.2,255.9,9.6,264.8,16.1z"/>
			<path fill="#F07837" d="M264,96.3c-4.6,9.8-10,17.8-16.2,22.2c-12,8.8-36.9,0.6-57.4-17.2c-9.1-8-18-28.6-11.8-41.6
				c1.7-4.9,3.8-9.4,6.2-13.6C203.4,50.4,236.3,62.6,264,96.3z"/>
		</g>
		<g>
			<path fill="#FF942A" d="M118,48.5c-38.1,14-62,36.2-76.8,59.5C27.2,74.1,29.4,7.9,36.5,2.8C45.1-3.5,95.3,9.7,118,48.5z"/>
			<path fill="#F07837" d="M50.3,18.2c-8.4,4.1-7.5,78.2,4.5,82.3c12.1,4.1,42.3-21.9,43.2-31.1C98.9,60.1,79.5,58,79.5,58L97,52.2
				l-23.6-13l14.2-3.3C87.6,35.9,60.2,13.4,50.3,18.2z"/>
			<path fill="#F07837" d="M109.3,114.7c-23.2,14.2-49.1,18.1-59.5,7.4c-3.4-3.5-6.2-8.3-8.6-14C56.1,84.8,79.9,62.5,118,48.5
				c4.6,7.9,8.1,16.9,9.9,27.1C131.9,89.5,119.6,108.3,109.3,114.7z"/>
		</g>
		<path fill="#FF942A" d="M282.1,192.9c-68.1-47.3-122-12.7-122-12.7C87.7,150.3,31,210,31,210s-8-118.9,100.7-157.1
			c0,0,8.3-12.3,26.2-22.9L147,50.4c0.6-0.5,10.7-8.7,22.9-12.4l-3.2,13.6C166.7,51.5,258.8,55.3,282.1,192.9z"/>
		<path fill="#F07837" d="M147.3,166.5c0,0,4.7-72.8-21.3-78.9c-37.1-8.7-58.3,58.1-58.3,58.1S90.3,168.2,147.3,166.5z"/>
		<path fill="#F07837" d="M170.4,165.6c0,0-12.5-71.8,12.6-80.7c35.9-12.7,64.3,51.4,64.3,51.4S227.3,161,170.4,165.6z"/>
		<path fill="#381706" d="M151.5,172.5l15.7-0.8c2.8-0.1,4.3,3.1,2.5,5.2l-7.4,8.3c-1.2,1.3-3.1,1.4-4.4,0.2l-8.3-7.5
			C147.5,176,148.7,172.6,151.5,172.5z"/>
		<g>
			<defs>
				<path id="SVGID_1_" d="M139.7,164.9c2.8-25.2-5-64.3-24.6-63.9c-24.2,0.4-40.8,41.7-38.7,48.3
					C78.7,156.5,111.7,166.3,139.7,164.9z"/>
			</defs>
			<use xlink:href="#SVGID_1_"  overflow="visible" fill="#FFFFFF"/>
			<clipPath id="SVGID_2_">
				<use xlink:href="#SVGID_1_"  overflow="visible"/>
			</clipPath>
			
				<ellipse transform="matrix(0.9985 5.503460e-002 -5.503460e-002 0.9985 7.595 -6.0569)" clip-path="url(#SVGID_2_)" fill="#381706" cx="113.8" cy="134.9" rx="20.6" ry="25.9"/>
		</g>
		<g>
			<path fill="#381706" d="M134.1,166c-26.7,0-56.2-9-58.6-16.5c-1.4-4.4,4-19.8,12.4-31.5c5.8-8.1,15.2-17.8,27.2-18.1
				c4.7-0.1,9,2,12.8,6.1c10.8,11.9,15,39.3,12.8,58.9l-0.1,0.8l-0.8,0C137.9,166,136,166,134.1,166z M115.3,101.9
				c-0.1,0-0.2,0-0.2,0c-11.2,0.2-20.1,9.5-25.6,17.2c-8.8,12.4-13.2,26.7-12.2,29.8c2.1,6.3,33.7,16.2,61.5,15
				c2-19.1-2.1-45.2-12.4-56.5C123.1,103.8,119.4,101.9,115.3,101.9z"/>
		</g>
		<ellipse fill="#381706" cx="107.5" cy="68.6" rx="12.4" ry="4.5"/>
		
			<ellipse transform="matrix(0.9985 -5.386493e-002 5.386493e-002 0.9985 -6.1201 6.5271)" fill="#FFFFFF" cx="118" cy="116.8" rx="7.5" ry="9.9"/>
		<g>
			<defs>
				<path id="SVGID_3_" d="M176.9,162.9c-2.8-21.4-3.2-64.3,16.3-66.5c24-2.7,45.8,36,44.5,42.8
					C236.3,146.7,204.8,160.7,176.9,162.9z"/>
			</defs>
			<use xlink:href="#SVGID_3_"  overflow="visible" fill="#FFFFFF"/>
			<clipPath id="SVGID_4_">
				<use xlink:href="#SVGID_3_"  overflow="visible"/>
			</clipPath>
			
				<ellipse transform="matrix(-0.983 0.1833 -0.1833 -0.983 424.5002 220.0278)" clip-path="url(#SVGID_4_)" fill="#381706" cx="202.1" cy="129.6" rx="20.6" ry="25.9"/>
		</g>
		<g>
			<path fill="#381706" d="M176.1,163.9l-0.1-0.9c-2.2-16.7-3.1-48.6,7.1-61.7c2.7-3.5,6.1-5.4,10-5.9c11.9-1.3,22.5,7.1,29.3,14.4
				c9.8,10.5,17.2,25.1,16.3,29.6c-1.5,8.2-33.7,22.3-61.7,24.5L176.1,163.9z M195.6,97.3c-0.8,0-1.5,0-2.3,0.1
				c-3.4,0.4-6.3,2.1-8.6,5.1c-9.7,12.4-8.9,42.6-6.9,59.3c27.7-2.4,57.7-16.3,59-22.8c0.6-3.2-5.5-16.8-15.8-27.9
				C214.9,104.7,205.8,97.3,195.6,97.3z"/>
		</g>
		
			<ellipse transform="matrix(-0.9917 0.1289 -0.1289 -0.9917 393.7965 101.4427)" fill="#381706" cx="193.6" cy="63.5" rx="12.4" ry="4.5"/>
		
			<ellipse transform="matrix(-0.9972 7.535761e-002 -7.535761e-002 -0.9972 414.3634 208.7724)" fill="#FFFFFF" cx="203.2" cy="112.2" rx="7.5" ry="9.9"/>
		<g>
			<path fill="#381706" d="M158.4,203.6c-14.6,0-26-4.7-26.1-4.8l0.8-1.9c0.3,0.1,28.5,11.7,52.7-2.4l1,1.8
				C177.4,201.8,167.3,203.6,158.4,203.6z"/>
		</g>
	</g>
	<path fill="#F2DBC9" d="M200.8,293.6c1.5-1.4,2.5-3.1,2.5-5c-0.1-6.1-8.9-14-20.4-8.2c-13,6.7-31.2,35-43.6,29.4
		c-0.4-0.2-0.7-0.4-0.9-0.6c-7.9-6.5-8.1-40.3-8.1-40.3V246c-14.9,18.3-34.8,71.9,8.7,82.1c30.8,7.2,44.2-28.4,52-30
		c-1.2,5.9-2.6,12.1-3.7,15.3c-1.5,4.7-0.4,8.1,3.4,8.6c12.7,1.8,16.6,0.2,22.7,3.3c0.1,0,0.3,0.1,0.4,0.1
		C218,293.6,208.6,297.8,200.8,293.6z"/>
	<path fill="#FF942A" d="M130.7,318.8c-3.4-9.2,2.6-15.1,6.3-17.7c-7.9-6.5-3.1-45.4-3.1-45.4l0.2-16.4
		C113.5,260.5,106.4,305.7,130.7,318.8z"/>
	<path fill="#381706" d="M199.9,271.7c-0.1-6.1-7.9-10.4-19.3-4.5c-13,6.7-30.2,40.2-42.6,34.5c-0.4-0.2-0.7-0.4-0.9-0.6
		c-3.7,2.6-9.7,8.5-6.3,17.7c1.9,1,4.1,1.8,6.6,2.3c25.4,5.6,43.7-38.9,51.4-40C193,280.5,199.9,277.1,199.9,271.7z"/>
	<g>
		<path fill="#F04A4A" d="M209.5,313.2l-17.8-5.5c-3.6-1.1-5.1-5-3.4-8.6l21.2-43.1c1.8-3.6,6.2-5.6,9.8-4.5l17.8,5.5
			c3.6,1.1,5.1,5,3.4,8.6l-21.2,43.1C217.5,312.3,213.1,314.3,209.5,313.2z"/>
		<path fill="#F04A4A" d="M224.3,273.4c-1.3,2.7-4.6,4.2-7.2,3.3c-2.7-0.8-3.8-3.7-2.5-6.4c1.3-2.7,4.6-4.2,7.2-3.3
			C224.5,267.9,225.6,270.8,224.3,273.4z"/>
	</g>
	<path fill="#381706" d="M219.3,286.8c-7.6,3.5-2.4,22.8,3,24.3c5.5,1.5,10-0.9,9.4-9.4C231.2,293.2,222.7,285.3,219.3,286.8z"/>
</g>
</svg>
