<?xml version="1.0" encoding="utf-8"?>
<!-- Generator: Adobe Illustrator 17.1.0, SVG Export Plug-In . SVG Version: 6.00 Build 0)  -->
<!DOCTYPE svg PUBLIC "-//W3C//DTD SVG 1.1//EN" "http://www.w3.org/Graphics/SVG/1.1/DTD/svg11.dtd">
<svg version="1.1" id="Layer_1" xmlns="http://www.w3.org/2000/svg" xmlns:xlink="http://www.w3.org/1999/xlink" x="0px" y="0px"
	 width="278.1px" height="469.8px" viewBox="0 0 278.1 469.8" enable-background="new 0 0 278.1 469.8" xml:space="preserve">
<g>
	<ellipse fill="#D7E2FF" cx="145" cy="456.2" rx="109.1" ry="13.6"/>
	<g>
		<path fill="#FFECDB" d="M77.6,410.3c0,0-6.4,3.9-13.4,8.6c-14.7-6.2-23.9-14.9-23.7-24.5c0-1,0.2-2.1,0.4-3.1
			c9.7-7,22.7-13.5,38.8-18.8c-10.5,6.9-25.6,18-24.6,23.9C56.6,405.5,77.6,410.3,77.6,410.3z"/>
		<path fill="#FF942A" d="M194.2,421.6c-15.8,27.7-54.9,37.1-86.6,34.1c-8.2-0.8-21.4-2-35-4.4l8.3-7.5c0,0-33.9-6.1-33.4-10.7
			c0.5-4.6,30.1-22.7,30.1-22.7s-21-4.8-22.5-13.8c-1-5.9,14.1-17,24.6-23.9c27.7-9.2,64.3-14.9,107.5-13.7
			C187.1,358.9,216.4,382.6,194.2,421.6z"/>
		<path fill="#F2D0AD" d="M40.9,391.4c-0.3,1-0.4,2.1-0.4,3.1c-0.2,9.5,9,18.3,23.7,24.5c-7.9,5.3-16.4,11.6-16.7,14.1
			c-0.5,4.6,33.4,10.7,33.4,10.7l-8.3,7.5c-25-4.5-51-13.2-51.1-31.8C21.5,410.5,27.4,401.1,40.9,391.4z"/>
		<path fill="#F07837" d="M194.2,421.6c-15.8,27.7-54.9,37.1-86.6,34.1c-8.2-0.8-21.4-2-35-4.4l8.3-7.5c0,0-33.9-6.1-33.4-10.7
			c0.3-2.5,8.8-8.8,16.7-14.1c13,5.5,30.3,9,49.4,9.3c40.7,0.6,74-13.4,74.3-31.4c0.3-17.5-30.5-32.2-69.6-33.6
			c20.3-3.4,43.4-5,68.8-4.3C187.1,358.9,216.4,382.6,194.2,421.6z"/>
	</g>
	<path fill="#F07837" d="M177.7,395.7c0,1.2-0.1,3.7-0.7,5.7c4.5,0.2,9.2-0.8,12.9-2.9c7.1-4,8-12.9,4.8-19.9
		c-2.7-5.9-8.1-11.1-14.4-12.7c-4-1.1-8.5-0.5-12.6-0.3c-5,0.3-10.1,0.9-15.1,1.8c-8.8,1.5-17.7,3.6-26,6.9
		c-6.2,2.4-11.7,6.8-12.3,13.9c-0.6,7.4,2.8,15.1,11,15.1c3.2,0,6.3-0.7,9.4-1.6c-0.9-1.5-1.4-3.1-1.2-4.6c0.6-4.2,4.9-8.4,8.6-10.7
		c0,0,13.7,6.4,29.7,0C171.8,386.4,177.7,389.4,177.7,395.7z"/>
	<path fill="#381706" d="M117.1,456.2h18.7c0,0,9.1-16,5.5-48.8h-8.7c0,0,2.7,19.2-7.3,34.2C125.3,441.6,114.4,434.8,117.1,456.2z"
		/>
	<path fill="#381706" d="M201.1,456.2h-18.7c0,0-9.1-16-5.5-48.8h8.7c0,0-2.7,19.2,7.3,34.2C192.9,441.6,203.8,434.8,201.1,456.2z"
		/>
	<path fill="#FF942A" d="M250.5,265.4c-3.9-0.7-9.1-0.2-13.5,5.1c-0.5-1.3-1.1-2.7-1.8-4.2c-7.7-15.9-23.3-18.3-35.2-17.4
		c-8.8,0.6-15.6,3.1-15.6,3.1l-3.6-9.1c0,0,11.2-6.3,25.6-6.7c9.4-0.3,20.2,1.8,30.2,9.7C242.9,251,247.7,257.7,250.5,265.4z"/>
	<path fill="#FF942A" d="M127.8,242.9l-3.6,9.1c0,0-8.2-2.9-18.4-3.2c-11.4-0.3-25.3,2.8-32.4,17.5c-0.7,1.4-1.3,2.8-1.8,4.2
		c-4.4-5.4-9.6-5.9-13.5-5.1c2.8-7.7,7.6-14.4,13.9-19.4c9.8-7.7,20.3-10,29.6-9.8C116.4,236.5,127.8,242.9,127.8,242.9z"/>
	<path fill="#F07837" d="M77.8,242.1c28.2-15.6,50,0.8,50,0.8l-3.6,9.1c0,0-8.2-2.9-18.4-3.2C104.3,246.5,89.6,238.7,77.8,242.1z"/>
	<path fill="#F07837" d="M206.4,236.2c-5,4.9-6.3,9.4-6.4,12.8c-8.8,0.6-15.6,3.1-15.6,3.1l-3.6-9.1
		C180.8,242.9,192,236.7,206.4,236.2z"/>
	<path fill="#FF942A" d="M221.1,381.4c-15.5,31.9-44.2,26-44.2,26s-6.9-1.4-0.9-9.6c1.3-1.8,1.9-3.7,1.9-5.5
		c0.1-6.3-6.1-11.8-6.1-11.8c-16,6.4-29.7,0-29.7,0c-3.8,2.3-7.1,6.7-7.7,11c-0.4,2.5,0.2,4.9,2.3,6.8c5.5,5,4.6,9.1,4.6,9.1
		c-8.7,10-32.7-0.3-44.2-11.7C82,381,79.6,367.7,81.6,357.5c2.6-12.9,12.2-21,12.2-21c-5.3-35.9,8.4-68.4,18.9-87.1
		c5.9-10.5,10.8-16.7,10.8-16.7h57c4.3,3.8,8,8.1,11.3,12.6c25.6,35.1,23.3,85.9,23.3,85.9s8.9,7.6,11.1,21.5
		C227.4,360.5,226.6,370.1,221.1,381.4z"/>
	<path fill="#F07837" d="M191.8,245.3c-14.6,12.1-15.9,32.9-28.6,34.1c-12.8,1.2-36.5-25.5-50.5-30c5.9-10.5,10.8-16.7,10.8-16.7h57
		C184.8,236.6,188.5,240.8,191.8,245.3z"/>
	<path fill="#FFECDB" d="M206.9,324.7c-3.1,42.8-36.2,54.7-48,55.9c-11.9,1.2-47.4-6.1-55.9-53.8c-5.2-29.2,4.9-57.9,13.6-75.7
		c5.5-11.3,10.4-18.3,10.4-18.3h50.2c4.3,5,8.2,10.1,11.7,15.4C202.8,269.4,209.2,293.2,206.9,324.7z"/>
	<path fill="#F2D0AD" d="M206.9,324.7c-3.1,42.8-36.2,54.7-48,55.9c-11.9,1.2-47.4-6.1-55.9-53.8c-2-11.4-1.7-22.7-0.1-33.4
		c9.4,45.2,43.8,52.2,55.4,51c11.5-1.2,42.8-12.4,47.6-51.9C207.4,302.3,207.8,313,206.9,324.7z"/>
	<path fill="#F2D0AD" d="M188.8,248.1c-11.8,12.3-13.8,30.2-25.6,31.3c-11.7,1.1-32.4-21-46.6-28.3c5.5-11.3,10.4-18.3,10.4-18.3
		h50.2C181.5,237.8,185.4,242.9,188.8,248.1z"/>
	<path fill="#381706" d="M236.4,334.1c-5.8,6.7-19,0.8-20.7-11.9c-1.6-12.1,31.4-23.5,21.2-51.8c4.4-5.4,9.6-5.9,13.5-5.1
		c6.1,17.1,1.8,39.1-20.4,56.9C230.1,322.3,242.2,327.5,236.4,334.1z"/>
	<path fill="#381706" d="M72.2,334.1c5.8,6.7,19,0.8,20.7-11.9c1.6-12.1-31.4-23.5-21.2-51.8c-4.4-5.4-9.6-5.9-13.5-5.1
		c-6.1,17.1-1.8,39.1,20.4,56.9C78.6,322.3,66.4,327.5,72.2,334.1z"/>
	<g>
		<g>
			<path fill="#FF942A" d="M89.1,134.3c-22.6,16.9-48.9,23.4-60.7,13.4c-3.2-2.7-6.2-6.5-8.8-11.1c-0.5-0.8-1-1.7-1.4-2.5
				c-1.6-3.1-3.1-6.4-4.5-10C-0.2,88.4-3.1,31.3,3.1,25.9c8.3-7.3,61.4,1.4,88.6,39.3c0.3,0.5,0.7,1,1,1.5c2.8,4.1,5.4,8.6,7.5,13.4
				c1.7,3.8,3.1,7.8,4.3,12.1C110,106.1,99.2,126.8,89.1,134.3z"/>
			<path fill="#F07837" d="M18.8,40.5c-8.3,5-0.2,81.4,12.7,84.5c12.9,3.1,41.6-26.7,41.6-36.3c0-9.7-20.2-10-20.2-10L70.4,71
				L44.8,59.9l14.3-4.8C59.1,55.1,28.6,34.5,18.8,40.5z"/>
			<path fill="#F07837" d="M89.1,134.3c-22.6,16.9-48.9,23.4-60.7,13.4c-3.2-2.7-6.2-6.5-8.8-11.1C41.2,93,79.5,72.6,92.7,66.7
				c2.8,4.1,5.4,8.6,7.5,13.4c1.7,3.8,3.1,7.8,4.3,12.1C110,106.1,99.2,126.8,89.1,134.3z"/>
		</g>
		<g>
			<path fill="#FF942A" d="M178.2,122.6c25.1,12.8,52.2,14.7,62.1,2.8c2.7-3.3,5-7.5,6.8-12.4c0.4-0.9,0.7-1.8,1-2.8
				c1.1-3.3,2-6.8,2.8-10.6c7.7-37.5,0.7-94.3-6.3-98.6c-9.4-5.8-60.3,11.9-80.6,53.9c-0.3,0.5-0.5,1.1-0.8,1.6
				c-2.1,4.6-3.8,9.4-5.1,14.5c-1,4.1-1.7,8.2-2.2,12.6C152.8,98.4,166.9,116.9,178.2,122.6z"/>
			<path fill="#F07837" d="M231.4,18.1c9,3.5,14.1,80.2,1.9,85.4c-12.2,5.2-45.5-19.2-47.2-28.7c-1.7-9.5,18.2-13.3,18.2-13.3
				l-18.5-4.5l23.3-15.4l-15-2.3C194.2,39.4,220.7,14,231.4,18.1z"/>
			<path fill="#F07837" d="M178.2,122.6c25.1,12.8,52.2,14.7,62.1,2.8c2.7-3.3,5-7.5,6.8-12.4c-28.6-39.2-69.8-52.8-83.9-56.4
				c-2.1,4.6-3.8,9.4-5.1,14.5c-1,4.1-1.7,8.2-2.2,12.6C152.8,98.4,166.9,116.9,178.2,122.6z"/>
		</g>
		<path fill="#FF942A" d="M278.1,195.5c-81.6-22.4-127.2-0.1-127.2-0.1C74.3,199.8,21,239.9,21,239.9S0.1,118.1,108.1,67.1
			c0,0,7.3-13.6,24.6-26.4l-9.1,22.2c0.6-0.6,10.1-10.1,22.3-15.3L144,62C144,62,239.5,56.1,278.1,195.5z"/>
		<path fill="#FFECDB" d="M278.1,195.5c0,0-87.2,21.7-114.5,71.8c0,0-65.7-47-142.6-27.4c0,0,47.8-52.7,129.9-44.4
			C150.9,195.5,211.2,160.7,278.1,195.5z"/>
		<path fill="#381706" d="M141.3,188.3l16.2-2.5c2.8-0.4,4.8,2.8,3.1,5.1l-6.8,9.3c-1.1,1.4-3.1,1.8-4.5,0.7l-9.4-6.8
			C137.5,192.4,138.4,188.8,141.3,188.3z"/>
		<path fill="#F07837" d="M160,167.9c0,0-3.4-4.7,4.1-10.2c11.1-8.1,37.1-18.7,60.3-25.5c15.3,4.6,17.3,14,17.3,14
			S217.7,157.1,160,167.9z"/>
		<path fill="#F07837" d="M133.1,171.9c0,0,1.8-5.5-7-8.5c-13-4.4-41.7-3.3-65.9-3c-13.3,8.9-11.6,15-11.6,15
			S76.5,182.6,133.1,171.9z"/>
		<g>
			<defs>
				<path id="SVGID_1_" d="M163.6,163.9c0,0-14.5-53.1,18.5-59.2c27.3-5.1,41.1,40.9,41.1,40.9S194,158.7,163.6,163.9z"/>
			</defs>
			<use xlink:href="#SVGID_1_"  overflow="visible" fill="#FFFFFF"/>
			<clipPath id="SVGID_2_">
				<use xlink:href="#SVGID_1_"  overflow="visible"/>
			</clipPath>
			
				<ellipse transform="matrix(-0.9552 0.2959 -0.2959 -0.9552 413.2109 235.8385)" clip-path="url(#SVGID_2_)" fill="#381706" cx="188.8" cy="149.2" rx="27.7" ry="26"/>
		</g>
		<path fill="#FFFFFF" d="M210.2,142.7c-0.1,2.6-2.1,4.8-4.5,4.8c-2.4,0-4.3-2.1-4.3-4.7c0.1-2.6,2.1-4.8,4.5-4.8
			C208.3,137.9,210.2,140.1,210.2,142.7z"/>
		<g>
			<path fill="#381706" d="M162.8,165.2l-0.3-0.9c-0.4-1.3-8.5-31.8,2.5-49.3c3.8-6.1,9.5-9.8,16.9-11.2c28-5.2,41.7,39.7,42.3,41.6
				l0.3,0.9l-0.8,0.4c-0.3,0.1-28.3,13.2-59.9,18.4L162.8,165.2z M186.2,105.4c-1.3,0-2.6,0.1-3.9,0.4c-6.8,1.3-12,4.7-15.4,10.2
				c-9.5,15.1-3.8,41.4-2.5,46.7c27.8-4.8,52.6-15.5,57.5-17.7C219.9,139.1,207.8,105.4,186.2,105.4z"/>
		</g>
		<path fill="#FF942A" d="M223.8,132c0,0-34.2,3.8-64.9,29.4c0,0-26.8-37.8,2.6-61.9C191,75.5,223.8,132,223.8,132z"/>
		<path fill="#381706" d="M126.4,222.7c4-2.7,8.3-4.7,12.7-6.4c4.4-1.7,8.9-3.1,13.5-4.3c4.6-1.1,9.2-2,13.9-2.5
			c2.3-0.3,4.7-0.4,7-0.6c2.4-0.1,4.7-0.1,7.1-0.1l0.2,2.4c-2.3,0.5-4.6,0.8-6.9,1.1l-3.4,0.6l-1.7,0.3l-1.7,0.3
			c-1.1,0.2-2.3,0.4-3.4,0.6c-1.1,0.2-2.2,0.5-3.4,0.7c-2.3,0.4-4.5,1-6.7,1.5c-4.5,1.1-8.9,2.3-13.3,3.7c-4.4,1.4-8.7,2.9-12.9,4.7
			L126.4,222.7z"/>
		<g>
			<path fill="#381706" d="M160.1,162.9l-2.3-2.8c33.9-28.3,67.5-29.8,68.9-29.8l0.1,3.6C226.4,133.9,193,135.4,160.1,162.9z"/>
		</g>
		<g>
			<defs>
				<path id="SVGID_3_" d="M128.2,170.4c0,0-3.7-54.9-36.9-49.9c-27.5,4.1-25.4,52.1-25.4,52.1S97.8,175.4,128.2,170.4z"/>
			</defs>
			<use xlink:href="#SVGID_3_"  overflow="visible" fill="#FFFFFF"/>
			<clipPath id="SVGID_4_">
				<use xlink:href="#SVGID_3_"  overflow="visible"/>
			</clipPath>
			
				<ellipse transform="matrix(0.9994 -3.333199e-002 3.333199e-002 0.9994 -5.4331 3.4111)" clip-path="url(#SVGID_4_)" fill="#381706" cx="99.6" cy="164.7" rx="27.7" ry="26"/>
		</g>
		<path fill="#FFFFFF" d="M108.5,164.6c0.9,2.5,3.5,3.9,5.8,3.1c2.3-0.8,3.4-3.4,2.5-5.9c-0.9-2.5-3.5-3.9-5.8-3.1
			C108.7,159.5,107.6,162.2,108.5,164.6z"/>
		<g>
			<path fill="#381706" d="M88.3,174.6c-13.3,0-22.3-0.9-22.5-0.9l-0.9-0.1l0-0.9c-0.1-2-1.8-48.9,26.3-53.2
				c7.4-1.1,14,0.6,19.6,5.1c16.1,13,18.4,44.4,18.5,45.8l0.1,1l-1,0.2C113.9,173.9,99.6,174.6,88.3,174.6z M67,171.6
				c5.3,0.5,32.3,2.5,60.1-2.1c-0.5-5.4-3.8-32.2-17.6-43.3c-5.1-4.1-11.1-5.6-17.9-4.6C67.3,125.2,66.9,164.9,67,171.6z"/>
		</g>
		<path fill="#FF942A" d="M60.9,159.9c0,0,33.6-7.6,71,6.5c0,0,13-44.5-22.7-57.6C73.4,95.7,60.9,159.9,60.9,159.9z"/>
		<g>
			<path fill="#381706" d="M131.2,168.2C91,153,59,162.5,58.7,162.6l-1.1-3.5c1.4-0.4,33.6-10,74.9,5.6L131.2,168.2z"/>
		</g>
		
			<ellipse transform="matrix(0.998 6.345242e-002 -6.345242e-002 0.998 9.2962 -6.1553)" fill="#381706" cx="101.6" cy="143.3" rx="12.9" ry="4.7"/>
		
			<ellipse transform="matrix(-0.866 0.5 -0.5 -0.866 384.0391 155.7728)" fill="#381706" cx="171.1" cy="129.3" rx="12.9" ry="4.7"/>
	</g>
	<path fill="#F07837" d="M141.3,407.4c-8.7,10-32.7-0.3-44.2-11.7C82,381,79.6,367.7,81.6,357.5c18.1,43.6,41.1,39.8,52.8,34
		c-0.4,2.5,0.2,4.9,2.3,6.8C142.2,403.3,141.3,407.4,141.3,407.4z"/>
	<path fill="#F07837" d="M221.1,381.4c-15.5,31.9-44.2,26-44.2,26s-6.9-1.4-0.9-9.6c1.3-1.8,1.9-3.7,1.9-5.5
		c30.2,11.5,43.5-22.4,48.3-39.5C227.4,360.5,226.6,370.1,221.1,381.4z"/>
</g>
</svg>
