<?xml version="1.0" encoding="utf-8"?>
<!-- Generator: Adobe Illustrator 17.1.0, SVG Export Plug-In . SVG Version: 6.00 Build 0)  -->
<!DOCTYPE svg PUBLIC "-//W3C//DTD SVG 1.1//EN" "http://www.w3.org/Graphics/SVG/1.1/DTD/svg11.dtd">
<svg version="1.1" id="Layer_1" xmlns="http://www.w3.org/2000/svg" xmlns:xlink="http://www.w3.org/1999/xlink" x="0px" y="0px"
	 width="315.7px" height="449.6px" viewBox="0 0 315.7 449.6" enable-background="new 0 0 315.7 449.6" xml:space="preserve">
<g>
	<ellipse fill="#D7E2FF" cx="133.6" cy="436" rx="124.3" ry="13.6"/>
	<g>
		<path fill="#FFECDB" d="M62.4,387.1c0,0-7.2,4.4-14.9,9.7c-16.4-6.9-26.5-16.7-26.4-27.3c0-1.2,0.2-2.3,0.5-3.5
			c10.7-7.8,25.3-15.1,43.1-21c-11.7,7.8-28.4,20.1-27.3,26.7C39.1,381.7,62.4,387.1,62.4,387.1z"/>
		<path fill="#FF942A" d="M192.1,399.7c-17.5,30.9-61.1,41.5-96.4,38c-9.1-0.9-23.8-2.2-38.9-4.9l9.3-8.4c0,0-37.7-6.8-37.1-11.9
			c0.6-5.2,33.5-25.4,33.5-25.4s-23.4-5.4-25-15.5c-1.1-6.6,15.7-18.9,27.3-26.7c30.8-10.3,71.5-16.7,119.6-15.3
			C184.3,329.7,216.8,356.2,192.1,399.7z"/>
		<path fill="#F2D0AD" d="M21.6,366c-0.3,1.1-0.4,2.3-0.5,3.5c-0.2,10.6,10,20.4,26.4,27.3c-8.8,6-18.3,13-18.6,15.7
			c-0.6,5.2,37.1,11.9,37.1,11.9l-9.3,8.4c-27.8-5-57.6-14.8-56.8-35.5C0.4,386.4,8,375.9,21.6,366z"/>
		<path fill="#F07837" d="M192.1,399.7c-17.5,30.9-61.1,41.5-96.4,38c-9.1-0.9-23.8-2.2-38.9-4.9l9.3-8.4c0,0-37.7-6.8-37.1-11.9
			c0.3-2.7,9.8-9.8,18.6-15.7c14.5,6.1,33.7,10,55,10.3c45.3,0.7,82.3-15,82.7-35c0.3-19.5-34-35.9-77.4-37.5
			c22.6-3.8,48.3-5.6,76.5-4.8C184.3,329.7,216.8,356.2,192.1,399.7z"/>
	</g>
	<path fill="#F07837" d="M178,370.9c0,1.4-0.2,4.2-0.7,6.4c4.7,0.3,9.6-0.9,13.5-3.2c7.4-4.5,8.3-14.5,5-22.2
		c-2.8-6.6-8.4-12.4-15.1-14.2c-4.2-1.2-8.8-0.6-13.1-0.3c-5.3,0.4-10.5,1-15.7,2c-9.2,1.7-18.5,4-27.1,7.7
		c-6.5,2.7-12.2,7.5-12.8,15.5c-0.6,8.3,2.9,16.8,11.5,16.9c3.3,0,6.6-0.8,9.8-1.8c-0.9-1.6-1.5-3.4-1.2-5.2c0.6-4.7,5.1-9.4,9-12
		c0,0,14.3,7.1,31,0C171.8,360.5,178,363.8,178,370.9z"/>
	<path fill="#381706" d="M114.7,438.4h19.5c0,0,9.5-17.8,5.7-54.5h-9c0,0,2.9,21.4-7.6,38.2C123.3,422.1,111.9,414.5,114.7,438.4z"
		/>
	<path fill="#381706" d="M202.4,438.4h-19.5c0,0-9.5-17.8-5.7-54.5h9c0,0-2.9,21.4,7.6,38.2C193.8,422.1,205.2,414.5,202.4,438.4z"
		/>
	<path fill="#FF942A" d="M223.3,354.9c-16.2,35.6-46.1,29-46.1,29s-7.2-1.5-0.9-10.7c1.4-2,2-4.2,2-6.2c0.1-7-6.4-13.2-6.4-13.2
		c-16.7,7.1-31,0-31,0c-3.9,2.6-7.4,7.5-8,12.3c-0.4,2.8,0.2,5.5,2.4,7.6c5.7,5.6,4.8,10.2,4.8,10.2c-9,11.2-34.1-0.4-46.2-13
		c-15.7-16.5-18.2-31.3-16.1-42.7c2.7-14.4,12.7-23.4,12.7-23.4c-5.5-40.1,8.8-76.3,19.7-97.2c6.2-11.8,11.3-18.6,11.3-18.6h59.5
		c4.4,4.3,8.3,9,11.8,14c26.7,39.1,24.4,95.9,24.4,95.9s9.3,8.5,11.6,24.1C229.9,331.5,229,342.2,223.3,354.9z"/>
	<path fill="#F07837" d="M208.2,298.9C208.2,298.9,208.2,298.9,208.2,298.9c-0.1-0.1,1.9-56.9-21-96c-2.9-5-6.3-9.7-10.1-14h3.9
		c4.5,4.3,8.4,9,11.8,14c11.4,16.7,17.5,36.7,20.8,54.1C213.9,271.7,212.4,286.3,208.2,298.9z"/>
	<path fill="#F07837" d="M116.1,207.6c-9.3,20.5-21.3,56-17.2,95.3c-5.3-13.6-7.2-29.7-6.6-45.9c4.1-20.1,11.5-37.3,17.9-49.4
		c6.2-11.7,11.3-18.6,11.3-18.6h4.4C125.8,188.9,121.4,195.8,116.1,207.6z"/>
	<path fill="#F07837" d="M192.7,203c-15.2,13.5-16.6,36.7-29.9,38.1c-13.3,1.4-38.1-28.5-52.7-33.5c6.2-11.8,11.3-18.6,11.3-18.6
		h59.5C185.4,193.2,189.3,197.9,192.7,203z"/>
	<path fill="#FFECDB" d="M209,277.9c0,3.1-0.1,6.4-0.2,9.7c-0.1,1.3-0.1,2.7-0.2,4c-0.4,5.6-1.2,10.7-2.3,15.3
		c-8.7,35.4-36.9,45.9-47.8,47.1c-11.6,1.3-44.7-5.7-56.2-50c-0.8-3.2-1.6-6.5-2.2-10.1c-0.2-1.1-0.3-2.1-0.5-3.2
		c-0.5-3.5-0.8-7-0.9-10.5c-0.1-2-0.1-3.9-0.1-5.9c0.3-25.5,8.5-49.1,15.7-65c5.7-12.7,10.9-20.5,10.9-20.5h52.4
		c4.5,5.6,8.6,11.3,12.2,17.2c11.1,18,17.6,37.7,19.1,61.5C208.9,271,209,274.4,209,277.9z"/>
	<path fill="#F2D0AD" d="M209,277.9c0,3.1-0.1,6.4-0.2,9.7c-0.1,1.3-0.1,2.7-0.2,4c-0.4,5.6-1.2,10.7-2.3,15.3
		c-8.7,35.4-36.9,45.9-47.8,47.1c-11.6,1.3-44.7-5.7-56.2-50c-0.8-3.2-1.5-6.5-2.2-10.1c-0.2-1.1-0.3-2.1-0.5-3.2
		c-0.5-3.5-0.8-7-0.9-10.5c-0.1-2-0.1-3.9-0.1-5.9c0.1-5.7,0.5-11.4,1.3-16.9c0.1,0.4,0.1,0.7,0.2,1.1c0.6,3.5,1.3,6.9,2.2,10.1
		c11.6,44.3,44.7,51.3,56.2,50c10.9-1.2,39.1-11.7,47.8-47.1c0.8-3.4,1.5-6.9,1.9-10.7c0.2,2.2,0.4,4.5,0.6,6.7
		C208.9,271,209,274.4,209,277.9z"/>
	<path fill="#F2D0AD" d="M190.8,218.3c-12.3,13.7-32.2,17.9-37.1,17.9c-3.9,0-25.8-6.1-38.9-17.9c-2.2-14.8,1.5-29.4,1.5-29.4
		l70.4,0C191.1,194.5,190.8,211.6,190.8,218.3z"/>
	<path fill="#F07837" d="M140,383.9c-9,11.2-34.1-0.4-46.2-13c-15.7-16.5-18.2-31.3-16.1-42.7c18.9,48.7,42.9,44.4,55.2,38
		c-0.4,2.8,0.2,5.5,2.4,7.6C140.9,379.3,140,383.9,140,383.9z"/>
	<path fill="#F07837" d="M223.3,354.9c-16.2,35.6-46.1,29-46.1,29s-7.2-1.5-0.9-10.7c1.4-2,2-4.2,2-6.2c31.5,12.8,45.4-25,50.4-44.1
		C229.9,331.5,229,342.2,223.3,354.9z"/>
	<path fill="#381706" d="M112.8,359.8c-6.7,1.8-15.5-14.6-17.6-66.2c-0.3-8-0.2-15.7,0.3-23c3.9,2.7,10.2,5.5,18.5,3.8
		c0.3,5.7,0.6,11.5,1.1,17.4C118.4,330.6,120.2,357.8,112.8,359.8z"/>
	<path fill="#FF942A" d="M114.8,218.3c-1,15.2-1.7,35.1-0.8,56.2c-8.3,1.6-14.6-1.1-18.5-3.8c1.7-24.3,7.2-44.6,12.3-58.7
		c5-14,9.7-22,9.7-22S115.9,201.1,114.8,218.3z"/>
	<path fill="#F07837" d="M117.5,190c0,0-1.5,11.1-2.7,28.3c-2.2-3.2-4.8-5.2-7-6.3C112.8,198,117.5,190,117.5,190z"/>
	<path fill="#381706" d="M192.8,359.8c6.7,1.8,15.4-14.6,17.6-66.2c0.3-8,0.2-15.7-0.3-23c-3.9,2.7-10.2,5.5-18.5,3.8
		c-0.3,5.7-0.6,11.5-1.1,17.4C187.1,330.6,185.4,357.8,192.8,359.8z"/>
	<path fill="#FF942A" d="M190.8,218.3c1,15.2,1.7,35.1,0.8,56.2c8.3,1.6,14.6-1.1,18.5-3.8c-1.7-24.3-7.2-44.6-12.3-58.7
		c-5-14-9.7-22-9.7-22S189.6,201.1,190.8,218.3z"/>
	<path fill="#F07837" d="M188.1,190c0,0,1.5,11.1,2.7,28.3c2.2-3.2,4.8-5.2,7-6.3C192.8,198,188.1,190,188.1,190z"/>
	<g>
		<g>
			<path fill="#FF942A" d="M64.3,109.5c-7.4-3.1-17.1-9.5-25.4-24.7c-2.5-4.7-5-10.2-7.1-16.7c-6.3-19-16.7-32.7-24-40.7
				C3.6,23,4.8,15.9,10.1,13c54.1-29.5,87.5-1.9,101.6,15.2c5.2,6.3,7.8,11.2,7.8,11.2C138.4,72.1,73.9,113.5,64.3,109.5z"/>
			<path fill="#F07837" d="M98.7,49.9C94,43,74.3,43.2,74.3,43.2l10.8-11.7c0,0-11.4-5.6-23.5-0.8c0,0,6.1-6.9,11.5-9.9
				c-7.3-6.1-47.1-3.4-51,5c-1.6,3.5,23.7,25.8,33,50.1C59.4,87.3,98.7,49.9,98.7,49.9z"/>
			<path fill="#F07837" d="M64.3,109.5c-7.4-3.1-17.1-9.5-25.4-24.7c24-35.6,59.8-51.7,72.8-56.6c5.2,6.3,7.8,11.2,7.8,11.2
				C138.4,72.1,73.9,113.5,64.3,109.5z"/>
		</g>
		<g>
			<path fill="#FF942A" d="M237.1,122.7c7.9-1.2,18.9-5.1,30.5-18c3.6-3.9,7.2-8.7,10.9-14.5c10.7-17,24-27.8,33-33.8
				c5-3.3,5.6-10.5,1.2-14.6c-45.5-41.5-84.5-22.7-102.3-9.4c-6.6,4.9-10.3,9-10.3,9C173.9,68.7,226.7,124.3,237.1,122.7z"/>
			<path fill="#F07837" d="M217.8,56.7c6.3-5.5,25.3-0.7,25.3-0.7l-7.7-13.9c0,0,12.4-2.8,23,4.8c0,0-4.3-8.1-8.8-12.3
				c8.6-4.2,46.6,7.9,48.3,17c0.7,3.8-29.2,19.4-44,40.8C247.1,102.3,217.8,56.7,217.8,56.7z"/>
			<path fill="#F07837" d="M237.1,122.7c7.9-1.2,18.9-5.1,30.5-18c-14.8-40.3-45.8-64.5-57.2-72.3c-6.6,4.9-10.3,9-10.3,9
				C173.9,68.7,226.7,124.3,237.1,122.7z"/>
		</g>
		<path fill="#FF942A" d="M275.3,179.2c-74.1-8.3-120.4-6.5-120.4-6.5c-73.7-2.5-132.1,8-132.1,8S22.2,61.3,133.3,29.7
			c0,0,9.1-11.8,27.7-21.3l-12.2,19.7c0.7-0.5,11.3-8.1,23.7-11l-4.1,13.4C168.5,30.5,260.5,40,275.3,179.2z"/>
		<path fill="#FFECDB" d="M275.3,179.2c0,0-70.7,16.5-120.7,50.3c0,0-51.6-35.4-131.8-48.8c0,0,56.9-32.4,130.3-18.4
			C153.1,162.4,217.9,144.2,275.3,179.2z"/>
		<path fill="#381706" d="M145.2,156.9l15.8,0.2c2.8,0,4.1,3.4,2.2,5.4l-8,7.8c-1.2,1.2-3.2,1.2-4.4,0l-7.9-8
			C141,160.3,142.4,156.9,145.2,156.9z"/>
		<path fill="#F07837" d="M162.3,140.3c0,0-2.4-16.4,3-37.8c0,0,25.2,3.3,60.1-5.9c13.6,11.9,13.6,31.5,13.6,31.5
			S201.7,157.7,162.3,140.3z"/>
		<g>
			<defs>
				<path id="SVGID_1_" d="M166.7,141.8c0,0-3.1-16.8-0.2-39.3c0,0,20.7,1.5,53.4-4.1c5,9,10,32.7,10,32.7S199.4,156.2,166.7,141.8z
					"/>
			</defs>
			<use xlink:href="#SVGID_1_"  overflow="visible" fill="#FFFFFF"/>
			<clipPath id="SVGID_2_">
				<use xlink:href="#SVGID_1_"  overflow="visible"/>
			</clipPath>
			<path clip-path="url(#SVGID_2_)" fill="#381706" d="M169,128.1c-0.8,20.4,11.7,38.6,28.2,37.7c16.4-0.9,26.9-20.4,23.8-40.6
				c-2.7-17.5-14.9-29.6-27.7-28.9C180.6,97,169.7,110.4,169,128.1z"/>
			<path clip-path="url(#SVGID_2_)" fill="#FFFFFF" d="M210.3,113.9c0.3,3.8-1.8,7.2-4.8,7.6c-3,0.4-5.6-2.4-6-6.3
				c-0.3-3.8,1.8-7.2,4.8-7.6C207.3,107.2,210,110,210.3,113.9z"/>
		</g>
		<g>
			<path fill="#381706" d="M187.8,147.1c-6.8,0-14.1-1.3-21.5-4.5l-0.4-0.2l-0.1-0.5c0-0.2-3.1-17.2-0.2-39.5l0.1-0.8l0.8,0.1
				c0.2,0,21,1.4,53.1-4.1l0.6-0.1l0.3,0.6c5,9,9.9,32,10.1,32.9l0.1,0.5l-0.4,0.3C230.2,132,211.5,147.1,187.8,147.1z M167.5,141.2
				c29.5,12.8,57.6-7.5,61.4-10.4c-0.8-3.5-5.1-23-9.5-31.4c-28.4,4.8-47.9,4.3-52.1,4.1C164.8,123.1,167.1,138.4,167.5,141.2z"/>
		</g>
		<path fill="#F07837" d="M141.8,140.1c0,0,1.7-16.4-4.7-37.6c0,0-25,4.4-60.3-3.3c-13.1,12.5-12.2,32.1-12.2,32.1
			S103.1,159.3,141.8,140.1z"/>
		<g>
			<defs>
				<path id="SVGID_3_" d="M137.4,141.8c0,0,2.4-16.9-1.5-39.2c0,0-20.6,2.4-53.5-1.8c-4.6,9.2-8.6,33.1-8.6,33.1
					S105.4,157.7,137.4,141.8z"/>
			</defs>
			<use xlink:href="#SVGID_3_"  overflow="visible" fill="#FFFFFF"/>
			<clipPath id="SVGID_4_">
				<use xlink:href="#SVGID_3_"  overflow="visible"/>
			</clipPath>
			<path clip-path="url(#SVGID_4_)" fill="#381706" d="M134.5,128.2c1.7,20.4-10,39.1-26.5,38.9c-16.5-0.2-27.8-19.2-25.6-39.5
				c1.9-17.6,13.6-30.2,26.4-30.1C121.6,97.7,133,110.5,134.5,128.2z"/>
			<path clip-path="url(#SVGID_4_)" fill="#FFFFFF" d="M114.1,115.1c-0.1,3.8,2.2,7.1,5.1,7.3c3,0.2,5.5-2.7,5.7-6.5
				c0.1-3.8-2.2-7.1-5.1-7.3C116.8,108.3,114.3,111.3,114.1,115.1z"/>
		</g>
		<g>
			<path fill="#381706" d="M114.1,148.1c-22.5,0-40.6-13.3-40.8-13.5l-0.4-0.3l0.1-0.5c0.2-1,4-24.1,8.7-33.4l0.3-0.6l0.6,0.1
				c32.4,4.1,53.1,1.8,53.3,1.8l0.8-0.1l0.1,0.8c3.9,22.2,1.6,39.3,1.5,39.5l-0.1,0.5l-0.4,0.2C129.7,146.6,121.6,148.1,114.1,148.1
				z M74.8,133.5c3.9,2.7,32.8,21.7,61.8,7.7c0.3-2.8,1.9-18.2-1.4-37.7c-4.2,0.4-23.6,1.8-52.2-1.8C78.9,110.3,75.4,130,74.8,133.5
				z"/>
		</g>
		
			<ellipse transform="matrix(-0.9755 -0.2198 0.2198 -0.9755 350.6657 196.5443)" fill="#381706" cx="186.3" cy="78.8" rx="12.5" ry="4.5"/>
		
			<ellipse transform="matrix(0.9818 -0.1897 0.1897 0.9818 -12.5266 23.6643)" fill="#381706" cx="117.3" cy="77.3" rx="12.5" ry="4.5"/>
		<path fill="#381706" d="M129.5,187.1l1.8,2.5l-1.3-0.3c3.4-2.2,7.1-3.8,11-4.9c3.9-1.1,7.9-1.8,11.9-1.8c2-0.1,4.1,0.1,6.1,0.3
			c1,0.2,2,0.4,3,0.5c0.5,0.1,1,0.2,1.5,0.3l1.5,0.4c3.9,1,7.5,3,10.9,5.2l0,0l-1.2,0.2l2-2.5l1.5,1.2l-2,2.5l-1.2,0.2
			c-3.5-1.6-7-3.1-10.7-3.8l-1.4-0.3c-0.5-0.1-0.9-0.1-1.4-0.2l-2.8-0.4c-1.9-0.1-3.7-0.3-5.6-0.2c-3.8,0.1-7.5,0.5-11.2,1.4
			l-2.8,0.7c-0.9,0.3-1.8,0.5-2.7,0.8c-1.8,0.6-3.6,1.3-5.3,2.1l-1.3-0.3l-1.8-2.5L129.5,187.1z"/>
	</g>
</g>
</svg>
