<?xml version="1.0" encoding="utf-8"?>
<!-- Generator: Adobe Illustrator 17.1.0, SVG Export Plug-In . SVG Version: 6.00 Build 0)  -->
<!DOCTYPE svg PUBLIC "-//W3C//DTD SVG 1.1//EN" "http://www.w3.org/Graphics/SVG/1.1/DTD/svg11.dtd">
<svg version="1.1" id="Layer_1" xmlns="http://www.w3.org/2000/svg" xmlns:xlink="http://www.w3.org/1999/xlink" x="0px" y="0px"
	 width="310.2px" height="437px" viewBox="0 0 310.2 437" enable-background="new 0 0 310.2 437" xml:space="preserve">
<g>
	<ellipse fill="#D7E2FF" cx="152.7" cy="423.4" rx="107.4" ry="13.6"/>
	<g>
		<path fill="#FFECDB" d="M92.8,376.3c0,0-6.6,4.1-13.7,8.9c-15-6.3-24.4-15.3-24.2-25.1c0-1.1,0.2-2.1,0.4-3.2
			c9.9-7.2,23.2-13.9,39.6-19.3c-10.7,7.1-26.1,18.5-25.1,24.5C71.3,371.4,92.8,376.3,92.8,376.3z"/>
		<path fill="#FF942A" d="M211.8,387.9c-16.1,28.4-56,38.1-88.5,35c-8.3-0.8-21.8-2-35.7-4.5l8.5-7.7c0,0-34.6-6.2-34.1-11
			c0.5-4.7,30.7-23.3,30.7-23.3s-21.4-5-23-14.2c-1-6.1,14.4-17.4,25.1-24.5c28.3-9.4,65.6-15.3,109.7-14
			C204.6,323.5,234.5,347.9,211.8,387.9z"/>
		<path fill="#F2D0AD" d="M55.3,356.9c-0.3,1-0.4,2.1-0.4,3.2c-0.2,9.8,9.2,18.8,24.2,25.1c-8.1,5.5-16.8,11.9-17,14.5
			c-0.5,4.7,34.1,11,34.1,11l-8.5,7.7c-25.5-4.6-52.8-13.6-52.1-32.6C35.8,374.6,43.4,365.2,55.3,356.9z"/>
		<path fill="#F07837" d="M211.8,387.9c-16.1,28.4-56,38.1-88.5,35c-8.3-0.8-21.8-2-35.7-4.5l8.5-7.7c0,0-34.6-6.2-34.1-11
			c0.3-2.5,9-9,17-14.5c13.3,5.6,31,9.2,50.5,9.5c41.6,0.7,75.6-13.8,75.9-32.2c0.3-17.9-31.2-33-71-34.5
			c20.8-3.5,44.3-5.2,70.2-4.4C204.6,323.5,234.5,347.9,211.8,387.9z"/>
	</g>
	<path fill="#FF942A" d="M146.9,193.8c-0.9,0.9-18.6,18.1-28.5,35.7c-4.5,8-7.4,16-6.5,22.7c0,0-11.1-0.3-12.2,9.8
		c-6.1-20.8,5-37.6,18-49.3C130.9,200.9,146.1,194.2,146.9,193.8z"/>
	<path fill="#F07837" d="M146.9,193.8c-0.9,0.9-18.6,18.1-28.5,35.7c1.2-4.7,2-11.5-0.7-16.8C130.9,200.9,146.1,194.2,146.9,193.8z"
		/>
	<path fill="#FF942A" d="M193.7,193.5c0.9,0.8,18.9,16.4,29.4,33.2c4.7,7.5,7.8,15.1,7.3,21.7c0,0,10.3-1.5,11.7,8.2
		c5.1-21.2-6.3-37-19.4-47.4C209.2,198.5,194.5,193.7,193.7,193.5z"/>
	<path fill="#F07837" d="M193.7,193.5c0.9,0.8,18.9,16.4,29.4,33.2c-1.4-4.6-2.6-11.6-0.4-17.5C209.2,198.5,194.5,193.7,193.7,193.5
		z"/>
	<path fill="#F07837" d="M195.8,361.4c0,1.3-0.2,3.8-0.7,5.9c4.6,0.2,9.5-0.8,13.2-2.9c7.3-4.2,8.2-13.3,4.9-20.4
		c-2.8-6-8.3-11.4-14.8-13.1c-4.1-1.1-8.7-0.5-12.9-0.3c-5.2,0.3-10.3,0.9-15.5,1.8c-9,1.5-18.2,3.7-26.7,7.1
		c-6.3,2.5-12,6.9-12.6,14.2c-0.6,7.6,2.8,15.5,11.3,15.5c3.2,0,6.5-0.7,9.6-1.6c-0.9-1.5-1.4-3.2-1.2-4.8c0.6-4.3,5-8.6,8.8-11
		c0,0,14.1,6.6,30.5,0C189.8,351.8,195.9,354.9,195.8,361.4z"/>
	<path fill="#381706" d="M133.6,423.4h19.2c0,0,9.4-16.4,5.6-50.1h-8.9c0,0,2.8,19.7-7.5,35.1C142,408.5,130.8,401.4,133.6,423.4z"
		/>
	<path fill="#381706" d="M219.8,423.4h-19.2c0,0-9.4-16.4-5.6-50.1h8.9c0,0-2.8,19.7,7.5,35.1C211.4,408.5,222.7,401.4,219.8,423.4z
		"/>
	<path fill="#FF942A" d="M240.4,346.7c-15.9,32.8-45.3,26.7-45.3,26.7s-7.1-1.4-0.9-9.8c1.4-1.9,1.9-3.8,2-5.7
		c0.1-6.5-6.3-12.1-6.3-12.1c-16.4,6.6-30.5,0-30.5,0c-3.9,2.4-7.3,6.9-7.9,11.3c-0.4,2.6,0.2,5.1,2.3,7c5.6,5.1,4.7,9.4,4.7,9.4
		c-8.9,10.3-33.6-0.4-45.4-12c-15.5-15.2-17.9-28.8-15.8-39.3c2.6-13.3,12.5-21.5,12.5-21.5c-5.4-36.9,8.6-70.2,19.4-89.4
		c6.1-10.8,11.1-17.1,11.1-17.1h58.6c4.4,3.9,8.2,8.3,11.6,12.9c26.2,36,24,88.2,24,88.2s9.2,7.8,11.4,22.1
		C246.9,325.2,246,335,240.4,346.7z"/>
	<path fill="#F07837" d="M210.3,207c-14.9,12.5-16.3,33.8-29.4,35c-13.1,1.3-37.5-26.2-51.8-30.8c6.1-10.8,11.1-17.1,11.1-17.1h58.6
		C203.1,198,206.9,202.3,210.3,207z"/>
	<path fill="#FFECDB" d="M226.1,284.8c-0.1,1.2-0.1,2.4-0.2,3.7c-3.2,43.9-37.1,56.2-49.3,57.4c-12.2,1.3-48.7-6.2-57.4-55.2
		c-0.2-1-0.3-2-0.5-2.9c-0.7-5.1-1-10.1-1-15.1c0.3-23.4,8.3-45.1,15.4-59.8c5.7-11.7,10.7-18.8,10.7-18.8h51.5
		c4.4,5.2,8.4,10.4,12,15.8c10.9,16.6,17.3,34.7,18.8,56.6C226.4,272.2,226.4,278.4,226.1,284.8z"/>
	<path fill="#F2D0AD" d="M226.1,284.6c0.1-1.3,0.1-2.5,0.2-3.8c0-0.3,0-0.6,0-1c0.1-3,0.1-6,0-8.9c0-0.4,0-0.7-0.1-1.1
		c0-1.1-0.1-2.1-0.2-3.1c0-0.1,0-0.2,0-0.3c-0.3-3.8-0.7-7.5-1.2-11.1c-0.5,3.8-1.1,7.3-2,10.5l-31.2-5l-28.1,1.1l-40,9.3
		c-1.8-4.5-3.3-9.4-4.5-14.9c-0.8,5.3-1.3,10.7-1.4,16.3c0,0.1,0,0.2,0,0.2c0,0.5,0,1.1,0,1.6c0,0.8,0,1.6,0,2.4
		c0,0.6,0.1,1.3,0.1,1.9c0,0.7,0.1,1.4,0.1,2.1c0,0.7,0.1,1.4,0.2,2c0.1,0.7,0.1,1.4,0.2,2.1c0.1,0.7,0.2,1.3,0.2,2
		c0,0.2,0.1,0.5,0.1,0.7c0.2,1,0.3,2,0.5,2.9c8.7,49,45.3,56.5,57.4,55.2c12.2-1.2,46.1-13.5,49.3-57.4c0.1-1.2,0.2-2.5,0.2-3.7
		C226.1,284.7,226.1,284.7,226.1,284.6z M177.2,310.7c-7.6,0.8-33.8-2.3-42.6-22.1c15.7,0,25.1-16.4,25.1-16.4
		c17,28.4,30.2-0.8,30.2-0.8c4.5,4.2,17.2,13.8,22,13.5C207.6,305.5,184,310,177.2,310.7z"/>
	<path fill="#F2D0AD" d="M207.2,209.8c-12.1,12.6-14.2,31-26.3,32.1c-12,1.1-33.3-21.6-47.8-29.1c5.7-11.6,10.7-18.8,10.7-18.8h51.5
		C199.7,199.2,203.7,204.4,207.2,209.8z"/>
	<path fill="#F07837" d="M158.4,373.4c-8.9,10.3-33.6-0.4-45.4-12c-15.5-15.2-17.9-28.8-15.8-39.3c18.6,44.8,42.2,40.9,54.2,34.9
		c-0.4,2.6,0.2,5.1,2.3,7C159.4,369.1,158.4,373.4,158.4,373.4z"/>
	<path fill="#F07837" d="M240.4,346.7c-15.9,32.8-45.3,26.7-45.3,26.7s-7.1-1.4-0.9-9.8c1.4-1.9,1.9-3.8,2-5.7
		c31,11.8,44.7-23,49.5-40.6C246.9,325.2,246,335,240.4,346.7z"/>
	<g>
		<g>
			<path fill="#FF942A" d="M72.6,123.7c-7.8-1.8-18.4-6.5-29-20.2c-3.3-4.2-6.5-9.2-9.7-15.2C24.6,70.6,12.1,58.8,3.6,52.2
				c-4.8-3.7-4.8-10.9-0.1-14.6C51.9-0.3,89.3,21.4,106,35.9c6.2,5.4,9.5,9.8,9.5,9.8C139.5,74.7,82.8,126,72.6,123.7z"/>
			<path fill="#F07837" d="M96.8,59.4c-5.8-6-25.2-2.6-25.2-2.6l8.7-13.2c0,0-12.1-3.7-23.2,3.1c0,0,4.9-7.7,9.7-11.6
				c-8.2-4.8-46.9,4.4-49.4,13.2C16.4,52,45,69.8,58.1,92.2C64.2,102.6,96.8,59.4,96.8,59.4z"/>
			<path fill="#F07837" d="M72.6,123.7c-7.8-1.8-18.4-6.5-29-20.2C61.4,64.5,94,42.8,106,35.9c6.2,5.4,9.5,9.8,9.5,9.8
				C139.5,74.7,82.8,126,72.6,123.7z"/>
		</g>
		<g>
			<path fill="#FF942A" d="M244.9,108.4c7.6-2.5,17.7-8.1,27.1-22.7c2.9-4.5,5.7-9.8,8.3-16c7.7-18.5,19.1-31.3,27-38.6
				c4.4-4.1,3.8-11.3-1.2-14.6c-51.5-33.4-86.9-8.5-102.2,7.4c-5.7,5.9-8.6,10.6-8.6,10.6C173.9,65.6,235,111.7,244.9,108.4z"/>
			<path fill="#F07837" d="M215.1,46.6c5.3-6.5,24.8-4.8,24.8-4.8L230,29.4c0,0,11.7-4.8,23.4,1c0,0-5.5-7.3-10.7-10.7
				c7.8-5.6,47.1,0.2,50.3,8.8c1.4,3.6-25.6,23.8-36.6,47.3C251.4,86.7,215.1,46.6,215.1,46.6z"/>
			<path fill="#F07837" d="M244.9,108.4c7.6-2.5,17.7-8.1,27.1-22.7c-21.1-37.3-55.6-56-68.1-61.8c-5.7,5.9-8.6,10.6-8.6,10.6
				C173.9,65.6,235,111.7,244.9,108.4z"/>
		</g>
		<path fill="#FF942A" d="M291.7,157.8c-74.3,4-119.5,13.3-119.5,13.3c-72.9,9.6-128.7,29.5-128.7,29.5S23.4,83.1,127.6,33.9
			c0,0,7-13.1,23.7-25.5l-8.8,21.4c0.6-0.6,9.8-9.8,21.5-14.7l-1.8,13.8C162.3,28.9,254.4,23.2,291.7,157.8z"/>
		<path fill="#FFECDB" d="M291.7,157.8c0,0-66.9,27.8-110.5,69.3c0,0-56.6-26.4-137.7-26.4c0,0,54.1-31.2,128.7-29.5
			C172.2,171.1,218.9,148.6,291.7,157.8z"/>
		<path fill="#381706" d="M162.8,164.2l15.6-2.4c2.7-0.4,4.6,2.7,3,4.9l-6.6,9c-1,1.4-3,1.7-4.4,0.7l-9-6.6
			C159.2,168.2,160.1,164.7,162.8,164.2z"/>
		<path fill="#F07837" d="M184.6,149c0,0-18-79.4,15.3-87.1c20.7-4.8,47.1,19.7,58.4,48.3c4.6,11.7,4.1,24.2-6.6,29.5
			C238.7,146.2,217.2,152.1,184.6,149z"/>
		<g>
			<defs>
				<path id="SVGID_1_" d="M185.2,150.9c0,0-15.9-71.9,15.3-80.5c19.4-5.4,41.7,18,49.3,44c3,10.1,1.5,20.8-7.8,25.8
					C230.8,146.1,212.6,152,185.2,150.9z"/>
			</defs>
			<use xlink:href="#SVGID_1_"  overflow="visible" fill="#FFFFFF"/>
			<clipPath id="SVGID_2_">
				<use xlink:href="#SVGID_1_"  overflow="visible"/>
			</clipPath>
			
				<ellipse transform="matrix(-0.9552 0.2959 -0.2959 -0.9552 434.4318 143.3162)" clip-path="url(#SVGID_2_)" fill="#F07837" cx="206.4" cy="104.5" rx="39.3" ry="42.2"/>
			
				<ellipse transform="matrix(-0.9552 0.2959 -0.2959 -0.9552 434.4319 143.3155)" clip-path="url(#SVGID_2_)" fill="#381706" cx="206.4" cy="104.5" rx="32.3" ry="34.7"/>
		</g>
		<g>
			<path fill="#381706" d="M191.6,152c-2.1,0-4.2,0-6.4-0.1l-0.7,0l-0.2-0.7c-0.7-3-15.8-72.9,15.9-81.7c20.4-5.7,43,19,50.5,44.6
				c3.6,12.2,0.5,22.3-8.3,26.9C232.8,146.1,216.3,152,191.6,152z M186,149.9c27.5,1,45.4-5.3,55.5-10.7c7.9-4.2,10.6-13.4,7.3-24.7
				c-7.2-24.8-28.8-48.7-48.1-43.3C172.4,79.2,184.5,142.4,186,149.9z"/>
		</g>
		<path fill="#FFFFFF" d="M223.3,86.7c3,6.4,1.4,13.6-3.5,16.1c-4.9,2.5-11.3-0.7-14.3-7.1c-3-6.4-1.4-13.6,3.5-16.1
			C214,77.1,220.4,80.3,223.3,86.7z"/>
		<path fill="#FFFFFF" d="M200.4,122.8c0.5,3.1-1.3,6.1-4.1,6.7c-2.8,0.6-5.5-1.4-6.1-4.5c-0.5-3.1,1.3-6.1,4.1-6.7
			C197.1,117.7,199.8,119.7,200.4,122.8z"/>
		<path fill="#381706" d="M167.7,193.5c0.9-1.3,2-2.3,3.4-3.1c1.3-0.8,2.8-1.4,4.4-1.6c0.8-0.2,1.6-0.1,2.4-0.2
			c0.8,0.1,1.6,0.1,2.4,0.4c1.5,0.4,2.9,1.2,4,2.3l-1,1.8c-1.3-0.2-2.5-0.6-3.7-0.6c-1.2-0.1-2.3-0.1-3.5,0.1
			c-1.1,0.2-2.3,0.5-3.5,0.9c-1.1,0.4-2.4,0.9-3.5,1.5L167.7,193.5z"/>
		
			<ellipse transform="matrix(-0.9538 -0.3003 0.3003 -0.9538 367.9487 172.8847)" fill="#381706" cx="197.3" cy="58.2" rx="12.4" ry="4.5"/>
		<path fill="#F07837" d="M151.6,152.3c0,0-3.7-81.3-37.8-80c-21.2,0.8-40.2,31.4-43.5,62c-1.4,12.5,2.4,24.4,14.2,26.7
			C98.8,163.9,121.1,163.9,151.6,152.3z"/>
		<g>
			<defs>
				<path id="SVGID_3_" d="M151.5,154.3c0,0-3.6-73.5-36-73.6c-20.1-0.1-35.5,28.4-35.9,55.4c-0.2,10.5,4,20.5,14.3,22.8
					C106.3,161.7,125.4,162.6,151.5,154.3z"/>
			</defs>
			<use xlink:href="#SVGID_3_"  overflow="visible" fill="#FFFFFF"/>
			<clipPath id="SVGID_4_">
				<use xlink:href="#SVGID_3_"  overflow="visible"/>
			</clipPath>
			
				<ellipse transform="matrix(0.9995 3.273191e-002 -3.273191e-002 0.9995 3.8334 -3.8299)" clip-path="url(#SVGID_4_)" fill="#F07837" cx="118.9" cy="115.2" rx="39.3" ry="42.2"/>
			
				<ellipse transform="matrix(0.9995 3.273354e-002 -3.273354e-002 0.9995 3.8336 -3.8301)" clip-path="url(#SVGID_4_)" fill="#381706" cx="118.9" cy="115.2" rx="32.3" ry="34.7"/>
		</g>
		<g>
			<path fill="#381706" d="M112.5,161.8c-7.6,0-13.9-0.9-18.7-1.9c-9.7-2.2-15.3-11.1-15.1-23.8c0.4-26.7,15.7-56.4,36.8-56.4
				c0,0,0,0,0.1,0c32.9,0.1,36.8,71.5,37,74.5l0,0.7l-0.7,0.2C136.1,160.2,123,161.8,112.5,161.8z M115.5,81.6
				c-20,0-34.5,28.7-34.9,54.5c-0.2,11.7,4.9,19.9,13.6,21.9c11.2,2.5,30.1,3.8,56.4-4.4C150,145.9,144.9,81.7,115.5,81.6
				C115.5,81.6,115.5,81.6,115.5,81.6z"/>
		</g>
		<path fill="#FFFFFF" d="M111.6,102.8c0.7,7,5.8,12.4,11.3,12.1c5.5-0.4,9.4-6.3,8.7-13.4c-0.7-7-5.8-12.4-11.3-12.1
			C114.8,89.8,110.9,95.8,111.6,102.8z"/>
		<path fill="#FFFFFF" d="M91.8,136.8c0.3,3.1,2.9,5.5,5.7,5.3c2.9-0.2,4.9-2.8,4.6-6c-0.3-3.1-2.9-5.5-5.7-5.3
			C93.5,131,91.5,133.7,91.8,136.8z"/>
		
			<ellipse transform="matrix(0.8405 -0.5419 0.5419 0.8405 -18.459 73.3967)" fill="#381706" cx="115.4" cy="68" rx="12.4" ry="4.5"/>
	</g>
	<path fill="#381706" d="M174.3,277.7c-6.9,3.9-14.4-8.9-14.4-8.9c-11.3,13.1-49.1,23.9-59.2-3.8c-0.4-1-0.7-2-1-3
		c1.1-10.1,12.2-9.8,12.2-9.8c0.4,2.9,1.5,5.5,3.6,7.7c15.3,16.8,31.4-7.8,47.9-8.4C179.7,251,183,272.7,174.3,277.7z"/>
	<path fill="#381706" d="M178.3,277.4c6,2.9,11-9,11-9c10.7,10.7,44,17.4,52-8.9c0.3-1,0.6-2,0.8-2.9c-1.4-9.7-11.7-8.2-11.7-8.2
		c-0.2,2.8-1.1,5.4-2.9,7.8c-12.6,16.9-28.6-4.2-42.8-3.1C170.9,254.2,170.7,273.8,178.3,277.4z"/>
</g>
</svg>
