<?xml version="1.0" encoding="utf-8"?>
<!-- Generator: Adobe Illustrator 17.1.0, SVG Export Plug-In . SVG Version: 6.00 Build 0)  -->
<!DOCTYPE svg PUBLIC "-//W3C//DTD SVG 1.1//EN" "http://www.w3.org/Graphics/SVG/1.1/DTD/svg11.dtd">
<svg version="1.1" id="Layer_1" xmlns="http://www.w3.org/2000/svg" xmlns:xlink="http://www.w3.org/1999/xlink" x="0px" y="0px"
	 width="313.2px" height="463.6px" viewBox="0 0 313.2 463.6" enable-background="new 0 0 313.2 463.6" xml:space="preserve">
<g>
	<ellipse fill="#D7E2FF" cx="123.6" cy="450" rx="120.3" ry="13.6"/>
	<g>
		<path fill="#FFECDB" d="M64.7,398.7c0,0-7.4,4.6-15.4,10c-17-7.2-27.5-17.3-27.3-28.4c0-1.2,0.2-2.4,0.5-3.6
			c11.1-8.1,26.2-15.7,44.7-21.8C55,363,37.6,375.8,38.8,382.6C40.5,393.1,64.7,398.7,64.7,398.7z"/>
		<path fill="#FF942A" d="M199.1,411.8c-18.2,32.1-63.3,43-99.9,39.5c-9.4-0.9-24.6-2.3-40.4-5.1l9.6-8.7c0,0-39.1-7-38.5-12.4
			c0.6-5.4,34.7-26.4,34.7-26.4s-24.2-5.6-25.9-16c-1.1-6.8,16.2-19.7,28.3-27.7c32-10.7,74.1-17.3,123.9-15.9
			C191,339.1,224.7,366.6,199.1,411.8z"/>
		<path fill="#F2D0AD" d="M22.4,376.8c-0.3,1.2-0.4,2.4-0.5,3.6c-0.2,11.1,10.4,21.2,27.3,28.4c-9.1,6.2-18.9,13.5-19.3,16.3
			c-0.6,5.3,38.5,12.4,38.5,12.4l-9.6,8.7C30.1,441-0.4,430.8,0,409.3C0.2,399.5,5,389,22.4,376.8z"/>
		<path fill="#F07837" d="M199.1,411.8c-18.2,32.1-63.3,43-99.9,39.5c-9.4-0.9-24.6-2.3-40.4-5.1l9.6-8.7c0,0-39.1-7-38.5-12.4
			c0.3-2.8,10.2-10.2,19.3-16.3c15,6.3,35,10.4,57,10.7c46.9,0.7,85.3-15.6,85.7-36.4c0.4-20.2-35.2-37.3-80.2-39
			c23.5-3.9,50.1-5.9,79.3-5C191,339.1,224.7,366.6,199.1,411.8z"/>
	</g>
	<path fill="#FF942A" d="M125,198.8c-1.2,1.1-24.7,21.2-38.3,41.9c-6.2,9.4-10.3,18.8-9.4,26.7c0,0-14.3-0.4-16.1,11.5
		c-6.9-24.5,8.2-44.2,25.4-57.9C104.2,207,123.9,199.2,125,198.8z"/>
	<path fill="#F07837" d="M125,198.8c-1.2,1.1-24.7,21.2-38.3,41.9c1.7-5.5,3.2-13.6-0.1-19.7C104.2,207,123.9,199.2,125,198.8z"/>
	<path fill="#FF942A" d="M187.1,202.2c1,0.9,45.9,35,48.9,61.5c0,0,11.8-2.2,13.3,9.5c3.8-24.4-10.7-40.8-29.5-56.8
		C205.7,204.3,188,202.5,187.1,202.2z"/>
	<path fill="#F07837" d="M187.1,202.2c1,0.9,25.9,20.3,39.2,39.4c-1.4-5.3-1-11.4,1.7-18C208.1,202.9,188,202.5,187.1,202.2z"/>
	<g>
		<path fill="#F07837" d="M181.1,381.8c0,1.4-0.2,4.3-0.8,6.6c5.2,0.3,10.7-0.9,14.9-3.3c8.2-4.7,9.3-15,5.6-23
			c-3.1-6.8-9.4-12.8-16.7-14.8c-4.6-1.2-9.8-0.6-14.6-0.3c-5.9,0.4-11.7,1-17.5,2c-10.2,1.7-20.5,4.2-30.1,8
			c-7.2,2.8-13.6,7.8-14.3,16.1c-0.7,8.6,3.2,17.5,12.7,17.5c3.7,0,7.3-0.8,10.9-1.8c-1-1.7-1.6-3.6-1.4-5.4
			c0.7-4.9,5.6-9.8,10-12.4c0,0,15.9,7.4,34.4,0C174.3,371,181.1,374.5,181.1,381.8z"/>
		<path fill="#381706" d="M110.9,451.9h21.7c0,0,10.6-18.5,6.3-56.6h-10c0,0,3.2,22.2-8.5,39.6C120.4,435,107.7,427.1,110.9,451.9z"
			/>
		<path fill="#381706" d="M208.2,451.9h-21.7c0,0-10.6-18.5-6.3-56.6h10c0,0-3.2,22.2,8.5,39.6C198.7,435,211.4,427.1,208.2,451.9z"
			/>
		<path fill="#FF942A" d="M231.4,365.2c-18,37-51.2,30.1-51.2,30.1s-8-1.6-1-11.1c1.6-2.1,2.2-4.3,2.2-6.4
			c0.1-7.3-7.1-13.7-7.1-13.7c-18.5,7.4-34.4,0-34.4,0c-4.4,2.7-8.2,7.8-8.9,12.7c-0.4,2.9,0.3,5.7,2.6,7.9
			c6.3,5.8,5.3,10.6,5.3,10.6c-10,11.6-37.9-0.4-51.3-13.5c-17.5-17.1-20.2-32.5-17.9-44.4c3-15,14.1-24.3,14.1-24.3
			c-6.1-41.6,9.7-79.3,21.9-100.9c6.9-12.2,12.5-19.3,12.5-19.3h66.1c4.9,4.4,9.3,9.3,13.1,14.6c29.6,40.6,27.1,99.6,27.1,99.6
			s10.3,8.8,12.9,25C238.7,340.9,237.8,352.1,231.4,365.2z"/>
		<path fill="#F07837" d="M197.5,207.4c-16.9,14.1-18.4,38.1-33.2,39.5c-14.8,1.4-42.3-29.6-58.5-34.7c6.9-12.2,12.5-19.3,12.5-19.3
			h66.1C189.3,197.3,193.6,202.2,197.5,207.4z"/>
		<path fill="#FFECDB" d="M215.5,285.3c0,3.3-0.1,6.6-0.3,10.1c-0.1,1.4-0.1,2.8-0.3,4.2c-0.4,5.8-1.3,11.1-2.6,15.9
			c-9.6,36.7-41,47.7-53.1,48.9c-12.8,1.3-49.6-6-62.5-51.9c-0.9-3.3-1.7-6.8-2.4-10.5c-0.2-1.1-0.4-2.2-0.5-3.3
			c-0.5-3.6-0.9-7.3-1-10.9c-0.1-2-0.1-4.1-0.1-6.1c0.3-26.4,9.4-51,17.4-67.5c6.4-13.2,12.1-21.3,12.1-21.3h58.2
			c5,5.9,9.5,11.7,13.5,17.8c12.3,18.7,19.6,39.1,21.2,63.9C215.4,278.1,215.5,281.6,215.5,285.3z"/>
		<path fill="#F2D0AD" d="M215.2,274.6c-0.1-2-0.3-3.9-0.5-5.9c-0.6,5.8-1.8,11.1-3.3,15.8c-3.4-0.8-7.8-2.5-13-5.6
			c0,0,13-20.4,2.6-31.9c-10.4-11.6-26.3-1.1-26.3-1.1l1.6,15.8l-10.8,18.9l6.4,9.7l-11.3,15.8l-1.5-2.7l6.4-15.5l-7.9-11.6
			l7.6-15.2l-11.8-15.5c0,0-27.8-6.2-32.2,7.3c-4.4,13.5,2.6,23.1,2.6,23.1s-11.6,13.4-22.7,14.1c-2.8-6.5-5.1-14-6.7-22.6
			c-0.1-0.8-0.3-1.6-0.4-2.3c-0.7,5.3-1.2,10.8-1.3,16.4c0,2,0,4.1,0.1,6.1c0,0.2,0,0.4,0,0.6c0.1,1.3,0.1,2.6,0.3,3.8
			c0,0.5,0.1,1,0.1,1.5c0.2,1.6,0.3,3.3,0.6,4.9c0.2,1.1,0.3,2.2,0.5,3.3c0.3,1.8,0.7,3.6,1.1,5.3c0,0.2,0.1,0.4,0.1,0.6
			c11.6,50.1,50.4,57.9,63.6,56.5c12.1-1.2,43.4-12.2,53.1-48.9c0.1-0.4,0.2-0.9,0.3-1.4c0.2-0.7,0.3-1.3,0.5-2
			c0.2-0.7,0.3-1.5,0.4-2.3c0.1-0.6,0.2-1.1,0.3-1.7c0.2-0.9,0.3-1.9,0.4-2.9c0.1-0.4,0.1-0.9,0.2-1.3c0.2-1.4,0.3-2.9,0.4-4.4
			c0.1-1.4,0.2-2.8,0.3-4.2c0.1-1.8,0.2-3.5,0.2-5.3C215.6,284.7,215.5,279.6,215.2,274.6z M159.3,329.9c-9,0.9-29.6-2.4-45.6-20.1
			c8-2.1,16.6-5.8,22.9-12.2c0,0,13.3,12.2,25.9,18.2c0,0,11.2-7.3,20.9-17c0,0,5.7,5.3,14.2,10.2
			C184.6,323.7,167.5,329.1,159.3,329.9z"/>
		<path fill="#F2D0AD" d="M194,210.7c-13.7,14.2-15.7,24.9-29.4,26.2c-13.5,1.3-37.9-14.4-54.3-22.8c6.4-13.2,12.1-21.3,12.1-21.3
			h58.2C185.5,198.7,190,204.6,194,210.7z"/>
		<path fill="#F07837" d="M138.9,395.3c-10,11.6-37.9-0.4-51.3-13.5c-17.5-17.1-20.2-32.5-17.9-44.4c21,50.5,47.6,46.1,61.3,39.4
			c-0.4,2.9,0.3,5.7,2.6,7.9C139.9,390.6,138.9,395.3,138.9,395.3z"/>
		<path fill="#F07837" d="M231.4,365.2c-18,37-51.2,30.1-51.2,30.1s-8-1.6-1-11.1c1.6-2.1,2.2-4.3,2.2-6.4c35,13.3,50.5-26,56-45.8
			C238.7,340.9,237.8,352.1,231.4,365.2z"/>
	</g>
	<g>
		<g>
			<path fill="#FF942A" d="M66.7,108.3c-7.5-2.7-17.4-8.6-26.3-23.3c-2.7-4.5-5.4-9.9-7.8-16.2C25.4,50.1,14.5,37.1,6.8,29.5
				c-4.3-4.2-3.5-11.3,1.6-14.5c52.3-31.8,86.7-5.9,101.5,10.4c5.5,6,8.3,10.8,8.3,10.8C138.5,67.7,76.4,111.8,66.7,108.3z"/>
			<path fill="#F07837" d="M98.1,47.6c-5-6.6-24.6-5.5-24.6-5.5L83.7,30c0,0-11.5-5.1-23.3,0.3c0,0,5.7-7.1,10.9-10.3
				c-7.6-5.7-46.9-1.2-50.3,7.3c-1.5,3.6,24.7,24.5,35,48.2C60.8,86.5,98.1,47.6,98.1,47.6z"/>
			<path fill="#F07837" d="M66.7,108.3c-7.5-2.7-17.4-8.6-26.3-23.3c22.1-36.5,56.9-54.1,69.6-59.5c5.5,6,8.3,10.8,8.3,10.8
				C138.5,67.7,76.4,111.8,66.7,108.3z"/>
		</g>
		<g>
			<path fill="#FF942A" d="M238.7,113.4c7.8-1.6,18.5-6,29.4-19.2c3.4-4.1,6.8-9,10.1-14.9c9.8-17.3,22.6-28.7,31.2-35
				c4.8-3.5,5.1-10.7,0.5-14.5c-47-39.1-84.9-18.6-101.9-4.6c-6.3,5.2-9.8,9.4-9.8,9.4C173.6,62.8,228.5,115.4,238.7,113.4z"/>
			<path fill="#F07837" d="M216.5,48.8c6-5.8,25.1-1.9,25.1-1.9l-8.3-13.4c0,0,12.1-3.3,23,3.7c0,0-4.6-7.8-9.3-11.8
				c8.3-4.6,46.6,5.7,48.7,14.6c0.9,3.8-28.1,20.6-41.7,42.5C247.7,92.7,216.5,48.8,216.5,48.8z"/>
			<path fill="#F07837" d="M238.7,113.4c7.8-1.6,18.5-6,29.4-19.2c-16.5-39.3-48.4-61.8-60.1-69.1c-6.3,5.2-9.8,9.4-9.8,9.4
				C173.6,62.8,228.5,115.4,238.7,113.4z"/>
		</g>
		<path fill="#FF942A" d="M279.2,167.7c-73.9-4.8-119.7-0.9-119.7-0.9c-73.2,0.9-130.6,14.1-130.6,14.1S22.7,62.4,131.5,26
			c0,0,8.5-12.1,26.4-22.4l-11.2,20.1c0.6-0.5,10.8-8.5,23-12l-3.4,13.5C166.4,25.1,258.2,30.3,279.2,167.7z"/>
		<path fill="#FFECDB" d="M279.2,167.7c0,0-69.4,19.7-117.4,55.5c0,0-52.8-32.8-133-42.3c0,0,57.1-41.9,130.6-31.5
			C159.5,149.5,220.7,135.6,279.2,167.7z"/>
		<path fill="#381706" d="M151.3,144.4l15.7-0.6c2.8-0.1,4.3,3.2,2.4,5.2l-7.5,8.1c-1.2,1.3-3.1,1.3-4.4,0.2l-8.2-7.6
			C147.3,147.9,148.5,144.5,151.3,144.4z"/>
		<path fill="#F07837" d="M171.4,131.5c0,0-6.1-50.7,1.6-73.1c0,0,17.6,36,61.7,31.8c6.1,8.6,10,25.9,10,25.9
			C232,112.7,200.4,112,171.4,131.5z"/>
		<g>
			<defs>
				<path id="SVGID_1_" d="M173.8,127.5c0,0-3.6-40.8,2.1-62.7c0,0,19,27.9,52,26.8c5.4,8.7,8.1,22.5,8.1,22.5
					S202.5,110.6,173.8,127.5z"/>
			</defs>
			<use xlink:href="#SVGID_1_"  overflow="visible" fill="#FFFFFF"/>
			<clipPath id="SVGID_2_">
				<use xlink:href="#SVGID_1_"  overflow="visible"/>
			</clipPath>
			<path clip-path="url(#SVGID_2_)" fill="#381706" d="M177.4,98.9c0.3,20.3,12.7,37.8,27.8,36.3c15.1-1.5,23.7-21.3,19.9-41.2
				c-3.4-17.3-15.2-28.8-26.9-27.6C186.5,67.7,177.1,81.3,177.4,98.9z"/>
			<path clip-path="url(#SVGID_2_)" fill="#FFFFFF" d="M219.3,93.1c-0.2,3.8-2.7,6.9-5.7,6.8c-3,0-5.2-3.1-5.1-6.9
				c0.2-3.8,2.7-6.9,5.7-6.8C217.2,86.1,219.5,89.3,219.3,93.1z"/>
		</g>
		<g>
			<path fill="#381706" d="M173,128.9l-0.1-1.3c0-0.4-3.5-41.1,2.1-63l0.5-1.8l1.1,1.6c0.2,0.3,18.4,26.5,49.4,26.5
				c0.6,0,1.3,0,1.9,0l0.5,0l0.3,0.4c5.4,8.8,8.1,22.2,8.2,22.8l0.2,1.1l-1.1-0.1c-0.3,0-33.5-3.2-61.7,13.4L173,128.9z M176.3,66.7
				c-4.5,19.6-2.3,52.4-1.8,59.4c25.4-14.4,54.3-13.4,60.4-13c-0.7-3.3-3.2-13.6-7.5-20.7C199,93.2,180.8,72.5,176.3,66.7z"/>
		</g>
		<path fill="#F07837" d="M141.4,133.5c0,0,3.6-50.9-5.2-72.9c0,0-15.8,36.8-60.1,34.8c-5.7,8.9-8.7,26.3-8.7,26.3
			C80,117.7,111.5,115.4,141.4,133.5z"/>
		<g>
			<defs>
				<path id="SVGID_3_" d="M138.9,129.6c0,0,1.6-40.9-5.2-62.6c0,0-17.6,28.8-50.6,29.3c-5,9-6.9,22.8-6.9,22.8
					S109.3,114.2,138.9,129.6z"/>
			</defs>
			<use xlink:href="#SVGID_3_"  overflow="visible" fill="#FFFFFF"/>
			<clipPath id="SVGID_4_">
				<use xlink:href="#SVGID_3_"  overflow="visible"/>
			</clipPath>
			<path clip-path="url(#SVGID_4_)" fill="#381706" d="M133.8,101.2c0.7,20.3-10.9,38.4-26,37.6c-15.2-0.8-24.8-20.1-21.9-40.1
				c2.5-17.4,13.8-29.5,25.5-28.9C123.2,70.5,133.2,83.6,133.8,101.2z"/>
			<path clip-path="url(#SVGID_4_)" fill="#FFFFFF" d="M124,93.2c-0.2,3.8-2.7,6.9-5.7,6.8s-5.2-3.1-5.1-6.9
				c0.2-3.8,2.7-6.9,5.7-6.8C121.9,86.2,124.2,89.3,124,93.2z"/>
		</g>
		<g>
			<path fill="#381706" d="M139.7,131l-1.2-0.6c-28.9-15.1-61.9-10.4-62.2-10.3l-1.1,0.2l0.2-1.1c0.1-0.6,2.1-14.1,7-23.1l0.2-0.4
				l0.5,0c32.2-0.5,49.8-28.6,49.9-28.9l1-1.6l0.6,1.8c6.7,21.6,5.2,62.4,5.2,62.9L139.7,131z M89.2,117.6
				c12.3,0,31.2,1.8,48.8,10.6c0.2-7,0.7-39.8-4.7-59.2c-4.2,6-21.4,27.5-49.8,28.2c-3.9,7.3-5.9,17.6-6.4,21
				C79.1,118,83.4,117.6,89.2,117.6z"/>
		</g>
		
			<ellipse transform="matrix(-0.7846 -0.62 0.62 -0.7846 299.4322 204.6543)" fill="#381706" cx="185.3" cy="50.3" rx="12.4" ry="4.5"/>
		
			<ellipse transform="matrix(0.7307 -0.6827 0.6827 0.7307 -3.9069 95.5536)" fill="#381706" cx="119.2" cy="52.7" rx="12.4" ry="4.5"/>
		<g>
			<path fill="#381706" d="M177.7,181c-0.9,0-1.7-0.6-2.4-1.9c-2.6-4.8-6.9-12.6-14.8-12.7c-7.5-0.2-12.8,5.6-17.9,11.3
				c-1.1,1.2-2.6,1.5-3.7,0.6l-2.6-2.2l1.2-1.5l2.6,2.2c0.4,0.3,0.9-0.2,1.1-0.4c5.4-5.9,11-12,19.3-11.9
				c9.1,0.2,13.9,8.9,16.4,13.6c0.5,0.9,0.7,1,0.9,1l2.6-1.7l1,1.6l-2.9,1.9C178.3,181,178,181,177.7,181z"/>
		</g>
		<path fill="#B8F3FF" d="M177.5,125.4c0,0,9.4-17.3,18.5-18.4c4.5-0.7,10.1,4.3,10.1,4.3s8.4-5.1,11-5c2.6,0.1,7.4,7.5,7.4,7.5
			l-10.9,2.6c0,0,5.6,9-6,10c-6.8,0.6-2.8-8.6-2.8-8.6l-10.6,2.8c0,0,7.6,9.9-2.4,12.7c-10.1,2.8-7.3-9.9-7.3-9.9L177.5,125.4z"/>
		<path fill="#B8F3FF" d="M137.3,129c0,0-2.2-14.2-16.2-11.7c0,0-11.8-7.5-18.4-7.6c-6.6-0.1-18.6,8.9-18.6,8.9l19.5,3.5
			c0,0-8.7,13.4,1.2,14.4c9.9,1,6-14,6-14l10.6,2.4c0,0-1.6,10,4.4,10.1c6,0.1,6.3-7.9,6.3-7.9L137.3,129z"/>
	</g>
	<path fill="#F04A4A" d="M157.9,246.1c0,0-18.7-17.8-32.2-2.7c-14.9,16.6,7.1,51.1,35.3,64.8c0,0,60.3-36.5,38.2-63.4
		c-15.4-17.8-30.4,0.5-30.4,0.5l5.5,11.4L164,276.2l6.7,9l-10,18.3l3.4-18.3l-5.6-11.9l5.6-17.1L157.9,246.1z"/>
	<path fill="#381706" d="M149.8,272.4c1.7,6.3-9.4,15.3-13.2,17.8c-22.7,14.7-58.4,23.1-74.3-7.7c-0.6-1.1-0.8-2.3-1.1-3.5
		c1.9-11.9,16.1-11.5,16.1-11.5c0.4,3.4,1.7,6.5,4.2,9.1c18.8,19.8,33.2-1,53.1-8.1C138.9,266.9,147.8,264.6,149.8,272.4z"/>
	<path fill="#381706" d="M174.8,278.9c-1.4,6.5,7.8,14.1,10.9,16.1c18.8,11.8,56.4,10.2,63.6-21.8c-1.5-11.7-13.3-9.5-13.3-9.5
		c-0.3,3.4-1.1,6.9-3.5,9.6c-15.4,17.9-28.7,4.3-45.2-0.3C183.9,272,176.6,270.9,174.8,278.9z"/>
</g>
</svg>
