<?xml version="1.0" encoding="utf-8"?>
<!-- Generator: Adobe Illustrator 17.1.0, SVG Export Plug-In . SVG Version: 6.00 Build 0)  -->
<!DOCTYPE svg PUBLIC "-//W3C//DTD SVG 1.1//EN" "http://www.w3.org/Graphics/SVG/1.1/DTD/svg11.dtd">
<svg version="1.1" id="Layer_1" xmlns="http://www.w3.org/2000/svg" xmlns:xlink="http://www.w3.org/1999/xlink" x="0px" y="0px"
	 width="297.1px" height="480.8px" viewBox="0 0 297.1 480.8" enable-background="new 0 0 297.1 480.8" xml:space="preserve">
<g>
	<ellipse fill="#D7E2FF" cx="163.9" cy="467.2" rx="107" ry="13.6"/>
	<path fill="#381706" d="M125.9,428.1c0,0-3.3,26.4-18.2,26.4c0,0-3.6,7-3.6,14.5H122c0,0,14.1-14,9.6-45.2L125.9,428.1z"/>
	<path fill="#F07837" d="M86.7,377.3c0,0,0,53.2,35.9,59c11.6,1.9,17.4-19.6,17.4-19.6l-8.7-28.7L86.7,377.3z"/>
	<path fill="#FF942A" d="M58.1,326.4l6.8-5.9l25.3-21.9l11.4-9.9l-8.4-21l-0.6-1.6c-8.8,5.5-16,12.7-21.6,20.2
		C58.8,302.8,54.3,320.9,58.1,326.4z"/>
	<path fill="#F07837" d="M57.8,321.4l7-0.8l23.4-2.8l1.9-19.1l3-30.9l-0.6-1.6c-8.8,5.5-16,12.7-21.6,20.2c1.8,1.4,3.4,2.7,3.6,3.6
		C75.3,292.6,58.8,304.6,57.8,321.4z"/>
	<path fill="#FF942A" d="M186.7,371.4c0,0-3.2,5.1-9,11.4c-10.5,11.3-29.7,26.5-55.1,23.4c-3.5-0.4-6.9-1.1-10-2
		c-10.3-3-18.3-8.6-24.4-15.5c-12.3-13.9-16.8-33-16.9-47.2v-0.9c0-8.3,0.1-16.4,1.6-25.6c2.5-16.5,9.2-36.7,27.4-68.5
		c1.7-2.9,3.4-5.9,5.3-9.1l55.7-5.1l3.8-0.3c0,0,1.5,4.8,3.2,12.6c1.8,8.2,3.7,19.6,4.3,32.4c0.3,6.4,0.3,13.1-0.3,19.9
		c-0.2,2.8-0.3,5.6-0.3,8.3c0,6,0.6,11.8,1.5,17.4c0.8,5.1,2,9.9,3.2,14.5C180.6,352.1,185.9,364.1,186.7,371.4z"/>
	<path fill="#F07837" d="M172.1,297c-0.2,2.8-0.3,5.6-0.3,8.3c-2.2-11-5.5-31.5-5.5-31.5l6,3.4C172.7,283.5,172.7,290.2,172.1,297z"
		/>
	<path fill="#F07837" d="M168.1,244.7c-12.2,8.1-26.8,30.1-35.4,30c-11.5,0-20.2-18-32.5-28.1c1.7-2.9,3.4-5.9,5.3-9.1l55.7-5.1
		l3.8-0.3C164.9,232.1,166.4,236.9,168.1,244.7z"/>
	<path fill="#FFECDB" d="M157.7,317.9c-2.2,8.6-5.2,16.8-9.2,24.1c-0.4,0.8-0.9,1.6-1.3,2.3c-1.9,3.3-4.1,6.4-6.6,9.3l-16.1,36.9
		c0,0-4.7,3.6-13.2,4.1c-5.9,0.3-13.7-0.9-23.2-5.9c-12.5-14.2-17-33.8-16.9-48c0.1-23.2,0.7-44.6,29-94c1.7-2.9,3.4-5.9,5.3-9.1
		l55.7-5.1c0.5,3.9,1.1,9.6,1.5,16.5C163.8,267.3,163.8,294,157.7,317.9z"/>
	<path fill="#F07837" d="M170.7,344.9c0,0-2.8-0.9-7.1-1.7c5.6-1.7,10.2-4.3,13-6.2c-1.2-4.6-2.4-9.4-3.2-14.5
		c-3.1-1-9.3-3-15.6-4.7c-2.2,8.6-5.2,16.8-9.2,24.1c-19.8,0.6-44.5,11-36,62.1c3.1,0.9,6.4,1.6,10,2c25.4,3.1,44.6-12.1,55.2-23.4
		L170.7,344.9z"/>
	<path fill="#F2D0AD" d="M72.7,315.1l25.8-35c0,0,5.6,12.6,2,25.1c-4,13.8-12.2,30.8-29.3,36.3L72.7,315.1z"/>
	<path fill="#F2D0AD" d="M162.6,249c-10.9,9.7-22.6,25.7-30,25.7c-11.5,0-20.2-18-32.5-28.1c1.7-2.9,3.4-5.9,5.3-9.1l55.7-5.1
		C161.6,236.4,162.2,242.1,162.6,249z"/>
	<path fill="#F2D0AD" d="M148.5,342c4-7.3,7-15.5,9.2-24.1c-5.9-1.6-11.9-2.8-15.6-2.8c-12.1,0-14.8,9.9-13.2,14.9
		c1.5,4.5,5.6,9.8,12.6,12.7c-16.7,2.7-33.8,14.3-30.2,52c8.6-0.5,13.2-4.1,13.2-4.1l16.1-36.9c2.4-2.9,4.6-6,6.6-9.3
		c0.3-0.5,0.6-1,0.9-1.5C148.2,342.6,148.4,342.3,148.5,342C148.5,342,148.5,342,148.5,342z"/>
	<path fill="#381706" d="M96.2,275.4c-7.9-3-4.9,4.4-24.6,25.8c-0.6,0.7-1.4,1.2-2,1.8c-11.8,10.8-15.5,23.4-8.2,27.4
		c3.8,2.1,9.9,4.4,21.1-5.3C90.8,317.6,108.7,280.1,96.2,275.4z"/>
	<path fill="#FFECDB" d="M285.7,319c-4.4,15.2-12.6,28-12.6,28s-15.4-36.4-23.6-36.9c-8.2-0.5-11.8,29.2-11.8,29.2
		c-4-5.9-11.6-18.3-14.8-23.6c0.4-4.8,0.7-10.2,0.7-16c0-83.3,49.4-15.1,56.7,2.7C281.8,306.3,283.9,311.9,285.7,319z"/>
	<path fill="#FF942A" d="M284,396.7c-12,41.7-47.3,50.9-68.6,46.9c-12.5-2.3-21.7-7.9-28.6-14.9c-20.9-21.4-19.9-56.6-19.9-56.6
		l10.2-13c0,0,8.5,4.4,18.3,2.8c0.2,0,0.4,0,0.5-0.1c11.3-2.1,23.9-12.2,26.9-46.1c3.3,5.3,10.9,17.7,14.8,23.6
		c0,0,3.6-29.7,11.8-29.2c8.2,0.5,23.6,36.9,23.6,36.9s8.1-12.7,12.6-28c1.4,5.6,2.7,12.1,3.5,19.4C291,354.4,290.4,374.4,284,396.7
		z"/>
	<path fill="#F07837" d="M284,396.7c-12,41.7-47.3,50.9-68.6,46.9c-12.5-2.3-21.7-7.9-28.6-14.9c-20.9-21.4-19.9-56.6-19.9-56.6
		l10.2-13c0,0,8.5,4.4,18.3,2.8c0.2,0,0.4,0,0.5-0.1c3,8.3,4.6,21.6-0.3,41.7c5.5,3.5,11.9,6.3,19.7,7.7c21.3,4,56.7-5.3,68.6-46.9
		c2.6-9.1,4.2-17.7,5.1-25.9l0,0C291,354.4,290.4,374.4,284,396.7z"/>
	<path fill="#381706" d="M182.6,423.8c0,0,8.2,27.8-25.9,45.2h-19.5c0,0,1.7-11.6,6.1-14c4.4-2.4,10.9,0.7,10.9,0.7
		s21.9-12.3,23.6-28.3L182.6,423.8z"/>
	<path fill="#FF942A" d="M171.1,409.4c-1,12.2,11.5,14.5,11.5,14.5s-0.7,6.5-10.2,11.1c-1.6,0.8-4.1,1.2-7,1.3
		c-15.5,0.3-45.2-9.9-46.9-39.5c-3.2-54.8,52.2-51.7,52.2-51.7c23.6,20,16,36.9,16,36.9C175.7,394.3,171.6,403.1,171.1,409.4z"/>
	<path fill="#F07837" d="M182.6,423.8c0,0-0.7,6.5-10.2,11.1c-1.6,0.8-4.1,1.2-7,1.3c-14.6-0.4-39.9-10.7-42.1-38.4
		c14.9,22.4,37.7,16,47.9,11.6C170.1,421.6,182.6,423.8,182.6,423.8z"/>
	<path fill="#FF942A" d="M179.9,332.1c3.6-9.6-2.7-15.8-6.6-18.5c8.3-6.7-8.3-42.9-8.3-42.9l1.7-23
		C188.3,269.9,205.2,318.4,179.9,332.1z"/>
	<g>
		<path fill="#FFECDB" d="M256.3,216.2c0,0-88.2,4.6-123.9,47.8c0,0-54.6-57.7-132.4-53.2c0,0,63.1-67.2,133.7-18.5
			C133.7,192.3,187.2,150.3,256.3,216.2z"/>
		<path fill="#FF942A" d="M102.9,54.8C63,65.5,36.8,86,19.6,108.2C8.4,72.5,16.7,5.6,24.3,1C33.6-4.6,83.4,13.3,102.9,54.8z"/>
		<path fill="#F07837" d="M36.9,17.9c-8.9,3.4-14.7,78.7-2.8,83.9C46,107.1,79,83.5,80.8,74.1C82.5,64.8,63,60.9,63,60.9l18.2-4.3
			L58.5,41.3l14.7-2.1C73.2,39.2,47.4,13.9,36.9,17.9z"/>
		<path fill="#FF942A" d="M246.8,116.5c-25.1-36.7-57.3-52-75.7-58.1c30.5-43.2,93.9-44.1,101.4-34.8
			C277.5,29.7,265.8,84,246.8,116.5z"/>
		<path fill="#F07837" d="M254.9,35.1c7.2,6.2-12.9,79-25.8,79.9c-13,0.9-36-32.5-34.5-41.9c1.5-9.4,21.2-6.4,21.2-6.4L200,56.5
			l26.6-6.7l-13.1-7C213.5,42.9,246.3,27.8,254.9,35.1z"/>
		<path fill="#F07837" d="M246.8,116.5c-5.6,9.5-11.8,17.1-18.4,21.1c-13,7.8-37.5-2.7-56.7-22.7c-8.5-8.9-15.7-30.7-8.2-43.3
			c2.2-4.8,4.7-9.2,7.6-13.2C189.4,64.4,221.7,79.8,246.8,116.5z"/>
		<path fill="#F07837" d="M88.1,121.1c-24.8,12.3-51.4,13.9-61,2.1c-3.1-3.8-5.6-8.9-7.4-15C36.8,86,63,65.5,102.9,54.8
			c4,8.5,6.7,17.9,7.6,28.4C113.3,97.6,99.2,115.6,88.1,121.1z"/>
		<path fill="#FF942A" d="M256.3,216.2c-69.1-65.8-122.6-23.9-122.6-23.9C63.1,143.6,0,210.8,0,210.8S2.7,89.4,116.4,60.5
			c0,0,9.6-11.7,28.7-20.8l-12.9,19.7c0.7-0.5,11.7-7.9,24.4-10.6L152,62.2C152,62.2,245.2,74.4,256.3,216.2z"/>
		<path fill="#381706" d="M125.7,183.6l16.1,0.6c2.8,0.1,4.1,3.6,2,5.5l-8.3,7.7c-1.3,1.2-3.3,1.1-4.5-0.2l-7.8-8.3
			C121.3,186.9,122.9,183.5,125.7,183.6z"/>
		<path fill="#F04A4A" d="M114.3,215c10.1-1,10.9-8.5,13.5-8.3s6.1,6.5,6.1,6.5s3-7.3,6.7-6.9c2.9,0.3,4.6,10.7,12.4,9.8
			c-7.4,1-12.1,15.9-19.9,16.1C126.6,232.3,121.4,215.8,114.3,215z"/>
		<path fill="#B83838" d="M129.2,218.9c0,0,5.7-1.9,9.9,0.1C139.1,219,136.7,221.4,129.2,218.9z"/>
		<path fill="#F07837" d="M119,173.7c0,0-4.2-34-37.4-41.8c-31.8-7.5-34.6,27.4-34.6,27.4S90.7,143.1,119,173.7z"/>
		<path fill="#381706" d="M109.2,113c-0.3,2.4-6.1,3.7-12.9,2.9c-6.8-0.8-12.1-3.4-11.8-5.8c0.3-2.4,6.1-3.7,12.9-2.9
			C104.3,108,109.5,110.6,109.2,113z"/>
		<path fill="#381706" d="M115.3,169.3c-1.7-2.2-3.7-4.3-5.8-6.2c-2.1-2-4.4-3.7-6.7-5.4c-4.7-3.3-9.8-6-15.2-7.8
			c-5.4-1.9-11-3-16.7-3.3c-5.7-0.3-11.4,0.1-17,1.2l-1-6.1c6.1-0.9,12.3-1.1,18.5-0.5c6.1,0.6,12.2,2,17.9,4.3
			c5.7,2.2,11.1,5.3,16,9c2.4,1.8,4.8,3.8,6.9,6c2.2,2.2,4.2,4.4,6,7L115.3,169.3z"/>
		<path fill="#F07837" d="M150.2,173.5c0,0,4.2-34,37.4-41.8c31.8-7.5,34.6,27.4,34.6,27.4S178.5,142.9,150.2,173.5z"/>
		<path fill="#381706" d="M160,112.8c0.3,2.4,6.1,3.7,12.9,2.9c6.8-0.8,12.1-3.4,11.8-5.8c-0.3-2.4-6.1-3.7-12.9-2.9
			C164.9,107.8,159.7,110.4,160,112.8z"/>
		<path fill="#381706" d="M151.1,167.1c1.9-2.6,3.9-4.8,6-7c2.2-2.2,4.5-4.1,6.9-6c4.9-3.7,10.2-6.8,16-9c5.7-2.3,11.8-3.7,17.9-4.3
			c6.1-0.6,12.4-0.4,18.5,0.5l-1,6.1c-5.6-1.1-11.3-1.5-17-1.2c-5.7,0.4-11.3,1.4-16.7,3.3c-5.4,1.9-10.5,4.5-15.2,7.8
			c-2.4,1.6-4.6,3.4-6.7,5.4c-2.1,1.9-4.2,4.1-5.8,6.2L151.1,167.1z"/>
		<path fill="#F04A4A" d="M265.6,143.4c0,0,0.9-41.6,16.2-30c7.9,6.2,0,14,0,14s10.8-6.7,14.5,3.2
			C300.2,140.5,288,146.9,265.6,143.4z"/>
	</g>
	<path fill="#381706" d="M179.9,332.1c-2,1.1-4.3,1.9-6.8,2.4c-27.7,5.8-38.3-33.6-38.3-33.6s14-0.8,9.9-17.5
		c10.4,10.9,14.7,36.8,27.6,30.9c0.4-0.2,0.7-0.4,1-0.6C177.2,316.3,183.5,322.5,179.9,332.1z"/>
	<path fill="#63290C" d="M134.8,300.9c-4.6-0.5-11-4.6-10.2-12.8c0.6-6.3,4.4-10.8,12.6-9.2c1.3,0.2,2.5,0.7,3.7,1.4
		c1.4,0.8,2.6,1.8,3.8,3.1C151.8,300.4,134.8,300.9,134.8,300.9z"/>
	<path fill="#381706" d="M125.8,288.2c0,0,1.6,7.7,9.6,7c8-0.6,9.2-8.1,9.2-8.1s2.2,12.7-9.4,12.7
		C124.9,299.9,125.8,288.2,125.8,288.2z"/>
</g>
</svg>
