<?xml version="1.0" encoding="utf-8"?>
<!-- Generator: Adobe Illustrator 17.1.0, SVG Export Plug-In . SVG Version: 6.00 Build 0)  -->
<!DOCTYPE svg PUBLIC "-//W3C//DTD SVG 1.1//EN" "http://www.w3.org/Graphics/SVG/1.1/DTD/svg11.dtd">
<svg version="1.1" id="Layer_1" xmlns="http://www.w3.org/2000/svg" xmlns:xlink="http://www.w3.org/1999/xlink" x="0px" y="0px"
	 width="379.5px" height="536.8px" viewBox="0 0 379.5 536.8" enable-background="new 0 0 379.5 536.8" xml:space="preserve">
<g>
	<ellipse fill="#D7E2FF" cx="191.5" cy="523.2" rx="173.2" ry="13.6"/>
	<path fill="#381706" d="M215.8,442c-6.6-0.2-16.6,25.2-17,66.7h18.5c0,0,4.9-16.4-4-12.8c0,0-3.6-39.4,8.2-42.4
		C221.5,453.6,226.4,442.4,215.8,442z"/>
	<path fill="#FF942A" d="M221.5,453.6l-5.8-11.5c0,0,7.4-1.8,12.8-10.2c3.2-5.1,5.8-12.6,5.5-23.6l55.3-25.2c0,0,1.9,7.8,2.3,18.3
		C292.7,426.7,285.1,467.8,221.5,453.6z"/>
	<path fill="#F07837" d="M291.7,401.4c-8.9,13.2-29.6,36.3-63.1,30.5c3.2-5.1,5.8-12.6,5.5-23.6l55.3-25.2
		C289.3,383.1,291.3,390.9,291.7,401.4z"/>
	<path fill="#FFECDB" d="M313.5,332.1c-0.6,8.6-2.2,17.3-5.2,25.9c-0.8,2.3-1.6,4.5-2.6,6.8c-18.2,41.8-58.9,58.9-91.3,52
		c-15.9-37,13.8-76.6,31.7-93.6c4.1-3.8,7.5-8.4,10.5-13.2c2.2-3.5,4-7.3,5.7-11.1c11.2-26.3,11.2-56.7,11.2-56.7l16.4-1.3
		C289.9,240.8,316.8,284.9,313.5,332.1z"/>
	<g>
		<path fill="#F2D0AD" d="M40.6,349.7L29,354.5c-25.8-24-33.6-42.8-26.4-57.4c5.6-11.3,17.3-17.7,31.1-21
			c-4.6,7.7-7.7,20.6,4.3,37.4c-9.9,2.1-20.3,4.8-20.6,7.3C16.4,328,40.6,349.7,40.6,349.7z"/>
		<path fill="#F07837" d="M191,360.7c-29.5,56.2-89.6,50.2-137.7,14c-9.4-7.1-17.5-13.8-24.4-20.2l11.6-4.9c0,0-24.2-21.7-23.2-28.8
			c0.3-2.4,10.7-5.2,20.6-7.3c7.4,10.3,20.4,22,42.4,34.8c72.2,42.1,101.4-10.6,75.1-40.3c-13.1-14.8-29.4-24.2-41.4-29.7
			c1,0.2,1.7,0.4,2.1,0.4C121.9,280,220.6,304.6,191,360.7z"/>
		<path fill="#FF942A" d="M80.4,348.3c-22-12.8-35-24.5-42.4-34.8c9.2-1.9,18-3.3,18-3.3s-14.8-14.3-12.3-24
			c1.4-5.8,17.1-10.3,29.7-12.9c18.5,0.8,34.8,3.8,40.7,5c11.9,5.5,28.3,14.9,41.4,29.7C181.8,337.8,152.6,390.4,80.4,348.3z"/>
		<path fill="#FFECDB" d="M56,310.2c0,0-8.8,1.4-18,3.3c-12-16.7-8.9-29.6-4.3-37.4c12.4-3,26.6-3.5,39.7-2.9
			c-12.5,2.7-28.3,7.1-29.7,12.9C41.3,296,56,310.2,56,310.2z"/>
	</g>
	<path fill="#FF942A" d="M273.5,242.1c0,0,0,55.1-27.4,81.1c-17.9,17-47.6,56.7-31.8,93.6c-11.9-2.5-22.7-8.3-30.9-17.3
		c-30.4-33.4-10.9-68.1,11.5-77.8c22.5-9.7,47.4-29.8,42-76.6L273.5,242.1z"/>
	<path fill="#F2DBC9" d="M298.7,258.3c-9.9,12.8-8.6,18.8-15,22.3c-9.5,5.3-34.9-13.1-46.1-17.6c0.3-5.5,0.2-11.5-0.6-18l36.5-2.9
		l16.4-1.3C289.9,240.8,294,247.4,298.7,258.3z"/>
	<path fill="#F2DBC9" d="M313.5,332.1c-0.6,8.6-2.2,17.3-5.2,25.9c-34.3-2.9-47.1-28-51.7-48.1c-3.3-14-2.6-25.7-2.6-25.7
		c2.6,5.5,5.4,10.3,8.3,14.6C280.8,326.8,302.6,331.6,313.5,332.1z"/>
	<path fill="#381706" d="M144,380c0,0-32.4-21.3-58.8-13.1c-2.9,9.8-3.2,16.4,0,18.9c0,0,33-14.3,53.5,1.3
		C159.2,402.8,144,380,144,380z"/>
	<path fill="#FF942A" d="M221.8,351.5c0,0,30.4,41.2-3.6,72.8c-35.6,33-76.2-1.4-79.5-37l5.3-7.1c0,0,20.1,28.8,24.3-10.5
		C168.3,369.5,181.7,341.1,221.8,351.5z"/>
	<path fill="#F07837" d="M221.8,351.5c0,0,30.4,41.2-3.6,72.8c-30.2,28-64,7.5-75.6-21.2c0,0,14.4,28.3,51.7,15.2
		C215.8,410.7,229.4,383.1,221.8,351.5z"/>
	<path fill="#FF942A" d="M309.5,339.3c-4.2,0-8.4-0.5-12.7-1.6c-33.1-8.5-51-55.3-39.1-60.5c14-6.1,14.8,35.2,41.8,44.1
		c3.4,1.1,6.6,1.7,9.7,1.8C307.5,326.6,305.7,332.5,309.5,339.3z"/>
	<g>
		
			<ellipse transform="matrix(0.9243 0.3816 -0.3816 0.9243 203.0153 -5.6892)" fill="#381706" cx="115.9" cy="509" rx="11.7" ry="15.3"/>
		
			<ellipse transform="matrix(0.9243 0.3816 -0.3816 0.9243 203.3142 -6.1661)" fill="#D1EBFF" cx="117.2" cy="509.6" rx="5.3" ry="7"/>
		
			<ellipse transform="matrix(0.9243 0.3816 -0.3816 0.9243 218.5952 -84.2692)" fill="#381706" cx="321.8" cy="509" rx="11.7" ry="15.3"/>
		
			<ellipse transform="matrix(0.9243 0.3816 -0.3816 0.9243 218.8847 -84.7387)" fill="#D1EBFF" cx="323.1" cy="509.6" rx="5.3" ry="7"/>
		<g>
			<path fill="#F04A4A" d="M237.4,513.7c-60.6,0-119.4-1.4-120.3-1.4c-1.5,0-2.7-1.3-2.7-2.8c0-1.5,1.3-2.7,2.8-2.7
				c1.3,0,133.5,3.2,205.7,0c1.5-0.1,2.8,1.1,2.9,2.6c0.1,1.5-1.1,2.8-2.6,2.9C299,513.4,268,513.7,237.4,513.7z"/>
		</g>
		<path fill="#F04A4A" d="M112.5,473.6c4.3,0.5,8.1,2,11.5,4.3c3.4,2.3,6.2,5.4,8.1,9c1.9,3.6,2.8,7.5,3.3,11.4
			c0.2,2,0.2,3.9,0.2,5.9l-0.5,5.8l-1.6-0.2l0.2-5.7c-0.1-1.9-0.2-3.8-0.4-5.6c-0.6-3.7-1.6-7.3-3.5-10.4c-1.9-3.1-4.4-5.8-7.5-7.6
			c-3-1.9-6.7-3-10-3.3L112.5,473.6z"/>
		<path fill="#F04A4A" d="M313.4,491.5c2-2.5,4.2-5,6.8-7.1c2.6-2.1,5.8-3.8,9.5-4c0.9-0.1,1.9,0.1,2.8,0.3c0.9,0.2,1.8,0.6,2.6,0.9
			c0.8,0.5,1.6,0.9,2.3,1.5c0.7,0.6,1.4,1.1,2,1.8c2.5,2.5,4.1,5.5,5.7,8.4l-4,1.9c-1.3-2.7-2.6-5.5-4.5-7.6c-0.5-0.5-1-1-1.5-1.5
			c-0.5-0.5-1.1-0.8-1.7-1.2c-0.6-0.2-1.2-0.6-1.8-0.8c-0.6-0.1-1.3-0.4-1.9-0.3c-2.7-0.1-5.5,1.1-7.9,2.8c-2.5,1.7-4.7,3.9-6.8,6.3
			L313.4,491.5z"/>
		<path fill="#D1EBFF" d="M349.1,393.9l-5.4-1c6.3-34.2,11.5-66.4,15.6-96l5.4,0.7C360.6,327.3,355.4,359.6,349.1,393.9z"/>
		<path fill="#F04A4A" d="M350,394c0,0.1,0,0.2-0.1,0.4c-0.3,1.8-0.6,3.5-1,5.2c-10.3,55.7-20.3,99.6-22.5,109
			c-0.3,1.5-1.5,2.7-3,2.9c-1.7,0.2-3.2-0.7-4.5-2.7c0.1-0.5,11.2-47.8,22.7-110c0.4-2,0.7-4,1.1-6.1l2.2,0.4L350,394z"/>
		<path fill="#F04A4A" d="M349.9,394.4c-0.3,1.8-0.6,3.5-1,5.2l-7.2-0.8c0.4-2,0.7-4,1.1-6.1l2.2,0.4L349.9,394.4z"/>
		<polygon fill="#F04A4A" points="341.5,390.3 340.3,396.8 350.5,397.9 351.7,392.9 		"/>
	</g>
	<path fill="#381706" d="M309.5,339.3c-3.7-6.8-2-12.8-0.2-16.2c30.2,1.5,47.6-45.4,61-26.9c2,2.8-1.4,7.1-5,4.4
		c-1.7,0.2-3.2,1.2-5.9,4.6C357.6,317.1,329.4,339.2,309.5,339.3z"/>
	<g>
		<path fill="#FF942A" d="M181.8,87.8c-33.5,23.6-51,51.5-59.3,78.1C99.9,136.5,84.8,71.3,90.3,64.5
			C97.1,56.1,149.5,55.8,181.8,87.8z"/>
		<path fill="#F07837" d="M107.8,76c-7.1,6.2,13.1,78.2,25.9,79.1c12.9,0.8,35.6-32.4,34-41.7c-1.6-9.3-21-6.3-21-6.3l15.5-10.2
			l-26.4-6.5l13-6.9C148.9,83.4,116.2,68.6,107.8,76z"/>
		<path fill="#FF942A" d="M336.7,96.2c-35.8-25.6-71.1-28.9-90.3-28.3C260.1,17.3,318.8-5.1,329,1C335.8,5,343.4,59.5,336.7,96.2z"
			/>
		<path fill="#F07837" d="M316.5,17.8c8.8,3.3,14.9,77.9,3.2,83.2s-44.6-18-46.4-27.2c-1.8-9.2,17.5-13.2,17.5-13.2l-18.1-4.1
			l22.5-15.3l-14.6-2C280.6,39.1,306.1,13.9,316.5,17.8z"/>
		<path fill="#F07837" d="M336.7,96.2c-2,10.7-5.2,19.9-9.9,25.9c-9.4,11.7-35.8,10.2-60.5-1.8c-11-5.4-25.1-23.2-22.4-37.5
			c0.4-5.2,1.3-10.1,2.5-14.9C265.6,67.3,300.9,70.6,336.7,96.2z"/>
		<path fill="#F07837" d="M190.6,154.6c-18.9,19.9-43.2,30.4-56.1,22.7c-4.2-2.5-8.2-6.4-12-11.4c8.4-26.5,25.8-54.5,59.3-78.1
			c6.6,6.5,12.3,14.4,16.7,23.8C206,124.1,199,145.7,190.6,154.6z"/>
		<path fill="#FF942A" d="M379.5,185.8c-86.7-37.7-122.3,19.5-122.3,19.5C175,184,139.1,268,139.1,268s-38.8-113.8,57.2-179.5
			c0,0,1.8-5.9-10.3-22.9L210.6,82c-7.8-9.8-10.8-11.9-10.8-11.9l30.3,7.9C230.1,78,320.9,57.6,379.5,185.8z"/>
		<path fill="#FFECDB" d="M379.5,185.8c0,0-80.5,34.3-99.1,86.6c0,0-70.4-35.1-141.3-4.4c0,0,38.1-98.1,118.1-62.7
			C257.2,205.3,280.2,140.9,379.5,185.8z"/>
		<path fill="#381706" d="M246.9,199.9L262,195c2.7-0.9,5,1.9,3.8,4.4l-5.1,10c-0.8,1.5-2.7,2.2-4.2,1.4l-10.1-5.1
			C243.9,204.5,244.2,200.8,246.9,199.9z"/>
		<path fill="#F07837" d="M237.3,193c0,0-15.5-30.2-49-26.2c-32.1,3.9-22.9,37.2-22.9,37.2S200.5,174.2,237.3,193z"/>
		<path fill="#381706" d="M207.5,139.9c0.5,2.3-4.4,5.5-11,7.1c-6.6,1.6-12.4,1-12.9-1.4c-0.5-2.3,4.4-5.5,11-7.1
			C201.2,136.9,207,137.5,207.5,139.9z"/>
		<path fill="#381706" d="M232.3,190.2c-2.3-1.4-4.9-2.7-7.5-3.8c-2.6-1.1-5.3-2-8.1-2.7c-5.5-1.5-11.2-2.2-16.8-2.1
			c-5.7,0.1-11.3,1-16.7,2.6c-5.4,1.6-10.6,4-15.4,6.9l-3-5.3c5.4-2.9,11.1-5.2,17-6.8c5.9-1.5,12.1-2.3,18.2-2.1
			c6.1,0.1,12.1,1.2,17.9,2.9c2.9,0.9,5.7,2,8.5,3.2c2.8,1.3,5.4,2.7,8,4.5L232.3,190.2z"/>
		<path fill="#F07837" d="M266.2,182.2c0,0-7.7-33.1,20.6-51.7c27.1-17.8,41.5,13.7,41.5,13.7S282.2,144.1,266.2,182.2z"/>
		<path fill="#381706" d="M254.7,122.4c1.1,2.1,6.9,1.4,13-1.7c6.1-3,10.1-7.2,9-9.4c-1.1-2.1-6.9-1.4-13,1.7
			C257.6,116,253.6,120.2,254.7,122.4z"/>
		<path fill="#381706" d="M264.9,175.9c0.8-3.1,1.9-5.8,3.2-8.6c1.3-2.7,2.8-5.4,4.4-7.9c3.3-5.1,7.2-9.8,11.8-13.8
			c4.5-4.1,9.7-7.4,15.2-10.1c5.5-2.6,11.4-4.5,17.4-5.8l1.1,6c-5.6,0.9-11,2.5-16.2,4.7c-5.2,2.3-10,5.2-14.4,8.8
			c-4.4,3.6-8.3,7.8-11.5,12.5c-1.6,2.3-3.1,4.8-4.4,7.3c-1.3,2.5-2.5,5.2-3.3,7.8L264.9,175.9z"/>
		<path fill="#FFFFFF" d="M219.5,216c0,0,62.2,29.4,66.6-27.5c0,0,11.1,43-14.7,53.7C245.6,253.1,219.5,216,219.5,216z"/>
		<g>
			<path fill="#381706" d="M261.5,245.4c-22.3,0-41.9-27.4-42.9-28.7c-0.3-0.4-0.3-1,0.1-1.3c0.3-0.4,0.9-0.5,1.3-0.3
				c0.3,0.1,30.8,14.3,49.8,3.3c9-5.2,14.1-15.2,15.2-29.9c0-0.5,0.5-1,1-1c0.5,0,1,0.3,1.2,0.8c0.5,1.8,11,44-15.3,55
				C268.3,244.8,264.9,245.4,261.5,245.4z M223,218.7c7.1,8.7,27.9,31,48,22.6c18.6-7.8,17.2-33.5,15.3-45.8
				c-2.1,11.7-7.3,20-15.4,24.7C254.8,229.5,232,222.3,223,218.7z"/>
		</g>
		<g>
			<path fill="#381706" d="M285.6,201.4c0.2,2.3,0,4.7-0.3,7c-0.3,2.3-0.8,4.6-1.5,6.9c-0.7,2.2-1.7,4.4-2.9,6.4
				c-1.2,2-2.7,3.9-4.4,5.4c0.7-1,1.5-1.8,2-2.8c0.3-0.5,0.6-0.9,0.9-1.5l0.8-1.5c1-2.1,1.9-4.2,2.6-6.4c0.7-2.2,1.3-4.4,1.7-6.7
				c0.2-1.1,0.4-2.3,0.6-3.4C285.4,203.7,285.5,202.6,285.6,201.4z"/>
			<path fill="#381706" d="M225.8,221c1.1,0.7,2.2,1.3,3.3,2c1.1,0.7,2.2,1.3,3.4,1.9c2.3,1.2,4.5,2.4,6.9,3.4c2.3,1,4.7,2,7.2,2.7
				c0.6,0.2,1.2,0.3,1.8,0.5c0.6,0.2,1.2,0.3,1.9,0.4c0.6,0.1,1.3,0.3,1.9,0.3c0.6,0,1.3,0.1,1.9,0.1c-2.6,0.3-5.2,0-7.7-0.6
				c-2.6-0.5-5-1.5-7.4-2.5c-2.4-1.1-4.7-2.3-6.9-3.6C229.9,224.1,227.8,222.7,225.8,221z"/>
		</g>
		<g>
			<path fill="#381706" d="M290.6,189.7c-2.5-1.1-3.9-0.3-3.9-0.3l-1.2-1.8c0.1-0.1,2.4-1.6,6,0.1L290.6,189.7z"/>
		</g>
		<g>
			<path fill="#381706" d="M216.8,219.2l-1.9-1c2.2-4.1,4.9-3.2,5-3.1l-0.4,1l-0.3,1C218.8,217,217.8,217.3,216.8,219.2z"/>
		</g>
	</g>
	
		<ellipse transform="matrix(0.8254 0.5646 -0.5646 0.8254 235.1942 -151.5021)" fill="#63290C" cx="362.5" cy="304.5" rx="3.9" ry="5.3"/>
	<g>
		<polygon fill="#FF942A" points="102.1,167.5 8.4,165.6 102.1,163.8 		"/>
		<polygon fill="#FF942A" points="76.7,217.1 20.3,215.3 76.7,213.4 		"/>
		<polygon fill="#FF942A" points="124,432.4 8.4,430.5 124,428.7 		"/>
	</g>
</g>
</svg>
