<?xml version="1.0" encoding="utf-8"?>
<!-- Generator: Adobe Illustrator 17.1.0, SVG Export Plug-In . SVG Version: 6.00 Build 0)  -->
<!DOCTYPE svg PUBLIC "-//W3C//DTD SVG 1.1//EN" "http://www.w3.org/Graphics/SVG/1.1/DTD/svg11.dtd">
<svg version="1.1" id="Layer_1" xmlns="http://www.w3.org/2000/svg" xmlns:xlink="http://www.w3.org/1999/xlink" x="0px" y="0px"
	 width="279.6px" height="504.3px" viewBox="0 0 279.6 504.3" enable-background="new 0 0 279.6 504.3" xml:space="preserve">
<g>
	<ellipse fill="#D7E2FF" cx="158.7" cy="488.4" rx="116.1" ry="15.9"/>
	<path fill="#381706" d="M97.4,445.1c0,0-3.7,29.3-20.2,29.3c0,0-4,7.8-4,16.1h19.9c0,0,15.6-15.5,10.6-50.2L97.4,445.1z"/>
	<path fill="#F07837" d="M53.9,388.6c0,0,0,59,39.8,65.4c12.9,2.1,19.3-21.7,19.3-21.7l-9.7-31.8L53.9,388.6z"/>
	<path fill="#FFECDB" d="M274.7,324c-4.9,16.9-13.9,31.1-13.9,31.1s-17.1-40.4-26.1-40.9c-9.1-0.6-13.1,32.4-13.1,32.4
		c-4.4-6.6-12.8-20.3-16.5-26.2c0.5-5.4,0.7-11.3,0.7-17.8c0-92.5,54.9-16.8,62.9,3C270.5,309.9,272.7,316.1,274.7,324z"/>
	<path fill="#FF942A" d="M272.9,410.2c-13.3,46.2-52.5,56.5-76.2,52.1c-13.8-2.6-24.1-8.7-31.7-16.5c-23.2-23.8-22.1-62.8-22.1-62.8
		l11.4-14.4c0,0,9.8,5.1,20.9,3c12.5-2.3,26.6-13.5,29.9-51.2c3.6,5.9,12.1,19.6,16.5,26.2c0,0,4-33,13.1-32.4
		c9.1,0.6,26.2,40.9,26.2,40.9s9-14.1,13.9-31.1c1.6,6.2,3,13.4,3.9,21.5C280.6,363.3,280,385.4,272.9,410.2z"/>
	<path fill="#F07837" d="M272.9,410.2c-13.3,46.2-52.5,56.5-76.2,52.1c-13.8-2.6-24.1-8.7-31.7-16.5c-23.2-23.8-22.1-62.8-22.1-62.8
		l11.4-14.4c0,0,9.8,5.1,20.9,3c3.3,9.2,5.1,23.9-0.4,46.3c6.1,3.9,13.3,6.9,21.9,8.5c23.6,4.4,62.9-5.9,76.2-52.1
		c2.9-10.1,4.7-19.7,5.7-28.8h0C280.6,363.3,280,385.4,272.9,410.2z"/>
	<path fill="#381706" d="M160.3,440.3c0,0,9.1,30.9-28.8,50.2H110c0,0,1.9-12.9,6.8-15.5c4.9-2.7,12.1,0.8,12.1,0.8
		s24.3-13.6,26.1-31.5L160.3,440.3z"/>
	<path fill="#381706" d="M53.5,335.1c-5,8.3-10.5,14.9-16.8,20.6c-12,10.7-17.1,8.1-17.1,2.1c0-6.1,3.9-11.1,17.3-26.4
		c4.3-5,8.2-11,11.5-17.4C51.1,316.6,55.1,322.7,53.5,335.1z"/>
	<path fill="#FF942A" d="M148.4,308.7c0.8,33,15.1,60.2,16.5,73.4c0,0-3.5,5.6-10,12.6c-11.7,12.5-33,29.4-61.2,26
		c-3.9-0.5-7.6-1.2-11.1-2.3c-11.5-3.4-20.3-9.6-27.1-17.2c-0.5-0.6-1.1-1.2-1.6-1.9c-0.7-0.8-1.3-1.7-2-2.5
		c-0.1-0.1-0.1-0.1-0.1-0.2c-11-15.2-14.3-34.5-15.1-48.7c-0.6-9.7,0.5-18.8,2.8-27.3c7.5-28,27.6-49.2,42.1-61.9
		c0.6-0.5,1.1-1,1.7-1.5c7.9-6.8,13.8-10.8,14.5-11.9l38.7-17.6l29.7,13.4c0,0-4.3,7.5-8.7,19.1C152.7,273,147.9,290.5,148.4,308.7z
		"/>
	<path fill="#F07837" d="M166.2,241.3c0,0-4.3,7.5-8.7,19.1c-13.6,7.4-27.5,9.3-40,8.4c5-8.5,11.7-16.1,20.7-22.5
		c6.2-4.5-1.1-14-1.7-18.4L166.2,241.3z"/>
	<path fill="#F07837" d="M154.9,394.8c-11.7,12.5-33,29.4-61.2,26c-3.9-0.5-7.6-1.3-11.1-2.3c-15.2-91,64.5-65.8,64.5-65.8
		L154.9,394.8z"/>
	<path fill="#FFECDB" d="M138.2,246.3c-8.9,6.5-15.7,14-20.7,22.5c-7.2,12.1-10.7,26.1-11.8,41.2c-0.8,10.3-0.4,21.1,0.8,32.2
		c0.8,7.8,2,15.8,3.4,23.9l-14.1,37.4c0,0-5.2,4.1-14.7,4.5c-6.6,0.3-15.2-1-25.7-6.6c-0.5-0.6-1.1-1.2-1.6-1.9
		c-0.7-0.8-1.3-1.7-2-2.5c-0.1-0.1-0.1-0.1-0.1-0.2c-4.7-6.4-8.2-13.6-10.6-20.8c0,0,0-0.1-0.1-0.1c-2.3-7-3.6-13.9-4.2-20.3
		c-0.2-2.6-0.3-5.1-0.3-7.5c0-8.3,0.7-17.5,2.8-27.3c4.5-20.3,15.6-42.7,41.9-62c0.6-0.4,1.2-0.9,1.9-1.3c0,0,0.1-0.1,0.1-0.1
		l53.1-29.4C137,232.3,144.4,241.8,138.2,246.3z"/>
	<path fill="#F2D0AD" d="M138.2,246.3c-8.9,6.5-15.7,14-20.7,22.5c-14.5-1-27.3-5.8-35.8-9.9c-0.1,0-0.1-0.1-0.2-0.1
		c0.6-0.4,1.2-0.9,1.9-1.3c7.9-6.8,13.8-10.8,14.5-11.9l38.7-17.6C137,232.3,144.4,241.8,138.2,246.3z"/>
	<path fill="#F07837" d="M139.5,287.5c0,0-5.8,28.9-32.9,54.6c-1.2-11.1-1.6-21.9-0.8-32.2L139.5,287.5z"/>
	<path fill="#F2D0AD" d="M106.5,342.1C91.8,356,70.9,369,41.3,376c0,0,0-0.1-0.1-0.1c-3.4-7.8-4.5-20.1-4.5-20.1l0.3-0.2l68.7-45.6
		C104.9,320.2,105.4,331,106.5,342.1z"/>
	<path fill="#F2D0AD" d="M107.9,351.9c2.9,17.7,2,20.5,2,20.5l-14.1,31c0,0-5.2,4-14.7,4.5C73.9,385.4,85.5,358.9,107.9,351.9z"/>
	<path fill="#FF942A" d="M147.6,424.3c-1.1,13.6,12.7,16.1,12.7,16.1s-0.7,7.2-11.3,12.3c-1.8,0.9-4.5,1.4-7.8,1.4
		c-17.2,0.4-50.1-11-52-43.9c-3.5-60.8,58-57.4,58-57.4c26.1,22.2,17.8,40.9,17.8,40.9C152.7,407.5,148.2,417.3,147.6,424.3z"/>
	<path fill="#F07837" d="M160.3,440.3c0,0-0.7,7.2-11.3,12.3c-1.8,0.9-4.5,1.4-7.8,1.4c-16.2-0.4-44.3-11.8-46.7-42.6
		c16.5,24.9,41.9,17.8,53.1,12.8C146.5,437.8,160.3,440.3,160.3,440.3z"/>
	<g>
		<path fill="#FFECDB" d="M218.1,172.8c0,0-3.3,38.8-39.9,69.9c-11.2,7.1-24,12.7-38.5,15.9c-38.6,8.4-69.8-4.7-92.8-22.4
			C16.2,212.6,0,180.8,0,180.8s0,0,0.1,0c0.9-0.3,9.4-3,20.5-2.3c1.1,0.1,2.3,0.2,3.5,0.3c0.1,0,0.2,0,0.3,0
			c0.4,0.1,0.9,0.1,1.3,0.2c0.5,0.1,1.1,0.2,1.6,0.3c0.7,0.1,1.5,0.3,2.2,0.4c0.1,0,0.1,0,0.1,0c0.5,0.1,0.9,0.2,1.4,0.3
			c2.3,0.6,4.6,1.3,6.9,2.3c2.4,1,4.8,2.2,7.2,3.6c0.5,0.3,1,0.6,1.5,0.9c1.4,0.9,2.7,1.9,4,3c0.5,0.4,1,0.8,1.6,1.3
			c0,0,47.2-37.1,123-28C188.6,164.7,202.9,167.8,218.1,172.8z"/>
		<path fill="#FF942A" d="M76.4,11.9c-8.2-1.3-40.7,45.9-14.9,77.8L104.6,60C86,44.9,86.2,13.4,76.4,11.9z"/>
		<path fill="#F07837" d="M68.3,27.6c-4-0.5-22.4,33.4-5.2,61l27.4-18.8c0,0-14.4-8.7-21.5-15l10.3-1c0,0-3-4.5-11-9.2l7.2-1.4
			C75.6,43.2,73.5,28.2,68.3,27.6z"/>
		<path fill="#FF942A" d="M253,126c0,0-16.4,79.5-74.8,116.7c36.6-31,39.9-69.9,39.9-69.9c-15.2-5-29.6-8.1-43-9.7
			c-75.7-9-123,28-123,28c-0.5-0.4-1-0.9-1.6-1.3c-1.3-1.1-2.7-2.1-4-3c-0.5-0.3-1-0.6-1.5-0.9c-2.4-1.5-4.8-2.6-7.2-3.6
			c-2.3-0.9-4.6-1.7-6.9-2.3c-0.5-0.1-0.9-0.2-1.4-0.3c0,0-0.1,0-0.1,0c-0.8-0.2-1.5-0.3-2.2-0.4c-0.5-0.1-1.1-0.2-1.6-0.3
			c-0.4-0.1-0.9-0.1-1.3-0.2c-0.1,0-0.2,0-0.3,0c-1.2-0.1-2.4-0.3-3.5-0.3c-11.1-0.7-19.6,2-20.5,2.3c10.4-3.9,17.4-19.4,26-38.4
			c0,0,0,0,0-0.1c4-8.8,8.3-18.4,13.6-27.9c0.1-0.1,0.1-0.2,0.2-0.3c4.2-7.6,9-15.2,14.5-22.4c12.6-16,29.4-29.6,53.4-36
			c5.6-1.5,11.2-2.4,16.6-2.7c39.5-2.4,73.2,23.3,89.1,43.8C231.6,120.3,253,126,253,126z"/>
		<path fill="#F07837" d="M40.4,180.8l-2.6,1.5c-18.6-7.6-36.4-2-37.8-1.6c10.4-3.9,17.4-19.4,26-38.4c0,0,0,0,0-0.1
			c4-8.8,8.3-18.4,13.6-27.9c0.1-0.1,0.1-0.2,0.2-0.3c4.2-7.6,9-15.2,14.5-22.4c8.2,1.4,14.9,5.1,17.8,12.4
			C88.2,144.6,40.4,180.8,40.4,180.8z"/>
		<path fill="#F07837" d="M253,126c0,0-16.4,79.5-74.8,116.7c36.6-31,39.9-69.9,39.9-69.9c-15.2-5-22.7-6.2-22.7-6.2
			c-0.3-27.5-20.3-51.1-20.3-51.1c4.1-29.6-32.1-52.6-50.7-62.3c39.5-2.4,73.2,23.3,89.1,43.8C231.6,120.3,253,126,253,126z"/>
		<g>
			<path fill="#FF942A" d="M175.1,115.4c-6.2-11.3-13.3-21-20.4-29.1c-11.6-13.3-23.2-22.4-30.3-27.5c-4.4-3.2-7.1-4.8-7.1-5
				c2.2-32.2,14.2-53.7,21.9-53.8c5.7-0.1,29.8,27.2,39.5,64.4C181.1,74.1,188.9,119.1,175.1,115.4z"/>
			<path fill="#F07837" d="M159.4,85.8c-1.2,0.8-2.8,0.9-4.7,0.5c-11.6-13.3-23.2-22.4-30.3-27.5c0-5.9,7.4-9.8,7.4-9.8l-8.3,0.2
				l7.5-15.9l-5.7,1.4c0,0,7.1-23.6,13.4-22.9C152.2,13.4,167.8,80.3,159.4,85.8z"/>
		</g>
		<path fill="#381706" d="M36.2,180.4c-3.3,3.6,9.5,14.1,12.5,14.4c3.1,0.3,12.6-9,12.6-12.9C61.3,178,39.5,176.7,36.2,180.4z"/>
		<path fill="#F07837" d="M87.6,161.7c0,0,2.9-48.3,53.5-72c0,0,6.8,14.8,17.9,25.8C159.1,115.5,128.1,146.1,87.6,161.7z"/>
		<g>
			<defs>
				<path id="SVGID_1_" d="M87.6,161.7c0,0,12.6-42.2,49-64.3c0,0,11.9,14.6,14.5,25.1C151.2,122.5,126.3,150.1,87.6,161.7z"/>
			</defs>
			<use xlink:href="#SVGID_1_"  overflow="visible" fill="#FFFFFF"/>
			<clipPath id="SVGID_2_">
				<use xlink:href="#SVGID_1_"  overflow="visible"/>
			</clipPath>
			<ellipse clip-path="url(#SVGID_2_)" fill="#381706" cx="131.1" cy="132.8" rx="32.6" ry="36.8"/>
		</g>
		<ellipse fill="#FFFFFF" cx="134" cy="115.4" rx="5.1" ry="7.1"/>
		<g>
			<path fill="#381706" d="M85.6,163.6l0.7-2.3c13.8-44.5,54-69.1,54.4-69.3l1.4,2.4c-0.4,0.2-38.2,23.4-52.4,65.3
				c8.7-2.6,39-13.5,65.8-43.9l2.1,1.8c-32.1,36.3-69.3,45.3-69.6,45.4L85.6,163.6z"/>
		</g>
		<g>
			<defs>
				<path id="SVGID_3_" d="M54.4,161.7c0,0-0.1,0-0.1-0.1c-11.2-4.8-20.7-12.2-28.1-19.2c4-8.8,8.3-18.4,13.6-27.9
					c0.1-0.1,0.1-0.2,0.2-0.3c11.9,21,14.3,45.4,14.4,47.4C54.4,161.6,54.4,161.6,54.4,161.7z"/>
			</defs>
			<use xlink:href="#SVGID_3_"  overflow="visible" fill="#FFFFFF"/>
			<clipPath id="SVGID_4_">
				<use xlink:href="#SVGID_3_"  overflow="visible"/>
			</clipPath>
			
				<ellipse transform="matrix(0.8858 0.464 -0.464 0.8858 72.0809 -6.3958)" clip-path="url(#SVGID_4_)" fill="#381706" cx="49" cy="143.3" rx="19.1" ry="30.3"/>
		</g>
		<ellipse fill="#FFFFFF" cx="46.9" cy="137.1" rx="2.7" ry="5"/>
		<g>
			<path fill="#381706" d="M55.5,163.3l-1.5-0.5c0,0-0.1,0-0.2-0.1c-1.3-0.5-13.8-5.2-28.5-19.4l1.6-1.7
				C38.8,153.1,49,158.2,53,159.9c-2.8-21.5-9.2-36.4-14.1-45.2l2-1.1c5.1,9.3,11.8,25.1,14.6,47.9l0,0c0,0.1,0,0.2,0,0.3V163.3z"/>
		</g>
		<ellipse transform="matrix(0.943 -0.3328 0.3328 0.943 -19.4919 43.0623)" fill="#381706" cx="116" cy="78.4" rx="13" ry="4.6"/>
		
			<ellipse transform="matrix(0.9814 0.1917 -0.1917 0.9814 19.2752 -8.9643)" fill="#381706" cx="56" cy="95.1" rx="10.8" ry="4.6"/>
		<g>
			<path fill="#381706" d="M68.2,218.6c-6.3,0-12.5-2.7-12.9-2.9l1.1-2.5c0.1,0.1,12.5,5.4,18.8,0.7c3.3-2.5,4.4-7.5,3.3-14.8
				l-0.3-1.9l5.5,0.9l-0.5,2.7l-1.8-0.3c0.8,7.4-0.7,12.6-4.6,15.5C74.4,217.9,71.3,218.6,68.2,218.6z"/>
		</g>
		<path fill="#F2D0AD" d="M218.1,172.8c0,0-3.3,38.8-39.9,69.9c-11.2,7.1-24,12.7-38.5,15.9c-38.6,8.4-69.8-4.7-92.8-22.4
			c114.9,41.4,143.2-52.6,148.6-69.6C195.4,166.6,205.3,168.3,218.1,172.8z"/>
	</g>
	<path fill="#381706" d="M97.7,336.9c-10.6,8.3-22.3,14.9-35.9,20.6c-25.6,10.7-36.5,8.1-36.5,2.1c0-6.1,8.3-11.1,36.8-26.4
		c9.2-5,17.4-11,24.6-17.4C92.4,318.4,101,324.5,97.7,336.9z"/>
	<path fill="#FF942A" d="M135.6,294c-12.1,18.4-24.2,32-38,42.8c3.4-12.4-5.2-18.5-11-21.1c24-21.3,36.4-46.2,36.4-46.2
		S157,261.6,135.6,294z"/>
</g>
</svg>
