<?xml version="1.0" encoding="utf-8"?>
<!-- Generator: Adobe Illustrator 17.1.0, SVG Export Plug-In . SVG Version: 6.00 Build 0)  -->
<!DOCTYPE svg PUBLIC "-//W3C//DTD SVG 1.1//EN" "http://www.w3.org/Graphics/SVG/1.1/DTD/svg11.dtd">
<svg version="1.1" id="Layer_1" xmlns="http://www.w3.org/2000/svg" xmlns:xlink="http://www.w3.org/1999/xlink" x="0px" y="0px"
	 width="270.5px" height="483.3px" viewBox="0 0 270.5 483.3" enable-background="new 0 0 270.5 483.3" xml:space="preserve">
<g>
	<ellipse fill="#D7E2FF" cx="135" cy="469.7" rx="110" ry="13.6"/>
	<g>
		<path fill="#F2D0AD" d="M70.6,458.1l-5.8,9.1c-29.8-4.4-44.5-13.8-46.5-27.6c-1.6-10.7,3.6-20.9,11.8-29.9
			c0.5,7.7,4.6,18.3,21.2,24.3c-6,6.3-12,13.3-11,15.1C43.1,454.6,70.6,458.1,70.6,458.1z"/>
		<path fill="#F07837" d="M182.1,392.8c6.5,53.9-38.8,78.9-90.2,76.7c-10.1-0.4-19.1-1.2-27-2.4l5.8-9.1c0,0-27.6-3.5-30.4-9.1
			c-1-1.9,5-8.9,11-15.1c10.2,3.7,25.1,5.6,46.8,3.9c71.4-5.4,66.4-56.7,33.3-64.9c-16.4-4.1-32.5-2.8-43.6-0.8
			c0.8-0.3,1.4-0.6,1.7-0.7C94.1,369.6,175.6,338.9,182.1,392.8z"/>
		<path fill="#FF942A" d="M98,437.8c-21.7,1.6-36.6-0.3-46.8-3.9c5.6-5.8,11.1-11.1,11.1-11.1s-17.3-2.9-20.4-11
			c-1.8-4.8,7.1-15.5,14.7-23.5c13.4-8.4,26.3-14.2,31.1-16.2c11.1-2,27.2-3.2,43.6,0.8C164.4,381.1,169.4,432.4,98,437.8z"/>
		<path fill="#FFECDB" d="M62.4,422.8c0,0-5.5,5.2-11.1,11.1c-16.6-6-20.6-16.6-21.2-24.3c7.3-8.1,17.1-15.4,26.6-21.3
			c-7.5,8-16.4,18.8-14.7,23.5C45,419.9,62.4,422.8,62.4,422.8z"/>
	</g>
	<path fill="#381706" d="M121.5,418.4c0,0,1.4,28-3.7,51.3H96.3c0,0-2.5-22.8,10-13.8c0,0,5.8-8.4,8.2-37.6H121.5z"/>
	<path fill="#381706" d="M186.5,414c0,0-3.1,6.4-3.1,9.3c0.1,11.2,4.5,30.6,15.1,46.4h20.2c0,0,1.9-22.4-13.9-13.7
		c0,0-18.9-25.2-13.2-37.7L186.5,414z"/>
	<path fill="#FF942A" d="M134.6,233.6l-8.2,24.1c-6.6,1.6-18.4,6.2-28.3,13.4c-12.6,9.2-22.2,22.7-14.5,39.5
		c-5.9,3.2-9.4,9-11.5,13.5c-22-36.3,8.2-62.7,33.8-77.3C121.1,238.1,134.6,233.6,134.6,233.6z"/>
	<path fill="#F07837" d="M105.9,246.8c15.2-8.7,28.7-13.2,28.7-13.2l-8.2,24.1c-6.6,1.6-18.4,6.2-28.3,13.4
		C99.3,265.1,101.9,255.3,105.9,246.8z"/>
	<path fill="#FF942A" d="M233.4,273c-4.3,0.2-10.1,1.2-14.6,4.9c-4.4-6.9-11.7-11.3-18.5-14.2c-8.8-3.6-16.9-4.6-16.9-4.6l-6.5-22.3
		c0,0,3.8,0.8,9.5,2.6C199.9,243.6,224.4,253.7,233.4,273z"/>
	<path fill="#F07837" d="M200.3,263.7c-8.8-3.6-16.9-4.6-16.9-4.6l-6.5-22.3c0,0,3.8,0.8,9.5,2.6
		C190.1,244.7,196.4,254.4,200.3,263.7z"/>
	<g>
		<path fill="#FF942A" d="M225.1,391.3c-6.3,29.7-28.4,36.8-36.7,32.3c-10.4-5.6-4.5-25.4-19.1-39.7c-15.2,10.9-25.6,2.5-25.6,2.5
			c-18.4,17-14.4,30.8-23.9,36.8c-9.5,6-29.9,0.6-36.7-30.7c-6.8-31.3,17.4-52.5,17.4-52.5c-6.6-35.1,3.1-70,12.1-92.5
			c6.1-15.2,11.7-24.7,11.7-24.7l49,6.1c3.5,4.8,6.5,9.6,9.3,14.2c30.9,52.2,20,92.9,20,92.9C211.8,343.1,231.3,361.5,225.1,391.3z"
			/>
		<path fill="#F07837" d="M225.1,391.3c-6.3,29.7-28.4,36.8-36.7,32.3c-10.4-5.6-4.5-25.4-19.1-39.7c-15.2,10.9-25.6,2.5-25.6,2.5
			c-18.4,17-14.4,30.8-23.9,36.8c-9.5,6-29.9,0.6-36.7-30.7c-1.3-6.2-1.5-11.9-0.8-17.2c0.2,1.5,0.5,3.1,1.1,4.7
			c7,20.8,27.9,28.9,37.4,25c14.1-5.8,10.8-11.1,23.7-22.5c0,0,9.8,6.1,24.9-1c14.7,9.6,9,16.1,19.4,19.9
			c8.4,3.1,30.5-1.4,36.5-21.1c0.4-1.3,0.7-2.5,0.9-3.8C226.5,381,226.2,386,225.1,391.3z"/>
		<path fill="#F07837" d="M187.1,251.2c-5.1,4.1-17.1,5.8-22.2,19.7c-2.6,7-11.6,8.9-16.9,3.6c-8.7-8.8-22.3-15.3-36.6-24.3
			c6.1-15.2,12.8-27.4,12.8-27.4l49,6.1C176.8,233.7,183,241.9,187.1,251.2z"/>
		<path fill="#FFECDB" d="M158,381.1c-12,1.1-37.9-4.3-49.9-38c-10.5-29.2,1.9-67.5,12.2-91.3c5.7-13.3,10.8-22,10.8-22l18.7-3.8
			l18.2-3.7c0,0,1.4,2.3,3.6,6.4c2.2,4.1,5.2,10,8.3,17.3c8,18.6,17.2,46.3,17.6,76.3C197.8,362.6,170.6,379.9,158,381.1z"/>
		<path fill="#F2D0AD" d="M158,381.1c-12,1.1-37.9-4.3-49.9-38c-3.3-9.2-4.3-19.4-3.9-29.7c13.2,32.1,40.2,37.3,52.8,36.3
			c11.1-0.9,32.8-12.7,39.8-39.4c0.4,3.9,0.6,7.9,0.6,11.9C197.8,362.6,170.6,379.9,158,381.1z"/>
		<path fill="#F2D0AD" d="M183,253.7c-8.2,4.6-21.5,28.8-28.9,30.1c-3.8,0.7-24-22-35.2-28.9c5.7-13.3,12-25.1,12-25.1l18.7-3.8
			l21.8,2.7C173.7,232.7,179.8,246.4,183,253.7z"/>
	</g>
	<path fill="#381706" d="M155.3,328c-1.3,2.3-15,1.8-15,1.8c-10.4,9-30.7,17-57.6,2.5c-4.1-2.2-7.6-5-10.6-8.1
		c2-4.5,5.6-10.3,11.4-13.5c24.8,23,47.1,6.5,47.1,6.5s9-10.5-2-24.5c11.4-6.8,13.6,6.6,13.3,12.8C157.9,302.6,162,315.8,155.3,328z
		"/>
	<g>
		<g>
			<path fill="#FF942A" d="M86.7,130.6c-22,16.4-47.6,22.8-59,13c-3.1-2.7-6-6.3-8.5-10.8c-0.5-0.8-0.9-1.6-1.4-2.5
				c-1.6-3-3-6.2-4.4-9.7C-0.2,86-3,30.4,3,25.2c8.1-7.1,59.8,1.4,86.2,38.3c0.3,0.5,0.7,0.9,1,1.4c2.8,4,5.2,8.4,7.3,13
				c1.6,3.7,3,7.6,4.2,11.8C107,103.2,96.5,123.3,86.7,130.6z"/>
			<path fill="#F07837" d="M18.3,39.4c-8,4.9-0.2,79.2,12.3,82.2c12.5,3,40.5-25.9,40.5-35.3c0-9.4-19.6-9.7-19.6-9.7l17-7.4
				L43.6,58.3l14-4.7C57.5,53.6,27.9,33.6,18.3,39.4z"/>
			<path fill="#F07837" d="M86.7,130.6c-22,16.4-47.6,22.8-59,13c-3.1-2.7-6-6.3-8.5-10.8c20.9-42.4,58.2-62.2,71.1-68
				c2.8,4,5.2,8.4,7.3,13c1.6,3.7,3,7.6,4.2,11.8C107,103.2,96.5,123.3,86.7,130.6z"/>
		</g>
		<g>
			<path fill="#FF942A" d="M173.3,119.3c24.4,12.4,50.8,14.3,60.4,2.8c2.6-3.2,4.8-7.3,6.6-12.1c0.3-0.9,0.7-1.8,1-2.7
				c1-3.2,1.9-6.7,2.7-10.3c7.5-36.5,0.7-91.7-6.1-95.9c-9.2-5.6-58.6,11.5-78.4,52.4c-0.2,0.5-0.5,1-0.7,1.6c-2,4.4-3.7,9.1-5,14.1
				c-1,3.9-1.7,8-2.1,12.3C148.6,95.7,162.4,113.7,173.3,119.3z"/>
			<path fill="#F07837" d="M225.1,17.7c8.7,3.4,13.7,78,1.9,83.1c-11.8,5.1-44.3-18.6-45.9-27.9c-1.6-9.3,17.7-12.9,17.7-12.9
				l-18-4.4l22.7-14.9l-14.6-2.2C188.9,38.4,214.7,13.6,225.1,17.7z"/>
			<path fill="#F07837" d="M173.3,119.3c24.4,12.4,50.8,14.3,60.4,2.8c2.6-3.2,4.8-7.3,6.6-12.1c-27.8-38.2-67.9-51.4-81.6-54.9
				c-2,4.4-3.7,9.1-5,14.1c-1,3.9-1.7,8-2.1,12.3C148.6,95.7,162.4,113.7,173.3,119.3z"/>
		</g>
		<path fill="#FF942A" d="M270.5,190.2c-79.4-21.8-123.7-0.1-123.7-0.1c-74.6,4.2-126.4,43.2-126.4,43.2s-20.3-118.4,84.7-168
			c0,0,7.1-13.2,23.9-25.7l-8.8,21.6c0.6-0.6,9.8-9.9,21.7-14.9l-1.8,14C140.1,60.3,233,54.6,270.5,190.2z"/>
		<path fill="#FFECDB" d="M270.5,190.2c0,0-84.8,21.1-111.4,69.8c0,0-63.9-45.7-138.7-26.7c0,0,37.2-86.7,126.4-43.2
			C146.8,190.1,202.9,150,270.5,190.2z"/>
		<path fill="#F07837" d="M126.4,174.6c0,0-7.5-34.6-41.6-39.5c-32.7-4.6-32.1,31.5-32.1,31.5S95,145.9,126.4,174.6z"/>
		<path fill="#381706" d="M137.4,183.2l15.7-2.5c2.8-0.4,4.7,2.7,3,5l-6.6,9.1c-1,1.4-3,1.7-4.4,0.7l-9.1-6.6
			C133.8,187.2,134.7,183.6,137.4,183.2z"/>
		<path fill="#F07837" d="M156.8,174.5c0,0-20.1-70.9,17.7-82.1c32.1-9.5,50.8,52.5,50.8,52.5S180.3,143.6,156.8,174.5z"/>
		<g>
			<defs>
				<path id="SVGID_1_" d="M161.2,168.8c0,0-16.1-60.9,16-66.9c26.6-5,40.6,41.7,40.6,41.7S185.9,149.5,161.2,168.8z"/>
			</defs>
			<use xlink:href="#SVGID_1_"  overflow="visible" fill="#FFFFFF"/>
			<clipPath id="SVGID_2_">
				<use xlink:href="#SVGID_1_"  overflow="visible"/>
			</clipPath>
			
				<ellipse transform="matrix(-0.9552 0.2959 -0.2959 -0.9552 394.8964 216.3135)" clip-path="url(#SVGID_2_)" fill="#381706" cx="181.1" cy="138" rx="20.8" ry="28.9"/>
		</g>
		<path fill="#FFFFFF" d="M197.2,118.4c-0.1,5.5-4,10-8.7,10c-4.7,0.1-8.4-4.3-8.3-9.8c0.1-5.5,4-10,8.7-10
			C193.7,108.6,197.4,113,197.2,118.4z"/>
		<g>
			<path fill="#381706" d="M160.6,170.6l-0.4-1.6c-0.4-1.6-10.1-39.1,1.9-58c3.5-5.5,8.5-8.9,14.9-10.1
				c27.2-5.1,41.2,40.5,41.8,42.4l0.3,1.1l-1.1,0.2c-0.3,0.1-34.1,7-56.1,25L160.6,170.6z M181,102.6c-1.2,0-2.4,0.1-3.7,0.3
				c-5.8,1.1-10.4,4.2-13.5,9.2c-10.2,16.1-3.7,47.4-2,54.8c20.1-15.7,48.5-22.8,54.6-24.1C214.2,136.3,201.9,102.6,181,102.6z"/>
		</g>
		<path fill="#FF942A" d="M199.1,98.7c0,0-40.7,14.3-44.1,73.8c0,0-26.5-52.2,2.2-75.7C185.8,73.4,199.1,98.7,199.1,98.7z"/>
		
			<ellipse transform="matrix(0.9743 0.2252 -0.2252 0.9743 29.2534 -18.6361)" fill="#381706" cx="96.3" cy="118.9" rx="12.5" ry="4.5"/>
		
			<ellipse transform="matrix(-0.6239 0.7815 -0.7815 -0.6239 320.5547 33.1183)" fill="#381706" cx="152.3" cy="93.7" rx="12.5" ry="4.5"/>
		<path fill="#381706" d="M122.2,170.5c-1.9-2-4.1-4-6.4-5.8c-2.3-1.8-4.7-3.4-7.2-4.9c-5-2.9-10.4-5.2-16-6.6
			c-5.6-1.5-11.4-2-17.1-1.9c-5.8,0.2-11.5,1.2-17,2.8l-1.7-6.1c6.1-1.5,12.3-2.3,18.6-2.3c6.3,0.1,12.5,0.9,18.5,2.8
			c6,1.8,11.7,4.4,16.9,7.8c2.6,1.7,5.1,3.5,7.5,5.5c2.4,2,4.6,4.1,6.7,6.6L122.2,170.5z"/>
		<g>
			<path fill="#FFFFFF" d="M174.5,196.1c0,0,0,0.2-0.1,0.4c-0.8,4-7.2,34.5-30.8,33.5c-20.8-0.8-29.9-24.8-30.8-27.2
				c0-0.1,0-0.1,0-0.2C154.5,236.8,174.5,196.1,174.5,196.1z"/>
			<path fill="#381706" d="M174.6,195.8c0,0.1,0.2,0.4,0.1,0.6c0,0.2,0,0.3-0.1,0.4l-0.1,0.7l-0.3,1.4c-0.2,1-0.4,1.9-0.7,2.9
				c-0.5,1.9-1.1,3.8-1.7,5.6c-1.4,3.7-3.1,7.3-5.3,10.6c-2.2,3.3-4.9,6.3-8.2,8.6c-3.3,2.3-7.2,3.7-11.3,4.1c-2,0.2-4,0.1-6-0.2
				c-2-0.3-4-0.8-5.8-1.5c-3.8-1.4-7.2-3.6-10.1-6.4c-5.8-5.5-9.9-12.5-12.5-19.8l0,0l0,0c0-0.1,0-0.1,0-0.2v0
				c0-0.1,0.1-0.2,0.2-0.2c0.1,0,0.1,0,0.1,0l0,0c2.4,1.8,4.9,3.6,7.5,5.2c2.6,1.6,5.2,3,8,4.2c5.5,2.4,11.4,3.9,17.4,3.5
				c3-0.1,5.9-0.8,8.7-1.8c2.8-1,5.4-2.5,7.8-4.3c2.4-1.8,4.6-3.8,6.6-6.1c1-1.1,2-2.3,2.9-3.5c0.4-0.6,0.9-1.2,1.3-1.9l0.6-1
				l0.3-0.5l0.1-0.2l0.1-0.1c0,0,0.1-0.1,0.1-0.2C174.4,195.8,174.5,195.8,174.6,195.8z M174.4,196.3c0,0,0.1,0.1,0.2,0
				c0.1,0,0.1-0.1,0.1,0l-0.1,0.1l-0.1,0.3l-0.3,0.5l-0.6,1c-0.4,0.7-0.8,1.3-1.2,2c-0.8,1.3-1.7,2.5-2.7,3.7
				c-2,2.4-4.2,4.6-6.6,6.5c-4.9,3.8-11,6.3-17.2,6.6c-6.3,0.3-12.5-1.3-18.1-3.9c-2.8-1.3-5.5-2.9-8-4.6c-2.5-1.8-4.9-3.6-7.2-5.7
				l0.4-0.2v0c0,0,0,0.1,0,0.1l0,0c1.5,3.6,3.4,7,5.5,10.2c2.1,3.2,4.6,6.2,7.5,8.7c1.4,1.3,2.9,2.4,4.6,3.4c1.6,1,3.3,1.8,5.1,2.5
				c3.5,1.3,7.4,1.8,11.1,1.5c3.8-0.3,7.4-1.6,10.5-3.7c3.1-2.1,5.8-5,8-8.1c2.2-3.1,4-6.6,5.4-10.2c0.7-1.8,1.4-3.6,2-5.5
				c0.3-0.9,0.6-1.9,0.8-2.8l0.4-1.4l0.2-0.7c0-0.1,0.1-0.3,0.1-0.3C174.2,196.4,174.3,196.5,174.4,196.3z"/>
		</g>
		<path fill="#381706" d="M154.5,166.3c0.6-7.2,2-14.1,4-20.9c2.1-6.8,4.8-13.5,8.4-19.7c1.8-3.1,3.7-6.1,6-9
			c2.2-2.9,4.6-5.6,7.2-8.1c5.2-5.1,11.4-9.2,18-12.3l2.1,4.8c-6.2,2.7-12,6.2-17.1,10.8c-2.6,2.2-4.9,4.7-7.1,7.3
			c-2.2,2.6-4.2,5.4-6,8.3c-3.7,5.8-6.5,12.2-8.8,18.7c-2.2,6.5-3.9,13.4-4.7,20.2L154.5,166.3z"/>
	</g>
	<path fill="#381706" d="M207.2,328.9c17.7,0,39.3-24,26.2-55.9c-4.2,0.2-10.1,1.2-14.6,4.9c10.3,22.7-9.1,36.3-9.1,36.3
		s-13.6-12.7-16.6-2.2C190.1,322.5,198.5,328.9,207.2,328.9z"/>
</g>
</svg>
