<?xml version="1.0" encoding="utf-8"?>
<!-- Generator: Adobe Illustrator 17.1.0, SVG Export Plug-In . SVG Version: 6.00 Build 0)  -->
<!DOCTYPE svg PUBLIC "-//W3C//DTD SVG 1.1//EN" "http://www.w3.org/Graphics/SVG/1.1/DTD/svg11.dtd">
<svg version="1.1" id="Layer_1" xmlns="http://www.w3.org/2000/svg" xmlns:xlink="http://www.w3.org/1999/xlink" x="0px" y="0px"
	 width="284.8px" height="477px" viewBox="0 0 284.8 477" enable-background="new 0 0 284.8 477" xml:space="preserve">
<g>
	<ellipse fill="#D7E2FF" cx="159.7" cy="463.4" rx="114.9" ry="13.6"/>
	<g>
		<path fill="#FFECDB" d="M280.6,299.5c-4.2,14.5-11.9,26.6-11.9,26.6s-14.6-34.5-22.4-35c-7.8-0.5-11.2,27.7-11.2,27.7
			c-3.8-5.6-11-17.4-14.1-22.4c0.4-4.6,0.6-9.6,0.6-15.2c0-79.1,46.9-14.3,53.8,2.6C277,287.4,278.9,292.8,280.6,299.5z"/>
		<path fill="#FF942A" d="M195.2,379.8c5.2,3.3,11.3,5.9,18.7,7.3c20.2,3.8,53.8-5,65.2-44.6c2.5-8.6,4-16.8,4.9-24.6c0,0,0,0,0,0
			c-0.8-6.9-2-13.1-3.3-18.4c-4.2,14.5-11.9,26.6-11.9,26.6s-14.6-34.5-22.4-35c-7.8-0.5-11.2,27.7-11.2,27.7
			c-3.8-5.6-11-17.4-14.1-22.4c-2.1,23.9-9.3,35.4-17.2,40.5l0,0C206.7,344.8,206.6,368.3,195.2,379.8z"/>
		<path fill="#F07837" d="M186.7,403.7c6.5,6.7,15.3,12,27.2,14.2c20.2,3.8,53.8-5,65.2-44.6c6.1-21.2,6.6-40.1,4.9-55.3
			c0,0,0,0,0,0c-0.8,7.8-2.4,16-4.9,24.6c-11.4,39.5-45,48.3-65.2,44.6c-7.4-1.4-13.5-4-18.7-7.3c11.4-11.5,11.5-35,8.7-42.9l0,0
			c-2.8,1.8-5.6,2.8-8.4,3.3c-9.5,1.7-17.9-2.6-17.9-2.6l-9.7,12.3C167.9,349.9,166.9,383.3,186.7,403.7z"/>
	</g>
	<path fill="#381706" d="M134.6,414.1c0,0-1.3,29.3-10.9,49.2h-19.2c0,0,1.8-17.9,12-11.6c0,0,9.4-8.4,10.6-38.2L134.6,414.1z"/>
	<path fill="#F07837" d="M93.3,335.1c0,0-27.7,77.1,30.1,81.8c7,0.6,11.2-2.7,11.2-2.7s-14-17.6,3.6-45.6L93.3,335.1z"/>
	<path fill="#FFECDB" d="M161.7,307.3c-13.5,34-48.6,26-48,67.1c0,0-24.1-14.2-28.7-51.1c-0.9-7.1-1-15-0.1-23.8
		c0.9-8.6,2.7-18,5.8-28.3c0.1-0.5,0.3-0.9,0.4-1.4c3.8-12.2,9.3-25.6,17.1-40.4c2.5-4.8,5.2-9.7,8.2-14.7h36.9
		c2,6.3,4.5,15,6.8,24.9C165.1,261.7,168.8,289.3,161.7,307.3z"/>
	<path fill="#381706" d="M80,276c1.2,10.8,6.7,2.9,12,13.6c8.3,16.7,15.4,17.4,19.2,15.8c4.9-2.1,5.5-13.6-3-27.1
		c-5.7-9.1-16-11.8-16-11.8C86.5,266,79.3,270.5,80,276z"/>
	<path fill="#381706" d="M179.3,412.2c0,0,2.1,35.3-1.8,51.2h-19.2c0,0-0.5-19.3,6.8-12.6c0,0,7.2-11.1,4.8-37.2L179.3,412.2z"/>
	<path fill="#FF942A" d="M113.6,374.3c11.9,38.8,44.2,45.1,50.2,45.1c5.9,0,15.5-7.3,15.5-7.3s-5.3-5.3-4-15.7
		c2.5-18.5,21.9-23.6,24-55.9c2.9-43.9-16.5-89.3-27.8-111.6c-4.5-9-7.8-14.2-7.8-14.2l-29.2,4.1c2,6.3,25.7,75.7,15.3,106.1
		C149.9,324.8,107.3,342,113.6,374.3z"/>
	<path fill="#F07837" d="M179.3,412.2c0,0-9.7,8.3-15.5,7.3c-40.9-7.3-49.7-48.3-48.2-52.2c4,9.2,14.9,30.7,42.7,29
		c14.2-0.9,19.8-8.8,20.4-9.9c-1.7,3-2.9,6.3-3.4,10.1C174,406.8,179.3,412.2,179.3,412.2z"/>
	<path fill="#F2DBC9" d="M137.1,286.6c-7.3,5.3-13.8,6.8-20.8,9.6c1,6.2-1.2,12.6-4.1,13.8c-2.9,1.3-7.9,1.1-13.9-7.1
		c-4.3,0.2-9.5-1-13.4-3.4c0.9-8.6,2.7-18,5.8-28.3c0.9-0.1,1.7-0.2,2.6-0.1c0,0,7.9,2,13.7,8.6c16.8-3.9,37-12.5,43.6-29.3
		C150.5,250.4,159.1,270.6,137.1,286.6z"/>
	<path fill="#F2DBC9" d="M101.6,242.8c13.3,9.7,17,21.3,25.6,21.3c5.6,0,18.2-16,27.4-24.6c4.4-4.1,13.9-7.9,17-10.5
		c-4.5-9-7.8-14.2-7.8-14.2h-47.4C113.4,219.8,104.1,238,101.6,242.8z"/>
	<path fill="#381706" d="M100.5,297.7c-16.8,3.7-33.6-3.2-21.3-17.9c0,0,0,0,16.5-2.7C93.4,281.7,90.6,290.5,100.5,297.7z"/>
	<path fill="#63290C" d="M95.8,277.1c-16.5,2.7-16.5,2.7-16.5,2.7c-0.3,0.4-0.6,0.7-0.8,1C84.8,284,95.3,278.1,95.8,277.1z"/>
	<path fill="#FF942A" d="M136,282c-12.5,8.1-23.9,13.2-35.5,15.7c-10-7.3-7.1-16-4.8-20.6c0.5-0.1,1.1-0.2,1.6-0.3
		c17.1-2.7,45.6-11.1,53.4-31C150.7,245.8,159.1,267.1,136,282z"/>
	<g>
		<g>
			<path fill="#FF942A" d="M79.1,116.3c-23.8,13.2-49.9,15.9-59.8,4.8c-2.7-3.1-5-7-6.9-11.8c-0.4-0.9-0.7-1.7-1-2.6
				c-1.1-3.1-2.1-6.5-3-10.1c-8.7-35.9-3.8-91,2.8-95.4c8.9-5.9,58.6,9.4,79.6,49.3c0.3,0.5,0.5,1,0.8,1.5c2.2,4.3,4,8.9,5.4,13.8
				c1.1,3.9,2,7.9,2.5,12.1C102.8,92.1,89.8,110.4,79.1,116.3z"/>
			<path fill="#F07837" d="M24.3,17.3c-8.6,3.7-10.9,77.9,1,82.5c11.9,4.6,43.3-20,44.6-29.3c1.3-9.2-18-12.2-18-12.2l17.7-5
				l-23-14.1l14.4-2.7C60.9,36.6,34.4,12.9,24.3,17.3z"/>
			<path fill="#F07837" d="M79.1,116.3c-23.8,13.2-49.9,15.9-59.8,4.8c-2.7-3.1-5-7-6.9-11.8C38.7,70.5,78,56,91.5,52.1
				c2.2,4.3,4,8.9,5.4,13.8c1.1,3.9,2,7.9,2.5,12.1C102.8,92.1,89.8,110.4,79.1,116.3z"/>
		</g>
		<g>
			<path fill="#FF942A" d="M165.9,116.8c22.4,15.6,48,21,59,10.9c3-2.8,5.7-6.5,8.1-11c0.5-0.8,0.9-1.6,1.3-2.5c1.4-3,2.8-6.3,4-9.8
				c12.3-34.9,13.1-90.1,7-95.2c-8.3-6.8-59.3,3.4-84.2,40.9c-0.3,0.5-0.6,1-0.9,1.5c-2.6,4.1-4.9,8.5-6.8,13.2
				c-1.5,3.7-2.8,7.7-3.7,11.8C144.8,90.3,155.9,109.9,165.9,116.8z"/>
			<path fill="#F07837" d="M230.6,23.9c8.1,4.6,2.9,78.6-9.4,82c-12.3,3.4-41-24.3-41.4-33.7c-0.3-9.3,19.2-10.3,19.2-10.3
				l-17.1-6.8l24.3-11.6l-14-4.2C192.2,39.4,220.9,18.5,230.6,23.9z"/>
			<path fill="#F07837" d="M165.9,116.8c22.4,15.6,48,21,59,10.9c3-2.8,5.7-6.5,8.1-11c-22.2-41.3-59.9-59.7-72.9-65.1
				c-2.6,4.1-4.9,8.5-6.8,13.2c-1.5,3.7-2.8,7.7-3.7,11.8C144.8,90.3,155.9,109.9,165.9,116.8z"/>
		</g>
		<path fill="#FF942A" d="M251.9,199.8C176.8,167.6,130.2,183,130.2,183C56.3,177,0,208.3,0,208.3S-3.9,89.1,106.1,54.5
			c0,0,8.8-12,27-22l-11.6,20c0.6-0.5,11-8.4,23.4-11.7l-3.7,13.5C141.2,54.3,233.3,61.3,251.9,199.8z"/>
		<path fill="#FFECDB" d="M251.9,199.8c0,0-86.3,9.3-119,53.6c0,0-56.7-53.6-132.8-45c0,0,52.7-44.1,130.2-25.4
			C130.2,183,192.5,157.7,251.9,199.8z"/>
		<path fill="#381706" d="M121.9,174.9l15.8-0.3c2.8,0,4.2,3.3,2.3,5.3l-7.7,8c-1.2,1.2-3.2,1.3-4.4,0.1l-8.1-7.7
			C117.8,178.3,119.1,174.9,121.9,174.9z"/>
		<path fill="#F07837" d="M142.5,157.9c0,0-2.6-5,5.3-9.2c11.7-6.3,38-13,61.1-16.5c14,6.4,14.7,15.7,14.7,15.7
			S199.2,155.1,142.5,157.9z"/>
		<path fill="#F07837" d="M116.3,158.1c0,0,2.5-5.1-5.6-9.1c-11.9-5.9-39.5-8.7-62.7-11.6c-13.9,6.8-13.1,12.8-13.1,12.8
			S60.7,160.9,116.3,158.1z"/>
		<g>
			<defs>
				<path id="SVGID_1_" d="M146.5,154.5c0,0-6.8-52.7,25.5-54.2c26.8-1.3,33.9,44.5,33.9,44.5S176.3,153.5,146.5,154.5z"/>
			</defs>
			<use xlink:href="#SVGID_1_"  overflow="visible" fill="#FFFFFF"/>
			<clipPath id="SVGID_2_">
				<use xlink:href="#SVGID_1_"  overflow="visible"/>
			</clipPath>
			
				<ellipse transform="matrix(-0.9867 0.1627 -0.1627 -0.9867 366.1102 257.4084)" clip-path="url(#SVGID_2_)" fill="#381706" cx="172.5" cy="143.7" rx="26.8" ry="25.1"/>
		</g>
		<path fill="#FFFFFF" d="M193.9,140.3c-0.4,2.5-2.6,4.3-4.9,4c-2.3-0.3-3.9-2.6-3.4-5.1c0.4-2.5,2.6-4.3,4.9-4
			C192.7,135.5,194.3,137.8,193.9,140.3z"/>
		<g>
			<path fill="#381706" d="M145.6,155.6l-0.1-0.9c-0.2-1.3-3.9-31.6,8.9-46.9c4.4-5.3,10.4-8.2,17.6-8.5c27.4-1.3,34.7,43.5,35,45.4
				l0.1,0.9l-0.9,0.3c-0.3,0.1-28.8,8.9-59.7,9.7L145.6,155.6z M173.1,101.3c-0.3,0-0.7,0-1,0c-6.6,0.3-12.1,2.9-16.1,7.8
				c-11,13.2-9.1,39.1-8.5,44.3c27.2-0.9,52.4-7.9,57.3-9.3C203.6,137.9,195.8,101.3,173.1,101.3z"/>
		</g>
		<path fill="#FF942A" d="M208.3,131.9c0,0-33.2-0.9-66,19.6c0,0-20.7-39.7,10.7-58.9C184.4,73.5,208.3,131.9,208.3,131.9z"/>
		<path fill="#F04A4A" d="M115.1,199.3c0,0,3.1,27.9,16.3,27.6c13.3-0.3,13.5-28,13.5-28S128.8,193.7,115.1,199.3z"/>
		<path fill="#B83838" d="M129.1,197.2c0,0,2.5,7.7,2.8,19.7c0,0,2.2-10,2-19.7L129.1,197.2z"/>
		<path fill="#381706" d="M105.6,201.8c3.5-2.3,7.3-3.8,11.2-4.9c3.9-1.1,8-1.7,12.1-1.9c1-0.1,2,0,3.1,0c1,0,2,0,3.1,0.1l3,0.4
			c1,0.1,2,0.4,3,0.6c2,0.3,4,1,5.9,1.6c1,0.3,1.9,0.7,2.8,1.1c0.9,0.4,1.9,0.8,2.8,1.2l-0.8,2.2c-1-0.2-1.9-0.4-2.8-0.6
			c-0.9-0.2-1.9-0.5-2.8-0.6c-1.9-0.3-3.8-0.8-5.7-0.9c-1-0.1-1.9-0.3-2.8-0.3l-2.8-0.2c-0.9-0.1-1.9-0.1-2.8-0.1
			c-0.9,0-1.9,0-2.8,0c-3.8,0.1-7.6,0.5-11.3,1.3c-3.7,0.7-7.5,1.7-11,3.1L105.6,201.8z"/>
		<g>
			<path fill="#381706" d="M143.3,153l-1.9-3c36.2-22.6,68.5-19.6,69.9-19.5l-0.4,3.5C210.6,134,178.4,131.1,143.3,153z"/>
		</g>
		<g>
			<defs>
				<path id="SVGID_3_" d="M111.8,156c0,0,3.7-53-28.7-52.6c-26.9,0.3-31.2,46.5-31.2,46.5S82,156.8,111.8,156z"/>
			</defs>
			<use xlink:href="#SVGID_3_"  overflow="visible" fill="#FFFFFF"/>
			<clipPath id="SVGID_4_">
				<use xlink:href="#SVGID_3_"  overflow="visible"/>
			</clipPath>
			
				<ellipse transform="matrix(0.9946 0.1034 -0.1034 0.9946 15.6343 -8.0202)" clip-path="url(#SVGID_4_)" fill="#381706" cx="85.2" cy="146.7" rx="26.8" ry="25.1"/>
		</g>
		<path fill="#FFFFFF" d="M93.7,147.9c0.6,2.5,2.9,4.2,5.2,3.7c2.3-0.4,3.7-2.8,3.1-5.3c-0.6-2.5-2.9-4.2-5.2-3.7
			C94.6,143,93.2,145.4,93.7,147.9z"/>
		<g>
			<path fill="#381706" d="M105.7,157.1c-28.5,0-53.7-6.2-54-6.2l-0.9-0.2l0.1-0.9c0.2-1.9,4.7-47.1,32.2-47.4c0.1,0,0.3,0,0.4,0
				c7.1,0,13,2.5,17.7,7.4c13.7,14.5,11.8,45,11.7,46.3l-0.1,0.9l-0.9,0C109.8,157.1,107.7,157.1,105.7,157.1z M53,149.1
				c5,1.2,30.5,6.6,57.8,5.9c0.2-5.3,0.6-31.3-11.2-43.7c-4.3-4.6-9.9-6.9-16.5-6.8C59.5,104.7,53.8,142.7,53,149.1z"/>
		</g>
		<path fill="#FF942A" d="M48.7,137.1c0,0,33.1-2.8,67,15.6c0,0,18.3-40.9-14.2-58.1C69.1,77.3,48.7,137.1,48.7,137.1z"/>
		<g>
			<path fill="#381706" d="M114.9,154.3c-36.4-19.8-68.3-14.9-68.7-14.9l-0.6-3.5c1.4-0.2,33.4-5.1,70.9,15.3L114.9,154.3z"/>
		</g>
		
			<ellipse transform="matrix(0.98 0.1991 -0.1991 0.98 26.9916 -15.3541)" fill="#381706" cx="89.8" cy="126.5" rx="12.4" ry="4.5"/>
		
			<ellipse transform="matrix(-0.9262 0.3771 -0.3771 -0.9262 351.0235 176.0504)" fill="#381706" cx="158.3" cy="122.4" rx="12.5" ry="4.5"/>
	</g>
</g>
</svg>
