<?xml version="1.0" encoding="utf-8"?>
<!-- Generator: Adobe Illustrator 17.1.0, SVG Export Plug-In . SVG Version: 6.00 Build 0)  -->
<!DOCTYPE svg PUBLIC "-//W3C//DTD SVG 1.1//EN" "http://www.w3.org/Graphics/SVG/1.1/DTD/svg11.dtd">
<svg version="1.1" id="Layer_1" xmlns="http://www.w3.org/2000/svg" xmlns:xlink="http://www.w3.org/1999/xlink" x="0px" y="0px"
	 width="543.9px" height="498.5px" viewBox="0 0 543.9 498.5" enable-background="new 0 0 543.9 498.5" xml:space="preserve">
<g>
	<g>
		<polygon fill="#FF942A" points="172.4,150 78.8,148.2 172.4,146.4 		"/>
		<polygon fill="#FF942A" points="56.5,244.1 0,242.3 56.5,240.4 		"/>
		<polygon fill="#FF942A" points="214.5,389.6 158,387.8 214.5,385.9 		"/>
		<polygon fill="#FF942A" points="168.2,34.7 52.6,32.8 168.2,31 		"/>
	</g>
	<path fill="#381706" d="M472.1,258.6c31.6-4.7,50.9-13.9,57-18.2c11.7-8.3,20.4-20.4,10.3-25.6c-9.9-5.2-17.2,13.2-17.2,13.2
		c-15.4,9.7-33.7,14.4-51.7,16.2C469.2,248.1,467.3,251.6,472.1,258.6z"/>
	<path fill="#FF942A" d="M472.1,258.6c-4.8-7-2.9-10.5-1.7-14.4c-42.1,4.3-83.1-7-83.1-7l-3.7,18
		C416.1,266.2,446.6,262.9,472.1,258.6z"/>
	<path fill="#381706" d="M412.8,455.3c0,0,54.3-3.2,68.9-39.7l-7-9.5c-2.1-2.8-6.5-2.5-8.1,0.7c-6.3,12.6-21.6,37.5-45.1,38.9
		L412.8,455.3z"/>
	<path fill="#FF942A" d="M310.8,387.6c24.8,4.2,43.5,10.5,57.7,17.6c42.6,21.4,44.2,50.1,44.2,50.1l9.3-9.2
		c13.4-36.2,2.6-61.5-7.4-75.4c-6-8.4-11.8-12.6-11.8-12.6L310.8,387.6z"/>
	<path fill="#F2DBC9" d="M310.8,387.6c24.8,4.2,43.5,10.5,57.7,17.6c20.5-8.9,38.2-26,46.1-34.5c-6-8.4-11.8-12.6-11.8-12.6
		L310.8,387.6z"/>
	<path fill="#FFECDB" d="M319.2,388c9.1,3.4,20.5,4.3,32.5,2.9c23.7-2.9,50.1-14.9,67.5-35.3c7.6-8.9,13.5-19.5,16.7-31.5
		c1.8-6.8,2.7-14.1,2.6-21.9c-0.2-16.5-5.2-35.1-16.5-55.6c-3.7-6.7-8-13.5-13.1-20.6l-35.1-0.3l-4.2,0c0,0,6.2,12.3,6.6,28.2
		c0.1,4.6-0.3,9.5-1.4,14.4c-0.2,0.7-0.3,1.4-0.6,2.2c-1,3.8-2.5,7.6-4.6,11.4c-2.2,3.9,11.7,10.2,9.1,13.8
		c-3.7,4.8-7.8,9.2-12.6,12.9c-7,5.3-15.6,13.2-23.5,22.8C329.7,346.6,318.7,366.6,319.2,388z"/>
	<path fill="#FFECDB" d="M316.6,386.9l1.6,5.1l3.7,12.2c-1.2-4-2-8.1-2.4-12c-0.1-1.4-0.2-2.8-0.3-4.2
		C318.3,387.7,317.4,387.3,316.6,386.9z"/>
	<g>
		<path fill="#FFECDB" d="M158.3,280.9c0,0-7.8,3.4-16.3,7.6c-12.9-11.2-19.2-23.6-16.1-34.6c0.3-1.2,0.8-2.3,1.3-3.4
			c11.2-6.1,25.7-10.9,42.9-14c-12.2,5.9-30,15.7-30.7,22.7C138.2,270.1,158.3,280.9,158.3,280.9z"/>
		<path fill="#FF942A" d="M296.8,330.3c-25.2,38.1-79.3,37.8-117.5,21.3c-9.3-4-24-10.2-38.3-18l11.3-7.8c0,0-33.3-17.8-31.6-23.7
			c0.7-2.2,8.8-9.2,20.1-14.8c5.3-2.6,11.2-4.9,17.4-6.4c0,0-20-10.8-18.9-21.8c0.7-7,18.5-16.8,30.7-22.7c11.5-2,24.4-3.3,38.9-3.5
			c1.2,0,2.4,0,3.6,0c26.7,1.1,50.5,5.9,71.6,14.2c8.2,3.4,18.3,10.3,23.9,21.4C312.7,284.3,313,305.9,296.8,330.3z"/>
		<path fill="#F2D0AD" d="M127.1,250.5c-0.5,1.1-1,2.3-1.3,3.4c-3,11,3.2,23.4,16.1,34.6c-9.6,4.7-20.2,10.5-21.2,13.6
			c-2,5.8,31.6,23.7,31.6,23.7l-11.3,7.8c-24.7-13.6-48.2-32.2-41-54.6C103.7,267.7,114.2,258.7,127.1,250.5z"/>
		<path fill="#F07837" d="M296.8,330.3c-25.2,38.1-79.3,37.8-117.5,21.3c-9.3-4-24-10.2-38.3-18l11.3-7.8c0,0-33.3-17.8-31.6-23.7
			c0.7-2.2,8.8-9.2,20.1-14.8c8.1,6.4,19.7,12.9,36.2,19.3c78.8,30.5,101.6-3.1,101.8-18.8c0.2-14.8-7.8-44-69.9-54.9
			c1.2,0,2.4,0,3.6,0c26.7,1.1,50.5,5.9,71.6,14.2c8.2,3.4,18.3,10.3,23.9,21.4C312.7,284.3,313,305.9,296.8,330.3z"/>
	</g>
	<path fill="#FF942A" d="M291,382.4c4,5.4,14.9,8.5,27.2,9.7c0.4,0.1,0.9,0.1,1.3,0.1c11.1,1,23.2,0.5,32.3-1.1c0-0.1,0-0.1-0.1-0.2
		c-4.5-16.2-2.5-27.6,2.6-37.7c6.7-13.4,18.7-24.6,28-41.6c7.5-13.7,4.2-38.4-0.3-57.7c-3.6-15.3-7.9-27.4-8.2-28.1
		c0,0-17.7-1-17.7-1c3.1,11,4.8,20.2,5.3,27.9c1.4,20.8-5.7,31.3-15.7,37.4c-10.1,6.1-23.2,7.8-33.7,11.1
		C287,308.9,262.4,343.5,291,382.4z"/>
	<path fill="#F2DBC9" d="M372.2,267.3c0,0,0.7,1.2,2,3.1c3.2,4.7,10.5,13.7,21.6,19.6c13.6,7.1,32.4,21,40.1,34.1
		c1.8-6.8,2.7-14.1,2.6-21.9c-5-7.3-14-16.8-28.3-21.7c-18.8-6.3-30.5-10.5-35.3-12.3C373.1,267.6,372.2,267.3,372.2,267.3z"/>
	<path fill="#F2DBC9" d="M291,382.4c4,5.4,14.9,8.5,27.2,9.7c0.4,0.1,0.9,0.1,1.3,0.1c11.1,1,23.2,0.5,32.3-1.1c0-0.1,0-0.1-0.1-0.2
		c23.7-2.9,50.1-14.9,67.5-35.3c-17.5,12.5-45.7,20.8-64.9-2.4c-3.2-3.9-6.2-8.6-8.8-14.4c-1.2-2.6-2.2-5.1-3-7.6
		c-5.3-15.9-3.1-29.1,3.2-41.2c-10.1,6.1-23.2,7.8-33.7,11.1C287,308.9,262.4,343.5,291,382.4z"/>
	<path fill="#381706" d="M251.2,357.3c0,0-32-26.2-61-20.5c-4.2,10.1-5.2,17-2.1,20.1c0,0,36.7-11.5,56.7,7.4
		C264.7,383.2,251.2,357.3,251.2,357.3z"/>
	<path fill="#FF942A" d="M244.7,364.3c-0.5,35.1,32.5,72.5,70,54.5c3.4-1.6,6.8-3.7,10.3-6.3c39.7-29.7,12-76.9,12-76.9
		c-17.9-32.8-56-4.6-58.8,13.2c-0.6,3-1.3,5.6-2.1,7.8c-9.4,28.9-24.9,0.7-24.9,0.7L244.7,364.3z"/>
	<path fill="#F2DBC9" d="M244.7,364.3c-0.5,35.1,32.5,72.5,70,54.5c-34.8-1.2-39.3-38-38.6-62.1c-9.4,28.9-24.9,0.6-24.9,0.6
		L244.7,364.3z"/>
	<path fill="#381706" d="M451.9,295.5c27.7,2.6,48.3-3.9,55.3-6.5c13.5-4.9,27.8-16.6,19.4-24.3c-8.2-7.6-20.1,8.2-20.1,8.2
		c-17.4,5.3-35,8-53,5.1C451.4,281.5,449.1,287.5,451.9,295.5z"/>
	<path fill="#FF942A" d="M452,295.5c-2.8-8-0.5-14,1.7-17.5c-41.8-6.9-78.4-28.5-78.4-28.5l-8.3,16.4
		C395.6,285.2,426.3,293.1,452,295.5z"/>
	<path fill="#F2DBC9" d="M356.1,224.7c3.1,11,4.8,20.2,5.3,27.9c5.1,0.7,10,1.1,14.7,1.2c2,0.1,3.9,0.1,5.8,0
		c18.6-0.4,33.2-4.8,40-7.2c-3.7-6.7-8-13.5-13.1-20.6l-35.1-0.3C373.8,225.6,356.1,224.7,356.1,224.7z"/>
	<g>
		<g>
			<path fill="#FF942A" d="M268.2,24.7c6.5,5.1,15.5,13.3,22.7,24.6c1.5,2.3,2.9,4.8,4.2,7.4c2.6,5.2,5.4,9.5,8.2,13.2
				c9.3,12,19.5,16.8,27.1,18.9c9.5,2.6,65.8-30.4,53.1-55.7c-0.7-1.3-1.5-2.6-2.6-3.9c0,0-2.9-3.9-8.6-8.8
				C357,7.1,321.7-13.7,269.5,12.8C264.4,15.4,263.7,21.3,268.2,24.7z"/>
			<path fill="#F07837" d="M369.5,32.5c-30.1-35.6-80-22.2-83.3-15.2c-0.5,1.1,3.2,4.6,8.6,9.6c4.2-3.9,11.8-6.3,11.8-6.3
				s1.1,12.6,2.4,19.8C314,36.4,323,29.6,323,29.6s-1.5,25.7,0.5,29.3C328.6,67.9,369.5,32.5,369.5,32.5z"/>
			<path fill="#F07837" d="M290.8,49.2c1.5,2.3,2.9,4.8,4.2,7.4c2.6,5.2,5.4,9.5,8.2,13.2c9.3,12,19.5,16.8,27.1,18.9
				c9.5,2.6,65.8-30.4,53.1-55.7C366.2,29.5,321,23.6,290.8,49.2z"/>
		</g>
		<g>
			<path fill="#FF942A" d="M271,85.8c-9.2,34.6-5.1,63.1,4.3,85.5c-31.6-6.9-78.3-41.9-78.5-49.6C196.7,112.3,231.5,82.7,271,85.8z"
				/>
			<path fill="#F07837" d="M215,119.5c-1.3,8.1,52.7,44.9,61.8,38.2c9.1-6.7,5.6-41.6-0.7-46.9c-6.3-5.3-17.6,7.6-17.6,7.6l4.7-15.5
				l-21.3,10.5l4.8-11.9C246.6,101.4,216.5,109.9,215,119.5z"/>
			<path fill="#F07837" d="M314.4,125.5c-1.5,23.9-11.7,44.6-24.7,46.7c-4.2,0.7-9.1,0.3-14.5-0.9c-9.3-22.4-13.4-50.9-4.3-85.5
				c8.1,0.7,16.3,2.7,24.5,6.5C307.6,96.5,315.1,114.8,314.4,125.5z"/>
		</g>
		<path fill="#FFECDB" d="M282.6,220.4c0,0,133.8,34.1,166.7,5.3c39.3-34.3,32.8-150.3,32.4-156.4c0.1,2.6-1.4,24.6-74.2,42.6
			C407.5,111.8,343.2,207.7,282.6,220.4z"/>
		<path fill="#FF942A" d="M286.2,194.8c4.3,19.1-2.9,25-3.6,25.5c0,0,0,0-0.1,0c52.7-11,108.2-84.9,121.8-104
			c2.1-2.9,3.2-4.5,3.2-4.5c72.8-18,74.3-40,74.2-42.6c0-0.2,0-0.3,0-0.3c-13,3.9-114.2-58.7-174.7-18.1c-8,1.1-20.9,3.6-31.6,8.5
			l15.5,2.8L278.2,69l9,3.9C267.5,111.7,282.3,177.6,286.2,194.8z"/>
		<path fill="#F07837" d="M281.6,135.5c2.9,37.6,16.7,78.3,1,84.8c0,0,0,0-0.1,0c52.7-11,108.2-84.9,121.8-104
			c-0.1-0.5-0.2-0.9-0.3-1.3c-1-2.7-19.6,1.9-51.2-19.2c-23.7-15.8-55-30.9-62-20.5C284.1,85.3,279.5,106.8,281.6,135.5z"/>
		<path fill="#F07837" d="M404,101.3c-31.3-3.2-71.6-44.5-63.6-53.8C357.6,27.7,452.2,64,452.2,64S446.3,91.1,404,101.3z"/>
		<g>
			<defs>
				<path id="SVGID_1_" d="M438.5,129.8c7.9,3.9,7.3,57.5-2.7,64.8c-7.1,5.2-18.4-7.9-25.3-18.9c-3.8-6-4.2-13.7-1.1-20.1
					C416.5,140.5,424.5,122.9,438.5,129.8z"/>
			</defs>
			<use xlink:href="#SVGID_1_"  overflow="visible" fill="#381706"/>
			<clipPath id="SVGID_2_">
				<use xlink:href="#SVGID_1_"  overflow="visible"/>
			</clipPath>
			<path clip-path="url(#SVGID_2_)" fill="#F04A4A" d="M406.9,169.6c0,0,23.1-10.4,35.9,4.9c0,0-1.7,21.2-9.9,21.2
				C424.6,195.7,415,184,406.9,169.6z"/>
			<path clip-path="url(#SVGID_2_)" fill="#B83838" d="M410.4,175.7c0,0,12.1-3.3,21.4,5.4c0,0-10.1-3.8-18.3-0.7L410.4,175.7z"/>
			<path clip-path="url(#SVGID_2_)" fill="#FFFFFF" d="M435.5,126.4c0,0,4.9,7.8-5.5,1.2C419.7,121.1,435.5,126.4,435.5,126.4z"/>
			<path clip-path="url(#SVGID_2_)" fill="#FFFFFF" d="M416.2,139.4c0,0,8,10.3-3.4,5.9L416.2,139.4z"/>
			<path clip-path="url(#SVGID_2_)" fill="#FFFFFF" d="M443.9,180.8c0,0-1,0.7-2.7,2.1c-2.2-3-2,1.8-2,1.8c-1.3,1.2-2.8,2.7-4.4,4.4
				c0,0-3.2-2.5-2.9,3.3c-2.3,2.8-4.6,6-6.6,9.7C425.2,202.1,445,199.7,443.9,180.8z"/>
		</g>
		<g>
			<path fill="#381706" d="M432.2,196.7c-0.5,0-1-0.1-1.6-0.2c-8.6-1.6-18.2-16-20.9-20.3c-4-6.3-4.4-14.1-1.2-21l0.4-0.8
				c5.2-11,11.1-23.4,19.6-26.4c3.3-1.1,6.8-0.8,10.4,1c3.5,1.7,4.9,10.3,5.5,17.2c1.4,16.6-0.6,43.7-8.1,49.1
				C435.1,196.2,433.7,196.7,432.2,196.7z M432.4,129.2c-1.1,0-2.3,0.2-3.3,0.6c-7.8,2.7-13.5,14.8-18.6,25.5l-0.4,0.8
				c-3,6.3-2.6,13.5,1.1,19.2c5.4,8.6,13.5,18.3,19.7,19.5c1.7,0.3,3.1,0,4.3-0.9c6-4.4,8.9-29.1,7.3-47.4
				c-0.9-10.4-2.9-15-4.5-15.8l0,0C436.1,129.7,434.2,129.2,432.4,129.2z"/>
		</g>
		<path fill="#381706" d="M398.3,113.7l16-10.8c2.8-1.9,6.5,0.6,5.9,3.9l-2.6,13.4c-0.4,2.1-2.4,3.4-4.5,3l-13.5-2.6
			C396.3,120,395.4,115.6,398.3,113.7z"/>
		<path fill="#FFFFFF" d="M405.5,98.4c0,0,31.4-8.8,36.3-24.6c4.9-15.8-73.8-31.8-87-19.5C344.2,64.4,377.8,92.4,405.5,98.4z"/>
		<path fill="#FFFFFF" d="M384.4,116.9c-21.1-4.1-54-44.5-75.5-31.1c-15.9,9.9-9.5,69,15,74.4C346.7,165.3,384.4,116.9,384.4,116.9z
			"/>
		
			<ellipse transform="matrix(-0.8466 0.5322 -0.5322 -0.8466 655.4669 61.7477)" fill="#381706" cx="318.8" cy="125.3" rx="12.7" ry="19.1"/>
		
			<ellipse transform="matrix(-0.7119 0.7023 -0.7023 -0.7119 620.8661 -38.6441)" fill="#FFFFFF" cx="318.4" cy="108" rx="6.1" ry="8.1"/>
		<path fill="#381706" d="M377.7,83.1c8.1,4.7,18.8,5.1,23.8,0.8c5-4.3,2.5-11.5-5.7-16.2c-8.1-4.7-18.8-5.1-23.8-0.8
			S369.5,78.5,377.7,83.1z"/>
		<path fill="#FFFFFF" d="M375.5,67.1c3.3,1.9,7.6,2,9.6,0.3c2-1.7,1-4.6-2.3-6.5c-3.3-1.9-7.6-2-9.6-0.3
			C371.2,62.3,372.3,65.2,375.5,67.1z"/>
		<g>
			<path fill="#381706" d="M405.6,99.3l-0.2,0c-22-4.8-49.3-24-53-37.3c-0.9-3.4-0.3-6.2,1.9-8.3c10.6-10,62.5-2.2,81.5,9.7
				c5.7,3.5,8,7.1,6.9,10.7c-5,16.1-35.6,24.8-36.9,25.2L405.6,99.3z M374.3,50.9c-8.8,0-15.8,1.2-18.8,4.1
				c-1.7,1.6-2.1,3.7-1.4,6.4c3.2,11.5,28.6,31,51.4,36c2.8-0.8,31-9.4,35.5-23.9c1-3.3-2.8-6.5-6.1-8.6
				C422.3,57.1,393.9,50.9,374.3,50.9z"/>
		</g>
		<g>
			<path fill="#381706" d="M327.4,161.4c-1.3,0-2.5-0.1-3.7-0.4c-13.1-2.9-20.6-20.3-23.2-35.5c-2.6-15.5-1.3-34.9,7.9-40.6
				c13.8-8.6,31.5,3.7,48.6,15.7c10.2,7.1,19.7,13.8,27.6,15.3l1.5,0.3l-0.9,1.2C383.6,119.3,350.5,161.4,327.4,161.4z M318.7,83.9
				c-3.3,0-6.4,0.8-9.3,2.6c-7.2,4.5-10.1,20.8-7.1,38.8c2.5,14.6,9.5,31.3,21.8,34c20.1,4.5,52.8-34.6,58.7-41.8
				c-7.9-2.1-17.1-8.5-26.8-15.3C343.1,93.2,329.9,83.9,318.7,83.9z"/>
		</g>
		<ellipse fill="#381706" cx="310.8" cy="37.1" rx="10.5" ry="4.3"/>
		<ellipse fill="#381706" cx="275.3" cy="75.4" rx="4.3" ry="10.5"/>
	</g>
	<path fill="#FFECDB" d="M433.1,341.7l-1.4,2.1C432.2,343,432.7,342.3,433.1,341.7z"/>
	<ellipse fill="#D7E2FF" cx="300.1" cy="484.9" rx="156.6" ry="13.6"/>
</g>
</svg>
