<?xml version="1.0" encoding="utf-8"?>
<!-- Generator: Adobe Illustrator 17.1.0, SVG Export Plug-In . SVG Version: 6.00 Build 0)  -->
<!DOCTYPE svg PUBLIC "-//W3C//DTD SVG 1.1//EN" "http://www.w3.org/Graphics/SVG/1.1/DTD/svg11.dtd">
<svg version="1.1" id="Layer_1" xmlns="http://www.w3.org/2000/svg" xmlns:xlink="http://www.w3.org/1999/xlink" x="0px" y="0px"
	 width="275.1px" height="471.4px" viewBox="0 0 275.1 471.4" enable-background="new 0 0 275.1 471.4" xml:space="preserve">
<g>
	<ellipse fill="#D7E2FF" cx="145.9" cy="457.8" rx="94.9" ry="13.6"/>
	<g>
		<path fill="#FFECDB" d="M64.5,323.3c0,0-7.7-3.1-16.5-6.2c-5-16.8-4-30.4,4.1-36.4c0.9-0.7,1.8-1.2,2.9-1.6
			c12.5,3.9,27,11.2,42.5,21.8c-13.1-4.7-32.7-10.8-37-6.2C54.1,301.9,64.5,323.3,64.5,323.3z"/>
		<path fill="#FF942A" d="M135.4,432.5c-34.1,4-68.9-24.2-88.2-53.9c-5-7.6-13.1-19.9-20.5-33.4l12,2.5c0,0-18.3-33.5-14-36
			s39.8,11.7,39.8,11.7s-10.4-21.5-3.9-28.5c4.3-4.6,23.9,1.4,37,6.2c26.8,18.3,45.5,39.7,74.2,78.3
			C171.8,379.2,183.3,426.9,135.4,432.5z"/>
		<path fill="#F2D0AD" d="M26.4,276.4c0,0-0.1,0-0.1,0l-5-10.3l0.9,11.7c-8.1,3.4-12.1,13.5-11.8,21.7L0,291.8L10.7,303
			c1.1,8.6,4.5,18.5,9.1,28.3l-13.4-6.5l15.2,10.4c1.6,3.4,3.4,6.7,5.1,9.9l12,2.5c0,0-18.3-33.5-14-36c2.2-1.3,13.4,2.1,23.3,5.6
			c-5-16.8-4-30.4,4.1-36.4c0.9-0.7,1.8-1.2,2.9-1.6c-2.3-0.9-6.7-1.9-7.4-2L49,268l-4.8,8.4C38.1,275.4,32.2,275.4,26.4,276.4z"/>
		<path fill="#F07837" d="M135.4,432.5c-34.1,4-68.9-24.2-88.2-53.9c-5-7.6-13.1-19.9-20.5-33.4l12,2.5c0,0-18.3-33.5-14-36
			c2.2-1.3,13.4,2.1,23.3,5.6c4.4,14.9,30.6,30.5,40-9.2c42.9-14.8,48.6,114.5,63.8,103.2c14.8-10.9,5.9-47.3-19.8-82.4
			c16.9,15.6,22.9,27.8,39.7,50.5C171.8,379.2,183.3,426.9,135.4,432.5z"/>
	</g>
	<path fill="#F07837" d="M209.5,310.2l-4.4-6.7l-16.4-24.9l-7.4-11.2l7.1-17.2C194.6,257,219.2,291.8,209.5,310.2z"/>
	<path fill="#FF942A" d="M206.8,317.6c0,15-2,64.4-28.7,85.8c-5.9,4.8-13.1,8.2-21.7,9.4c-2.6,0.4-5.4,0.6-8.3,0.6
		c-3,0-5.9-0.2-8.6-0.7c-8.8-1.4-16.1-4.9-22.1-9.9c-26.2-21.7-28.2-70.5-28.2-85.3c0-15.5,9.8-43.2,21-63.9
		c3.8-6.9,7.7-13,11.5-17.6h52.6c4.7,5.6,9.5,13.6,14,22.5C198.5,278.6,206.8,303.3,206.8,317.6z"/>
	<path fill="#F07837" d="M188.4,258.7c-15.9,15.4-22.1,33.1-31.2,33.1c-8.8,0-31-28-46.9-38c3.8-6.9,7.7-13,11.5-17.6h52.6
		C179,241.8,183.8,249.8,188.4,258.7z"/>
	<path fill="#F07837" d="M206.8,317.6c0,15-2,64.4-28.7,85.8c-5.9,4.8-13.1,8.2-21.7,9.4c-2.6,0.4-5.4,0.6-8.3,0.6
		c-3,0-5.9-0.2-8.6-0.7c-8.8-1.4-16.1-4.9-22.1-9.9c-26.2-21.7-28.2-70.5-28.2-85.3c0-0.1,0-0.3,0-0.4c0.1,16,2.7,61.4,28.1,81.9
		c6,4.9,13.2,8.3,22.1,9.7c2.7,0.4,5.6,0.6,8.6,0.6c2.9,0,5.7-0.2,8.3-0.6c8.6-1.3,15.8-4.6,21.7-9.2c25.9-20.3,28.6-66.3,28.7-82.4
		C206.8,317.3,206.8,317.5,206.8,317.6z"/>
	<path fill="#FFECDB" d="M195.6,318.7c0,18-1,82.5-47.6,82.5c-46.7,0-47.2-64.6-47.2-82.5c0-1.7,0-3.4,0.1-5.1
		c0.5-12,2.7-24.2,5.9-35.6c2.2-7.6,4.7-14.8,7.6-21.3c3.6-8.1,7.5-15.2,11.5-20.5h44.3c4.9,6.5,9.7,16.1,13.9,27
		c2.4,6.4,4.6,13.2,6.4,20.1c2,7.8,3.6,15.7,4.4,23.3C195.4,310.7,195.6,314.8,195.6,318.7z"/>
	<path fill="#F2D0AD" d="M194.4,302.5C194.4,302.5,194.4,302.5,194.4,302.5c-0.9-6.3-2.2-12.8-3.9-19.2l-9-18.7
		c0.8-0.5,1.7-1,2.6-1.4c-4.2-10.9-9-20.5-13.9-27h-44.3c-4,5.3-7.9,12.4-11.5,20.5c1.4,1.1,2.9,2.3,4.3,3.5l-3-0.6l-8.8,18.4
		c-2.2,7.8-3.9,15.9-4.9,24.1c-0.1,0.3-0.1,0.7-0.1,1.1c-0.1,0.7-0.2,1.4-0.2,2.1c-0.1,1.1-0.2,2.2-0.3,3.3c0,0.2,0,0.5-0.1,0.7
		c-0.2,3.2-0.4,6.3-0.4,9.5c0,18,0.6,82.5,47.2,82.5c46.6,0,47.6-64.6,47.6-82.5C195.6,313.5,195.2,308.1,194.4,302.5z M150,340.8
		c-12,0-35.6-4.3-44.6-24.7c15.6-12.3,19.2-38.5,20-49.4c10.7,10.9,19.7,22.7,25.8,22.7c5.1,0,11.1-7.6,18.3-14.9
		c1.2,10.7,5.6,31.9,21,42.6C185.6,327.7,174.7,340.8,150,340.8z"/>
	<path fill="#381706" d="M116.6,409.4l-9.1,12.8c0,0,5.5,28,20.1,41.3h14c0,0,1.8-6.7,0-10.9c-1.8-4.3-11.2,3.6-22.5-29.5l5.9-12.8
		L116.6,409.4z"/>
	<path fill="#381706" d="M177.3,409.4l9.1,12.8c0,0-5.5,28-20.1,41.3h-14c0,0-1.8-6.7,0-10.9c1.8-4.3,11.2,3.6,22.5-29.5l-5.9-12.8
		L177.3,409.4z"/>
	<path fill="#FF942A" d="M89.2,317.6c0,0-24.9,36.5-14.6,61.4C85,404,116,419.8,130.6,414.3C145.1,408.8,144.5,345,89.2,317.6z"/>
	<path fill="#FF942A" d="M206.6,317.6c0,0,24.9,36.5,14.6,61.4c-10.3,24.9-41.3,40.7-55.9,35.3S151.2,345,206.6,317.6z"/>
	<path fill="#F07837" d="M130.6,414.3c-14.6,5.5-58.1-22.8-58-55.2c0.4,2.1,1.1,4.2,2.1,6.1c10.3,19.3,41.3,31.6,55.9,27.4
		c3.5-1,6.1-4.6,7.3-9.8C140.2,399,136.8,412,130.6,414.3z"/>
	<path fill="#F07837" d="M221.2,379c-10.3,24.9-41.4,40.7-55.9,35.3c-6.2-2.3-9.7-15.3-7.3-31.4c1.2,5.2,3.8,8.8,7.3,9.8
		c14.6,4.3,45.6-8,55.9-27.4c1-2,1.7-4,2.1-6.1C224.1,366,223.7,372.9,221.2,379z"/>
	<g>
		<g>
			<path fill="#FF942A" d="M128.6,107.5c-1.4,14.9-18.9,28.4-30.2,30.5c-22.9,4.2-44.7-0.4-52.9-11.6c-1-1.3-1.7-2.7-2.3-4.2
				c-1.7-4.6-2.6-10.4-2.6-16.8C40.2,67.2,65.6,4.3,73.6,2.1C81.8-0.2,111,21.9,124,56.3c2.5,6.7,4.4,13.8,5.5,21.3
				C130.8,87.1,130.7,97.1,128.6,107.5z"/>
			<path fill="#F07837" d="M80.4,22.3c-8.8,0.7-34.3,72.5-25.1,81.1c9.2,8.6,45.1-4.7,49.2-13.3c4.1-8.6-12.3-18.1-12.3-18.1
				l17.4,1.2L93.4,51.4l13.7,2.3C107.1,53.7,90.8,21.5,80.4,22.3z"/>
			<path fill="#F07837" d="M128.6,107.5c-1.4,14.9-18.9,28.4-30.2,30.5c-22.9,4.2-44.7-0.4-52.9-11.6c14.2-26.4,37.4-51.5,75-65.5
				c0,0,1.1-1.8,3.5-4.6c2.5,6.7,4.4,13.8,5.5,21.3C130.8,87.1,130.7,97.1,128.6,107.5z"/>
		</g>
		<g>
			<path fill="#FF942A" d="M156.6,105.6c1.4,14.9,18.9,28.4,30.2,30.5c22.9,4.2,44.7-0.4,52.9-11.6c1-1.3,1.7-2.7,2.3-4.2
				c1.7-4.6,2.6-10.4,2.6-16.8c0.4-38.2-24.9-101.1-33-103.3c-8.2-2.3-37.4,19.8-50.4,54.3c-2.5,6.7-4.4,13.8-5.5,21.3
				C154.5,85.2,154.6,95.2,156.6,105.6z"/>
			<path fill="#F07837" d="M204.9,20.4c8.8,0.7,34.3,72.5,25.1,81.1c-9.2,8.6-45.1-4.7-49.2-13.3c-4.1-8.6,12.3-18.1,12.3-18.1
				l-17.4,1.2l16.2-21.6l-13.7,2.3C178.1,51.8,194.4,19.6,204.9,20.4z"/>
			<path fill="#F07837" d="M156.6,105.6c1.4,14.9,18.9,28.4,30.2,30.5c22.9,4.2,44.7-0.4,52.9-11.6c-14.2-26.4-37.4-51.5-75-65.5
				c0,0-1.1-1.8-3.5-4.6c-2.5,6.7-4.4,13.8-5.5,21.3C154.5,85.2,154.6,95.2,156.6,105.6z"/>
		</g>
		<path fill="#FF942A" d="M269.9,163.2l-15.7,7.9c-1.6-5.6-3.3-10.8-5-15.8l7.1-10.6l-9.2,5c-32.2-81.5-93.2-76.6-93.2-76.6
			l-4.4-33.1c-1.1,17-6.7,29.5-6.7,29.5l-4.6-48c-2.4,39.7-7.8,49.1-7.8,49.1c-49.3,15.9-74.7,48.1-87.8,78.8l-10-5.5l7.6,11.4
			c-2,5.2-3.6,10.4-5,15.3l-15-7.6l13.3,14.4c-5.8,25.5-4.4,45-4.4,45s44.9-29.8,119-26.7c0,0,42.7-1.4,114,13.3
			c-1.6-11.3-3.7-21.7-6.1-31.2L269.9,163.2z"/>
		<path fill="#FFECDB" d="M262.2,209.3c0,0-75.7,28.7-111.9,70.4c0,0-50.6-55.1-121.2-57c0,0,52.4-44.6,119-26.7
			C148.1,196,199.8,175.8,262.2,209.3z"/>
		<path fill="#381706" d="M140.1,187.8l15-0.7c2.6-0.1,4.1,3.3,2.3,5.4l-7.2,8.5c-1.1,1.3-3,1.4-4.2,0.2l-7.8-7.8
			C136.2,191.4,137.4,187.9,140.1,187.8z"/>
		<path fill="#F07837" d="M168.4,178.8c-20.8-3.8-4.8-85.7,9-87.1c26.8-2.7,46.9,44.4,45.9,66.4C222.9,166.9,203,185.2,168.4,178.8z
			"/>
		<path fill="#F07837" d="M127,178.8c20.8-3.8,4.8-85.7-9-87.1c-26.8-2.7-46.9,44.4-45.9,66.4C72.5,166.9,92.5,185.2,127,178.8z"/>
		<g>
			<defs>
				<path id="SVGID_1_" d="M180,179.9c-8,1.2-15.9-2.5-17.8-9.9c-7.1-28.9,8.7-69.4,17.6-70.6c21.2-3,41.5,46.5,38,59.1
					C214.8,169.7,208.8,175.5,180,179.9z"/>
			</defs>
			<use xlink:href="#SVGID_1_"  overflow="visible" fill="#FFFFFF"/>
			<clipPath id="SVGID_2_">
				<use xlink:href="#SVGID_1_"  overflow="visible"/>
			</clipPath>
			<path clip-path="url(#SVGID_2_)" fill="#381706" d="M175.2,139.7c-0.4,8.1,4.9,15.2,11.9,15.7c7,0.5,12.9-5.7,13.4-13.8
				c0.4-8.1-4.9-15.2-11.9-15.7C181.6,125.3,175.6,131.5,175.2,139.7z"/>
		</g>
		<g>
			<path fill="#381706" d="M176.9,181c-7.6,0-13.9-4.2-15.5-10.8c-5.7-23.1,3.2-53.6,11.5-65.8c2.4-3.6,4.7-5.6,6.8-5.9
				c6.3-0.9,13,2.6,19.5,10c12.8,14.5,22,41,19.5,50.2c-3.2,11.7-9.5,17.7-38.6,22.2l-0.1-0.9l0.1,0.9C179.1,181,178,181,176.9,181z
				 M181.7,100.1c-0.6,0-1.1,0-1.7,0.1c-1.5,0.2-3.5,2-5.6,5.1c-8.1,12-16.8,41.8-11.2,64.4c1.9,7.5,9.8,10.3,16.8,9.3l0,0
				c28.2-4.3,34.1-9.7,37.1-20.9c2.3-8.6-6.9-34.7-19.1-48.6C194,105.2,188.1,100.1,181.7,100.1z"/>
		</g>
		<path fill="#381706" d="M172.1,70.1c-1.7,1.8,0.7,7.4,5.3,12.4c4.6,5,9.7,7.7,11.4,5.8c1.7-1.8-0.7-7.4-5.3-12.4
			C178.9,70.9,173.8,68.3,172.1,70.1z"/>
		<path fill="#FFFFFF" d="M189.6,126.7c-0.3,3,1.4,5.6,3.8,5.9c2.4,0.2,4.5-2,4.8-5c0.3-3-1.4-5.6-3.8-5.9
			C192,121.5,189.8,123.7,189.6,126.7z"/>
		<g>
			<defs>
				<path id="SVGID_3_" d="M114.7,179.9c8,1.2,15.9-2.5,17.8-9.9c7.1-28.9-8.7-69.4-17.6-70.6c-21.2-3-40.9,46.4-38,59.1
					C79.3,168.9,86,175.5,114.7,179.9z"/>
			</defs>
			<use xlink:href="#SVGID_3_"  overflow="visible" fill="#FFFFFF"/>
			<clipPath id="SVGID_4_">
				<use xlink:href="#SVGID_3_"  overflow="visible"/>
			</clipPath>
			<path clip-path="url(#SVGID_4_)" fill="#381706" d="M121.2,139.7c0.4,8.1-4.9,15.2-11.9,15.7c-7,0.5-12.9-5.7-13.4-13.8
				c-0.4-8.1,4.9-15.2,11.9-15.7C114.8,125.3,120.8,131.5,121.2,139.7z"/>
		</g>
		<g>
			<path fill="#381706" d="M117.9,181c-1.1,0-2.1-0.1-3.2-0.3c-29.2-4.5-36.1-11.3-38.6-22.2c-2.2-9.7,7.7-37.3,20.4-51.1
				c6.3-6.8,12.5-9.8,18.6-9c2.1,0.3,4.4,2.3,6.8,5.9c8.3,12.3,17.2,42.8,11.5,65.8C131.7,176.8,125.5,181,117.9,181z M113.1,100.1
				c-4.9,0-10.1,2.9-15.3,8.6c-12.9,14.1-21.9,41.2-20,49.5c2.3,10.2,8.9,16.5,37.1,20.8c6.9,1.1,14.9-1.8,16.8-9.3
				c5.6-22.6-3.1-52.4-11.2-64.4c-2.1-3.1-4.1-4.9-5.6-5.1C114.3,100.1,113.7,100.1,113.1,100.1z"/>
		</g>
		<path fill="#FFFFFF" d="M117.2,126.7c0.3,3-1.4,5.6-3.8,5.9c-2.4,0.2-4.5-2-4.8-5c-0.3-3,1.4-5.6,3.8-5.9
			C114.8,121.5,116.9,123.7,117.2,126.7z"/>
		<path fill="#381706" d="M117,70.1c1.7,1.8-0.7,7.4-5.3,12.4c-4.6,5-9.7,7.7-11.4,5.8c-1.7-1.8,0.7-7.4,5.3-12.4
			C110.2,70.9,115.3,68.3,117,70.1z"/>
		<g>
			<defs>
				<path id="SVGID_5_" d="M148.4,207.8c-5.2,12.7-20.6,21.7-17.1,29.6c3.5,8,33.2,6.5,35.9,0C170.6,229.1,151,215,148.4,207.8z"/>
			</defs>
			<use xlink:href="#SVGID_5_"  overflow="visible" fill="#381706"/>
			<clipPath id="SVGID_6_">
				<use xlink:href="#SVGID_5_"  overflow="visible"/>
			</clipPath>
			<g clip-path="url(#SVGID_6_)">
				<path fill="#FFFFFF" d="M135.5,242.9c0,0,1.9-6,3.3-5.8c1.4,0.2,1.7,7,1.7,7L135.5,242.9z"/>
				<path fill="#FFFFFF" d="M163.2,242.9c0,0-1.9-6-3.3-5.8c-1.4,0.2-1.7,7-1.7,7L163.2,242.9z"/>
			</g>
		</g>
	</g>
	<path fill="#FF942A" d="M205.8,312.7c-3.7,0.9-10.4-2.2-16.8-9.6c13.3,0,15.9-10.4,16.3-15.8C212.8,299.4,212.9,311,205.8,312.7z"
		/>
	<path fill="#381706" d="M189,303.1c-6.5-7.5-12.8-19.4-15.3-36c-5.6-36.7,3.5-53.1,11.1-51.1c10.3,2.7-2.7,37.5,19.2,69.2
		c0.4,0.7,0.9,1.3,1.3,2C204.8,292.8,202.3,303.1,189,303.1z"/>
	<path fill="#F07837" d="M85.2,310.2l4.4-6.7l16.4-24.9l7.4-11.2l-7.1-17.2C100.1,257,75.5,291.8,85.2,310.2z"/>
	<path fill="#FF942A" d="M88.9,312.7c3.7,0.9,10.4-2.2,16.8-9.6c-13.3,0-15.9-10.4-16.3-15.8C81.9,299.4,81.8,311,88.9,312.7z"/>
	<path fill="#381706" d="M105.7,303.1c6.5-7.5,12.8-19.4,15.3-36c5.6-36.7-3.5-53.1-11.1-51.1c-10.3,2.7,2.7,37.5-19.2,69.2
		c-0.4,0.7-0.9,1.3-1.3,2C89.8,292.8,92.4,303.1,105.7,303.1z"/>
	<path fill="#381706" d="M190.4,415.4c1.5,1.4,2.4,3.5,2.8,5.5c0.4,2.1,0.3,4.2,0,6.3c-0.2,1-0.5,2-0.8,3c-0.3,1-0.7,1.9-1.2,2.9
		c-0.5,0.9-1,1.8-1.5,2.7c-0.6,0.8-1.2,1.7-1.8,2.5c0.3-1,0.7-1.9,1-2.9c0.3-1,0.6-1.9,1-2.8c0.5-1.9,1.2-3.8,1.4-5.7
		c0.4-1.9,0.5-3.9,0.4-5.8C191.7,419.2,191.3,417.2,190.4,415.4z"/>
	<path fill="#381706" d="M103.6,415.4c-0.9,1.8-1.3,3.8-1.4,5.7c-0.1,1.9,0,3.9,0.4,5.8c0.3,1.9,0.9,3.8,1.4,5.7
		c0.4,0.9,0.7,1.9,1,2.8c0.4,0.9,0.7,1.9,1,2.9c-0.7-0.8-1.2-1.6-1.8-2.5c-0.5-0.9-1-1.8-1.5-2.7c-0.4-0.9-0.8-1.9-1.2-2.9
		c-0.3-1-0.6-2-0.8-3c-0.3-2.1-0.4-4.2,0-6.3C101.3,418.9,102.1,416.8,103.6,415.4z"/>
	<path fill="#F07837" d="M227.7,345.6c2.1,3.2,3.5,6.9,4.4,10.7c0.9,3.8,1.2,7.7,0.9,11.6l-0.1,1.5c-0.1,0.5-0.2,1-0.3,1.4
		c-0.2,1-0.3,1.9-0.6,2.9l-0.9,2.8c-0.2,0.9-0.7,1.8-1.1,2.7l-0.6,1.3c-0.2,0.5-0.4,0.9-0.7,1.3l-1.5,2.5c-0.5,0.8-1.1,1.6-1.7,2.3
		c-0.6,0.7-1.2,1.5-1.8,2.2c0.5-0.8,0.9-1.7,1.4-2.5c0.5-0.8,1-1.6,1.4-2.5c0.8-1.7,1.7-3.4,2.3-5.2c1.4-3.5,2.1-7.2,2.4-10.9
		c0.4-3.7,0.2-7.5-0.4-11.2C230.1,352.8,229.1,349.1,227.7,345.6z"/>
	<path fill="#FF942A" d="M63.3,343.8c-1.4,3.6-2.4,7.2-3.1,10.9c-0.6,3.7-0.8,7.5-0.4,11.2c0.3,3.7,1.1,7.4,2.4,10.9
		c0.6,1.8,1.5,3.5,2.3,5.2c0.4,0.9,0.9,1.7,1.4,2.5c0.5,0.8,1,1.6,1.4,2.5c-0.6-0.7-1.2-1.5-1.8-2.2c-0.6-0.8-1.3-1.5-1.7-2.3
		l-1.5-2.5c-0.3-0.4-0.5-0.8-0.7-1.3l-0.6-1.3c-0.4-0.9-0.9-1.8-1.1-2.7l-0.9-2.8c-0.3-0.9-0.4-1.9-0.6-2.9c-0.1-0.5-0.2-1-0.3-1.4
		l-0.1-1.5c-0.3-3.9-0.1-7.8,0.9-11.6C59.8,350.7,61.2,347,63.3,343.8z"/>
	<path fill="#FF942A" d="M267,183.3c0.8,2.4,1.4,4.8,2.2,7.2c0.7,2.4,1.4,4.8,2,7.2c1.3,4.8,2.6,9.7,3.7,14.5l0.2,0.7l-0.7,0.3
		c-2.7,1.1-5.4,2.2-8.1,3.2c-2.7,1.1-5.4,2.1-8.1,3.1c-2.7,1-5.5,2-8.2,3c-2.8,0.9-5.5,1.9-8.3,2.8c2.6-1.3,5.3-2.5,7.9-3.7
		c2.7-1.2,5.3-2.3,8-3.5c2.7-1.1,5.4-2.3,8-3.3c2.7-1.1,5.4-2.2,8.1-3.2l-0.5,1c-1.2-4.9-2.3-9.7-3.3-14.6c-0.5-2.4-1-4.9-1.5-7.4
		C267.9,188.2,267.4,185.7,267,183.3z"/>
	<path fill="#FF942A" d="M23.5,196.5c-0.3,2.7-0.7,5.4-1,8.1c-0.4,2.7-0.8,5.4-1.2,8.1c-0.8,5.4-1.7,10.8-2.6,16.2l-0.8-1
		c2.8,0.3,5.6,0.6,8.4,0.9c2.8,0.3,5.6,0.7,8.4,1c2.8,0.4,5.6,0.8,8.4,1.2c2.8,0.5,5.6,0.9,8.4,1.4c-2.8-0.1-5.7-0.3-8.5-0.4
		c-2.8-0.2-5.6-0.4-8.5-0.6c-2.8-0.3-5.6-0.5-8.5-0.8c-2.8-0.3-5.6-0.6-8.4-0.9l-1-0.1l0.2-0.9c1-5.4,2-10.8,3.1-16.1
		c0.5-2.7,1.1-5.4,1.7-8C22.3,201.9,22.9,199.2,23.5,196.5z"/>
</g>
</svg>
