<?xml version="1.0" encoding="utf-8"?>
<!-- Generator: Adobe Illustrator 17.1.0, SVG Export Plug-In . SVG Version: 6.00 Build 0)  -->
<!DOCTYPE svg PUBLIC "-//W3C//DTD SVG 1.1//EN" "http://www.w3.org/Graphics/SVG/1.1/DTD/svg11.dtd">
<svg version="1.1" id="Layer_1" xmlns="http://www.w3.org/2000/svg" xmlns:xlink="http://www.w3.org/1999/xlink" x="0px" y="0px"
	 width="275.3px" height="470.3px" viewBox="0 0 275.3 470.3" enable-background="new 0 0 275.3 470.3" xml:space="preserve">
<g>
	<ellipse fill="#D7E2FF" cx="129.3" cy="456.7" rx="117.2" ry="13.6"/>
	<g>
		<path fill="#F2D0AD" d="M25.6,387.7c0,0-25.6,11.2-25.6,27.6c0,16.4,28.1,27.6,52.3,34.4l14.9-6.6l-35.5-13.3l21.5-12.5
			L25.6,387.7z"/>
		<path fill="#FFECDB" d="M63.5,410.5c0,0-7.7,3.1-16,6.8c-15.4-7.8-24.3-17.4-22.8-26.6c0.2-1,0.5-2,0.9-3
			c11.6-5.7,27-10.4,45.5-13.6c-12.6,5.5-30.8,14.4-30.5,20.3C41,403.3,63.5,410.5,63.5,410.5z"/>
		<path fill="#FF942A" d="M190.9,435.6c-21.3,25-65.8,29.5-100.5,22.6c-8.9-1.8-23.4-4.5-38.1-8.5l10.2-6.3c0,0-36.6-10-35.4-14.4
			c1.2-4.4,36.4-18.5,36.4-18.5s-22.6-7.2-23-16.2c-0.3-5.9,17.9-14.8,30.5-20.3c31.9-5.6,60.3-3.8,107.9,2.6
			C178.9,376.7,220.8,400.4,190.9,435.6z"/>
		<path fill="#F07837" d="M190.9,435.6c-21.3,25-65.8,29.5-100.5,22.6c-8.9-1.8-23.4-4.5-38.1-8.5l10.2-6.3c0,0-36.6-10-35.4-14.4
			c0.6-2.4,10.9-7.4,20.4-11.7c13.6,6.9,32.3,12.4,53.4,15c44.9,5.5,83.7-4.1,86.5-21.5c2.7-16.9-29.3-35-72.3-41.1
			c23-0.8,35.8,3.2,63.8,7C178.9,376.7,220.8,400.4,190.9,435.6z"/>
	</g>
	<path fill="#FF942A" d="M116,253.9c0,0-6,3.6-12.3,9.4c-6.1,5.5-12.5,13.1-14.6,21.5c-0.8,3.2-0.9,6.6-0.1,10
		c-0.6-0.3-13.2-6.3-16.1,10.9c-6.3-24,7.9-40,21.9-47.6C103.6,253.2,112.4,251.8,116,253.9z"/>
	<path fill="#F07837" d="M88.9,294.7c0,0-3-4.2-2.7-14.8c0,0,0.6,2.2,2.8,4.8C88.2,288,88,291.3,88.9,294.7z"/>
	<path fill="#F07837" d="M116,253.9c0,0-14.3,11-22.4,20.8c4.8-7.9,4.1-15.9,1.1-16.7C103.6,253.2,112.4,251.8,116,253.9z"/>
	<path fill="#FF942A" d="M219,289.4l-7.3-3.4l-27-12.5l-12.2-5.7l2-20l0.1-1.5c8.9,2.5,16.8,6.9,23.4,12
		C212.6,269.3,220.9,283.7,219,289.4z"/>
	<path fill="#F07837" d="M218,285l-6.2,1l-20.7,3.4l-6.3-15.9l-10.2-25.7l0.1-1.5c8.9,2.5,16.8,6.9,23.4,12c-1.2,1.6-2.2,3.2-2.2,4
		C195.9,264.7,213.1,270.9,218,285z"/>
	<path fill="#FF942A" d="M203.7,315.2c0,15-2,64.4-28.7,85.8c-5.9,4.8-13.1,8.2-21.7,9.4c-2.6,0.4-5.4,0.6-8.3,0.6
		c-3,0-5.9-0.2-8.6-0.7c-8.8-1.4-16.1-4.9-22.1-9.9c-26.2-21.7-28.2-70.5-28.2-85.3c0-15.5,9.8-43.2,21-63.9
		c3.8-6.9,7.7-13,11.5-17.6h52.6c4.7,5.6,9.5,13.6,14,22.5C195.4,276.2,203.7,300.9,203.7,315.2z"/>
	<path fill="#F07837" d="M185.3,256.2c-15.9,15.4-22.1,33.1-31.2,33.1c-8.8,0-31-28-46.9-38c3.8-6.9,7.7-13,11.5-17.6h52.6
		C175.9,239.3,180.8,247.3,185.3,256.2z"/>
	<path fill="#F07837" d="M203.7,315.2c0,15-2,64.4-28.7,85.8c-5.9,4.8-13.1,8.2-21.7,9.4c-2.6,0.4-5.4,0.6-8.3,0.6
		c-3,0-5.9-0.2-8.6-0.7c-8.8-1.4-16.1-4.9-22.1-9.9c-26.2-21.7-28.2-70.5-28.2-85.3c0-0.1,0-0.3,0-0.4c0.1,16,2.7,61.4,28.1,81.9
		c6,4.9,13.2,8.3,22.1,9.7c2.7,0.4,5.6,0.6,8.6,0.6c2.9,0,5.7-0.2,8.3-0.6c8.6-1.3,15.8-4.6,21.7-9.2c25.9-20.3,28.6-66.3,28.7-82.4
		C203.7,314.9,203.7,315,203.7,315.2z"/>
	<path fill="#FFECDB" d="M192.6,316.2c0,18-1,82.5-47.6,82.5c-46.7,0-47.2-64.6-47.2-82.5c0-21.6,5.9-44.3,13.6-62
		c3.6-8.1,7.5-15.2,11.5-20.5h44.3c4.9,6.5,9.7,16.1,13.9,27C187.7,278.2,192.6,299.1,192.6,316.2z"/>
	<path fill="#F2D0AD" d="M191.3,300c-2.7,14.6-11.4,33.3-38.9,36.1c1-2.9,1.4-6.9-2-10c-5.4-4.9-29.4,1-34.9,2.4
		c-10.8-7.6-15.1-19.3-16.7-29c-0.7,5.6-1.1,11.2-1.1,16.7c0,18,0.6,82.5,47.2,82.5c46.6,0,47.6-64.6,47.6-82.5
		C192.6,311.1,192.1,305.6,191.3,300z"/>
	<path fill="#F2D0AD" d="M181,260.7c-12.8,14.2-18.6,28.7-26.9,28.7c-8,0-27.3-23.4-42.8-35.1c3.6-8.1,7.5-15.2,11.5-20.5h44.3
		C172,240.2,176.8,249.8,181,260.7z"/>
	<path fill="#381706" d="M113.5,407l-9.1,12.8c0,0,5.5,28,20.1,41.3h14c0,0,1.8-6.7,0-10.9c-1.8-4.3-11.2,3.6-22.5-29.5l5.9-12.8
		L113.5,407z"/>
	<path fill="#381706" d="M174.3,407l9.1,12.8c0,0-5.5,28-20.1,41.3h-14c0,0-1.8-6.7,0-10.9c1.8-4.3,11.2,3.6,22.5-29.5l-5.9-12.8
		L174.3,407z"/>
	<path fill="#FF942A" d="M86.2,315.2c0,0-24.9,36.5-14.6,61.4c10.3,24.9,41.3,40.7,55.9,35.3C142.1,406.4,141.5,342.5,86.2,315.2z"
		/>
	<path fill="#FF942A" d="M203.5,315.2c0,0,24.9,36.5,14.6,61.4c-10.3,24.9-41.3,40.7-55.9,35.3C147.6,406.4,148.2,342.5,203.5,315.2
		z"/>
	<path fill="#F07837" d="M127.5,411.9c-14.6,5.5-45.6-10.3-55.9-35.3c-2.6-6.2-3-13-2.1-19.9c0.4,2.1,1.1,4.2,2.1,6.1
		c10.3,19.3,41.3,31.6,55.9,27.4c3.5-1,6.1-4.6,7.3-9.8C137.2,396.6,133.7,409.5,127.5,411.9z"/>
	<path fill="#F07837" d="M218.1,376.6c-10.3,24.9-41.4,40.7-55.9,35.3c-6.2-2.3-9.7-15.3-7.3-31.4c1.2,5.2,3.8,8.8,7.3,9.8
		c14.6,4.3,45.6-8,55.9-27.4c1-2,1.7-4,2.1-6.1C221.1,363.5,220.7,370.4,218.1,376.6z"/>
	<path fill="#381706" d="M151.7,326.7c0,14.9-65.5,15-77.1-15.2c-0.8-2-1.4-4-1.9-5.9c3-17.2,15.5-11.2,16.1-10.9
		c0.1,0.4,0.2,0.9,0.3,1.3C97.8,324.6,151.7,313.1,151.7,326.7z"/>
	<g>
		<g>
			<path fill="#FF942A" d="M132.1,105.7c-1.5,14.7-20.2,27.9-32.4,30c-24.5,4.2-47.9-0.3-56.7-11.4c-1-1.3-1.8-2.7-2.4-4.1
				c-1.9-4.6-2.8-10.2-2.8-16.5C37.2,66,64.4,4.2,73.1,2c8.8-2.2,40.1,19.5,54.1,53.3c2.7,6.6,4.7,13.6,5.9,21
				C134.4,85.6,134.3,95.4,132.1,105.7z"/>
			<path fill="#F07837" d="M80.3,21.9c-9.5,0.7-36.8,71.2-26.9,79.7c9.9,8.5,48.4-4.7,52.7-13.1C110.5,80,93,70.6,93,70.6l18.7,1.2
				L94.3,50.5l14.7,2.2C109,52.8,91.6,21.1,80.3,21.9z"/>
			<path fill="#F07837" d="M132.1,105.7c-1.5,14.7-20.2,27.9-32.4,30c-24.5,4.2-47.9-0.3-56.7-11.4c15.3-25.9,40.1-50.6,80.5-64.4
				c0,0,1.2-1.8,3.7-4.5c2.7,6.6,4.7,13.6,5.9,21C134.4,85.6,134.3,95.4,132.1,105.7z"/>
		</g>
		<g>
			<path fill="#FF942A" d="M162.1,103.8c1.5,14.7,20.2,27.9,32.4,30c24.5,4.2,47.9-0.3,56.7-11.4c1-1.3,1.8-2.7,2.4-4.1
				c1.9-4.6,2.8-10.2,2.8-16.5c0.5-37.5-26.7-99.4-35.4-101.5C212.3-2.1,181,19.7,167,53.5c-2.7,6.6-4.7,13.6-5.9,21
				C159.8,83.7,159.9,93.5,162.1,103.8z"/>
			<path fill="#F07837" d="M213.9,20c9.5,0.7,36.8,71.2,26.9,79.7c-9.9,8.5-48.4-4.7-52.7-13.1c-4.4-8.5,13.2-17.8,13.2-17.8
				L182.5,70l17.4-21.3l-14.7,2.2C185.2,50.9,202.6,19.2,213.9,20z"/>
			<path fill="#F07837" d="M162.1,103.8c1.5,14.7,20.2,27.9,32.4,30c24.5,4.2,47.9-0.3,56.7-11.4c-15.3-25.9-40.1-50.6-80.5-64.4
				c0,0-1.2-1.8-3.7-4.5c-2.7,6.6-4.7,13.6-5.9,21C159.8,83.7,159.9,93.5,162.1,103.8z"/>
		</g>
		<path fill="#FFECDB" d="M275.3,217.4c0,0-87.7,11.5-120,57.3c0,0-59-53.3-136.4-42.8c0,0,57.8-72,132-28.9
			C151,203.1,201.2,157.1,275.3,217.4z"/>
		<path fill="#FF942A" d="M275.3,217.4C201.2,157.1,151,203.1,151,203.1C76.7,160,18.9,232,18.9,232S12.2,110.6,123.4,72.9
			c0,0,8.7-12.5,27-23.1l-11.3,20.7c0.6-0.5,11-8.8,23.5-12.4l-3.4,13.8C159.2,71.8,253.2,76.8,275.3,217.4z"/>
		<path fill="#381706" d="M142.3,195.1l16.1-0.7c2.8-0.1,4.4,3.2,2.5,5.3l-7.7,8.4c-1.2,1.3-3.2,1.4-4.5,0.2l-8.4-7.7
			C138.2,198.7,139.5,195.2,142.3,195.1z"/>
		<path fill="#F07837" d="M196.8,180.2c-14.6,5.2-25,1.3-34.9-11.4c-6.5-33,2.6-69.5,12.8-71.9c26-6.2,58.2,37,57.1,60.6
			C231.5,166.7,223.7,170.5,196.8,180.2z"/>
		<g>
			<defs>
				<path id="SVGID_1_" d="M187.2,180.4c-8.4,2.2-17.1-2.6-19.1-10.7c-7.7-31,0.9-60,10.4-61.9c22-4.6,53.6,33.4,48.6,46.5
					C222.4,166.5,217.4,172.5,187.2,180.4z"/>
			</defs>
			<use xlink:href="#SVGID_1_"  overflow="visible" fill="#FFFFFF"/>
			<clipPath id="SVGID_2_">
				<use xlink:href="#SVGID_1_"  overflow="visible"/>
			</clipPath>
			<path clip-path="url(#SVGID_2_)" fill="#381706" d="M178.1,147.6c2,8.5,9.6,14.2,16.9,12.6c7.3-1.5,11.7-9.7,9.7-18.2
				c-2-8.5-9.6-14.2-16.9-12.6C180.5,130.9,176.1,139.1,178.1,147.6z"/>
		</g>
		<path fill="#F07837" d="M231.9,157.4c1.8,13.4-20,21.8-38.3,26.5c-13.1,3.4-26.8-3.2-31.7-15.2c1.8-1,3.6-2,5.3-2.9
			c25.9-13.2,49-11.4,59.1-9.7C230,156.8,231.9,157.4,231.9,157.4z"/>
		<g>
			<path fill="#381706" d="M166.7,167.2l-0.2-1.1c-5.9-28.7,1.8-57,11.9-59.1c12.4-2.6,27,7.8,36.4,18.3
				c8.3,9.3,15.6,21.9,13.2,29.3c-0.2,0.7-0.5,1.3-0.7,1.9l-0.3,0.7l-0.7-0.1c-11.1-1.9-33.4-3.2-58.6,9.6L166.7,167.2z
				 M182.4,108.3c-1.2,0-2.5,0.1-3.7,0.4c-8.3,1.7-16.3,27.3-10.8,55.9c24.7-12.2,46.6-11.2,57.9-9.4c0.1-0.4,0.3-0.8,0.4-1.2l0,0
				c1.9-5.7-3.4-17-12.8-27.6C205.3,117.3,193.2,108.3,182.4,108.3z"/>
		</g>
		
			<ellipse transform="matrix(-0.7071 -0.7071 0.7071 -0.7071 261.0914 267.9467)" fill="#381706" cx="186" cy="79.9" rx="12.7" ry="4.6"/>
		<path fill="#FFFFFF" d="M189.6,131.3c0.5,3.2,3,5.5,5.5,5.1c2.5-0.4,4.2-3.2,3.6-6.4c-0.5-3.2-3-5.5-5.5-5.1
			C190.7,125.3,189.1,128.1,189.6,131.3z"/>
		<path fill="#F07837" d="M101.4,180.7c14.5,5.4,25,1.6,35-11.1c6.8-33-2-69.5-12.1-72c-25.9-6.5-58.5,36.5-57.7,60
			C66.8,166.9,74.6,170.8,101.4,180.7z"/>
		<g>
			<defs>
				<path id="SVGID_3_" d="M111,181c8.4,2.3,17.1-2.5,19.2-10.5c8-30.9-0.4-60-9.7-62c-22-4.8-53.9,33-49,46
					C75.9,166.7,80.9,172.8,111,181z"/>
			</defs>
			<use xlink:href="#SVGID_3_"  overflow="visible" fill="#FFFFFF"/>
			<clipPath id="SVGID_4_">
				<use xlink:href="#SVGID_3_"  overflow="visible"/>
			</clipPath>
			<path clip-path="url(#SVGID_4_)" fill="#381706" d="M120.4,148.3c-2.1,8.5-9.7,14.1-17,12.5c-7.3-1.6-11.6-9.8-9.5-18.3
				c2.1-8.5,9.7-14.1,17-12.5C118.3,131.6,122.5,139.8,120.4,148.3z"/>
		</g>
		<path fill="#F07837" d="M66.5,157.6c-2,13.3,19.8,22,38,26.9c13.1,3.5,26.8-2.9,31.8-14.9c-1.8-1.1-3.5-2-5.3-3
			c-25.8-13.4-48.9-11.9-59-10.2C68.5,157,66.5,157.6,66.5,157.6z"/>
		<g>
			<path fill="#381706" d="M131.7,167.9l-1-0.5c-25.1-13.1-47.4-11.9-58.5-10.1l-0.7,0.1l-0.3-0.7c-0.2-0.7-0.5-1.3-0.7-2
				c-2.3-7.4,5.1-20,13.5-29.2c9.6-10.5,24.2-20.7,36.6-18c10.1,2.2,17.5,30.5,11.3,59.2L131.7,167.9z M86,154.4
				c11.8,0,27.5,2.3,44.5,10.9c5.8-28.5-1.9-54.2-10.2-56c-11.7-2.5-25.7,7.4-34.9,17.5c-9.5,10.4-14.9,21.7-13.1,27.4l0,0
				c0.1,0.4,0.3,0.8,0.4,1.2C76.1,154.9,80.7,154.4,86,154.4z"/>
		</g>
		<path fill="#FFFFFF" d="M109.1,131.9c-0.5,3.2-3,5.4-5.6,5.1c-2.5-0.4-4.1-3.3-3.6-6.5c0.5-3.2,3-5.4,5.6-5.1
			C108.1,125.8,109.7,128.7,109.1,131.9z"/>
		
			<ellipse transform="matrix(0.7071 -0.7071 0.7071 0.7071 -24.0982 101.621)" fill="#381706" cx="110.6" cy="79.9" rx="12.7" ry="4.6"/>
		<g>
			<path fill="#381706" d="M161.8,229.7c-10.4-5.5-20.7-0.1-20.8,0l-1.7-3.2c0.5-0.3,12.1-6.5,24.2,0L161.8,229.7z"/>
		</g>
		<path fill="#F2D0AD" d="M133.9,206.6c0,0,10.5,16.4,0,36.7C133.9,243.3,154.1,227.1,133.9,206.6z"/>
		<path fill="#F2D0AD" d="M169.6,206.6c0,0-10.5,16.4,0,36.7C169.6,243.3,149.4,227.1,169.6,206.6z"/>
	</g>
	<path fill="#FF942A" d="M217.2,293.5c-2.7,2.7-10,3.6-19.4,0.6c11.3-7,8.1-17.1,5.5-22C216.2,278.4,222.4,288.3,217.2,293.5z"/>
	<path fill="#381706" d="M197.9,294.1c-9.5-3-21.1-9.8-31.9-22.6c-24-28.3-24.9-47-17.4-49.2c10.2-3.1,17.4,33.3,52.7,48.8
		c0.7,0.3,1.5,0.7,2.2,1C205.9,277,209.1,287.1,197.9,294.1z"/>
</g>
</svg>
