<?xml version="1.0" encoding="utf-8"?>
<!-- Generator: Adobe Illustrator 17.1.0, SVG Export Plug-In . SVG Version: 6.00 Build 0)  -->
<!DOCTYPE svg PUBLIC "-//W3C//DTD SVG 1.1//EN" "http://www.w3.org/Graphics/SVG/1.1/DTD/svg11.dtd">
<svg version="1.1" id="Layer_1" xmlns="http://www.w3.org/2000/svg" xmlns:xlink="http://www.w3.org/1999/xlink" x="0px" y="0px"
	 width="356px" height="416.7px" viewBox="0 0 356 416.7" enable-background="new 0 0 356 416.7" xml:space="preserve">
<g>
	<g>
		<g>
			<g>
				<path fill="#133441" d="M301.6,319.2c0,0-0.1,0-0.1,0c-10.8-0.1-20.2-9.5-28-27.9c-1-2.3,0.1-4.9,2.4-5.9c2.3-1,4.9,0.1,5.9,2.4
					c4.3,10.2,11.2,22.4,19.8,22.4c0,0,0,0,0.1,0c11.9,0,24.4-22.3,27.8-30.2c1-2.3,3.6-3.3,5.9-2.3c2.3,1,3.3,3.6,2.3,5.9
					C336,287.3,321.4,319.2,301.6,319.2z"/>
			</g>
		</g>
		<path fill="#133441" d="M325.4,264.8c1.1-2.2,3.8-3,6-1.9c2.2,1.1,3,3.8,1.9,6c0,0-1.3,2.7,2.3,6c2.3,0.3,8.2,0.6,13.9-2.3
			c2.2-1.1,4.9-0.3,6,1.9c1.1,2.2,0.3,4.9-1.9,6c-0.4,0.2-0.8,0.4-1.3,0.6c2.2,0.5,3.8,2.5,3.5,4.8c-0.2,2.3-2.2,4-4.4,4
			c-0.1,0-0.3,0-0.4,0c-1.5-0.1-3.1-0.4-4.6-0.8c1.3,0.8,2.1,1.2,2.2,1.2c2.3,0.8,3.5,3.4,2.7,5.7c-0.6,1.8-2.4,3-4.2,3
			c-0.5,0-1-0.1-1.5-0.3c-0.4-0.2-10.7-3.9-15.7-17C322.7,275.4,323.7,267.9,325.4,264.8z"/>
		<path fill="#133441" d="M30.6,264.8c-1.1-2.2-3.8-3-6-1.9c-2.2,1.1-3,3.8-1.9,6c0,0,1.3,2.7-2.3,6c-2.3,0.3-8.2,0.6-13.9-2.3
			c-2.2-1.1-4.9-0.3-6,1.9c-1.1,2.2-0.3,4.9,1.9,6c0.4,0.2,0.8,0.4,1.3,0.6c-2.2,0.5-3.8,2.5-3.5,4.8c0.2,2.3,2.2,4,4.4,4
			c0.1,0,0.3,0,0.4,0c1.5-0.1,3.1-0.4,4.6-0.8c-1.3,0.8-2.1,1.2-2.2,1.2c-2.3,0.8-3.5,3.4-2.7,5.7c0.6,1.8,2.4,3,4.2,3
			c0.5,0,1-0.1,1.5-0.3c0.4-0.2,10.7-3.9,15.7-17C33.3,275.4,32.3,267.9,30.6,264.8z"/>
	</g>
	<g>
		<g>
			<g>
				<path fill="#133441" d="M55.4,319.2c-19.8,0-34.4-31.9-36-35.5c-1-2.3,0-4.9,2.3-5.9c2.3-1,4.9,0,5.9,2.3
					c3.5,7.8,16,30.2,27.8,30.2c0,0,0,0,0.1,0c8.5-0.1,15.5-12.2,19.8-22.4c1-2.3,3.6-3.3,5.9-2.4c2.3,1,3.3,3.6,2.4,5.9
					c-7.8,18.4-17.2,27.8-28,27.9C55.5,319.2,55.4,319.2,55.4,319.2z"/>
			</g>
		</g>
	</g>
	<g>
		<g>
			<path fill="#133441" d="M221.4,416.7c-0.1,0-0.2,0-0.3,0c-7.6-0.5-11.5-3.4-11.9-3.7c-1.1-0.9-1.8-2.3-1.7-3.7l2.4-52.6
				c0.1-2.5,2.2-4.4,4.7-4.3c2.5,0.1,4.4,2.2,4.3,4.7l-2.2,49.7c1.1,0.4,2.8,0.8,5.1,1c2.5,0.2,4.3,2.3,4.2,4.8
				C225.7,414.9,223.7,416.7,221.4,416.7z"/>
		</g>
	</g>
	<g>
		<g>
			<path fill="#133441" d="M132.6,416.7c-2.3,0-4.3-1.8-4.5-4.2c-0.2-2.5,1.7-4.6,4.2-4.8c2.3-0.2,4-0.6,5.1-1l-2.2-49.7
				c-0.1-2.5,1.8-4.6,4.3-4.7c2.4-0.1,4.6,1.8,4.7,4.3l2.4,52.6c0.1,1.4-0.6,2.8-1.7,3.7c-0.4,0.3-4.3,3.2-11.9,3.7
				C132.8,416.7,132.7,416.7,132.6,416.7z"/>
		</g>
	</g>
	<g>
		<g>
			<g>
				<path fill="#F7B11E" d="M299.1,244.8c0,66.7-54.1,120.7-120.7,120.7S57.6,311.5,57.6,244.8C57.6,139.4,178.3,0,178.3,0
					S299.1,139.4,299.1,244.8z"/>
			</g>
		</g>
		<ellipse fill="#F2D487" cx="179.3" cy="292" rx="86.2" ry="66.2"/>
		<g>
			<g>
				<g>
					<path fill="#FFFFFF" d="M168.8,41c-0.1-1-1.4-1.7-2.3-1.4c-5.6,1.5-9.3,9-12.4,13.5c-4.2,6-8.2,12-12,18.3
						c-3.8,6.2-7.5,12.5-11,18.9c-2.9,5.4-8.9,13.1-8.4,19.4c0.3,3,3.3,5.9,6.4,4c5.7-3.5,8.1-11.8,11.2-17.6
						c3.5-6.4,6.9-12.9,10.5-19.2c3.6-6.3,7.2-12.7,10.8-19C164.4,52.8,169.5,46.8,168.8,41z"/>
				</g>
			</g>
			<g>
				<g>
					<path fill="#FFFFFF" d="M119.2,122c-3.1-0.9-5.7,0.9-6.9,3.6c-0.7,1.5-1.3,3.1-2,4.6c-1.1,1.9-2,4-2.6,6.2
						c-0.8,2.8,0.7,5.8,3.5,6.7c3.1,0.9,5.5-0.9,6.7-3.5c1.6-3.6,3.3-7.2,4.9-10.8C124.1,126.2,121.8,122.8,119.2,122z"/>
				</g>
			</g>
		</g>
	</g>
	<g>
		<g>
			<g>
				<g>
					<g>
						<g>
							<g>
								<g>
									<g>
										<path fill="#FFFFFF" d="M79.6,256.6c0.8,17.9,15.9,31.8,33.9,31c17.9-0.8,31.8-15.9,31.1-33.8
											c-0.8-17.9-15.9-31.8-33.9-31C92.7,223.6,78.8,238.7,79.6,256.6z"/>
									</g>
								</g>
							</g>
						</g>
					</g>
				</g>
				<g>
					<g>
						<g>
							<path fill="#133441" d="M134.4,254.3c-0.5-12.3-11-21.9-23.3-21.4c-12.4,0.5-21.9,11-21.4,23.3c0.5,12.3,11,21.9,23.3,21.4
								C125.4,277,134.9,266.6,134.4,254.3z M109.3,252.9c-3.5,3.9-8.9,4.8-12.2,1.9c-3.3-2.9-3.1-8.4,0.4-12.3
								c3.5-3.9,8.9-4.8,12.2-1.9C112.9,243.5,112.8,249,109.3,252.9z M126.5,267.8c-2,2.3-5.2,2.8-7,1.1c-1.9-1.7-1.8-4.8,0.2-7.1
								c2-2.3,5.2-2.8,7-1.1C128.6,262.3,128.5,265.5,126.5,267.8z"/>
						</g>
					</g>
				</g>
				<g>
					<g>
						<g>
							<path fill="#FFFFFF" d="M219.4,256.6c0.8,17.9,15.9,31.8,33.9,31c17.9-0.8,31.8-15.9,31.1-33.8c-0.8-17.9-15.9-31.8-33.9-31
								S218.6,238.7,219.4,256.6z"/>
						</g>
					</g>
				</g>
				<g>
					<g>
						<g>
							<path fill="#133441" d="M274.1,254.3c-0.5-12.3-11-21.9-23.3-21.4c-12.3,0.5-21.9,11-21.4,23.3c0.5,12.3,11,21.9,23.3,21.4
								C265.1,277,274.7,266.6,274.1,254.3z M249.4,251.6c-3.9,3.5-9.4,3.6-12.3,0.4c-2.9-3.3-2-8.7,1.9-12.2
								c3.9-3.5,9.4-3.6,12.3-0.4C254.1,242.7,253.3,248.2,249.4,251.6z M267.8,267c-2,2.3-5.2,2.8-7,1.1c-1.9-1.7-1.8-4.8,0.2-7.1
								c2-2.3,5.2-2.8,7-1.1C269.9,261.5,269.8,264.7,267.8,267z"/>
						</g>
					</g>
				</g>
			</g>
			<g>
				<g>
					<g>
						<path fill="#133441" d="M228.7,199.7c0.7,5.7,11.2,6.4,22.4,4.8c10-1.5,19.9-2,20.3-9.6C272.2,179.1,226.5,182.5,228.7,199.7z
							"/>
					</g>
				</g>
				<g>
					<g>
						<path fill="#133441" d="M92.5,194.8c0.4,7.6,10.3,8.2,20.3,9.6c11.2,1.6,21.7,0.9,22.4-4.8C137.3,182.5,91.7,179.1,92.5,194.8
							z"/>
					</g>
				</g>
			</g>
			<g>
				<g>
					<g>
						<ellipse fill="#FFE980" cx="272.6" cy="296.2" rx="14.1" ry="7.5"/>
					</g>
				</g>
				<g>
					<g>
						<ellipse fill="#FFE980" cx="88.5" cy="296.2" rx="14.1" ry="7.5"/>
					</g>
				</g>
			</g>
		</g>
		<g>
			<g>
				<g>
					<path fill="#AB1700" d="M204.4,274.8c6.2,7.5,0.2,21.4-20.1,21.4c-20.3,0-25.3-15-20.1-21.4c3-3.6,9.8-1.8,20.1-1.8
						C194.5,273,201.3,271.1,204.4,274.8z"/>
				</g>
			</g>
			<g>
				<g>
					<path fill="#FFFFFF" d="M201.5,276.1c0,1.7-7.5,3.1-16.7,3.1c-9.2,0-16.7-1.4-16.7-3.1c0-1.7,7.5-1.3,16.7-1.3
						C194,274.8,201.5,274.4,201.5,276.1z"/>
				</g>
			</g>
			<g>
				<g>
					<path fill="#FD6C6C" d="M170.5,290.5c3.1,2,7.7,3.3,13.9,3.3c6.9,0,11.9-1.6,15.2-3.8C187.7,278.7,176.6,284.9,170.5,290.5z"/>
				</g>
			</g>
		</g>
	</g>
</g>
</svg>
