<?xml version="1.0" encoding="utf-8"?>
<!-- Generator: Adobe Illustrator 17.1.0, SVG Export Plug-In . SVG Version: 6.00 Build 0)  -->
<!DOCTYPE svg PUBLIC "-//W3C//DTD SVG 1.1//EN" "http://www.w3.org/Graphics/SVG/1.1/DTD/svg11.dtd">
<svg version="1.1" id="Layer_1" xmlns="http://www.w3.org/2000/svg" xmlns:xlink="http://www.w3.org/1999/xlink" x="0px" y="0px"
	 width="360.8px" height="404.8px" viewBox="0 0 360.8 404.8" enable-background="new 0 0 360.8 404.8" xml:space="preserve">
<g>
	<g>
		<g>
			<path fill="#133441" d="M310,356.7c-3.7,0-5.9-0.8-6.3-1c-1.2-0.5-2.1-1.4-2.5-2.6c-0.4-1.2-0.4-2.5,0.2-3.6
				c0.1-0.1,5.6-11.6,1-20.8c-3-6-9.8-9.9-20.3-11.8c-2.4-0.4-4-2.8-3.6-5.2c0.4-2.4,2.8-4,5.2-3.6c13.4,2.4,22.4,8,26.7,16.7
				c4.1,8.2,2.8,17.1,1.2,22.8c0.8-0.1,1.7-0.2,2.7-0.4c2.4-0.5,4.8,1,5.3,3.4c0.5,2.4-1,4.8-3.4,5.3
				C313.8,356.5,311.7,356.7,310,356.7z"/>
		</g>
	</g>
	<g>
		<g>
			<path fill="#133441" d="M169.1,404.8c-2.3,0-4.3-1.8-4.5-4.2c-0.2-2.5,1.7-4.6,4.2-4.8c0.6,0,1.3-0.1,1.8-0.2
				c-3.6-4.5-7.8-11.5-8.4-20c-0.6-8.8,2.7-17.2,9.9-25.1c1.7-1.8,4.5-2,6.3-0.3c1.8,1.7,2,4.5,0.3,6.3c-5.4,6-8,12.2-7.6,18.4
				c0.7,11,10.1,19,10.2,19.1c1,0.9,1.6,2.2,1.6,3.5c0,1.3-0.6,2.6-1.7,3.4c-0.4,0.3-4.3,3.2-11.9,3.7
				C169.3,404.8,169.2,404.8,169.1,404.8z"/>
		</g>
	</g>
	<g>
		<g>
			<g>
				<path fill="#133441" d="M299.8,232.5c-2.4,0-4.4-1.9-4.5-4.3c-0.1-2.5,1.8-4.5,4.3-4.6c29.7-1.2,47.5-7.5,51.4-18.3
					c5-13.5-12.2-33.3-19.2-39.8c-1.8-1.7-1.9-4.5-0.3-6.3c1.7-1.8,4.5-1.9,6.3-0.3c1.2,1.1,29.6,27.6,21.6,49.5
					c-5.5,14.8-24.9,22.7-59.4,24.1C299.9,232.5,299.9,232.5,299.8,232.5z"/>
			</g>
		</g>
		<g>
			<g>
				<g>
					<path fill="#133441" d="M322.9,175c-1.9,0-3.6-0.3-4.9-0.7c-2.4-0.7-3.7-3.2-3-5.6c0.7-2.4,3.2-3.7,5.5-3
						c1.7,0.5,7.3,1.5,9.9-5.4c0.5-1.4,1.8-2.5,3.3-2.8c4.8-1,8.2-2.8,10-5.5c1.9-2.9,1.4-6,1.4-6c-0.5-2.4,1.1-4.8,3.5-5.3
						c2.4-0.5,4.8,1.1,5.3,3.5c0.1,0.7,1.2,6.8-2.7,12.7c-2.8,4.2-7.3,7.2-13.4,8.8C334.2,173,327.9,175,322.9,175z"/>
				</g>
			</g>
			<g>
				<g>
					<path fill="#133441" d="M335.2,166.4c-0.3,0-0.6,0-0.9-0.1c-5.8-0.7-11.2-8.2-13.2-11.4c-1.3-2.1-0.7-4.8,1.4-6.2
						c2.1-1.3,4.8-0.7,6.2,1.4c1.8,2.8,4.3,5.7,5.9,6.9c2.2-4.7-1.7-8.5-2.6-9.2c-1.8-1.6-2.1-4.4-0.5-6.3c1.6-1.9,4.4-2.1,6.3-0.5
						c4.2,3.6,10.3,13,3.1,22.8c-0.2,0.2-0.3,0.4-0.5,0.6C338.9,165.7,337.1,166.4,335.2,166.4z"/>
				</g>
			</g>
		</g>
	</g>
	<g>
		<g>
			<g>
				<path fill="#133441" d="M65,306.2c-7.6,0-14.4-1.8-20.3-5.3C21.4,287,21.5,251,21.5,249.5c0-2.5,2-4.4,4.5-4.4c0,0,0,0,0.1,0
					c2.5,0,4.4,2.1,4.4,4.5c0,0.3-0.1,32.4,18.8,43.7c12.4,7.4,30.8,4.6,54.6-8.6c2.2-1.2,4.9-0.4,6.1,1.8c1.2,2.2,0.4,4.9-1.8,6.1
					C91.7,301.7,77.2,306.2,65,306.2z"/>
			</g>
		</g>
		<g>
			<g>
				<g>
					<path fill="#133441" d="M33.9,256.7c-2.7,0-5.6-0.7-8.6-2.5c-6,1.9-11.4,1.8-16-0.3c-6.5-2.9-8.8-8.7-9.1-9.3
						c-0.9-2.3,0.3-4.9,2.6-5.8c2.3-0.9,4.9,0.3,5.8,2.6c0.6,1.3,4,8.1,15.8,3.6c1.4-0.5,3-0.3,4.3,0.6c5.9,4.4,10.1,0.5,11.3-0.8
						c1.6-1.8,4.5-2,6.3-0.4c1.8,1.6,2,4.4,0.4,6.3C44.4,253.4,39.7,256.7,33.9,256.7z"/>
				</g>
			</g>
			<g>
				<g>
					<path fill="#133441" d="M24,254.4c-0.5,0-1-0.1-1.5-0.2c-0.3-0.1-0.5-0.1-0.7-0.2c-11.4-4.4-11.3-15.6-9.6-20.9
						c0.7-2.4,3.2-3.7,5.6-2.9c2.4,0.7,3.7,3.2,2.9,5.6c-0.3,1.1-1.6,6.4,2.8,9.2c0.7-1.8,1.3-5.6,1.3-9c0-2.5,2-4.5,4.5-4.5
						c0,0,0,0,0,0c2.5,0,4.5,2,4.5,4.5c0,3.8-0.5,13-5,16.7C27.3,253.9,25.7,254.4,24,254.4z"/>
				</g>
			</g>
		</g>
	</g>
	<g>
		<g>
			<g>
				<path fill="#F7B11E" d="M311.6,205.2c17.3,64.4-21,130.6-85.4,147.9c-64.4,17.3-130.6-21-147.9-85.4C51,165.9,131.6,0,131.6,0
					S284.3,103.4,311.6,205.2z"/>
			</g>
		</g>
		<path fill="#F2D487" d="M290.1,246.5c13.3,34-11.9,75.7-56.2,93c-44.3,17.3-91.1,3.8-104.4-30.3c-13.3-34,11.9-75.7,56.2-93
			C230.1,198.9,276.8,212.5,290.1,246.5z"/>
		<g>
			<g>
				<g>
					<path fill="#FFFFFF" d="M133,42c-0.4-1-1.8-1.2-2.6-0.8c-5,2.9-6.7,11.1-8.5,16.2c-2.5,6.9-4.8,13.8-6.9,20.8
						c-2,7-4,14-5.7,21.1c-1.4,6-5.2,14.9-3.1,20.9c1,2.9,4.7,4.8,7.2,2.2c4.6-4.8,4.8-13.5,6.2-19.9c1.7-7.1,3.3-14.2,5.1-21.3
						c1.8-7.1,3.7-14.1,5.5-21.2C131.7,54.6,135.2,47.5,133,42z"/>
				</g>
			</g>
			<g>
				<g>
					<path fill="#FFFFFF" d="M106,133.1c-3.2-0.1-5.3,2.3-5.7,5.3c-0.2,1.7-0.5,3.3-0.7,5c-0.6,2.2-0.9,4.4-0.9,6.7
						c-0.1,2.9,2.2,5.4,5.1,5.5c3.2,0.1,5.1-2.3,5.5-5.1c0.6-3.9,1.3-7.8,1.9-11.7C111.8,135.9,108.7,133.2,106,133.1z"/>
				</g>
			</g>
		</g>
	</g>
	<g>
		<g>
			<g>
				<g>
					<g>
						<g>
							<g>
								<g>
									<g>
										<path fill="#FFFFFF" d="M101.2,274.2c5.4,17.1,23.6,26.6,40.7,21.2c17.1-5.4,26.6-23.6,21.2-40.7
											c-5.4-17.1-23.6-26.6-40.7-21.2C105.3,238.9,95.8,257.2,101.2,274.2z"/>
									</g>
								</g>
							</g>
						</g>
					</g>
				</g>
				<g>
					<g>
						<g>
							<path fill="#133441" d="M153.5,257.8c-3.7-11.8-16.3-18.3-28.1-14.6c-11.8,3.7-18.3,16.3-14.6,28
								c3.7,11.8,16.3,18.3,28.1,14.6C150.6,282.1,157.2,269.5,153.5,257.8z M128.9,263c-2.3,4.7-7.4,6.9-11.3,5
								c-3.9-1.9-5.2-7.3-2.8-12c2.3-4.7,7.4-6.9,11.3-5C129.9,252.9,131.2,258.3,128.9,263z M149.4,272.9c-1.3,2.7-4.3,4-6.5,2.9
								c-2.3-1.1-3-4.2-1.6-6.9s4.3-4,6.5-2.9C150,267.1,150.7,270.2,149.4,272.9z"/>
						</g>
					</g>
				</g>
				<g>
					<g>
						<g>
							<path fill="#FFFFFF" d="M236.2,238.1c5.4,17.1,23.6,26.6,40.7,21.2c17.1-5.4,26.6-23.6,21.2-40.7s-23.6-26.6-40.7-21.2
								C240.3,202.8,230.8,221,236.2,238.1z"/>
						</g>
					</g>
				</g>
				<g>
					<g>
						<g>
							<path fill="#133441" d="M288.5,221.6c-3.7-11.8-16.3-18.3-28.1-14.6c-11.8,3.7-18.3,16.3-14.6,28
								c3.7,11.8,16.3,18.3,28.1,14.6C285.6,245.9,292.2,233.4,288.5,221.6z M263.8,225.5c-2.9,4.4-8.2,6-11.8,3.6
								c-3.6-2.4-4.2-7.9-1.3-12.2c2.9-4.4,8.2-6,11.8-3.6C266.2,215.6,266.7,221.1,263.8,225.5z M285.6,235.5
								c-1.3,2.7-4.3,4-6.5,2.9c-2.3-1.1-3-4.2-1.6-6.9c1.3-2.7,4.3-4,6.5-2.9C286.2,229.7,287,232.8,285.6,235.5z"/>
						</g>
					</g>
				</g>
			</g>
			<g>
				<g>
					<g>
						<path fill="#133441" d="M239.8,173.7c0.2,5.7,10.6,7.4,21.9,6.7c10.1-0.6,20-0.3,21-7.8C284.9,157,239.2,156.5,239.8,173.7z"
							/>
					</g>
				</g>
				<g>
					<g>
						<path fill="#133441" d="M90.8,224c4.7,6,13.1,0.8,22.1-3.7c10.1-5.1,18.3-11.7,15.6-16.7C120.4,188.3,81.1,211.6,90.8,224z"/>
					</g>
				</g>
			</g>
			<g>
				<g>
					<g>
						
							<ellipse transform="matrix(0.9659 -0.2588 0.2588 0.9659 -57.6486 85.9773)" fill="#FFE980" cx="297.7" cy="261.9" rx="14.1" ry="7.5"/>
					</g>
				</g>
				<g>
					<g>
						
							<ellipse transform="matrix(0.9659 -0.2588 0.2588 0.9659 -76.0472 41.5591)" fill="#FFE980" cx="119.8" cy="309.6" rx="14.1" ry="7.5"/>
					</g>
				</g>
			</g>
		</g>
		<g>
			<g>
				<g>
					<g>
						<path fill="#133441" d="M231.9,262c8.9,3.7,4.5,16.1-19.7,22.6c-24.3,6.5-33.3-3.3-28.4-9.7c2.8-3.7,12.7,0.4,25-2.9
							C221.1,268.6,227.5,260.1,231.9,262z"/>
					</g>
				</g>
			</g>
			<g>
				<g>
					<path fill="#133441" d="M235.4,264.4c0,0,4.6,12.8,2.9,14.8c-1.7,2-4.6-6.3-5.2-5.9c-0.6,0.4,5.4,12.2,2.1,13.7
						c-3.3,1.6-8.6-16.2-8.6-16.2L235.4,264.4z"/>
				</g>
			</g>
		</g>
	</g>
</g>
</svg>
