<?xml version="1.0" encoding="utf-8"?>
<!-- Generator: Adobe Illustrator 17.1.0, SVG Export Plug-In . SVG Version: 6.00 Build 0)  -->
<!DOCTYPE svg PUBLIC "-//W3C//DTD SVG 1.1//EN" "http://www.w3.org/Graphics/SVG/1.1/DTD/svg11.dtd">
<svg version="1.1" id="Layer_1" xmlns="http://www.w3.org/2000/svg" xmlns:xlink="http://www.w3.org/1999/xlink" x="0px" y="0px"
	 width="400.7px" height="417px" viewBox="0 0 400.7 417" enable-background="new 0 0 400.7 417" xml:space="preserve">
<g>
	<g>
		<g>
			<g>
				<path fill="#133441" d="M298.6,283.2c-1.5,0-3-0.8-3.8-2.1c-1.3-2.1-0.6-4.9,1.5-6.1c37.9-23.3,77.8-36.2,79.5-36.8
					c2.3-0.8,4.9,0.5,5.6,2.9c0.8,2.4-0.5,4.9-2.9,5.6c-0.4,0.1-40.6,13.2-77.5,35.9C300.2,283,299.4,283.2,298.6,283.2z"/>
			</g>
		</g>
		<g>
			<g>
				<g>
					<path fill="#133441" d="M394.9,257.4c-0.4,0-0.8,0-1.1-0.1c-0.6-0.1-13.7-3.6-19.6-13.4c-6.8-11.2-4-21.4-3.9-21.9
						c0.7-2.4,3.1-3.8,5.5-3.1c2.4,0.7,3.7,3.1,3.1,5.5c-0.1,0.4-1.8,7.1,2.9,14.8c4,6.6,14.1,9.3,14.2,9.4c2.4,0.6,3.8,3.1,3.2,5.5
						C398.7,256,396.9,257.4,394.9,257.4z"/>
				</g>
			</g>
			<g>
				<g>
					<path fill="#133441" d="M381.5,247.5c-3.3,0-6.1-1.1-7.5-3.9c-3.5-6.9,5.8-14.1,14.1-18.9c2.1-1.2,4.9-0.5,6.1,1.6
						c1.2,2.1,0.5,4.9-1.6,6.1l0,0c-2.9,1.7-5.9,3.8-7.9,5.6c2.7-0.7,6.4-2,9.6-3.6c2.2-1.1,4.9-0.1,6,2.1c1.1,2.2,0.1,4.9-2.1,6
						C392.8,245.1,386.4,247.5,381.5,247.5z"/>
				</g>
			</g>
		</g>
	</g>
	<g>
		<g>
			<g>
				<path fill="#133441" d="M106,284.7c-0.7,0-1.4-0.2-2.1-0.5C68,265,22.4,246.7,22,246.5c-2.3-0.9-3.4-3.5-2.5-5.8
					c0.9-2.3,3.5-3.4,5.8-2.5c0.5,0.2,46.4,18.7,82.8,38c2.2,1.2,3,3.9,1.8,6C109.1,283.8,107.6,284.7,106,284.7z"/>
			</g>
		</g>
		<g>
			<g>
				<g>
					<path fill="#133441" d="M5.8,257.4c-2,0-3.8-1.3-4.3-3.3c-0.6-2.4,0.8-4.8,3.2-5.5c0.1,0,10.2-2.8,14.2-9.4
						c4.7-7.7,3-14.5,2.9-14.8c-0.6-2.4,0.8-4.8,3.1-5.5c2.4-0.7,4.8,0.7,5.5,3.1c0.1,0.4,2.9,10.7-3.9,21.9
						c-5.9,9.7-19,13.2-19.6,13.4C6.6,257.3,6.2,257.4,5.8,257.4z"/>
				</g>
			</g>
			<g>
				<g>
					<path fill="#133441" d="M19.3,247.5c-5,0-11.3-2.4-16.7-5c-2.2-1.1-3.2-3.7-2.1-6c1.1-2.2,3.7-3.2,6-2.1
						c3.2,1.6,6.9,2.9,9.6,3.6c-2-1.8-5-3.9-7.9-5.6c-2.1-1.2-2.9-4-1.6-6.1c1.2-2.1,4-2.9,6.1-1.6c8.4,4.8,17.6,12,14.1,18.9
						C25.3,246.4,22.6,247.5,19.3,247.5z M18.6,240.9L18.6,240.9L18.6,240.9z"/>
				</g>
			</g>
		</g>
	</g>
	<g>
		<g>
			<path fill="#133441" d="M240.9,417c-0.1,0-0.2,0-0.3,0c-7.6-0.5-11.5-3.4-11.9-3.7c-1.1-0.9-1.8-2.3-1.7-3.7l2.4-52.6
				c0.1-2.5,2.3-4.4,4.7-4.3c2.5,0.1,4.4,2.2,4.3,4.7L236,407c1.1,0.4,2.8,0.8,5.1,1c2.5,0.2,4.3,2.3,4.2,4.8
				C245.2,415.1,243.2,417,240.9,417z"/>
		</g>
	</g>
	<g>
		<g>
			<path fill="#133441" d="M152.1,417c-2.3,0-4.3-1.8-4.5-4.2c-0.2-2.5,1.7-4.6,4.2-4.8c2.3-0.2,4-0.6,5.1-1l-2.2-49.7
				c-0.1-2.5,1.8-4.6,4.3-4.7c2.4-0.1,4.6,1.8,4.7,4.3l2.4,52.6c0.1,1.4-0.6,2.8-1.7,3.7c-0.4,0.3-4.3,3.2-11.9,3.7
				C152.3,416.9,152.2,417,152.1,417z"/>
		</g>
	</g>
	<g>
		<g>
			<g>
				<path fill="#F7B11E" d="M317.4,244.8c0,66.7-54.1,120.7-120.7,120.7C130,365.6,76,311.5,76,244.8C76,139.4,196.7,0,196.7,0
					S317.4,139.4,317.4,244.8z"/>
			</g>
		</g>
		<ellipse fill="#F2D487" cx="198.9" cy="292.2" rx="86.2" ry="66.2"/>
		<g>
			<g>
				<g>
					<path fill="#FFFFFF" d="M187.2,41c-0.1-1-1.4-1.7-2.3-1.4c-5.6,1.5-9.3,9-12.4,13.5c-4.2,6-8.2,12-12,18.3
						c-3.8,6.2-7.5,12.5-11,18.9c-2.9,5.4-8.9,13.1-8.4,19.4c0.3,3,3.3,5.9,6.4,4c5.7-3.5,8.1-11.8,11.2-17.6
						c3.5-6.4,6.9-12.9,10.5-19.2c3.6-6.3,7.2-12.7,10.8-19C182.7,52.8,187.9,46.8,187.2,41z"/>
				</g>
			</g>
			<g>
				<g>
					<path fill="#FFFFFF" d="M137.6,122c-3.1-0.9-5.7,0.9-6.9,3.6c-0.7,1.5-1.3,3.1-2,4.6c-1.1,1.9-2,4-2.6,6.2
						c-0.8,2.8,0.7,5.8,3.5,6.7c3.1,0.9,5.5-0.9,6.7-3.5c1.6-3.6,3.3-7.2,4.9-10.8C142.5,126.2,140.2,122.8,137.6,122z"/>
				</g>
			</g>
		</g>
	</g>
	<g>
		<g>
			<path fill="#FE5485" d="M378.4,137.4c-7.9,0.2-11.7,3.8-11.7,3.8s-0.8-5.2-6.9-10.1c-7.7-6.3-17.1-3.3-19.9,4.9
				c-4.8,14.2,16.3,36.1,16.3,36.1s30.2-4.5,35-18.7C393.9,145.3,388.3,137.1,378.4,137.4z"/>
		</g>
	</g>
	<g>
		<g>
			<path fill="#FE5485" d="M336.3,85.2c-4.1,2.9-4.9,6.2-4.9,6.2s-2.3-2.5-7.4-2.9c-6.4-0.6-10.3,4.4-8.9,9.8
				c2.5,9.3,21.7,13.5,21.7,13.5s14.5-13.3,12-22.6C347.4,83.8,341.5,81.5,336.3,85.2z"/>
		</g>
	</g>
	<g>
		<g>
			<g>
				<g>
					<g>
						<g>
							<g>
								<g>
									<g>
										<path fill="#FFFFFF" d="M96,256.9c0.8,17.9,15.9,31.8,33.9,31c17.9-0.8,31.8-15.9,31.1-33.8c-0.8-17.9-15.9-31.8-33.9-31
											C109.1,223.8,95.2,239,96,256.9z"/>
									</g>
								</g>
							</g>
						</g>
					</g>
				</g>
				<g>
					<g>
						<g>
							<path fill="#133441" d="M150.8,254.5c-0.5-12.3-11-21.9-23.3-21.4c-12.4,0.5-21.9,11-21.4,23.3c0.5,12.3,11,21.9,23.3,21.4
								C141.8,277.3,151.3,266.8,150.8,254.5z M125.7,253.2c-3.5,3.9-8.9,4.8-12.2,1.9c-3.3-2.9-3.1-8.4,0.4-12.3
								c3.5-3.9,8.9-4.8,12.2-1.9C129.3,243.7,129.2,249.3,125.7,253.2z M142.9,268.1c-2,2.3-5.2,2.8-7,1.1
								c-1.9-1.7-1.8-4.8,0.2-7.1s5.2-2.8,7-1.1C145,262.6,144.9,265.8,142.9,268.1z"/>
						</g>
					</g>
				</g>
				<g>
					<g>
						<g>
							<path fill="#FFFFFF" d="M235.8,256.9c0.8,17.9,15.9,31.8,33.9,31c17.9-0.8,31.8-15.9,31.1-33.8c-0.8-17.9-15.9-31.8-33.9-31
								C248.9,223.8,235,239,235.8,256.9z"/>
						</g>
					</g>
				</g>
				<g>
					<g>
						<g>
							<path fill="#133441" d="M290.6,254.5c-0.5-12.3-11-21.9-23.3-21.4c-12.3,0.5-21.9,11-21.4,23.3c0.5,12.3,11,21.9,23.3,21.4
								C281.5,277.3,291.1,266.8,290.6,254.5z M265.8,251.9c-3.9,3.5-9.4,3.6-12.3,0.4c-2.9-3.3-2-8.7,1.9-12.2s9.4-3.6,12.3-0.4
								C270.5,243,269.7,248.4,265.8,251.9z M284.2,267.2c-2,2.3-5.2,2.8-7,1.1c-1.9-1.7-1.8-4.8,0.2-7.1c2-2.3,5.2-2.8,7-1.1
								C286.3,261.8,286.2,265,284.2,267.2z"/>
						</g>
					</g>
				</g>
			</g>
			<g>
				<g>
					<g>
						<path fill="#133441" d="M244.7,192.6c-1.2,5.6,8.5,9.7,19.6,11.9c9.9,1.9,19.4,4.6,22.3-2.4
							C292.5,187.5,248.4,175.7,244.7,192.6z"/>
					</g>
				</g>
				<g>
					<g>
						<path fill="#133441" d="M109.9,201.5c2.7,7.1,12.3,4.7,22.2,3c11.1-1.8,21-5.7,19.9-11.3C148.8,176.2,104.4,186.8,109.9,201.5
							z"/>
					</g>
				</g>
			</g>
			<g>
				<g>
					<g>
						<ellipse fill="#FFE980" cx="289" cy="296.5" rx="14.1" ry="7.5"/>
					</g>
				</g>
				<g>
					<g>
						<ellipse fill="#FFE980" cx="104.9" cy="296.5" rx="14.1" ry="7.5"/>
					</g>
				</g>
			</g>
		</g>
		<g>
			<g>
				<g>
					<path fill="#AB1700" d="M220.8,275c6.2,7.5,0.2,21.4-20.1,21.4c-20.3,0-25.3-15-20.1-21.4c3-3.6,9.8-1.8,20.1-1.8
						C210.9,273.2,217.7,271.3,220.8,275z"/>
				</g>
			</g>
			<g>
				<g>
					<path fill="#FFFFFF" d="M217.9,276.4c0,1.7-7.5,3.1-16.7,3.1c-9.2,0-16.7-1.4-16.7-3.1s7.5-1.3,16.7-1.3
						C210.4,275.1,217.9,274.7,217.9,276.4z"/>
				</g>
			</g>
			<g>
				<g>
					<path fill="#FD6C6C" d="M186.9,290.8c3.1,2,7.7,3.3,13.9,3.3c6.9,0,11.9-1.6,15.2-3.8C204.1,278.9,193,285.2,186.9,290.8z"/>
				</g>
			</g>
		</g>
	</g>
</g>
</svg>
