<?xml version="1.0" encoding="utf-8"?>
<!-- Generator: Adobe Illustrator 17.1.0, SVG Export Plug-In . SVG Version: 6.00 Build 0)  -->
<!DOCTYPE svg PUBLIC "-//W3C//DTD SVG 1.1//EN" "http://www.w3.org/Graphics/SVG/1.1/DTD/svg11.dtd">
<svg version="1.1" id="Layer_1" xmlns="http://www.w3.org/2000/svg" xmlns:xlink="http://www.w3.org/1999/xlink" x="0px" y="0px"
	 width="330.8px" height="415px" viewBox="0 0 330.8 415" enable-background="new 0 0 330.8 415" xml:space="preserve">
<g>
	<g>
		<g>
			<g>
				<path fill="#133441" d="M117.3,415c-2.3,0-4.3-1.8-4.5-4.2c-0.2-2.5,1.7-4.6,4.2-4.8c0.9-0.1,1.7-0.2,2.4-0.3
					c-6.6-9.4-16.8-30.3,1.5-53.4c1.5-1.9,4.3-2.3,6.3-0.7c1.9,1.5,2.3,4.3,0.7,6.3c-19.6,24.8,1.1,45.8,2,46.6
					c0.9,0.9,1.4,2.2,1.3,3.4c-0.1,1.3-0.7,2.5-1.7,3.3c-0.4,0.3-4.3,3.2-11.9,3.7C117.5,415,117.4,415,117.3,415z"/>
			</g>
		</g>
		<g>
			<g>
				<path fill="#133441" d="M212,415c-0.1,0-0.2,0-0.3,0c-7.6-0.5-11.5-3.4-11.9-3.7c-1.1-0.8-1.7-2.1-1.7-3.5
					c0-1.4,0.6-2.7,1.7-3.5c0.8-0.7,19.9-17,1.4-46.8c-1.3-2.1-0.7-4.9,1.4-6.2c2.1-1.3,4.9-0.7,6.2,1.4
					c16.2,26.1,7.8,44.5,1.5,53.1c0.6,0.1,1.3,0.2,2,0.2c2.5,0.2,4.3,2.3,4.2,4.8C216.3,413.2,214.3,415,212,415z"/>
			</g>
		</g>
	</g>
	<g>
		<g>
			<g>
				<path fill="#133441" d="M296.6,323.2c-0.1,0-0.2,0-0.2,0c-13.3-0.2-22.5-18.5-24.6-48.9c-0.2-2.5,1.7-4.6,4.2-4.8
					c2.5-0.1,4.6,1.7,4.8,4.2c1.9,27.8,9.5,40.5,15.8,40.6c0,0,0.1,0,0.1,0c5.7,0,12.6-10.2,14.3-27.3c0.2-2.5,2.4-4.2,4.9-4
					c2.5,0.2,4.2,2.4,4,4.9C317.6,309.1,308.3,323.2,296.6,323.2z"/>
			</g>
		</g>
		<g>
			<g>
				<g>
					<path fill="#133441" d="M314.8,294.4c-3.1,0-6-1.1-8.2-3.1c-3.6-3.3-5.1-8.7-3.9-13.9c1.2-5,4.7-8.9,9.4-10.2
						c3.9-1.1,8.5,0,11.9,2.8c1.5,1.2,3.6,3.5,4.7,7.2c1,1.2,1.7,2.6,2,4.2c0.5,3.1-0.2,8.8-11,12.3
						C318,294.1,316.4,294.4,314.8,294.4z M314.4,282.6C314.4,282.6,314.5,282.7,314.4,282.6c0.1,0.1,0.1,0.1,0.1,0.1
						C314.5,282.7,314.4,282.6,314.4,282.6z"/>
				</g>
			</g>
			<g>
				<g>
					<path fill="#133441" d="M318.9,279.3c-2.3,0-4.2-1.7-4.4-4c0-0.4-0.9-9.1,2.9-19.8c0.8-2.3,3.4-3.5,5.7-2.7
						c2.3,0.8,3.5,3.4,2.7,5.7c-3.1,8.6-2.4,15.7-2.4,15.8c0.3,2.5-1.5,4.7-4,4.9C319.2,279.3,319,279.3,318.9,279.3z"/>
				</g>
			</g>
		</g>
	</g>
	<g>
		<g>
			<g>
				<path fill="#133441" d="M34.2,323.2c-11.7,0-21-14.2-23.2-35.4c-0.2-2.5,1.5-4.6,4-4.9c2.5-0.2,4.7,1.5,4.9,4
					c1.7,17.1,8.6,27.3,14.3,27.3c0,0,0.1,0,0.1,0c6.3-0.1,13.9-12.9,15.8-40.6c0.2-2.5,2.3-4.3,4.8-4.2c2.5,0.2,4.3,2.3,4.2,4.8
					C57,304.7,47.8,323,34.5,323.2C34.4,323.2,34.3,323.2,34.2,323.2z"/>
			</g>
		</g>
		<g>
			<g>
				<g>
					<path fill="#133441" d="M16,294.4c-1.6,0-3.2-0.3-4.8-0.8c-10.8-3.5-11.6-9.2-11-12.3c0.3-1.6,1-3,2-4.2
						c1.1-3.6,3.2-5.9,4.7-7.2c3.4-2.8,8.1-3.9,11.9-2.8c4.7,1.4,8.2,5.2,9.4,10.2c1.2,5.2-0.3,10.6-3.9,13.9
						C22,293.3,19.1,294.4,16,294.4z M16.4,282.6c0,0-0.1,0.1-0.1,0.1C16.3,282.7,16.4,282.7,16.4,282.6
						C16.4,282.7,16.4,282.6,16.4,282.6z"/>
				</g>
			</g>
			<g>
				<g>
					<path fill="#133441" d="M12,279.3c-0.2,0-0.3,0-0.5,0c-2.5-0.3-4.2-2.5-4-4.9c0-0.2,0.7-7.2-2.4-15.8c-0.8-2.3,0.4-4.9,2.7-5.7
						c2.3-0.8,4.9,0.4,5.7,2.7c3.8,10.7,2.9,19.4,2.9,19.8C16.2,277.6,14.2,279.3,12,279.3z"/>
				</g>
			</g>
		</g>
	</g>
	<g>
		<g>
			<g>
				<path fill="#F7B11E" d="M283.7,244.8c0,66.7-54.1,120.7-120.7,120.7S42.2,311.5,42.2,244.8C42.2,139.4,163,0,163,0
					S283.7,139.4,283.7,244.8z"/>
			</g>
		</g>
		<ellipse fill="#F2D487" cx="167.8" cy="288.5" rx="86.2" ry="66.2"/>
		<g>
			<g>
				<g>
					<path fill="#FFFFFF" d="M153.4,41c-0.1-1-1.4-1.7-2.3-1.4c-5.6,1.5-9.3,9-12.4,13.5c-4.2,6-8.2,12-12,18.3
						c-3.8,6.2-7.5,12.5-11,18.9c-2.9,5.4-8.9,13.1-8.4,19.4c0.3,3,3.3,5.9,6.4,4c5.7-3.5,8.1-11.8,11.2-17.6
						c3.5-6.4,6.9-12.9,10.5-19.2c3.6-6.3,7.2-12.7,10.8-19C149,52.8,154.2,46.8,153.4,41z"/>
				</g>
			</g>
			<g>
				<g>
					<path fill="#FFFFFF" d="M103.9,122c-3.1-0.9-5.7,0.9-6.9,3.6c-0.7,1.5-1.3,3.1-2,4.6c-1.1,1.9-2,4-2.6,6.2
						c-0.8,2.8,0.7,5.8,3.5,6.7c3.1,0.9,5.5-0.9,6.7-3.5c1.6-3.6,3.3-7.2,4.9-10.8C108.7,126.2,106.4,122.8,103.9,122z"/>
				</g>
			</g>
		</g>
	</g>
	<g>
		<g>
			<g>
				<g>
					<g>
						<g>
							<g>
								<g>
									<g>
										<path fill="#FFFFFF" d="M64.7,255c0.8,17.9,15.9,31.8,33.9,31c17.9-0.8,31.8-15.9,31.1-33.8c-0.8-17.9-15.9-31.8-33.9-31
											C77.9,221.9,64,237.1,64.7,255z"/>
									</g>
								</g>
							</g>
						</g>
					</g>
				</g>
				<g>
					<g>
						<g>
							<path fill="#133441" d="M108.9,251.9c-0.3-6.5-5.8-11.5-12.3-11.2c-6.5,0.3-11.5,5.8-11.2,12.2c0.3,6.5,5.8,11.5,12.3,11.2
								C104.2,263.9,109.2,258.4,108.9,251.9z M95.7,251.2c-1.8,2.1-4.7,2.5-6.4,1c-1.7-1.5-1.6-4.4,0.2-6.5c1.8-2.1,4.7-2.5,6.4-1
								C97.6,246.3,97.6,249.2,95.7,251.2z M104.8,259c-1.1,1.2-2.7,1.5-3.7,0.6c-1-0.9-0.9-2.5,0.1-3.7c1.1-1.2,2.7-1.5,3.7-0.6
								C105.9,256.2,105.8,257.8,104.8,259z"/>
						</g>
					</g>
				</g>
				<g>
					<g>
						<g>
							<path fill="#FFFFFF" d="M204.5,255c0.8,17.9,15.9,31.8,33.9,31c17.9-0.8,31.8-15.9,31.1-33.8c-0.8-17.9-15.9-31.8-33.9-31
								C217.6,221.9,203.7,237.1,204.5,255z"/>
						</g>
					</g>
				</g>
				<g>
					<g>
						<g>
							<path fill="#133441" d="M248.7,251.9c-0.3-6.5-5.8-11.5-12.2-11.2c-6.5,0.3-11.5,5.8-11.2,12.2c0.3,6.5,5.8,11.5,12.2,11.2
								C243.9,263.9,249,258.4,248.7,251.9z M235.7,250.5c-2.1,1.8-5,1.9-6.5,0.2c-1.5-1.7-1.1-4.6,1-6.4c2.1-1.8,5-1.9,6.5-0.2
								C238.2,245.9,237.7,248.7,235.7,250.5z M245.3,258.6c-1.1,1.2-2.7,1.5-3.7,0.6c-1-0.9-0.9-2.5,0.1-3.7
								c1.1-1.2,2.7-1.5,3.7-0.6C246.4,255.7,246.4,257.4,245.3,258.6z"/>
						</g>
					</g>
				</g>
			</g>
			<g>
				<g>
					<g>
						<path fill="#133441" d="M214.4,229.4c1.3,5.6,11.8,5.3,22.8,2.6c9.8-2.4,19.6-3.9,19.2-11.6
							C255.7,204.7,210.6,212.5,214.4,229.4z"/>
					</g>
				</g>
				<g>
					<g>
						<path fill="#133441" d="M77.8,220.3c-0.4,7.6,9.4,9.2,19.2,11.6c10.9,2.8,21.5,3.1,22.8-2.5
							C123.6,212.7,78.6,204.6,77.8,220.3z"/>
					</g>
				</g>
			</g>
		</g>
		<g>
			<g>
				<g>
					<g>
						<path fill="#AB1700" d="M156,311.6c-4.2-15.8-0.1-45.3,13.7-45.3c13.8,0,17.2,31.9,13.7,45.3c-2,7.7-6.7,3.9-13.7,3.9
							C162.7,315.5,158.1,319.5,156,311.6z"/>
					</g>
				</g>
			</g>
		</g>
		<g>
			<g>
				<path fill="#FFFFFF" d="M177.7,275.7c0,3.8-3.5,3.4-7.7,3.4c-4.3,0-7.7,0.4-7.7-3.4c0-3.8,3.5-7,7.7-7
					C174.2,268.7,177.7,271.8,177.7,275.7z"/>
			</g>
		</g>
		<g>
			<g>
				<path fill="#FFE980" d="M180.7,309.9c0,6.2-4.7,3.1-10.5,3.1c-5.8,0-10.5,3.1-10.5-3.1c0-6.2,4.7-11.2,10.5-11.2
					C176,298.7,180.7,303.7,180.7,309.9z"/>
			</g>
		</g>
	</g>
</g>
</svg>
