<?xml version="1.0" encoding="utf-8"?>
<!-- Generator: Adobe Illustrator 17.1.0, SVG Export Plug-In . SVG Version: 6.00 Build 0)  -->
<!DOCTYPE svg PUBLIC "-//W3C//DTD SVG 1.1//EN" "http://www.w3.org/Graphics/SVG/1.1/DTD/svg11.dtd">
<svg version="1.1" id="Layer_1" xmlns="http://www.w3.org/2000/svg" xmlns:xlink="http://www.w3.org/1999/xlink" x="0px" y="0px"
	 width="367px" height="415.6px" viewBox="0 0 367 415.6" enable-background="new 0 0 367 415.6" xml:space="preserve">
<g>
	<g>
		<g>
			<g>
				<path fill="#133441" d="M320.7,273.4c-8,0-17.1-0.5-27.4-1.4c-2.5-0.2-4.3-2.4-4-4.9c0.2-2.5,2.4-4.3,4.9-4
					c52.1,4.9,61.7-4.6,63.4-8.9c3.9-10-14.7-29.3-27.4-39c-2-1.5-2.3-4.3-0.8-6.3c1.5-2,4.3-2.3,6.3-0.8c3.9,3,37.9,29.9,30.2,49.4
					C361.6,268.2,347.1,273.4,320.7,273.4z"/>
			</g>
		</g>
		<path fill="#133441" d="M318.8,198c4.2,0,7.5,1.2,10.2,3c-0.4-1.1-1.1-2.2-2.1-3.1c-1.8-1.7-1.9-4.5-0.2-6.3
			c1.7-1.8,4.5-1.9,6.3-0.2c4,3.7,5.3,8.4,5.5,12.6c2.5-3.3,1.9-6.3,1.7-6.7c-0.7-2.4,0.6-4.9,3-5.6c2.4-0.7,4.9,0.6,5.6,3
			c1.5,4.9,0.7,15.4-12,21.7c-1.6,8.5-7.9,11.5-11.2,12c-0.2,0-0.4,0-0.6,0c-2.2,0-4.1-1.7-4.4-3.9c-0.3-2.4,1.4-4.7,3.9-5
			c0,0,3.1-0.5,3.7-5.6c-0.7-1.9-3.3-6.9-9.4-6.9c-2.5,0-4.5-2-4.5-4.5C314.3,200.1,316.3,198,318.8,198z"/>
	</g>
	<g>
		<g>
			<g>
				<path fill="#133441" d="M46.3,273.4c-26.4,0-40.9-5.2-45.1-15.9C-6.5,238,27.5,211,31.4,208c2-1.5,4.8-1.1,6.3,0.8
					c1.5,2,1.1,4.8-0.8,6.3c-12.7,9.8-31.3,29-27.4,39c1.7,4.3,11.2,13.7,63.4,8.9c2.5-0.2,4.6,1.6,4.9,4c0.2,2.5-1.6,4.6-4,4.9
					C63.4,272.9,54.3,273.4,46.3,273.4z"/>
			</g>
		</g>
		<path fill="#133441" d="M48.4,198c-4.2,0-7.5,1.2-10.2,3c0.4-1.1,1.1-2.2,2.1-3.1c1.8-1.7,1.9-4.5,0.2-6.3
			c-1.7-1.8-4.5-1.9-6.3-0.2c-4,3.7-5.3,8.4-5.5,12.6c-2.5-3.3-1.9-6.3-1.7-6.7c0.7-2.4-0.6-4.9-3-5.6c-2.4-0.7-4.9,0.6-5.6,3
			c-1.5,4.9-0.7,15.4,12,21.7c1.6,8.5,7.9,11.5,11.2,12c0.2,0,0.4,0,0.6,0c2.2,0,4.1-1.7,4.4-3.9c0.3-2.4-1.4-4.7-3.9-5
			c0,0-3.1-0.5-3.7-5.6c0.7-1.9,3.3-6.9,9.4-6.9c2.5,0,4.5-2,4.5-4.5C52.9,200.1,50.9,198,48.4,198z"/>
	</g>
	<g>
		<g>
			<path fill="#133441" d="M218,415.6c-2.3,0-4.3-1.8-4.5-4.2c-0.2-2.5,1.7-4.6,4.2-4.8c1.3-0.1,2.3-0.3,3.3-0.5
				c-3.9-8-9.4-25.7-0.1-52c0.8-2.3,3.4-3.5,5.7-2.7c2.3,0.8,3.5,3.4,2.7,5.7c-11.2,31.6,1.5,48.2,1.6,48.3c0.7,0.9,1.1,2.1,0.9,3.3
				c-0.1,1.2-0.7,2.3-1.7,3c-0.4,0.3-4.3,3.2-11.9,3.7C218.2,415.6,218.1,415.6,218,415.6z"/>
		</g>
	</g>
	<g>
		<g>
			<path fill="#133441" d="M148.1,415.6c-0.1,0-0.2,0-0.3,0c-7.6-0.5-11.5-3.4-11.9-3.7c-1.7-1.3-2.2-3.7-1.2-5.6
				c0.1-0.3,14-27,2.4-48.4c-1.2-2.2-0.4-4.9,1.8-6.1c2.2-1.2,4.9-0.4,6.1,1.8c11,20.2,3.6,43.1-0.3,52.5c1,0.3,2.2,0.5,3.7,0.6
				c2.5,0.2,4.3,2.3,4.2,4.8C152.4,413.8,150.4,415.6,148.1,415.6z"/>
		</g>
	</g>
	<g>
		<g>
			<g>
				<path fill="#F7B11E" d="M302.1,244.8c0,66.7-54.1,120.7-120.7,120.7c-66.7,0-120.7-54.1-120.7-120.7C60.6,139.4,181.4,0,181.4,0
					S302.1,139.4,302.1,244.8z"/>
			</g>
		</g>
		<ellipse fill="#F2D487" cx="181.1" cy="289" rx="86.2" ry="66.2"/>
		<g>
			<g>
				<g>
					<path fill="#FFFFFF" d="M171.9,41c-0.1-1-1.4-1.7-2.3-1.4c-5.6,1.5-9.3,9-12.4,13.5c-4.2,6-8.2,12-12,18.3
						c-3.8,6.2-7.5,12.5-11,18.9c-2.9,5.4-8.9,13.1-8.4,19.4c0.3,3,3.3,5.9,6.4,4c5.7-3.5,8.1-11.8,11.2-17.6
						c3.5-6.4,6.9-12.9,10.5-19.2c3.6-6.3,7.2-12.7,10.8-19C167.4,52.8,172.6,46.8,171.9,41z"/>
				</g>
			</g>
			<g>
				<g>
					<path fill="#FFFFFF" d="M122.3,122c-3.1-0.9-5.7,0.9-6.9,3.6c-0.7,1.5-1.3,3.1-2,4.6c-1.1,1.9-2,4-2.6,6.2
						c-0.8,2.8,0.7,5.8,3.5,6.7c3.1,0.9,5.5-0.9,6.7-3.5c1.6-3.6,3.3-7.2,4.9-10.8C127.1,126.2,124.8,122.8,122.3,122z"/>
				</g>
			</g>
		</g>
	</g>
	<g>
		<g>
			<path fill="#133441" d="M201.7,296.5c-3,2.1-7.6,0.6-18.9,0.6c-11.3,0-15.8,1.5-18.8-0.6c-3.2-2.1,8.1-7.6,18.8-7.6
				C193.5,288.9,204.7,294.4,201.7,296.5z"/>
		</g>
	</g>
	<g>
		<g>
			<g>
				<g>
					<g>
						<g>
							<g>
								<g>
									<g>
										<path fill="#FFFFFF" d="M82.2,263.8c0.8,17.9,15.9,31.8,33.9,31c17.9-0.8,31.8-15.9,31.1-33.8
											c-0.8-17.9-15.9-31.8-33.9-31C95.4,230.8,81.5,245.9,82.2,263.8z"/>
									</g>
								</g>
							</g>
						</g>
					</g>
				</g>
				<g>
					<g>
						<g>
							<path fill="#133441" d="M137,261.5c-0.5-12.3-11-21.9-23.3-21.4c-12.4,0.5-21.9,11-21.4,23.3c0.5,12.3,11,21.9,23.3,21.4
								C128,284.2,137.6,273.8,137,261.5z M111.9,260.1c-3.5,3.9-8.9,4.8-12.2,1.9c-3.3-2.9-3.1-8.4,0.4-12.3
								c3.5-3.9,8.9-4.8,12.2-1.9C115.6,250.7,115.4,256.2,111.9,260.1z M129.2,275c-2,2.3-5.2,2.8-7,1.1c-1.9-1.7-1.8-4.8,0.2-7.1
								c2-2.3,5.2-2.8,7-1.1C131.3,269.5,131.2,272.7,129.2,275z"/>
						</g>
					</g>
				</g>
				<g>
					<g>
						<g>
							<path fill="#FFFFFF" d="M222,263.8c0.8,17.9,15.9,31.8,33.9,31c17.9-0.8,31.8-15.9,31.1-33.8c-0.8-17.9-15.9-31.8-33.9-31
								C235.1,230.8,221.2,245.9,222,263.8z"/>
						</g>
					</g>
				</g>
				<g>
					<g>
						<g>
							<path fill="#133441" d="M276.8,261.5c-0.5-12.3-11-21.9-23.3-21.4c-12.3,0.5-21.9,11-21.4,23.3c0.5,12.3,11,21.9,23.3,21.4
								C267.8,284.2,277.3,273.8,276.8,261.5z M252,258.8c-3.9,3.5-9.4,3.6-12.3,0.4c-2.9-3.3-2-8.7,1.9-12.2
								c3.9-3.5,9.4-3.6,12.3-0.4C256.8,249.9,255.9,255.4,252,258.8z M270.4,274.2c-2,2.3-5.2,2.8-7,1.1c-1.9-1.7-1.8-4.8,0.2-7.1
								c2-2.3,5.2-2.8,7-1.1C272.5,268.7,272.4,271.9,270.4,274.2z"/>
						</g>
					</g>
				</g>
			</g>
			<g>
				<g>
					<g>
						<path fill="#133441" d="M135.5,201c-2.4-5.2-12.6-2.8-22.8,2.1c-9.1,4.4-18.4,7.8-16.5,15.2C100,233.4,142.6,216.7,135.5,201z
							"/>
					</g>
				</g>
				<g>
					<g>
						<path fill="#133441" d="M273,218.2c1.9-7.4-7.4-10.8-16.5-15.2c-10.2-4.9-20.4-7.3-22.8-2.1
							C226.5,216.7,269.1,233.4,273,218.2z"/>
					</g>
				</g>
			</g>
			<g>
				<g>
					<g>
						<ellipse fill="#FFE980" cx="275.3" cy="303.4" rx="14.1" ry="7.5"/>
					</g>
				</g>
				<g>
					<g>
						<ellipse fill="#FFE980" cx="91.1" cy="303.4" rx="14.1" ry="7.5"/>
					</g>
				</g>
			</g>
		</g>
	</g>
</g>
</svg>
