<?xml version="1.0" encoding="utf-8"?>
<!-- Generator: Adobe Illustrator 17.1.0, SVG Export Plug-In . SVG Version: 6.00 Build 0)  -->
<!DOCTYPE svg PUBLIC "-//W3C//DTD SVG 1.1//EN" "http://www.w3.org/Graphics/SVG/1.1/DTD/svg11.dtd">
<svg version="1.1" id="Layer_1" xmlns="http://www.w3.org/2000/svg" xmlns:xlink="http://www.w3.org/1999/xlink" x="0px" y="0px"
	 width="337.1px" height="383.6px" viewBox="0 0 337.1 383.6" enable-background="new 0 0 337.1 383.6" xml:space="preserve">
<g>
	<g>
		<g>
			<g>
				<path fill="#133441" d="M27.3,265.5c-10.2,0-16.4-4.9-19.3-8.1c-11.5-12.6-10.3-36.3,2.6-51.8c1.6-1.9,4.4-2.2,6.3-0.6
					c1.9,1.6,2.2,4.4,0.6,6.3c-10,12.1-11.4,30.8-2.9,40.1c7.9,8.6,22.6,6.4,40.5-6c2-1.4,4.8-0.9,6.2,1.1c1.4,2,0.9,4.8-1.1,6.2
					C46.3,262.4,35.5,265.5,27.3,265.5z"/>
			</g>
		</g>
		<g>
			<g>
				<g>
					<path fill="#133441" d="M19.4,217.5c-2.6,0-5.6-1-8.9-3.6C2,207.4,4,200.5,4.8,198.6c2.3-5.4,9-8.6,15.8-7.5
						c4.2,0.7,7.6,3.5,8.8,7.3c0.6,1.8,0.9,4.8-0.9,8.4c0.1,2.7-0.6,5.4-2.2,7.5C24.9,216.1,22.5,217.5,19.4,217.5z"/>
				</g>
			</g>
		</g>
	</g>
	<g>
		<g>
			<g>
				<path fill="#133441" d="M323.2,319.4c-1,0-2-0.3-2.9-1c-1.9-1.6-2.2-4.4-0.6-6.3c10-12.1,11.4-30.8,2.9-40.1
					c-7.9-8.6-22.6-6.4-40.5,6c-2,1.4-4.8,0.9-6.2-1.1c-1.4-2-0.9-4.8,1.1-6.2c31.1-21.6,46.8-10.5,52.2-4.7
					c11.5,12.6,10.3,36.3-2.6,51.8C325.7,318.8,324.5,319.4,323.2,319.4z"/>
			</g>
		</g>
		<g>
			<g>
				<g>
					<path fill="#133441" d="M319.1,332.5c-0.9,0-1.7-0.1-2.6-0.2c-4.2-0.6-7.6-3.5-8.8-7.3c-0.6-1.8-0.9-4.8,0.9-8.4
						c-0.1-2.7,0.6-5.4,2.2-7.5c2.7-3.4,8.5-5.4,15.9,0.3c8.5,6.6,6.5,13.4,5.7,15.4C330.3,329.5,325,332.5,319.1,332.5z"/>
				</g>
			</g>
		</g>
	</g>
	<g>
		<g>
			<path fill="#133441" d="M36.5,365c-0.8,0-1.5-0.2-2.1-0.5c-5.4-2.4-9.2-10.4-10-12c-1-2.2,0-4.9,2.2-5.9c2.2-1,4.9,0,5.9,2.2
				c1.1,2.4,3,5.3,4.4,6.7c6-3.2,26-20,43.2-35.6c1.8-1.7,4.7-1.5,6.3,0.3c1.7,1.8,1.5,4.7-0.3,6.3C86,326.7,75.2,336.5,64,346
				c-6.6,5.6-12,10-16.2,13C42.1,363.2,38.9,365,36.5,365z"/>
		</g>
	</g>
	<g>
		<g>
			<path fill="#133441" d="M215.3,383.6c-1.9,0-3.8-0.3-5.6-1c-13.6-5.1-14.9-27.8-15-30.3c-0.1-2.5,1.8-4.5,4.3-4.6
				c2.4-0.1,4.5,1.8,4.6,4.3l0,0c0.2,5,2.3,19.7,9.2,22.3c5.2,2,13.9-3.1,24.4-14.3c1.1-1.2,2.7-1.7,4.3-1.3
				c3.5,0.8,9.9,4.1,11.9,11.2c0.7,2.4-0.7,4.9-3.1,5.5c-2.4,0.7-4.9-0.7-5.5-3.1c-0.6-2-2-3.3-3.3-4
				C231.5,378.5,222.9,383.6,215.3,383.6z"/>
		</g>
	</g>
	<g>
		<g>
			<g>
				<path fill="#F7B11E" d="M286.6,267.7c-17.3,64.4-83.5,102.6-147.9,85.4S36.1,269.7,53.3,205.2C80.6,103.4,233.3,0,233.3,0
					S313.9,165.9,286.6,267.7z"/>
			</g>
		</g>
		
			<ellipse transform="matrix(0.9756 0.2195 -0.2195 0.9756 65.0344 -29.3394)" fill="#F2D487" cx="164.6" cy="278.1" rx="86.2" ry="66.2"/>
		<g>
			<g>
				<g>
					<path fill="#FFFFFF" d="M213.5,37.1c0.1-1-0.9-2-1.9-2c-5.8,0-11.3,6.3-15.5,9.8c-5.6,4.7-11,9.5-16.3,14.6
						c-5.3,5-10.5,10.1-15.5,15.4c-4.2,4.5-12,10.3-13.1,16.6c-0.5,3,1.7,6.5,5.2,5.5c6.4-1.9,10.9-9.3,15.3-14.1
						c5-5.3,10-10.6,15.1-15.8c5.1-5.2,10.2-10.4,15.4-15.6C206.2,47.4,212.7,43,213.5,37.1z"/>
				</g>
			</g>
			<g>
				<g>
					<path fill="#FFFFFF" d="M144.7,102.5c-2.7-1.7-5.7-0.6-7.6,1.7c-1,1.3-2.1,2.6-3.1,4c-1.6,1.6-3,3.4-4.2,5.3
						c-1.5,2.5-0.8,5.8,1.7,7.4c2.7,1.7,5.5,0.6,7.4-1.7c2.5-3,5-6.1,7.5-9.1C148.3,107.8,147,104,144.7,102.5z"/>
				</g>
			</g>
		</g>
	</g>
	<g>
		<g>
			<g>
				<g>
					<g>
						<g>
							<g>
								<g>
									<g>
										<path fill="#FFFFFF" d="M68.7,235.4c-3.9,17.5,7.2,34.8,24.7,38.7c17.5,3.9,34.9-7.1,38.7-24.6
											c3.9-17.5-7.2-34.8-24.7-38.7C89.9,206.9,72.6,217.9,68.7,235.4z"/>
									</g>
								</g>
							</g>
						</g>
					</g>
				</g>
				<g>
					<g>
						<g>
							<path fill="#133441" d="M128.4,246.7c2.7-12-4.9-24-17-26.7c-12.1-2.7-24,4.9-26.7,17c-2.7,12,4.9,24,17,26.7
								C113.7,266.3,125.7,258.8,128.4,246.7z M104.5,238.9c-4.4,2.9-9.9,2.3-12.3-1.3c-2.4-3.6-0.8-8.9,3.5-11.8
								c4.4-2.9,9.9-2.3,12.3,1.3C110.4,230.7,108.8,236,104.5,238.9z M117.3,257.7c-2.5,1.7-5.7,1.3-7.1-0.8
								c-1.4-2.1-0.5-5.1,2-6.8c2.5-1.7,5.7-1.3,7.1,0.7C120.7,253,119.8,256.1,117.3,257.7z"/>
						</g>
					</g>
				</g>
				<g>
					<g>
						<g>
							<path fill="#FFFFFF" d="M203.7,271.6c-3.9,17.5,7.2,34.8,24.7,38.7c17.5,3.9,34.9-7.1,38.7-24.6c3.9-17.5-7.2-34.8-24.7-38.7
								C224.9,243.1,207.6,254.1,203.7,271.6z"/>
						</g>
					</g>
				</g>
				<g>
					<g>
						<g>
							<path fill="#133441" d="M263.4,282.9c2.7-12-4.9-24-17-26.7c-12.1-2.7-24,4.9-26.7,17c-2.7,12,4.9,24,17,26.7
								C248.7,302.5,260.7,294.9,263.4,282.9z M240.1,273.9c-4.7,2.3-10.1,1.1-12-2.8c-1.9-3.9,0.3-8.9,5-11.3
								c4.7-2.3,10.1-1.1,12,2.8C247,266.5,244.8,271.6,240.1,273.9z M253.9,293.5c-2.5,1.7-5.7,1.3-7.1-0.8c-1.4-2.1-0.5-5.1,2-6.8
								c2.5-1.7,5.7-1.3,7.1,0.7C257.3,288.8,256.4,291.8,253.9,293.5z"/>
						</g>
					</g>
				</g>
			</g>
			<g>
				<g>
					<g>
						<path fill="#133441" d="M230.8,220.9c-2.8,5,5.2,11.8,15.2,17.1c8.9,4.8,17.2,10.2,22,4.3C278,230.2,239.3,205.8,230.8,220.9z
							"/>
					</g>
				</g>
				<g>
					<g>
						<path fill="#133441" d="M92.5,191.9c0.4,7.6,10.3,8.2,20.3,9.6c11.2,1.6,21.7,0.9,22.4-4.8C137.3,179.6,91.7,176.2,92.5,191.9
							z"/>
					</g>
				</g>
			</g>
			<g>
				<g>
					<g>
						
							<ellipse transform="matrix(0.9659 0.2588 -0.2588 0.9659 92.1096 -52.3559)" fill="#FFE980" cx="244.9" cy="323.6" rx="14.1" ry="7.5"/>
					</g>
				</g>
				<g>
					<g>
						
							<ellipse transform="matrix(0.9659 0.2588 -0.2588 0.9659 73.7104 -7.9371)" fill="#FFE980" cx="67" cy="276" rx="14.1" ry="7.5"/>
					</g>
				</g>
			</g>
		</g>
		<g>
			<g>
				<g>
					<path fill="#AB1700" d="M141.1,293.4c-4-8.8,5.4-20.7,25-15.4c19.6,5.3,20.5,21.1,13.9,25.8c-3.8,2.7-9.9-0.8-19.9-3.4
						C150.1,297.7,143.1,297.7,141.1,293.4z"/>
				</g>
			</g>
			<g>
				<g>
					<path fill="#FFFFFF" d="M153.2,279.1c0.4-1.6,6.1-1.6,12.7,0.2c6.6,1.7,11.5,4.5,11.1,6.1s-5.7-0.2-12.2-1.9
						C158.1,281.7,152.7,280.7,153.2,279.1z"/>
				</g>
			</g>
			<g>
				<g>
					<path fill="#FD6C6C" d="M147.7,291.7c2.5,2.7,6.6,5.2,12.5,6.8c6.7,1.8,11.9,1.6,15.6,0.2C167.4,284.7,155.1,287.9,147.7,291.7
						z"/>
				</g>
			</g>
		</g>
	</g>
</g>
</svg>
