<?xml version="1.0" encoding="utf-8"?>
<!-- Generator: Adobe Illustrator 17.1.0, SVG Export Plug-In . SVG Version: 6.00 Build 0)  -->
<!DOCTYPE svg PUBLIC "-//W3C//DTD SVG 1.1//EN" "http://www.w3.org/Graphics/SVG/1.1/DTD/svg11.dtd">
<svg version="1.1" id="Layer_1" xmlns="http://www.w3.org/2000/svg" xmlns:xlink="http://www.w3.org/1999/xlink" x="0px" y="0px"
	 width="338px" height="398.5px" viewBox="0 0 338 398.5" enable-background="new 0 0 338 398.5" xml:space="preserve">
<g>
	<g>
		<g>
			<path fill="#133441" d="M73.2,398.5c-0.2,0-0.4,0-0.6,0c-5.9-0.5-12.1-6.8-13.3-8.1c-1.7-1.8-1.6-4.6,0.2-6.3
				c1.8-1.7,4.6-1.6,6.3,0.2c1.7,1.8,4.2,3.8,6,4.7c0.8-1.5,1.8-3.8,2.7-6c4.4-10.4,11.9-27.8,27.9-42.6c1.8-1.7,4.6-1.6,6.3,0.2
				s1.6,4.6-0.2,6.3c-14.6,13.5-21.6,29.8-25.7,39.6C79.6,393.9,77.7,398.5,73.2,398.5z"/>
		</g>
	</g>
	<g>
		<g>
			<path fill="#133441" d="M258.1,356.1c-0.7,0-1.3,0-2-0.1c-14.5-1.9-20.9-23.6-21.5-26.1c-0.7-2.4,0.7-4.8,3.1-5.5
				c2.4-0.7,4.8,0.7,5.5,3.1l0,0c1.3,4.8,6.8,18.7,14.1,19.6c5.5,0.7,12.8-6.2,20.5-19.5c0.8-1.4,2.3-2.2,3.9-2.2
				c3.6,0,10.6,1.7,14.2,8.2c1.2,2.2,0.4,4.9-1.7,6.1c-2.2,1.2-4.9,0.4-6.1-1.7c-1-1.8-2.7-2.7-4.1-3.2
				C275.1,349.1,266.6,356.1,258.1,356.1z"/>
		</g>
	</g>
	<g>
		<g>
			<g>
				<path fill="#133441" d="M30.7,320.4c-6.5,0-11.3-2.4-14-4.2c-14.1-9.6-18.4-33-9.4-51c1.1-2.2,3.8-3.1,6-2c2.2,1.1,3.1,3.8,2,6
					c-7,14.1-4,32.6,6.4,39.7c9.7,6.6,23.5,1.1,38-15.1c1.6-1.8,4.5-2,6.3-0.3c1.8,1.6,2,4.5,0.3,6.3
					C51.7,316,39.6,320.4,30.7,320.4z"/>
			</g>
		</g>
		<g>
			<g>
				<g>
					<path fill="#133441" d="M16.2,275c-2,0-4.3-0.5-7-1.7c-9.8-4.5-9.4-11.6-9-13.7c1-5.8,6.8-10.4,13.6-11
						c4.2-0.3,8.2,1.7,10.3,5.1c0.9,1.6,2,4.4,1.1,8.4c0.7,2.6,0.7,5.4-0.4,7.8C23.4,272.6,20.6,275,16.2,275z"/>
				</g>
			</g>
		</g>
	</g>
	<g>
		<g>
			<g>
				<path fill="#133441" d="M326.7,251.1c-0.7,0-1.4-0.2-2-0.5c-2.2-1.1-3.1-3.8-2-6c7-14.1,4-32.6-6.4-39.7
					c-9.7-6.6-23.5-1.1-38,15.1c-1.6,1.8-4.5,2-6.3,0.3c-1.8-1.6-2-4.5-0.3-6.3c25.3-28.2,43.2-21,49.7-16.5
					c14.1,9.6,18.4,33,9.4,51.1C329.9,250.2,328.3,251.1,326.7,251.1z"/>
			</g>
		</g>
		<g>
			<g>
				<g>
					<path fill="#133441" d="M323.3,265.1c-3.9,0-7.5-2-9.4-5.1c-0.9-1.6-2-4.4-1.1-8.4c-0.7-2.6-0.7-5.4,0.4-7.8
						c1.9-4,7.1-7.2,15.5-3.4c9.8,4.5,9.4,11.6,9,13.7c-1,5.8-6.8,10.4-13.6,11C323.9,265.1,323.6,265.1,323.3,265.1z"/>
				</g>
			</g>
		</g>
	</g>
	<g>
		<g>
			<g>
				<g>
					<path fill="#F7B11E" d="M278.4,205.2c17.3,64.4-21,130.6-85.4,147.9c-64.4,17.3-130.6-21-147.9-85.4C17.9,165.9,98.4,0,98.4,0
						S251.2,103.4,278.4,205.2z"/>
				</g>
			</g>
			<path fill="#F2D487" d="M259.5,246.3c13.3,34-11.9,75.7-56.2,93c-44.3,17.3-91.1,3.8-104.4-30.3c-13.3-34,11.9-75.7,56.2-93
				C199.5,198.7,246.2,212.2,259.5,246.3z"/>
			<g>
				<g>
					<g>
						<path fill="#FFFFFF" d="M99.8,42c-0.4-1-1.8-1.2-2.6-0.8c-5,2.9-6.7,11.1-8.5,16.2c-2.5,6.9-4.8,13.8-6.9,20.8
							c-2,7-4,14-5.7,21.1c-1.4,6-5.2,14.9-3.1,20.9c1,2.9,4.7,4.8,7.2,2.2c4.6-4.8,4.8-13.5,6.2-19.9c1.7-7.1,3.3-14.2,5.1-21.3
							c1.8-7.1,3.7-14.1,5.5-21.2C98.6,54.6,102.1,47.5,99.8,42z"/>
					</g>
				</g>
				<g>
					<g>
						<path fill="#FFFFFF" d="M72.9,133.1c-3.2-0.1-5.3,2.3-5.7,5.3c-0.2,1.7-0.5,3.3-0.7,5c-0.6,2.2-0.9,4.4-0.9,6.7
							c-0.1,2.9,2.2,5.4,5.1,5.5c3.2,0.1,5.1-2.3,5.5-5.1c0.6-3.9,1.3-7.8,1.9-11.7C78.7,135.9,75.6,133.2,72.9,133.1z"/>
					</g>
				</g>
			</g>
		</g>
		<g>
			<g>
				<g>
					<g>
						<g>
							<g>
								<g>
									<g>
										<g>
											<path fill="#FFFFFF" d="M65.6,289.8c5.9,16.9,24.4,25.9,41.3,20c17-5.9,25.9-24.4,20.1-41.3c-5.9-16.9-24.4-25.9-41.3-20
												C68.7,254.3,59.7,272.8,65.6,289.8z"/>
										</g>
									</g>
								</g>
							</g>
						</g>
					</g>
					<g>
						<g>
							<g>
								<path fill="#133441" d="M109,269.4c-4-11.7-16.8-17.8-28.5-13.8c-11.7,4-17.9,16.8-13.8,28.4c4,11.7,16.8,17.8,28.5,13.8
									C106.8,293.8,113,281.1,109,269.4z M84.5,275.3c-2.2,4.8-7.2,7.1-11.1,5.3c-3.9-1.8-5.4-7.1-3.2-11.9
									c2.2-4.8,7.2-7.1,11.1-5.3C85.3,265.3,86.7,270.6,84.5,275.3z M105.3,284.7c-1.3,2.8-4.1,4.1-6.4,3.1
									c-2.3-1-3.1-4.1-1.8-6.9c1.3-2.8,4.1-4.1,6.4-3.1C105.7,278.8,106.6,281.9,105.3,284.7z"/>
							</g>
						</g>
					</g>
					<g>
						<g>
							<g>
								<path fill="#FFFFFF" d="M199.5,249.8c5.9,16.9,24.4,25.9,41.3,20s25.9-24.4,20.1-41.3c-5.9-16.9-24.4-25.9-41.3-20
									C202.6,214.3,193.6,232.8,199.5,249.8z"/>
							</g>
						</g>
					</g>
					<g>
						<g>
							<g>
								<path fill="#133441" d="M242.9,229.4c-4-11.7-16.8-17.8-28.5-13.8c-11.7,4-17.9,16.8-13.8,28.4c4,11.7,16.8,17.8,28.5,13.8
									C240.7,253.8,246.9,241.1,242.9,229.4z M218.4,234c-2.8,4.4-8,6.2-11.7,3.9c-3.7-2.3-4.4-7.8-1.7-12.2
									c2.8-4.4,8-6.2,11.7-3.9C220.4,224.1,221.1,229.6,218.4,234z M240.4,243.4c-1.3,2.8-4.1,4.1-6.4,3.1c-2.3-1-3.1-4.1-1.8-6.9
									c1.3-2.8,4.1-4.1,6.4-3.1C240.9,237.6,241.7,240.7,240.4,243.4z"/>
							</g>
						</g>
					</g>
				</g>
				<g>
					<g>
						<g>
							<path fill="#133441" d="M196.4,214.6c3.1,4.8,12.9,0.8,22.2-5.6c8.3-5.7,17-10.5,14-17.6C226.4,177,186.9,200.1,196.4,214.6z
								"/>
						</g>
					</g>
					<g>
						<g>
							<path fill="#133441" d="M60.1,247.7c2.4,7.2,12.1,5.1,22.1,3.8c11.2-1.4,21.1-5,20.3-10.7C99.9,223.7,55.1,232.8,60.1,247.7z
								"/>
						</g>
					</g>
				</g>
				<g>
					<g>
						<g>
							
								<ellipse transform="matrix(0.9582 -0.2862 0.2862 0.9582 -67.0278 86.3579)" fill="#FFE980" cx="261.9" cy="272.4" rx="14.1" ry="7.5"/>
						</g>
					</g>
					<g>
						<g>
							
								<ellipse transform="matrix(0.9582 -0.2862 0.2862 0.9582 -89.5012 38.0529)" fill="#FFE980" cx="85.4" cy="325.2" rx="14.1" ry="7.5"/>
						</g>
					</g>
				</g>
			</g>
			<g>
				<g>
					<g>
						<path fill="#AB1700" d="M150.8,305.8c-8-5.4-6.3-20.4,13.2-26.2c19.4-5.8,28.5,7.2,25.4,14.7c-1.8,4.3-8.9,4.6-18.7,7.5
							C160.7,304.7,154.8,308.4,150.8,305.8z"/>
					</g>
				</g>
				<g>
					<g>
						<path fill="#FFFFFF" d="M153.6,287.3c-0.5-1.6,4.4-4.5,10.9-6.5c6.5-2,12.2-2.2,12.7-0.6c0.5,1.6-4.9,2.8-11.4,4.8
							C159.2,286.9,154.1,288.9,153.6,287.3z"/>
					</g>
				</g>
				<g>
					<g>
						<path fill="#FD6C6C" d="M155.5,300.9c3.6,1,8.3,1,14.2-0.8c6.6-2,10.9-4.9,13.4-8C168.7,284.6,159.8,293.7,155.5,300.9z"/>
					</g>
				</g>
			</g>
		</g>
	</g>
</g>
</svg>
