<?xml version="1.0" encoding="utf-8"?>
<!-- Generator: Adobe Illustrator 17.1.0, SVG Export Plug-In . SVG Version: 6.00 Build 0)  -->
<!DOCTYPE svg PUBLIC "-//W3C//DTD SVG 1.1//EN" "http://www.w3.org/Graphics/SVG/1.1/DTD/svg11.dtd">
<svg version="1.1" id="Layer_1" xmlns="http://www.w3.org/2000/svg" xmlns:xlink="http://www.w3.org/1999/xlink" x="0px" y="0px"
	 width="307.7px" height="417.9px" viewBox="0 0 307.7 417.9" enable-background="new 0 0 307.7 417.9" xml:space="preserve">
<g>
	<g>
		<g>
			<g>
				<path fill="#133441" d="M42.7,338.4c-19.8,0-36.6-8.7-41.3-21.9C-2.2,306.4-0.7,290,27.1,269c2-1.5,4.8-1.1,6.3,0.9
					c1.5,2,1.1,4.8-0.9,6.3c-18.3,13.8-26.4,27.1-22.7,37.4c3.6,10,18.6,16.7,35.7,15.9c2.5-0.1,4.6,1.8,4.7,4.3
					c0.1,2.5-1.8,4.6-4.3,4.7C44.9,338.4,43.8,338.4,42.7,338.4z"/>
			</g>
		</g>
		<g>
			<g>
				<g>
					<path fill="#133441" d="M51.9,347.8c-1.4,0-2.7-0.2-4-0.6c-5.7-1.8-8.9-7.2-8.5-14.3c0.5-9.2,5.8-12.3,10.2-12.1
						c2.6,0.1,5.1,1.3,7,3.2c3.8,0.9,6.9,2.9,8.7,5.8c2.1,3.4,2.2,7.5,0.1,10.7C62.5,345,57.1,347.8,51.9,347.8z"/>
				</g>
			</g>
		</g>
	</g>
	<g>
		<g>
			<g>
				<path fill="#133441" d="M247.5,338.4c-1.1,0-2.2,0-3.4-0.1c-2.5-0.1-4.4-2.2-4.3-4.7c0.1-2.5,2.2-4.4,4.7-4.3
					c17.6,0.8,33.1-5.9,36.7-16.1c3.6-10-4.3-22.9-22.2-36.5c-2-1.5-2.4-4.3-0.9-6.3c1.5-2,4.3-2.4,6.3-0.9
					c27.4,20.6,28.8,36.7,25.3,46.6C284.9,329.6,267.9,338.4,247.5,338.4z"/>
			</g>
		</g>
		<g>
			<g>
				<g>
					<path fill="#133441" d="M238.3,347.8c-5.2,0-10.6-2.8-13.5-7.4c-2-3.2-2-7.3,0.1-10.7c1.8-2.9,4.9-4.9,8.7-5.8
						c2-1.8,4.5-3.1,7-3.2c4.4-0.2,9.7,2.9,10.2,12.1c0.4,7.2-2.8,12.5-8.5,14.3C241,347.6,239.6,347.8,238.3,347.8z"/>
				</g>
			</g>
		</g>
	</g>
	<g>
		<g>
			<path fill="#133441" d="M188.5,417.9c-0.1,0-0.2,0-0.3,0c-7.6-0.5-11.5-3.4-11.9-3.7c-1.3-1-1.9-2.6-1.7-4.2l7.9-52.6
				c0.4-2.4,2.6-4.1,5.1-3.8c2.4,0.4,4.1,2.6,3.8,5.1l-7.5,49.4c1.1,0.4,2.7,0.7,4.8,0.9c2.5,0.2,4.3,2.3,4.2,4.8
				C192.8,416.1,190.8,417.9,188.5,417.9z"/>
		</g>
	</g>
	<g>
		<g>
			<path fill="#133441" d="M99.7,417.9c-2.3,0-4.3-1.8-4.5-4.2c-0.2-2.5,1.7-4.6,4.2-4.8c2.5-0.2,4.2-0.7,5.4-1.1l3.1-50.1
				c0.2-2.5,2.3-4.4,4.7-4.2c2.5,0.2,4.3,2.3,4.2,4.7l-3.2,52.6c-0.1,1.3-0.7,2.5-1.7,3.2c-0.4,0.3-4.3,3.2-11.9,3.7
				C99.9,417.9,99.8,417.9,99.7,417.9z"/>
		</g>
	</g>
	<g>
		<g>
			<g>
				<path fill="#F7B11E" d="M266.5,244.8c0,66.7-54.1,120.7-120.7,120.7C79,365.6,25,311.5,25,244.8C25,139.4,145.7,0,145.7,0
					S266.5,139.4,266.5,244.8z"/>
			</g>
		</g>
		<ellipse fill="#F2D487" cx="149.8" cy="286.7" rx="86.2" ry="66.2"/>
		<g>
			<g>
				<g>
					<path fill="#FFFFFF" d="M136.2,41c-0.1-1-1.4-1.7-2.3-1.4c-5.6,1.5-9.3,9-12.4,13.4c-4.2,6-8.2,12-12,18.3
						c-3.8,6.2-7.5,12.5-11,18.9c-2.9,5.4-8.9,13.1-8.4,19.4c0.3,3,3.3,5.9,6.4,4c5.7-3.5,8.1-11.8,11.2-17.6
						c3.5-6.4,6.9-12.9,10.5-19.2c3.6-6.3,7.2-12.7,10.8-19C131.8,52.8,136.9,46.8,136.2,41z"/>
				</g>
			</g>
			<g>
				<g>
					<path fill="#FFFFFF" d="M86.6,122c-3.1-0.9-5.7,0.9-6.9,3.6c-0.7,1.5-1.3,3.1-2,4.6c-1.1,1.9-2,4-2.6,6.2
						c-0.8,2.8,0.7,5.8,3.5,6.7c3.1,0.9,5.5-0.9,6.7-3.5c1.6-3.6,3.3-7.2,4.9-10.8C91.5,126.2,89.2,122.8,86.6,122z"/>
				</g>
			</g>
		</g>
	</g>
	<g>
		<g>
			<g>
				<path fill="#E6ECFA" d="M295.8,166.3c-2.4-1.4-1.9-4.9,0.7-5.8c3.7-1.1,6-2.1,6.3-2.2l2.8-1.2c1.6-0.7,2.4-2.5,1.7-4.1l-1.1-2.8
					l-6.3-16.3l-1.1-2.8c-0.6-1.6-2.4-2.4-4-1.9l-2.8,0.9c-3.9,1.3-10.2,3.1-14.9,4c-1.7,0.3-3.4-0.8-3.7-2.5
					c-0.6-3.1-1.1-7.2-1.2-11l-0.1-3.1c-0.1-1.7-1.5-3.1-3.3-3l-3.1,0.1l-17.4,0.6l-3,0.1c-1.7,0.1-3.1,1.5-3.1,3.2l0,3c0,0,0,0,0,0
					c0,2.9-3.5,4.3-5.5,2.2c-0.4-0.5-0.8-0.8-1-1l-2.3-2.3c-1.3-1.3-3.4-1.2-4.6,0.1l-2.2,2.4l-11.6,13l-2,2.2
					c-1.1,1.3-1.1,3.2,0.2,4.4l2.1,2.1c3.7,3.6,7.7,9.5,7.5,11.9c-0.2,2.1-5.1,7.1-10.2,10.3l-2.4,1.5c-1.4,0.9-1.9,2.7-1.1,4.1
					l1.3,2.5l7.9,15.5l1.3,2.5c0.7,1.5,2.5,2.1,4,1.5l2.6-1c0.2-0.1,1.2-0.5,2.8-1.3c2.4-1.3,5.3,0.9,4.6,3.6c0,0,0,0.1,0,0.1
					l-0.8,3.1c-0.4,1.8,0.7,3.5,2.4,3.9l3.2,0.7l17.1,3.5l2.9,0.6c1.7,0.3,3.3-0.7,3.7-2.3l0.7-2.9c1.3-5,4.4-11.4,6.6-12.5
					c0.1,0,0.5-0.2,1.5-0.2c4.3,0,10.6,2.8,12.4,3.8l2.5,1.3c1.5,0.8,3.3,0.3,4.2-1.1l1.5-2.4l9.5-14.6l1.5-2.4
					c0.9-1.4,0.6-3.2-0.7-4.2l-2.2-1.7C299.5,168.7,298.1,167.7,295.8,166.3z"/>
			</g>
		</g>
		<g>
			<g>
				<path fill="#FFFFFF" d="M296.1,163.6c-2.4-1.4-1.9-4.9,0.7-5.8c3.7-1.1,6-2.1,6.3-2.2l2.8-1.2c1.6-0.7,2.4-2.5,1.7-4.1l-1.1-2.8
					l-6.3-16.3l-1.1-2.8c-0.6-1.6-2.4-2.4-4-1.9l-2.8,0.9c-3.9,1.3-10.2,3.1-14.9,4c-1.7,0.3-3.4-0.8-3.7-2.5
					c-0.6-3.1-1.1-7.2-1.2-11l-0.1-3.1c-0.1-1.7-1.5-3.1-3.3-3l-3.1,0.1l-17.4,0.6l-3,0.1c-1.7,0.1-3.1,1.5-3.1,3.2l0,3c0,0,0,0,0,0
					c0,2.9-3.5,4.3-5.5,2.2c-0.4-0.5-0.8-0.8-1-1l-2.3-2.3c-1.3-1.3-3.4-1.2-4.6,0.1l-2.2,2.4l-11.6,13l-2,2.2
					c-1.1,1.3-1.1,3.2,0.2,4.4l2.1,2.1c3.7,3.6,7.7,9.5,7.5,11.9c-0.2,2.1-5.1,7.1-10.2,10.3l-2.4,1.5c-1.4,0.9-1.9,2.7-1.1,4.1
					l1.3,2.5l7.9,15.5l1.3,2.5c0.7,1.5,2.5,2.1,4,1.5l2.6-1c0.2-0.1,1.2-0.5,2.8-1.3c2.4-1.3,5.3,0.9,4.6,3.6c0,0,0,0.1,0,0.1
					l-0.8,3.1c-0.4,1.8,0.7,3.5,2.4,3.9l3.2,0.7l17.1,3.5l2.9,0.6c1.7,0.3,3.3-0.7,3.7-2.3l0.7-2.9c1.3-5,4.4-11.4,6.6-12.5
					c0.1,0,0.5-0.2,1.5-0.2c4.3,0,10.6,2.8,12.4,3.8l2.5,1.3c1.5,0.8,3.3,0.3,4.2-1.1l1.5-2.4l9.5-14.6l1.5-2.4
					c0.9-1.4,0.6-3.2-0.7-4.2l-2.2-1.7C299.8,166.1,298.4,165,296.1,163.6z"/>
			</g>
		</g>
		<g>
			<g>
				<g>
					<path fill="#DF3B28" d="M263.5,154c8.9,3,20.3,1,28.2-1.2c4.9-1.4,7.5-6.6,5.7-11.4l-0.2-0.4c-1.6-4.1-6.1-6.4-10.3-5.2
						c-5.9,1.7-13.6,3.4-15.9,2.4c-2.1-1-3.3-6.9-4-11.9c-0.6-4.4-4.4-7.7-8.8-7.5l-0.4,0c-5.1,0.2-8.9,4.7-8.2,9.7
						C250.7,137.7,254.1,150.8,263.5,154z"/>
				</g>
			</g>
			<g>
				<g>
					<path fill="#DF3B28" d="M258.2,167.1c-7,3.7-11.8,11.6-14.7,18.1c-2.2,5,0.7,10.8,6.1,11.9l0,0c4,0.8,8-1.3,9.6-5
						c1.7-3.9,4.3-8.5,7.8-10.1c3.6-1.7,9.1-0.4,13.3,1.1c3.8,1.3,8,0,10.1-3.4l0.6-0.9c2.9-4.5,1.1-10.6-3.9-12.6
						C280,163.3,269.3,161.1,258.2,167.1z"/>
				</g>
			</g>
			<g>
				<g>
					<path fill="#DF3B28" d="M225.1,132.1L225.1,132.1c-2.7,3-2.9,7.6-0.5,10.8c2.6,3.4,5.2,8,4.8,11.8c-0.4,4-4.2,8.1-7.7,11
						c-3.1,2.6-4,6.9-2.2,10.5l0.5,0.9c2.4,4.8,8.6,6.2,12.9,2.9c6.1-4.7,13.3-12.9,13.8-25.5c0.3-7.9-4.2-16-8.3-21.8
						C235.3,128.4,228.8,128,225.1,132.1z"/>
				</g>
			</g>
		</g>
	</g>
	<g>
		<g>
			<g>
				<path fill="#133441" d="M161.6,293.4c-1.7-6.5-9.1-9.5-15.3-9.8c-5.7-0.3-16.6,2.4-16.7,9.7c0,1.6,1.8,2.5,3.1,1.8
					c2.1-1.1,3.1-3.2,5.2-4.5c2.5-1.5,5.5-2,8.3-1.9c5,0.2,10.1,2,13.3,5.9C160.3,295.5,161.9,294.5,161.6,293.4L161.6,293.4z"/>
			</g>
		</g>
	</g>
	<g>
		<g>
			<g>
				<g>
					<g>
						<g>
							<g>
								<g>
									<g>
										<path fill="#FFFFFF" d="M44.8,266.2c0.8,17.9,15.9,31.8,33.9,31c17.9-0.8,31.8-15.9,31.1-33.8
											c-0.8-17.9-15.9-31.8-33.9-31C58,233.1,44.1,248.2,44.8,266.2z"/>
									</g>
								</g>
							</g>
						</g>
					</g>
				</g>
				<g>
					<g>
						<g>
							<path fill="#133441" d="M99.6,263.8c-0.5-12.3-11-21.9-23.3-21.4c-12.4,0.5-21.9,11-21.4,23.3c0.5,12.3,11,21.9,23.3,21.4
								C90.6,286.5,100.2,276.1,99.6,263.8z M74.5,262.5c-3.5,3.9-8.9,4.8-12.2,1.9c-3.3-2.9-3.1-8.4,0.4-12.3
								c3.5-3.9,8.9-4.8,12.2-1.9C78.2,253,78,258.5,74.5,262.5z M91.8,277.3c-2,2.3-5.2,2.8-7,1.1c-1.9-1.7-1.8-4.8,0.2-7.1
								s5.2-2.8,7-1.1C93.9,271.9,93.8,275,91.8,277.3z"/>
						</g>
					</g>
				</g>
				<g>
					<g>
						<g>
							<path fill="#FFFFFF" d="M184.6,266.2c0.8,17.9,15.9,31.8,33.9,31c17.9-0.8,31.8-15.9,31.1-33.8c-0.8-17.9-15.9-31.8-33.9-31
								C197.7,233.1,183.8,248.2,184.6,266.2z"/>
						</g>
					</g>
				</g>
				<g>
					<g>
						<g>
							<path fill="#133441" d="M239.4,263.8c-0.5-12.3-11-21.9-23.3-21.4c-12.3,0.5-21.9,11-21.4,23.3c0.5,12.3,11,21.9,23.3,21.4
								C230.4,286.5,239.9,276.1,239.4,263.8z M214.6,261.1c-3.9,3.5-9.4,3.6-12.3,0.4c-2.9-3.3-2-8.7,1.9-12.2
								c3.9-3.5,9.4-3.6,12.3-0.4C219.4,252.2,218.5,257.7,214.6,261.1z M233,276.5c-2,2.3-5.2,2.8-7,1.1c-1.9-1.7-1.8-4.8,0.2-7.1
								c2-2.3,5.2-2.8,7-1.1C235.1,271,235,274.2,233,276.5z"/>
						</g>
					</g>
				</g>
			</g>
			<g>
				<g>
					<g>
						<path fill="#133441" d="M100.9,238.5c0.6-5.7-9.5-8.7-20.8-9.6c-10.1-0.8-19.8-2.5-21.9,4.9C54,248.8,99.2,255.7,100.9,238.5z
							"/>
					</g>
				</g>
				<g>
					<g>
						<path fill="#133441" d="M235.5,231.7c-2.8-7.1-12.3-4.5-22.3-2.8c-11.1,2-20.9,5.9-19.8,11.6
							C196.9,257.5,241.2,246.4,235.5,231.7z"/>
					</g>
				</g>
			</g>
		</g>
	</g>
</g>
</svg>
