<?xml version="1.0" encoding="utf-8"?>
<!-- Generator: Adobe Illustrator 17.1.0, SVG Export Plug-In . SVG Version: 6.00 Build 0)  -->
<!DOCTYPE svg PUBLIC "-//W3C//DTD SVG 1.1//EN" "http://www.w3.org/Graphics/SVG/1.1/DTD/svg11.dtd">
<svg version="1.1" id="Layer_1" xmlns="http://www.w3.org/2000/svg" xmlns:xlink="http://www.w3.org/1999/xlink" x="0px" y="0px"
	 width="353.5px" height="418.8px" viewBox="0 0 353.5 418.8" enable-background="new 0 0 353.5 418.8" xml:space="preserve">
<g>
	<g>
		<g>
			<g>
				<g>
					<path fill="#133441" d="M307.2,320.5c-9.2,0-17.6-9.1-25.5-27.9c-1-2.3,0.1-4.9,2.4-5.9c2.3-1,4.9,0.1,5.9,2.4
						c8.8,20.7,15.3,22.6,17.6,22.4c7.3-0.5,15.3-17.6,18.7-29.6c0.7-2.4,3.1-3.8,5.5-3.1c2.4,0.7,3.8,3.1,3.1,5.5
						c-1.6,5.8-10.5,35.1-26.7,36.1C307.8,320.4,307.5,320.5,307.2,320.5z"/>
				</g>
			</g>
			<g>
				<g>
					<g>
						<path fill="#133441" d="M343.4,301.5c-0.2,0-0.4,0-0.6,0c-4.8-0.6-13.8-5.2-15.7-17.7c-3.3-1.1-5.2-3-6.3-4.5
							c-2.9-4.2-1.9-9-1.8-9.6c0.6-2.4,3-3.9,5.4-3.3c2.4,0.6,3.9,2.9,3.3,5.3c0,0.1-0.2,1.6,0.5,2.5c0.7,1,2.3,1.4,3.6,1.5
							c2.2,0.3,3.8,2.1,3.9,4.2c0.5,11.5,8.2,12.7,8.3,12.7c2.4,0.3,4.2,2.6,3.8,5C347.6,299.8,345.6,301.5,343.4,301.5z"/>
					</g>
				</g>
				<g>
					<g>
						<path fill="#133441" d="M344.3,291.4c-11.7,0-16.7-8.8-17-9.2c-0.8-1.5-0.7-3.3,0.2-4.7c1-1.4,2.7-2.1,4.4-1.9
							c1.2,0.2,7.3,0.7,9.5-5.6c0.8-2.3,3.4-3.5,5.7-2.7c2.3,0.8,3.5,3.4,2.7,5.7c-1.6,4.6-4.5,7.5-7.6,9.3c1.6,0.3,3.5,0.2,5.7-0.2
							c2.4-0.5,4.8,1,5.3,3.4c0.5,2.4-1,4.8-3.4,5.3C347.9,291.2,346.1,291.4,344.3,291.4z"/>
					</g>
				</g>
			</g>
		</g>
		<g>
			<g>
				<g>
					<path fill="#133441" d="M50.7,320.5c-0.2,0-0.3,0-0.5,0C32,320,20,288.3,18.7,284.6c-0.8-2.3,0.4-4.9,2.7-5.7
						c2.3-0.8,4.9,0.4,5.7,2.7c4.1,11.5,14.1,29.8,23.3,30c0.1,0,0.1,0,0.2,0c5.9,0,12.5-7.9,18.6-22.4c1-2.3,3.6-3.3,5.9-2.4
						c2.3,1,3.3,3.6,2.4,5.9C69.6,311.4,60.8,320.5,50.7,320.5z"/>
				</g>
			</g>
			<g>
				<g>
					<g>
						<path fill="#133441" d="M10,301.5c-2.2,0-4.1-1.6-4.4-3.9c-0.3-2.4,1.4-4.7,3.8-5c0.7-0.1,7.8-1.6,8.3-12.7
							c0.1-2.2,1.8-4,3.9-4.2c1.2-0.2,2.9-0.5,3.6-1.5c0.7-1,0.5-2.5,0.5-2.5c-0.6-2.4,0.9-4.8,3.3-5.3c2.4-0.6,4.8,1,5.4,3.4
							c0.1,0.5,1.1,5.3-1.8,9.6c-1.1,1.6-3,3.4-6.3,4.5c-1.9,12.5-10.9,17.1-15.7,17.7C10.4,301.4,10.2,301.5,10,301.5z"/>
					</g>
				</g>
				<g>
					<g>
						<path fill="#133441" d="M9.1,291.4c-1.7,0-3.6-0.2-5.6-0.6c-2.4-0.5-4-2.9-3.4-5.3c0.5-2.4,2.9-3.9,5.3-3.4
							c2.2,0.5,4.1,0.5,5.7,0.2c-3.1-1.7-6-4.6-7.6-9.3c-0.8-2.3,0.4-4.9,2.7-5.7c2.3-0.8,4.9,0.4,5.7,2.7c2.4,6.6,9.3,5.6,9.5,5.6
							c1.7-0.3,3.4,0.5,4.4,1.9c1,1.4,1.1,3.2,0.2,4.7C25.9,282.6,20.8,291.4,9.1,291.4z"/>
					</g>
				</g>
			</g>
		</g>
		<g>
			<g>
				<path fill="#133441" d="M237,418.8c-0.1,0-0.2,0-0.4,0c-7.7-0.6-11.7-4.1-12.1-4.4c-1.5-1.4-1.9-3.7-0.9-5.5
					c0.1-0.3,14.3-26.4,2.1-58.1c-0.9-2.3,0.3-4.9,2.6-5.8c2.3-0.9,4.9,0.3,5.8,2.6c10.9,28.4,3.3,52.3-0.7,61.6
					c1,0.3,2.3,0.6,3.9,0.7c2.5,0.2,4.3,2.3,4.1,4.8C241.2,417,239.3,418.8,237,418.8z"/>
			</g>
		</g>
		<g>
			<g>
				<path fill="#133441" d="M125.9,418.8c-2.3,0-4.3-1.8-4.5-4.1c-0.2-2.5,1.6-4.6,4.1-4.8c1.5-0.1,2.8-0.4,3.8-0.7
					c-4.5-9.7-13.4-34.7-0.4-62c1.1-2.2,3.7-3.2,6-2.1c2.2,1.1,3.2,3.7,2.1,6c-14.2,29.9,2,57.4,2.1,57.7c1.1,1.8,0.8,4.2-0.8,5.6
					c-0.4,0.4-4.4,3.8-12.1,4.4C126.1,418.8,126,418.8,125.9,418.8z"/>
			</g>
		</g>
		<g>
			<g>
				<g>
					<path fill="#F7B11E" d="M300.8,244.8c0,66.7-54.1,120.7-120.7,120.7c-66.7,0-120.7-54.1-120.7-120.7
						C59.3,139.4,180.1,0,180.1,0S300.8,139.4,300.8,244.8z"/>
				</g>
			</g>
			<ellipse fill="#F2D487" cx="180.4" cy="285.6" rx="86.2" ry="66.2"/>
			<g>
				<g>
					<g>
						<path fill="#FFFFFF" d="M170.5,41c-0.1-1-1.4-1.7-2.3-1.4c-5.6,1.5-9.3,9-12.4,13.5c-4.2,6-8.2,12-12,18.3
							c-3.8,6.2-7.5,12.5-11,18.9c-2.9,5.4-8.9,13.1-8.4,19.4c0.3,3,3.3,5.9,6.4,4c5.7-3.5,8.1-11.8,11.2-17.6
							c3.5-6.4,6.9-12.9,10.5-19.2c3.6-6.3,7.2-12.7,10.8-19C166.1,52.8,171.3,46.8,170.5,41z"/>
					</g>
				</g>
				<g>
					<g>
						<path fill="#FFFFFF" d="M121,122c-3.1-0.9-5.7,0.9-6.9,3.6c-0.7,1.5-1.3,3.1-2,4.6c-1.1,1.9-2,4-2.6,6.2
							c-0.8,2.8,0.7,5.8,3.5,6.7c3.1,0.9,5.5-0.9,6.7-3.5c1.6-3.6,3.3-7.2,4.9-10.8C125.8,126.2,123.5,122.8,121,122z"/>
					</g>
				</g>
			</g>
		</g>
		<g>
			<g>
				<g>
					<g>
						<g>
							<g>
								<path fill="#B8C8D1" d="M281,276.3c-5.7-3.6-14.8,1.1-21.1,1.6c-6.2,0.5-12.4,0-18.3-2c-4.3-1.5-7.9-3.8-11.1-7
									c-2.7-2.7-4.1-5.9-6.5-8.7c-1.6-1.9-4.5-0.2-4.6,1.9c-0.4,9.6,10.5,18.2,18.2,21.6c6.5,2.8,13.6,3.7,20.6,3.4
									c6.8-0.3,20.4-0.5,23.5-7.7C282.2,278.1,282.1,276.9,281,276.3z"/>
							</g>
						</g>
						<g>
							<g>
								<path fill="#B8C8D1" d="M139.4,260.5c-2.3,2.7-3.6,5.8-6.2,8.4c-3.3,3.3-6.9,5.8-11.4,7.4c-5.7,1.9-11.6,2.5-17.5,2.1
									c-4-0.3-7.8-1.1-11.8-1.9c-3.6-0.8-6.8-1.7-10.1,0.3c-1.1,0.7-1.2,1.8-0.8,2.9c3.1,7.2,16.7,7.5,23.5,7.7
									c7,0.3,14.1-0.6,20.6-3.4c7.8-3.4,18.6-11.9,18.2-21.6C143.9,260.3,141,258.6,139.4,260.5z"/>
							</g>
						</g>
					</g>
					<g>
						<g>
							<path fill="#133441" d="M212.5,262.4c0,0,37-32.6,79.2-51.2C294.9,302.9,217.4,305.7,212.5,262.4z"/>
						</g>
					</g>
					<g>
						<g>
							<path fill="#133441" d="M150,262.4c0,0-24.6-21.7-79.2-51.2C67.6,302.9,145.1,305.7,150,262.4z"/>
						</g>
					</g>
				</g>
				<g>
					<g>
						<g>
							<path fill="#133441" d="M153,316.4c-8.7-14.4,13.1-43.4,28.5-43.4c15.4,0,35.8,31.2,28.5,43.4c-4.2,7-13.9,8.9-28.5,8.9
								C166.9,325.3,157.3,323.5,153,316.4z"/>
						</g>
					</g>
					<g>
						<g>
							<path fill="#FD6C6C" d="M181.7,309.7c-9.3,0-17.2,2.4-23.5,6.2c4.3,4.5,12.1,5.6,23.3,5.6c11,0,18.8-1.2,23.1-5.5
								C198.5,312.2,190.9,309.7,181.7,309.7z"/>
						</g>
					</g>
				</g>
			</g>
			<g>
				<g>
					<g>
						<path fill="#B8C8D1" d="M206.5,266.2c-1.5-4.7-0.9-9.7-0.4-14.5c0.2-1.6-2.5-2-2.8-0.4c-1.8,8.2-3,16.6,2.7,23.5
							c0.6,0.7,1.5,0.8,2.3,0.6c0.2,0,0.4-0.1,0.7-0.1c0.4-0.1,0.9-0.5,0.9-0.9C210.3,271.2,207.4,269.2,206.5,266.2z"/>
					</g>
				</g>
				<g>
					<g>
						<path fill="#B8C8D1" d="M155.8,250.4c0.4,3.7,0.8,7.5,0.3,11.2c-0.5,3.7-1.9,6.9-3.3,10.3c-1.1,2.6,2.9,4.8,4.7,2.7
							c5.7-6.8,3.3-16.8,1.7-24.7C158.7,248.1,155.6,248.5,155.8,250.4z"/>
					</g>
				</g>
				<g>
					<g>
						<path fill="#B8C8D1" d="M193.7,258.1c0.2-1.9-3-2.3-3.3-0.5c-0.5,2.9-0.4,5.7,0.4,8.6c0.8,2.6,5,1.3,4-1.1
							C193.8,262.8,193.5,260.6,193.7,258.1z"/>
					</g>
				</g>
				<g>
					<g>
						<path fill="#B8C8D1" d="M169.7,259.9c-0.1,1.9-0.2,3.9-0.2,5.8c-0.1,2.8,4.4,2.8,4.3,0c-0.1-1.9-0.2-3.9-0.2-5.8
							C173.4,257.5,169.8,257.4,169.7,259.9z"/>
					</g>
				</g>
			</g>
			<g>
				<g>
					<g>
						<g>
							<path fill="#FFFFFF" d="M239.3,188.7c2.6,9,5.6,16.4,2.1,27.6c-2.2,7.2-19.2,31.4-13.5,47.9c7,20.4,46,18.8,45.7-8
								c-0.2-14-11.7-17.4-11.6-34.5c-4.1,5.2-7.6,8.2-7.5,16.7c0,3.1,0.2,3.3-1.2,3.4c-1.5,0.1-0.9-4.4,0.2-9.3
								C260.4,203.7,251.9,198.9,239.3,188.7L239.3,188.7z"/>
						</g>
					</g>
				</g>
				<g>
					<g>
						<path fill="#D72626" d="M267.3,256.4c-0.1-5.5-2.5-8.9-5-12.5c-0.6-0.8-1.2-1.7-1.7-2.5c-0.1,0.5-0.1,1.1-0.3,1.6
							c-0.8,3.1-3.8,5.2-7.4,5.2c-3.4,0-6.2-1.9-6.9-4.8c-0.8-3.1,0.2-7.1,1.4-12.2c1.6-6.8,3.6-14.7,1.7-21.7
							c-0.2,3-0.8,5.9-1.7,8.8c-0.7,2.2-2.2,5.1-4.1,8.9c-5.1,10-12.9,25.2-9.5,35.2c1.2,3.4,3.6,6,7.5,7.8c2.7,1.3,5.8,1.9,8.9,1.9
							c1.4,0,2.8-0.1,4.1-0.4C266.2,269.3,267.4,260.2,267.3,256.4z"/>
					</g>
				</g>
			</g>
			<g>
				<g>
					<g>
						<g>
							<path fill="#FFFFFF" d="M100.6,188.7c2.6,9,5.6,16.4,2.1,27.6c-2.2,7.2-19.2,31.4-13.5,47.9c7,20.4,46,18.8,45.7-8
								c-0.2-14-11.7-17.4-11.6-34.5c-4.1,5.2-7.6,8.2-7.5,16.7c0,3.1,0.2,3.3-1.2,3.4c-1.5,0.1-0.9-4.4,0.2-9.3
								C121.6,203.7,113.1,198.9,100.6,188.7L100.6,188.7z"/>
						</g>
					</g>
				</g>
				<g>
					<g>
						<path fill="#D72626" d="M128.6,256.4c-0.1-5.5-2.5-8.9-5-12.5c-0.6-0.8-1.2-1.7-1.7-2.5c-0.1,0.5-0.1,1.1-0.3,1.6
							c-0.8,3.1-3.8,5.2-7.4,5.2c-3.4,0-6.2-1.9-6.9-4.8c-0.8-3.1,0.2-7.1,1.4-12.2c1.6-6.8,3.6-14.7,1.7-21.7
							c-0.2,3-0.8,5.9-1.7,8.8c-0.7,2.2-2.2,5.1-4.1,8.9c-5.1,10-12.9,25.2-9.5,35.2c1.2,3.4,3.6,6,7.5,7.8c2.7,1.3,5.8,1.9,8.9,1.9
							c1.4,0,2.8-0.1,4.1-0.4C127.5,269.3,128.6,260.2,128.6,256.4z"/>
					</g>
				</g>
			</g>
		</g>
	</g>
</g>
</svg>
