<?xml version="1.0" encoding="utf-8"?>
<!-- Generator: Adobe Illustrator 17.1.0, SVG Export Plug-In . SVG Version: 6.00 Build 0)  -->
<!DOCTYPE svg PUBLIC "-//W3C//DTD SVG 1.1//EN" "http://www.w3.org/Graphics/SVG/1.1/DTD/svg11.dtd">
<svg version="1.1" id="Layer_1" xmlns="http://www.w3.org/2000/svg" xmlns:xlink="http://www.w3.org/1999/xlink" x="0px" y="0px"
	 width="42.4px" height="74.1px" viewBox="0 0 42.4 74.1" enable-background="new 0 0 42.4 74.1" xml:space="preserve">
<g>
	<g>
		<path fill="#F3A396" d="M21.3,74.1L21.3,74.1c-5.9,0-10.7-4.8-10.7-10.7V40.8H32v22.7C32,69.4,27.2,74.1,21.3,74.1z"/>
		<path fill="#1A1A1A" d="M10.7,44.6c0,0,5.9,10.9,12.6,10.4c10.4-0.8,8.6-13.7,8.6-13.7s-4,8.6-10.4,8.6
			C14.4,49.9,10.7,44.6,10.7,44.6z"/>
	</g>
	<g>
		<path fill="#1A1A1A" d="M39,12.4c-0.9-3.2-2.9-7.6-10.2-11C16.7-4,8.5,7.7,8.5,7.7c-3.3-0.3-5,0.9-5.7,3.8C2.2,14,3,18.9,3.4,20.8
			l2.4,12.8l2.3-11.3c2.3-7.5,5.8-10.5,5.8-10.5L25,10.9l11.7,21.6L39,19.7c0.3-1.6,0.4-3.3,0.3-4.9C39.3,13.8,39.2,13,39,12.4z"/>
		<g>
			<path fill="#F3A396" d="M36.4,29.9c0,0,1.4-2.3,4.4-1.2c3,1.1,1.6,8.3-2.8,9.3c0,0-1.6,0.3-2.9-0.7
				C35.2,37.2,36.3,31.9,36.4,29.9z"/>
			<g>
				<g>
					
						<path fill="none" stroke="#D26665" stroke-width="0.6407" stroke-linecap="round" stroke-linejoin="round" stroke-miterlimit="10" d="
						M40.3,31.3c0,0-2.5-0.8-4.3,2.8"/>
				</g>
				
					<path fill="none" stroke="#D26665" stroke-width="0.6407" stroke-linecap="round" stroke-linejoin="round" stroke-miterlimit="10" d="
					M37.2,32.3c0,0,2.7,1.4,0.9,3.6"/>
			</g>
		</g>
		<g>
			<path fill="#F3A396" d="M6,29.9c0,0-1.4-2.3-4.4-1.2c-3,1.1-1.6,8.3,2.8,9.3c0,0,1.6,0.3,2.9-0.7C7.3,37.2,6.2,31.9,6,29.9z"/>
			<g>
				<g>
					
						<path fill="none" stroke="#D26665" stroke-width="0.6407" stroke-linecap="round" stroke-linejoin="round" stroke-miterlimit="10" d="
						M2.2,31.3c0,0,2.5-0.8,4.3,2.8"/>
				</g>
				
					<path fill="none" stroke="#D26665" stroke-width="0.6407" stroke-linecap="round" stroke-linejoin="round" stroke-miterlimit="10" d="
					M5.2,32.3c0,0-2.7,1.4-0.9,3.6"/>
			</g>
		</g>
		<path fill="#F3A396" d="M36.7,23c0,4.4-0.4,13.5-3.1,18.9c-2.5,5.1-6.7,7.8-12.1,8C16.1,50,12,47.9,8.8,41.3
			c-3.3-6.6-3.1-18.2-3.1-18.2S5.7,7.6,21,7.6C37.2,7.6,36.7,23,36.7,23z"/>
		<path fill="#1A1A1A" d="M35.3,9.5C34.9,9.6,22,6,22,6L10.7,9.5c0,0,0,0,0,0c-10,2.7-5.6,12.1-5.6,12.1c4.1-2.1,3.8-6.4,4.6-9.5
			c1.8,2.4,8.8,6.7,17.3,6.6c8.8-0.2,9.7-3.6,9.7-3.6S35.7,9.4,35.3,9.5z"/>
		<g>
			
				<path fill="none" stroke="#D26665" stroke-width="0.6407" stroke-linecap="round" stroke-linejoin="round" stroke-miterlimit="10" d="
				M20.1,27.3v6.9c0,0.2,0,0.3,0.1,0.4c0.2,0.5,0.8,0.8,1.4,0.6l1.2-0.3"/>
			<circle fill="#1A1A1A" cx="14.1" cy="27.8" r="1.5"/>
			<path fill="#1A1A1A" d="M17.1,23.4l0.1-2.8L12,20.8c-0.6,0-1.3,0.2-1.8,0.7l-3,2.5l4.3-0.6L17.1,23.4z"/>
			<circle fill="#1A1A1A" cx="27.4" cy="27.8" r="1.5"/>
			<path fill="#1A1A1A" d="M24.5,23.4l-0.1-2.8l5.1,0.1c0.6,0,1.3,0.2,1.8,0.7l3,2.5l-4.3-0.6L24.5,23.4z"/>
			<g>
				<g>
					<path fill="#1A1A1A" d="M20,37.6c-0.6,0.3-1.1,0.5-1.7,0.7c-0.6,0.2-1.2,0.3-1.8,0.4c-0.6,0.1-1.2,0.1-1.8,0
						c-0.6-0.1-1.2-0.2-1.7-0.4c-0.2-0.1-0.4-0.3-0.3-0.6c0.1-0.2,0.3-0.3,0.5-0.3l0,0c0.5,0.1,1,0.1,1.5,0.1c0.5,0,1-0.1,1.5-0.3
						c0.5-0.1,1-0.3,1.4-0.6c0.4-0.2,0.9-0.5,1.2-0.8c0.4-0.4,1.1-0.3,1.5,0.1c0.4,0.4,0.3,1.1-0.1,1.5C20.1,37.5,20.1,37.5,20,37.6
						z"/>
				</g>
				<g>
					<path fill="#1A1A1A" d="M23.3,35.8c0.3,0.3,0.8,0.6,1.2,0.8c0.4,0.2,0.9,0.4,1.4,0.6c0.5,0.2,1,0.2,1.5,0.3
						c0.5,0.1,1,0,1.5-0.1l0,0c0.2,0,0.5,0.1,0.5,0.4c0,0.2-0.1,0.4-0.3,0.5c-0.6,0.2-1.1,0.3-1.7,0.4c-0.6,0.1-1.2,0.1-1.8,0
						c-0.6-0.1-1.2-0.2-1.8-0.4c-0.6-0.2-1.1-0.4-1.7-0.7c-0.5-0.3-0.7-0.9-0.4-1.4c0.3-0.5,0.9-0.7,1.4-0.4
						C23.2,35.7,23.3,35.8,23.3,35.8z"/>
				</g>
			</g>
			
				<path fill="none" stroke="#D26665" stroke-width="0.4805" stroke-linecap="round" stroke-linejoin="round" stroke-miterlimit="10" d="
				M18.9,44c0,0,1.7,0.5,3.8,0"/>
			<path fill="#FFFFFF" d="M16.2,39.4h9.4c0,0-1.6,2.9-5.1,2.8C17.1,42,16.2,39.4,16.2,39.4z"/>
		</g>
	</g>
</g>
</svg>
