<?xml version="1.0" encoding="utf-8"?>
<!-- Generator: Adobe Illustrator 17.1.0, SVG Export Plug-In . SVG Version: 6.00 Build 0)  -->
<!DOCTYPE svg PUBLIC "-//W3C//DTD SVG 1.1//EN" "http://www.w3.org/Graphics/SVG/1.1/DTD/svg11.dtd">
<svg version="1.1" id="Layer_1" xmlns="http://www.w3.org/2000/svg" xmlns:xlink="http://www.w3.org/1999/xlink" x="0px" y="0px"
	 width="40px" height="74.1px" viewBox="0 0 40 74.1" enable-background="new 0 0 40 74.1" xml:space="preserve">
<g>
	<g>
		<path fill="#F3A396" d="M20.1,74.1L20.1,74.1c-5.9,0-10.7-4.8-10.7-10.7V40.8h21.3v22.7C30.8,69.4,26,74.1,20.1,74.1z"/>
		<path fill="#1A1A1A" d="M9.4,42.6c0,0,5.2,12.3,13.2,12.3c10.4-0.1,8-13.6,8-13.6s-4,8.6-10.4,8.6C13.2,49.9,9.4,42.6,9.4,42.6z"
			/>
	</g>
	<g>
		<path fill="#1A1A1A" d="M38.2,12.4c-0.9-3.2-2.9-7.6-10-11C16.4-4,10.1,7.7,10.1,7.7c-3.2-0.3-5.8,0.8-7.4,3.8
			c-1.4,2.9,0,8.3,0.4,10.2l2.6,11.9L8,22.2c2.2-7.5,5.6-10.5,5.6-10.5l10.8-0.9l11.5,21.6l2.2-12.8c0.3-1.6,0.4-3.3,0.3-4.9
			C38.4,13.8,38.3,13,38.2,12.4z"/>
		<g>
			<path fill="#E88E85" d="M34,29.9c0,0,1.4-2.3,4.4-1.2c3,1.1,1.6,8.3-2.8,9.3c0,0-1.6,0.3-2.9-0.7C32.7,37.2,33.8,31.9,34,29.9z"
				/>
		</g>
		<g>
			<path fill="#F3A396" d="M6.2,29.8c0,0-1.8-2.2-4.6-1.1c-2.9,1.2-1.6,8.3,2.8,9.3c0,0,1.6,0.3,2.9-0.7C7.3,37.2,6.3,31.8,6.2,29.8
				z"/>
			<g>
				<g>
					
						<path fill="none" stroke="#D26665" stroke-width="0.6407" stroke-linecap="round" stroke-linejoin="round" stroke-miterlimit="10" d="
						M2.2,31.3c0,0,2.5-0.8,4.3,2.8"/>
				</g>
				
					<path fill="none" stroke="#D26665" stroke-width="0.6407" stroke-linecap="round" stroke-linejoin="round" stroke-miterlimit="10" d="
					M5.2,32.3c0,0-2.7,1.4-0.9,3.6"/>
			</g>
		</g>
		<path fill="#F3A396" d="M36.7,23c0,4.4-0.4,13.5-3.1,18.9c-2.5,5.1-6.7,7.8-12.1,8C16.1,50,12,47.9,8.7,41.3
			c-3.3-6.6-3.1-18.2-3.1-18.2S5.6,7.6,21,7.6C37.2,7.6,36.7,23,36.7,23z"/>
		<path fill="#1A1A1A" d="M35.3,9.5C34.9,9.6,22,6,22,6L10.7,9.5c0,0,0,0,0,0c-10,2.7-5.6,12.1-5.6,12.1c6.3-2.4,6.3-6.4,7-9.5
			c1.8,2.4,10,6.7,18.5,6.6c8.8-0.2,7.3-3.6,7.3-3.6S35.7,9.4,35.3,9.5z"/>
		<g>
			
				<path fill="none" stroke="#D26665" stroke-width="0.6407" stroke-linecap="round" stroke-linejoin="round" stroke-miterlimit="10" d="
				M20.3,39.5c0,0,4.3,1.4,8.3-0.2"/>
			
				<path fill="none" stroke="#D26665" stroke-width="0.6407" stroke-linecap="round" stroke-linejoin="round" stroke-miterlimit="10" d="
				M26.4,27.3v6.9c0,0.2,0,0.3-0.1,0.4c-0.2,0.5-0.8,0.8-1.4,0.6L23.7,35"/>
			<circle fill="#1A1A1A" cx="18.2" cy="27.8" r="1.5"/>
			<path fill="#1A1A1A" d="M21.1,24.5l0.1-2.8l-5.1,0.1c-0.6,0-1.3,0.2-1.8,0.7l-3,2.5l4.3-0.6L21.1,24.5z"/>
			<circle fill="#1A1A1A" cx="30.7" cy="27.8" r="1.5"/>
			<path fill="#1A1A1A" d="M28.3,24.5l0-2.8l4,0c0.5,0,1,0.2,1.4,0.6l2.3,2.4l-3.4-0.6L28.3,24.5z"/>
			<g>
				<g>
					<path fill="#1A1A1A" d="M24,37.7c-0.6,0.3-1.1,0.5-1.7,0.7c-0.6,0.2-1.2,0.3-1.8,0.4c-0.6,0.1-1.2,0.1-1.8,0
						c-0.6-0.1-1.2-0.2-1.7-0.4c-0.2-0.1-0.4-0.3-0.3-0.6c0.1-0.2,0.3-0.3,0.5-0.3l0,0c0.5,0.1,1,0.1,1.5,0.1c0.5,0,1-0.1,1.5-0.3
						c0.5-0.1,1-0.3,1.4-0.6c0.4-0.2,0.9-0.5,1.2-0.8c0.4-0.4,1.1-0.3,1.5,0.1c0.4,0.4,0.3,1.1-0.1,1.5C24.2,37.7,24.1,37.7,24,37.7
						z"/>
				</g>
				<g>
					<path fill="#1A1A1A" d="M27.4,36.1c0.2,0.2,0.6,0.5,1,0.7c0.4,0.2,0.8,0.4,1.2,0.6c0.4,0.1,0.8,0.2,1.3,0.3
						c0.4,0.1,0.9,0,1.3-0.1l0,0c0.2,0,0.4,0.1,0.5,0.3c0,0.2-0.1,0.4-0.3,0.4c-0.5,0.2-1,0.3-1.6,0.4c-0.5,0.1-1.1,0.1-1.6,0
						c-0.5-0.1-1.1-0.2-1.6-0.4c-0.5-0.2-1-0.4-1.5-0.7c-0.5-0.3-0.6-0.9-0.3-1.4c0.3-0.5,0.9-0.6,1.4-0.3
						C27.3,36,27.3,36,27.4,36.1z"/>
				</g>
			</g>
			<g>
				
					<path fill="none" stroke="#D26665" stroke-width="0.4805" stroke-linecap="round" stroke-linejoin="round" stroke-miterlimit="10" d="
					M22.9,42.2c0,0,1.6,0.6,3.6-0.1"/>
			</g>
		</g>
		<polygon fill="#1A1A1A" points="6.7,17.8 7.3,30.7 5.2,29 5.2,29 3.6,17.1 		"/>
	</g>
</g>
</svg>
