<?xml version="1.0" encoding="utf-8"?>
<!-- Generator: Adobe Illustrator 17.1.0, SVG Export Plug-In . SVG Version: 6.00 Build 0)  -->
<!DOCTYPE svg PUBLIC "-//W3C//DTD SVG 1.1//EN" "http://www.w3.org/Graphics/SVG/1.1/DTD/svg11.dtd">
<svg version="1.1" id="Layer_1" xmlns="http://www.w3.org/2000/svg" xmlns:xlink="http://www.w3.org/1999/xlink" x="0px" y="0px"
	 width="45.3px" height="74.3px" viewBox="0 0 45.3 74.3" enable-background="new 0 0 45.3 74.3" xml:space="preserve">
<g>
	<g>
		<path fill="#F3A396" d="M18.6,74.3L18.6,74.3C13.3,74.3,9,70,9,64.6V38.5h19.3v26.1C28.3,70,24,74.3,18.6,74.3z"/>
		<path fill="#1A1A1A" d="M17.7,39.6c0,0,1,12,10.6,15.5v-8.5l-11.1-6.5"/>
	</g>
	<g>
		<path fill="#1A1A1A" d="M41.6,12.8c-0.9-3.2-2.9-7.6-10-10.9C19.8-3.6,13.6,8,13.6,8c-3.2-0.3-5.8,0.8-7.3,3.8
			c-1.4,2.9,0,8.3,0.4,10.1l2.6,11.9l2.3-11.3c2.2-7.4,5.6-10.5,5.6-10.5l10.8-0.9l5.5,15.1l7.7-5.9c1-0.9,0.9-3.6,0.8-5.3
			C41.8,14.2,41.7,13.3,41.6,12.8z"/>
		<g>
			<path fill="#F3A396" d="M30.8,49.9L30.8,49.9c-7.9,0-14.3-6.4-14.3-14.3V9.7l13.2-1.4c4.9,0,11.5,8.5,11.5,13.4v17.8
				C41.2,45.3,36.6,49.9,30.8,49.9z"/>
			<path fill="#F3A396" d="M40.3,26.1l4.7,8c0.6,0.8,0,1.9-1,1.9L37,36L40.3,26.1z"/>
		</g>
		<path fill="#1A1A1A" d="M40,9.9c-0.3,0.1-9-3.4-9-3.4l-7.7,3.4c0,0,0,0,0,0c-6.8,2.7-4.4,13.6-4.4,13.6c7.3-2.6,8.4-7.9,8.9-11
			c1.2,2.4,8.1,7.2,13.9,7l0.2-4C41.8,15.5,40.3,9.7,40,9.9z"/>
		<polygon fill="#1A1A1A" points="21.4,16.5 20.5,31.1 14.6,27.6 14.6,27.6 16.8,17.5 		"/>
		<g>
			<g>
				<circle fill="#1A1A1A" cx="37.1" cy="28.2" r="1.4"/>
				<path fill="#1A1A1A" d="M39.7,27.3l0.4-2.7L35.1,24c-0.6-0.1-1.3,0.1-1.8,0.4l-3.3,2l4.3,0L39.7,27.3z"/>
			</g>
			<g>
				<path fill="#1A1A1A" d="M40.3,38.2c-0.6,0.3-1.1,0.5-1.7,0.7c-0.6,0.2-1.2,0.3-1.8,0.4c-0.6,0.1-1.2,0.1-1.8,0
					c-0.6-0.1-1.2-0.2-1.7-0.4c-0.2-0.1-0.4-0.3-0.3-0.6c0.1-0.2,0.3-0.3,0.5-0.3l0,0c0.5,0.1,1,0.1,1.5,0.1c0.5,0,1-0.1,1.5-0.3
					c0.5-0.1,0.9-0.3,1.4-0.6c0.4-0.2,0.9-0.5,1.2-0.8c0.4-0.4,1.1-0.3,1.5,0.1c0.4,0.4,0.3,1.1-0.1,1.5
					C40.4,38.1,40.4,38.2,40.3,38.2z"/>
			</g>
			<g>
				
					<line fill="none" stroke="#D26665" stroke-width="0.639" stroke-linecap="round" stroke-linejoin="round" stroke-miterlimit="10" x1="37.6" y1="40.1" x2="41" y2="40.1"/>
				
					<path fill="none" stroke="#D26665" stroke-width="0.4792" stroke-linecap="round" stroke-linejoin="round" stroke-miterlimit="10" d="
					M39.1,42.4c0,0,0.7,0.2,1.5,0"/>
			</g>
		</g>
		<path fill="#1A1A1A" d="M29.5,1.1C18.9-2.9,13,5.3,13,5.3C9,4.6,5.6,7.9,5.6,7.9C-8,19.9,7.5,34.8,7.5,34.8v11.8
			c9.7,0,13-10.4,13-10.4l-0.6-18l0.1-0.1l2.4-5.8l5.5-1.1C27.9,11.2,40.1,5,29.5,1.1z"/>
		<g>
			
				<ellipse transform="matrix(0.9547 -0.2975 0.2975 0.9547 -9.2189 6.6254)" fill="#F3A396" cx="17.2" cy="33.6" rx="4.1" ry="5.1"/>
			<g>
				<g>
					
						<path fill="none" stroke="#D26665" stroke-width="0.639" stroke-linecap="round" stroke-linejoin="round" stroke-miterlimit="10" d="
						M16.2,31.6c0,0,2.5-0.8,4.2,2.8"/>
				</g>
				
					<path fill="none" stroke="#D26665" stroke-width="0.639" stroke-linecap="round" stroke-linejoin="round" stroke-miterlimit="10" d="
					M19.2,32.6c0,0-2.7,1.4-0.9,3.6"/>
			</g>
		</g>
	</g>
</g>
</svg>
