<?xml version="1.0" encoding="utf-8"?>
<!-- Generator: Adobe Illustrator 17.1.0, SVG Export Plug-In . SVG Version: 6.00 Build 0)  -->
<!DOCTYPE svg PUBLIC "-//W3C//DTD SVG 1.1//EN" "http://www.w3.org/Graphics/SVG/1.1/DTD/svg11.dtd">
<svg version="1.1" id="Layer_1" xmlns="http://www.w3.org/2000/svg" xmlns:xlink="http://www.w3.org/1999/xlink" x="0px" y="0px"
	 width="163.7px" height="213.7px" viewBox="0 0 163.7 213.7" enable-background="new 0 0 163.7 213.7" xml:space="preserve">
<g>
	<g>
		<g>
			<g>
				<g>
					<path fill="#FCBB73" d="M130.2,42.7c2.4-6.2,5.6-12.5,11.1-16.2c5.5-3.8,13.8-4.1,18.2,0.9c2.7,3,3.4,7.3,3.7,11.4
						c0.2,4.2-1.9,11.4-5.2,14.2c-3.6,3.1-10.4,1.3-13.2,1.8c-2.9,0.5-2.4,4-5.4,4c-3-0.1-6.1-1.1-8-3.4L130.2,42.7z"/>
					<path fill="#FED7AC" d="M156.1,43.7c-2.5,0.3-4.8,1-6.9,2.2c1.8-0.3,3.6,0.3,5.3,1.1c3.3,1.6,6.1,4,8.2,7
						c-4-2.2-8.9-2.8-13.2-1.5c2,0.6,3.8,1.9,4.9,3.7c-2.7-0.9-5.7-0.6-8.1,0.8c-1.2-2.4-2.4-4.7-3.5-7.1c-0.9-1.9-3-4.1-0.7-5.3
						c2-1.1,4.7-1.5,6.9-1.6C151.1,42.8,153.6,43.4,156.1,43.7z"/>
					
						<linearGradient id="SVGID_1_" gradientUnits="userSpaceOnUse" x1="-957.3498" y1="30.5598" x2="-970.6276" y2="38.7308" gradientTransform="matrix(1 0 0 1 1112.6923 0)">
						<stop  offset="0" style="stop-color:#76262D"/>
						<stop  offset="0.1743" style="stop-color:#7B2A2E"/>
						<stop  offset="0.4001" style="stop-color:#893530"/>
						<stop  offset="0.6542" style="stop-color:#A24631"/>
						<stop  offset="0.927" style="stop-color:#C76030"/>
						<stop  offset="1" style="stop-color:#D4682E"/>
					</linearGradient>
					<path fill="url(#SVGID_1_)" d="M159.6,27.4c-4.4-5-12.8-4.7-18.2-0.9c-5.5,3.8-8.7,10-11.1,16.2l1.2,11.9
						c4.9-3.8,9.8-7.7,9.8-7.7c6.4-7.7,15.4-8.7,15.4-8.7c3.7-0.5,4.7,0,6.6,0.3C164.9,35.6,162.2,30.3,159.6,27.4z"/>
				</g>
				<path fill="#943031" d="M88.7,166.6c0.9,4.3,0.7,8.8-0.6,13c3.3,4.3,6.1,9,8.3,13.9c-2.1,1.6-12.3,2.7-19.4,2.4
					c-4.3-0.2-9.4,0.9-12.2-2.2c-2.6-2.8-2.1-7.2-1-10.9c1.2-3.8,2.8-7.5,5.4-10.6c2.6-3.1,6.2-5.5,10.2-6.2
					c4.1-0.7,8.6,0.4,11.3,3.4L88.7,166.6z"/>
				<path fill="#943031" d="M109.6,141c0.3,1.6-0.1,32.1,4.5,41.6c2.5,0.1,6.1,2.3,7.1,5.8c1,3.4-2,5.4-2,5.4s-7.3,1.7-11.9,0
					l-19.4-49.6L109.6,141z"/>
				
					<linearGradient id="SVGID_2_" gradientUnits="userSpaceOnUse" x1="-1026.9708" y1="178.3509" x2="-999.2607" y2="177.2713" gradientTransform="matrix(1 0 0 1 1112.6923 0)">
					<stop  offset="9.685800e-004" style="stop-color:#F7912F"/>
					<stop  offset="0.2206" style="stop-color:#F78D31"/>
					<stop  offset="0.505" style="stop-color:#F58136"/>
					<stop  offset="0.8237" style="stop-color:#F36E3D"/>
					<stop  offset="0.9949" style="stop-color:#F16040"/>
				</linearGradient>
				<path opacity="0.39" fill="url(#SVGID_2_)" d="M120.6,187.2c-1.4-2.7-4.4-4.4-6.6-4.5c-1.7-3.6-2.7-10.1-3.4-16.9
					c-3.2,9.1-2,22.7,1,23.1C113.9,189.2,118.5,187.8,120.6,187.2z"/>
				
					<linearGradient id="SVGID_3_" gradientUnits="userSpaceOnUse" x1="163.4431" y1="130.5651" x2="142.1454" y2="183.9475" gradientTransform="matrix(-1 0 0 1 204.6801 0)">
					<stop  offset="9.685800e-004" style="stop-color:#F7912F"/>
					<stop  offset="0.2206" style="stop-color:#F78D31"/>
					<stop  offset="0.505" style="stop-color:#F58136"/>
					<stop  offset="0.8237" style="stop-color:#F36E3D"/>
					<stop  offset="0.9949" style="stop-color:#F16040"/>
				</linearGradient>
				<path fill="url(#SVGID_3_)" d="M111.1,135.1c-9.5-9.6-11.5-18.4-9.6-23.1c-1.5,2-4.1,4.8-7.3,4.5c-3.1-0.3-7-8.2-10-8.3
					c-3.5-0.2-7.8-1.2-7.8,0.2c-0.1,4.8,2.2,14.3-8.8,20.2c-19-6-36.5,5-36.8,26.6c-0.2,11.5,3,19.1,4.9,25.4
					c-4.7-0.5-29.3-1.7-35,12c-2.1,5.1,1.6,11,3.9,11.7c6.3,1.2,8.8-3.7,8.9-3.6c-5.8-10.8,26.1-8,32.6-6.7c2.1,0.4,5.3-1.3,5.7-2.1
					l-1.9-8.8c0,0,15.8,2.8,33.5-8.7C101.1,162.9,112.8,150.8,111.1,135.1z"/>
				<g>
					<path fill="#DEA179" d="M96.2,153c0,0-3,2.1-7.7,6.2c-6,5.2-15.4,3-22.4,11.5c-5.9,9.9-3.3,16.9-3.3,16.9s18.1-4.3,36.7-23.9
						c2-2.1,11.6-13.1,12.3-16.6C108.3,145.3,96.2,153,96.2,153z"/>
					<path fill="#FED09D" d="M120.4,143.2c-1.8-0.2-3.6-1-5-2.2c-0.2,1.6,0.1,3.3,0.9,4.8c-3.4,0.6-6.9-1.2-9.1-4s-3-6.3-3.2-9.7
						c-0.1-1.9,0.1-3.8,0.8-5.6c2-4.9,9.4-5.7,9.8,0.3C115.1,132.7,116.2,138.7,120.4,143.2z"/>
					<path fill="#FED09D" d="M92.1,160.3c-1.9-4.5-0.2-3.9-1.7-8.4c2.6-3.7,5.3-8,8-13.2c-1.1-10-21.2-19.6-28-27.1l22-2.4
						c9.2,3.3,20.1,3,22.8,22.1c0.7,4.9-0.1,9.4-1.9,13.5c-3.5,8.1-10.1,11.7-18.3,16.3L92.1,160.3z"/>
					<path fill="#F5B995" d="M95.5,165.3c0,0.1,0,0.1,0.1,0.2C95.6,165.4,95.5,165.3,95.5,165.3L95.5,165.3z"/>
				</g>
				
					<linearGradient id="SVGID_4_" gradientUnits="userSpaceOnUse" x1="-1044.3386" y1="168.5343" x2="-1063.0081" y2="188.901" gradientTransform="matrix(1 0 0 1 1112.6923 0)">
					<stop  offset="0" style="stop-color:#F57E33"/>
					<stop  offset="0.9949" style="stop-color:#F16040"/>
				</linearGradient>
				<path fill="url(#SVGID_4_)" d="M73.9,184.2c4.8-6.5,5.3-11.1,3.5-14.6c-2.5-6.4-11.2-9.3-19.6-6.3c-9.2,2.7-16.7,11.2-17.4,15.7
					c-1,6.5,15.9,14.3,21,18.1c3.7-3.3,4.6-3.4,7.1-6.1l1.3-2.2C70.9,187.5,72.9,185.6,73.9,184.2z"/>
				<path opacity="0.28" fill="#D87146" d="M78,171.2c-0.5,2.9-1.7,5.6-3.8,8.1c-1.9,2.3-4.2,4.3-6.7,5.9c-0.4,0.4-0.9,0.7-1.3,1.1
					c-1.3,1.1-2.7,2-4.2,2.8c-1.1,0.7-2.4,1.3-3.7,2c-0.4,1.7-0.5,3-0.4,3.8c0.6,0.4,1.1,0.7,1.6,1c1.5-1,5-3.1,8.7-5.2
					c0.8-0.8,1.6-1.6,2.3-2.4l0.2,0.2c1.2-1.4,2.2-2.8,3.2-4.3C77.9,178.6,78.9,174.4,78,171.2z"/>
				<path fill="#F16040" d="M58.6,192.1c7.2-1.2,14.1-4.6,18.1-4.6c1.2,0,5.6,1.2,6.7,1.9c2.3,2.2,3.4,6.3,2.8,7.6
					c-0.6,1.4-5.1,4.9-9.4,5.1c-3.6,0.1-26.5-3.1-32.8-3.8c-6.9-0.8-4.9-5.3-2-10.7L58.6,192.1z"/>
				<g>
					<path fill="#943031" d="M63.6,200.6c3.3,0.4,6.4,0.8,9.3,1.1c2.8,0.3,5.4,0.2,7.4-0.5c2-0.7,3.4-1.8,4.3-2.6
						c0.9-0.8,1.4-1.2,1.5-1.2c0,0-0.4,0.6-1.3,1.4c-0.9,0.8-2.3,2-4.4,2.9c-2.1,0.9-4.8,1-7.7,0.7c-2.9-0.2-6-0.6-9.3-1
						c-6.6-0.8-12.6-1.7-16.9-2.4c-2.1-0.4-3.9-0.6-5.1-1.1c-1.2-0.5-1.5-1.2-1.5-1.2c0.1-0.1,0.4,0.6,1.6,0.9
						c1.1,0.3,2.9,0.5,5.1,0.8C51,199,57,199.8,63.6,200.6z"/>
				</g>
				
					<linearGradient id="SVGID_5_" gradientUnits="userSpaceOnUse" x1="-1033.025" y1="197.625" x2="-1040.7474" y2="189.5632" gradientTransform="matrix(1 0 0 1 1112.6923 0)">
					<stop  offset="9.685800e-004" style="stop-color:#F7912F"/>
					<stop  offset="0.2206" style="stop-color:#F78D31"/>
					<stop  offset="0.505" style="stop-color:#F58136"/>
					<stop  offset="0.8237" style="stop-color:#F36E3D"/>
					<stop  offset="0.9949" style="stop-color:#F16040"/>
				</linearGradient>
				<path fill="url(#SVGID_5_)" d="M83.5,189.5c-1.1-0.7-5.5-1.9-6.7-1.9c-3.8,0-7.3,2-13.9,3.2c-0.3,1,0.2,2,1.8,3
					C74.6,195.5,83.7,189.8,83.5,189.5z"/>
				<path fill="#9D3E3A" d="M99.7,10.2c8.2-0.9,12.2-2.1,15.2-4.9c-0.5,2-2.8,6.1-5.1,7.3c1,0.3,3.9,0.9,7.6-0.6
					c-0.5,3.9-2.5,6.5-4.3,6.8c-6.7-1-9.1-2-15.9-2.9c-3.1-0.5-6.3-0.9-9.5-1.1c-2-0.1-5.8,0.8-5.1-1.6
					C83.6,10.2,96.6,10.5,99.7,10.2z"/>
				
					<linearGradient id="SVGID_6_" gradientUnits="userSpaceOnUse" x1="105.9163" y1="16.4497" x2="116.3627" y2="98.0622" gradientTransform="matrix(-1 0 0 1 204.6801 0)">
					<stop  offset="9.685800e-004" style="stop-color:#F7912F"/>
					<stop  offset="0.2206" style="stop-color:#F78D31"/>
					<stop  offset="0.505" style="stop-color:#F58136"/>
					<stop  offset="0.8237" style="stop-color:#F36E3D"/>
					<stop  offset="0.9949" style="stop-color:#F16040"/>
				</linearGradient>
				<path fill="url(#SVGID_6_)" d="M38.2,48.2c0,0,0.3,10.1-6.8,11.7c-3.9,7.7,4.8,47.9,53.4,63c48.5,15,60.4-10.1,64.6-17.5
					c-2.6,0-6.4-3.7-6.4-3.7s14.5-24.8,5.1-48.5C140,32.2,113.5,6.7,86.5,11C46,17.4,38.2,48.2,38.2,48.2z"/>
				<path fill="#FAAD7B" d="M148.3,105.1c-2.4-0.8-5.2-3.5-5.2-3.5s7.2-12.4,8.2-28.1c-6.5-10.4-20.2,4.9-27.7,22.8l13.3,17.3
					C136.8,113.6,143.2,111.3,148.3,105.1z"/>
				<path fill="#9D3E3A" d="M31.3,70.4c0.2,1,0.4,2,0.7,3.1c6.1,8.9,31.1,14.4,36.7,11.2C68.7,84.7,50.1,67.3,31.3,70.4z"/>
				<path fill="#FAAD7B" d="M69.7,87.3c0,0-5.3-16.9-0.9-28.3c5.1-13.3,26.4-28.4,35.7,15.1c7.2,33.5-3.8,45.9-3.8,45.9L69.7,87.3z"
					/>
				<path fill="#9D3E3A" d="M65.1,72.6c-3.6-10-14.4-18.9-26.9-23.1c-0.2,2.8-1.2,9.1-6.7,10.3c0,0.1-0.1,0.2-0.1,0.3
					C42.9,61.3,56.4,64.6,65.1,72.6z"/>
				<path fill="#76262D" d="M144.2,102.6c-0.7-0.6-1.1-1-1.1-1s5.4-6.8,7-19.5c-0.4-1.3-1.2-2.5-2.4-3.5
					c-9.6-7.4-22.4,14.4-22.4,15.3l-1.3,20.3l17.7-7.6C141.6,106.6,142.7,105,144.2,102.6z"/>
				<path fill="#FDE8EA" d="M124.8,94.5c0-0.9,12.1-22.4,20.6-14.9c6.3,5.6-6.2,24.9-6.2,24.9l-15.6,9.7L124.8,94.5z"/>
				<path fill="#FFFFFF" d="M140,78.2c-3.3,0.7-6.6,3.6-9.7,6.6c-3.7,3.7-6.3,8.7-7.1,11.6l0.5,14.5l4.7,1.9
					C132.6,112.2,150.3,84.6,140,78.2z"/>
				<path fill="#76262D" d="M73.7,86.7c-5.6-15.7-5.6-33.2,8-33.9c13.7-0.7,24.6,18.3,20.2,47L73.7,86.7z"/>
				<path fill="#FDE8EA" d="M74.8,87.1c-3.5-13.7-4.1-29.4,8.7-30c12.9-0.6,23.4,17.8,19.2,43.9L74.8,87.1z"/>
				<path fill="#FFFFFF" d="M87.5,63.2c4.4-0.2,8.5,1.8,11.9,5.6c3.8,7.8,5.5,19,3.4,32.2L77.7,88.6C75.3,76.2,76.1,63.7,87.5,63.2z
					"/>
				
					<linearGradient id="SVGID_7_" gradientUnits="userSpaceOnUse" x1="-1023.6862" y1="92.1927" x2="-1026.7753" y2="76.0756" gradientTransform="matrix(1 0 0 1 1112.6923 0)">
					<stop  offset="0" style="stop-color:#FBA819"/>
					<stop  offset="0.9894" style="stop-color:#AD1F23"/>
				</linearGradient>
				<path fill="url(#SVGID_7_)" d="M96.5,84.1c0.8,5.7-2.5,10.7-7.4,11.4c-4.9,0.6-9.5-3.5-10.2-9.1c-0.8-5.7,2.5-10.7,7.4-11.4
					C91.1,74.3,95.7,78.4,96.5,84.1z"/>
				<path fill="#76262D" d="M93.6,84.7c0.5,3.8-1.7,7.2-5,7.6s-6.4-2.3-6.9-6.1c-0.5-3.8,1.7-7.2,5-7.6C90,78.1,93.1,80.9,93.6,84.7
					z"/>
				<path opacity="0.23" fill="#FFFFFF" d="M88.5,85.1c-2.2,1.9-2.5,6.3-0.9,10.4c0.5,0,1,0,1.5,0c4-0.5,6.9-4,7.4-8.4
					C93.9,84.1,90.6,83.2,88.5,85.1z"/>
				
					<linearGradient id="SVGID_8_" gradientUnits="userSpaceOnUse" x1="-982.826" y1="102.1088" x2="-985.4587" y2="90.8256" gradientTransform="matrix(1 0 0 1 1112.6923 0)">
					<stop  offset="0" style="stop-color:#FBA819"/>
					<stop  offset="0.9894" style="stop-color:#AD1F23"/>
				</linearGradient>
				<path fill="url(#SVGID_8_)" d="M131.8,88.5c-1.4-0.7-3.2-0.4-4.8,0.4c-1.9,2.8-3.2,5.6-3.7,7.5l0.3,8.3c0.1,0,0.1,0.1,0.2,0.1
					c3.1,1.4,7.4-1.1,9.6-5.6C135.5,94.7,134.9,89.9,131.8,88.5z"/>
				<path fill="#76262D" d="M130.1,90.6c-1.5-0.7-3.4-0.1-4.9,1.4c-0.9,1.7-1.6,3.3-1.9,4.4l0.2,4.8c0.3,0.3,0.6,0.6,1,0.8
					c2.2,1,5.2-0.8,6.7-3.9C132.7,94.9,132.2,91.5,130.1,90.6z"/>
				<path opacity="0.23" fill="#FFFFFF" d="M133.3,99.2c0.4-0.7,0.7-1.5,0.9-2.3c-1.4-1.3-4-1.5-5.5-1.2c-2.1,0.5-4.1,3.7-5.2,7.1
					l0.1,1.8c0.5,0.2,1.2,0.4,1.4,0.5c0,0,0.1,0,0.1,0C128,105.4,131.4,103.1,133.3,99.2z"/>
				
					<linearGradient id="SVGID_9_" gradientUnits="userSpaceOnUse" x1="136.2165" y1="113.5179" x2="103.8551" y2="179.9003" gradientTransform="matrix(-1 0 0 1 204.6801 0)">
					<stop  offset="9.685800e-004" style="stop-color:#F7912F"/>
					<stop  offset="0.2206" style="stop-color:#F78D31"/>
					<stop  offset="0.505" style="stop-color:#F58136"/>
					<stop  offset="0.8237" style="stop-color:#F36E3D"/>
					<stop  offset="0.9949" style="stop-color:#F16040"/>
				</linearGradient>
				<path fill="url(#SVGID_9_)" d="M78.4,110.3c11.5,4,20.9,23.6,20.5,29.9c-3.4,5.7-2.1,31.5,9.5,47.1c1.4,0,4.5,0.1,5.6,2.3
					c2.1,4.7,1.5,6.6,1.5,6.6s-5.5,5-14.2,2.5c-2.9-0.9-22.5-18.1-21-22c1.9-5,0.9-19.5,0.9-19.5L78.4,110.3z"/>
				<path fill="#9D3E3A" d="M74.7,121.9c-1,1.9-2.6,3.8-5.1,5.5c1.4,2.5,4.6,4.9,6.5,6.6c5.1,4.4,11.3,7.6,17.9,9.3
					C85.7,138.1,78.9,130.6,74.7,121.9z"/>
				
					<linearGradient id="SVGID_10_" gradientUnits="userSpaceOnUse" x1="-1018.3892" y1="127.3374" x2="-1017.0314" y2="143.9702" gradientTransform="matrix(1 0 0 1 1112.6923 0)">
					<stop  offset="0" style="stop-color:#D87146"/>
					<stop  offset="0.6257" style="stop-color:#EFC5AE"/>
					<stop  offset="0.9975" style="stop-color:#FFFFFF"/>
				</linearGradient>
				<path opacity="0.83" fill="url(#SVGID_10_)" d="M115.3,131.3c-0.7-5.2-2.1-9-3.9-11.8c-11.5-3.5-30.5-5.3-39-5.9
					c1.1,1,2.4,2,3.8,3.1c-0.3,2.1-0.9,4.2-2.3,6.3c2.4-0.5,17.6,7.9,24.2,17.5C105.6,142,115.4,132,115.3,131.3z"/>
				
					<radialGradient id="SVGID_11_" cx="-994.9855" cy="103.8977" r="41.2977" gradientTransform="matrix(1 0 0 1 1112.6923 0)" gradientUnits="userSpaceOnUse">
					<stop  offset="0" style="stop-color:#FFEBD7"/>
					<stop  offset="0.2135" style="stop-color:#FEE1C2"/>
					<stop  offset="0.4134" style="stop-color:#FEDAB3"/>
					<stop  offset="0.5265" style="stop-color:#FED7AC"/>
					<stop  offset="0.7775" style="stop-color:#FED2A0"/>
					<stop  offset="1" style="stop-color:#FED09D"/>
				</radialGradient>
				<path fill="url(#SVGID_11_)" d="M143,101.6c0,0,0.1-0.2,0.2-0.5c-11.6,5.2-18.4,9.5-31.9,3.6c-8.8-9.2-33.5-17.9-42.6-20.2
					c-9.2-2.3-12.8-2.9-14.9-5.1c-1-2-2-3.6-2-3.6s-2,3.3-0.1,10.4c-1.8,0.2-4.5,0-6.8-1.8c3.7,25.3,23.5,32.8,39.9,38.4
					c48,16.5,60.4-10.1,64.6-17.5C146.9,105.3,143,101.6,143,101.6z"/>
				<g>
					<path fill="#76262D" d="M103.2,116.5C103.2,116.5,103.2,116.5,103.2,116.5L103.2,116.5z"/>
					<path fill="#76262D" d="M121.5,118.8c-0.6,0.1-4.9,0.6-5.3,0.6c-1.2,0.1-2.7,0.2-3-1.7c-0.2-1,1.1-2.4,1.5-3.6
						c-0.5,0.2-1.7,1.6-4.1,2.3c-1.7,0.5-3.7,0.5-5.2-0.4c-2.2-1.3-3.5-2.6-4.2-3.8c-0.2-0.3-0.4,1.1,2,4.1c1.8,2.3,5.6,2.9,8.3,1.9
						c0.3,1.4,1.6,2.4,3.1,2.3C116.6,120.4,121.2,119.1,121.5,118.8z"/>
				</g>
				<path fill="#F99E32" d="M105.5,103.4c-1.6-2.9-3.5-5.8-2.7-8.6c1.1-4,2.5-6,9.7-4.7c8.7,1.5,10.5,3.7,13.9,6.9
					c3.1,3,7.5,7.2,6.2,9c-2.5,0.8-11.5,2-18,0.3C108.1,104.6,105.5,103.4,105.5,103.4z"/>
				<path opacity="0.3" fill="#FFFFFF" d="M106.7,91.7c1.4-1.8,7.3-1.2,11.7-0.3c-1.6-0.5-3.5-1-6-1.4c-7.1-1.3-9.1,0.8-9.8,4.7
					c-0.6,3.3,1.3,5.7,2.9,8.6c0,0,1,0.5,3.6,1.3c1.4-0.5,4.4-1.1,4.4-1.1S104.2,94.9,106.7,91.7z"/>
				<path fill="#9D3E3A" d="M82.4,11.8c-5.7,1.2-10.6,2.9-15,4.9c0.6,0,0,0.9,0.6,0.9c12-1.3,25.5,0,35.8,27.4c0.4,1,1,0.9,0.9-0.1
					C103.1,24.4,96,11.7,82.4,11.8z"/>
				<path fill="#9D3E3A" d="M124.5,58.6c4.2-18.5,1.6-32.1-4.6-39.3c-7.5-5.1-16.5-8.9-25.2-8.8c4.9,1.2,10.4,3.5,17.1,12.4
					c5.9,7.8,11.1,18.7,11.7,35.8C123.7,59.8,124.3,59.8,124.5,58.6z"/>
				<path fill="#9D3E3A" d="M135.2,32.6c1.5,6,1.7,14.3,0.5,21.6c-0.1,0.6,0.7,0.6,1.2,0c2.5-3.2,4.3-8.2,5.3-12.5
					C140.2,38.7,137.8,35.6,135.2,32.6z"/>
				<path opacity="0.15" fill="#FBEF57" d="M87.2,14c-5.2,0.8-9.9,2.1-14.1,3.6c-0.5,0.7-1,1.4-1.3,2.1c-3,8.1,9.4,19.8,27.7,26.1
					c18.3,6.3,35.7,4.7,38.7-3.4c0.4-1.1,0.5-2.3,0.4-3.6C126.4,23.6,106.9,10.9,87.2,14z"/>
				<path fill="#76262D" d="M104.3,99.5c0,0,0.1,4,1.2,4.3c4.1,1.3,7.3,2.5,9.8,4.9c0.4,0.8,0.2,1.6-0.1,2.2c0.2,0.5,2.7,1,2.7,1
					l2.8-1.7c5.9-0.2,8.9-1.6,8.9-1.6s2-1.3,3.1-3C123.9,108.2,111.3,103.4,104.3,99.5z"/>
				<path opacity="0.16" fill="#FFFFFF" d="M125.1,106.3c-1.2,1.4-2.6,2.7-4,4c5.6-0.2,8.5-1.6,8.5-1.6s2-1.3,3.1-3
					C130.4,106.3,127.8,106.5,125.1,106.3z"/>
				<g>
					<path fill="#61232A" d="M104.3,99.5l-0.4,0c0,0,0,1,0.2,2.1c0.1,0.5,0.2,1.1,0.4,1.6c0.1,0.2,0.2,0.4,0.3,0.6
						c0.1,0.2,0.3,0.3,0.6,0.4c4.1,1.3,7.2,2.5,9.6,4.8l0.3-0.3l-0.3,0.2c0.1,0.3,0.2,0.5,0.2,0.8c0,0.4-0.1,0.8-0.3,1.1
						c0,0.1,0,0.2,0,0.3c0.1,0.2,0.2,0.3,0.3,0.4c0.2,0.1,0.5,0.3,0.7,0.4c0.8,0.3,1.9,0.5,1.9,0.5l0.3,0l2.8-1.7l-0.2-0.3l0,0.4
						c6-0.2,9-1.6,9.1-1.7l0,0c0,0,2-1.3,3.2-3.2c0.1-0.1,0.1-0.3,0-0.4c-0.1-0.1-0.3-0.2-0.4-0.1c-1.7,0.5-3.5,0.7-5.4,0.7
						c-7.8,0-17.1-3.7-22.7-6.8c-0.1-0.1-0.3-0.1-0.4,0c-0.1,0.1-0.2,0.2-0.2,0.3L104.3,99.5l-0.2,0.3c5.7,3.1,15,6.9,23,6.9
						c2,0,3.9-0.2,5.6-0.8l-0.1-0.4l-0.3-0.2c-0.5,0.8-1.3,1.6-1.9,2.1c-0.3,0.3-0.6,0.5-0.8,0.6c-0.1,0.1-0.2,0.1-0.2,0.2l-0.1,0.1
						l0.2,0.3l-0.2-0.3l0,0c-0.3,0.1-3.2,1.4-8.7,1.6l-0.2,0.1l-2.8,1.7l0.2,0.3l0.1-0.4c0,0-0.2,0-0.4-0.1
						c-0.4-0.1-0.9-0.2-1.3-0.4c-0.2-0.1-0.4-0.2-0.6-0.2l-0.1-0.1l0,0l-0.1,0.1l0.1,0l0,0l-0.1,0.1l0.1,0l-0.4,0.1l0.4,0.1
						c0.2-0.4,0.3-0.9,0.3-1.4c0-0.4-0.1-0.8-0.3-1.1l-0.1-0.1c-2.6-2.4-5.8-3.6-9.9-5c0,0-0.1,0-0.2-0.1c-0.1-0.2-0.3-0.5-0.4-0.9
						c-0.2-0.6-0.3-1.3-0.3-1.9c0-0.3,0-0.5,0-0.7c0-0.2,0-0.3,0-0.3L104.3,99.5l-0.2,0.3L104.3,99.5z"/>
				</g>
				<g>
					<path fill="#FFFFFF" d="M110.2,102.8c1.5,0.7,2.7,1.2,2.6,1.6c0,0.4-1.6,0.4-3.2-0.4c-1.6-0.7-2.6-1.8-2.4-2.1
						C107.4,101.7,108.7,102.2,110.2,102.8z"/>
				</g>
				<path fill="#9D3E3A" d="M53.3,172.4c-4.5-1.2-9.2-1.4-13.4-3.4c-3.2-1.4-5.9-3.8-7.8-6.7c-0.5-0.8-0.9-1.5-1.2-2.3
					c0.4,5.3,1.4,9.7,2.6,13.6c5.1,0.8,10.4,0.6,15.5,1.1c5.4,0.5,11,2,14.9,5.7C62.4,176.1,57.8,173.6,53.3,172.4z"/>
				<path opacity="0.22" fill="#FBEF57" d="M58.8,178.7c2,1.4,5.2,1.7,6.8,3.5c2-0.7,3.5-3.1,4.8-6.5c2.2-5.8,1.4-12.8-6.5-12.3
					c-3.3,0.2-11.1,1.8-17.1,9.1C40.9,180.5,54.9,176.1,58.8,178.7z"/>
				
					<radialGradient id="SVGID_12_" cx="-1058.6656" cy="171.4759" r="37.4481" gradientTransform="matrix(1 0 0 1 1112.6923 0)" gradientUnits="userSpaceOnUse">
					<stop  offset="9.685800e-004" style="stop-color:#F7912F"/>
					<stop  offset="0.2206" style="stop-color:#F78D31"/>
					<stop  offset="0.505" style="stop-color:#F58136"/>
					<stop  offset="0.8237" style="stop-color:#F36E3D"/>
					<stop  offset="0.9949" style="stop-color:#F16040"/>
				</radialGradient>
				<path fill="url(#SVGID_12_)" d="M13.9,194.4c-1.8,5.6,17.1,6,20.2,5.8c9.3-0.9,18.3-2.2,16.9-12.5c-1.2-9.1,3.4-17.1,15.5-8
					c7,5.3,5,15.1,0,21.1c-12,14.6-38.1,14.9-54.6,9c-7.1-2.5-14.7-9.3-10.4-17.6c1.7-3.2,4.1-4.2,7.5-3.3
					C11.4,189.5,14.8,191.4,13.9,194.4z"/>
				<circle fill="#FFFFFF" cx="134.3" cy="91.3" r="1.6"/>
				<ellipse fill="#FFFFFF" cx="91.3" cy="78.1" rx="2.2" ry="2.4"/>
				<path fill="#9D3E3A" d="M57.6,183.2c-2.8-1.8-6.4-2.5-9.8-2.9c-4.5-0.6-9.3-0.8-13.2-3.2c-0.1,0-0.1-0.1-0.2-0.1
					c0.4,1.3,0.8,2.5,1.1,3.6c0.1,0.3,0.4,1.1,0.6,1.3c4.1,2.6,9,3.6,13.8,3.4c0.1,0,2.9,0.3,3,0.3l-0.3-2.1
					C52.7,183.6,52.8,183.6,57.6,183.2z"/>
				<path fill="#FED09D" d="M66.5,179.7c-12.1-9.1-16.7-1.1-15.5,8c0.4,3.2-0.2,5.6-1.5,7.3c1-0.3,2.1-0.4,3.2-0.4
					c3.2,0.1,6.3,2.1,7.5,5c1.2,2.9,0,6.7-2.8,8.2c0.1,0.1,0.2,0.1,0.3,0.2c3.4-1.9,6.5-4.2,8.9-7.2C71.5,194.7,73.5,185,66.5,179.7
					z"/>
				<path fill="#9D3E3A" d="M17,192.5c1.7-3.4,0.8-7.8-1.7-10.6c-3,0.7-6,1.8-8.6,3.5c1.6-0.3,3.2-0.1,4.7,0.5
					C14.2,187,16.4,189.5,17,192.5z"/>
				<path fill="#9D3E3A" d="M32.6,186.9c0.9-2,0.9-4.5,0.2-6.6c-1.4-0.1-3-0.1-4.9,0c1.9,2.3,1.8,7.7,0.7,11.2
					C30.2,190.4,31.7,188.9,32.6,186.9z"/>
				<path fill="#9D3E3A" d="M14.3,195.4c0.3-0.2,0.6-0.4,0.9-0.6c-2.1-4.3-7.3-6.7-11.7-5.2c-0.7,0.2-1.3,0.5-1.8,0.9
					c-0.4,0.6-0.7,1.3-1,2c-0.9,2.1-0.7,4.4-0.1,6.4c0.3,1.6,1.1,3.1,2.2,4.4c-1.3-2.9-0.7-6.7,1.6-8.8
					C7.1,192,11.9,192.4,14.3,195.4z"/>
				<path fill="#9D3E3A" d="M20.3,205.4c0.8-2.8,2.7-4.5,5.5-5.5c-1.8-0.2-3.8-0.4-5.5-0.8c-1.8,0.8-3.3,2.1-4.1,3.5
					c-1.3,2.5-1.9,5.3-1.6,8c2.3,0.7,4.8,1.3,7.4,1.7C20.5,210.3,19.6,207.7,20.3,205.4z"/>
				<path fill="#9D3E3A" d="M34,213.4c2.6,0,5.3-0.2,7.9-0.5c0-2.9-1.9-9.5-6.4-12.9c-0.2,0-0.5,0-0.7,0.1
					C35.8,204.6,35.8,209,34,213.4z"/>
				
					<linearGradient id="SVGID_13_" gradientUnits="userSpaceOnUse" x1="-1004.6616" y1="194.3273" x2="-1006.5861" y2="187.7575" gradientTransform="matrix(1 0 0 1 1112.6923 0)">
					<stop  offset="9.685800e-004" style="stop-color:#F7912F"/>
					<stop  offset="0.2206" style="stop-color:#F78D31"/>
					<stop  offset="0.505" style="stop-color:#F58136"/>
					<stop  offset="0.8237" style="stop-color:#F36E3D"/>
					<stop  offset="0.9949" style="stop-color:#F16040"/>
				</linearGradient>
				<path fill="url(#SVGID_13_)" d="M113.9,189.7c-1.9-2.7-4.3-2.4-5.4-2.4c-3.4,0.8-7.3,2.7-8.2,5.1
					C103.8,194.3,114.3,190.2,113.9,189.7z"/>
				<path opacity="0.28" fill="#D87146" d="M66.5,179.7c-1.5-1.1-2.9-2-4.1-2.6c0.7,0.7,7.9,4.4,3.8,17.4c-1.3,4.2-5,7.2-8.4,9.9
					c-9.1,7.1-23.4,8.8-34.3,8.3c15.3,2.3,33.5-0.3,43-11.8C71.5,194.7,73.5,185,66.5,179.7z"/>
				
					<linearGradient id="SVGID_14_" gradientUnits="userSpaceOnUse" x1="-1020.0814" y1="70.5127" x2="-1061.5392" y2="93.9974" gradientTransform="matrix(1 0 0 1 1112.6923 0)">
					<stop  offset="1.106950e-003" style="stop-color:#FFFFFF"/>
					<stop  offset="0.3191" style="stop-color:#EEC4AD"/>
					<stop  offset="0.6448" style="stop-color:#E29672"/>
					<stop  offset="0.8805" style="stop-color:#DB7B52"/>
					<stop  offset="1" style="stop-color:#D87146"/>
				</linearGradient>
				<path opacity="0.4" fill="url(#SVGID_14_)" d="M31.5,59.8c-3.2,6.3,2.2,34.8,31.3,53c3.5,2.3,7.3,4.2,11.1,5.8
					c3.4,1.5,7.1,2.9,11,4.1l0,0c7,2.4,13.2,3.9,18.8,4.6c-4.2-2.1-6.8-5.6-8-6.7C66,112.8,53.7,95.1,51.5,76
					c-1.4-12.4,0.1-26.3,8.3-36.9c-3-1.9-10.8-4.3-14.2-5.1c0,0,0,0,0,0c-3.9,5.3-5.9,10-6.8,12.4l0,0c-0.1,0.2-0.1,0.4-0.2,0.6
					c0,0,0,0,0,0c-0.1,0.2-0.1,0.3-0.2,0.5c0,0,0,0,0,0c-0.1,0.4-0.2,0.6-0.2,0.6S38.6,58.3,31.5,59.8z"/>
				
					<linearGradient id="SVGID_15_" gradientUnits="userSpaceOnUse" x1="-1085.1343" y1="20.0457" x2="-1042.7018" y2="32.7501" gradientTransform="matrix(1 0 0 1 1112.6923 0)">
					<stop  offset="0" style="stop-color:#76262D"/>
					<stop  offset="0.1743" style="stop-color:#7B2A2E"/>
					<stop  offset="0.4001" style="stop-color:#893530"/>
					<stop  offset="0.6542" style="stop-color:#A24631"/>
					<stop  offset="0.927" style="stop-color:#C76030"/>
					<stop  offset="1" style="stop-color:#D4682E"/>
				</linearGradient>
				<path fill="url(#SVGID_15_)" d="M64.1,6.9C58.6,1.4,49.7,0.1,44.9,0c-6.4-0.1-12.6,3.3-16.6,8.1C21.8,15.8,21,32.3,25.9,41
					c5.2,9.5,19.2,10.4,23.7,10.4c6.1-12.2,20.8-13.7,20.8-13.7C70.9,28.3,69.2,12,64.1,6.9z"/>
				
					<linearGradient id="SVGID_16_" gradientUnits="userSpaceOnUse" x1="150.7154" y1="53.1941" x2="162.8395" y2="16.8217" gradientTransform="matrix(-1 0 0 1 204.6801 0)">
					<stop  offset="0" style="stop-color:#FED4A8"/>
					<stop  offset="6.104374e-003" style="stop-color:#FED4A7"/>
					<stop  offset="0.9516" style="stop-color:#FCB96E"/>
				</linearGradient>
				<path fill="url(#SVGID_16_)" d="M63.8,39.4c0.5-5.2-1-11-3.5-15.5c-2.6-4.5-6.3-8-10.3-10.3c-2.9-1.6-6.2-2.7-9.2-2.1
					c-4.1,0.8-7.4,4.5-9.1,9c-2.7,7.1-1.1,16.9,4.6,24c2,1.5,4.8,3.5,14.1,5.5c2.3-3.9,5.4-6.6,8.6-8.4C61.9,40,63.8,39.4,63.8,39.4
					z"/>
				<path fill="#9D3E3A" d="M102.7,177.1c-5.9-1.6-11.5,5.9-12.2,13.1c0.7,0.7,1.5,1.4,2.2,2c0.7-4.4,8.6-9.2,12.6-9.7
					C104.3,180.8,103.5,179,102.7,177.1z"/>
				<g>
					<path fill="#943031" d="M115.6,195.8c-0.8,0.9-3.6,2.6-6.8,3.1c-2.3,0.3-6.6,0-7.4-0.1c0.7,0.3,3.9,1.2,7.4,1
						c2.1-0.3,5.7-2.5,6.6-3.3C115.5,196.3,115.5,195.9,115.6,195.8z"/>
				</g>
				<g>
					<path fill="#943031" d="M34.6,213c5.6-0.2,10.5-1.1,14.1-2c1.8-0.4,3.2-0.8,4.2-1.1c1-0.3,1.5-0.5,1.5-0.4c0,0-0.5,0.3-1.4,0.7
						c-1,0.4-2.4,0.8-4.1,1.3c-3.5,1-8.5,1.9-14.2,2.2c-5.6,0.2-10.7-0.7-14.3-1.4c-1.8-0.4-3.2-0.8-4.2-1.1c-1-0.3-1.5-0.5-1.5-0.5
						c0,0,0.6,0.1,1.6,0.3c1,0.2,2.4,0.5,4.2,0.8C24,212.4,29,213.2,34.6,213z"/>
				</g>
				<path fill="#9D3E3A" d="M52,210.5c0.3-2.2-0.2-4.5-1.2-6.5c-1.5-2.8-4-4.8-6.9-5.5c-0.9,0.3-1.8,0.5-2.8,0.7
					c2.8,0.6,5.4,2.1,7,4.7c1.4,2.1,2.1,5.1,1.2,7.5C50.2,211.1,51.1,210.8,52,210.5z"/>
				<path opacity="0.27" fill="#FEF491" d="M55.4,198.2c0,0,0-0.1,0.1-0.1c0.8-1.4,1.8-2.8,1.7-4.5c-0.1-0.9-0.4-1.5-1-1.8
					c-0.6,0-1.2,0-1.8-0.2c-0.9,0.1-1.8,0.5-2.7,0.9c-0.9,5.8-10,8.4-19.8,8.4c-10.7,0-16.4-2.5-17.7-2.5c-3.5,0,5.5,7.4,18.5,7.1
					C41.8,205.5,50.3,203.1,55.4,198.2z"/>
				<path opacity="0.45" fill="#FBEF57" d="M53.7,188.9c2.8,1.7,6.3-0.2,7.2-3.1c0.3-5.5-2-8.4-4.5-8.4c-1.7,0-4.6,1.1-4.5,9.6
					C52.4,187.8,52.9,188.4,53.7,188.9z"/>
				<path fill="#9D3E3A" d="M42.2,149c-3.2-2.6-6.4-5.4-7.6-9.2c-1.3,2.3-2.3,4.8-3,7.6c1.4,3.8,6.1,6.7,10.6,8.2
					c4.9,1.6,9.6,2.6,13.1,4.3c0.4,0.2,0.7-0.3,0.4-0.6C52.6,155.5,46,152.1,42.2,149z"/>
				<path fill="#9D3E3A" d="M61.6,144.2c-1.4-4.3-2.9-8.5-5.2-12.4c-0.9-1.6-2-3.1-3.1-4.6c-2.9,0.4-5.7,1.3-8.2,2.6
					c1.2,2,4.2,4.1,5.5,5.2c3.2,2.7,7.8,5.7,10.5,9.5C61.8,145.6,62,145.4,61.6,144.2z"/>
				<path fill="#9D3E3A" d="M98.9,165.1c-3.2,0.1-6.3,1.5-8.8,3.6c-2.8,2.3-4.9,5.4-6.4,8.6c3.3-4,8.9-5.3,14-5.9
					c1-0.1,2-0.2,2.9,0.1C100,169.4,99.4,167.2,98.9,165.1z"/>
				<path fill="#9D3E3A" d="M81.9,152.5c4.3,1.9,9.5,2,13.4-0.6c-1.1,0.7-6.2-1.5-7.4-1.9c-2.6-0.9-5.2-2.1-7.6-3.5
					c-4.8-2.8-8.7-6.4-12.3-10.5C70.1,142.9,75.1,149.5,81.9,152.5z"/>
				<path opacity="0.45" fill="#9C5E3C" d="M24.4,184.9c-9.3,2.6-10.8,8.2-10.3,10.7c4.1-3.5,17.2-3.3,25.6-2.5
					c0.5-1,1.1-2.3,1.3-2.8c-2.3-4.4-4.2-6.5-4.2-6.5S30.5,183.1,24.4,184.9z"/>
				<g>
					<path fill="#943031" d="M108.9,192.8c0.5,0.7,0.9,4.7,0.9,4.9c0,0.3-1.3-3.4-1.7-4.4c-0.3-0.6-1.7-1.8-2-2.1
						C106.6,191.5,108.2,192.1,108.9,192.8z"/>
				</g>
				<g>
					<path fill="#943031" d="M113.4,191.5c0.2,0.7,0.3,2.9,0.3,3.5c-0.7-3.3-1.6-4.3-1.9-4.8C112.3,190.6,113,191,113.4,191.5z"/>
				</g>
				<path opacity="0.18" fill="#FBEF57" d="M58.9,127c-11.7-0.5-21.8,5.6-26,16.6c-1,4.1-1.3,7.6-0.3,9.7c1.1,2.3,19.9-18.6,25-22.8
					C60.1,128.4,60,127.4,58.9,127z"/>
				<g>
					<path opacity="0.68" fill="#9B3430" d="M97.4,126.4c7.3,1.4,14.1,1.7,14.7,1.8c0,0.3-11.1,2.8-16.6,1.4
						c-3.7-2.4-7.5-4.9-11.1-6.8C84.2,122.6,93.6,125.8,97.4,126.4z"/>
				</g>
				<path fill="#FED7AC" d="M63.8,39.5c-6.5-8.6-15.8-9.1-17.3-9.3c2,0.8,4.7,2.5,6.3,4.4C46.9,34.5,41,36.1,36,39.2
					c4.7,0.4,9.3,1.5,13.6,3.4C42.5,44,38.4,47.3,35,51.9c2.6-1,5.2-2.1,7.9-2.5c2.4-0.4,5-0.1,7.2,1C53.3,45.3,56.4,42.6,63.8,39.5
					z"/>
			</g>
		</g>
		<path fill="#9D3E3A" d="M101.2,53.7c0,0-5.8-11.3-13.2-14.6c-5.9,0.3-11.7,8.6-11.7,8.6c3.7-1.5,9.6-1.2,11.2-1.4
			C89.9,46.5,101.2,53.7,101.2,53.7z"/>
		<path fill="#9D3E3A" d="M150.2,59.9c-3.7,0.9-10.6,8.6-10.6,8.6s9.2-1.4,11.7-0.2C151.2,65.6,150.9,62.7,150.2,59.9z"/>
		<g>
			<path fill="#B33A2E" d="M83,161.8c-0.1,3.8-1.5,9.3-1.7,9.2c0.1-1.7,0.1-4.2,0-9.1c-0.1-4.9-0.2-6.4-0.3-6.7
				C81.4,155.6,82.9,161,83,161.8z"/>
		</g>
	</g>
</g>
</svg>
