<?xml version="1.0" encoding="utf-8"?>
<!-- Generator: Adobe Illustrator 17.1.0, SVG Export Plug-In . SVG Version: 6.00 Build 0)  -->
<!DOCTYPE svg PUBLIC "-//W3C//DTD SVG 1.1//EN" "http://www.w3.org/Graphics/SVG/1.1/DTD/svg11.dtd">
<svg version="1.1" id="Layer_1" xmlns="http://www.w3.org/2000/svg" xmlns:xlink="http://www.w3.org/1999/xlink" x="0px" y="0px"
	 width="221.4px" height="132.3px" viewBox="0 0 221.4 132.3" enable-background="new 0 0 221.4 132.3" xml:space="preserve">
<g>
	<g>
		<radialGradient id="SVGID_1_" cx="29.7397" cy="106.9982" r="14.8559" gradientUnits="userSpaceOnUse">
			<stop  offset="5.586590e-003" style="stop-color:#008B60"/>
			<stop  offset="1" style="stop-color:#004F53"/>
		</radialGradient>
		<path fill-rule="evenodd" clip-rule="evenodd" fill="url(#SVGID_1_)" d="M38,114.2c0,7.7-6.3,14-14,14s-15.4-6.9-15.4-14.6
			S17,98.4,24.7,98.4C32.5,98.4,38,106.5,38,114.2z"/>
		<g>
			<radialGradient id="SVGID_2_" cx="27.2319" cy="116.9958" r="12.4243" gradientUnits="userSpaceOnUse">
				<stop  offset="5.586590e-003" style="stop-color:#008B60"/>
				<stop  offset="1" style="stop-color:#004F53"/>
			</radialGradient>
			<path fill="url(#SVGID_2_)" d="M19,125.6c-2.8,0-5.2-0.8-6.9-2.5c-0.2-0.2-0.2-0.5,0-0.7c0.2-0.2,0.5-0.2,0.7,0
				c4.1,3.8,10.8,1.8,14.4,0.3c7.7-3.3,14.3-9.4,14.4-11.5c0-0.5-0.1-0.9-0.5-1.2c-0.9-0.8-3.1-0.7-3.8-0.6c-0.3,0-0.5-0.2-0.6-0.4
				c0-0.3,0.2-0.5,0.4-0.6c0.1,0,3.1-0.4,4.6,0.9c0.6,0.5,0.8,1.1,0.8,1.9c0,3-7.7,9.4-15,12.4C24.4,125,21.5,125.6,19,125.6z"/>
		</g>
		<g>
			<radialGradient id="SVGID_3_" cx="22.3744" cy="118.3514" r="11.5088" gradientUnits="userSpaceOnUse">
				<stop  offset="5.586590e-003" style="stop-color:#008B60"/>
				<stop  offset="1" style="stop-color:#004F53"/>
			</radialGradient>
			<path fill="url(#SVGID_3_)" d="M27.4,123.6c-2.6,0-5.8-0.4-9.7-1.6c-7-2.1-10.5-4.2-10.8-6.4c-0.2-1.5,1.4-2.4,1.4-2.4
				c0.2-0.1,0.5,0,0.7,0.2c0.1,0.2,0,0.5-0.2,0.7l0,0c0,0-1,0.6-0.9,1.5c0.1,1,1.6,3,10.1,5.5c13.7,4.1,18.3-1,18.7-2.6
				c0.1-0.3,0.4-0.4,0.6-0.3c0.3,0.1,0.4,0.4,0.3,0.6C37.7,118.8,35.8,123.6,27.4,123.6z"/>
		</g>
		<g>
			<radialGradient id="SVGID_4_" cx="25.4122" cy="110.4283" r="14.246" gradientUnits="userSpaceOnUse">
				<stop  offset="5.586590e-003" style="stop-color:#008B60"/>
				<stop  offset="1" style="stop-color:#004F53"/>
			</radialGradient>
			<path fill="url(#SVGID_4_)" d="M21.8,123.9c-3.1,0-6.8-0.7-11.1-2.6c-0.3-0.1-0.4-0.4-0.3-0.7c0.1-0.3,0.4-0.4,0.7-0.3
				c8.3,3.6,15.3,3.4,20.8-0.8c5.8-4.4,7.7-11.6,7.5-12.9c-0.5-3.6-1.9-6.1-4.3-7.5c-4.3-2.5-10.2-0.3-10.2-0.3
				c-0.3,0.1-0.5,0-0.6-0.3c-0.1-0.3,0-0.5,0.3-0.6c0.3-0.1,6.4-2.4,11.1,0.3c2.6,1.5,4.2,4.3,4.7,8.2c0.3,2.1-2.1,9.5-7.9,13.9
				C30.1,122.2,26.6,123.9,21.8,123.9z"/>
		</g>
		<g>
			<radialGradient id="SVGID_5_" cx="25.6891" cy="112.0329" r="12.6719" gradientUnits="userSpaceOnUse">
				<stop  offset="5.586590e-003" style="stop-color:#42D696"/>
				<stop  offset="1" style="stop-color:#00695B"/>
			</radialGradient>
			<path fill="url(#SVGID_5_)" d="M27.2,128.4c-0.1,0-0.3-0.1-0.4-0.2c-0.2-0.2-0.2-0.5,0.1-0.7c6.6-5.6,5.9-16.1,3.3-23.5
				c-1.6-4.5-3.7-7.2-4.8-7.3c-3.8-0.1-6.2,3.3-6.2,3.4c-0.2,0.2-0.5,0.3-0.7,0.1c-0.2-0.2-0.3-0.5-0.1-0.7c0.1-0.2,2.6-3.9,7-3.8
				c2.1,0.1,4.4,4,5.8,7.9c2.7,7.6,3.3,18.7-3.6,24.6C27.5,128.3,27.3,128.4,27.2,128.4z"/>
		</g>
		<g>
			<radialGradient id="SVGID_6_" cx="24.3861" cy="112.2479" r="11.4766" gradientUnits="userSpaceOnUse">
				<stop  offset="5.586590e-003" style="stop-color:#42D696"/>
				<stop  offset="1" style="stop-color:#00695B"/>
			</radialGradient>
			<path fill="url(#SVGID_6_)" d="M33.3,125.2c0,0-0.1,0-0.1,0c-0.3-0.1-0.4-0.3-0.4-0.6c2.2-9.1-4.8-22-9-23.7
				c-4.3-1.7-8.4,1.5-8.4,1.6c-0.2,0.2-0.5,0.1-0.7-0.1c-0.2-0.2-0.1-0.5,0.1-0.7c0.2-0.2,4.6-3.7,9.4-1.7c5,2,11.8,15.6,9.6,24.9
				C33.7,125,33.5,125.2,33.3,125.2z"/>
		</g>
		<g>
			<radialGradient id="SVGID_7_" cx="104.8432" cy="120.9348" r="74.5714" gradientUnits="userSpaceOnUse">
				<stop  offset="5.586590e-003" style="stop-color:#008B60"/>
				<stop  offset="1" style="stop-color:#004F53"/>
			</radialGradient>
			<path fill="url(#SVGID_7_)" d="M36.4,132.3c-4.4,0-8.8,0-13.2-0.1c-22.8-0.5-23.1-1.6-23.2-2.1c0-0.2-0.1-0.5,0.5-0.8
				c3.7-1.6,17-2.8,17.6-2.9c0.3,0,0.5,0.2,0.5,0.5c0,0.3-0.2,0.5-0.5,0.5c-0.1,0-12.1,1.1-16.5,2.5c5.9,1.1,38.8,2.1,62,0.6
				c4.7-0.3,7.1-0.5,8.4-0.7c-0.2,0-0.4-0.1-0.6-0.1c-10.7,0.2-18.1,0-18.8-0.6l-0.2-0.1l0-0.3c0-0.4,0.3-0.8,1.2-1
				c-0.3-0.1-0.6-0.1-0.9-0.2c-1.3-0.4-2-0.9-2.2-1.7c-0.1-0.5,0-1.2,1-2c2.3-1.8,8.1-3.3,12.9-1.1c0.9,0.4,2,1,1.9,2
				c-0.2,1.3-2.8,2-7.1,2.9c1.6,0.2,3.4,0.4,5.1,0.5c3.4,0.3,5.6,0.6,7,0.8c15.3-0.3,38.3-1.3,61.2-3.2c22.2-1.9,47.1-2.9,62.3-2.5
				c2.4-1.1,4.5-2.3,6.1-3.8c4.4-4.1,4.8-6.1,4.4-7c-1-2.1-7.1-1.7-9.3-1.3c-0.3,0-0.5-0.1-0.6-0.4c0-0.3,0.1-0.5,0.4-0.6
				c0.9-0.1,8.8-1.3,10.3,1.9c0.9,1.8-0.6,4.5-4.6,8.2c-1.3,1.2-2.8,2.2-4.6,3.1c6.7,0.2,11.1,0.8,12,1.7c0.3,0.4,0.3,0.7,0.2,0.8
				c-0.5,1.2-5.8,1.4-23.5,1.2c-13.5,2.9-29.2,2.2-31,1.2c-0.4-0.2-0.4-0.6-0.4-0.7c0.1-0.4,0.5-0.7,2.4-1
				c5.2-0.7,16.6-0.6,27.6-0.5c0.4,0,0.9,0,1.4,0c2.4-0.5,4.7-1.1,6.8-1.9c-14.1-0.2-36.1,0.6-59.8,2.6c-19.2,1.6-42.2,2.8-58.7,3.2
				c0,0.1,0,0.1,0,0.2c0,0.6,0,1.1-10.5,1.7C56.3,132.1,46.6,132.3,36.4,132.3z M54.3,128.6c1.4,0.2,4.5,0.3,8.8,0.3
				c-2.4-0.2-4.8-0.5-6.8-0.8C55.6,128.3,54.8,128.4,54.3,128.6z M156.5,127.5c3.2,0.6,13.8,0.9,24.2-0.7c-9.6-0.1-19-0.1-23.5,0.5
				C157,127.4,156.7,127.4,156.5,127.5z M59.5,122.6c-2.9,0-5.7,0.9-7,2c-0.5,0.4-0.7,0.8-0.7,1c0.1,0.3,0.6,0.7,1.5,0.9
				c0.7,0.2,1.8,0.4,3.1,0.6c0.5-0.1,1.1-0.2,1.8-0.3c2.4-0.5,7.4-1.4,7.5-2.2c0,0,0-0.3-1.3-0.9C62.8,122.9,61.1,122.6,59.5,122.6z
				 M190.1,125.9c8.2,0,16.5,0,18.4-0.6c-1.3-0.7-6-1.1-13-1.3C193.8,124.7,192,125.4,190.1,125.9z"/>
		</g>
		<g>
			<linearGradient id="SVGID_8_" gradientUnits="userSpaceOnUse" x1="8.3161" y1="113.2722" x2="38.4945" y2="113.2722">
				<stop  offset="0" style="stop-color:#00695B"/>
				<stop  offset="0.9944" style="stop-color:#42D696"/>
			</linearGradient>
			<path fill="url(#SVGID_8_)" d="M23.6,117c-0.4,0-0.8,0-1.2,0c-12-0.5-13.9-4.9-14-5.1c-0.1-0.3,0-0.5,0.3-0.6
				c0.3-0.1,0.5,0,0.6,0.3c0,0.1,1.9,4,13.1,4.5c11.4,0.5,15.1-6.1,15.2-6.1c0.1-0.2,0.4-0.3,0.7-0.2c0.2,0.1,0.3,0.4,0.2,0.7
				C38.3,110.6,34.6,117,23.6,117z"/>
		</g>
		<g>
			<linearGradient id="SVGID_9_" gradientUnits="userSpaceOnUse" x1="8.1464" y1="111.1023" x2="36.0642" y2="111.1023">
				<stop  offset="0" style="stop-color:#00695B"/>
				<stop  offset="0.9944" style="stop-color:#42D696"/>
			</linearGradient>
			<path fill="url(#SVGID_9_)" d="M17.2,117.4c-5.2,0-8.6-2.1-8.8-2.2c-0.2-0.1-0.3-0.5-0.2-0.7c0.1-0.2,0.5-0.3,0.7-0.2
				c0.1,0,7.5,4.5,17,0c9.4-4.5,9.2-8.9,9.1-8.9c0-0.3,0.2-0.5,0.5-0.5c0.3,0,0.5,0.2,0.5,0.4c0,0.2,0.4,5.1-9.7,9.9
				C22.9,116.8,19.8,117.4,17.2,117.4z"/>
		</g>
	</g>
	<g>
		<path fill-rule="evenodd" clip-rule="evenodd" fill="#932F31" d="M73.6,107.3c0,0-14.8-1.2-18,0.2c-3.2,1.4-1.9,12.1-1.9,12.1h56
			l20.2-17.9L73.6,107.3z"/>
		<path fill-rule="evenodd" clip-rule="evenodd" fill="#932F31" d="M163.4,112.2c0,0-0.9,2.9,1.1,4.9l14.2-0.4l10.4-7l-10.7-26.6
			l-7-2.1L163.4,112.2z"/>
		<radialGradient id="SVGID_10_" cx="159.8578" cy="94.9943" r="19.8952" gradientUnits="userSpaceOnUse">
			<stop  offset="1.711450e-002" style="stop-color:#FFC772"/>
			<stop  offset="1" style="stop-color:#FFC381"/>
		</radialGradient>
		<path fill-rule="evenodd" clip-rule="evenodd" fill="url(#SVGID_10_)" d="M142.2,116c0,0,7.9,1.4,19.6-3.1
			c11.7-4.5,16.3-15.8,16.3-15.8s2.1-21-5.6-23.1c-7.7-2.1-31.2,25.3-31.2,25.3L142.2,116z"/>
		<linearGradient id="SVGID_11_" gradientUnits="userSpaceOnUse" x1="68.7218" y1="59.3872" x2="68.7218" y2="32.6782">
			<stop  offset="0.3802" style="stop-color:#9A4327"/>
			<stop  offset="0.9972" style="stop-color:#592930"/>
		</linearGradient>
		<path fill-rule="evenodd" clip-rule="evenodd" fill="url(#SVGID_11_)" d="M79.1,42.5c0,0-1.3-8.2-4.5-9.5
			c-3.2-1.3-15,1.4-16.2,10.8c-1.2,9.4,4.2,15.5,4.2,15.5L79.1,42.5z"/>
		<radialGradient id="SVGID_12_" cx="65.0865" cy="48.6538" r="9.0247" gradientUnits="userSpaceOnUse">
			<stop  offset="1.711450e-002" style="stop-color:#FFC772"/>
			<stop  offset="1" style="stop-color:#FF9D48"/>
		</radialGradient>
		<path fill-rule="evenodd" clip-rule="evenodd" fill="url(#SVGID_12_)" d="M72,47.3c0,0-2.3-8.3-8.2-9.3
			c-5.8-1.1-8.6,12.3-1.2,21.4L72,47.3z"/>
		<radialGradient id="SVGID_13_" cx="171.734" cy="67.1671" r="38.7542" gradientUnits="userSpaceOnUse">
			<stop  offset="1.711450e-002" style="stop-color:#FF8E27"/>
			<stop  offset="1" style="stop-color:#FF6543"/>
		</radialGradient>
		<path fill-rule="evenodd" clip-rule="evenodd" fill="url(#SVGID_13_)" d="M192.5,117.1c-3,2.4-12.8,1.4-12.8,1.4s-2-2.8-1.3-4.8
			c0.7-2,4.4-6.8,4.1-8.7c-0.4-1.9-4.9-2.7-7.1-7.3c-2.2-4.6-2.4-16.8-2.4-16.8s-10.8,14.9-25.4,21.7c0,0,0,0,0,0.1
			c-0.2,1.1-2,12.3-8.6,16c-6.9,4-42.5,3.5-42.5,3.5s-2.9-7.3,0.9-10.4c0,0,4.2-0.5,20.4-4.9C134,102.5,139,81,139,81
			s6,0.1,12.2-4.5c6.2-4.5,9.7-10.8,18.2-13.3c8.4-2.4,16.8,0.7,22.1,8.9c5.2,8.2,1.6,22.8,2.6,25.5c0.6,1.7,1.7,3.1,2.4,4.3v0
			c0.4,0.6,0.7,1.2,0.7,1.7C197.1,104.9,195.6,114.7,192.5,117.1z"/>
		<radialGradient id="SVGID_14_" cx="97.874" cy="54.1091" r="45.1209" gradientUnits="userSpaceOnUse">
			<stop  offset="1.711450e-002" style="stop-color:#FF8E27"/>
			<stop  offset="1" style="stop-color:#FF6543"/>
		</radialGradient>
		<path fill-rule="evenodd" clip-rule="evenodd" fill="url(#SVGID_14_)" d="M146.8,92.2l-4.6,0.9c0,0-8.3,7.7-20.3,12.3
			c-11.9,4.6-26.9,2.8-30.8,3.5c-3.9,0.7-12.3,5.2-12.3,5.2s-6.2-4.1-6.9-6.8c0,0-13.5-0.6-21.4-12.7l-4.4,1.5c0,0,8.4-7.2,11.8-18
			c3.4-10.8,4-18.3,5.8-22.3c3-6.5,21.1-18.5,29.7-18.9l-2.4-3.3c0,0,23.2,6.5,31.4,14.2C130.7,55.7,135.3,81.1,146.8,92.2z"/>
		<linearGradient id="SVGID_15_" gradientUnits="userSpaceOnUse" x1="119.5958" y1="52.2522" x2="119.5958" y2="23.706">
			<stop  offset="0.3802" style="stop-color:#9A4327"/>
			<stop  offset="0.9972" style="stop-color:#592930"/>
		</linearGradient>
		<path fill-rule="evenodd" clip-rule="evenodd" fill="url(#SVGID_15_)" d="M124.9,51.7c0,0,7.5-10.1,6.3-18
			c-1.2-7.9-11.8-12-18.2-8.9c-6.5,3.1-4.9,14.9-4.9,14.9s6.7,10.7,9.5,12.1C120.4,53,124.9,51.7,124.9,51.7z"/>
		<radialGradient id="SVGID_16_" cx="114.9655" cy="38.7226" r="10.3886" gradientUnits="userSpaceOnUse">
			<stop  offset="1.711450e-002" style="stop-color:#FFC772"/>
			<stop  offset="1" style="stop-color:#FF9D48"/>
		</radialGradient>
		<path fill-rule="evenodd" clip-rule="evenodd" fill="url(#SVGID_16_)" d="M108,39.6c0,0-0.8-12.6,5.1-13.7
			c5.9-1.1,9.5,8.1,8.6,15.1c-0.9,6.9-4.2,10.7-4.2,10.7S115.8,52.4,108,39.6z"/>
		<radialGradient id="SVGID_17_" cx="114.5493" cy="46.9674" r="8.7999" gradientUnits="userSpaceOnUse">
			<stop  offset="1.711450e-002" style="stop-color:#FFC772"/>
			<stop  offset="1" style="stop-color:#FFC381"/>
		</radialGradient>
		<path fill-rule="evenodd" clip-rule="evenodd" fill="url(#SVGID_17_)" d="M108,39.6c0,0,4.8-4.4,8.6-2.9
			c3.8,1.5,4.4,10.4,4.4,10.4l-5-5.4c0,0,5.2,7.5,5,15.9C121,57.6,110.5,49.2,108,39.6z"/>
		<radialGradient id="SVGID_18_" cx="63.8042" cy="55.725" r="9.0413" gradientUnits="userSpaceOnUse">
			<stop  offset="1.711450e-002" style="stop-color:#FFC772"/>
			<stop  offset="1" style="stop-color:#FFC381"/>
		</radialGradient>
		<path fill-rule="evenodd" clip-rule="evenodd" fill="url(#SVGID_18_)" d="M72,47.3c0,0-11.3-4.3-16.4,2l10.5,0.7
			c0,0-6.8,1.9-7.9,5.7c-1.2,3.7,3.1,9.8,3.1,9.8s1.3-6.8,2.6-9.7C65.1,52.9,72,47.3,72,47.3z"/>
		<radialGradient id="SVGID_19_" cx="96.4013" cy="102.6612" r="33.4266" gradientUnits="userSpaceOnUse">
			<stop  offset="1.711450e-002" style="stop-color:#FFC772"/>
			<stop  offset="1" style="stop-color:#FFC381"/>
		</radialGradient>
		<path fill-rule="evenodd" clip-rule="evenodd" fill="url(#SVGID_19_)" d="M142.2,93.1c-0.1,0.1-0.1,0.1-0.2,0.2
			c-0.5,0.4-1.7,1.5-3.5,2.8c0,0,0,0-0.1,0c-3.6,2.7-9.4,6.5-16.5,9.2c-11.9,4.6-26.9,2.8-30.8,3.5c-3.9,0.7-12.3,5.2-12.3,5.2
			s-6.2-4.1-6.9-6.8c0,0-13.5-0.6-21.4-12.7c13.4,2.5,16.1-0.3,16.1-0.3c9.9,0.1,18.4-3.3,18.4-3.3C117,98.4,142.2,93.1,142.2,93.1z
			"/>
		<radialGradient id="SVGID_20_" cx="209.7539" cy="5.0306" r="38.4446" gradientUnits="userSpaceOnUse">
			<stop  offset="1.711450e-002" style="stop-color:#FF8E27"/>
			<stop  offset="1" style="stop-color:#FF6543"/>
		</radialGradient>
		<path fill-rule="evenodd" clip-rule="evenodd" fill="url(#SVGID_20_)" d="M203.2,51.7c-17.3,2.6-20,7.5-21,12.3
			c0,0-4.4,0.2-7.6-1.4c-0.1,0-0.1-0.1-0.2-0.1c0,0,0-0.1,0-0.3c0-1,0.1-5,2.7-9.9c0.3-0.7,0.8-1.4,1.2-2.1
			c4.3-6.6,19.7-5.7,25.3-13.9c2.6-3.8,4.4-11.5-0.1-15.7c0,0,0,0,0,0c-2-1.9-5.4-3-10.4-2.7c-16.4,0.9-12.1-19-0.5-17.9
			c5,0.5,10.9,2.1,16,5.1c0.9,0.6,1.8,1.2,2.7,1.8c5.4,4,9.5,9.9,10.1,18c0,0.3,0,0.6,0,0.8c0,0,0,0,0,0
			C221.8,35.7,216.2,49.7,203.2,51.7z"/>
		<linearGradient id="SVGID_21_" gradientUnits="userSpaceOnUse" x1="182.3113" y1="10.343" x2="211.9397" y2="10.343">
			<stop  offset="1.711450e-002" style="stop-color:#FFC772"/>
			<stop  offset="1" style="stop-color:#FFA252"/>
		</linearGradient>
		<path fill-rule="evenodd" clip-rule="evenodd" fill="url(#SVGID_21_)" d="M203.6,20.7C203.6,20.7,203.6,20.7,203.6,20.7
			c-2.1-1.9-5.4-3-10.5-2.7c-16.4,0.9-12.1-19-0.5-17.9c5,0.5,10.9,2.1,16,5.1l2.7,1.8C214.6,19.5,204,20.6,203.6,20.7z"/>
		<radialGradient id="SVGID_22_" cx="64.7737" cy="74.0921" r="14.3939" gradientUnits="userSpaceOnUse">
			<stop  offset="1.711450e-002" style="stop-color:#FFC772"/>
			<stop  offset="1" style="stop-color:#FF9D48"/>
		</radialGradient>
		<path fill-rule="evenodd" clip-rule="evenodd" fill="url(#SVGID_22_)" d="M56,86.9c0.4,2.8,7.4,6.2,10.8,5.5
			c2.5-0.5,6.6-1.7,6.7-10.9s-4.3-25.3-7.7-25.7c-3.3-0.4-4.1,13.2-5.8,19.5C58.4,81.5,55.8,85.6,56,86.9z"/>
		<radialGradient id="SVGID_23_" cx="104.3497" cy="73.1653" r="16.8934" gradientUnits="userSpaceOnUse">
			<stop  offset="1.711450e-002" style="stop-color:#FFEC72"/>
			<stop  offset="1" style="stop-color:#FFBD8C"/>
		</radialGradient>
		<path fill-rule="evenodd" clip-rule="evenodd" fill="url(#SVGID_23_)" d="M90.6,67c-2.8,2.6-3.9,16.2-0.5,19.9
			c5.3,5.6,25.7,4.5,29.4-0.7c3.8-5.2-3.1-28.2-8.6-30c-5.5-1.8-9,2.6-12.4,5.5C95.2,64.6,92.8,64.9,90.6,67z"/>
		<path fill-rule="evenodd" clip-rule="evenodd" fill="#9D3D3A" d="M88.1,75.8c0,0,0.4-6.1,3.6-8.7c3.2-2.7,7-2.8,9.9-5.1
			c1.7-1.4,4.2-5,7.9-5.5c3.9-0.5,7.8,8.8,7.8,8.8s-2.3-10-8.6-10.6c-3.6-0.3-7,4.9-11.5,7.9c-4.5,3-5.9,2.7-7.7,5.5
			C87.6,70.8,88.1,75.8,88.1,75.8z"/>
		<path fill-rule="evenodd" clip-rule="evenodd" fill="#9D3D3A" d="M60.1,75.2c0,0,2.9-16.7,5.6-17.1c4.1-0.6,7.2,13.1,7.8,23.3
			c0,0,0-24.9-7.7-25.7C64.3,55.6,62.4,58.3,60.1,75.2z"/>
		<g>
			
				<linearGradient id="SVGID_24_" gradientUnits="userSpaceOnUse" x1="4.7621" y1="115.4645" x2="4.7621" y2="91.8275" gradientTransform="matrix(-0.9673 0.2535 0.2535 0.9673 79.0063 -23.4208)">
				<stop  offset="0" style="stop-color:#FFFFFF"/>
				<stop  offset="0.9829" style="stop-color:#FBC9CE"/>
			</linearGradient>
			<path fill-rule="evenodd" clip-rule="evenodd" fill="url(#SVGID_24_)" d="M112,79.8c-0.5-5-4.2-10.9-10-12.6
				c-5.7-1.7-10.1,1.3-11.4,4.4c-1.4,3.1-1.5,12.5,4.4,16.6C100.1,91.8,112.9,89.1,112,79.8z"/>
			<path fill-rule="evenodd" clip-rule="evenodd" fill="#75272C" d="M112,79.8c0,0,0.2-7.4-6.6-12.6c-6.8-5.2-14.9-0.6-15.4,7
				c0,0,0.5-5.7,7.4-7.3C103.9,65.5,110.5,71.8,112,79.8z"/>
			
				<radialGradient id="SVGID_25_" cx="-6.6848" cy="90.2686" r="7.2763" gradientTransform="matrix(-1.1571 0.3033 0.3291 1.2557 62.1806 -26.536)" gradientUnits="userSpaceOnUse">
				<stop  offset="1.711450e-002" style="stop-color:#FFC710"/>
				<stop  offset="0.7682" style="stop-color:#FF7700"/>
				<stop  offset="1" style="stop-color:#AE4B00"/>
			</radialGradient>
			<path fill-rule="evenodd" clip-rule="evenodd" fill="url(#SVGID_25_)" d="M90.5,81.8c1.3,5,6.2,8.1,10.8,6.9
				c4.6-1.2,7.3-6.3,6-11.3c-1.3-5-6.2-8.1-10.8-6.9C91.9,71.7,89.2,76.8,90.5,81.8z"/>
			
				<ellipse transform="matrix(-0.9673 0.2535 -0.2535 -0.9673 213.6985 132.6227)" fill-rule="evenodd" clip-rule="evenodd" fill="#75272C" cx="98.3" cy="80.1" rx="7.9" ry="8.5"/>
			<path fill-rule="evenodd" clip-rule="evenodd" fill="#BD4C3A" d="M111.6,83.5c0,0-1.1,4.6-7.6,6.4c-6.5,1.9-10.8-3.3-10.8-3.3
				s3.9,4,10.2,2.9C109.6,88.4,111.6,83.5,111.6,83.5z"/>
			<path fill-rule="evenodd" clip-rule="evenodd" fill="#FFFFFF" d="M107.2,87.6c0,0-2-5-5-5.8c0,0-1.9,1.2-4.7,2l1.7,5.9
				C99.3,89.6,104.2,91.8,107.2,87.6z"/>
			<circle fill-rule="evenodd" clip-rule="evenodd" fill="#FFFFFF" cx="105.8" cy="75.8" r="1.8"/>
		</g>
		
			<radialGradient id="SVGID_26_" cx="-33.1275" cy="121.943" r="6.735" gradientTransform="matrix(-0.972 0.2351 0.2351 0.972 15.7489 -15.9406)" gradientUnits="userSpaceOnUse">
			<stop  offset="1.711450e-002" style="stop-color:#9A4327"/>
			<stop  offset="0.9469" style="stop-color:#8B3B30"/>
		</radialGradient>
		<path fill-rule="evenodd" clip-rule="evenodd" fill="url(#SVGID_26_)" d="M85,93.8c0,0,0.8-1,0.2-2c0,0-10.7,2.7-18,2.4
			c0,0,1.7,2.9,4.6,4.5l2.2-0.2c0,0,3-3.5,9.2-3.6L85,93.8z"/>
		<path fill-rule="evenodd" clip-rule="evenodd" fill="#FF9F30" d="M85.3,91.8l1.6-1.7c0,0-4.6-5.9-13.3-3.1c0,0-5.1,4.8-6.3,7.1
			C67.3,94.2,75.9,94.9,85.3,91.8z"/>
		<path fill-rule="evenodd" clip-rule="evenodd" fill="#75272C" d="M85.3,91.8c0,0-5.1,2.1-11.2,2.8c-6.1,0.7-7-0.5-7-0.5
			S74.2,94.5,85.3,91.8z"/>
		<path fill-rule="evenodd" clip-rule="evenodd" fill="#75272C" d="M83.2,94.8c0,0-5.7-1-9.2,3.6C73.9,98.4,77.6,94.8,83.2,94.8z"/>
		
			<linearGradient id="SVGID_27_" gradientUnits="userSpaceOnUse" x1="-123.2031" y1="109.7123" x2="-123.2031" y2="92.2344" gradientTransform="matrix(-1.0652 0.1234 0.1398 1.2064 -78.3544 -26.1277)">
			<stop  offset="0" style="stop-color:#FFFFFF"/>
			<stop  offset="0.9829" style="stop-color:#FBC9CE"/>
		</linearGradient>
		<path fill-rule="evenodd" clip-rule="evenodd" fill="url(#SVGID_27_)" d="M68.1,91c0.1,0,0.1,0,0.2-0.1c0,0,0,0,0,0
			c1.4-0.5,2.4-1.4,3.1-2.7c1.4-2.4,1.8-5.9,1.3-9.3c-0.1-0.8-0.3-1.6-0.4-2.3c-0.5-2.2-1.3-3.7-2.2-4.7c-1.1-1.3-2.3-1.8-3.3-2
			c-2.2-0.3-4.7,3.6-5.4,9.8C60.8,86,63.9,92.3,68.1,91z"/>
		<path fill-rule="evenodd" clip-rule="evenodd" fill="#75272C" d="M72.6,84.8c0,0,0.8-8.9-2.9-13c-3.7-4.1-7.5,2.1-7.9,5.8
			c0,0,1.3-7.5,4.4-9.1C66.1,68.5,74.1,68.7,72.6,84.8z"/>
		
			<radialGradient id="SVGID_28_" cx="-39.0153" cy="69.6598" r="7.2765" gradientTransform="matrix(-0.6662 5.510000e-002 0.1023 1.2367 33.1812 3.0666)" gradientUnits="userSpaceOnUse">
			<stop  offset="1.711450e-002" style="stop-color:#FFC710"/>
			<stop  offset="0.7682" style="stop-color:#FF7700"/>
			<stop  offset="1" style="stop-color:#AE4B00"/>
		</radialGradient>
		<path fill-rule="evenodd" clip-rule="evenodd" fill="url(#SVGID_28_)" d="M61.4,82.5c0.4,5,2.9,8.8,5.6,8.6
			c2.7-0.2,4.5-4.4,4.1-9.4c-0.4-5-2.9-8.8-5.6-8.6C62.8,73.3,61,77.5,61.4,82.5z"/>
		
			<ellipse transform="matrix(-0.9966 8.241442e-002 -8.241442e-002 -0.9966 137.8377 158.5079)" fill-rule="evenodd" clip-rule="evenodd" fill="#75272C" cx="65.6" cy="82.1" rx="4.3" ry="8"/>
		<circle fill-rule="evenodd" clip-rule="evenodd" fill="#FFFFFF" cx="70.8" cy="79.8" r="1.2"/>
		<path fill-rule="evenodd" clip-rule="evenodd" fill="#FFFFFF" d="M68.9,90.4l-3.2-3.9l1.1-1.7l5.2,1.3
			C72,86.1,71.6,89.5,68.9,90.4z"/>
		<radialGradient id="SVGID_29_" cx="81.9956" cy="100.7401" r="8.9457" gradientUnits="userSpaceOnUse">
			<stop  offset="1.711450e-002" style="stop-color:#9A4327"/>
			<stop  offset="0.9469" style="stop-color:#8B3B30"/>
		</radialGradient>
		<path fill-rule="evenodd" clip-rule="evenodd" fill="url(#SVGID_29_)" d="M70.8,104.8c0,0,3.2-1.3,7.8-1.5c4.6-0.1,6.9-1,9.5-2.1
			c2.6-1.2,4.6-6.3,4.6-6.3l0.6,0.3c0,0-3.3,10.9-7,11.3c-3.7,0.5-5.4-2.2-8.7-2.3c-3.4-0.1-5.9,1.7-5.9,1.7S70.7,106,70.8,104.8z"
			/>
		<path fill-rule="evenodd" clip-rule="evenodd" fill="#BD4C3A" d="M90.5,94.7c0,0,3.4-0.1,6,2.5c0,0-0.3-2.1-2.3-3.3
			C92.2,92.9,90.5,94.7,90.5,94.7z"/>
		<linearGradient id="SVGID_30_" gradientUnits="userSpaceOnUse" x1="86.3435" y1="105.417" x2="86.3435" y2="98.6433">
			<stop  offset="0" style="stop-color:#FFFFFF"/>
			<stop  offset="0.9829" style="stop-color:#FBC9CE"/>
		</linearGradient>
		<path fill-rule="evenodd" clip-rule="evenodd" fill="url(#SVGID_30_)" d="M81.4,103.7c0,0,4.8-0.6,6.6-1.7
			c2.5-1.5,3.2-3.4,3.2-3.4s-1.4,4.6-3.9,6.2C84.9,106.6,81.4,103.7,81.4,103.7z"/>
		<linearGradient id="SVGID_31_" gradientUnits="userSpaceOnUse" x1="66.8341" y1="107.3827" x2="66.8341" y2="94.9942">
			<stop  offset="1.711450e-002" style="stop-color:#E08893"/>
			<stop  offset="1" style="stop-color:#FFF2EF"/>
		</linearGradient>
		<path opacity="0.6" fill-rule="evenodd" clip-rule="evenodd" fill="url(#SVGID_31_)" d="M67.3,95c0,0-3.6,6.9,2.8,10.4l1.4,0.6
			l0.4,1.4c0,0-4.8-0.3-10.2-2.9C61.7,104.5,62.6,98,67.3,95z"/>
		<linearGradient id="SVGID_32_" gradientUnits="userSpaceOnUse" x1="63.9266" y1="93.6371" x2="63.9266" y2="53.4247">
			<stop  offset="1.711450e-002" style="stop-color:#E08893"/>
			<stop  offset="1" style="stop-color:#FFF2EF"/>
		</linearGradient>
		<path display="none" opacity="0.6" fill-rule="evenodd" clip-rule="evenodd" fill="url(#SVGID_32_)" d="M53.1,88.1
			c0,0,5.7,5.7,10.2,5.6c4.5-0.2,9.2-4.6,10.6-7.6c1.4-3.1,2.1-24.5-7.8-32.6c0,0-1.3,0.2-2.3,2.4C62.9,58.1,58.4,81.5,53.1,88.1z"
			/>
		<path fill-rule="evenodd" clip-rule="evenodd" fill="#9D3D3A" d="M93.6,37c0,0-12.8,8.7-14.4,32.9c0,0-3.9-12,0.9-27.9
			C80.1,41.9,88.9,35.6,93.6,37z"/>
		<path fill-rule="evenodd" clip-rule="evenodd" fill="#9D3D3A" d="M99.6,36.4c0,0-12.1,6.1-13.9,24.1c0,0,11.8-16.3,21.6-21.3
			L99.6,36.4z"/>
		<path fill-rule="evenodd" clip-rule="evenodd" fill="#9D3D3A" d="M76.2,44.3c0,0-3.1,5.9-1.5,14.6c0,0-4.7-5.8-4.1-10.5
			C70.7,48.4,74.6,44.7,76.2,44.3z"/>
		<path fill-rule="evenodd" clip-rule="evenodd" fill="#FFC763" d="M69.2,51c0,0,0.8,1.6,12.1,1.3c11.3-0.3,24.1-9.6,24.1-9.6
			s-5.2-6.2-17.4-3.2c-12.2,3-19.3,12.1-19.3,12.1L69.2,51z"/>
		<path fill-rule="evenodd" clip-rule="evenodd" fill="#9D3D3A" d="M134.9,72.2c0,0,0.1,8-6.8,13.3c-6.9,5.4-14.5,7.2-22.7,6.3
			c0,0,12,1.8,20.2-8.3c8.1-10,3.9-24.2,3.9-24.2L134.9,72.2z"/>
		<path fill-rule="evenodd" clip-rule="evenodd" fill="#9D3D3A" d="M137.3,77.6c0,0,1.8,6.4-2.4,11c-4.3,4.7-31.2,5.6-31.2,5.6
			s21.8,2.2,38.6-1l5.2-0.7C147.5,92.5,140.4,86.6,137.3,77.6z"/>
		<path opacity="0.8" fill-rule="evenodd" clip-rule="evenodd" fill="#CE777C" d="M155,115c0,0-1.6-10.5-7.4-17.7
			c0,0,0.6,9.8-5.4,18.7C142.2,116,148,116.7,155,115z"/>
		<path opacity="0.8" fill-rule="evenodd" clip-rule="evenodd" fill="#CE777C" d="M203.2,51.7c-17.3,2.6-20,7.5-21,12.3
			c0,0-4.4,0.2-7.6-1.4l-0.2-0.4c0-1,0.1-5,2.7-9.9c0,0,5.6,5.5,25.3-2.9c18.8-8,18.8-22.3,18.9-23.5
			C221.8,35.7,216.2,49.7,203.2,51.7z"/>
		<path fill-rule="evenodd" clip-rule="evenodd" fill="#9D3D3A" d="M143.7,80.2c0,0,8.3,1.8,12.5,9.5c0,0,1.4-6.2-6.5-12.2
			C149.7,77.6,145.7,79.8,143.7,80.2z"/>
		<path fill-rule="evenodd" clip-rule="evenodd" fill="#9D3D3A" d="M152.6,75.4c0,0,4.4,1.9,5.6,5.6c0,0,0.6-5.6-1.3-9.5
			C157,71.5,154.1,74.3,152.6,75.4z"/>
		<path fill-rule="evenodd" clip-rule="evenodd" fill="#9D3D3A" d="M159.4,69.2c0,0,5.8-0.8,10.6,9.9c0,0,0.6-9.6-5.3-13.9
			C164.7,65.3,161.8,66.9,159.4,69.2z"/>
		<path fill-rule="evenodd" clip-rule="evenodd" fill="#9D3D3A" d="M110.4,108.8c0,0,12,1.5,15.6,7.3c0,0,0.6-4.7-7.2-9.5
			L110.4,108.8z"/>
		<path fill-rule="evenodd" clip-rule="evenodd" fill="#9D3D3A" d="M127,103.2c0,0,5.6,3.5,6.3,11c0,0,2.1-7.1-1.2-13.8L127,103.2z"
			/>
		<path fill-rule="evenodd" clip-rule="evenodd" fill="#9D3D3A" d="M135,98.6c0,0,6.6-0.8,9.8,3c0,0-0.9-4.8-3.8-7.4L135,98.6z"/>
		<path fill-rule="evenodd" clip-rule="evenodd" fill="#9D3D3A" d="M193.1,75.7c0,0-4,11.7-18.8,15.3c0,0,15-1.6,20-8.2
			C194.2,82.7,194,78.1,193.1,75.7z"/>
		<path fill-rule="evenodd" clip-rule="evenodd" fill="#9D3D3A" d="M194.3,87c0,0-0.7,5.5-8,9.1c0,0,5.7-0.2,7.7-3.1L194.3,87z"/>
		<path fill-rule="evenodd" clip-rule="evenodd" fill="#9D3D3A" d="M178.4,50.2c0,0,8.5-2.7,12.6,1.3c0,0-0.1-3.8-8-4.9
			C183,46.6,179.9,47.5,178.4,50.2z"/>
		<path fill-rule="evenodd" clip-rule="evenodd" fill="#9D3D3A" d="M193.7,42.8c0,0,4.6,0.1,6,6.7c0,0,3.7-4.2,0-9.5
			C199.8,40,195.7,42.9,193.7,42.8z"/>
		<path fill-rule="evenodd" clip-rule="evenodd" fill="#9D3D3A" d="M201.7,38.6c0,0,7.6-0.5,11.4,8.4c0,0,3.6-7.7-7.6-14.2
			C205.5,32.8,203.6,37.2,201.7,38.6z"/>
		<path fill-rule="evenodd" clip-rule="evenodd" fill="#9D3D3A" d="M206.2,25.8c0,0,4.3-3.9,13.5,0c0,0-4.3-5-15.5-4.4
			C204.2,21.3,206.1,23.3,206.2,25.8z"/>
		<path fill-rule="evenodd" clip-rule="evenodd" fill="#FFC763" d="M175.2,75.8c-3.6,2.2-2.1,17.5,2.5,22.1
			c4.6,4.5,11.5-2.6,13.3-7.5C192.8,85.5,185.4,69.6,175.2,75.8z"/>
		<path fill-rule="evenodd" clip-rule="evenodd" fill="#BD4C3A" d="M104.3,122.2c0,0-0.7-6.7,1-8c1.7-1.4,6.7,0,6.7,0
			s-5.1-0.7-6.4,0.9C104.4,116.8,104.3,122.2,104.3,122.2z"/>
		<path fill-rule="evenodd" clip-rule="evenodd" fill="#BD4C3A" d="M98.6,122.2c0,0-2.7-6.2-1-8.7c1.6-2.5,5.7-2.2,5.7-2.2
			s-3.9,0-5.2,2.8C96.7,117,98.6,122.2,98.6,122.2z"/>
		<linearGradient id="SVGID_33_" gradientUnits="userSpaceOnUse" x1="121.5237" y1="122.2665" x2="121.5237" y2="102.7528">
			<stop  offset="1.711450e-002" style="stop-color:#AC6393"/>
			<stop  offset="1" style="stop-color:#FFF2EF"/>
		</linearGradient>
		<path opacity="0.6" fill-rule="evenodd" clip-rule="evenodd" fill="url(#SVGID_33_)" d="M147.6,102.8c-0.2,1.1-2,12.3-8.6,16
			c-6.9,4-42.5,3.5-42.5,3.5s-2.9-7.3,0.9-10.4c0,0,0,3.1,8,5.2c8,2.1,27.8,5.4,34-0.9C145.3,110.3,147.4,103.6,147.6,102.8z"/>
		<path fill-rule="evenodd" clip-rule="evenodd" fill="#BD4C3A" d="M180.9,118.7c0,0-1.1-3.2-0.5-4.9c0.6-1.7,1.8-2.8,1.8-2.8
			S180.4,113.5,180.9,118.7z"/>
		<path fill-rule="evenodd" clip-rule="evenodd" fill="#BD4C3A" d="M188.5,118.5c0,0-2.1-1.8-2-3.7c0-1.9,1.1-4.1,1.1-4.1
			s-1.7,4.7,1.8,7.7L188.5,118.5z"/>
		<linearGradient id="SVGID_34_" gradientUnits="userSpaceOnUse" x1="187.6465" y1="118.7721" x2="187.6465" y2="101.9329">
			<stop  offset="1.711450e-002" style="stop-color:#AC6393"/>
			<stop  offset="1" style="stop-color:#FFF2EF"/>
		</linearGradient>
		<path opacity="0.6" fill-rule="evenodd" clip-rule="evenodd" fill="url(#SVGID_34_)" d="M192.5,117.1c-3,2.4-12.8,1.4-12.8,1.4
			s-2-2.8-1.3-4.8c0,0,6.1,1.9,11.9-1.2c4.4-2.4,5.7-8.2,6-10.7c0.4,0.6,0.7,1.2,0.7,1.7C197.1,104.9,195.6,114.7,192.5,117.1z"/>
		<path fill-rule="evenodd" clip-rule="evenodd" fill="#FFC763" d="M97.4,111.8c0,0,2.9,3.4,13,4.3c10.1,0.9,18.3-5.9,19-7.8
			c0.8-2-3.2-3.4-5.2-2.9C122.1,105.9,109.8,109.6,97.4,111.8z"/>
		<path fill-rule="evenodd" clip-rule="evenodd" fill="#FFC763" d="M178.4,113.8c0,0,6,1.7,11-0.9c5-2.6,5.9-8.2,5.9-8.7
			c0-0.5-7.8-1.2-10.4,0C182.3,105.4,178.4,113.8,178.4,113.8z"/>
		<path fill-rule="evenodd" clip-rule="evenodd" fill="#FFC763" d="M186.6,2.1c-4.5,1.7-1.2,8.4,11.1,12.1s21.3,6.9,22.6,5.3
			C221.5,17.8,203.7-4.3,186.6,2.1z"/>
		<linearGradient id="SVGID_35_" gradientUnits="userSpaceOnUse" x1="108.6612" y1="114.2024" x2="108.6612" y2="96.2129">
			<stop  offset="1.711450e-002" style="stop-color:#E08893"/>
			<stop  offset="1" style="stop-color:#FFF2EF"/>
		</linearGradient>
		<path opacity="0.6" fill-rule="evenodd" clip-rule="evenodd" fill="url(#SVGID_35_)" d="M138.4,96.2c-3.6,2.7-9.4,6.5-16.5,9.2
			c-11.9,4.6-26.9,2.8-30.8,3.5c-3.9,0.7-12.3,5.2-12.3,5.2s9.2-7.1,16.5-8.3C102.1,104.8,124.5,105.7,138.4,96.2z"/>
		<radialGradient id="SVGID_36_" cx="62.893" cy="111.2005" r="7.1747" gradientUnits="userSpaceOnUse">
			<stop  offset="1.711450e-002" style="stop-color:#FF8E27"/>
			<stop  offset="1" style="stop-color:#FF6543"/>
		</radialGradient>
		<path fill-rule="evenodd" clip-rule="evenodd" fill="url(#SVGID_36_)" d="M55.4,108.4c0,0,6.3-0.5,10.7,1.7
			c4.3,2.1,5.8,9.5,5.8,9.5H53.7C53.7,119.6,52.1,110.5,55.4,108.4z"/>
		<path fill-rule="evenodd" clip-rule="evenodd" fill="#BD4C3A" d="M65.8,119.4c0,0-1.7-8.1,0.3-9.4
			C66.1,110.1,62.7,111.7,65.8,119.4z"/>
		<path fill-rule="evenodd" clip-rule="evenodd" fill="#BD4C3A" d="M56.7,119.6c0,0-1.7-7.3,0-9.5c1.7-2.2,4.4-1.8,4.4-1.8
			s-4.4-0.6-5.6,2.1c-1.2,2.7,0.8,9.2,0.8,9.2H56.7z"/>
		<g>
			<radialGradient id="SVGID_37_" cx="188.0512" cy="105.5458" r="7.194" gradientUnits="userSpaceOnUse">
				<stop  offset="5.586590e-003" style="stop-color:#008B60"/>
				<stop  offset="1" style="stop-color:#004F53"/>
			</radialGradient>
			<path fill="url(#SVGID_37_)" d="M180.8,109.4c-0.1,0-0.2,0-0.3-0.1c-1.5-1.1-2.2-2.5-1.7-3.8c0.8-2.4,4.9-3.9,10.3-3.8
				c4.5,0.1,7.2,0.9,8.1,2.2c0.5,0.8,0.2,1.4,0.2,1.5c-0.1,0.3-0.4,0.4-0.7,0.2c-0.2-0.1-0.4-0.4-0.3-0.6c0,0,0.1-0.3-0.1-0.6
				c-0.3-0.5-1.7-1.6-7.2-1.7c-5.7-0.1-8.8,1.5-9.3,3.1c-0.3,0.9,0.2,1.9,1.4,2.7c0.2,0.2,0.3,0.5,0.1,0.7
				C181.1,109.4,181,109.4,180.8,109.4z"/>
		</g>
		<g>
			<radialGradient id="SVGID_38_" cx="188.0377" cy="109.3094" r="7.1042" gradientUnits="userSpaceOnUse">
				<stop  offset="5.586590e-003" style="stop-color:#008B60"/>
				<stop  offset="1" style="stop-color:#004F53"/>
			</radialGradient>
			<path fill="url(#SVGID_38_)" d="M194.5,114.7c-0.1,0-0.2,0-0.3-0.1c-0.2-0.2-0.2-0.5-0.1-0.7c1.7-2,1.9-3.9,0.4-5.6
				c-2.9-3.2-10.4-4.3-13-2.6c-1.1,0.8-1,3.3-0.8,4.3c0,0.3-0.1,0.5-0.4,0.6c-0.3,0-0.5-0.1-0.6-0.4c-0.1-0.4-0.6-4,1.3-5.2
				c3.2-2.1,11.3-0.6,14.3,2.7c1.8,2,1.7,4.5-0.4,6.9C194.8,114.6,194.6,114.7,194.5,114.7z"/>
		</g>
		<path fill-rule="evenodd" clip-rule="evenodd" fill="#BD4C3A" d="M176.1,100.7c0,0-4.5-8.5-3.1-19.7c0,0-0.1,12.2,3.6,18.8
			L176.1,100.7z"/>
		<path fill-rule="evenodd" clip-rule="evenodd" fill="#BD4C3A" d="M177.2,63.5c0,0,13.3,4.9,16.4,14.1c0,0-1.4-8.9-11.3-13.5
			C182.3,64,179.2,64.1,177.2,63.5z"/>
		<path fill-rule="evenodd" clip-rule="evenodd" fill="#BD4C3A" d="M142.2,116c0,0,9.1,0.1,18.1-3.1c8.9-3.2,13.5-8.8,13.5-8.8
			S165.4,117.6,142.2,116z"/>
		<path fill-rule="evenodd" clip-rule="evenodd" fill="#FFFFFF" d="M75.9,93.6c0,0,4.8-2.4,6.5-1.1C82.4,92.5,79.9,93.8,75.9,93.6z"
			/>
		<path fill-rule="evenodd" clip-rule="evenodd" fill="#FFFFFF" d="M68.2,95c0,0,0.9,2,3.4,3.4C71.6,98.4,72.1,96.2,68.2,95z"/>
		<path fill-rule="evenodd" clip-rule="evenodd" fill="#FFC763" d="M141.7,80.7c0,0,4.6,1.9,14.6-2.2c9.9-4.1,14.4-12.6,13.6-13.2
			c-0.8-0.7-4.9-1.1-8.8,2.4C157.3,71.2,151.4,80.2,141.7,80.7z"/>
	</g>
</g>
</svg>
