<?xml version="1.0" encoding="utf-8"?>
<!-- Generator: Adobe Illustrator 17.1.0, SVG Export Plug-In . SVG Version: 6.00 Build 0)  -->
<!DOCTYPE svg PUBLIC "-//W3C//DTD SVG 1.1//EN" "http://www.w3.org/Graphics/SVG/1.1/DTD/svg11.dtd">
<svg version="1.1" id="Layer_1" xmlns="http://www.w3.org/2000/svg" xmlns:xlink="http://www.w3.org/1999/xlink" x="0px" y="0px"
	 width="140.5px" height="144.3px" viewBox="0 0 140.5 144.3" enable-background="new 0 0 140.5 144.3" xml:space="preserve">
<g>
	
		<linearGradient id="SVGID_1_" gradientUnits="userSpaceOnUse" x1="-187.5984" y1="27.933" x2="-187.5984" y2="-2.0749" gradientTransform="matrix(-1 0 0 1 -170.2052 0)">
		<stop  offset="0.3802" style="stop-color:#9A4327"/>
		<stop  offset="0.9972" style="stop-color:#592930"/>
	</linearGradient>
	<path fill-rule="evenodd" clip-rule="evenodd" fill="url(#SVGID_1_)" d="M29.8,10.2c0,0-5.8-11.6-14.8-12.2c0,0-5.9,0.9-8.4,5.9
		c-3.3,6.9-1.2,16.3,1.2,20.3c2.4,4,10.1,3.8,10.1,3.8S21.6,17.6,29.8,10.2z"/>
	
		<radialGradient id="SVGID_2_" cx="-184.4862" cy="16.8096" r="9.8699" gradientTransform="matrix(-1 0 0 1 -170.2052 0)" gradientUnits="userSpaceOnUse">
		<stop  offset="1.711450e-002" style="stop-color:#FFC772"/>
		<stop  offset="1" style="stop-color:#FF9D48"/>
	</radialGradient>
	<path fill-rule="evenodd" clip-rule="evenodd" fill="url(#SVGID_2_)" d="M22.7,16.5c0,0-6.4-10.8-11.9-10.8
		c-5.5,0-5.4,8.9-4.3,13.5c1.1,4.5,2.1,8.5,10.7,8.8C17.2,27.9,19.1,22.3,22.7,16.5z"/>
	
		<radialGradient id="SVGID_3_" cx="-186.6933" cy="26.1766" r="8.1413" gradientTransform="matrix(-1 0 0 1 -170.2052 0)" gradientUnits="userSpaceOnUse">
		<stop  offset="1.711450e-002" style="stop-color:#FFC772"/>
		<stop  offset="1" style="stop-color:#FFC381"/>
	</radialGradient>
	<path fill-rule="evenodd" clip-rule="evenodd" fill="url(#SVGID_3_)" d="M22.7,16.5c0,0-6.4-1.1-12.4,7.3c0,0,3.2-3,8.3-3.3
		c0,0-3.5,0.8-5.6,4.4c-2.1,3.6,1.3,10.9,1.3,10.9S16.5,28.9,22.7,16.5z"/>
	<path fill-rule="evenodd" clip-rule="evenodd" fill="#932F31" d="M54.8,116.8c0,0-4.4,3.2-3.6,10.7c0.8,7.5,11.3,11.2,11.3,11.2
		l3,3.8l20-0.9l4.4-16.4L54.8,116.8z"/>
	<path fill-rule="evenodd" clip-rule="evenodd" fill="#932F31" d="M38.2,99.5c0,0-2.7,3.5-9.1,6.5c-6.5,3-7.2,3.3-8.1,5.7
		c-1,2.4-0.6,11.1,1.2,14.8c1.8,3.7,7.2,4.8,9.5,3.3c2.3-1.5,3.6-4.2,3.9-6.5c0.2-2.3-0.3-5.9-0.3-5.9s8,2.7,11.8-0.5
		c3.8-3.2,4.2-11.5,4.2-11.5S40.5,99.4,38.2,99.5z"/>
	<radialGradient id="SVGID_4_" cx="64.1046" cy="106.8668" r="31.0806" gradientUnits="userSpaceOnUse">
		<stop  offset="1.711450e-002" style="stop-color:#FFC772"/>
		<stop  offset="1" style="stop-color:#FFC381"/>
	</radialGradient>
	<path fill-rule="evenodd" clip-rule="evenodd" fill="url(#SVGID_4_)" d="M95.8,129.3l-7.5,3.7l-8.8,4.4c0,0-2.4-0.9-6.1-2.5
		c-0.4-0.2-0.8-0.3-1.2-0.5c-3.4-1.6-7.7-3.7-12-6.4c-4.6-2.8-9.3-6.2-12.9-10.1c-0.9-1-1.7-1.9-2.5-2.9c0,0,0,0,0,0
		c-8.4-10.9-6.8-21.5-6.8-21.5l-5.6,1c3.4-1.7,6.2-4.4,8.4-6.9c3-3.5,4.6-6.7,4.6-6.7c3-2.7,18.7-4.3,18.7-4.3s0.4,1.1,1.5,3
		c0.9,1.7,2.3,3.9,4.2,6.6c0.5,0.7,1.4,1.7,2.4,2.8c6.6,7.2,21.2,20.2,21.2,20.2L95.8,129.3z"/>
	<linearGradient id="SVGID_5_" gradientUnits="userSpaceOnUse" x1="44.8408" y1="126.1306" x2="88.2928" y2="126.1306">
		<stop  offset="0" style="stop-color:#FFF2EF"/>
		<stop  offset="0.9829" style="stop-color:#E08893"/>
	</linearGradient>
	<path opacity="0.6" fill-rule="evenodd" clip-rule="evenodd" fill="url(#SVGID_5_)" d="M88.3,133l-8.8,4.4c0,0-2.4-0.9-6.1-2.5
		c-0.4-0.2-0.8-0.3-1.2-0.5c-3.4-1.6-7.7-3.7-12-6.4c-4.6-2.8-9.3-6.2-12.9-10.1c-0.9-1-1.7-1.9-2.5-2.9c0.5,0.6,8.8,9.5,19.7,10.6
		c11.3,1.2,14.9-6.4,14.9-6.4L88.3,133z"/>
	<radialGradient id="SVGID_6_" cx="80.1792" cy="95.3735" r="31.7579" gradientUnits="userSpaceOnUse">
		<stop  offset="1.711450e-002" style="stop-color:#FF8E27"/>
		<stop  offset="1" style="stop-color:#FF6543"/>
	</radialGradient>
	<path fill-rule="evenodd" clip-rule="evenodd" fill="url(#SVGID_6_)" d="M100.2,139.4c0.2,1.2,0.3,2.6-0.4,3.2
		c-1.3,1.2-25,0.6-25,0.6s-1.8-5.2-1.5-8.4c0-0.1,0-0.1,0-0.2c0.1-0.5,0.2-1,0.4-1.3c1.5-2.7,9-1.6,9-1.6s-5.5-10.4-3.5-16
		c2-5.5,5.7-5.5,5.7-5.5s-4.2-6.9-9.9-7.4c0,0,0.1,0.6,0.3,1.7c0.7,3.7,2.1,12.9,1.3,18.6c-0.4,3.2-2.5,7.4-4.6,11.1
		c-2.9,4.9-5.9,9.1-5.9,9.1L54.8,143c0,0-1.6-3.2-1.9-5.6c-0.1-0.8-0.1-1.5,0.2-1.9c1.1-1.9,4-1.4,5.4-2.7c0.5-0.5,1.2-2.2,1.7-4.8
		c0.8-4.1,1.1-10.7-0.2-19.1c-0.6-4.1-1-7.7-1.2-11c-0.4-7.6,0.6-12.8,2.6-15.2c1.5-1.7,2.8-2.7,4.1-3.2c1.3-0.5,2.4-0.5,3.3,0.1
		c0,0,1.7,3.5,5,7.9c2.6,3.5,6.3,7.6,10.8,11c10.2,7.6,16.5,9.6,20,14.9c3.5,5.3,0.1,19.4-5,23.9
		C99.7,137.2,100.1,138.2,100.2,139.4z"/>
	<radialGradient id="SVGID_7_" cx="57.4697" cy="83.469" r="8.9565" gradientUnits="userSpaceOnUse">
		<stop  offset="5.586590e-003" style="stop-color:#008B60"/>
		<stop  offset="1" style="stop-color:#004F53"/>
	</radialGradient>
	<path fill-rule="evenodd" clip-rule="evenodd" fill="url(#SVGID_7_)" d="M45.4,80.7c0,0,2.5,6.5,9.4,6.7c6.9,0.2,14.7-6.7,14.7-6.7
		l-0.6-1.2L45.4,80.7z"/>
	<path display="none" opacity="0.8" fill-rule="evenodd" clip-rule="evenodd" fill="#CE777C" d="M73.9,87.4c0,0-0.6,0.5-1.7,1.4
		c-2.6,2.1-8,6.1-13.3,9c-4.3,2.3-8.6,3.9-11.5,3.2c-8.1-2-6.6-13.6-6.6-13.6c3-3.5,4.6-6.7,4.6-6.7c3-2.7,18.7-4.3,18.7-4.3
		s0.4,1.1,1.5,3c1.3-0.5,2.4-0.5,3.3,0.1C68.9,79.5,70.6,83,73.9,87.4z"/>
	<linearGradient id="SVGID_8_" gradientUnits="userSpaceOnUse" x1="92.288" y1="27.933" x2="92.288" y2="-2.0749">
		<stop  offset="0.3802" style="stop-color:#9A4327"/>
		<stop  offset="0.9972" style="stop-color:#592930"/>
	</linearGradient>
	<path fill-rule="evenodd" clip-rule="evenodd" fill="url(#SVGID_8_)" d="M79.9,10.2c0,0,5.8-11.6,14.8-12.2c0,0,5.9,0.9,8.4,5.9
		c3.3,6.9,1.2,16.3-1.2,20.3c-2.4,4-10.1,3.8-10.1,3.8S88.1,17.6,79.9,10.2z"/>
	<radialGradient id="SVGID_9_" cx="56.3111" cy="21.8226" r="48.5622" gradientUnits="userSpaceOnUse">
		<stop  offset="1.711450e-002" style="stop-color:#FF8E27"/>
		<stop  offset="1" style="stop-color:#FF6543"/>
	</radialGradient>
	<path fill-rule="evenodd" clip-rule="evenodd" fill="url(#SVGID_9_)" d="M109.6,58.4l-5.3-1.2c0,0-1.1,1.6-3.2,4
		c-5.4,6.1-17.3,17-34.1,18.5c0,0-4.2,4.7-10.2,6.2l0.4-1c0,0-4.6-1.3-8.7-4.1c-0.4,0-29.9-0.1-42.8-18.1L0,63.2c0,0,0.9-1,2.4-3
		c3.3-4.4,9.3-13.6,12.3-25.7c4.3-17.2,14-24.5,14-24.5S43.1,0,60.4,0l-3.7,1.8c0,0,20.7,3.5,29.2,13.3
		C94.4,24.9,94.7,45.9,109.6,58.4z"/>
	<radialGradient id="SVGID_10_" cx="55.1054" cy="71.6146" r="36.2572" gradientUnits="userSpaceOnUse">
		<stop  offset="1.711450e-002" style="stop-color:#FFC772"/>
		<stop  offset="1" style="stop-color:#FFC381"/>
	</radialGradient>
	<path fill-rule="evenodd" clip-rule="evenodd" fill="url(#SVGID_10_)" d="M104.3,57.2c0,0-14,20.4-37.3,22.5c0,0-4.2,4.7-10.2,6.2
		l0.4-1c0,0-4.6-1.3-8.7-4.1c-0.4,0-29.9-0.1-42.8-18.1c16.6,11.5,37.1-1,37.1-1c13.5,2.1,23.4-0.2,23.4-0.2
		C90.6,70.7,104.3,57.2,104.3,57.2z"/>
	
		<radialGradient id="SVGID_11_" cx="66.6231" cy="64.2339" r="10.3073" gradientTransform="matrix(0.874 0 0 1 -2.535 0)" gradientUnits="userSpaceOnUse">
		<stop  offset="1.711450e-002" style="stop-color:#9A4327"/>
		<stop  offset="0.9469" style="stop-color:#8B3B30"/>
	</radialGradient>
	<path fill-rule="evenodd" clip-rule="evenodd" fill="url(#SVGID_11_)" d="M43.2,61.5l1,2.7c0,0,6.8,0.3,9.3,3h2.1h2.1
		c2.5-2.8,9.3-3,9.3-3l1.1-3C58.9,62.3,52.5,62.5,43.2,61.5z"/>
	<radialGradient id="SVGID_12_" cx="79.2435" cy="40.6683" r="17.6706" gradientUnits="userSpaceOnUse">
		<stop  offset="1.711450e-002" style="stop-color:#FFEC72"/>
		<stop  offset="1" style="stop-color:#FFBD8C"/>
	</radialGradient>
	<path fill-rule="evenodd" clip-rule="evenodd" fill="url(#SVGID_12_)" d="M67,58.7c-4.8-1.8-4.8-22.5-1.3-32.8S88.6,25.3,93,38.1
		c4.4,12.7,1.6,16.4-1.2,17.9C88.9,57.4,75.6,61.9,67,58.7z"/>
	<radialGradient id="SVGID_13_" cx="95.4001" cy="16.8096" r="9.8699" gradientUnits="userSpaceOnUse">
		<stop  offset="1.711450e-002" style="stop-color:#FFC772"/>
		<stop  offset="1" style="stop-color:#FF9D48"/>
	</radialGradient>
	<path fill-rule="evenodd" clip-rule="evenodd" fill="url(#SVGID_13_)" d="M87,16.5c0,0,6.4-10.8,11.9-10.8c5.5,0,5.4,8.9,4.3,13.5
		c-1.1,4.5-2.1,8.5-10.7,8.8C92.5,27.9,90.6,22.3,87,16.5z"/>
	<radialGradient id="SVGID_14_" cx="93.193" cy="26.1766" r="8.1413" gradientUnits="userSpaceOnUse">
		<stop  offset="1.711450e-002" style="stop-color:#FFC772"/>
		<stop  offset="1" style="stop-color:#FFC381"/>
	</radialGradient>
	<path fill-rule="evenodd" clip-rule="evenodd" fill="url(#SVGID_14_)" d="M87,16.5c0,0,6.4-1.1,12.4,7.3c0,0-3.2-3-8.3-3.3
		c0,0,3.5,0.8,5.6,4.4c2.1,3.6-1.3,10.9-1.3,10.9S93.2,28.9,87,16.5z"/>
	<path fill-rule="evenodd" clip-rule="evenodd" fill="#9D3D3A" d="M63.9,33.7c0,0,1.5-10.8,8.5-11c7.1-0.2,19.9,10,22.6,23
		c0,0,0.6-7.3-7-15.6c-7.6-8.3-15.1-11.7-19.3-9.8C64.6,22.2,63.9,33.7,63.9,33.7z"/>
	<g>
		<path fill-rule="evenodd" clip-rule="evenodd" fill="#75272C" d="M65.8,49.4c0,0-1.8-14.2,8.3-17.2c10.1-3,17.8,7.6,16,17.6
			L65.8,49.4z"/>
		<linearGradient id="SVGID_15_" gradientUnits="userSpaceOnUse" x1="77.8867" y1="59.3051" x2="77.8867" y2="33.7739">
			<stop  offset="0" style="stop-color:#FFFFFF"/>
			<stop  offset="0.9829" style="stop-color:#FBC9CE"/>
		</linearGradient>
		<path fill-rule="evenodd" clip-rule="evenodd" fill="url(#SVGID_15_)" d="M66.8,54.5c1.8,6.1,13.5,6.3,20.2,1.3
			c6.7-5.1,1.9-20-7.7-21.8C69.6,32.2,63,41.8,66.8,54.5z"/>
		
			<radialGradient id="SVGID_16_" cx="64.2826" cy="46.9231" r="6.9012" gradientTransform="matrix(1.111 0 0 1.1402 3.7091 -1.0712)" gradientUnits="userSpaceOnUse">
			<stop  offset="1.711450e-002" style="stop-color:#FFC710"/>
			<stop  offset="0.7682" style="stop-color:#FF7700"/>
			<stop  offset="1" style="stop-color:#AE4B00"/>
		</radialGradient>
		<ellipse fill-rule="evenodd" clip-rule="evenodd" fill="url(#SVGID_16_)" cx="74.6" cy="48.1" rx="7.7" ry="7.9"/>
		<ellipse fill-rule="evenodd" clip-rule="evenodd" fill="#75272C" cx="74.6" cy="48.1" rx="5.2" ry="5.3"/>
		<circle fill-rule="evenodd" clip-rule="evenodd" fill="#FFFFFF" cx="81.5" cy="44.9" r="1.3"/>
		<path fill-rule="evenodd" clip-rule="evenodd" fill="#FFFFFF" d="M82.8,56l-5-5.8l-5,1L71.7,58C71.7,58,79.8,60.3,82.8,56z"/>
		<path fill-rule="evenodd" clip-rule="evenodd" fill="#BD4C3A" d="M66.9,54.9c0,0,0.8,5.6,11.3,4.7c10.5-0.9,11.5-7.9,11.5-7.9
			S89,57.4,77.6,59C69.7,60.1,66.9,54.9,66.9,54.9z"/>
	</g>
	
		<radialGradient id="SVGID_17_" cx="-121.0253" cy="40.6683" r="17.6706" gradientTransform="matrix(-1 0 0 1 -89.7124 0)" gradientUnits="userSpaceOnUse">
		<stop  offset="1.711450e-002" style="stop-color:#FFEC72"/>
		<stop  offset="1" style="stop-color:#FFBD8C"/>
	</radialGradient>
	<path fill-rule="evenodd" clip-rule="evenodd" fill="url(#SVGID_17_)" d="M43.6,58.7c4.8-1.8,4.8-22.5,1.3-32.8
		C41.3,15.6,22,25.3,17.5,38.1c-4.4,12.7-1.6,16.4,1.2,17.9C21.6,57.4,34.9,61.9,43.6,58.7z"/>
	<path fill-rule="evenodd" clip-rule="evenodd" fill="#9D3D3A" d="M46.7,33.7c0,0-1.5-10.8-8.5-11c-7.1-0.2-19.9,10-22.6,23
		c0,0-0.6-7.3,7-15.6c7.6-8.3,15.1-11.7,19.3-9.8C46,22.2,46.7,33.7,46.7,33.7z"/>
	<g>
		<path fill-rule="evenodd" clip-rule="evenodd" fill="#75272C" d="M44.8,49.4c0,0,1.8-14.2-8.3-17.2c-10.1-3-17.8,7.6-16,17.6
			L44.8,49.4z"/>
		
			<linearGradient id="SVGID_18_" gradientUnits="userSpaceOnUse" x1="-122.3821" y1="59.3051" x2="-122.3821" y2="33.7739" gradientTransform="matrix(-1 0 0 1 -89.7124 0)">
			<stop  offset="0" style="stop-color:#FFFFFF"/>
			<stop  offset="0.9829" style="stop-color:#FBC9CE"/>
		</linearGradient>
		<path fill-rule="evenodd" clip-rule="evenodd" fill="url(#SVGID_18_)" d="M43.8,54.5c-1.8,6.1-13.5,6.3-20.2,1.3
			c-6.7-5.1-1.9-20,7.7-21.8C41,32.2,47.5,41.8,43.8,54.5z"/>
		
			<radialGradient id="SVGID_19_" cx="-115.9773" cy="46.9231" r="6.9012" gradientTransform="matrix(-1.111 0 0 1.1402 -93.4215 -1.0712)" gradientUnits="userSpaceOnUse">
			<stop  offset="1.711450e-002" style="stop-color:#FFC710"/>
			<stop  offset="0.7682" style="stop-color:#FF7700"/>
			<stop  offset="1" style="stop-color:#AE4B00"/>
		</radialGradient>
		<ellipse fill-rule="evenodd" clip-rule="evenodd" fill="url(#SVGID_19_)" cx="36" cy="48.1" rx="7.7" ry="7.9"/>
		<ellipse fill-rule="evenodd" clip-rule="evenodd" fill="#75272C" cx="36" cy="48.1" rx="5.2" ry="5.3"/>
		<circle fill-rule="evenodd" clip-rule="evenodd" fill="#FFFFFF" cx="29" cy="44.9" r="1.3"/>
		<path fill-rule="evenodd" clip-rule="evenodd" fill="#FFFFFF" d="M27.7,56l5-5.8l5,1l1.2,6.8C38.9,58,30.8,60.3,27.7,56z"/>
		<path fill-rule="evenodd" clip-rule="evenodd" fill="#BD4C3A" d="M43.7,54.9c0,0-0.8,5.6-11.3,4.7c-10.5-0.9-11.5-7.9-11.5-7.9
			S21.6,57.4,33,59C40.9,60.1,43.7,54.9,43.7,54.9z"/>
	</g>
	<radialGradient id="SVGID_20_" cx="59.7262" cy="73.4807" r="4.9607" gradientUnits="userSpaceOnUse">
		<stop  offset="1.711450e-002" style="stop-color:#9A4327"/>
		<stop  offset="0.9469" style="stop-color:#8B3B30"/>
	</radialGradient>
	<path fill-rule="evenodd" clip-rule="evenodd" fill="url(#SVGID_20_)" d="M53.8,76.4c0.7,1.3,11,0.5,11.9-1.2
		c0.8-1.7-6.4-6-8.8-5.2C54.5,70.8,53.3,75.5,53.8,76.4z"/>
	<linearGradient id="SVGID_21_" gradientUnits="userSpaceOnUse" x1="59.3022" y1="76.5214" x2="59.3022" y2="70.3952">
		<stop  offset="5.586590e-003" style="stop-color:#C9311F"/>
		<stop  offset="1" style="stop-color:#971E53"/>
	</linearGradient>
	<path fill-rule="evenodd" clip-rule="evenodd" fill="url(#SVGID_21_)" d="M54.3,76.1c0.6,1.1,9.8,0,10.2-1.2c0.5-1.3-4-5-7.2-4.3
		C54.1,71.2,53.7,75,54.3,76.1z"/>
	<path fill-rule="evenodd" clip-rule="evenodd" fill="#F5F5F5" d="M54.2,75.8c0,0,0.4-0.9,0.9-0.9c0.5,0,0.6,1.6,0.6,1.6
		S54.3,76.5,54.2,75.8z"/>
	<path fill-rule="evenodd" clip-rule="evenodd" fill="#F5F5F5" d="M62.6,75.8c0,0-0.3-1.4,0.3-1.8s1.6,0.8,1.6,0.8
		S64.2,75.4,62.6,75.8z"/>
	<path fill-rule="evenodd" clip-rule="evenodd" fill="#FF9F30" d="M43.2,61.5l3.5-4.9c0,0,7.6-3.7,16.8-0.6l4.7,5.3
		C68.2,61.2,54.5,63.6,43.2,61.5z"/>
	<path fill-rule="evenodd" clip-rule="evenodd" fill="#75272C" d="M43.2,61.5c0,0,13.3,1.2,24.9-0.3C68.2,61.2,53.5,64,43.2,61.5z"
		/>
	<linearGradient id="SVGID_22_" gradientUnits="userSpaceOnUse" x1="2.9419" y1="63.2412" x2="2.9419" y2="60.2811">
		<stop  offset="1.711450e-002" style="stop-color:#E08893"/>
		<stop  offset="1" style="stop-color:#FFF2EF"/>
	</linearGradient>
	<path opacity="0.6" fill-rule="evenodd" clip-rule="evenodd" fill="url(#SVGID_22_)" d="M2.4,60.3c1.1,0.6,2.3,1.4,3.5,2.5L0,63.2
		C0,63.2,0.9,62.2,2.4,60.3z"/>
	<linearGradient id="SVGID_23_" gradientUnits="userSpaceOnUse" x1="53.4974" y1="85.9813" x2="53.4974" y2="61.2404">
		<stop  offset="1.711450e-002" style="stop-color:#E08893"/>
		<stop  offset="1" style="stop-color:#FFF2EF"/>
	</linearGradient>
	<path opacity="0.6" fill-rule="evenodd" clip-rule="evenodd" fill="url(#SVGID_23_)" d="M101.1,61.2c-5.4,6.1-17.3,17-34.1,18.5
		c0,0-4.2,4.7-10.2,6.2l0.4-1c0,0-4.6-1.3-8.7-4.1c-0.4,0-29.9-0.1-42.8-18.1c20.2,17.1,43.2,14.8,43.2,14.8s2.3,4.1,8.3,4.5
		c6.1,0.4,9.4-5.1,9.4-5.1C86.2,76.4,101.1,61.2,101.1,61.2L101.1,61.2z"/>
	<path fill-rule="evenodd" clip-rule="evenodd" fill="#9D3D3A" d="M48.2,1.6c0,0,6.3,9.1,6.1,31.2c0,0,1.6-14.4,5.8-30.2l-3.4-0.7
		L60.4,0C60.4,0,53.3,0,48.2,1.6z"/>
	<path fill-rule="evenodd" clip-rule="evenodd" fill="#9D3D3A" d="M65.7,4.1c0,0-4.9,11-5.6,22.1c0,0,6.4-14.8,17.2-17.5
		C77.3,8.7,70.7,5,65.7,4.1z"/>
	<path fill-rule="evenodd" clip-rule="evenodd" fill="#9D3D3A" d="M35.8,6.1c0,0,8.8,3.9,12.5,15.4c0,0-0.2-10.5-3.4-19
		C44.9,2.5,39.8,4,35.8,6.1z"/>
	<path fill-rule="evenodd" clip-rule="evenodd" fill="#9D3D3A" d="M102.1,49.8c0,0-0.4,5-8,9.5c-7.6,4.5-19.6,4.9-19.6,4.9
		s21.2,4,29.8-7l5.3,1.2L102.1,49.8z"/>
	<path fill-rule="evenodd" clip-rule="evenodd" fill="#9D3D3A" d="M96.3,38.2c0,0,4,12.9-5.3,19.1c0,0,9.2-2.6,9.8-9.5
		C100.8,47.7,97.2,40.5,96.3,38.2z"/>
	<path fill-rule="evenodd" clip-rule="evenodd" fill="#9D3D3A" d="M7.9,51.6c0,0-0.7,7.8,7.6,11.6c8.3,3.8,20.3,1.8,20.3,1.8
		s-16.7,7.2-29.9-2.3L0,63.2L7.9,51.6z"/>
	<path fill-rule="evenodd" clip-rule="evenodd" fill="#9D3D3A" d="M12.1,42.8c0,0-1.2,8.1,2.2,12c3.4,3.8,11.7,5.1,11.7,5.1
		s-7.8,1.5-13.3-1.2c-5.5-2.7-3.9-8.4-3.9-8.4S11.4,44.5,12.1,42.8z"/>
	<path fill-rule="evenodd" clip-rule="evenodd" fill="#9D3D3A" d="M59.1,101.2c0,0,4.1-3.8,12.6,0c0,0-5.3,0.9-12.1,4.4L59.1,101.2z
		"/>
	<path fill-rule="evenodd" clip-rule="evenodd" fill="#9D3D3A" d="M60.6,113.1c0,0,5.9-5.1,14.7,0c0,0-10.7-0.5-14.4,3.7L60.6,113.1
		z"/>
	<path fill-rule="evenodd" clip-rule="evenodd" fill="#9D3D3A" d="M60.9,119.6c0,0,8.6-1.5,15.7,4.8c0,0-10.7-2.8-15.9,0L60.9,119.6
		z"/>
	<path fill-rule="evenodd" clip-rule="evenodd" fill="#9D3D3A" d="M60.5,125.7c0,0,8.5-1.7,13.4,5.5l-2.7,4.8c0,0-2.7-4-11.2-7.3
		L60.5,125.7z"/>
	<path fill-rule="evenodd" clip-rule="evenodd" fill="#9D3D3A" d="M81.5,95.8c0,0,3.9,6,3.1,12.4c0,0,2-2.9,1.5-8.7
		C86.1,99.5,82.8,97,81.5,95.8z"/>
	<path fill-rule="evenodd" clip-rule="evenodd" fill="#9D3D3A" d="M89.2,101.6c0,0,1,4.5-2.1,8.8c0,0,4.7-2,5.6-6.5L89.2,101.6z"/>
	<path fill-rule="evenodd" clip-rule="evenodd" fill="#9D3D3A" d="M105.4,114.9c0,0-2.1,3.2-11.4,3.7c-9.3,0.4-12.4,2.4-12.4,2.4
		s3.3-1.1,12.6,0c9.3,1.1,11.9-0.8,11.9-0.8S106.2,116.5,105.4,114.9z"/>
	<path fill-rule="evenodd" clip-rule="evenodd" fill="#9D3D3A" d="M105.9,121.9c0,0-2.8,3.5-12.6,5.2c0,0,8.5,1.5,12-0.9
		C105.2,126.2,105.6,124.7,105.9,121.9z"/>
	<linearGradient id="SVGID_24_" gradientUnits="userSpaceOnUse" x1="64.9656" y1="143.3844" x2="64.9656" y2="103.8701">
		<stop  offset="1.711450e-002" style="stop-color:#E08893"/>
		<stop  offset="1" style="stop-color:#FFF2EF"/>
	</linearGradient>
	<path opacity="0.6" fill-rule="evenodd" clip-rule="evenodd" fill="url(#SVGID_24_)" d="M76.8,123.1c-0.4,3.2-2.5,7.4-4.6,11.1
		c-2.9,4.9-5.9,9.1-5.9,9.1L54.8,143c0,0-1.6-3.2-1.9-5.6c0,0,8,4.8,17.6-3.9c9.5-8.7,4.8-29.6,4.8-29.6l0.3,0.7
		C76.2,108.3,77.6,117.4,76.8,123.1z"/>
	<linearGradient id="SVGID_25_" gradientUnits="userSpaceOnUse" x1="86.8505" y1="143.3882" x2="86.8505" y2="134.6137">
		<stop  offset="1.711450e-002" style="stop-color:#E08893"/>
		<stop  offset="1" style="stop-color:#FFF2EF"/>
	</linearGradient>
	<path opacity="0.6" fill-rule="evenodd" clip-rule="evenodd" fill="url(#SVGID_25_)" d="M99.8,142.6c-1.3,1.2-25,0.6-25,0.6
		s-1.8-5.2-1.5-8.4c0-0.1,0-0.1,0-0.2c0.8,1,3.4,2.8,11.4,4c11.4,1.8,15.4,0.7,15.4,0.7C100.5,140.6,100.5,142,99.8,142.6z"/>
	<linearGradient id="SVGID_26_" gradientUnits="userSpaceOnUse" x1="84.4422" y1="133.3533" x2="84.4422" y2="116.7926">
		<stop  offset="1.711450e-002" style="stop-color:#E08893"/>
		<stop  offset="1" style="stop-color:#FFF2EF"/>
	</linearGradient>
	<path opacity="0.6" fill-rule="evenodd" clip-rule="evenodd" fill="url(#SVGID_26_)" d="M82.8,131.7l7.1,1.6
		c0,0-10.9-9.8-10.8-16.6C79.1,116.8,78,122.6,82.8,131.7z"/>
	<path fill-rule="evenodd" clip-rule="evenodd" fill="#FF9F30" d="M73.4,134.8c0,0,3.6,2.9,11.4,3.9s11-0.2,11-0.2s-6.1-5.5-13-6.8
		C75.9,130.5,73.4,133,73.4,134.8z"/>
	<path fill-rule="evenodd" clip-rule="evenodd" fill="#BD4C3A" d="M76.6,143.3c0,0-2-7.8,0-9.5c0,0-0.4,5.3,0.5,9.5H76.6z"/>
	<path fill-rule="evenodd" clip-rule="evenodd" fill="#BD4C3A" d="M80.1,143.3c0,0,0-4.9,0.5-6.1c0.5-1.2,1.6-1.7,1.6-1.7
		s-1.8,2-1.7,7.8L80.1,143.3z"/>
	<path fill-rule="evenodd" clip-rule="evenodd" fill="#FF9F30" d="M53.1,135.4c0,0,1.4,1.6,7.6,1.6c6.2,0,6.9-1.7,6.9-1.7l-9.1-2.5
		C58.5,132.7,53.3,133.9,53.1,135.4z"/>
	<path fill-rule="evenodd" clip-rule="evenodd" fill="#BD4C3A" d="M55.5,143c0,0-1.8-4.9-1.3-6.4c0.5-1.5,2.3-1.9,2.3-1.9
		s-1.2,0.4-1.6,2.7C54.5,139.7,55.5,143,55.5,143z"/>
	<path fill-rule="evenodd" clip-rule="evenodd" fill="#BD4C3A" d="M58.5,143.1c0,0-0.7-4.7,0.2-6.3c0.9-1.6,3.4-1.5,3.4-1.5
		s-2-0.1-2.9,2.1C58.2,139.5,58.5,143.1,58.5,143.1z"/>
	<path fill-rule="evenodd" clip-rule="evenodd" fill="#FFC763" d="M81.5,113.8c-2.4,2,3.7,9.9,13.6,9.8c9.8-0.1,8.4-7,7.5-8.7
		C101.8,113.2,88.9,107.6,81.5,113.8z"/>
	<path fill-rule="evenodd" clip-rule="evenodd" fill="#FFC763" d="M32.4,12c-1.1,3.6,16.6,7.4,28.7,6.6c12.1-0.8,17-5.5,17.7-6.6
		c0.7-1.2-6.9-7.2-23.2-8.9C39.3,1.4,32.9,10.5,32.4,12z"/>
	<radialGradient id="SVGID_27_" cx="121.9889" cy="132.6222" r="15.4542" gradientUnits="userSpaceOnUse">
		<stop  offset="1.711450e-002" style="stop-color:#FF8E27"/>
		<stop  offset="1" style="stop-color:#FF6543"/>
	</radialGradient>
	<path fill-rule="evenodd" clip-rule="evenodd" fill="url(#SVGID_27_)" d="M139.7,141.7c-1.8,2.4-18.1,3.2-26.8,2
		c-8.7-1.2-7.9-10.1-7.9-10.1l-0.7-1l-0.8-1.2l2.6-10.5c0,0,3,4.9,12.2,7.7c7.4,2.2,13,1.8,16.5,2.2c0.1,0,0.3,0,0.4,0h0
		c0.6,0.1,1.2,0.2,1.7,0.4C140,132.5,141.5,139.3,139.7,141.7z"/>
	<path fill-rule="evenodd" clip-rule="evenodd" fill="#9D3D3A" d="M124.8,131.5c0,0,8-0.9,11.5,5.4c0,0-0.3-3.3-4.1-5.9L124.8,131.5
		z"/>
	<path fill-rule="evenodd" clip-rule="evenodd" fill="#9D3D3A" d="M122.8,129.7c0,0-1,0.7-0.8,1.4l2.8,0.4c0,0,1.2-0.7,2.5-1.2
		L122.8,129.7z"/>
	<path fill-rule="evenodd" clip-rule="evenodd" fill="#9D3D3A" d="M114.7,127.3l-0.5,2.1l3.4,0.8l0.6-1.6
		C118.3,128.6,115.6,127.7,114.7,127.3z"/>
	<path opacity="0.8" fill-rule="evenodd" clip-rule="evenodd" fill="#CE777C" d="M134.8,130.8c-1-0.1-2.5,0.2-2.5,0.2
		s-2.9,0.9-7.5,0.5c-4.5-0.3-13.2-2.5-16.9-2.1c-3,0.4-3.5,2.4-3.6,3.2l-0.8-1.2l2.6-10.5c0,0,3,4.9,12.2,7.7
		C125.7,130.9,131.3,130.4,134.8,130.8z"/>
	<linearGradient id="SVGID_28_" gradientUnits="userSpaceOnUse" x1="117.0225" y1="144.3967" x2="117.0225" y2="128.8415">
		<stop  offset="0" style="stop-color:#FFA252"/>
		<stop  offset="0.9829" style="stop-color:#FFC772"/>
	</linearGradient>
	<path fill-rule="evenodd" clip-rule="evenodd" fill="url(#SVGID_28_)" d="M124.8,131.5c0,0,5.8,5.4,4.8,12.5c0,0-10.4,1.1-18.1-0.6
		c-7.7-1.7-8.7-11.2-5.4-13.8C109.4,127.1,120.3,131.4,124.8,131.5z"/>
	<path fill-rule="evenodd" clip-rule="evenodd" fill="#FFC763" d="M106.1,131.5c-1.1,3.3,8.4,7.1,18.7,7s12-6.7,11.1-7
		c-0.9-0.3-2.8,0.9-11.1,0.5C116.4,131.5,107.6,126.8,106.1,131.5z"/>
	<path fill-rule="evenodd" clip-rule="evenodd" fill="#9D3D3A" d="M74.8,143.2c0,0,20.3,0,24.7-0.4C99.6,142.8,98.5,144,74.8,143.2z
		"/>
	<path fill-rule="evenodd" clip-rule="evenodd" fill="#9D3D3A" d="M54.8,143c0,0,9.3-0.4,11.4,0.4C66.3,143.4,58.5,143.6,54.8,143z"
		/>
	<path fill-rule="evenodd" clip-rule="evenodd" fill="#75272C" d="M53.6,67.2c0,0-2.8-4.6-9.3-3C44.3,64.2,49.7,63.4,53.6,67.2z"/>
	<path fill-rule="evenodd" clip-rule="evenodd" fill="#75272C" d="M57.7,67.2c0,0,3.7-4.4,9.3-3C67,64.2,62.2,63.5,57.7,67.2z"/>
	<radialGradient id="SVGID_29_" cx="29.9247" cy="102.5313" r="6.5468" gradientUnits="userSpaceOnUse">
		<stop  offset="1.711450e-002" style="stop-color:#FF8E27"/>
		<stop  offset="1" style="stop-color:#FF6543"/>
	</radialGradient>
	<path fill-rule="evenodd" clip-rule="evenodd" fill="url(#SVGID_29_)" d="M21.5,110.5c0,0-0.2-0.6,7.2-2.1c7.4-1.6,9.2-8.5,9.2-8.5
		s-3.4,3.6-9.4,6C22.5,108.1,21.5,110.5,21.5,110.5z"/>
	<path fill-rule="evenodd" clip-rule="evenodd" fill="#BD4C3A" d="M72.6,97.9c0,0,3.6,10.3,4.4,19.4C77,117.3,76.4,102.5,72.6,97.9z
		"/>
	<path fill-rule="evenodd" clip-rule="evenodd" fill="#BD4C3A" d="M111.5,143.4c0,0,2.1,0.9,14.7,0.5c12.6-0.4,14-3.1,14-3.1
		s0,0.7-0.7,1.5C138.7,143.1,123.3,146.6,111.5,143.4z"/>
	<path fill-rule="evenodd" clip-rule="evenodd" fill="#9D3D3A" d="M80.2,113.8c0,0,1.2-2.9,7.5-3.4c6.3-0.5,10.7,1.7,10.7,1.7
		s-6.7-3.2-13.6-2.1C84.9,110,81.4,110.9,80.2,113.8z"/>
	<path fill-rule="evenodd" clip-rule="evenodd" fill="#FFFFFF" d="M44.9,61.6c0,0,0.9-0.5,2.5-0.6c1.6,0,2.3,1.2,2.3,1.2
		S46,63.1,44.9,61.6z"/>
	<path fill-rule="evenodd" clip-rule="evenodd" fill="#FFFFFF" d="M57.1,66.6c0,0,0.9-3.1,2.6-3.9c1.7-0.7,7.3-1,7.3-1l-0.7,1.9
		c0,0-5.4-0.6-8.6,3.1L57.1,66.6z"/>
</g>
</svg>
