<?xml version="1.0" encoding="utf-8"?>
<!-- Generator: Adobe Illustrator 17.1.0, SVG Export Plug-In . SVG Version: 6.00 Build 0)  -->
<!DOCTYPE svg PUBLIC "-//W3C//DTD SVG 1.1//EN" "http://www.w3.org/Graphics/SVG/1.1/DTD/svg11.dtd">
<svg version="1.1" id="Layer_1" xmlns="http://www.w3.org/2000/svg" xmlns:xlink="http://www.w3.org/1999/xlink" x="0px" y="0px"
	 width="189.3px" height="122px" viewBox="0 0 189.3 122" enable-background="new 0 0 189.3 122" xml:space="preserve">
<g>
	
		<linearGradient id="SVGID_1_" gradientUnits="userSpaceOnUse" x1="-227.0664" y1="395.1743" x2="-227.0664" y2="365.1665" gradientTransform="matrix(-1 0 0 1 -66.0693 0)">
		<stop  offset="0.3802" style="stop-color:#9A4327"/>
		<stop  offset="0.9972" style="stop-color:#592930"/>
	</linearGradient>
	<path fill-rule="evenodd" clip-rule="evenodd" fill="url(#SVGID_1_)" d="M173.4,377.4c0,0-5.8-11.6-14.8-12.2c0,0-5.9,0.9-8.4,5.9
		c-3.3,6.9-1.2,16.3,1.2,20.3c2.4,4,10.1,3.8,10.1,3.8S165.2,384.8,173.4,377.4z"/>
	
		<radialGradient id="SVGID_2_" cx="-223.9543" cy="384.0509" r="9.8699" gradientTransform="matrix(-1 0 0 1 -66.0693 0)" gradientUnits="userSpaceOnUse">
		<stop  offset="1.711450e-002" style="stop-color:#FFC772"/>
		<stop  offset="1" style="stop-color:#FF9D48"/>
	</radialGradient>
	<path fill-rule="evenodd" clip-rule="evenodd" fill="url(#SVGID_2_)" d="M166.3,383.8c0,0-6.4-10.8-11.9-10.8
		c-5.5,0-5.4,8.9-4.3,13.5c1.1,4.6,2.1,8.5,10.7,8.8C160.8,395.2,162.7,389.5,166.3,383.8z"/>
	
		<radialGradient id="SVGID_3_" cx="-226.1613" cy="393.418" r="8.1413" gradientTransform="matrix(-1 0 0 1 -66.0693 0)" gradientUnits="userSpaceOnUse">
		<stop  offset="1.711450e-002" style="stop-color:#FFC772"/>
		<stop  offset="1" style="stop-color:#FFC381"/>
	</radialGradient>
	<path fill-rule="evenodd" clip-rule="evenodd" fill="url(#SVGID_3_)" d="M166.3,383.8c0,0-6.4-1.1-12.4,7.3c0,0,3.2-3,8.3-3.3
		c0,0-3.5,0.8-5.6,4.4c-2.1,3.6,1.3,10.9,1.3,10.9S160.1,396.2,166.3,383.8z"/>
	<path fill-rule="evenodd" clip-rule="evenodd" fill="#932F31" d="M198.4,484c0,0-4.4,3.2-3.6,10.7c0.8,7.5,11.3,11.2,11.3,11.2
		l3,3.8l20-0.9l4.4-16.4L198.4,484z"/>
	<path fill-rule="evenodd" clip-rule="evenodd" fill="#932F31" d="M181.8,466.7c0,0-2.7,3.5-9.1,6.5c-6.5,3-7.2,3.3-8.1,5.7
		c-1,2.4-0.6,11.1,1.2,14.8c1.8,3.7,7.2,4.8,9.5,3.3c2.3-1.5,3.6-4.2,3.9-6.5c0.2-2.3-0.3-5.9-0.3-5.9s8,2.7,11.8-0.5
		c3.8-3.2,4.2-11.5,4.2-11.5S184.1,466.7,181.8,466.7z"/>
	<radialGradient id="SVGID_4_" cx="207.7086" cy="474.1082" r="31.0806" gradientUnits="userSpaceOnUse">
		<stop  offset="1.711450e-002" style="stop-color:#FFC772"/>
		<stop  offset="1" style="stop-color:#FFC381"/>
	</radialGradient>
	<path fill-rule="evenodd" clip-rule="evenodd" fill="url(#SVGID_4_)" d="M239.4,496.5l-7.5,3.7l-8.8,4.4c0,0-2.4-0.9-6.1-2.5
		c-0.4-0.2-0.8-0.3-1.2-0.5c-3.4-1.6-7.7-3.7-12-6.4c-4.6-2.8-9.3-6.2-12.9-10.1c-0.9-1-1.7-1.9-2.5-2.9c0,0,0,0,0,0
		c-8.4-10.9-6.8-21.5-6.8-21.5l-5.6,1c3.4-1.7,6.2-4.4,8.4-6.9c3-3.5,4.6-6.7,4.6-6.7c3-2.7,18.7-4.3,18.7-4.3s0.4,1.1,1.5,3
		c0.9,1.7,2.3,3.9,4.2,6.6c0.5,0.7,1.4,1.7,2.4,2.8c6.6,7.2,21.2,20.2,21.2,20.2L239.4,496.5z"/>
	<linearGradient id="SVGID_5_" gradientUnits="userSpaceOnUse" x1="188.4448" y1="493.3719" x2="231.8968" y2="493.3719">
		<stop  offset="0" style="stop-color:#FFF2EF"/>
		<stop  offset="0.9829" style="stop-color:#E08893"/>
	</linearGradient>
	<path opacity="0.6" fill-rule="evenodd" clip-rule="evenodd" fill="url(#SVGID_5_)" d="M231.9,500.2l-8.8,4.4c0,0-2.4-0.9-6.1-2.5
		c-0.4-0.2-0.8-0.3-1.2-0.5c-3.4-1.6-7.7-3.7-12-6.4c-4.6-2.8-9.3-6.2-12.9-10.1c-0.9-1-1.7-1.9-2.5-2.9c0.5,0.6,8.8,9.5,19.7,10.6
		c11.3,1.2,14.9-6.4,14.9-6.4L231.9,500.2z"/>
	<radialGradient id="SVGID_6_" cx="223.7832" cy="462.6149" r="31.7579" gradientUnits="userSpaceOnUse">
		<stop  offset="1.711450e-002" style="stop-color:#FF8E27"/>
		<stop  offset="1" style="stop-color:#FF6543"/>
	</radialGradient>
	<path fill-rule="evenodd" clip-rule="evenodd" fill="url(#SVGID_6_)" d="M243.8,506.6c0.2,1.2,0.3,2.6-0.4,3.2
		c-1.3,1.2-25,0.6-25,0.6s-1.8-5.2-1.5-8.4c0-0.1,0-0.1,0-0.2c0.1-0.5,0.2-1,0.4-1.3c1.5-2.7,9-1.6,9-1.6s-5.5-10.4-3.5-16
		c2-5.5,5.7-5.5,5.7-5.5s-4.2-6.9-9.9-7.4c0,0,0.1,0.6,0.3,1.7c0.7,3.7,2.1,12.9,1.3,18.6c-0.4,3.2-2.5,7.4-4.6,11.1
		c-2.9,4.9-5.9,9.1-5.9,9.1l-11.4-0.4c0,0-1.6-3.2-1.9-5.6c-0.1-0.8-0.1-1.5,0.2-1.9c1.1-1.9,4-1.4,5.4-2.7c0.5-0.5,1.2-2.2,1.7-4.8
		c0.8-4.1,1.1-10.7-0.2-19.1c-0.6-4.1-1-7.7-1.2-11c-0.4-7.6,0.6-12.8,2.6-15.2c1.5-1.7,2.8-2.7,4.1-3.2c1.3-0.5,2.4-0.5,3.3,0.1
		c0,0,1.7,3.5,5,7.9c2.6,3.5,6.3,7.6,10.8,11c10.2,7.6,16.5,9.6,20,14.9c3.5,5.3,0.1,19.4-5,23.9
		C243.3,504.5,243.7,505.5,243.8,506.6z"/>
	<radialGradient id="SVGID_7_" cx="201.0737" cy="450.7103" r="8.9565" gradientUnits="userSpaceOnUse">
		<stop  offset="5.586590e-003" style="stop-color:#008B60"/>
		<stop  offset="1" style="stop-color:#004F53"/>
	</radialGradient>
	<path fill-rule="evenodd" clip-rule="evenodd" fill="url(#SVGID_7_)" d="M189,447.9c0,0,2.5,6.5,9.4,6.7c6.9,0.2,14.7-6.7,14.7-6.7
		l-0.6-1.2L189,447.9z"/>
	<path opacity="0.8" fill-rule="evenodd" clip-rule="evenodd" fill="#CE777C" d="M217.5,454.6c0,0-0.6,0.5-1.7,1.4
		c-2.6,2.1-8,6.1-13.3,9c-4.3,2.3-8.6,3.9-11.5,3.2c-8.1-2-6.6-13.6-6.6-13.6c3-3.5,4.6-6.7,4.6-6.7c3-2.7,18.7-4.3,18.7-4.3
		s0.4,1.1,1.5,3c1.3-0.5,2.4-0.5,3.3,0.1C212.5,446.8,214.2,450.2,217.5,454.6z"/>
	<linearGradient id="SVGID_8_" gradientUnits="userSpaceOnUse" x1="235.892" y1="395.1743" x2="235.892" y2="365.1665">
		<stop  offset="0.3802" style="stop-color:#9A4327"/>
		<stop  offset="0.9972" style="stop-color:#592930"/>
	</linearGradient>
	<path fill-rule="evenodd" clip-rule="evenodd" fill="url(#SVGID_8_)" d="M223.5,377.4c0,0,5.8-11.6,14.8-12.2c0,0,5.9,0.9,8.4,5.9
		c3.3,6.9,1.2,16.3-1.2,20.3c-2.4,4-10.1,3.8-10.1,3.8S231.7,384.8,223.5,377.4z"/>
	<radialGradient id="SVGID_9_" cx="199.9151" cy="389.0639" r="48.5622" gradientUnits="userSpaceOnUse">
		<stop  offset="1.711450e-002" style="stop-color:#FF8E27"/>
		<stop  offset="1" style="stop-color:#FF6543"/>
	</radialGradient>
	<path fill-rule="evenodd" clip-rule="evenodd" fill="url(#SVGID_9_)" d="M253.2,425.6l-5.3-1.2c0,0-1.1,1.6-3.2,4
		c-5.4,6.1-17.3,17-34.1,18.5c0,0-4.2,4.7-10.2,6.2l0.4-1c0,0-4.6-1.3-8.7-4.1c-0.4,0-29.9-0.1-42.8-18.1l-5.9,0.5c0,0,0.9-1,2.4-3
		c3.3-4.4,9.3-13.6,12.3-25.7c4.3-17.2,14-24.5,14-24.5s14.5-10.2,31.8-10.2l-3.7,1.8c0,0,20.7,3.5,29.2,13.3
		C238,392.2,238.3,413.2,253.2,425.6z"/>
	<radialGradient id="SVGID_10_" cx="198.7094" cy="438.8559" r="36.2572" gradientUnits="userSpaceOnUse">
		<stop  offset="1.711450e-002" style="stop-color:#FFC772"/>
		<stop  offset="1" style="stop-color:#FFC381"/>
	</radialGradient>
	<path fill-rule="evenodd" clip-rule="evenodd" fill="url(#SVGID_10_)" d="M247.9,424.5c0,0-14,20.4-37.3,22.5c0,0-4.2,4.7-10.2,6.2
		l0.4-1c0,0-4.6-1.3-8.7-4.1c-0.4,0-29.9-0.1-42.8-18.1c16.6,11.5,37.1-1,37.1-1c13.5,2.1,23.4-0.2,23.4-0.2
		C234.2,437.9,247.9,424.5,247.9,424.5z"/>
	
		<radialGradient id="SVGID_11_" cx="223.4234" cy="431.4752" r="10.3073" gradientTransform="matrix(0.874 0 0 1 4.0255 0)" gradientUnits="userSpaceOnUse">
		<stop  offset="1.711450e-002" style="stop-color:#9A4327"/>
		<stop  offset="0.9469" style="stop-color:#8B3B30"/>
	</radialGradient>
	<path fill-rule="evenodd" clip-rule="evenodd" fill="url(#SVGID_11_)" d="M186.8,428.8l1,2.7c0,0,6.8,0.3,9.3,3h2.1h2.1
		c2.5-2.8,9.3-3,9.3-3l1.1-3C202.5,429.5,196.1,429.8,186.8,428.8z"/>
	<radialGradient id="SVGID_12_" cx="222.8475" cy="407.9096" r="17.6706" gradientUnits="userSpaceOnUse">
		<stop  offset="1.711450e-002" style="stop-color:#FFEC72"/>
		<stop  offset="1" style="stop-color:#FFBD8C"/>
	</radialGradient>
	<path fill-rule="evenodd" clip-rule="evenodd" fill="url(#SVGID_12_)" d="M210.6,425.9c-4.8-1.8-4.8-22.5-1.3-32.8
		c3.5-10.3,22.9-0.5,27.4,12.2c4.4,12.7,1.6,16.4-1.2,17.9C232.5,424.7,219.2,429.1,210.6,425.9z"/>
	<radialGradient id="SVGID_13_" cx="239.0041" cy="384.0509" r="9.8699" gradientUnits="userSpaceOnUse">
		<stop  offset="1.711450e-002" style="stop-color:#FFC772"/>
		<stop  offset="1" style="stop-color:#FF9D48"/>
	</radialGradient>
	<path fill-rule="evenodd" clip-rule="evenodd" fill="url(#SVGID_13_)" d="M230.6,383.8c0,0,6.4-10.8,11.9-10.8
		c5.5,0,5.4,8.9,4.3,13.5c-1.1,4.6-2.1,8.5-10.7,8.8C236.1,395.2,234.2,389.5,230.6,383.8z"/>
	<radialGradient id="SVGID_14_" cx="236.797" cy="393.418" r="8.1413" gradientUnits="userSpaceOnUse">
		<stop  offset="1.711450e-002" style="stop-color:#FFC772"/>
		<stop  offset="1" style="stop-color:#FFC381"/>
	</radialGradient>
	<path fill-rule="evenodd" clip-rule="evenodd" fill="url(#SVGID_14_)" d="M230.6,383.8c0,0,6.4-1.1,12.4,7.3c0,0-3.2-3-8.3-3.3
		c0,0,3.5,0.8,5.6,4.4c2.1,3.6-1.3,10.9-1.3,10.9S236.8,396.2,230.6,383.8z"/>
	<path fill-rule="evenodd" clip-rule="evenodd" fill="#9D3D3A" d="M207.5,401c0,0,1.5-10.8,8.5-11c7.1-0.2,19.9,10,22.6,23
		c0,0,0.6-7.3-7-15.6c-7.6-8.3-15.1-11.7-19.3-9.8C208.2,389.4,207.5,401,207.5,401z"/>
	<g>
		<path fill-rule="evenodd" clip-rule="evenodd" fill="#75272C" d="M209.4,416.6c0,0-1.8-14.2,8.3-17.2c10.1-3,17.8,7.6,16,17.6
			L209.4,416.6z"/>
		<linearGradient id="SVGID_15_" gradientUnits="userSpaceOnUse" x1="221.4907" y1="426.5465" x2="221.4907" y2="401.0153">
			<stop  offset="0" style="stop-color:#FFFFFF"/>
			<stop  offset="0.9829" style="stop-color:#FBC9CE"/>
		</linearGradient>
		<path fill-rule="evenodd" clip-rule="evenodd" fill="url(#SVGID_15_)" d="M210.4,421.7c1.8,6.1,13.5,6.3,20.2,1.3
			c6.7-5.1,1.9-20-7.7-21.8C213.2,399.4,206.6,409,210.4,421.7z"/>
		
			<radialGradient id="SVGID_16_" cx="198.7412" cy="367.0535" r="6.9012" gradientTransform="matrix(1.111 0 0 1.1402 -2.0704 1.1574)" gradientUnits="userSpaceOnUse">
			<stop  offset="1.711450e-002" style="stop-color:#FFC710"/>
			<stop  offset="0.7682" style="stop-color:#FF7700"/>
			<stop  offset="1" style="stop-color:#AE4B00"/>
		</radialGradient>
		<ellipse fill-rule="evenodd" clip-rule="evenodd" fill="url(#SVGID_16_)" cx="218.2" cy="415.4" rx="7.7" ry="7.9"/>
		<ellipse fill-rule="evenodd" clip-rule="evenodd" fill="#75272C" cx="218.2" cy="415.4" rx="5.2" ry="5.3"/>
		<circle fill-rule="evenodd" clip-rule="evenodd" fill="#FFFFFF" cx="225.1" cy="412.1" r="1.3"/>
		<path fill-rule="evenodd" clip-rule="evenodd" fill="#FFFFFF" d="M226.4,423.2l-5-5.8l-5,1l-1.2,6.8
			C215.3,425.2,223.4,427.5,226.4,423.2z"/>
		<path fill-rule="evenodd" clip-rule="evenodd" fill="#BD4C3A" d="M210.5,422.1c0,0,0.8,5.6,11.3,4.7c10.5-0.9,11.5-7.9,11.5-7.9
			s-0.7,5.8-12.1,7.4C213.3,427.3,210.5,422.1,210.5,422.1z"/>
	</g>
	
		<radialGradient id="SVGID_17_" cx="-160.4933" cy="407.9096" r="17.6706" gradientTransform="matrix(-1 0 0 1 14.4236 0)" gradientUnits="userSpaceOnUse">
		<stop  offset="1.711450e-002" style="stop-color:#FFEC72"/>
		<stop  offset="1" style="stop-color:#FFBD8C"/>
	</radialGradient>
	<path fill-rule="evenodd" clip-rule="evenodd" fill="url(#SVGID_17_)" d="M187.2,425.9c4.8-1.8,4.8-22.5,1.3-32.8
		c-3.5-10.3-22.9-0.5-27.4,12.2c-4.4,12.7-1.6,16.4,1.2,17.9C165.2,424.7,178.5,429.1,187.2,425.9z"/>
	<path fill-rule="evenodd" clip-rule="evenodd" fill="#9D3D3A" d="M190.3,401c0,0-1.5-10.8-8.5-11c-7.1-0.2-19.9,10-22.6,23
		c0,0-0.6-7.3,7-15.6c7.6-8.3,15.1-11.7,19.3-9.8C189.6,389.4,190.3,401,190.3,401z"/>
	<g>
		<path fill-rule="evenodd" clip-rule="evenodd" fill="#75272C" d="M188.4,416.6c0,0,1.8-14.2-8.3-17.2c-10.1-3-17.8,7.6-16,17.6
			L188.4,416.6z"/>
		
			<linearGradient id="SVGID_18_" gradientUnits="userSpaceOnUse" x1="-161.8502" y1="426.5465" x2="-161.8502" y2="401.0153" gradientTransform="matrix(-1 0 0 1 14.4236 0)">
			<stop  offset="0" style="stop-color:#FFFFFF"/>
			<stop  offset="0.9829" style="stop-color:#FBC9CE"/>
		</linearGradient>
		<path fill-rule="evenodd" clip-rule="evenodd" fill="url(#SVGID_18_)" d="M187.4,421.7c-1.8,6.1-13.5,6.3-20.2,1.3
			c-6.7-5.1-1.9-20,7.7-21.8C184.6,399.4,191.2,409,187.4,421.7z"/>
		
			<radialGradient id="SVGID_19_" cx="-146.3" cy="367.0535" r="6.9012" gradientTransform="matrix(-1.111 0 0 1.1402 16.494 1.1574)" gradientUnits="userSpaceOnUse">
			<stop  offset="1.711450e-002" style="stop-color:#FFC710"/>
			<stop  offset="0.7682" style="stop-color:#FF7700"/>
			<stop  offset="1" style="stop-color:#AE4B00"/>
		</radialGradient>
		<ellipse fill-rule="evenodd" clip-rule="evenodd" fill="url(#SVGID_19_)" cx="179.6" cy="415.4" rx="7.7" ry="7.9"/>
		<ellipse fill-rule="evenodd" clip-rule="evenodd" fill="#75272C" cx="179.6" cy="415.4" rx="5.2" ry="5.3"/>
		<circle fill-rule="evenodd" clip-rule="evenodd" fill="#FFFFFF" cx="172.6" cy="412.1" r="1.3"/>
		<path fill-rule="evenodd" clip-rule="evenodd" fill="#FFFFFF" d="M171.3,423.2l5-5.8l5,1l1.2,6.8
			C182.5,425.2,174.4,427.5,171.3,423.2z"/>
		<path fill-rule="evenodd" clip-rule="evenodd" fill="#BD4C3A" d="M187.3,422.1c0,0-0.8,5.6-11.3,4.7c-10.5-0.9-11.5-7.9-11.5-7.9
			s0.7,5.8,12.1,7.4C184.5,427.3,187.3,422.1,187.3,422.1z"/>
	</g>
	<radialGradient id="SVGID_20_" cx="203.3302" cy="440.722" r="4.9607" gradientUnits="userSpaceOnUse">
		<stop  offset="1.711450e-002" style="stop-color:#9A4327"/>
		<stop  offset="0.9469" style="stop-color:#8B3B30"/>
	</radialGradient>
	<path fill-rule="evenodd" clip-rule="evenodd" fill="url(#SVGID_20_)" d="M197.4,443.6c0.7,1.3,11,0.5,11.9-1.2
		c0.8-1.7-6.4-6-8.8-5.2C198.1,438,196.9,442.7,197.4,443.6z"/>
	<linearGradient id="SVGID_21_" gradientUnits="userSpaceOnUse" x1="202.9062" y1="443.7627" x2="202.9062" y2="437.6365">
		<stop  offset="5.586590e-003" style="stop-color:#C9311F"/>
		<stop  offset="1" style="stop-color:#971E53"/>
	</linearGradient>
	<path fill-rule="evenodd" clip-rule="evenodd" fill="url(#SVGID_21_)" d="M197.9,443.3c0.6,1.1,9.8,0,10.2-1.2c0.5-1.3-4-5-7.2-4.3
		C197.7,438.4,197.3,442.2,197.9,443.3z"/>
	<path fill-rule="evenodd" clip-rule="evenodd" fill="#F5F5F5" d="M197.8,443.1c0,0,0.4-0.9,0.9-0.9c0.5,0,0.6,1.6,0.6,1.6
		S197.9,443.7,197.8,443.1z"/>
	<path fill-rule="evenodd" clip-rule="evenodd" fill="#F5F5F5" d="M206.2,443c0,0-0.3-1.4,0.3-1.8c0.6-0.3,1.6,0.8,1.6,0.8
		S207.8,442.7,206.2,443z"/>
	<path fill-rule="evenodd" clip-rule="evenodd" fill="#FF9F30" d="M186.8,428.8l3.5-4.9c0,0,7.6-3.7,16.8-0.6l4.7,5.3
		C211.8,428.5,198.1,430.9,186.8,428.8z"/>
	<path fill-rule="evenodd" clip-rule="evenodd" fill="#75272C" d="M186.8,428.8c0,0,13.3,1.2,24.9-0.3
		C211.8,428.5,197.1,431.3,186.8,428.8z"/>
	<linearGradient id="SVGID_22_" gradientUnits="userSpaceOnUse" x1="146.5459" y1="430.4826" x2="146.5459" y2="427.5225">
		<stop  offset="1.711450e-002" style="stop-color:#E08893"/>
		<stop  offset="1" style="stop-color:#FFF2EF"/>
	</linearGradient>
	<path opacity="0.6" fill-rule="evenodd" clip-rule="evenodd" fill="url(#SVGID_22_)" d="M146,427.5c1.1,0.6,2.3,1.4,3.5,2.5
		l-5.9,0.5C143.6,430.5,144.5,429.4,146,427.5z"/>
	<linearGradient id="SVGID_23_" gradientUnits="userSpaceOnUse" x1="197.1014" y1="453.2227" x2="197.1014" y2="428.4818">
		<stop  offset="1.711450e-002" style="stop-color:#E08893"/>
		<stop  offset="1" style="stop-color:#FFF2EF"/>
	</linearGradient>
	<path opacity="0.6" fill-rule="evenodd" clip-rule="evenodd" fill="url(#SVGID_23_)" d="M244.7,428.5c-5.4,6.1-17.3,17-34.1,18.5
		c0,0-4.2,4.7-10.2,6.2l0.4-1c0,0-4.6-1.3-8.7-4.1c-0.4,0-29.9-0.1-42.8-18.1c20.2,17.1,43.2,14.8,43.2,14.8s2.3,4.1,8.3,4.5
		c6.1,0.4,9.4-5.1,9.4-5.1C229.8,443.7,244.7,428.5,244.7,428.5L244.7,428.5z"/>
	<path fill-rule="evenodd" clip-rule="evenodd" fill="#9D3D3A" d="M191.8,368.8c0,0,6.3,9.1,6.1,31.2c0,0,1.6-14.4,5.8-30.2
		l-3.4-0.7l3.7-1.8C204,367.2,196.9,367.3,191.8,368.8z"/>
	<path fill-rule="evenodd" clip-rule="evenodd" fill="#9D3D3A" d="M209.3,371.3c0,0-4.9,11-5.6,22.1c0,0,6.4-14.8,17.2-17.5
		C220.9,375.9,214.3,372.3,209.3,371.3z"/>
	<path fill-rule="evenodd" clip-rule="evenodd" fill="#9D3D3A" d="M179.4,373.3c0,0,8.8,3.9,12.5,15.4c0,0-0.2-10.5-3.4-19
		C188.5,369.8,183.4,371.3,179.4,373.3z"/>
	<path fill-rule="evenodd" clip-rule="evenodd" fill="#9D3D3A" d="M245.7,417c0,0-0.4,5-8,9.5c-7.6,4.5-19.6,4.9-19.6,4.9
		s21.2,4,29.8-7l5.3,1.2L245.7,417z"/>
	<path fill-rule="evenodd" clip-rule="evenodd" fill="#9D3D3A" d="M239.9,405.4c0,0,4,12.9-5.3,19.1c0,0,9.2-2.6,9.8-9.5
		C244.4,415,240.8,407.8,239.9,405.4z"/>
	<path fill-rule="evenodd" clip-rule="evenodd" fill="#9D3D3A" d="M151.5,418.9c0,0-0.7,7.8,7.6,11.6c8.3,3.8,20.3,1.8,20.3,1.8
		s-16.7,7.2-29.9-2.3l-5.9,0.5L151.5,418.9z"/>
	<path fill-rule="evenodd" clip-rule="evenodd" fill="#9D3D3A" d="M155.7,410c0,0-1.2,8.1,2.2,12c3.4,3.8,11.7,5.1,11.7,5.1
		s-7.8,1.5-13.3-1.2c-5.5-2.7-3.9-8.4-3.9-8.4S155,411.8,155.7,410z"/>
	<path fill-rule="evenodd" clip-rule="evenodd" fill="#9D3D3A" d="M202.7,468.4c0,0,4.1-3.8,12.6,0c0,0-5.3,0.9-12.1,4.4
		L202.7,468.4z"/>
	<path fill-rule="evenodd" clip-rule="evenodd" fill="#9D3D3A" d="M204.2,480.4c0,0,5.9-5.1,14.7,0c0,0-10.7-0.5-14.4,3.7
		L204.2,480.4z"/>
	<path fill-rule="evenodd" clip-rule="evenodd" fill="#9D3D3A" d="M204.5,486.8c0,0,8.6-1.5,15.7,4.8c0,0-10.7-2.8-15.9,0
		L204.5,486.8z"/>
	<path fill-rule="evenodd" clip-rule="evenodd" fill="#9D3D3A" d="M204.1,492.9c0,0,8.5-1.7,13.4,5.5l-2.7,4.8c0,0-2.7-4-11.2-7.3
		L204.1,492.9z"/>
	<path fill-rule="evenodd" clip-rule="evenodd" fill="#9D3D3A" d="M225.1,463.1c0,0,3.9,6,3.1,12.4c0,0,2-2.9,1.5-8.7
		C229.7,466.7,226.4,464.3,225.1,463.1z"/>
	<path fill-rule="evenodd" clip-rule="evenodd" fill="#9D3D3A" d="M232.8,468.9c0,0,1,4.5-2.1,8.8c0,0,4.7-2,5.6-6.5L232.8,468.9z"
		/>
	<path fill-rule="evenodd" clip-rule="evenodd" fill="#9D3D3A" d="M249,482.1c0,0-2.1,3.2-11.4,3.7c-9.3,0.4-12.4,2.4-12.4,2.4
		s3.3-1.1,12.6,0c9.3,1.1,11.9-0.8,11.9-0.8S249.8,483.7,249,482.1z"/>
	<path fill-rule="evenodd" clip-rule="evenodd" fill="#9D3D3A" d="M249.5,489.1c0,0-2.8,3.5-12.6,5.2c0,0,8.5,1.5,12-0.9
		C248.9,493.4,249.2,491.9,249.5,489.1z"/>
	<linearGradient id="SVGID_24_" gradientUnits="userSpaceOnUse" x1="208.5695" y1="510.6258" x2="208.5695" y2="471.1115">
		<stop  offset="1.711450e-002" style="stop-color:#E08893"/>
		<stop  offset="1" style="stop-color:#FFF2EF"/>
	</linearGradient>
	<path opacity="0.6" fill-rule="evenodd" clip-rule="evenodd" fill="url(#SVGID_24_)" d="M220.4,490.4c-0.4,3.2-2.5,7.4-4.6,11.1
		c-2.9,4.9-5.9,9.1-5.9,9.1l-11.4-0.4c0,0-1.6-3.2-1.9-5.6c0,0,8,4.8,17.6-3.9c9.5-8.7,4.8-29.6,4.8-29.6l0.3,0.7
		C219.8,475.5,221.2,484.7,220.4,490.4z"/>
	<linearGradient id="SVGID_25_" gradientUnits="userSpaceOnUse" x1="230.4545" y1="510.6295" x2="230.4545" y2="501.8551">
		<stop  offset="1.711450e-002" style="stop-color:#E08893"/>
		<stop  offset="1" style="stop-color:#FFF2EF"/>
	</linearGradient>
	<path opacity="0.6" fill-rule="evenodd" clip-rule="evenodd" fill="url(#SVGID_25_)" d="M243.4,509.9c-1.3,1.2-25,0.6-25,0.6
		s-1.8-5.2-1.5-8.4c0-0.1,0-0.1,0-0.2c0.8,1,3.4,2.8,11.4,4c11.4,1.8,15.4,0.7,15.4,0.7C244.1,507.9,244.1,509.3,243.4,509.9z"/>
	<linearGradient id="SVGID_26_" gradientUnits="userSpaceOnUse" x1="228.0462" y1="500.5947" x2="228.0462" y2="484.034">
		<stop  offset="1.711450e-002" style="stop-color:#E08893"/>
		<stop  offset="1" style="stop-color:#FFF2EF"/>
	</linearGradient>
	<path opacity="0.6" fill-rule="evenodd" clip-rule="evenodd" fill="url(#SVGID_26_)" d="M226.4,499l7.1,1.6c0,0-10.9-9.8-10.8-16.6
		C222.7,484,221.6,489.9,226.4,499z"/>
	<path fill-rule="evenodd" clip-rule="evenodd" fill="#FF9F30" d="M217,502c0,0,3.6,2.9,11.4,3.9c7.8,0.9,11-0.2,11-0.2
		s-6.1-5.5-13-6.8C219.5,497.7,217,500.2,217,502z"/>
	<path fill-rule="evenodd" clip-rule="evenodd" fill="#BD4C3A" d="M220.2,510.5c0,0-2-7.8,0-9.5c0,0-0.4,5.3,0.5,9.5H220.2z"/>
	<path fill-rule="evenodd" clip-rule="evenodd" fill="#BD4C3A" d="M223.7,510.5c0,0,0-4.9,0.5-6.1c0.5-1.2,1.6-1.7,1.6-1.7
		s-1.8,2-1.7,7.8L223.7,510.5z"/>
	<path fill-rule="evenodd" clip-rule="evenodd" fill="#FF9F30" d="M196.7,502.7c0,0,1.4,1.6,7.6,1.6c6.2,0,6.9-1.7,6.9-1.7l-9.1-2.5
		C202.1,500,196.9,501.1,196.7,502.7z"/>
	<path fill-rule="evenodd" clip-rule="evenodd" fill="#BD4C3A" d="M199.1,510.2c0,0-1.8-4.9-1.3-6.4c0.5-1.5,2.3-1.9,2.3-1.9
		s-1.2,0.4-1.6,2.7C198.1,506.9,199.1,510.2,199.1,510.2z"/>
	<path fill-rule="evenodd" clip-rule="evenodd" fill="#BD4C3A" d="M202.1,510.3c0,0-0.7-4.7,0.2-6.3c0.9-1.6,3.4-1.5,3.4-1.5
		s-2-0.1-2.9,2.1C201.8,506.7,202.1,510.3,202.1,510.3z"/>
	<path fill-rule="evenodd" clip-rule="evenodd" fill="#FFC763" d="M225.1,481.1c-2.4,2,3.7,9.9,13.6,9.8c9.8-0.1,8.4-7,7.5-8.7
		C245.4,480.4,232.5,474.9,225.1,481.1z"/>
	<path fill-rule="evenodd" clip-rule="evenodd" fill="#FFC763" d="M176,379.3c-1.1,3.6,16.6,7.4,28.7,6.6s17-5.5,17.7-6.6
		c0.7-1.2-6.9-7.2-23.2-8.9C182.9,368.7,176.5,377.8,176,379.3z"/>
	<radialGradient id="SVGID_27_" cx="265.5929" cy="499.8636" r="15.4542" gradientUnits="userSpaceOnUse">
		<stop  offset="1.711450e-002" style="stop-color:#FF8E27"/>
		<stop  offset="1" style="stop-color:#FF6543"/>
	</radialGradient>
	<path fill-rule="evenodd" clip-rule="evenodd" fill="url(#SVGID_27_)" d="M283.3,509c-1.8,2.4-18.1,3.2-26.8,2
		c-8.7-1.2-7.9-10.1-7.9-10.1l-0.7-1l-0.8-1.2l2.6-10.5c0,0,3,4.9,12.2,7.7c7.4,2.2,13,1.8,16.5,2.2c0.1,0,0.3,0,0.4,0h0
		c0.6,0.1,1.2,0.2,1.7,0.4C283.6,499.8,285.1,506.5,283.3,509z"/>
	<path fill-rule="evenodd" clip-rule="evenodd" fill="#9D3D3A" d="M268.4,498.7c0,0,8-0.9,11.5,5.4c0,0-0.3-3.3-4.1-5.9L268.4,498.7
		z"/>
	<path fill-rule="evenodd" clip-rule="evenodd" fill="#9D3D3A" d="M266.4,497c0,0-1,0.7-0.8,1.4l2.8,0.4c0,0,1.2-0.7,2.5-1.2
		L266.4,497z"/>
	<path fill-rule="evenodd" clip-rule="evenodd" fill="#9D3D3A" d="M258.3,494.6l-0.5,2.1l3.4,0.8l0.6-1.6
		C261.9,495.9,259.2,495,258.3,494.6z"/>
	<path opacity="0.8" fill-rule="evenodd" clip-rule="evenodd" fill="#CE777C" d="M278.4,498c-1-0.1-2.5,0.2-2.5,0.2
		s-2.9,0.9-7.5,0.5c-4.5-0.3-13.2-2.5-16.9-2.1c-3,0.4-3.5,2.4-3.6,3.2l-0.8-1.2l2.6-10.5c0,0,3,4.9,12.2,7.7
		C269.3,498.1,274.9,497.6,278.4,498z"/>
	<linearGradient id="SVGID_28_" gradientUnits="userSpaceOnUse" x1="260.6265" y1="511.6381" x2="260.6265" y2="496.0828">
		<stop  offset="0" style="stop-color:#FFA252"/>
		<stop  offset="0.9829" style="stop-color:#FFC772"/>
	</linearGradient>
	<path fill-rule="evenodd" clip-rule="evenodd" fill="url(#SVGID_28_)" d="M268.4,498.7c0,0,5.8,5.4,4.8,12.5c0,0-10.4,1.1-18.1-0.6
		c-7.7-1.7-8.7-11.2-5.4-13.8C253,494.3,263.9,498.7,268.4,498.7z"/>
	<path fill-rule="evenodd" clip-rule="evenodd" fill="#FFC763" d="M249.7,498.7c-1.1,3.3,8.4,7.1,18.7,7c10.3,0,12-6.7,11.1-7
		c-0.9-0.3-2.8,0.9-11.1,0.5C260,498.8,251.3,494,249.7,498.7z"/>
	<path fill-rule="evenodd" clip-rule="evenodd" fill="#9D3D3A" d="M218.4,510.5c0,0,20.3,0,24.7-0.4
		C243.2,510,242.1,511.3,218.4,510.5z"/>
	<path fill-rule="evenodd" clip-rule="evenodd" fill="#9D3D3A" d="M198.4,510.2c0,0,9.3-0.4,11.4,0.4
		C209.9,510.6,202.1,510.8,198.4,510.2z"/>
	<path fill-rule="evenodd" clip-rule="evenodd" fill="#75272C" d="M197.2,434.5c0,0-2.8-4.6-9.3-3
		C187.9,431.4,193.3,430.6,197.2,434.5z"/>
	<path fill-rule="evenodd" clip-rule="evenodd" fill="#75272C" d="M201.3,434.5c0,0,3.7-4.4,9.3-3
		C210.7,431.4,205.8,430.8,201.3,434.5z"/>
	<radialGradient id="SVGID_29_" cx="173.5287" cy="469.7727" r="6.5468" gradientUnits="userSpaceOnUse">
		<stop  offset="1.711450e-002" style="stop-color:#FF8E27"/>
		<stop  offset="1" style="stop-color:#FF6543"/>
	</radialGradient>
	<path fill-rule="evenodd" clip-rule="evenodd" fill="url(#SVGID_29_)" d="M165.1,477.7c0,0-0.2-0.6,7.2-2.1
		c7.4-1.6,9.2-8.5,9.2-8.5s-3.4,3.6-9.4,6C166.1,475.4,165.1,477.7,165.1,477.7z"/>
	<path fill-rule="evenodd" clip-rule="evenodd" fill="#BD4C3A" d="M216.2,465.1c0,0,3.6,10.3,4.4,19.4
		C220.6,484.5,220,469.8,216.2,465.1z"/>
	<path fill-rule="evenodd" clip-rule="evenodd" fill="#BD4C3A" d="M255.1,510.7c0,0,2.1,0.9,14.7,0.5s14-3.1,14-3.1s0,0.7-0.7,1.5
		C282.3,510.3,266.9,513.8,255.1,510.7z"/>
	<path fill-rule="evenodd" clip-rule="evenodd" fill="#9D3D3A" d="M223.8,481.1c0,0,1.2-2.9,7.5-3.4c6.3-0.5,10.7,1.7,10.7,1.7
		s-6.7-3.2-13.6-2.1C228.5,477.2,225,478.1,223.8,481.1z"/>
	<path fill-rule="evenodd" clip-rule="evenodd" fill="#FFFFFF" d="M188.5,428.9c0,0,0.9-0.5,2.5-0.6s2.3,1.2,2.3,1.2
		S189.6,430.3,188.5,428.9z"/>
	<path fill-rule="evenodd" clip-rule="evenodd" fill="#FFFFFF" d="M200.7,433.8c0,0,0.9-3.1,2.6-3.9c1.7-0.7,7.3-1,7.3-1l-0.7,1.9
		c0,0-5.4-0.6-8.6,3.1L200.7,433.8z"/>
</g>
<g>
	<g>
		<path fill-rule="evenodd" clip-rule="evenodd" fill="#932F31" d="M96.9,115.8c0,0,19.3-0.1,24.4-0.9s-7.5-14.1-7.5-14.1
			S97.3,109.2,96.9,115.8z"/>
		<radialGradient id="SVGID_30_" cx="76.4305" cy="105.3247" r="24.9702" gradientUnits="userSpaceOnUse">
			<stop  offset="1.711450e-002" style="stop-color:#FFC772"/>
			<stop  offset="1" style="stop-color:#FFC381"/>
		</radialGradient>
		<path fill-rule="evenodd" clip-rule="evenodd" fill="url(#SVGID_30_)" d="M43.6,97.9c0,0,5.6,9.1,4.6,15.9l2.3-1.9
			c0,0,5.3,3.5,14.7,5.5c9.5,2,33.1,1.7,44-8.1c0,0-3.7-8.1-11.6-10.4c-8-2.4-16.6-6.4-16.6-6.4S52.9,90.1,43.6,97.9z"/>
		<path fill-rule="evenodd" clip-rule="evenodd" fill="#932F31" d="M146.3,104.6c0,0,8-2,11.3-1.2c3.3,0.8,6,5.6,2.5,11.2
			c0,0-4.9,1.6-12.8,0.9L146.3,104.6z"/>
		<radialGradient id="SVGID_31_" cx="69.4109" cy="100.0295" r="12.8017" gradientUnits="userSpaceOnUse">
			<stop  offset="1.711450e-002" style="stop-color:#FF8E27"/>
			<stop  offset="1" style="stop-color:#FF6543"/>
		</radialGradient>
		<path fill-rule="evenodd" clip-rule="evenodd" fill="url(#SVGID_31_)" d="M66.7,93.7c0,0,2.4,10.4,5.2,18
			c2.8,7.6,8.2,10.2,10,10.4c1.7,0.2,5.9-2,7.7-5.3c1.8-3.2-3.4-10.9-5.5-13.3C82,101.1,81,92.6,81,92.6S71.3,90.5,66.7,93.7z"/>
		
			<linearGradient id="SVGID_32_" gradientUnits="userSpaceOnUse" x1="86.8595" y1="35.6613" x2="86.8595" y2="12.1155" gradientTransform="matrix(0.993 0.1179 -0.1179 0.993 -0.6771 -5.297)">
			<stop  offset="0.5031" style="stop-color:#9A4327"/>
			<stop  offset="0.9972" style="stop-color:#592930"/>
		</linearGradient>
		<path fill-rule="evenodd" clip-rule="evenodd" fill="url(#SVGID_32_)" d="M73.6,26.6c0,0,2.2-8.2,4.8-9.5
			c2.6-1.3,10.5-0.4,12.4,7.4c1.9,7.8,0.5,12.6-0.9,14.4c-0.9,1.1-6,1.7-6,1.7L73.6,26.6z"/>
		
			<radialGradient id="SVGID_33_" cx="63.6291" cy="36.0526" r="46.9227" gradientTransform="matrix(0.993 0.1179 -0.1179 0.993 -0.6771 -5.297)" gradientUnits="userSpaceOnUse">
			<stop  offset="1.711450e-002" style="stop-color:#FF8E27"/>
			<stop  offset="1" style="stop-color:#FF6543"/>
		</radialGradient>
		<path fill-rule="evenodd" clip-rule="evenodd" fill="url(#SVGID_33_)" d="M104,72.3l-2.9-0.8c0,0,0,0,0,0
			c-0.2,0.4-3.4,5.7-7.8,10.4c-2,2.2-4.3,4.3-6.7,5.7c-1,0.6-2,1.1-3.1,1.4c0,0-1.8,4.4-7.8,7.3c0,0,0,0,0,0
			c-0.3-0.1-6.1-2.8-12.4-2.9c0,0-16.8,5.3-30.2,5.6C19.7,99.2,6.4,84,6.4,84L0,85.7c0.2-0.2,4-3.3,7.4-9.6c1-1.8,1.9-3.8,2.7-6.1
			c3.8-10.7,8.8-32.5,20.1-40.1c0,0,0,0,0,0s11.7-11.5,31.1-13.4c-0.5,0.1-2.7,0.5-4.8,2.4c0,0,10.1,3.6,17,7.7c0,0,0,0,0,0
			c1.4,0.9,2.7,1.7,3.8,2.6c6.1,5.1,9.7,17.5,11.8,24.5c1.4,4.4,6.8,10.5,10.6,14.5C102.2,70.6,104,72.3,104,72.3z"/>
		<g>
			<path fill-rule="evenodd" clip-rule="evenodd" fill="#9D3D3A" d="M7.4,76.1c0,0,3.6,9.8,11.1,12.7c9.9,3.8,14,2.5,14,2.5
				S8.3,83.9,10.8,68L7.4,76.1z"/>
			<path fill-rule="evenodd" clip-rule="evenodd" fill="#9D3D3A" d="M14.7,56c0,0-0.7,9.3-0.3,14.2c0.5,4.9,17.6,19,34.8,17.8
				c0,0-10.6,3.2-19.2,0.7c-8.6-2.5-14.4-14.3-16-17.7c-1.7-3.5-2.8-3.9-2.8-3.9L14.7,56z"/>
			<path fill-rule="evenodd" clip-rule="evenodd" fill="#9D3D3A" d="M32.1,28.3c0,0,7.3-4.3,14.7-2.2c7.4,2.2,13.5,10.1,14.6,14.7
				c0,0-1.4-7.5-5.2-14.4c-3.8-6.9-9.2-6.5-9.2-6.5S38.5,22.6,32.1,28.3z"/>
			<path fill-rule="evenodd" clip-rule="evenodd" fill="#9D3D3A" d="M56.5,18.9c0,0,9.7,11,13.5,38.2c0,0,4.7-18.4-2.6-33.6
				C67.5,23.4,60.6,19.7,56.5,18.9z"/>
			<path fill-rule="evenodd" clip-rule="evenodd" fill="#9D3D3A" d="M72.5,26c0,0,2.1,7.9,1.1,17c0,0,4.9-7,5.1-12.4
				C78.8,30.6,76.6,27.9,72.5,26z"/>
		</g>
		
			<radialGradient id="SVGID_34_" cx="60.7366" cy="82.0138" r="37.0611" gradientTransform="matrix(0.993 0.1179 -0.1179 0.993 -0.6771 -5.297)" gradientUnits="userSpaceOnUse">
			<stop  offset="1.711450e-002" style="stop-color:#FFC772"/>
			<stop  offset="1" style="stop-color:#FFC381"/>
		</radialGradient>
		<path fill-rule="evenodd" clip-rule="evenodd" fill="url(#SVGID_34_)" d="M101,71.5c-0.4,0.7-8.9,15-17.5,17.5
			c0,0-1.8,4.4-7.8,7.3c0,0-5.9-2.8-12.5-3c0,0-16.8,5.3-30.2,5.6C19.7,99.2,6.4,84,6.4,84L0,85.7c0,0,3.9-3.1,7.4-9.6
			c0,0,3.1,12,17.2,14.6c14.1,2.6,27.2-1.8,32.7-6.6c5.6-4.8,11.6-5.6,11.6-5.6s5,1,10.6,1c4.8,0,8.7-0.6,8.7-0.6
			C96.1,77.6,100.7,71.9,101,71.5z"/>
		
			<linearGradient id="SVGID_35_" gradientUnits="userSpaceOnUse" x1="22.4015" y1="49.4891" x2="22.4015" y2="18.8675" gradientTransform="matrix(0.993 0.1179 -0.1179 0.993 -0.6771 -5.297)">
			<stop  offset="0.5031" style="stop-color:#9A4327"/>
			<stop  offset="0.9972" style="stop-color:#592930"/>
		</linearGradient>
		<path fill-rule="evenodd" clip-rule="evenodd" fill="url(#SVGID_35_)" d="M30.2,29.9c0,0-0.4-10.6-11.7-13.9c0,0-9.5,0.7-12.4,9.1
			C3.3,33.5,7.4,42,9.6,44.7c2.2,2.7,9,1.1,9,1.1S23.8,34.8,30.2,29.9z"/>
		
			<radialGradient id="SVGID_36_" cx="54.7561" cy="64.6386" r="19.7902" gradientTransform="matrix(0.993 0.1179 -0.1179 0.993 -0.6771 -5.297)" gradientUnits="userSpaceOnUse">
			<stop  offset="1.711450e-002" style="stop-color:#FFEC72"/>
			<stop  offset="1" style="stop-color:#FFBD8C"/>
		</radialGradient>
		<path fill-rule="evenodd" clip-rule="evenodd" fill="url(#SVGID_36_)" d="M27.2,77.1c0,0,5.2,8.1,16.6,8.4
			c11.4,0.3,18.9-6.4,20.1-8.3c1.2-2-4.5-27.1-13.1-31.3c-8.6-4.2-20.9,8.9-23.1,15.3C25.6,67.5,26.2,75.7,27.2,77.1z"/>
		
			<radialGradient id="SVGID_37_" cx="94.0596" cy="54.8036" r="11.5001" gradientTransform="matrix(0.993 0.1179 -0.1179 0.993 -0.6771 -5.297)" gradientUnits="userSpaceOnUse">
			<stop  offset="1.711450e-002" style="stop-color:#FFC772"/>
			<stop  offset="1" style="stop-color:#FF9D48"/>
		</radialGradient>
		<path fill-rule="evenodd" clip-rule="evenodd" fill="url(#SVGID_37_)" d="M80.6,72.1c-1.9-3.2-0.7-24.7,1.2-26.7
			c1.9-2,6.3,4.7,7.9,9.5c1.6,4.8,3.2,11.7,2.6,14c-1.2,4.1-4.6,5.9-7.2,5.9C83.4,74.8,81.6,73.8,80.6,72.1z"/>
		<path fill-rule="evenodd" clip-rule="evenodd" fill="#9D3D3A" d="M26.7,75.6c0,0-1.2-7.5,2-14.8c4.2-9.4,12.1-14.5,19.6-14.5
			c5.7,0,11.3,12.1,11.3,12.1s-3.7-12.2-11-14.4c-7.3-2.1-17.8,7.5-20.6,14.6C24.6,67.3,26.7,75.6,26.7,75.6z"/>
		<path fill-rule="evenodd" clip-rule="evenodd" fill="#9D3D3A" d="M79.6,63.9c0,0-0.8-18.7,1.7-21c2.5-2.3,8,9.5,9.4,15.3
			c0,0-5.1-13.6-8.2-13C79.8,45.6,79.6,63.9,79.6,63.9z"/>
		
			<linearGradient id="SVGID_38_" gradientUnits="userSpaceOnUse" x1="57.8815" y1="83.5146" x2="57.8815" y2="59.01" gradientTransform="matrix(0.993 0.1179 -0.1179 0.993 -0.6771 -5.297)">
			<stop  offset="0" style="stop-color:#FFFFFF"/>
			<stop  offset="0.9829" style="stop-color:#FBC9CE"/>
		</linearGradient>
		<path fill-rule="evenodd" clip-rule="evenodd" fill="url(#SVGID_38_)" d="M37,75.7c-0.2-5.2,2.8-11.8,8.5-14.4
			c5.7-2.6,10.5-0.1,12.4,2.9c1.9,3,3.3,12.7-2.1,17.7C50.9,86.4,37.4,85.4,37,75.7z"/>
		
			<linearGradient id="SVGID_39_" gradientUnits="userSpaceOnUse" x1="93.5347" y1="69.5293" x2="93.5347" y2="51.4087" gradientTransform="matrix(0.993 0.1179 -0.1179 0.993 -0.6771 -5.297)">
			<stop  offset="0" style="stop-color:#FFFFFF"/>
			<stop  offset="0.9829" style="stop-color:#FBC9CE"/>
		</linearGradient>
		<path fill-rule="evenodd" clip-rule="evenodd" fill="url(#SVGID_39_)" d="M84.2,74.7c-0.1,0-0.1,0-0.2-0.1c0,0,0,0,0,0
			c-1.3-0.4-2.3-1.3-3-2.3c-1.4-2.1-1.8-5.1-1.4-8c0.1-0.7,0.2-1.4,0.4-2c0.5-1.8,1.2-3.1,2-4c1-1.1,2.2-1.5,3.2-1.7
			c2.1-0.2,4.6,3.1,5.3,8.5C91.1,70.6,88.2,75.9,84.2,74.7z"/>
		
			<radialGradient id="SVGID_40_" cx="52.8642" cy="68.6833" r="7.5436" gradientTransform="matrix(1.1033 0.131 -0.1345 1.1322 -2.8072 -4.4897)" gradientUnits="userSpaceOnUse">
			<stop  offset="1.711450e-002" style="stop-color:#FFC710"/>
			<stop  offset="0.7682" style="stop-color:#FF7700"/>
			<stop  offset="1" style="stop-color:#AE4B00"/>
		</radialGradient>
		<path fill-rule="evenodd" clip-rule="evenodd" fill="url(#SVGID_40_)" d="M54.5,76.4c-0.6,4.7-4.7,8.1-9.3,7.6
			c-4.6-0.5-7.9-4.8-7.3-9.5c0.6-4.7,4.7-8.1,9.3-7.6C51.8,67.4,55.1,71.7,54.5,76.4z"/>
		
			<ellipse transform="matrix(0.993 0.1179 -0.1179 0.993 9.2193 -4.9237)" fill-rule="evenodd" clip-rule="evenodd" fill="#75272C" cx="46.2" cy="75.4" rx="5.7" ry="5.8"/>
		
			<radialGradient id="SVGID_41_" cx="92.6399" cy="65.6981" r="5.3631" gradientTransform="matrix(0.993 0.1179 -0.1179 0.993 -0.6771 -5.297)" gradientUnits="userSpaceOnUse">
			<stop  offset="1.711450e-002" style="stop-color:#FFC710"/>
			<stop  offset="0.7682" style="stop-color:#FF7700"/>
			<stop  offset="1" style="stop-color:#AE4B00"/>
		</radialGradient>
		<path fill-rule="evenodd" clip-rule="evenodd" fill="url(#SVGID_41_)" d="M88.1,67.2c-0.4,3.5-2.1,6.4-4.1,7.5c0,0,0,0,0,0
			c-1.3-0.4-2.3-1.3-3-2.3c-1.4-2.1-1.8-5.1-1.4-8c0.1-0.7,0.2-1.4,0.4-2c0.5-1.8,1.2-3.1,2-4c0.6-0.3,1.3-0.4,1.9-0.3
			C86.8,58.4,88.7,62.5,88.1,67.2z"/>
		<path fill-rule="evenodd" clip-rule="evenodd" fill="#75272C" d="M85.6,67.1c-0.4,3.2-2.3,5.6-4.2,5.4c-0.1,0-0.3-0.1-0.4-0.1
			c-1.4-2.1-1.8-5.1-1.4-8c0.1-0.7,0.2-1.4,0.4-2c0.8-1.1,1.8-1.7,2.8-1.5C84.7,61.1,86,63.9,85.6,67.1z"/>
		<path fill-rule="evenodd" clip-rule="evenodd" fill="#BD4C3A" d="M59.5,71.9c0,0,1.4,3.8,0.5,6.1c-0.8,2.2-4.9,4.5-4.9,4.5
			S59.1,79.3,59.5,71.9z"/>
		<path fill-rule="evenodd" clip-rule="evenodd" fill="#BD4C3A" d="M38,79.5c0,0,1.8,4.5,8.7,5.5c6.9,1,10.6-5,10.6-5
			s-3.5,4.7-10,4.4C40.7,84.2,38,79.5,38,79.5z"/>
		<path fill-rule="evenodd" clip-rule="evenodd" fill="#FFFFFF" d="M39,80.9c0,0,0.9-2.3,3.8-3.5c0,0,2.1,1,5.1,1.3L47,85.1
			C47,85.1,42.7,84.9,39,80.9z"/>
		<path fill-rule="evenodd" clip-rule="evenodd" fill="#BD4C3A" d="M81,72.3c0,0,3.3,3.3,6.9,1.5c3.7-1.8,4.4-5.3,4.4-5.3
			s-0.7,5.2-4.8,6.6C83.3,76.6,81,72.3,81,72.3z"/>
		<path fill-rule="evenodd" clip-rule="evenodd" fill="#FFFFFF" d="M86.8,73.7l-3.6-3.3l1.1-2.4l5.2,0.1
			C89.6,68.2,90.3,70.8,86.8,73.7z"/>
		
			<radialGradient id="SVGID_42_" cx="88.9025" cy="76.1118" r="6.9826" gradientTransform="matrix(0.993 0.1179 -0.1179 0.993 -0.6771 -5.297)" gradientUnits="userSpaceOnUse">
			<stop  offset="1.711450e-002" style="stop-color:#9A4327"/>
			<stop  offset="0.9469" style="stop-color:#8B3B30"/>
		</radialGradient>
		<path fill-rule="evenodd" clip-rule="evenodd" fill="url(#SVGID_42_)" d="M69.9,80.7c0,0-0.9-1-0.4-2.1c0,0,11.4,1.4,18.9,0.2
			c0,0-1.4,3.2-4.2,5.2l-2.3,0c0,0-3.5-3.2-10-2.6L69.9,80.7z"/>
		<path fill-rule="evenodd" clip-rule="evenodd" fill="#FF9F30" d="M69.3,78.8l-1.8-1.5c0,0,4-6.7,13.3-4.8c0,0,5.8,4.3,7.4,6.6
			C88.1,79,79.4,80.7,69.3,78.8z"/>
		<path fill-rule="evenodd" clip-rule="evenodd" fill="#75272C" d="M85.1,88.4c0,0-0.7-1.9-4.1-1.6c-3.5,0.3-4.9,2.6-8.7,2.2
			c-3.8-0.4-3.8-2.7-3.8-2.7L67,87.2c0,0-0.1,0.7,4.1,2.1c13.6,4.6,10-0.9,12.4-0.3L85.1,88.4z"/>
		
			<radialGradient id="SVGID_43_" cx="20.3631" cy="38.2518" r="9.6435" gradientTransform="matrix(0.993 0.1179 -0.1179 0.993 -0.6771 -5.297)" gradientUnits="userSpaceOnUse">
			<stop  offset="1.711450e-002" style="stop-color:#FFC772"/>
			<stop  offset="1" style="stop-color:#FF9D48"/>
		</radialGradient>
		<path fill-rule="evenodd" clip-rule="evenodd" fill="url(#SVGID_43_)" d="M24.1,36.6c0,0-3.5-12-10.7-11.8c-5.6,0.2-7.3,3.5-7.1,8
			c0.2,3.6,1.6,10.1,5.5,11.7c3.9,1.6,7.7-0.3,7.7-0.3S22.7,38.4,24.1,36.6z"/>
		
			<radialGradient id="SVGID_44_" cx="90.5158" cy="25.5953" r="7.5659" gradientTransform="matrix(0.993 0.1179 -0.1179 0.993 -0.6771 -5.297)" gradientUnits="userSpaceOnUse">
			<stop  offset="1.711450e-002" style="stop-color:#FFC772"/>
			<stop  offset="1" style="stop-color:#FF9D48"/>
		</radialGradient>
		<path fill-rule="evenodd" clip-rule="evenodd" fill="url(#SVGID_44_)" d="M80.8,33.2c0,0,3.8-12.3,7-11.7
			c3.3,0.7,3.9,9.5,2.8,13.9c-1,4.4-4.1,4.9-6.2,4.7C84.5,40.1,82.1,34.9,80.8,33.2z"/>
		
			<linearGradient id="SVGID_45_" gradientUnits="userSpaceOnUse" x1="49.5988" y1="99.7147" x2="49.5988" y2="31.3372" gradientTransform="matrix(0.993 0.1179 -0.1179 0.993 -0.6771 -5.297)">
			<stop  offset="1.711450e-002" style="stop-color:#E08893"/>
			<stop  offset="1" style="stop-color:#FFF2EF"/>
		</linearGradient>
		<path display="none" opacity="0.6" fill-rule="evenodd" clip-rule="evenodd" fill="url(#SVGID_45_)" d="M75.7,96.3
			c-0.3-0.1-6.1-2.8-12.4-2.9c0,0-16.8,5.3-30.2,5.6C19.7,99.2,6.4,84,6.4,84L0,85.7c0.2-0.2,4-3.3,7.4-9.6c1-1.8,1.9-3.8,2.7-6.1
			c3.8-10.7,8.8-32.5,20.1-40.1c-0.3,0.5-12,18.2-10.2,40.7c1.8,22.7,22.1,23.2,31.2,22.2c9.1-1,10.9-2.7,10.9-2.7
			S73.3,93.7,75.7,96.3z"/>
		
			<linearGradient id="SVGID_46_" gradientUnits="userSpaceOnUse" x1="100.6036" y1="82.0099" x2="100.6036" y2="73.1111" gradientTransform="matrix(0.993 0.1179 -0.1179 0.993 -0.6771 -5.297)">
			<stop  offset="1.711450e-002" style="stop-color:#E08893"/>
			<stop  offset="1" style="stop-color:#FFF2EF"/>
		</linearGradient>
		<path opacity="0.6" fill-rule="evenodd" clip-rule="evenodd" fill="url(#SVGID_46_)" d="M93.3,82c-2,2.2-4.3,4.3-6.7,5.7
			c3.2-3.9,1.7-8.8,1.7-8.8C91,79.5,92.6,81.1,93.3,82z"/>
		
			<radialGradient id="SVGID_47_" cx="21.7815" cy="49.3505" r="9.8323" gradientTransform="matrix(0.993 0.1179 -0.1179 0.993 -0.6771 -5.297)" gradientUnits="userSpaceOnUse">
			<stop  offset="1.711450e-002" style="stop-color:#FFC772"/>
			<stop  offset="1" style="stop-color:#FFC381"/>
		</radialGradient>
		<path fill-rule="evenodd" clip-rule="evenodd" fill="url(#SVGID_47_)" d="M24.1,36.6c0,0-12.5-4.3-17.6,9.6c0,0,3.7-4.2,10-6
			c0,0-5.9,7.3-4.1,16.8c0,0,2.8-8.4,9.5-12.1C21.9,44.8,26.1,41.4,24.1,36.6z"/>
		
			<radialGradient id="SVGID_48_" cx="90.5134" cy="32.2577" r="5.5766" gradientTransform="matrix(0.993 0.1179 -0.1179 0.993 -0.6771 -5.297)" gradientUnits="userSpaceOnUse">
			<stop  offset="1.711450e-002" style="stop-color:#FFC772"/>
			<stop  offset="1" style="stop-color:#FFC381"/>
		</radialGradient>
		<path fill-rule="evenodd" clip-rule="evenodd" fill="url(#SVGID_48_)" d="M79.8,31.8c0,0,9.2,2.7,11.2,11.1c0,0-4.3-5.4-7.9-5.9
			L79.8,31.8z"/>
		<circle fill-rule="evenodd" clip-rule="evenodd" fill="#FFFFFF" cx="55" cy="74.3" r="1.9"/>
		<circle fill-rule="evenodd" clip-rule="evenodd" fill="#FFFFFF" cx="87.3" cy="62.6" r="0.9"/>
		<path fill-rule="evenodd" clip-rule="evenodd" fill="#75272C" d="M69.3,78.8c0,0,5.5,1.5,11.9,1.5c6.4,0,7.2-1.4,7.2-1.4
			S81.1,80.2,69.3,78.8z"/>
		<path fill-rule="evenodd" clip-rule="evenodd" fill="#9D3D3A" d="M21.9,44.8c0,0-6.9,17.8-11.1,23.2c0,0,2.5-8.3,4.4-13.4
			c1.9-5.1,2.4-6.3,2.4-6.3S19.7,45.5,21.9,44.8z"/>
		<path fill-rule="evenodd" clip-rule="evenodd" fill="#FF9F30" d="M37.5,45.1c0,0,4.7-4.7,10.4-3c5.7,1.6,10.5,8.4,10.5,8.4
			s-2.9-9.3-9.1-11.7C43.1,36.3,37.5,45.1,37.5,45.1z"/>
		<path fill-rule="evenodd" clip-rule="evenodd" fill="#FFC763" d="M37.4,28.3c0,0,10.8,9,23.6,11.1C73.8,41.5,78,31.6,78,31.6
			s-7.9-8.8-18.8-10.8C48.3,18.8,37.4,28.3,37.4,28.3z"/>
		<path fill-rule="evenodd" clip-rule="evenodd" fill="#75272C" d="M71.9,81.6c0,0,5.7-1.7,10,2.6C81.9,84.2,77.6,80.9,71.9,81.6z"
			/>
		<path fill-rule="evenodd" clip-rule="evenodd" fill="#FFFFFF" d="M71.6,78.9c0,0,4.7-1.3,5.7,0.5C77.3,79.4,73.3,80,71.6,78.9z"/>
		<path fill-rule="evenodd" clip-rule="evenodd" fill="#FFFFFF" d="M84.1,83.8c0,0,0.4-4.5,3.2-3.7C87.3,80.1,86.2,82.4,84.1,83.8z"
			/>
		<radialGradient id="SVGID_49_" cx="48.5432" cy="63.4717" r="9.2039" gradientUnits="userSpaceOnUse">
			<stop  offset="1.711450e-002" style="stop-color:#FF8E27"/>
			<stop  offset="1" style="stop-color:#FF6543"/>
		</radialGradient>
		<path fill-rule="evenodd" clip-rule="evenodd" fill="url(#SVGID_49_)" d="M37,74.9c0,0,7.2-5.5,22.4-4c0,0-0.7-11.3-9.3-11.3
			C37.8,59.6,36.7,71.5,37,74.9z"/>
		<path fill-rule="evenodd" clip-rule="evenodd" fill="#75272C" d="M37,74.9c0,0,10-4.6,22.4-3l2.2-2.1C61.7,69.8,51.6,66.3,37,74.9
			z"/>
		<radialGradient id="SVGID_50_" cx="84.9235" cy="59.087" r="5.6334" gradientUnits="userSpaceOnUse">
			<stop  offset="1.711450e-002" style="stop-color:#FF8E27"/>
			<stop  offset="1" style="stop-color:#FF6543"/>
		</radialGradient>
		<path fill-rule="evenodd" clip-rule="evenodd" fill="url(#SVGID_50_)" d="M79.4,67.2c0,0,3.9-4.2,10.7-3.8c0,0-0.8-7.4-5.3-7.1
			C80.2,56.6,79.3,65.7,79.4,67.2z"/>
		<path fill-rule="evenodd" clip-rule="evenodd" fill="#75272C" d="M79.4,67.2c0,0,3.8-2.8,10.9-2.6l0.8-1.2
			C91.1,63.5,85.3,61.7,79.4,67.2z"/>
		<linearGradient id="SVGID_51_" gradientUnits="userSpaceOnUse" x1="46.7029" y1="80.3129" x2="46.7029" y2="74.2697">
			<stop  offset="5.586590e-003" style="stop-color:#FF391F"/>
			<stop  offset="1" style="stop-color:#B82B53"/>
		</linearGradient>
		<path fill-rule="evenodd" clip-rule="evenodd" fill="url(#SVGID_51_)" d="M46.9,75.9c0,0-2.7-2.9-4-1c-1.3,1.9,3.6,5.4,3.6,5.4
			s3-2,4.1-3.8C51.4,74.9,50.1,73.9,46.9,75.9z"/>
		<linearGradient id="SVGID_52_" gradientUnits="userSpaceOnUse" x1="82.2359" y1="71.5429" x2="82.2359" y2="66.5153">
			<stop  offset="5.586590e-003" style="stop-color:#FF391F"/>
			<stop  offset="1" style="stop-color:#B82B53"/>
		</linearGradient>
		<path fill-rule="evenodd" clip-rule="evenodd" fill="url(#SVGID_52_)" d="M82.5,67.5c0,0-1.5-1.5-2.2-0.4s2,4.5,2,4.5
			s2.2-3.3,2.1-4.6C84.2,65.7,82.5,67.5,82.5,67.5z"/>
		
			<linearGradient id="SVGID_53_" gradientUnits="userSpaceOnUse" x1="93.0168" y1="71.2881" x2="93.0168" y2="22.9602" gradientTransform="matrix(0.993 0.1179 -0.1179 0.993 -0.6771 -5.297)">
			<stop  offset="1.711450e-002" style="stop-color:#E08893"/>
			<stop  offset="1" style="stop-color:#FFF2EF"/>
		</linearGradient>
		<path display="none" opacity="0.6" fill-rule="evenodd" clip-rule="evenodd" fill="url(#SVGID_53_)" d="M99.9,68.2
			c0,0-4.3,10.2-9.9,9c-5.6-1.3-9.4-5.1-9.4-5.1c-3.6-14.8,0.4-33.3,0.4-33.3c-1.1-7.1-7-11.9-7.4-12.2c1.4,0.9,2.7,1.7,3.8,2.6
			c6.1,5.1,9.7,17.5,11.8,24.5C90.6,58.1,96,64.3,99.9,68.2z"/>
		<path fill-rule="evenodd" clip-rule="evenodd" fill="#FFFFFF" d="M41.5,70.6c0,0-1.3-3.6,0.6-5.2c2.1-1.7,4.3,1.2,4.1,3.3
			C46,70.8,42.8,72.2,41.5,70.6z"/>
		<path fill-rule="evenodd" clip-rule="evenodd" fill="#FFFFFF" d="M82.5,63.9c-0.6-0.3-0.8-2.8,0-3.4c0.8-0.6,1.5,0.7,1.5,1.6
			C84.1,63,83.4,64.3,82.5,63.9z"/>
		<linearGradient id="SVGID_54_" gradientUnits="userSpaceOnUse" x1="78.3503" y1="90.3445" x2="78.3503" y2="87.65">
			<stop  offset="5.586590e-003" style="stop-color:#C9311F"/>
			<stop  offset="1" style="stop-color:#971E53"/>
		</linearGradient>
		<path fill-rule="evenodd" clip-rule="evenodd" fill="url(#SVGID_54_)" d="M74.2,89.6c0,0,4.5,1,6.4,0.7c1.9-0.3,1.9-2.4,1.9-2.4
			s-0.4-0.5-2.6,0C77.9,88.4,76.1,89.4,74.2,89.6z"/>
		<radialGradient id="SVGID_55_" cx="116.268" cy="91.199" r="25.3132" gradientUnits="userSpaceOnUse">
			<stop  offset="1.711450e-002" style="stop-color:#FF8E27"/>
			<stop  offset="1" style="stop-color:#FF6543"/>
		</radialGradient>
		<path fill-rule="evenodd" clip-rule="evenodd" fill="url(#SVGID_55_)" d="M150.9,110.3c0,0,0.2,6.6-7.3,7.2c0,0-9.6-4.6-13.3-4.9
			c0,0-5.1,3-11.6,2.2c-4.1-0.6-8.4-4.4-12.2-7.7c-0.1-0.1-0.1-0.1-0.1-0.1c-2.2-1.9-4.3-3.6-5.9-4.2c-4.5-1.8-16.4,0.7-16.4,0.7
			s-7.3-6.7-3.1-10.9c0,0,1.8,1.2,5,0.6c3.2-0.6,5.7-9.7,20.9-10.9c7.8-0.6,13.8,4.1,18,8.8c0,0,0,0,0,0.1c3.9,4.4,6.1,8.8,6.7,8.7
			c1.2-0.1,2.4-1.1,4.4-1C137.9,99.1,149.1,104.7,150.9,110.3z"/>
		<radialGradient id="SVGID_56_" cx="120.6668" cy="35.8071" r="30.662" gradientUnits="userSpaceOnUse">
			<stop  offset="1.711450e-002" style="stop-color:#FF8E27"/>
			<stop  offset="1" style="stop-color:#FF6543"/>
		</radialGradient>
		<path fill-rule="evenodd" clip-rule="evenodd" fill="url(#SVGID_56_)" d="M118.8,85.5c0,0-5.1-1.7-6.6-2.8c0,0,5.5-1.1,9.1-7.8h0
			c0.2-0.4,0.4-0.8,0.6-1.2c3.5-7.8,2.5-14.2,0-16C119.4,56,110.9,55,104,44.4c-2.5-3.9-2.3-8.4-0.4-12.5
			c3.3-7.2,11.4-13.2,18.1-12.9c10.5,0.5,11.7,10.5,11.3,13.6c-0.5,3-4.2,4.7-7.7,4.2c-1.8-0.3-4,0.7-5.3,2.3
			c-1.3,1.5-1.7,3.6,0.4,5.4c3.3,2.8,11,2.2,15.2,8.9c1.1,1.8,2,4,2.5,7C140.5,74.7,118.8,85.5,118.8,85.5z"/>
		<radialGradient id="SVGID_57_" cx="17.9541" cy="96.9263" r="17.9967" gradientUnits="userSpaceOnUse">
			<stop  offset="1.711450e-002" style="stop-color:#FF8E27"/>
			<stop  offset="1" style="stop-color:#FF6543"/>
		</radialGradient>
		<path fill-rule="evenodd" clip-rule="evenodd" fill="url(#SVGID_57_)" d="M53,113.4c-7.7,6.5-28.7,8-31.1,6.8
			c-2.4-1.1-7.1-5.4-7.3-11.9c-0.2-5.4,2-8.9,2.6-10.3c0.1-0.3,0.2-0.5,0.1-0.7c-0.3-0.7-3.3-2.5-3.7-3.4c0,0,0,0,0,0
			c-0.4-0.9-0.4-4.1,0.7-4.9c1-0.8,6.3-1.6,10,0.9c3.7,2.5,5.1,8.8,5.1,8.8s-1.1,5,0.3,6.4c0,0,0,0,0,0c0.1,0.1,0.3,0.2,0.4,0.3
			c2.1,0.6,11.7-7.1,11.7-7.1c0.8-0.1,5.8-1,5.8-1C46.2,108.3,53,113.4,53,113.4z"/>
		<radialGradient id="SVGID_58_" cx="85.1572" cy="101.1065" r="11.4371" gradientUnits="userSpaceOnUse">
			<stop  offset="1.711450e-002" style="stop-color:#FF8E27"/>
			<stop  offset="1" style="stop-color:#FF6543"/>
		</radialGradient>
		<path fill-rule="evenodd" clip-rule="evenodd" fill="url(#SVGID_58_)" d="M95.1,104.8c-1.3,3.4-5.9,3.2-6.1,3.7
			c-0.1,0.4,0.8,2.8,1,5c0.1,0.8,0,1.5-0.1,2.2c-0.7,2.6-5.8,6.4-8,6.2c-2.1-0.1-7.7-4.2-7.8-7.5c-0.1-3.4,1.8-15.1,3.3-16
			c1.5-0.9,6.9-2.3,11.6-1.9c4.7,0.4,6.9,3.3,6.9,3.3S96.4,101.5,95.1,104.8z"/>
		<radialGradient id="SVGID_59_" cx="86.4974" cy="100.0594" r="7.0135" gradientUnits="userSpaceOnUse">
			<stop  offset="1.711450e-002" style="stop-color:#FFC772"/>
			<stop  offset="1" style="stop-color:#FFC381"/>
		</radialGradient>
		<path fill-rule="evenodd" clip-rule="evenodd" fill="url(#SVGID_59_)" d="M77.3,98.5c0,0,1.7-0.4,3.6,1.7c1.9,2.1,2.6,3.5,7.4,3.6
			c4.8,0.1,6.7-1.3,7.3-3c0.6-1.7-1.8-3.6-6.4-4.3C84.7,95.8,78.5,97.2,77.3,98.5z"/>
		<radialGradient id="SVGID_60_" cx="54.0134" cy="95.796" r="7.0417" gradientUnits="userSpaceOnUse">
			<stop  offset="5.586590e-003" style="stop-color:#008B60"/>
			<stop  offset="1" style="stop-color:#004F53"/>
		</radialGradient>
		<path fill-rule="evenodd" clip-rule="evenodd" fill="url(#SVGID_60_)" d="M44.4,97.8c0,0,4.1,1,9.8,0s9.5-4.4,9.5-4.4l-0.5,0
			C63.2,93.4,48.5,97.2,44.4,97.8z"/>
		<path display="none" opacity="0.8" fill-rule="evenodd" clip-rule="evenodd" fill="#CE777C" d="M71.6,94.8c0,0-9.9,14.6-18.6,15.4
			c-8.6,0.8-18.2-6.9-18.2-6.9s6.2-4.2,7.1-5.1c0,0,10.9-2.1,21.3-4.8C63.2,93.4,68.8,93.5,71.6,94.8z"/>
		<linearGradient id="SVGID_61_" gradientUnits="userSpaceOnUse" x1="106.5154" y1="104.3423" x2="150.9157" y2="104.3423">
			<stop  offset="1.711450e-002" style="stop-color:#AC6393"/>
			<stop  offset="1" style="stop-color:#FFF2EF"/>
		</linearGradient>
		<path opacity="0.6" fill-rule="evenodd" clip-rule="evenodd" fill="url(#SVGID_61_)" d="M150.9,110.3c0,0,0.2,6.6-7.3,7.2
			c0,0-9.6-4.6-13.3-4.9c0,0-5.1,3-11.6,2.2c-4.1-0.6-8.4-4.4-12.2-7.7c1.1,0.9,8.3,6.6,15,6.5c7.2-0.2,9.4-9.6,8.2-13.7
			c-1.2-3.8-4.3-8.1-4.8-8.7c3.9,4.4,6.1,8.8,6.7,8.7c1.2-0.1,2.4-1.1,4.4-1C137.9,99.1,149.1,104.7,150.9,110.3z"/>
		<path opacity="0.8" fill-rule="evenodd" clip-rule="evenodd" fill="#CE777C" d="M118.8,85.5c0,0-5.1-1.7-6.6-2.8
			c0,0,5.5-1.1,9.1-7.8h0c0,0,6.3,1.7,12.4-5.2c6.1-6.8,2-16,1.9-16.4c1.1,1.8,2,4,2.5,7C140.5,74.7,118.8,85.5,118.8,85.5z"/>
		<path opacity="0.8" fill-rule="evenodd" clip-rule="evenodd" fill="#CE777C" d="M77.3,98.5c0,0-2.7,9-3.1,13
			c-0.4,4,2.2,6.9,2.2,6.9s-4.2-4.6-2.7-10.6C75.2,101.9,77.3,98.5,77.3,98.5z"/>
		<path opacity="0.8" fill-rule="evenodd" clip-rule="evenodd" fill="#CE777C" d="M90,113.6c-2.3-0.3-11-2.1-10.6-10.4
			c0,0,0.1,2,2.5,3.8c2.4,1.8,7,1.6,7,1.6C88.9,108.9,89.9,111.4,90,113.6z"/>
		<radialGradient id="SVGID_62_" cx="118.2985" cy="28.9266" r="12.5777" gradientUnits="userSpaceOnUse">
			<stop  offset="1.711450e-002" style="stop-color:#FFC772"/>
			<stop  offset="1" style="stop-color:#FFC381"/>
		</radialGradient>
		<path fill-rule="evenodd" clip-rule="evenodd" fill="url(#SVGID_62_)" d="M132.9,32.5c-0.5,3-4.2,4.7-7.7,4.2
			c-1.8-0.3-4,0.7-5.3,2.3c-4.9-13.9-16.3-7.1-16.3-7.1v0c3.3-7.2,11.4-13.2,18.1-12.9C132.2,19.4,133.4,29.5,132.9,32.5z"/>
		<linearGradient id="SVGID_63_" gradientUnits="userSpaceOnUse" x1="21.9354" y1="108.899" x2="53.0454" y2="108.899">
			<stop  offset="1.711450e-002" style="stop-color:#E08893"/>
			<stop  offset="1" style="stop-color:#FFF2EF"/>
		</linearGradient>
		<path opacity="0.6" fill-rule="evenodd" clip-rule="evenodd" fill="url(#SVGID_63_)" d="M53,113.4c-7.7,6.5-28.7,8-31.1,6.8
			c0,0,8.6-0.5,9.5-5.3c0.8-4.7-1.4-9.4-1.6-9.8c0.1,0.1,0.3,0.2,0.4,0.3c2.1,0.6,11.7-7.1,11.7-7.1c0.8-0.1,5.8-1,5.8-1
			C46.2,108.3,53,113.4,53,113.4z"/>
		<path fill-rule="evenodd" clip-rule="evenodd" fill="#9D3D3A" d="M14.3,89c0,0,5.4-1.3,9.9,1.6c4.5,2.9,5.3,8.1,5.3,8.1
			s-0.9-6.6-4.9-9.2C20.5,86.9,15.4,88.2,14.3,89z"/>
		<linearGradient id="SVGID_64_" gradientUnits="userSpaceOnUse" x1="13.5954" y1="96.1187" x2="26.3054" y2="96.1187">
			<stop  offset="1.711450e-002" style="stop-color:#E08893"/>
			<stop  offset="1" style="stop-color:#FFF2EF"/>
		</linearGradient>
		<path opacity="0.6" fill-rule="evenodd" clip-rule="evenodd" fill="url(#SVGID_64_)" d="M26.3,97.9c0,0-6.5,1-9.1,0.1
			c0.1-0.3,0.2-0.5,0.1-0.7c-0.3-0.7-3.3-2.5-3.7-3.4c0,0,0,0,0,0S23.5,94.1,26.3,97.9z"/>
		<path fill-rule="evenodd" clip-rule="evenodd" fill="#BD4C3A" d="M15.4,88.7c0,0-1.3,2.7-0.4,5.2c0,0-0.2-3.4,0.8-5.2H15.4z"/>
		<path fill-rule="evenodd" clip-rule="evenodd" fill="#BD4C3A" d="M19.8,88.9c0,0-1.5,2.3,0.4,5.5c0,0-1.2-2.6,0.4-5.4L19.8,88.9z"
			/>
		<path fill-rule="evenodd" clip-rule="evenodd" fill="#BD4C3A" d="M85.1,102.2c0,0,1.2,0.6,1.4,1.6c0.2,1-1.1,4.5-1.1,4.5
			s1.7-2.6,1.6-4.3C86.9,102.3,85.1,102.2,85.1,102.2z"/>
		<path fill-rule="evenodd" clip-rule="evenodd" fill="#BD4C3A" d="M89.9,101.3c0,0,1.6,0.7,2,2.2c0.4,1.6-0.7,4.1-2.6,4.9
			c0,0,4.3-1.7,3.3-5.1C92.6,103.3,91.8,101.9,89.9,101.3z"/>
		<path fill-rule="evenodd" clip-rule="evenodd" fill="#FF957E" d="M81.4,97.5c-0.6,0.3,2.7,1.8,5.4,1.7c2.7,0,2-2.3,1.2-2.5
			c-0.8-0.2-1,0.5-2.4,0.5S82.4,97,81.4,97.5z"/>
		<path fill-rule="evenodd" clip-rule="evenodd" fill="#FF957E" d="M87.3,100.5c-1.1,0-0.6,2.4,0.1,2.6c0.8,0.2,2.6,0.1,2.9-0.3
			C90.6,102.5,88.7,100.5,87.3,100.5z"/>
		<path fill-rule="evenodd" clip-rule="evenodd" fill="#FF957E" d="M91,99c-0.5,0.6,1.6,2.1,2.6,1.8c1-0.2,0-2.4-0.9-2.6
			C91.8,98,91.4,98.5,91,99z"/>
		<path fill-rule="evenodd" clip-rule="evenodd" fill="#FF957E" d="M89.6,97.1c-0.4,0.1,0,0.7,0.9,0.9c0.9,0.2,2.2-0.1,2.2-0.2
			C92.7,97.6,90.9,96.8,89.6,97.1z"/>
		<path fill-rule="evenodd" clip-rule="evenodd" fill="#FF957E" d="M83,100.5c-0.9-0.1-0.8,0.9-0.2,1.4c0.6,0.5,2.1,1,2.2,0.4
			C85,101.8,83.8,100.6,83,100.5z"/>
		<path fill-rule="evenodd" clip-rule="evenodd" fill="#9D3D3A" d="M103.6,82.7c0,0,5.4,2.4,7.1,11.2c1.7,8.8,0,12.1,0,12.1
			s3.6-5.9,3.6-12c0-6.1-2.1-11.4-2.1-11.4S108.4,81.7,103.6,82.7z"/>
		<path fill-rule="evenodd" clip-rule="evenodd" fill="#9D3D3A" d="M118.1,85.2c0,0,2.2,6.8,0.5,11.5c-1.7,4.7-1.6,7.1-1.6,7.1
			s2.5-2.5,4.5-6.3c2-3.7,2.1-7.7,2.1-7.7S119.4,85.9,118.1,85.2z"/>
		<path fill-rule="evenodd" clip-rule="evenodd" fill="#9D3D3A" d="M129.1,96.7c0,0,2,4,1.8,10.3c0,0,1.4-2,0.7-7L129.1,96.7z"/>
		<path fill-rule="evenodd" clip-rule="evenodd" fill="#9D3D3A" d="M87.7,92.2c0,0,7.1-2.3,11.7,2.8c0,0-0.8-6.5-6.1-8.1
			C93.3,86.9,89.9,89.1,87.7,92.2z"/>
		<path fill-rule="evenodd" clip-rule="evenodd" fill="#9D3D3A" d="M102.4,40.8c0,0,5.7,3.3,12.9,1.3c0,0-3.1,5.1-9.8,4.5
			C105.5,46.5,102.7,43.2,102.4,40.8z"/>
		<path fill-rule="evenodd" clip-rule="evenodd" fill="#9D3D3A" d="M110.9,52c0,0,4.3-0.3,8.2-6.9c0,0,1.2,6.2-4.1,9.5L110.9,52z"/>
		<path fill-rule="evenodd" clip-rule="evenodd" fill="#9D3D3A" d="M122.5,58.4c0,0,6.6-0.3,9.9-8.6l1.2,1c0,0-0.8,11.3-9.5,12.6
			C124.1,63.5,123.6,60.7,122.5,58.4z"/>
		<path fill-rule="evenodd" clip-rule="evenodd" fill="#9D3D3A" d="M123.2,70.1c0,0,8.6,0.6,11.5-7.5c0,0-4.8,3.4-10.7,3.2
			L123.2,70.1z"/>
		<path fill-rule="evenodd" clip-rule="evenodd" fill="#9D3D3A" d="M14.6,108.3c0,0,3.2,3.9,9.4,3.3c0,0-2.2,2.9-7.3,3.5
			C16.7,115.1,14.2,112.7,14.6,108.3z"/>
		<path fill-rule="evenodd" clip-rule="evenodd" fill="#9D3D3A" d="M22.9,120.6c0,0,9.1-1.6,9.6-8.9c0,0,1.6,4.9-1.3,8.5
			C31.2,120.2,26.8,120.9,22.9,120.6z"/>
		<path fill-rule="evenodd" clip-rule="evenodd" fill="#9D3D3A" d="M35.2,119.7c0,0,1.9-0.6,2.7-3.6c0,0,2,1.3,1.9,2.7
			C39.8,118.9,36.5,119.5,35.2,119.7z"/>
		<path fill-rule="evenodd" clip-rule="evenodd" fill="#9D3D3A" d="M90.1,114.3c0,0-3.3,4.9-9.6,4.5c0,0,3.9,1.3,6.1,1.2
			C86.6,120,90.4,117.8,90.1,114.3z"/>
		<linearGradient id="SVGID_65_" gradientUnits="userSpaceOnUse" x1="54.0134" y1="115.0601" x2="76.0462" y2="115.0601">
			<stop  offset="0" style="stop-color:#FFF2EF"/>
			<stop  offset="0.9829" style="stop-color:#E08893"/>
		</linearGradient>
		<path opacity="0.6" fill-rule="evenodd" clip-rule="evenodd" fill="url(#SVGID_65_)" d="M54,113.8c0,0,13.1,2.7,17.9-2.2
			c0,0,1.6,4.5,4.1,6.8C76,118.4,65.1,119,54,113.8z"/>
		<linearGradient id="SVGID_66_" gradientUnits="userSpaceOnUse" x1="90.9211" y1="110.4915" x2="109.2176" y2="110.4915">
			<stop  offset="0" style="stop-color:#FFF2EF"/>
			<stop  offset="0.9829" style="stop-color:#AC6393"/>
		</linearGradient>
		<path opacity="0.6" fill-rule="evenodd" clip-rule="evenodd" fill="url(#SVGID_66_)" d="M102.4,103.8c0,0,2,5.5-1.3,8.6
			c-3.3,3.1-10.1,4.8-10.1,4.8s13.1-2.1,18.3-7.8C109.2,109.4,103.6,104.5,102.4,103.8z"/>
		<path fill-rule="evenodd" clip-rule="evenodd" fill="#BD4C3A" d="M142.5,115.1c0,0,1.3,1.9,3.1,2.1l0.5-0.1
			C146,117,143.8,116.3,142.5,115.1z"/>
		<path fill-rule="evenodd" clip-rule="evenodd" fill="#BD4C3A" d="M145,111.1c0,0,0.4,2.6,5.2,2.3l0.3-0.8
			C150.5,112.5,147.6,112.6,145,111.1z"/>
		<path fill-rule="evenodd" clip-rule="evenodd" fill="#FFC763" d="M95.1,87.5c1.9,3.1,24.7,4.8,26.6,3.5c1.9-1.3-4.7-9-14.2-8.4
			C98,83.1,95.1,87.5,95.1,87.5z"/>
		<path fill-rule="evenodd" clip-rule="evenodd" fill="#FFC763" d="M105.2,43c2.5,2.9,14.8-7.8,18.4-12.9s0.3-10.4-6.4-9.6
			C110.5,21.4,97.9,34.4,105.2,43z"/>
		<path fill-rule="evenodd" clip-rule="evenodd" fill="#FFC763" d="M135.3,99.9c-2.2-0.2,1.5,6.4,6.8,8.8c5.3,2.4,8.2,1.9,8.5,1.6
			C150.8,109.9,144,100.5,135.3,99.9z"/>
		<path fill-rule="evenodd" clip-rule="evenodd" fill="#BD4C3A" d="M53,113.4c0,0,12.2,5.3,22.3,4.2l0.7,0.9
			C76,118.4,65.5,119.7,53,113.4z"/>
		<path fill-rule="evenodd" clip-rule="evenodd" fill="#BD4C3A" d="M22.4,120.6c0,0,15.3-0.1,28.5-5.7
			C50.9,114.9,39.9,121.6,22.4,120.6z"/>
		<path fill-rule="evenodd" clip-rule="evenodd" fill="#BD4C3A" d="M124.4,114.6c0,0,3.6-0.5,6.8-3c0,0,8.5,1.8,11.9,5.5
			c0,0-4.2-3-12-4.5C131,112.7,128.4,114.4,124.4,114.6z"/>
		
			<linearGradient id="SVGID_67_" gradientUnits="userSpaceOnUse" x1="66.7524" y1="99.8274" x2="66.7524" y2="85.516" gradientTransform="matrix(-1 0 0 1 154.9478 0)">
			<stop  offset="5.586590e-003" style="stop-color:#FF3B00"/>
			<stop  offset="1" style="stop-color:#E50153"/>
		</linearGradient>
		<path opacity="0.81" fill-rule="evenodd" clip-rule="evenodd" fill="url(#SVGID_67_)" d="M88.4,89.9c0,0-2.5-6.2-4.2-3.9
			c-2.9,3.8,0.7,12,4,13.8c0,0,5.5-6.3,4.9-12.2C92.7,82.7,88.4,89.9,88.4,89.9z"/>
		
			<linearGradient id="SVGID_68_" gradientUnits="userSpaceOnUse" x1="51.6134" y1="90.3445" x2="51.6134" y2="68.8153" gradientTransform="matrix(-1 0 0 1 154.9478 0)">
			<stop  offset="5.586590e-003" style="stop-color:#FF3B00"/>
			<stop  offset="1" style="stop-color:#E50153"/>
		</linearGradient>
		<path opacity="0.61" fill-rule="evenodd" clip-rule="evenodd" fill="url(#SVGID_68_)" d="M103.1,75.5c0,0-4.1-9.4-7-5.9
			c-4.8,5.8,2.1,18.1,7.5,20.7c0,0,9.7-8,8.6-18C111.3,64.7,103.1,75.5,103.1,75.5z"/>
		
			<linearGradient id="SVGID_69_" gradientUnits="userSpaceOnUse" x1="4.1918" y1="63.8042" x2="4.1918" y2="26.6053" gradientTransform="matrix(-1 0 0 1 154.9478 0)">
			<stop  offset="5.586590e-003" style="stop-color:#FF3B00"/>
			<stop  offset="1" style="stop-color:#E50153"/>
		</linearGradient>
		<path opacity="0.61" fill-rule="evenodd" clip-rule="evenodd" fill="url(#SVGID_69_)" d="M151.1,38c0,0-7.1-16.1-12-10.1
			c-8.2,9.9,2.1,31.3,11.5,35.9c0,0,18.1-12.2,14.1-31.7C162.5,21,151.1,38,151.1,38z"/>
		
			<linearGradient id="SVGID_70_" gradientUnits="userSpaceOnUse" x1="-11.7045" y1="57.8533" x2="-11.7045" y2="-6.402843e-010" gradientTransform="matrix(-1 0 0 1 154.9478 0)">
			<stop  offset="5.586590e-003" style="stop-color:#FF3B00"/>
			<stop  offset="1" style="stop-color:#E50153"/>
		</linearGradient>
		<path opacity="0.2" fill-rule="evenodd" clip-rule="evenodd" fill="url(#SVGID_70_)" d="M167.2,17.7c0,0-11-25-18.6-15.7
			c-12.7,15.5,3.3,48.7,17.9,55.8c0,0,28.2-18.9,22-49.2C184.9-8.8,167.2,17.7,167.2,17.7z"/>
	</g>
</g>
</svg>
