<?xml version="1.0" encoding="utf-8"?>
<!-- Generator: Adobe Illustrator 17.1.0, SVG Export Plug-In . SVG Version: 6.00 Build 0)  -->
<!DOCTYPE svg PUBLIC "-//W3C//DTD SVG 1.1//EN" "http://www.w3.org/Graphics/SVG/1.1/DTD/svg11.dtd">
<svg version="1.1" id="Layer_1" xmlns="http://www.w3.org/2000/svg" xmlns:xlink="http://www.w3.org/1999/xlink" x="0px" y="0px"
	 width="123px" height="144.7px" viewBox="0 0 123 144.7" enable-background="new 0 0 123 144.7" xml:space="preserve">
<g>
	
		<linearGradient id="SVGID_1_" gradientUnits="userSpaceOnUse" x1="69.8779" y1="25.4067" x2="69.8779" y2="-4.6002" gradientTransform="matrix(0.9251 0.3798 -0.3798 0.9251 24.4606 -22.8845)">
		<stop  offset="0.3802" style="stop-color:#9A4327"/>
		<stop  offset="0.9972" style="stop-color:#592930"/>
	</linearGradient>
	<path fill-rule="evenodd" clip-rule="evenodd" fill="url(#SVGID_1_)" d="M73.6,7.2c0,0,11.4-9.5,20-6.7c0,0,5.1,3.1,5.5,8.7
		c0.5,7.7-5.1,15.6-8.8,18.4c-3.7,2.8-10.7-0.4-10.7-0.4S78.4,17.2,73.6,7.2z"/>
	
		<radialGradient id="SVGID_2_" cx="73.5717" cy="14.2837" r="9.8695" gradientTransform="matrix(0.9251 0.3798 -0.3798 0.9251 24.4606 -22.8845)" gradientUnits="userSpaceOnUse">
		<stop  offset="1.711450e-002" style="stop-color:#FFC772"/>
		<stop  offset="1" style="stop-color:#FF9D48"/>
	</radialGradient>
	<path fill-rule="evenodd" clip-rule="evenodd" fill="url(#SVGID_2_)" d="M79.4,14.8c0,0,10-7.6,15.2-5.5c5.1,2.1,1.6,10.3-1.1,14.1
		c-2.8,3.8-5.2,7.1-13.3,4.1C80.2,27.5,80.6,21.5,79.4,14.8z"/>
	<radialGradient id="SVGID_3_" cx="86.1941" cy="82.669" r="23.1835" gradientUnits="userSpaceOnUse">
		<stop  offset="1.711450e-002" style="stop-color:#FF8E27"/>
		<stop  offset="1" style="stop-color:#FF6543"/>
	</radialGradient>
	<path fill-rule="evenodd" clip-rule="evenodd" fill="url(#SVGID_3_)" d="M122.1,83.2c-1.7,3.7-6.3,5-11,9.8
		c-2.3,2.3-4.6,5.5-6.6,10.2c0,0,0,0,0,0c-0.2,0.5-0.4,0.9-0.6,1.4c-6,15.6-3,22.7-18.6,22.8l-5.3-5.6c0,0,5.4-0.1,9.1-4.3
		c1-1.1,1.8-2.5,2.4-4.2c2.7-7.9-0.4-19.1,5.8-29.7c0.3-0.5,0.7-1.1,1-1.6c7.5-11.1,16.1-12.3,19.4-11.3
		C120.9,71.6,124.7,77.5,122.1,83.2z"/>
	<radialGradient id="SVGID_4_" cx="110.1058" cy="81.6815" r="12.098" gradientUnits="userSpaceOnUse">
		<stop  offset="1.711450e-002" style="stop-color:#FFC772"/>
		<stop  offset="1" style="stop-color:#FFC381"/>
	</radialGradient>
	<path fill-rule="evenodd" clip-rule="evenodd" fill="url(#SVGID_4_)" d="M122.1,83.2c-1.7,3.7-6.3,5-11,9.8
		c-3.4-10.1-13.8-9.4-13.8-9.4c0.3-0.5,0.7-1.1,1-1.6c7.5-11.1,16.1-12.3,19.4-11.3C120.9,71.6,124.7,77.5,122.1,83.2z"/>
	<path opacity="0.8" fill-rule="evenodd" clip-rule="evenodd" fill="#CE777C" d="M104.4,103.2c-0.2,0.5-0.4,0.9-0.6,1.4
		c-6,15.6-3,22.7-18.6,22.8l-5.3-5.6c0,0,5.4-0.1,9.1-4.3c0,0,4.5,2,8.2-4.1C100.9,107.4,104.2,103.4,104.4,103.2z"/>
	<path fill-rule="evenodd" clip-rule="evenodd" fill="#932F31" d="M77.6,122.3c0,0,0.6,2.4,0.5,6.6c-0.1,4.2-8.5,10.1-8.5,10.1
		s2.9-11.1,4.7-13.6C76.2,122.9,77.6,122.3,77.6,122.3z"/>
	<path fill-rule="evenodd" clip-rule="evenodd" fill="#932F31" d="M41.4,123.6c0,0,2.8,14.1,7.1,17.7c0,0-11.1,0.8-15.9-5.5
		C27.7,129.5,41.4,123.6,41.4,123.6z"/>
	<radialGradient id="SVGID_5_" cx="56.9129" cy="111.2308" r="26.4901" gradientUnits="userSpaceOnUse">
		<stop  offset="1.711450e-002" style="stop-color:#FFC772"/>
		<stop  offset="1" style="stop-color:#FFC381"/>
	</radialGradient>
	<path fill-rule="evenodd" clip-rule="evenodd" fill="url(#SVGID_5_)" d="M45.8,81.4c0,0-2.6,6-10.1,11.9h2.1c0,0,4.4,12,6.1,18.8
		c1.7,6.8-6.2,21,4.4,29.9H72c7.1-10.2,0.1-23.5,0.6-30.3c0.5-6.8,2.9-18.8,2.9-18.8l2.7,0.4c0,0-6.5-6.3-9.1-12.9L45.8,81.4z"/>
	<radialGradient id="SVGID_6_" cx="57.958" cy="80.4773" r="7.2979" gradientUnits="userSpaceOnUse">
		<stop  offset="5.586590e-003" style="stop-color:#008B60"/>
		<stop  offset="1" style="stop-color:#004F53"/>
	</radialGradient>
	<path fill-rule="evenodd" clip-rule="evenodd" fill="url(#SVGID_6_)" d="M45.5,81.9c0,0,4.4,6.4,12,6.4c7.6,0,12.4-6,12.4-6
		l-0.8-2.4l-23.2,0.7L45.5,81.9z"/>
	<linearGradient id="SVGID_7_" gradientUnits="userSpaceOnUse" x1="60.0779" y1="142.099" x2="60.0779" y2="125.4469">
		<stop  offset="1.711450e-002" style="stop-color:#E08893"/>
		<stop  offset="1" style="stop-color:#FFF2EF"/>
	</linearGradient>
	<path opacity="0.6" fill-rule="evenodd" clip-rule="evenodd" fill="url(#SVGID_7_)" d="M40,127.4c0,0,17-0.9,23.7-1.8
		c6.7-0.9,11.5,4.1,11.5,4.1l5,7.4l-8.1,5l-18.9,0C53.2,142.1,39.9,130.6,40,127.4z"/>
	<radialGradient id="SVGID_8_" cx="56.8835" cy="97.7338" r="21.0063" gradientUnits="userSpaceOnUse">
		<stop  offset="5.586590e-003" style="stop-color:#006B60"/>
		<stop  offset="1" style="stop-color:#004F53"/>
	</radialGradient>
	<path fill-rule="evenodd" clip-rule="evenodd" fill="url(#SVGID_8_)" d="M31,96.9l5.7,32.6c0,0,18.4,2.4,40,0l5.3-34.1L31,96.9z"/>
	<path opacity="0.8" fill-rule="evenodd" clip-rule="evenodd" fill="#CE777C" d="M36.1,126.6c0,0,4.6-2.4,5.8-11.2l-7,3.8
		L36.1,126.6z"/>
	<radialGradient id="SVGID_9_" cx="56.8835" cy="91.5044" r="13.0381" gradientUnits="userSpaceOnUse">
		<stop  offset="5.586590e-003" style="stop-color:#00A992"/>
		<stop  offset="1" style="stop-color:#00777E"/>
	</radialGradient>
	<polygon fill-rule="evenodd" clip-rule="evenodd" fill="url(#SVGID_9_)" points="31,96.9 42.8,91.8 70.9,91.1 81.9,95.4 	"/>
	<path opacity="0.8" fill-rule="evenodd" clip-rule="evenodd" fill="#CE777C" d="M72.6,111.7c0,0,0.6,8.3,4.9,11.3l1-5.6L72.6,111.7
		z"/>
	<radialGradient id="SVGID_10_" cx="81.1076" cy="92.2512" r="15.7955" gradientUnits="userSpaceOnUse">
		<stop  offset="1.711450e-002" style="stop-color:#FF8E27"/>
		<stop  offset="1" style="stop-color:#FF6543"/>
	</radialGradient>
	<path fill-rule="evenodd" clip-rule="evenodd" fill="url(#SVGID_10_)" d="M82,116.6c-1.1,0.4-2.4,0.7-3.8,0.9c0,0-7.5-1.7-6-10.7
		c0,0,0.5-0.8,1.7-1.9h0c1.4-1.2,3.6-2.7,7.1-3.4l1-6.1l-6.5-2.4c0,0-3.8-6.1-4.8-9.3c0,0,5.7,4.8,11.3,8.1c5.5,3.3,8.7,5.8,8.9,7
		C91.1,99.9,92.3,112.8,82,116.6z"/>
	<radialGradient id="SVGID_11_" cx="23.9302" cy="108.2885" r="17.2086" gradientUnits="userSpaceOnUse">
		<stop  offset="1.711450e-002" style="stop-color:#FF8E27"/>
		<stop  offset="1" style="stop-color:#FF6543"/>
	</radialGradient>
	<path fill-rule="evenodd" clip-rule="evenodd" fill="url(#SVGID_11_)" d="M37.9,121c-0.9,0.2-2.3,0.5-4.2,0.3
		c-1.8-0.2-4.1-0.8-7-2.3c-5.9-3.1-7.7-11.6-7.6-12.9c0.1-0.7,0-1.5,0.9-2.8l0,0c0.9-1.3,2.8-3,6.8-5.5c8.1-5.1,16.7-12.6,16.7-12.6
		c-1.7,4.2-5.6,9-5.6,9L31,96.9l1.8,10.1l3.6-0.9l1.8-0.4C46.5,112.3,39.7,120.5,37.9,121z"/>
	<radialGradient id="SVGID_12_" cx="23.5608" cy="126.3269" r="14.3099" gradientUnits="userSpaceOnUse">
		<stop  offset="1.711450e-002" style="stop-color:#FF8E27"/>
		<stop  offset="1" style="stop-color:#FF6543"/>
	</radialGradient>
	<path fill-rule="evenodd" clip-rule="evenodd" fill="url(#SVGID_12_)" d="M52.4,143.3c-0.2,0.2-0.6,0.3-1.3,0.5
		c-4.1,0.9-16.2,1.2-22.6-0.9c-7.4-2.4-10.1-8.2-10.1-9.6s0.6-4.1,5.9-7.6c5.3-3.5,11-4.5,11-4.5l1.4,8.2c0,0,1,2.3,2.3,2.7
		c0.1,0,0.2,0.1,0.3,0.1c0,0,0,0,0,0c0.1,0,0.3,0,0.4,0c0,0,0,0,0,0c0.9-0.1,1.5-0.9,2.4-1.3c0.7-0.3,4.2,0.2,7.3,1.1
		c2,0.6,3.8,1.4,4.4,2.2C55.2,136.4,53.7,142.1,52.4,143.3z"/>
	<radialGradient id="SVGID_13_" cx="74.8304" cy="123.1609" r="11.3401" gradientUnits="userSpaceOnUse">
		<stop  offset="1.711450e-002" style="stop-color:#FF8E27"/>
		<stop  offset="1" style="stop-color:#FF6543"/>
	</radialGradient>
	<path fill-rule="evenodd" clip-rule="evenodd" fill="url(#SVGID_13_)" d="M92.8,135.8c0.1,0.3,0,0.8-0.2,1.4v0
		c-0.6,2.3-2.4,6.2-2.4,6.2s-6.7,1.7-18.7-0.3c0,0,0-4.6,0.8-6.8c0.9-2.2,2.8-5.1,3.8-6.6l1.9-10.2c0,0,2.6-1.4,5.6-1.9
		c1.1-0.2,2.3-0.3,3.4-0.1c4.1,0.7,6.5,4.1,6.7,7.8c0.2,2.4-1.6,5.4-2.8,7.2l0,0c-0.5,0.7-0.9,1.2-1,1.4l0,0.1
		C90,133.9,92.5,134.6,92.8,135.8z"/>
	<path fill-rule="evenodd" clip-rule="evenodd" fill="#BD4C3A" d="M80.2,144.1c0,0,2.2-3.8,1.8-6.6c0,0,2.1,2.4,0.1,6.6L80.2,144.1z
		"/>
	<path fill-rule="evenodd" clip-rule="evenodd" fill="#BD4C3A" d="M87.9,143.8c0,0,1.6-2,2.4-5.3c0,0,0.5,1.8-1.2,5.1L87.9,143.8z"
		/>
	<linearGradient id="SVGID_14_" gradientUnits="userSpaceOnUse" x1="18.3468" y1="127.3523" x2="39.1769" y2="127.3523">
		<stop  offset="0" style="stop-color:#FFF2EF"/>
		<stop  offset="0.9829" style="stop-color:#E08893"/>
	</linearGradient>
	<path opacity="0.6" fill-rule="evenodd" clip-rule="evenodd" fill="url(#SVGID_14_)" d="M39.2,132.3c-0.7,0-2.1-0.2-3.5-0.8
		c-2-0.9-5.6-4.1-11.2-3.1c-5.6,0.9-6.1,5-6.1,5c0-1.3,0.6-4.1,5.9-7.6c5.3-3.5,11-4.5,11-4.5l1.4,8.2c0,0,1,2.3,2.3,2.7
		C39,132.3,39.1,132.3,39.2,132.3z"/>
	<linearGradient id="SVGID_15_" gradientUnits="userSpaceOnUse" x1="82.1019" y1="144.0714" x2="82.1019" y2="117.6073">
		<stop  offset="1.711450e-002" style="stop-color:#E08893"/>
		<stop  offset="1" style="stop-color:#FFF2EF"/>
	</linearGradient>
	<path opacity="0.6" fill-rule="evenodd" clip-rule="evenodd" fill="url(#SVGID_15_)" d="M92.6,137.2L92.6,137.2
		c-0.6,2.3-2.4,6.2-2.4,6.2s-6.7,1.7-18.7-0.3c0,0,0-4.6,0.8-6.8c0.9-2.2,2.8-5.1,3.8-6.6l1.9-10.2c0,0,2.6-1.4,5.6-1.9
		c-1.3,2.3-3.4,6.7-3.1,9.8c0.4,4.4,10.4,5.1,10.4,5.1l0,0l-1,1.4l0,0.1c0,0-8.6-0.9-13.6,1.8C76.5,135.7,83,138.1,92.6,137.2z"/>
	<path fill-rule="evenodd" clip-rule="evenodd" fill="#BD4C3A" d="M35.7,108.9c0,0,3.7-1.1,5.4,0l0.6,1.1
		C41.6,110.1,39.6,108.8,35.7,108.9z"/>
	<path fill-rule="evenodd" clip-rule="evenodd" fill="#BD4C3A" d="M41.3,117c0,0-1.8,1.1-6.8,0.4c0,0,3.2,1.5,5.7,1.4
		C40.3,118.8,40.9,118,41.3,117z"/>
	<path fill-rule="evenodd" clip-rule="evenodd" fill="#BD4C3A" d="M72,109.3c0,0,0.9-2.4,4.3-3C76.3,106.2,74.7,106.8,72,109.3z"/>
	<path fill-rule="evenodd" clip-rule="evenodd" fill="#BD4C3A" d="M74.4,115.3c0,0,2.8,0.5,5.7-1.8c0,0-1.5,2.8-4.4,2.9
		C75.8,116.4,74.9,115.9,74.4,115.3z"/>
	<path fill-rule="evenodd" clip-rule="evenodd" fill="#BD4C3A" d="M54.2,135.4c0,0-0.5,1.7-6.6,1.5c0,0,3.1,0.6,6.7-0.6L54.2,135.4z
		"/>
	<path fill-rule="evenodd" clip-rule="evenodd" fill="#BD4C3A" d="M53.5,141.4c0,0-2,1-5.5,1.2c0,0,2.9,0.5,4.9,0
		C52.9,142.6,53.3,141.8,53.5,141.4z"/>
	<linearGradient id="SVGID_16_" gradientUnits="userSpaceOnUse" x1="76.986" y1="117.5173" x2="76.986" y2="104.8873">
		<stop  offset="1.711450e-002" style="stop-color:#E08893"/>
		<stop  offset="1" style="stop-color:#FFF2EF"/>
	</linearGradient>
	<path opacity="0.6" fill-rule="evenodd" clip-rule="evenodd" fill="url(#SVGID_16_)" d="M82,116.6c-1.1,0.4-2.4,0.7-3.8,0.9
		c0,0-7.5-1.7-6-10.7c0,0,0.5-0.8,1.7-1.9h0c0,0,0.5,5.7,3.6,8.6C79.4,115.4,81.1,116.3,82,116.6z"/>
	<linearGradient id="SVGID_17_" gradientUnits="userSpaceOnUse" x1="37.9922" y1="121.3406" x2="37.9922" y2="105.6373">
		<stop  offset="1.711450e-002" style="stop-color:#E08893"/>
		<stop  offset="1" style="stop-color:#FFF2EF"/>
	</linearGradient>
	<path opacity="0.6" fill-rule="evenodd" clip-rule="evenodd" fill="url(#SVGID_17_)" d="M37.9,121c-0.9,0.2-2.3,0.5-4.2,0.3
		c0.9-0.5,5-2.9,4.9-8.6c-0.1-6.4-2.3-6.6-2.3-6.6l1.8-0.4C46.5,112.3,39.7,120.5,37.9,121z"/>
	<path fill-rule="evenodd" clip-rule="evenodd" fill="#9D3D3A" d="M81,101c0,0,4.4-2.1,8.2-0.4c0,0-1.7-3.5-7.6-3.6L81,101z"/>
	<path fill-rule="evenodd" clip-rule="evenodd" fill="#9D3D3A" d="M81.8,96c0,0,2.4-1.7,3.9-1.3c0,0-3.2-1.8-7-0.6l3.2,1.2L81.8,96z
		"/>
	<path fill-rule="evenodd" clip-rule="evenodd" fill="#9D3D3A" d="M75,92.1c0,0,1.3-2.5,3.8-2.4c0,0-1.3,1.7-1.9,3.8l-1.4-0.5
		L75,92.1z"/>
	<linearGradient id="SVGID_18_" gradientUnits="userSpaceOnUse" x1="70.6568" y1="92.5623" x2="90.8569" y2="92.5623">
		<stop  offset="1.711450e-002" style="stop-color:#E08893"/>
		<stop  offset="1" style="stop-color:#FFF2EF"/>
	</linearGradient>
	<path opacity="0.6" fill-rule="evenodd" clip-rule="evenodd" fill="url(#SVGID_18_)" d="M90.9,98.8c-3.7-2.9-9.9,2.7-9.9,2.7l1-6.1
		l-6.5-2.4c0,0-3.8-6.1-4.8-9.3c0,0,5.7,4.8,11.3,8.1C87.4,95,90.6,97.5,90.9,98.8z"/>
	<path opacity="0.8" fill-rule="evenodd" clip-rule="evenodd" fill="#CE777C" d="M81,101.5c0,0,2.5-0.6,3.7-0.9l-3.4-0.9L81,101.5z"
		/>
	<path fill-rule="evenodd" clip-rule="evenodd" fill="#9D3D3A" d="M32.7,107c0,0-6.6-2.6-10-1.4c-3.4,1.2-2.6,4.4-2.6,4.4l-0.5-1.6
		c0,0-0.3-5.3,3.6-6.2c3.9-0.9,8.8,0.6,8.8,0.6L32.7,107z"/>
	<path fill-rule="evenodd" clip-rule="evenodd" fill="#9D3D3A" d="M31.4,99.6c0,0-3.4-1.1-6.2,0.1c0,0,4.3-4.3,8.5-3.9L31,96.9
		L31.4,99.6z"/>
	<path fill-rule="evenodd" clip-rule="evenodd" fill="#9D3D3A" d="M38.5,93.4c0,0-1.4-1.2-4.1-0.9c0,0,3-1.6,5.8-1.4L38.5,93.4z"/>
	<linearGradient id="SVGID_19_" gradientUnits="userSpaceOnUse" x1="20.1169" y1="97.3073" x2="43.6368" y2="97.3073">
		<stop  offset="0" style="stop-color:#FFF2EF"/>
		<stop  offset="0.9829" style="stop-color:#AC6393"/>
	</linearGradient>
	<path opacity="0.6" fill-rule="evenodd" clip-rule="evenodd" fill="url(#SVGID_19_)" d="M38.1,94L31,96.9l1.8,10.1
		c0,0-2.1,0.2-3.6,2.6c0,0,0.3-1.6,1-2.8c0,0-5.8-7.1-10.1-3.6c0.9-1.3,2.8-3,6.8-5.5c8.1-5.1,16.7-12.6,16.7-12.6
		C42,89.2,38.1,94,38.1,94z"/>
	<path opacity="0.8" fill-rule="evenodd" clip-rule="evenodd" fill="#CE777C" d="M32.7,107c0,0-2.2,0.8-3.6,2.6c0,0,0.7-4.6,2.9-6.7
		L32.7,107z"/>
	<path fill-rule="evenodd" clip-rule="evenodd" fill="#9D3D3A" d="M90.9,114.6c0,0,4.5,0,6.7,3.1c0,0-0.6-4.9-5.7-6.2L90.9,114.6z"
		/>
	<path fill-rule="evenodd" clip-rule="evenodd" fill="#9D3D3A" d="M92.6,107.8c0,0,5.7-0.6,8.3,2.5c0,0-0.8-5-8-6.7L92.6,107.8z"/>
	<path fill-rule="evenodd" clip-rule="evenodd" fill="#9D3D3A" d="M93,101.4c0,0,7-2.1,11.5,1.7l1.4-3c0,0-6.1-4.7-12.6-2.6
		L93,101.4z"/>
	<path fill-rule="evenodd" clip-rule="evenodd" fill="#9D3D3A" d="M93.6,94.5c0,0,6.1-3.4,11.3,1.3c0,0-2.7-7.2-10.2-6.2
		C94.7,89.6,93.9,92.4,93.6,94.5z"/>
	<path fill-rule="evenodd" clip-rule="evenodd" fill="#9D3D3A" d="M20.4,137.5c0,0,0-7.3,4.7-8.3c0,0-2.9,2-1.6,11.3
		C23.5,140.4,21.2,139,20.4,137.5z"/>
	<path fill-rule="evenodd" clip-rule="evenodd" fill="#9D3D3A" d="M28.5,142.9c0,0-0.8-6.7,3.4-9.6c0,0-0.5,4.2,1.4,10.7
		C33.3,144.1,30.1,143.6,28.5,142.9z"/>
	<path fill-rule="evenodd" clip-rule="evenodd" fill="#9D3D3A" d="M92.9,129.5c0,0-1.2-7.8-9.4-7.1c0,0,7.1-2.5,10.3,1.8
		C93.7,124.2,94.4,126.4,92.9,129.5z"/>
	<path fill-rule="evenodd" clip-rule="evenodd" fill="#9D3D3A" d="M91.3,119.6c0,0-2.1-1.5-4.3-1.1c-2.3,0.4-3.5,1.9-3.5,1.9
		s1.3-2.6,2.9-3C86.4,117.4,89.6,117.2,91.3,119.6z"/>
	<path opacity="0.8" fill-rule="evenodd" clip-rule="evenodd" fill="#CE777C" d="M52.1,133.1c0,0,15.7,0.9,23.1-2.6l1.1-1
		c0,0-17.8,2.1-39.7,0L42,131C42,131,51.4,132.8,52.1,133.1z"/>
	<path opacity="0.8" fill-rule="evenodd" clip-rule="evenodd" fill="#CE777C" d="M76.3,129.7c0,0,4.2-10.2,7.5-12.1
		c0,0-2.1,0.2-5.6,1.9L76.3,129.7z"/>
	<path fill-rule="evenodd" clip-rule="evenodd" fill="#FFC763" d="M76.5,135.7c0,0,8.1,2.5,16.2,1.5c0,0,1.1-2-2.5-3.3
		C90.1,133.9,81.6,133.2,76.5,135.7z"/>
	<path fill-rule="evenodd" clip-rule="evenodd" fill="#FFC763" d="M20.1,103.7c0,0,3.1,0.6,6-0.9c3-1.5,3.6-5.1,3-5.2
		C28.5,97.6,24,98.8,20.1,103.7z"/>
	<path fill-rule="evenodd" clip-rule="evenodd" fill="#FFC763" d="M96,91.5c0.1,5,13.7-5.9,18.2-10.5c4.6-4.6,2.9-8.4,1.8-9.4
		C114.8,70.4,95.8,78.1,96,91.5z"/>
	<path fill-rule="evenodd" clip-rule="evenodd" fill="#BD4C3A" d="M71.6,143.1c0,0,12.3,1.2,18.7,0.3
		C90.3,143.4,79.8,145.8,71.6,143.1z"/>
	<path fill-rule="evenodd" clip-rule="evenodd" fill="#BD4C3A" d="M52.4,143.3c0,0-7.6,1.6-16.9,0.4c-9.3-1.2-13.8-4.7-13.8-4.7
		s2.4,3.7,12.1,5.2C43.5,145.6,51.5,143.9,52.4,143.3z"/>
	<path fill-rule="evenodd" clip-rule="evenodd" fill="#BD4C3A" d="M53.2,142.1h18.5c0,0-13.6-0.2-18.1-1L53.2,142.1z"/>
	<path display="none" opacity="0.8" fill-rule="evenodd" clip-rule="evenodd" fill="#CE777C" d="M40.9,87.4c0,0,3.1,5.7,14.6,6.1
		c11.5,0.4,17.6-7.8,17.6-7.8l-2.5-2c0,0-1-1.8-1.4-3.4l-23.4,1.2l-2.2,3.6L40.9,87.4z"/>
	
		<linearGradient id="SVGID_20_" gradientUnits="userSpaceOnUse" x1="-188.0942" y1="73.9969" x2="-188.0942" y2="43.9871" gradientTransform="matrix(-0.7308 0.6825 0.6825 0.7308 -162.843 109.9544)">
		<stop  offset="0.3802" style="stop-color:#9A4327"/>
		<stop  offset="0.9972" style="stop-color:#592930"/>
	</linearGradient>
	<path fill-rule="evenodd" clip-rule="evenodd" fill="url(#SVGID_20_)" d="M23.9,15.2c0,0-14.4-5.1-21.4,0.5c0,0-3.7,4.7-2.1,10.1
		c2.3,7.3,10.3,12.8,14.7,14.1c4.4,1.3,9.9-4.1,9.9-4.1S22.9,26.3,23.9,15.2z"/>
	
		<radialGradient id="SVGID_21_" cx="-184.3736" cy="62.8727" r="9.8705" gradientTransform="matrix(-0.7308 0.6825 0.6825 0.7308 -162.843 109.9544)" gradientUnits="userSpaceOnUse">
		<stop  offset="1.711450e-002" style="stop-color:#FFC772"/>
		<stop  offset="1" style="stop-color:#FF9D48"/>
	</radialGradient>
	<path fill-rule="evenodd" clip-rule="evenodd" fill="url(#SVGID_21_)" d="M20.8,24.1c0,0-12.1-3.6-16.1,0.2c-4,3.8,2.1,10.2,6,12.8
		c3.9,2.6,7.3,4.8,13.8-0.9C24.5,36.2,22.1,30.8,20.8,24.1z"/>
	
		<radialGradient id="SVGID_22_" cx="-171.9798" cy="34.3237" r="8.1415" gradientTransform="matrix(-0.989 0.1478 0.1478 0.989 -160.8969 24.3346)" gradientUnits="userSpaceOnUse">
		<stop  offset="1.711450e-002" style="stop-color:#FFC772"/>
		<stop  offset="1" style="stop-color:#FFC381"/>
	</radialGradient>
	<path fill-rule="evenodd" clip-rule="evenodd" fill="url(#SVGID_22_)" d="M19,22.4c0,0-6.5-0.1-11.2,9.1c0,0,2.8-3.4,7.7-4.5
		c0,0-3.3,1.3-4.9,5.2s2.9,10.6,2.9,10.6S14.7,35.6,19,22.4z"/>
	
		<radialGradient id="SVGID_23_" cx="65.6646" cy="29.9305" r="48.563" gradientTransform="matrix(0.989 -0.1478 0.1478 0.989 -16.3597 2.7737)" gradientUnits="userSpaceOnUse">
		<stop  offset="1.711450e-002" style="stop-color:#FF8E27"/>
		<stop  offset="1" style="stop-color:#FF6543"/>
	</radialGradient>
	<path fill-rule="evenodd" clip-rule="evenodd" fill="url(#SVGID_23_)" d="M111.2,51l-5.4-0.4c0,0-0.9,1.8-2.6,4.4
		c-4.4,6.8-14.6,19.4-31,23.3c0,0-3.5,5.2-9.1,7.7l0.2-1.1c0,0-4.8-0.6-9.2-2.8c-0.4,0.1-29.6,4.4-45-11.5L3.4,72
		c0,0,0.8-1.2,1.9-3.3c2.6-4.9,7.2-14.9,8.4-27.2c1.7-17.6,10.2-26.3,10.2-26.3S36.7,3,53.8,0.5l-3.4,2.4c0,0,21,0.4,30.8,8.8
		C91.1,20.1,94.6,40.8,111.2,51z"/>
	
		<radialGradient id="SVGID_24_" cx="64.4589" cy="79.7233" r="36.2578" gradientTransform="matrix(0.989 -0.1478 0.1478 0.989 -16.3597 2.7737)" gradientUnits="userSpaceOnUse">
		<stop  offset="1.711450e-002" style="stop-color:#FFC772"/>
		<stop  offset="1" style="stop-color:#FFC381"/>
	</radialGradient>
	<path fill-rule="evenodd" clip-rule="evenodd" fill="url(#SVGID_24_)" d="M105.7,50.6c0,0-10.8,22.3-33.5,27.8c0,0-3.5,5.2-9.1,7.7
		l0.2-1.1c0,0-4.8-0.6-9.2-2.8c-0.4,0.1-29.6,4.4-45-11.5c18.1,9,36.5-6.4,36.5-6.4c13.7,0.1,23.1-3.6,23.1-3.6
		C94.1,65.9,105.7,50.6,105.7,50.6z"/>
	
		<radialGradient id="SVGID_25_" cx="75.4298" cy="72.5119" r="10.3072" gradientTransform="matrix(0.8644 -0.1292 0.1478 0.989 -17.2547 2.738)" gradientUnits="userSpaceOnUse">
		<stop  offset="1.711450e-002" style="stop-color:#9A4327"/>
		<stop  offset="0.9469" style="stop-color:#8B3B30"/>
	</radialGradient>
	<path fill-rule="evenodd" clip-rule="evenodd" fill="url(#SVGID_25_)" d="M45.9,63.9l1.4,2.5c0,0,6.8-0.8,9.7,1.6l2-0.3l2-0.3
		c2.1-3.1,8.8-4.4,8.8-4.4l0.7-3.1C61.5,62.3,55.3,63.5,45.9,63.9z"/>
	
		<radialGradient id="SVGID_26_" cx="88.5974" cy="48.7765" r="17.6709" gradientTransform="matrix(0.989 -0.1478 0.1478 0.989 -16.3597 2.7737)" gradientUnits="userSpaceOnUse">
		<stop  offset="1.711450e-002" style="stop-color:#FFEC72"/>
		<stop  offset="1" style="stop-color:#FFBD8C"/>
	</radialGradient>
	<path fill-rule="evenodd" clip-rule="evenodd" fill="url(#SVGID_26_)" d="M69,57.5c-5-1-8.1-21.5-6.1-32.3c2-10.7,22.6-3.9,28.9,8
		s4,16,1.4,17.9C90.5,53.1,78,59.4,69,57.5z"/>
	
		<radialGradient id="SVGID_27_" cx="102.5471" cy="34.2847" r="8.1415" gradientTransform="matrix(0.989 -0.1478 0.1478 0.989 -16.3597 2.7737)" gradientUnits="userSpaceOnUse">
		<stop  offset="1.711450e-002" style="stop-color:#FFC772"/>
		<stop  offset="1" style="stop-color:#FFC381"/>
	</radialGradient>
	<path fill-rule="evenodd" clip-rule="evenodd" fill="url(#SVGID_27_)" d="M82.5,12.9c0,0,6.2-2,13.4,5.4c0,0-3.6-2.5-8.7-2.1
		c0,0,3.6,0.3,6.2,3.6c2.6,3.3,0.3,11,0.3,11S90.5,24.2,82.5,12.9z"/>
	<path fill-rule="evenodd" clip-rule="evenodd" fill="#9D3D3A" d="M62.2,33.3c0,0-0.1-10.9,6.8-12.1c7-1.2,21.1,7,25.8,19.4
		c0,0-0.5-7.3-9.2-14.4C76.9,19,69,16.8,65.1,19.3C61.2,21.8,62.2,33.3,62.2,33.3z"/>
	<g>
		<path fill-rule="evenodd" clip-rule="evenodd" fill="#75272C" d="M66.4,48.5c0,0-3.9-13.8,5.6-18.2s18.7,4.9,18.4,15L66.4,48.5z"
			/>
		
			<linearGradient id="SVGID_28_" gradientUnits="userSpaceOnUse" x1="87.2405" y1="67.4138" x2="87.2405" y2="41.8821" gradientTransform="matrix(0.989 -0.1478 0.1478 0.989 -16.3597 2.7737)">
			<stop  offset="0" style="stop-color:#FFFFFF"/>
			<stop  offset="0.9829" style="stop-color:#FBC9CE"/>
		</linearGradient>
		<path fill-rule="evenodd" clip-rule="evenodd" fill="url(#SVGID_28_)" d="M68.2,53.4c2.7,5.7,14.3,4.3,20.2-1.7
			c5.9-6-1-20-10.9-20.4C67.7,31,62.6,41.4,68.2,53.4z"/>
		
			<radialGradient id="SVGID_29_" cx="74.0468" cy="47.4287" r="8.0122" gradientTransform="matrix(1.0988 -0.1642 0.1685 1.1277 -13.0212 9.5069)" gradientUnits="userSpaceOnUse">
			<stop  offset="1.711450e-002" style="stop-color:#FFC710"/>
			<stop  offset="0.7682" style="stop-color:#FF7700"/>
			<stop  offset="1" style="stop-color:#AE4B00"/>
		</radialGradient>
		<path fill-rule="evenodd" clip-rule="evenodd" fill="url(#SVGID_29_)" d="M83.7,44.7c0.7,5-2.6,9.6-7.5,10.4
			c-4.9,0.7-9.4-2.7-10.2-7.7c-0.7-5,2.6-9.6,7.5-10.4C78.4,36.2,83,39.7,83.7,44.7z"/>
		
			<ellipse transform="matrix(0.989 -0.1478 0.1478 0.989 -5.9727 11.5809)" fill-rule="evenodd" clip-rule="evenodd" fill="#75272C" cx="74.9" cy="46" rx="6" ry="6.2"/>
		<circle fill-rule="evenodd" clip-rule="evenodd" fill="#FFFFFF" cx="81.6" cy="41.1" r="1.3"/>
		<path fill-rule="evenodd" clip-rule="evenodd" fill="#FFFFFF" d="M84.3,52.5l-5.8-5l-4.8,1.7l-0.2,6.9
			C73.5,56.1,81.9,57.2,84.3,52.5z"/>
		<path fill-rule="evenodd" clip-rule="evenodd" fill="#BD4C3A" d="M68.3,53.8c0,0,1.6,5.4,11.9,3c10.3-2.4,10.2-9.6,10.2-9.6
			s0.1,5.8-10.9,9.1C71.9,58.5,68.3,53.8,68.3,53.8z"/>
	</g>
	
		<radialGradient id="SVGID_30_" cx="-106.3107" cy="48.8157" r="17.6709" gradientTransform="matrix(-0.989 0.1478 0.1478 0.989 -81.2881 12.4374)" gradientUnits="userSpaceOnUse">
		<stop  offset="1.711450e-002" style="stop-color:#FFEC72"/>
		<stop  offset="1" style="stop-color:#FFBD8C"/>
	</radialGradient>
	<path fill-rule="evenodd" clip-rule="evenodd" fill="url(#SVGID_30_)" d="M45.9,61c4.5-2.5,1.5-23-3.6-32.6
		c-5-9.7-22.7,2.9-25.2,16.1C14.6,57.7,17.9,61,20.9,62S37.8,65.4,45.9,61z"/>
	<path fill-rule="evenodd" clip-rule="evenodd" fill="#9D3D3A" d="M45.2,35.9c0,0-3.1-10.5-10.1-9.6c-7,0.9-18.2,12.8-19,26.1
		c0,0-1.7-7.1,4.6-16.5C27,26.5,34,22,38.4,23.3C42.8,24.5,45.2,35.9,45.2,35.9z"/>
	<g>
		<path fill-rule="evenodd" clip-rule="evenodd" fill="#75272C" d="M45.7,51.6c0,0-0.3-14.3-10.7-15.8C24.5,34.4,18.5,46,21.8,55.6
			L45.7,51.6z"/>
		
			<linearGradient id="SVGID_31_" gradientUnits="userSpaceOnUse" x1="-107.6676" y1="67.4529" x2="-107.6676" y2="41.9212" gradientTransform="matrix(-0.989 0.1478 0.1478 0.989 -81.2881 12.4374)">
			<stop  offset="0" style="stop-color:#FFFFFF"/>
			<stop  offset="0.9829" style="stop-color:#FBC9CE"/>
		</linearGradient>
		<path fill-rule="evenodd" clip-rule="evenodd" fill="url(#SVGID_31_)" d="M45.5,56.8c-0.9,6.3-12.4,8.3-19.8,4.2
			c-7.4-4-4.9-19.5,4.4-22.7C39.4,35.2,47.3,43.7,45.5,56.8z"/>
		
			<radialGradient id="SVGID_32_" cx="-101.796" cy="47.5917" r="8.0122" gradientTransform="matrix(-1.0988 0.1642 0.1685 1.1277 -82.9834 19.7743)" gradientUnits="userSpaceOnUse">
			<stop  offset="1.711450e-002" style="stop-color:#FFC710"/>
			<stop  offset="0.7682" style="stop-color:#FF7700"/>
			<stop  offset="1" style="stop-color:#AE4B00"/>
		</radialGradient>
		<path fill-rule="evenodd" clip-rule="evenodd" fill="url(#SVGID_32_)" d="M28,53c0.7,5,5.3,8.4,10.2,7.7c4.9-0.7,8.2-5.4,7.5-10.4
			c-0.7-5-5.3-8.4-10.2-7.7C30.6,43.4,27.3,48,28,53z"/>
		
			<ellipse transform="matrix(-0.989 0.1478 -0.1478 -0.989 80.8452 97.3456)" fill-rule="evenodd" clip-rule="evenodd" fill="#75272C" cx="36.8" cy="51.7" rx="6" ry="6.2"/>
		<circle fill-rule="evenodd" clip-rule="evenodd" fill="#FFFFFF" cx="28.4" cy="51.3" r="1.3"/>
		<path fill-rule="evenodd" clip-rule="evenodd" fill="#FFFFFF" d="M29.8,60.7l4-6.4l5.1,0.2l2.2,6.5C41.1,61,33.4,64.5,29.8,60.7z"
			/>
		<path fill-rule="evenodd" clip-rule="evenodd" fill="#BD4C3A" d="M45.4,57.2c0,0,0.1,5.7-10.5,6.3c-10.5,0.7-12.5-6.2-12.5-6.2
			s1.6,5.6,13,5.5C43.4,62.8,45.4,57.2,45.4,57.2z"/>
	</g>
	<path fill-rule="evenodd" clip-rule="evenodd" fill="#FF9F30" d="M45.9,63.9l2.7-5.4c0,0,7-4.8,16.5-3.1l5.4,4.5
		C70.6,59.9,57.4,64.3,45.9,63.9z"/>
	<path fill-rule="evenodd" clip-rule="evenodd" fill="#75272C" d="M45.9,63.9c0,0,13.4-0.8,24.6-4C70.6,59.9,56.4,64.8,45.9,63.9z"
		/>
	
		<linearGradient id="SVGID_33_" gradientUnits="userSpaceOnUse" x1="12.2945" y1="71.35" x2="12.2945" y2="68.3899" gradientTransform="matrix(0.989 -0.1478 0.1478 0.989 -16.3597 2.7737)">
		<stop  offset="1.711450e-002" style="stop-color:#E08893"/>
		<stop  offset="1" style="stop-color:#FFF2EF"/>
	</linearGradient>
	<path opacity="0.6" fill-rule="evenodd" clip-rule="evenodd" fill="url(#SVGID_33_)" d="M5.3,68.7c1.2,0.5,2.4,1.1,3.8,2L3.4,72
		C3.4,72,4.2,70.8,5.3,68.7z"/>
	
		<linearGradient id="SVGID_34_" gradientUnits="userSpaceOnUse" x1="62.8509" y1="94.0904" x2="62.8509" y2="69.3489" gradientTransform="matrix(0.989 -0.1478 0.1478 0.989 -16.3597 2.7737)">
		<stop  offset="1.711450e-002" style="stop-color:#E08893"/>
		<stop  offset="1" style="stop-color:#FFF2EF"/>
	</linearGradient>
	<path display="none" opacity="0.6" fill-rule="evenodd" clip-rule="evenodd" fill="url(#SVGID_34_)" d="M103.1,55
		c-4.4,6.8-14.6,19.4-31,23.3c0,0-3.5,5.2-9.1,7.7l0.2-1.1c0,0-4.8-0.6-9.2-2.8c-0.4,0.1-29.6,4.4-45-11.5c22.5,13.9,45,8.3,45,8.3
		s2.8,3.7,8.9,3.2c6.1-0.5,8.6-6.4,8.6-6.4C90.6,72.3,103.1,55,103.1,55L103.1,55z"/>
	<path fill-rule="evenodd" clip-rule="evenodd" fill="#9D3D3A" d="M41.9,3.9c0,0,7.6,8.1,10.7,29.9c0,0-0.5-14.5,1.2-30.7l-3.5-0.2
		l3.4-2.4C53.8,0.5,46.8,1.6,41.9,3.9z"/>
	<path fill-rule="evenodd" clip-rule="evenodd" fill="#9D3D3A" d="M59.7,3.7c0,0-3.2,11.6-2.3,22.7c0,0,4.2-15.6,14.4-19.9
		C71.8,6.6,64.7,3.9,59.7,3.7z"/>
	<path fill-rule="evenodd" clip-rule="evenodd" fill="#9D3D3A" d="M30.4,10.2c0,0,9.3,2.5,14.6,13.4c0,0-1.8-10.4-6.2-18.3
		C38.8,5.3,34,7.5,30.4,10.2z"/>
	<path fill-rule="evenodd" clip-rule="evenodd" fill="#9D3D3A" d="M102.4,43.6c0,0,0.4,5-6.5,10.6c-6.9,5.6-18.6,7.8-18.6,7.8
		s21.5,0.8,28.4-11.3l5.4,0.4L102.4,43.6z"/>
	<path fill-rule="evenodd" clip-rule="evenodd" fill="#9D3D3A" d="M95,33c0,0,5.8,12.1-2.4,19.6c0,0,8.7-4,8.3-10.9
		C100.9,41.7,96.2,35.1,95,33z"/>
	<path fill-rule="evenodd" clip-rule="evenodd" fill="#9D3D3A" d="M9.6,59.3c0,0,0.5,7.8,9.2,10.4c8.7,2.5,20.4-1.2,20.4-1.2
		s-15.5,9.6-29.9,2.1L3.4,72L9.6,59.3z"/>
	<path fill-rule="evenodd" clip-rule="evenodd" fill="#9D3D3A" d="M12.3,49.9c0,0,0,8.2,4,11.5c4,3.3,12.3,3.3,12.3,3.3
		s-7.5,2.6-13.4,0.8c-5.8-1.8-5.1-7.7-5.1-7.7S11.9,51.8,12.3,49.9z"/>
	<path fill-rule="evenodd" clip-rule="evenodd" fill="#FFC763" d="M27.9,16.5c-0.6,3.8,17.5,4.9,29.3,2.3c11.9-2.6,16-7.9,16.5-9.2
		c0.5-1.3-7.9-6.1-24.2-5.4C33.2,5,28.2,15,27.9,16.5z"/>
	<path fill-rule="evenodd" clip-rule="evenodd" fill="#75272C" d="M57,68c0,0-3.4-4.2-9.7-1.6C47.4,66.4,52.6,64.7,57,68z"/>
	<path fill-rule="evenodd" clip-rule="evenodd" fill="#75272C" d="M61.1,67.4c0,0,3-4.9,8.8-4.4C69.9,63,65,63.1,61.1,67.4z"/>
	<path fill-rule="evenodd" clip-rule="evenodd" fill="#FFFFFF" d="M47.6,63.7c0,0,0.8-0.6,2.4-0.9c1.6-0.3,2.5,0.8,2.5,0.8
		S48.9,65,47.6,63.7z"/>
	<path fill-rule="evenodd" clip-rule="evenodd" fill="#FFFFFF" d="M60.4,66.8c0,0,0.5-3.2,2-4.2c1.6-1,7.1-2,7.1-2l-0.4,2
		c0,0-5.4,0.2-8.1,4.3L60.4,66.8z"/>
	<path fill-rule="evenodd" clip-rule="evenodd" fill="#75272C" d="M47.1,71.5c0,0,2.5,2.4,5.3,2.8c2.7,0.4,3.4-0.8,7.5-1.6
		c3.7-0.7,3.6,0,6.4-0.2c2.8-0.3,7.3-4.8,7.3-4.8l0.2,0.5c0,0-5.7,6.9-13,7.9c-8.1,1.2-13.9-4-13.9-4L47.1,71.5z"/>
	<path fill-rule="evenodd" clip-rule="evenodd" fill="#BD4C3A" d="M71.9,66.2c0,0,2.1,0.9,2.7,3.6C74.5,69.8,75.9,65.2,71.9,66.2z"
		/>
	<path fill-rule="evenodd" clip-rule="evenodd" fill="#BD4C3A" d="M48.2,70.4c0,0-1.7,1.9-1.7,3.4C46.4,73.8,44.5,70.3,48.2,70.4z"
		/>
	
		<linearGradient id="SVGID_35_" gradientUnits="userSpaceOnUse" x1="65.6763" y1="83.0749" x2="65.6763" y2="80.7457" gradientTransform="matrix(0.989 -0.1478 0.1478 0.989 -16.3597 2.7737)">
		<stop  offset="5.586590e-003" style="stop-color:#C9311F"/>
		<stop  offset="1" style="stop-color:#971E53"/>
	</linearGradient>
	<path fill-rule="evenodd" clip-rule="evenodd" fill="url(#SVGID_35_)" d="M53.9,74.9c0,0,6,2.2,13.5-2c0,0-1.5,0.4-3.5,0.1
		c-2.8-0.5-5.3,0.2-8.2,1.7C54.6,75.2,53.9,74.9,53.9,74.9z"/>
	<path fill-rule="evenodd" clip-rule="evenodd" fill="#F5F5F5" d="M66.7,73c0,0,0.4,1.6,1,1.6c0.5,0.1,1.3-2.8,1.3-2.8
		S67.6,72.9,66.7,73z"/>
	<path fill-rule="evenodd" clip-rule="evenodd" fill="#F5F5F5" d="M53.1,74.8c0,0,1,2.3,1.6,2.2c0.6-0.2,0.7-2.2,0.7-2.2
		S54,75.1,53.1,74.8z"/>
	<path fill-rule="evenodd" clip-rule="evenodd" fill="#9D3D3A" d="M71.6,142.1c0,0,0.3-4.2,1.3-6.3c1.1-2.1,2.3-4.5,2.3-4.5
		s-5.1,5.4-4.5,10.8L71.6,142.1z"/>
	<linearGradient id="SVGID_36_" gradientUnits="userSpaceOnUse" x1="55.9557" y1="130.423" x2="55.9557" y2="95.9377">
		<stop  offset="0" style="stop-color:#B80653"/>
		<stop  offset="0.9944" style="stop-color:#FF2014"/>
	</linearGradient>
	<polygon fill-rule="evenodd" clip-rule="evenodd" fill="url(#SVGID_36_)" points="51.8,130.4 48.5,96.4 63.4,95.9 60.1,130.4 	"/>
	<polygon fill-rule="evenodd" clip-rule="evenodd" fill="#FF7E7E" points="48.5,96.4 50.8,94.4 36,94.9 39.4,93.3 51.7,93.4 
		54.6,91.5 59.6,91.4 61.4,93.2 73.9,92.3 76.8,93.5 61.9,94.3 63.4,95.9 	"/>
	<path opacity="0.8" fill-rule="evenodd" clip-rule="evenodd" fill="#C04F55" d="M38.6,96.4c0,0,2.7,0,7.4-0.8
		c4.7-0.7,11-0.6,11-0.6s9.4,0.7,13.6,0.4l-3.8-3l-17.2,0.2L38.6,96.4z"/>
	<path fill-rule="evenodd" clip-rule="evenodd" fill="#991333" d="M61.6,92.3c0,0,7.2-3.3,11.5-7.6l12.4,1.9c0,0-3.2,15.1-23.9,6.3
		L61.6,92.3z"/>
	<path fill-rule="evenodd" clip-rule="evenodd" fill="#991333" d="M34.7,86.3c0,0,16.2,4.3,18.6,6.2h-1c0,0-9,4.3-18.2,3.5
		c-9.2-0.8-8.8-3.1-8.8-3.1S26.7,87.5,34.7,86.3z"/>
	<linearGradient id="SVGID_37_" gradientUnits="userSpaceOnUse" x1="59.2732" y1="89.0188" x2="86.5574" y2="89.0188">
		<stop  offset="0" style="stop-color:#E50153"/>
		<stop  offset="0.9944" style="stop-color:#FF3B00"/>
	</linearGradient>
	<path fill-rule="evenodd" clip-rule="evenodd" fill="url(#SVGID_37_)" d="M59.3,90.9c0,0,2.8-0.9,6-3.5c3.2-2.7,4.2-4,5.7-4.6
		c1.4-0.6,11.6-0.5,15.6,3.5c0,0-1.7,8.2-8.7,9.1c-6.9,0.9-16.2-2.2-16.2-2.2l0-0.3c0,0,8.9,3.6,15.8,2c6.9-1.6,7.7-8.2,7.7-8.2
		s-6.7,1.1-13.1,3.5c-6.5,2.4-10.8,2.5-10.8,2.5L59.3,90.9z"/>
	<linearGradient id="SVGID_38_" gradientUnits="userSpaceOnUse" x1="24.7429" y1="90.7687" x2="53.3136" y2="90.7687">
		<stop  offset="5.586590e-003" style="stop-color:#FF3B00"/>
		<stop  offset="1" style="stop-color:#E50153"/>
	</linearGradient>
	<path fill-rule="evenodd" clip-rule="evenodd" fill="url(#SVGID_38_)" d="M53.3,91.1c0,0-4.3,0-9-3.4c-4.7-3.4-9.8-2.8-11-2.7
		c-1.2,0.1-8,3.9-8.5,8.7c0,0,2.4,2.9,11.2,2.8c8.8-0.1,15.2-3.6,15.2-3.6l0.4-0.4c0,0-8.7,3.5-15.7,3.4c-7-0.1-9.8-2.5-9.8-2.5
		s3.7-4.4,10.6-3.8c6.8,0.6,15.1,2.7,15.6,2.9C52.7,92.7,53.3,91.1,53.3,91.1z"/>
	<linearGradient id="SVGID_39_" gradientUnits="userSpaceOnUse" x1="56.7118" y1="94.2468" x2="56.7118" y2="90.2862">
		<stop  offset="0" style="stop-color:#E50153"/>
		<stop  offset="0.9944" style="stop-color:#FF3B00"/>
	</linearGradient>
	<path fill-rule="evenodd" clip-rule="evenodd" fill="url(#SVGID_39_)" d="M51.2,93c0,0,1.9-2.1,3.4-2.5c1.5-0.3,4.7-0.4,5.4,0
		c0.7,0.4,2.2,2.5,2.2,2.5s-2.3,1.1-6.1,1.2C52.4,94.3,51.2,93,51.2,93z"/>
	<path opacity="0.8" fill-rule="evenodd" clip-rule="evenodd" fill="#C04F55" d="M56.1,94.2c0,0,1.7,1.4,2,1.9
		c0.3,0.5,1.6,13.1,1.6,13.1h7.2c0,0-3.9-10.7-4.7-11.9C61.5,96,56.9,94,56.9,94L56.1,94.2z"/>
	<linearGradient id="SVGID_40_" gradientUnits="userSpaceOnUse" x1="63.868" y1="110.5684" x2="63.868" y2="93.0105">
		<stop  offset="0" style="stop-color:#E50153"/>
		<stop  offset="0.9944" style="stop-color:#FF3B00"/>
	</linearGradient>
	<path fill-rule="evenodd" clip-rule="evenodd" fill="url(#SVGID_40_)" d="M56.1,94.2c0,0,2.6,0.5,4.2,3.1
		c1.6,2.6,3.7,13.3,3.7,13.3l7.6-1.3c0,0-3.3-12-5.7-13.9c-2.4-1.8-3.7-2.4-3.7-2.4S57.5,93.5,56.1,94.2z"/>
	<path fill-rule="evenodd" clip-rule="evenodd" fill="#FFEDCA" d="M56.9,94c0,0,3.3,2,3.9,2c0.7,0,5-0.4,5-0.4s-1.5-1.4-3.6-2.6
		C62.2,93,58.2,93.3,56.9,94z"/>
	<path fill-rule="evenodd" clip-rule="evenodd" fill="#FFEDCA" d="M68.9,84.7c0,0,4.5,1.3,6.8,3.7c0,0,9-2.9,10.8-2.1
		c0,0-4.3-4-14.7-3.7C71.9,82.6,69.2,83.4,68.9,84.7z"/>
	<path fill-rule="evenodd" clip-rule="evenodd" fill="#FFEDCA" d="M24.7,93.8c0,0,3.2-4.1,9-4.4l4.3-4.2c0,0-2.9-0.4-4.8-0.1
		C31.4,85.3,25.5,89.6,24.7,93.8z"/>
	<path fill-rule="evenodd" clip-rule="evenodd" fill="#FFEDCA" d="M54,90.8c0,0-1.5,0.9-2,1.5c-0.6,0.6,5.6,0.7,7.2,0.4
		c1.6-0.3,1-1.9,1-1.9S56.8,89.9,54,90.8z"/>
	<path fill-rule="evenodd" clip-rule="evenodd" fill="#9D3D3A" d="M85.3,127.4c0,0,7.2,0.2,10.7-3c3.5-3.3,3.7-7.9,4.9-10.6
		c0,0-1.5,8.1-5,11.3C92.4,128.3,85.3,127.4,85.3,127.4z"/>
	<path fill-rule="evenodd" clip-rule="evenodd" fill="#FFC763" d="M84.7,117.6c-1.5,0.3-2.1,4.5-0.4,8c1.7,3.5,6.9,2.8,8.4,2.1
		c1.5-0.7,0.6-6.3-1.8-8.1C88.5,117.9,87,117.1,84.7,117.6z"/>
	<linearGradient id="SVGID_41_" gradientUnits="userSpaceOnUse" x1="51.8138" y1="143.7973" x2="51.8138" y2="132.1273">
		<stop  offset="1.711450e-002" style="stop-color:#E08893"/>
		<stop  offset="1" style="stop-color:#FFF2EF"/>
	</linearGradient>
	<path opacity="0.6" fill-rule="evenodd" clip-rule="evenodd" fill="url(#SVGID_41_)" d="M52.4,143.3c-0.2,0.2-0.6,0.3-1.3,0.5h-0.1
		c0,0,1-4.1,0.8-6.8c-0.2-2.7-2.4-4.9-2.4-4.9c2,0.6,3.8,1.4,4.4,2.2C55.2,136.4,53.7,142.1,52.4,143.3z"/>
</g>
</svg>
