<?xml version="1.0" encoding="utf-8"?>
<!-- Generator: Adobe Illustrator 17.1.0, SVG Export Plug-In . SVG Version: 6.00 Build 0)  -->
<!DOCTYPE svg PUBLIC "-//W3C//DTD SVG 1.1//EN" "http://www.w3.org/Graphics/SVG/1.1/DTD/svg11.dtd">
<svg version="1.1" id="Layer_1" xmlns="http://www.w3.org/2000/svg" xmlns:xlink="http://www.w3.org/1999/xlink" x="0px" y="0px"
	 width="155.7px" height="193px" viewBox="0 0 155.7 193" enable-background="new 0 0 155.7 193" xml:space="preserve">
<g>
	<g>
		<path fill="#312E40" d="M124.7,145.7c-0.8,0-1.4-0.3-1.9-0.9c-0.1-0.2-0.2-0.4-0.1-0.6c0.1-0.9,1.8-2.2,5.1-4.6
			c-0.9-0.2-2.3,0-3.7,0.2c-2.4,0.3-5,0.6-6.4-0.4c-1.3-0.9-1.5-2.1-1.7-3.2c-0.3-1.4-0.5-2.6-3.2-3c-1.7-0.3-6.5,0.5-12.1,1.4
			c-9.9,1.6-22.3,3.6-27.2,1.4c-7.7-3.5,1.4-45.8,1.8-47.5l0.7,0.2c-2.6,12.1-8.2,44-2.3,46.7c4.7,2.1,16.9,0.1,26.7-1.5
			c5.8-0.9,10.4-1.7,12.3-1.4c3.1,0.5,3.5,2,3.8,3.6c0.2,1,0.4,2,1.4,2.7c1.2,0.9,3.7,0.6,5.9,0.3c1.8-0.2,3.6-0.5,4.6,0
			c0.5-0.3,1-0.7,1.6-1.1c9.6-6.8,25.6-18,24.8-28.7c-0.7-10-11.3-12.3-19.8-14.1c-2.9-0.6-5.7-1.2-7.7-2.1
			c-11.3-4.7-17.1-23.2-17.4-24l0.7-0.2c0.1,0.2,6,19,17,23.5c2,0.8,4.7,1.4,7.6,2.1c8.8,1.9,19.6,4.3,20.4,14.8
			c0.8,11.1-15.4,22.5-25.1,29.4c-0.5,0.3-0.9,0.6-1.4,1c0.2,0.2,0.3,0.4,0.3,0.7c0.3,2-1.6,4.3-3.4,5.2
			C125.6,145.6,125.1,145.7,124.7,145.7z M128.6,140c-2.8,2-5.2,3.8-5.2,4.4c0.7,0.9,1.7,0.7,2.4,0.4c1.6-0.7,3.2-2.7,3-4.3
			C128.7,140.2,128.7,140.1,128.6,140z"/>
	</g>
	
		<linearGradient id="SVGID_1_" gradientUnits="userSpaceOnUse" x1="103.8574" y1="37.5422" x2="103.8574" y2="13.9969" gradientTransform="matrix(0.9963 -8.590000e-002 8.590000e-002 0.9963 -7.7408 5.3559)">
		<stop  offset="0.5031" style="stop-color:#9A4327"/>
		<stop  offset="0.9972" style="stop-color:#592930"/>
	</linearGradient>
	<path fill-rule="evenodd" clip-rule="evenodd" fill="url(#SVGID_1_)" d="M88.5,22c0,0,0.5-8.4,2.7-10.2c2.3-1.8,10.1-2.5,13.6,4.7
		c3.5,7.3,3.1,12.2,2,14.3c-0.6,1.3-5.6,2.9-5.6,2.9L88.5,22z"/>
	
		<radialGradient id="SVGID_2_" cx="107.5136" cy="27.4765" r="7.5657" gradientTransform="matrix(0.9963 -8.590000e-002 8.590000e-002 0.9963 -7.7408 5.3559)" gradientUnits="userSpaceOnUse">
		<stop  offset="1.711450e-002" style="stop-color:#FFC772"/>
		<stop  offset="1" style="stop-color:#FF9D48"/>
	</radialGradient>
	<path fill-rule="evenodd" clip-rule="evenodd" fill="url(#SVGID_2_)" d="M96.9,26.9c0,0,1.2-12.8,4.5-12.8c3.3,0,5.7,8.5,5.6,13
		c-0.1,4.5-3,5.7-5.1,5.8C101.9,32.9,98.6,28.4,96.9,26.9z"/>
	
		<radialGradient id="SVGID_3_" cx="107.5112" cy="34.1388" r="5.5766" gradientTransform="matrix(0.9963 -8.590000e-002 8.590000e-002 0.9963 -7.7408 5.3559)" gradientUnits="userSpaceOnUse">
		<stop  offset="1.711450e-002" style="stop-color:#FFC772"/>
		<stop  offset="1" style="stop-color:#FFC381"/>
	</radialGradient>
	<path fill-rule="evenodd" clip-rule="evenodd" fill="url(#SVGID_3_)" d="M95.7,25.8c0,0,9.6,0.8,13.2,8.6c0,0-5.3-4.4-9-4.1
		L95.7,25.8z"/>
	<g>
		<radialGradient id="SVGID_4_" cx="104.844" cy="24.8648" r="14.1368" gradientUnits="userSpaceOnUse">
			<stop  offset="5.586590e-003" style="stop-color:#006B60"/>
			<stop  offset="1" style="stop-color:#004F53"/>
		</radialGradient>
		<path fill-rule="evenodd" clip-rule="evenodd" fill="url(#SVGID_4_)" d="M93.9,26c0,0,3.6-2.6,8.8-2.9c0,0,11.2,5.3,12.6,20.5
			c0,0-1.2,5.1-3.7,7C111.6,50.6,102.7,31,93.9,26z"/>
		<radialGradient id="SVGID_5_" cx="109.1922" cy="24.3927" r="10.2299" gradientUnits="userSpaceOnUse">
			<stop  offset="5.586590e-003" style="stop-color:#00A992"/>
			<stop  offset="1" style="stop-color:#00777E"/>
		</radialGradient>
		<path fill-rule="evenodd" clip-rule="evenodd" fill="url(#SVGID_5_)" d="M102.8,23c0,0,12.9,1.5,12.6,20.5
			C115.4,43.5,114,30.3,102.8,23z"/>
		<path opacity="0.5" fill-rule="evenodd" clip-rule="evenodd" fill="#00FFFF" d="M99.9,30.3c0,0,5.7-3.4,7.5-3.5
			c0,0,2.1,1.7,4.2,5.7l-7.3,4.2C104.4,36.8,102,32.7,99.9,30.3z"/>
		<path opacity="0.5" fill-rule="evenodd" clip-rule="evenodd" fill="#00FFFF" d="M110.8,47.5c0,0,2.9-2.2,4.2-5.7l0.2,1
			c0,0-1.1,4.8-3.2,6L110.8,47.5z"/>
	</g>
	<radialGradient id="SVGID_6_" cx="113.11" cy="76.1114" r="23.9723" gradientUnits="userSpaceOnUse">
		<stop  offset="1.711450e-002" style="stop-color:#FF8E27"/>
		<stop  offset="1" style="stop-color:#FF6543"/>
	</radialGradient>
	<path fill-rule="evenodd" clip-rule="evenodd" fill="url(#SVGID_6_)" d="M138.9,80.7c-1.4,3.1-4.6,3.6-4.6,3.6
		c-1.7,3.3-6.7,3.7-6.7,3.7s0,0,0,0l-1.3-0.7c-4.2,8-9.5,13-14.7,16.1c-9.6,5.8-18.6,4.8-18.6,4.8c-0.9-0.5-2.7-3.2-4.2-5.7
		c-1.6-2.5-2.9-4.8-2.9-4.8l1.4-3.9c3.3-0.2,6.5-0.8,9.4-1.6c16.3-4.5,25.9-16.5,27.7-18.9c2.1-2.9,7-8,7-8c3.7,0.5,4.1,4.3,4.1,4.3
		l-0.5,1.3c3.6,2.7,2.2,5.7,2.2,5.7C138.4,77.6,138.9,80.7,138.9,80.7z"/>
	<linearGradient id="SVGID_7_" gradientUnits="userSpaceOnUse" x1="85.8931" y1="94.0987" x2="127.5431" y2="94.0987">
		<stop  offset="0" style="stop-color:#FFF2EF"/>
		<stop  offset="0.9829" style="stop-color:#E08893"/>
	</linearGradient>
	<path opacity="0.6" fill-rule="evenodd" clip-rule="evenodd" fill="url(#SVGID_7_)" d="M127.5,88l-1.3-0.7
		C114.1,110.4,93,108.2,93,108.2c-1.8-1.1-7.1-10.5-7.1-10.5l1.4-3.9c3.3-0.2,6.5-0.8,9.4-1.6l0.6,0.1c0,0,5.8,8.1,15.1,6.1
		c9.4-2.1,11.6-9.7,11.6-9.7c-3.1-4.5-2.2-8.6-2.2-8.6s0.2,1.5,1.6,4C124.8,86.4,127.2,87.8,127.5,88z"/>
	<radialGradient id="SVGID_8_" cx="129.4516" cy="80.5088" r="6.6319" gradientUnits="userSpaceOnUse">
		<stop  offset="1.711450e-002" style="stop-color:#FFC772"/>
		<stop  offset="1" style="stop-color:#FFC381"/>
	</radialGradient>
	<path fill-rule="evenodd" clip-rule="evenodd" fill="url(#SVGID_8_)" d="M127.5,88c0,0-2.6-1.3-3.6-5.7c-1-4.4,4.9-9.3,4.9-9.3
		s5.9,2.9,6.3,9.2C135.1,82.2,134.3,87.3,127.5,88z"/>
	<path opacity="0.8" fill-rule="evenodd" clip-rule="evenodd" fill="#CE777C" d="M111.6,103.4c-9.6,5.8-18.6,4.8-18.6,4.8
		c-0.9-0.5-2.7-3.2-4.2-5.7l1-8.9C98.4,103.5,111.6,103.4,111.6,103.4z"/>
	<radialGradient id="SVGID_9_" cx="31.7076" cy="107.4688" r="29.495" gradientUnits="userSpaceOnUse">
		<stop  offset="1.711450e-002" style="stop-color:#FF8E27"/>
		<stop  offset="1" style="stop-color:#FF6543"/>
	</radialGradient>
	<path fill-rule="evenodd" clip-rule="evenodd" fill="url(#SVGID_9_)" d="M61.7,144.3c0,0-14.8,5.8-23.7,3.5
		c-5.3-1.4-9.2-5.6-11.5-10.7c-0.1-0.2-0.2-0.4-0.3-0.6c-0.1-0.2-0.2-0.4-0.3-0.7c-0.1-0.2-0.2-0.4-0.3-0.6c-1-2.8-1.6-5.7-1.7-8.6
		c-0.5-9.2,1-12,0.7-12.5c-0.3-0.5-1.8-1.9-3.4-1.8c-0.2,0-0.4,0-0.6,0.1c-1.8,0.6-2.5,6.5-9.7,8c-7.1,1.5-12.1-5.8-10.9-12.5
		c1.3-6.8,14.4-14.1,20.5-14.1c6.1,0,14.6,5.9,16.5,15.9c1.6,8.5,1.1,15.8,3.5,22.1v0c0.5,1.2,1,2.3,1.7,3.4
		c4.4,7.1,16.7,2.6,16.7,2.6S61.6,140.7,61.7,144.3z"/>
	
		<radialGradient id="SVGID_10_" cx="18.1243" cy="104.2565" r="12.5751" gradientTransform="matrix(0.9789 -0.2042 0.2042 0.9789 -26.5412 9.1803)" gradientUnits="userSpaceOnUse">
		<stop  offset="1.711450e-002" style="stop-color:#FFC772"/>
		<stop  offset="1" style="stop-color:#FFC381"/>
	</radialGradient>
	<path fill-rule="evenodd" clip-rule="evenodd" fill="url(#SVGID_10_)" d="M21.4,112.2c-0.2,0-0.4,0-0.7,0.1c-1.8,0.6-2.5,6.5-9.7,8
		c-7.1,1.5-12.1-5.8-10.9-12.5c1.3-6.7,14.4-14.1,20.5-14.1C28.5,101.3,21.4,112.2,21.4,112.2z"/>
	<path opacity="0.8" fill-rule="evenodd" clip-rule="evenodd" fill="#CE777C" d="M61.7,144.3c0,0-14.8,5.8-23.7,3.5
		c-5.3-1.4-9.2-5.6-11.5-10.7c5.1,10.8,19.6,6.3,17.6,2.9c-2.5-4.2-3.4-7.7-3.5-8.3c0.5,1.2,1,2.3,1.7,3.4
		c4.4,7.1,16.7,2.6,16.7,2.6S61.6,140.7,61.7,144.3z"/>
	<radialGradient id="SVGID_11_" cx="109.1849" cy="159.4774" r="25.6315" gradientUnits="userSpaceOnUse">
		<stop  offset="1.711450e-002" style="stop-color:#FF8E27"/>
		<stop  offset="1" style="stop-color:#FF6543"/>
	</radialGradient>
	<path fill-rule="evenodd" clip-rule="evenodd" fill="url(#SVGID_11_)" d="M109.9,190.1c-7.6,3.7-17.6,1.9-18.9,1.2
		c-1.3-0.7-5.5-5.6-5.3-6.8s1-2.7,3.3-10c0.8-2.5,0.5-5.4-0.2-8.2c-1.3-5.2-4.1-9.8-4.1-9.8c1.7-1.5,3.3-3.3,4.7-5.2
		c5.2-7,8.6-15.6,8.6-15.6s0.3,0.4,0.7,1.1l0,0c0.9,1.6,2.8,4.6,4.6,8.2c2.6,5.2,5.1,11.6,5,16.4c-0.2,9.6-8.1,20.1-8.1,20.1
		c2.8,1.3,8.6,1.7,8.6,1.7C111,185,109.9,190.1,109.9,190.1z"/>
	
		<radialGradient id="SVGID_12_" cx="80.6266" cy="37.933" r="46.9217" gradientTransform="matrix(0.9963 -8.590000e-002 8.590000e-002 0.9963 -7.7408 5.3559)" gradientUnits="userSpaceOnUse">
		<stop  offset="1.711450e-002" style="stop-color:#FF8E27"/>
		<stop  offset="1" style="stop-color:#FF6543"/>
	</radialGradient>
	<path fill-rule="evenodd" clip-rule="evenodd" fill="url(#SVGID_12_)" d="M127.6,60.5l-3-0.1c0,0,0,0,0,0
		c-0.2,0.4-2.2,6.3-5.5,11.8c-1.5,2.6-3.4,5.1-5.4,6.9c-0.9,0.8-1.8,1.5-2.7,2c0,0-0.9,4.7-6.2,8.8c0,0,0,0,0,0
		c-0.3-0.1-6.5-1.5-12.8-0.4c0,0-15.3,8.6-28.4,11.6c-13.1,3-29.2-9.2-29.2-9.2l-5.9,2.9c0.2-0.2,3.2-4,5.3-10.9
		c0.6-1.9,1.1-4.1,1.4-6.5c1.6-11.3,2-33.6,11.5-43.4c0,0,0,0,0,0s9.1-13.6,27.8-19.4c-0.5,0.2-2.6,1.1-4.2,3.3
		c0,0,10.6,1.4,18.3,4.1c0,0,0,0,0,0c1.6,0.5,3,1.1,4.2,1.8c7,3.8,13,15.2,16.6,21.6c2.2,4,8.8,8.9,13.4,12
		C125.5,59.3,127.6,60.5,127.6,60.5z"/>
	<g>
		<path fill-rule="evenodd" clip-rule="evenodd" fill="#9D3D3A" d="M33.8,83.9c0,0,5.5,8.8,13.5,10.1c10.4,1.7,14.2-0.4,14.2-0.4
			s-25.2-2.3-26-18.4L33.8,83.9z"/>
		<path fill-rule="evenodd" clip-rule="evenodd" fill="#9D3D3A" d="M36.9,62.6c0,0,1.6,7.1,4.2,11.3c4.4,7.2,19.6,17.7,36.1,12.9
			c0,0-9.8,5.2-18.7,4.6c-8.9-0.7-17-11-19.3-14.1c-2.3-3.1-3.5-3.2-3.5-3.2L36.9,62.6z"/>
		<path fill-rule="evenodd" clip-rule="evenodd" fill="#9D3D3A" d="M48.3,32c0,0,6.3-5.7,14-5.1S77.5,34,79.5,38.3
			c0,0-2.9-7.1-8-13.1c-5.1-6-10.3-4.5-10.3-4.5S53.4,25.1,48.3,32z"/>
		<path fill-rule="evenodd" clip-rule="evenodd" fill="#9D3D3A" d="M70.3,17.9c0,0,11.7,8.8,21,34.6c0,0,0.9-18.9-9.3-32.4
			C81.9,20.1,74.5,17.8,70.3,17.9z"/>
		<path fill-rule="evenodd" clip-rule="evenodd" fill="#9D3D3A" d="M87.4,21.6c0,0,3.6,7.3,4.5,16.4c0,0,3.4-7.9,2.5-13.2
			C94.5,24.8,91.8,22.6,87.4,21.6z"/>
	</g>
	
		<radialGradient id="SVGID_13_" cx="77.7342" cy="83.8935" r="37.0603" gradientTransform="matrix(0.9963 -8.590000e-002 8.590000e-002 0.9963 -7.7408 5.3559)" gradientUnits="userSpaceOnUse">
		<stop  offset="1.711450e-002" style="stop-color:#FFC772"/>
		<stop  offset="1" style="stop-color:#FFC381"/>
	</radialGradient>
	<path fill-rule="evenodd" clip-rule="evenodd" fill="url(#SVGID_13_)" d="M124.5,60.4c-0.3,0.7-5.7,16.5-13.6,20.7
		c0,0-0.9,7-6.2,11.1c0,0-6.4-3.9-12.8-2.7c0,0-15.3,8.6-28.4,11.6c-13.1,3-29.2-9.2-29.2-9.2l-5.9,2.9c0,0,3.2-3.8,5.3-10.9
		c0,0,5.4,11.1,19.8,10.8c14.4-0.3,26.3-7.2,30.7-13.1c4.5-5.8,10.2-7.8,10.2-7.8s5.1-0.1,10.6-1.2c4.7-1,8.4-2.4,8.4-2.4
		C120.9,67.3,124.3,60.9,124.5,60.4z"/>
	
		<linearGradient id="SVGID_14_" gradientUnits="userSpaceOnUse" x1="39.4008" y1="51.3685" x2="39.4008" y2="20.7476" gradientTransform="matrix(0.9963 -8.590000e-002 8.590000e-002 0.9963 -7.7408 5.3559)">
		<stop  offset="0.5031" style="stop-color:#9A4327"/>
		<stop  offset="0.9972" style="stop-color:#592930"/>
	</linearGradient>
	<path fill-rule="evenodd" clip-rule="evenodd" fill="url(#SVGID_14_)" d="M46.8,34c0,0-2.5-10.3-14.3-11.3c0,0-9.2,2.6-10.3,11.4
		c-1.1,8.8,4.6,16.3,7.4,18.5c2.7,2.2,9.1-0.8,9.1-0.8S41.4,40.1,46.8,34z"/>
	
		<radialGradient id="SVGID_15_" cx="71.754" cy="66.5183" r="19.7898" gradientTransform="matrix(0.9963 -8.590000e-002 8.590000e-002 0.9963 -7.7408 5.3559)" gradientUnits="userSpaceOnUse">
		<stop  offset="1.711450e-002" style="stop-color:#FFEC72"/>
		<stop  offset="1" style="stop-color:#FFBD8C"/>
	</radialGradient>
	<path fill-rule="evenodd" clip-rule="evenodd" fill="url(#SVGID_15_)" d="M53.4,80.8c0,0,6.7,6.9,18,4.8
		c11.3-2.1,17.3-10.1,18-12.2c0.7-2.1-9.9-25.7-19.2-28S51.5,58.4,50.7,65C49.9,71.7,52.1,79.7,53.4,80.8z"/>
	
		<radialGradient id="SVGID_16_" cx="111.0569" cy="56.6842" r="11.4999" gradientTransform="matrix(0.9963 -8.590000e-002 8.590000e-002 0.9963 -7.7408 5.3559)" gradientUnits="userSpaceOnUse">
		<stop  offset="1.711450e-002" style="stop-color:#FFC772"/>
		<stop  offset="1" style="stop-color:#FF9D48"/>
	</radialGradient>
	<path fill-rule="evenodd" clip-rule="evenodd" fill="url(#SVGID_16_)" d="M104.6,65.1c-2.5-2.7-5.7-24-4.3-26.4
		c1.4-2.4,7.1,3.3,9.7,7.7s5.6,10.8,5.4,13.2c-0.3,4.3-3.3,6.8-5.8,7.3C107.9,67.2,106,66.5,104.6,65.1z"/>
	<path fill-rule="evenodd" clip-rule="evenodd" fill="#9D3D3A" d="M52.6,79.4c0,0-2.7-7.1-1-14.9c2.2-10.1,8.9-16.6,16.3-18.2
		c5.5-1.2,13.5,9.6,13.5,9.6s-6.1-11.2-13.7-11.9S51.8,55,50.4,62.6C48.8,71.7,52.6,79.4,52.6,79.4z"/>
	<path fill-rule="evenodd" clip-rule="evenodd" fill="#9D3D3A" d="M102,57.3c0,0-4.6-18.2-2.6-20.9c2-2.7,9.8,7.7,12.3,13
		c0,0-7.7-12.2-10.7-11.1C98.5,39.3,102,57.3,102,57.3z"/>
	<path fill-rule="evenodd" clip-rule="evenodd" fill="#BD4C3A" d="M105,65.2c0,0,3.9,2.6,7.1,0.1c3.2-2.5,3.2-6.1,3.2-6.1
		s0.4,5.2-3.4,7.5C108.2,68.9,105,65.2,105,65.2z"/>
	
		<radialGradient id="SVGID_17_" cx="105.8996" cy="77.992" r="6.9825" gradientTransform="matrix(0.9963 -8.590000e-002 8.590000e-002 0.9963 -7.7408 5.3559)" gradientUnits="userSpaceOnUse">
		<stop  offset="1.711450e-002" style="stop-color:#9A4327"/>
		<stop  offset="0.9469" style="stop-color:#8B3B30"/>
	</radialGradient>
	<path fill-rule="evenodd" clip-rule="evenodd" fill="url(#SVGID_17_)" d="M95.9,75.7c0,0-1.1-0.8-0.9-1.9c0,0,11.4-0.9,18.5-3.6
		c0,0-0.7,3.5-3.1,6l-2.2,0.5c0,0-4.1-2.5-10.3-0.5L95.9,75.7z"/>
	<path fill-rule="evenodd" clip-rule="evenodd" fill="#FF9F30" d="M94.9,73.9l-2.1-1.1c0,0,2.5-7.3,12-7.4c0,0,6.5,3,8.5,4.9
		C113.4,70.3,105.2,73.8,94.9,73.9z"/>
	<path fill-rule="evenodd" clip-rule="evenodd" fill="#75272C" d="M112.3,80.2c0,0-1-0.6-4.3,0.4c-3.3,1-5.4,2.6-9.3,3
		c-3.8,0.4-7.2-3-7.2-3l-0.6,0.3c0,0,3.5,3,7.9,3c4.5,0,7.6,6,12.1-2.8L112.3,80.2z"/>
	<path fill-rule="evenodd" clip-rule="evenodd" fill="#BD4C3A" d="M93.5,78.4c0,0-3.7,0.8-3.6,4.3C89.9,82.7,92.5,79,93.5,78.4z"/>
	
		<radialGradient id="SVGID_18_" cx="37.3623" cy="40.1314" r="9.6432" gradientTransform="matrix(0.9963 -8.590000e-002 8.590000e-002 0.9963 -7.7408 5.3559)" gradientUnits="userSpaceOnUse">
		<stop  offset="1.711450e-002" style="stop-color:#FFC772"/>
		<stop  offset="1" style="stop-color:#FF9D48"/>
	</radialGradient>
	<path fill-rule="evenodd" clip-rule="evenodd" fill="url(#SVGID_18_)" d="M42.1,41.8c0,0-5.8-11.1-12.9-9.4
		c-5.5,1.3-6.5,4.9-5.3,9.3c0.9,3.5,3.6,9.5,7.8,10.4c4.1,0.8,7.4-1.9,7.4-1.9S41.1,43.8,42.1,41.8z"/>
	
		<linearGradient id="SVGID_19_" gradientUnits="userSpaceOnUse" x1="66.4958" y1="101.5934" x2="66.4958" y2="33.2173" gradientTransform="matrix(0.9963 -8.590000e-002 8.590000e-002 0.9963 -7.7408 5.3559)">
		<stop  offset="1.711450e-002" style="stop-color:#E08893"/>
		<stop  offset="1" style="stop-color:#FFF2EF"/>
	</linearGradient>
	<path display="none" opacity="0.6" fill-rule="evenodd" clip-rule="evenodd" fill="url(#SVGID_19_)" d="M104.7,92.1
		c-0.3-0.1-6.5-3.8-12.8-2.7c0,0-15.3,8.6-28.4,11.6c-13.1,3-29.2-9.2-29.2-9.2l-5.9,2.9c0.2-0.2,3.2-4,5.3-10.9
		c0.6-1.9,1.1-4.1,1.4-6.5c1.6-11.3,2-33.6,11.5-43.4c-0.2,0.5-8,20.3-1.7,41.9c6.4,21.9,26.4,18.2,35,15.4
		c8.7-2.8,10.1-4.8,10.1-4.8S101.8,90.1,104.7,92.1z"/>
	
		<linearGradient id="SVGID_20_" gradientUnits="userSpaceOnUse" x1="117.6003" y1="83.8901" x2="117.6003" y2="74.9913" gradientTransform="matrix(0.9963 -8.590000e-002 8.590000e-002 0.9963 -7.7408 5.3559)">
		<stop  offset="1.711450e-002" style="stop-color:#E08893"/>
		<stop  offset="1" style="stop-color:#FFF2EF"/>
	</linearGradient>
	<path opacity="0.6" fill-rule="evenodd" clip-rule="evenodd" fill="url(#SVGID_20_)" d="M119.1,72.2c-1.5,2.6-3.4,5.1-5.4,6.9
		c2.3-4.5-0.1-8.9-0.1-8.9C116.4,70.2,118.2,71.4,119.1,72.2z"/>
	
		<radialGradient id="SVGID_21_" cx="38.7805" cy="51.2299" r="9.8321" gradientTransform="matrix(0.9963 -8.590000e-002 8.590000e-002 0.9963 -7.7408 5.3559)" gradientUnits="userSpaceOnUse">
		<stop  offset="1.711450e-002" style="stop-color:#FFC772"/>
		<stop  offset="1" style="stop-color:#FFC381"/>
	</radialGradient>
	<path fill-rule="evenodd" clip-rule="evenodd" fill="url(#SVGID_21_)" d="M42.1,41.8c0,0-13.1-1.6-15.3,12.9c0,0,2.8-4.8,8.6-8
		c0,0-4.3,8.3-0.6,17.3c0,0,1-8.8,6.9-13.8C41.7,50.3,45,46.1,42.1,41.8z"/>
	<path fill-rule="evenodd" clip-rule="evenodd" fill="#75272C" d="M94.9,73.9c0,0,5.7,0.4,11.9-0.9c6.3-1.3,6.7-2.8,6.7-2.8
		S106.8,72.9,94.9,73.9z"/>
	<path fill-rule="evenodd" clip-rule="evenodd" fill="#9D3D3A" d="M41.7,50.3c0,0-3.1,18.8-6.2,24.9c0,0,0.7-8.6,1.6-14
		c0.8-5.4,1-6.6,1-6.6S39.6,51.4,41.7,50.3z"/>
	<path fill-rule="evenodd" clip-rule="evenodd" fill="#FF9F30" d="M56.9,47.4c0,0,3.7-5.5,9.5-5.1c5.9,0.4,12,6.1,12,6.1
		s-4.7-8.5-11.3-9.6C60.6,37.7,56.9,47.4,56.9,47.4z"/>
	<path fill-rule="evenodd" clip-rule="evenodd" fill="#FFC763" d="M53.4,31c0,0,12.4,6.7,25.3,6.1C91.7,36.5,93.9,26,93.9,26
		s-9.5-7-20.6-6.8C62.2,19.5,53.4,31,53.4,31z"/>
	<path fill-rule="evenodd" clip-rule="evenodd" fill="#75272C" d="M98.1,76.1c0,0,5.2-2.8,10.3,0.5C108.3,76.6,103.5,74.3,98.1,76.1
		z"/>
	<path fill-rule="evenodd" clip-rule="evenodd" fill="#FFFFFF" d="M97.2,73.6c0,0,4.3-2.2,5.7-0.7C102.9,72.9,99.1,74.3,97.2,73.6z"
		/>
	<path fill-rule="evenodd" clip-rule="evenodd" fill="#FFFFFF" d="M110.4,75.8c0,0-0.5-4.5,2.4-4.3C112.8,71.5,112.2,74,110.4,75.8z
		"/>
	<radialGradient id="SVGID_22_" cx="73.9299" cy="65.2347" r="11.2831" gradientUnits="userSpaceOnUse">
		<stop  offset="1.711450e-002" style="stop-color:#FF8E27"/>
		<stop  offset="1" style="stop-color:#FF6543"/>
	</radialGradient>
	<path fill-rule="evenodd" clip-rule="evenodd" fill="url(#SVGID_22_)" d="M84.5,74.6c-3.2,1.2-7.4,0-17.9,6.7
		c-7.3-0.9-3.7-15.7,1.7-19.6c4.5-3.2,8.6-2,11.2,0C82.1,63.8,85.7,70.8,84.5,74.6z"/>
	<path fill-rule="evenodd" clip-rule="evenodd" fill="#75272C" d="M84.7,73.4c0,0-5-1.2-9.3,0.3C68,76,64.6,80.5,64.6,80.5
		s-2.1,0.2-4.2,0c0,0,2.6,1.9,7.3,0.9c0,0,1.9-2.8,5.1-4.8C77.2,73.9,84.7,73.4,84.7,73.4z"/>
	<radialGradient id="SVGID_23_" cx="108.051" cy="52.9153" r="8.3765" gradientUnits="userSpaceOnUse">
		<stop  offset="1.711450e-002" style="stop-color:#FF8E27"/>
		<stop  offset="1" style="stop-color:#FF6543"/>
	</radialGradient>
	<path fill-rule="evenodd" clip-rule="evenodd" fill="url(#SVGID_23_)" d="M104.9,65.1c1.4,2.3,7.2,1.6,8-1.8
		c1.2-5-3.6-14.3-6.7-14.9C103,47.7,101.1,59,104.9,65.1z"/>
	<path fill-rule="evenodd" clip-rule="evenodd" fill="#75272C" d="M105,65.2l0.2,0.4c1.4-2,5.2-4.4,7.8-3.9c0,0,1.4-0.5,1-2.6
		c0,0-0.2,0.4-1.2,0.8C112.9,60,107.7,60.1,105,65.2z"/>
	<path fill-rule="evenodd" clip-rule="evenodd" fill="#FFFFFF" d="M68,69c-1.6,1.3-1.5,4.3,0.3,5c1.9,0.7,3-2.1,2.6-3.3
		C70.4,69.5,68.5,68.6,68,69z"/>
	<path fill-rule="evenodd" clip-rule="evenodd" fill="#FFFFFF" d="M104.3,56.7c-0.6,1.3-0.6,4.3,0.1,5c0.7,0.7,1.2-2.1,1-3.3
		C105.3,57.2,104.6,56.3,104.3,56.7z"/>
	<linearGradient id="SVGID_24_" gradientUnits="userSpaceOnUse" x1="106.1041" y1="85.0107" x2="106.1041" y2="81.2558">
		<stop  offset="5.586590e-003" style="stop-color:#C9311F"/>
		<stop  offset="1" style="stop-color:#971E53"/>
	</linearGradient>
	<path fill-rule="evenodd" clip-rule="evenodd" fill="url(#SVGID_24_)" d="M110.2,81.4c0,0-2.8-1.1-8.2,2.2c0,0,1.9,1.4,4.3,1.4
		C108.8,85.1,110.2,81.4,110.2,81.4z"/>
	
		<linearGradient id="SVGID_25_" gradientUnits="userSpaceOnUse" x1="109.9861" y1="73.2378" x2="109.9861" y2="24.9107" gradientTransform="matrix(0.9963 -8.590000e-002 8.590000e-002 0.9963 -7.7408 5.3559)">
		<stop  offset="1.711450e-002" style="stop-color:#E08893"/>
		<stop  offset="1" style="stop-color:#FFF2EF"/>
	</linearGradient>
	<path display="none" opacity="0.6" fill-rule="evenodd" clip-rule="evenodd" fill="url(#SVGID_25_)" d="M122.7,57.5
		c0,0-2.2,10.9-7.9,10.8c-5.7-0.1-10.2-3.1-10.2-3.1c-6.5-13.8-6.4-32.6-6.4-32.6c-2.5-6.8-9.2-10.2-9.7-10.4c1.6,0.5,3,1.1,4.2,1.8
		c7,3.8,13,15.2,16.6,21.6C111.6,49.5,118.1,54.4,122.7,57.5z"/>
	<radialGradient id="SVGID_26_" cx="80.7031" cy="123.6912" r="27.3463" gradientUnits="userSpaceOnUse">
		<stop  offset="1.711450e-002" style="stop-color:#FFC772"/>
		<stop  offset="1" style="stop-color:#FFC381"/>
	</radialGradient>
	<path fill-rule="evenodd" clip-rule="evenodd" fill="url(#SVGID_26_)" d="M101,102.2h-2.3c0,0,0,0.5-0.1,1.4
		c-0.2,1.4-0.7,3.9-1.8,7.6c-1.7,5.7-3.6,14.1,0.4,22.9l0,0.1c0.2,0.5,0.5,1.1,0.8,1.6c0,0,0,7.4-5.1,14.1c-1.9,2.5-4.6,4.9-8.3,6.8
		c0,0-8-1.5-13,0c0,0,0-1.2-0.1-3.1c-0.5-5.3-2.5-15.9-11.2-20.3c0,0,4-6.4,5.6-13.8c1.6-7.4,0.6-16.1,0.6-16.1s1.8-3.2,8-5.9
		c3.4-1.5,7.7-3.4,10.7-4.8c2.4-1.1,4.1-1.9,4.1-1.9s-0.2,0.8,0,1.9c0.1,0.7,0.3,1.6,0.8,2.5C91.4,97.4,101,102.2,101,102.2z"/>
	<radialGradient id="SVGID_27_" cx="81.9002" cy="94.5032" r="6.4121" gradientUnits="userSpaceOnUse">
		<stop  offset="5.586590e-003" style="stop-color:#008B60"/>
		<stop  offset="1" style="stop-color:#004F53"/>
	</radialGradient>
	<path fill-rule="evenodd" clip-rule="evenodd" fill="url(#SVGID_27_)" d="M73.6,98c0,0,10.3,1.5,16.5-2.8c0,0-0.9-2.6-0.8-4.4
		C89.4,90.8,76.9,96.9,73.6,98z"/>
	<radialGradient id="SVGID_28_" cx="52.5588" cy="164.8049" r="28.5492" gradientUnits="userSpaceOnUse">
		<stop  offset="1.711450e-002" style="stop-color:#FF8E27"/>
		<stop  offset="1" style="stop-color:#FF6543"/>
	</radialGradient>
	<path fill-rule="evenodd" clip-rule="evenodd" fill="url(#SVGID_28_)" d="M71.7,156.6c0,0-1.7,3-4.2,6.5l0,0
		c-1.6,2.2-3.5,4.6-5.5,6.5c-5.2,4.8-9.4,7.7-9.4,7.7l0.8,2.9c-2.6,6.5-10.1,12.3-10.1,12.3c-6.4,1.4-12.2-1-12.2-1s-1.6-3-1.4-4.6
		c0.2-1.5,11-12,16.2-22.1c0,0,0,0,0,0c0,0,0,0,0-0.1c0.5-1,1-1.9,1.3-2.9c0.1-0.3,0.3-0.7,0.4-1c0-0.1,0.1-0.2,0.1-0.3
		c4.5-10.9,12.6-27.2,12.6-27.2c9.5,2.1,11.1,13.8,11.4,19.8C71.8,155.2,71.7,156.6,71.7,156.6z"/>
	<path fill-rule="evenodd" clip-rule="evenodd" fill="#9D3D3A" d="M52.4,149.8c0,0,9.1-0.3,14.1,6.8c0,0,1.2-10.4-10.1-15.1
		L52.4,149.8z"/>
	<linearGradient id="SVGID_29_" gradientUnits="userSpaceOnUse" x1="69.9272" y1="192.9476" x2="69.9272" y2="92.6862">
		<stop  offset="1.711450e-002" style="stop-color:#E08893"/>
		<stop  offset="1" style="stop-color:#FFF2EF"/>
	</linearGradient>
	<path display="none" opacity="0.6" fill-rule="evenodd" clip-rule="evenodd" fill="url(#SVGID_29_)" d="M109.9,190.1
		c-7.6,3.7-17.6,1.9-18.9,1.2c-1.3-0.7-5.5-5.6-5.3-6.8s1-2.7,3.3-10c2.3-7.3-4.2-17.9-4.2-17.9s-8-1.5-13,0c0,0-4.5,8.1-9.7,13
		c-5.2,4.8-9.4,7.7-9.4,7.7l0.8,2.9c-2.6,6.5-10.1,12.3-10.1,12.3c-6.4,1.4-12.2-1-12.2-1s-1.6-3-1.4-4.6c0,0,6.3,1.9,11.9,0.7
		S53,180,53,180c-0.2-1.8-1.5-3.6-1.5-3.6s8.8-5.3,11.3-13.3c2.5-8.1,4-20.2-2.4-19.3c-4.5,0.7-9.8,10.7-12.6,16.6
		c4.5-10.9,12.6-27.2,12.6-27.2s4-6.4,5.6-13.8c1.6-7.4,0.6-16.1,0.6-16.1s1.8-3.2,8-5.9c3.4-1.5,7.7-3.4,10.7-4.8h4.1
		c0.1,0.7,0.3,1.6,0.8,2.5c1.2,2.3,10.9,7.1,10.9,7.1h-2.3c0,0,0,0.5-0.1,1.4c-10.4,2.6-29.1,18.9-28.6,26.5
		c0.5,7.7,14.3,18.9,20.6,15.1c6.3-3.9,6.6-11.1,6.6-11.1l0,0.1l1.5,2.7l0,0l4.6,8.2c-2.1,25.5-17.2,38.1-17.1,39
		c0.2,0.9,3.5,4.7,5.1,5.3c1.6,0.6,11.2,0.7,14.6-1.6c3.4-2.2,3-4.5,3-4.5C111,185,109.9,190.1,109.9,190.1z"/>
	<radialGradient id="SVGID_30_" cx="55.4286" cy="130.8255" r="23.0929" gradientUnits="userSpaceOnUse">
		<stop  offset="1.711450e-002" style="stop-color:#FF8E27"/>
		<stop  offset="1" style="stop-color:#FF6543"/>
	</radialGradient>
	<path fill-rule="evenodd" clip-rule="evenodd" fill="url(#SVGID_30_)" d="M79.7,98.2c0,0-3.3,2-4.2,4.2c-0.9,2.2-2.7,14.4-6.3,16.8
		s-10.6,4.5-10.6,4.5s5.1,8.8,3.6,12.7c-1.5,3.9-6.3,8.3-7.7,8.2c-1.5-0.1-6-2-5.9-3.1c0.1-1.1,0.7-2.9,0.7-2.9
		c-3.4-3-5.4-6.1-6.6-9c0,0,0,0,0,0c-1-2.4-1.4-4.6-1.4-6.3c-0.1-1.8,0.2-3,0.5-3.6c0.6-1.3,2.6-1.9,5.8-3.6
		c1.2-0.6,2.6-1.4,4.1-2.4c5.6-3.6,10.9-7.6,12.8-10.1c1.8-2.5,5.6-4.4,5.6-4.4C74.9,96.6,79.7,98.2,79.7,98.2z"/>
	<path opacity="0.8" fill-rule="evenodd" clip-rule="evenodd" fill="#CE777C" d="M93.1,149.8c-0.7,5.3-4.2,16.6-4.2,16.6
		c-1.3-5.2-4.1-9.8-4.1-9.8s-8-1.5-13,0c0,0-1.7,3-4.2,6.5l4-9.6l0.2-0.4l0-0.1c6.1,2.1,13.4,0,17.7-1.6
		C91.4,150.6,92.7,149.9,93.1,149.8C93,149.8,93.1,149.8,93.1,149.8z"/>
	<path opacity="0.8" fill-rule="evenodd" clip-rule="evenodd" fill="#CE777C" d="M71,117.1c0,0-2.1,8.6-8.9,13.1c0,0,1.9-3.5,3.5-9
		C65.6,121.1,69,119.4,71,117.1z"/>
	<path fill-rule="evenodd" clip-rule="evenodd" fill="#9D3D3A" d="M43.8,132c0,0,3.4-7.6,12-7.5c0,0-7.9,4.1-9.9,10.7L43.8,132z"/>
	<path fill-rule="evenodd" clip-rule="evenodd" fill="#9D3D3A" d="M58.6,123.7c0,0-3.4-3.4-8.8-3.5c-5.2-0.2-8.4,2.9-8.6,3.1
		c-0.1-1.8,0.2-3,0.5-3.6c0.6-1.3,2.6-1.9,5.8-3.6C53.9,117,58.6,123.7,58.6,123.7z"/>
	<path fill-rule="evenodd" clip-rule="evenodd" fill="#9D3D3A" d="M50.3,114.5c0,0,8.2-2.2,13.2,0.7c0,0-2-4.6-6.4-5.2L50.3,114.5z"
		/>
	<path fill-rule="evenodd" clip-rule="evenodd" fill="#9D3D3A" d="M60.4,107.5c0,0,4.5-0.3,7.2,1.7c0,0,0.5-3-3.5-5.2
		C64.1,104,61.2,106.9,60.4,107.5z"/>
	<linearGradient id="SVGID_31_" gradientUnits="userSpaceOnUse" x1="41.1846" y1="113.6289" x2="79.7331" y2="113.6289">
		<stop  offset="1.711450e-002" style="stop-color:#E08893"/>
		<stop  offset="1" style="stop-color:#FFF2EF"/>
	</linearGradient>
	<path opacity="0.6" fill-rule="evenodd" clip-rule="evenodd" fill="url(#SVGID_31_)" d="M79.7,98.2c0,0-3.3,2-4.2,4.2
		c-0.9,2.2-2.7,14.4-6.3,16.8s-10.6,4.5-10.6,4.5s-5.4-6.9-11-6.4c-5.4,0.5-5,11.8-5,12.3c-2-4.8-1.5-8.8-1-9.9
		c0.9-1.8,4.3-2.3,10-5.9s10.9-7.6,12.8-10.1c1.8-2.5,5.6-4.4,5.6-4.4C74.9,96.6,79.7,98.2,79.7,98.2z"/>
	<path fill-rule="evenodd" clip-rule="evenodd" fill="#9D3D3A" d="M94.9,92.6c0,0,2.5,0.8,5.3,3.8c0,0,0.4-3.7-0.2-5.4L94.9,92.6z"
		/>
	<path fill-rule="evenodd" clip-rule="evenodd" fill="#9D3D3A" d="M111.8,85c0,0,3.3-1.7,5.9-1.8l-2.3-0.8L111.8,85z"/>
	<path fill-rule="evenodd" clip-rule="evenodd" fill="#9D3D3A" d="M44.2,167.7c0,0,5.3-1.1,9.1,3.3c0,0-1.2-5.2-6.6-7.9L44.2,167.7z
		"/>
	<path fill-rule="evenodd" clip-rule="evenodd" fill="#9D3D3A" d="M49.3,157.3c0,0,3.9-0.4,9.3,4.9c0,0-0.3-7.2-6.9-10.9L49.3,157.3
		z"/>
	<path fill-rule="evenodd" clip-rule="evenodd" fill="#9D3D3A" d="M107.2,168.1c0,0-1.2-2.4-7-1.7c0,0,4.6-4.5,8.1-3.3
		C108.2,163.1,107.9,166.1,107.2,168.1z"/>
	<path fill-rule="evenodd" clip-rule="evenodd" fill="#9D3D3A" d="M107.4,155.2c0,0-3.1-2.4-7.2-0.4c0,0,2.9-4.4,5.8-3.8
		C105.9,151,107.1,154.1,107.4,155.2z"/>
	<path fill-rule="evenodd" clip-rule="evenodd" fill="#9D3D3A" d="M41.7,133.7c0,0-6.1-0.9-10.2,5.4c0,0,1.1-8.5,8.4-10L41.7,133.7z
		"/>
	<path fill-rule="evenodd" clip-rule="evenodd" fill="#9D3D3A" d="M39,124.4c0,0-4.2-3-11.6,0.8c0,0,3.7-6.8,11.1-5.3L39,124.4z"/>
	<path fill-rule="evenodd" clip-rule="evenodd" fill="#9D3D3A" d="M38.2,116.6c0,0-4.8-4.4-10.1-1.4c0,0,2.6-6,9.5-3.4L38.2,116.6z"
		/>
	<path fill-rule="evenodd" clip-rule="evenodd" fill="#9D3D3A" d="M30.4,97.7c0,0-2.8,1.7-3.5,6.3c0,0-1.2-5.4-0.4-8.9
		C26.6,95.1,29.3,96.7,30.4,97.7z"/>
	<path fill-rule="evenodd" clip-rule="evenodd" fill="#FFC763" d="M29.7,186.8c0,0,5.3,1.9,11.9,0.7c6.6-1.2,10.8-8.1,10.8-8.1
		s-4.1-5.8-9.8-4.2C36.9,176.8,29.7,186.8,29.7,186.8z"/>
	<path fill-rule="evenodd" clip-rule="evenodd" fill="#FFC763" d="M1.7,112.5c0,0,9.7,0.3,16.4-2.5c6.7-2.8,10.2-12.3,10.2-12.3
		s-2.7-3.7-9.1-3C12.8,95.4-1.7,102.1,1.7,112.5z"/>
	<path fill-rule="evenodd" clip-rule="evenodd" fill="#FFC763" d="M100.3,181.5c0,0-4.4,1.7-11.2,2.9c0,0,14.5,4.3,19.9-1.2
		C108.9,183.2,104.6,182.9,100.3,181.5z"/>
	<path fill-rule="evenodd" clip-rule="evenodd" fill="#FF957E" d="M125.5,80.5c0.2-1.1,3.9-2.4,5.7-1c1.9,1.4,1.4,5.1,0.2,5.7
		s-1.7-2-3-3C127,81.3,125.3,81.3,125.5,80.5z"/>
	<radialGradient id="SVGID_32_" cx="134.5869" cy="74.2176" r="6.3829" gradientUnits="userSpaceOnUse">
		<stop  offset="1.711450e-002" style="stop-color:#FF8E27"/>
		<stop  offset="1" style="stop-color:#FF6543"/>
	</radialGradient>
	<path fill-rule="evenodd" clip-rule="evenodd" fill="url(#SVGID_32_)" d="M138.9,80.7c0,0-0.4,1.5-2.1,2.6
		c-0.6,0.4-1.4,0.8-2.5,0.9l0,0c-0.1-0.1-0.7-0.6-1.1-1.5c-0.4-0.7-0.7-1.7-0.7-2.8c0,0-1.7-1.7-2.4-3.7c0,0-0.1-1.4,1-2.9l0,0
		c0.7-0.9,1.9-1.9,3.9-2.6c0,0,2.9,1.2,2.2,5.7C137.1,76.5,138.9,78,138.9,80.7z"/>
	<path fill-rule="evenodd" clip-rule="evenodd" fill="#BD4C3A" d="M136.9,83.1c0,0,0,0.1-0.1,0.2c-0.3,0.4-1,1.1-2.5,0.9l0,0
		l-1.1-1.5c-0.4-0.7-0.7-1.7-0.7-2.8c0,0-1.7-1.7-2.4-3.7c0,0-0.1-1.4,1-2.9l0,0c0,0,0.9,2.1,3.4,3.7l2.6-0.6l-2.8,1.3
		C134.3,77.8,135.1,81.5,136.9,83.1z"/>
	<radialGradient id="SVGID_33_" cx="132.101" cy="71.0514" r="3.4517" gradientUnits="userSpaceOnUse">
		<stop  offset="1.711450e-002" style="stop-color:#FFC772"/>
		<stop  offset="1" style="stop-color:#FFC381"/>
	</radialGradient>
	<path fill-rule="evenodd" clip-rule="evenodd" fill="url(#SVGID_33_)" d="M128.8,73c0,0,1.4-4.2,2.5-5.3c1.1-1.1,4.2,1.8,4.2,1.8
		l-0.5,1.3c0,0-3.4,1.8-3.9,2.6l-0.7,1.2L128.8,73z"/>
	<path fill-rule="evenodd" clip-rule="evenodd" fill="#BD4C3A" d="M40,192.9c0,0-1.4-3.5-1.1-5.1c0.4-1.5,3.7-3.8,3.7-3.8
		s-2.1,1.9-2.6,3.8C39.5,189.9,40,192.9,40,192.9z"/>
	<path fill-rule="evenodd" clip-rule="evenodd" fill="#BD4C3A" d="M32.5,192c0,0-0.7-2.9-0.5-4.5c0.2-1.7,2.4-3.8,2.4-3.8
		s-1.3,2.1-1.6,3.9C32.6,189.3,32.5,192,32.5,192z"/>
	<path fill-rule="evenodd" clip-rule="evenodd" fill="#BD4C3A" d="M100.2,186c0,0,5.5,0.5,6,0.8c0.6,0.3,0.7,4.5,0.7,4.5
		s0.7-3.7,0.2-4.9C106.9,185.7,100.2,186,100.2,186z"/>
	<path fill-rule="evenodd" clip-rule="evenodd" fill="#BD4C3A" d="M54.5,144.6c0,0,2.5-0.9,5.5-5.1c3-4.2,2-7.9,2-7.9s1,1.7,0.2,5.2
		C61.4,140.2,56.5,144.7,54.5,144.6z"/>
	<path fill-rule="evenodd" clip-rule="evenodd" fill="#BD4C3A" d="M91,191.4c0,0,11.7,1.5,18.9-1.2
		C109.9,190.1,102.8,194.6,91,191.4z"/>
	<path fill-rule="evenodd" clip-rule="evenodd" fill="#BD4C3A" d="M53.5,180.2c0,0-6.1,9.8-10,11.3c-3.9,1.5-12.4,0-12.4,0
		s6.1,2.6,12.2,1C43.3,192.5,49.5,188.8,53.5,180.2z"/>
	<path fill-rule="evenodd" clip-rule="evenodd" fill="#BD4C3A" d="M57.1,121.9c0,0,5.2,0.3,8.5-0.7c0,0-4,1.7-7,2.6L57.1,121.9z"/>
	<path fill-rule="evenodd" clip-rule="evenodd" fill="#FFC763" d="M46.3,119.7c-3.2,1,1.5,16.9,6.1,19.3c4.6,2.4,9-4.2,9.3-5.8
		c0.3-1.6-2.2-9.4-5.9-11.4C52.1,119.7,48.2,119.1,46.3,119.7z"/>
	<path opacity="0.8" fill-rule="evenodd" clip-rule="evenodd" fill="#CE777C" d="M96.5,92.1c0,0-0.1,8.5-10.6,14.9
		c-10.5,6.4-26.4,1.2-26.4,1.2s2.6-2.2,5.2-5c2.6-2.8,5.7-4.6,9.4-5.5c0,0,12.5-5.3,15.3-6.9l0.3,2.6C89.7,93.4,92.4,93.3,96.5,92.1
		z"/>
	<path fill-rule="evenodd" clip-rule="evenodd" fill="#9D3D3A" d="M78.9,95.8c0,0,8.7-4.4,11.9-6.4c4.2-2.6,13.9,2.8,13.9,2.8
		s-8.4-3.5-12.7-1.9C87.7,91.8,78.9,95.8,78.9,95.8z"/>
	<path opacity="0.8" fill-rule="evenodd" clip-rule="evenodd" fill="#CE777C" d="M51.7,151.3c0,0,6.8-4.8,9.6-12.5
		c0,0-1.5,3.6-6.4,5.8L51.7,151.3z"/>
	<path opacity="0.8" fill-rule="evenodd" clip-rule="evenodd" fill="#CE777C" d="M34.1,82.9c0,0,8.6-5.6,10.7-14l-9.3,4.8
		C35.5,73.7,34.8,79.2,34.1,82.9z"/>
	<g>
		<path fill-rule="evenodd" clip-rule="evenodd" fill="#312E40" d="M30.5,37.8c0,0,10.8,0.1,15.2,13.2c3.8,11.3-2.7,21.3-2.7,21.3
			L30.5,37.8z"/>
		
			<radialGradient id="SVGID_34_" cx="32.9112" cy="40.0506" r="17.9428" gradientTransform="matrix(0.9965 8.410000e-002 -8.410000e-002 0.9965 5.6546 -2.1292)" gradientUnits="userSpaceOnUse">
			<stop  offset="5.586590e-003" style="stop-color:#006B60"/>
			<stop  offset="1" style="stop-color:#004F53"/>
		</radialGradient>
		<path fill-rule="evenodd" clip-rule="evenodd" fill="url(#SVGID_34_)" d="M30.5,37.8c0,0-4.6,0.4-8.5,7l8,27.8c0,0,5.3,2.8,13-0.4
			c0,0,4.6-8.7,1-20.5C40.6,39.8,30.5,37.8,30.5,37.8z"/>
		
			<radialGradient id="SVGID_35_" cx="25.2829" cy="47.1327" r="13.1739" gradientTransform="matrix(0.9965 8.410000e-002 -8.410000e-002 0.9965 5.6546 -2.1292)" gradientUnits="userSpaceOnUse">
			<stop  offset="5.586590e-003" style="stop-color:#00A992"/>
			<stop  offset="1" style="stop-color:#00777E"/>
		</radialGradient>
		<path fill-rule="evenodd" clip-rule="evenodd" fill="url(#SVGID_35_)" d="M22.1,44.7c0,0-6.7,17.9,8,27.8
			C30.1,72.6,34.7,54.2,22.1,44.7z"/>
		<path fill-rule="evenodd" clip-rule="evenodd" fill="#312E40" d="M59.5,7.4c0,0,16.9-3.8,29.1,14.7l8.4,3.8
			c0,0-6.4-21.3-21.2-23.4C60.9,0.2,59.5,7.4,59.5,7.4z"/>
		<radialGradient id="SVGID_36_" cx="52.2262" cy="2.694" r="21.7465" gradientUnits="userSpaceOnUse">
			<stop  offset="5.586590e-003" style="stop-color:#006B60"/>
			<stop  offset="1" style="stop-color:#004F53"/>
		</radialGradient>
		<path fill-rule="evenodd" clip-rule="evenodd" fill="url(#SVGID_36_)" d="M53.4,1.4C36.1,9.6,30.9,38.1,30.9,38.1l4.8,2
			C47.9,6.7,72.8,0.6,72.8,0.6C63.9-1.1,53.4,1.4,53.4,1.4z"/>
		<radialGradient id="SVGID_37_" cx="67.8563" cy="2.7092" r="24.875" gradientUnits="userSpaceOnUse">
			<stop  offset="5.586590e-003" style="stop-color:#00A992"/>
			<stop  offset="1" style="stop-color:#00777E"/>
		</radialGradient>
		<path fill-rule="evenodd" clip-rule="evenodd" fill="url(#SVGID_37_)" d="M35.7,40.1l2.4,0.3c0,0,14.4-35.8,32.8-37.7
			c18.4-1.9,26,23.1,26,23.1l2-0.7c0,0-8.4-24.5-28.1-25.1C50.3-0.7,35.7,40.1,35.7,40.1z"/>
		<path fill-rule="evenodd" clip-rule="evenodd" fill="#00FFFF" d="M21.6,55c0,0-0.2,7.9,4.1,12.4C25.7,67.4,26.8,59.4,21.6,55z"/>
		<path opacity="0.5" fill-rule="evenodd" clip-rule="evenodd" fill="#00FFFF" d="M38.8,42.6c0,0-4.7,0.5-12.8,5.8c0,0,2,2.7,3.6,7
			c0,0,9.3-4.5,14.3-4.7C43.8,50.6,42.3,45.2,38.8,42.6z"/>
		<path opacity="0.5" fill-rule="evenodd" clip-rule="evenodd" fill="#00FFFF" d="M30.4,70.8c0,0,7.5,1,13.5-0.6l-0.7,1.3
			c0,0-1.9,1.8-13,0L30.4,70.8z"/>
		<path opacity="0.5" fill-rule="evenodd" clip-rule="evenodd" fill="#00FFFF" d="M46.6,6.1l7,2.9c0,0,5.4-7,15-8.9
			c0,0-4.2-0.4-15.2,1.3C53.4,1.4,48.8,3.8,46.6,6.1z"/>
	</g>
</g>
</svg>
