<?xml version="1.0" encoding="utf-8"?>
<!-- Generator: Adobe Illustrator 17.1.0, SVG Export Plug-In . SVG Version: 6.00 Build 0)  -->
<!DOCTYPE svg PUBLIC "-//W3C//DTD SVG 1.1//EN" "http://www.w3.org/Graphics/SVG/1.1/DTD/svg11.dtd">
<svg version="1.1" id="Layer_1" xmlns="http://www.w3.org/2000/svg" xmlns:xlink="http://www.w3.org/1999/xlink" x="0px" y="0px"
	 width="182.4px" height="148.6px" viewBox="0 0 182.4 148.6" enable-background="new 0 0 182.4 148.6" xml:space="preserve">
<g>
	<path fill-rule="evenodd" clip-rule="evenodd" fill="#9D3D3A" d="M6.5,93c0,0-4.5,2.2-5.3,4.6c-0.8,2.3,6.4,5.7,6.4,5.7L6.5,93z"/>
	<path fill-rule="evenodd" clip-rule="evenodd" fill="#9D3D3A" d="M105.1,73.7c0,0-3.3,1.4-5.7,8.4h4.5L105.1,73.7z"/>
	<g>
		<radialGradient id="SVGID_1_" cx="144.2304" cy="131.6588" r="23.1176" gradientUnits="userSpaceOnUse">
			<stop  offset="1.711450e-002" style="stop-color:#FF8E27"/>
			<stop  offset="1" style="stop-color:#FF6543"/>
		</radialGradient>
		<path fill-rule="evenodd" clip-rule="evenodd" fill="url(#SVGID_1_)" d="M180.1,140.6c-0.7,0.6-3.8,1.1-8.5,1.4h0
			c-2.4,0.2-5.3,0.3-8.5,0.4c-10.2,0.3-46.9-0.9-59.1-1.9l25.4-11c0,0,1.8,0.9,4.3,1.9c2.8,1.1,6.5,2.3,9.8,2.5
			c4.9,0.4,8.7-1.6,14.6-3.5c1.9-0.6,4.1-1.2,6.6-1.7c10.2-2.1,16.9,0.7,17.6,2.7C182.8,133.3,182.2,138.9,180.1,140.6z"/>
		<radialGradient id="SVGID_2_" cx="170.2305" cy="135.2207" r="10.0364" gradientUnits="userSpaceOnUse">
			<stop  offset="1.711450e-002" style="stop-color:#FFC772"/>
			<stop  offset="1" style="stop-color:#FFC381"/>
		</radialGradient>
		<path fill-rule="evenodd" clip-rule="evenodd" fill="url(#SVGID_2_)" d="M180.1,140.6c-1,0.8-7.8,1.6-17.1,1.8
			c-0.7-7.8-4.9-12.1-4.9-12.1c1.9-0.6,4.1-1.2,6.6-1.7c10.2-2.1,16.9,0.7,17.6,2.7C182.8,133.3,182.2,138.9,180.1,140.6z"/>
		<path opacity="0.8" fill-rule="evenodd" clip-rule="evenodd" fill="#CE777C" d="M171.5,142.1c-2.4,0.2-5.3,0.3-8.5,0.4
			c-10.2,0.3-46.9-0.9-59.1-1.9l25.4-11c0,0,1.8,0.9,4.3,1.9c0.2,0.3,1.9,3.2,4.6,8.5C143.5,142.9,170.9,142.1,171.5,142.1z"/>
		<path fill-rule="evenodd" clip-rule="evenodd" fill="#9D3D3A" d="M137.7,132.8c0,0,3,2.8,2.7,7.1c0,0,1.6-3.3,0.8-6.2L137.7,132.8
			z"/>
		<path fill-rule="evenodd" clip-rule="evenodd" fill="#9D3D3A" d="M149.2,133.4c0,0,3.1,0.5,4.7,6.6c0,0,1.7-4.4-0.8-7.8
			L149.2,133.4z"/>
		<path fill-rule="evenodd" clip-rule="evenodd" fill="#9D3D3A" d="M154.4,131.7c0,0,1.9,2.2,0.6,7.4c0,0,3.5-2,3-8.6L154.4,131.7z"
			/>
		<path fill-rule="evenodd" clip-rule="evenodd" fill="#FFC763" d="M151.8,132.7c0,0,7.3,4.3,18.9,3.6c11.6-0.7,10.6-4.7,10.2-5.6
			s-4.8-3-11.7-2.5C162.3,128.8,151.8,132.7,151.8,132.7z"/>
	</g>
	<path fill-rule="evenodd" clip-rule="evenodd" fill="#9D3D3A" d="M42.6,148.3c0,0,6.2-1,12-5.7h24.4c0,0,3.8,3.6,6.1,4.8l11.6-6.7
		H42.1L42.6,148.3z"/>
	<g>
		<radialGradient id="SVGID_3_" cx="72.4537" cy="96.7543" r="45.1277" gradientUnits="userSpaceOnUse">
			<stop  offset="1.711450e-002" style="stop-color:#E2FFFF"/>
			<stop  offset="1" style="stop-color:#D7DBEF"/>
		</radialGradient>
		<polygon fill-rule="evenodd" clip-rule="evenodd" fill="url(#SVGID_3_)" points="5.9,81.4 9.7,141.9 131.4,140.2 135.5,81.4 		"/>
		<polygon fill-rule="evenodd" clip-rule="evenodd" fill="#8B6D81" points="9.7,141.9 11.8,142.5 130.4,140.7 131.4,140.2 		"/>
		<path opacity="0.5" fill-rule="evenodd" clip-rule="evenodd" fill="#97779A" d="M8.7,94.2c0,0,5.8,4.7,5.4,15.9
			C13.6,121.2,8.5,123,8.5,123L6.7,94.5L8.7,94.2z"/>
		<path opacity="0.5" fill-rule="evenodd" clip-rule="evenodd" fill="#97779A" d="M41,81.4c0,0,12.8,7.2,31.1,9.3
			c18.3,2.1,26-9.3,26-9.3H41z"/>
		<path opacity="0.5" fill-rule="evenodd" clip-rule="evenodd" fill="#97779A" d="M101.2,85.9c0,0,2.6,4.9,12.8,6.9
			c10.2,2,7.7-11.4,7.7-11.4h-1.3L101.2,85.9z"/>
		<path opacity="0.5" fill-rule="evenodd" clip-rule="evenodd" fill="#97779A" d="M101.8,121.1c0,0,8.2,6.7,3.8,19.6l-5.8,0.4
			L101.8,121.1z"/>
		<path opacity="0.5" fill-rule="evenodd" clip-rule="evenodd" fill="#97779A" d="M43.4,118.2c0,0,6.5,1.7,9.1,8.7
			c2.6,7,3.9,14.4,3.9,14.4l-8,0.1L43.4,118.2z"/>
		<linearGradient id="SVGID_4_" gradientUnits="userSpaceOnUse" x1="70.6885" y1="141.9009" x2="70.6885" y2="81.3984">
			<stop  offset="1.711450e-002" style="stop-color:#E0BBC0"/>
			<stop  offset="1" style="stop-color:#FFF2EF"/>
		</linearGradient>
		<path display="none" opacity="0.6" fill-rule="evenodd" clip-rule="evenodd" fill="url(#SVGID_4_)" d="M14.1,81.4
			c0,0-5.6,3.9-6,7.6c-0.4,3.7,2.8,43.7,7.5,47.4c4.7,3.7,98.6,6,107.2-1.8c8.6-7.8,11.7-49.2,10.2-50.4c-1.5-1.2-5.5-2.8-5.5-2.8
			h7.9l-4.1,58.8L9.7,141.9L5.9,81.4H14.1z"/>
	</g>
	<g>
		
			<linearGradient id="SVGID_5_" gradientUnits="userSpaceOnUse" x1="-134.8207" y1="30.0079" x2="-134.8207" y2="-1.055014e-010" gradientTransform="matrix(-1 0 0 1 -107.7296 0)">
			<stop  offset="0.3802" style="stop-color:#9A4327"/>
			<stop  offset="0.9972" style="stop-color:#592930"/>
		</linearGradient>
		<path fill-rule="evenodd" clip-rule="evenodd" fill="url(#SVGID_5_)" d="M39.5,12.2c0,0-5.8-11.5-14.8-12.2c0,0-5.9,0.9-8.4,5.9
			c-3.3,6.9-1.2,16.3,1.2,20.3c2.4,4,10.1,3.8,10.1,3.8S31.3,19.6,39.5,12.2z"/>
		
			<radialGradient id="SVGID_6_" cx="-131.7086" cy="18.8845" r="9.8699" gradientTransform="matrix(-1 0 0 1 -107.7296 0)" gradientUnits="userSpaceOnUse">
			<stop  offset="1.711450e-002" style="stop-color:#FFC772"/>
			<stop  offset="1" style="stop-color:#FF9D48"/>
		</radialGradient>
		<path fill-rule="evenodd" clip-rule="evenodd" fill="url(#SVGID_6_)" d="M32.4,18.6c0,0-6.4-10.8-11.9-10.8
			c-5.5,0-5.4,8.9-4.3,13.5c1.1,4.6,2.1,8.5,10.7,8.8C26.9,30,28.8,24.4,32.4,18.6z"/>
		
			<radialGradient id="SVGID_7_" cx="-133.9156" cy="28.2516" r="8.1413" gradientTransform="matrix(-1 0 0 1 -107.7296 0)" gradientUnits="userSpaceOnUse">
			<stop  offset="1.711450e-002" style="stop-color:#FFC772"/>
			<stop  offset="1" style="stop-color:#FFC381"/>
		</radialGradient>
		<path fill-rule="evenodd" clip-rule="evenodd" fill="url(#SVGID_7_)" d="M32.4,18.6c0,0-6.4-1.1-12.4,7.3c0,0,3.2-3,8.3-3.3
			c0,0-3.5,0.8-5.6,4.4S24,37.9,24,37.9S26.2,31,32.4,18.6z"/>
		<linearGradient id="SVGID_8_" gradientUnits="userSpaceOnUse" x1="101.986" y1="30.0079" x2="101.986" y2="-1.055014e-010">
			<stop  offset="0.3802" style="stop-color:#9A4327"/>
			<stop  offset="0.9972" style="stop-color:#592930"/>
		</linearGradient>
		<path fill-rule="evenodd" clip-rule="evenodd" fill="url(#SVGID_8_)" d="M89.5,12.2c0,0,5.8-11.5,14.8-12.2c0,0,5.9,0.9,8.4,5.9
			c3.3,6.9,1.2,16.3-1.2,20.3c-2.4,4-10.1,3.8-10.1,3.8S97.8,19.6,89.5,12.2z"/>
		<radialGradient id="SVGID_9_" cx="66.0091" cy="23.8975" r="48.5622" gradientUnits="userSpaceOnUse">
			<stop  offset="1.711450e-002" style="stop-color:#FF8E27"/>
			<stop  offset="1" style="stop-color:#FF6543"/>
		</radialGradient>
		<path fill-rule="evenodd" clip-rule="evenodd" fill="url(#SVGID_9_)" d="M119.3,60.5l-5.3-1.2c0,0-1.1,1.6-3.2,4
			c-5.4,6.1-18.6,17.2-35.3,18.7c0,0-4.9,4.5-10.9,6.1l0.4-1c0,0-4.6-1.3-8.7-4.1c-0.4,0-27.9-0.1-40.8-18.1l-5.9,0.5
			c0,0,0.9-1,2.4-3c3.3-4.4,9.3-13.6,12.3-25.7c4.3-17.2,14-24.5,14-24.5S52.8,2.1,70.1,2.1l-3.7,1.8c0,0,20.7,3.5,29.2,13.3
			C104.1,27,104.4,48,119.3,60.5z"/>
		<radialGradient id="SVGID_10_" cx="64.8033" cy="73.6895" r="36.2572" gradientUnits="userSpaceOnUse">
			<stop  offset="1.711450e-002" style="stop-color:#FFC772"/>
			<stop  offset="1" style="stop-color:#FFC381"/>
		</radialGradient>
		<path fill-rule="evenodd" clip-rule="evenodd" fill="url(#SVGID_10_)" d="M114,59.3c0,0-15.2,20.6-38.6,22.7c0,0-4.9,4.5-10.9,6.1
			l0.4-1c0,0-4.6-1.3-8.7-4.1c-0.4,0-27.9-0.1-40.8-18.1c16.6,11.5,37.1-1,37.1-1c13.5,2.1,23.4-0.2,23.4-0.2
			C100.3,72.8,114,59.3,114,59.3z"/>
		
			<radialGradient id="SVGID_11_" cx="73.2157" cy="66.3088" r="10.3073" gradientTransform="matrix(0.874 0 0 1 1.4009 0)" gradientUnits="userSpaceOnUse">
			<stop  offset="1.711450e-002" style="stop-color:#9A4327"/>
			<stop  offset="0.9469" style="stop-color:#8B3B30"/>
		</radialGradient>
		<path fill-rule="evenodd" clip-rule="evenodd" fill="url(#SVGID_11_)" d="M52.9,63.6l1,2.7c0,0,6.8,0.3,9.3,3h2.1h2.1
			c2.5-2.8,9.3-3,9.3-3l1.1-3C68.6,64.3,62.2,64.6,52.9,63.6z"/>
		<radialGradient id="SVGID_12_" cx="88.9414" cy="42.7432" r="17.6706" gradientUnits="userSpaceOnUse">
			<stop  offset="1.711450e-002" style="stop-color:#FFEC72"/>
			<stop  offset="1" style="stop-color:#FFBD8C"/>
		</radialGradient>
		<path fill-rule="evenodd" clip-rule="evenodd" fill="url(#SVGID_12_)" d="M76.7,60.7c-4.8-1.8-4.8-22.5-1.3-32.8
			c3.5-10.3,22.9-0.5,27.4,12.2c4.4,12.7,1.6,16.4-1.2,17.9C98.6,59.5,85.3,63.9,76.7,60.7z"/>
		<radialGradient id="SVGID_13_" cx="105.0981" cy="18.8845" r="9.8698" gradientUnits="userSpaceOnUse">
			<stop  offset="1.711450e-002" style="stop-color:#FFC772"/>
			<stop  offset="1" style="stop-color:#FF9D48"/>
		</radialGradient>
		<path fill-rule="evenodd" clip-rule="evenodd" fill="url(#SVGID_13_)" d="M96.7,18.6c0,0,6.4-10.8,11.9-10.8
			c5.5,0,5.4,8.9,4.3,13.5c-1.1,4.6-2.1,8.5-10.7,8.8C102.2,30,100.3,24.4,96.7,18.6z"/>
		<radialGradient id="SVGID_14_" cx="102.8911" cy="28.2516" r="8.1413" gradientUnits="userSpaceOnUse">
			<stop  offset="1.711450e-002" style="stop-color:#FFC772"/>
			<stop  offset="1" style="stop-color:#FFC381"/>
		</radialGradient>
		<path fill-rule="evenodd" clip-rule="evenodd" fill="url(#SVGID_14_)" d="M96.7,18.6c0,0,6.4-1.1,12.4,7.3c0,0-3.2-3-8.3-3.3
			c0,0,3.5,0.8,5.6,4.4c2.1,3.6-1.3,10.9-1.3,10.9S102.9,31,96.7,18.6z"/>
		<path fill-rule="evenodd" clip-rule="evenodd" fill="#9D3D3A" d="M73.6,35.8c0,0,1.5-10.8,8.5-11c7.1-0.2,19.9,10,22.6,23
			c0,0,0.6-7.3-7-15.6s-15.1-11.7-19.3-9.8C74.3,24.2,73.6,35.8,73.6,35.8z"/>
		<g>
			<path fill-rule="evenodd" clip-rule="evenodd" fill="#75272C" d="M75.5,51.5c0,0-1.8-14.2,8.3-17.2c10.1-3,17.8,7.6,16,17.6
				L75.5,51.5z"/>
			<linearGradient id="SVGID_15_" gradientUnits="userSpaceOnUse" x1="87.5846" y1="61.3801" x2="87.5846" y2="35.8488">
				<stop  offset="0" style="stop-color:#FFFFFF"/>
				<stop  offset="0.9829" style="stop-color:#FBC9CE"/>
			</linearGradient>
			<path fill-rule="evenodd" clip-rule="evenodd" fill="url(#SVGID_15_)" d="M76.5,56.5c1.8,6.1,13.5,6.3,20.2,1.3
				c6.7-5.1,1.9-20-7.7-21.8C79.3,34.3,72.7,43.9,76.5,56.5z"/>
			
				<radialGradient id="SVGID_16_" cx="76.1327" cy="41.993" r="6.9012" gradientTransform="matrix(1.111 0 0 1.1402 0.2417 6.6249)" gradientUnits="userSpaceOnUse">
				<stop  offset="1.711450e-002" style="stop-color:#FFC710"/>
				<stop  offset="0.7682" style="stop-color:#FF7700"/>
				<stop  offset="1" style="stop-color:#AE4B00"/>
			</radialGradient>
			<ellipse fill-rule="evenodd" clip-rule="evenodd" fill="url(#SVGID_16_)" cx="84.3" cy="50.2" rx="7.7" ry="7.9"/>
			<ellipse fill-rule="evenodd" clip-rule="evenodd" fill="#75272C" cx="84.3" cy="50.2" rx="5.2" ry="5.3"/>
			<circle fill-rule="evenodd" clip-rule="evenodd" fill="#FFFFFF" cx="91.2" cy="46.9" r="1.3"/>
			<path fill-rule="evenodd" clip-rule="evenodd" fill="#FFFFFF" d="M92.5,58.1l-5-5.8l-5,1L81.4,60C81.4,60,89.5,62.4,92.5,58.1z"
				/>
			<path fill-rule="evenodd" clip-rule="evenodd" fill="#BD4C3A" d="M76.6,56.9c0,0,0.8,5.6,11.3,4.7c10.5-0.9,11.5-7.9,11.5-7.9
				s-0.7,5.8-12.1,7.4C79.4,62.2,76.6,56.9,76.6,56.9z"/>
		</g>
		
			<radialGradient id="SVGID_17_" cx="-68.2477" cy="42.7432" r="17.6706" gradientTransform="matrix(-1 0 0 1 -27.2367 0)" gradientUnits="userSpaceOnUse">
			<stop  offset="1.711450e-002" style="stop-color:#FFEC72"/>
			<stop  offset="1" style="stop-color:#FFBD8C"/>
		</radialGradient>
		<path fill-rule="evenodd" clip-rule="evenodd" fill="url(#SVGID_17_)" d="M53.3,60.7c4.8-1.8,4.8-22.5,1.3-32.8
			C51,17.6,31.7,27.4,27.2,40.1c-4.4,12.7-1.6,16.4,1.2,17.9C31.3,59.5,44.6,63.9,53.3,60.7z"/>
		<path fill-rule="evenodd" clip-rule="evenodd" fill="#9D3D3A" d="M56.4,35.8c0,0-1.5-10.8-8.5-11c-7.1-0.2-19.9,10-22.6,23
			c0,0-0.6-7.3,7-15.6s15.1-11.7,19.3-9.8C55.7,24.2,56.4,35.8,56.4,35.8z"/>
		<g>
			<path fill-rule="evenodd" clip-rule="evenodd" fill="#75272C" d="M54.5,51.5c0,0,1.8-14.2-8.3-17.2c-10.1-3-17.8,7.6-16,17.6
				L54.5,51.5z"/>
			
				<linearGradient id="SVGID_18_" gradientUnits="userSpaceOnUse" x1="-69.6044" y1="61.3801" x2="-69.6044" y2="35.8488" gradientTransform="matrix(-1 0 0 1 -27.2367 0)">
				<stop  offset="0" style="stop-color:#FFFFFF"/>
				<stop  offset="0.9829" style="stop-color:#FBC9CE"/>
			</linearGradient>
			<path fill-rule="evenodd" clip-rule="evenodd" fill="url(#SVGID_18_)" d="M53.5,56.5c-1.8,6.1-13.5,6.3-20.2,1.3
				c-6.7-5.1-1.9-20,7.7-21.8C50.7,34.3,57.2,43.9,53.5,56.5z"/>
			
				<radialGradient id="SVGID_19_" cx="-65.3516" cy="41.993" r="6.9012" gradientTransform="matrix(-1.111 0 0 1.1402 -27.4785 6.6249)" gradientUnits="userSpaceOnUse">
				<stop  offset="1.711450e-002" style="stop-color:#FFC710"/>
				<stop  offset="0.7682" style="stop-color:#FF7700"/>
				<stop  offset="1" style="stop-color:#AE4B00"/>
			</radialGradient>
			<ellipse fill-rule="evenodd" clip-rule="evenodd" fill="url(#SVGID_19_)" cx="45.7" cy="50.2" rx="7.7" ry="7.9"/>
			<ellipse fill-rule="evenodd" clip-rule="evenodd" fill="#75272C" cx="45.7" cy="50.2" rx="5.2" ry="5.3"/>
			<circle fill-rule="evenodd" clip-rule="evenodd" fill="#FFFFFF" cx="38.7" cy="46.9" r="1.3"/>
			<path fill-rule="evenodd" clip-rule="evenodd" fill="#FFFFFF" d="M37.4,58.1l5-5.8l5,1l1.2,6.8C48.6,60,40.5,62.4,37.4,58.1z"/>
			<path fill-rule="evenodd" clip-rule="evenodd" fill="#BD4C3A" d="M53.4,56.9c0,0-0.8,5.6-11.3,4.7s-11.5-7.9-11.5-7.9
				s0.7,5.8,12.1,7.4C50.6,62.2,53.4,56.9,53.4,56.9z"/>
		</g>
		<path fill-rule="evenodd" clip-rule="evenodd" fill="#FF9F30" d="M52.9,63.6l3.5-4.9c0,0,7.6-3.7,16.8-0.6l4.7,5.3
			C77.9,63.3,64.2,65.7,52.9,63.6z"/>
		<path fill-rule="evenodd" clip-rule="evenodd" fill="#75272C" d="M52.9,63.6c0,0,13.3,1.2,24.9-0.3C77.9,63.3,63.2,66.1,52.9,63.6
			z"/>
		<linearGradient id="SVGID_20_" gradientUnits="userSpaceOnUse" x1="12.6399" y1="65.3161" x2="12.6399" y2="62.356">
			<stop  offset="1.711450e-002" style="stop-color:#E08893"/>
			<stop  offset="1" style="stop-color:#FFF2EF"/>
		</linearGradient>
		<path opacity="0.6" fill-rule="evenodd" clip-rule="evenodd" fill="url(#SVGID_20_)" d="M12.1,62.4c1.1,0.6,2.3,1.4,3.5,2.5
			l-5.9,0.5C9.7,65.3,10.6,64.3,12.1,62.4z"/>
		<linearGradient id="SVGID_21_" gradientUnits="userSpaceOnUse" x1="63.1954" y1="88.0562" x2="63.1954" y2="63.3153">
			<stop  offset="1.711450e-002" style="stop-color:#E08893"/>
			<stop  offset="1" style="stop-color:#FFF2EF"/>
		</linearGradient>
		<path opacity="0.6" fill-rule="evenodd" clip-rule="evenodd" fill="url(#SVGID_21_)" d="M110.8,63.3c-5.4,6.1-18.6,17.2-35.3,18.7
			c0,0-4.9,4.5-10.9,6.1l0.4-1c0,0-4.6-1.3-8.7-4.1c-0.4,0-27.9-0.1-40.8-18.1c20.2,17.1,41.2,14.8,41.2,14.8s2.3,4.1,8.3,4.5
			c6.1,0.4,10.1-4.9,10.1-4.9C94.6,78.7,110.8,63.3,110.8,63.3L110.8,63.3z"/>
		<path fill-rule="evenodd" clip-rule="evenodd" fill="#9D3D3A" d="M57.9,3.7c0,0,6.3,9.1,6.1,31.2c0,0,1.6-14.4,5.8-30.2l-3.4-0.7
			l3.7-1.8C70.1,2.1,63,2.1,57.9,3.7z"/>
		<path fill-rule="evenodd" clip-rule="evenodd" fill="#9D3D3A" d="M75.4,6.1c0,0-4.9,11-5.6,22.1c0,0,6.4-14.8,17.2-17.5
			C87,10.8,80.3,7.1,75.4,6.1z"/>
		<path fill-rule="evenodd" clip-rule="evenodd" fill="#9D3D3A" d="M45.5,8.2c0,0,8.8,3.9,12.5,15.4c0,0-0.2-10.5-3.4-19
			C54.6,4.6,49.5,6.1,45.5,8.2z"/>
		<path fill-rule="evenodd" clip-rule="evenodd" fill="#9D3D3A" d="M111.8,51.9c0,0-0.4,5-8,9.5c-7.6,4.5-19.6,4.9-19.6,4.9
			s21.2,4,29.8-7l5.3,1.2L111.8,51.9z"/>
		<path fill-rule="evenodd" clip-rule="evenodd" fill="#9D3D3A" d="M106,40.3c0,0,4,12.9-5.3,19.1c0,0,9.2-2.6,9.8-9.5
			C110.5,49.8,106.9,42.6,106,40.3z"/>
		<path fill-rule="evenodd" clip-rule="evenodd" fill="#9D3D3A" d="M17.6,53.7c0,0-0.7,7.8,7.6,11.6c8.3,3.8,20.3,1.8,20.3,1.8
			s-16.7,7.2-29.9-2.3l-5.9,0.5L17.6,53.7z"/>
		<path fill-rule="evenodd" clip-rule="evenodd" fill="#9D3D3A" d="M21.8,44.9c0,0-1.2,8.1,2.2,12c3.4,3.8,11.7,5.1,11.7,5.1
			s-7.8,1.5-13.3-1.2c-5.5-2.7-3.9-8.4-3.9-8.4S21.1,46.6,21.8,44.9z"/>
		<path fill-rule="evenodd" clip-rule="evenodd" fill="#FFC763" d="M42.1,14.1c-1.1,3.6,16.6,7.4,28.7,6.6c12.1-0.8,17-5.5,17.7-6.6
			c0.7-1.2-6.9-7.2-23.2-8.9C49,3.5,42.6,12.6,42.1,14.1z"/>
		<path fill-rule="evenodd" clip-rule="evenodd" fill="#75272C" d="M63.3,69.3c0,0-2.8-4.6-9.3-3C54,66.3,59.4,65.4,63.3,69.3z"/>
		<path fill-rule="evenodd" clip-rule="evenodd" fill="#75272C" d="M67.4,69.3c0,0,3.7-4.4,9.3-3C76.7,66.3,71.9,65.6,67.4,69.3z"/>
		<path fill-rule="evenodd" clip-rule="evenodd" fill="#FFFFFF" d="M54.6,63.7c0,0,0.9-0.5,2.5-0.6s2.3,1.2,2.3,1.2
			S55.7,65.1,54.6,63.7z"/>
		<path fill-rule="evenodd" clip-rule="evenodd" fill="#FFFFFF" d="M66.8,68.7c0,0,0.9-3.1,2.6-3.9c1.7-0.7,7.3-1,7.3-1L76,65.7
			c0,0-5.4-0.6-8.6,3.1L66.8,68.7z"/>
		<path fill-rule="evenodd" clip-rule="evenodd" fill="#75272C" d="M52.8,70.3c0,0,3.2,2.2,5.2,3c2,0.8,4.2-0.2,7.2-0.4
			c3-0.2,6.1,0.7,8.2,0.7c2.1,0.1,5.7-3.7,5.7-3.7l0.3,0.4c-3.1,2.3-6.8,6.9-7.7,7.9c-2.3,2.3-9,1.4-10.9,0.3
			c-1.9-1.1-4-5.8-8.3-7.6L52.8,70.3z"/>
		<path fill-rule="evenodd" clip-rule="evenodd" fill="#F5F5F5" d="M59.4,74.4c0,0,8.8-1.6,13.7,0.2c0,0-1.3,2.7-3.3,3.4
			c-2,0.8-7.5,0.3-8.6-0.3C60.1,77.1,59.4,74.4,59.4,74.4z"/>
		<radialGradient id="SVGID_22_" cx="66.0409" cy="75.9959" r="4.2328" gradientUnits="userSpaceOnUse">
			<stop  offset="1.711450e-002" style="stop-color:#9A4327"/>
			<stop  offset="0.9469" style="stop-color:#8B3B30"/>
		</radialGradient>
		<path fill-rule="evenodd" clip-rule="evenodd" fill="url(#SVGID_22_)" d="M60.1,76.3c0,0,1.8-1.1,2.3-1.2c0.5-0.1,6.8,0,7.4,0.1
			c0.5,0.1,2.1,1.1,2.1,1.1l-0.5,0.6c0,0-0.9-1.4-1.7-1.5c-0.8-0.2-6.7-0.1-7.1-0.1c-0.4,0.1-2.2,1.6-2.2,1.6S60.3,76.7,60.1,76.3z"
			/>
		<path fill-rule="evenodd" clip-rule="evenodd" fill="#BD4C3A" d="M77.9,69.3c0,0,2,1.1,2.2,2.9c0,0,0.6-1.6,0-2.4
			C79.5,68.9,77.9,69.3,77.9,69.3z"/>
		<path fill-rule="evenodd" clip-rule="evenodd" fill="#BD4C3A" d="M53.9,68.8c0,0-1.9,2.4-1.9,3.7C52,72.6,50.4,69,53.9,68.8z"/>
	</g>
	<radialGradient id="SVGID_23_" cx="110.9792" cy="76.5487" r="9.8809" gradientUnits="userSpaceOnUse">
		<stop  offset="1.711450e-002" style="stop-color:#FF8E27"/>
		<stop  offset="1" style="stop-color:#FF6543"/>
	</radialGradient>
	<path fill-rule="evenodd" clip-rule="evenodd" fill="url(#SVGID_23_)" d="M118.2,88.9c-8.1,4.7-16.4-0.9-17-3
		c-0.2-0.7-0.1-1.9,0.1-3.4c0.6-3.3,2-7.7,3.8-8.7c8.2-4.8,14.2,0.5,14.2,0.5C122.2,79.7,118.2,88.9,118.2,88.9z"/>
	<radialGradient id="SVGID_24_" cx="6.0592" cy="98.8134" r="8.5664" gradientUnits="userSpaceOnUse">
		<stop  offset="1.711450e-002" style="stop-color:#FF8E27"/>
		<stop  offset="1" style="stop-color:#FF6543"/>
	</radialGradient>
	<path fill-rule="evenodd" clip-rule="evenodd" fill="url(#SVGID_24_)" d="M11.4,107.6H11c0,0,0.3,2.9-0.7,4.5c0,0-3.3,1.1-7.3-1
		c-2.5-1.3-4.1-7.3-2.3-12.8c0.4-1.2,2.9-2.7,5.2-3.5C7,94.4,8,94.1,8.7,94.2c0,0,1.6,1.2,1.4,4h0.6
		C10.8,98.3,12.6,103.4,11.4,107.6z"/>
	<g>
		<radialGradient id="SVGID_25_" cx="38.0784" cy="125.3861" r="14.7634" gradientUnits="userSpaceOnUse">
			<stop  offset="1.711450e-002" style="stop-color:#FF8E27"/>
			<stop  offset="1" style="stop-color:#FF6543"/>
		</radialGradient>
		<path fill-rule="evenodd" clip-rule="evenodd" fill="url(#SVGID_25_)" d="M36.7,148.1c0,0,7.1,1.8,11-2.1c1.2-1.2,0.5-6.3,0-12.6
			c-0.5-6.3-0.4-13.4-4.3-15.3c-3.9-1.9-14.3,0.4-16,5.7C26.1,127.8,31,144.7,36.7,148.1z"/>
		<radialGradient id="SVGID_26_" cx="37.4507" cy="135.3299" r="11.7673" gradientUnits="userSpaceOnUse">
			<stop  offset="1.711450e-002" style="stop-color:#FFC772"/>
			<stop  offset="1" style="stop-color:#FFC381"/>
		</radialGradient>
		<path fill-rule="evenodd" clip-rule="evenodd" fill="url(#SVGID_26_)" d="M27.4,127.1c-0.2-1.8,13.3-6.4,16-4.6
			c2.7,1.8,5,22.6,3.8,24c-1.2,1.4-7,2.8-10.5,1.6C33.2,146.9,28.7,136.7,27.4,127.1z"/>
		<path fill-rule="evenodd" clip-rule="evenodd" fill="#FF957E" d="M34.2,138.5c-2.2-0.5,0.8-7.5,3.6-7.7c2.9-0.2,7.5,2.9,7.2,4.9
			c-0.3,1.9-4.4,1.5-6.3,1.8C36.6,137.7,35.4,138.7,34.2,138.5z"/>
		<path fill-rule="evenodd" clip-rule="evenodd" fill="#FF957E" d="M41.8,124.2c-1-0.4-2.6,3.8-0.8,5.1
			C42.8,130.5,43.7,124.9,41.8,124.2z"/>
		<path fill-rule="evenodd" clip-rule="evenodd" fill="#FF957E" d="M38.5,123.4c-0.6-0.7-2.7-0.5-3.8,1.2c-1.1,1.8,0.9,4.7,2.4,4.9
			C38.5,129.6,39.4,124.5,38.5,123.4z"/>
		<path fill-rule="evenodd" clip-rule="evenodd" fill="#FF957E" d="M32.5,125.5c-0.6-0.3-2.2,0.5-2.7,1.3c-0.5,0.8,2,3.8,3.4,3.9
			C34.4,130.9,33.5,126,32.5,125.5z"/>
		<path fill-rule="evenodd" clip-rule="evenodd" fill="#FF957E" d="M29.7,131.9c-0.4,0.4,1,2.9,2,2.7c1.1-0.2,1.7-1.9,1.1-2.7
			C32.2,131.1,30.3,131.4,29.7,131.9z"/>
		<path fill-rule="evenodd" clip-rule="evenodd" fill="#BD4C3A" d="M40.3,117.5c0,0-0.7,3.7-0.5,5.9C39.8,123.4,38.3,120,40.3,117.5
			z"/>
		<path fill-rule="evenodd" clip-rule="evenodd" fill="#BD4C3A" d="M33.4,125.2c0,0-1.5-2.8-1-6C32.4,119.2,30.5,123.8,33.4,125.2z"
			/>
	</g>
	<g>
		
			<radialGradient id="SVGID_27_" cx="413.7238" cy="125.3861" r="14.7634" gradientTransform="matrix(-1 0 0 1 506.8018 0)" gradientUnits="userSpaceOnUse">
			<stop  offset="1.711450e-002" style="stop-color:#FF8E27"/>
			<stop  offset="1" style="stop-color:#FF6543"/>
		</radialGradient>
		<path fill-rule="evenodd" clip-rule="evenodd" fill="url(#SVGID_27_)" d="M94.4,148.1c0,0-7.1,1.8-11-2.1c-1.2-1.2-0.5-6.3,0-12.6
			c0.5-6.3,0.4-13.4,4.3-15.3c3.9-1.9,14.3,0.4,16,5.7C105,127.8,100.1,144.7,94.4,148.1z"/>
		
			<radialGradient id="SVGID_28_" cx="413.096" cy="135.3299" r="11.7673" gradientTransform="matrix(-1 0 0 1 506.8018 0)" gradientUnits="userSpaceOnUse">
			<stop  offset="1.711450e-002" style="stop-color:#FFC772"/>
			<stop  offset="1" style="stop-color:#FFC381"/>
		</radialGradient>
		<path fill-rule="evenodd" clip-rule="evenodd" fill="url(#SVGID_28_)" d="M103.8,127.1c0.2-1.8-13.3-6.4-16-4.6
			c-2.7,1.8-5,22.6-3.8,24c1.2,1.4,7,2.8,10.5,1.6C97.9,146.9,102.5,136.7,103.8,127.1z"/>
		<path fill-rule="evenodd" clip-rule="evenodd" fill="#FF957E" d="M97,138.5c2.2-0.5-0.8-7.5-3.6-7.7c-2.9-0.2-7.5,2.9-7.2,4.9
			c0.3,1.9,4.4,1.5,6.3,1.8C94.5,137.7,95.8,138.7,97,138.5z"/>
		<path fill-rule="evenodd" clip-rule="evenodd" fill="#FF957E" d="M89.3,124.2c1-0.4,2.6,3.8,0.8,5.1
			C88.3,130.5,87.4,124.9,89.3,124.2z"/>
		<path fill-rule="evenodd" clip-rule="evenodd" fill="#FF957E" d="M92.7,123.4c0.6-0.7,2.7-0.5,3.8,1.2c1.1,1.8-0.9,4.7-2.4,4.9
			C92.6,129.6,91.7,124.5,92.7,123.4z"/>
		<path fill-rule="evenodd" clip-rule="evenodd" fill="#FF957E" d="M98.7,125.5c0.6-0.3,2.2,0.5,2.7,1.3c0.5,0.8-2,3.8-3.4,3.9
			C96.7,130.9,97.6,126,98.7,125.5z"/>
		<path fill-rule="evenodd" clip-rule="evenodd" fill="#FF957E" d="M101.5,131.9c0.4,0.4-1,2.9-2,2.7c-1.1-0.2-1.7-1.9-1.1-2.7
			C98.9,131.1,100.9,131.4,101.5,131.9z"/>
		<path fill-rule="evenodd" clip-rule="evenodd" fill="#BD4C3A" d="M90.8,117.5c0,0,0.7,3.7,0.5,5.9C91.4,123.4,92.8,120,90.8,117.5
			z"/>
		<path fill-rule="evenodd" clip-rule="evenodd" fill="#BD4C3A" d="M97.8,125.2c0,0,1.5-2.8,1-6C98.8,119.2,100.6,123.8,97.8,125.2z
			"/>
	</g>
	<linearGradient id="SVGID_29_" gradientUnits="userSpaceOnUse" x1="110.7167" y1="90.702" x2="110.7167" y2="74.2809">
		<stop  offset="1.711450e-002" style="stop-color:#AC6393"/>
		<stop  offset="1" style="stop-color:#FFF2EF"/>
	</linearGradient>
	<path opacity="0.6" fill-rule="evenodd" clip-rule="evenodd" fill="url(#SVGID_29_)" d="M118.2,88.9c-8.1,4.7-16.4-0.9-17-3
		c-0.2-0.7-0.1-1.9,0.1-3.4c0,0,4.3,4.6,15.8,3.1c0,0,4-4.1,2.2-11.3C122.2,79.7,118.2,88.9,118.2,88.9z"/>
	<linearGradient id="SVGID_30_" gradientUnits="userSpaceOnUse" x1="5.8985" y1="112.365" x2="5.8985" y2="94.2041">
		<stop  offset="1.711450e-002" style="stop-color:#E08893"/>
		<stop  offset="1" style="stop-color:#FFF2EF"/>
	</linearGradient>
	<path opacity="0.6" fill-rule="evenodd" clip-rule="evenodd" fill="url(#SVGID_30_)" d="M11.4,107.6H11c0,0,0.3,2.9-0.7,4.5
		c0,0-3.3,1.1-7.3-1c-2.5-1.3-4.1-7.3-2.3-12.8c0,0-1.2,7.5,1.8,10.6l4.7,0.7c0,0,1.2-11.5-1.3-14.8C7,94.4,8,94.1,8.7,94.2
		c0,0,1.6,1.2,1.4,4h0.6C10.8,98.3,12.6,103.4,11.4,107.6z"/>
	<path fill-rule="evenodd" clip-rule="evenodd" fill="#B14C3A" d="M104.2,88.7c0,0-0.2-3.1,0-4.4c0.2-1.3,1.4-3.4,1.4-3.4
		s-0.8,1.9-1,4.1C104.4,87.2,104.2,88.7,104.2,88.7z"/>
	<path fill-rule="evenodd" clip-rule="evenodd" fill="#B14C3A" d="M113.2,90.6c0,0,1.1-2.4,1.6-4.8c0.5-2.4,0.5-3.7,0.5-3.7
		s0.4,1.6,0.3,3.6c-0.1,2-2,4.8-2,4.8L113.2,90.6z"/>
	<path fill-rule="evenodd" clip-rule="evenodd" fill="#B14C3A" d="M10.2,98.3c0,0-3.8-0.4-7.3,1.5c0,0,3.1-2.7,7.3-2.1V98.3z"/>
	<path fill-rule="evenodd" clip-rule="evenodd" fill="#B14C3A" d="M11,107.6c0,0-2,0.9-6.8,1c0,0,4.3,0.7,6.8,0V107.6z"/>
	
		<linearGradient id="SVGID_31_" gradientUnits="userSpaceOnUse" x1="45.918" y1="124.5491" x2="45.918" y2="98.2429" gradientTransform="matrix(-1 0 0 1 113.2875 0)">
		<stop  offset="5.586590e-003" style="stop-color:#FF3B00"/>
		<stop  offset="1" style="stop-color:#E50153"/>
	</linearGradient>
	<path opacity="0.61" fill-rule="evenodd" clip-rule="evenodd" fill="url(#SVGID_31_)" d="M67.7,106.3c0,0-7.1-11.4-12-7.1
		c-8.2,7,2.1,22.1,11.5,25.4c0,0,18.1-8.6,14.1-22.4C79.1,94.3,67.7,106.3,67.7,106.3z"/>
</g>
</svg>
