<?xml version="1.0" encoding="utf-8"?>
<!-- Generator: Adobe Illustrator 17.1.0, SVG Export Plug-In . SVG Version: 6.00 Build 0)  -->
<!DOCTYPE svg PUBLIC "-//W3C//DTD SVG 1.1//EN" "http://www.w3.org/Graphics/SVG/1.1/DTD/svg11.dtd">
<svg version="1.1" id="Layer_1" xmlns="http://www.w3.org/2000/svg" xmlns:xlink="http://www.w3.org/1999/xlink" x="0px" y="0px"
	 width="147.6px" height="159.4px" viewBox="0 0 147.6 159.4" enable-background="new 0 0 147.6 159.4" xml:space="preserve">
<g>
	<g>
		<radialGradient id="SVGID_1_" cx="76.7149" cy="100.1809" r="138.5283" gradientUnits="userSpaceOnUse">
			<stop  offset="0" style="stop-color:#F47C32"/>
			<stop  offset="0.2701" style="stop-color:#F26B39"/>
			<stop  offset="0.5485" style="stop-color:#F15B3F"/>
			<stop  offset="0.6554" style="stop-color:#E6573D"/>
			<stop  offset="0.7938" style="stop-color:#D34D3A"/>
			<stop  offset="0.949" style="stop-color:#B63F35"/>
			<stop  offset="1" style="stop-color:#AC3A33"/>
		</radialGradient>
		<path fill="url(#SVGID_1_)" d="M30.1,159.4h54.6c0,0,0,0,0-0.1c-1.5-8.7-2.1-20.3,0.5-36.6l1.1-9.5l-4.1-18.7
			c-6.9,1-13.9,1.1-20.8,0.3c-10.6-1.3-21.1-4.6-30.8-9.5l-9.9,13c-2.8,11.3-4.7,25-3.7,33.8C17.6,138.7,23.7,149.6,30.1,159.4z"/>
		<path fill="#FED09D" d="M16.2,137.1c1.6,3.4,3.2,6.7,4.8,10.1c-0.1-1.2-0.2-2.5-0.3-3.7c3.3,7.4,6.1,12.2,8.6,16h41.4
			c-0.2-1.4-0.4-2.7-0.4-4.1c-0.7-20.8,4.5-19.6,8.9-28.7c0.2-0.5-1.3-14.3-2.5-15c-13.2-7.4-26.4-14.7-39.6-22.1
			c-1.5-0.8-3-1.6-4.6-1.9c-1.5-0.2-2.9,0.1-4.3,0.7l-7.5,10c-1,3.9-1.8,8.2-2.5,12.4c-3,7.9-4.4,17-3.6,30.3
			C15.1,139.7,15.6,138.4,16.2,137.1z"/>
		<linearGradient id="SVGID_2_" gradientUnits="userSpaceOnUse" x1="32.1785" y1="2.2492" x2="41.5836" y2="27.4722">
			<stop  offset="0" style="stop-color:#76262D"/>
			<stop  offset="0.1743" style="stop-color:#7B2A2E"/>
			<stop  offset="0.4001" style="stop-color:#893530"/>
			<stop  offset="0.6542" style="stop-color:#A24631"/>
			<stop  offset="0.927" style="stop-color:#C76030"/>
			<stop  offset="1" style="stop-color:#D4682E"/>
		</linearGradient>
		<path fill="url(#SVGID_2_)" d="M55.9,16.7C55.1,12,52.5,7.2,48.3,4c-5.3-4.1-13-5.1-18.9-2.7c-5.9,2.4-9.8,8.1-9.8,14.2
			c0,3.3,1,6.6,2.8,9.6c3,4.8,8.2,8.4,13.9,9.7c5.2,1.2,12.9,0.5,16.8-2.8C56.9,28.6,56.8,21.3,55.9,16.7z"/>
		
			<radialGradient id="SVGID_3_" cx="103.6797" cy="19.0963" r="14.7118" gradientTransform="matrix(0.8987 1.000000e-004 1.000000e-004 0.8967 -59.7904 3.8457)" gradientUnits="userSpaceOnUse">
			<stop  offset="0" style="stop-color:#FED4A8"/>
			<stop  offset="6.104374e-003" style="stop-color:#FED4A7"/>
			<stop  offset="0.9516" style="stop-color:#FCB96E"/>
		</radialGradient>
		<path fill="url(#SVGID_3_)" d="M42.5,16.5c-1.8-4.1-5-7.8-9.2-9.4c-1.5-0.6-3.2-0.9-4.8-0.9c-3.9,2.5-6.4,6.9-6.4,11.4
			c0,2.9,0.9,5.9,2.5,8.6c2.7,4.3,7.3,8.4,12.5,9.6c1.4,0.3,3.1-0.3,4.8-0.3C45.8,30.1,45.4,23.2,42.5,16.5z"/>
		<path fill="#FED7AC" d="M45.3,31.8c-0.2-0.5,0.9-6.3,1-6.4c-3.6-8.7-11.5-8.9-12.4-9.4c1.7,1.6,3.2,4.1,4,6.6
			c-6.1-4.3-12.5-3.2-18.8-2.5c5.7,2,9.7,4.5,12.8,8.7c-6.1-1.7-8.1-0.7-11.4,2.4c3.9-0.1,10.1,4.3,12,5.7
			c4.2-1.5,12.5,0.2,13.9-0.3C46.5,35.2,45.5,32.8,45.3,31.8z"/>
		<linearGradient id="SVGID_4_" gradientUnits="userSpaceOnUse" x1="89.0804" y1="26.3601" x2="70.536" y2="68.0851">
			<stop  offset="6.052820e-002" style="stop-color:#F7912F"/>
			<stop  offset="0.267" style="stop-color:#F78D31"/>
			<stop  offset="0.5344" style="stop-color:#F58136"/>
			<stop  offset="0.834" style="stop-color:#F36E3D"/>
			<stop  offset="0.9949" style="stop-color:#F16040"/>
		</linearGradient>
		<path fill="url(#SVGID_4_)" d="M16.8,65.4c7.4,8.2,17,14.8,25.9,20.1C57,94.2,73,98.2,89.4,101.1c6.8,1.2,13.6,2.2,20.5,3
			c3.1-3.1,5.9-7,8.5-11.8c8.6-15.9,6.8-36.8-2.7-52c-4.2-6.6-15.2-14-20.8-19.3c-5.8-5.5-7.4-8.5-7.4-11.6
			c-1.1,1.4-2.2,2.7-3.3,4.1c0.2-1.8,0.2-4.1-1-6.6c-0.4,5-4.9,8.7-9.6,10c-4.7,1.3-9.6,0.9-14.4,1.3C48.6,19.2,38.4,24,30.9,31.8
			S18.9,50,18.1,60.7L16.8,65.4z"/>
		<path fill="#9D3E3A" d="M123.6,74.7l-2.3-4.6c0,0-6.9,0-16.3,6c5.9-0.7,14.3,0.8,18.2,1.6C123.4,76.7,123.5,75.7,123.6,74.7z"/>
		<path fill="#9D3E3A" d="M97.9,81.5c5.8,8.8,13.9,11.1,20.3,11.2c0.1-0.1,0.1-0.2,0.2-0.4c1.7-3.2,3-6.6,3.9-10.1
			C117.6,80.5,107.2,77.7,97.9,81.5z"/>
		<path fill="#FAAD7B" d="M32.1,58.5c-1.6-22.2,4.5-33.2,15.5-31C60.5,30,60.5,49.9,57.9,64.2C55.3,78.5,32.1,58.5,32.1,58.5z"/>
		<path fill="#9D3E3A" d="M32.4,57.3c-0.8-10.8,0.3-18.8,2.9-24.1c-0.8-1.6-1.5-2.9-2.1-3.7c-0.8,0.7-1.5,1.4-2.3,2.2
			c-7.4,7.7-12.1,18.2-12.8,29l-1.3,4.7c1.9,2.1,3.9,4.1,6,6c6.8-1.8,12.9-5,16.3-8.9C35.3,59.9,32.4,57.3,32.4,57.3z"/>
		<path fill="#76262D" d="M34.7,56.9c-1.3-19.5,1.7-26.4,12-25.2c12.4,1.5,12,17.8,9.8,29.9C54.3,73.7,34.7,56.9,34.7,56.9z"/>
		<path fill="#FCDFE2" d="M36.3,57.7C35,39.3,39.2,32.2,48.4,33.8C59.5,35.7,59,50.2,56.8,62C54.6,73.8,36.3,57.7,36.3,57.7z"/>
		<path fill="#FFFFFF" d="M50.3,37.1c-8.7-1.5-12.8,5.2-11.7,22.4c5,3.9,16.5,11.6,18.2,2.4c1.3-7.1,2-15.3-0.1-21
			C55.3,39,53.2,37.6,50.3,37.1z"/>
		<path fill="#FAAD7B" d="M95.6,83.7c16.8-13.1,17.2-29.5,7.1-34c-12.7-5.8-24.1,9.7-31,22.7S95.6,83.7,95.6,83.7z"/>
		<path fill="#76262D" d="M94,80.5c7.6-5.8,12.3-13,12.5-17.9c0.2-3.8-2.6-6.7-6.2-8.5c-11.1-5.6-20.5,7.1-26.2,17.9
			S94,80.5,94,80.5z"/>
		<path fill="#FCDFE2" d="M92.2,80.5c13.9-10.7,13.7-21.8,5.5-25.6c-11-5.2-18.6,6.7-24.1,17.3C68.2,82.7,92.2,80.5,92.2,80.5z"/>
		<path fill="#FFFFFF" d="M89.3,79.6c12.5-9.3,12-19.5,4.2-23.3c-2.4-1.2-4.6-1.3-6.6-1c-5.5,3.1-9.8,10.3-13.3,17
			c-1.2,2.3-1,4,0.1,5.2C78.7,80.1,89.3,79.6,89.3,79.6z"/>
		
			<linearGradient id="SVGID_5_" gradientUnits="userSpaceOnUse" x1="144.4967" y1="44.9947" x2="115.3734" y2="50.2579" gradientTransform="matrix(0.9995 3.120000e-002 -3.120000e-002 0.9995 2.7478 15.0385)">
			<stop  offset="0" style="stop-color:#76262D"/>
			<stop  offset="0.1743" style="stop-color:#7B2A2E"/>
			<stop  offset="0.4001" style="stop-color:#893530"/>
			<stop  offset="0.6542" style="stop-color:#A24631"/>
			<stop  offset="0.927" style="stop-color:#C76030"/>
			<stop  offset="1" style="stop-color:#D4682E"/>
		</linearGradient>
		<path fill="url(#SVGID_5_)" d="M115,56.8c3.5-6.2,17.7-9.7,24.4-5.2c6.8,4.6,9.9,15.1,7.1,23.6c-0.7,2.2-1.8,4.3-3.4,5.7
			c-2.1,1.8-4.9,2.3-7.5,1.9c-2.6-0.4-5.1-1.5-7.5-2.5c-2.1-0.9-4.7-2.4-7.1-4.2C121,76.1,113.6,59.4,115,56.8z"/>
		<linearGradient id="SVGID_6_" gradientUnits="userSpaceOnUse" x1="48.6786" y1="131.9494" x2="51.834" y2="107.4081">
			<stop  offset="1.106950e-003" style="stop-color:#FFFFFF"/>
			<stop  offset="9.838004e-002" style="stop-color:#F7E4D9"/>
			<stop  offset="0.4327" style="stop-color:#E3A07F"/>
			<stop  offset="0.7035" style="stop-color:#D7754A"/>
			<stop  offset="0.8973" style="stop-color:#D15A2E"/>
			<stop  offset="0.9954" style="stop-color:#CE4F27"/>
		</linearGradient>
		<path opacity="0.54" fill="url(#SVGID_6_)" d="M16.7,126.8c7.9-8.8,35.6-11,66.7-10.1c4.1-9.2-5.4-4.4-6.7-5.1
			c-13.2-7.4-26.4-14.7-39.6-22.1c-1.5-0.8-3-1.6-4.6-1.9c-1.5-0.2-2.9,0.1-4.3,0.7l-8.7,14.9C17.9,111.2,16.7,119.8,16.7,126.8z"/>
		<g>
			<linearGradient id="SVGID_7_" gradientUnits="userSpaceOnUse" x1="45.3237" y1="60.0913" x2="52.7656" y2="50.8303">
				<stop  offset="0" style="stop-color:#FBA819"/>
				<stop  offset="0.9894" style="stop-color:#AD1F23"/>
			</linearGradient>
			<circle fill="url(#SVGID_7_)" cx="49.6" cy="54.8" r="7.7"/>
			<circle fill="#76262D" cx="49.6" cy="54.8" r="5.4"/>
			<path opacity="0.35" fill="#FFFFFF" d="M56.6,58c-1.6-2.2-4.2-3.2-6.1-2.2c-2,1.1-2.6,4-1.5,6.7c0.2,0,0.4,0,0.6,0
				C52.7,62.5,55.4,60.7,56.6,58z"/>
		</g>
		<g>
			<linearGradient id="SVGID_8_" gradientUnits="userSpaceOnUse" x1="80.1192" y1="76.7934" x2="87.5835" y2="67.5044">
				<stop  offset="0" style="stop-color:#FBA819"/>
				<stop  offset="0.9894" style="stop-color:#AD1F23"/>
			</linearGradient>
			<path fill="url(#SVGID_8_)" d="M92.1,71.5c0,4.3-3.4,7.7-7.7,7.7c-4.3,0-7.8-3.4-7.8-7.6c0-1.2,0.4-2.5,0.9-3.5
				c1.3-2.5,3.9-4.2,6.9-4.2C88.6,63.8,92.1,67.2,92.1,71.5z"/>
			<circle fill="#76262D" cx="84.4" cy="71.5" r="5.4"/>
			<path opacity="0.35" fill="#FFFFFF" d="M91.4,74.7c-1.6-2.2-4.2-3.2-6.1-2.2c-2,1.1-2.6,4-1.5,6.7c0.2,0,0.4,0,0.6,0
				C87.5,79.2,90.2,77.3,91.4,74.7z"/>
		</g>
		<linearGradient id="SVGID_9_" gradientUnits="userSpaceOnUse" x1="72.3549" y1="64.6969" x2="54.1671" y2="101.7858">
			<stop  offset="7.073060e-002" style="stop-color:#FFEBD7"/>
			<stop  offset="0.2978" style="stop-color:#FFE0BF"/>
			<stop  offset="0.5493" style="stop-color:#FED7AC"/>
			<stop  offset="0.7885" style="stop-color:#FED2A0"/>
			<stop  offset="1" style="stop-color:#FED09D"/>
		</linearGradient>
		<path fill="url(#SVGID_9_)" d="M119.3,90.6c-0.2-1.1-4-0.5-4.4-1.4c-3.9-1.7-5.1-5.5-14.9-8.6C83.3,75.4,61.1,70,61.1,70
			c-11-9.6-32.6-22.1-38.7-25c-2,4.7-3.9,10.6-4.3,15.7c0,0-6.2-0.4,0,17.6c1,2.8,7.7,11.9,15.7,19.8c5.4,4,11.2,8,14.6,10.4
			c8,2.8,22.6,5.3,32.7,6c17.6,0.1,28.7-6.2,37.3-22.2C118.7,91.8,119,91.2,119.3,90.6z"/>
		<path fill="#EA9768" d="M99.8,80.4c-8.2-2.6-18.1-5.5-25.3-7c-0.2,0.5-0.3,1.1-0.4,1.7c32.7,6.6,36,11.2,36,11.2l0.1-0.4
			C108.2,84.3,105.4,82.2,99.8,80.4z"/>
		<g>
			<path fill="#EA9768" d="M36.5,53.6c-4.1-2.3-6.8-3.3-9.7-4.4c-0.7-0.3-1.4-0.5-1.9-0.7c-0.6-0.2-1.1-0.3-1.5-0.5
				c-0.8-0.3-1.3-0.4-1.2-0.5c0,0,0.5,0,1.3,0.2c0.4,0.1,0.9,0.2,1.5,0.4c0.6,0.2,1.2,0.4,2,0.6c2.9,1,6.1,1.7,10.2,3.9
				c8,4.4,14.1,9.7,14.7,10.3c0.7,0.5-0.4,0.8-0.5,0.9C51.1,63.4,47.6,60.1,36.5,53.6z"/>
		</g>
		<path opacity="0.25" fill="#E0906E" d="M65.4,101.4C61,99.8,52,102.7,52,102.7s-3.6-6.2-9-11.6c-8.7-3.5-17.7-12.9-17.5-22.9
			l-9.6,2.2c0.4,2.1,1.1,4.8,2.2,8c1,2.8,7.1,12,14.3,19.4c5,4,13,9.2,16.2,10.9c3.2,1,19.8,4.7,32.4,5.9c10.9,0,19.3-2.5,26.2-8.1
			c0.1-2.5-2.4-8.7-2.3-11.3C97.4,103.7,79.9,106.6,65.4,101.4z"/>
		<path fill="#F99E32" d="M51.2,63.1c-0.9-0.2,7.2-6.5,10.8-5.8c3.6,0.7,11.1,3.9,12.9,6.8c1.1,1.8,2,6.7,2,9.2
			c0,1.7-0.4,1.7-1.1,1.1C74,72.8,62.6,66.1,51.2,63.1z"/>
		<path opacity="0.3" fill="#FFFFFF" d="M58.7,65.5c1.5-4.4,4.2-6.8,5.5-7.7c-0.8-0.3-1.6-0.4-2.2-0.6c-3.6-0.7-11.7,5.6-10.8,5.8
			C53.7,63.8,56.3,64.6,58.7,65.5C58.7,65.5,58.7,65.5,58.7,65.5z"/>
		<path fill="#76262D" d="M60.4,64.4c-1.2-0.4-6.4-2.3-8.8-1.8c-1,0.2-1,2.2,0.1,2.9c9.6,3.8,8.2,5.2,7.8,7.3
			c0.9,0.4,1.9,0.9,2.8,1.3c1.6-1.6,3.2-3.2,11.9,1.1c1.2,0.6,2.1,0.2,2.5-1.1C77.1,72.5,67.2,66.8,60.4,64.4z"/>
		<path opacity="0.16" fill="#FFFFFF" d="M74.1,75.1c1.2,0.6,2.1,0.2,2.5-1.1c0.2-0.7-2.2-2.5-5.4-4.5c-2.5,0.5-4.7,1.6-5.9,2.9
			C67,72.3,69.6,72.9,74.1,75.1z"/>
		<g>
			<path fill="#61232A" d="M60.4,64.4l0.1-0.3c-1.1-0.4-5.3-1.9-8-1.9c-0.3,0-0.7,0-1,0.1c-0.4,0.1-0.6,0.3-0.8,0.6
				c-0.2,0.3-0.2,0.6-0.2,1c0,0.7,0.3,1.5,1,1.9l0.1,0c3.4,1.4,5.4,2.4,6.6,3.3c0.6,0.4,0.9,0.8,1.1,1.1c0.2,0.3,0.3,0.6,0.3,0.9
				c0,0.5-0.2,1-0.3,1.6c0,0.2,0.1,0.3,0.2,0.4c0.9,0.4,1.9,0.9,2.8,1.3c0.1,0.1,0.3,0,0.4-0.1c0.4-0.4,0.8-0.8,1.3-1.1
				c0.5-0.3,1.1-0.5,2-0.5c1.6,0,4.1,0.7,8.2,2.7c0.4,0.2,0.8,0.3,1.2,0.3c0.4,0,0.8-0.1,1.1-0.4c0.3-0.3,0.5-0.7,0.7-1.2l0,0l0-0.2
				c0-0.4-0.2-0.7-0.5-1c-0.5-0.6-1.4-1.3-2.5-2c-3.4-2.3-9.1-5.2-13.4-6.8L60.4,64.4l-0.1,0.3c3.3,1.2,7.3,3.2,10.6,5
				c1.6,0.9,3,1.8,4,2.6c0.5,0.4,0.9,0.7,1.1,1c0.3,0.3,0.4,0.5,0.3,0.5v0l0,0c-0.1,0.4-0.3,0.7-0.5,0.9C75.6,75,75.4,75,75.2,75
				c-0.2,0-0.5-0.1-0.9-0.2c-4.2-2-6.7-2.8-8.5-2.8c-1,0-1.7,0.2-2.3,0.6c-0.6,0.3-1,0.8-1.5,1.2l0.2,0.2l0.1-0.3
				c-0.9-0.4-1.9-0.9-2.8-1.3l-0.1,0.3l0.3,0.1c0.1-0.6,0.3-1.1,0.3-1.7c0-0.4-0.1-0.8-0.4-1.2c-0.4-0.6-1.1-1.3-2.3-2
				c-1.2-0.7-3-1.6-5.6-2.6l-0.1,0.3l0.2-0.3c-0.4-0.2-0.6-0.8-0.6-1.3c0-0.3,0.1-0.5,0.1-0.7c0.1-0.2,0.2-0.2,0.3-0.3
				c0.2,0,0.5-0.1,0.8-0.1c2.5,0,6.7,1.5,7.8,1.9L60.4,64.4z"/>
		</g>
		<linearGradient id="SVGID_10_" gradientUnits="userSpaceOnUse" x1="11.7615" y1="39.6366" x2="34.7809" y2="101.8188">
			<stop  offset="9.685800e-004" style="stop-color:#F7912F"/>
			<stop  offset="0.1209" style="stop-color:#F58235"/>
			<stop  offset="0.3063" style="stop-color:#F36E3B"/>
			<stop  offset="0.4707" style="stop-color:#F1603E"/>
			<stop  offset="0.5961" style="stop-color:#F15B3F"/>
			<stop  offset="0.6822" style="stop-color:#E5563D"/>
			<stop  offset="0.7936" style="stop-color:#CE4C3B"/>
			<stop  offset="0.9185" style="stop-color:#AD3C35"/>
			<stop  offset="1" style="stop-color:#943031"/>
		</linearGradient>
		<path fill="url(#SVGID_10_)" d="M18.8,109.3c2.5-7.4,6-12.1,9.7-16.5c-0.3-12.8,0.2-28.1,4.8-36.5c1.2-2.3,4.1-3,5-3.7
			c0.4-0.3,1.5-7.2-0.7-8.6c-1.8-1.2-2.9-1.5-3.7-1.4c-0.3,0-0.6-0.3-0.5-0.6c0.5-1.2,0.8-2.2,0.8-3.5c0-1.8-0.5-3.3-3-4.8
			c-2.2-1.2-4.2-1.4-6.3-0.8c-1.4,0.4-2.1,1.7-2.6,2.9c-0.3,0.7-1.2,0.6-1.4,0c-0.3-0.8-0.5-1.4-1-1.9c-0.9-1-2.8-1.3-7.3-0.3
			c-3.5,0.8-4.3,2.1-4.3,3.6c0,1.1,0.3,2,0.6,2.8c0.1,0.3-0.2,0.6-0.5,0.6c-0.5-0.1-1.2-0.2-1.9-0.2c-1,0-2.3,0.3-3.8,1.3
			c-1.3,0.9-2.2,2.3-2.6,3.8c-0.5,2.3-0.4,3.1,0.2,3.6c0.8,0.4,2.6,1.7,3.8,4.2C6.6,58,6.1,59.2,6,65.5C5.8,70.9,3.5,76,3.2,81.4
			c-0.3,6.4,10.1,19.7,14.8,27.9C18.2,109.7,18.7,109.6,18.8,109.3z"/>
		<path fill="#9D3E3A" d="M18.5,110.3c1.4-4.6,3.3-8.2,5.3-11.3c-3,2.8-6.2,4.5-9.3,4.8C16.1,106.1,17.5,108.4,18.5,110.3z"/>
		<radialGradient id="SVGID_11_" cx="74.9448" cy="53.3714" r="285.3299" gradientUnits="userSpaceOnUse">
			<stop  offset="0" style="stop-color:#F26A39"/>
			<stop  offset="0.5485" style="stop-color:#F15B3F"/>
			<stop  offset="0.6447" style="stop-color:#E5563D"/>
			<stop  offset="0.7693" style="stop-color:#CE4C3B"/>
			<stop  offset="0.9089" style="stop-color:#AD3C35"/>
			<stop  offset="1" style="stop-color:#943031"/>
		</radialGradient>
		<path fill="url(#SVGID_11_)" d="M132,104c-0.8-0.4-0.9-1.3,0.4-1.9c1.9-0.8,3.3-2.8,2.1-7.5c-1.4-5.6-7.8-2.5-8.6-3.5
			c-0.6-0.8,1.3-2.5,1.1-4.3c-0.4-4.3-11.2-5.6-12.6-4.2c-0.7,0.7-0.8,1.9-1,3c-0.2,1-1.5,1.3-2.1,0.5c-1-1.3-2.2-2.9-2.9-2.8
			c-3.7,0.1-6.7,2.8-7.2,5.5c-0.3,1.2,2.2,1.3,0.3,9.9c-0.9,4.4-4,9-10.9,13c0,0-0.1,0-0.1,0c-2,1.3-4.3,2.2-6.9,2.9
			c0,0-4.5,17.8-1.3,18.3c3.7,0.5,10.9,0.9,12.6,0c2.1-1,25.8-17.8,31.1-18.6c5.2-0.8,6,0.3,6.4-0.1c1.1-1.3,2.3-5.7,1.9-7.4
			C134.1,105.9,133.1,104.6,132,104z"/>
		
			<radialGradient id="SVGID_12_" cx="272.7579" cy="39.0225" r="15.3668" gradientTransform="matrix(0.8131 3.050000e-002 -2.290000e-002 0.8777 -91.309 27.7526)" gradientUnits="userSpaceOnUse">
			<stop  offset="0" style="stop-color:#FED4A8"/>
			<stop  offset="6.104374e-003" style="stop-color:#FED4A7"/>
			<stop  offset="0.9516" style="stop-color:#FCB96E"/>
		</radialGradient>
		<path fill="url(#SVGID_12_)" d="M127.9,57.9c-3.8,0.1-9.8,3.1-11.3,4.6c-0.2,0.2-0.4,1-0.3,1.5c0.7,3.2,4.7,12.2,4.7,12.2
			c2.4,1.8,5,3.2,7.1,4.1c2.4,1.1,4.9,2.1,7.5,2.5c1.7,0.2,3.4,0.1,5-0.5c0.1-0.2,0.2-0.4,0.4-0.6c2.6-4.8,2.6-11.2-0.1-16.1
			C138.3,60.9,133.1,57.8,127.9,57.9z"/>
		<g>
			<path fill="#FFFFFF" d="M56.1,63.5c1.4,0.3,2.4,0.9,2.3,1.2c-0.1,0.3-1.2,0.2-2.6-0.1c-1.3-0.3-2.4-0.8-2.3-1.1
				C53.5,63.2,54.7,63.1,56.1,63.5z"/>
		</g>
		<circle fill="#FFFFFF" cx="46.4" cy="49.3" r="2.1"/>
		<circle fill="#FFFFFF" cx="83.9" cy="65.3" r="2.1"/>
		<path fill="#9D3E3A" d="M65.2,32.9c1.4-4.8,2-9.9,1.7-15c-2.6,0.1-5.2,0.1-7.8,0.4c-0.6,0.1-1.2,0.1-1.9,0.2
			c1.1,1.2,2.1,2.5,3,3.8C62.3,25.6,63.7,29.3,65.2,32.9z"/>
		<path fill="#9D3E3A" d="M94.2,20.5c-5.2-5.1-6.8-8.1-6.8-11c-1.1,1.4-2.2,2.7-3.3,4.1c0.2-1.8,0.2-4.1-1-6.6
			c-0.2,2.1-1.1,4.1-2.5,5.6c-0.9,4.1-2.5,8.1-3.5,12.1c-1.1,4.3-2.1,8.7-3,13.1c-0.1,0.6,0.7,0.9,1,0.4c4.6-6.9,10.8-12.7,17.9-17
			C93.4,21,93.8,20.7,94.2,20.5z"/>
		<path fill="#9D3E3A" d="M112.9,37c-2.8-3.1-6.6-6.2-10.2-9.2C97.3,29.2,92,33.7,88.9,38C96.6,35.2,105.1,34.9,112.9,37z"/>
		<path opacity="0.19" fill="#FBEF57" d="M53.9,37.3c-2.2-2.3-5-8.6-3.4-11.2c1.8-2.9,7.9-4.4,11.5-5.3c8.2-2.2,17.2-1.8,25,1.2
			c12.5,4.9,20.2,10.6,19.9,13.2C106.7,36.4,74.6,58.9,53.9,37.3z"/>
		<g>
			<linearGradient id="SVGID_13_" gradientUnits="userSpaceOnUse" x1="54.7732" y1="88.3649" x2="58.9251" y2="76.8069">
				<stop  offset="5.534700e-004" style="stop-color:#C83E28"/>
				<stop  offset="1" style="stop-color:#952440"/>
			</linearGradient>
			<path fill="url(#SVGID_13_)" d="M48.8,83.9c0.4,0.4,1.5,0.3,1.6,0.6c0.5,1.9,1.6,3,3.3,3.9c2.4,1.4,4.9,0.8,5.5,0.3
				c0.3-0.2,1.8,0.6,2,1.5c1,0.5,12.2-5.8,10.8-7.3c-6,2-11.7-1.2-13.1-5.7c-0.3,0-8.8,3.2-13.4-6.5c-0.8,1.6,0.9,10.7,1.9,12.7
				C47.6,83.8,48.6,83.9,48.8,83.9z"/>
			<path fill="#76262D" d="M54.2,88.1c1.3,0.7,2.6,0.8,3.5,0.8c0.9-0.1,1.5-0.3,1.6-0.1c0,0.1-0.5,0.4-1.5,0.7
				c-1,0.2-2.5,0.1-3.9-0.6c-1.4-0.7-2.4-1.8-2.9-2.7c-0.5-0.9-0.6-1.5-0.5-1.6c0.1,0,0.4,0.5,0.9,1.3C52,86.5,52.9,87.5,54.2,88.1z
				"/>
			<path fill="#FFFFFF" d="M48.4,83.8c0.4-0.9,2.2-1.4,2.3-1.4c0.1,0,0.2,2.3,0.2,2.9C50.9,85.9,48.2,84.3,48.4,83.8z"/>
			<path fill="#FFFFFF" d="M61.2,89.8c0.2-1.2-0.4-2.7-0.5-2.6c-0.2,0-1.9,1.3-2.3,1.7C57.8,89.6,61.1,90.4,61.2,89.8z"/>
			<g>
				<path fill="#76262D" d="M73.7,79.9c0.3,1.2,0,2.3-0.5,3.4c-0.2,0.5,0.5,0.9,0.7,0.4c0.6-1.3,0.5-2.6,0-3.9
					C73.9,79.7,73.6,79.7,73.7,79.9z"/>
			</g>
			<g>
				<path fill="#76262D" d="M46.9,67.5c-1.6,0.2-2.7,1.6-3.2,3c-0.2,0.7,0.9,1,1.1,0.3c0.4-1.3,1.2-2.3,2.2-3.2L46.9,67.5z"/>
			</g>
			<path fill="#FFFFFF" d="M48.2,75.3c0,0-0.3,1.5,0.5,3.8c0.1,0.2,2-2.5,2-2.5L48.2,75.3z"/>
			<path fill="#FFFFFF" d="M66.4,83.4c0,0-0.8,1.3-3,2.3c-0.2,0.1,0.4-3.2,0.4-3.2L66.4,83.4z"/>
			<g>
				<path fill="#76262D" d="M59.5,76.5l0.3,0.9l0.2,0.5c0.1,0.3,0.2,0.5,0.4,0.8c0.3,0.5,0.6,1,1,1.4c0.8,0.8,1.7,1.5,2.6,2
					c0.9,0.5,1.9,0.9,2.8,1c0.9,0.1,1.8,0.1,2.6,0c3.3-0.4,5-1.8,5.1-1.6c0,0.1-0.3,0.5-1.1,1c-0.8,0.5-2.1,1.1-3.8,1.4
					c-0.9,0.1-1.8,0.2-2.9,0.1c-0.5-0.1-1.1-0.2-1.6-0.3c-0.5-0.2-1-0.4-1.6-0.7c-1-0.5-2.1-1.2-2.9-2.2c-0.4-0.5-0.8-1-1.2-1.6
					c-0.2-0.3-0.3-0.6-0.5-0.9L58.6,78l0,0l0,0l0,0l0,0L58.5,78c-0.3,0.1-0.7,0.2-1,0.3c-0.7,0.2-1.3,0.2-2,0.2
					c-1.3,0-2.5-0.4-3.6-0.8c-1.1-0.4-2.1-0.9-2.9-1.6c-0.8-0.6-1.5-1.4-2-2.1c-1-1.4-1.5-2.8-1.7-3.7c-0.2-1-0.1-1.5-0.1-1.5
					c0.2-0.1,0.4,2.1,2.4,4.7c0.5,0.6,1.1,1.3,1.9,1.8c0.7,0.5,1.7,1,2.7,1.3c1,0.4,2.1,0.6,3.2,0.7c0.6,0,1.1,0,1.7-0.2
					c0.3-0.1,0.5-0.2,0.8-0.3l0.1,0l0.2-0.1l0.4-0.2C59,76.4,59.5,76,59.5,76.5z"/>
			</g>
		</g>
		<g>
			<path fill="#BF5D3F" d="M53.7,114.2c9.8,1.2,25.4,0.2,24.6,0.1c-6.2-0.8-19.3-3-28.2-6.7c-7.1-2.9-13.7-7.5-14.4-8.2
				C38.4,103.2,52.4,113.6,53.7,114.2z"/>
		</g>
		<path fill="#9D3E3A" d="M23.3,89.5c-3.6,2-8,2.6-11.9,1.6c-2.4-0.6-4.6-1.8-6.5-3.4c1.5,3.4,3.9,7.2,6.4,11
			c1.9-0.6,3.8-1.3,5.5-2.3C19.6,94.8,22.1,92.5,23.3,89.5z"/>
		<path fill="#9D3E3A" d="M5.6,69.5c-0.4,2.7-1.2,5.4-1.8,8.2c0.4,0.1,0.9,0.3,1.4,0.4c8,1.8,12.5,0.5,16.1-1.6
			c0.8-0.5,0.8-1-0.2-1.1C14.1,75,7.5,73.6,5.6,69.5z"/>
		<path fill="#9D3E3A" d="M95.1,133.1c0.2-0.1,0.3-0.2,0.5-0.3c-4.2,0-8.5-1.3-11.3-8.7c-0.2-0.4-0.3-0.3-0.4,0.2
			c-0.3,1.7-0.2,6.4,0.5,8.9C88.2,133.6,93.6,133.8,95.1,133.1z"/>
		<path fill="#9D3E3A" d="M91.4,118.9c-0.2-0.3-0.4,0.1-0.3,0.4c0.4,4.2,4.1,9.9,7.9,11.2c2.2-1.5,5.2-3.4,8.3-5.5
			C102.7,125.7,96.1,124.5,91.4,118.9z"/>
		<path fill="#9D3E3A" d="M84.6,159.4C84.6,159.4,84.6,159.4,84.6,159.4c-1.2-4.1-1.3-17.1-1.4-16.9c-1.1,6.2-1.7,12.1-2,16.9H84.6z
			"/>
		<path fill="#FED7AC" d="M122.9,73.4c3.9,0.1,7.9,1.6,11.6,2.9c-2.9-4.3-5.7-9-11.3-10.3c1.8-0.9,4-1.4,5.8-1.3
			c-0.8-0.3-5.6-4.9-12.4-2.2c-0.4,0.3-0.4,1.1-0.4,1.2c0.8,3.6,3.4,9.8,4.7,12.4c1.3,0.9,5.2,3.5,6.2,5.9
			C127,78.2,127.1,76.2,122.9,73.4z"/>
		<path fill="#FDC282" d="M132,100.2c0.2-2.5-1.4-6.1-4-7.4c-2,0.4-3.9,0.4-5.3,0.7c0.7-1.1,1.4-2.4,2-3.8c-1-2.6-6.4-4.7-10.5-3.6
			c-0.1,1.4-0.8,2.9-1,3.9c-0.6-1.2-2.3-3.1-3-3.7c-2.9-0.1-5.8,1.9-5.8,2.5c1.9,3.9,1.6,9.9,0.2,12.7c-2.2,4.8,7.4,12.2,11.7,11.2
			c1.3-0.5,2-1.8,6.3-1.9c6.2-0.2,7.4,0.2,8.3,0c1.5-0.4,1.9-4.3,1.9-4.7c-1.7-1.8-5-2.8-6-2.8C128.3,102.5,130.1,101.7,132,100.2z"
			/>
		<path fill="#F48271" d="M115.1,106.3c0.4,0.9,0.8,2,1.6,2.1c0.5,0.1,1-0.3,1.3-0.8c0.3-0.5,0.4-1.1,0.5-1.6
			c0.3-1.2,0.5-2.5,0.4-3.7c-0.1-1.3-0.5-2.5-1.4-3.3c-0.8-0.7-2-0.9-3-0.9c-1.5-0.1-3,0.1-4.3,0.7c-0.6,0.3-1.2,0.7-1.6,1.4
			s-0.5,1.5-0.2,2.2c0.6,1.3,2.5,0.6,3.5,0.9C113.3,103.8,114.5,105,115.1,106.3z"/>
		<path fill="#F48271" d="M106.7,90c0.3,1.4,1.1,2.5,2.5,3.1c0.5,0.3,1.2,0.4,1.6,0.1c0.4-0.3,0.5-0.9,0.6-1.4c0-1.2-0.5-2.4-1.5-3
			c-1-0.6-2.5-0.3-3.1,0.7L106.7,90z"/>
		<path fill="#F48271" d="M126.9,108.7c0.6,0.8,1.6,1.4,2.6,1.1c1.2-0.4,1.6-2.2,0.9-3.3c-0.7-1.1-2-1.6-3.3-1.9
			c-0.4-0.1-0.8-0.1-1.1,0.1C125.7,104.9,126.4,107.9,126.9,108.7z"/>
		<path fill="#F48271" d="M128,94.9c-0.7-0.3-1.4-0.2-2.1-0.1c-0.7,0.1-1.3,0.3-1.9,0.6c-0.6,0.4-1,1-1,1.6c0,0.8,0.6,1.5,1.3,1.9
			c0.7,0.4,1.6,0.4,2.4,0.5c0.6,0,1.3,0.1,1.9-0.1c0.6-0.2,1.2-0.6,1.4-1.3C130.3,97.3,128.8,95.2,128,94.9z"/>
		<path fill="#FDC282" d="M34.7,44.3c-1.3,0.3-2.6,0.7-3.5,1c0.5-0.9,1-2.3,1.4-3.7c-2.1-2.1-5-3.6-8.8-4.1c-0.7,1.3-1.3,2.6-1.9,4
			c-0.4-1.4-1.1-2.9-1.7-4.1c-3.3,0-6.8,0.6-9.8,1.9c0.4,1.7,0.7,3.6,1,4.9c-1.8-1.7-3.6-2.4-4.9-2.6C6,42,5.5,42.4,5.1,42.8
			c-0.7,0.8-1.3,1.7-1.9,2.6c-1.5,2.5,0.1,3.3,1.6,4.9c2,2.1,3.4,5.1,5,7.5c1.1,1.6,2.2,3.3,3.8,4.4c1.2,0.3,9.7,0.3,11.3,0.4
			c3.3-1.4,4.1-5.4,6.5-8c2.8-3.1,4.7-3.2,5.5-4.4C36.5,48,35.7,46.1,34.7,44.3z"/>
		<path fill="#F48271" d="M115.8,88.3c-0.6,0.8-0.7,2.5,0.1,3.5c0.8,1,2.2,1.4,3.4,1s2-1.7,2-2.9c0-0.5-0.1-0.9-0.4-1.3
			c-0.5-0.8-1.5-1.1-2.5-1.4C117.7,87.1,116.4,87.5,115.8,88.3z"/>
		<path fill="#F48271" d="M12.8,55.1c0.7-3.7,8.3-8.6,11.7-4.6c1.6,1.9,3,5.7-0.1,6.7C21.4,58.3,12.4,57.1,12.8,55.1z"/>
		<path fill="#F48271" d="M18.2,44.6c0.2-0.2,0.4-0.5,0.5-0.8c0.4-0.9,0.6-1.9,0.6-2.8c0-0.5-0.1-1-0.5-1.4c-1.4-1.4-5,0.2-5,2.1
			C13.7,43.4,16.4,46.3,18.2,44.6z"/>
		<path fill="#F48271" d="M5.9,47.3c0.3,0.5,0.8,0.7,1.4,0.8c0.6,0.1,1.1,0,1.7-0.1c0.3,0,0.6-0.1,0.8-0.2c0.3-0.1,0.5-0.3,0.5-0.6
			c0-0.3-0.1-0.5-0.3-0.7c-0.2-0.2-0.4-0.3-0.6-0.5c-0.5-0.3-1.1-0.6-1.7-0.7C6.6,45.1,5.2,46.2,5.9,47.3z"/>
		<path fill="#F48271" d="M23.9,43.6c-0.1,0.4-0.1,0.9,0,1.3c0.1,0.4,0.4,0.9,0.8,1.1c0.4,0.2,1,0.1,1.4-0.1
			c0.4-0.2,0.8-0.5,1.2-0.9c0.5-0.5,1-0.9,1.5-1.4c0.3-0.3,0.7-0.7,0.7-1.1c0-0.6-0.7-1-1.2-1.3c-0.6-0.3-1.1-0.5-1.7-0.8
			c-0.3-0.1-0.6-0.3-0.9-0.3C24.2,40,24,42.6,23.9,43.6z"/>
		<path fill="#F48271" d="M30.7,49.1c-0.2,0.3-0.4,0.6-0.3,0.9c0.2,0.3,0.6,0.3,0.9,0.3c0.6,0,1.3-0.1,1.9-0.1
			c0.5,0,1.1-0.1,1.6-0.4c0.5-0.4,0.7-1,0.5-1.6C34.7,45.4,31.7,47.9,30.7,49.1z"/>
	</g>
</g>
</svg>
