<?xml version="1.0" encoding="utf-8"?>
<!-- Generator: Adobe Illustrator 17.1.0, SVG Export Plug-In . SVG Version: 6.00 Build 0)  -->
<!DOCTYPE svg PUBLIC "-//W3C//DTD SVG 1.1//EN" "http://www.w3.org/Graphics/SVG/1.1/DTD/svg11.dtd">
<svg version="1.1" id="Layer_1" xmlns="http://www.w3.org/2000/svg" xmlns:xlink="http://www.w3.org/1999/xlink" x="0px" y="0px"
	 width="190.3px" height="204.2px" viewBox="0 0 190.3 204.2" enable-background="new 0 0 190.3 204.2" xml:space="preserve">
<g>
	<g>
		<g>
			<g>
				<defs>
					<path id="SVGID_1_" d="M109.7,0.9C112.3,4.2,107-2.3,109.7,0.9L109.7,0.9z"/>
				</defs>
				<clipPath id="SVGID_2_">
					<use xlink:href="#SVGID_1_"  overflow="visible"/>
				</clipPath>
				<rect x="107" y="-2.3" clip-path="url(#SVGID_2_)" fill="#F16040" width="5.3" height="6.5"/>
				
					<ellipse transform="matrix(-0.2648 0.9643 -0.9643 -0.2648 139.3194 -105.8815)" clip-path="url(#SVGID_2_)" fill="#F16040" cx="110" cy="0.2" rx="1.5" ry="2.5"/>
				
					<ellipse transform="matrix(-0.2648 0.9643 -0.9643 -0.2648 139.3193 -105.8816)" clip-path="url(#SVGID_2_)" fill="#F16040" cx="110" cy="0.2" rx="1.5" ry="2.5"/>
				
					<ellipse transform="matrix(-0.2648 0.9643 -0.9643 -0.2648 139.3192 -105.8816)" clip-path="url(#SVGID_2_)" fill="#F2613F" cx="110" cy="0.2" rx="1.4" ry="2.4"/>
				
					<ellipse transform="matrix(-0.2648 0.9643 -0.9643 -0.2648 139.3191 -105.8816)" clip-path="url(#SVGID_2_)" fill="#F2623F" cx="110" cy="0.2" rx="1.4" ry="2.4"/>
				
					<ellipse transform="matrix(-0.2648 0.9643 -0.9643 -0.2648 139.3201 -105.8813)" clip-path="url(#SVGID_2_)" fill="#F2643F" cx="110" cy="0.2" rx="1.4" ry="2.3"/>
				
					<ellipse transform="matrix(-0.2648 0.9643 -0.9643 -0.2648 139.3201 -105.8813)" clip-path="url(#SVGID_2_)" fill="#F2663F" cx="110" cy="0.2" rx="1.4" ry="2.3"/>
				
					<ellipse transform="matrix(-0.2648 0.9643 -0.9643 -0.2648 139.3199 -105.8813)" clip-path="url(#SVGID_2_)" fill="#F2663E" cx="110" cy="0.2" rx="1.3" ry="2.2"/>
				
					<ellipse transform="matrix(-0.2648 0.9643 -0.9643 -0.2648 139.3199 -105.8813)" clip-path="url(#SVGID_2_)" fill="#F2673E" cx="110" cy="0.2" rx="1.3" ry="2.2"/>
				
					<ellipse transform="matrix(-0.2648 0.9643 -0.9643 -0.2648 139.3209 -105.8811)" clip-path="url(#SVGID_2_)" fill="#F2683E" cx="110" cy="0.2" rx="1.3" ry="2.1"/>
				
					<ellipse transform="matrix(-0.2648 0.9643 -0.9643 -0.2648 139.3209 -105.8811)" clip-path="url(#SVGID_2_)" fill="#F2693E" cx="110" cy="0.2" rx="1.2" ry="2.1"/>
				
					<ellipse transform="matrix(-0.2648 0.9643 -0.9643 -0.2648 139.3208 -105.8811)" clip-path="url(#SVGID_2_)" fill="#F26A3E" cx="110" cy="0.2" rx="1.2" ry="2"/>
				
					<ellipse transform="matrix(-0.2648 0.9643 -0.9643 -0.2648 139.3207 -105.8812)" clip-path="url(#SVGID_2_)" fill="#F26B3D" cx="110" cy="0.2" rx="1.2" ry="2"/>
				
					<ellipse transform="matrix(-0.2648 0.9643 -0.9643 -0.2648 139.3207 -105.8812)" clip-path="url(#SVGID_2_)" fill="#F36B3D" cx="110" cy="0.2" rx="1.2" ry="1.9"/>
				
					<ellipse transform="matrix(-0.2648 0.9643 -0.9643 -0.2648 139.3206 -105.8812)" clip-path="url(#SVGID_2_)" fill="#F36D3D" cx="110" cy="0.2" rx="1.1" ry="1.9"/>
				
					<ellipse transform="matrix(-0.2648 0.9643 -0.9643 -0.2648 139.3206 -105.8812)" clip-path="url(#SVGID_2_)" fill="#F36E3B" cx="110" cy="0.2" rx="1.1" ry="1.8"/>
				
					<ellipse transform="matrix(-0.2648 0.9643 -0.9643 -0.2648 139.3205 -105.8812)" clip-path="url(#SVGID_2_)" fill="#F36F3B" cx="110" cy="0.2" rx="1.1" ry="1.8"/>
				
					<ellipse transform="matrix(-0.2648 0.9643 -0.9643 -0.2648 139.3203 -105.8813)" clip-path="url(#SVGID_2_)" fill="#F37139" cx="110" cy="0.2" rx="1" ry="1.7"/>
				
					<ellipse transform="matrix(-0.2648 0.9643 -0.9643 -0.2648 139.3203 -105.8813)" clip-path="url(#SVGID_2_)" fill="#F37239" cx="110" cy="0.2" rx="1" ry="1.7"/>
				
					<ellipse transform="matrix(-0.2648 0.9643 -0.9643 -0.2648 139.3203 -105.8813)" clip-path="url(#SVGID_2_)" fill="#F37239" cx="110" cy="0.2" rx="1" ry="1.6"/>
				
					<ellipse transform="matrix(-0.2648 0.9643 -0.9643 -0.2648 139.3203 -105.8813)" clip-path="url(#SVGID_2_)" fill="#F37438" cx="110" cy="0.2" rx="0.9" ry="1.6"/>
				
					<ellipse transform="matrix(-0.2648 0.9643 -0.9643 -0.2648 139.3201 -105.8813)" clip-path="url(#SVGID_2_)" fill="#F47538" cx="110" cy="0.2" rx="0.9" ry="1.5"/>
				
					<ellipse transform="matrix(-0.2648 0.9643 -0.9643 -0.2648 139.3199 -105.8814)" clip-path="url(#SVGID_2_)" fill="#F47538" cx="110" cy="0.2" rx="0.9" ry="1.5"/>
				
					<ellipse transform="matrix(-0.2648 0.9643 -0.9643 -0.2648 139.3199 -105.8814)" clip-path="url(#SVGID_2_)" fill="#F47637" cx="110" cy="0.2" rx="0.9" ry="1.4"/>
				
					<ellipse transform="matrix(-0.2648 0.9643 -0.9643 -0.2648 139.3198 -105.8814)" clip-path="url(#SVGID_2_)" fill="#F47736" cx="110" cy="0.2" rx="0.8" ry="1.4"/>
				
					<ellipse transform="matrix(-0.2648 0.9643 -0.9643 -0.2648 139.3198 -105.8814)" clip-path="url(#SVGID_2_)" fill="#F47736" cx="110" cy="0.2" rx="0.8" ry="1.3"/>
				
					<ellipse transform="matrix(-0.2648 0.9643 -0.9643 -0.2648 139.3195 -105.8815)" clip-path="url(#SVGID_2_)" fill="#F47936" cx="110" cy="0.2" rx="0.8" ry="1.3"/>
				
					<ellipse transform="matrix(-0.2648 0.9643 -0.9643 -0.2648 139.3193 -105.8816)" clip-path="url(#SVGID_2_)" fill="#F47A34" cx="110" cy="0.2" rx="0.7" ry="1.2"/>
				
					<ellipse transform="matrix(-0.2648 0.9643 -0.9643 -0.2648 139.3192 -105.8816)" clip-path="url(#SVGID_2_)" fill="#F47A34" cx="110" cy="0.2" rx="0.7" ry="1.2"/>
				
					<ellipse transform="matrix(-0.2648 0.9643 -0.9643 -0.2648 139.3212 -105.881)" clip-path="url(#SVGID_2_)" fill="#F47C35" cx="110" cy="0.2" rx="0.7" ry="1.1"/>
				
					<ellipse transform="matrix(-0.2648 0.9643 -0.9643 -0.2648 139.3212 -105.881)" clip-path="url(#SVGID_2_)" fill="#F47C33" cx="110" cy="0.2" rx="0.7" ry="1.1"/>
				
					<ellipse transform="matrix(-0.2648 0.9643 -0.9643 -0.2648 139.321 -105.881)" clip-path="url(#SVGID_2_)" fill="#F57E33" cx="110" cy="0.2" rx="0.6" ry="1.1"/>
				
					<ellipse transform="matrix(-0.2648 0.9643 -0.9643 -0.2648 139.3209 -105.8811)" clip-path="url(#SVGID_2_)" fill="#F57F32" cx="110" cy="0.2" rx="0.6" ry="1"/>
				
					<ellipse transform="matrix(-0.2648 0.9643 -0.9643 -0.2648 139.3208 -105.8811)" clip-path="url(#SVGID_2_)" fill="#F57F32" cx="110" cy="0.2" rx="0.6" ry="1"/>
				
					<ellipse transform="matrix(-0.2648 0.9643 -0.9643 -0.2648 139.3233 -105.8805)" clip-path="url(#SVGID_2_)" fill="#F58132" cx="110" cy="0.2" rx="0.5" ry="0.9"/>
				
					<ellipse transform="matrix(-0.2648 0.9643 -0.9643 -0.2648 139.3233 -105.8805)" clip-path="url(#SVGID_2_)" fill="#F58231" cx="110" cy="0.2" rx="0.5" ry="0.9"/>
				
					<ellipse transform="matrix(-0.2648 0.9643 -0.9643 -0.2648 139.3233 -105.8805)" clip-path="url(#SVGID_2_)" fill="#F58331" cx="110" cy="0.2" rx="0.5" ry="0.8"/>
				
					<ellipse transform="matrix(-0.2648 0.9643 -0.9643 -0.2648 139.3233 -105.8805)" clip-path="url(#SVGID_2_)" fill="#F58431" cx="110" cy="0.2" rx="0.4" ry="0.8"/>
				
					<ellipse transform="matrix(-0.2648 0.9643 -0.9643 -0.2648 139.3233 -105.8804)" clip-path="url(#SVGID_2_)" fill="#F58531" cx="110" cy="0.2" rx="0.4" ry="0.7"/>
				
					<ellipse transform="matrix(-0.2648 0.9643 -0.9643 -0.2648 139.3234 -105.8804)" clip-path="url(#SVGID_2_)" fill="#F68632" cx="110" cy="0.2" rx="0.4" ry="0.7"/>
				
					<ellipse transform="matrix(-0.2648 0.9643 -0.9643 -0.2648 139.3234 -105.8804)" clip-path="url(#SVGID_2_)" fill="#F68732" cx="110" cy="0.2" rx="0.4" ry="0.6"/>
				
					<ellipse transform="matrix(-0.2648 0.9643 -0.9643 -0.2648 139.3234 -105.8804)" clip-path="url(#SVGID_2_)" fill="#F68832" cx="110" cy="0.2" rx="0.3" ry="0.6"/>
				
					<ellipse transform="matrix(-0.2648 0.9643 -0.9643 -0.2648 139.3235 -105.8804)" clip-path="url(#SVGID_2_)" fill="#F68932" cx="110" cy="0.2" rx="0.3" ry="0.5"/>
				
					<ellipse transform="matrix(-0.2648 0.9643 -0.9643 -0.2648 139.3235 -105.8804)" clip-path="url(#SVGID_2_)" fill="#F68A31" cx="110" cy="0.2" rx="0.3" ry="0.5"/>
				
					<ellipse transform="matrix(-0.2648 0.9643 -0.9643 -0.2648 139.3236 -105.8804)" clip-path="url(#SVGID_2_)" fill="#F68B31" cx="110" cy="0.2" rx="0.2" ry="0.4"/>
				
					<ellipse transform="matrix(-0.2648 0.9643 -0.9643 -0.2648 139.3237 -105.8804)" clip-path="url(#SVGID_2_)" fill="#F68C31" cx="110" cy="0.2" rx="0.2" ry="0.4"/>
				
					<ellipse transform="matrix(-0.2648 0.9643 -0.9643 -0.2648 139.3238 -105.8803)" clip-path="url(#SVGID_2_)" fill="#F78D30" cx="110" cy="0.2" rx="0.2" ry="0.3"/>
				
					<ellipse transform="matrix(-0.2648 0.9643 -0.9643 -0.2648 139.3239 -105.8803)" clip-path="url(#SVGID_2_)" fill="#F78E30" cx="110" cy="0.2" rx="0.2" ry="0.3"/>
				
					<ellipse transform="matrix(-0.2649 0.9643 -0.9643 -0.2649 139.3242 -105.8802)" clip-path="url(#SVGID_2_)" fill="#F78E30" cx="110" cy="0.2" rx="0.1" ry="0.2"/>
				
					<ellipse transform="matrix(-0.2649 0.9643 -0.9643 -0.2649 139.3245 -105.8801)" clip-path="url(#SVGID_2_)" fill="#F78F2E" cx="110" cy="0.2" rx="0.1" ry="0.2"/>
				
					<ellipse transform="matrix(-0.2649 0.9643 -0.9643 -0.2649 139.3253 -105.8799)" clip-path="url(#SVGID_2_)" fill="#F7902E" cx="110" cy="0.2" rx="0.1" ry="0.1"/>
				
					<ellipse transform="matrix(-0.2649 0.9643 -0.9643 -0.2649 139.3273 -105.8794)" clip-path="url(#SVGID_2_)" fill="#F7902E" cx="110" cy="0.2" rx="0" ry="0.1"/>
				<ellipse clip-path="url(#SVGID_2_)" fill="#F7912F" cx="110" cy="0.2" rx="0" ry="0"/>
			</g>
		</g>
	</g>
	<g>
		<g>
			<defs>
				<path id="SVGID_3_" d="M109.7,0.9C112.3,4.2,107-2.3,109.7,0.9L109.7,0.9z"/>
			</defs>
			<clipPath id="SVGID_4_">
				<use xlink:href="#SVGID_3_"  overflow="visible"/>
			</clipPath>
			<rect x="107" y="-2.3" clip-path="url(#SVGID_4_)" fill="#F16040" width="5.3" height="6.5"/>
			
				<ellipse transform="matrix(-0.2648 0.9643 -0.9643 -0.2648 139.3194 -105.8815)" clip-path="url(#SVGID_4_)" fill="#F16040" cx="110" cy="0.2" rx="1.5" ry="2.5"/>
			
				<ellipse transform="matrix(-0.2648 0.9643 -0.9643 -0.2648 139.3193 -105.8816)" clip-path="url(#SVGID_4_)" fill="#F16040" cx="110" cy="0.2" rx="1.5" ry="2.5"/>
			
				<ellipse transform="matrix(-0.2648 0.9643 -0.9643 -0.2648 139.3192 -105.8816)" clip-path="url(#SVGID_4_)" fill="#F2613F" cx="110" cy="0.2" rx="1.4" ry="2.4"/>
			
				<ellipse transform="matrix(-0.2648 0.9643 -0.9643 -0.2648 139.3202 -105.8813)" clip-path="url(#SVGID_4_)" fill="#F2623F" cx="110" cy="0.2" rx="1.4" ry="2.4"/>
			
				<ellipse transform="matrix(-0.2648 0.9643 -0.9643 -0.2648 139.3201 -105.8813)" clip-path="url(#SVGID_4_)" fill="#F2643F" cx="110" cy="0.2" rx="1.4" ry="2.3"/>
			
				<ellipse transform="matrix(-0.2648 0.9643 -0.9643 -0.2648 139.3201 -105.8813)" clip-path="url(#SVGID_4_)" fill="#F2663F" cx="110" cy="0.2" rx="1.4" ry="2.3"/>
			
				<ellipse transform="matrix(-0.2648 0.9643 -0.9643 -0.2648 139.3199 -105.8813)" clip-path="url(#SVGID_4_)" fill="#F2663E" cx="110" cy="0.2" rx="1.3" ry="2.2"/>
			
				<ellipse transform="matrix(-0.2648 0.9643 -0.9643 -0.2648 139.3199 -105.8813)" clip-path="url(#SVGID_4_)" fill="#F2673E" cx="110" cy="0.2" rx="1.3" ry="2.2"/>
			
				<ellipse transform="matrix(-0.2648 0.9643 -0.9643 -0.2648 139.3198 -105.8813)" clip-path="url(#SVGID_4_)" fill="#F2683E" cx="110" cy="0.2" rx="1.3" ry="2.1"/>
			
				<ellipse transform="matrix(-0.2648 0.9643 -0.9643 -0.2648 139.3209 -105.8811)" clip-path="url(#SVGID_4_)" fill="#F2693E" cx="110" cy="0.2" rx="1.2" ry="2.1"/>
			
				<ellipse transform="matrix(-0.2648 0.9643 -0.9643 -0.2648 139.3208 -105.8811)" clip-path="url(#SVGID_4_)" fill="#F26A3E" cx="110" cy="0.2" rx="1.2" ry="2"/>
			
				<ellipse transform="matrix(-0.2648 0.9643 -0.9643 -0.2648 139.3207 -105.8812)" clip-path="url(#SVGID_4_)" fill="#F26B3D" cx="110" cy="0.2" rx="1.2" ry="2"/>
			
				<ellipse transform="matrix(-0.2648 0.9643 -0.9643 -0.2648 139.3207 -105.8812)" clip-path="url(#SVGID_4_)" fill="#F36B3D" cx="110" cy="0.2" rx="1.2" ry="1.9"/>
			
				<ellipse transform="matrix(-0.2648 0.9643 -0.9643 -0.2648 139.3206 -105.8812)" clip-path="url(#SVGID_4_)" fill="#F36D3D" cx="110" cy="0.2" rx="1.1" ry="1.9"/>
			
				<ellipse transform="matrix(-0.2648 0.9643 -0.9643 -0.2648 139.3206 -105.8812)" clip-path="url(#SVGID_4_)" fill="#F36E3B" cx="110" cy="0.2" rx="1.1" ry="1.8"/>
			
				<ellipse transform="matrix(-0.2648 0.9643 -0.9643 -0.2648 139.3205 -105.8812)" clip-path="url(#SVGID_4_)" fill="#F36F3B" cx="110" cy="0.2" rx="1.1" ry="1.8"/>
			
				<ellipse transform="matrix(-0.2648 0.9643 -0.9643 -0.2648 139.3203 -105.8813)" clip-path="url(#SVGID_4_)" fill="#F37139" cx="110" cy="0.2" rx="1" ry="1.7"/>
			
				<ellipse transform="matrix(-0.2648 0.9643 -0.9643 -0.2648 139.3203 -105.8813)" clip-path="url(#SVGID_4_)" fill="#F37239" cx="110" cy="0.2" rx="1" ry="1.7"/>
			
				<ellipse transform="matrix(-0.2648 0.9643 -0.9643 -0.2648 139.3203 -105.8813)" clip-path="url(#SVGID_4_)" fill="#F37239" cx="110" cy="0.2" rx="1" ry="1.6"/>
			
				<ellipse transform="matrix(-0.2648 0.9643 -0.9643 -0.2648 139.3203 -105.8813)" clip-path="url(#SVGID_4_)" fill="#F37438" cx="110" cy="0.2" rx="0.9" ry="1.6"/>
			
				<ellipse transform="matrix(-0.2648 0.9643 -0.9643 -0.2648 139.3201 -105.8813)" clip-path="url(#SVGID_4_)" fill="#F47538" cx="110" cy="0.2" rx="0.9" ry="1.5"/>
			
				<ellipse transform="matrix(-0.2648 0.9643 -0.9643 -0.2648 139.3199 -105.8814)" clip-path="url(#SVGID_4_)" fill="#F47538" cx="110" cy="0.2" rx="0.9" ry="1.5"/>
			
				<ellipse transform="matrix(-0.2648 0.9643 -0.9643 -0.2648 139.3199 -105.8814)" clip-path="url(#SVGID_4_)" fill="#F47637" cx="110" cy="0.2" rx="0.9" ry="1.4"/>
			
				<ellipse transform="matrix(-0.2648 0.9643 -0.9643 -0.2648 139.3198 -105.8814)" clip-path="url(#SVGID_4_)" fill="#F47736" cx="110" cy="0.2" rx="0.8" ry="1.4"/>
			
				<ellipse transform="matrix(-0.2648 0.9643 -0.9643 -0.2648 139.3198 -105.8814)" clip-path="url(#SVGID_4_)" fill="#F47736" cx="110" cy="0.2" rx="0.8" ry="1.3"/>
			
				<ellipse transform="matrix(-0.2648 0.9643 -0.9643 -0.2648 139.3195 -105.8815)" clip-path="url(#SVGID_4_)" fill="#F47936" cx="110" cy="0.2" rx="0.8" ry="1.3"/>
			
				<ellipse transform="matrix(-0.2648 0.9643 -0.9643 -0.2648 139.3193 -105.8816)" clip-path="url(#SVGID_4_)" fill="#F47A34" cx="110" cy="0.2" rx="0.7" ry="1.2"/>
			
				<ellipse transform="matrix(-0.2648 0.9643 -0.9643 -0.2648 139.3213 -105.881)" clip-path="url(#SVGID_4_)" fill="#F47A34" cx="110" cy="0.2" rx="0.7" ry="1.2"/>
			
				<ellipse transform="matrix(-0.2648 0.9643 -0.9643 -0.2648 139.3212 -105.881)" clip-path="url(#SVGID_4_)" fill="#F47C35" cx="110" cy="0.2" rx="0.7" ry="1.1"/>
			
				<ellipse transform="matrix(-0.2648 0.9643 -0.9643 -0.2648 139.3212 -105.881)" clip-path="url(#SVGID_4_)" fill="#F47C33" cx="110" cy="0.2" rx="0.7" ry="1.1"/>
			
				<ellipse transform="matrix(-0.2648 0.9643 -0.9643 -0.2648 139.321 -105.881)" clip-path="url(#SVGID_4_)" fill="#F57E33" cx="110" cy="0.2" rx="0.6" ry="1.1"/>
			
				<ellipse transform="matrix(-0.2648 0.9643 -0.9643 -0.2648 139.3209 -105.8811)" clip-path="url(#SVGID_4_)" fill="#F57F32" cx="110" cy="0.2" rx="0.6" ry="1"/>
			
				<ellipse transform="matrix(-0.2648 0.9643 -0.9643 -0.2648 139.3208 -105.8811)" clip-path="url(#SVGID_4_)" fill="#F57F32" cx="110" cy="0.2" rx="0.6" ry="1"/>
			
				<ellipse transform="matrix(-0.2648 0.9643 -0.9643 -0.2648 139.3207 -105.8811)" clip-path="url(#SVGID_4_)" fill="#F58132" cx="110" cy="0.2" rx="0.5" ry="0.9"/>
			
				<ellipse transform="matrix(-0.2648 0.9643 -0.9643 -0.2648 139.3233 -105.8805)" clip-path="url(#SVGID_4_)" fill="#F58231" cx="110" cy="0.2" rx="0.5" ry="0.9"/>
			
				<ellipse transform="matrix(-0.2648 0.9643 -0.9643 -0.2648 139.3233 -105.8805)" clip-path="url(#SVGID_4_)" fill="#F58331" cx="110" cy="0.2" rx="0.5" ry="0.8"/>
			
				<ellipse transform="matrix(-0.2648 0.9643 -0.9643 -0.2648 139.3233 -105.8805)" clip-path="url(#SVGID_4_)" fill="#F58431" cx="110" cy="0.2" rx="0.4" ry="0.8"/>
			
				<ellipse transform="matrix(-0.2648 0.9643 -0.9643 -0.2648 139.3233 -105.8804)" clip-path="url(#SVGID_4_)" fill="#F58531" cx="110" cy="0.2" rx="0.4" ry="0.7"/>
			
				<ellipse transform="matrix(-0.2648 0.9643 -0.9643 -0.2648 139.3234 -105.8804)" clip-path="url(#SVGID_4_)" fill="#F68632" cx="110" cy="0.2" rx="0.4" ry="0.7"/>
			
				<ellipse transform="matrix(-0.2648 0.9643 -0.9643 -0.2648 139.3234 -105.8804)" clip-path="url(#SVGID_4_)" fill="#F68732" cx="110" cy="0.2" rx="0.4" ry="0.6"/>
			
				<ellipse transform="matrix(-0.2648 0.9643 -0.9643 -0.2648 139.3234 -105.8804)" clip-path="url(#SVGID_4_)" fill="#F68832" cx="110" cy="0.2" rx="0.3" ry="0.6"/>
			
				<ellipse transform="matrix(-0.2648 0.9643 -0.9643 -0.2648 139.3235 -105.8804)" clip-path="url(#SVGID_4_)" fill="#F68932" cx="110" cy="0.2" rx="0.3" ry="0.5"/>
			
				<ellipse transform="matrix(-0.2648 0.9643 -0.9643 -0.2648 139.3235 -105.8804)" clip-path="url(#SVGID_4_)" fill="#F68A31" cx="110" cy="0.2" rx="0.3" ry="0.5"/>
			
				<ellipse transform="matrix(-0.2648 0.9643 -0.9643 -0.2648 139.3236 -105.8804)" clip-path="url(#SVGID_4_)" fill="#F68B31" cx="110" cy="0.2" rx="0.2" ry="0.4"/>
			
				<ellipse transform="matrix(-0.2648 0.9643 -0.9643 -0.2648 139.3237 -105.8804)" clip-path="url(#SVGID_4_)" fill="#F68C31" cx="110" cy="0.2" rx="0.2" ry="0.4"/>
			
				<ellipse transform="matrix(-0.2648 0.9643 -0.9643 -0.2648 139.3238 -105.8803)" clip-path="url(#SVGID_4_)" fill="#F78D30" cx="110" cy="0.2" rx="0.2" ry="0.3"/>
			
				<ellipse transform="matrix(-0.2648 0.9643 -0.9643 -0.2648 139.3239 -105.8803)" clip-path="url(#SVGID_4_)" fill="#F78E30" cx="110" cy="0.2" rx="0.2" ry="0.3"/>
			
				<ellipse transform="matrix(-0.2649 0.9643 -0.9643 -0.2649 139.3242 -105.8802)" clip-path="url(#SVGID_4_)" fill="#F78E30" cx="110" cy="0.2" rx="0.1" ry="0.2"/>
			
				<ellipse transform="matrix(-0.2649 0.9643 -0.9643 -0.2649 139.3245 -105.8801)" clip-path="url(#SVGID_4_)" fill="#F78F2E" cx="110" cy="0.2" rx="0.1" ry="0.2"/>
			
				<ellipse transform="matrix(-0.2649 0.9643 -0.9643 -0.2649 139.3253 -105.8799)" clip-path="url(#SVGID_4_)" fill="#F7902E" cx="110" cy="0.2" rx="0.1" ry="0.1"/>
			
				<ellipse transform="matrix(-0.2649 0.9643 -0.9643 -0.2649 139.3273 -105.8794)" clip-path="url(#SVGID_4_)" fill="#F7902E" cx="110" cy="0.2" rx="0" ry="0.1"/>
			<ellipse clip-path="url(#SVGID_4_)" fill="#F7912F" cx="110" cy="0.2" rx="0" ry="0"/>
		</g>
	</g>
	<g>
		<g>
			<defs>
				<path id="SVGID_5_" d="M109.7,0.9C112.3,4.2,107-2.3,109.7,0.9L109.7,0.9z"/>
			</defs>
			<clipPath id="SVGID_6_">
				<use xlink:href="#SVGID_5_"  overflow="visible"/>
			</clipPath>
			<rect x="107" y="-2.3" clip-path="url(#SVGID_6_)" fill="#F16040" width="5.3" height="6.5"/>
			
				<ellipse transform="matrix(-0.2648 0.9643 -0.9643 -0.2648 139.3194 -105.8815)" clip-path="url(#SVGID_6_)" fill="#F16040" cx="110" cy="0.2" rx="1.5" ry="2.5"/>
			
				<ellipse transform="matrix(-0.2648 0.9643 -0.9643 -0.2648 139.3193 -105.8816)" clip-path="url(#SVGID_6_)" fill="#F16040" cx="110" cy="0.2" rx="1.5" ry="2.5"/>
			
				<ellipse transform="matrix(-0.2648 0.9643 -0.9643 -0.2648 139.3192 -105.8816)" clip-path="url(#SVGID_6_)" fill="#F2613F" cx="110" cy="0.2" rx="1.4" ry="2.4"/>
			
				<ellipse transform="matrix(-0.2648 0.9643 -0.9643 -0.2648 139.3202 -105.8813)" clip-path="url(#SVGID_6_)" fill="#F2623F" cx="110" cy="0.2" rx="1.4" ry="2.4"/>
			
				<ellipse transform="matrix(-0.2648 0.9643 -0.9643 -0.2648 139.3201 -105.8813)" clip-path="url(#SVGID_6_)" fill="#F2643F" cx="110" cy="0.2" rx="1.4" ry="2.3"/>
			
				<ellipse transform="matrix(-0.2648 0.9643 -0.9643 -0.2648 139.3201 -105.8813)" clip-path="url(#SVGID_6_)" fill="#F2663F" cx="110" cy="0.2" rx="1.4" ry="2.3"/>
			
				<ellipse transform="matrix(-0.2648 0.9643 -0.9643 -0.2648 139.3199 -105.8813)" clip-path="url(#SVGID_6_)" fill="#F2663E" cx="110" cy="0.2" rx="1.3" ry="2.2"/>
			
				<ellipse transform="matrix(-0.2648 0.9643 -0.9643 -0.2648 139.3199 -105.8813)" clip-path="url(#SVGID_6_)" fill="#F2673E" cx="110" cy="0.2" rx="1.3" ry="2.2"/>
			
				<ellipse transform="matrix(-0.2648 0.9643 -0.9643 -0.2648 139.3198 -105.8813)" clip-path="url(#SVGID_6_)" fill="#F2683E" cx="110" cy="0.2" rx="1.3" ry="2.1"/>
			
				<ellipse transform="matrix(-0.2648 0.9643 -0.9643 -0.2648 139.3209 -105.8811)" clip-path="url(#SVGID_6_)" fill="#F2693E" cx="110" cy="0.2" rx="1.2" ry="2.1"/>
			
				<ellipse transform="matrix(-0.2648 0.9643 -0.9643 -0.2648 139.3208 -105.8811)" clip-path="url(#SVGID_6_)" fill="#F26A3E" cx="110" cy="0.2" rx="1.2" ry="2"/>
			
				<ellipse transform="matrix(-0.2648 0.9643 -0.9643 -0.2648 139.3207 -105.8812)" clip-path="url(#SVGID_6_)" fill="#F26B3D" cx="110" cy="0.2" rx="1.2" ry="2"/>
			
				<ellipse transform="matrix(-0.2648 0.9643 -0.9643 -0.2648 139.3207 -105.8812)" clip-path="url(#SVGID_6_)" fill="#F36B3D" cx="110" cy="0.2" rx="1.2" ry="1.9"/>
			
				<ellipse transform="matrix(-0.2648 0.9643 -0.9643 -0.2648 139.3206 -105.8812)" clip-path="url(#SVGID_6_)" fill="#F36D3D" cx="110" cy="0.2" rx="1.1" ry="1.9"/>
			
				<ellipse transform="matrix(-0.2648 0.9643 -0.9643 -0.2648 139.3206 -105.8812)" clip-path="url(#SVGID_6_)" fill="#F36E3B" cx="110" cy="0.2" rx="1.1" ry="1.8"/>
			
				<ellipse transform="matrix(-0.2648 0.9643 -0.9643 -0.2648 139.3205 -105.8812)" clip-path="url(#SVGID_6_)" fill="#F36F3B" cx="110" cy="0.2" rx="1.1" ry="1.8"/>
			
				<ellipse transform="matrix(-0.2648 0.9643 -0.9643 -0.2648 139.3203 -105.8813)" clip-path="url(#SVGID_6_)" fill="#F37139" cx="110" cy="0.2" rx="1" ry="1.7"/>
			
				<ellipse transform="matrix(-0.2648 0.9643 -0.9643 -0.2648 139.3203 -105.8813)" clip-path="url(#SVGID_6_)" fill="#F37239" cx="110" cy="0.2" rx="1" ry="1.7"/>
			
				<ellipse transform="matrix(-0.2648 0.9643 -0.9643 -0.2648 139.3203 -105.8813)" clip-path="url(#SVGID_6_)" fill="#F37239" cx="110" cy="0.2" rx="1" ry="1.6"/>
			
				<ellipse transform="matrix(-0.2648 0.9643 -0.9643 -0.2648 139.3203 -105.8813)" clip-path="url(#SVGID_6_)" fill="#F37438" cx="110" cy="0.2" rx="0.9" ry="1.6"/>
			
				<ellipse transform="matrix(-0.2648 0.9643 -0.9643 -0.2648 139.3201 -105.8813)" clip-path="url(#SVGID_6_)" fill="#F47538" cx="110" cy="0.2" rx="0.9" ry="1.5"/>
			
				<ellipse transform="matrix(-0.2648 0.9643 -0.9643 -0.2648 139.3199 -105.8814)" clip-path="url(#SVGID_6_)" fill="#F47538" cx="110" cy="0.2" rx="0.9" ry="1.5"/>
			
				<ellipse transform="matrix(-0.2648 0.9643 -0.9643 -0.2648 139.3199 -105.8814)" clip-path="url(#SVGID_6_)" fill="#F47637" cx="110" cy="0.2" rx="0.9" ry="1.4"/>
			
				<ellipse transform="matrix(-0.2648 0.9643 -0.9643 -0.2648 139.3198 -105.8814)" clip-path="url(#SVGID_6_)" fill="#F47736" cx="110" cy="0.2" rx="0.8" ry="1.4"/>
			
				<ellipse transform="matrix(-0.2648 0.9643 -0.9643 -0.2648 139.3198 -105.8814)" clip-path="url(#SVGID_6_)" fill="#F47736" cx="110" cy="0.2" rx="0.8" ry="1.3"/>
			
				<ellipse transform="matrix(-0.2648 0.9643 -0.9643 -0.2648 139.3195 -105.8815)" clip-path="url(#SVGID_6_)" fill="#F47936" cx="110" cy="0.2" rx="0.8" ry="1.3"/>
			
				<ellipse transform="matrix(-0.2648 0.9643 -0.9643 -0.2648 139.3193 -105.8816)" clip-path="url(#SVGID_6_)" fill="#F47A34" cx="110" cy="0.2" rx="0.7" ry="1.2"/>
			
				<ellipse transform="matrix(-0.2648 0.9643 -0.9643 -0.2648 139.3213 -105.881)" clip-path="url(#SVGID_6_)" fill="#F47A34" cx="110" cy="0.2" rx="0.7" ry="1.2"/>
			
				<ellipse transform="matrix(-0.2648 0.9643 -0.9643 -0.2648 139.3212 -105.881)" clip-path="url(#SVGID_6_)" fill="#F47C35" cx="110" cy="0.2" rx="0.7" ry="1.1"/>
			
				<ellipse transform="matrix(-0.2648 0.9643 -0.9643 -0.2648 139.3212 -105.881)" clip-path="url(#SVGID_6_)" fill="#F47C33" cx="110" cy="0.2" rx="0.7" ry="1.1"/>
			
				<ellipse transform="matrix(-0.2648 0.9643 -0.9643 -0.2648 139.321 -105.881)" clip-path="url(#SVGID_6_)" fill="#F57E33" cx="110" cy="0.2" rx="0.6" ry="1.1"/>
			
				<ellipse transform="matrix(-0.2648 0.9643 -0.9643 -0.2648 139.3209 -105.8811)" clip-path="url(#SVGID_6_)" fill="#F57F32" cx="110" cy="0.2" rx="0.6" ry="1"/>
			
				<ellipse transform="matrix(-0.2648 0.9643 -0.9643 -0.2648 139.3208 -105.8811)" clip-path="url(#SVGID_6_)" fill="#F57F32" cx="110" cy="0.2" rx="0.6" ry="1"/>
			
				<ellipse transform="matrix(-0.2648 0.9643 -0.9643 -0.2648 139.3207 -105.8811)" clip-path="url(#SVGID_6_)" fill="#F58132" cx="110" cy="0.2" rx="0.5" ry="0.9"/>
			
				<ellipse transform="matrix(-0.2648 0.9643 -0.9643 -0.2648 139.3233 -105.8805)" clip-path="url(#SVGID_6_)" fill="#F58231" cx="110" cy="0.2" rx="0.5" ry="0.9"/>
			
				<ellipse transform="matrix(-0.2648 0.9643 -0.9643 -0.2648 139.3233 -105.8805)" clip-path="url(#SVGID_6_)" fill="#F58331" cx="110" cy="0.2" rx="0.5" ry="0.8"/>
			
				<ellipse transform="matrix(-0.2648 0.9643 -0.9643 -0.2648 139.3233 -105.8805)" clip-path="url(#SVGID_6_)" fill="#F58431" cx="110" cy="0.2" rx="0.4" ry="0.8"/>
			
				<ellipse transform="matrix(-0.2648 0.9643 -0.9643 -0.2648 139.3233 -105.8804)" clip-path="url(#SVGID_6_)" fill="#F58531" cx="110" cy="0.2" rx="0.4" ry="0.7"/>
			
				<ellipse transform="matrix(-0.2648 0.9643 -0.9643 -0.2648 139.3234 -105.8804)" clip-path="url(#SVGID_6_)" fill="#F68632" cx="110" cy="0.2" rx="0.4" ry="0.7"/>
			
				<ellipse transform="matrix(-0.2648 0.9643 -0.9643 -0.2648 139.3234 -105.8804)" clip-path="url(#SVGID_6_)" fill="#F68732" cx="110" cy="0.2" rx="0.4" ry="0.6"/>
			
				<ellipse transform="matrix(-0.2648 0.9643 -0.9643 -0.2648 139.3234 -105.8804)" clip-path="url(#SVGID_6_)" fill="#F68832" cx="110" cy="0.2" rx="0.3" ry="0.6"/>
			
				<ellipse transform="matrix(-0.2648 0.9643 -0.9643 -0.2648 139.3235 -105.8804)" clip-path="url(#SVGID_6_)" fill="#F68932" cx="110" cy="0.2" rx="0.3" ry="0.5"/>
			
				<ellipse transform="matrix(-0.2648 0.9643 -0.9643 -0.2648 139.3235 -105.8804)" clip-path="url(#SVGID_6_)" fill="#F68A31" cx="110" cy="0.2" rx="0.3" ry="0.5"/>
			
				<ellipse transform="matrix(-0.2648 0.9643 -0.9643 -0.2648 139.3236 -105.8804)" clip-path="url(#SVGID_6_)" fill="#F68B31" cx="110" cy="0.2" rx="0.2" ry="0.4"/>
			
				<ellipse transform="matrix(-0.2648 0.9643 -0.9643 -0.2648 139.3237 -105.8804)" clip-path="url(#SVGID_6_)" fill="#F68C31" cx="110" cy="0.2" rx="0.2" ry="0.4"/>
			
				<ellipse transform="matrix(-0.2648 0.9643 -0.9643 -0.2648 139.3238 -105.8803)" clip-path="url(#SVGID_6_)" fill="#F78D30" cx="110" cy="0.2" rx="0.2" ry="0.3"/>
			
				<ellipse transform="matrix(-0.2648 0.9643 -0.9643 -0.2648 139.3239 -105.8803)" clip-path="url(#SVGID_6_)" fill="#F78E30" cx="110" cy="0.2" rx="0.2" ry="0.3"/>
			
				<ellipse transform="matrix(-0.2649 0.9643 -0.9643 -0.2649 139.3242 -105.8802)" clip-path="url(#SVGID_6_)" fill="#F78E30" cx="110" cy="0.2" rx="0.1" ry="0.2"/>
			
				<ellipse transform="matrix(-0.2649 0.9643 -0.9643 -0.2649 139.3245 -105.8801)" clip-path="url(#SVGID_6_)" fill="#F78F2E" cx="110" cy="0.2" rx="0.1" ry="0.2"/>
			
				<ellipse transform="matrix(-0.2649 0.9643 -0.9643 -0.2649 139.3253 -105.8799)" clip-path="url(#SVGID_6_)" fill="#F7902E" cx="110" cy="0.2" rx="0.1" ry="0.1"/>
			
				<ellipse transform="matrix(-0.2649 0.9643 -0.9643 -0.2649 139.3273 -105.8794)" clip-path="url(#SVGID_6_)" fill="#F7902E" cx="110" cy="0.2" rx="0" ry="0.1"/>
			<ellipse clip-path="url(#SVGID_6_)" fill="#F7912F" cx="110" cy="0.2" rx="0" ry="0"/>
		</g>
	</g>
	<g>
		<g>
			<g>
				<defs>
					<path id="SVGID_7_" d="M93.4,173.4C91,176.5,95.9,170.4,93.4,173.4L93.4,173.4z"/>
				</defs>
				<clipPath id="SVGID_8_">
					<use xlink:href="#SVGID_7_"  overflow="visible"/>
				</clipPath>
				<rect x="91" y="170.4" clip-path="url(#SVGID_8_)" fill="#F16040" width="4.9" height="6.1"/>
				
					<ellipse transform="matrix(0.2648 0.9643 -0.9643 0.2648 234.9978 37.2214)" clip-path="url(#SVGID_8_)" fill="#F16040" cx="93.1" cy="172.7" rx="1.4" ry="2.4"/>
				
					<ellipse transform="matrix(0.2648 0.9643 -0.9643 0.2648 234.9999 37.2236)" clip-path="url(#SVGID_8_)" fill="#F16040" cx="93.1" cy="172.7" rx="1.4" ry="2.3"/>
				
					<ellipse transform="matrix(0.2648 0.9643 -0.9643 0.2648 234.9961 37.2196)" clip-path="url(#SVGID_8_)" fill="#F2613F" cx="93.1" cy="172.7" rx="1.4" ry="2.3"/>
				
					<ellipse transform="matrix(0.2648 0.9643 -0.9643 0.2648 234.9969 37.2205)" clip-path="url(#SVGID_8_)" fill="#F2623F" cx="93.1" cy="172.7" rx="1.3" ry="2.2"/>
				
					<ellipse transform="matrix(0.2648 0.9643 -0.9643 0.2648 234.9928 37.2162)" clip-path="url(#SVGID_8_)" fill="#F2643F" cx="93.1" cy="172.7" rx="1.3" ry="2.2"/>
				
					<ellipse transform="matrix(0.2648 0.9643 -0.9643 0.2648 234.9951 37.2186)" clip-path="url(#SVGID_8_)" fill="#F2663F" cx="93.1" cy="172.7" rx="1.3" ry="2.1"/>
				
					<ellipse transform="matrix(0.2648 0.9643 -0.9643 0.2648 234.9959 37.2195)" clip-path="url(#SVGID_8_)" fill="#F2663E" cx="93.1" cy="172.7" rx="1.2" ry="2.1"/>
				
					<ellipse transform="matrix(0.2648 0.9643 -0.9643 0.2648 234.9915 37.2148)" clip-path="url(#SVGID_8_)" fill="#F2673E" cx="93.1" cy="172.7" rx="1.2" ry="2"/>
				
					<ellipse transform="matrix(0.2648 0.9643 -0.9643 0.2648 234.9994 37.2231)" clip-path="url(#SVGID_8_)" fill="#F2683E" cx="93.1" cy="172.7" rx="1.2" ry="2"/>
				
					<ellipse transform="matrix(0.2648 0.9643 -0.9643 0.2648 234.9947 37.2184)" clip-path="url(#SVGID_8_)" fill="#F2693E" cx="93.1" cy="172.7" rx="1.2" ry="2"/>
				
					<ellipse transform="matrix(0.2648 0.9643 -0.9643 0.2648 235.0016 37.2254)" clip-path="url(#SVGID_8_)" fill="#F26A3E" cx="93.1" cy="172.7" rx="1.1" ry="1.9"/>
				
					<ellipse transform="matrix(0.2648 0.9643 -0.9643 0.2648 234.9985 37.2222)" clip-path="url(#SVGID_8_)" fill="#F26B3D" cx="93.1" cy="172.7" rx="1.1" ry="1.9"/>
				
					<ellipse transform="matrix(0.2648 0.9643 -0.9643 0.2648 235.0013 37.2251)" clip-path="url(#SVGID_8_)" fill="#F36B3D" cx="93.1" cy="172.7" rx="1.1" ry="1.8"/>
				
					<ellipse transform="matrix(0.2648 0.9643 -0.9643 0.2648 234.9964 37.2199)" clip-path="url(#SVGID_8_)" fill="#F36D3D" cx="93.1" cy="172.7" rx="1" ry="1.8"/>
				
					<ellipse transform="matrix(0.2648 0.9643 -0.9643 0.2648 234.9975 37.2211)" clip-path="url(#SVGID_8_)" fill="#F36E3B" cx="93.1" cy="172.7" rx="1" ry="1.7"/>
				
					<ellipse transform="matrix(0.2648 0.9643 -0.9643 0.2648 235.0005 37.2242)" clip-path="url(#SVGID_8_)" fill="#F36F3B" cx="93.1" cy="172.7" rx="1" ry="1.7"/>
				
					<ellipse transform="matrix(0.2648 0.9643 -0.9643 0.2648 234.9951 37.2185)" clip-path="url(#SVGID_8_)" fill="#F37139" cx="93.1" cy="172.7" rx="1" ry="1.6"/>
				
					<ellipse transform="matrix(0.2648 0.9643 -0.9643 0.2648 234.9962 37.2198)" clip-path="url(#SVGID_8_)" fill="#F37239" cx="93.1" cy="172.7" rx="0.9" ry="1.6"/>
				
					<ellipse transform="matrix(0.2648 0.9643 -0.9643 0.2648 234.9923 37.2156)" clip-path="url(#SVGID_8_)" fill="#F37239" cx="93.1" cy="172.7" rx="0.9" ry="1.5"/>
				
					<ellipse transform="matrix(0.2648 0.9643 -0.9643 0.2648 234.9936 37.2169)" clip-path="url(#SVGID_8_)" fill="#F37438" cx="93.1" cy="172.7" rx="0.9" ry="1.5"/>
				
					<ellipse transform="matrix(0.2648 0.9643 -0.9643 0.2648 234.9948 37.2182)" clip-path="url(#SVGID_8_)" fill="#F47538" cx="93.1" cy="172.7" rx="0.9" ry="1.4"/>
				
					<ellipse transform="matrix(0.2648 0.9643 -0.9643 0.2648 234.9983 37.2219)" clip-path="url(#SVGID_8_)" fill="#F47538" cx="93.1" cy="172.7" rx="0.8" ry="1.4"/>
				
					<ellipse transform="matrix(0.2648 0.9643 -0.9643 0.2648 234.9998 37.2235)" clip-path="url(#SVGID_8_)" fill="#F47637" cx="93.1" cy="172.7" rx="0.8" ry="1.4"/>
				
					<ellipse transform="matrix(0.2648 0.9643 -0.9643 0.2648 235.0014 37.2252)" clip-path="url(#SVGID_8_)" fill="#F47736" cx="93.1" cy="172.7" rx="0.8" ry="1.3"/>
				
					<ellipse transform="matrix(0.2647 0.9643 -0.9643 0.2647 235.0055 37.2295)" clip-path="url(#SVGID_8_)" fill="#F47736" cx="93.1" cy="172.7" rx="0.7" ry="1.3"/>
				
					<ellipse transform="matrix(0.2648 0.9643 -0.9643 0.2648 234.9985 37.2221)" clip-path="url(#SVGID_8_)" fill="#F47936" cx="93.1" cy="172.7" rx="0.7" ry="1.2"/>
				
					<ellipse transform="matrix(0.2648 0.9643 -0.9643 0.2648 235.0002 37.2239)" clip-path="url(#SVGID_8_)" fill="#F47A34" cx="93.1" cy="172.7" rx="0.7" ry="1.2"/>
				
					<ellipse transform="matrix(0.2648 0.9643 -0.9643 0.2648 234.9923 37.2157)" clip-path="url(#SVGID_8_)" fill="#F47A34" cx="93.1" cy="172.7" rx="0.7" ry="1.1"/>
				
					<ellipse transform="matrix(0.2648 0.9643 -0.9643 0.2648 234.9968 37.2203)" clip-path="url(#SVGID_8_)" fill="#F47C35" cx="93.1" cy="172.7" rx="0.6" ry="1.1"/>
				
					<ellipse transform="matrix(0.2648 0.9643 -0.9643 0.2648 234.9986 37.2223)" clip-path="url(#SVGID_8_)" fill="#F47C33" cx="93.1" cy="172.7" rx="0.6" ry="1"/>
				
					<ellipse transform="matrix(0.2649 0.9643 -0.9643 0.2649 234.9896 37.2128)" clip-path="url(#SVGID_8_)" fill="#F57E33" cx="93.1" cy="172.7" rx="0.6" ry="1"/>
				
					<ellipse transform="matrix(0.2649 0.9643 -0.9643 0.2649 234.9828 37.2057)" clip-path="url(#SVGID_8_)" fill="#F57F32" cx="93.1" cy="172.7" rx="0.6" ry="0.9"/>
				
					<ellipse transform="matrix(0.2649 0.9643 -0.9643 0.2649 234.9842 37.2072)" clip-path="url(#SVGID_8_)" fill="#F57F32" cx="93.1" cy="172.7" rx="0.5" ry="0.9"/>
				
					<ellipse transform="matrix(0.2648 0.9643 -0.9643 0.2648 234.9989 37.2228)" clip-path="url(#SVGID_8_)" fill="#F58132" cx="93.1" cy="172.7" rx="0.5" ry="0.8"/>
				
					<ellipse transform="matrix(0.2647 0.9643 -0.9643 0.2647 235.0054 37.2294)" clip-path="url(#SVGID_8_)" fill="#F58231" cx="93.1" cy="172.7" rx="0.5" ry="0.8"/>
				
					<ellipse transform="matrix(0.2647 0.9643 -0.9643 0.2647 235.0125 37.2369)" clip-path="url(#SVGID_8_)" fill="#F58331" cx="93.1" cy="172.7" rx="0.4" ry="0.7"/>
				
					<ellipse transform="matrix(0.2648 0.9643 -0.9643 0.2648 235.0008 37.2245)" clip-path="url(#SVGID_8_)" fill="#F58431" cx="93.1" cy="172.7" rx="0.4" ry="0.7"/>
				
					<ellipse transform="matrix(0.2647 0.9643 -0.9643 0.2647 235.0087 37.2328)" clip-path="url(#SVGID_8_)" fill="#F58531" cx="93.1" cy="172.7" rx="0.4" ry="0.7"/>
				
					<ellipse transform="matrix(0.2647 0.9643 -0.9643 0.2647 235.0128 37.2371)" clip-path="url(#SVGID_8_)" fill="#F68632" cx="93.1" cy="172.7" rx="0.4" ry="0.6"/>
				
					<ellipse transform="matrix(0.2648 0.9643 -0.9643 0.2648 234.9981 37.2217)" clip-path="url(#SVGID_8_)" fill="#F68732" cx="93.1" cy="172.7" rx="0.3" ry="0.6"/>
				
					<ellipse transform="matrix(0.2649 0.9643 -0.9643 0.2649 234.9807 37.2035)" clip-path="url(#SVGID_8_)" fill="#F68832" cx="93.1" cy="172.7" rx="0.3" ry="0.5"/>
				
					<ellipse transform="matrix(0.2649 0.9643 -0.9643 0.2649 234.9897 37.213)" clip-path="url(#SVGID_8_)" fill="#F68932" cx="93.1" cy="172.7" rx="0.3" ry="0.5"/>
				
					<ellipse transform="matrix(0.2648 0.9643 -0.9643 0.2648 234.9937 37.2171)" clip-path="url(#SVGID_8_)" fill="#F68A31" cx="93.1" cy="172.7" rx="0.3" ry="0.4"/>
				
					<ellipse transform="matrix(0.265 0.9642 -0.9642 0.265 234.9693 37.1916)" clip-path="url(#SVGID_8_)" fill="#F68B31" cx="93.1" cy="172.7" rx="0.2" ry="0.4"/>
				
					<ellipse transform="matrix(0.265 0.9643 -0.9643 0.265 234.9715 37.1939)" clip-path="url(#SVGID_8_)" fill="#F68C31" cx="93.1" cy="172.7" rx="0.2" ry="0.3"/>
				
					<ellipse transform="matrix(0.2649 0.9643 -0.9643 0.2649 234.9849 37.2081)" clip-path="url(#SVGID_8_)" fill="#F78D30" cx="93.1" cy="172.7" rx="0.2" ry="0.3"/>
				
					<ellipse transform="matrix(0.2649 0.9643 -0.9643 0.2649 234.9908 37.2143)" clip-path="url(#SVGID_8_)" fill="#F78E30" cx="93.1" cy="172.7" rx="0.1" ry="0.2"/>
				
					<ellipse transform="matrix(0.2644 0.9644 -0.9644 0.2644 235.0573 37.2837)" clip-path="url(#SVGID_8_)" fill="#F78E30" cx="93.1" cy="172.7" rx="0.1" ry="0.2"/>
				
					<ellipse transform="matrix(0.2645 0.9644 -0.9644 0.2645 235.0352 37.2606)" clip-path="url(#SVGID_8_)" fill="#F78F2E" cx="93.1" cy="172.7" rx="0.1" ry="0.1"/>
				
					<ellipse transform="matrix(0.2651 0.9642 -0.9642 0.2651 234.9621 37.184)" clip-path="url(#SVGID_8_)" fill="#F7902E" cx="93.1" cy="172.7" rx="0.1" ry="0.1"/>
				
					<ellipse transform="matrix(0.265 0.9642 -0.9642 0.265 234.9691 37.1914)" clip-path="url(#SVGID_8_)" fill="#F7902E" cx="93.1" cy="172.7" rx="0" ry="0.1"/>
				<ellipse clip-path="url(#SVGID_8_)" fill="#F7912F" cx="93.1" cy="172.7" rx="0" ry="0"/>
			</g>
		</g>
	</g>
	<g>
		<g>
			<defs>
				<path id="SVGID_9_" d="M93.4,173.4C91,176.5,95.9,170.4,93.4,173.4L93.4,173.4z"/>
			</defs>
			<clipPath id="SVGID_10_">
				<use xlink:href="#SVGID_9_"  overflow="visible"/>
			</clipPath>
			<rect x="91" y="170.4" clip-path="url(#SVGID_10_)" fill="#F16040" width="4.9" height="6.1"/>
			
				<ellipse transform="matrix(0.2648 0.9643 -0.9643 0.2648 234.9978 37.2214)" clip-path="url(#SVGID_10_)" fill="#F16040" cx="93.1" cy="172.7" rx="1.4" ry="2.4"/>
			
				<ellipse transform="matrix(0.2648 0.9643 -0.9643 0.2648 234.9999 37.2236)" clip-path="url(#SVGID_10_)" fill="#F16040" cx="93.1" cy="172.7" rx="1.4" ry="2.3"/>
			
				<ellipse transform="matrix(0.2648 0.9643 -0.9643 0.2648 234.9961 37.2196)" clip-path="url(#SVGID_10_)" fill="#F2613F" cx="93.1" cy="172.7" rx="1.4" ry="2.3"/>
			
				<ellipse transform="matrix(0.2648 0.9643 -0.9643 0.2648 234.9969 37.2205)" clip-path="url(#SVGID_10_)" fill="#F2623F" cx="93.1" cy="172.7" rx="1.3" ry="2.2"/>
			
				<ellipse transform="matrix(0.2648 0.9643 -0.9643 0.2648 234.9928 37.2162)" clip-path="url(#SVGID_10_)" fill="#F2643F" cx="93.1" cy="172.7" rx="1.3" ry="2.2"/>
			
				<ellipse transform="matrix(0.2648 0.9643 -0.9643 0.2648 234.9951 37.2186)" clip-path="url(#SVGID_10_)" fill="#F2663F" cx="93.1" cy="172.7" rx="1.3" ry="2.1"/>
			
				<ellipse transform="matrix(0.2648 0.9643 -0.9643 0.2648 234.9959 37.2195)" clip-path="url(#SVGID_10_)" fill="#F2663E" cx="93.1" cy="172.7" rx="1.2" ry="2.1"/>
			
				<ellipse transform="matrix(0.2648 0.9643 -0.9643 0.2648 234.9915 37.2148)" clip-path="url(#SVGID_10_)" fill="#F2673E" cx="93.1" cy="172.7" rx="1.2" ry="2"/>
			
				<ellipse transform="matrix(0.2648 0.9643 -0.9643 0.2648 234.9994 37.2231)" clip-path="url(#SVGID_10_)" fill="#F2683E" cx="93.1" cy="172.7" rx="1.2" ry="2"/>
			
				<ellipse transform="matrix(0.2648 0.9643 -0.9643 0.2648 234.9963 37.2201)" clip-path="url(#SVGID_10_)" fill="#F2693E" cx="93.1" cy="172.7" rx="1.2" ry="2"/>
			
				<ellipse transform="matrix(0.2648 0.9643 -0.9643 0.2648 235.0033 37.2271)" clip-path="url(#SVGID_10_)" fill="#F26A3E" cx="93.1" cy="172.7" rx="1.1" ry="1.9"/>
			
				<ellipse transform="matrix(0.2648 0.9643 -0.9643 0.2648 234.9985 37.2222)" clip-path="url(#SVGID_10_)" fill="#F26B3D" cx="93.1" cy="172.7" rx="1.1" ry="1.9"/>
			
				<ellipse transform="matrix(0.2648 0.9643 -0.9643 0.2648 235.0013 37.2251)" clip-path="url(#SVGID_10_)" fill="#F36B3D" cx="93.1" cy="172.7" rx="1.1" ry="1.8"/>
			
				<ellipse transform="matrix(0.2648 0.9643 -0.9643 0.2648 234.9964 37.2199)" clip-path="url(#SVGID_10_)" fill="#F36D3D" cx="93.1" cy="172.7" rx="1" ry="1.8"/>
			
				<ellipse transform="matrix(0.2648 0.9643 -0.9643 0.2648 234.9975 37.2211)" clip-path="url(#SVGID_10_)" fill="#F36E3B" cx="93.1" cy="172.7" rx="1" ry="1.7"/>
			
				<ellipse transform="matrix(0.2648 0.9643 -0.9643 0.2648 235.0005 37.2242)" clip-path="url(#SVGID_10_)" fill="#F36F3B" cx="93.1" cy="172.7" rx="1" ry="1.7"/>
			
				<ellipse transform="matrix(0.2648 0.9643 -0.9643 0.2648 234.9951 37.2185)" clip-path="url(#SVGID_10_)" fill="#F37139" cx="93.1" cy="172.7" rx="1" ry="1.6"/>
			
				<ellipse transform="matrix(0.2648 0.9643 -0.9643 0.2648 234.9962 37.2198)" clip-path="url(#SVGID_10_)" fill="#F37239" cx="93.1" cy="172.7" rx="0.9" ry="1.6"/>
			
				<ellipse transform="matrix(0.2648 0.9643 -0.9643 0.2648 234.9923 37.2156)" clip-path="url(#SVGID_10_)" fill="#F37239" cx="93.1" cy="172.7" rx="0.9" ry="1.5"/>
			
				<ellipse transform="matrix(0.2648 0.9643 -0.9643 0.2648 234.9936 37.2169)" clip-path="url(#SVGID_10_)" fill="#F37438" cx="93.1" cy="172.7" rx="0.9" ry="1.5"/>
			
				<ellipse transform="matrix(0.2648 0.9643 -0.9643 0.2648 234.9948 37.2182)" clip-path="url(#SVGID_10_)" fill="#F47538" cx="93.1" cy="172.7" rx="0.9" ry="1.4"/>
			
				<ellipse transform="matrix(0.2648 0.9643 -0.9643 0.2648 234.9983 37.2219)" clip-path="url(#SVGID_10_)" fill="#F47538" cx="93.1" cy="172.7" rx="0.8" ry="1.4"/>
			
				<ellipse transform="matrix(0.2648 0.9643 -0.9643 0.2648 234.9998 37.2235)" clip-path="url(#SVGID_10_)" fill="#F47637" cx="93.1" cy="172.7" rx="0.8" ry="1.4"/>
			
				<ellipse transform="matrix(0.2648 0.9643 -0.9643 0.2648 235.0014 37.2252)" clip-path="url(#SVGID_10_)" fill="#F47736" cx="93.1" cy="172.7" rx="0.8" ry="1.3"/>
			
				<ellipse transform="matrix(0.2647 0.9643 -0.9643 0.2647 235.0055 37.2295)" clip-path="url(#SVGID_10_)" fill="#F47736" cx="93.1" cy="172.7" rx="0.7" ry="1.3"/>
			
				<ellipse transform="matrix(0.2648 0.9643 -0.9643 0.2648 234.9985 37.2221)" clip-path="url(#SVGID_10_)" fill="#F47936" cx="93.1" cy="172.7" rx="0.7" ry="1.2"/>
			
				<ellipse transform="matrix(0.2648 0.9643 -0.9643 0.2648 235.0002 37.2239)" clip-path="url(#SVGID_10_)" fill="#F47A34" cx="93.1" cy="172.7" rx="0.7" ry="1.2"/>
			
				<ellipse transform="matrix(0.2648 0.9643 -0.9643 0.2648 234.9923 37.2157)" clip-path="url(#SVGID_10_)" fill="#F47A34" cx="93.1" cy="172.7" rx="0.7" ry="1.1"/>
			
				<ellipse transform="matrix(0.2648 0.9643 -0.9643 0.2648 234.9968 37.2203)" clip-path="url(#SVGID_10_)" fill="#F47C35" cx="93.1" cy="172.7" rx="0.6" ry="1.1"/>
			
				<ellipse transform="matrix(0.2648 0.9643 -0.9643 0.2648 234.9986 37.2223)" clip-path="url(#SVGID_10_)" fill="#F47C33" cx="93.1" cy="172.7" rx="0.6" ry="1"/>
			
				<ellipse transform="matrix(0.2649 0.9643 -0.9643 0.2649 234.9896 37.2128)" clip-path="url(#SVGID_10_)" fill="#F57E33" cx="93.1" cy="172.7" rx="0.6" ry="1"/>
			
				<ellipse transform="matrix(0.2649 0.9643 -0.9643 0.2649 234.9828 37.2057)" clip-path="url(#SVGID_10_)" fill="#F57F32" cx="93.1" cy="172.7" rx="0.6" ry="0.9"/>
			
				<ellipse transform="matrix(0.2649 0.9643 -0.9643 0.2649 234.9842 37.2072)" clip-path="url(#SVGID_10_)" fill="#F57F32" cx="93.1" cy="172.7" rx="0.5" ry="0.9"/>
			
				<ellipse transform="matrix(0.2648 0.9643 -0.9643 0.2648 234.9989 37.2228)" clip-path="url(#SVGID_10_)" fill="#F58132" cx="93.1" cy="172.7" rx="0.5" ry="0.8"/>
			
				<ellipse transform="matrix(0.2647 0.9643 -0.9643 0.2647 235.0054 37.2294)" clip-path="url(#SVGID_10_)" fill="#F58231" cx="93.1" cy="172.7" rx="0.5" ry="0.8"/>
			
				<ellipse transform="matrix(0.2647 0.9643 -0.9643 0.2647 235.0086 37.2327)" clip-path="url(#SVGID_10_)" fill="#F58331" cx="93.1" cy="172.7" rx="0.4" ry="0.7"/>
			
				<ellipse transform="matrix(0.2648 0.9643 -0.9643 0.2648 234.9965 37.2201)" clip-path="url(#SVGID_10_)" fill="#F58431" cx="93.1" cy="172.7" rx="0.4" ry="0.7"/>
			
				<ellipse transform="matrix(0.2647 0.9643 -0.9643 0.2647 235.0087 37.2328)" clip-path="url(#SVGID_10_)" fill="#F58531" cx="93.1" cy="172.7" rx="0.4" ry="0.7"/>
			
				<ellipse transform="matrix(0.2647 0.9643 -0.9643 0.2647 235.0128 37.2371)" clip-path="url(#SVGID_10_)" fill="#F68632" cx="93.1" cy="172.7" rx="0.4" ry="0.6"/>
			
				<ellipse transform="matrix(0.2648 0.9643 -0.9643 0.2648 234.9981 37.2217)" clip-path="url(#SVGID_10_)" fill="#F68732" cx="93.1" cy="172.7" rx="0.3" ry="0.6"/>
			
				<ellipse transform="matrix(0.2649 0.9643 -0.9643 0.2649 234.9807 37.2035)" clip-path="url(#SVGID_10_)" fill="#F68832" cx="93.1" cy="172.7" rx="0.3" ry="0.5"/>
			
				<ellipse transform="matrix(0.2649 0.9643 -0.9643 0.2649 234.9897 37.213)" clip-path="url(#SVGID_10_)" fill="#F68932" cx="93.1" cy="172.7" rx="0.3" ry="0.5"/>
			
				<ellipse transform="matrix(0.2648 0.9643 -0.9643 0.2648 234.9937 37.2171)" clip-path="url(#SVGID_10_)" fill="#F68A31" cx="93.1" cy="172.7" rx="0.3" ry="0.4"/>
			
				<ellipse transform="matrix(0.265 0.9642 -0.9642 0.265 234.9693 37.1916)" clip-path="url(#SVGID_10_)" fill="#F68B31" cx="93.1" cy="172.7" rx="0.2" ry="0.4"/>
			
				<ellipse transform="matrix(0.265 0.9643 -0.9643 0.265 234.9715 37.1939)" clip-path="url(#SVGID_10_)" fill="#F68C31" cx="93.1" cy="172.7" rx="0.2" ry="0.3"/>
			
				<ellipse transform="matrix(0.2649 0.9643 -0.9643 0.2649 234.9849 37.2081)" clip-path="url(#SVGID_10_)" fill="#F78D30" cx="93.1" cy="172.7" rx="0.2" ry="0.3"/>
			
				<ellipse transform="matrix(0.2649 0.9643 -0.9643 0.2649 234.9908 37.2143)" clip-path="url(#SVGID_10_)" fill="#F78E30" cx="93.1" cy="172.7" rx="0.1" ry="0.2"/>
			
				<ellipse transform="matrix(0.2644 0.9644 -0.9644 0.2644 235.0573 37.2837)" clip-path="url(#SVGID_10_)" fill="#F78E30" cx="93.1" cy="172.7" rx="0.1" ry="0.2"/>
			
				<ellipse transform="matrix(0.2645 0.9644 -0.9644 0.2645 235.0352 37.2606)" clip-path="url(#SVGID_10_)" fill="#F78F2E" cx="93.1" cy="172.7" rx="0.1" ry="0.1"/>
			
				<ellipse transform="matrix(0.2651 0.9642 -0.9642 0.2651 234.9621 37.184)" clip-path="url(#SVGID_10_)" fill="#F7902E" cx="93.1" cy="172.7" rx="0.1" ry="0.1"/>
			
				<ellipse transform="matrix(0.2646 0.9644 -0.9644 0.2646 235.0264 37.2513)" clip-path="url(#SVGID_10_)" fill="#F7902E" cx="93.1" cy="172.7" rx="0" ry="0.1"/>
			<ellipse clip-path="url(#SVGID_10_)" fill="#F7912F" cx="93.1" cy="172.7" rx="0" ry="0"/>
		</g>
	</g>
	<g>
		<g>
			<defs>
				<path id="SVGID_11_" d="M93.4,173.4C91,176.5,95.9,170.4,93.4,173.4L93.4,173.4z"/>
			</defs>
			<clipPath id="SVGID_12_">
				<use xlink:href="#SVGID_11_"  overflow="visible"/>
			</clipPath>
			<rect x="91" y="170.4" clip-path="url(#SVGID_12_)" fill="#F16040" width="4.9" height="6.1"/>
			
				<ellipse transform="matrix(0.2648 0.9643 -0.9643 0.2648 234.9978 37.2214)" clip-path="url(#SVGID_12_)" fill="#F16040" cx="93.1" cy="172.7" rx="1.4" ry="2.4"/>
			
				<ellipse transform="matrix(0.2648 0.9643 -0.9643 0.2648 234.9999 37.2236)" clip-path="url(#SVGID_12_)" fill="#F16040" cx="93.1" cy="172.7" rx="1.4" ry="2.3"/>
			
				<ellipse transform="matrix(0.2648 0.9643 -0.9643 0.2648 234.9961 37.2196)" clip-path="url(#SVGID_12_)" fill="#F2613F" cx="93.1" cy="172.7" rx="1.4" ry="2.3"/>
			
				<ellipse transform="matrix(0.2648 0.9643 -0.9643 0.2648 234.9969 37.2205)" clip-path="url(#SVGID_12_)" fill="#F2623F" cx="93.1" cy="172.7" rx="1.3" ry="2.2"/>
			
				<ellipse transform="matrix(0.2648 0.9643 -0.9643 0.2648 234.9928 37.2162)" clip-path="url(#SVGID_12_)" fill="#F2643F" cx="93.1" cy="172.7" rx="1.3" ry="2.2"/>
			
				<ellipse transform="matrix(0.2648 0.9643 -0.9643 0.2648 234.9951 37.2186)" clip-path="url(#SVGID_12_)" fill="#F2663F" cx="93.1" cy="172.7" rx="1.3" ry="2.1"/>
			
				<ellipse transform="matrix(0.2648 0.9643 -0.9643 0.2648 234.9959 37.2195)" clip-path="url(#SVGID_12_)" fill="#F2663E" cx="93.1" cy="172.7" rx="1.2" ry="2.1"/>
			
				<ellipse transform="matrix(0.2648 0.9643 -0.9643 0.2648 234.9915 37.2148)" clip-path="url(#SVGID_12_)" fill="#F2673E" cx="93.1" cy="172.7" rx="1.2" ry="2"/>
			
				<ellipse transform="matrix(0.2648 0.9643 -0.9643 0.2648 234.9994 37.2231)" clip-path="url(#SVGID_12_)" fill="#F2683E" cx="93.1" cy="172.7" rx="1.2" ry="2"/>
			
				<ellipse transform="matrix(0.2648 0.9643 -0.9643 0.2648 234.9963 37.2201)" clip-path="url(#SVGID_12_)" fill="#F2693E" cx="93.1" cy="172.7" rx="1.2" ry="2"/>
			
				<ellipse transform="matrix(0.2648 0.9643 -0.9643 0.2648 235.0033 37.2271)" clip-path="url(#SVGID_12_)" fill="#F26A3E" cx="93.1" cy="172.7" rx="1.1" ry="1.9"/>
			
				<ellipse transform="matrix(0.2648 0.9643 -0.9643 0.2648 234.9985 37.2222)" clip-path="url(#SVGID_12_)" fill="#F26B3D" cx="93.1" cy="172.7" rx="1.1" ry="1.9"/>
			
				<ellipse transform="matrix(0.2648 0.9643 -0.9643 0.2648 235.0013 37.2251)" clip-path="url(#SVGID_12_)" fill="#F36B3D" cx="93.1" cy="172.7" rx="1.1" ry="1.8"/>
			
				<ellipse transform="matrix(0.2648 0.9643 -0.9643 0.2648 234.9964 37.2199)" clip-path="url(#SVGID_12_)" fill="#F36D3D" cx="93.1" cy="172.7" rx="1" ry="1.8"/>
			
				<ellipse transform="matrix(0.2648 0.9643 -0.9643 0.2648 234.9975 37.2211)" clip-path="url(#SVGID_12_)" fill="#F36E3B" cx="93.1" cy="172.7" rx="1" ry="1.7"/>
			
				<ellipse transform="matrix(0.2648 0.9643 -0.9643 0.2648 235.0005 37.2242)" clip-path="url(#SVGID_12_)" fill="#F36F3B" cx="93.1" cy="172.7" rx="1" ry="1.7"/>
			
				<ellipse transform="matrix(0.2648 0.9643 -0.9643 0.2648 234.9951 37.2185)" clip-path="url(#SVGID_12_)" fill="#F37139" cx="93.1" cy="172.7" rx="1" ry="1.6"/>
			
				<ellipse transform="matrix(0.2648 0.9643 -0.9643 0.2648 234.9962 37.2198)" clip-path="url(#SVGID_12_)" fill="#F37239" cx="93.1" cy="172.7" rx="0.9" ry="1.6"/>
			
				<ellipse transform="matrix(0.2648 0.9643 -0.9643 0.2648 234.9923 37.2156)" clip-path="url(#SVGID_12_)" fill="#F37239" cx="93.1" cy="172.7" rx="0.9" ry="1.5"/>
			
				<ellipse transform="matrix(0.2648 0.9643 -0.9643 0.2648 234.9936 37.2169)" clip-path="url(#SVGID_12_)" fill="#F37438" cx="93.1" cy="172.7" rx="0.9" ry="1.5"/>
			
				<ellipse transform="matrix(0.2648 0.9643 -0.9643 0.2648 234.9948 37.2182)" clip-path="url(#SVGID_12_)" fill="#F47538" cx="93.1" cy="172.7" rx="0.9" ry="1.4"/>
			
				<ellipse transform="matrix(0.2648 0.9643 -0.9643 0.2648 234.9983 37.2219)" clip-path="url(#SVGID_12_)" fill="#F47538" cx="93.1" cy="172.7" rx="0.8" ry="1.4"/>
			
				<ellipse transform="matrix(0.2648 0.9643 -0.9643 0.2648 234.9998 37.2235)" clip-path="url(#SVGID_12_)" fill="#F47637" cx="93.1" cy="172.7" rx="0.8" ry="1.4"/>
			
				<ellipse transform="matrix(0.2648 0.9643 -0.9643 0.2648 235.0014 37.2252)" clip-path="url(#SVGID_12_)" fill="#F47736" cx="93.1" cy="172.7" rx="0.8" ry="1.3"/>
			
				<ellipse transform="matrix(0.2647 0.9643 -0.9643 0.2647 235.0055 37.2295)" clip-path="url(#SVGID_12_)" fill="#F47736" cx="93.1" cy="172.7" rx="0.7" ry="1.3"/>
			
				<ellipse transform="matrix(0.2648 0.9643 -0.9643 0.2648 234.9985 37.2221)" clip-path="url(#SVGID_12_)" fill="#F47936" cx="93.1" cy="172.7" rx="0.7" ry="1.2"/>
			
				<ellipse transform="matrix(0.2648 0.9643 -0.9643 0.2648 235.0002 37.2239)" clip-path="url(#SVGID_12_)" fill="#F47A34" cx="93.1" cy="172.7" rx="0.7" ry="1.2"/>
			
				<ellipse transform="matrix(0.2648 0.9643 -0.9643 0.2648 234.9923 37.2157)" clip-path="url(#SVGID_12_)" fill="#F47A34" cx="93.1" cy="172.7" rx="0.7" ry="1.1"/>
			
				<ellipse transform="matrix(0.2648 0.9643 -0.9643 0.2648 234.9968 37.2203)" clip-path="url(#SVGID_12_)" fill="#F47C35" cx="93.1" cy="172.7" rx="0.6" ry="1.1"/>
			
				<ellipse transform="matrix(0.2648 0.9643 -0.9643 0.2648 234.9986 37.2223)" clip-path="url(#SVGID_12_)" fill="#F47C33" cx="93.1" cy="172.7" rx="0.6" ry="1"/>
			
				<ellipse transform="matrix(0.2649 0.9643 -0.9643 0.2649 234.9896 37.2128)" clip-path="url(#SVGID_12_)" fill="#F57E33" cx="93.1" cy="172.7" rx="0.6" ry="1"/>
			
				<ellipse transform="matrix(0.2649 0.9643 -0.9643 0.2649 234.9828 37.2057)" clip-path="url(#SVGID_12_)" fill="#F57F32" cx="93.1" cy="172.7" rx="0.6" ry="0.9"/>
			
				<ellipse transform="matrix(0.2649 0.9643 -0.9643 0.2649 234.9842 37.2072)" clip-path="url(#SVGID_12_)" fill="#F57F32" cx="93.1" cy="172.7" rx="0.5" ry="0.9"/>
			
				<ellipse transform="matrix(0.2648 0.9643 -0.9643 0.2648 234.9989 37.2228)" clip-path="url(#SVGID_12_)" fill="#F58132" cx="93.1" cy="172.7" rx="0.5" ry="0.8"/>
			
				<ellipse transform="matrix(0.2647 0.9643 -0.9643 0.2647 235.0054 37.2294)" clip-path="url(#SVGID_12_)" fill="#F58231" cx="93.1" cy="172.7" rx="0.5" ry="0.8"/>
			
				<ellipse transform="matrix(0.2647 0.9643 -0.9643 0.2647 235.0086 37.2327)" clip-path="url(#SVGID_12_)" fill="#F58331" cx="93.1" cy="172.7" rx="0.4" ry="0.7"/>
			
				<ellipse transform="matrix(0.2648 0.9643 -0.9643 0.2648 234.9965 37.2201)" clip-path="url(#SVGID_12_)" fill="#F58431" cx="93.1" cy="172.7" rx="0.4" ry="0.7"/>
			
				<ellipse transform="matrix(0.2647 0.9643 -0.9643 0.2647 235.0087 37.2328)" clip-path="url(#SVGID_12_)" fill="#F58531" cx="93.1" cy="172.7" rx="0.4" ry="0.7"/>
			
				<ellipse transform="matrix(0.2647 0.9643 -0.9643 0.2647 235.0128 37.2371)" clip-path="url(#SVGID_12_)" fill="#F68632" cx="93.1" cy="172.7" rx="0.4" ry="0.6"/>
			
				<ellipse transform="matrix(0.2648 0.9643 -0.9643 0.2648 234.9981 37.2217)" clip-path="url(#SVGID_12_)" fill="#F68732" cx="93.1" cy="172.7" rx="0.3" ry="0.6"/>
			
				<ellipse transform="matrix(0.2649 0.9643 -0.9643 0.2649 234.9807 37.2035)" clip-path="url(#SVGID_12_)" fill="#F68832" cx="93.1" cy="172.7" rx="0.3" ry="0.5"/>
			
				<ellipse transform="matrix(0.2649 0.9643 -0.9643 0.2649 234.9897 37.213)" clip-path="url(#SVGID_12_)" fill="#F68932" cx="93.1" cy="172.7" rx="0.3" ry="0.5"/>
			
				<ellipse transform="matrix(0.2648 0.9643 -0.9643 0.2648 234.9937 37.2171)" clip-path="url(#SVGID_12_)" fill="#F68A31" cx="93.1" cy="172.7" rx="0.3" ry="0.4"/>
			
				<ellipse transform="matrix(0.265 0.9642 -0.9642 0.265 234.9693 37.1916)" clip-path="url(#SVGID_12_)" fill="#F68B31" cx="93.1" cy="172.7" rx="0.2" ry="0.4"/>
			
				<ellipse transform="matrix(0.265 0.9643 -0.9643 0.265 234.9715 37.1939)" clip-path="url(#SVGID_12_)" fill="#F68C31" cx="93.1" cy="172.7" rx="0.2" ry="0.3"/>
			
				<ellipse transform="matrix(0.2649 0.9643 -0.9643 0.2649 234.9849 37.2081)" clip-path="url(#SVGID_12_)" fill="#F78D30" cx="93.1" cy="172.7" rx="0.2" ry="0.3"/>
			
				<ellipse transform="matrix(0.2649 0.9643 -0.9643 0.2649 234.9908 37.2143)" clip-path="url(#SVGID_12_)" fill="#F78E30" cx="93.1" cy="172.7" rx="0.1" ry="0.2"/>
			
				<ellipse transform="matrix(0.2644 0.9644 -0.9644 0.2644 235.0573 37.2837)" clip-path="url(#SVGID_12_)" fill="#F78E30" cx="93.1" cy="172.7" rx="0.1" ry="0.2"/>
			
				<ellipse transform="matrix(0.2645 0.9644 -0.9644 0.2645 235.0352 37.2606)" clip-path="url(#SVGID_12_)" fill="#F78F2E" cx="93.1" cy="172.7" rx="0.1" ry="0.1"/>
			
				<ellipse transform="matrix(0.2651 0.9642 -0.9642 0.2651 234.9621 37.184)" clip-path="url(#SVGID_12_)" fill="#F7902E" cx="93.1" cy="172.7" rx="0.1" ry="0.1"/>
			
				<ellipse transform="matrix(0.2646 0.9644 -0.9644 0.2646 235.0264 37.2513)" clip-path="url(#SVGID_12_)" fill="#F7902E" cx="93.1" cy="172.7" rx="0" ry="0.1"/>
			<ellipse clip-path="url(#SVGID_12_)" fill="#F7912F" cx="93.1" cy="172.7" rx="0" ry="0"/>
		</g>
	</g>
	<path fill="#A73E38" d="M46,164.4c2.5-3,3.7-0.8,6.6-1.3c9.6-1.5,10.6-10.6,12.6-12c3.8-4.4,3.8-2.7,8.3-6.6l12.5,4.8
		c-1,4-0.4,11.1-3.1,16c-6.5,11.9-27.3,13-29.4,6.9c0-0.1-1.9,1.9-1.9,1.8c-1.8,3.5-3.8,8.3-2.1,10.5c2.1,0.8,2.8,3.4,2.8,5.1
		c0,0.8,0,1.3-0.3,1.5c-0.3,0.2-5.6,3.1-9.9,2.7c-4.2-1.3-5.3-7.3-5.2-10.8C37.9,176.4,42.1,169,46,164.4z"/>
	<path opacity="0.65" fill="#E74B30" d="M45.3,185.9c0.9-0.1,1.7-0.2,2.4-0.4c0.3,1.1,0.7,2.2,1.1,3.3c-2.7,0.7-6,1.1-8.2-0.1
		C36.8,186.7,42,186.2,45.3,185.9z"/>
	<path fill="#A73E38" d="M132.5,158.6c0,0,13.9,12.6,15.1,19c1.2,6.5-14.7,15.5-20,15.2c-7.5-9.3-7.1-14-7.1-14l8.2,0.4
		c0,0-2.3-6.8-8.2-7.5C114.6,171,132.5,158.6,132.5,158.6z"/>
	<path opacity="0.65" fill="#E74B30" d="M133.7,164.8c-0.4-0.8-0.9-1.6-1-2.5c-0.1-0.9,0.1-1.9,0.8-2.5c0,0,0.1-0.1,0.2-0.1
		c3.2,3,11.6,11.3,13.6,16.8c-0.1,0.1-0.1,0.1-0.2,0.2c-0.6,0.4-1.5,0-2.1-0.4C140.3,173.5,136.4,169.5,133.7,164.8z"/>
	<path fill="#F16036" d="M3.8,62.4c5-6.2,14.5-6.8,21.2-2.9c3.2,1.9,5.8,5,7,8.6c0.8,2.2,1,4.5,0.8,6.9c-0.1,2.4-0.4,4.9-1,7.2
		c-1.1,4.8-3.6,9.4-3.9,14.4c-0.3,4.9,1.4,9.2,4,13.2c4.8,7.4,11.5,13.6,19,18.1c3.7,2.2,7.6,4.1,11.8,5.1c3.8,0.8,12.9-0.1,13.2,5
		c0.1,2.1-3.5,6-5.5,6.9c-1.9,0.8-4.1,0.1-6.1-0.4c-4.4-1.1-8.8-2.7-12.9-4.6c-4.2-2-8.2-4.4-12-7.2c-3.9-2.9-7.7-6-11.1-9.4
		c-6.3-6.4-11.5-14.4-12.4-23.6c-0.5-4.6,0.5-9.2,0.8-13.9c0.1-1.6,0.2-3.3,0-4.9c-0.1-0.4-0.1-1.4-0.6-1.5c-0.6-0.2-2,1-2.5,1.3
		c-3.7,2.1-8.3,1.8-11.4-1.2c-2.9-2.8-2.6-7.8-1.5-11.3C1.4,66,2.4,64.1,3.8,62.4C6.3,59.3,1.2,65.5,3.8,62.4z"/>
	
		<linearGradient id="SVGID_13_" gradientUnits="userSpaceOnUse" x1="-1248.891" y1="134.4262" x2="-1253.5381" y2="165.4771" gradientTransform="matrix(-1 0 0 1 -1149.2396 0)">
		<stop  offset="9.685800e-004" style="stop-color:#F7912F"/>
		<stop  offset="2.217090e-002" style="stop-color:#F7902E"/>
		<stop  offset="0.506" style="stop-color:#F47B38"/>
		<stop  offset="0.9949" style="stop-color:#F16040"/>
	</linearGradient>
	<path fill="url(#SVGID_13_)" d="M60.4,136.4c1-0.9,2.5-1.6,4.3-2.1c12.7-3.9,41.8-0.9,44.8-1.5c4.1-1.6,15.1-17.4,23.4-10.7
		c-0.3,3.1,11.1-1.9,11.1,1.1c0.4,11.8-12.5,28.4-13.2,40c-6,6.8-12,8.9-23.2,11.3c-9.1,1.9-37.7-19.6-51.8-24.4
		C55.3,147.4,56,140.2,60.4,136.4z"/>
	<path fill="#FED09D" d="M70.9,156.3c7.4-2.6,23.4,8.4,31,10.4c7.6,2,16.3,4,25.4-5.2c1.5-1.5,2.7-2.6,2.1-4.8
		c-5.2-21.5,9-34.1,9.8-33.9c5.3-5.4,23.6,0.8,23.6,0.8c-5.9,1.2-10.7,4.1-14.4,8.6c-0.4,0.5-0.9,1.1-1.3,1.7
		c-2.9,4.1-5,9.3-6.3,15.5c-0.3,3.6,0.3,7.3,2.4,10.8c-1.2-0.4-2.8-1-4.3-2.2c-3.7,11.2-15.9,22.1-31.7,20.3
		c-24.1-2.7-31.1-11.4-36.6-17.2C69.8,159.9,69.4,158.8,70.9,156.3z"/>
	
		<linearGradient id="SVGID_14_" gradientUnits="userSpaceOnUse" x1="-1265.3798" y1="163.186" x2="-1268.9943" y2="201.981" gradientTransform="matrix(-1 0 0 1 -1149.2396 0)">
		<stop  offset="0" style="stop-color:#F16040"/>
		<stop  offset="1" style="stop-color:#D24D37"/>
	</linearGradient>
	<path fill="url(#SVGID_14_)" d="M103.5,166.6l21.2-3c0,0-10.4,11.8,1.3,26.5c3.8,1.9,5.9,1.4,6.5,2.5c0.3,0.4,0.5,0.9,0.6,1.4
		c-0.1,3-0.7,6-2,8.5c-2.4,0.8-6.8,2-10.2,1.4c-0.7-0.1-5.8-1.9-6.2-2.3c-4.4-11.8-10.1-18.5-10.9-20.4
		C102.5,176.6,103.5,166.6,103.5,166.6z"/>
	
		<linearGradient id="SVGID_15_" gradientUnits="userSpaceOnUse" x1="-1220.9902" y1="143.784" x2="-1205.7328" y2="202.2171" gradientTransform="matrix(-1 0 0 1 -1149.2396 0)">
		<stop  offset="9.685800e-004" style="stop-color:#F7912F"/>
		<stop  offset="0.141" style="stop-color:#F47D38"/>
		<stop  offset="0.3046" style="stop-color:#F16040"/>
		<stop  offset="0.5654" style="stop-color:#F16040"/>
		<stop  offset="0.8977" style="stop-color:#CA4736"/>
		<stop  offset="0.9432" style="stop-color:#C54435"/>
	</linearGradient>
	<path fill="url(#SVGID_15_)" d="M69.5,149.8c2.1,3.8,3.9,8.6,5.2,14.2c3.1,13.2-8.5,19-15.1,16.3c0.6,2,2.2,5.1,5.9,9
		c3.4,3.6,7.1,5.5,7.1,5.5s1.7,4.1-2.2,6.6c-1.6,1-10.7,2.9-13.8,1.1c-4.2-6-8.6-16.7-8.9-24.1c-0.1-4,1.4-4.3,4.1-5.6
		c3.6-1.8,2.7-11,3.2-12.2c0.2-7-0.2-10.2,1.2-16.5c0,0,3.8-3.9,7.9-0.3C68.3,147.4,69.5,149.8,69.5,149.8z"/>
	<path fill="#F2AD8C" d="M173.8,118.4c0,0,11.6-13.2,14-27.6c-8.7-7.2-16.6-2.9-25,8.4C154.4,110.4,173.8,118.4,173.8,118.4z"/>
	<path fill="#A5472E" d="M131.6,57.7c-2.7-8.3-4.3-17.1-4.5-25.8c-0.1-3,0.2-6.5,2.7-8.3c2.7-2,6.5-1,9.4,0.6c9,5,14.4,15.5,13,25.6
		c-0.5,4.1-2.4,8.4-6.2,10.3c-3.9,1.9-8.7,0.6-12-2c-3.3-2.6-5.4-6.3-7.4-10L131.6,57.7z"/>
	<path fill="#FDC273" d="M152.2,49.8c-0.1,0.7-0.2,1.5-0.4,2.2c-0.7,0.1-1.3,0-2-0.1c-5.2-1.1-5.5-4.7-7.2-9
		c-2-5.1-4.1-10.2-6.2-15.3c-0.6-1.5-1.3-3-1.4-4.6c0-0.1,0-0.2,0-0.4c1.5,0.3,2.9,0.9,4.2,1.6C148.2,29.2,153.5,39.7,152.2,49.8z"
		/>
	<path fill="#FED7AC" d="M153.4,35.8c-0.5,1-0.9,1.9-1.4,2.9c-0.4-4-2.4-7.8-5.3-10.5c1.2,2.4,1,5.4-0.5,7.6
		c-0.4-0.7-0.7-1.4-1.1-2.1c-0.5,2.2-2.9,3.8-5.1,3.3c1.6,0.3,3.8,2.4,5.1,3.4c1.7,1.3,3.1,3,4.7,4.4
		C153.1,47.4,153.9,37.9,153.4,35.8z"/>
	
		<linearGradient id="SVGID_16_" gradientUnits="userSpaceOnUse" x1="-1243.6119" y1="24.871" x2="-1281.9446" y2="104.4477" gradientTransform="matrix(-1 0 0 1 -1149.2396 0)">
		<stop  offset="9.685800e-004" style="stop-color:#F7912F"/>
		<stop  offset="0.2206" style="stop-color:#F78D31"/>
		<stop  offset="0.505" style="stop-color:#F58136"/>
		<stop  offset="0.8237" style="stop-color:#F36E3D"/>
		<stop  offset="0.9949" style="stop-color:#F16040"/>
	</linearGradient>
	<path fill="url(#SVGID_16_)" d="M101,38.9c9.5-4.4,17.7-7.7,17.1-12.8c1.8,3,2.4,4.7,1.5,7.4c28.6-0.8,40.5,15.4,48.3,30
		c0.7,1.3,1.4,4.1,0.1,5.7c2.7-0.2,5,3.9,5.6,5.8c16.7,13.7,12.2,17.3,4.9,20.3c-7.3,3-14.2,12.7-25.7,26.5
		c-8.6,0.5-21.4,6.6-26.5,7.3c-19.4,1.7-38.6,0-53-23.1c6.1-5-3.7-16.3,3.4-39C79.9,56.7,88.3,44.8,101,38.9z"/>
	<path opacity="0.47" fill="#D56536" d="M160.7,83.4l-2.7,0.5c0.5-3,4.2-11.7,12-14c1.8,1.2,3.1,3.8,3.6,5.2
		c0.1,0.1,0.2,0.2,0.4,0.3C169.9,79.9,160.7,83.4,160.7,83.4z"/>
	<path fill="#9D3E3A" d="M78,112.7c-1.6-2-3.2-4.2-4.8-6.7c1.2-1,1.8-2.2,2-3.7c6.7,3.5,27.4,12.9,51,8.6c7.5,0.5,0.4,7.4,0.4,7.4
		S98.7,137.1,78,112.7z"/>
	<path fill="#9D3E3A" d="M87.4,73.9c0,0,17.4-0.8,30.2,4.3c-5.6-7.6-18.1-15.6-32.2-13C71.3,67.7,87.4,73.9,87.4,73.9z"/>
	<path fill="#9D3E3A" d="M134.4,89.2c-17,7.8-33.5,12.2-59.8,4.2c-0.2-1.8-0.5-3.8-0.6-5.9C78.4,84.3,118,78.2,134.4,89.2z"/>
	<path fill="#9D3E3A" d="M93.6,43.4c3.7-1.3,18.2-5.6,30.7,1.3c-10.7-0.3-24.6,4.5-30.8,7.5c-1.9,0.9-5.3-3.6-5.5-3.9
		C89.7,46.5,91.6,44.9,93.6,43.4z"/>
	<path fill="#FBB880" d="M141.3,93.9c0,0-30.2-18.4-21.2-31.8c7.2-10.7,32.4,2.5,38.6,21.6l0.9,16.8
		C157.4,98.7,141.3,93.9,141.3,93.9z"/>
	
		<radialGradient id="SVGID_17_" cx="-1319.1171" cy="89.5966" r="39.8329" gradientTransform="matrix(-1 0 0 1 -1149.2396 0)" gradientUnits="userSpaceOnUse">
		<stop  offset="0.1864" style="stop-color:#FFEBD7"/>
		<stop  offset="0.3852" style="stop-color:#FFE0BF"/>
		<stop  offset="0.6054" style="stop-color:#FED7AC"/>
		<stop  offset="0.8148" style="stop-color:#FED2A0"/>
		<stop  offset="1" style="stop-color:#FED09D"/>
	</radialGradient>
	<path fill="url(#SVGID_17_)" d="M155.4,89.9c8-23.4,24.7-14.6,30.6-13.3c0.1,0,0.1,0.1,0.2,0.1c0.1,0.2,0.1,0.4,0.2,0.6l0.5-0.4
		c0.4,1.2,3.3,8.4,3.4,9.5c0.5,4.2-0.8,7-2.1,8.4c0,0-0.5,0.6-0.6,0.6c-0.4-0.2-0.4-0.9-0.8-1c-0.1,0-0.2,0-0.3,0
		c-1.2-0.4-3.3-0.6-4.5,1.1c-1.1,1.6-6.3,6.3-12.5,7c-1.8,4.6-2.8,9.3-1.1,10.8c2.2,2,6.7,4.1,7.9,1.8c0.7,4.2,2.1,7,2.1,7
		s-5.6,4.3-13.2,2.7c-4-0.9-8.2,0.7-10.6,1.9c-33.8,0.8-41.7-14.4-48.1-29.1C117,91.6,126.5,84.7,155.4,89.9z"/>
	<path fill="#F99E32" d="M187,75.8c-2-5.1-13.8-8.2-22.7-0.4c-11.6,10.1-4.7,8.5,3.3,11.8C183.3,79,187,75.8,187,75.8z"/>
	<path fill="#FBB878" d="M177.1,70.6c4.9,0.1,8.9,2.3,10,5.1c0,0-0.8,0.7-3.3,2.3c-0.8,0.2-1.7,0.5-2.7,0.6
		c-10.3,1.9-12.2,2.5-12.2,2.5C169.7,78.5,172.9,73.4,177.1,70.6z"/>
	<path fill="#76262D" d="M138,80.4c1.3-2.4,5.9-5.5,8.3-5.7c2,0.4,6.1,3.2,7.4,10.9c-0.2-0.3-1.8-2.7-2.3-3.4c-1-1.2-2.3-2.4-3.8-3
		c-3.4-1.3-7,0.3-10,1.9C137.7,80.9,137.8,80.6,138,80.4z"/>
	
		<linearGradient id="SVGID_18_" gradientUnits="userSpaceOnUse" x1="-1321.5884" y1="116.7505" x2="-1319.0497" y2="102.988" gradientTransform="matrix(-1 0 0 1 -1149.2396 0)">
		<stop  offset="5.534700e-004" style="stop-color:#C83E28"/>
		<stop  offset="1" style="stop-color:#952440"/>
	</linearGradient>
	<path fill="url(#SVGID_18_)" d="M176.4,100.1c-5.1,3.2-12.9,4.2-17.2-1c-0.4-0.6-1,0.2-0.6,1.8c1.6,6.1,3.6,12.5,8.1,18
		c4.9-1.3,7.9-1.4,9.5-1.3c-0.9-1.9-1.5-7.9-1.2-11.1c0.3-4.4,2.1-6.4,4.6-8.7C179.2,97.9,177.9,99.1,176.4,100.1z"/>
	<path fill="#FFFFFF" d="M186,94.2c0.2,1.4-1.2,5.2-2.3,6.6c-0.5-2-1-3.4-1.7-5.1c1.5-1.7,1.9-1.6,3-1.6L186,94.2z"/>
	<path fill="#FFFFFF" d="M174.8,101.1c0.2,1.4-1.3,5.7-2.1,6.5c-0.8-2.5-1.6-4.2-2.1-5.3c1,0,2-0.7,3-0.8L174.8,101.1z"/>
	<path fill="#76262D" d="M158.1,98c0.1-0.1,0.3-0.5,0.4-0.4c1.7,2.4,5.5,4.5,8.5,4.6c3.4,0.1,6.7-1.3,9.5-3c1.4-0.9,2.8-1.9,4-3.1
		c1.1-1.1,2.8-2.7,4.4-2.8c1.5,0.2,3,1.3,3.1,1.5c-0.1,0.1-0.5,0.6-0.5,0.6c-0.3-0.1-1.3-0.9-2.8-0.8c-1.9,0.2-2.7,1.7-3.9,2.8
		c-1.4,1.3-3,2.4-4.7,3.4c-3.2,1.8-6.9,2.9-10.6,2.3c-1.9-0.3-3.6-1.2-5.1-2.4C160.1,100.5,157.8,98.3,158.1,98z"/>
	<path fill="#76262D" d="M167.5,83.5c0.1,1.6-0.1,2.1,0.1,3.8c3-1,9.5-4.9,13.1-4.6c1.8,0.2,2.5,4.5,2.8,4.5c1.3,0,2.5-1.1,2.7-1.5
		c0.4-1.4,0.1-3.5,0.3-6.4c1.5-0.6,2-4.5,0.5-5.2C183.9,72.8,174.3,73.7,167.5,83.5z"/>
	<path fill="#8D4A4F" d="M180.9,82.6c-3.1-0.3-10.8,3.9-13.3,4.7c-0.1-1.6,0.1-2.1-0.1-3.8C167.6,83.3,179.1,78.4,180.9,82.6z"/>
	<path fill="#61232A" d="M167.2,84.7c0,0.5,0,0.9,0,1.3c0,0.4,0,0.8,0.1,1.3c0,0.1,0.1,0.2,0.2,0.3c0.1,0.1,0.2,0.1,0.3,0
		c1.5-0.5,3.7-1.6,6.1-2.7c2.3-1,4.8-1.9,6.5-1.9c0.1,0,0.3,0,0.4,0c0.2,0,0.4,0.1,0.6,0.3c0.2,0.2,0.4,0.5,0.6,0.8
		c0.4,0.7,0.6,1.5,0.9,2.1c0.1,0.4,0.3,0.8,0.4,1c0,0.1,0.1,0.1,0.2,0.2c0.1,0,0.1,0.1,0.3,0.1l0,0c1.1,0,2.1-0.7,2.6-1.2
		c0.2-0.2,0.3-0.4,0.4-0.6c0.2-0.7,0.2-1.5,0.2-2.4c0-0.4,0-0.9,0-1.4c0-0.7,0-1.5,0.1-2.4c0.5-0.3,0.8-0.7,1-1.2
		c0.3-0.6,0.4-1.3,0.4-2c0-0.5-0.1-1-0.2-1.4c-0.2-0.4-0.5-0.8-0.9-1c-0.8-0.4-1.8-0.6-3.1-0.6c-4.4,0-11.5,2.3-16.8,10
		c0,0.1-0.1,0.2-0.1,0.2C167.2,84,167.2,84.4,167.2,84.7z M173.5,84.3c-2.1,0.9-4.1,1.9-5.5,2.5c0-0.3,0-0.5,0-0.7
		c0-0.5,0-0.9,0-1.3c0-0.3,0-0.7,0-1.1C173,76.2,179.8,74,184,74c1.2,0,2.2,0.2,2.8,0.5c0.2,0.1,0.4,0.3,0.5,0.6
		c0.1,0.3,0.2,0.7,0.2,1.2c0,0.6-0.1,1.2-0.3,1.7c-0.2,0.5-0.5,0.9-0.8,1c-0.1,0.1-0.2,0.2-0.2,0.3c-0.1,1-0.1,1.9-0.1,2.7
		c0,0.5,0,1,0,1.4c0,0.9,0,1.7-0.2,2.2c0,0-0.1,0.1-0.2,0.3c-0.1,0.1-0.3,0.3-0.5,0.4c-0.4,0.3-0.9,0.5-1.4,0.5c0,0,0-0.1-0.1-0.1
		c-0.1-0.2-0.2-0.6-0.3-1c-0.3-0.8-0.6-1.8-1.2-2.5c-0.4-0.5-0.8-0.9-1.4-0.9c-0.1,0-0.3,0-0.5,0C178.3,82.3,175.8,83.2,173.5,84.3z
		"/>
	
		<linearGradient id="SVGID_19_" gradientUnits="userSpaceOnUse" x1="-1215.08" y1="201.2442" x2="-1212.4756" y2="190.3737" gradientTransform="matrix(-1 0 0 1 -1149.2396 0)">
		<stop  offset="9.685800e-004" style="stop-color:#F7912F"/>
		<stop  offset="0.2206" style="stop-color:#F78D31"/>
		<stop  offset="0.505" style="stop-color:#F58136"/>
		<stop  offset="0.8237" style="stop-color:#F36E3D"/>
		<stop  offset="0.9949" style="stop-color:#F16040"/>
	</linearGradient>
	<path opacity="0.55" fill="url(#SVGID_19_)" d="M56.8,193.7c2.5-2.1,5.7-3.6,9-4.1c2.1,2.2,4.3,3.7,5.6,4.5
		c0.8,0.5,1.3,0.9,1.2,1.2c-2.2,0.9-7.4,1.4-11,1.5C54.9,197,55.8,194.5,56.8,193.7z"/>
	
		<linearGradient id="SVGID_20_" gradientUnits="userSpaceOnUse" x1="-1282.4833" y1="88.969" x2="-1255.0236" y2="123.796" gradientTransform="matrix(-1 0 0 1 -1149.2396 0)">
		<stop  offset="0.1528" style="stop-color:#FFFFFF"/>
		<stop  offset="0.2922" style="stop-color:#F7E3D7"/>
		<stop  offset="0.5987" style="stop-color:#E7AB8A"/>
		<stop  offset="1" style="stop-color:#D56536"/>
	</linearGradient>
	<path opacity="0.48" fill="url(#SVGID_20_)" d="M73.5,105.8c0.2-0.3,0.5-0.5,0.7-0.7c1.3-1.8,1.3-4.2,1.1-6.3
		c-0.2-2.2-0.5-4.3-0.8-6.4c-0.4-3.2-0.6-6.3-0.5-9.5c0.1-3.3,0.3-6.9,1.2-10.2c2.4,0.9,5.2,1,7.7,1.3c1.8,0.2,3.6,0.4,5.4,0.5
		c-5.2,7.6-4.4,17.4-0.3,25.3c1.5,2.9,3.4,5.7,6,7.8c2,1.6,4,2.8,6.5,3.7c5.4,2,11.1,3.4,16.7,4.7c-1.9-1.7-3.4-3.8-4.9-5.9
		c-2.6-3.8-4.7-8.1-5.9-12.6c3.6-0.2,7.3-0.1,10.8,1c2.8,0.9,5.4,2.5,7.8,4.2c3.2,2.2,5.3,7.6,8.6,9.5c11.7,6.8,32.9,10.9,33.8,11.1
		c6.2-0.7,7.8-0.8,10-0.5c-3.2,1.6-6.4,2.7-10,2.4c-2.1-0.2-4.1-0.7-6.3-0.5c-1.7,0.2-3.4,0.7-5,1.4c0,0-0.2,0.1-0.7,0.3
		c-0.4,0.2-0.6,0.3-0.6,0.3c-0.8,0.5-1.6,1-2.4,1.6c-0.1,0.1-0.1,0.1-0.2,0.2c-4.9,2.2-12.2,3.7-17.5,4.1
		c-21.2,1.7-19.2-2.6-19.2-2.9c-6.2,0-12.5-0.8-18.4-3c-5.1-1.8-9.7-4.7-13.8-8.3c-2.2-1.9-4.1-4.1-5.9-6.3
		c-0.9-1.1-1.7-2.2-2.5-3.4c-0.4-0.6-0.9-1.3-1.3-1.9c-0.1-0.2-0.3-0.4-0.4-0.6C73.3,105.9,73.3,106.1,73.5,105.8z"/>
	
		<linearGradient id="SVGID_21_" gradientUnits="userSpaceOnUse" x1="-1212.0732" y1="54.2231" x2="-1248.3953" y2="71.1316" gradientTransform="matrix(-1 0 0 1 -1149.2396 0)">
		<stop  offset="0" style="stop-color:#76262D"/>
		<stop  offset="0.1743" style="stop-color:#7B2A2E"/>
		<stop  offset="0.4001" style="stop-color:#893530"/>
		<stop  offset="0.6542" style="stop-color:#A24631"/>
		<stop  offset="0.927" style="stop-color:#C76030"/>
		<stop  offset="1" style="stop-color:#D4682E"/>
	</linearGradient>
	<path fill="url(#SVGID_21_)" d="M102.2,56.8c-1.1-3.1-7.3-9.6-12.4-13c-5.1-3.4-11.9-5.1-18-2.9c-4.5,1.6-8.1,5.1-10.3,9.2
		c-2.2,4-3.2,8.5-3.7,13c-0.5,4.6-0.4,9.7,3,12.8c3.3,3.1,8.7,3.2,13.5,2.8c7.4-0.7,14.9-2.8,22-5.1
		C96.2,73.6,103.3,59.9,102.2,56.8z"/>
	
		<linearGradient id="SVGID_22_" gradientUnits="userSpaceOnUse" x1="-1254.4458" y1="69.3682" x2="-1218.0605" y2="63.1032" gradientTransform="matrix(-1 0 0 1 -1149.2396 0)">
		<stop  offset="0" style="stop-color:#FEE499"/>
		<stop  offset="0.2308" style="stop-color:#FED88B"/>
		<stop  offset="0.6789" style="stop-color:#FBB869"/>
		<stop  offset="1" style="stop-color:#F99F4D"/>
	</linearGradient>
	<path fill="url(#SVGID_22_)" d="M70.3,74.2c-2.7-3-2.8-7.8-2.4-12.1c0.3-2.8,0.7-5.6,1.4-8.3c0,0,0.1,0,0.1-0.1
		c4.1-2.4,8.9-1.9,13.4-0.6c6.5,1.8,12.8,5,18.4,9.4c-1.4,4.1-3.8,9.1-4.7,11c-5.1,1.8-10.3,2.9-15.5,3.4
		C77.2,77.3,72.9,77.1,70.3,74.2z"/>
	<g>
		<path fill="#FFFFFF" d="M187.2,76.8c0.1-0.7,0-1.3-0.2-1.7c-0.2-0.4-0.4-0.6-0.6-0.5c-0.3,0.1-0.3,1-0.4,2c-0.1,1-0.4,1.8-0.2,2
			c0.1,0.1,0.4,0,0.7-0.3C186.8,78,187.1,77.4,187.2,76.8z"/>
	</g>
	<g>
		<path fill="#76262D" d="M171.8,117.2c-2.4,0.3-5.1,0.8-5.4,1.2c0,0.1,0.4,0.5,0.4,0.5c0.1,0.2,2.1-0.5,4.7-0.8
			c2.6-0.4,4.8-0.3,4.8-0.5c0,0-0.1-0.3-0.1-0.3C175.8,117,174.3,116.8,171.8,117.2z"/>
	</g>
	<path fill="#9D3E3A" d="M100.1,39.4c0.3-0.1,0.6-0.3,0.9-0.4c6.6-3,12.5-5.5,15.4-8.5c1.3-1.3,1.9-2.6,1.9-4.1
		c1.7,2.9,2.3,4.6,1.4,7.2c9.6-0.3,17.2,1.4,23.5,4.2c6.4,3.8,13.2,10.3,15,17.7C142.6,34.1,111.6,36.4,100.1,39.4z"/>
	
		<linearGradient id="SVGID_23_" gradientUnits="userSpaceOnUse" x1="-1227.3174" y1="65.6337" x2="-1251.2216" y2="75.5485" gradientTransform="matrix(-1 0 0 1 -1149.2396 0)">
		<stop  offset="0" style="stop-color:#FFF5EC"/>
		<stop  offset="0.1683" style="stop-color:#FFE9D3"/>
		<stop  offset="0.5271" style="stop-color:#FDCA9A"/>
		<stop  offset="1" style="stop-color:#F99F4D"/>
	</linearGradient>
	<path fill="url(#SVGID_23_)" d="M89.7,69.8c-2.2-1.7-6.6-3.1-10.6-3.4c4.5-3,10-4.4,15.4-3.7l-7.2-4.9c1.3,0.9,5,0.7,6.6,1.2
		c2.3,0.6,4.4,1.5,6.5,2.6c0.2,0.1,0.7,0.5,0.9,0.6c-1.3,4-3,7.7-4.2,11.8c-8.4,1.5-11.6,3-15.4,6.7C83,75.5,84.6,71.8,89.7,69.8z"
		/>
	<path fill="#FED09D" d="M3.8,62.4C1.2,65.5,6.3,59.3,3.8,62.4L3.8,62.4z"/>
	<path fill="#FED09D" d="M2.3,79.4c-2.9-2.8-2.6-7.8-1.5-11.3c0.6-2.1,1.6-4,3-5.7c5-6.2,14.5-6.8,21.2-2.9c3.2,1.9,5.8,5,7,8.6
		c0.8,2.2,1,4.5,0.8,6.9c-0.1,2.4-0.4,4.9-1,7.2c-0.4,1.7-1,3.3-1.5,5c-1.4-1.5-3.3-2.6-5.3-2.8c-3.3-0.4-6.7,1.5-8.4,4.3
		c0.1-1,0.2-2,0.3-3c0.1-1.6,0.2-3.3,0-4.9c-0.1-0.4-0.1-1.4-0.6-1.5c-0.6-0.2-2,1-2.5,1.3C10.1,82.6,5.4,82.4,2.3,79.4z"/>
	<g>
		<path fill="#76262D" d="M159.7,96.5c-1,0.9-1.4,2.1-1.7,3.4c-0.1,0.6-1.2,0.4-1-0.2c0.3-1.5,1.1-2.7,2.4-3.5
			C159.5,96,159.8,96.3,159.7,96.5z"/>
	</g>
	<path fill="#9D3E3A" d="M52.7,129.4c0.1-0.1,0.3-0.2,0.4-0.2c2.6,1.4,5.3,2.6,8.1,3.4c-1.9,0.4-3.7,1.4-5,2.8
		c-1.4,1.5-2.3,3.4-2.6,5.3c-0.7-0.3-1.4-0.6-2.2-1c-0.5-0.2-1-0.5-1.6-0.8c-0.4-0.8-0.6-1.7-0.7-2.7
		C49.1,133.6,50.4,130.8,52.7,129.4z"/>
	<path fill="#9D3E3A" d="M48.4,127.5c-1.1,0.5-2,1.4-2.7,2.4c-1.2,1.8-1.4,4-1.2,6.2c-0.5-0.3-0.9-0.6-1.4-0.9
		c-0.6-1.1-0.9-2.4-0.9-3.7c0-2.2,1-4.3,2.6-5.8c0.4-0.3,0.8-0.7,1.2-0.9c1.1,0.8,2.3,1.6,3.5,2.4C49.3,127.1,48.9,127.2,48.4,127.5
		z"/>
	<path fill="#9D3E3A" d="M29.7,105.7c0.6,1.4,1.4,2.8,2.2,4.1c0.9,1.4,1.9,2.7,2.9,4c-3.6-1.1-7.7-0.5-10.8,1.6
		C23.9,111.5,26.3,107.6,29.7,105.7z"/>
	<path fill="#9D3E3A" d="M26.8,91c0.7,0.1,1.4,0.2,2,0.6c-0.5,1.6-0.8,3.3-0.9,5c-0.1,1,0,1.9,0.1,2.8c-1.4-1.1-3.3-1.6-5.4-1.3
		c-2.4,0.3-4.6,1.7-6.3,3.5c-0.1-0.7-0.2-1.4-0.3-2.1c-0.1-0.6-0.1-1.2-0.1-1.8c0.5-1.3,1.3-2.5,2.2-3.5C20.4,92,23.7,90.7,26.8,91z
		"/>
	
		<linearGradient id="SVGID_24_" gradientUnits="userSpaceOnUse" x1="-1276.0399" y1="201.9052" x2="-1273.2898" y2="190.4263" gradientTransform="matrix(-1 0 0 1 -1149.2396 0)">
		<stop  offset="9.685800e-004" style="stop-color:#F7912F"/>
		<stop  offset="0.2206" style="stop-color:#F78D31"/>
		<stop  offset="0.505" style="stop-color:#F58136"/>
		<stop  offset="0.8237" style="stop-color:#F36E3D"/>
		<stop  offset="0.9949" style="stop-color:#F16040"/>
	</linearGradient>
	<path fill="url(#SVGID_24_)" d="M118.6,193.8c3.2-0.9,5.6-2.3,7.2-4c0.1,0.1,0.2,0.3,0.3,0.4c3.8,1.9,5.9,1.4,6.5,2.5
		c0.1,0.2,0.2,0.4,0.3,0.6c-1.1,2-3.3,3.8-6.3,4.2C120.6,198.3,113.8,195.1,118.6,193.8z"/>
	<path fill="#9D3E3A" d="M54.4,167.4c0.4-3,0.3-17.2,1.5-21.9c-0.1,6.7,0,13.1,3.4,19.3c2,3.6,4.8,7.1,4.8,11.2
		c-0.7-1.6-2.1-2.9-3.5-3.9c-1.5-1-3.1-1.8-4.4-3C55.5,168.7,55,168.1,54.4,167.4z"/>
	<path fill="#9D3E3A" d="M86.9,132.3c-2.7,2.1-5,4.8-6.6,7.8c-2.3,4.2-3.3,9-2.9,13.8c-2.4-6.6-2.5-14-0.1-20.7
		c0.1-0.2,0.2-0.5,0.3-0.7C80.6,132.3,83.8,132.2,86.9,132.3z"/>
	<g>
		<path fill="#9D3E3A" d="M111.2,36.1c-2.4,0.4-4.8,0.9-7.1,1.4c4.2-1.5,10.5-5.3,11.6-10l0.1,0C115.6,31,113.7,33.9,111.2,36.1z"/>
	</g>
	<path fill="#9D3E3A" d="M111.3,183.8c2.2-2.2,5.4-3.6,8.6-3.1c0.3,0.1,0.8,0.2,1.5,0.5c0.4,1.5,1.1,3.1,2,4.8
		c-0.9-0.1-1.8-0.3-2.4-0.2c-1.6,0.1-3.2,0.6-4.6,1.4c-2.5,1.5-4.3,4.1-4.9,7c-1.1-2.3-2.2-4.2-3.2-5.9
		C109,186.6,110,185.1,111.3,183.8z"/>
	<path fill="#9D3E3A" d="M118.4,176.4c-1.8-0.4-5.8-0.3-9.1,0.5c-3.7,1-5,2.3-5.7,3.5c-0.5-2.4-0.5-5.7-0.4-8.4
		C108.8,171.1,114.6,173,118.4,176.4z"/>
	<path opacity="0.44" fill="#D56536" d="M166.3,69.5c-2.5,0.7-3.9,2.8-5.9,4.3l-0.1-0.1c0.9-4.3,4.5-6.9,8.4-7.5
		c0.1,1.1,0,2.2-0.7,3C167.7,69.2,166.9,69.3,166.3,69.5z"/>
	<path fill="#9D3E3A" d="M109.6,132.8c0.7-0.3,1.7-1,2.8-2c0.1,1.1,0.6,3.4,2.8,7.1c2.7,4.6,5.9,8.8,10.2,11.9
		c-9.1-1.2-17.2-8.2-19.9-17C107.6,132.9,109,132.9,109.6,132.8z"/>
	<path fill="#9D3E3A" d="M110.5,151.8c-3.1-2.5-6.5-4.8-9-7.9c-2.5-3-3.2-5.4-3.4-8.9c0,0-0.1,0-0.1,0c-0.5,3.4-1,5.1-0.6,8.7
		c0.4,3.7,1.8,7.5,4.1,10.4c3.9,4.8,10.4,7,16.2,8.4c0,0,0,0,0,0C118,157.8,114,154.5,110.5,151.8z"/>
	<path fill="#9D3E3A" d="M64.2,147.3c0.3,5.6,2.5,10.9,4.6,16.1c-3.2-3.3-6.4-6.7-8.4-10.8c-2-4.1-2.8-9.1-1-13.3
		c0.8-2,2.4-3.9,4.2-5c0.2-0.1,1-0.4,2.2-0.9c2.1,0.2,3,0,4.1-0.1c-1,0.8-2.2,2-3.4,3.6C63.9,140.1,64,143.6,64.2,147.3z"/>
	<path opacity="0.48" fill="#D56536" d="M92.6,175.5c1.2-12.2,15.1-18.2,13.3-15.2c-2.4,4.1-2.7,10.4-2.7,11.7c0,1.1,0.3,4,0.5,5.9
		C99.4,177.3,95.8,176.5,92.6,175.5z"/>
	<path fill="#943031" d="M71.8,200.4c-0.3,0.4-0.8,0.8-1.3,1.1c-1.6,1-10.7,2.9-13.8,1.1c-0.2-0.4-0.5-0.7-0.8-1.1
		C60.2,203.1,68.4,201.7,71.8,200.4z"/>
	<path opacity="0.19" fill="#FBEF57" d="M108.2,43.1c4.9-5.1,9.1-8.1,12.8-9.6c22-0.2,33.9,9.9,41.7,21.3c0.5,1.6,0.7,3.2,0.6,4.8
		c-0.6,11.8-6.5,4.8-28,2.3C130.5,61.4,101.6,50,108.2,43.1z"/>
	<path opacity="0.19" fill="#FBEF57" d="M68.6,141.3c-2.2-0.3-4.9-1.2-5.3-3.4c-0.2-1.3,0.5-2.5,1.4-3.4c0.2-0.1,0.3-0.3,0.5-0.4
		c9.2-2.6,26.1-1.9,36.2-1.5c0,0,0,0,0,0c1.2,0.4,1.7,1.7,1.1,2.7l-0.6,1.2C91.6,141.2,79.9,142.8,68.6,141.3z"/>
	<path opacity="0.34" fill="#D87146" d="M16.8,80.8c-0.1-0.4-0.1-1.4-0.6-1.5c-0.1,0-0.3,0-0.4,0c1.4-1.1,4-2.2,7.3-8.1
		c2.4,0.5,3.4,8.4-1.3,20.4c-3.4,8.8-2.1,17.5,2.5,26.9c-4.4-5.5-7.6-11.9-8.3-19c-0.5-4.6,0.5-9.2,0.8-13.9
		C16.9,84.1,17,82.4,16.8,80.8z"/>
	<path fill="#943031" d="M123,202.9c2.4,0,6.2-0.6,8.6-1.1c-0.1,0.3-0.2,0.5-0.4,0.8c-2.4,0.8-6.8,2-10.2,1.4
		c-0.7-0.1-5.8-1.9-6.2-2.3c0-0.1-0.1-0.1-0.1-0.2C116.3,202,120,202.9,123,202.9z"/>
	<path fill="#943031" d="M130.4,194c0,0,1.1,1.5,1.2,2.1c0,0.6-1.2,4.3-1.3,4.4c0.1-0.9,0.5-3.2,0.5-4
		C130.8,195.9,130.4,194.4,130.4,194z"/>
	<path fill="#943031" d="M124.9,194.9c0,0,1.2,2.5,1.3,3.5c0,0.8-1.8,3.8-1.9,3.9c-0.1,0.1,0.8-3.1,0.8-3.9
		C125.1,197.2,124.6,194.1,124.9,194.9z"/>
	<path fill="#943031" d="M64.3,195.3c0.3,0.5,1.3,1.9,1.3,2.4c0,0.6-1.1,3.7-1.2,3.8c-0.2,0.2,0-3.2,0-3.5
		C64.5,197.3,64,194.8,64.3,195.3z"/>
	<path fill="#943031" d="M69.5,195c0.3,0.4,1.1,1.6,1.2,2.1c0,0.6-0.9,3-1.1,3.5c-0.1,0.3,0.1-1.7,0.1-3.2
		C69.7,196.8,69.3,194.6,69.5,195z"/>
	<path fill="#FFFFFF" d="M167.8,114.7c0.5,1.4,1,2.3,1.2,2.9c-0.1,0.4-2.8,0.3-2.9,0C166.1,117.6,167.7,114.7,167.8,114.7z"/>
	<path fill="#FFFFFF" d="M175.5,114c0.4,1.1,0.6,2.1,0.6,2.8c-0.1,0.4-2.8,0.3-2.9,0C173.2,116.7,175.5,113.9,175.5,114z"/>
	<path fill="#9D3E3A" d="M132,55.1c2.8-1,13.8-1.7,14.7-0.4c0.8,1.3,2,8.1,1.4,9.5C147,63.8,137.6,56.8,132,55.1z"/>
	<path opacity="0.13" fill="#FBEF57" d="M74,161.7c1.4,6.2-0.3,10.8-3.2,13.5c-2.4,2.2-3.7,1.4-3.9,1c-3-7-4.2-14.9-3.3-22.7
		c0.1-0.9,1.2-3.2,2.4-4.2c2.8-2.4,4,0.5,4.6,1.8C71.9,154.2,73.1,157.8,74,161.7z"/>
	<path opacity="0.31" fill="#FBEF57" d="M3.8,62.4c-1.4,1.7-2.4,3.6-3,5.7c-0.3,1.1-0.6,2.4-0.7,3.8c1.7,1.6,4.1,2.4,6.5,2.5
		c4.5,0.3,9.1-1.5,12.3-4.7c1.7-1.8,3.1-4,3.1-6.5c0.1-2.1-0.9-4.1-2.3-5.6C14,56.2,7.6,57.7,3.8,62.4z"/>
</g>
</svg>
