<?xml version="1.0" encoding="utf-8"?>
<!-- Generator: Adobe Illustrator 17.1.0, SVG Export Plug-In . SVG Version: 6.00 Build 0)  -->
<!DOCTYPE svg PUBLIC "-//W3C//DTD SVG 1.1//EN" "http://www.w3.org/Graphics/SVG/1.1/DTD/svg11.dtd">
<svg version="1.1" id="Layer_1" xmlns="http://www.w3.org/2000/svg" xmlns:xlink="http://www.w3.org/1999/xlink" x="0px" y="0px"
	 width="214.4px" height="202.2px" viewBox="0 0 214.4 202.2" enable-background="new 0 0 214.4 202.2" xml:space="preserve">
<g>
	<g>
		<g>
			<linearGradient id="SVGID_1_" gradientUnits="userSpaceOnUse" x1="179.2229" y1="62.4408" x2="208.0526" y2="45.7125">
				<stop  offset="0" style="stop-color:#FED4A8"/>
				<stop  offset="6.104374e-003" style="stop-color:#FED4A7"/>
				<stop  offset="0.9516" style="stop-color:#FCB96E"/>
			</linearGradient>
			<path fill="url(#SVGID_1_)" d="M189.2,33.7c4.5-2.3,10.4-2.9,14.8-0.8c5.3,2.5,7.1,7.9,8.4,12.7c1,3.8,2.1,7.6,1.9,11.5
				c-0.2,3.9-1.7,8-5.2,10.8c-2.2,1.8-16,7.1-27.9,4.2c-12.3-3-5.3-4.4-6.8-14.4c-0.6-4,2.2-7.8,4-11.6
				C180.7,41.3,183.4,36.6,189.2,33.7z"/>
			<path fill="#FED7AC" d="M177.9,77.7c6.2-3.8,13-5.9,19.6-6.1c-2.3-1.7-4.8-2.9-7.5-3.4c4.6-0.7,9.2-0.7,13.7,0.2
				c-3.6-5-9-8-14.8-7.9c1.4-3.2,4.1-5.6,6.9-6.2c-7-2.3-15.4,1-20.8,8.2L177.9,77.7z"/>
			<linearGradient id="SVGID_2_" gradientUnits="userSpaceOnUse" x1="199.4392" y1="38.1658" x2="180.5916" y2="51.5041">
				<stop  offset="0" style="stop-color:#76262D"/>
				<stop  offset="0.1743" style="stop-color:#7B2A2E"/>
				<stop  offset="0.4001" style="stop-color:#893530"/>
				<stop  offset="0.6542" style="stop-color:#A24631"/>
				<stop  offset="0.927" style="stop-color:#C76030"/>
				<stop  offset="1" style="stop-color:#D4682E"/>
			</linearGradient>
			<path fill="url(#SVGID_2_)" d="M209.6,38.2c-1.3-2.2-3-4.1-5.6-5.3c-4.4-2.1-10.3-1.5-14.8,0.8c-5.7,2.9-8.5,7.6-10.8,12.5
				c-1.7,3.7-4.6,7.5-4,11.6c0.1,0.9,0.4,1.8,0.7,2.7c1,1.6,2.2,3,3.7,4.3c1.9-4.1,4-8.2,6.9-12c4.4-5.8,10.7-10.9,18.6-13.2
				C206,39.1,207.9,38.7,209.6,38.2z"/>
		</g>
		<g>
			<path fill="#F16040" d="M94.5,111.6c-0.8-1.5-13.4,14.3-8.7,25.4c1.6,3.8,4.8,7.9,7.9,7.9c5,0,9.3-9.9,12.8-17.8
				C111.4,116,94.5,111.6,94.5,111.6z"/>
			<path fill="#E25239" d="M94.5,111.6c-0.8-1.5-13.4,14.3-8.7,25.4c1.6,3.8,4.8,7.9,7.9,7.9c5,0,9.3-9.9,12.8-17.8
				C111.4,116,94.5,111.6,94.5,111.6z"/>
			<path fill="#9D3E3A" d="M94.5,111.6c-0.3-0.5-2.1,1.2-4.1,4.2c1.8,1.3,4.8,3.6,7.1,6c3.5,3.6,8,0.3,7.9-3c0-0.4-0.2-0.8-0.4-1.4
				C101.2,113.4,94.5,111.6,94.5,111.6z"/>
			<g>
				<g>
					<g>
						<linearGradient id="SVGID_3_" gradientUnits="userSpaceOnUse" x1="28.8436" y1="166.2896" x2="54.0064" y2="199.7296">
							<stop  offset="0.132" style="stop-color:#F7912F"/>
							<stop  offset="0.2679" style="stop-color:#F58235"/>
							<stop  offset="0.4779" style="stop-color:#F36E3B"/>
							<stop  offset="0.6643" style="stop-color:#F1603E"/>
							<stop  offset="0.8063" style="stop-color:#F15B3F"/>
							<stop  offset="0.8985" style="stop-color:#EA583D"/>
							<stop  offset="1" style="stop-color:#DE5139"/>
						</linearGradient>
						<path fill="url(#SVGID_3_)" d="M78.1,183.5c-4.1,6.1-41.7,3.2-50.7,0.3c-8.9-2.3,0.3-14.8,0.6-18.8c0.3-4.6-3.3-8.7-7.4-9.6
							c-4.1-0.9-8.3,0.7-11.8,3.2c-3.7,2.6-7,6.4-8.3,11.1c-1.5,5.7,0.2,12.2,3.6,16.8c3.4,4.6,8.7,7.4,13.9,8.8
							c18.4,4.8,59.2,2.9,68.2,0.5C88.5,195.2,81.6,178.4,78.1,183.5z"/>
						<path fill="#943031" d="M133.6,188.6c-0.8-0.9-2.7-2.8-4.7-3.9c15.2-14.9-0.8-16.7-7.8-14.5l-15.6,18.9l-9.5,2.8
							c1.9-0.1,6.8,1.2,12.5-0.8c7.3,2,9.4,5.3,11.8,5.6c5.8-0.2,11.7-0.5,11.7-0.5S135.7,191.5,133.6,188.6z"/>
						<linearGradient id="SVGID_4_" gradientUnits="userSpaceOnUse" x1="94.5351" y1="139.7286" x2="106.2018" y2="168.3953">
							<stop  offset="0.1924" style="stop-color:#F7912F"/>
							<stop  offset="0.3419" style="stop-color:#F78D31"/>
							<stop  offset="0.5355" style="stop-color:#F58136"/>
							<stop  offset="0.7523" style="stop-color:#F36E3D"/>
							<stop  offset="0.8689" style="stop-color:#F16040"/>
						</linearGradient>
						<path fill="url(#SVGID_4_)" d="M120.4,101.8c-5.2,0.2-24-17.2-29.2-16.1c-5.6,1.2,11.6,29.8,3.9,37.1
							C95,139.3,80,152.1,74.8,157.2c-2.4,2.3-4.7,5.8-5.3,10c-0.8,5.4-0.2,12.5,4,22.3c-0.1,0.2,2.3,3.6,3.1,5.1
							c8.6,2.4,17,0.6,25.4-2.5c8.8-10.7,17.6-29.6,22.7-36.5C134.3,142.7,125.2,120,120.4,101.8z"/>
						<path fill="#943031" d="M136.9,139.6c-2.4-3.3-7.2-10.8-10.1-15.3l6.1,20.9c-3.6,8.5-7.2,7.7-7.9,12.2c0,0,0,0,0,0
							c1,3.1,1.9,6.2,2.7,9.4c3.3,1.6,9,2.1,9.8,0.3c1-2.3,3.1-10.1,3.4-12.6C141.4,149.8,139.6,143.4,136.9,139.6z"/>
						<path fill="#FED09D" d="M121.4,110.5H98.8c7.6,12.8,11.8,31.5,9.9,36.5c-6.2,17.8-17.3,42.5-22.3,46.2
							c5.9,0.4,19.8-1.2,20.4-2.7c9.6-5.3,22.4-23.1,28.1-41.8c-1.8-11-4.9-21.6-9.8-31.8C123.9,114.6,122.7,112.5,121.4,110.5z"/>
						<linearGradient id="SVGID_5_" gradientUnits="userSpaceOnUse" x1="113.9213" y1="148.0384" x2="103.4052" y2="120.6601">
							<stop  offset="1.106950e-003" style="stop-color:#FFFFFF"/>
							<stop  offset="9.838004e-002" style="stop-color:#F7E4D9"/>
							<stop  offset="0.4327" style="stop-color:#E3A07F"/>
							<stop  offset="0.7035" style="stop-color:#D7754A"/>
							<stop  offset="0.8973" style="stop-color:#D15A2E"/>
							<stop  offset="0.9954" style="stop-color:#CE4F27"/>
						</linearGradient>
						<path fill="url(#SVGID_5_)" d="M95.2,122.9c-0.1,7.1-2.9,13.5-6.5,18.9c-0.9,1.3,2.2,5.6,5.8,6.5c16.2,4,35.1-15.9,35.7-18.8
							c-1.4-4.3-3.1-8.5-5.1-12.6c-0.2-0.5-0.5-0.9-0.7-1.4c-0.3-1-0.6-2-0.8-2.9l-27.6-3.9C97.4,114.7,98,120.2,95.2,122.9z"/>
						<path opacity="0.83" fill="#DEA179" d="M128.5,155c-1.1-2.1-4,0.6-4,2.4c-0.1,3.1-0.5,6.9-0.8,9.3
							c-6.5,5.1-15.4,9.6-27.5,10.7c-3.8,7.9-7.5,14.1-9.8,15.8c5.9,0.4,19.8-1.2,20.4-2.7c7.6-4.2,17.2-16.1,23.7-30.1
							C129.4,161.4,129.9,157.7,128.5,155z"/>
						<linearGradient id="SVGID_6_" gradientUnits="userSpaceOnUse" x1="97.3753" y1="157.9718" x2="86.7851" y2="181.9762">
							<stop  offset="4.256430e-002" style="stop-color:#F7912F"/>
							<stop  offset="0.3085" style="stop-color:#F78E30"/>
							<stop  offset="0.5218" style="stop-color:#F68833"/>
							<stop  offset="0.7169" style="stop-color:#F47C38"/>
							<stop  offset="0.9" style="stop-color:#F26A3E"/>
							<stop  offset="0.9753" style="stop-color:#F16040"/>
						</linearGradient>
						<path fill="url(#SVGID_6_)" d="M106,165.5c-1-1.1-2.5-2-4.2-2.3c-10-2.2-18.5,1-23.2,4.4c-9.2,6.5-5.5,21.2-1.6,24.5
							c1.1,0.9,2.9,1,4.8,0.7c0.1,0.1,0.2,0.2,0.3,0.2c4.2,3,15.7-5.3,15.7-5.3C108.1,176,109.3,169.1,106,165.5z"/>
						<linearGradient id="SVGID_7_" gradientUnits="userSpaceOnUse" x1="92.8662" y1="189.4563" x2="92.8662" y2="200.6422">
							<stop  offset="0" style="stop-color:#F16040"/>
							<stop  offset="1" style="stop-color:#D24D37"/>
						</linearGradient>
						<path fill="url(#SVGID_7_)" d="M109.8,191.4c-0.4-0.8-0.9-1.6-1.5-2.3c-4.1-5.1-16.3-1.6-25.4,0.9l-3.7,0.1
							c-1,1.4-2.5,2.8-3.7,4.1c0.2,1.7,0.6,3.5,1.3,5.3c0.6,0.1,1.2,0.2,2,0.2c7.4,0,16.3,2.1,22,2.2c3.7,0.1,7.2-1.5,9.1-2.6
							C110.2,196.6,110.3,194.1,109.8,191.4z"/>
					</g>
					<path fill="#FED09D" d="M18.4,191.8c3.3-2.1,5.5-5.8,6.1-9.6c-3.4-4.2,3.3-13.8,3.5-17.2c0.3-4.6-3.3-8.7-7.4-9.6
						c-4.1-0.9-8.3,0.7-11.8,3.2c-3.7,2.6-7,6.4-8.3,11.1c-1.5,5.7,0.2,12.2,3.6,16.8c2.4,3.3,5.8,5.6,9.4,7.2
						C15.3,193.4,16.9,192.7,18.4,191.8z"/>
					<path fill="#9D3E3A" d="M69.9,189.3c0.2-1.5,0.8-2.3,2-3.1c-2.2,0.4-4.7,0.7-7.6,0.8c-0.7,1.8-0.9,3.7-0.4,5.6
						c0.6,2.2,2.1,4.1,4,5.2c1.4-0.1,2.7-0.2,3.9-0.2C70.5,195.6,69.5,193.4,69.9,189.3z"/>
					<path fill="#9D3E3A" d="M26.4,183.5c0.9,4.1-4.7,10.3-9.4,11.4c0.4,0.1,0.8,0.2,1.1,0.3c1.2,0.3,2.6,0.6,4,0.9
						c5.5-2.6,8.1-8.1,8-11.6c-1-0.2-2-0.5-2.7-0.7C27,183.7,26.7,183.6,26.4,183.5z"/>
					<linearGradient id="SVGID_8_" gradientUnits="userSpaceOnUse" x1="99.944" y1="195.47" x2="98.9676" y2="184.2405">
						<stop  offset="0" style="stop-color:#F7912F"/>
						<stop  offset="4.038008e-002" style="stop-color:#F78D30"/>
						<stop  offset="0.3479" style="stop-color:#F4763A"/>
						<stop  offset="0.6039" style="stop-color:#F2663F"/>
						<stop  offset="0.7752" style="stop-color:#F16040"/>
					</linearGradient>
					<path fill="url(#SVGID_8_)" d="M108.3,189.1c-0.6-0.8-1.5-1.4-2.5-1.8c-1.8-0.6-4-0.9-6-0.8c-1.8,0.5-3.7,1.2-6,2
						c-10.1,3.9,2.8,8.4,6.8,6.6c2.5-1.7,6.8-4.1,8.3-5.1C108.7,189.7,108.5,189.4,108.3,189.1z"/>
					<linearGradient id="SVGID_9_" gradientUnits="userSpaceOnUse" x1="91.5934" y1="189.9048" x2="125.7786" y2="188.573">
						<stop  offset="0" style="stop-color:#BE562D"/>
						<stop  offset="9.685800e-004" style="stop-color:#BE562D"/>
						<stop  offset="0.3887" style="stop-color:#BE522E"/>
						<stop  offset="0.8771" style="stop-color:#BE4632"/>
						<stop  offset="0.9949" style="stop-color:#BE4234"/>
						<stop  offset="1" style="stop-color:#BE4234"/>
					</linearGradient>
					<path fill="url(#SVGID_9_)" d="M133.6,188.6c-0.6-0.6-1.7-1.8-3-2.8c-0.6-0.1-1.2-0.3-1.9-0.5c-9.1-0.4-10.6,4-6.5,4.2
						c6.6,0.2,10.2,1.3,12,1.9C134.3,190.4,134.2,189.5,133.6,188.6z"/>
					<linearGradient id="SVGID_10_" gradientUnits="userSpaceOnUse" x1="106.5716" y1="176.9957" x2="129.6084" y2="176.0982">
						<stop  offset="0" style="stop-color:#BE562D"/>
						<stop  offset="9.685800e-004" style="stop-color:#BE562D"/>
						<stop  offset="0.3887" style="stop-color:#BE522E"/>
						<stop  offset="0.8771" style="stop-color:#BE4632"/>
						<stop  offset="0.9949" style="stop-color:#BE4234"/>
						<stop  offset="1" style="stop-color:#BE4234"/>
					</linearGradient>
					<path opacity="0.72" fill="url(#SVGID_10_)" d="M128.5,169.5c0.6,1.9,1.4,5.5-1.9,10.7c-2.2,3.4,1.5,3.1,5.6,0.8
						C138.4,173.2,134,170.1,128.5,169.5z"/>
					<path opacity="0.31" fill="#FBEF57" d="M24.2,167.5c1.3-3.1,1.6-6.8,0.6-10c-1.2-1.1-2.6-1.8-4.1-2.2
						c-4.1-0.9-8.3,0.7-11.8,3.2c-0.4,0.3-0.7,0.6-1.1,0.8c-9.2,12.8-0.6,19.5,3.4,19.4c2.4-0.1,4.6-1,6.4-2.6
						C20.3,173.9,22.7,171,24.2,167.5z"/>
					<path fill="#9D3E3A" d="M99.2,128.6c-0.8,2.5-1.8,4.8-3.1,7c-0.2,0.3-0.1,0.6,0.2,0.8c3.1,1.4,6.4,4.3,9.8,8.3
						c0.4,0.4,1.1,0.1,1-0.4c-1.2-6.6-3.3-11-6.9-15.8C99.9,128.1,99.3,128.2,99.2,128.6z"/>
					<path fill="#9D3E3A" d="M89.3,161.8c-1.6-4.3-4.4-8.1-7.9-11c-2.5,2.6-4.8,4.7-6.3,6.2C80.1,157.1,85.1,158.8,89.3,161.8z"/>
					<path fill="#9D3E3A" d="M87,172.2c-3.6-0.9-7.4-1-11-1.9c-2.3-0.6-4.5-1.5-6.4-3c-0.4,3.1-0.4,6.8,0.4,11.2
						c3.4,0.4,7.1-0.1,10.5-0.8c5.2-1,10.9-2,15.6,0.4C94.3,174.9,90.6,173,87,172.2z"/>
					<path fill="#9D3E3A" d="M71.3,183.7c0.6,1.8,1.2,3.6,2.1,5.6c4.1-1.1,3.8-2.7,9.7-3.6c3.6-0.5,6.4,0.3,6.4,0.3
						s-2.8-2.4-8.2-2.6C75.5,183.1,74.4,184.5,71.3,183.7z"/>
					<path fill="#9D3E3A" d="M34.1,188.3c0.2,0.8,1.2,8.3-0.1,8.3c2.5-0.7,4.7-2.4,6.1-4.6c1.1-1.7,1.6-3.8,1.5-5.8
						c-3.4-0.3-6.5-0.8-9.1-1.2C33.2,186,33.7,187,34.1,188.3z"/>
					<path fill="#9D3E3A" d="M57,191.6c0.9-2,2.6-3.6,4.7-4.5c-3.3,0.1-6.8,0-10.3-0.2c-0.2,1.7-0.1,3.8,0.4,5.4
						c0.7,2.1,2.4,4.4,4.4,6c0.2,0,0.5,0,0.7,0C56,196.1,56,193.7,57,191.6z"/>
					<path fill="#9D3E3A" d="M87.6,144.2c4.1,2.1,7.6,5.2,10.2,9c0.3,0.4,0.9,0.1,0.8-0.3c-1.2-5.3-3.7-10.3-7.2-14.4
						c-0.2-0.2-0.6-0.2-0.7,0.1c-1,1.8-2.1,3.4-3.2,5C87.3,143.8,87.3,144.1,87.6,144.2z"/>
					<path fill="#9D3E3A" d="M110,198.4c-2,1-5.2,2.4-8.4,2.4c-3.9,0-11.6-0.8-16.1-0.7c6.1,0.6,12,2,16.2,2.2
						c3.8-0.4,6.8-1.8,8.2-3C110,199,110,198.7,110,198.4z"/>
					<path fill="#9B3430" d="M98,193.1c0,0,3.5,1.5,5.7,5.9c-0.4-2.4-1.4-4.5-2-5.1C101.3,193.5,97.6,192.8,98,193.1z"/>
					<path fill="#9B3430" d="M106.1,189.6c0,0,1.3,1.9,1.5,2.5c0.1,0.9,1.1,5.1,1.1,5.1s0.1-4.4-0.3-5.9
						C108.2,190.6,105,188.3,106.1,189.6z"/>
				</g>
			</g>
			<linearGradient id="SVGID_11_" gradientUnits="userSpaceOnUse" x1="124.7177" y1="161.9594" x2="140.7718" y2="149.9188">
				<stop  offset="0" style="stop-color:#F47C32"/>
				<stop  offset="0.2701" style="stop-color:#F26B39"/>
				<stop  offset="0.5485" style="stop-color:#F15B3F"/>
				<stop  offset="0.6554" style="stop-color:#E6573D"/>
				<stop  offset="0.7938" style="stop-color:#D34D3A"/>
				<stop  offset="0.949" style="stop-color:#B63F35"/>
				<stop  offset="1" style="stop-color:#AC3A33"/>
			</linearGradient>
			<path fill="url(#SVGID_11_)" d="M137,140.4c-0.2-0.3-0.9-1.2-1.2-1.7c0,0-0.1,0-0.1,0c-1.1,3-1.6,5.8-3.4,8.6
				c-3.2,6.1-6.8,6.7-7.3,10.1c0,0,0,0,0,0c0.9,2.7,2.7,9.4,2.8,9.8c4.3,2,9,1.6,9.7-0.2c1-2.3,3.1-10.1,3.4-12.6
				C141.4,149.8,139.7,144.2,137,140.4z"/>
			<g>
				<linearGradient id="SVGID_12_" gradientUnits="userSpaceOnUse" x1="64.3756" y1="19.5715" x2="90.358" y2="19.5715">
					<stop  offset="0" style="stop-color:#FED4A8"/>
					<stop  offset="6.104374e-003" style="stop-color:#FED4A7"/>
					<stop  offset="0.9516" style="stop-color:#FCB96E"/>
				</linearGradient>
				<path fill="url(#SVGID_12_)" d="M107.6,29.6c1.6-6.6,2.4-13.7-0.9-19.7c-3.2-6-11.5-10.5-19.6-8.8c-4.6,1-8.5,3.9-11.1,7.2
					c-2.6,3.3-4.1,7.1-5.4,10.9c-1.1,3.1-2.2,6.4-1.3,9.5c1.2,4,5.5,6.9,10.2,8.3c4.8,1.4,10,1.4,15.1,1.5L107.6,29.6z"/>
				<path fill="#FED7AC" d="M95.8,25.6c-4.8-4.5-10.9-4.3-12-4.5c2.2,1,5.9,3.3,6.4,4.9c-3.9-1-9.9,0.6-13.3,3.1c6,0.4,8.9,3.4,9,5
					c-6.4,0.7-9.7,2.4-11.7,8.2c3.7-1.7,13-0.7,15.3,0c3.4-3.3,6.8-8.7,8-9.8C97.1,31.2,96.1,26.7,95.8,25.6z"/>
				<linearGradient id="SVGID_13_" gradientUnits="userSpaceOnUse" x1="93.6685" y1="3.3508" x2="100.3376" y2="25.098">
					<stop  offset="0" style="stop-color:#76262D"/>
					<stop  offset="0.1743" style="stop-color:#7B2A2E"/>
					<stop  offset="0.4001" style="stop-color:#893530"/>
					<stop  offset="0.6542" style="stop-color:#A24631"/>
					<stop  offset="0.927" style="stop-color:#C76030"/>
					<stop  offset="1" style="stop-color:#D4682E"/>
				</linearGradient>
				<path fill="url(#SVGID_13_)" d="M106.8,9.8c-3.2-6-11.5-10.5-19.6-8.8c-1.8,0.4-3.5,1.1-5.1,2c1.7,0.6,3.2,1.5,4.3,2.6
					c2.1,2,3.3,4.4,4.2,6.9c2.7,6.8,4.1,14.1,4,21.4c0,1.4,0,2.9,0.3,4.3l12.6-8.8C109.2,22.9,110,15.8,106.8,9.8z"/>
			</g>
			<path fill="#9D3E3A" d="M72.3,51.9c-4.2,2-6.7,1.4-7.8,0.3c-0.8,1.2-1.4,7.1,1.4,14.4c2.9,7.2,21.3-4.8,19.5-14.7
				C83.7,42,72.3,51.9,72.3,51.9z"/>
			<linearGradient id="SVGID_14_" gradientUnits="userSpaceOnUse" x1="143.2415" y1="29.2824" x2="125.4453" y2="95.8399">
				<stop  offset="9.685800e-004" style="stop-color:#F7912F"/>
				<stop  offset="0.2206" style="stop-color:#F78D31"/>
				<stop  offset="0.505" style="stop-color:#F58136"/>
				<stop  offset="0.8237" style="stop-color:#F36E3D"/>
				<stop  offset="0.9949" style="stop-color:#F16040"/>
			</linearGradient>
			<path fill="url(#SVGID_14_)" d="M199.5,81.4c-0.2,0-0.3,0-0.5,0c-0.2,0-0.3,0-0.5,0c-0.2,0-0.4,0-0.7,0c-0.1,0-0.2,0-0.3,0
				c-0.3,0-0.5,0-0.8-0.1c-4.9-0.7-9.3-4.8-11.5-9.5c-2.7-5.9-2.9-12.6-4.2-18.9c-2.6-13-9.9-25-20.2-33.3c-1.6-1.3-4.4-3.1-6.8-5
				c-4.4-3.7-8.3-9.1-11-14.7c-0.2,3.4-0.4,6.7-0.6,10.1c-1.7-0.6-3.1-2.5-3.5-4.5c-0.9,2.8-1.1,5.9-0.8,9
				c-5.2,0.5-10.6,0.3-15.7,1.4C107,19.4,94.1,30,83.4,41.3c-3.3,3.5-7.6,8-12.4,10.9c-2.6,1.6-4.5,2.5-5.8,2.9
				c1,6.7,3.4,13.1,6.4,19.1c4.5,8.9,9.4,17.8,15.2,26c0.8,1.1,0.5,2.2-0.3,2.9c4.7,5.5,10,10.4,16,13.4c6.9,3.5,15.5,4.7,23.2,5.6
				c3.7,0.5,7.3,0.7,11,0.9c18-0.8,28.8-5.1,42.1-14.9c8.7-6.5,17.8-16.8,21.8-26.9v0C200.2,81.3,199.9,81.4,199.5,81.4z"/>
			<path fill="#9D3E3A" d="M71.7,51.7c-0.2,0.1-0.5,0.3-0.7,0.5c-2.6,1.6-5,2.1-6.1,2.4c1,6.7,3.6,13.7,6.7,19.6
				c0.4,0.8,0.8,1.6,1.2,2.3c2.7-1.5,5.1-3.6,6.5-4.6C75.9,67.5,73.1,57.5,71.7,51.7z"/>
			<path fill="#9D3E3A" d="M181.1,53c-0.3-1.7-0.7-3.3-1.2-4.9c-1.6,4-6.6,15.4-9.9,17.6c3.3-0.1,8.5-1.9,12.4-4.3
				C182,58.6,181.7,55.8,181.1,53z"/>
			<path fill="#9D3E3A" d="M189.9,78.1c-2-1.7-3.6-3.9-4.6-6.2c-0.7-1.6-1.3-3.2-1.7-4.9c-2.5,7.7-20.6,25.8-37.4,31
				C152.6,100,179.3,93.4,189.9,78.1z"/>
			<path fill="#FAAD7B" d="M79.4,57.3C77.5,66,79,74.7,81.5,80.2c7.8,11.3,20.6,6,22.3,2.8c2.2-4,2.4-13.2,1.9-16.8
				c-0.7-4.8-1.4-9.8-4.1-13.9c-2.6-4.1-7.7-7.2-12.5-6C85.9,47.1,80.9,50.9,79.4,57.3z"/>
			<path fill="#9D3E3A" d="M154.1,14.7c-4.4-3.7-8.3-9.1-11-14.7c-0.2,3.4-0.4,6.7-0.6,10.1c-1.7-0.6-3.1-2.5-3.5-4.5
				c-0.9,2.8-1.1,5.9-0.8,9c-0.5,0-1.1,0.1-1.6,0.1c0.4,1.1,1,2.2,1.7,3.2l3.1,1.1c4.4-1.7,8.9-2.9,13.5-3.7
				C154.6,15,154.4,14.9,154.1,14.7z"/>
			<path fill="#FAAD7B" d="M141.9,63.6c10.8-2.9,18.1-0.2,22.1,6.3c2.5,4,1,9.4-1.2,13.6c-3.8,7.1-10.5,12.6-18.2,15.1
				c-5.7,1.8-12,1.9-17.8,0.3c-2.8-0.8-5.4-1.1-5.8-3.9c-0.3-2.2,0.6-8.5,1.3-10.5C125.7,74.6,131.8,66.3,141.9,63.6z"/>
			<path fill="#76262D" d="M144.4,96.8c-9.8,7.1-16.9,3.4-20.6,2.4c-5.1-4.5-1.8-15,5.4-22.6c6.7-7.2,16.2-7.6,20.8-2.9
				C154.6,78.4,153.6,90.1,144.4,96.8z"/>
			<path fill="#FDE3E5" d="M142.5,95.7c-8.8,7.1-15.7,3.8-19.2,3.1c-5.1-4.1-2.5-14,3.8-21.5c5.9-7,14.8-7.7,19.4-3.5
				C151.1,78.1,150.7,89.1,142.5,95.7z"/>
			<path fill="#FFFFFF" d="M143.1,74.5c-2-1.8-4.6-2.7-7.6-2.7c-3,0.8-6,2.6-8.4,5.6c-6.3,7.5-8.9,17.4-3.8,21.5
				c2.7,0.6,7.3,2.6,13.1,0.4c0.8-0.5,1.6-1.1,2.5-1.8C147.5,90.5,147.9,78.9,143.1,74.5z"/>
			<g>
				<linearGradient id="SVGID_15_" gradientUnits="userSpaceOnUse" x1="124.5547" y1="95.0036" x2="132.5429" y2="85.0627">
					<stop  offset="0" style="stop-color:#FBA819"/>
					<stop  offset="0.9894" style="stop-color:#AD1F23"/>
				</linearGradient>
				<ellipse fill="url(#SVGID_15_)" cx="129.1" cy="89.3" rx="8" ry="8.5"/>
				<ellipse fill="#76262D" cx="129.1" cy="89.3" rx="5.6" ry="5.9"/>
			</g>
			<linearGradient id="SVGID_16_" gradientUnits="userSpaceOnUse" x1="121.3499" y1="88.5953" x2="124.9092" y2="118.4928">
				<stop  offset="0.1368" style="stop-color:#FFEBD7"/>
				<stop  offset="0.2797" style="stop-color:#FEE1C2"/>
				<stop  offset="0.4134" style="stop-color:#FEDAB3"/>
				<stop  offset="0.5265" style="stop-color:#FED7AC"/>
				<stop  offset="0.7775" style="stop-color:#FED2A0"/>
				<stop  offset="1" style="stop-color:#FED09D"/>
			</linearGradient>
			<path fill="url(#SVGID_16_)" d="M179.6,91.9c-3.7,3-6.6,4.4-10.7,5.2c1.5-1.6,2.8-3.3,3.9-5.2c-0.1,0-0.1,0-0.2,0.1
				c-15.6,5.2-34.2,8.8-47.3,4.2c-2.2-0.8-5.1-6.6-4.8-9.7c-1.1-9.4-13.1,0.3-21.6-4.3c-2.3-1.2-8.2-0.8-10.3-2.3
				c-9-6.3-16-14.9-21.9-24.1c-0.3,3.4-0.2,7.8,0.5,9.6c-4.7-4.4-5.8-11-6.1-11c-0.2,1.5-0.7,3.2-0.7,4.7c0,8.1,1.6,16.3,4.7,23.7
				c10.5,25.6,39.8,39.3,50.5,39.9c28.1,1.7,41.8-0.7,56.8-10.2c1.6-2,3.2-4.1,4.6-6.3c-1.9,1.2-4,2.1-6.2,2.6
				C175.1,105,178.1,98.7,179.6,91.9z"/>
			<path fill="#F4B99D" d="M106.1,113.7l1.4-2.8c0,0-15.9-9.3-18.4-12.9c-0.8-4,1.3-16,2.4-15.6c-0.8-0.2-2.3-2.3-2.8-2.6
				c-9-6.3-16-14.9-21.9-24.1c-0.3,3.4-0.2,7.8,0.5,9.6c-4.7-4.4-5.8-11-6.1-11c-0.2,1.5-0.7,3.2-0.7,4.7c0,8.1,1.6,16.3,4.7,23.7
				c8.2,20.1,28,32.8,41.3,37.7C106.7,116.8,106.1,113.7,106.1,113.7z"/>
			<path opacity="0.38" fill="#F09C5F" d="M199.5,81.4c-0.2,0-0.3,0-0.5,0c-0.2,0-0.3,0-0.5,0c-0.2,0-0.4,0-0.7,0
				c-0.1,0-0.2,0-0.3,0c-0.3,0-0.5,0-0.8-0.1c-4.9-0.7-9.3-4.8-11.5-9.5c-2.7-5.9-2.9-12.6-4.2-18.9c-0.2-0.8-0.3-1.6-0.5-2.3
				c2.2,18.2-4,39.6-20.2,52.9C137.8,122,104.1,114,104.1,114l-1.7-6.2c0,0-10.3-6.7-12.9-9.6c-0.2-8.8,1.6-15.1,2-15.8
				c-0.3-0.2-6.3,10-5.5,16.2c4.7,5.5,10.9,16.1,12.1,18.1c3.3,2.9,10.7,2.9,14.2,5.5c1.3,0.3,2.4,0.4,3.4,0.5
				c8.1,0.5,15,0.6,21,0.4c0,0,0,0,0,0c0.1,0,0.1,0,0.2,0c1,0,2.1-0.1,3.1-0.2c0,0,0.1,0,0.1,0c1-0.1,1.9-0.2,2.9-0.2
				c0.1,0,0.3,0,0.4,0c0.9-0.1,1.8-0.2,2.7-0.3c0.1,0,0.3,0,0.4-0.1c1.8-0.3,3.5-0.6,5.1-0.9c0.1,0,0.3-0.1,0.4-0.1
				c0.8-0.2,1.5-0.4,2.3-0.6c0.2,0,0.3-0.1,0.5-0.1c0.8-0.2,1.5-0.4,2.3-0.7c0.1,0,0.2-0.1,0.3-0.1c0.7-0.2,1.4-0.5,2-0.7
				c0.1,0,0.3-0.1,0.4-0.1c0.7-0.3,1.4-0.5,2.1-0.8c0.2-0.1,0.3-0.1,0.5-0.2c0.7-0.3,1.3-0.6,2-0.9c0.1-0.1,0.3-0.1,0.4-0.2
				c0.6-0.3,1.2-0.6,1.8-0.9c0.1-0.1,0.2-0.1,0.4-0.2c0.7-0.3,1.3-0.7,2-1.1c0.2-0.1,0.4-0.2,0.6-0.3c0.6-0.4,1.3-0.7,1.9-1.1
				c0.2-0.1,0.4-0.2,0.6-0.4c0.2-0.1,0.4-0.2,0.6-0.4c0,0,0,0,0,0c2.1-1.3,4.1-2.7,6.3-4.3c8.7-6.5,17.8-16.8,21.8-26.9v0
				C200.2,81.3,199.9,81.4,199.5,81.4z"/>
			<path fill="#76262D" d="M82.7,65.1c-0.1,3.3,0.3,8.8,2.3,12c1.6,1.7,4.5,3.9,5.7,4.9c2.7,0.8,7,1.3,9.6,0.2
				c1.5-0.7,2.9-1.7,3.9-3c0.2-1-0.5-2.7-0.5-3.7c-0.3-12-3.9-19-10.9-19.7C87.9,55.3,82.8,59.1,82.7,65.1z"/>
			<path fill="#FDE3E5" d="M84.2,66.5c-0.1,2.4,0,8.7,2.9,12.6c2,1.7,4.9,3.5,6.1,4.4c2.5,0.8,4.8,0.2,7.2-0.8
				c1.4-0.6,2.2-1.6,3.2-2.8c0.1-0.9,0.3-1.8,0.3-2.7c0.6-10-3.8-17.9-10.3-18.8C89.1,57.8,84.4,60.9,84.2,66.5z"/>
			<path fill="#FFFFFF" d="M95,60.7c-4.5-0.6-9.2,2.4-9.4,8.1c-0.1,2,0,6.8,1.7,10.7c2,1.7,4.7,3.3,5.8,4.1c2.5,0.8,4.8,0.2,7.2-0.8
				c1.4-0.6,2.2-1.6,3.2-2.8c0.1-0.9,0.3-1.8,0.3-2.7c0.3-4.8-0.6-9.2-2.3-12.5C99.8,62.5,97.6,61,95,60.7z"/>
			<g>
				<defs>
					<path id="SVGID_17_" d="M84.2,66.5c-0.1,2.4,0,8.7,2.9,12.6c0,0,0,0,0.1,0.1c2.6,2.3,4.8,3.4,6,4.3c2.5,0.8,4.8,0.2,7.2-0.8
						c1.4-0.6,1.3-1.3,2.3-2.5c-0.3-0.1,0.3-1.8,0.3-2.7c0.4-9.5-2.9-18-9.3-19.1C89.1,57.6,84.4,60.9,84.2,66.5z"/>
				</defs>
				<clipPath id="SVGID_18_">
					<use xlink:href="#SVGID_17_"  overflow="visible"/>
				</clipPath>
				<g clip-path="url(#SVGID_18_)">
					<g>
						<linearGradient id="SVGID_19_" gradientUnits="userSpaceOnUse" x1="89.6821" y1="81.1618" x2="97.0405" y2="72.0047">
							<stop  offset="0" style="stop-color:#FBA819"/>
							<stop  offset="0.9894" style="stop-color:#AD1F23"/>
						</linearGradient>
						<ellipse fill="url(#SVGID_19_)" cx="93.9" cy="75.9" rx="6.9" ry="8"/>
						<ellipse fill="#76262D" cx="93.9" cy="75.9" rx="4.8" ry="5.6"/>
					</g>
					<ellipse fill="#FFFFFF" cx="92.8" cy="69.5" rx="2" ry="2.4"/>
				</g>
			</g>
			<path fill="#9D3E3A" d="M155.1,15.4c-0.3-0.2-0.6-0.5-0.9-0.7c-0.3-0.3-0.6-0.6-0.9-0.8l-8-1.5c-2.3,0.7-4.6,1.2-7,1.5
				c0,0.2,0,0.5,0,0.7c-1.2,0.1-2.4,0.2-3.7,0.2c-5.9,6.8-8.3,15.8-9,25.2C136.8,23.2,149.4,17,155.1,15.4z"/>
			<path fill="#9D3E3A" d="M169.8,28.7c-2.3-3-5-5.7-7.8-8.1c-6.3,4.3-11.6,10-15.2,16.7c-0.3,0.5,0.4,1,0.8,0.7
				C153.9,32.8,161.8,29.6,169.8,28.7z"/>
			<path fill="#9D3E3A" d="M122.5,16c-2.8,0.6-5.6,1.5-8.2,2.6c-1.8,4.5-2.4,9.5-1.7,14.4c3.2-6,6.9-11.7,11-17.1
				C123.3,15.8,122.9,15.9,122.5,16z"/>
			<path fill="#F99E32" d="M90.6,80.5c1.6-2.1,11.1-6.9,16.3-6.6c5.2,0.3,16.1,3.8,15.6,9.9s-1.2,8.7-1.2,8.7s-12.9,3.4-21-1.5
				C92.1,86.1,90.6,80.5,90.6,80.5z"/>
			<path fill="#FBB878" d="M106.9,73.9c-5.2-0.3-14.7,4.5-16.3,6.6c0,0,0.3,1.2,1.5,3c5.7-4.3,14.1-8.2,17.3-9.2
				C108.5,74,107.6,73.9,106.9,73.9z"/>
			<path fill="#76262D" d="M91.2,81.1c2.8,3.9,9.2,9.3,29.8,10.2c0.3,2.3-2.6,4.6-2.6,4.6l-16.6-1.1l-1.1,2.8c0,0-2.8-0.8-3.7-1.7
				c-0.4-0.3-1.1-3.3-1.5-4.5c-4.7-4.6-4.9-6.6-4.9-6.6S90,79.4,91.2,81.1z"/>
			<path opacity="0.16" fill="#FFFFFF" d="M114.2,90.7c-0.4,1.5-0.8,3.2-1.3,4.7l5.5,0.3c0,0,2.9-2.2,2.6-4.6
				C118.5,91.1,116.3,91,114.2,90.7z"/>
			<g>
				<path fill="#61232A" d="M91.2,81.1l-0.3,0.2c1.4,2,3.8,4.4,8.4,6.4c4.6,2,11.4,3.5,21.8,4l0-0.4l-0.4,0.1c0,0.1,0,0.2,0,0.3
					c0,0.9-0.6,1.9-1.2,2.7c-0.3,0.4-0.6,0.7-0.9,0.9c-0.1,0.1-0.2,0.2-0.3,0.2l-0.1,0.1l0,0l0.3,0.3l0-0.4l-16.6-1.1
					c-0.2,0-0.4,0.1-0.4,0.3l-1.1,2.8l0.4,0.1l0.1-0.4c0,0-0.2-0.1-0.4-0.1c-0.4-0.1-1-0.4-1.7-0.6c-0.6-0.3-1.2-0.6-1.5-0.8
					l-0.1,0.1l0.1-0.1l0,0l-0.1,0.1l0.1-0.1c0,0-0.1-0.1-0.1-0.2c-0.2-0.4-0.4-1.2-0.6-2c-0.2-0.8-0.5-1.6-0.6-2.2l-0.1-0.2
					c-2.3-2.3-3.6-3.9-4.2-5c-0.3-0.5-0.5-0.9-0.6-1.1c0-0.1-0.1-0.2-0.1-0.2l0,0l0,0l-0.2,0l0.2,0l0,0l-0.2,0l0.2,0
					c0,0,0-0.3-0.1-0.7c0-0.4-0.1-1-0.1-1.5c0-0.4,0-0.8,0.1-1.1c0-0.1,0.1-0.2,0.1-0.2l0,0l0,0l0,0l0,0l0,0l-0.2-0.1v0.2
					c0.1,0,0.2-0.1,0.2-0.1l-0.2-0.1v0.2V81l-0.1,0.2l0.1,0V81l-0.1,0.2l0-0.1l0,0.1l0,0l0-0.1l0,0.1l0,0c0,0,0.1,0.1,0.1,0.2
					L91.2,81.1l0.3-0.2c-0.1-0.1-0.2-0.2-0.3-0.3c-0.1-0.1-0.2-0.2-0.4-0.2c-0.1,0-0.3,0.1-0.4,0.1c-0.2,0.1-0.2,0.3-0.3,0.4
					c-0.1,0.4-0.2,1-0.2,1.5c0,1.1,0.1,2.4,0.1,2.4c0,0.2,0.3,2.2,5.1,6.9l0.3-0.3l-0.4,0.1c0.2,0.6,0.5,1.7,0.7,2.6
					c0.1,0.5,0.3,0.9,0.4,1.3c0.1,0.2,0.1,0.3,0.2,0.5c0.1,0.1,0.1,0.2,0.2,0.4c0.6,0.5,1.5,0.9,2.3,1.2c0.8,0.3,1.5,0.5,1.6,0.5
					c0.2,0.1,0.4,0,0.5-0.3l0.9-2.5l16.3,1c0.1,0,0.2,0,0.3-0.1c0,0,0.7-0.5,1.4-1.4c0.7-0.8,1.4-1.9,1.4-3.2c0-0.1,0-0.3,0-0.4
					c0-0.2-0.2-0.4-0.4-0.4c-10.3-0.4-17-2-21.5-3.9c-4.5-1.9-6.7-4.2-8-6.1L91.2,81.1z"/>
			</g>
			<path fill="#E25239" d="M106.4,125.7c-5.7-2.3-14.3-3.6-20.5-1.1c-1.3,4.1-1.8,8.6-0.2,12.4c1.6,3.8,4.7,7.5,7.8,7.5
				c5,0,9.4-9.6,12.9-17.4c0.2-0.4,0.3-0.8,0.5-1.2C106.8,125.8,106.6,125.7,106.4,125.7z"/>
			<path fill="#9D3E3A" d="M86.4,133.1c-0.5,0.8-0.8,1.7-1.1,2.6c0.1,0.5,0.3,0.9,0.5,1.4c1.3,2.9,3.5,6.1,5.9,7.4
				c-1.2-5.8-0.7-12,1.6-17.4C90.4,128.2,87.9,130.4,86.4,133.1z"/>
			<path fill="#9D3E3A" d="M95.2,127.1c-0.7-2.3-2.2-4.4-4.2-5.8c-0.9-0.7-2-1.1-3-1.5c-0.7,1.3-1.3,2.8-1.8,4.2
				C89.4,123.9,92.7,124.9,95.2,127.1z"/>
			<g>
				<path fill="#76262D" d="M102.8,107c2.4,1.5,4,3.1,3.8,3.5c-0.2,0.3-2.2-0.8-4.5-2.3c-1.2-0.8-2.2-1.5-2.9-2
					c-0.7-0.6-1.1-0.9-1.1-1.1c0.1-0.2,0.7-0.1,1.6,0.2C100.5,105.6,101.7,106.2,102.8,107z"/>
			</g>
			<linearGradient id="SVGID_20_" gradientUnits="userSpaceOnUse" x1="111.1535" y1="92.959" x2="100.4075" y2="145.4246">
				<stop  offset="9.685800e-004" style="stop-color:#F7912F"/>
				<stop  offset="0.1838" style="stop-color:#F78E30"/>
				<stop  offset="0.3636" style="stop-color:#F68832"/>
				<stop  offset="0.6497" style="stop-color:#F47837"/>
				<stop  offset="0.7053" style="stop-color:#F37438"/>
				<stop  offset="0.7646" style="stop-color:#F3703A"/>
				<stop  offset="0.9949" style="stop-color:#F16040"/>
			</linearGradient>
			<path fill="url(#SVGID_20_)" d="M117.6,119.6c-1.1-2.6-3.8-8.8-7.3-9.7c-1.4-0.4-8.4-0.1-11.4,3.3c-1,1.2-6.2,9.4-8.4,14.9
				l-0.2,0.3c-0.1,0.5-0.2,1-0.3,1.5c-0.7,3.6-1.5,9,0.2,12.7c0.7,1.6,2.3,2,2.4,2c3.6,0.7,4.4-1.4,8.2-5c0.3-0.3,7.7-7.8,8.7-9.2
				c2-0.3,6.2-1.3,7.4-1.9C118.2,127.9,118,120.9,117.6,119.6z"/>
			<linearGradient id="SVGID_21_" gradientUnits="userSpaceOnUse" x1="103.6159" y1="117.8638" x2="114.3262" y2="118.953">
				<stop  offset="0" style="stop-color:#FCB24F"/>
				<stop  offset="0.3371" style="stop-color:#F9A14D"/>
				<stop  offset="0.5463" style="stop-color:#F99D4A"/>
				<stop  offset="0.8167" style="stop-color:#F79244"/>
				<stop  offset="1" style="stop-color:#F6873E"/>
			</linearGradient>
			<path fill="url(#SVGID_21_)" d="M110.3,109.9c-1.3-0.4-7.7-0.1-10.9,2.8c2.1,2.1,5.2,5.7,8.3,14.2c4.5,1.2,12.3-3.9,4-16.3
				C111.3,110.3,110.8,110,110.3,109.9z"/>
			<path fill="#9D3E3A" d="M97.5,121.8c0,0-0.6,4.3,0.5,8.5c0.8,3,3.6,5.7,5.2,7c1.6-1.6,3.6-3.7,5-5.2
				C101.3,131.4,97.5,121.8,97.5,121.8z"/>
			<path fill="#9D3E3A" d="M99.9,140.7c-0.6,0-1.3-0.1-1.9-0.4c-3.1-1.8-5.2-6.5-5.4-7.9c-0.6,3.7-0.4,7.5,1.5,10.7
				c0.3,0.6,0.7,1.1,1.3,1.5C96.8,144.1,97.9,142.7,99.9,140.7z"/>
			<path fill="#9D3E3A" d="M80.5,199c-1.6,0-2.9-0.3-4-0.6c0.1,0.3,0.2,0.7,0.4,1.1c0.6,0.1,1.2,0.2,2,0.2c3.3,0,6.9,0.4,10.3,0.9h0
				C86.3,199.8,82.2,199,80.5,199z"/>
			<path fill="#9B3430" d="M115.5,118.1c-0.5,0.1-2.7,0.9-2.7,0.9s1.7-0.1,2.6,0.2c0.5,0.2,2.4,2.6,2.4,2.9c0,0,0-0.5,0-0.8
				c-0.1-0.8-0.1-1.4-0.2-1.7C116.9,118.8,115.9,118.3,115.5,118.1z"/>
			<path fill="#9B3430" d="M113.1,111.8c-0.7,0.3-1.7,0.8-2.5,1.3c0.9-0.2,2.7,0,3.7,0.1C113.9,112.7,113.5,112.2,113.1,111.8z"/>
			<g>
				<path fill="#FFFFFF" d="M93.6,84.4c0.9,1.1,1.6,2,1.4,2.3c-0.2,0.3-1.4-0.2-2.4-1.5c-1-1.2-1.2-2.6-0.9-2.7
					C92.1,82.3,92.8,83.3,93.6,84.4z"/>
			</g>
			<linearGradient id="SVGID_22_" gradientUnits="userSpaceOnUse" x1="123.456" y1="163.4375" x2="145.7904" y2="157.094">
				<stop  offset="0" style="stop-color:#F7912F"/>
				<stop  offset="0.1973" style="stop-color:#F68634"/>
				<stop  offset="0.7212" style="stop-color:#F36B3E"/>
				<stop  offset="1" style="stop-color:#F16040"/>
			</linearGradient>
			<path opacity="0.88" fill="url(#SVGID_22_)" d="M125,157.4C125,157.4,125,157.4,125,157.4c1,3,1.9,6,2.7,9.1
				c4.4,1.8,10.4,1.1,9.3-3c-0.7-2.7-1.4-6.1-3.8-8.7C132.4,153.9,125.3,155.1,125,157.4z"/>
			<path fill="#9B3430" d="M127.6,166.3c2.1,0.2,3.7-0.5,4.1-0.5c-2.3-0.2-3.9-1-4.5-1.3C127.3,165.1,127.4,165.7,127.6,166.3z"/>
			<path fill="#9B3430" d="M129.8,161.6c-1.1-0.1-2.7-0.7-3.8-1c0.2,0.5,0.3,1,0.5,1.6C127.5,162.1,128.6,162,129.8,161.6z"/>
			<path fill="#9D3E3A" d="M134.7,146c3.8,2.1,4.7,8.8,5.1,13.9c0.6-2.2,1-4.3,1.2-5.4c0-0.5,0.1-0.9,0.1-1.4
				C140.2,150,138.5,146.3,134.7,146z"/>
			<path fill="#9D3E3A" d="M138.6,142.6c-0.5-1.1-1.1-2.1-1.7-3c-0.5-0.7-1.2-1.7-1.9-2.8c-0.6,2-0.9,4.6-1,7.1
				C134.8,142.6,136.9,141.6,138.6,142.6z"/>
			<path opacity="0.19" fill="#FBEF57" d="M104.6,40.2c3.5,3.9,9.3,5.3,14.8,5.9c12.6,1.2,25.3-1.5,37.7-4.3c4-0.9,8.6-2.3,10.3-5.8
				c1.2-2.5,0.5-5.4-1-7.6c-1.6-2.2-3.9-3.8-6.4-5.2c-11.1-6.2-24.9-7.7-37.4-4.7C113.5,20.6,94.4,29,104.6,40.2z"/>
			<ellipse fill="#FFFFFF" cx="129.2" cy="82.8" rx="2.1" ry="2.4"/>
			<path fill="#9D3E3A" d="M86.2,46.3c11-2.8,17.9,1.7,18.2,1.5c0.3-2.6-6.4-8.8-6.8-9.2C90.8,40.2,87.5,45,86.2,46.3z"/>
			<path fill="#9D3E3A" d="M151,53.1c-1.8-0.2-8.7,3.2-9.9,5.4c2.2,0.1,9.8,0.7,18.1,7.6C157.4,60.1,152.7,53.4,151,53.1z"/>
		</g>
	</g>
</g>
</svg>
