<?xml version="1.0" encoding="utf-8"?>
<!-- Generator: Adobe Illustrator 17.1.0, SVG Export Plug-In . SVG Version: 6.00 Build 0)  -->
<!DOCTYPE svg PUBLIC "-//W3C//DTD SVG 1.1//EN" "http://www.w3.org/Graphics/SVG/1.1/DTD/svg11.dtd">
<svg version="1.1" id="Layer_1" xmlns="http://www.w3.org/2000/svg" xmlns:xlink="http://www.w3.org/1999/xlink" x="0px" y="0px"
	 width="210.6px" height="190.8px" viewBox="0 0 210.6 190.8" enable-background="new 0 0 210.6 190.8" xml:space="preserve">
<g>
	<g>
		<g>
			<g>
				<g>
					<g>
						<g>
							
								<linearGradient id="SVGID_1_" gradientUnits="userSpaceOnUse" x1="7.7821" y1="-253.5729" x2="-13.3439" y2="-148.4715" gradientTransform="matrix(0.9747 0.2234 -0.2234 0.9747 130.5591 342.2899)">
								<stop  offset="9.685800e-004" style="stop-color:#F7912F"/>
								<stop  offset="0.2336" style="stop-color:#F47E37"/>
								<stop  offset="0.5252" style="stop-color:#F2693E"/>
								<stop  offset="0.694" style="stop-color:#F16040"/>
								<stop  offset="0.7733" style="stop-color:#ED5C3D"/>
								<stop  offset="0.8759" style="stop-color:#E45133"/>
								<stop  offset="0.9909" style="stop-color:#D83F27"/>
								<stop  offset="1" style="stop-color:#D63D27"/>
							</linearGradient>
							<path fill="url(#SVGID_1_)" d="M128.7,173.4c5.9,11.5,19.4,18.3,32.5,17.4c13.1-1,25.2-9.2,31.8-20.5
								c6.6-11.3,8-25.2,4.7-37.7c-1.2-4.7-3.1-9.2-3.9-14c-0.9-4.8-0.6-10,2-14.1c2.6-4,7-6.4,10.4-9.8c3.4-3.3,5.9-8.8,3.2-12.7
								c-1.5-2.2-4.2-3.2-6.9-3.6c-9.8-1.2-19,6.5-22.6,15.6c-3.6,9.1-2.7,19.3-1.1,28.9c1.6,9.6,3.9,19.3,3.1,29
								c-0.9,9.7-5.7,19.9-14.6,24.1c-8.9,4.2-25.4-1.9-27.1-11.5L128.7,173.4z"/>
							
								<linearGradient id="SVGID_2_" gradientUnits="userSpaceOnUse" x1="-63.3366" y1="-238.909" x2="-85.4116" y2="-173.1742" gradientTransform="matrix(0.9747 0.2234 -0.2234 0.9747 130.5591 342.2899)">
								<stop  offset="9.685800e-004" style="stop-color:#F7912F"/>
								<stop  offset="0.1446" style="stop-color:#F47E37"/>
								<stop  offset="0.3246" style="stop-color:#F2693E"/>
								<stop  offset="0.4288" style="stop-color:#F16040"/>
								<stop  offset="0.7309" style="stop-color:#F15C3C"/>
								<stop  offset="1" style="stop-color:#F15636"/>
							</linearGradient>
							<path fill="url(#SVGID_2_)" d="M129.1,174.2c-6.6,1.1-15.5,0.4-25.7-5.2c-20-11-27.4-42.9-27.8-52.3
								C58.3,86,58.9,81.5,58.9,81.5s25.6-0.2,42.2,2.3c11.3,1.7,21,11.1,24.3,13.6c10.4,8.1,20.8,21.2,30.6,42.3
								c3.6,7.7,0.7,19.6-5.1,24.6C148.9,166,136.2,172.9,129.1,174.2z"/>
							
								<linearGradient id="SVGID_3_" gradientUnits="userSpaceOnUse" x1="-66.2953" y1="-232.9079" x2="-69.038" y2="-183.195" gradientTransform="matrix(0.9747 0.2234 -0.2234 0.9747 130.5591 342.2899)">
								<stop  offset="0" style="stop-color:#FDC47F"/>
								<stop  offset="0.4757" style="stop-color:#F3B075"/>
								<stop  offset="1" style="stop-color:#EA9768"/>
							</linearGradient>
							<path fill="url(#SVGID_3_)" d="M141.6,118.9c8.1,11.5,12.6,20,6.7,33.1c-1,2.3-4,1.3-10.5,4.9c-5.9,2.8-11.8,7-13.5,5.7
								c-10-7.2-17.3-11.9-21.2-21.6c-0.1-5-1-17.8-3.8-23.6c-1.8-3.8-17.4-13.1-24.4-16.5c-4.9-2.3,0.7-6.8,10.1-9.4
								c5.3-1.4,8.4-6.9,15-6.6c6.3,0.3,11.1,3.1,18.1,7.6C126.4,98,135.8,110.7,141.6,118.9z"/>
							
								<linearGradient id="SVGID_4_" gradientUnits="userSpaceOnUse" x1="72.4897" y1="41.2334" x2="91.7323" y2="169.1967" gradientTransform="matrix(0.9984 -5.690000e-002 5.690000e-002 0.9984 58.1523 15.042)">
								<stop  offset="9.685800e-004" style="stop-color:#F7912F"/>
								<stop  offset="0.2336" style="stop-color:#F47E37"/>
								<stop  offset="0.5252" style="stop-color:#F2693E"/>
								<stop  offset="0.694" style="stop-color:#F16040"/>
								<stop  offset="0.7733" style="stop-color:#ED5C3D"/>
								<stop  offset="0.8759" style="stop-color:#E45133"/>
								<stop  offset="0.9909" style="stop-color:#D83F27"/>
								<stop  offset="1" style="stop-color:#D63D27"/>
							</linearGradient>
							<path fill="url(#SVGID_4_)" d="M150,146.8c-4-4.7-5.8-9.3-9.7-17.9c-3.1-7-6.1-13.9-4.2-20.2c3.2-10.6,13.6-6.5,19,5.5
								c3.2,7.2,6.8,21.3,4.3,30.9C152.3,171.8,154,151.5,150,146.8z"/>
							<path fill="#FED09D" d="M177.8,103.4c2.3-2.2,6.2-3.4,10.7-1c2.6,1.4,5,3.6,5.2,7.5c0.4-1.9,1-3.8,2.1-5.4
								c2.6-4,7-6.4,10.4-9.8s5.9-8.8,3.2-12.7c-1.5-2.2-4.2-3.2-6.9-3.6c-9.8-1.2-19,6.5-22.6,15.6
								C178.8,97,178.2,100.2,177.8,103.4z"/>
							
								<linearGradient id="SVGID_5_" gradientUnits="userSpaceOnUse" x1="-63.1728" y1="-204.6971" x2="-63.8325" y2="-182.1375" gradientTransform="matrix(0.9747 0.2234 -0.2234 0.9747 130.5591 342.2899)">
								<stop  offset="0" style="stop-color:#F9A971"/>
								<stop  offset="0.3941" style="stop-color:#F58231"/>
								<stop  offset="0.7462" style="stop-color:#F3703A"/>
								<stop  offset="0.9949" style="stop-color:#F16040"/>
							</linearGradient>
							<path fill="url(#SVGID_5_)" d="M100.7,145.3c8.7-0.4,17.6,8.7,22.5,14.9c1.4,1.8,2.7,3.6,3.9,5.6c0.4-0.3,0.7-0.7,1.1-1.1
								c4.5-5.8-0.4-17.2-10.8-25.6c-10.4-8.3-22.5-10.4-26.9-4.6c-3,3.9-1.8,10.4,2.6,16.8C93.8,147.9,96.1,145.5,100.7,145.3z"/>
							<path fill="#9D3E3A" d="M177.8,114c0.6-1.6,1.7-3,3.1-3.8c2.8-1.6,6.4-1.2,9,0.6c1.6,1.1,2.8,2.7,3.6,4.4
								c-0.1-1.3-0.1-2.6,0.1-3.8c-0.3-0.6-0.6-1.3-1-1.8c-1.8-2.7-4.7-4.6-7.8-5.2c-2-0.4-4.3-0.2-6.1,0.9c-0.4,0.2-0.7,0.5-1,0.8
								C177.5,108.7,177.6,111.4,177.8,114z"/>
							<path fill="#9D3E3A" d="M143.8,170.8c-1.1-0.1-2.2,0-3.3,0.2c-3.8,0.8-7.1,3.5-8.8,7c1.6,2,3.4,3.9,5.5,5.5
								c0.3-2.6,1.6-5.2,3.6-6.9c1.6-1.4,3.6-2.2,5.6-2.4c0.3,0,0.9-0.1,1.7-0.1C146.4,173.1,145,172,143.8,170.8z"/>
							<path fill="#9D3E3A" d="M198.3,156.9c-1.4,1.7-3.1,3.1-5,4.2c-3.6,2-7.8,2.5-11.5,1.4c0.7,1.7,2.1,2.9,3.7,3.5
								c1.6,0.6,4.4,1.4,7.5,1.3c0.7,0,1.3-0.1,1.7-0.1C196.3,163.9,197.5,160.4,198.3,156.9z"/>
							<path fill="#9D3E3A" d="M185.5,179.6c-0.7,0.2-1.6,0.3-2.6,0.1c-3.6-0.6-6.5-3.7-7-7.4c-1.7,3.6-1.8,7.9-0.3,11.5
								c0.3,0.7,0.7,1.5,1.3,2C180.1,184.1,182.9,182,185.5,179.6z"/>
							<path fill="#9D3E3A" d="M158.5,177.3c-1.5-0.1-3-0.4-4.5-0.9c-0.9,0.3-1.7,0.7-2.4,1.3c-2.7,2.1-4.1,5.6-3.8,9
								c0.1,0.6,0.5,1.9,0.8,2.5c1.3,0.4,2.6,0.7,3.9,0.9c-0.7-1.2-0.8-2.8-0.7-4C152.2,182.4,155,178.8,158.5,177.3z"/>
							<path fill="#9D3E3A" d="M197.8,132.6c-0.8-3.1-1.9-6.2-2.8-9.3c-1.2-0.3-2.4-0.3-3.5-0.1c-3.2,0.5-6.1,2.6-8.1,5.3
								c-1.1,1.5-1.9,3.1-2.6,4.8c0.2,0.9,0.3,1.8,0.4,2.7c2.4-1.9,5.3-3.1,8.3-3.5c1.9-0.2,3.8-0.1,5.7,0.3
								c0.9,0.2,1.9,0.6,2.8,0.8C197.9,133.2,197.9,132.9,197.8,132.6z"/>
							<path fill="#9D3E3A" d="M167.7,189.6c-4.3-2.3-6.8-7-4.5-11.9c-2.2,0-4.3,1.2-5.7,3c-1.4,1.7-2.1,3.9-2.6,6.1
								c-0.3,1.3-0.3,2.7,0.2,3.9c2,0.2,4,0.3,6,0.1C163.4,190.6,165.5,190.2,167.7,189.6z"/>
							<path opacity="0.45" fill="#FBEF57" d="M209.5,81.9c-1.5-2.2-4.2-3.2-6.9-3.6c-1.7-0.2-3.3-0.1-4.9,0.2
								c-3.6,3-6.2,7.2-7.3,11.8c-0.7,2.8-0.5,6.4,1.9,7.9c1.5,0.9,3.4,0.7,5.1,0.4c3.3-0.8,6.4-2.3,9.2-4.3
								C209.9,90.9,212.1,85.7,209.5,81.9z"/>
							<path opacity="0.29" fill="#FBEF57" d="M197.8,132.6c-1.2-4.7-3.1-9.2-3.9-14c-0.3-1.8-0.5-3.7-0.4-5.5
								c-1.5-0.6-3.8-0.9-4.5,0.6c-7.7,16.1-5.2,51.1-3.1,55.8c0.7,1.5,3.1,1.2,4.5,0.4c1.4-0.9,2.3-2.4,3.1-3.8
								c2.6-4.7,4.5-9.7,5.8-14.9C199.8,144.9,199.3,138.6,197.8,132.6z"/>
							<path fill="#9D3E3A" d="M116.3,157.8c-0.5,1.2-3.9,2.9-4.9,4.1c-1.5,1.8-2.5,4-3.1,6.3c-0.3,1.1-0.4,2.1-0.5,2.9
								c2.5,1.1,4.9,1.9,7.1,2.4C113.6,168.3,114.1,162.6,116.3,157.8z"/>
							<path fill="#9D3E3A" d="M96.1,163.6c1.8,1.7,3.7,3.2,5.7,4.5c1.3-7.5,4.2-14.5,8.4-20c-4.4,1.1-8.5,4.3-11.3,9
								C98,158.7,96.9,161.1,96.1,163.6z"/>
							
								<linearGradient id="SVGID_6_" gradientUnits="userSpaceOnUse" x1="6.6618" y1="96.668" x2="3.8219" y2="148.141" gradientTransform="matrix(1.0394 0.165 -0.1328 1.1665 155.1397 -14.2373)">
								<stop  offset="0" style="stop-color:#FDC47F"/>
								<stop  offset="0.4757" style="stop-color:#F3B075"/>
								<stop  offset="1" style="stop-color:#EA9768"/>
							</linearGradient>
							<path fill="url(#SVGID_6_)" d="M152.4,128.6c0.8,12.1-3.2,24.6-7.5,24.8c-4.3,0.2-8.3-9.4-9-21.5
								c-0.7-12.1,2.3-20.9,6.2-22.7C145.8,107.6,151.2,111.5,152.4,128.6z"/>
							<path fill="#9D3E3A" d="M90.4,157.1c1.3-6.7,4-12.9,7.8-17.3c-3.3-0.5-6.4,3.2-8.7,7c-0.9,1.6-1.8,3.3-2.4,5.1
								C88.1,153.8,89.2,155.5,90.4,157.1z"/>
							<path fill="#9D3E3A" d="M75.7,118.5c0.3,2.4,0.8,5.7,1.8,9.5h0c0.9-1,2.1-2.2,3.2-2.7c5.4-2.6,8.9-2.9,11.7-2.5
								c0.2,0,0.3-0.3,0.1-0.4C87.4,118.9,81.8,119.9,75.7,118.5z"/>
							<path fill="#9D3E3A" d="M151.8,146.5c2.4,1.2,4.4,3.2,5.7,5.6c0.7-2.4,1.3-5,1.7-7.4C156.7,144.7,154.1,145.3,151.8,146.5z"
								/>
							<path fill="#9D3E3A" d="M115.2,160.8c3.6,2.4,7.7,4.2,12,5.2c1.8,0.4,3.8,0.7,5.5-0.1c2.2-1.1,2.2-6.6,1.3-10.1
								c-1.4-4.9-3.3-5.6-8.3-6.6c-3-0.6-6.3-0.2-8.9,1.4c-2.6,1.7-4.3,4.8-3.9,7.8L115.2,160.8z"/>
							<path fill="#9D3E3A" d="M160.1,140.1c0.2-2.3,0.1-4.8-0.2-7.3c-2.4,0.5-4.7,1.4-6.8,2.6c0.2,1.5,1.8,2.4,3.2,3
								C157,138.7,158.6,139.5,160.1,140.1z"/>
							<g opacity="0.64">
								<g>
									<defs>
										<path id="SVGID_7_" d="M150,183.1c-1.9-1.3-3.3-3.9-2.5-6.2c0.3-1,0.9-1.7,1.7-2.4c-2.8-1.4-5.2-3.2-6.8-5.4
											c4.1-2,7.5-4.1,8.5-4.9c4.5-3.6,7.4-13.3,8.6-21.2c0.5-3.5,1-14.3,0.9-16.4c-5.7,8.5-26.9,3.5-30.4,4.2
											c-25.2,4.7-14.3,23-18.8,25.4c-8.3,4.3-20.9,0.8-29.9-16.3c4.3,11.2,11.4,23.1,22.1,29c10.3,5.6,19.2,6.4,25.7,5.2
											c0,0,0,0,0,0c6.1,11,19.3,17.5,32.1,16.6c7.7-0.6,15.1-3.7,21.2-8.4c-6.1,1.8-7.9,4.2-24,3.5
											C156,185.7,151.9,184.5,150,183.1z"/>
									</defs>
									<clipPath id="SVGID_8_">
										<use xlink:href="#SVGID_7_"  overflow="visible"/>
									</clipPath>
									<rect x="81.3" y="126.7" clip-path="url(#SVGID_8_)" fill="#D87146" width="101.1" height="65"/>
									<path clip-path="url(#SVGID_8_)" fill="#D87146" d="M181.2,125.7h-0.8v-1.9c-0.5,1.8-1.3,3.5-2.4,5.2
										c-2.1,3.3-5.2,6.4-9.1,8.9c-7.7,5.1-18.4,8.5-30.4,8.7c-23.9,0.5-43.5-11.3-43.8-26.5v5.5H181.2z"/>
									<path clip-path="url(#SVGID_8_)" fill="#D87247" d="M181,125.7h-0.7v-1.9c-0.5,1.8-1.3,3.5-2.4,5.2c-2.1,3.3-5.2,6.3-9,8.9
										c-7.7,5.1-18.4,8.4-30.2,8.7c-23.8,0.5-43.3-11.3-43.7-26.3v5.5H181z"/>
									<path clip-path="url(#SVGID_8_)" fill="#DA7349" d="M180.8,125.7H180v-1.9c-0.5,1.8-1.3,3.5-2.4,5.2
										c-2.1,3.3-5.2,6.3-9,8.9c-7.6,5.1-18.3,8.4-30.1,8.7c-23.7,0.5-43.1-11.2-43.5-26.2v5.5H180.8z"/>
									<path clip-path="url(#SVGID_8_)" fill="#DA754A" d="M180.6,125.7h-0.7v-1.9c-0.5,1.8-1.3,3.5-2.4,5.1
										c-2.1,3.3-5.1,6.3-8.9,8.8c-7.6,5.1-18.2,8.3-30,8.6c-23.6,0.5-42.9-11.2-43.3-26.1v5.5H180.6z"/>
									<path clip-path="url(#SVGID_8_)" fill="#DA754B" d="M180.4,125.7h-0.7v-2c-0.5,1.8-1.3,3.5-2.4,5.1
										c-2.1,3.3-5.1,6.3-8.9,8.8c-7.6,5.1-18.1,8.3-29.8,8.6c-23.5,0.5-42.7-11.1-43.1-26v5.5H180.4z"/>
									<path clip-path="url(#SVGID_8_)" fill="#DA774D" d="M180.2,125.7h-0.7v-2c-0.5,1.8-1.3,3.5-2.3,5.1
										c-2.1,3.3-5.1,6.2-8.9,8.7c-7.5,5-18,8.3-29.7,8.5c-23.3,0.5-42.6-11.1-42.9-25.9v5.5H180.2z"/>
									<path clip-path="url(#SVGID_8_)" fill="#DA784E" d="M180,125.7h-0.7v-2c-0.5,1.8-1.3,3.4-2.3,5.1c-2.1,3.2-5.1,6.2-8.8,8.7
										c-7.5,5-18,8.2-29.6,8.5c-23.2,0.5-42.4-11-42.7-25.8v5.5H180z"/>
									<path clip-path="url(#SVGID_8_)" fill="#DA784F" d="M179.8,125.7h-0.7v-2c-0.5,1.7-1.3,3.4-2.3,5c-2,3.2-5.1,6.2-8.8,8.7
										c-7.5,5-17.9,8.2-29.5,8.5c-23.1,0.5-42.2-11-42.5-25.7v5.5H179.8z"/>
									<path clip-path="url(#SVGID_8_)" fill="#DA7A51" d="M179.7,125.7h-0.7v-2c-0.5,1.7-1.3,3.4-2.3,5c-2,3.2-5,6.1-8.7,8.6
										c-7.4,5-17.8,8.2-29.3,8.4c-23,0.5-42-10.9-42.3-25.5v5.5H179.7z"/>
									<path clip-path="url(#SVGID_8_)" fill="#DB7A52" d="M179.5,125.7h-0.7v-2.1c-0.5,1.7-1.3,3.4-2.3,5c-2,3.2-5,6.1-8.7,8.6
										c-7.4,4.9-17.7,8.1-29.2,8.4c-22.9,0.5-41.8-10.9-42.1-25.4v5.5H179.5z"/>
									<path clip-path="url(#SVGID_8_)" fill="#DB7B53" d="M179.3,125.7h-0.7v-2.1c-0.5,1.7-1.3,3.4-2.3,5c-2,3.2-5,6.1-8.7,8.5
										c-7.4,4.9-17.6,8.1-29.1,8.4c-22.8,0.5-41.6-10.8-41.9-25.3v5.5H179.3z"/>
									<path clip-path="url(#SVGID_8_)" fill="#DA7C55" d="M179.1,125.7h-0.7v-2.1c-0.5,1.7-1.3,3.4-2.3,5c-2,3.2-5,6.1-8.6,8.5
										c-7.3,4.9-17.6,8.1-28.9,8.3c-22.7,0.5-41.4-10.8-41.7-25.2v5.5H179.1z"/>
									<path clip-path="url(#SVGID_8_)" fill="#DA7D56" d="M178.9,125.7h-0.7v-2.1c-0.5,1.7-1.3,3.4-2.3,4.9c-2,3.2-4.9,6-8.6,8.5
										c-7.3,4.9-17.5,8-28.8,8.3c-22.6,0.5-41.2-10.7-41.6-25.1v5.5H178.9z"/>
									<path clip-path="url(#SVGID_8_)" fill="#DC7F57" d="M178.7,125.7H178v-2.1c-0.5,1.7-1.3,3.3-2.3,4.9c-2,3.1-4.9,6-8.6,8.4
										c-7.3,4.9-17.4,8-28.7,8.2c-22.5,0.5-41-10.7-41.4-25v5.5H178.7z"/>
									<path clip-path="url(#SVGID_8_)" fill="#DC805A" d="M178.5,125.7h-0.7v-2.2c-0.5,1.7-1.3,3.3-2.3,4.9c-2,3.1-4.9,6-8.5,8.4
										c-7.2,4.8-17.3,7.9-28.5,8.2c-22.4,0.5-40.8-10.6-41.2-24.8v5.5H178.5z"/>
									<path clip-path="url(#SVGID_8_)" fill="#DC815B" d="M178.3,125.7h-0.7v-2.2c-0.5,1.7-1.3,3.3-2.2,4.9
										c-2,3.1-4.9,5.9-8.5,8.3c-7.2,4.8-17.2,7.9-28.4,8.2c-22.3,0.5-40.7-10.6-41-24.7v5.5H178.3z"/>
									<path clip-path="url(#SVGID_8_)" fill="#DC815B" d="M178.2,125.7h-0.7v-2.2c-0.5,1.7-1.3,3.3-2.2,4.8
										c-2,3.1-4.8,5.9-8.4,8.3c-7.2,4.8-17.2,7.9-28.3,8.1c-22.2,0.5-40.5-10.5-40.8-24.6v5.5H178.2z"/>
									<path clip-path="url(#SVGID_8_)" fill="#DD825D" d="M178,125.7h-0.7v-2.2c-0.5,1.7-1.2,3.3-2.2,4.8c-2,3.1-4.8,5.9-8.4,8.3
										c-7.1,4.8-17.1,7.8-28.1,8.1c-22.1,0.5-40.3-10.5-40.6-24.5v5.5H178z"/>
									<path clip-path="url(#SVGID_8_)" fill="#DD835F" d="M177.8,125.7h-0.7v-2.2c-0.5,1.7-1.2,3.3-2.2,4.8
										c-1.9,3.1-4.8,5.9-8.4,8.2c-7.1,4.7-17,7.8-28,8c-22,0.5-40.1-10.4-40.4-24.4v5.5H177.8z"/>
									<path clip-path="url(#SVGID_8_)" fill="#DD845F" d="M177.6,125.7h-0.7v-2.3c-0.5,1.7-1.2,3.2-2.2,4.8
										c-1.9,3.1-4.8,5.8-8.3,8.2c-7.1,4.7-16.9,7.8-27.9,8c-21.9,0.5-39.9-10.4-40.2-24.3v5.6H177.6z"/>
									<path clip-path="url(#SVGID_8_)" fill="#DE8560" d="M177.4,125.7h-0.7v-2.3c-0.5,1.6-1.2,3.2-2.2,4.8
										c-1.9,3-4.8,5.8-8.3,8.2c-7,4.7-16.8,7.7-27.7,8c-21.8,0.5-39.7-10.3-40-24.2v5.6H177.4z"/>
									<path clip-path="url(#SVGID_8_)" fill="#DE8662" d="M177.2,125.7h-0.7v-2.3c-0.5,1.6-1.2,3.2-2.2,4.7
										c-1.9,3-4.7,5.8-8.2,8.1c-7,4.7-16.8,7.7-27.6,7.9c-21.7,0.5-39.5-10.3-39.8-24v5.6H177.2z"/>
									<path clip-path="url(#SVGID_8_)" fill="#DD8763" d="M177,125.7h-0.7v-2.3c-0.5,1.6-1.2,3.2-2.2,4.7c-1.9,3-4.7,5.8-8.2,8.1
										c-7,4.7-16.7,7.7-27.5,7.9c-21.6,0.5-39.3-10.2-39.6-23.9v5.6H177z"/>
									<path clip-path="url(#SVGID_8_)" fill="#DD8864" d="M176.8,125.7h-0.7v-2.3c-0.5,1.6-1.2,3.2-2.2,4.7c-1.9,3-4.7,5.7-8.2,8
										c-6.9,4.6-16.6,7.6-27.3,7.9c-21.5,0.5-39.1-10.2-39.5-23.8v5.6H176.8z"/>
									<path clip-path="url(#SVGID_8_)" fill="#DE8865" d="M176.7,125.7H176v-2.4c-0.5,1.6-1.2,3.2-2.2,4.7c-1.9,3-4.7,5.7-8.1,8
										c-6.9,4.6-16.5,7.6-27.2,7.8c-21.4,0.5-39-10.1-39.3-23.7v5.6H176.7z"/>
									<path clip-path="url(#SVGID_8_)" fill="#DE8A66" d="M176.5,125.7h-0.7v-2.4c-0.5,1.6-1.2,3.2-2.1,4.6c-1.9,3-4.6,5.7-8.1,8
										c-6.9,4.6-16.4,7.5-27.1,7.8c-21.3,0.5-38.8-10.1-39.1-23.6v5.6H176.5z"/>
									<path clip-path="url(#SVGID_8_)" fill="#DE8A67" d="M176.3,125.7h-0.7v-2.4c-0.5,1.6-1.2,3.1-2.1,4.6c-1.9,3-4.6,5.6-8,7.9
										c-6.8,4.6-16.4,7.5-26.9,7.7c-21.2,0.5-38.6-10-38.9-23.5v5.6H176.3z"/>
									<path clip-path="url(#SVGID_8_)" fill="#DF8C68" d="M176.1,125.7h-0.7v-2.4c-0.5,1.6-1.2,3.1-2.1,4.6
										c-1.9,2.9-4.6,5.6-8,7.9c-6.8,4.5-16.3,7.5-26.8,7.7c-21.1,0.5-38.4-10-38.7-23.4v5.6H176.1z"/>
									<path clip-path="url(#SVGID_8_)" fill="#DF8D6A" d="M175.9,125.7h-0.7v-2.4c-0.5,1.6-1.2,3.1-2.1,4.6
										c-1.9,2.9-4.6,5.6-8,7.8c-6.8,4.5-16.2,7.4-26.7,7.7c-21,0.5-38.2-9.9-38.5-23.2v5.6H175.9z"/>
									<path clip-path="url(#SVGID_8_)" fill="#DF8D6B" d="M175.7,125.7h-0.7v-2.5c-0.5,1.6-1.2,3.1-2.1,4.6
										c-1.8,2.9-4.6,5.6-7.9,7.8c-6.7,4.5-16.1,7.4-26.5,7.6c-20.9,0.5-38-9.9-38.3-23.1v5.6H175.7z"/>
									<path clip-path="url(#SVGID_8_)" fill="#DF8F6C" d="M175.5,125.7h-0.7v-2.5c-0.5,1.6-1.2,3.1-2.1,4.5
										c-1.8,2.9-4.5,5.5-7.9,7.8c-6.7,4.5-16,7.4-26.4,7.6c-20.8,0.5-37.8-9.8-38.1-23v5.6H175.5z"/>
									<path clip-path="url(#SVGID_8_)" fill="#E2906F" d="M175.3,125.7h-0.7v-2.5c-0.5,1.6-1.2,3.1-2.1,4.5
										c-1.8,2.9-4.5,5.5-7.8,7.7c-6.7,4.4-16,7.3-26.3,7.6c-20.7,0.5-37.6-9.8-37.9-22.9v5.6H175.3z"/>
									<path clip-path="url(#SVGID_8_)" fill="#E29170" d="M175.1,125.7h-0.6v-2.5c-0.5,1.5-1.2,3-2.1,4.5
										c-1.8,2.9-4.5,5.5-7.8,7.7c-6.6,4.4-15.9,7.3-26.2,7.5c-20.5,0.5-37.4-9.7-37.7-22.8v5.6H175.1z"/>
									<path clip-path="url(#SVGID_8_)" fill="#E29271" d="M175,125.7h-0.6v-2.5c-0.5,1.5-1.2,3-2.1,4.5c-1.8,2.9-4.5,5.4-7.8,7.7
										c-6.6,4.4-15.8,7.2-26,7.5c-20.4,0.5-37.3-9.7-37.6-22.7v5.6H175z"/>
									<path clip-path="url(#SVGID_8_)" fill="#E29372" d="M174.8,125.7h-0.6v-2.6c-0.5,1.5-1.1,3-2,4.4c-1.8,2.8-4.4,5.4-7.7,7.6
										c-6.6,4.4-15.7,7.2-25.9,7.4c-20.3,0.5-37.1-9.6-37.4-22.5v5.6H174.8z"/>
									<path clip-path="url(#SVGID_8_)" fill="#E39474" d="M174.6,125.7h-0.6v-2.6c-0.5,1.5-1.1,3-2,4.4c-1.8,2.8-4.4,5.4-7.7,7.6
										c-6.5,4.4-15.6,7.2-25.8,7.4c-20.2,0.5-36.9-9.6-37.2-22.4v5.6H174.6z"/>
									<path clip-path="url(#SVGID_8_)" fill="#E39676" d="M174.4,125.7h-0.6v-2.6c-0.5,1.5-1.1,3-2,4.4c-1.8,2.8-4.4,5.4-7.6,7.5
										c-6.5,4.3-15.6,7.1-25.6,7.4c-20.1,0.5-36.7-9.5-37-22.3v5.6H174.4z"/>
									<path clip-path="url(#SVGID_8_)" fill="#E39677" d="M174.2,125.7h-0.6v-2.6c-0.4,1.5-1.1,3-2,4.4c-1.8,2.8-4.4,5.3-7.6,7.5
										c-6.5,4.3-15.5,7.1-25.5,7.3c-20,0.5-36.5-9.5-36.8-22.2v5.6H174.2z"/>
									<path clip-path="url(#SVGID_8_)" fill="#E39878" d="M174,125.7h-0.6v-2.6c-0.4,1.5-1.1,3-2,4.3c-1.8,2.8-4.3,5.3-7.6,7.5
										c-6.4,4.3-15.4,7.1-25.4,7.3c-19.9,0.5-36.3-9.4-36.6-22.1v5.6H174z"/>
									<path clip-path="url(#SVGID_8_)" fill="#E49979" d="M173.8,125.7h-0.6V123c-0.4,1.5-1.1,2.9-2,4.3
										c-1.8,2.8-4.3,5.3-7.5,7.4c-6.4,4.3-15.3,7-25.2,7.3c-19.8,0.4-36.1-9.4-36.4-22v5.6H173.8z"/>
									<path clip-path="url(#SVGID_8_)" fill="#E4997A" d="M173.6,125.7H173V123c-0.4,1.5-1.1,2.9-2,4.3c-1.7,2.8-4.3,5.3-7.5,7.4
										c-6.4,4.2-15.2,7-25.1,7.2c-19.7,0.4-35.9-9.3-36.2-21.9v5.6H173.6z"/>
									<path clip-path="url(#SVGID_8_)" fill="#E49B7B" d="M173.5,125.7h-0.6V123c-0.4,1.5-1.1,2.9-2,4.3
										c-1.7,2.7-4.3,5.2-7.4,7.3c-6.3,4.2-15.2,7-25,7.2c-19.6,0.4-35.7-9.3-36-21.7v5.6H173.5z"/>
									<path clip-path="url(#SVGID_8_)" fill="#E49B7C" d="M173.3,125.7h-0.6V123c-0.4,1.5-1.1,2.9-2,4.3
										c-1.7,2.7-4.3,5.2-7.4,7.3c-6.3,4.2-15.1,6.9-24.8,7.1c-19.5,0.4-35.6-9.2-35.8-21.6v5.6H173.3z"/>
									<path clip-path="url(#SVGID_8_)" fill="#E59C7E" d="M173.1,125.7h-0.6V123c-0.4,1.5-1.1,2.9-2,4.2
										c-1.7,2.7-4.2,5.2-7.4,7.3c-6.3,4.2-15,6.9-24.7,7.1c-19.4,0.4-35.4-9.2-35.6-21.5v5.7H173.1z"/>
									<path clip-path="url(#SVGID_8_)" fill="#E59E7F" d="M172.9,125.7h-0.6v-2.8c-0.4,1.5-1.1,2.9-1.9,4.2
										c-1.7,2.7-4.2,5.1-7.3,7.2c-6.2,4.2-14.9,6.8-24.6,7.1c-19.3,0.4-35.2-9.1-35.5-21.4v5.7H172.9z"/>
									<path clip-path="url(#SVGID_8_)" fill="#E49E80" d="M172.7,125.7h-0.6v-2.8c-0.4,1.4-1.1,2.8-1.9,4.2
										c-1.7,2.7-4.2,5.1-7.3,7.2c-6.2,4.1-14.8,6.8-24.4,7c-19.2,0.4-35-9.1-35.3-21.3v5.7H172.7z"/>
									<path clip-path="url(#SVGID_8_)" fill="#E49E82" d="M172.5,125.7h-0.6v-2.8c-0.4,1.4-1.1,2.8-1.9,4.2
										c-1.7,2.7-4.2,5.1-7.3,7.1c-6.2,4.1-14.8,6.8-24.3,7c-19.1,0.4-34.8-9-35.1-21.2v5.7H172.5z"/>
									<path clip-path="url(#SVGID_8_)" fill="#E6A082" d="M172.3,125.7h-0.6v-2.8c-0.4,1.4-1.1,2.8-1.9,4.1
										c-1.7,2.7-4.1,5.1-7.2,7.1c-6.1,4.1-14.7,6.7-24.2,6.9c-19,0.4-34.6-9-34.9-21.1v5.7H172.3z"/>
									<path clip-path="url(#SVGID_8_)" fill="#E5A185" d="M172.1,125.7h-0.6v-2.8c-0.4,1.4-1.1,2.8-1.9,4.1
										c-1.7,2.6-4.1,5-7.2,7.1c-6.1,4.1-14.6,6.7-24,6.9c-18.9,0.4-34.4-8.9-34.7-20.9v5.7H172.1z"/>
									<path clip-path="url(#SVGID_8_)" fill="#E5A286" d="M172,125.7h-0.6v-2.9c-0.4,1.4-1.1,2.8-1.9,4.1c-1.7,2.6-4.1,5-7.1,7
										c-6.1,4-14.5,6.7-23.9,6.9c-18.8,0.4-34.2-8.9-34.5-20.8v5.7H172z"/>
									<path clip-path="url(#SVGID_8_)" fill="#E7A386" d="M171.8,125.7h-0.6v-2.9c-0.4,1.4-1.1,2.8-1.9,4.1c-1.7,2.6-4.1,5-7.1,7
										c-6,4-14.4,6.6-23.8,6.8c-18.7,0.4-34-8.8-34.3-20.7v5.7H171.8z"/>
									<path clip-path="url(#SVGID_8_)" fill="#E7A488" d="M171.6,125.7H171v-2.9c-0.4,1.4-1,2.8-1.9,4.1c-1.6,2.6-4.1,5-7.1,7
										c-6,4-14.4,6.6-23.6,6.8c-18.6,0.4-33.9-8.8-34.1-20.6v5.7H171.6z"/>
									<path clip-path="url(#SVGID_8_)" fill="#E6A58A" d="M171.4,125.7h-0.6v-2.9c-0.4,1.4-1,2.7-1.9,4c-1.6,2.6-4,4.9-7,6.9
										c-6,4-14.3,6.5-23.5,6.8c-18.5,0.4-33.7-8.7-33.9-20.5v5.7H171.4z"/>
									<path clip-path="url(#SVGID_8_)" fill="#E6A68B" d="M171.2,125.7h-0.6v-2.9c-0.4,1.4-1,2.7-1.8,4c-1.6,2.6-4,4.9-7,6.9
										c-5.9,4-14.2,6.5-23.4,6.7c-18.4,0.4-33.5-8.7-33.7-20.4v5.7H171.2z"/>
									<path clip-path="url(#SVGID_8_)" fill="#E8A78C" d="M171,125.7h-0.6v-3c-0.4,1.4-1,2.7-1.8,4c-1.6,2.6-4,4.9-6.9,6.8
										c-5.9,3.9-14.1,6.5-23.2,6.7c-18.3,0.4-33.3-8.7-33.5-20.2v5.7H171z"/>
									<path clip-path="url(#SVGID_8_)" fill="#E7A88D" d="M170.8,125.7h-0.6v-3c-0.4,1.4-1,2.7-1.8,4c-1.6,2.5-4,4.8-6.9,6.8
										c-5.9,3.9-14,6.4-23.1,6.6c-18.2,0.4-33.1-8.6-33.4-20.1v5.7H170.8z"/>
									<path clip-path="url(#SVGID_8_)" fill="#E7A98E" d="M170.6,125.7h-0.6v-3c-0.4,1.4-1,2.7-1.8,3.9c-1.6,2.5-3.9,4.8-6.9,6.8
										c-5.8,3.9-14,6.4-23,6.6c-18.1,0.4-32.9-8.6-33.2-20v5.7H170.6z"/>
									<path clip-path="url(#SVGID_8_)" fill="#E7A990" d="M170.4,125.7h-0.6v-3c-0.4,1.4-1,2.7-1.8,3.9c-1.6,2.5-3.9,4.8-6.8,6.7
										c-5.8,3.9-13.9,6.4-22.8,6.6c-18,0.4-32.7-8.5-33-19.9v5.7H170.4z"/>
									<path clip-path="url(#SVGID_8_)" fill="#E8AA90" d="M170.3,125.7h-0.6v-3c-0.4,1.3-1,2.6-1.8,3.9c-1.6,2.5-3.9,4.8-6.8,6.7
										c-5.8,3.8-13.8,6.3-22.7,6.5c-17.8,0.4-32.5-8.5-32.8-19.8v5.7H170.3z"/>
									<path clip-path="url(#SVGID_8_)" fill="#E8AA92" d="M170.1,125.7h-0.6v-3.1c-0.4,1.3-1,2.6-1.8,3.9
										c-1.6,2.5-3.9,4.7-6.7,6.6c-5.7,3.8-13.7,6.3-22.6,6.5c-17.7,0.4-32.3-8.4-32.6-19.7v5.7H170.1z"/>
									<path clip-path="url(#SVGID_8_)" fill="#E8AB93" d="M169.9,125.7h-0.6v-3.1c-0.4,1.3-1,2.6-1.8,3.8
										c-1.6,2.5-3.9,4.7-6.7,6.6c-5.7,3.8-13.6,6.3-22.5,6.5c-17.6,0.4-32.2-8.4-32.4-19.6v5.7H169.9z"/>
									<path clip-path="url(#SVGID_8_)" fill="#E8AD94" d="M169.7,125.7h-0.6v-3.1c-0.4,1.3-1,2.6-1.8,3.8
										c-1.6,2.4-3.8,4.7-6.7,6.6c-5.7,3.8-13.6,6.2-22.3,6.4c-17.5,0.4-32-8.3-32.2-19.4v5.7H169.7z"/>
									<path clip-path="url(#SVGID_8_)" fill="#E9AD94" d="M169.5,125.7H169v-3.1c-0.4,1.3-1,2.6-1.8,3.8
										c-1.5,2.4-3.8,4.6-6.6,6.5c-5.6,3.8-13.5,6.2-22.2,6.4c-17.4,0.4-31.8-8.3-32-19.3v5.7H169.5z"/>
									<path clip-path="url(#SVGID_8_)" fill="#E9AF96" d="M169.3,125.7h-0.5v-3.1c-0.4,1.3-1,2.6-1.7,3.8
										c-1.5,2.4-3.8,4.6-6.6,6.5c-5.6,3.7-13.4,6.1-22.1,6.3c-17.3,0.4-31.6-8.2-31.8-19.2v5.7H169.3z"/>
									<path clip-path="url(#SVGID_8_)" fill="#E9AF97" d="M169.1,125.7h-0.5v-3.2c-0.4,1.3-1,2.6-1.7,3.8
										c-1.5,2.4-3.8,4.6-6.5,6.4c-5.6,3.7-13.3,6.1-21.9,6.3c-17.2,0.4-31.4-8.2-31.6-19.1v5.7H169.1z"/>
									<path clip-path="url(#SVGID_8_)" fill="#E9B198" d="M168.9,125.7h-0.5v-3.2c-0.4,1.3-1,2.5-1.7,3.7
										c-1.5,2.4-3.7,4.6-6.5,6.4c-5.5,3.7-13.2,6.1-21.8,6.3c-17.1,0.4-31.2-8.1-31.5-19v5.7H168.9z"/>
									<path clip-path="url(#SVGID_8_)" fill="#EAB199" d="M168.8,125.7h-0.5v-3.2c-0.4,1.3-1,2.5-1.7,3.7
										c-1.5,2.4-3.7,4.5-6.5,6.4c-5.5,3.7-13.2,6-21.7,6.2c-17,0.4-31-8.1-31.3-18.9v5.8H168.8z"/>
									<path clip-path="url(#SVGID_8_)" fill="#EAB39A" d="M168.6,125.7H168v-3.2c-0.4,1.3-1,2.5-1.7,3.7
										c-1.5,2.4-3.7,4.5-6.4,6.3c-5.5,3.6-13.1,6-21.5,6.2c-16.9,0.4-30.8-8-31.1-18.8v5.8H168.6z"/>
									<path clip-path="url(#SVGID_8_)" fill="#EAB39B" d="M168.4,125.7h-0.5v-3.2c-0.4,1.3-0.9,2.5-1.7,3.7
										c-1.5,2.3-3.7,4.5-6.4,6.3c-5.4,3.6-13,6-21.4,6.1c-16.8,0.4-30.6-8-30.9-18.6v5.8H168.4z"/>
									<path clip-path="url(#SVGID_8_)" fill="#EAB39E" d="M168.2,125.7h-0.5v-3.3c-0.4,1.3-0.9,2.5-1.7,3.6
										c-1.5,2.3-3.6,4.5-6.3,6.3c-5.4,3.6-12.9,5.9-21.3,6.1c-16.7,0.4-30.4-7.9-30.7-18.5v5.8H168.2z"/>
									<path clip-path="url(#SVGID_8_)" fill="#EAB49F" d="M168,125.7h-0.5v-3.3c-0.4,1.3-0.9,2.5-1.7,3.6
										c-1.5,2.3-3.6,4.4-6.3,6.2c-5.4,3.6-12.8,5.9-21.1,6.1c-16.6,0.4-30.3-7.9-30.5-18.4v5.8H168z"/>
									<path clip-path="url(#SVGID_8_)" fill="#EBB5A0" d="M167.8,125.7h-0.5v-3.3c-0.4,1.2-0.9,2.4-1.7,3.6
										c-1.5,2.3-3.6,4.4-6.3,6.2c-5.3,3.6-12.8,5.8-21,6c-16.5,0.4-30.1-7.8-30.3-18.3v5.8H167.8z"/>
									<path clip-path="url(#SVGID_8_)" fill="#EBB6A1" d="M167.6,125.7h-0.5v-3.3c-0.4,1.2-0.9,2.4-1.6,3.6
										c-1.5,2.3-3.6,4.4-6.2,6.1c-5.3,3.5-12.7,5.8-20.9,6c-16.4,0.4-29.9-7.8-30.1-18.2v5.8H167.6z"/>
									<path clip-path="url(#SVGID_8_)" fill="#EAB6A1" d="M167.4,125.7h-0.5v-3.3c-0.4,1.2-0.9,2.4-1.6,3.6
										c-1.4,2.3-3.6,4.3-6.2,6.1c-5.3,3.5-12.6,5.8-20.7,6c-16.3,0.4-29.7-7.7-29.9-18.1v5.8H167.4z"/>
									<path clip-path="url(#SVGID_8_)" fill="#EAB8A2" d="M167.3,125.7h-0.5v-3.4c-0.4,1.2-0.9,2.4-1.6,3.5
										c-1.4,2.3-3.5,4.3-6.1,6.1c-5.2,3.5-12.5,5.7-20.6,5.9c-16.2,0.4-29.5-7.7-29.7-17.9v5.8H167.3z"/>
									<path clip-path="url(#SVGID_8_)" fill="#EBB9A3" d="M167.1,125.7h-0.5v-3.4c-0.4,1.2-0.9,2.4-1.6,3.5
										c-1.4,2.2-3.5,4.3-6.1,6c-5.2,3.5-12.4,5.7-20.5,5.9c-16.1,0.4-29.3-7.6-29.5-17.8v5.8H167.1z"/>
									<path clip-path="url(#SVGID_8_)" fill="#EBBAA4" d="M166.9,125.7h-0.5v-3.4c-0.4,1.2-0.9,2.4-1.6,3.5
										c-1.4,2.2-3.5,4.3-6.1,6c-5.2,3.4-12.3,5.7-20.3,5.8c-16,0.4-29.1-7.6-29.4-17.7v5.8H166.9z"/>
									<path clip-path="url(#SVGID_8_)" fill="#EBBAA6" d="M166.7,125.7h-0.5v-3.4c-0.4,1.2-0.9,2.4-1.6,3.5
										c-1.4,2.2-3.5,4.2-6,5.9c-5.1,3.4-12.3,5.6-20.2,5.8c-15.9,0.4-28.9-7.5-29.2-17.6v5.8H166.7z"/>
									<path clip-path="url(#SVGID_8_)" fill="#EBBBA7" d="M166.5,125.7H166v-3.4c-0.4,1.2-0.9,2.3-1.6,3.4
										c-1.4,2.2-3.4,4.2-6,5.9c-5.1,3.4-12.2,5.6-20.1,5.8c-15.8,0.4-28.7-7.5-29-17.5v5.8H166.5z"/>
									<path clip-path="url(#SVGID_8_)" fill="#ECBCA8" d="M166.3,125.7h-2.1v0c-1.4,2.2-3.4,4.2-6,5.9
										c-5.1,3.4-12.1,5.6-19.9,5.7c-15.7,0.4-28.6-7.4-28.8-17.4v5.8H166.3z"/>
									<path clip-path="url(#SVGID_8_)" fill="#ECBCA9" d="M166.1,125.7h-2.1v-0.1c-1.4,2.2-3.4,4.1-5.9,5.8
										c-5,3.4-12,5.5-19.8,5.7c-15.6,0.4-28.4-7.4-28.6-17.3v5.8H166.1z"/>
									<path clip-path="url(#SVGID_8_)" fill="#ECBEAA" d="M165.9,125.7h-2v-0.1c-1.4,2.2-3.4,4.1-5.9,5.8
										c-5,3.3-11.9,5.5-19.7,5.7c-15.5,0.4-28.2-7.3-28.4-17.1v5.8H165.9z"/>
									<path clip-path="url(#SVGID_8_)" fill="#ECBFAB" d="M165.8,125.7h-2v-0.2c-1.4,2.1-3.4,4.1-5.8,5.7
										c-5,3.3-11.9,5.4-19.5,5.6c-15.4,0.3-28-7.3-28.2-17v5.8H165.8z"/>
									<path clip-path="url(#SVGID_8_)" fill="#EDC0AC" d="M165.6,125.7h-2v-0.2c-1.4,2.1-3.3,4.1-5.8,5.7
										c-4.9,3.3-11.8,5.4-19.4,5.6c-15.3,0.3-27.8-7.2-28-16.9v5.8H165.6z"/>
									<path clip-path="url(#SVGID_8_)" fill="#EDC0AD" d="M165.4,125.7h-2v-0.2c-1.3,2.1-3.3,4-5.8,5.7
										c-4.9,3.3-11.7,5.4-19.3,5.5c-15.2,0.3-27.6-7.2-27.8-16.8v5.8H165.4z"/>
									<path clip-path="url(#SVGID_8_)" fill="#EDC1AE" d="M165.2,125.7h-2v-0.3c-1.3,2.1-3.3,4-5.7,5.6
										c-4.9,3.2-11.6,5.3-19.2,5.5c-15,0.3-27.4-7.1-27.6-16.7v5.8H165.2z"/>
									<path clip-path="url(#SVGID_8_)" fill="#EDC1B0" d="M165,125.7h-2v-0.3c-1.3,2.1-3.3,4-5.7,5.6c-4.8,3.2-11.5,5.3-19,5.5
										c-14.9,0.3-27.2-7.1-27.4-16.6v5.8H165z"/>
									<path clip-path="url(#SVGID_8_)" fill="#EDC3B1" d="M164.8,125.7h-2v-0.4c-1.3,2.1-3.2,4-5.6,5.6
										c-4.8,3.2-11.5,5.3-18.9,5.4c-14.8,0.3-27-7-27.3-16.5v5.8H164.8z"/>
									<path clip-path="url(#SVGID_8_)" fill="#EEC4B2" d="M164.6,125.7h-1.9v-0.4c-1.3,2.1-3.2,3.9-5.6,5.5
										c-4.8,3.2-11.4,5.2-18.8,5.4c-14.7,0.3-26.9-7-27.1-16.3v5.8H164.6z"/>
									<path clip-path="url(#SVGID_8_)" fill="#EEC5B4" d="M164.4,125.7h-1.9v-0.5c-1.3,2-3.2,3.9-5.6,5.5
										c-4.7,3.2-11.3,5.2-18.6,5.4c-14.6,0.3-26.7-6.9-26.9-16.2v5.8H164.4z"/>
									<path clip-path="url(#SVGID_8_)" fill="#EEC6B5" d="M164.2,125.7h-1.9v-0.5c-1.3,2-3.2,3.9-5.5,5.4
										c-4.7,3.1-11.2,5.1-18.5,5.3c-14.5,0.3-26.5-6.9-26.7-16.1v5.9H164.2z"/>
									<path clip-path="url(#SVGID_8_)" fill="#EEC6B6" d="M164.1,125.7h-1.9v-0.5c-1.3,2-3.1,3.8-5.5,5.4
										c-4.7,3.1-11.1,5.1-18.4,5.3c-14.4,0.3-26.3-6.8-26.5-16v5.9H164.1z"/>
									<path clip-path="url(#SVGID_8_)" fill="#F0C8B7" d="M163.9,125.7H162v-0.6c-1.3,2-3.1,3.8-5.4,5.4
										c-4.6,3.1-11.1,5.1-18.2,5.2c-14.3,0.3-26.1-6.8-26.3-15.9v5.9H163.9z"/>
									<path clip-path="url(#SVGID_8_)" fill="#EFC8B8" d="M163.7,125.7h-1.9v-0.6c-1.3,2-3.1,3.8-5.4,5.3c-4.6,3.1-11,5-18.1,5.2
										c-14.2,0.3-25.9-6.7-26.1-15.8v5.9H163.7z"/>
									<path clip-path="url(#SVGID_8_)" fill="#F0CAB9" d="M163.5,125.7h-1.9V125c-1.2,2-3.1,3.8-5.4,5.3c-4.6,3-10.9,5-18,5.2
										c-14.1,0.3-25.7-6.7-25.9-15.6v5.9H163.5z"/>
									<path clip-path="url(#SVGID_8_)" fill="#F0CABA" d="M163.3,125.7h-1.9V125c-1.2,2-3.1,3.7-5.3,5.2c-4.5,3-10.8,5-17.8,5.1
										c-14,0.3-25.5-6.6-25.7-15.5v5.9H163.3z"/>
									<path clip-path="url(#SVGID_8_)" fill="#F0CABB" d="M163.1,125.7h-1.8v-0.8c-1.2,1.9-3,3.7-5.3,5.2
										c-4.5,3-10.7,4.9-17.7,5.1c-13.9,0.3-25.3-6.6-25.5-15.4v5.9H163.1z"/>
									<path clip-path="url(#SVGID_8_)" fill="#F1CCBC" d="M162.9,125.7h-1.8v-0.8c-1.2,1.9-3,3.7-5.2,5.2c-4.5,3-10.7,4.9-17.6,5
										c-13.8,0.3-25.2-6.5-25.4-15.3v5.9H162.9z"/>
									<path clip-path="url(#SVGID_8_)" fill="#F1CCBD" d="M162.7,125.7h-1.8v-0.8c-1.2,1.9-3,3.7-5.2,5.1c-4.4,3-10.6,4.9-17.4,5
										c-13.7,0.3-25-6.5-25.2-15.2v5.9H162.7z"/>
									<path clip-path="url(#SVGID_8_)" fill="#F1CDBE" d="M162.6,125.7h-1.8v-0.9c-1.2,1.9-3,3.6-5.2,5.1
										c-4.4,2.9-10.5,4.8-17.3,5c-13.6,0.3-24.8-6.4-25-15.1v5.9H162.6z"/>
									<path clip-path="url(#SVGID_8_)" fill="#F1CDBF" d="M162.4,125.7h-1.8v-0.9c-1.2,1.9-2.9,3.6-5.1,5
										c-4.4,2.9-10.4,4.8-17.2,4.9c-13.5,0.3-24.6-6.4-24.8-15v5.9H162.4z"/>
									<path clip-path="url(#SVGID_8_)" fill="#F2CEC0" d="M162.2,125.7h-1.8v-1c-1.2,1.9-2.9,3.6-5.1,5c-4.3,2.9-10.3,4.7-17,4.9
										c-13.4,0.3-24.4-6.3-24.6-14.8v5.9H162.2z"/>
									<path clip-path="url(#SVGID_8_)" fill="#F2CFC1" d="M162,118.7c0.2,8.4-10.4,15.5-23.7,15.8c-13.3,0.3-24.2-6.3-24.4-14.7
										v5.9H162V118.7z"/>
									<path clip-path="url(#SVGID_8_)" fill="#F2D1C2" d="M161.8,118.7c0.2,8.4-10.3,15.4-23.5,15.7c-13.2,0.3-24-6.2-24.2-14.6
										v5.9h47.7V118.7z"/>
									<path clip-path="url(#SVGID_8_)" fill="#F2D1C3" d="M161.6,118.7c0.2,8.3-10.3,15.3-23.3,15.6c-13.1,0.3-23.8-6.2-24-14.5
										v5.9h47.4V118.7z"/>
									<path clip-path="url(#SVGID_8_)" fill="#F2D1C5" d="M161.4,118.7c0.2,8.2-10.2,15.2-23.2,15.4c-13,0.3-23.6-6.1-23.8-14.4
										v5.9h47V118.7z"/>
									<path clip-path="url(#SVGID_8_)" fill="#F3D3C6" d="M161.2,118.7c0.2,8.2-10.1,15-23,15.3c-12.9,0.3-23.5-6.1-23.6-14.3
										v5.9h46.6V118.7z"/>
									<path clip-path="url(#SVGID_8_)" fill="#F3D3C6" d="M161.1,118.7c0.2,8.1-10,14.9-22.8,15.2c-12.8,0.3-23.3-6-23.4-14.2
										v5.9h46.2V118.7z"/>
									<path clip-path="url(#SVGID_8_)" fill="#F3D4C7" d="M160.9,118.7c0.2,8-9.9,14.8-22.6,15.1c-12.7,0.3-23.1-6-23.3-14v5.9
										h45.9V118.7z"/>
									<path clip-path="url(#SVGID_8_)" fill="#F3D4C8" d="M160.7,118.7c0.2,8-9.9,14.7-22.4,15c-12.6,0.3-22.9-5.9-23.1-13.9v5.9
										h45.5V118.7z"/>
									<path clip-path="url(#SVGID_8_)" fill="#F4D5C9" d="M160.5,118.7c0.2,7.9-9.8,14.5-22.2,14.8c-12.5,0.3-22.7-5.9-22.9-13.8
										v5.9h45.1V118.7z"/>
									<path clip-path="url(#SVGID_8_)" fill="#F4D6C9" d="M160.3,118.7c0.2,7.8-9.7,14.4-22,14.7c-12.4,0.3-22.5-5.8-22.7-13.7
										v5.9h44.7V118.7z"/>
									<path clip-path="url(#SVGID_8_)" fill="#F4D7CB" d="M160.1,118.7c0.2,7.8-9.6,14.3-21.9,14.6c-12.2,0.3-22.3-5.8-22.5-13.6
										v5.9h44.3V118.7z"/>
									<path clip-path="url(#SVGID_8_)" fill="#F4D7CB" d="M159.9,118.8c0.2,7.7-9.5,14.2-21.7,14.5c-12.1,0.3-22.1-5.8-22.3-13.5
										v6h44V118.8z"/>
									<path clip-path="url(#SVGID_8_)" fill="#F4D8CC" d="M159.7,118.8c0.2,7.6-9.4,14.1-21.5,14.3c-12,0.3-21.9-5.7-22.1-13.3v6
										h43.6V118.8z"/>
									<path clip-path="url(#SVGID_8_)" fill="#F5D9CD" d="M159.6,118.8c0.2,7.6-9.4,13.9-21.3,14.2c-11.9,0.3-21.7-5.7-21.9-13.2
										v6h43.2V118.8z"/>
									<path clip-path="url(#SVGID_8_)" fill="#F5DACE" d="M159.4,118.8c0.2,7.5-9.3,13.8-21.1,14.1c-11.8,0.3-21.6-5.6-21.7-13.1
										v6h42.8V118.8z"/>
									<path clip-path="url(#SVGID_8_)" fill="#F5DACF" d="M159.2,118.8c0.2,7.4-9.2,13.7-20.9,14c-11.7,0.3-21.4-5.6-21.5-13v6
										h42.5V118.8z"/>
									<path clip-path="url(#SVGID_8_)" fill="#F4DBD0" d="M159,118.8c0.2,7.4-9.1,13.6-20.7,13.8c-11.6,0.3-21.2-5.5-21.4-12.9v6
										H159V118.8z"/>
									<path clip-path="url(#SVGID_8_)" fill="#F4DCD1" d="M158.8,118.8c0.2,7.3-9,13.5-20.6,13.7c-11.5,0.3-21-5.5-21.2-12.8v6
										h41.7V118.8z"/>
									<path clip-path="url(#SVGID_8_)" fill="#F5DDD2" d="M158.6,118.8c0.2,7.2-9,13.3-20.4,13.6c-11.4,0.3-20.8-5.4-21-12.7v6
										h41.3V118.8z"/>
									<path clip-path="url(#SVGID_8_)" fill="#F5DDD3" d="M158.4,118.8c0.2,7.2-8.9,13.2-20.2,13.5c-11.3,0.3-20.6-5.4-20.8-12.5
										v6h41V118.8z"/>
									<path clip-path="url(#SVGID_8_)" fill="#F5DED4" d="M158.2,118.8c0.2,7.1-8.8,13.1-20,13.3c-11.2,0.3-20.4-5.3-20.6-12.4v6
										h40.6V118.8z"/>
									<path clip-path="url(#SVGID_8_)" fill="#F5DFD5" d="M158,118.8c0.2,7.1-8.7,13-19.8,13.2c-11.1,0.3-20.2-5.3-20.4-12.3v6
										H158V118.8z"/>
									<path clip-path="url(#SVGID_8_)" fill="#F5DFD6" d="M157.9,118.8c0.2,7-8.6,12.8-19.6,13.1c-11,0.2-20-5.2-20.2-12.2v6
										h39.8V118.8z"/>
									<path clip-path="url(#SVGID_8_)" fill="#F6DFD6" d="M157.7,118.8c0.2,6.9-8.5,12.7-19.4,13c-10.9,0.2-19.9-5.2-20-12.1v6
										h39.5V118.8z"/>
									<path clip-path="url(#SVGID_8_)" fill="#F6E1D8" d="M157.5,118.8c0.2,6.9-8.5,12.6-19.3,12.9c-10.8,0.2-19.7-5.1-19.8-12v6
										h39.1V118.8z"/>
									<path clip-path="url(#SVGID_8_)" fill="#F6E2D9" d="M157.3,118.8c0.2,6.8-8.4,12.5-19.1,12.7c-10.7,0.2-19.5-5.1-19.6-11.8
										v6h38.7V118.8z"/>
									<path clip-path="url(#SVGID_8_)" fill="#F6E2DA" d="M157.1,118.8c0.2,6.7-8.3,12.4-18.9,12.6c-10.6,0.2-19.3-5-19.4-11.7v6
										h38.3V118.8z"/>
									<path clip-path="url(#SVGID_8_)" fill="#F6E2D9" d="M156.9,118.8c0.2,6.7-8.2,12.2-18.7,12.5c-10.5,0.2-19.1-5-19.3-11.6v6
										h38V118.8z"/>
									<path clip-path="url(#SVGID_8_)" fill="#F6E3DA" d="M156.7,118.8c0.1,6.6-8.1,12.1-18.5,12.4c-10.4,0.2-18.9-4.9-19.1-11.5
										v6h37.6V118.8z"/>
									<path clip-path="url(#SVGID_8_)" fill="#F8E4DB" d="M156.5,118.8c0.1,6.5-8.1,12-18.3,12.2c-10.3,0.2-18.7-4.9-18.9-11.4v6
										h37.2V118.8z"/>
									<path clip-path="url(#SVGID_8_)" fill="#F8E5DC" d="M156.4,118.8c0.1,6.5-8,11.9-18.2,12.1c-10.2,0.2-18.5-4.8-18.7-11.3v6
										h36.8V118.8z"/>
									<path clip-path="url(#SVGID_8_)" fill="#F8E6DE" d="M156.2,118.8c0.1,6.4-7.9,11.8-18,12c-10.1,0.2-18.3-4.8-18.5-11.2v6
										h36.5V118.8z"/>
									<path clip-path="url(#SVGID_8_)" fill="#F8E5DE" d="M156,118.8c0.1,6.3-7.8,11.6-17.8,11.9c-10,0.2-18.2-4.7-18.3-11v6H156
										V118.8z"/>
									<path clip-path="url(#SVGID_8_)" fill="#F8E7E0" d="M155.8,118.8c0.1,6.3-7.7,11.5-17.6,11.7c-9.9,0.2-18-4.7-18.1-10.9v6
										h35.7V118.8z"/>
									<path clip-path="url(#SVGID_8_)" fill="#F8E8E1" d="M155.6,118.9c0.1,6.2-7.7,11.4-17.4,11.6c-9.8,0.2-17.8-4.6-17.9-10.8
										v6h35.3V118.9z"/>
									<path clip-path="url(#SVGID_8_)" fill="#F8E8E1" d="M155.4,118.9c0.1,6.1-7.6,11.3-17.2,11.5c-9.7,0.2-17.6-4.6-17.7-10.7
										v6.1h35V118.9z"/>
									<path clip-path="url(#SVGID_8_)" fill="#F8E9E1" d="M155.2,118.9c0.1,6.1-7.5,11.2-17,11.4c-9.5,0.2-17.4-4.5-17.5-10.6
										v6.1h34.6V118.9z"/>
									<path clip-path="url(#SVGID_8_)" fill="#F8EAE3" d="M155,118.9c0.1,6-7.4,11-16.9,11.2c-9.4,0.2-17.2-4.5-17.3-10.5v6.1
										H155V118.9z"/>
									<path clip-path="url(#SVGID_8_)" fill="#F8E9E3" d="M154.9,118.9c0.1,5.9-7.3,10.9-16.7,11.1c-9.3,0.2-17-4.4-17.2-10.4
										v6.1h33.8V118.9z"/>
									<path clip-path="url(#SVGID_8_)" fill="#F8EBE5" d="M154.7,118.9c0.1,5.9-7.2,10.8-16.5,11c-9.2,0.2-16.8-4.4-17-10.2v6.1
										h33.5V118.9z"/>
									<path clip-path="url(#SVGID_8_)" fill="#F9EBE6" d="M154.5,118.9c0.1,5.8-7.2,10.7-16.3,10.9c-9.1,0.2-16.6-4.3-16.8-10.1
										v6.1h33.1V118.9z"/>
									<path clip-path="url(#SVGID_8_)" fill="#F9ECE6" d="M154.3,118.9c0.1,5.7-7.1,10.5-16.1,10.8s-16.5-4.3-16.6-10v6.1h32.7
										V118.9z"/>
									<path clip-path="url(#SVGID_8_)" fill="#FAEDE7" d="M154.1,118.9c0.1,5.7-7,10.4-15.9,10.6c-8.9,0.2-16.3-4.2-16.4-9.9v6.1
										h32.3V118.9z"/>
									<path clip-path="url(#SVGID_8_)" fill="#FBEEE8" d="M153.9,118.9c0.1,5.6-6.9,10.3-15.7,10.5c-8.8,0.2-16.1-4.2-16.2-9.8
										v6.1h31.9V118.9z"/>
									<path clip-path="url(#SVGID_8_)" fill="#FBEFE9" d="M153.7,118.9c0.1,5.5-6.8,10.2-15.6,10.4c-8.7,0.2-15.9-4.1-16-9.7v6.1
										h31.6V118.9z"/>
									<path clip-path="url(#SVGID_8_)" fill="#FBEFE9" d="M153.5,118.9c0.1,5.5-6.8,10.1-15.4,10.3c-8.6,0.2-15.7-4.1-15.8-9.5
										v6.1h31.2V118.9z"/>
									<path clip-path="url(#SVGID_8_)" fill="#FBEFEA" d="M153.4,118.9c0.1,5.4-6.7,9.9-15.2,10.1c-8.5,0.2-15.5-4-15.6-9.4v6.1
										h30.8V118.9z"/>
									<path clip-path="url(#SVGID_8_)" fill="#FBF0EB" d="M153.2,118.9c0.1,5.3-6.6,9.8-15,10c-8.4,0.2-15.3-4-15.4-9.3v6.1h30.4
										V118.9z"/>
									<path clip-path="url(#SVGID_8_)" fill="#FDF1EC" d="M153,118.9c0.1,5.3-6.5,9.7-14.8,9.9c-8.3,0.2-15.1-3.9-15.3-9.2v6.1
										H153V118.9z"/>
									<path clip-path="url(#SVGID_8_)" fill="#FDF2EE" d="M152.8,118.9c0.1,5.2-6.4,9.6-14.6,9.8c-8.2,0.2-14.9-3.9-15.1-9.1v6.1
										h29.7V118.9z"/>
									<path clip-path="url(#SVGID_8_)" fill="#FDF2EE" d="M152.6,118.9c0.1,5.1-6.4,9.5-14.4,9.6c-8.1,0.2-14.8-3.8-14.9-9v6.1
										h29.3V118.9z"/>
									<path clip-path="url(#SVGID_8_)" fill="#FDF3EE" d="M152.4,118.9c0.1,5.1-6.3,9.3-14.3,9.5c-8,0.2-14.6-3.8-14.7-8.9v6.1
										h28.9V118.9z"/>
									<path clip-path="url(#SVGID_8_)" fill="#FDF3EF" d="M152.2,118.9c0.1,5-6.2,9.2-14.1,9.4c-7.9,0.2-14.4-3.7-14.5-8.7v6.1
										h28.6V118.9z"/>
									<path clip-path="url(#SVGID_8_)" fill="#FDF3EF" d="M152,118.9c0.1,4.9-6.1,9.1-13.9,9.3c-7.8,0.2-14.2-3.7-14.3-8.6v6.1
										H152V118.9z"/>
									<path clip-path="url(#SVGID_8_)" fill="#FDF4F0" d="M151.8,118.9c0.1,4.9-6,9-13.7,9.1c-7.7,0.2-14-3.6-14.1-8.5v6.1h27.8
										V118.9z"/>
									<path clip-path="url(#SVGID_8_)" fill="#FDF4F1" d="M151.7,118.9c0.1,4.8-5.9,8.8-13.5,9c-7.6,0.2-13.8-3.6-13.9-8.4v6.1
										h27.4V118.9z"/>
									<path clip-path="url(#SVGID_8_)" fill="#FDF5F2" d="M151.5,118.9c0.1,4.7-5.9,8.7-13.3,8.9c-7.5,0.2-13.6-3.5-13.7-8.3v6.1
										h27.1V118.9z"/>
									<path clip-path="url(#SVGID_8_)" fill="#FDF5F2" d="M151.3,118.9c0.1,4.7-5.8,8.6-13.2,8.8c-7.4,0.2-13.4-3.5-13.5-8.2v6.1
										h26.7V118.9z"/>
									<path clip-path="url(#SVGID_8_)" fill="#FDF7F4" d="M151.1,119c0.1,4.6-5.7,8.5-13,8.7c-7.3,0.2-13.2-3.4-13.3-8.1v6.2
										h26.3V119z"/>
									<path clip-path="url(#SVGID_8_)" fill="#FDF6F4" d="M150.9,119c0.1,4.5-5.6,8.4-12.8,8.5c-7.2,0.2-13.1-3.4-13.2-7.9v6.2
										h25.9V119z"/>
									<path clip-path="url(#SVGID_8_)" fill="#FDF7F4" d="M150.7,119c0.1,4.5-5.5,8.2-12.6,8.4c-7.1,0.2-12.9-3.3-13-7.8v6.2
										h25.6V119z"/>
									<path clip-path="url(#SVGID_8_)" fill="#FDF7F4" d="M150.5,119c0.1,4.4-5.5,8.1-12.4,8.3c-7,0.2-12.7-3.3-12.8-7.7v6.2
										h25.2V119z"/>
									<path clip-path="url(#SVGID_8_)" fill="#FDF8F6" d="M150.3,119c0.1,4.3-5.4,8-12.2,8.2c-6.9,0.2-12.5-3.2-12.6-7.6v6.2
										h24.8V119z"/>
									<path clip-path="url(#SVGID_8_)" fill="#FDF8F6" d="M150.2,119c0.1,4.3-5.3,7.9-12,8c-6.7,0.2-12.3-3.2-12.4-7.5v6.2h24.4
										V119z"/>
									<path clip-path="url(#SVGID_8_)" fill="#FDF9F7" d="M150,119c0.1,4.2-5.2,7.8-11.9,7.9c-6.6,0.2-12.1-3.1-12.2-7.4v6.2H150
										V119z"/>
									<path clip-path="url(#SVGID_8_)" fill="#FDF9F7" d="M149.8,119c0.1,4.2-5.1,7.6-11.7,7.8c-6.5,0.1-11.9-3.1-12-7.2v6.2
										h23.7V119z"/>
									<path clip-path="url(#SVGID_8_)" fill="#FFFBF8" d="M149.6,119c0.1,4.1-5,7.5-11.5,7.7c-6.4,0.1-11.7-3-11.8-7.1v6.2h23.3
										V119z"/>
									<path clip-path="url(#SVGID_8_)" fill="#FFFBFA" d="M149.4,119c0.1,4-5,7.4-11.3,7.5c-6.3,0.1-11.5-3-11.6-7v6.2h22.9V119z
										"/>
									<path clip-path="url(#SVGID_8_)" fill="#FFFCF9" d="M149.2,119c0.1,4-4.9,7.3-11.1,7.4c-6.2,0.1-11.3-2.9-11.4-6.9v6.2
										h22.6V119z"/>
									<path clip-path="url(#SVGID_8_)" fill="#FFFCFA" d="M149,119c0.1,3.9-4.8,7.2-10.9,7.3c-6.1,0.1-11.2-2.9-11.2-6.8v6.2H149
										V119z"/>
									<path clip-path="url(#SVGID_8_)" fill="#FFFCFA" d="M148.8,119c0.1,3.8-4.7,7-10.7,7.2c-6,0.1-11-2.9-11.1-6.7v6.2h21.8
										V119z"/>
									<path clip-path="url(#SVGID_8_)" fill="#FFFDFD" d="M148.7,119c0.1,3.8-4.6,6.9-10.6,7c-5.9,0.1-10.8-2.8-10.9-6.6v6.2
										h21.4V119z"/>
									<path clip-path="url(#SVGID_8_)" fill="#FFFDFD" d="M148.5,119c0.1,3.7-4.6,6.8-10.4,6.9c-5.8,0.1-10.6-2.8-10.7-6.4v6.2
										h21V119z"/>
									<path clip-path="url(#SVGID_8_)" fill="#FFFFFD" d="M148.3,119c0.1,3.6-4.5,6.7-10.2,6.8c-5.7,0.1-10.4-2.7-10.5-6.3v6.2
										h20.7V119z"/>
									<path clip-path="url(#SVGID_8_)" fill="#FFFFFD" d="M148.1,125.7h-10v0c-5.6,0.1-10.2-2.7-10.3-6.2v6.2H148.1z"/>
									<path clip-path="url(#SVGID_8_)" fill="#FFFEFE" d="M147.9,125.7h-9.8H147.9z"/>
									<path clip-path="url(#SVGID_8_)" fill="#FFFFFF" d="M147.7,125.7h-9.6H147.7z"/>
									<path clip-path="url(#SVGID_8_)" fill="#FFFFFF" d="M147.5,125.7h-9.4H147.5z"/>
									<path clip-path="url(#SVGID_8_)" fill="#FFFFFF" d="M147.3,125.7h-9.3H147.3z"/>
									<path clip-path="url(#SVGID_8_)" fill="#FFFFFF" d="M147.2,125.7h-9.1H147.2z"/>
									<path clip-path="url(#SVGID_8_)" fill="#FFFFFF" d="M147,125.7h-8.9H147z"/>
									<path clip-path="url(#SVGID_8_)" fill="#FFFFFF" d="M146.8,125.7h-8.7H146.8z"/>
									<path clip-path="url(#SVGID_8_)" fill="#FFFFFF" d="M146.6,125.7h-8.5H146.6z"/>
								</g>
							</g>
							
								<linearGradient id="SVGID_9_" gradientUnits="userSpaceOnUse" x1="84.4413" y1="92.1212" x2="103.231" y2="117.8968" gradientTransform="matrix(0.9984 -5.690000e-002 5.690000e-002 0.9984 58.1523 15.042)">
								<stop  offset="8.149600e-004" style="stop-color:#FAA62A"/>
								<stop  offset="0.1752" style="stop-color:#F9A22C"/>
								<stop  offset="0.4011" style="stop-color:#F89632"/>
								<stop  offset="0.6552" style="stop-color:#F58439"/>
								<stop  offset="0.9283" style="stop-color:#F2683F"/>
								<stop  offset="0.9949" style="stop-color:#F16040"/>
							</linearGradient>
							<path fill="url(#SVGID_9_)" d="M152.8,134.6c0.2,3.5,12.1,4.2,13.4-1.1c1.2-5,5.8-20.8,5.5-26.2c-0.2-4.4-3.8-7.5-6.4-8.2
								c-2.6-0.8-6-0.8-10.1,0.3c-9.6,2.6-10.7,8.1-9.4,10.3C152.5,121.1,152.3,127.4,152.8,134.6z"/>
							<path opacity="0.33" fill="#FBEF57" d="M166.9,101.1c-0.5-0.6-1-1.3-1.6-1.9c0,0,0,0,0,0c-2.6-0.8-6-0.8-10.1,0.3
								c-6.3,1.7-8.9,4.7-9.6,7.2c1.1,0.6,2.6,1,3.8-0.6C151.5,103.1,159.2,99.1,166.9,101.1z"/>
							<path fill="#FDC282" d="M157.3,135.6c0.6,3,10.2,1.6,11.3-3c1-4.4,5.2-21.8,3-25.9c-1.7-3.2-6.2-5.3-13.3-3.4
								c-8.2,2.2-8.7,6.4-7.8,8.5C155.5,122.5,156.4,131.1,157.3,135.6z"/>
							<g>
								<path fill="#F48271" d="M166.1,118.8c-0.9-1.2-2-2.3-3.2-3c-1.3-0.8-2.3-0.5-3.4,1.1c-0.9,1.3-1.6,3.1-1.9,4.7
									c-0.7,3,3.1,1.3,4.4,1.1c0.9-0.1,1.7,0.1,2.6,0.2c0.8,0.1,2,0.3,2.8-0.4c-0.1,0.1-0.2,0.2-0.3,0.3c0.1-0.1,0.1-0.1,0.3-0.3
									c0.2-0.2,0.1-0.1,0,0C168.3,121.4,166.5,119.3,166.1,118.8z"/>
								<path fill="#F6947E" d="M167.3,122.2C167.3,122.2,167.3,122.2,167.3,122.2C167.3,122.2,167.3,122.2,167.3,122.2z"/>
								<path fill="#F6947E" d="M167.3,122.2C167.2,122.2,167.2,122.2,167.3,122.2L167.3,122.2z"/>
								<path fill="#F48271" d="M157.7,112.7c-0.4-1.2-0.6-2.4-1-3.6c-0.3-0.8-0.6-2.5-1.7-2c-1.1,0.4-2.3,1.3-2.1,2.6
									c0.1,1.1,0.8,2.2,1.4,3c0.5,0.8,1.3,2,2.4,2.1C157.8,115,157.9,113.6,157.7,112.7z"/>
								<path fill="#F48271" d="M161,111.7c1-0.4,1.1-3.8,1.2-4.8c0.1-1.1,0-1.4-0.9-1.5c-0.7-0.1-1.5-0.3-2.2,0.1
									c-1.1,0.7-0.4,2.3-0.1,3.2C159.4,109.5,159.9,112.2,161,111.7z"/>
								<path fill="#F48271" d="M166.6,106.2c-1.1-0.2-1.3,1.1-1.3,2.1c0,0.8,0,3.1,0.9,3.1c0.4,0,0.8-0.6,1-1
									c0.3-0.6,1.1-1.6,1-2.3C168.3,107.1,167.3,106.3,166.6,106.2z"/>
								<path fill="#F48271" d="M170.2,113.3c-0.2-0.4-0.6-1.3-1.2-1.2c-0.7,0.1-0.9,1.8-1,2.4c-0.1,1.1,0,2,1.2,1.3
									C170,115.3,170.6,114.3,170.2,113.3z"/>
							</g>
						</g>
					</g>
				</g>
			</g>
			<g>
				<g>
					<g>
						
							<linearGradient id="SVGID_10_" gradientUnits="userSpaceOnUse" x1="-3117.7422" y1="274.9196" x2="-3110.9734" y2="293.0725" gradientTransform="matrix(-0.976 0.2175 0.2175 0.976 -3014.9966 411.0562)">
							<stop  offset="0" style="stop-color:#76262D"/>
							<stop  offset="0.1743" style="stop-color:#7B2A2E"/>
							<stop  offset="0.4001" style="stop-color:#893530"/>
							<stop  offset="0.6542" style="stop-color:#A24631"/>
							<stop  offset="0.927" style="stop-color:#C76030"/>
							<stop  offset="1" style="stop-color:#D4682E"/>
						</linearGradient>
						<path fill="url(#SVGID_10_)" d="M72.6,15.2c-0.2-3.5,1-7.2,3.5-10.1c3.3-3.7,8.8-5.6,13.5-4.9c4.7,0.8,8.5,4.1,9.6,8.4
							c0.6,2.3,0.4,4.8-0.5,7.1c-1.4,3.8-4.7,7.2-8.7,9c-3.7,1.7-9.4,2.4-12.8,0.6C73.9,23.6,72.8,18.5,72.6,15.2z"/>
						<path fill="#FDC384" d="M83.2,13.7c0.6-3.2,2.4-6.2,5.3-8c1-0.7,2.2-1.1,3.4-1.4c3.3,1.2,5.8,3.8,6.6,7
							c0.5,2.1,0.3,4.3-0.5,6.4c-1.3,3.4-4,7-7.6,8.6c-1,0.5-2.4,0.2-3.6,0.5C83,23.7,82.2,18.8,83.2,13.7z"/>
						<path fill="#FED7AC" d="M84.5,19.9c0-0.3-1.6-3.8-1.7-3.8c0.9-5.8,5.8-6.8,6.3-7.2c-0.8,1.2-1.3,2.9-1.5,4.5
							C90.8,10,95.1,9.3,99,9.6c-3.2,1.9-5.4,3.9-6.6,6.9c3.6-1.8,5-1.4,7.5,0.1c-2.5,0.4-5.7,3.8-6.6,4.9c-2.8-0.4-7.8,1.6-8.8,1.4
							C84.3,22.1,84.5,20.5,84.5,19.9z"/>
						<linearGradient id="SVGID_11_" gradientUnits="userSpaceOnUse" x1="44.4681" y1="15.8071" x2="70.4505" y2="61.3652">
							<stop  offset="6.052820e-002" style="stop-color:#F7912F"/>
							<stop  offset="0.267" style="stop-color:#F78D31"/>
							<stop  offset="0.5344" style="stop-color:#F58136"/>
							<stop  offset="0.834" style="stop-color:#F36E3D"/>
							<stop  offset="0.9949" style="stop-color:#F16040"/>
						</linearGradient>
						<path fill="url(#SVGID_11_)" d="M117,46.2c-5,8.8-12.3,16.7-19.1,23.2C86.7,80.1,73.2,86.8,59.1,92.7
							c-5.8,2.5-11.8,4.7-17.8,6.8c-3.4-2.2-6.7-5.1-9.9-8.9C20.6,78.1,18,59,23.5,43.6c2.4-6.7,10.9-15.6,14.8-21.5
							c4.1-6.1,4.9-9.1,4.3-11.9c1.3,1,2.5,2,3.8,3c-0.6-1.6-1-3.6-0.4-6.1c1.3,4.4,6.1,6.8,10.6,7.1c4.4,0.3,8.8-1.1,13.2-1.7
							c9.6-1.3,19.7,1,27.9,6.4c8.2,5.4,14.5,13.9,17.3,23.4L117,46.2z"/>
						<path fill="#9D3E3A" d="M23.2,75.9l1.2-4.6c0,0,6.2-1.4,15.8,2.1c-5.4,0.6-12.7,3.6-16,5C23.8,77.6,23.5,76.8,23.2,75.9z"/>
						<path fill="#9D3E3A" d="M47.6,76.8c-3.5,9.1-10.2,12.7-15.9,14.1c-0.1-0.1-0.2-0.2-0.3-0.3c-2.2-2.5-4-5.3-5.6-8.3
							C29.8,79.9,38.5,75.2,47.6,76.8z"/>
						<path opacity="0.62" fill="#FFE4A6" d="M99.4,43.3C93.6,25,85.1,18.2,76.7,23.5C67,29.8,73.3,45.7,80,56.3
							C86.7,66.9,99.4,43.3,99.4,43.3z"/>
						<path fill="#9D3E3A" d="M101.5,42.1c-1.5-9.8-4-16.7-7.4-21c0.4-1.6,0.8-2.9,1.1-3.7c0.8,0.5,1.7,1,2.5,1.5
							c8.2,5.4,14.5,13.9,17.3,23.4l2.1,3.9c-1.3,2.2-2.7,4.4-4.2,6.5c-6.5-0.2-12.6-1.9-16.4-4.7C99.4,44.9,101.5,42.1,101.5,42.1z
							"/>
						<path fill="#76262D" d="M97.6,41c-0.9-2.7-2-3.3-2.8-5.3c-3.6-9.2-9-12.4-15.6-9.2c-9.9,4.8-4.9,18.2,0.8,27.2
							C85.7,62.6,97.6,41,97.6,41z"/>
						<path fill="#FDE7E9" d="M95.3,43.8c-4.3-15.6-10.6-19-17.2-14.9c-8.5,5.3-3.8,16.3,1.8,25.1C85.5,62.8,95.3,43.8,95.3,43.8z"
							/>
						<path fill="#FFFFFF" d="M77.9,31.8c-2.5,1.6-3.9,3.6-4.4,6c0.2,5.1,3.1,11,6.4,16.2c4.7,7.3,12.4-4.8,14.7-8.9
							C90.3,30.8,84.3,27.8,77.9,31.8z"/>
						<path opacity="0.62" fill="#FFE4A6" d="M50,78.3c-17.7-8.4-21.3-23-13.2-29.1c10.2-7.7,23.6,3.9,32.3,14.2S50,78.3,50,78.3z"
							/>
						<path fill="#76262D" d="M50.9,75.2c-8.6-3-13.2-8.4-14.4-12.8c-0.9-3.4,1-6.5,3.9-8.9c8.8-7.2,19.5,1.5,26.7,10.1
							S50.9,75.2,50.9,75.2z"/>
						<path fill="#FDE7E9" d="M52.5,74.8C37.9,68,36.3,58.6,42.9,53.5c8.8-6.9,17.6,1.7,24.6,10.1C74.5,72,52.5,74.8,52.5,74.8z"/>
						<path fill="#FFFFFF" d="M52.9,74.8c2.9-0.4,21-3.4,14.6-11.1c-3.6-4.3-7.6-8.6-11.9-10.9c-3.2-0.9-6.4-0.5-9.7,2
							C39.7,59.6,40.7,68.1,52.9,74.8z"/>
						
							<linearGradient id="SVGID_12_" gradientUnits="userSpaceOnUse" x1="-3016.2961" y1="400.9094" x2="-3043.0298" y2="405.7408" gradientTransform="matrix(-0.9688 0.2479 0.2479 0.9688 -3020.2786 430.5219)">
							<stop  offset="0" style="stop-color:#76262D"/>
							<stop  offset="0.1743" style="stop-color:#7B2A2E"/>
							<stop  offset="0.4001" style="stop-color:#893530"/>
							<stop  offset="0.6542" style="stop-color:#A24631"/>
							<stop  offset="0.927" style="stop-color:#C76030"/>
							<stop  offset="1" style="stop-color:#D4682E"/>
						</linearGradient>
						<path fill="url(#SVGID_12_)" d="M27.3,58.2C22.9,53.3,9.5,53,4.4,58.4c-5.2,5.5-5.9,15.5-1.7,22.6c1.1,1.8,2.5,3.5,4.2,4.4
							c2.2,1.2,4.8,1.1,7.1,0.2c2.3-0.8,4.2-2.3,6.2-3.8c1.7-1.3,3.7-3.1,5.5-5.2C25.8,76.6,29.1,60.2,27.3,58.2z"/>
						<g>
							
								<linearGradient id="SVGID_13_" gradientUnits="userSpaceOnUse" x1="-3107.4399" y1="324.4777" x2="-3100.6082" y2="315.9759" gradientTransform="matrix(-0.976 0.2175 0.2175 0.976 -3014.9966 411.0562)">
								<stop  offset="0" style="stop-color:#FBA819"/>
								<stop  offset="0.9894" style="stop-color:#AD1F23"/>
							</linearGradient>
							<circle fill="url(#SVGID_13_)" cx="83.6" cy="48" r="7.1"/>
							<circle fill="#76262D" cx="83.6" cy="48" r="5"/>
							<circle fill="#76262D" cx="113.8" cy="24.9" r="5"/>
							<path opacity="0.35" fill="#FFFFFF" d="M86.9,41.8c-1.1,0.3-1.9,0.9-2.4,1.8c-1,2,0.2,4.8,2.8,6.5c0.2-0.1,0.3-0.2,0.5-0.3
								c1.3-0.9,2.2-2.1,2.7-3.5C90,44.3,88.6,42.7,86.9,41.8z"/>
						</g>
						<g>
							
								<linearGradient id="SVGID_14_" gradientUnits="userSpaceOnUse" x1="-3074.7559" y1="338.1596" x2="-3067.9036" y2="329.6321" gradientTransform="matrix(-0.976 0.2175 0.2175 0.976 -3014.9966 411.0562)">
								<stop  offset="0" style="stop-color:#FBA819"/>
								<stop  offset="0.9894" style="stop-color:#AD1F23"/>
							</linearGradient>
							<path fill="url(#SVGID_14_)" d="M47.7,70c0.8,3.8,4.6,6.2,8.4,5.4c3.8-0.8,6.3-4.6,5.5-8.4c-0.2-1.1-0.8-2.2-1.5-3
								c-1.6-2-4.3-3-7-2.4C49.3,62.4,46.9,66.2,47.7,70z"/>
							<circle fill="#76262D" cx="54.6" cy="68.4" r="5"/>
							<path opacity="0.35" fill="#FFFFFF" d="M63.5,67.1c-1.6-2.3-4.1-3.3-6-2.3c-2,1.1-2.6,4.1-1.4,6.9c0.2,0,0.4,0,0.6,0
								C59.7,71.7,62.3,69.8,63.5,67.1z"/>
						</g>
						<radialGradient id="SVGID_15_" cx="75.2757" cy="57.4575" r="41.1189" gradientUnits="userSpaceOnUse">
							<stop  offset="0.1864" style="stop-color:#FFEBD7"/>
							<stop  offset="0.3852" style="stop-color:#FFE0BF"/>
							<stop  offset="0.6054" style="stop-color:#FED7AC"/>
							<stop  offset="0.8148" style="stop-color:#FED2A0"/>
							<stop  offset="1" style="stop-color:#FED09D"/>
						</radialGradient>
						<path fill="url(#SVGID_15_)" d="M30.3,89.2c-0.1-1,3.5-1.2,3.7-2.1c3.2-2.3,3.4-6,11.7-10.7c13.9-8,32.6-17.2,32.6-17.2
							c7.9-10.8,24.8-26.3,29.7-30.1c2.7,3.8,5.6,8.7,7,13.2c0,0,5.5-1.6,3.5,15.8c-0.3,2.7-4.4,12.6-10,21.3
							c-3.7,5.6-8.6,9-11.1,11.9c-6.6,4.1-19.2,9.3-28.1,11.9c-15.8,3.6-26.9,0.1-37.8-12.4C31,90.2,30.6,89.7,30.3,89.2z"/>
						<path fill="#EA9768" d="M45.6,76.3c6.8-3.9,15.1-8.5,21.2-11.3c0.3,0.5,0.5,0.9,0.7,1.4c-28,12.4-30,17.2-30,17.2l-0.2-0.3
							C38.9,81.4,41,78.9,45.6,76.3z"/>
						<g>
							<path fill="#EA9768" d="M97,39.6c3.2-2.8,5.5-4.3,7.8-5.8c0.6-0.4,1.1-0.7,1.6-1c0.5-0.3,0.9-0.5,1.2-0.7
								c0.7-0.4,1-0.6,1-0.7c0,0-0.4,0.1-1.1,0.4c-0.4,0.2-0.8,0.4-1.3,0.6c-0.5,0.3-1,0.6-1.7,0.9c-2.4,1.4-5.1,2.7-8.3,5.5
								C90,44.5,85.6,50.4,85.1,51.1c-0.5,0.6,0.5,0.7,0.6,0.7C85.9,51.3,88.4,47.7,97,39.6z"/>
						</g>
						
							<linearGradient id="SVGID_16_" gradientUnits="userSpaceOnUse" x1="-3082.2888" y1="313.9711" x2="-3102.9053" y2="364.3671" gradientTransform="matrix(-0.976 0.2175 0.2175 0.976 -3014.9966 411.0562)">
							<stop  offset="1.106950e-003" style="stop-color:#FFFFFF"/>
							<stop  offset="0.3191" style="stop-color:#EEC4AD"/>
							<stop  offset="0.6448" style="stop-color:#E29672"/>
							<stop  offset="0.8805" style="stop-color:#DB7B52"/>
							<stop  offset="1" style="stop-color:#D87146"/>
						</linearGradient>
						<path opacity="0.25" fill="url(#SVGID_16_)" d="M80.6,88.2c3.7-2.3,12.3-1.5,12.3-1.5s2-6.3,5.8-12.2
							c7.1-4.9,13.3-15.1,11.1-24l9.1,0.1c0.1,2-0.1,4.5-0.4,7.6c-0.3,2.7-3.9,12.2-9,20.2c-3.7,4.6-9.8,10.8-12.4,13
							c-2.7,1.6-16.8,8.2-27.8,11.8c-9.8,2.2-17.7,1.6-25.1-2c-0.6-2.3,0.4-8.2-0.2-10.6C52.5,96.6,68.7,95.7,80.6,88.2z"/>
						<path fill="#F99E32" d="M85.7,51c0.8-0.4-7.8-4.4-10.9-3.1c-3.1,1.3-9.2,5.7-10.2,8.7c-0.6,1.8-0.4,6.4,0.1,8.6
							c0.3,1.5,0.7,1.4,1.2,0.7C67.3,64.3,76.1,56,85.7,51z"/>
						<path opacity="0.3" fill="#FFFFFF" d="M79.5,54.7c-2.2-3.7-5.1-5.2-6.5-5.8c0.7-0.4,1.3-0.7,1.8-0.9
							c3.1-1.3,11.6,2.7,10.9,3.1C83.6,52.1,81.5,53.4,79.5,54.7C79.5,54.7,79.5,54.7,79.5,54.7z"/>
						<path fill="#76262D" d="M77.7,54c1-0.6,5.3-3.3,7.5-3.4c0.9,0,1.4,1.8,0.5,2.6c-7.8,5.4-6.3,6.3-5.5,8.1
							c-0.7,0.5-1.5,1.2-2.2,1.7c-1.7-1.1-3.5-2.2-10.5,3.3c-0.9,0.8-1.9,0.6-2.5-0.5C64.4,64.7,72.2,57.6,77.7,54z"/>
						<path opacity="0.16" fill="#FFFFFF" d="M67.6,66.4c-0.9,0.8-1.9,0.6-2.5-0.5c-0.4-0.6,1.4-2.7,4-5.1c2.3,0,4.5,0.5,5.8,1.4
							C73.4,62.4,71.2,63.5,67.6,66.4z"/>
						<g>
							<path fill="#61232A" d="M77.7,54l0.2,0.3c0.5-0.3,1.8-1.1,3.3-1.9c1.5-0.7,3.1-1.4,4.1-1.4l0,0c0.1,0,0.3,0.1,0.4,0.3
								c0.1,0.2,0.2,0.5,0.2,0.8c0,0.4-0.1,0.7-0.3,0.9l0.2,0.2L85.6,53c-2.5,1.7-4.1,3-5,4c-0.9,1-1.3,1.8-1.3,2.5
								c0,0.8,0.4,1.4,0.7,2l0.3-0.1L80.1,61c-0.8,0.5-1.5,1.2-2.2,1.7L78,63l0.2-0.3c-0.7-0.4-1.5-0.9-2.7-0.9c-1.7,0-4,1-8.1,4.3
								c-0.4,0.3-0.7,0.4-0.9,0.4c-0.4,0-0.7-0.2-1.1-0.8l0,0l0,0l0,0c0-0.1,0.1-0.3,0.3-0.7c0.7-1.1,2.6-3.1,4.9-5.1
								c2.3-2,5-4.1,7.3-5.6L77.7,54l-0.2-0.3c-2.7,1.7-5.9,4.2-8.4,6.5c-1.3,1.2-2.4,2.2-3.1,3.2c-0.4,0.5-0.7,0.9-0.9,1.2
								c-0.2,0.4-0.4,0.7-0.4,1c0,0.1,0,0.2,0.1,0.3l0,0c0.4,0.7,1,1.1,1.6,1.1c0.5,0,0.9-0.2,1.3-0.5c4.1-3.3,6.3-4.2,7.7-4.2
								c1,0,1.6,0.4,2.3,0.8c0.1,0.1,0.3,0.1,0.4,0c0.7-0.6,1.5-1.2,2.2-1.7c0.1-0.1,0.2-0.2,0.1-0.4c-0.2-0.3-0.3-0.6-0.4-0.9
								c-0.1-0.3-0.2-0.5-0.2-0.8c0-0.5,0.2-1.1,1.1-2.1c0.9-0.9,2.4-2.2,4.9-3.9l0,0c0.4-0.4,0.5-0.9,0.5-1.4
								c0-0.4-0.1-0.8-0.3-1.2c-0.2-0.3-0.5-0.6-0.9-0.6l0,0c-1.2,0-2.9,0.7-4.4,1.5c-1.5,0.8-2.8,1.6-3.3,1.9L77.7,54z"/>
						</g>
						
							<linearGradient id="SVGID_17_" gradientUnits="userSpaceOnUse" x1="-3140.8855" y1="302.2" x2="-3116.645" y2="367.6808" gradientTransform="matrix(-0.976 0.2175 0.2175 0.976 -3014.9966 411.0562)">
							<stop  offset="9.685800e-004" style="stop-color:#F7912F"/>
							<stop  offset="0.1209" style="stop-color:#F58235"/>
							<stop  offset="0.3063" style="stop-color:#F36E3B"/>
							<stop  offset="0.4707" style="stop-color:#F1603E"/>
							<stop  offset="0.5961" style="stop-color:#F15B3F"/>
							<stop  offset="0.6822" style="stop-color:#E5563D"/>
							<stop  offset="0.7936" style="stop-color:#CE4C3B"/>
							<stop  offset="0.9185" style="stop-color:#AD3C35"/>
							<stop  offset="1" style="stop-color:#943031"/>
						</linearGradient>
						<path fill="url(#SVGID_17_)" d="M95.2,39.1c1,0.4,3.7,0.5,5.3,2.3c5.7,6.6,9.2,19.9,11.5,31.5c-0.9,1.6-4.5,7.3-6.8,10.8
							c-0.5,0.7-1.5,1.3-1.8,1.8c3.7,1.3,7.9,3.2,11.2,4.8c2.3,1.1,4.8,2.5,7.2,4c3.4-8.9,12.4-30.7,10.9-36.3
							c-1.3-4.8-4.4-8.9-5.6-13.7c-1.4-5.6-2-6.7-1-11.2c0.6-2.5,2-4.1,2.6-4.6c0.4-0.6,0.4-1.4-0.6-3.3c-0.6-1.3-1.7-2.4-3.1-2.9
							c-1.6-0.6-2.7-0.7-3.7-0.5c-0.6,0.2-1.2,0.4-1.6,0.6c-0.3,0.1-0.6-0.1-0.6-0.4c0.1-0.7,0.1-1.7,0-2.6
							c-0.2-1.3-1.3-2.4-4.6-2.4c-4.2,0-5.8,0.6-6.5,1.7c-0.3,0.5-0.4,1.2-0.5,1.9c-0.1,0.6-0.9,0.9-1.3,0.3c-0.7-1-1.6-2.1-2.9-2.1
							c-1.9-0.1-3.7,0.5-5.5,2c-2,1.8-2.1,3.2-1.7,4.9c0.2,1.2,0.7,2,1.4,3c0.2,0.3,0,0.6-0.3,0.6c-0.7,0.1-1.6,0.6-3,2
							C92.4,32.9,94.7,38.9,95.2,39.1z"/>
						<path opacity="0.19" fill="#FBEF57" d="M122.5,43.2c1.6-1.5,1.4-4.1,1.7-6.4c0.3-2.5,1.3-4.9,2.8-6.8c0.5-0.8,1-1.4,1.4-1.6
							c0.4-0.6,0.4-1.4-0.6-3.3c-0.6-1.3-1.7-2.4-3.1-2.9c-1.6-0.6-2.7-0.7-3.7-0.5c-0.6,0.2-1.2,0.4-1.6,0.6
							c-0.3,0.1-0.6-0.1-0.6-0.4c0.1-0.7,0.1-1.7,0-2.6c-0.2-1.3-1.3-2.4-4.6-2.4c-4.2,0-5.8,0.6-6.5,1.7c-0.3,0.5-0.4,1.2-0.5,1.9
							c-0.1,0.6-0.9,0.9-1.3,0.3c-0.7-1-1.6-2.1-2.9-2.1c-1.9-0.1-3.7,0.5-5.5,2c-2,1.8-2.1,3.2-1.7,4.9c0.2,1.2,0.7,2,1.4,3
							c0.2,0.3,0,0.6-0.3,0.6c-0.7,0.1-1.6,0.6-3,2c-1.7,1.7,0.7,7.7,1.1,7.9c0.4,0.2,1,0.3,1.7,0.4c2.4,0.1,4.7,1,6.5,2.6
							c1.9,1.7,3.3,4.3,5.8,4.9c1.5,0.4,3.1-0.1,4.5-0.6c2-0.6,4-1.2,6-1.8C120.7,44.2,121.7,43.9,122.5,43.2z"/>
						
							<radialGradient id="SVGID_18_" cx="-3093.3669" cy="314.1689" r="280.0314" gradientTransform="matrix(-0.976 0.2175 0.2175 0.976 -3014.9966 411.0562)" gradientUnits="userSpaceOnUse">
							<stop  offset="0" style="stop-color:#F26A39"/>
							<stop  offset="0.4772" style="stop-color:#F15B3F"/>
							<stop  offset="1" style="stop-color:#F15B3F"/>
						</radialGradient>
						<path fill="url(#SVGID_18_)" d="M21.6,103.8c0.6-0.6,0.5-1.4-0.8-1.6c-1.9-0.3-3.5-1.8-3.4-6.3c0.2-5.3,6.5-3.8,7-4.8
							c0.4-0.8-1.7-2-1.9-3.6c-0.5-4,8.9-7.2,10.4-6.3c0.8,0.5,1.1,1.5,1.5,2.5c0.4,0.9,1.6,0.9,2,0c0.6-1.3,1.4-3,2-3.1
							c3.3-0.6,6.5,1.1,7.6,3.5c0.5,1.1-1.7,1.6,1.7,9c1.7,3.8,5.4,7.3,12.4,9.5c0,0,0.1,0,0.1,0c1,0.4,2.1,0.6,3.2,0.8
							c1.1,0.2,9.5-1.3,10.7-1.3c0,0,10.9,15,5.5,15.8c-4.3,1.4-17.5,4.9-19.2,4.5c-2.1-0.5-26.7-10.8-31.6-10.5
							c-4.9,0.3-5.3,1.5-5.7,1.2c-1.2-0.9-3.2-4.7-3.2-6.2C20,105.9,20.7,104.6,21.6,103.8z"/>
						<path opacity="0.19" fill="#FBEF57" d="M47.7,96.9c-1-1.5-1.9-3.2-2.5-5c-1.1-3.2-0.9-6,0.2-8.8c-1.4-1.8-4.1-3-7-2.5
							c-0.6,0-1.4,1.7-2,3.1c-0.4,0.9-1.6,0.8-2,0c-0.4-1-0.7-2-1.5-2.5c-1.5-0.9-10.9,2.4-10.4,6.3c0.2,1.7,2.2,2.8,1.9,3.6
							c-0.4,1.1-6.8-0.5-7,4.8c-0.1,4.5,1.5,6,3.4,6.3c1.3,0.2,1.4,1,0.8,1.6c-0.9,0.8-1.6,2.1-1.6,3.1c-0.1,1.3,1.2,3.9,2.4,5.4
							l0.4,0.1c6.4-4.2,14.1,0.6,20.5-3.5c2.9-1.9,5.3-6.1,6.1-9.5C48.5,98.3,48.4,98,47.7,96.9z"/>
						<path fill="#FDC384" d="M16,61.7c3.4-0.6,9.4,0.8,11,1.9c0.2,0.1,0.5,0.8,0.5,1.2c0,3-1.8,11.9-1.8,11.9
							c-1.8,2.1-3.9,3.9-5.6,5.1c-2,1.4-4,2.9-6.2,3.7c-1.5,0.5-3.1,0.8-4.6,0.6C9.3,86,9.1,85.9,9,85.7c-3.3-3.8-4.6-9.5-3.1-14.4
							C7.3,66.4,11.3,62.6,16,61.7z"/>
						<g>
							<path fill="#FFFFFF" d="M81.9,53.3c-1.2,0.5-2.1,0.8-2.3,0.6c-0.2-0.2,0.7-1,1.8-1.5c1.2-0.6,2.2-0.8,2.3-0.5
								C83.9,52.1,83,52.7,81.9,53.3z"/>
						</g>
						<circle fill="#FFFFFF" cx="85.3" cy="42.5" r="1.9"/>
						<circle fill="#FFFFFF" cx="53.9" cy="62.8" r="1.9"/>
						<path fill="#9D3E3A" d="M60.4,14c0.8,4.1,2.2,8,4.2,11.7c0.6-3.5,1.1-7.1,2.4-10.5c0.3-0.8,0.7-1.7,1.1-2.5
							C65.5,13.1,63,13.7,60.4,14z"/>
						<path fill="#9D3E3A" d="M38.7,21.4c3.7-5.7,4.4-8.6,3.9-11.3c1.3,1,2.5,2,3.8,3c-0.6-1.6-1-3.6-0.4-6.1
							c0.6,1.9,1.8,3.4,3.4,4.6c1.6,3.5,3.8,6.8,5.6,10.2c1.9,3.6,3.6,7.4,5.3,11.1c0.2,0.5-0.4,1-0.8,0.6
							c-5.5-5.2-12.2-9.2-19.4-11.6C39.6,21.7,39.1,21.6,38.7,21.4z"/>
						<path fill="#9D3E3A" d="M25.2,39.9c1.9-3.3,4.6-6.9,7.3-10.2c5.1,0.2,10.8,3.2,14.4,6.4C39.5,35.1,31.8,36.5,25.2,39.9z"/>
						<path opacity="0.19" fill="#FBEF57" d="M78.2,28.4c1.5-2.5,2.8-8.7,0.8-10.7c-2.2-2.3-7.9-2.4-11.3-2.5
							c-7.7-0.3-17.6,1.5-23.1,4.7c-8.2,4.7-15,14.9-14.2,17.2C30.7,38.2,63.9,52,78.2,28.4z"/>
						<g>
							
								<linearGradient id="SVGID_19_" gradientUnits="userSpaceOnUse" x1="-3101.7144" y1="346.2536" x2="-3097.9028" y2="335.6428" gradientTransform="matrix(-0.976 0.2175 0.2175 0.976 -3014.9966 411.0562)">
								<stop  offset="5.534700e-004" style="stop-color:#C83E28"/>
								<stop  offset="1" style="stop-color:#952440"/>
							</linearGradient>
							<path fill="url(#SVGID_19_)" d="M92,69.2c-0.3,0.5-1.3,0.6-1.3,0.9c-0.1,1.8-0.8,3-2.1,4.2c-1.8,1.7-4.2,1.7-4.9,1.3
								c-0.3-0.2-1.5,0.9-1.5,1.7c-0.8,0.6-12-2.7-11.1-4.4c5.8,0.6,10.3-3.4,10.6-7.7c0.2-0.1,8.5,1.1,10.8-8.5
								c1,1.3,1.3,9.7,0.8,11.8C93.1,68.9,92.2,69.2,92,69.2z"/>
							<g>
								<path fill="#76262D" d="M88.5,74.5c-1.1,0.9-2.4,1.3-3.4,1.3c-0.9,0-1.5-0.2-1.5-0.3c0-0.1,0.6-0.1,1.4-0.2
									c0.8-0.1,2-0.5,3-1.4c1-0.8,1.7-1.9,2-2.6c0.4-0.8,0.5-1.3,0.6-1.3c0.1,0,0.1,0.6-0.1,1.5C90.3,72.4,89.6,73.6,88.5,74.5z"
									/>
							</g>
							<path fill="#FFFFFF" d="M92.4,69c-0.5-0.7-2.2-0.8-2.3-0.8c-0.1,0,0.3,2.1,0.4,2.6C90.5,71.4,92.7,69.4,92.4,69z"/>
							<path fill="#FFFFFF" d="M82.1,77c-0.5-1-0.2-2.5-0.1-2.5c0.1,0,2,0.8,2.4,1.1C85.1,76.1,82.3,77.4,82.1,77z"/>
							<g>
								<path fill="#76262D" d="M69.7,70.6c-0.5,1-0.4,2.1-0.2,3.1c0.1,0.5-0.6,0.7-0.7,0.3c-0.3-1.3,0-2.4,0.7-3.5
									C69.6,70.4,69.8,70.5,69.7,70.6z"/>
							</g>
							<g>
								<path fill="#76262D" d="M90.1,54.8c1.3-0.7,2.9-0.2,4,0.7c0.5,0.4-0.2,1.2-0.7,0.8c-0.9-0.8-2.1-1.1-3.3-1.3L90.1,54.8z"/>
							</g>
							<path fill="#FFFFFF" d="M90.8,61.4c0,0,0.6,1.3,0.3,3.5c0,0.2-2.3-1.9-2.3-1.9L90.8,61.4z"/>
							<path fill="#FFFFFF" d="M76.2,72.3c0,0,1,1,3.2,1.5c0.2,0-1-2.8-1-2.8L76.2,72.3z"/>
							<g>
								<path fill="#76262D" d="M92.2,55c-0.2,0,0.1,2-1.2,4.7c-0.3,0.7-0.8,1.4-1.3,2c-0.6,0.6-1.3,1.2-2.2,1.7
									c-0.8,0.5-1.8,1-2.8,1.2c-0.5,0.1-1,0.2-1.5,0.2c-0.3,0-0.5,0-0.8-0.1l-0.1,0L82,64.7l-0.4-0.1c-0.2,0-0.7-0.3-0.6,0.1
									l0,0.9l-0.1,0.5c-0.1,0.3-0.1,0.5-0.2,0.8c-0.2,0.5-0.4,1-0.6,1.4c-0.5,0.9-1.2,1.7-1.9,2.3c-0.4,0.3-0.8,0.6-1.1,0.9
									c-0.4,0.2-0.8,0.4-1.2,0.6c-0.8,0.3-1.6,0.5-2.3,0.6c-2.2,0.2-3.8-0.2-4.5-0.4c0,0.1,0,0.2,0,0.2c0.2,0.1,0.5,0.2,0.8,0.4
									c0.8,0.3,2.1,0.6,3.7,0.5c0.8,0,1.7-0.2,2.6-0.5c0.5-0.2,0.9-0.4,1.4-0.6c0.4-0.3,0.9-0.6,1.3-0.9c0.8-0.7,1.6-1.5,2.2-2.5
									c0.3-0.5,0.6-1.1,0.7-1.7c0.1-0.3,0.2-0.6,0.2-0.9l0.1-0.4v0l0.1,0c0.3,0.1,0.6,0.1,1,0.1c0.6,0,1.2-0.1,1.8-0.2
									c1.2-0.3,2.2-0.8,3.1-1.4c0.9-0.6,1.7-1.2,2.3-2c0.6-0.7,1-1.5,1.4-2.3c0.6-1.5,0.8-2.8,0.8-3.7C92.4,55.5,92.2,55,92.2,55z
									"/>
							</g>
						</g>
						<g>
							<path fill="#A64E39" d="M80.8,104.2c-9.6,1.2-15.4-0.7-14.6-0.9c16.1-4.9,22.3-7.5,29.5-12.6c5.8-4,9.3-7.1,10-8.1
								C103.7,86.8,85.7,100.5,80.8,104.2z"/>
						</g>
						<path fill="#9D3E3A" d="M116,69.1c3.6,1.1,7.6,0.7,11-1c2-1,3.8-2.5,5.1-4.3c-0.7,3.3-2.1,7.3-3.5,11.2
							c-1.8-0.1-3.7-0.4-5.4-0.9C120.4,73.1,117.7,71.5,116,69.1z"/>
						<path fill="#9D3E3A" d="M127.9,47.6c0.9,2.4,2.2,4.6,3.3,7c-0.4,0.2-0.8,0.4-1.1,0.6c-6.8,3.3-11.1,3-14.7,1.8
							c-0.9-0.3-0.9-0.8,0-1C121.3,54.3,127,51.7,127.9,47.6z"/>
						<path fill="#9D3E3A" d="M60.4,122.5c-0.2,0-0.3-0.1-0.5-0.1c3.7-0.8,7.3-2.9,8.4-10c0.1-0.4,0.3-0.3,0.4,0.1
							c0.6,1.5,1.4,5.7,1.4,8.1C66.7,121.6,61.9,122.8,60.4,122.5z"/>
						<path fill="#9D3E3A" d="M60.8,109.1c0.1-0.3,0.3,0,0.4,0.3c0.4,3.8-1.7,9.7-4.9,11.6c-2.3-0.9-5.3-2.1-8.5-3.3
							C52.1,117.4,57.8,115,60.8,109.1z"/>
						<path fill="#FED7AC" d="M23.6,74.6c-3.5,0.8-6.8,3-9.8,5c1.8-4.4,3.3-9.2,8.1-11.5c-1.8-0.4-3.9-0.5-5.5,0
							c0.7-0.4,4.1-5.5,10.7-4.4c0.4,0.1,0.6,0.9,0.6,1c0,3.4-1.1,9.4-1.7,12c-1,1.1-3.9,4.2-4.3,6.5C20.8,79.7,20.4,77.9,23.6,74.6
							z"/>
						<path fill="#FDC282" d="M20.8,100.4c-0.7-2.2,0-5.7,2.1-7.4c1.8,0,3.6-0.4,4.9-0.4c-0.9-0.9-1.7-1.9-2.6-3
							c0.4-2.5,4.8-5.5,8.7-5.3c0.4,1.2,1.3,2.4,1.7,3.3c0.3-1.2,1.4-3.2,2-3.9c2.6-0.7,5.6,0.5,5.7,1.1c-0.9,3.9,0.5,9.2,2.4,11.5
							c2.9,3.8-4.2,12.4-8.3,12.3c-1.3-0.2-2.2-1.2-6-0.5c-5.6,1.1-6.6,1.7-7.5,1.6c-1.4-0.1-2.5-3.5-2.6-3.9
							c1.2-1.9,3.9-3.5,4.8-3.7C24.5,101.8,22.8,101.4,20.8,100.4z"/>
						<path fill="#F48271" d="M37.1,102.5c-0.2,0.9-0.3,1.9-1,2.2c-0.5,0.2-1-0.1-1.3-0.4c-0.4-0.4-0.6-0.9-0.8-1.4
							c-0.5-1-0.9-2.1-1.1-3.2c-0.2-1.1-0.1-2.4,0.6-3.2c0.6-0.8,1.6-1.2,2.5-1.4c1.3-0.3,2.7-0.5,4-0.2c0.6,0.1,1.3,0.4,1.7,0.9
							c0.5,0.5,0.8,1.2,0.6,1.9c-0.3,1.3-2.1,1-3,1.5C38.2,99.9,37.4,101.2,37.1,102.5z"/>
						<path fill="#F48271" d="M41.4,86.2c0,1.4-0.5,2.5-1.6,3.3c-0.4,0.3-1,0.6-1.5,0.4c-0.4-0.2-0.7-0.7-0.8-1.1
							c-0.2-1,0-2.2,0.8-3c0.8-0.7,2.2-0.8,2.9,0L41.4,86.2z"/>
						<path fill="#F48271" d="M27,107c-0.3,0.8-1.2,1.6-2.1,1.5c-1.2-0.1-1.8-1.6-1.5-2.8c0.4-1.1,1.5-1.9,2.6-2.3
							c0.3-0.1,0.7-0.2,1-0.1C27.3,103.3,27.3,106.1,27,107z"/>
						<path fill="#F48271" d="M23.2,94.9c0.5-0.4,1.2-0.4,1.9-0.5c0.6,0,1.2,0,1.8,0.2c0.6,0.2,1.1,0.7,1.2,1.3
							c0.2,0.7-0.2,1.5-0.8,2c-0.6,0.5-1.3,0.7-2,0.9c-0.6,0.2-1.2,0.3-1.7,0.3c-0.6,0-1.2-0.3-1.5-0.8
							C21.7,97.5,22.6,95.2,23.2,94.9z"/>
						<path fill="#FDC282" d="M96.8,30.9c1.2,0,2.5,0.1,3.3,0.2c-0.6-0.7-1.4-1.9-2-3c1.5-2.3,3.7-4.2,7.1-5.4
							c0.9,1,1.7,2.1,2.5,3.2c0.1-1.3,0.4-2.8,0.7-4.1c3-0.6,6.2-0.8,9.2-0.2c0,1.6,0.1,3.4,0.1,4.6c1.3-1.9,2.8-2.8,3.9-3.3
							c0.5,0.2,1,0.5,1.4,0.8c0.8,0.6,1.5,1.2,2.2,2c1.8,2,0.6,3-0.5,4.7c-1.4,2.3-2,5.3-3,7.7c-0.6,1.7-1.3,3.4-2.5,4.7
							c-1,0.5-8.7,2.3-10.1,2.6c-3.2-0.6-4.7-4-7.4-5.9c-3.1-2.2-4.9-1.9-5.8-2.9C95.9,34.6,96.2,32.7,96.8,30.9z"/>
						<path fill="#F48271" d="M32.9,86.5c0.7,0.6,1.1,2.1,0.6,3.2c-0.5,1.1-1.7,1.7-2.8,1.6c-1.2-0.1-2.2-1.1-2.4-2.2
							c-0.1-0.4-0.1-0.9,0.1-1.3c0.3-0.8,1.2-1.3,1.9-1.7C30.9,85.8,32.2,85.9,32.9,86.5z"/>
						<path fill="#F48271" d="M118.5,36.2c-1.4-3.1-9.2-6-11.4-1.8c-1.1,2-1.5,5.7,1.5,6C111.5,40.7,119.3,37.9,118.5,36.2z"/>
						<path fill="#F48271" d="M111.7,27.8c-0.2-0.1-0.4-0.4-0.6-0.6c-0.5-0.7-0.9-1.5-1.1-2.4c-0.1-0.4-0.1-0.9,0.1-1.3
							c1-1.6,4.5-0.8,4.9,0.9C115.4,25.9,113.6,29,111.7,27.8z"/>
						<path fill="#F48271" d="M123.1,27.8c-0.2,0.5-0.6,0.8-1.1,1c-0.5,0.2-1,0.2-1.5,0.3c-0.3,0-0.5,0-0.8,0
							c-0.3-0.1-0.5-0.2-0.6-0.5c-0.1-0.2,0-0.5,0.1-0.7c0.1-0.2,0.3-0.4,0.5-0.5c0.4-0.4,0.8-0.8,1.4-1
							C122.1,26,123.6,26.7,123.1,27.8z"/>
						<path fill="#F48271" d="M106.3,28.1c0.1,0.4,0.3,0.8,0.3,1.2c0,0.4-0.2,0.8-0.5,1.1c-0.4,0.3-0.8,0.3-1.3,0.2
							c-0.4-0.1-0.8-0.3-1.2-0.5c-0.5-0.3-1.1-0.6-1.6-1c-0.4-0.2-0.8-0.5-0.9-0.9c-0.1-0.6,0.4-1,0.9-1.4c0.5-0.3,0.9-0.7,1.4-1
							c0.2-0.2,0.5-0.3,0.7-0.4C105.3,25,106,27.3,106.3,28.1z"/>
						<path fill="#F48271" d="M101.3,34.4c0.3,0.2,0.5,0.5,0.4,0.8c-0.1,0.3-0.4,0.4-0.7,0.4c-0.6,0.1-1.2,0.2-1.8,0.3
							c-0.5,0.1-1,0.2-1.5,0c-0.5-0.2-0.8-0.8-0.8-1.3C97,31.9,100.1,33.5,101.3,34.4z"/>
					</g>
				</g>
				<path fill="#9D3E3A" d="M29.5,51.6c0,0,8.4-7.2,13-9c-5.3-2.6-10.3-0.4-11.1,0.6C30.6,44.4,29.5,51.6,29.5,51.6z"/>
				<path fill="#9D3E3A" d="M81.9,18.5c0,0-8,3-11.8,6.1c-0.1-2.4,0.7-6.3,1.4-6.5C73.5,17.4,81.9,18.5,81.9,18.5z"/>
			</g>
			<g>
				
					<linearGradient id="SVGID_20_" gradientUnits="userSpaceOnUse" x1="48.8556" y1="139.7793" x2="64.865" y2="177.6791" gradientTransform="matrix(0.9979 -6.500000e-002 6.500000e-002 0.9979 49.2786 -6.3712)">
					<stop  offset="8.149600e-004" style="stop-color:#FAA62A"/>
					<stop  offset="0.1752" style="stop-color:#F9A22C"/>
					<stop  offset="0.4011" style="stop-color:#F89632"/>
					<stop  offset="0.6552" style="stop-color:#F58439"/>
					<stop  offset="0.9283" style="stop-color:#F2683F"/>
					<stop  offset="0.9949" style="stop-color:#F16040"/>
				</linearGradient>
				<path fill="url(#SVGID_20_)" d="M122.2,135c-3.1-4.2-7.3-6.8-12.6-2c-5.3,4.8-8.2,16-4,21.4c4.2,5.4,19.8,11.4,24.8,10.4
					c4.9-1.1,4.8-8.4-0.2-16.7C125,139.8,122.2,135,122.2,135z"/>
				
					<linearGradient id="SVGID_21_" gradientUnits="userSpaceOnUse" x1="48.8556" y1="139.7793" x2="64.865" y2="177.6791" gradientTransform="matrix(0.9979 -6.500000e-002 6.500000e-002 0.9979 49.2786 -6.3712)">
					<stop  offset="8.149600e-004" style="stop-color:#FAA62A"/>
					<stop  offset="0.1752" style="stop-color:#F9A22C"/>
					<stop  offset="0.4011" style="stop-color:#F89632"/>
					<stop  offset="0.6552" style="stop-color:#F58439"/>
					<stop  offset="0.9283" style="stop-color:#F2683F"/>
					<stop  offset="0.9949" style="stop-color:#F16040"/>
				</linearGradient>
				<path fill="url(#SVGID_21_)" d="M122.2,135c-3.1-4.2-7.3-6.8-12.6-2c-5.3,4.8-8.2,16-4,21.4c4.2,5.4,19.8,11.4,24.8,10.4
					c4.9-1.1,4.8-8.4-0.2-16.7C125,139.8,122.2,135,122.2,135z"/>
				<path opacity="0.19" fill="#FBEF57" d="M110.2,137.4c1.8-2.5,3.8-4.2,6-5.1c0.3-0.3,0.6-0.7,0.5-1.2c0-0.2-0.1-0.4-0.2-0.5
					c-2.1-0.5-4.4,0.1-6.9,2.4c-3.4,3.1-5.8,8.7-6,13.8c0.4,0,0.7-0.2,1-0.5c1.1-0.9,2-2.1,2.9-3.3C108.1,141,109,139.1,110.2,137.4
					z"/>
				<g>
					<path fill="#FDC282" d="M126.5,163.2c2.6,0.8,5,1.4,6.4,0.4c1.5-1.1,1.6-7.1,0.9-9.4c-0.5-1.7-12.5-22.6-16-20.7
						c-6.4,3.5-11.9,15.6-9,20.1C111.1,157.2,123.1,162.2,126.5,163.2z"/>
				</g>
				<path fill="#F48271" d="M122.9,158.2c-1.3,0.3-1.6-2.8-1.8-3.5c-0.3-1.7-0.4-3.4-0.1-5c0.3-1.8,1.1-2.5,2.9-2.5
					c1.4,0.1,3.1,0.7,4.4,1.4c2.5,1.4-1,3.7-2,4.8c-0.6,0.7-1,1.7-1.4,2.5C124.5,156.7,123.8,158,122.9,158.2
					C122.2,158.3,124.2,157.9,122.9,158.2z"/>
				<path fill="#F48271" d="M114.3,155.2c0.9,1.7,4.1-0.1,2.3-1.3c-0.5-0.4-1.5-0.9-2.1-0.7C113.4,153.3,114,154.6,114.3,155.2z"/>
				<g>
					<path opacity="0.72" fill="#9B3430" d="M107,143.6c0.9,0.2,1.4,0.2,1.5,0.1c0.1-0.2-0.4-0.5-1.2-0.9c-0.7-0.3-1.6-0.7-2.8-1
						c-0.1,0.4-0.2,0.8-0.3,1.2C105.2,143.2,106.2,143.5,107,143.6z"/>
					<path opacity="0.72" fill="#9B3430" d="M108.7,133.9c2.6,1.2,4.5,2.7,4.7,2.4c0.2-0.2-1.3-2-3.9-3.3
						C109.3,133.3,109,133.6,108.7,133.9z"/>
				</g>
				<g>
					<path fill="#F48271" d="M122.4,141.7c0.3-0.9-0.3-2.3-0.7-3.2c-0.4-1-1-2.6-1.8-3.3c-0.9-0.8-2.7,0-3.5,0.7
						C115.6,136.7,122,143,122.4,141.7L122.4,141.7z"/>
					<path fill="#F48271" d="M114.2,138.6c-1.3,1-1.5,3.7-0.3,4.7c0.7,0.6,3.4,1.6,4.2,1.6C120.3,144.7,115.6,137.5,114.2,138.6
						L114.2,138.6z"/>
					<path fill="#F48271" d="M112.4,149.8c0.4,0.3,1.3,0.2,1.9,0.2c0.1,0,0.3,0,0.4,0c0.4,0,1.1-0.1,1.3-0.5
						c0.5-0.9-1.3-2.2-1.9-2.6c-0.8-0.5-2-1-2.3,0.2C111.5,147.8,111.7,149.3,112.4,149.8L112.4,149.8z"/>
				</g>
			</g>
		</g>
		<path opacity="0.7" fill="#9B3430" d="M156.1,103.3c-0.7-1.4-1.3-2.4-2.3-3c-0.1-0.1-0.6-0.1-0.8-0.1c-1,0.4-1.8,0.8-2.6,1.2
			C152.4,101.2,154.6,101.9,156.1,103.3z"/>
		<path opacity="0.7" fill="#9B3430" d="M160.3,98.6c1.4,0.7,2.6,1.4,3.5,2.7c-0.3-1-0.7-2.1-1-2.6C162,98.6,161.2,98.6,160.3,98.6z
			"/>
	</g>
</g>
</svg>
