<?xml version="1.0" encoding="utf-8"?>
<!-- Generator: Adobe Illustrator 17.1.0, SVG Export Plug-In . SVG Version: 6.00 Build 0)  -->
<!DOCTYPE svg PUBLIC "-//W3C//DTD SVG 1.1//EN" "http://www.w3.org/Graphics/SVG/1.1/DTD/svg11.dtd">
<svg version="1.1" id="Layer_1" xmlns="http://www.w3.org/2000/svg" xmlns:xlink="http://www.w3.org/1999/xlink" x="0px" y="0px"
	 width="163.6px" height="139.2px" viewBox="0 0 163.6 139.2" enable-background="new 0 0 163.6 139.2" xml:space="preserve">
<g>
	<path fill="#76262D" d="M41.4,49C38,44.2,34.5,39.5,30,35.9c-4.5-3.6-10.2-5.8-15.8-4.8C6.2,32.6,0.1,40.9,0,49.5
		C-0.1,58,5.5,66,12.9,69.1c7.4,3.1,16.3,1.6,23-3.3L41.4,49z"/>
	
		<linearGradient id="SVGID_1_" gradientUnits="userSpaceOnUse" x1="-1855.3782" y1="37.6371" x2="-1859.0223" y2="63.632" gradientTransform="matrix(-1 0 0 1 -1837.3888 0)">
		<stop  offset="0" style="stop-color:#76262D"/>
		<stop  offset="0.1743" style="stop-color:#7B2A2E"/>
		<stop  offset="0.4001" style="stop-color:#893530"/>
		<stop  offset="0.6542" style="stop-color:#A24631"/>
		<stop  offset="0.927" style="stop-color:#C76030"/>
		<stop  offset="1" style="stop-color:#D4682E"/>
	</linearGradient>
	<path fill="url(#SVGID_1_)" d="M28.4,38.7c4.5,3.6,8,8.3,11.4,13.1L35,66.4c-6.6,4.4-15,5.7-22.1,2.7C5.5,66-0.1,58,0,49.5
		c0-2.8,0.7-5.6,1.9-8.2c2.6-3.8,6.4-6.6,10.7-7.4C18.2,32.9,23.9,35.1,28.4,38.7z"/>
	<path fill="#FDC384" d="M2,50.2c0-1.9,0.3-3.8,0.9-5.6c2.8-2.1,9.8-0.1,14.2,1.9c8.3,3.8,15.1,11,19.2,19.6l0,0.1
		c-4.8,3.6-10.8,5.4-16.5,4.8c-1.8-0.2-3.5-0.7-5.2-1.4C7.3,66.6,1.9,58.7,2,50.2z"/>
	<path fill="#FED7AC" d="M32.7,77.1c-5-4-11-6.8-17.2-8.1c2.5-0.9,5.2-1.3,7.9-1.2c-4.2-1.4-8.6-2.2-13-2.4
		c4.6-3.1,10.4-4.3,15.8-3.2c-0.6-2.6-2.6-4.9-5.1-5.9c7.2-0.5,14.4,3.6,17.8,9.9L32.7,77.1z"/>
	<path opacity="0.31" fill="#F09C5F" d="M24.5,83.9c0,0-6.2-1.7-9.9-4.7c0.8-0.4,1.6-0.9,2.3-1.4C18,79.1,19.9,81.1,24.5,83.9z"/>
	<g>
		<path fill="#943031" d="M53.7,119.7c1.8-8,20.2-10.2,27.7-15.4c12.9-9,34.7-4.8,34.7-4.8c0.6,0.6,17,16.7,22.2,28.6L53.7,119.7z"
			/>
		<path fill="#C9764C" d="M71.6,128.6c0.9-7.9,1.4-14.1,9.8-20.8c10.8-8.7,32.2-8.9,32.2-8.9c0.4,0.5,12.4,18.2,17.5,29.8H71.6z"/>
		<path opacity="0.68" fill="#9B3430" d="M75.1,114.5c0.7-1.7,8.6-2.7,9.5-4.1c7.7-3.2,21.1-7.6,30.5-10.4c1.2,2.4,6.4,6.6,9.1,12.8
			c-1.3,1.1-12.4,5.4-14.6,5.5C105,118.7,82.9,117.3,75.1,114.5z"/>
		<path fill="#76262D" d="M124.3,30.5c-0.4-6.1-0.8-12.4,1.3-18.1c2.1-5.7,7.2-10.8,13.3-10.8c2.8,0,5.4,1.1,7.8,2.6
			c7.1,4.6,10.9,13.9,9.1,22.2c-1.8,8.3-9.1,15.1-17.5,16.4L124.3,30.5z"/>
		
			<linearGradient id="SVGID_2_" gradientUnits="userSpaceOnUse" x1="-1978.9849" y1="5.6526" x2="-1978.6306" y2="38.0718" gradientTransform="matrix(-1 0 0 1 -1837.3888 0)">
			<stop  offset="0" style="stop-color:#76262D"/>
			<stop  offset="0.1743" style="stop-color:#7B2A2E"/>
			<stop  offset="0.4001" style="stop-color:#893530"/>
			<stop  offset="0.6542" style="stop-color:#A24631"/>
			<stop  offset="0.927" style="stop-color:#C76030"/>
			<stop  offset="1" style="stop-color:#D4682E"/>
		</linearGradient>
		<path fill="url(#SVGID_2_)" d="M139.4,42.7l-12.4-10.9c-0.4-6.1-0.8-12.4,1.3-18.1c2.1-5.7,7.2-10.8,13.3-10.8
			c1.3,0,2.7,0.3,4,0.7c0.4,0.2,0.8,0.4,1.2,0.7c7.1,4.6,10.9,13.9,9.1,22.2C154,34.4,147.3,41,139.4,42.7z"/>
		<path fill="#FDC384" d="M132.7,38.9c1-4.5,3.6-8.8,6.3-12.6c3.2-4.4,7.3-9,12.8-9.1c1.1,0,4.9,1.8,3.6,9.9
			c-1.4,8.4-9.1,15.1-17.5,16.4L132.7,38.9z"/>
		<path fill="#FED7AC" d="M148.8,31.4c-2.3,0-4.6,1-6.2,2.6c4.1-0.7,8.4,0.3,11.7,2.8c-3-0.1-6.1,0.8-8.6,2.5
			c1.4,0.7,2.9,1.5,4.3,2.2c-1-0.5-4.5,1.4-5.5,1.9c-1.8,1-3.3,2.3-4.8,3.7c-1.3-3.5-6.6-9.5-5.3-13.3c0.3-1,1.2-2.3,1.2-2.3
			C139.1,29.9,145.9,30.8,148.8,31.4z"/>
		<g>
			<path fill="#9D3E3A" d="M74.6,2.3C73.7,8.8,84.3,11,93.5,12c4,0.4,2.9,1.2,6.1,3.6c1.3,1,0,3.3-1.3,2.3
				c-5.9-4.4-13.3-3.9-19.7-7.1c-3.4-1.7-5.8-4.7-4.5-8.5C74.2,1.9,74.7,2,74.6,2.3z"/>
		</g>
		<path fill="#F37238" d="M137.8,75.7C120,95.8,92,102.2,66.2,96.8c-17-3.5-32.6-11-47.5-19.8c6.6-5.5,10.3-14.3,13.1-22.7
			c3.4-9.9,7-20.7,15.6-26.7c4.2-2.9,9.3-4.4,13.5-7.4c4.1-3,7.2-8.7,4.8-13.3l6,6.3c0-3.2-0.1-6.5-0.1-9.7c1.7,3.3,5.1,5.3,8.6,6.3
			c3.5,1,7.2,1.2,10.9,1.6c6.7,0.8,13.2,2.5,19.3,5.1c9.1,3.9,19.5,10.1,25.3,18.2c3.2,4.5,7.1,8.3,11.8,11.1
			c0.5,0.3,3.6,1.7,6.8,3.1C150.1,58.6,144.9,67.9,137.8,75.7z"/>
		<path fill="#9D3E3A" d="M30.5,58.4c0.3,0.1,0.5,0.3,0.8,0.4c4.8,2.8,8.4,7.6,9.6,13.1c-3.9-3.2-8.5-5.3-13.4-6.4
			C28.6,63.2,29.6,60.8,30.5,58.4z"/>
		<path fill="#F57F32" d="M40.6,34.7c1.9-2.7,4.1-5.1,6.9-7c4.2-2.9,9.3-4.4,13.5-7.4c4.1-3,7.2-8.7,4.8-13.3l6,6.3
			c0-3.2-0.1-6.5-0.1-9.7c1.7,3.3,5.1,5.3,8.6,6.3c3.5,1,7.2,1.2,10.9,1.6c6.7,0.8,13.2,2.5,19.3,5.1C116,19,121.9,22.1,127,26
			c-5.5,14.2-15.3,29.4-41.2,34.4C59.6,65.5,42.4,51.2,40.6,34.7z"/>
		<path fill="#FBB880" d="M89.7,83.1c-7.9-18.1-17.4-34-29.6-36.8c-11.5,1.5-23.4,6-19.4,22.5c4.9,20.1,24.9,27.8,24.9,27.8
			L89.7,83.1z"/>
		<path fill="#FBB880" d="M107.2,73.3c0,0-2.3-21.8,3-30.4c8.9-14.4,16.8-13.3,18.5-8.6c4.6,12.1,0.4,36.3,0.4,36.3L107.2,73.3z"/>
		<g>
			<path fill="#9D3E3A" d="M62.6,90.9C62.6,90.9,62.7,90.9,62.6,90.9C62.7,90.9,62.6,90.9,62.6,90.9z"/>
			<path fill="#9D3E3A" d="M24.6,70.5c3-0.2,12,1.4,19.2,7.2c4.6,3.8,11.2,9.7,12.1,10.1c-1.1-0.2-6.3,2-17.4-0.3
				c-6.7-3.1-13.3-6.6-19.7-10.4C21,75.2,22.9,73,24.6,70.5z"/>
		</g>
		<path fill="#9D3E3A" d="M128.5,57.5c0,0,6.3-11,18.3-12.1c0.3,0.2,0.5,0.3,0.8,0.5c0.7,0.5,6.7,3.2,10.8,4.6h0
			c0,5.4-7.1,13.4-20,13.9L128.5,57.5z"/>
		<path fill="#76262D" d="M89.7,88.1C82.2,70.8,73.9,54.9,56,53.9c-11.2-0.6-16.1,6.8-12.2,16.7c4.5,11.5,10,17.1,19.2,22.8
			l29.6,1.7L89.7,88.1z"/>
		<path fill="#FFFFFF" d="M89.6,87.2C83,71.5,74.4,57.1,58.7,56.2c-9.9-0.6-14.1,6.2-10.7,15.2c4,10.4,8.8,15.6,16.9,20.7l26,1.5
			L89.6,87.2z"/>
		<path fill="#76262D" d="M110.8,78.3c-1.2-4.8-1.6-13.2-1.5-15.5c0.2-5.2,0.6-11,2.4-16c0.7-1.9,1.5-3.8,2.9-5.4
			c1.4-1.6,3.4-2.7,5.6-2.7c2.3,0,4.4,1.3,5.8,3c0.9,1.1,1.4,2.4,2.1,3.6c1.1,2,2.1,7.7,1.5,14.4L110.8,78.3z"/>
		<path fill="#FFFFFF" d="M128.2,60.2c1.3-5.9-0.8-19.1-8.9-17.4c-3.3,0.7-6,3-7.6,6.7c-3.7,8.5-4.1,21.1-0.9,29.3
			C115.5,91,128.2,60.2,128.2,60.2z"/>
		<path fill="#A91E22" d="M108.1,87c1.3-0.5,0.4,5.1-0.1,5.8c-0.5,0.7-1.6-1.1-5.3-3.2C100.2,88.3,108.1,87,108.1,87z"/>
		
			<linearGradient id="SVGID_3_" gradientUnits="userSpaceOnUse" x1="-1930.275" y1="109.427" x2="-1913.4656" y2="128.0938" gradientTransform="matrix(-1 0 0 1 -1837.3888 0)">
			<stop  offset="9.685800e-004" style="stop-color:#F7912F"/>
			<stop  offset="0.2206" style="stop-color:#F78D31"/>
			<stop  offset="0.505" style="stop-color:#F58136"/>
			<stop  offset="0.8237" style="stop-color:#F36E3D"/>
			<stop  offset="0.9949" style="stop-color:#F16040"/>
		</linearGradient>
		<path fill="url(#SVGID_3_)" d="M54.9,117c1.8-2.3,4.4-3.9,9.2-5.9c7.8-0.6,7.6,7.2,7.4,9.8c4.2,2,17.5-1.4,22-1
			c3.8,0.3,8.1,3.5,9.9,7.4c0.1,0.3,0.7,3.8,0.5,4.4c-3,4-8.5,5.3-13,6.3c-2.8,0.6-5.7,0.9-8.5,1.2c-3.8-0.5-8.6-1.5-14.9-3.3
			c-3.1-0.9-6.2-1.7-8.9-3.4c-2.7-1.7-5-4.3-5.7-7.4C52.3,122.2,53.2,119.3,54.9,117z"/>
		<g opacity="0.15">
			<path fill="#9D3E3A" d="M64.8,110.9c8.5-0.7,6.7,10,6.9,10c-5.2-0.5-14.3-0.5-18.9,3.1c-0.3-2.5,0.6-5,2.2-7
				C57.8,113.6,62.6,111.9,64.8,110.9z"/>
		</g>
		<path fill="#9D3E3A" d="M54.9,117c0.6-0.7,1.4-1.4,2.3-2c4,0,8.7,2.3,12,5.6c-4.9-2.8-16.3-2-16.4,3.6c0,0,0-0.1,0-0.1l0-0.8
			C52.7,121.1,53.5,118.8,54.9,117z"/>
		<path fill="#F9BD8A" d="M162.2,51c0,0-0.5,9.4-1.8,13c-1.3,3.6-3.6,0.8-3.6,0.8l5.5-14.2L162.2,51z"/>
		<g>
			
				<linearGradient id="SVGID_4_" gradientUnits="userSpaceOnUse" x1="-1916.0015" y1="88.5277" x2="-1907.0691" y2="77.4118" gradientTransform="matrix(-1 0 0 1 -1837.3888 0)">
				<stop  offset="0" style="stop-color:#FBA819"/>
				<stop  offset="0.9894" style="stop-color:#AD1F23"/>
			</linearGradient>
			<circle fill="url(#SVGID_4_)" cx="73.5" cy="82.2" r="9.2"/>
			<circle fill="#76262D" cx="73.5" cy="82.2" r="6.5"/>
			<path opacity="0.26" fill="#FFFFFF" d="M65.1,86c1.9-2.7,5-3.9,7.3-2.7c2.4,1.3,3.2,4.8,1.8,8.1c-0.2,0-0.4,0-0.7,0
				C69.8,91.4,66.6,89.2,65.1,86z"/>
			<ellipse fill="#FFFFFF" cx="74.6" cy="74.8" rx="2.2" ry="3"/>
		</g>
		<g>
			
				<linearGradient id="SVGID_5_" gradientUnits="userSpaceOnUse" x1="-1961.5848" y1="73.6593" x2="-1952.6525" y2="62.5434" gradientTransform="matrix(-1 0 0 1 -1837.3888 0)">
				<stop  offset="0" style="stop-color:#FBA819"/>
				<stop  offset="0.9894" style="stop-color:#AD1F23"/>
			</linearGradient>
			<circle fill="url(#SVGID_5_)" cx="119.1" cy="67.3" r="9.2"/>
			<circle fill="#76262D" cx="119.1" cy="67.3" r="6.5"/>
			<path opacity="0.26" fill="#FFFFFF" d="M110.7,71.2c1.9-2.7,5-3.9,7.3-2.7c2.4,1.3,3.2,4.8,1.8,8.1c-0.2,0-0.4,0-0.7,0
				C115.4,76.6,112.2,74.3,110.7,71.2z"/>
			<ellipse fill="#FFFFFF" cx="119.9" cy="59.5" rx="2.2" ry="3"/>
		</g>
		
			<radialGradient id="SVGID_6_" cx="-1940.5758" cy="83.5369" r="31.5067" gradientTransform="matrix(-1 0 0 1 -1837.3888 0)" gradientUnits="userSpaceOnUse">
			<stop  offset="0" style="stop-color:#FFFFFF"/>
			<stop  offset="1" style="stop-color:#FED6A8"/>
		</radialGradient>
		<path fill="url(#SVGID_6_)" d="M22.2,82.4c-2.3-1.9-3.4-3.9-4-5.5c1.4-1.1,2.7-2.3,3.9-3.7c1.4,0,2.7,0.2,4,0.4
			c6.9,1.3,13,5,19.1,8.5s12.5,6.4,19.3,7.8c19.6,3.8,30.8-2.4,42.5-6.7c7.6-2.8,11.4-15.8,18.4-22.5c6.3-6.1,15-12.1,24.3-13.7
			c2.3,1.1,6.1,2.5,9,3.3c0.1,1.3,0,3.1-0.7,4.8c2.3-1.5,3.6-3.3,4.3-4.3c-0.8,3.6-1.6,7.2-2.4,10.8c1.3-1.2,2.5-2.3,3.8-3.5
			c-5.4,20-19.5,37.4-37.7,47.3c-18.2,9.9-40.2,12.4-60.3,7.4c-20.1-5-38.2-17.2-51-33.6c0.7-0.3,1.3-0.7,1.9-1.1
			C18,79.6,19.9,81.1,22.2,82.4z"/>
		<path fill="#FFE3C5" d="M58.9,90.3C46.5,86,41.5,80.2,32.5,75.5c4.4,1.8,8.6,4.2,12.7,6.6c6,3.5,12.5,6.4,19.3,7.8
			c9.6,1.9,17.2,1.3,23.8-0.2c0.5,0.1,11.6,0,11.6,0C96.7,92,74,95.5,58.9,90.3z"/>
		<path fill="#F9BD8A" d="M113.4,103.6C125,83,138.4,76,145,72.7c4.2-2.1,8.6-5.5,13-10.7c2.9-3.5,3.2-7.4,3.8-9.2
			c-0.7,2.9-1.3,5.9-2,8.8c0.1-0.1,0.1-0.1,0.2-0.2c-0.1,0.3-0.1,0.5-0.2,0.8c1.2-1.1,2.3-2.2,3.5-3.3
			c-5.5,19.6-19.5,36.6-37.4,46.4c-18.2,9.9-40.2,12.4-60.3,7.4c-16.7-4.1-32.1-13.3-44.1-25.7C38.9,102.4,77.5,117.1,113.4,103.6z"
			/>
		<path fill="#FDCB9B" d="M145.2,72c-4.5,2.3-15.6,4.3-23.6,13.3c-0.5,2.3-1.6,4.5-2.8,6.4c-0.2,0.3-0.3,0.5-0.5,0.8
			c-0.1,0.2-0.2,0.3-0.3,0.5c-0.6,0.9-1.5,1.9-2.5,2.7c-0.9,2.4-1.6,5-2.1,8c-15.4,5.7-31.2,6.3-45.7,4c11.8,3.4,25.4,5,39.4,2.4
			c24.6-4.6,37.7-23.1,45.7-42.8C150.2,69.2,147.7,70.7,145.2,72z"/>
		<path fill="#76262D" d="M103.3,100.8c0.1,0,1,0.1,1.1,0.1c0.1,0,0.2,0,0.4,0c0.6,0,1.3-0.2,1.8-0.4c0.5-0.3,1-0.8,1.2-1.5l0,0
			c0.1-0.3,0.2-0.7,0.3-1.1l0,0c0-0.1,0-0.2,0-0.3l0-0.3l0-0.3c0-0.5,0.1-0.9,0.1-1.4l0.1-0.1l0.1,0c0.4,0.3,0.9,0.7,1.3,1l0,0
			c0.1,0.1,0.1,0.1,0.2,0.1v0l0.1,0.1l0,0c0.1,0,0.2,0,0.3,0.1l0,0c0.2,0,0.4,0.1,0.7,0.1c0.2,0,0.4,0,0.7-0.1
			c0.9-0.2,1.9-0.5,2.7-1l0,0c0.8-0.5,1.4-1.2,1.9-1.9c1.1-1.5,2-3,2.7-4.3c0.7-1.2,1.3-2.3,1.7-3c0.2-0.4,0.3-0.6,0.5-0.8
			c0.1-0.1,0.1-0.2,0.1-0.2l0.1-0.1l0.1,0l0,0l0,0l0,0l0,0l0,0l0.1,0.1l0,0.1c0,0.2-0.1,0.8-0.4,1.5c-0.3,0.8-0.7,1.8-1.3,2.9
			c-0.7,1.3-1.5,2.9-2.6,4.5c-0.5,0.8-1.3,1.7-2.2,2.3v0l0,0l0,0l0,0c-0.9,0.6-2,1.1-3.2,1.3l0,0c-0.3,0-0.6,0.1-0.9,0.1
			c-0.3,0-0.6,0-0.9-0.1l0,0c-0.1,0-0.3-0.1-0.5-0.1l0,0l-0.3-0.1c0,0.1,0,0.2-0.1,0.3l0,0c0,0,0,0,0,0l0,0h0
			c-0.1,0.5-0.2,1-0.4,1.4l0,0l0,0l0,0l0,0c-0.4,0.9-1.1,1.7-1.9,2.1c-0.8,0.3-1.6,0.4-2.3,0.4c-0.6,0-1.2-0.1-1.7-0.2
			C103.4,101.5,103,101.2,103.3,100.8z"/>
		<path fill="#9D3E3A" d="M106.3,15c-0.6,3.7-1.3,7.5-2.3,11.1c-0.9,3.2-2.5,7-5.8,7.5c0.9-7.1,0.2-14.4-1.7-21.3
			C99.8,13,103.1,13.9,106.3,15z"/>
		<path fill="#9D3E3A" d="M65.2,15.4c1.5-2.7,2-5.8,0.6-8.5c2,2.1,4,4.2,6,6.3c0-3.2-0.9-7.5,0.2-11.1c0.4,4.2,4.8,6.7,8.3,7.7
			c1.5,0.4,3.1,0.7,4.7,0.9c0.6,2.4,1.7,5.3,2.5,10.4c0.5,2.9,3.2,22.5,0.2,23C83.8,32.5,75.5,22.6,65.2,15.4z"/>
		<path fill="#9D3E3A" d="M47.5,27.7c3.7-2.6,8.1-4,12-6.4c4.6,3.3,8.6,7.6,11.7,12.4c1.5,2.3,2.7,5.1,1.9,7.7
			c-7.6-6.9-17.6-11-27.9-11.8C45.9,28.9,46.7,28.3,47.5,27.7z"/>
		<path fill="#F99E32" d="M117.5,76.1c0,0-2.7-2.4-8.1-5.7c-2.7-1.6-20.9,4.4-21.8,7.1c-1.2,3.7-1.5,8.7-1.2,9.7c0,0,10,2,20.5,1.1
			C115.3,84.2,117.5,76.1,117.5,76.1z"/>
		<path fill="#FBB878" d="M106.8,71.2c-3.1,0.3-13.9,3-19.4,6.9c0-0.2,0.1-0.3,0.1-0.5c0.9-2.8,19-8.5,21.8-7.1
			c5.9,2.8,8.1,5.7,8.1,5.7s-2.4,2.7-3.2,4.3C113.2,78,109.4,70.9,106.8,71.2z"/>
		
			<linearGradient id="SVGID_7_" gradientUnits="userSpaceOnUse" x1="-1980.8251" y1="74.8111" x2="-1961.0374" y2="128.1105" gradientTransform="matrix(-1 0 0 1 -1837.3888 0)">
			<stop  offset="9.685800e-004" style="stop-color:#F7912F"/>
			<stop  offset="0.2206" style="stop-color:#F78D31"/>
			<stop  offset="0.505" style="stop-color:#F58136"/>
			<stop  offset="0.8237" style="stop-color:#F36E3D"/>
			<stop  offset="0.9949" style="stop-color:#F16040"/>
		</linearGradient>
		<path fill="url(#SVGID_7_)" d="M114.6,105.6c1.3-6,4.6-14.3,7.2-16.7c5.8-5.3,16.3-4.9,18.5-3.8c2.8,1.4,5.5,7.6,5.3,10.6
			c-0.2,3.6-6.3,6.4-11.3,9.8c7.2,7.7,9.4,17.5,6.9,23.3c-1.8,4.3-7.1,5.4-11.7,4.5c-4.6-0.8-8.7-4-11.2-8
			C114.4,119.3,114.2,107.5,114.6,105.6z"/>
		
			<linearGradient id="SVGID_8_" gradientUnits="userSpaceOnUse" x1="-1970.421" y1="85.5237" x2="-1977.991" y2="124.5609" gradientTransform="matrix(-1 0 0 1 -1837.3888 0)">
			<stop  offset="5.226070e-003" style="stop-color:#F99D44"/>
			<stop  offset="0.1951" style="stop-color:#F89944"/>
			<stop  offset="0.4411" style="stop-color:#F68E43"/>
			<stop  offset="0.7178" style="stop-color:#F47B42"/>
			<stop  offset="0.9949" style="stop-color:#F16040"/>
		</linearGradient>
		<path fill="url(#SVGID_8_)" d="M127.2,93.2c-0.8-2.2-2.5-3.9-4.5-5c5.9-4.6,15.5-4.1,17.6-3.1c2.8,1.4,5.5,7.6,5.3,10.6
			c-0.1,2-2,3.7-4.6,5.5c-1.5,0.2-3,0.4-4.5,0.4c-2.3,0.1-4.7,0.1-6.8-1c-0.7-0.4-1.4-0.9-2-1.5C128,97.1,127.9,95.1,127.2,93.2z"/>
		<path fill="#9D3E3A" d="M138.3,38c1.4,1.6,2.9,3.1,4.5,4.4c-2.1,0.2-8.3,2.7-11.9,8.2C131.4,45.1,133.8,40.5,138.3,38z"/>
		<path fill="#76262D" d="M86.8,85.8c7.2,0.6,23.7-3.9,30.1-9.8c1.2-1.1,0.9,4.7,0.9,4.7s-4.6,3.6-8.1,6.7c-0.7,0.9-1.3,2-0.9,2.7
			c0.3,0.6-2.7,2.8-3.5,1.8c-1.2-1.6-4.6-1.7-8.8-1.7c-4.8,0.1-9.2,0.5-9.2,0.5S85.3,85.7,86.8,85.8z"/>
		<path opacity="0.16" fill="#FFFFFF" d="M86.8,85.8c2.9,0.3,7.4-0.3,12.1-1.6c1.8,1.9,4.9,5,8.4,7.4c-0.8,0.4-1.6,0.6-1.9,0.2
			c-1.2-1.6-4.6-1.7-8.8-1.7c-4.8,0.1-9.2,0.5-9.2,0.5S85.3,85.7,86.8,85.8z"/>
		<path fill="#61232A" d="M87.4,90.7c0,0,4.4-0.4,9.2-0.5c4.2,0,7.6,0.1,8.8,1.7c0.1,0.2,0.3,0.2,0.6,0.2c1.1,0,3.1-1.6,2.9-2
			c-0.4-0.7,0.2-1.8,0.9-2.7c3.5-3.1,8.1-6.7,8.1-6.7s0.2-4.8-0.6-4.8c-0.1,0-0.2,0-0.3,0.1c-6,5.5-20.9,9.9-28.7,9.9
			c-0.5,0-1,0-1.4-0.1l-0.1,0C85.4,85.8,87.4,90.7,87.4,90.7z M87,86.6c0.4,0,0.8,0,1.3,0c8,0,22.6-4.4,28.7-9.7
			c0.1,0.7,0.2,2.1,0.1,3.4c-1,0.8-4.9,3.8-7.9,6.5l-0.1,0.1c-1,1.3-1.4,2.4-1.1,3.3c-0.3,0.4-1.5,1.2-2.1,1.2l-0.1,0
			c-1.4-1.8-4.9-1.9-9.4-1.9c-3.8,0.1-7.5,0.4-8.8,0.5C87.3,88.5,86.9,87.1,87,86.6z"/>
		<g>
			<path fill="#FFFFFF" d="M113.1,79.5c-1.5,0.8-2.8,1.4-2.7,1.6c0,0.2,1.5,0,3.1-0.8c1.6-0.8,2.6-2.1,2.5-2.3
				C115.8,77.9,114.7,78.8,113.1,79.5z"/>
		</g>
		<path opacity="0.27" fill="#FFFFFF" d="M149.6,46.9c2.3,1.1,6.3,2.6,9.2,3.4l-0.1,0.3c-2.1-1.1-16.3-4.6-33.2,9.8
			C131.9,54.4,140.4,48.5,149.6,46.9z"/>
		<path fill="#D95936" d="M145.6,95.1c0,0.2,0,0.5,0,0.7c-0.2,3.6-6.1,6.3-11.1,9.7c-9.1-2.5-15.4,4.1-12.6-1.3
			C125.2,97.7,138.1,94,145.6,95.1z"/>
		<path fill="#9D3E3A" d="M124.3,117.9c6.6-0.8,11-4.4,13.4-8.1c1.5,2.3,2.6,4.6,3.4,6.9C138.4,119.3,132.1,121.4,124.3,117.9z"/>
		<path fill="#9D3E3A" d="M129.5,133.4c-3.2-0.6-6.1-2.3-8.4-4.6c5,3,11.5,3.3,14.7,2.5c2.9-0.6,4.7-2.2,5.9-3.6
			c-0.1,0.4-0.3,0.8-0.4,1.2C139.4,133.2,134.2,134.2,129.5,133.4z"/>
		<path fill="#9D3E3A" d="M58.6,132.4c-0.4-0.3-0.9-0.6-1.3-0.9c1-4.6,5.8-9.8,14.9-10.3c0.5,0.1,1,0.2,1.5,0.3
			c-6.4,1.8-12.3,7.8-11.4,12.7C61,133.7,59.7,133.1,58.6,132.4z"/>
		
			<linearGradient id="SVGID_9_" gradientUnits="userSpaceOnUse" x1="-1920.97" y1="122.9897" x2="-1914.6313" y2="117.783" gradientTransform="matrix(-1 0 0 1 -1837.3888 0)">
			<stop  offset="5.226070e-003" style="stop-color:#F99D44"/>
			<stop  offset="0.1951" style="stop-color:#F89944"/>
			<stop  offset="0.4411" style="stop-color:#F68E43"/>
			<stop  offset="0.7178" style="stop-color:#F47B42"/>
			<stop  offset="0.9949" style="stop-color:#F16040"/>
		</linearGradient>
		<path fill="url(#SVGID_9_)" d="M79.3,128.3c-13.6-1.1-7.1-7,14.2-8.3c1.1-0.1,2.3,0.7,3.6,1.6C91,122.3,85,124.8,79.3,128.3z"/>
		<g>
			<path fill="#9D3E3A" d="M75.4,13.4c-0.8,0.1-1.6,0.3-2.3,0.4c-0.3,0.1-0.7,0.1-1,0.2c-1.7-4.4-1.5-9.7,0.3-14l0.1,0
				C72,4.1,72.9,9.4,75.4,13.4z"/>
		</g>
		<path opacity="0.15" fill="#9D3E3A" d="M118.4,125.4c-4.1-6.2-4.1-17.9-3.7-19.9c0-0.2,0.1-0.4,0.1-0.5
			c1.5,18.9,9.8,22.9,14.5,24.7c3.1,1.2,8.8,1.9,12-1c0,0.1,0,0.1-0.1,0.2c-1.8,4.3-7.1,5.4-11.7,4.5
			C124.9,132.6,121,129.4,118.4,125.4z"/>
		<path fill="#9D3E3A" d="M60.2,41.9c2.2,0.7,7.7,3.3,8.6,6.4c-8.9-0.6-22,2.3-21.9,2.2C49.5,47.2,59,41.8,60.2,41.9z"/>
		<path fill="#9D3E3A" d="M96.7,135.3c2.1-0.6,6.5-3,7.1-3.6c-3,4-8.5,5.3-13,6.3c-2.8,0.6-5.7,0.9-8.5,1.2c-2-0.3-4.3-0.7-7-1.3
			C77.6,137.8,83,138.8,96.7,135.3z"/>
		<path fill="#9D3E3A" d="M90.2,125.8c0,0,3.8,2.4,4.3,4.2c0.1,1.9-0.3,4.4-0.3,4.4s-0.9-3.2-1.1-4.2
			C92.6,129.1,90.2,125.8,90.2,125.8z"/>
		<path fill="#9D3E3A" d="M84.1,129.1c0,0,1.7,2,2.2,2.9c0.2,1.3,0.3,3.8,0.3,3.8l-1.7-3.3L84.1,129.1z"/>
		<path fill="#9D3E3A" d="M94.3,123.5c0,0,3.4,3.5,4.2,4.8c0.9,1.5,2.4,4.5,2.4,4.5s-0.6-4.4-1.4-6C99,125.7,94.3,123.5,94.3,123.5z
			"/>
		<path fill="#9D3E3A" d="M140.8,97.6c0,0,2.1-3.6,1.8-4.4c-0.2-0.8-3.7-5.9-3.7-5.9s1.7,5.3,1.8,6.6
			C141,95.2,140.8,97.6,140.8,97.6z"/>
		<path fill="#9D3E3A" d="M133.6,98.5c0.1-0.6,0.6-4.2,0.4-5.3c-0.1-0.8-2.1-4.8-2.2-5.1C131.7,87.9,133.5,99.1,133.6,98.5z"/>
		<path fill="#9D3E3A" d="M116.8,32.1c-1.9,2.2-7.2,8.8-9.8,15.4c-2.6-3-3.8-7.2-3.7-10.2c3-0.4,10.6-4.2,13.2-5.5
			C116.8,31.6,116.9,31.9,116.8,32.1z"/>
		<path opacity="0.26" fill="#FBEF57" d="M57.2,27.4c-2.2,5.1,9.6,10.7,25,11c16.1,0.3,41.4-7.8,31.7-15
			c-7.7-5.7-23.2-12.2-34.6-10.7C63.9,14.8,60.1,20.6,57.2,27.4z"/>
	</g>
	<path fill="#76262D" d="M106,100.9c-1,0-3.1,0.3-6.9-1.9c-0.3,0.7,3.2,2.9,5.8,3C106.5,101.8,106,100.9,106,100.9z"/>
</g>
</svg>
