<?xml version="1.0" encoding="utf-8"?>
<!-- Generator: Adobe Illustrator 17.1.0, SVG Export Plug-In . SVG Version: 6.00 Build 0)  -->
<!DOCTYPE svg PUBLIC "-//W3C//DTD SVG 1.1//EN" "http://www.w3.org/Graphics/SVG/1.1/DTD/svg11.dtd">
<svg version="1.1" id="Layer_1" xmlns="http://www.w3.org/2000/svg" xmlns:xlink="http://www.w3.org/1999/xlink" x="0px" y="0px"
	 width="168.2px" height="210.6px" viewBox="0 0 168.2 210.6" enable-background="new 0 0 168.2 210.6" xml:space="preserve">
<g>
	<g>
		<g>
			
				<radialGradient id="SVGID_1_" cx="-2293.5356" cy="73.1476" r="14.5177" gradientTransform="matrix(-1 0 0 1.0543 -2140.7407 -17.4582)" gradientUnits="userSpaceOnUse">
				<stop  offset="0" style="stop-color:#FED4A8"/>
				<stop  offset="6.104374e-003" style="stop-color:#FED4A7"/>
				<stop  offset="0.9516" style="stop-color:#FCB96E"/>
			</radialGradient>
			<path fill="url(#SVGID_1_)" d="M150.3,47.2c4.4-2.5,10.4-2.6,13.9,1.1c2.6,2.8,3.3,6.9,3.8,10.8c0.4,3,0.1,8.9-6.8,14.1
				c-2.4,1.8-17.2,0.3-20.2-2.5c-3.3-3.1-5.3-8.8-2.1-12.6C142.2,54.1,146,49.6,150.3,47.2z"/>
			
				<linearGradient id="SVGID_2_" gradientUnits="userSpaceOnUse" x1="-2305.9229" y1="57.601" x2="-2278.4963" y2="56.1318" gradientTransform="matrix(-1 0 0 1 -2140.7407 0)">
				<stop  offset="0" style="stop-color:#76262D"/>
				<stop  offset="0.1743" style="stop-color:#7B2A2E"/>
				<stop  offset="0.4001" style="stop-color:#893530"/>
				<stop  offset="0.6542" style="stop-color:#A24631"/>
				<stop  offset="0.927" style="stop-color:#C76030"/>
				<stop  offset="1" style="stop-color:#D4682E"/>
			</linearGradient>
			<path fill="url(#SVGID_2_)" d="M168.1,59.1c-4.1-5.7-14.4-8.3-29.2,8.9c-1.8-3.1-2.4-7.1,0-10c3.2-3.8,7-8.4,11.4-10.8
				c4.4-2.5,10.4-2.6,13.9,1.1C166.9,51.1,167.6,55.2,168.1,59.1z"/>
			<path fill="#9D3E3A" d="M111.1,21.4c4.8-0.1,9.8-1.5,13.1-4.9c-0.9,3.6-2.2,7.5-4.8,9.8c2.1,1,4.2,0.9,6.5,0.2
				c-2.2,3-4.3,4.7-7.3,6.3c-0.4,0.2-24.2-5-30.2-11.9C93.8,18.4,106.6,21.5,111.1,21.4z"/>
			<path fill="#FED7AC" d="M157.8,65.8c-1.3-0.2-2.6-0.2-3.9-0.1c3.2,2.5,5.6,6,6.7,10c-2-2.7-5.6-3.7-8.8-4.4c1,1.5,1.7,3.1,2,4.8
				c-1.5-0.7-3.2-1.3-4.9-1.6c0.2,0-2-13.4-1.5-14c0.9-1,4.5,0.9,5.4,1.4C154.7,62.8,156.4,64.1,157.8,65.8z"/>
			<path fill="#F36B3D" d="M36.6,50.9c2.8-0.9,5.2-2.7,7.5-4.5c11.2-8.3,22.9-20.4,36.4-24.8c13-4.2,29.2-0.1,40.6,7.3
				c13.7,8.9,25.2,22.4,27.6,41.5c0.8,5.9-3.1,9.2-1,14.8c1.3,3.6,3.8,7,6.9,9c-0.5,0.7-1,1.4-1.6,2.1c-1.1,0.6-2.1,1.1-3.2,1.5
				c-7.4,2.9-15.9,3.2-23.8,2.7c-16.2-0.9-22.2,8.4-41.5,16c-5.5,1.4-18.1-3.2-26.7-10.8c-12.5-11.2-28.1-30-29-55.1
				C31.4,51.8,34.2,51.7,36.6,50.9z"/>
			<path fill="#F68B31" d="M121.2,29c9.7,6.3,20.2,17,24.3,30c-3.2,2.8-11.4,10.4-14.9,17.5c-3.6,0.7-25-4.2-25-4.2
				S78.5,83,78.4,22.4c0.7-0.3,1.4-0.5,2.1-0.8C93.5,17.4,109.8,21.6,121.2,29z"/>
			<path fill="#9D3E3A" d="M59.5,34.2c1.9,2.5,5.5,8.1,5.5,13.4c-2.5-4.6-7.5-7.1-11.5-8.5C55.5,37.4,57.5,35.8,59.5,34.2z"/>
			<path fill="#9D3E3A" d="M141.7,90.3l5.4-8.5c0.1,0.5,0,1.8,0.7,3.4c1.1,2.4,2.4,4.9,4.2,6.8L141.7,90.3z"/>
			<path fill="#9D3E3A" d="M41.5,48.4c0.9-0.6,1.8-1.3,2.7-1.9c2-1.5,4.1-3.2,6.2-4.9c7.5,2.3,16.7,13.1,20.5,20.9
				C52.4,58.4,45.6,53.2,41.5,48.4z"/>
			<path opacity="0.62" fill="#FFE4A6" d="M147.3,63c0.7,2.4,1.1,4.9,1.5,7.5c1.1,7.8-7.1,19.8-7.1,19.8L132.8,78
				C132.8,78,141.2,62.3,147.3,63z"/>
			<path fill="#76262D" d="M132.4,77.4c0.4-1.4,9.8-19.5,14.6-7.8c3.5,8.5-2.1,18.5-3.1,18.7c-2.3-0.4-12.1-0.4-12.1-0.4L132.4,77.4
				z"/>
			<path fill="#FDE7E9" d="M131.6,78.3c0.4-1.3,9.2-17.5,14.2-7.2c3.2,6.6-2,16.8-2.9,17c-2.2-0.4-11.3-0.3-11.3-0.3L131.6,78.3z"/>
			<path fill="#FFFFFF" d="M138.6,68.9c1.4,0.1,2.7,1.1,3.8,3.4c2.5,5.2-0.1,12.6-1.8,15.6c-3.5-0.2-8.9-0.1-8.9-0.1l-0.1-9.5
				C131.8,77.6,135,71.5,138.6,68.9z"/>
			<path fill="#FAAD7B" d="M107.8,77.3c2.8-16.2-4.8-50.8-31.6-44.6c-15,3.5-6.7,26.9-3.8,34l22.5,19.7L107.8,77.3z"/>
			<path fill="#76262D" d="M104.9,74.7c2.2-13.6-2.6-42.5-24.6-36.1c-13.7,4-7.2,22.9-5.4,26.4l19.8,17.2L104.9,74.7z"/>
			<path fill="#FDE7E9" d="M104.9,75.2c2.1-12.8-2.5-39.2-22.8-33.8c-12.9,3.4-5.4,19.9-3.2,25.5l16.6,15.4L104.9,75.2z"/>
			<path fill="#FFFFFF" d="M105.4,69.6c0,2-0.2,3.9-0.5,5.6l-8.8,6.6l-14-13.4c-1.9-5.1-8.4-20,2.8-23
				C100,41.3,105.2,57.5,105.4,69.6z"/>
			<g>
				<defs>
					<path id="SVGID_3_" d="M104.9,75.2c2.1-12.8-2.5-39.2-22.8-33.8c-12.9,3.4-5.4,19.9-3.2,25.5l16.6,15.4L104.9,75.2z"/>
				</defs>
				<clipPath id="SVGID_4_">
					<use xlink:href="#SVGID_3_"  overflow="visible"/>
				</clipPath>
				<g clip-path="url(#SVGID_4_)">
					
						<linearGradient id="SVGID_5_" gradientUnits="userSpaceOnUse" x1="-2227.1406" y1="70.8921" x2="-2230.123" y2="55.3319" gradientTransform="matrix(-1 0 0 1 -2140.7407 0)">
						<stop  offset="0" style="stop-color:#FBA819"/>
						<stop  offset="0.9894" style="stop-color:#AD1F23"/>
					</linearGradient>
					<path fill="url(#SVGID_5_)" d="M78.4,63c-0.8,5.4,2.6,10.3,7.8,10.9c5.1,0.6,10-3.3,10.8-8.8c0.8-5.4-2.6-10.3-7.8-10.9
						C84.1,53.7,79.2,57.6,78.4,63z"/>
					<path fill="#76262D" d="M81.5,63.6c-0.6,3.7,1.8,7,5.2,7.4c3.4,0.4,6.7-2.2,7.3-5.9c0.6-3.7-1.8-7-5.2-7.4
						C85.3,57.4,82,60,81.5,63.6z"/>
					<path opacity="0.28" fill="#FFFFFF" d="M86.8,61.3c2.4,1.9,2.7,6.1,0.9,10c-0.5,0-1,0-1.6,0c-4.2-0.5-7.3-3.9-7.8-8
						C81.1,60.4,84.6,59.5,86.8,61.3z"/>
					<ellipse fill="#FFFFFF" cx="95.9" cy="60.5" rx="2.4" ry="2.3"/>
				</g>
			</g>
			<g>
				<defs>
					<path id="SVGID_6_" d="M131.9,77.6c0.4-1.3,9.2-17.4,14.6-6.3c2.7,5-2.2,16.1-3.1,16.9c-2.2-0.4-11.1,0-11.1,0L131.9,77.6z"/>
				</defs>
				<clipPath id="SVGID_7_">
					<use xlink:href="#SVGID_6_"  overflow="visible"/>
				</clipPath>
				<g clip-path="url(#SVGID_7_)">
					
						<linearGradient id="SVGID_8_" gradientUnits="userSpaceOnUse" x1="-2275.2083" y1="86.8159" x2="-2277.584" y2="74.4202" gradientTransform="matrix(-1 0 0 1 -2140.7407 0)">
						<stop  offset="0" style="stop-color:#FBA819"/>
						<stop  offset="0.9894" style="stop-color:#AD1F23"/>
					</linearGradient>
					<path fill="url(#SVGID_8_)" d="M128.9,80.6c-0.6,4.4,1.9,8.3,5.5,8.7c3.6,0.5,7.1-2.7,7.7-7c0.6-4.4-1.9-8.3-5.5-8.7
						C132.9,73.1,129.5,76.2,128.9,80.6z"/>
					<path fill="#76262D" d="M131.1,81c-0.4,2.9,1.3,5.6,3.7,5.9c2.5,0.3,4.8-1.8,5.2-4.7s-1.3-5.6-3.7-5.9
						C133.8,76,131.5,78.1,131.1,81z"/>
					<path opacity="0.23" fill="#FFFFFF" d="M136,81.1c1.7,1.5,2,4.8,0.7,8c-0.4,0-0.8,0-1.2,0c-3.1-0.4-5.4-3.1-5.8-6.4
						C131.8,80.4,134.4,79.7,136,81.1z"/>
				</g>
			</g>
			<path fill="#FED6A8" d="M42.4,59.9c-0.4-1.8-0.8-3.7-1.2-5.7c2.1-1,16.4,2.6,23.6,5.3c18.4,6.8,26.9,13.5,30.1,17
				c3.2-2.6,9.3-4.6,13.1-3.4c0,0,22.6,11.5,29.7,13.1c4.3,1,9.5,2.8,12.9,4c0.9,1.2,1.9,2.3,3.1,3.2c-2,2.8-4.6,5.5-6.8,7.9
				c-2.7,3-5.9,5.8-9.1,8.2c-3.8,2.8-7.9,4.2-12.5,5.3c-2.6,0.6-4.9,0.8-7.4,1.5c-6.6,0.1-13.3-0.1-16.3,2.2
				c-3.5,1.6-15.5,0.5-18.9-1.1c-24.6-14.2-44-51.1-44.4-60.4C39.4,58.3,40.8,59.2,42.4,59.9z"/>
			<path fill="#FDC897" d="M38.2,57.2c4.6,9.5,13.8,22.4,30.8,34.2c23.6,16.4,42.8,15.2,42.8,15.2l9.1,9.1c-1,0.2-2,0.4-3,0.7
				c-6.6,0.1-13.3-0.1-16.3,2.2c-3.5,1.6-15.5,0.5-18.9-1.1C58.2,103.3,38.9,66.9,38.2,57.2z"/>
			<path fill="#FFE0C0" d="M124.4,98.5c-1.2-0.5-2.1-1.2-2.3-2.4c-0.1-1.1-1.1-2.1-2.3-1.7c-4.4,1.2-8.3-0.1-11.4-2.8
				c-1.1-1.3-2.2-2.7-3.4-4.2c-0.1-0.2-0.2-0.4-0.3-0.6c-0.2-0.3-0.4-0.5-0.6-0.6c-0.8-1.1-1.5-2.2-2.3-3.3
				c0.8-7.2,8.1-11.1,12.2-10.8c6.2,2.2,23.5,14.2,23.5,14.2s-1.8,10.2-7.6,12.2C128.1,98.3,126.2,98.3,124.4,98.5z"/>
			<path fill="#9D3E3A" d="M108.8,22.8c4.3,1.5,8.5,3.6,12.2,6c3.3,2.1,6.6,4.8,9.5,7.4c1.6,4.8,1.9,10.3,1,17.4
				c-0.1,1.1-0.8,1.5-1.1,0.7C127.6,46.3,124.6,32.2,108.8,22.8z"/>
			<path fill="#9D3E3A" d="M100.5,20.6c1.6,1.2,3.3,3,4.7,4.7c6.9,8.9,7.4,14.9,5,11.6c-4.7-6.4-13.6-13.4-24.1-16.5
				c0.1,0,0.2,0,0.4-0.1C91.1,19.7,95.7,19.7,100.5,20.6z"/>
			<path fill="#9D3E3A" d="M135.3,40.9c1.7,2,3.3,4,4.8,6.2c-0.5,1.2-1.3,2.6-3,4.4c-0.3,0.3-0.9,0.2-0.8-0.2
				c0.2-2.8,0.1-7-0.9-10.1C135.3,41.1,135.3,41,135.3,40.9z"/>
			<circle fill="#FFFFFF" cx="141.2" cy="77.9" r="2.3"/>
			
				<radialGradient id="SVGID_9_" cx="-2176.6018" cy="-87.6924" r="20.2361" gradientTransform="matrix(-0.9987 -5.100000e-002 -5.100000e-002 0.9987 -2125.7151 -4.123)" gradientUnits="userSpaceOnUse">
				<stop  offset="0" style="stop-color:#FED4A8"/>
				<stop  offset="6.104374e-003" style="stop-color:#FED4A7"/>
				<stop  offset="0.9516" style="stop-color:#FCB96E"/>
			</radialGradient>
			<path fill="url(#SVGID_9_)" d="M32.5,21.1c0-7.4,5.2-13.3,12.2-15.3c7.3-2,15.1,0.8,19.4,7.1c2.3,3.5,3.8,7.8,5,11.8
				c0.5,1.5,1,3.2,1.5,4.8L57,38.9c-4.4-0.7-9.3-0.8-13.6-2.3C37.2,33.9,32.5,28.3,32.5,21.1z"/>
			
				<linearGradient id="SVGID_10_" gradientUnits="userSpaceOnUse" x1="-2184.926" y1="14.976" x2="-2211.1575" y2="30.5663" gradientTransform="matrix(-1 0 0 1 -2140.7407 0)">
				<stop  offset="0" style="stop-color:#76262D"/>
				<stop  offset="0.1743" style="stop-color:#7B2A2E"/>
				<stop  offset="0.4001" style="stop-color:#893530"/>
				<stop  offset="0.6542" style="stop-color:#A24631"/>
				<stop  offset="0.927" style="stop-color:#C76030"/>
				<stop  offset="1" style="stop-color:#D4682E"/>
			</linearGradient>
			<path fill="url(#SVGID_10_)" d="M38.7,7.3c3.4-3.3,7.6-6.4,12.4-7.1C56-0.6,60.6,1.5,64,4.7c3.8,3.6,5.9,8.5,7.3,13.4
				c0.7,2.7,1.4,5.4,1.7,8.1c0.1,1.2-0.8,2.1-1.2,2.4c-2.1,1.6-4.3,3.1-6.4,4.7c-2.7-5.6-5.7-11.2-9.5-16.2
				c-1.7-2.3-3.6-4.4-5.8-6.2c-1-0.8-2-1.5-3.1-2.1c-1-0.5-2.3-1.3-3.4-0.9c-4.2,1.5-7.7,4-9,8.4c-1,3.4-0.9,7.2,0.2,10.5
				c1.7,5,5.9,8.4,10.8,10.1c-1,0.6-2.9-0.5-3.9-0.9c-1.2-0.5-2.2-1.2-3.3-1.9c-2-1.4-3.8-3.2-5.1-5.2c-2.8-4.5-2.6-9.8-0.3-14.4
				C34.6,11.8,36.6,9.4,38.7,7.3C38.8,7.2,34.2,11.6,38.7,7.3z"/>
			<g>
				<path fill="#943031" d="M85.4,165.3c0.9,4.1,0.7,8.5-0.6,12.6c3.2,4.1,5.9,8.6,8,13.4c-2,1.5-11.8,2.6-18.7,2.3
					c-4.1-0.2-9,0.9-11.8-2.1c-2.5-2.7-2-6.9-0.9-10.5c1.1-3.6,2.7-7.2,5.2-10.2c2.5-3,5.9-5.3,9.8-6c3.9-0.7,8.2,0.4,10.9,3.3
					L85.4,165.3z"/>
				<path fill="#943031" d="M105.4,140.7c0.3,1.5-0.1,30.9,4.3,40.1c2.4,0.1,5.9,2.2,6.8,5.6c0.9,3.3-1.9,5.2-1.9,5.2s-7,1.6-11.5,0
					l-18.6-47.8L105.4,140.7z"/>
				
					<linearGradient id="SVGID_11_" gradientUnits="userSpaceOnUse" x1="1931.608" y1="177.0484" x2="1961.8617" y2="175.8696" gradientTransform="matrix(1 0 0 1 -1853.5927 0)">
					<stop  offset="9.685800e-004" style="stop-color:#F7912F"/>
					<stop  offset="0.2206" style="stop-color:#F78D31"/>
					<stop  offset="0.505" style="stop-color:#F58136"/>
					<stop  offset="0.8237" style="stop-color:#F36E3D"/>
					<stop  offset="0.9949" style="stop-color:#F16040"/>
				</linearGradient>
				<path opacity="0.39" fill="url(#SVGID_11_)" d="M116.1,185.1c-1.3-2.6-4.2-4.3-6.3-4.3c-1.7-3.4-2.6-9.7-3.2-16.3
					c-3.2,5.5-4.3,22.5-1.5,23C107.1,187.7,114.1,185.7,116.1,185.1z"/>
				<path fill="#F2693E" d="M0.6,190.2c5.4-13.1,29.2-12,33.7-11.5c-1.8-6-4.8-13.4-4.7-24.4c0.3-20.8,17.2-31.3,35.5-25.6
					c1.8-1,3.2-2,4.4-3.2c1.8-1.3,3.2-3.3,3.9-6c0.3-1.3,0.8-3.1,0.9-4.4c4.8-0.3,9.4,1.3,14.3,2.1c2.9,0.4,5.9,1,8.8,1.6
					c0.8,4.5,3.7,10.2,9.6,16.2c1.6,15-9.6,26.7-26.7,37.8c-17,11.1-32.3,8.3-32.3,8.3l1.9,8.4c-0.4,0.7-3.5,2.4-5.5,2
					c-6.3-1.2-36.9-3.9-31.4,6.5c-0.1-0.1-2.5,4.6-8.6,3.5C2.1,200.8-1.4,195.1,0.6,190.2z"/>
				<path fill="#F57F32" d="M67.9,126.8c0.5-0.4,1.1-0.9,1.5-1.3c1.8-1.3,3.2-3.3,3.9-6c0.3-1.3,0.8-3.1,0.9-4.4
					c4.8-0.3,9.4,1.3,14.3,2.1c2.9,0.4,5.9,1,8.8,1.6c0.8,4.5,3.7,10.2,9.6,16.2c0.3,2.4,0.2,4.8-0.2,7.1c-2.5,0.8-5.1,1-8.2,1.1
					C89.8,143.4,75.8,139.7,67.9,126.8z"/>
				<path fill="#F37239" d="M29.8,160.5c-0.2-1.9-0.3-4-0.3-6.2c0.3-19.2,14.8-29.7,31.4-26.6c3.7,8.7,8.8,30.3-4.1,43
					C47.3,180,36.5,168.1,29.8,160.5z"/>
				<path fill="#F57F32" d="M60,127.5c2.4,8.6,2.5,19.9-7.8,30c-8.3,8.1-16.3,5.5-22.6-0.3c0-1-0.1-1.9,0-3
					C29.9,135.5,43.8,125,60,127.5z"/>
				<g>
					<path fill="#DFA680" d="M92.5,152.2c0,0-2.9,2-7.4,6c-5.7,5-14.8,2.9-21.6,11.1c-5.6,9.6-3.1,16.3-3.1,16.3s17.4-4.2,35.3-23
						c1.9-2,11.2-12.6,11.8-16C104.2,144.8,92.5,152.2,92.5,152.2z"/>
					<path fill="#FED09D" d="M88.5,116c5.7,0.9,8.5-0.1,13.4,0.9l0.2,0c0.1,0,0.2,0.1,0.3,0.1c0.5,0.1,1,0.2,1.5,0.4
						c0,0,3,2.1,4.1,3c2.6,2.1,4.7,4.8,6,7.7c-0.7-1-1.8-1.6-3-1.9c2.2,3.9,2.2,8.6,2.1,13c-0.3-1-1.1-1.8-2.1-2.3
						c-0.3,2.6-0.9,5-1.9,7.3c-3.4,7.8-17.8,14.8-17.7,14.3c0.4-5,0.7-10,0.4-15c1-1.6,1.9-3.4,2.9-5.2c-0.3-3.1-2.6-6.2-5.8-9.2
						c-1.9-5.1-4.8-9.9-8.6-13.6c0,0,0,0,0,0C83.2,115.6,86.1,115.6,88.5,116z"/>
					<path fill="#F9BD8A" d="M80.3,115.6c2.9,0,5.8,0,8.2,0.4c5.7,0.9,8.5-0.1,13.4,0.9l0.2,0c0.1,0,0.2,0.1,0.3,0.1
						c0.5,0.1,1,0.2,1.5,0.4c0,0,0.5,0.3,1.1,0.8c-5.4,1.4-13.4,2.4-20.8,1.9C83,118.4,81.7,116.9,80.3,115.6
						C80.3,115.6,80.3,115.6,80.3,115.6z"/>
					<path fill="#F5B995" d="M91.9,164c0,0.1,0,0.1,0.1,0.2C92,164.1,91.9,164.1,91.9,164L91.9,164z"/>
				</g>
				
					<linearGradient id="SVGID_12_" gradientUnits="userSpaceOnUse" x1="1919.359" y1="167.1415" x2="1901.3962" y2="186.7373" gradientTransform="matrix(1 0 0 1 -1853.5927 0)">
					<stop  offset="0" style="stop-color:#F57E33"/>
					<stop  offset="0.9949" style="stop-color:#F16040"/>
				</linearGradient>
				<path fill="url(#SVGID_12_)" d="M71.1,182.2c4.6-6.2,5.1-10.7,3.4-14c-2.4-6.2-10.8-8.9-18.9-6c-8.8,2.6-16.1,10.8-16.7,15.1
					c-1,6.3,15.3,13.7,20.2,17.4c3.6-3.1,4.5-3.3,6.8-5.9l1.3-2.1C68.2,185.4,70.2,183.6,71.1,182.2z"/>
				<path fill="#F16040" d="M56.4,189.9c6.9-1.1,13.6-4.4,17.4-4.4c1.2,0,5.4,1.2,6.5,1.9c2.2,2.1,3.2,6.1,2.7,7.3
					c-0.6,1.3-4.9,4.7-9.1,4.9c-3.4,0.1-25.5-3-31.5-3.7c-6.7-0.8-4.7-5.1-1.9-10.3L56.4,189.9z"/>
				<g>
					<path fill="#943031" d="M61.1,198.8c3.2,0.4,6.2,0.7,9,1c2.8,0.3,5.4,0.1,7.4-0.7c2-0.8,3.3-2,4.2-2.8c0.9-0.8,1.2-1.4,1.2-1.4
						c0,0-0.3,0.4-1.4,1.2c-0.9,0.7-2.3,1.8-4.2,2.5c-1.9,0.7-4.4,0.8-7.1,0.5c-2.7-0.3-5.8-0.6-8.9-1c-6.3-0.8-12.1-1.5-16.2-2
						c-2.1-0.3-3.8-0.5-4.9-0.8c-1.1-0.3-1.5-0.9-1.5-0.9c0,0,0,0.2,0.2,0.4c0.2,0.2,0.6,0.5,1.2,0.8c1.1,0.4,2.8,0.7,4.9,1.1
						C49,197.2,54.7,198.1,61.1,198.8z"/>
				</g>
				
					<linearGradient id="SVGID_13_" gradientUnits="userSpaceOnUse" x1="1930.2444" y1="195.1311" x2="1922.8143" y2="187.3745" gradientTransform="matrix(1 0 0 1 -1853.5927 0)">
					<stop  offset="9.685800e-004" style="stop-color:#F7912F"/>
					<stop  offset="0.2206" style="stop-color:#F78D31"/>
					<stop  offset="0.505" style="stop-color:#F58136"/>
					<stop  offset="0.8237" style="stop-color:#F36E3D"/>
					<stop  offset="0.9949" style="stop-color:#F16040"/>
				</linearGradient>
				<path fill="url(#SVGID_13_)" d="M80.3,187.3c-1.1-0.7-5.3-1.9-6.5-1.9c-3.6,0-7.1,1.9-13.3,3.1c-0.3,1,0.2,2,1.8,2.9
					C71.8,193.1,80.6,187.6,80.3,187.3z"/>
				
					<linearGradient id="SVGID_14_" gradientUnits="userSpaceOnUse" x1="1903.0807" y1="110.9453" x2="1937.0667" y2="150.389" gradientTransform="matrix(1 0 0 1 -1853.5927 0)">
					<stop  offset="9.685800e-004" style="stop-color:#F7912F"/>
					<stop  offset="0.2206" style="stop-color:#F78D31"/>
					<stop  offset="0.505" style="stop-color:#F58136"/>
					<stop  offset="0.8237" style="stop-color:#F36E3D"/>
					<stop  offset="0.9949" style="stop-color:#F16040"/>
				</linearGradient>
				<path fill="url(#SVGID_14_)" d="M78.1,156.2l-1.7-29c0,0-4.8-2.2-3.2-7.1c0.8-2.3,0.9-4,1-4.4c1.6-1.5,6-0.9,9.2,0.8
					c3.3,1.7,13,19.3,11.7,23.3c-4.8,4.2-2,30.3,9.1,45.3c1.3,0,4.3,0.1,5.4,2.3c2,4.5,1.4,6.3,1.4,6.3s-5.3,4.8-13.6,2.4
					c-2.8-0.8-21.7-17.4-20.2-21.2C79.1,170.1,78.1,156.2,78.1,156.2z"/>
				<path fill="#9D3E3A" d="M69.4,125.5c1-0.8,1.9-1.7,2.7-2.9c0.2,7.7,12.5,17.3,19.9,20.5c-7.2-1.3-14.3-4.2-19.2-8.4
					c-1.8-1.6-4.4-4.8-5.8-7.1C67.9,126.9,68.7,126.2,69.4,125.5z"/>
				<path fill="#9D3E3A" d="M51.3,170.9c-4.3-1.1-8.9-1.4-12.9-3.2c-3-1.4-5.7-3.6-7.5-6.4c-0.5-0.7-0.9-1.5-1.2-2.2
					c0.4,5.1,1.4,9.4,2.5,13.1c4.9,0.7,10,0.6,14.9,1.1c5.2,0.5,10.6,1.9,14.4,5.5C60,174.4,55.6,172,51.3,170.9z"/>
				<path opacity="0.17" fill="#FBEF57" d="M56.5,176.9c2,1.3,5,1.7,6.6,3.4c1.9-0.7,3.3-3,4.6-6.3c2.1-5.6,1.3-12.3-6.3-11.8
					c-3.2,0.2-10.7,1.7-16.5,8.7C39.4,178.6,52.8,174.4,56.5,176.9z"/>
				
					<radialGradient id="SVGID_15_" cx="1905.5742" cy="169.9718" r="36.0306" gradientTransform="matrix(1 0 0 1 -1853.5927 0)" gradientUnits="userSpaceOnUse">
					<stop  offset="9.685800e-004" style="stop-color:#F7912F"/>
					<stop  offset="0.2206" style="stop-color:#F78D31"/>
					<stop  offset="0.505" style="stop-color:#F58136"/>
					<stop  offset="0.8237" style="stop-color:#F36E3D"/>
					<stop  offset="0.9949" style="stop-color:#F16040"/>
				</radialGradient>
				<path fill="url(#SVGID_15_)" d="M13.3,192c-1.8,5.4,16.5,5.8,19.5,5.5c8.9-0.8,17.6-2.1,16.2-12c-1.2-8.8,3.2-16.4,14.9-7.7
					c6.8,5.1,4.8,14.5,0,20.3c-11.6,14.1-36.7,14.3-52.5,8.7c-6.8-2.4-14.2-9-10-16.9c1.6-3.1,3.9-4.1,7.2-3.2
					C11,187.3,14.3,189.1,13.3,192z"/>
				<path fill="#9D3E3A" d="M55.4,181.3c-2.7-1.7-6.1-2.4-9.4-2.8c-4.4-0.5-8.9-0.8-12.7-3.1c-0.1,0-0.1-0.1-0.2-0.1
					c0.4,1.2,0.8,2.4,1.1,3.5c0.1,0.3,0.4,1.1,0.5,1.3c3.9,2.5,8.7,3.5,13.3,3.3c0.1,0,2.8,0.3,2.9,0.3l-0.3-2
					C50.7,181.6,50.8,181.6,55.4,181.3z"/>
				<path fill="#FED09D" d="M63.9,177.8c-11.7-8.8-16.1-1.1-14.9,7.7c0.4,3.1-0.2,5.4-1.4,7.1c1-0.3,2-0.4,3-0.4
					c3,0.1,6.1,2,7.2,4.8c1.1,2.8,0,6.5-2.7,7.9c0.1,0.1,0.2,0.1,0.2,0.2c3.3-1.8,6.2-4.1,8.6-7C68.8,192.3,70.7,182.9,63.9,177.8z"
					/>
				<path fill="#9D3E3A" d="M16.3,190.2c1.6-3.3,0.8-7.5-1.7-10.2c-2.9,0.7-5.8,1.8-8.2,3.4c1.5-0.2,3.1-0.1,4.5,0.5
					C13.6,184.9,15.7,187.3,16.3,190.2z"/>
				<path fill="#9D3E3A" d="M31.4,184.9c0.8-1.9,0.9-4.3,0.2-6.3c-1.3-0.1-2.9-0.1-4.7,0c1.8,2.2,1.7,7.4,0.7,10.8
					C29,188.2,30.5,186.8,31.4,184.9z"/>
				<path fill="#9D3E3A" d="M13.8,193c0.3-0.2,0.6-0.4,0.9-0.6c-2-4.1-7.1-6.4-11.3-5c-0.6,0.2-1.2,0.5-1.8,0.9
					c-0.4,0.6-0.7,1.2-1,1.9c-0.8,2.1-0.7,4.3-0.1,6.2c0.3,1.5,1.1,3,2.1,4.3c-1.2-2.8-0.7-6.5,1.6-8.5
					C6.8,189.7,11.5,190.1,13.8,193z"/>
				<path fill="#9D3E3A" d="M19.5,202.6c0.8-2.7,2.6-4.4,5.3-5.2c-1.8-0.2-3.6-0.4-5.3-0.7c-1.7,0.8-3.2,2-3.9,3.4
					c-1.2,2.4-1.9,5.1-1.5,7.7c2.2,0.7,4.6,1.2,7.1,1.7C19.7,207.3,18.9,204.8,19.5,202.6z"/>
				<path fill="#9D3E3A" d="M32.7,210.3c2.5,0,5.1-0.2,7.6-0.5c0-2.7-1.8-9.1-6.2-12.4c-0.2,0-0.5,0-0.7,0.1
					C34.4,201.8,34.4,206.1,32.7,210.3z"/>
				
					<linearGradient id="SVGID_16_" gradientUnits="userSpaceOnUse" x1="1957.5341" y1="191.9582" x2="1955.6825" y2="185.6371" gradientTransform="matrix(1 0 0 1 -1853.5927 0)">
					<stop  offset="9.685800e-004" style="stop-color:#F7912F"/>
					<stop  offset="0.2206" style="stop-color:#F78D31"/>
					<stop  offset="0.505" style="stop-color:#F58136"/>
					<stop  offset="0.8237" style="stop-color:#F36E3D"/>
					<stop  offset="0.9949" style="stop-color:#F16040"/>
				</linearGradient>
				<path fill="url(#SVGID_16_)" d="M109.6,187.5c-1.8-2.6-4.1-2.3-5.2-2.3c-3.3,0.8-7,2.6-7.9,4.9C99.9,192,109.9,188,109.6,187.5z
					"/>
				<path opacity="0.28" fill="#D87146" d="M63.9,177.8c-1.4-1.1-2.7-1.9-4-2.5c0.7,0.6,1.2,1.3,1.7,2.1c2.1,3.6,1.8,8.3,0.1,12.1
					c-1.7,3.8-4.8,6.9-8.1,9.5c-8.8,6.8-19.9,10.6-31.1,10.5c14.7,2.2,32.2-0.3,41.4-11.4C68.8,192.3,70.7,182.9,63.9,177.8z"/>
				<path fill="#9D3E3A" d="M98.8,175.4c-5.7-1.5-11.1,5.7-11.8,12.6c0.7,0.7,1.4,1.3,2.1,1.9c0.7-4.3,8.7-13.6,12.1-9.4
					C100.4,178.9,99.6,177.2,98.8,175.4z"/>
				<g>
					<path fill="#943031" d="M104.7,196.9c2-0.2,3.8-0.9,4.9-1.6c1.1-0.7,1.6-1.4,1.5-1.5c-0.1-0.1-0.6,0.5-1.8,1.1
						c-1.1,0.6-2.8,1.1-4.7,1.4c-1.9,0.3-3.7,0.3-5,0.2c-1.3-0.1-2-0.3-2.1-0.2c0,0.1,0.7,0.5,2,0.7
						C100.9,197.1,102.7,197.1,104.7,196.9z"/>
				</g>
				<g>
					<path fill="#943031" d="M33.3,210.6c5.4-0.2,10.2-1.1,13.6-2.1c1.7-0.5,3.1-0.9,4-1.3c0.9-0.4,1.4-0.6,1.4-0.7
						c0,0-0.5,0.1-1.5,0.4c-0.9,0.3-2.3,0.7-4,1.1c-3.4,0.8-8.2,1.7-13.5,1.9c-5.3,0.2-10.1-0.5-13.6-1.1c-1.7-0.3-3.1-0.6-4.1-0.8
						c-1-0.2-1.5-0.3-1.5-0.3c0,0.1,0.5,0.3,1.4,0.5c0.9,0.3,2.3,0.7,4,1C23,210,27.9,210.8,33.3,210.6z"/>
				</g>
				<path fill="#9D3E3A" d="M50,207.5c0.3-2.1-0.2-4.4-1.2-6.2c-1.4-2.7-3.9-4.6-6.6-5.3c-0.8,0.3-1.7,0.5-2.7,0.7
					c2.7,0.6,5.2,2,6.8,4.5c1.3,2,2.1,4.9,1.2,7.2C48.3,208.1,49.2,207.8,50,207.5z"/>
				<path opacity="0.27" fill="#FEF491" d="M53.3,195.7c0,0,0-0.1,0.1-0.1c0.8-1.3,1.7-2.7,1.7-4.3c0-0.9-0.4-1.4-0.9-1.7
					c-0.6,0-1.2,0-1.7-0.2c-0.9,0.1-1.8,0.5-2.6,0.9c-0.9,5.6-9.6,8.1-19,8.1c-10.3,0-15.8-2.4-17-2.4c-3.3,0,5.3,7.1,17.8,6.9
					C40.2,202.7,48.4,200.4,53.3,195.7z"/>
				<path opacity="0.45" fill="#FBEF57" d="M51.7,186.7c2.7,1.6,6.1-0.2,7-3c0.3-5.3-1.9-8.1-4.3-8.1c-1.6,0-4.4,1.1-4.3,9.2
					C50.4,185.7,50.9,186.3,51.7,186.7z"/>
				<g>
					<g>
						<path fill="#943031" d="M79.1,160.9c0.1,4.8-0.7,8.6-0.9,8.6c-0.2,0,0.1-3.9,0-8.6c-0.1-4.7-0.8-8.5-0.6-8.5
							C77.9,152.4,79,156.1,79.1,160.9z"/>
					</g>
				</g>
				<path fill="#9D3E3A" d="M40.6,148.3c-3.1-2.5-6.1-5.2-7.3-8.8c-1.2,2.2-2.2,4.6-2.9,7.3c1.3,3.7,5.9,6.5,10.2,7.9
					c4.7,1.5,9.3,2.5,12.6,4.2c0.3,0.2,0.7-0.2,0.4-0.5C50.6,154.6,44.3,151.3,40.6,148.3z"/>
				<path fill="#9D3E3A" d="M59.3,143.8c-1.3-4.1-2.8-8.2-5-11.9c-0.9-1.5-1.9-3-3-4.4c-2.8,0.4-5.5,1.2-7.9,2.5
					c1.1,1.9,4,3.9,5.3,5c3.1,2.6,7.5,5.5,10.1,9.1C59.4,145,59.6,144.9,59.3,143.8z"/>
				<path fill="#9D3E3A" d="M95.2,163.8c-3.1,0.1-6.1,1.5-8.5,3.4c-2.7,2.2-4.7,5.2-6.2,8.3c3.2-3.8,8.5-5.1,13.5-5.7
					c1-0.1,1.9-0.2,2.8,0.1C96.2,168,95.6,165.9,95.2,163.8z"/>
				<path fill="#9D3E3A" d="M77.3,151.5c4.6,2.2,10.2,2.3,14.4-0.7c-1.1,0.8-6.7-1.7-7.9-2.2c-2.8-1.1-5.5-2.4-8.1-4
					c-5.1-3.2-9.3-7.3-13.2-12C64.7,140.5,70.1,148,77.3,151.5z"/>
				<path opacity="0.45" fill="#9C5E3C" d="M23.5,182.8c-9,2.5-10.4,7.9-9.9,10.3c4-3.4,16.5-3.2,24.6-2.4c0.5-1,1.1-2.2,1.2-2.7
					c-2.2-4.3-4.1-6.3-4.1-6.3S29.4,181.2,23.5,182.8z"/>
				<path opacity="0.18" fill="#FBEF57" d="M43.3,139.8c-4.3,4.7-9.1,16-10.2,13.8c-1-2-0.7-5.4,0.3-9.4c1-4,3-7.9,6.2-10.6
					c3.6-3,8.4-4.3,13-5.1c3.4-0.6,10.8,0.8,4.6,3.2C51.9,133.7,47.3,135.5,43.3,139.8z"/>
			</g>
			<path opacity="0.19" fill="#FBEF57" d="M95.9,28.9c0,0,24.7,16.9,35,29c13.8,16.1,17.5-8.1-7-25.6C104.1,18,76.5,19.3,95.9,28.9z
				"/>
			<path fill="#9D3E3A" d="M74.2,115.2c0.4,0,0.9,0,1.3,0c1.4-0.4,3.4-0.2,5.4,0.4c0.7,0,1.5,0,2.2,0c1.2,1.4,2.4,2.9,3.6,4.6
				c-7,0.1-10.2-0.9-13.2-1.5C73.8,117.5,74.2,116.2,74.2,115.2z"/>
			<path fill="#F9BD8A" d="M38.6,59.4c3.6,12.6,23.4,47.3,58.1,53c7.1-5.7,21.7-9.2,27.9-13.6c3.9,0.1,8.6-0.6,10.2-1
				c3.5-3.5,4.2-8,4.4-10.7c0-0.1,0.1-0.3,0.1-0.4c0,0,0,0,0,0c-0.2,10-3.8,19.7-10,27.1c-1.3,0.4-2.6,0.8-3.9,1.1
				c-2.6,0.6-4.5,0.8-7.1,1.5c-0.3,0-1.4,0-1.7,0c-0.3,0-0.6,0-0.9,0c-0.1,0-0.1,0-0.2,0c-1.4,0-2.8,0.1-4.1,0.1
				c-2,0-4.4,0.3-5.9,0.6c-7,0.3-17.6-0.3-27.9-1.3c-1.5-0.1-3-0.6-3.2-0.5c-1.4-0.5-4.8-1.9-6.2-2.6c-3.4-1.7-6.7-3.9-10-6.9
				c-12.5-11.2-28.1-30-29-55.1c0,0,0,0,0,0C31.9,54.1,34.8,57,38.6,59.4z"/>
			<path fill="#F4B99D" d="M139.8,110.4c-7.9,5.2-19.1,5.9-21.6,5.9c-0.1,0-0.2,0-0.4,0c9.1-5.4,21.3-17,21.5-29.7h0
				c3.4,0.9,7.8,2.4,11.3,3.7c1.2,1.6,2.6,2.9,4.2,4C151.7,99.7,145,106.9,139.8,110.4z"/>
			<path fill="#FED7AC" d="M62.1,26.9c-5.9-3.8-11-4.4-12.1-4.6c2.1,0.8,4.5,3.1,6.2,4.9c-6.3-0.5-12.3,0-17.8,2.5
				c5,0.6,9.9,1.9,14.4,3.8c-6.2,0.5-9.3,1.8-11.2,6.3c3.6-1.3,12.5-0.4,14.8,0.2c3.3-2.5,7.9-5.7,9-6.6
				C64.9,32.2,62.7,27.6,62.1,26.9z"/>
			<path opacity="0.45" fill="#FBEF57" d="M108.7,133.7c-1.1-0.4-16.2-1.3-24.1-8.1c-0.6-0.5-0.6-1.5,0.1-1.9
				c3.8-2.3,14-3.4,17.2-3.3c2.9,0.1,5.8,0.9,8.5,2.2c1.4,1.5,2.6,3.3,3.5,5.2c-0.6-0.9-1.6-1.5-2.7-1.7c0.8,1.4,1.3,2.9,1.5,4.4
				c0,0,0,0,0,0c0,0.1,0,0.1,0,0.2c0.1,0.5,0.2,1,0.2,1.4c0,0.1,0,0.2,0,0.4c0,0.4,0.1,0.7,0.1,1.1c0,0.2,0,0.4,0,0.7c0,0,0,0,0,0
				l0,0c0,1,0,2.1,0,3.1c-0.1-0.2-0.1-0.4-0.2-0.5c-0.3-0.9-0.7-1.7-1.1-2.5c-0.1-0.2-0.3-0.4-0.4-0.6c-0.5,0.7-1.1,1.2-1.8,1.8
				c0.1-0.7-0.3-1.4-0.9-1.8c0,0,0,0,0,0C108.8,133.8,108.7,133.8,108.7,133.7z"/>
			<g>
				<path fill="#F99E32" d="M140.2,85.5c-0.4-1-3.5-8.7-16.2-14.2c-6.4-2.7-10.3-3.4-12.8-3.1c-2.4,0.3-3.4,3.7-3.7,4.7
					c0.6,1.3,2.5,3.7,3.7,4.4C114.4,77.8,140.2,85.5,140.2,85.5z"/>
				<path opacity="0.3" fill="#FFFFFF" d="M111.2,68.2c1.4-0.2,3.4,0,6.1,0.7c2.9,2.9,7.2,6.6,12.6,8.5c-7.8,2.2-16.1-1.9-19.6-8.9
					C110.6,68.4,110.9,68.3,111.2,68.2z"/>
				<path fill="#76262D" d="M113.1,73.6c0,0,10.2,0.6,19.3,5.2c3.1,1.6,5.4,3.4,8.2,6.3c0.6,0.6-0.3,2.8-1.4,2.6
					c-1.9-0.3-5.2-0.6-7.7-0.7c-0.8,0.9-1.9,1.7-3,2.3c-1.5-0.1-3.7-1.3-3.7-1.3c1.3-2.1,1.4-3.6-1.9-5.8c-2.7-1.9-6.6-4-11.3-5.1
					C111.3,76.4,113.1,73.6,113.1,73.6z"/>
				<path opacity="0.16" fill="#FFFFFF" d="M134.6,80.1c2.1,1.3,3.9,2.8,5.9,5c0.6,0.6-0.3,2.8-1.4,2.6c-1.8-0.3-4.9-0.5-7.4-0.7
					C132.8,84.7,133.8,82.4,134.6,80.1z"/>
				<g>
					<path fill="#61232A" d="M113.1,73.6l0-0.4c0,0,10.3,0.6,19.4,5.2c3.1,1.6,5.5,3.4,8.3,6.4c0.2,0.2,0.3,0.5,0.3,0.8
						c0,0.5-0.2,1.1-0.5,1.5c-0.2,0.2-0.3,0.4-0.6,0.6c-0.2,0.2-0.5,0.3-0.8,0.3l-0.2,0c-1.9-0.3-5.2-0.6-7.7-0.7l0-0.4l0.3,0.3
						c-0.8,0.9-1.9,1.8-3.1,2.3l-0.2,0c-0.8-0.1-1.8-0.4-2.5-0.7c-0.8-0.3-1.3-0.6-1.3-0.6c-0.1,0-0.2-0.1-0.2-0.2
						c0-0.1,0-0.2,0-0.3c0.5-0.8,0.8-1.5,0.8-2.1c0-0.5-0.1-0.9-0.5-1.4c-0.4-0.5-1-1.1-2-1.8c-2.7-1.9-6.6-3.9-11.1-5.1
						c-0.1,0-0.2-0.1-0.3-0.2c0-0.1,0-0.2,0-0.2c0-0.3,0.1-0.6,0.3-1c0.5-1.1,1.4-2.5,1.4-2.5c0.1-0.1,0.2-0.2,0.3-0.2L113.1,73.6
						l0.3,0.2c0,0-0.1,0.2-0.3,0.4c-0.2,0.4-0.6,0.9-0.8,1.5c-0.1,0.3-0.3,0.5-0.3,0.8c-0.1,0.2-0.1,0.4-0.1,0.5l0,0l-0.1,0l0.1,0
						l0,0l-0.1,0l0.1,0l-0.3,0.1l0.1-0.4c4.7,1.2,8.6,3.3,11.4,5.2c1,0.7,1.7,1.3,2.2,1.9c0.5,0.6,0.7,1.3,0.7,1.9
						c0,0.8-0.4,1.6-0.9,2.5l-0.3-0.2l0.2-0.3c0,0,0.1,0.1,0.4,0.2c0.7,0.3,2.2,1,3.2,1.1l0,0.4l-0.2-0.3c1.1-0.5,2.1-1.3,2.9-2.2
						c0.1-0.1,0.2-0.1,0.3-0.1c2.5,0.2,5.9,0.5,7.8,0.7l0.1,0c0.1,0,0.2,0,0.3-0.1c0.2-0.1,0.4-0.4,0.5-0.7c0.1-0.3,0.2-0.6,0.2-0.8
						c0-0.2,0-0.3-0.1-0.3c-2.7-2.9-5-4.7-8.1-6.3c-4.5-2.3-9.3-3.6-12.9-4.3c-1.8-0.4-3.4-0.6-4.5-0.7c-0.5-0.1-1-0.1-1.3-0.1
						c-0.3,0-0.4,0-0.4,0L113.1,73.6l0.3,0.2L113.1,73.6z"/>
				</g>
				<g>
					<path fill="#FFFFFF" d="M120.8,75.5c-2-0.5-3.7-0.5-3.7-0.1c0,0.3,1.5,0.8,3.4,1.3c1.9,0.5,3.5,0.7,3.6,0.4
						C124.2,76.8,122.7,76,120.8,75.5z"/>
				</g>
			</g>
			<path fill="#9D3E3A" d="M95.1,29.8c3.7,2.3,6.6,9.3,6.6,9.3s-5.7-4.6-20-5C85.8,31.3,92,30,95.1,29.8z"/>
			<path fill="#9D3E3A" d="M139.9,57.2c1.3-2.7,3.9-6.2,4-6.1c3.8,5.4,4.6,11.5,4.6,11.5C148.5,62.6,146.9,61.2,139.9,57.2z"/>
			<g>
				<path fill="#9F4A41" d="M108,106.3c-1,0.3,4.6-3.3,5.4-3.7c0.8-0.4,6.4-0.1,4.7,0.5C114.7,104.3,108.8,106.1,108,106.3z"/>
			</g>
		</g>
		<path fill="#76262D" d="M111.5,93.1c2.3,0.9,7.4,1.6,11.6-1.3c0.8-0.6,1.8-1.4,1.9-1.4c0,0.2-1,1.8-1.7,2.9
			c-0.3,0.5-1.1,2.3,0.3,3.1c2,1.2,5.9,1.7,9.4,1.6c0.2,0,0.3,0.3,0.1,0.4c-3.1,0.8-8.4,0.6-10.5,0c-0.6-0.3-1.9-1.3-1.8-2.8
			c0-0.2-0.2-0.2-0.3-0.2c-2.7,1.3-7.7,0.9-9.3,0.4c-2.6-1-6.9-7.8-8.4-10.7c-0.1-0.2,0.2-0.4,0.3-0.2C105,87,109.2,92.2,111.5,93.1
			z"/>
	</g>
	<path fill="#943031" d="M103.5,189c0.1,0,2,2.1,2.1,2.7c0.1,1-0.5,3.9-0.5,3.9s-0.2-2.8-0.3-3.2C104.5,191.9,103.5,189,103.5,189z"
		/>
	<path fill="#943031" d="M107.6,187.7c0,0,1.6,1.6,1.9,2.3c0.3,0.7-0.3,3.3-0.3,3.3s-0.5-2.5-0.7-3.3
		C108.2,189.2,107.6,187.7,107.6,187.7z"/>
	<path fill="#943031" d="M74.1,189.9c0.2,0.1,2.5,1.8,2.9,3c0.2,0.7-0.4,5.1-0.5,5.2c0,0.1,0-4.2-0.5-4.9
		C74.9,191.3,73.9,189.8,74.1,189.9z"/>
	<path fill="#943031" d="M77.8,187.9c0,0,2.4,1.7,2.8,3.5c0.2,0.8,0.1,4.5,0.1,4.5s0.8-3,0.5-5.2c-0.1-0.6-1.4-1.8-2.1-2.2
		C78.4,188,77.8,187.9,77.8,187.9z"/>
</g>
</svg>
