<?xml version="1.0" encoding="utf-8"?>
<!-- Generator: Adobe Illustrator 17.1.0, SVG Export Plug-In . SVG Version: 6.00 Build 0)  -->
<!DOCTYPE svg PUBLIC "-//W3C//DTD SVG 1.1//EN" "http://www.w3.org/Graphics/SVG/1.1/DTD/svg11.dtd">
<svg version="1.1" id="Layer_1" xmlns="http://www.w3.org/2000/svg" xmlns:xlink="http://www.w3.org/1999/xlink" x="0px" y="0px"
	 width="141.4px" height="154.3px" viewBox="0 0 141.4 154.3" enable-background="new 0 0 141.4 154.3" xml:space="preserve">
<g>
	<path fill-rule="evenodd" clip-rule="evenodd" fill="#932F31" d="M101.6,108.9c0,0-6.5,20.7-1.7,33.1c0,0,3.1,2,3.7,3.8
		c0.6,1.7-2.7,6.7-2.7,6.7s-6.6,0.7-8.7,0c-2.2-0.7-11.6-20.9-11.4-33.2C80.8,107,101.6,108.9,101.6,108.9z"/>
	<polygon opacity="0.8" fill-rule="evenodd" clip-rule="evenodd" fill="#CE777C" points="98.6,123.3 88.4,138 80.7,125.3 
		102.3,106.5 	"/>
	<path fill-rule="evenodd" clip-rule="evenodd" fill="#932F31" d="M67.6,148.2c0,0,6.4,2.6,12.5,0.9l4.3-16l-4.8-15.1l-28.7-1
		l4.1,20.3L67.6,148.2z"/>
	<radialGradient id="SVGID_1_" cx="88.9409" cy="103.6509" r="24.2603" gradientUnits="userSpaceOnUse">
		<stop  offset="1.711450e-002" style="stop-color:#FFC772"/>
		<stop  offset="1" style="stop-color:#FFC381"/>
	</radialGradient>
	<path fill-rule="evenodd" clip-rule="evenodd" fill="url(#SVGID_1_)" d="M112.1,92.3l-3.4-0.4c0,0-1,4.1-3.3,9.4
		c-0.5,1.2-1.1,2.5-1.8,3.8c0,0,0,0,0,0.1c-1.8,3.5-4.1,7.3-7,10.6c-3.1,3.6-7.9,6.3-12.8,8.3c-6.8,2.8-13.4,4.1-16.2,4.5
		c0.4-0.1-0.6-2.8-0.6,0.1c-0.7,0.1-1.2,0.2-1.2,0.2s3.8-6.8,1.4-18.7c0,0,7.6-5.5,12-13.2c2-3.5,3.4-7.3,3.1-11.3l21.2-7.4
		l-0.9,4.7C102.6,83,106.3,89.2,112.1,92.3z"/>
	<radialGradient id="SVGID_2_" cx="92.8687" cy="82.832" r="8.1265" gradientUnits="userSpaceOnUse">
		<stop  offset="5.586590e-003" style="stop-color:#008B60"/>
		<stop  offset="1" style="stop-color:#004F53"/>
	</radialGradient>
	<path fill-rule="evenodd" clip-rule="evenodd" fill="url(#SVGID_2_)" d="M82.3,85.8c0,0,14.8,4.9,20.3-2.8l0.9-4.7L82.3,85.8z"/>
	<radialGradient id="SVGID_3_" cx="48.5727" cy="102.2479" r="30.6008" gradientUnits="userSpaceOnUse">
		<stop  offset="1.711450e-002" style="stop-color:#FF8E27"/>
		<stop  offset="1" style="stop-color:#FF6543"/>
	</radialGradient>
	<path fill-rule="evenodd" clip-rule="evenodd" fill="url(#SVGID_3_)" d="M94.9,153.9c0,0-6,0.9-8.4,0c-2.4-0.9-17.2-13.6-18.4-17.1
		c-1.2-3.5-1.1-9.1-1.1-9.1c-0.5,4.2-2.2,7.5-3.6,9.5v0c-1,1.4-1.8,2.2-1.8,2.2s3.2,2.6,5,4.8c0.5,0.6,0.8,1.1,1,1.6
		c0.1,0.3,0.2,0.7,0.2,1v0c0,0,0,0,0,0c-0.1,2.5-2.8,5.9-2.8,5.9s-8.6,1-10.1-0.4c-1.5-1.4-6.8-12.5-7-14.5c-0.2-2,0.8-3.8,0.8-3.8
		c-6.9-14-5.6-32.3-2-35.6c3.6-3.3,7.4-2.9,15.6-5.5c8.1-2.6,11-5.4,11-5.4c2.9-2,8.9-1.7,8.9-1.7c0.8,1.9,0.5,17.2,0.7,30.9
		c0.2,13.7,7.9,25.8,7.9,25.8s5.1,1.5,5.7,4C97.2,149,94.9,153.9,94.9,153.9z"/>
	<radialGradient id="SVGID_4_" cx="22.934" cy="70.5849" r="30.1257" gradientUnits="userSpaceOnUse">
		<stop  offset="1.711450e-002" style="stop-color:#FF8E27"/>
		<stop  offset="1" style="stop-color:#FF6543"/>
	</radialGradient>
	<path fill-rule="evenodd" clip-rule="evenodd" fill="url(#SVGID_4_)" d="M45.9,99.6l-1.8,6.8c0,0-17,1.4-28.2-13.6
		c-5.8-7.7-6.6-15.3-6.2-21.4v-0.1c0.4-5.7,1.9-10,1.5-11.8c-0.2-0.8-0.6-1.6-1.2-2.4c-2-2.6-6-5.1-8.8-8.4
		c-3.6-4.4,2.1-14.2,9.4-14.1c4.5,0.1,9.9,6.5,13.3,13.1c2,4,3.3,8.1,3.1,10.8c-0.5,7.2-4.8,18,2.2,29
		C36.1,98.6,45.9,99.6,45.9,99.6z"/>
	<linearGradient id="SVGID_5_" gradientUnits="userSpaceOnUse" x1="0" y1="45.9411" x2="23.7125" y2="45.9411">
		<stop  offset="0" style="stop-color:#FFA252"/>
		<stop  offset="0.9829" style="stop-color:#FFC772"/>
	</linearGradient>
	<path fill-rule="evenodd" clip-rule="evenodd" fill="url(#SVGID_5_)" d="M23.7,47.8c-12.5-0.6-13.8,9-13.8,9.4
		c-2-2.6-6-5.1-8.8-8.4c-3.6-4.4,2.1-14.2,9.4-14.1C15,34.8,20.4,41.2,23.7,47.8z"/>
	<path display="none" opacity="0.8" fill-rule="evenodd" clip-rule="evenodd" fill="#CE777C" d="M112.1,92.3l-3.4-0.4
		c0,0-1,4.1-3.3,9.4c-8.5,5.4-22.5,2.4-22.5,2.4v0c-1-2.2-2.3-4.5-3.7-6.5c-3.3-4.9-7.1-8.7-7.1-8.7v0l1.4-5.6l29.9-4.5l-1.5,5.2
		C101.9,83.5,106.3,89.2,112.1,92.3z"/>
	<linearGradient id="SVGID_6_" gradientUnits="userSpaceOnUse" x1="115.2169" y1="23.5451" x2="115.2169" y2="9.731593e-011">
		<stop  offset="0.5031" style="stop-color:#9A4327"/>
		<stop  offset="0.9972" style="stop-color:#592930"/>
	</linearGradient>
	<path fill-rule="evenodd" clip-rule="evenodd" fill="url(#SVGID_6_)" d="M105.9,10.8c0,0,1.2-8.3,3.6-10c2.4-1.6,10.3-1.6,13.2,5.9
		s2,12.4,0.8,14.4c-0.7,1.2-5.8,2.4-5.8,2.4L105.9,10.8z"/>
	<radialGradient id="SVGID_7_" cx="91.9886" cy="23.9372" r="46.9216" gradientUnits="userSpaceOnUse">
		<stop  offset="1.711450e-002" style="stop-color:#FF8E27"/>
		<stop  offset="1" style="stop-color:#FF6543"/>
	</radialGradient>
	<path fill-rule="evenodd" clip-rule="evenodd" fill="url(#SVGID_7_)" d="M141.4,52.6l-3-0.4c0,0,0,0,0,0c-0.2,0.4-2.7,6.1-6.5,11.3
		c-1.8,2.4-3.8,4.8-6,6.4c-0.9,0.7-1.9,1.3-2.9,1.7c0,0-1.3,4.6-6.9,8.2c0,0,0,0,0,0c-0.3-0.1-6.4-2-12.7-1.5c0,0-16,7.2-29.3,9.1
		c-13.3,1.8-28.3-11.7-28.3-11.7l-6.1,2.4C40,78,43.3,74.5,46,67.8c0.7-1.9,1.4-4,2-6.3c2.5-11.1,4.9-33.3,15.2-42.2c0,0,0,0,0,0
		S73.4,6.5,92.5,2.3C92,2.4,89.9,3.2,88,5.2c0,0,10.5,2.3,17.8,5.6c0,0,0,0,0,0c1.5,0.7,2.9,1.4,4,2.1c6.7,4.4,11.7,16.3,14.7,23
		c1.9,4.2,8,9.6,12.3,13.1C139.5,51.2,141.4,52.6,141.4,52.6z"/>
	<g>
		<path fill-rule="evenodd" clip-rule="evenodd" fill="#9D3D3A" d="M46,67.8c0,0,4.7,9.3,12.6,11.3c10.2,2.6,14.2,0.9,14.2,0.9
			s-24.9-4.5-24.3-20.6L46,67.8z"/>
		<path fill-rule="evenodd" clip-rule="evenodd" fill="#9D3D3A" d="M50.9,46.9c0,0,0.4,9.3,1.4,14.1c1,4.8,19.7,16.8,36.7,13.5
			c0,0-10.2,4.4-19,2.9C61.1,76,54,65,51.9,61.8c-2.1-3.2-3.3-3.5-3.3-3.5L50.9,46.9z"/>
		<path fill-rule="evenodd" clip-rule="evenodd" fill="#9D3D3A" d="M64.9,17.3c0,0,6.7-5.2,14.3-3.9c7.6,1.3,14.6,8.4,16.2,12.9
			c0,0-2.3-7.3-6.9-13.7c-4.6-6.4-9.9-5.3-9.9-5.3S70.6,10.9,64.9,17.3z"/>
		<path fill-rule="evenodd" clip-rule="evenodd" fill="#9D3D3A" d="M88,5.2c0,0,10.9,9.7,17.9,36.3c0,0,2.5-18.8-6.5-33.1
			C99.4,8.4,92.2,5.5,88,5.2z"/>
		<path fill-rule="evenodd" clip-rule="evenodd" fill="#9D3D3A" d="M104.7,10.4c0,0,3,7.6,3.1,16.7c0,0,4-7.5,3.7-12.9
			C111.5,14.2,109,11.8,104.7,10.4z"/>
		<path fill-rule="evenodd" clip-rule="evenodd" fill="#9D3D3A" d="M83,96.9c0,0-7.2-5.3-14.2,2.8c0,0,9.8-3.3,14.1,0L83,96.9z"/>
		<path fill-rule="evenodd" clip-rule="evenodd" fill="#9D3D3A" d="M82.9,107.5c0,0-8.7-2.2-15.4,7.2c0,0-0.9,2.7-1.1,6.3
			c0,0,6.9-6.5,16.5-8L82.9,107.5z"/>
		<path fill-rule="evenodd" clip-rule="evenodd" fill="#9D3D3A" d="M83,116.7c0,0-7.4-1.3-12.1,6.8c0,0,4-2.9,12.4-2.5L83,116.7z"/>
		<path fill-rule="evenodd" clip-rule="evenodd" fill="#9D3D3A" d="M84.5,127.5c0,0-7.2-2.5-13,5.9c0,0,8.1-3.6,14.2-2L84.5,127.5z"
			/>
		<path fill-rule="evenodd" clip-rule="evenodd" fill="#9D3D3A" d="M88,137c0,0-8.1-0.5-12.7,7.9l2.5,2.3c0,0,4.4-6.7,11.1-8.2
			L88,137z"/>
		<path fill-rule="evenodd" clip-rule="evenodd" fill="#9D3D3A" d="M54.4,95.2c0,0-1.6,0.8-4,4.9c-2.4,4.1-1,12.3-1,12.3
			s2.6-2.2,2.9-7.9c0.3-5.6,3.8-9.9,3.8-9.9L54.4,95.2z"/>
		<path fill-rule="evenodd" clip-rule="evenodd" fill="#9D3D3A" d="M57.5,94.2c0,0-4.6,4.7-3.1,10.9c0,0,5-10.6,10.7-13.3
			C65.1,91.9,60.7,93.8,57.5,94.2z"/>
		<path fill-rule="evenodd" clip-rule="evenodd" fill="#9D3D3A" d="M48.8,134c0,0,5.7,3.7,12.5,2.9c0,0-4.6-0.5-14.6-8L48.8,134z"/>
		<path fill-rule="evenodd" clip-rule="evenodd" fill="#9D3D3A" d="M45.1,123.5c0,0,3.9,5.1,11.7,7.3c7.9,2.1,9.8,0,9.8,0
			s0.3-1.5,0.4-3.1c0,0-4.7,2.9-10.5,1.3c-5.8-1.6-12.5-11.9-12.5-11.9S44.6,121.5,45.1,123.5z"/>
		<path fill-rule="evenodd" clip-rule="evenodd" fill="#9D3D3A" d="M10,68.4c0,0,3.6-15.8,16.1-14.8c0,0,1.1,3,0.7,5.8
			C26.8,59.3,16.3,58.5,10,68.4z"/>
		<path fill-rule="evenodd" clip-rule="evenodd" fill="#9D3D3A" d="M26,64.6c0,0-10.5-1.8-15.5,7.4c0,0,5.9-7,14.7-2.1L26,64.6z"/>
		<path fill-rule="evenodd" clip-rule="evenodd" fill="#9D3D3A" d="M25.9,80.5c0,0-6-1.9-9,6.8c0,0,3.8-5.4,10.1-3.5L25.9,80.5z"/>
		<path fill-rule="evenodd" clip-rule="evenodd" fill="#9D3D3A" d="M30.8,90.1c0,0-5-0.5-5.6,7.3c0,0,3.3-3.3,7.6-4.9L30.8,90.1z"/>
		<path fill-rule="evenodd" clip-rule="evenodd" fill="#9D3D3A" d="M34.2,93.8c0,0-3.3,0.8-4.4,5.9c0,0,4.6-2.8,8.4-2.9L34.2,93.8z"
			/>
	</g>
	<radialGradient id="SVGID_8_" cx="89.0962" cy="69.8968" r="37.0602" gradientUnits="userSpaceOnUse">
		<stop  offset="1.711450e-002" style="stop-color:#FFC772"/>
		<stop  offset="1" style="stop-color:#FFC381"/>
	</radialGradient>
	<path fill-rule="evenodd" clip-rule="evenodd" fill="url(#SVGID_8_)" d="M138.4,52.2c-0.3,0.7-7.1,15.9-15.3,19.4
		c0,0-1.3,4.6-6.9,8.2c0,0-6.2-2.1-12.7-1.5c0,0-16,7.2-29.3,9.1c-13.3,1.8-28.3-11.7-28.3-11.7l-6.1,2.4c0,0,3.5-3.5,6.2-10.4
		c0,0,4.5,11.5,18.8,12.5c14.4,0.9,26.8-5,31.7-10.4c5-5.4,10.8-6.9,10.8-6.9s5.1,0.4,10.7-0.3c4.8-0.6,8.6-1.7,8.6-1.7
		C134.2,58.8,138.1,52.6,138.4,52.2z"/>
	<linearGradient id="SVGID_9_" gradientUnits="userSpaceOnUse" x1="50.7608" y1="37.3745" x2="50.7608" y2="6.7536">
		<stop  offset="0.5031" style="stop-color:#9A4327"/>
		<stop  offset="0.9972" style="stop-color:#592930"/>
	</linearGradient>
	<path fill-rule="evenodd" clip-rule="evenodd" fill="url(#SVGID_9_)" d="M63.2,19.2c0,0-1.6-10.5-13.3-12.5c0,0-9.3,1.8-11.2,10.5
		c-1.8,8.7,3.2,16.6,5.8,19c2.5,2.4,9.1,0,9.1,0S57.4,24.8,63.2,19.2z"/>
	<radialGradient id="SVGID_10_" cx="83.1157" cy="52.5227" r="19.7898" gradientUnits="userSpaceOnUse">
		<stop  offset="1.711450e-002" style="stop-color:#FFEC72"/>
		<stop  offset="1" style="stop-color:#FFBD8C"/>
	</radialGradient>
	<path fill-rule="evenodd" clip-rule="evenodd" fill="url(#SVGID_10_)" d="M65.8,66.4c0,0,6.1,7.4,17.5,6.3
		c11.4-1.1,18.1-8.5,19-10.6c0.9-2.1-7.7-26.4-16.7-29.5c-9-3.1-19.7,11.3-21.1,17.9C63.1,57.1,64.6,65.2,65.8,66.4z"/>
	<radialGradient id="SVGID_11_" cx="122.4176" cy="42.6869" r="11.4998" gradientUnits="userSpaceOnUse">
		<stop  offset="1.711450e-002" style="stop-color:#FFC772"/>
		<stop  offset="1" style="stop-color:#FF9D48"/>
	</radialGradient>
	<path fill-rule="evenodd" clip-rule="evenodd" fill="url(#SVGID_11_)" d="M118.2,55.1c-2.3-2.9-3.6-24.4-2-26.7
		c1.6-2.3,6.8,3.9,9,8.5c2.2,4.6,4.6,11.3,4.2,13.6c-0.7,4.2-3.9,6.4-6.4,6.8C121.3,57.5,119.4,56.7,118.2,55.1z"/>
	<path fill-rule="evenodd" clip-rule="evenodd" fill="#9D3D3A" d="M65.1,65c0,0-2.1-7.3,0.2-14.9c3-9.9,10.3-15.8,17.8-16.7
		C88.7,32.7,95.8,44,95.8,44s-5.1-11.7-12.6-13c-7.5-1.3-16.7,9.6-18.7,17C62,57,65.1,65,65.1,65z"/>
	<path fill-rule="evenodd" clip-rule="evenodd" fill="#9D3D3A" d="M116.2,47.1c0,0-3-18.5-0.8-21.1s9.1,8.5,11.1,14
		c0,0-6.7-12.9-9.7-12C114.3,28.9,116.2,47.1,116.2,47.1z"/>
	<linearGradient id="SVGID_12_" gradientUnits="userSpaceOnUse" x1="86.241" y1="71.3981" x2="86.241" y2="46.8941">
		<stop  offset="0" style="stop-color:#FFFFFF"/>
		<stop  offset="0.9829" style="stop-color:#FBC9CE"/>
	</linearGradient>
	<path fill-rule="evenodd" clip-rule="evenodd" fill="url(#SVGID_12_)" d="M75.3,63.9c-0.8-5.2,1.4-12.1,6.7-15.3
		c5.3-3.2,10.4-1.3,12.6,1.4c2.2,2.8,4.8,12.2,0,17.8C90.4,72.8,76.9,73.5,75.3,63.9z"/>
	<linearGradient id="SVGID_13_" gradientUnits="userSpaceOnUse" x1="121.893" y1="57.4121" x2="121.893" y2="39.292">
		<stop  offset="0" style="stop-color:#FFFFFF"/>
		<stop  offset="0.9829" style="stop-color:#FBC9CE"/>
	</linearGradient>
	<path fill-rule="evenodd" clip-rule="evenodd" fill="url(#SVGID_13_)" d="M122,57.3c-0.1,0-0.1,0-0.2,0c0,0,0,0,0,0
		c-1.4-0.3-2.5-1-3.3-2c-1.6-1.9-2.3-4.8-2.3-7.8c0-0.7,0.1-1.4,0.1-2c0.3-1.9,0.8-3.3,1.6-4.2c0.9-1.2,2-1.8,3-2
		c2-0.5,4.9,2.6,6.2,7.8C128.5,52.4,126.2,58.1,122,57.3z"/>
	<path fill-rule="evenodd" clip-rule="evenodd" fill="#75272C" d="M75.3,63.9c0,0-2.1-7.4,3.3-14.4c5.5-7,14.8-4.5,17.3,3
		c0,0-2-5.6-9.4-5.4C79.7,47.4,74.8,55.5,75.3,63.9z"/>
	
		<radialGradient id="SVGID_14_" cx="63.7483" cy="52.9097" r="7.5439" gradientTransform="matrix(1.111 0 0 1.1402 14.0405 5.1852)" gradientUnits="userSpaceOnUse">
		<stop  offset="1.711450e-002" style="stop-color:#FFC710"/>
		<stop  offset="0.7682" style="stop-color:#FF7700"/>
		<stop  offset="1" style="stop-color:#AE4B00"/>
	</radialGradient>
	<ellipse fill-rule="evenodd" clip-rule="evenodd" fill="url(#SVGID_14_)" cx="84.2" cy="60.8" rx="8.4" ry="8.6"/>
	<ellipse fill-rule="evenodd" clip-rule="evenodd" fill="#75272C" cx="84.2" cy="60.8" rx="5.7" ry="5.8"/>
	<radialGradient id="SVGID_15_" cx="120.9982" cy="53.581" r="5.363" gradientUnits="userSpaceOnUse">
		<stop  offset="1.711450e-002" style="stop-color:#FFC710"/>
		<stop  offset="0.7682" style="stop-color:#FF7700"/>
		<stop  offset="1" style="stop-color:#AE4B00"/>
	</radialGradient>
	<path fill-rule="evenodd" clip-rule="evenodd" fill="url(#SVGID_15_)" d="M125.1,49.4c0,3.6-1.3,6.6-3.2,7.9c0,0,0,0,0,0
		c-1.4-0.3-2.5-1-3.3-2c-1.6-1.9-2.3-4.8-2.3-7.8c0-0.7,0.1-1.4,0.1-2c0.3-1.9,0.8-3.3,1.6-4.2c0.6-0.4,1.2-0.6,1.9-0.6
		C122.7,40.8,125.1,44.6,125.1,49.4z"/>
	<path fill-rule="evenodd" clip-rule="evenodd" fill="#75272C" d="M122.5,49.6c0,3.2-1.6,5.8-3.5,5.8c-0.1,0-0.3,0-0.4,0
		c-1.6-1.9-2.3-4.8-2.3-7.8c0-0.7,0.1-1.4,0.1-2c0.6-1.1,1.6-1.9,2.6-1.9C121,43.7,122.5,46.3,122.5,49.6z"/>
	<path fill-rule="evenodd" clip-rule="evenodd" fill="#BD4C3A" d="M97.2,57.4c0,0,1.8,3.7,1.3,5.9s-4.3,5-4.3,5S97.7,64.8,97.2,57.4
		z"/>
	<path fill-rule="evenodd" clip-rule="evenodd" fill="#BD4C3A" d="M76.8,67.5c0,0,2.3,4.3,9.3,4.5c7,0.2,9.9-6.2,9.9-6.2
		s-2.9,5.1-9.5,5.6C80,71.9,76.8,67.5,76.8,67.5z"/>
	<path fill-rule="evenodd" clip-rule="evenodd" fill="#FFFFFF" d="M77.8,67.8c0,0,0.6-2.4,3.3-3.9c0,0,2.2,0.7,5.2,0.7L86.2,71
		C86.2,71,82,71.3,77.8,67.8z"/>
	<path fill-rule="evenodd" clip-rule="evenodd" fill="#75272C" d="M117,52.5c0,0-1.7-7.5,1.4-11.3c3.1-3.8,7.5,1,8.3,4.2
		c0,0-2-6.2-5.2-7.3C121.4,38.1,113.7,39.1,117,52.5z"/>
	<path fill-rule="evenodd" clip-rule="evenodd" fill="#BD4C3A" d="M118.6,55.3c0,0,3.6,2.9,7.1,0.7c3.4-2.2,3.8-5.8,3.8-5.8
		s-0.1,5.3-4,7.2C121.4,59.3,118.6,55.3,118.6,55.3z"/>
	<path fill-rule="evenodd" clip-rule="evenodd" fill="#FFFFFF" d="M117.5,43.5l1.9,4.6c0,0,3.6-3.1,6.8-3.2c0,0-1.4-3.3-4.1-4.1
		C119.5,40,117.5,43.5,117.5,43.5z"/>
	<path fill-rule="evenodd" clip-rule="evenodd" fill="#FFFFFF" d="M124.6,56l-4-2.8l0.8-2.5l5.2-0.5C126.6,50.2,127.7,52.7,124.6,56
		z"/>
	<radialGradient id="SVGID_16_" cx="117.2613" cy="63.9944" r="6.9825" gradientUnits="userSpaceOnUse">
		<stop  offset="1.711450e-002" style="stop-color:#9A4327"/>
		<stop  offset="0.9469" style="stop-color:#8B3B30"/>
	</radialGradient>
	<path fill-rule="evenodd" clip-rule="evenodd" fill="url(#SVGID_16_)" d="M108.6,65c0,0-1-0.9-0.7-2c0,0,11.5,0.1,18.7-2
		c0,0-1,3.4-3.6,5.7l-2.3,0.3c0,0-3.9-2.8-10.2-1.4L108.6,65z"/>
	<path fill-rule="evenodd" clip-rule="evenodd" fill="#FF9F30" d="M107.8,63.1l-2-1.3c0,0,3.1-7.1,12.6-6.3c0,0,6.3,3.6,8.1,5.6
		C126.5,61.1,118,63.9,107.8,63.1z"/>
	<radialGradient id="SVGID_17_" cx="113.8931" cy="71.3897" r="7.6896" gradientUnits="userSpaceOnUse">
		<stop  offset="1.711450e-002" style="stop-color:#9A4327"/>
		<stop  offset="0.9469" style="stop-color:#8B3B30"/>
	</radialGradient>
	<path fill-rule="evenodd" clip-rule="evenodd" fill="url(#SVGID_17_)" d="M124.6,70.8c0,0-0.9-0.7-4.4,0c-3.4,0.7-5.6,2.1-9.5,2.2
		c-3.9,0-6.9-3.6-6.9-3.6l-0.6,0.3c0,0,3.2,3.3,7.6,3.7c4.4,0.4,9.8-2.1,12.3-1.7L124.6,70.8z"/>
	<path fill-rule="evenodd" clip-rule="evenodd" fill="#BD4C3A" d="M106,67.4c0,0-3.8,0.4-4,4C102,71.4,104.9,68,106,67.4z"/>
	<radialGradient id="SVGID_18_" cx="48.7226" cy="26.1374" r="9.6433" gradientUnits="userSpaceOnUse">
		<stop  offset="1.711450e-002" style="stop-color:#FFC772"/>
		<stop  offset="1" style="stop-color:#FF9D48"/>
	</radialGradient>
	<path fill-rule="evenodd" clip-rule="evenodd" fill="url(#SVGID_18_)" d="M57.9,26.6c0,0-4.9-11.5-12-10.5
		c-5.6,0.8-6.9,4.4-6.1,8.8c0.6,3.6,2.8,9.8,6.9,11c4,1.2,7.6-1.2,7.6-1.2S56.7,28.5,57.9,26.6z"/>
	<radialGradient id="SVGID_19_" cx="118.8732" cy="13.4794" r="7.5657" gradientUnits="userSpaceOnUse">
		<stop  offset="1.711450e-002" style="stop-color:#FFC772"/>
		<stop  offset="1" style="stop-color:#FF9D48"/>
	</radialGradient>
	<path fill-rule="evenodd" clip-rule="evenodd" fill="url(#SVGID_19_)" d="M113.8,16.5c0,0,2.3-12.7,5.6-12.4c3.3,0.3,5,9,4.5,13.5
		c-0.5,4.5-3.5,5.4-5.6,5.4C118.2,22.9,115.3,18.1,113.8,16.5z"/>
	<linearGradient id="SVGID_20_" gradientUnits="userSpaceOnUse" x1="77.9591" y1="87.5981" x2="77.9591" y2="19.2227">
		<stop  offset="1.711450e-002" style="stop-color:#E08893"/>
		<stop  offset="1" style="stop-color:#FFF2EF"/>
	</linearGradient>
	<path display="none" opacity="0.6" fill-rule="evenodd" clip-rule="evenodd" fill="url(#SVGID_20_)" d="M116.1,79.8
		c-0.3-0.1-6.4-2-12.7-1.5c0,0-16,7.2-29.3,9.1c-13.3,1.8-28.3-11.7-28.3-11.7l-6.1,2.4C40,78,43.3,74.5,46,67.8
		c0.7-1.9,1.4-4,2-6.3c2.5-11.1,4.9-33.3,15.2-42.2c-0.2,0.5-9.7,19.5-5.3,41.6c4.5,22.4,24.7,20.4,33.6,18.3
		c8.9-2.1,10.5-3.9,10.5-3.9S113.5,77.5,116.1,79.8z"/>
	<linearGradient id="SVGID_21_" gradientUnits="userSpaceOnUse" x1="128.9622" y1="69.8923" x2="128.9622" y2="60.9936">
		<stop  offset="1.711450e-002" style="stop-color:#E08893"/>
		<stop  offset="1" style="stop-color:#FFF2EF"/>
	</linearGradient>
	<path opacity="0.6" fill-rule="evenodd" clip-rule="evenodd" fill="url(#SVGID_21_)" d="M132,63.5c-1.8,2.4-3.8,4.8-6,6.4
		c2.7-4.2,0.7-8.9,0.7-8.9C129.4,61.3,131.2,62.7,132,63.5z"/>
	<radialGradient id="SVGID_22_" cx="50.1412" cy="37.2357" r="9.832" gradientUnits="userSpaceOnUse">
		<stop  offset="1.711450e-002" style="stop-color:#FFC772"/>
		<stop  offset="1" style="stop-color:#FFC381"/>
	</radialGradient>
	<path fill-rule="evenodd" clip-rule="evenodd" fill="url(#SVGID_22_)" d="M57.9,26.6c0,0-12.9-2.8-16.4,11.6c0,0,3.2-4.6,9.3-7.2
		c0,0-5,7.9-2,17.2c0,0,1.8-8.6,8-13.1C56.7,35,60.5,31.1,57.9,26.6z"/>
	<radialGradient id="SVGID_23_" cx="118.871" cy="20.1416" r="5.5765" gradientUnits="userSpaceOnUse">
		<stop  offset="1.711450e-002" style="stop-color:#FFC772"/>
		<stop  offset="1" style="stop-color:#FFC381"/>
	</radialGradient>
	<path fill-rule="evenodd" clip-rule="evenodd" fill="url(#SVGID_23_)" d="M112.7,15.3c0,0,9.4,1.6,12.4,9.7c0,0-4.9-4.8-8.6-4.9
		L112.7,15.3z"/>
	<linearGradient id="SVGID_24_" gradientUnits="userSpaceOnUse" x1="82.952" y1="114.6555" x2="103.6091" y2="114.6555">
		<stop  offset="1.711450e-002" style="stop-color:#E08893"/>
		<stop  offset="1" style="stop-color:#FFF2EF"/>
	</linearGradient>
	<path opacity="0.6" fill-rule="evenodd" clip-rule="evenodd" fill="url(#SVGID_24_)" d="M103.6,105.2c-1.8,3.5-4.1,7.3-7,10.6
		c-3.1,3.6-7.9,6.3-12.8,8.3c-0.8-3.5-0.8-10.7-0.8-10.7s5.1,4.8,11.2,1.1C99.9,111,103.2,105.8,103.6,105.2z"/>
	<linearGradient id="SVGID_25_" gradientUnits="userSpaceOnUse" x1="47.9602" y1="145.4685" x2="67.8498" y2="145.4685">
		<stop  offset="1.711450e-002" style="stop-color:#AC6393"/>
		<stop  offset="1" style="stop-color:#FFF2EF"/>
	</linearGradient>
	<path opacity="0.6" fill-rule="evenodd" clip-rule="evenodd" fill="url(#SVGID_25_)" d="M67.8,146.8c-0.1,2.5-2.8,5.9-2.8,5.9
		s-8.6,1-10.1-0.4c-1.5-1.4-6.8-12.5-7-14.5c0,0,3.1,6.3,7.8,8.9C60.5,149.2,67.6,146.9,67.8,146.8z"/>
	<linearGradient id="SVGID_26_" gradientUnits="userSpaceOnUse" x1="66.6529" y1="145.4675" x2="67.8601" y2="145.4675">
		<stop  offset="1.711450e-002" style="stop-color:#E08893"/>
		<stop  offset="1" style="stop-color:#FFF2EF"/>
	</linearGradient>
	<path opacity="0.6" fill-rule="evenodd" clip-rule="evenodd" fill="url(#SVGID_26_)" d="M67.7,145.8c0.1,0.3,0.2,0.7,0.2,1
		l-1.2-2.6C67.1,144.7,67.5,145.3,67.7,145.8z"/>
	<linearGradient id="SVGID_27_" gradientUnits="userSpaceOnUse" x1="56.8497" y1="134.4684" x2="96.7135" y2="134.4684">
		<stop  offset="1.711450e-002" style="stop-color:#AC6393"/>
		<stop  offset="1" style="stop-color:#FFF2EF"/>
	</linearGradient>
	<path opacity="0.6" fill-rule="evenodd" clip-rule="evenodd" fill="url(#SVGID_27_)" d="M94.9,153.9c0,0-6,0.9-8.4,0
		c-2.4-0.9-17.2-13.6-18.4-17.1c-1.2-3.5-1.1-9.1-1.1-9.1c-0.5,4.2-2.2,7.5-3.6,9.5c0,0,3.6-9.5,0.8-14.9c-2.8-5.4-7.4-7.6-7.4-7.6
		h10.7c0,0-1,5.2,0,11.4c1,6.2,9.2,18.2,15.4,20.4s13.6,0,13.6,0C97.2,149,94.9,153.9,94.9,153.9z"/>
	<path fill-rule="evenodd" clip-rule="evenodd" fill="#BD4C3A" d="M87.6,154.2c0,0,0.7-2.6,0.6-4.1c-0.1-1.5-1.2-2.7-1.2-2.7
		s1.7,1.2,2,2.9c0.3,1.7-0.8,3.9-0.8,3.9L87.6,154.2z"/>
	<path fill-rule="evenodd" clip-rule="evenodd" fill="#BD4C3A" d="M93.8,154c0,0,1.2-4.9,0.8-5.9c-0.4-1-0.8-1.3-0.8-1.3
		s1,0,1.4,1.5c0.4,1.5-1.2,5.7-1.2,5.7H93.8z"/>
	<path fill-rule="evenodd" clip-rule="evenodd" fill="#FF9F30" d="M50.8,140.1c0,0,1.3,4.4,7.1,6.7c5.8,2.3,10,0,10,0
		s0.8-1.2-6.2-7.4C61.7,139.4,56.5,142.3,50.8,140.1z"/>
	<path fill-rule="evenodd" clip-rule="evenodd" fill="#BD4C3A" d="M57.3,153c0,0,2-3,2-4.9c0-1.9-1-3.6-1-3.6s1.8,2.2,1.7,4.3
		c-0.1,2-2.1,4.3-2.1,4.3H57.3z"/>
	<path fill-rule="evenodd" clip-rule="evenodd" fill="#BD4C3A" d="M63.6,152.9c0,0,1.4-2,2-4.1c0.5-2.1-0.3-3.7-0.3-3.7
		s1.1,1.8,0.7,3.8c-0.3,2-2.1,4-2.1,4L63.6,152.9z"/>
	<path fill-rule="evenodd" clip-rule="evenodd" fill="#FF9F30" d="M96.5,146.1c0,0-3,0.9-6.7,1c-3.7,0.1-7.4-1.5-7.4-1.5
		s4-3.3,8.5-3.1C90.9,142.5,96.3,143.8,96.5,146.1z"/>
	<path opacity="0.8" fill-rule="evenodd" clip-rule="evenodd" fill="#CE777C" d="M43.8,108.8c0,0,0.8,15.8,6.8,26.3
		c0,0-2.4,0.1-2.6,2.8c0,0-0.5-2,0.8-3.8C48.8,134,43,123.7,43.8,108.8z"/>
	<path opacity="0.8" fill-rule="evenodd" clip-rule="evenodd" fill="#CE777C" d="M45.9,99.6l-1.8,6.8c0,0-17,1.4-28.2-13.6
		c-5.8-7.7-6.6-15.3-6.2-21.4C9.4,80.9,13.7,94.3,26,99.7C38.3,105,45.9,99.6,45.9,99.6z"/>
	<path fill-rule="evenodd" clip-rule="evenodd" fill="#9D3D3A" d="M89.9,83.5c0,0,9.1-3.5,12.4-5.4c3.3-1.8,13.8,1.6,13.8,1.6
		s-8.3-1.9-12.7-0.7C99,80.3,89.9,83.5,89.9,83.5z"/>
	<circle fill-rule="evenodd" clip-rule="evenodd" fill="#FFFFFF" cx="91.6" cy="56.7" r="1.9"/>
	<circle fill-rule="evenodd" clip-rule="evenodd" fill="#FFFFFF" cx="123.7" cy="44.9" r="0.9"/>
	<linearGradient id="SVGID_28_" gradientUnits="userSpaceOnUse" x1="121.3746" y1="59.1706" x2="121.3746" y2="10.8447">
		<stop  offset="1.711450e-002" style="stop-color:#E08893"/>
		<stop  offset="1" style="stop-color:#FFF2EF"/>
	</linearGradient>
	<path display="none" opacity="0.6" fill-rule="evenodd" clip-rule="evenodd" fill="url(#SVGID_28_)" d="M136.9,49.1
		c0,0-3.1,10.7-8.8,10.1c-5.7-0.6-9.9-4-9.9-4c-5.3-14.3-3.5-33.1-3.5-33.1c-1.9-7-8.3-11-8.7-11.2c1.5,0.7,2.9,1.4,4,2.1
		c6.7,4.4,11.7,16.3,14.7,23C126.5,40.1,132.6,45.6,136.9,49.1z"/>
	<path fill-rule="evenodd" clip-rule="evenodd" fill="#75272C" d="M107.8,63.1c0,0,5.6,0.9,12,0.1c6.3-0.7,7-2.3,7-2.3
		S119.6,63.1,107.8,63.1z"/>
	<path fill-rule="evenodd" clip-rule="evenodd" fill="#9D3D3A" d="M56.7,35c0,0-4.7,18.5-8.3,24.3c0,0,1.5-8.5,2.8-13.8
		s1.6-6.5,1.6-6.5S54.6,35.9,56.7,35z"/>
	<path fill-rule="evenodd" clip-rule="evenodd" fill="#FF9F30" d="M72.2,33.4c0,0,4.1-5.2,9.9-4.2c5.8,1,11.4,7.1,11.4,7.1
		s-4-8.9-10.4-10.5C76.7,24.1,72.2,33.4,72.2,33.4z"/>
	<path fill-rule="evenodd" clip-rule="evenodd" fill="#75272C" d="M83.8,124.1c0,0,9.6-3.3,16.1-12.7c0,0-3.2,9.2-15.8,14.3
		L83.8,124.1z"/>
	<path fill-rule="evenodd" clip-rule="evenodd" fill="#75272C" d="M61.8,118.6c0,0,5.2,4.2,5,10.9l0.3-1.9c0,0-1-5.3-0.5-8.7
		C66.6,119,63.7,119.1,61.8,118.6z"/>
	<path fill-rule="evenodd" clip-rule="evenodd" fill="#FFC763" d="M49.6,116.6c0,0-1.9,8.7,1,14.1c2.9,5.4,13.7,3.7,13.7,3.7
		s2-5.6,0.5-11c-1.5-5.3-8-8.8-8-8.8S51.8,113.9,49.6,116.6z"/>
	<path fill-rule="evenodd" clip-rule="evenodd" fill="#FFC763" d="M70.1,16.8c0,0,11.8,7.7,24.7,8.2c13,0.5,16-9.7,16-9.7
		S102,7.4,90.9,6.8S70.1,16.8,70.1,16.8z"/>
	<path fill-rule="evenodd" clip-rule="evenodd" fill="#FFC763" d="M4.7,44.4c0,0,5.9,14.7,13,16.5c7.2,1.8,8.3-3.3,8.3-3.3
		S24.4,47.3,20.3,43s-7.3-6.7-7.3-6.7S3.9,35.8,4.7,44.4z"/>
	<path fill-rule="evenodd" clip-rule="evenodd" fill="#75272C" d="M110.7,65.6c0,0,5.5-2.4,10.2,1.4C120.9,67,116.3,64.2,110.7,65.6
		z"/>
	<path fill-rule="evenodd" clip-rule="evenodd" fill="#FFFFFF" d="M110.1,63c0,0,4.5-1.8,5.7-0.2C115.8,62.8,111.9,63.9,110.1,63z"
		/>
	<path fill-rule="evenodd" clip-rule="evenodd" fill="#FFFFFF" d="M123,66.3c0,0-0.1-4.5,2.7-4.1C125.7,62.3,124.9,64.7,123,66.3z"
		/>
</g>
</svg>
