<?xml version="1.0" encoding="utf-8"?>
<!-- Generator: Adobe Illustrator 17.1.0, SVG Export Plug-In . SVG Version: 6.00 Build 0)  -->
<!DOCTYPE svg PUBLIC "-//W3C//DTD SVG 1.1//EN" "http://www.w3.org/Graphics/SVG/1.1/DTD/svg11.dtd">
<svg version="1.1" id="Layer_1" xmlns="http://www.w3.org/2000/svg" xmlns:xlink="http://www.w3.org/1999/xlink" x="0px" y="0px"
	 width="794.9px" height="772.1px" viewBox="0 0 794.9 772.1" enable-background="new 0 0 794.9 772.1" xml:space="preserve">
<g>
	<g>
		<path fill="#32324C" d="M748.1,413c11.9,24.1,24.2,49.1,36.3,75.6c38.6,84.3-41.1,95-41.1,95s34.8,57.4,0.8,103.4
			c-34,46-89.7,21.3-89.7,21.3s-15,25-64,28.1c-71,4.5-101.5-24.2-101.5-24.2l-77-13.4c-9,5.5-33.5,25.1-93.2,31.6
			c-70.9,7.7-110.2-15-110.2-15c-13.4,37.3-104.1,30.8-123.2-28.3c-18-55.5,4.4-78.2,7.2-80.8c-41.5,32.9-132.8-56.1-63.3-140.6
			c28.2-34.4,44.3-50.3,54.2-67.5c-35.9,8.8-81.5-34.5-70.6-72.4c14.1-48.8,56.4-29.4,84.1-99.5C133.8,133.3,168,101.5,170,99.7
			c0,0,0,0,0.1-0.1c56.4-62.5,147.8-105.5,255.5-99c91.5,5.6,151.6,57.1,188,95.2c31.4,32.8,50.9,74,58.3,116.1
			c1.5,8.8,3.4,17.5,5.4,26.1c17.4,30.8,51.6,85.4,84.9,101.9C807.3,362.5,793,422.3,748.1,413z"/>
	</g>
	<g>
		<g>
			<g>
				<g>
					<path fill="#FFA378" d="M212.5,375.4c0,0-42.3-41.4-76.1-14.4c-39.9,31.9,1.8,146.7,72.6,134.6L212.5,375.4z"/>
				</g>
			</g>
		</g>
		<circle fill="#FFFFFF" cx="170.4" cy="490.1" r="20.2"/>
		<g>
			<path fill="#F88968" d="M201.2,457.6c-5.7-17.3-21.9-52.8-62-68.7c0,0,42.9,40.4,46.1,71.7c0.4,4.1,3.8,7.3,7.9,7.1l0.9,0
				C199.3,467.5,202.8,462.4,201.2,457.6z"/>
		</g>
	</g>
	<g>
		<g>
			<g>
				<g>
					<path fill="#FFA378" d="M569.6,375.4c0,0,42.3-41.4,76.1-14.4c39.9,31.9-1.8,146.7-72.6,134.6L569.6,375.4z"/>
				</g>
			</g>
		</g>
		<circle fill="#FFFFFF" cx="619.1" cy="490.1" r="20.2"/>
		<g>
			<path fill="#F88968" d="M581,457.6c5.7-17.3,21.9-52.8,62-68.7c0,0-42.9,40.4-46.1,71.7c-0.4,4.1-3.8,7.3-7.9,7.1l-0.9,0
				C582.9,467.5,579.4,462.4,581,457.6z"/>
		</g>
	</g>
	<g>
		<g>
			<path fill="#FFAF82" d="M483.8,620.9l-3,55.5l-3.7,69.5c0,0-13.8,26.2-76.1,26.2c-62.3,0-75.1-17.9-75.1-17.9l-2.5-30.9
				L315,620.9H483.8z"/>
		</g>
		<g>
			<path fill="#F88968" d="M483.8,620.9l-3,55.5c-26,19.5-87.5,57.7-157.4,47L315,620.9H483.8z"/>
		</g>
	</g>
	<path fill="#FFAF82" d="M618.2,331.7c-0.6,6.6-1.3,13.5-1.9,20.4c-14.7,142.8-58.7,323.2-216.2,323.2
		C246.4,675.3,185.8,505,166,365.8c-1.4-10.2-2.6-20-3.7-29.8C148.3,203.7,251,87.2,384,85.7h11.9C494.8,86.9,577.1,151.4,607,239
		c3.7,10.5,6.4,21.3,8.5,32.4C619,290.7,620.1,311,618.2,331.7z"/>
	<g>
		<path fill="#920E08" d="M494,482.1c0,0-1.7,18.8-10,39.4c-9.7,23.9-28.3,50.4-63.5,53.1c-42.8,3.3-74.8-2.8-94.1-35.6
			c-7.8-13.4-13.5-31.2-17-54.6c0,0,3.1,2,8.9,4.7c15.1,7.2,48.5,19.6,91.1,14.2c38.9-4.9,63.4-12.6,75.5-17.3
			C491,483.7,494,482.1,494,482.1z"/>
		<g>
			<path fill="#FFFFFF" d="M482.9,508.4C482.9,508.4,482.9,508.4,482.9,508.4c-0.6,2.6-1.1,4.2-1.1,4.2s0,0,0,0
				c-0.2,0.3-5.7,8.7-30.1,16c-7.5,2.2-16.8,4.4-28.3,6.2c-19,2.9-37,2.1-52,0c-23.1-3.2-39.1-9.5-40.4-10.1c0,0-0.1,0-0.1,0
				c-1-1.3-2-2.9-2.9-4.7c0,0,0,0,0,0c-4.4-8.6-8.1-22.4-9.8-30.9c15.1,7.2,48.5,19.6,91.1,14.2c38.9-4.9,63.4-12.6,75.5-17.3
				C485.5,494.9,484,503.5,482.9,508.4z"/>
			<path fill="#FFFFFF" d="M515.7,485.4c-31.3,1.8-32.7,3.2-34.5,34.5c-1.8-31.3-3.2-32.7-34.5-34.5c31.3-1.8,32.7-3.2,34.5-34.5
				C483,482.2,484.4,483.6,515.7,485.4z"/>
			<path fill="#FFFFFF" d="M484,521.5c-9.7,23.9-28.3,50.4-63.5,53.1c-42.8,3.3-74.8-2.8-94.1-35.6c0.9-4.9,2.4-9,3.4-11.5
				c0.7-1.7,1.2-2.7,1.2-2.7c0,0,0.1,0,0.1,0c25.1,6.7,49.1,8,70.3,6.8c22.6-1.4,41.9-5.7,56-9.9c15.2-4.5,24.2-8.9,24.5-9
				c0,0,0,0,0,0l0.8,3.5L484,521.5z"/>
			<path fill="#E2E2E2" d="M416,532.2c0,0-20.7,3.5-44.5,2.7c-14-0.5-29-2.4-41.7-7.4c0.7-1.7,1.2-2.7,1.2-2.7c-1-1.3-2-2.9-2.9-4.7
				c0.7,0.3,24.5,8.6,73.3,11.5C406,531.8,410.9,532,416,532.2z"/>
			<path fill="#E2E2E2" d="M481.9,512.6l0.8,3.5c-8.6,7.3-20.4,10.9-30.9,12.6c-13,2.2-27.8,2.7-27.8,2.7
				c10.4-1.5,24.6-6.1,33.4-9.7c14.5-6,25-12.9,25.5-13.2C482.3,511,481.9,512.6,481.9,512.6z"/>
		</g>
	</g>
	<g>
		<g>
			<g>
				<path fill="#32324C" d="M303.5,391.3c-14.1,2-27.2-7.8-29.2-21.9c-0.7-5,0.1-9.8,2-14.1c-21.1-2.5-20.7-15.3-20.7-15.3
					c3.3,5.5,28,2.3,38.2,0.7h0.1c1.3-0.2,2.3-0.4,3-0.5c0,0,0.1,0,0.1,0c0.4-0.1,0.8-0.1,1.2-0.1c13.3-0.9,25.2,8.7,27.1,22.1
					C327.4,376.2,317.6,389.3,303.5,391.3z"/>
			</g>
		</g>
	</g>
	<g>
		<path fill="#F88968" d="M391.6,604.8c-20.7-2.3-35.5-10.6-36.6-11.3c-3-1.7-4-5.5-2.3-8.5c1.7-3,5.5-4,8.5-2.3
			c1.8,1,41.9,23.3,80.5-1.4c2.9-1.9,6.7-1,8.6,1.9c1.8,2.9,1,6.7-1.9,8.6C428.4,604.6,408.2,606.6,391.6,604.8z"/>
	</g>
	<g>
		<path fill="#F88968" d="M417,469.9h-30.5c-3.5,0-6.3-2.8-6.3-6.3c0-3.5,2.8-6.3,6.3-6.3H417c0.6,0,0.9-0.3,1.1-0.6
			c0.2-0.3,0.4-0.7,0.2-1.2l-25.3-86.7c-1-3.3,0.9-6.8,4.3-7.8c3.3-1,6.8,0.9,7.8,4.3l25.3,86.7c1.2,4.3,0.4,8.7-2.2,12.3
			C425.5,467.8,421.5,469.9,417,469.9z"/>
	</g>
	<path fill="#32324C" d="M336.8,280.4L336.8,280.4c0.8,7-4.5,13.2-11.5,13.4c-23.6,0.7-72.7,5.1-96.6,30.3c0,0,7.9-43.6,94.7-54.3
		C330,269.1,336.1,273.8,336.8,280.4z"/>
	<path fill="#32324C" d="M459.4,277.8L459.4,277.8c-0.6,7,4.9,13.1,11.9,13.1c23.6,0,72.9,3,97.4,27.5c0,0-9.1-43.3-96.2-51.5
		C465.9,266.3,460,271.2,459.4,277.8z"/>
	<path fill="#32324C" d="M591.4,269.6c-59-5-211.2-51.9-349.6-102c0,0,12.1,141.5-70.1,212.8c0,0-1-6.6-5.7-14.7
		c-1.4-10.2-2.6-20-3.7-29.8C148.3,203.7,251,87.2,384,85.7h11.9C494.8,86.9,577.1,151.4,607,239c3.7,10.5,6.4,21.3,8.5,32.4
		C615.5,271.4,606.8,271,591.4,269.6z"/>
	<path fill="#32324C" d="M618.2,331.7c-0.6,6.6-1.3,13.5-1.9,20.4c-18.5-10.6-23.6-54.7-24.8-82.4c-0.7-13.6-0.5-23.2-0.5-23.2
		s1-4.8,16-7.4c3.7,10.5,6.4,21.3,8.5,32.4C619,290.7,620.1,311,618.2,331.7z"/>
	<path fill="#32324C" d="M456.9,379.4c0,0,10.6-32.9,40.3-36.9c29.7-3.9,46.2,26.5,46.2,26.5S499.3,337.9,456.9,379.4z"/>
</g>
</svg>
