<?xml version="1.0" encoding="utf-8"?>
<!-- Generator: Adobe Illustrator 17.1.0, SVG Export Plug-In . SVG Version: 6.00 Build 0)  -->
<!DOCTYPE svg PUBLIC "-//W3C//DTD SVG 1.1//EN" "http://www.w3.org/Graphics/SVG/1.1/DTD/svg11.dtd">
<svg version="1.1" id="Layer_1" xmlns="http://www.w3.org/2000/svg" xmlns:xlink="http://www.w3.org/1999/xlink" x="0px" y="0px"
	 width="687.3px" height="675.6px" viewBox="0 0 687.3 675.6" enable-background="new 0 0 687.3 675.6" xml:space="preserve">
<g>
	<g>
		<path fill="#32324C" d="M647.4,338.8c7,20.5,14.2,41.7,21,64.2c21.9,71.6-47.1,80.7-47.1,80.7s22.1,48.8-12.7,87.8
			c-34.8,39-78.9,18.1-78.9,18.1s-16,21.2-57.9,23.9c-60.8,3.8-83-20.6-83-20.6l-63.6-11.4c-8.4,4.7-14.9,35.8-82.1,43.6
			c-61.1,7.1-92.6-29.5-92.6-29.5c-16.2,31.7-92.3,26.1-100.9-24.1c-8.1-47.1,13.8-66.4,16.5-68.6c-39.5,28-105.4-47.7-35.6-119.4
			c28.4-29.2,44.1-42.8,54.7-57.4c-31.6,7.5-64.7-29.3-50.6-61.5c18.2-41.5,51.6-25,84.2-84.5c43.3-79.1,76.5-106,78.4-107.6
			c0,0,0,0,0.1-0.1c55.9-53.1,138.6-77.3,229-71.7C503.4,5.5,548.3,37,574.2,69.3c22.4,27.9,33.7,62.8,34.4,98.6
			c0.2,7.5,0.6,14.9,1.3,22.2c10.8,26.1,32.8,72.5,58.8,86.6C704.2,295.9,684.4,346.7,647.4,338.8z"/>
	</g>
	<g>
		<g>
			<g>
				<g>
					<path fill="#F88968" d="M538.7,287.6c0,0,39.9-45.5,72.4-6c28.6,34.8,10.8,126.8-58.9,124.3L538.7,287.6z"/>
				</g>
			</g>
			<circle fill="#FFFFFF" cx="584.3" cy="400.2" r="16.7"/>
			<g>
				<g>
					<path fill="#FFAF82" d="M466.9,635.3c-3.5,41.7-89.8,66.3-138.8-4.6l-5.2-91.5l-3.8-67.2l157.5,30.6l-7.8,106L466.9,635.3z"/>
				</g>
				<g>
					<path fill="#F88968" d="M468,621.4c-53.8,0.7-113.8-36.3-143.9-61.9l-4.9-87.4l157.5,30.6L468,621.4z"/>
				</g>
			</g>
			<g>
				<path fill="#FFAF82" d="M407,551.8c-166.2-38-196.4-255.9-196.4-255.9s-0.5-14.6,2.2-35.8c1.5-11.7,4-25.4,8.1-39.7
					c11.9-41.9,37.5-89.6,92.2-110.4c1.7-0.7,3.4-1.3,5.2-1.9c90.7-32.1,223.2-17.1,263.5,102.9c2.4,7.1,4.4,14.9,6.1,23.2
					c1,4.7,1.8,9.6,2.5,14.7C608.5,372.7,556.4,586,407,551.8z"/>
			</g>
			<g>
				<path fill="#FFAF82" d="M239.1,300.3c0,0-59.7-32.7-78.8,21.6c-16.8,47.8,37.5,138.1,110.1,108.5L239.1,300.3z"/>
			</g>
			<g>
				<g>
					<path fill="#920E08" d="M516.8,435.9c-3,6.8-7.2,13.5-12.7,19.4c-11.2,11.9-28.4,20.6-54.6,20.5c-22-0.1-39.2-12.2-52-26.8
						c-8.7-9.9-15.3-20.9-19.9-30c-5.6-11-8.3-19.1-8.3-19.1s105.3-3.3,155.8-10.7c0,0,0,0,0,0c0,0.5,0.6,9.1-1,20.7
						C523,417.7,520.8,426.9,516.8,435.9z"/>
				</g>
				<g>
					<path fill="#FFFFFF" d="M524.1,409.9c-48,9.3-125.8,8.6-146.4,9.1c-5.6-11-8.3-19.1-8.3-19.1s105.3-3.3,155.8-10.7c0,0,0,0,0,0
						C525.1,389.7,525.7,398.3,524.1,409.9z"/>
				</g>
			</g>
			<g>
				<path fill="#F88968" d="M242.9,390.9c-5.2-15.7-19.9-48-56.4-62.5c0,0,39,36.8,41.9,65.2c0.4,3.7,3.4,6.6,7.2,6.5l0.9,0
					C241.1,400,244.3,395.4,242.9,390.9z"/>
			</g>
			<g>
				<g>
					<path fill="#F85C66" d="M504.1,455.3c-11.2,11.9-28.4,20.6-54.6,20.5c-22-0.1-39.2-12.2-52-26.8c7-4,26.4-12.3,54-3.1
						c0,0,9.8-5.9,27-3.9C488.6,443.1,497.6,446.4,504.1,455.3z"/>
				</g>
			</g>
			<g>
				<path fill="#F88968" d="M440.6,501.3c-16-3.1-27-10.5-27.8-11.1c-2.2-1.5-2.8-4.5-1.3-6.7c1.5-2.2,4.5-2.8,6.7-1.3
					c1.3,0.9,31.2,20.8,62.8,4c2.4-1.3,5.3-0.4,6.6,2c1.3,2.4,0.4,5.3-2,6.6C469.3,503.5,453.4,503.7,440.6,501.3z"/>
			</g>
			<g>
				<path fill="#F88968" d="M458.9,373.6h-25.2c-2.9,0-5.2-2.3-5.2-5.2c0-2.9,2.3-5.2,5.2-5.2h25.2c0.5,0,0.8-0.3,0.9-0.5
					c0.2-0.2,0.3-0.6,0.2-1l-21-71.7c-0.8-2.7,0.8-5.6,3.5-6.4c2.7-0.8,5.6,0.8,6.4,3.5l21,71.7c1,3.5,0.4,7.2-1.8,10.2
					C466,371.9,462.6,373.6,458.9,373.6z"/>
			</g>
			<path fill="#32324C" d="M379.6,217.8c2.2,5.4-0.8,11.5-6.4,13.2c-18.7,5.5-57.1,19.5-70.8,44.7c0,0-2.9-36.5,64.2-63.4
				C371.7,210.2,377.5,212.7,379.6,217.8z"/>
			<path fill="#32324C" d="M480,215L480,215c-1.5,5.6,2.2,11.3,7.9,12.3c19.2,3.2,59,12.4,75.7,35.8c0,0-1.5-36.6-71.4-55.2
				C486.9,206.5,481.4,209.7,480,215z"/>
			<path fill="#32324C" d="M327.5,119.5c0,0-8.4,145.9-76.4,204.8c0,0-5.9-38.7-58.8-32.9c0,0-5-9.1-12.8-52.9
				c-7.8-43.9,20.1-225.1,221.1-213.4c0,0,63.9-13,153.3,63.5c89.4,76.5,36.4,160.1,36.4,160.1S441.2,228.1,327.5,119.5z"/>
			<circle fill="#FFFFFF" cx="227.2" cy="437.4" r="16.7"/>
		</g>
	</g>
	<path fill="#32324C" d="M411.7,311.2c0,0-2.6-33.7-28.2-39.9c-28.7-6.9-52,11-56.6,29.4c0,0,28.1-27.2,55.4-17.7
		C403.2,290.2,411.7,311.2,411.7,311.2z"/>
	<path fill="#32324C" d="M478.3,304.3c0,0-2-31.5,21-40.6c25.7-10.1,49.6,3.4,56.3,19.9c0,0-29.5-21.5-53.7-9.2
		C483.5,283.8,478.3,304.3,478.3,304.3z"/>
</g>
</svg>
