<?xml version="1.0" encoding="UTF-8" ?>
<!DOCTYPE svg PUBLIC "-//W3C//DTD SVG 1.1//EN" "http://www.w3.org/Graphics/SVG/1.1/DTD/svg11.dtd">
<svg width="732pt" height="702pt" viewBox="0 0 732 702" version="1.1" xmlns="http://www.w3.org/2000/svg">
<g id="#070606ff">
<path fill="#070606" opacity="1.00" d=" M 92.47 50.61 C 105.00 46.61 118.42 50.63 129.76 56.29 C 142.07 62.69 152.84 71.70 162.57 81.51 C 185.56 105.13 204.04 133.02 217.21 163.21 C 228.43 163.30 239.66 163.32 250.89 163.21 C 259.12 144.56 269.04 126.61 281.23 110.25 C 291.98 95.84 303.67 81.97 317.50 70.39 C 329.48 60.45 343.29 51.71 358.97 49.46 C 369.68 47.53 381.53 50.87 388.74 59.26 C 400.47 72.18 403.22 90.28 404.97 107.00 C 407.48 143.95 406.50 181.19 401.54 217.91 C 399.80 235.15 408.60 250.88 412.89 267.10 C 418.87 286.53 421.74 306.77 423.37 326.99 C 423.65 333.55 423.55 340.12 423.10 346.67 C 428.10 349.34 432.99 353.37 438.92 353.29 C 446.77 351.58 453.88 347.52 461.61 345.40 C 482.78 339.29 505.21 336.40 527.13 339.50 C 543.03 341.39 558.55 346.55 572.33 354.70 C 586.22 362.91 598.11 374.22 607.76 387.11 C 621.55 405.05 634.56 424.51 639.72 446.88 C 641.55 455.95 642.79 465.93 638.76 474.60 C 635.81 481.05 628.89 485.30 621.76 484.69 C 617.46 513.71 606.92 541.34 594.80 567.91 C 589.45 579.79 584.61 592.74 574.20 601.24 C 566.30 607.72 555.85 609.43 545.96 610.19 C 537.48 610.53 528.81 610.92 520.55 608.57 C 508.47 605.54 500.95 591.87 504.11 579.94 C 498.80 580.51 493.46 580.65 488.13 580.92 C 487.49 588.24 484.12 595.66 477.81 599.76 C 470.32 605.00 460.72 604.61 452.00 604.50 C 443.99 604.39 435.04 604.58 428.44 599.30 C 422.33 594.63 419.91 586.81 419.02 579.47 C 415.06 579.31 411.09 579.14 407.13 579.01 C 406.69 588.41 406.48 597.95 404.16 607.12 C 402.55 613.58 398.08 619.26 392.04 622.13 C 384.99 625.94 376.83 626.76 368.97 627.25 C 357.29 627.80 345.46 627.11 334.10 624.24 C 328.23 622.82 323.00 618.84 320.89 613.07 C 316.96 601.15 314.55 588.79 312.90 576.37 C 301.19 576.89 289.43 575.95 278.00 573.39 C 277.80 586.45 277.82 600.40 270.96 612.01 C 266.68 619.38 259.41 625.36 250.84 626.71 C 242.61 628.01 234.31 626.56 226.06 626.38 C 218.69 626.11 210.82 625.78 204.54 621.42 C 199.48 618.05 195.92 612.71 194.07 606.97 C 190.43 597.04 189.69 586.40 188.60 575.97 C 187.22 565.67 186.73 555.27 186.59 544.89 C 186.59 541.54 185.06 538.47 183.28 535.74 C 174.11 520.67 168.37 503.81 164.50 486.68 C 149.20 479.08 136.21 466.97 127.78 452.09 C 116.71 451.88 107.65 444.04 101.65 435.38 C 92.98 422.65 87.68 407.79 85.29 392.63 C 77.12 392.65 71.45 385.83 67.55 379.46 C 57.16 361.93 55.51 340.76 57.29 320.86 C 59.82 292.70 69.36 265.42 69.26 236.97 C 69.59 233.99 68.31 231.27 67.75 228.43 C 66.22 214.31 63.98 200.26 63.18 186.07 C 61.72 163.74 61.31 141.34 62.37 118.99 C 63.12 102.83 64.57 86.21 71.32 71.30 C 75.61 62.27 82.59 53.64 92.47 50.61 M 92.70 60.79 C 87.71 63.21 84.19 67.79 81.63 72.59 C 76.43 83.14 74.29 94.85 72.61 106.39 C 70.56 124.86 71.30 143.47 71.61 162.01 C 71.96 179.43 73.49 196.79 75.33 214.11 C 76.50 222.64 78.50 231.29 77.37 239.90 C 77.24 262.49 71.20 284.42 67.65 306.59 C 64.44 327.57 63.21 350.08 72.13 369.89 C 74.67 374.74 76.95 380.32 81.87 383.24 C 84.52 384.91 87.29 382.22 89.97 382.84 C 91.78 383.43 93.02 385.11 93.10 387.01 C 94.95 402.63 100.18 417.99 109.09 431.01 C 113.20 436.70 118.77 442.33 126.10 443.16 C 128.70 443.58 132.25 442.37 133.82 445.22 C 136.19 449.42 138.66 453.58 141.69 457.36 C 150.79 469.28 163.78 477.31 176.42 484.97 C 176.27 486.48 175.76 487.91 175.09 489.26 C 176.15 493.76 177.07 498.37 178.89 502.63 C 182.10 513.68 187.38 523.98 193.19 533.87 C 196.16 538.71 196.27 544.52 196.32 550.03 C 196.33 556.74 196.85 563.43 197.40 570.12 C 198.69 579.69 199.63 589.33 201.58 598.81 C 202.92 603.94 204.50 609.60 208.97 612.93 C 214.06 617.03 221.03 616.57 227.17 616.83 C 234.40 617.10 241.68 618.24 248.89 617.26 C 255.74 616.39 261.32 611.17 263.89 604.94 C 266.75 597.75 267.85 589.98 268.17 582.29 C 268.37 578.42 268.55 574.55 268.66 570.69 C 260.49 567.95 252.23 564.94 245.07 560.07 C 245.16 558.75 245.17 557.44 245.08 556.14 C 245.95 555.05 246.61 553.60 248.03 553.15 C 250.28 552.09 252.49 553.59 254.43 554.59 C 272.00 563.64 291.97 567.73 311.69 566.91 C 311.21 560.28 310.34 553.64 310.44 546.98 C 311.34 542.50 318.64 542.81 319.66 547.08 C 320.42 552.21 320.09 557.47 321.19 562.56 C 320.90 566.25 322.03 569.95 322.42 573.64 C 323.89 585.38 326.43 596.96 329.29 608.43 C 330.12 612.10 333.50 614.67 337.12 615.20 C 349.48 617.98 362.28 618.40 374.86 617.29 C 380.88 616.59 387.49 615.43 391.75 610.71 C 394.33 607.36 395.39 603.10 395.93 598.98 C 396.84 590.76 397.41 582.52 397.86 574.27 C 398.43 563.16 398.34 552.04 398.22 540.93 C 398.13 537.12 403.41 535.81 406.02 537.91 C 408.16 539.44 407.60 542.36 407.82 544.64 C 407.92 552.93 407.93 561.22 407.60 569.50 C 435.71 570.27 463.83 572.04 491.96 571.17 C 513.58 570.49 535.61 566.45 554.61 555.68 C 556.82 554.08 559.46 555.12 561.34 556.70 C 561.88 558.67 562.81 561.24 560.91 562.78 C 556.56 566.07 551.34 567.97 546.46 570.31 C 536.24 574.35 525.54 576.98 514.72 578.77 C 511.69 585.16 512.94 593.82 519.23 597.75 C 526.08 601.35 534.21 601.48 541.76 600.88 C 550.34 600.25 559.55 599.83 566.93 594.86 C 574.06 590.27 577.79 582.25 581.28 574.84 C 588.03 559.51 595.30 544.37 600.64 528.47 C 609.09 504.63 614.73 479.47 614.29 454.06 C 614.37 452.12 613.96 449.91 615.26 448.28 C 617.54 445.97 622.33 446.35 623.45 449.68 C 624.11 452.23 623.76 454.93 623.94 457.56 C 623.76 463.47 623.45 469.39 622.92 475.29 C 627.87 475.78 630.39 470.53 631.32 466.48 C 632.64 458.03 631.01 449.34 628.11 441.39 C 625.83 433.31 621.54 425.91 617.40 418.65 C 608.11 403.37 598.30 388.10 585.16 375.81 C 570.21 361.74 550.72 353.00 530.58 349.58 C 514.70 347.02 498.31 347.21 482.54 350.42 C 475.20 351.27 468.11 353.61 461.00 355.53 C 453.83 357.46 447.30 361.27 440.10 363.05 C 432.72 364.78 426.99 358.79 420.71 356.10 C 417.95 362.02 412.01 367.27 405.07 366.32 C 398.87 382.80 393.17 399.47 387.13 416.02 C 385.88 419.80 380.13 419.42 378.48 416.11 C 379.88 409.45 382.92 403.30 384.91 396.82 C 389.45 384.32 393.87 371.77 398.37 359.26 C 399.13 356.78 402.26 354.85 404.63 356.56 C 406.21 357.56 408.53 358.89 410.09 357.08 C 413.52 353.26 413.01 347.69 414.16 342.97 C 415.49 324.86 413.04 306.66 409.67 288.88 C 407.92 282.34 406.37 275.67 403.98 269.33 C 400.29 255.49 395.93 241.82 392.59 227.89 C 393.21 201.98 395.55 176.12 396.77 150.23 C 398.75 126.64 397.11 102.43 389.42 79.91 C 387.37 73.58 384.18 67.31 378.91 63.07 C 373.98 59.03 367.19 58.11 361.04 58.82 C 349.95 60.08 339.94 65.65 330.91 71.88 C 316.65 82.11 305.02 95.45 294.08 109.05 C 279.33 127.63 267.32 148.34 258.20 170.23 C 256.02 174.23 250.82 172.42 247.16 172.85 C 235.87 172.88 224.58 172.95 213.29 172.78 C 212.49 172.47 211.68 172.18 210.86 171.93 C 209.90 170.23 209.05 168.48 208.32 166.68 C 195.31 136.26 176.17 108.59 152.83 85.18 C 141.74 74.49 129.03 64.45 113.94 60.33 C 107.15 58.05 99.34 57.80 92.70 60.79 M 428.64 579.83 C 429.30 584.90 431.30 590.38 436.05 592.97 C 441.65 595.65 448.04 594.86 454.06 595.04 C 460.29 595.00 466.98 594.84 472.47 591.53 C 476.21 589.34 478.08 585.12 478.59 580.98 C 461.93 581.12 445.29 580.31 428.64 579.83 Z" />
<path fill="#070606" opacity="1.00" d=" M 167.48 249.67 C 175.41 247.80 184.33 250.00 190.02 255.95 C 196.11 262.27 198.34 271.39 198.34 279.94 C 198.38 283.81 193.24 285.97 190.35 283.51 C 188.03 281.30 189.12 277.77 188.52 274.95 C 187.68 269.92 186.09 264.44 181.76 261.31 C 176.23 256.89 167.72 258.01 162.69 262.68 C 158.52 266.05 157.68 271.60 156.56 276.50 C 155.91 278.61 155.70 281.35 153.47 282.46 C 150.17 284.30 144.83 281.10 146.48 277.11 C 147.88 272.60 148.79 267.93 150.58 263.55 C 153.57 256.54 160.20 251.54 167.48 249.67 Z" />
<path fill="#070606" opacity="1.00" d=" M 278.50 249.67 C 286.97 247.60 296.21 250.54 302.23 256.75 C 307.74 262.40 309.13 270.56 310.93 277.94 C 312.01 282.80 304.30 284.80 302.10 280.81 C 300.36 276.59 300.43 271.79 298.32 267.68 C 295.12 260.18 285.40 256.34 277.99 259.80 C 271.91 262.73 269.17 269.72 268.80 276.10 C 268.42 278.49 269.19 281.40 267.29 283.30 C 264.78 285.60 259.87 284.57 259.22 280.99 C 258.75 274.27 260.04 267.33 263.37 261.42 C 266.39 255.57 272.07 251.14 278.50 249.67 Z" />
<path fill="#070606" opacity="1.00" d=" M 222.21 290.33 C 231.17 290.00 240.15 290.17 249.08 291.00 C 251.99 291.17 255.18 293.04 255.64 296.13 C 255.89 299.69 253.12 302.52 250.54 304.56 C 243.25 309.92 233.95 313.47 224.84 311.64 C 219.30 310.36 214.08 307.87 209.46 304.59 C 206.59 302.41 203.75 298.90 204.76 295.06 C 205.74 292.57 208.45 291.39 210.93 291.06 C 214.67 290.55 218.45 290.53 222.21 290.33 Z" />
<path fill="#070606" opacity="1.00" d=" M 160.91 314.97 C 160.75 310.20 168.34 308.54 170.01 313.15 C 172.23 321.39 178.26 328.44 186.17 331.70 C 194.64 335.26 204.33 334.79 212.93 331.91 C 219.15 329.83 224.70 325.40 227.38 319.32 C 228.28 317.05 231.23 316.99 233.19 317.70 C 235.19 318.78 235.58 321.30 236.88 323.02 C 241.39 329.53 249.27 332.71 256.89 333.74 C 266.00 335.23 276.07 333.40 283.19 327.24 C 287.69 323.64 290.60 318.45 292.25 313.00 C 294.03 308.04 302.65 310.84 301.18 315.95 C 297.90 329.25 286.29 339.76 273.00 342.61 C 263.76 345.08 253.95 343.67 245.04 340.59 C 239.80 338.59 234.93 335.54 231.11 331.41 C 223.40 339.67 211.99 343.19 200.98 343.85 C 189.88 344.23 178.40 340.40 170.50 332.42 C 165.77 327.69 162.00 321.65 160.91 314.97 Z" />
</g>
<g id="#dd8019ff">
<path fill="#dd8019" opacity="1.00" d=" M 92.70 60.79 C 99.34 57.80 107.15 58.05 113.94 60.33 C 122.29 68.58 130.51 77.01 137.26 86.66 C 156.90 112.70 171.20 142.67 179.64 174.16 C 180.16 175.16 180.17 177.62 181.91 177.06 C 191.55 175.42 201.01 172.20 210.86 171.93 C 211.68 172.18 212.49 172.47 213.29 172.78 C 213.58 176.85 214.15 180.90 214.36 184.98 C 215.03 216.53 212.43 248.14 206.58 279.14 C 205.61 284.32 203.77 290.66 197.98 292.19 C 189.64 294.50 180.47 292.65 172.45 296.45 C 162.85 300.79 158.69 312.11 148.69 315.82 C 139.05 319.28 128.22 317.21 119.23 312.81 C 112.88 309.77 108.64 303.71 102.30 300.65 C 96.15 297.73 88.94 295.94 82.27 298.15 C 76.69 299.54 72.09 303.12 67.65 306.59 C 71.20 284.42 77.24 262.49 77.37 239.90 C 78.50 231.29 76.50 222.64 75.33 214.11 C 73.49 196.79 71.96 179.43 71.61 162.01 C 71.30 143.47 70.56 124.86 72.61 106.39 C 74.29 94.85 76.43 83.14 81.63 72.59 C 84.19 67.79 87.71 63.21 92.70 60.79 M 100.37 87.58 C 97.77 89.29 96.11 92.13 94.93 94.95 C 91.27 104.87 89.25 115.35 88.43 125.88 C 86.44 155.66 88.35 185.70 93.74 215.03 C 94.30 218.14 95.32 222.41 99.11 222.78 C 103.09 222.43 106.04 219.33 109.22 217.23 C 114.94 212.64 121.96 210.20 127.97 206.05 C 136.09 200.55 144.74 195.66 151.97 188.97 C 155.40 185.83 154.40 180.73 153.34 176.76 C 145.41 150.25 131.92 125.88 117.76 102.26 C 115.21 98.15 113.03 93.77 109.96 90.02 C 107.71 87.26 103.67 85.74 100.37 87.58 M 167.48 249.67 C 160.20 251.54 153.57 256.54 150.58 263.55 C 148.79 267.93 147.88 272.60 146.48 277.11 C 144.83 281.10 150.17 284.30 153.47 282.46 C 155.70 281.35 155.91 278.61 156.56 276.50 C 157.68 271.60 158.52 266.05 162.69 262.68 C 167.72 258.01 176.23 256.89 181.76 261.31 C 186.09 264.44 187.68 269.92 188.52 274.95 C 189.12 277.77 188.03 281.30 190.35 283.51 C 193.24 285.97 198.38 283.81 198.34 279.94 C 198.34 271.39 196.11 262.27 190.02 255.95 C 184.33 250.00 175.41 247.80 167.48 249.67 Z" />
<path fill="#dd8019" opacity="1.00" d=" M 330.91 71.88 C 339.94 65.65 349.95 60.08 361.04 58.82 C 367.19 58.11 373.98 59.03 378.91 63.07 C 384.18 67.31 387.37 73.58 389.42 79.91 C 397.11 102.43 398.75 126.64 396.77 150.23 C 394.69 152.34 394.75 155.41 394.29 158.13 C 390.69 183.32 379.96 207.33 379.90 233.04 C 379.55 243.92 382.88 254.45 386.29 264.65 C 386.72 266.19 387.70 267.47 388.83 268.59 C 388.62 268.63 388.21 268.71 388.00 268.74 C 381.93 270.16 375.68 271.78 370.56 275.49 C 359.01 283.48 350.19 294.98 337.80 301.81 C 330.34 305.81 321.42 308.64 313.01 306.20 C 303.02 303.51 296.14 294.73 286.23 291.87 C 276.50 289.21 266.34 292.19 256.52 290.51 C 252.46 289.86 250.49 285.92 249.29 282.42 C 236.07 247.59 235.56 208.21 247.16 172.85 C 250.82 172.42 256.02 174.23 258.20 170.23 C 267.32 148.34 279.33 127.63 294.08 109.05 C 305.02 95.45 316.65 82.11 330.91 71.88 M 364.34 87.58 C 356.95 91.06 352.26 98.15 347.67 104.60 C 331.47 128.38 318.59 154.45 309.72 181.83 C 308.81 184.57 308.87 187.85 311.09 189.97 C 321.77 201.89 336.37 210.25 351.99 213.66 C 356.89 214.67 363.20 215.02 366.68 210.71 C 370.35 206.21 370.42 200.10 371.46 194.66 C 377.93 164.26 381.59 133.09 380.01 101.98 C 379.74 97.48 379.34 92.45 376.07 89.00 C 373.02 85.93 368.10 85.91 364.34 87.58 M 278.50 249.67 C 272.07 251.14 266.39 255.57 263.37 261.42 C 260.04 267.33 258.75 274.27 259.22 280.99 C 259.87 284.57 264.78 285.60 267.29 283.30 C 269.19 281.40 268.42 278.49 268.80 276.10 C 269.17 269.72 271.91 262.73 277.99 259.80 C 285.40 256.34 295.12 260.18 298.32 267.68 C 300.43 271.79 300.36 276.59 302.10 280.81 C 304.30 284.80 312.01 282.80 310.93 277.94 C 309.13 270.56 307.74 262.40 302.23 256.75 C 296.21 250.54 286.97 247.60 278.50 249.67 Z" />
<path fill="#dd8019" opacity="1.00" d=" M 461.00 355.53 C 468.11 353.61 475.20 351.27 482.54 350.42 C 489.37 351.55 496.32 351.49 503.15 352.60 C 526.79 355.76 548.97 367.42 565.68 384.32 C 570.75 390.26 576.19 395.97 580.11 402.78 C 589.61 417.84 595.26 435.22 596.70 452.95 C 597.15 459.94 598.32 466.96 597.34 473.97 C 596.33 495.32 591.99 516.38 585.91 536.84 C 581.99 550.38 577.70 563.95 570.81 576.32 C 569.14 576.35 567.48 576.33 565.82 576.28 C 559.04 575.57 552.64 573.06 546.46 570.31 C 551.34 567.97 556.56 566.07 560.91 562.78 C 562.81 561.24 561.88 558.67 561.34 556.70 C 566.07 552.13 570.46 547.14 573.46 541.24 C 564.16 544.14 554.74 546.78 545.04 547.92 C 525.14 550.46 505.06 550.96 485.02 551.46 C 467.69 551.75 450.29 551.70 433.06 549.51 C 424.56 548.47 415.89 547.69 407.82 544.64 C 407.60 542.36 408.16 539.44 406.02 537.91 C 403.41 535.81 398.13 537.12 398.22 540.93 C 398.34 552.04 398.43 563.16 397.86 574.27 C 382.49 581.72 364.85 584.60 347.95 581.95 C 344.03 581.34 340.12 580.69 336.28 579.73 C 331.32 578.56 327.04 575.66 322.42 573.64 C 322.03 569.95 320.90 566.25 321.19 562.56 C 323.48 558.63 321.30 554.20 321.31 550.02 C 320.40 531.56 325.21 513.25 332.49 496.42 C 340.38 477.89 351.13 460.78 361.88 443.82 C 367.64 434.73 373.45 425.62 378.48 416.11 C 380.13 419.42 385.88 419.80 387.13 416.02 C 393.17 399.47 398.87 382.80 405.07 366.32 C 412.01 367.27 417.95 362.02 420.71 356.10 C 426.99 358.79 432.72 364.78 440.10 363.05 C 447.30 361.27 453.83 357.46 461.00 355.53 M 477.41 370.48 C 472.91 371.67 468.76 375.15 468.07 379.93 C 467.77 384.96 472.24 388.54 476.35 390.50 C 487.82 395.57 500.42 398.62 510.48 406.45 C 521.47 415.07 528.94 428.08 542.02 433.98 C 549.53 437.82 558.96 437.49 566.21 433.20 C 569.93 430.94 571.75 426.23 570.73 422.02 C 568.85 413.83 563.61 406.97 558.24 400.72 C 543.15 383.17 520.81 372.89 498.07 370.08 C 491.21 369.55 484.17 368.94 477.41 370.48 Z" />
<path fill="#dd8019" opacity="1.00" d=" M 178.89 502.63 C 189.68 521.68 207.97 534.80 226.65 545.36 C 232.86 548.84 238.71 552.92 245.08 556.14 C 245.17 557.44 245.16 558.75 245.07 560.07 C 244.17 568.55 241.85 576.79 239.89 585.08 L 239.64 585.06 C 231.12 584.57 222.87 582.20 214.85 579.43 C 208.63 577.15 202.66 574.16 197.40 570.12 C 196.85 563.43 196.33 556.74 196.32 550.03 C 196.27 544.52 196.16 538.71 193.19 533.87 C 187.38 523.98 182.10 513.68 178.89 502.63 Z" />
</g>
<g id="#d16e1fff">
<path fill="#d16e1f" opacity="1.00" d=" M 113.94 60.33 C 129.03 64.45 141.74 74.49 152.83 85.18 C 176.17 108.59 195.31 136.26 208.32 166.68 C 209.05 168.48 209.90 170.23 210.86 171.93 C 201.01 172.20 191.55 175.42 181.91 177.06 C 180.17 177.62 180.16 175.16 179.64 174.16 C 171.20 142.67 156.90 112.70 137.26 86.66 C 130.51 77.01 122.29 68.58 113.94 60.33 Z" />
<path fill="#d16e1f" opacity="1.00" d=" M 394.29 158.13 C 394.75 155.41 394.69 152.34 396.77 150.23 C 395.55 176.12 393.21 201.98 392.59 227.89 C 395.93 241.82 400.29 255.49 403.98 269.33 C 399.07 267.90 393.85 267.51 388.83 268.59 C 387.70 267.47 386.72 266.19 386.29 264.65 C 382.88 254.45 379.55 243.92 379.90 233.04 C 379.96 207.33 390.69 183.32 394.29 158.13 Z" />
<path fill="#d16e1f" opacity="1.00" d=" M 482.54 350.42 C 498.31 347.21 514.70 347.02 530.58 349.58 C 550.72 353.00 570.21 361.74 585.16 375.81 C 598.30 388.10 608.11 403.37 617.40 418.65 C 621.54 425.91 625.83 433.31 628.11 441.39 C 627.62 446.80 629.66 454.27 623.94 457.56 C 623.76 454.93 624.11 452.23 623.45 449.68 C 622.33 446.35 617.54 445.97 615.26 448.28 C 613.96 449.91 614.37 452.12 614.29 454.06 C 614.73 479.47 609.09 504.63 600.64 528.47 C 595.30 544.37 588.03 559.51 581.28 574.84 C 577.85 575.67 574.35 576.25 570.81 576.32 C 577.70 563.95 581.99 550.38 585.91 536.84 C 591.99 516.38 596.33 495.32 597.34 473.97 C 598.32 466.96 597.15 459.94 596.70 452.95 C 595.26 435.22 589.61 417.84 580.11 402.78 C 576.19 395.97 570.75 390.26 565.68 384.32 C 548.97 367.42 526.79 355.76 503.15 352.60 C 496.32 351.49 489.37 351.55 482.54 350.42 Z" />
<path fill="#d16e1f" opacity="1.00" d=" M 245.07 560.07 C 252.23 564.94 260.49 567.95 268.66 570.69 C 268.55 574.55 268.37 578.42 268.17 582.29 C 259.03 585.10 249.40 585.91 239.89 585.08 C 241.85 576.79 244.17 568.55 245.07 560.07 Z" />
</g>
<g id="#f2b760ff">
<path fill="#f2b760" opacity="1.00" d=" M 100.37 87.58 C 103.67 85.74 107.71 87.26 109.96 90.02 C 113.03 93.77 115.21 98.15 117.76 102.26 C 131.92 125.88 145.41 150.25 153.34 176.76 C 154.40 180.73 155.40 185.83 151.97 188.97 C 144.74 195.66 136.09 200.55 127.97 206.05 C 121.96 210.20 114.94 212.64 109.22 217.23 C 106.04 219.33 103.09 222.43 99.11 222.78 C 95.32 222.41 94.30 218.14 93.74 215.03 C 88.35 185.70 86.44 155.66 88.43 125.88 C 89.25 115.35 91.27 104.87 94.93 94.95 C 96.11 92.13 97.77 89.29 100.37 87.58 Z" />
<path fill="#f2b760" opacity="1.00" d=" M 364.34 87.58 C 368.10 85.91 373.02 85.93 376.07 89.00 C 379.34 92.45 379.74 97.48 380.01 101.98 C 381.59 133.09 377.93 164.26 371.46 194.66 C 370.42 200.10 370.35 206.21 366.68 210.71 C 363.20 215.02 356.89 214.67 351.99 213.66 C 336.37 210.25 321.77 201.89 311.09 189.97 C 308.87 187.85 308.81 184.57 309.72 181.83 C 318.59 154.45 331.47 128.38 347.67 104.60 C 352.26 98.15 356.95 91.06 364.34 87.58 Z" />
<path fill="#f2b760" opacity="1.00" d=" M 388.83 268.59 C 393.85 267.51 399.07 267.90 403.98 269.33 C 406.37 275.67 407.92 282.34 409.67 288.88 C 413.04 306.66 415.49 324.86 414.16 342.97 C 413.01 347.69 413.52 353.26 410.09 357.08 C 408.53 358.89 406.21 357.56 404.63 356.56 C 402.26 354.85 399.13 356.78 398.37 359.26 C 393.87 371.77 389.45 384.32 384.91 396.82 C 382.92 403.30 379.88 409.45 378.48 416.11 C 373.45 425.62 367.64 434.73 361.88 443.82 C 360.88 440.91 362.62 438.24 363.68 435.65 C 372.61 414.21 377.05 391.10 378.34 367.97 C 378.72 358.48 377.82 349.05 377.21 339.60 C 380.78 341.15 385.16 341.06 388.12 338.26 C 393.87 333.67 393.70 325.65 393.49 318.99 C 393.61 302.08 391.30 285.29 388.00 268.74 C 388.21 268.71 388.62 268.63 388.83 268.59 Z" />
<path fill="#f2b760" opacity="1.00" d=" M 477.41 370.48 C 484.17 368.94 491.21 369.55 498.07 370.08 C 520.81 372.89 543.15 383.17 558.24 400.72 C 563.61 406.97 568.85 413.83 570.73 422.02 C 571.75 426.23 569.93 430.94 566.21 433.20 C 558.96 437.49 549.53 437.82 542.02 433.98 C 528.94 428.08 521.47 415.07 510.48 406.45 C 500.42 398.62 487.82 395.57 476.35 390.50 C 472.24 388.54 467.77 384.96 468.07 379.93 C 468.76 375.15 472.91 371.67 477.41 370.48 Z" />
<path fill="#f2b760" opacity="1.00" d=" M 628.11 441.39 C 631.01 449.34 632.64 458.03 631.32 466.48 C 630.39 470.53 627.87 475.78 622.92 475.29 C 623.45 469.39 623.76 463.47 623.94 457.56 C 629.66 454.27 627.62 446.80 628.11 441.39 Z" />
<path fill="#f2b760" opacity="1.00" d=" M 570.81 576.32 C 574.35 576.25 577.85 575.67 581.28 574.84 C 577.79 582.25 574.06 590.27 566.93 594.86 C 559.55 599.83 550.34 600.25 541.76 600.88 C 553.74 596.70 563.98 588.02 570.21 576.98 C 568.74 576.73 567.28 576.49 565.82 576.28 C 567.48 576.33 569.14 576.35 570.81 576.32 Z" />
<path fill="#f2b760" opacity="1.00" d=" M 428.64 579.83 C 445.29 580.31 461.93 581.12 478.59 580.98 C 478.08 585.12 476.21 589.34 472.47 591.53 C 466.98 594.84 460.29 595.00 454.06 595.04 C 448.04 594.86 441.65 595.65 436.05 592.97 C 431.30 590.38 429.30 584.90 428.64 579.83 Z" />
<path fill="#f2b760" opacity="1.00" d=" M 239.89 585.08 C 249.40 585.91 259.03 585.10 268.17 582.29 C 267.85 589.98 266.75 597.75 263.89 604.94 C 261.32 611.17 255.74 616.39 248.89 617.26 C 241.68 618.24 234.40 617.10 227.17 616.83 C 228.43 613.73 231.72 611.97 232.71 608.70 C 235.51 600.98 237.87 593.08 239.64 585.06 L 239.89 585.08 Z" />
</g>
<g id="#fde8adff">
<path fill="#fde8ad" opacity="1.00" d=" M 213.29 172.78 C 224.58 172.95 235.87 172.88 247.16 172.85 C 235.56 208.21 236.07 247.59 249.29 282.42 C 250.49 285.92 252.46 289.86 256.52 290.51 C 266.34 292.19 276.50 289.21 286.23 291.87 C 296.14 294.73 303.02 303.51 313.01 306.20 C 321.42 308.64 330.34 305.81 337.80 301.81 C 350.19 294.98 359.01 283.48 370.56 275.49 C 375.68 271.78 381.93 270.16 388.00 268.74 C 391.30 285.29 393.61 302.08 393.49 318.99 C 393.70 325.65 393.87 333.67 388.12 338.26 C 385.16 341.06 380.78 341.15 377.21 339.60 C 377.82 349.05 378.72 358.48 378.34 367.97 C 377.05 391.10 372.61 414.21 363.68 435.65 C 362.62 438.24 360.88 440.91 361.88 443.82 C 351.13 460.78 340.38 477.89 332.49 496.42 C 325.21 513.25 320.40 531.56 321.31 550.02 C 321.30 554.20 323.48 558.63 321.19 562.56 C 320.09 557.47 320.42 552.21 319.66 547.08 C 318.64 542.81 311.34 542.50 310.44 546.98 C 310.34 553.64 311.21 560.28 311.69 566.91 C 291.97 567.73 272.00 563.64 254.43 554.59 C 252.49 553.59 250.28 552.09 248.03 553.15 C 246.61 553.60 245.95 555.05 245.08 556.14 C 238.71 552.92 232.86 548.84 226.65 545.36 C 207.97 534.80 189.68 521.68 178.89 502.63 C 177.07 498.37 176.15 493.76 175.09 489.26 C 175.76 487.91 176.27 486.48 176.42 484.97 C 163.78 477.31 150.79 469.28 141.69 457.36 C 138.66 453.58 136.19 449.42 133.82 445.22 C 132.25 442.37 128.70 443.58 126.10 443.16 C 118.77 442.33 113.20 436.70 109.09 431.01 C 100.18 417.99 94.95 402.63 93.10 387.01 C 93.02 385.11 91.78 383.43 89.97 382.84 C 87.29 382.22 84.52 384.91 81.87 383.24 C 76.95 380.32 74.67 374.74 72.13 369.89 C 63.21 350.08 64.44 327.57 67.65 306.59 C 72.09 303.12 76.69 299.54 82.27 298.15 C 88.94 295.94 96.15 297.73 102.30 300.65 C 108.64 303.71 112.88 309.77 119.23 312.81 C 128.22 317.21 139.05 319.28 148.69 315.82 C 158.69 312.11 162.85 300.79 172.45 296.45 C 180.47 292.65 189.64 294.50 197.98 292.19 C 203.77 290.66 205.61 284.32 206.58 279.14 C 212.43 248.14 215.03 216.53 214.36 184.98 C 214.15 180.90 213.58 176.85 213.29 172.78 M 222.21 290.33 C 218.45 290.53 214.67 290.55 210.93 291.06 C 208.45 291.39 205.74 292.57 204.76 295.06 C 203.75 298.90 206.59 302.41 209.46 304.59 C 214.08 307.87 219.30 310.36 224.84 311.64 C 233.95 313.47 243.25 309.92 250.54 304.56 C 253.12 302.52 255.89 299.69 255.64 296.13 C 255.18 293.04 251.99 291.17 249.08 291.00 C 240.15 290.17 231.17 290.00 222.21 290.33 M 160.91 314.97 C 162.00 321.65 165.77 327.69 170.50 332.42 C 178.40 340.40 189.88 344.23 200.98 343.85 C 211.99 343.19 223.40 339.67 231.11 331.41 C 234.93 335.54 239.80 338.59 245.04 340.59 C 253.95 343.67 263.76 345.08 273.00 342.61 C 286.29 339.76 297.90 329.25 301.18 315.95 C 302.65 310.84 294.03 308.04 292.25 313.00 C 290.60 318.45 287.69 323.64 283.19 327.24 C 276.07 333.40 266.00 335.23 256.89 333.74 C 249.27 332.71 241.39 329.53 236.88 323.02 C 235.58 321.30 235.19 318.78 233.19 317.70 C 231.23 316.99 228.28 317.05 227.38 319.32 C 224.70 325.40 219.15 329.83 212.93 331.91 C 204.33 334.79 194.64 335.26 186.17 331.70 C 178.26 328.44 172.23 321.39 170.01 313.15 C 168.34 308.54 160.75 310.20 160.91 314.97 Z" />
<path fill="#fde8ad" opacity="1.00" d=" M 545.04 547.92 C 554.74 546.78 564.16 544.14 573.46 541.24 C 570.46 547.14 566.07 552.13 561.34 556.70 C 559.46 555.12 556.82 554.08 554.61 555.68 C 535.61 566.45 513.58 570.49 491.96 571.17 C 463.83 572.04 435.71 570.27 407.60 569.50 C 407.93 561.22 407.92 552.93 407.82 544.64 C 415.89 547.69 424.56 548.47 433.06 549.51 C 450.29 551.70 467.69 551.75 485.02 551.46 C 505.06 550.96 525.14 550.46 545.04 547.92 Z" />
<path fill="#fde8ad" opacity="1.00" d=" M 514.72 578.77 C 525.54 576.98 536.24 574.35 546.46 570.31 C 552.64 573.06 559.04 575.57 565.82 576.28 C 567.28 576.49 568.74 576.73 570.21 576.98 C 563.98 588.02 553.74 596.70 541.76 600.88 C 534.21 601.48 526.08 601.35 519.23 597.75 C 512.94 593.82 511.69 585.16 514.72 578.77 Z" />
<path fill="#fde8ad" opacity="1.00" d=" M 197.40 570.12 C 202.66 574.16 208.63 577.15 214.85 579.43 C 222.87 582.20 231.12 584.57 239.64 585.06 C 237.87 593.08 235.51 600.98 232.71 608.70 C 231.72 611.97 228.43 613.73 227.17 616.83 C 221.03 616.57 214.06 617.03 208.97 612.93 C 204.50 609.60 202.92 603.94 201.58 598.81 C 199.63 589.33 198.69 579.69 197.40 570.12 Z" />
<path fill="#fde8ad" opacity="1.00" d=" M 322.42 573.64 C 327.04 575.66 331.32 578.56 336.28 579.73 C 340.12 580.69 344.03 581.34 347.95 581.95 C 364.85 584.60 382.49 581.72 397.86 574.27 C 397.41 582.52 396.84 590.76 395.93 598.98 C 395.39 603.10 394.33 607.36 391.75 610.71 C 387.49 615.43 380.88 616.59 374.86 617.29 C 362.28 618.40 349.48 617.98 337.12 615.20 C 333.50 614.67 330.12 612.10 329.29 608.43 C 326.43 596.96 323.89 585.38 322.42 573.64 Z" />
</g>
</svg>
