<?xml version="1.0" encoding="UTF-8" ?>
<!DOCTYPE svg PUBLIC "-//W3C//DTD SVG 1.1//EN" "http://www.w3.org/Graphics/SVG/1.1/DTD/svg11.dtd">
<svg width="1012pt" height="1412pt" viewBox="0 0 1012 1412" version="1.1" xmlns="http://www.w3.org/2000/svg">
<g id="#070606ff">
<path fill="#070606" opacity="1.00" d=" M 217.14 76.18 C 231.58 68.92 248.47 68.41 264.13 71.26 C 287.45 75.65 308.81 87.17 327.87 100.98 C 348.95 116.26 367.66 134.61 384.78 154.18 C 412.26 185.58 436.63 219.83 456.24 256.71 C 463.93 270.85 470.73 285.47 477.26 300.17 C 499.83 300.23 522.42 300.32 544.99 300.13 C 549.63 291.18 553.15 281.67 558.00 272.82 C 574.35 239.10 594.72 207.39 617.92 177.99 C 643.53 145.52 672.26 114.68 707.31 92.28 C 729.87 78.40 756.00 67.58 783.00 70.03 C 798.08 71.05 812.48 78.31 822.54 89.53 C 830.49 97.65 836.60 107.56 840.86 118.09 C 847.76 132.53 850.28 148.50 853.40 164.06 C 856.25 184.57 857.34 205.27 857.89 225.95 C 859.54 266.97 858.14 308.06 855.58 349.01 C 854.47 361.34 854.08 373.76 852.01 385.99 C 849.99 404.03 847.24 421.99 845.66 440.08 C 845.42 473.56 850.42 507.14 861.09 538.91 C 864.38 547.60 866.86 556.59 869.36 565.54 C 873.28 577.41 875.57 589.74 877.97 601.99 C 884.29 631.52 885.84 662.23 881.27 692.13 C 878.42 705.95 873.27 720.59 861.37 729.19 C 853.04 736.24 841.14 737.25 830.87 734.66 C 831.92 753.59 830.36 772.69 825.79 791.10 C 823.43 798.85 821.08 806.61 818.16 814.17 C 813.42 825.27 807.64 836.43 797.97 844.04 C 793.70 846.92 788.97 849.19 783.99 850.50 C 777.27 851.52 770.24 851.17 763.92 848.53 C 766.09 861.91 767.66 875.40 768.71 888.92 C 768.97 897.59 770.20 906.25 769.43 914.94 C 768.09 930.65 766.95 946.39 765.22 962.07 C 764.62 969.14 761.46 975.99 762.22 983.15 C 763.18 988.95 768.84 991.64 773.07 994.81 C 788.27 1008.05 800.03 1024.78 809.42 1042.52 C 813.90 1052.08 818.51 1061.64 821.30 1071.87 C 832.21 1106.45 832.20 1144.35 821.84 1179.06 C 816.72 1197.54 808.19 1214.90 798.50 1231.38 C 783.34 1255.50 763.49 1277.78 737.51 1290.40 C 726.97 1296.07 715.03 1298.10 703.41 1300.30 C 681.34 1303.61 659.03 1304.42 636.79 1305.78 C 631.88 1315.20 623.25 1322.40 613.50 1326.45 C 607.15 1329.69 600.09 1331.09 593.11 1332.19 C 581.82 1333.81 570.39 1334.35 559.00 1333.85 C 547.09 1333.24 534.78 1329.72 526.11 1321.16 C 523.35 1317.70 520.73 1314.06 519.01 1309.96 C 513.33 1310.12 507.65 1309.95 501.97 1309.98 C 499.11 1314.60 497.10 1320.14 492.35 1323.28 C 482.92 1331.38 470.07 1333.77 457.98 1333.99 C 444.51 1334.17 430.92 1333.37 417.78 1330.23 C 404.13 1326.59 390.77 1318.68 384.15 1305.76 C 357.67 1304.10 330.94 1303.54 304.93 1297.84 C 287.50 1294.28 271.64 1285.16 258.15 1273.80 C 243.49 1261.24 231.22 1246.03 221.37 1229.46 C 211.58 1213.35 204.02 1195.96 198.57 1177.92 C 191.58 1152.63 189.73 1125.91 193.33 1099.92 C 197.14 1070.98 208.77 1043.32 225.54 1019.52 C 233.67 1008.90 242.21 998.22 253.47 990.73 C 257.12 988.50 259.45 984.22 259.00 979.92 C 258.39 973.70 256.37 967.72 255.74 961.51 C 255.04 954.34 253.88 947.22 253.36 940.04 C 252.76 930.03 251.22 920.07 251.30 910.03 C 251.24 890.09 253.83 870.28 257.27 850.68 C 250.35 851.83 243.00 852.11 236.40 849.36 C 231.31 847.22 226.10 844.79 222.31 840.67 C 212.06 830.82 206.43 817.31 202.03 804.06 C 194.19 781.89 191.57 758.04 192.82 734.62 C 184.45 736.81 175.21 736.47 167.39 732.55 C 162.09 729.46 157.30 725.40 153.73 720.39 C 148.38 713.57 145.95 705.10 143.48 696.94 C 140.92 685.17 140.15 673.08 140.04 661.06 C 139.57 645.00 140.99 628.96 143.49 613.11 C 146.35 599.07 149.00 584.97 152.54 571.08 C 156.39 558.44 159.07 545.44 163.82 533.08 C 167.96 519.85 172.69 506.67 174.43 492.86 C 176.69 477.01 177.59 460.97 176.98 444.97 C 175.85 425.91 173.16 406.98 170.39 388.11 C 163.98 326.99 162.56 265.37 165.40 203.98 C 166.45 187.63 167.59 171.23 170.56 155.08 C 173.42 143.09 175.88 130.91 180.76 119.53 C 184.24 112.54 187.11 105.11 192.13 99.02 C 198.51 89.58 207.12 81.65 217.14 76.18 M 224.92 93.89 C 219.32 97.48 213.83 101.58 210.18 107.25 C 204.76 113.70 201.91 121.74 198.48 129.31 C 194.68 139.67 192.29 150.46 189.54 161.12 C 182.01 199.57 182.55 238.97 183.39 277.95 C 183.89 317.01 185.66 356.08 189.89 394.92 C 191.81 407.24 192.98 419.67 194.89 432.01 C 196.06 438.96 195.83 446.03 195.86 453.05 C 195.77 480.22 191.43 507.33 182.97 533.14 C 180.00 540.59 177.40 548.19 175.01 555.85 C 173.63 560.54 172.29 565.25 170.72 569.89 C 167.53 582.10 165.57 594.59 163.08 606.95 C 161.50 613.22 160.73 619.65 159.86 626.05 C 157.01 648.92 156.32 672.41 161.42 695.02 C 163.36 701.37 165.74 707.83 170.22 712.86 C 173.65 716.11 178.22 718.38 183.03 718.15 C 187.20 718.01 192.08 717.18 194.65 713.53 C 196.32 710.35 195.36 705.96 198.41 703.50 C 202.27 699.81 209.07 700.58 212.23 704.80 C 214.08 706.93 213.88 709.93 213.37 712.53 C 208.31 738.64 209.38 765.95 216.60 791.55 C 219.73 800.22 221.93 809.33 226.53 817.39 C 229.07 820.89 231.08 824.90 234.46 827.71 C 239.47 831.22 245.54 834.78 251.90 833.01 C 255.50 831.97 256.61 828.14 258.56 825.42 C 260.73 823.13 263.80 821.53 267.00 821.50 C 270.93 821.64 273.86 825.32 274.40 829.01 C 276.11 839.46 278.52 849.79 281.38 859.98 C 285.33 871.08 288.56 882.49 293.87 893.06 C 296.87 901.37 301.96 908.67 305.23 916.83 C 305.19 920.25 305.07 924.00 302.77 926.76 C 301.18 928.95 297.96 929.78 295.57 928.44 C 290.15 925.67 286.88 920.32 283.38 915.59 C 277.93 907.49 274.31 898.28 271.34 889.03 C 270.52 899.00 270.86 909.04 271.05 919.03 C 271.67 930.88 271.90 942.84 274.40 954.49 C 275.97 964.93 278.50 975.36 278.19 985.98 C 277.91 993.88 271.59 999.40 266.06 1004.17 C 240.32 1025.96 222.25 1056.35 214.70 1089.15 C 210.58 1107.74 209.70 1127.02 211.88 1145.92 C 213.19 1156.44 214.99 1167.01 218.61 1177.02 C 221.66 1186.49 224.77 1196.13 229.98 1204.67 C 231.99 1209.52 234.63 1214.07 237.50 1218.46 C 245.65 1231.87 255.57 1244.18 266.88 1255.04 C 277.98 1266.00 291.41 1275.46 306.96 1278.60 C 329.00 1283.32 351.62 1283.73 374.01 1285.48 C 368.91 1271.01 362.79 1256.92 358.08 1242.31 C 354.23 1232.02 350.83 1221.57 347.64 1211.05 C 344.05 1201.27 341.50 1191.16 338.66 1181.15 C 334.91 1169.78 332.36 1158.06 329.43 1146.46 C 325.83 1134.16 323.58 1121.53 320.81 1109.04 C 320.09 1105.86 319.56 1102.25 321.56 1099.41 C 323.98 1094.93 330.13 1093.20 334.62 1095.46 C 337.66 1097.20 339.00 1100.71 339.45 1104.03 C 343.40 1124.94 349.03 1145.45 354.21 1166.08 C 357.62 1176.64 360.22 1187.44 363.52 1198.04 C 367.13 1208.08 369.91 1218.39 373.39 1228.48 C 377.03 1237.58 379.66 1247.05 383.12 1256.23 C 387.02 1264.99 389.58 1274.33 393.95 1282.91 C 397.66 1292.86 403.90 1302.53 413.70 1307.34 C 424.26 1313.71 436.99 1313.98 448.94 1314.86 C 458.37 1315.32 468.35 1315.30 477.02 1311.05 C 481.79 1308.00 485.53 1302.82 485.93 1297.06 C 487.15 1287.19 483.21 1277.81 482.12 1268.15 C 479.60 1251.80 477.53 1235.38 474.45 1219.13 C 469.61 1185.05 463.77 1151.14 458.87 1117.07 C 458.19 1112.04 457.16 1107.05 456.75 1102.00 C 456.45 1096.04 462.12 1091.11 467.93 1091.56 C 471.95 1091.51 474.90 1094.99 475.24 1098.81 C 478.53 1116.73 480.72 1134.85 483.58 1152.86 C 487.89 1175.74 490.26 1198.96 494.57 1221.84 C 496.17 1232.23 497.46 1242.68 499.51 1253.00 C 501.67 1265.49 505.11 1277.88 504.79 1290.67 C 508.57 1290.88 512.35 1290.86 516.14 1290.72 C 516.31 1280.02 518.08 1269.44 520.05 1258.96 C 525.18 1237.22 526.79 1214.83 531.11 1192.93 C 533.33 1178.42 535.46 1163.90 537.64 1149.38 C 538.72 1141.16 540.65 1133.09 541.63 1124.85 C 543.26 1115.27 544.15 1105.54 546.20 1096.05 C 549.42 1088.89 561.13 1091.01 563.49 1097.89 C 565.26 1101.91 563.34 1106.15 563.25 1110.27 C 558.71 1139.90 553.77 1169.47 549.57 1199.16 C 545.32 1221.56 542.99 1244.30 538.80 1266.72 C 537.58 1277.28 533.78 1287.74 535.30 1298.48 C 536.08 1306.00 542.72 1311.70 549.80 1313.31 C 561.68 1316.33 574.05 1314.76 586.08 1313.74 C 597.06 1312.67 607.97 1308.68 616.06 1301.02 C 625.26 1291.21 628.74 1277.93 634.08 1265.94 C 636.60 1259.71 638.39 1253.21 641.07 1247.06 C 644.36 1238.12 646.85 1228.91 650.36 1220.06 C 653.96 1209.44 656.79 1198.58 660.43 1187.98 C 663.71 1177.21 666.15 1166.21 669.55 1155.48 C 672.16 1145.32 674.47 1135.08 676.87 1124.86 C 679.40 1116.62 680.43 1108.00 682.69 1099.70 C 684.88 1092.62 695.68 1093.17 699.13 1098.89 C 702.33 1103.02 700.22 1108.39 699.38 1112.96 C 697.25 1124.41 693.96 1135.59 691.49 1146.97 C 688.53 1160.14 684.45 1173.00 681.03 1186.04 C 678.94 1194.66 675.41 1202.84 673.45 1211.49 L 673.20 1211.58 C 670.68 1221.01 666.66 1229.92 663.90 1239.28 C 658.43 1254.78 652.57 1270.17 646.63 1285.49 C 662.44 1284.55 678.25 1283.41 694.03 1281.97 C 707.34 1279.91 721.39 1278.56 733.08 1271.25 C 743.82 1265.42 752.58 1256.77 761.03 1248.09 C 775.03 1232.69 787.17 1215.36 795.31 1196.12 C 797.61 1191.72 799.33 1187.06 800.76 1182.32 C 803.78 1174.14 805.57 1165.54 807.64 1157.08 C 811.85 1132.57 811.60 1106.95 804.62 1082.96 C 799.92 1063.99 790.84 1046.34 779.57 1030.46 C 773.16 1022.27 766.56 1014.13 758.57 1007.41 C 753.29 1001.96 746.04 997.84 743.73 990.15 C 741.54 981.88 743.78 973.31 744.86 965.04 C 749.23 942.29 750.41 919.02 749.68 895.91 C 747.44 899.39 745.58 903.12 744.24 907.05 C 741.37 914.74 737.08 922.61 729.62 926.67 C 726.79 928.45 723.06 929.25 720.26 926.95 C 719.14 923.80 718.15 920.42 718.87 917.07 C 719.72 911.96 723.27 907.95 725.32 903.33 C 730.84 891.51 736.23 879.59 739.95 867.06 C 744.64 854.30 747.31 840.92 749.71 827.58 C 750.67 824.12 754.11 821.02 757.88 821.60 C 761.67 822.12 765.21 824.54 766.82 828.05 C 767.99 830.61 770.11 832.93 773.05 833.31 C 779.17 834.36 784.76 830.96 789.53 827.55 C 797.87 819.35 802.00 808.07 805.29 797.09 C 807.96 789.95 809.70 782.51 810.92 775.01 C 813.95 756.23 814.47 736.95 811.44 718.13 C 810.98 714.46 809.56 710.74 810.37 707.03 C 812.32 701.38 820.38 699.20 824.89 703.17 C 828.22 705.40 827.56 709.82 828.85 713.13 C 831.07 716.96 835.95 717.89 840.01 718.16 C 846.60 718.68 853.03 714.84 856.32 709.23 C 860.87 701.91 863.22 693.40 864.33 684.90 C 868.18 661.11 866.67 636.75 862.36 613.14 C 859.09 598.26 855.33 583.49 850.86 568.94 C 845.98 549.38 840.01 530.14 835.18 510.58 C 830.69 494.46 828.95 477.72 828.01 461.06 C 826.73 440.99 828.21 420.91 829.88 400.91 C 831.17 386.24 832.26 371.53 834.18 356.92 C 836.80 328.99 839.03 301.00 839.28 272.94 C 839.88 231.51 840.74 189.32 830.03 148.95 C 828.04 142.14 826.85 134.95 823.37 128.70 C 820.49 119.24 815.31 110.61 809.04 103.01 C 803.65 97.72 797.50 92.84 790.04 90.93 C 772.05 85.90 752.90 90.71 736.42 98.47 C 728.20 101.79 720.74 106.57 713.18 111.14 C 684.95 129.99 661.52 155.01 640.14 181.15 C 607.00 220.80 580.15 265.67 560.33 313.39 C 559.15 316.16 556.79 318.19 554.09 319.41 C 547.38 319.08 540.65 319.31 533.95 319.58 C 512.44 319.53 490.93 319.63 469.42 319.52 C 467.58 318.87 465.84 318.02 464.20 316.97 C 462.54 314.08 461.01 311.11 459.89 307.97 C 445.46 274.42 427.59 242.35 406.50 212.52 C 394.31 195.26 380.84 178.98 366.98 163.05 C 345.61 139.17 321.81 116.72 293.22 101.76 C 283.31 97.26 273.41 92.18 262.51 90.64 C 250.14 87.60 236.46 88.15 224.92 93.89 Z" />
<path fill="#070606" opacity="1.00" d=" M 380.63 473.76 C 392.01 472.10 404.11 474.07 414.02 480.02 C 418.90 483.72 424.01 487.44 427.20 492.80 C 434.95 502.86 437.58 515.72 439.09 528.04 C 439.15 532.21 440.23 537.03 437.43 540.59 C 433.82 545.67 425.02 545.72 421.48 540.54 C 419.09 537.55 420.02 533.51 419.63 529.99 C 418.95 519.19 416.34 507.55 408.27 499.77 C 400.21 491.64 386.97 490.59 376.69 494.68 C 370.71 496.75 366.03 501.29 362.26 506.20 C 356.65 515.44 356.17 526.60 352.48 536.57 C 350.48 541.79 343.42 542.74 338.98 540.21 C 335.52 538.73 333.63 534.59 334.40 530.98 C 335.67 524.88 337.82 519.02 339.38 513.00 C 341.35 505.74 343.87 498.42 348.74 492.55 C 351.96 487.48 357.13 484.26 361.82 480.73 C 367.53 477.16 374.00 474.86 380.63 473.76 Z" />
<path fill="#070606" opacity="1.00" d=" M 605.46 473.67 C 627.05 470.36 650.80 482.86 658.38 503.72 C 661.77 510.77 662.96 518.58 665.13 526.04 C 665.90 529.26 667.42 532.75 665.80 535.97 C 663.04 543.34 650.70 543.42 648.00 535.95 C 644.49 525.76 644.63 514.06 637.77 505.21 C 628.17 491.21 606.00 487.81 593.11 499.16 C 584.85 507.51 581.38 519.42 581.07 530.94 C 580.82 533.94 581.42 537.22 579.95 539.98 C 576.05 546.88 562.95 545.45 562.00 537.04 C 561.34 526.88 562.87 516.57 566.14 506.93 C 569.48 499.22 573.26 491.34 579.76 485.76 C 586.59 478.86 595.90 474.86 605.46 473.67 Z" />
<path fill="#070606" opacity="1.00" d=" M 491.14 556.28 C 505.12 555.97 519.12 556.06 533.07 557.09 C 538.87 557.53 545.24 557.27 550.24 560.74 C 553.86 563.09 555.77 567.82 554.49 572.00 C 553.23 577.43 548.84 581.16 544.92 584.76 C 541.62 587.80 537.29 589.25 533.64 591.77 C 515.37 602.62 491.23 602.77 472.96 591.83 C 468.20 588.68 462.42 586.95 458.74 582.35 C 454.20 578.35 450.56 572.24 452.28 566.01 C 453.84 560.35 460.38 558.59 465.48 557.75 C 474.01 556.92 482.58 556.58 491.14 556.28 Z" />
<path fill="#070606" opacity="1.00" d=" M 364.04 608.97 C 361.87 603.66 366.47 597.54 371.91 597.02 C 375.56 596.36 380.00 597.69 381.56 601.33 C 384.65 609.38 387.54 617.93 393.67 624.26 C 403.86 636.32 419.27 643.70 434.99 644.60 C 453.25 645.84 472.54 641.66 486.91 629.85 C 489.56 627.19 492.01 624.31 494.30 621.33 C 496.59 618.25 497.07 613.71 500.64 611.71 C 505.07 609.96 511.22 610.70 513.36 615.55 C 517.15 624.76 524.76 632.09 533.66 636.39 C 543.72 642.21 555.49 644.23 566.96 644.79 C 578.91 645.11 591.38 643.15 601.64 636.69 C 611.75 631.46 619.50 622.51 624.72 612.52 C 626.60 608.63 627.31 604.27 629.26 600.43 C 632.40 596.19 639.03 595.89 643.20 598.75 C 646.61 601.05 647.61 605.75 646.29 609.52 C 639.69 633.80 619.29 653.02 595.50 660.36 C 576.76 665.90 556.46 664.84 537.87 659.27 C 525.70 655.14 514.02 648.78 505.36 639.13 C 492.26 653.03 473.75 660.82 454.99 663.08 C 438.37 665.16 420.80 663.94 405.51 656.66 C 394.18 651.39 383.89 643.64 376.43 633.56 C 370.38 626.50 366.94 617.69 364.04 608.97 Z" />
</g>
<g id="#dd8019ff">
<path fill="#dd8019" opacity="1.00" d=" M 224.92 93.89 C 236.46 88.15 250.14 87.60 262.51 90.64 C 269.22 95.08 276.34 99.16 281.81 105.18 C 295.57 118.55 307.32 133.79 318.67 149.21 C 334.20 169.98 347.72 192.17 359.98 215.00 C 363.99 223.06 368.25 230.99 371.61 239.36 C 375.87 247.76 379.35 256.51 382.76 265.28 C 385.61 271.68 387.81 278.33 390.03 284.96 C 392.09 291.45 394.75 297.74 396.50 304.32 C 398.72 312.66 400.94 321.01 403.79 329.17 C 423.55 323.40 443.85 319.88 464.20 316.97 C 465.84 318.02 467.58 318.87 469.42 319.52 C 469.81 324.33 470.16 329.15 470.79 333.94 C 472.04 342.89 471.67 351.95 471.76 360.96 C 471.86 388.93 470.61 416.89 468.24 444.76 C 467.26 457.57 465.23 470.26 463.86 483.04 C 461.10 503.06 458.76 523.24 453.64 542.84 C 451.62 550.80 446.01 558.52 437.66 560.45 C 425.95 563.17 413.72 561.78 401.96 564.26 C 393.32 566.17 384.32 568.55 377.55 574.58 C 368.48 581.47 362.17 591.23 353.56 598.61 C 342.21 609.48 325.30 613.51 310.03 610.87 C 299.93 608.88 289.85 606.10 280.75 601.20 C 267.16 594.35 255.25 584.76 242.63 576.34 C 235.40 570.74 227.01 566.95 218.59 563.52 C 204.57 558.66 189.68 557.33 175.01 555.85 C 177.40 548.19 180.00 540.59 182.97 533.14 C 191.43 507.33 195.77 480.22 195.86 453.05 C 195.83 446.03 196.06 438.96 194.89 432.01 C 192.98 419.67 191.81 407.24 189.89 394.92 C 185.66 356.08 183.89 317.01 183.39 277.95 C 182.55 238.97 182.01 199.57 189.54 161.12 C 192.29 150.46 194.68 139.67 198.48 129.31 C 201.91 121.74 204.76 113.70 210.18 107.25 C 213.83 101.58 219.32 97.48 224.92 93.89 M 243.39 146.51 C 235.70 150.12 231.75 158.39 229.28 166.09 C 223.38 181.76 220.71 198.40 218.56 214.93 C 214.58 245.44 215.62 276.32 216.58 307.00 C 217.33 319.01 218.79 330.96 219.55 342.98 C 221.96 364.39 224.10 385.91 228.80 406.96 C 229.69 411.41 231.45 415.97 234.97 418.99 C 238.39 421.36 242.81 420.11 246.13 418.19 C 257.62 411.03 267.79 401.72 280.28 396.20 C 288.13 392.80 294.95 387.57 302.31 383.31 C 311.91 376.89 321.47 370.40 331.08 363.99 C 337.52 358.93 344.76 354.39 349.19 347.31 C 352.52 339.83 349.60 331.53 347.75 324.05 C 344.64 315.16 341.80 306.17 338.43 297.37 C 334.51 288.57 331.59 279.34 327.24 270.73 C 312.00 236.53 293.07 204.16 273.88 172.07 C 270.19 166.70 267.62 160.61 263.62 155.46 C 260.57 152.14 257.87 147.96 253.35 146.55 C 250.16 145.37 246.57 145.27 243.39 146.51 M 380.63 473.76 C 374.00 474.86 367.53 477.16 361.82 480.73 C 357.13 484.26 351.96 487.48 348.74 492.55 C 343.87 498.42 341.35 505.74 339.38 513.00 C 337.82 519.02 335.67 524.88 334.40 530.98 C 333.63 534.59 335.52 538.73 338.98 540.21 C 343.42 542.74 350.48 541.79 352.48 536.57 C 356.17 526.60 356.65 515.44 362.26 506.20 C 366.03 501.29 370.71 496.75 376.69 494.68 C 386.97 490.59 400.21 491.64 408.27 499.77 C 416.34 507.55 418.95 519.19 419.63 529.99 C 420.02 533.51 419.09 537.55 421.48 540.54 C 425.02 545.72 433.82 545.67 437.43 540.59 C 440.23 537.03 439.15 532.21 439.09 528.04 C 437.58 515.72 434.95 502.86 427.20 492.80 C 424.01 487.44 418.90 483.72 414.02 480.02 C 404.11 474.07 392.01 472.10 380.63 473.76 Z" />
<path fill="#dd8019" opacity="1.00" d=" M 736.42 98.47 C 752.90 90.71 772.05 85.90 790.04 90.93 C 797.50 92.84 803.65 97.72 809.04 103.01 C 815.31 110.61 820.49 119.24 823.37 128.70 C 823.68 132.97 824.67 137.14 825.56 141.31 C 836.13 199.96 834.29 260.03 827.84 319.03 C 825.43 340.75 821.79 362.30 818.67 383.92 C 816.99 395.62 814.40 407.15 812.68 418.84 C 810.37 430.88 808.78 443.05 806.13 455.03 C 803.45 468.90 801.27 482.89 800.25 497.00 C 799.95 503.83 799.57 510.86 801.73 517.46 C 801.29 517.66 800.88 517.88 800.49 518.12 C 781.77 527.57 766.66 542.35 751.38 556.40 C 740.60 565.88 729.52 575.42 716.38 581.48 C 701.56 589.29 683.62 592.59 667.40 587.40 C 649.38 581.25 636.31 565.64 618.07 559.97 C 599.17 554.40 579.39 559.30 560.13 557.42 C 554.01 556.92 547.99 553.33 545.18 547.79 C 537.87 531.53 533.26 514.24 528.88 497.00 C 524.46 476.94 522.28 456.48 521.00 436.01 C 520.04 412.58 522.31 389.12 526.01 366.01 C 527.36 358.51 528.63 350.98 530.81 343.67 C 533.10 335.70 534.82 327.55 537.81 319.81 C 543.22 319.74 548.72 320.36 554.09 319.41 C 556.79 318.19 559.15 316.16 560.33 313.39 C 580.15 265.67 607.00 220.80 640.14 181.15 C 661.52 155.01 684.95 129.99 713.18 111.14 C 720.74 106.57 728.20 101.79 736.42 98.47 M 780.31 145.41 C 771.83 146.72 765.20 152.54 758.99 158.00 C 750.51 166.99 743.26 177.07 736.53 187.41 C 717.70 215.62 701.22 245.41 687.41 276.40 C 683.19 284.81 680.24 293.76 676.35 302.31 C 674.11 307.85 672.18 313.50 670.22 319.13 C 667.39 326.64 664.39 334.16 662.74 342.04 C 661.53 348.09 665.55 353.49 669.79 357.31 C 681.97 370.18 696.55 380.75 712.39 388.66 C 721.94 393.90 732.46 396.95 742.75 400.35 C 752.21 402.94 762.65 404.79 772.09 401.14 C 780.43 396.99 784.34 387.79 785.84 379.04 C 789.08 361.05 792.67 343.12 795.70 325.09 C 797.88 315.48 798.89 305.65 800.24 295.90 C 802.51 278.37 804.16 260.75 805.27 243.11 C 806.20 222.74 807.22 202.32 805.86 181.94 C 805.61 172.15 805.42 161.60 800.01 153.06 C 796.00 146.48 787.63 143.85 780.31 145.41 M 605.46 473.67 C 595.90 474.86 586.59 478.86 579.76 485.76 C 573.26 491.34 569.48 499.22 566.14 506.93 C 562.87 516.57 561.34 526.88 562.00 537.04 C 562.95 545.45 576.05 546.88 579.95 539.98 C 581.42 537.22 580.82 533.94 581.07 530.94 C 581.38 519.42 584.85 507.51 593.11 499.16 C 606.00 487.81 628.17 491.21 637.77 505.21 C 644.63 514.06 644.49 525.76 648.00 535.95 C 650.70 543.42 663.04 543.34 665.80 535.97 C 667.42 532.75 665.90 529.26 665.13 526.04 C 662.96 518.58 661.77 510.77 658.38 503.72 C 650.80 482.86 627.05 470.36 605.46 473.67 Z" />
<path fill="#dd8019" opacity="1.00" d=" M 271.05 919.03 C 270.86 909.04 270.52 899.00 271.34 889.03 C 274.31 898.28 277.93 907.49 283.38 915.59 C 286.88 920.32 290.15 925.67 295.57 928.44 C 297.96 929.78 301.18 928.95 302.77 926.76 C 305.07 924.00 305.19 920.25 305.23 916.83 C 310.85 925.98 317.18 934.69 323.93 943.03 C 342.38 965.54 364.59 984.78 381.71 1008.40 C 389.28 1017.97 395.71 1028.36 402.53 1038.46 C 415.21 1058.02 428.37 1077.56 445.31 1093.74 C 448.23 1096.46 451.79 1098.82 453.33 1102.69 C 455.33 1107.41 458.04 1111.93 458.87 1117.07 C 463.77 1151.14 469.61 1185.05 474.45 1219.13 C 477.53 1235.38 479.60 1251.80 482.12 1268.15 C 483.25 1272.04 478.99 1273.91 476.03 1274.96 C 467.02 1277.87 457.38 1277.78 448.02 1277.55 C 424.91 1276.72 402.40 1268.81 383.12 1256.23 C 379.66 1247.05 377.03 1237.58 373.39 1228.48 C 369.91 1218.39 367.13 1208.08 363.52 1198.04 C 360.22 1187.44 357.62 1176.64 354.21 1166.08 C 349.03 1145.45 343.40 1124.94 339.45 1104.03 C 339.00 1100.71 337.66 1097.20 334.62 1095.46 C 330.13 1093.20 323.98 1094.93 321.56 1099.41 C 319.56 1102.25 320.09 1105.86 320.81 1109.04 C 323.58 1121.53 325.83 1134.16 329.43 1146.46 C 332.36 1158.06 334.91 1169.78 338.66 1181.15 C 341.50 1191.16 344.05 1201.27 347.64 1211.05 C 350.83 1221.57 354.23 1232.02 358.08 1242.31 C 335.00 1235.27 310.44 1239.45 287.08 1234.21 C 265.73 1230.17 245.80 1219.48 229.98 1204.67 C 224.77 1196.13 221.66 1186.49 218.61 1177.02 C 214.99 1167.01 213.19 1156.44 211.88 1145.92 C 209.70 1127.02 210.58 1107.74 214.70 1089.15 C 222.25 1056.35 240.32 1025.96 266.06 1004.17 C 271.59 999.40 277.91 993.88 278.19 985.98 C 278.50 975.36 275.97 964.93 274.40 954.49 C 271.90 942.84 271.67 930.88 271.05 919.03 Z" />
<path fill="#dd8019" opacity="1.00" d=" M 697.60 957.97 C 701.92 956.89 705.65 954.36 709.84 952.93 C 708.69 965.85 708.03 978.87 705.55 991.63 C 704.93 995.04 703.78 998.45 704.07 1001.97 C 705.01 1004.16 707.13 1005.56 708.73 1007.27 C 723.35 1019.99 734.13 1036.76 741.22 1054.71 C 748.77 1073.50 750.60 1094.19 748.37 1114.20 C 745.78 1135.51 736.57 1155.63 723.64 1172.63 C 712.57 1186.63 698.87 1198.89 682.73 1206.72 C 679.69 1208.41 676.81 1210.47 673.45 1211.49 C 675.41 1202.84 678.94 1194.66 681.03 1186.04 C 684.45 1173.00 688.53 1160.14 691.49 1146.97 C 693.96 1135.59 697.25 1124.41 699.38 1112.96 C 700.22 1108.39 702.33 1103.02 699.13 1098.89 C 695.68 1093.17 684.88 1092.62 682.69 1099.70 C 680.43 1108.00 679.40 1116.62 676.87 1124.86 C 674.47 1135.08 672.16 1145.32 669.55 1155.48 C 666.15 1166.21 663.71 1177.21 660.43 1187.98 C 656.79 1198.58 653.96 1209.44 650.36 1220.06 C 646.85 1228.91 644.36 1238.12 641.07 1247.06 C 638.39 1253.21 636.60 1259.71 634.08 1265.94 C 626.15 1272.11 617.15 1276.95 607.41 1279.56 C 588.70 1285.53 567.35 1285.45 549.72 1276.17 C 545.32 1273.99 542.14 1270.17 538.80 1266.72 C 542.99 1244.30 545.32 1221.56 549.57 1199.16 C 553.77 1169.47 558.71 1139.90 563.25 1110.27 L 563.42 1109.59 C 564.01 1107.03 564.44 1104.33 566.25 1102.31 C 569.71 1098.03 572.21 1093.01 576.04 1089.04 C 580.56 1085.42 586.02 1083.18 590.50 1079.50 C 617.45 1060.59 636.28 1033.08 656.85 1007.94 C 669.44 992.66 681.90 977.29 694.31 961.87 C 695.41 960.57 696.54 959.29 697.60 957.97 Z" />
</g>
<g id="#d16e1fff">
<path fill="#d16e1f" opacity="1.00" d=" M 262.51 90.64 C 273.41 92.18 283.31 97.26 293.22 101.76 C 321.81 116.72 345.61 139.17 366.98 163.05 C 380.84 178.98 394.31 195.26 406.50 212.52 C 427.59 242.35 445.46 274.42 459.89 307.97 C 461.01 311.11 462.54 314.08 464.20 316.97 C 443.85 319.88 423.55 323.40 403.79 329.17 C 400.94 321.01 398.72 312.66 396.50 304.32 C 394.75 297.74 392.09 291.45 390.03 284.96 C 387.81 278.33 385.61 271.68 382.76 265.28 C 379.35 256.51 375.87 247.76 371.61 239.36 C 368.25 230.99 363.99 223.06 359.98 215.00 C 347.72 192.17 334.20 169.98 318.67 149.21 C 307.32 133.79 295.57 118.55 281.81 105.18 C 276.34 99.16 269.22 95.08 262.51 90.64 Z" />
<path fill="#d16e1f" opacity="1.00" d=" M 823.37 128.70 C 826.85 134.95 828.04 142.14 830.03 148.95 C 840.74 189.32 839.88 231.51 839.28 272.94 C 839.03 301.00 836.80 328.99 834.18 356.92 C 832.26 371.53 831.17 386.24 829.88 400.91 C 828.21 420.91 826.73 440.99 828.01 461.06 C 828.95 477.72 830.69 494.46 835.18 510.58 C 823.68 510.19 812.20 512.79 801.73 517.46 C 799.57 510.86 799.95 503.83 800.25 497.00 C 801.27 482.89 803.45 468.90 806.13 455.03 C 808.78 443.05 810.37 430.88 812.68 418.84 C 814.40 407.15 816.99 395.62 818.67 383.92 C 821.79 362.30 825.43 340.75 827.84 319.03 C 834.29 260.03 836.13 199.96 825.56 141.31 C 824.67 137.14 823.68 132.97 823.37 128.70 Z" />
<path fill="#d16e1f" opacity="1.00" d=" M 749.68 895.91 C 750.41 919.02 749.23 942.29 744.86 965.04 C 743.78 973.31 741.54 981.88 743.73 990.15 C 746.04 997.84 753.29 1001.96 758.57 1007.41 C 766.56 1014.13 773.16 1022.27 779.57 1030.46 C 790.84 1046.34 799.92 1063.99 804.62 1082.96 C 811.60 1106.95 811.85 1132.57 807.64 1157.08 C 805.57 1165.54 803.78 1174.14 800.76 1182.32 C 795.87 1188.58 791.64 1195.37 786.29 1201.28 C 774.47 1215.11 759.76 1226.78 742.85 1233.72 C 718.25 1244.71 689.86 1245.80 663.90 1239.28 C 666.66 1229.92 670.68 1221.01 673.20 1211.58 L 673.45 1211.49 C 676.81 1210.47 679.69 1208.41 682.73 1206.72 C 698.87 1198.89 712.57 1186.63 723.64 1172.63 C 736.57 1155.63 745.78 1135.51 748.37 1114.20 C 750.60 1094.19 748.77 1073.50 741.22 1054.71 C 734.13 1036.76 723.35 1019.99 708.73 1007.27 C 707.13 1005.56 705.01 1004.16 704.07 1001.97 C 703.78 998.45 704.93 995.04 705.55 991.63 C 708.03 978.87 708.69 965.85 709.84 952.93 C 705.65 954.36 701.92 956.89 697.60 957.97 C 705.12 947.60 712.94 937.47 720.26 926.95 C 723.06 929.25 726.79 928.45 729.62 926.67 C 737.08 922.61 741.37 914.74 744.24 907.05 C 745.58 903.12 747.44 899.39 749.68 895.91 Z" />
</g>
<g id="#f2b95eff">
<path fill="#f2b95e" opacity="1.00" d=" M 780.31 145.41 C 787.63 143.85 796.00 146.48 800.01 153.06 C 805.42 161.60 805.61 172.15 805.86 181.94 C 807.22 202.32 806.20 222.74 805.27 243.11 C 804.16 260.75 802.51 278.37 800.24 295.90 C 798.89 305.65 797.88 315.48 795.70 325.09 C 792.67 343.12 789.08 361.05 785.84 379.04 C 784.34 387.79 780.43 396.99 772.09 401.14 C 762.65 404.79 752.21 402.94 742.75 400.35 C 732.46 396.95 721.94 393.90 712.39 388.66 C 696.55 380.75 681.97 370.18 669.79 357.31 C 665.55 353.49 661.53 348.09 662.74 342.04 C 664.39 334.16 667.39 326.64 670.22 319.13 C 672.18 313.50 674.11 307.85 676.35 302.31 C 680.24 293.76 683.19 284.81 687.41 276.40 C 701.22 245.41 717.70 215.62 736.53 187.41 C 743.26 177.07 750.51 166.99 758.99 158.00 C 765.20 152.54 771.83 146.72 780.31 145.41 Z" />
<path fill="#f2b95e" opacity="1.00" d=" M 243.39 146.51 C 246.57 145.27 250.16 145.37 253.35 146.55 C 257.87 147.96 260.57 152.14 263.62 155.46 C 267.62 160.61 270.19 166.70 273.88 172.07 C 293.07 204.16 312.00 236.53 327.24 270.73 C 331.59 279.34 334.51 288.57 338.43 297.37 C 341.80 306.17 344.64 315.16 347.75 324.05 C 349.60 331.53 352.52 339.83 349.19 347.31 C 344.76 354.39 337.52 358.93 331.08 363.99 C 321.47 370.40 311.91 376.89 302.31 383.31 C 294.95 387.57 288.13 392.80 280.28 396.20 C 267.79 401.72 257.62 411.03 246.13 418.19 C 242.81 420.11 238.39 421.36 234.97 418.99 C 231.45 415.97 229.69 411.41 228.80 406.96 C 224.10 385.91 221.96 364.39 219.55 342.98 C 218.79 330.96 217.33 319.01 216.58 307.00 C 215.62 276.32 214.58 245.44 218.56 214.93 C 220.71 198.40 223.38 181.76 229.28 166.09 C 231.75 158.39 235.70 150.12 243.39 146.51 Z" />
<path fill="#f2b95e" opacity="1.00" d=" M 801.73 517.46 C 812.20 512.79 823.68 510.19 835.18 510.58 C 840.01 530.14 845.98 549.38 850.86 568.94 C 855.33 583.49 859.09 598.26 862.36 613.14 C 866.67 636.75 868.18 661.11 864.33 684.90 C 863.22 693.40 860.87 701.91 856.32 709.23 C 853.03 714.84 846.60 718.68 840.01 718.16 C 835.95 717.89 831.07 716.96 828.85 713.13 C 827.56 709.82 828.22 705.40 824.89 703.17 C 820.38 699.20 812.32 701.38 810.37 707.03 C 809.56 710.74 810.98 714.46 811.44 718.13 C 814.47 736.95 813.95 756.23 810.92 775.01 C 809.70 782.51 807.96 789.95 805.29 797.09 C 802.00 808.07 797.87 819.35 789.53 827.55 C 784.76 830.96 779.17 834.36 773.05 833.31 C 770.11 832.93 767.99 830.61 766.82 828.05 C 765.21 824.54 761.67 822.12 757.88 821.60 C 754.11 821.02 750.67 824.12 749.71 827.58 C 747.31 840.92 744.64 854.30 739.95 867.06 C 736.23 879.59 730.84 891.51 725.32 903.33 C 723.27 907.95 719.72 911.96 718.87 917.07 C 718.15 920.42 719.14 923.80 720.26 926.95 C 712.94 937.47 705.12 947.60 697.60 957.97 C 696.54 959.29 695.41 960.57 694.31 961.87 L 694.03 960.64 C 692.27 961.29 690.55 962.03 688.83 962.76 C 692.55 951.65 697.57 941.02 700.92 929.79 C 704.51 918.27 708.83 906.98 711.50 895.19 C 715.98 879.67 719.53 863.91 722.31 848.00 C 725.43 833.72 727.17 819.20 728.82 804.69 C 730.40 788.19 731.85 771.66 731.55 755.07 C 740.36 766.16 758.13 765.13 768.09 756.17 C 773.32 752.51 776.29 746.74 779.48 741.40 C 784.03 732.55 785.83 722.64 788.10 713.05 C 791.48 693.88 791.50 673.82 786.39 654.95 C 790.06 657.84 794.12 660.84 799.06 660.62 C 807.44 661.50 815.82 657.34 820.69 650.58 C 824.37 645.03 827.11 638.68 827.46 631.96 C 827.93 622.58 827.80 613.07 825.53 603.90 C 822.56 591.85 819.49 579.76 814.94 568.19 C 812.04 560.54 810.03 552.61 807.39 544.88 C 805.06 538.11 803.35 531.12 802.30 524.04 C 802.01 521.97 801.29 520.02 800.49 518.12 C 800.88 517.88 801.29 517.66 801.73 517.46 Z" />
<path fill="#f2b95e" opacity="1.00" d=" M 786.29 1201.28 C 791.64 1195.37 795.87 1188.58 800.76 1182.32 C 799.33 1187.06 797.61 1191.72 795.31 1196.12 C 787.17 1215.36 775.03 1232.69 761.03 1248.09 C 752.58 1256.77 743.82 1265.42 733.08 1271.25 C 721.39 1278.56 707.34 1279.91 694.03 1281.97 C 678.25 1283.41 662.44 1284.55 646.63 1285.49 C 652.57 1270.17 658.43 1254.78 663.90 1239.28 C 689.86 1245.80 718.25 1244.71 742.85 1233.72 C 759.76 1226.78 774.47 1215.11 786.29 1201.28 Z" />
</g>
<g id="#fde8adff">
<path fill="#fde8ad" opacity="1.00" d=" M 469.42 319.52 C 490.93 319.63 512.44 319.53 533.95 319.58 C 540.65 319.31 547.38 319.08 554.09 319.41 C 548.72 320.36 543.22 319.74 537.81 319.81 C 534.82 327.55 533.10 335.70 530.81 343.67 C 528.63 350.98 527.36 358.51 526.01 366.01 C 522.31 389.12 520.04 412.58 521.00 436.01 C 522.28 456.48 524.46 476.94 528.88 497.00 C 533.26 514.24 537.87 531.53 545.18 547.79 C 547.99 553.33 554.01 556.92 560.13 557.42 C 579.39 559.30 599.17 554.40 618.07 559.97 C 636.31 565.64 649.38 581.25 667.40 587.40 C 683.62 592.59 701.56 589.29 716.38 581.48 C 729.52 575.42 740.60 565.88 751.38 556.40 C 766.66 542.35 781.77 527.57 800.49 518.12 C 801.29 520.02 802.01 521.97 802.30 524.04 C 803.35 531.12 805.06 538.11 807.39 544.88 C 810.03 552.61 812.04 560.54 814.94 568.19 C 819.49 579.76 822.56 591.85 825.53 603.90 C 827.80 613.07 827.93 622.58 827.46 631.96 C 827.11 638.68 824.37 645.03 820.69 650.58 C 815.82 657.34 807.44 661.50 799.06 660.62 C 794.12 660.84 790.06 657.84 786.39 654.95 C 791.50 673.82 791.48 693.88 788.10 713.05 C 785.83 722.64 784.03 732.55 779.48 741.40 C 776.29 746.74 773.32 752.51 768.09 756.17 C 758.13 765.13 740.36 766.16 731.55 755.07 C 731.85 771.66 730.40 788.19 728.82 804.69 C 727.17 819.20 725.43 833.72 722.31 848.00 C 719.53 863.91 715.98 879.67 711.50 895.19 C 708.83 906.98 704.51 918.27 700.92 929.79 C 697.57 941.02 692.55 951.65 688.83 962.76 C 690.55 962.03 692.27 961.29 694.03 960.64 L 694.31 961.87 C 681.90 977.29 669.44 992.66 656.85 1007.94 C 636.28 1033.08 617.45 1060.59 590.50 1079.50 C 586.02 1083.18 580.56 1085.42 576.04 1089.04 C 572.21 1093.01 569.71 1098.03 566.25 1102.31 C 564.44 1104.33 564.01 1107.03 563.42 1109.59 L 563.25 1110.27 C 563.34 1106.15 565.26 1101.91 563.49 1097.89 C 561.13 1091.01 549.42 1088.89 546.20 1096.05 C 544.15 1105.54 543.26 1115.27 541.63 1124.85 C 540.65 1133.09 538.72 1141.16 537.64 1149.38 C 535.46 1163.90 533.33 1178.42 531.11 1192.93 C 526.79 1214.83 525.18 1237.22 520.05 1258.96 C 518.08 1269.44 516.31 1280.02 516.14 1290.72 C 512.35 1290.86 508.57 1290.88 504.79 1290.67 C 505.11 1277.88 501.67 1265.49 499.51 1253.00 C 497.46 1242.68 496.17 1232.23 494.57 1221.84 C 490.26 1198.96 487.89 1175.74 483.58 1152.86 C 480.72 1134.85 478.53 1116.73 475.24 1098.81 C 474.90 1094.99 471.95 1091.51 467.93 1091.56 C 462.12 1091.11 456.45 1096.04 456.75 1102.00 C 457.16 1107.05 458.19 1112.04 458.87 1117.07 C 458.04 1111.93 455.33 1107.41 453.33 1102.69 C 451.79 1098.82 448.23 1096.46 445.31 1093.74 C 428.37 1077.56 415.21 1058.02 402.53 1038.46 C 395.71 1028.36 389.28 1017.97 381.71 1008.40 C 364.59 984.78 342.38 965.54 323.93 943.03 C 317.18 934.69 310.85 925.98 305.23 916.83 C 301.96 908.67 296.87 901.37 293.87 893.06 C 288.56 882.49 285.33 871.08 281.38 859.98 C 278.52 849.79 276.11 839.46 274.40 829.01 C 273.86 825.32 270.93 821.64 267.00 821.50 C 263.80 821.53 260.73 823.13 258.56 825.42 C 256.61 828.14 255.50 831.97 251.90 833.01 C 245.54 834.78 239.47 831.22 234.46 827.71 C 231.08 824.90 229.07 820.89 226.53 817.39 C 221.93 809.33 219.73 800.22 216.60 791.55 C 209.38 765.95 208.31 738.64 213.37 712.53 C 213.88 709.93 214.08 706.93 212.23 704.80 C 209.07 700.58 202.27 699.81 198.41 703.50 C 195.36 705.96 196.32 710.35 194.65 713.53 C 192.08 717.18 187.20 718.01 183.03 718.15 C 178.22 718.38 173.65 716.11 170.22 712.86 C 165.74 707.83 163.36 701.37 161.42 695.02 C 156.32 672.41 157.01 648.92 159.86 626.05 C 160.73 619.65 161.50 613.22 163.08 606.95 C 165.57 594.59 167.53 582.10 170.72 569.89 C 172.29 565.25 173.63 560.54 175.01 555.85 C 189.68 557.33 204.57 558.66 218.59 563.52 C 227.01 566.95 235.40 570.74 242.63 576.34 C 255.25 584.76 267.16 594.35 280.75 601.20 C 289.85 606.10 299.93 608.88 310.03 610.87 C 325.30 613.51 342.21 609.48 353.56 598.61 C 362.17 591.23 368.48 581.47 377.55 574.58 C 384.32 568.55 393.32 566.17 401.96 564.26 C 413.72 561.78 425.95 563.17 437.66 560.45 C 446.01 558.52 451.62 550.80 453.64 542.84 C 458.76 523.24 461.10 503.06 463.86 483.04 C 465.23 470.26 467.26 457.57 468.24 444.76 C 470.61 416.89 471.86 388.93 471.76 360.96 C 471.67 351.95 472.04 342.89 470.79 333.94 C 470.16 329.15 469.81 324.33 469.42 319.52 M 491.14 556.28 C 482.58 556.58 474.01 556.92 465.48 557.75 C 460.38 558.59 453.84 560.35 452.28 566.01 C 450.56 572.24 454.20 578.35 458.74 582.35 C 462.42 586.95 468.20 588.68 472.96 591.83 C 491.23 602.77 515.37 602.62 533.64 591.77 C 537.29 589.25 541.62 587.80 544.92 584.76 C 548.84 581.16 553.23 577.43 554.49 572.00 C 555.77 567.82 553.86 563.09 550.24 560.74 C 545.24 557.27 538.87 557.53 533.07 557.09 C 519.12 556.06 505.12 555.97 491.14 556.28 M 364.04 608.97 C 366.94 617.69 370.38 626.50 376.43 633.56 C 383.89 643.64 394.18 651.39 405.51 656.66 C 420.80 663.94 438.37 665.16 454.99 663.08 C 473.75 660.82 492.26 653.03 505.36 639.13 C 514.02 648.78 525.70 655.14 537.87 659.27 C 556.46 664.84 576.76 665.90 595.50 660.36 C 619.29 653.02 639.69 633.80 646.29 609.52 C 647.61 605.75 646.61 601.05 643.20 598.75 C 639.03 595.89 632.40 596.19 629.26 600.43 C 627.31 604.27 626.60 608.63 624.72 612.52 C 619.50 622.51 611.75 631.46 601.64 636.69 C 591.38 643.15 578.91 645.11 566.96 644.79 C 555.49 644.23 543.72 642.21 533.66 636.39 C 524.76 632.09 517.15 624.76 513.36 615.55 C 511.22 610.70 505.07 609.96 500.64 611.71 C 497.07 613.71 496.59 618.25 494.30 621.33 C 492.01 624.31 489.56 627.19 486.91 629.85 C 472.54 641.66 453.25 645.84 434.99 644.60 C 419.27 643.70 403.86 636.32 393.67 624.26 C 387.54 617.93 384.65 609.38 381.56 601.33 C 380.00 597.69 375.56 596.36 371.91 597.02 C 366.47 597.54 361.87 603.66 364.04 608.97 Z" />
<path fill="#fde8ad" opacity="1.00" d=" M 229.98 1204.67 C 245.80 1219.48 265.73 1230.17 287.08 1234.21 C 310.44 1239.45 335.00 1235.27 358.08 1242.31 C 362.79 1256.92 368.91 1271.01 374.01 1285.48 C 351.62 1283.73 329.00 1283.32 306.96 1278.60 C 291.41 1275.46 277.98 1266.00 266.88 1255.04 C 255.57 1244.18 245.65 1231.87 237.50 1218.46 C 234.63 1214.07 231.99 1209.52 229.98 1204.67 Z" />
<path fill="#fde8ad" opacity="1.00" d=" M 383.12 1256.23 C 402.40 1268.81 424.91 1276.72 448.02 1277.55 C 457.38 1277.78 467.02 1277.87 476.03 1274.96 C 478.99 1273.91 483.25 1272.04 482.12 1268.15 C 483.21 1277.81 487.15 1287.19 485.93 1297.06 C 485.53 1302.82 481.79 1308.00 477.02 1311.05 C 468.35 1315.30 458.37 1315.32 448.94 1314.86 C 436.99 1313.98 424.26 1313.71 413.70 1307.34 C 403.90 1302.53 397.66 1292.86 393.95 1282.91 C 389.58 1274.33 387.02 1264.99 383.12 1256.23 Z" />
<path fill="#fde8ad" opacity="1.00" d=" M 607.41 1279.56 C 617.15 1276.95 626.15 1272.11 634.08 1265.94 C 628.74 1277.93 625.26 1291.21 616.06 1301.02 C 607.97 1308.68 597.06 1312.67 586.08 1313.74 C 574.05 1314.76 561.68 1316.33 549.80 1313.31 C 542.72 1311.70 536.08 1306.00 535.30 1298.48 C 533.78 1287.74 537.58 1277.28 538.80 1266.72 C 542.14 1270.17 545.32 1273.99 549.72 1276.17 C 567.35 1285.45 588.70 1285.53 607.41 1279.56 Z" />
</g>
</svg>
