<?xml version="1.0" encoding="UTF-8" ?>
<!DOCTYPE svg PUBLIC "-//W3C//DTD SVG 1.1//EN" "http://www.w3.org/Graphics/SVG/1.1/DTD/svg11.dtd">
<svg width="668pt" height="720pt" viewBox="0 0 668 720" version="1.1" xmlns="http://www.w3.org/2000/svg">
<g id="#1d1b1a49">
<path fill="#1d1b1a" opacity="0.29" d=" M 177.46 44.98 C 178.14 42.92 182.86 42.92 183.57 44.98 C 181.53 44.97 179.50 44.97 177.46 44.98 Z" />
</g>
<g id="#070606ff">
<path fill="#070606" opacity="1.00" d=" M 144.88 70.00 C 152.07 58.19 162.84 46.24 177.46 44.98 C 179.50 44.97 181.53 44.97 183.57 44.98 C 198.05 46.30 209.99 56.22 219.36 66.64 C 237.09 87.40 247.72 113.11 256.17 138.78 C 260.73 153.67 264.21 168.94 266.02 184.40 C 266.41 186.98 265.47 191.15 269.31 191.09 C 279.31 193.97 289.23 197.14 299.18 200.17 C 306.14 192.47 313.10 184.76 320.72 177.70 C 336.00 163.26 353.10 150.79 371.23 140.18 C 386.77 131.33 403.59 123.85 421.53 121.91 C 425.53 121.87 429.54 121.99 433.54 121.82 C 442.40 122.54 451.49 125.75 457.60 132.45 C 462.88 138.24 465.73 145.85 466.96 153.49 C 467.67 161.19 467.44 168.93 467.00 176.64 C 464.33 196.37 458.53 215.52 452.64 234.48 C 445.26 257.82 436.42 280.69 425.97 302.83 C 419.78 315.17 417.87 329.01 415.90 342.51 C 414.00 355.36 415.71 368.37 415.01 381.29 C 414.99 382.37 414.93 383.45 414.84 384.53 C 414.49 387.60 414.21 390.68 414.05 393.76 C 413.95 394.38 413.74 395.61 413.63 396.22 C 413.13 397.96 412.76 399.76 412.83 401.59 C 412.78 403.44 412.65 405.30 412.51 407.15 C 415.67 406.98 419.02 406.70 421.58 404.62 C 440.38 389.81 463.96 381.53 487.76 380.03 C 494.23 379.77 500.71 379.76 507.18 380.02 C 507.93 380.11 509.45 380.31 510.21 380.41 C 511.97 380.86 513.78 381.20 515.62 381.12 C 531.04 382.19 545.96 387.10 560.25 392.79 C 576.81 399.95 593.38 408.65 605.38 422.47 C 612.48 430.83 618.19 440.94 619.15 452.06 C 619.56 456.36 617.54 460.48 614.34 463.28 C 619.30 474.35 622.77 486.15 624.03 498.23 C 624.14 501.95 624.45 505.65 624.86 509.34 C 625.08 512.41 625.09 515.50 624.85 518.58 C 624.42 522.29 624.10 526.03 624.04 529.78 C 623.03 540.83 620.11 551.60 617.80 562.44 C 616.92 565.77 616.79 569.28 617.81 572.61 C 619.16 578.34 621.81 583.76 625.84 588.08 C 630.72 593.82 637.43 599.30 638.07 607.32 C 638.02 609.08 638.00 610.85 638.01 612.64 C 637.04 621.76 631.54 629.82 625.25 636.24 C 616.97 644.31 605.84 650.73 593.92 649.96 C 587.53 649.72 581.90 645.98 577.63 641.46 C 573.32 636.90 569.82 631.67 565.59 627.04 C 559.26 632.16 552.37 636.94 544.40 639.03 C 540.42 639.33 536.41 639.35 532.43 639.12 C 519.73 635.85 512.58 623.86 505.64 613.76 C 485.58 624.85 464.16 633.45 442.04 639.45 C 430.72 642.14 419.36 645.29 407.69 645.87 C 405.81 645.71 403.97 646.11 402.18 646.60 C 401.56 646.67 400.32 646.79 399.70 646.86 C 397.82 646.77 395.96 647.07 394.15 647.57 C 392.82 647.84 391.48 647.99 390.13 648.01 C 376.95 648.54 363.78 648.40 350.61 648.08 C 349.88 647.96 348.43 647.72 347.70 647.60 C 345.66 646.94 343.53 646.64 341.40 646.84 C 340.75 646.79 339.45 646.67 338.80 646.61 C 337.01 646.10 335.17 645.71 333.31 645.87 C 329.48 646.00 325.72 645.14 321.97 644.55 C 303.03 641.38 284.58 635.84 266.60 629.16 C 263.50 633.49 260.99 638.60 256.58 641.73 C 254.79 642.40 253.39 643.73 252.74 645.55 C 252.07 647.17 250.58 648.19 249.28 649.28 C 239.69 657.00 228.10 662.67 215.78 664.07 C 213.02 664.26 210.27 664.57 207.52 664.87 C 206.14 664.96 204.74 664.98 203.36 664.89 C 200.19 664.54 197.02 664.21 193.85 663.96 C 181.87 662.19 170.00 657.29 161.13 648.89 C 154.84 642.81 150.01 633.72 152.74 624.82 C 155.56 616.77 161.79 610.40 168.21 605.05 C 169.76 604.08 171.09 602.83 172.13 601.33 C 176.24 596.50 180.77 591.99 184.07 586.52 C 185.16 586.00 185.79 585.16 185.98 584.01 C 184.63 583.66 183.45 584.70 183.33 586.02 C 173.29 591.06 163.48 597.33 152.17 599.00 C 145.85 599.64 139.49 599.63 133.17 599.12 C 123.42 597.91 114.24 593.41 106.60 587.34 C 104.62 585.69 102.48 584.12 101.16 581.87 C 100.48 580.58 99.48 579.54 98.32 578.69 C 92.27 572.16 88.44 563.50 86.85 554.77 C 86.55 550.41 86.52 546.03 86.84 541.67 C 87.97 536.67 91.61 532.42 96.21 530.23 C 105.75 525.77 116.51 525.07 126.14 520.87 C 135.82 516.71 145.79 511.70 152.03 502.86 C 151.19 498.36 150.14 493.91 148.99 489.49 C 148.64 487.64 148.33 485.81 148.03 483.96 C 143.94 484.27 139.82 484.48 135.72 484.06 C 126.43 481.31 118.83 474.29 114.01 466.02 C 105.91 452.22 101.54 436.60 98.95 420.91 C 89.66 423.84 79.23 420.16 72.88 413.03 C 66.40 405.90 63.92 395.99 63.96 386.55 C 64.02 384.53 64.01 382.52 63.98 380.50 C 64.01 379.73 64.09 378.18 64.12 377.40 C 64.55 373.97 64.89 370.52 64.94 367.06 C 65.03 363.39 65.85 359.80 66.60 356.23 C 63.38 355.93 60.28 354.94 57.43 353.40 L 57.21 352.62 C 57.03 351.11 55.63 350.35 54.43 349.71 C 51.59 347.95 50.81 344.28 49.91 341.28 C 49.52 336.32 49.58 331.34 49.86 326.38 C 53.92 299.72 68.62 276.28 83.66 254.47 C 95.51 239.00 101.99 220.07 105.03 200.99 C 108.75 176.29 114.85 152.01 121.96 128.09 C 128.37 108.30 134.31 88.05 144.88 70.00 M 159.59 66.54 C 140.90 90.69 134.20 121.15 125.76 149.85 C 120.61 169.00 116.19 188.35 113.13 207.95 C 111.36 221.12 106.25 233.59 100.17 245.31 C 95.99 253.47 90.33 260.69 84.91 268.04 C 82.40 271.86 79.80 275.65 77.66 279.71 C 70.00 293.55 62.37 307.80 59.32 323.49 C 58.29 329.88 56.82 336.96 59.95 343.01 C 61.66 346.66 66.06 347.57 69.72 347.29 C 71.05 345.20 71.98 341.92 74.92 341.75 C 77.89 341.12 81.76 343.64 80.98 346.88 C 74.80 354.02 73.94 363.94 73.21 372.97 C 72.60 382.84 71.78 393.45 76.37 402.57 C 79.39 408.82 86.04 413.18 93.01 413.14 C 96.08 413.13 98.46 410.94 101.14 409.75 C 103.47 408.70 106.41 410.47 106.73 412.97 C 108.35 424.54 110.67 436.12 114.99 447.02 C 118.45 456.11 122.81 465.39 130.51 471.69 C 134.54 475.14 140.32 477.14 145.50 475.24 C 147.68 474.59 149.61 472.88 151.97 473.03 C 156.40 475.54 157.24 481.30 158.16 485.87 C 159.10 497.73 163.31 508.94 166.76 520.23 C 173.34 538.22 181.08 556.31 193.91 570.83 C 197.75 563.37 201.05 555.60 203.32 547.51 C 203.87 545.63 204.37 543.38 206.41 542.57 C 208.63 541.32 210.84 543.02 212.94 543.66 C 213.14 545.42 213.50 547.24 212.94 549.00 C 206.26 572.71 193.02 594.44 175.35 611.58 C 170.72 616.06 165.07 619.98 162.40 626.05 C 159.85 632.49 164.25 638.96 168.81 643.20 C 177.72 650.85 189.54 654.35 201.09 655.23 C 213.96 656.23 227.00 652.69 237.75 645.59 C 252.47 635.90 262.82 620.17 266.79 603.08 C 267.19 601.18 267.76 598.73 270.04 598.37 C 272.91 597.49 275.35 599.57 276.70 601.88 C 275.94 608.37 273.61 614.50 271.13 620.49 C 320.83 640.03 376.38 644.70 428.48 632.64 C 464.84 624.65 499.35 608.87 529.60 587.23 C 528.31 584.12 526.70 581.14 525.63 577.95 C 524.89 575.60 526.76 573.75 527.92 571.96 C 529.24 571.75 530.57 571.64 531.91 571.63 C 533.53 572.07 534.02 573.89 534.76 575.21 C 538.12 582.87 541.48 590.68 546.70 597.30 C 552.61 604.97 561.27 609.76 567.99 616.63 L 568.36 616.55 C 572.18 620.37 576.13 624.14 579.29 628.57 C 582.12 632.38 584.93 636.50 589.18 638.89 C 594.00 641.17 599.64 640.39 604.50 638.63 C 615.60 634.18 625.05 624.73 628.14 613.02 C 629.54 608.25 627.41 603.37 623.90 600.14 C 617.82 594.24 612.57 587.41 609.50 579.46 C 609.17 576.91 608.10 574.51 607.86 571.96 C 606.63 562.05 610.11 552.50 612.11 542.95 C 615.55 528.89 616.11 514.24 614.70 499.87 C 612.69 482.93 607.13 466.08 596.67 452.43 C 595.29 450.62 593.50 448.54 594.36 446.09 C 594.80 443.62 597.34 442.69 599.28 441.64 C 603.99 444.57 606.29 449.89 609.51 454.21 C 608.59 443.19 602.88 433.09 594.99 425.54 C 588.66 418.79 580.65 413.83 572.61 409.37 C 550.37 397.23 525.40 389.61 499.97 389.09 C 482.87 388.96 465.61 391.97 449.90 398.84 C 440.73 402.82 432.75 408.93 424.47 414.42 C 420.26 417.32 414.94 416.66 410.14 416.26 C 408.05 423.64 405.48 430.93 401.98 437.78 C 398.47 444.13 393.27 450.31 385.94 452.14 C 381.28 453.45 376.46 452.07 372.25 450.03 C 368.40 465.24 360.90 479.67 349.88 490.91 C 345.02 495.82 338.05 499.47 330.98 497.89 C 326.56 497.21 322.97 494.16 320.80 490.36 C 321.35 488.78 322.24 487.37 323.57 486.32 C 327.91 486.25 330.61 490.74 334.96 490.55 C 340.97 490.16 345.94 485.78 348.66 480.63 C 353.85 470.97 357.48 460.59 361.46 450.41 C 363.43 445.42 364.82 440.25 365.99 435.03 C 366.35 431.72 370.79 431.08 373.06 432.86 C 375.93 434.83 372.99 439.21 375.70 441.31 C 378.88 444.28 384.18 444.52 387.57 441.75 C 393.27 437.26 395.79 430.14 398.66 423.74 C 402.63 412.60 405.06 400.90 405.60 389.07 C 406.14 373.69 406.42 358.31 406.99 342.93 C 408.13 328.70 411.17 314.62 416.28 301.27 C 425.19 277.66 436.12 254.81 443.79 230.73 C 450.00 211.31 456.60 191.63 457.43 171.09 C 457.99 163.41 457.80 155.53 455.64 148.08 C 453.75 141.46 448.65 135.79 442.11 133.53 C 430.77 129.17 418.28 131.48 406.93 134.59 C 391.06 139.34 376.55 147.68 362.79 156.76 C 341.52 170.59 322.30 187.60 306.04 207.08 C 304.64 208.54 303.22 210.44 301.04 210.59 C 298.24 210.07 295.56 209.09 292.84 208.26 C 281.87 205.09 271.02 201.48 260.05 198.30 C 259.36 197.58 258.68 196.86 258.00 196.14 C 255.30 170.01 249.34 144.13 239.12 119.88 C 232.00 102.76 223.82 85.65 211.20 71.84 C 206.71 67.09 201.91 62.46 196.09 59.36 C 191.21 55.89 185.03 54.22 179.07 54.40 C 170.95 54.82 164.42 60.46 159.59 66.54 M 116.08 534.71 C 110.75 536.23 105.07 536.67 100.02 539.06 C 96.42 540.82 95.30 545.23 95.54 548.93 C 96.19 556.99 99.64 564.59 104.27 571.13 C 113.08 583.19 127.75 590.63 142.72 590.42 C 151.88 590.21 160.78 587.31 168.67 582.72 C 173.54 579.74 179.02 577.50 182.94 573.19 C 177.75 566.44 173.39 559.08 169.63 551.45 C 163.80 539.50 159.03 527.03 155.25 514.29 C 144.41 524.62 130.14 530.27 116.08 534.71 M 514.00 608.94 C 515.26 610.93 516.56 612.91 517.87 614.87 C 522.14 621.08 527.19 627.75 534.84 629.76 C 543.83 631.61 551.78 625.65 558.49 620.48 C 554.70 617.03 550.43 614.20 546.41 611.05 C 541.41 606.76 537.41 601.49 533.97 595.91 C 527.44 600.45 520.83 604.87 514.00 608.94 Z" />
<path fill="#070606" opacity="1.00" d=" M 185.50 259.54 C 191.68 258.01 198.48 258.71 204.00 262.00 C 211.33 265.82 215.72 273.94 216.13 282.05 C 216.38 287.37 215.93 292.92 213.78 297.85 C 212.31 301.27 206.80 300.91 205.29 297.71 C 204.28 295.85 205.34 293.81 205.64 291.91 C 207.15 285.90 207.45 278.74 203.34 273.65 C 198.43 267.53 188.59 266.64 182.44 271.39 C 177.79 274.67 176.05 280.37 172.77 284.77 C 170.07 288.30 163.66 285.49 164.33 281.13 C 165.76 277.04 168.62 273.65 170.88 270.00 C 174.21 264.80 179.52 261.04 185.50 259.54 Z" />
<path fill="#070606" opacity="1.00" d=" M 293.13 292.21 C 306.24 288.72 320.99 298.21 323.28 311.55 C 324.07 317.18 323.71 322.92 323.31 328.57 C 322.91 333.72 314.01 333.05 313.97 328.06 C 313.67 322.30 315.48 316.28 313.17 310.73 C 310.34 304.17 302.69 299.77 295.61 301.42 C 290.04 302.99 286.04 307.79 283.83 312.95 C 282.73 315.20 282.20 317.72 280.80 319.82 C 277.77 323.20 271.13 319.44 272.74 315.09 C 275.61 305.00 282.54 295.06 293.13 292.21 Z" />
<path fill="#070606" opacity="1.00" d=" M 219.39 311.56 C 221.78 311.01 224.20 311.74 226.52 312.27 C 237.54 314.80 248.40 318.09 258.88 322.36 C 261.87 323.26 264.62 325.74 264.73 329.04 C 264.27 332.82 260.51 335.06 257.26 336.28 C 250.28 338.58 242.61 339.50 235.45 337.48 C 227.89 335.37 221.95 329.67 217.26 323.62 C 214.49 320.00 213.56 312.60 219.39 311.56 Z" />
<path fill="#070606" opacity="1.00" d=" M 164.63 318.98 C 165.65 314.83 171.84 314.69 173.66 318.31 C 174.33 321.78 174.08 325.41 175.20 328.80 C 178.12 338.39 186.43 345.74 195.96 348.45 C 204.78 351.00 215.10 351.34 223.07 346.17 C 225.32 344.84 226.78 342.53 228.99 341.15 C 231.66 340.26 235.14 341.96 235.06 345.07 C 236.17 352.49 241.60 358.43 247.84 362.17 C 255.36 366.64 264.38 369.35 273.14 367.62 C 279.79 366.21 286.21 362.73 290.22 357.12 C 291.64 355.21 293.18 352.49 296.01 352.99 C 299.26 353.04 301.87 356.93 300.04 359.84 C 291.67 374.39 272.92 380.68 257.02 376.48 C 249.29 387.55 234.60 390.84 221.86 389.59 C 212.76 388.87 203.85 385.11 197.44 378.54 C 191.30 372.52 187.69 364.14 187.44 355.55 C 173.59 349.26 163.16 334.52 164.63 318.98 M 197.36 358.82 C 199.37 369.37 208.56 377.75 219.06 379.46 C 228.77 381.18 240.09 380.32 247.58 373.20 C 239.65 368.85 231.84 363.23 227.92 354.78 C 218.79 360.32 207.62 360.66 197.36 358.82 Z" />
</g>
<g id="#dd8019ff">
<path fill="#dd8019" opacity="1.00" d=" M 159.59 66.54 C 164.42 60.46 170.95 54.82 179.07 54.40 C 185.03 54.22 191.21 55.89 196.09 59.36 C 199.42 64.02 202.63 68.82 205.03 74.04 C 214.55 95.36 221.18 117.96 224.78 141.03 C 226.98 158.20 228.44 175.60 227.08 192.89 C 237.37 194.12 247.76 194.42 258.00 196.14 C 258.68 196.86 259.36 197.58 260.05 198.30 C 258.99 204.77 257.80 211.25 255.65 217.46 C 247.55 244.28 236.96 270.32 224.24 295.27 C 221.90 299.70 219.73 304.63 215.39 307.47 C 211.62 309.80 207.00 308.69 202.98 307.77 C 196.31 306.03 189.33 304.22 182.43 305.68 C 173.30 307.85 166.48 315.51 157.10 316.97 C 148.58 318.26 140.20 314.43 133.54 309.40 C 124.12 302.44 118.26 292.05 110.50 283.50 C 103.60 276.03 94.08 271.96 84.91 268.04 C 90.33 260.69 95.99 253.47 100.17 245.31 C 106.25 233.59 111.36 221.12 113.13 207.95 C 116.19 188.35 120.61 169.00 125.76 149.85 C 134.20 121.15 140.90 90.69 159.59 66.54 M 174.35 83.49 C 171.62 84.93 169.66 87.40 167.84 89.81 C 158.78 102.21 153.01 116.61 148.22 131.09 C 140.76 154.51 135.27 178.61 132.55 203.05 C 132.37 206.30 131.70 210.93 135.18 212.72 C 139.62 213.58 143.86 211.24 148.00 209.95 C 153.49 207.82 159.43 207.52 165.08 205.97 C 173.81 203.55 182.53 201.08 191.10 198.12 C 194.05 196.97 197.24 195.77 199.29 193.23 C 201.56 189.98 201.32 185.78 201.46 181.99 C 201.21 155.44 195.87 129.25 189.47 103.58 C 187.96 97.64 187.12 91.37 184.12 85.95 C 182.29 82.53 177.60 81.63 174.35 83.49 M 185.50 259.54 C 179.52 261.04 174.21 264.80 170.88 270.00 C 168.62 273.65 165.76 277.04 164.33 281.13 C 163.66 285.49 170.07 288.30 172.77 284.77 C 176.05 280.37 177.79 274.67 182.44 271.39 C 188.59 266.64 198.43 267.53 203.34 273.65 C 207.45 278.74 207.15 285.90 205.64 291.91 C 205.34 293.81 204.28 295.85 205.29 297.71 C 206.80 300.91 212.31 301.27 213.78 297.85 C 215.93 292.92 216.38 287.37 216.13 282.05 C 215.72 273.94 211.33 265.82 204.00 262.00 C 198.48 258.71 191.68 258.01 185.50 259.54 Z" />
<path fill="#dd8019" opacity="1.00" d=" M 406.93 134.59 C 418.28 131.48 430.77 129.17 442.11 133.53 C 448.65 135.79 453.75 141.46 455.64 148.08 C 457.80 155.53 457.99 163.41 457.43 171.09 C 457.16 169.37 456.84 167.65 456.52 165.94 C 451.97 206.22 435.53 243.83 418.01 279.97 C 412.77 290.09 408.02 300.47 402.47 310.43 C 397.34 320.40 391.47 330.41 389.93 341.70 C 389.81 341.72 389.56 341.75 389.44 341.77 C 372.72 344.55 358.97 355.74 342.53 359.35 C 333.76 361.11 323.83 361.07 316.22 355.78 C 308.07 350.29 304.16 340.50 296.01 335.03 C 290.39 331.23 283.64 329.79 277.20 328.04 C 272.99 326.88 268.40 325.94 265.13 322.83 C 263.24 321.07 262.97 318.34 262.69 315.93 C 259.79 277.95 271.05 239.39 292.84 208.26 C 295.56 209.09 298.24 210.07 301.04 210.59 C 303.22 210.44 304.64 208.54 306.04 207.08 C 322.30 187.60 341.52 170.59 362.79 156.76 C 376.55 147.68 391.06 139.34 406.93 134.59 M 427.34 161.47 C 421.73 163.27 416.91 166.83 412.24 170.30 C 388.61 188.86 367.69 210.87 350.46 235.48 C 348.45 238.00 348.22 241.44 349.70 244.29 C 355.32 256.21 364.23 266.49 374.88 274.20 C 380.79 278.23 387.72 283.46 395.28 281.16 C 401.66 278.15 403.84 270.78 407.00 265.02 C 421.95 237.81 434.55 209.12 442.15 178.95 C 443.31 173.89 444.35 167.74 440.62 163.46 C 437.24 159.92 431.68 160.16 427.34 161.47 M 293.13 292.21 C 282.54 295.06 275.61 305.00 272.74 315.09 C 271.13 319.44 277.77 323.20 280.80 319.82 C 282.20 317.72 282.73 315.20 283.83 312.95 C 286.04 307.79 290.04 302.99 295.61 301.42 C 302.69 299.77 310.34 304.17 313.17 310.73 C 315.48 316.28 313.67 322.30 313.97 328.06 C 314.01 333.05 322.91 333.72 323.31 328.57 C 323.71 322.92 324.07 317.18 323.28 311.55 C 320.99 298.21 306.24 288.72 293.13 292.21 Z" />
<path fill="#dd8019" opacity="1.00" d=" M 481.19 407.34 C 496.72 405.99 512.37 405.48 527.92 406.70 C 545.37 407.70 562.91 410.89 578.94 418.04 C 584.72 420.54 589.98 424.04 595.61 426.84 C 597.86 431.46 599.00 436.52 599.28 441.64 C 597.34 442.69 594.80 443.62 594.36 446.09 C 593.50 448.54 595.29 450.62 596.67 452.43 C 607.13 466.08 612.69 482.93 614.70 499.87 C 616.11 514.24 615.55 528.89 612.11 542.95 C 610.11 552.50 606.63 562.05 607.86 571.96 C 608.10 574.51 609.17 576.91 609.50 579.46 C 606.02 591.65 598.29 602.69 587.40 609.33 C 581.61 612.99 575.03 615.18 568.36 616.55 L 567.99 616.63 C 561.27 609.76 552.61 604.97 546.70 597.30 C 541.48 590.68 538.12 582.87 534.76 575.21 C 534.02 573.89 533.53 572.07 531.91 571.63 C 530.57 571.64 529.24 571.75 527.92 571.96 C 527.03 571.65 526.13 571.34 525.25 571.04 C 486.21 590.44 444.32 604.44 401.14 610.80 C 359.69 616.57 316.67 614.98 276.70 601.88 C 275.35 599.57 272.91 597.49 270.04 598.37 C 267.76 598.73 267.19 601.18 266.79 603.08 C 262.82 620.17 252.47 635.90 237.75 645.59 C 222.33 645.02 207.52 639.61 194.42 631.65 C 188.59 627.98 182.36 624.47 178.10 618.92 C 176.39 616.83 175.61 614.22 175.35 611.58 C 193.02 594.44 206.26 572.71 212.94 549.00 C 213.50 547.24 213.14 545.42 212.94 543.66 C 252.78 536.00 290.43 517.25 320.80 490.36 C 322.97 494.16 326.56 497.21 330.98 497.89 C 338.05 499.47 345.02 495.82 349.88 490.91 C 360.90 479.67 368.40 465.24 372.25 450.03 C 376.46 452.07 381.28 453.45 385.94 452.14 C 393.27 450.31 398.47 444.13 401.98 437.78 C 408.99 438.38 416.00 439.08 423.01 439.76 C 425.09 439.79 427.93 440.48 429.09 438.17 C 431.94 433.71 434.31 428.86 438.28 425.23 C 449.62 413.93 465.66 409.16 481.19 407.34 M 504.43 422.63 C 493.81 423.76 483.02 425.53 473.36 430.30 C 467.54 433.24 462.55 439.20 463.35 446.09 C 463.50 450.95 467.73 454.43 472.11 455.69 C 490.49 461.04 509.41 464.65 528.49 466.35 C 535.34 466.91 542.42 467.16 549.08 465.11 C 555.80 463.03 561.69 457.78 563.75 450.95 C 565.33 445.68 563.32 440.06 560.30 435.71 C 555.92 429.62 548.73 426.38 541.71 424.41 C 529.54 421.39 516.84 421.43 504.43 422.63 Z" />
</g>
<g id="#d16e1fff">
<path fill="#d16e1f" opacity="1.00" d=" M 196.09 59.36 C 201.91 62.46 206.71 67.09 211.20 71.84 C 223.82 85.65 232.00 102.76 239.12 119.88 C 249.34 144.13 255.30 170.01 258.00 196.14 C 247.76 194.42 237.37 194.12 227.08 192.89 C 228.44 175.60 226.98 158.20 224.78 141.03 C 221.18 117.96 214.55 95.36 205.03 74.04 C 202.63 68.82 199.42 64.02 196.09 59.36 Z" />
<path fill="#d16e1f" opacity="1.00" d=" M 456.52 165.94 C 456.84 167.65 457.16 169.37 457.43 171.09 C 456.60 191.63 450.00 211.31 443.79 230.73 C 436.12 254.81 425.19 277.66 416.28 301.27 C 411.17 314.62 408.13 328.70 406.99 342.93 C 401.41 341.60 395.64 341.02 389.93 341.70 C 391.47 330.41 397.34 320.40 402.47 310.43 C 408.02 300.47 412.77 290.09 418.01 279.97 C 435.53 243.83 451.97 206.22 456.52 165.94 Z" />
<path fill="#d16e1f" opacity="1.00" d=" M 449.90 398.84 C 465.61 391.97 482.87 388.96 499.97 389.09 C 525.40 389.61 550.37 397.23 572.61 409.37 C 580.65 413.83 588.66 418.79 594.99 425.54 L 595.61 426.84 C 589.98 424.04 584.72 420.54 578.94 418.04 C 562.91 410.89 545.37 407.70 527.92 406.70 C 512.37 405.48 496.72 405.99 481.19 407.34 C 465.66 409.16 449.62 413.93 438.28 425.23 C 434.31 428.86 431.94 433.71 429.09 438.17 C 427.93 440.48 425.09 439.79 423.01 439.76 C 416.00 439.08 408.99 438.38 401.98 437.78 C 405.48 430.93 408.05 423.64 410.14 416.26 C 414.94 416.66 420.26 417.32 424.47 414.42 C 432.75 408.93 440.73 402.82 449.90 398.84 Z" />
</g>
<g id="#f4b255ff">
<path fill="#f4b255" opacity="1.00" d=" M 174.35 83.49 C 177.60 81.63 182.29 82.53 184.12 85.95 C 187.12 91.37 187.96 97.64 189.47 103.58 C 195.87 129.25 201.21 155.44 201.46 181.99 C 201.32 185.78 201.56 189.98 199.29 193.23 C 197.24 195.77 194.05 196.97 191.10 198.12 C 182.53 201.08 173.81 203.55 165.08 205.97 C 159.43 207.52 153.49 207.82 148.00 209.95 C 143.86 211.24 139.62 213.58 135.18 212.72 C 131.70 210.93 132.37 206.30 132.55 203.05 C 135.27 178.61 140.76 154.51 148.22 131.09 C 153.01 116.61 158.78 102.21 167.84 89.81 C 169.66 87.40 171.62 84.93 174.35 83.49 Z" />
<path fill="#f4b255" opacity="1.00" d=" M 427.34 161.47 C 431.68 160.16 437.24 159.92 440.62 163.46 C 444.35 167.74 443.31 173.89 442.15 178.95 C 434.55 209.12 421.95 237.81 407.00 265.02 C 403.84 270.78 401.66 278.15 395.28 281.16 C 387.72 283.46 380.79 278.23 374.88 274.20 C 364.23 266.49 355.32 256.21 349.70 244.29 C 348.22 241.44 348.45 238.00 350.46 235.48 C 367.69 210.87 388.61 188.86 412.24 170.30 C 416.91 166.83 421.73 163.27 427.34 161.47 Z" />
</g>
<g id="#1c1a1953">
<path fill="#1c1a19" opacity="0.33" d=" M 421.53 121.91 C 425.79 120.38 430.43 120.95 434.82 121.53 L 433.54 121.82 C 429.54 121.99 425.53 121.87 421.53 121.91 Z" />
</g>
<g id="#1c1a19a1">
<path fill="#1c1a19" opacity="0.63" d=" M 466.96 153.49 C 468.63 161.05 468.42 169.05 467.00 176.64 C 467.44 168.93 467.67 161.19 466.96 153.49 Z" />
</g>
<g id="#1816167f">
<path fill="#181616" opacity="0.50" d=" M 266.02 184.40 L 265.96 183.48 C 266.43 185.57 266.83 187.69 267.20 189.80 C 267.73 190.13 268.78 190.77 269.31 191.09 C 265.47 191.15 266.41 186.98 266.02 184.40 Z" />
</g>
<g id="#fde8acff">
<path fill="#fde8ac" opacity="1.00" d=" M 260.05 198.30 C 271.02 201.48 281.87 205.09 292.84 208.26 C 271.05 239.39 259.79 277.95 262.69 315.93 C 262.97 318.34 263.24 321.07 265.13 322.83 C 268.40 325.94 272.99 326.88 277.20 328.04 C 283.64 329.79 290.39 331.23 296.01 335.03 C 304.16 340.50 308.07 350.29 316.22 355.78 C 323.83 361.07 333.76 361.11 342.53 359.35 C 358.97 355.74 372.72 344.55 389.44 341.77 C 389.08 348.50 388.41 355.23 388.77 361.97 C 389.28 374.08 390.06 386.56 386.26 398.26 C 384.29 404.11 379.67 410.15 372.99 410.40 C 368.97 410.95 365.60 408.48 362.64 406.14 C 361.20 419.24 356.75 432.21 348.76 442.77 C 344.98 447.63 339.57 452.22 333.05 451.89 C 328.89 452.07 325.40 449.53 322.28 447.11 C 321.77 455.12 319.40 462.92 319.44 470.98 C 319.42 476.37 321.51 481.43 323.57 486.32 C 322.24 487.37 321.35 488.78 320.80 490.36 C 290.43 517.25 252.78 536.00 212.94 543.66 C 210.84 543.02 208.63 541.32 206.41 542.57 C 204.37 543.38 203.87 545.63 203.32 547.51 C 201.05 555.60 197.75 563.37 193.91 570.83 C 181.08 556.31 173.34 538.22 166.76 520.23 C 163.31 508.94 159.10 497.73 158.16 485.87 C 157.24 481.30 156.40 475.54 151.97 473.03 C 149.61 472.88 147.68 474.59 145.50 475.24 C 140.32 477.14 134.54 475.14 130.51 471.69 C 122.81 465.39 118.45 456.11 114.99 447.02 C 110.67 436.12 108.35 424.54 106.73 412.97 C 106.41 410.47 103.47 408.70 101.14 409.75 C 98.46 410.94 96.08 413.13 93.01 413.14 C 86.04 413.18 79.39 408.82 76.37 402.57 C 71.78 393.45 72.60 382.84 73.21 372.97 C 73.94 363.94 74.80 354.02 80.98 346.88 C 81.76 343.64 77.89 341.12 74.92 341.75 C 71.98 341.92 71.05 345.20 69.72 347.29 C 66.06 347.57 61.66 346.66 59.95 343.01 C 56.82 336.96 58.29 329.88 59.32 323.49 C 62.37 307.80 70.00 293.55 77.66 279.71 C 79.80 275.65 82.40 271.86 84.91 268.04 C 94.08 271.96 103.60 276.03 110.50 283.50 C 118.26 292.05 124.12 302.44 133.54 309.40 C 140.20 314.43 148.58 318.26 157.10 316.97 C 166.48 315.51 173.30 307.85 182.43 305.68 C 189.33 304.22 196.31 306.03 202.98 307.77 C 207.00 308.69 211.62 309.80 215.39 307.47 C 219.73 304.63 221.90 299.70 224.24 295.27 C 236.96 270.32 247.55 244.28 255.65 217.46 C 257.80 211.25 258.99 204.77 260.05 198.30 M 219.39 311.56 C 213.56 312.60 214.49 320.00 217.26 323.62 C 221.95 329.67 227.89 335.37 235.45 337.48 C 242.61 339.50 250.28 338.58 257.26 336.28 C 260.51 335.06 264.27 332.82 264.73 329.04 C 264.62 325.74 261.87 323.26 258.88 322.36 C 248.40 318.09 237.54 314.80 226.52 312.27 C 224.20 311.74 221.78 311.01 219.39 311.56 M 164.63 318.98 C 163.16 334.52 173.59 349.26 187.44 355.55 C 187.69 364.14 191.30 372.52 197.44 378.54 C 203.85 385.11 212.76 388.87 221.86 389.59 C 234.60 390.84 249.29 387.55 257.02 376.48 C 272.92 380.68 291.67 374.39 300.04 359.84 C 301.87 356.93 299.26 353.04 296.01 352.99 C 293.18 352.49 291.64 355.21 290.22 357.12 C 286.21 362.73 279.79 366.21 273.14 367.62 C 264.38 369.35 255.36 366.64 247.84 362.17 C 241.60 358.43 236.17 352.49 235.06 345.07 C 235.14 341.96 231.66 340.26 228.99 341.15 C 226.78 342.53 225.32 344.84 223.07 346.17 C 215.10 351.34 204.78 351.00 195.96 348.45 C 186.43 345.74 178.12 338.39 175.20 328.80 C 174.08 325.41 174.33 321.78 173.66 318.31 C 171.84 314.69 165.65 314.83 164.63 318.98 M 87.05 373.01 C 87.73 381.24 88.64 390.25 94.31 396.73 C 98.38 401.31 105.16 402.64 110.78 400.34 C 111.56 423.60 126.03 445.80 147.04 455.83 C 144.32 450.08 140.62 444.84 138.16 438.96 C 130.74 422.71 126.94 404.92 126.63 387.08 C 123.12 388.19 119.39 389.47 115.70 388.45 C 109.31 387.06 104.40 382.04 101.55 376.37 C 95.95 365.32 94.12 352.93 91.72 340.93 C 87.46 350.99 86.55 362.19 87.05 373.01 Z" />
<path fill="#fde8ac" opacity="1.00" d=" M 594.99 425.54 C 602.88 433.09 608.59 443.19 609.51 454.21 C 606.29 449.89 603.99 444.57 599.28 441.64 C 599.00 436.52 597.86 431.46 595.61 426.84 L 594.99 425.54 Z" />
<path fill="#fde8ac" opacity="1.00" d=" M 100.02 539.06 C 105.07 536.67 110.75 536.23 116.08 534.71 C 116.14 547.41 119.24 560.10 125.32 571.26 C 118.34 572.56 111.28 571.61 104.27 571.13 C 99.64 564.59 96.19 556.99 95.54 548.93 C 95.30 545.23 96.42 540.82 100.02 539.06 Z" />
<path fill="#fde8ac" opacity="1.00" d=" M 401.14 610.80 C 444.32 604.44 486.21 590.44 525.25 571.04 C 526.13 571.34 527.03 571.65 527.92 571.96 C 526.76 573.75 524.89 575.60 525.63 577.95 C 526.70 581.14 528.31 584.12 529.60 587.23 C 499.35 608.87 464.84 624.65 428.48 632.64 C 376.38 644.70 320.83 640.03 271.13 620.49 C 273.61 614.50 275.94 608.37 276.70 601.88 C 316.67 614.98 359.69 616.57 401.14 610.80 Z" />
<path fill="#fde8ac" opacity="1.00" d=" M 587.40 609.33 C 598.29 602.69 606.02 591.65 609.50 579.46 C 612.57 587.41 617.82 594.24 623.90 600.14 C 627.41 603.37 629.54 608.25 628.14 613.02 C 625.05 624.73 615.60 634.18 604.50 638.63 C 599.64 640.39 594.00 641.17 589.18 638.89 C 584.93 636.50 582.12 632.38 579.29 628.57 C 576.13 624.14 572.18 620.37 568.36 616.55 C 575.03 615.18 581.61 612.99 587.40 609.33 Z" />
<path fill="#fde8ac" opacity="1.00" d=" M 162.40 626.05 C 165.07 619.98 170.72 616.06 175.35 611.58 C 175.61 614.22 176.39 616.83 178.10 618.92 C 182.36 624.47 188.59 627.98 194.42 631.65 C 207.52 639.61 222.33 645.02 237.75 645.59 C 227.00 652.69 213.96 656.23 201.09 655.23 C 189.54 654.35 177.72 650.85 168.81 643.20 C 164.25 638.96 159.85 632.49 162.40 626.05 Z" />
</g>
<g id="#1d1b1a9a">
<path fill="#1d1b1a" opacity="0.60" d=" M 49.91 325.53 L 49.86 326.38 C 49.58 331.34 49.52 336.32 49.91 341.28 C 48.46 336.14 48.72 330.68 49.91 325.53 Z" />
</g>
<g id="#fef4d3ff">
<path fill="#fef4d3" opacity="1.00" d=" M 87.05 373.01 C 86.55 362.19 87.46 350.99 91.72 340.93 C 94.12 352.93 95.95 365.32 101.55 376.37 C 104.40 382.04 109.31 387.06 115.70 388.45 C 119.39 389.47 123.12 388.19 126.63 387.08 C 126.94 404.92 130.74 422.71 138.16 438.96 C 140.62 444.84 144.32 450.08 147.04 455.83 C 126.03 445.80 111.56 423.60 110.78 400.34 C 105.16 402.64 98.38 401.31 94.31 396.73 C 88.64 390.25 87.73 381.24 87.05 373.01 Z" />
</g>
<g id="#edcc76ff">
<path fill="#edcc76" opacity="1.00" d=" M 389.44 341.77 C 389.56 341.75 389.81 341.72 389.93 341.70 C 395.64 341.02 401.41 341.60 406.99 342.93 C 406.42 358.31 406.14 373.69 405.60 389.07 C 405.06 400.90 402.63 412.60 398.66 423.74 C 395.79 430.14 393.27 437.26 387.57 441.75 C 384.18 444.52 378.88 444.28 375.70 441.31 C 372.99 439.21 375.93 434.83 373.06 432.86 C 370.79 431.08 366.35 431.72 365.99 435.03 C 364.82 440.25 363.43 445.42 361.46 450.41 C 357.48 460.59 353.85 470.97 348.66 480.63 C 345.94 485.78 340.97 490.16 334.96 490.55 C 330.61 490.74 327.91 486.25 323.57 486.32 C 321.51 481.43 319.42 476.37 319.44 470.98 C 319.40 462.92 321.77 455.12 322.28 447.11 C 325.40 449.53 328.89 452.07 333.05 451.89 C 339.57 452.22 344.98 447.63 348.76 442.77 C 356.75 432.21 361.20 419.24 362.64 406.14 C 365.60 408.48 368.97 410.95 372.99 410.40 C 379.67 410.15 384.29 404.11 386.26 398.26 C 390.06 386.56 389.28 374.08 388.77 361.97 C 388.41 355.23 389.08 348.50 389.44 341.77 Z" />
<path fill="#edcc76" opacity="1.00" d=" M 104.27 571.13 C 111.28 571.61 118.34 572.56 125.32 571.26 C 125.39 571.39 125.54 571.64 125.61 571.76 C 129.85 579.17 135.86 585.38 142.72 590.42 C 127.75 590.63 113.08 583.19 104.27 571.13 Z" />
<path fill="#edcc76" opacity="1.00" d=" M 517.87 614.87 C 527.54 616.32 537.42 614.79 546.41 611.05 C 550.43 614.20 554.70 617.03 558.49 620.48 C 551.78 625.65 543.83 631.61 534.84 629.76 C 527.19 627.75 522.14 621.08 517.87 614.87 Z" />
</g>
<g id="#19171767">
<path fill="#191717" opacity="0.40" d=" M 415.01 381.29 C 415.71 368.37 414.00 355.36 415.90 342.51 C 415.77 355.46 415.91 368.41 415.75 381.36 L 415.01 381.29 Z" />
</g>
<g id="#181616b1">
<path fill="#181616" opacity="0.69" d=" M 54.43 349.71 C 55.63 350.35 57.03 351.11 57.21 352.62 C 55.74 353.47 53.53 351.14 54.43 349.71 Z" />
</g>
<g id="#faccc8ff">
<path fill="#faccc8" opacity="1.00" d=" M 197.36 358.82 C 207.62 360.66 218.79 360.32 227.92 354.78 C 231.84 363.23 239.65 368.85 247.58 373.20 C 240.09 380.32 228.77 381.18 219.06 379.46 C 208.56 377.75 199.37 369.37 197.36 358.82 Z" />
</g>
<g id="#1a18179f">
<path fill="#1a1817" opacity="0.62" d=" M 64.96 366.13 L 64.94 367.06 C 64.89 370.52 64.55 373.97 64.12 377.40 C 63.85 373.62 64.12 369.82 64.96 366.13 Z" />
</g>
<g id="#1917175a">
<path fill="#191717" opacity="0.35" d=" M 487.76 379.17 C 494.27 379.10 500.77 379.13 507.28 379.12 L 507.18 380.02 C 500.71 379.76 494.23 379.77 487.76 380.03 L 487.76 379.17 Z" />
</g>
<g id="#19181822">
<path fill="#191818" opacity="0.13" d=" M 63.96 386.55 C 61.92 385.87 61.97 381.17 63.98 380.50 C 64.01 382.52 64.02 384.53 63.96 386.55 Z" />
</g>
<g id="#1918177b">
<path fill="#191817" opacity="0.48" d=" M 510.21 380.41 C 511.52 379.11 515.35 378.94 515.62 381.12 C 513.78 381.20 511.97 380.86 510.21 380.41 Z" />
</g>
<g id="#1a18188f">
<path fill="#1a1818" opacity="0.56" d=" M 414.05 393.76 C 414.21 390.68 414.49 387.60 414.84 384.53 C 415.10 387.92 414.82 391.33 414.00 394.63 L 414.05 393.76 Z" />
</g>
<g id="#1a191887">
<path fill="#1a1918" opacity="0.53" d=" M 412.83 401.59 C 412.76 399.76 413.13 397.96 413.63 396.22 C 414.89 397.54 415.01 401.38 412.83 401.59 Z" />
</g>
<g id="#eeb370ff">
<path fill="#eeb370" opacity="1.00" d=" M 504.43 422.63 C 516.84 421.43 529.54 421.39 541.71 424.41 C 548.73 426.38 555.92 429.62 560.30 435.71 C 563.32 440.06 565.33 445.68 563.75 450.95 C 561.69 457.78 555.80 463.03 549.08 465.11 C 542.42 467.16 535.34 466.91 528.49 466.35 C 509.41 464.65 490.49 461.04 472.11 455.69 C 467.73 454.43 463.50 450.95 463.35 446.09 C 462.55 439.20 467.54 433.24 473.36 430.30 C 483.02 425.53 493.81 423.76 504.43 422.63 Z" />
</g>
<g id="#1a181891">
<path fill="#1a1818" opacity="0.57" d=" M 135.72 484.06 C 139.82 484.48 143.94 484.27 148.03 483.96 C 148.33 485.81 148.64 487.64 148.99 489.49 C 148.57 487.77 148.14 486.05 147.69 484.36 C 143.72 485.15 139.60 485.39 135.72 484.06 Z" />
</g>
<g id="#1b19189a">
<path fill="#1b1918" opacity="0.60" d=" M 624.03 498.23 L 624.00 497.49 C 624.88 501.37 625.20 505.37 624.86 509.34 C 624.45 505.65 624.14 501.95 624.03 498.23 Z" />
</g>
<g id="#f1a539ff">
<path fill="#f1a539" opacity="1.00" d=" M 116.08 534.71 C 130.14 530.27 144.41 524.62 155.25 514.29 C 159.03 527.03 163.80 539.50 169.63 551.45 C 161.15 553.77 154.58 559.92 146.94 563.97 C 140.34 567.80 132.91 569.75 125.61 571.76 C 125.54 571.64 125.39 571.39 125.32 571.26 C 119.24 560.10 116.14 547.41 116.08 534.71 Z" />
</g>
<g id="#1b191899">
<path fill="#1b1918" opacity="0.60" d=" M 624.04 529.78 C 624.10 526.03 624.42 522.29 624.85 518.58 C 625.19 522.58 624.89 526.63 624.02 530.56 L 624.04 529.78 Z" />
</g>
<g id="#1b1a19ab">
<path fill="#1b1a19" opacity="0.67" d=" M 86.90 555.65 C 85.75 551.08 85.48 546.23 86.84 541.67 C 86.52 546.03 86.55 550.41 86.85 554.77 L 86.90 555.65 Z" />
</g>
<g id="#e78f1eff">
<path fill="#e78f1e" opacity="1.00" d=" M 146.94 563.97 C 154.58 559.92 161.15 553.77 169.63 551.45 C 173.39 559.08 177.75 566.44 182.94 573.19 C 179.02 577.50 173.54 579.74 168.67 582.72 C 160.78 587.31 151.88 590.21 142.72 590.42 C 135.86 585.38 129.85 579.17 125.61 571.76 C 132.91 569.75 140.34 567.80 146.94 563.97 Z" />
<path fill="#e78f1e" opacity="1.00" d=" M 514.00 608.94 C 520.83 604.87 527.44 600.45 533.97 595.91 C 537.41 601.49 541.41 606.76 546.41 611.05 C 537.42 614.79 527.54 616.32 517.87 614.87 C 516.56 612.91 515.26 610.93 514.00 608.94 Z" />
</g>
<g id="#1f1d1db7">
<path fill="#1f1d1d" opacity="0.72" d=" M 617.81 572.61 C 616.79 569.28 616.92 565.77 617.80 562.44 C 617.95 565.83 617.93 569.22 617.81 572.61 Z" />
</g>
<g id="#1615157e">
<path fill="#161515" opacity="0.49" d=" M 98.32 578.69 C 99.48 579.54 100.48 580.58 101.16 581.87 C 99.52 582.77 97.21 580.21 98.32 578.69 Z" />
</g>
<g id="#28262586">
<path fill="#282625" opacity="0.53" d=" M 183.33 586.02 C 183.45 584.70 184.63 583.66 185.98 584.01 C 185.79 585.16 185.16 586.00 184.07 586.52 L 183.33 586.02 Z" />
</g>
<g id="#1a1817ad">
<path fill="#1a1817" opacity="0.68" d=" M 133.17 599.12 C 139.49 599.63 145.85 599.64 152.17 599.00 C 145.68 600.53 138.79 600.45 132.29 599.06 L 133.17 599.12 Z" />
</g>
<g id="#14131266">
<path fill="#141312" opacity="0.40" d=" M 168.21 605.05 C 167.43 603.04 170.15 600.33 172.13 601.33 C 171.09 602.83 169.76 604.08 168.21 605.05 Z" />
</g>
<g id="#1e1c1b4f">
<path fill="#1e1c1b" opacity="0.31" d=" M 638.07 607.32 C 640.03 607.67 639.96 612.25 638.01 612.64 C 638.00 610.85 638.02 609.08 638.07 607.32 Z" />
</g>
<g id="#1817167f">
<path fill="#181716" opacity="0.50" d=" M 532.43 639.12 C 536.41 639.35 540.42 639.33 544.40 639.03 C 540.51 640.26 536.32 640.40 532.43 639.12 Z" />
</g>
<g id="#161514b8">
<path fill="#161514" opacity="0.72" d=" M 252.74 645.55 C 253.39 643.73 254.79 642.40 256.58 641.73 C 257.12 643.57 254.57 646.02 252.74 645.55 Z" />
</g>
<g id="#1a19188f">
<path fill="#1a1918" opacity="0.56" d=" M 333.31 645.87 C 335.17 645.71 337.01 646.10 338.80 646.61 C 337.43 647.81 333.65 647.98 333.31 645.87 Z" />
</g>
<g id="#1b19188e">
<path fill="#1b1918" opacity="0.56" d=" M 402.18 646.60 C 403.97 646.11 405.81 645.71 407.69 645.87 C 407.35 647.97 403.54 647.81 402.18 646.60 Z" />
</g>
<g id="#1b191896">
<path fill="#1b1918" opacity="0.59" d=" M 341.40 646.84 C 343.53 646.64 345.66 646.94 347.70 647.60 C 346.04 648.72 342.11 648.97 341.40 646.84 Z" />
</g>
<g id="#1a18188b">
<path fill="#1a1818" opacity="0.55" d=" M 394.15 647.57 C 395.96 647.07 397.82 646.77 399.70 646.86 C 399.33 648.99 395.52 648.79 394.15 647.57 Z" />
</g>
<g id="#1c1b1a90">
<path fill="#1c1b1a" opacity="0.56" d=" M 350.61 648.08 C 363.78 648.40 376.95 648.54 390.13 648.01 L 390.16 648.41 C 376.99 649.05 363.73 649.60 350.61 648.08 Z" />
</g>
<g id="#1a19189c">
<path fill="#1a1918" opacity="0.61" d=" M 193.85 663.96 C 197.02 664.21 200.19 664.54 203.36 664.89 C 200.16 665.16 196.93 664.91 193.85 663.96 Z" />
</g>
<g id="#1a1818a2">
<path fill="#1a1818" opacity="0.64" d=" M 207.52 664.87 C 210.27 664.57 213.02 664.26 215.78 664.07 L 216.68 664.01 C 213.70 664.84 210.60 665.13 207.52 664.87 Z" />
</g>
</svg>
