<?xml version="1.0" encoding="UTF-8" ?>
<!DOCTYPE svg PUBLIC "-//W3C//DTD SVG 1.1//EN" "http://www.w3.org/Graphics/SVG/1.1/DTD/svg11.dtd">
<svg width="506pt" height="842pt" viewBox="0 0 506 842" version="1.1" xmlns="http://www.w3.org/2000/svg">
<g id="#070606ff">
<path fill="#070606" opacity="1.00" d=" M 162.27 37.28 C 169.62 29.20 178.93 22.20 189.87 20.17 C 199.83 18.30 209.85 22.44 217.51 28.61 C 230.51 39.00 238.67 54.06 244.78 69.26 C 257.84 103.86 262.68 141.28 260.74 178.13 C 270.87 183.17 281.00 188.22 291.09 193.36 C 314.57 173.58 341.37 157.79 370.07 146.88 C 385.07 141.01 400.91 136.98 417.05 136.21 C 429.46 136.23 442.90 138.15 452.74 146.36 C 461.39 153.47 464.52 165.22 464.30 176.02 C 463.82 188.86 459.80 201.24 455.10 213.09 C 442.71 242.76 427.59 271.28 410.43 298.46 C 404.86 307.15 398.71 315.47 393.43 324.34 C 386.89 337.88 381.93 352.26 379.45 367.11 C 375.97 393.23 369.84 419.93 354.81 442.04 C 349.98 449.09 342.89 455.79 333.91 456.26 C 329.26 456.63 325.12 454.24 321.35 451.85 C 321.89 470.16 323.52 488.53 327.38 506.46 C 336.41 537.79 354.18 565.77 363.16 597.11 C 369.66 621.14 370.03 646.55 365.94 671.02 C 361.46 701.12 352.08 730.63 337.22 757.26 C 331.60 767.50 325.36 777.68 316.68 785.65 C 307.94 793.53 295.60 796.64 284.06 795.07 C 272.45 793.53 260.25 789.69 252.44 780.47 C 245.15 771.89 243.03 760.45 241.45 749.64 C 235.40 749.26 229.34 748.71 223.40 747.50 C 226.22 759.17 227.14 772.74 219.85 783.03 C 215.03 790.21 206.48 793.70 198.16 794.71 C 174.30 797.05 149.19 786.87 134.84 767.41 C 124.36 753.72 119.19 737.06 111.20 721.97 C 101.47 703.55 89.53 686.41 79.80 667.99 C 70.50 650.40 63.85 631.53 58.53 612.40 C 46.02 566.08 43.77 517.41 48.42 469.80 C 38.95 454.59 30.78 438.02 28.56 420.04 C 26.61 404.50 28.75 387.77 37.77 374.63 C 29.99 371.85 24.71 364.24 24.28 356.07 C 23.13 339.48 28.40 323.13 36.07 308.61 C 30.03 307.40 24.64 302.94 22.95 296.93 C 20.03 289.38 22.41 281.24 24.85 273.92 C 34.00 249.34 51.65 229.23 69.72 210.73 C 82.53 198.78 91.49 183.24 97.59 166.95 C 107.81 135.98 120.91 106.00 136.28 77.24 C 143.87 63.29 151.57 49.15 162.27 37.28 M 169.87 43.94 C 153.87 61.20 143.62 82.70 133.68 103.78 C 124.68 122.32 116.41 141.24 109.53 160.67 C 107.03 166.94 105.55 173.60 102.62 179.71 C 97.23 191.01 90.33 201.62 82.06 211.03 C 77.83 215.87 72.92 220.05 68.45 224.65 C 61.11 232.00 54.97 240.41 48.75 248.70 C 40.51 260.26 33.13 272.97 30.59 287.11 C 29.43 292.74 32.69 299.74 38.99 300.09 C 41.70 300.76 43.05 298.16 44.59 296.53 C 47.52 294.30 52.43 297.36 51.68 300.97 C 51.24 302.78 49.79 304.10 48.77 305.61 C 39.40 318.47 33.85 334.07 32.92 349.95 C 32.78 354.56 32.99 359.95 36.77 363.20 C 39.66 366.35 44.81 366.50 48.08 363.84 C 55.69 358.11 64.69 354.53 73.89 352.28 C 78.15 351.46 83.24 352.54 85.84 356.28 C 87.25 357.92 85.75 359.62 84.96 361.13 C 84.50 361.39 83.59 361.91 83.14 362.17 C 70.74 359.94 58.00 365.63 49.87 374.92 C 42.92 382.66 38.69 392.72 37.77 403.07 C 36.36 416.23 39.28 429.53 44.39 441.63 C 48.07 450.26 52.58 458.53 57.51 466.52 C 63.12 475.27 70.25 483.70 80.06 487.82 C 90.82 492.12 103.80 491.05 113.33 484.28 C 123.35 477.53 129.55 465.97 130.89 454.09 C 132.54 440.28 128.76 426.31 122.22 414.20 C 120.57 411.07 118.00 407.31 121.03 404.11 C 123.31 402.80 126.39 402.39 128.10 404.82 C 136.82 419.49 142.10 436.72 140.54 453.90 C 139.38 468.17 132.38 482.15 120.83 490.80 C 110.11 498.96 95.61 502.20 82.52 498.72 C 72.29 496.52 63.66 489.90 57.04 482.02 C 54.15 521.59 56.14 561.74 65.39 600.40 C 71.74 627.33 81.68 653.49 95.62 677.42 C 101.99 688.09 108.93 698.45 115.71 708.83 C 125.19 726.33 131.17 745.79 143.17 761.88 C 145.40 764.61 147.70 767.30 150.28 769.71 C 159.56 778.76 172.14 783.39 184.77 785.26 C 191.10 785.95 197.65 785.74 203.68 783.51 C 208.69 782.02 212.97 778.06 214.47 773.00 C 217.70 764.00 215.04 754.40 213.16 745.42 C 206.53 744.11 200.28 741.44 193.73 739.84 L 193.66 739.61 C 191.63 738.66 190.44 736.85 189.88 734.75 C 190.13 731.86 192.71 728.69 195.85 730.15 C 211.66 735.83 228.23 739.61 245.06 740.24 C 246.81 740.12 248.34 740.96 249.76 741.89 C 250.52 744.58 250.98 747.34 251.05 750.15 L 251.35 750.34 C 252.43 758.01 253.93 765.99 258.48 772.46 C 262.87 779.06 270.58 782.33 277.95 784.38 C 284.71 786.32 292.06 786.70 298.88 784.83 C 309.53 781.94 316.77 772.69 322.23 763.66 L 322.55 763.54 C 325.84 757.53 329.41 751.68 332.53 745.58 C 342.75 725.84 349.64 704.53 354.34 682.85 C 358.76 659.90 361.69 636.04 356.80 612.92 C 353.70 595.27 346.51 578.74 339.66 562.31 C 335.78 553.38 331.11 544.82 327.01 536.00 C 316.83 515.11 314.66 491.58 312.56 468.76 C 308.28 472.73 305.21 477.91 300.71 481.74 C 297.75 484.07 295.28 487.95 291.09 487.83 C 290.29 487.16 289.47 486.51 288.64 485.89 C 288.68 484.23 288.70 482.33 290.18 481.26 C 294.84 477.58 298.93 473.23 302.47 468.47 C 309.93 458.16 315.79 446.55 318.43 434.05 C 320.80 433.32 323.82 433.10 325.50 435.32 C 327.59 437.80 324.28 441.20 326.39 443.69 C 328.83 447.41 334.19 448.33 338.00 446.26 C 342.94 443.63 346.21 438.88 349.32 434.41 C 357.96 421.40 363.08 406.31 365.82 391.02 C 368.53 377.98 371.06 364.90 373.68 351.84 C 376.48 340.20 380.82 328.94 386.41 318.35 C 396.75 299.40 409.16 281.68 419.96 262.99 C 429.46 246.13 438.62 229.00 445.85 211.03 C 448.64 203.12 451.79 195.18 452.59 186.76 C 454.84 177.94 455.45 168.00 451.34 159.61 C 446.90 151.60 437.65 147.82 428.97 146.64 C 409.82 144.06 390.60 149.08 372.90 156.08 C 345.36 166.69 319.44 181.69 297.00 200.92 C 295.32 202.32 293.50 204.14 291.09 203.78 C 288.40 203.02 286.00 201.53 283.53 200.26 C 273.27 195.29 263.15 190.03 252.93 185.00 C 252.27 184.09 251.62 183.18 250.98 182.27 C 253.57 147.41 249.20 112.08 238.17 78.91 C 233.03 64.06 225.94 49.26 214.23 38.45 C 207.91 32.43 198.97 27.79 190.06 29.92 C 181.92 32.09 175.47 37.92 169.87 43.94 Z" />
<path fill="#070606" opacity="1.00" d=" M 192.47 220.61 C 199.60 218.61 207.02 223.96 208.82 230.83 C 210.43 236.06 208.89 241.68 206.31 246.32 C 202.64 252.86 199.16 259.53 194.70 265.58 C 192.43 268.64 189.53 271.46 185.85 272.70 C 180.51 274.59 173.91 273.21 170.29 268.71 C 166.04 264.18 166.09 257.04 168.72 251.71 C 172.25 244.80 176.67 238.39 180.91 231.90 C 183.84 227.39 186.83 222.01 192.47 220.61 Z" />
<path fill="#070606" opacity="1.00" d=" M 269.40 259.68 C 273.92 257.95 279.89 257.65 283.45 261.48 C 288.65 266.66 288.68 275.14 285.49 281.41 C 281.38 289.16 277.27 296.99 271.89 303.95 C 268.26 308.71 262.06 311.67 256.07 310.26 C 248.47 308.93 243.01 300.24 245.99 292.89 C 249.63 283.55 254.05 274.31 260.71 266.72 C 263.13 263.86 265.85 261.07 269.40 259.68 Z" />
<path fill="#070606" opacity="1.00" d=" M 141.17 289.98 C 142.25 286.59 147.25 285.85 149.38 288.60 C 150.90 289.99 150.42 292.14 150.24 293.94 C 148.36 305.97 155.68 318.24 166.39 323.56 C 176.35 328.93 190.08 331.08 199.44 323.37 C 201.50 321.65 204.64 323.02 205.89 325.08 C 206.66 327.66 206.10 330.46 206.86 333.07 C 209.04 341.70 216.17 348.11 223.71 352.27 C 234.12 358.38 248.56 358.03 257.77 349.83 C 259.67 348.26 261.22 345.47 264.10 345.98 C 267.60 346.22 269.91 350.73 267.69 353.58 C 260.64 361.78 249.79 366.32 239.02 366.02 C 227.70 366.09 216.95 360.82 208.69 353.34 C 203.64 348.60 199.24 342.82 197.54 336.00 C 184.39 340.33 169.60 337.36 158.18 329.88 C 145.26 321.57 137.58 305.16 141.17 289.98 Z" />
<path fill="#070606" opacity="1.00" d=" M 191.36 290.40 C 195.47 288.98 199.59 291.19 203.28 292.80 C 212.86 296.93 222.20 301.64 231.07 307.12 C 233.55 308.58 235.84 310.87 235.78 313.96 C 235.44 317.79 231.26 319.27 228.13 320.28 C 219.71 322.19 210.43 321.33 202.95 316.81 C 197.07 313.09 192.78 307.29 189.64 301.19 C 188.27 297.81 187.47 292.40 191.36 290.40 Z" />
<path fill="#070606" opacity="1.00" d=" M 189.00 432.02 C 198.79 425.46 210.01 420.37 221.99 420.16 C 236.85 419.78 252.67 424.84 262.49 436.47 C 267.55 442.18 270.27 449.47 272.25 456.73 C 273.70 461.98 273.94 467.59 272.88 472.94 C 272.55 475.13 270.13 475.54 268.34 475.78 C 266.35 474.84 263.68 473.64 263.87 470.99 C 264.08 465.58 264.49 459.92 262.17 454.86 C 257.48 443.76 246.32 437.06 235.19 433.80 C 224.49 430.97 212.88 431.00 202.35 434.49 C 191.46 438.24 183.47 447.11 177.01 456.26 C 167.54 469.69 157.96 483.93 155.30 500.49 C 153.58 511.07 155.52 522.91 162.80 531.14 C 169.62 538.88 179.90 543.13 190.11 543.57 C 200.11 544.09 210.03 540.75 218.35 535.33 C 226.69 529.89 233.42 522.29 238.81 513.99 C 240.17 511.93 241.13 509.56 242.93 507.84 C 246.25 505.45 251.44 508.99 250.33 512.96 C 248.73 517.18 245.80 520.73 243.30 524.45 C 233.71 537.22 220.42 547.78 204.75 551.77 C 193.90 554.29 182.10 553.88 171.89 549.19 C 159.56 543.86 149.59 532.78 146.59 519.57 C 143.83 507.81 146.04 495.52 149.42 484.13 C 156.58 463.16 170.26 444.09 189.00 432.02 Z" />
</g>
<g id="#dd8019ff">
<path fill="#dd8019" opacity="1.00" d=" M 169.87 43.94 C 175.47 37.92 181.92 32.09 190.06 29.92 C 198.97 27.79 207.91 32.43 214.23 38.45 C 214.94 42.99 217.46 46.95 218.54 51.38 C 222.96 67.59 225.74 84.24 226.90 101.00 C 227.52 122.71 227.64 144.67 222.87 165.98 C 222.16 168.83 221.95 171.76 221.97 174.69 C 231.82 176.51 241.37 179.51 250.98 182.27 C 251.62 183.18 252.27 184.09 252.93 185.00 C 250.84 189.90 249.37 195.06 246.87 199.78 C 233.19 227.67 216.89 254.31 197.96 278.94 C 194.78 283.14 189.78 287.18 184.15 285.48 C 176.40 283.16 169.27 278.48 161.02 277.94 C 150.38 277.11 141.52 285.39 130.91 284.84 C 122.54 284.34 115.06 279.45 109.50 273.44 C 101.54 265.15 97.45 254.20 91.44 244.59 C 85.88 235.86 77.07 230.03 68.45 224.65 C 72.92 220.05 77.83 215.87 82.06 211.03 C 90.33 201.62 97.23 191.01 102.62 179.71 C 105.55 173.60 107.03 166.94 109.53 160.67 C 116.41 141.24 124.68 122.32 133.68 103.78 C 143.62 82.70 153.87 61.20 169.87 43.94 M 187.38 57.44 C 183.34 59.01 180.23 62.19 177.28 65.26 C 166.11 77.06 158.06 91.35 150.78 105.77 C 140.69 126.05 132.42 147.23 126.02 168.95 C 125.24 172.06 124.34 176.25 127.30 178.51 C 131.14 179.79 135.18 178.55 139.03 177.94 C 146.92 176.21 155.05 177.33 163.00 176.17 C 171.24 175.01 179.62 174.63 187.72 172.56 C 190.49 171.82 193.70 170.87 194.97 168.00 C 197.75 162.08 198.19 155.44 198.93 149.03 C 201.64 124.11 200.39 98.97 198.45 74.05 C 197.99 68.97 198.44 63.18 194.83 59.09 C 193.08 56.87 189.89 56.73 187.38 57.44 M 192.47 220.61 C 186.83 222.01 183.84 227.39 180.91 231.90 C 176.67 238.39 172.25 244.80 168.72 251.71 C 166.09 257.04 166.04 264.18 170.29 268.71 C 173.91 273.21 180.51 274.59 185.85 272.70 C 189.53 271.46 192.43 268.64 194.70 265.58 C 199.16 259.53 202.64 252.86 206.31 246.32 C 208.89 241.68 210.43 236.06 208.82 230.83 C 207.02 223.96 199.60 218.61 192.47 220.61 Z" />
<path fill="#dd8019" opacity="1.00" d=" M 372.90 156.08 C 390.60 149.08 409.82 144.06 428.97 146.64 C 437.65 147.82 446.90 151.60 451.34 159.61 C 455.45 168.00 454.84 177.94 452.59 186.76 C 449.71 190.42 449.03 195.13 447.36 199.36 C 435.26 232.67 415.82 262.66 395.18 291.24 C 387.93 301.28 380.65 311.29 373.11 321.11 C 366.64 329.27 360.60 337.97 356.87 347.77 C 341.40 348.01 327.17 354.91 312.01 356.99 C 302.43 358.36 291.78 357.20 283.88 351.20 C 274.86 344.33 272.94 331.91 264.33 324.68 C 257.49 318.92 248.63 316.66 241.05 312.15 C 238.80 310.70 236.38 308.82 235.95 306.00 C 235.45 302.96 235.90 299.89 236.23 296.86 C 240.75 260.61 257.70 226.09 283.53 200.26 C 286.00 201.53 288.40 203.02 291.09 203.78 C 293.50 204.14 295.32 202.32 297.00 200.92 C 319.44 181.69 345.36 166.69 372.90 156.08 M 422.39 176.61 C 416.43 177.94 410.98 180.84 405.63 183.67 C 380.17 197.81 356.61 215.44 336.19 236.22 C 331.15 239.97 333.57 246.56 335.57 251.30 C 340.26 263.79 348.38 274.88 358.45 283.59 C 362.61 287.01 368.15 290.73 373.74 288.62 C 379.70 285.88 382.88 279.80 386.73 274.84 C 406.47 249.88 424.05 222.94 436.55 193.60 C 438.50 188.82 439.34 181.90 434.53 178.55 C 431.18 175.70 426.45 176.01 422.39 176.61 M 269.40 259.68 C 265.85 261.07 263.13 263.86 260.71 266.72 C 254.05 274.31 249.63 283.55 245.99 292.89 C 243.01 300.24 248.47 308.93 256.07 310.26 C 262.06 311.67 268.26 308.71 271.89 303.95 C 277.27 296.99 281.38 289.16 285.49 281.41 C 288.68 275.14 288.65 266.66 283.45 261.48 C 279.89 257.65 273.92 257.95 269.40 259.68 Z" />
<path fill="#dd8019" opacity="1.00" d=" M 83.14 362.17 C 83.59 361.91 84.50 361.39 84.96 361.13 C 94.49 365.58 102.43 372.83 108.88 381.05 C 114.19 387.96 119.01 395.52 121.03 404.11 C 118.00 407.31 120.57 411.07 122.22 414.20 C 123.28 426.27 117.98 438.14 110.05 447.01 C 103.02 454.89 92.81 460.43 82.07 460.13 C 67.51 459.95 54.10 452.06 44.39 441.63 C 39.28 429.53 36.36 416.23 37.77 403.07 C 38.69 392.72 42.92 382.66 49.87 374.92 C 58.00 365.63 70.74 359.94 83.14 362.17 Z" />
<path fill="#dd8019" opacity="1.00" d=" M 202.35 434.49 C 212.88 431.00 224.49 430.97 235.19 433.80 C 246.32 437.06 257.48 443.76 262.17 454.86 C 264.49 459.92 264.08 465.58 263.87 470.99 C 263.68 473.64 266.35 474.84 268.34 475.78 C 268.11 477.89 267.83 480.00 267.58 482.12 C 270.13 484.85 273.13 487.48 276.96 488.08 C 280.99 489.06 285.03 487.59 288.64 485.89 C 289.47 486.51 290.29 487.16 291.09 487.83 C 291.57 497.91 291.82 508.09 294.09 517.98 C 296.87 535.91 306.17 551.79 314.41 567.65 C 323.23 582.89 330.20 599.47 332.81 616.97 C 334.75 628.20 334.09 639.65 334.04 651.00 C 332.62 675.61 326.16 699.57 318.99 723.04 C 314.11 738.63 309.49 754.70 299.97 768.23 L 299.54 768.23 C 282.07 767.59 265.61 760.03 251.35 750.34 L 251.05 750.15 C 250.98 747.34 250.52 744.58 249.76 741.89 C 257.81 739.61 264.92 734.61 270.16 728.14 C 277.96 718.44 281.52 706.02 282.75 693.81 C 284.36 677.82 283.40 661.54 279.73 645.88 C 271.59 611.19 248.86 581.56 243.37 546.07 C 241.83 538.91 243.69 531.66 243.30 524.45 C 245.80 520.73 248.73 517.18 250.33 512.96 C 251.44 508.99 246.25 505.45 242.93 507.84 C 241.13 509.56 240.17 511.93 238.81 513.99 C 229.36 518.67 218.08 520.72 207.93 517.06 C 193.34 512.45 184.04 498.57 179.25 484.73 C 175.91 475.62 176.11 465.78 177.01 456.26 C 183.47 447.11 191.46 438.24 202.35 434.49 Z" />
<path fill="#dd8019" opacity="1.00" d=" M 115.71 708.83 C 129.04 719.51 145.31 725.81 161.88 729.42 C 171.07 731.96 180.70 732.20 189.88 734.75 C 190.44 736.85 191.63 738.66 193.66 739.61 L 193.73 739.84 C 195.63 745.90 196.71 752.16 197.76 758.42 C 197.64 758.48 197.41 758.61 197.29 758.68 C 192.45 760.97 187.27 762.55 181.95 763.17 C 169.09 764.73 155.73 765.84 143.17 761.88 C 131.17 745.79 125.19 726.33 115.71 708.83 Z" />
</g>
<g id="#d16e1fff">
<path fill="#d16e1f" opacity="1.00" d=" M 214.23 38.45 C 225.94 49.26 233.03 64.06 238.17 78.91 C 249.20 112.08 253.57 147.41 250.98 182.27 C 241.37 179.51 231.82 176.51 221.97 174.69 C 221.95 171.76 222.16 168.83 222.87 165.98 C 227.64 144.67 227.52 122.71 226.90 101.00 C 225.74 84.24 222.96 67.59 218.54 51.38 C 217.46 46.95 214.94 42.99 214.23 38.45 Z" />
<path fill="#d16e1f" opacity="1.00" d=" M 447.36 199.36 C 449.03 195.13 449.71 190.42 452.59 186.76 C 451.79 195.18 448.64 203.12 445.85 211.03 C 438.62 229.00 429.46 246.13 419.96 262.99 C 409.16 281.68 396.75 299.40 386.41 318.35 C 380.82 328.94 376.48 340.20 373.68 351.84 C 368.33 349.60 362.67 348.12 356.87 347.77 C 360.60 337.97 366.64 329.27 373.11 321.11 C 380.65 311.29 387.93 301.28 395.18 291.24 C 415.82 262.66 435.26 232.67 447.36 199.36 Z" />
<path fill="#d16e1f" opacity="1.00" d=" M 300.71 481.74 C 305.21 477.91 308.28 472.73 312.56 468.76 C 314.66 491.58 316.83 515.11 327.01 536.00 C 331.11 544.82 335.78 553.38 339.66 562.31 C 346.51 578.74 353.70 595.27 356.80 612.92 C 361.69 636.04 358.76 659.90 354.34 682.85 C 349.64 704.53 342.75 725.84 332.53 745.58 C 329.41 751.68 325.84 757.53 322.55 763.54 L 322.23 763.66 C 315.19 766.70 307.68 768.52 299.97 768.23 C 309.49 754.70 314.11 738.63 318.99 723.04 C 326.16 699.57 332.62 675.61 334.04 651.00 C 334.09 639.65 334.75 628.20 332.81 616.97 C 330.20 599.47 323.23 582.89 314.41 567.65 C 306.17 551.79 296.87 535.91 294.09 517.98 C 291.82 508.09 291.57 497.91 291.09 487.83 C 295.28 487.95 297.75 484.07 300.71 481.74 Z" />
<path fill="#d16e1f" opacity="1.00" d=" M 193.73 739.84 C 200.28 741.44 206.53 744.11 213.16 745.42 C 208.88 750.68 203.67 755.09 197.76 758.42 C 196.71 752.16 195.63 745.90 193.73 739.84 Z" />
</g>
<g id="#f3b65aff">
<path fill="#f3b65a" opacity="1.00" d=" M 187.38 57.44 C 189.89 56.73 193.08 56.87 194.83 59.09 C 198.44 63.18 197.99 68.97 198.45 74.05 C 200.39 98.97 201.64 124.11 198.93 149.03 C 198.19 155.44 197.75 162.08 194.97 168.00 C 193.70 170.87 190.49 171.82 187.72 172.56 C 179.62 174.63 171.24 175.01 163.00 176.17 C 155.05 177.33 146.92 176.21 139.03 177.94 C 135.18 178.55 131.14 179.79 127.30 178.51 C 124.34 176.25 125.24 172.06 126.02 168.95 C 132.42 147.23 140.69 126.05 150.78 105.77 C 158.06 91.35 166.11 77.06 177.28 65.26 C 180.23 62.19 183.34 59.01 187.38 57.44 Z" />
<path fill="#f3b65a" opacity="1.00" d=" M 422.39 176.61 C 426.45 176.01 431.18 175.70 434.53 178.55 C 439.34 181.90 438.50 188.82 436.55 193.60 C 424.05 222.94 406.47 249.88 386.73 274.84 C 382.88 279.80 379.70 285.88 373.74 288.62 C 368.15 290.73 362.61 287.01 358.45 283.59 C 348.38 274.88 340.26 263.79 335.57 251.30 C 333.57 246.56 331.15 239.97 336.19 236.22 C 356.61 215.44 380.17 197.81 405.63 183.67 C 410.98 180.84 416.43 177.94 422.39 176.61 Z" />
<path fill="#f3b65a" opacity="1.00" d=" M 356.87 347.77 C 362.67 348.12 368.33 349.60 373.68 351.84 C 371.06 364.90 368.53 377.98 365.82 391.02 C 363.08 406.31 357.96 421.40 349.32 434.41 C 346.21 438.88 342.94 443.63 338.00 446.26 C 334.19 448.33 328.83 447.41 326.39 443.69 C 324.28 441.20 327.59 437.80 325.50 435.32 C 323.82 433.10 320.80 433.32 318.43 434.05 C 320.06 425.94 320.52 417.66 321.35 409.45 C 324.57 412.49 329.33 414.50 333.70 412.81 C 340.00 410.76 343.85 404.78 346.17 398.92 C 352.74 382.57 351.59 364.47 356.87 347.77 Z" />
<path fill="#f3b65a" opacity="1.00" d=" M 197.76 758.42 C 203.67 755.09 208.88 750.68 213.16 745.42 C 215.04 754.40 217.70 764.00 214.47 773.00 C 212.97 778.06 208.69 782.02 203.68 783.51 C 197.65 785.74 191.10 785.95 184.77 785.26 C 188.16 783.30 191.65 781.06 193.37 777.39 C 196.20 771.62 197.81 765.11 197.29 758.68 C 197.41 758.61 197.64 758.48 197.76 758.42 Z" />
<path fill="#f3b65a" opacity="1.00" d=" M 299.97 768.23 C 307.68 768.52 315.19 766.70 322.23 763.66 C 316.77 772.69 309.53 781.94 298.88 784.83 C 292.06 786.70 284.71 786.32 277.95 784.38 C 286.38 781.12 294.66 776.05 299.54 768.23 L 299.97 768.23 Z" />
</g>
<g id="#fde8acff">
<path fill="#fde8ac" opacity="1.00" d=" M 246.87 199.78 C 249.37 195.06 250.84 189.90 252.93 185.00 C 263.15 190.03 273.27 195.29 283.53 200.26 C 257.70 226.09 240.75 260.61 236.23 296.86 C 235.90 299.89 235.45 302.96 235.95 306.00 C 236.38 308.82 238.80 310.70 241.05 312.15 C 248.63 316.66 257.49 318.92 264.33 324.68 C 272.94 331.91 274.86 344.33 283.88 351.20 C 291.78 357.20 302.43 358.36 312.01 356.99 C 327.17 354.91 341.40 348.01 356.87 347.77 C 351.59 364.47 352.74 382.57 346.17 398.92 C 343.85 404.78 340.00 410.76 333.70 412.81 C 329.33 414.50 324.57 412.49 321.35 409.45 C 320.52 417.66 320.06 425.94 318.43 434.05 C 315.79 446.55 309.93 458.16 302.47 468.47 C 298.93 473.23 294.84 477.58 290.18 481.26 C 288.70 482.33 288.68 484.23 288.64 485.89 C 285.03 487.59 280.99 489.06 276.96 488.08 C 273.13 487.48 270.13 484.85 267.58 482.12 C 267.83 480.00 268.11 477.89 268.34 475.78 C 270.13 475.54 272.55 475.13 272.88 472.94 C 273.94 467.59 273.70 461.98 272.25 456.73 C 270.27 449.47 267.55 442.18 262.49 436.47 C 252.67 424.84 236.85 419.78 221.99 420.16 C 210.01 420.37 198.79 425.46 189.00 432.02 C 170.26 444.09 156.58 463.16 149.42 484.13 C 146.04 495.52 143.83 507.81 146.59 519.57 C 149.59 532.78 159.56 543.86 171.89 549.19 C 182.10 553.88 193.90 554.29 204.75 551.77 C 220.42 547.78 233.71 537.22 243.30 524.45 C 243.69 531.66 241.83 538.91 243.37 546.07 C 248.86 581.56 271.59 611.19 279.73 645.88 C 283.40 661.54 284.36 677.82 282.75 693.81 C 281.52 706.02 277.96 718.44 270.16 728.14 C 264.92 734.61 257.81 739.61 249.76 741.89 C 248.34 740.96 246.81 740.12 245.06 740.24 C 228.23 739.61 211.66 735.83 195.85 730.15 C 192.71 728.69 190.13 731.86 189.88 734.75 C 180.70 732.20 171.07 731.96 161.88 729.42 C 145.31 725.81 129.04 719.51 115.71 708.83 C 108.93 698.45 101.99 688.09 95.62 677.42 C 81.68 653.49 71.74 627.33 65.39 600.40 C 56.14 561.74 54.15 521.59 57.04 482.02 C 63.66 489.90 72.29 496.52 82.52 498.72 C 95.61 502.20 110.11 498.96 120.83 490.80 C 132.38 482.15 139.38 468.17 140.54 453.90 C 142.10 436.72 136.82 419.49 128.10 404.82 C 126.39 402.39 123.31 402.80 121.03 404.11 C 119.01 395.52 114.19 387.96 108.88 381.05 C 102.43 372.83 94.49 365.58 84.96 361.13 C 85.75 359.62 87.25 357.92 85.84 356.28 C 83.24 352.54 78.15 351.46 73.89 352.28 C 64.69 354.53 55.69 358.11 48.08 363.84 C 44.81 366.50 39.66 366.35 36.77 363.20 C 32.99 359.95 32.78 354.56 32.92 349.95 C 33.85 334.07 39.40 318.47 48.77 305.61 C 49.79 304.10 51.24 302.78 51.68 300.97 C 52.43 297.36 47.52 294.30 44.59 296.53 C 43.05 298.16 41.70 300.76 38.99 300.09 C 32.69 299.74 29.43 292.74 30.59 287.11 C 33.13 272.97 40.51 260.26 48.75 248.70 C 54.97 240.41 61.11 232.00 68.45 224.65 C 77.07 230.03 85.88 235.86 91.44 244.59 C 97.45 254.20 101.54 265.15 109.50 273.44 C 115.06 279.45 122.54 284.34 130.91 284.84 C 141.52 285.39 150.38 277.11 161.02 277.94 C 169.27 278.48 176.40 283.16 184.15 285.48 C 189.78 287.18 194.78 283.14 197.96 278.94 C 216.89 254.31 233.19 227.67 246.87 199.78 M 141.17 289.98 C 137.58 305.16 145.26 321.57 158.18 329.88 C 169.60 337.36 184.39 340.33 197.54 336.00 C 199.24 342.82 203.64 348.60 208.69 353.34 C 216.95 360.82 227.70 366.09 239.02 366.02 C 249.79 366.32 260.64 361.78 267.69 353.58 C 269.91 350.73 267.60 346.22 264.10 345.98 C 261.22 345.47 259.67 348.26 257.77 349.83 C 248.56 358.03 234.12 358.38 223.71 352.27 C 216.17 348.11 209.04 341.70 206.86 333.07 C 206.10 330.46 206.66 327.66 205.89 325.08 C 204.64 323.02 201.50 321.65 199.44 323.37 C 190.08 331.08 176.35 328.93 166.39 323.56 C 155.68 318.24 148.36 305.97 150.24 293.94 C 150.42 292.14 150.90 289.99 149.38 288.60 C 147.25 285.85 142.25 286.59 141.17 289.98 M 191.36 290.40 C 187.47 292.40 188.27 297.81 189.64 301.19 C 192.78 307.29 197.07 313.09 202.95 316.81 C 210.43 321.33 219.71 322.19 228.13 320.28 C 231.26 319.27 235.44 317.79 235.78 313.96 C 235.84 310.87 233.55 308.58 231.07 307.12 C 222.20 301.64 212.86 296.93 203.28 292.80 C 199.59 291.19 195.47 288.98 191.36 290.40 M 88.25 528.38 C 79.84 530.92 75.01 539.10 71.47 546.57 C 65.99 559.97 68.71 574.89 72.57 588.33 C 77.64 605.79 83.83 622.92 91.60 639.38 C 94.52 645.83 97.44 652.53 102.31 657.80 C 105.84 661.58 111.72 664.11 116.66 661.60 C 119.71 659.01 120.14 654.75 120.24 651.02 C 120.63 636.68 120.58 622.25 118.26 608.06 C 117.10 598.31 115.22 588.67 113.63 579.00 C 111.67 564.77 110.40 549.99 103.94 536.94 C 101.23 531.18 94.82 526.43 88.25 528.38 Z" />
<path fill="#fde8ac" opacity="1.00" d=" M 122.22 414.20 C 128.76 426.31 132.54 440.28 130.89 454.09 C 129.55 465.97 123.35 477.53 113.33 484.28 C 103.80 491.05 90.82 492.12 80.06 487.82 C 70.25 483.70 63.12 475.27 57.51 466.52 C 52.58 458.53 48.07 450.26 44.39 441.63 C 54.10 452.06 67.51 459.95 82.07 460.13 C 92.81 460.43 103.02 454.89 110.05 447.01 C 117.98 438.14 123.28 426.27 122.22 414.20 Z" />
<path fill="#fde8ac" opacity="1.00" d=" M 155.30 500.49 C 157.96 483.93 167.54 469.69 177.01 456.26 C 176.11 465.78 175.91 475.62 179.25 484.73 C 184.04 498.57 193.34 512.45 207.93 517.06 C 218.08 520.72 229.36 518.67 238.81 513.99 C 233.42 522.29 226.69 529.89 218.35 535.33 C 210.03 540.75 200.11 544.09 190.11 543.57 C 179.90 543.13 169.62 538.88 162.80 531.14 C 155.52 522.91 153.58 511.07 155.30 500.49 Z" />
<path fill="#fde8ac" opacity="1.00" d=" M 251.35 750.34 C 265.61 760.03 282.07 767.59 299.54 768.23 C 294.66 776.05 286.38 781.12 277.95 784.38 C 270.58 782.33 262.87 779.06 258.48 772.46 C 253.93 765.99 252.43 758.01 251.35 750.34 Z" />
<path fill="#fde8ac" opacity="1.00" d=" M 181.95 763.17 C 187.27 762.55 192.45 760.97 197.29 758.68 C 197.81 765.11 196.20 771.62 193.37 777.39 C 191.65 781.06 188.16 783.30 184.77 785.26 C 172.14 783.39 159.56 778.76 150.28 769.71 C 147.70 767.30 145.40 764.61 143.17 761.88 C 155.73 765.84 169.09 764.73 181.95 763.17 Z" />
</g>
<g id="#fef4d3ff">
<path fill="#fef4d3" opacity="1.00" d=" M 88.25 528.38 C 94.82 526.43 101.23 531.18 103.94 536.94 C 110.40 549.99 111.67 564.77 113.63 579.00 C 115.22 588.67 117.10 598.31 118.26 608.06 C 120.58 622.25 120.63 636.68 120.24 651.02 C 120.14 654.75 119.71 659.01 116.66 661.60 C 111.72 664.11 105.84 661.58 102.31 657.80 C 97.44 652.53 94.52 645.83 91.60 639.38 C 83.83 622.92 77.64 605.79 72.57 588.33 C 68.71 574.89 65.99 559.97 71.47 546.57 C 75.01 539.10 79.84 530.92 88.25 528.38 Z" />
</g>
</svg>
