<?xml version="1.0" encoding="UTF-8" ?>
<!DOCTYPE svg PUBLIC "-//W3C//DTD SVG 1.1//EN" "http://www.w3.org/Graphics/SVG/1.1/DTD/svg11.dtd">
<svg width="626pt" height="824pt" viewBox="0 0 626 824" version="1.1" xmlns="http://www.w3.org/2000/svg">
<g id="#070606ff">
<path fill="#070606" opacity="1.00" d=" M 227.01 69.33 C 233.76 62.75 243.57 59.31 252.95 60.68 C 265.28 62.54 276.17 69.52 285.23 77.79 C 300.02 91.62 310.90 109.02 320.05 126.95 C 331.66 149.22 339.84 173.20 344.86 197.79 C 355.90 200.40 367.08 202.31 378.13 204.88 C 388.16 190.59 399.58 177.28 412.15 165.17 C 414.07 163.40 415.80 161.31 418.18 160.12 C 419.92 159.39 421.26 158.04 422.26 156.45 C 425.14 152.95 429.06 150.50 432.47 147.55 C 450.14 133.62 469.73 120.89 492.03 116.12 C 494.80 115.51 497.61 115.08 500.45 114.92 C 503.42 114.89 506.39 114.88 509.37 114.93 C 518.64 115.66 527.98 119.79 533.56 127.45 C 538.33 134.06 541.58 142.05 541.84 150.25 C 541.72 151.84 542.09 153.39 542.56 154.91 C 543.51 159.71 543.16 164.68 542.85 169.54 C 542.51 172.52 542.26 175.51 541.97 178.50 C 541.88 178.91 541.71 179.74 541.63 180.15 C 541.11 181.95 540.74 183.81 540.84 185.69 C 540.29 196.21 537.57 206.48 535.72 216.82 C 531.59 236.81 526.41 256.58 520.28 276.05 C 516.66 286.42 513.11 296.81 509.52 307.18 C 508.69 308.94 508.49 311.05 509.46 312.81 C 516.18 328.94 531.95 339.03 538.80 355.09 C 541.52 361.38 542.22 369.26 538.19 375.17 C 533.29 382.44 524.98 386.28 516.98 389.13 C 517.68 393.74 517.92 398.64 515.99 403.01 C 513.20 409.89 506.60 414.85 499.36 416.14 C 496.14 416.23 492.91 416.19 489.69 416.23 C 489.49 417.99 489.30 419.74 489.04 421.50 C 487.20 427.69 482.53 432.80 477.00 436.00 C 469.98 440.32 461.79 441.94 453.99 444.23 C 458.66 454.06 461.69 464.68 463.05 475.48 C 463.35 481.48 463.39 487.50 463.04 493.50 C 462.94 493.91 462.76 494.73 462.66 495.14 C 462.11 496.89 461.71 498.73 461.86 500.60 C 461.77 505.87 462.25 511.32 464.98 515.96 C 468.21 521.69 471.74 527.25 474.80 533.08 C 480.88 543.73 485.24 555.30 488.38 567.13 C 489.85 572.87 491.89 578.45 494.05 583.96 C 495.06 586.76 498.35 587.21 500.78 588.19 C 512.20 592.24 523.77 597.99 531.14 607.97 C 534.84 612.88 537.14 618.80 537.94 624.89 C 538.39 630.11 538.31 635.37 538.02 640.61 C 536.47 650.55 533.39 660.24 529.05 669.32 C 525.72 675.97 519.84 681.58 512.46 683.30 C 503.27 685.27 493.87 683.21 484.93 680.98 C 467.79 677.10 451.37 670.69 435.23 663.86 C 433.89 667.92 432.29 672.10 429.04 675.03 C 424.07 679.60 417.33 681.43 410.98 683.18 C 406.21 684.13 401.50 685.69 396.61 685.80 C 394.76 685.72 392.94 686.10 391.18 686.61 C 382.86 687.90 373.97 686.40 366.57 682.35 C 357.94 677.26 354.61 666.95 353.84 657.49 C 351.13 657.72 348.43 657.99 345.72 658.07 C 341.94 658.02 338.16 657.88 334.40 658.15 C 334.33 658.54 334.19 659.31 334.13 659.69 C 333.37 668.81 329.24 678.39 320.83 682.87 C 311.13 687.82 299.68 687.89 289.21 685.71 C 279.91 683.77 270.16 682.26 261.96 677.18 C 257.17 674.22 254.66 669.00 253.05 663.82 C 234.56 671.84 215.50 678.82 195.68 682.70 C 195.15 682.72 194.11 682.75 193.59 682.77 C 191.44 682.64 189.31 683.03 187.27 683.66 C 178.92 685.26 169.60 682.62 163.92 676.12 C 158.86 670.41 156.39 663.01 153.93 655.93 C 152.11 649.91 150.35 643.80 149.93 637.49 C 149.88 634.28 149.93 631.08 150.01 627.87 C 150.38 618.36 154.89 609.19 161.79 602.71 C 169.57 595.31 179.58 590.85 189.64 587.45 C 191.59 586.75 193.81 585.81 194.46 583.63 C 199.21 569.85 203.50 555.91 208.25 542.13 C 198.92 541.45 189.44 538.88 181.84 533.27 C 176.23 528.98 172.06 522.34 172.01 515.13 C 171.92 512.26 171.85 509.39 171.89 506.52 C 172.02 505.86 172.28 504.55 172.40 503.89 C 172.87 502.41 173.20 500.88 173.15 499.33 C 173.22 494.09 175.07 489.13 176.14 484.05 C 180.57 466.17 188.39 449.14 198.74 433.92 C 182.96 430.56 167.03 427.60 151.78 422.21 C 139.47 417.97 126.99 411.54 119.76 400.27 C 116.98 396.02 115.09 391.21 113.93 386.28 C 113.53 381.09 113.54 375.87 114.03 370.69 C 117.32 355.73 127.53 343.19 139.79 334.44 C 138.80 332.38 137.70 330.38 136.94 328.23 C 136.44 324.04 136.44 319.80 136.92 315.62 C 138.02 312.17 140.02 309.10 142.17 306.22 C 133.88 303.75 126.35 297.84 123.93 289.26 C 123.67 285.98 123.67 282.68 123.87 279.41 C 126.06 272.60 132.14 267.96 138.62 265.53 C 152.70 260.57 166.71 254.67 178.79 245.75 C 183.66 242.25 183.23 235.81 184.15 230.53 C 184.72 226.95 184.93 223.32 185.04 219.70 C 185.06 219.41 185.11 218.83 185.13 218.54 C 185.60 214.84 185.90 211.13 186.03 207.41 C 186.05 207.18 186.08 206.73 186.10 206.50 C 186.46 203.53 186.76 200.56 187.06 197.58 C 187.14 197.15 187.31 196.28 187.39 195.84 C 187.85 194.06 188.18 192.24 188.17 190.39 C 191.44 162.61 197.36 135.12 205.16 108.26 C 209.30 95.70 214.13 82.77 223.31 72.97 C 224.58 71.79 225.82 70.58 227.01 69.33 M 234.51 75.50 C 227.86 81.25 223.74 89.21 219.92 96.98 C 211.17 115.92 207.13 136.55 203.33 156.93 C 197.82 184.02 194.49 211.51 192.70 239.08 C 192.53 243.64 190.92 248.33 187.23 251.23 C 179.43 257.67 170.61 262.87 161.22 266.62 C 153.94 269.74 146.05 271.30 139.02 275.04 C 136.15 276.47 133.80 278.99 132.70 282.02 C 131.21 286.94 134.41 291.98 138.39 294.68 C 143.17 298.16 149.26 298.56 154.91 299.34 C 158.31 299.59 160.16 304.38 157.77 306.84 C 154.67 308.63 150.92 309.59 148.63 312.55 C 144.25 317.26 143.83 325.08 147.77 330.17 C 150.62 334.28 155.47 336.25 160.07 337.67 C 163.88 338.87 168.01 338.79 171.70 340.33 C 174.61 343.41 171.86 347.26 169.88 349.94 C 166.42 355.28 169.81 361.54 172.73 366.27 C 180.68 377.38 191.90 385.67 203.75 392.22 C 224.48 408.77 248.40 420.87 273.26 429.89 C 289.24 435.40 305.59 440.15 322.37 442.50 C 331.43 444.68 340.81 445.20 350.07 446.02 C 364.01 446.77 378.12 447.48 391.95 445.27 C 408.11 444.28 424.12 441.71 439.96 438.42 C 450.17 435.77 460.82 434.27 470.36 429.52 C 474.84 427.11 479.23 423.57 480.68 418.49 C 481.52 415.69 480.54 412.82 480.53 410.00 C 480.73 407.57 483.50 405.83 485.80 406.59 C 491.48 408.01 498.10 408.77 503.14 405.15 C 507.79 402.27 509.91 396.05 508.07 390.93 C 507.22 388.53 504.60 386.76 504.85 384.06 C 506.61 381.23 510.15 380.47 513.09 379.45 C 517.13 378.04 521.58 378.16 525.52 376.41 C 532.15 372.54 534.42 363.03 530.56 356.44 C 527.62 351.40 523.73 346.85 519.36 343.02 C 515.83 338.82 511.80 335.07 508.60 330.61 C 504.93 325.19 501.75 319.48 499.07 313.52 C 499.18 309.66 499.61 305.78 501.24 302.23 C 509.11 281.25 515.55 259.75 521.01 238.02 C 525.67 217.55 531.22 197.12 532.70 176.09 C 533.07 170.21 533.50 164.28 532.60 158.43 C 532.50 149.30 531.06 139.34 524.97 132.11 C 518.68 125.04 508.36 123.55 499.40 124.60 C 477.93 127.42 459.03 139.24 442.18 152.19 C 419.82 169.02 400.25 189.49 384.35 212.52 C 381.80 216.87 376.33 214.06 372.54 213.59 C 361.40 211.02 350.13 209.03 339.01 206.35 C 338.32 205.89 337.61 205.49 336.87 205.15 C 335.16 198.49 333.86 191.74 332.20 185.08 C 324.49 155.92 311.84 128.02 294.75 103.16 C 286.56 91.68 276.61 81.04 264.05 74.31 C 260.81 72.71 257.43 71.36 253.87 70.69 C 247.15 69.03 239.68 70.89 234.51 75.50 M 128.79 358.74 C 123.25 367.89 121.22 379.63 125.27 389.75 C 128.19 398.07 135.30 404.12 142.91 408.11 C 153.87 413.78 166.02 416.47 177.91 419.46 C 183.87 421.04 189.94 422.16 195.97 423.42 C 194.80 415.70 195.58 407.77 198.11 400.40 C 190.41 393.86 182.43 387.68 174.27 381.74 C 167.88 377.29 163.03 370.75 160.50 363.40 C 158.68 358.05 159.40 352.19 161.48 347.03 C 156.43 345.60 151.47 343.83 146.88 341.26 C 139.70 345.70 133.20 351.47 128.79 358.74 M 206.47 424.71 C 208.23 428.59 210.73 432.29 214.27 434.75 C 216.78 436.65 220.10 434.90 222.86 435.89 C 226.12 437.86 225.83 443.80 221.96 444.90 C 216.19 446.79 210.43 443.72 206.01 440.22 C 196.03 455.54 188.42 472.50 184.54 490.40 C 182.78 498.34 180.67 506.44 181.56 514.63 C 182.05 519.60 185.01 524.19 189.27 526.78 C 198.20 532.32 209.27 533.39 219.50 532.12 C 231.27 531.14 242.93 527.31 252.81 520.80 C 259.83 516.10 265.84 508.76 266.11 499.97 C 267.32 482.43 257.82 466.67 248.12 452.87 C 245.87 449.24 243.04 446.07 240.17 442.94 C 238.64 440.17 240.92 437.74 242.18 435.46 C 243.12 432.91 243.30 430.16 243.84 427.52 C 240.25 425.80 236.72 423.97 233.12 422.29 L 233.10 422.16 C 223.98 417.27 214.96 412.16 206.38 406.35 C 204.78 412.30 204.07 418.87 206.47 424.71 M 253.03 431.61 C 252.50 434.35 251.97 437.10 251.40 439.84 C 265.91 453.95 286.53 458.67 306.01 460.86 C 328.99 463.47 352.62 462.82 374.90 456.20 C 375.41 455.89 375.58 455.34 375.74 454.82 C 373.75 456.15 371.26 455.62 369.02 455.76 C 329.27 455.49 289.49 447.50 253.03 431.61 M 421.41 451.28 C 416.05 452.62 410.49 452.80 405.11 453.98 C 400.54 455.89 396.38 458.70 391.61 460.16 L 391.54 460.56 C 377.55 466.08 362.85 469.69 347.88 471.16 C 338.65 472.13 329.30 473.16 320.05 471.92 C 316.32 471.50 312.59 471.08 308.85 470.78 C 293.58 469.07 278.17 466.53 264.08 460.10 C 271.84 473.02 277.51 488.22 275.34 503.49 C 273.89 514.48 265.97 523.31 256.93 529.07 C 256.55 565.17 257.63 601.27 259.59 637.32 C 260.15 646.89 259.96 656.94 264.26 665.76 C 265.69 668.81 269.03 670.13 272.03 671.14 C 280.20 673.78 288.50 676.21 297.04 677.27 C 304.22 678.01 312.11 677.54 318.20 673.25 C 323.73 668.94 324.84 661.51 325.02 654.95 C 325.08 647.66 325.09 640.37 325.27 633.08 C 326.23 605.06 327.15 577.00 327.77 548.95 C 327.73 546.91 328.61 545.04 329.25 543.16 C 332.46 541.61 337.78 542.50 337.42 546.99 C 336.97 568.77 336.24 590.54 335.72 612.32 C 335.28 624.43 334.71 636.54 335.01 648.66 C 341.07 648.75 347.13 648.49 353.17 647.92 C 353.30 636.30 353.06 624.68 352.64 613.08 C 352.17 590.72 351.22 568.37 350.98 546.02 C 351.36 542.20 355.78 542.10 358.67 542.81 C 361.11 546.05 360.49 550.19 360.67 553.99 C 361.39 581.94 362.23 609.89 362.91 637.84 C 363.55 646.94 362.22 656.29 364.77 665.18 C 366.03 669.90 369.63 673.91 374.26 675.52 C 384.38 679.44 395.44 676.97 405.56 674.37 C 410.55 672.84 415.74 671.72 420.44 669.39 C 423.94 667.61 425.19 663.64 426.15 660.13 C 428.37 652.47 428.38 644.44 428.74 636.55 C 430.75 623.13 430.15 609.54 430.31 596.00 C 430.58 574.04 429.81 551.97 432.59 530.13 C 433.32 526.23 433.34 521.54 436.78 518.90 C 437.71 518.85 439.55 518.76 440.47 518.71 C 441.80 525.30 440.47 532.05 441.06 538.70 C 440.25 577.20 440.64 615.78 436.99 654.15 C 446.46 658.15 455.98 662.14 465.80 665.20 C 477.36 668.92 488.94 673.07 501.09 674.37 C 506.20 674.90 511.99 674.58 516.01 670.96 C 520.73 666.84 522.34 660.55 524.54 654.93 C 528.37 642.94 531.48 629.25 525.61 617.36 C 520.43 606.59 508.86 601.33 498.11 597.78 L 498.44 598.38 L 498.07 598.21 C 495.36 596.06 491.38 595.71 489.45 592.62 C 485.28 586.33 482.93 579.06 479.81 572.23 C 472.25 555.58 468.16 537.33 458.17 521.82 C 456.19 518.51 453.55 515.15 453.91 511.06 C 454.20 500.05 454.03 489.04 454.03 478.03 C 453.97 466.82 450.31 455.86 444.65 446.28 C 436.98 448.30 429.18 449.73 421.41 451.28 M 218.29 542.10 C 214.21 555.12 209.54 567.95 205.78 581.07 C 204.63 585.09 203.19 589.22 200.21 592.28 C 198.14 594.58 195.19 595.69 192.38 596.79 C 184.16 599.89 175.50 602.85 168.96 608.98 C 162.64 614.80 159.33 623.47 159.42 631.99 C 159.47 640.22 161.46 648.36 164.30 656.03 L 164.91 656.41 L 164.64 656.65 C 166.35 662.62 168.84 669.12 174.41 672.51 C 179.73 675.46 186.12 674.62 191.88 673.77 C 201.92 672.02 211.60 668.71 221.30 665.68 C 231.49 662.34 241.46 658.36 251.33 654.17 C 250.35 643.35 249.61 632.52 249.10 621.67 C 247.77 592.57 246.99 563.43 247.34 534.30 C 238.10 538.28 228.36 541.22 218.29 542.10 Z" />
<path fill="#070606" opacity="1.00" d=" M 296.19 260.21 C 302.70 258.66 308.34 264.01 310.22 269.81 C 312.43 277.92 308.89 286.02 306.77 293.76 C 304.56 300.75 302.62 308.88 296.06 313.12 C 289.97 317.39 280.73 315.44 276.78 309.19 C 273.09 303.95 275.21 297.26 276.37 291.55 C 277.91 283.06 280.80 274.77 285.45 267.47 C 287.88 263.76 291.82 261.05 296.19 260.21 Z" />
<path fill="#070606" opacity="1.00" d=" M 383.24 296.31 C 395.78 293.55 409.59 302.15 412.25 314.76 C 413.19 320.09 413.53 325.55 413.43 330.96 C 413.03 335.44 405.71 335.76 404.42 331.67 C 403.03 326.11 404.70 320.04 402.28 314.67 C 398.88 306.63 387.93 302.65 380.46 307.53 C 374.90 311.26 372.83 317.95 371.07 324.05 C 370.06 329.30 360.82 327.24 361.90 322.05 C 363.80 310.70 371.13 298.57 383.24 296.31 Z" />
<path fill="#070606" opacity="1.00" d=" M 307.33 323.39 C 311.29 321.54 315.72 323.05 319.81 323.62 C 330.21 325.21 340.51 327.48 350.53 330.69 C 353.30 331.78 356.11 334.74 355.07 337.95 C 353.21 342.22 348.62 344.30 344.43 345.64 C 337.11 348.44 328.59 348.89 321.36 345.58 C 315.66 343.11 310.74 339.00 306.80 334.26 C 304.49 331.20 303.09 325.48 307.33 323.39 Z" />
<path fill="#070606" opacity="1.00" d=" M 257.76 335.97 C 258.30 331.42 265.45 330.92 266.98 335.10 C 267.66 338.37 267.83 341.80 269.15 344.92 C 272.97 354.37 282.12 361.19 292.10 362.83 C 300.65 364.32 310.32 363.99 317.60 358.74 C 320.11 357.07 321.61 354.31 324.08 352.62 C 326.57 352.07 329.65 353.16 329.92 356.02 C 332.64 367.05 343.52 373.55 353.94 375.89 C 363.89 378.31 375.14 375.87 382.46 368.49 C 384.88 366.13 386.35 363.02 388.47 360.43 C 391.66 357.04 398.33 361.66 396.08 365.86 C 389.60 379.13 374.67 387.18 360.06 386.34 C 345.90 385.59 331.29 378.90 323.62 366.59 C 313.08 373.94 299.21 374.49 287.07 371.55 C 271.07 367.67 257.66 352.79 257.76 335.97 Z" />
</g>
<g id="#1312123e">
<path fill="#131212" opacity="0.24" d=" M 223.31 72.97 C 221.99 70.92 224.97 68.04 227.01 69.33 C 225.82 70.58 224.58 71.79 223.31 72.97 Z" />
</g>
<g id="#dd8019ff">
<path fill="#dd8019" opacity="1.00" d=" M 234.51 75.50 C 239.68 70.89 247.15 69.03 253.87 70.69 C 257.43 71.36 260.81 72.71 264.05 74.31 C 266.67 78.81 270.08 82.79 272.63 87.33 C 288.01 114.35 298.27 144.29 302.91 175.02 C 304.87 184.58 304.71 194.39 306.04 204.03 C 316.30 204.55 326.74 202.96 336.87 205.15 C 337.61 205.49 338.32 205.89 339.01 206.35 C 338.24 214.16 337.36 221.99 335.41 229.62 C 329.83 255.38 322.10 280.67 312.27 305.13 C 310.19 310.08 308.55 315.67 304.18 319.16 C 300.89 321.71 296.45 321.15 292.59 320.69 C 285.06 319.61 277.09 318.17 269.72 320.88 C 261.85 323.37 257.36 331.77 249.00 333.17 C 238.82 335.13 229.08 329.66 221.24 323.73 C 214.93 318.75 208.84 313.04 205.37 305.66 C 203.17 300.95 201.29 296.04 198.23 291.80 C 189.28 279.53 176.39 269.51 161.22 266.62 C 170.61 262.87 179.43 257.67 187.23 251.23 C 190.92 248.33 192.53 243.64 192.70 239.08 C 194.49 211.51 197.82 184.02 203.33 156.93 C 207.13 136.55 211.17 115.92 219.92 96.98 C 223.74 89.21 227.86 81.25 234.51 75.50 M 247.25 98.45 C 242.90 98.75 239.97 102.44 237.79 105.83 C 227.95 121.79 223.35 140.22 219.51 158.38 C 215.31 180.36 212.41 202.67 212.30 225.08 C 212.26 228.00 213.46 232.25 217.04 232.22 C 221.54 231.65 225.47 229.15 229.64 227.53 C 234.90 225.11 240.70 224.31 246.07 222.20 C 254.21 219.06 262.41 216.02 270.33 212.35 C 273.43 210.71 277.23 209.16 278.48 205.57 C 279.58 201.78 279.10 197.76 278.80 193.89 C 275.75 164.20 266.15 135.74 256.38 107.71 C 255.00 103.53 252.37 98.36 247.25 98.45 M 296.19 260.21 C 291.82 261.05 287.88 263.76 285.45 267.47 C 280.80 274.77 277.91 283.06 276.37 291.55 C 275.21 297.26 273.09 303.95 276.78 309.19 C 280.73 315.44 289.97 317.39 296.06 313.12 C 302.62 308.88 304.56 300.75 306.77 293.76 C 308.89 286.02 312.43 277.92 310.22 269.81 C 308.34 264.01 302.70 258.66 296.19 260.21 Z" />
<path fill="#dd8019" opacity="1.00" d=" M 499.40 124.60 C 508.36 123.55 518.68 125.04 524.97 132.11 C 531.06 139.34 532.50 149.30 532.60 158.43 C 530.33 166.53 530.30 175.03 528.23 183.18 C 520.81 219.25 505.46 252.92 491.89 286.96 C 490.64 290.31 489.14 294.05 490.51 297.62 C 492.53 303.32 495.76 308.49 499.07 313.52 C 501.75 319.48 504.93 325.19 508.60 330.61 C 507.66 333.08 506.73 335.55 505.81 338.02 L 505.50 337.95 C 489.96 334.76 473.03 337.74 459.93 346.81 C 449.63 353.63 438.43 360.10 425.93 361.44 C 418.38 362.29 410.43 360.36 404.61 355.35 C 397.84 349.79 392.92 341.79 384.59 338.30 C 376.23 334.44 366.69 335.08 358.16 331.87 C 354.65 330.72 352.49 327.40 352.07 323.84 C 345.92 286.21 353.08 246.43 372.54 213.59 C 376.33 214.06 381.80 216.87 384.35 212.52 C 400.25 189.49 419.82 169.02 442.18 152.19 C 459.03 139.24 477.93 127.42 499.40 124.60 M 503.27 154.37 C 497.15 156.62 492.18 161.06 487.43 165.37 C 465.99 185.67 447.45 209.04 432.67 234.59 C 431.04 237.18 429.90 240.50 431.78 243.30 C 439.46 257.13 451.87 268.13 466.04 275.02 C 470.94 277.27 477.28 279.65 482.15 276.03 C 487.48 272.05 488.80 265.07 491.35 259.30 C 503.70 231.05 513.63 201.54 518.41 171.01 C 519.05 166.18 519.64 160.62 516.44 156.51 C 513.24 152.75 507.57 152.86 503.27 154.37 M 383.24 296.31 C 371.13 298.57 363.80 310.70 361.90 322.05 C 360.82 327.24 370.06 329.30 371.07 324.05 C 372.83 317.95 374.90 311.26 380.46 307.53 C 387.93 302.65 398.88 306.63 402.28 314.67 C 404.70 320.04 403.03 326.11 404.42 331.67 C 405.71 335.76 413.03 335.44 413.43 330.96 C 413.53 325.55 413.19 320.09 412.25 314.76 C 409.59 302.15 395.78 293.55 383.24 296.31 Z" />
<path fill="#dd8019" opacity="1.00" d=" M 405.11 453.98 C 410.49 452.80 416.05 452.62 421.41 451.28 C 424.27 454.27 426.76 457.63 428.66 461.33 C 437.00 476.05 438.62 493.38 439.10 509.97 C 439.00 513.06 439.77 516.89 436.78 518.90 C 433.34 521.54 433.32 526.23 432.59 530.13 C 429.81 551.97 430.58 574.04 430.31 596.00 C 430.15 609.54 430.75 623.13 428.74 636.55 C 422.20 642.37 413.68 645.70 404.97 646.20 C 394.72 646.79 384.46 645.32 374.41 643.41 C 370.13 642.65 366.26 640.55 362.91 637.84 C 362.23 609.89 361.39 581.94 360.67 553.99 C 360.49 550.19 361.11 546.05 358.67 542.81 C 363.14 526.69 372.61 512.67 379.69 497.67 C 385.44 485.97 389.81 473.53 391.54 460.56 L 391.61 460.16 C 396.38 458.70 400.54 455.89 405.11 453.98 Z" />
<path fill="#dd8019" opacity="1.00" d=" M 264.08 460.10 C 278.17 466.53 293.58 469.07 308.85 470.78 C 311.17 491.15 319.80 509.94 325.90 529.31 C 327.32 533.83 329.02 538.37 329.25 543.16 C 328.61 545.04 327.73 546.91 327.77 548.95 C 327.15 577.00 326.23 605.06 325.27 633.08 C 322.61 638.19 318.58 642.72 313.32 645.21 C 306.28 648.60 298.18 648.48 290.59 647.68 C 279.74 646.36 268.53 643.99 259.59 637.32 C 257.63 601.27 256.55 565.17 256.93 529.07 C 265.97 523.31 273.89 514.48 275.34 503.49 C 277.51 488.22 271.84 473.02 264.08 460.10 Z" />
<path fill="#dd8019" opacity="1.00" d=" M 218.29 542.10 C 228.36 541.22 238.10 538.28 247.34 534.30 C 246.99 563.43 247.77 592.57 249.10 621.67 C 245.01 625.38 241.26 629.48 236.77 632.73 C 229.43 638.03 221.56 642.59 213.27 646.23 C 210.51 647.42 207.93 648.94 205.37 650.50 C 205.17 650.17 204.98 649.86 204.80 649.56 C 195.64 633.64 192.12 615.01 192.38 596.79 C 195.19 595.69 198.14 594.58 200.21 592.28 C 203.19 589.22 204.63 585.09 205.78 581.07 C 209.54 567.95 214.21 555.12 218.29 542.10 Z" />
<path fill="#dd8019" opacity="1.00" d=" M 441.06 538.70 C 444.49 547.77 451.07 555.12 455.33 563.76 C 459.82 571.75 462.93 580.37 466.23 588.89 C 467.87 593.68 473.28 594.80 477.68 595.49 C 484.62 596.48 491.47 598.03 498.42 598.92 C 498.33 598.74 498.16 598.39 498.07 598.21 L 498.44 598.38 C 503.29 607.27 503.11 618.06 500.76 627.68 C 498.00 639.20 492.15 650.38 482.65 657.73 C 477.74 661.51 471.91 664.13 465.80 665.20 C 455.98 662.14 446.46 658.15 436.99 654.15 C 440.64 615.78 440.25 577.20 441.06 538.70 Z" />
</g>
<g id="#d16e1fff">
<path fill="#d16e1f" opacity="1.00" d=" M 264.05 74.31 C 276.61 81.04 286.56 91.68 294.75 103.16 C 311.84 128.02 324.49 155.92 332.20 185.08 C 333.86 191.74 335.16 198.49 336.87 205.15 C 326.74 202.96 316.30 204.55 306.04 204.03 C 304.71 194.39 304.87 184.58 302.91 175.02 C 298.27 144.29 288.01 114.35 272.63 87.33 C 270.08 82.79 266.67 78.81 264.05 74.31 Z" />
<path fill="#d16e1f" opacity="1.00" d=" M 528.23 183.18 C 530.30 175.03 530.33 166.53 532.60 158.43 C 533.50 164.28 533.07 170.21 532.70 176.09 C 531.22 197.12 525.67 217.55 521.01 238.02 C 515.55 259.75 509.11 281.25 501.24 302.23 C 499.61 305.78 499.18 309.66 499.07 313.52 C 495.76 308.49 492.53 303.32 490.51 297.62 C 489.14 294.05 490.64 290.31 491.89 286.96 C 505.46 252.92 520.81 219.25 528.23 183.18 Z" />
<path fill="#d16e1f" opacity="1.00" d=" M 508.60 330.61 C 511.80 335.07 515.83 338.82 519.36 343.02 C 515.04 340.85 510.51 339.11 505.81 338.02 C 506.73 335.55 507.66 333.08 508.60 330.61 Z" />
<path fill="#d16e1f" opacity="1.00" d=" M 421.41 451.28 C 429.18 449.73 436.98 448.30 444.65 446.28 C 450.31 455.86 453.97 466.82 454.03 478.03 C 454.03 489.04 454.20 500.05 453.91 511.06 C 453.55 515.15 456.19 518.51 458.17 521.82 C 468.16 537.33 472.25 555.58 479.81 572.23 C 482.93 579.06 485.28 586.33 489.45 592.62 C 491.38 595.71 495.36 596.06 498.07 598.21 C 498.16 598.39 498.33 598.74 498.42 598.92 C 491.47 598.03 484.62 596.48 477.68 595.49 C 473.28 594.80 467.87 593.68 466.23 588.89 C 462.93 580.37 459.82 571.75 455.33 563.76 C 451.07 555.12 444.49 547.77 441.06 538.70 C 440.47 532.05 441.80 525.30 440.47 518.71 C 439.55 518.76 437.71 518.85 436.78 518.90 C 439.77 516.89 439.00 513.06 439.10 509.97 C 438.62 493.38 437.00 476.05 428.66 461.33 C 426.76 457.63 424.27 454.27 421.41 451.28 Z" />
<path fill="#d16e1f" opacity="1.00" d=" M 236.77 632.73 C 241.26 629.48 245.01 625.38 249.10 621.67 C 249.61 632.52 250.35 643.35 251.33 654.17 C 241.46 658.36 231.49 662.34 221.30 665.68 C 214.78 662.09 209.17 656.92 205.37 650.50 C 207.93 648.94 210.51 647.42 213.27 646.23 C 221.56 642.59 229.43 638.03 236.77 632.73 Z" />
</g>
<g id="#f4b255ff">
<path fill="#f4b255" opacity="1.00" d=" M 247.25 98.45 C 252.37 98.36 255.00 103.53 256.38 107.71 C 266.15 135.74 275.75 164.20 278.80 193.89 C 279.10 197.76 279.58 201.78 278.48 205.57 C 277.23 209.16 273.43 210.71 270.33 212.35 C 262.41 216.02 254.21 219.06 246.07 222.20 C 240.70 224.31 234.90 225.11 229.64 227.53 C 225.47 229.15 221.54 231.65 217.04 232.22 C 213.46 232.25 212.26 228.00 212.30 225.08 C 212.41 202.67 215.31 180.36 219.51 158.38 C 223.35 140.22 227.95 121.79 237.79 105.83 C 239.97 102.44 242.90 98.75 247.25 98.45 Z" />
<path fill="#f4b255" opacity="1.00" d=" M 503.27 154.37 C 507.57 152.86 513.24 152.75 516.44 156.51 C 519.64 160.62 519.05 166.18 518.41 171.01 C 513.63 201.54 503.70 231.05 491.35 259.30 C 488.80 265.07 487.48 272.05 482.15 276.03 C 477.28 279.65 470.94 277.27 466.04 275.02 C 451.87 268.13 439.46 257.13 431.78 243.30 C 429.90 240.50 431.04 237.18 432.67 234.59 C 447.45 209.04 465.99 185.67 487.43 165.37 C 492.18 161.06 497.15 156.62 503.27 154.37 Z" />
</g>
<g id="#1f1d1c34">
<path fill="#1f1d1c" opacity="0.20" d=" M 500.45 114.92 C 503.27 113.57 506.56 113.53 509.37 114.93 C 506.39 114.88 503.42 114.89 500.45 114.92 Z" />
</g>
<g id="#1b191999">
<path fill="#1b1919" opacity="0.60" d=" M 541.84 150.25 C 543.84 150.31 543.82 153.82 542.56 154.91 C 542.09 153.39 541.72 151.84 541.84 150.25 Z" />
</g>
<g id="#14131293">
<path fill="#141312" opacity="0.58" d=" M 418.18 160.12 C 417.55 158.22 420.40 155.69 422.26 156.45 C 421.26 158.04 419.92 159.39 418.18 160.12 Z" />
</g>
<g id="#1b19189d">
<path fill="#1b1918" opacity="0.62" d=" M 541.97 178.50 C 542.26 175.51 542.51 172.52 542.85 169.54 C 543.13 172.56 542.88 175.61 541.97 178.50 Z" />
</g>
<g id="#1b191988">
<path fill="#1b1919" opacity="0.53" d=" M 540.84 185.69 C 540.74 183.81 541.11 181.95 541.63 180.15 C 542.83 181.56 542.96 185.30 540.84 185.69 Z" />
</g>
<g id="#1a181879">
<path fill="#1a1818" opacity="0.47" d=" M 187.39 195.84 C 186.06 194.50 185.99 190.72 188.17 190.39 C 188.18 192.24 187.85 194.06 187.39 195.84 Z" />
</g>
<g id="#1a19188d">
<path fill="#1a1918" opacity="0.55" d=" M 186.10 206.50 C 185.93 203.49 186.20 200.47 187.06 197.58 C 186.76 200.56 186.46 203.53 186.10 206.50 Z" />
</g>
<g id="#fde8acff">
<path fill="#fde8ac" opacity="1.00" d=" M 339.01 206.35 C 350.13 209.03 361.40 211.02 372.54 213.59 C 353.08 246.43 345.92 286.21 352.07 323.84 C 352.49 327.40 354.65 330.72 358.16 331.87 C 366.69 335.08 376.23 334.44 384.59 338.30 C 392.92 341.79 397.84 349.79 404.61 355.35 C 410.43 360.36 418.38 362.29 425.93 361.44 C 438.43 360.10 449.63 353.63 459.93 346.81 C 473.03 337.74 489.96 334.76 505.50 337.95 C 497.93 361.54 484.23 383.21 466.20 400.19 C 455.48 409.62 442.43 415.89 429.38 421.41 C 405.37 431.20 379.82 436.79 354.12 439.83 C 343.58 441.21 332.95 441.51 322.37 442.50 C 305.59 440.15 289.24 435.40 273.26 429.89 C 248.40 420.87 224.48 408.77 203.75 392.22 C 191.90 385.67 180.68 377.38 172.73 366.27 C 169.81 361.54 166.42 355.28 169.88 349.94 C 171.86 347.26 174.61 343.41 171.70 340.33 C 168.01 338.79 163.88 338.87 160.07 337.67 C 155.47 336.25 150.62 334.28 147.77 330.17 C 143.83 325.08 144.25 317.26 148.63 312.55 C 150.92 309.59 154.67 308.63 157.77 306.84 C 160.16 304.38 158.31 299.59 154.91 299.34 C 149.26 298.56 143.17 298.16 138.39 294.68 C 134.41 291.98 131.21 286.94 132.70 282.02 C 133.80 278.99 136.15 276.47 139.02 275.04 C 146.05 271.30 153.94 269.74 161.22 266.62 C 176.39 269.51 189.28 279.53 198.23 291.80 C 201.29 296.04 203.17 300.95 205.37 305.66 C 208.84 313.04 214.93 318.75 221.24 323.73 C 229.08 329.66 238.82 335.13 249.00 333.17 C 257.36 331.77 261.85 323.37 269.72 320.88 C 277.09 318.17 285.06 319.61 292.59 320.69 C 296.45 321.15 300.89 321.71 304.18 319.16 C 308.55 315.67 310.19 310.08 312.27 305.13 C 322.10 280.67 329.83 255.38 335.41 229.62 C 337.36 221.99 338.24 214.16 339.01 206.35 M 307.33 323.39 C 303.09 325.48 304.49 331.20 306.80 334.26 C 310.74 339.00 315.66 343.11 321.36 345.58 C 328.59 348.89 337.11 348.44 344.43 345.64 C 348.62 344.30 353.21 342.22 355.07 337.95 C 356.11 334.74 353.30 331.78 350.53 330.69 C 340.51 327.48 330.21 325.21 319.81 323.62 C 315.72 323.05 311.29 321.54 307.33 323.39 M 257.76 335.97 C 257.66 352.79 271.07 367.67 287.07 371.55 C 299.21 374.49 313.08 373.94 323.62 366.59 C 331.29 378.90 345.90 385.59 360.06 386.34 C 374.67 387.18 389.60 379.13 396.08 365.86 C 398.33 361.66 391.66 357.04 388.47 360.43 C 386.35 363.02 384.88 366.13 382.46 368.49 C 375.14 375.87 363.89 378.31 353.94 375.89 C 343.52 373.55 332.64 367.05 329.92 356.02 C 329.65 353.16 326.57 352.07 324.08 352.62 C 321.61 354.31 320.11 357.07 317.60 358.74 C 310.32 363.99 300.65 364.32 292.10 362.83 C 282.12 361.19 272.97 354.37 269.15 344.92 C 267.83 341.80 267.66 338.37 266.98 335.10 C 265.45 330.92 258.30 331.42 257.76 335.97 Z" />
<path fill="#fde8ac" opacity="1.00" d=" M 347.88 471.16 C 362.85 469.69 377.55 466.08 391.54 460.56 C 389.81 473.53 385.44 485.97 379.69 497.67 C 372.61 512.67 363.14 526.69 358.67 542.81 C 355.78 542.10 351.36 542.20 350.98 546.02 C 351.22 568.37 352.17 590.72 352.64 613.08 C 346.99 612.93 341.35 612.69 335.72 612.32 C 336.24 590.54 336.97 568.77 337.42 546.99 C 337.78 542.50 332.46 541.61 329.25 543.16 C 329.02 538.37 327.32 533.83 325.90 529.31 C 319.80 509.94 311.17 491.15 308.85 470.78 C 312.59 471.08 316.32 471.50 320.05 471.92 C 329.30 473.16 338.65 472.13 347.88 471.16 Z" />
<path fill="#fde8ac" opacity="1.00" d=" M 168.96 608.98 C 175.50 602.85 184.16 599.89 192.38 596.79 C 192.12 615.01 195.64 633.64 204.80 649.56 C 193.71 655.41 180.73 660.39 168.09 657.07 C 167.02 656.83 165.97 656.61 164.91 656.41 L 164.30 656.03 C 161.46 648.36 159.47 640.22 159.42 631.99 C 159.33 623.47 162.64 614.80 168.96 608.98 Z" />
<path fill="#fde8ac" opacity="1.00" d=" M 498.44 598.38 L 498.11 597.78 C 508.86 601.33 520.43 606.59 525.61 617.36 C 531.48 629.25 528.37 642.94 524.54 654.93 C 522.34 660.55 520.73 666.84 516.01 670.96 C 511.99 674.58 506.20 674.90 501.09 674.37 C 488.94 673.07 477.36 668.92 465.80 665.20 C 471.91 664.13 477.74 661.51 482.65 657.73 C 492.15 650.38 498.00 639.20 500.76 627.68 C 503.11 618.06 503.29 607.27 498.44 598.38 Z" />
<path fill="#fde8ac" opacity="1.00" d=" M 313.32 645.21 C 318.58 642.72 322.61 638.19 325.27 633.08 C 325.09 640.37 325.08 647.66 325.02 654.95 C 324.84 661.51 323.73 668.94 318.20 673.25 C 312.11 677.54 304.22 678.01 297.04 677.27 C 288.50 676.21 280.20 673.78 272.03 671.14 C 269.03 670.13 265.69 668.81 264.26 665.76 C 259.96 656.94 260.15 646.89 259.59 637.32 C 268.53 643.99 279.74 646.36 290.59 647.68 C 298.18 648.48 306.28 648.60 313.32 645.21 Z" />
<path fill="#fde8ac" opacity="1.00" d=" M 404.97 646.20 C 413.68 645.70 422.20 642.37 428.74 636.55 C 428.38 644.44 428.37 652.47 426.15 660.13 C 425.19 663.64 423.94 667.61 420.44 669.39 C 415.74 671.72 410.55 672.84 405.56 674.37 C 395.44 676.97 384.38 679.44 374.26 675.52 C 369.63 673.91 366.03 669.90 364.77 665.18 C 362.22 656.29 363.55 646.94 362.91 637.84 C 366.26 640.55 370.13 642.65 374.41 643.41 C 384.46 645.32 394.72 646.79 404.97 646.20 Z" />
</g>
<g id="#1a18188c">
<path fill="#1a1818" opacity="0.55" d=" M 185.13 218.54 C 184.91 214.81 185.11 211.04 186.03 207.41 C 185.90 211.13 185.60 214.84 185.13 218.54 Z" />
</g>
<g id="#1a181777">
<path fill="#1a1817" opacity="0.47" d=" M 184.15 230.53 C 183.93 226.90 184.07 223.23 185.04 219.70 C 184.93 223.32 184.72 226.95 184.15 230.53 Z" />
</g>
<g id="#1a19188a">
<path fill="#1a1918" opacity="0.54" d=" M 123.93 289.26 C 122.74 286.07 122.67 282.61 123.87 279.41 C 123.67 282.68 123.67 285.98 123.93 289.26 Z" />
</g>
<g id="#19171666">
<path fill="#191716" opacity="0.40" d=" M 509.46 312.81 C 508.49 311.05 508.69 308.94 509.52 307.18 C 510.73 308.70 510.71 311.31 509.46 312.81 Z" />
</g>
<g id="#1b1919a2">
<path fill="#1b1919" opacity="0.64" d=" M 136.94 328.23 C 135.62 324.13 135.60 319.72 136.92 315.62 C 136.44 319.80 136.44 324.04 136.94 328.23 Z" />
</g>
<g id="#edcc76ff">
<path fill="#edcc76" opacity="1.00" d=" M 505.50 337.95 L 505.81 338.02 C 510.51 339.11 515.04 340.85 519.36 343.02 C 523.73 346.85 527.62 351.40 530.56 356.44 C 534.42 363.03 532.15 372.54 525.52 376.41 C 521.58 378.16 517.13 378.04 513.09 379.45 C 510.15 380.47 506.61 381.23 504.85 384.06 C 504.60 386.76 507.22 388.53 508.07 390.93 C 509.91 396.05 507.79 402.27 503.14 405.15 C 498.10 408.77 491.48 408.01 485.80 406.59 C 483.50 405.83 480.73 407.57 480.53 410.00 C 480.54 412.82 481.52 415.69 480.68 418.49 C 479.23 423.57 474.84 427.11 470.36 429.52 C 460.82 434.27 450.17 435.77 439.96 438.42 C 424.12 441.71 408.11 444.28 391.95 445.27 C 378.12 447.48 364.01 446.77 350.07 446.02 C 340.81 445.20 331.43 444.68 322.37 442.50 C 332.95 441.51 343.58 441.21 354.12 439.83 C 379.82 436.79 405.37 431.20 429.38 421.41 C 442.43 415.89 455.48 409.62 466.20 400.19 C 484.23 383.21 497.93 361.54 505.50 337.95 Z" />
<path fill="#edcc76" opacity="1.00" d=" M 335.72 612.32 C 341.35 612.69 346.99 612.93 352.64 613.08 C 353.06 624.68 353.30 636.30 353.17 647.92 C 347.13 648.49 341.07 648.75 335.01 648.66 C 334.71 636.54 335.28 624.43 335.72 612.32 Z" />
<path fill="#edcc76" opacity="1.00" d=" M 204.80 649.56 C 204.98 649.86 205.17 650.17 205.37 650.50 C 209.17 656.92 214.78 662.09 221.30 665.68 C 211.60 668.71 201.92 672.02 191.88 673.77 C 186.12 674.62 179.73 675.46 174.41 672.51 C 168.84 669.12 166.35 662.62 164.64 656.65 L 164.91 656.41 C 165.97 656.61 167.02 656.83 168.09 657.07 C 180.73 660.39 193.71 655.41 204.80 649.56 Z" />
</g>
<g id="#e76228ff">
<path fill="#e76228" opacity="1.00" d=" M 128.79 358.74 C 133.20 351.47 139.70 345.70 146.88 341.26 C 151.47 343.83 156.43 345.60 161.48 347.03 C 159.40 352.19 158.68 358.05 160.50 363.40 C 163.03 370.75 167.88 377.29 174.27 381.74 C 182.43 387.68 190.41 393.86 198.11 400.40 C 195.58 407.77 194.80 415.70 195.97 423.42 C 189.94 422.16 183.87 421.04 177.91 419.46 C 166.02 416.47 153.87 413.78 142.91 408.11 C 135.30 404.12 128.19 398.07 125.27 389.75 C 121.22 379.63 123.25 367.89 128.79 358.74 M 133.60 372.68 C 130.81 374.75 130.26 378.65 130.62 381.89 C 131.27 388.06 135.89 392.89 140.87 396.12 C 151.39 402.83 163.96 406.62 176.47 406.06 C 173.34 403.71 170.09 401.48 167.35 398.66 C 159.37 390.61 153.56 380.42 144.15 373.82 C 141.19 371.64 136.87 370.50 133.60 372.68 Z" />
<path fill="#e76228" opacity="1.00" d=" M 206.47 424.71 C 204.07 418.87 204.78 412.30 206.38 406.35 C 214.96 412.16 223.98 417.27 233.10 422.16 L 233.12 422.29 C 233.68 427.11 235.36 432.06 233.93 436.88 C 233.37 439.50 232.19 442.07 232.30 444.79 C 233.36 448.93 235.91 452.48 237.66 456.34 C 243.28 468.40 248.00 481.52 246.99 495.04 C 246.58 504.63 242.62 514.04 235.82 520.84 C 231.34 525.83 225.34 529.00 219.50 532.12 C 209.27 533.39 198.20 532.32 189.27 526.78 C 185.01 524.19 182.05 519.60 181.56 514.63 C 180.67 506.44 182.78 498.34 184.54 490.40 C 188.42 472.50 196.03 455.54 206.01 440.22 C 210.43 443.72 216.19 446.79 221.96 444.90 C 225.83 443.80 226.12 437.86 222.86 435.89 C 220.10 434.90 216.78 436.65 214.27 434.75 C 210.73 432.29 208.23 428.59 206.47 424.71 M 192.26 484.97 C 191.25 490.64 189.59 496.20 189.05 501.95 C 188.67 506.19 189.53 511.08 193.09 513.83 C 195.81 515.94 199.31 518.16 202.89 517.09 C 206.74 515.43 208.42 510.97 208.15 507.01 C 207.46 490.28 207.07 473.49 204.75 456.89 C 196.91 464.13 194.51 474.98 192.26 484.97 Z" />
<path fill="#e76228" opacity="1.00" d=" M 253.03 431.61 C 289.49 447.50 329.27 455.49 369.02 455.76 C 371.26 455.62 373.75 456.15 375.74 454.82 C 375.58 455.34 375.41 455.89 374.90 456.20 C 352.62 462.82 328.99 463.47 306.01 460.86 C 286.53 458.67 265.91 453.95 251.40 439.84 C 251.97 437.10 252.50 434.35 253.03 431.61 Z" />
</g>
<g id="#1b191986">
<path fill="#1b1919" opacity="0.53" d=" M 113.93 386.28 C 112.53 381.19 112.61 375.76 114.03 370.69 C 113.54 375.87 113.53 381.09 113.93 386.28 Z" />
</g>
<g id="#f4a87cff">
<path fill="#f4a87c" opacity="1.00" d=" M 133.60 372.68 C 136.87 370.50 141.19 371.64 144.15 373.82 C 153.56 380.42 159.37 390.61 167.35 398.66 C 170.09 401.48 173.34 403.71 176.47 406.06 C 163.96 406.62 151.39 402.83 140.87 396.12 C 135.89 392.89 131.27 388.06 130.62 381.89 C 130.26 378.65 130.81 374.75 133.60 372.68 Z" />
<path fill="#f4a87c" opacity="1.00" d=" M 192.26 484.97 C 194.51 474.98 196.91 464.13 204.75 456.89 C 207.07 473.49 207.46 490.28 208.15 507.01 C 208.42 510.97 206.74 515.43 202.89 517.09 C 199.31 518.16 195.81 515.94 193.09 513.83 C 189.53 511.08 188.67 506.19 189.05 501.95 C 189.59 496.20 191.25 490.64 192.26 484.97 Z" />
</g>
<g id="#1816169c">
<path fill="#181616" opacity="0.61" d=" M 489.69 416.23 C 492.91 416.19 496.14 416.23 499.36 416.14 C 496.42 416.98 493.35 417.11 490.31 416.83 C 489.85 418.37 489.43 419.93 489.04 421.50 C 489.30 419.74 489.49 417.99 489.69 416.23 Z" />
</g>
<g id="#df531fff">
<path fill="#df531f" opacity="1.00" d=" M 233.12 422.29 C 236.72 423.97 240.25 425.80 243.84 427.52 C 243.30 430.16 243.12 432.91 242.18 435.46 C 240.92 437.74 238.64 440.17 240.17 442.94 C 243.04 446.07 245.87 449.24 248.12 452.87 C 257.82 466.67 267.32 482.43 266.11 499.97 C 265.84 508.76 259.83 516.10 252.81 520.80 C 242.93 527.31 231.27 531.14 219.50 532.12 C 225.34 529.00 231.34 525.83 235.82 520.84 C 242.62 514.04 246.58 504.63 246.99 495.04 C 248.00 481.52 243.28 468.40 237.66 456.34 C 235.91 452.48 233.36 448.93 232.30 444.79 C 232.19 442.07 233.37 439.50 233.93 436.88 C 235.36 432.06 233.68 427.11 233.12 422.29 Z" />
</g>
<g id="#12111069">
<path fill="#121110" opacity="0.41" d=" M 463.05 475.48 C 464.32 481.36 464.24 487.62 463.04 493.50 C 463.39 487.50 463.35 481.48 463.05 475.48 Z" />
</g>
<g id="#1a18187b">
<path fill="#1a1818" opacity="0.48" d=" M 461.86 500.60 C 461.71 498.73 462.11 496.89 462.66 495.14 C 463.81 496.53 464.01 500.26 461.86 500.60 Z" />
</g>
<g id="#1a181880">
<path fill="#1a1818" opacity="0.50" d=" M 172.40 503.89 C 171.08 502.83 171.10 499.28 173.15 499.33 C 173.20 500.88 172.87 502.41 172.40 503.89 Z" />
</g>
<g id="#201e1e3b">
<path fill="#201e1e" opacity="0.23" d=" M 170.98 515.15 C 170.89 512.24 170.77 509.26 171.89 506.52 C 171.85 509.39 171.92 512.26 172.01 515.13 L 170.98 515.15 Z" />
</g>
<g id="#14131272">
<path fill="#141312" opacity="0.45" d=" M 537.94 624.89 L 538.64 624.88 C 538.83 630.11 539.58 635.50 538.02 640.61 C 538.31 635.37 538.39 630.11 537.94 624.89 Z" />
</g>
<g id="#211f1e3f">
<path fill="#211f1e" opacity="0.25" d=" M 149.08 627.86 L 150.01 627.87 C 149.93 631.08 149.88 634.28 149.93 637.49 C 148.54 634.46 149.01 631.08 149.08 627.86 Z" />
</g>
<g id="#22201f4a">
<path fill="#22201f" opacity="0.29" d=" M 334.40 658.15 C 338.16 657.88 341.94 658.02 345.72 658.07 C 341.99 659.46 337.93 658.62 334.13 659.69 C 334.19 659.31 334.33 658.54 334.40 658.15 Z" />
</g>
<g id="#19181793">
<path fill="#191817" opacity="0.58" d=" M 187.27 683.66 C 189.31 683.03 191.44 682.64 193.59 682.77 C 192.84 684.94 188.97 684.80 187.27 683.66 Z" />
</g>
<g id="#1b191891">
<path fill="#1b1918" opacity="0.57" d=" M 391.18 686.61 C 392.94 686.10 394.76 685.72 396.61 685.80 C 396.27 687.93 392.52 687.89 391.18 686.61 Z" />
</g>
</svg>
