<?xml version="1.0" encoding="UTF-8" ?>
<!DOCTYPE svg PUBLIC "-//W3C//DTD SVG 1.1//EN" "http://www.w3.org/Graphics/SVG/1.1/DTD/svg11.dtd">
<svg width="700pt" height="794pt" viewBox="0 0 700 794" version="1.1" xmlns="http://www.w3.org/2000/svg">
<g id="#070606ff">
<path fill="#070606" opacity="1.00" d=" M 309.54 40.42 C 318.21 34.02 329.17 29.29 340.12 31.43 C 352.11 34.00 361.52 42.92 368.22 52.78 C 378.58 68.12 384.55 85.82 390.85 103.07 C 397.25 121.78 402.91 140.76 407.43 160.01 C 410.98 173.21 412.40 186.88 416.00 200.05 C 419.78 210.68 424.56 220.96 430.34 230.64 C 435.80 239.69 442.76 247.70 448.40 256.63 C 458.96 272.97 468.07 290.75 471.43 310.09 C 472.66 318.16 472.67 327.53 466.95 334.01 C 464.04 337.77 459.27 339.23 454.75 339.87 C 456.89 346.30 459.12 352.80 459.96 359.55 C 460.07 362.52 460.40 365.47 460.85 368.41 C 461.12 371.96 461.42 375.63 460.65 379.13 C 459.74 381.23 459.52 383.51 459.93 385.77 C 460.16 389.71 457.81 393.19 456.38 396.73 C 467.07 408.53 475.56 422.30 481.54 437.05 C 482.47 439.15 483.27 441.34 484.62 443.22 C 488.74 444.61 493.14 443.87 497.39 443.91 C 498.77 443.92 500.15 444.01 501.53 444.16 C 505.17 444.68 508.83 444.98 512.51 445.00 C 533.68 447.52 555.16 452.27 573.64 463.32 C 589.13 472.62 600.01 487.55 609.17 502.77 C 617.82 516.93 624.60 532.63 626.09 549.29 C 625.99 552.34 626.40 555.37 626.84 558.38 C 627.01 560.06 627.06 561.75 627.09 563.44 C 626.95 569.11 627.05 574.79 627.10 580.46 C 627.00 580.91 626.79 581.79 626.68 582.23 C 625.88 584.25 625.60 586.42 625.89 588.60 C 625.78 593.18 623.65 597.49 621.37 601.38 C 616.28 608.88 606.80 611.09 598.37 612.28 C 594.42 621.49 589.76 630.70 582.73 637.96 C 581.68 638.79 580.75 639.75 579.93 640.80 C 574.08 646.70 565.93 649.64 557.94 651.25 C 554.54 651.88 551.19 653.00 547.71 652.88 C 545.81 652.65 543.94 653.03 542.17 653.67 L 540.63 653.88 C 538.75 653.73 536.91 654.05 535.15 654.67 L 533.72 654.89 C 531.82 654.74 529.94 654.99 528.17 655.65 C 525.40 656.41 522.53 656.81 519.67 656.90 C 517.46 656.66 515.26 656.93 513.18 657.70 C 512.58 657.76 511.39 657.89 510.79 657.95 C 508.55 657.63 506.31 657.92 504.20 658.67 C 503.35 658.77 501.67 658.99 500.83 659.09 C 498.01 658.97 495.21 659.40 492.45 659.87 C 492.17 659.90 491.59 659.96 491.31 659.99 C 487.40 659.99 483.50 660.29 479.63 660.86 C 479.01 660.89 477.77 660.96 477.15 660.99 C 473.29 661.00 469.45 661.27 465.64 661.85 C 465.01 661.91 463.76 662.01 463.13 662.06 C 457.08 662.05 451.03 662.16 444.99 662.40 C 436.92 662.82 428.86 661.95 420.79 662.05 C 420.33 661.95 419.42 661.74 418.97 661.63 C 417.46 661.03 415.87 660.74 414.27 660.81 L 412.87 660.65 C 411.37 660.12 409.78 659.51 408.20 660.01 L 408.10 660.52 C 406.27 669.74 403.07 679.29 395.98 685.84 C 391.18 690.36 384.66 692.67 378.14 692.99 C 371.30 693.58 364.43 693.28 357.58 693.01 C 347.87 691.92 337.40 690.91 329.47 684.62 C 322.60 679.22 320.33 670.00 320.04 661.69 C 320.39 659.48 320.14 657.27 319.31 655.22 C 319.25 654.63 319.13 653.46 319.07 652.88 C 319.35 650.90 319.08 648.92 318.34 647.09 C 318.27 646.49 318.12 645.30 318.05 644.70 C 318.39 642.50 318.07 640.30 317.32 638.23 L 317.16 636.66 C 317.29 634.77 317.05 632.88 316.35 631.13 C 316.28 630.51 316.13 629.27 316.05 628.65 C 316.35 626.45 316.08 624.26 315.33 622.19 C 315.26 621.56 315.12 620.29 315.05 619.66 C 315.34 617.47 315.07 615.27 314.32 613.21 C 314.25 612.57 314.12 611.28 314.05 610.64 C 314.39 608.45 314.06 606.26 313.31 604.20 L 313.10 602.65 C 313.31 600.46 313.12 598.26 312.28 596.22 C 309.95 585.32 309.09 574.11 306.48 563.24 C 294.04 557.54 282.69 549.58 273.01 539.92 C 271.42 541.26 269.84 542.64 268.10 543.80 C 265.79 545.04 263.95 546.92 262.64 549.19 C 259.66 553.07 256.33 556.70 253.87 560.96 C 248.21 569.68 245.45 579.80 241.25 589.22 C 236.66 600.58 227.23 611.03 214.74 613.27 C 210.76 613.19 206.78 613.31 202.81 613.05 C 191.21 610.56 181.60 601.86 176.74 591.20 C 174.07 585.18 172.09 578.73 172.00 572.09 C 171.96 568.90 171.92 565.71 171.89 562.52 C 171.99 562.11 172.20 561.28 172.30 560.87 C 173.09 558.78 173.38 556.56 173.12 554.35 C 173.02 551.55 173.94 548.87 174.61 546.19 C 178.00 532.21 183.94 519.02 190.18 506.11 C 198.12 489.23 208.64 473.65 220.79 459.53 C 219.13 458.45 217.48 457.35 215.84 456.24 C 214.14 457.67 212.47 459.22 210.40 460.11 C 207.11 460.29 203.80 460.27 200.51 460.08 C 183.36 455.52 167.32 446.57 154.66 434.10 C 153.36 436.54 152.53 439.59 149.90 440.95 C 144.62 443.94 137.73 443.69 132.63 440.44 C 125.32 436.25 121.20 428.48 117.93 421.03 C 113.58 410.38 110.13 399.17 109.10 387.70 C 109.39 385.80 109.06 383.91 108.35 382.15 C 108.28 381.64 108.14 380.62 108.07 380.11 C 107.93 376.92 107.63 373.73 107.13 370.57 C 107.07 369.87 106.94 368.45 106.88 367.75 C 106.53 357.71 107.49 347.61 106.18 337.62 C 106.15 336.89 106.11 335.42 106.08 334.68 C 106.28 332.81 106.00 330.94 105.30 329.20 C 103.62 322.97 102.83 316.50 100.52 310.43 C 96.92 298.83 90.90 288.23 85.86 277.24 C 76.84 257.24 69.11 236.68 62.27 215.83 C 57.22 199.05 51.62 182.24 49.86 164.71 C 49.77 158.37 49.53 152.02 49.99 145.69 C 51.16 136.27 55.19 126.69 62.96 120.85 C 67.77 117.04 73.76 115.14 79.71 114.02 C 86.22 113.52 92.76 113.64 99.27 113.98 C 124.33 117.68 146.84 130.47 167.61 144.33 C 178.64 151.88 189.35 160.02 198.95 169.33 C 199.84 170.91 201.15 172.16 202.77 173.00 C 208.43 177.85 213.44 183.47 218.38 189.06 C 229.13 185.58 239.84 181.94 250.60 178.49 C 253.81 144.45 263.02 110.94 278.32 80.33 C 284.54 68.37 291.91 56.86 301.45 47.25 L 302.27 47.13 C 303.87 47.17 304.78 45.74 305.25 44.41 C 306.10 42.59 308.06 41.67 309.54 40.42 M 307.71 54.64 C 291.96 70.49 282.96 91.45 275.19 112.04 C 266.95 134.15 262.05 157.45 260.06 180.95 C 259.86 182.69 259.72 184.91 257.99 185.87 C 255.47 187.14 252.70 187.79 250.09 188.83 C 242.11 191.24 234.30 194.12 226.33 196.56 C 222.90 197.58 219.60 199.49 215.93 199.31 C 215.60 199.22 214.93 199.03 214.59 198.93 C 193.64 174.63 168.36 154.13 140.18 138.77 C 128.53 132.36 116.20 126.81 103.06 124.34 C 96.39 122.84 89.47 122.32 82.68 123.23 C 76.14 124.17 69.37 126.72 65.19 132.10 C 60.47 137.93 59.66 145.78 59.36 153.01 C 59.09 176.11 66.15 198.43 73.84 219.94 C 82.76 246.39 93.07 272.41 105.79 297.28 C 110.67 308.96 113.31 321.45 114.82 333.98 C 115.68 341.86 115.16 349.79 115.10 357.70 C 115.17 367.51 116.48 377.25 117.78 386.96 C 120.14 401.08 123.54 415.47 131.54 427.57 C 133.70 430.37 136.34 433.24 139.96 433.98 C 143.68 434.66 148.08 432.89 149.37 429.12 C 147.13 426.50 147.43 421.73 151.05 420.58 C 153.71 419.58 155.59 422.11 157.16 423.81 C 166.43 434.12 178.14 442.21 190.96 447.47 C 196.43 449.44 201.91 451.99 207.86 451.78 C 208.72 448.67 204.61 447.76 204.45 444.96 C 203.84 441.18 209.27 437.83 211.94 441.10 C 222.07 451.60 235.58 458.80 249.99 461.19 C 253.25 461.76 256.59 461.74 259.86 462.28 C 263.58 463.27 263.92 469.63 260.10 470.73 C 256.60 471.28 253.06 470.43 249.57 470.15 C 253.03 503.79 274.11 534.94 303.82 550.99 C 300.55 538.16 296.84 525.41 291.63 513.22 C 290.59 510.60 288.83 507.47 290.73 504.79 C 292.03 502.48 294.83 502.37 297.17 502.63 C 303.85 515.70 308.03 529.92 311.90 544.05 C 320.19 575.65 322.92 608.30 327.03 640.61 C 327.79 648.41 328.88 656.17 329.80 663.96 C 330.51 668.34 331.33 673.12 334.53 676.44 C 340.41 681.74 348.69 682.08 356.11 683.26 C 366.50 684.59 377.90 685.61 387.46 680.49 C 397.42 673.50 397.98 660.22 400.51 649.40 C 407.63 610.39 408.48 570.19 402.69 530.95 C 401.77 526.87 407.04 523.47 410.45 525.64 C 412.37 527.14 411.95 529.91 412.45 532.05 C 417.06 563.24 416.76 594.95 413.96 626.28 L 413.63 625.99 C 412.63 634.29 411.50 642.58 410.35 650.86 C 433.93 655.32 457.99 652.41 481.71 651.37 L 481.64 651.36 C 493.09 650.16 504.61 649.48 516.03 647.90 C 530.65 645.72 545.45 644.48 559.81 640.83 C 567.15 638.91 573.81 634.50 578.41 628.46 C 589.69 613.39 595.47 594.64 596.09 575.92 C 596.04 571.30 603.49 569.83 605.26 574.06 C 605.98 577.30 605.25 580.65 605.14 583.94 C 604.50 590.09 603.38 596.19 601.82 602.18 C 606.06 601.03 610.83 599.89 613.37 595.92 C 616.39 591.54 616.86 586.10 617.08 580.94 C 617.36 573.47 617.92 565.97 617.20 558.51 C 617.21 549.37 615.20 540.32 612.52 531.61 C 608.56 520.31 602.45 509.93 595.93 499.94 C 591.81 493.58 587.32 487.42 581.98 482.01 C 575.43 475.23 567.24 470.25 558.75 466.27 C 541.89 458.51 523.34 455.35 504.95 453.88 C 496.92 453.13 488.48 455.37 480.77 452.29 C 476.46 450.58 474.64 446.03 473.04 442.05 C 467.66 427.61 459.28 414.34 449.05 402.85 C 446.28 403.91 443.36 404.52 440.39 404.58 C 441.27 414.22 441.69 423.90 441.71 433.58 C 441.31 439.28 438.74 444.50 435.07 448.77 C 430.85 449.20 429.11 444.33 430.08 440.91 C 432.22 429.12 432.93 417.01 431.57 405.09 C 431.50 401.70 430.42 398.39 430.65 395.00 C 431.59 392.56 434.72 391.99 436.95 392.86 C 438.88 393.97 440.44 396.50 443.02 395.67 C 448.34 393.98 451.22 388.40 451.73 383.14 C 453.80 365.48 449.65 347.37 441.08 331.88 C 438.79 328.79 442.82 325.02 445.97 325.55 C 448.88 326.13 449.20 330.07 451.96 330.91 C 456.15 331.77 460.91 329.16 462.17 325.00 C 463.70 320.79 463.26 316.18 462.66 311.84 C 460.23 294.39 451.95 278.36 442.06 264.01 C 435.05 253.56 428.16 243.03 421.15 232.58 C 414.80 222.26 410.01 211.05 406.37 199.50 C 400.20 177.88 396.30 155.70 390.43 133.99 C 386.36 119.58 381.91 105.26 376.70 91.22 C 372.24 80.30 367.74 69.08 360.45 59.72 L 360.36 59.06 C 354.50 50.61 346.86 41.49 335.84 40.62 C 324.81 40.36 315.20 47.18 307.71 54.64 M 187.76 536.15 C 184.37 545.44 181.79 555.17 181.40 565.10 C 180.80 575.10 183.51 585.38 189.48 593.47 C 193.64 599.09 199.93 603.52 207.05 604.07 C 211.90 604.45 217.25 603.86 221.15 600.68 C 225.20 598.26 227.92 594.27 230.23 590.27 C 233.53 584.06 235.90 577.43 238.18 570.79 L 238.62 570.60 C 243.92 555.61 254.18 542.59 266.64 532.85 C 257.47 521.91 250.38 509.29 245.63 495.84 L 245.48 496.31 C 243.44 487.01 239.74 477.80 240.34 468.10 C 236.84 466.87 233.24 465.90 229.84 464.38 C 210.54 484.68 197.48 510.09 187.76 536.15 Z" />
<path fill="#070606" opacity="1.00" d=" M 289.37 235.48 C 296.38 233.57 303.88 237.60 307.21 243.85 C 311.26 251.51 314.40 259.66 317.16 267.88 C 318.92 273.23 319.00 279.69 315.30 284.28 C 310.36 291.36 298.45 291.92 293.56 284.47 C 287.07 274.01 281.47 262.45 280.63 249.98 C 280.58 244.15 283.48 237.46 289.37 235.48 Z" />
<path fill="#070606" opacity="1.00" d=" M 205.39 263.44 C 210.94 261.44 217.69 262.80 221.80 267.12 C 224.16 269.60 225.88 272.67 226.89 275.94 C 229.39 284.21 232.32 292.45 233.20 301.09 C 233.65 306.16 232.22 311.84 228.00 315.05 C 223.59 318.92 216.58 319.55 211.68 316.24 C 207.90 313.97 205.58 309.91 204.29 305.80 C 201.67 296.63 199.48 287.33 197.78 277.94 C 196.68 272.12 199.52 265.41 205.39 263.44 Z" />
<path fill="#070606" opacity="1.00" d=" M 287.44 301.58 C 290.35 300.86 294.02 300.34 296.36 302.67 C 298.82 305.29 297.54 309.22 296.11 312.03 C 290.28 321.72 279.71 329.47 267.96 328.79 C 261.72 328.19 254.52 327.88 249.92 323.03 C 247.64 320.71 248.00 316.57 250.71 314.75 C 255.38 311.59 260.91 310.10 266.13 308.12 C 273.07 305.43 280.28 303.56 287.44 301.58 Z" />
<path fill="#070606" opacity="1.00" d=" M 337.50 306.94 C 338.85 302.73 346.50 303.14 346.79 307.84 C 348.40 324.62 336.72 340.75 321.16 346.35 C 321.39 356.27 315.79 365.25 308.49 371.55 C 300.62 378.34 290.58 383.28 280.00 383.05 C 269.31 383.19 258.67 378.06 252.30 369.44 C 237.71 372.37 221.45 366.52 213.13 353.95 C 211.33 351.37 212.95 347.39 216.03 346.77 C 218.29 345.89 220.54 347.35 221.69 349.25 C 226.92 356.62 236.02 360.80 244.98 360.58 C 251.95 360.59 258.58 357.89 264.47 354.37 C 270.93 350.23 276.69 343.81 277.37 335.85 C 277.29 332.71 281.20 330.92 283.78 332.24 C 285.92 333.77 287.57 335.95 289.98 337.10 C 297.37 340.96 306.16 340.87 314.01 338.54 C 324.62 336.03 333.89 327.69 336.54 316.98 C 337.42 313.69 337.03 310.27 337.50 306.94 M 285.00 345.62 C 280.61 355.38 271.67 361.92 262.36 366.60 C 270.27 373.76 282.36 375.59 291.94 370.80 C 300.87 366.62 309.76 359.41 311.56 349.18 C 302.59 350.54 293.15 349.89 285.00 345.62 Z" />
<path fill="#070606" opacity="1.00" d=" M 225.07 615.35 C 238.95 602.15 261.50 599.74 278.28 608.72 C 290.84 615.23 300.37 627.61 302.92 641.58 C 303.13 644.51 303.45 647.43 303.86 650.35 C 304.08 651.61 304.00 652.86 303.64 654.10 C 302.93 655.87 302.68 657.77 302.85 659.68 C 301.93 667.81 297.83 675.38 292.68 681.64 C 283.35 692.92 268.57 699.23 253.99 698.52 C 244.16 697.92 234.50 694.44 226.80 688.26 C 216.78 680.32 210.05 668.20 208.95 655.44 C 208.92 652.50 208.93 649.56 208.95 646.63 C 209.88 636.52 214.04 626.33 221.26 619.12 C 222.85 618.21 224.14 616.92 225.07 615.35 M 239.61 616.85 C 236.18 618.71 232.77 620.81 230.07 623.67 C 224.50 628.72 220.87 635.68 219.16 642.95 C 216.70 654.09 219.69 666.16 226.92 674.96 C 236.28 686.65 252.82 691.80 267.15 687.37 C 271.03 686.15 274.76 684.42 278.05 682.00 C 289.01 674.69 295.24 661.13 294.25 648.06 C 293.21 637.42 288.01 626.74 278.93 620.76 C 268.22 611.81 252.00 610.67 239.61 616.85 Z" />
</g>
<g id="#dd8019ff">
<path fill="#dd8019" opacity="1.00" d=" M 307.71 54.64 C 315.20 47.18 324.81 40.36 335.84 40.62 C 346.86 41.49 354.50 50.61 360.36 59.06 L 360.45 59.72 C 360.72 64.12 363.63 67.67 365.32 71.59 C 385.81 115.68 392.37 164.37 399.12 212.04 C 400.67 222.04 401.61 232.41 406.39 241.52 L 406.14 241.76 C 393.81 253.97 389.14 271.63 377.17 284.11 C 371.32 290.16 363.64 295.21 355.00 295.56 C 344.98 296.01 336.01 289.99 326.01 290.34 C 315.35 290.39 306.27 297.12 295.86 298.40 C 292.59 298.66 289.84 296.44 287.87 294.08 C 263.54 264.78 250.35 226.82 250.09 188.83 C 252.70 187.79 255.47 187.14 257.99 185.87 C 259.72 184.91 259.86 182.69 260.06 180.95 C 262.05 157.45 266.95 134.15 275.19 112.04 C 282.96 91.45 291.96 70.49 307.71 54.64 M 339.27 67.33 C 330.38 71.81 327.73 82.34 324.83 91.05 C 317.45 117.35 313.06 144.58 312.93 171.93 C 313.01 176.23 311.97 181.96 316.32 184.61 C 330.78 193.06 348.09 196.41 364.70 194.55 C 369.53 193.98 374.85 191.75 376.83 186.99 C 378.69 180.04 376.50 172.92 375.62 165.99 C 372.29 136.77 366.07 107.76 355.67 80.20 C 354.11 75.90 352.23 71.37 348.52 68.47 C 345.96 66.39 342.27 66.11 339.27 67.33 M 289.37 235.48 C 283.48 237.46 280.58 244.15 280.63 249.98 C 281.47 262.45 287.07 274.01 293.56 284.47 C 298.45 291.92 310.36 291.36 315.30 284.28 C 319.00 279.69 318.92 273.23 317.16 267.88 C 314.40 259.66 311.26 251.51 307.21 243.85 C 303.88 237.60 296.38 233.57 289.37 235.48 Z" />
<path fill="#dd8019" opacity="1.00" d=" M 65.19 132.10 C 69.37 126.72 76.14 124.17 82.68 123.23 C 90.67 124.34 97.94 128.05 104.64 132.39 C 125.22 144.74 143.76 160.33 160.08 177.88 C 170.41 189.16 179.48 201.48 187.95 214.20 C 193.82 211.09 199.12 207.04 205.04 204.03 C 208.26 202.40 211.47 200.75 214.59 198.93 C 214.93 199.03 215.60 199.22 215.93 199.31 C 216.43 199.45 217.41 199.71 217.91 199.84 C 225.24 215.19 229.57 231.73 234.12 248.05 C 238.85 266.48 242.64 285.18 245.09 304.05 C 245.80 309.19 245.59 315.67 240.65 318.70 C 233.44 323.06 224.59 324.48 218.21 330.27 C 210.40 336.95 209.78 348.41 202.55 355.53 C 196.93 361.18 188.69 363.23 180.94 363.44 C 168.89 363.59 157.66 358.69 146.18 355.79 C 135.85 353.43 125.24 355.40 115.10 357.70 C 115.16 349.79 115.68 341.86 114.82 333.98 C 113.31 321.45 110.67 308.96 105.79 297.28 C 93.07 272.41 82.76 246.39 73.84 219.94 C 66.15 198.43 59.09 176.11 59.36 153.01 C 59.66 145.78 60.47 137.93 65.19 132.10 M 86.26 151.35 C 81.12 152.53 79.69 158.44 79.70 163.00 C 79.01 180.80 83.90 198.17 89.30 214.94 C 96.65 237.01 105.90 258.46 117.20 278.80 C 118.60 281.23 121.12 284.03 124.22 283.44 C 128.27 281.56 130.28 277.27 132.88 273.88 C 136.56 268.33 141.93 264.25 145.99 259.03 C 151.32 252.33 156.73 245.69 161.63 238.68 C 163.75 235.39 166.38 231.35 164.52 227.35 C 162.12 221.59 157.88 216.87 154.10 212.00 C 137.33 190.53 116.53 172.74 95.99 155.04 C 93.22 152.96 89.92 150.60 86.26 151.35 M 205.39 263.44 C 199.52 265.41 196.68 272.12 197.78 277.94 C 199.48 287.33 201.67 296.63 204.29 305.80 C 205.58 309.91 207.90 313.97 211.68 316.24 C 216.58 319.55 223.59 318.92 228.00 315.05 C 232.22 311.84 233.65 306.16 233.20 301.09 C 232.32 292.45 229.39 284.21 226.89 275.94 C 225.88 272.67 224.16 269.60 221.80 267.12 C 217.69 262.80 210.94 261.44 205.39 263.44 Z" />
<path fill="#dd8019" opacity="1.00" d=" M 400.31 438.30 C 408.77 433.96 416.16 427.57 421.85 419.96 C 423.92 436.64 422.88 453.47 423.22 470.22 C 426.76 466.17 428.78 461.14 431.56 456.59 C 433.08 454.15 434.05 451.44 435.07 448.77 C 438.74 444.50 441.31 439.28 441.71 433.58 C 444.71 437.42 447.04 441.72 448.77 446.27 C 453.42 456.70 456.18 467.83 458.35 479.00 C 476.41 474.09 495.46 472.63 514.03 475.15 C 549.22 479.27 582.36 499.84 600.70 530.30 C 608.07 541.88 611.87 555.24 614.96 568.48 C 614.73 569.53 614.54 570.59 614.36 571.66 C 613.39 575.02 612.84 578.77 610.45 581.49 C 609.13 583.07 607.02 583.43 605.14 583.94 C 605.25 580.65 605.98 577.30 605.26 574.06 C 603.49 569.83 596.04 571.30 596.09 575.92 C 595.47 594.64 589.69 613.39 578.41 628.46 C 573.81 634.50 567.15 638.91 559.81 640.83 C 545.45 644.48 530.65 645.72 516.03 647.90 C 504.61 649.48 493.09 650.16 481.64 651.36 C 465.32 651.40 448.53 648.90 434.01 641.08 C 426.58 637.25 420.02 631.98 413.96 626.28 C 416.76 594.95 417.06 563.24 412.45 532.05 C 411.95 529.91 412.37 527.14 410.45 525.64 C 407.04 523.47 401.77 526.87 402.69 530.95 C 408.48 570.19 407.63 610.39 400.51 649.40 C 389.57 657.64 375.04 658.70 361.91 656.79 C 352.65 655.29 342.73 654.68 334.72 649.29 C 331.49 647.08 328.96 643.98 327.03 640.61 C 322.92 608.30 320.19 575.65 311.90 544.05 C 308.03 529.92 303.85 515.70 297.17 502.63 C 295.63 497.51 295.61 492.11 294.64 486.90 C 298.84 477.79 307.32 471.76 315.65 466.70 C 332.30 457.04 350.58 450.10 369.53 446.67 C 379.92 444.48 390.74 443.24 400.31 438.30 M 520.45 491.58 C 516.54 492.30 512.42 493.57 509.74 496.68 C 506.60 499.83 506.97 505.16 509.37 508.62 C 514.93 516.76 524.64 520.69 530.50 528.53 C 538.80 539.48 533.87 554.12 538.74 566.24 C 540.49 571.48 544.41 576.46 549.99 577.82 C 558.47 580.02 567.53 574.98 571.50 567.45 C 576.78 557.89 576.95 546.45 575.58 535.88 C 573.47 522.72 566.87 510.01 556.30 501.71 C 546.32 493.76 533.09 490.17 520.45 491.58 Z" />
<path fill="#dd8019" opacity="1.00" d=" M 187.76 536.15 C 197.48 510.09 210.54 484.68 229.84 464.38 C 233.24 465.90 236.84 466.87 240.34 468.10 C 239.74 477.80 243.44 487.01 245.48 496.31 C 236.27 517.93 234.73 541.61 231.48 564.60 C 230.97 567.63 230.58 570.69 230.67 573.77 C 230.52 573.81 230.22 573.89 230.07 573.93 C 223.58 575.01 216.92 573.07 211.45 569.58 C 199.57 562.11 191.02 549.76 187.76 536.15 Z" />
</g>
<g id="#161514b9">
<path fill="#161514" opacity="0.73" d=" M 302.27 47.13 C 301.65 45.69 303.86 43.70 305.25 44.41 C 304.78 45.74 303.87 47.17 302.27 47.13 Z" />
</g>
<g id="#d16e1fff">
<path fill="#d16e1f" opacity="1.00" d=" M 360.45 59.72 C 367.74 69.08 372.24 80.30 376.70 91.22 C 381.91 105.26 386.36 119.58 390.43 133.99 C 396.30 155.70 400.20 177.88 406.37 199.50 C 410.01 211.05 414.80 222.26 421.15 232.58 C 415.80 234.77 410.63 237.54 406.39 241.52 C 401.61 232.41 400.67 222.04 399.12 212.04 C 392.37 164.37 385.81 115.68 365.32 71.59 C 363.63 67.67 360.72 64.12 360.45 59.72 Z" />
<path fill="#d16e1f" opacity="1.00" d=" M 82.68 123.23 C 89.47 122.32 96.39 122.84 103.06 124.34 C 116.20 126.81 128.53 132.36 140.18 138.77 C 168.36 154.13 193.64 174.63 214.59 198.93 C 211.47 200.75 208.26 202.40 205.04 204.03 C 199.12 207.04 193.82 211.09 187.95 214.20 C 179.48 201.48 170.41 189.16 160.08 177.88 C 143.76 160.33 125.22 144.74 104.64 132.39 C 97.94 128.05 90.67 124.34 82.68 123.23 Z" />
<path fill="#d16e1f" opacity="1.00" d=" M 440.39 404.58 C 443.36 404.52 446.28 403.91 449.05 402.85 C 459.28 414.34 467.66 427.61 473.04 442.05 C 474.64 446.03 476.46 450.58 480.77 452.29 C 488.48 455.37 496.92 453.13 504.95 453.88 C 523.34 455.35 541.89 458.51 558.75 466.27 C 567.24 470.25 575.43 475.23 581.98 482.01 C 587.32 487.42 591.81 493.58 595.93 499.94 C 602.45 509.93 608.56 520.31 612.52 531.61 C 615.20 540.32 617.21 549.37 617.20 558.51 C 616.49 561.84 615.66 565.15 614.96 568.48 C 611.87 555.24 608.07 541.88 600.70 530.30 C 582.36 499.84 549.22 479.27 514.03 475.15 C 495.46 472.63 476.41 474.09 458.35 479.00 C 456.18 467.83 453.42 456.70 448.77 446.27 C 447.04 441.72 444.71 437.42 441.71 433.58 C 441.69 423.90 441.27 414.22 440.39 404.58 Z" />
<path fill="#d16e1f" opacity="1.00" d=" M 422.23 419.46 C 425.91 415.04 428.18 409.70 431.57 405.09 C 432.93 417.01 432.22 429.12 430.08 440.91 C 429.11 444.33 430.85 449.20 435.07 448.77 C 434.05 451.44 433.08 454.15 431.56 456.59 C 428.78 461.14 426.76 466.17 423.22 470.22 C 422.88 453.47 423.92 436.64 421.85 419.96 L 422.23 419.46 Z" />
<path fill="#d16e1f" opacity="1.00" d=" M 245.48 496.31 L 245.63 495.84 C 250.38 509.29 257.47 521.91 266.64 532.85 C 254.18 542.59 243.92 555.61 238.62 570.60 L 238.18 570.79 C 235.72 571.89 233.23 572.93 230.67 573.77 C 230.58 570.69 230.97 567.63 231.48 564.60 C 234.73 541.61 236.27 517.93 245.48 496.31 Z" />
</g>
<g id="#f4b255ff">
<path fill="#f4b255" opacity="1.00" d=" M 339.27 67.33 C 342.27 66.11 345.96 66.39 348.52 68.47 C 352.23 71.37 354.11 75.90 355.67 80.20 C 366.07 107.76 372.29 136.77 375.62 165.99 C 376.50 172.92 378.69 180.04 376.83 186.99 C 374.85 191.75 369.53 193.98 364.70 194.55 C 348.09 196.41 330.78 193.06 316.32 184.61 C 311.97 181.96 313.01 176.23 312.93 171.93 C 313.06 144.58 317.45 117.35 324.83 91.05 C 327.73 82.34 330.38 71.81 339.27 67.33 Z" />
<path fill="#f4b255" opacity="1.00" d=" M 86.26 151.35 C 89.92 150.60 93.22 152.96 95.99 155.04 C 116.53 172.74 137.33 190.53 154.10 212.00 C 157.88 216.87 162.12 221.59 164.52 227.35 C 166.38 231.35 163.75 235.39 161.63 238.68 C 156.73 245.69 151.32 252.33 145.99 259.03 C 141.93 264.25 136.56 268.33 132.88 273.88 C 130.28 277.27 128.27 281.56 124.22 283.44 C 121.12 284.03 118.60 281.23 117.20 278.80 C 105.90 258.46 96.65 237.01 89.30 214.94 C 83.90 198.17 79.01 180.80 79.70 163.00 C 79.69 158.44 81.12 152.53 86.26 151.35 Z" />
</g>
<g id="#1c1a198c">
<path fill="#1c1a19" opacity="0.55" d=" M 79.71 114.02 C 86.03 112.50 92.95 112.50 99.27 113.98 C 92.76 113.64 86.22 113.52 79.71 114.02 Z" />
</g>
<g id="#1d1c1ba0">
<path fill="#1d1c1b" opacity="0.63" d=" M 49.85 165.57 C 48.70 159.07 48.33 152.13 49.99 145.69 C 49.53 152.02 49.77 158.37 49.86 164.71 L 49.85 165.57 Z" />
</g>
<g id="#11111062">
<path fill="#111110" opacity="0.38" d=" M 198.95 169.33 C 200.95 168.36 203.39 171.06 202.77 173.00 C 201.15 172.16 199.84 170.91 198.95 169.33 Z" />
</g>
<g id="#fde8acff">
<path fill="#fde8ac" opacity="1.00" d=" M 226.33 196.56 C 234.30 194.12 242.11 191.24 250.09 188.83 C 250.35 226.82 263.54 264.78 287.87 294.08 C 289.84 296.44 292.59 298.66 295.86 298.40 C 306.27 297.12 315.35 290.39 326.01 290.34 C 336.01 289.99 344.98 296.01 355.00 295.56 C 363.64 295.21 371.32 290.16 377.17 284.11 C 389.14 271.63 393.81 253.97 406.14 241.76 C 413.18 254.96 423.77 265.76 431.33 278.61 C 434.65 284.84 438.00 291.75 436.99 299.01 C 436.44 303.74 433.00 308.03 428.44 309.47 C 426.07 310.19 423.58 309.59 421.19 309.32 C 425.94 317.88 429.57 327.17 430.70 336.94 C 432.04 344.83 432.07 353.64 427.58 360.59 C 423.98 365.90 416.98 367.60 411.00 365.92 C 414.52 378.16 417.49 390.56 419.63 403.11 C 420.54 408.55 420.81 414.10 422.23 419.46 L 421.85 419.96 C 416.16 427.57 408.77 433.96 400.31 438.30 C 390.74 443.24 379.92 444.48 369.53 446.67 C 350.58 450.10 332.30 457.04 315.65 466.70 C 307.32 471.76 298.84 477.79 294.64 486.90 C 295.61 492.11 295.63 497.51 297.17 502.63 C 294.83 502.37 292.03 502.48 290.73 504.79 C 288.83 507.47 290.59 510.60 291.63 513.22 C 296.84 525.41 300.55 538.16 303.82 550.99 C 274.11 534.94 253.03 503.79 249.57 470.15 C 253.06 470.43 256.60 471.28 260.10 470.73 C 263.92 469.63 263.58 463.27 259.86 462.28 C 256.59 461.74 253.25 461.76 249.99 461.19 C 235.58 458.80 222.07 451.60 211.94 441.10 C 209.27 437.83 203.84 441.18 204.45 444.96 C 204.61 447.76 208.72 448.67 207.86 451.78 C 201.91 451.99 196.43 449.44 190.96 447.47 C 178.14 442.21 166.43 434.12 157.16 423.81 C 155.59 422.11 153.71 419.58 151.05 420.58 C 147.43 421.73 147.13 426.50 149.37 429.12 C 148.08 432.89 143.68 434.66 139.96 433.98 C 136.34 433.24 133.70 430.37 131.54 427.57 C 123.54 415.47 120.14 401.08 117.78 386.96 C 116.48 377.25 115.17 367.51 115.10 357.70 C 125.24 355.40 135.85 353.43 146.18 355.79 C 157.66 358.69 168.89 363.59 180.94 363.44 C 188.69 363.23 196.93 361.18 202.55 355.53 C 209.78 348.41 210.40 336.95 218.21 330.27 C 224.59 324.48 233.44 323.06 240.65 318.70 C 245.59 315.67 245.80 309.19 245.09 304.05 C 242.64 285.18 238.85 266.48 234.12 248.05 C 229.57 231.73 225.24 215.19 217.91 199.84 C 217.41 199.71 216.43 199.45 215.93 199.31 C 219.60 199.49 222.90 197.58 226.33 196.56 M 287.44 301.58 C 280.28 303.56 273.07 305.43 266.13 308.12 C 260.91 310.10 255.38 311.59 250.71 314.75 C 248.00 316.57 247.64 320.71 249.92 323.03 C 254.52 327.88 261.72 328.19 267.96 328.79 C 279.71 329.47 290.28 321.72 296.11 312.03 C 297.54 309.22 298.82 305.29 296.36 302.67 C 294.02 300.34 290.35 300.86 287.44 301.58 M 337.50 306.94 C 337.03 310.27 337.42 313.69 336.54 316.98 C 333.89 327.69 324.62 336.03 314.01 338.54 C 306.16 340.87 297.37 340.96 289.98 337.10 C 287.57 335.95 285.92 333.77 283.78 332.24 C 281.20 330.92 277.29 332.71 277.37 335.85 C 276.69 343.81 270.93 350.23 264.47 354.37 C 258.58 357.89 251.95 360.59 244.98 360.58 C 236.02 360.80 226.92 356.62 221.69 349.25 C 220.54 347.35 218.29 345.89 216.03 346.77 C 212.95 347.39 211.33 351.37 213.13 353.95 C 221.45 366.52 237.71 372.37 252.30 369.44 C 258.67 378.06 269.31 383.19 280.00 383.05 C 290.58 383.28 300.62 378.34 308.49 371.55 C 315.79 365.25 321.39 356.27 321.16 346.35 C 336.72 340.75 348.40 324.62 346.79 307.84 C 346.50 303.14 338.85 302.73 337.50 306.94 M 155.80 389.78 C 158.61 401.94 166.57 412.16 174.85 421.19 C 180.14 426.22 186.35 431.28 193.96 431.72 C 199.32 431.94 204.28 428.92 207.01 424.40 C 222.25 442.05 247.22 450.66 270.05 445.50 C 266.23 443.10 261.63 442.44 257.69 440.28 C 239.65 432.00 223.85 419.33 211.26 404.04 C 207.72 411.32 198.89 415.48 191.07 413.15 C 177.03 409.48 166.68 398.69 155.80 389.78 Z" />
<path fill="#fde8ac" opacity="1.00" d=" M 181.40 565.10 C 181.79 555.17 184.37 545.44 187.76 536.15 C 191.02 549.76 199.57 562.11 211.45 569.58 C 216.92 573.07 223.58 575.01 230.07 573.93 C 229.15 578.06 228.33 582.21 227.31 586.32 C 226.10 591.44 223.02 595.81 221.15 600.68 C 217.25 603.86 211.90 604.45 207.05 604.07 C 199.93 603.52 193.64 599.09 189.48 593.47 C 183.51 585.38 180.80 575.10 181.40 565.10 Z" />
<path fill="#fde8ac" opacity="1.00" d=" M 614.36 571.66 C 616.11 579.79 613.37 587.81 613.37 595.92 C 610.83 599.89 606.06 601.03 601.82 602.18 C 603.38 596.19 604.50 590.09 605.14 583.94 C 607.02 583.43 609.13 583.07 610.45 581.49 C 612.84 578.77 613.39 575.02 614.36 571.66 Z" />
<path fill="#fde8ac" opacity="1.00" d=" M 413.63 625.99 L 413.96 626.28 C 420.02 631.98 426.58 637.25 434.01 641.08 C 448.53 648.90 465.32 651.40 481.64 651.36 L 481.71 651.37 C 457.99 652.41 433.93 655.32 410.35 650.86 C 411.50 642.58 412.63 634.29 413.63 625.99 Z" />
<path fill="#fde8ac" opacity="1.00" d=" M 327.03 640.61 C 328.96 643.98 331.49 647.08 334.72 649.29 C 342.73 654.68 352.65 655.29 361.91 656.79 C 375.04 658.70 389.57 657.64 400.51 649.40 C 397.98 660.22 397.42 673.50 387.46 680.49 C 377.90 685.61 366.50 684.59 356.11 683.26 C 348.69 682.08 340.41 681.74 334.53 676.44 C 331.33 673.12 330.51 668.34 329.80 663.96 C 328.88 656.17 327.79 648.41 327.03 640.61 Z" />
</g>
<g id="#edcc76ff">
<path fill="#edcc76" opacity="1.00" d=" M 406.39 241.52 C 410.63 237.54 415.80 234.77 421.15 232.58 C 428.16 243.03 435.05 253.56 442.06 264.01 C 451.95 278.36 460.23 294.39 462.66 311.84 C 463.26 316.18 463.70 320.79 462.17 325.00 C 460.91 329.16 456.15 331.77 451.96 330.91 C 449.20 330.07 448.88 326.13 445.97 325.55 C 442.82 325.02 438.79 328.79 441.08 331.88 C 449.65 347.37 453.80 365.48 451.73 383.14 C 451.22 388.40 448.34 393.98 443.02 395.67 C 440.44 396.50 438.88 393.97 436.95 392.86 C 434.72 391.99 431.59 392.56 430.65 395.00 C 430.42 398.39 431.50 401.70 431.57 405.09 C 428.18 409.70 425.91 415.04 422.23 419.46 C 420.81 414.10 420.54 408.55 419.63 403.11 C 417.49 390.56 414.52 378.16 411.00 365.92 C 416.98 367.60 423.98 365.90 427.58 360.59 C 432.07 353.64 432.04 344.83 430.70 336.94 C 429.57 327.17 425.94 317.88 421.19 309.32 C 423.58 309.59 426.07 310.19 428.44 309.47 C 433.00 308.03 436.44 303.74 436.99 299.01 C 438.00 291.75 434.65 284.84 431.33 278.61 C 423.77 265.76 413.18 254.96 406.14 241.76 L 406.39 241.52 Z" />
<path fill="#edcc76" opacity="1.00" d=" M 614.96 568.48 C 615.66 565.15 616.49 561.84 617.20 558.51 C 617.92 565.97 617.36 573.47 617.08 580.94 C 616.86 586.10 616.39 591.54 613.37 595.92 C 613.37 587.81 616.11 579.79 614.36 571.66 C 614.54 570.59 614.73 569.53 614.96 568.48 Z" />
<path fill="#edcc76" opacity="1.00" d=" M 230.67 573.77 C 233.23 572.93 235.72 571.89 238.18 570.79 C 235.90 577.43 233.53 584.06 230.23 590.27 C 227.92 594.27 225.20 598.26 221.15 600.68 C 223.02 595.81 226.10 591.44 227.31 586.32 C 228.33 582.21 229.15 578.06 230.07 573.93 C 230.22 573.89 230.52 573.81 230.67 573.77 Z" />
</g>
<g id="#19181776">
<path fill="#191817" opacity="0.46" d=" M 105.30 329.20 C 106.00 330.94 106.28 332.81 106.08 334.68 C 104.00 334.24 104.26 330.63 105.30 329.20 Z" />
</g>
<g id="#1f1d1ca8">
<path fill="#1f1d1c" opacity="0.66" d=" M 106.18 337.62 C 107.49 347.61 106.53 357.71 106.88 367.75 L 106.88 368.59 C 105.88 358.31 105.77 347.94 106.18 337.62 Z" />
</g>
<g id="#faccc8ff">
<path fill="#faccc8" opacity="1.00" d=" M 285.00 345.62 C 293.15 349.89 302.59 350.54 311.56 349.18 C 309.76 359.41 300.87 366.62 291.94 370.80 C 282.36 375.59 270.27 373.76 262.36 366.60 C 271.67 361.92 280.61 355.38 285.00 345.62 Z" />
</g>
<g id="#1a181895">
<path fill="#1a1818" opacity="0.58" d=" M 459.96 359.55 C 461.08 362.36 461.05 365.43 460.85 368.41 C 460.40 365.47 460.07 362.52 459.96 359.55 Z" />
</g>
<g id="#1a18188c">
<path fill="#1a1818" opacity="0.55" d=" M 107.13 370.57 C 107.63 373.73 107.93 376.92 108.07 380.11 L 107.50 380.15 C 107.22 376.97 106.98 373.77 107.13 370.57 Z" />
</g>
<g id="#1b1818a3">
<path fill="#1b1818" opacity="0.64" d=" M 459.93 385.77 C 459.52 383.51 459.74 381.23 460.65 379.13 C 461.53 380.99 461.74 384.60 459.93 385.77 Z" />
</g>
<g id="#1a18188e">
<path fill="#1a1818" opacity="0.56" d=" M 108.35 382.15 C 109.06 383.91 109.39 385.80 109.10 387.70 C 107.11 387.20 107.34 383.59 108.35 382.15 Z" />
<path fill="#1a1818" opacity="0.56" d=" M 319.31 655.22 C 320.14 657.27 320.39 659.48 320.04 661.69 C 317.96 660.77 318.51 657.02 319.31 655.22 Z" />
</g>
<g id="#fef4d3ff">
<path fill="#fef4d3" opacity="1.00" d=" M 155.80 389.78 C 166.68 398.69 177.03 409.48 191.07 413.15 C 198.89 415.48 207.72 411.32 211.26 404.04 C 223.85 419.33 239.65 432.00 257.69 440.28 C 261.63 442.44 266.23 443.10 270.05 445.50 C 247.22 450.66 222.25 442.05 207.01 424.40 C 204.28 428.92 199.32 431.94 193.96 431.72 C 186.35 431.28 180.14 426.22 174.85 421.19 C 166.57 412.16 158.61 401.94 155.80 389.78 Z" />
</g>
<g id="#1a19192f">
<path fill="#1a1919" opacity="0.18" d=" M 484.62 443.22 C 488.85 442.94 493.35 442.26 497.39 443.91 C 493.14 443.87 488.74 444.61 484.62 443.22 Z" />
</g>
<g id="#1b19198f">
<path fill="#1b1919" opacity="0.56" d=" M 501.53 444.16 C 505.19 444.02 508.97 443.87 512.51 445.00 C 508.83 444.98 505.17 444.68 501.53 444.16 Z" />
</g>
<g id="#1c1a198d">
<path fill="#1c1a19" opacity="0.55" d=" M 200.51 460.08 C 203.80 460.27 207.11 460.29 210.40 460.11 C 207.26 461.34 203.62 461.45 200.51 460.08 Z" />
</g>
<g id="#eeb370ff">
<path fill="#eeb370" opacity="1.00" d=" M 520.45 491.58 C 533.09 490.17 546.32 493.76 556.30 501.71 C 566.87 510.01 573.47 522.72 575.58 535.88 C 576.95 546.45 576.78 557.89 571.50 567.45 C 567.53 574.98 558.47 580.02 549.99 577.82 C 544.41 576.46 540.49 571.48 538.74 566.24 C 533.87 554.12 538.80 539.48 530.50 528.53 C 524.64 520.69 514.93 516.76 509.37 508.62 C 506.97 505.16 506.60 499.83 509.74 496.68 C 512.42 493.57 516.54 492.30 520.45 491.58 Z" />
</g>
<g id="#161414bb">
<path fill="#161414" opacity="0.73" d=" M 262.64 549.19 C 263.95 546.92 265.79 545.04 268.10 543.80 C 266.62 545.90 264.73 547.69 262.64 549.19 Z" />
</g>
<g id="#1b191898">
<path fill="#1b1918" opacity="0.60" d=" M 626.09 549.29 L 626.17 548.39 C 626.92 551.66 627.08 555.04 626.84 558.38 C 626.40 555.37 625.99 552.34 626.09 549.29 Z" />
</g>
<g id="#1a181794">
<path fill="#1a1817" opacity="0.58" d=" M 172.30 560.87 C 171.45 559.02 171.00 555.31 173.12 554.35 C 173.38 556.56 173.09 558.78 172.30 560.87 Z" />
</g>
<g id="#211f1e3f">
<path fill="#211f1e" opacity="0.25" d=" M 171.01 572.16 C 171.13 568.96 170.22 565.44 171.89 562.52 C 171.92 565.71 171.96 568.90 172.00 572.09 L 171.01 572.16 Z" />
<path fill="#211f1e" opacity="0.25" d=" M 627.09 563.44 C 628.60 565.63 627.85 568.46 628.07 570.95 C 627.83 574.10 628.70 577.56 627.10 580.46 C 627.05 574.79 626.95 569.11 627.09 563.44 Z" />
</g>
<g id="#1a181798">
<path fill="#1a1817" opacity="0.60" d=" M 625.89 588.60 C 625.60 586.42 625.88 584.25 626.68 582.23 C 627.55 583.98 628.02 587.77 625.89 588.60 Z" />
</g>
<g id="#1a181782">
<path fill="#1a1817" opacity="0.51" d=" M 312.28 596.22 C 313.12 598.26 313.31 600.46 313.10 602.65 C 310.96 601.74 311.41 598.02 312.28 596.22 Z" />
</g>
<g id="#1b191887">
<path fill="#1b1918" opacity="0.53" d=" M 313.31 604.20 C 314.06 606.26 314.39 608.45 314.05 610.64 C 311.92 609.73 312.46 605.99 313.31 604.20 Z" />
</g>
<g id="#1b191889">
<path fill="#1b1918" opacity="0.54" d=" M 202.81 613.05 C 206.78 613.31 210.76 613.19 214.74 613.27 L 215.64 613.30 C 211.45 614.22 206.91 614.51 202.81 613.05 Z" />
</g>
<g id="#e76228ff">
<path fill="#e76228" opacity="1.00" d=" M 239.61 616.85 C 252.00 610.67 268.22 611.81 278.93 620.76 C 282.50 630.30 285.66 640.76 283.07 650.96 C 280.92 660.78 273.51 668.77 264.72 673.27 L 264.28 673.49 C 254.92 664.41 247.58 653.21 243.47 640.82 C 246.08 637.96 248.98 635.30 251.02 631.99 C 252.66 629.36 252.51 625.02 249.40 623.57 C 246.25 622.39 242.85 623.37 239.65 623.75 C 239.65 621.45 239.63 619.15 239.61 616.85 Z" />
<path fill="#e76228" opacity="1.00" d=" M 219.16 642.95 C 220.87 635.68 224.50 628.72 230.07 623.67 C 230.28 625.95 230.56 628.22 230.78 630.51 C 230.80 630.79 230.85 631.34 230.88 631.61 C 227.72 636.15 225.39 641.44 225.21 647.04 C 225.03 649.35 226.52 651.89 228.94 652.26 C 231.64 651.67 233.69 649.61 235.93 648.12 C 240.20 658.73 246.25 668.73 254.26 676.94 C 245.18 679.18 235.65 678.09 226.92 674.96 C 219.69 666.16 216.70 654.09 219.16 642.95 Z" />
</g>
<g id="#1a18187d">
<path fill="#1a1818" opacity="0.49" d=" M 314.32 613.21 C 315.07 615.27 315.34 617.47 315.05 619.66 C 312.89 618.74 313.45 615.00 314.32 613.21 Z" />
</g>
<g id="#14131365">
<path fill="#141313" opacity="0.40" d=" M 221.26 619.12 C 220.46 617.18 223.12 614.48 225.07 615.35 C 224.14 616.92 222.85 618.21 221.26 619.12 Z" />
</g>
<g id="#f5dc03ff">
<path fill="#f5dc03" opacity="1.00" d=" M 230.07 623.67 C 232.77 620.81 236.18 618.71 239.61 616.85 C 239.63 619.15 239.65 621.45 239.65 623.75 C 236.48 625.72 233.53 628.00 230.78 630.51 C 230.56 628.22 230.28 625.95 230.07 623.67 Z" />
<path fill="#f5dc03" opacity="1.00" d=" M 243.17 641.12 L 243.47 640.82 C 247.58 653.21 254.92 664.41 264.28 673.49 C 261.17 674.94 257.97 676.19 254.77 677.45 L 254.26 676.94 C 246.25 668.73 240.20 658.73 235.93 648.12 L 235.74 647.65 C 238.38 645.66 240.89 643.51 243.17 641.12 Z" />
</g>
<g id="#df531fff">
<path fill="#df531f" opacity="1.00" d=" M 278.93 620.76 C 288.01 626.74 293.21 637.42 294.25 648.06 C 295.24 661.13 289.01 674.69 278.05 682.00 C 273.27 679.66 268.52 677.06 264.72 673.27 C 273.51 668.77 280.92 660.78 283.07 650.96 C 285.66 640.76 282.50 630.30 278.93 620.76 Z" />
<path fill="#df531f" opacity="1.00" d=" M 226.92 674.96 C 235.65 678.09 245.18 679.18 254.26 676.94 L 254.77 677.45 C 258.53 681.19 262.77 684.39 267.15 687.37 C 252.82 691.80 236.28 686.65 226.92 674.96 Z" />
</g>
<g id="#1918187c">
<path fill="#191818" opacity="0.49" d=" M 315.33 622.19 C 316.08 624.26 316.35 626.45 316.05 628.65 C 313.93 627.70 314.42 623.97 315.33 622.19 Z" />
</g>
<g id="#f4a87cff">
<path fill="#f4a87c" opacity="1.00" d=" M 239.65 623.75 C 242.85 623.37 246.25 622.39 249.40 623.57 C 252.51 625.02 252.66 629.36 251.02 631.99 C 248.98 635.30 246.08 637.96 243.47 640.82 L 243.17 641.12 C 241.55 635.43 240.15 629.66 239.65 623.75 Z" />
<path fill="#f4a87c" opacity="1.00" d=" M 225.21 647.04 C 225.39 641.44 227.72 636.15 230.88 631.61 C 231.94 637.11 233.69 642.45 235.74 647.65 L 235.93 648.12 C 233.69 649.61 231.64 651.67 228.94 652.26 C 226.52 651.89 225.03 649.35 225.21 647.04 Z" />
</g>
<g id="#faec7dff">
<path fill="#faec7d" opacity="1.00" d=" M 230.78 630.51 C 233.53 628.00 236.48 625.72 239.65 623.75 C 240.15 629.66 241.55 635.43 243.17 641.12 C 240.89 643.51 238.38 645.66 235.74 647.65 C 233.69 642.45 231.94 637.11 230.88 631.61 C 230.85 631.34 230.80 630.79 230.78 630.51 Z" />
</g>
<g id="#19181781">
<path fill="#191817" opacity="0.51" d=" M 316.35 631.13 C 317.05 632.88 317.29 634.77 317.16 636.66 C 315.11 636.17 315.25 632.56 316.35 631.13 Z" />
</g>
<g id="#1a181889">
<path fill="#1a1818" opacity="0.54" d=" M 317.32 638.23 C 318.07 640.30 318.39 642.50 318.05 644.70 C 315.96 643.76 316.44 640.02 317.32 638.23 Z" />
<path fill="#1a1818" opacity="0.54" d=" M 542.17 653.67 C 543.94 653.03 545.81 652.65 547.71 652.88 C 547.24 654.95 543.61 654.70 542.17 653.67 Z" />
</g>
<g id="#13131241">
<path fill="#131312" opacity="0.25" d=" M 579.93 640.80 C 580.75 639.75 581.68 638.79 582.73 637.96 C 584.05 639.55 581.55 642.14 579.93 640.80 Z" />
</g>
<g id="#1a1918aa">
<path fill="#1a1918" opacity="0.67" d=" M 302.92 641.58 C 304.17 644.34 304.09 647.40 303.86 650.35 C 303.45 647.43 303.13 644.51 302.92 641.58 Z" />
</g>
<g id="#201e1e3b">
<path fill="#201e1e" opacity="0.23" d=" M 208.95 655.44 C 207.51 652.87 207.30 649.13 208.95 646.63 C 208.93 649.56 208.92 652.50 208.95 655.44 Z" />
</g>
<g id="#1b19188b">
<path fill="#1b1918" opacity="0.55" d=" M 318.34 647.09 C 319.08 648.92 319.35 650.90 319.07 652.88 C 317.17 652.14 317.38 648.64 318.34 647.09 Z" />
</g>
<g id="#1b1a1992">
<path fill="#1b1a19" opacity="0.57" d=" M 302.85 659.68 C 302.68 657.77 302.93 655.87 303.64 654.10 C 304.65 655.54 304.91 659.23 302.85 659.68 Z" />
</g>
<g id="#1a181881">
<path fill="#1a1818" opacity="0.51" d=" M 535.15 654.67 C 536.91 654.05 538.75 653.73 540.63 653.88 C 540.26 656.03 536.56 655.73 535.15 654.67 Z" />
</g>
<g id="#1a181880">
<path fill="#1a1818" opacity="0.50" d=" M 528.17 655.65 C 529.94 654.99 531.82 654.74 533.72 654.89 C 533.20 656.99 529.62 656.73 528.17 655.65 Z" />
</g>
<g id="#1a181883">
<path fill="#1a1818" opacity="0.51" d=" M 513.18 657.70 C 515.26 656.93 517.46 656.66 519.67 656.90 C 518.78 659.10 515.00 658.52 513.18 657.70 Z" />
<path fill="#1a1818" opacity="0.51" d=" M 479.63 660.86 C 483.50 660.29 487.40 659.99 491.31 659.99 C 487.51 661.05 483.53 661.03 479.63 660.86 Z" />
</g>
<g id="#1b191885">
<path fill="#1b1918" opacity="0.52" d=" M 504.20 658.67 C 506.31 657.92 508.55 657.63 510.79 657.95 C 509.77 659.99 506.03 659.56 504.20 658.67 Z" />
</g>
<g id="#1a19188d">
<path fill="#1a1918" opacity="0.55" d=" M 492.45 659.87 C 495.21 659.40 498.01 658.97 500.83 659.09 L 501.75 659.29 C 498.68 659.91 495.56 659.98 492.45 659.87 Z" />
</g>
<g id="#1c1b1a92">
<path fill="#1c1b1a" opacity="0.57" d=" M 408.20 660.01 C 409.78 659.51 411.37 660.12 412.87 660.65 C 411.55 661.60 409.29 661.73 408.10 660.52 L 408.20 660.01 Z" />
</g>
<g id="#1b19198d">
<path fill="#1b1919" opacity="0.55" d=" M 414.27 660.81 C 415.87 660.74 417.46 661.03 418.97 661.63 C 417.80 662.78 414.35 662.80 414.27 660.81 Z" />
</g>
<g id="#1a191899">
<path fill="#1a1918" opacity="0.60" d=" M 465.64 661.85 C 469.45 661.27 473.29 661.00 477.15 660.99 L 477.21 661.47 C 473.36 661.72 469.50 662.18 465.64 661.85 Z" />
</g>
<g id="#1c1a199b">
<path fill="#1c1a19" opacity="0.61" d=" M 420.79 662.05 C 428.86 661.95 436.92 662.82 444.99 662.40 C 451.03 662.16 457.08 662.05 463.13 662.06 C 453.81 663.24 444.37 662.95 435.00 663.02 C 430.25 662.99 425.47 662.88 420.79 662.05 Z" />
</g>
<g id="#e6c200ff">
<path fill="#e6c200" opacity="1.00" d=" M 264.28 673.49 L 264.72 673.27 C 268.52 677.06 273.27 679.66 278.05 682.00 C 274.76 684.42 271.03 686.15 267.15 687.37 C 262.77 684.39 258.53 681.19 254.77 677.45 C 257.97 676.19 261.17 674.94 264.28 673.49 Z" />
</g>
<g id="#1a191886">
<path fill="#1a1918" opacity="0.53" d=" M 357.58 693.01 C 364.43 693.28 371.30 693.58 378.14 692.99 L 378.23 693.61 C 371.36 693.98 364.35 694.52 357.58 693.01 Z" />
</g>
</svg>
