<?xml version="1.0" encoding="UTF-8" ?>
<!DOCTYPE svg PUBLIC "-//W3C//DTD SVG 1.1//EN" "http://www.w3.org/Graphics/SVG/1.1/DTD/svg11.dtd">
<svg width="626pt" height="770pt" viewBox="0 0 626 770" version="1.1" xmlns="http://www.w3.org/2000/svg">
<g id="#1b1a1954">
<path fill="#1b1a19" opacity="0.33" d=" M 193.87 17.16 C 196.95 17.01 200.05 16.99 203.14 17.13 L 203.11 18.02 C 200.05 17.87 196.97 17.86 193.91 18.01 L 193.87 17.16 Z" />
</g>
<g id="#070606ff">
<path fill="#070606" opacity="1.00" d=" M 178.47 24.52 C 183.05 21.29 188.15 18.25 193.91 18.01 C 196.97 17.86 200.05 17.87 203.11 18.02 C 209.31 18.39 215.10 20.88 220.65 23.48 C 231.17 28.67 240.16 36.41 248.30 44.76 C 249.56 46.16 251.24 47.35 251.82 49.23 C 252.17 50.67 253.10 52.05 254.68 52.28 L 255.32 52.48 C 276.91 78.87 293.81 109.26 304.00 141.83 C 304.19 142.51 304.57 143.88 304.76 144.56 C 307.02 144.72 309.29 144.82 311.56 144.98 C 311.98 145.06 312.82 145.23 313.24 145.32 C 315.29 146.00 317.43 146.29 319.59 146.09 C 320.04 146.11 320.93 146.14 321.38 146.16 C 324.34 146.60 327.32 146.89 330.31 147.02 C 330.78 147.10 331.72 147.25 332.19 147.33 C 334.27 147.99 336.47 148.58 338.67 148.05 L 338.83 147.73 C 349.12 129.21 361.52 111.79 376.00 96.31 C 377.82 94.52 379.58 92.66 381.26 90.74 C 383.32 88.48 385.43 86.28 387.74 84.28 C 389.72 82.67 391.56 80.90 393.30 79.04 C 406.98 66.30 422.45 54.90 440.14 48.46 C 445.66 46.56 451.44 45.10 457.31 44.97 C 459.42 45.03 461.55 45.02 463.67 44.94 C 471.84 45.02 479.90 48.63 485.35 54.72 C 493.13 63.16 496.59 74.62 498.01 85.78 C 498.08 89.31 498.41 92.83 498.87 96.33 C 499.24 101.75 499.09 107.19 498.87 112.61 C 498.28 117.80 497.97 123.01 498.00 128.23 C 497.97 128.54 497.91 129.16 497.88 129.47 C 497.38 132.50 497.11 135.56 497.04 138.63 C 496.94 139.28 496.74 140.58 496.65 141.22 C 495.94 143.30 495.61 145.49 495.96 147.67 C 495.88 148.53 495.73 150.24 495.66 151.09 C 495.02 152.90 494.69 154.81 494.91 156.73 C 494.63 166.24 492.35 175.57 491.04 184.97 C 488.64 201.03 484.31 216.70 480.93 232.56 C 480.06 236.70 479.90 240.95 480.00 245.18 C 480.03 247.97 480.08 250.76 480.06 253.55 C 479.85 258.18 480.13 262.83 480.93 267.40 C 481.96 278.90 486.08 289.89 486.87 301.40 C 486.73 303.27 487.07 305.12 487.66 306.90 C 487.71 307.50 487.81 308.68 487.87 309.27 C 487.51 311.51 487.85 313.75 488.68 315.84 C 488.76 316.29 488.93 317.18 489.01 317.62 C 489.23 324.99 489.38 332.36 489.08 339.73 C 487.67 352.36 486.34 366.81 476.30 375.88 C 490.18 388.84 500.37 405.56 506.11 423.62 C 512.82 425.29 519.00 429.37 523.77 434.29 C 524.69 435.99 526.06 437.38 527.79 438.28 C 536.81 447.06 541.84 459.46 543.68 471.80 C 545.66 489.19 539.49 506.99 528.53 520.44 C 522.01 528.56 513.01 534.77 502.77 537.07 C 497.33 554.63 491.04 571.98 482.89 588.49 C 494.59 590.15 506.02 593.43 517.07 597.57 C 525.47 600.74 533.49 606.37 537.17 614.83 C 538.35 617.86 540.07 620.93 539.84 624.29 C 539.48 626.52 539.87 628.75 540.67 630.86 C 541.21 633.23 541.16 635.77 540.65 638.16 C 539.92 640.26 539.57 642.47 539.87 644.70 C 539.92 649.78 537.83 654.59 536.52 659.44 C 532.62 671.53 523.71 683.53 510.58 686.07 C 505.29 686.46 499.98 686.35 494.69 686.04 C 478.67 683.44 462.97 679.21 447.08 675.93 C 439.31 674.50 432.17 670.37 424.14 670.28 C 419.23 675.08 413.69 679.15 408.53 683.67 C 393.45 696.63 374.17 704.44 354.37 706.03 C 349.42 706.10 344.47 706.10 339.52 706.05 C 339.09 705.96 338.25 705.78 337.83 705.69 C 335.73 704.99 333.54 704.73 331.35 704.93 C 330.88 704.92 329.94 704.89 329.46 704.88 C 326.68 704.46 323.88 704.13 321.06 704.09 C 320.51 703.99 319.39 703.79 318.84 703.69 C 317.07 703.04 315.22 702.66 313.35 702.84 C 309.08 702.87 304.95 701.61 300.81 700.73 C 272.92 694.75 246.44 683.39 221.68 669.39 C 206.80 679.37 192.12 689.89 175.86 697.55 C 168.95 700.50 161.85 703.48 154.28 704.01 C 150.46 704.24 146.63 704.25 142.82 703.99 C 130.77 702.81 121.02 694.08 114.54 684.38 C 107.52 673.82 101.97 660.94 104.65 648.04 C 106.11 640.59 111.90 634.86 118.55 631.66 C 129.70 626.39 141.12 621.70 152.31 616.51 C 132.51 595.86 115.77 571.35 108.48 543.39 C 107.68 539.19 105.98 535.07 106.12 530.74 C 106.38 528.81 106.01 526.89 105.33 525.10 C 105.24 524.70 105.06 523.90 104.97 523.51 C 104.76 517.14 104.77 510.77 104.98 504.41 C 105.02 503.35 105.07 502.29 105.12 501.25 C 93.81 493.73 85.32 481.64 83.04 468.18 C 82.33 462.23 82.50 456.23 82.97 450.27 C 85.59 435.68 93.42 422.33 103.81 411.88 C 109.56 406.17 117.04 401.52 125.28 400.97 C 127.08 401.00 128.88 401.01 130.68 400.99 C 140.80 401.73 149.41 408.26 156.17 415.40 C 160.13 413.11 163.97 410.57 168.25 408.92 L 169.25 408.46 C 169.07 407.97 168.72 407.00 168.54 406.51 C 165.58 406.13 162.59 406.28 159.62 406.07 C 152.73 404.20 147.92 398.07 145.43 391.66 C 143.40 386.02 141.55 380.23 141.02 374.23 C 140.85 371.29 140.54 368.37 140.16 365.45 C 139.92 362.47 139.89 359.46 140.16 356.48 C 140.54 353.71 140.90 350.92 140.93 348.11 C 140.94 347.56 140.97 346.46 140.99 345.90 C 136.50 346.19 131.66 345.84 127.99 342.95 C 122.98 339.25 120.17 333.24 119.06 327.25 C 118.22 319.57 118.73 311.86 118.90 304.17 C 121.50 280.17 130.94 257.57 140.73 235.72 C 143.99 227.96 145.70 219.70 147.06 211.42 C 147.69 208.51 147.91 205.53 148.04 202.56 C 148.07 202.31 148.12 201.81 148.15 201.55 C 149.46 195.26 149.23 188.78 148.18 182.47 C 147.98 180.77 147.91 179.07 147.90 177.37 C 148.01 170.46 147.99 163.55 147.90 156.63 C 147.91 155.22 147.97 153.80 148.09 152.39 C 148.72 146.85 149.11 141.27 148.96 135.69 C 148.99 135.13 149.06 134.00 149.10 133.44 C 149.69 129.24 150.02 125.01 150.00 120.77 C 150.04 120.24 150.13 119.18 150.18 118.65 C 150.64 115.68 150.89 112.68 151.01 109.68 C 151.09 109.21 151.25 108.26 151.33 107.79 C 152.02 105.71 152.37 103.53 152.10 101.34 C 152.20 95.12 153.74 89.01 154.40 82.83 C 157.38 63.71 161.28 43.36 174.40 28.34 L 175.19 28.17 C 176.74 28.07 178.00 26.84 178.23 25.32 L 178.47 24.52 M 189.74 28.88 C 183.06 31.83 178.64 38.07 175.41 44.37 C 166.19 62.90 163.24 83.67 161.02 104.01 C 158.92 127.97 157.08 151.98 157.16 176.04 C 157.15 184.06 157.92 192.06 157.75 200.08 C 156.71 210.83 155.04 221.61 151.59 231.89 C 149.19 240.28 145.07 248.01 141.45 255.91 C 139.30 261.18 137.06 266.42 135.60 271.94 C 130.05 289.13 125.21 307.27 127.78 325.47 C 128.43 330.84 131.83 337.36 138.07 337.12 C 141.32 337.54 144.02 335.23 144.52 332.09 C 146.03 327.70 154.02 330.12 152.73 334.67 C 147.65 351.34 147.43 369.58 152.76 386.21 C 154.45 391.55 158.03 397.06 164.08 397.80 C 167.77 398.26 168.53 393.35 171.89 392.89 C 173.67 392.30 175.76 393.41 176.53 395.05 C 177.15 398.34 177.20 401.71 177.57 405.04 C 182.91 403.61 188.28 402.29 193.74 401.40 C 200.85 400.44 208.02 400.44 215.17 400.82 C 244.22 403.04 271.25 417.21 292.62 436.54 C 299.40 407.57 314.41 379.59 338.39 361.34 C 353.77 349.63 372.63 342.25 392.04 341.70 C 408.73 341.14 425.15 345.84 440.22 352.70 C 450.77 357.14 460.45 363.32 469.75 369.95 C 472.47 367.45 474.80 364.44 475.99 360.90 C 482.49 342.33 481.74 322.04 477.93 302.99 C 476.12 290.95 473.86 278.97 472.01 266.94 C 470.58 255.87 470.68 244.65 471.76 233.57 C 472.78 222.88 475.34 212.43 477.20 201.88 C 481.16 182.74 485.07 163.54 487.00 144.07 C 489.52 122.69 491.79 100.61 486.51 79.45 L 486.49 80.08 C 485.25 70.97 480.92 61.08 472.30 56.73 C 464.67 53.17 455.84 54.03 447.92 56.06 C 433.65 60.11 420.90 68.21 409.51 77.54 C 384.13 98.70 362.34 124.35 346.55 153.43 C 345.50 155.19 344.29 157.47 341.96 157.59 C 339.31 157.65 336.70 157.22 334.08 156.98 C 322.70 155.94 311.35 154.68 300.00 153.47 C 299.10 152.88 298.21 152.28 297.33 151.68 C 290.31 128.72 280.68 106.48 267.73 86.21 C 258.63 71.98 248.81 57.98 236.45 46.37 C 228.87 39.48 220.47 33.12 210.72 29.68 C 204.19 26.94 196.43 26.23 189.74 28.88 M 380.48 352.57 C 361.09 355.98 343.52 366.92 330.62 381.62 C 314.39 400.03 304.54 423.45 300.21 447.45 C 299.56 450.72 294.76 452.21 292.48 449.70 C 273.76 431.00 250.11 416.47 223.88 411.54 C 203.21 407.59 180.93 411.10 163.03 422.37 C 170.60 429.43 175.89 438.68 178.56 448.65 C 180.52 458.99 180.30 470.06 175.85 479.75 C 165.95 502.29 137.60 514.24 114.49 505.88 C 114.20 509.90 114.07 513.94 114.17 517.98 C 115.02 537.60 121.38 556.74 131.30 573.61 C 141.74 591.49 155.72 607.06 171.10 620.82 C 186.52 634.41 203.06 646.74 220.60 657.46 C 253.20 677.32 289.80 691.78 328.05 695.10 C 340.17 696.24 352.44 696.03 364.49 694.24 C 368.19 693.65 372.01 693.16 375.41 691.48 C 398.12 681.54 417.40 665.14 433.73 646.72 C 461.17 615.48 480.04 577.44 492.04 537.83 C 482.99 537.10 474.31 532.22 469.48 524.45 C 462.75 513.80 462.83 500.72 463.11 488.58 C 463.84 484.90 464.02 481.07 465.52 477.58 C 467.49 471.37 472.13 466.30 477.92 463.42 C 483.08 460.73 488.83 459.17 493.57 455.70 C 499.03 451.73 501.94 444.41 500.27 437.81 C 497.39 425.02 492.40 412.67 485.31 401.64 C 475.60 386.54 461.43 374.69 445.70 366.24 C 436.16 361.24 426.23 356.59 415.65 354.32 C 404.33 350.95 392.09 350.10 380.48 352.57 M 121.89 411.11 C 111.44 415.28 104.72 424.92 99.37 434.35 C 93.69 444.49 89.77 456.64 92.85 468.25 C 96.07 482.06 107.00 494.22 120.92 497.66 C 141.79 503.59 166.09 488.60 169.68 467.09 C 171.87 453.63 165.49 440.69 157.79 430.09 C 154.23 424.86 149.92 420.13 144.74 416.46 C 138.05 412.15 129.93 408.65 121.89 411.11 M 510.19 435.72 C 511.21 443.64 509.69 452.07 504.67 458.44 C 498.00 467.23 485.90 467.94 478.25 475.34 C 471.64 482.84 472.37 493.68 472.71 503.00 C 473.23 507.95 474.32 512.91 476.63 517.35 C 479.51 522.71 484.93 526.61 490.92 527.67 C 500.15 529.24 509.68 525.65 516.36 519.28 C 524.20 511.74 530.14 501.97 532.59 491.34 C 535.28 481.97 534.96 471.84 531.62 462.68 C 528.00 451.51 520.01 442.03 510.19 435.72 M 478.21 597.65 C 470.94 612.20 462.09 625.94 452.46 639.04 C 446.48 646.99 439.83 654.38 433.20 661.79 C 441.19 663.83 448.89 666.99 457.09 668.24 C 466.69 670.77 476.58 672.10 486.13 674.86 C 495.27 676.85 505.76 679.45 514.36 674.33 C 523.40 668.98 527.36 658.55 529.52 648.79 C 530.99 639.58 532.46 629.76 529.26 620.76 C 526.92 613.96 520.88 609.24 514.34 606.80 C 508.89 604.77 503.37 602.73 497.68 601.60 C 491.40 599.41 484.82 598.24 478.21 597.65 M 148.13 629.06 C 145.68 629.78 143.40 631.00 141.08 632.04 C 134.69 635.15 127.72 636.99 121.56 640.59 C 117.40 643.05 113.87 647.13 113.49 652.14 C 112.57 660.77 116.39 669.02 120.71 676.25 C 124.14 681.69 128.13 687.14 133.81 690.39 C 139.42 694.17 146.41 695.26 153.04 694.71 C 164.54 693.86 174.66 687.73 184.37 682.04 C 194.01 676.35 203.21 669.97 212.67 664.01 C 202.38 657.82 192.64 650.79 183.04 643.60 C 175.06 637.29 167.38 630.64 159.87 623.78 C 155.92 625.44 151.92 627.03 148.13 629.06 Z" />
<path fill="#070606" opacity="1.00" d=" M 244.57 222.77 C 252.72 220.58 262.01 223.00 267.92 229.04 C 275.12 236.50 276.65 247.90 274.63 257.71 C 273.12 262.29 265.09 260.97 265.46 256.06 C 265.94 249.83 266.40 242.88 262.57 237.51 C 258.18 231.02 248.47 229.84 242.16 234.18 C 235.84 237.87 234.96 245.76 231.76 251.66 C 228.84 255.30 221.69 252.04 223.43 247.34 C 225.71 241.60 227.83 235.58 231.71 230.69 C 234.95 226.66 239.70 224.23 244.57 222.77 Z" />
<path fill="#070606" opacity="1.00" d=" M 354.33 238.47 C 366.88 234.38 382.00 242.03 385.45 254.90 C 386.64 260.17 387.46 265.56 387.86 270.94 C 387.06 275.08 380.53 276.13 378.79 272.11 C 376.93 265.64 378.43 257.78 373.47 252.45 C 368.34 246.22 357.64 244.79 351.84 250.84 C 347.19 255.25 346.12 261.83 344.66 267.76 C 342.99 272.09 335.88 270.39 335.61 266.03 C 336.57 254.64 342.65 242.04 354.33 238.47 Z" />
<path fill="#070606" opacity="1.00" d=" M 281.49 272.63 C 285.49 271.09 289.86 271.93 294.02 272.01 C 303.95 272.42 313.79 273.80 323.54 275.64 C 326.34 276.11 329.18 277.94 329.75 280.90 C 330.15 284.35 327.21 286.84 324.78 288.76 C 318.00 292.98 309.96 295.78 301.89 294.76 C 294.83 294.07 288.66 290.10 283.26 285.78 C 279.23 283.06 275.84 275.39 281.49 272.63 Z" />
<path fill="#070606" opacity="1.00" d=" M 232.68 286.98 C 232.52 283.50 237.06 281.38 239.86 283.09 C 241.86 283.79 242.13 286.08 242.52 287.86 C 243.90 296.33 249.85 303.63 257.34 307.57 C 267.20 312.49 279.34 312.82 289.36 308.17 C 293.06 306.50 296.10 303.61 298.33 300.24 C 299.87 297.35 305.30 297.87 306.03 301.16 C 308.33 309.36 315.72 314.97 323.48 317.66 C 330.10 319.82 337.33 321.25 344.20 319.29 C 352.64 317.44 360.18 311.61 363.63 303.62 C 364.81 300.20 369.60 299.39 371.81 302.27 C 373.89 304.26 372.73 307.31 371.55 309.45 C 364.47 323.50 348.05 331.34 332.64 329.62 C 328.03 338.95 318.32 344.60 308.40 346.62 C 297.17 349.51 284.56 347.94 274.99 341.19 C 267.50 336.16 262.24 328.02 260.67 319.14 C 246.13 315.19 233.99 302.23 232.68 286.98 M 270.96 321.06 C 272.67 324.78 274.66 328.52 277.85 331.20 C 284.64 337.51 294.61 339.30 303.54 337.74 C 310.76 336.65 318.57 333.99 322.69 327.52 C 314.01 324.93 305.83 319.96 300.52 312.49 C 292.37 319.33 281.33 321.32 270.96 321.06 Z" />
</g>
<g id="#161514bb">
<path fill="#161514" opacity="0.73" d=" M 175.19 28.17 C 174.72 26.75 176.84 24.84 178.23 25.32 C 178.00 26.84 176.74 28.07 175.19 28.17 Z" />
</g>
<g id="#dd8019ff">
<path fill="#dd8019" opacity="1.00" d=" M 189.74 28.88 C 196.43 26.23 204.19 26.94 210.72 29.68 C 213.90 33.34 217.47 36.66 220.43 40.52 C 237.13 63.31 249.74 89.02 258.01 116.01 C 261.96 128.77 264.56 141.89 266.93 155.01 C 276.96 153.09 287.15 152.29 297.33 151.68 C 298.21 152.28 299.10 152.88 300.00 153.47 C 300.16 159.50 300.14 165.55 299.33 171.55 C 296.73 199.43 291.46 227.06 283.86 254.01 C 282.43 259.10 281.25 264.57 277.69 268.67 C 275.30 271.40 271.48 272.05 268.02 271.95 C 260.48 271.93 252.58 270.71 245.36 273.52 C 236.53 276.96 231.42 285.94 222.66 289.48 C 214.29 292.74 204.78 290.87 197.00 286.88 C 186.83 282.01 179.23 273.44 170.43 266.64 C 162.06 260.28 151.58 257.81 141.45 255.91 C 145.07 248.01 149.19 240.28 151.59 231.89 C 155.04 221.61 156.71 210.83 157.75 200.08 C 157.92 192.06 157.15 184.06 157.16 176.04 C 157.08 151.98 158.92 127.97 161.02 104.01 C 163.24 83.67 166.19 62.90 175.41 44.37 C 178.64 38.07 183.06 31.83 189.74 28.88 M 195.28 56.30 C 191.98 58.00 190.14 61.46 188.51 64.62 C 179.11 84.72 177.12 107.14 175.23 128.96 C 174.14 146.59 174.19 164.30 175.45 181.93 C 175.83 185.18 176.08 188.93 178.69 191.26 C 180.27 192.49 182.42 191.77 184.06 191.06 C 189.46 188.57 194.25 184.89 199.86 182.85 C 208.08 179.86 215.70 175.57 223.42 171.51 C 228.28 168.81 233.48 166.43 237.61 162.63 C 240.84 159.50 240.22 154.65 239.44 150.66 C 233.59 119.83 220.35 91.10 206.98 62.93 C 205.10 58.54 200.45 53.61 195.28 56.30 M 244.57 222.77 C 239.70 224.23 234.95 226.66 231.71 230.69 C 227.83 235.58 225.71 241.60 223.43 247.34 C 221.69 252.04 228.84 255.30 231.76 251.66 C 234.96 245.76 235.84 237.87 242.16 234.18 C 248.47 229.84 258.18 231.02 262.57 237.51 C 266.40 242.88 265.94 249.83 265.46 256.06 C 265.09 260.97 273.12 262.29 274.63 257.71 C 276.65 247.90 275.12 236.50 267.92 229.04 C 262.01 223.00 252.72 220.58 244.57 222.77 Z" />
<path fill="#dd8019" opacity="1.00" d=" M 447.92 56.06 C 455.84 54.03 464.67 53.17 472.30 56.73 C 480.92 61.08 485.25 70.97 486.49 80.08 C 486.60 92.18 487.64 104.31 486.48 116.40 C 483.89 158.66 471.86 199.54 460.02 239.96 C 457.49 249.51 454.47 259.14 454.87 269.14 C 454.73 269.19 454.44 269.30 454.29 269.35 C 437.95 275.56 426.40 289.97 410.10 296.26 C 402.89 299.19 394.61 300.29 387.09 297.86 C 376.30 294.16 370.05 283.01 359.01 279.81 C 350.24 277.02 340.86 278.25 331.98 276.16 C 328.40 275.46 326.08 272.21 325.28 268.84 C 315.07 232.06 318.30 191.73 334.08 156.98 C 336.70 157.22 339.31 157.65 341.96 157.59 C 344.29 157.47 345.50 155.19 346.55 153.43 C 362.34 124.35 384.13 98.70 409.51 77.54 C 420.90 68.21 433.65 60.11 447.92 56.06 M 460.30 83.47 C 453.06 86.11 447.76 92.09 442.78 97.71 C 423.61 120.26 407.62 145.55 395.67 172.63 C 394.30 175.23 394.41 178.43 396.30 180.74 C 406.13 194.37 420.67 204.44 436.68 209.40 C 441.36 210.86 447.28 210.80 450.65 206.72 C 454.73 201.83 455.29 195.17 457.32 189.33 C 466.72 159.39 473.43 128.43 474.89 97.02 C 474.99 92.78 474.13 88.14 471.02 85.05 C 468.18 82.40 463.82 82.35 460.30 83.47 M 354.33 238.47 C 342.65 242.04 336.57 254.64 335.61 266.03 C 335.88 270.39 342.99 272.09 344.66 267.76 C 346.12 261.83 347.19 255.25 351.84 250.84 C 357.64 244.79 368.34 246.22 373.47 252.45 C 378.43 257.78 376.93 265.64 378.79 272.11 C 380.53 276.13 387.06 275.08 387.86 270.94 C 387.46 265.56 386.64 260.17 385.45 254.90 C 382.00 242.03 366.88 234.38 354.33 238.47 Z" />
</g>
<g id="#d16e1fff">
<path fill="#d16e1f" opacity="1.00" d=" M 210.72 29.68 C 220.47 33.12 228.87 39.48 236.45 46.37 C 248.81 57.98 258.63 71.98 267.73 86.21 C 280.68 106.48 290.31 128.72 297.33 151.68 C 287.15 152.29 276.96 153.09 266.93 155.01 C 264.56 141.89 261.96 128.77 258.01 116.01 C 249.74 89.02 237.13 63.31 220.43 40.52 C 217.47 36.66 213.90 33.34 210.72 29.68 Z" />
<path fill="#d16e1f" opacity="1.00" d=" M 486.49 80.08 L 486.51 79.45 C 491.79 100.61 489.52 122.69 487.00 144.07 C 485.07 163.54 481.16 182.74 477.20 201.88 C 475.34 212.43 472.78 222.88 471.76 233.57 C 470.68 244.65 470.58 255.87 472.01 266.94 C 466.23 266.87 460.36 267.19 454.87 269.14 C 454.47 259.14 457.49 249.51 460.02 239.96 C 471.86 199.54 483.89 158.66 486.48 116.40 C 487.64 104.31 486.60 92.18 486.49 80.08 Z" />
</g>
<g id="#21201f41">
<path fill="#21201f" opacity="0.25" d=" M 457.31 44.97 C 458.08 43.05 462.87 43.05 463.67 44.94 C 461.55 45.02 459.42 45.03 457.31 44.97 Z" />
</g>
<g id="#171515b7">
<path fill="#171515" opacity="0.72" d=" M 251.82 49.23 C 253.27 48.65 255.27 50.87 254.68 52.28 C 253.10 52.05 252.17 50.67 251.82 49.23 Z" />
</g>
<g id="#f4b255ff">
<path fill="#f4b255" opacity="1.00" d=" M 195.28 56.30 C 200.45 53.61 205.10 58.54 206.98 62.93 C 220.35 91.10 233.59 119.83 239.44 150.66 C 240.22 154.65 240.84 159.50 237.61 162.63 C 233.48 166.43 228.28 168.81 223.42 171.51 C 215.70 175.57 208.08 179.86 199.86 182.85 C 194.25 184.89 189.46 188.57 184.06 191.06 C 182.42 191.77 180.27 192.49 178.69 191.26 C 176.08 188.93 175.83 185.18 175.45 181.93 C 174.19 164.30 174.14 146.59 175.23 128.96 C 177.12 107.14 179.11 84.72 188.51 64.62 C 190.14 61.46 191.98 58.00 195.28 56.30 Z" />
<path fill="#f4b255" opacity="1.00" d=" M 460.30 83.47 C 463.82 82.35 468.18 82.40 471.02 85.05 C 474.13 88.14 474.99 92.78 474.89 97.02 C 473.43 128.43 466.72 159.39 457.32 189.33 C 455.29 195.17 454.73 201.83 450.65 206.72 C 447.28 210.80 441.36 210.86 436.68 209.40 C 420.67 204.44 406.13 194.37 396.30 180.74 C 394.41 178.43 394.30 175.23 395.67 172.63 C 407.62 145.55 423.61 120.26 442.78 97.71 C 447.76 92.09 453.06 86.11 460.30 83.47 Z" />
</g>
<g id="#15141398">
<path fill="#151413" opacity="0.60" d=" M 387.74 84.28 C 389.27 82.22 391.10 80.37 393.30 79.04 C 391.56 80.90 389.72 82.67 387.74 84.28 Z" />
</g>
<g id="#1a18189b">
<path fill="#1a1818" opacity="0.61" d=" M 498.01 85.78 C 499.04 89.20 499.12 92.80 498.87 96.33 C 498.41 92.83 498.08 89.31 498.01 85.78 Z" />
</g>
<g id="#1312115a">
<path fill="#131211" opacity="0.35" d=" M 376.00 96.31 C 377.21 93.99 379.08 92.14 381.26 90.74 C 379.58 92.66 377.82 94.52 376.00 96.31 Z" />
</g>
<g id="#1a181787">
<path fill="#1a1817" opacity="0.53" d=" M 151.33 107.79 C 150.37 106.04 149.98 102.17 152.10 101.34 C 152.37 103.53 152.02 105.71 151.33 107.79 Z" />
<path fill="#1a1817" opacity="0.53" d=" M 149.10 133.44 C 148.94 129.20 149.01 124.91 150.00 120.77 C 150.02 125.01 149.69 129.24 149.10 133.44 Z" />
</g>
<g id="#1a18187a">
<path fill="#1a1818" opacity="0.48" d=" M 150.18 118.65 C 149.94 115.63 150.03 112.56 151.01 109.68 C 150.89 112.68 150.64 115.68 150.18 118.65 Z" />
</g>
<g id="#1a191889">
<path fill="#1a1918" opacity="0.54" d=" M 498.00 128.23 C 497.97 123.01 498.28 117.80 498.87 112.61 C 499.08 117.82 499.01 123.10 498.00 128.23 Z" />
</g>
<g id="#1a18179e">
<path fill="#1a1817" opacity="0.62" d=" M 497.04 138.63 C 497.11 135.56 497.38 132.50 497.88 129.47 C 498.10 132.55 497.96 135.67 497.04 138.63 Z" />
</g>
<g id="#19181784">
<path fill="#191817" opacity="0.52" d=" M 148.09 152.39 C 148.04 146.82 147.98 141.19 148.96 135.69 C 149.11 141.27 148.72 146.85 148.09 152.39 Z" />
</g>
<g id="#1a181789">
<path fill="#1a1817" opacity="0.54" d=" M 495.96 147.67 C 495.61 145.49 495.94 143.30 496.65 141.22 C 497.58 142.96 498.03 146.86 495.96 147.67 Z" />
</g>
<g id="#18171688">
<path fill="#181716" opacity="0.53" d=" M 304.00 141.83 C 304.33 142.35 304.99 143.39 305.32 143.90 C 307.41 144.15 309.51 144.46 311.56 144.98 C 309.29 144.82 307.02 144.72 304.76 144.56 C 304.57 143.88 304.19 142.51 304.00 141.83 Z" />
</g>
<g id="#1a181775">
<path fill="#1a1817" opacity="0.46" d=" M 313.24 145.32 C 314.96 144.31 318.83 143.89 319.59 146.09 C 317.43 146.29 315.29 146.00 313.24 145.32 Z" />
</g>
<g id="#1a18187d">
<path fill="#1a1818" opacity="0.49" d=" M 321.38 146.16 C 324.38 145.92 327.43 146.06 330.31 147.02 C 327.32 146.89 324.34 146.60 321.38 146.16 Z" />
</g>
<g id="#1917178f">
<path fill="#191717" opacity="0.56" d=" M 332.19 147.33 C 334.16 146.35 337.04 146.36 338.83 147.73 L 338.67 148.05 C 336.47 148.58 334.27 147.99 332.19 147.33 Z" />
</g>
<g id="#1a181888">
<path fill="#1a1818" opacity="0.53" d=" M 494.91 156.73 C 494.69 154.81 495.02 152.90 495.66 151.09 C 496.67 152.55 496.95 156.29 494.91 156.73 Z" />
</g>
<g id="#fde8acff">
<path fill="#fde8ac" opacity="1.00" d=" M 300.00 153.47 C 311.35 154.68 322.70 155.94 334.08 156.98 C 318.30 191.73 315.07 232.06 325.28 268.84 C 326.08 272.21 328.40 275.46 331.98 276.16 C 340.86 278.25 350.24 277.02 359.01 279.81 C 370.05 283.01 376.30 294.16 387.09 297.86 C 394.61 300.29 402.89 299.19 410.10 296.26 C 426.40 289.97 437.95 275.56 454.29 269.35 C 455.33 275.72 456.13 282.13 457.60 288.42 C 460.15 300.85 464.24 313.45 462.21 326.27 C 461.17 332.27 457.44 338.75 451.01 339.97 C 447.30 340.95 443.73 339.30 440.72 337.29 C 440.91 342.42 441.25 347.62 440.22 352.70 C 425.15 345.84 408.73 341.14 392.04 341.70 C 372.63 342.25 353.77 349.63 338.39 361.34 C 314.41 379.59 299.40 407.57 292.62 436.54 C 271.25 417.21 244.22 403.04 215.17 400.82 C 213.49 400.58 211.81 400.26 210.14 399.96 C 208.50 390.77 208.63 381.40 208.76 372.10 C 204.60 372.77 200.14 373.72 196.11 371.93 C 190.15 369.50 186.28 363.82 183.96 358.04 C 179.65 346.85 178.57 334.80 177.49 322.96 C 173.15 331.34 171.28 340.77 170.38 350.10 C 169.95 359.48 170.03 369.64 175.01 377.94 C 178.49 383.59 185.63 385.78 191.90 384.13 C 191.98 389.93 192.42 395.74 193.74 401.40 C 188.28 402.29 182.91 403.61 177.57 405.04 C 177.20 401.71 177.15 398.34 176.53 395.05 C 175.76 393.41 173.67 392.30 171.89 392.89 C 168.53 393.35 167.77 398.26 164.08 397.80 C 158.03 397.06 154.45 391.55 152.76 386.21 C 147.43 369.58 147.65 351.34 152.73 334.67 C 154.02 330.12 146.03 327.70 144.52 332.09 C 144.02 335.23 141.32 337.54 138.07 337.12 C 131.83 337.36 128.43 330.84 127.78 325.47 C 125.21 307.27 130.05 289.13 135.60 271.94 C 137.06 266.42 139.30 261.18 141.45 255.91 C 151.58 257.81 162.06 260.28 170.43 266.64 C 179.23 273.44 186.83 282.01 197.00 286.88 C 204.78 290.87 214.29 292.74 222.66 289.48 C 231.42 285.94 236.53 276.96 245.36 273.52 C 252.58 270.71 260.48 271.93 268.02 271.95 C 271.48 272.05 275.30 271.40 277.69 268.67 C 281.25 264.57 282.43 259.10 283.86 254.01 C 291.46 227.06 296.73 199.43 299.33 171.55 C 300.14 165.55 300.16 159.50 300.00 153.47 M 281.49 272.63 C 275.84 275.39 279.23 283.06 283.26 285.78 C 288.66 290.10 294.83 294.07 301.89 294.76 C 309.96 295.78 318.00 292.98 324.78 288.76 C 327.21 286.84 330.15 284.35 329.75 280.90 C 329.18 277.94 326.34 276.11 323.54 275.64 C 313.79 273.80 303.95 272.42 294.02 272.01 C 289.86 271.93 285.49 271.09 281.49 272.63 M 232.68 286.98 C 233.99 302.23 246.13 315.19 260.67 319.14 C 262.24 328.02 267.50 336.16 274.99 341.19 C 284.56 347.94 297.17 349.51 308.40 346.62 C 318.32 344.60 328.03 338.95 332.64 329.62 C 348.05 331.34 364.47 323.50 371.55 309.45 C 372.73 307.31 373.89 304.26 371.81 302.27 C 369.60 299.39 364.81 300.20 363.63 303.62 C 360.18 311.61 352.64 317.44 344.20 319.29 C 337.33 321.25 330.10 319.82 323.48 317.66 C 315.72 314.97 308.33 309.36 306.03 301.16 C 305.30 297.87 299.87 297.35 298.33 300.24 C 296.10 303.61 293.06 306.50 289.36 308.17 C 279.34 312.82 267.20 312.49 257.34 307.57 C 249.85 303.63 243.90 296.33 242.52 287.86 C 242.13 286.08 241.86 283.79 239.86 283.09 C 237.06 281.38 232.52 283.50 232.68 286.98 Z" />
<path fill="#fde8ac" opacity="1.00" d=" M 112.17 430.19 C 118.49 424.81 125.46 419.75 133.62 417.69 C 143.82 428.18 152.03 441.28 154.08 455.98 C 155.84 468.56 151.50 482.34 141.47 490.47 C 135.71 495.21 128.20 496.99 120.92 497.66 C 107.00 494.22 96.07 482.06 92.85 468.25 C 92.77 462.50 92.98 456.58 95.12 451.17 C 98.49 442.60 105.35 436.09 112.17 430.19 Z" />
<path fill="#fde8ac" opacity="1.00" d=" M 478.25 475.34 C 485.90 467.94 498.00 467.23 504.67 458.44 C 508.28 458.60 512.35 458.19 515.42 460.51 C 521.04 465.00 524.70 471.43 527.33 478.02 C 519.47 489.56 508.88 499.77 495.64 504.75 C 488.19 507.55 479.58 507.19 472.71 503.00 C 472.37 493.68 471.64 482.84 478.25 475.34 Z" />
<path fill="#fde8ac" opacity="1.00" d=" M 479.33 612.38 C 484.22 607.00 491.29 604.65 497.68 601.60 C 503.37 602.73 508.89 604.77 514.34 606.80 C 520.88 609.24 526.92 613.96 529.26 620.76 C 532.46 629.76 530.99 639.58 529.52 648.79 C 522.56 654.83 513.07 657.50 503.97 655.93 C 489.81 653.54 476.38 648.23 462.88 643.49 C 466.32 632.24 471.28 621.12 479.33 612.38 Z" />
<path fill="#fde8ac" opacity="1.00" d=" M 141.08 632.04 C 143.40 631.00 145.68 629.78 148.13 629.06 C 154.32 630.14 160.25 632.81 164.88 637.08 C 173.59 645.15 179.23 656.01 182.55 667.30 C 179.40 671.72 174.34 674.02 169.94 676.94 C 158.99 683.75 147.14 690.62 133.81 690.39 C 128.13 687.14 124.14 681.69 120.71 676.25 C 116.39 669.02 112.57 660.77 113.49 652.14 C 113.87 647.13 117.40 643.05 121.56 640.59 C 127.72 636.99 134.69 635.15 141.08 632.04 Z" />
</g>
<g id="#201e1e3a">
<path fill="#201e1e" opacity="0.23" d=" M 146.96 166.06 C 147.03 162.90 146.61 159.61 147.90 156.63 C 147.99 163.55 148.01 170.46 147.90 177.37 C 146.51 173.76 147.08 169.83 146.96 166.06 Z" />
</g>
<g id="#1d1c1bbb">
<path fill="#1d1c1b" opacity="0.73" d=" M 148.18 182.47 C 149.23 188.78 149.46 195.26 148.15 201.55 C 148.28 195.19 147.85 188.82 148.18 182.47 Z" />
</g>
<g id="#1a191881">
<path fill="#1a1918" opacity="0.51" d=" M 147.06 211.42 C 146.97 208.44 147.12 205.42 148.04 202.56 C 147.91 205.53 147.69 208.51 147.06 211.42 Z" />
</g>
<g id="#1b19186e">
<path fill="#1b1918" opacity="0.43" d=" M 480.00 245.18 C 479.90 240.95 480.06 236.70 480.93 232.56 C 480.96 236.77 480.76 240.99 480.46 245.19 L 480.00 245.18 Z" />
</g>
<g id="#1b191875">
<path fill="#1b1918" opacity="0.46" d=" M 480.06 253.55 C 480.97 258.11 480.93 262.78 480.93 267.40 C 480.13 262.83 479.85 258.18 480.06 253.55 Z" />
</g>
<g id="#edcc76ff">
<path fill="#edcc76" opacity="1.00" d=" M 454.87 269.14 C 460.36 267.19 466.23 266.87 472.01 266.94 C 473.86 278.97 476.12 290.95 477.93 302.99 C 481.74 322.04 482.49 342.33 475.99 360.90 C 474.80 364.44 472.47 367.45 469.75 369.95 C 460.45 363.32 450.77 357.14 440.22 352.70 C 441.25 347.62 440.91 342.42 440.72 337.29 C 443.73 339.30 447.30 340.95 451.01 339.97 C 457.44 338.75 461.17 332.27 462.21 326.27 C 464.24 313.45 460.15 300.85 457.60 288.42 C 456.13 282.13 455.33 275.72 454.29 269.35 C 454.44 269.30 454.73 269.19 454.87 269.14 Z" />
<path fill="#edcc76" opacity="1.00" d=" M 134.98 417.37 C 138.19 416.72 141.46 416.42 144.74 416.46 C 149.92 420.13 154.23 424.86 157.79 430.09 C 165.49 440.69 171.87 453.63 169.68 467.09 C 166.09 488.60 141.79 503.59 120.92 497.66 C 128.20 496.99 135.71 495.21 141.47 490.47 C 151.50 482.34 155.84 468.56 154.08 455.98 C 152.03 441.28 143.82 428.18 133.62 417.69 C 133.96 417.61 134.64 417.45 134.98 417.37 Z" />
<path fill="#edcc76" opacity="1.00" d=" M 495.64 504.75 C 508.88 499.77 519.47 489.56 527.33 478.02 L 527.70 478.89 C 529.58 482.93 531.36 487.04 532.59 491.34 C 530.14 501.97 524.20 511.74 516.36 519.28 C 509.68 525.65 500.15 529.24 490.92 527.67 C 484.93 526.61 479.51 522.71 476.63 517.35 C 474.32 512.91 473.23 507.95 472.71 503.00 C 479.58 507.19 488.19 507.55 495.64 504.75 Z" />
<path fill="#edcc76" opacity="1.00" d=" M 462.88 643.49 C 476.38 648.23 489.81 653.54 503.97 655.93 C 513.07 657.50 522.56 654.83 529.52 648.79 C 527.36 658.55 523.40 668.98 514.36 674.33 C 505.76 679.45 495.27 676.85 486.13 674.86 C 476.58 672.10 466.69 670.77 457.09 668.24 C 457.74 668.36 459.02 668.59 459.66 668.71 C 458.53 660.58 459.74 652.34 462.53 644.66 C 462.62 644.37 462.80 643.79 462.88 643.49 Z" />
<path fill="#edcc76" opacity="1.00" d=" M 182.55 667.30 L 182.66 667.76 C 183.54 672.47 184.01 677.25 184.37 682.04 C 174.66 687.73 164.54 693.86 153.04 694.71 C 146.41 695.26 139.42 694.17 133.81 690.39 C 147.14 690.62 158.99 683.75 169.94 676.94 C 174.34 674.02 179.40 671.72 182.55 667.30 Z" />
</g>
<g id="#1a19187d">
<path fill="#1a1918" opacity="0.49" d=" M 486.87 301.40 C 488.99 301.75 488.78 305.50 487.66 306.90 C 487.07 305.12 486.73 303.27 486.87 301.40 Z" />
</g>
<g id="#1c1a1994">
<path fill="#1c1a19" opacity="0.58" d=" M 118.91 303.31 L 118.90 304.17 C 118.73 311.86 118.22 319.57 119.06 327.25 C 117.21 319.44 117.84 311.20 118.91 303.31 Z" />
</g>
<g id="#1b191898">
<path fill="#1b1918" opacity="0.60" d=" M 487.87 309.27 C 489.80 310.28 489.57 314.01 488.68 315.84 C 487.85 313.75 487.51 311.51 487.87 309.27 Z" />
</g>
<g id="#faccc8ff">
<path fill="#faccc8" opacity="1.00" d=" M 270.96 321.06 C 281.33 321.32 292.37 319.33 300.52 312.49 C 305.83 319.96 314.01 324.93 322.69 327.52 C 318.57 333.99 310.76 336.65 303.54 337.74 C 294.61 339.30 284.64 337.51 277.85 331.20 C 274.66 328.52 272.67 324.78 270.96 321.06 Z" />
</g>
<g id="#1312115f">
<path fill="#131211" opacity="0.37" d=" M 489.01 317.62 C 490.71 321.91 489.47 326.50 489.69 330.95 C 489.82 334.21 490.09 337.49 489.50 340.73 L 489.08 339.73 C 489.38 332.36 489.23 324.99 489.01 317.62 Z" />
</g>
<g id="#fef4d3ff">
<path fill="#fef4d3" opacity="1.00" d=" M 177.49 322.96 C 178.57 334.80 179.65 346.85 183.96 358.04 C 186.28 363.82 190.15 369.50 196.11 371.93 C 200.14 373.72 204.60 372.77 208.76 372.10 C 208.63 381.40 208.50 390.77 210.14 399.96 C 211.81 400.26 213.49 400.58 215.17 400.82 C 208.02 400.44 200.85 400.44 193.74 401.40 C 192.42 395.74 191.98 389.93 191.90 384.13 C 185.63 385.78 178.49 383.59 175.01 377.94 C 170.03 369.64 169.95 359.48 170.38 350.10 C 171.28 340.77 173.15 331.34 177.49 322.96 Z" />
</g>
<g id="#1a19189e">
<path fill="#1a1918" opacity="0.62" d=" M 140.94 347.21 L 140.93 348.11 C 140.90 350.92 140.54 353.71 140.16 356.48 C 139.89 353.37 140.06 350.22 140.94 347.21 Z" />
</g>
<g id="#f28badff">
<path fill="#f28bad" opacity="1.00" d=" M 380.48 352.57 C 392.09 350.10 404.33 350.95 415.65 354.32 C 419.86 358.03 425.06 360.24 429.71 363.30 C 446.34 373.83 461.44 387.51 471.19 404.81 C 478.29 417.61 482.96 432.26 481.86 447.04 C 481.51 452.69 479.77 458.11 477.92 463.42 C 472.13 466.30 467.49 471.37 465.52 477.58 C 464.02 481.07 463.84 484.90 463.11 488.58 C 456.35 499.08 451.62 511.36 452.30 524.03 C 452.57 534.98 457.42 545.51 465.19 553.17 C 459.86 564.20 453.41 574.65 447.41 585.32 C 437.82 601.65 428.30 618.04 417.78 633.80 C 406.77 650.37 393.04 665.20 376.89 676.87 C 367.41 683.61 357.32 689.83 346.09 693.18 C 340.22 694.74 334.09 695.00 328.05 695.10 C 289.80 691.78 253.20 677.32 220.60 657.46 C 203.06 646.74 186.52 634.41 171.10 620.82 C 155.72 607.06 141.74 591.49 131.30 573.61 C 121.38 556.74 115.02 537.60 114.17 517.98 C 131.81 520.51 150.64 521.68 167.35 514.32 C 179.76 509.18 190.44 498.45 193.16 484.99 C 195.23 476.84 193.57 467.96 189.04 460.92 C 186.06 456.44 182.95 451.87 178.56 448.65 C 175.89 438.68 170.60 429.43 163.03 422.37 C 180.93 411.10 203.21 407.59 223.88 411.54 C 250.11 416.47 273.76 431.00 292.48 449.70 C 294.76 452.21 299.56 450.72 300.21 447.45 C 304.54 423.45 314.39 400.03 330.62 381.62 C 343.52 366.92 361.09 355.98 380.48 352.57 M 365.25 375.35 C 359.29 376.54 353.87 379.52 349.06 383.15 C 337.44 392.32 329.14 405.24 324.01 419.02 C 321.27 426.33 319.42 434.16 319.93 442.02 C 320.18 445.73 321.78 450.32 325.95 451.08 C 330.58 451.85 334.15 448.00 336.59 444.60 C 343.57 434.30 348.81 422.62 357.91 413.90 C 362.96 408.92 369.50 405.95 375.72 402.75 C 383.10 399.00 390.70 393.43 392.60 384.89 C 393.40 382.38 390.82 380.97 389.12 379.81 C 382.12 375.44 373.38 373.34 365.25 375.35 M 193.80 436.98 C 193.71 441.42 197.11 445.26 201.11 446.78 C 209.08 450.01 217.91 447.41 226.08 449.72 C 234.98 451.52 242.72 458.40 252.16 457.28 C 253.07 452.11 252.12 446.48 248.69 442.38 C 242.43 434.59 232.55 431.16 223.22 428.67 C 216.92 427.35 210.39 426.02 203.95 427.03 C 198.95 427.73 194.12 431.72 193.80 436.98 Z" />
</g>
<g id="#eb737dff">
<path fill="#eb737d" opacity="1.00" d=" M 415.65 354.32 C 426.23 356.59 436.16 361.24 445.70 366.24 C 461.43 374.69 475.60 386.54 485.31 401.64 C 492.40 412.67 497.39 425.02 500.27 437.81 C 501.94 444.41 499.03 451.73 493.57 455.70 C 488.83 459.17 483.08 460.73 477.92 463.42 C 479.77 458.11 481.51 452.69 481.86 447.04 C 482.96 432.26 478.29 417.61 471.19 404.81 C 461.44 387.51 446.34 373.83 429.71 363.30 C 425.06 360.24 419.86 358.03 415.65 354.32 Z" />
<path fill="#eb737d" opacity="1.00" d=" M 178.56 448.65 C 182.95 451.87 186.06 456.44 189.04 460.92 C 193.57 467.96 195.23 476.84 193.16 484.99 C 190.44 498.45 179.76 509.18 167.35 514.32 C 150.64 521.68 131.81 520.51 114.17 517.98 C 114.07 513.94 114.20 509.90 114.49 505.88 C 137.60 514.24 165.95 502.29 175.85 479.75 C 180.30 470.06 180.52 458.99 178.56 448.65 Z" />
<path fill="#eb737d" opacity="1.00" d=" M 452.30 524.03 C 451.62 511.36 456.35 499.08 463.11 488.58 C 462.83 500.72 462.75 513.80 469.48 524.45 C 474.31 532.22 482.99 537.10 492.04 537.83 C 480.04 577.44 461.17 615.48 433.73 646.72 C 417.40 665.14 398.12 681.54 375.41 691.48 C 372.01 693.16 368.19 693.65 364.49 694.24 C 352.44 696.03 340.17 696.24 328.05 695.10 C 334.09 695.00 340.22 694.74 346.09 693.18 C 357.32 689.83 367.41 683.61 376.89 676.87 C 393.04 665.20 406.77 650.37 417.78 633.80 C 428.30 618.04 437.82 601.65 447.41 585.32 C 453.41 574.65 459.86 564.20 465.19 553.17 C 457.42 545.51 452.57 534.98 452.30 524.03 Z" />
</g>
<g id="#1a191891">
<path fill="#1a1918" opacity="0.57" d=" M 140.16 365.45 C 140.54 368.37 140.85 371.29 141.02 374.23 C 139.96 371.42 139.93 368.40 140.16 365.45 Z" />
</g>
<g id="#fce1e9ff">
<path fill="#fce1e9" opacity="1.00" d=" M 365.25 375.35 C 373.38 373.34 382.12 375.44 389.12 379.81 C 390.82 380.97 393.40 382.38 392.60 384.89 C 390.70 393.43 383.10 399.00 375.72 402.75 C 369.50 405.95 362.96 408.92 357.91 413.90 C 348.81 422.62 343.57 434.30 336.59 444.60 C 334.15 448.00 330.58 451.85 325.95 451.08 C 321.78 450.32 320.18 445.73 319.93 442.02 C 319.42 434.16 321.27 426.33 324.01 419.02 C 329.14 405.24 337.44 392.32 349.06 383.15 C 353.87 379.52 359.29 376.54 365.25 375.35 Z" />
<path fill="#fce1e9" opacity="1.00" d=" M 193.80 436.98 C 194.12 431.72 198.95 427.73 203.95 427.03 C 210.39 426.02 216.92 427.35 223.22 428.67 C 232.55 431.16 242.43 434.59 248.69 442.38 C 252.12 446.48 253.07 452.11 252.16 457.28 C 242.72 458.40 234.98 451.52 226.08 449.72 C 217.91 447.41 209.08 450.01 201.11 446.78 C 197.11 445.26 193.71 441.42 193.80 436.98 Z" />
</g>
<g id="#211f1e3d">
<path fill="#211f1e" opacity="0.24" d=" M 125.28 400.97 C 125.66 399.07 130.33 399.04 130.68 400.99 C 128.88 401.01 127.08 401.00 125.28 400.97 Z" />
</g>
<g id="#1b19189c">
<path fill="#1b1918" opacity="0.61" d=" M 159.62 406.07 C 162.59 406.28 165.58 406.13 168.54 406.51 C 168.72 407.00 169.07 407.97 169.25 408.46 L 168.25 408.92 C 168.26 408.42 168.30 407.41 168.31 406.91 C 165.38 407.12 162.41 407.08 159.62 406.07 Z" />
</g>
<g id="#e78f1eff">
<path fill="#e78f1e" opacity="1.00" d=" M 121.89 411.11 C 129.93 408.65 138.05 412.15 144.74 416.46 C 141.46 416.42 138.19 416.72 134.98 417.37 C 130.32 415.93 126.40 412.90 121.89 411.11 Z" />
<path fill="#e78f1e" opacity="1.00" d=" M 531.62 462.68 C 534.96 471.84 535.28 481.97 532.59 491.34 C 531.36 487.04 529.58 482.93 527.70 478.89 C 528.28 473.32 530.91 468.23 531.62 462.68 Z" />
<path fill="#e78f1e" opacity="1.00" d=" M 433.20 661.79 C 439.83 654.38 446.48 646.99 452.46 639.04 C 455.95 640.64 459.96 641.59 462.53 644.66 C 459.74 652.34 458.53 660.58 459.66 668.71 C 459.02 668.59 457.74 668.36 457.09 668.24 C 448.89 666.99 441.19 663.83 433.20 661.79 Z" />
<path fill="#e78f1e" opacity="1.00" d=" M 183.04 643.60 C 192.64 650.79 202.38 657.82 212.67 664.01 C 203.21 669.97 194.01 676.35 184.37 682.04 C 184.01 677.25 183.54 672.47 182.66 667.76 C 184.49 665.04 186.51 662.20 186.70 658.81 C 187.12 653.47 184.39 648.62 183.04 643.60 Z" />
</g>
<g id="#f1a539ff">
<path fill="#f1a539" opacity="1.00" d=" M 99.37 434.35 C 104.72 424.92 111.44 415.28 121.89 411.11 C 126.40 412.90 130.32 415.93 134.98 417.37 C 134.64 417.45 133.96 417.61 133.62 417.69 C 125.46 419.75 118.49 424.81 112.17 430.19 C 105.35 436.09 98.49 442.60 95.12 451.17 C 92.98 456.58 92.77 462.50 92.85 468.25 C 89.77 456.64 93.69 444.49 99.37 434.35 Z" />
<path fill="#f1a539" opacity="1.00" d=" M 510.19 435.72 C 520.01 442.03 528.00 451.51 531.62 462.68 C 530.91 468.23 528.28 473.32 527.70 478.89 L 527.33 478.02 C 524.70 471.43 521.04 465.00 515.42 460.51 C 512.35 458.19 508.28 458.60 504.67 458.44 C 509.69 452.07 511.21 443.64 510.19 435.72 Z" />
<path fill="#f1a539" opacity="1.00" d=" M 478.21 597.65 C 484.82 598.24 491.40 599.41 497.68 601.60 C 491.29 604.65 484.22 607.00 479.33 612.38 C 471.28 621.12 466.32 632.24 462.88 643.49 C 462.80 643.79 462.62 644.37 462.53 644.66 C 459.96 641.59 455.95 640.64 452.46 639.04 C 462.09 625.94 470.94 612.20 478.21 597.65 Z" />
<path fill="#f1a539" opacity="1.00" d=" M 148.13 629.06 C 151.92 627.03 155.92 625.44 159.87 623.78 C 167.38 630.64 175.06 637.29 183.04 643.60 C 184.39 648.62 187.12 653.47 186.70 658.81 C 186.51 662.20 184.49 665.04 182.66 667.76 L 182.55 667.30 C 179.23 656.01 173.59 645.15 164.88 637.08 C 160.25 632.81 154.32 630.14 148.13 629.06 Z" />
</g>
<g id="#1615148d">
<path fill="#161514" opacity="0.55" d=" M 523.77 434.29 C 525.67 433.66 528.31 436.37 527.79 438.28 C 526.06 437.38 524.69 435.99 523.77 434.29 Z" />
</g>
<g id="#1b1918ac">
<path fill="#1b1918" opacity="0.67" d=" M 82.56 468.23 C 81.90 462.29 81.35 456.11 82.97 450.27 C 82.50 456.23 82.33 462.23 83.04 468.18 L 82.56 468.23 Z" />
</g>
<g id="#1716155a">
<path fill="#171615" opacity="0.35" d=" M 104.16 512.02 C 104.26 509.48 103.55 506.69 104.98 504.41 C 104.77 510.77 104.76 517.14 104.97 523.51 C 103.37 519.86 104.41 515.84 104.16 512.02 Z" />
</g>
<g id="#1b191894">
<path fill="#1b1918" opacity="0.58" d=" M 105.33 525.10 C 106.01 526.89 106.38 528.81 106.12 530.74 C 104.14 530.25 104.34 526.57 105.33 525.10 Z" />
<path fill="#1b1918" opacity="0.58" d=" M 539.87 644.70 C 539.57 642.47 539.92 640.26 540.65 638.16 C 541.61 639.94 541.88 643.78 539.87 644.70 Z" />
</g>
<g id="#1b1918a0">
<path fill="#1b1918" opacity="0.63" d=" M 539.84 624.29 C 541.77 625.23 541.58 629.04 540.67 630.86 C 539.87 628.75 539.48 626.52 539.84 624.29 Z" />
</g>
<g id="#1c1a1a93">
<path fill="#1c1a1a" opacity="0.58" d=" M 494.69 686.04 C 499.98 686.35 505.29 686.46 510.58 686.07 C 505.43 687.51 499.84 687.38 494.69 686.04 Z" />
</g>
<g id="#1a19188a">
<path fill="#1a1918" opacity="0.54" d=" M 313.35 702.84 C 315.22 702.66 317.07 703.04 318.84 703.69 C 317.41 704.77 313.72 704.91 313.35 702.84 Z" />
</g>
<g id="#15131361">
<path fill="#151313" opacity="0.38" d=" M 142.82 703.99 C 146.63 704.25 150.46 704.24 154.28 704.01 L 154.33 704.85 C 150.51 704.86 146.68 704.84 142.86 704.76 L 142.82 703.99 Z" />
</g>
<g id="#1a181899">
<path fill="#1a1818" opacity="0.60" d=" M 321.06 704.09 C 323.88 704.13 326.68 704.46 329.46 704.88 C 326.36 705.08 323.24 704.87 320.23 704.07 L 321.06 704.09 Z" />
</g>
<g id="#1a19186a">
<path fill="#1a1918" opacity="0.42" d=" M 331.35 704.93 C 333.54 704.73 335.73 704.99 337.83 705.69 C 336.06 706.68 332.19 707.07 331.35 704.93 Z" />
</g>
<g id="#1e1c1b47">
<path fill="#1e1c1b" opacity="0.28" d=" M 339.52 706.05 C 344.47 706.10 349.42 706.10 354.37 706.03 C 349.69 707.64 344.23 707.50 339.52 706.05 Z" />
</g>
</svg>
