<?xml version="1.0" encoding="UTF-8" ?>
<!DOCTYPE svg PUBLIC "-//W3C//DTD SVG 1.1//EN" "http://www.w3.org/Graphics/SVG/1.1/DTD/svg11.dtd">
<svg width="1092pt" height="1240pt" viewBox="0 0 1092 1240" version="1.1" xmlns="http://www.w3.org/2000/svg">
<g id="#070606ff">
<path fill="#070606" opacity="1.00" d=" M 225.60 96.65 C 244.31 88.31 265.86 90.50 284.91 96.52 C 293.75 100.05 302.89 103.07 311.06 108.06 C 328.53 117.35 344.05 129.80 358.84 142.86 C 377.56 159.99 394.43 179.05 410.08 198.99 C 436.64 232.17 458.94 268.73 476.77 307.30 C 479.18 312.01 481.31 316.87 483.21 321.82 C 505.55 321.97 527.89 322.02 550.23 321.81 C 551.65 322.06 551.95 320.30 552.48 319.40 C 558.99 303.46 566.99 288.20 575.09 273.03 C 595.90 235.01 621.85 199.95 650.79 167.76 C 655.06 163.79 658.46 158.97 662.99 155.24 C 667.09 150.26 672.42 146.55 676.80 141.83 C 690.80 129.59 705.49 117.90 721.86 108.95 C 730.63 103.46 740.50 100.13 750.09 96.38 C 766.10 91.40 783.51 89.15 799.95 93.45 C 814.81 97.30 827.27 107.62 835.98 120.01 C 846.51 134.28 852.02 151.45 856.27 168.47 C 860.32 187.70 862.13 207.33 862.97 226.94 C 864.70 247.90 864.88 268.95 864.82 289.98 C 864.98 317.38 863.01 344.72 861.38 372.06 C 860.03 392.44 857.86 412.76 855.10 433.00 C 853.08 443.90 852.27 454.98 851.05 465.99 C 850.46 470.09 851.46 474.17 852.60 478.08 C 856.30 489.24 861.95 499.61 868.08 509.60 C 876.54 523.63 886.25 537.35 890.48 553.41 C 893.48 562.54 894.32 573.08 889.62 581.79 C 887.94 585.55 885.19 588.74 881.62 590.81 C 883.18 602.04 880.63 613.25 876.49 623.65 C 879.96 628.85 882.79 634.44 885.90 639.86 C 895.15 657.72 902.79 676.46 907.89 695.93 C 915.24 719.96 917.94 745.10 919.97 770.05 C 921.97 796.79 919.69 823.59 916.52 850.14 C 914.91 862.45 912.94 874.71 910.41 886.87 C 907.93 896.18 906.12 905.66 903.53 914.94 C 901.87 922.17 899.09 929.07 897.17 936.23 C 887.50 966.74 875.06 996.91 855.60 1022.57 C 845.00 1036.24 832.17 1048.58 816.55 1056.31 C 806.70 1060.99 795.84 1063.16 784.99 1063.59 C 773.84 1063.14 762.64 1061.09 752.42 1056.47 C 740.97 1050.87 730.88 1042.60 723.16 1032.46 C 715.07 1036.73 706.60 1040.17 698.08 1043.47 C 688.76 1047.86 678.75 1050.48 669.15 1054.17 C 656.96 1058.31 644.37 1061.10 631.98 1064.56 C 618.82 1067.57 605.51 1069.91 592.14 1071.72 C 570.97 1075.37 549.44 1075.85 528.01 1076.44 C 500.03 1076.69 471.97 1076.45 444.12 1073.44 C 426.82 1070.87 409.47 1068.44 392.43 1064.42 C 381.98 1061.37 371.32 1059.07 360.94 1055.80 C 340.74 1049.20 320.77 1041.75 301.65 1032.45 C 289.59 1049.01 270.60 1060.52 250.13 1062.70 C 236.28 1064.90 221.95 1062.27 209.20 1056.65 C 194.13 1049.33 181.58 1037.75 171.21 1024.75 C 157.36 1007.06 146.67 987.05 138.60 966.12 C 134.01 956.03 131.25 945.26 127.34 934.93 C 121.82 916.15 116.42 897.30 113.06 877.99 C 103.40 829.35 101.73 778.97 109.36 729.91 C 112.05 717.21 114.45 704.43 118.06 691.94 C 121.05 682.89 124.17 673.87 127.30 664.87 C 120.39 644.88 119.29 622.49 126.66 602.46 C 127.54 600.19 129.15 598.26 129.82 595.90 C 129.79 593.34 127.52 591.59 126.55 589.37 C 123.29 582.05 123.59 573.56 126.21 566.10 C 130.26 555.69 138.10 547.51 144.38 538.47 C 155.49 524.01 165.14 508.50 175.56 493.55 C 180.25 484.45 182.63 474.18 183.09 463.98 C 180.13 434.30 175.50 404.79 173.20 375.04 C 169.56 324.44 168.93 273.59 171.48 222.92 C 172.42 211.62 172.70 200.21 174.85 189.05 C 177.10 174.12 179.62 159.02 185.49 145.02 C 192.75 125.05 205.87 105.90 225.60 96.65 M 224.81 119.78 C 211.99 130.00 206.19 146.01 201.10 161.02 C 196.58 176.06 194.08 191.59 191.69 207.08 C 188.13 238.94 188.76 271.06 189.37 303.05 C 189.67 324.01 190.49 344.95 191.81 365.87 C 194.66 398.45 197.19 431.11 202.31 463.43 C 203.65 471.09 201.34 478.73 198.73 485.86 C 193.40 500.06 183.74 511.93 175.59 524.53 C 168.16 535.10 161.16 546.00 153.22 556.20 C 148.95 562.73 142.42 568.66 142.28 577.03 C 141.88 584.02 149.27 588.91 148.12 595.98 C 147.40 599.62 145.64 602.93 144.31 606.37 C 140.05 616.62 138.77 627.92 139.59 638.94 C 146.26 626.55 153.87 614.69 162.33 603.44 C 191.61 565.35 231.07 536.80 271.35 511.34 C 286.87 501.79 302.75 492.62 319.72 485.84 C 332.54 479.93 346.37 476.68 360.10 473.62 C 363.93 473.06 367.99 471.80 371.76 473.30 C 376.73 475.91 380.49 482.24 377.61 487.70 C 374.53 492.06 368.57 491.28 363.96 492.37 C 352.82 494.99 341.61 497.68 330.97 501.99 C 322.98 505.59 314.66 508.55 307.11 513.07 C 297.38 517.81 288.22 523.59 279.02 529.24 C 258.79 541.75 239.23 555.43 221.05 570.78 C 186.71 599.13 159.49 636.22 143.66 677.92 C 140.89 685.52 138.48 693.24 135.95 700.92 C 130.61 721.58 126.38 742.61 124.89 763.93 C 122.40 797.99 123.97 832.45 130.33 866.03 C 133.89 888.32 139.94 910.09 146.34 931.71 C 150.16 941.78 152.91 952.28 157.47 962.07 C 165.77 983.29 176.21 1004.26 192.25 1020.74 C 196.89 1024.77 201.08 1029.44 206.62 1032.29 C 224.96 1045.73 251.67 1047.45 270.99 1035.12 C 287.06 1025.31 297.59 1006.85 297.23 987.94 C 297.50 974.02 293.27 960.61 289.60 947.34 L 289.39 948.21 C 287.97 937.35 282.89 927.05 281.90 916.01 C 281.29 909.66 287.94 905.11 293.70 905.02 C 296.85 905.80 299.73 908.13 300.39 911.43 C 301.42 916.64 302.20 921.91 303.88 926.98 C 307.20 938.95 310.24 951.01 313.52 963.01 C 317.12 980.23 318.82 999.19 311.12 1015.58 C 317.79 1019.45 324.85 1022.54 331.94 1025.53 C 339.02 1029.11 346.62 1031.46 354.10 1034.04 C 364.46 1038.06 375.31 1040.66 386.11 1043.20 C 399.80 1047.00 413.92 1048.99 427.97 1050.99 C 441.65 1052.56 455.27 1054.65 469.04 1055.30 C 480.33 1056.16 491.66 1056.46 502.98 1056.97 C 516.99 1057.57 531.00 1056.50 545.00 1056.01 C 557.00 1055.20 569.05 1054.72 580.95 1052.91 C 595.05 1051.39 609.12 1049.49 623.06 1046.85 C 631.47 1045.42 639.64 1042.91 647.95 1041.05 C 661.80 1037.70 675.18 1032.76 688.47 1027.70 C 696.86 1023.64 705.79 1020.61 713.70 1015.60 C 708.17 1002.19 707.76 987.24 709.88 973.06 C 712.69 952.55 720.99 933.33 724.18 912.90 C 724.56 907.69 730.00 904.08 735.00 905.31 C 739.65 907.22 744.04 911.57 742.91 917.05 C 741.05 928.28 737.99 939.30 734.44 950.11 C 730.58 963.84 727.43 977.98 727.95 992.33 L 728.43 992.73 C 728.50 1003.80 733.23 1014.39 740.17 1022.86 C 751.62 1037.38 770.65 1045.14 789.00 1043.21 C 803.00 1042.13 815.95 1035.42 826.50 1026.43 C 839.49 1015.70 848.89 1001.43 856.72 986.68 C 864.58 970.89 870.95 954.41 876.67 937.75 C 880.22 925.84 884.30 914.09 887.07 901.97 C 890.25 888.33 893.78 874.76 895.75 860.88 C 899.53 835.13 902.24 809.11 901.32 783.05 C 901.28 773.67 900.00 764.37 899.20 755.04 C 897.73 740.83 895.49 726.69 892.22 712.78 C 888.87 701.58 886.44 690.04 881.78 679.27 C 872.58 654.36 859.34 630.95 842.73 610.25 C 826.68 589.75 807.13 572.31 786.40 556.69 C 763.65 539.81 739.79 524.32 714.65 511.24 C 707.88 507.49 700.53 504.98 693.53 501.73 C 683.69 497.80 673.36 495.36 663.13 492.76 C 660.09 492.10 657.01 491.66 653.92 491.40 C 651.48 490.85 648.75 490.04 647.54 487.62 C 644.43 481.20 649.83 472.46 657.03 472.60 C 664.01 472.90 670.71 475.07 677.50 476.54 C 686.91 478.92 696.31 481.64 705.12 485.77 C 711.15 488.32 717.32 490.63 722.99 493.93 C 748.10 506.57 771.39 522.44 794.29 538.66 C 812.24 551.92 829.39 566.33 844.86 582.45 C 851.28 589.35 857.44 596.50 863.14 604.01 C 863.77 597.02 862.25 589.73 864.87 583.02 C 866.72 577.92 872.89 576.07 874.75 570.98 C 876.32 563.31 873.06 555.81 870.12 548.90 C 865.98 540.65 860.78 532.99 856.64 524.74 C 848.75 511.69 841.89 498.02 833.65 485.18 C 830.35 476.47 831.23 467.01 832.83 458.05 C 840.09 411.40 843.43 364.20 844.72 317.02 C 845.12 292.32 846.43 267.61 845.23 242.92 C 844.31 220.14 842.52 197.27 837.24 175.05 C 834.62 166.59 832.84 157.84 829.39 149.66 L 829.43 150.39 C 829.30 149.82 829.04 148.68 828.90 148.11 C 823.93 136.66 817.86 124.79 807.05 117.82 C 800.45 112.85 792.05 110.94 783.94 110.51 C 770.77 110.01 757.62 113.18 745.71 118.66 C 737.77 121.63 730.54 126.01 723.25 130.24 C 696.29 147.16 673.75 170.07 653.31 194.24 C 622.27 230.05 596.20 270.17 576.03 313.07 C 572.67 320.68 569.29 328.29 565.83 335.87 C 564.48 338.85 561.45 341.04 558.11 340.95 C 531.06 341.12 503.99 341.05 476.93 340.99 C 474.68 341.15 472.70 340.02 470.85 338.91 C 465.36 331.40 463.48 322.02 458.89 314.01 C 442.93 279.62 423.07 247.04 399.91 217.03 C 384.00 196.79 367.29 177.04 348.56 159.34 C 332.70 144.47 315.18 131.14 295.59 121.58 C 287.16 117.96 278.80 113.78 269.63 112.38 C 254.69 108.78 237.08 109.46 224.81 119.78 Z" />
<path fill="#070606" opacity="1.00" d=" M 605.17 550.79 C 601.88 543.56 610.15 534.33 617.70 537.42 C 633.78 545.59 647.48 558.05 658.05 572.61 C 669.08 588.12 676.75 606.07 679.71 624.91 C 683.63 643.45 681.93 663.15 674.72 680.68 C 670.49 690.10 663.62 699.02 653.85 703.09 C 649.90 704.95 645.64 706.09 641.26 706.14 C 636.22 730.60 621.69 752.90 601.64 767.71 C 595.60 772.64 588.48 775.93 581.59 779.46 C 572.51 783.46 562.79 785.83 552.97 787.09 C 538.88 789.44 524.45 787.25 510.84 783.40 C 480.86 774.17 456.21 750.14 445.15 720.92 C 430.59 736.35 403.38 734.89 389.10 719.83 C 383.85 715.11 380.22 708.95 377.33 702.58 C 373.72 695.64 372.05 687.90 370.78 680.24 C 367.33 657.56 369.00 634.14 375.47 612.14 C 378.85 602.83 381.80 593.27 386.76 584.64 C 390.50 576.93 395.16 569.76 400.07 562.76 C 403.73 558.27 406.93 553.29 411.40 549.56 C 416.00 545.99 422.34 549.78 424.64 554.26 C 426.49 558.03 425.44 562.62 422.47 565.49 C 409.39 580.53 399.79 598.39 393.88 617.39 C 388.01 637.99 386.53 659.97 390.28 681.09 C 392.56 692.70 398.06 705.44 409.59 710.42 C 416.93 714.06 427.34 713.64 432.21 706.25 C 434.44 700.60 438.16 695.66 439.85 689.79 C 445.02 683.49 456.80 686.92 457.81 695.04 C 460.64 715.74 471.13 735.37 487.29 748.71 C 497.74 757.63 510.42 764.07 523.94 766.76 C 531.56 768.23 539.35 769.50 547.12 768.56 C 558.75 767.23 570.53 764.66 580.68 758.61 C 604.91 745.47 621.50 719.43 623.56 691.99 C 622.25 683.41 621.05 674.03 624.98 665.95 C 628.59 659.14 639.56 661.51 641.80 668.28 C 643.60 674.09 643.42 680.31 643.82 686.33 C 649.18 683.89 653.87 679.76 656.38 674.37 C 662.33 662.08 663.65 647.95 661.73 634.54 C 659.51 621.86 656.75 609.00 650.43 597.63 C 647.25 590.58 642.79 584.22 637.94 578.23 C 630.89 569.49 622.16 562.16 612.47 556.50 C 609.91 554.81 606.70 553.61 605.17 550.79 Z" />
</g>
<g id="#dd8019ff">
<path fill="#dd8019" opacity="1.00" d=" M 224.81 119.78 C 237.08 109.46 254.69 108.78 269.63 112.38 C 275.20 116.85 281.41 120.49 286.68 125.33 C 293.53 131.51 299.20 138.83 305.26 145.75 C 329.26 174.39 349.96 205.75 367.14 238.91 C 370.33 244.24 372.38 250.13 375.29 255.61 C 378.11 260.96 380.33 266.59 382.78 272.11 C 388.68 284.75 392.97 298.05 397.84 311.10 C 401.88 324.25 406.10 337.37 409.33 350.76 C 417.30 349.24 424.99 346.54 432.94 344.89 C 445.50 342.50 458.07 339.79 470.85 338.91 C 472.70 340.02 474.68 341.15 476.93 340.99 C 503.99 341.05 531.06 341.12 558.11 340.95 C 561.45 341.04 564.48 338.85 565.83 335.87 C 569.29 328.29 572.67 320.68 576.03 313.07 C 596.20 270.17 622.27 230.05 653.31 194.24 C 673.75 170.07 696.29 147.16 723.25 130.24 C 730.54 126.01 737.77 121.63 745.71 118.66 C 757.62 113.18 770.77 110.01 783.94 110.51 C 792.05 110.94 800.45 112.85 807.05 117.82 C 817.86 124.79 823.93 136.66 828.90 148.11 C 829.04 148.68 829.30 149.82 829.43 150.39 C 829.58 155.99 831.34 161.35 832.32 166.83 C 834.97 180.04 834.91 193.55 835.85 206.94 C 836.64 243.53 833.44 280.10 828.43 316.32 C 824.98 336.92 821.93 357.58 818.27 378.14 C 814.33 396.65 811.79 415.42 807.91 433.94 C 807.01 438.77 805.89 443.68 806.42 448.62 C 807.27 454.39 810.74 459.28 814.10 463.88 C 819.99 471.50 825.75 479.48 833.65 485.18 C 841.89 498.02 848.75 511.69 856.64 524.74 C 855.55 535.65 853.30 546.38 851.29 557.14 C 849.38 565.63 847.92 574.28 844.86 582.45 C 829.39 566.33 812.24 551.92 794.29 538.66 C 771.39 522.44 748.10 506.57 722.99 493.93 C 717.32 490.63 711.15 488.32 705.12 485.77 C 696.31 481.64 686.91 478.92 677.50 476.54 C 670.71 475.07 664.01 472.90 657.03 472.60 C 649.83 472.46 644.43 481.20 647.54 487.62 C 648.75 490.04 651.48 490.85 653.92 491.40 C 657.23 495.43 662.27 497.12 666.88 499.15 C 679.54 504.87 691.71 511.58 703.95 518.12 C 722.63 528.92 741.87 539.34 757.73 554.19 C 779.44 573.11 794.41 598.15 809.86 622.11 C 821.16 639.49 831.56 657.56 839.15 676.89 C 844.64 692.36 848.22 708.56 848.93 724.99 C 849.37 738.68 849.25 752.41 847.79 766.04 C 846.88 778.74 844.36 791.23 842.66 803.83 C 837.68 834.77 829.70 865.16 819.96 894.93 C 810.24 922.76 799.24 950.23 785.22 976.21 C 780.16 984.77 773.89 993.10 764.99 997.96 C 758.36 1002.31 749.97 1003.18 742.31 1001.62 C 736.82 1000.28 732.78 996.05 728.43 992.73 L 727.95 992.33 C 727.43 977.98 730.58 963.84 734.44 950.11 C 737.99 939.30 741.05 928.28 742.91 917.05 C 744.04 911.57 739.65 907.22 735.00 905.31 C 739.90 884.45 742.45 863.12 745.46 841.93 C 749.28 803.68 749.75 764.73 742.55 726.84 C 740.04 710.76 735.51 695.13 730.23 679.77 C 715.51 638.89 691.54 600.69 658.05 572.61 C 647.48 558.05 633.78 545.59 617.70 537.42 C 610.15 534.33 601.88 543.56 605.17 550.79 C 606.70 553.61 609.91 554.81 612.47 556.50 C 622.16 562.16 630.89 569.49 637.94 578.23 C 642.64 590.84 644.39 605.63 637.89 617.94 C 631.15 630.41 613.51 638.07 600.77 629.95 C 604.11 637.23 606.20 645.06 607.11 653.02 C 607.98 660.90 606.53 668.79 604.54 676.40 C 600.78 691.13 591.52 704.44 578.90 712.95 C 571.28 718.58 562.10 721.51 553.00 723.74 C 537.08 727.35 520.21 724.42 505.72 717.20 C 482.45 704.70 466.94 679.38 465.57 653.10 C 454.88 668.63 431.52 670.21 416.34 660.70 C 401.94 651.30 395.14 633.96 393.88 617.39 C 399.79 598.39 409.39 580.53 422.47 565.49 C 425.44 562.62 426.49 558.03 424.64 554.26 C 422.34 549.78 416.00 545.99 411.40 549.56 C 406.93 553.29 403.73 558.27 400.07 562.76 C 376.56 575.98 356.21 594.48 340.01 616.01 C 318.68 644.48 303.64 677.54 295.37 712.11 C 291.00 728.07 288.88 744.55 287.01 760.96 C 284.79 784.21 283.41 807.63 284.98 830.97 C 286.11 855.82 288.98 880.60 293.70 905.02 C 287.94 905.11 281.29 909.66 281.90 916.01 C 282.89 927.05 287.97 937.35 289.39 948.21 C 287.44 955.27 286.81 962.61 284.67 969.62 C 281.79 978.98 279.23 988.59 274.18 997.07 C 267.22 1010.74 256.19 1022.67 242.17 1029.20 C 231.00 1034.15 218.48 1033.67 206.62 1032.29 C 201.08 1029.44 196.89 1024.77 192.25 1020.74 C 176.21 1004.26 165.77 983.29 157.47 962.07 C 152.91 952.28 150.16 941.78 146.34 931.71 C 139.94 910.09 133.89 888.32 130.33 866.03 C 123.97 832.45 122.40 797.99 124.89 763.93 C 126.38 742.61 130.61 721.58 135.95 700.92 C 138.48 693.24 140.89 685.52 143.66 677.92 C 159.49 636.22 186.71 599.13 221.05 570.78 C 239.23 555.43 258.79 541.75 279.02 529.24 C 288.22 523.59 297.38 517.81 307.11 513.07 C 314.66 508.55 322.98 505.59 330.97 501.99 C 341.61 497.68 352.82 494.99 363.96 492.37 C 368.57 491.28 374.53 492.06 377.61 487.70 C 380.49 482.24 376.73 475.91 371.76 473.30 C 367.99 471.80 363.93 473.06 360.10 473.62 C 346.37 476.68 332.54 479.93 319.72 485.84 C 302.75 492.62 286.87 501.79 271.35 511.34 C 231.07 536.80 191.61 565.35 162.33 603.44 C 153.87 614.69 146.26 626.55 139.59 638.94 C 138.77 627.92 140.05 616.62 144.31 606.37 C 145.64 602.93 147.40 599.62 148.12 595.98 C 149.27 588.91 141.88 584.02 142.28 577.03 C 142.42 568.66 148.95 562.73 153.22 556.20 C 161.16 546.00 168.16 535.10 175.59 524.53 C 183.74 511.93 193.40 500.06 198.73 485.86 C 201.34 478.73 203.65 471.09 202.31 463.43 C 197.19 431.11 194.66 398.45 191.81 365.87 C 190.49 344.95 189.67 324.01 189.37 303.05 C 188.76 271.06 188.13 238.94 191.69 207.08 C 194.08 191.59 196.58 176.06 201.10 161.02 C 206.19 146.01 211.99 130.00 224.81 119.78 M 295.48 544.68 C 286.73 545.89 278.77 549.95 271.03 553.98 C 253.78 564.09 239.20 578.03 225.64 592.57 C 208.46 612.24 191.02 632.57 181.16 657.10 C 173.83 677.86 172.73 700.19 173.16 722.02 C 173.29 728.51 176.60 735.67 183.03 738.02 C 193.41 742.07 205.35 739.37 214.48 733.50 C 218.80 730.20 223.36 727.07 226.71 722.73 C 237.90 710.61 243.49 694.79 251.76 680.77 C 257.86 668.19 268.83 659.14 278.92 649.87 C 297.53 632.53 317.44 615.91 331.42 594.36 C 336.17 586.57 339.97 577.40 338.50 568.11 C 337.37 560.76 332.22 554.67 325.96 550.96 C 317.26 544.63 305.93 542.99 295.48 544.68 Z" />
</g>
<g id="#d16e1fff">
<path fill="#d16e1f" opacity="1.00" d=" M 269.63 112.38 C 278.80 113.78 287.16 117.96 295.59 121.58 C 315.18 131.14 332.70 144.47 348.56 159.34 C 367.29 177.04 384.00 196.79 399.91 217.03 C 423.07 247.04 442.93 279.62 458.89 314.01 C 463.48 322.02 465.36 331.40 470.85 338.91 C 458.07 339.79 445.50 342.50 432.94 344.89 C 424.99 346.54 417.30 349.24 409.33 350.76 C 406.10 337.37 401.88 324.25 397.84 311.10 C 392.97 298.05 388.68 284.75 382.78 272.11 C 380.33 266.59 378.11 260.96 375.29 255.61 C 372.38 250.13 370.33 244.24 367.14 238.91 C 349.96 205.75 329.26 174.39 305.26 145.75 C 299.20 138.83 293.53 131.51 286.68 125.33 C 281.41 120.49 275.20 116.85 269.63 112.38 Z" />
<path fill="#d16e1f" opacity="1.00" d=" M 829.43 150.39 L 829.39 149.66 C 832.84 157.84 834.62 166.59 837.24 175.05 C 842.52 197.27 844.31 220.14 845.23 242.92 C 846.43 267.61 845.12 292.32 844.72 317.02 C 843.43 364.20 840.09 411.40 832.83 458.05 C 831.23 467.01 830.35 476.47 833.65 485.18 C 825.75 479.48 819.99 471.50 814.10 463.88 C 810.74 459.28 807.27 454.39 806.42 448.62 C 805.89 443.68 807.01 438.77 807.91 433.94 C 811.79 415.42 814.33 396.65 818.27 378.14 C 821.93 357.58 824.98 336.92 828.43 316.32 C 833.44 280.10 836.64 243.53 835.85 206.94 C 834.91 193.55 834.97 180.04 832.32 166.83 C 831.34 161.35 829.58 155.99 829.43 150.39 Z" />
<path fill="#d16e1f" opacity="1.00" d=" M 653.92 491.40 C 657.01 491.66 660.09 492.10 663.13 492.76 C 673.36 495.36 683.69 497.80 693.53 501.73 C 700.53 504.98 707.88 507.49 714.65 511.24 C 739.79 524.32 763.65 539.81 786.40 556.69 C 807.13 572.31 826.68 589.75 842.73 610.25 C 859.34 630.95 872.58 654.36 881.78 679.27 C 886.44 690.04 888.87 701.58 892.22 712.78 C 895.49 726.69 897.73 740.83 899.20 755.04 C 900.00 764.37 901.28 773.67 901.32 783.05 C 902.24 809.11 899.53 835.13 895.75 860.88 C 893.78 874.76 890.25 888.33 887.07 901.97 C 884.30 914.09 880.22 925.84 876.67 937.75 C 870.95 954.41 864.58 970.89 856.72 986.68 C 848.89 1001.43 839.49 1015.70 826.50 1026.43 C 815.95 1035.42 803.00 1042.13 789.00 1043.21 C 770.65 1045.14 751.62 1037.38 740.17 1022.86 C 733.23 1014.39 728.50 1003.80 728.43 992.73 C 732.78 996.05 736.82 1000.28 742.31 1001.62 C 749.97 1003.18 758.36 1002.31 764.99 997.96 C 773.89 993.10 780.16 984.77 785.22 976.21 C 799.24 950.23 810.24 922.76 819.96 894.93 C 829.70 865.16 837.68 834.77 842.66 803.83 C 844.36 791.23 846.88 778.74 847.79 766.04 C 849.25 752.41 849.37 738.68 848.93 724.99 C 848.22 708.56 844.64 692.36 839.15 676.89 C 831.56 657.56 821.16 639.49 809.86 622.11 C 794.41 598.15 779.44 573.11 757.73 554.19 C 741.87 539.34 722.63 528.92 703.95 518.12 C 691.71 511.58 679.54 504.87 666.88 499.15 C 662.27 497.12 657.23 495.43 653.92 491.40 Z" />
<path fill="#d16e1f" opacity="1.00" d=" M 856.64 524.74 C 860.78 532.99 865.98 540.65 870.12 548.90 C 873.06 555.81 876.32 563.31 874.75 570.98 C 872.89 576.07 866.72 577.92 864.87 583.02 C 862.25 589.73 863.77 597.02 863.14 604.01 C 857.44 596.50 851.28 589.35 844.86 582.45 C 847.92 574.28 849.38 565.63 851.29 557.14 C 853.30 546.38 855.55 535.65 856.64 524.74 Z" />
<path fill="#d16e1f" opacity="1.00" d=" M 289.39 948.21 L 289.60 947.34 C 293.27 960.61 297.50 974.02 297.23 987.94 C 297.59 1006.85 287.06 1025.31 270.99 1035.12 C 251.67 1047.45 224.96 1045.73 206.62 1032.29 C 218.48 1033.67 231.00 1034.15 242.17 1029.20 C 256.19 1022.67 267.22 1010.74 274.18 997.07 C 279.23 988.59 281.79 978.98 284.67 969.62 C 286.81 962.61 287.44 955.27 289.39 948.21 Z" />
</g>
<g id="#f2e5c5fd">
<path fill="#f2e5c5" opacity="1.00" d=" M 868.08 509.60 C 869.36 511.13 869.97 513.60 872.18 514.04 L 872.18 515.05 C 872.70 514.95 873.76 514.74 874.28 514.64 L 874.01 515.60 C 876.46 516.21 878.40 517.88 880.57 519.10 C 882.28 520.01 883.88 521.15 885.59 522.09 C 886.82 523.20 887.99 524.48 889.60 525.08 C 891.43 526.70 893.40 528.30 894.49 530.56 C 895.56 532.82 896.87 534.99 897.45 537.45 C 898.16 538.66 898.19 540.07 898.37 541.44 C 899.32 542.94 899.15 544.73 899.33 546.43 C 900.39 548.11 900.09 550.14 900.20 552.04 C 900.18 557.67 900.33 563.31 900.03 568.94 C 899.84 569.35 899.47 570.17 899.28 570.58 C 898.89 573.56 899.82 576.86 898.29 579.59 C 898.04 581.92 898.57 584.45 897.33 586.58 C 897.14 588.26 897.34 590.08 896.33 591.57 C 896.14 593.25 896.37 595.09 895.33 596.56 C 895.17 598.25 895.25 600.02 894.40 601.56 C 894.17 602.92 893.96 604.28 893.48 605.58 C 893.15 606.58 892.79 607.56 892.40 608.54 C 892.23 610.29 891.78 611.99 890.93 613.55 C 890.36 614.85 889.90 616.20 889.43 617.55 C 889.16 618.57 888.84 619.58 888.44 620.57 C 888.17 621.58 887.84 622.58 887.44 623.56 C 886.60 626.25 885.83 629.00 884.42 631.47 C 884.14 632.27 883.57 633.86 883.29 634.66 C 884.18 636.38 885.09 638.09 885.90 639.86 C 882.79 634.44 879.96 628.85 876.49 623.65 C 880.63 613.25 883.18 602.04 881.62 590.81 C 885.19 588.74 887.94 585.55 889.62 581.79 C 894.32 573.08 893.48 562.54 890.48 553.41 C 886.25 537.35 876.54 523.63 868.08 509.60 Z" />
</g>
<g id="#eeb370ff">
<path fill="#eeb370" opacity="1.00" d=" M 295.48 544.68 C 305.93 542.99 317.26 544.63 325.96 550.96 C 332.22 554.67 337.37 560.76 338.50 568.11 C 339.97 577.40 336.17 586.57 331.42 594.36 C 317.44 615.91 297.53 632.53 278.92 649.87 C 268.83 659.14 257.86 668.19 251.76 680.77 C 243.49 694.79 237.90 710.61 226.71 722.73 C 223.36 727.07 218.80 730.20 214.48 733.50 C 205.35 739.37 193.41 742.07 183.03 738.02 C 176.60 735.67 173.29 728.51 173.16 722.02 C 172.73 700.19 173.83 677.86 181.16 657.10 C 191.02 632.57 208.46 612.24 225.64 592.57 C 239.20 578.03 253.78 564.09 271.03 553.98 C 278.77 549.95 286.73 545.89 295.48 544.68 Z" />
</g>
<g id="#fde8acff">
<path fill="#fde8ac" opacity="1.00" d=" M 340.01 616.01 C 356.21 594.48 376.56 575.98 400.07 562.76 C 395.16 569.76 390.50 576.93 386.76 584.64 C 381.80 593.27 378.85 602.83 375.47 612.14 C 369.00 634.14 367.33 657.56 370.78 680.24 C 372.05 687.90 373.72 695.64 377.33 702.58 C 380.22 708.95 383.85 715.11 389.10 719.83 C 403.38 734.89 430.59 736.35 445.15 720.92 C 456.21 750.14 480.86 774.17 510.84 783.40 C 524.45 787.25 538.88 789.44 552.97 787.09 C 562.79 785.83 572.51 783.46 581.59 779.46 C 588.48 775.93 595.60 772.64 601.64 767.71 C 621.69 752.90 636.22 730.60 641.26 706.14 C 645.64 706.09 649.90 704.95 653.85 703.09 C 663.62 699.02 670.49 690.10 674.72 680.68 C 681.93 663.15 683.63 643.45 679.71 624.91 C 676.75 606.07 669.08 588.12 658.05 572.61 C 691.54 600.69 715.51 638.89 730.23 679.77 C 735.51 695.13 740.04 710.76 742.55 726.84 C 749.75 764.73 749.28 803.68 745.46 841.93 C 742.45 863.12 739.90 884.45 735.00 905.31 C 730.00 904.08 724.56 907.69 724.18 912.90 C 720.99 933.33 712.69 952.55 709.88 973.06 C 707.76 987.24 708.17 1002.19 713.70 1015.60 C 705.79 1020.61 696.86 1023.64 688.47 1027.70 C 675.18 1032.76 661.80 1037.70 647.95 1041.05 C 639.64 1042.91 631.47 1045.42 623.06 1046.85 C 609.12 1049.49 595.05 1051.39 580.95 1052.91 C 569.05 1054.72 557.00 1055.20 545.00 1056.01 C 531.00 1056.50 516.99 1057.57 502.98 1056.97 C 491.66 1056.46 480.33 1056.16 469.04 1055.30 C 455.27 1054.65 441.65 1052.56 427.97 1050.99 C 413.92 1048.99 399.80 1047.00 386.11 1043.20 C 375.31 1040.66 364.46 1038.06 354.10 1034.04 C 346.62 1031.46 339.02 1029.11 331.94 1025.53 C 324.85 1022.54 317.79 1019.45 311.12 1015.58 C 318.82 999.19 317.12 980.23 313.52 963.01 C 310.24 951.01 307.20 938.95 303.88 926.98 C 302.20 921.91 301.42 916.64 300.39 911.43 C 299.73 908.13 296.85 905.80 293.70 905.02 C 288.98 880.60 286.11 855.82 284.98 830.97 C 283.41 807.63 284.79 784.21 287.01 760.96 C 288.88 744.55 291.00 728.07 295.37 712.11 C 303.64 677.54 318.68 644.48 340.01 616.01 Z" />
<path fill="#fde8ac" opacity="1.00" d=" M 637.94 578.23 C 642.79 584.22 647.25 590.58 650.43 597.63 C 656.75 609.00 659.51 621.86 661.73 634.54 C 663.65 647.95 662.33 662.08 656.38 674.37 C 653.87 679.76 649.18 683.89 643.82 686.33 C 643.42 680.31 643.60 674.09 641.80 668.28 C 639.56 661.51 628.59 659.14 624.98 665.95 C 621.05 674.03 622.25 683.41 623.56 691.99 C 621.50 719.43 604.91 745.47 580.68 758.61 C 570.53 764.66 558.75 767.23 547.12 768.56 C 539.35 769.50 531.56 768.23 523.94 766.76 C 510.42 764.07 497.74 757.63 487.29 748.71 C 471.13 735.37 460.64 715.74 457.81 695.04 C 456.80 686.92 445.02 683.49 439.85 689.79 C 438.16 695.66 434.44 700.60 432.21 706.25 C 427.34 713.64 416.93 714.06 409.59 710.42 C 398.06 705.44 392.56 692.70 390.28 681.09 C 386.53 659.97 388.01 637.99 393.88 617.39 C 395.14 633.96 401.94 651.30 416.34 660.70 C 431.52 670.21 454.88 668.63 465.57 653.10 C 466.94 679.38 482.45 704.70 505.72 717.20 C 520.21 724.42 537.08 727.35 553.00 723.74 C 562.10 721.51 571.28 718.58 578.90 712.95 C 591.52 704.44 600.78 691.13 604.54 676.40 C 606.53 668.79 607.98 660.90 607.11 653.02 C 606.20 645.06 604.11 637.23 600.77 629.95 C 613.51 638.07 631.15 630.41 637.89 617.94 C 644.39 605.63 642.64 590.84 637.94 578.23 Z" />
</g>
</svg>
