<?xml version="1.0" encoding="utf-8"?>
<!-- Generator: Adobe Illustrator 17.1.0, SVG Export Plug-In . SVG Version: 6.00 Build 0)  -->
<!DOCTYPE svg PUBLIC "-//W3C//DTD SVG 1.1//EN" "http://www.w3.org/Graphics/SVG/1.1/DTD/svg11.dtd">
<svg version="1.1" id="Layer_1" xmlns="http://www.w3.org/2000/svg" xmlns:xlink="http://www.w3.org/1999/xlink" x="0px" y="0px"
	 width="424.9px" height="291.3px" viewBox="0 0 424.9 291.3" enable-background="new 0 0 424.9 291.3" xml:space="preserve">
<g>
	<g>
		<g>
			<path fill="#FDC2A9" d="M310.7,188c0.4-3.7,2.6-7.3,5.9-9.1c3.3-1.9,7.5-2,10.9-0.4c6.2,2.9,8.5,10.5,9.2,17.2
				c0.5,5.9,0.2,11.8-0.9,17.6c-0.5,2.3-1.1,4.6-2.4,6.5c-1.2,1.7-3,3-4.7,4.2c-4.1,2.9-8.2,5.7-12.3,8.6c-3.3,2.3-7.3,4.7-11,3.2
				c-2.6-1.1-4.2-3.9-4.5-6.7c-0.3-2.8,0.3-5.6,1-8.4c1.9-7.9,3.8-15.7,5.7-23.6L310.7,188z"/>
			<linearGradient id="SVGID_1_" gradientUnits="userSpaceOnUse" x1="327.2049" y1="180.6762" x2="323.1437" y2="194.6648">
				<stop  offset="0" style="stop-color:#FFDFCC"/>
				<stop  offset="0.6013" style="stop-color:#FECFB8"/>
				<stop  offset="1" style="stop-color:#FDC2A9"/>
			</linearGradient>
			<path fill="url(#SVGID_1_)" d="M327.4,178.5c-3.4-1.6-7.6-1.5-10.9,0.4c-3.3,1.9-5.6,5.4-5.9,9.1l-1,2.8l4.5,3
				c0,0,4.5-8.6,13.1-6.3c5.5,1.5,8.3,6.5,9.5,10.5c0-0.8-0.1-1.5-0.2-2.3C336,189,333.6,181.5,327.4,178.5z"/>
			<linearGradient id="SVGID_2_" gradientUnits="userSpaceOnUse" x1="328.4656" y1="226.1171" x2="311.3182" y2="199.9448">
				<stop  offset="0" style="stop-color:#FDC2A9"/>
				<stop  offset="1" style="stop-color:#E57D6E"/>
			</linearGradient>
			<path fill="url(#SVGID_2_)" d="M329.5,219.6c0,0,6.8-12.6,3.6-21.7c-3.2-9-10.4-4.1-17.1,5.9c-6.8,9.9-10.8,15.8-10.8,15.8
				l-0.5,6.3c0,0,8.6-2.7,11.7-2.3C319.6,224.1,325.5,224.5,329.5,219.6z"/>
			<linearGradient id="SVGID_3_" gradientUnits="userSpaceOnUse" x1="328.4656" y1="226.1171" x2="311.3182" y2="199.9447">
				<stop  offset="0" style="stop-color:#F0AE91"/>
				<stop  offset="1" style="stop-color:#D86A5A"/>
			</linearGradient>
			<path fill="url(#SVGID_3_)" d="M333.1,197.9c-3.2-9-10.4-4.1-17.1,5.9c-6.8,9.9-10.8,15.8-10.8,15.8l-0.5,6.3
				c0,0,8.2-2.6,11.5-2.3c0.5-2.8-0.3-6.3-0.3-7.2l-0.9-4.1c0-0.2-0.1-0.3-0.1-0.4c0.6-1.4,1.3-2.8,2-4.1c0.9,0.1,9.2,1,6.2,11.3
				c0,0,3.2-4.1,1.8-9c-0.9-3.2-3.6-5.4-5.4-6.6c1.3-2,2.7-3.6,4.1-4.6c6.3-4.8,10.2,0.9,9.9,9.1C334.1,204.6,334.2,201,333.1,197.9
				z"/>
			<linearGradient id="SVGID_4_" gradientUnits="userSpaceOnUse" x1="311.8689" y1="206.7282" x2="338.9438" y2="206.2769">
				<stop  offset="0" style="stop-color:#943D30"/>
				<stop  offset="1" style="stop-color:#E57D6E"/>
			</linearGradient>
			<path fill="url(#SVGID_4_)" d="M310.8,188.1c1.1-5.7,5.7-9.9,11.6-9.8c5.6,0.1,9.5,4.5,11.3,9.4c1.7,4.6,2,9.5,2,14.4
				c0,5.3-0.1,12.4-3,17c-2.8,4.4-9.1,7.6-13.3,10.6c-4.4,3.1-11.8,9.7-16.3,3.1c-3.5-5.2-0.7-12.3,0.6-17.8
				c1.4-5.9,2.9-11.8,4-17.8c0.1-0.5-0.7-0.8-0.8-0.2c-1.9,6.5-3.4,13.1-5,19.6c-1.2,4.8-3.6,10.7-1.6,15.5
				c4.4,10.6,16.7,0.5,22.2-3.2c3.9-2.7,9.2-5.2,11.8-9.4c2.6-4.2,3-10.1,3.3-14.9c0.5-8.4-0.1-19.9-7.5-25.5
				c-7.8-6-19-0.8-19.7,8.9C310.5,188.2,310.8,188.2,310.8,188.1L310.8,188.1z"/>
		</g>
		<g>
			<path fill="#FDC2A9" d="M114.3,188c-0.4-3.7-2.6-7.3-5.9-9.1c-3.3-1.9-7.5-2-10.9-0.4c-6.2,2.9-8.5,10.5-9.2,17.2
				c-0.5,5.9-0.2,11.8,0.9,17.6c0.5,2.3,1.1,4.6,2.4,6.5c1.2,1.7,3,3,4.7,4.2c4.1,2.9,8.2,5.7,12.3,8.6c3.3,2.3,7.3,4.7,11,3.2
				c2.6-1.1,4.2-3.9,4.5-6.7s-0.3-5.6-1-8.4c-1.9-7.9-3.8-15.7-5.7-23.6L114.3,188z"/>
			
				<linearGradient id="SVGID_5_" gradientUnits="userSpaceOnUse" x1="949.4401" y1="180.6761" x2="945.3789" y2="194.6648" gradientTransform="matrix(-1 0 0 1 1047.2269 0)">
				<stop  offset="0" style="stop-color:#FFDFCC"/>
				<stop  offset="0.6013" style="stop-color:#FECFB8"/>
				<stop  offset="1" style="stop-color:#FDC2A9"/>
			</linearGradient>
			<path fill="url(#SVGID_5_)" d="M97.6,178.5c3.4-1.6,7.6-1.5,10.9,0.4c3.3,1.9,5.6,5.4,5.9,9.1l1,2.8l-4.5,3c0,0-4.5-8.6-13.1-6.3
				c-5.5,1.5-8.3,6.5-9.5,10.5c0-0.8,0.1-1.5,0.2-2.3C89,189,91.4,181.5,97.6,178.5z"/>
			
				<linearGradient id="SVGID_6_" gradientUnits="userSpaceOnUse" x1="950.7007" y1="226.1171" x2="933.5534" y2="199.9448" gradientTransform="matrix(-1 0 0 1 1047.2269 0)">
				<stop  offset="0" style="stop-color:#FDC2A9"/>
				<stop  offset="1" style="stop-color:#E57D6E"/>
			</linearGradient>
			<path fill="url(#SVGID_6_)" d="M95.5,219.6c0,0-6.8-12.6-3.6-21.7c3.2-9,10.4-4.1,17.1,5.9c6.8,9.9,10.8,15.8,10.8,15.8l0.5,6.3
				c0,0-8.6-2.7-11.7-2.3C105.4,224.1,99.5,224.5,95.5,219.6z"/>
			
				<linearGradient id="SVGID_7_" gradientUnits="userSpaceOnUse" x1="950.7007" y1="226.1171" x2="933.5533" y2="199.9447" gradientTransform="matrix(-1 0 0 1 1047.2269 0)">
				<stop  offset="0" style="stop-color:#F0AE91"/>
				<stop  offset="1" style="stop-color:#D86A5A"/>
			</linearGradient>
			<path fill="url(#SVGID_7_)" d="M91.8,197.9c3.2-9,10.4-4.1,17.1,5.9c6.8,9.9,10.8,15.8,10.8,15.8l0.5,6.3c0,0-8.2-2.6-11.5-2.3
				c-0.5-2.8,0.3-6.3,0.3-7.2l0.9-4.1c0-0.2,0.1-0.3,0.1-0.4c-0.6-1.4-1.3-2.8-2-4.1c-0.9,0.1-9.2,1-6.2,11.3c0,0-3.2-4.1-1.8-9
				c0.9-3.2,3.6-5.4,5.4-6.6c-1.3-2-2.7-3.6-4.1-4.6c-6.3-4.8-10.2,0.9-9.9,9.1C90.8,204.6,90.7,201,91.8,197.9z"/>
			
				<linearGradient id="SVGID_8_" gradientUnits="userSpaceOnUse" x1="934.1041" y1="206.7282" x2="961.179" y2="206.2769" gradientTransform="matrix(-1 0 0 1 1047.2269 0)">
				<stop  offset="0" style="stop-color:#943D30"/>
				<stop  offset="1" style="stop-color:#E57D6E"/>
			</linearGradient>
			<path fill="url(#SVGID_8_)" d="M114.2,188.1c-1.1-5.7-5.7-9.9-11.6-9.8c-5.6,0.1-9.5,4.5-11.3,9.4c-1.7,4.6-2,9.5-2,14.4
				c0,5.3,0.1,12.4,3,17c2.8,4.4,9.1,7.6,13.3,10.6c4.4,3.1,11.8,9.7,16.3,3.1c3.5-5.2,0.7-12.3-0.6-17.8c-1.4-5.9-2.9-11.8-4-17.8
				c-0.1-0.5,0.7-0.8,0.8-0.2c1.9,6.5,3.4,13.1,5,19.6c1.2,4.8,3.6,10.7,1.6,15.5c-4.4,10.6-16.7,0.5-22.2-3.2
				c-3.9-2.7-9.2-5.2-11.8-9.4c-2.6-4.2-3-10.1-3.3-14.9c-0.5-8.4,0.1-19.9,7.5-25.5c7.8-6,19-0.8,19.7,8.9
				C114.5,188.2,114.2,188.2,114.2,188.1L114.2,188.1z"/>
		</g>
	</g>
	<g>
		<linearGradient id="SVGID_9_" gradientUnits="userSpaceOnUse" x1="212.5529" y1="244.8486" x2="212.5529" y2="293.6584">
			<stop  offset="0" style="stop-color:#943D30"/>
			<stop  offset="1" style="stop-color:#E57D6E"/>
		</linearGradient>
		<path fill="url(#SVGID_9_)" d="M208.2,291.3c0,0-0.1,0-0.1,0c-34.5-2.7-65.1-27-80.8-47c-14.6-18.6-9.7-44.3-9.1-47l-2-35.7
			c0,0,0-0.1,0-0.1c0.7-13.6,2-39.6,2-41.2c0-0.8,0-1.6,14-14.2c13.2-12,31.7-27.9,31.8-28.1c0.2-0.2,0.4-0.3,0.7-0.3l42.2-7.1v-0.3
			c0-0.4,0.2-0.8,0.5-1c0.2-0.2,0.6-0.3,0.9-0.3c0.1,0,0.2,0,0.2,0l4.2,0.7l4.2-0.7c0.1,0,0.2,0,0.2,0c0.3,0,0.6,0.1,0.9,0.3
			c0.3,0.3,0.5,0.6,0.5,1v0.3l42.2,7.1c0.2,0,0.5,0.1,0.7,0.3c0.2,0.2,18.2,15.8,31.4,27.7c14.4,13,14.4,13.8,14.4,14.6
			c0,1.6,1.3,27.7,2,41.2c0,0,0,0.1,0,0.1l-2,35.7c0.6,2.7,5.5,28.4-9.1,47c-15.7,20-46.3,44.3-80.8,47c0,0-0.1,0-0.1,0H208.2z"/>
		<path fill="#FDC2A9" d="M305.6,197.5c0,0,6.1,27.1-8.8,46c-14.1,17.9-44.5,43.7-79.9,46.5h-8.8c-35.3-2.7-65.8-28.5-79.9-46.5
			c-14.9-19-8.8-46-8.8-46l-2-35.9c0,0,2-39.3,2-41.3c0-0.7,5.9-6.4,13.5-13.2C146.4,95,164.8,79,164.8,79l43.3-7.3v-1.5l4.4,0.7
			l4.4-0.7v1.5l43.3,7.3c0,0,18,15.6,31.4,27.7c7.8,7.1,14,12.9,14,13.6c0,2,2,41.3,2,41.3L305.6,197.5z"/>
		
			<radialGradient id="SVGID_10_" cx="487.0885" cy="1260.0863" r="55.1485" gradientTransform="matrix(0.7837 2.600000e-003 0 0.3168 -170.8985 -159.6309)" gradientUnits="userSpaceOnUse">
			<stop  offset="0" style="stop-color:#FFDFCC"/>
			<stop  offset="0.6013" style="stop-color:#FECFB8"/>
			<stop  offset="1" style="stop-color:#FDC2A9"/>
		</radialGradient>
		<path fill="url(#SVGID_10_)" d="M262.6,241.8c0,11.3-22.6,20.4-50.5,20.3c-27.9-0.1-50.5-9.3-50.5-20.6
			c0-11.3,22.6-20.4,50.5-20.3C239.9,221.3,262.6,230.5,262.6,241.8z"/>
		
			<radialGradient id="SVGID_11_" cx="1023.7376" cy="394.5669" r="46.5001" gradientTransform="matrix(0.5388 0.342 -0.58 0.9136 -20.4635 -491.2918)" gradientUnits="userSpaceOnUse">
			<stop  offset="0" style="stop-color:#FDA09B"/>
			<stop  offset="1" style="stop-color:#FDC2A9"/>
		</radialGradient>
		<path fill="url(#SVGID_11_)" d="M296.8,243.5c14.9-19,8.8-46,8.8-46l1.2-20.9c-10.4,4.3-21.3,13.8-29.6,26.8
			c-14.9,23.5-15.8,49.6-1.9,58.4c0.7,0.5,1.5,0.9,2.3,1.2C285.5,256.4,292.1,249.5,296.8,243.5z"/>
		
			<radialGradient id="SVGID_12_" cx="995.9143" cy="404.9824" r="46.5002" gradientTransform="matrix(-0.5388 0.342 0.58 0.9136 424.9582 -491.2918)" gradientUnits="userSpaceOnUse">
			<stop  offset="0" style="stop-color:#FDA09B"/>
			<stop  offset="1" style="stop-color:#FDC2A9"/>
		</radialGradient>
		<path fill="url(#SVGID_12_)" d="M148.3,203.4c-8.4-13.2-19.5-22.8-30-27l1.2,21.1c0,0-6.1,27.1,8.8,46c4.7,6,11.4,13,19.4,19.6
			c0.9-0.4,1.7-0.8,2.6-1.3C164.1,253,163.2,226.9,148.3,203.4z"/>
		<path fill="#F79183" d="M305.6,197.5l0.1-2.4c-1.6,0.5-2.8,1-2.8,1c2.3,28.8-8,48.3-17.4,59.8c4.5-4.3,8.3-8.6,11.3-12.4
			C311.7,224.5,305.6,197.5,305.6,197.5z M123,196.1c0,0-1.7-0.7-3.6-1.3l0.1,2.6c0,0-6.1,27.1,8.8,46c4,5,9.2,10.7,15.5,16.3
			C133.6,249,120.4,228.4,123,196.1z"/>
		<g>
			<linearGradient id="SVGID_13_" gradientUnits="userSpaceOnUse" x1="212.553" y1="276.3701" x2="212.553" y2="264.9547">
				<stop  offset="0" style="stop-color:#FDC2A9"/>
				<stop  offset="1" style="stop-color:#E57D6E"/>
			</linearGradient>
			<path fill="url(#SVGID_13_)" d="M205.3,268c0,0,8.4,2,14.4-1c0,0-3.4,5.4-7.7,5.4C212,272.3,208.4,273,205.3,268z"/>
			<g>
				<g>
					<path fill="#FD666E" d="M212.2,266.8h-0.5c0.1,0,0.2,0,0.2,0C212.1,266.8,212.1,266.8,212.2,266.8z"/>
					<path fill="#FD666E" d="M245.6,247.8c-0.3,0.3-6.3,6.9-14.6,12.2c-1.9,1.2-3.9,2.4-6,3.4c0,0,0,0,0,0c-4.1,2-8.6,3.3-13,3.4
						c-3.5,0-6.9-0.9-10.2-2.2c0,0,0,0,0,0c-2.8-1.1-5.5-2.5-8-4.1c-8.9-5.5-15.4-12.8-15.4-12.8l18.1,4.4l9.5,2l4.5,1l7.2-1
						l8.6-1.5C238.5,252.7,245.2,248,245.6,247.8z"/>
					
						<radialGradient id="SVGID_14_" cx="525.4647" cy="1180.9705" r="10.1724" gradientTransform="matrix(1.2823 0 0 0.4123 -461.2906 -224.7498)" gradientUnits="userSpaceOnUse">
						<stop  offset="0" style="stop-color:#FD8BA1"/>
						<stop  offset="1" style="stop-color:#FD666E"/>
					</radialGradient>
					<ellipse fill="url(#SVGID_14_)" cx="212.4" cy="262.4" rx="12.4" ry="4"/>
					<path fill="#F34D57" d="M226.2,252.7l-8.6,1.5l-7.2,1l-4.5-1l-9.5-2l-18.1-4.4c0,0,6.5,7.2,15.4,12.8c0.3-1.2,1.4-2.8,5.4-2.5
						c6.3,0.5,19.9,1,26.2-0.5c3.2-0.7,4.9,0.7,5.7,2.5c8.3-5.3,14.3-11.9,14.6-12.2C245.2,248,238.5,252.7,226.2,252.7z
						 M212.2,266.8c-0.1,0-0.1,0-0.2,0c-0.1,0-0.2,0-0.2,0H212.2z M201.8,264.6c3.3,1.3,6.8,2.2,10.2,2.2c4.4,0,8.8-1.4,13-3.4
						C216,265.4,206.3,265,201.8,264.6z"/>
				</g>
				<g>
					
						<linearGradient id="SVGID_15_" gradientUnits="userSpaceOnUse" x1="280.1603" y1="240.1674" x2="270.1635" y2="256.9268" gradientTransform="matrix(0.9991 4.120000e-002 -4.120000e-002 0.9991 -0.1435 -28.4472)">
						<stop  offset="0" style="stop-color:#FDC2A9"/>
						<stop  offset="1" style="stop-color:#E57D6E"/>
					</linearGradient>
					<path fill="url(#SVGID_15_)" d="M257.3,238c0,0,2.3-3.1,2.9-4.6l-1.6-2c0,0,8.7-1.1,11.4,0.3c0,0-4.8,1.7-7.9,2.5
						c0,0-4.3,4.6-8.8,6.9L257.3,238z"/>
					
						<linearGradient id="SVGID_16_" gradientUnits="userSpaceOnUse" x1="1026.2858" y1="209.9486" x2="1016.2889" y2="226.7081" gradientTransform="matrix(-0.9991 4.120000e-002 4.120000e-002 0.9991 1172.0985 -28.4471)">
						<stop  offset="0" style="stop-color:#FDC2A9"/>
						<stop  offset="1" style="stop-color:#E57D6E"/>
					</linearGradient>
					<path fill="url(#SVGID_16_)" d="M168,238.6c0,0-2.3-3.1-2.9-4.6l1.6-2c0,0-8.7-1.1-11.4,0.3c0,0,4.8,1.7,7.9,2.5
						c0,0,4.3,4.6,8.8,6.9L168,238.6z"/>
					<g>
						<g>
							<path fill="#FD6063" d="M240,246.9c-7.5,1.5-19.2,0.4-23.4,1.1l-3.6,2.6l-0.5,0.6l-0.5-0.6l-3.6-2.6
								c-4.2-0.7-15.9,0.4-23.4-1.1c-7.5-1.5-19.4-11.8-19.4-11.8c7.6,11,18.7,17.5,30,17.7c3.1,0,6.2-0.4,9.2,0.5
								c2.5,0.8,5,2.4,7.5,1.6l0.2-0.6l0.2,0.6c2.5,0.8,5-0.8,7.5-1.6c3-0.9,6.1-0.5,9.2-0.5c11.3-0.2,22.4-6.7,30-17.7
								C259.4,235.1,247.6,245.5,240,246.9z"/>
							<path fill="#DE4245" d="M259.6,235.1c-5.7,7.8-13.2,13.4-21.3,15.7c-4.3,1.2-8.4,1.1-12.8,1.1c-1.8,0-3.5,0.1-5.3,0.6
								c-2.5,0.6-4.8,1.9-7.3,1.7c-0.1,0-0.2,0-0.3,0.1c-0.1-0.1-0.2-0.1-0.3-0.1c-2.6,0.2-4.8-1.1-7.3-1.7
								c-1.7-0.4-3.5-0.6-5.3-0.6c-4.3,0-8.5,0.2-12.8-1.1c-8-2.4-15.6-7.9-21.3-15.7c0-0.1-0.1,0-0.1,0.1
								c5.6,8.1,12.6,13.9,20.6,16.7c4.1,1.4,8.2,1.8,12.4,1.8c2.8,0,5.1,0.4,7.7,1.5c2,0.8,3.9,1.3,6,0.6c0.1,0,0.1-0.1,0.2-0.1
								c0,0,0.1,0.1,0.2,0.1c2,0.7,4,0.2,6-0.6c2.6-1.1,5-1.5,7.7-1.5c4.2,0,8.3-0.4,12.4-1.8C247.1,249.1,254.1,243.3,259.6,235.1
								C259.7,235.1,259.6,235,259.6,235.1z"/>
						</g>
					</g>
				</g>
			</g>
		</g>
		<g>
			<linearGradient id="SVGID_17_" gradientUnits="userSpaceOnUse" x1="227.3702" y1="201.1822" x2="197.1366" y2="217.4271">
				<stop  offset="0" style="stop-color:#FDC2A9"/>
				<stop  offset="1" style="stop-color:#E57D6E"/>
			</linearGradient>
			<path fill="url(#SVGID_17_)" d="M229.8,217.3c0,0-10.4-7.7-10.8-12.6c-0.5-5,0.5-16.7,0.5-16.7S228,200.2,229.8,217.3z"/>
			
				<linearGradient id="SVGID_18_" gradientUnits="userSpaceOnUse" x1="916.683" y1="201.1822" x2="886.4495" y2="217.4271" gradientTransform="matrix(-1 0 0 1 1114.2961 0)">
				<stop  offset="0" style="stop-color:#FDC2A9"/>
				<stop  offset="1" style="stop-color:#E57D6E"/>
			</linearGradient>
			<path fill="url(#SVGID_18_)" d="M195.2,217.3c0,0,10.4-7.7,10.8-12.6c0.5-5-0.5-16.7-0.5-16.7S197,200.2,195.2,217.3z"/>
			<linearGradient id="SVGID_19_" gradientUnits="userSpaceOnUse" x1="212.5529" y1="209.1437" x2="212.5529" y2="225.2194">
				<stop  offset="0" style="stop-color:#FDC2A9"/>
				<stop  offset="0.9981" style="stop-color:#FFA79C"/>
			</linearGradient>
			<path fill="url(#SVGID_19_)" d="M227.1,216.4c-2.2-1.9-5.7-4.1-12.9-4.4v0h-3.4v0c-7.2,0.2-10.6,2.5-12.9,4.4
				c-2.4,2-4.7,7.1-4.7,7.1l1.4,5.1l9.8,1.4l6.4,1.3v0.7l1.7-0.4l1.7,0.4v-0.7l6.4-1.3l9.8-1.4l1.4-5.1
				C231.8,223.5,229.5,218.5,227.1,216.4z"/>
			<linearGradient id="SVGID_20_" gradientUnits="userSpaceOnUse" x1="212.0453" y1="194.7602" x2="212.0453" y2="219.4805">
				<stop  offset="0" style="stop-color:#FDC2A9"/>
				<stop  offset="0.9981" style="stop-color:#FFC9BF"/>
			</linearGradient>
			<path fill="url(#SVGID_20_)" d="M218.9,213.7L218.9,213.7c0.1,0-4-5.4-4.3-25.7c0,0,0.2-0.8-1-1.2v-0.2h-3v0.2
				c-1.2,0.4-1,1.2-1,1.2c-0.3,20.3-4.4,25.7-4.4,25.7l0.1,0c-0.9,1.1-1.4,2.4-1.4,3.9c0,3.8,3.7,6.9,8.3,6.9s8.3-3.1,8.3-6.9
				C220.3,216.2,219.8,214.8,218.9,213.7z"/>
			<ellipse fill="#FFDCD3" cx="212" cy="214.9" rx="3.8" ry="2.1"/>
			<g>
				<path fill="#DA6B5A" d="M226.5,223.9c-2.1-0.7-7.5,0-9.4,1.8c-1.9,1.8-3.5,2-4.9,2H212c-1.4,0-2.9-0.2-4.7-2
					c-1.8-1.8-7-2.5-9-1.8c-2,0.7-4.5-0.2-4.5-0.2l0.2,3.9c4.4,9.4,15.3,10,18.2,9.9c3,0.1,13.3-0.3,17.9-9.7l1.2-4.1
					C231.2,223.7,228.7,224.6,226.5,223.9z"/>
				<linearGradient id="SVGID_21_" gradientUnits="userSpaceOnUse" x1="212.4719" y1="243.2693" x2="212.4719" y2="231.2921">
					<stop  offset="0" style="stop-color:#FDC2A9"/>
					<stop  offset="1" style="stop-color:#E57D6E"/>
				</linearGradient>
				<path fill="url(#SVGID_21_)" d="M226.5,226.1c-2.1-0.7-7.5,0-9.4,1.8c-1.9,1.8-3.5,2-4.9,2H212c-1.4,0-2.9-0.2-4.7-2
					c-1.8-1.8-7-2.5-9-1.8c-2,0.7-4.5-0.2-4.5-0.2l1.1,4.1c4.4,9.4,14.4,9.8,17.3,9.7c3,0.1,13.3-0.3,17.9-9.7l1.2-4.1
					C231.2,225.9,228.7,226.8,226.5,226.1z"/>
				<path d="M220,231.3c3.5,0.3,5.1-1.5,5.1-1.5C222.3,229.4,220,231.3,220,231.3z M199.5,229.8c0,0,1.6,1.9,5.1,1.5
					C204.6,231.3,202.3,229.4,199.5,229.8z"/>
				<linearGradient id="SVGID_22_" gradientUnits="userSpaceOnUse" x1="212.3273" y1="225.8962" x2="212.3273" y2="220.8197">
					<stop  offset="0" style="stop-color:#943D30"/>
					<stop  offset="1" style="stop-color:#E57D6E"/>
				</linearGradient>
				<path fill="url(#SVGID_22_)" d="M226.1,229.1c-2.1-0.1-5.1,0.2-6.7,1.7c-0.8,0.7-1.1,1.8-1.7,2.7c-1.4,1.8-3.4,2.3-5.6,2.2
					c0,0,0,0,0,0c-1.7,0-3.4-0.4-4.7-1.7c-0.9-1-1.1-2.4-2.1-3.3c-1.7-1.5-4.6-1.8-6.7-1.7c-0.4,0-0.5,0.6-0.1,0.7
					c2.2,0.3,5.3,0.3,6.8,2.3c0.7,0.9,0.9,1.9,1.8,2.7c1.5,1.3,3.4,1.8,5.2,1.2c1.8,0.5,3.7,0.1,5.2-1.2c0.9-0.8,1.1-1.9,1.8-2.7
					c1.7-1.9,4.5-2,6.8-2.3C226.6,229.7,226.5,229.1,226.1,229.1z M229.7,220.2c-0.2-0.2-0.6,0.1-0.4,0.3c2.9,4.1,1.2,12-5,11.2
					c-0.1,0-0.1,0.2,0,0.2c2.8,0.6,5.9-0.2,7.4-2.8C233.5,226,232,222.6,229.7,220.2z M200.4,231.7c-6.2,0.8-7.9-7.1-5-11.2
					c0.2-0.3-0.2-0.5-0.4-0.3c-2.3,2.4-3.7,5.8-1.9,8.9c1.5,2.6,4.6,3.5,7.4,2.8C200.5,231.9,200.5,231.7,200.4,231.7z"/>
			</g>
		</g>
		
			<radialGradient id="SVGID_23_" cx="471.7602" cy="507.3642" r="57.172" gradientTransform="matrix(0.6769 0 0 0.6769 -108.76 -248.1026)" gradientUnits="userSpaceOnUse">
			<stop  offset="0" style="stop-color:#FFDFCC"/>
			<stop  offset="0.6013" style="stop-color:#FECFB8"/>
			<stop  offset="1" style="stop-color:#FDC2A9"/>
		</radialGradient>
		<path fill="url(#SVGID_23_)" d="M291.6,106.7c-13.7,25.6-44.1,43.5-79.4,43.5c-35.1,0-65.4-17.6-79.2-43.1
			C146.4,95,164.8,79,164.8,79l43.3-7.3v-1.5l4.4,0.7l4.4-0.7v1.5l43.3,7.3C260.3,79,278.3,94.6,291.6,106.7z"/>
		
			<radialGradient id="SVGID_24_" cx="897.0775" cy="782.8387" r="14.0161" gradientTransform="matrix(0.5181 0.2674 -0.2463 0.4771 -31.5168 -411.9138)" gradientUnits="userSpaceOnUse">
			<stop  offset="0" style="stop-color:#FFDFCC"/>
			<stop  offset="1" style="stop-color:#FDC2A9"/>
		</radialGradient>
		<path fill="url(#SVGID_24_)" d="M250.7,207.9c-2.6,5.1-9.2,6.9-14.8,4.1c-5.5-2.9-7.9-9.3-5.3-14.4c2.6-5.1,9.2-6.9,14.8-4.1
			C250.9,196.4,253.3,202.8,250.7,207.9z"/>
		
			<radialGradient id="SVGID_25_" cx="1072.171" cy="683.7582" r="14.0162" gradientTransform="matrix(-0.5181 0.2674 0.2463 0.4771 572.4209 -411.9138)" gradientUnits="userSpaceOnUse">
			<stop  offset="0" style="stop-color:#FFDFCC"/>
			<stop  offset="1" style="stop-color:#FDC2A9"/>
		</radialGradient>
		<path fill="url(#SVGID_25_)" d="M175.1,207.5c2.6,5.1,9.2,6.9,14.8,4.1c5.5-2.9,7.9-9.3,5.3-14.4c-2.6-5.1-9.2-6.9-14.8-4.1
			C174.8,195.9,172.5,202.4,175.1,207.5z"/>
		<g>
			<linearGradient id="SVGID_26_" gradientUnits="userSpaceOnUse" x1="267.7953" y1="168.7737" x2="274.4526" y2="104.8639">
				<stop  offset="0" style="stop-color:#FDC2A9"/>
				<stop  offset="1" style="stop-color:#E57D6E"/>
			</linearGradient>
			<path fill="url(#SVGID_26_)" d="M236.6,201.6c0,0-7.7-71.1,23.7-78.4c0,0,17.4,1.3,25.8,15.3c8.4,14,11.8,30.6,11.8,43.2
				l-18.1,12.6L236.6,201.6z"/>
			<g>
				<path fill="#F4866F" d="M294.4,184.6c0.8-10.3-3.2-22.6-11.8-28.9c-5.7-4.3-13.8-3.9-20-1.6c-9.6,3.6-17.3,12-20,21.8
					c0,0-4.4,13.2-4.9,26.2c0,0,20.4-8.4,19.5-7C256.4,196.5,294.4,184.6,294.4,184.6z"/>
				<path fill="#B14F43" d="M242.7,175.9c4.3-12.9,16.9-24.2,31.2-22.6c14.7,1.6,19.6,18.9,19.9,31.3c0,0.6,1.1,0.9,1.2,0.2
					c1.9-12.9-5.6-31-20-33c-14.9-2-28.9,10.3-32.5,24.1C242.5,175.9,242.7,176,242.7,175.9L242.7,175.9z"/>
			</g>
			<path d="M290.6,179.3l-1.7,12.2c0,0,9.4-5.9,13.2-15.3C302.1,176.2,295.5,181.1,290.6,179.3z"/>
			<path d="M293.1,180.4c0,0-3.5-22-20.9-23.7l15.7,27.9L293.1,180.4z"/>
			
				<radialGradient id="SVGID_27_" cx="546.6238" cy="648.9833" r="32.889" gradientTransform="matrix(0.6969 0 0 0.6969 -121.3394 -247.1654)" gradientUnits="userSpaceOnUse">
				<stop  offset="0" style="stop-color:#D89393"/>
				<stop  offset="1" style="stop-color:#000000"/>
			</radialGradient>
			<path fill="url(#SVGID_27_)" d="M241.5,191.9c0,0,0.7-27.9,24.4-34.8c0,0,23.7-5.9,26.1,30c0,0-1,6.3-13.9,15
				c-10.9,7.4-29.6,2.4-32.1,0C244,200,241.5,191.9,241.5,191.9z"/>
			<g>
				<path fill="#FFFFFF" d="M288.6,187c-1.1-13.3-3.4-25.3-16.9-27.7c-7-1.2-14.1,2.3-19,7.1c-8.3,8.2-11.1,21.2-12.9,32.3
					c0,0-2.5,3.9-0.7,4.6l3.8-1c0,0,11.8,3.8,24,2.8c12.2-1,21.3-16,21.3-16L288.6,187z"/>
			</g>
			<path d="M239.8,198.8c2.7-14.6,7.4-33.6,23.8-38.3c7.3-2.1,15.5,0.7,19.5,7.3c3.4,5.7,4,12.8,4.6,19.3c0.1,1,1.7,1.1,1.6,0
				c-0.5-7-1.3-14.8-5.3-20.8c-3.9-5.9-11.1-8.7-18.1-7.6C247.3,161.6,242,183,239.8,198.8C239.7,198.8,239.8,198.8,239.8,198.8
				L239.8,198.8z"/>
			<path d="M287,192.1c0,0,2.6-9.3-3.5-23.9c0,0,4.9,5.8,6,21.1L287,192.1z"/>
		</g>
		<g>
			
				<linearGradient id="SVGID_28_" gradientUnits="userSpaceOnUse" x1="938.3844" y1="168.4168" x2="945.1077" y2="103.8737" gradientTransform="matrix(-1 0 0 1 1096.1127 0)">
				<stop  offset="0" style="stop-color:#FDC2A9"/>
				<stop  offset="1" style="stop-color:#E57D6E"/>
			</linearGradient>
			<path fill="url(#SVGID_28_)" d="M188.9,201.6c0,0,7.7-71.9-23.7-79.2c0,0-17.4,1.3-25.8,15.4c-8.4,14.1-11.8,30.9-11.8,43.7
				l18.1,12.8L188.9,201.6z"/>
			<g>
				<path fill="#F4866F" d="M131.1,184.6c-0.8-10.3,3.2-22.6,11.8-28.9c5.7-4.3,13.8-3.9,20-1.6c9.6,3.6,17.3,12,20,21.8
					c0,0,4.4,13.2,4.9,26.2c0,0-20.4-8.4-19.5-7C169.2,196.5,131.1,184.6,131.1,184.6z"/>
				<path fill="#B14F43" d="M182.8,175.9c-4.3-12.9-16.9-24.2-31.2-22.6c-14.7,1.6-19.6,18.9-19.9,31.3c0,0.6-1.1,0.9-1.2,0.2
					c-1.9-12.9,5.6-31,20-33c14.9-2,28.9,10.3,32.5,24.1C183,175.9,182.9,176,182.8,175.9L182.8,175.9z"/>
			</g>
			<path d="M123.4,176.2c3.8,9.4,13.2,15.3,13.2,15.3l-1.7-12.2C130,181.1,123.4,176.2,123.4,176.2z"/>
			<path d="M132.5,180.4c0,0,3.5-22,20.9-23.7l-15.7,27.9L132.5,180.4z"/>
			
				<radialGradient id="SVGID_29_" cx="687.8562" cy="648.9833" r="32.8892" gradientTransform="matrix(-0.6969 0 0 0.6969 645.2951 -247.1654)" gradientUnits="userSpaceOnUse">
				<stop  offset="0" style="stop-color:#D89393"/>
				<stop  offset="1" style="stop-color:#000000"/>
			</radialGradient>
			<path fill="url(#SVGID_29_)" d="M184,191.9c0,0-0.7-27.9-24.4-34.8c0,0-23.7-5.9-26.1,30c0,0,1,6.3,13.9,15
				c10.9,7.4,29.6,2.4,32.1,0C181.5,200,184,191.9,184,191.9z"/>
			<g>
				<path fill="#FFFFFF" d="M136.9,187c1.1-13.3,3.4-25.3,16.9-27.7c7-1.2,14.1,2.3,19,7.1c8.3,8.2,11.1,21.2,12.9,32.3
					c0,0,2.5,3.9,0.7,4.6l-3.8-1c0,0-11.8,3.8-24,2.8c-12.2-1-21.3-16-21.3-16L136.9,187z"/>
			</g>
			<path d="M185.7,198.8c-2.7-14.6-7.4-33.6-23.8-38.3c-7.3-2.1-15.5,0.7-19.5,7.3c-3.4,5.7-4,12.8-4.6,19.3c-0.1,1-1.7,1.1-1.6,0
				c0.5-7,1.3-14.8,5.3-20.8c3.9-5.9,11.1-8.7,18.1-7.6C178.2,161.6,183.6,183,185.7,198.8C185.8,198.8,185.7,198.8,185.7,198.8
				L185.7,198.8z"/>
			<path d="M138.5,192.1c0,0-2.6-9.3,3.5-23.9c0,0-4.9,5.8-6,21.1L138.5,192.1z"/>
		</g>
		<linearGradient id="SVGID_30_" gradientUnits="userSpaceOnUse" x1="212.5529" y1="242.7244" x2="212.5529" y2="124.0123">
			<stop  offset="0" style="stop-color:#FCAC8A"/>
			<stop  offset="1" style="stop-color:#C66755"/>
		</linearGradient>
		<path fill="url(#SVGID_30_)" d="M307.7,161.6c0,0-2-39.3-2-41.3c0-0.8-6.2-6.6-14-13.6c-13.3-12-31.4-27.7-31.4-27.7L217,71.7
			v-1.5l-4.4,0.7l-4.4-0.7v1.5L164.8,79c0,0-18.5,16-31.8,28.1c-7.6,6.9-13.5,12.5-13.5,13.2c0,2-2,41.3-2,41.3l2,35.9
			c0,0-0.9,4-1.2,10c0.6-1.1,1.3-2.1,2-3.1c0.9-1.3,2.1-2.7,2.4-4.3c0.5-2.6,0-5.8-0.2-8.4c-0.9-10.9-1.7-22,2.6-32.3
			c0.1-0.3-0.3-0.4-0.5-0.3c-1.4,1.2-2.9,2.4-4.4,3.5c5.5-12.5,12.3-24.5,21-35c1.6-0.7,3.3-1.4,5-2.1c6.1-2.5,12.5-4.5,18.5-7.2
			c5.2-2.3,9.9-6,13.9-10.1c0,0,0,0,0-0.1l1,0.4c-6.6,12.3-8.1,27.6-5,41.1c0.1,0.4,0.6,0.2,0.6-0.1c1.4-12.9,8-24,15.8-34.1
			c7.3-9.4,15-18.2,21.6-28.1c6.6,9.9,14.3,18.7,21.6,28.1c7.8,10.1,14.4,21.1,15.8,34.1c0,0.3,0.5,0.4,0.6,0.1
			c3.1-13.5,1.6-28.9-5-41.2c0,0-0.1-0.1-0.1-0.1c0.5-0.1,0.9-0.1,1.1-0.2c0,0,0,0.1,0,0.1c3.8,3.9,8.4,7.6,13.4,9.9
			c6.2,2.8,12.7,4.9,19,7.4c1.7,0.7,3.3,1.4,5,2.1c8.7,10.5,15.6,22.5,21,35c-1.5-1.1-2.9-2.3-4.4-3.5c-0.2-0.2-0.6,0-0.5,0.3
			c4.3,10.3,3.6,21.4,2.6,32.3c-0.2,2.6-0.5,5.3-0.2,7.8c0.2,1.9,1.3,3.3,2.4,4.8c0.5,0.7,1,1.5,1.5,2.3c-0.3-5.5-1.1-9.1-1.1-9.1
			L307.7,161.6z"/>
		
			<linearGradient id="SVGID_31_" gradientUnits="userSpaceOnUse" x1="216.4713" y1="-15.7073" x2="213.219" y2="-8.738" gradientTransform="matrix(0.9491 -0.3149 0.3149 0.9491 68.3455 205.8683)">
			<stop  offset="0" style="stop-color:#651507"/>
			<stop  offset="1" style="stop-color:#4A0C03"/>
		</linearGradient>
		<path fill="url(#SVGID_31_)" d="M251.9,127.5c0.5,2.2,3.4,3.8,7.8,2.7c5.9-1.5,15.4-2.2,24.4,4.1c0,0-6.6-11-21-13.1
			c-2-0.3-4.5,0.1-6.3,0.7C252.9,123.2,251.5,125.6,251.9,127.5z"/>
		
			<linearGradient id="SVGID_32_" gradientUnits="userSpaceOnUse" x1="842.524" y1="192.0095" x2="839.2717" y2="198.9788" gradientTransform="matrix(-0.9491 -0.3149 -0.3149 0.9491 1017.5152 205.8683)">
			<stop  offset="0" style="stop-color:#651507"/>
			<stop  offset="1" style="stop-color:#4A0C03"/>
		</linearGradient>
		<path fill="url(#SVGID_32_)" d="M174.3,127.5c-0.5,2.2-3.4,3.8-7.8,2.7c-5.9-1.5-15.4-2.2-24.4,4.1c0,0,6.6-11,21-13.1
			c2-0.3,4.5,0.1,6.3,0.7C173.4,123.2,174.8,125.6,174.3,127.5z"/>
		<g>
			<linearGradient id="SVGID_33_" gradientUnits="userSpaceOnUse" x1="261.0004" y1="190.4734" x2="261.0004" y2="176.8684">
				<stop  offset="0" style="stop-color:#580107"/>
				<stop  offset="1" style="stop-color:#3A0003"/>
			</linearGradient>
			<circle fill="url(#SVGID_33_)" cx="261" cy="183.7" r="16.2"/>
			<linearGradient id="SVGID_34_" gradientUnits="userSpaceOnUse" x1="261.0004" y1="190.4733" x2="261.0004" y2="176.8683">
				<stop  offset="0" style="stop-color:#7C2314"/>
				<stop  offset="1" style="stop-color:#61170D"/>
			</linearGradient>
			<circle fill="url(#SVGID_34_)" cx="261" cy="183.7" r="13.8"/>
			<circle cx="261" cy="183.7" r="8.3"/>
			<linearGradient id="SVGID_35_" gradientUnits="userSpaceOnUse" x1="261.0003" y1="190.9246" x2="261.0003" y2="184.4588">
				<stop  offset="0" style="stop-color:#AC6363"/>
				<stop  offset="1" style="stop-color:#000000"/>
			</linearGradient>
			<circle fill="url(#SVGID_35_)" cx="261" cy="183.7" r="6.8"/>
			<linearGradient id="SVGID_36_" gradientUnits="userSpaceOnUse" x1="261.0003" y1="179.6433" x2="261.0003" y2="173.9848">
				<stop  offset="0" style="stop-color:#AC6363"/>
				<stop  offset="1" style="stop-color:#FFFFFF"/>
			</linearGradient>
			<circle fill="url(#SVGID_36_)" cx="261" cy="177.8" r="3.6"/>
			<circle fill="#FFFFFF" cx="261" cy="190" r="1.8"/>
			<linearGradient id="SVGID_37_" gradientUnits="userSpaceOnUse" x1="261.0003" y1="192.2783" x2="261.0003" y2="197.6932">
				<stop  offset="0" style="stop-color:#AD4230"/>
				<stop  offset="0.9988" style="stop-color:#E5837E"/>
			</linearGradient>
			<path fill="url(#SVGID_37_)" d="M265.2,194.4c0,1.2-1.9,2.2-4.2,2.2c-2.3,0-4.2-1-4.2-2.2S265.2,193.2,265.2,194.4z"/>
		</g>
		<g>
			<linearGradient id="SVGID_38_" gradientUnits="userSpaceOnUse" x1="164.3202" y1="190.0221" x2="164.3202" y2="176.4171">
				<stop  offset="0" style="stop-color:#580107"/>
				<stop  offset="1" style="stop-color:#3A0003"/>
			</linearGradient>
			<circle fill="url(#SVGID_38_)" cx="164.3" cy="183.2" r="16.2"/>
			<linearGradient id="SVGID_39_" gradientUnits="userSpaceOnUse" x1="164.3201" y1="190.0221" x2="164.3201" y2="176.4171">
				<stop  offset="0" style="stop-color:#7C2314"/>
				<stop  offset="1" style="stop-color:#61170D"/>
			</linearGradient>
			<circle fill="url(#SVGID_39_)" cx="164.3" cy="183.2" r="13.8"/>
			<circle cx="164.3" cy="183.2" r="8.3"/>
			<linearGradient id="SVGID_40_" gradientUnits="userSpaceOnUse" x1="164.3201" y1="190.4733" x2="164.3201" y2="184.0075">
				<stop  offset="0" style="stop-color:#AC6363"/>
				<stop  offset="1" style="stop-color:#000000"/>
			</linearGradient>
			<circle fill="url(#SVGID_40_)" cx="164.3" cy="183.2" r="6.8"/>
			<linearGradient id="SVGID_41_" gradientUnits="userSpaceOnUse" x1="164.3201" y1="179.1921" x2="164.3201" y2="173.5335">
				<stop  offset="0" style="stop-color:#AC6363"/>
				<stop  offset="1" style="stop-color:#FFFFFF"/>
			</linearGradient>
			<circle fill="url(#SVGID_41_)" cx="164.3" cy="177.4" r="3.6"/>
			<circle fill="#FFFFFF" cx="164.3" cy="189.6" r="1.8"/>
			<linearGradient id="SVGID_42_" gradientUnits="userSpaceOnUse" x1="164.3202" y1="191.8271" x2="164.3202" y2="197.242">
				<stop  offset="0" style="stop-color:#AD4230"/>
				<stop  offset="0.9988" style="stop-color:#E5837E"/>
			</linearGradient>
			<path fill="url(#SVGID_42_)" d="M168.6,194c0,1.2-1.9,2.2-4.2,2.2c-2.3,0-4.2-1-4.2-2.2C160.1,192.8,168.6,192.8,168.6,194z"/>
		</g>
		<g>
			<path fill="#F4866F" d="M289.1,189.2c-3-6.7-7.1-13.6-13.8-16.5c-7.5-3.3-16.7-0.6-22.9,4.8c-6.2,5.4-10,12.9-12.6,20.7
				c0,0-0.1-23,14.4-37c14.4-14,36.1-5,39.3,17.6L289.1,189.2z"/>
			<path fill="#FFA893" d="M282.3,160c-0.3,1.6-3.6,1.1-7.7,0.2c-4-0.9-7.2-1.7-6.9-3.3c0.3-1.6,3.9-2.2,7.9-1.4
				C279.7,156.4,282.6,158.4,282.3,160z"/>
			<g>
				<path d="M239.8,198.2c0.6-2,1.4-3.9,2.2-5.8c2.4-5.7,5.7-10.9,10.4-14.9c6.2-5.4,15.4-8.2,22.9-4.8c6.7,3,10.8,9.8,13.8,16.5
					l4.4-9.2c0,0-3.7-11.5-20.6-13.9c0,0-20.3-2.7-30.5,22L239.8,198.2z"/>
			</g>
			<path d="M239.9,198.2c4.4-10.6,10.9-21.9,22.7-25.2c6-1.7,12.1-0.6,16.9,3.5c4.2,3.6,6.1,8.5,9.1,12.9c0.3,0.5,1.2,0.2,1-0.4
				c-3-11.5-13.9-20.9-26-18.3c-13.2,2.8-20.7,15.3-23.9,27.5C239.7,198.3,239.8,198.3,239.9,198.2L239.9,198.2z"/>
		</g>
		<g>
			<path fill="#F4866F" d="M136.8,189.2c3-6.7,7.1-13.6,13.8-16.5c7.5-3.3,16.7-0.6,22.9,4.8c6.2,5.4,10,12.9,12.6,20.7
				c0,0,0.1-23-14.4-37c-14.4-14-36.1-5-39.3,17.6L136.8,189.2z"/>
			<path fill="#FFA893" d="M143.6,160c0.3,1.6,3.6,1.1,7.7,0.2c4-0.9,7.2-1.7,6.9-3.3c-0.3-1.6-3.9-2.2-7.9-1.4
				C146.2,156.4,143.2,158.4,143.6,160z"/>
			<g>
				<path d="M186.1,198.2c-0.6-2-1.4-3.9-2.2-5.8c-2.4-5.7-5.7-10.9-10.4-14.9c-6.2-5.4-15.4-8.2-22.9-4.8
					c-6.7,3-10.8,9.8-13.8,16.5l-4.4-9.2c0,0,3.7-11.5,20.6-13.9c0,0,20.3-2.7,30.5,22L186.1,198.2z"/>
			</g>
			<path d="M186,198.2c-4.4-10.6-10.9-21.9-22.7-25.2c-6-1.7-12.1-0.6-16.9,3.5c-4.2,3.6-6.1,8.5-9.1,12.9c-0.3,0.5-1.2,0.2-1-0.4
				c3-11.5,13.9-20.9,26-18.3c13.2,2.8,20.7,15.3,23.9,27.5C186.2,198.3,186,198.3,186,198.2L186,198.2z"/>
		</g>
	</g>
	<g>
		<g>
			<g>
				
					<linearGradient id="SVGID_43_" gradientUnits="userSpaceOnUse" x1="354.1486" y1="70.6227" x2="391.6022" y2="96.3438" gradientTransform="matrix(-1 0 0 1 747.2109 0)">
					<stop  offset="0" style="stop-color:#9B4841"/>
					<stop  offset="1" style="stop-color:#923A2D"/>
				</linearGradient>
				<path fill="url(#SVGID_43_)" d="M316,64.8c12.3,1.4,22.3,10,27.1,19c4.7,9,1.7,26.4,2,36.6c0.6,18.2,4.7,31.1,19.2,42.1
					c5.1,3.9,11.2,6.4,17.4,8c8.4,2.2,17.4,2.8,25.6,0c8.2-2.8,15.4-9.5,17.2-17.9c-4.4,5.1-11.5,7.7-18.1,6.8
					c-6.7-0.9-12.7-5.4-15.6-11.5c-7.8-16.5,8.3-36.6,1.7-53.6c9.4,7.8,7.9,22.7,4.1,33.8c14.4-20.4,18.2-47.9,9.7-71.4
					c-8.4-23.5-28.8-42.3-52.9-48.9c8-2.2,16.9-1.2,24.2,2.7c-7.3-7.1-18.1-9.3-28.3-9.7C326.4-0.1,306,16.4,302.5,39L316,64.8z"/>
				
					<linearGradient id="SVGID_44_" gradientUnits="userSpaceOnUse" x1="360.0291" y1="81.0608" x2="392.3366" y2="103.2479" gradientTransform="matrix(-1 0 0 1 747.2109 0)">
					<stop  offset="0" style="stop-color:#87301F"/>
					<stop  offset="1" style="stop-color:#6D221B"/>
				</linearGradient>
				<path fill="url(#SVGID_44_)" d="M392.5,94.2c6.6,17-9.5,37.1-1.7,53.6c2.9,6.1,8.9,10.5,15.6,11.5c6.7,0.9,13.7-1.7,18.1-6.8
					c-1.8,8.5-9,15.1-17.2,17.9c-8.2,2.8-17.2,2.2-25.6,0c-6.2-1.6-12.3-4.1-17.4-8c-14.5-11.1-18.6-23.9-19.2-42.1
					c-0.3-10.2,2.7-27.6-2-36.6c-4.7-9-14.8-17.6-27.1-19L302.5,39c0.1-0.4,0.1-0.7,0.2-1.1c0.5-1.1,0.7-1.9,0.7-2.3
					c0-2,19.6-14.9,19.6-14.9s33.2-4.7,61.6,25.7c22.9,24.5,23,51.7,22.1,61.3c-2.4,7.2-5.7,14-10.1,20.1
					C400.4,116.9,402,102,392.5,94.2z"/>
				
					<linearGradient id="SVGID_45_" gradientUnits="userSpaceOnUse" x1="353.0605" y1="72.2069" x2="390.5141" y2="97.9281" gradientTransform="matrix(-1 0 0 1 747.2109 0)">
					<stop  offset="0" style="stop-color:#7C2314"/>
					<stop  offset="1" style="stop-color:#61170D"/>
				</linearGradient>
				<path fill="url(#SVGID_45_)" d="M351.9,43.8c0,0,35.2,19.6,42,51.4c0,0,0,0.1,0,0.2c7.3,7.4,6.5,19.8,3.6,30
					c1.8-2.5,13-19.4,1.1-44.4C385.7,53.9,351.9,43.8,351.9,43.8z M390.8,147.8c-3.3-7-2.3-14.7-0.5-22.5
					c-2.8-7.7-4.4-17.5-5.2-26.6c-1.4-14.9-14.9-31.1-14.9-31.1c8.1,14.9,9.5,23.7,12.9,54.1c2.4,21.4,8.1,28.8,11.3,31.3
					C392.9,151.4,391.7,149.6,390.8,147.8z M302.5,39L316,64.8c12.3,1.4,22.3,10,27.1,19c4.7,9,1.7,26.4,2,36.6
					c0.6,18.2,4.7,31.1,19.2,42.1c5.1,3.9,11.2,6.4,17.4,8c8.4,2.2,17.4,2.8,25.6,0c8-2.7,15.1-9.2,17-17.4l-0.1-0.2
					c0,0-7.4,16.2-30.5,6.1c-23-10.2-26.4-21-26.4-39.3s6.1-55.5-22.3-76.5c-5-3.7-9.9-5.8-14.5-6.7c22.2-5.1,46.3,10.1,46.3,10.1
					c-10.6-10.4-21.5-15.7-31.6-18c13.2-0.7,35.8,2.5,54.6,27.5c0,0-10.8-25-39.9-36.6c0,0-17.6-10.2-37.9-0.7
					c0,0,15.6-11.8,34.2-10.2c-0.9-0.3-1.9-0.6-2.8-0.8c3-0.8,6.1-1.2,9.3-1.2l0,0c0,0-37.8-9.1-58.4,25
					C303.5,34,302.9,36.5,302.5,39z"/>
				
					<radialGradient id="SVGID_46_" cx="704.8782" cy="490.2582" r="46.6885" gradientTransform="matrix(0.6769 0 0 0.6769 -108.76 -248.1026)" gradientUnits="userSpaceOnUse">
					<stop  offset="0" style="stop-color:#A65857"/>
					<stop  offset="1" style="stop-color:#984539"/>
				</radialGradient>
				<path fill="url(#SVGID_46_)" d="M346.3,81.9c0,0,2.7,20.8,2.3,35.2c-0.5,14.4-0.5,47.4,44.7,52.8c0,0-28-6.3-34.7-28.4
					C351.7,119.4,349.9,90.1,346.3,81.9z M324.6,63.4c9,3.2,17.1,12.2,17.1,12.2l3.6,4.1c-4.1-23.5-19.4-32-19.4-32l0.5,4.1
					c5,3.6,10.8,13.1,10.8,13.1c-3.2-4.1-12.2-8.6-12.2-8.6L324.6,63.4z M359.8,138.4c-1.8-11.3,0.9-42.4-2.7-56
					c-3.6-13.5-14.9-23.9-14.9-23.9c9.5,12.6,10.8,28,12.6,46S359.8,138.4,359.8,138.4z"/>
				
					<linearGradient id="SVGID_47_" gradientUnits="userSpaceOnUse" x1="354.1898" y1="70.5625" x2="391.6434" y2="96.2836" gradientTransform="matrix(-1 0 0 1 747.2109 0)">
					<stop  offset="0" style="stop-color:#651507"/>
					<stop  offset="1" style="stop-color:#4A0C03"/>
				</linearGradient>
				<path fill="url(#SVGID_47_)" d="M316,64.3c11.3,1.1,21.6,8,27.4,17.6c5.6,9.2,3.5,21.7,3,31.9c-0.5,11.2,0.4,23.4,5.9,33.5
					c6.4,11.8,18,19.4,30.8,22.5c15.3,3.7,36.7,0.4,41-17.6c0.2,0.1,0.5,0.3,0.7,0.4c-11.3,12.3-32.1,7.3-35.9-9.2
					C385,127,398,110.8,392,94.3c-0.2-0.5,0.5-0.8,0.8-0.5c10,8.7,7.6,23,4.2,34.3c-0.3-0.1-0.5-0.2-0.8-0.3
					C407.4,111,412,89.9,408.7,70c-3.1-18.4-13.1-34.9-27.5-46.6c-8.3-6.8-17.8-11.4-28-14.6c-0.9-0.3-1-1.7,0-1.9
					c8.5-1.9,17-1,24.8,3.1c-0.3,0.4-0.6,0.7-0.8,1.1c-12.1-11.2-33.2-12.2-47.8-5.7c-13.8,6.2-23.3,19.3-25.9,34
					c-0.2,1.4-2.3,0.8-2.1-0.6c2.6-15.9,13.5-28.9,28.3-35c14.9-6.2,36.1-5,48.4,6.3c0.6,0.6-0.2,1.4-0.8,1.1
					c-7.3-3.8-15.7-4.7-23.6-2.4c0-0.6,0-1.3,0-1.9c18.3,4.4,34.6,17,45,32.4c11.2,16.6,15.3,37,12,56.6c-2,11.7-6.7,22.7-13.7,32.3
					c-0.3,0.4-1,0.2-0.8-0.3c3.7-10.6,5.3-25.2-4.1-33.3c0.3-0.2,0.5-0.3,0.8-0.5c5,13.7-3,27.5-3.9,41.3
					c-0.5,8.3,2.5,16.5,9.9,20.9c8.3,4.9,18.7,3,25.1-4c0.3-0.3,0.8,0,0.7,0.4c-2.8,11.9-13.6,19.1-25.4,20.3
					c-13.7,1.4-28.6-3.4-39-12.3c-8.5-7.4-13.6-17.1-15.5-28.1c-2.1-12.2-0.1-24.1-0.6-36.3c-0.3-7.5-2.5-13.6-7.6-19.3
					c-5.5-6.1-12.8-10.3-21-11.6C315.4,65.1,315.5,64.3,316,64.3L316,64.3z"/>
				
					<linearGradient id="SVGID_48_" gradientUnits="userSpaceOnUse" x1="445.0234" y1="86.4805" x2="443.6697" y2="82.0809" gradientTransform="matrix(-1 0 0 1 747.2109 0)">
					<stop  offset="0" style="stop-color:#651507"/>
					<stop  offset="1" style="stop-color:#4A0C03"/>
				</linearGradient>
				<path fill="url(#SVGID_48_)" d="M323.7,67.2c0,0,3.7-8.1-2.4-20C315.2,35.4,302.7,34,302.7,34l0.7,7.1L319,64.5l2,2L323.7,67.2z
					"/>
				
					<linearGradient id="SVGID_49_" gradientUnits="userSpaceOnUse" x1="347.9285" y1="13.8097" x2="394.6326" y2="60.5139" gradientTransform="matrix(-1 0 0 1 747.2109 0)">
					<stop  offset="0" style="stop-color:#D18175"/>
					<stop  offset="1" style="stop-color:#A6524B"/>
				</linearGradient>
				<path fill="url(#SVGID_49_)" d="M352.1,10.7l-9.1,1.7c39.3,7.4,55.5,35.9,55.5,35.9C385.6,18.8,352.1,10.7,352.1,10.7z
					 M382.2,41.4c0,0,22.3,22.3,24.7,45.7c0,0,1.4-11.5-7.4-27.1C399.5,60.1,395.4,51.6,382.2,41.4z M357.9,3.9
					c-29.4-6.8-38.2,9.1-38.2,9.1C336.9,1.5,357.9,3.9,357.9,3.9z"/>
			</g>
			<g>
				<g>
					<path fill="#CB0043" d="M306.9,69.7c5.2,2.7,11.9-1.6,13.3-7.3c1.4-5.6-1.1-11.6-4.7-16.2c-3.8-4.9-8.9-9-15-10.1
						s-13,1.2-16,6.6L306.9,69.7z"/>
				</g>
				<g>
					<path fill="#FF0063" d="M304.2,61.1c3.8,2,8.8-1.2,9.9-5.4c1.1-4.2-0.8-8.6-3.5-12c-2.8-3.6-6.6-6.7-11.1-7.5
						c-4.5-0.8-9.6,0.9-11.9,4.9L304.2,61.1z"/>
				</g>
				
					<ellipse transform="matrix(-0.9301 -0.3672 0.3672 -0.9301 567.9429 191.4371)" fill="#FFA8C8" cx="302.2" cy="41.7" rx="5.8" ry="2.6"/>
				<g>
					
						<linearGradient id="SVGID_50_" gradientUnits="userSpaceOnUse" x1="447.617" y1="43.9687" x2="440.5098" y2="52.0911" gradientTransform="matrix(-1 0 0 1 747.2109 0)">
						<stop  offset="0" style="stop-color:#CB0043"/>
						<stop  offset="1" style="stop-color:#960035"/>
					</linearGradient>
					<path fill="url(#SVGID_50_)" d="M307,69.3c5.2,2.1,10.9-2.2,12.2-7.2c1.6-6.2-2.1-12.6-6.1-17.1c-7.1-8.1-21.1-12.8-28.4-2.2
						c-0.2,0.3-0.6,0-0.5-0.3c3-5.4,9.3-8,15.3-7.5c6.8,0.6,12.8,5.2,16.9,10.5c4.1,5.3,7.3,13.3,3.6,19.7
						c-2.7,4.7-8.4,7.2-13.4,4.6C306.4,69.8,306.6,69.2,307,69.3L307,69.3z"/>
				</g>
			</g>
		</g>
		<g>
			<g>
				<linearGradient id="SVGID_51_" gradientUnits="userSpaceOnUse" x1="31.8439" y1="70.6227" x2="69.2974" y2="96.3438">
					<stop  offset="0" style="stop-color:#9B4841"/>
					<stop  offset="1" style="stop-color:#923A2D"/>
				</linearGradient>
				<path fill="url(#SVGID_51_)" d="M108.9,64.8c-12.3,1.4-22.3,10-27.1,19c-4.7,9-1.7,26.4-2,36.6c-0.6,18.2-4.7,31.1-19.2,42.1
					c-5.1,3.9-11.2,6.4-17.4,8c-8.4,2.2-17.4,2.8-25.6,0c-8.2-2.8-15.4-9.5-17.2-17.9c4.4,5.1,11.5,7.7,18.1,6.8
					c6.7-0.9,12.7-5.4,15.6-11.5c7.8-16.5-8.3-36.6-1.7-53.6c-9.4,7.8-7.9,22.7-4.1,33.8c-14.4-20.4-18.2-47.9-9.7-71.4
					C27,33.1,47.4,14.3,71.5,7.7c-8-2.2-16.9-1.2-24.2,2.7c7.3-7.1,18.1-9.3,28.3-9.7c22.9-0.9,43.3,15.6,46.9,38.2L108.9,64.8z"/>
				<linearGradient id="SVGID_52_" gradientUnits="userSpaceOnUse" x1="37.7243" y1="81.0608" x2="70.0319" y2="103.2479">
					<stop  offset="0" style="stop-color:#87301F"/>
					<stop  offset="1" style="stop-color:#6D221B"/>
				</linearGradient>
				<path fill="url(#SVGID_52_)" d="M32.4,94.2c-6.6,17,9.5,37.1,1.7,53.6c-2.9,6.1-8.9,10.5-15.6,11.5c-6.7,0.9-13.7-1.7-18.1-6.8
					c1.8,8.5,9,15.1,17.2,17.9c8.2,2.8,17.2,2.2,25.6,0c6.2-1.6,12.3-4.1,17.4-8c14.5-11.1,18.6-23.9,19.2-42.1
					c0.3-10.2-2.7-27.6,2-36.6c4.7-9,14.8-17.6,27.1-19L122.5,39c-0.1-0.4-0.1-0.7-0.2-1.1c-0.5-1.1-0.7-1.9-0.7-2.3
					c0-2-19.6-14.9-19.6-14.9s-33.2-4.7-61.6,25.7c-22.9,24.5-23,51.7-22.1,61.3c2.4,7.2,5.7,14,10.1,20.1
					C24.5,116.9,23,102,32.4,94.2z"/>
				<linearGradient id="SVGID_53_" gradientUnits="userSpaceOnUse" x1="30.7558" y1="72.2069" x2="68.2093" y2="97.928">
					<stop  offset="0" style="stop-color:#7C2314"/>
					<stop  offset="1" style="stop-color:#61170D"/>
				</linearGradient>
				<path fill="url(#SVGID_53_)" d="M26.3,81c-11.9,25-0.7,41.9,1.1,44.4c-2.9-10.2-3.7-22.5,3.6-30c0-0.1,0-0.2,0-0.2
					c6.8-31.8,42-51.4,42-51.4S39.2,53.9,26.3,81z M30.6,152.9c3.2-2.5,8.9-9.8,11.3-31.3c3.4-30.5,4.7-39.3,12.9-54.1
					c0,0-13.5,16.2-14.9,31.1c-0.8,9.1-2.4,18.9-5.2,26.6c1.8,7.8,2.8,15.5-0.5,22.5C33.2,149.6,32,151.4,30.6,152.9z M120.6,31.6
					C100-2.6,62.2,6.6,62.2,6.6l0,0c3.1-0.1,6.3,0.3,9.3,1.2c-0.9,0.3-1.9,0.5-2.8,0.8c18.6-1.7,34.2,10.2,34.2,10.2
					c-20.3-9.5-37.9,0.7-37.9,0.7C35.8,30.9,25,56,25,56c18.8-25,41.4-28.2,54.6-27.5c-10.1,2.3-21,7.6-31.6,18
					c0,0,24.1-15.2,46.3-10.1c-4.6,0.9-9.5,3-14.5,6.7c-28.4,21-22.3,58.2-22.3,76.5s-3.4,29.1-26.4,39.3
					c-23,10.2-30.5-6.1-30.5-6.1l-0.1,0.2c2,8.2,9,14.7,17,17.4c8.2,2.8,17.2,2.2,25.6,0c6.2-1.6,12.3-4.1,17.4-8
					c14.5-11.1,18.6-23.9,19.2-42.1c0.3-10.2-2.7-27.6,2-36.6c4.7-9,14.8-17.6,27.1-19L122.5,39C122,36.5,121.4,34,120.6,31.6z"/>
				
					<radialGradient id="SVGID_54_" cx="272.1915" cy="490.2582" r="46.6885" gradientTransform="matrix(0.6769 0 0 0.6769 -108.76 -248.1026)" gradientUnits="userSpaceOnUse">
					<stop  offset="0" style="stop-color:#A65857"/>
					<stop  offset="1" style="stop-color:#984539"/>
				</radialGradient>
				<path fill="url(#SVGID_54_)" d="M66.5,141.5c-6.8,22.1-34.7,28.4-34.7,28.4c45.1-5.4,45.1-38.4,44.7-52.8
					c-0.5-14.4,2.3-35.2,2.3-35.2C75,90.1,73.2,119.4,66.5,141.5z M99.9,56.2c0,0-9,4.5-12.2,8.6c0,0,5.9-9.5,10.8-13.1l0.5-4.1
					c0,0-15.3,8.6-19.4,32l3.6-4.1c0,0,8.1-9,17.1-12.2L99.9,56.2z M70.1,104.5c1.8-18,3.2-33.4,12.6-46c0,0-11.3,10.4-14.9,23.9
					s-0.9,44.7-2.7,56C65.1,138.4,68.3,122.6,70.1,104.5z"/>
				<linearGradient id="SVGID_55_" gradientUnits="userSpaceOnUse" x1="31.8851" y1="70.5625" x2="69.3386" y2="96.2836">
					<stop  offset="0" style="stop-color:#651507"/>
					<stop  offset="1" style="stop-color:#4A0C03"/>
				</linearGradient>
				<path fill="url(#SVGID_55_)" d="M108.9,64.3c-11.3,1.1-21.6,8-27.4,17.6c-5.6,9.2-3.5,21.7-3,31.9c0.5,11.2-0.4,23.4-5.9,33.5
					c-6.4,11.8-18,19.4-30.8,22.5c-15.3,3.7-36.7,0.4-41-17.6c-0.2,0.1-0.5,0.3-0.7,0.4c11.3,12.3,32.1,7.3,35.9-9.2
					c3.9-16.6-9.2-32.8-3.2-49.2c0.2-0.5-0.5-0.8-0.8-0.5c-10,8.7-7.6,23-4.2,34.3c0.3-0.1,0.5-0.2,0.8-0.3
					C17.5,111,12.9,89.9,16.2,70c3.1-18.4,13.1-34.9,27.5-46.6c8.3-6.8,17.8-11.4,28-14.6c0.9-0.3,1-1.7,0-1.9
					c-8.5-1.9-17-1-24.8,3.1c0.3,0.4,0.6,0.7,0.8,1.1C59.8-0.2,81-1.2,95.5,5.3c13.8,6.2,23.3,19.3,25.9,34c0.2,1.4,2.3,0.8,2.1-0.6
					c-2.6-15.9-13.5-28.9-28.3-35c-14.9-6.2-36.1-5-48.4,6.3c-0.6,0.6,0.2,1.4,0.8,1.1c7.3-3.8,15.7-4.7,23.6-2.4c0-0.6,0-1.3,0-1.9
					c-18.3,4.4-34.6,17-45,32.4c-11.2,16.6-15.3,37-12,56.6c2,11.7,6.7,22.7,13.7,32.3c0.3,0.4,1,0.2,0.8-0.3
					c-3.7-10.6-5.3-25.2,4.1-33.3c-0.3-0.2-0.5-0.3-0.8-0.5c-5,13.7,3,27.5,3.9,41.3c0.5,8.3-2.5,16.5-9.9,20.9
					c-8.3,4.9-18.7,3-25.1-4c-0.3-0.3-0.8,0-0.7,0.4c2.8,11.9,13.6,19.1,25.4,20.3c13.7,1.4,28.6-3.4,39-12.3
					c8.5-7.4,13.6-17.1,15.5-28.1c2.1-12.2,0.1-24.1,0.6-36.3c0.3-7.5,2.5-13.6,7.6-19.3c5.5-6.1,12.8-10.3,21-11.6
					C109.5,65.1,109.4,64.3,108.9,64.3L108.9,64.3z"/>
				<linearGradient id="SVGID_56_" gradientUnits="userSpaceOnUse" x1="122.7186" y1="86.4805" x2="121.3649" y2="82.0809">
					<stop  offset="0" style="stop-color:#651507"/>
					<stop  offset="1" style="stop-color:#4A0C03"/>
				</linearGradient>
				<path fill="url(#SVGID_56_)" d="M101.2,67.2c0,0-3.7-8.1,2.4-20c6.1-11.8,18.6-13.2,18.6-13.2l-0.7,7.1l-15.6,23.4l-2,2
					L101.2,67.2z"/>
				<linearGradient id="SVGID_57_" gradientUnits="userSpaceOnUse" x1="25.6238" y1="13.8097" x2="72.3279" y2="60.5139">
					<stop  offset="0" style="stop-color:#D18175"/>
					<stop  offset="1" style="stop-color:#A6524B"/>
				</linearGradient>
				<path fill="url(#SVGID_57_)" d="M26.4,48.2c0,0,16.2-28.4,55.5-35.9l-9.1-1.7C72.8,10.7,39.3,18.8,26.4,48.2z M25.4,60.1
					C16.6,75.6,18,87.1,18,87.1c2.4-23.4,24.7-45.7,24.7-45.7C29.5,51.6,25.4,60.1,25.4,60.1z M105.3,13c0,0-8.8-15.9-38.2-9.1
					C67,3.9,88,1.5,105.3,13z"/>
			</g>
			<g>
				<g>
					<path fill="#CB0043" d="M118,69.7c-5.2,2.7-11.9-1.6-13.3-7.3c-1.4-5.6,1.1-11.6,4.7-16.2c3.8-4.9,8.9-9,15-10.1s13,1.2,16,6.6
						L118,69.7z"/>
				</g>
				<g>
					<path fill="#FF0063" d="M120.7,61.1c-3.8,2-8.8-1.2-9.9-5.4c-1.1-4.2,0.8-8.6,3.5-12c2.8-3.6,6.6-6.7,11.1-7.5
						c4.5-0.8,9.6,0.9,11.9,4.9L120.7,61.1z"/>
				</g>
				
					<ellipse transform="matrix(0.9301 -0.3672 0.3672 0.9301 -6.7366 47.9778)" fill="#FFA8C8" cx="122.7" cy="41.7" rx="5.8" ry="2.6"/>
				<g>
					<linearGradient id="SVGID_58_" gradientUnits="userSpaceOnUse" x1="125.3122" y1="43.9687" x2="118.2051" y2="52.0911">
						<stop  offset="0" style="stop-color:#CB0043"/>
						<stop  offset="1" style="stop-color:#960035"/>
					</linearGradient>
					<path fill="url(#SVGID_58_)" d="M117.9,69.3c-5.2,2.1-10.9-2.2-12.2-7.2c-1.6-6.2,2.1-12.6,6.1-17.1
						c7.1-8.1,21.1-12.8,28.4-2.2c0.2,0.3,0.6,0,0.5-0.3c-3-5.4-9.3-8-15.3-7.5c-6.8,0.6-12.8,5.2-16.9,10.5
						c-4.1,5.3-7.3,13.3-3.6,19.7c2.7,4.7,8.4,7.2,13.4,4.6C118.5,69.8,118.3,69.2,117.9,69.3L117.9,69.3z"/>
				</g>
			</g>
		</g>
		<g>
			
				<radialGradient id="SVGID_59_" cx="470.2602" cy="429.3714" r="132.5321" gradientTransform="matrix(0.6769 0 0 0.6769 -108.76 -248.1026)" gradientUnits="userSpaceOnUse">
				<stop  offset="0" style="stop-color:#9B4841"/>
				<stop  offset="1" style="stop-color:#923A2D"/>
			</radialGradient>
			<path fill="url(#SVGID_59_)" d="M304.5,57.3c-16.2-22.2-44.7-45.9-73.4-46.9c-5.8-0.2-11.6,0.6-17.1,2.6c0,0-1.1,0.1-2.5,0.3
				l0-0.3c-5.5-2-11.3-2.8-17.1-2.6C165.8,11.4,137.3,35,121,57.3c-17.4,23.8-25.3,53.1-23.7,82.5c0.2,3.2,2.9,37.1,5.5,36.9
				c5.1-0.4,9.8,4.5,9.2,9.6l0.3-0.1c-0.8,3.6-1.8,7.1-2.7,10.7c-3.5,13.6-5.4,27.9-2.9,41.7c2.5,13.8,9.9,27.2,21.9,34.6l0.2-0.1
				c-9.8-9.4-16.2-22.2-17.9-35.6c-1.7-13.4,1.4-27.4,8.5-38.9c1-1.6,2-3.1,2.5-4.9c0.6-2,0.4-4.1,0.2-6.1
				c-1-11.3-1.9-23.2,2.5-33.6c-1.9,1.6-3.8,3.2-5.8,4.8c5.2-13.9,13-26.7,23-37.7c7.4-3.1,15-5.6,22.5-8.6
				c4.8-1.9,10.3-6.1,14.1-9.7l1.8,0.7c-6.1,12.5-8,27-5.3,40.7c1.3-12.3,7.5-23.6,14.9-33.5c7.3-9.8,15.8-18.7,22.8-28.8
				c0.1,0.1,0.3,0.3,0.4,0.4c6.9,9.9,15.3,18.7,22.5,28.4c7.4,9.9,13.6,21.2,14.9,33.5c2.6-13.7,0.7-28.2-5.3-40.7l-0.4-0.3
				c1.1-0.3,2.2-0.4,2.2-0.4c3.8,3.6,9.3,7.8,14.1,9.7c7.5,2.9,15.1,5.4,22.5,8.6c10,10.9,17.8,23.8,23,37.7
				c-1.9-1.6-3.8-3.2-5.8-4.8c4.5,10.4,3.5,22.3,2.5,33.6c-0.2,2.1-0.3,4.2,0.2,6.1c0.5,1.8,1.6,3.3,2.5,4.9
				c7.1,11.5,10.2,25.5,8.5,38.9c-1.7,13.4-8.1,26.2-17.9,35.6l0.2,0.1c11.9-7.4,19.3-20.7,21.9-34.6c2.5-13.8,0.6-28.1-2.9-41.7
				c-1-3.8-2.1-7.6-2.9-11.4c0.3,0.5,0.5,0.8,0.5,0.8c-0.6-5,4.2-10,9.2-9.6c2.6,0.2,5.4-33.6,5.5-36.9
				C329.8,110.4,321.9,81.1,304.5,57.3z M283.9,121.1c0.2,0.2,0.4,0.4,0.7,0.7l-1-0.8C283.7,121,283.8,121.1,283.9,121.1z"/>
			
				<radialGradient id="SVGID_60_" cx="470.2603" cy="429.3715" r="132.5326" gradientTransform="matrix(0.6769 0 0 0.6769 -108.76 -248.1026)" gradientUnits="userSpaceOnUse">
				<stop  offset="0" style="stop-color:#B5625B"/>
				<stop  offset="1" style="stop-color:#984539"/>
			</radialGradient>
			<path fill="url(#SVGID_60_)" d="M136.4,112.2c8.8-6.1,21.7-8.8,31.1-14.9C177,91.2,185.8,77,185.8,77
				C156.7,91.2,136.4,112.2,136.4,112.2z M205.4,33.7c0.7-5.4-2-20.3-19.6-17.6C168.2,18.8,156,33.7,156,33.7s21-9.5,13.5,2.7
				c-7.4,12.2,2.7,25-1.4,31.1c-4.1,6.1-23.7,19-23.7,19l10.8-1.4c-17.6,11.5-25.7,27.8-25.7,27.8c12.2-16.9,45.4-33.2,55.5-41.3
				C195.3,63.4,204.8,39.1,205.4,33.7z M202.1,59.4C198,69.5,186.5,100,186.5,100c26.4-27.1,23.7-61.6,23.7-61.6
				S206.1,49.2,202.1,59.4z M239.4,77c0,0,8.8,14.2,18.3,20.3c9.5,6.1,22.3,8.8,31.1,14.9C288.8,112.2,268.5,91.2,239.4,77z
				 M269.8,85.1l10.8,1.4c0,0-19.6-12.9-23.7-19c-4.1-6.1,6.1-19-1.4-31.1c-7.4-12.2,13.5-2.7,13.5-2.7S257,18.8,239.4,16.1
				c-17.6-2.7-20.3,12.2-19.6,17.6c0.7,5.4,10.2,29.8,20.3,37.9c10.2,8.1,43.3,24.4,55.5,41.3C295.5,112.9,287.4,96.6,269.8,85.1z
				 M215,38.4c0,0-2.7,34.5,23.7,61.6c0,0-11.5-30.5-15.6-40.6C219.1,49.2,215,38.4,215,38.4z"/>
			
				<radialGradient id="SVGID_61_" cx="470.2604" cy="429.3714" r="132.5321" gradientTransform="matrix(0.6769 0 0 0.6769 -108.76 -248.1026)" gradientUnits="userSpaceOnUse">
				<stop  offset="0" style="stop-color:#D18175"/>
				<stop  offset="1" style="stop-color:#A6524B"/>
			</radialGradient>
			<path fill="url(#SVGID_61_)" d="M148.1,102.7c0,0,18.1-13.1,25.7-15.8c0,0-2.9,6.1-7.4,11c0.3-0.2,0.7-0.4,1-0.6
				C177,91.2,185.8,77,185.8,77c-24.2,11.8-42.3,28.3-47.7,33.5L148.1,102.7z M185.8,16.1c-9.1,1.4-16.7,6.1-22,10.2
				c7.8-4.2,20.8-9,27.2-7.5c7.7,1.8,9.9,14.9,5.9,26.6c-4.1,11.7-12.2,23.9-19.9,29.3c-4,2.8-11.7,8.7-18.1,13.7
				c10.8-7,21.3-12.9,26.2-16.8c10.2-8.1,19.6-32.5,20.3-37.9C206.1,28.2,203.4,13.4,185.8,16.1z M223.1,59.4
				c-4.1-10.2-8.1-21-8.1-21s-1.9,24.5,13.3,48.5c-4-10.3-8.8-27.9-8.8-27.9l12.3,22.7C228.5,73.2,225,64.1,223.1,59.4z M264.5,87.3
				c-6.1-4.7-13-10-16.7-12.6c-7.7-5.4-15.8-17.6-19.9-29.3c-4.1-11.7-1.8-24.8,5.9-26.6c6.7-1.6,20.5,3.7,28.2,8.1
				c-5.3-4.3-13.2-9.3-22.7-10.8c-17.6-2.7-20.3,12.2-19.6,17.6c0.7,5.4,10.2,29.8,20.3,37.9C244.7,75.3,254.3,80.8,264.5,87.3z
				 M202.1,59.4c-1.7,4.4-4.9,12.5-7.9,20.4l11.3-20.8c0,0-5.2,19-9.3,29.1c16-24.3,14-49.6,14-49.6S206.1,49.2,202.1,59.4z
				 M288.3,111.7c-3.3-3.3-22.5-21.8-48.9-34.7c0,0,8.8,14.2,18.3,20.3c0.1,0.1,0.3,0.2,0.4,0.2c-4.2-4.8-7-10.6-7-10.6
				c7.7,2.7,25.7,15.8,25.7,15.8L288.3,111.7z"/>
			<path fill="#88281A" d="M212.2,27.6c0,0,5.1-13.9,28.5-16.1c-3.2-0.7-6.4-1.1-9.6-1.2c-5.8-0.2-11.6,0.6-17.1,2.6
				c0,0-1.1,0.1-2.5,0.3l0-0.3c-5.5-2-11.3-2.8-17.1-2.6c-4.7,0.2-9.4,1-14,2.2l0,0.1C180.4,12.7,209.5,10.7,212.2,27.6z
				 M276.5,111.5c-32.5-14.2-39.3-27.1-46.7-42.6c0,0,14.2,37.2,19,44.7c0.2,0.3,0.4,0.6,0.6,0.9c-1-3.8-2.4-7.5-4.1-11l-0.4-0.3
				c1.1-0.3,2.2-0.4,2.2-0.4c3.8,3.6,9.3,7.8,14.1,9.7c7.5,2.9,15.1,5.4,22.5,8.6c7.8,8.6,14.4,18.4,19.3,28.9l7.6-8.6
				C310.4,141.3,309,125.7,276.5,111.5z M212.9,51.3L212.9,51.3L212.9,51.3c-4.7,31.1-18.3,44.7-29.1,60.2
				c-9,12.9-9.1,27.3-8.9,31.8c0,0.3,0.1,0.5,0.1,0.8c1.3-12.3,7.5-23.6,14.9-33.5c7.3-9.8,15.8-18.7,22.8-28.8
				c0.1,0.1,0.3,0.3,0.4,0.4c6.9,9.9,15.3,18.7,22.5,28.4c6.9,9.4,12.9,19.9,14.6,31.4c0.1-5.6-0.7-18.6-8.9-30.4
				C230.5,95.9,217.6,82.4,212.9,51.3z M180.4,103.4c-1.5,3.1-2.8,6.4-3.8,9.7c5-8.3,18.7-44.2,18.7-44.2
				c-7.4,15.6-14.2,28.4-46.7,42.6s-33.8,29.8-33.8,29.8l7.9,8.9c5-10.7,11.5-20.6,19.4-29.3c7.4-3.1,15-5.6,22.5-8.6
				c4.8-1.9,10.3-6.1,14.1-9.7L180.4,103.4z"/>
			<linearGradient id="SVGID_62_" gradientUnits="userSpaceOnUse" x1="212.7842" y1="115.5661" x2="212.7842" y2="181.226">
				<stop  offset="0" style="stop-color:#7C2314"/>
				<stop  offset="1" style="stop-color:#61170D"/>
			</linearGradient>
			<path fill="url(#SVGID_62_)" d="M121,57.3c-17.4,23.8-25.3,53.1-23.7,82.5c0.2,3.2,2.9,37.1,5.5,36.9c5.1-0.4,9.8,4.5,9.2,9.6
				l0.3-0.1c-0.8,3.6-1.8,7.1-2.7,10.7c-3.5,13.6-5.4,27.9-2.9,41.7c2.5,13.8,9.9,27.2,21.9,34.6l0.2-0.1
				c-9.8-9.4-16.2-22.2-17.9-35.6c-1.7-13.4,1.4-27.4,8.5-38.9c1-1.6,2-3.1,2.5-4.9c0.6-2,0.4-4.1,0.2-6.1
				c-1-11.3-1.9-23.2,2.5-33.6c-1.9,1.6-3.8,3.2-5.8,4.8c5-13.5,12.6-26,22.1-36.7l-0.1-0.2c0,0-18.3,6.8-27.8,21
				c0,0,1.4-25.7,25.7-49.4c0,0-12.2,6.1-17.6,12.2c0,0,12.2-29.1,15.6-39.9c3.1-10.1,4-28.8,24.6-45
				C145.4,29.6,130.9,43.7,121,57.3z M304.5,57.3c-9.9-13.6-24.4-27.7-40.7-36.8c20.7,16.2,21.5,35,24.7,45.1
				c3.4,10.8,15.6,39.9,15.6,39.9c-5.4-6.1-17.6-12.2-17.6-12.2c24.4,23.7,25.7,49.4,25.7,49.4c-9.1-13.6-26.1-20.4-27.6-20.9
				c0,0,0,0,0.1,0.1l-0.1-0.1c-0.1,0-0.1,0-0.1,0l-0.1,0.2c9.6,10.7,17.1,23.3,22.1,36.7c-1.9-1.6-3.8-3.2-5.8-4.8
				c4.5,10.4,3.5,22.3,2.5,33.6c-0.2,2.1-0.3,4.2,0.2,6.1c0.5,1.8,1.6,3.3,2.5,4.9c7.1,11.5,10.2,25.5,8.5,38.9
				c-1.7,13.4-8.1,26.2-17.9,35.6l0.2,0.1c11.9-7.4,19.3-20.7,21.9-34.6c2.5-13.8,0.6-28.1-2.9-41.7c-1-3.8-2.1-7.6-2.9-11.4
				c0.3,0.5,0.5,0.8,0.5,0.8c-0.6-5,4.2-10,9.2-9.6c2.6,0.2,5.4-33.6,5.5-36.9C329.8,110.4,321.9,81.1,304.5,57.3z"/>
			<linearGradient id="SVGID_63_" gradientUnits="userSpaceOnUse" x1="214.1415" y1="56.6785" x2="214.1415" y2="139.2679">
				<stop  offset="0" style="stop-color:#651507"/>
				<stop  offset="1" style="stop-color:#4A0C03"/>
			</linearGradient>
			<path fill="url(#SVGID_63_)" d="M198.8,99.4c4.8-5.8,9.6-11.5,13.9-17.6c0.1,0.1,0.3,0.3,0.4,0.4c5,7.1,10.8,13.7,16.3,20.5
				c-11.4-15.9-16.3-35.6-16.3-35.6C211.6,79.4,202.1,94.6,198.8,99.4z"/>
			<linearGradient id="SVGID_64_" gradientUnits="userSpaceOnUse" x1="117.8356" y1="63.8593" x2="117.8356" y2="131.8814">
				<stop  offset="0" style="stop-color:#A65857"/>
				<stop  offset="1" style="stop-color:#984539"/>
			</linearGradient>
			<path fill="url(#SVGID_64_)" d="M112,179.9l-2-8.1l-4.1-10.2c0,0-13.5-68.4,30.5-115.1c0,0-52.8,38.6-32.5,127.3
				C103.9,173.8,109.3,175.1,112,179.9z M117.1,166.3c0,0-1.4,15.9-4.1,23c-2.7,7.1-11.8,34.5-5.1,55.5l2.7,4.7c0,0-6.4-16.9-1-36.2
				C112.8,202.3,116.4,188.7,117.1,166.3z"/>
			
				<linearGradient id="SVGID_65_" gradientUnits="userSpaceOnUse" x1="1285.5785" y1="63.8593" x2="1285.5785" y2="131.8814" gradientTransform="matrix(-1 0 0 1 1593.615 0)">
				<stop  offset="0" style="stop-color:#A65857"/>
				<stop  offset="1" style="stop-color:#984539"/>
			</linearGradient>
			<path fill="url(#SVGID_65_)" d="M322,173.8c20.3-88.7-32.5-127.3-32.5-127.3c44,46.7,30.5,115.1,30.5,115.1l-4.1,10.2l-2,8.1
				C316.5,175.1,322,173.8,322,173.8z M316.2,213.4c5.4,19.3-1,36.2-1,36.2l2.7-4.7c6.8-21-2.4-48.4-5.1-55.5
				c-2.7-7.1-4.1-23-4.1-23C309.4,188.7,313.1,202.3,316.2,213.4z"/>
			<linearGradient id="SVGID_66_" gradientUnits="userSpaceOnUse" x1="212.8234" y1="108.7644" x2="212.8234" y2="177.4076">
				<stop  offset="0" style="stop-color:#651507"/>
				<stop  offset="1" style="stop-color:#4A0C03"/>
			</linearGradient>
			<path fill="url(#SVGID_66_)" d="M178.5,102.6c-5.5,4.7-10.9,8.1-17.7,10.5c-6.6,2.4-13.3,4.6-19.8,7.4
				c-10.1,4.3-19.8,10.1-26.4,19c1.1-8.1,3.7-16.1,7.5-23.4c4.3-8.3,10.2-15,16.8-21.6c0.4-0.4-0.1-1-0.6-0.7
				c-15.1,11.4-24,30.8-25.9,49.2c-0.1,1,1.3,1.2,1.7,0.5c6.2-9.7,15.8-16,26-20.8c-9.5,10.4-17.1,22.2-21.5,35.8
				c-0.2,0.5,0.5,0.8,0.8,0.5c1.1-1.1,2.3-2.7,3.7-3.4c0.2-0.6,0.6-0.9,1-0.8c-0.3,0.7-0.5,1.5-0.8,2.2c-0.8,2.6-1.3,5.3-1.7,7.9
				c-0.7,5.5-0.5,11-0.1,16.5c0.2,3,1.1,6.6,0.6,9.6c-0.4,2.7-2.7,5.5-4,7.9c-2.6,5-4.8,10.3-6.2,15.8c-5,19.7,0.3,41.2,14.2,56
				c-12.6-10-19-25.2-19.9-41.2c-0.5-9.7,0.8-19.5,3.1-29c2.1-8.9,6.2-17.3,5.2-26.6c-0.1-1-1.5-1-1.6,0c-0.2,2.8-0.5,5.6-1,8.4
				c-0.4-1.4-1.2-2.7-2.4-3.8c-1-0.9-2.1-1.7-3.4-2.2c-0.9-0.3-2.7-0.3-3.3-0.8c-0.9-0.9-0.9-3.9-1.1-5c-0.4-2.7-0.8-5.3-1.2-8
				c-1.3-10.6-2.7-21.4-2.6-32.1c0.4-39.9,19.4-76.9,51.1-100.9c8.4-6.4,17.7-11.8,27.8-15.1c11.4-3.8,22.6-4.1,34.2-0.9
				c0.8,0.2,1.1-0.9,0.3-1.2c-17.7-7.3-38.5,0.1-53.9,9.5c-15.9,9.8-29.7,23.4-40.1,38.8c-11,16.4-18,35.3-20.5,54.9
				c-1.7,13.3-1,26.5,0.4,39.7c0.6,6,1.1,12.4,2.8,18.2c0.3,1.1,0.7,3,1.8,3.6c1,0.6,2.3,0.2,3.4,0.4c3.3,0.8,5.5,3.6,6.2,6.8
				c-1.3,7-3.1,14-4.4,21c-1.8,9.6-2.6,19.6-1.4,29.3c1.9,15.1,9.3,30.6,22.8,38.5c0,0,0,0,0,0c0.4,0.4,1-0.2,0.6-0.6
				c-15.4-15.4-21.9-37.6-15.9-58.7c1.5-5.3,3.9-10.5,7-15c0.9-1.3,2.1-2.7,2.4-4.3c0.5-2.6,0-5.8-0.2-8.4
				c-0.9-10.9-1.7-22,2.6-32.3c0.1-0.3-0.3-0.4-0.5-0.3c-1.4,1.2-2.9,2.4-4.4,3.5c5.5-12.5,12.3-24.5,21-35c1.6-0.7,3.3-1.4,5-2.1
				c6.1-2.5,12.5-4.5,18.5-7.2c5.2-2.3,9.9-6,13.9-10.1C178.8,102.7,178.6,102.5,178.5,102.6z M244.5,103.6
				c3.7,9.2,6.4,18.7,6.6,28.7c0.1,2.4,0,4.8-0.3,7.1c0,0.4-0.2,1.3-0.3,2.1c-0.1-4.4-2.5-9.6-4.1-13.5c-7.6-18-22-30.9-33.4-46.3
				c0-0.1,0.1-0.1,0.1-0.2c0.1-0.2-0.1-0.3-0.3-0.1c0,0,0,0.1-0.1,0.1c0,0,0-0.1-0.1-0.1c-0.1-0.2-0.4,0-0.3,0.1
				c0,0.1,0.1,0.1,0.1,0.2c-11.4,15.4-25.8,28.2-33.4,46.3c-1.8,4.3-3.3,8.7-4.1,13.2c-0.1,0.3-0.1,1.1-0.1,1.5
				c0-0.6-0.1-1.9-0.2-2.7c-0.3-2.4-0.4-4.8-0.4-7.1c0.1-10.2,2.8-19.9,6.6-29.3c0.3-0.8-0.9-1.3-1.3-0.6c-6.6,12.3-8.2,27.6-5,41.2
				c0.1,0.4,0.6,0.2,0.6-0.1c1.4-12.9,8-24,15.8-34.1c7.3-9.4,15-18.2,21.6-28.1c6.6,9.9,14.3,18.7,21.6,28.1
				c7.8,10.1,14.4,21.1,15.8,34.1c0,0.3,0.5,0.4,0.6,0.1c3.1-13.5,1.6-28.9-5-41.2C245.4,102.3,244.2,102.8,244.5,103.6z
				 M329.2,123.5c-2.7-39-23.2-74.7-54.9-97.4C257.8,14.4,234.1,4,213.9,12.3c-0.7,0.3-0.5,1.4,0.3,1.2c10.1-2.8,20-3.1,30.1-0.3
				c9.3,2.5,17.9,6.8,25.9,12.1c15.8,10.5,29.5,24.8,39.3,41.1c10.3,17.1,16.2,36.7,17.5,56.6c0.8,11.8-0.4,23.4-1.7,35.1
				c-0.6,5.4-1,11.1-2.5,16.4c-0.4,1.3-0.2,1-1.2,1.4c-1.7,0.6-3.1,0.7-4.6,1.9c-1.7,1.3-2.9,2.9-3.5,4.7c-0.4-2.8-0.8-5.6-1-8.4
				c-0.1-1-1.5-1-1.6,0c-1,9.3,3.1,17.8,5.2,26.6c2.2,9.5,3.6,19.2,3.1,29c-0.9,16-7.4,31.3-19.9,41.2c13.8-14.9,19.2-36.3,14.2-56
				c-1.4-5.3-3.4-10.4-5.9-15.2c-1.3-2.5-3.8-5.6-4.2-8.4c-0.4-2.8,0.4-6.2,0.6-9c0.4-5.7,0.6-11.4-0.1-17.1c-0.3-2.7-0.9-5.4-1.7-8
				c-0.2-0.7-0.5-1.5-0.8-2.2c0.4-0.1,0.8,0.2,1,0.8c1.4,0.7,2.6,2.3,3.7,3.4c0.3,0.3,1,0,0.8-0.5c-4.4-13.5-12-25.3-21.5-35.8
				c10.3,4.7,19.9,11.1,26,20.8c0.5,0.7,1.8,0.5,1.7-0.5c-1.9-18.5-10.8-37.8-25.9-49.2c-0.4-0.3-0.9,0.4-0.6,0.7
				c6.6,6.5,12.5,13.2,16.8,21.6c3.8,7.3,6.3,15.2,7.5,23.4c-6.6-8.8-16.3-14.7-26.4-19c-6.3-2.7-12.8-4.8-19.2-7.2
				c-7-2.5-12.6-5.9-18.3-10.7c-0.1-0.1-0.3,0.1-0.2,0.2c3.8,3.9,8.4,7.6,13.4,9.9c6.2,2.8,12.7,4.9,19,7.4c1.7,0.7,3.3,1.4,5,2.1
				c8.7,10.5,15.6,22.5,21,35c-1.5-1.1-2.9-2.3-4.4-3.5c-0.2-0.2-0.6,0-0.5,0.3c4.3,10.3,3.6,21.4,2.6,32.3
				c-0.2,2.6-0.5,5.3-0.2,7.8c0.2,1.9,1.3,3.3,2.4,4.8c3.2,4.5,5.5,9.7,7,15c6,21.1-0.5,43.3-15.9,58.7c-0.4,0.4,0.2,1,0.6,0.6
				c0,0,0,0,0,0c13.5-8,20.9-23.4,22.8-38.5c1.2-9.8,0.4-19.7-1.4-29.3c-1.3-7.1-3.2-14-4.4-21c0.5-2.5,2-4.7,4.2-6
				c1.7-1,3.6-0.4,5.1-1.1c0.9-0.4,1.3-1.6,1.6-2.5c1.7-4.6,2.1-9.8,2.7-14.7C328.9,148,330.1,135.8,329.2,123.5z"/>
		</g>
	</g>
</g>
</svg>
