
<svg
   xmlns:dc="http://purl.org/dc/elements/1.1/"
   xmlns:cc="http://creativecommons.org/ns#"
   xmlns:rdf="http://www.w3.org/1999/02/22-rdf-syntax-ns#"
   xmlns:svg="http://www.w3.org/2000/svg"
   xmlns="http://www.w3.org/2000/svg"
   xmlns:sodipodi="http://sodipodi.sourceforge.net/DTD/sodipodi-0.dtd"
   xmlns:inkscape="http://www.inkscape.org/namespaces/inkscape"
   inkscape:version="1.0 (4035a4fb49, 2020-05-01)"
   sodipodi:docname="See You Soon.svg"
   id="svg38"
   version="1.1"
   viewBox="0 0 128 128">
   
   <style>


#path13 {
  fill: #9F7047;
}
.container {
  height: 40%;
  width: 40%;
  margin-left: 25%;
  margin-top: 8%;
}

#path19 { fill: dodgerblue;
 
 
}
#path31 {fill: hotpink}
#path19 {fill: grey}
#path31 {fill: hotpink}


#path21 {fill: orange}
#path23{fill: dodgerblue}
#path29 {fill: yellow}
#path31 {fill: hotpink}
#path33 {fill: #76EE00}
#path35 {fill: purple}

svg {
  height: auto;
  width: 100%;
  animation-name: wave-animation; 
  animation-duration: 2.5s;        /* Change to speed up or slow down */
  animation-iteration-count: infinite; 
  transform-origin: 70% 70%;       /* Pivot around the bottom-left palm */
  display: inline-block;
}

@keyframes wave-animation {
    0% { transform: rotate( 0.0deg) }
   10% { transform: rotate(14.0deg) }  /* The following five values can be played with to make the waving more or less extreme */
   20% { transform: rotate(-8.0deg) }
   30% { transform: rotate(14.0deg) }
   40% { transform: rotate(-4.0deg) }
   50% { transform: rotate(10.0deg) }
   60% { transform: rotate( 0.0deg) }  /* Reset for the last half to pause */
  100% { transform: rotate( 0.0deg) }
}


</style>
   
   
   
  <metadata
     id="metadata42">
    <rdf:RDF>
      <cc:Work
         rdf:about="">
        <dc:format>image/svg+xml</dc:format>
        <dc:type
           rdf:resource="http://purl.org/dc/dcmitype/StillImage" />
        <dc:title>See You Soon</dc:title>
      </cc:Work>
    </rdf:RDF>
  </metadata>
  <sodipodi:namedview
     inkscape:current-layer="svg38"
     inkscape:window-maximized="0"
     inkscape:window-y="0"
     inkscape:window-x="0"
     inkscape:cy="64"
     inkscape:cx="64"
     inkscape:zoom="6.25"
     showgrid="false"
     id="namedview40"
     inkscape:window-height="480"
     inkscape:window-width="782"
     inkscape:pageshadow="2"
     inkscape:pageopacity="0"
     guidetolerance="10"
     gridtolerance="10"
     objecttolerance="10"
     borderopacity="1"
     bordercolor="#666666"
     pagecolor="#ffffff" />
  <defs
     id="defs9">
    <style
       id="style2">.cls-1{fill:url(#linear-gradient);}.cls-2{fill:#743D2B;}.cls-3{fill:black;}</style>
    <linearGradient
       gradientUnits="userSpaceOnUse"
       y2="31.61"
       x2="64.21"
       y1="123"
       x1="64.21"
       id="linear-gradient">
      <stop
         id="stop4"
         stop-color="#f2c4b0"
         offset="0" />
      <stop
         id="stop6"
         stop-color="#ffe3d7"
         offset="1" />
    </linearGradient>
  </defs>
 
  
    <path
       id="path13"
       d="M66.41,123c18.14,0,28.51-13,31.1-28.51s5.18-23.32,7.78-28.51,0-13-7.78-7.77-13,23.32-13,23.32L76.89,36.26A5.58,5.58,0,0,0,65.82,37.6l2.36,31.83L56,36.34a5.71,5.71,0,0,0-10.84,3.54L55,74.32,39.69,48.54a5.42,5.42,0,0,0-9.6,5L42.93,81.68,32.09,66.37a5.46,5.46,0,0,0-9.19,5.89L44.17,109S51.75,123,66.41,123Z"
       class="cls-1" />
    <path
       id="path15"
       d="M105.29,66c-2.6,5.19-5.19,13-7.78,28.51S84.55,123,66.41,123c-14.66,0-22.24-14-22.24-14L22.9,72.26A5.52,5.52,0,0,1,22.77,67c.08.17-1.51-2.59,21.4,37,0,0,7.58,14,22.24,14,18.14,0,28.51-13,31.1-28.51,4-24,7.59-27.09,8.37-30A8.8,8.8,0,0,1,105.29,66Z"
       class="cls-2" />
    <path
       id="path17"
       d="M84.87,77.27l-7-41.18a6.6,6.6,0,0,0-13.1,1.58l1.83,24.6L56.93,36a6.73,6.73,0,0,0-12.78,4.17L51.82,67,40.57,48a6.45,6.45,0,0,0-11.41,6l8.33,18.24-4.57-6.45a6.48,6.48,0,0,0-10.9,7l21.25,36.71c.32.59,8,14.54,23.14,14.54,20.07,0,29.74-15.17,32.11-29.36,2.22-13.34,4.59-22,7.68-28.22C111.74,55.36,96.37,44.67,84.87,77.27Zm19.5-11.74c-3.18,6.36-5.61,15.24-7.87,28.79C94.28,107.69,85.2,122,66.41,122c-13.86,0-21.27-13.34-21.36-13.5L23.79,71.75A4.44,4.44,0,0,1,31.26,67L42.1,82.27a1,1,0,0,0,1.76-1L31,53.14a4.41,4.41,0,0,1,7.8-4.08L54.1,74.84A1,1,0,0,0,56,74L46.12,39.6A4.68,4.68,0,0,1,55,36.69L67.22,69.78a1,1,0,0,0,2-.43L66.84,37.52a4.56,4.56,0,0,1,9-1.09L83.55,81.7a1,1,0,0,0,2,.11c0-.17,5.17-17.84,12.54-22.75C104.93,54.49,106.48,61.32,104.37,65.53Z"
       class="cls-3" />
    <path
       id="path19"
       d="M127,67h-8a1,1,0,0,0,0,2h8A1,1,0,0,0,127,67Z"
       class="cls-3" />
    <path
       id="path21"
       d="M9,67H1a1,1,0,0,0,0,2H9A1,1,0,0,0,9,67Z"
       class="cls-3" />
    <path
       id="path23"
       d="M65,13V5a1,1,0,0,0-2,0v8A1,1,0,0,0,65,13Z"
       class="cls-3" />
    <path
       id="path25"
       d="M111.63,41.52c.39,0-.09.21,7.44-4.14a1,1,0,0,0-1-1.76l-6.93,4A1,1,0,0,0,111.63,41.52Z"
       class="cls-3" />
    <path
       id="path27"
       d="M15.86,94.62l-6.93,4a1,1,0,0,0,1,1.76l6.93-4A1,1,0,0,0,15.86,94.62Z"
       class="cls-3" />
    <path
       id="path29"
       d="M16.88,39.62l-6.93-4a1,1,0,0,0-1,1.76l6.93,4A1,1,0,0,0,16.88,39.62Z"
       class="cls-3" />
    <path
       id="path31"
       d="M119.07,98.62l-6.93-4a1,1,0,0,0-1,1.76l6.93,4A1,1,0,0,0,119.07,98.62Z"
       class="cls-3" />
    <path
       id="path33"
       d="M35.62,20.88a1,1,0,0,0,1.76-1l-4-6.93a1,1,0,0,0-1.76,1Z"
       class="cls-3" />
    <path
       id="path35"
       d="M92.38,20.88l4-6.93a1,1,0,0,0-1.76-1l-4,6.93A1,1,0,0,0,92.38,20.88Z"
       class="cls-3" />

</svg>


