<svg version="1.1" id="Layer_1" xmlns="http://www.w3.org/2000/svg" xmlns:xlink="http://www.w3.org/1999/xlink" x="0px" y="0px"
	 width="612px" height="511.667px" viewBox="0 0 612 511.667" enable-background="new 0 0 612 511.667" xml:space="preserve">
	 
	 <style>
	 .path {
  stroke-dasharray: 1000;
  stroke-dashoffset: 1000;
  animation: dash 10s linear alternate infinite;
  -webkit-animation: dash 10s linear alternate infinite;
}

@keyframes dash {
  from {
    stroke-dashoffset: 1000;
  }
  to {
    stroke-dashoffset: 0;
  }
}

@-webkit-keyframes dash {
  from {
    stroke-dashoffset: 1000;
  }
  to {
    stroke-dashoffset: 0;
  }
}
	 </style>
	 
	 
<g>
	<path class="path" fill="none" stroke="#000000" d="M132.273,39.999l33.127,0.988l1.977,63.287l21.766,0.498l-1.981-46.973h28.182
		c0,0,6.924,107.792,4.947,107.792c-1.98,0-25.219,0-25.219,0l-3.955-44.989l-21.267,0.495l0.497,48.944l-27.686-1.483
		L132.273,39.999z"/>
	<path class="path" fill="none" stroke="#000000" d="M262.723,123.043c-7.208-2.113-16.584-1.725-22.709,2.818
		c-7.637,5.663-10.579,14.455-10.498,23.54c0.122,13.723,7.945,18.638,14.471,19.566c13.521,1.902,20.361-3.981,26.368-11.882
		c2.902,3.611,11.649,11.563,11.649,11.563l10.341-9.395c0,0-2.068-9.22-4.61-15.105c-1.437,2.541-3.661,7.958-6.525,7.322
		c-5.803-1.295-6.003-13.715-6.323-17.979c-0.99-13.196,3.777-30.542-3.695-43.584c-5.838-10.173-19.176-10.966-28.956-5.726
		c-9.051,4.872-15.429,15.754-16.22,31.015c2.241,0.706,14.787,0.167,14.787,0.167s-0.468-4.619,1.434-9.066
		c2.32-5.407,4.98-9.225,11.61-8.463C265.14,99.136,262.723,123.043,262.723,123.043z"/>
	<path class="path" fill="none" stroke="#000000" d="M291.871,81.52l19.102,0.551v13.844c0,0,3.6-9.406,18.265-8.858
		c14.668,0.558,22.146,18.553,21.319,37.373c-0.828,18.821-13.011,24.627-22.428,24.082c-9.41-0.558-14.667-6.926-17.156-10.795
		l3.041,50.654l-19.374-0.83L291.871,81.52z"/>
	<path class="path" fill="none" stroke="#000000" d="M352.216,80.418l-0.277,111.004l20.485,1.653l-1.937-53.139c0,0,6.913,8.298,20.486,7.473
		c13.561-0.833,22.419-20.489,19.376-38.202c-3.049-17.718-11.1-29.392-24.916-28.242c-9.966,0.833-16.336,7.473-17.719,14.677
		l-1.383-16.063L352.216,80.418z"/>
	<path class="path" fill="none" stroke="#000000" d="M413.938,85.121l17.17-2.217c0,0,1.936,28.236,6.921,40.964
		c4.978,12.743,9.131,14.663,12.73,14.127c5.535-0.832,8.579-22.981,0-49.557l16.613-1.102c0,0,5.254,34.883-1.668,66.433
		c-6.919,31.552-21.034,38.75-36.538,38.201c-15.502-0.548-27.686-22.702-29.062-34.044l18.82-6.371c0,0-2.831,26.04,17.16,24.088
		c11.348-1.11,12.457-14.396,13.567-20.768c0,0-20.383,1.117-28.789-29.624C413.665,98.96,413.938,93.148,413.938,85.121z"/>
	<path class="path" fill="none" stroke="#000000" d="M327.49,98.64c-8.157,1.234-6.453,10.405-7.08,15.446
		c-2.908-2.483-12.498-11.578-16.268-4.346c-3.716,7.118,10.563,10.05,14.437,10.05c-4.301,0.86-11.833,7.718-4.182,10.346
		c4.989,1.718,9.842-4,12.09-7.594c-1.013,4.244,1.012,14.707,5.875,14.788c4.868,0.085,1.556-12.979,0.862-15.604
		c3.883,3.182,13.301,2.614,13.556-2.801c0.27-5.574-11.015-7.748-15.391-5.377C331.39,113.547,335.274,97.455,327.49,98.64z"/>
	<path class="path" fill="none" stroke="#000000" d="M389.729,109.943c1.183-3.717,1.722-15.237-3.458-15.837
		c-7.302-0.853-6.661,12.444-3.536,16.854c-3.23-2.042-11.559-7.144-14.532-2.146c-3.55,5.976,9.818,6.948,13.078,5.675
		c-4.366,3.575-8.878,11.902-3.577,14.721c6.048,3.226,9.654-5.758,10.879-10.346c1.681,4.042,5.519,15.369,9.868,10.288
		c2.431-2.839-1.447-9.705-2.797-11.944c3.372-0.429,10.926-4.682,7.637-9.26C400.36,103.873,389.729,109.943,389.729,109.943z"/>
	<path class="path" fill="none" stroke="#000000" d="M246.084,133.143c7.282,0.739,6.82,10.047,6.82,10.047c3.502-9.49,12.856-9.446,12.622-0.829
		c-0.178,6.814-11.98,18.702-15.666,17.873c-3.22-0.728-11.606-14.379-10.036-21.918
		C240.604,134.531,243.419,132.604,246.084,133.143z"/>
	<g>
		<path class="path" fill="none" stroke="#000000" d="M249.535,145.5c-0.65,0.475-0.776,1.77-0.623,2.497c0.08,0.386,0.678,0.48,0.846,0.119
			c0.315-0.686,0.496-1.983-0.046-2.59C249.67,145.475,249.583,145.467,249.535,145.5L249.535,145.5z"/>
	</g>
	<g>
		<path class="path" fill="none" stroke="#000000" d="M255.621,146.433c-0.282,0.607-0.393,1.263-0.6,1.89c-0.079,0.239,0.048,0.478,0.247,0.607
			c0.084,0.06,0.17,0.066,0.274,0.076c0.242,0.022,0.449-0.188,0.519-0.394c0.227-0.697,0.394-1.366,0.262-2.085
			C256.265,146.208,255.757,146.14,255.621,146.433L255.621,146.433z"/>
	</g>
	<g>
		<path class="path" fill="none" stroke="#000000" d="M248.818,150.433c-0.249,1.29,0.68,3.416,2.03,3.82c1.769,0.543,3.743-0.771,4.542-2.34
			c0.09-0.181-0.105-0.429-0.294-0.292c-1.167,0.816-2.103,2.242-3.719,2.004c-1.332-0.192-1.872-2.204-2.329-3.221
			C249,150.304,248.838,150.335,248.818,150.433L248.818,150.433z"/>
	</g>
</g>
<g>
	<path class="path" fill="none" stroke="#000000" d="M57.351,267.862c0,0,22.815-4.027,35.154-3.488c12.343,0.538,27.481,7.414,30.322,31.393
		c1.877,15.837-6.44,24.961-12.345,28.712c0,0,28.632,2.123,29.521,34.613c0.801,29.515-22.811,35.419-39.98,37.293
		c-17.173,1.88-37.029,1.082-37.029,1.082L57.351,267.862z"/>
	<polygon fill="none" stroke="#000000" points="149.12,331.188 165.762,331.458 168.173,400.416 145.9,400.416 	"/>
	<path class="path" fill="none" stroke="#000000" d="M173.808,322.6l1.348,15.558c0,0,9.114-6.97,9.926-1.598c0.798,5.363,0,58.755,0,58.755
		l18.776-0.804l-6.175-53.123c0,0,0.8-6.981,5.911-6.981c5.1,0,9.923,8.853,10.466,10.462l12.073-7.511
		c0,0-5.116-18.342-18.251-19.057c-9.921-0.53-12.336,5.376-13.953,9.933C193.929,328.235,193.398,312.403,173.808,322.6z"/>
	<path class="path" fill="none" stroke="#000000" d="M233.109,282.618l-0.271,16.364l-11.802,0.812l-0.812,15.562l12.078,1.344
		c0,0-1.069,33.005,5.1,56.072c6.171,23.086,17.435,22.276,23.88,22.01c6.44-0.269,14.22-7.778,19.32-15.833l-5.905-15.831
		c0,0-4.562,10.195-15.291,9.931c-11.821-0.293-13.146-42.659-14.225-57.153h14.499l1.059-17.981l-13.676,0.271l0.266-16.1
		L233.109,282.618z"/>
	<path class="path" fill="none" stroke="#000000" d="M280.06,294.16l15.055-1.767l4,50.063c0,0,6.169-9.293,18.782-8.853
		c14.392,0.494,24.126,20.073,23.055,58.983h-20.403c0,0,3.559-41.143-10.434-41.274c-4.275-0.048-6.169,2.679-8.587,6.168
		l3.276,36.529l-19.103,0.229L280.06,294.16z"/>
	<path class="path" fill="none" stroke="#000000" d="M376.57,283.43l17.017,2.75c0,0,4.646,53.146,8.751,84.322
		c2.282,17.398,3.825,22.384,3.825,22.384s-11.226,1.596-17.35,1.308c0,0-2.047-13.114-2.627-17.204c0,0-2.384,17.718-22.441,15.453
		c-17.836-2.009-17.996-24.238-17.78-32.933c0.185-7.876,3.805-27.093,19.524-27.986c10.203-0.586,14.331,6.196,14.914,9.689
		L376.57,283.43z"/>
	<path class="path" fill="none" stroke="#000000" d="M405.716,329.092l11.074,5.542c0,0,5.321-21.535,17.308-18.93
		c10.621,2.309,11.546,25.158,10.621,36.474c0,0-8.97-10.508-22.391-6.926c-10.382,2.767-13.288,23.841-7.156,34.39
		c5.772,9.923,16.395,10.843,22.163,9.47c5.766-1.394,11.309-5.539,13.156-12.704l4.617,8.083l15.464-5.076
		c0,0-10.151-15.005-12.233-34.387c-1.318-12.305,3.163-42.652-21.925-45.244C416.325,297.7,409.413,315.011,405.716,329.092z"/>
	<path class="path" fill="none" stroke="#000000" d="M461.575,304.17c4.276-0.237,8.79,0.359,13.104,0.359c1.59,10.73,2.066,19.208,3.511,29.288
		c0.732,5.17,1.689,19.151,9.275,19.344c11.465,0.294,4.905-42.385,3.981-50.59c4.947-0.846,9.832-2.289,14.409-2.979
		c0.964,8.631,2.313,18.409,3.13,26.23c1.282,12.168,3.835,24.065,5.825,36.139c2.874,17.428,8.161,31.183,2.874,48.943
		c-4.769,16.042-24.163,22.417-36.779,12.156c-6.875-5.603-11.671-21.435-13.594-30.392c4.701-0.34,14.235-2.238,14.235-2.238
		s2.955,14.271,9.125,19.031c5.239,4.048,11.563-0.28,13.901-5.919c5.914-14.227-1.749-27.91-4.476-41.744
		c-2.161,6.631-7.067,14.619-19.027,9.759c-10.239-4.165-14.873-21.271-15.674-30.227
		C464.742,334.026,461.575,304.17,461.575,304.17z"/>
	<path class="path" fill="none" stroke="#000000" d="M527.865,346.89l23.101,1.748c0,0,7.834-110.286,6.533-116.394
		c0,0-20.923-6.539-37.492-0.433C520.007,231.811,525.246,325.967,527.865,346.89z"/>
	<path class="path" fill="none" stroke="#000000" d="M556.963,388.447c2.352-5.741,2.461-13.226-0.179-18.204
		c-3.163-5.929-11.476-10.827-19.584-8.168c-6.528,2.134-12.067,8.072-12.852,14.908c-1.131,9.853,2.896,17.242,12.214,20.104
		C544.977,399.66,553.335,397.363,556.963,388.447z"/>
	<path class="path" fill="none" stroke="#000000" d="M177.71,309.018c2.759-30.24-46.784-28.395-40.604-3.898
		c2.863,11.389,11.279,20.196,23.28,18.51C167.625,322.6,176.978,316.994,177.71,309.018z"/>
	<path class="path" fill="none" stroke="#000000" d="M366.814,340.51c-4.97,1.736-3.348,12.946-1.896,16.877
		c-5.939-15.667-19.414,6.557,0.095,6.105c-12.844,8.548-4.896,20.876,2.804,6.627c0.128,3.076-0.379,10.837,4.156,10.305
		c6.409-0.763,3.516-12.643,2.789-15.715c0.608,2.293,6.985,6.698,10.748,3.028c5.446-5.31-7.825-7.997-10.748-8.707
		c13.883-4.108,5.666-14.853-2.605-2.983C372.156,356.048,375.349,337.529,366.814,340.51z"/>
	<path class="path" fill="none" stroke="#000000" d="M424.281,372.971c5.942,9.335,21.977,6.995,22.654-4.865
		c0.617-10.8-15.1-18.566-22.314-9.824C421.664,361.877,421.826,369.133,424.281,372.971z"/>
	<path class="path" fill="none" stroke="#000000" d="M99.89,352.994c-3.37-4.988-10.609-8.729-14.368-8.466c-7.61,0.543-10.946,8.068-6.6,14.212
		c7.24,10.237,21.214,13.976,33.196,17.849c3.127-5.868,4.429-14.504,5-21.973c0.282-3.734-0.142-10.261-1.753-13.723
		c-2.334-5.053-6.99-6.489-11.11-3.496C100.397,340.204,99.89,352.994,99.89,352.994z"/>
	<path class="path" fill="none" stroke="#000000" d="M91.658,297.957c2.78-10.068-3.387-18.817-11.614-12.356
		c-6.981,5.494-4.723,26.288-3.867,35.695c9.262,0.509,19.893-3.032,26.21-9.61c4.047-4.206,7.863-11.359,7.235-15.853
		c-0.821-5.941-5.852-6.924-9.732-5.61c-2.51,0.848-4.323,2.756-5.986,4.865L91.658,297.957z"/>
	<g>
		<path class="path" fill="none" stroke="#000000" d="M534.055,376.345c0.799-1.313,1.943-3.945,3.915-3.519c2.036,0.432,1.294,3.733,1.624,5.066
			c0.051,0.198,0.366,0.261,0.461,0.062c0.77-1.693,0.161-5.186-1.912-5.74c-2.119-0.566-3.95,2.359-4.393,3.998
			C533.702,376.392,533.956,376.503,534.055,376.345L534.055,376.345z"/>
	</g>
	<g>
		<path class="path" fill="none" stroke="#000000" d="M546.555,378.753c0.728-1.12,2.567-5.954,4.458-3.296c1.045,1.48-0.047,3.559,0.072,5.147
			c0.018,0.224,0.335,0.366,0.454,0.122c0.699-1.466,1.135-5.062-0.557-6.092c-0.973-0.591-1.896-0.397-2.735,0.32
			c-0.921,0.798-1.948,2.497-1.9,3.736C546.35,378.804,546.488,378.843,546.555,378.753L546.555,378.753z"/>
	</g>
	<g>
		<path class="path" fill="none" stroke="#000000" d="M535.688,382.312c-0.726,3.173,1.339,7.296,4.347,8.494
			c4.053,1.605,7.449-2.505,7.999-6.122c0.034-0.18-0.243-0.34-0.329-0.141c-1.396,2.971-2.9,6.357-6.843,5.715
			c-3.553-0.576-4.495-4.969-4.885-7.906C535.959,382.206,535.728,382.128,535.688,382.312L535.688,382.312z"/>
	</g>
	<g>
		<path class="path" fill="none" stroke="#000000" d="M430.038,360.68c-0.326,0.31-0.275,0.723-0.313,1.149c-0.048,0.53-0.061,1.085,0.014,1.607
			c0.062,0.475,0.889,0.475,0.949,0c0.078-0.527,0.051-1.072,0.019-1.607c-0.019-0.422,0.007-0.853-0.316-1.149
			C430.285,360.583,430.14,360.583,430.038,360.68L430.038,360.68z"/>
	</g>
	<g>
		<path class="path" fill="none" stroke="#000000" d="M438.755,361.679c-0.294,0.732-0.209,1.771-0.165,2.545c0.047,0.638,0.955,0.638,0.996,0
			c0.049-0.774,0.133-1.813-0.16-2.545C439.287,361.358,438.892,361.358,438.755,361.679L438.755,361.679z"/>
	</g>
	<g>
		<path class="path" fill="none" stroke="#000000" d="M429.749,366.985c0.022,2.025,1.8,5.71,4.197,5.705c2.365-0.003,4.654-2.952,4.451-5.252
			c-0.021-0.214-0.3-0.322-0.431-0.106c-0.933,1.656-1.32,4.152-3.647,4.464c-2.224,0.295-3.445-3.366-4.272-4.897
			C429.967,366.767,429.749,366.827,429.749,366.985L429.749,366.985z"/>
	</g>
	<g>
		<path class="path" fill="none" stroke="#000000" d="M86.519,301.738c-0.397,0.542-0.688,1.154-1.024,1.732
			c-0.297,0.539-0.635,1.066-0.851,1.654c-0.167,0.485,0.536,0.728,0.798,0.333c0.373-0.546,0.631-1.184,0.931-1.777
			c0.278-0.546,0.598-1.084,0.776-1.681C87.262,301.604,86.735,301.448,86.519,301.738L86.519,301.738z"/>
	</g>
	<g>
		<path class="path" fill="none" stroke="#000000" d="M93.366,304.253c-0.71,0.825-1.244,1.819-1.698,2.807c-0.3,0.648,0.679,1.21,0.961,0.564
			c0.423-1.017,1.019-1.95,1.412-2.978C94.177,304.273,93.625,303.964,93.366,304.253L93.366,304.253z"/>
	</g>
	<g>
		<path class="path" fill="none" stroke="#000000" d="M82.793,307.819c-0.787,2.28,0.748,5.031,2.781,6.068c2.263,1.154,5.091-0.365,5.89-2.61
			c0.077-0.222-0.21-0.471-0.415-0.316c-1.619,1.216-3.026,2.945-5.223,1.836c-1.937-0.976-2.086-3.185-2.693-4.978
			C83.081,307.655,82.849,307.655,82.793,307.819L82.793,307.819z"/>
	</g>
	<g>
		<path fill="none" stroke="#000000" d="M99.912,357.096c0.106,1.009,0.746,2.093,1.341,2.901c0.406,0.542,1.207,0.085,0.913-0.536
			c-0.419-0.883-0.971-1.886-1.582-2.645C100.375,356.563,99.885,356.766,99.912,357.096L99.912,357.096z"/>
	</g>
	<g>
		<path class="path" fill="none" stroke="#000000" d="M105.664,354.4c-0.15,0.363,0.174,0.86,0.278,1.212c0.185,0.596,0.293,1.218,0.469,1.808
			c0.181,0.6,1.154,0.516,1.127-0.149c-0.053-0.832-0.329-1.754-0.772-2.459C106.6,354.542,105.912,353.797,105.664,354.4
			L105.664,354.4z"/>
	</g>
	<g>
		<path class="path" fill="none" stroke="#000000" d="M98.407,361.915c1.692,3.428,7.72,5.862,11.176,3.929c3.286-1.834,2.257-7.734,1.862-10.677
			c-0.047-0.349-0.519-0.359-0.563,0c-0.313,2.85,0.492,6.026-0.829,8.677c-2.294,4.589-8.929-0.61-11.417-2.165
			C98.483,361.584,98.328,361.766,98.407,361.915L98.407,361.915z"/>
	</g>
	<g>
		<path class="path" fill="none" stroke="#000000" d="M155.455,304.328c-0.385,1.707-0.82,6.717,2.294,5.917c1.074-0.28,1.987-1.254,2.724-2.025
			c0.726-0.779,1.507-1.676,1.817-2.726c0.058-0.198-0.218-0.369-0.37-0.203c-1.163,1.256-2.08,2.716-3.498,3.715
			c-2.9,2.048-2.478-3.12-2.793-4.678C155.603,304.238,155.483,304.249,155.455,304.328L155.455,304.328z"/>
	</g>
	<g>
		<path class="path" fill="none" stroke="#000000" d="M157.113,299.804c-0.654,0.649-1.169,1.921-1.019,2.846
			c0.042,0.227,0.315,0.236,0.463,0.124c0.717-0.6,0.938-1.961,0.871-2.841C157.414,299.777,157.237,299.68,157.113,299.804
			L157.113,299.804z"/>
	</g>
	<g>
		<path class="path" fill="none" stroke="#000000" d="M162.151,301.364c-0.657,0.554-0.959,1.445-1.18,2.244
			c-0.064,0.237,0.214,0.354,0.384,0.222c0.69-0.544,1.199-1.426,1.109-2.338C162.447,301.332,162.281,301.26,162.151,301.364
			L162.151,301.364z"/>
	</g>
</g>
</svg>