<?xml version="1.0" encoding="utf-8"?><svg id="female-Waving" image-rendering="auto" baseProfile="basic" version="1.1" x="0px" y="0px" width="450" height="600" viewBox="0 0 450 600" xmlns="http://www.w3.org/2000/svg" xmlns:xlink="http://www.w3.org/1999/xlink">
<style>
body {
  background: white;
  margin: 0;
  min-height: 100vh;
  display: -webkit-box;
  display: -ms-flexbox;
  display: flex;
  -webkit-box-flex: 1;
  -ms-flex: 1;
  flex: 1;
  -webkit-box-align: center;
  -ms-flex-align: center;
  align-items: center;
}

#container {
  position: relative;
  margin: auto;
  width: 450px;
  height: 600px;
}
</style>

<g id="Scene-1" overflow="visible"><g id="Symbol-1" transform="translate(185.8 19.05)"><animateTransform attributeName="transform" additive="replace" type="translate" repeatCount="indefinite" dur="2.917s" keyTimes="0;.014;.157;.171;.186;.2;.214;.229;.243;.257;.271;.286;.3;.314;.329;.343;.357;.371;.386;.4;.414;.429;.443;.457;.471;.486;.5;.514;.529;.543;.557;.571;.586;.6;.614;.628;.643;.657;.671;.686;.7;.714;.728;.743;.757;.771;.786;.8;.814;.828;.843;.857;.871;.886;.9;.914;.928;.943;.957;.971;.986;1" values="240.553,71.545;240.553,71.595;240.553,71.595;240.61,71.594;240.544,71.661;240.578,71.626;240.63,71.622;240.557,71.578;240.575,71.584;240.543,71.678;240.606,71.629;240.571,71.563;240.589,71.653;240.583,71.617;240.604,71.6;240.562,71.656;240.572,71.633;240.607,71.585;240.574,71.58;240.58,71.617;240.566,71.637;240.572,71.682;240.611,71.658;240.558,71.625;240.622,71.52;240.558,71.626;240.615,71.609;240.521,71.632;240.564,71.589;240.526,71.621;240.572,71.583;240.55,71.633;240.589,71.539;240.611,71.666;240.579,71.605;240.631,71.576;240.617,71.635;240.572,71.649;240.539,71.637;240.63,71.628;240.593,71.6;240.576,71.628;240.621,71.634;240.542,71.603;240.553,71.614;240.609,71.617;240.567,71.589;240.667,71.632;240.607,71.585;240.572,71.631;240.615,71.6;240.611,71.593;240.577,71.639;240.542,71.612;240.59,71.658;240.633,71.651;240.586,71.614;240.615,71.6;240.54,71.593;240.56,71.633;240.55,71.55;240.55,71.55"/><animateTransform attributeName="transform" additive="sum" type="rotate" repeatCount="indefinite" dur="2.917s" keyTimes="0;.157;.171;.186;.2;.214;.229;.243;.257;.271;.286;.3;.314;.329;.343;.357;.371;.386;.4;.414;.429;.443;.457;.471;.486;.5;.514;.529;.543;.557;.571;.586;.6;.614;.628;.643;.657;.671;.686;.7;.714;.728;.743;.757;.771;.786;.8;.814;.828;.843;.857;.871;.886;.9;.914;.928;.943;.957;.971;.986;1" values="-.015,0,0;-.015,0,0;.282,0,0;.772,0,0;1.259,0,0;1.559,0,0;2.047,0,0;2.535,0,0;3.022,0,0;3.509,0,0;3,0,0;2.769,0,0;1.539,0,0;.309,0,0;-.539,0,0;-1.769,0,0;-2,0,0;-1.786,0,0;-.764,0,0;.254,0,0;1.28,0,0;2.302,0,0;3.512,0,0;4.536,0,0;3.514,0,0;2.308,0,0;1.288,0,0;.264,0,0;-.752,0,0;-1.772,0,0;-2.795,0,0;-2.012,0,0;-1.044,0,0;-.261,0,0;.514,0,0;1.297,0,0;2.264,0,0;3.047,0,0;2.517,0,0;1.8,0,0;1.269,0,0;.552,0,0;.022,0,0;-.504,0,0;-1.034,0,0;-1.751,0,0;-2.281,0,0;-2,0,0;-1.779,0,0;-.56,0,0;.279,0,0;1.5,0,0;.779,0,0;.249,0,0;-.279,0,0;-1,0,0;-.56,0,0;-.309,0,0;-.059,0,0;0,0,0;0,0,0"/><animateTransform attributeName="transform" additive="sum" type="scale" repeatCount="indefinite" dur="2.917s" keyTimes="0;.457;.471;.486;1" values="1,1;1,1;1,.999;1,1;1,1"/><animateTransform attributeName="transform" additive="sum" type="translate" repeatCount="indefinite" dur="2.917s" keyTimes="0;.157;.171;.186;.2;.214;.229;.243;.257;.271;.286;.3;.314;.329;.343;.357;.371;.386;.4;.414;.429;.443;.457;.471;.486;.5;.514;.529;.543;.557;.571;.586;.6;.614;.628;.643;.657;.671;.686;.7;.714;.728;.743;.757;.771;.786;.8;.814;.828;.843;.857;.871;.886;.9;.914;.928;.943;.957;.971;.986;1" values="-54.8,-52.55;-54.8,-52.55;-54.85,-52.55;-54.8,-52.65;-54.8,-52.6;-54.9,-52.6;-54.8,-52.55;-54.85,-52.6;-54.75,-52.7;-54.85,-52.65;-54.8,-52.55;-54.8,-52.6;-54.9,-52.6;-54.85,-52.55;-54.8,-52.65;-54.8,-52.65;-54.85,-52.65;-54.75,-52.6;-54.85,-52.6;-54.8,-52.65;-54.85,-52.65;-54.8,-52.65;-54.8,-52.6;-54.85,-52.5;-54.8,-52.6;-54.8,-52.55;-54.8,-52.6;-54.75,-52.55;-54.8,-52.55;-54.8,-52.6;-54.75,-52.6;-54.8,-52.55;-54.85,-52.6;-54.85,-52.6;-54.85,-52.55;-54.85,-52.65;-54.8,-52.6;-54.8,-52.65;-54.8,-52.6;-54.85,-52.6;-54.8,-52.6;-54.85,-52.65;-54.75,-52.6;-54.8,-52.55;-54.85,-52.6;-54.75,-52.6;-54.85,-52.65;-54.85,-52.65;-54.75,-52.6;-54.85,-52.6;-54.85,-52.55;-54.85,-52.6;-54.8,-52.6;-54.8,-52.6;-54.85,-52.65;-54.8,-52.6;-54.85,-52.6;-54.8,-52.6;-54.8,-52.6;-54.8,-52.55;-54.8,-52.55"/><path fill="#CCD651" stroke="none" d="M106.95 53.5Q106.95 31.35 91.3 15.65 75.65 0 53.5 0 31.35 0 15.65 15.65 0 31.35 0 53.5L0 130.6Q0 152.75 15.65 168.45 31.35 184.1 53.5 184.1 75.65 184.1 91.3 168.45 106.95 152.75 106.95 130.6L106.95 53.5Z"/></g><g display="none"><path id="Layer82_0_1_STROKES" stroke="#78C4C9" stroke-width="10" stroke-linejoin="round" stroke-linecap="round" fill="none" d="M163.25 370.65Q165.25 355.6 167.75 339.45 170.4 316.2 174.45 294 178.6 265.15 186.9 238.3 195.9 208.15 208 188.45"/><animate attributeName="display" repeatCount="indefinite" dur="2.917s" keyTimes="0;.886;.9;1" values="none;inline;none;none"/></g><g display="none"><path id="Layer81_0_1_STROKES" stroke="#78C4C9" stroke-width="10" stroke-linejoin="round" stroke-linecap="round" fill="none" d="M159 355.35Q162.4 344.2 166.1 329.45 169.7 309.05 174.6 287.45 178.4 262.8 187.7 235.15 196.75 206.45 208 188.45"/><animate attributeName="display" repeatCount="indefinite" dur="2.917s" keyTimes="0;.871;.886;1" values="none;inline;none;none"/></g><g display="none"><path id="Layer80_0_1_STROKES" stroke="#78C4C9" stroke-width="10" stroke-linejoin="round" stroke-linecap="round" fill="none" d="M154.7 340.05Q159.5 332.85 164.5 319.5 168.95 301.9 174.75 280.9 178.2 260.4 188.45 232 197.65 204.7 208 188.45"/><animate attributeName="display" repeatCount="indefinite" dur="2.917s" keyTimes="0;.857;.871;1" values="none;inline;none;none"/></g><g display="none"><path id="Layer79_0_1_STROKES" stroke="#78C4C9" stroke-width="10" stroke-linejoin="round" stroke-linecap="round" fill="none" d="M150.4 324.75Q156.6 321.5 162.85 309.5 168.2 294.75 174.95 274.4 177.95 258.05 189.2 228.85 198.55 202.95 208 188.45"/><animate attributeName="display" repeatCount="indefinite" dur="2.917s" keyTimes="0;.843;.857;1" values="none;inline;none;none"/></g><g display="none"><path id="Layer78_0_1_STROKES" stroke="#78C4C9" stroke-width="10" stroke-linejoin="round" stroke-linecap="round" fill="none" d="M146.15 309.45Q153.75 310.15 161.3 299.55 167.5 287.6 175.15 267.85 177.8 255.65 190 225.7 199.5 201.2 208.05 188.45"/><animate attributeName="display" repeatCount="indefinite" dur="2.917s" keyTimes="0;.829;.843;1" values="none;inline;none;none"/></g><g display="none"><path id="Layer77_0_1_STROKES" stroke="#78C4C9" stroke-width="10" stroke-linejoin="round" stroke-linecap="round" fill="none" d="M141.9 294.15Q150.9 298.75 159.65 289.55 166.8 280.45 175.3 261.3 177.6 253.3 190.8 222.55 200.35 199.5 208.05 188.45"/><animate attributeName="display" repeatCount="indefinite" dur="2.917s" keyTimes="0;.814;.829;1" values="none;inline;none;none"/></g><g display="none"><path id="Layer76_0_1_STROKES" stroke="#78C4C9" stroke-width="10" stroke-linejoin="round" stroke-linecap="round" fill="none" d="M137.55 278.85Q147.95 287.4 158 279.6 166 273.3 175.4 254.75 177.35 250.9 191.5 219.4 201.2 197.75 208 188.45"/><animate attributeName="display" repeatCount="indefinite" dur="2.917s" keyTimes="0;.8;.814;1" values="none;inline;none;none"/></g><g display="none"><path id="Layer75_0_1_STROKES" stroke="#78C4C9" stroke-width="10" stroke-linejoin="round" stroke-linecap="round" fill="none" d="M134.55 268.15Q140.05 272.8 145.75 274.2 149.85 274.6 154.1 272.85 156.6 271.7 159.3 269.55 163.95 266.85 168.7 260.35 170.4 258.65 172.1 256.4 173.15 255.65 175.35 251.9 179.85 245.3 187.9 228.2 189.3 225.2 190.9 221.6 200.25 200.9 208 188.45"/><animate attributeName="display" repeatCount="indefinite" dur="2.917s" keyTimes="0;.786;.8;1" values="none;inline;none;none"/></g><g display="none"><path id="Layer74_0_1_STROKES" stroke="#78C4C9" stroke-width="10" stroke-linejoin="round" stroke-linecap="round" fill="none" d="M131.55 257.4Q136.75 261.95 142.35 265.15 146.05 266.2 150.2 266.05 152.6 265.85 155.25 264.95 160.1 264.85 164.95 260.5 166.85 259.7 168.75 258.1 170.3 257.75 172.75 254.55 178.35 248.65 187.1 230.65 188.55 227.6 190.35 223.75 199.3 204.1 208 188.45"/><animate attributeName="display" repeatCount="indefinite" dur="2.917s" keyTimes="0;.771;.786;1" values="none;inline;none;none"/></g><g display="none"><path id="Layer73_0_1_STROKES" stroke="#78C4C9" stroke-width="10" stroke-linejoin="round" stroke-linecap="round" fill="none" d="M128.55 246.7Q133.4 251.1 138.95 256.05 142.3 257.8 146.3 259.3 148.6 260 151.15 260.35 156.25 262.9 161.15 260.6 163.3 260.7 165.45 259.75 167.4 259.9 170.1 257.15 176.85 252 186.35 233.1 187.85 230.05 189.75 225.95 198.35 207.25 208 188.45"/><animate attributeName="display" repeatCount="indefinite" dur="2.917s" keyTimes="0;.757;.771;1" values="none;inline;none;none"/></g><g display="none"><path id="Layer72_0_1_STROKES" stroke="#78C4C9" stroke-width="10" stroke-linejoin="round" stroke-linecap="round" fill="none" d="M125.55 236Q130.05 240.3 135.5 247 138.55 249.4 142.4 252.55 144.55 254.15 147.1 255.8 152.4 260.9 157.35 260.75 159.75 261.7 162.15 261.45 164.5 262 167.45 259.8 175.35 255.4 185.55 235.5 187.1 232.45 189.15 228.15 197.4 210.45 208 188.45"/><animate attributeName="display" repeatCount="indefinite" dur="2.917s" keyTimes="0;.743;.757;1" values="none;inline;none;none"/></g><g display="none"><path id="Layer71_0_1_STROKES" stroke="#78C4C9" stroke-width="10" stroke-linejoin="round" stroke-linecap="round" fill="none" d="M122.55 225.3Q126.7 229.45 132.1 237.9 134.8 241 138.5 245.8 140.55 248.3 143 251.2 148.55 258.95 153.55 260.85 156.2 262.7 158.85 263.1 161.6 264.15 164.8 262.4 173.85 258.75 184.8 237.95 186.4 234.9 188.55 230.35 196.45 213.6 208 188.45"/><animate attributeName="display" repeatCount="indefinite" dur="2.917s" keyTimes="0;.729;.743;1" values="none;inline;none;none"/></g><g display="none"><path id="Layer70_0_1_STROKES" stroke="#78C4C9" stroke-width="10" stroke-linejoin="round" stroke-linecap="round" fill="none" d="M119.55 214.55Q123.4 218.6 128.7 228.85 131 232.6 134.6 239 136.55 242.45 138.95 246.6 144.7 256.95 149.8 261 152.65 263.75 155.5 264.8 158.75 266.25 162.2 265.05 172.35 262.1 184 240.4 185.65 237.3 188 232.5 195.5 216.8 208 188.45"/><animate attributeName="display" repeatCount="indefinite" dur="2.917s" keyTimes="0;.714;.729;1" values="none;inline;none;none"/></g><g display="none"><path id="Layer69_0_1_STROKES" stroke="#78C4C9" stroke-width="10" stroke-linejoin="round" stroke-linecap="round" fill="none" d="M116.55 203.85Q120.05 207.75 125.3 219.75 128.3 226.6 134.85 242 140.85 255 146 261.1 152.7 269 159.55 267.65 170.85 265.45 183.25 242.85 189.9 230.75 208 188.45"/><animate attributeName="display" repeatCount="indefinite" dur="2.917s" keyTimes="0;.7;.714;1" values="none;inline;none;none"/></g><g display="none"><path id="Layer68_0_1_STROKES" stroke="#78C4C9" stroke-width="10" stroke-linejoin="round" stroke-linecap="round" fill="none" d="M113.55 193.15Q116.55 195.75 120.25 205.45 121.15 207.9 122.05 210.45 122.85 212.8 123.7 215.5 125.9 224.55 129.35 234.7 134.1 248.55 139.3 256.4 140.45 258.05 141.65 259.45 146.45 265.35 151.6 266.35 157.45 267.9 163.9 263.85 171.55 258.65 179.8 245.9 190.5 229.85 208 188.5"/><animate attributeName="display" repeatCount="indefinite" dur="2.917s" keyTimes="0;.686;.7;1" values="none;inline;none;none"/></g><g display="none"><path id="Layer67_0_1_STROKES" stroke="#78C4C9" stroke-width="10" stroke-linejoin="round" stroke-linecap="round" fill="none" d="M110.55 182.45Q113.75 184.5 117.25 195.75 119 201.4 120.1 206.6 124.35 239.45 134.65 255.05 144.45 271.15 157.4 266.55 179.65 256.25 208 188.45"/><animate attributeName="display" repeatCount="indefinite" dur="2.917s" keyTimes="0;.671;.686;1" values="none;inline;none;none"/></g><g display="none"><path id="Layer66_0_1_STROKES" stroke="#78C4C9" stroke-width="10" stroke-linejoin="round" stroke-linecap="round" fill="none" d="M107.55 171.75Q113.4 175.95 115.85 186 117.1 191.35 117.55 198.8 121.9 235 132.55 252.8 142.75 270.6 156.25 266.45 179.15 258.25 208 188.45"/><animate attributeName="display" repeatCount="indefinite" dur="2.917s" keyTimes="0;.657;.671;1" values="none;inline;none;none"/></g><g display="none"><path id="Layer51_0_1_STROKES" stroke="#78C4C9" stroke-width="10" stroke-linejoin="round" stroke-linecap="round" fill="none" d="M208 188.45Q178.6 260.25 155.05 266.35 141.05 270 130.45 250.55 119.45 230.5 114.95 190.95 115.2 181.25 114.4 176.2 113.05 167.35 104.55 161.05"/><animate attributeName="display" repeatCount="indefinite" dur="2.917s" keyTimes="0;.443;.457;.643;.657;1" values="none;inline;none;inline;none;none"/></g><g display="none"><path id="Layer50_0_1_STROKES" stroke="#78C4C9" stroke-width="10" stroke-linejoin="round" stroke-linecap="round" fill="none" d="M108.65 160.5Q114.65 166.85 115.3 175.9 115.55 181.35 115.45 190.95 119.6 230.5 130.55 250.55 141.05 270 155.1 266.35 178.65 260.25 208.05 188.45"/><animate attributeName="display" repeatCount="indefinite" dur="2.917s" keyTimes="0;.429;.443;.457;.471;.629;.643;1" values="none;inline;none;inline;none;inline;none;none"/></g><g display="none"><path id="Layer49_0_1_STROKES" stroke="#78C4C9" stroke-width="10" stroke-linejoin="round" stroke-linecap="round" fill="none" d="M112.7 159.9Q116.15 166.35 116.05 175.6 115.85 181.45 115.8 190.95 119.65 230.45 130.55 250.6 141 270 155.05 266.35 178.6 260.25 208 188.45"/><animate attributeName="display" repeatCount="indefinite" dur="2.917s" keyTimes="0;.414;.429;.471;.486;.614;.629;1" values="none;inline;none;inline;none;inline;none;none"/></g><g display="none"><path id="Layer48_0_1_STROKES" stroke="#78C4C9" stroke-width="10" stroke-linejoin="round" stroke-linecap="round" fill="none" d="M116.75 159.35Q117.7 165.85 116.9 175.3 116.15 181.55 116.25 190.95 119.75 230.45 130.6 250.6 140.95 270 155.05 266.35 178.6 260.25 208 188.45"/><animate attributeName="display" repeatCount="indefinite" dur="2.917s" keyTimes="0;.4;.414;.486;.5;.6;.614;1" values="none;inline;none;inline;none;inline;none;none"/></g><g display="none"><path id="Layer47_0_1_STROKES" stroke="#78C4C9" stroke-width="10" stroke-linejoin="round" stroke-linecap="round" fill="none" d="M120.9 158.75Q119.35 165.3 117.8 175.05 116.55 181.7 116.7 190.95 119.95 230.4 130.7 250.65 141 270.05 155.1 266.35 178.65 260.25 208.05 188.45"/><animate attributeName="display" repeatCount="indefinite" dur="2.917s" keyTimes="0;.386;.4;.5;.514;.586;.6;1" values="none;inline;none;inline;none;inline;none;none"/></g><g display="none"><path id="Layer46_0_1_STROKES" stroke="#78C4C9" stroke-width="10" stroke-linejoin="round" stroke-linecap="round" fill="none" d="M124.9 158.2Q120.85 164.8 118.6 174.75 116.8 181.8 117.1 190.95 120 230.4 130.7 250.65 140.9 270.05 155.05 266.35 178.6 260.25 208 188.45"/><animate attributeName="display" repeatCount="indefinite" dur="2.917s" keyTimes="0;.371;.386;.514;.529;.571;.586;1" values="none;inline;none;inline;none;inline;none;none"/></g><g display="none"><path id="Layer45_0_1_STROKES" stroke="#78C4C9" stroke-width="10" stroke-linejoin="round" stroke-linecap="round" fill="none" d="M129 157.6Q122.4 164.3 119.4 174.45 117.15 181.9 117.5 190.95 120.1 230.35 130.75 250.7 140.9 270.05 155.05 266.35 178.6 260.25 208 188.45"/><animate attributeName="display" repeatCount="indefinite" dur="2.917s" keyTimes="0;.357;.371;.529;.543;.557;.571;1" values="none;inline;none;inline;none;inline;none;none"/></g><g display="none"><path id="Layer44_0_1_STROKES" stroke="#78C4C9" stroke-width="10" stroke-linejoin="round" stroke-linecap="round" fill="none" d="M208.05 188.45Q178.65 260.25 155.1 266.35 140.9 270.05 130.85 250.7 120.25 230.35 118 190.95 117.5 182 120.3 174.15 124 163.8 133.1 157.05"/><animate attributeName="display" repeatCount="indefinite" dur="2.917s" keyTimes="0;.343;.357;.543;.557;1" values="none;inline;none;inline;none;none"/></g><g display="none"><path id="Layer43_0_1_STROKES" stroke="#78C4C9" stroke-width="10" stroke-linejoin="round" stroke-linecap="round" fill="none" d="M127.85 157.65Q120.6 165.05 117.9 175.35 116.7 180.05 116.45 185.1 116.3 188.55 116.6 192.05 120.1 231.3 130.85 251.1 140.9 269.6 154.5 266.5 178.75 260.05 208.05 188.45"/><animate attributeName="display" repeatCount="indefinite" dur="2.917s" keyTimes="0;.329;.343;1" values="none;inline;none;none"/></g><g display="none"><path id="Layer42_0_1_STROKES" stroke="#78C4C9" stroke-width="10" stroke-linejoin="round" stroke-linecap="round" fill="none" d="M122.55 158.2Q117.15 166.3 115.4 176.55 114.7 181.3 114.7 186.25 114.75 189.7 115.15 193.2 119.9 232.25 130.85 251.5 141.1 269.6 154.6 266.5 178.75 259.9 208 188.45"/><animate attributeName="display" repeatCount="indefinite" dur="2.917s" keyTimes="0;.314;.329;1" values="none;inline;none;none"/></g><g display="none"><path id="Layer41_0_1_STROKES" stroke="#78C4C9" stroke-width="10" stroke-linejoin="round" stroke-linecap="round" fill="none" d="M117.3 158.8Q113.75 167.55 113 177.75 112.75 182.55 113.05 187.45 113.25 190.9 113.8 194.3 119.8 233.2 130.85 251.95 141.35 269.65 154.7 266.45 178.85 259.7 208 188.45"/><animate attributeName="display" repeatCount="indefinite" dur="2.917s" keyTimes="0;.3;.314;1" values="none;inline;none;none"/></g><g display="none"><path id="Layer40_0_1_STROKES" stroke="#78C4C9" stroke-width="10" stroke-linejoin="round" stroke-linecap="round" fill="none" d="M112.05 159.35Q110.35 168.75 110.6 178.95 110.75 183.75 111.35 188.6 111.75 192.05 112.4 195.4 119.65 234.15 130.85 252.35 141.6 269.65 154.8 266.4 178.9 259.5 208 188.45"/><animate attributeName="display" repeatCount="indefinite" dur="2.917s" keyTimes="0;.286;.3;1" values="none;inline;none;none"/></g><g display="none"><path id="Layer39_0_1_STROKES" stroke="#78C4C9" stroke-width="10" stroke-linejoin="round" stroke-linecap="round" fill="none" d="M106.85 159.9Q107 170 108.2 180.15 108.85 185 109.7 189.75 110.3 193.2 111.05 196.55 119.55 235.1 130.95 252.75 141.9 269.65 155 266.4 179 259.35 208.05 188.45"/><animate attributeName="display" repeatCount="indefinite" dur="2.917s" keyTimes="0;.271;.286;1" values="none;inline;none;none"/></g><g display="none"><path id="Layer38_0_1_STROKES" stroke="#78C4C9" stroke-width="10" stroke-linejoin="round" stroke-linecap="round" fill="none" d="M208 188.45Q178.6 260.25 155.05 266.35 127.6 273.45 107.95 190.95 104.55 176.5 101.55 160.5"/><animate attributeName="display" repeatCount="indefinite" dur="2.917s" keyTimes="0;.257;.271;1" values="none;inline;none;none"/></g><g display="none"><path id="Layer37_0_1_STROKES" stroke="#78C4C9" stroke-width="10" stroke-linejoin="round" stroke-linecap="round" fill="none" d="M108.9 185.55Q111.6 198.15 114.7 209.45 132.5 277.1 157.8 266.45 179.85 255.6 208 188.45"/><animate attributeName="display" repeatCount="indefinite" dur="2.917s" keyTimes="0;.243;.257;1" values="none;inline;none;none"/></g><g display="none"><path id="Layer36_0_1_STROKES" stroke="#78C4C9" stroke-width="10" stroke-linejoin="round" stroke-linecap="round" fill="none" d="M116.2 210.6Q118.65 219.8 121.5 227.95 137.45 280.75 160.55 266.6 181.15 250.9 208 188.45"/><animate attributeName="display" repeatCount="indefinite" dur="2.917s" keyTimes="0;.229;.243;1" values="none;inline;none;none"/></g><g display="none"><path id="Layer35_0_1_STROKES" stroke="#78C4C9" stroke-width="10" stroke-linejoin="round" stroke-linecap="round" fill="none" d="M123.55 235.65Q125.7 241.4 128.25 246.45 142.35 284.45 163.35 266.7 182.4 246.25 208 188.45"/><animate attributeName="display" repeatCount="indefinite" dur="2.917s" keyTimes="0;.214;.229;1" values="none;inline;none;none"/></g><g display="none"><path id="Layer34_0_1_STROKES" stroke="#78C4C9" stroke-width="10" stroke-linejoin="round" stroke-linecap="round" fill="none" d="M130.9 260.7Q132.75 263.05 135 264.95 147.3 288.1 166.1 266.85 183.65 241.55 208 188.45"/><animate attributeName="display" repeatCount="indefinite" dur="2.917s" keyTimes="0;.2;.214;1" values="none;inline;none;none"/></g><g display="none"><path id="Layer33_0_1_STROKES" stroke="#78C4C9" stroke-width="10" stroke-linejoin="round" stroke-linecap="round" fill="none" d="M138.2 285.75Q139.8 284.7 141.8 283.45 152.2 291.75 168.85 266.95 184.95 236.9 208 188.45"/><animate attributeName="display" repeatCount="indefinite" dur="2.917s" keyTimes="0;.186;.2;1" values="none;inline;none;none"/></g><g display="none"><path id="Layer32_0_1_STROKES" stroke="#78C4C9" stroke-width="10" stroke-linejoin="round" stroke-linecap="round" fill="none" d="M145.55 310.8Q146.85 306.35 148.55 301.95 157.15 295.4 171.6 267.1 186.2 232.2 208 188.45"/><animate attributeName="display" repeatCount="indefinite" dur="2.917s" keyTimes="0;.171;.186;1" values="none;inline;none;none"/></g><g display="none"><path id="Layer31_0_1_STROKES" stroke="#78C4C9" stroke-width="10" stroke-linejoin="round" stroke-linecap="round" fill="none" d="M152.9 335.85Q153.9 327.95 155.3 320.45 162.05 299.1 174.4 267.2 187.45 227.55 208 188.45"/><animate attributeName="display" repeatCount="indefinite" dur="2.917s" keyTimes="0;.157;.171;1" values="none;inline;none;none"/></g><g display="none"><path id="Layer30_0_1_STROKES" stroke="#78C4C9" stroke-width="10" stroke-linejoin="round" stroke-linecap="round" fill="none" d="M160.2 360.9Q160.95 349.6 162.1 338.95 167 302.75 177.15 267.35 188.75 222.85 208 188.45"/><animate attributeName="display" repeatCount="indefinite" dur="2.917s" keyTimes="0;.143;.157;1" values="none;inline;none;none"/></g><g display="none"><path id="Layer29_0_1_STROKES" stroke="#78C4C9" stroke-width="10" stroke-linejoin="round" stroke-linecap="round" fill="none" d="M208 188.45Q171.950 248.103 167.55 385.95"/><animate attributeName="display" repeatCount="indefinite" dur="2.917s" keyTimes="0;.129;.143;.9;.914;.986;1" values="none;inline;none;inline;none;inline;inline"/></g><g display="none"><path id="Layer21_0_1_STROKES" stroke="#78C4C9" stroke-width="10" stroke-linejoin="round" stroke-linecap="round" fill="none" d="M167.55 385.95Q171.95 248.1 208 188.45"/><animate attributeName="display" repeatCount="indefinite" dur="2.917s" keyTimes="0;.014;.129;.914;.986;1" values="none;inline;none;inline;none;none"/></g><g><path id="Layer20_0_1_STROKES" stroke="#78C4C9" stroke-width="10" stroke-linejoin="round" stroke-linecap="round" fill="none" d="M208 188.45Q171.950 248.103 167.55 385.95"/><animate attributeName="display" repeatCount="indefinite" dur="2.917s" keyTimes="0;.014;1" values="inline;none;none"/></g><path fill="#323034" stroke="none" d="M217.75 196.1L199.25 182.6Q184.55 202.75 174.8 237.15L196.8 243.45Q205.55 212.8 217.75 196.1Z"/><path fill="#CCD651" stroke="none" d="M294.05 72.5Q294.05 50.35 278.4 34.65 262.75 19 240.6 19 218.45 19 202.75 34.65 187.1 50.35 187.1 72.5 187.1 94.65 202.75 110.35 218.45 126 240.6 126 262.75 126 278.4 110.35 294.05 94.65 294.05 72.5Z"/><path fill="#77C4C9" stroke="none" d="M270.35 185Q268.55 186.3 268.2 188.5 267.9 190.7 269.2 192.5 294.05 226.55 303.8 309.3 308.7 350.8 308.65 386.35 308.6 388.55 310.2 390.15 311.75 391.7 313.95 391.75L314 391.75Q316.2 391.75 317.75 390.2 319.3 388.6 319.35 386.4 319.4 377.25 318.8 363.05 317.6 334.7 314.5 308.45 304.4 222.55 277.8 186.2 276.55 184.4 274.35 184.05 272.15 183.7 270.35 185Z"/><path fill="#323034" stroke="none" d="M282.7 182.6L264.2 196.1Q276.4 212.8 285.15 243.45L307.15 237.15Q297.4 202.75 282.7 182.6Z"/><path fill="#323034" stroke="none" d="M217.75 196.1L199.25 182.6Q184.55 202.75 174.8 237.15L196.8 243.45Q205.55 212.8 217.75 196.1Z"/><path fill="#323034" stroke="none" d="M241.75 162.6L240.95 162.6Q217.65 162.6 202.05 179.4 187 195.55 186.5 218.7 185.1 283.45 187.7 350.5L295 350.5Q297.55 283.05 296.15 218.7 295.65 195.55 280.65 179.4 265.05 162.6 241.75 162.6Z"/><path fill="#77C4C9" stroke="none" d="M224.85 171.75Q224.85 179.9 232.9 187.35 236.9 191.05 240.9 193.15L243.4 191.65Q246.4 189.65 248.95 187.35 256.95 179.9 256.95 171.75L256.95 117.55 224.85 117.55 224.85 171.75Z"/><path fill="#50AEE1" stroke="none" d="M225.85 142.2Q232.45 146.55 240.6 146.55 248.75 146.55 255.35 142.2L255.9 141.8Q256.95 141.15 256.95 139.9L256.95 109.9 224.85 109.9 224.85 140.3Q224.85 141.45 225.85 142.2Z"/><path fill="#77C4C9" stroke="none" d="M270.6 49.25Q264.8 44.7 257.25 42.2 249.45 39.65 240.9 39.65 223.5 39.65 211.2 49.25 198.9 58.85 198.9 72.45L198.9 89.2Q199.15 102.2 206.05 113.85 213.2 125.95 226.15 134.55 232.75 138.95 240.9 138.95 249.05 138.95 255.65 134.55 268.6 125.95 275.75 113.85 282.9 101.75 282.9 88.45L282.9 72.45Q282.9 65.8 279.6 59.7 276.4 53.8 270.6 49.25Z"/><path fill="#1A3851" stroke="none" d="M217.1 91.7Q217.85 91.7 218.4 91.3 219.05 90.85 219.25 90.15 219.75 88.75 220.95 87.85 222.15 87 223.6 87 225 87 226.15 87.75 227.3 88.5 227.85 89.8 228.25 90.65 229.1 91 230 91.4 230.85 91 231.7 90.65 232.05 89.75 232.45 88.85 232.05 88 230.95 85.45 228.65 83.95 226.35 82.4 223.6 82.4 220.65 82.4 218.25 84.15 215.85 85.9 214.9 88.7 214.6 89.6 215.05 90.45 215.45 91.25 216.35 91.55L217.1 91.7Z"/><path fill="#1A3851" stroke="none" d="M262.35 84.15Q259.95 82.4 257 82.4 254.25 82.4 251.95 83.95 249.65 85.45 248.55 88 248.2 88.85 248.55 89.75 248.9 90.65 249.75 91 250.6 91.4 251.5 91 252.4 90.65 252.75 89.8 253.3 88.5 254.45 87.75 255.6 87 257 87 258.45 87 259.65 87.85 260.85 88.75 261.35 90.15 261.55 90.85 262.2 91.3 262.8 91.7 263.5 91.7L264.25 91.55Q265.15 91.3 265.6 90.45 266 89.6 265.7 88.7 264.75 85.9 262.35 84.15Z"/><path fill="#50AEE1" stroke="none" d="M242.7 87.15Q241.85 86.25 240.55 86.25 239.3 86.25 238.4 87.15 237.5 88.05 237.5 89.3L237.5 112.2Q237.5 113.45 238.4 114.35 239.3 115.25 240.55 115.25 241.85 115.25 242.7 114.35 243.6 113.5 243.6 112.2L243.6 89.3Q243.6 88.05 242.7 87.15Z"/><path fill="#AB95C1" stroke="none" d="M278.5 104.95L278.75 104.55 278.55 104.55 278.5 104.95Z"/><path fill="#CCD651" stroke="none" d="M271.7 42.65Q265.65 37.55 257.85 34.7 249.75 31.8 240.9 31.8 222.85 31.8 210.1 42.7 197.35 53.6 197.35 69L197.4 88 197.55 88Q219.85 88 241 67.8 251.6 57.7 257.7 47.6 257.7 59.5 266 69.35 272.65 77.25 284.45 83.6L284.45 69Q284.45 61.45 281 54.5 277.7 47.8 271.7 42.65Z"/><path fill="#AB95C1" stroke="none" d="M225.75 383.8Q233.15 386.4 240.95 386.4L241.65 386.4Q249.35 386.4 256.85 383.8L256.85 496.35 281.9 496.35Q282.45 490.95 282.8 485.65 288.6 417.15 290.95 350.5L191.65 350.5Q194 416.6 199.75 485.65L200.65 496.35 225.75 496.35 225.75 383.8Z"/><path fill="#77C4C9" stroke="none" d="M210.25 590.3L225.8 590.3 225.8 496.35 200.7 496.35Q204.75 542.35 210.25 590.3Z"/><path fill="#77C4C9" stroke="none" d="M281.9 496.35L256.85 496.35 256.85 590.3 272.4 590.3Q278 541.55 281.9 496.35Z"/><path fill="#323034" stroke="none" d="M225.8 485.65L199.8 485.65 200.7 496.35 225.8 496.35 225.8 485.65Z"/><path fill="#323034" stroke="none" d="M282.85 485.65L256.9 485.65 256.9 496.35 281.95 496.35Q282.5 490.95 282.85 485.65Z"/></g></svg>
