<svg width="160px" version="1.1" id="Layer_1" xmlns="http://www.w3.org/2000/svg" xmlns:xlink="http://www.w3.org/1999/xlink" x="0px" y="0px"
				viewBox="-49 141 512 512" style="enable-background:new -49 141 512 512;" xml:space="preserve">
				
				<style>
#Circleelement {
    -webkit-animation-name: rotate; 
    -webkit-animation-duration: .4s; 
    -webkit-animation-iteration-count: infinite;
    -webkit-animation-timing-function: linear;
    -moz-animation-name: rotate; 
    -moz-animation-duration: .4s; 
    -moz-animation-iteration-count: infinite;
    -moz-animation-timing-function: linear;
    animation-name: rotate; 
    animation-duration: .4s; 
    animation-iteration-count: infinite;
    animation-timing-function: linear;

}
@-webkit-keyframes rotate {
    from {-webkit-transform: rotate(0deg);}
    to {-webkit-transform: rotate(360deg);}
}

@-moz-keyframes rotate {
    from {-moz-transform: rotate(0deg);}
    to {-moz-transform: rotate(360deg);}
}

@keyframes rotate {
    from {transform: rotate(0deg);}
    to {transform: rotate(360deg);}
}

@-moz-keyframes rotate {
    from {-moz-transform: rotate(0deg);}
    to {-moz-transform: rotate(360deg);}
}

@keyframes rotate {
    from {transform: rotate(0deg);}
    to {transform: rotate(360deg);}
}


.tbody {
    -webkit-animation-name: shake; 
    -webkit-animation-duration: 2s; 
    -webkit-animation-iteration-count: infinite;
    -webkit-animation-timing-function: linear;
    -moz-animation-name: shake; 
    -moz-animation-duration: 2s; 
    -moz-animation-iteration-count: infinite;
    -moz-animation-timing-function: linear;
    animation-name: shake; 
    animation-duration: 2s; 
    animation-iteration-count: infinite;
    animation-timing-function: linear;

}
@-webkit-keyframes shake {
    10%, 90% {
    transform: translate3d(0, -2px,0px);
  }
  
  20%, 80% {
    transform: translate3d( 0,3px,0px);
  }

  30%, 50%, 70% {
    transform: translate3d(0,-4px,0px);
  }

  40%, 60% {
    transform: translate3d(0,4px,0px);
  }
}
</style>
				
				
				
				<g class="tbody">
				<g>
				<path style="fill:#EE2011;" d="M457.605,338.101l-76.712-84.383c-3.928-4.317-9.498-6.788-15.342-6.788h-96.759v300.138h44.138
				c0-29.246,23.711-52.966,52.966-52.966c29.255,0,52.966,23.72,52.966,52.966h44.138v-195.01
				C462.999,346.893,461.075,341.914,457.605,338.101"/>
				<path style="fill:#FAC75A;" d="M268.793,441.138H-49V219.336c0-14.009,11.361-25.37,25.37-25.37h267.052
				c14.009,0,25.37,11.361,25.37,25.37V441.138z"/>
				<path style="fill:#E6E6E6;" d="M319.275,388.172h143.722V352.05c0-5.155-1.924-10.134-5.394-13.948l-50.776-55.861h-87.552
				c-3.505,0-6.347,2.842-6.347,6.347v93.237C312.928,385.33,315.771,388.172,319.275,388.172"/>
				<g>
				</g>
				<path style="fill:#C64533;" d="M-49,441.138v83.871c0,12.182,9.878,22.06,22.06,22.06h22.078c0-29.255,23.711-52.966,52.966-52.966
				s52.966,23.711,52.966,52.966h167.724V441.138H-49z"/>
				<path style="fill:#F4A29B;" d="M463,441.138h-52.966c-4.882,0-8.828,3.946-8.828,8.828s3.946,8.828,8.828,8.828H463V441.138z"/>
				<g>
				<path style="fill:#D8AC4E;" d="M83.414,370.517c4.873,0,8.828-3.946,8.828-8.828c0-4.882-3.955-8.828-8.828-8.828H-49v17.655
				H83.414z"/>
				<path style="fill:#D8AC4E;" d="M48.103,326.379c4.873,0,8.828-3.946,8.828-8.828s-3.955-8.828-8.828-8.828H-49v17.655H48.103z"/>
				</g>
				</g>
				</g>
				<g transform="translate(47.5 550)">
				<g id="Circleelement">
				<g transform="translate(-47.5 -550)">
				<path style="fill:#444;" d="M8.5,519.875l0.958-1.271l-1.979-1.271c1.32-1.953,2.957-3.855,4.896-5.708l1.646,1.458l1.042-1.104
				l-1.396-1.646c1.864-1.957,4.032-3.73,6.521-5.313l1.229,1.729l1.333-0.813l-1.229-1.854c2.332-1.606,4.846-2.908,7.563-3.875
				l0.708,2l1.625-0.5l-0.75-2.208c2.109-0.952,4.774-1.721,7.917-2.333l0.25,2.083l1.708-0.042l0-2.333
				c1.882-0.408,4.392-0.624,7.125-0.772l0,2.355h1.792l0-2.355c3.289,0.089,6.081,0.411,8.25,1.022l-0.208,2.167l1.583,0.25
				l0.5-2.167c3.392,0.807,6.113,1.678,8.042,2.625l-0.708,2.25l1.25,0.458l1.042-2.083c2.7,1.09,5.045,2.407,6.958,4l-1,2l1,0.75
				l1.667-1.708c2.292,1.427,4.177,3.002,5.583,4.75L82.083,512l1,1.083l1.667-1.417c0.283-0.026,4.871,4.924,5.292,6.25l-1.75,1.583
				l0.958,1.417l1.75-1.25c0.108-0.162,3.809,5.578,3.833,7.292l-1.792,0.958l0.5,1.5l2.042-0.833c0.25,0.004,2.386,5.548,2.25,7.792
				l-2,0.583l0.083,1.667l2.292-0.417c0.37,0.432,1.104,5.807,0.861,7.5h-2.361l0.083,1.583h2.277c0,0-0.486,7.708-0.944,8.583
				l-2.208-0.208l-0.25,1.542l2,0.333c0,0-1.375,6.5-2.333,8.208l-2.458-0.583l-0.333,1.458l1.833,0.833
				c-1.065,2.553-2.291,4.856-3.75,6.792l-1.792-1.125l-1,1.125l1.583,1.375c-1.18,2.263-2.739,4.205-4.667,5.833l-1.542-1.583
				l-1.167,1.583l1.458,1.292c-2.119,2.015-4.321,3.817-6.667,5.25l-1.25-1.542l-1.25,0.75l1.083,1.667
				c-2.226,1.682-4.62,3.046-7.208,4.042l-0.833-2.125l-1.583,0.625l0.75,2.125c-0.156,0.237-6.774,2.475-7.875,2.375l-0.333-2.208
				l-2.042,0.25l0.458,2.208c-0.321,0.298-5.043,0.949-7.333,0.87l0-2.245l-1.458,0.083l-0.208,1.917
				c-0.198,0.13-7.137-0.049-8.333-0.708l0.292-2.375L38,593.583l-0.25,2.292c-0.117,0.113-7.028-1.685-8.25-2.667l0.625-1.917
				l-1.208-0.542l-0.875,1.833c-0.111,0.124-5.548-2.347-7.208-4.125l1.292-1.542l-1.417-1.208l-1.208,1.75
				c-0.203,0.151-5.163-3.212-5.896-4.729L15,581.271l-1.042-1.208l-1.333,1.521c-0.359,0.135-5.168-5.125-5.479-6.542l1.792-1.25
				L8,572.333l-1.938,1.208c-0.578-0.276-3.455-5.816-3.979-7.458l2.229-1.125l-0.708-1.271l-2.042,0.854c0,0-2.292-6.292-2.271-7.875
				l2.188-0.521l-0.438-1.667l-2.125,0.458c0,0-0.875-5.875-0.688-7.604l2.438-0.042l-0.104-1.521l-2.36-0.063
				c0,0,0.026-6.667,0.922-8.417l2.5,0.104l-0.021-1.417l-2.188-0.333c0,0,1.417-6.625,2.604-8.146l2.208,0.708l0.375-1.354
				l-2.042-0.896c0,0,2.542-5.875,4.125-7.167L8.5,519.875z"/>
				<circle style="fill:#FFFFFF;" cx="48.5" cy="546.833" r="29.5"/>
				<path style="fill:#282525;" d="M27.281,533.688c-0.344-4.031,10.781-12.25,15.406-11.469c2.618,1.225,0.609,14.594-0.328,15.047
				C41.103,537.872,27.512,536.618,27.281,533.688z"/>
				<path style="fill:#282525;" d="M54.302,522.36c3.738-1.549,14.941,6.562,15.598,11.206c-0.374,2.867-13.723,5.003-14.439,4.247
				C54.502,536.801,51.579,523.469,54.302,522.36z"/>
				<path style="fill:#282525;" d="M73.463,544.435c2.664,3.045-1.434,16.255-5.623,18.365c-2.836,0.563-9.133-11.399-8.646-12.319
				C59.847,549.248,71.542,542.211,73.463,544.435z"/>
				<path style="fill:#282525;" d="M58.255,569.644c-2.088,3.465-15.919,3.587-19.205,0.24c-1.4-2.529,8.075-12.172,9.099-11.988
				C49.523,558.141,59.788,567.136,58.255,569.644z"/>
				<path style="fill:#282525;" d="M29.742,562.797c-3.921-0.999-8.032-14.205-5.776-18.317c2.017-2.071,13.985,4.215,14.105,5.249
				C38.232,551.114,32.586,563.54,29.742,562.797z"/>
				<circle style="fill:#282525;" cx="41.333" cy="544.083" r="2.083"/>
				<circle style="fill:#282525;" cx="48.66" cy="538.917" r="2.083"/>
				<circle style="fill:#282525;" cx="55.827" cy="544.004" r="2.083"/>
				<circle style="fill:#282525;" cx="53.17" cy="552.67" r="2.083"/>
				<circle style="fill:#282525;" cx="43.982" cy="552.67" r="2.083"/>
				</g>
				</g>
				</g>
				<g transform="translate(365.9 550)">
				<g id="Circleelement">
				<g transform="translate(-365.9 -550)">
				<path style="fill:#444;" d="M325.736,521.398l0.958-1.271l-1.979-1.271c1.32-1.953,2.957-3.855,4.896-5.708l1.646,1.458
				l1.042-1.104l-1.396-1.646c1.864-1.957,4.032-3.73,6.521-5.313l1.229,1.729l1.333-0.813l-1.229-1.854
				c2.332-1.606,4.846-2.908,7.563-3.875l0.708,2l1.625-0.5l-0.75-2.208c2.109-0.952,4.774-1.721,7.917-2.333l0.25,2.083l1.708-0.042
				v-2.333c1.882-0.408,4.392-0.624,7.125-0.772v2.355h1.792v-2.355c3.289,0.089,6.081,0.411,8.25,1.022l-0.208,2.167l1.583,0.25
				l0.5-2.167c3.392,0.807,6.113,1.678,8.042,2.625l-0.708,2.25l1.25,0.458l1.042-2.083c2.7,1.09,5.045,2.407,6.958,4l-1,2l1,0.75
				l1.667-1.708c2.292,1.427,4.177,3.002,5.583,4.75l-1.333,1.583l1,1.083l1.667-1.417c0.283-0.026,4.871,4.924,5.292,6.25
				l-1.75,1.583l0.958,1.417l1.75-1.25c0.108-0.162,3.809,5.578,3.833,7.292l-1.792,0.958l0.5,1.5l2.042-0.833
				c0.25,0.004,2.386,5.548,2.25,7.792l-2,0.583l0.083,1.667l2.292-0.417c0.37,0.432,1.104,5.807,0.861,7.5h-2.361l0.083,1.583h2.277
				c0,0-0.486,7.708-0.944,8.583l-2.208-0.208l-0.25,1.542l2,0.333c0,0-1.375,6.5-2.333,8.208l-2.458-0.583l-0.333,1.458l1.833,0.833
				c-1.065,2.553-2.291,4.856-3.75,6.792l-1.792-1.125l-1,1.125l1.583,1.375c-1.18,2.263-2.739,4.205-4.667,5.833l-1.542-1.583
				l-1.167,1.583l1.458,1.292c-2.119,2.015-4.321,3.817-6.667,5.25l-1.25-1.542l-1.25,0.75l1.083,1.667
				c-2.226,1.682-4.62,3.046-7.208,4.042l-0.833-2.125l-1.583,0.625l0.75,2.125c-0.156,0.237-6.774,2.475-7.875,2.375l-0.333-2.208
				l-2.042,0.25l0.458,2.208c-0.321,0.298-5.043,0.949-7.333,0.87v-2.245l-1.458,0.083l-0.208,1.917
				c-0.198,0.13-7.137-0.049-8.333-0.708l0.292-2.375l-1.708-0.125l-0.25,2.292c-0.117,0.113-7.028-1.685-8.25-2.667l0.625-1.917
				l-1.208-0.542l-0.875,1.833c-0.111,0.124-5.548-2.347-7.208-4.125l1.292-1.542l-1.417-1.208l-1.208,1.75
				c-0.203,0.151-5.163-3.212-5.896-4.729l1.396-1.458l-1.042-1.208l-1.333,1.521c-0.359,0.135-5.168-5.125-5.479-6.542l1.792-1.25
				l-0.938-1.458l-1.938,1.208c-0.578-0.276-3.455-5.816-3.979-7.458l2.229-1.125l-0.708-1.271l-2.042,0.854
				c0,0-2.292-6.292-2.271-7.875l2.188-0.521l-0.438-1.667l-2.125,0.458c0,0-0.875-5.875-0.688-7.604l2.438-0.042l-0.104-1.521
				l-2.36-0.063c0,0,0.026-6.667,0.922-8.417l2.5,0.104l-0.021-1.417l-2.188-0.333c0,0,1.417-6.625,2.604-8.146l2.208,0.708
				l0.375-1.354l-2.042-0.896c0,0,2.542-5.875,4.125-7.167L325.736,521.398z"/>
				<circle style="fill:#FFFFFF;" cx="365.736" cy="548.357" r="29.5"/>
				<path style="fill:#282525;" d="M344.517,535.211c-0.344-4.031,10.781-12.25,15.406-11.469c2.618,1.225,0.609,14.594-0.328,15.047
				C358.339,539.396,344.748,538.141,344.517,535.211z"/>
				<path style="fill:#282525;" d="M371.537,523.884c3.738-1.549,14.941,6.562,15.598,11.206c-0.374,2.867-13.723,5.003-14.439,4.247
				C371.738,538.324,368.815,524.992,371.537,523.884z"/>
				<path style="fill:#282525;" d="M390.698,545.958c2.664,3.045-1.434,16.255-5.623,18.365c-2.836,0.563-9.133-11.399-8.646-12.319
				C377.082,550.771,388.777,543.734,390.698,545.958z"/>
				<path style="fill:#282525;" d="M375.491,571.167c-2.088,3.465-15.919,3.587-19.205,0.24c-1.4-2.529,8.075-12.172,9.099-11.988
				C366.758,559.664,377.024,568.659,375.491,571.167z"/>
				<path style="fill:#282525;" d="M346.978,564.32c-3.921-0.999-8.032-14.205-5.776-18.317c2.017-2.071,13.985,4.215,14.105,5.249
				C355.468,552.637,349.822,565.063,346.978,564.32z"/>
				<circle style="fill:#282525;" cx="358.569" cy="545.607" r="2.083"/>
				<circle style="fill:#282525;" cx="365.896" cy="540.44" r="2.083"/>
				<circle style="fill:#282525;" cx="373.062" cy="545.527" r="2.083"/>
				<circle style="fill:#282525;" cx="370.406" cy="554.193" r="2.083"/>
				<circle style="fill:#282525;" cx="361.218" cy="554.193" r="2.083"/>
				<!-- <animateTransform attributeType="xml"
				attributeName="transform"
				type="rotate"
				from="0 50 10"
				to="360 50 10"
				dur="3s"
				repeatCount="indefinite"/> -->
				</g>
				</g></g>
				</svg>