

<!--EMOJI TWO-->
<svg class="emoji-two" xmlns="http://www.w3.org/2000/svg"
	 viewBox="0 0 600 600">
<style type="text/css">
	.st18{fill:#ECCDB5;}
	.st19{fill:#DBA275;}
	.st20{fill:#E5B595;}
	.st21{fill:#E2A996;}
	.st22{fill:#DAB598;}
	.st23{fill:#190605;}
	.st24{fill:#39271E;}
	.st25{fill:#CF7585;}
	.st26{fill:#494345;}
	.st27{fill:#0C0708;}
	





/*ANIMATION 1 EMOJI 2*/  
.eyebrows {
	animation: raise 2s linear infinite;
}            
@keyframes raise {
	0%, 30%, 60%, 100% {
		transform: translateY(0px);
	}
	15%, 45% {
		transform: translateY(-15px);
	}
}  

/*ANIMATION 2 EMOJI 2*/            
.emoji-two {
	animation: tilt 2s linear infinite;
	transform: rotate(-5deg);
}
@keyframes tilt {
	0% {
		transform: rotate(-5deg);
	}
	50% {
		transform: rotate(-6deg);
		transform-origin: 50% 50%;
	}
}

/*ANIMATION 3 EMOJI 2*/  
.tongue {
	animation: pant 1.5s linear infinite;
}
@keyframes pant {
	0% {
		transform: translateY(0px);
	}
	50% {
		transform: translateY(-20px);
	}
}

/*ANIMATION 4 EMOJI 2*/  
.eyes-dog ellipse {
	animation: dogBlink 3s linear infinite;
}
@keyframes dogBlink {
	47%, 53%  {
		fill: #190605;
	}
	50% {
		fill: #DBA275;
	}
}

</style>

<g id="facebottom">
	<path class="st18" d="M181.3,16.9c0,0-45.7,3.3-50.6,125.7c0,0,9.7,48.1,9.7,55.4s-8.9,31.1-4.8,36c4.1,4.9-16.4,38.7-32.8,62.5
		C74.3,338.2,71.1,391.3,87,438.4c14.3,42.2,45.5,76.5,85.9,95.3c44.1,20.5,108.1,30.6,154.6,14.5c36.3-12.5,69.3-36.8,93-66.9
		c27-34.3,33.6-79.9,30.1-122.3c-0.1-1.2-0.2-2.4-0.3-3.5c-0.5-5.1,1.2-10.3,0.2-15.6c0,0,48.3-30.6,54.3-54.6
		c0,0,52.3-128.3,47.1-141c-20.6-7-124.6,55.4-145.9,62s-35.5,16.5-133.4-24.3c0,0-18.2-24.2-14.4-35.4
		C258.1,146.5,234.4,6.3,181.3,16.9z"/>
</g>
<g id="facetop">
	<path class="st19" d="M184.9,15c0,0-52.8,3.1-55.7,108.8c-2.9,105.6,5.8,114.3,5.8,114.3c2.6,2.6-14,30.3-16.2,33.9
		c-6.4,10.3-17.5,20.5-17.7,33.4c-0.4,27.4,31.6,37.2,53.4,36.2c27-1.3,50.4-12.9,73.9-25.2c11.9-6.2,38.9-25.1,53.1-16.4
		c12.1,7.4,17.8,22.5,23.6,34.7c10.8,22.4,25.7,42.2,41.9,60.8c13.3,15.3,27.3,32.3,47.2,39c20.9,7,52.9-13.7,57.4-34.4
		c2.4-11.1,2.5-22.6,1.7-33.9c-0.4-5.7-4.4-19.9,0.5-24.5c3.5-3.3,10.7-4.3,15-6.5c10-5.1,18.4-12.9,24.5-22.3
		c2.6-4.1,4.9-8.5,6.7-13c2.6-6.3,2.8-12.7,8.1-17.7c6.3-5.9,11.9-12.4,17.1-19.2c16.7-22,28.4-48.1,31.6-75.7
		c1.3-11.5,1.2-23.1-0.3-34.6c0,0-7.7-33.6-57.6-12.5s-93.2,59.2-93.2,59.2s-19.4,15.7-52,4.2c-13.1-4.7-26.8-9.1-40.2-13.5
		c-7-2.3-14-4.6-21-6.8c-4.6-1.5-15.7-2.6-18-7.8c-1.7-4-2.8-8.3-4.6-12.2c-4-8.8-9.5-17.1-12-26.4c-2.3-8.6-4.4-17.3-6.7-26
		c-6.2-23.3-13.4-47.2-26.1-67.9C216.5,28.6,203.1,13.9,184.9,15z"/>
</g>
	<g id="ears">
		<path class="st20" d="M422.9,256.9c0,0-14.7-34.3-9.8-41.6c4.9-7.3,52.2-64.5,99.6-70.2c47.3-5.7,22,72.6,16.3,90.6
			s-80.8,77.5-80.8,77.5S424.4,272.3,422.9,256.9z"/>
		<path class="st20" d="M217.3,177.4l26.9-24.2c0,0,0-50.6-8.2-65.3s-9-44.1-51.4-53s-44.9,119.8-44.1,137.4s10.6,56.8,10.6,56.8
			L217.3,177.4z"/>
		<path class="st21" d="M422.9,256.9c0,0,21.2-49,68.6-57.1c47.3-8.2-46.5,108.5-46.5,108.5S426.1,282.2,422.9,256.9z"/>
		<path class="st21" d="M183.7,105c2.4,0.3,5.1,1.4,8,3.7c5.5,4.3,10.2,10.9,13.9,16.8c4.6,7.2,7.9,15.2,10,23.6
			c1.9,7.5,9.7,19.1,5,25.3c-12.8,16.9-28.4,29.1-45.8,36.2c-9.7,4-13.8-35.2-13.9-41.1C160.7,158.2,164.7,103,183.7,105z"/>
	</g>
	<g class="eyebrows">
		<path class="st22" d="M192.3,258.3c21.2-5.9,42.6-16.8,51.9,12c9.5,6.3,27.2-6.1,27.2-16.5c0-18.1-13.9-23.8-29.9-21.6
			C229.2,233.8,202.2,239.2,192.3,258.3z"/>
		<path class="st22" d="M333.4,258.3c-3,0.2-6.1,1.2-9.3,3.2c-5.5,3.5-10.9,8.1-13.7,14.2c-1.7,3.6-2.3,7.4-2,11.4
			c0.1,1.4,4,13.3,4.6,12.9c22.4-16.5,46.2-9.6,61,12.1c3.7-14.2-4-28.9-13.9-38.6C352.3,265.8,343.4,257.8,333.4,258.3z"/>
	</g>
	<path class="st23" d="M212.1,263.9c-0.1,0.1-0.2,0.3-0.3,0.4c-1,1.9-1.4,4.4-1.3,6.5c0.3,3.4,2.7,5.3,5.9,5.8
		c9.9,1.5,11.4-4.6,11.4-4.6s2.4-7.3-4.2-9.8c-2.1-0.8-4.5-1-6.7-0.6C215.4,261.8,213.2,262.5,212.1,263.9z"/>
	<g class="eyes-dog">
		<ellipse class="st23" cx="337.9" cy="310.9" rx="19" ry="18.6"/>
		
			<ellipse transform="matrix(0.9956 -9.416199e-02 9.416199e-02 0.9956 -24.6559 21.9883)" class="st23" cx="220.7" cy="272.3" rx="19.4" ry="17.3"/>
	</g>
	<g id="mouth">
		<path class="st24" d="M174.7,352.6c2.5,3.5-0.4,9.3-0.9,13.1c-2.1,16.2,2.7,36.3,15.2,47.4c3,2.6,6.1,4.9,9.8,6.3
			c21.1,8,31.5-1.2,31.5-1.2c1,0,1.9,0.2,2.7,0.5c2.5,13.9,7.1,11.8,11.3,14.4c19,12,18.2,8,27,10.2c6.1,1.5,14.3-2.2,20.1-4
			c14.5-4.5,28-12.3,38.4-23.3c1.6-1.7,3.3-3.5,4.7-5.4c1.9-2.8,3.2-5.9,7.1-4.6c2.2,0.7,3.7,2.8,4.5,4.9c2.6,6.7,0.7,14.9-2,21.2
			c-4.1,9.7-11.5,17.7-20.5,23.1c-7.2,4.3-15.3,7-23.6,8.3c-52.2,8.3-108,11.8-126.6-44.1c-4.6-13.8-8.6-28.2-9.9-42.8
			c-0.6-6.9-1.2-15.6,2.2-22c1.1-2,2.8-3.9,5.3-3.9C172.7,350.9,173.9,351.6,174.7,352.6z"/>
		<path class="tongue st25" d="M198.8,419.4c0,0-7.2,14.3-14.9,28.7s-2.1,60.9,26.7,69.9s53.9-13.7,57.5-42.4
			c3.6-28.7,3.2-32.3,3.2-32.3s-23.7-4.2-38.6-25.4l-2.1-0.2C230.6,417.7,217,425.9,198.8,419.4z"/>
	</g>
	<g id="nosepiece">
		<path class="st18" d="M174.2,363.4c-2.1,7.7-2.5,43.3,24.5,56c15.9,6.8,31.8-1.7,31.8-1.7l-55.4-64.1
			C175.2,353.6,176.3,355.7,174.2,363.4z"/>
		<path class="st18" d="M232.7,418c0,0,14.3,21.3,38.6,25.4c4.3,1.9,15.5-2.5,15.5-2.5s19.4-6.2,23.4-9.7c4-3.4-5.1-54.7-5.1-54.7
			l-38.5-36.3l-73.3,8.5l-18.1,5"/>
	</g>
	<g id="nose">
		<path class="st26" d="M261.5,367.2c0,0-34.5-15.9-47.1-6.9c-15.4,10.9-12.5,32-2.1,45.4c4,5.2,9.7,10.4,16.4,11.8
			c9.4,1.9,31.3,1.2,41.2-13.9S271.8,371.3,261.5,367.2z"/>
		<path class="st27" d="M216.8,403.3c0,0,12.6-4.8,9.2-15.8c-1.6-4.8-9.2-5.4-11.5-1.4s-1.5,6.2,1.5,8.6c3,2.4-1.2,8.6-1.2,8.6
			S215.3,404,216.8,403.3z"/>
		<path class="st27" d="M250.9,413.7c0,0-11.3-7.4-5.6-17.4c2.5-4.3,10.2-3.3,11.5,1.1c1.3,4.4,0.1,6.4-3.3,8.1
			c-3.4,1.7-0.7,8.6-0.7,8.6S252.2,414.7,250.9,413.7z"/>
	</g>
</svg>

