
<svg width="332px" height="217px" viewBox="227 2335 332 217" version="1.1" xmlns="http://www.w3.org/2000/svg" xmlns:xlink="http://www.w3.org/1999/xlink"> <!-- viewBox="227 2347 332 217" -->
    <defs>
        <path d="M24.7035955,0 L0,185 C0,185 54.4003966,178.606732 74.4429692,178.606732 C90.0311525,178.606732 96.5004359,185 96.5004359,185 C96.5004359,185 102.968848,178.606732 118.557031,178.606732 C138.599603,178.606732 193,185 193,185 L168.295533,0 L24.7035955,0 Z" id="path-1"></path>
    </defs>
    <g id="landing-a2" stroke="none" stroke-width="1" fill="none" fill-rule="evenodd" transform="translate(229.000000, 2322.000000)"> <!-- transform="translate(229.000000, 2347.000000)" -->
        <g id="rule" transform="translate(100.500000, 95.500000) rotate(-10.000000) translate(-100.500000, -95.500000) translate(9.000000, 41.000000)">
            <path d="M27.6658,26.782 L89.4998,26.782 L27.6658,63.375 L27.6658,26.782 Z M0.4998,0.5 L0.4998,108.5 L182.9998,0.5 L0.4998,0.5 Z" id="Fill-1" fill="#ECE7D9"></path>
            <g id="Group-26" stroke="#34373E" stroke-width="3" stroke-linejoin="round">
                <path d="M27.6658,26.782 L89.4998,26.782 L27.6658,63.375 L27.6658,26.782 Z M0.4998,0.5 L0.4998,108.5 L182.9998,0.5 L0.4998,0.5 Z" id="Stroke-2"></path>
                <path d="M27.4997,13.8338 L27.4997,0.4998" id="Stroke-4"></path>
                <path d="M54.4997,13.8338 L54.4997,0.4998" id="Stroke-6"></path>
                <path d="M81.4997,13.8338 L81.4997,0.4998" id="Stroke-8"></path>
                <path d="M108.4997,13.8338 L108.4997,0.4998" id="Stroke-10"></path>
                <path d="M135.4997,13.8338 L135.4997,0.4998" id="Stroke-12"></path>
                <path d="M13.9997,8.1668 L13.9997,0.8328" id="Stroke-14"></path>
                <path d="M40.9997,8.1668 L40.9997,0.8328" id="Stroke-16"></path>
                <path d="M67.9997,8.1668 L67.9997,0.8328" id="Stroke-18"></path>
                <path d="M94.9997,8.1668 L94.9997,0.8328" id="Stroke-20"></path>
                <path d="M121.9997,8.1668 L121.9997,0.8328" id="Stroke-22"></path>
                <path d="M148.9997,8.1668 L148.9997,0.8328" id="Stroke-24"></path>
            </g>
        </g>
        <g id="book" transform="translate(37.000000, 0.000000)">
            <path d="M241.371409,203.639541 L224.951889,81.4913431 L17.0715652,81.4913431 L0.652045646,203.639541 L104.853956,203.639541 C104.853956,206.182553 106.907601,208.243193 109.440022,208.243193 L131.94419,208.243193 C134.477487,208.243193 136.530256,206.182553 136.530256,203.639541 L241.371409,203.639541 Z" id="Fill-15" fill="#F47965"></path>
            <path d="M241.371409,203.639541 L224.951889,81.4913431 L17.0715652,81.4913431 L0.652045646,203.639541 L104.853956,203.639541 C104.853956,206.182553 106.907601,208.243193 109.440022,208.243193 L131.94419,208.243193 C134.477487,208.243193 136.530256,206.182553 136.530256,203.639541 L241.371409,203.639541 Z" id="Stroke-17" stroke="#34373E" stroke-width="3" stroke-linejoin="round"></path>
            <polygon id="Fill-19" fill="#ECE7D9" points="227.665122 196.884759 14.3586835 196.884759 29.8706354 81.4915192 212.154047 81.4915192"></polygon>
            <polygon id="Stroke-21" stroke="#34373E" stroke-width="3" stroke-linejoin="round" points="227.665122 196.884759 14.3586835 196.884759 29.8706354 81.4915192 212.154047 81.4915192"></polygon>
            <path d="M203.239278,75.0583766 C203.239278,75.0583766 162.819638,68.6343886 143.196011,68.6343886 C125.597969,68.6343886 121.01278,75.0583766 121.01278,75.0583766 L121.01278,185.974718 C121.01278,185.974718 127.517452,179.55073 143.196011,179.55073 C163.353656,179.55073 218.066389,185.974718 218.066389,185.974718 L203.239278,75.0583766 Z" id="Fill-23" fill="#FFFFFF"></path>
            <path d="M203.239278,75.0583766 C203.239278,75.0583766 162.819638,68.6343886 143.196011,68.6343886 C125.597969,68.6343886 121.01278,75.0583766 121.01278,75.0583766 L121.01278,185.974718 C121.01278,185.974718 127.517452,179.55073 143.196011,179.55073 C163.353656,179.55073 218.066389,185.974718 218.066389,185.974718 L203.239278,75.0583766 Z" id="Stroke-25" stroke="#34373E" stroke-width="3" stroke-linejoin="round"></path>
            <path d="M38.784615,75.0583766 C38.784615,75.0583766 79.2042547,68.6343886 98.8287592,68.6343886 C116.425924,68.6343886 121.01199,75.0583766 121.01199,75.0583766 L121.01199,185.974718 C121.01199,185.974718 114.506441,179.55073 98.8287592,179.55073 C78.6702366,179.55073 23.9583808,185.974718 23.9583808,185.974718 L38.784615,75.0583766 Z" id="Fill-27" fill="#FFFFFF"></path>
            <path d="M38.784615,75.0583766 C38.784615,75.0583766 79.2042547,68.6343886 98.8287592,68.6343886 C116.425924,68.6343886 121.01199,75.0583766 121.01199,75.0583766 L121.01199,185.974718 C121.01199,185.974718 114.506441,179.55073 98.8287592,179.55073 C78.6702366,179.55073 23.9583808,185.974718 23.9583808,185.974718 L38.784615,75.0583766 Z" id="Stroke-29" stroke="#34373E" stroke-width="3" stroke-linejoin="round"></path>
            <polygon id="Fill-31" fill="#ECE7D9" points="227.665122 196.884759 218.066828 185.97419 203.239717 75.0587287 212.154047 81.4915192"></polygon>
            <polygon id="Stroke-33" stroke="#34373E" stroke-width="3" stroke-linejoin="round" points="227.665122 196.884759 218.066828 185.97419 203.239717 75.0587287 212.154047 81.4915192"></polygon>
            <polygon id="Fill-35" fill="#ECE7D9" points="23.9582054 185.97463 14.3590342 196.885199 29.8701093 81.4919593 38.7844396 75.0582886"></polygon>
            <polygon id="Stroke-37" stroke="#34373E" stroke-width="3" stroke-linejoin="round" points="23.9582054 185.97463 14.3590342 196.885199 29.8701093 81.4919593 38.7844396 75.0582886"></polygon>
            <polygon id="Fill-39" fill="#A2C6B8" points="177.96488 191.64883 177.96488 214.559704 170.712232 209.206087 163.46046 214.559704 163.46046 191.64883"></polygon>
            <polygon id="Stroke-41" stroke="#34373E" stroke-width="3" stroke-linejoin="round" points="177.96488 191.64883 177.96488 214.559704 170.712232 209.206087 163.46046 214.559704 163.46046 191.64883"></polygon>
            <path d="M181.271145,191.64883 L160.154196,191.64883" id="Fill-43" fill="#FFFFFF"></path>
            <path d="M181.271145,191.64883 L160.154196,191.64883" id="Stroke-45" stroke="#34373E" stroke-width="3" stroke-linecap="round" stroke-linejoin="round"></path>
            <g id="page-wrapper" transform="translate(24.000000, 0.000000)">
                <mask id="mask-2" fill="white">
                    <use xlink:href="#path-1"></use>
                </mask>
                <g id="Fill-1"></g>
                <path d="M97.1738281,185.491211 L0.186523437,185.491211 C0.186523437,185.491211 14.9121094,74.3203125 14.9121094,74.3203125 C89.2285156,60.6259766 97.1738281,74.3203125 97.1738281,74.3203125 L97.1738281,185.491211 Z" id="pagecorner" stroke="#2B323B" stroke-width="3" stroke-linejoin="round" fill="#FFFFFF" mask="url(#mask-2)">
                    <animate 
             attributeName="d" 
             dur="5000ms" 
             repeatCount="indefinite"
             keyTimes="0;
                       .2;
                       .3;
                       .5;
                       1"
             calcMode="spline" 
             keySplines="
                         0.47, 0, 0.745, 0.715;
                         0,0,1,1;
                         0.39, 0.575, 0.565, 1;
                         0,0,1,1;"
             values="
                    M187.404297,185.385742 L185.402344,178.09375 C185.402344,178.09375 192.317383,176.777344 192.317383,176.777344 C192.317383,176.777344 190.123047,180.876953 190.123047,180.876953 L187.404297,185.385742 Z;

                    M111.047852,178.913086 L75.2753906,100.15332 C75.2753906,100.15332 179.150391,75.4414062 179.150391,75.4414062 C179.150391,75.4414063 175.431641,81.3300781 175.431641,81.3300781 L111.047852,178.913086 Z;

                    M97.1738281,185.491211 L20.0996094,126.862576 C20.0996094,126.862576 97.1738281,48.0839844 97.1738281,48.0839844 C97.1738281,48.0839844 97.1738281,74.3203125 97.1738281,74.3203125 L97.1738281,185.491211 Z;

                    M97.1738281,185.491211 L0.186523437,185.491211 C0.186523437,185.491211 14.9121094,74.3203125 14.9121094,74.3203125 C89.2285156,60.6259766 97.1738281,74.3203125 97.1738281,74.3203125 L97.1738281,185.491211 Z;

                    M97.1738281,185.491211 L0.186523437,185.491211 C0.186523437,185.491211 14.9121094,74.3203125 14.9121094,74.3203125 C89.2285156,60.6259766 97.1738281,74.3203125 97.1738281,74.3203125 L97.1738281,185.491211 Z;"/>
                </path>
            </g>
        </g>
        <g id="stabilo" transform="translate(301.000000, 112.000000)">
            <polygon id="Fill-47" fill="#F47965" points="26.6419712 62.8581731 8.96939459 65.2277778 0.402307508 20.7897659 23.2905477 17.7212509"></polygon>
            <polygon id="Stroke-49" stroke="#34373E" stroke-width="3" stroke-linejoin="round" points="26.6419712 62.8581731 8.96939459 65.2277778 0.402307508 20.7897659 23.2905477 17.7212509"></polygon>
            <polygon id="Fill-51" fill="#34373E" points="13.7089141 12.1970437 8.20475796 12.9355647 0.402307508 20.7899419 23.2905477 17.7205467"></polygon>
            <polygon id="Stroke-53" stroke="#34373E" stroke-width="3" stroke-linejoin="round" points="13.7089141 12.1970437 8.20475796 12.9355647 0.402307508 20.7899419 23.2905477 17.7205467"></polygon>
            <polygon id="Fill-55" fill="#F47965" points="12.1409706 1.93591557 6.74467027 0.439508383 7.86093453 8.83699341 12.9669886 8.15216707"></polygon>
            <polygon id="Fill-57" fill="#34373E" points="8.20449489 12.9354766 13.7086511 12.1969557 13.0509934 7.2526503 7.54596036 7.99117126"></polygon>
            <polygon id="Stroke-59" stroke="#34373E" stroke-width="3" stroke-linejoin="round" points="8.20449489 12.9354766 13.7086511 12.1969557 13.0509934 7.2526503 7.54596036 7.99117126"></polygon>
        </g>
        <g id="pen" transform="translate(278.000000, 86.000000)">
            <polygon id="Fill-61" fill="#ECE6D9" points="0.504333934 14.9420838 6.52672432 14.1349042 17.1141357 93.7050359 11.0908685 94.5122156"></polygon>
            <polygon id="Stroke-63" stroke="#34373E" stroke-width="3" stroke-linejoin="round" points="0.504333934 14.9420838 6.52672432 14.1349042 17.1141357 93.7050359 11.0908685 94.5122156"></polygon>
            <polygon id="Fill-65" fill="#34373E" points="0.504333934 14.9420838 6.52672432 14.1349042 9.30028589 34.9816168 3.2778955 35.7896766"></polygon>
            <polygon id="Fill-67" fill="#34373E" points="12.1024336 94.3768347 16.1027459 93.8407689 17.0892324 101.251505 13.0880432 101.787571"></polygon>
            <polygon id="Fill-69" fill="#34373E" points="1.45486847 9.95209401 4.30384144 9.56918982 5.10004565 15.5504174 2.2501958 15.9324413"></polygon>
            <polygon id="Stroke-71" stroke="#34373E" stroke-width="3" stroke-linejoin="round" points="1.45486847 9.95209401 4.30384144 9.56918982 5.10004565 15.5504174 2.2501958 15.9324413"></polygon>
            <path d="M1.75633874,0.97858024 L1.75633874,0.97858024 C2.14041081,0.926646108 2.50080721,1.18015509 2.58235676,1.5612988 L5.04375015,9.4702509 L0.808434835,10.0380054 L1.11183423,1.7505503 C1.09517357,1.36412515 1.3748973,1.02963413 1.75633874,0.97858024" id="Fill-73" fill="#34373E"></path>
        </g>
    </g>
</svg>