<svg id="skeleton" xmlns="http://www.w3.org/2000/svg" width="160" height="220" viewBox="0 0 160 220" >
  <g id="skull" fill="none" fill-rule="evenodd" transform="translate(3 19)">
    <animateTransform attributeType="xml" attributeName="transform"
      type="translate"
      values="3 19; 3 10; 3 19"
      begin="0s"
      dur="3s"
      repeatCount="indefinite"
    />
    <path fill="#EEF5FA" d="M76.5 160c18.402 0 28.932-5.45 42.483-13.41C128.5 141 128.5 125 134.08 120.888 151.11 108.336 153 92.338 153 73.5 153 38.43 124.273 0 76.5 0 28.727 0 0 38.43 0 73.5c0 18.416 1.185 34.367 17.74 46.6 5.277 3.9 7 21.4 12.277 25.31C43.6 155.476 56.31 160 76.5 160z"/>
    <path fill="#DAE1E6" d="M34 134l-5-18s-16.5-7-20-12-7-11-7-11l3 13 11 13.5 8 9 4.5 11.5 5.5-6z"/>
    <path fill="#DAE1E6" d="M32.5 119.5l-3 26.5 34.414 14H90.52l22.312-10.5S126 140.5 124 144c-2.522 4.413 2-9.5 2-9.5s-23 19.5-51 18c-48.124-2.578-42.5-33-42.5-33z"/>
    <path stroke="#323F4B" stroke-width="6" d="M93.985 126.22C81 131.89 55.5 129.39 52 128.558" stroke-linecap="square"/>
    <path stroke="#DAE1E6" stroke-width="4" d="M32 42c0 7.5 16.5 3.5 16.5 3.5M21 22s10.5 10.5 10.5 18v18" stroke-linecap="round"/>
    <path stroke="#323F4B" stroke-width="4" d="M26 22s8.5 10 8.5 17.5-3 18.5-3 18.5m3-18c1.5 6.5 15 5 15 5" stroke-linecap="round"/>
    <path stroke="#DAE1E6" stroke-width="4" d="M118.5 43.5c0 4.5 21-8.5 21-8.5" stroke-linecap="round"/>
    <path stroke="#323F4B" stroke-width="4" d="M119 41c0 4.5 19.5-6 19.5-6" stroke-linecap="round"/>
    <path stroke="#323F4B" stroke-width="6" d="M76.5 160c18.402 0 28.932-5.45 42.483-13.41C128.5 141 128.5 125 134.08 120.888 151.11 108.336 153 92.338 153 73.5 153 38.43 124.273 0 76.5 0 28.727 0 0 38.43 0 73.5c0 18.416 1.185 34.367 17.74 46.6 5.277 3.9 7 21.4 12.277 25.31C43.6 155.476 56.31 160 76.5 160z"/>
    <path fill="#DAE1E6" d="M70.622 87.872c.485-1.586 1.652-1.782 2.615-.427l9.442 13.29c1.28 1.803.53 3.17-1.68 3.055l-11.01-.58c-2.21-.116-3.477-1.92-2.83-4.027l3.453-11.31z"/>
    <path fill="#323F4B" d="M73.337 91.494c.92-1.377 2.406-1.38 3.326 0l6.118 9.177c1.23 1.84.43 3.33-1.78 3.33H69c-2.21 0-3.005-1.49-1.78-3.33l6.117-9.17zM117 137.898c0 1.66.456 1.755 1.023.195l7.608-20.92c.76-2.08-.12-2.793-1.98-1.584l-3.283 2.13c-1.855 1.2-3.36 3.97-3.36 6.18v13.99zm-83.1-1c0 1.66-.456 1.755-1.023.195l-7.608-20.92c-.76-2.08.12-2.793 1.98-1.584l3.283 2.13c1.855 1.2 3.36 3.97 3.36 6.18v13.99z"/>
    <path stroke="#323F4B" stroke-width="4" d="M87 134l-3-11m15 7l-5-9m-47 11l5-9m8 12l2-11m13 11l-2-11" stroke-linecap="round"/>
    <path stroke="#323F4B" stroke-width="6" d="M92 91.5S92 78 105 78s13 13.5 13 13.5m-86 0S32 78 45 78s13 13.5 13 13.5" stroke-linecap="round"/>
    <path stroke="#FFF" stroke-width="10" d="M140 81.5s3-21-5.5-33.5M122 30s-10-14-20-14" stroke-linecap="round"/>
  </g>
  <g id="shadow_group" transform="translate(76 210)">
  <ellipse id="shadow" cx="0" cy="0" fill="#E3EDEE" rx="38" ry="10">
    <animate
      attributeType="xml"
      attributeName="opacity"
      values="1; 0.8; 1"
      begin="0s"
      dur="3s"
      repeatCount="indefinite"
    />
    <animateTransform
                attributeName="transform"
                attributeType="XML"
                type="scale"
                values="1 1; 0.8 0.6; 1 1"
                calcMode="linear"
                dur="3s"
                repeatCount="indefinite"
                />
  </ellipse>
</g>
</svg>