
  <svg id="jump" version="1.1" xmlns="http://www.w3.org/2000/svg" xmlns:xlink="http://www.w3.org/1999/xlink" x="0px" y="0px"
	 viewBox="0 0 800 600" style="enable-background:new 0 0 800 600;" xml:space="preserve" class="motorcycle">
<style type="text/css">
	.st0{display:none;}
	.st1{display:inline;fill:#F4F4F4;}
	.st2{opacity:1;}
	.st3{fill:#FFFFFF;}
	.st4{fill:#C5E5F9;}
	.st5{fill:#182C61;}
	.st6{fill:#38bf6e;}
	.st7{fill:#FFFFFF;}
  .st8{fill:#18dcff;}
  .st9{fill:#c6f7dd;}
  body, html {

  display: flex;
  flex-direction: column;
  justify-content: center;
  align-items: center;
  height: 100vh;
}

.motorcycle {
  width: 400px;
}

svg .road {
  fill: #182C61;
}

#clouds {
  animation: animateClouds 5s infinite linear;
}

@keyframes animateClouds {
  0% {transform: translateX(600px);}
  100% {transform: translateX(-400px);}
}

#road {
  animation: animateRoad 1.5s infinite linear;
}

@keyframes animateRoad {
  0% {transform: translateX(50px);}
  100% {transform: translateX(-800px);}
}

#tree {
  animation: animateTree 6s infinite linear;
}

@keyframes animateTree {
  0% {transform: translateX(150px);}
  40% {transform: translateX(-800px);}
  100% {transform: translateX(-800px);}
}

#treeFront {
  animation: animateTreeFront 6s infinite linear;
}

@keyframes animateTreeFront {
  0% {transform: translateX(150px);}
  60% {transform: translateX(150px);}
  100% {transform: translateX(-800px);}
}

.bike {
  animation: animateBike 8s infinite ease-out;
}

@keyframes animateBike {
  0% {transform: translateX(-60px);}
  90% {transform: translateX(130px);}
  100% {transform: translateX(-60px);}
}

.bump {
  animation: animateBump 8s infinite ease-out;
}

@keyframes animateBump {
  0% {transform: translateX(0px) translateY(0px);}
  28% {transform: translateX(0px) translateY(0px);}
  30% {transform: translateX(0px) translateY(-15px);}
  32% {transform: translateX(0px) translateY(0px);}
  34% {transform: translateX(0px) translateY(-8px);}
  36% {transform: translateX(0px) translateY(0px);}
  100% {transform: translateX(0px) translateY(0px);}
}


#jump {
  animation: animateJump 8s infinite ease-out;
}

@keyframes animateJump {
  0% {transform: translateX(0px) translateY(0px);}
  26% {transform: translateX(0px) translateY(0px);}
  27% {transform: translateX(0px) translateY(-15px);}
  28% {transform: translateX(0px) translateY(0px);}
  100% {transform: translateX(0px) translateY(0px);}
}

svg .cloudsBack {
  transform: scale(1.6);
  fill: rgb(216, 237, 250);
}

#cloudsBack {
  animation: animateCloudsBack 10s infinite linear;
}

@keyframes animateCloudsBack {
  0% {transform: translateX(600px);}
  100% {transform: translateX(-400px);}
}

p {
  text-decoration: none;
  color: #182C61;
  text-align: center;
  font-size: 12px;
  margin-top: -30px;
}
</style>
<g id="background" class="st0">
	<rect class="st1" width="800" height="600"/>
</g>
<g id="cloudsBack">
    <path class="st4 cloudsBack" d="M167.61,57.36c-3.98-0.45-7.85-0.15-11.46,0.76c-8-10.86-21.03-17.78-35.66-17.34
      c-22.91,0.7-41.35,19.81-41.28,42.73c0.01,4.23,0.64,8.32,1.81,12.18c2.16,7.16,8.92,11.94,16.39,11.94h41.1h18.34h19.21
      c10.97,0,19.91-9.05,19.51-20.01c-0.01-0.14-0.01-0.29-0.02-0.43C194.8,71.85,182.88,59.08,167.61,57.36z"/>
  </g>

<g id="clouds">
	<path class="st4" d="M223.24,105.16c2.24-0.25,4.42-0.08,6.45,0.43c4.5-6.11,11.83-10,20.06-9.75
		c12.89,0.39,23.26,11.15,23.22,24.04c-0.01,2.38-0.36,4.68-1.02,6.85c-1.21,4.03-5.02,6.72-9.22,6.72h-23.13h-10.32h-10.81
		c-6.17,0-11.2-5.09-10.98-11.26c0-0.08,0.01-0.16,0.01-0.24C207.95,113.31,214.65,106.13,223.24,105.16z"/>
	<path class="st4" d="M167.61,57.36c-3.98-0.45-7.85-0.15-11.46,0.76c-8-10.86-21.03-17.78-35.66-17.34
		c-22.91,0.7-41.35,19.81-41.28,42.73c0.01,4.23,0.64,8.32,1.81,12.18c2.16,7.16,8.92,11.94,16.39,11.94h41.1h18.34h19.21
		c10.97,0,19.91-9.05,19.51-20.01c-0.01-0.14-0.01-0.29-0.02-0.43C194.8,71.85,182.88,59.08,167.61,57.36z"/>
</g>
<g id="road">
    <g>
      <g>
        <g>
          <rect x="361.6" y="520.17" class="st4 road" width="42.8" height="12"/>
        </g>
        <g>
          <rect x="421.95" y="520.17" class="st4 road" width="343.97" height="12"/>
        </g>
        <g>
          <rect x="25.99" y="520.17" class="st4 road" width="318.06" height="12"/>
        </g>
      </g>
      <g>
        <rect x="783.47" y="520.17" class="st4 road" width="42.8" height="12"/>
      </g>
      <g>
        <rect x="843.82" y="520.17" class="st4 road" width="345.44" height="12"/>
      </g>
      <g>
        <rect x="1206.81" y="520.17" class="st4 road" width="42.8" height="12"/>
      </g>
      <g>
        <rect x="1267.17" y="520.17" class="st4 road" width="345.44" height="12"/>
      </g>
    </g>
  </g>
  <g id="tree">
      <path class="st9" d="M762.19,478.72c0,14.48-14.83,26.1-34.73,28.06v13.39h-12v-13.38c-19.9-1.96-34.74-13.59-34.74-28.07
        c0-8.15,4.7-15.39,12.35-20.51c-0.96-2.92-1.48-6.03-1.48-9.26c0-16.47,13.4-29.87,29.87-29.87c16.47,0,29.86,13.4,29.86,29.87
        c0,3.23-0.52,6.35-1.48,9.27C757.49,463.33,762.19,470.57,762.19,478.72z"/>
    </g>
<g id="bike" class="bike">
	<g>
		<g>
			<path class="st5 bike bump" d="M587,374.79c-39.98,0-72.5,32.52-72.5,72.5c0,39.97,32.52,72.5,72.5,72.5s72.5-32.53,72.5-72.5
				C659.5,407.31,626.98,374.79,587,374.79z M587,507.79c-33.36,0-60.5-27.14-60.5-60.5s27.14-60.5,60.5-60.5s60.5,27.14,60.5,60.5
				S620.36,507.79,587,507.79z"/>
			<path class="st5" d="M567.9,366.58c33.98-8.49,62.39,10.84,62.66,11.02l6.88-9.83c-1.18-0.82-26.03-17.87-58.96-15.08
				c-0.66-9.93-4.31-22.52-5.75-27.18c-7.44-24.06-17.06-44.92-29.68-63.89l15,4l-2.57-49.82l-39.94,12.03
				c-3.42-3.51-6.99-6.97-10.72-10.4c-4.97-4.58-10.21-9.11-16.02-13.86l-1.66-1.36l-43.15,0.08l0.02,12l34.99-0.06h0.04l0.18,26.13
				c27.81,31.32,41.56,66.27,40.85,103.87c-0.46,25.1-7.57,43.1-9.19,46.87c-0.01,0.01-0.01,0.03-0.02,0.04
				c-4.72,5.61-9.25,11.83-13.61,18.65H383.71c-17.36-7.38-27.94-17.56-31.46-30.29c-4.86-17.58,4.62-36.23,9.46-44.17l8.02,3.57
				l2.91-2.77c15.21-14.49,20.91-28.4,16.95-41.35c-6.27-20.44-35.33-30.43-49.82-32.86c-17.51-2.94-36.01-1-41.54-0.29
				c-92.54-35.73-143.37-10.27-145.5-9.17l-3.02,1.57l-0.2,3.4c-0.78,13.29,6.17,26.66,10.65,33.79c-2.66,1.85-5.24,3.69-7.76,5.53
				h-41.78l-1.74,1.66c-1.32,1.25-12.82,12.62-10.92,24.84c0.58,3.66,2.58,8.56,8.53,12.63c-1.12,1.12-2.19,2.2-3.23,3.26
				c-12.38,12.65-18.99,21.29-19.54,22.03l-3.29,4.33l4,3.7c10.04,9.26,37.91,18.65,64.22,25.97
				c-13.65,13.19-22.15,31.68-22.15,52.12c0,39.97,32.52,72.5,72.5,72.5c31.06,0,57.61-19.64,67.91-47.14
				c24.53,0.23,98.7,0.92,106.41,0.92c42.3,0,75.1-5.53,97.73-16.51c19.81-9.61,25.19-20.45,26.32-23.35
				C516.83,395.99,540.56,373.41,567.9,366.58z M295.31,273.37l1.5,0.59l1.59-0.24c0.2-0.03,20.8-3.09,39.39,0.03
				c13.37,2.24,36.14,10.89,40.32,24.55c2.31,7.54-1.36,16.39-10.93,26.34l-5.58-2.49c-39.85-20.16-83.87-29.27-117.17-33.23
				c-0.58-0.06-1.17-0.13-1.75-0.2c-1.15-0.13-2.29-0.26-3.42-0.38s-2.24-0.23-3.34-0.34c-1.1-0.11-2.18-0.21-3.25-0.31
				c-30.75-2.82-53.97-1.97-61.53-1.55c-3.61-5.47-8.84-15.24-9.6-24.42C173.76,257.05,219.87,243.85,295.31,273.37z M171.26,298.16
				c13.86-0.75,104.2-4.03,179.63,31.83c-5.94,9.95-16.11,31.23-10.22,52.64c2.91,10.58,9.27,19.66,18.99,27.16h-30.3
				c-1.5-6.93-4.29-19.18-6.28-24.21c-13.05-33-34.48-54.51-63.67-63.91c-31.08-10.02-69.9-6.26-115.41,11.14
				c-11.64,4.46-22.17,9.23-30.98,13.59C126.21,333.06,145.82,315.35,171.26,298.16z M115.6,308.75h21.19
				c-1.07,0.86-2.13,1.72-3.17,2.58c-6.71,5.54-12.77,10.9-18.16,15.92c-5.11-2.53-5.51-5.01-5.64-5.84
				C109.19,317.46,112.81,311.98,115.6,308.75z M259.07,454.48c-0.06,0.55-0.13,1.1-0.22,1.65c-0.06,0.38-0.11,0.76-0.18,1.14
				c-0.09,0.57-0.19,1.13-0.31,1.7c-0.07,0.35-0.14,0.7-0.21,1.05c-0.1,0.45-0.2,0.91-0.31,1.36c-0.1,0.45-0.22,0.9-0.34,1.34
				c-0.12,0.45-0.24,0.89-0.37,1.34c-0.25,0.88-0.52,1.75-0.81,2.61c-0.32,0.94-0.66,1.87-1.02,2.78c-0.32,0.79-0.64,1.57-0.99,2.34
				c-0.17,0.39-0.35,0.79-0.53,1.18c-0.02,0.03-0.03,0.06-0.05,0.1c-0.19,0.39-0.38,0.79-0.58,1.18c-0.2,0.41-0.41,0.81-0.62,1.21
				c-0.42,0.8-0.86,1.59-1.32,2.37c-0.23,0.39-0.46,0.77-0.7,1.16c-0.24,0.38-0.48,0.76-0.72,1.14c-0.24,0.38-0.49,0.75-0.75,1.13
				c-0.76,1.11-1.56,2.2-2.39,3.26c-0.21,0.28-0.43,0.55-0.65,0.82c-0.63,0.78-1.28,1.54-1.94,2.28c-0.23,0.26-0.46,0.51-0.69,0.76
				c-0.53,0.57-1.06,1.12-1.61,1.67c-0.34,0.34-0.69,0.68-1.04,1.01c-0.36,0.35-0.72,0.69-1.09,1.02c-0.35,0.32-0.7,0.63-1.06,0.94
				c-0.31,0.26-0.62,0.53-0.93,0.78c-0.47,0.4-0.95,0.79-1.44,1.17c-0.72,0.57-1.46,1.12-2.2,1.64c-0.4,0.28-0.8,0.56-1.2,0.83
				c-0.7,0.48-1.42,0.94-2.14,1.39c-0.16,0.1-0.33,0.2-0.49,0.3c-0.36,0.21-0.72,0.42-1.08,0.63c-0.44,0.26-0.89,0.51-1.35,0.76
				c-0.4,0.21-0.81,0.43-1.22,0.64c-0.44,0.22-0.88,0.44-1.32,0.65c-0.36,0.18-0.73,0.35-1.11,0.53c-0.51,0.23-1.04,0.46-1.57,0.69
				c-0.37,0.16-0.75,0.31-1.13,0.46c-0.57,0.24-1.15,0.46-1.74,0.67c-0.86,0.31-1.73,0.61-2.61,0.88c-0.49,0.16-0.99,0.31-1.5,0.45
				c-0.48,0.14-0.96,0.27-1.44,0.39c-0.44,0.11-0.87,0.22-1.31,0.32c-0.37,0.09-0.74,0.17-1.11,0.25c-0.33,0.07-0.67,0.14-1.01,0.21
				c-0.89,0.18-1.79,0.33-2.7,0.46c-0.4,0.07-0.8,0.12-1.21,0.17c-0.32,0.05-0.64,0.08-0.97,0.12c-0.32,0.04-0.65,0.07-0.98,0.1
				c-0.39,0.04-0.77,0.07-1.16,0.1c-0.41,0.03-0.81,0.06-1.22,0.08c-1.14,0.07-2.28,0.1-3.43,0.1c-33.36,0-60.5-27.14-60.5-60.5
				c0-19.74,9.5-37.3,24.18-48.34c13.91,3.6,26.25,6.46,33.72,8.18c20.4,4.72,40.3,8.88,56.17,12.06c2.25,0.45,4.42,0.88,6.5,1.3
				V454.48z M486.53,428.54l-0.22,0.3l-0.15,0.57c-0.01,0.01-0.01,0.03-0.02,0.05c-0.02,0.03-0.04,0.07-0.06,0.12
				c-0.02,0.05-0.05,0.1-0.08,0.16c-0.02,0.05-0.05,0.11-0.09,0.18c-0.04,0.08-0.09,0.16-0.14,0.25
				c-3.02,5.24-24.55,32.95-140.58,30.64c-0.06-0.01-74.12-0.23-74.12-0.23v-5.37c0.28-2.6,0.43-5.24,0.43-7.92
				c0-2.67-0.14-5.31-0.43-7.91v-22.44h-0.41l-0.5-7.15l-18.8-3.05c-0.71-0.15-1.43-0.29-2.15-0.44c-2.35-0.48-4.73-0.97-7.16-1.47
				c-20-4.14-42.42-9.09-63.76-14.38c-6.05-1.5-12-3.03-17.79-4.57c-24.69-6.57-46.39-13.44-59.02-19.79
				c26.02-14.61,98.89-50.84,154.25-33c25.61,8.25,44.52,27.4,56.19,56.9c1.95,4.94,5.5,21.17,6.7,27.01l0.99,4.79h170.52
				C488.91,423.99,487.71,426.24,486.53,428.54z M544.29,231.7l0.93,18.08l-10.87-2.9l-8.02-9.77L544.29,231.7z M491,235.62v-14.47
				c1.95,1.7,3.85,3.4,5.7,5.11c32.11,29.53,51.42,60.27,64.57,102.8c3.23,10.42,5.08,20.2,5.36,25.48
				c-0.48,0.11-0.97,0.23-1.46,0.35c-12.95,3.21-25.09,9.4-36.4,18.52c1.68-7.89,3.05-17.49,3.29-28.36
				C532.68,317.63,525.96,276.67,491,235.62z"/>
		</g>
		<path class="st7" d="M566.63,354.54c-0.48,0.11-0.97,0.23-1.46,0.35c-12.95,3.21-25.09,9.4-36.4,18.52
			c1.68-7.89,3.05-17.49,3.29-28.36c0.62-27.42-6.1-68.38-41.06-109.43v-14.47c1.95,1.7,3.85,3.4,5.7,5.11
			c32.11,29.53,51.42,60.27,64.57,102.8C564.5,339.48,566.35,349.26,566.63,354.54z"/>
		<path class="st7" d="M490.13,421.79c-1.22,2.2-2.42,4.45-3.6,6.75l-0.22,0.3l-0.15,0.57c-0.01,0.01-0.01,0.03-0.02,0.05
			c-0.02,0.03-0.04,0.07-0.06,0.12c-0.02,0.05-0.05,0.1-0.08,0.16c-0.02,0.05-0.05,0.11-0.09,0.18c-0.04,0.08-0.09,0.16-0.14,0.25
			c-3.02,5.24-24.55,32.95-140.58,30.64c-0.06-0.01-74.12-0.23-74.12-0.23v-5.37c0.28-2.6,0.43-5.24,0.43-7.92
			c0-2.67-0.14-5.31-0.43-7.91v-22.44h-0.41l-0.5-7.15l-18.8-3.05c-0.71-0.15-1.43-0.29-2.15-0.44c-2.35-0.48-4.73-0.97-7.16-1.47
			c-20-4.14-42.42-9.09-63.76-14.38c-6.05-1.5-12-3.03-17.79-4.57c-24.69-6.57-46.39-13.44-59.02-19.79
			c26.02-14.61,98.89-50.84,154.25-33c25.61,8.25,44.52,27.4,56.19,56.9c1.95,4.94,5.5,21.17,6.7,27.01l0.99,4.79H490.13z"/>
		<path class="st7" d="M359.66,409.79h-30.3c-1.5-6.93-4.29-19.18-6.28-24.21c-13.05-33-34.48-54.51-63.67-63.91
			c-31.08-10.02-69.9-6.26-115.41,11.14c-11.64,4.46-22.17,9.23-30.98,13.59c13.19-13.34,32.8-31.05,58.24-48.24
			c13.86-0.75,104.2-4.03,179.63,31.83c-5.94,9.95-16.11,31.23-10.22,52.64C343.58,393.21,349.94,402.29,359.66,409.79z"/>
	</g>
	<g id="color">
		<g>
			<g>
				<path class="st8" d="M259.07,420.49v33.99c-0.06,0.55-0.13,1.1-0.22,1.65c-0.06,0.38-0.11,0.76-0.18,1.14
					c-0.09,0.57-0.19,1.13-0.31,1.7c-0.07,0.35-0.14,0.7-0.21,1.05c-0.1,0.45-0.2,0.91-0.31,1.36c-0.1,0.45-0.22,0.9-0.34,1.34
					c-0.12,0.45-0.24,0.89-0.37,1.34c-0.25,0.88-0.52,1.75-0.81,2.61c-0.32,0.94-0.66,1.87-1.02,2.78
					c-0.32,0.79-0.64,1.57-0.99,2.34c-0.17,0.39-0.35,0.79-0.53,1.18c-0.02,0.03-0.03,0.06-0.05,0.1c-0.19,0.39-0.38,0.79-0.58,1.18
					c-0.2,0.41-0.41,0.81-0.62,1.21c-0.42,0.8-0.86,1.59-1.32,2.37c-0.23,0.39-0.46,0.77-0.7,1.16c-0.24,0.38-0.48,0.76-0.72,1.14
					c-0.24,0.38-0.49,0.75-0.75,1.13c-0.76,1.11-1.56,2.2-2.39,3.26c-0.21,0.28-0.43,0.55-0.65,0.82c-0.63,0.78-1.28,1.54-1.94,2.28
					c-0.23,0.26-0.46,0.51-0.69,0.76c-0.53,0.57-1.06,1.12-1.61,1.67c-0.34,0.34-0.69,0.68-1.04,1.01
					c-0.36,0.35-0.72,0.69-1.09,1.02c-0.35,0.32-0.7,0.63-1.06,0.94c-0.31,0.26-0.62,0.53-0.93,0.78c-0.47,0.4-0.95,0.79-1.44,1.17
					c-0.72,0.56-1.46,1.11-2.2,1.64c-0.4,0.28-0.8,0.56-1.2,0.83c-0.7,0.48-1.42,0.94-2.14,1.39c-0.16,0.1-0.33,0.2-0.49,0.3
					c-0.36,0.21-0.72,0.42-1.08,0.63c-0.44,0.26-0.89,0.51-1.35,0.76c-0.4,0.21-0.81,0.43-1.22,0.64c-0.44,0.22-0.88,0.44-1.32,0.65
					c-0.36,0.18-0.73,0.35-1.11,0.53c-0.51,0.23-1.04,0.46-1.57,0.69c-0.37,0.16-0.75,0.31-1.13,0.46
					c-0.57,0.24-1.15,0.46-1.74,0.67c-0.86,0.31-1.73,0.61-2.61,0.88c-0.49,0.16-0.99,0.31-1.5,0.45c-0.48,0.14-0.96,0.27-1.44,0.39
					c-0.44,0.11-0.87,0.22-1.31,0.32c-0.37,0.09-0.74,0.17-1.11,0.25c-0.33,0.07-0.67,0.14-1.01,0.21c-0.89,0.18-1.79,0.33-2.7,0.46
					c-0.4,0.07-0.8,0.12-1.21,0.17c-0.32,0.05-0.64,0.08-0.97,0.12c-0.32,0.04-0.65,0.07-0.98,0.1c-0.39,0.04-0.77,0.07-1.16,0.1
					c-0.41,0.03-0.81,0.06-1.22,0.08c-1.14,0.07-2.28,0.1-3.43,0.1c-33.36,0-60.5-27.14-60.5-60.5c0-19.74,9.5-37.3,24.18-48.34
					c13.91,3.6,26.25,6.46,33.72,8.18c20.4,4.72,40.3,8.88,56.17,12.06C254.82,419.64,256.99,420.07,259.07,420.49z"/>
				<path class="st8" d="M367.18,324.64l-5.58-2.49l0.11-0.22c-44.75-22.64-94.87-31.12-129.04-34.24
					c-30.75-2.82-53.97-1.97-61.53-1.55c-3.61-5.47-8.84-15.24-9.6-24.42c12.22-4.67,58.33-17.87,133.77,11.65l1.5,0.59l1.59-0.24
					c0.2-0.03,20.8-3.09,39.39,0.03c13.37,2.24,36.14,10.89,40.32,24.55C380.42,305.84,376.75,314.69,367.18,324.64z"/>
				<polygon class="st8" points="545.22,249.78 534.35,246.88 526.33,237.11 544.29,231.7 				"/>
				<path class="st8" d="M136.79,308.75c-1.07,0.86-2.13,1.72-3.17,2.58c-6.71,5.54-12.77,10.9-18.16,15.92
					c-5.11-2.53-5.51-5.01-5.64-5.84c-0.63-3.95,2.99-9.43,5.78-12.66H136.79z"/>
			</g>
			<path class="st8" d="M246.65,484.52c0.84-1.06,1.63-2.15,2.39-3.26C248.28,482.37,247.48,483.46,246.65,484.52z M259.07,440.08
				v14.4c0.06-0.52,0.12-1.04,0.17-1.57c0.07-0.71,0.12-1.43,0.16-2.15c0.03-0.55,0.06-1.09,0.07-1.64v-0.01
				c0.02-0.61,0.03-1.21,0.03-1.82C259.5,444.85,259.36,442.45,259.07,440.08z"/>
		</g>
	</g>
</g>
<g id="rectangle" class="bike">
	<g class="bump">
    <rect x="571" y="431.29" class="st5" width="32" height="32">
        <animateTransform
        attributeName="transform"
        type="rotate"
        from="0 587 447.29"
        to="360 587 447.29"
        dur="1s"
        repeatCount="indefinite" />
      </rect>
	</g>
	<g>
    <rect x="183" y="431.29" class="st5" width="32" height="32">
    <animateTransform
    attributeName="transform"
    type="rotate"
    from="0 199 447.29"
    to="360 199 447.29"
    dur="1s"
    repeatCount="indefinite" />
  </rect>
	</g>
</g>
<g id="treeFront">
    <path class="st6" d="M835.35,466.08c0,18.9-19.35,34.06-45.32,36.62v17.47h-15.65v-17.46c-25.97-2.56-45.34-17.73-45.34-36.63
      c0-10.63,6.14-20.08,16.12-26.76c-1.25-3.81-1.93-7.87-1.93-12.08c0-21.49,17.49-38.98,38.97-38.98c21.5,0,38.97,17.49,38.97,38.98
      c0,4.21-0.68,8.28-1.93,12.1C829.22,446,835.35,455.45,835.35,466.08z"/>
  </g>
</svg>

