<svg xmlns="http://www.w3.org/2000/svg" viewBox="0 0 86 80" class="beeWrapper">
	
	<style>
.cls-1b{fill:#fff;}
.cls-1b,.cls-2b,.cls-8b{opacity:0.92;}
.cls-2b{fill:#658dcd;}
.cls-3b{fill:#ead84f;}
.cls-4b{fill:#333;}
.cls-5b,.cls-6b{fill:none;stroke:#333;stroke-linecap:round;}
.cls-5b{stroke-miterlimit:10;stroke-width:3px;}
.cls-6b{stroke-linejoin:round;stroke-width:2px;}
.cls-7b{fill:#eec2f2;opacity:0.37;}
.cls-8b{fill:#80a4d6;}

svg {
	width: 100px;
}

body {
	background: #fff;
	display: flex;
	justify-content: center;
	align-items: center;
	height: 100vh;
}

.wing1 {
	transform-origin: center bottom;
	animation: wing1 1s infinite alternate;
}

.wing2 {
	transform-origin: center bottom;
	animation: wing1 1s infinite alternate-reverse;
}

@keyframes wing1 {
	0% {
		transform: rotate(5deg);
	}
	100% {
		transform: rotate(-5deg);
	}
}

svg {
	animation: shake 0.5s infinite alternate-reverse;
}

@keyframes shake {
	25% {
		transform: rotate(1deg) translatey(-2px);
	}
	50% {
		transform: rotate(-1deg) translatey(5px);
	}
}
</style>
	
	<g data-name="Layer 3">
		<path class="cls-1b" d="M52.43,79.51H33.28a33.22,33.22,0,1,1,0-66.44H52.43a33.22,33.22,0,0,1,0,66.44Z"/>
		<path class="cls-1b wing1" d="M44.7,24c-2.32,0-12.21-.94-14.59-7.09A12.07,12.07,0,0,1,52.63,8.21c1.72,4.45-1.18,9.42-3.91,12.8l1.14,2L45.14,24A2.76,2.76,0,0,1,44.7,24Z"/>
		<path class="cls-1b wing2" d="M47.74,24.31a2.75,2.75,0,0,1-.45,0l-4.72-.94L43,23c-2.74-3.39-4.91-10.06-3.19-14.5a12.07,12.07,0,1,1,22.52,8.71C60,23.37,50.06,24.31,47.74,24.31Z"/>
		<path class="cls-2b wing1" d="M44.46,20.57h0s6.6-6.69,4.9-11.09h0a8.6,8.6,0,0,0-11.09-4.9h0a8.6,8.6,0,0,0-4.9,11.09h0C35.07,20.06,44.43,20.57,44.46,20.57Z"/>
		<rect class="cls-3b" x="13.14" y="7" width="59.44" height="78.59" rx="29.72" ry="29.72" transform="translate(89.15 3.43) rotate(90)"/>
		<path class="cls-4b" d="M35.28,16.57H29.57c8.17,0,14.86,13.37,14.86,29.72h0C44.43,62.64,37.74,76,29.57,76h5.72c8.17,0,14.86-13.37,14.86-29.72h0C50.14,29.94,43.46,16.57,35.28,16.57Z"/>
		<path class="cls-4b" d="M49.29,16.57H43.57c8.17,0,14.86,13.37,14.86,29.72h0C58.43,62.64,51.74,76,43.57,76h5.72c8.17,0,14.86-13.37,14.86-29.72h0C64.15,29.94,57.46,16.57,49.29,16.57Z"/>
		<path class="cls-5b" d="M26.65,38.63a2.17,2.17,0,0,1,3-.19"/>
		<path class="cls-5b" d="M14.65,38.92a2.17,2.17,0,0,1,3-.19"/>
		<path class="cls-4b" d="M59.57,17.38C66.11,20.49,71,32.3,71,46.29s-4.9,25.8-11.44,28.92A29.84,29.84,0,0,0,82.44,46.29h0A29.84,29.84,0,0,0,59.57,17.38Z"/>
		<path class="cls-6b" d="M20.14,44.86s1,2.36,1.79,0c0,0,1.07,2.36,2.5,0"/>
		<rect class="cls-7b" x="25.57" y="41.72" width="5.72" height="1.71" rx="0.86" ry="0.86"/>
		<rect class="cls-7b" x="12.71" y="41.72" width="5.72" height="1.71" rx="0.86" ry="0.86"/>
		<path class="cls-8b wing2" d="M48,20.85h0s-6.6-6.69-4.9-11.09h0a8.6,8.6,0,0,1,11.09-4.9h0a8.6,8.6,0,0,1,4.9,11.09h0C57.36,20.35,48,20.86,48,20.85Z"/>
	</g>
</svg>