
  <svg xmlns="http://www.w3.org/2000/svg" xmlns:xlink="http://www.w3.org/1999/xlink"  viewBox="0 0 81.53 118.71"><defs><style>.cls-1{fill:#dd2c00;}.cls-2{fill:#ffeb3b;}.cls-3{fill:#fff9c4;}.cls-4{fill:#ffc400;}.cls-5{fill:#ef9a9a;}.cls-6{fill:#fff2de;}.cls-7{fill:#fff;}.cls-8{fill:#ff4081;}.cls-9{fill:#ffcdd2;}.cls-10{fill:#ffea00;}.cls-11{fill:none;}.cls-12{fill:#388e3c;}.cls-13{fill:#689f38;}
  .container {
  width: 400px;
  margin: 0 auto;
}

svg {
  animation-duration: 5s;
  animation-name: rotation;
  animation-iteration-count: infinite;
  transform-origin: bottom;
  animation-timing-function: linear;
}

@keyframes rotation {
  0% {
    transform: rotate(0deg); 
  }
  
  25% {
    transform: rotate(-10deg);
  }
  
  75% {
    transform: rotate(10deg);
  }
}
  </style></defs><path class="cls-1" d="M105.3,83.05c-3-4.62-7.9-9.18-7.37-15.12.09-1,.4-2.84.63-6.12,0,0,.17-4.29.17-7.67A28.89,28.89,0,0,0,70,25.39h-.18A28.89,28.89,0,0,0,41,54.14c0,3.38.17,7.67.17,7.67.22,3.28.54,5.11.63,6.13.52,5.94-4.36,10.51-7.37,15.13-7.76,11.87-4.94,26.74-4.25,30.37.74,3.89,2.31,11.63,8.5,18.63,10.32,11.64,26.7,11.91,30,12,.79,0,1.56,0,2.35,0,3.3-.09,19.68-.36,30-12,6.19-7,7.76-14.74,8.5-18.62C110.24,109.79,113.05,94.93,105.3,83.05Z" transform="translate(-29.09 -25.36)"/><path class="cls-2" d="M106.5,84.76c-2.91-5.38-9.07-13-8.53-16.56,0-.19,0-.22.07-.37h0c0-.14.12-.61.12-.66,1.61-10.45.42-16.85.42-16.85C98,47.26,96.5,39.59,90.41,33.5h0a32,32,0,0,0-14-7.43L76.33,26c-.49-.1-1.13-.21-1.87-.32l-.55-.07-.52-.06-.31,0-.73-.08c-.84-.06-1.69-.08-2.48-.07s-1.64,0-2.48.07l-.73.08-.31,0-.52.06-.55.07c-.74.11-1.38.22-1.87.32l-.12.07a32,32,0,0,0-14,7.43h0c-6.09,6.09-7.61,13.76-8.18,16.82,0,0-1.18,6.4.42,16.85,0,0,.09.51.12.66h0c0,.15,0,.18.07.37.54,3.51-5.62,11.17-8.53,16.56a35.35,35.35,0,0,0-4.07,15.37,76.21,76.21,0,0,0,18.95-5.76,76.64,76.64,0,0,0,8.63-4.75,58,58,0,0,0,7.11-5.2c4-3.5,5.36-4.59,6-5,.66.43,2,1.53,6,5A58,58,0,0,0,83,89.63a71.28,71.28,0,0,0,27.57,10.51A35.34,35.34,0,0,0,106.5,84.76Z" transform="translate(-29.09 -25.36)"/><path class="cls-3" d="M109.83,96.81a27.71,27.71,0,0,0-.71-3.58A74.11,74.11,0,0,1,76.28,76.82l.8-15.4-7.24,9-7.23-9,.8,15.38A74.69,74.69,0,0,1,30.58,93.24a20.86,20.86,0,0,0-1,6.81,73.26,73.26,0,0,0,18.48-5.68,75.84,75.84,0,0,0,8.63-4.75,58,58,0,0,0,7.11-5.2h0l6-5,5.61,4.65.42.36A58,58,0,0,0,83,89.64a80.48,80.48,0,0,0,8.63,4.75A72.77,72.77,0,0,0,110.06,100,27.7,27.7,0,0,0,109.83,96.81Z" transform="translate(-29.09 -25.36)"/><path class="cls-4" d="M29.11,100.65v-.58a21.38,21.38,0,0,1,1-7l.09-.27.28-.06A74.2,74.2,0,0,0,62.9,76.59L62,59.91l7.81,9.74,7.82-9.76L76.79,76.6a73.6,73.6,0,0,0,32.44,16.14l.3.06.08.29a28.31,28.31,0,0,1,.72,3.65h0a28.38,28.38,0,0,1,.23,3.29v.6l-.59-.1a73.46,73.46,0,0,1-18.57-5.69,81.24,81.24,0,0,1-8.68-4.78,59.26,59.26,0,0,1-7.17-5.25l-.42-.36-5.29-4.38L63.4,85.42h0A60.85,60.85,0,0,1,57,90a75.94,75.94,0,0,1-8.68,4.78,74,74,0,0,1-18.6,5.72Zm1.86-7a20.36,20.36,0,0,0-.88,5.79,72.77,72.77,0,0,0,17.77-5.54,75,75,0,0,0,8.57-4.72,58,58,0,0,0,7-5.15l.73-.63v0l5.64-4.68,6.36,5.28a58.27,58.27,0,0,0,7,5.16,80.3,80.3,0,0,0,8.57,4.72,72.28,72.28,0,0,0,17.72,5.51c0-.87-.1-1.73-.21-2.57h0a27.19,27.19,0,0,0-.62-3.22A74.59,74.59,0,0,1,76,77.2L75.77,77l.73-14.1-6.66,8.31L63.19,63,63.92,77l-.19.16A75.2,75.2,0,0,1,31,93.67Z" transform="translate(-29.09 -25.36)"/><path class="cls-3" d="M29.82,96.88a27.71,27.71,0,0,1,.71-3.58A74.11,74.11,0,0,0,63.37,76.89l5.9-7,.52,9.61-5.61,4.65-.42.36a58,58,0,0,1-7.11,5.2A80.48,80.48,0,0,1,48,94.46a72.77,72.77,0,0,1-18.44,5.65A27.7,27.7,0,0,1,29.82,96.88Z" transform="translate(-29.09 -25.36)"/><path class="cls-4" d="M29.09,100.71v-.6a28.21,28.21,0,0,1,.23-3.29h0A28.14,28.14,0,0,1,30,93.17l.08-.29.3-.06A73.63,73.63,0,0,0,63,76.51l6.66-7.91.61,11.12L64.1,84.88a59.07,59.07,0,0,1-7.17,5.25,80.88,80.88,0,0,1-8.68,4.78,73.46,73.46,0,0,1-18.57,5.69Zm1.23-3.76c-.11.85-.18,1.71-.21,2.57A72.2,72.2,0,0,0,47.83,94a79.58,79.58,0,0,0,8.57-4.72,58,58,0,0,0,7-5.15l.42-.36,5.43-4.5-.44-8.1-5.09,6A74.54,74.54,0,0,1,30.94,93.72a27.34,27.34,0,0,0-.62,3.22Z" transform="translate(-29.09 -25.36)"/><path class="cls-5" d="M59.62,81.66a2.61,2.61,0,0,1,1.37,3,.93.93,0,0,0,1-.31,2.27,2.27,0,0,0,.09-1,2.25,2.25,0,0,0-.49-1.11,1.76,1.76,0,0,0-.94-.66A1.64,1.64,0,0,0,59.62,81.66Z" transform="translate(-29.09 -25.36)"/><path class="cls-5" d="M58.66,85.83A4.85,4.85,0,0,1,58.2,84a2.9,2.9,0,0,1,.28-1.24,2.94,2.94,0,0,1,1.11-1.23,2.19,2.19,0,0,0-1.08.32,2.33,2.33,0,0,0-1,2.3A2.47,2.47,0,0,0,58.66,85.83Z" transform="translate(-29.09 -25.36)"/><path class="cls-5" d="M61.72,84.84a4.92,4.92,0,0,1-2,.25,4.87,4.87,0,0,1-1.24-.26,3.32,3.32,0,0,0,.42,1.09,2.3,2.3,0,0,0,1,.16,2.18,2.18,0,0,0,.68-.17A2.23,2.23,0,0,0,61.72,84.84Z" transform="translate(-29.09 -25.36)"/><path class="cls-5" d="M58.53,83.45a2.06,2.06,0,0,1,1.83-.8.78.78,0,0,0-.58-.64.74.74,0,0,0-.48.2,1.57,1.57,0,0,0-.4.49A4.21,4.21,0,0,0,58.53,83.45Z" transform="translate(-29.09 -25.36)"/><path class="cls-5" d="M60.38,82.74a2.06,2.06,0,0,1-.53,1.93.78.78,0,0,0,.86,0,.74.74,0,0,0,.15-.5,1.57,1.57,0,0,0-.13-.62A4.21,4.21,0,0,0,60.38,82.74Z" transform="translate(-29.09 -25.36)"/><path class="cls-5" d="M59.93,85A2.06,2.06,0,0,1,59,83.22a.78.78,0,0,0-.6.62.74.74,0,0,0,.22.47,1.57,1.57,0,0,0,.51.37A4.21,4.21,0,0,0,59.93,85Z" transform="translate(-29.09 -25.36)"/><path class="cls-5" d="M59.92,84.3a1,1,0,0,1-.36-.86.36.36,0,0,0-.3.27.34.34,0,0,0,.09.23.73.73,0,0,0,.23.19A2,2,0,0,0,59.92,84.3Z" transform="translate(-29.09 -25.36)"/><path class="cls-5" d="M59.2,83.38a1.06,1.06,0,0,1,1-.06.4.4,0,0,0-.17-.41.38.38,0,0,0-.27,0,.81.81,0,0,0-.28.17A2.17,2.17,0,0,0,59.2,83.38Z" transform="translate(-29.09 -25.36)"/><path class="cls-5" d="M60.09,83.32a.67.67,0,0,1-.17.29.65.65,0,0,1-.27.17.25.25,0,0,0,.25.12.23.23,0,0,0,.12-.12.51.51,0,0,0,.06-.2A1.37,1.37,0,0,0,60.09,83.32Z" transform="translate(-29.09 -25.36)"/><path class="cls-5" d="M53.64,85.69a2.61,2.61,0,0,1,1.37,3,.93.93,0,0,0,1-.31,2.27,2.27,0,0,0,.09-1,2.25,2.25,0,0,0-.49-1.11,1.76,1.76,0,0,0-.94-.66A1.64,1.64,0,0,0,53.64,85.69Z" transform="translate(-29.09 -25.36)"/><path class="cls-5" d="M52.68,89.87A4.85,4.85,0,0,1,52.21,88a2.9,2.9,0,0,1,.28-1.24,2.94,2.94,0,0,1,1.11-1.23,2.19,2.19,0,0,0-1.08.32,2.33,2.33,0,0,0-1,2.3A2.47,2.47,0,0,0,52.68,89.87Z" transform="translate(-29.09 -25.36)"/><path class="cls-5" d="M55.74,88.88a4.92,4.92,0,0,1-2,.25,4.87,4.87,0,0,1-1.24-.26A3.32,3.32,0,0,0,53,90a2.3,2.3,0,0,0,1,.16,2.18,2.18,0,0,0,.68-.17A2.23,2.23,0,0,0,55.74,88.88Z" transform="translate(-29.09 -25.36)"/><path class="cls-5" d="M52.54,87.49a2.06,2.06,0,0,1,1.83-.8.78.78,0,0,0-.58-.64.74.74,0,0,0-.48.2,1.57,1.57,0,0,0-.4.49A4.21,4.21,0,0,0,52.54,87.49Z" transform="translate(-29.09 -25.36)"/><path class="cls-5" d="M54.39,86.78a2.06,2.06,0,0,1-.53,1.93.78.78,0,0,0,.86,0,.74.74,0,0,0,.15-.5,1.57,1.57,0,0,0-.13-.62A4.21,4.21,0,0,0,54.39,86.78Z" transform="translate(-29.09 -25.36)"/><path class="cls-5" d="M53.94,89A2.06,2.06,0,0,1,53,87.26a.78.78,0,0,0-.6.62.74.74,0,0,0,.22.47,1.57,1.57,0,0,0,.51.37A4.21,4.21,0,0,0,53.94,89Z" transform="translate(-29.09 -25.36)"/><path class="cls-5" d="M53.93,88.33a1,1,0,0,1-.36-.86.36.36,0,0,0-.3.27.34.34,0,0,0,.09.23.73.73,0,0,0,.23.19A2,2,0,0,0,53.93,88.33Z" transform="translate(-29.09 -25.36)"/><path class="cls-5" d="M53.21,87.42a1.06,1.06,0,0,1,1-.06.4.4,0,0,0-.17-.41.38.38,0,0,0-.27,0,.81.81,0,0,0-.28.17A2.17,2.17,0,0,0,53.21,87.42Z" transform="translate(-29.09 -25.36)"/><path class="cls-5" d="M54.11,87.35a.67.67,0,0,1-.17.29.65.65,0,0,1-.27.17.25.25,0,0,0,.25.12.23.23,0,0,0,.12-.12.51.51,0,0,0,.06-.2A1.37,1.37,0,0,0,54.11,87.35Z" transform="translate(-29.09 -25.36)"/><path class="cls-5" d="M47.23,89a2.61,2.61,0,0,1,1.37,3,.93.93,0,0,0,1-.31,2.27,2.27,0,0,0,.09-1,2.25,2.25,0,0,0-.49-1.11,1.76,1.76,0,0,0-.94-.66A1.64,1.64,0,0,0,47.23,89Z" transform="translate(-29.09 -25.36)"/><path class="cls-5" d="M46.27,93.16a4.85,4.85,0,0,1-.47-1.83,2.9,2.9,0,0,1,.28-1.24,2.94,2.94,0,0,1,1.11-1.23,2.19,2.19,0,0,0-1.08.32,2.33,2.33,0,0,0-1,2.3A2.47,2.47,0,0,0,46.27,93.16Z" transform="translate(-29.09 -25.36)"/><path class="cls-5" d="M49.33,92.17a4.92,4.92,0,0,1-2,.25,4.87,4.87,0,0,1-1.24-.26,3.32,3.32,0,0,0,.42,1.09,2.3,2.3,0,0,0,1,.16,2.18,2.18,0,0,0,.68-.17A2.23,2.23,0,0,0,49.33,92.17Z" transform="translate(-29.09 -25.36)"/><path class="cls-5" d="M46.13,90.78A2.06,2.06,0,0,1,48,90a.78.78,0,0,0-.58-.64.74.74,0,0,0-.48.2,1.57,1.57,0,0,0-.4.49A4.21,4.21,0,0,0,46.13,90.78Z" transform="translate(-29.09 -25.36)"/><path class="cls-5" d="M48,90.07A2.06,2.06,0,0,1,47.45,92a.78.78,0,0,0,.86,0,.74.74,0,0,0,.15-.5,1.57,1.57,0,0,0-.13-.62A4.21,4.21,0,0,0,48,90.07Z" transform="translate(-29.09 -25.36)"/><path class="cls-5" d="M47.53,92.33a2.06,2.06,0,0,1-.91-1.78.78.78,0,0,0-.6.62.74.74,0,0,0,.22.47,1.57,1.57,0,0,0,.51.37A4.21,4.21,0,0,0,47.53,92.33Z" transform="translate(-29.09 -25.36)"/><path class="cls-5" d="M47.52,91.62a1,1,0,0,1-.36-.86.36.36,0,0,0-.3.27.34.34,0,0,0,.09.23.73.73,0,0,0,.23.19A2,2,0,0,0,47.52,91.62Z" transform="translate(-29.09 -25.36)"/><path class="cls-5" d="M46.8,90.7a1.06,1.06,0,0,1,1-.06.4.4,0,0,0-.17-.41.38.38,0,0,0-.27,0,.81.81,0,0,0-.28.17A2.17,2.17,0,0,0,46.8,90.7Z" transform="translate(-29.09 -25.36)"/><path class="cls-5" d="M47.7,90.64a.67.67,0,0,1-.17.29.65.65,0,0,1-.27.17.25.25,0,0,0,.25.12.23.23,0,0,0,.12-.12.51.51,0,0,0,.06-.2A1.37,1.37,0,0,0,47.7,90.64Z" transform="translate(-29.09 -25.36)"/><path class="cls-5" d="M40.4,91.74a2.61,2.61,0,0,1,1.37,3,.93.93,0,0,0,1-.31,2.27,2.27,0,0,0,.09-1,2.25,2.25,0,0,0-.49-1.11,1.76,1.76,0,0,0-.94-.66A1.64,1.64,0,0,0,40.4,91.74Z" transform="translate(-29.09 -25.36)"/><path class="cls-5" d="M39.44,95.92A4.85,4.85,0,0,1,39,94.09a2.9,2.9,0,0,1,.28-1.24,2.94,2.94,0,0,1,1.11-1.23,2.19,2.19,0,0,0-1.08.32,2.33,2.33,0,0,0-1,2.3A2.47,2.47,0,0,0,39.44,95.92Z" transform="translate(-29.09 -25.36)"/><path class="cls-5" d="M42.5,94.93a4.92,4.92,0,0,1-2,.25,4.87,4.87,0,0,1-1.24-.26A3.32,3.32,0,0,0,39.72,96a2.3,2.3,0,0,0,1,.16,2.18,2.18,0,0,0,.68-.17A2.23,2.23,0,0,0,42.5,94.93Z" transform="translate(-29.09 -25.36)"/><path class="cls-5" d="M39.3,93.54a2.06,2.06,0,0,1,1.83-.8.78.78,0,0,0-.58-.64.74.74,0,0,0-.48.2,1.57,1.57,0,0,0-.4.49A4.21,4.21,0,0,0,39.3,93.54Z" transform="translate(-29.09 -25.36)"/><path class="cls-5" d="M41.16,92.83a2.06,2.06,0,0,1-.53,1.93.78.78,0,0,0,.86,0,.74.74,0,0,0,.15-.5,1.57,1.57,0,0,0-.13-.62A4.21,4.21,0,0,0,41.16,92.83Z" transform="translate(-29.09 -25.36)"/><path class="cls-5" d="M40.71,95.09a2.06,2.06,0,0,1-.91-1.78.78.78,0,0,0-.6.62.74.74,0,0,0,.22.47,1.57,1.57,0,0,0,.51.37A4.21,4.21,0,0,0,40.71,95.09Z" transform="translate(-29.09 -25.36)"/><path class="cls-5" d="M40.7,94.38a1,1,0,0,1-.36-.86.36.36,0,0,0-.3.27.34.34,0,0,0,.09.23.73.73,0,0,0,.23.19A2,2,0,0,0,40.7,94.38Z" transform="translate(-29.09 -25.36)"/><path class="cls-5" d="M40,93.46a1.06,1.06,0,0,1,1-.06.4.4,0,0,0-.17-.41.38.38,0,0,0-.27,0,.81.81,0,0,0-.28.17A2.17,2.17,0,0,0,40,93.46Z" transform="translate(-29.09 -25.36)"/><path class="cls-5" d="M40.87,93.4a.67.67,0,0,1-.17.29.65.65,0,0,1-.27.17.25.25,0,0,0,.25.12.23.23,0,0,0,.12-.12.51.51,0,0,0,.06-.2A1.37,1.37,0,0,0,40.87,93.4Z" transform="translate(-29.09 -25.36)"/><path class="cls-5" d="M33.52,94.11a2.61,2.61,0,0,1,1.37,3,.93.93,0,0,0,1-.31,2.27,2.27,0,0,0,.09-1,2.25,2.25,0,0,0-.49-1.11,1.76,1.76,0,0,0-.94-.66A1.64,1.64,0,0,0,33.52,94.11Z" transform="translate(-29.09 -25.36)"/><path class="cls-5" d="M32.57,98.29a4.85,4.85,0,0,1-.47-1.83,2.9,2.9,0,0,1,.28-1.24A2.94,2.94,0,0,1,33.49,94a2.19,2.19,0,0,0-1.08.32,2.33,2.33,0,0,0-1,2.3A2.47,2.47,0,0,0,32.57,98.29Z" transform="translate(-29.09 -25.36)"/><path class="cls-5" d="M35.63,97.3a4.92,4.92,0,0,1-2,.25,4.87,4.87,0,0,1-1.24-.26,3.32,3.32,0,0,0,.42,1.09,2.3,2.3,0,0,0,1,.16,2.18,2.18,0,0,0,.68-.17A2.23,2.23,0,0,0,35.63,97.3Z" transform="translate(-29.09 -25.36)"/><path class="cls-5" d="M32.43,95.9a2.06,2.06,0,0,1,1.83-.8.78.78,0,0,0-.58-.64.74.74,0,0,0-.48.2,1.57,1.57,0,0,0-.4.49A4.21,4.21,0,0,0,32.43,95.9Z" transform="translate(-29.09 -25.36)"/><path class="cls-5" d="M34.28,95.2a2.06,2.06,0,0,1-.53,1.93.78.78,0,0,0,.86,0,.74.74,0,0,0,.15-.5,1.57,1.57,0,0,0-.13-.62A4.21,4.21,0,0,0,34.28,95.2Z" transform="translate(-29.09 -25.36)"/><path class="cls-5" d="M33.83,97.46a2.06,2.06,0,0,1-.91-1.78.78.78,0,0,0-.6.62.74.74,0,0,0,.22.47,1.57,1.57,0,0,0,.51.37A4.21,4.21,0,0,0,33.83,97.46Z" transform="translate(-29.09 -25.36)"/><path class="cls-5" d="M33.82,96.75a1,1,0,0,1-.36-.86.36.36,0,0,0-.3.27.34.34,0,0,0,.09.23.73.73,0,0,0,.23.19A2,2,0,0,0,33.82,96.75Z" transform="translate(-29.09 -25.36)"/><path class="cls-5" d="M33.1,95.83a1.06,1.06,0,0,1,1-.06.4.4,0,0,0-.17-.41.38.38,0,0,0-.27,0,.81.81,0,0,0-.28.17A2.17,2.17,0,0,0,33.1,95.83Z" transform="translate(-29.09 -25.36)"/><path class="cls-5" d="M34,95.77a.67.67,0,0,1-.17.29.65.65,0,0,1-.27.17.25.25,0,0,0,.25.12.23.23,0,0,0,.12-.12A.51.51,0,0,0,34,96,1.37,1.37,0,0,0,34,95.77Z" transform="translate(-29.09 -25.36)"/><path class="cls-5" d="M80,81.59a2.61,2.61,0,0,0-1.37,3,.93.93,0,0,1-1-.31,2.27,2.27,0,0,1-.09-1,2.25,2.25,0,0,1,.49-1.11,1.76,1.76,0,0,1,.94-.66A1.64,1.64,0,0,1,80,81.59Z" transform="translate(-29.09 -25.36)"/><path class="cls-5" d="M81,85.77a4.85,4.85,0,0,0,.47-1.83,2.9,2.9,0,0,0-.28-1.24,2.94,2.94,0,0,0-1.11-1.23,2.19,2.19,0,0,1,1.08.32,2.33,2.33,0,0,1,1,2.3A2.47,2.47,0,0,1,81,85.77Z" transform="translate(-29.09 -25.36)"/><path class="cls-5" d="M77.93,84.77a4.92,4.92,0,0,0,2,.25,4.87,4.87,0,0,0,1.24-.26,3.32,3.32,0,0,1-.42,1.09,2.3,2.3,0,0,1-1,.16,2.18,2.18,0,0,1-.68-.17A2.23,2.23,0,0,1,77.93,84.77Z" transform="translate(-29.09 -25.36)"/><path class="cls-5" d="M81.13,83.38a2.06,2.06,0,0,0-1.83-.8.78.78,0,0,1,.58-.64.74.74,0,0,1,.48.2,1.57,1.57,0,0,1,.4.49A4.21,4.21,0,0,1,81.13,83.38Z" transform="translate(-29.09 -25.36)"/><path class="cls-5" d="M79.28,82.68a2.06,2.06,0,0,0,.53,1.93.78.78,0,0,1-.86,0,.74.74,0,0,1-.15-.5,1.57,1.57,0,0,1,.13-.62A4.21,4.21,0,0,1,79.28,82.68Z" transform="translate(-29.09 -25.36)"/><path class="cls-5" d="M79.73,84.93a2.06,2.06,0,0,0,.91-1.78.78.78,0,0,1,.6.62.74.74,0,0,1-.22.47,1.57,1.57,0,0,1-.51.37A4.21,4.21,0,0,1,79.73,84.93Z" transform="translate(-29.09 -25.36)"/><path class="cls-5" d="M79.74,84.23a1,1,0,0,0,.36-.86.36.36,0,0,1,.3.27.34.34,0,0,1-.09.23.73.73,0,0,1-.23.19A2,2,0,0,1,79.74,84.23Z" transform="translate(-29.09 -25.36)"/><path class="cls-5" d="M80.46,83.31a1.06,1.06,0,0,0-1-.06.4.4,0,0,1,.17-.41.38.38,0,0,1,.27,0,.81.81,0,0,1,.28.17A2.17,2.17,0,0,1,80.46,83.31Z" transform="translate(-29.09 -25.36)"/><path class="cls-5" d="M79.56,83.25a.67.67,0,0,0,.17.29.65.65,0,0,0,.27.17.25.25,0,0,1-.25.12.23.23,0,0,1-.12-.12.51.51,0,0,1-.06-.2A1.37,1.37,0,0,1,79.56,83.25Z" transform="translate(-29.09 -25.36)"/><path class="cls-3" d="M69.84,84.52c-1.9,5.08-8.27,6.56-9.34,6.79-.13-.88-1.15-8.21,3.33-11.6,1.39-1.05,4.13-2.36,5.64-1.25S70.46,82.87,69.84,84.52Z" transform="translate(-29.09 -25.36)"/><path class="cls-4" d="M60.09,91.91,60,91.38c-.21-1.41-1-8.61,3.52-12.07,1.35-1,4.4-2.61,6.24-1.25s1.17,4.94.54,6.63h0c-1.89,5-7.9,6.71-9.7,7.1Zm8-13.37a7.46,7.46,0,0,0-3.9,1.56c-3.72,2.82-3.45,8.53-3.21,10.59,2.1-.53,6.89-2.18,8.45-6.35.6-1.62,1.09-4.53-.2-5.48A1.89,1.89,0,0,0,68,78.54Z" transform="translate(-29.09 -25.36)"/><path class="cls-3" d="M70.36,84.52c1.9,5.08,8.27,6.56,9.34,6.79.13-.88,1.15-8.21-3.33-11.6-1.39-1.05-4.13-2.36-5.64-1.25S69.75,82.87,70.36,84.52Z" transform="translate(-29.09 -25.36)"/><path class="cls-4" d="M80.12,91.91l-.52-.11c-1.8-.39-7.81-2.06-9.7-7.1h0c-.63-1.69-1.33-5.25.54-6.63s4.89.22,6.24,1.25C81.25,82.78,80.41,90,80.2,91.38Zm-9.29-7.57c1.56,4.17,6.34,5.82,8.45,6.35.21-1.91.51-7.77-3.21-10.59-1.38-1-3.85-2.12-5-1.24s-.8,3.86-.2,5.48Z" transform="translate(-29.09 -25.36)"/><circle class="cls-6" cx="40.74" cy="33.16" r="19.74"/><path class="cls-4" d="M69.82,78.75A20.24,20.24,0,1,1,90.06,58.51,20.26,20.26,0,0,1,69.82,78.75Zm0-39.48A19.24,19.24,0,1,0,89.06,58.51,19.26,19.26,0,0,0,69.82,39.27Z" transform="translate(-29.09 -25.36)"/><path d="M69.74,38.78c-10.57,0-19.13,7.38-19.13,16.49,0,.37,0,.74.06,1.1C59.6,54,66.59,49.46,69.79,43.77,73,49.39,80,53.92,88.82,56.21c0-.32.06-.63.06-1C88.88,46.16,80.31,38.78,69.74,38.78Z" transform="translate(-29.09 -25.36)"/><path d="M65.52,144.43" transform="translate(-29.09 -25.36)"/><path d="M67.47,55.59c0,.07-.16.11-.29.13a9.5,9.5,0,0,0-10.54,0,9.54,9.54,0,0,1,5-1.78C64.6,53.81,67.54,55.23,67.47,55.59Z" transform="translate(-29.09 -25.36)"/><circle cx="32.97" cy="34.19" r="2.22"/><path d="M65.93,60.89a8.44,8.44,0,0,1-3.67,1,8,8,0,0,1-4.07-1.1,6.14,6.14,0,0,0,4.08,1.35A6,6,0,0,0,65.93,60.89Z" transform="translate(-29.09 -25.36)"/><path d="M65.27,57.95A3,3,0,0,1,65.09,56a3.11,3.11,0,0,0,0,1.78,6.31,6.31,0,0,0-1.69-.69,3,3,0,0,1-.25-2.06,3,3,0,0,0,0,2,6,6,0,0,0-1-.12h-.35a2.93,2.93,0,0,1-.28-2.11A3,3,0,0,0,61.56,57a6,6,0,0,0-1.35.24L60.09,57a2.9,2.9,0,0,1-.33-2.2,3,3,0,0,0,.19,2.34l.05.08a6.36,6.36,0,0,0-.88.37l-.2.11-.09.06-.2-.2A2.9,2.9,0,0,1,58,55.49a3,3,0,0,0,.56,2.28l.14.15c-.19.11-.36.23-.52.35L58,58.4l-.31.26a2.5,2.5,0,0,1-.53-.35,2.9,2.9,0,0,1-.93-2A3,3,0,0,0,57,58.48a2.6,2.6,0,0,0,.45.34l-.13.12-.17.18-.14.15-.13.13a2.58,2.58,0,0,1-.88-.2,2.9,2.9,0,0,1-1.52-1.62A3,3,0,0,0,56,59.41a2.78,2.78,0,0,0,1.46.26h0c0-.05.14-.16.27-.3l.22-.21c.13-.12.29-.26.47-.4l.22-.16a6.75,6.75,0,0,1,.75-.46l.26-.13a6.32,6.32,0,0,1,.71-.29l.25-.08a6.16,6.16,0,0,1,1.21-.22l.26,0h0a6.15,6.15,0,0,1,1.26.09l.3.06a6.44,6.44,0,0,1,1.51.54l.27.14a6.48,6.48,0,0,1,1.29.94A6.61,6.61,0,0,0,65.27,57.95Z" transform="translate(-29.09 -25.36)"/><path class="cls-7" d="M61.26,57.93a2.12,2.12,0,0,1,1.62.23,2.17,2.17,0,0,1,1,1.6A1.8,1.8,0,0,0,63,58,1.89,1.89,0,0,0,61.26,57.93Z" transform="translate(-29.09 -25.36)"/><path d="M72.27,55.59c0,.07.16.11.29.13a9.5,9.5,0,0,1,10.54,0,9.54,9.54,0,0,0-5-1.78C75.14,53.81,72.2,55.23,72.27,55.59Z" transform="translate(-29.09 -25.36)"/><circle cx="39.63" cy="38.95" r="0.21"/><circle cx="70.72" cy="64.31" r="0.21" transform="translate(-52.03 58) rotate(-53.77)"/><circle cx="48.5" cy="34.19" r="2.22"/><path d="M73.72,60.89a8.44,8.44,0,0,0,3.67,1,8,8,0,0,0,4.07-1.1,6.14,6.14,0,0,1-4.08,1.35A6,6,0,0,1,73.72,60.89Z" transform="translate(-29.09 -25.36)"/><path d="M74.38,57.95A3,3,0,0,0,74.55,56a3.11,3.11,0,0,1,0,1.78,6.31,6.31,0,0,1,1.69-.69,3,3,0,0,0,.25-2.06,3,3,0,0,1,0,2,6,6,0,0,1,1-.12h.35a2.93,2.93,0,0,0,.28-2.11A3,3,0,0,1,78.08,57a6,6,0,0,1,1.35.24l.12-.16a2.9,2.9,0,0,0,.33-2.2,3,3,0,0,1-.19,2.34l-.05.08a6.36,6.36,0,0,1,.88.37l.2.11.09.06.2-.2a2.9,2.9,0,0,0,.67-2.12,3,3,0,0,1-.56,2.28l-.14.15c.19.11.36.23.52.35l.17.13.31.26a2.5,2.5,0,0,0,.53-.35,2.9,2.9,0,0,0,.93-2,3,3,0,0,1-.84,2.19,2.6,2.6,0,0,1-.45.34l.13.12.17.18.14.15.13.13a2.58,2.58,0,0,0,.88-.2,2.9,2.9,0,0,0,1.52-1.62,3,3,0,0,1-1.48,1.82,2.78,2.78,0,0,1-1.46.26h0c0-.05-.14-.16-.27-.3l-.22-.21c-.13-.12-.29-.26-.47-.4L81,58.59a6.75,6.75,0,0,0-.75-.46L80,58a6.32,6.32,0,0,0-.71-.29L79,57.64a6.16,6.16,0,0,0-1.21-.22l-.26,0h0a6.15,6.15,0,0,0-1.26.09l-.3.06a6.44,6.44,0,0,0-1.51.54l-.27.14a6.48,6.48,0,0,0-1.29.94A6.61,6.61,0,0,1,74.38,57.95Z" transform="translate(-29.09 -25.36)"/><path class="cls-7" d="M76.82,57.93a2.12,2.12,0,0,1,1.62.23,2.17,2.17,0,0,1,1,1.6A1.8,1.8,0,0,0,78.57,58,1.89,1.89,0,0,0,76.82,57.93Z" transform="translate(-29.09 -25.36)"/><path class="cls-8" d="M73.26,68.7a7.15,7.15,0,0,1-3.47.64,7.22,7.22,0,0,1-3.3-.76s.2,0,1.11.09a1.42,1.42,0,0,1,.95-.83,1.36,1.36,0,0,1,1.33.44,1.21,1.21,0,0,1,1.39-.42,1.25,1.25,0,0,1,.71.88C73,68.64,73.25,68.66,73.26,68.7Z" transform="translate(-29.09 -25.36)"/><path class="cls-8" d="M67.9,69.36c.09-.17.66.17,1.89.21s2-.32,2.07-.12-.78,1.32-1.89,1.34S67.77,69.61,67.9,69.36Z" transform="translate(-29.09 -25.36)"/><ellipse class="cls-9" cx="31.23" cy="42.14" rx="4.38" ry="4.19"/><ellipse class="cls-9" cx="50.34" cy="42.2" rx="4.38" ry="4.19"/><path class="cls-5" d="M85.3,105.8a10.16,10.16,0,0,0-8.9,9.42,3.62,3.62,0,0,1-3.16-2.36,8.83,8.83,0,0,1,1-3.9,8.73,8.73,0,0,1,3.21-3.46,6.87,6.87,0,0,1,4.3-1.24A6.38,6.38,0,0,1,85.3,105.8Z" transform="translate(-29.09 -25.36)"/><path class="cls-5" d="M83.48,122.37c1.6-1.88,3.25-3.7,4.05-6.12a11.3,11.3,0,0,0,.57-4.91,11.42,11.42,0,0,0-2.52-5.94,8.51,8.51,0,0,1,3.55,2.54,9,9,0,0,1,.84,9.77A9.61,9.61,0,0,1,83.48,122.37Z" transform="translate(-29.09 -25.36)"/><path class="cls-5" d="M73.51,114.82a19.15,19.15,0,0,0,6.9,3.41,19,19,0,0,0,4.9.61,12.92,12.92,0,0,1-2.93,3.47,8.93,8.93,0,0,1-4-.74,8.48,8.48,0,0,1-2.3-1.48A8.66,8.66,0,0,1,73.51,114.82Z" transform="translate(-29.09 -25.36)"/><path class="cls-5" d="M87,113.79a8,8,0,0,0-5.7-5.29,3,3,0,0,1,2.95-1.61,2.88,2.88,0,0,1,1.53,1.34,6.1,6.1,0,0,1,.86,2.32A16.38,16.38,0,0,1,87,113.79Z" transform="translate(-29.09 -25.36)"/><path class="cls-5" d="M81.13,108.83a8,8,0,0,0-.51,7.76,3,3,0,0,1-3.11-1.28,2.88,2.88,0,0,1,.07-2,6.1,6.1,0,0,1,1.26-2.13A16.38,16.38,0,0,1,81.13,108.83Z" transform="translate(-29.09 -25.36)"/><path class="cls-5" d="M79.9,117.7a8,8,0,0,0,5.62-5.38,3,3,0,0,1,1.43,3,2.88,2.88,0,0,1-1.42,1.45,6.1,6.1,0,0,1-2.37.72A16.38,16.38,0,0,1,79.9,117.7Z" transform="translate(-29.09 -25.36)"/><path class="cls-5" d="M80.83,115.12a3.74,3.74,0,0,0,2.43-2.69A1.41,1.41,0,0,1,84,113.8a1.34,1.34,0,0,1-.61.72,2.84,2.84,0,0,1-1.07.41A7.63,7.63,0,0,1,80.83,115.12Z" transform="translate(-29.09 -25.36)"/><path class="cls-5" d="M84.65,112.66a4.14,4.14,0,0,0-3.7-1.55,1.56,1.56,0,0,1,1.14-1.3,1.48,1.48,0,0,1,1,.38,3.14,3.14,0,0,1,.83,1A8.44,8.44,0,0,1,84.65,112.66Z" transform="translate(-29.09 -25.36)"/><path class="cls-5" d="M81.44,111.3a2.59,2.59,0,0,0,.23,1.29,2.54,2.54,0,0,0,.79,1,1,1,0,0,1-1.06.12.91.91,0,0,1-.29-.58,2,2,0,0,1,0-.79A5.33,5.33,0,0,1,81.44,111.3Z" transform="translate(-29.09 -25.36)"/><path class="cls-5" d="M57.66,96.82a13.4,13.4,0,0,0-4.2,16.56,4.77,4.77,0,0,1-5.15-.69,11.63,11.63,0,0,1-1.39-5.11,11.51,11.51,0,0,1,1.47-6,9,9,0,0,1,4.15-4.18A8.41,8.41,0,0,1,57.66,96.82Z" transform="translate(-29.09 -25.36)"/><path class="cls-5" d="M66.21,117.06c.63-3.19,1.36-6.34.73-9.65a14.89,14.89,0,0,0-2.5-6,15.06,15.06,0,0,0-6.72-5.22,11.21,11.21,0,0,1,5.72.64,11.93,11.93,0,0,1,7.24,10.71A12.66,12.66,0,0,1,66.21,117.06Z" transform="translate(-29.09 -25.36)"/><path class="cls-5" d="M49.88,114.77a25.24,25.24,0,0,0,10.13-.5,25,25,0,0,0,6-2.44,17,17,0,0,1-1.15,5.88,11.77,11.77,0,0,1-5.07,1.72,11.18,11.18,0,0,1-3.59-.23A11.41,11.41,0,0,1,49.88,114.77Z" transform="translate(-29.09 -25.36)"/><path class="cls-5" d="M64.78,104.9a10.58,10.58,0,0,0-10-2.43c.16-1.88,1.09-3.4,2.36-3.74a3.79,3.79,0,0,1,2.62.55,8,8,0,0,1,2.48,2.12A21.59,21.59,0,0,1,64.78,104.9Z" transform="translate(-29.09 -25.36)"/><path class="cls-5" d="M54.8,103a10.58,10.58,0,0,0,4.4,9.27c-1.56,1.06-3.32,1.3-4.39.52a3.79,3.79,0,0,1-1.22-2.38,8,8,0,0,1,.08-3.26A21.59,21.59,0,0,1,54.8,103Z" transform="translate(-29.09 -25.36)"/><path class="cls-5" d="M59.09,114a10.58,10.58,0,0,0,3-9.8c1.87.27,3.33,1.29,3.6,2.58a3.79,3.79,0,0,1-.71,2.58,8,8,0,0,1-2.26,2.35A21.59,21.59,0,0,1,59.09,114Z" transform="translate(-29.09 -25.36)"/><path class="cls-5" d="M58.51,110.41a4.93,4.93,0,0,0,1.07-4.66,1.86,1.86,0,0,1,1.76,1.08,1.77,1.77,0,0,1-.24,1.23,3.75,3.75,0,0,1-1,1.17A10.06,10.06,0,0,1,58.51,110.41Z" transform="translate(-29.09 -25.36)"/><path class="cls-5" d="M61.32,105.13a5.45,5.45,0,0,0-5.25.59,2.06,2.06,0,0,1,.48-2.23,2,2,0,0,1,1.37-.2,4.14,4.14,0,0,1,1.57.59A11.12,11.12,0,0,1,61.32,105.13Z" transform="translate(-29.09 -25.36)"/><path class="cls-5" d="M56.74,105.62a3.41,3.41,0,0,0,1.1,1.33,3.34,3.34,0,0,0,1.54.61,1.27,1.27,0,0,1-1.15.83,1.2,1.2,0,0,1-.7-.49,2.6,2.6,0,0,1-.47-.93A7,7,0,0,1,56.74,105.62Z" transform="translate(-29.09 -25.36)"/><path class="cls-5" d="M86,85.63a2.61,2.61,0,0,0-1.37,3,.93.93,0,0,1-1-.31,2.27,2.27,0,0,1-.09-1,2.25,2.25,0,0,1,.49-1.11,1.76,1.76,0,0,1,.94-.66A1.64,1.64,0,0,1,86,85.63Z" transform="translate(-29.09 -25.36)"/><path class="cls-5" d="M87,89.8A4.85,4.85,0,0,0,87.44,88a2.9,2.9,0,0,0-.28-1.24,2.94,2.94,0,0,0-1.11-1.23,2.19,2.19,0,0,1,1.08.32,2.33,2.33,0,0,1,1,2.3A2.47,2.47,0,0,1,87,89.8Z" transform="translate(-29.09 -25.36)"/><path class="cls-5" d="M83.92,88.81a4.92,4.92,0,0,0,2,.25,4.87,4.87,0,0,0,1.24-.26,3.32,3.32,0,0,1-.42,1.09,2.3,2.3,0,0,1-1,.16,2.18,2.18,0,0,1-.68-.17A2.23,2.23,0,0,1,83.92,88.81Z" transform="translate(-29.09 -25.36)"/><path class="cls-5" d="M87.11,87.42a2.06,2.06,0,0,0-1.83-.8.78.78,0,0,1,.58-.64.74.74,0,0,1,.48.2,1.57,1.57,0,0,1,.4.49A4.21,4.21,0,0,1,87.11,87.42Z" transform="translate(-29.09 -25.36)"/><path class="cls-5" d="M85.26,86.71a2.06,2.06,0,0,0,.53,1.93.78.78,0,0,1-.86,0,.74.74,0,0,1-.15-.5,1.57,1.57,0,0,1,.13-.62A4.21,4.21,0,0,1,85.26,86.71Z" transform="translate(-29.09 -25.36)"/><path class="cls-5" d="M85.71,89a2.06,2.06,0,0,0,.91-1.78.78.78,0,0,1,.6.62.74.74,0,0,1-.22.47,1.57,1.57,0,0,1-.51.37A4.21,4.21,0,0,1,85.71,89Z" transform="translate(-29.09 -25.36)"/><path class="cls-5" d="M85.72,88.27a1,1,0,0,0,.36-.86.36.36,0,0,1,.3.27.34.34,0,0,1-.09.23.73.73,0,0,1-.23.19A2,2,0,0,1,85.72,88.27Z" transform="translate(-29.09 -25.36)"/><path class="cls-5" d="M86.44,87.35a1.06,1.06,0,0,0-1-.06.4.4,0,0,1,.17-.41.38.38,0,0,1,.27,0,.81.81,0,0,1,.28.17A2.17,2.17,0,0,1,86.44,87.35Z" transform="translate(-29.09 -25.36)"/><path class="cls-5" d="M85.54,87.29a.67.67,0,0,0,.17.29.65.65,0,0,0,.27.17.25.25,0,0,1-.25.12.23.23,0,0,1-.12-.12.51.51,0,0,1-.06-.2A1.37,1.37,0,0,1,85.54,87.29Z" transform="translate(-29.09 -25.36)"/><path class="cls-5" d="M92.43,88.91a2.61,2.61,0,0,0-1.37,3,.93.93,0,0,1-1-.31,2.27,2.27,0,0,1-.09-1,2.25,2.25,0,0,1,.49-1.11,1.76,1.76,0,0,1,.94-.66A1.64,1.64,0,0,1,92.43,88.91Z" transform="translate(-29.09 -25.36)"/><path class="cls-5" d="M93.38,93.09a4.85,4.85,0,0,0,.47-1.83A2.9,2.9,0,0,0,93.58,90a2.94,2.94,0,0,0-1.11-1.23,2.19,2.19,0,0,1,1.08.32,2.33,2.33,0,0,1,1,2.3A2.47,2.47,0,0,1,93.38,93.09Z" transform="translate(-29.09 -25.36)"/><path class="cls-5" d="M90.33,92.1a4.92,4.92,0,0,0,2,.25,4.87,4.87,0,0,0,1.24-.26,3.32,3.32,0,0,1-.42,1.09,2.3,2.3,0,0,1-1,.16,2.18,2.18,0,0,1-.68-.17A2.23,2.23,0,0,1,90.33,92.1Z" transform="translate(-29.09 -25.36)"/><path class="cls-5" d="M93.52,90.71a2.06,2.06,0,0,0-1.83-.8.78.78,0,0,1,.58-.64.74.74,0,0,1,.48.2,1.57,1.57,0,0,1,.4.49A4.21,4.21,0,0,1,93.52,90.71Z" transform="translate(-29.09 -25.36)"/><path class="cls-5" d="M91.67,90a2.06,2.06,0,0,0,.53,1.93.78.78,0,0,1-.86,0,.74.74,0,0,1-.15-.5,1.57,1.57,0,0,1,.13-.62A4.21,4.21,0,0,1,91.67,90Z" transform="translate(-29.09 -25.36)"/><path class="cls-5" d="M92.12,92.26A2.06,2.06,0,0,0,93,90.48a.78.78,0,0,1,.6.62.74.74,0,0,1-.22.47,1.57,1.57,0,0,1-.51.37A4.21,4.21,0,0,1,92.12,92.26Z" transform="translate(-29.09 -25.36)"/><path class="cls-5" d="M92.13,91.55a1,1,0,0,0,.36-.86.36.36,0,0,1,.3.27.34.34,0,0,1-.09.23.73.73,0,0,1-.23.19A2,2,0,0,1,92.13,91.55Z" transform="translate(-29.09 -25.36)"/><path class="cls-5" d="M92.85,90.64a1.06,1.06,0,0,0-1-.06.4.4,0,0,1,.17-.41.38.38,0,0,1,.27,0,.81.81,0,0,1,.28.17A2.17,2.17,0,0,1,92.85,90.64Z" transform="translate(-29.09 -25.36)"/><path class="cls-5" d="M92,90.57a.67.67,0,0,0,.17.29.65.65,0,0,0,.27.17.25.25,0,0,1-.25.12A.23.23,0,0,1,92,91a.51.51,0,0,1-.06-.2A1.37,1.37,0,0,1,92,90.57Z" transform="translate(-29.09 -25.36)"/><path class="cls-5" d="M99.26,91.68a2.61,2.61,0,0,0-1.37,3,.93.93,0,0,1-1-.31,2.27,2.27,0,0,1-.09-1,2.25,2.25,0,0,1,.49-1.11,1.76,1.76,0,0,1,.94-.66A1.64,1.64,0,0,1,99.26,91.68Z" transform="translate(-29.09 -25.36)"/><path class="cls-5" d="M100.21,95.85a4.85,4.85,0,0,0,.47-1.83,2.9,2.9,0,0,0-.28-1.24,2.94,2.94,0,0,0-1.11-1.23,2.19,2.19,0,0,1,1.08.32,2.33,2.33,0,0,1,1,2.3A2.47,2.47,0,0,1,100.21,95.85Z" transform="translate(-29.09 -25.36)"/><path class="cls-5" d="M97.15,94.86a4.92,4.92,0,0,0,2,.25,4.87,4.87,0,0,0,1.24-.26,3.32,3.32,0,0,1-.42,1.09,2.3,2.3,0,0,1-1,.16,2.18,2.18,0,0,1-.68-.17A2.23,2.23,0,0,1,97.15,94.86Z" transform="translate(-29.09 -25.36)"/><path class="cls-5" d="M100.35,93.47a2.06,2.06,0,0,0-1.83-.8A.78.78,0,0,1,99.1,92a.74.74,0,0,1,.48.2,1.57,1.57,0,0,1,.4.49A4.21,4.21,0,0,1,100.35,93.47Z" transform="translate(-29.09 -25.36)"/><path class="cls-5" d="M98.5,92.76A2.06,2.06,0,0,0,99,94.69a.78.78,0,0,1-.86,0,.74.74,0,0,1-.15-.5,1.57,1.57,0,0,1,.13-.62A4.21,4.21,0,0,1,98.5,92.76Z" transform="translate(-29.09 -25.36)"/><path class="cls-5" d="M98.95,95a2.06,2.06,0,0,0,.91-1.78.78.78,0,0,1,.6.62.74.74,0,0,1-.22.47,1.57,1.57,0,0,1-.51.37A4.21,4.21,0,0,1,98.95,95Z" transform="translate(-29.09 -25.36)"/><path class="cls-5" d="M99,94.32a1,1,0,0,0,.36-.86.36.36,0,0,1,.3.27.34.34,0,0,1-.09.23.73.73,0,0,1-.23.19A2,2,0,0,1,99,94.32Z" transform="translate(-29.09 -25.36)"/><path class="cls-5" d="M99.68,93.4a1.06,1.06,0,0,0-1-.06.4.4,0,0,1,.17-.41.38.38,0,0,1,.27,0,.81.81,0,0,1,.28.17A2.17,2.17,0,0,1,99.68,93.4Z" transform="translate(-29.09 -25.36)"/><path class="cls-5" d="M98.78,93.34a.67.67,0,0,0,.17.29.65.65,0,0,0,.27.17.25.25,0,0,1-.25.12.23.23,0,0,1-.12-.12.51.51,0,0,1-.06-.2A1.37,1.37,0,0,1,98.78,93.34Z" transform="translate(-29.09 -25.36)"/><path class="cls-5" d="M106.13,94a2.61,2.61,0,0,0-1.37,3,.93.93,0,0,1-1-.31,2.27,2.27,0,0,1-.09-1,2.25,2.25,0,0,1,.49-1.11,1.76,1.76,0,0,1,.94-.66A1.64,1.64,0,0,1,106.13,94Z" transform="translate(-29.09 -25.36)"/><path class="cls-5" d="M107.09,98.22a4.85,4.85,0,0,0,.47-1.83,2.9,2.9,0,0,0-.28-1.24,2.94,2.94,0,0,0-1.11-1.23,2.19,2.19,0,0,1,1.08.32,2.33,2.33,0,0,1,1,2.3A2.47,2.47,0,0,1,107.09,98.22Z" transform="translate(-29.09 -25.36)"/><path class="cls-5" d="M104,97.23a4.92,4.92,0,0,0,2,.25,4.87,4.87,0,0,0,1.24-.26,3.32,3.32,0,0,1-.42,1.09,2.3,2.3,0,0,1-1,.16,2.18,2.18,0,0,1-.68-.17A2.23,2.23,0,0,1,104,97.23Z" transform="translate(-29.09 -25.36)"/><path class="cls-5" d="M107.23,95.84a2.06,2.06,0,0,0-1.83-.8.78.78,0,0,1,.58-.64.74.74,0,0,1,.48.2,1.57,1.57,0,0,1,.4.49A4.21,4.21,0,0,1,107.23,95.84Z" transform="translate(-29.09 -25.36)"/><path class="cls-5" d="M105.37,95.13a2.06,2.06,0,0,0,.53,1.93.78.78,0,0,1-.86,0,.74.74,0,0,1-.15-.5,1.57,1.57,0,0,1,.13-.62A4.21,4.21,0,0,1,105.37,95.13Z" transform="translate(-29.09 -25.36)"/><path class="cls-5" d="M105.82,97.39a2.06,2.06,0,0,0,.91-1.78.78.78,0,0,1,.6.62.74.74,0,0,1-.22.47,1.57,1.57,0,0,1-.51.37A4.21,4.21,0,0,1,105.82,97.39Z" transform="translate(-29.09 -25.36)"/><path class="cls-5" d="M105.83,96.68a1,1,0,0,0,.36-.86.36.36,0,0,1,.3.27.34.34,0,0,1-.09.23.73.73,0,0,1-.23.19A2,2,0,0,1,105.83,96.68Z" transform="translate(-29.09 -25.36)"/><path class="cls-5" d="M106.55,95.76a1.06,1.06,0,0,0-1-.06.4.4,0,0,1,.17-.41.38.38,0,0,1,.27,0,.81.81,0,0,1,.28.17A2.17,2.17,0,0,1,106.55,95.76Z" transform="translate(-29.09 -25.36)"/><path class="cls-5" d="M105.66,95.7a.67.67,0,0,0,.17.29.65.65,0,0,0,.27.17.25.25,0,0,1-.25.12.23.23,0,0,1-.12-.12.51.51,0,0,1-.06-.2A1.37,1.37,0,0,1,105.66,95.7Z" transform="translate(-29.09 -25.36)"/><path class="cls-4" d="M69.72,78.75A20.24,20.24,0,1,1,90,58.51,20.26,20.26,0,0,1,69.72,78.75Zm0-39.48A19.24,19.24,0,1,0,89,58.51,19.26,19.26,0,0,0,69.72,39.27Z" transform="translate(-29.09 -25.36)"/><circle class="cls-10" cx="40.79" cy="55.43" r="2.75"/><path class="cls-4" d="M69.87,84a3.25,3.25,0,1,1,3.25-3.25A3.25,3.25,0,0,1,69.87,84Zm0-5.5a2.25,2.25,0,1,0,2.25,2.25A2.25,2.25,0,0,0,69.87,78.54Z" transform="translate(-29.09 -25.36)"/><path class="cls-11" d="M87,130.18a13.32,13.32,0,0,0,2.65-4.55,11.19,11.19,0,0,1-1.33,3.5,11.68,11.68,0,0,1-5.18,4.61h0l.06-.07-.4-.3-.14.07h0l.05,0A13.3,13.3,0,0,0,87,130.18Z" transform="translate(-29.09 -25.36)"/><path class="cls-12" d="M82.7,133.39l-.05,0h0Z" transform="translate(-29.09 -25.36)"/><path class="cls-13" d="M90.27,121.81a13.08,13.08,0,0,1-2.64,2.45c-2,1.37-2.76,1.08-4.14,2.27s-2.78,3.33-2.18,5.16a3.51,3.51,0,0,0,1,1.49l.06,0a7.41,7.41,0,0,1-2.87,1.37l.36.57c.4-.21.81-.44,1.23-.7s1.07-.7,1.52-1h0l.05,0a13.28,13.28,0,0,0,7-7.76,11.19,11.19,0,0,1-1.33,3.5,11.68,11.68,0,0,1-5.18,4.61,4.29,4.29,0,0,0,2,.46c2.52-.08,4.1-2.84,4.64-3.78A9.8,9.8,0,0,0,91,125.24,10,10,0,0,0,90.27,121.81Z" transform="translate(-29.09 -25.36)"/><polygon class="cls-12" points="53.58 108.08 53.58 108.08 53.59 108.08 53.58 108.08"/><path class="cls-11" d="M48.21,125.2a16.6,16.6,0,0,1-2.75-6,14,14,0,0,0,1.24,4.5,14.56,14.56,0,0,0,5.89,6.33h0l-.06-.09.53-.33.17.11h0l-.06,0A16.58,16.58,0,0,1,48.21,125.2Z" transform="translate(-29.09 -25.36)"/><path class="cls-12" d="M53.19,129.7l.06,0h0Z" transform="translate(-29.09 -25.36)"/><path class="cls-13" d="M55.42,130.87a9.26,9.26,0,0,1-1.84-1.35l-.33.21c.52.48,1.11,1,1.76,1.47.5.38,1,.72,1.45,1l.52-.66A9.24,9.24,0,0,1,55.42,130.87Z" transform="translate(-29.09 -25.36)"/><path class="cls-13" d="M55.11,127.75c1-2.2-.55-5.05-2.09-6.66s-2.57-1.37-4.86-3.31a16.31,16.31,0,0,1-3-3.35,12.44,12.44,0,0,0-1.37,4.17,12.22,12.22,0,0,0,.89,6.57c.56,1.23,2.2,4.85,5.31,5.24a5.34,5.34,0,0,0,2.58-.34,14.56,14.56,0,0,1-5.89-6.33,14,14,0,0,1-1.24-4.5,16.56,16.56,0,0,0,7.74,10.46l.06,0,.33-.21.08-.05A4.38,4.38,0,0,0,55.11,127.75Z" transform="translate(-29.09 -25.36)"/><polygon class="cls-12" points="24.15 104.4 24.15 104.39 24.14 104.4 24.15 104.4"/><path class="cls-11" d="M75.36,100.09a10,10,0,0,0-.06-3.94,8.38,8.38,0,0,1,.5,2.76,8.74,8.74,0,0,1-1.53,5h0v-.07l-.37,0-.06.1h0l0,0A10,10,0,0,0,75.36,100.09Z" transform="translate(-29.09 -25.36)"/><path class="cls-12" d="M73.84,103.82l0,0h0Z" transform="translate(-29.09 -25.36)"/><path class="cls-13" d="M77.26,99.15A10.24,10.24,0,0,0,76,95.37c-.32-.74-.62-1.33-.84-1.74-.43.58-1,1.41-1.73,2.44a13.53,13.53,0,0,0-1.77,3.06c-.41,1.27-.49,3.21.6,4.15a2.63,2.63,0,0,0,1.24.56h.06a8.25,8.25,0,0,1-1.17,2l.42.12.41-.86.57-1.21h0l0,0A10.29,10.29,0,0,0,75.27,100a10.9,10.9,0,0,0,.08-3.1,8.86,8.86,0,0,1-1.09,6.92,3.21,3.21,0,0,0,1.48-.49C77.33,102.35,77.27,100,77.26,99.15Z" transform="translate(-29.09 -25.36)"/><polygon class="cls-12" points="44.74 78.51 44.74 78.5 44.75 78.51 44.74 78.51"/><path class="cls-5" d="M72.15,120.81a11.36,11.36,0,0,0-10,10.52,4,4,0,0,1-3.53-2.64,9.87,9.87,0,0,1,1.08-4.36,9.76,9.76,0,0,1,3.59-3.87,7.67,7.67,0,0,1,4.8-1.38A7.13,7.13,0,0,1,72.15,120.81Z" transform="translate(-29.09 -25.36)"/><path class="cls-5" d="M70.12,139.33c1.79-2.1,3.63-4.13,4.53-6.84a12.62,12.62,0,0,0,.64-5.48,12.77,12.77,0,0,0-2.82-6.64,9.51,9.51,0,0,1,4,2.84,10.11,10.11,0,0,1,.94,10.92A10.73,10.73,0,0,1,70.12,139.33Z" transform="translate(-29.09 -25.36)"/><path class="cls-5" d="M59,130.89a21.4,21.4,0,0,0,7.71,3.81,21.17,21.17,0,0,0,5.47.68,14.44,14.44,0,0,1-3.28,3.88,10,10,0,0,1-4.46-.82,9.48,9.48,0,0,1-2.57-1.65A9.68,9.68,0,0,1,59,130.89Z" transform="translate(-29.09 -25.36)"/><path class="cls-5" d="M74.09,129.74a9,9,0,0,0-6.37-5.92c.9-1.33,2.21-2.06,3.3-1.79a3.22,3.22,0,0,1,1.71,1.49,6.82,6.82,0,0,1,1,2.59A18.3,18.3,0,0,1,74.09,129.74Z" transform="translate(-29.09 -25.36)"/><path class="cls-5" d="M67.49,124.19a9,9,0,0,0-.57,8.68c-1.59.14-3-.41-3.47-1.43a3.22,3.22,0,0,1,.08-2.27,6.82,6.82,0,0,1,1.41-2.38A18.3,18.3,0,0,1,67.49,124.19Z" transform="translate(-29.09 -25.36)"/><path class="cls-5" d="M66.12,134.12a9,9,0,0,0,6.28-6c1.27,1,1.93,2.33,1.6,3.4a3.22,3.22,0,0,1-1.59,1.62,6.82,6.82,0,0,1-2.64.8A18.3,18.3,0,0,1,66.12,134.12Z" transform="translate(-29.09 -25.36)"/><path class="cls-5" d="M67.16,131.23a4.18,4.18,0,0,0,2.71-3,1.58,1.58,0,0,1,.86,1.52,1.5,1.5,0,0,1-.68.81,3.18,3.18,0,0,1-1.2.46A8.53,8.53,0,0,1,67.16,131.23Z" transform="translate(-29.09 -25.36)"/><path class="cls-5" d="M71.43,128.48a4.62,4.62,0,0,0-4.13-1.73,1.74,1.74,0,0,1,1.28-1.45,1.66,1.66,0,0,1,1.09.42,3.51,3.51,0,0,1,.92,1.08A9.43,9.43,0,0,1,71.43,128.48Z" transform="translate(-29.09 -25.36)"/><path class="cls-5" d="M67.84,127a2.89,2.89,0,0,0,.26,1.44,2.84,2.84,0,0,0,.89,1.08,1.08,1.08,0,0,1-1.19.14,1,1,0,0,1-.32-.65,2.2,2.2,0,0,1,0-.89A6,6,0,0,1,67.84,127Z" transform="translate(-29.09 -25.36)"/><path class="cls-11" d="M62.26,87.16A2.77,2.77,0,0,0,62,88.23a2.33,2.33,0,0,1,0-.78,2.43,2.43,0,0,1,.73-1.24h0v0l.1,0,0,0h0A2.77,2.77,0,0,0,62.26,87.16Z" transform="translate(-29.09 -25.36)"/><polygon class="cls-12" points="33.82 60.9 33.83 60.89 33.83 60.89 33.82 60.9"/><path class="cls-13" d="M62.92,86.24h0A3,3,0,0,0,62.06,88a2.46,2.46,0,0,1,.74-1.8.89.89,0,0,0-.43,0c-.49.18-.63.82-.68,1a2.85,2.85,0,0,0,.09,1.1c0,.22.08.4.12.53.15-.13.37-.31.62-.55a3.76,3.76,0,0,0,.67-.71,1.14,1.14,0,0,0,.1-1.16.69.69,0,0,0-.3-.23h0Z" transform="translate(-29.09 -25.36)"/><polygon class="cls-12" points="33.83 60.89 33.83 60.89 33.83 60.88 33.83 60.89"/><path class="cls-11" d="M65.23,82.11a2.24,2.24,0,0,1,.64-.63,2.07,2.07,0,0,0-.54.38,1.63,1.63,0,0,0-.48,1h0l.08,0v0h0A1.79,1.79,0,0,1,65.23,82.11Z" transform="translate(-29.09 -25.36)"/><polygon class="cls-12" points="35.86 57.56 35.86 57.57 35.86 57.57 35.86 57.56"/><path class="cls-13" d="M64.95,82.93h0a2,2,0,0,1,.31-.81,2.34,2.34,0,0,1,.47-.52,2,2,0,0,0-.66.65,1.6,1.6,0,0,0-.22.62.67.67,0,0,1-.22-.27c-.15-.37.23-.75.37-.88a2.69,2.69,0,0,1,.84-.46l.44-.18c0,.15,0,.36,0,.62a2.35,2.35,0,0,1-.13.73,1,1,0,0,1-.78.6A.73.73,0,0,1,65,83h0Z" transform="translate(-29.09 -25.36)"/><polygon class="cls-12" points="35.86 57.57 35.86 57.57 35.86 57.57 35.86 57.57"/><path class="cls-11" d="M64.72,87.56a1.32,1.32,0,0,1-.1.61,1.12,1.12,0,0,0,0-1.22h-.07v0h0A1.36,1.36,0,0,1,64.72,87.56Z" transform="translate(-29.09 -25.36)"/><polygon class="cls-12" points="35.44 61.6 35.43 61.6 35.43 61.6 35.44 61.6"/><path class="cls-13" d="M64.52,87h0a1.46,1.46,0,0,1,.19.62,1.41,1.41,0,0,1-.05.48,1.19,1.19,0,0,0,.11-.63A1.21,1.21,0,0,0,64.6,87a.56.56,0,0,1,.45.79,1.49,1.49,0,0,1-.31.56l-.2.26-.27-.41a1.93,1.93,0,0,1-.26-.51.57.57,0,0,1,.21-.63.54.54,0,0,1,.24-.06h.05Z" transform="translate(-29.09 -25.36)"/><polygon class="cls-12" points="35.44 61.6 35.44 61.6 35.44 61.6 35.44 61.6"/><path class="cls-5" d="M64.32,82.72a2.61,2.61,0,0,0-1.37,3,.93.93,0,0,1-1-.31,2.27,2.27,0,0,1-.09-1,2.25,2.25,0,0,1,.49-1.11,1.76,1.76,0,0,1,.94-.66A1.64,1.64,0,0,1,64.32,82.72Z" transform="translate(-29.09 -25.36)"/><path class="cls-5" d="M65.28,86.9a4.85,4.85,0,0,0,.47-1.83,2.9,2.9,0,0,0-.28-1.24,2.94,2.94,0,0,0-1.11-1.23,2.19,2.19,0,0,1,1.08.32,2.33,2.33,0,0,1,1,2.3A2.47,2.47,0,0,1,65.28,86.9Z" transform="translate(-29.09 -25.36)"/><path class="cls-5" d="M62.22,85.91a4.92,4.92,0,0,0,2,.25,4.87,4.87,0,0,0,1.24-.26A3.32,3.32,0,0,1,65,87a2.3,2.3,0,0,1-1,.16,2.18,2.18,0,0,1-.68-.17A2.23,2.23,0,0,1,62.22,85.91Z" transform="translate(-29.09 -25.36)"/><path class="cls-5" d="M65.42,84.51a2.06,2.06,0,0,0-1.83-.8.78.78,0,0,1,.58-.64.74.74,0,0,1,.48.2,1.57,1.57,0,0,1,.4.49A4.21,4.21,0,0,1,65.42,84.51Z" transform="translate(-29.09 -25.36)"/><path class="cls-5" d="M63.57,83.81a2.06,2.06,0,0,0,.53,1.93.78.78,0,0,1-.86,0,.74.74,0,0,1-.15-.5,1.57,1.57,0,0,1,.13-.62A4.21,4.21,0,0,1,63.57,83.81Z" transform="translate(-29.09 -25.36)"/><path class="cls-5" d="M64,86.07a2.06,2.06,0,0,0,.91-1.78.78.78,0,0,1,.6.62.74.74,0,0,1-.22.47,1.57,1.57,0,0,1-.51.37A4.21,4.21,0,0,1,64,86.07Z" transform="translate(-29.09 -25.36)"/><path class="cls-5" d="M64,85.36a1,1,0,0,0,.36-.86.36.36,0,0,1,.3.27.34.34,0,0,1-.09.23.73.73,0,0,1-.23.19A2,2,0,0,1,64,85.36Z" transform="translate(-29.09 -25.36)"/><path class="cls-5" d="M64.75,84.44a1.06,1.06,0,0,0-1-.06.4.4,0,0,1,.17-.41.38.38,0,0,1,.27,0,.81.81,0,0,1,.28.17A2.17,2.17,0,0,1,64.75,84.44Z" transform="translate(-29.09 -25.36)"/><path class="cls-5" d="M63.85,84.38a.67.67,0,0,0,.17.29.65.65,0,0,0,.27.17A.25.25,0,0,1,64,85a.23.23,0,0,1-.12-.12.51.51,0,0,1-.06-.2A1.37,1.37,0,0,1,63.85,84.38Z" transform="translate(-29.09 -25.36)"/><path class="cls-11" d="M77.64,87.15a2.77,2.77,0,0,1,.23,1.07,2.33,2.33,0,0,0,0-.78,2.43,2.43,0,0,0-.73-1.24h0v0l-.1,0,0,0h0A2.77,2.77,0,0,1,77.64,87.15Z" transform="translate(-29.09 -25.36)"/><polygon class="cls-12" points="47.9 60.88 47.9 60.88 47.9 60.88 47.9 60.88"/><path class="cls-13" d="M77,86.23h0A3,3,0,0,1,77.84,88a2.46,2.46,0,0,0-.74-1.8.89.89,0,0,1,.43,0c.49.18.63.82.68,1a2.85,2.85,0,0,1-.09,1.1c0,.22-.08.4-.12.53-.15-.13-.37-.31-.62-.55a3.76,3.76,0,0,1-.67-.71,1.14,1.14,0,0,1-.1-1.16.69.69,0,0,1,.3-.23h0Z" transform="translate(-29.09 -25.36)"/><polygon class="cls-12" points="47.9 60.88 47.9 60.88 47.9 60.88 47.9 60.88"/><path class="cls-11" d="M74.66,82.1a2.24,2.24,0,0,0-.64-.63,2.07,2.07,0,0,1,.54.38,1.63,1.63,0,0,1,.48,1h0l-.08,0v0h0A1.79,1.79,0,0,0,74.66,82.1Z" transform="translate(-29.09 -25.36)"/><polygon class="cls-12" points="45.87 57.55 45.87 57.56 45.87 57.56 45.87 57.55"/><path class="cls-13" d="M75,82.92h0a2,2,0,0,0-.31-.81,2.34,2.34,0,0,0-.47-.52,2,2,0,0,1,.66.65,1.6,1.6,0,0,1,.22.62.67.67,0,0,0,.22-.27c.15-.37-.23-.75-.37-.88a2.69,2.69,0,0,0-.84-.46l-.44-.18c0,.15,0,.36,0,.62a2.35,2.35,0,0,0,.13.73,1,1,0,0,0,.78.6.73.73,0,0,0,.33-.07h0Z" transform="translate(-29.09 -25.36)"/><polygon class="cls-12" points="45.87 57.56 45.87 57.56 45.87 57.56 45.87 57.56"/><path class="cls-11" d="M75.18,87.55a1.32,1.32,0,0,0,.1.61,1.12,1.12,0,0,1,0-1.22h.07v0h0A1.36,1.36,0,0,0,75.18,87.55Z" transform="translate(-29.09 -25.36)"/><polygon class="cls-12" points="46.29 61.59 46.3 61.59 46.3 61.59 46.29 61.59"/><path class="cls-13" d="M75.38,86.94h0a1.46,1.46,0,0,0-.19.62,1.41,1.41,0,0,0,.05.48,1.19,1.19,0,0,1-.11-.63,1.21,1.21,0,0,1,.15-.47.56.56,0,0,0-.45.79,1.49,1.49,0,0,0,.31.56l.2.26.27-.41a1.93,1.93,0,0,0,.26-.51.57.57,0,0,0-.21-.63.54.54,0,0,0-.24-.06h-.05Z" transform="translate(-29.09 -25.36)"/><polygon class="cls-12" points="46.29 61.59 46.29 61.59 46.29 61.59 46.29 61.59"/><path class="cls-5" d="M75.58,82.71a2.61,2.61,0,0,1,1.37,3,.93.93,0,0,0,1-.31,2.27,2.27,0,0,0,.09-1,2.25,2.25,0,0,0-.49-1.11,1.76,1.76,0,0,0-.94-.66A1.64,1.64,0,0,0,75.58,82.71Z" transform="translate(-29.09 -25.36)"/><path class="cls-5" d="M74.62,86.89a4.85,4.85,0,0,1-.47-1.83,2.9,2.9,0,0,1,.28-1.24,2.94,2.94,0,0,1,1.11-1.23,2.19,2.19,0,0,0-1.08.32,2.33,2.33,0,0,0-1,2.3A2.47,2.47,0,0,0,74.62,86.89Z" transform="translate(-29.09 -25.36)"/><path class="cls-5" d="M77.68,85.9a4.92,4.92,0,0,1-2,.25,4.87,4.87,0,0,1-1.24-.26A3.32,3.32,0,0,0,74.89,87a2.3,2.3,0,0,0,1,.16,2.18,2.18,0,0,0,.68-.17A2.23,2.23,0,0,0,77.68,85.9Z" transform="translate(-29.09 -25.36)"/><path class="cls-5" d="M74.48,84.5a2.06,2.06,0,0,1,1.83-.8.78.78,0,0,0-.58-.64.74.74,0,0,0-.48.2,1.57,1.57,0,0,0-.4.49A4.21,4.21,0,0,0,74.48,84.5Z" transform="translate(-29.09 -25.36)"/><path class="cls-5" d="M76.33,83.8a2.06,2.06,0,0,1-.53,1.93.78.78,0,0,0,.86,0,.74.74,0,0,0,.15-.5,1.57,1.57,0,0,0-.13-.62A4.21,4.21,0,0,0,76.33,83.8Z" transform="translate(-29.09 -25.36)"/><path class="cls-5" d="M75.88,86.06A2.06,2.06,0,0,1,75,84.28a.78.78,0,0,0-.6.62.74.74,0,0,0,.22.47,1.57,1.57,0,0,0,.51.37A4.21,4.21,0,0,0,75.88,86.06Z" transform="translate(-29.09 -25.36)"/><path class="cls-5" d="M75.87,85.35a1,1,0,0,1-.36-.86.36.36,0,0,0-.3.27.34.34,0,0,0,.09.23.73.73,0,0,0,.23.19A2,2,0,0,0,75.87,85.35Z" transform="translate(-29.09 -25.36)"/><path class="cls-5" d="M75.15,84.43a1.06,1.06,0,0,1,1-.06A.4.4,0,0,0,76,84a.38.38,0,0,0-.27,0,.81.81,0,0,0-.28.17A2.17,2.17,0,0,0,75.15,84.43Z" transform="translate(-29.09 -25.36)"/><path class="cls-5" d="M76,84.37a.67.67,0,0,1-.17.29.65.65,0,0,1-.27.17.25.25,0,0,0,.25.12.23.23,0,0,0,.12-.12.51.51,0,0,0,.06-.2A1.37,1.37,0,0,0,76,84.37Z" transform="translate(-29.09 -25.36)"/></svg>
