<svg width="32" height="32" xmlns="http://www.w3.org/2000/svg">

 <g>
  <title>background</title>
  <rect fill="none" id="canvas_background" height="402" width="582" y="-1" x="-1"/>
 </g>
 <g>
  <title>Layer 1</title>
  <path fill="#ffffff" id="svg_1" d="m16,1.955208c-7.7,0 -14,6.3 -14,14s6.3,14 14,14s14,-6.299999 14,-14s-6.299999,-14 -14,-14zm5.700001,16.700001c-0.200001,0.199999 -0.400002,0.299999 -0.700001,0.299999s-0.5,-0.1 -0.700001,-0.299999l-4.299999,-4.300001l-4.3,4.300001c-0.4,0.4 -1,0.4 -1.4,0s-0.400001,-1 0,-1.400002l5,-4.999999c0.4,-0.400001 0.999999,-0.400001 1.400001,0l5,4.999999c0.4,0.400002 0.4,1 0,1.400002z"/>
 </g>
</svg>