<?xml version="1.0" encoding="utf-8"?>
<!-- Generator: Adobe Illustrator 17.1.0, SVG Export Plug-In . SVG Version: 6.00 Build 0)  -->
<!DOCTYPE svg PUBLIC "-//W3C//DTD SVG 1.1//EN" "http://www.w3.org/Graphics/SVG/1.1/DTD/svg11.dtd">
<svg version="1.1" id="Layer_1" xmlns="http://www.w3.org/2000/svg" xmlns:xlink="http://www.w3.org/1999/xlink" x="0px" y="0px"
	 width="1000px" height="1000px" viewBox="0 0 1000 1000" enable-background="new 0 0 1000 1000" xml:space="preserve">
<g>
	<g>
		<path fill="#E5CFAD" d="M715.1,823.6c0,0,58.6-4.4,63.8,0c3.3,2.8-11,18.7-11,18.7s11.9-2.8,14.2,0s-17.5,23.7-31.2,31.4
			c-13.7,7.7-35.9,10.2-35.9,10.2V823.6z"/>
		<path fill="#D1B898" d="M762.9,865.3c-12.7,7.6-27.7,13.1-30.3,9.7c-3.6-4.7,2.2-17.8,2.2-17.8s24.8-12.5,36.3-18.3
			c3-3.7,7.3-9.3,8.3-12.7c-12.1,0.2-39.3,7.5-45.7,5.7c-4-1.1-6.7-5.4-8.3-8.9c-6.1,0.4-10.1,0.7-10.1,0.7V884
			c0,0,22.2-2.5,35.9-10.2C754.7,871.7,758.8,868.6,762.9,865.3z"/>
		<path fill="#E5CFAD" d="M721.3,841.5c0,0,22.2-8.5,52.7-12.6c30.5-4.2,0.8,20.1-55.3,38.7L721.3,841.5z"/>
		<path fill="#D1B898" d="M736.7,852.3c-3.1-3.7-4.1-9.8-4.3-14.5c-7.1,2.1-11.1,3.7-11.1,3.7l-2.6,26c29.7-9.8,51.9-21.2,61.8-29.2
			C768.5,844.4,741,857.4,736.7,852.3z"/>
		<path fill="#F8E4CA" d="M741.4,839.4c0.2-0.1,35.4-10.5,39.1-7.5c3.7,3-30.6,15.6-35.8,16.6C739.5,849.3,736,840.9,741.4,839.4z"
			/>
		<path fill="#F8E4CA" d="M739.7,864.1c0,0,8-3.3,18.8-8.8s17.5-11.5,19.4-10.9c1.9,0.6-8.5,11.3-14.2,16.7
			c-5.6,5.5-23.4,11.7-25.1,11.5C737,872.5,735.9,865.8,739.7,864.1z"/>
		<path fill="#F8E4CA" d="M735.3,824.3c0,0,35.7-2.1,38.9-0.7s-3.5,2.1-12.9,3.4c-9.4,1.3-23.2,3.3-26.1,1.8
			C732.4,827.4,730.9,824.6,735.3,824.3z"/>
	</g>
	<path fill="#C6A685" d="M297.7,776.4c0,0-5.9,91.3,0,102.7c5.9,11.5,15.3-4.6,15.3-4.6s3.2,43.9,12.6,58.4
		c9.4,14.5,16.4,2.3,16.4,2.3s3.3,32.7,48.5,25.7c45.2-7,45.2-22.2,54.6-34.1c9.4-11.8,19.3-14.9,19.3-14.9s-3.5,12,3.8,12.6
		s22.2-23.7,22.6-49.6c0,0,5.9-2.5,20.2-3.8s85.8,49.8,92.6,48.1c6.7-1.7,3.8-17.9,3.8-17.9s16.9,13.4,40.4,16.4
		c23.5,3.1,36.7-1.3,31.7-13c0,0,33.6-4.4,42.4-19.9c8.8-15.5,8.8-51.9,0-59.6c-8.8-7.6-24.8-11.8-24.8-11.8s5.3-11.5,3.4-13.7
		c-1.9-2.3-31.7-16-43.5-23.3S297.7,776.4,297.7,776.4z"/>
	<g>
		<g>
			<path fill="#B59374" d="M518.7,872.7c23.2,8.7,79.1,48,85,46.5c6.7-1.7,3.8-17.9,3.8-17.9s16.9,13.4,40.4,16.4
				c23.5,3.1,36.7-1.3,31.7-13c0,0,33.6-4.4,42.4-19.9c0.6-1.1,1.2-2.2,1.7-3.5c-17.1,10.3-37.9,11.9-47.9,14.7
				c-13.4,3.8-6.6,12.7-17.8,12.7s-44.1-18.1-50.4-19.2c-6.3-1.2-8.9,10.6-17,9.9c-8.1-0.7-50.9-35.2-50.9-35.2L518.7,872.7z"/>
			<path fill="#B59374" d="M438.7,936.5c-69.5,19.6-80.8-17.2-87.7-18.4c-7.3-1.2-16.2-8.9-20.6-30.5c-4.5-21.6-8-31.4-15-41.3
				c-6-8.4-0.9-55.6,1.1-70.3c-11.9,0.2-18.8,0.4-18.8,0.4s-5.9,91.3,0,102.7c5.9,11.5,15.3-4.6,15.3-4.6s3.2,43.9,12.6,58.4
				c9.4,14.5,16.4,2.3,16.4,2.3s3.3,32.7,48.5,25.7C424,955.7,432.7,946,438.7,936.5z"/>
		</g>
	</g>
	<g>
		<path fill="#724C3E" d="M60.7,539.3c0,0,289.3,158.3,691.7,111.5l68.6-65.1l46.5,11.7c0,0-10.7,29.8-33,48.7
			c0,0,68.6-0.7,114.1-27.9c0,0,18.5,14.4,37.2,32.6c0,0-33.1,39.9-101.2,65.3c0,0,29.6,7.6,48.7,6.5c0,0-15.4,35.8-32.9,48.4
			c0,0-86.5-5-116-11c0,0-125.9,38.8-314.3,43.1S41,742,41,742S-31.3,652.1,60.7,539.3z"/>
		<path fill="#5E3C31" d="M796.3,744.8c-21.4,1-76.6,23.7-228.2,33.7c-151.6,10-468.6-5.1-497.1-94.2c-16.9-52.8-1.8-102,13.3-133.3
			c-15.5-7.2-23.6-11.7-23.6-11.7C-31.3,652.1,41,742,41,742s240.9,65.5,429.2,61.2c188.4-4.3,314.3-43.1,314.3-43.1
			c29.5,5.9,116,11,116,11c5.1-3.6,9.9-9.2,14.3-15.3C869.5,751.7,813.1,744,796.3,744.8z"/>
		<path fill="#8A5B4E" d="M124.3,592c1.5,0.5,145.9,50.4,309.4,74.2c163.5,23.8,306.2,0.4,318.7-2.1c12.6-2.5,57.9-52.2,73.8-55.9
			c16-3.7,11.9,6.1,3.3,19.5c-8.6,13.4-12.2,32.8,5,33.3s95.1-20.1,104.2-21.6c9.1-1.5,23.2,14,21,19.4
			c-2.1,5.5-84.5,52.5-97.5,54.1c-12.9,1.6,38.9,14.3,47.4,16.7c8.4,2.4-0.4,12.3-5.5,15c-5.1,2.7-81.9-20.5-107.9-12.2
			c-26,8.2-190.9,34.5-366.2,33.9c-175.2-0.6-311.6-63.6-332.6-89.6S94.9,582.4,124.3,592z"/>
	</g>
	<g>
		<path fill="#442921" d="M61,572.2c0,0,62.3,19.3,63.5,25.6c1.2,6.2-66.2-7.8-77.4-6.4c0,0-4.8,3.2-3.9,5c0.9,1.8,81,9.8,93.9,8.5
			C150.1,603.6,114.1,582,61,572.2z"/>
		<path fill="#442921" d="M40.8,624.1c0,0,174.5-3.9,188.2,0c13.7,3.9,8.5,15,61.3,19.9c0,0-37.3,0.8-58-9
			c-20.8-9.7-188.4-4.1-191.4-4.7C37.7,629.7,33.3,625.6,40.8,624.1z"/>
		<path fill="#442921" d="M255.3,668.9c0,0-105.1-5.3-117.5,0c-12.4,5.3,83.7,29.9,109.1,28.4c0,0-6.9,5.6-54.8-2.4
			c-47.9-8-66.9-19-66.4-28.4C126,657.1,238.9,661,255.3,668.9z"/>
		<path fill="#442921" d="M30.9,662.6c0,0,88.1,37.8,143.2,51.4c55.1,13.6,110.3,21.6,110.3,21.6s-33.8,3.6-110.3-15.7
			S27.8,669.8,27.8,669.8S25,665.6,30.9,662.6z"/>
		<path fill="#442921" d="M43.1,699.4c0,0,105.2,30.4,149.8,40.9c44.7,10.5,109.2,24.1,156.7,28.2c47.5,4.1,122.6,7.1,181,5.6
			c74.1-1.9,106.6-13.1,149.2-19.9s109-20.1,144.3-35.6S956,646.1,956,646.1s3.9,1.2,3.8,6.8c0,0-98.7,57.8-134.8,73.6
			c-36,15.8-126.8,32.9-149.8,37.6s-118.1,17.5-163.9,18.2c-45.8,0.6-185.2-7.1-233.5-15.9s-63.3-11.9-81.8-15.8
			C177.6,746.8,48,710.3,43.1,709C43.1,709,39,705.5,43.1,699.4z"/>
		<path fill="#442921" d="M910.7,735.9c0,0-69-2.6-74.6,3.7s64.1,15.8,64.1,15.8s-59.4-1.8-70.9-13.9
			C817.8,729.5,910.7,735.9,910.7,735.9z"/>
		<path fill="#442921" d="M771.7,658.9c0,0,16.1-9.1,28.6-24.1s36.6-36.3,36.6-36.3s-23.5,28.2-30.5,38
			C794.7,653,771.7,658.9,771.7,658.9z"/>
		<path fill="#442921" d="M749.9,667.2c-0.5,0.6-26.2,7.2-45.1,9.6c-18.9,2.4-14.2,16,32.3,11.3c46.5-4.6,136.7-26.1,140.7-23.9
			c4,2.2-34,26.7-81.7,35.6c-47.7,9-125.3,17-150.4,11.1c0,0,74.1-4.7,132.8-13.9c58.7-9.2,84.7-26.4,85.1-27.3
			c0.4-0.9-65,14.5-87.3,17.1c-22.3,2.6-79.1,12.5-88.3,1.6s8.8-13.6,22.3-15.1C723.9,671.9,749.9,667.2,749.9,667.2z"/>
		<path fill="#442921" d="M556.4,738c0,0,1,15.4,98.1,0c97.1-15.4,156.7-30,156.7-30s-47.7,19.9-127.4,31.6
			C604.1,751.4,563.2,759.6,556.4,738z"/>
		<path fill="#442921" d="M458.2,706.4c-1-0.3,75.4,4.7,102.7-1.6C561,704.8,519.1,724.7,458.2,706.4z"/>
	</g>
	<g>
		<path fill="#E5CFAD" d="M477.8,699.1c0,0,52.6,38.7,54.1,42.6c1.5,3.9-14.5,3.6-14.5,3.6s7.6,9.7,4.3,13.5
			c-3.2,3.8-37.5-1.5-64.7-14.8C457,744,464.1,710.5,477.8,699.1z"/>
		<path fill="#D1B898" d="M521.7,758.8c0.2-0.2,0.3-0.4,0.4-0.6c-16.9,3.2-54.8-11-53.8-14.6c1-4,11.3-11.8,11.3-11.8l39.1,15.4
			c-0.8-1.2-1.4-1.9-1.4-1.9s6.2,0.1,10.5-0.7c-11.2-7.5-38.8-26.1-41.5-29.6c-2.1-2.7-1.9-7.4-1.5-10.6c-4.4-3.2-7.2-5.3-7.2-5.3
			C464.1,710.5,457,744,457,744C484.2,757.4,518.4,762.6,521.7,758.8z"/>
		<path fill="#E5CFAD" d="M477,713.5c0,0.5,58,34.5,56.5,41.4c-1.5,6.9-66.9-23-66.9-23L477,713.5z"/>
		<path fill="#D1B898" d="M483,731.2c-1-4.3,0.2-9.3,1.6-12.9c-4.6-2.8-7.6-4.7-7.6-4.8l-10.3,18.4c0,0,51,23.3,63.9,24
			C516.5,751.5,484.6,737.9,483,731.2z"/>
		<path fill="#F8E4CA" d="M490.9,725.2c0,0,37.1,23.1,37.6,25.9c0.5,2.8-34.2-14.1-38.1-17.2C486.5,730.8,486.2,722.3,490.9,725.2z"
			/>
		<path fill="#F8E4CA" d="M478.2,739.7c0,0,41.7,14.6,41.7,15.7c0,1.1-4,1.9-15.5,0s-29.7-10.1-30.6-11.4
			C472.8,742.6,476.4,739.1,478.2,739.7z"/>
		<path fill="#F8E4CA" d="M491.7,711.9c0,0,37.6,26.8,37.7,28.7c0.1,1.9-1.7,1.7-5.3-0.4c-3.5-2.1-32.6-23.5-34.4-25.6
			C487.9,712.5,488.8,709.8,491.7,711.9z"/>
	</g>
	<path fill="#C6A685" d="M255.4,628.2c-1.6,2.3-10,27-2.3,57.2c7.7,30.2,29.6,61.4,37.1,60c7.5-1.4,11.7-18.1,11.7-18.1
		s45.2,41.6,55.6,39c10.4-2.6,12.7-13,12.7-13s29.5,12.3,51.2,13.1s16.3-15.9,16.3-15.9s19.1-1.2,31.6-14.4
		c12.6-13.2,23.4-43-7.7-62.6C430.6,653.7,255.4,628.2,255.4,628.2z"/>
	<path fill="#B59374" d="M438,758c-33.3-0.8-71.6-18.5-76.8-19c-5.6-0.5-5.1,10.3-13.4,8.6c-8.2-1.7-46.9-40.7-53.4-27
		c-6.5,13.7-16.6,9.8-30.1-26c-13.5-35.8-5.1-48.4-5.1-48.4s-1.9-6.8-5.4-13.7c-2.7,8.6-6.7,29.1-0.6,53c7.7,30.2,29.6,61.4,37.1,60
		c7.5-1.4,11.7-18.1,11.7-18.1s45.2,41.6,55.6,39c10.4-2.6,12.7-13,12.7-13s29.5,12.3,51.2,13.1C433,766.9,436.9,762.4,438,758z"/>
	<g>
		<path fill="#E5CFAD" d="M544.4,687.3c-0.6,0.4-31,43.1-30.4,50.2c0.6,7.1,29-8,29-8s-15.7,22.9-12.8,27.9
			c2.9,5,69.2-34.8,69.2-34.8L544.4,687.3z"/>
		<path fill="#D1B898" d="M539.5,746.1c4.3-6.8,42-35,41.9-35c-0.1-0.1-7-2.6-7-2.6l-38.9,24.1c0,0-16,5.5-16-0.8
			c0-5,19.4-31.3,28-42.6l-3-1.9c-0.6,0.4-31,43.1-30.4,50.2c0.6,7.1,29-8,29-8s-15.7,22.9-12.8,27.9c0.5,0.9,2.9,0.4,6.6-1
			C536.8,753.5,537.3,749.6,539.5,746.1z"/>
		<g>
			<path fill="#E5CFAD" d="M559,694.7c-1,0.3-41.1,45.8-39.5,54.7c1.5,8.8,54.9-37.3,54.9-37.3L559,694.7z"/>
			<path fill="#D1B898" d="M524.9,748c-1.3-7.3,26.2-40.1,36.1-51.1l-1.9-2.2c-1,0.3-41.1,45.8-39.5,54.7c0.3,1.7,2.6,1.3,6.2-0.4
				C525.2,748.8,525,748.5,524.9,748z"/>
			<path fill="#F8E4CA" d="M531.2,739.3c0,0,20.7-27.2,23.9-28.2c3.1-1,10.2,2.8,9.6,5c-0.5,2.2-32.3,26.9-34.3,27.4
				C528.4,744,529.7,741.3,531.2,739.3z"/>
		</g>
		<path fill="#F8E4CA" d="M545.5,742.7c0,0,26-19.9,28.9-20.2c2.9-0.3,10.1,2.3,9.5,4c-0.6,1.7-38.8,22.5-40.8,22.9
			C541,750,542.8,744.8,545.5,742.7z"/>
		<path fill="#F8E4CA" d="M523.4,728c0,0,17.2-27.4,18.7-27.6c1.5-0.1,4.2,1.8,4.3,3c0.1,1.2-19.1,26.7-20.7,28
			C524.2,732.6,521.2,731.4,523.4,728z"/>
	</g>
	<g>
		<path fill="#C6A685" d="M550.2,628.3c0,0-14.7,52.3-9.6,63.7c5.1,11.3,57.7,38.8,65.1,38.1c7.5-0.7,13-9.6,13-9.6
			s1,11.8,10.6,12.1s40.5-43.9,40.5-43.9s8.9,12.5,18.8,11.6s32.8-80.6,32.8-80.6s9.9,16.2,20.7,0c10.9-16.2,8.5-79.8-30.1-109
			C673.5,481.4,550.2,628.3,550.2,628.3z"/>
		<path fill="#B59374" d="M669.9,674.9c-3.7-1-32.6,42.9-38.9,44.3c-6.3,1.4-6.1-10-9.8-10.6c-3.7-0.6-8.7,6.9-15.8,8.1
			c-7.1,1.2-47.8-19.9-51.6-37c-3.9-17.1,15-60.1,15-60.1s-2.5-2.3-6.3-5.4c-7.7,8.6-12.2,14-12.2,14s-14.7,52.3-9.6,63.7
			c5.1,11.3,57.7,38.8,65.1,38.1c7.5-0.7,13-9.6,13-9.6s1,11.8,10.6,12.1c9.6,0.2,40.5-43.9,40.5-43.9s8.9,12.5,18.8,11.6
			c1.9-0.2,4.2-3.2,6.8-8C683.1,688.8,672.7,675.6,669.9,674.9z"/>
		<path fill="#D8B89A" d="M582.9,647.6c0,0,52.3-36.3,70.1-49.4s23.6-0.9,37.4-5.8c13.8-4.9,25.8-36.9,35.2-41
			c9.4-4.2,14.7,45,9.4,55.6c-5.3,10.5-11.4-0.8-17.1,1.5c-5.6,2.3-19.4,55.9-25.1,58.4c-5.6,2.5-17.8-7.6-24.7-4.7
			c-6.9,2.9-26.1,34.3-32.3,35.2c-6.2,0.9-6.4-8-9.1-6.5c-2.7,1.5-18.7,9.1-25.4,9.1s-27.6-12.9-32.7-20.7
			C563.6,671.4,571.4,655.6,582.9,647.6z"/>
	</g>
	<g>
		<g>
			<g>
				<path fill="#C6A685" d="M229,165.3c0,0,14.7-47,31.8-48.5s17.7,22.5,17.7,22.5s15.2-27.2,56.3-42.8
					c41.1-15.6,34.6,21.4,34.6,21.4s21.4-15.6,86-19.9c64.6-4.3,89.2,6.9,89.8,12.8c0.6,5.8-11,18.2-11,18.2s55.9,7.6,80.2,20.9
					s5.3,26.3,5.3,26.3s46,17.8,79.6,50.3c33.6,32.5,20.4,43.2,8.5,42.4c0,0,52.9,56.2,62.1,87.5c9.2,31.4-17.7,18-17.7,18
					s24.2,76.4,15.5,101.8c-8.7,25.4-30.5,6.7-30.5,6.7s-4.5,36.2-29.4,74.5c-24.9,38.3-38.6,21.2-37.8,11.3
					c0,0-63.9,72.5-179.9,99.5s-205.8-18.4-205.8-18.4s5.6,9.2-2.6,13.9c-8.1,4.7-33.6-9.6-49.3-47.3c0,0,0.6,10.9-8.7,15.4
					c-9.3,4.5-41.6-35-47.2-57.5c0,0-11.4,10.2-29.6-28.7c-18.3-39-43.9-274.9,58.6-343.6c0,0-26.9,0.8-32.1-12.9
					C167.9,175.3,214.1,166.7,229,165.3z"/>
				<path fill="#B59374" d="M307.7,640.9c-18.4-8-31.7-8.5-41.8-9.7c-10.2-1.2-25.1-30.7-30.2-32.4c-5.1-1.7-11.9,8.2-20.8,7.7
					c-8.9-0.5-25.6-45.2-37.7-55.6c-12-10.4-30.8-45.2-32.4-159.8c-1.6-114.6,79.2-187.2,78.7-193.8c-0.5-6.5-24.4-8.5-21.3-12.1
					c3.1-3.6,39.2-8.2,43.2-11.1c4.1-2.9,4.4-29,14.3-33.4c9.9-4.4,10.6,19.8,19.4,16.9c8.7-2.9,45.7-41.1,62.9-48.9
					c17.2-7.7,27.3,9.1,27.3,9.1s6.6-37-34.6-21.4c-41.1,15.6-56.3,42.8-56.3,42.8s-0.6-24-17.7-22.5c-17.1,1.5-31.8,48.5-31.8,48.5
					c-14.9,1.5-61.1,10-55.9,23.8c5.2,13.7,32.1,12.9,32.1,12.9c-102.5,68.7-76.9,304.6-58.6,343.6c18.3,39,29.6,28.7,29.6,28.7
					c5.6,22.5,37.9,62,47.2,57.5c9.3-4.5,8.7-15.4,8.7-15.4c15.7,37.7,41.2,52,49.3,47.3c8.1-4.7,2.6-13.9,2.6-13.9
					s89.8,45.4,205.8,18.4c116.1-27,179.9-99.5,179.9-99.5s-65.7,67.8-177.2,90.1C381.2,681,326.1,648.9,307.7,640.9z"/>
			</g>
			<path fill="#D8B89A" d="M303.7,165c0.9-1,29.6-32,40.5-30.9s13.1,8.5,20.3,9.1c7.2,0.5,77.8-30.7,121.5-29.3s20,21.3,22.9,29.9
				s66.9,16.5,77.3,21.3c10.4,4.8,0.3,14.7,6.9,20.3c6.7,5.6,56.2,23.2,79.4,42.1c23.2,18.9,4.5,27.2,12.8,38.2
				c8.3,11.1,60.2,56.6,65,75.3c4.8,18.7-8,14.5-10.1,22.3c-2.1,7.8,16.8,89.9,11.2,101.9c-5.6,12-18.5,0.8-23.1,10.1
				c-4.6,9.3-24.6,73-35.5,81.3c-10.9,8.3-17.7-14.9-27.2-8.3c-9.5,6.6-68.6,80.3-200.6,95.7c-132,15.4-198.6-58.7-206.1-62.2
				c-7.5-3.5-32.7,4.3-39.7,4.8c-7,0.5-41.4-66.6-47-92.7c-5.6-26.1,8.6-164.8,25.6-203.1s43.7-81.5,47.7-86.8
				c4-5.3-12.8-7.7-9.6-13.9c3.2-6.1,21.6-4.8,24-8c2.4-3.2,1.2-17.6,5.9-17.6C270.6,164.5,283.4,189,303.7,165z"/>
			<g>
				<path fill="#F7E8D6" d="M419.5,346.4c0,0,3.8-102.4,123.2-109.4c119.4-7,203.5,84.6,182.5,210.1
					c-21,125.5-213.6,200.9-326.6,196.8c-158-5.8-248.4-123.5-245.7-217.4C155.5,329.1,327.4,236.6,419.5,346.4z"/>
				<path fill="#F2DCC3" d="M223.4,352.4c87.8-65.8,196.1-6,196.1-6c-92.1-109.8-263.9-17.3-266.7,80
					C150,520.4,240.5,638,398.4,643.8c97.8,3.6,254.9-52.3,309.3-148.5c-72.8,50.8-205.8,107-325.7,102.9
					C220.6,592.8,135.6,418.2,223.4,352.4z"/>
				<path fill="#FFF4EA" d="M434.5,363.2c0,0,26.4-73.6,108.5-93.7c82.1-20.1,147.7,39.7,153.2,110.6C701.8,451,644.2,547.4,446,572
					c-164.3,20.4-245-101.1-217.1-170C257,333.2,410.3,346.2,434.5,363.2z"/>
				<path fill="#7F715A" d="M541.8,311.8C480.4,339,469.7,416.1,562,445.4c61.2,19.4,101.2,59.2,121.1,83.8
					c21.7-24.1,36.9-51.6,42-82c7.4-44,1.8-83.8-13.6-116.7C659.1,296.9,586.7,291.9,541.8,311.8z"/>
				<path fill="#6E604E" d="M587.1,426.9c-74.6-23.7-81.9-78.7-49.4-113.2c-57.7,28.7-65.9,103,24.3,131.6
					c61.2,19.4,101.2,59.2,121.1,83.8c7.2-8,13.7-16.5,19.4-25.2C681.1,479.3,642.9,444.7,587.1,426.9z"/>
				<path fill="#8F7E69" d="M696.6,335.4c-1.3-0.4-91.6-32.2-137.7-7.4c-46.2,24.8-21.1,64.9,20.5,74c41.6,9.1,96.2,37,109.6,49.9
					S729.2,344.3,696.6,335.4z"/>
				<path fill="#7F715A" d="M174.2,512.6c22.1,42.3,60.8,81.5,114,105.9c-0.1-24.4,5.2-61.8,33.4-90.8
					c45.8-47.2,43.7-87.8,17.7-116.9C314,382.8,212,384.5,174.2,512.6z"/>
				<path fill="#6E604E" d="M211.6,507.3c-0.9-42,26.8-79.9,50-104.2c-33.4,12.9-68.4,45.4-87.4,109.5
					c22.1,42.3,60.8,81.5,114,105.9c0-7.8,0.5-16.9,2.1-26.6C253.9,574.7,212.4,547.5,211.6,507.3z"/>
				<path fill="#8F7E69" d="M281.2,550.8c0,0,15-28.2,41.9-60.4c26.9-32.3,12.1-83.8-28.4-76.3c-40.5,7.5-64.7,49.6-68.2,79.2
					C223,522.9,266.6,574.6,281.2,550.8z"/>
				<g>
					<path fill="#3E1421" d="M469.7,416.1c3.2,8.3-8.2,20.4-25.3,26.9c-17.2,6.5-33.7,5.1-36.8-3.2c-3.2-8.3,4.8-29.3,21.9-35.8
						C446.6,397.4,466.5,407.7,469.7,416.1z"/>
					<path fill="#4C172A" d="M464.8,415.9c1.6,5.7-7.8,13.4-21.1,17.2c-13.3,3.8-25.4,2.3-27-3.5c-1.6-5.7,6.1-19.5,19.3-23.3
						C449.3,402.5,463.2,410.2,464.8,415.9z"/>
					<path fill="#2E131C" d="M449.2,435.8c-17.2,6.5-33.7,5.1-36.8-3.2c-1.6-4.2-0.4-11.4,3.3-18.5c-7.3,8.8-10.3,20.1-8.1,25.7
						c3.2,8.3,19.7,9.8,36.8,3.2c12.7-4.8,22.2-12.7,25-19.9C464.8,428,457.7,432.6,449.2,435.8z"/>
					<g>
						
							<ellipse transform="matrix(0.8031 -0.5959 0.5959 0.8031 -160.7949 351.4427)" fill="#190D11" cx="451.3" cy="419" rx="6.7" ry="7.8"/>
						<path fill="#010101" d="M456.2,422.3c-3,2.2-7.5,1.2-10-2.3c-0.9-1.2-1.3-2.5-1.5-3.9c-0.6,2.2-0.2,4.7,1.4,6.9
							c2.6,3.5,7.1,4.5,10,2.3c1.9-1.4,2.6-3.9,2.2-6.4C457.9,420.2,457.3,421.4,456.2,422.3z"/>
						
							<ellipse transform="matrix(0.5926 -0.8055 0.8055 0.5926 -152.018 533.7205)" fill="#281018" cx="451.6" cy="417.1" rx="3.9" ry="4.5"/>
					</g>
					<g>
						
							<ellipse transform="matrix(1 1.131933e-003 -1.131933e-003 1 0.4869 -0.4798)" fill="#190D11" cx="424.1" cy="429.9" rx="6.7" ry="7.8"/>
						<path fill="#010101" d="M426.1,435.4c-3.7,0-6.7-3.5-6.7-7.8c0-1.5,0.5-2.8,1.1-4c-1.8,1.4-3,3.7-3,6.3c0,4.3,3,7.8,6.7,7.8
							c2.4,0,4.4-1.6,5.6-3.8C428.7,434.8,427.4,435.4,426.1,435.4z"/>
						
							<ellipse transform="matrix(0.9562 -0.2927 0.2927 0.9562 -106.8257 143.3232)" fill="#281018" cx="425.5" cy="428.6" rx="3.9" ry="4.5"/>
					</g>
				</g>
				<g>
					<path fill="#010101" d="M428,480.2c-19.7,0-35.1-4.2-35.4-4.3c-1.7-0.5-2.6-2.2-2.2-3.8c0.5-1.7,2.2-2.6,3.8-2.2
						c0.7,0.2,73,19.9,101.8-28.8c0.9-1.5,2.8-2,4.3-1.1c1.5,0.9,2,2.8,1.1,4.3C484,473.7,452.6,480.2,428,480.2z"/>
				</g>
				
					<ellipse transform="matrix(0.9562 -0.2927 0.2927 0.9562 -141.7689 93.1101)" fill="#F9B7B8" cx="240.2" cy="520.2" rx="23.8" ry="19.2"/>
				
					<ellipse transform="matrix(0.9562 -0.2927 0.2927 0.9562 -88.8498 210.0311)" fill="#F9B7B8" cx="657.3" cy="401.9" rx="23.8" ry="19.2"/>
				<g>
					<path fill="#010101" d="M558.1,402.1c-3.3,0-6.1-2.6-6.2-6c-0.3-8.9,4-27.1,22.7-32c23.7-6.1,36.1,22.5,36.6,23.7
						c1.3,3.2-0.2,6.8-3.3,8.2c-3.2,1.3-6.8-0.2-8.2-3.3c-0.1-0.2-8.7-19.9-22-16.5c-13.6,3.5-13.4,18.9-13.4,19.5
						c0.1,3.4-2.6,6.3-6.1,6.4C558.2,402.1,558.2,402.1,558.1,402.1z"/>
				</g>
				<g>
					<path fill="#010101" d="M262.7,476.5c-3.3,0-6.1-2.6-6.2-6c-0.3-8.9,4-27.1,22.7-32c23.7-6.1,36.1,22.5,36.6,23.7
						c1.3,3.2-0.2,6.8-3.3,8.2c-3.2,1.3-6.8-0.2-8.2-3.3c-0.1-0.2-8.7-19.9-22-16.5c-13.6,3.5-13.4,18.9-13.4,19.5
						c0.1,3.4-2.6,6.3-6.1,6.4C262.8,476.5,262.8,476.5,262.7,476.5z"/>
				</g>
			</g>
			<g>
				<path fill="#E71C39" d="M144.6,299.3c0,0-28.6-24.8-58-3.9s-27.1,54.2-6,73.9c21.1,19.7,74.9,18.7,74.9,19.6
					c0,0.9,19.4-23.3,18.4-23.9C173,364.3,144.6,299.3,144.6,299.3z"/>
				<path fill="#CE2033" d="M173.9,365c-0.1-0.1-0.8-1.4-1.8-3.6c-1.7-1.1-4.2-0.9-7.6,1.1c-19.8,11.7-28.3,5.8-46-1.6
					s-38.6-5.5-43.7-31.2c-2.3-11.7,3.5-23.8,10.6-33.5c-28.2,21-25.7,53.6-4.9,73.1c21.1,19.7,74.9,18.7,74.9,19.6
					C155.5,389.8,174.9,365.7,173.9,365z"/>
				<path fill="#EE2551" d="M92.3,329.8c0,0,29.2,16.2,29.6,23.2c0.4,7-35-9.4-41.2-20.5c-6.2-11.1,1.9-30.6,14.7-37.9
					c12.7-7.4,26.7-2.2,29.8,0.6c3.1,2.8,7.1,23.9,6.4,26.2c-0.7,2.3-14.7-14.1-21.6-13c-7,1.1,13.2,20.4,14.3,25
					c1.1,4.5-21-13.3-31-13C83.2,320.5,88.9,327.8,92.3,329.8z"/>
				<path fill="#A01C32" d="M86.7,348.2c0,0,24.5,15.3,48.5,14.3c0,0-9.9-17.6-44.1-37.5c0,0,26,2.6,46.2,30.5
					c0,0-7.1-26.3-25.3-43.7c0,0,25.8,14.9,33.1,55C145,366.8,124.5,376.5,86.7,348.2z"/>
				<path fill="#E71C39" d="M195,346.7c0,0,42.9-23.7,32.4-59.8c-10.5-36.2-42.5-43.8-66.6-31.5c-24.1,12.3-30.4,40.4-24.5,70.9
					C140.2,346.9,147.7,375.1,195,346.7z"/>
				<path fill="#CE2033" d="M175.6,356.1c-21.7-6.2-38.1-35.1-30.9-66.7c4.6-20.2,21.2-32.5,34.1-39.3c-6.2,0.6-12.3,2.4-18,5.3
					c-24.1,12.3-30.4,40.4-24.5,70.9C139.6,343.7,145.4,366.5,175.6,356.1z"/>
				<path fill="#A01C32" d="M165.5,275.3c0,0-19.3,23-9.9,53.8c0,0,15.5-29.2,33.6-37.6c0,0-30.6,26.8-26.4,52.7
					c0,0,20.8-19.9,35.1-23.8c0,0-29.8,17.7-35.1,33.5c0,0-10.4-7.3-15.1-25.9C142.8,309.2,154.8,281.9,165.5,275.3z"/>
				<g>
					<path fill="#E71C39" d="M146.7,379.7c0,0,14.1-34.3,52.9-42.7c38.8-8.4,50.7,24.7,44.3,50.2c-6.4,25.5-42.7,48.2-64.2,34.8
						C158.2,408.6,146.7,379.7,146.7,379.7z"/>
					<path fill="#CE2033" d="M211.6,422.1c-8.5,0-16.1-2.8-19.6-11.3c-10.1-24.7-31.3-33.2-27.5-48.3c1.7-6.8,10.2-14.1,19.2-20.2
						c-26.9,12.6-37.1,37.4-37.1,37.4s11.6,28.9,33,42.3C188.8,427.7,200.5,426.9,211.6,422.1z"/>
					<path fill="#A01C32" d="M168.5,373.5c0,0,21.6,9.4,29.1,25.5c0,0-19.9-19.7-36.9-21.3c0,0,10.4-29.8,58.5-25.3
						c0,0-29.9,5.3-38,14.4c0,0,22,3.8,30.5,16.5C211.6,383.3,194,367.2,168.5,373.5z"/>
					<path fill="#EE2551" d="M196.1,363.1c0,0,23.8-8.5,27.3-10.8c3.5-2.2-11.8-6-24.1-3.8c-12.3,2.2-25.9,9.2-28.2,11.6
						c-2.3,2.3-1.1-7.4,15.1-15.5c16.2-8.1,47.2-7.7,53.2,18.6c6,26.3-16.7,47-25.3,51.1c-8.6,4.2-15.3-1.6-17.9-6.7
						c-2.6-5.1-11.8-13.3-9.9-14.3c1.9-1,12.9,12.9,16.6,9.2c3.7-3.7-14.6-19.3-16.6-24c-2-4.7,19,3.8,25.4,9.6
						c6.4,5.8,6.6-8.3-2.5-14.7C199.9,367.1,190.3,365.3,196.1,363.1z"/>
				</g>
				<g>
					<path fill="#E71C39" d="M133.7,381.4c0,0-20.5-27.4-54-20C46.3,368.7,42.9,405.6,54,422c11,16.4,37.9,14.3,50.8,2.5
						S133.7,381.4,133.7,381.4z"/>
					<path fill="#CE2033" d="M63,421.7c-11-16.4-7.6-53.3,25.8-60.7c1.7-0.4,3.4-0.7,5-0.9c-4.4-0.2-9,0.1-14,1.2
						C46.3,368.7,42.9,405.6,54,422c6.7,9.9,19.2,13.1,30.8,11.4C76.1,432.7,67.9,429.1,63,421.7z"/>
					<path fill="#A01C32" d="M65,391c0,0,21.2-22.8,47.9-15c0,0-33.6,13.8-37.7,34.8c0,0,8.2-19.4,44.3-33.8c0,0-8.8-11.3-28.4-6.3
						C71.6,375.7,65,391,65,391z"/>
					<path fill="#EE2551" d="M78.3,412.9c0,0,10.2-16.2,26.9-26.1s0.5,5.2-5,15.7c-5.4,10.5-10.6,22.2-13.5,25.3
						c-2.9,3.1-19.4-2.5-24.4-18.6s2.6-29.2,6.3-33.6c3.7-4.5,14.1-10.8,16.2-11.3c2.1-0.5,2.3,3,1.2,4.7c-1.1,1.8-12.9,4.5-17.7,12
						c-4.8,7.6-4.7,11.6-3.8,13.5c0.9,1.9,24.4-15.4,30.8-14.6c6.4,0.8-11.9,6-19.8,20.3C67.6,414.2,74.8,417.8,78.3,412.9z"/>
				</g>
				<g>
					<path fill="#E71C39" d="M94.4,432c0,0,10.5-51.8,42.6-55.7c32-3.9,52.2,31.7,54,55.7c1.8,24-31.6,55.1-55.1,54
						C112.5,484.9,87.3,476.7,94.4,432z"/>
					<path fill="#A01C32" d="M148.3,454.3c0,0-15.5-31.2-3.5-63.2c0,0,14.6,0.2,32.4,31.8c0,0-8.7-31.7-36.7-41.5
						c0,0-21.4,10.4-26.9,32.9c-5.5,22.5-0.3,42.8-0.3,42.8s-1.7-44.2,24.2-66C137.6,391.1,128.3,430.7,148.3,454.3z"/>
					<path fill="#CE2033" d="M181.2,459c-28.6,22.7-74.9,19.3-78.1-18.5c-2.3-27.3,12.3-48.8,23-60.7C102.6,392.2,94.4,432,94.4,432
						c-7.2,44.7,18.1,52.9,41.5,54C150.8,486.6,169.8,474.3,181.2,459z"/>
					<path fill="#EE2551" d="M118.6,452.8c0,0,1-20.4,7.8-38.9c6.8-18.6,1.2,0.4,9.1,24.3c7.9,23.9,13.4,22.5,16.7,19.9
						c3.3-2.6-10.6-41.4-3.1-53.3c7.5-11.9,27.6,29.1,31,26.2s-5.6-29.1-19.3-42.6c-13.7-13.5,16.6,1.2,23.8,28.8
						c7.2,27.7-10.9,44.8-31,47.6C133.4,467.6,120.8,464,118.6,452.8z"/>
				</g>
				<path fill="#EE2551" d="M148.4,291.6c0,0,7.9-17.8,18.3-19.9c10.4-2.1-9,16.2-9.1,30.7c-0.1,14.5,12.5-10.5,29.9-14.1
					c17.4-3.5-12,19.7-15.8,33.2c-3.8,13.5,21-7.6,28.6-7c7.6,0.7-13.2,15.6-12.7,18.8c0.5,3.2,18-2.4,21.3-5.3
					c3.3-2.9,20.8-26,12-44.4c-8.7-18.4-27.3-30.3-40-28.7c-12.7,1.6-26.1,17.2-31,25.3C144.9,288.3,145.1,297.7,148.4,291.6z"/>
				<g>
					<g>
						<path fill="#FCB017" d="M143.6,379.4c-6.5,0-32.8-9.8-41.1-13l1.1-2.9c16.1,6.1,34,12.2,39,12.8c-2.2-4.7-15.2-20.4-27.8-34.2
							l2.3-2.1c13.7,15.1,29.9,34,28.8,37.9c-0.2,0.7-0.7,1.2-1.4,1.4C144.3,379.4,144,379.4,143.6,379.4z"/>
					</g>
					<g>
						<path fill="#FCB017" d="M145.5,379.2c-0.8,0-1.5-0.4-2-1c-2.7-3.6-0.2-36,0.6-45.8l3.1,0.3c-1.6,18.7-2.4,39.4-1.4,43.3
							c2.5-1.2,9.3-9.9,14.6-17.8l2.6,1.7C159.3,365.6,149.8,379.1,145.5,379.2C145.6,379.2,145.6,379.2,145.5,379.2z"/>
					</g>
				</g>
				<g>
					<g>
						<circle fill="#FEEF58" cx="103.1" cy="365" r="11.3"/>
						<path fill="#FCE438" d="M105.4,372.7c-6.2,0-11.3-5.1-11.3-11.3c0-1.5,0.3-2.9,0.8-4.2c-1.9,2-3.1,4.8-3.1,7.8
							c0,6.2,5.1,11.3,11.3,11.3c4.8,0,8.8-2.9,10.5-7.1C111.5,371.3,108.6,372.7,105.4,372.7z"/>
						
							<ellipse transform="matrix(0.8542 0.52 -0.52 0.8542 203.7768 -1.5802)" fill="#FFF18A" cx="104.7" cy="362.5" rx="8.1" ry="7"/>
					</g>
					<g>
						<circle fill="#FEEF58" cx="116" cy="341.1" r="11.3"/>
						<path fill="#FCE438" d="M118.3,348.8c-6.2,0-11.3-5.1-11.3-11.3c0-1.5,0.3-2.9,0.8-4.2c-1.9,2-3.1,4.8-3.1,7.8
							c0,6.2,5.1,11.3,11.3,11.3c4.8,0,8.8-2.9,10.5-7.1C124.4,347.4,121.5,348.8,118.3,348.8z"/>
						
							<ellipse transform="matrix(0.8542 0.52 -0.52 0.8542 193.2205 -11.7854)" fill="#FFF18A" cx="117.6" cy="338.6" rx="8.1" ry="7"/>
					</g>
					<g>
						<circle fill="#FEEF58" cx="145" cy="331.5" r="11.3"/>
						<path fill="#FCE438" d="M147.4,339.2c-6.2,0-11.3-5.1-11.3-11.3c0-1.5,0.3-2.9,0.8-4.2c-1.9,2-3.1,4.8-3.1,7.8
							c0,6.2,5.1,11.3,11.3,11.3c4.8,0,8.8-2.9,10.5-7.1C153.5,337.9,150.6,339.2,147.4,339.2z"/>
						
							<ellipse transform="matrix(0.8542 0.52 -0.52 0.8542 192.4926 -28.2759)" fill="#FFF18A" cx="146.7" cy="329.1" rx="8.1" ry="7"/>
					</g>
					<g>
						<circle fill="#FEEF58" cx="161.8" cy="358.7" r="11.3"/>
						<path fill="#FCE438" d="M164.2,366.4c-6.2,0-11.3-5.1-11.3-11.3c0-1.5,0.3-2.9,0.8-4.2c-1.9,2-3.1,4.8-3.1,7.8
							c0,6.2,5.1,11.3,11.3,11.3c4.8,0,8.8-2.9,10.5-7.1C170.3,365.1,167.4,366.4,164.2,366.4z"/>
						
							<ellipse transform="matrix(0.8542 0.52 -0.52 0.8542 209.0799 -33.0466)" fill="#FFF18A" cx="163.5" cy="356.2" rx="8.1" ry="7"/>
					</g>
				</g>
			</g>
		</g>
		<polygon fill="#FDC20F" points="741.3,196.2 805.3,196.2 808.3,245.9 754.2,231.2 		"/>
		<path fill="#FDC20F" d="M682.5,124.5L747.9,52c0,0,28,14.2,40.5,47.1L702.3,148L682.5,124.5z"/>
		<path fill="#FDC20F" d="M592.3,81.5c-0.2-0.9,4.4-72.5,4.4-72.5s34.4-8.3,53.7,8.1l-25.4,67L592.3,81.5z"/>
	</g>
	<path fill="#D8B89A" d="M270.1,672.3c0,0,14.3,1.9,22-2.5c7.8-4.4,44.2,8.3,76,12.3c31.9,3.9,76.8,1.9,89.5,5.1
		c12.6,3.2,15.1,29.3,1.6,41.3c-13.4,11.9-21,14.6-35.5,15.5c-14.5,0.9-53.3-15.4-64.2-14.4c-10.9,1-13.8,5.4-17.4,3.2
		s-36.6-23.6-43.3-24.3c-6.7-0.7-10.4,6.6-16.5,3.5C276.3,708.9,260,672.1,270.1,672.3z"/>
	<path fill="#A68162" d="M525.1,875.5l39.1-30.9c0,0-43,23.3-50.2,18.5c-7.2-4.9,5.2-25.5,5.2-25.5l-28.3,37.3c0,0,5.9-2.5,20.2-3.8
		C513.9,870.8,518.9,872.5,525.1,875.5z"/>
	<path fill="#D8B89A" d="M351.5,812.5c1.3,0.1,81.9,5.6,152.6,3.6c70.7-2,151.7-18.6,163.1-18.8c11.4-0.2,22.4,3.6,21.4,7.6
		c-1,4-3.8,8.6-2.6,11.6c1.2,3,20.9,7.8,26,14.4c5.1,6.6,3.1,33.9,0,40.2c-3.1,6.3-36.6,9.1-43.2,13.2c-6.6,4.1-7.4,10-13.8,11.2
		c-6.4,1.2-44.8-17.5-47.5-17.8c-2.7-0.3-10.1,5.8-15.1,6.3c-4.9,0.5-32.5-19.4-31.4-23.7c1.1-4.3,16.5-23.2,13.4-27
		c-3.1-3.8-40.8,17.8-45.9,18.5s3.1-23.4-4.2-22.7c-7.3,0.7-34.9,28.2-39.3,38.5c-4.4,10.4-4.6,33.6-9.2,38.2
		c-4.6,4.6-4.5-6.9-11.3-4.9c-6.8,2-31.2,20.4-35.4,24.2c-4.2,3.8-42,4.4-49.7-1.5c-5.6-4.2-20.7-25.1-28.7-27.1
		c-7.9-2-15-42.4-20.4-53.6C324.7,831.6,324.1,811,351.5,812.5z"/>
	<g>
		<path fill="#E5CFAD" d="M398.5,935.9c0,0,10.7-9.4,21.1-3.3c10.3,6.1,8,52.9,5.4,56.9c-2.5,4-14.9-10.6-14.9-10.6
			s-1.9,12.6-6.4,17.6c-4.5,5-33.3-19.2-38.1-39.2C360.9,937.2,383.3,934.7,398.5,935.9z"/>
		<path fill="#D1B898" d="M419,957.3c-1.9-12.3-5.5-21.5-8-26.7c-5.3,0.4-9.7,3.2-11.6,4.6l7.9,49.8c0,0-5.2,7.5-9.2,6.2
			c-4-1.3-22-18.5-27.2-34.1c-2.7-8-0.4-14,2.6-18c-6.2,3.1-10,8.6-7.8,18.1c4.8,20,33.6,44.2,38.1,39.2c4.5-5,6.4-17.6,6.4-17.6
			s12.3,14.6,14.9,10.6c0.3-0.5,0.6-1.6,0.9-3.3C421.4,982.5,421.6,974.1,419,957.3z"/>
		<g>
			<path fill="#E5CFAD" d="M393.7,968.4c0,0,17.2,35.1,23.6,31.3c6.4-3.8,0-66.6-15.6-75.1C395.1,921,374.6,928.2,393.7,968.4z"/>
			<path fill="#D1B898" d="M418.7,993.3C412.2,997.1,395,962,395,962c-6.4-13.4-8.3-23.1-7.9-30c-2.6,6.7-2.1,18.2,6.5,36.4
				c0,0,17.2,35.1,23.6,31.3c1.2-0.7,1.9-3.5,2.3-7.5C419.3,992.7,419,993.1,418.7,993.3z"/>
			<path fill="#F8E4CA" d="M415.2,981c0,0-4-45.2-13.5-50.3c-9.6-5-13.1,3.1-8.6,16.7C397.5,961,417.7,1000.9,415.2,981z"/>
		</g>
		<path fill="#F8E4CA" d="M422.7,972.8c0,0-1.8-10.8-2.3-17.6c-0.5-6.8-5.3-19.5-4.5-20.5c0.9-1,5.2-1.6,7.6,8.3
			c2.5,9.9,2.5,33.2,1.6,35.1C424.2,979.9,423.1,975.6,422.7,972.8z"/>
		<path fill="#F8E4CA" d="M382.3,942.2c0,0,1.5,7.5,5.8,19.7c4.3,12.2,11.6,20.2,11.2,23.4c-0.4,3.2-7.1-3.1-12.7-9.2
			c-5.5-6-14-19.3-13.6-28.1C373.5,939.2,381.6,939.2,382.3,942.2z"/>
	</g>
</g>
</svg>
