<?xml version="1.0" encoding="utf-8"?>
<!-- Generator: Adobe Illustrator 17.1.0, SVG Export Plug-In . SVG Version: 6.00 Build 0)  -->
<!DOCTYPE svg PUBLIC "-//W3C//DTD SVG 1.1//EN" "http://www.w3.org/Graphics/SVG/1.1/DTD/svg11.dtd">
<svg version="1.1" id="Layer_1" xmlns="http://www.w3.org/2000/svg" xmlns:xlink="http://www.w3.org/1999/xlink" x="0px" y="0px"
	 width="693.3px" height="569.5px" viewBox="2.6 67.9 693.3 569.5" enable-background="new 2.6 67.9 693.3 569.5"
	 xml:space="preserve">
<g>
	<path fill="#C6A685" d="M148,380.6c0,0-21.3,8.5-22.8,13.6s3.3,8.5,3.3,8.5s-28.8,7.9-34,32.9s12.4,40.9,28.5,48.1s38.5,9.6,41.7,7
		s-5.4-11.1-5.4-11.1s26.1,1.4,36.2-3.2c10.1-4.5-0.8-8.9-0.8-8.9s18.3-4.8,27.5-17.5s19.2-49,15.6-51.3
		C234.2,396.5,148,380.6,148,380.6z"/>
	<path fill="#D8B89A" d="M156.2,393.3c0,0,20.6,6.9,21.8,9.6c1.3,2.6-8.3,8.4-10.9,14.4c-2.7,5.9,6.8,13.5,15,17.5
		c8.2,4.1,15.6,12.7,15.2,17.4c-0.4,4.7-12.6,8-15.7,10.1c-3.2,2.1-3.9,5.1-14,5.5s-16.4,1.6-22,3.9s-23.7-2.6-29.9-19.3
		c-6.1-16.6,18.9-35.6,23.5-41.1s3.5-13.2,5.3-15.2C146.4,394.1,150.1,391.2,156.2,393.3z"/>
	<path fill="#B59374" d="M220.9,451.8c-2.1-3.1-4.6-4.1-7-1c-8.6,10.7-29.3,14.1-28.8,16.8c0.5,2.7-4.2,5-17.4,5.3
		c-13.1,0.3-15.9,1.7-18.4,4.8c-2.5,3.1-16.4,0.8-26.8-6.8c-10.4-7.6-23.2-22.8-16-38.6c7.1-15.8,30.6-27,31.4-29.5
		c0.8-2.4-5.7-5.2-0.8-10.1c3.1-3.1,13.4-7.5,20.6-10.3c-5.9-1.1-9.6-1.8-9.6-1.8s-21.3,8.5-22.8,13.6c-1.6,5.1,3.3,8.5,3.3,8.5
		s-28.8,7.9-34,32.9s12.4,40.9,28.5,48.1s38.5,9.6,41.7,7s-5.4-11.1-5.4-11.1s26.1,1.4,36.2-3.2c10.1-4.5-0.8-8.9-0.8-8.9
		S211.3,463.3,220.9,451.8z"/>
	<g>
		<path fill="#72C15F" d="M112.4,442.7c0,0-9.9-4.7-17.7-10.5c-7.9-5.9-10.6-22.5-5.7-40.6c0,0,12,5,24,15.8
			S116.9,437.5,112.4,442.7z"/>
		<path fill="#53B548" d="M89,391.7c-5,18.1-2.2,34.7,5.7,40.6s17.7,10.5,17.7,10.5c1.4-1.6,3-4.4,4.4-7.8c-7.3-0.3-16.2-2.2-21-9.1
			C86.6,412.9,89,391.7,89,391.7z"/>
		<path fill="#83C669" d="M97.4,421.2c-0.1-0.2-6.7-14-4.7-22.9c0,0,9.4,3.2,17.2,11.7c7.8,8.4,5,17.8,2.6,19.4
			C110.2,431,102.8,430.7,97.4,421.2z"/>
	</g>
	<path fill="#724C3E" d="M113.3,398.8c0,0,27.9,31.1,68.1,23.1l75.3-9.1h92.2l180.3,14.6l99.3-2.9l56.8-11.4c0,0,10.8,12,10.6,39.3
		s-12.8,39.8-12.8,39.8s-50.3,5.8-83.2,2c-32.8-3.8-72.3-5.4-72.3-5.4s-52.6,1.5-97.5,36.7c0,0-8.6-3.6-11.7-11.3
		c0,0,32.1-25.3,59.4-36c0,0-51.9,3.3-81.7-8.1s-74.5-17.4-74.5-17.4s-43.2,6-75.4-2.1c0,0-17,4.2-36.8,4.4
		c-19.8,0.2-41.7,8.4-59.3,9.6s-67.8,0.3-89.6-15.1c0,0-0.1-4.3,2-8.3c0,0,4.4,4.9,33.6,5.6c29.2,0.8,58.2-1.8,63-5.6
		c0,0-34.5-6.9-58.4-27.8C100.9,413.7,103.7,406.2,113.3,398.8z"/>
	<path fill="#8A5B4E" d="M118.4,407.6c0,0,16.8,13.8,34.5,17.4s31.5,4.7,35.6,7.2s10.2,13.3,13.9,14.1c3.8,0.7,6.7-4.4,8-4
		s4.2,3.6,3.3,5c-1.3,2.2-15,1.3-46,7.7c-26.9,5.6-32.1,4-56.1,2.6c-24-1.3-35.3-6.2-36.4-9.3c-1.1-3.1,4.8,3.8,43,1.9
		s44.3-8.6,44.9-9.8c0.6-1.2-34.7-15.8-43-22.9C111.9,410.6,113.5,404,118.4,407.6z"/>
	<path fill="#8A5B4E" d="M278.8,422.8c0,0,30.6,0.7,40.4,0s-10.2,17.1-14.4,19.6c-4.2,2.4-17.4,1.5-23.8-5.4
		S274.2,422.7,278.8,422.8z"/>
	<path fill="#8A5B4E" d="M443,460.9c0,0,7.2,3.1,12.4-1.1c5.2-4.2,10.6-13.8,14-14.6s29.3-0.5,31.3,0.6s-4,13.9-2.3,18.2
		c1.7,4.3,8.7,2.8,9.6,5.3c0.8,2.5,1.7,14.5,0.5,16.6s-23,6.5-37.9,11.5c-15,5.1-31.8,18.1-34.3,18.8c-2.5,0.8-4.8-1.9-1.8-5
		c3-3.1,46.1-32.5,48.5-33.7c2.4-1.3-29.5-5-36.7-8.8C439,464.9,440.2,459.5,443,460.9z"/>
	<path fill="#8A5B4E" d="M638.4,468.2c0,0,9.5-35.7,13.6-39.6c4.2-3.8,22.8-6.9,28.4-4.3c5.6,2.6,8.4,17.4,9.2,27.9
		c0.9,10.5-5.2,23.7-9.2,27.1S633.1,486.5,638.4,468.2z"/>
	<g>
		<path fill="#5E3C31" d="M627.4,479.1c-1.1-12.3,12.3-43.2,19.4-58.2l-18.2,3.7l-12.7,0.4c-8.1,9.7-16.4,19.8-16.4,19.8l-24.6,47.1
			c8.3,0.7,17,1.5,25.2,2.4c32.8,3.8,83.2-2,83.2-2s2.1-2.1,4.5-6.3C664.6,488.3,628.4,490.3,627.4,479.1z"/>
		<path fill="#5E3C31" d="M430.2,525.6c1.4-1.1,2.9-2.2,4.3-3.3c-4.2-3.3-7.2-6.8-5.9-9.5c3.4-6.8,49.2-34.6,49.2-34.6
			c-27.2,10.7-59.4,36-59.4,36C421.6,522,430.2,525.6,430.2,525.6z"/>
		<path fill="#5E3C31" d="M321.6,452.9c0,0,44.7,6,74.5,17.4s81.7,8.1,81.7,8.1s-36.3-2.4-40-9.6s2.7-17.3,2.7-17.3L422.1,436
			l-94.2,9.8c0,0-31.4,9-46-1.2c-11.8-8.2-14.8-25.4-15.6-31.8h-9.5l-7.8,0.9c1.7,11.8,3.7,40.5-18.4,37.6
			c-27.7-3.7-53.3,5.6-76,8.6s-74-1.4-81.8-8.6c-2.6-2.4-3.8-5-4.1-7.3c-4.9-1.3-6.1-2.6-6.1-2.6c-2.1,4-2,8.3-2,8.3
			c21.8,15.4,72,16.3,89.6,15.1c17.6-1.2,39.5-9.4,59.3-9.6s36.8-4.4,36.8-4.4C278.5,458.9,321.6,452.9,321.6,452.9z"/>
		<path fill="#5E3C31" d="M100.9,413.7c23.9,20.9,58.4,27.8,58.4,27.8c-12.7-4.1-46.1-20.2-48.7-29.2c-1.3-4.6,1.7-8.5,5-11.1
			c-1.5-1.4-2.3-2.3-2.3-2.3C103.7,406.2,100.9,413.7,100.9,413.7z"/>
	</g>
	<g>
		<path fill="#442921" d="M75.3,451.4c0,0,22.2,5.6,58.1,2.8c35.9-2.8,74.4-13.8,91.4-12.7c0,0-35.3,7.3-68.4,12.5
			S96.6,459.6,75.3,451.4z"/>
		<path fill="#442921" d="M113.4,414.3c0,0,22.6,14.1,57.1,11.7C170.5,425.9,139.3,435.7,113.4,414.3z"/>
		<path fill="#442921" d="M162.6,436c0,0,36.8-0.9,53.8,1C216.3,437,184.1,441.7,162.6,436z"/>
		<path fill="#442921" d="M319.6,425.9c0,0-17.5,6.6-47.9,3.9c0,0,7.6,10.9,36.6,8.5c0,0-19.7,0.3-29.6-6
			C278.6,432.3,301.4,436.7,319.6,425.9z"/>
		<path fill="#442921" d="M276.5,444c0,0,31.8,4.2,53,1C329.5,445,298.8,453.4,276.5,444z"/>
		<path fill="#442921" d="M455.4,453.9l68.3-4.2C523.7,449.7,491,458,455.4,453.9z"/>
		<path fill="#442921" d="M450.2,463.3c0,0,48.9,1.6,79.7,15.8C529.8,479.1,496,457.5,450.2,463.3z"/>
		<path fill="#442921" d="M446.3,500.5c0,0,29.6-19.2,75.7-20.2C521.9,480.3,484.4,472,446.3,500.5z"/>
		<path fill="#442921" d="M629.8,433.5c-0.7-0.1,44-1.6,61.4,1.3C691.2,434.8,658.6,438.1,629.8,433.5z"/>
		<path fill="#442921" d="M624.4,447.4c0,0,37.4-1,51.4,6.2c0,0-18.7,9-54.3,3.7c0,0,31.7,10.4,58.9-4.1
			C680.4,453.1,664,442.5,624.4,447.4z"/>
		<path fill="#442921" d="M612.8,470.9c0,0,46.9,5.9,70-1.6c0,0-4.7,10.3-53.1,11.8c0,0,33.9-3.3,47.9-9
			C677.7,472,637.3,480.5,612.8,470.9z"/>
	</g>
	<g>
		<path fill="#E5CFAD" d="M229.3,453.5c0,0,14.7,8.7,20.3,19.9c5.5,11.2,9.7,15.8,12.6,4.1l4.6-1.8l1,5.2c0,0,4-1.3,6.7-10.7
			c2.7-9.4-13.2-37.9-13.2-37.9l-20.5,2.2L229.3,453.5z"/>
		<g>
			<g>
				<path fill="#D1B898" d="M249.6,468.9c-6.1-9-17.9-16.5-17.9-16.5s-0.4-0.5-1.1-1l-1.3,2.1c0,0,14.7,8.7,20.3,19.9
					c5.5,11.2,9.7,15.8,12.6,4.1C258,484.8,255.7,477.9,249.6,468.9z"/>
				<path fill="#D1B898" d="M274.8,469c-1.5,2.6-3.3,5.2-4.1,4.3c-1.5-1.6-0.6-5.9-5.5-17.4c-4.9-11.4-12.7-18.9-12.7-18.9l-6.9-1
					l6.5,9.8c0,0,14.2,24.4,10.1,31.7l4.6-1.8l1,5.2c0,0,4-1.3,6.7-10.7C274.7,469.8,274.7,469.4,274.8,469z"/>
			</g>
		</g>
		<path fill="#E5CFAD" d="M249.1,435.8c0,0,8.7,6.3,15.8,21.8c7,15.5,3.5,28.5,0.8,29.6c-2.7,1.2-2.1-7.5-7.5-20.5
			c-4.5-10.8-25.5-24.2-25.5-24.2L249.1,435.8z"/>
		<path fill="#D1B898" d="M265.7,487.3c0.7-0.3,1.5-1.5,2.2-3.4c-4.7-5.2-4.1-14.4-10.3-22.9c-5.3-7.4-16.7-16.3-21.5-19.9l-3.4,1.4
			c0,0,21,13.4,25.5,24.2C263.6,479.7,263,488.4,265.7,487.3z"/>
		<path fill="#F8E4CA" d="M245,443.4c0,0,2.9-2.9,5.8-2.5c2.9,0.4,10.9,12.6,13.9,21.7s3.4,15.5,2.1,16.5c-1.4,1.1-1.2-5.8-4.8-13.7
			C256.8,454.1,243,444.9,245,443.4z"/>
		<path fill="#F8E4CA" d="M237.1,453.4c0.1-0.1,1.4-2.5,2.6-2.6c1.2-0.1,11.4,8.7,14.4,13.6s5.5,11,5,12.8s-3.4-1.7-6.4-7.2
			c-3.1-5.5-9.4-10.4-11.5-12.6C239,455.4,236.6,454.2,237.1,453.4z"/>
		<path fill="#F8E4CA" d="M259.8,440.8c0,0,2.7-0.5,4.2,0.7s5.9,10.7,7.8,17.4c2,6.6,1,10,0,10.9c-1,0.8-1.6-6.1-3.7-11.7
			C266,452.3,258.2,441.2,259.8,440.8z"/>
	</g>
	<path fill="#C6A685" d="M220.4,398.8c0,0-28.6,2.1-44.8,17.2c-9.7,9,6.3,7.8,12.4,11c6.1,3.2,11.7,16.7,15.4,17s6.3-5.5,8.3-4.4
		s10,16.7,15.9,17s9.6-11,18.1-15.9c8.5-4.8,16.6-1,19.6-3.2c2.4-1.8-0.7-20.7-8.5-27.3C248.9,403.7,220.4,398.8,220.4,398.8z"/>
	<path fill="#B59374" d="M245.6,436c-10,4.9-17,15.3-20.8,11.4c-3.9-3.9-9.9-16.2-15.6-12.3c-5.7,3.9-8.7-1.3-13.6-8.1
		c-4.9-6.9-14.3-5.4-12.3-10.6s27.7-14.7,27.7-14.7v-1.5c-9.8,1.9-25.1,6.2-35.4,15.9c-9.7,9,6.3,7.8,12.4,11
		c6.1,3.2,11.7,16.7,15.4,17s6.3-5.5,8.3-4.4s10,16.7,15.9,17s9.6-11,18.1-15.9c8.5-4.8,16.6-1,19.6-3.2c0.6-0.4,0.8-1.9,0.8-3.9
		C259.6,433.3,251.2,433.3,245.6,436z"/>
	<path fill="#E5CFAD" d="M515.1,566.5c0,0-4.1,11.5-0.9,32c3.2,20.6,16,32.1,17.8,26.8s-1.5-45.6-1.5-45.6L515.1,566.5z"/>
	<path fill="#D1B898" d="M516.6,595.9c-2.1-13.5-1.1-23.1-0.1-28.1l-1.4-1.2c0,0-4.1,11.5-0.9,32c3.2,20.6,16,32.1,17.8,26.8
		c0.1-0.3,0.2-0.8,0.3-1.4C528,623.2,519.2,612.4,516.6,595.9z"/>
	<path fill="#E5CFAD" d="M547,578.7c0,0-2.1,19.7,1.5,39.9c3.6,20.3-6.4,15.4-10.4,7.1s-4.4-37.4-3-43.2S547,578.7,547,578.7z"/>
	<path fill="#D1B898" d="M539.7,613.2c-2.7-18.1,0-31.3,0-31.3s-0.3-1.3-0.8-3c-1.8,0.6-3.4,1.6-3.8,3.6c-1.4,5.7-1,34.8,3,43.2
		c2.9,6.1,9.1,10.3,10.8,4.3C546.3,629.2,541.6,626.1,539.7,613.2z"/>
	<g>
		<path fill="#E5CFAD" d="M526.3,576.3c0,0-3.7,9.8-2,28.9s11.6,32.9,16,32.1c4.4-0.8-0.6-9.4-3.2-24.8c-2.5-15.4,1.2-36.3,1.2-36.3
			L526.3,576.3L526.3,576.3z"/>
		<path fill="#D1B898" d="M526.7,602.8c-1.2-13.6,0.3-22.5,1.3-26.5h-1.8c0,0-3.7,9.8-2,28.9c1.7,19,11.6,32.9,16,32.1
			c1.2-0.2,1.7-1,1.7-2.4C537.3,634.3,528.4,620.8,526.7,602.8z"/>
		<path fill="#F8E4CA" d="M530.2,587.2c0,0,3.1,0.4,3.9,1.8c0.8,1.5-1.1,7.7,0,18.9s5.2,20.3,5,21.9c-0.1,1.6-6-5.4-9.4-19.1
			C526.3,597.1,527.8,587.2,530.2,587.2z"/>
	</g>
	<g>
		<path fill="#E5CFAD" d="M312.2,507.5c0,0-0.3,13.8,6.1,26.7c6.4,13,11.9,14.6,15.7,8.7c3.8-5.9-4.9-35.4-4.9-35.4L312.2,507.5
			L312.2,507.5z"/>
		<path fill="#D1B898" d="M320,530.7c-4.4-8.9-5.6-18.2-6-23.2h-1.8c0,0-0.3,13.8,6.1,26.7c6.4,13,11.9,14.6,15.7,8.7
			c0.4-0.6,0.6-1.4,0.8-2.4C331.1,544.9,326,542.7,320,530.7z"/>
		<path fill="#E5CFAD" d="M343,512.2c0,0,5.5,38.5,1.1,42.3s-16.7-10.4-17.8-42.8L343,512.2z"/>
		<path fill="#D1B898" d="M328.3,511.8l-2-0.1c1.1,32.4,13.4,46.7,17.8,42.8c0.6-0.5,1-1.7,1.3-3.3
			C340.8,553.5,330.1,540.4,328.3,511.8z"/>
		<path fill="#E5CFAD" d="M341.4,510.1c0,0-3,25,3.8,34.3c5.6,7.7,9.3-32.6,9.3-32.6L341.4,510.1z"/>
		<path fill="#D1B898" d="M347.2,541.8c-5.3-7.4-4.6-24.6-4.1-31.5l-1.7-0.2c0,0-3,25,3.8,34.3c1.4,1.9,2.6,0.9,3.7-1.7
			C348.4,542.9,347.8,542.7,347.2,541.8z"/>
		<path fill="#F8E4CA" d="M346.1,516.9c0,0,3.7-0.9,5,0.5c1.2,1.3-1.3,20-3,20.5C346.3,538.2,343.5,517.4,346.1,516.9z"/>
		<path fill="#F8E4CA" d="M332.8,516.6c0,0,3.2-0.4,4.6,0.7c1.4,1.1,1.1,6.5,2.1,14.9c1,8.3,3.8,11.6,4,14.2c0.1,2.7-5-0.3-7.4-6.9
			C332.9,530.8,330,516.6,332.8,516.6z"/>
		<path fill="#F8E4CA" d="M319.4,515.4c0,0,3.2-0.4,4.2,0.8c1,1.1,1.1,6.3,2.1,11.6s3.7,10.8,3.1,11.8c-0.6,1.1-5.1-5-8.2-12.1
			S317.8,515.8,319.4,515.4z"/>
	</g>
	<path fill="#F8E4CA" d="M541.5,589.5c0,0,1.6-0.4,2.5,0s0,4.9,0.8,15.6c0.8,10.7,2.8,19.1,2.3,20.2c-0.4,1.1-3.9-3.9-5.6-14.2
		S539.7,590.5,541.5,589.5z"/>
	<path fill="#F8E4CA" d="M518.3,581.6c0,0,2.8,1,3.6,2c0.7,1,0.2,7.4,0.3,14.7c0.1,7.2,1.9,14.1,1.6,15c-0.3,0.8-4.3-8.7-5.4-17.1
		C517.3,587.6,516.9,581,518.3,581.6z"/>
	<path fill="#C6A685" d="M346.2,411.1c0,0-41.8,37.3-40.3,41.8c1.5,4.4,11.6,1.6,11.6,1.6s-19.4,23.8-18.7,30.1
		c0.7,6.3,8.7,3.6,8.7,3.6s-4.4,14,0.7,20.7s46.7,5.5,49.7,4.8s4.4-17.3,8-19.6c0,0,1.4,9.5,5,8.7s11-17.7,13.4-19.8
		c0,0,3.2,7.6,6.4,6.4c3.2-1.3,12.6-16.6,17.1-21c0,0-1,9.2,3.2,10.7s26.2-18,29.6-27.8c0,0,0.7,5.8,5,6.8s15.5-13.7,17.5-18.2
		c0,0,38.7,0.5,48.5,1.4c0,0-9.3,15.3-7.7,20.3c1.6,5,10.7,3,10.7,3s-2.2,18.4,0,24.4c2.2,5.9,6.8,2.4,11.2,6.1
		c4.3,3.8-7.4,40.2-9.1,42.8c-1.7,2.6,6.8,2.7,6.8,2.7s-15.8,16.6-12.1,28c3.8,11.4,21.9,19.5,32.1,18s19.6-15.7,19.6-15.7
		s5.4,5.9,10.2,3.2s13.6-32.1,20.3-38.3c0,0,1.9,7.1,6.6,7.5s6.5-23.1,8.2-40.3s13.2-38,14.3-42.4c1.1-4.3,9.7-19.6,15-33.5
		c5.4-13.9,9.8-23.9,9.8-23.9s7.5,1.4,10-3.4s-1.8-27.8,0-29.6c1.8-1.8,8.4-6.4,9.8-12.5c1.4-6.1-6.6-37.1-6.6-37.1s6.9,2.3,8.9-3.2
		c1.9-5.5-8.4-14.6-13.4-25.5s-18.2-25.3-23.5-27.6c0,0,10.2-0.7,10.7-6.6s-37.2-17.9-53.1-15.3c0,0,25.2-11.4,13.7-23
		s-60.4,16.4-60.4,16.4s8-11.2,0.9-14.6c-7.1-3.4-45,21.2-57.9,20.5c0,0,7.2-13-0.9-14.3c-8.1-1.4-15.4,11.4-31.4,13.2
		c-16.1,1.8-33.9-14.6-33.9-14.6l-78.3,127L346.2,411.1z"/>
	<g>
		<g>
			<path fill="#B59374" d="M357.9,513.7c1.1-0.3,2-2.8,2.9-6c-28-1.2-40-4.8-40.8-12.7c-0.9-8.3-6.3-16.1-3.9-23.8
				c2.4-7.8,11.2-21.6,11.8-25.4c0.6-3.8,8.7-13.8,22.7-19.3s22.7-2.8,27.6-7.3s9.7,0.5,20.1-5.1c10.4-5.7,26.7-18.7,34.4-30.9
				c7.7-12.2,18.6-18.8,22.7-26.2c4.1-7.4,9.1-23.3,9.7-33.1c0.6-9.8,8.3-13.3,9.2-23.8c0.9-10.5-6.6-37.4-4.5-48.7
				c1-5.2,1.4-11.8,1.5-17.3c-4.5,2.9-9.8,5.8-16.8,6.6c-16.1,1.8-33.9-14.6-33.9-14.6L342.1,353l4.1,58.2c0,0-41.8,37.3-40.3,41.8
				c1.5,4.4,11.6,1.6,11.6,1.6s-19.4,23.8-18.7,30.1c0.7,6.3,8.7,3.6,8.7,3.6s-4.4,14,0.7,20.7C313.3,515.7,354.9,514.4,357.9,513.7
				z"/>
			<path fill="#B59374" d="M526.2,570c-4.5-9.1,2.1-14.4,5.7-23.5c3.6-9.1,1.7-11-0.8-20.1s6.6-25.5,6.1-31.8
				c-0.6-6.2-11.2-8.9-12.9-17s-0.9-17.6-7.2-22.3c-6.2-4.7-5.5-14-5.5-14s-9.3,15.3-7.7,20.3c1.6,5,10.7,3,10.7,3s-2.2,18.4,0,24.4
				c2.2,5.9,6.8,2.4,11.2,6.1s-7.4,40.2-9.1,42.8s6.8,2.7,6.8,2.7s-15.8,16.6-12.1,28c3.8,11.4,21.9,19.5,32.1,18
				c1.8-0.3,3.6-0.9,5.4-1.9C540.3,581.2,528.9,575.5,526.2,570z"/>
		</g>
	</g>
	<path fill="#D8B89A" d="M327.7,466c0,0,6.9-15.7,14.4-23.1s28.6-9.9,37.9-14.5s16.2-4.6,27.1-9.1c10.8-4.5,22.3-11.8,31.1-24
		c8.8-12.2,19.3-22.1,26.9-30.6s7.8-23.6,12.8-34.5c4.9-10.9,7.4-21.7,8.6-32.4c1.2-10.7-1.5-32.6,0-37.7s41-27.4,45.6-24.9
		s0,13.4,0,13.4s37.2-19.3,46.3-18.8s-6,16.9-6,16.9s38.5,4.3,43.6,7.6s-5,9.6-5,9.6s18.7,13.4,26.4,20.5s17.4,22.5,16.9,25.1
		s-9.3,2.3-9.3,2.3s8.5,27.1,9.3,36.2s-7.3,12.1-7.3,12.1s4,27.5,1.7,31.3s-9.9,2.1-9.9,2.1s-11.7,30.3-18.8,43.6
		c-7.1,13.4-17,39.5-18.8,47.6s-1.7,38.7-4.3,40.3c-2.6,1.7-9.3-3.6-9.3-3.6s-10.2,29.4-14.5,33.4s-9.9,2.3-9.9,2.3
		s-8.4,11.2-13.8,12.6c-5.4,1.3-13.8-5.6-14.3-8.6s9.3-15.9,8.6-22.5s-1.8-19.7,0.3-32.7c2.1-13.1,1.2-21.2-4.3-26.4
		c-5.5-5.3-7.4-24.1-13.4-33.4s-7.1-13.3-7.1-13.3l-57.9-2.7c0,0-6.2,13.9-11.1,14c-4.9,0.2-8.4-6.9-8.4-6.9s-13.5,23.1-21.1,24.8
		c-7.6,1.7-9.6-8.6-9.6-8.6s-11.7,15.9-16.9,18.5c-5.1,2.6-9.9-4.6-9.9-4.6s-8.9,20.2-12.2,21.5s-6.3-9.6-6.3-9.6s-5,9.9-8.6,13.6
		c-3.6,3.6-19.8-0.2-24.8-3.3C327.4,486,323,475.4,327.7,466z"/>
	<g>
		<g>
			<path fill="#C6A685" d="M90.1,331.3c0,0-22.2,2.1-12.2-43.6c0,0-22.5-17.5,1.8-57.2c0,0-15.9-0.9,2.9-23.9c0,0-11.4-0.1,0.4-23.3
				s48.6-47.9,48.6-47.9s-6.6-2-8.6-8.6s38.2-29.7,75.4-34.3c0,0-9.1-7.5-4.3-15.7s51.7-8,69.4,9.6c0,0-5.7-8.1-14.9-13.8
				c-9.2-5.7,18.3-10.9,37.9,14c0,0-3-11.3,3-15.4c5.9-4.1,17.4,3.2,21,14.7c0,0,20.2-8.5,30.6-5.2c10.4,3.2-7,16.3-7,16.3
				s21.3-2.2,38.8,4s34.6,21.8,15.6,23.1c0,0,17.6,7.1,39,28s22.5,32.2,17.8,33.6c0,0,32.1,59.1,10.4,64.5c0,0,11,24.1,9.3,41.2
				S454.9,305,454.9,305s11.7,47.7-17.7,48.7c0,0-5.9,16.2-17.4,30.7c-11.4,14.5-32.5,28.7-33.6,13.9c0,0-14.1,11-20.9,14.5
				s-6.1-4.6-6.1-4.6s-21.4,17.8-98.6,8.7s-139.4-47-139.4-47s-7.7,4.3-14.5-2.3C99.7,360.6,92.8,348.2,90.1,331.3z"/>
			<path fill="#D8B89A" d="M263,94.7c0,0-25.3-8.9-36.6-5.6c-11.3,3.2,7.4,10.5,4.9,16.9s-23.6,2.4-49.6,9.7
				c-26,7.3-9.3,14.2-7.3,15.8c2,1.5-47.4,23.9-63.7,47.1s-0.6,19.4-4.3,34.3c-3.6,14.9-16.7,31.4-14.2,50.7
				c2.4,19.3,2.2,26.6,7.5,38.1c5.2,11.5,11.5,20.9,19.9,37.6c8.3,16.7,77.6,50,140.2,56.4c62.5,6.4,101.8-10.1,103.6-5.6
				c1.8,4.4,9.3,4.6,20.5-5.2c11.3-9.9,11.7,4,20.2-1.6s24.4-40.4,26.2-42.2c1.8-1.8,6.7,1.5,11.5-3.8c4.8-5.2-1.6-35.4,0-40.6
				c1.6-5.3,12.1-1.7,13.5-7.3c1.4-5.6-7.7-36.8-8.9-43.9c-1.2-7.1,1.8-5.1,3.2-14.4c1.4-9.3-14.9-43.5-18.5-46.6s0.8-10.1-4.8-20
				c-5.6-9.9-40.5-34.6-48-37.1s4.5-8.5,2.1-13.7s-41.9-13.9-52.8-11.4s8.3-12.4,1.6-13.9c-6.6-1.5-16,5.5-19.3,6.3
				s-8.3-14.5-12.5-12.9s-3,11.5-6,14.1s-17.6-17.4-23.6-17.5S270.7,97.1,263,94.7z"/>
			<g>
				<path fill="#F7E8D6" d="M270.5,161.7c0,0,33.5-24.8,85.4-18.5s88,61.2,85.7,128.1s-63.5,121.1-178.2,110.6
					C172.9,373.6,98,338.6,99.6,257.2C101.3,175.8,159.6,94.6,270.5,161.7z"/>
				<path fill="#F2DCC3" d="M242.1,359c-88.7-18.3-133.2-68.1-101.7-149.2s130.1-48.2,130.1-48.2c-111-67.1-169.2,14.1-170.8,95.5
					c-1.6,81.4,73.2,116.4,163.8,124.7c55.3,5.1,98.2-4.9,128-24.1C360.2,363.9,302.2,371.4,242.1,359z"/>
				<path fill="#FFF4EA" d="M275.4,176.8c0,0,55.9-33.4,102.8-11.1c46.9,22.4,56.9,160.8-33.5,175.3s-180.2-19.7-192.4-85.8
					C140.1,189.1,228.5,148.8,275.4,176.8z"/>
			</g>
			<g>
				<path fill="#7F715A" d="M188.5,158c-23.9-4.8-52.2,12.2-69.5,25.1c-12.3,21.3-18.8,47.7-19.3,74c-0.5,23.9,5.6,43.7,16.7,60.1
					c19.8-54.2,84.2-59.7,98.1-82.2C229.6,210.6,225.9,165.5,188.5,158z"/>
				<path fill="#6E604E" d="M214.5,235c2-3.2,3.7-6.9,5-10.7c-36,18.2-103.1,65.2-102.9,22.1c0.1-27.2,6.1-52.4,11.4-69.6l0,0
					c-3.2,2.1-6.2,4.3-9,6.3c-12.3,21.3-18.8,47.7-19.3,74c-0.5,23.9,5.6,43.7,16.7,60.1C136.3,263.1,200.6,257.5,214.5,235z"/>
				<path fill="#8F7E69" d="M134.6,235.8c0,0-3.2-32.5,5.8-47.3c9-14.9,47.1-22.2,59.5-8.8c12.4,13.4,3.2,38.1-3.8,44.7
					C189.2,230.9,135.1,253.8,134.6,235.8z"/>
			</g>
			<path fill="#7F715A" d="M441.7,268.9c0-0.5,0-1,0-1.4c0-0.2,0-0.4,0-0.5c0-0.6,0-1.2,0-1.9l0,0c0-0.6,0-1.2,0-1.8
				c0-0.2,0-0.4,0-0.5c0-0.5,0-0.9,0-1.4c0-0.2,0-0.3,0-0.5c0-1.2-0.1-2.5-0.1-3.7c0-0.2,0-0.3,0-0.5c0-0.5-0.1-1-0.1-1.4
				c0-0.2,0-0.3,0-0.5c-0.1-1.2-0.2-2.5-0.3-3.7c0-0.1,0-0.3,0-0.4c0-0.5-0.1-1-0.1-1.4c0-0.1,0-0.3,0-0.4c-0.1-1.2-0.3-2.4-0.4-3.6
				c0-0.1,0-0.3,0-0.4c-0.1-0.5-0.1-1-0.2-1.5c0-0.1,0-0.2,0-0.3c-0.2-1.2-0.3-2.4-0.5-3.7c0-0.1,0-0.2-0.1-0.3
				c-0.1-0.5-0.2-1-0.3-1.5c0-0.1,0-0.2-0.1-0.3c-0.2-1.2-0.4-2.4-0.7-3.6c0-0.1,0-0.2-0.1-0.3c-0.1-0.5-0.2-1.1-0.3-1.6
				c0-0.1,0-0.1,0-0.2c-0.3-1.2-0.5-2.4-0.8-3.6c0-0.1,0-0.1,0-0.2c-0.1-0.6-0.3-1.1-0.4-1.7V226c-0.3-1.2-0.6-2.4-1-3.6v-0.1
				c-0.2-0.6-0.3-1.2-0.5-1.7c0,0,0,0,0-0.1c-0.3-1.2-0.7-2.4-1.1-3.5v-0.1c-0.2-0.6-0.4-1.1-0.5-1.7v-0.1c-0.4-1.2-0.8-2.3-1.2-3.4
				v-0.1c-0.2-0.6-0.4-1.1-0.6-1.7l0,0c-32.8-27.6-79.6-45.5-100.7-30c-28.8,21.2-20.9,56.4,29.4,85.8c33.1,19.3,46.3,54,51.5,75.5
				c1.8-1.9,3.5-3.8,5.2-5.7c14.4-17.2,22.7-38,24.2-60.1c0-0.1,0-0.2,0-0.3c0-0.3,0-0.5,0-0.8s0-0.5,0-0.8c0-0.2,0-0.4,0-0.6
				c0-0.5,0-0.9,0.1-1.4c0-0.6,0-1.3,0.1-1.9C441.7,269.2,441.7,269,441.7,268.9z"/>
			<path fill="#6E604E" d="M375.2,259.4c-49.6-29-58-63.7-30.6-84.9c-5.1,0.8-9.6,2.5-13.4,5.2c-28.8,21.2-20.9,56.4,29.4,85.8
				c33.1,19.3,46.3,54,51.5,75.5c1.8-1.9,3.5-3.8,5.2-5.7c2.5-3,4.8-6.1,7-9.3C417.8,304.7,404.1,276.2,375.2,259.4z"/>
			<path fill="#8F7E69" d="M425.7,218.7c0,0-50.3-41.9-70.6-33.1c-20.3,8.9-15.9,37.6,6.6,51.8c25.6,16.2,37.3,25.1,43.9,34.6
				c6.6,9.6,16.7,26.7,18.6,28c2,1.3,8.8-22.9,8.4-42.5C432.3,237.8,432.8,224.3,425.7,218.7z"/>
			<g>
				<path fill="#3E1421" d="M285,213.2c-0.5,5.1-9.5,8.4-20.1,7.3c-10.6-1.1-18.7-6.2-18.2-11.3s10.1-13.9,20.7-12.7
					C278,197.5,285.6,208,285,213.2z"/>
				<path fill="#4C172A" d="M282.5,211.8c-0.6,3.4-7.5,4.9-15.4,3.4s-13.7-5.5-13-8.8c0.6-3.4,8.2-8.5,16.1-7
					C278.1,200.8,283.2,208.4,282.5,211.8z"/>
				<path fill="#2E131C" d="M269.3,218c-10.6-1.1-18.7-6.2-18.2-11.3c0.3-2.6,2.8-6,6.6-8.7c-6.1,2.6-10.5,7.7-10.9,11.1
					c-0.5,5.1,7.6,10.2,18.2,11.3c7.8,0.8,14.8-0.8,18.1-3.7C279.4,218,274.5,218.5,269.3,218z"/>
				<g>
					
						<ellipse transform="matrix(-0.1685 -0.9857 0.9857 -0.1685 114.2131 516.1388)" fill="#190D11" cx="274.8" cy="209.9" rx="4.5" ry="3.9"/>
					<path fill="#010101" d="M276.4,212.8c-2.1,0.4-4.2-1.3-4.6-3.8c-0.1-0.9,0-1.7,0.2-2.4c-0.9,1-1.4,2.4-1.1,3.9
						c0.4,2.5,2.5,4.2,4.6,3.8c1.4-0.2,2.4-1.3,2.8-2.7C277.8,212.2,277.2,212.7,276.4,212.8z"/>
					
						<ellipse transform="matrix(-0.4507 -0.8927 0.8927 -0.4507 212.9814 549.0554)" fill="#281018" cx="275.4" cy="209" rx="2.6" ry="2.2"/>
				</g>
				<g>
					
						<ellipse transform="matrix(0.453 -0.8915 0.8915 0.453 -44.7143 343.9214)" fill="#190D11" cx="257.9" cy="208.4" rx="4.5" ry="3.9"/>
					<path fill="#010101" d="M257.4,211.7c-1.9-1-2.5-3.6-1.4-5.8c0.4-0.8,1-1.3,1.6-1.8c-1.3,0.3-2.5,1.1-3.2,2.5
						c-1.1,2.2-0.5,4.8,1.4,5.8c1.2,0.6,2.7,0.4,3.9-0.5C258.9,212.1,258.2,212.1,257.4,211.7z"/>
					
						<ellipse transform="matrix(0.1711 -0.9853 0.9853 0.1711 9.6784 427.5205)" fill="#281018" cx="258.9" cy="208" rx="2.6" ry="2.2"/>
				</g>
			</g>
			<g>
				<g>
					<path fill="#B11F24" d="M229.2,229.9c0,0,25.6,16.9,65.6,2.2c0,0,20.3,8.3,24.8,41.6c4.5,33.4-33.9,64.1-77.5,43.6
						C195.3,295.3,207.3,253.1,229.2,229.9z"/>
					<path fill="#9F1C20" d="M262.4,272.3c-25.9,3.8-39.9,23-40.1-2.9c-0.1-15.1,6.3-28.4,11.7-37c-3.1-1.4-4.7-2.4-4.7-2.4
						c-21.9,23.2-33.9,65.5,12.9,87.4c33.3,15.6,63.5,1.4,73.9-21.1C305,280.3,282.1,269.4,262.4,272.3z"/>
					<path fill="#C32026" d="M242,245.7c0,0,27.8-0.8,45.3-4.6s23.3,25.3,22.4,30.9s-16.4-7.2-37.6-6.9c-21.2,0.3-28.1,5.7-36,7.5
						C228.2,274.5,229.9,246.3,242,245.7z"/>
				</g>
				<g>
					<path fill="#F37879" d="M267.6,279.3c-18.7,0-34.5,12.5-39.5,29.5c3.9,3,8.6,5.9,14,8.4c26.4,12.3,50.8,6,65-8.4
						C302.1,291.8,286.3,279.3,267.6,279.3z"/>
					<path fill="#F16263" d="M276.4,315.8c-18.9,0-34.3-10.1-34.3-22.5c0-2.1,0.5-4.2,1.3-6.1c-7.3,5.3-12.7,12.8-15.4,21.7
						c3.9,3,8.6,5.9,14,8.4c26.4,12.3,50.8,6,65-8.4c-0.4-1.4-0.9-2.7-1.4-4C299.7,311.5,288.9,315.8,276.4,315.8z"/>
					
						<ellipse transform="matrix(0.2584 -0.966 0.966 0.2584 -84.3575 483.2713)" fill="#F48A8B" cx="272.6" cy="296.6" rx="12.8" ry="23.3"/>
				</g>
			</g>
			
				<ellipse transform="matrix(0.1711 -0.9853 0.9853 0.1711 80.1154 636.4591)" fill="#F9B7B8" cx="418.3" cy="270.6" rx="13.4" ry="15.7"/>
			
				<ellipse transform="matrix(0.1126 -0.9936 0.9936 0.1126 -150.0959 347.4955)" fill="#F9B7B8" cx="119.5" cy="257.8" rx="13.4" ry="15.7"/>
			<g>
				<path fill="#010101" d="M148.7,224.7c-0.8,0-1.6-0.3-2.2-1c-1-1.2-0.8-3,0.3-4c10.8-9.1,22.8-11.2,30.6-11.4
					c-10.6-6.7-25.5-7.5-25.7-7.5c-1.5-0.1-2.7-1.4-2.7-2.9c0.1-1.5,1.3-2.8,2.9-2.7c1,0,24.4,1.3,35.7,14.6
					c0.8,0.9,0.9,2.2,0.3,3.2c-0.6,1-1.8,1.6-3,1.3c-0.2,0-19-3.5-34.6,9.7C150,224.5,149.3,224.7,148.7,224.7z"/>
			</g>
			<g>
				<path fill="#70B9E6" d="M149.1,221.2c0,0,10.8,16.9,1.2,19.2C140.9,242.7,141.7,228.9,149.1,221.2z"/>
				<path fill="#80CBF1" d="M148.9,224.4c0,0,6.2,9.4,1.7,11.2C146.2,237.3,145.8,229.2,148.9,224.4z"/>
				<path fill="#56ABD6" d="M152,237.9c-7.9,1.9-8.6-7.6-4.2-15.2c-6.1,7.8-6.3,19.9,2.5,17.7c2.1-0.5,3.3-1.8,3.7-3.4
					C153.5,237.4,152.8,237.7,152,237.9z"/>
			</g>
			<g>
				<path fill="#010101" d="M389.3,237.4c0.8,0.1,1.6-0.1,2.3-0.7c1.2-1,1.3-2.8,0.3-4c-9.3-10.7-20.8-14.6-28.5-16.1
					c11.6-5,26.3-3.5,26.5-3.5c1.5,0.2,2.9-0.9,3.1-2.5c0.2-1.5-0.9-2.9-2.5-3.1c-1-0.1-24.3-2.5-37.5,8.9c-0.9,0.8-1.2,2-0.8,3.1
					c0.4,1.1,1.5,1.8,2.7,1.8c0.2,0,19.3-0.5,32.7,14.9C388.1,237,388.7,237.3,389.3,237.4z"/>
			</g>
			<g>
				<path fill="#70B9E6" d="M389.5,231.9c0,0,10.8,16.9,1.2,19.2C381.4,253.4,382.2,239.5,389.5,231.9z"/>
				<path fill="#80CBF1" d="M389.4,235c0,0,6.2,9.4,1.7,11.2C386.7,248,386.3,239.9,389.4,235z"/>
				<path fill="#56ABD6" d="M392.5,248.6c-7.9,1.9-8.6-7.6-4.2-15.2c-6.1,7.8-6.3,19.9,2.5,17.7c2.1-0.5,3.3-1.8,3.7-3.4
					C394,248.1,393.3,248.4,392.5,248.6z"/>
			</g>
			<path fill="#B59374" d="M276.2,410.9c-83.1-5.4-137.5-43.6-154.2-51.4s-18.3-33.4-25.2-35.6c-6.8-2.2-10.7-9.6-11.5-20
				c-0.9-10.5,5.5-12.3-0.7-24.5c-6.3-12.2-3.4-26.6,1.8-38.5c5.2-11.9-0.3-13.3-1.7-18.2c-1.4-4.9,13.4-16.5,9.8-21.1
				s-10.3-9.5,9.6-32.4s46.7-29.4,39.3-36.9c-7.4-7.5,1.6-15.5,23.8-23c22.1-7.6,43.6-7.9,42.7-12.4s-11-15,1.3-18.8
				c12.4-3.7,52.3,8.2,52.3,8.2c-0.7-0.6-1.6-1.4-2.8-2.5c-19.4-15.1-62-14.9-66.6-7.1c-4.8,8.2,4.3,15.7,4.3,15.7
				C161.2,97,121,120.1,123,126.7c2,6.6,8.6,8.6,8.6,8.6S94.8,160,83,183.2s-0.4,23.3-0.4,23.3c-18.8,22.9-2.9,23.9-2.9,23.9
				c-24.3,39.7-1.8,57.2-1.8,57.2c-10,45.8,12.2,43.6,12.2,43.6c2.7,16.9,9.7,29.3,16.6,36.1c6.8,6.6,14.5,2.3,14.5,2.3
				s62.3,37.8,139.4,47c71.7,8.5,95.2-6.3,98.2-8.4c0.1-0.1,0.3-0.2,0.3-0.3C360.9,406.7,338.7,414.9,276.2,410.9z"/>
		</g>
		<g>
			<path fill="#FDC20F" d="M76.9,357.2c-0.4,0-0.8-0.1-1.1-0.4c-36.4-28.3-30.9-64.3-30.9-64.7c0.2-1,1.1-1.7,2.1-1.5
				s1.7,1.1,1.5,2.1c-0.1,0.3-5.1,34.2,29.5,61.1c0.8,0.6,1,1.8,0.3,2.6C78,357,77.5,357.2,76.9,357.2z"/>
		</g>
		<g>
			<path fill="#FDC20F" d="M22.4,331.7c-0.7,0-1.3-0.4-1.7-1c-0.5-0.9-0.1-2,0.8-2.5c0.2-0.1,24.1-12,41-17.7c1-0.3,2,0.2,2.4,1.2
				c0.3,1-0.2,2-1.2,2.4c-16.7,5.6-40.3,17.4-40.5,17.5C23,331.6,22.7,331.7,22.4,331.7z"/>
		</g>
		<g>
			<path fill="#FDC20F" d="M47.9,174.5c-0.2,0-0.4,0-0.6-0.1c-1-0.3-1.5-1.4-1.2-2.4c0.2-0.6,21-59.3,81-90.8c0.9-0.5,2-0.1,2.5,0.8
				s0.1,2-0.8,2.5c-58.7,30.8-79,88.1-79.2,88.7C49.4,174,48.6,174.5,47.9,174.5z"/>
		</g>
		<g>
			<path fill="#FDC20F" d="M116.6,112.7c-0.5,0-0.9-0.2-1.3-0.5L85,84.3c-0.8-0.7-0.8-1.9-0.1-2.6c0.7-0.8,1.9-0.8,2.6-0.1
				l30.3,27.9c0.8,0.7,0.8,1.9,0.1,2.6C117.6,112.5,117.1,112.7,116.6,112.7z"/>
		</g>
		<g>
			<path fill="#FDC20F" d="M94.1,134.9c-0.4,0-0.7-0.1-1-0.3l-33.3-22.2c-0.9-0.6-1.1-1.7-0.5-2.6s1.7-1.1,2.6-0.5l33.3,22.2
				c0.9,0.6,1.1,1.7,0.5,2.6C95.3,134.6,94.7,134.9,94.1,134.9z"/>
		</g>
		<g>
			<path fill="#FDC20F" d="M486.5,155.6c-0.7,0-1.3-0.4-1.6-1c-23.5-42.8-65.3-62.3-65.7-62.5c-0.9-0.4-1.4-1.5-0.9-2.5
				c0.4-0.9,1.5-1.4,2.5-0.9c0.4,0.2,43.4,20.2,67.5,64.1c0.5,0.9,0.2,2-0.7,2.5C487.1,155.6,486.8,155.6,486.5,155.6z"/>
		</g>
		<g>
			<path fill="#FDC20F" d="M436.3,129.9c-0.7,0-1.4-0.4-1.7-1.1c-0.4-0.9,0-2.1,1-2.5l63.3-27.8c0.9-0.4,2.1,0,2.5,1
				c0.4,0.9,0,2.1-1,2.5l-63.3,27.8C436.8,129.8,436.6,129.9,436.3,129.9z"/>
		</g>
		<g>
			<g>
				<path fill="#FDC20F" d="M394.7,429.8c-0.8,0-1.6-0.6-1.8-1.4c-0.3-1,0.3-2,1.3-2.3c0.6-0.1,55.3-14.7,80.1-60.5
					c0.5-0.9,1.6-1.3,2.5-0.8s1.2,1.6,0.8,2.5c-25.6,47.3-81.9,62.2-82.4,62.4C395,429.8,394.9,429.8,394.7,429.8z"/>
			</g>
			<g>
				<path fill="#FDC20F" d="M477.5,405.1c-31.3,0-40.5-25.2-40.6-25.5c-0.3-1,0.2-2,1.1-2.4c1-0.3,2,0.2,2.4,1.1
					c0.3,1,8.8,23.3,37.8,23c0.9-0.1,1.9,0.8,1.9,1.8s-0.8,1.9-1.8,1.9C478,405.1,477.8,405.1,477.5,405.1z"/>
			</g>
			<g>
				<path fill="#FDC20F" d="M448.3,432.5c-0.2,0-0.5,0-0.7-0.1c-23.8-9.7-39.4-26.2-40.1-26.8c-0.7-0.8-0.7-1.9,0.1-2.6
					c0.8-0.7,1.9-0.7,2.6,0.1c0.2,0.2,15.7,16.6,38.7,25.9c1,0.4,1.4,1.5,1,2.4C449.7,432,449,432.5,448.3,432.5z"/>
			</g>
		</g>
	</g>
	<path fill="#D8B89A" d="M208.9,410.8c0,0,22.3,5.4,31.1,7.1c8.8,1.8,16.2,2.1,17.9,3.2c1.8,1.1,3.2,5.4,1.8,7.3
		c-1.4,1.9-6.4,1.2-14.3,4c-7.8,2.8-13.6,7.9-16.5,9c-3,1-8.8-11.3-12-11.8s-9,0.3-10.6,0.8c-1.6,0.4-5.7-7.7-9.5-10.5
		s-8.4-2.3-7.5-4C190.4,414.2,200,408.7,208.9,410.8z"/>
	<g>
		<path fill="#72C15F" d="M91.8,469.7c0,0-5.2,12.6-12.1,22.7s-27.4,14.6-50.2,9.4c0,0,5.5-15.3,18.3-30.8
			C60.5,455.4,85,464.3,91.8,469.7z"/>
		<path fill="#53B548" d="M29.5,501.8c22.8,5.1,43.4,0.7,50.2-9.4c6.8-10.1,12.1-22.7,12.1-22.7c-2-1.6-5.6-3.5-10-5
			c0,9.1-1.8,20.3-10.2,26.7C56,503.6,29.5,501.8,29.5,501.8z"/>
		<path fill="#83C669" d="M65.7,489.6c-0.3,0.2-17.1,9.2-28.3,7.2c0,0,3.5-11.9,13.5-22.1c10.1-10.2,21.9-7.2,24-4.4
			C77.2,473.1,77.3,482.3,65.7,489.6z"/>
	</g>
	<g>
		<path fill="#72C15F" d="M71.7,437.8c0,0-12.6-5.3-22.7-12.2c-10.1-6.9-14.4-27.5-9.2-50.2c0,0,15.2,5.6,30.8,18.4
			S77.1,431,71.7,437.8z"/>
		<path fill="#53B548" d="M39.9,375.4c-5.2,22.8-0.9,43.4,9.2,50.2c10.1,6.9,22.7,12.2,22.7,12.2c1.6-2,3.5-5.6,5-10
			c-9.1,0-20.3-1.9-26.7-10.3C38,401.9,39.9,375.4,39.9,375.4z"/>
		<path fill="#83C669" d="M51.9,411.7c-0.2-0.3-9.1-17.1-7-28.3c0,0,11.9,3.5,22.1,13.6s7.1,21.9,4.3,24.1
			C68.4,423.2,59.2,423.3,51.9,411.7z"/>
	</g>
	<g>
		<path fill="#72C15F" d="M55.7,446c0,0-9.2,5.1-18.2,8s-23.6-4.3-34.9-18.3c0,0,10.7-6.6,25.8-9.9C43.6,422.4,54.2,439.6,55.7,446z
			"/>
		<path fill="#53B548" d="M2.6,435.7c11.4,14,25.9,21.2,34.9,18.3c9-2.9,18.2-8,18.2-8c-0.5-1.9-1.7-4.8-3.7-7.8
			c-4.3,5.5-10.8,11.4-19,11.3C17.8,449.5,2.6,435.7,2.6,435.7z"/>
		<path fill="#83C669" d="M30.4,445.7c-0.3,0-14.7-2.6-20.6-9.2c0,0,7.8-5.5,18.8-6.9s16.7,6.1,16.7,8.8
			C45.2,441.1,40.9,446.8,30.4,445.7z"/>
	</g>
	<g>
		<path fill="#72C15F" d="M131.2,469.5c0,0,2.4,10.7,2.7,20.4c0.2,9.8-11.1,22.2-28.4,29.5c0,0-3.5-12.5-2.4-28.6
			C104.2,474.7,124.3,469.1,131.2,469.5z"/>
		<path fill="#53B548" d="M105.5,519.4c17.3-7.2,28.7-19.7,28.4-29.5c-0.2-9.8-2.7-20.4-2.7-20.4c-2.1-0.1-5.3,0.3-8.8,1.4
			c4.2,5.9,8.2,14.1,5.8,22.2C123.6,508.2,105.5,519.4,105.5,519.4z"/>
		<path fill="#83C669" d="M123.5,494.6c-0.1,0.2-6.9,13.9-15.1,17.8c0,0-3.3-9.4-1.4-20.7s10.9-14.9,13.7-14.1
			C123.3,478.5,127.7,484.4,123.5,494.6z"/>
	</g>
	<g>
		<path fill="#72C15F" d="M416.5,523c0,0-7.8,6.3-15.7,10.4c-8,4.1-22.7-0.2-35.6-11.6c0,0,8.9-7.9,22.6-13.4
			C401.4,502.9,414,517.2,416.5,523z"/>
		<path fill="#53B548" d="M365.2,521.9c12.9,11.3,27.7,15.7,35.6,11.6c8-4.1,15.7-10.4,15.7-10.4c-0.7-1.7-2.4-4.2-4.7-6.7
			c-3.2,5.9-8.3,12.4-15.9,13.7C381.6,532.3,365.2,521.9,365.2,521.9z"/>
		<path fill="#83C669" d="M392.8,526.7c-0.2,0-14.2-0.1-20.7-5.3c0,0,6.4-6.4,16.5-9.5c10.1-3,16.6,3,17,5.6
			C406,520.1,402.8,526.1,392.8,526.7z"/>
	</g>
	<g>
		<path fill="#72C15F" d="M437.8,527.4c0,0,5.1,11.3,7.5,22.1s-7.4,27.2-25,39.1c0,0-6.7-13.2-9.1-31.3S430,528.5,437.8,527.4z"/>
		<path fill="#53B548" d="M420.3,588.6c17.6-11.9,27.5-28.3,25-39.1c-2.4-10.8-7.5-22.1-7.5-22.1c-2.3,0.3-5.8,1.5-9.5,3.5
			c6,5.6,12.3,13.9,11.4,23.4C438,572.1,420.3,588.6,420.3,588.6z"/>
		<path fill="#83C669" d="M434.8,557c-0.1,0.3-4.5,17-12.8,23.2c0,0-5.7-9.7-6.2-22.7s8.8-19,12-18.7S437.2,544.8,434.8,557z"/>
	</g>
	<g>
		<path fill="#72C15F" d="M483.2,508.2c0,0,6.7,10.4,10.8,20.8s-3.2,28-18.9,42.4c0,0-8.6-12-13.7-29.6
			C456.4,524.2,475.7,510.5,483.2,508.2z"/>
		<path fill="#53B548" d="M475.1,571.4C490.7,557,498,539.3,494,529c-4-10.3-10.8-20.8-10.8-20.8c-2.2,0.7-5.5,2.4-8.9,4.9
			c6.8,4.7,14.2,11.9,14.8,21.4C490.1,552.4,475.1,571.4,475.1,571.4z"/>
		<path fill="#83C669" d="M484.7,537.9c0,0.3-1.9,17.5-9.2,24.9c0,0-7.1-8.7-9.6-21.5s5.9-20.1,9.1-20.3
			C478.2,520.8,485.2,525.5,484.7,537.9z"/>
	</g>
	<g>
		<path fill="#A68162" d="M471.1,428.5c2-0.3,2.8,3.3,5,2.9c6.8-1.3,14.6-26.1,14-26.3c-0.4-0.2-12.1,21.5-14.6,21.7s-4.7-7.7-6-6.6
			c-1.3,1-6.4,19.7-6.4,19.7s1.6,0,4.2,0.1C468,436.3,469.6,428.8,471.1,428.5z"/>
		<path fill="#A68162" d="M536.5,364.6c-1.5-0.3,4.6,15.9-6,35.7c-8.3,15.5-21.7,33.5-27,40.5c3.4,0.1,6.3,0.3,8.1,0.5
			c0,0,17.4-28,24.3-41.7C542.8,385.9,538,364.9,536.5,364.6z"/>
	</g>
</g>
</svg>
