<?xml version="1.0" encoding="utf-8"?>
<!-- Generator: Adobe Illustrator 17.1.0, SVG Export Plug-In . SVG Version: 6.00 Build 0)  -->
<!DOCTYPE svg PUBLIC "-//W3C//DTD SVG 1.1//EN" "http://www.w3.org/Graphics/SVG/1.1/DTD/svg11.dtd">
<svg version="1.1" id="Layer_1" xmlns="http://www.w3.org/2000/svg" xmlns:xlink="http://www.w3.org/1999/xlink" x="0px" y="0px"
	 width="700px" height="700px" viewBox="0 0 700 700" enable-background="new 0 0 700 700" xml:space="preserve">
<g>
	<g>
		<path fill="#C6A685" d="M303.3,676.4c0,0-4.1,6.7,0,11.2c4.1,4.5,55.6,4.8,70.1-7.2c0,0-1.3,8.7,4,10.1
			c5.3,1.4,35.7-12.8,40.8-18.4c0,0-0.3,8.3,5.1,12.5c5.3,4.3,88.7-61.1,102.4-91c0,0,1.7,10.1,8.8,8.5c7.1-1.6,22.7-45.8,22.7-45.8
			s2.5,9,9.7,6.8c7.2-2.1,27.6-45.2,17.5-70.7c-10.1-25.6-241.1-14.9-241.1-14.9l-224,63.2c0,0-4.5,28,6.1,52.5
			c10.7,24.5,66.9,67.4,112.3,69.2c0,0-4.5,8,3.1,12.3C248.9,679.6,303.3,676.4,303.3,676.4z"/>
		<path fill="#B59374" d="M571.4,495.8c0,0-15.2,7-16,7.2s-5.4,21.2-5.4,21.2l-27.7,23.6l-33.9,41l-20.1,20c0,0,18.6,15.1,27.3,21.6
			c3.2-3.1,6.2-6.1,9.1-9.1c-6.5-4.3-21.6-14.6-18.7-16.7c3.7-2.6,31.1-18.2,30.8-23c-0.3-4.8,3.7-12.8,7.7-18.6
			c3.9-5.8,9.3-13.1,18-18.1c8.8-5,27.9-24.5,31-35.1C576.5,499.4,571.4,495.8,571.4,495.8z"/>
		<path fill="#B59374" d="M456.6,599.1l23.5,34.2l-14.2,16.3c0,0-35.3,29.8-39.5,27.8s-2-12.7-9.8-8.6c-7.8,4.2-34,17-36.8,14.7
			c-2.8-2.3-0.4-10.7-8.2-7.8c-7.8,3-45.2,12.1-55.9,7.8c-10.7-4.4-4.5-10.4-7.2-11.7c-2.7-1.3-56.5,2.4-61.7-1.2
			c-5.2-3.6-2-9.8-5.6-11.1c-3.6-1.4-33.3-5.2-38.8-13.7c-5.5-8.6-1.6-29.5-1.6-29.5l-40.8-40c0,0-8.5,7.9-14.1,17.2
			c-5.7,9.3-10.7,9.8-17.9-8.2c-7.2-17.9-4.8-37-4.8-37s-0.6-3.5-1.9-7.8l-2.1,0.6c0,0-4.5,28,6.1,52.5
			c10.7,24.5,66.9,67.4,112.3,69.2c0,0-4.5,8,3.1,12.3c8.1,4.6,62.5,1.5,62.5,1.5s-4.1,6.7,0,11.2c4.1,4.5,55.6,4.8,70.1-7.2
			c0,0-1.3,8.7,4,10.1c5.3,1.4,35.7-12.8,40.8-18.4c0,0-0.3,8.3,5.1,12.5c3.5,2.8,40.3-24.2,69.2-51.5L456.6,599.1z"/>
		<path fill="#D8B89A" d="M131.6,558.1c0,0,10.1-1.4,12.6,0c2.5,1.4,7.2,13.9,7.1,17.4c-0.1,3.5-9.5,12.5-13.7,13.1
			C133.3,589.2,125.2,558.7,131.6,558.1z"/>
		<path fill="#C6A685" d="M267.3,538.4c0,0,82.3-66.8,114.8-65.1c32.5,1.7,98.1,35.8,97.6,46.4c-0.5,10.6-67.5,34.1-92,36.4
			C363.4,558.5,270.8,550,267.3,538.4z"/>
		<path fill="#B59374" d="M405.2,527.6c-0.2,0-3.2-5.7-5.7-10.4l-1.2,2.3c-4.5,8.7-71.9,13-60.2,4.3c11.7-8.6,23.2-22,23.2-22
			s-14.9-9.5-25-5.6c-10.1,4-12,12.3-15.5,14.5c-3.6,2.2-5.8,14.1-6.7,20.1c-0.8,6,6.1,12.4,7.6,13.3c1.5,1,49.1,9.9,49.1,9.9
			s28.7-5,33.6-6.2c2.4-0.6,7.4-3,11.6-6.3C411.2,535.3,405.3,527.7,405.2,527.6z"/>
		<g>
			<path fill="#C6A685" d="M456.8,163.2c0,0,35.1-25,42.7-21.6c7.6,3.4-3.5,18.9-3.5,18.9s33.4-13.6,39.4-8.2
				c6,5.4-5.3,15.9-5.3,15.9s41.1,1.9,72.2,19.5c31.1,17.6,48.6,34.6,32.8,42.3c0,0,37.6,29.4,45.7,50.1c8.2,20.7-9,19.7-9,19.7
				s18.2,23,22.9,49.6c4.6,26.6-10.8,21.6-10.8,21.6s4.8,51.3-2.2,60.6s-15.5-3.7-15.5-3.7s2.7,14.8-9.8,34.6
				c-12.5,19.8-24.2,20.1-29.1,9c0,0-18.2,23.2-43,21.3c0,0-30.1,17.5-96.7,24.3c-66.6,6.9-85-6.1-85-6.1s2.8,8.1,0,11.8
				s-38.6-24.5-54.9-57.1C331.5,432.9,311,322.9,314.5,293c3.4-29.9,30.5-53.4,30.5-53.4s-6.6-3.4-7.1-8
				c-0.5-4.6,29.2-28.7,51.3-30.2c0,0-11-7-10.6-13.7c0.4-6.7,35.2-10.2,50.3-9.2c0,0-17.5-10.7-12.3-19.8
				C421.7,149.5,456.8,163.2,456.8,163.2z"/>
			<path fill="#B59374" d="M544.1,260.3c0,0,63.5-19,98.6,31.7c35.3,51,25.4,118.4-0.8,142.1c0,0-68.7-64.5-67.3-64.9
				C576,368.9,544.1,260.3,544.1,260.3z"/>
			<path fill="#B59374" d="M499.5,503c-9.9-0.3-42.9,12.5-46.1,9.2c-3.3-3.3-14.2-1.2-23.7-1.4c-9.5-0.2-24.2-7.1-26.9-7
				c-2.7,0.2-3.2,10.2-5.3,9.3c-2.1-0.8-14-13.1-14.3-20.6c-0.2-7.5,8.4-27.7,9.8-33.6c1.4-5.9,13.2-7.7,13.4-16.1
				c0.3-8.4-5.4-35-5.4-35s-9.7-79.9-14.2-87.1c-4.6-7.2-36.4-34.7-40.2-53.7c-1-4.7-2.4-9.4-1.4-13.2c1-3.9,8.4-9.4,10.6-13.5
				c2.2-4.1-9-5.4,0-15.7c9-10.2,41.5-17,43.3-20.7c1.8-3.7-7.6-9.5-3.1-13.2c4.5-3.7,40.8-3.5,42.9-7.9c2-4.5-12.5-16.7-7.9-19
				c4.6-2.3,24.4,7.5,28.2,4.3c3.7-3.1,29.1-20,34-19c4.8,1,3,11.3,3,11.3s11.1-15.5,3.5-18.9c-7.6-3.4-42.7,21.6-42.7,21.6
				s-35.1-13.6-40.3-4.6c-5.2,9.1,12.3,19.8,12.3,19.8c-15.1-0.9-50,2.5-50.3,9.2c-0.4,6.7,10.6,13.7,10.6,13.7
				c-22.1,1.5-51.7,25.6-51.3,30.2c0.5,4.6,7.1,8,7.1,8s-27.1,23.5-30.5,53.4c-3.4,29.9,17,139.9,33.4,172.5
				c16.4,32.6,52.1,60.7,54.9,57.1c2.8-3.6,0-11.8,0-11.8s18.4,13,85,6.1c66.6-6.9,96.7-24.3,96.7-24.3s-21.8,8.4-51.7,11.8
				C502.9,507.8,509.4,503.3,499.5,503z"/>
			<g>
				<path fill="#F7E8D6" d="M489.6,316.3c0,0,15.1-63.8,82.6-57.8c67.5,6,88.7,70.3,88.4,113.2c-0.3,42.9-22.4,120.9-180.7,132.2
					c-160.5,11.4-149.2-152.8-122.3-190.7C384.5,275.1,447.3,269.5,489.6,316.3z"/>
				<path fill="#FFF4EA" d="M402.8,296c0,0,26.5-7,47.7,7.1c21.2,14.2,29.3,26.4,42.6,24.1c13.3-2.2,18.4-37,37.5-48
					c19.2-11.1,54.3-15.1,77.9,0c23.6,15.1-3.6,2.5-33.8,11.2c-30.2,8.7-53.3,44.7-46.3,71.2c7,26.6,51.5,34.2,75.9,45.5
					c24.4,11.3,7.5,31.6-23.6,46c-31.1,14.4-89.2,19.2-124.7,13.7c-35.5-5.5-24.1-28.6-8.5-49.6c15.7-21,9-57.4-1-75.8
					c-10-18.4-38.9-26.5-46.8-29.1C391.8,309.7,390.8,299.4,402.8,296z"/>
				<path fill="#F2DCC3" d="M650.3,419.1L650.3,419.1c-85.5,97.8-216,74.7-230.8,45.1c-10.8-21.6,4-38.1,13.5-48.1
					c13.4-14.1,19.2-26.5,10-53.1c-12.1-35-42.4-36.2-58.8-44.9c-8.4-4.5-12.3-11.9-14.1-18.4c-4.8,3.9-9,8.4-12.6,13.5
					c-26.9,38-38.2,202.1,122.3,190.7C588.6,496.1,633.1,456.8,650.3,419.1z"/>
				<path fill="#7F715A" d="M581.3,297.8c-42.8,10.2-47.6,61.3-19.6,76.2c23.9,12.7,61.4,19.5,88.6,45.1c7.8-17.2,10.1-34,10.2-47.4
					c0.1-19.1-4-42.6-14.6-63.2C628.1,300.1,603.9,292.4,581.3,297.8z"/>
				<path fill="#6E604E" d="M574.5,362.1c-19.5-10.4-23.1-38.4-9-57.8c-27.8,17.3-27.9,56.9-3.8,69.7c23.9,12.7,61.4,19.5,88.6,45.1
					c2.7-5.9,4.7-11.8,6.3-17.5C630.1,380.5,596.5,373.8,574.5,362.1z"/>
				<path fill="#8F7E69" d="M570.2,332.3c0,0,0.9-19.5,15.6-24.2c14.8-4.7,49.7,3.1,55.6,10.7c5.9,7.6,10.7,49.4,6.6,56.1
					c-4.1,6.7-38.1-12.3-49.9-15.8C586.4,355.6,569.7,348.4,570.2,332.3z"/>
				<ellipse fill="#F9B7B8" cx="627.4" cy="370.8" rx="14" ry="12.1"/>
				<path fill="#7F715A" d="M348.8,331.5c-9.4,28.5-11.9,75.2,6.4,112.8c5.8-4.8,12.2-8.4,19.1-10.2c35.7-9.4,84.1-49.4,47.4-88.4
					C405.4,328.4,376.2,327.3,348.8,331.5z"/>
				<path fill="#6E604E" d="M394.3,342.3c6.5-1.8,22,4.6,32.6,9.6c-1.5-2.1-3.2-4.2-5.2-6.3c-16.3-17.3-45.4-18.4-72.8-14.2
					c-6.4,19.4-9.6,47.1-5.3,74.8c5,10.4,11.9,22.7,18.2,33.4c4-2.5,8.1-4.4,12.5-5.5c9.9-2.6,20.7-7.5,30.4-14.1
					c-9.6-25.5-7.6-39.4-6-46.1C400.3,366.8,383.9,345.2,394.3,342.3z"/>
				<path fill="#8F7E69" d="M404.8,390.7c0,0,1.5-24.5-1.7-33.6c-3.2-9.1,17.9-5,23.7,6.7c5.8,11.7-3.4,32.4-12,39.1
					C406.2,409.7,404.5,397.9,404.8,390.7z"/>
				<g>
					<path fill="#010101" d="M385.9,399.3c-0.9,0-1.6-0.6-1.8-1.4c-0.7-2.7-6.1-26.7,5.1-31.8c11.3-5.2,22.7,10.6,23.2,11.3
						c0.6,0.9,0.4,2-0.4,2.6c-0.8,0.6-2,0.4-2.6-0.4c-0.1-0.1-10-13.9-18.6-10c-7.1,3.3-4.5,21-3,27.5c0.2,1-0.4,2-1.4,2.3
						C386.2,399.3,386.1,399.3,385.9,399.3z"/>
				</g>
				<g>
					<path fill="#3E1421" d="M514.9,380.2c0.4,6.6-10.1,12.6-23.7,13.5c-13.5,0.9-24.8-3.6-25.3-10.2c-0.4-6.6,9.7-19.6,23.2-20.5
						C502.7,362.1,514.5,373.7,514.9,380.2z"/>
					<path fill="#4C172A" d="M511.5,379.1c-0.1,4.4-8.4,7.8-18.6,7.6c-10.2-0.2-18.4-3.9-18.3-8.2c0.1-4.4,8.5-12.5,18.7-12.3
						C503.5,366.3,511.6,374.7,511.5,379.1z"/>
					<path fill="#2E131C" d="M496.2,389.8c-13.5,0.9-24.8-3.6-25.3-10.2c-0.2-3.3,2.2-8.2,6.3-12.3c-7.1,4.6-11.6,12-11.3,16.4
						c0.4,6.6,11.8,11.1,25.3,10.2c10-0.7,18.4-4.2,21.9-8.6C508.9,387.6,502.9,389.3,496.2,389.8z"/>
					<g>
						
							<ellipse transform="matrix(0.9421 -0.3352 0.3352 0.9421 -97.8279 189.94)" fill="#190D11" cx="501.3" cy="378.4" rx="4.9" ry="5.8"/>
						<path fill="#010101" d="M504,381.7c-2.6,0.9-5.5-0.8-6.6-3.8c-0.4-1-0.4-2.1-0.2-3.1c-0.9,1.4-1.2,3.3-0.5,5.1
							c1.1,3,4,4.7,6.6,3.8c1.7-0.6,2.7-2.2,3-4C505.7,380.6,505,381.4,504,381.7z"/>
						
							<ellipse transform="matrix(0.8021 -0.5972 0.5972 0.8021 -125.8747 374.3957)" fill="#281018" cx="501.9" cy="377.1" rx="2.9" ry="3.3"/>
					</g>
					<g>
						
							<ellipse transform="matrix(0.956 0.2933 -0.2933 0.956 132.6026 -123.9909)" fill="#190D11" cx="479.8" cy="380.2" rx="4.9" ry="5.8"/>
						<path fill="#010101" d="M480,384.5c-2.6-0.8-4-3.9-3-6.9c0.3-1.1,0.9-1.9,1.6-2.6c-1.6,0.6-2.9,1.9-3.5,3.8
							c-0.9,3,0.4,6.1,3,6.9c1.7,0.5,3.5-0.1,4.8-1.5C481.9,384.6,480.9,384.8,480,384.5z"/>
						<ellipse fill="#281018" cx="481" cy="379.6" rx="2.9" ry="3.3"/>
					</g>
				</g>
				<g>
					<path fill="#010101" d="M488.3,418.6c-21.7,0-34.1-18.3-34.7-19.1c-0.6-0.9-0.3-2,0.5-2.6c0.9-0.6,2-0.3,2.6,0.5
						c0.1,0.2,13.6,19.9,36,17.1c22.4-2.8,29.3-23.2,29.6-24.1c0.3-1,1.4-1.5,2.4-1.2c1,0.3,1.5,1.4,1.2,2.4
						c-0.1,0.2-8,23.6-32.8,26.7C491.6,418.5,489.9,418.6,488.3,418.6z"/>
				</g>
				<g>
					<path fill="#010101" d="M604.1,359.1c-1,0-1.8-0.8-1.9-1.8c0-0.2-1.4-21.2-12.2-21.2c0,0,0,0,0,0c-11.2,0-13.9,14-14.1,14.6
						c-0.2,1-1.2,1.7-2.2,1.5c-1-0.2-1.7-1.2-1.5-2.2c1.1-6.1,6.3-17.6,17.8-17.7c0,0,0,0,0.1,0c14.3,0,15.9,23.7,16,24.8
						c0.1,1-0.7,1.9-1.8,2C604.2,359.1,604.1,359.1,604.1,359.1z"/>
				</g>
			</g>
			<path fill="#6E604E" d="M406.5,399.3"/>
			<g>
				<path fill="#E5CFAD" d="M501,515.5c0,0,34.3-18,44.2-27.7c9.9-9.7,7.3,13.8,7.3,13.8s14.2-4.2,18.2-1.2c4,3-9.9,34-47.8,49.9
					L501,515.5z"/>
				<path fill="#D1B898" d="M554.3,501.2c-0.9,0.2-1.5,0.4-1.7,0.5c-1.4,0.4-27.9,27.5-32.8,21.4c-4.9-6.1-8.6-9.4,5.8-17
					c10.3-5.4,20.1-15.1,24.9-20.2c-1.1-0.8-2.8-0.4-5.2,2c-9.9,9.7-44.2,27.7-44.2,27.7l21.9,34.9c2.7-1.1,5.2-2.3,7.7-3.6
					c-2.9-5.4-1.4-8.2,14.2-19.7c14.1-10.4,21.2-22.3,23.8-27.4C564.5,498.8,557.5,500.4,554.3,501.2z"/>
				<path fill="#E5CFAD" d="M508.6,525.8c0.3-0.1,29.2-13.8,46.6-32.6s14,3.9,2.3,18.2c-11.7,14.3-44.9,36.5-44.9,36.5L508.6,525.8z
					"/>
				<path fill="#D1B898" d="M555.2,493.2c-17.4,18.8-46.4,32.5-46.6,32.6l2.4,12.8c1.6,2.9,3.8,4.9,5.9,6.3c2.9-2,7.1-5,11.7-8.4
					c-2.3-3.8-6.4-11.3-5.1-13.7c1.8-3.3,23.1-15.8,31.1-25.5c4.4-5.3,9-8.3,12.4-10C565.9,484.8,562.3,485.6,555.2,493.2z"/>
				<path fill="#F8E4CA" d="M529.1,522.1c0,0,19.9-13.9,24.2-18.9c4.3-5,9.4-10.9,10.6-10.5c1.2,0.3-3.6,11.6-7.7,16.9
					c-4.1,5.3-21.6,19.8-23.8,19.6C530.2,528.8,527.1,523.4,529.1,522.1z"/>
				<path fill="#F8E4CA" d="M521.2,511.5c0.3-0.2,12-7,17.8-11.3c5.8-4.3,9-9,10.2-9.5c1.2-0.5,0.6,3.3,0,5.3
					c-0.6,2-23.4,18.1-26.2,19.2C520.3,516.2,517.7,513.7,521.2,511.5z"/>
				<path fill="#F8E4CA" d="M537.3,535.9c0,0,9.9-7.5,15.2-12.4c5.3-4.9,14.2-16.7,16.2-19.2s0.4,5.7-9.8,17.7s-22.2,18.7-23,18.6
					C535,540.5,532.9,539.3,537.3,535.9z"/>
			</g>
			<path fill="#D8B89A" d="M369.2,277.3c0,0-12.2-11.4-10.5-19.2s11-13.5,11.6-17.3c0.6-3.8-5.9-8.8-2.3-13.3
				c3.7-4.5,28.3-8.9,35.9-13.9c7.6-5,4.4-11.6,9.9-14.1c5.5-2.5,25.2-4.7,31.4-6.4c6.2-1.7-1.7-14.7,4-16c5.7-1.3,7.2,1.7,12.7,0
				c5.5-1.7,16.1-13.3,20.1-13.3c4,0-3.3,9.2,0,12.2c3.3,3,28.4-15.4,34.2-12.2c5.8,3.3-2.1,11,0,16.7c2.1,5.7,23.2,0.3,60.5,9.9
				c37.3,9.6,48.7,27.9,40.6,35.1c-8.1,7.2,43.1,33.8,46.5,50.1s-5.9,13-3.5,20.4c2.5,7.4,24.4,35.1,25.2,52.3
				c0.8,17.3-5.5,10.5-6.8,14.7c-1.3,4.2,2.8,49.4-0.6,55.6c-3.4,6.3-8.5-2.8-13.9,0.5c-5.4,3.2-9.6,36.3-16.7,43.6
				c-7.1,7.2-12.2-4.2-16.4-2.5c-4.2,1.7-13.7,18.5-38.2,25.4c-24.5,6.9,26.5-13.1,52.3-44.9s29.9-62,22.9-99.1
				s-24.3-81.4-77.1-91.9c-52.8-10.5-101.8,28.8-105.4,33.1c-3.5,4.2-38.6-10-65.9-8.5C392.8,275.8,378.2,285.5,369.2,277.3z"/>
			<path fill="#B59374" d="M656.6,462.3c12.5-19.8,9.8-34.6,9.8-34.6s8.5,13,15.5,3.7c7-9.3,2.2-60.6,2.2-60.6s0.9,37.3-2.3,48.3
				c-3.2,10.9-6.2,9.9-9.6,7.2c-3.5-2.7-8-1.5-8.6,6.9c-0.5,8.4-7,29.1-15.9,34.6c-9,5.4-20.2,3.5-20.2,3.5
				C632.4,482.4,644.1,482.1,656.6,462.3z"/>
			<path fill="#D8B89A" d="M390.7,490.2c0,0,16.4,7.7,32.7,12.4c16.3,4.7,46.9,4.2,47.3,4.3c0.4,0.1-10.4,2.8-13.1,3
				c-2.7,0.2-4.8-1.5-15.2-1.9c-10.4-0.4-17.6-0.5-24.1-2.3c-6.5-1.8-15.5-6.4-17.7-5.6c-2.3,0.8-2.7,6.8-4.2,6.8
				c-1.5,0-7.8-8.6-8.4-12.6C387.3,490.3,388.9,489.4,390.7,490.2z"/>
		</g>
		<path fill="#C6A685" d="M384.8,376.8c0,0,6.4-0.7,8.1-6.4c1.7-5.7-27.3-47.2-32.6-54.1c0,0,6.9,1.9,9.3-1.9
			c2.4-3.8-33.6-42.2-44.8-47c0,0,10-1.8,11.5-5.6c1.5-3.8-31.9-38.5-72.2-38.2c0,0,7.5-5,6.4-9.8c-1.1-4.8-20.2-12.5-67,0
			c0,0,9.7-14.1,4.4-19.3c-5.3-5.3-40.2,5.3-59.9,25.9c0,0,8.3-26.4,1.5-27.3c-6.8-0.9-32.2,21.4-40.6,35.8c0,0-25.7-3.8-35.2,4.4
			c-9.5,8.2,20.1,12.7,20.1,12.7s-29.4,11.4-49.4,27.6c-20.1,16.3,0,18.3,0,18.3s-21.2,18-30.6,40.6s7.8,19.3,7.8,19.3
			S7.6,377.1,4.5,397.8c-3.1,20.7,11.7,17.1,11.7,17.1s-6.7,22.7-3.9,54.5s16.3,25.3,20.3,21.8c0,0,2.6,18.2,19.3,36.4
			c16.8,18.2,29.4,18.5,33.5,14.2c0,0,29.3,19.5,73.8,7.5C203.9,537.3,384.8,376.8,384.8,376.8z"/>
		<path fill="#B59374" d="M159.3,549.3c3.2-0.9,7.2-2.5,11.8-4.9c-2.7-3.8-8.1-5.6-17.6-2.3c-26.7,9.3-55.1-4.9-63.5-8.8
			c-8.4-3.9-11,2.6-21-5.3c-10-7.9-24.4-36.9-30.3-45.4c-5.9-8.6-9.6,1.3-12.4-9.6c-2.8-10.9,0.8-48,1.4-57.6
			c0.6-9.6-6.2-8-6.7-18.1c-0.5-10.1,13-36.3,13.6-45.4c0.6-9.1-10.2-4.6-7.7-16.7c2.6-12.1,31.5-39.2,30.7-45
			c-0.8-5.8-7-7,2.8-16.3c9.7-9.3,45.2-24.8,44-27.9c-1.2-3.1-17.8-8.3-14.9-10.2s24.9-1.1,26.7-3.1c1.9-2.1,21.2-27,26.1-27.1
			c4.9-0.1,5.8,15.1,5.8,15.1s8.3-26.4,1.5-27.3c-6.8-0.9-32.2,21.4-40.6,35.8c0,0-25.7-3.8-35.2,4.4c-9.5,8.2,20.1,12.7,20.1,12.7
			s-29.4,11.4-49.4,27.6c-20.1,16.3,0,18.3,0,18.3s-21.2,18-30.6,40.6c-9.4,22.6,7.8,19.3,7.8,19.3S7.6,377.1,4.5,397.8
			c-3.1,20.7,11.7,17.1,11.7,17.1s-6.7,22.7-3.9,54.5c2.8,31.8,16.3,25.3,20.3,21.8c0,0,2.6,18.2,19.3,36.4
			c16.8,18.2,29.4,18.5,33.5,14.2C85.5,541.8,114.8,561.3,159.3,549.3z"/>
		<path fill="#D8B89A" d="M127.6,235.9c0,0,8.9-15.6,11.8-15.2c3,0.4,3.2,14,6.4,15.2c3.2,1.2,31.1-24.7,38.8-24.9
			c7.7-0.3-0.3,6.2,2.1,12.5c2.3,6.3,50.5-7.1,56.3-5c5.8,2.1,0.1,7.8,0,11.8c-0.1,4,32.1,2.1,53.8,10.3c21.6,8.2,23,17.2,14.3,20.8
			c-8.7,3.6,40.3,36,39.1,40.4s-32-6.2-65.6-4.4c-33.6,1.8-54.4,31.5-61.2,33.9c-6.8,2.4-58.8-22.8-101.6,0
			c-42.8,22.8-54.3,70.9-56.3,106.2c-2.1,35.4,24.2,74.6,20.6,79.7c-3.6,5.1-14,1.7-20.7-11.8c-6.7-13.5-16.2-34.7-22-39.5
			s-2.7-43.8-2.1-57.2c0.6-13.4-5.5-16.7-1.4-32.4c4.1-15.7,8.6-38.5,8.6-43.6S50.5,315.5,60,304c9.5-11.4,10.5-19.3,14.4-24.9
			c3.9-5.7,38.4-30.4,38.4-30.4c1.7-3.6-5.9-6.8-4.3-9.5C110.2,236.4,124.4,241.3,127.6,235.9z"/>
		<path fill="#B59374" d="M372.5,345.4c-12.1-16.5-35.9-44.9-85.5-36.3c-49.5,8.6-57.6,54.2-57.6,54.2s46.6,33.6,54.5,40.9
			c7.8,7.3,21.8,5.6,44.6,4.7c8.6-0.3,15.3-0.8,21.1-1.5c21.2-18.2,35.2-30.6,35.2-30.6s6.4-0.7,8.1-6.4c0.5-1.8-1.9-7-5.7-13.6
			C381.8,354.3,376.4,350.7,372.5,345.4z"/>
		<g>
			<g>
				<path fill="#F7E8D6" d="M311.3,316.4c-43.1-2.6-75.6,27-81.8,46.9c0,0-40.8-46.4-98.5-22.7c-57.7,23.7-96.6,184.1,28.4,208.7
					c4.7,0.9,9.4,1.8,14,2.6c50.6-9.1,137.2-18.3,137.2-18.3s35.1-15.5,45.2-31c0,0,3.5,6.6,8.1,4.2c4.6-2.4,20.9-36.8,21.8-60
					c0,0,11,0.4,14.9-4.9c3.9-5.4-15.7-65.1-15.7-65.1S354.3,319.1,311.3,316.4z"/>
				<path fill="#F2DCC3" d="M341.6,516.1c-49.2,4-45.2-11.6-56.3-13.3c-11.5-1.8-65.3-9.4-93.3-1.5c-28,7.9-53.8,12.7-76.5-21.7
					c-22.6-34.5-15.4-96.3,23.3-118.4c38.7-22.1,90.6,2.2,90.6,2.2s-40.8-46.4-98.5-22.7c-57.7,23.7-96.6,184.1,28.4,208.7
					c4.7,0.9,9.4,1.8,14,2.6c50.6-9.1,137.2-18.3,137.2-18.3S327.8,526,341.6,516.1z"/>
				<path fill="#FFF4EA" d="M240.6,371.7c0,0,12.3-28.7,50.7-37.8c38.5-9.1,80.3,38,84.5,65.9c4.2,27.8-6.5,76.2-12,84.2
					c-5.5,8-11.5,2.4-14.3,5.5c-2.8,3.1-14.3,13.9-26.1,12.3c-11.8-1.5-25.3-12.6-60.1-15.7c-34.7-3.1-68.3-4.9-87.4,2
					c-19.1,6.8-43.4-21.8-43.3-61.6c0.1-39.8,16.1-55.5,34-59.3S233.8,382.3,240.6,371.7z"/>
			</g>
			<path fill="#7F715A" d="M318.1,365.2c-29.6,13.7-31.2,49.9-4.9,62.8c23.6,11.6,46.1,22.7,62.3,58c5-12.1,9.6-27.2,10.1-39.2
				c0,0,11,0.4,14.9-4.9c3.9-5.4-15.7-65.1-15.7-65.1S347.7,351.5,318.1,365.2z"/>
			<path fill="#7F715A" d="M191.9,438.8c1.6-21.6-13.2-56.3-57.2-41.9c-24.6,8.1-44.6,24.4-57.4,37.5c-4,40.3,8.5,82.5,49.7,103.9
				c0.9-16.7,15.8-39.2,26.5-50C168.1,473.4,190.3,460.3,191.9,438.8z"/>
			<path fill="#8F7E69" d="M108.4,423.6c0,0,29.7-24.2,51.5-17.2c21.7,7,16,26.3,11.4,35.5c-4.6,9.3-34.8,30.4-42.8,37.3
				C120.4,486.2,89.2,444.1,108.4,423.6z"/>
			<path fill="#8F7E69" d="M335.6,371.7c0.7,0,32.8,3.2,39.4,10.2c6.6,7,19.2,48.5,16.3,52.3c-2.9,3.8-11.5-0.9-14.7,0
				c-3.1,0.9,0.2,10.6-3.8,10c-4.1-0.6-13.5-11.5-34.7-28.1C316.8,399.4,316.7,372.7,335.6,371.7z"/>
			<g>
				<path fill="#3E1421" d="M277,424.6c1.7,6.3-7.5,14.3-20.6,17.9c-13.1,3.5-25.1,1.3-26.8-5.1c-1.7-6.3,5.7-21.1,18.7-24.6
					C261.5,409.2,275.3,418.2,277,424.6z"/>
				<path fill="#4C172A" d="M273.4,424.1c0.8,4.3-6.7,9.3-16.7,11.1c-10,1.8-18.8-0.2-19.5-4.5c-0.8-4.3,5.9-13.9,15.9-15.7
					C263.1,413.1,272.7,419.8,273.4,424.1z"/>
				<path fill="#2E131C" d="M260.5,437.6c-13.1,3.5-25.1,1.3-26.8-5.1c-0.9-3.2,0.6-8.4,3.8-13.3c-6,5.9-9,14-7.9,18.2
					c1.7,6.3,13.7,8.6,26.8,5.1c9.7-2.6,17.2-7.7,19.8-12.7C272.5,432.9,267,435.8,260.5,437.6z"/>
				<g>
					
						<ellipse transform="matrix(0.8588 -0.5123 0.5123 0.8588 -180.7422 194.9661)" fill="#190D11" cx="263.3" cy="425.4" rx="4.9" ry="5.8"/>
					<path fill="#010101" d="M266.6,428.1c-2.3,1.4-5.6,0.3-7.2-2.4c-0.6-1-0.8-2-0.8-3c-0.6,1.6-0.5,3.5,0.5,5.2
						c1.6,2.7,4.8,3.8,7.2,2.4c1.5-0.9,2.2-2.7,2.1-4.5C268,426.8,267.5,427.6,266.6,428.1z"/>
					
						<ellipse transform="matrix(0.6704 -0.742 0.742 0.6704 -227.7318 335.4023)" fill="#281018" cx="263.7" cy="424" rx="2.9" ry="3.3"/>
				</g>
				<g>
					
						<ellipse transform="matrix(0.9948 0.1014 -0.1014 0.9948 45.0097 -22.3812)" fill="#190D11" cx="242.6" cy="431.4" rx="4.9" ry="5.8"/>
					<path fill="#010101" d="M243.6,435.6c-2.7-0.3-4.6-3.1-4.3-6.2c0.1-1.1,0.5-2,1.1-2.9c-1.4,0.9-2.5,2.5-2.7,4.4
						c-0.3,3.2,1.6,5.9,4.3,6.2c1.8,0.2,3.4-0.8,4.4-2.4C245.5,435.3,244.6,435.7,243.6,435.6z"/>
					
						<ellipse transform="matrix(0.9807 -0.1954 0.1954 0.9807 -79.4062 55.8928)" fill="#281018" cx="243.6" cy="430.5" rx="2.9" ry="3.3"/>
				</g>
			</g>
			<g>
				<path fill="#010101" d="M246.7,457.6c-17.4,0-31-8.4-31.2-8.6c-0.9-0.6-1.1-1.7-0.6-2.6c0.6-0.9,1.7-1.1,2.6-0.6
					c1.7,1.1,41.1,25.4,70.3-15.2c0.6-0.9,1.8-1,2.6-0.4c0.8,0.6,1,1.8,0.4,2.6C277,452.2,260.6,457.6,246.7,457.6z"/>
			</g>
			<g>
				<path fill="#E01F26" d="M341.4,398c0,0,10.3-12.1,19.4-5.6c9.1,6.5-3.1,28.5-22.2,32.9c0,0-15.9-6.1-19.9-20.5
					C314.6,390.4,333.8,381.9,341.4,398z"/>
				<path fill="#C42026" d="M341.4,398c-7.6-16-26.8-7.6-22.7,6.8c4.1,14.4,19.9,20.5,19.9,20.5c2.6-0.6,5-1.5,7.3-2.7
					c-10.3-2.7-24.7-18.9-19.7-25.3C331.3,390.7,341.4,398,341.4,398z"/>
				<path fill="#ED2224" d="M342,402c0,0,9.9-11.7,16.5-6.2c6.7,5.4-6,20.2-13.1,22.1c0,0-12.8-6.3-15.3-15.2
					C327.6,393.8,338.1,398.5,342,402z"/>
			</g>
			<g>
				<path fill="#E01F26" d="M148,429.1c0,0,3.4-18,16.2-16.6c12.8,1.4,13.1,30.4-3.4,45.6c0,0-19.4,3-31.6-9.1
					C116.9,436.8,131.3,417.4,148,429.1z"/>
				<path fill="#C42026" d="M148,429.1c-16.8-11.7-31.2,7.7-18.9,19.8c12.3,12.1,31.6,9.1,31.6,9.1c2.3-2.1,4.2-4.4,5.8-6.9
					c-11.9,3.2-35.6-4.9-34.2-14.1C133.9,427.6,148,429.1,148,429.1z"/>
				<path fill="#ED2224" d="M151,432.8c0,0,3.2-17.3,13-15.7c9.8,1.7,5.5,23.7-0.5,29.7c0,0-16.5,1-24-6.5
					C131.9,432.9,145.1,431.5,151,432.8z"/>
			</g>
			<ellipse fill="#F9B7B8" cx="370.9" cy="431" rx="9.9" ry="8.4"/>
			
				<ellipse transform="matrix(0.9935 -0.1138 0.1138 0.9935 -52.8543 16.0981)" fill="#F9B7B8" cx="114.6" cy="471.2" rx="9.9" ry="8.4"/>
			<path fill="#6E604E" d="M311.9,407.2c-6.6-9.7-6.1-23.8-4-35.5c-19.3,16.4-17.5,45.1,5.3,56.3c23.6,11.6,46.1,22.7,62.3,58
				c2.2-5.3,4.3-11.2,6-17.2C363.8,437.5,323.2,424,311.9,407.2z"/>
			<path fill="#6E604E" d="M153.4,488.3c13.1-13.2,32-25,37.2-42.6c-15,9.6-38.3,25.2-48.4,36.8c-15.7,17.7-34.1,20.2-45.9-18.6
				C90.5,445,91,430.3,93,420.2c-6,4.8-11.3,9.7-15.7,14.2c-4,40.3,8.5,82.5,49.7,103.9C127.8,521.6,142.8,499.1,153.4,488.3z"/>
		</g>
		<g>
			<path fill="#C6A685" d="M173.6,600.4c0,0-19.3-20-22.3-43.8c-3-23.7,41.2-46.2,55-48.4c13.9-2.1,40.8,7.7,58.7,5.6
				c17.9-2.1,8.5,14.3,8.5,14.3s18.1,1.8,29.1-0.9c11-2.6,19.1-3.3,20.8-2.6c1.6,0.7-1.8,7.7-1.8,7.7s35.6,0.8,56.1-2.6
				s29.2-10.1,33.5-10.2c4.3-0.1,9.7,7.7,9.7,7.7s18.6-13.6,23.7-14.2c5.1-0.6,5.6,7.7,5.6,7.7s39.5-16,49-13.7
				c9.5,2.4,28.9,35.3,28.2,43.4c-0.6,8.1-15.7,19.8-16.2,23.1c-0.5,3.4,1.3,6-0.4,9.1c-1.6,3.1-45.6,30.2-61.6,38.6
				c-15.9,8.4-27.4,9.3-28.4,11.5c-1,2.2-0.3,8.3-4,11.5c-3.7,3.2-26.9-9.4-31.5-6.9s-4.3,5.6-6.7,9.8c-2.5,4.2-33.3,6.6-45.9,7.1
				s-37.5-5.8-37.5-5.8s0.1,7.7-3.3,9.5c-3.4,1.7-41.4-15.5-44.6-19.5c0,0,2.6,7.7-2.6,11.3C239.6,653.4,196.5,625.2,173.6,600.4z"
				/>
			<path fill="#B59374" d="M386.4,630.2c-8.8,0.8-10.4,11.4-32.4,14.5c-22.1,3-61.7-5.3-64.4-5.4c-2.7-0.2-2.9,8.9-5.6,8.9
				c-2.7,0-38.5-17.6-41.5-17c-3,0.6-3.5,9.3-8.4,6.8c-4.9-2.6-51.4-42.9-58.7-59c-7.3-16-12.6-29.7,4.8-46
				c17.4-16.3,44.8-15.3,53.5-13.5c8.6,1.7,28.2,0.1,32.9,0c4.7-0.1,7,8.8,7,8.8s9.4-16.5-8.5-14.3c-17.9,2.1-44.8-7.7-58.7-5.6
				c-13.9,2.1-58,24.6-55,48.4c3,23.7,22.3,43.8,22.3,43.8c22.8,24.7,66,53,71.1,49.3c5.1-3.6,2.6-11.3,2.6-11.3
				c3.2,4,41.3,21.2,44.6,19.5c3.4-1.7,3.3-9.5,3.3-9.5s25,6.4,37.5,5.8c12.6-0.5,43.5-2.9,45.9-7.1c2.5-4.2,2.1-7.4,6.7-9.8
				c4.6-2.5,27.8,10.1,31.5,6.9c1.4-1.2,2.2-2.9,2.7-4.6C408.2,635.2,391.9,629.7,386.4,630.2z"/>
			<path fill="#D8B89A" d="M267.3,538.4c0,0,39.7-6.6,43.2-4.7c3.6,1.8,0,9.8,0,9.8s39.8-0.1,53-1.6c13.2-1.4,38.1-10.1,43.7-9.5
				c5.7,0.7,9.2,5.5,9.2,5.5s20.2-13.7,24-13.7c3.8,0,5.5,7.9,5.5,7.9s43.7-14.4,51.4-12.1s16.3,22.9,15.3,27.9
				c-1.1,5-12,17.1-12.6,21.1c-0.7,4-1.3,6.3-4.2,10.8c-2.9,4.5-72.2,41.5-76.3,42.7c-4.1,1.2-23.3-1.8-31.2-1.1
				s-21.1,8.6-29.3,11.3c-8.2,2.8-70.4-6.7-72.2-6.3c-1.8,0.4-5.1,7.3-8.2,6.8s-30.2-16.6-32.4-16.8c-2.2-0.3-11.2,6.5-14.8,5.8
				c-3.6-0.7-44.9-37.4-45.3-59c-0.4-21.6,14.2-31.1,33.2-34.5c19-3.4,41.2-3.6,44.5-1.8C267.2,528.5,267.3,538.4,267.3,538.4z"/>
		</g>
		<g>
			<path fill="#E5CFAD" d="M182.7,574.9c0,0-0.1-8.8-5.3-8.6c-5.1,0.2-25.9,20.3-31.4,37.6c-5.5,17.3,9.7,29.3,16.2,30.2
				C168.7,635,182.7,574.9,182.7,574.9z"/>
			<path fill="#D1B898" d="M150.3,599.9c3.3-10.3,12-21.6,19.6-29.1c-8.3,6.9-20,20.7-23.9,33.1c-5.5,17.3,9.7,29.3,16.2,30.2
				c1.1,0.1,2.4-1.4,3.8-4.1C159.2,628.6,145,616.7,150.3,599.9z"/>
			<path fill="#E5CFAD" d="M180.2,582.3c0,0,10.6-12.3,15.9-11.9c5.3,0.4-0.6,25.5,0,46.8c0.6,21.2-0.2,27-6.3,29c-6,2-14-5-15.4-14
				S175.2,589.7,180.2,582.3z"/>
			<path fill="#D1B898" d="M195,570.5c-5.5,1.1-14.8,11.8-14.8,11.8c-5,7.4-7.2,40.9-5.8,49.9c1.5,9,9.4,16,15.4,14
				c1.6-0.5,2.8-1.3,3.7-2.5c-2.9-0.1-6.7-1-7.9-4.7c-2.1-6.2-0.5-22.2,2.2-44.6C189.2,583.1,192.3,575.4,195,570.5z"/>
			<g>
				<path fill="#E5CFAD" d="M180,631.2c0,0,0.7-28.1,6.8-46.9c6.1-18.8,2.3-20.9-4.5-16.7c-6.8,4.2-25.2,37.1-25.9,57.5
					c-0.6,20.4,15.8,18.5,19,18C178.7,642.6,179.6,638.6,180,631.2z"/>
				<path fill="#D1B898" d="M161,620.7c0.5-17.1,13.5-42.9,21.7-53.3c-0.1,0.1-0.3,0.2-0.4,0.2c-6.8,4.2-25.2,37.1-25.9,57.5
					c-0.6,20.4,15.8,18.5,19,18c1.8-0.3,2.9-1.7,3.6-4.3C174.4,639.4,160.4,639.6,161,620.7z"/>
				<path fill="#F8E4CA" d="M176,628.8c0,0,2-19.4,4.6-33.5c2.6-14,5.8-22.7,4.9-23.9c-0.9-1.2-12.7,14.8-17.1,29.2
					c-4.5,14.3-3.9,24.7-0.8,29.7C170.6,635.2,175.5,633.4,176,628.8z"/>
			</g>
			<path fill="#F8E4CA" d="M188,633.2c0,0-0.1-16.4,1.1-30.9c1.1-14.5,4-25.6,6-26.1c2-0.5-0.1,13.3-1.1,25.3c-1,12-0.4,33.8-2,36.4
				C190.3,640.5,188.6,638.5,188,633.2z"/>
			<path fill="#F8E4CA" d="M156,609.7c0,0,12.6-28.4,18.4-36.6c5.9-8.2-6.6,1.7-12.8,10.9c-6.2,9.2-11.2,17.2-10.2,25.1
				C152,614.2,153.8,614.5,156,609.7z"/>
		</g>
		<g>
			<path fill="#E5CFAD" d="M455.3,616c0,0-7.1-2.6-11.5,0c-4.4,2.6,1.6,27.7,11.5,39.5c9.9,11.9,22.3,2.5,22.2-2
				c-0.2-4.6,15.4-9.4,15.9-9.2c0.5,0.3,12.1-4.1,9.9-14.5c-2.2-10.4-33.6-25.2-37.6-24.3c-4,0.9-3.6,9.6-3.6,9.6L455.3,616z"/>
			<path fill="#D1B898" d="M503.3,629.8c0-0.1-0.1-0.3-0.1-0.4c-1.8,2.6-5.4,6.4-10.3,1.9c-5.4-5-22.6-17-30.1-22.3
				c-0.8,2.7-0.6,6-0.6,6l-1.1,0.2l14.5,37c0,0-9.3,8.6-17.5,0c-8.2-8.6-14.8-30.1-11.4-32.9c3.4-2.8,9.2-0.1,9.2,0
				c0,0-0.6-1.6-1.6-3.6c-2.1-0.6-7.1-1.7-10.4,0.3c-4.4,2.6,1.6,27.7,11.5,39.5c9.9,11.9,22.3,2.5,22.2-2
				c-0.2-4.6,15.4-9.4,15.9-9.2C493.9,644.5,505.5,640.1,503.3,629.8z"/>
			<g>
				<path fill="#E5CFAD" d="M462,611.6c0,0,33.8,22,35,33.2c1.2,11.1-15.6,22-29.2,2.6c-13.6-19.4-19-34-16.3-37.3
					C454.3,606.5,462,611.6,462,611.6z"/>
				<path fill="#D1B898" d="M496.8,643.6c-3.7,8.3-17.1,12.8-28.3-3.1c-9.3-13.2-14.7-24.2-16.4-30.9c-0.2,0.2-0.4,0.4-0.6,0.6
					c-2.7,3.3,2.7,17.9,16.3,37.3c13.6,19.4,30.5,8.5,29.2-2.6C497,644.4,496.9,644,496.8,643.6z"/>
				<path fill="#F8E4CA" d="M487.5,637.8c0,0-22.5-22.2-28.3-23.4c-5.9-1.1,11.7,26.5,19.2,30.5S492.5,642.6,487.5,637.8z"/>
			</g>
			<path fill="#F8E4CA" d="M452.6,625.5c0,0,10.3,18.9,13.3,24c2.9,5.1-6.1,2.3-9.2-2.4c-3-4.7-8.7-17.2-8-22.7
				C449.3,619,451.2,623,452.6,625.5z"/>
			<path fill="#F8E4CA" d="M471.1,608.3c0,0,25.1,13.3,27.7,17.2c2.6,3.9-0.8,4.6-2.6,4.9c-1.8,0.2-12.6-9.8-27.1-19.2
				C466.8,609.7,468.2,607.4,471.1,608.3z"/>
		</g>
		<path fill="#D8B89A" d="M345.4,522.1c0,0,12.3-12.3,14-12.2c1.7,0.2,3.8,2,6.1,0.6c2.3-1.3,2.8-5.8,4.5-5.8
			c1.6,0,16.3,11.8,16.1,14.9C385.8,522.8,337.7,529.4,345.4,522.1z"/>
		<path fill="#D8B89A" d="M211.6,637.5c0,0,21.9,12.9,30.7,14.6s8.4-3.4,11.1-3.5c2.7-0.1,30.2,11.7,38.7,12.4
			c8.6,0.7,7.4-5.2,11.3-5.3c3.9-0.2,17.5,2.7,45.1,2.4s32.6-5,34.7-7.1c2.1-2.1,0.8-5.3,5.3-5.8c4.6-0.5,23.7,5.1,29,3.3
			c5.3-1.8,8.2-10.2,11.3-12.5c2.3-1.8,10.1-3.5,11.4-1.5c1.3,2,7.7,17.2,7.9,20.9s-16.4,14.1-19,14.1s-3.2-7.5-7.9-7.2
			c-4.7,0.4-30.1,12-34.9,12.5c-4.8,0.5-5.6-6.4-11.4-6.1c-5.8,0.3-37.6,10.4-50.5,9.1c-12.9-1.3-7.3-7.2-10.1-9.2
			c-2.8-2.1-57,0.4-62.8-2.1c-5.8-2.4-3.5-7-6.9-9.1c-3.4-2.1-25.3-5.6-32.5-9.8C204.8,643.3,206.2,634.7,211.6,637.5z"/>
		<path fill="#D8B89A" d="M541.6,550.4c0,0,18.3-12.7,27-22.9c8.7-10.2,9-25.4,10.4-27.4c1.4-2.1,5-0.2,5.5,5.8
			c0.5,6.1-11.6,42.3-15.1,46.9s-10.1-3-13.5-1.4s-16.2,38.3-19.6,41.2c-3.4,2.9-7.9-5.9-10.4-4.9c-2.5,1-16.1,21.6-19.8,23.3
			c-3.7,1.7-13.5-5.1-11.2-7c2.3-1.9,21.3-15.3,25.3-20.9C524.1,577.5,527.1,561.4,541.6,550.4z"/>
	</g>
	<g>
		<path fill="#E01F26" d="M326.7,71.3c-31.5-12.6-33.3,28.2-33.3,28.2s-32.8-24.3-42.8,8.1c-10,32.4,44.2,49.8,71.9,52.7
			C337.7,137,358.2,83.9,326.7,71.3z"/>
		<path fill="#C42026" d="M274.4,125.3c-17-16.4-10.3-29.2-6.2-34.4c-7.1,0.6-13.9,4.8-17.6,16.7c-10,32.4,44.2,49.8,71.9,52.7
			c3.2-5,6.7-11.4,9.9-18.4C314.8,146.4,290.2,140.5,274.4,125.3z"/>
		<path fill="#ED2224" d="M300.1,111.6c0,0-15.2-13.6-21.5-10.8c-6.3,2.8-5.8,9.4,3.3,18.3c9.2,8.8,38.1,19.4,43.9,9.4
			c5.8-10,11.7-34.9,3.7-43.1C321.5,77.2,303.8,70,300.1,111.6z"/>
	</g>
	<g>
		<path fill="#E01F26" d="M201.3,57.6c-21.5-8.6-22.7,19.2-22.7,19.2s-22.4-16.5-29.2,5.5c-6.8,22.1,30.1,34,49,36
			C208.8,102.4,222.8,66.1,201.3,57.6z"/>
		<path fill="#C42026" d="M165.7,94.3c-11.6-11.2-7-19.9-4.2-23.4c-4.8,0.4-9.5,3.3-12,11.4c-6.8,22.1,30.1,34,49,36
			c2.2-3.4,4.6-7.8,6.7-12.5C193.2,108.7,176.5,104.7,165.7,94.3z"/>
		<path fill="#ED2224" d="M183.2,85c0,0-10.4-9.3-14.7-7.4c-4.3,1.9-4,6.4,2.3,12.4c6.3,6,26,13.3,30,6.4c4-6.8,8-23.8,2.5-29.4
			C197.8,61.6,185.7,56.6,183.2,85z"/>
	</g>
	<g>
		<path fill="#E01F26" d="M429.5,25.6c-16.4-22.3-35.2,5.3-35.2,5.3S382-0.1,361.1,18c-20.9,18.2,9.2,53.6,27.2,67.5
			C408.9,75.9,446,47.8,429.5,25.6z"/>
		<path fill="#C42026" d="M370,40.5c-4.7-18.7,5.4-24.7,10.5-26.5c-5.2-2.6-11.7-2.6-19.4,4.1c-20.9,18.2,9.2,53.6,27.2,67.5
			c4.4-2.1,9.5-5,14.8-8.5C389,72.5,374.4,57.9,370,40.5z"/>
		<path fill="#ED2224" d="M393.7,42.1c0,0-4.7-16-10.3-16.8c-5.6-0.8-8.1,4-5.5,14.1s18.1,29.9,26.4,25.4
			c8.4-4.4,23.2-19.2,21.1-28.3C423.4,27.4,414.2,14.8,393.7,42.1z"/>
	</g>
</g>
</svg>
