<?xml version="1.0" encoding="utf-8"?>
<!-- Generator: Adobe Illustrator 17.1.0, SVG Export Plug-In . SVG Version: 6.00 Build 0)  -->
<!DOCTYPE svg PUBLIC "-//W3C//DTD SVG 1.1//EN" "http://www.w3.org/Graphics/SVG/1.1/DTD/svg11.dtd">
<svg version="1.1" id="Layer_1" xmlns="http://www.w3.org/2000/svg" xmlns:xlink="http://www.w3.org/1999/xlink" x="0px" y="0px"
	 width="690.3px" height="432.4px" viewBox="6.7 133.6 690.3 432.4" enable-background="new 6.7 133.6 690.3 432.4"
	 xml:space="preserve">
<g>
	<path fill="#C6A685" d="M554.1,384.4c0,0,17.6,2.6,24.4,2.4c6.8-0.1,12.2-0.1,14.6,1.5c2.4,1.6,2.4,7.1,2.4,7.1s9.8,0.3,13.2,2.8
		c3.3,2.5-2.7,17.9-2.7,17.9s-24.9,14.4-26.8,13.4C577.3,428.5,554.1,384.4,554.1,384.4z"/>
	<path fill="#B59374" d="M609.6,403c-7.5-2.5-16.9,2.8-22.3,1.4c-4.5-1.1-18.5-13.1-25.1-19c-4.6-0.6-8.1-1.1-8.1-1.1
		s23.2,44.1,25.1,45.2c1.9,1,26.8-13.4,26.8-13.4S609,408.4,609.6,403z"/>
	<path fill="#E5CFAD" d="M648.4,509c0,0,7.8,9.6,20.7,11.6s20.2-0.2,18.9-2.2l0.5-2.8c0,0,6.2-1.5,6.8-3.7s-18.5-15.3-25.4-23.2
		C663.1,480.7,648.4,509,648.4,509z"/>
	<path fill="#D1B898" d="M671.9,497.2c-0.5-1.8,0.2-4.1,0.9-5.6c-1.1-1-2.1-2-2.9-3c-6.9-7.9-21.6,20.3-21.6,20.3s7.8,9.6,20.7,11.6
		c2,0.3,3.9,0.5,5.6,0.7c-10.9-2.2-18.7-8-18.4-9.8c0.4-2.2,6.7-5.5,6.7-5.5s19.2,9.4,25.1,12.3l0.5-2.5c0,0,2.8-0.7,4.8-1.8
		C687.5,510.5,672.7,499.8,671.9,497.2z"/>
	<path fill="#E5CFAD" d="M664.8,494.1c0,0,12.8,12.2,27.8,21.2c15.1,9.1-12.1,10.5-35.2-11.2L664.8,494.1z"/>
	<path fill="#D1B898" d="M669.6,498.3c-3-2.6-4.7-4.3-4.7-4.3l-7.4,10c15,14.1,31.8,18.5,37.5,17.2c-14.5-1.8-28.2-12.2-29-16
		C665.5,502.8,667.9,500,669.6,498.3z"/>
	<path fill="#C6A685" d="M581.9,418.5c0,0,14.5-15.1,24-13.3c9.5,1.8,30.9,19.3,31.3,22.4s-4.6,5.3-4.6,5.3s30.6,20.6,30,25.6
		s-9.2,3.8-9.2,3.8s18.2,17.8,18.5,25.2c0.3,7.4-18.1,23.9-23.8,25c-5.6,1.1-10.5-6.9-13.3-6.5s-5.9,3.8-7.9,4.4
		s-20.2-14.1-34.2-14.2C578.8,496.1,581.9,418.5,581.9,418.5z"/>
	<path fill="#B59374" d="M611.9,484.1c1.6-12.6-3.2-35.3-4.5-39.6c-1.3-4.3,1.7-7.4,0-14.2c-1.2-4.8-9.4-15.4-14.1-21.3
		c-6.2,4-11.5,9.4-11.5,9.4s-3.1,77.6,10.8,77.7c14,0.1,32.2,14.8,34.2,14.2c1.2-0.4,2.9-1.8,4.6-2.9
		C624,502.8,610.8,493.2,611.9,484.1z"/>
	<path fill="#C6A685" d="M521.9,360.5c0,0,38.8,16.1,41.2,20.5s-5.8,5.5-5.8,5.5s22.2,15.9,35.7,31.6s6.8,20.3,1.4,19.4
		c0,0,13.4,14.9,12.9,36.2c-0.5,21.3-12.7,20.3-12.7,20.3s0.7,12.4-10.6,16.6c-11.3,4.1-19.5,0-19.5,0s-3,9.1-8.4,10.8
		s-23.5-8.8-23.5-8.8s-1.7,8.7-7.6,8.9c-5.9,0.3-24.9-23.5-24.9-23.5s-34.6-49.3-33.6-51.2c0.9-1.8,12-69.6,12-69.6L521.9,360.5z"/>
	<path fill="#B59374" d="M556.2,521.3c1.9-0.6,3.6-2.2,4.9-4c-12-1.1-27.4-10.7-29.5-10.8c-2.4-0.1-5.4,11.6-9,6.5
		c-3.7-5.2-4.7-15.6-4.3-20.5c0.4-5,10.2-5.4,6.4-21.5s-27-26-25.8-30c1.2-4.1,5.5-9.4,9-11s10.5,5.6,15.7-4.1s6.3-30.6,8.1-43.6
		c1-7.6,4-12.2,6.3-14.9c-8.6-3.8-16-6.9-16-6.9l-43.3,16.8c0,0-11.1,67.7-12,69.6c-0.9,1.8,33.6,51.2,33.6,51.2s19,23.7,24.9,23.5
		c5.9-0.3,7.6-8.9,7.6-8.9S550.8,523.1,556.2,521.3z"/>
	<path fill="#E5CFAD" d="M344.8,495.5c0,0-34.8,11.2-41.3,22.2s63-13.2,63-13.2l-53,20.7c0,0-6.6,11.9,4.7,10.2
		c11.3-1.8,43.6-13.2,43.6-13.2s17.5-20.1,16.9-20.2C378.3,501.8,344.8,495.5,344.8,495.5z"/>
	<g>
		<path fill="#D1B898" d="M313.6,525.2c0,0-6.6,11.9,4.7,10.2c7.6-1.2,24.8-6.8,35.2-10.3c0.4-1.5,0.7-2.7,0.7-2.7s-35.9,13-38.7,9
			c-1.5-2.2-1.1-4.9-0.5-6.8L313.6,525.2z"/>
		<path fill="#D1B898" d="M353.4,508.9L353.4,508.9c1.3-0.4,2.2-11.4-5.9-9.1c-8,2.3-37.8,19.6-39.7,17.3c-0.6-0.8-0.5-2.3,0-4
			c-1.8,1.5-3.3,3.1-4.2,4.6C298.9,525.6,333.6,515.3,353.4,508.9z"/>
	</g>
	<path fill="#E5CFAD" d="M350.6,501c-0.6,0.6-42.6,16.8-47.9,28s63.9-19.9,63.9-19.9L350.6,501z"/>
	<path fill="#D1B898" d="M305,525.8c-1.1,1.1-1.9,2.2-2.4,3.2c-5.3,11.2,63.9-19.9,63.9-19.9l-2.6-1.3
		C348.3,514.6,302.1,534.2,305,525.8z"/>
	<path fill="#F8E4CA" d="M340.6,509.3c0,0,1.6,2.9,0,5.3c-1.6,2.4-29.2,11.3-30.4,10.6C308.9,524.4,339.2,506.1,340.6,509.3z"/>
	<g>
		<path fill="#E5CFAD" d="M58.4,424c0,0-36.7,21.5-42.2,28.9s22.3,1.2,22.3,1.2S17.1,465,16.9,467.8c-0.2,2.7,43.5-0.3,45.5-0.8
			C64.5,466.4,58.4,424,58.4,424z"/>
		<g>
			<path fill="#D1B898" d="M23.3,466.4c-1.1-0.8-1.3-2-1.2-3.1c-3,1.9-5.2,3.6-5.2,4.5c-0.2,2.7,43.5-0.3,45.5-0.8
				c0.3-0.1,0.4-1,0.4-2.4C48,465.8,24.9,467.5,23.3,466.4z"/>
			<path fill="#D1B898" d="M38.4,454.1c0,0-4.2,2.2-8.9,4.8L56,451l-0.8-16.3c0,0-32.5,21-35.2,18.6c-0.6-0.5-0.7-1.9-0.7-3.6
				c-1.5,1.3-2.6,2.4-3.3,3.3C10.6,460.4,38.4,454.1,38.4,454.1z"/>
		</g>
		<path fill="#E5CFAD" d="M56.2,435.8c-0.3,0-49.3,27.6-49.5,31.5c-0.2,3.9,55.1-14,55.1-14L56.2,435.8z"/>
		<path fill="#D1B898" d="M9.4,464.5c0-0.1,0-0.1,0.1-0.2c-1.7,1.4-2.8,2.4-2.8,3c-0.2,3.9,55.1-14,55.1-14l-0.6-1.7
			C49.3,455.3,9.3,467.8,9.4,464.5z"/>
		<path fill="#F8E4CA" d="M17.4,461.1c0,0,28-17.2,29.4-17.2c1.4,0,2.6,8,1.4,9.4C46.9,454.7,10.3,465,17.4,461.1z"/>
		<path fill="#F8E4CA" d="M30.1,464.5c0,0,18.3-5.5,18.9-5.3c0.6,0.1,1.7,3.6,1,4.6c-0.8,0.9-20.2,1.7-21.2,1.7
			S28.8,464.9,30.1,464.5z"/>
		<path fill="#F8E4CA" d="M22.9,448.6c0,0,25.6-16.9,26.3-16.7c0.7,0.1,1.3,3.6,0.5,5c-0.9,1.3-24.7,13.7-26.2,14.2
			C22,451.6,20.3,450.3,22.9,448.6z"/>
	</g>
	<path fill="#C6A685" d="M136.3,382.3c0,0-34.8,2.6-39.7,4.8c-4.9,2.1,1.9,8.1,1.9,8.1s-26.2,5.4-31.3,9.9c-5,4.5,3.4,7.7,3.4,7.7
		s-13.2,7.5-16.6,16.1c-3.4,8.7-4.2,32.5,0,38.2s31.9,6.6,31.9,6.6s-3.2,3-1.4,5.4c1.9,2.5,38.9-2.9,38.9-2.9s-1,6.7,1.2,8.2
		c2.2,1.4,33.8-3.7,33.8-3.7s1.1,4.2,5.1,5.3c4,1,38.4-7.6,38.4-7.6L136.3,382.3z"/>
	<path fill="#B59374" d="M98.4,395.1c0,0-26.2,5.4-31.3,9.9c-5,4.5,3.4,7.7,3.4,7.7s-13.2,7.5-16.6,16.1c-3.4,8.7-4.2,32.5,0,38.2
		s31.9,6.6,31.9,6.6s-3.2,3-1.4,5.4c0.5,0.6,3.1,0.7,6.7,0.6c0.5-4.2,0.9-9.1-0.1-10c-1.7-1.5-25.6-5-28.2-8.1
		c-2.5-3.1-2.9-25.8-1.4-31.8s16.1-13.5,17.4-17.1c1.3-3.6-3.7-4,0-6.2s24.6-5.9,25.9-7.5s-1.6-5.5,0-6.7s12-2.6,12-2.6
		s2.3-2.5,5.3-6.2c-10.2,1-22.8,2.3-25.6,3.5C91.6,389.1,98.4,395.1,98.4,395.1z"/>
	<g>
		<g>
			<path fill="#C6A685" d="M344.2,158.1c0,0,33.7-12.6,44.3-6.8c10.6,5.8-8.6,19.4-8.6,19.4s35.6-5.4,42.8,0s-2.2,9-2.2,9
				s26.9,11,49.6,34.7c22.6,23.7,23.7,24.8,12.9,27.7c0,0,37.6,36.8,39.1,47.4s-12,7.7-12,7.7s16.5,24.3,20.6,49
				c4.2,24.6-7.4,20.9-7.4,20.9s2.5,27.7-4,46.8c-6.5,19.1-18.2,4-18.2,4s-23.4,43.1-36.9,51.4s-10.2-3.1-10.2-3.1
				s-65.6,31.1-145,34.5s-129.3-34.5-129.3-34.5s0.5,4-3.7,6.8s-37.4-29.3-44.3-53.5c0,0-2,5.6-7.1,7.7s-25.9-50.4-11.7-97.1
				c0,0-8.5,4.4-11.7,0s22.9-35.2,22.8-34.4s-11.4,2.9-11.4-10.5s36.3-55,48.6-61c0,0-10-3.8-9.9-12.3c0.2-8.5,47.3-43.3,82.6-49.6
				c0,0-10.4-7.7-3.2-15.7s54.8-2.6,69.9,4.6c0,0-9.5-11.2-6.8-16.3C296.8,130,323.5,138.7,344.2,158.1z"/>
			<path fill="#D8B89A" d="M345.3,168.8c0,0,20.5-11.7,25.6-8.1c5.2,3.6-3.9,12.8-1.6,15.6s32.8-3.6,35.7,0
				c2.8,3.6-2.3,5.2-2.8,10.6c-0.5,5.5,21.1,6.4,40.2,19.1s33,33.1,25.8,36.3c-7.2,3.1,24.7,32.8,26.6,39.7c1.9,6.9-5,6.9-6.3,12.8
				s31.9,44.4,30.3,53.2c-1.6,8.8-12.2,6.2-12.5,11s4.4,39.8,0.6,44.2c-3.8,4.4-6.7-1.4-11.9,1.9c-5.2,3.3-22,40.9-29.7,47.6
				c-7.7,6.6-6.6-2.2-18.1-0.3c-11.6,1.9-243-6.1-243-6.1s-23,0.1-32.5-4.1c-9.4-4.2-29.6-37.1-31.7-42.9c-2-5.8-7.2-8.3-7.5-25.7
				c-0.3-17.4,0.1-45.1,1.8-51.6c1.7-6.6,13.4-19.1,15.1-25.3c1.7-6.3-3.8-16.9,0.3-25.3s45.7-42.2,47.2-48.5
				c1.6-6.3,5.8-15.3,14.4-22.2c8.6-6.9,44.1-15.8,48.8-17.8c4.7-2,3.6-12.7,9.7-14.1c6.1-1.4,36.3,1.9,40.6,0.9
				c4.4-0.9,6.3-12.2,10.7-11.9C325.7,158.1,338.6,171.8,345.3,168.8z"/>
			<path fill="#B59374" d="M299.2,493.6c-63.9-5.2-98.4-25-108.8-31.5c-10.4-6.4-9.9-0.3-16.4-5.1c-6.5-4.8-31.9-37.7-35.7-44.2
				c-3.9-6.4-8.9-2.7-12.6-19.5c-3.7-16.8-2.7-47.5-0.9-57.5c1.9-10-3-13.2-2.9-18.5s16-16.4,15.7-22.4s-10.7-4.7-3.3-23.2
				s43.7-45.9,46.9-50.4c3.1-4.4-8.6-9.4,1.7-19.5c10.3-10,65.3-31.1,67.3-34.1c2.1-3-1.1-8.7,5.1-12.6c6.2-3.9,47.1,4.3,50.7,0
				s-0.6-10.3,3.1-10.6s35,13.5,35,13.5c-20.6-19.3-47.3-28-50.1-23c-2.8,5.1,6.8,16.3,6.8,16.3c-15.1-7.2-62.7-12.6-69.9-4.6
				s3.2,15.7,3.2,15.7c-35.3,6.3-82.4,41.1-82.6,49.6c-0.2,8.5,9.9,12.3,9.9,12.3c-12.3,6-48.6,47.6-48.6,61
				c0,12.2,9.4,11.5,11.1,10.7c-2.8,2.8-25.5,30.1-22.5,34.2c3.2,4.4,11.7,0,11.7,0c-14.2,46.7,6.6,99.2,11.7,97.1
				c5.1-2.1,7.1-7.7,7.1-7.7c6.9,24.1,40.2,56.2,44.3,53.5c4.2-2.8,3.7-6.8,3.7-6.8s49.9,37.9,129.3,34.5s145-34.5,145-34.5
				S363.2,498.7,299.2,493.6z"/>
			<g>
				<path fill="#F7E8D6" d="M302.4,300.9c0,0,45.4-56.3,118.2-27.5c72.8,28.7,124.3,194.7-62.6,209.9
					C171.2,498.5,129.2,403.1,134.9,342C140.5,282,228.2,220.2,302.4,300.9z"/>
				<path fill="#FFF4EA" d="M306.6,313.5c0,0,57.6-46.8,114-16.6S444,421.5,396,442.1c-56.4,24.2-175.4,6.7-199.3-64
					C172.7,307.2,252.7,293.3,306.6,313.5z"/>
				<path fill="#F2DCC3" d="M283.2,466.3c-99.5-13.9-148.6-106.6-101.3-156.5s120.5-8.9,120.5-8.9C228.2,220.2,140.5,282,134.9,342
					c-5.7,61.1,36.3,156.5,223.2,141.3c32-2.6,56.9-9.6,76-19.6C392.6,469.3,336,473.7,283.2,466.3z"/>
				<path fill="#7F715A" d="M485.9,367c-50.1-41-108.6-50.6-125.5-33.3c-18.8,19.2-13.8,39.9,22.5,71.3
					c24.1,20.9,38.7,46.5,45.8,61.3C476.2,444.1,490.5,404.7,485.9,367z"/>
				<path fill="#8F7E69" d="M408.1,339.4c0,0,55,18.3,63.6,36.6c8.6,18.3-11.1,49.2-19.7,53.8c-8.6,4.6-64.3-52.8-66.6-70.8
					C383.2,340.9,399.7,336.4,408.1,339.4z"/>
				<path fill="#7F715A" d="M222.2,399.3c35.6-19.3,36.6-56.8,7.1-76.5c-18.8-12.6-60-2.3-94.1,15.7c-0.2,1.2-0.3,2.4-0.4,3.5
					c-3,32.3,7.3,74.2,45.3,104.2C187.1,432,200.3,411.2,222.2,399.3z"/>
				<path fill="#8F7E69" d="M175.1,335.1c0,0,44.5-17.2,57,9c12.5,26.3-37.6,48.3-50.4,46.1C168.8,388,153.9,344.5,175.1,335.1z"/>
				<path fill="#6E604E" d="M442.3,459c-14.5-33.4-60.9-71-70.7-93.4c-6-13.8-0.7-28.8,5.1-39.3c-7,1.2-12.7,3.7-16.3,7.4
					c-18.8,19.2-13.8,39.9,22.5,71.3c24.1,20.9,38.7,46.5,45.8,61.3C433.6,464,438.1,461.6,442.3,459z"/>
				<path fill="#6E604E" d="M249.4,366.4c-11.4,9.2-25.8,20.1-39.2,28c-27.4,16.1-43.3,22.7-52.7-16.4c-4.8-19.8-5.4-36.4-4.8-47.8
					c-5.9,2.5-11.8,5.3-17.5,8.3c-0.2,1.2-0.3,2.4-0.4,3.5c-3,32.3,7.3,74.2,45.3,104.2c6.9-14.2,20.1-35.1,42-47
					C237.8,390.8,246.8,378.9,249.4,366.4z"/>
				<g>
					<path fill="#3E1421" d="M313.9,371.1c0.2,5.6-9,10.4-20.5,10.8s-21-3.8-21.2-9.4s8.8-16.4,20.3-16.8
						C304.1,355.4,313.8,365.6,313.9,371.1z"/>
					<path fill="#4C172A" d="M311.1,370c-0.2,3.7-7.4,6.4-16,5.9c-8.7-0.5-15.5-3.8-15.3-7.6c0.2-3.7,7.6-10.4,16.2-9.9
						C304.6,359,311.3,366.3,311.1,370z"/>
					<path fill="#2E131C" d="M297.7,378.7c-11.5,0.4-21-3.8-21.2-9.4c-0.1-2.8,2.1-6.9,5.7-10.3c-6.2,3.7-10.2,9.8-10.1,13.6
						c0.2,5.6,9.7,9.8,21.2,9.4c8.5-0.3,15.8-3,18.9-6.7C308.6,377.2,303.4,378.5,297.7,378.7z"/>
					<g>
						
							<ellipse transform="matrix(-0.3024 -0.9532 0.9532 -0.3024 41.9218 769.1362)" fill="#190D11" cx="302.4" cy="369.2" rx="4.9" ry="4.2"/>
						<path fill="#010101" d="M304.6,372.1c-2.2,0.7-4.7-0.8-5.5-3.4c-0.3-0.9-0.3-1.8-0.1-2.6c-0.8,1.2-1.1,2.8-0.6,4.4
							c0.8,2.6,3.3,4.1,5.5,3.4c1.4-0.5,2.3-1.8,2.6-3.3C306.1,371.2,305.5,371.8,304.6,372.1z"/>
						
							<ellipse transform="matrix(-0.5691 -0.8222 0.8222 -0.5691 172.7525 826.6795)" fill="#281018" cx="303" cy="368.1" rx="2.8" ry="2.4"/>
					</g>
					<g>
						
							<ellipse transform="matrix(0.3262 -0.9453 0.9453 0.3262 -158.4641 517.9221)" fill="#190D11" cx="284.1" cy="370.1" rx="4.9" ry="4.2"/>
						<path fill="#010101" d="M284.1,373.7c-2.2-0.8-3.3-3.4-2.4-6c0.3-0.9,0.9-1.6,1.5-2.2c-1.3,0.5-2.5,1.6-3.1,3.1
							c-0.9,2.6,0.2,5.2,2.4,6c1.4,0.5,2.9,0,4.1-1.1C285.8,373.9,284.9,374,284.1,373.7z"/>
						
							<ellipse transform="matrix(3.399547e-002 -0.9994 0.9994 3.399547e-002 -93.977 641.9542)" fill="#281018" cx="285.1" cy="369.6" rx="2.8" ry="2.4"/>
					</g>
				</g>
				<g>
					<path fill="#B11F24" d="M276.4,447.6c0,0-1.2-7.6,6.7-8.2c8-0.7,43.3,7.2,56.5-5.1c13.3-12.3,1-39.9-40.6-43.6
						c-41.7-3.7-58.1,13.9-60.9,26.2c-2.7,12.4,12,16.9,18.3,19.1c6.4,2.2,1.3,19.1,9.8,20.8C274.8,458.5,276.3,450.5,276.4,447.6z"
						/>
					<path fill="#9F1C20" d="M257.7,400.1c7.2-6.3,18-9,28.5-9.9c-32.2,0.6-45.6,15.7-48,26.7c-2.7,12.4,12,16.9,18.3,19.1
						c2.1,0.8,3,3.2,3.5,6.1c4.1-5.8,5.8-15,0.4-14.5C253.2,428.3,238.5,416.9,257.7,400.1z"/>
					<path fill="#A9E0F9" d="M295.3,429c-1.5-2-29.5-2.5-34.9,0c-2.6,1.2-4.7,3.8-6.1,6.2c0.8,0.3,1.6,0.6,2.3,0.8
						c6.4,2.2,1.3,19.1,9.8,20.8c8.5,1.7,9.9-6.3,10-9.2c0,0-1.2-7.6,6.7-8.2c2.4-0.2,7.2,0.4,13.1,0.9
						C296.6,435.7,296.4,430.5,295.3,429z"/>
					<path fill="#89CCF1" d="M274,454.6c-5.8,1.2-9.8-2.8-10.6-9.8c-0.8-7.8-3.9-11.3-3.9-11.3s-1.6-0.7-3.4-1.1
						c-0.7,0.9-1.4,1.8-2,2.7c0.8,0.3,1.6,0.6,2.3,0.8c6.4,2.2,1.3,19.1,9.8,20.8C270.1,457.5,272.5,456.4,274,454.6z"/>
					<path fill="#C7EAFA" d="M266.4,439.3c0,0,5.8-0.4,7.1,0.8c1.2,1.2,2.8,12.6-1.8,12.5C265.4,452.5,263.6,439.6,266.4,439.3z"/>
					<path fill="#F37879" d="M283.2,439.4c7.1-0.6,35.6,5.5,51.2-1.7c-3.9-15.4-16-38.2-47.9-34.1C260.3,407,253,423.1,251,434
						c2.1,0.8,4,1.5,5.5,2L283.2,439.4z"/>
					<path fill="#F16263" d="M268.4,425.8c-2.5-7.2,0.8-13.9,4.8-18.8c-15.5,6.2-20.6,18.3-22.1,27c2.1,0.8,4,1.5,5.5,2l26.6,3.4
						c7.1-0.6,35.6,5.5,51.2-1.7c-0.2-1-0.5-2-0.8-3C308.9,435.5,271.8,435.3,268.4,425.8z"/>
					<path fill="#F48A8B" d="M275.9,417.8c0,0,1.4-6.6,11.8-9.2c10.5-2.6,32.9,3.7,35,16.1C324.9,437.1,271.4,430.4,275.9,417.8z"/>
					<path fill="#C32026" d="M255.8,414.4c0,0,5.6-9.4,26.9-12.9c21.3-3.4,35.9,2.7,43.6,11.3c7.7,8.7,11.5,15.2,14,11
						c2.5-4.3-9-28.5-41.2-30.3c-32.1-1.8-44.9,11.3-46.6,18.1C250.7,418.4,253.8,416.7,255.8,414.4z"/>
				</g>
				<g>
					<path fill="#010101" d="M413.5,373.6c-18.7,0-29.5-16.6-30-17.4c-1.2-1.8-0.6-4.2,1.2-5.4c1.8-1.1,4.2-0.6,5.4,1.2
						c0.4,0.7,10.1,15.4,26.2,13.6c2.1-0.3,4.1,1.3,4.3,3.4c0.2,2.1-1.3,4.1-3.4,4.3C415.9,373.6,414.7,373.6,413.5,373.6z"/>
				</g>
				<ellipse fill="#F9B7B8" cx="442.3" cy="394.4" rx="14.2" ry="10.6"/>
				<g>
					<path fill="#010101" d="M210.5,358c-13.1,13.4-32.6,9.4-33.4,9.2c-2.1-0.5-3.4-2.5-3-4.6c0.5-2.1,2.5-3.4,4.6-3
						c0.8,0.2,18.1,3.6,28-9.1c1.3-1.7,3.8-2,5.5-0.7s2,3.8,0.7,5.5C212.2,356.3,211.4,357.2,210.5,358z"/>
				</g>
				<ellipse fill="#F9B7B8" cx="157.5" cy="388.7" rx="14.2" ry="10.6"/>
			</g>
		</g>
		<g>
			<path fill="#FDC20F" d="M485,196.1l-27,36.5h26l-0.4,25l-52.7,2.1l-2.4-23.1l30.8-40.2l-28.2,2.1l-0.2-23.7h52.9L485,196.1z"/>
		</g>
		<g>
			<path fill="#FDC20F" d="M542.4,159.1l-20.2,27.2h19.5l-0.3,18.7l-39.3,1.6l-1.8-17.3l23-29.9l-21,1.6l-0.2-17.7h39.4L542.4,159.1
				z"/>
		</g>
		<g>
			<path fill="#FDC20F" d="M633.9,215.9l-20.2,27.2h19.5l-0.3,18.7l-39.3,1.6l-1.8-17.3l23-29.9l-21,1.6l-0.2-17.7H633L633.9,215.9z
				"/>
		</g>
	</g>
	<path fill="#D8B89A" d="M109.3,408.3c0,0,6.4,21.7,10.1,28.3c3.7,6.5,11.3,2.9,14.1,4.1s26.9,28.3,26.3,31.2
		c-0.5,2.9-26.2,6.7-28.5,6.4c-2.2-0.3,0.5-8.1-1.4-7.6s-26.5,2.9-29.9,2.7c-3.5-0.2-1.2-7.1-3.3-7.8c-2-0.6-25.1-7.6-27.6-10.3
		c-2.5-2.7-1.7-25,0.8-27.5c2.5-2.4,12-7.3,13.3-9.8s2.1-7,3.8-8.4C89.5,407.7,108.1,404.4,109.3,408.3z"/>
	<g>
		<path fill="#C6A685" d="M516.4,471.5c-5-11.6-21-22.8-30.1-28.5l0,0c-7.2,11.1-15.7,22.6-22,26.4c-13.5,8.3-10.2-3.1-10.2-3.1
			s-2.6,1.2-7.3,3.2l-7.5-5.5l0,0l-3.7,2.3c0,0-26.1-6.6-30.5-3.8c-4.4,2.9,0,10.1,0,10.1s-23.8-3.6-29.7,1.1
			c-5.8,4.7-1.4,9.3-1.4,9.3s-27.7,9.1-29.2,12.5c-1.6,3.5-1.8,28.7,3.6,35.9s24.8,13.9,24.8,13.9S356.4,559,389,559.9
			c32.7,1,39.2-9.5,39.2-9.5s-7.2,18.4,12.5,15.2c19.7-3.1,29.7-17.4,29.7-17.4s1.5,9.9,8.2,7.1c6.7-2.9,16.3-25.3,16.3-25.3
			s8.8,12.1,13.9-5.7c5-17.8-0.5-39.4-0.5-39.4S523.5,488.1,516.4,471.5z"/>
		<path fill="#D8B89A" d="M458.3,481.3c0,0,20.8-10.3,28.4-19.5c5.1-6.2,23.5,7.6,22.5,12.1s-7.6,1.9-8.8,7.4
			c-1.3,5.6,5.6,34.7,2.1,38.3s-6.6-1.9-10.5,0c-3.8,1.9-8.7,20.2-12.6,22.2c-3.8,2-1.5-5.8-5.6-4.6S453,554,446.7,556
			s-3.1-14.1-9.3-15.1c-6.2-1-26.2,8.4-38.8,6.5c-12.6-1.9-4.6-9.2-6-11.8s-22.1-9.1-25.9-15s-4.8-15-1.5-17.8
			c3.4-2.8,25.3-1.6,26.7-6c1.4-4.4,2.6-11.8,6.7-11.8s13.5,1.6,17.7,0s2.7-9.3,8.1-9C429.8,476.1,451.1,484.9,458.3,481.3z"/>
		<g>
			<path fill="#B59374" d="M486.3,443L486.3,443L486.3,443z"/>
			<path fill="#B59374" d="M486.3,443c-7.2,11.1-15.7,22.6-22,26.4c-13.5,8.3-10.2-3.1-10.2-3.1s-2.4,1.1-6.7,3l0,0
				c-0.1,0.1-0.3,0.1-0.4,0.2l0,0c-0.1,0-0.1,0-0.2,0.1l-7.5-5.5l0,0l-3.7,2.3c0,0-26.1-6.6-30.5-3.8c-4.4,2.9,0,10.1,0,10.1
				s-23.8-3.6-29.7,1.1c-5.8,4.7-1.4,9.3-1.4,9.3s-27.7,9.1-29.2,12.5c-1.6,3.5-1.8,28.7,3.6,35.9s24.8,13.9,24.8,13.9
				S356.4,559,389,559.9c29.6,0.9,37.7-7.7,39-9.3c0.1-0.2,0.2-0.3,0.2-0.3s-9,4.4-19,5.3c-10,0.9-27.1-1-28.6-3.7s2.6-7.8,1.4-10
				s-22.2-10.1-25.1-13s-7.6-24-2.7-29.2c4.8-5.1,27-7.8,28.8-11c1.7-3.3-2.9-9.4,1.2-11.4s25,2.3,28.1-1.5c3.2-3.9-0.5-5.5,3.5-6.6
				c4-1,37.5,6.6,37.5,6.6s4.5,2,14.3-4c8.7-5.3,18.4-18.5,23.4-25.9C489.3,444.9,487.7,443.9,486.3,443z"/>
		</g>
	</g>
	<path fill="#A68162" d="M455.8,479.4c0,0-4-5.4-9.7-10.4c-2-1.8-4.4-3.5-6.8-5l-3.7,2.3C435.6,466.3,449.8,473.1,455.8,479.4z"/>
	<path fill="#F8E4CA" d="M320.4,529.4c0,0,21.5-8.5,22.3-8.4s1.4,2.5,0.7,3.4c-0.7,0.8-21.1,6.6-22.8,6.4
		C318.8,530.6,319.1,529.9,320.4,529.4z"/>
	<path fill="#F8E4CA" d="M311.7,511.8c0,0,9.6-5.2,14.7-7.8c5.1-2.6,13.3-4.9,14.2-4c0.9,0.9-26.6,13.7-28.5,14.5
		C310.2,515.3,309.4,513.1,311.7,511.8z"/>
	<path fill="#D8B89A" d="M535.8,423.2c0,0,1.8-44,7.6-44.9s11.5,2.1,7.6,5.5s38.6,34.8,38.3,40.9c-0.4,6.1-7.7,6.4-8.1,9.8
		c-0.4,3.4,19.7,21.1,18.4,36.6c-1.3,15.4-8.8,12.6-11,15c-2.2,2.3-0.2,9.4-6.4,15c-6.1,5.6-16.1-1-19.1,0c-3.1,1-3.4,6.8-6.1,7.2
		c-2.7,0.4-17.9-12.4-21.1-11.9c-3.2,0.5-7.1,7.2-8.8,4.7s-2-4.3,2.9-16.2s-4.7-33.6-14.5-41.7s3.9-4.5,10.1-7.2
		C531.6,433.3,535.5,428.5,535.8,423.2z"/>
	<path fill="#D8B89A" d="M617.1,481.8c0,0-1.9-25.7-3.4-35.3c-1.4-9.6-3-19.2-6.3-29.3c-3.3-10.2,20.9,4.8,20.7,8.7
		c-0.2,3.9-3,4.3-0.7,7.9s26.5,19.3,24.7,21.5s-5.6,0.5-5.9,4.5c-0.3,4,17.4,21.7,17.4,25.6c0.1,3.9-11.8,15.8-15.1,17.1
		c-3.2,1.3-8.6-5.1-14.2-4.7C628.8,498,617.7,488.4,617.1,481.8z"/>
	<path fill="#F8E4CA" d="M672.3,503.1c0,0,8.6,7.9,16.3,12s5.7,4.9,1,3.7c-4.8-1.2-16.9-7.6-20-12.1
		C666.5,502.3,670,501.1,672.3,503.1z"/>
	<path fill="#F8E4CA" d="M662.3,510.4c0,0,10.6,6.3,14.7,8.2c4.1,1.9-3.8,0.9-7.1,0c-3.2-0.9-8.8-4.3-9.7-6.1
		C659.4,510.7,660.9,509.6,662.3,510.4z"/>
	<path fill="#F8E4CA" d="M673.7,497.3c0-0.1,0.4-2.3,0.9-2.4c0.4-0.1,19.2,15.4,18.5,16.6S673.7,498.9,673.7,497.3z"/>
	<path fill="#D8B89A" d="M572.8,389.1c0,0,9.7,0,15.4,0.5s5,6.1,5.7,6.9c0.6,0.8,12.5,1.3,12.9,2.8c0.4,1.4-3.8,1.2-6.8,1.7
		s-9.7,1.3-11.7,0.9C586.4,401.5,570.1,389.1,572.8,389.1z"/>
</g>
</svg>
