<?xml version="1.0" encoding="utf-8"?>
<!-- Generator: Adobe Illustrator 17.1.0, SVG Export Plug-In . SVG Version: 6.00 Build 0)  -->
<!DOCTYPE svg PUBLIC "-//W3C//DTD SVG 1.1//EN" "http://www.w3.org/Graphics/SVG/1.1/DTD/svg11.dtd">
<svg version="1.1" id="Layer_1" xmlns="http://www.w3.org/2000/svg" xmlns:xlink="http://www.w3.org/1999/xlink" x="0px" y="0px"
	 width="700px" height="700px" viewBox="0 0 700 700" enable-background="new 0 0 700 700" xml:space="preserve">
<g>
	<g>
		<polygon fill="#F3C132" points="485.7,360.8 597.6,492.1 590.4,497.8 485,361.4 		"/>
		<polygon fill="#F3C132" points="227,159.8 136.3,13.1 144.3,8.5 227.8,159.2 		"/>
		<polygon fill="#F3C132" points="266,195.7 188.4,41.6 196.7,37.7 266.8,195.2 		"/>
		<polygon fill="#F3C132" points="299.4,188.2 245,24.5 253.7,21.9 300.3,187.8 		"/>
		<polygon fill="#F3C132" points="319,175.1 280.3,7 289.3,5.2 319.9,174.8 		"/>
		<polygon fill="#F3C132" points="329.6,200.9 329.7,28.4 338.8,28.6 330.6,200.8 		"/>
		<polygon fill="#F3C132" points="356,185.9 374.9,14.4 384,15.7 357,185.9 		"/>
		<polygon fill="#F3C132" points="373.5,174.2 421.3,8.5 430,11.3 374.4,174.4 		"/>
		<polygon fill="#F3C132" points="396.1,166.3 479.8,15.5 487.7,20.2 396.9,166.7 		"/>
		<polygon fill="#F3C132" points="406.5,177.3 513.6,42.1 520.6,48 407.3,177.8 		"/>
		<polygon fill="#F3C132" points="437.7,176.2 568,63.2 573.8,70.3 438.4,176.8 		"/>
		<polygon fill="#F3C132" points="444.3,193.6 584.7,93.4 589.8,101 444.9,194.3 		"/>
		<polygon fill="#F3C132" points="465.9,203.5 624.6,135.7 627.9,144.3 466.4,204.3 		"/>
		<polygon fill="#F3C132" points="503.4,215.2 673.2,184.7 674.6,193.8 503.7,216.1 		"/>
		<polygon fill="#F3C132" points="495.9,252.5 668.4,253.5 668.1,262.7 496,253.4 		"/>
		<polygon fill="#F3C132" points="491.4,277.7 658.9,318.7 656.5,327.5 491.2,278.7 		"/>
		<polygon fill="#F3C132" points="499.1,314 661,373.4 657.6,381.9 498.8,314.9 		"/>
		<polygon fill="#F3C132" points="498.9,360.1 647.9,447 643.1,454.8 498.5,361 		"/>
		<polygon fill="#F3C132" points="463.1,354.1 523.5,515.6 514.8,518.6 462.3,354.5 		"/>
		<polygon fill="#F3C132" points="445.2,377.4 461.7,549.1 452.6,549.7 444.3,377.6 		"/>
		<polygon fill="#F3C132" points="410.6,392.6 389.9,563.9 380.8,562.5 409.7,392.6 		"/>
		<polygon fill="#F3C132" points="377.2,401.5 301.1,556.3 293,552 376.4,401.2 		"/>
		<polygon fill="#F3C132" points="317.3,414 226.9,561 219.3,555.9 316.4,413.6 		"/>
		<polygon fill="#F3C132" points="263.1,414.7 148,543.3 141.4,537 262.3,414.2 		"/>
		<polygon fill="#F3C132" points="243.2,406 103.9,507.8 98.8,500.3 242.5,405.3 		"/>
		<polygon fill="#F3C132" points="221.2,395.9 69.6,478.4 65.5,470.2 220.6,395.2 		"/>
		<polygon fill="#F3C132" points="209.6,376.2 47.7,435.8 44.8,427.1 209.2,375.4 		"/>
		<polygon fill="#F3C132" points="193.4,348.8 25.6,389 23.7,380 193,348 		"/>
		<polygon fill="#F3C132" points="193.5,312.3 24.1,344.8 22.7,335.8 193.3,311.4 		"/>
		<polygon fill="#F3C132" points="189.3,300.2 17.1,291 17.8,281.9 189.3,299.3 		"/>
		<polygon fill="#F3C132" points="191.8,281.6 24.6,239.3 27.1,230.5 192,280.6 		"/>
		<polygon fill="#F3C132" points="193.5,260.8 35.3,192.1 39.2,183.8 193.8,259.9 		"/>
		<polygon fill="#F3C132" points="194.7,239.5 58.3,133.8 64.2,126.7 195.2,238.7 		"/>
		<polygon fill="#F3C132" points="183.2,199.9 63.9,75.3 70.7,69.1 183.8,199.2 		"/>
		<polygon fill="#F3C132" points="194.5,168.3 90.9,30.3 98.4,25.1 195.2,167.7 		"/>
		<polygon fill="#F3C132" points="271.8,182.3 209.8,21.3 218.4,18.3 272.6,181.9 		"/>
	</g>
	<g>
		<path fill="#C6A685" d="M507.4,413.6c0,0,22.2-9.2,25.6-7.4c3.4,1.8-0.7,13.2,1.5,16c2.2,2.7,41.2-0.6,41.2-0.6s1.8,35-6.6,50.6
			c-8.3,15.6-8.8,17.5-16,21.4c-7.2,3.9-30.3,8.5-30.3,8.5L480.2,488c0,0-26.8-27.6-23.7-35.3C459.7,445.1,507.4,413.6,507.4,413.6z
			"/>
		<path fill="#B59374" d="M532.5,478.2c-3.8,0.2-15.4-8.1-16.4-12.5c-0.9-4.4,5.5-5.5,1.9-9.7c-3.7-4.1-24.6-4.4-17.9-8.9
			c6.7-4.4,20.2-24,24.6-22.7c2.5,0.7,6.6-1,9.7-2.6c-1.2-2-0.1-7.1,0-11c-1.6-1.7-3.8-3.3-6.8-4.3c-7.7,1.8-20.3,7-20.3,7
			s-31.9,21.1-45.3,33c-0.8,2.3-1.4,4.2-1.7,5.5c-1.4,5.2,7.6,11.9,14.3,17.3c6.7,5.5,29.7,20.6,43.6,23.4c13.9,2.8,19.9,0,24.6-3.9
			c4.7-3.9,4.5-12.9,4.5-12.9S536.3,478.1,532.5,478.2z"/>
		<path fill="#D8B89A" d="M509.7,445.6c0.3-0.3,10.7-13.6,13.2-15.3c2.7-1.9,11.6-4.4,13.5-2.2c1.8,2.1,0.1,41.1-1,43.3
			s-12.5-4.1-13.6-6.2c-1.1-2.1,3.1-9.7,1.7-11.8C521.9,451.3,507.1,449,509.7,445.6z"/>
	</g>
	<g>
		<path fill="#E5CFAD" d="M647.8,422.2c0,0,2.8,23.3-16.2,35.3l-1.8-29.5L647.8,422.2z"/>
		<path fill="#D1B898" d="M631.6,456.9l0.6,0.2c4.7-3.1,8.1-6.9,10.4-10.9c-5.9-5.3-2.9-18.3-2.9-18.3s-7.6-2.7-9.5,0.9
			c-0.1,0.2-0.2,0.6-0.3,1L631.6,456.9z"/>
		<path fill="#F8E4CA" d="M641.5,430.9c0,0,2.8-1.1,3.9-0.7c1.1,0.4-0.5,9.7-2.5,11.4C640.9,443.2,639.6,431.5,641.5,430.9z"/>
	</g>
	<path fill="#724C3E" d="M536.3,687.7c0,0,3.9-295,4.9-368.5c1-73.4-4.9-184.7-4.9-184.7s60.1-28.5,92.1,3.3c0,0,9.8,87.5,9,122.9
		c0,0,19.1-25.7,21.2-41.9c0,0,14.5-2.6,20.7,5.6c0,0,3.1,50.5-42,87.9l-1.2,372.1C636.2,684.4,596,712.7,536.3,687.7z"/>
	<path fill="#8A5B4E" d="M564.2,442.6c0,0-2-60.6,0-114.1s-8-184.2-3.9-190.4c4.1-6.1,48-7.3,55.6,9.7c7.6,16.9,9.9,101.9,16,117.3
		c6.1,15.3,28.5-34.6,31.5-36.9s9.9,1.4,11.2,8.2c1.3,6.8-7.5,33.6-18.7,45.2c-11.2,11.6-24,22.7-26.1,29.9
		c-2.1,7.2,5.4,159.4-1,162C620.1,476.9,567.2,460.9,564.2,442.6z"/>
	<path fill="#5E3C31" d="M536.3,687.7c59.6,25.1,99.9-3.3,99.9-3.3l0-12.4c-20.1,9.2-58,17.9-74.3-4.7
		c-19.1-26.5-16.5-77.7-16.5-77.7l1.9-19.5c0,0,64.5-46.7,66.3-48.6c1-1,12.7-7,23-13.1l0.1-17.9c-14.8-3.3-36.2-7.2-47.1-11.6
		c-16.4-6.6-28.7-4.3-35-24.1c-6.2-19.8,5-91.7,0-152.1c-3.9-47.1-4.6-136.5-4.7-173.5c-8.4,2.7-13.7,5.3-13.7,5.3
		s5.8,111.3,4.9,184.7C540.2,392.6,536.3,687.7,536.3,687.7z"/>
	<path fill="#8A5B4E" d="M559,596.8c0.5-0.5,18.1-16.4,25.1-16.5c7-0.2,16.3,17.5,25.5,16.5c9.3-0.9,13.2-2.6,15.7,5.2
		c2.5,7.7,4.1,47.6,0,56.9s-36,13.3-52,2C557.4,649.6,548.8,607.5,559,596.8z"/>
	<path fill="#442921" d="M581.9,674c-0.2,9.1-0.6,17.3-1,24c1.1,0,2.2,0.1,3.2,0.1c0.4-6.7,0.8-14.9,1-23.9l0.3-11.6
		c0.9-31.9,2.5-91.1,2.1-116c-0.3-15.4-0.6-38.8-0.9-61.8c-0.3-19.5-0.5-38.7-0.8-52.8c-0.4-25.8-1.9-64.7-9.3-103.8
		c-6.5-34.1-16.3-130-8.4-160.3c4.7-18.1,8.1-34.6,10-44.7c-1.1,0.1-2.2,0.2-3.3,0.4c-1.9,10.1-5.2,26-9.8,43.5
		c-8,30.7,1.9,127.4,8.4,161.7c7.4,38.8,8.8,77.5,9.2,103.2c0.2,14,0.5,33.3,0.8,52.7c0.3,23.1,0.6,46.5,0.9,61.9
		c0.4,24.7-1.2,84-2.1,115.8L581.9,674z"/>
	<path fill="#442921" d="M613.8,132.8c0,0,11.9,58.3,11.4,95.3c-0.5,37-2.8,107.1-8.1,130.4c-5.3,23.3-13.2,129.3-11.5,178.7
		c1.7,49.4-9.2,151.4-9.2,151.4s0.7-35.8,2.9-85.4c2.2-49.7-0.2-165.1,8.6-231.9c8.8-66.8,12.3-109,13.8-143.1
		S613.8,132.8,613.8,132.8z"/>
	<path fill="#442921" d="M597.7,290.6c0,0-4.5-110.6-15.2-114c-10.7-3.4,0.8,163.5,11.2,163.7c10.3,0.2,17.5-57.9,17-94.6
		c-0.5-36.6-12.2-101.4-16.2-112.9c0,0,8.6,12.5,16.2,69.5s1,136.3-15.3,142.5c-16.3,6.2-25.8-164.8-17.2-172.7
		C590.9,160.6,605.1,216.1,597.7,290.6z"/>
	<path fill="#442921" d="M669.9,228.1c0,0-17.5,37.1-22.4,58.3c0,0,14.8-23.6,19.7-36c0,0-10,33.8-25.4,46.2
		C641.8,296.6,649.8,256.1,669.9,228.1z"/>
	<path fill="#442921" d="M625.2,376.3c0,0,7-78.5,8.1-106.5C633.3,269.8,638.6,332.3,625.2,376.3z"/>
	<path fill="#442921" d="M609.7,684.4c0.2,0.9-1-57.8,8.2-73.1c0,0,4.3,46.7,3.4,73.1l4.1-1.6c0,0-2.3-47.9-4.4-71.5
		c-2.2-23.6-0.6-99,0-107.2s3.3-97.9,3.3-97.9s-3.1,32.4-7.7,99.6c-4.6,67.2-0.1,85.6-1.6,97C613.4,614.2,603.2,652.1,609.7,684.4z"
		/>
	<path fill="#442921" d="M570,558.6c-0.3-15.9-0.2-147.8-4.3-167.5c0,0-1.5,75.7-0.1,113.3c1.3,32.4-0.7,129.9-0.7,129.9l-0.8,61.9
		c1.9,0.3,3.7,0.6,5.5,0.9c-0.4-15.6-1.3-46.8-1.6-66.1C567.7,604.3,570.3,574.5,570,558.6z"/>
	<path fill="#442921" d="M549.7,692.5c2.1,0.7,4.2,1.2,6.3,1.8c0.5-15.2,1.5-48.2,1.7-57.9c0.3-12.6,2-59.2,2-59.2s-1.3,11-3.9,39.6
		C553.8,638.2,551,675.2,549.7,692.5z"/>
	<path fill="#442921" d="M559.7,126.4c-1.2,0.3-2.3,0.6-3.4,0.9c-1.2,8.5-2.7,18.1-3.8,23.4c-1.2,6.1-0.2,34.5,1,67.4
		c1,28.8,2.1,58.7,1.6,74.2c-2.4,76.9-6.6,89.5-8.1,91.5c-2.3-1.8-4.6-9.8-6.4-18.8c-0.1,4.1-0.1,8.3-0.2,12.6
		c1.5,4.6,3.3,8.1,5.4,9.2c0.4,0.2,0.8,0.3,1.2,0.3c0.5,0,0.9-0.1,1.3-0.4c1.9-1.1,7.1-4.2,9.9-94.4c0.5-15.6-0.6-45.5-1.6-74.4
		c-1.1-31.4-2.2-61-1-66.7C556.8,145.7,558.4,135.3,559.7,126.4z"/>
	<g>
		<path fill="#E5CFAD" d="M644.9,551.4c0,0-1-12.1-10.9-12.2s-35.1,28.8-34.8,33.9c0.3,5.1,22.8-4.2,22.8-4.2s-15.7,14-14.9,17.7
			c0.8,3.7,18.2,1.6,33.8-6.2C656.6,572.6,644.9,551.4,644.9,551.4z"/>
		<path fill="#D1B898" d="M614.4,585.2c-4.7-1.5-2.8-5.2-2.8-5.2s25.4-14.1,36.5-20.2c-1.3-4.8-3.2-8.4-3.2-8.4s-0.2-2.3-1.2-4.9
			c-3.8,0.2-8.6,1.3-13.7,4.3c-12.3,7.1-21.3,19.5-24.6,21.2c-1.8,1-3.9-0.1-5.5-1.2c-0.4,0.9-0.7,1.7-0.6,2.2
			c0.3,5.1,22.8-4.2,22.8-4.2s-15.7,14-14.9,17.7c0.8,3.7,18.2,1.6,33.8-6.2c2.4-1.2,4.2-2.7,5.4-4.5
			C636.2,581.9,618.4,586.4,614.4,585.2z"/>
		<g>
			<path fill="#E5CFAD" d="M606.4,575.1c0,0,26-28.8,36.1-26.6c10.1,2.2,6.6,16.7-8.5,25C618.9,581.7,592.5,592.2,606.4,575.1z"/>
			<path fill="#D1B898" d="M636,569.7c-12.7,7-33.6,15.5-31.4,7.7c-9.7,13.8,15,4,29.4-3.9c7-3.8,11.5-9,13.3-13.7
				C644.9,563.4,641.1,566.9,636,569.7z"/>
			<path fill="#F8E4CA" d="M611.9,573c0,0,22.3-21.9,28.8-21.6c6.5,0.2,6.2,10.3-6.7,16.9C621.1,574.8,603.3,581.9,611.9,573z"/>
		</g>
		<path fill="#F8E4CA" d="M617.3,583c0,0,5.3-2.1,13.6-6.1c8.3-4,13.8-8.6,15.3-10.8c1.4-2.2,1.1,3.7-1,7.8
			c-2.1,4.1-21.1,9.5-25.1,9.8C616,584.2,616,583.5,617.3,583z"/>
		<path fill="#F8E4CA" d="M606.6,568.6c0,0,8.7-8.8,14.6-14.4c6-5.5,17.5-8.6,18.1-9.2s-3.9-5.6-9.5-3.3
			c-5.7,2.2-24.4,22.2-26.1,25.5C602,570.4,604.2,571,606.6,568.6z"/>
	</g>
	<path fill="#E5CFAD" d="M599.9,498.1c0,0,33.5,0.9,36.7,4.2c3.2,3.2-12,12.2-12,12.2s13.8-2.9,17,0.8c3.3,3.7-30.6,22-30.6,22
		L599.9,498.1z"/>
	<path fill="#D1B898" d="M611.1,537.2c0,0,31.1-16.8,30.8-21.5c-5.2,6.1-23.5,15.8-24.8,14.9c-1.4-0.9-2.2-8-2.2-8
		s11.1-5.5,18.5-9.2c-4.4,0.1-8.8,1.1-8.8,1.1s10-5.9,12.1-9.8c-6.3,0.4-24.8,1.5-26.3,0.4c-1.2-0.9-2.5-4.3-3.3-6.6
		c-4.2-0.2-7.2-0.3-7.2-0.3L611.1,537.2z"/>
	<path fill="#E5CFAD" d="M602.8,510.8c0,0,34.4-7.4,39.6-4.1c5.3,3.3-37.8,25.5-37.8,25.5L602.8,510.8z"/>
	<path fill="#D1B898" d="M642.1,509c-8.4,4.2-22.5,10.8-25.6,10c-3-0.8-4.9-6.1-5.8-9.8c-4.6,0.9-7.8,1.6-7.8,1.6l1.8,21.4
		C604.6,532.2,636.6,515.7,642.1,509z"/>
	<path fill="#F8E4CA" d="M615.9,510.1c0,0,22-3.5,23.6-2.7c1.6,0.9-17.6,8.7-20.3,8.3C616.5,515.5,613.3,510.5,615.9,510.1z"/>
	<path fill="#F8E4CA" d="M618.7,526.3c0,0,16.8-10.1,18.1-11.2c1.3-1,2.8-0.3,2.8,1c0,1.2-15,11.1-18.7,11.9
		C617.2,528.9,617.4,527.1,618.7,526.3z"/>
	<path fill="#F8E4CA" d="M611.2,500c0,0,22.6,1.7,23.5,2.3c0.9,0.5,0.5,1-0.2,1.4c-0.6,0.3-21.3,0.8-22.6,0
		C610.7,502.9,609.7,499.9,611.2,500z"/>
	<path fill="#C6A685" d="M478.3,446.6c0,0,34.1,9.1,35.8,11.6c1.7,2.5-8.8,8.6-8.8,8.6s21.1,11.8,25,18.1c0,0,5.3-4.5,18.1-5.6
		s20.4,0.1,21.5,1.4c1.2,1.3-5.6,10.4-5.6,10.4s32-1,37.3,5.3c5.3,6.4,13.6,35.6,11.7,40.5c-2,5-12.8,13-12.8,13s9,5.4,9.3,9
		c0.2,3.6-33.8,15.9-48.4,15.1c0,0,6.2,3,6.6,6c0.4,3-22.5,9.5-22.5,9.5s2.9,3.5,1.5,8.1s-30.9,20.7-41.9,22.5c0,0,8,1,9.6,4.4
		c1.6,3.4-18.3,16.8-47.4,16.8c-28.3,0-33.8-10.4-33.8-10.4s3.1,7.2,0,10.4c-3.8,4-40.2-9.2-58.6-31.8c0,0-1.2,4.6-5.6,6.5
		c-4.4,1.9-13-18.3-13-18.3s-2.3,4.5-7.6,3.2c-5.3-1.3-9.1-27.6-8.6-35.7c0,0-12.1,3.7-24.9-8.2c-12.8-11.8-12.1-68.6-5.9-77.3
		c6.1-8.7,138.7-65.3,146.8-63.7S478.3,446.6,478.3,446.6z"/>
	<path fill="#B59374" d="M470.1,504.3c4,0.7,2.1,6.2,6.1,6.3c4,0.1,26.1-13.8,30.5-12.5c4.4,1.3,5,6.6,8.3,8.5
		c3.3,1.9,21-10.7,49.4-15.6c0,0,6.7-9.1,5.6-10.4c-1-1.2-7.4-2.2-18.1-1.6c-8.4,2.9-17.2,6.2-21.4,8.6c-9.1,5.1-10.1,4.8-11.7,0.2
		c-1.6-4.6-19.1,0.3-23.4,3c-4.3,2.6-12.7,9-15.6,7.8c-2.9-1.2-2.3-8.6-7.6-7.2c-5.4,1.4-33.4,32.1-39.8,43.1
		C432.4,534.5,466.1,503.6,470.1,504.3z"/>
	<path fill="#B59374" d="M498.1,620.1c1.8,4.3,12,7-8.4,11.2c-20.4,4.2-41,0.4-51.1-4.5c-10.1-4.9-8.6,7-16.2,4
		c-7.6-3-43.2-30.5-49.9-28.2c-6.7,2.3-8.8-5.1-10.9-11.6c-2.1-6.4-5.9-2.2-9.2-5.7c-3.3-3.5-1.5-24.6-9.1-28.4
		c-7.6-3.8-6.1-10.1-8.6-20.1c-2.5-10.1-3.8-19.5,0-25.9c3.8-6.3,1.4-10.3,7.1-16.2c5.8-5.9,15.8-15.9,15.8-15.9s-3.5-10.9-10-19.5
		c-20.5,9.5-36.3,17.5-38.3,20.4c-6.1,8.7-6.8,65.4,5.9,77.3c12.8,11.8,24.9,8.2,24.9,8.2c-0.6,8.1,3.2,34.4,8.6,35.7
		c5.3,1.3,7.6-3.2,7.6-3.2s8.6,20.1,13,18.3c4.4-1.9,5.6-6.5,5.6-6.5c18.4,22.6,54.8,35.8,58.6,31.8c3.1-3.2,0-10.4,0-10.4
		s5.5,10.4,33.8,10.4c29.1,0,49-13.4,47.4-16.8c-1.6-3.4-9.6-4.4-9.6-4.4c11-1.7,40.5-17.8,41.9-22.5c1.4-4.6-1.5-8.1-1.5-8.1
		C546.6,604,496.3,615.8,498.1,620.1z"/>
	<path fill="#A68162" d="M520.4,482.4c-2.8-1-24.7,0.7-38.6,14.3c0,0-2.3-9.8-8.2-8.6c-5.8,1.1-38.9,36.3-41.2,46.4
		c0,0,28.3-31.3,34.2-36.9c5.9-5.6,9.4-4.9,10.9,1.7c1.5,6.7,10-2.3,19.7-6.5c9.7-4.2,18.1-6.4,19.4-2.9c1.3,3.5,0.8,5.3,3.3,6
		c2.5,0.7,26-18.9,50.1-15.2c-1.2-1.3-8.8-2.4-21.5-1.4c-12.7,1-18.1,5.6-18.1,5.6l-10,5.4C520.4,490.3,523.2,483.4,520.4,482.4z"/>
	<path fill="#D8B89A" d="M366.4,489.6c0,0,34.2-2.1,60.8-8.7c27-6.7,53.2-22.3,58.4-23.2c5.2-0.9,13.6,1,14,3.1
		c0.4,2.1-2.3,3.6-2.2,5.9c0.1,2.3,13.7,7,12.7,9.7c-1,2.7-13,2.6-21,7.4c-8.1,4.8-8.6-4.5-22.6,1.6c-13.9,6-47.7,44.7-47.6,56.2
		c0.1,11.5,42.8-23.9,50.2-24.3c7.4-0.4,16.8-1.3,30.5-4.7c13.7-3.3,10.3,4,21.8,1.8c11.6-2.2,35.9-15.9,54-15.8
		c18.1,0.1,19.4,3.9,23,13.8c3.6,9.9,6.8,19.3,2,25c-4.8,5.7-15.3,10.1-12.5,14.3c2.8,4.1,13.9,3.2,10.9,6
		c-3,2.8-33.1,10.3-41.9,11.1c-8.8,0.9-0.7,6-3.8,8.5c-3.1,2.5-15.4,6.4-17.2,8.9c-1.8,2.6-22.9,16.5-37.5,18.9
		c-14.6,2.5-7,11.4-10.7,14.3c-3.7,2.9-33.8,1.6-47-4.2c-13.3-5.8-12.8,2.7-21.4-0.2c-8.6-2.9-25.8-21.5-31.9-23
		c-6.2-1.4-13.4-0.6-14.9-6c-1.5-5.5-7.9-13-9.8-16.1s-7.7-18.1-10.3-32.1C349.9,523.7,351.4,492.2,366.4,489.6z"/>
	<g>
		<path fill="#E5CFAD" d="M643.5,398.2c0,0-3.3-13.3-7.3-14.2c-4-0.9-37.2,25.3-36.6,29.2c0.5,4,23.4-1.7,23.4-1.7s-1.4,8.8-1.5,8.9
			s-10.2,7.7-9.2,12c0.9,4.3,35.9-4.2,38-6.7c2.1-2.5-2.6-15-2.6-15L643.5,398.2z"/>
		<g>
			<g>
				<path fill="#D1B898" d="M617.3,430.4c-1.5-0.8-2.3-2-2.8-3.3c-1.5,1.8-2.5,3.8-2.2,5.3c0.9,4.3,35.9-4.2,38-6.7
					c0.4-0.4,0.5-1.1,0.6-2C640.7,426.6,620.9,432.3,617.3,430.4z"/>
				<path fill="#D1B898" d="M623.1,411.4c0,0-0.6,3.7-1,6.4c7.7-2.9,19.2-7.3,24.9-9.5l-3.5-10.1c0,0-0.4-1.6-1.1-3.8
					c-7.7,4.2-34.1,18.5-37.6,17.5c-1.4-0.4-2.3-1.3-3-2.2c-1.5,1.6-2.3,2.9-2.2,3.5C600.2,417.1,623.1,411.4,623.1,411.4z"/>
			</g>
		</g>
		<g>
			<path fill="#E5CFAD" d="M601.5,419c0,0,37-22.3,43.2-22.8c6.2-0.5,9.2,9.9,6.7,15c-2.5,5.1-43.9,17.9-49.9,16.7
				C595.5,426.7,597.2,421.6,601.5,419z"/>
			<path fill="#D1B898" d="M603.6,424.7c-3.3-0.7-4.2-2.5-3.7-4.5c-3,2.7-3.6,6.7,1.6,7.7c6,1.2,47.4-11.6,49.9-16.7
				c0.2-0.5,0.4-1.1,0.6-1.7C643.9,415.3,609,425.8,603.6,424.7z"/>
			<path fill="#F8E4CA" d="M606.7,418.8c0,0,35.2-20,37.6-19.5c2.4,0.5,4.7,4.5,2.8,8.6c-1.9,4.1-34.3,14-39.1,14
				C603.1,422,604.9,419.8,606.7,418.8z"/>
		</g>
		<path fill="#F8E4CA" d="M620.1,426.2c0,0,25-9.1,26.1-9.1s2.4,4.1,1.6,5.2c-0.8,1-22.5,6.5-26.1,6.7
			C618,429.1,617.3,427.2,620.1,426.2z"/>
		<path fill="#F8E4CA" d="M605.6,408c0,0,27.1-21.2,29.1-21.4s4.2,4.7,4.1,6.4s-23.4,13.6-28.3,15.3
			C605.5,410,603.6,409.5,605.6,408z"/>
	</g>
	<g>
		<path fill="#DB1F26" d="M115.4,200.9c0,0,23.1,6.1,43.5-4.2c20.4-10.3,21.1-38.8,21.1-38.8s26.7,27.9,69.3,17.6l6.9,17.2
			L243.9,237l-42.2,60.8c0,0-39.7-6.3-53.6,5.3c0,0-3.9-38.5-44.8-36.5C103.3,266.7,128.5,236.8,115.4,200.9z"/>
		<path fill="#C32026" d="M192.5,289.2c-12.4-4.1-38.6,0-38.6,0c-7.1-22.3-31.6-32.3-31.6-32.3c7.4-21.7,5.1-42.6,2.6-54.5
			c-5.8-0.5-9.5-1.5-9.5-1.5c13.1,36-12.2,65.8-12.2,65.8c40.9-2,44.8,36.5,44.8,36.5c10.5-8.8,35.5-7.4,47.3-6.1
			C197.7,293.8,197.5,290.8,192.5,289.2z"/>
		<path fill="#EF3834" d="M139.7,210.9c0,0,16.1-3.1,30.2-11.1c14.1-8,15.7-27,15.7-27s14.6,16.4,42.6,18.1c0,0-49.1,29.5-51.2,41.9
			c-2.1,12.4,17.8,12.4,17.8,12.4s-19.3,25.3-21.2,33.3l-13.9,1.3c0,0-9.4-19.1-23.9-26.1C135.9,253.7,142.3,231.1,139.7,210.9z"/>
		<g>
			<path fill="#FFDD4E" d="M155.9,224.4l24.5,34.9l-11.5,9.5L140.6,237L155.9,224.4z M188.7,268.5c0.8,0.9,1.3,1.9,1.6,3
				c0.3,1.1,0.4,2.2,0.3,3.2c-0.1,1.1-0.4,2.1-0.9,3.1c-0.5,1-1.2,1.9-2.1,2.6c-0.9,0.8-1.9,1.3-3,1.6c-1.1,0.3-2.1,0.4-3.2,0.3
				c-1.1-0.1-2.1-0.4-3.1-0.9s-1.9-1.2-2.6-2.1c-0.7-0.9-1.3-1.9-1.6-3c-0.3-1.1-0.4-2.2-0.3-3.3c0.1-1.1,0.4-2.1,0.9-3.1
				c0.5-1,1.2-1.9,2.1-2.6c0.9-0.7,1.9-1.3,3-1.6s2.2-0.4,3.2-0.3c1.1,0.1,2.1,0.4,3.2,0.9C187.1,266.9,188,267.6,188.7,268.5z"/>
			<path fill="#FEBF3E" d="M188.8,277.2c-0.9,0.8-1.9,1.3-3,1.6c-1.1,0.3-2.1,0.4-3.2,0.3c-1.1-0.1-2.1-0.4-3.1-0.9
				c-1-0.5-1.9-1.2-2.6-2.1c-0.7-0.9-1.3-1.9-1.6-3c-0.3-1.1-0.4-2.2-0.3-3.3c0-0.2,0.1-0.4,0.1-0.6c-0.1,0.2-0.3,0.5-0.4,0.7
				c-0.5,1-0.8,2-0.9,3.1c-0.1,1.1,0,2.2,0.3,3.3c0.3,1.1,0.9,2.1,1.6,3c0.8,0.9,1.6,1.6,2.6,2.1c1,0.5,2,0.8,3.1,0.9
				c1.1,0.1,2.2,0,3.2-0.3c1.1-0.3,2.1-0.8,3-1.6c0.9-0.7,1.6-1.6,2.1-2.6c0.4-0.8,0.7-1.7,0.8-2.6
				C190.1,276,189.5,276.7,188.8,277.2z"/>
			
				<ellipse transform="matrix(0.9785 0.2061 -0.2061 0.9785 59.8279 -31.8892)" fill="#FEE984" cx="183" cy="271.3" rx="6.2" ry="4.2"/>
			<path fill="#FEBF3E" d="M180.3,259.3l-1.6-2.2c-3.4,2.4-8.5,5.6-10.1,4.9c-2-0.8-18-19.1-25.2-27.4l-2.9,2.4l28.2,31.8
				L180.3,259.3z"/>
			<path fill="#FEE984" d="M148.3,233.8c0,0,5.7-5.1,7-4.4c1.4,0.6,19.6,25.3,19.6,26.4c0,1.1-4.1,3.6-5.2,3.3
				C167.5,258.4,146.6,236.4,148.3,233.8z"/>
			<path fill="#FFDD4E" d="M179.9,194l24.7,45.8l-15.3,9.9l-29.7-42.6L179.9,194z M213.4,252.2c0.8,1.2,1.3,2.5,1.5,3.9
				c0.2,1.4,0.2,2.7-0.1,4c-0.3,1.3-0.8,2.5-1.6,3.6c-0.8,1.1-1.7,2.1-2.9,2.8c-1.2,0.8-2.5,1.3-3.8,1.5c-1.3,0.2-2.7,0.2-4-0.1
				c-1.3-0.3-2.5-0.8-3.6-1.6c-1.1-0.8-2.1-1.7-2.9-3c-0.8-1.2-1.3-2.5-1.5-3.8s-0.2-2.7,0.1-4c0.3-1.3,0.8-2.5,1.5-3.7
				c0.7-1.1,1.7-2.1,2.9-2.9c1.2-0.8,2.5-1.3,3.8-1.5c1.4-0.2,2.7-0.2,4,0.1c1.3,0.3,2.5,0.8,3.7,1.6
				C211.7,250,212.7,251,213.4,252.2z"/>
			<path fill="#FEBF3E" d="M212.3,262.8c-1.2,0.8-2.5,1.3-3.8,1.5c-1.3,0.2-2.7,0.2-4-0.1c-1.3-0.3-2.5-0.8-3.6-1.6
				c-1.1-0.8-2.1-1.7-2.9-3c-0.8-1.2-1.3-2.5-1.5-3.8c-0.2-1.4-0.2-2.7,0.1-4c0.1-0.3,0.1-0.5,0.2-0.8c-0.2,0.3-0.4,0.5-0.6,0.8
				c-0.7,1.1-1.3,2.4-1.5,3.7c-0.3,1.3-0.3,2.6-0.1,4c0.2,1.4,0.7,2.7,1.5,3.8c0.8,1.2,1.7,2.2,2.9,3c1.1,0.8,2.3,1.3,3.6,1.6
				c1.3,0.3,2.6,0.3,4,0.1c1.3-0.2,2.6-0.7,3.8-1.5c1.2-0.8,2.2-1.7,2.9-2.8c0.6-0.9,1.1-1.9,1.4-3
				C214,261.5,213.2,262.2,212.3,262.8z"/>
			
				<ellipse transform="matrix(0.9478 0.3188 -0.3188 0.9478 91.9485 -52.4124)" fill="#FEE984" cx="206.1" cy="254.7" rx="7.6" ry="5.1"/>
			<path fill="#FEBF3E" d="M204.6,239.8l-1.6-2.9c-4.5,2.4-11,5.6-13,4.5c-2.3-1.2-19.1-25.7-26.6-36.8l-3.8,2.5l29.7,42.6
				L204.6,239.8z"/>
			<path fill="#FEE984" d="M169.3,204.4c0,0,7.6-5.4,9.2-4.4c1.6,1,20.1,33.5,20,34.8c-0.2,1.3-5.5,3.8-6.8,3.2
				C189.2,236.9,166.9,207.3,169.3,204.4z"/>
			<path fill="#FFDD4E" d="M212.2,190.1l16,40.3l-13.6,6.7l-20.4-38.1L212.2,190.1z M234.3,241.4c0.5,1.1,0.8,2.2,0.9,3.3
				c0,1.1-0.1,2.2-0.5,3.3c-0.4,1-0.9,2-1.6,2.9c-0.7,0.9-1.6,1.6-2.7,2.1c-1.1,0.5-2.2,0.8-3.3,0.9c-1.1,0.1-2.2-0.1-3.3-0.5
				c-1-0.4-2-0.9-2.9-1.6c-0.9-0.7-1.6-1.6-2.1-2.7c-0.5-1.1-0.8-2.2-0.9-3.3c-0.1-1.2,0.1-2.3,0.4-3.3c0.4-1,0.9-2,1.6-2.9
				c0.7-0.9,1.6-1.6,2.7-2.1c1.1-0.5,2.2-0.8,3.3-0.8c1.1,0,2.2,0.1,3.3,0.5c1,0.4,2,0.9,2.9,1.7S233.8,240.4,234.3,241.4z"/>
			<path fill="#FEBF3E" d="M232.3,250.1c-1.1,0.5-2.2,0.8-3.3,0.9c-1.1,0.1-2.2-0.1-3.3-0.5c-1-0.4-2-0.9-2.9-1.6
				c-0.9-0.7-1.6-1.6-2.1-2.7c-0.5-1.1-0.8-2.2-0.9-3.3c-0.1-1.2,0.1-2.3,0.4-3.3c0.1-0.2,0.1-0.4,0.2-0.6c-0.2,0.2-0.4,0.4-0.6,0.6
				c-0.7,0.9-1.3,1.8-1.6,2.9c-0.4,1-0.5,2.1-0.4,3.3c0.1,1.2,0.4,2.3,0.9,3.3c0.5,1.1,1.2,2,2.1,2.7c0.9,0.7,1.8,1.3,2.9,1.6
				c1,0.4,2.1,0.5,3.3,0.5c1.1-0.1,2.2-0.3,3.3-0.9c1.1-0.5,2-1.2,2.7-2.1c0.6-0.7,1.1-1.5,1.4-2.3
				C233.8,249.2,233.1,249.7,232.3,250.1z"/>
			
				<ellipse transform="matrix(0.9041 0.4274 -0.4274 0.9041 125.6396 -74.1411)" fill="#FEE984" cx="228" cy="242.8" rx="6.3" ry="4.2"/>
			<path fill="#FEBF3E" d="M228.1,230.3l-1-2.6c-4,1.6-9.7,3.5-11.2,2.5c-1.8-1.2-13.3-23.1-18.4-33l-3.4,1.7l20.4,38.1L228.1,230.3
				z"/>
			<path fill="#FEE984" d="M202.5,197.6c0,0,6.8-3.7,8-2.7c1.2,1,13.4,29.6,13.1,30.7c-0.3,1.1-4.9,2.6-5.9,2
				C215.7,226.5,200.2,199.8,202.5,197.6z"/>
		</g>
	</g>
	<g>
		<g>
			<path fill="#C6A685" d="M329.5,148.2c0,0,21-30.8,26.3-31.8s2.4,21.3,2.4,21.3s27.5-18.4,32.5-16.7c5,1.7-9.1,22.2-9.1,22.2
				s25.8-3,61.2,4.5c35.4,7.5,58.7,29.6,58.3,33c-0.4,3.3-6,4.1-6,4.1s28.8,14.1,47.1,37.3s3.8,23.2-2.2,22.5c0,0,32.7,49.8,33,63.1
				c0.2,13.3-15.3,4.1-15.3,4.1s3.3,23.9,0,50.9c-3.3,27-14.8,16.2-14.8,16.2s0.4,18-4.5,32.3c-4.9,14.2-13.7,10-15.8,4.8
				c0,0-24.6,39.8-44.2,30.8c0,0-15.9,14.6-86.6,24.4c-70.7,9.8-156.5-11.7-171.2-30.7c0,0-1.7,6.7-8.2,6.7
				c-6.5,0-19.7-50.3-19.7-50.3s-1.2,10.3-9.6,10.1c-8.4-0.2-7.4-47.5-1-69c0,0-7.9,7.7-12.5,6.7c-4.6-1-6-59.5,38.4-105.5
				c0,0-15.8,1.4-17.3-3.8c-1.4-5.3,24-30.7,57.5-45.6c0,0-21.6-2.2-21.6-7.2c0-5,31.6-25.9,70-24.5c0,0-20.4-6.2-20.1-12.9
				C276.9,138.3,310.2,136.8,329.5,148.2z"/>
			<path fill="#B59374" d="M321.3,461.7c-79-9.8-91.6-33-101.4-33.3c-9.8-0.3-16.4-23.1-19.9-35.9c-3.5-12.9-6.4-5.3-8.5-13.4
				c-2-8.2,0.7-36.7-0.3-48.2c-1-11.5-13.3,4.2-10.2-15.2c3.1-19.4,41.3-72.6,42.6-79.5c1.3-6.9-10.4-8.2-4.7-15.8
				c5.7-7.6,43.8-28.6,44.4-33.3c0.6-4.7-12.4-6.7-7-12s53.3-13.3,53.5-15.5c0.1-2.2-14.6-10.2-10.2-12.9c4.4-2.6,29.9,1.4,29.9,1.4
				c-19.3-11.4-52.6-9.9-52.8-3.2c-0.2,6.7,20.1,12.9,20.1,12.9c-38.4-1.4-70,19.4-70,24.5c0,5,21.6,7.2,21.6,7.2
				c-33.6,14.9-59,40.3-57.5,45.6c1.4,5.3,17.3,3.8,17.3,3.8c-44.4,46-42.9,104.5-38.4,105.5c4.6,1,12.5-6.7,12.5-6.7
				c-6.5,21.6-7.4,68.8,1,69c8.4,0.2,9.6-10.1,9.6-10.1s13.2,50.3,19.7,50.3c6.5,0,8.2-6.7,8.2-6.7c14.6,18.9,100.5,40.5,171.2,30.7
				c70.7-9.8,86.6-24.4,86.6-24.4C468.2,450.5,400.3,471.5,321.3,461.7z"/>
			<path fill="#D8B89A" d="M335.8,156.1c0,0,8.2-16.6,10.6-16.3c2.4,0.3,1.5,5.9,3.5,8.1c2,2.2,24-13.3,26.3-11.5
				c2.3,1.8-8.2,10.2-5.9,14.3c2.3,4.1,33.8-0.6,65,5.3s49.5,17,45.8,23.3c-3.7,6.3-10,4.7-11,8.2c-1,3.5,47.6,22.1,59.7,36.4
				c12.1,14.3-0.6,12.3-3.3,14.3c-2.7,2,31.7,51.7,32.3,59.3c0.6,7.6-11.7,1.4-11.4,7c0.2,5.5,3.5,48,0.4,57c-3.1,9-12,4.6-12.1,9.2
				c-0.2,4.5-3.4,32.9-6.3,35.3c-2.9,2.4-4.5-8.9-8.6-4.5c-4.1,4.4-18.8,23.4-26.2,28.5c-7.4,5.1-54.9,24.4-135.2,26.1
				c-80.3,1.7-114.8-38.2-119.7-39.2c-4.9-1-17.2-3.5-21.1-7c-3.9-3.5-10.8-32.2-13.5-36.7c-2.7-4.6-3.7-39.6-4.9-48.7
				c-1.2-9-3.2-19.5,8.5-38.5c11.7-19,29.7-42.2,31-50.4c1.2-8.1,0.4-15.9,14.9-26.9c14.5-11,31.3-24.5,30.7-27.8
				c-0.6-3.3,33.1-12.9,37.7-15.1c4.6-2.2-6-7.8-3.7-10.2C321.6,153.2,333.1,161.3,335.8,156.1z"/>
		</g>
		<g>
			<path fill="#F7E8D6" d="M359.6,254.5c0,0,21.9-39.9,64.2-43.2c48.4-3.8,114.9,17.7,120.7,106.9c5.8,89.1-81.1,124.9-145.1,134
				c-63.9,9.1-173.6,9.7-188.8-83C195.4,276.4,272.4,210.2,359.6,254.5z"/>
			<path fill="#F2DCC3" d="M359.6,254.5c-87.2-44.3-164.2,21.9-148.9,114.6c15.2,92.7,124.9,92.2,188.8,83
				c36.6-5.2,80.7-19.1,110.6-46.8c-35.1,13.1-89.4,28.7-144.9,25.8c-93.7-4.8-140.6-45.4-120.2-114.4
				C265.5,247.8,359.6,254.5,359.6,254.5z"/>
			<path fill="#FFF4EA" d="M378.1,270.5c0,0,45.2-45.9,91.7-32.3c46.5,13.6,57.2,92.4,31.7,133.1C476,412,308.7,426.9,272.8,359.7
				S325.8,263.8,378.1,270.5z"/>
		</g>
		<g>
			<g>
				<g>
					<path fill="#7F715A" d="M464.7,343.9c27.7,6.8,52.9,30.7,62.9,41.2c12-17.9,18.7-40,16.9-66.9c-0.7-10.1-2.1-19.3-4.2-27.7
						c-42.2-22-73.9-19.3-92.1-7.1C421.7,301.2,428.8,335.2,464.7,343.9z"/>
				</g>
				<g>
					<path fill="#7F715A" d="M297.5,451.5c6.5-34.5,30.4-63.1,39.8-83.1c10.9-23.4-3.2-52.6-46.2-46.2
						c-28.6,4.2-60.1,36.9-77.9,58.3C224.7,423.3,258.8,443.4,297.5,451.5z"/>
				</g>
				<path fill="#6E604E" d="M451.2,316.5c-6.2-11.6-5.9-23.2-3.4-32.8c-26,17.9-18.7,51.5,16.9,60.2c27.7,6.8,52.9,30.7,62.9,41.2
					c3-4.5,5.7-9.4,8.1-14.4C510.4,339.8,463.3,338.9,451.2,316.5z"/>
				<path fill="#6E604E" d="M337.2,368.4c3.6-7.8,4.5-16.2,2.4-23.7c-19.8,24.2-39.1,83.2-65,77c-20.1-4.8-42.2-33.2-53.9-50.1
					c-2.8,3.1-5.4,6.1-7.7,8.9c11.6,42.8,45.7,62.9,84.4,70.9C304,417,327.9,388.4,337.2,368.4z"/>
				<g>
					<path fill="#8F7E69" d="M241.7,366.1c0,0,28.4-31.9,48.5-35.3s37.1,5.1,36.9,14.8s-27.7,53.8-42.9,60.2
						C269,412.1,230.5,377.4,241.7,366.1z"/>
				</g>
				<path fill="#8F7E69" d="M530.3,295.2c0,0-41.2-17.9-64.2-6.8c-23,11,3.1,33.7,19.1,38.4c15.9,4.7,41.2,17.1,45.7,20.1
					C535.5,349.9,542.2,300.4,530.3,295.2z"/>
			</g>
		</g>
		<g>
			
				<ellipse transform="matrix(0.9859 -0.1675 0.1675 0.9859 -58.2979 71.8279)" fill="#700F11" cx="396.7" cy="381.6" rx="17.4" ry="21.5"/>
			<path fill="#56100F" d="M404.1,395.3c-9.5,1.6-18.8-6.6-20.7-18.3c-0.7-3.9-0.4-7.6,0.5-11c-3.7,4.6-5.4,11.4-4.2,18.5
				c2,11.7,11.3,19.9,20.7,18.3c6.4-1.1,11.2-6.3,13.1-13.2C411,392.6,407.8,394.6,404.1,395.3z"/>
			
				<ellipse transform="matrix(0.9026 -0.4306 0.4306 0.9026 -123.553 208.8023)" fill="#89171A" cx="399.5" cy="377.4" rx="10.2" ry="14.8"/>
		</g>
		<g>
			<circle fill="#FFFFFF" cx="464.1" cy="309.8" r="21.6"/>
			<circle fill="#010101" cx="464.1" cy="309.8" r="14.8"/>
		</g>
		<ellipse fill="#F9B7B8" cx="502.8" cy="327.4" rx="9.9" ry="8.7"/>
		<g>
			<circle fill="#FFFFFF" cx="297.7" cy="361.5" r="21.6"/>
			<circle fill="#010101" cx="297.7" cy="361.5" r="14.8"/>
		</g>
		
			<ellipse transform="matrix(0.9885 -0.1513 0.1513 0.9885 -56.2288 45.2214)" fill="#F9B7B8" cx="269" cy="392.1" rx="9.9" ry="8.7"/>
		<g>
			<path fill="#3E1421" d="M407.5,342.4c1.3,5.5-6.9,12-18.3,14.6s-21.5,0.2-22.8-5.3c-1.3-5.5,5.6-17.9,16.9-20.5
				C394.7,328.7,406.2,336.9,407.5,342.4z"/>
			<path fill="#4C172A" d="M404.4,341.9c0.5,3.7-6.1,7.7-14.7,8.9c-8.7,1.2-16.1-0.8-16.6-4.6c-0.5-3.7,5.5-11.7,14.2-12.9
				C395.9,332.1,403.9,338.2,404.4,341.9z"/>
			<path fill="#2E131C" d="M392.9,353c-11.3,2.6-21.5,0.2-22.8-5.3c-0.6-2.7,0.8-7.2,3.7-11.3c-5.4,4.9-8.2,11.7-7.4,15.4
				c1.3,5.5,11.4,7.9,22.8,5.3c8.4-1.9,15-6,17.4-10.2C403.3,349.4,398.5,351.7,392.9,353z"/>
			<g>
				
					<ellipse transform="matrix(0.8786 -0.4775 0.4775 0.8786 -115.5863 230.5263)" fill="#190D11" cx="395.7" cy="342.7" rx="4.2" ry="4.9"/>
				<path fill="#010101" d="M398.4,345.1c-2.1,1.1-4.8,0.1-6.1-2.3c-0.5-0.8-0.6-1.7-0.6-2.6c-0.6,1.3-0.6,2.9,0.2,4.4
					c1.3,2.4,4,3.4,6.1,2.3c1.3-0.7,2-2.2,2-3.8C399.7,344,399.2,344.7,398.4,345.1z"/>
				
					<ellipse transform="matrix(0.6996 -0.7146 0.7146 0.6996 -125.0438 385.5889)" fill="#281018" cx="396" cy="341.5" rx="2.5" ry="2.8"/>
			</g>
			<g>
				
					<ellipse transform="matrix(0.99 0.1412 -0.1412 0.99 52.8004 -49.8607)" fill="#190D11" cx="377.7" cy="347.1" rx="4.2" ry="4.9"/>
				<path fill="#010101" d="M378.4,350.7c-2.3-0.3-3.9-2.8-3.5-5.5c0.1-0.9,0.5-1.7,1-2.4c-1.2,0.7-2.2,2-2.4,3.7
					c-0.4,2.7,1.2,5.2,3.5,5.5c1.5,0.2,2.9-0.6,3.8-1.9C380.1,350.6,379.3,350.8,378.4,350.7z"/>
				
					<ellipse transform="matrix(0.9878 -0.1559 0.1559 0.9878 -49.3676 63.2674)" fill="#281018" cx="378.7" cy="346.4" rx="2.5" ry="2.8"/>
			</g>
		</g>
	</g>
	<g>
		<path fill="#E5CFAD" d="M350.5,420.3c0,0,18.6-17.9,23.8-17.4c5.2,0.5-18,25.5-18,25.5L350.5,420.3z"/>
		<path fill="#D1B898" d="M357.2,420.9c0.1-1.1,4.2-7.5,6.8-10.6c1.6-1.9,4.9-4.7,7.2-6.6c-7.2,3.5-20.8,16.5-20.8,16.5l5.8,8.1
			c0,0,1-1.1,2.6-2.8C358.1,423.8,357.2,421.6,357.2,420.9z"/>
		<path fill="#E5CFAD" d="M341.6,410.8c0,0,27.7-22.1,31.3-21.6c3.5,0.5-19,34.1-19,34.1L341.6,410.8z"/>
		<path fill="#D1B898" d="M368.4,391.1c-8.8,5.3-26.8,19.7-26.8,19.7l12.2,12.5c0,0,0.9-1.3,2.3-3.5c-2.1-2.4-4.7-5.6-5-6.7
			c-0.4-1.8,2.9-7.7,5.1-10.7C357.8,400.3,364.3,394.6,368.4,391.1z"/>
		<path fill="#E5CFAD" d="M332.1,405.9c0,0,21-15.5,24.8-14.6c3.8,0.9-13.5,30.4-13.5,30.4L332.1,405.9z"/>
		<path fill="#D1B898" d="M350.1,393.9c-7.5,4.2-18,12-18,12l7.8,10.8c1.4,0.2,3.6,0.5,5.9,0.8c1-1.7,2.2-3.9,3.4-6.2
			c-3.2-2.5-6.5-5.8-6.1-8.4C343.3,400.3,346.7,396.8,350.1,393.9z"/>
		<path fill="#C6A685" d="M321.4,516.7c0,0,11-10.6,10.4-12.8c-0.6-2.2-6.8-2-6.8-2s21.9-17.2,22-20.2c0.1-3-6.8-4.8-6.8-4.8
			s9-4.9,16-14.8c7-9.9,3.6-16.6-4.4-13.4c0,0,7.5-17.9,6-23.2c-1.5-5.3-19.8-24.3-27-24c-7.2,0.3-26.8,14-26.8,14s1.5-11-2.4-11.8
			c-3.9-0.8-39.8,30.5-48.6,47.6c0,0,3.2-10.6-1.6-11.8c-4.8-1.2-18.8,25.1-19,33.4c0,0-0.7-9.8-4.8-8.4c-4.1,1.4-19,32.8-9.4,65.6
			c0,0-7.6-2.5-11,2.2c-3.4,4.7,2.3,24.7,19.8,41.2c17.5,16.5,42.1,9,45.6,9.4c3.5,0.4,7.8,6.5,13.2,6.2c5.4-0.3,13.7-5.9,17.3-8.6
			c3.6-2.7,4.6-3.8,9.4-4.8c4.8-1,10.4-9.6,13.1-15.4c2.6-5.5,7.1-13.6,2.1-24.8C325.4,530,327.8,523.3,321.4,516.7z"/>
		<path fill="#A68162" d="M321.4,516.7c0,0-19.9,12.9-20.1,14.3c-0.1,0.9,13.7-5.7,23-10.3C323.6,519.3,322.7,518,321.4,516.7z"/>
		<path fill="#B59374" d="M294.6,577.9c-9,5.5-13.1,1.7-18.4-1.7c-5.4-3.5-13.5,1.4-30.9-3.2c-17.4-4.6-26.5-25-25.2-29.6
			c1.4-4.6,15.2,6.4,8.5-11c-6.7-17.3-2.9-52.9,0-54.3c2.9-1.4,5.5,7.5,7.5,6.2c2-1.2,8.3-32.3,11.2-31.9c2.9,0.4,1,15.1,4,10
			c3-5.1,43.3-50.3,46.1-49.3c2.7,1-3.1,9,2,10.5c3.5,1,23.9-11.8,36.7-20.1c-2-1.2-3.9-1.9-5.3-1.8c-7.2,0.3-26.8,14-26.8,14
			s1.5-11-2.4-11.8c-3.9-0.8-39.8,30.5-48.6,47.6c0,0,3.2-10.6-1.6-11.8c-4.8-1.2-18.8,25.1-19,33.4c0,0-0.7-9.8-4.8-8.4
			c-4.1,1.4-19,32.8-9.4,65.6c0,0-7.6-2.5-11,2.2c-3.4,4.7,2.3,24.7,19.8,41.2c17.5,16.5,42.1,9,45.6,9.4c3.5,0.4,7.8,6.5,13.2,6.2
			c5.4-0.3,13.7-5.9,17.3-8.6c3.6-2.7,4.6-3.8,9.4-4.8c2.7-0.6,5.6-3.6,8.2-7.1C313,569.4,301.7,573.5,294.6,577.9z"/>
		<path fill="#D8B89A" d="M305.5,431c0,0,26.5-18.7,31.4-17.6c4.9,1.1,13,10.7,13.3,14.1s-7,22.8-6.2,25.8c0.8,3,7.5,0.1,8.6,1.7
			c1.1,1.6-16.9,18-19.6,22.3s7.2,3.1,6.7,5.9c-0.5,2.8-20.5,17.6-21,20.3c-0.5,2.7,4.4,2,3.5,4.2c-0.9,2.2-29.1,23.4-27.7,29.7
			c1.4,6.3,21.1-7.3,23.2-4.7c2,2.6,4.7,12.7,4.5,19c-0.2,6.3-9.7,9.5-13.1,12.4c-3.4,2.9-14.3,7.2-19.1,6.9s-9.5-3.4-14.1-4
			c-4.6-0.7-21.5-1-31.7-4.4s-9.4-11.1-6.7-18.6c2.7-7.6-5.6-47.3-2.5-50.2c3.1-2.9,6.2,1.7,8.6-0.7c2.3-2.3,3-21.1,5.2-22.5
			c2.2-1.3,5.2,5.5,8.4,2.7c3.2-2.9,12.8-21.5,22.1-34.2c9.4-12.8,16-16.2,16.9-11.4C297,432.5,300.2,434.6,305.5,431z"/>
		<path fill="#F8E4CA" d="M345.9,401c0,0,7.8-8.6,9.3-7.7c1.5,0.9-4.6,12.3-6.2,13.2C347.4,407.4,344.5,402.5,345.9,401z"/>
		<path fill="#F8E4CA" d="M359.2,401.5c0,0,10.2-9.9,11.3-9.5c1.1,0.4-12.2,22.1-13.3,22.7c-1.1,0.6-3.8-1.9-4-2.9
			C353.1,410.9,356.9,403.8,359.2,401.5z"/>
		<path fill="#F8E4CA" d="M359.8,418.9c0,0,4.9-6.9,6.1-8.5c1.2-1.6,6.6-6.3,7.6-6.1c1,0.2-2.1,4.2-4.2,6.9
			c-2.1,2.7-8.7,10.6-9.4,10.9C359.1,422.4,358.8,420.4,359.8,418.9z"/>
	</g>
</g>
</svg>
