<?xml version="1.0" encoding="utf-8"?>
<!-- Generator: Adobe Illustrator 17.1.0, SVG Export Plug-In . SVG Version: 6.00 Build 0)  -->
<!DOCTYPE svg PUBLIC "-//W3C//DTD SVG 1.1//EN" "http://www.w3.org/Graphics/SVG/1.1/DTD/svg11.dtd">
<svg version="1.1" id="Layer_1" xmlns="http://www.w3.org/2000/svg" xmlns:xlink="http://www.w3.org/1999/xlink" x="0px" y="0px"
	 width="504.5px" height="690.4px" viewBox="99.3 7 504.5 690.4" enable-background="new 99.3 7 504.5 690.4" xml:space="preserve">
<g>
	<path fill="#C6A685" d="M201.8,135.7c0,0,18.6-2.1,29.8,0c0,0-10.8-17.3-4.1-19.7c6.7-2.3,32.1,13.7,43.4,27.4c0,0,59-26.3,77-13.8
		s-18.1,28.8-18.1,28.8s66,1,76.1,12.9s-9.3,19.7-9.3,19.7s74,40.9,81.2,64.1s-15.5,15-15.5,15s29.2,25.1,40.9,74.6
		c11.6,49.5,10.6,62.7-9.8,52.6c0,0,9.6,57.2-1.6,69.8c-11.1,12.7-18.1-2.8-18.1-2.8s-0.5,30-31.1,68c-30.7,38-63.9,50.1-67.1,33.4
		c0,0-27.9,20.9-45.6,23.8c-17.8,2.9-19.2-14.5-19.2-14.5s-35.8,15.3-71.9-16.6l-36.1-67.9L201.8,135.7z"/>
	<path fill="#B59374" d="M326.8,579.3c-10.8-2.1-7.4-9.4-11-10.4c-3.6-1.1-33.7,5.1-41.1-3s-3.8-33-3.8-33l125-44.9l61.9-100.4
		c-1.7-38.7-30.3-98.4-89.9-114.9c-59.5-16.5-91.5,8.3-101,4.2c-9.4-4-40.4-39.6-46.5-56.8c-3.8-10.7-4.3-54-4-85.3
		c-7.8,0.1-14.6,0.9-14.6,0.9l0.8,354.9l36.1,67.9c36.1,31.9,71.9,16.6,71.9,16.6s1.5,17.4,19.2,14.5c17.8-2.9,45.6-23.8,45.6-23.8
		S337.6,581.4,326.8,579.3z"/>
	<path fill="#F7E8D6" d="M201.6,249.2c0,0,40.8,9,58.8,53.7c0,0,50.1-41.9,111.3-19.3s96,72.2,84.2,138.7S408.1,551.8,331.5,560
		c-65.7,7-128.9-33.5-128.9-33.5L201.6,249.2z"/>
	<path fill="#FFF4EA" d="M243.7,449.3c0,0-7.7-146.1-4-151.3c3.7-5.2,11.9,28.2,21.6,28.3c9.7,0.1,22.3-28.5,73.1-29.1
		s100.8,34,107.5,82.9c6.8,48.9-37.1,135.2-98.5,134.5C282,514,248,485,243.7,449.3z"/>
	<path fill="#F2DCC3" d="M227.5,476.7c-13.2-50.2-8.2-165.2-5-218.4c-11.7-7-21-9.1-21-9.1l1.1,277.3c0,0,63.2,40.5,128.9,33.5
		c33.2-3.6,58.8-17.5,78.1-37.5l0,0C345.3,548,245,543.1,227.5,476.7z"/>
	<path fill="#7F715A" d="M293.6,348.6c-22.7,43.9,10.3,70.5,50.8,115.9c24.2,27,33.4,58.8,36.9,80.1c43.1-24.3,65.7-72.3,74.6-122.2
		c2.2-12.2,2.8-23.8,1.9-34.8C380.5,306,314.8,307.8,293.6,348.6z"/>
	<path fill="#8F7E69" d="M337.3,385.7c0,0-1.4-41.1,24.1-40.8c25.5,0.3,77,30.5,82.6,56.9c5.5,26.4-20.2,82.8-32,90.3
		s-18.1-17-39.7-42C350.6,425,338.7,409.8,337.3,385.7z"/>
	
		<ellipse transform="matrix(0.5765 -0.8171 0.8171 0.5765 -208.4015 501.3138)" fill="#F9B7B8" cx="379.4" cy="451.7" rx="15.7" ry="18.1"/>
	<g>
		<path fill="#010101" d="M201.6,697.4c-1,0-1.9-0.8-1.9-1.9V8.9c0-1,0.8-1.9,1.9-1.9c1,0,1.9,0.8,1.9,1.9v686.7
			C203.4,696.5,202.6,697.4,201.6,697.4z"/>
	</g>
	<g>
		<path fill="#E5CFAD" d="M166.2,576.1c-0.6,0.2-55.7,0.7-63.7,9.5s65.5,10.2,65.5,10.2L166.2,576.1z"/>
		<path fill="#D1B898" d="M106.5,583.1c-1.8,0.7-3.1,1.6-4,2.5c-7.9,8.7,65.5,10.2,65.5,10.2l-0.3-2.8
			C152.3,592.6,100.7,590.4,106.5,583.1z"/>
		<path fill="#F8E4CA" d="M150.3,580.4c0,0-34.6,2.2-36.5,4.3s35.1,5.7,37.1,4.7C152.8,588.5,153.4,580.2,150.3,580.4z"/>
		<path fill="#E5CFAD" d="M166.2,539.5c-0.6,0.4-54.7,10.5-61,20.5s66.3-1.5,66.3-1.5L166.2,539.5z"/>
		<path fill="#D1B898" d="M108.6,556.9c-1.6,1-2.8,2.1-3.5,3.1c-6.3,10,66.3-1.5,66.3-1.5l-0.7-2.7
			C155.4,558.2,104.2,565.2,108.6,556.9z"/>
		<path fill="#F8E4CA" d="M151.2,546.6c0,0-33.6,8.3-35.2,10.7s35.5-0.6,37.3-1.9C155.1,554.1,154.2,545.8,151.2,546.6z"/>
		<path fill="#E5CFAD" d="M162.3,558.4c-0.6,0.3-55.4,5.8-62.5,15.2s66.2,4.2,66.2,4.2L162.3,558.4z"/>
		<path fill="#D1B898" d="M103.5,570.9c-1.7,0.9-3,1.8-3.7,2.8c-7.1,9.4,66.2,4.2,66.2,4.2l-0.5-2.7
			C150,576.1,98.4,578.7,103.5,570.9z"/>
		<path fill="#C6A685" d="M204.5,612.5c0,0-6.8,7.2-3.7,13.3s40.1,0.9,51.3-22.8c11.1-23.7,13.8-50.5,12.4-62.3s-40.6-32.2-46.4-31
			c-5.9,1.1-3.2,9.7-3.2,9.7s-23.1-6.9-35.2-2.5c-12.1,4.4-3.7,14.7-3.7,14.7s-12.8,5.5-16.8,12.9s-5.9,42.3-3.9,50.1s16.8,9,16.8,9
			s-3.3,4.7,0.5,9.4C176.3,617.7,204.5,612.5,204.5,612.5z"/>
		<path fill="#B59374" d="M200.8,625.9c3,5.9,37.7,1.2,50-20.6c-8.4,9.1-37.4,20.2-41.2,15c-3.8-5.2,1.9-10-1-13.3
			c-3-3.3-21.5,0.9-24.6,0s-3.9-2.4-5.1-7.4c-1.1-4.9-9.9-3.8-12.3-8.5c-2.4-4.7-2.8-34.5,0-40.7s15.4-13.8,17.1-16.8
			c1.7-3-5.2-6.7-2.3-10.8s33.3-3.4,33.3-3.4s-23.1-6.9-35.2-2.5c-12.1,4.4-3.7,14.7-3.7,14.7s-12.8,5.5-16.8,12.9
			s-5.9,42.3-3.9,50.1s16.8,9,16.8,9s-3.3,4.7,0.5,9.4s32-0.5,32-0.5S197.7,619.8,200.8,625.9z"/>
		<path fill="#D8B89A" d="M173.9,580.4c0-0.5-0.3-22.6,3.8-28.5c4.1-5.8,18.2-13.7,19.6-17.4c1.4-3.7-6.3-7.5-5.1-8.5s21,2.6,25.7,0
			s2.1-6.7,6.5-6.7s27.9,11,32.2,21.4c4.3,10.4-7.9,53.1-13,60.7c-5.1,7.6-18.8,11.6-22.9,11.1c-4.2-0.5,4.3-14-3.6-14.6
			s-22.2,0.2-25.1-0.2C189,597.2,173.7,588.2,173.9,580.4z"/>
		<path fill="#F8E4CA" d="M146.8,564.2c0,0-34.2,5.4-36,7.6c-1.8,2.2,37,1.2,38.9,0C151.6,570.7,149.9,563.7,146.8,564.2z"/>
	</g>
	<g>
		<path fill="#010101" d="M258.5,441.8c-0.8,0-1.6-0.6-1.8-1.4c-9.9-39.6-47.2-33.7-48.8-33.4c-1,0.2-2-0.5-2.1-1.5
			c-0.2-1,0.5-2,1.5-2.1c0.4-0.1,42.3-6.8,53,36.2c0.3,1-0.4,2-1.4,2.3C258.8,441.8,258.7,441.8,258.5,441.8z"/>
	</g>
	<g>
		
			<ellipse transform="matrix(0.627 -0.779 0.779 0.627 -170.9647 416.1456)" fill="#010101" cx="349.1" cy="386.6" rx="33.6" ry="28.1"/>
		<circle fill="#FFFFFF" cx="349.3" cy="401.7" r="12.1"/>
		
			<ellipse transform="matrix(0.5765 -0.8171 0.8171 0.5765 -199.995 465.5481)" fill="#70B9E6" cx="349.1" cy="425.7" rx="9.1" ry="10.9"/>
		
			<ellipse transform="matrix(0.7356 -0.6774 0.6774 0.7356 -195.188 349.8381)" fill="#80CBF1" cx="350.6" cy="425" rx="5" ry="8.3"/>
		<path fill="#56ABD6" d="M346.9,432.1c-4.9-3.5-6.6-9.6-3.7-13.7c0.7-0.9,1.5-1.7,2.5-2.2c-2.2,0.4-4.2,1.4-5.5,3.3
			c-2.9,4.1-1.2,10.2,3.7,13.7c3.8,2.7,8.4,3,11.7,1.1C352.8,434.7,349.6,434,346.9,432.1z"/>
		<path fill="#F7E8D6" d="M353.8,380.8c8,6.4,13.6,14.7,16.8,23.9c0.1-0.2,0.3-0.3,0.4-0.5c11.6-14.5,11.3-34.1-0.8-43.8
			c-12.1-9.7-31.3-5.9-43,8.6c-0.1,0.2-0.2,0.3-0.4,0.5C336.5,370.7,345.8,374.4,353.8,380.8z"/>
		<path fill="#F2DCC3" d="M341.8,365.8c0.5-3,4-6.9,7.9-10.4c-8.2,1.3-16.4,5.9-22.6,13.5c-0.1,0.2-0.2,0.3-0.4,0.5
			c9.7,1.2,19,4.9,26.9,11.3c8,6.4,13.6,14.7,16.8,23.9c0.1-0.2,0.3-0.3,0.4-0.5c1.8-2.2,3.3-4.6,4.5-7
			C363.5,370.4,340.7,372.3,341.8,365.8z"/>
		<path fill="#FFF4EA" d="M348.6,364.1c0,0,3.3-5.5,11.2-4.6c8,0.9,15.2,10.6,16.1,16.1c0.9,5.6,0.1,11.1-0.9,12
			c-1,0.8-5.4-9.3-13.7-14.1C353.1,368.7,346.9,367.1,348.6,364.1z"/>
	</g>
	<g>
		<g>
			<path fill="#010101" d="M205.8,325.4c-0.3,0-0.5-0.1-0.8-0.2c-0.9-0.4-1.3-1.6-0.9-2.5c16.4-34,17.2-34.7,17.6-35
				c0.8-0.6,2-0.5,2.6,0.3c0.6,0.7,0.5,1.7-0.1,2.4c-1.2,1.8-10.9,21.7-16.8,33.9C207.1,325,206.5,325.4,205.8,325.4z"/>
		</g>
		<g>
			<path fill="#010101" d="M216.9,355.4c-0.2,0-0.4,0-0.6-0.1c-1-0.4-1.5-1.4-1.1-2.4c19.8-53.9,21.4-55,22-55.4
				c0.8-0.6,2-0.4,2.6,0.5c0.5,0.7,0.4,1.7-0.2,2.3c-1.8,2.8-13.7,34.4-20.9,53.9C218.4,355,217.7,355.4,216.9,355.4z"/>
		</g>
		<g>
			<path fill="#010101" d="M233.5,366.1c-0.2,0-0.5-0.1-0.7-0.2c-0.9-0.4-1.4-1.5-1-2.4l20.4-46.6c0.4-0.9,1.5-1.4,2.4-1
				s1.4,1.5,1,2.4L235.2,365C234.9,365.7,234.2,366.1,233.5,366.1z"/>
		</g>
		<g>
			<path fill="#010101" d="M251.2,387.2c-0.3,0-0.5-0.1-0.8-0.2c-0.9-0.4-1.3-1.5-0.9-2.5l31.6-67.7c0.4-0.9,1.5-1.3,2.5-0.9
				c0.9,0.4,1.3,1.5,0.9,2.5l-31.6,67.7C252.5,386.8,251.9,387.2,251.2,387.2z"/>
		</g>
		<g>
			<path fill="#010101" d="M263.2,404.7c-0.3,0-0.6-0.1-0.9-0.2c-0.9-0.5-1.3-1.6-0.8-2.5l45.6-87.3c0.5-0.9,1.6-1.3,2.5-0.8
				s1.3,1.6,0.8,2.5l-45.6,87.3C264.5,404.4,263.8,404.7,263.2,404.7z"/>
		</g>
		<g>
			<path fill="#010101" d="M278.6,427.6c-0.3,0-0.5-0.1-0.8-0.2c-0.9-0.4-1.3-1.5-0.9-2.5l53.9-116.4c0.4-0.9,1.5-1.3,2.5-0.9
				c0.9,0.4,1.3,1.5,0.9,2.5l-53.9,116.4C280,427.2,279.3,427.6,278.6,427.6z"/>
		</g>
	</g>
	<g>
		<path fill="#3E1421" d="M251.2,385.3c-2.4,6.6-15.4,7.9-29,2.8c-13.6-5-22.6-14.4-20.2-21c2.4-6.6,18-14.9,31.6-9.9
			C247.2,362.3,253.6,378.7,251.2,385.3z"/>
		<path fill="#4C172A" d="M248.4,382.7c-2,4.2-11.6,3.9-21.5-0.7s-16.2-11.8-14.2-16.1c2-4.2,13.7-8.5,23.6-3.8
			C246.1,366.7,250.4,378.4,248.4,382.7z"/>
		<path fill="#2E131C" d="M228.7,386.4c-13.6-5-22.6-14.4-20.2-21c1.2-3.3,5.7-7,11.6-9.3c-8.9,1.4-16.5,6.6-18.2,11
			c-2.4,6.6,6.6,16,20.2,21c10.1,3.7,19.8,4,25.1,1.2C242.1,389.8,235.5,388.9,228.7,386.4z"/>
		<g>
			
				<ellipse transform="matrix(7.978363e-002 -0.9968 0.9968 7.978363e-002 -156.7385 585.3985)" fill="#190D11" cx="238.7" cy="377.6" rx="6.2" ry="5.3"/>
			<path fill="#010101" d="M239.9,382c-2.9-0.2-5-3.2-4.8-6.6c0.1-1.2,0.5-2.2,1.1-3.1c-1.5,1-2.6,2.7-2.8,4.8
				c-0.3,3.4,1.9,6.3,4.8,6.6c1.9,0.2,3.6-1,4.6-2.6C242,381.7,241,382.1,239.9,382z"/>
			
				<ellipse transform="matrix(-0.2166 -0.9763 0.9763 -0.2166 -75.8064 692.3987)" fill="#281018" cx="239.9" cy="376.6" rx="3.5" ry="3.1"/>
		</g>
		<g>
			
				<ellipse transform="matrix(0.6589 -0.7522 0.7522 0.6589 -204.2516 289.3246)" fill="#190D11" cx="216.9" cy="369.9" rx="6.2" ry="5.3"/>
			<path fill="#010101" d="M215.2,374.2c-2.2-1.9-2.2-5.6,0.1-8.1c0.8-0.9,1.7-1.4,2.7-1.8c-1.8-0.1-3.7,0.6-5.1,2.2
				c-2.2,2.6-2.3,6.2-0.1,8.1c1.4,1.3,3.4,1.4,5.3,0.7C217.1,375.2,216,374.9,215.2,374.2z"/>
			
				<ellipse transform="matrix(0.4088 -0.9126 0.9126 0.4088 -208.3768 417.9182)" fill="#281018" cx="218.4" cy="369.8" rx="3.5" ry="3.1"/>
		</g>
	</g>
	<path fill="#6E604E" d="M381.3,544.5c10.7-6,20.1-13.5,28.3-22c-5.9-0.6-12.9-4.8-33.3-39.5c-20.3-34.6-59.2-56.6-62.7-103.2
		c-1.9-25.4,12.4-45.6,25.8-58.7c-21.2,0.6-37.3,10.8-45.9,27.4c-22.7,43.9,10.3,70.5,50.8,115.9
		C368.6,491.5,377.8,523.3,381.3,544.5z"/>
	<path fill="#D8B89A" d="M231.2,203.6c0,0-1.2-52.9,2-55.9s10.9,6,13.1,2.7c2.2-3.3-5.2-18.2-1.7-19.1c3.5-0.8,17.9,17.2,24.8,20.1
		c6.9,2.8,58.8-20.8,65-15.1c6.3,5.7-21.9,15.4-21.9,28.5s62.3,0.8,70,9s-13.1,15.2-12.7,22.1c0.3,6.9,80.5,38.5,82,50.6
		c1.5,12.1-10.9,8-12.4,16.7s33.3,31.8,44.9,61.9s18.4,53.9,12.1,55c-6.4,1.1-16.2-8.5-16.1,0c0.2,8.5,7.7,62.8,3.7,71.6
		c-4,8.9-12.2-12.7-16.4-5.9s-2.6,28.4-22.9,66c-20.3,37.5-47.6,52.9-53.7,51.8c-6.1-1.2-4.9-6.9-10.1-6
		c-5.2,0.8-38.3,14.6-46.5,13.1c-8.1-1.5,4.9-1.3,45-19.1s75.1-69,83.5-123.8s-7.9-114.7-67-153.4s-114.1-6.7-128.9-14.7
		C252.1,251.5,231.4,223.5,231.2,203.6z"/>
	<g>
		<path fill="#F0EFEF" d="M513.8,252.4c0,0,14.6-7.2,17.2-6.9c2.6,0.3,14.9,27.3,47.5,14.1c32.6-13.2,28.2-49.4,17.3-70.6
			c-10.8-21.2-40-35-63.8-22.8s-13.4,41.6-16.2,42.8c-2.8,1.2-18.8,7.5-19.6,9.4C495,221.6,507.1,253.8,513.8,252.4z"/>
		<path fill="#E2E2E2" d="M600.8,238.1c-9.1,6.9-21.4,14.1-33.5,14.2c-23.7,0.2-24.3-12.6-30-15.5s-15.8,6.1-21.1,3.4
			c-3.8-1.9-10.6-17-14.1-25.3c-3.1,1.4-5.5,2.8-5.8,3.5c-1.3,3.1,10.8,35.4,17.5,34c0,0,14.6-7.2,17.2-6.9
			c2.6,0.3,14.9,27.3,47.5,14.1C590.3,254.9,597.2,247.1,600.8,238.1z"/>
		<path fill="#FFFFFF" d="M512.2,217.7c0,0,12.2-4.9,14.7-8c2.6-3.1-3.8-31.6,17.3-38.7c21.1-7.1,40,8.8,48.7,27.2
			s6.4,40.9-20.3,47.2c-21.3,5-26-17.2-31.2-17.8s-17.8,7-22,6C515.1,232.4,509.1,219,512.2,217.7z"/>
	</g>
</g>
</svg>
