<?xml version="1.0" encoding="utf-8"?>
<!-- Generator: Adobe Illustrator 17.1.0, SVG Export Plug-In . SVG Version: 6.00 Build 0)  -->
<!DOCTYPE svg PUBLIC "-//W3C//DTD SVG 1.1//EN" "http://www.w3.org/Graphics/SVG/1.1/DTD/svg11.dtd">
<svg version="1.1" id="Layer_1" xmlns="http://www.w3.org/2000/svg" xmlns:xlink="http://www.w3.org/1999/xlink" x="0px" y="0px"
	 width="700px" height="700px" viewBox="0 0 700 700" enable-background="new 0 0 700 700" xml:space="preserve">
<g>
	<g>
		<path fill="#C6A685" d="M264.6,480c0,0-29.3-24.2-38.5-21.3c-9.1,2.8-12.3,13.4-16.8,12.3c-4.6-1-11.9-24.8-17.8-26.2
			c-5.9-1.4-12.7,4.7-17.7,5.3c-5,0.6-19.6-24-33.9-19.9c-14.3,4.1-31.7,18.5-30.3,36.3c1.4,17.8,15.4,32,15.4,32s-9.1-0.4-10.9,2.1
			c-1.7,2.5,17,16.8,29,19.7c0,0-6.5,2.9-6,7s29.4,16.8,58.1,18.8s117.9,5.1,119.2,6.2c1.3,1.1,153.7,3.9,153.7,3.9
			s18.8-0.7,29.6-5.7c10.8-5,1.3-10.6,1.3-10.6s16.7-8.3,24.4-15.6c7.6-7.3-0.7-8.6-0.8-8c-0.2,0.7,9-10.9,9.1-29.6
			c0.2-18.7-8.3-34-8.3-34s-29.1-6.5-42.3,0c-13.2,6.5-27,22.1-30.8,25.7c-3.8,3.6-9.3-3.8-11-8.8C437.6,464.6,264.6,480,264.6,480z
			"/>
		<path fill="#B59374" d="M478.9,544.9c-6.1-0.4-23.3-14.3-26.8-18.3c-3.5-4-1.3-8.9-2.9-12.5c-1.6-3.6-21.3-21-21-22.7
			c0.3-1.8,8.8-8.8,11.4-9.4c2.6-0.6,3,2.1,6.5,3.2c3.5,1.1,5.4-0.9,9.1-3.4c3.8-2.6,7,3.2,13.8,1.6c5.3-1.3,20.4-23.7,26.8-33.5
			c-5.5,0.2-10.7,0.9-14.6,2.8c-13.2,6.5-27,22.1-30.8,25.7c-3.8,3.6-9.3-3.8-11-8.8c-0.5-1.6-17.6-1.2-40.8,0.1
			c-1.8,6.5-1.5,14.2,0,20.5c2.3,10,14.4,39.8,23.4,55.5c2.3,4,4.6,7.1,7,9.6c22.5,0.4,39.2,0.7,39.2,0.7s18.8-0.7,29.6-5.7
			c10.8-5,1.3-10.6,1.3-10.6S485,545.4,478.9,544.9z"/>
		<path fill="#D8B89A" d="M478.1,481.9c0,0,18.2-27.2,20.4-27.7c2.2-0.5,5-1.4,5.3,2.7c0.3,4.1-4.3,19.2-2.9,25
			c1.3,5.8-2.4,13.1-1.7,17.1c0.8,4,8,0.1,9.5,2.3c1.5,2.2,9,2.6,13.1,3.4c4.2,0.8-4.3,9.2-5,11.8s7,0.5,5.8,3.5
			c-1.2,3-24,15.2-34.5,16.6c-10.5,1.5-26.7-12.1-27.3-15.5c-0.6-3.4-1.2-8.6-3.4-10.6c-2.2-2-19-17.8-17.6-19.9
			c1.3-2.1,7.5,2.2,10.3,0.9c2.8-1.3,5.9-6.4,8.7-4.9S471.2,492,478.1,481.9z"/>
	</g>
	<path fill="#B59374" d="M303.1,533.8c-29.6-0.2-69,0.2-87.5,3.1c-31.8,5-64.8-8-65.5-11.4c-0.7-3.4,3.6-4.6,4-7.8
		c0.3-3.2-26-10.1-25.4-13.1c0.6-3,3.9-0.8,5.9-4.7c2.1-4-15.4-17.9-17.9-30.9c-2.5-13,4.6-20.1,4.6-20.1s-1.1-2-3-5
		c-5.6,6.2-9.4,14.1-8.7,22.7c1.4,17.8,15.4,32,15.4,32s-9.1-0.4-10.9,2.1c-1.7,2.5,17,16.8,29,19.7c0,0-6.5,2.9-6,7
		c0.5,4.1,29.4,16.8,58.1,18.8c21.8,1.5,78.7,3.7,105.2,5.1L303.1,533.8z"/>
	<path fill="#C6A685" d="M263.2,472.3c0,0-10.2,13.1-23.2,21.4c-5.1,3.3,6.1,6.9,6.1,6.9s-12.2,11.3-21.8,15.5
		c-9.7,4.2-0.8,7.6-0.8,7.6s-40.9,29.8-40.9,33.3c0.1,3.5,8,4.4,8,4.4s-16.5,15.5-16.6,20.4s5.8,6.3,5.8,6.3s-7.7,17.3-7.3,21
		c0.4,3.7,8.5,3.2,8.5,3.2s-2.5,27.3,0,30.3c2.5,3,9-2.7,9-2.7s16.3,22.3,27.5,25.9c11.1,3.7,10.1-2.4,10.1-2.4s36.2,3,39.3,2.4
		c3.1-0.6,0-4.8,0-4.8s22.6,3.6,34.4-10c0,0,12.9,14.8,17.8,14.3c5-0.5,6-7.5,6-7.5s45.8,19,50.4,16.6s2.5-8.5,2.5-8.5
		s44.8,4.1,51.8,1.7c7-2.5-1.9-7.3-1.9-7.3s11.7-0.4,25.3-4.8c13.6-4.4,14.9-10,14.9-10s8.9-4,14.1-12.9c5.2-8.8,1.7-26.3,1.7-26.3
		s4.1,3.9,7.5,2.7c3.3-1.2-2-36.7-19.3-49.1c0,0,3.4-2.1,4.1-5C477,552.2,436,524,436,524s7.2-2.2,7.9-5.2c0.7-3-18.5-13-31.5-39.6
		c-10.9-22.6-150.3-16.4-150.3-16.4L263.2,472.3z"/>
	<path fill="#B59374" d="M242.3,555.1c0,0,16.6,3.4,19.9,1.8c3.3-1.6,3.1-6.4,9.5-3.9c6.4,2.5,22.2,14.2,24.9,13.9
		c2.7-0.3,5.1-2.5,8.3-0.4c3.2,2.2,7.5,10.9,12.1,11.5c4.6,0.6,15.1-12,20.9-12c5.8,0,5.8,13.7,5.8,13.7s-4.8,1.8-4.5,1.7
		c0.3-0.1-0.1-9.5-2.2-9.6c-2.2,0-9.1,5.9-9.1,5.9s-10.6,7.6-12.1,7.1c-1.5-0.5-11.9-14.5-13.9-14.2c-2,0.3-2.9,3.7-4.3,4
		c-1.4,0.4-26.1-17.7-28.9-17.1c-2.8,0.6-0.3,5-2.3,5.9C264.4,564.5,247.9,557.5,242.3,555.1z"/>
	<path fill="#B59374" d="M418.6,651.1c-2.5,0.9,0.8,6.4-2.7,7.5c-3.5,1-38.3-1.7-42.2-1.5c-3.8,0.2-4.7,5.1-8.1,5.6
		c-3.4,0.5-41.2-14.9-44.2-15.8c-3-0.9-4.9,5.6-8.5,3.9c-3.6-1.7-20.9-26.3-23.3-35.7c-2.4-9.5,7.1-28.6,7.1-28.6
		c-6,2.4-20.1,23.9-17,35.3c3.1,11.4,15.3,26.1,15.3,26.1c-7.9,4.3-30.4,3.4-33.9,3.1c-3.4-0.3-4.3,3.5-6.2,4.8
		c-2,1.2-22.6-1.7-24.9-1.9c-2.3-0.2-9.2,1.3-13.7,0.9c-4.5-0.5-16.9-22-22.2-27.7c-5.3-5.7-2-14.7-5.2-18.3
		c-3.2-3.6,2-9.4,2.1-15.7c0.1-6.4-1-8.3,0-14.5c1-6.2,18.2-19.8,14.7-21.8c-3.4-2-8.6-5.7,5.8-16.8s21.3-15.6,22.8-19.5
		c1.6-3.9,21.9-13.9,24.1-18.3c2.2-4.4-8.2-6.5-4.8-10.7c3.4-4.2,19.1-19.6,19.1-19.6s3.6-3.9,6.7-9.5c-10.6,0.2-17.3,0.5-17.3,0.5
		l1,9.5c0,0-10.2,13.1-23.2,21.4c-5.1,3.3,6.1,6.9,6.1,6.9s-12.2,11.3-21.8,15.5c-9.7,4.2-0.8,7.6-0.8,7.6s-40.9,29.8-40.9,33.3
		c0.1,3.5,8,4.4,8,4.4s-16.5,15.5-16.6,20.4c-0.1,4.9,5.8,6.3,5.8,6.3s-7.7,17.3-7.3,21c0.4,3.7,8.5,3.2,8.5,3.2s-2.5,27.3,0,30.3
		c2.5,3,9-2.7,9-2.7s16.3,22.3,27.5,25.9c11.1,3.7,10.1-2.4,10.1-2.4s36.2,3,39.3,2.4c3.1-0.6,0-4.8,0-4.8s22.6,3.6,34.4-10
		c0,0,12.9,14.8,17.8,14.3c5-0.5,6-7.5,6-7.5s45.8,19,50.4,16.6c4.6-2.4,2.5-8.5,2.5-8.5s44.8,4.1,51.8,1.7c7-2.5-1.9-7.3-1.9-7.3
		s11.7-0.4,25.3-4.8c11.7-3.8,14.3-8.4,14.8-9.6c0.1-0.2,0.1-0.3,0.1-0.3C444.8,655.6,421.1,650.1,418.6,651.1z"/>
	<g>
		<path fill="#E5CFAD" d="M286.5,598.2c0,0-20.2-14.6-23.7-15c-3.5-0.4,11.9,21.3,11.9,21.3l7.3,2.1L286.5,598.2z"/>
		<path fill="#F8E4CA" d="M282.2,596.9c0,0-13.9-10-15-10.3c-1.2-0.4,0.9,2.9,1.9,4.1c1.1,1.2,10.7,8.8,11.7,9
			C281.7,599.9,282.9,597.4,282.2,596.9z"/>
		<path fill="#D1B898" d="M281.9,606.6l1.7-3.1c-0.1,0-0.1-0.1-0.2-0.1c-2.9-1.4-13.6-9.7-16.2-13.1c-1.6-2.2-2.9-5.1-3.6-6.9
			c-0.3-0.1-0.6-0.2-0.8-0.2c-3.5-0.4,11.9,21.3,11.9,21.3L281.9,606.6z"/>
	</g>
	<path fill="#E5CFAD" d="M279.8,614.3c0,0-26.3-23.6-29.8-19.6c-3.6,4.2,30.7,32.4,30.7,32.4S278.4,618.1,279.8,614.3z"/>
	<path fill="#D1B898" d="M251.1,594.3c-0.4,0-0.8,0.2-1,0.5c-3.6,4.2,30.7,32.4,30.7,32.4s-0.2-0.8-0.5-2
		C273.7,619.6,248.8,598.4,251.1,594.3z"/>
	<g>
		<path fill="#E5CFAD" d="M282.6,605.7c0,0-26.9-24.2-31.8-22.4c-4.9,1.8,27.7,33.7,27.7,33.7L282.6,605.7z"/>
		<path fill="#D1B898" d="M252.8,583.5c-0.9-0.3-1.6-0.4-2-0.2c-4.9,1.8,27.7,33.7,27.7,33.7l0.6-1.7
			C272.6,608.8,250.3,586.2,252.8,583.5z"/>
		<path fill="#F8E4CA" d="M279,604.3c-0.2-0.1-21.9-18.6-23.9-18.5c-2,0.1,20.6,23.7,21.5,24.5C277.5,611.2,280.3,605.5,279,604.3z"
			/>
	</g>
	<path fill="#A68162" d="M294.9,589.4c5-1.5,18-0.1,25.5-4.9c7.5-4.8,14.1-11.9,16.2-11c2.1,0.9-0.4,8.7,2,10.3
		c2.3,1.6,30.7-18.5,35-17.9c4.3,0.6,0.1,6.1,5.1,6.6c5,0.5,24.7-4,28.4-1.7c3.7,2.3-2.4,4.2-2.2,7.3c0.2,3.2,11.6,5.3,18.6,10.5
		c0,0-1.2-4.5-8.9-8.1c-7.7-3.6,1.3-7.5,0.7-10.8c-0.6-3.3-24.5-1.7-31-1c-6.5,0.7-1.6-4.6-4.7-5.7c-3.2-1.2-14.3,2.4-21.6,6.7
		c-7.4,4.3-15.1,9.7-16.8,9.2c-1.6-0.4,0.1-8.8-3.9-8.6c-4,0.1-10.5,9.4-19.9,12.2c-9.4,2.8-19.3,3.5-24,4.7
		c-4.7,1.3-15.2,22-16.3,30.4c-0.9,7,14.8,29.7,20.1,37.2c1.5-1.1,2.9-2.3,4.1-3.7c0,0-17.3-18.6-19.8-27.9
		C278.9,613.9,289.9,590.9,294.9,589.4z"/>
	<path fill="#A68162" d="M242.3,555.1c0,0,20.5,6.8,23.7,6.9c0,0-0.1-4.6,2.4-6.3s21.7,13,28.8,17.4c0,0,2.2-3.9,4.7-3.7
		c2.5,0.2,13.9,14.4,13.9,14.4l-2.7,1.2c0,0-9.4-12.6-11.2-12.6c-1.8,0-3,4.8-4.1,4.8c-2.4-0.1-25.2-17.2-27.4-17.2
		c-2.3,0-0.8,4.7-2.7,5.9C266,567,254.7,562,242.3,555.1z"/>
	<g>
		<g>
			<g>
				<path fill="#FDC20F" d="M9.3,362.7c-1,0-1.8-0.8-1.8-1.8V227.7c0-1,0.8-1.8,1.8-1.8s1.8,0.8,1.8,1.8V361
					C11.1,361.9,10.3,362.7,9.3,362.7z"/>
			</g>
			<g>
				<path fill="#FDC20F" d="M34.5,358.6c-1,0-1.8-0.8-1.8-1.8v-99.1c0-1,0.8-1.8,1.8-1.8c1,0,1.8,0.8,1.8,1.8v99.1
					C36.3,357.8,35.5,358.6,34.5,358.6z"/>
			</g>
			<g>
				<path fill="#FDC20F" d="M56.7,342.5c-1,0-1.8-0.8-1.8-1.8v-62.6c0-1,0.8-1.8,1.8-1.8s1.8,0.8,1.8,1.8v62.6
					C58.4,341.8,57.7,342.5,56.7,342.5z"/>
			</g>
			<g>
				<path fill="#FDC20F" d="M72.7,380.1c-1,0-1.8-0.8-1.8-1.8V227.7c0-1,0.8-1.8,1.8-1.8s1.8,0.8,1.8,1.8v150.6
					C74.5,379.3,73.7,380.1,72.7,380.1z"/>
			</g>
			<g>
				<path fill="#FDC20F" d="M98.3,367.5c-1,0-1.8-0.8-1.8-1.8c-0.1-87.1-0.1-131.5,0-132.2c0.2-1,1.1-1.6,2.1-1.4
					c0.9,0.2,1.5,1,1.4,1.9c-0.1,2.8,0,87.3,0,131.7C100,366.7,99.2,367.5,98.3,367.5L98.3,367.5z"/>
			</g>
			<g>
				<path fill="#FDC20F" d="M121.4,348.1c-1,0-1.8-0.8-1.8-1.8v-88.6c0-1,0.8-1.8,1.8-1.8c1,0,1.8,0.8,1.8,1.8v88.6
					C123.2,347.3,122.4,348.1,121.4,348.1z"/>
			</g>
			<g>
				<path fill="#FDC20F" d="M557.3,375.9c-1,0-1.8-0.8-1.8-1.7c-1.1-134.6-0.1-135.7,0.4-136.4c0.6-0.7,1.7-0.8,2.5-0.2
					c0.6,0.5,0.8,1.2,0.5,1.9c-0.7,4.7-0.3,82.9,0.1,134.6C559,375.1,558.2,375.9,557.3,375.9C557.3,375.9,557.3,375.9,557.3,375.9z
					"/>
			</g>
			<g>
				<path fill="#FDC20F" d="M580.4,400.7c-1,0-1.8-0.8-1.8-1.8V223.8c0-1,0.8-1.8,1.8-1.8s1.8,0.8,1.8,1.8v175.1
					C582.2,399.9,581.4,400.7,580.4,400.7z"/>
			</g>
			<g>
				<path fill="#FDC20F" d="M604.9,380c-1,0-1.8-0.8-1.8-1.8V241.8c0-1,0.8-1.8,1.8-1.8c1,0,1.8,0.8,1.8,1.8v136.4
					C606.6,379.2,605.9,380,604.9,380z"/>
			</g>
			<g>
				<path fill="#FDC20F" d="M630.2,375.9c-1,0-1.8-0.8-1.8-1.8V252.5c0-1,0.8-1.8,1.8-1.8c1,0,1.8,0.8,1.8,1.8v121.6
					C632,375.1,631.2,375.9,630.2,375.9z"/>
			</g>
			<g>
				<path fill="#FDC20F" d="M657.2,366.4c-1,0-1.8-0.8-1.8-1.8v-95.5c0-1,0.8-1.8,1.8-1.8c1,0,1.8,0.8,1.8,1.8v95.5
					C659,365.6,658.2,366.4,657.2,366.4z"/>
			</g>
			<g>
				<path fill="#FDC20F" d="M679.2,394.7c-1,0-1.8-0.8-1.8-1.8V250.2c0-1,0.8-1.8,1.8-1.8c1,0,1.8,0.8,1.8,1.8v142.7
					C681,393.9,680.2,394.7,679.2,394.7z"/>
			</g>
		</g>
		<g>
			<path fill="#C6A685" d="M180.6,197c0,0-16.8-9.6-14.6-16.6c2.2-7.1,67.9-12.9,67.9-12.9s-14.6-15.1-12.3-21c2.4-6,37.5-3,43.9,0
				c0,0-14.7-24.8-9.4-31c5.3-6.3,50.8,19.1,50.8,19.1s13.5-32.6,23.2-32.9c9.7-0.3,17.2,34.2,17.2,34.2s14.1-16.3,32.6-21.6
				c18.5-5.3,15.7,6.6,11,20.7c0,0,30.6-6.7,38.6-2.8c8,3.9,0,12.2,0,12.2s36.1,11,37.3,15.4c1.2,4.4-9.2,10-9.2,10
				s43.2,16.9,43.9,22.3c0.8,5.3-14.1,12.6-14.1,12.6s46.3,16.9,47.7,25.2c1.4,8.3-18.8,8.6-18.8,8.6s35.7,40,36.4,45.5
				c0.6,5.5-11.3,6-11.3,6s8.3,12.9,15.1,32c6.7,19.1,8.6,37.9,4.7,37.4c-3.9-0.4-14.1-6.6-14.1-6.6s-0.9,47.9-4.4,51.4
				c-3.4,3.4-11-6-11-6s-13.6,48.6-19.7,51.7c-6.1,3.1-13.3-11.9-13.3-11.9s-27,36.4-34.1,39.2c-7.1,2.8-11.5-12.2-11.5-12.2
				s-34.4,26.3-39.6,26.7c-5.2,0.3-0.3-9.4-0.3-9.4s-30.3,12.1-87.8,6.9c-57.5-5.2-75.3-18.2-75.3-18.2s-0.6,6.6-5.3,7.5
				c-4.7,0.9-32.3-9.7-40.2-25.4c0,0-14.3,16-23.1,16.6c-8.8,0.6-17.4-43.9-17.4-43.9s-9.7,6.3-15.4,5.6
				c-5.6-0.6-20.4-38.6-13.5-62.5c0,0-10.5,10.9-16.6,7c-6.1-3.9,0.5-59.7,23.5-92.5c0,0-10.8,2-13.8-2.2
				c-3-4.2,18.2-35.7,25.7-43.6c0,0-8.8-2-11.3-7.7S164.2,205.8,180.6,197z"/>
			<path fill="#D8B89A" d="M350.1,145.1c0,0,22-23,28.2-21.5c6.2,1.5-0.2,16.1,2.4,18.8c2.5,2.7,33-6,36.5-3c3.5,3-6.4,8.9-4.6,12.4
				c1.8,3.5,30.5,4.2,34.8,7.7c4.3,3.5-8.4,7.6-4.9,11.4c3.5,3.9,31.8,15.2,35.2,22.4c3.3,7.2-6.4,8.6-7.3,11.2
				c-0.8,2.7,36.4,16.4,36.4,21.1c0,4.7-6.8,6.3-5.2,13.5c1.7,7.2,31.9,32.4,32.3,39.9c0.3,7.5-7.4,1.1-5,14.6
				c2.4,13.5,19.5,40.4,16.1,44.9c-3.4,4.5-7.9,5.2-8.4,11.9c-0.5,6.8,1.5,29.4-2,32.5s-7.2-3.7-9.7,4.4c-2.5,8.1-14.2,43.8-18,44.7
				s-2.8-10.9-8-11.8c-5.2-0.8-28.5,35-31.8,37.3s-4.8-13.6-11.7-10.1c-6.9,3.5-179.9-9.6-181.5-8.7c-1.5,0.8-34,9.4-39.8,9.1
				c-5.8-0.3-26.1-23.7-31.8-22.5c-5.7,1.2-13.4,6.7-15.9,5c-2.5-1.7-11-37-14.4-38c-3.4-1-7.7,4.9-10.4,1.3
				c-2.7-3.5-3.5-51.1-7.1-53c-3.5-1.9,15-62.8,15.8-70.3c0.8-7.6,5.6-22.5,11.4-31.3c5.9-8.7,2.4-12.4,4.6-17.8
				s19.8-16.6,22.1-20.2c2.3-3.5,5.7-11.4,11.2-13.1c5.5-1.7,36.8-6.7,40-10.4c3.2-3.7,0.7-15.5,4-16.1c3.4-0.7,11.9,3.4,17.9,2
				c6.1-1.3,3.7-16.6,9.3-16.1c5.5,0.5,15.3,10.6,22.9,8.7c7.6-1.8,11.6-21.7,17.9-21.5C338,134.9,338.2,156.5,350.1,145.1z"/>
			<path fill="#B59374" d="M357.3,479.7c-46,0.5-98.1-20.2-105.1-21.8c-7-1.6-11.4,4.1-18.2,2.7c-6.8-1.4-24.1-20.2-28.6-23.2
				c-4.5-3-17.9,14.5-23.6,10c-5.7-4.5-11.8-37.3-15.7-39.5c-3.9-2.3-10.7,4.8-14.8,0c-4.1-4.8-7.3-42.3-6.8-51.1
				c0.5-8.8-10.9-0.7-11.4-6.2c-0.5-5.5,20.9-61.5,22.3-70.2c1.4-8.7-5.9-5.4-5-13c0.9-7.6,16.8-21.9,21.4-32.1
				c4.5-10.1-8.2-4.2-7.7-9.6c0.5-5.5,23.9-17.9,31.1-25.9c7.2-8-8.4-7.7,0-14.1c8.4-6.4,47.3-7.3,53.7-12.3c6.4-5-8-15.7,0-20.4
				c8-4.8,24.5,5.7,26.1,0c1.6-5.7-7-20.2,0-20.7c7-0.5,31.1,15.2,35.4,13.4c4.3-1.8,12.3-26.4,19.5-26.8
				c7.3-0.5,17.6,16.9,17.6,16.9s-7.5-34.5-17.2-34.2c-9.7,0.3-23.2,32.9-23.2,32.9s-45.5-25.4-50.8-19.1c-5.3,6.3,9.4,31,9.4,31
				c-6.4-3-41.5-6-43.9,0c-2.4,6,12.3,21,12.3,21s-65.7,5.8-67.9,12.9c-2.2,7.1,14.6,16.6,14.6,16.6c-16.5,8.8-40.1,27.1-37.6,32.8
				c2.5,5.7,11.3,7.7,11.3,7.7c-7.5,7.8-28.7,39.4-25.7,43.6c3,4.2,13.8,2.2,13.8,2.2c-23,32.8-29.6,88.6-23.5,92.5
				c6.1,3.9,16.6-7,16.6-7c-6.9,23.9,7.8,61.9,13.5,62.5c5.6,0.6,15.4-5.6,15.4-5.6s8.6,44.5,17.4,43.9c8.8-0.6,23.1-16.6,23.1-16.6
				c7.8,15.7,35.4,26.3,40.2,25.4c4.7-0.9,5.3-7.5,5.3-7.5s17.7,13,75.3,18.2c57.5,5.2,87.8-6.9,87.8-6.9s-4.9,9.7,0.3,9.4
				c1.5-0.1,5.7-2.5,10.8-5.8C424.7,469.4,398.9,479.3,357.3,479.7z"/>
			<path fill="#F7E8D6" d="M341.6,255.7c0,0,26.3-43.1,90.8-40.3c64.6,2.8,109.7,86.3,97.3,145.4c-12.5,59.1-62.3,121.8-216.2,101.7
				c-153.8-20.1-172.7-121.2-141.4-182.1S280.5,194.6,341.6,255.7z"/>
			<path fill="#FFF4EA" d="M295.6,393.6c0,0,39.8-49,32.4-88.3c-7.4-39.4-67.6-56-83-55.6c-15.4,0.4,12.4-19.4,40.4-11.2
				c28,8.2,50.5,30.1,59.7,30.5c9.2,0.4,29.9-34.2,64.6-38.8c34.7-4.6,83.7,21.4,88.7,34.2c5,12.8-32.6-8.8-69.5-6.4
				s-59.9,35.2-56,65.7c4,30.4,54.6,47.2,72.3,57c17.7,9.8-8.1,36.3-55.9,43.6C325.2,434.2,280.6,415.9,295.6,393.6z"/>
			<path fill="#F2DCC3" d="M313.6,462.5c131.7,17.2,187.2-26.3,208.2-76.2c-3.4-3-5.8-4.7-5.8-4.7s-55.5,66.8-148,62.5
				c-92.5-4.4-127.9-28.3-100.5-56.6c27.4-28.3,60.3-49.6,33-96.2c-27.3-46.6-90-15.1-88.4-35.5c0.8-9.9,10.9-21.1,21.1-30.1
				c-25.6,8.8-47.6,28.4-61.1,54.7C140.9,341.3,159.7,442.4,313.6,462.5z"/>
			<g>
				<path fill="#7F715A" d="M529.8,360.8c4.3-20.6,1.7-44.1-6.3-66.1c-22.6-16.2-55.8-32.8-91-25.6c-63.4,13-54.9,66.4-7.3,85.5
					c34.7,13.9,61.7,33.3,81.2,58.3C518.8,396.8,526,378.6,529.8,360.8z"/>
				<path fill="#7F715A" d="M164.1,300.8c-12.1,41.4-2.3,92.9,48.6,127.3c6.8-17.9,17.1-36.6,32.3-46.6
					c34.1-22.4,61.8-36.2,46.2-81.5C279,265,219.3,269.4,164.1,300.8z"/>
				<path fill="#6E604E" d="M417.2,323.8c-11.1-15.4-11.5-32.3-8.6-46.3c-36.1,19.9-23.8,60.9,16.5,77.1
					c34.7,13.9,61.7,33.3,81.2,58.3c5.1-6.7,9.3-13.7,12.8-20.9C490.1,358,437.1,351.4,417.2,323.8z"/>
				<path fill="#6E604E" d="M245,381.6c21.8-14.3,40.9-25.1,47.9-42.8c-15.5,9.6-35.5,17.6-47.9,24.7c-18.3,10.4-47.9,30-63.2-12.9
					c-7.7-21.5-6.9-41.8-4.2-56.8c-4.5,2.2-8.9,4.5-13.4,7c-12.1,41.4-2.3,92.9,48.6,127.3C219.5,410.3,229.8,391.5,245,381.6z"/>
				<path fill="#8F7E69" d="M197.1,296.1c0,0,61-21.6,76.7-2.3c15.7,19.3,5.3,39.2-8,45.6s-42.7,25.4-59.1,21.4
					S175.7,305.7,197.1,296.1z"/>
				<path fill="#8F7E69" d="M430.9,285.4c0,0,17.1-9.6,39.4-5c22.3,4.6,38.2,12.4,43.9,27.4c5.8,15,8.1,45.1,0,50.6
					c-8.1,5.5-45-16.9-64.9-26.8C429.5,321.6,409.6,299.5,430.9,285.4z"/>
			</g>
			<g>
				<path fill="#3E1421" d="M365.4,340.5c0.3,6.1-9.7,11.5-22.4,12.1c-12.6,0.5-23.1-4-23.3-10.1c-0.3-6.1,9.5-18.1,22.1-18.6
					C354.4,323.3,365.1,334.3,365.4,340.5z"/>
				<path fill="#4C172A" d="M362.2,339.3c-0.2,4.1-8,7.1-17.5,6.7c-9.5-0.4-17-4-16.9-8.1c0.2-4.1,8.2-11.4,17.7-11
					C355,327.2,362.4,335.2,362.2,339.3z"/>
				<path fill="#2E131C" d="M347.7,348.9c-12.6,0.5-23.1-4-23.3-10.1c-0.1-3.1,2.2-7.6,6.2-11.4c-6.7,4.1-11.1,10.9-10.9,15
					c0.3,6.1,10.7,10.6,23.3,10.1c9.3-0.4,17.2-3.5,20.6-7.5C359.6,347.2,354,348.6,347.7,348.9z"/>
				<g>
					
						<ellipse transform="matrix(0.9501 -0.3121 0.3121 0.9501 -87.9937 126.9952)" fill="#190D11" cx="352.8" cy="338.4" rx="4.6" ry="5.4"/>
					<path fill="#010101" d="M355.2,341.6c-2.4,0.8-5.1-0.8-6-3.7c-0.3-1-0.3-1.9-0.1-2.9c-0.9,1.3-1.2,3-0.6,4.8
						c0.9,2.8,3.6,4.5,6,3.7c1.6-0.5,2.6-2,2.8-3.7C356.8,340.6,356.1,341.3,355.2,341.6z"/>
					
						<ellipse transform="matrix(0.8164 -0.5775 0.5775 0.8164 -129.8762 265.9388)" fill="#281018" cx="353.3" cy="337.2" rx="2.7" ry="3.1"/>
				</g>
				<g>
					
						<ellipse transform="matrix(0.9486 0.3165 -0.3165 0.9486 124.6144 -87.8292)" fill="#190D11" cx="332.6" cy="339.6" rx="4.6" ry="5.4"/>
					<path fill="#010101" d="M332.7,343.6c-2.4-0.8-3.6-3.7-2.7-6.5c0.3-1,0.9-1.7,1.6-2.4c-1.5,0.5-2.8,1.7-3.3,3.5
						c-0.9,2.8,0.3,5.7,2.7,6.5c1.6,0.5,3.2-0.1,4.5-1.3C334.5,343.8,333.6,343.9,332.7,343.6z"/>
					
						<ellipse transform="matrix(0.9997 2.384563e-002 -2.384563e-002 0.9997 8.1796 -7.8632)" fill="#281018" cx="333.8" cy="339" rx="2.7" ry="3.1"/>
				</g>
			</g>
			<g>
				<path fill="#FEC413" d="M450.8,200c0,0,5.6-9.7,15.2-5.6c3.9,10.4,13.1,26.3,35.4,20.2c2.4,3.5,4.5,13.8,1.4,16.1
					c-11.5,4.4-22.2,9.4-14.2,32.4c-9,4.8-18.6,4.9-19.9,3.3c-2.4-8.3-3.1-28.4-27.4-19.1c-4.1-3.3-6.2-14.4-4.2-15.6
					c10.4-3.4,14.3-5.9,16.2-9.1C455.3,219.4,451.6,204.4,450.8,200z"/>
				<g>
					<path fill="#010101" d="M436.4,235.3c-1.8,0.3-3.6-1-3.9-2.8c-0.3-1.9,1-3.6,2.8-3.9c7.5-1.2,12.3-4,14.4-8.3
						c3.9-8.1-2.4-19.6-2.4-19.7c-0.9-1.6-0.3-3.7,1.3-4.6c1.7-0.9,3.7-0.3,4.6,1.3c0.3,0.6,8.1,14.6,2.6,26
						C452.8,229.6,446.2,233.7,436.4,235.3C436.4,235.3,436.4,235.3,436.4,235.3z"/>
				</g>
				<g>
					<path fill="#010101" d="M497,218.2c-5.6,1.5-10.9,1.2-15.9-1c-12.8-5.7-18-22-18.2-22.7c-0.6-1.8,0.4-3.7,2.2-4.3
						c2-0.6,3.7,0.4,4.3,2.2c0,0.1,4.5,14,14.5,18.5c4.6,2.1,9.7,1.8,15.5-0.9c1.7-0.7,3.7,0,4.5,1.7c0.8,1.7,0,3.7-1.7,4.5
						C500.5,217.1,498.8,217.7,497,218.2z"/>
				</g>
				<g>
					<path fill="#010101" d="M469.6,269c-0.1,0-0.2,0-0.3,0.1c-1.9,0.3-3.6-0.9-4-2.7c-1.4-8-4.4-13.2-8.9-15.6
						c-6.1-3.3-13.3-0.2-13.4-0.2c-1.7,0.7-3.7,0-4.5-1.8c-0.8-1.7,0-3.7,1.7-4.5c0.4-0.2,10.2-4.4,19.3,0.4
						c6.4,3.4,10.6,10.3,12.4,20.4C472.4,266.8,471.3,268.5,469.6,269z"/>
				</g>
				<g>
					<path fill="#010101" d="M489.7,266.4c-1.6,0.4-3.3-0.3-4-1.9c-5-10.8-5.4-19.8-1.5-26.5c5.7-9.7,18.3-10.7,18.9-10.8
						c1.9-0.1,3.5,1.3,3.6,3.1c0.1,1.9-1.3,3.5-3.1,3.7c-0.1,0-9.7,0.9-13.6,7.5c-2.8,4.7-2.2,11.5,1.8,20.2c0.8,1.7,0,3.7-1.7,4.5
						C490.1,266.3,489.9,266.3,489.7,266.4z"/>
				</g>
			</g>
			<g>
				<path fill="#700F11" d="M477.4,280.4l-74.6,36.5c0,0,18.9,25.2,48.9,16.3C481.7,324.4,477.4,280.4,477.4,280.4z"/>
				<path fill="#56100F" d="M451.7,333.2c20.4-6,25-28.3,25.8-41.9c-3.2,8.6-10.7,22.5-27.6,29.2c-18.4,7.2-31.6-2.4-37.4-8.2
					l-9.7,4.7C402.8,316.9,421.7,342.1,451.7,333.2z"/>
				<path fill="#89171A" d="M467,292.1l-41.8,19.7C425.1,311.8,452.5,326.2,467,292.1z"/>
				<path fill="#010101" d="M441,330.4c27.4-6,31.1-35.2,33.6-48.6l2.9-1.4c0,0,4.3,44-25.7,52.9c-14.3,4.2-26.1,0.7-34.5-4.2
					C422.5,330.7,430.4,332.7,441,330.4z"/>
			</g>
			<ellipse fill="#F9B7B8" cx="493.4" cy="338.7" rx="13.4" ry="11.9"/>
			<ellipse fill="#F9B7B8" cx="195.1" cy="356.8" rx="13.4" ry="11.9"/>
			<g>
				<path fill="#700F11" d="M212.6,291.3l72.7,38c0,0-19.3,24.3-48.7,14.8S212.6,291.3,212.6,291.3z"/>
				<path fill="#56100F" d="M277.7,336.5c-7,0.9-16,0.7-26.6-2.8c-17.6-5.8-21.1-23.5-21.6-33.6l-16.9-8.8c0,0-5.3,43.3,24,52.8
					C255,350.1,269.5,342.8,277.7,336.5z"/>
				<path fill="#010101" d="M247.3,341.6c-26.9-6.7-29.8-35.6-31.9-48.8l-2.9-1.5c0,0-5.3,43.3,24,52.8c14,4.5,25.8,1.4,34.2-3.2
					C265.6,342.4,257.7,344.1,247.3,341.6z"/>
				<path fill="#89171A" d="M237.6,309.5l40.1,21C277.7,330.6,245.7,339,237.6,309.5z"/>
			</g>
			<g>
				<path fill="#010101" d="M391.5,387.4c-0.6,0-1.1-0.3-1.5-0.8c-21.3-31.2-73.8-20.4-74.3-20.3c-1,0.2-1.9-0.4-2.1-1.4
					c-0.2-1,0.4-1.9,1.4-2.1c2.3-0.5,55.4-11.4,78,21.8c0.5,0.8,0.3,1.9-0.5,2.4C392.2,387.3,391.8,387.4,391.5,387.4z"/>
			</g>
		</g>
		<g>
			<path fill="#F0EFEF" d="M598.9,323.1c0,0,1.4-17.8,20.2-20.2c18.9-2.4,19.5,13.7,22.3,16.3c2.9,2.6,39.2-11.3,49.7,17.2
				c10.5,28.5-6.5,40.7-16.5,45.2c-10,4.5-17.7,0.3-19.2,4.3c-1.5,4.1-1.3,16.9-19.1,20.2c-17.8,3.3-29.7-0.9-35.3-14.8
				c-3.3-8.2,0.2-13.9-2.1-15.5c-2.3-1.6-11,2.3-16.7,0c-5.8-2.3-3.5-39.8-1.8-41c1.8-1.2,12.5-0.5,15.2-1.2
				C598.3,332.9,598.2,326.7,598.9,323.1z"/>
			<path fill="#E2E2E2" d="M692.5,363.9c-17.3,17.2-40.2,9-42.2,16.1c-2.2,7.9-12.5,22.1-27.8,17c-15.3-5.1-13.1-23.5-17.6-28.4
				c-4.5-4.9-12.9-1.4-16.6-6.1c-2.2-2.8-3.9-16.8-4.7-28.1c-1.5,0.1-2.7,0.3-3.2,0.6c-1.8,1.2-4,38.6,1.8,41
				c5.8,2.3,14.5-1.6,16.7,0c2.3,1.6-1.2,7.3,2.1,15.5c5.6,13.9,17.5,18.1,35.3,14.8c17.8-3.3,17.7-16.1,19.1-20.2
				c1.5-4.1,9.2,0.2,19.2-4.3C680.5,378.9,688.8,373.6,692.5,363.9z"/>
			<path fill="#FFFFFF" d="M606.6,331.4c0,0,3-22.5,16.5-22.2c13.5,0.4,10.6,16.5,17.9,18.7c7.3,2.1,26.4-3.8,36.5,3.5
				c10.1,7.3,10.6,22.1,4.1,30.5c-6.5,8.5-25.1,4.1-30.5,8c-5.4,3.9-7.6,16.3-19.1,17.9c-11.5,1.6-13.1-20.8-18.8-24.9
				c-5.6-4.1-14-3.9-17.3-6.4c-3.3-2.5-4.3-14.6-2.7-16.7C594.7,337.6,604.6,339.4,606.6,331.4z"/>
		</g>
		<g>
			<path fill="#F0EFEF" d="M154.3,146.4c0,0,10.1-13.5-1.8-27c-11.9-13.5-22.3-2.4-26-2.3s-20.8-32.4-46.1-18.7
				c-25.2,13.7-20.7,33-16.4,42.4c4.3,9.4,12.4,11.2,10.9,15c-1.5,3.8-9.6,12.8,1,26.3c10.6,13.4,21.7,17.8,34.3,11.5
				c7.5-3.8,8.5-10,11.1-9.7c2.6,0.3,6.3,8.5,11.9,10.4c5.5,1.9,27.3-26.1,26.8-28c-0.5-2-8.6-8.1-10-10.3
				C148.6,153.7,152.6,149.3,154.3,146.4z"/>
			<path fill="#E2E2E2" d="M62.3,117.1c1.6,23,23,31.4,20,37.7c-3.4,7-4.9,23.5,9.2,29.4c14.1,5.9,23.9-8.6,30.2-9.2
				c6.2-0.6,10,7,15.6,6c3.3-0.6,13.2-9.5,20.8-17.1c1,1,1.7,1.9,1.9,2.4c0.5,2-21.2,30-26.8,28c-5.5-1.9-9.3-10.1-11.9-10.4
				c-2.6-0.3-3.7,5.9-11.1,9.7c-12.6,6.4-23.7,2-34.3-11.5c-10.6-13.4-2.5-22.5-1-26.3c1.5-3.8-6.7-5.6-10.9-15
				C61.5,135.2,58.9,126.3,62.3,117.1z"/>
			<path fill="#FFFFFF" d="M143.7,147.4c0,0,11.8-17.9,2-26c-9.8-8.1-17.8,5.2-24.3,2.1c-6.5-3-16.4-19.1-28.1-20.2
				c-11.7-1.1-21.3,9.1-21.9,19.1c-0.6,10.1,15.3,18.5,16.7,24.7c1.4,6.2-4.7,16.4,2.5,24.6c7.2,8.3,22.3-6.6,28.8-6
				c6.5,0.6,12.4,5.9,16.3,6.2c3.9,0.3,12.1-7.7,12.3-10.2C148.2,159.2,140.1,154.4,143.7,147.4z"/>
		</g>
		<g>
			<path fill="#F0EFEF" d="M495.7,123.4c0,0,15.4,6.9,25.9-7.7c10.5-14.6-2.5-22.3-3.4-25.9c-0.9-3.6,27-27.4,8.1-49
				c-18.9-21.6-36.7-12.9-44.9-6.7c-8.2,6.2-8.2,14.6-12.3,14c-4-0.6-14.6-6.5-25.4,6.8c-10.8,13.3-12.7,25.1-3.7,36
				c5.3,6.4,11.6,6.1,11.9,8.7c0.3,2.6-6.9,8.1-7.6,13.9c-0.7,5.8,31.4,20.9,33.2,20c1.8-0.9,6-10.1,7.9-12
				C487.3,119.5,492.4,122.4,495.7,123.4z"/>
			<path fill="#E2E2E2" d="M504.1,27.3c-22.1,6.6-25.6,29.3-32.4,27.8c-7.6-1.7-24,0.4-26.6,15.4c-2.6,15,13.6,21.5,15.6,27.4
				c2,5.9-4.7,11.3-2.4,16.6c1.3,3.1,12.2,10.8,21.3,16.6c-0.8,1.2-1.5,2.1-2,2.4c-1.8,0.9-33.9-14.1-33.2-20
				c0.7-5.8,7.8-11.3,7.6-13.9c-0.3-2.6-6.6-2.3-11.9-8.7c-9-10.9-7.1-22.7,3.7-36c10.8-13.3,21.4-7.4,25.4-6.8c4,0.6,4-7.7,12.3-14
				C486.2,30.4,494.4,26,504.1,27.3z"/>
			<path fill="#FFFFFF" d="M492.3,113.3c0,0,20.1,7.6,25.9-3.7c5.8-11.3-8.9-16.3-7.4-23.3c1.5-7,15.1-20.2,13.6-31.9
				c-1.5-11.6-13.5-18.8-23.5-17.2c-10,1.6-14.7,19-20.4,21.7c-5.7,2.8-17-1-23.5,7.8c-6.5,8.8,11.3,20.3,12.2,26.8
				c0.8,6.5-3.1,13.4-2.5,17.3c0.6,3.9,10.2,10.1,12.6,9.8C481.8,120.3,484.7,111.3,492.3,113.3z"/>
		</g>
	</g>
	<path fill="#F8E4CA" d="M274.5,614.7c0,0-17.8-17.7-20.3-18.3c-2.5-0.6,5,7.6,7.7,10.3c2.7,2.7,13.3,12.5,13.6,12.3
		C275.8,618.7,275.5,615.7,274.5,614.7z"/>
	<path fill="#D8B89A" d="M304.3,596.4c0,0,15.1-4.8,21.4-8.1c6.3-3.3,5,6.6,10.5,4.8c5.5-1.7,20.7-12.8,27.6-14.1
		c6.9-1.3,9.4,2.7,16.4,2.1c7-0.6,14.4-2.7,16.9-1.4c2.5,1.3,19.6,14.6,30,15.2c10.3,0.6-0.2-14.7-3.5-16.2
		c-3.4-1.5,2.9-10.8-2.4-13.5c-5.3-2.7-19.3-3.2-24.7-4c-5.5-0.8-4-10.2-12.8-8.8c-8.8,1.4-23.5,10.3-27.3,10.5s-9.5-7.5-15.9-6.2
		c-6.4,1.3-16.4,11.4-19.9,11.8c-3.5,0.4-8.7-9.5-13.6-10.6c-4.9-1.1-7,3-11.9-1c-4.9-3.9-21.9-16.3-26.2-14.3
		c-4.3,2-5.3,4.4-12.4,4.8c-7,0.4-15.7-0.6-19.5,3.6c-3.8,4.2,22.3,20.9,28,20.4c5.7-0.5,6.9-2.9,10.9-1.3c4,1.5,20.3,10.2,22.8,9.7
		c2.5-0.5,2.9-3.5,4.2-2.8s4.5,4.1,2.6,5.1c-2,1-10.3,0.7-13.8,2.2c-3.5,1.4-4.7,7.3-7.9,7.1c-3.2-0.2-19.2-13.2-21.2-12.3
		c-2,0.9-1.7,2.9-3.4,2.6c-1.7-0.3-12-3.2-13-0.5c-1,2.7,4.6,7.4,3.2,9.7c-1.4,2.3-2.8,0.1-2.4,7c0.4,6.9,22.1,23.4,26.3,27.9
		c4.2,4.4,14.2,17,10.4,19.1c-3.8,2.1-20.9-0.3-24.9,0.9c-4,1.3-3.9,2.9-7.1,3.6c-3.2,0.7-17.8-3-22.7-2.2c-4.8,0.8-10.5-3.2-14-9.8
		c-3.4-6.7-10.5-16.1-11.4-22.3c-0.9-6.3-3.4-17-3.4-21.2s4.6-20.8,6.8-25.4s9.8-12.6,7.5-16.6c-2.4-4-0.1-6.7,6.7-12.5
		s21.9-14.4,23.5-17.9c1.6-3.6,8.7-7,14.1-11.4c5.4-4.4,8.4-7.7,6.8-11.3c-1.6-3.6-4.4-4.8-3.4-7.2c0.9-2.4,5.5-8,8.3-8
		c2.8,0,18.6,14.2,59.6,16.3c41,2,68.1-6.6,73.1-4c5,2.6,18.6,12.1,21.5,17.5c2.8,5.4-6.3,5.1-5,9.7s38.6,25.8,40.7,29.4
		c2.2,3.6,1.2,9.1,3.2,12.7c2,3.5,22.1,23.6,17,28.1c-5.1,4.5-7.2,0.4-7.8,7c-0.7,6.6,1.2,27.1-16.2,34.8
		c-17.4,7.7-37.1,2.6-42.4,3.8c-5.3,1.2-3.4,5.5-7.3,7.8c-3.9,2.3-29.1-4.2-34.3-1.6c-5.1,2.6-8.6,3-17.3,0s-24-9-28.1-7.8
		c-4,1.2-10.5,0-19.2-12.1C299.3,612.7,295.7,599.3,304.3,596.4z"/>
	<path fill="#FDC20F" d="M152,564.8c0.9-0.1-9.4,7.2-8.9,13.1c0.5,5.9,2.5,7.7,2.7,16.4c0.3,8.6-2,17.7-2,17.7s1.1-12.7-0.7-20.6
		c-1.9-7.9-4.5-11.1-3-15.7C141.5,571.1,147.5,565.4,152,564.8z"/>
	<path fill="#FDC20F" d="M129,577.4c0,0-6.9,12.8-4.3,20.5c2.6,7.7,13.7,14.6,14.9,19.1c1.3,4.5-1.3,8-1.3,8s0.8-6.7-5.5-12.1
		c-6.2-5.4-12.4-10.2-11.9-18.6C121.5,585.8,129,577.4,129,577.4z"/>
	<path fill="#FDC20F" d="M516.8,575.7c0,0,15.2,12.5,5.5,25.7c0,0,7.7-3.3,6.6-12.9C527.9,579,516.8,575.7,516.8,575.7z"/>
	<path fill="#FDC20F" d="M536.6,578.4c0,0,7.9,7.2,8.2,17.7c0.3,10.5-6.5,19.1-6.5,19.1s11.3-7.7,11.1-19.4
		C549.1,584.1,536.6,578.4,536.6,578.4z"/>
	<path fill="#FDC20F" d="M567.7,452.7c0,0,15.2,12.5,5.5,25.7c0,0,7.7-3.3,6.6-12.9C578.8,456,567.7,452.7,567.7,452.7z"/>
	<path fill="#FDC20F" d="M579.9,443.9c0,0,7.9,7.2,8.2,17.7c0.3,10.5-6.5,19.1-6.5,19.1s11.3-7.7,11.1-19.4
		C592.4,449.5,579.9,443.9,579.9,443.9z"/>
	<g>
		<path fill="#E5CFAD" d="M132.4,455.8c0,0,4.1,8.7,1.6,10.5c-2.5,1.8-24.1-8.7-30.2-19c-6.2-10.4,4.2-17.2,12.3-17.2
			c0,0,13.5-16,22.2-9.8c8.7,6.2,11.3,40.4,9.1,41.9c-2.1,1.4-11.4-9.8-11.7-9.3C135.5,453.2,132.4,455.8,132.4,455.8z"/>
		<g>
			<g>
				<path fill="#D1B898" d="M128.2,463c-6.5-2.1-19.4-12.6-22.7-19c-1.3-2.6-1.9-5.4-2-7.9c-2,2.9-2.4,6.7,0.3,11.1
					c6.2,10.4,27.8,20.9,30.2,19c2.5-1.8-1.6-10.5-1.6-10.5S134.7,465,128.2,463z"/>
				<path fill="#D1B898" d="M138.1,436.5c-3-8.4-7.1-13.4-10.2-16.2c-2.5,1.2-4.9,3-6.8,4.7l11.3,30.7c0,0,3.1-2.6,3.3-3.1
					c0.2-0.5,9.5,10.8,11.7,9.3c0.4-0.3,0.6-1.6,0.7-3.7C142.8,455.6,142.8,449.8,138.1,436.5z"/>
			</g>
		</g>
		<path fill="#E5CFAD" d="M131.4,459.3c0,0-20.4-24.7-16.8-31.8c3.6-7.1,13.5-9.2,19.4,4.1c5.9,13.3,10.5,35.9,9,38.3
			C141.3,472.1,131.4,459.3,131.4,459.3z"/>
		<path fill="#D1B898" d="M142.9,465c-1.6,2.3-11.5-10.6-11.5-10.6s-14.2-17.2-16.8-27c-3.6,7.1,16.8,31.8,16.8,31.8
			s9.9,12.9,11.5,10.6c0.4-0.6,0.4-2.4,0.1-5C143,464.9,142.9,464.9,142.9,465z"/>
		<path fill="#F8E4CA" d="M132.8,435.9c0,0,7.9,21.8,7,24c-0.9,2.3-19.7-25.9-20.3-31.8C118.9,422.2,128,421.9,132.8,435.9z"/>
		<path fill="#F8E4CA" d="M107.1,436.1c0,0,2.9-2.7,4.5-2.4c1.6,0.3,2.4,3.9,6.8,10.9c4.5,7,11.8,14.3,11.1,15.4
			c-0.7,1.1-5.7-2.5-11.6-6.8C112,448.9,103.3,440.6,107.1,436.1z"/>
		<path fill="#F8E4CA" d="M133.3,421.8c0.2,0,3.3-1.4,5.9,1.7c2.5,3.1,8.4,25.2,6.7,28.6c-1.6,3.4-2.3-4.7-6-16
			C138.4,431.6,131.5,422.1,133.3,421.8z"/>
	</g>
	<g>
		<path fill="#E5CFAD" d="M516.9,479.3c0,0-8.5,7.8-11.5,5.6c-3-2.2,1.5-30.8,11.2-41.6c9.8-10.8,21.3-1.2,24.2,8.1
			c0,0,23.3,9.8,19.2,22.1c-4.1,12.2-42.6,27.3-45,25.4c-2.4-2,7.3-16.7,6.6-16.8C520.9,482,516.9,479.3,516.9,479.3z"/>
		<g>
			<g>
				<path fill="#D1B898" d="M507.1,477c0.1-8.3,7.7-26.8,13.8-32.8c2.5-2.4,5.6-4.1,8.4-5.1c-4-1.2-8.5-0.4-12.7,4.3
					c-9.8,10.8-14.2,39.4-11.2,41.6c3,2.2,11.5-5.6,11.5-5.6S507,485.2,507.1,477z"/>
				<path fill="#D1B898" d="M541.1,479c8.6-6.4,12.9-13,15-17.5c-2.3-2.4-5.2-4.5-7.9-6.2l-31.4,24c0,0,4.1,2.7,4.7,2.8
					c0.7,0.1-9,14.8-6.6,16.8c0.4,0.4,2.1,0.2,4.5-0.5C520.7,491.2,527.5,489.2,541.1,479z"/>
			</g>
		</g>
		<path fill="#E5CFAD" d="M512.5,479.4c0,0,21.3-32.3,30.7-30.7c9.4,1.6,15.4,12.3,2.1,23.8s-37.7,24.9-40.9,23.9
			C501.2,495.3,512.5,479.4,512.5,479.4z"/>
		<path fill="#D1B898" d="M509.9,494.6c-3.2-1,8.1-17,8.1-17s14.8-22.5,25.2-29c-9.4-1.6-30.7,30.7-30.7,30.7s-11.3,16-8.1,17
			c0.8,0.3,2.9-0.4,5.8-1.7C510.1,494.7,510,494.7,509.9,494.6z"/>
		<path fill="#F8E4CA" d="M540,472.7c0,0-22.3,16.8-25.2,16.6c-2.9-0.2,22.8-31.8,29.4-34.7S554.4,462.1,540,472.7z"/>
		<path fill="#F8E4CA" d="M530.6,443.1c0,0,4.2,2.3,4.4,4.3c0.2,1.9-3.6,4.1-10.2,11.7c-6.5,7.6-12.3,18.7-13.9,18.2
			c-1.6-0.5,0.8-7.5,3.7-15.8C517.6,453.3,524,440.4,530.6,443.1z"/>
		<path fill="#F8E4CA" d="M556.3,468.3c0.1,0.3,2.8,3.3,0.2,7.4s-26.1,18.6-30.6,17.9c-4.5-0.7,4.7-4.3,16.3-12.6
			C546.9,477.6,555.3,466.3,556.3,468.3z"/>
	</g>
	<path fill="#D8B89A" d="M125,468.5c0,0,8.6,2.1,13.1,5.7c4.5,3.6,9.9,4.6,10.8,1.5c0.9-3,0.9-7.2,3-11.6c2.2-4.4-2.3-23.4-0.9-24.3
		c1.3-0.9,13.4,7.6,14.8,13c1.4,5.4,5.2,21.5,11.4,23.6c6.2,2.1,17.8-6.5,21.1-6.4c3.2,0.1,6.5,9.2,8.9,9.8
		c2.5,0.6,9.9-5.5,13.5-4.2c3.6,1.3,21.8,4.8,20.7,7.7c-1.1,2.9-10.1,7.9-12,10.7c-1.9,2.8,4.4,6,3.2,8c-1.1,2-15.2,8.7-17.3,11
		c-2.1,2.3,1.9,6.4-0.4,8.4c-2.3,2-7.8,8.4-15.1,8.9s-35.5-5.1-37.9-7.2c-2.4-2.1,2.3-9.5,0.4-12.3c-1.9-2.8-18.7-6.7-19.2-9.7
		c-0.5-2.9-0.2-7.8-3.3-11.2c-3.1-3.4-8.3-7.2-12.8-13.3C122.7,470.6,121.9,467.6,125,468.5z"/>
</g>
</svg>
