<?xml version="1.0" encoding="utf-8"?>
<!-- Generator: Adobe Illustrator 17.1.0, SVG Export Plug-In . SVG Version: 6.00 Build 0)  -->
<!DOCTYPE svg PUBLIC "-//W3C//DTD SVG 1.1//EN" "http://www.w3.org/Graphics/SVG/1.1/DTD/svg11.dtd">
<svg version="1.1" id="Layer_1" xmlns="http://www.w3.org/2000/svg" xmlns:xlink="http://www.w3.org/1999/xlink" x="0px" y="0px"
	 width="686.7px" height="433.7px" viewBox="5.9 127.4 686.7 433.7" enable-background="new 5.9 127.4 686.7 433.7"
	 xml:space="preserve">
<g>
	<g>
		<g>
			<path fill="#242860" d="M246.6,279.6c0,0-39.4-14.3-42.4-27.2c-3-12.9,13.4-5.5,14.9-26.8s5-22.8,20.1-34.6
				c15.2-11.8,30.7-32.4,52.4-36.3c21.7-3.8,22.9-12.2,43.3-12.7s28.3-0.6,54.8,5.3c26.5,5.9,44.8,3.3,70.5,12.9
				c25.6,9.6,16.1,23.5,43.8,41.6s27.9,59.5,32.1,68.7c4.2,9.3-10.2,24.1-9,41s-3,37.3-8.3,56.7c-5.3,19.4-8.9,49.6-49.3,48.5
				C429.1,415.7,244.4,321.2,246.6,279.6z"/>
			<path fill="#283372" d="M525.7,250.8c-3.9-10.4-12-27.3-25.2-38.9c-13.3-11.6-22.9-27.2-32.6-35.6c-9.7-8.4-25.8-13.7-45.2-16.4
				c-19.5-2.7-72.9-12.3-86.4-10.4c-13.5,1.8-47,12.9-57.4,22c-10.4,9-29.8,29.4-29.8,29.4c-5.4,5.6-14.1,20-16.7,32
				c-2.6,12-3.5,19.3-1.5,18.9c2-0.3,9.4-11.5,9-14.1s-3-9.2,13-22.4s32.5-17.5,41.3-22.2s3.8-4,13.5-8.4s29.9-4.1,38.5-5.7
				c8.6-1.5,16.4-9,41.8-9.1c25.3-0.1,25.7,14.6,43.3,17.7c17.6,3.2,32.4,17.1,41.3,26s23.5,27.5,26.1,39.8
				c2.6,12.3,10,24.4,12.7,31.5c2.7,7.2-0.2,14.4,0.3,19.4s2,13.9,3.8,25.2c1.7,11.3-4.8,20-5.4,29.6c-0.7,10.7-3,20.9-4.5,28l0,0
				l0,0c0,0.2-0.1,0.4-0.1,0.6c-0.8,3.2-4.3,14.2-6.6,16.6c-2.4,2.5-9,0.1-11.6,1.5s-4.3,6.6-4.4,7.6s11.2-2.6,16.3-6.3
				c5.1-3.7,9-13.2,10.4-18.3c3.2-9.8,5.3-26.2,8.2-34.1c3.9-10.5,5.2-31.1,5-42.5s2.6-21.9,6.5-28.9
				C533.1,275.9,529.6,261.2,525.7,250.8z"/>
			<g>
				<path fill="#1B1B4F" d="M505.8,340.4c-4-7.6-27.9-6.1-28.5-4.8c-0.6,1.3-0.7,41.2-6.1,45.6s-9.2,16.2-12.1,24.5
					c-1.2,3.3-1.2,6.5-0.7,9.4c4.4,1,8.2,1.6,11.1,1.7c2.3,0.1,4.5,0,6.6-0.1c3.8-5.1,8.7-14.6,10-15c1.6-0.5,7,2.2,10.2-0.7
					c3.2-2.9,6.1-15.7,7.8-30.5C505.8,355.8,505.8,340.4,505.8,340.4z"/>
			</g>
		</g>
		<path fill="#1B1B4F" d="M221.6,249.6c4.8-8.2,4.9-27.2,13.7-43.3c5.9-10.9,25.5-24.1,37.2-43.5c-12.5,8.1-22.9,20.2-33.3,28.3
			c-15.2,11.8-18.7,13.3-20.1,34.6c-1.5,21.3-17.8,13.9-14.9,26.8c3,12.9,42.4,27.2,42.4,27.2c-0.2,4.5,1.7,9.6,5.4,15.1l0,0
			l12.4-12.6C264.3,282.1,216.8,257.8,221.6,249.6z"/>
	</g>
	<path fill="#E5CFAD" d="M316.4,541.6c-0.2,0.1-1.6,4-0.9,5.1c0.8,1.1,9.2-2.7,16.5-11.9c7.3-9.1,8.7-18.2,8.7-18.2
		s-10-0.4-10.1-0.4C330.4,516.3,316.4,541.6,316.4,541.6z"/>
	<path fill="#D1B898" d="M333.7,516.4c-1.7-0.1-3.1-0.1-3.2-0.1s-14.2,25.4-14.2,25.4c-0.2,0.1-1.6,4-0.9,5.1
		c0.3,0.4,1.7,0.1,3.7-0.9c0.1-1.1,0.9-3.2,3.9-6.8c5.2-6,10.6-21.3,10.6-21.3S333.8,517.1,333.7,516.4z"/>
	<path fill="#E5CFAD" d="M313.1,513.8c0,0-1.3,7.2-6.8,19.3c-5.6,12.1-2,11.9,4.2,8.9s12.2-25.2,12.2-25.2L313.1,513.8z"/>
	<path fill="#D1B898" d="M308.5,531.6c3.8-8.3,5.6-14.4,6.4-17.3l-1.8-0.6c0,0-1.3,7.2-6.8,19.3c-5.6,12.1-2,11.9,4.2,8.9
		c0.5-0.2,1-0.6,1.5-1.1C306.2,543.5,303.2,543.2,308.5,531.6z"/>
	<g>
		<path fill="#E5CFAD" d="M319.8,515.4c-0.5-0.3-2.1,11.5-8.6,23.1s-2.3,11.9,6.2,5.4s15.2-26.5,15.2-26.5L319.8,515.4z"/>
		<path fill="#D1B898" d="M313.5,537.8c5.3-9.5,7.4-19.1,8.2-22.1l-1.9-0.3c-0.5-0.3-2.1,11.5-8.6,23.1c-4.9,8.7-3.7,11,0.7,8.9
			C309.6,547.6,309.7,544.7,313.5,537.8z"/>
		<path fill="#F8E4CA" d="M313.8,541.4c0,0,2.9-5.2,4.8-10.3c1.6-4.4,3.2-9,3.7-9.7c0.6-0.7,4.3-1.1,5.3,0.4s-3.7,12.8-8.9,18.1
			C313.6,545.2,311.9,545.7,313.8,541.4z"/>
	</g>
	<path fill="#C6A685" d="M301.2,453.6c0,0-3.8,21.3,0.6,32.6c0.9,2.3,6.6,0.5,6.6,0.5s-4.1,16.1-3.4,19.9c0.8,3.8,5.5,0.9,5.5,0.9
		s-0.7,4.4,1.6,8c2.3,3.6,24.3,4.4,28.1,2.7s5.4-10.5,5.4-10.5s2.3,2.7,5.7,1.9c3.4-0.8,2.7-26.7,2.7-26.7s4.1-1.9,6.1-4.7
		c1.9-2.8,3-27.9,3-27.9L301.2,453.6z"/>
	<path fill="#B59374" d="M340.1,518.2c1.4-0.6,2.6-2.3,3.4-4.2c-26.5,2.4-27.4-5.1-28-7.3c-0.6-2.3-3.1-3.8-4.1-6.2
		c-1-2.3,2.2-15.1,0-17.1c-2.2-1.9-4.4,0.7-6.4-6.8c-1.3-4.9-0.9-16.2-0.5-23.2l-3.4,0.2c0,0-3.8,21.3,0.6,32.6
		c0.9,2.3,6.6,0.5,6.6,0.5s-4.1,16.1-3.4,19.9c0.8,3.8,5.5,0.9,5.5,0.9s-0.7,4.4,1.6,8C314.4,519.1,336.3,519.8,340.1,518.2z"/>
	<g>
		<path fill="#E5CFAD" d="M252.1,520.8c0,0,3,9.4,10.5,16.8c7.5,7.3,11.5,7.1,12.7,2.2s-11.7-23-11.7-23L252.1,520.8z"/>
		<path fill="#D1B898" d="M262.9,534.7c-5.1-5-8.2-11.1-9.6-14.4l-1.2,0.4c0,0,3,9.4,10.5,16.8c7.5,7.3,11.5,7.1,12.7,2.2
			c0.1-0.5,0.1-1.1,0-1.8C273.8,541.8,269.8,541.5,262.9,534.7z"/>
		<path fill="#E5CFAD" d="M274.2,516.7c0,0,12.9,24.9,10.7,28.6c-2.1,3.7-13.8-3.1-22.2-25L274.2,516.7z"/>
		<path fill="#D1B898" d="M264.1,519.9l-1.4,0.4c8.4,21.8,20.1,28.6,22.2,25c0.3-0.5,0.3-1.4,0.1-2.6
			C282.4,545.4,272.1,539,264.1,519.9z"/>
		<path fill="#E5CFAD" d="M272.6,515.7c0,0,3.9,17.7,10.7,22.5c5.6,3.9-1.4-24.4-1.4-24.4L272.6,515.7z"/>
		<path fill="#D1B898" d="M284.1,535.9c-5.4-3.8-9-15.7-10.2-20.5l-1.2,0.3c0,0,3.9,17.7,10.7,22.5c1.4,1,2,0,2.1-2.1
			C285.1,536.4,284.7,536.3,284.1,535.9z"/>
		<path fill="#F8E4CA" d="M277.4,519.2c0,0,2.3-1.5,3.5-0.9c1.1,0.6,3.9,13.9,2.8,14.6C282.6,533.7,275.8,520.1,277.4,519.2z"/>
		<path fill="#F8E4CA" d="M268.3,522.1c0,0,2.1-1,3.3-0.6c1.2,0.4,2.3,4.2,4.9,9.6c2.6,5.4,5.4,7,6.1,8.8s-3.5,1-6.6-2.9
			C271.7,531.8,266.4,522.8,268.3,522.1z"/>
		<path fill="#F8E4CA" d="M258.9,524.5c0,0,2.1-1,3-0.5c1,0.5,2.2,4.1,4.2,7.4c1.9,3.4,5.1,6.4,4.9,7.3c-0.1,0.9-4.7-2.2-8.5-6.3
			C258.8,528.4,257.8,525.1,258.9,524.5z"/>
	</g>
	<g>
		<path fill="#E5CFAD" d="M175.3,521.4c0,0,1.3,9.7,2.7,19.2s0.5,16-3.4,12.3c-4-3.7-9.3-28.5-9.3-28.5L175.3,521.4z"/>
		<path fill="#D1B898" d="M176.4,550.6c-1.6-2.1-7.8-24-7.8-24s-0.8-1.2-1.9-2.6l-1.4,0.4c0,0,5.3,24.9,9.3,28.5
			c2,1.9,3.2,1.1,3.8-1.3C177.6,551.5,176.9,551.2,176.4,550.6z"/>
		<g>
			<path fill="#E5CFAD" d="M154.4,520.6c0,0,4.7,13.2,11.1,29.6c6.4,16.4-15.8-5.2-21.4-23.9L154.4,520.6z"/>
			<path fill="#D1B898" d="M145.4,525.6l-1.3,0.7c5.3,17.6,25.1,37.7,22.3,26.6C163.2,553.6,150.4,539.3,145.4,525.6z"/>
		</g>
		<g>
			<path fill="#E5CFAD" d="M166.9,524.4c0,0,3.9,13.4,9.3,30.2c5.3,16.8-15.4-6.1-19.9-25.2L166.9,524.4z"/>
			<path fill="#D1B898" d="M157.6,528.8l-1.3,0.6c4.2,17.9,22.7,39.1,20.6,27.9C173.6,557.9,161.8,542.9,157.6,528.8z"/>
			<path fill="#F8E4CA" d="M161.9,532.9c0,0,3.5-1.8,4.5-1.8c1,0.1,8.3,20.5,7.3,21.2C172.8,553,159.4,534.5,161.9,532.9z"/>
		</g>
		<path fill="#F8E4CA" d="M171.2,529.2c0,0,1.9-1.5,2.9-1.4s3.8,20.7,3.2,21C176,549.3,170.3,529.8,171.2,529.2z"/>
		<path fill="#F8E4CA" d="M150.1,529.4c0,0,3.2,1.5,4.7,2.7s3.1,6.7,4.7,9.9c1.6,3.2,4.5,6.9,4.1,7.7s-6.4-6-10.3-12.1
			S148.4,528.5,150.1,529.4z"/>
	</g>
	<path fill="#C6A685" d="M130.8,510.5c0,0,10.8,17.3,12.9,17.4c2.1,0.1,4.1-2.7,4.1-2.7s4.7,6.2,10.5,5.8s14.2-3.6,16.4-5.9
		c2.2-2.3,1.5-12.8,1.5-12.8s2.1,0.8,5.1-0.4c2.9-1.3-2.7-22.2-2.7-22.2s2.1,0.7,4.3-1.9c2.3-2.6,0-27,0-27s-60.4,6.1-60.8,6.6
		C121.7,467.9,130.8,510.5,130.8,510.5z"/>
	<path fill="#B59374" d="M158.3,531c5.8-0.4,14.2-3.6,16.4-5.9c0.7-0.7,1.1-2.2,1.4-4c-8.4,4.4-18.5,4.9-22,2.1
		c-4.1-3.2-6.9-3.1-9.4-3.9c-2.5-0.8-9.7-17.5-6.8-22.2s3-11.6,0.8-19.2c-1.2-4.3-0.9-9.1-0.2-12.5c-9.2,1-16.3,1.8-16.4,2
		c-0.4,0.5,8.7,43.1,8.7,43.1s10.8,17.3,12.9,17.4c2.1,0.1,4.1-2.7,4.1-2.7S152.5,531.4,158.3,531z"/>
	<path fill="#D8B89A" d="M149.1,474.2c0,0,24.5-4.7,27-3.3c2.5,1.4,3.9,11.9,2.5,13.4c-1.4,1.6-3.9,0.2-4.5,1.6s4.4,18.8,3.3,20.6
		c-1.2,1.8-4.1-1-5.2,0c-1.1,1,0.2,8.4-0.4,10.2c-0.6,1.8-11.1,1.7-13.1,2c-2,0.2-5.8-4.2-9.7-4.9c-3.8-0.7-6.5-13.9-5.8-16.6
		s3-9.9,2.4-13.4C145.2,480.3,144.5,475,149.1,474.2z"/>
	<g>
		<path fill="#E5CFAD" d="M132,522.1c0,0,1.3,9.7,2.7,19.2s0.5,16-3.4,12.3s-9.3-28.5-9.3-28.5L132,522.1z"/>
		<path fill="#D1B898" d="M133.1,551.2c-1.6-2.1-7.8-24-7.8-24s-0.8-1.2-1.9-2.6L122,525c0,0,5.3,24.9,9.3,28.5
			c2,1.9,3.2,1.1,3.8-1.3C134.3,552.2,133.6,551.9,133.1,551.2z"/>
		<g>
			<path fill="#E5CFAD" d="M112.6,524.5c0,0,4.7,13.2,11.1,29.6c6.4,16.4-15.8-5.2-21.4-23.9L112.6,524.5z"/>
			<path fill="#D1B898" d="M103.5,529.4l-1.3,0.7c5.3,17.6,25.1,37.7,22.3,26.6C121.3,557.5,108.6,543.2,103.5,529.4z"/>
		</g>
		<g>
			<path fill="#E5CFAD" d="M123.6,525.1c0,0,3.9,13.4,9.3,30.2c5.3,16.8-15.4-6.1-19.9-25.2L123.6,525.1z"/>
			<path fill="#D1B898" d="M114.3,529.5l-1.3,0.6c4.2,17.9,22.7,39.1,20.6,27.9C130.3,558.6,118.5,543.5,114.3,529.5z"/>
			<path fill="#F8E4CA" d="M118.9,534.2c0,0,3.5-1.8,4.5-1.8c1,0.1,8.3,20.5,7.3,21.2C129.7,554.2,116.7,535.5,118.9,534.2z"/>
		</g>
		<path fill="#F8E4CA" d="M108.9,535.6c0,0,3.7-0.8,4.2-0.4c0.5,0.4,3.4,7.4,5.3,11.1c1.9,3.7,4,7.1,3.6,7.4
			C120.6,554.7,106.7,536,108.9,535.6z"/>
		<path fill="#F8E4CA" d="M128.1,529.8c0,0,2-1.5,2.9-1.4c1,0.1,3.7,20.8,3,21C132.7,549.9,127.2,530.4,128.1,529.8z"/>
	</g>
	<path fill="#724C3E" d="M73.8,410.5c0,0-47,0.3-66.1,11.3c0,0-9.3,36.5,14.9,66.1c0,0,44.2-12,74-13.6
		c29.9-1.7,112-12.8,129.1-13.6c17.1-0.8,47.8,1.8,102.3-5.3c54.4-7.1,143.8-9.4,173-11.8s98.9,0,98.9,0s4.8-15.6-2-26.5
		c0,0-84.3,0.7-99.9,1.9c0,0,35.3-29.2,38.8-34.5c0,0-17.2-3.8-21.6-2.3c0,0-23.7,25.1-70.1,31.1c-46.5,6-225.6-37.4-225.6-37.4
		L73.8,410.5z"/>
	<path fill="#5E3C31" d="M459.9,427.6c7.2-1.3,19-17.5,22-19.9s8.9-5,21.6-13.4c8.5-5.6,13.1-10.2,15.2-12.7c-1.4,0-2.6,0.1-3.4,0.3
		c0,0-16.4,17.4-48.8,26.7C461.3,417.2,455.5,428.4,459.9,427.6z"/>
	<path fill="#8A5B4E" d="M520.8,384.9c2-1.4,6.1,0.3,7.4,1.9c1.3,1.6-34.5,30.8-34.9,33.7c-0.3,3,46.6,0.7,61.5,0s36,0.2,37.8,1.2
		s3.2,11.8,2.2,13.6c-1.1,1.8-43.8,0.5-56.5,0.7c-12.8,0.2-52.4,1.7-62.7,2.1c-10.3,0.4-40,4.8-37.2,2c0,0,10.1-10.1,12.4-10.2
		c2.3-0.2,5.2,4.1,9.9,1.7c4.7-2.3,10.8-8.8,12.5-10.6c8.8-9.2,7.5-8,12.2-12C485.6,409,515.5,388.8,520.8,384.9z"/>
	<path fill="#442921" d="M504.9,399.4l18.8-14.6C523.7,384.9,514.6,388.5,504.9,399.4z"/>
	<path fill="#442921" d="M493.8,413.3c0,0,23.5-13.9,29.1-18.6C523,394.7,506.3,402,493.8,413.3z"/>
	<path fill="#8A5B4E" d="M299.3,443.8c0,0-0.7-11.5,1.9-13c2.7-1.5,10.8,4.5,29.6,7.7c18.8,3.2,52.2,2.6,58.9,1.7s13.5-1.8,14.6-0.9
		s2.6,3.5,0,4.1s-73.9,3.1-82.9,3.4C312.5,447.1,300,448.4,299.3,443.8z"/>
	<path fill="#8A5B4E" d="M160.9,415.1c0,0,38.3-1.4,43.9,1.8c5.6,3.2,2.6,20.7,4.7,23.6c2.1,2.9,5,8.2,5,10.4c0,2.2-51.8,5.2-58.5,4
		c-6.7-1.3-3.9-17.4-3.8-21.5C152.2,429.2,151.7,415.3,160.9,415.1z"/>
	<path fill="#8A5B4E" d="M25.4,421.8c0,0,22.2-5,24.7-4.2s0.2,8,1.8,11s3,0.6,3.3,4.1s0,10.9,0.8,19c0.9,8.1,3,11.4,6.3,14.2
		c3.3,2.8-27.1,8.5-32.9,4.3C25.4,467.3,15.8,424.5,25.4,421.8z"/>
	<path fill="#5E3C31" d="M328.1,455.3c54.4-7.1,143.8-9.4,173-11.8s98.9,0,98.9,0s0.4-1.2,0.8-3.3c-22.1-0.4-59.1-1.2-69.9-1.4
		c-15.7-0.3-106.1,7.3-132,6.7c-25.9-0.6-100.4,8.6-103.8,1.6c-3.3-6.8,2-52.5,2.2-54.3c-0.1,0-0.2,0-0.3-0.1l-46.6-0.3l-24.9,63.7
		c0,0-69.5,4-75.7,4.4c-6.1,0.5-5.7-6.3-7-13.6c-1.3-7.3,3.8-8.6,2.9-17.1c-0.9-8.5-7.3-26.5-7.3-26.5s-6.9-3.6-12-5.7l-14.8,3.5
		c-7.9,4.4-17.8,10.2-18,10.9c-0.4,1-15.2,58-15.2,58s-51.9,13.8-56.7,0.7c-4.8-13.4-8.1-41.7-7.4-52.2c-2.4,0.9-4.6,1.9-6.6,3
		c0,0-9.3,36.5,14.9,66.1c0,0,44.2-12,74-13.6c29.9-1.7,112-12.8,129.1-13.6C243,459.8,273.7,462.4,328.1,455.3z"/>
	<g>
		<path fill="#442921" d="M13.8,428.7c0,0,34.1-3.3,35.5-0.7c1.5,2.6-22.4,10.1-34.7,10.2c0,0,1.4,2.1,15.6,0s24.1-10.2,22.9-12.1
			C52,424,22.8,424.2,13.8,428.7z"/>
		<path fill="#442921" d="M8.8,460.6c37.3,4.6,56.3-4.3,56.3-4.3c-13.6,4.2-43.6,4-56.5,3.6C8.7,460.2,8.8,460.4,8.8,460.6z"/>
		<path fill="#442921" d="M6.7,449.6c0,0.2,0.1,0.5,0.1,0.7c25.2,1.9,57.2-8.8,57.2-8.8C45.8,445.9,16.8,448.7,6.7,449.6z"/>
		<path fill="#442921" d="M15.4,468.6c0,0,35.6-4.1,37.9-1.4c2.3,2.8-28,7.6-34.5,8.4c0,0,32.6,0.6,37.3-8.1
			C59.8,460.9,15.4,468.6,15.4,468.6z"/>
		<path fill="#442921" d="M131.6,422.4c0,0,22.5-1.5,39.1-2.8s29.9-3.3,29.8-2.7c-0.1,0.6-12.5,4.2-29.7,5.5
			c-17.2,1.2-36,3.7-36,3.7L131.6,422.4z"/>
		<path fill="#442921" d="M135.3,431.7c0,0,19.5-3.4,32.6-3.9c13.1-0.5,50-4.2,50-4.2v2.5c0,0-32.7,2.5-43.1,3.4
			c-10.4,0.9-44.4,6.6-44.4,6.6S128.7,432.7,135.3,431.7z"/>
		<path fill="#442921" d="M217.9,431.7c0,0-35.7,5.4-40.8,7.1c-4.4,1.6,32.3,1.7,32.3,1.7s-35.1,3.7-39.5,0
			C167.6,438.6,188.3,433.5,217.9,431.7z"/>
		<path fill="#442921" d="M138.8,447.4c0,0,21.8-0.8,41-0.9c19.2-0.2,35.3-0.9,35.3-0.9s-9.6,1.8-34.8,3
			C155.1,449.6,138.8,447.4,138.8,447.4z"/>
		<path fill="#442921" d="M142.8,460.2c0,0,28.9-3.5,36.8-4.4c7.9-0.9,34.8-2.6,34.8-2.6s-17.3,3.8-33,4.6
			C167.9,458.4,146.7,462.3,142.8,460.2z"/>
		<path fill="#442921" d="M323.6,431.7c0,0-28-1.9-36.8,3c-8.8,5,3.6,6.7,27.8,6.9c24.2,0.2,50.9-2.3,50.9-2.3s-9.7,2.4-36.7,4.1
			s-48-0.3-51.1-4.4C274.6,434.9,292.7,425.8,323.6,431.7z"/>
		<path fill="#442921" d="M292.6,451.3c0,0,31.8-3.3,46.8-5c15-1.8,67.5-7.1,72.4-7.8c0,0-32,4.8-60.1,8.6
			C323.5,450.8,300.1,454.3,292.6,451.3z"/>
		<path fill="#442921" d="M445.2,426.1c0,0,76.9-1.4,78.1,0c1.2,1.4-7.1,7.3-45.4,10.9s-54.5,0.4-54.5,0.4s36.6-1.4,56.8-2.7
			c20.2-1.4,35.7-4.9,36.6-6.3s-79.2,0.8-79.2,0.8L445.2,426.1z"/>
		<path fill="#442921" d="M601.6,434.2c0-0.7,0.1-1.4,0.1-2.1c-4.6,0-34.8,0-52.7,1.4c-19.4,1.4-42.4,5.3-42.4,5.3
			c7.1,0.8,46.2-4.2,70.6-4.2C585.5,434.5,595.3,434.3,601.6,434.2z"/>
		<path fill="#442921" d="M529.5,420.7c8.3,0.7,40.1,4.8,44.9,4.8c4.8,0,27.2,3.5,27.2,3.5l0,0c-0.1-0.9-0.2-1.9-0.3-2.8
			c-10.9-1.2-29.8-3.3-38.3-4.4C550.6,420.2,529.5,420.7,529.5,420.7z"/>
	</g>
	<g>
		<path fill="#C6A685" d="M287.3,415c0,0,0.6,28.3,0,34.8s-6.2,4.5-6.2,4.5s0,4.9,3.2,13.8s3.9,15.6-2.6,17.5c0,0-0.3,4.6,3.1,12.7
			c3.3,8,0.7,18.8-19.3,23.3S240.7,505,240.7,505s-2.7,2.2-5.8,1.3c-3-0.9-11.7-17.5-6.2-30.5c0,0-6,1.1-7.7-3.3s-0.3-29.1-0.3-29.1
			s-3.6,1.4-5.2-0.8c-1.6-2.3,1-30.4,1-30.4s-14.9-2.5-38.6-2.3c-23.7,0.3-41.5,3.2-41.5,3.2s0.5,11.8,1.4,17.1
			c1,5.2-5.4,3.1-5.4,3.1s-1.7,9.7,2.4,16.7c4.1,6.9,2.7,11.9-1.9,13.9c-4.6,2-1.1,16.4,1.4,21.9s-1.2,7.5-3.7,11.5
			c-2.5,4.1,5.7,17.2,2.6,24.9c-3.1,7.7-26.3,13.5-33.7,10.3c-7.4-3.2-17.7-23-17.5-30.8c0,0-6.4,0.2-10.6-6.7
			c-4.2-6.9-2.4-31.9-2.4-31.9s-5,3.1-8.1-4.1s0.1-28.7,2.3-31.9c0,0-5.6,0.9-7.1-1.7s3.7-15.9,6.2-29.4c2.5-13.6,0.1-34,0.1-34
			s-4.4-6.1-3.4-8.8s9.7-10.2,9.4-12.9s-6.9-5.3-6.7-10.5s11.4-14.4,14.2-18.1c2.9-3.6-1.2-5.7-1.1-9.6S87.6,282,108.6,274
			c0,0-2.3-4.1,2.2-7s30.9-9.4,45.9-4.9c0,0-2.2-5.9,1.9-7.5c4.1-1.6,20,3.7,30.4,9.6s26.2,9.3,39.4,8.5
			C242.1,271.9,287.3,415,287.3,415z"/>
		<path fill="#B59374" d="M285.4,508.3c-5.5,2.1-13.4,4.8-20.6,6c-12.9,2.3-15.8-3.8-19.4-9c-3.6-5.1-6.8-5.8-10-10.6
			s-2.4-16.8-3.1-21.1c-0.6-4.4-3.2-3.3-5.6-8.2c-2.4-4.8-1.3-17.8-2.6-23.3s-3.1-4.6-3.8-15.3c-0.8-10.7-4.7-30.3-4.7-30.3
			c0,5.3-0.5,10.6-1.2,15.4c1.5,0.2,2.2,0.3,2.2,0.3s-2.6,28.1-1,30.4s5.2,0.8,5.2,0.8s-1.4,24.7,0.3,29.1s7.7,3.3,7.7,3.3
			c-5.6,13,3.1,29.6,6.2,30.5c3,0.9,5.8-1.3,5.8-1.3s4.7,21.1,24.8,16.7C277.9,518.9,283.6,513.7,285.4,508.3z"/>
		<path fill="#B59374" d="M228.8,272.7c-13.3,0.8-29-2.6-39.4-8.5c-10.4-5.9-26.3-11.2-30.4-9.6c-4.1,1.6-1.9,7.5-1.9,7.5
			c-14.9-4.5-41.4,2.1-45.9,4.9c-4.5,2.9-2.2,7-2.2,7c-21,7.9-33.8,24.2-33.8,28.1c-0.1,3.9,4,6,1.1,9.6s-14,12.9-14.2,18.1
			s6.4,7.9,6.7,10.5c0.3,2.7-8.5,10.2-9.4,12.9c-1,2.7,3.4,8.8,3.4,8.8s2.3,20.4-0.1,34c-2.5,13.6-7.7,26.8-6.2,29.4
			s7.1,1.7,7.1,1.7c-2.2,3.2-5.4,24.6-2.3,31.9c3.1,7.3,8.1,4.1,8.1,4.1s-1.9,25,2.4,31.9c4.2,6.9,10.6,6.7,10.6,6.7
			c-0.3,7.7,10.1,27.5,17.5,30.8c7.4,3.2,30.7-2.6,33.7-10.3c0.5-1.3,0.7-2.8,0.7-4.3c-9.6,6.4-26.7,9.9-33.2,4.4
			c-7.7-6.6-9.8-23-14.2-26.6c-4.3-3.5-9.4-4.8-10.8-16s-0.9-19.5-5-23.8s-2.6-14.3,0-23.4s-2.5-11.9-4.6-16.3s3-13.5,4.3-21.3
			c1.2-7.8-0.8-32.7,0-37.4c0.8-4.7,6.8-9.7,9.8-15.1c2.9-5.4-4.8-10.5-5.5-14.7c-0.7-4.3,10-14.4,11.7-18s-3.1-9.7,5.7-15.7
			s25.7-16.3,32.3-21c6.6-4.7,29.8-2.8,33.9-3.7c4.1-0.9,2.9-3.2,8.3-4.4c5.4-1.2,20.3,8.2,32.8,11.2s26.9,5.1,26.9,5.1
			s3.6-0.9,8.8-2.4C232.8,274.9,230.5,272.6,228.8,272.7z"/>
		<g>
			<g>
				<g>
					<path fill="#010101" d="M224,238.2c-0.7,0-1.3-0.5-1.3-1.2l-4.8-79.1c0-0.7,0.5-1.3,1.2-1.4c0.7,0,1.3,0.5,1.4,1.2l4.8,79.1
						C225.4,237.5,224.8,238.1,224,238.2C224.1,238.2,224.1,238.2,224,238.2z"/>
				</g>
				<g>
					<path fill="#010101" d="M240.2,221.1c-0.7,0-1.3-0.6-1.3-1.3l-1-88.8c0-0.7,0.6-1.3,1.3-1.3c0.7-0.1,1.3,0.6,1.3,1.3l1,88.8
						C241.5,220.5,240.9,221,240.2,221.1L240.2,221.1z"/>
				</g>
				<g>
					<path fill="#010101" d="M258.1,205.2c-0.7,0-1.3-0.6-1.3-1.3v-75.2c0-0.7,0.6-1.3,1.3-1.3s1.3,0.6,1.3,1.3v75.2
						C259.4,204.6,258.8,205.2,258.1,205.2z"/>
				</g>
				<g>
					<path fill="#010101" d="M271.1,195.1c-0.7,0-1.3-0.6-1.3-1.3v-60.9c0-0.7,0.6-1.3,1.3-1.3c0.7,0,1.3,0.6,1.3,1.3v60.9
						C272.5,194.5,271.9,195.1,271.1,195.1z"/>
				</g>
				<g>
					<path fill="#010101" d="M509.9,357.2c-0.7,0-1.3-0.6-1.3-1.3c-0.4-83.6,0-84.4,0.1-84.8c0.3-0.7,1.1-1,1.7-0.7s0.9,0.9,0.7,1.5
						c-0.3,2.7-0.1,51.6,0,83.9C511.2,356.6,510.6,357.2,509.9,357.2L509.9,357.2z"/>
				</g>
				<g>
					<path fill="#010101" d="M518.8,367.9L518.8,367.9c-0.7,0-1.3-0.6-1.3-1.3l1.5-95c0-0.7,0.6-1.2,1.3-1.3c0.7,0,1.3,0.6,1.3,1.3
						l-1.5,95C520.1,367.4,519.5,367.9,518.8,367.9z"/>
				</g>
				<g>
					<path fill="#010101" d="M529.5,372.8L529.5,372.8c-0.8,0-1.3-0.6-1.3-1.4l6.1-127.6c0-0.7,0.6-1.3,1.4-1.2
						c0.7,0,1.3,0.6,1.2,1.4l-6.1,127.6C530.8,372.2,530.2,372.8,529.5,372.8z"/>
				</g>
			</g>
			<g>
				<path fill="#C6A685" d="M352.5,189.6c-0.3,0.3-13.9-7-31.5-3.7s-3,8.8-3,8.8s-11.5-0.9-40.2,12s-41.9,28.6-29.3,30.6
					c0,0-14.6,15.7-25.3,35.7s-0.9,22.1,4.7,17.8c0,0-13.7,22.5-12.1,45c1.6,22.6,6.8,29.6,12.4,24.1c0,0,6.5,25.2,17.1,39.4
					c10.7,14.1,15.7,4.1,15.7,4.1s25.9,23.3,32.6,23.8s7.8-3.3,7.8-3.3s15.9,11.2,51.2,13.4s54.9-1.8,54.9-1.8s-2.8,7.6,7.1,7.8
					s32.2-11.4,38.2-19.6c0,0,1.1,4.9,7.3,3.7c6.2-1.3,24-28.3,26-36.7c0,0,2.1,9.4,7.4,8.5s10.3-50.9,9.2-58.6c0,0,1.3,4.1,6.9,3.4
					c5.6-0.7-1.1-37.1-12.1-46.5c0,0,6.9,2.3,8.7-2.5c1.8-4.9-21.3-38.2-28.8-42c0,0,8.6,1.6,11.9-2.1c3.2-3.7-25.5-34.4-45.4-37.5
					c0,0,8.3-2.3,9-6.4c0.7-4.2-19.7-18.7-56.1-16c0,0,11-4.5,6.4-10.2C398.5,175.1,369.5,171.8,352.5,189.6z"/>
				<path fill="#D8B89A" d="M359.5,207.4c0,0,21.7-15.9,27.6-14.4c5.9,1.6,1.5,6.3,7.5,8.4s38.6-0.3,42.9,5.4s-2.1,7.4-1.9,11.6
					c0.2,4.1,36.6,15.7,40.5,24.4s-6.6,3.9-8.8,10.8c-2.2,6.9,27.1,29,26.3,33.8c-0.9,4.8-6.3,3.3-6.3,7.5
					c0,4.3,18.3,29.5,16.7,34.6c-1.6,5-6.3-1.1-7.2,5.8c-1,6.9,1,36.4-2.6,43.4s-5.8-0.1-8.6,2.4c-2.8,2.5-14.7,26.1-21.5,31.4
					c-6.8,5.2-7.6-0.3-12.2,2.6s-13.7,11.6-20,11.8c-6.2,0.3-6.8-10.3-14.1-9.4c-7.3,0.9-32.3,7.7-69.9,4s-42.5-11.6-46.5-13.1
					c-4-1.6-12.5-3.9-21-10.7c-8.5-6.9-13.8-12.3-17.4-12.5c-3.6-0.3-9.7-10.4-13.6-23c-4-12.6-7.3-18.3-10.6-20.2
					c-3.3-1.9,6.5-47.3,10.6-55.3c4.1-8.1-2.3-11-1.1-14.7c1.2-3.8,21.8-26,24.8-32c3.1-6,9.4-11.1,20.1-17.8s34-11.7,36.8-13.2
					s5.4-7.1,9.1-7.2C342.6,201.4,355.3,210.3,359.5,207.4z"/>
				<path fill="#B59374" d="M414.4,443.4c4.2,0.1,10.8-2,17.4-5.1c-16.7,0-14.5-8-18.5-8.6c-4.5-0.8-20,6-58.4,2.1
					s-49.6-15.6-56.9-13.9c-7.2,1.7-26.8-15.6-31.5-21.3c-4.7-5.6-8.8-1.3-12.3-3c-3.5-1.6-16.4-31.6-17.6-37.3
					c-1.2-5.8-8.4-0.2-10.5-17.6c-2.1-17.3,11.5-47.6,11.8-52.6s-6.2-3.3-4.5-9.7c1.7-6.4,26.9-36.2,29.1-39.9s-5-5.5,6-15.7
					s53.8-20.5,56.6-22.6c2.8-2.1,2.4-5.1,7.2-6.6c4.8-1.4,19.5,5.9,22.5,5s22.8-17.7,34.4-15c11.5,2.8,7.3,9.3,7.3,9.3
					s11-4.5,6.4-10.2c-4.5-5.7-33.5-9-50.6,8.8c-0.3,0.3-13.9-7-31.5-3.7s-3,8.8-3,8.8s-11.5-0.9-40.2,12s-41.9,28.6-29.3,30.6
					c0,0-14.6,15.7-25.3,35.7s-0.9,22.1,4.7,17.8c0,0-13.7,22.5-12.1,45c1.6,22.6,6.8,29.6,12.4,24.1c0,0,6.5,25.2,17.1,39.4
					c10.7,14.1,15.7,4.1,15.7,4.1s25.9,23.3,32.6,23.8s7.8-3.3,7.8-3.3s15.9,11.2,51.2,13.4c35.3,2.1,54.9-1.8,54.9-1.8
					S404.6,443.2,414.4,443.4z"/>
				<g>
					<g>
						<path fill="#F7E8D6" d="M365.6,287.3c0,0-26.1-38.4-71.6-29.8c-45.5,8.7-68,71.8-38.4,115.2s134.6,67.5,189.6,40.1
							s45.6-125.4-8-144.3C402.2,256.3,365.6,287.3,365.6,287.3z"/>
						<path fill="#F2DCC3" d="M445.1,412.9c4.4-2.2,8.3-4.8,11.9-7.8c-26.6,7.3-62.6,12.5-100.4,3.8
							c-75.6-17.3-116.3-83.1-77.7-118.8s86.6-2.9,86.6-2.9s-26.1-38.4-71.6-29.8s-68,71.8-38.4,115.2
							C285.1,416.2,390.1,440.3,445.1,412.9z"/>
						<path fill="#FFF4EA" d="M367.7,298.9c0,0,36.2-27.4,72.1-12.2s37.1,102-16.5,110.9S290,381.8,283.2,333.2
							C276.5,284.5,332.9,281.1,367.7,298.9z"/>
					</g>
					<g>
						<g>
							<path fill="#7F715A" d="M481.9,337.8c-24.2-36-63.2-38.7-79-31.1c-18.3,8.8-26.9,40.9,9.8,49.6c26,6.2,42.9,35.3,48.1,45.5
								C476.9,385.8,483.6,361.5,481.9,337.8z"/>
							<path fill="#7F715A" d="M261.7,380.5c4.3-12.9,17.5-23.2,33.4-29.9c21-8.8,38.4-14.6,39.2-31.8c0.8-17.2-11.4-35-48-29.9
								c-19.4,2.7-32.8,10.7-41.1,17.7c-5.9,21.3-3.5,45.9,10.3,66.2C257.3,375.4,259.4,378,261.7,380.5z"/>
							<path fill="#6E604E" d="M400.7,337.7c-6.7-12.9-3.8-20.4,1.4-30.6c-17.8,9.3-25.6,40.6,10.6,49.3c26,6.2,42.9,35.3,48.1,45.5
								c1.8-1.8,3.5-3.7,5.1-5.7C452.9,350.9,410.5,356.7,400.7,337.7z"/>
							<path fill="#6E604E" d="M261.7,380.5c4.3-12.9,17.5-23.2,33.4-29.9c17.4-7.2,32.3-12.5,37.4-23.8
								c-16.1,8.5-64.3,31.7-74.2,10.2c-6.6-14.3-5.9-27.8-3.9-37c-3.6,2.2-6.6,4.4-9.2,6.6c-5.9,21.3-3.5,45.9,10.3,66.2
								C257.3,375.4,259.4,378,261.7,380.5z"/>
							<g>
								<path fill="#8F7E69" d="M268.6,302.8c0,0,22.6-9.6,39.7-6.1s18.8,21,15.6,25.9c-3.2,4.9-34.2,16.4-49.7,12.5
									C258.6,331.2,256.6,308.5,268.6,302.8z"/>
							</g>
							<g>
								<path fill="#8F7E69" d="M404.9,322.9c0,0,4.5-11.8,18.1-13.5c13.5-1.7,47.1,18.8,52.4,31.1c5.3,12.3-1.4,30.8-5,34.6
									c-3.7,3.7-15.2-12.4-32.6-23.7S400.9,338.2,404.9,322.9z"/>
							</g>
						</g>
					</g>
					<path fill="#70B9E6" d="M446.2,370.4c0.9-6.2-4.4-10.3-5.8-14.7c-1.4-4.4,1.5-11.1,1.5-11.1s-17.5-2-27.3-15.3
						c0,0-11.6,5.7-6.4,18.1s-0.7,13.9-6.4,20.3c-5.6,6.4-3.7,9.8,1.5,19s-6.9,10.4-8.1,18.8c-0.8,5.4,3.9,13.5,7.3,18.5
						c14.5-1.3,28.1-4.4,39.7-9.6c1.6-3.7,2.8-7.6,2.6-10.8c-0.6-8.8-9.3-14-8.3-17.9C437.6,381.6,445.4,376.6,446.2,370.4z"/>
					<path fill="#56ABD6" d="M442.4,414.3c0.8-1.8,1.5-3.7,2-5.5c-13.4,6.2-33.2,9.5-35.7,3.5c-3.3-8,3.2-11.6,3.2-18.6
						s-7.2-14,0-22.4c7.2-8.5,6.5-16.1,3.8-26.1c-1.4-5.1,0.4-9.2,2.5-11.9c-1.2-1.2-2.4-2.5-3.4-4c0,0-11.6,5.7-6.4,18.1
						s-0.7,13.9-6.4,20.3c-5.6,6.4-3.7,9.8,1.5,19s-6.9,10.4-8.1,18.8c-0.8,5.4,3.9,13.5,7.3,18.5
						C417.2,422.6,430.8,419.5,442.4,414.3z"/>
					<path fill="#70B9E6" d="M270.8,388.8L270.8,388.8c9.8,7.8,22.1,14.7,35.8,20.2c4-5.5,9.4-13.7,11.8-22.1
						c3.9-14.1-3.3-17-7.5-21.4s6.2-9.8,6.8-17.3c0.6-7.5-10.4-11.2-13-17.5c-2.5-6.3-1.3-11.9-1.3-11.9s-14.2,4.7-22,5.5
						c0,0-10.4,8.5-7.7,16.1c2.7,7.6,7.8,7.8,7.7,15.5c-0.1,7.7-7.5,8.5-5.6,14.1C277.6,375.6,281.9,382.2,270.8,388.8z"/>
					<path fill="#56ABD6" d="M311.5,401.8c-22.5-8-25.6-19.4-27.4-26.4c-1.9-7.4,3-8.7,4.5-14.3c1.5-5.5-4.2-13.4-6.8-22.8
						c-1.2-4.1,0.2-9.5,2.2-14.3c-0.9,0.2-1.8,0.3-2.5,0.4c0,0-10.4,8.5-7.7,16.1c2.7,7.6,7.8,7.8,7.7,15.5
						c-0.1,7.7-7.5,8.5-5.6,14.1s6.1,12.2-5,18.8l0,0c9.8,7.8,22.1,14.7,35.8,20.2C308.1,406.9,309.8,404.5,311.5,401.8z"/>
					<path fill="#80CBF1" d="M287.6,332.8c0,0,7.7-4,10.8-2.2s8,8.3,11.9,13.6c3.9,5.3-5.1,9.3-4.1,19.7c1,10.4,7.8,9,8.5,14.2
						s-1.6,13.6-4.8,15.4c-3.2,1.7-15.7-7.4-18.7-15.9c-3-8.6,4.7-13.5,2.8-21C292.1,349,283,336.1,287.6,332.8z"/>
					
						<ellipse transform="matrix(0.1711 -0.9853 0.9853 0.1711 31.5817 755.3735)" fill="#F9B7B8" cx="464.7" cy="358.9" rx="8" ry="9.4"/>
					
						<ellipse transform="matrix(0.1711 -0.9853 0.9853 0.1711 -122.0754 537.3283)" fill="#F9B7B8" cx="258.3" cy="341.2" rx="8" ry="9.4"/>
					<g>
						<path fill="#010101" d="M370.7,356.3c-0.4,0-0.8-0.2-1-0.5c-13.3-16.3-29.2-3.9-29.9-3.4c-0.6,0.4-1.4,0.4-1.8-0.2
							c-0.5-0.6-0.4-1.4,0.2-1.8c0.2-0.1,18.6-14.5,33.5,3.7c0.5,0.6,0.4,1.4-0.2,1.8C371.3,356.3,371,356.3,370.7,356.3z"/>
					</g>
					<g>
						<path fill="#3E1421" d="M371,333.4c-0.4,3.7-6.8,6-14.4,5.2s-13.3-4.4-13-8.1c0.4-3.7,7.2-9.9,14.8-9.1S371.4,329.8,371,333.4
							z"/>
						<path fill="#4C172A" d="M369.2,332.4c-0.5,2.4-5.4,3.5-11,2.4s-9.8-3.9-9.3-6.3s5.9-6.1,11.5-5
							C366,324.6,369.7,330,369.2,332.4z"/>
						<path fill="#2E131C" d="M359.8,336.9c-7.5-0.8-13.3-4.4-13-8.1c0.2-1.8,2-4.3,4.7-6.2c-4.3,1.9-7.5,5.5-7.8,7.9
							c-0.4,3.7,5.4,7.3,13,8.1c5.6,0.6,10.5-0.5,12.9-2.6C367,336.9,363.5,337.3,359.8,336.9z"/>
						<g>
							
								<ellipse transform="matrix(-0.1685 -0.9857 0.9857 -0.1685 98.6223 745.3896)" fill="#190D11" cx="363.7" cy="331.1" rx="3.2" ry="2.8"/>
							<path fill="#010101" d="M364.9,333.2c-1.5,0.3-3-1-3.3-2.7c-0.1-0.6,0-1.2,0.2-1.7c-0.6,0.7-1,1.7-0.8,2.8
								c0.3,1.8,1.8,3,3.3,2.7c1-0.2,1.7-0.9,2-1.9C365.9,332.8,365.4,333.1,364.9,333.2z"/>
							
								<ellipse transform="matrix(-0.4507 -0.8927 0.8927 -0.4507 233.2271 804.3604)" fill="#281018" cx="364.1" cy="330.4" rx="1.8" ry="1.6"/>
						</g>
						<g>
							
								<ellipse transform="matrix(0.453 -0.8915 0.8915 0.453 -101.8318 493.9818)" fill="#190D11" cx="351.6" cy="330" rx="3.2" ry="2.8"/>
							<path fill="#010101" d="M351.3,332.4c-1.4-0.7-1.8-2.5-1-4.1c0.3-0.6,0.7-1,1.2-1.3c-0.9,0.2-1.8,0.8-2.3,1.8
								c-0.8,1.6-0.4,3.4,1,4.1c0.9,0.5,1.9,0.3,2.8-0.3C352.4,332.7,351.8,332.7,351.3,332.4z"/>
							
								<ellipse transform="matrix(0.1711 -0.9853 0.9853 0.1711 -32.8395 620.6057)" fill="#281018" cx="352.4" cy="329.8" rx="1.8" ry="1.6"/>
						</g>
					</g>
					<path fill="#80CBF1" d="M413.5,404c0,0,3.4-5.2,2.7-11.4s-2.8-14.6,0.6-20.6c3.3-6,4.6-18.4,4.1-22.8s13-2.3,14.6,0.9
						c1.6,3.2,0.4,5.9,3.5,12.7c3.1,6.9-3.3,12.5-7,19s5.8,12.2,5.6,19.9C437.4,409.5,410.8,415.4,413.5,404z"/>
					<g>
						<path fill="#010101" d="M277.7,326.7c-6.5,0-10.9-1-11.4-1.1c-1.4-0.3-2.3-1.7-2-3.1s1.7-2.3,3.1-2
							c0.2,0.1,24.5,5.3,42.8-10.4c1.1-0.9,2.7-0.8,3.7,0.3c0.9,1.1,0.8,2.7-0.3,3.7C301.6,324.6,287.4,326.7,277.7,326.7z"/>
					</g>
					<g>
						<path fill="#010101" d="M447.1,347.4c-0.1,0-0.1,0-0.2,0c-26.7-1.5-41.5-23.6-42.1-24.5c-0.8-1.2-0.5-2.8,0.7-3.6
							c1.2-0.8,2.8-0.5,3.6,0.7c0.1,0.2,14,20.8,38,22.2c1.4,0.1,2.5,1.3,2.5,2.8C449.7,346.3,448.5,347.4,447.1,347.4z"/>
					</g>
				</g>
			</g>
		</g>
		<g>
			<path fill="#A68162" d="M140.8,393.9c-0.8,0.7-4.3,19.3-4.3,19.3s1.3-0.2,3.8-0.5C140.4,404.8,141.4,393.4,140.8,393.9z"/>
			<path fill="#A68162" d="M215.5,396.4c-0.3,0-1.2,8-2.1,15.4c2,0.3,3.1,0.4,3.1,0.4S216.1,396.4,215.5,396.4z"/>
		</g>
		<path fill="#D8B89A" d="M203.5,288c-0.7-0.2-16.4-5.2-27.3-8.5c-10.9-3.3-25.5,0.9-35.3,0.9S103.5,296.1,100,300s-4.5,15-8.9,20.7
			c-4.5,5.7,4.3,9.7,3,21.7c-1.4,12-9.7,19.7-11.7,27.9c-1.9,8.2-2.5,34-3.9,38.7s6.1,19.9,5.3,30c-0.8,10,0.2,12.5,2.1,21.7
			c1.9,9.1,0.8,20,7.3,27.7s10.3,23.7,15.6,25.4c5.3,1.7,10.6-0.9,13-2.3s-3.9-12.5-0.7-17.4c3.2-4.9,2.1-14.3,2.1-21.3
			s4.9-14.2,5-18.5s-3.4-19.4-0.9-26.3c2.5-6.9,1.6-14,2.1-23.6s9.3-19.8,14.1-20.1c4.8-0.3,1.3,18.2,4.9,19.3
			c3.5,1.1,52.5-0.8,55.8-1.6c3.3-0.8,7-13.4,12.4-13.3s6.3,19.1,6.6,28.4s0.8,14.2,4.3,18.8c3.5,4.6,0.8,22.8,3.2,26.8
			s7.5,3.7,7.3,8.2c-0.2,4.6-1.5,20.8,3,23.1s9.9,12.1,14.6,15.8c4.7,3.7,21.2-2.5,20.8-7.8c-0.3-5.3-5.3-18.2-2.3-21.7
			s1.5-12,0.5-21s2.6-9.8,4.1-13.5s2.3-18.2-1.8-21c-4.1-2.9-12.7-12.5-17.2-11.4c-4.5,1.2-16.2-1.3-25.2-19.5
			c-8.9-18.2-9.3-24.4-16.7-27.2c-7.4-2.8-13.8-16.3-11.2-33.2C209.3,316.3,210.5,290.1,203.5,288z"/>
	</g>
	<g>
		<path fill="#72C15F" d="M529.6,378.5c0,0-9.7-3.5-17.5-8.3s-11.9-20.1-8.9-37.4c0,0,11.7,3.6,23.9,12.6
			C539.2,354.4,533.4,373.2,529.6,378.5z"/>
		<path fill="#53B548" d="M503.2,332.7c-3.1,17.3,1,32.7,8.9,37.4c7.9,4.8,17.5,8.3,17.5,8.3c1.1-1.6,2.4-4.3,3.4-7.7
			c-6.8,0.4-15.3-0.7-20.5-6.7C502.8,352.8,503.2,332.7,503.2,332.7z"/>
		<path fill="#83C669" d="M513.6,359.6c-0.1-0.2-7.5-12.5-6.4-21c0,0,9.1,2.2,17.1,9.4c8.1,7.2,6.2,16.2,4.2,17.9
			C526.5,367.6,519.6,368,513.6,359.6z"/>
	</g>
	<g>
		<path fill="#72C15F" d="M542,380.1c0,0,1.1-15.3,4.9-28.6c3.7-13.3,24.2-25.3,50.4-27.9c0,0-0.5,18.3-8.6,39.5
			C580.5,384.3,551.1,383.4,542,380.1z"/>
		<path fill="#53B548" d="M597.2,323.6c-26.2,2.6-46.7,14.6-50.4,27.9s-4.9,28.6-4.9,28.6c2.7,1,7.2,1.7,12.4,1.8
			c-3.3-9.7-5.2-22.4,1.4-32.2C568.2,331.1,597.2,323.6,597.2,323.6z"/>
		<path fill="#83C669" d="M562.8,349.5c0.2-0.3,15-15.9,27.7-17.7c0,0,0.5,14-6.6,28.5c-7.2,14.5-20.9,15.5-24.2,13.3
			S552.9,361.4,562.8,349.5z"/>
	</g>
	<g>
		<path fill="#72C15F" d="M600,410.3c0,0,1.1-15.3,4.9-28.6c3.7-13.3,24.2-25.3,50.4-27.9c0,0-0.5,18.3-8.6,39.5
			C638.6,414.5,609.2,413.6,600,410.3z"/>
		<path fill="#53B548" d="M655.3,353.8c-26.2,2.6-46.7,14.6-50.4,27.9s-4.9,28.6-4.9,28.6c2.7,1,7.2,1.7,12.4,1.8
			c-3.3-9.7-5.2-22.4,1.4-32.2C626.3,361.4,655.3,353.8,655.3,353.8z"/>
		<path fill="#83C669" d="M620.8,379.7c0.2-0.3,15-15.9,27.7-17.7c0,0,0.5,14-6.6,28.5c-7.2,14.5-20.9,15.5-24.2,13.3
			C614.4,401.5,611,391.7,620.8,379.7z"/>
	</g>
	<g>
		<path fill="#72C15F" d="M615.3,426.1c0,0,13.6-7.3,26.7-11.2c13.2-4,34.3,6.8,50.6,27.6c0,0-15.7,9.4-38,13.9
			C632.4,460.9,617.4,435.6,615.3,426.1z"/>
		<path fill="#53B548" d="M692.6,442.4c-16.3-20.8-37.4-31.5-50.6-27.6c-13.2,4-26.7,11.2-26.7,11.2c0.6,2.8,2.4,7,5.2,11.5
			c6.4-8,16.1-16.4,28-16.1C670.7,422,692.6,442.4,692.6,442.4z"/>
		<path fill="#83C669" d="M652.3,427.2c0.4,0,21.5,4.1,29.8,13.9c0,0-11.5,7.9-27.6,9.7c-16.1,1.8-24.3-9.3-24.2-13.3
			C630.4,433.5,636.9,425.3,652.3,427.2z"/>
	</g>
	<g>
		<path fill="#72C15F" d="M604.2,445.6c0,0,12.5,3.2,22.9,8.3c10.4,5.1,17.3,23.7,15.5,45.8c0,0-15-3.2-31.3-13
			C594.9,476.8,600,452.7,604.2,445.6z"/>
		<path fill="#53B548" d="M642.6,499.7c1.8-22.1-5.1-40.7-15.5-45.8c-10.4-5.1-22.9-8.3-22.9-8.3c-1.2,2.1-2.5,5.7-3.3,10
			c8.5-1.2,19.3-1,26.4,6C640.7,474.6,642.6,499.7,642.6,499.7z"/>
		<path fill="#83C669" d="M626.3,467.4c0.2,0.2,10.9,14.8,10.5,25.6c0,0-11.6-1.7-22.5-9.7c-10.9-8.1-9.7-19.6-7.3-22
			C609.3,458.8,617.9,457.5,626.3,467.4z"/>
	</g>
	<g>
		<path fill="#72C15F" d="M543.5,449.1c0,0,12.5,3.2,22.9,8.3c10.4,5.1,17.3,23.7,15.5,45.8c0,0-15-3.2-31.3-13
			C534.2,480.4,539.3,456.2,543.5,449.1z"/>
		<path fill="#53B548" d="M581.8,503.3c1.8-22.1-5.1-40.7-15.5-45.8c-10.4-5.1-22.9-8.3-22.9-8.3c-1.2,2.1-2.5,5.7-3.3,10
			c8.5-1.2,19.3-1,26.4,6C579.9,478.2,581.8,503.3,581.8,503.3z"/>
		<path fill="#83C669" d="M565.6,470.9c0.2,0.2,10.9,14.8,10.5,25.6c0,0-11.6-1.7-22.5-9.7s-9.7-19.6-7.3-22
			C548.6,462.4,557.2,461,565.6,470.9z"/>
	</g>
	<path fill="#D8B89A" d="M316.1,461.8c0,0,36.8-5.9,39.2-4c2.4,2,1.6,14.2,0,16.8c-1.6,2.5-4.7,3.4-4.9,5.2
		c-0.2,1.7-0.2,22.4-0.8,23.7c-0.7,1.4-3.4-0.8-5,0s-1,4.7-3,6.2s-18.5-0.5-20-1.6s-6.2-8.5-6.4-10.6c-0.2-2.1,1.2-15.2,0.8-17.1
		c-0.4-2-4.9-3-5.7-5.9C309.3,471.5,308.7,462.9,316.1,461.8z"/>
	<path fill="#F8E4CA" d="M308,535.5c0,0,3.1-7.2,4.5-10.4s1.4-6,2.3-6.4s2.1,0,2.3,1c0.2,1-2.9,8.9-4.6,12.8s-4,7.5-4.6,7.8
		C307.4,540.7,306.7,538.6,308,535.5z"/>
	<path fill="#F8E4CA" d="M325.8,537.2c0,0,1.9-2.8,3.9-6.5s4.3-9.2,4.9-9.6c0.5-0.4,2.6-0.7,2.9,0.3c0.4,1-3.4,8.7-6.3,12.7
		s-8.5,8.5-8.9,8.4C321.8,542.3,325,538.5,325.8,537.2z"/>
</g>
</svg>
