<?xml version="1.0" encoding="UTF-8" ?>
<!DOCTYPE svg PUBLIC "-//W3C//DTD SVG 1.1//EN" "http://www.w3.org/Graphics/SVG/1.1/DTD/svg11.dtd">
<svg width="512pt" height="406pt" viewBox="0 0 512 406" version="1.1" xmlns="http://www.w3.org/2000/svg">
<path fill="#becdd4" opacity="1.00" d=" M 65.86 0.00 L 320.15 0.00 C 336.52 1.59 352.99 -0.49 369.36 0.96 C 377.75 2.38 385.77 6.20 391.89 12.16 C 400.56 20.26 405.53 32.16 405.15 44.02 C 405.16 150.01 405.15 256.00 405.16 361.99 C 405.51 373.84 400.56 385.73 391.90 393.83 C 383.86 401.61 372.61 405.84 361.44 405.52 C 352.94 405.41 335.93 405.20 327.43 405.09 L 339.27 406.00 L 85.67 406.00 C 69.33 404.43 52.92 406.42 36.59 405.09 C 24.82 403.40 13.86 396.57 7.32 386.62 C 2.68 379.88 0.48 371.77 0.00 363.67 L 0.00 42.43 C 0.40 27.26 9.04 12.52 22.60 5.50 C 39.36 -3.75 59.76 2.14 77.75 0.90 L 65.86 0.00 M 49.46 43.60 C 44.84 45.29 42.16 50.21 42.49 55.01 C 42.53 154.00 42.47 252.98 42.52 351.97 C 42.31 357.63 47.15 363.15 52.93 362.99 C 152.66 363.01 252.39 363.00 352.12 363.00 C 357.94 363.32 362.90 357.84 362.83 352.18 C 362.86 252.74 362.85 153.29 362.83 53.85 C 362.92 48.18 357.96 42.68 352.14 43.00 C 252.74 43.00 153.34 43.01 53.94 42.99 C 52.43 43.03 50.85 42.91 49.46 43.60 Z" />
<path fill="#becdd4" opacity="1.00" d=" M 438.13 49.11 C 446.60 46.47 456.30 52.10 458.09 60.77 C 458.69 64.48 458.42 68.26 458.47 72.00 C 458.47 160.34 458.47 248.69 458.47 337.03 C 458.47 339.75 458.55 342.49 458.09 345.19 C 456.60 352.36 449.49 357.96 442.11 357.43 C 434.02 357.43 426.73 350.10 426.88 342.01 C 426.88 250.01 426.89 158.01 426.88 66.01 C 426.02 58.63 430.95 51.13 438.13 49.11 Z" />
<path fill="#becdd4" opacity="1.00" d=" M 190.41 89.60 C 195.82 88.35 201.43 88.88 206.93 88.82 C 229.16 89.36 249.85 105.85 255.37 127.40 C 257.59 134.06 257.24 141.11 257.19 148.01 C 259.01 169.13 252.56 190.75 239.65 207.54 C 237.17 211.07 233.37 213.85 232.30 218.22 C 230.00 226.68 229.74 235.76 231.86 244.29 C 232.87 247.99 234.59 251.88 237.98 253.97 C 261.66 263.38 286.37 270.67 308.69 283.19 C 315.42 287.24 322.32 292.02 325.86 299.29 C 327.43 302.50 328.94 305.76 329.94 309.20 C 331.09 314.94 325.91 320.81 320.05 320.30 C 241.70 320.37 163.35 320.32 84.99 320.33 C 80.62 320.72 76.04 318.04 74.84 313.71 C 73.34 308.90 76.34 304.36 78.16 300.11 C 81.43 292.80 88.11 287.85 94.76 283.80 C 117.15 270.92 142.14 263.69 166.03 254.18 C 171.86 250.70 172.99 243.30 173.80 237.14 C 174.06 229.20 174.20 220.40 169.75 213.49 C 153.37 195.78 145.06 171.08 147.18 147.07 C 146.16 133.68 149.80 119.77 158.17 109.15 C 166.00 98.94 177.75 91.86 190.41 89.60 Z" />
<path fill="#becdd4" opacity="1.00" d=" M 485.67 105.64 C 491.29 100.54 500.71 100.50 506.30 105.66 C 509.62 108.41 511.43 112.54 512.00 116.74 L 512.00 289.17 C 511.40 297.23 504.30 304.45 496.06 304.16 C 487.46 304.50 479.94 296.65 480.01 288.16 C 479.97 231.73 480.02 175.30 479.99 118.88 C 479.91 113.93 481.80 108.83 485.67 105.64 Z" />
</svg>
