<?xml version="1.0" encoding="UTF-8" ?>
<!DOCTYPE svg PUBLIC "-//W3C//DTD SVG 1.1//EN" "http://www.w3.org/Graphics/SVG/1.1/DTD/svg11.dtd">
<svg width="512pt" height="512pt" viewBox="0 0 512 512" version="1.1" xmlns="http://www.w3.org/2000/svg">
<path fill="#becdd4" opacity="1.00" d=" M 227.46 16.61 C 235.56 15.15 243.80 16.78 251.96 16.92 C 289.13 19.69 325.69 30.51 358.37 48.45 C 407.25 75.11 447.27 117.64 470.87 168.07 C 484.46 196.92 492.69 228.29 495.08 260.08 C 495.24 267.74 496.55 275.44 495.65 283.09 C 494.49 292.51 487.20 300.89 477.92 303.07 C 469.75 305.43 460.45 302.55 454.70 296.36 C 450.43 292.07 448.31 286.04 448.03 280.06 C 448.20 242.32 438.02 204.60 419.05 171.97 C 393.61 127.77 352.03 93.12 303.89 76.24 C 286.24 69.93 267.73 66.06 249.06 64.61 C 240.47 63.20 231.41 65.40 223.13 62.13 C 215.53 59.14 209.73 52.00 208.49 43.91 C 206.03 31.68 215.15 18.62 227.46 16.61 Z" />
<path fill="#becdd4" opacity="1.00" d=" M 65.53 99.52 C 82.33 90.48 102.82 86.79 121.24 92.81 C 132.34 96.36 142.42 104.46 146.27 115.72 C 154.77 141.00 163.13 166.33 171.57 191.64 C 175.62 203.40 172.97 217.30 164.43 226.45 C 155.76 235.47 146.66 244.08 138.02 253.13 L 138.09 253.89 C 157.97 297.51 191.50 334.77 232.79 359.13 C 239.84 363.45 247.27 367.09 254.69 370.73 C 261.75 363.78 268.73 356.75 275.73 349.73 C 282.48 342.75 292.18 338.48 301.95 338.87 C 307.46 338.88 312.74 340.70 318.06 341.93 C 341.04 347.68 364.03 353.42 387.02 359.15 C 392.55 360.62 398.36 361.62 403.27 364.74 C 412.94 370.58 419.01 381.02 421.45 391.85 C 425.85 410.69 420.81 430.71 410.96 447.02 C 398.23 467.98 377.49 483.17 354.94 492.16 C 342.31 495.67 328.96 496.81 315.91 495.53 C 295.76 493.98 276.18 488.09 257.57 480.40 C 214.16 461.98 175.52 433.87 140.86 402.19 C 126.40 388.66 112.46 374.54 99.59 359.48 C 75.23 331.39 53.73 300.54 38.18 266.68 C 26.02 240.11 17.55 211.40 16.98 182.03 C 16.73 173.62 17.98 165.28 18.97 156.97 C 18.90 154.29 20.39 151.97 21.31 149.55 C 30.22 128.78 45.34 110.15 65.53 99.52 Z" />
<path fill="#becdd4" opacity="1.00" d=" M 227.47 112.60 C 233.89 111.29 240.44 112.63 246.90 112.86 C 278.89 115.57 309.97 127.92 335.22 147.74 C 359.03 166.29 377.70 191.38 388.55 219.56 C 396.20 239.10 399.82 260.11 399.91 281.07 C 399.44 286.45 397.52 291.82 393.80 295.83 C 388.24 302.18 379.02 305.36 370.79 303.23 C 361.72 301.37 354.21 293.63 352.61 284.51 C 351.80 281.04 352.02 277.46 351.96 273.93 C 350.60 245.47 338.64 217.64 318.84 197.15 C 297.99 175.01 268.39 161.40 238.00 160.04 C 234.47 159.98 230.90 160.18 227.44 159.37 C 218.10 157.72 210.26 149.88 208.61 140.54 C 205.72 128.14 214.95 114.66 227.47 112.60 Z" />
</svg>
