<?xml version="1.0" encoding="UTF-8" ?>
<!DOCTYPE svg PUBLIC "-//W3C//DTD SVG 1.1//EN" "http://www.w3.org/Graphics/SVG/1.1/DTD/svg11.dtd">
<svg width="512pt" height="512pt" viewBox="0 0 512 512" version="1.1" xmlns="http://www.w3.org/2000/svg">
<path fill="#becdd4" opacity="1.00" d=" M 20.67 84.73 C 33.76 71.39 52.34 64.13 70.94 64.02 C 150.97 63.97 231.01 64.02 311.04 63.99 C 321.36 64.11 331.82 65.59 341.32 69.81 C 358.77 77.16 372.90 91.98 379.40 109.76 C 383.27 119.75 384.14 130.58 384.02 141.19 C 414.17 131.35 444.21 121.14 474.31 111.13 C 481.36 108.92 488.70 105.19 496.23 107.56 C 504.95 109.76 511.16 117.91 512.00 126.72 L 512.00 385.12 C 511.28 391.57 508.11 397.90 502.58 401.51 C 497.20 405.22 490.09 406.19 483.91 404.07 C 450.60 393.01 417.37 381.71 384.02 370.81 C 384.42 385.44 381.90 400.49 374.22 413.16 C 365.29 428.57 350.23 440.28 333.08 445.11 C 324.63 447.54 315.77 448.11 307.02 448.00 C 228.35 447.99 149.68 448.02 71.01 447.99 C 55.98 447.76 40.89 443.29 28.79 434.23 C 13.82 423.38 3.54 406.31 0.95 388.01 C 0.60 385.08 0.34 382.15 0.00 379.22 L 0.00 133.03 C 0.67 115.11 7.78 97.34 20.67 84.73 M 68.44 106.60 C 54.36 107.13 42.31 119.95 42.50 134.03 C 42.43 214.32 42.50 294.62 42.46 374.92 C 42.41 379.98 42.91 385.21 45.25 389.78 C 49.69 399.16 59.68 405.52 70.08 405.50 C 151.07 405.56 232.06 405.51 313.06 405.52 C 323.78 405.81 334.26 399.42 338.78 389.69 C 342.49 382.34 341.34 373.89 341.53 365.96 C 341.79 354.63 341.00 343.31 341.54 331.99 C 341.51 280.65 341.54 229.31 341.53 177.97 C 341.55 175.64 341.23 173.32 341.19 171.00 C 341.83 158.72 341.43 146.41 341.50 134.12 C 341.55 123.23 334.58 112.80 324.52 108.68 C 318.06 105.82 310.85 106.58 303.99 106.47 C 225.47 106.56 146.95 106.31 68.44 106.60 M 383.98 186.00 C 384.01 232.67 384.01 279.34 383.98 326.00 C 412.44 335.61 440.94 345.19 469.51 354.48 C 469.54 288.83 469.54 223.18 469.51 157.53 C 440.94 166.81 412.44 176.38 383.98 186.00 Z" />
</svg>
