<?xml version="1.0" encoding="UTF-8" ?>
<!DOCTYPE svg PUBLIC "-//W3C//DTD SVG 1.1//EN" "http://www.w3.org/Graphics/SVG/1.1/DTD/svg11.dtd">
<svg width="512pt" height="512pt" viewBox="0 0 512 512" version="1.1" xmlns="http://www.w3.org/2000/svg">
<path fill="#becdd4" opacity="1.00" d=" M 41.57 0.00 L 363.52 0.00 C 374.28 0.54 384.93 4.69 392.55 12.42 C 400.64 20.38 405.35 31.69 405.15 43.05 C 405.16 146.03 405.16 249.01 405.15 351.99 C 405.05 360.00 405.81 368.24 403.05 375.92 C 397.74 392.89 380.83 405.36 363.01 405.14 C 256.35 405.13 149.68 405.12 43.02 405.13 C 28.58 405.43 14.39 397.60 6.75 385.38 C 2.50 378.90 0.57 371.21 0.00 363.55 L 0.00 41.54 C 0.55 30.35 5.16 19.24 13.50 11.62 C 20.98 4.35 31.25 0.58 41.57 0.00 M 49.30 43.42 C 45.05 45.04 42.35 49.52 42.53 54.02 C 42.45 153.05 42.49 252.09 42.48 351.12 C 42.04 357.43 47.59 363.21 53.93 362.87 C 153.31 362.87 252.69 362.90 352.07 362.83 C 358.21 362.84 363.32 357.09 362.86 351.02 C 362.83 251.99 362.85 152.96 362.84 53.93 C 363.15 47.96 357.98 42.40 351.94 42.55 C 319.95 42.44 287.96 42.53 255.98 42.51 C 190.67 42.72 125.35 42.37 60.04 42.66 C 56.46 42.78 52.74 42.19 49.30 43.42 Z" />
<path fill="#becdd4" opacity="1.00" d=" M 194.13 99.17 C 205.55 98.23 217.54 98.77 227.94 104.11 C 246.68 112.84 258.83 133.43 257.78 154.03 C 257.46 157.01 258.01 159.98 258.02 162.96 C 258.46 183.81 251.13 204.71 237.73 220.70 C 230.49 227.31 230.88 238.05 231.07 247.05 C 231.70 253.27 232.95 260.80 238.79 264.28 C 257.28 271.47 276.16 277.73 294.28 285.83 C 303.73 290.14 313.33 294.79 320.89 302.06 C 325.33 306.18 327.63 311.91 329.82 317.41 C 331.25 321.33 330.18 326.26 326.60 328.66 C 324.18 330.61 320.92 330.46 317.99 330.51 C 240.33 330.43 162.66 330.52 85.00 330.46 C 78.64 331.08 73.13 324.34 75.24 318.25 C 77.19 313.19 79.19 307.97 82.78 303.82 C 88.15 297.91 95.17 293.83 102.19 290.18 C 122.58 279.88 144.42 272.95 165.66 264.70 C 170.73 262.63 172.54 256.83 173.60 251.94 C 174.83 243.97 174.76 235.65 172.40 227.89 C 171.48 224.23 168.30 221.91 166.21 218.94 C 153.28 202.74 146.40 181.81 147.48 161.09 C 148.07 155.71 147.22 150.28 147.96 144.91 C 149.61 132.67 155.51 120.97 164.73 112.70 C 172.74 105.18 183.30 100.64 194.13 99.17 Z" />
<path fill="#becdd4" opacity="1.00" d=" M 435.44 154.62 C 440.33 149.88 447.40 147.89 454.08 148.95 C 465.21 150.46 477.01 149.62 487.40 154.56 C 501.64 161.05 511.31 175.87 512.00 191.46 L 512.00 193.71 C 504.12 282.68 495.83 371.62 487.84 460.59 C 486.88 469.40 486.97 478.62 483.09 486.81 C 476.70 501.40 461.61 511.51 445.70 512.00 L 442.81 512.00 C 410.58 508.69 378.26 506.20 346.02 503.01 C 278.66 496.87 211.33 490.61 143.96 484.60 C 139.08 484.18 134.14 482.81 130.43 479.46 C 123.64 473.85 120.93 463.72 124.49 455.58 C 127.06 448.81 133.39 443.77 140.51 442.61 C 144.65 441.53 148.83 443.00 153.00 442.98 C 246.04 451.40 339.05 459.92 432.12 468.33 C 436.19 468.98 440.79 467.63 443.18 464.10 C 445.48 460.60 445.23 456.20 445.72 452.20 C 453.20 369.77 460.78 287.34 468.28 204.91 C 468.83 201.11 467.61 196.98 464.54 194.56 C 460.47 191.21 454.86 192.10 450.00 191.37 C 442.26 191.14 434.74 186.66 431.18 179.73 C 426.83 171.66 428.60 160.79 435.44 154.62 Z" />
</svg>
