<?xml version="1.0" encoding="UTF-8" ?>
<!DOCTYPE svg PUBLIC "-//W3C//DTD SVG 1.1//EN" "http://www.w3.org/Graphics/SVG/1.1/DTD/svg11.dtd">
<svg width="512pt" height="512pt" viewBox="0 0 512 512" version="1.1" xmlns="http://www.w3.org/2000/svg">
<path fill="#becdd4" opacity="1.00" d=" M 253.59 0.00 L 258.34 0.00 C 282.58 0.58 306.81 3.93 330.01 11.12 C 383.99 27.48 432.09 62.34 464.59 108.42 C 489.51 143.24 505.44 184.48 510.18 227.06 C 511.29 235.23 511.36 243.50 512.00 251.72 L 512.00 259.28 C 511.31 279.56 509.01 299.85 503.81 319.50 C 494.18 356.99 475.71 392.10 450.63 421.54 C 423.93 452.96 389.55 477.81 351.34 493.31 C 321.89 505.38 290.15 511.36 258.38 512.00 L 253.70 512.00 C 210.69 511.27 167.73 500.13 130.40 478.59 C 86.29 453.63 49.80 415.34 27.16 369.96 C 13.15 342.32 4.44 312.02 1.39 281.19 C 0.68 274.27 0.51 267.30 0.00 260.36 L 0.00 252.47 C 0.10 249.34 0.33 246.21 0.53 243.09 C 2.71 194.95 19.33 147.64 47.35 108.47 C 80.56 61.45 129.99 26.05 185.36 10.15 C 207.50 3.61 230.55 0.59 253.59 0.00 M 238.56 64.73 C 204.87 67.69 172.07 79.98 144.63 99.74 C 107.34 126.24 79.93 166.40 69.27 210.92 C 63.62 234.09 62.46 258.32 65.67 281.94 C 70.91 321.57 89.31 359.19 116.84 388.12 C 142.09 414.69 174.99 433.99 210.64 442.63 C 234.90 448.59 260.34 449.64 285.02 445.90 C 321.65 440.38 356.44 423.74 383.96 398.98 C 415.96 370.42 438.14 330.92 445.29 288.58 C 451.82 251.08 446.88 211.60 430.98 176.98 C 411.96 134.84 377.22 100.07 335.09 81.03 C 305.08 67.23 271.41 61.66 238.56 64.73 Z" />
<path fill="#becdd4" opacity="1.00" d=" M 330.72 168.74 C 335.90 163.83 342.74 160.85 349.83 160.18 C 365.22 159.01 380.14 170.80 383.16 185.83 C 385.59 196.01 381.62 207.03 374.29 214.28 C 331.29 257.27 288.32 300.29 245.29 343.26 C 234.38 354.59 214.41 354.83 203.24 343.76 C 181.35 321.97 159.56 300.09 137.70 278.27 C 130.36 271.01 126.39 260.00 128.83 249.82 C 131.88 234.83 146.73 223.05 162.09 224.17 C 169.19 224.84 176.07 227.80 181.26 232.72 C 195.56 246.87 209.67 261.20 224.00 275.32 C 259.66 239.89 295.10 204.22 330.72 168.74 Z" />
</svg>
