<?xml version="1.0" encoding="UTF-8"?>
<!DOCTYPE svg PUBLIC "-//W3C//DTD SVG 1.1//EN" "http://www.w3.org/Graphics/SVG/1.1/DTD/svg11.dtd">
<svg xmlns="http://www.w3.org/2000/svg" viewBox="0 0 2104 220" version="1.1" width="195" height="20" preserveAspectRatio="xMidYMid meet">
 <path fill="#ffffff" opacity="1.00" d=" M 1552.00 0.00 L 1563.00 0.00 C 1562.99 60.50 1563.02 121.01 1562.98 181.51 C 1559.31 181.50 1555.65 181.50 1552.00 181.50 C 1552.00 121.00 1552.00 60.50 1552.00 0.00 Z"/>
 <path fill="#ffffff" opacity="1.00" d=" M 2049.09 7.07 C 2056.68 1.48 2066.56 -1.17 2075.90 0.61 C 2083.59 2.07 2090.97 5.95 2096.01 12.01 C 2100.60 17.49 2103.17 24.42 2104.00 31.48 L 2104.00 36.37 C 2102.96 48.00 2096.07 59.26 2085.32 64.25 C 2073.01 70.63 2057.07 68.37 2046.86 59.07 C 2038.20 51.15 2034.04 38.53 2036.60 27.04 C 2038.32 19.24 2042.61 11.86 2049.09 7.07 M 2062.54 6.69 C 2058.51 7.88 2054.62 9.73 2051.41 12.45 C 2041.60 20.69 2038.53 35.91 2044.80 47.18 C 2051.27 60.29 2068.76 66.06 2081.86 59.64 C 2095.46 53.95 2102.17 36.51 2096.12 23.10 C 2091.21 10.15 2075.72 2.90 2062.54 6.69 Z"/>
 <path fill="#7cad36" opacity="1.00" d=" M 1048.81 3.35 C 1062.06 0.81 1075.61 1.69 1089.02 1.54 C 1133.69 1.54 1178.35 1.54 1223.02 1.54 C 1235.06 1.61 1247.22 1.02 1259.12 3.27 C 1293.42 9.05 1324.40 31.80 1339.79 63.05 C 1355.77 94.45 1354.79 133.71 1337.25 164.27 C 1320.48 194.47 1288.85 215.52 1254.67 220.00 L 1053.50 220.00 C 1019.37 215.40 987.84 194.35 971.08 164.18 C 969.32 160.95 967.65 157.67 966.10 154.33 C 960.68 141.41 957.56 127.53 957.24 113.51 C 957.19 109.37 957.39 105.24 957.65 101.12 C 959.39 84.40 964.78 68.02 973.81 53.81 C 990.21 27.41 1018.21 8.68 1048.81 3.35 M 1054.29 28.27 C 1054.38 54.69 1054.12 81.12 1054.42 107.53 C 1066.96 107.37 1079.51 107.52 1092.05 107.46 C 1092.02 81.06 1092.14 54.65 1091.99 28.25 C 1079.43 28.29 1066.86 28.25 1054.29 28.27 M 1175.98 44.00 C 1174.22 47.37 1174.38 51.30 1174.31 54.99 C 1174.31 91.99 1174.30 128.99 1174.31 165.99 C 1174.29 170.49 1175.43 175.12 1178.22 178.73 C 1184.47 187.32 1199.40 187.28 1205.43 178.45 C 1208.01 174.86 1208.97 170.35 1208.90 165.99 C 1208.92 143.40 1208.86 120.82 1208.93 98.24 C 1229.15 123.60 1249.25 149.07 1269.42 174.48 C 1272.76 178.52 1276.10 183.40 1281.58 184.58 C 1287.26 185.67 1293.55 184.87 1298.29 181.36 C 1302.51 178.27 1304.69 173.08 1304.51 167.91 C 1304.67 131.26 1304.52 94.62 1304.58 57.97 C 1304.73 52.43 1304.63 46.43 1301.29 41.72 C 1295.31 32.39 1279.58 32.14 1273.45 41.43 C 1268.75 47.98 1270.24 56.39 1270.01 63.92 C 1269.82 83.30 1270.38 102.71 1269.72 122.07 C 1250.26 97.63 1230.49 73.44 1210.92 49.09 C 1207.88 45.44 1205.12 41.51 1201.52 38.37 C 1197.36 34.68 1191.24 33.86 1186.01 35.31 C 1181.56 36.52 1178.13 40.05 1175.98 44.00 M 1005.62 71.67 C 998.09 84.67 994.68 99.97 995.91 114.94 C 996.88 129.87 1002.85 144.29 1012.15 155.94 C 1023.25 169.74 1039.19 179.56 1056.49 183.33 C 1068.17 185.73 1080.44 185.66 1092.05 182.88 C 1111.27 178.11 1128.63 165.91 1139.25 149.14 C 1155.40 124.59 1154.60 90.34 1137.48 66.48 C 1128.96 54.56 1116.91 45.38 1103.58 39.43 C 1103.62 51.96 1103.56 64.49 1103.60 77.01 C 1103.32 78.80 1104.79 79.97 1105.80 81.20 C 1112.91 89.29 1116.71 100.18 1116.22 110.94 C 1115.87 122.83 1110.01 134.30 1100.92 141.89 C 1092.41 149.10 1081.03 152.76 1069.91 151.78 C 1055.17 150.74 1041.25 141.57 1034.62 128.34 C 1029.18 117.83 1028.50 104.99 1032.92 94.01 C 1034.63 89.10 1037.90 85.02 1040.62 80.69 C 1040.81 67.09 1040.64 53.47 1040.70 39.86 C 1026.06 46.43 1013.52 57.68 1005.62 71.67 Z"/>
 <path fill="#ffffff" opacity="1.00" d=" M 2059.05 15.81 C 2065.09 14.97 2071.68 14.05 2077.44 16.65 C 2082.58 19.05 2084.07 26.24 2080.97 30.79 C 2079.69 32.85 2077.51 34.04 2075.40 35.01 C 2082.16 38.39 2081.15 47.17 2083.78 53.21 C 2082.07 53.20 2080.38 53.20 2078.72 53.20 C 2077.01 48.93 2076.83 44.19 2074.85 40.03 C 2072.76 36.11 2067.72 36.76 2064.00 36.72 C 2063.99 42.22 2064.00 47.71 2064.00 53.20 C 2062.32 53.20 2060.68 53.20 2059.06 53.20 C 2059.05 40.74 2059.07 28.27 2059.05 15.81 M 2064.03 19.14 C 2063.96 23.79 2064.00 28.43 2064.00 33.07 C 2067.51 32.94 2071.45 33.61 2074.58 31.56 C 2078.52 29.21 2078.69 22.55 2074.71 20.17 C 2071.48 18.28 2067.56 18.77 2064.03 19.14 Z"/>
 <path fill="#ffffff" opacity="1.00" d=" M 1054.29 28.27 C 1066.86 28.25 1079.43 28.29 1091.99 28.25 C 1092.14 54.65 1092.02 81.06 1092.05 107.46 C 1079.51 107.52 1066.96 107.37 1054.42 107.53 C 1054.12 81.12 1054.38 54.69 1054.29 28.27 Z"/>
 <path fill="#ffffff" opacity="1.00" d=" M 66.61 33.83 C 91.24 30.33 117.20 39.72 133.77 58.28 C 138.49 63.70 139.16 72.27 135.06 78.22 C 131.82 83.14 125.89 85.85 120.05 85.48 C 114.20 85.24 109.42 81.47 105.42 77.56 C 91.96 64.68 69.64 62.81 54.12 73.05 C 42.95 80.20 35.44 92.88 34.66 106.13 C 33.96 117.16 38.02 128.40 45.58 136.45 C 53.81 145.39 65.90 150.71 78.07 150.47 C 85.25 150.16 92.39 148.27 98.69 144.79 C 103.57 142.12 107.09 137.69 111.43 134.31 C 117.46 129.72 126.63 129.41 132.62 134.22 C 137.88 138.09 140.41 145.30 138.38 151.56 C 136.53 157.08 132.15 161.19 127.97 165.02 C 114.71 176.33 97.51 182.86 80.13 183.65 C 59.47 184.61 38.69 176.51 23.82 162.21 C 10.54 149.75 1.79 132.31 0.56 114.08 C -0.61 99.78 2.45 85.12 9.51 72.61 C 20.94 51.59 42.94 36.89 66.61 33.83 Z"/>
 <path fill="#ffffff" opacity="1.00" d=" M 167.00 35.75 C 173.26 32.83 181.41 33.35 186.68 38.05 C 190.48 41.62 192.17 46.91 192.24 52.02 C 192.27 65.27 192.24 78.51 192.25 91.75 C 210.75 91.75 229.25 91.75 247.75 91.75 C 247.76 78.19 247.73 64.63 247.76 51.07 C 247.86 44.81 251.04 38.32 256.88 35.57 C 263.42 32.72 272.03 33.48 277.06 38.89 C 280.44 42.35 281.94 47.27 281.99 52.02 C 282.02 89.04 281.99 126.05 282.00 163.07 C 281.97 169.77 279.57 177.15 273.55 180.78 C 266.49 184.74 256.23 183.49 251.40 176.60 C 248.28 172.43 247.49 167.07 247.74 161.99 C 247.70 148.89 247.88 135.79 247.65 122.69 C 229.18 122.84 210.71 122.69 192.24 122.77 C 192.26 136.50 192.24 150.24 192.26 163.97 C 192.32 169.27 190.82 174.81 186.95 178.61 C 180.21 184.97 167.88 184.46 162.08 177.06 C 159.15 173.41 157.89 168.65 157.99 164.02 C 158.03 126.64 157.97 89.26 158.02 51.88 C 158.13 45.49 161.13 38.77 167.00 35.75 Z"/>
 <path fill="#ffffff" opacity="1.00" d=" M 478.97 37.12 C 484.57 32.87 493.10 32.90 498.49 37.48 C 501.80 40.19 503.68 44.17 505.14 48.09 C 512.87 69.17 520.83 90.15 528.46 111.25 C 535.91 91.58 543.03 71.78 550.34 52.05 C 552.21 46.79 554.27 41.30 558.46 37.41 C 564.21 32.58 573.44 32.94 578.99 37.92 C 582.58 41.06 584.39 45.69 585.44 50.23 C 593.66 83.33 602.03 116.39 610.30 149.47 C 612.03 157.30 615.77 165.93 611.78 173.67 C 606.91 183.26 592.59 185.46 584.91 178.07 C 579.90 173.40 579.10 166.30 577.51 160.02 C 573.00 142.30 568.77 124.51 564.22 106.81 C 557.78 125.80 552.04 145.04 545.85 164.13 C 544.16 169.10 543.06 174.63 539.18 178.46 C 534.32 183.43 525.75 184.24 520.21 179.96 C 516.59 177.22 514.56 172.99 513.15 168.80 C 506.66 147.98 500.09 127.19 493.58 106.37 C 488.75 126.59 483.89 146.80 479.00 167.00 C 477.76 172.00 475.47 177.18 470.92 179.99 C 463.29 184.65 451.95 182.74 447.16 174.91 C 444.43 170.83 444.32 165.63 445.08 160.95 C 454.28 123.27 463.22 85.52 472.35 47.82 C 473.34 43.68 475.45 39.65 478.97 37.12 Z"/>
 <path fill="#ffffff" opacity="1.00" d=" M 759.04 41.05 C 764.80 31.74 780.35 31.46 786.58 40.41 C 789.01 43.70 790.07 47.88 790.02 51.94 C 789.96 84.78 790.04 117.61 789.97 150.45 C 804.95 150.57 819.93 150.47 834.91 150.50 C 838.83 150.56 842.83 151.62 846.00 154.01 C 854.02 159.76 853.39 173.96 844.73 178.84 C 841.26 181.06 837.03 181.52 833.01 181.51 C 814.01 181.47 795.01 181.53 776.02 181.48 C 770.38 181.37 764.24 180.13 760.25 175.82 C 756.63 171.83 755.79 166.24 755.75 161.05 C 755.74 125.69 755.76 90.34 755.74 54.98 C 755.75 50.18 756.32 45.15 759.04 41.05 Z"/>
 <path fill="#ffffff" opacity="1.00" d=" M 351.84 43.95 C 357.72 31.75 378.00 32.37 383.50 44.61 C 400.86 81.60 418.27 118.57 435.57 155.59 C 438.50 161.43 439.68 168.98 435.78 174.67 C 430.96 182.14 420.35 184.61 412.55 180.53 C 408.71 178.42 405.91 174.81 404.13 170.87 C 401.98 166.05 399.71 161.28 397.49 156.50 C 377.61 156.56 357.72 156.38 337.84 156.59 C 334.50 163.58 332.69 171.56 327.41 177.43 C 320.48 184.87 307.20 183.83 301.17 175.78 C 297.03 171.04 297.17 163.96 299.62 158.46 C 317.10 120.33 334.32 82.07 351.84 43.95 M 367.70 86.06 C 361.93 99.87 356.10 113.65 350.36 127.48 C 362.09 127.54 373.83 127.47 385.57 127.52 C 379.59 113.71 373.72 99.85 367.70 86.06 Z"/>
 <path fill="#ffffff" opacity="1.00" d=" M 1175.98 44.00 C 1178.13 40.05 1181.56 36.52 1186.01 35.31 C 1191.24 33.86 1197.36 34.68 1201.52 38.37 C 1205.12 41.51 1207.88 45.44 1210.92 49.09 C 1230.49 73.44 1250.26 97.63 1269.72 122.07 C 1270.38 102.71 1269.82 83.30 1270.01 63.92 C 1270.24 56.39 1268.75 47.98 1273.45 41.43 C 1279.58 32.14 1295.31 32.39 1301.29 41.72 C 1304.63 46.43 1304.73 52.43 1304.58 57.97 C 1304.52 94.62 1304.67 131.26 1304.51 167.91 C 1304.69 173.08 1302.51 178.27 1298.29 181.36 C 1293.55 184.87 1287.26 185.67 1281.58 184.58 C 1276.10 183.40 1272.76 178.52 1269.42 174.48 C 1249.25 149.07 1229.15 123.60 1208.93 98.24 C 1208.86 120.82 1208.92 143.40 1208.90 165.99 C 1208.97 170.35 1208.01 174.86 1205.43 178.45 C 1199.40 187.28 1184.47 187.32 1178.22 178.73 C 1175.43 175.12 1174.29 170.49 1174.31 165.99 C 1174.30 128.99 1174.31 91.99 1174.31 54.99 C 1174.38 51.30 1174.22 47.37 1175.98 44.00 Z"/>
 <path fill="#ffffff" opacity="1.00" d=" M 640.89 41.03 C 644.39 37.10 649.82 35.50 654.95 35.49 C 676.31 35.51 697.66 35.50 719.02 35.50 C 725.19 35.51 731.80 38.59 734.36 44.48 C 736.57 50.29 735.85 57.74 731.05 62.08 C 727.57 65.37 722.65 66.51 717.98 66.50 C 702.24 66.51 686.49 66.48 670.74 66.51 C 670.75 75.42 670.74 84.34 670.75 93.25 C 683.16 93.25 695.56 93.27 707.97 93.24 C 712.71 93.12 717.68 94.56 721.10 97.96 C 724.86 101.99 725.20 108.33 723.15 113.24 C 720.70 118.57 714.65 121.20 709.04 121.22 C 696.28 121.29 683.52 121.23 670.76 121.25 C 670.74 131.00 670.75 140.75 670.75 150.50 C 686.83 150.50 702.92 150.52 719.00 150.49 C 723.19 150.43 727.54 151.40 730.99 153.87 C 738.93 159.24 738.82 172.69 731.02 178.14 C 727.56 180.68 723.16 181.44 718.97 181.50 C 698.31 181.49 677.65 181.50 656.99 181.49 C 651.78 181.34 646.16 180.56 642.10 177.00 C 638.13 173.57 636.48 168.16 636.49 163.05 C 636.51 126.70 636.50 90.35 636.50 54.00 C 636.65 49.41 637.82 44.58 640.89 41.03 Z"/>
 <path fill="#ffffff" opacity="1.00" d=" M 875.54 40.75 C 879.19 36.79 884.80 35.46 890.02 35.49 C 911.02 35.52 932.03 35.49 953.03 35.50 C 956.68 35.51 960.37 36.45 963.47 38.43 C 972.07 43.68 972.02 58.12 963.58 63.49 C 959.90 66.00 955.33 66.56 950.98 66.51 C 935.67 66.46 920.36 66.55 905.05 66.47 C 904.94 75.39 905.02 84.32 905.00 93.25 C 917.69 93.25 930.38 93.26 943.07 93.24 C 948.82 93.17 954.96 95.77 957.65 101.12 C 957.39 105.24 957.19 109.37 957.24 113.51 C 954.86 118.92 948.56 121.23 943.00 121.24 C 930.33 121.28 917.67 121.24 905.01 121.25 C 905.00 131.00 904.97 140.76 905.02 150.52 C 921.37 150.48 937.72 150.52 954.07 150.49 C 958.36 150.45 962.60 151.85 966.10 154.33 C 967.65 157.67 969.32 160.95 971.08 164.18 C 971.63 168.71 970.39 173.66 966.90 176.77 C 962.77 180.91 956.59 181.67 951.02 181.52 C 932.36 181.48 913.70 181.49 895.04 181.51 C 889.69 181.53 884.03 181.48 879.20 178.88 C 876.14 177.33 873.75 174.63 872.46 171.46 C 870.10 165.96 870.87 159.85 870.75 154.03 C 870.74 121.36 870.76 88.69 870.74 56.02 C 870.77 50.65 871.68 44.80 875.54 40.75 Z"/>
 <path fill="#ffffff" opacity="1.00" d=" M 1005.62 71.67 C 1013.52 57.68 1026.06 46.43 1040.70 39.86 C 1040.64 53.47 1040.81 67.09 1040.62 80.69 C 1037.90 85.02 1034.63 89.10 1032.92 94.01 C 1028.50 104.99 1029.18 117.83 1034.62 128.34 C 1041.25 141.57 1055.17 150.74 1069.91 151.78 C 1081.03 152.76 1092.41 149.10 1100.92 141.89 C 1110.01 134.30 1115.87 122.83 1116.22 110.94 C 1116.71 100.18 1112.91 89.29 1105.80 81.20 C 1104.79 79.97 1103.32 78.80 1103.60 77.01 C 1103.56 64.49 1103.62 51.96 1103.58 39.43 C 1116.91 45.38 1128.96 54.56 1137.48 66.48 C 1154.60 90.34 1155.40 124.59 1139.25 149.14 C 1128.63 165.91 1111.27 178.11 1092.05 182.88 C 1080.44 185.66 1068.17 185.73 1056.49 183.33 C 1039.19 179.56 1023.25 169.74 1012.15 155.94 C 1002.85 144.29 996.88 129.87 995.91 114.94 C 994.68 99.97 998.09 84.67 1005.62 71.67 Z"/>
 <path fill="#ffffff" opacity="1.00" d=" M 1424.03 48.12 C 1436.97 41.75 1452.02 40.91 1466.08 43.22 C 1479.49 45.45 1492.82 52.02 1500.58 63.53 C 1505.39 70.33 1507.68 78.57 1508.51 86.78 C 1505.05 86.74 1501.59 86.73 1498.15 86.80 C 1497.44 78.33 1494.07 70.00 1488.06 63.91 C 1481.00 56.70 1471.11 52.89 1461.25 51.53 C 1450.15 50.09 1438.31 51.06 1428.43 56.69 C 1416.35 63.22 1407.75 75.02 1403.55 87.93 C 1398.73 102.11 1398.95 117.56 1402.12 132.07 C 1405.31 147.29 1414.62 161.88 1429.07 168.54 C 1445.53 176.00 1466.29 175.02 1480.98 164.00 C 1491.35 156.47 1497.67 144.32 1499.47 131.77 C 1502.93 131.74 1506.39 131.74 1509.87 131.77 C 1507.90 147.16 1500.14 162.09 1487.42 171.24 C 1479.19 177.28 1469.24 180.83 1459.11 181.80 C 1446.54 182.71 1433.38 181.58 1422.10 175.55 C 1407.18 167.94 1397.02 153.09 1392.91 137.11 C 1387.92 118.07 1388.02 97.23 1395.60 78.87 C 1401.00 65.67 1411.14 54.37 1424.03 48.12 Z"/>
 <path fill="#ffffff" opacity="1.00" d=" M 1651.11 43.57 C 1662.62 41.36 1674.55 41.64 1686.05 43.83 C 1695.28 45.66 1704.59 50.03 1710.03 58.01 C 1714.39 64.01 1715.51 71.69 1715.26 78.93 C 1715.25 104.98 1715.23 131.03 1715.27 157.09 C 1715.47 161.39 1715.53 166.88 1719.79 169.28 C 1723.54 171.05 1727.77 169.82 1731.70 169.39 C 1731.75 172.24 1731.74 175.10 1731.77 177.96 C 1724.34 179.61 1715.34 180.06 1709.29 174.67 C 1703.56 168.61 1705.56 159.69 1704.73 152.18 C 1698.25 169.12 1680.62 179.55 1663.16 181.59 C 1651.39 182.63 1639.06 182.23 1628.03 177.56 C 1619.62 174.03 1612.65 166.87 1610.11 158.03 C 1607.77 149.79 1607.58 140.90 1609.72 132.60 C 1612.51 122.06 1621.30 114.06 1631.26 110.23 C 1650.07 102.96 1670.72 105.48 1690.13 101.17 C 1696.06 99.90 1702.82 96.68 1704.12 90.13 C 1705.62 81.66 1706.42 72.15 1701.68 64.50 C 1696.59 56.55 1687.09 52.86 1678.12 51.57 C 1669.46 50.59 1660.52 50.53 1652.09 52.89 C 1642.72 55.47 1633.92 61.54 1629.73 70.50 C 1627.11 75.46 1626.27 81.05 1625.62 86.55 C 1622.21 86.48 1618.82 86.51 1615.43 86.49 C 1615.84 75.70 1618.85 64.44 1626.43 56.41 C 1632.86 49.42 1641.90 45.37 1651.11 43.57 M 1692.16 109.50 C 1680.64 111.82 1668.82 111.66 1657.22 113.35 C 1646.75 114.63 1635.79 116.73 1627.22 123.29 C 1620.20 128.83 1618.02 138.41 1618.74 146.95 C 1619.36 156.32 1625.37 165.02 1633.72 169.23 C 1640.90 172.75 1649.08 173.47 1656.99 173.25 C 1666.25 172.99 1675.86 171.22 1683.59 165.80 C 1693.27 159.61 1700.70 149.77 1703.36 138.53 C 1706.17 127.05 1704.56 115.16 1705.03 103.47 C 1701.61 106.97 1696.82 108.51 1692.16 109.50 Z"/>
 <path fill="#ffffff" opacity="1.00" d=" M 1795.05 44.47 C 1808.44 41.37 1822.58 41.13 1835.96 44.43 C 1846.30 46.98 1856.04 53.32 1861.17 62.85 C 1865.03 69.54 1866.28 77.37 1866.29 85.00 C 1862.86 85.00 1859.45 85.00 1856.05 85.00 C 1855.85 77.95 1854.44 70.68 1850.12 64.93 C 1843.88 55.80 1832.51 52.13 1821.97 51.18 C 1812.40 50.56 1802.52 51.16 1793.50 54.66 C 1786.28 57.63 1779.36 63.17 1777.36 71.02 C 1775.90 77.45 1776.76 84.82 1781.18 89.96 C 1785.94 95.66 1793.10 98.47 1800.02 100.61 C 1812.58 104.11 1825.50 106.09 1838.14 109.27 C 1847.82 111.67 1857.78 115.78 1864.01 123.95 C 1868.69 129.86 1870.24 137.59 1870.27 144.98 C 1870.21 151.54 1868.90 158.44 1864.78 163.73 C 1858.95 171.75 1849.84 176.79 1840.41 179.32 C 1830.46 181.89 1820.10 182.39 1809.88 181.86 C 1798.45 180.96 1786.86 177.54 1777.91 170.14 C 1767.23 161.60 1761.40 147.80 1761.75 134.24 C 1765.11 134.25 1768.49 134.27 1771.87 134.21 C 1772.39 141.37 1774.23 148.60 1778.38 154.56 C 1784.02 163.36 1793.35 169.46 1803.49 171.76 C 1813.49 174.16 1823.98 173.48 1834.00 171.56 C 1843.47 169.57 1853.26 164.76 1857.75 155.73 C 1860.84 148.59 1860.76 139.87 1856.98 133.00 C 1852.01 124.97 1842.63 121.48 1833.97 119.06 C 1823.08 116.42 1812.01 114.56 1801.16 111.77 C 1791.48 109.37 1781.36 106.08 1774.32 98.66 C 1768.78 92.95 1766.21 84.92 1766.47 77.06 C 1766.20 70.44 1767.82 63.55 1772.03 58.31 C 1777.54 50.90 1786.25 46.63 1795.05 44.47 Z"/>
 <path fill="#ffffff" opacity="1.00" d=" M 1942.88 44.34 C 1952.12 42.24 1961.70 41.54 1971.15 42.43 C 1981.92 43.29 1993.02 46.32 2001.20 53.74 C 2009.99 61.50 2013.81 73.50 2013.54 84.99 C 2010.11 85.00 2006.70 85.00 2003.30 85.00 C 2003.12 77.90 2001.65 70.57 1997.28 64.80 C 1991.00 55.73 1979.64 52.10 1969.12 51.17 C 1959.62 50.58 1949.81 51.16 1940.86 54.62 C 1933.94 57.41 1927.38 62.57 1924.94 69.85 C 1922.95 76.70 1923.81 84.86 1928.73 90.31 C 1933.45 95.74 1940.37 98.46 1947.07 100.55 C 1960.85 104.45 1975.09 106.37 1988.88 110.21 C 1997.25 112.67 2005.63 116.67 2011.09 123.72 C 2017.31 131.63 2018.40 142.41 2016.90 152.07 C 2015.88 159.24 2011.55 165.54 2006.06 170.08 C 1997.21 177.57 1985.56 180.59 1974.25 181.61 C 1958.44 183.02 1941.28 181.63 1927.94 172.21 C 1915.58 163.94 1908.61 148.97 1908.98 134.24 C 1912.36 134.25 1915.76 134.25 1919.17 134.25 C 1919.58 142.81 1922.51 151.28 1928.06 157.87 C 1936.33 168.34 1949.94 173.21 1962.99 173.26 C 1972.81 173.25 1982.95 172.25 1991.92 167.95 C 1998.80 164.74 2004.96 158.79 2006.53 151.14 C 2008.00 143.92 2007.11 135.62 2001.98 129.98 C 1996.59 123.93 1988.66 121.15 1981.07 119.02 C 1969.58 116.25 1957.90 114.33 1946.49 111.26 C 1939.40 109.47 1932.35 107.04 1926.34 102.79 C 1919.79 98.26 1915.07 91.01 1914.11 83.06 C 1913.07 74.85 1913.63 65.77 1918.82 58.96 C 1924.39 50.99 1933.63 46.52 1942.88 44.34 Z"/>
</svg>
