<?xml version="1.0" encoding="utf-8"?>
<!-- Generator: Adobe Illustrator 17.1.0, SVG Export Plug-In . SVG Version: 6.00 Build 0)  -->
<!DOCTYPE svg PUBLIC "-//W3C//DTD SVG 1.1//EN" "http://www.w3.org/Graphics/SVG/1.1/DTD/svg11.dtd">
<svg version="1.1" id="Layer_1" xmlns="http://www.w3.org/2000/svg" xmlns:xlink="http://www.w3.org/1999/xlink" x="0px" y="0px"
	 width="426.3px" height="488.9px" viewBox="0 0 426.3 488.9" enable-background="new 0 0 426.3 488.9" xml:space="preserve">
<g>
	<ellipse fill="#D4D4D4" cx="202.4" cy="455.7" rx="202.4" ry="33.2"/>
	<ellipse fill="#C7C8C8" cx="202.4" cy="455.7" rx="148.5" ry="24.3"/>
	<path fill="#FF8812" d="M424.2,324.4c-8.4-4.5-18.3-9.7-29.5-14.6c-33-14.4-33.8,8.3-43,24.9c-2.8,5-12.9,5.3-25.6,3.1l0,0
		c1.4,9,0.8,17.7-2.5,25.2c-19,43.4-122.5,23.7-122.5,23.7l-12.9,9.6c0,0,77.1,90,181.3,42.3C424.6,413.3,430.7,364.7,424.2,324.4
		L424.2,324.4z"/>
	<path fill="#E27F1D" d="M424.2,324.4c-8.4-4.5-18.3-9.7-29.5-14.6c-5.2-2.3-9.7-3.6-13.4-4.2c7.6,41.1,3.2,92.5-53.9,118.7
		c-31.8,14.5-61,16.3-86.3,11.7c32.2,16.2,77,26.2,128.5,2.6C424.6,413.3,430.7,364.7,424.2,324.4L424.2,324.4z"/>
	<path fill="#DD7C1C" d="M424.2,324.4c-4-2.1-8.3-4.4-12.8-6.7c4,38.2-5.1,81.5-56,104.8c-76.3,35-138.1-4-165.7-27.3l-1.5,1.1
		c0,0,77.1,90,181.3,42.3C424.6,413.3,430.7,364.7,424.2,324.4L424.2,324.4z"/>
	<g>
		<path fill="#F0F0F0" d="M402.7,259.1C400,271,374.6,273,374.6,273c16.9-29.7-49.6-79.1-49.6-79.1c11,9.6,2.5,40.4,2.5,40.4
			c-62.6-24.1-90,43.7-90,43.7c28.8-34.4,82,16.7,88.7,59.9c12.7,2.1,22.8,1.9,25.6-3.1c9.2-16.7,10-39.3,43-24.9
			c11.2,4.9,21.1,10.1,29.5,14.6C418.5,288.4,402.7,259.1,402.7,259.1z"/>
	</g>
	<g>
		<g>
			<path fill="#E2E2E2" d="M251.3,255.4c-9.4,11.6-13.9,22.6-13.9,22.6c28.8-34.4,82,16.7,88.7,59.9c12.7,2.1,22.8,1.9,25.6-3.1
				c0.6-1,1.1-2.1,1.6-3.2C345.5,281.8,286.6,223.6,251.3,255.4z"/>
		</g>
	</g>
	<g>
		<path fill="#CA721A" d="M129.8,369.6c0,0-29.2,17.7-24.8,28.3c4.4,10.6,11.2,28.2,29.7,33.5c0,0-59.4-2-60.9,14.1
			c-1.5,16.1,83.3-13.1,95.2-13.1c11.9,0,56.8,19.9,75.8,18s0.5-19-44.3-21.2c0,0,25.3-13.7,25.3-31.3c0-17.6-23.4-27.8-23.4-27.8
			L129.8,369.6z"/>
	</g>
	<g>
		<g>
			<path fill="#A25D12" d="M200.4,424.7c2.2,0.1,4.3,0.3,6.4,0.4c7.5-5.3,18.9-15.4,18.9-27.2c0-0.7-0.1-1.4-0.2-2.1
				C223.5,412.2,200.4,424.7,200.4,424.7z"/>
		</g>
		<g>
			<path fill="#A25D12" d="M244.8,445.9c-19,1.9-63.8-18-75.8-18c-11.2,0-86.9,25.9-94.6,15.5c-0.3,0.7-0.6,1.4-0.6,2.2
				c-1.5,16.1,83.3-13.1,95.2-13.1c11.9,0,56.8,19.9,75.8,18c6.9-0.7,8.8-3.4,6.4-6.6C250,444.8,247.9,445.6,244.8,445.9z"/>
		</g>
		<g>
			<path fill="#A25D12" d="M124.8,426.9c5.9-0.1,9.8,0,9.8,0c-18.5-5.4-25.3-22.9-29.7-33.5c0-0.1,0-0.1-0.1-0.2
				c-0.5,1.7-0.5,3.3,0.1,4.7C108.4,406.4,113.5,419.3,124.8,426.9z"/>
		</g>
	</g>
	<g>
		<path fill="#FF8812" d="M160.5,104.9c0,0,1.2-18.4-15.9-37c-17.2-18.6-27-67.9-27-67.9s-38.3,33.3-43,83.5
			c-4.7,50.2,13.1,83.6,13.1,83.6L160.5,104.9z"/>
	</g>
	<path fill="#744407" d="M117.5,0c0,0-19.7,17.1-32.6,45.4C89,66.8,95.8,79.5,95.8,79.5l36.8-31.4C122.9,26.6,117.5,0,117.5,0z"/>
	<g>
		<path fill="#FF8812" d="M186.8,104.5c0,0,6.8-40.2,41.6-58C263.2,28.6,273,2.6,273,2.6s0.3,75.2,7.8,98.6
			c7.5,23.4-23.6,63.2-23.6,63.2L186.8,104.5z"/>
	</g>
	<path fill="#744407" d="M265.6,69.4c0,0,4.3-5.5,9.2-13.5C273.1,29.3,273,2.6,273,2.6s-8.6,22.9-38.4,40.4L265.6,69.4z"/>
	<g>
		<path fill="#FACFC7" d="M117.5,0c0,0-4.6,25.5,1.2,38.4c5.8,12.9,8.8,72.5,2.1,78.7c-6.7,6.2-14.8-15.5-10.3-36.8
			c0,0-11,16.6-10.4,38.4c0.6,21.8-5.3,24.7-12.1,10.3C81.3,114.6,68.6,72.1,117.5,0z"/>
	</g>
	<g>
		<g>
			<path fill="#E4BEB7" d="M102.6,99.1c-0.8-6.2-0.7-13.4,0.8-20.5c0,0-11,16.6-10.4,38.4c0.2,8.7-0.6,14.4-2.1,17.1
				c5.5,7.9,9.7,3.2,9.2-15.5C100,111.4,101,104.8,102.6,99.1z"/>
		</g>
		<g>
			<path fill="#E4BEB7" d="M118.7,38.4C112.9,25.5,117.5,0,117.5,0c-3.2,4.7-6.1,9.2-8.8,13.7c-0.3,7.8,0,16.8,2.8,23
				c5.7,12.6,8.7,70,2.5,78.2c2,3.2,4.5,4.2,6.7,2.2C127.5,110.9,124.5,51.3,118.7,38.4z"/>
		</g>
	</g>
	<g>
		<path fill="#FACFC7" d="M219.7,106.6c0,0-6.2-11.8,9.4-33c15.6-21.2,40.8-58.3,40.8-58.3s-0.2,58.4,3,80.4
			c3.2,22-12.5,53.3-17.9,47.2c-5.4-6.1-7.3-27.8,2.8-50.5c0,0-19.2,7.8-21.9,22C235.8,114.5,225,116,219.7,106.6z"/>
	</g>
	<g>
		<g>
			<path fill="#E4BEB7" d="M229.7,103.4c0,0-6.2-11.8,9.4-33c9.3-12.7,22.1-31,30.8-43.7c0-6.9,0-11.4,0-11.4s-25.2,37.2-40.8,58.3
				c-15.6,21.2-9.4,33-9.4,33c5.3,9.3,16.1,7.8,16.1,7.8c0.3-1.6,0.8-3,1.5-4.4C234.6,109,231.7,107,229.7,103.4z"/>
		</g>
		<g>
			<path fill="#E4BEB7" d="M267.8,89.3c0,0-5.8,2.4-11.5,6.9c-8.4,21.4-6.4,41.1-1.3,46.9c1.9,2.2,5.2-0.5,8.4-5.7
				C259.3,129.1,258.8,109.6,267.8,89.3z"/>
		</g>
	</g>
	<g>
		<g>
			<path fill="#3A2000" d="M175.6,433.5c17.1,4,52.8,18.6,69.2,17c19-1.9,0.5-19-44.3-21.2c0,0,0.1-0.1,0.3-0.1
				C189.7,430.1,180.4,432.2,175.6,433.5z"/>
		</g>
		<g>
			<path fill="#3A2000" d="M134.6,431.5c-0.7,0-59.4-1.9-60.9,14.1c-1.1,11.9,45.1-1,74-8.5C144.7,434.3,139.6,432.6,134.6,431.5z"
				/>
		</g>
	</g>
	<path fill="#FF8812" d="M144.3,433.6c4.3,0.5,11.5,0.9,16.1-0.9c0.2-16-1-34.1-5.8-48c0,0,11.2,11.7,25.3,5.7c0,0-2.3,21.2-2.9,42
		l0,0c3.4,1.1,7.5,1.6,12.9,0.5l0,0c-0.3-8.2,1-17.9,5.6-28.2c12.7-28.3,18.1-49.9,10-78.5c-8.1-28.7-9.1-56.1,1.2-68.7
		c10.2-12.6-58.9,4.5-58.9,4.5s5.8,22.9-7.8,45.3c-13.6,22.4-16.1,50.8-7.8,69C137.3,387.3,143,413.9,144.3,433.6z"/>
	<path fill="#DF7D1D" d="M190,432.8L190,432.8c-0.3-8.2,1-17.9,5.6-28.2c12.7-28.3,18.1-49.9,10-78.5c-8.1-28.7-9.1-56.1,1.2-68.7
		c2.6-3.2,0.1-4.5-5.1-4.6c-9,13.2-7.8,39.6-0.1,67.1c8.1,28.7,2.6,50.3-10,78.5c-5.9,13.2-6.3,25.4-5,34.8
		C187.7,433.2,188.8,433.1,190,432.8z"/>
	<path fill="#DF7D1D" d="M156.3,433.7c1.5-0.2,2.9-0.5,4.1-1c0.2-16-1-34.1-5.8-48c0,0,11.2,11.5,25.3,5.7c0.4-4.6,2.2-9,2.2-9
		c-12.7,5.6-31.5-2.8-31.5-2.8C156.3,394.5,157,416.1,156.3,433.7z"/>
	<g>
		<path fill="#BB6A16" d="M204.2,253.1l-56.3,9.3c0.3,1.4,1.4,6.9,1.1,14.5c15.6,2.9,34.2,4.5,50.7,1.2c0.8-8.5,3.1-15.6,7.1-20.5
			C208.9,254.9,207.6,253.6,204.2,253.1z"/>
	</g>
	<g>
		<path fill="#FF8812" d="M253,147c-6.7-18.7-19.4-33.4-39.5-41.5c3.7-3.9,5.1-8.8,5.1-8.8c-3,3.2-13.4,0-13.4,0
			c4.6-4.8,4.8-16.4,4.8-16.4c-4.8,16.4-29.8,11.2-29.8,11.2c5.1-10.4-5.3-24.7-5.3-24.7c-3,15.4-17.6,27.7-27,34.1
			c-2.6,0.4-5.3,0.8-8,1.3c-43.3,8-56.9,53.7-61.9,76.2c-4.2,18.9,10.6,55,19.8,63.4c47.1,43.4,110.8,38.3,139.3,4.9
			c17.6-20.7,19.7-43.3,20.9-51.8C259.8,183.6,260.1,166.7,253,147z"/>
	</g>
	<g>
		<path fill="#F18620" d="M253,147c-5.7-16-15.9-29.1-31.3-37.6c4.6,16.6,4.2,30.7,2.7,40.5c-1.3,8.5-3.3,31.1-20.9,51.8
			c-25.1,29.4-77.4,36.8-121.8,8.6c4.4,13.9,11.1,26.9,16.1,31.5c47.1,43.4,110.8,38.3,139.2,4.9c17.6-20.7,19.7-43.3,20.9-51.8
			C259.8,183.6,260.1,166.7,253,147z"/>
	</g>
	<g>
		<path fill="#D97A1C" d="M253,147c-4.2-11.8-10.8-22-20.1-29.9c2,3.6,3.7,7.5,5.2,11.5c7,19.7,6.7,36.7,5,47.9
			c-1.3,8.5-3.3,31.1-20.9,51.8c-27.2,32-86.7,38-133,0.4c3,6,6.1,10.7,8.7,13.2c47.1,43.4,110.8,38.3,139.2,4.9
			c17.6-20.7,19.7-43.3,20.9-51.8C259.8,183.6,260.1,166.7,253,147z"/>
	</g>
	<g>
		<g>
			<path fill="#FFFFFF" d="M107.2,210.1c0,0-4.1-35.7,24.9-35.7c18.8,0,17.5,33.5,17.5,33.5L107.2,210.1z"/>
		</g>
		<g>
			<path fill="#1D1D1B" d="M106,210.2c-0.5-7.9,0.3-15.8,3.6-23.1c1.7-3.6,4.2-6.9,7.4-9.2c3.3-2.3,7.1-3.7,11.1-4.1
				c1-0.1,2-0.2,2.9-0.2c1-0.1,2,0,3,0.1c2,0.3,4,1,5.6,2.1c3.4,2.2,5.5,5.8,6.9,9.3c2.8,7.3,3.4,15.1,3.2,22.7
				c-0.1-7.6-1-15.4-4-22.4c-1.5-3.4-3.7-6.7-6.8-8.6c-1.6-0.9-3.3-1.5-5.1-1.7c-0.9,0-1.8-0.1-2.7,0c-0.9,0-1.9,0.1-2.8,0.2
				c-3.7,0.5-7.2,1.8-10.1,4c-2.9,2.2-5.1,5.2-6.6,8.6c-3,6.8-3.6,14.6-3,21.9L106,210.2z"/>
		</g>
	</g>
	<g>
		<g>
			<path fill="#FFFFFF" d="M189.7,211.1c0,0-0.2-36,28.7-32.8c18.7,2.1,14.4,36.7,14.4,36.7L189.7,211.1z"/>
		</g>
		<g>
			<path fill="#1D1D1B" d="M188.4,211.1c0.1-4.1,0.7-8,1.7-11.8c1-3.9,2.5-7.6,4.6-11c2.2-3.4,5.1-6.4,8.7-8.3
				c3.6-2,7.7-2.7,11.7-2.6c2,0.1,4,0.2,6,0.8c2,0.6,3.8,1.7,5.2,3.1c2.9,2.9,4.5,6.7,5.5,10.5c1.9,7.7,1.8,15.6,0.9,23.3
				c0.6-7.7,0.4-15.7-1.7-23.1c-1.1-3.7-2.8-7.3-5.6-9.8c-1.4-1.2-3-2.1-4.8-2.6c-1.7-0.5-3.7-0.6-5.6-0.6c-3.8,0-7.6,0.8-10.8,2.6
				c-3.3,1.8-5.9,4.6-7.8,7.8c-3.8,6.5-5.4,14.3-5.6,21.8L188.4,211.1z"/>
		</g>
	</g>
	<g>
		<path fill="#1D1D1B" d="M125.7,175c0,0-11.4,31.5,5.9,32.8c17.3,1.3,14.6-22.4,14.6-22.4S141.6,170.7,125.7,175z"/>
	</g>
	<g>
		<path fill="#1D1D1B" d="M220.3,178.9c0,0,11.4,31.5-5.9,32.8c-17.3,1.3-14.6-22.4-14.6-22.4S204.4,174.6,220.3,178.9z"/>
	</g>
	<g>
		<path fill="#F0F0F0" d="M130.1,240.6c-6.3-13.1,1.2-29.2,15.5-31.8c0.6-0.1,1.3-0.2,2-0.3c16.2-1.7,52.6-4.6,61.2,7.3
			c6,8.4,5.6,15.9,5.6,15.9s-4.2,25.9-25.4,31.9c-21.1,6-39.1,0-45.6-5.9C136.6,251.6,132.6,245.7,130.1,240.6z"/>
	</g>
	<g opacity="6.000000e-002">
		<path fill="#1A1A19" d="M208.7,215.9c-1.4-2-3.7-3.6-6.5-4.9c-2.5,7.9-9,22.2-24,26.4c-21.1,6-39.1,0-45.6-5.9
			c-2.3-2.1-3.2-2.1-4.9-4.3c-1,9.9,2.8,19,15.6,30.6c6.5,5.9,24.5,11.9,45.6,5.9c21.1-6,25.4-31.9,25.4-31.9
			S214.7,224.3,208.7,215.9z"/>
	</g>
	<g opacity="6.000000e-002">
		<path fill="#150C00" d="M209.3,216.7c0.3,1.9,0.2,3,0.2,3s-4.2,25.9-25.4,31.9c-21.1,6-39.1,0-45.6-5.9
			c-4.7-4.3-8.2-8.9-10.6-13.3c0.5,8.1,6.1,17,15.5,25.4c6.5,5.9,24.5,11.9,45.6,5.9c21.1-6,25.4-31.9,25.4-31.9
			S214.7,224.7,209.3,216.7z"/>
	</g>
	<g>
		<path fill="#1D1D1B" d="M173.3,229.5c0,0-14.7-5.9-14.3-9.8c0.4-3.8,20.7-6.1,28.9,0C196.2,225.8,173.3,229.5,173.3,229.5z"/>
	</g>
	<g opacity="0.78">
		<g>
			<ellipse fill="#FFFFFF" cx="207.9" cy="189" rx="4" ry="5.9"/>
		</g>
	</g>
	<g opacity="0.78">
		<g>
			<ellipse fill="#FFFFFF" cx="137.3" cy="185.1" rx="4" ry="5.9"/>
		</g>
	</g>
	<g opacity="0.8">
		<path fill="#FFFFFF" d="M162.6,219.7c0,0,3.8-3.8,11.8-2.6c7.9,1.2,12.1,3.1,12.4,4.7c0.4,1.6-8-3.3-14.3-2.5
			C166.4,220.1,163.7,221.8,162.6,219.7z"/>
	</g>
	<g>
		<g>
			<path fill="#6E4832" d="M157.6,470.9c0,0,2.7-17.4,2.9-38.3c-4.6,1.8-11.9,1.3-16.1,0.9c0.9,12.7-0.1,22.5-4.3,23.6
				c0,0-15.1-3.2-15.6,9.4C123.9,479.2,157.6,470.9,157.6,470.9z"/>
		</g>
		<g>
			<path fill="#6E4832" d="M203.4,469c5.4-6.3,0.5-14.9-7.8-11.9c0,0-5.1-9.8-5.6-24.3c-5.3,1.1-9.5,0.5-12.9-0.5
				c-0.5,15.4,0,30.5,2.9,36.7C180,469,198,475.3,203.4,469z"/>
		</g>
	</g>
	<polygon fill="#CACACA" points="159.6,238.8 161.8,249 165.6,240.3 	"/>
	<polygon fill="#CACACA" points="182.3,239.2 186.7,248.6 188.4,239.3 	"/>
	<polygon fill="#FFFFFF" points="181.4,239.2 185.9,248.6 187.5,239.3 	"/>
	<path fill="#1D1D1B" d="M184.4,169.8c4.5,0,9.1-0.1,13.5-0.3c4.5-0.2,8.9-0.5,13.3-1.2c4.4-0.6,8.7-1.7,12.7-3.3
		c4-1.7,7.8-4.1,10.4-7.9c-1.7,4.3-5.4,7.7-9.5,9.8c-4.2,2.2-8.7,3.4-13.3,4.1C202.5,172.4,193.3,172,184.4,169.8z"/>
	<path fill="#1D1D1B" d="M104.6,173.6c2.8-3.6,6.3-6.8,10.2-9.4c3.8-2.7,8-4.8,12.4-6.4c4.4-1.6,8.9-2.8,13.6-3.2
		c4.6-0.6,9.3-0.2,13.8,0.4c-4.6,0.4-9.1,0.8-13.5,1.7c-4.4,0.8-8.7,2.1-12.9,3.7c-4.2,1.5-8.3,3.5-12.2,5.7
		C112,168.2,108.2,170.7,104.6,173.6z"/>
	<polygon fill="#FFFFFF" points="158.6,238.2 160.8,248.3 164.6,239.6 	"/>
	<path fill="#1D1D1B" d="M175.5,228c-0.7,2.8-1.9,5.4-3.6,7.8c-1.6,2.3-4.2,4.4-7.3,4.5c-3,0.1-5.6-1.3-7.8-2.8
		c-1-0.9-2.2-1.7-3.1-2.6l-2.8-2.9l3.1,2.6c1,0.9,2.2,1.5,3.3,2.3c2.3,1.2,4.8,2.4,7.3,2c2.5-0.3,4.4-2.1,5.7-4.3
		c1.3-2.1,2.1-4.7,2.5-7.1L175.5,228z"/>
	<path fill="#1D1D1B" d="M175.7,226.4c0.4,2.6,1.2,5.3,2.4,7.6c1.2,2.3,2.9,4.6,5.4,5c2.5,0.4,5.1-1,7.2-2.6c2.2-1.7,4.1-3.8,5.9-6
		c-1.6,2.3-3.3,4.5-5.4,6.5c-2,1.9-4.7,3.7-7.9,3.5c-1.6-0.1-3-0.9-4.2-1.9c-1.2-1-2.1-2.2-2.8-3.5c-1.5-2.6-2.5-5.2-3.3-8.1
		L175.7,226.4z"/>
</g>
</svg>
