<?xml version="1.0" encoding="utf-8"?>
<!-- Generator: Adobe Illustrator 17.1.0, SVG Export Plug-In . SVG Version: 6.00 Build 0)  -->
<!DOCTYPE svg PUBLIC "-//W3C//DTD SVG 1.1//EN" "http://www.w3.org/Graphics/SVG/1.1/DTD/svg11.dtd">
<svg version="1.1" id="Layer_1" xmlns="http://www.w3.org/2000/svg" xmlns:xlink="http://www.w3.org/1999/xlink" x="0px" y="0px"
	 width="451.2px" height="489.4px" viewBox="0 0 451.2 489.4" enable-background="new 0 0 451.2 489.4" xml:space="preserve">
<g>
	<ellipse fill="#D4D4D4" cx="202.6" cy="445" rx="202.6" ry="44.3"/>
	<ellipse fill="#C7C8C8" cx="202.6" cy="445" rx="143.4" ry="31.4"/>
	<path fill="#BB6A16" d="M183.5,380.4c0,0-37.7,25.1-12.3,37.9c0,0-19.4,9.8-12.1,12.7c7.3,2.9,17.8,0.7,26.9-5.1
		c9.1-5.8,16.7-14.7,16.7-14.7l-6.2-30.8H183.5z"/>
	<path fill="#3A2000" d="M193.1,420.6c-0.9-0.5-1.8-0.9-2.9-1.2c-5-1.5-13-1.3-19.9-0.6c-3.7,2-17.6,9.8-11.3,12.3
		c7.3,2.9,17.8,0.7,26.9-5.1C188.5,424.3,191,422.4,193.1,420.6z"/>
	<path fill="#FF8812" d="M219,420.3c0,0,15.4-8.4,88.1,0c72.7,8.4,135,9.4,143.6-50.3c8.6-59.6-96.3-70.9-125.7-45.4
		c-38.4,33.3-5.1,62.4-5.1,62.4L219,409.2V420.3z"/>
	<g>
		<path fill="#E37F1D" d="M421.5,322.2c11.7,9.4,18.5,22.5,16,39.5c-8.6,59.6-70.9,58.7-143.6,50.3c-39.9-4.6-62.6-4.2-74.9-2.8
			v11.1c0,0,15.4-8.4,88.1,0c72.7,8.4,135,9.4,143.6-50.3C454,347.2,440.8,331.5,421.5,322.2z"/>
	</g>
	<path fill="#FF8812" d="M235,376.4c-1.6-3.1-36-54.6-22-103.4c5.1-17.8-30.6,0-30.6,0s-5.9,16.1-13.2,35c-4.5,3.5-10.4,6.1-17,3.7
		c0,0-0.5,9.5,5.3,10.5c0,0-1.1,13.4-13,12.3c0,0,2.3,7.3,10.5,9.3c-8.8,22-20,49.4-30.8,66.9h0c2.3,3,5,5.7,8.2,7.9v0
		c0.1-0.1,0.3-0.3,0.4-0.4c9.3-7.1,33.9-32.8,33.9-32.8s12.6,15.3,20.2,15.3c1.1,0,2.3,0.4,3.5,1c-2.7,4.6-3,9.6,1.4,14.8
		c7,8.2,12.6,11.8,16.6,13.2c-10,0.4-25.7,2.3-23.1,10.4c3.8,11.9,43.1-1.1,51.3-10.5C244.6,420.5,260.9,400.9,235,376.4z"/>
	<path fill="#D97A1C" d="M188.3,401.1c0.1-2.2,0.7-4.3,1.9-6.3c-1.2-0.6-2.3-1-3.5-1c-7.6,0-20.2-15.3-20.2-15.3
		s-24.6,25.7-33.9,32.8c-1.7,1.3-3.1,2.7-4.5,4.2c1.3,1.2,2.6,2.3,4.1,3.3v0c0.1-0.1,0.3-0.3,0.4-0.4c9.3-7.1,33.9-32.8,33.9-32.8
		s12.6,15.3,20.2,15.3C187.2,400.8,187.8,400.9,188.3,401.1z"/>
	<path fill="#F0F0F0" d="M320.9,386.5c6.1-3,40.4-21,44.8-47.8c0,0-4.2,12.4-30.6,8.3c-12.6-1.9-15.5-10.1-14.9-18.1
		c-30.8,31.4-0.4,57.9-0.3,58C320.9,386.5,320.9,386.5,320.9,386.5z"/>
	<path fill="#DFDFDF" d="M329.2,374.8c0,0,0,0-1,0.5c-0.1-0.1-18.8-16.5-13.8-39.2c-20.3,28.2,5.4,50.9,5.5,50.9
		c0.9-0.4,0.9-0.4,0.9-0.4c4.9-2.4,28.2-14.6,39.3-33.3C347.8,365.1,333.2,372.8,329.2,374.8z"/>
	<path fill="#6E4832" d="M93.4,444.5c0.5,12.6,25.1,8.2,25.1,0c0-8.1,4.8-18.7,13.8-25.8c-3.2-2.1-5.9-4.9-8.2-7.9
		c-1.7,2.8-3.4,5.3-5.1,7.5C103.7,438.5,92.8,431.9,93.4,444.5z"/>
	<path fill="#FF8812" d="M221.7,370.2L199,343.5c0,0-6.3,45.9-16.1,65.5c-5.1,10.2-10.8,23.7-15.9,34.6l0,0
		c2.6,1.8,6.6,3.1,12.5,3.5l0,0c10.1-12.4,28.2-34.5,36.7-45.7C226.1,388.2,221.7,370.2,221.7,370.2z"/>
	<g>
		<path fill="#D97A1C" d="M235,376.4c-1.6-3.1-36-54.6-22-103.4c5.1-17.8-30.6,0-30.6,0s-0.3,0.8-0.8,2.2c8.6-2.5,16.9-2.8,14.3,6.4
			c-13.9,48.8,20.5,100.3,22,103.4c25.9,24.5,9.6,44.1,1.4,53.4c-0.6,0.7-1.4,1.4-2.3,2.1c8.5-3,16.2-7.2,19.4-10.7
			C244.6,420.5,260.9,400.9,235,376.4z"/>
	</g>
	<path fill="#BB6A16" d="M209.7,298.9c-0.1-8.5,0.8-17.2,3.3-25.8c0.8-2.8,0.6-4.7-0.3-5.9H197c-7.5,2.3-14.6,5.9-14.6,5.9
		s-3.3,8.9-7.9,21.2C184.2,296.7,197.4,299.1,209.7,298.9z"/>
	<path fill="#6E4832" d="M208.1,429.8C208.2,429.8,208.2,429.8,208.1,429.8c-9.9,0.4-25.6,2.3-23,10.5c3.6,11.2,38.8,0.3,49.6-8.9
		C227.4,431.2,216.1,430.8,208.1,429.8z"/>
	<path fill="#ED841F" d="M231,117.4c0,0,51.9-55.7,66.1-95c0,0,1.1,51.3,4.9,87.9c3.8,36.6-8.7,80.8-16.9,87.4
		C276.8,204.2,233.7,162.7,231,117.4z"/>
	<path fill="#744407" d="M271.4,67.6c9.7,15.4,21.4,27,29.5,31.4c-3-35-3.9-76.6-3.9-76.6C292,36.5,282,52.6,271.4,67.6z"/>
	<path fill="#EDC5BE" d="M260.8,124.6c0,0,5.3-21.2,14-35c8.7-13.8,18.6-41.9,18.6-41.9s1.1,46.6,2.5,63c1.5,16.4-8,53.6-8,53.6
		s-3.3-18.7-2.9-30.3c0,0-9.3,4.4-6.6,9c0,0-6.6-11.9,1.8-27.9c0,0-10.9,9.8-11.3,16.3C268.6,138,260.8,124.6,260.8,124.6z"/>
	<g>
		<path fill="#D1B0AA" d="M269,124.6c0,0,5.3-21.2,14-35c3.7-5.9,7.7-14.4,10.9-22.2c-0.3-11.1-0.5-19.6-0.5-19.6s-9.8,28-18.6,41.9
			c-8.7,13.8-14,35-14,35s7.8,13.4,8.2,6.8c0.1-1.4,0.6-2.9,1.5-4.5C269.6,125.6,269,124.6,269,124.6z"/>
		<path fill="#D1B0AA" d="M293.2,134c0,0-9.3,4.4-6.6,9c0,0-0.9-1.6-1.6-4.5c0.4,11.4,2.9,25.8,2.9,25.8s3-11.6,5.3-24.8
			C293.2,137.6,293.1,135.7,293.2,134z"/>
		<path fill="#D1B0AA" d="M284.3,134.3c-0.5-4.9,0.1-11.6,4.1-19.3c0,0-10.9,9.8-11.3,16.3c-0.1,1.4-0.5,1.9-1.1,1.8
			c0.3,6.1,2.4,9.8,2.4,9.8C276.2,139.2,282.3,135.4,284.3,134.3z"/>
	</g>
	<path fill="#FF8812" d="M166,144.2c0,0-0.5-36-12-62.8C142.5,54.6,128.3,19.7,133.8,0c0,0-45.4,65.5-40.4,126.1
		c4.9,60.6,14.8,72.6,27.3,75.4C133.2,204.2,171.2,185.6,166,144.2z"/>
	<path fill="#744407" d="M142,51.5c-7-19.3-11.8-38.7-8.2-51.5c0,0-18.9,27.3-30.9,62.9c2.3,1.7,4.8,2.6,7.4,3.2
		C117,67.5,131.2,62.8,142,51.5z"/>
	<path fill="#FF8812" d="M241.3,114.7c-0.4-0.1-0.8-0.2-1.1-0.4c0.6-4.9-0.6-11.4-0.6-11.4c-4.2,4.9-13.3,4.3-13.3,4.3
		c2.4-2.5,0-10.8,0-10.8c-7.6,10.2-21.8,4.4-21.8,4.4C207,95,199,86.3,199,86.3c-1,9.5-14.4,18-21.7,22c-12.5,2.4-19,6.4-19,6.4
		s-50.2,14.6-51,72.8c-0.7,58.2,35.7,91.7,63.3,91.7c27.7,0,99.7-7.3,105.6-30.2c5.8-22.9-0.7-26.6,9.5-41.9
		C295.9,191.8,294.5,132.9,241.3,114.7z"/>
	<path fill="#E8811E" d="M210.4,263.4c-27.7,0-63.2-41.8-62.5-100c0.3-24.7,9.5-41.5,20-52.7c-6.3,2-9.6,4-9.6,4s-50.2,14.6-51,72.8
		c-0.7,58.2,39.3,95.5,67,95.5c66.6,0,96.1-11.1,101.9-34c0.1-0.5,1.7-6.6,2.3-11.8C255.2,268.7,225.1,263.4,210.4,263.4z"/>
	<g>
		<path fill="#D5781B" d="M191.6,276.5c-29.2-7.4-68.2-40.6-67.4-104.1c0.2-15,3.4-27.3,8.2-37.4c1-2.8,2.2-5.5,3.5-8
			c-13.5,10.6-28,29.3-28.4,60.4c-0.7,58.2,35.1,88.8,61.9,95.5c20.5,5.2,47.1,1.9,68.8-5.6C221.9,279.9,205.4,280,191.6,276.5z"/>
	</g>
	<path fill="#F0F0F0" d="M222.7,228.2c0,0-34.2,7.3-23.6,27.7c10.6,20.4,40.2,13.5,50,0C258.8,242.4,252.4,226.4,222.7,228.2z"/>
	<path fill="#D9DADA" d="M205.7,249.2c-2.9-5.6-2.4-10.2-0.3-13.9c-6.6,4.4-11.4,11.1-6.4,20.6c10.6,20.4,40.2,13.5,50,0
		c0.2-0.2,0.3-0.5,0.4-0.7C236.8,264.2,214.6,266.2,205.7,249.2z"/>
	<g>
		<ellipse fill="#FFFFFF" cx="177.5" cy="221.7" rx="19.5" ry="23.3"/>
		<path fill="#1D1D1B" d="M196.9,221.7c0.1-11.3-8.9-21.8-19.4-22.2c-5.2-0.3-10.6,2.4-14,6.7c-3.4,4.3-5,10-4.7,15.5
			c0.3,5.5,2.1,10.8,5.4,14.9c3.3,4.2,8.2,6.9,13.3,6.9C187.9,243.6,197,233,196.9,221.7z M197.1,221.7c0,5.6-1.3,11.4-4.6,16.3
			c-3.1,4.9-8.9,8.5-15.1,8.5c-6.2,0.1-12-3.5-15.4-8.3c-3.6-4.8-5.1-10.8-4.9-16.5c0.3-5.8,2.1-11.4,5.6-16
			c1.7-2.3,3.8-4.4,6.3-5.9c2.5-1.5,5.4-2.5,8.4-2.6c6.1-0.2,11.9,3.3,15.1,8.2C195.8,210.3,197.1,216.1,197.1,221.7z"/>
	</g>
	<g>
		<ellipse fill="#FFFFFF" cx="253.3" cy="210" rx="15.7" ry="20.4"/>
		<path fill="#1D1D1B" d="M268.9,210c0.1-9.4-6.9-18.7-15.6-19.2c-4.3-0.2-8.8,2.2-11.4,6c-2.7,3.8-3.8,8.6-3.5,13.2
			c0.3,4.6,1.7,9.1,4.3,12.7c2.5,3.6,6.5,6.1,10.7,6.2c4.2,0.1,8.2-2.5,11-6C267.2,219.5,268.9,214.8,268.9,210z M269.1,210
			c0,4.7-0.8,9.6-3.3,14c-1.2,2.2-2.9,4.1-5.1,5.6c-2.2,1.5-4.8,2.3-7.4,2.3c-2.7,0-5.3-0.8-7.5-2.2c-2.2-1.4-4-3.3-5.4-5.4
			c-2.8-4.2-3.9-9.3-3.6-14.2c0.3-4.9,1.7-9.6,4.3-13.7c1.3-2,3-3.9,5-5.3c2-1.4,4.5-2.4,7.1-2.5c5.3-0.2,10.2,3.3,12.5,7.6
			C268.3,200.4,269.1,205.3,269.1,210z"/>
	</g>
	<ellipse fill="#1D1D1B" cx="183.5" cy="224.4" rx="11.7" ry="16.9"/>
	<ellipse fill="#1D1D1B" cx="250.2" cy="217.2" rx="10.6" ry="13.3"/>
	<g opacity="0.78">
		<g>
			<ellipse fill="#FFFFFF" cx="187.6" cy="224.4" rx="4" ry="5.9"/>
		</g>
	</g>
	<g opacity="0.78">
		<g>
			<ellipse fill="#FFFFFF" cx="248.9" cy="217.2" rx="4" ry="5.9"/>
		</g>
	</g>
	<path fill="#1D1D1B" d="M217.6,236.2c0,0,8.8-7.4,20-3.5c0,0-0.9,3.5-6.6,8.7S217.6,236.2,217.6,236.2z"/>
	<path fill="#1D1D1B" d="M229,240.4c-0.1,2.9-0.3,5.6-0.9,8.4c-0.5,2.8-1.3,5.5-2.8,8c-0.7,1.3-1.7,2.4-2.9,3.2
		c-1.4,0.7-2.7,1.1-4,1.5c-2.6,0.8-5.3,1.5-8,1.9c2.7-0.6,5.2-1.6,7.8-2.6c1.3-0.5,2.6-1,3.6-1.7c1-0.8,1.8-1.8,2.3-3
		c1.2-2.3,1.6-5,1.9-7.7c0.3-2.6,0.3-5.4,0.1-8L229,240.4z"/>
	<path fill="#1D1D1B" d="M229.9,239.6c0,2,0.4,4.2,0.9,6.3c0.6,2.1,1.4,4,2.6,5.8c1.2,1.7,3,3.1,5,3.9c2,0.9,4.3,0.9,6.5,0.9
		c-2.2,0.3-4.5,0.5-6.7-0.2c-2.2-0.6-4.2-1.9-5.8-3.7c-1.5-1.8-2.7-3.8-3.6-6c-0.8-2.2-1.4-4.4-1.7-6.8L229.9,239.6z"/>
	<path fill="#1D1D1B" d="M150.4,233.3c-3.7-9.1-5.9-18.9-5.4-28.9c0.2-5,1.4-10,3.9-14.6c2.4-4.5,6.5-8.2,11.1-10.4
		c2.3-1.1,4.8-1.9,7.2-2.4l3.7-0.8l3.8-0.3c5-0.2,10.2,0.3,14.8,2.5c9.3,4,16.4,12,20,21.1c-2.3-4.3-5.3-8.2-8.8-11.5
		c-3.5-3.3-7.5-6-12-7.6c-8.9-3.3-19-2.1-27.5,1.5c-4.2,1.9-7.8,5.1-10,9.2c-2.4,4-3.5,8.7-4,13.4c-0.5,4.8-0.3,9.6,0.4,14.4
		C148.1,223.9,149.1,228.6,150.4,233.3z"/>
	<path fill="#1D1D1B" d="M231.5,196.2c0.4-5.8,1.9-11.7,5.6-16.6c1.9-2.4,4.4-4.4,7.3-5.6c3-1,6.2-1.2,9.2-0.7
		c6,0.9,11.8,3.9,15.6,8.6c3.9,4.7,5.8,10.7,5.8,16.5c-1.1-5.7-3.6-11-7.5-15c-3.8-4-9-6.5-14.4-7.3c-2.7-0.5-5.4-0.3-7.9,0.5
		c-2.5,0.9-4.7,2.5-6.5,4.5c-1.8,2-3.3,4.5-4.5,7.1C233.1,190.7,232.2,193.4,231.5,196.2z"/>
	<path fill="#FACFC7" d="M157.4,152.9c0,0,4.2-36.6-8.4-66.6c-12.6-30-24-44.8-21.8-55.2c0,0-15.3,26-19.8,49.7
		c-5.7,29.1,1.9,101.1,16.4,102.4c14.4,1.3,8.9-40.7,8.9-40.7S142,166,148,161.1c6-4.9-2.1-19.7-2.1-19.7L157.4,152.9z"/>
	<g>
		<path fill="#EDC5BE" d="M149.1,86.3c-12.6-30-24-44.8-21.8-55.2c0,0-3.7,6.3-8,15.4c4.2,9.1,10.7,21,17.6,37.5
			c12.6,30,8.4,66.6,8.4,66.6l-11.5-11.5c0,0,4.4,8.1,4.3,14.3c3.1,5.3,6.9,10,10,7.5c6-4.9-2.1-19.7-2.1-19.7l11.5,11.5
			C157.4,152.9,161.6,116.3,149.1,86.3z"/>
		<path fill="#EDC5BE" d="M120.5,140.3c0,0,3.7,28.3-2.9,37.7c1.9,3.1,3.9,5,6.1,5.2c8.1,0.8,9.9-12.2,10-23.7
			C127.9,158.8,120.5,140.3,120.5,140.3z"/>
	</g>
	<path opacity="0.88" fill="#FFFFFF" d="M221.2,235.8c0,0,2.2-2.5,7.3-2.9c5.1-0.4,6.6-0.8,6.5,0.5
		C234.9,234.6,221.8,234.3,221.2,235.8z"/>
	<path fill="#D97A1C" d="M221.7,370.2l-5.3-5.3c0,0,4.4,18-5.5,31.1c-9.4,12.6-30.8,38.6-39.8,49.6c2.2,0.8,5,1.3,8.5,1.5
		c10.1-12.4,28.2-34.5,36.7-45.7C226.1,388.2,221.7,370.2,221.7,370.2z"/>
	<path fill="#6E4832" d="M155.1,462.5c-6,1.6-12,4.9-10.4,10.4c1.6,5.5,17.7,8.7,21.4,3.3c3.7-5.5,1-13.8,9.2-23.8
		c1.2-1.4,2.6-3.2,4.3-5.3c-6-0.3-9.9-1.7-12.5-3.5C162.3,453.8,158,461.7,155.1,462.5z"/>
</g>
</svg>
