<?xml version="1.0" encoding="utf-8"?>
<!-- Generator: Adobe Illustrator 17.1.0, SVG Export Plug-In . SVG Version: 6.00 Build 0)  -->
<!DOCTYPE svg PUBLIC "-//W3C//DTD SVG 1.1//EN" "http://www.w3.org/Graphics/SVG/1.1/DTD/svg11.dtd">
<svg version="1.1" id="Layer_1" xmlns="http://www.w3.org/2000/svg" xmlns:xlink="http://www.w3.org/1999/xlink" x="0px" y="0px"
	 width="501.1px" height="498.1px" viewBox="0 0 501.1 498.1" enable-background="new 0 0 501.1 498.1" xml:space="preserve">
<g>
	<path fill="#3A2000" d="M209.3,301.4c0,0-67.4-30-75.2-46.8c-7.7-16.8-42.2-9.8-32.3,5.4c9.9,15.2,28.4,4.4,35.8,21.2
		c7.4,16.8,65.8,54.5,65.8,54.5L209.3,301.4z"/>
	<path fill="#BB6A16" d="M237.1,182.9c0,0-8.7-11.9,13.5-34.5s119.2-38.6,119.2-38.6S247,284.7,237.1,182.9z"/>
	<path fill="#744407" d="M328.4,118.2c0.5,1.8,1.1,2.7,1.1,2.7c1.4,14.4,5,23.2,10.3,27.8c17.4-21,30-38.9,30-38.9
		S351.2,112.8,328.4,118.2z"/>
	<ellipse fill="#D4D4D4" cx="219.5" cy="457.3" rx="176.5" ry="40.8"/>
	<ellipse fill="#C7C8C8" cx="219.5" cy="457.3" rx="129.9" ry="30"/>
	<path fill="#FF8812" d="M412.8,315.3c2.1-5.5,5.2-10.8,9.7-15.5c21.9-23.4,27.7,0.6,21.9-43.4c-1.7-12.7,2-21.2,8.1-26.9
		c-70.5-66.5-174.6,18.1-189.4,73.2c-16.6,62,58,93.9,31.8,119.2c-7.1,6.9-14.1,8.6-20.4,7.6c0.5-1,0.8-2,1.1-3
		c4.8-23.4-20.9-45.2-23.2-54.8c-2.3-9.5-26.9-79.2-3.5-122c11.6-21.2,18.2-39,22-51.6c41.6-30.7,91.1-166.4,91.1-166.4
		s-78.4,35.8-113.6,69c-4.2-2.9-9.1-5.1-14.8-6.4c-6.7-8-3.9-22.1-3.9-22.1c-9.1,5.5-10.1,7.3-10.1,7.3c-5.8-4.7,0-28,0-28
		c-21.6,13.4-19.9,35.5-19.9,35.5C188.6,88.8,184.8,68,184.8,68c-9.7,5-10.6,14.2-10.1,20c-36.2,0.4-70.1,12.3-77.9,57.1
		c-12.6,72.1,29.2,103.2,80.6,101.2c17.1-0.7,20.5,3.4,17.3,10.4c-5.3,4.7-20.5,9.9-31.5,6.9c0,0,1.7,5.8,7.1,9.5
		c0,0-25,19.5-35.3,14.7c0,0,11.1,11.1,16.8,9.8c0,0-7.3,15.2-14.2,15.6c0,0,12.4-1.5,17.8,0.7c-0.8,2.6-1.3,5.3-1.5,7.9
		c-2.3,36.9-17.5,105.7,15.2,119.8c19.6,8.4,52,9.8,75.9,4.5c7.6,8.1,21.6,15.2,46.1,19.1c81.4,12.8,66.6-86.6,65.1-122
		C355.4,319.8,386.5,311.6,412.8,315.3L412.8,315.3z"/>
	<g>
		<path fill="#ED841F" d="M218.2,57.9c0.7-3.7,1.3-6.3,1.3-6.3c-2.1,1.3-3.9,2.7-5.6,4.1C215.2,56.9,216.6,57.6,218.2,57.9z"/>
		<path fill="#ED841F" d="M177.5,246.3c4.4-0.2,7.9,0,10.6,0.4c2.2-1.6,3.6-2.7,3.6-2.7c-5.4-3.7-7.1-9.5-7.1-9.5
			c11,3,26.2-2.2,31.5-6.9c3.1-7-0.3-11.1-17.3-10.4c-51.4,2-93.1-29.1-80.6-101.2c0.9-5,2.1-9.6,3.6-13.8
			c-12.2,8.8-21.3,22.4-24.8,42.9C84.3,217.2,126.1,248.2,177.5,246.3z"/>
	</g>
	<path fill="#DD7C1C" d="M299.8,414.3c6.6-17.8-19.5-39-34.5-69C276.7,376.2,305.2,397.1,299.8,414.3z"/>
	<path fill="#DD7C1C" d="M266.9,166.7c-4.3,14.4-11.9,34.7-25.2,59c-26.7,48.9,1.3,128.5,4,139.3c2.7,10.9,32,35.8,26.5,62.5
		c-0.2,1.2-0.7,2.3-1.2,3.4c6.4,1,13.4-0.5,20.6-6.3c-6,4.6-11.9,5.8-17.3,4.9c0.5-1,0.8-2,1.1-3c4.8-23.4-20.9-45.2-23.2-54.8
		c-2.3-9.5-26.9-79.2-3.5-122c11.6-21.2,18.2-39,22-51.6c41.6-30.7,91.1-166.4,91.1-166.4s-6.5,3-16.6,8
		C324.5,86.9,294.2,146.5,266.9,166.7z"/>
	<path fill="#DD7C1C" d="M161.8,256.4c-0.4-0.9-0.5-1.4-0.5-1.4c17.7,4.9,42.2-3.5,50.7-11.1c5.1-11.4-0.4-17.9-27.9-16.8
		c-30.3,1.2-58.5-4.8-81.1-18.6C115.2,233,136.2,248.7,161.8,256.4z"/>
	<g>
		<path fill="#FFFFFF" d="M118.9,160.1c-3.5-3.2-4.5-8.4-3-12.9c2.9-8.6,12.2-22.1,27.7-24.1c21.2-2.6,18.6,20.4,13.3,28.2
			C152.4,158,129.4,169.9,118.9,160.1z"/>
		<path fill="#1D1D1B" d="M118.8,160.2c-2.1-1.9-3.4-4.7-3.9-7.5c-0.5-2.9,0.2-5.9,1.3-8.6c2-5.4,5.5-10.3,10-14.1
			c4.5-3.7,10-6.1,15.7-7c2.8-0.5,5.7-0.7,8.6-0.2c1.4,0.3,2.9,0.7,4.2,1.3c1.3,0.7,2.5,1.6,3.5,2.8c2,2.3,3.1,5.2,3.5,8.2
			c0.4,3,0.2,5.9-0.3,8.8c-0.6,2.9-1.5,5.7-3.2,8.4c-1.9,2.6-4.3,4.3-6.8,5.9c-5,3.1-10.4,5.3-16.2,6
			C129.4,164.9,123,164.2,118.8,160.2z M119,160c2.1,1.9,4.8,3,7.5,3.2c2.8,0.3,5.5-0.1,8.2-0.8c5.3-1.5,10.4-3.8,15-6.7
			c2.2-1.5,4.5-3.2,6-5.1c1.4-2.1,2.4-4.7,3-7.3c1.1-5.2,1.3-11.1-1.8-15.4c-1.5-2.1-4-3.6-6.7-4.1c-2.7-0.5-5.5-0.5-8.2,0.1
			c-5.5,1-10.4,4.1-14.3,7.9c-3.9,3.8-7.3,8.2-9.9,13.1c-1.3,2.4-2.3,5-2.2,7.8C115.7,155.4,116.9,158.1,119,160z"/>
	</g>
	<path fill="#1D1D1B" d="M115.9,147.2c0,0,6.7,9.7,22-3.8c15.3-13.5,3.8-19.9,3.8-19.9S124.2,124.5,115.9,147.2z"/>
	<path fill="#1D1D1B" d="M147.2,109.7c6.8-0.3,13.6,0.4,20.2,2.5c3.3,1.1,6.5,2.8,9.1,5.3c2.7,2.5,4.3,6.3,4.3,10
		c0,3.7-1.3,7.1-2.8,10.3c-1.7,3-3.5,6-5.8,8.6c-4.4,5.3-9.4,9.9-14.7,14.1c2.2-2.6,4.6-4.9,6.7-7.6c1.1-1.2,2.2-2.5,3.2-3.8
		c1.1-1.3,2.1-2.6,3-4c3.8-5.3,7.5-11.3,7.5-17.5c0-3-1.1-6-3.3-8.2c-2.1-2.3-5-3.8-8-5.2c-3-1.3-6.2-2.2-9.5-2.9
		C153.9,110.6,150.6,110.1,147.2,109.7z"/>
	<path fill="#F0F0F0" d="M97.8,124.1c0,0,15.6,0,11.9,28.5c-3.7,28.5-7.8,49.2-15.1,41.9c-7.3-7.3-13.4-36.9-9-38.6
		c4.4-1.8,4.9,6.6,8.4,1.9c3.5-4.7-7.3-6.1-6.7-14C87.9,136,83.2,130.9,97.8,124.1z"/>
	<g>
		<path fill="#C6C6C6" d="M87.3,143.9c-0.2,2.4,0.7,4.2,1.9,5.7c0.3,0.3,0.5,0.5,0.8,0.9c1.6,1.7,3.5,2.9,4.3,4.3
			c0.5-0.1,1-0.4,1.5-1.1c3.5-4.7-7.3-6.1-6.7-14c0.3-3.5-0.5-6.5-0.2-9.3C85.7,134.5,87.7,138.5,87.3,143.9z"/>
		<path fill="#C6C6C6" d="M96.4,190.3c-5.9-5.9-10.5-25-10.3-34.4c-0.1,0-0.3,0-0.4,0.1c-4.4,1.8,1.7,31.3,9,38.6
			c2.6,2.6,4.2,0.8,5.4-3.8C99.1,191.8,97.9,191.8,96.4,190.3z"/>
	</g>
	<path fill="#1D1D1B" d="M91.2,122.3c0,0,2.7-6.6,9.1-0.9c6.4,5.7,0.6,8.1-3.5,6.6c-4.1-1.5-4.8,2.1-6.4,0.4
		C88.8,126.8,91.2,122.3,91.2,122.3z"/>
	<path fill="#FF8812" d="M242.4,450.1c-3.1-12.3-21.4-23.5-21.4-23.5l-26.1-59.9c0,0-50.5,1.6-54.4,50.4
		c-2.1,26.3,29.2,31.7,39.5,32.8c-1.4-0.1,47.4,3.7,60.8,9C243,457.5,243.7,455.3,242.4,450.1z"/>
	<g>
		<path fill="#DD7C1C" d="M156.2,443.3c3.2,1.5,15.2,7,24.1,6.4c8.4-0.6,9-5.5,9-8.3c-10.4-1.1-41.7-6.5-39.5-32.8
			c1.1-13.4,5.7-23.2,11.8-30.4c-10.3,7.3-19.5,19.3-21.1,38.9C139.4,430.5,147,438.5,156.2,443.3z"/>
		<path fill="#DD7C1C" d="M242.9,453.2c-2.3,0.9-5,2-7.9,3.9c2.3,0.6,4.3,1.1,5.8,1.7C242.5,457.8,243.3,456.3,242.9,453.2z"/>
	</g>
	<path fill="#FF8812" d="M167.7,297.6c0,0-8.4,23.2-16.3,22c-3.7-0.6-14.1-2.1-24.1-0.3c5,2.8,12.8,9,14.5,20.9l0,0
		c7.2,0.7,15.9,3.6,25.9,10.9c28.4,20.8,48.3-25.6,48.3-25.6L167.7,297.6z"/>
	<path fill="#DD7C1C" d="M207,320.3c-4.3,8.8-22.6,41.6-47.3,23.5c-7.2-5.2-13.7-8.2-19.5-9.8c0.7,1.9,1.3,3.9,1.6,6.1c0,0,0,0,0,0
		c7.2,0.7,15.9,3.6,25.9,10.9c28.4,20.8,48.3-25.6,48.3-25.6L207,320.3z"/>
	<g opacity="0.78">
		<g>
			
				<ellipse transform="matrix(0.4071 0.9134 -0.9134 0.4071 200.1054 -45.2985)" fill="#FFFFFF" cx="134.9" cy="131.5" rx="3.8" ry="7.5"/>
		</g>
	</g>
	<path fill="#F0F0F0" d="M452.4,229.5c-6.1,5.7-9.8,14.2-8.1,26.9c5.8,43.9,0.1,20-21.9,43.4c-4.5,4.8-7.6,10.1-9.7,15.5
		c13.4,1.9,25.6,6.8,31.5,14.5c17.5,22.5,7,39.1,7,39.1c14.5-1.9,15.3-7.7,14.7-10.7c7.3,23-18.2,51.1-18.2,51.1
		S544.8,382,477,261.8C469.5,248.4,461.2,237.8,452.4,229.5z"/>
	<g>
		<path fill="#E0E1E1" d="M457.1,399.9c0,0,27.5-30.4,19.7-55.3c0.7,3.3-0.2,9.5-15.9,11.6c0,0,11.4-18-7.6-42.3
			c-5.8-7.4-17.1-12.5-29.9-14.9c-0.3,0.3-0.6,0.6-0.9,0.9c-4.5,4.8-7.6,10.1-9.7,15.5c13.4,1.9,25.6,6.8,31.5,14.5
			c17.5,22.5,7,39.1,7,39.1c14.5-1.9,15.3-7.7,14.7-10.7c7.3,23-18.2,51.1-18.2,51.1s20.3-5.7,35.8-23.4
			C470,396.2,457.1,399.9,457.1,399.9z"/>
	</g>
	<path fill="#744407" d="M311.3,59.1c2.6,26.6,12.9,34.3,26.7,31.1c14.3-32.1,23.9-58.5,23.9-58.5S338,42.7,310.7,58
		C311,58.7,311.3,59.1,311.3,59.1z"/>
	<path fill="#FACFC7" d="M234.7,117.3c0,0,84.7-65.7,106-65.7c0,0-96.2,84.2-100.1,122.7c-3.9,38.5-17.9-13.5-13.2-23.7
		c4.7-10.2,22.6-20.2,22.6-20.2l-20.2,6.7l14-13.6C243.7,123.4,228.6,126,234.7,117.3z"/>
	<g>
		<path fill="#D3B1AA" d="M240.9,132.5c0,0-3.8,0.6-6.8,0.2l-4.5,4.4l9.9-3.3L240.9,132.5z"/>
		<path fill="#D3B1AA" d="M235.8,123.4c14.5-11,66.3-49.9,92.2-60.2c7.7-7.2,12.7-11.6,12.7-11.6c-21.3,0-106,65.7-106,65.7
			C232.1,121.1,233.4,122.7,235.8,123.4z"/>
		<path fill="#D3B1AA" d="M237.8,183.3c-0.2,1.6-0.3,2.9-0.5,4.2c1.3-1.5,2.5-5.6,3.3-13.2c0.1-0.7,0.2-1.5,0.4-2.3
			C239.2,176.1,238.1,179.9,237.8,183.3z"/>
		<path fill="#D3B1AA" d="M247.1,139.3l-15.6,5.1c-1.8,2-3.3,4-4.2,6.1c-0.6,1.3-0.9,3.4-0.9,5.9
			C232.7,147.4,247.1,139.3,247.1,139.3z"/>
	</g>
	<path fill="#6E4832" d="M141.8,340.2c-1.6-12-9.4-18.1-14.5-20.9c-11.3,2.1-22.2,8.5-22.2,25.8c0,32.5,21.1,42,28.3,22.6
		c7.2-19.4-12.6-22.6-12.6-22.6S128.6,338.8,141.8,340.2z"/>
	<path fill="#6E4832" d="M240.8,458.9c-13.5-5.3-62.3-9.2-60.8-9c-10.9-0.7-45.1-1.9-41.9,11.7c3.8,16.3,75.2,12.2,87.3,4.2
		C232.4,461.2,237.9,460.8,240.8,458.9z"/>
	<polygon fill="#FCBC00" points="59.6,0 67.2,15.4 84.1,17.8 71.8,29.7 74.7,46.6 59.6,38.6 44.5,46.6 47.4,29.7 35.1,17.8 
		52.1,15.4 	"/>
	<polygon fill="#FCBC00" points="14.6,51.6 19.2,60.8 29.3,62.3 22,69.4 23.7,79.5 14.6,74.7 5.6,79.5 7.3,69.4 0,62.3 10.1,60.8 	
		"/>
	<polygon fill="#FCBC00" points="93.9,38 96.7,43.6 103,44.5 98.4,49 99.5,55.2 93.9,52.2 88.3,55.2 89.4,49 84.9,44.5 91.1,43.6 	
		"/>
	<g>
		<polygon fill="#D19E00" points="84.1,17.8 78.4,17 68.9,26.2 71.8,43.1 56.7,35.1 45.4,41 44.5,46.6 59.6,38.6 74.7,46.6 
			71.8,29.7 		"/>
	</g>
	<g>
		<polygon fill="#D19E00" points="29.3,62.3 23.6,61.5 19,65.9 20.8,76 11.7,71.2 6.6,73.9 5.6,79.5 14.6,74.7 23.7,79.5 22,69.4 		
			"/>
	</g>
	<g>
		<polygon fill="#D19E00" points="103,44.5 97.3,43.7 95.5,45.5 96.6,51.7 91,48.7 89.3,49.6 88.3,55.2 93.9,52.2 99.5,55.2 
			98.4,49 		"/>
	</g>
	<path fill="#DD7C1C" d="M412.8,315.3c2.1-5.4,5.2-10.8,9.7-15.5c-24.9-1.8-51.4,5.6-56.7,24.2C376.7,315.5,395.8,312.9,412.8,315.3
		L412.8,315.3z"/>
</g>
</svg>
