<?xml version="1.0" encoding="utf-8"?>
<!-- Generator: Adobe Illustrator 17.1.0, SVG Export Plug-In . SVG Version: 6.00 Build 0)  -->
<!DOCTYPE svg PUBLIC "-//W3C//DTD SVG 1.1//EN" "http://www.w3.org/Graphics/SVG/1.1/DTD/svg11.dtd">
<svg version="1.1" id="Layer_1" xmlns="http://www.w3.org/2000/svg" xmlns:xlink="http://www.w3.org/1999/xlink" x="0px" y="0px"
	 width="542.9px" height="390.4px" viewBox="0 0 542.9 390.4" enable-background="new 0 0 542.9 390.4" xml:space="preserve">
<g>
	<ellipse fill="#D4D4D4" cx="278.4" cy="320.4" rx="264.5" ry="36.9"/>
	<ellipse fill="#C7C8C8" cx="278.4" cy="320.4" rx="189.8" ry="26.5"/>
	<path fill="#BB6A16" d="M354.8,224.7c0,0-2.8,11.3,0,24.6c2.8,13.3-6.6,19.8-5.5,28.3c1.1,8.5-11,5.4-4.5,14.8
		c6.6,9.5,130.3,22.6,130.3,22.6l1.5-21.1c0,0-5.1-14.9-20.7-22.8c-15.7-7.8-45-14.6-58.4-22.2C384,241.3,359.5,230.9,354.8,224.7z"
		/>
	<g>
		<defs>
			<path id="SVGID_1_" d="M106.9,174.2c0,0-59.8,33.1-24.3,92.7c0,0-2.7-48.6,33.9-49.9L106.9,174.2z"/>
		</defs>
		<use xlink:href="#SVGID_1_"  overflow="visible" fill="#D0A774"/>
		<clipPath id="SVGID_2_">
			<use xlink:href="#SVGID_1_"  overflow="visible"/>
		</clipPath>
		<g opacity="0.18" clip-path="url(#SVGID_2_)">
			<g>
				<polygon fill="#FFED00" points="-61.7,296.2 -64.3,294 61.5,149.3 64.1,151.5 				"/>
			</g>
			<g>
				<polygon fill="#FFED00" points="-42,293.4 -44.6,291.2 81.2,146.5 83.7,148.7 				"/>
			</g>
			<g>
				<polygon fill="#FFED00" points="-22.4,290.6 -24.9,288.4 100.9,143.6 103.4,145.8 				"/>
			</g>
			<g>
				<polygon fill="#FFED00" points="-2.7,287.7 -5.2,285.5 120.5,140.8 123.1,143 				"/>
			</g>
			<g>
				<polygon fill="#FFED00" points="17,284.9 14.4,282.7 140.2,138 142.8,140.2 				"/>
			</g>
			<g>
				<polygon fill="#FFED00" points="36.7,282.1 34.1,279.9 159.9,135.2 162.4,137.4 				"/>
			</g>
			<g>
				<polygon fill="#FFED00" points="56.3,279.3 53.8,277.1 179.6,132.3 182.1,134.5 				"/>
			</g>
			<g>
				<polygon fill="#FFED00" points="76,276.4 73.5,274.2 199.2,129.5 201.8,131.7 				"/>
			</g>
			<g>
				<polygon fill="#FFED00" points="95.7,273.6 93.1,271.4 218.9,126.7 221.5,128.9 				"/>
			</g>
			<g>
				<polygon fill="#FFED00" points="115.3,270.8 112.8,268.6 238.6,123.8 241.1,126 				"/>
			</g>
			<g>
				<polygon fill="#FFED00" points="135,267.9 132.5,265.7 258.3,121 260.8,123.2 				"/>
			</g>
			<g>
				<polygon fill="#FFED00" points="154.7,265.1 152.1,262.9 277.9,118.2 280.5,120.4 				"/>
			</g>
			<g>
				<polygon fill="#FFED00" points="174.4,262.3 171.8,260.1 297.6,115.4 300.1,117.6 				"/>
			</g>
			<g>
				<polygon fill="#FFED00" points="194,259.5 191.5,257.3 317.3,112.5 319.8,114.7 				"/>
			</g>
			<g>
				<polygon fill="#FFED00" points="213.7,256.6 211.2,254.4 336.9,109.7 339.5,111.9 				"/>
			</g>
		</g>
	</g>
	<path fill="#B59366" d="M74.9,250.3c1.8,5.3,4.3,10.8,7.8,16.6c0,0-2.7-48.6,33.9-49.9L114,206C86.9,211.6,77.9,234.8,74.9,250.3z"
		/>
	<g>
		<path fill="#744407" d="M48,172.2c-10.5,0.9,13.2,12.3,38.3,5.1c3.3-1,7.1-1.6,11.1-2c0-12.4-0.5-26.4-1.3-39.3
			C77.8,155.8,55,171.6,48,172.2z"/>
	</g>
	<g>
		<path fill="#BB6A16" d="M152.1,212.6c0,0-41.6,49.6-32.6,74.3c9,24.7,37.7,41.9,37.7,41.9s39,9.9,35.2-37.9
			c-3.8-47.8-36.9-73.3-36.9-73.3L152.1,212.6z"/>
	</g>
	<g>
		<path fill="#A25D12" d="M155.4,217.7l-2.6-3.9c-1,1.7-2,3.5-2.9,5.6c-28.6,65.7,26.5,82.2,26.5,82.2c-5.9,0.2-16.1,12.6-16.1,12.6
			c12.7-6.6,23.1-0.8,28.3,2.2c2.5-5.7,4.5-14.7,3.6-25.4C188.6,243.2,155.4,217.7,155.4,217.7z"/>
	</g>
	<g>
		<path fill="#3A2000" d="M188.9,316.6l-2.2-3c0,0-22.2-9.8-38.7,8.7c5.3,4.2,9.2,6.5,9.2,6.5S179.4,334.9,188.9,316.6z"/>
	</g>
	<g>
		<path fill="#FF8812" d="M319.7,195.8c-48.8-10.9-86.2-16.5-77.7-39.9c8.5-23.4-70.6,7.2-70.6,7.2s-13.3,26.9-22.1,46.6
			c-8.7,19.7-7.8,59.8,11,71c13.6,8.2,12.4,11.1,19.6,12.4c4,15.6,6.6,21,8.1,22.5c-5.7,1.3-21.3,5.7-16.7,14.1
			c5.6,10.2,47.8,6.6,58.8,2.2c8.1-3.2,31.9-9.2,42.7-27.1c1.1,0.4,2.4,0.7,3.7,1.1c-5.5,2.5-9.6,6.5-7.1,12.9
			c6,15.3,71.1,2,74.9-6.4c2.6-5.7,3.9-14.2,3-19.7c0.9-1.5,1.6-3.1,2.2-4.8C360.5,255.5,368.5,206.7,319.7,195.8z"/>
	</g>
	<g>
		<g>
			<path fill="#DF7D1D" d="M167.8,224.4c8.7-19.7,22.1-46.6,22.1-46.6s30-11.6,51.1-15c-0.1-2.1,0.3-4.4,1.2-6.9
				c8.5-23.4-70.6,7.2-70.6,7.2s-13.3,26.9-22.1,46.6c-8.7,19.7-7.8,59.8,11,71c5.6,3.3,8.7,5.8,10.9,7.7
				C159.9,272.2,160.4,241,167.8,224.4z"/>
		</g>
	</g>
	<g>
		<g>
			<path fill="#DF7D1D" d="M234.8,152.3c-4.2,11.4,2.6,18.6,16.2,24.2c-8.6-5.1-12.3-11.5-9-20.6c2.1-5.7-1.1-8.2-7-8.7
				C235.6,148.5,235.6,150.2,234.8,152.3z"/>
		</g>
		<g>
			<path fill="#DF7D1D" d="M329.5,198.8c29.4,17.5,22.2,57.6,12.8,85.6c-0.6,1.7-1.3,3.3-2.2,4.8c1,5.5-0.4,14-3,19.7
				c-3,6.8-46.7,16.9-66.1,12.2c11.5,11.6,69.8-0.7,73.4-8.6c2.6-5.7,3.9-14.2,3-19.7c0.9-1.5,1.6-3.1,2.2-4.8
				C359.7,257.9,367.3,213.8,329.5,198.8z"/>
		</g>
		<g>
			<path fill="#DF7D1D" d="M262.3,315.3c-2.5-6.4,1.5-10.5,7.1-12.9c-1.3-0.3-2.5-0.7-3.7-1.1c-10.8,17.9-34.7,23.9-42.7,27.1
				c-8.5,3.4-36.1,6.4-50.5,2.7c8.4,8.5,47.3,5.1,57.7,0.9c6-2.4,20.9-6.4,32.6-15.7C262.6,315.9,262.4,315.6,262.3,315.3z"/>
		</g>
	</g>
	<g>
		<g>
			<path fill="#D7791B" d="M178.7,287.7c6.1-33.6,37.8-63.4,59.7-80.4c-2.7-0.9-5.4-1.4-8.2-1.3c0,0-61.9,37.2-52.4,77.9
				C178.1,285.2,178.4,286.5,178.7,287.7z"/>
		</g>
	</g>
	<g>
		<path fill="#DF7D1D" d="M278.2,280.7c-1.9-23.9-11.4-48-24.1-62.1c9.7,14.3,16.6,34.4,18.1,54.4c2.9,37.5-37.1,46.9-48.1,51.3
			c-9.2,3.7-40.5,6.8-53.5,1.7c-0.2,1.2,0,2.4,0.8,3.8c5.6,10.2,47.8,6.6,58.8,2.2C241.1,327.6,281.2,318.2,278.2,280.7z"/>
	</g>
	<g>
		<path fill="#D7791B" d="M188.1,315.6c0,0,16.6-1.5,34.6,0.2c0,0-24.6-7.9-37.8-6.2C184.9,309.5,186.5,313.9,188.1,315.6z"/>
	</g>
	<g>
		<path fill="#DF7D1D" d="M276.6,305.9c0,0,18.3-5.3,34.1-3.4c0,0-33.3-1-34.1-5.7l-3.7,8.1L276.6,305.9z"/>
	</g>
	<g>
		<path fill="#FF8812" d="M369.7,126c-10,3.3-65.5-10.8-90.2-35.3c-15.8-15.6-39.2-22.3-54.2-25.1c-13.9-7.9-30.6-11.4-49.8-7.5
			c0,0-35.4,7.1-61.4,26.8v0c0,0-17.8,12.6-33,9.3c0,0,0.6,10.2,6.5,11.8c0,0-14.3,19.2-35.8,20.7c0,0,22.5,14.6,28.8,12.3
			c0,0-1.5,9-11,13.1c0,0,9.9,6,20.2,3.4c10.2,58.9,9.2,89.5,70.8,75.5c55.4-12.7,102.8-30.1,113.1-62.2
			c18.4-5.8,44.1-20.9,62.6-23.1C362.3,142.5,379.7,122.8,369.7,126z"/>
	</g>
	<g>
		<path fill="#E6801E" d="M369.7,126c-5,1.6-21.4-1.1-39.7-7.3c-5.4,2.1-11.5,3.8-18.1,4.6c-21.8,2.6-52,20.4-73.7,27.2
			c-11.9,37.3-66.4,57.7-130.3,72.5c9,11.2,24.1,14.4,52.8,7.8c55.4-12.7,102.8-30.1,113.1-62.2c18.4-5.8,44.1-20.9,62.6-23.1
			C362.3,142.5,379.7,122.8,369.7,126z"/>
	</g>
	<g>
		<g>
			<path fill="#D0761A" d="M208.2,62.8c14.9,2.8,38.4,9.5,54.2,25.1c21.7,21.5,67.1,35,84.6,35.7c-21.2-5.1-51.1-16.7-67.5-33
				c-15.8-15.6-39.2-22.3-54.2-25.1c-9.3-5.3-20-8.6-31.7-9C198.8,58.1,203.7,60.2,208.2,62.8z"/>
		</g>
		<g>
			<path fill="#D0761A" d="M72.8,152.6c-0.5,0.1-0.9,0.2-1.4,0.3c0.4,0.2,1,0.4,1.5,0.7C72.9,153.2,72.8,152.9,72.8,152.6z"/>
		</g>
		<g>
			<path fill="#D0761A" d="M369.7,126c-2.5,0.8-7.9,0.5-14.9-0.7c-3.1,4.8-17.1,15.3-35.5,17.5c-18.5,2.2-44.2,17.3-62.6,23.1
				c-10.2,32.1-57.7,49.5-113.1,62.2c-9.6,2.2-17.7,3.3-24.6,3.4c9.3,3.8,22.4,3.8,41.7-0.6c55.4-12.7,102.8-30.1,113.1-62.2
				c18.4-5.8,44.1-20.9,62.6-23.1C362.3,142.5,379.7,122.8,369.7,126z"/>
		</g>
	</g>
	<g>
		<g>
			<path fill="#F0F0F0" d="M148,194.3c0,0,12-5.6,25.4-0.5c13.4,5.1,17.4,1.4,18.6,12.1c1.1,10.7-24.1,22.9-43.1,19.4
				c-19-3.5-24.8-14.1-18.8-19.6C136.1,200.1,148,194.3,148,194.3z"/>
		</g>
	</g>
	<g>
		<g>
			<path fill="#D9DADA" d="M142.4,219c19,3.5,44.2-8.7,43.1-19.4c-0.1-1-0.2-1.8-0.4-2.6c4.3,1.1,6.1,2.3,6.8,8.8
				c1.1,10.7-24.1,22.9-43.1,19.4c-11.2-2-17.7-6.6-20.1-11.1C132.1,216.2,136.7,217.9,142.4,219z"/>
		</g>
	</g>
	<g>
		<path fill="#744407" d="M369.7,126c10-3.3-7.4,16.5-33.3,19.6c-3.5,0.4-7.2,1.3-11,2.4c-4.9-11.4-9.8-24.6-14.1-36.7
			C335.9,122.6,363,128.2,369.7,126z"/>
	</g>
	<g>
		<g>
			<path fill="#FACFC7" d="M238.7,104.4c0,0,15.7-7,32,6.1c16.3,13.1,64.7,23.8,74.8,22.3c10.1-1.5-27.2,9.7-41.8,13.1
				c-14.7,3.4-38.6,20.6-47.1,11.6c-8.5-9,1.8-15.2,14.8-13.3c0,0-6.8-8.4-19.7-8c0,0,8.3-12.4,28.4-7.8c0,0-22.8-10.7-34.4-7.3
				C234.1,124.5,238.7,104.4,238.7,104.4z"/>
		</g>
	</g>
	<g>
		<g>
			<g>
				<path fill="#E4BEB7" d="M264.1,144c8.9,1.8,13.5,7.5,13.5,7.5c-10.3-1.5-18.9,2.1-17.8,8.1c-1.3-0.4-2.4-1.1-3.3-2.1
					C249.7,150.3,255,144.9,264.1,144z"/>
			</g>
		</g>
		<g>
			<g>
				<path fill="#E4BEB7" d="M332.2,138.1c-18.6-3.7-44.3-11.4-55.3-20.3c-16.3-13.1-32-6.1-32-6.1s-1.1,5.1-0.8,9.7
					c-9.6,1.2-5.5-17-5.5-17s15.7-7,32,6.1c16.3,13.1,64.7,23.8,74.8,22.3C350.8,132.1,343,134.8,332.2,138.1z"/>
			</g>
		</g>
		<g>
			<g>
				<path fill="#E4BEB7" d="M264,128.4c10.8,1.9,22.3,7.3,22.3,7.3c-10.9-2.5-18.4,0.1-22.9,2.9c-3.1-1.4-7-2.5-11.8-2.3
					C251.7,136.2,255.5,130.6,264,128.4z"/>
			</g>
		</g>
	</g>
	<g>
		<g>
			<path fill="#6E4832" d="M344.4,312.4c1-2.2,1.8-4.7,2.3-7.3c-23.3-4.2-10.6,20.4-66.3-0.8c-1.6-0.6-3,0.9-4.3,1.5
				c0.1,0,0.3,0.1,0.4,0.1c-2,0.9-3.7,2-5.1,3.3c-0.2,0.2-0.4,0.4-0.6,0.6c-0.1,0.1-0.1,0.2-0.2,0.2c-0.5,0.6-0.9,1.2-1.2,1.9
				c0,0,0,0.1,0,0.1c-0.1,0.2-0.2,0.5-0.3,0.7c-0.6,1.7-0.6,3.8,0.4,6.1C275.5,334.1,340.6,320.8,344.4,312.4z"/>
		</g>
		<g>
			<path fill="#6E4832" d="M230.3,332.1c4.6-1.8,14-4.7,23.5-9.9c-17.2-6.6-46-8.3-66.3-7.2c0.2,0.3,0.4,0.5,0.6,0.7
				c-5.7,1.3-21.3,5.8-16.7,14.2C176.9,340,219.4,336.5,230.3,332.1z"/>
		</g>
	</g>
	<path fill="#F1BF85" d="M84.5,109c0,0-29.4-56.6,40.8-95.7c70.2-39,141.1,15.7,130.8,61.8l-23.4-6.3c0,0-58,46.2-99,45.8
		C92.6,114.2,84.5,109,84.5,109z"/>
	<path fill="#D0A774" d="M204.6,32.7c0,0,24.7,13.1,20.8,32.9l9.1-1.5C234.4,64,232,42.9,204.6,32.7z"/>
	<path fill="#FF8812" d="M424.9,255.6c-26.2-1.5-70.1-30.9-70.1-30.9c12.2,13.7,67.2,41.1,94.9,46.4c27.7,5.3,34.9,54.1-16,22.7
		c-27.7-17.1-61.3-15.9-88.8-12.1c0,0,2.3,7.8,2.5,11c1.1,16.5-17.1,10.9-24.3,19.3c-7.2,8.3,2.1,19.3,15.2,40.4
		c8.2,13.2-10.3,28.4-25.4,37.9l0,0c54.6,0.8,129.8-31.6,160.1-53.1C518.9,304.5,451.1,257.1,424.9,255.6z"/>
	<path fill="#EA821F" d="M487,302.5c-45.7,23-117.9,46.3-160,31.9c3.1,5.1,7,11,11.4,18c8.2,13.2-10.3,28.4-25.4,37.9l0,0
		c54.6,0.8,129.8-31.6,160.1-53.1C488,326.5,490.8,314.3,487,302.5z"/>
	<path fill="#D7791B" d="M482.5,318c-27.8,19.8-93.6,48.8-146.5,52.7c-5.3,7.4-14.7,14.4-23,19.7l0,0
		c54.6,0.8,129.8-31.6,160.1-53.1c10.6-7.6,15.1-15.9,15.5-24.3C486.7,314.7,484.7,316.3,482.5,318z"/>
	<path fill="#F0F0F0" d="M338.3,352.5c-13.1-21.1-22.4-32.1-15.2-40.4c7.2-8.3,26.8-3,24.3-19.3c-0.6-3.8-1.5-7.5-2.5-11
		c-23,3.2-41.9,8.2-49.5,5.9c-16.7-5.1-17.7-38.4-17.7-38.4s-47.8,36.2-23.8,107.2c8.2,24.2,30.9,33.5,59.1,33.9
		C328,380.8,346.5,365.7,338.3,352.5z"/>
	<path fill="#E4E4E4" d="M326.9,334.3c-12.3-5.2-21.6-14.1-26.2-27.8c-2.2-6.6-3.8-12.8-4.9-18.8c-0.1,0-0.3-0.1-0.5-0.1
		c-16.7-5.1-17.7-38.4-17.7-38.4s-47.8,36.2-23.8,107.2c8.2,24.2,30.9,33.5,59.1,33.9c15.1-9.5,33.6-24.7,25.4-37.9
		C333.9,345.4,329.9,339.4,326.9,334.3z"/>
	<path fill="#D7D7D7" d="M290.9,338c-7.7-22.8-8-42-4.8-57.6c-7.9-11.4-8.5-31.1-8.5-31.1s-47.8,36.2-23.8,107.2
		c8.2,24.2,30.9,33.5,59.1,33.9c8.3-5.3,17.6-12.2,23-19.6C314.4,367.7,297.7,357.9,290.9,338z"/>
	<path fill="#1D1D1B" d="M165.1,179.4c3.9,2.2,8.2,3.3,12.4,3.9c4.3,0.5,8.6,0.4,12.8-0.3l3.2-0.6l3.1-0.8c2.1-0.4,4.1-1.4,6.2-2
		l6.1-2.5c2-0.9,4-1.9,6-2.8c-1.7,1.4-3.6,2.7-5.4,4c-1.9,1.1-3.9,2.3-5.9,3.3c-4.1,1.9-8.4,3.5-12.9,4.2c-4.5,0.7-9.2,0.7-13.6-0.3
		C172.7,184.4,168.4,182.5,165.1,179.4z"/>
	<path fill="#1D1D1B" d="M103.1,193.4c2.9,1.4,5.9,2.3,8.9,2.5c3,0.2,5.9-0.4,8.5-1.8c2.7-1.2,4.8-3.5,7-5.6l3-3.6
		c0.9-1.3,1.8-2.6,2.9-3.9c-0.5,1.5-1.1,3-1.7,4.6c-0.7,1.5-1.6,2.9-2.4,4.3c-2,2.6-4.3,5.2-7.4,6.7c-3.1,1.6-6.7,2.1-10,1.4
		C108.4,197.4,105.4,195.7,103.1,193.4z"/>
	<polygon fill="#F9EF87" points="88.2,253.8 90.5,262.9 96.7,270 88.7,275 83.9,283.1 76.7,277.1 67.5,275 71,266.3 70.1,256.9 
		79.5,257.5 	"/>
	<path fill="#E0D87C" d="M90.5,262.9l-2.3-9.1l-8.7,3.7l-9.4-0.6l0.9,9.4l-3.5,8.8l9.2,2.1l7.2,6l4.8-8.1l8-5L90.5,262.9z
		 M84.5,268.5l-2.5,4.2l-3.8-3.1l-4.8-1.1l1.8-4.6l-0.5-4.9l4.9,0.3l4.5-2l1.2,4.8l3.2,3.7L84.5,268.5z"/>
	<path fill="#D1CA75" d="M90.5,262.9l-2.3-9.1l-8.7,3.7l-9.4-0.6l0.9,9.4l-3.5,8.8l9.2,2.1l7.2,6l4.8-8.1l8-5L90.5,262.9z
		 M86.6,271.6l-3.5,5.9l-5.3-4.4l-6.7-1.5l2.6-6.4l-0.6-6.9l6.9,0.5l6.3-2.7l1.7,6.7l4.6,5.2L86.6,271.6z"/>
	<path fill="#613C31" d="M146.5,211.4c0,0-3.1,9.6,0.9,10.5c4,0.9,17.1,1.6,13.7-3.4C157.6,213.6,150.5,210.7,146.5,211.4z"/>
	<path fill="#3A2218" d="M161,218.6c-3.5-5-10.5-7.8-14.6-7.1c0,0-0.5,1.6-0.8,3.5c4.1-0.2,10.4,2.5,13.7,7.2
		C161.3,221.5,162.3,220.4,161,218.6z"/>
	<g>
		<g>
			<path fill="#1D1D1B" d="M157.3,198.8c0,0-10.3-1.5-19,3.9c-8.7,5.4-7,5.9-4.8,6.8c2.2,0.9,10.2,3.3,13.6,3.1
				C150.5,212.6,159.5,205.2,157.3,198.8z"/>
		</g>
	</g>
	<g opacity="0.8">
		<path fill="#FFFFFF" d="M154.7,200.7c0,0-5.4-1-9.7,0.3c-4.2,1.3-11,6.3-11,6.3s1.5,1.3,7.3-2.7
			C147.2,200.6,152.2,203.8,154.7,200.7z"/>
	</g>
	<g opacity="0.22">
		<defs>
			<path id="SVGID_3_" opacity="0.22" d="M84.5,109c0,0-29.4-56.6,40.8-95.7c70.2-39,141.1,15.7,130.8,61.8l-23.4-6.3
				c0,0-58,46.2-99,45.8C92.6,114.2,84.5,109,84.5,109z"/>
		</defs>
		<clipPath id="SVGID_4_">
			<use xlink:href="#SVGID_3_"  overflow="visible"/>
		</clipPath>
		<g clip-path="url(#SVGID_4_)">
			<g>
				<polygon fill="#FFED00" points="-51.3,157 -53.9,154.8 71.9,10.1 74.4,12.3 				"/>
			</g>
			<g>
				<polygon fill="#FFED00" points="-31.7,154.2 -34.2,152 91.6,7.2 94.1,9.4 				"/>
			</g>
			<g>
				<polygon fill="#FFED00" points="-12,151.3 -14.5,149.1 111.2,4.4 113.8,6.6 				"/>
			</g>
			<g>
				<polygon fill="#FFED00" points="7.7,148.5 5.1,146.3 130.9,1.6 133.5,3.8 				"/>
			</g>
			<g>
				<polygon fill="#FFED00" points="27.4,145.7 24.8,143.5 150.6,-1.3 153.1,0.9 				"/>
			</g>
			<g>
				<polygon fill="#FFED00" points="47,142.8 44.5,140.6 170.3,-4.1 172.8,-1.9 				"/>
			</g>
			<g>
				<polygon fill="#FFED00" points="66.7,140 64.2,137.8 189.9,-6.9 192.5,-4.7 				"/>
			</g>
			<g>
				<polygon fill="#FFED00" points="86.4,137.2 83.8,135 209.6,-9.7 212.2,-7.5 				"/>
			</g>
			<g>
				<polygon fill="#FFED00" points="106,134.4 103.5,132.2 229.3,-12.6 231.8,-10.4 				"/>
			</g>
			<g>
				<polygon fill="#FFED00" points="125.7,131.5 123.2,129.3 249,-15.4 251.5,-13.2 				"/>
			</g>
			<g>
				<polygon fill="#FFED00" points="145.4,128.7 142.8,126.5 268.6,-18.2 271.2,-16 				"/>
			</g>
			<g>
				<polygon fill="#FFED00" points="165.1,125.9 162.5,123.7 288.3,-21.1 290.8,-18.9 				"/>
			</g>
			<g>
				<polygon fill="#FFED00" points="184.7,123 182.2,120.8 308,-23.9 310.5,-21.7 				"/>
			</g>
			<g>
				<polygon fill="#FFED00" points="204.4,120.2 201.9,118 327.7,-26.7 330.2,-24.5 				"/>
			</g>
			<g>
				<polygon fill="#FFED00" points="224.1,117.4 221.5,115.2 347.3,-29.5 349.9,-27.3 				"/>
			</g>
		</g>
	</g>
	<path fill="#F9EF87" d="M76.3,116.8c0,0,86.6,32,162.8-48c0,0,0.8-8.3-13.8-3.3c0,0-63.7,53.6-140.8,43.4
		C84.5,109,75.7,107.9,76.3,116.8z"/>
	<path fill="#C9C271" d="M233.4,64c0.2,0.8,0.2,1.5,0.2,1.5c-64.7,67.9-137,55-157.2,49.6c0,0.5-0.1,1.1,0,1.7c0,0,86.6,32,162.8-48
		C239.1,68.8,239.5,64.1,233.4,64z"/>
	<path fill="#6FAEE0" d="M23,137.1c1.3-1.5,2.5-3,3.8-4.5c1.3-1.5,2.6-3,3.9-4.4c2.7-2.9,5.3-5.8,8-8.7l2-2.1l0.1,3
		c0.3,11.1,0.3,22.2-0.1,33.3l-2-0.8c5-5.1,10.1-10.2,15.4-15c-4.4,5.7-9.1,11.1-13.7,16.6l-1.9,2.2l-0.1-3
		c-0.3-11.1-0.3-22.2-0.1-33.3l2.1,0.8c-2.8,2.7-5.7,5.4-8.6,8c-1.4,1.4-2.9,2.6-4.4,3.9C26,134.6,24.5,135.9,23,137.1z"/>
	<path fill="#6FAEE0" d="M49.9,90.6c1.1-0.8,2.2-1.5,3.3-2.3c1.1-0.7,2.2-1.5,3.4-2.2c2.3-1.4,4.5-2.9,6.8-4.3l1.7-1l-0.5,2
		c-1.8,7.4-3.8,14.7-6,22l-1.2-0.9c4.3-2.5,8.5-4.9,12.9-7.2c-3.9,3-8,5.7-12.1,8.5l-1.7,1.1l0.5-2c1.8-7.4,3.8-14.7,6-22l1.2,0.9
		c-2.4,1.3-4.8,2.5-7.1,3.8c-1.2,0.6-2.4,1.2-3.6,1.8C52.3,89.4,51.1,90,49.9,90.6z"/>
	<path fill="#6FAEE0" d="M0,61.3c1-0.7,2-1.4,3-2c1-0.7,2-1.3,3-2c2-1.3,4-2.6,6.1-3.8l1.5-0.9l-0.4,1.7c-1.6,6.6-3.4,13.1-5.4,19.6
		l-1-0.8c3.8-2.2,7.6-4.4,11.5-6.4c-3.5,2.6-7.1,5.1-10.7,7.6l-1.5,1l0.4-1.8C8,67,9.8,60.5,11.7,54l1.1,0.8
		c-2.1,1.1-4.2,2.2-6.4,3.3c-1.1,0.6-2.1,1.1-3.2,1.6C2.2,60.3,1.1,60.8,0,61.3z"/>
	<path fill="#6FAEE0" d="M29.5,206.1c1-0.7,2-1.4,3-2c1-0.7,2-1.3,3-2c2-1.3,4-2.6,6.1-3.8l1.5-0.9l-0.4,1.8
		c-1.6,6.6-3.4,13.1-5.4,19.6l-1-0.8c3.8-2.2,7.6-4.4,11.5-6.4c-3.5,2.6-7.1,5.1-10.7,7.6l-1.5,1l0.4-1.8c1.6-6.6,3.4-13.1,5.3-19.6
		l1.1,0.8c-2.1,1.1-4.2,2.2-6.4,3.3c-1.1,0.6-2.1,1.1-3.2,1.6C31.7,205,30.6,205.6,29.5,206.1z"/>
</g>
</svg>
