<?xml version="1.0" encoding="utf-8"?>
<!-- Generator: Adobe Illustrator 17.1.0, SVG Export Plug-In . SVG Version: 6.00 Build 0)  -->
<!DOCTYPE svg PUBLIC "-//W3C//DTD SVG 1.1//EN" "http://www.w3.org/Graphics/SVG/1.1/DTD/svg11.dtd">
<svg version="1.1" id="Layer_1" xmlns="http://www.w3.org/2000/svg" xmlns:xlink="http://www.w3.org/1999/xlink" x="0px" y="0px"
	 width="554.3px" height="458.5px" viewBox="0 0 554.3 458.5" enable-background="new 0 0 554.3 458.5" xml:space="preserve">
<g>
	<ellipse fill="#D4D4D4" cx="264.5" cy="421.6" rx="264.5" ry="36.9"/>
	<ellipse fill="#C7C8C8" cx="264.5" cy="421.6" rx="189.8" ry="26.5"/>
	<g>
		<path fill="#FF8812" d="M553.5,297c-8.2-5-17.7-10.8-28.6-16.4c-32-16.4-34.2,6.2-44.4,22.2c-3.1,4.9-13.2,4.5-25.8,1.6l0,0
			c0.8,9.1-0.3,17.7-4,25c-21.6,42.1-123.7,16.2-123.7,16.2l-13.5,8.8c0,0,71.5,94.6,178.3,53.3C548.4,385.9,557.5,337.7,553.5,297
			L553.5,297z"/>
		<path fill="#E27F1D" d="M553.5,297c-8.2-5-17.7-10.8-28.6-16.4c-5.1-2.6-9.4-4.2-13.2-5c5.1,41.5-2.5,92.5-61.1,115.2
			c-32.6,12.6-61.9,12.5-86.8,6.4c31.2,18.1,75.3,30.8,128.1,10.5C548.4,385.9,557.5,337.7,553.5,297L553.5,297z"/>
		<path fill="#DD7C1C" d="M553.5,297c-3.8-2.3-8-4.9-12.4-7.5c1.7,38.4-10.1,81.1-62.3,101.2c-78.3,30.3-137.6-12.4-163.7-37.4
			l-1.5,1c0,0,71.5,94.6,178.3,53.3C548.4,385.9,557.5,337.7,553.5,297L553.5,297z"/>
		<g>
			<path fill="#BB6A16" d="M138.2,313.9c0,0-41.6,49.6-32.6,74.3c9,24.7,37.7,41.9,37.7,41.9s39,9.9,35.2-37.9
				c-3.8-47.8-36.9-73.3-36.9-73.3L138.2,313.9z"/>
		</g>
		<g>
			<path fill="#A25D12" d="M141.5,319L139,315c-1,1.7-2,3.5-2.9,5.6c-28.6,65.7,26.5,82.2,26.5,82.2c-5.9,0.2-16.1,12.6-16.1,12.6
				c12.7-6.6,23.6-1.3,28.8,1.6c2.5-5.7,4-14.2,3.1-24.8C174.6,344.4,141.5,319,141.5,319z"/>
		</g>
		<g>
			<path fill="#3A2000" d="M175.3,418l-2.5-3.2c0,0-22.2-9.8-38.7,8.7c5.3,4.2,9.2,6.5,9.2,6.5S165.2,436.3,175.3,418z"/>
		</g>
		<g>
			<path fill="#FF8812" d="M305.8,297c-48.8-10.9-86.2-16.5-77.7-39.9c8.5-23.4-70.6,7.2-70.6,7.2s-13.3,26.9-22.1,46.6
				c-8.7,19.7-7.8,59.8,11,71c13.6,8.2,12.4,11.1,19.6,12.4c4,15.6,6.6,21,8.1,22.5c-5.7,1.3-21.3,5.7-16.7,14.1
				c5.6,10.2,47.8,6.6,58.8,2.2c8.1-3.2,31.9-9.2,42.7-27.1c1.1,0.4,2.4,0.7,3.7,1.1c-5.5,2.5-9.6,6.5-7.1,12.9
				c6,15.3,71.1,2,74.9-6.4c2.6-5.7,3.9-14.2,3-19.7c0.9-1.5,1.6-3.1,2.2-4.8C346.6,356.8,354.6,308,305.8,297z"/>
		</g>
		<g>
			<g>
				<path fill="#DF7D1D" d="M153.8,325.7c8.7-19.7,22.1-46.6,22.1-46.6s30-11.6,51.1-15c-0.1-2.1,0.3-4.4,1.2-6.9
					c8.5-23.4-70.6,7.2-70.6,7.2s-13.3,26.9-22.1,46.6c-8.7,19.7-7.8,59.8,11,71c5.6,3.3,8.7,5.8,10.9,7.7
					C146,373.5,146.5,342.3,153.8,325.7z"/>
			</g>
		</g>
		<g>
			<g>
				<path fill="#DF7D1D" d="M220.9,253.6c-4.1,11.4,2.6,18.6,16.2,24.2c-8.6-5.1-12.3-11.5-9-20.6c2.1-5.7-1.1-8.2-7-8.7
					C221.7,249.7,221.7,251.4,220.9,253.6z"/>
			</g>
			<g>
				<path fill="#DF7D1D" d="M315.6,300.1c29.4,17.5,22.2,57.6,12.8,85.6c-0.6,1.7-1.3,3.3-2.2,4.8c1,5.5-0.4,14-3,19.7
					c-3,6.8-46.7,16.9-66.1,12.2c11.5,11.6,69.8-0.7,73.4-8.6c2.6-5.7,3.9-14.2,3-19.7c0.9-1.5,1.6-3.1,2.2-4.8
					C345.8,359.1,353.4,315.1,315.6,300.1z"/>
			</g>
			<g>
				<path fill="#DF7D1D" d="M248.3,416.5c-2.5-6.4,1.5-10.5,7.1-12.9c-1.3-0.3-2.5-0.7-3.7-1.1c-10.8,17.9-34.7,23.9-42.7,27.1
					c-8.5,3.4-36.1,6.4-50.5,2.7c8.4,8.5,47.3,5.1,57.7,0.9c6-2.4,20.9-6.4,32.6-15.7C248.7,417.2,248.5,416.9,248.3,416.5z"/>
			</g>
		</g>
		<g>
			<g>
				<path fill="#D7791B" d="M164.7,388.9c6.1-33.6,37.8-63.4,59.7-80.4c-2.7-0.9-5.4-1.4-8.2-1.3c0,0-61.9,37.2-52.4,77.9
					C164.2,386.5,164.4,387.7,164.7,388.9z"/>
			</g>
		</g>
		<g>
			<path fill="#DF7D1D" d="M264.3,381.9c-1.9-23.9-11.4-48-24.1-62.1c9.7,14.3,16.6,34.4,18.1,54.4c2.9,37.5-37.1,46.9-48.1,51.3
				c-9.2,3.7-40.5,6.8-53.5,1.7c-0.2,1.2,0,2.4,0.8,3.8c5.6,10.2,47.8,6.6,58.8,2.2C227.2,428.8,267.2,419.4,264.3,381.9z"/>
		</g>
		<g>
			<path fill="#D7791B" d="M174.2,416.9c0,0,17.2-2.1,34.7,0.8c0,0-24.7-8.5-37.9-6.8C171,410.8,172.5,415.2,174.2,416.9z"/>
		</g>
		<g>
			<path fill="#DF7D1D" d="M262.7,407.1c0,0,18.3-5.3,34.1-3.4c0,0-33.3-1-34.1-5.7l-3.7,8.1L262.7,407.1z"/>
		</g>
		<g>
			<path fill="#1D1D1B" d="M112.1,298.2c-2.5,0-4.9-1.2-7.2-3.7c-2.6-2.9-3.5-5.8-2.5-8.6c3.2-9.3,25.4-13.5,27.9-13.9l2.4-0.4
				l-0.8,2.3c-0.3,0.9-8.2,22.3-18.2,24.2C113.2,298.2,112.6,298.2,112.1,298.2z M128.4,275.2c-7.5,1.6-21.3,5.8-23.3,11.6
				c-0.6,1.8,0,3.7,1.9,5.9c2,2.2,4,3.1,6.1,2.7C119.4,294.1,125.6,282,128.4,275.2z"/>
		</g>
		<g>
			<path fill="#1D1D1B" d="M139.5,296.9c-1.6,0-3.1-0.5-4.4-1.5c-6.4-5-5.9-21.4-5.9-22.1l0.1-2.8l2.2,1.8
				c1.7,1.4,16.1,13.5,14.7,20.4c-0.3,1.3-1.3,3.1-4.3,3.9C141.1,296.8,140.3,296.9,139.5,296.9z M132,276.4
				c0.2,5.4,1.2,14,4.8,16.8c1.2,0.9,2.6,1.2,4.3,0.7c2-0.6,2.3-1.5,2.3-1.8C144.2,288.6,137.5,281.3,132,276.4z"/>
		</g>
		<g>
			<g>
				<path fill="#744407" d="M71.5,184.4c0,0-18.7,27.8-40.5,23.2c-21.9-4.6,9.7,24.1,33.3,20C87.9,223.6,71.5,184.4,71.5,184.4z"/>
			</g>
		</g>
		<g>
			<path fill="#FF8812" d="M346.1,228.4c-10.5,0.4-60.1-28.2-77.2-58.5c-10.9-19.3-31.7-32.1-45.3-38.9
				c-11.2-11.4-26.3-19.2-45.9-20.8c0,0-36-2.7-66.4,9.1v0c0,0-20.6,7.3-34.2,0c0,0-2.1,10,3.1,13.1c0,0-18.9,14.6-40,10.2
				c0,0,17.7,20.2,24.4,19.7c0,0-3.9,8.3-14.1,9.6c0,0,7.9,8.4,18.5,8.8c-6.2,59.5-15.5,88.7,47.7,91.8c56.7,2.8,107.1-1,125.7-29.2
				c19.3-0.6,48.1-8.1,66.6-5.2C334.6,242.3,356.6,228,346.1,228.4z"/>
		</g>
		<g>
			<path fill="#E6801E" d="M346.1,228.4c-5.3,0.2-20.3-6.9-36.2-17.8c-5.8,0.6-12.1,0.6-18.7-0.5c-21.7-3.4-55.6,5.5-78.3,6.1
				c-21.5,32.7-79.5,37.5-145.1,34.4c5.6,13.2,19.3,20.4,48.7,21.8c56.7,2.8,107.1-1,125.7-29.2c19.3-0.6,48.1-8.1,66.6-5.2
				C334.6,242.3,356.6,228,346.1,228.4z"/>
		</g>
		<g>
			<g>
				<path fill="#D0761A" d="M207.9,123.7c13.6,6.8,34.4,19.6,45.3,38.9c15.1,26.6,55.1,51.9,71.8,57.4c-19-10.6-44.7-30-56.1-50.1
					c-10.9-19.3-31.7-32.1-45.3-38.9c-7.6-7.7-16.9-13.6-28.1-17.3C200,116.7,204.2,120,207.9,123.7z"/>
			</g>
			<g>
				<path fill="#D0761A" d="M53.2,173.4c-0.5,0-0.9-0.1-1.4-0.1c0.4,0.3,0.8,0.7,1.3,1.1C53.1,174.1,53.1,173.7,53.2,173.4z"/>
			</g>
			<g>
				<path fill="#D0761A" d="M346.1,228.4c-2.6,0.1-7.7-1.6-14.1-4.7c-4.3,3.8-20.7,10.1-38.9,7.2c-18.4-2.9-47.3,4.6-66.6,5.2
					c-18.6,28.2-69,32-125.7,29.2c-9.9-0.5-18-1.6-24.6-3.4c7.9,6.2,20.5,9.7,40.3,10.7c56.7,2.8,107.1-1,125.7-29.2
					c19.3-0.6,48.1-8.1,66.6-5.2C334.6,242.3,356.6,228,346.1,228.4z"/>
			</g>
		</g>
		<g>
			<g>
				<path fill="#F0F0F0" d="M114.2,233.9c0,0,13.1-2.1,24.6,6.4c11.5,8.5,16.4,6.1,14.6,16.7c-1.8,10.6-29.5,15.5-46.8,7
					c-17.3-8.5-20-20.3-12.8-24C101.2,236.3,114.2,233.9,114.2,233.9z"/>
			</g>
		</g>
		<g>
			<g>
				<path fill="#D9DADA" d="M102.2,256.2c17.3,8.5,44.9,3.6,46.8-7c0.2-1,0.3-1.8,0.3-2.6c3.9,2.2,5.2,3.8,4.1,10.3
					c-1.8,10.6-29.5,15.5-46.8,7c-10.2-5-15.3-11.1-16.3-16.1C93,250.7,96.9,253.6,102.2,256.2z"/>
			</g>
		</g>
		<g>
			<g>
				<path fill="#1D1D1B" d="M121.9,240.9c0,0-9.5-4.2-19.3-1.4c-9.8,2.8-8.3,3.8-6.5,5.2c1.8,1.5,8.9,5.9,12.2,6.7
					C111.7,252.2,122.3,247.6,121.9,240.9z"/>
			</g>
		</g>
		<g>
			<g>
				<path fill="#1D1D1B" d="M130.6,262.1l-3.3-0.4c-1.1-0.2-2.2-0.4-3.3-0.6c-1.1-0.3-2.1-0.6-3.2-0.9c-1-0.4-2.1-0.7-3-1.2
					c-2-0.9-3.8-2.1-5.3-3.5c-1.5-1.4-2.7-3.4-2.9-5l-2.3,0.3c0.3,1.4,0.9,2.4,1.6,3.4c0.7,1,1.5,1.8,2.4,2.6c1.8,1.5,3.9,2.6,6,3.3
					c1,0.4,2.2,0.6,3.2,1c1.1,0.2,2.2,0.5,3.3,0.6c1.1,0.1,2.2,0.3,3.3,0.4L130.6,262.1z"/>
			</g>
		</g>
		<g>
			<g>
				<path fill="#1D1D1B" d="M107.3,250.4c0.3,0.5,0.3,1.5-0.1,2.1c-0.4,0.7-1.2,1.2-2.1,1.6c-1.9,0.7-4,0.9-6.1,1
					c2.1,0.3,4.2,0.5,6.4,0.1c1.1-0.3,2.3-0.7,3.1-1.7c0.9-1.1,1.2-2.5,0.8-3.9L107.3,250.4z"/>
			</g>
		</g>
		<g opacity="0.8">
			<path fill="#FFFFFF" d="M119,242c0,0-5-2.4-9.4-2.3c-4.4,0.1-12.3,3-12.3,3s1.1,1.7,7.8-0.6C111.8,239.8,115.7,244.3,119,242z"/>
		</g>
		<g>
			<path fill="#FFFFFF" d="M146,224.5c0,0-0.3,20.8,23,17c23.3-3.8,20.8-14.1,21.1-21.3c0,0-4.6-3.2-15.7-1.8
				C163.4,219.6,146,224.5,146,224.5z"/>
		</g>
		<g>
			<path fill="#1D1D1B" d="M174.4,218.3c0,0-3.8,22.1,5.7,20.2c9.5-1.9,11-9.5,10-18.3C190.1,220.2,185.3,216.4,174.4,218.3z"/>
		</g>
		<g>
			<path fill="#1D1D1B" d="M130.1,216.5c0.8,3.1,2.9,5.9,5.7,7c2.8,1.1,6,0.9,9,0.1c3-0.8,6-2,9.1-3c3.1-1,6.3-1.8,9.5-2.4
				c6.5-1.2,13.2-1.6,19.7-0.5c3.3,0.5,6.5,1.5,9.5,2.7c3,1.3,5.9,2.9,8.5,4.9c-5.8-2.9-12-4.8-18.3-5.4c-6.3-0.6-12.7-0.1-18.9,1.1
				c-3.1,0.6-6.2,1.3-9.3,2.2c-3.1,0.8-6.1,2-9.5,2.6c-3.3,0.6-6.9,0.6-10-1C132.2,223,130.3,219.8,130.1,216.5z"/>
		</g>
		<g>
			<path fill="#FFFFFF" d="M71.3,224.2c0,0-4.6,12.2,6.3,12.2s23.5,0.1,21.5-11.4c0,0-7.4,0.7-11.1-0.9
				C84.1,222.6,71.3,224.2,71.3,224.2z"/>
		</g>
		<g>
			<path fill="#1D1D1B" d="M87.9,224.1c0,0-4.9,13.1,2.4,11.6c7.3-1.5,9.8-3,8.7-10.7L87.9,224.1z"/>
		</g>
		<g>
			<path fill="#1D1D1B" d="M104.3,217.8c0.5,1.7,0.3,3.8-0.8,5.5c-1.2,1.7-3.2,2.6-5.1,2.9c-3.8,0.6-7.6-0.1-11-0.7
				c-6.8-1.4-13.8-0.7-21.1-0.2c3.4-1.3,6.9-2.3,10.5-2.8c3.6-0.5,7.4-0.4,11,0.2c3.6,0.7,6.9,1.5,10.3,1.3c1.6-0.1,3.2-0.5,4.4-1.6
				C103.7,221.3,104.2,219.6,104.3,217.8z"/>
		</g>
		<g>
			<path fill="#744407" d="M346.1,228.4c10.5-0.4-11.6,13.9-37.3,9.8c-3.4-0.5-7.2-0.7-11.3-0.6c-1.6-12.3-2.8-26.3-3.6-39.2
				C314.5,215.9,339.1,228.7,346.1,228.4z"/>
		</g>
		<g>
			<g>
				<path fill="#FACFC7" d="M225.9,172.1c0,0,17-2.5,29.1,14.6c12.1,17,55.8,40.5,65.9,41.8c10.1,1.3-28.8,1.9-43.8,1.2
					c-15-0.7-42.8,9.3-48.5-1.6c-5.7-11,5.9-14.2,17.9-8.8c0,0-4.2-9.9-16.8-13.1c0,0,11.3-9.6,29.5,0.2c0,0-19-16.5-31.1-16.3
					C216.1,190.2,225.9,172.1,225.9,172.1z"/>
			</g>
		</g>
		<g>
			<g>
				<g>
					<path fill="#E4BEB7" d="M239.7,217.1c8.1,4.1,11,10.9,11,10.9c-9.5-4.3-18.7-3.1-19.3,2.9c-1.1-0.7-2-1.7-2.6-2.9
						C224.1,219.2,230.7,215.4,239.7,217.1z"/>
				</g>
			</g>
			<g>
				<g>
					<path fill="#E4BEB7" d="M306.8,229.8c-16.9-8.6-39.5-23-47.7-34.5c-12.1-17-29.1-14.6-29.1-14.6s-2.5,4.6-3.4,9.1
						c-9.5-1.5-0.7-17.9-0.7-17.9s17-2.5,29.1,14.6c12.1,17,55.8,40.5,65.9,41.8C326.3,229.1,318,229.6,306.8,229.8z"/>
				</g>
			</g>
			<g>
				<g>
					<path fill="#E4BEB7" d="M243.8,202c9.9,4.8,19.5,13.1,19.5,13.1c-9.9-5.3-17.7-4.9-22.8-3.4c-2.6-2.2-6.1-4.3-10.7-5.5
						C229.8,206.2,234.9,201.8,243.8,202z"/>
				</g>
			</g>
		</g>
		<g opacity="0.78">
			<g>
				<g>
					
						<ellipse transform="matrix(0.9996 2.762300e-002 -2.762300e-002 0.9996 6.3344 -5.0076)" fill="#FFFFFF" cx="184.4" cy="226.8" rx="3.1" ry="4.7"/>
				</g>
			</g>
		</g>
		<g opacity="0.78">
			<g>
				<g>
					
						<ellipse transform="matrix(0.9996 2.758124e-002 -2.758124e-002 0.9996 6.378 -2.5336)" fill="#FFFFFF" cx="95" cy="229.9" rx="2.2" ry="3.4"/>
				</g>
			</g>
		</g>
		<g>
			<path fill="#F191BB" d="M115.1,139.1L141.5,0L182,139.1C182,139.1,146,156.2,115.1,139.1z"/>
		</g>
		<g>
			<path fill="#DF87AE" d="M141.5,0l-3.9,20.4l33.7,115.7c0,0-23.2,11-48.3,6.5c28.8,10.8,59-3.6,59-3.6L141.5,0z"/>
		</g>
		<g>
			<g>
				<path fill="#AD6A88" d="M173.4,109.5l-58.1,28.3l-0.2,1.3c6.7,3.7,13.7,5.8,20.5,6.9l42.6-20.2L173.4,109.5z"/>
			</g>
			<g>
				<polygon fill="#AD6A88" points="121.8,103.6 118.1,123.2 170.2,98.5 165.5,82.3 				"/>
			</g>
			<g>
				<polygon fill="#AD6A88" points="128.3,69.4 124.6,89.1 162.2,71.2 157.6,55.2 				"/>
			</g>
			<g>
				<polygon fill="#AD6A88" points="134.8,35.2 131.1,55 154.3,43.9 149.7,28 				"/>
			</g>
		</g>
		<g>
			<path fill="#1D1D1B" d="M182,139.1c10.7,5.3,19.6,13.9,26.4,23.9c6.7,10,10.8,21.8,12.4,33.7c1.5,12,0.6,24.2-1.8,35.9
				c-2.5,11.7-6.6,23-11.7,33.8c1-2.8,1.9-5.6,2.9-8.4l2.6-8.5l2.3-8.6c0.6-2.9,1.3-5.8,1.8-8.7c2-11.6,2.9-23.5,1.2-35.1
				c-0.7-5.8-2-11.6-3.9-17.1c-1.9-5.5-4.5-10.8-7.5-15.8c-3.1-5-6.7-9.6-10.8-13.9C191.6,146,187.1,142.2,182,139.1z"/>
		</g>
		<g>
			<path fill="#1D1D1B" d="M115.1,139.1c-5.3,1.3-10.4,3.4-15.2,5.9c-4.8,2.5-9.3,5.5-13.2,9.1c-4,3.6-7.5,7.6-10.4,12.2
				c-3,4.5-5.2,9.4-7.4,14.5c0.3-1.3,0.6-2.7,1-4c0.4-1.3,0.6-2.7,1.2-4c1-2.6,2-5.2,3.4-7.6c2.6-5,6.3-9.3,10.4-13.1
				c4.2-3.8,9-6.8,14.1-9C104.1,140.7,109.6,139.3,115.1,139.1z"/>
		</g>
		<g>
			<g>
				<path fill="#6E4832" d="M330.6,413.8c1-2.2,1.7-4.8,2.2-7.4c-23.3-4.2-9.6,20.7-65.3-0.4c-1.6-0.6-5,1.2-4.9,1.2
					c-2,0.9-3.8,1.9-5.2,3.2c-1.9,1.6-2.2,3.4-2.3,3.6c-0.6,1.7-0.7,3.9,0.2,6.2C261.4,435.5,326.8,422.2,330.6,413.8z"/>
			</g>
			<g>
				<path fill="#6E4832" d="M216.3,433.4c4.6-1.8,14.2-4.7,23.7-9.9c-17.2-6.6-46.2-8.4-66.6-7.3c0.2,0.3,0.4,0.5,0.6,0.7
					c-5.7,1.3-21.2,5.8-16.6,14.2C163,441.3,205.4,437.7,216.3,433.4z"/>
			</g>
		</g>
		<g>
			<path fill="#F0F0F0" d="M536,230.6c-3.4,11.7-28.9,12.1-28.9,12.1c18.7-28.6-44.7-81.9-44.7-81.9c10.4,10.3,0,40.4,0,40.4
				c-61-27.9-92.5,38.1-92.5,38.1c30.9-32.5,80.8,21.7,84.8,65.2c12.6,2.9,22.7,3.3,25.8-1.6c10.2-16.1,12.4-38.6,44.4-22.2
				c10.9,5.6,20.4,11.4,28.6,16.4C550,260.8,536,230.6,536,230.6z"/>
		</g>
		<g>
			<g>
				<path fill="#E2E2E2" d="M385.2,217.6c-10.1,11-15.2,21.7-15.2,21.7c30.9-32.5,80.8,21.7,84.8,65.2c12.6,2.9,22.7,3.3,25.8-1.6
					c0.6-1,1.2-2,1.8-3.1C477.6,249.7,422.3,188.1,385.2,217.6z"/>
			</g>
		</g>
	</g>
</g>
</svg>
