<?xml version="1.0" encoding="utf-8"?>
<!-- Generator: Adobe Illustrator 17.1.0, SVG Export Plug-In . SVG Version: 6.00 Build 0)  -->
<!DOCTYPE svg PUBLIC "-//W3C//DTD SVG 1.1//EN" "http://www.w3.org/Graphics/SVG/1.1/DTD/svg11.dtd">
<svg version="1.1" id="Layer_1" xmlns="http://www.w3.org/2000/svg" xmlns:xlink="http://www.w3.org/1999/xlink" x="0px" y="0px"
	 width="478px" height="432.9px" viewBox="0 0 478 432.9" enable-background="new 0 0 478 432.9" xml:space="preserve">
<g>
	<ellipse fill="#D4D4D4" cx="249.5" cy="388.6" rx="202.6" ry="44.3"/>
	<ellipse fill="#C7C8C8" cx="249.5" cy="388.6" rx="143.4" ry="31.4"/>
	<path fill="#DD7C1C" d="M220.5,359.3c-32.7,15.3-102.5,36.8-167.1-16.9c-43-35.8-40.5-80-26.7-115.8c-5,1-9.8,2.1-14.1,3.1l0,0
		c-16.8,37.2-23.5,85.8,23,124.5c88.1,73.3,186,6.5,186,6.5L220.5,359.3z"/>
	<path fill="#FF8812" d="M211.7,348.1c0,0-105-8-112.1-54.8c-1.2-8.1,0.5-16.6,4.2-25l0,0c-12.8-1.3-22.5-4.1-23.9-9.7
		c-4.5-18.5,0.6-40.6-35-35.3c-12.1,1.8-23,4.3-32.3,6.4l0,0c-16.8,37.2-23.5,85.8,23,124.5c88.1,73.3,186,6.5,186,6.5L211.7,348.1z
		"/>
	<path fill="#E27F1D" d="M59,222.8c-3.8-0.4-8.4-0.3-14.1,0.6c-12.1,1.8-23,4.3-32.3,6.4l0,0c-16.8,37.2-23.5,85.8,23,124.5
		c43.5,36.2,89.4,38.2,124.7,31c-25.6-2.2-53.4-11.5-80.2-33.8C31.8,311.3,40.9,260.5,59,222.8z"/>
	<g>
		<path fill="#F0F0F0" d="M50.5,172.4C49.9,184.5,74,193.1,74,193.1c-8.5-33.1,68.5-63.4,68.5-63.4c-13.1,6.4-12.9,38.3-12.9,38.3
			c66.7-7,75.4,65.6,75.4,65.6c-18.9-40.7-83.5-5.3-101.2,34.7c-12.8-1.3-22.5-4.1-23.9-9.7c-4.5-18.5,0.6-40.6-35-35.3
			c-12.1,1.8-23,4.3-32.3,6.4C27.6,196.5,50.5,172.4,50.5,172.4z"/>
	</g>
	<g>
		<g>
			<path fill="#E2E2E2" d="M197.6,208.3c6.1,13.6,7.5,25.4,7.5,25.4c-18.9-40.7-83.5-5.3-101.2,34.7c-12.8-1.3-22.5-4.1-23.9-9.7
				c-0.3-1.2-0.5-2.3-0.7-3.5C99.7,209.2,171.8,168.4,197.6,208.3z"/>
		</g>
	</g>
	<path fill="#BB6A16" d="M354.2,53.8c0,0-34.3-22.8-51-51.2c-2.5-4.2-8.8-3-9.5,1.9c-4.7,32.6-8.3,104,47.5,117.5
		C341.1,121.9,379,101.8,354.2,53.8z"/>
	<path fill="#744407" d="M322.7,27.3c-7.1-7.3-14.2-15.7-19.4-24.7c-2.5-4.2-8.8-3-9.5,1.9c-1.7,12.1-3.3,29.5-1.8,47.3
		C297.3,50.6,314.3,45.6,322.7,27.3z"/>
	<path fill="#BB6A16" d="M318.8,295.4c0,0,4.9,28.9-3.3,48.6c-8.2,19.7,4.7,36,4.7,36s10-9.3,14.9,0c4.9,9.3,0,11.9,0,11.9
		l-22.4-0.4c0,0-15.3-18-15.3-35c0-16.9-8.7-35.5-8.7-35.5L318.8,295.4z"/>
	<path fill="#FF8812" d="M301.3,211.1c0,0,6.6,32.8-23.3,53.9c-29.9,21.1-51.7,53.9-67.7,64.1c-16,10.2-36.4,27.7-26.2,43.7
		c10.2,16,67.1,42.2,96.6,13.8c8.9-8.6-8.7-43.6,21.3-59.6c30-16,37.2-52.4,37.2-52.4s0.7,8,9.5,9.5c0,0-9.5-20.4-5.8-29.1
		c0,0,2.2,6.6,11.6,6.6c0,0-13.8-18.9-7.3-34.2C353.8,211.8,301.3,211.1,301.3,211.1z"/>
	<g>
		<path fill="#D0751A" d="M351.1,260.8c0,0.1,0,0.1-0.1,0.2c0.1,0,0.1,0,0.2,0C351.1,260.9,351.1,260.8,351.1,260.8z"/>
		<path fill="#D0751A" d="M192.3,378.7c-10.2-16,10.2-33.5,26.2-43.7c16-10.2,36.5-45,67.7-64.1c19.4-11.8,21.4-29,21.4-29
			s24.6-7.5,38-2.5c0-12.4-44.3-28.4-44.3-28.4s6.6,32.8-23.3,53.9c-29.9,21.1-51.7,53.9-67.7,64.1c-16,10.2-36.4,27.7-26.2,43.7
			c2.3,3.7,7.2,7.9,13.5,11.9C195.3,382.6,193.5,380.6,192.3,378.7z"/>
		<path fill="#D0751A" d="M347.6,281.5c-0.1-0.2-0.2-0.4-0.3-0.7c-0.1,0.5-0.3,1.4-0.6,2.6c0.6,0.2,1.1,0.3,1.8,0.5
			C348,283,347.8,282.1,347.6,281.5z"/>
	</g>
	<g>
		<path fill="#D0751A" d="M283.5,370.4c-0.1,2.9-0.6,5.4-1.6,7.2c1.4-13,2.1-36.1-9.3-39.2c-16-4.4-17.8,17.2-25.1,36.5
			c-4.9,13-24.7,11.5-37.1,9.1c-12.6-5.4-22.5-12.6-26.3-18.5c-1.2-1.8-1.9-3.7-2.3-5.5c-0.9,4.2-0.3,8.5,2.3,12.7
			c10.2,16,67.1,42.2,96.6,13.8l0,0v0C283.7,383.6,283.7,377.6,283.5,370.4z"/>
		<path fill="#D0751A" d="M339.2,267.2c0,0-7.3,36.4-37.2,52.4c-18.3,9.8-18.9,26.7-18.5,40.3c0.4-12,3.3-25,18.5-33.1
			c30-16,37.2-52.4,37.2-52.4s0.7,8,9.5,9.5c0,0-1.6-3.5-3.3-8.2C339.7,273.1,339.2,267.2,339.2,267.2z"/>
		<path fill="#D0751A" d="M342.8,254.8c0,0,2.2,6.6,11.6,6.6c0,0-2.3-3.1-4.5-7.8c-5.7-1.6-7.1-6-7.1-6c-1,2.3-1,5.5-0.5,8.9
			C342.4,255.9,342.6,255.3,342.8,254.8z"/>
	</g>
	<path fill="#FF8812" d="M293.4,367.6l0.1,0.9l0,0c-1-7.5-0.9-13.6-0.9-13.6s12-28.4,17.5-47.4c5.5-19-10.4-34.5-10.4-34.5
		l-38.8,51.3c0,0,10.4,7.1,10.3,26.8c0,6.4,1.8,14.2,4.4,21.8C278.9,369.8,284.7,366.2,293.4,367.6z"/>
	<path fill="#D0751A" d="M279.7,369.9c-2.9-8.2-5-16.6-4.9-23.5c0.1-19.7-10.3-26.8-10.3-26.8l-3.6,4.7c0,0,10.4,7.1,10.3,26.8
		c0,6.4,1.8,14.2,4.4,21.8C276.7,371.9,278.1,370.8,279.7,369.9z"/>
	<path fill="#FF8812" d="M447,89.1c3.2-2.9,5.1-6.1,5.1-6.1c-11.5,1.6-9.8-10.4-9.8-10.4c6.6-2.2,9.8-14.7,9.8-14.7
		c-11.5,12-23.5-5.4-23.5-5.4c10-9.6,4.4-22.5,4.4-22.5c-2.2,19.7-38.4,20.8-52.5,20.8c-5,0-20.1-0.6-20.1-0.5
		c-27.3,0.2-56.3,14.2-63.1,30.8c-13.6-10.1-44-34.6-59-63.1c-2.1-4-8-3.1-8.8,1.4c-5,30.7-11.3,100.1,25.6,134.5
		c-0.6,24.4,13.1,38.5,13.1,38.5c52.1,80.1,157.7,34.9,183.9,7.3C471.9,178.5,470,124.8,447,89.1z"/>
	<path fill="#EA821F" d="M310.4,146.9c0,0-13.7-14.1-13.1-38.5C283.8,95.7,276,78.3,272,59.8c-12.3-11.6-25.4-26.2-33.8-42
		c-2.1-4-8-3.1-8.8,1.4c-5,30.7-11.3,100.1,25.6,134.5c-0.6,24.4,13.1,38.5,13.1,38.5c52.1,80.1,157.7,34.9,183.9,7.3
		c5.6-5.9,9.5-14.4,11.6-24.4C420.6,196.3,350.1,207.8,310.4,146.9z"/>
	<path fill="#D97A1C" d="M282.8,169c0,0-13.7-14.1-13.1-38.5c-28.3-26.4-31.2-73.5-28.7-107.8c-1-1.6-1.9-3.3-2.8-4.9
		c-2.1-4-8-3.1-8.8,1.4c-5,30.7-11.3,100.1,25.6,134.5c-0.6,24.4,13.1,38.5,13.1,38.5c52.1,80.1,157.7,34.9,183.9,7.3
		c4.5-4.8,7.9-11.3,10.2-18.9C430.2,208.1,332.4,245.1,282.8,169z"/>
	<path fill="#F0F0F0" d="M463.1,129.7c0,0-40.6-2-41.6,28.6c-1.1,30.6,28.7,23.3,41.6,19.1C483.7,170.9,482.3,129.7,463.1,129.7z"/>
	<path fill="#D9DADA" d="M432.8,149.3c0.2-6.1,2-10.9,4.8-14.7c-8.3,3.9-15.6,11-16,23.7c-1.1,30.6,28.7,23.3,41.6,19.1
		c4.6-1.5,8.1-4.7,10.6-8.8C460.4,172.8,431.7,179.3,432.8,149.3z"/>
	<path fill="#1D1D1B" d="M454.5,131.8c0,0,13.8-4.8,19.4-0.2c5.6,4.6-0.3,14.5-3.6,11.8C462.5,136.9,444.4,140.2,454.5,131.8z"/>
	<path fill="#FFFFFF" d="M429.1,136.8c0,0-22.6,14.9-38.3,7.1c-15.7-7.8-12-14.2-12-14.2s14.6-7.1,28.2-8.4
		c13.6-1.4,16.3-7.6,16.3-7.6L429.1,136.8z"/>
	<path fill="#1D1D1B" d="M423.4,113.7c0,0,16.3,13.6,5.7,23.1c-10.6,9.5-19.3-16.2-19.3-16.2S417,118.9,423.4,113.7z"/>
	<path fill="#1D1D1B" d="M366.9,141.4c2.9-6.2,8.4-10.8,14.2-14.2c6-3.4,12.6-5.3,19.4-6.3c6.6-0.9,13.1-2,18.7-5.3
		c5.6-3.1,9.7-9,10-15.7c0.5,3.3-0.3,6.8-1.8,9.9c-1.6,3.1-4.1,5.7-7,7.6c-5.8,4-12.9,5.2-19.4,6.2c-6.5,1-12.9,2.7-18.8,5.5
		c-3,1.4-5.8,3.1-8.3,5.2C371.1,136.3,368.7,138.6,366.9,141.4z"/>
	<path fill="#1D1E1B" d="M360.3,133.7c2-5.8,5.7-11,9.8-15.5c4.1-4.6,9-8.5,14.2-11.9c5.3-3.2,10.2-6.3,14.1-10.8
		c1.9-2.2,3.5-4.8,4.5-7.5c1.1-2.8,1.4-5.8,0.9-8.8c1.1,2.9,1.1,6.1,0.4,9.2c-0.8,3.1-2.2,5.9-4.1,8.5c-1.9,2.5-4.1,4.8-6.6,6.7
		c-2.4,2-5.2,3.5-7.7,5.1c-5.1,3.2-9.8,6.9-14.2,11c-2.2,2-4.2,4.3-6.1,6.6C363.6,128.5,361.8,131,360.3,133.7z"/>
	<path fill="#1D1E1B" d="M473.3,142.6c0.3,2.6,0.2,5,0,7.5c-0.3,2.5-0.8,4.9-1.6,7.2c-0.9,2.3-2.2,4.5-3.8,6.3
		c-1.6,1.8-3.8,3.1-5.9,4.1c2.1-1.2,4-2.6,5.4-4.5c1.4-1.9,2.4-4,3-6.2c0.6-2.3,0.9-4.6,0.9-6.9c0-2.3-0.2-4.7-0.7-6.8L473.3,142.6z
		"/>
	<path fill="#1D1E1B" d="M473.2,138.8c0.1,3.2,0.2,6.4,0.6,9.6c0.2,1.6,0.4,3.2,0.7,4.8c0.4,1.5,0.6,3.2,1.8,4.4
		c-1.3-1-1.9-2.7-2.4-4.2c-0.6-1.5-1-3.1-1.4-4.7c-0.8-3.2-1.4-6.4-2-9.6L473.2,138.8z"/>
	<path fill="#D0751A" d="M217.5,352.2c0,0,29.7-16.6,40.8,3.3c0,0-4.9-15.7-18.7-17C225.7,337.2,217.5,352.2,217.5,352.2z"/>
	<path fill="#6E4832" d="M256,403.9c0,0-12.5-39.3-10.9-64.9c1.5-25.7,25.1-1.1,25.1,13.1c0,14.2,7.5,52.4-12.6,54.1L256,403.9z"/>
	<path fill="#1D1D1B" d="M446.9,99.9c1.2,2.1,2.3,3.4,3.6,4.2c0.7,0.4,1.5,0.8,2.4,1.2c0.9,0.3,1.9,0.6,3,1.1c-1,0.7-2.1,1-3.3,1
		c-1.2,0-2.4-0.3-3.6-1c-1.1-0.7-1.9-1.8-2.3-3C446.4,102.2,446.4,101,446.9,99.9z"/>
	<path fill="#1D1D1B" d="M451.5,106.1c0,0,2.2,22.3,10.8,20.2c0,0-4.5-18.9-6.4-19.9C454.1,105.4,451.5,106.1,451.5,106.1z"/>
	<g opacity="0.78">
		<g>
			
				<ellipse transform="matrix(0.8469 -0.5317 0.5317 0.8469 -0.9241 245.1163)" fill="#FFFFFF" cx="425.3" cy="124.2" rx="4" ry="5.9"/>
		</g>
	</g>
	<g opacity="0.78">
		<g>
			
				<ellipse transform="matrix(0.9469 -0.3216 0.3216 0.9469 -12.7395 152.7594)" fill="#FFFFFF" cx="456" cy="114.9" rx="1.5" ry="3.8"/>
		</g>
	</g>
	<path opacity="0.91" fill="#FFFFFF" d="M456.5,134.6c0,0,10.6-4.5,14.3-3.5c3.7,1,3.9,2.2,3.8,3c-0.1,0.8-0.2,2.3-1.8,2
		c-1.6-0.3-0.3-2-2.8-2.6C467.4,133.1,460.2,137.2,456.5,134.6z"/>
	<path fill="#744407" d="M265.5,53.5c-10.2-10.4-20.4-22.6-27.3-35.7c-2.1-4-8-3.1-8.8,1.4c-2.2,13.5-4.6,34.4-3.6,56.6
		C240.4,72.5,257.6,66,265.5,53.5z"/>
	<path fill="#FACFC7" d="M297,87.9c0,0-47-26.2-54.6-47c0,0,0.5,91.5,27.3,105.3c26.8,13.8,0-32.5,0-32.5s12,19.4,19.1,8.3
		s-4.9-18.2-4.9-18.2S300.3,110.7,297,87.9z"/>
	<g>
		<path fill="#DCB8B2" d="M262,118.7c0,0,11.1,19.3,11.8,29.3c10.9,3.7,8.4-7.4,4-17.9C270.8,132.9,262,118.7,262,118.7z"/>
		<path fill="#DCB8B2" d="M297,87.9c0,0-47-26.2-54.6-47c0,0,0,7.1,0.7,17.6c15.9,17.4,46.2,34.4,46.2,34.4
			c0.8,5.5,0.5,9.2-0.5,11.8C293.3,104.8,299.1,102.3,297,87.9z"/>
		<path fill="#DCB8B2" d="M276.2,108.8c0,0,10.7,6.3,5.9,16.4c2.4,0.6,4.7-0.2,6.7-3.3c4.3-6.7,1.6-12-1.2-15.1
			C283.8,112,276.2,108.8,276.2,108.8z"/>
	</g>
	<path fill="#6E4832" d="M301.9,390.9c-5.2-5.3-7.5-15.2-8.5-23.3c-8.7-1.4-14.5,2.2-17.8,5.3c5.4,15.7,14.1,30.9,17,32.8
		c4.4,2.7,24,6,24-4.9S301.9,390.9,301.9,390.9z"/>
	<path fill="#3A2000" d="M320.3,380c0,0-6.3-8-7.3-19.4c-7.2-0.9-12,1.4-14.6,3.3c3.2,14.4,14.4,27.6,14.4,27.6l22.4,0.4
		c0,0,4.9-2.6,0-11.9C330.3,370.7,320.3,380,320.3,380z"/>
</g>
</svg>
