<?xml version="1.0" encoding="utf-8"?>
<!-- Generator: Adobe Illustrator 17.1.0, SVG Export Plug-In . SVG Version: 6.00 Build 0)  -->
<!DOCTYPE svg PUBLIC "-//W3C//DTD SVG 1.1//EN" "http://www.w3.org/Graphics/SVG/1.1/DTD/svg11.dtd">
<svg version="1.1" id="Layer_1" xmlns="http://www.w3.org/2000/svg" xmlns:xlink="http://www.w3.org/1999/xlink" x="0px" y="0px"
	 width="416.7px" height="552.7px" viewBox="0 0 416.7 552.7" enable-background="new 0 0 416.7 552.7" xml:space="preserve">
<g>
	<ellipse fill="#D4D4D4" cx="251.9" cy="390.3" rx="164.8" ry="36.9"/>
	<ellipse fill="#C7C8C8" cx="251.9" cy="390.3" rx="118.2" ry="26.5"/>
	<g>
		<path fill="#A76013" d="M280.2,324c0,0,34-5.5,31,15.8c-3,21.3-5.9,23.1-5.9,23.1s38.2-7,38.1,5.6c-0.1,12.6-78.8,0-78.8,0
			l-9.4-21.1L280.2,324z"/>
	</g>
	<path fill="#3A2000" d="M305.3,362.8c0,0,0.1,0,0.2-0.2c-4.9,2.4-10.4,6.3-14.5,9.3c22.9,2.5,52.5,4.2,52.5-3.5
		C343.5,355.9,305.3,362.8,305.3,362.8z"/>
	<path fill="#3A2000" d="M294.9,377.6c9.1,13.2,18.2,22.6,18.2,22.6s22,6.4,20.1-6.7s-16.6-8.3-16.6-8.3s-3.7-2.4-10-13.1
		C303.6,375,299,376.6,294.9,377.6z"/>
	<path fill="#BB6A16" d="M294.9,377.6c4.1-1,8.6-2.7,11.8-5.5l0,0c-2.1-3.7-4.6-8.4-7.3-14.4c-10.5-23.2-5-64.7-5-64.7
		s-16.9,8.5-17.3,39.2C276.9,347.5,285.9,364.5,294.9,377.6L294.9,377.6z"/>
	<path fill="#ED841F" d="M74.9,481.6c36.4,7.7,42.2-14.1,41.4-30.5c-0.3-5.4,3.7-9.5,9.2-12.6l0,0c-2.3-2.5-3.8-5.6-4.5-9.4
		c-5.1-31.3,50.5-70.5,70-68.6c19.6,1.8,3.1-17.7,3.1-17.7S4.7,339.2,0.2,429c-1.5,29.1,7.8,54.5,23.6,74.7
		C38.4,490.1,57.2,477.8,74.9,481.6z"/>
	<path fill="#E17E1D" d="M74.9,481.6c2.9,0.6,5.6,1,8.1,1.3C48.3,464,22.5,430,20.5,387C8.7,398.1,1,411.8,0.2,429
		c-1.5,29.1,7.8,54.5,23.6,74.7C38.4,490.1,57.2,477.8,74.9,481.6z"/>
	<g>
		<path fill="#E17E1D" d="M141.3,375.6c0.5,3.3,1.8,6,3.6,8.3c16-14.3,35.9-24.5,46.1-23.5c19.6,1.8,3.1-17.7,3.1-17.7
			s-17.5-0.3-42,1.7C144.4,354.5,139.7,365.5,141.3,375.6z"/>
	</g>
	<g>
		<path fill="#D07519" d="M154.1,376.5c13.9-10.2,28.6-16.9,36.9-16.1c19.6,1.8,3.1-17.7,3.1-17.7s-0.4,0-1,0
			C179.2,350.1,163.6,362.7,154.1,376.5z"/>
	</g>
	<path fill="#D07519" d="M52.6,484.2c-18.4-20.9-29.4-48.2-27.8-79.8c0.5-10.2,3.4-19.2,8.2-27.2C14.3,389.6,1.3,406.3,0.2,429
		c-1.5,29.1,7.8,54.5,23.6,74.7C32.3,495.8,42.3,488.3,52.6,484.2z"/>
	<path fill="#FF8812" d="M301.1,261.1c6.7-1.8,6.9-6.4,6.9-6.4c-7.7,1.4-14-1.5-18.7-5.7c-4.2-6.7-8.2-12-10.9-15.3c0,0,0,0,0,0v0
		c-1.9-2.3-3.1-3.6-3.1-3.6h-40.5c0,0,16.4,22.3,9.1,37.4c-7.3,15-10,38.3-22.8,44.6c-12.8,6.4-34.2,33.3-30.1,48.3
		c3.8,13.9,7.2,16.1,7.7,16.4l0,0c4.7,0.1,10.7,1.5,16.5,6.5c13.6-4.6,31.7-8.3,34.5-18.8c3.2-11.8,22.3-3.5,34.6-34.8
		c8.1-20.6,15.7-31.8,17.5-43.1c9.8-1.2,12.6-10.4,12.6-10.4C302.3,277.8,301.1,261.1,301.1,261.1z"/>
	<g>
		<path fill="#BB6A16" d="M286.4,244.7c-3.1-4.7-6-8.4-8-10.9c0,0,0,0,0,0v0c-1.9-2.3-3.1-3.6-3.1-3.6h-40.5c0,0,3.8,5.2,7,12.3
			c13.5,3.5,27.6,6,41.5,6.5C284.3,247.4,285.3,246,286.4,244.7z"/>
	</g>
	<path fill="#D97A1C" d="M309.2,275.6c-2,2.1-4.9,4.2-9.2,4.7c-1.8,11.5-9.5,22.8-17.7,43.7c-12.5,31.7-31.9,23.2-35.1,35.3
		c-3.1,11.4-23.9,14.9-37.9,20.1c2,1,4,2.2,6,4c13.6-4.6,31.7-8.3,34.5-18.8c3.2-11.8,22.3-3.5,34.6-34.8
		c8.1-20.6,15.7-31.8,17.5-43.1c9.8-1.2,12.6-10.4,12.6-10.4C312.4,276.5,310.7,276.2,309.2,275.6z"/>
	<g>
		<path fill="#E4801E" d="M202.1,83.7c0,0-43.7,2.1-68.7,26.2c-25,24.2-80.7,37.6-90.6,34.2c-10-3.4,7.2,16.6,33,20
			c25.9,3.4,65.5,32.2,80,25.2C170.3,182.1,202.1,83.7,202.1,83.7z"/>
	</g>
	<path fill="#744407" d="M42.7,144.1c-10-3.4,7.2,16.6,33,20c3.4,0.5,7.1,1.4,11,2.6c5-11.4,10.1-24.4,14.6-36.5
		C76.6,141.1,49.4,146.3,42.7,144.1z"/>
	<g>
		<path fill="#744407" d="M322.2,122.2c0,0,18.7,27.8,40.5,23.2c21.9-4.6-9.7,24.1-33.3,20C305.8,161.3,322.2,122.2,322.2,122.2z"/>
	</g>
	<g>
		<path fill="#FF8812" d="M328.7,110.2c-3-5.9-6.4-11.6-10.3-16.9c7.3-5,9.6-12.2,9.6-12.2c-11.5,2.4-15-7.9-15-7.9
			c10.2-2.7,15-17,15-17c-11.5,10.3-30,0-30,0c10.5-8.5,7.8-30.4,7.8-30.4c-16.1,26.4-52.4,25.6-64,24.7c-1.2-0.1-2.4-0.3-3.6-0.4
			c0,0-54.7,0-74.1,42.5c-19.4,42.5-34,103.9,23.1,129.4c57.1,25.5,125.7,5.6,136.1-20C333.6,176.4,344.5,141.1,328.7,110.2z"/>
	</g>
	<g>
		<g>
			<path fill="#EF8520" d="M240.1,210.1C183,184.6,197.6,123.2,217,80.7c6.5-14.3,17.1-23.8,28.1-30.1c-1.2-0.1-2.3-0.1-3.3-0.2
				c-1.2-0.1-2.4-0.3-3.6-0.4c0,0-54.7,0-74.1,42.5c-19.4,42.5-34,103.9,23.1,129.4c40.4,18.1,86.7,13.3,113.9-0.1
				C281.3,222.3,260,219,240.1,210.1z"/>
		</g>
		<g>
			<path fill="#EF8520" d="M294.7,38.6c2.6,0.2,6.5,0.4,11.1,0.3c0.8-7,0.1-13.1,0.1-13.1c-3.2,5.3-7.2,9.5-11.7,12.8
				C294.3,38.5,294.5,38.6,294.7,38.6z"/>
		</g>
	</g>
	<g>
		<path fill="#E4801E" d="M208.4,209.3c-60.8-27.1-45.2-92.4-24.6-137.7c0.9-2.1,2-4,3.1-5.9c-9,6.2-17.3,14.8-22.8,26.7
			c-19.4,42.5-34,103.9,23.1,129.4c45.5,20.3,98.2,11.8,123.1-5.4C281.5,224.6,243,224.8,208.4,209.3z"/>
	</g>
	<g>
		<path fill="#FACFC7" d="M174,124.1c0,0-15.6-7.2-32.1,5.7c-16.4,12.9-65,23-75.1,21.4c-10.1-1.6,27.1,10,41.7,13.6
			c14.6,3.6,38.4,21.1,47,12.2c8.6-8.9-1.6-15.3-14.7-13.5c0,0,6.9-8.3,19.8-7.8c0,0-8.1-12.5-28.3-8.2c0,0,22.9-10.5,34.4-6.9
			C178.3,144.3,174,124.1,174,124.1z"/>
	</g>
	<g>
		<g>
			<path fill="#E4BEB7" d="M148.1,163.4c-8.9,1.7-13.6,7.3-13.6,7.3c10.3-1.4,18.8,2.3,17.7,8.3c1.3-0.4,2.4-1,3.4-2
				C162.4,169.8,157.2,164.3,148.1,163.4z"/>
		</g>
		<g>
			<path fill="#E4BEB7" d="M80,156.6c18.7-3.4,44.4-10.9,55.5-19.6c16.4-12.9,32.1-5.7,32.1-5.7s1.1,5.1,0.7,9.7
				c9.6,1.3,5.7-16.9,5.7-16.9s-15.6-7.2-32.1,5.7s-65,23-75.1,21.4C61.6,150.4,69.3,153.2,80,156.6z"/>
		</g>
		<g>
			<path fill="#E4BEB7" d="M148.3,147.7c-10.9,1.8-22.4,7-22.4,7c11-2.3,18.4,0.3,22.8,3.2c3.1-1.4,7.1-2.4,11.9-2.2
				C160.6,155.7,156.9,150.1,148.3,147.7z"/>
		</g>
	</g>
	<g>
		<path fill="#F0F0F0" d="M289,197.3c0,0-13.1-2.1-24.6,6.4c-11.5,8.5-16.4,6.1-14.6,16.7c1.8,10.6,29.5,15.5,46.8,7
			c17.3-8.5,20-20.3,12.8-24C302,199.8,289,197.3,289,197.3z"/>
	</g>
	<g>
		<path fill="#D9DADA" d="M301,219.7c-17.3,8.5-44.9,3.6-46.8-7c-0.2-1-0.3-1.8-0.3-2.6c-3.9,2.2-5.2,3.8-4.1,10.3
			c1.8,10.6,29.5,15.5,46.8,7c10.2-5,15.3-11.1,16.3-16.1C310.2,214.2,306.3,217.1,301,219.7z"/>
	</g>
	<g>
		<path fill="#1D1D1B" d="M281.2,204.3c0,0,9.5-4.2,19.3-1.4c9.8,2.8,8.3,3.8,6.5,5.2c-1.8,1.5-8.9,5.9-12.2,6.7
			C291.5,215.7,280.8,211,281.2,204.3z"/>
	</g>
	<g>
		<path fill="#1D1D1B" d="M272.6,225.6l3.3-0.4c1.1-0.2,2.2-0.4,3.3-0.6c1.1-0.3,2.1-0.6,3.2-0.9c1-0.4,2.1-0.7,3-1.2
			c2-0.9,3.8-2.1,5.3-3.5c1.5-1.4,2.7-3.4,2.9-5l2.3,0.3c-0.3,1.4-0.9,2.4-1.6,3.4c-0.7,1-1.5,1.8-2.4,2.6c-1.8,1.5-3.9,2.6-6,3.3
			c-1,0.4-2.2,0.6-3.2,1c-1.1,0.2-2.2,0.5-3.3,0.6c-1.1,0.1-2.2,0.3-3.3,0.4L272.6,225.6z"/>
	</g>
	<g>
		<path fill="#1D1D1B" d="M295.9,213.8c-0.3,0.5-0.3,1.5,0.1,2.1c0.4,0.7,1.2,1.2,2.1,1.6c1.9,0.7,4,0.9,6.1,1
			c-2.1,0.3-4.2,0.5-6.4,0.1c-1.1-0.3-2.3-0.7-3.1-1.7c-0.9-1.1-1.2-2.5-0.8-3.9L295.9,213.8z"/>
	</g>
	<g>
		<path fill="#FFFFFF" d="M193.1,165.2c0,0,11.8,4.1,18.2,14.8c6.4,10.7,29.8,23.7,40.8,18.9c10.9-4.8,7.4-10.6,7.4-10.6
			s-8.7-2.4-19.2-11c-10.5-8.7-20.7-13.2-33.4-13C194.3,164.4,193.1,165.2,193.1,165.2z"/>
	</g>
	<g>
		<path fill="#FFFFFF" d="M294,186.5c0,0-3.1,13.3,5.4,10.9c8.5-2.4,18.1-8.9,18.9-18c0,0-10.3,4.2-16.1,5.6
			C296.6,186.4,294,186.5,294,186.5z"/>
	</g>
	<g>
		<path fill="#1D1E1B" d="M235.7,176.1c0,0-3,23.4,7.4,23.8c10.4,0.4,12.6-9.4,8-14.1C246.4,181.2,235.7,176.1,235.7,176.1z"/>
	</g>
	<g>
		<path fill="#1D1E1B" d="M299,185.6c0,0-3,12.2,2.6,11.4c5.6-0.8,4.2-12.9,4.2-12.9L299,185.6z"/>
	</g>
	<g>
		<path fill="#1D1E1B" d="M189.4,165.8c9.3-2.2,19.1-3,28.7-1.4c4.8,0.8,9.6,2.6,13.5,5.7c3.7,3,7.5,5.9,11.4,8.7
			c3.8,2.8,7.8,5.4,12.1,7.1c4.2,1.8,9.1,2.4,13.2,0.5c2-0.9,3.9-2.3,5.4-4.1c1.5-1.8,2.7-3.8,3.7-5.9c2-4.3,3.2-8.9,3.9-13.7
			c-0.2,4.8-1.1,9.6-2.8,14.1c-0.9,2.3-2.1,4.4-3.6,6.4c-1.5,2-3.5,3.6-5.7,4.8c-2.3,1.2-4.9,1.6-7.4,1.5c-2.5-0.1-5-0.8-7.3-1.6
			c-4.6-1.8-8.8-4.4-12.7-7.2c-3.9-2.8-7.6-5.9-11.3-8.9c-3.5-3-8-4.5-12.6-5.6c-4.6-1-9.4-1.4-14.1-1.3
			C198.9,164.8,194.1,165.2,189.4,165.8z"/>
	</g>
	<g>
		<path fill="#1D1E1B" d="M288,177.3c-0.1,2,0.1,4.1,1,5.7c0.9,1.6,2.6,2.4,4.4,2.5c1.8,0.2,3.7-0.2,5.6-0.6c1.9-0.4,3.8-1,5.7-1.6
			c3.8-1.2,7.5-2.8,11.3-4c1.9-0.6,3.9-1.1,5.9-1.5c2-0.3,4.1-0.5,6.1-0.4c-4,0.7-7.7,2.1-11.4,3.6c-3.7,1.6-7.4,3.2-11.2,4.5
			c-1.9,0.6-3.9,1.2-6,1.6c-2,0.3-4.1,0.7-6.3,0.3c-1.1-0.2-2.2-0.6-3.1-1.2c-0.9-0.7-1.6-1.6-2.1-2.6
			C287.3,181.4,287.4,179.2,288,177.3z"/>
	</g>
	<path fill="#FF8812" d="M265.6,378.9c-2.4-20-2.5-49.7,6.7-64.4c14.3-22.8-1.8-44.6-1.8-44.6l-28.6,51.4c5.1,14.7-9,23-9,23
		c6.6,5.6,14.3,21.2,20.6,36.3C257.2,381,262.2,380.9,265.6,378.9z"/>
	<path fill="#D97A1C" d="M253.4,380.6c2.4,0.2,5.2,0.3,7.8-0.2c-6.5-15.6-14.5-32.4-21.4-38.2c0,0,14.1-8.3,9-23l-7.1,2
		c5.1,14.7-9,23-9,23C239.3,349.9,247,365.6,253.4,380.6L253.4,380.6z"/>
	<g>
		<path fill="#F0F0F0" d="M241.8,468.9c0,0-11.1,15.5-33.9,4.5c-22.8-10.9-48.5-15.1-48.5-15.1s28.5,3.5,34.8-15.3
			c0,0-52.5,13.3-68.8-4.6c-5.5,3.1-9.5,7.2-9.2,12.6c0.8,16.4-4.9,38.3-41.4,30.5c-17.6-3.7-36.4,8.5-51.2,22.2
			c33,42.2,94.7,61,147.4,40.7C248.9,514.4,241.8,468.9,241.8,468.9z"/>
	</g>
	<g>
		<path fill="#E4E4E4" d="M241.8,468.9c0,0-7.1,9.9-21.6,8.2c-8,4.8-17.5,9.5-28.8,13.9c-35.9,13.9-76.1,9.5-108.4-8.1
			c-2.5-0.3-5.2-0.7-8.1-1.3c-17.6-3.7-36.4,8.5-51.2,22.2c33,42.2,94.7,61,147.4,40.7C248.9,514.4,241.8,468.9,241.8,468.9z"/>
	</g>
	<g>
		<path fill="#D2D2D2" d="M52.6,484.2c-10.3,4.1-20.3,11.6-28.9,19.5c33,42.2,94.7,61,147.4,40.7c34.5-13.3,52.2-29.7,61.4-43.7
			c-9.4,6.7-21.4,13.2-36.7,19.1C145.3,539.3,86.4,522.8,52.6,484.2z"/>
	</g>
	<g opacity="0.78">
		<g>
			<path fill="#FFFFFF" d="M244.7,188.5c0.1-2.7-1.5-5-3.6-5.1c-2.1-0.1-3.8,2.1-3.9,4.9c-0.1,2.7,1.5,5,3.6,5.1
				C242.9,193.5,244.6,191.3,244.7,188.5z"/>
		</g>
	</g>
	<g opacity="0.78">
		<g>
			<path fill="#FFFFFF" d="M302.3,190c0-1.5-0.5-2.7-1.3-2.8c-0.7,0-1.4,1.2-1.4,2.7c0,1.5,0.5,2.7,1.3,2.8
				C301.7,192.7,302.3,191.5,302.3,190z"/>
		</g>
	</g>
	<path opacity="0.8" fill="#FFFFFF" d="M284.2,205.4c0,0,5-2.4,9.4-2.3c4.4,0.1,12.3,3,12.3,3s-1.1,1.7-7.8-0.6
		C291.4,203.2,287.5,207.7,284.2,205.4z"/>
	<path fill="#6E4832" d="M270.4,399c-1.5-0.8-3.5-8.9-4.9-20.1c-3.3,2-8.4,2.1-12.2,1.7c7.1,17,12.5,33.2,12.5,33.2s21,6.7,20.3-7.3
		C285.6,392.6,270.4,399,270.4,399z"/>
	<path fill="#6E4832" d="M215.2,383.3c-5.8-5-11.8-6.4-16.5-6.5c0,0,0.1,0,0.1,0s-42.8,15.5-39.2,28.2c3.6,12.8,18.2,6.8,22.3,0
		c4.1-6.8,14.6-14.2,28.2-19.9C211.7,384.5,213.5,383.9,215.2,383.3z"/>
	<g>
		<path fill="#6E4832" d="M164.1,92.6c0,0,70.5,60.3,172.2,44.6c0,0,7.1-7.2,0.3-21c0,0-118.6-2.9-159.3-44.4
			C177.3,71.8,164.9,74.6,164.1,92.6z"/>
		<g>
			<path fill="#63412C" d="M184.6,78.1c-2.6-2-5-4.1-7.2-6.3c0,0-0.9,0.2-2.2,0.8C178.1,74.6,181.2,76.4,184.6,78.1z"/>
			<path fill="#63412C" d="M336.7,116.2c0,0-4.6-0.1-12.2-0.6c1,8-3.1,12.2-3.1,12.2C254.9,138,201.8,115.8,173,99.2
				c21.9,15.2,82.8,50.4,163.4,38C336.3,137.2,343.5,130,336.7,116.2z"/>
		</g>
		<path fill="#8F5E43" d="M177.3,71.8c0,0,13.9-27.1,37.9-28.8c24-1.7,26.9-23.6,26.6-31.2c-0.3-7.6,12.6-18.6,35.3-6
			c22.8,12.6,86.5,38.5,59.6,110.4C336.7,116.2,221.9,117.1,177.3,71.8z"/>
		<path fill="#7A5038" d="M277.1,5.7c-6.2-3.4-11.7-5.1-16.4-5.5c26.9,14.2,74.3,41.8,50.4,105.6c0,0-58.2,0.5-107.8-15.6
			c52.3,26.7,133.3,26,133.3,26C363.7,44.2,299.9,18.3,277.1,5.7z"/>
		<polygon fill="#C1D98D" points="330.2,93.5 322.1,99.5 322.4,109.5 317,103.1 308.9,109.1 313.7,99.2 308.4,92.8 316.7,93.1 
			321.5,83.2 321.9,93.2 		"/>
	</g>
</g>
</svg>
