<?xml version="1.0" encoding="utf-8"?>
<!-- Generator: Adobe Illustrator 17.1.0, SVG Export Plug-In . SVG Version: 6.00 Build 0)  -->
<!DOCTYPE svg PUBLIC "-//W3C//DTD SVG 1.1//EN" "http://www.w3.org/Graphics/SVG/1.1/DTD/svg11.dtd">
<svg version="1.1" id="Layer_1" xmlns="http://www.w3.org/2000/svg" xmlns:xlink="http://www.w3.org/1999/xlink" x="0px" y="0px"
	 width="450.2px" height="460.8px" viewBox="0 0 450.2 460.8" enable-background="new 0 0 450.2 460.8" xml:space="preserve">
<g>
	<ellipse fill="#D4D4D4" cx="285.2" cy="422.7" rx="165" ry="38.2"/>
	<ellipse fill="#C7C8C8" cx="285.2" cy="422.7" rx="121.5" ry="28.1"/>
	<path fill="#BB6A16" d="M381.8,299.4c-3.5-3.8-4.3-8.7-3.8-13.3l0,0c-7.8,1.9-13.8,4-15,6.4c-3.4,6.8-11.8-27.6-33.7-27.6
		l-12.6,27.6c0,0,22.7,27.1,36.6,36.9C366.4,338.8,360.5,307.8,381.8,299.4L381.8,299.4z"/>
	<path fill="#3A2000" d="M431.6,296.7c7.2-9.4,4.6-19.8-10.1-17.7c-9.5,1.3-29.5,3.7-43.5,7.1c-0.5,4.6,0.3,9.5,3.8,13.3
		c1.3-0.5,2.8-1,4.3-1.3C412.7,292.4,424.5,306.1,431.6,296.7z"/>
	<path fill="#BB6A16" d="M308.7,351c0,0,34,1.8,37.5,17.7c3.5,16-27.1,23.3-27.1,23.3s46.5-12.9,52.7,8.6c0,0-80,1.6-88.8,0
		c-8.8-1.6-9.7-11.8-9.7-11.8L308.7,351z"/>
	<path fill="#FF8812" d="M196.6,287.9c6-32,9.9-72.1-20.5-115.8l0,0c0,8.5-1.4,16.7-5.9,21.8c-13,15.1-22.5-11.4-37.8,7
		c-15.3,18.4-6.7,39.4-23.8,48c-3.8,1.9-8,2.7-12.3,2.7l0,0c-0.5,26.5,4,50.7,32.7,77.4c57,53.1,79.7,48,79.7,48l24.7,0
		C233.3,377.2,187.9,334.4,196.6,287.9z"/>
	<path fill="#ED841F" d="M211.5,349.7c-9.9-6.9-21.6-16.3-35.2-29c-45.2-42.1-30.5-78.1-30.4-126.4c-4.1-0.6-8.5,0.6-13.5,6.7
		c-15.3,18.4-6.7,39.4-23.8,48c-3.8,1.9-8,2.7-12.3,2.7l0,0c-0.5,26.5,4,50.7,32.7,77.4c57,53.1,79.7,48,79.7,48l24.7,0
		C233.3,377.2,221.9,366.3,211.5,349.7z"/>
	<path fill="#DD7C1C" d="M169.2,343.3c-51.3-47.8-38.5-89-36.8-142.3c-15.3,18.4-6.7,39.4-23.8,48c-3.8,1.9-8,2.7-12.3,2.7l0,0
		c-0.5,26.5,4,50.7,32.7,77.4c57,53.1,79.7,48,79.7,48l1.4,0C198.4,368.9,184.9,358,169.2,343.3z"/>
	<path fill="#BB6A16" d="M225.2,368.4l-13.2,0c0,0-22.7,5.1-79.7-48c-25.5-23.8-31.9-45.6-32.7-68.9c-1.1,0.1-2.3,0.2-3.5,0.2l0,0
		c-0.5,26.5,4,50.7,32.7,77.4c57,53.1,79.7,48,79.7,48l24.7,0C233.3,377.2,229.9,373.9,225.2,368.4z"/>
	<path fill="#FF8812" d="M369.6,271.7c0,0-12-9.6-37-6.8c0,0-30.2-19-30.2-35.2c0-16.2-69.1-7.9-69.1-7.9s26.1,32.4,35.2,46.3
		c9,13.9-11.1,60.3-33.3,71.4c-22.2,11.1-32.4,31.2-17.6,44.4c14.8,13.2,14.8,21.5,7.2,29.8c-0.9,1-0.8,2.3,0.2,3.9
		c4.3-1.4,11-2.7,20.6-2.4c0,0-0.1,0-0.1,0s29.8-9.7,39.5-29.8c9.7-20.1,38.1-31.9,45.8-49.9c7.6-18,19.4-34,17.3-47.9
		c0,0,8.3,11,5.5,20.8c0,0,12.5-13.5-4.9-32.4C349,275.9,356.5,269.3,369.6,271.7z"/>
	<path fill="#BB6A16" d="M304.9,238.3l-50.3,10.5c5.1,6.7,10,13.3,13.2,18.1c21,0.9,42.6,0.2,63.3-3.1
		C326.2,260.6,310.8,249.7,304.9,238.3z"/>
	<g>
		<path fill="#D97A1C" d="M343.1,279c2.1,13.9-9.7,29.8-17.3,47.9c-7.6,18-36.1,29.8-45.8,49.9c-9.7,20.1-39.5,29.8-39.5,29.8
			s3.7,3.5,11.1,6.3c9.2-4,26.6-13,33.6-27.5c9.7-20.1,38.1-31.9,45.8-49.9c7.1-16.8,17.8-31.8,17.6-45
			C346.9,284.1,343.1,279,343.1,279z"/>
		<path fill="#D97A1C" d="M348.2,264.8c-2.9,1.2-4.4,2.6-4.4,2.6c2.6,2.8,4.5,5.5,5.9,8c2.1-1.5,9.1-5.7,19.9-3.7
			C369.6,271.7,362.6,266.2,348.2,264.8z"/>
		<path fill="#D97A1C" d="M351.9,293.8c1.8,4,3.4,9.4,1.9,14.5c0,0,11.4-12.3-2.7-29.9C353.7,284.8,353.1,290.1,351.9,293.8z"/>
	</g>
	<path fill="#FF8812" d="M350.9,305c-10.7-5.2-20.1-14.5-20.1-28.1l-25.5,6.8c0,0-3.1,55.1,9.4,49.9c6.8-2.8,16.7-10.1,26.2-13.5
		C341.9,314.8,344.5,307.9,350.9,305z"/>
	<path fill="#DF7D1D" d="M345.2,309.6c-9.2,3.5-18.9,10.4-25.5,13.2c-9.2,3.8-9.9-24.9-9.7-40.4l-4.7,1.2c0,0-3.1,55.1,9.4,49.9
		c6.8-2.8,16.7-10.1,26.2-13.5C341.5,316.8,342.8,312.8,345.2,309.6z"/>
	<g>
		<path fill="#FF8812" d="M301.9,118.2c0,0-18.2-37.5-63.9-67.4c-45.7-29.9-69-25.9-69-25.9s17.8,133.5,58,159.6
			C248.2,198.3,298.8,156.7,301.9,118.2z"/>
	</g>
	<path fill="#744407" d="M169,24.9c0,0,3.5,26.2,10.9,57.7c15.5-7.9,32-24.1,40.8-42.2C186.5,22,169,24.9,169,24.9z"/>
	<g>
		<path fill="#F0F0F0" d="M138.3,150.4c2.3-13.5-28.3-39.8-28.3-39.8c31.2,21,52.1,41.6,66,61.5c0,8.5-1.4,16.7-5.9,21.8
			c-13,15.1-22.5-11.4-37.8,7c-15.3,18.4-6.7,39.4-23.8,48c-3.8,1.9-8,2.7-12.3,2.7c0.5-26.2,6-54.5-1.9-89.6
			C78.4,91.4,0,145.9,0,145.9C46.3,67.1,138.3,150.4,138.3,150.4z"/>
	</g>
	<g>
		<path fill="#DDDDDD" d="M138.3,150.4c2.3-13.5-28.3-39.8-28.3-39.8c13.9,9.3,25.7,18.6,35.8,27.8c2.1,20.2,1.3,38.6,0.2,55.9
			c-4.1-0.6-8.6,0.6-13.6,6.7c-15.3,18.4-6.7,39.4-23.8,48c-3.8,1.9-8,2.7-12.3,2.7c0.5-26.2,6-54.5-1.9-89.6
			C78.4,91.4,0,145.9,0,145.9C46.3,67.1,138.3,150.4,138.3,150.4z"/>
	</g>
	<g>
		<g>
			<path fill="#CBCCCC" d="M131.8,145c2.7,20.3,2,38.5,0.9,55.6c-0.1,0.1-0.2,0.2-0.3,0.4c-15.3,18.4-6.7,39.4-23.8,48
				c-3.8,1.9-8,2.7-12.3,2.7c0.5-26.2,6-54.5-1.9-89.6C78.4,91.4,0,145.9,0,145.9C38.9,79.7,110,127.8,131.8,145z"/>
		</g>
	</g>
	<g>
		<path fill="#BB6A16" d="M315.8,100.2c0,0-9.2-44.5-9-66.2c0.2-21.7-4.9-34-4.9-34s28,35.6,44.6,58.8
			c16.6,23.2,31.5,54.7,28.8,60.8C372.6,125.7,315.8,100.2,315.8,100.2z"/>
	</g>
	<path fill="#744407" d="M301.9,0c0,0,4.9,11.7,4.9,32.6c8.7,3.6,19.5,7.9,28.3,10.7C319.6,22.4,301.9,0,301.9,0z"/>
	<path fill="#FF8812" d="M398,122.6c9.5-1,13.3-13.9,13.3-13.9c-5.4,12-33-3.9-24-10.4c9-6.5,6.8-17,6.8-17
		c-5.5,7.4-23.4,5.1-36.2,2.2c-44-29.8-119.6-6.1-141.6,48.6c-25.6,63.4,7.6,93.6,7.6,93.6c57.7,68.1,137.7,10.9,155.7-7
		c13.4-13.4,25.5-41.3,15.4-77.5c8.7-1,12.8-6.8,12.8-6.8C402.4,138,388.5,123.6,398,122.6z"/>
	<path fill="#EF8520" d="M274.3,175.2c0,0-33.1-30.2-7.6-93.6c0.1-0.3,0.2-0.5,0.3-0.8c-22.3,10.3-41.5,28-50.9,51.3
		c-25.6,63.4,7.6,93.6,7.6,93.6c57.7,68.1,137.7,10.9,155.7-7c5.9-5.9,11.6-14.7,15.2-25.7C361.4,210.2,312.9,220.6,274.3,175.2z"/>
	<path fill="#E4801E" d="M255.8,208c0,0-33.1-30.2-7.6-93.6c6-15,16.1-27.6,28.4-37.5c-26.3,9.3-49.7,28.6-60.4,55.2
		c-25.6,63.4,7.6,93.6,7.6,93.6c47.2,55.6,109.1,27.6,140.1,5.8C331.6,244.7,289.9,248.1,255.8,208z"/>
	<g>
		<path fill="#FACFC7" d="M175.1,30.5c0,0,86.7,48.7,91.6,78.3c4.9,29.6-22.1,15.7-34.3-3c0,0-1.6,17.7,8.3,30.8
			c0,0-14.5-0.9-18.9-9.4c0,0,3,12.4,10.6,20.1c0,0-3.4,25.7-22,0.4C191.6,122.4,175.1,30.5,175.1,30.5z"/>
	</g>
	<g>
		<path fill="#E5BFB9" d="M222.5,112.9c3.5,5.4,8.2,10.3,13,14c1.2,3.3,2.9,6.6,5.2,9.7c0,0-10.5-0.6-16.3-6
			C221.7,121.2,222.5,112.9,222.5,112.9z"/>
		<path fill="#E5BFB9" d="M256.7,115.9C253,93.5,202.3,60.1,178,45.2c-1.8-9-2.9-14.8-2.9-14.8s86.7,48.7,91.6,78.3
			c2.3,14.1-2.6,18.3-9.6,16.9C257.5,123.1,257.4,119.9,256.7,115.9z"/>
		<path fill="#E5BFB9" d="M222.4,154.5c-7.6-7.6-10.6-20.1-10.6-20.1c3.5,6.9,13.7,8.8,17.5,9.2c0.9,1.3,2,2.5,3.1,3.7
			c0,0-1.9,14.6-10.8,11C222.1,156.2,222.4,154.5,222.4,154.5z"/>
	</g>
	<path fill="#FFFFFF" d="M322.3,187.7c0,0,6,15.8,14.6,20c8.6,4.2,22.9-1.1,27.6-15.5c4.7-14.4-6.5-33.6-6.5-33.6
		s-4.3,8.2-10.1,11.6C342.1,173.7,328.7,180.6,322.3,187.7z"/>
	<path fill="#1D1D1B" d="M314.5,202.7c1-6.1,3.9-11.9,8-16.7c4.1-4.9,9.8-8,15.1-11c2.7-1.5,5.4-3,7.9-4.6c2.6-1.5,5-3.3,7.2-5.3
		c2.1-2,4.1-4.4,4.8-7.3c0.9-2.8,0.5-5.9-0.2-8.9c1.3,2.8,2,6,1.4,9.2c-0.6,3.2-2.5,6-4.6,8.3c-4.4,4.7-10,7.7-15.3,10.7
		c-5.4,3-10.7,5.9-14.9,10.1c-2.1,2.1-4,4.5-5.5,7.1C316.8,197,315.4,199.7,314.5,202.7z"/>
	<path fill="#1D1D1B" d="M341.1,174.5c0,0-2.1,20.2,7.4,26.4c9.5,6.2,17.4-5.8,18-17.2c0.7-11.6-8.5-25-8.5-25
		S348.6,171.1,341.1,174.5z"/>
	<path fill="#F0F0F0" d="M359.7,237.8c4.2,0.5,8.5-0.1,12.4-1.8c8.7-3.9,24.7-17.9,27.8-31.4c4.3-19-20.5-20-41.1-5.9
		c-9.2,6.3-24.3,16.8-15.6,33.3C344.9,235.4,353.5,237,359.7,237.8z"/>
	<path fill="#E6E6E6" d="M381.7,223.7c-3.9,1.7-8.1,2.3-12.4,1.8c-6.1-0.7-14.7-2.4-16.6-5.8c-3.1-6-3.1-11.1-1.5-15.6
		c-7.8,6.4-14.8,15.4-8.3,27.9c1.8,3.5,10.4,5.1,16.6,5.8c4.2,0.5,8.5-0.1,12.4-1.8c6.9-3.1,18.3-12.4,24.3-22.9
		C391.2,218.1,385.7,222,381.7,223.7z"/>
	<g>
		<path fill="#1D1D1B" d="M380.1,200c0,0,3.8-8.5,11.4-9.2c7.7-0.7,8.5,5.3,8,7.2c-0.5,1.9-1.7,2.2-3.5,4
			C394.1,203.7,382.8,206,380.1,200z"/>
	</g>
	<path opacity="0.8" fill="#FFFFFF" d="M382.2,199c0,0,2.2-3.7,5.1-5.1c2.9-1.3,9.4-1.4,9.4-1.4s0,1.8-5.4,2
		C385.9,194.8,385.3,200,382.2,199z"/>
	<path fill="#1D1D1B" d="M393.8,202.3c1.1,1.6,1.1,3.1,0.9,4.5c-0.2,1.5-0.9,2.7-1.5,3.8c-1.4,2.3-3.4,4-5.3,5.6
		c-1,0.8-2,1.6-3.1,2.3c-1,0.7-2.1,1.4-3.2,2c-2.1,1.3-4.4,2.4-6.6,3.6c2.1-1.4,4.3-2.6,6.3-4.1c1-0.7,2-1.5,3-2.3
		c1-0.8,1.9-1.6,2.8-2.4c1.8-1.7,3.4-3.5,4.5-5.6c0.5-1,0.9-2.1,1-3.2c0.1-1-0.2-2.2-0.6-2.6L393.8,202.3z"/>
	<path fill="#1D1D1B" d="M395,201.8c-0.1,1.5,0,3.1,0.4,4.6c0.4,1.5,1,3,2.6,3.6c-1.7-0.2-3-1.7-3.8-3.2c-0.8-1.5-1.3-3.1-1.7-4.9
		L395,201.8z"/>
	<path fill="#1D1D1B" d="M398.7,163c-1.3,0.6-2.9,1-4.4,0.7c-1.6-0.3-3.1-1.3-4-2.6c-0.9-1.4-1.4-2.9-1.5-4.4
		c-0.1-1.5,0.1-3,0.7-4.4c0.9,2.8,1.5,5.4,2.8,7.3c0.6,1,1.5,1.7,2.6,2.2C395.9,162.4,397.2,162.6,398.7,163z"/>
	<path fill="#1D1D1B" d="M394,162.6c0,0-4.5,26.4,1.3,28.5c0,0,3.9-11.4,3.4-24.1l-0.1-3.9L394,162.6z"/>
	<g opacity="0.78">
		<g>
			
				<ellipse transform="matrix(0.9965 8.328951e-002 -8.328951e-002 0.9965 15.8387 -32.2975)" fill="#FFFFFF" cx="395" cy="173.7" rx="1" ry="7.1"/>
		</g>
	</g>
	<g opacity="0.78">
		<g>
			
				<ellipse transform="matrix(0.9943 -0.1062 0.1062 0.9943 -16.7494 38.978)" fill="#FFFFFF" cx="357.8" cy="176.8" rx="3.5" ry="7.1"/>
		</g>
	</g>
	<path fill="#6E4832" d="M390.6,329.4c4.7-7.8-2.6-21.3-16.1-19.5c-6,0.8-15.2-0.8-23.6-4.9c-6.4,2.9-9,9.8-10,15.1
		c8-2.9,15.6-3,20.6,4.6C372.4,341.4,386,337.2,390.6,329.4z"/>
	<path fill="#6E4832" d="M278.9,424.9c-21.6,0.7-32.7-9.1-33.2-9.7c-9.6-0.3-16.4,1-20.6,2.4c7.2,11.4,59.9,34.8,73.3,28.7
		C313.6,439.4,301.1,424.2,278.9,424.9z"/>
	<path fill="#3A2000" d="M289.9,401.1c21.6,0.7,82-0.5,82-0.5c-5.7-19.8-45.4-10.4-51.8-8.8c0.2-0.1,0.4-0.1,0.7-0.2
		C308.1,394.7,297.2,398.4,289.9,401.1z"/>
</g>
</svg>
