<?xml version="1.0" encoding="utf-8"?>
<!-- Generator: Adobe Illustrator 17.1.0, SVG Export Plug-In . SVG Version: 6.00 Build 0)  -->
<!DOCTYPE svg PUBLIC "-//W3C//DTD SVG 1.1//EN" "http://www.w3.org/Graphics/SVG/1.1/DTD/svg11.dtd">
<svg version="1.1" id="Layer_1" xmlns="http://www.w3.org/2000/svg" xmlns:xlink="http://www.w3.org/1999/xlink" x="0px" y="0px"
	 width="369.3px" height="464.4px" viewBox="0 0 369.3 464.4" enable-background="new 0 0 369.3 464.4" xml:space="preserve">
<g>
	<path fill="#BB6A16" d="M240.1,231.8c0,0,30.9,7,31.5-5.9c0.5-12.9-16.7-33.5-14.4-41.6c2.3-8,13.6-15.1,17.8-9.4
		c4.2,5.7,1.8,13.2-6,13.3c0,0,22.2,26.8,24.4,44.3c2.2,17.5-51.1,32.8-51.1,32.8L240.1,231.8z"/>
	<path fill="#6E4832" d="M268.9,188.2c7.8-0.1,10.2-7.6,6-13.3c-4.2-5.7-15.5,1.4-17.8,9.4c-1.6,5.5,6.1,17,10.9,27.9
		c5.9,2.4,12.7,3.5,16.6-1.4C277.6,198.7,268.9,188.2,268.9,188.2z"/>
	<ellipse fill="#D4D4D4" cx="204.5" cy="364.5" rx="164.8" ry="36.9"/>
	<ellipse fill="#C7C8C8" cx="204.5" cy="364.5" rx="118.2" ry="26.5"/>
	<path fill="#BB6A16" d="M163,297.6c0,0,2.5,11.3-0.7,24.5c-3.2,13.2,6,19.9,4.7,28.4c-1.3,8.5,10.9,5.7,4.1,15
		c-6.8,9.3-130.9,18.9-130.9,18.9l-0.9-21.1c0,0,5.5-14.8,21.4-22.2c15.9-7.4,45.3-13.3,59-20.6C133.4,313.3,158.2,303.7,163,297.6z
		"/>
	<g>
		<path fill="#A76013" d="M232.8,298.2c0,0,34-5.5,31,15.8c-3,21.3-5.9,23.1-5.9,23.1s38.2-7,38.1,5.6c-0.1,12.6-98.4-2.5-98.4-2.5
			l10.3-18.6L232.8,298.2z"/>
	</g>
	<path fill="#3A2000" d="M257.9,337.1c0,0,0.1,0,0.2-0.2c-4.9,2.4-10.4,6.3-14.5,9.3c22.9,2.5,52.5,4.2,52.5-3.5
		C296.1,330.1,257.9,337.1,257.9,337.1z"/>
	<g>
		<path fill="#FF8812" d="M267.1,250.5c-12.1,1.5-13.4-15.2-13.4-15.2c6.7-1.8,6.9-6.4,6.9-6.4c-7.7,1.4-14-1.5-18.7-5.7
			c-4.2-6.7-8.2-12-10.9-15.3l0,0v0c-1.9-2.3-3.1-3.6-3.1-3.6h-40.5c0,0,16.4,22.3,9.1,37.4c-7.3,15-10,38.3-22.8,44.6
			c-12.8,6.4-34.2,33.3-30.1,48.3c4.1,15,7.7,16.4,7.7,16.4s-42.8,15.5-39.2,28.2c3.6,12.8,18.2,6.8,22.3,0
			c4.1-6.8,14.6-14.2,28.2-19.9c13.7-5.6,36.4-8.8,39.6-20.7c3.2-11.8,22.3-3.5,34.6-34.8c8.1-20.6,15.7-31.8,17.5-43.1
			C264.3,259.7,267.1,250.5,267.1,250.5z"/>
	</g>
	<g>
		<path fill="#BB6A16" d="M239.1,218.9c-3.1-4.7-6-8.4-8-10.9l0,0v0c-1.9-2.3-3.1-3.6-3.1-3.6h-40.5c0,0,3.8,5.2,7,12.3
			c13.5,3.5,27.6,6,41.5,6.5C236.9,221.7,238,220.3,239.1,218.9z"/>
	</g>
	<g>
		<g>
			<path fill="#D97A1C" d="M147.5,345.7c0.1,0.2,0.1,0.3,0.2,0.4c0.2-0.1,0.3-0.1,0.3-0.1S147.8,345.9,147.5,345.7z"/>
		</g>
		<g>
			<path fill="#D97A1C" d="M261.8,249.9c-2,2.1-4.9,4.2-9.2,4.7c-1.8,11.5-9.5,22.8-17.7,43.7c-12.5,31.7-31.9,23.2-35.1,35.3
				c-3.2,12-26.3,15.2-40.2,21c-13.9,5.7-24.5,13.2-28.6,20.1c-3.1,5.2-12.1,9.8-18,6.5c4.5,10.3,17.8,4.7,21.6-1.8
				c4.1-6.8,14.6-14.2,28.2-19.9c13.7-5.6,36.4-8.8,39.6-20.7c3.2-11.8,22.3-3.5,34.6-34.8c8.1-20.6,15.7-31.8,17.5-43.1
				c9.8-1.2,12.6-10.4,12.6-10.4C265,250.8,263.3,250.5,261.8,249.9z"/>
		</g>
	</g>
	<g>
		<path fill="#E4801E" d="M172.5,40.5c0,0-42.7-9.4-73.2,7.4C68.9,64.7,11.7,63.1,2.9,57.3c-8.7-5.9,2.6,17.9,26.7,27.9
			c24.1,10,54.8,48.2,70.7,45.2C116.1,127.3,172.5,40.5,172.5,40.5z"/>
	</g>
	<path fill="#744407" d="M2.9,57.3c-8.7-5.9,2.6,17.9,26.7,27.9c3.2,1.3,6.5,3.2,9.9,5.3c7.8-9.7,16.1-21,23.6-31.5
		C36.4,63.2,8.8,61.2,2.9,57.3z"/>
	<g>
		<path fill="#744407" d="M269.6,68.3c0,0,26,21.1,45.6,10.4c19.6-10.8-2.2,25.9-26,28.9C265.4,110.6,269.6,68.3,269.6,68.3z"/>
	</g>
	<g>
		<path fill="#FF8812" d="M281.4,84.4c-3-5.9-6.4-11.6-10.3-16.9c7.3-5,9.6-12.2,9.6-12.2c-11.5,2.4-15-7.9-15-7.9
			c10.2-2.7,15-17,15-17c-11.5,10.3-30,0-30,0c10.5-8.5,7.8-30.4,7.8-30.4c-16.1,26.4-52.4,25.6-64,24.7c-1.2-0.1-2.4-0.3-3.6-0.4
			c0,0-54.7,0-74.1,42.5c-19.4,42.5-34,103.9,23.1,129.4c57.1,25.5,125.7,5.6,136.1-20C286.2,150.6,297.2,115.4,281.4,84.4z"/>
	</g>
	<g>
		<g>
			<path fill="#EF8520" d="M192.7,184.3c-57.1-25.5-42.5-86.9-23.1-129.4c6.5-14.3,17.1-23.8,28.1-30.1c-1.2-0.1-2.3-0.1-3.3-0.2
				c-1.2-0.1-2.4-0.3-3.6-0.4c0,0-54.7,0-74.1,42.5c-19.4,42.5-34,103.9,23.1,129.4c40.4,18.1,86.7,13.3,113.9-0.1
				C233.9,196.6,212.6,193.2,192.7,184.3z"/>
		</g>
		<g>
			<path fill="#EF8520" d="M247.3,12.8c2.6,0.2,6.5,0.4,11.1,0.3c0.8-7,0.1-13.1,0.1-13.1c-3.2,5.3-7.2,9.5-11.7,12.8
				C247,12.8,247.2,12.8,247.3,12.8z"/>
		</g>
	</g>
	<g>
		<path fill="#E4801E" d="M161,183.6c-60.7-27.1-45.2-92.4-24.6-137.7c0.9-2.1,2-4,3.1-5.9c-9,6.2-17.3,14.8-22.8,26.7
			c-19.4,42.5-34,103.9,23.1,129.4c45.5,20.3,98.2,11.8,123.1-5.4C234.1,198.8,195.6,199,161,183.6z"/>
	</g>
	<g>
		<path fill="#FACFC7" d="M134.9,72.3c0,0-13.2-11-32.4-2.9c-19.2,8.1-68.8,5.3-78.1,1.1C15,66.3,47.9,87.2,61,94.5
			c13.2,7.3,31.6,30.4,42.2,24c10.6-6.3,2.4-15.2-10.6-16.8c0,0,8.8-6.2,21.1-2.4c0,0-4.6-14.1-25.2-15.3c0,0,24.8-4.1,35,2.4
			C133.7,92.9,134.9,72.3,134.9,72.3z"/>
	</g>
	<g>
		<g>
			<path fill="#E4BEB7" d="M99.6,103.4c-9-0.7-15,3.5-15,3.5c10.3,1.3,17.6,7.1,14.9,12.6c1.3,0,2.6-0.4,3.8-1.1
				C111.7,113.4,108.1,106.7,99.6,103.4z"/>
		</g>
		<g>
			<path fill="#E4BEB7" d="M35.7,79.1c18.9,1.6,45.7,1.1,58.7-4.4c19.2-8.1,32.4,2.9,32.4,2.9s-0.3,5.2-1.9,9.6
				c8.9,3.7,9.9-14.9,9.9-14.9s-13.2-11-32.4-2.9c-19.2,8.1-68.8,5.3-78.1,1.1C19.4,68.3,26.2,73,35.7,79.1z"/>
		</g>
		<g>
			<path fill="#E4BEB7" d="M103.9,88.3c-10.9-1.1-23.5,0.9-23.5,0.9c11.2,0.6,17.7,5.1,21.2,9c3.3-0.5,7.4-0.5,12,1
				C113.7,99.3,111.6,92.9,103.9,88.3z"/>
		</g>
	</g>
	<g>
		<path fill="#F0F0F0" d="M247.8,158.2c0,0-13.1-1.5-24.3,7.6c-11.1,9.1-16.1,6.9-13.7,17.4c2.3,10.5,30.2,14,47.1,4.7
			c16.9-9.3,19-21.3,11.6-24.6C260.9,160,247.8,158.2,247.8,158.2z"/>
	</g>
	<g>
		<path fill="#D9DADA" d="M260.9,179.9c-16.9,9.3-44.7,5.8-47.1-4.7c-0.2-1-0.3-1.8-0.4-2.6c-3.7,2.4-5,4.1-3.6,10.5
			c2.3,10.5,30.2,14,47.1,4.7c9.9-5.5,14.7-11.9,15.5-16.9C269.8,174,266,177.1,260.9,179.9z"/>
	</g>
	<g>
		<path fill="#1D1D1B" d="M239.5,163.6c0,0,9.3-4.7,19.2-2.3c9.9,2.4,8.5,3.3,6.7,4.9c-1.7,1.6-8.6,6.3-11.9,7.3
			C250.2,174.5,239.4,170.4,239.5,163.6z"/>
	</g>
	<path opacity="0.8" fill="#FFFFFF" d="M242.5,164.6c0,0,4.8-2.7,9.3-2.8c4.4-0.1,12.4,2.4,12.4,2.4s-1,1.8-7.8-0.2
		C249.6,162.1,245.8,166.8,242.5,164.6z"/>
	<path fill="#CDEAFC" d="M252.9,151.5c0,0-0.6-3.3,1.7-2.9c2.4,0.3,2.2,4.3,5.1,4.1c2.9-0.2,15.5-0.6,16.9,3.1
		c1.4,3.7,4.1,6.3,0.3,5.8c-3.9-0.5-1.4-5.9-6.7-5.5c-5.2,0.4-14.1,1.4-15.3-0.7C253.7,153.3,252.9,151.5,252.9,151.5z"/>
	<path fill="#8EB7C8" d="M278.8,160.5c-0.3,0.1-0.8,0.2-1.5,0.1c-3.9-0.5-1.4-5.9-6.7-5.5c-5.2,0.4-14.1,1.4-15.3-0.7
		c-1.2-2.1-2-3.9-2-3.9s-0.1-0.7,0-1.4c-0.7,0.8-0.4,2.5-0.4,2.5s0.8,1.8,2,3.9c1.2,2.1,10,1.1,15.3,0.7c5.2-0.4,2.8,4.9,6.7,5.5
		C278.7,161.9,279.1,161.4,278.8,160.5z"/>
	<path fill="#1D1D1B" d="M257.3,140.1c-0.5,1.4-1,2.7-1.4,4.1c-0.3,1.3-0.5,2.8-0.1,3.8c0.4,1,1.1,1.5,2.3,1.7
		c1.2,0.2,2.5,0.3,3.8,0.1c2.5-0.3,5.2-1.9,8.4-2.1c3.2-0.3,6.3,0.8,8.7,2.5c-2.9-0.6-5.7-1-8.3-0.3c-2.6,0.6-5.1,2.2-8.3,2.7
		c-1.6,0.2-3.2,0.2-4.9-0.3c-0.8-0.2-1.7-0.6-2.4-1.3c-0.7-0.6-1.2-1.6-1.3-2.5c-0.3-1.8,0.3-3.4,1-4.7
		C255.4,142.4,256.2,141.1,257.3,140.1z"/>
	<path fill="#CDEAFC" d="M229.1,150.5c0,0-4.6,6.8-15.7,7.2c-11.1,0.4-4.2,5.8-8.3,7.2c-4,1.4-15.5,0.9-11,5.3
		c2.4,2.4,6.5,3.2,9.8,2.5c-0.6,1.6-0.8,3.5-0.3,5.4c1.6,5.7,2,8,1.3,11.8c-0.7,3.8-2.6,13.5,3.9,13.2c6.5-0.3-1.8-6.5-1.9-13.4
		c-0.2-6.9-1.9-12.8-0.4-15c1.6-2.2,3-5,2.7-7.3c0-0.4-0.1-0.6-0.3-0.8c1.4-4.8,12.3-4.3,17.8-5.1c6-0.8,5.8-4.9,6.9-8.9
		C235,148.7,229.1,150.5,229.1,150.5z"/>
	<g>
		<path fill="#8EB7C8" d="M202.6,171.3c-3.1,0.7-6.9,0-9.3-2.1c0.2,0.3,0.4,0.7,0.8,1c2,2,5.2,2.8,8.1,2.6
			C202.3,172.3,202.5,171.8,202.6,171.3z"/>
		<path fill="#8EB7C8" d="M232.7,150.2c0,0.3,0,0.6-0.1,1.1c-1.2,4-1,8-6.9,8.9c-5.6,0.8-16.5,0.3-17.9,5.1c0.1,0.2,0.2,0.4,0.3,0.8
			c0.3,2.4-1.2,5.2-2.7,7.3c-1.6,2.2,0.2,8.1,0.4,15c0.2,6.9,8.5,13.1,1.9,13.4c-1.1,0.1-1.9-0.2-2.6-0.6c0.7,1.3,1.9,2.1,3.9,2
			c6.5-0.3-1.8-6.5-1.9-13.4c-0.2-6.9-1.9-12.8-0.4-15c1.6-2.2,3-5,2.7-7.3c0-0.4-0.1-0.6-0.3-0.8c1.4-4.8,12.3-4.3,17.8-5.1
			c6-0.8,5.8-4.9,6.9-8.9C234.3,151.1,233.6,150.4,232.7,150.2z"/>
	</g>
	<g>
		<path fill="#FF8812" d="M200.2,464.3c-14.8-10-32.9-25.6-24.3-38.6c13.7-20.7,23.3-31.5,16.3-40c-7-8.5-26.7-3.7-23.7-19.9
			c0.7-3.8,1.7-7.5,2.8-10.9c-27.4-4.6-60.9-6.7-89.1,9.6c-51.8,30-43.2-18.6-15.4-23.2c27.8-4.5,83.5-30.4,96.1-43.8
			c0,0-44.7,28.2-71,29c-26.2,0.7-95.2,46.2-50.3,80.2c30.5,23.1,108.5,59,163.5,57.6C203.6,464.4,201.9,464.4,200.2,464.3z"/>
	</g>
	<g>
		<path fill="#EA821F" d="M151.6,306.3c-0.9-0.2-1.8-0.4-2.7-0.6c8.5-4.6,14.1-8.2,14.1-8.2C160.6,300.1,156.6,303.1,151.6,306.3z"
			/>
		<path fill="#EA821F" d="M187.8,408.1c-42.6,13.1-114-12.1-159-36.4c-4.2,11.6-1.7,23.9,13,35.1c28.8,21.8,99.9,55,154,57.5
			l6.6,0.1L187.8,408.1z"/>
	</g>
	<path fill="#F0F0F0" d="M175.9,425.8c13.7-20.7,23.3-31.5,16.3-40c-7-8.5-26.7-3.7-23.7-19.9c0.7-3.8,1.7-7.5,2.8-10.9
		c22.9,3.8,41.6,9.4,49.3,7.3c16.9-4.6,18.8-37.9,18.8-37.9s46.8,37.5,20.8,107.9c-8.8,24-31.8,32.6-60,32.2
		C185.5,454.4,167.4,438.7,175.9,425.8z"/>
	<path fill="#D7791B" d="M178.2,444.1c-52.8-5.3-118-36.2-145.4-56.8c-2.3-1.7-4.2-3.4-5.9-5.2c0.2,8.4,4.4,16.8,14.8,24.7
		c29.6,22.4,103.5,56.7,158.1,57.6C191.7,458.7,182.9,451.5,178.2,444.1z"/>
	<path fill="#E4E4E4" d="M187.9,408c12.4-4.9,21.9-13.5,26.9-27.1c2.4-6.5,4.2-12.7,5.4-18.6c0.1,0,0.3-0.1,0.5-0.1
		c16.9-4.6,18.8-37.9,18.8-37.9s46.8,37.5,20.8,107.9c-8.8,24-31.8,32.6-60,32.2c-14.8-10-32.9-25.6-24.3-38.6
		C180.5,418.8,184.7,413,187.9,408z"/>
	<path fill="#D7D7D7" d="M223.7,412.6c8.3-22.6,9.2-41.8,6.4-57.4c8.2-11.2,9.3-30.9,9.3-30.9s46.8,37.5,20.8,107.9
		c-8.8,24-31.8,32.6-60,32.2c-8.1-5.5-17.3-12.7-22.4-20.3C199.4,441.7,216.4,432.3,223.7,412.6z"/>
	<path fill="#BA4506" d="M247.1,185.3c-2.5,0.3-4.3-2.5-2.8-4.6c2-2.9,4.9-5.9,8.5-5.9c7,0,7.9,6.7,7.3,8
		C259.7,183.6,252.5,184.6,247.1,185.3z"/>
	<path fill="#9F3D12" d="M252.8,174.8c-0.1,0-0.2,0-0.3,0c4.5,1.5,5.1,6.4,4.5,7.5c-0.4,0.8-6.8,1.7-12,2.4c0.6,0.4,1.3,0.6,2.1,0.5
		c5.3-0.7,12.6-1.7,13-2.5C260.7,181.5,259.8,174.8,252.8,174.8z"/>
	<path fill="#CDEAFC" d="M200.8,175.4c0,0,0,0.2,0,0.6c-0.1,1.4-0.6,5-2.1,6.3c-2,1.7,3.2,6.8,3.5,2.2
		C202.4,179.9,200.8,175.4,200.8,175.4z"/>
	<path fill="#FF8812" d="M202.5,244.1c0,0,38.3-2,34.6-17.2c-3.6-15.2-30.5-33.5-30.4-43.6c0-10.1,10.8-22,17.6-16.8
		c6.7,5.2,6.4,14.7-2.7,17.4c0,0,34.7,23.9,42.9,43.5c8.3,19.6-48.6,55-48.6,55L202.5,244.1z"/>
	<g>
		<path fill="#D0751A" d="M204.6,246c0,0,38.3-2,34.6-17.2c-3.6-15.2-30.5-33.5-30.4-43.6c0-10,10.7-21.9,17.4-16.8
			c-0.6-0.7-1.2-1.3-2-1.9c-6.7-5.2-17.5,6.7-17.6,16.8c0,10.1,26.8,28.4,30.4,43.6c3.6,15.2-34.6,17.2-34.6,17.2L204.6,246z"/>
	</g>
	<path fill="#D0751A" d="M264.6,227.3c-8.3-19.6-42.9-43.5-42.9-43.5c9.1-2.6,9.4-12.2,2.7-17.4c-1.7-1.3-3.7-1.5-5.7-0.9
		c0.2,0.1,0.4,0.2,0.6,0.4c6.7,5.2,6.4,14.7-2.7,17.4c0,0,34.7,23.9,42.9,43.5c6.9,16.4-31.8,43.9-44.6,52.4l1.1,3.2
		C215.9,282.3,272.9,246.9,264.6,227.3z"/>
	<path fill="#4086AA" d="M192.1,98.9c2.3,1.4,4.5,3,6.8,4.6c-1.5-2.1-3.2-4-5.1-5.8c0.8-0.6,1.5-1.1,2.3-1.7
		c2.6-1.9,5.5-3.4,8.4-5.1c-3.3,0.6-6.5,1.6-9.5,3.2c-1.1,0.6-2.2,1.2-3.3,1.9c-2.1-1.7-4.5-3.1-6.9-4.3c2-1.3,4.1-2.5,6.2-3.7
		c-2.9,0.5-5.7,1.4-8.4,2.7c-2.8-1.2-5.8-2.3-8.8-3c-3.3-0.7-6.6-1.2-9.9-1c5.4,1.6,10.6,3.4,15.7,5.6c-2.2,1.3-4.4,2.8-6.4,4.4
		c-0.6,0.6-1.2,1.2-1.9,1.8c0,0-0.1,0-0.1,0c-3.3-0.7-6.6-1.2-9.9-1c2.8,0.8,5.6,1.7,8.3,2.7c-1.2,1.2-2.3,2.5-3.3,3.8
		c-2,2.7-3.8,5.5-5,8.6c3.6-4.1,7.2-7.9,11.1-11.4c2.4,0.9,4.8,1.9,7.2,3c0.6,0.3,1.2,0.6,1.8,0.9c-0.5,0.6-1.1,1.2-1.6,1.9
		c-2,2.7-3.8,5.5-5,8.6c2.9-3.3,5.8-6.4,8.9-9.4c1.5,0.8,3,1.6,4.5,2.5c2.8,1.6,5.4,3.6,8.1,5.5c-1.9-2.7-4.2-5.2-6.9-7.2
		c-1.2-0.9-2.4-1.8-3.7-2.6c0.9-0.9,1.9-1.7,2.9-2.5C189.6,100.8,190.8,99.9,192.1,98.9z M183.1,103.1c-0.8-0.4-1.6-0.9-2.4-1.3
		c-2-0.9-4.1-1.7-6.3-2.3c0.2-0.2,0.4-0.3,0.6-0.5c2.2-2,4.6-3.8,7.1-5.5c0,0,0,0,0.1,0c2.6,1.1,5,2.5,7.5,3.9
		c-1,0.7-2.1,1.5-3.1,2.3C185.4,100.8,184.2,101.9,183.1,103.1z"/>
	<path fill="#1D1D1B" d="M187.4,161.4c8.2-3.8,17.1-5.9,26.1-6.9c4.5-0.5,9.1-0.2,12.7-1.8c0.9-0.4,1.5-1,1.7-1.7
		c0.2-0.8,0.1-1.8-0.3-2.7c-0.7-2-2.1-3.8-3.3-5.7c1.7,1.5,3.3,3.1,4.5,5.1c0.6,1,1.1,2.3,0.9,3.7c-0.2,1.4-1.3,2.6-2.4,3.2
		c-4.5,2.5-9.3,2.1-13.6,2.6c-4.4,0.4-8.8,1.1-13.2,1.8C196.2,159.7,191.8,160.5,187.4,161.4z"/>
	<path fill="#1D1D1B" d="M182,144.6c3.4-2.5,7.2-4.6,11-6.5c3.8-1.8,7.9-3.3,12-4.4c2.1-0.5,4.3-0.7,6.2-1.2c2-0.5,3.8-1.4,5.5-2.6
		c3.3-2.4,5.4-6.3,6.1-10.5c-0.2,4.2-2,8.6-5.5,11.3c-1.7,1.4-3.8,2.3-5.9,2.9c-2.2,0.5-4.2,0.7-6.2,1.3c-4.1,0.9-8,2.4-11.9,4
		C189.6,140.7,185.8,142.6,182,144.6z"/>
	<path fill="#1D1D1B" d="M280.9,135.9c-5.3-2.7-10.6-5.2-16.3-6.6c-1.4-0.4-2.8-0.5-4.4-0.9c-1.5-0.5-2.9-1.2-4.1-2.2
		c-2.4-2.1-3.6-5.2-3.6-8.1c0.6,2.9,2,5.6,4.3,7.3c1.1,0.8,2.4,1.4,3.7,1.8c1.3,0.3,2.9,0.5,4.3,0.8c2.9,0.7,5.7,1.8,8.4,3.2
		C276.1,132.5,278.6,134,280.9,135.9z"/>
	<path fill="#6E4832" d="M224.3,166.5c-6.7-5.2-17.5,6.7-17.6,16.8c0,6,9.6,15,18,24.5c8.1,1.5,16.6,1.5,21.6-3.7
		c-11.9-11.3-24.8-20.2-24.8-20.2C230.7,181.2,231,171.7,224.3,166.5z"/>
</g>
</svg>
