<?xml version="1.0" encoding="utf-8"?>
<!-- Generator: Adobe Illustrator 17.1.0, SVG Export Plug-In . SVG Version: 6.00 Build 0)  -->
<!DOCTYPE svg PUBLIC "-//W3C//DTD SVG 1.1//EN" "http://www.w3.org/Graphics/SVG/1.1/DTD/svg11.dtd">
<svg version="1.1" id="Layer_1" xmlns="http://www.w3.org/2000/svg" xmlns:xlink="http://www.w3.org/1999/xlink" x="0px" y="0px"
	 width="376.6px" height="458px" viewBox="0 0 376.6 458" enable-background="new 0 0 376.6 458" xml:space="preserve">
<g>
	<ellipse fill="#D4D4D4" cx="214" cy="430.1" rx="135.3" ry="28"/>
	<ellipse fill="#C7C8C8" cx="214" cy="430.1" rx="99.3" ry="20.5"/>
	<path fill="#B26615" d="M153,247.7c-8.1-3.6-15.9-6.3-23.5-8.3c-14.3,0.9-37.5,3.7-35.7,13c2.7,13.4,26.7,23.3,19.9,36.2
		c-6.8,12.8-17.5,15.5-15,28.6c0.5,2.5,0.8,5.2,1,8c7.8,7.7,15.9,16.1,24.3,23.3c28.3,24.3,74,35.7,74,35.7l27-5
		C225.1,379,247.4,289.9,153,247.7z"/>
	<path fill="#94560F" d="M201.2,374.9c0,0-45.7-11.4-74-35.7c-10-8.6-19.6-18.8-28.7-27.6c-0.2,1.6-0.2,3.4,0.2,5.5
		c0.5,2.5,0.8,5.2,1,8c7.8,7.7,15.9,16.1,24.3,23.3c28.3,24.3,74,35.7,74,35.7l27-5c0,0,0.8-3.3,1.5-8.8L201.2,374.9z"/>
	<g>
		<path fill="#CA721A" d="M176.8,343.9c0,0-29.2,17.7-24.8,28.3c4.4,10.6,11.2,28.2,29.7,33.5c0,0-59.4-2-60.9,14.1
			c-1.5,16.1,83.3-13.1,95.2-13.1c11.9,0,56.8,19.9,75.8,18c19-1.9,0.5-19-44.3-21.2c0,0,25.3-13.7,25.3-31.3
			c0-17.6-23.4-27.8-23.4-27.8L176.8,343.9z"/>
	</g>
	<g>
		<g>
			<path fill="#A25D12" d="M247.5,399.1c2.2,0.1,4.3,0.3,6.4,0.4c7.5-5.3,18.9-15.4,18.9-27.2c0-0.7-0.1-1.4-0.2-2.1
				C270.5,386.6,247.5,399.1,247.5,399.1z"/>
		</g>
		<g>
			<path fill="#A25D12" d="M291.8,420.2c-19,1.9-63.8-18-75.8-18c-11.2,0-86.9,25.9-94.6,15.5c-0.3,0.7-0.6,1.4-0.6,2.2
				c-1.5,16.1,83.3-13.1,95.2-13.1c11.9,0,56.8,19.9,75.8,18c6.9-0.7,8.8-3.4,6.4-6.6C297.1,419.2,295,419.9,291.8,420.2z"/>
		</g>
		<g>
			<path fill="#A25D12" d="M171.9,401.2c5.9-0.1,9.8,0.1,9.8,0.1c-18.5-5.4-25.3-22.9-29.7-33.5c0-0.1,0-0.1-0.1-0.2
				c-0.5,1.7-0.5,3.3,0.1,4.7C155.5,380.8,160.6,393.6,171.9,401.2z"/>
		</g>
	</g>
	<g>
		<path fill="#DDDDDD" d="M129.5,239.3c-15.7-4.1-30.2-5-43.3-3.4l0,0c0,0-0.1,0-0.3,0c-0.3,0-0.6,0.1-0.9,0.1
			c-9.6,1.2-76.4,10.4-85,30.8c0,0,10.2-11.3,37.5-10.6c-21.2,17.8-29.2,42.9-18.6,58.9c22.6,34.3,54.2,26.1,54.2,26.1
			s-39-19.7-21-37.2c12.7-12.3,29.1,2.6,47.6,20.9c-0.2-2.7-0.6-5.4-1-8c-2.4-13.2,8.3-15.8,15-28.6c6.8-12.8-17.2-22.8-19.9-36.2
			C91.9,243,115.1,240.2,129.5,239.3z"/>
	</g>
	<g>
		<g>
			<path fill="#BFBFBF" d="M99.7,325.1c-0.2-2.7-0.6-5.4-1-8c-0.4-2.2-0.4-4.1-0.2-5.8C76.5,290.6,57,276.9,41.5,292
				c-20.8,20.2,12.1,42.6,25,50.1c4-0.2,6.5-0.8,6.5-0.8s-39-19.7-21-37.2C64.7,291.9,81.2,306.7,99.7,325.1z"/>
		</g>
	</g>
	<g>
		<path fill="#FF8812" d="M171.5,80.9c0,0-5.8-17.5-28.7-28.3C119.8,41.9,92.1,0,92.1,0s-22.9,45.3-8.3,93.5
			c14.6,48.2,43.7,72.5,43.7,72.5L171.5,80.9z"/>
	</g>
	<path fill="#744407" d="M92.1,0c0,0-11.8,23.3-13,54.3C90.9,72.6,102,81.8,102,81.8l22.2-42.9C107.1,22.7,92.1,0,92.1,0z"/>
	<g>
		<path fill="#FF8812" d="M258.7,86.9c0,0,21.3-34.7,60.2-38.3c38.9-3.6,57.7-24.1,57.7-24.1s-27.7,69.9-29.5,94.4
			c-1.8,24.5-45.4,49.9-45.4,49.9L258.7,86.9z"/>
	</g>
	<path fill="#744407" d="M344.8,83.7c0,0,6-3.5,13.6-9.1c8.3-25.3,18.2-50.1,18.2-50.1s-16.5,18-50.7,23.2L344.8,83.7z"/>
	<g>
		<path fill="#FACFC7" d="M92.1,0c0,0,5.4,25.3,15.6,35.1c10.2,9.7,35.6,63.8,31.7,72.1c-3.9,8.3-19.6-8.8-23.4-30.2
			c0,0-3.9,19.5,4.9,39.5c8.8,20,4.4,24.8-7.3,14.1C101.8,119.8,74.1,85.3,92.1,0z"/>
	</g>
	<g>
		<g>
			<path fill="#E4BEB7" d="M115.7,97.4c-3.1-5.4-5.7-12.1-7-19.3c0,0-3.9,19.5,4.9,39.5c3.5,8,4.9,13.5,4.6,16.6
				c8,5.3,10.2-0.7,2.7-17.8C117.9,109.8,116.4,103.3,115.7,97.4z"/>
		</g>
		<g>
			<path fill="#E4BEB7" d="M107.7,35.1C97.4,25.3,92.1,0,92.1,0c-1.2,5.5-2.1,10.9-2.9,16c2.6,7.3,6.4,15.6,11.3,20.3
				c10,9.5,34.5,61.5,31.9,71.5c3.1,2.2,5.7,2.2,7-0.5C143.2,98.9,117.9,44.8,107.7,35.1z"/>
		</g>
	</g>
	<g>
		<path fill="#FACFC7" d="M288.4,101.2c0,0-1.4-13.3,21-27.1C331.7,60.2,369,35.2,369,35.2s-22,54.1-27.2,75.8
			c-5.2,21.6-31.5,44.8-34.2,37.1c-2.8-7.6,3.6-28.5,21.4-45.8c0,0-20.7,0-28.6,12.2C300.4,114.5,289.8,111.8,288.4,101.2z"/>
	</g>
	<g>
		<g>
			<path fill="#E4BEB7" d="M298.9,101.9c0,0-1.4-13.3,21-27.1c13.4-8.3,32-20.5,44.9-29.1c2.5-6.4,4.2-10.6,4.2-10.6
				s-37.3,25.1-59.6,38.9c-22.4,13.8-21,27.1-21,27.1c1.4,10.6,12,13.3,12,13.3c0.9-1.3,1.9-2.5,3-3.6
				C301.3,108.9,299.4,106,298.9,101.9z"/>
		</g>
		<g>
			<path fill="#E4BEB7" d="M339.5,102.9c0,0-6.3,0-13.2,2.1c-15.7,16.7-21.3,35.8-18.7,43c1,2.7,5,1.5,10-2.1
				C316.8,136.7,323.5,118.4,339.5,102.9z"/>
		</g>
	</g>
	<g>
		<g>
			<path fill="#3A2000" d="M222.7,407.8c17.1,4,52.8,18.6,69.2,17c19-1.9,0.5-19-44.3-21.2c0,0,0.1-0.1,0.3-0.1
				C236.8,404.5,227.4,406.6,222.7,407.8z"/>
		</g>
		<g>
			<path fill="#3A2000" d="M181.7,405.8c-0.7,0-59.4-1.9-60.9,14.1c-1.1,11.9,45.1-1,74-8.5C191.8,408.6,186.7,406.9,181.7,405.8z"
				/>
		</g>
	</g>
	<path fill="#FF8812" d="M191.4,407.9c4.3,0.5,11.5,0.9,16.1-0.9c0.2-16-1-34.1-5.8-48c0,0,11.2,11.7,25.3,5.7c0,0-2.3,21.2-2.9,42
		l0,0c3.4,1.1,7.5,1.6,12.9,0.5c0,0,0,0,0,0c-0.3-8.2,1-17.9,5.6-28.2c12.7-28.3,18.1-49.9,10-78.5c-8.1-28.7-9.1-56.1,1.2-68.7
		c10.2-12.6-58.9,4.5-58.9,4.5s5.8,22.9-7.8,45.3c-13.6,22.4-16.1,50.8-7.8,69C184.3,361.7,190.1,388.2,191.4,407.9z"/>
	<path fill="#DF7D1D" d="M237,407.2L237,407.2c-0.3-8.2,1-17.9,5.6-28.2c12.7-28.3,18.1-49.9,10-78.5c-8.1-28.7-9.1-56.1,1.2-68.7
		c2.6-3.2,0.1-4.5-5.1-4.6c-9,13.2-7.8,39.6-0.1,67.1c8.1,28.7,2.6,50.3-10,78.5c-5.9,13.2-6.3,25.4-5,34.8
		C234.7,407.6,235.8,407.4,237,407.2z"/>
	<path fill="#DF7D1D" d="M203.4,408c1.5-0.2,2.9-0.5,4.1-1c0.2-16-1-34.1-5.8-48c0,0,11.2,11.5,25.3,5.7c0.4-4.6,2.2-9,2.2-9
		c-12.7,5.6-31.5-2.8-31.5-2.8C203.3,368.9,204.1,390.4,203.4,408z"/>
	<g>
		<path fill="#BB6A16" d="M251.3,227.4l-56.3,9.3c0.3,1.4,1.4,6.9,1.1,14.5c15.6,2.9,34.2,4.5,50.7,1.2c0.8-8.5,3.1-15.6,7.1-20.5
			C255.9,229.2,254.6,227.9,251.3,227.4z"/>
	</g>
	<g>
		<path fill="#FF8812" d="M300.1,121.3c-6.7-18.7-19.4-33.4-39.5-41.5c3.7-3.9,5.1-8.8,5.1-8.8c-3,3.2-13.4,0-13.4,0
			c4.6-4.8,4.8-16.4,4.8-16.4c-4.8,16.4-29.8,11.2-29.8,11.2c5.1-10.4-5.3-24.7-5.3-24.7c-3,15.4-17.6,27.7-27,34.1
			c-2.6,0.4-5.3,0.8-8,1.3c-43.3,8-56.9,53.7-61.9,76.2c-4.2,18.9,10.6,55,19.8,63.4c47.1,43.4,110.8,38.3,139.3,4.9
			c17.6-20.7,19.7-43.3,20.9-51.8C306.8,158,307.1,141,300.1,121.3z"/>
	</g>
	<g>
		<path fill="#F18620" d="M265.1,72.7c0.4-1.1,0.6-1.8,0.6-1.8c-0.3,0.3-0.7,0.6-1.1,0.8C264.8,72.1,265,72.4,265.1,72.7z"/>
		<path fill="#F18620" d="M256.9,57.9c0.2-2,0.2-3.3,0.2-3.3c-0.2,0.8-0.6,1.6-0.9,2.3C256.5,57.2,256.7,57.5,256.9,57.9z"/>
		<path fill="#F18620" d="M300.1,121.3c-5.7-16-15.9-29.1-31.3-37.6c4.6,16.6,4.2,30.7,2.7,40.5c-1.3,8.5-3.3,31.1-20.9,51.8
			c-25.1,29.4-77.4,36.8-121.8,8.6c4.4,13.9,11.1,26.9,16.1,31.5c47.1,43.4,110.8,38.3,139.2,4.9c17.6-20.7,19.7-43.3,20.9-51.8
			C306.8,158,307.1,141,300.1,121.3z"/>
	</g>
	<g>
		<path fill="#D97A1C" d="M255.2,66c1.9-5.2,1.9-11.4,1.9-11.4c-1.2,4.2-3.8,7-6.9,8.8C252,64.2,253.6,65,255.2,66z"/>
		<path fill="#D97A1C" d="M265,72.9c0.5-1.2,0.7-1.9,0.7-1.9c-0.5,0.5-1.1,0.8-1.8,1C264.3,72.3,264.7,72.6,265,72.9z"/>
		<path fill="#D97A1C" d="M225.9,47.8c-1.8-4-3.8-6.7-3.8-6.7c-0.5,2.4-1.2,4.7-2.2,7C221.7,48.1,223.8,48,225.9,47.8z"/>
		<path fill="#D97A1C" d="M300.1,121.3c-4.2-11.8-10.8-22-20.1-29.9c2,3.6,3.7,7.5,5.2,11.5c7,19.7,6.7,36.7,5,47.9
			c-1.3,8.5-3.3,31.1-20.9,51.8c-27.2,32-86.7,38-133,0.4c3,6,6.1,10.7,8.7,13.2c47.1,43.4,110.8,38.3,139.2,4.9
			c17.6-20.7,19.7-43.3,20.9-51.8C306.8,158,307.1,141,300.1,121.3z"/>
	</g>
	<g>
		<g>
			<path fill="#FFFFFF" d="M158.1,162.2c0,0-4.1-35.7,24.9-35.7c18.8,0,17.5,33.5,17.5,33.5L158.1,162.2z"/>
		</g>
		<g>
			<path fill="#1D1D1B" d="M156.9,162.4c-0.5-7.9,0.3-15.8,3.6-23.1c1.7-3.6,4.2-6.9,7.4-9.2c3.3-2.3,7.1-3.7,11.1-4.1
				c1-0.1,2-0.2,2.9-0.2c1-0.1,2,0,3,0.1c2,0.3,4,1,5.6,2.1c3.4,2.2,5.5,5.8,6.9,9.3c2.7,7.3,3.4,15.1,3.2,22.7
				c-0.1-7.6-1-15.4-4-22.4c-1.5-3.4-3.7-6.7-6.8-8.6c-1.6-0.9-3.3-1.5-5.1-1.7c-0.9,0-1.8-0.1-2.7,0c-0.9,0-1.9,0.1-2.8,0.2
				c-3.7,0.5-7.2,1.8-10.1,4c-2.9,2.2-5.1,5.2-6.6,8.6c-3,6.8-3.6,14.6-3,21.9L156.9,162.4z"/>
		</g>
	</g>
	<g>
		<g>
			<path fill="#FFFFFF" d="M240.6,163.3c0,0-0.2-36,28.7-32.8c18.7,2.1,14.4,36.7,14.4,36.7L240.6,163.3z"/>
		</g>
		<g>
			<path fill="#1D1D1B" d="M239.3,163.3c0.1-4.1,0.7-8,1.7-11.8c1-3.9,2.5-7.6,4.6-11c2.2-3.4,5.1-6.4,8.7-8.3
				c3.6-2,7.7-2.7,11.7-2.6c2,0.1,4,0.2,6,0.8c2,0.6,3.8,1.7,5.2,3.1c2.9,2.9,4.5,6.7,5.5,10.5c1.9,7.7,1.8,15.6,0.9,23.3
				c0.6-7.7,0.4-15.6-1.7-23.1c-1.1-3.7-2.8-7.3-5.6-9.8c-1.4-1.2-3-2.1-4.8-2.6c-1.7-0.5-3.7-0.6-5.6-0.6c-3.8,0-7.6,0.8-10.8,2.6
				c-3.3,1.8-5.9,4.6-7.8,7.8c-3.8,6.5-5.4,14.3-5.5,21.8L239.3,163.3z"/>
		</g>
	</g>
	<g>
		<path fill="#1D1D1B" d="M176.6,127.2c0,0-11.4,31.5,5.9,32.8c17.3,1.3,14.6-22.4,14.6-22.4S192.5,122.8,176.6,127.2z"/>
	</g>
	<g>
		<path fill="#1D1D1B" d="M260.8,131.1c0,0-11.4,31.5,5.9,32.8c17.3,1.3,14.6-22.4,14.6-22.4S276.7,126.7,260.8,131.1z"/>
	</g>
	<g>
		<path fill="#1D1D1B" d="M238.8,134.6c1.1-3.2,2.9-6.2,5.1-8.8c2.2-2.6,4.9-4.9,8.1-6.4c3.2-1.5,6.6-2.1,10-2.1
			c1.7-0.2,3.4,0.2,5.1,0.2c1.6,0.4,3.4,0.5,5,1c6.7,1.6,12.8,6,16.3,12.1c3.5,6.1,4.9,13.1,4.2,19.8l-0.2,0
			c-0.9-6.6-2.9-13-6.2-18.4c-1.6-2.8-3.8-5.2-6.2-7.2l-1.9-1.5c-0.6-0.5-1.4-0.8-2-1.3c-1.4-0.9-2.9-1.5-4.4-2.2
			c-1.5-0.6-3.1-1-4.7-1.4c-1.6-0.1-3.3-0.5-4.9-0.2c-3.3,0.2-6.4,1.5-9.1,3.1c-5.6,3.2-10.1,8-13.9,13.5L238.8,134.6z"/>
	</g>
	<g>
		<path fill="#1D1D1B" d="M151.2,143.2c0.3-6.6,1.9-13.3,5.2-19.2c1.6-3,3.9-5.7,6.5-7.9c2.7-2.2,6-3.6,9.4-4.3
			c1.7-0.2,3.5-0.4,5.2-0.4c1.7,0.1,3.4,0.1,5.1,0.4c3.4,0.4,6.7,1.3,9.8,2.7c6.2,2.7,11.6,7.6,14.1,13.8c-1.7-2.9-3.9-5.3-6.4-7.3
			c-2.5-2.1-5.3-3.6-8.4-4.7c-3-1-6.1-1.9-9.3-2.1c-1.6-0.3-3.2-0.2-4.8-0.3c-1.6,0-3.1,0.2-4.7,0.4c-3,0.7-6,1.8-8.4,3.8
			c-2.5,1.9-4.6,4.3-6.3,7C154.6,130.4,152.5,136.7,151.2,143.2z"/>
	</g>
	<g>
		<path fill="#F0F0F0" d="M177.2,188.1c-6.3-13.1,1.2-29.2,15.5-31.8c0.6-0.1,1.3-0.2,2-0.3c16.2-1.7,52.6-4.6,61.2,7.3
			c6,8.4,5.6,15.9,5.6,15.9s-4.2,25.9-25.4,31.9c-21.1,6-39.1,0-45.6-5.9C183.7,199.1,179.6,193.2,177.2,188.1z"/>
	</g>
	<g opacity="6.000000e-002">
		<path fill="#1A1A19" d="M255.8,163.4c-1.4-2-3.7-3.6-6.5-4.9c-2.5,7.9-9,22.2-24,26.4c-21.1,6-39.1,0-45.6-5.9
			c-2.3-2.1-4.4-4.3-6.1-6.5c0.7,7.5,3.9,21.2,16.8,32.8c6.5,5.9,24.5,11.9,45.6,5.9c21.1-6,25.4-31.9,25.4-31.9
			S261.8,171.8,255.8,163.4z"/>
	</g>
	<g opacity="6.000000e-002">
		<path fill="#150C00" d="M256.3,164.2c0.3,1.9,0.2,3,0.2,3s-4.2,25.9-25.4,31.9c-21.1,6-39.1,0-45.6-5.9
			c-4.7-4.3-8.2-8.9-10.6-13.3c1.9,7.5,6.1,17,15.5,25.4c6.5,5.9,24.5,11.9,45.6,5.9c21.1-6,25.4-31.9,25.4-31.9
			S261.7,172.3,256.3,164.2z"/>
	</g>
	<g>
		<path fill="#1D1D1B" d="M220.4,177c0,0-14.7-5.9-14.3-9.8c0.4-3.8,20.7-6.1,28.9,0C243.3,173.4,220.4,177,220.4,177z"/>
	</g>
	<g>
		<path fill="#1D1D1B" d="M186.7,178.6c0.9,3.7,4,6.6,7.4,7.9c3.5,1.4,7.3,1.6,11,1.3c3.7-0.3,7.5-1,10.4-3c1.4-1,2.6-2.3,3.1-3.9
			c0.6-1.5,0.6-3.4,0.1-4.8l2.4-0.7c0.5,2.2,0.3,4.4-0.5,6.4c-0.8,2-2.4,3.6-4.1,4.7c-3.6,2.1-7.6,2.6-11.4,2.7
			c-3.8,0.1-7.8-0.4-11.3-2C190.4,185.5,187.5,182.4,186.7,178.6z"/>
	</g>
	<g>
		<path fill="#1D1D1B" d="M221.9,176c-0.4,3.3,0.3,7.1,2.6,9.6c2.3,2.6,6,3.4,9.7,3.5c3.7,0.2,7.5,0.1,10.8-1.4
			c3.4-1.5,5.8-4.6,8-7.5c-2.1,3-4.3,6.3-7.8,8.1c-3.5,1.7-7.4,2.1-11.1,2.1c-3.7,0.1-8-0.5-11-3.5c-1.5-1.4-2.5-3.3-3.1-5.2
			c-0.6-2-0.8-3.9-0.7-6L221.9,176z"/>
	</g>
	<g opacity="0.78">
		<g>
			<ellipse fill="#FFFFFF" cx="273.3" cy="141.2" rx="4" ry="5.9"/>
		</g>
	</g>
	<g opacity="0.78">
		<g>
			<ellipse fill="#FFFFFF" cx="188.2" cy="137.3" rx="4" ry="5.9"/>
		</g>
	</g>
	<g opacity="0.8">
		<path fill="#FFFFFF" d="M209.6,167.2c0,0,3.8-3.8,11.8-2.6c7.9,1.2,12.1,3.1,12.4,4.7c0.4,1.6-8-3.3-14.3-2.5
			C213.4,167.6,210.7,169.3,209.6,167.2z"/>
	</g>
	<g>
		<g>
			<path fill="#6E4832" d="M204.6,445.3c0,0,2.7-17.4,2.9-38.3c-4.6,1.8-11.9,1.3-16.1,0.9c0.9,12.7-0.1,22.5-4.3,23.6
				c0,0-15.1-3.2-15.6,9.4C171,453.6,204.6,445.3,204.6,445.3z"/>
		</g>
		<g>
			<path fill="#6E4832" d="M250.4,443.3c5.4-6.3,0.5-14.9-7.8-11.9c0,0-5.1-9.8-5.6-24.3c-5.3,1.1-9.5,0.5-12.9-0.5
				c-0.5,15.4,0,30.5,2.9,36.7C227,443.3,245.1,449.7,250.4,443.3z"/>
		</g>
	</g>
</g>
</svg>
