<?xml version="1.0" encoding="utf-8"?>
<!-- Generator: Adobe Illustrator 17.1.0, SVG Export Plug-In . SVG Version: 6.00 Build 0)  -->
<!DOCTYPE svg PUBLIC "-//W3C//DTD SVG 1.1//EN" "http://www.w3.org/Graphics/SVG/1.1/DTD/svg11.dtd">
<svg version="1.1" id="Layer_1" xmlns="http://www.w3.org/2000/svg" xmlns:xlink="http://www.w3.org/1999/xlink" x="0px" y="0px"
	 width="506.1px" height="581.8px" viewBox="0 0 506.1 581.8" enable-background="new 0 0 506.1 581.8" xml:space="preserve">
<g>
	<ellipse fill="#D4D4D4" cx="269.9" cy="427.9" rx="236.2" ry="38.2"/>
	<ellipse fill="#C7C8C8" cx="269.9" cy="427.9" rx="176" ry="28.4"/>
	<g>
		<path fill="#FF8812" d="M43.4,553.2c2.9-9.9,9.4-20.1,24-19.5c27.8,1.1,13.9-5.9,26.5-30c3.8-7.2,9.9-12,16.6-15.1
			c-3.2-5.5-5.4-12.4-6-20.9c-3.9-56.6,82.3-45.8,82.3-45.8l-5.8-16.7c0,0-112.4-25.5-150.4,24.4c-33.6,44.1-21,93.6,13,123.9
			C45.2,554.8,43.6,553.4,43.4,553.2z"/>
	</g>
	<path fill="#DB7B1C" d="M118.2,434.6c23.5-18.3,68.6-12.7,68.6-12.7l-5.8-16.7c0,0-2.7-0.6-7.4-1.5
		C152.6,405,125.1,411.3,118.2,434.6z"/>
	<path fill="#BB6A16" d="M206.1,291.3c0,0,5.2,39.3-5.8,58.6c-11,19.3-29.9,72.5-13.9,78.7c16,6.2,66.3,0.8,86.6,4.2
		c20.4,3.4,53.1,4.1,48.8-3.9c-4.4-8,20.4-17.1,53.9-16.5c33.5,0.5,33.5,5.2,34.9-5.1c1.5-10.3,4.4-69.3-13.8-73
		c-18.2-3.6,0,56.5,0,56.5s-25.6-35.7-66.7-27.5c-41.1,8.2-73.8-83.7-73.8-83.7L206.1,291.3z"/>
	<g>
		<path fill="#AD6314" d="M325.2,421.8c-10.5,1-26.4-0.1-38.2-2.1c-20.4-3.4-70.6,2-86.6-4.2c-16-6.2,2.9-59.3,13.9-78.7
			c7.6-13.3,7.4-36.1,6.6-49l-14.7,3.4c0,0,5.2,39.3-5.8,58.6c-11,19.3-29.9,72.5-13.9,78.7c16,6.2,66.3,0.8,86.6,4.2
			c20.4,3.4,53.1,4.1,48.8-3.9C320.6,426.6,321.9,424.1,325.2,421.8z"/>
		<path fill="#AD6314" d="M389.6,399.3c-33.5-0.5-58.2,8.6-53.9,16.5c0.2,0.4,0.3,0.8,0.4,1.1c9.8-3,23.7-4.9,39.7-4.6
			c33.5,0.5,33.5,5.2,34.9-5.1c0.2-1.4,0.4-3.8,0.6-6.8C406.4,400,399.5,399.5,389.6,399.3z"/>
	</g>
	<g>
		<path fill="#FF8812" d="M318.8,280.1c-0.1,0.1-0.3,0.3-0.5,0.5C318.5,280.4,318.6,280.3,318.8,280.1z"/>
		<path fill="#FF8812" d="M318.8,280.1c0.2-0.2,0.3-0.3,0.3-0.3C319,279.9,318.9,280,318.8,280.1z"/>
		<path fill="#FF8812" d="M360.6,425.7c-10.9-4.9-37.7-87.8-52.5-110c-1.4-2.1-2.8-4.2-4.3-6.4c5.7-3.1,8.8-11.4,8.8-11.4
			c-7.6,2.8-14.8-5.2-14.8-5.2c9.1-1.1,17.9-9.5,20.5-12.1c-6.3,5.6-25.6,0.8-35.4-2.2c-4.1-6.1-6.9-10.2-6.9-10.2l-52.7,22.9
			c0,0,5,51.4,9.4,82.6c4.4,31.2-5.1,67-5.1,67s-22.2-8.2-26.6,9.1c-4.4,17.3,13.1,12.5,28.4,10.4c15.3-2.1,17.5-21.9,23.3-55.9
			c5.8-34,32.8-59.9,49.5-33.7c16.7,26.2,32,51,34.2,68.7c2.2,17.8,41.2,15.6,42-0.2C379.2,423.5,371.5,430.5,360.6,425.7z"/>
	</g>
	<g>
		<path fill="#D5781B" d="M229.9,430.4c4.3-0.9,8.3,1.2,8.3,1.2s8.1-33.8,4.5-65.1c-3-26.2-8.3-62.6-9.9-73.8l-10.6,4.3
			c0,0,6.9,45.9,10.4,77.3C235.1,395.7,232.1,418.2,229.9,430.4z"/>
		<path fill="#D5781B" d="M346.4,431.4c-2.2-17.8-17.5-42.5-34.2-68.7c-10-15.6-23.6-12.7-34.2-0.6c8.3-4.2,17.2-2.5,24.3,8.6
			c16.7,26.2,32,51,34.2,68.7c2.1,16.9,37.3,15.8,42,2C364.2,446.5,347.9,444,346.4,431.4z"/>
		<path fill="#D5781B" d="M239.3,452.3c-15.3,2.1-32.8,6.9-28.4-10.4c0.4-1.4,0.3-1.5,0.8-2.7c-4,0.2-8.3,1.4-10.7,10.7
			c-4.4,17.3,13.1,12.5,28.4,10.4c5.3-0.7,9-3.6,11.8-8.4C240.6,452.1,240,452.3,239.3,452.3z"/>
	</g>
	<path fill="#BB6A16" d="M289.9,280.3c0,0-19.1,41.2-64.4,39.6l-3.3-23l51.9-21.4L289.9,280.3z"/>
	<path fill="#BB6A16" d="M204.4,118.8c0,0,58.7-87,53.9-118.7c0,0,11.5-1.5,13.6,9.2c2.1,10.7,44.9,104,16.8,132.5
		C260.6,170.3,204.4,118.8,204.4,118.8z"/>
	<path fill="#AA6214" d="M272,9.3c-2.1-10.7-13.6-9.2-13.6-9.2c0.1,0.5,0.1,1,0.1,1.5c7.4,21.5,41.3,102,15.4,128.1
		c-19,19.3-50.7,2.1-69.3-11.2c-0.1,0.1-0.1,0.2-0.1,0.2s56.1,51.5,84.3,23C316.9,113.2,274.1,20,272,9.3z"/>
	<path fill="#FF8812" d="M239.5,104.6c-19.4-5.1-36.5-2.2-50.1,3.2c0-7.6-0.7-23.8-6.7-32.6c0,0-5.1,26.1-10.9,29.4
		c0,0-8-9.5-13.8-13.7c0,0,4.4,15.5,0,21c-4.4,5.5-31.9,4-38.5,0c0,0,5.4,13.6,18.8,17.7c8,2.5-4.7,10.9-16.9,17.1
		c-14.8-2.4-34.5-3.7-57.2-0.4C13.9,153.3,0,170.5,0,170.5s84.5,73.8,131.2,76.4c3.9,9.8,8,20,10.9,31.3
		c8.7,34.2,66.6,32.4,109.3,17.7c42.7-14.7,74.2-66.2,78.5-102.4C334.3,157.3,288.4,117.3,239.5,104.6z"/>
	<g>
		<path fill="#E6801E" d="M280.3,247.8C237.6,262.4,179.7,264.3,171,230c-2.9-11.3-7-21.5-10.9-31.3c-28.7-1.6-71.6-30.1-100.4-51.8
			C13,154.4,0,170.5,0,170.5s84.5,73.8,131.2,76.4c3.9,9.8,8,20,10.9,31.3c8.7,34.2,66.6,32.4,109.3,17.7
			c34-11.7,60.9-46.8,72.7-78.9C311.7,230.8,296.9,242.1,280.3,247.8z"/>
		<path fill="#E6801E" d="M158.1,90.9c0,0,0.3,1.2,0.7,2.9c0.6-0.3,1.1-0.7,1.7-1C159.6,92.1,158.8,91.5,158.1,90.9z"/>
	</g>
	<g>
		<path fill="#D57819" d="M159.9,92.3c-0.6-0.5-1.2-1-1.8-1.4c0,0,0.2,0.7,0.4,1.7C159,92.5,159.4,92.4,159.9,92.3z"/>
		<path fill="#D57819" d="M257.4,274.2c-42.7,14.7-100.6,16.5-109.3-17.7c-2.9-11.3-7-21.5-10.9-31.3C101.3,223,43,178.9,18,158.7
			c-13.4,6.2-18,11.8-18,11.8s84.5,73.8,131.2,76.4c3.9,9.8,8,20,10.9,31.3c8.7,34.2,66.6,32.4,109.3,17.7
			c41.4-14.2,72.3-63.1,78.1-99.1C317.4,228.5,290.8,262.7,257.4,274.2z"/>
	</g>
	<path fill="#F0F0F0" d="M242.5,223.1c0,0-8.7,2.8-13.8,20.2c-5.1,17.4,8.7,38.5,27.7,36.3c18.9-2.2,48.8-21.7,39.7-46.8
		C286.9,207.6,252.5,212.6,242.5,223.1z"/>
	<path fill="#D8D8D8" d="M259.4,268c-17,2-29.8-14.7-28.6-30.7c-0.7,1.8-1.5,3.8-2.1,6c-5.1,17.4,8.7,38.5,27.7,36.3
		c16.3-1.9,40.7-16.6,41.3-36.7C290.5,256.9,272.4,266.5,259.4,268z"/>
	<path fill="#BA4506" d="M238.9,253.4c0,0-8.4,20.8,6.5,20.8c15,0,12.8-26.9,12.8-26.9S253,252.6,238.9,253.4z"/>
	<polygon fill="#782E00" points="248.8,252 245.4,268.2 246,251.6 	"/>
	<path fill="#1D1D1B" d="M243.3,235.5c0,0,2.5-8.3,14.9-13c12.4-4.7,0,15.3,0,15.3S250.2,241.2,243.3,235.5z"/>
	<path fill="#1D1D1B" d="M259.3,237c1,1.6,1.6,3.3,1.8,5.2c0.2,1.9-0.5,3.9-1.7,5.3c-1.2,1.4-2.8,2.3-4.4,2.9
		c-1.6,0.6-3.2,1-4.8,1.4c-6.4,1.5-12.9,2.3-19.4,2.4c6.5-0.6,12.9-1.8,19-3.7c3-1,6.3-2,7.9-4.3c1.7-2.2,0.9-5.4-0.7-7.6L259.3,237
		z"/>
	<path fill="#1D1D1B" d="M257.6,234.8c1,1.7,2.6,3.4,4.5,4.1c1.9,0.8,4.1,0.4,6-0.9c1.9-1.2,3.6-2.8,5-4.6c1.5-1.8,2.7-3.8,4-5.8
		c-2.1,4.2-4.4,8.5-8.3,11.6c-1.9,1.5-4.7,2.5-7.4,1.7c-2.7-0.7-4.7-2.4-6.3-4.6L257.6,234.8z"/>
	<g>
		
			<ellipse transform="matrix(0.7655 -0.6434 0.6434 0.7655 -108.5777 183.6031)" fill="#FFFFFF" cx="197.6" cy="240.8" rx="22.3" ry="27"/>
		<path fill="#1D1E1B" d="M214.5,226.5c-8.2-10-23.9-13.2-33.6-5.6c-4.8,3.7-7.5,10.1-7.2,16.5c0.3,6.4,3.1,12.5,7.4,17.2
			c4.3,4.6,9.8,8.1,15.8,9.4c6,1.3,12.5,0.2,17-3.7c4.6-3.8,6.9-10,6.9-16.2C221,237.9,218.7,231.5,214.5,226.5z M214.8,226.4
			c4.1,5,7.3,11,8,17.7c0.8,6.6-1.4,14-6.9,18.6c-2.7,2.2-6,3.8-9.4,4.4c-3.4,0.6-6.9,0.4-10.2-0.4c-6.6-1.6-12.4-5.7-16.4-10.9
			c-4-5.2-6.6-11.5-7.1-18.1c-0.2-3.3,0.1-6.6,1.1-9.8c1.1-3.2,2.9-6.2,5.5-8.5c5.2-4.7,12.9-5.7,19.2-3.8
			C205.2,217.3,210.6,221.5,214.8,226.4z"/>
	</g>
	
		<ellipse transform="matrix(0.7655 -0.6434 0.6434 0.7655 -107.4393 189.7937)" fill="#1D1E1B" cx="206.7" cy="242.3" rx="14" ry="17"/>
	<g>
		
			<ellipse transform="matrix(0.7655 -0.6434 0.6434 0.7655 -57.5388 214.6777)" fill="#FFFFFF" cx="265.8" cy="186.3" rx="20.6" ry="25"/>
		<path fill="#1D1E1B" d="M281.4,173.1c-7.6-9.2-22.1-12-31-5.1c-4.4,3.4-6.9,9.3-6.7,15.1c0.2,5.9,2.9,11.5,6.8,15.8
			c4,4.3,9.1,7.4,14.6,8.6c5.5,1.2,11.4,0.2,15.7-3.4c4.3-3.5,6.3-9.1,6.4-14.9C287.3,183.6,285.2,177.7,281.4,173.1z M281.6,173
			c3.8,4.6,6.8,10.1,7.5,16.3c0.8,6.1-1.3,13-6.3,17.2c-2.5,2.1-5.5,3.5-8.7,4c-3.2,0.6-6.4,0.4-9.5-0.4
			c-6.1-1.5-11.4-5.3-15.2-10.2c-3.7-4.9-6.1-10.7-6.6-16.8c-0.2-3,0-6.1,1-9.1c1-2.9,2.7-5.7,5.1-7.9c4.8-4.3,12-5.3,17.9-3.5
			C272.8,164.6,277.7,168.4,281.6,173z"/>
	</g>
	
		<ellipse transform="matrix(0.7655 -0.6434 0.6434 0.7655 -62.7051 215.5968)" fill="#1D1E1B" cx="264.5" cy="193.8" rx="13" ry="15.7"/>
	<g opacity="0.78">
		<g>
			<g>
				
					<ellipse transform="matrix(0.6593 -0.7519 0.7519 0.6593 -105.1183 239.1448)" fill="#FFFFFF" cx="211.3" cy="235.6" rx="4.2" ry="6.3"/>
			</g>
		</g>
	</g>
	<g opacity="0.78">
		<g>
			<g>
				
					<ellipse transform="matrix(0.6594 -0.7518 0.7518 0.6594 -60.5812 262.39)" fill="#FFFFFF" cx="259.3" cy="198.1" rx="3.9" ry="5.9"/>
			</g>
		</g>
	</g>
	<path fill="#744407" d="M0,170.5c0,0,18.6,16.2,43.2,33.8c6-15.1,7.6-36.6,2.7-54.7C10.4,157.7,0,170.5,0,170.5z"/>
	<g>
		<path fill="#FACFC7" d="M7.7,170.6c0,0,90.8-19.3,112.4-1.5c21.7,17.7-5.8,24.6-25.9,19c0,0,9.8,13.4,24.8,16.5
			c0,0-10.7,8.4-19,5.1c0,0,9.7,6.9,19.8,7.5c0,0,13.5,20.1-15.2,13.8C75.8,224.9,7.7,170.6,7.7,170.6z"/>
	</g>
	<g>
		<path fill="#E5BFB9" d="M91.6,199.3c5.8,1.6,12.1,2.2,17.8,1.8c2.9,1.6,6.1,2.9,9.6,3.6c0,0-7.7,6-15.2,5.8
			C96.2,205.5,91.6,199.3,91.6,199.3z"/>
		<path fill="#E5BFB9" d="M117.5,180.3c-16.4-13.5-72.5-5.6-98.7-1.1c-6.8-5.2-11.1-8.6-11.1-8.6s90.8-19.3,112.4-1.5
			c10.3,8.4,9.5,14.4,3.6,17.8C122.4,184.9,120.4,182.7,117.5,180.3z"/>
		<path fill="#E5BFB9" d="M117.1,228.5c-10-0.6-19.8-7.5-19.8-7.5c6.7,2.6,15-2.3,17.9-4.3c1.4,0.3,2.9,0.6,4.4,0.7
			c0,0,7.6,11.4-0.9,14.4C118,229.8,117.1,228.5,117.1,228.5z"/>
	</g>
	<path opacity="0.69" fill="#F0F0F0" d="M247.4,235.5c0,0,0.2-5.9,4.4-8.4c4.2-2.6,8.8-5.3,9.2-3c0.4,2.3-10,3.6-10.1,6.2
		C250.8,233,250,235.9,247.4,235.5z"/>
	<path fill="#1D1D1B" d="M156.9,238.6c-2.8-6-4.1-12.7-3.5-19.4c0.2-3.4,1.3-6.7,2.7-9.8c1.5-3.1,3.6-5.8,6.1-8.2
		c4.9-4.7,12-7.6,18.8-6.9c6.8,0.5,13.2,3.3,18.3,7.5c-2.9-1.6-5.9-2.9-9-3.8c-3.1-1-6.2-1.5-9.4-1.5c-3.1,0-6.3,0.5-9.1,1.7
		c-1.5,0.5-2.8,1.3-4.1,2.1c-1.3,0.9-2.5,1.9-3.6,2.9c-2.3,2.2-4.2,4.6-5.6,7.4c-1.4,2.8-2.4,5.8-2.9,8.9c-0.5,3.1-0.6,6.4-0.3,9.6
		C155.4,232.2,156,235.4,156.9,238.6z"/>
	<path fill="#1D1D1B" d="M230.4,191.3c-2.9-6.2-4.2-13.2-3.6-20.2c0.3-3.5,1.3-7,2.8-10.2c1.5-3.2,3.8-6.1,6.3-8.6
		c5.1-4.9,12.5-7.8,19.6-7.2c7.1,0.5,13.7,3.4,19,7.7c-3-1.7-6.1-3-9.3-4c-3.2-1-6.5-1.6-9.8-1.6c-3.3,0-6.5,0.5-9.5,1.8
		c-1.5,0.5-2.9,1.4-4.3,2.2c-1.3,0.9-2.6,1.9-3.8,3c-2.3,2.2-4.4,4.8-5.9,7.7c-1.5,2.9-2.5,6-3,9.3c-0.5,3.3-0.6,6.6-0.3,10
		C228.8,184.7,229.4,188,230.4,191.3z"/>
	<path fill="#744407" d="M289.2,60c-7.2-24.6-16.3-46-17.3-50.8c-2.1-10.7-13.6-9.2-13.6-9.2c1.6,10.3-3.6,26.4-11.2,43.4
		C259.1,51.4,274.8,59.6,289.2,60z"/>
	<path fill="#F0F0F0" d="M200.4,505c0,0,0.7,29.5-20.1,21.8c-20.8-7.6,0-18.6,0-18.6s-51.8,11.5-69.8-19.7
		c-6.6,3.1-12.7,7.9-16.6,15.1c-12.7,24.1,1.3,31.1-26.5,30c-14.6-0.6-21.1,9.6-24,19.5c26.7,23.9,66.6,35.9,107.5,23.9
		C243.6,549.8,200.4,505,200.4,505z"/>
	<g>
		<path fill="#DB7B1C" d="M56.8,536.7c-31.1-27.1-45-70.2-22.9-111c-1.1,1.2-2.2,2.5-3.3,3.9c-33.6,44-21,93.4,12.8,123.7
			C45.6,546.4,49.6,539.7,56.8,536.7z"/>
	</g>
	<path fill="#D8D8D8" d="M157.3,554.5c-37.8,11.1-74.7,1.7-101.1-18.6c-7,3.4-10.8,10.5-12.8,17.3c26.7,23.9,66.6,35.9,107.5,23.9
		c52.5-15.4,61.4-36.5,59.2-51.8C202.4,535.4,186.7,545.8,157.3,554.5z"/>
	<path fill="#6E4832" d="M232.7,409.9c0,0,10.7-3.9,18.9,1c0,0-4,31.4-10.4,41c-6.4,9.6-10.3,10.4-29.1,10.7
		c-18.7,0.3-10.7-11.9-9-18.3c1.6-6.4,13.5-7.5,24.5-3.5C227.6,440.8,231.9,421.4,232.7,409.9z"/>
	<path fill="#6E4832" d="M324.3,407.3c0,0,3.1-10.2,20-9.8c0,0,9.1,20,11.7,23.3c2.6,3.4,4.7,5.9,14.7,7c10,1.1,8.8,6.7,8.2,12.3
		c-0.6,5.6-9.1,13-24,11.8c-14.9-1.3-18.2-6.7-19.2-14.5C334.7,429.6,324.3,407.3,324.3,407.3z"/>
	<path fill="#3A2000" d="M396.9,334.3c-17.4-3.5-1.6,51-0.1,56.1c4.8,7.6,10,15.8,13.2,20.9c0.3-1,0.5-2.3,0.8-4
		C412.2,396.9,415.1,337.9,396.9,334.3z"/>
</g>
</svg>
