<?xml version="1.0" encoding="utf-8"?>
<!-- Generator: Adobe Illustrator 17.1.0, SVG Export Plug-In . SVG Version: 6.00 Build 0)  -->
<!DOCTYPE svg PUBLIC "-//W3C//DTD SVG 1.1//EN" "http://www.w3.org/Graphics/SVG/1.1/DTD/svg11.dtd">
<svg version="1.1" id="Layer_1" xmlns="http://www.w3.org/2000/svg" xmlns:xlink="http://www.w3.org/1999/xlink" x="0px" y="0px"
	 width="424.8px" height="460.2px" viewBox="0 0 424.8 460.2" enable-background="new 0 0 424.8 460.2" xml:space="preserve">
<g>
	<ellipse fill="#D4D4D4" cx="179.8" cy="430.6" rx="164.8" ry="29.6"/>
	<ellipse fill="#C7C8C8" cx="179.8" cy="430.6" rx="116.7" ry="21"/>
	<g>
		<g>
			<path fill="#BB6A16" d="M208.3,334c0,0,7.6,33.2-7.6,42.6c-19.7,12.1-22.7,34.6-34.7,33.2c-12-1.4,9.2-75.8,9.2-75.8H208.3z"/>
		</g>
	</g>
	<g>
		<path fill="#3A2000" d="M174.1,375.9c0-0.6,0.1-0.9,0.1-0.9l-9.9,5.1c-2.7,15.5-3.5,29.2,1.6,29.7c8.1,0.9,12.1-9,19.9-19.3
			C174.6,386.5,174,378.5,174.1,375.9z"/>
	</g>
	<path fill="#FF8812" d="M334.7,180.9c-14.2-7.1-7.1-24.6-19.8-39.9c-12.7-15.3-20.6,6.6-31.4-5.9c-3.7-4.3-4.9-11.1-4.9-18.1l0,0
		c-25.3,36.3-22,69.6-17.1,96.2c7.2,38.6-30.5,74.1-30.5,74.1l20.5,0c0,0,18.9,4.2,66.2-39.8c23.8-22.2,27.6-42.3,27.1-64.3
		C341.3,183.1,337.8,182.4,334.7,180.9z"/>
	<path fill="#ED841F" d="M334.7,180.9c-14.2-7.1-7.1-24.6-19.8-39.9c-4.2-5-7.8-6-11.2-5.6c0.1,40.2,12.3,70-25.2,105
		c-11.3,10.6-21,18.3-29.3,24.1c-8.6,13.8-18.1,22.8-18.1,22.8l20.5,0c0,0,18.9,4.2,66.2-39.8c23.8-22.2,27.6-42.3,27.1-64.3
		C341.3,183.1,337.8,182.4,334.7,180.9z"/>
	<path fill="#DD7C1C" d="M334.7,180.9c-14.2-7.1-7.1-24.6-19.8-39.9c1.4,44.3,12.1,78.5-30.6,118.2c-13.1,12.2-24.3,21.2-33.9,28.1
		l1.1,0c0,0,18.9,4.2,66.2-39.8c23.8-22.2,27.6-42.3,27.1-64.3C341.3,183.1,337.8,182.4,334.7,180.9z"/>
	<path fill="#BB6A16" d="M342,182.9c-0.6,19.3-5.9,37.4-27.1,57.2c-47.3,44-66.2,39.8-66.2,39.8l-10.9,0c-3.9,4.6-6.8,7.3-6.8,7.3
		l20.5,0c0,0,18.9,4.2,66.2-39.8c23.8-22.2,27.6-42.3,27.1-64.3C343.9,183.1,343,183.1,342,182.9z"/>
	<path fill="#BB6A16" d="M121.1,326.1c0,0,8.9,24.6,5.2,36.4c-1.6,5.1-5.4,14.9-9.2,24.4c5.4,2,10.9,2.2,15,1.8
		c5.3-9.1,11.9-17.9,19.3-23.4c0,0-2.1-14.4,4.5-21C162.4,337.8,121.1,326.1,121.1,326.1z"/>
	<g>
		<g>
			<path fill="#FF8812" d="M111.8,260.1c0,0,9.7,10.3,4.9,22c-4.8,11.7-14.1,24.8-12.1,36.5c0,0,0.3-10.3,7.2-12
				c0,0-7.9,21,4.9,30.6c0,0-3.4-14.1,0-17.5c0,0,7.6,21,33.4,26.1c25.8,5.2,68.8-2.1,89.1-41.3l-5.8-36.5c0,0-31.3,6.5-53.3-1
				c-22-7.6-24.7-13.2-25.4-23.1C153.8,234,111.8,260.1,111.8,260.1z"/>
		</g>
	</g>
	<g>
		<g>
			<path fill="#DF7D1D" d="M160.1,339.2c-25.8-5.2-33.4-26.1-33.4-26.1c-3.4,3.4,0,17.5,0,17.5c-12.7-9.6-4.9-30.6-4.9-30.6
				c-6.9,1.7-7.2,12-7.2,12c-2.1-11.7,7.2-24.8,12.1-36.5c4.3-10.4-2.9-19.7-4.5-21.6c-6,3.4-10.4,6.1-10.4,6.1s9.7,10.3,4.9,22
				c-4.8,11.7-14.1,24.8-12.1,36.5c0,0,0.3-10.3,7.2-12c0,0-7.9,21,4.9,30.6c0,0-3.4-14.1,0-17.5c0,0,7.6,21,33.4,26.1
				c18.6,3.7,46.1,1,67.7-15.5C198.1,340.9,175.9,342.4,160.1,339.2z"/>
		</g>
	</g>
	<path fill="#FF8812" d="M148.6,284.9c0,0-11.7,33.7-4.1,47.5c7.6,13.8,17.9,26.8,16.9,42c-0.4,5.2-0.9,12.2-1.6,19.4l0,0
		c3.3,1.3,7.7,2.6,12.5,2.9c2.1-7.2,4.3-13.8,6.6-18.2c7.9-15.1,7.2-19.3,3.4-24.1c-3.8-4.8-11.7-34.1,4.5-45.4
		C203,297.6,148.6,284.9,148.6,284.9z"/>
	<path fill="#DF7D1D" d="M182.7,296.9c2.1,2.5,2,5.1-1.6,7.7c-16.2,11.4-8.3,40.6-4.5,45.4c3.8,4.8,4.5,8.9-3.4,24.1
		c-2.6,5-5.2,13-7.5,21.5c2,0.5,4.3,0.9,6.6,1.1c2.1-7.2,4.3-13.8,6.6-18.2c7.9-15.1,7.2-19.3,3.4-24.1c-3.8-4.8-11.7-34.1,4.5-45.4
		C192.6,304.9,189.3,300.6,182.7,296.9z"/>
	<path fill="#FF8812" d="M238.8,390.9c4.2,0.3,10.1,0,15.3-2.2c-2.5-11.6-3.4-25.8-1.6-35.7c2.8-15.5,34.1-74.3-19.3-85l-25.8,42.7
		c-0.3,1-5.8,20.6,3.4,25.5c9.3,4.8,21,44,25.8,51.3C237.3,388.4,238.1,389.6,238.8,390.9z"/>
	<g>
		<g>
			<path fill="#BB6A16" d="M155.6,250.4c-0.6-2-0.9-4.1-1.1-6.5c-0.1-1.6-1.3-2.2-3.1-2.2c-12.4,7.7-25.5,12.1-36.9,16.8
				c-0.6,0.3-3.2-0.4-3.8-0.1c0.8,1,3.9,5.4,5.2,8.3c4.8-1.1,10.3-1,14.4-2.7C138.4,260.6,146.5,255.1,155.6,250.4z"/>
		</g>
	</g>
	<g>
		<g>
			<path fill="#BB6A16" d="M97.3,98.3c0,0-9.8-17-27.2-42S45.8,4.5,38.1,0.2S6.4,58.9,26,101.4C45.7,144,97.3,98.3,97.3,98.3z"/>
		</g>
	</g>
	<path fill="#744407" d="M38.1,0.2C34-2.1,25.2,15,20.9,37.8c11.2,4.9,24.6,0.8,35.5-4.9C48.3,16.7,43.4,3.1,38.1,0.2z"/>
	<g>
		<path fill="#FF8812" d="M204.8,152.9c0,0,5.2-60.8-61.7-80.6c0,0-51-7.6-83.1,16c0,0,0,0,0,0s0,0,0,0c-1.7,1.2-3.3,2.6-4.9,4
			C44.9,100,20.7,115.5,0,105.1c0,0,1,15.7,24.3,18.5c0,0-1.2,20.1-17.9,19.4c0,0,11.6,8.4,20.7,7.8c-6.9,30.6-2.6,55,7,70.5
			c0,0,53,28.1,108.3,9.6C197.7,212.6,202.1,205.1,204.8,152.9z"/>
	</g>
	<g opacity="0.1">
		<g>
			<path fill="#553C00" d="M204.8,152.9c0,0,4.8-57.3-56.2-78.8c18.3,26,15.9,54.1,15.9,54.1c-3,58.3-7.9,66.7-69.6,87.3
				c-21,7-41.7,8-59.9,6.3c6.8,3.4,56.1,26.4,107.5,9.2C197.7,212.6,202.1,205.1,204.8,152.9z"/>
		</g>
	</g>
	<g>
		<g>
			<path fill="#D7791A" d="M204.8,152.9c0,0,3.1-37.2-27.7-62.9c16.8,23.4,14.6,49,14.6,49c-2.6,52.2-7.1,59.7-62.3,78.2
				c-30,10-59.4,6.3-79.9,0.8c-7-1-13.5-2.4-19.2-4c1.2,2.7,2.4,5.2,3.9,7.4c0,0,22.9,58.4,105.8,31.5
				C195.4,235,202.1,205.1,204.8,152.9z"/>
		</g>
	</g>
	<g>
		<g>
			<path fill="#FACFC7" d="M159.9,127.9l4.2-35.6l15.7-29.4l35.2-41.7L231.9,4c0,0,10.3,0.1,8.7,13.2c-1.6,13.2,6.4,62-18.1,114.8
				c-24.5,52.8-44.3,31.6-44.3,31.6L159.9,127.9z"/>
		</g>
	</g>
	<g>
		<g>
			<path fill="#E4BEB7" d="M195.6,156.7l-8.2-16.2c-6.5-12.8-9.1-27.3-7.4-41.6h0c1.1-9,3.8-17.8,8.1-25.8l5.6-10.5
				c2.4-4.5,5.3-8.7,8.6-12.6l30.2-35.8l6.3-6.4c-2.6-3.6-6.9-3.7-6.9-3.7l-16.8,17.2l-35.2,41.7l-15.7,29.4l-4.2,35.6l18.2,35.9
				c0,0,10.5,11.2,25.7-3C198.7,159.9,195.6,156.7,195.6,156.7z"/>
		</g>
	</g>
	<g>
		<g>
			<path fill="#FF8812" d="M155.6,127.5c-8.2-20.5-5-44,8.7-61.3c5.3-6.6,11.7-13.4,19.2-19c25.5-19.1,41-46,48.3-43.2
				c7.3,2.7-47.1,49.7-58.8,81.5c-11.7,31.8-9.9,48-4.5,46.7c5.3-1.2,18.7-49.1,18.7-49.1s13.1,33.5-4.4,57.4
				c0,0,18.3-10.2,22.8-21.8c0,0,0.8,20.3-12.7,34.7c-13.6,14.4,7.1,27.2,38.9-46.5c0,0-18.9,63.7-42.2,64.6
				C176.3,172.2,163.9,148.3,155.6,127.5z"/>
		</g>
	</g>
	<path fill="#744407" d="M231.9,4c-4.5-1.7-12.2,7.9-23.3,20c-1.5,4.7-2.5,9.5-2.9,14.4C221.4,20.2,235.9,5.5,231.9,4z"/>
	<g>
		<g>
			<g>
				<path fill="#FFFFFF" d="M82.9,205c0,0-5.3-23.8,13.6-29.4c29.5-8.7,35.4,22.4,35.4,22.4L82.9,205z"/>
			</g>
		</g>
		<g>
			<g>
				<path fill="#1D1D1B" d="M81.6,205.3c-0.6-3.6-0.8-7.2-0.4-10.8c0.4-3.6,1.3-7.2,3.1-10.4c1.8-3.2,4.5-5.9,7.8-7.5
					c1.6-0.9,3.3-1.4,5.1-1.9c1.7-0.4,3.5-0.8,5.2-1c3.5-0.4,7.2-0.2,10.6,0.7c3.4,1,6.6,2.8,9.2,5.2c5.2,4.9,8.3,11.5,9.8,18.3
					c-1.7-6.7-5-13.2-10.2-17.8c-2.6-2.3-5.7-3.9-9-4.8c-3.3-0.8-6.8-0.9-10.2-0.4c-1.7,0.2-3.4,0.6-5,1.1c-1.7,0.4-3.2,1.1-4.7,1.9
					c-2.9,1.6-5.3,4.1-6.8,7.1c-3,6-3.1,13.2-1.8,19.7L81.6,205.3z"/>
			</g>
		</g>
	</g>
	<g>
		<g>
			<path fill="#1D1D1B" d="M102.9,173.9c0,0-15,30.4,5.4,28.8c20.4-1.6,16.4-20,11.4-24.4C114.8,173.9,102.9,173.9,102.9,173.9z"/>
		</g>
	</g>
	<g>
		<g>
			<g>
				<path fill="#FFFFFF" d="M38.5,214.6c0,0-11.4-12.8-5.7-20.2c7.9-10.4,19,15.7,19,15.7L38.5,214.6z"/>
			</g>
		</g>
		<g>
			<g>
				<path fill="#1D1D1B" d="M37.5,215.5c-2.8-3.5-5.1-7.3-6.4-11.7c-0.6-2.2-0.9-4.5-0.3-6.8c0.7-2.3,2.1-4.3,4.4-5.3
					c1.1-0.5,2.5-0.4,3.5,0c1.1,0.4,2,1.1,2.9,1.8c1.7,1.5,3,3.2,4.2,5c2.4,3.6,4.3,7.5,6,11.5c-1.8-3.9-3.9-7.7-6.4-11.2
					c-1.3-1.7-2.7-3.4-4.3-4.7c-1.6-1.3-3.7-2.3-5.4-1.4c-1.7,0.8-3,2.7-3.4,4.6c-0.4,1.9,0,4,0.7,5.9c1.4,3.9,3.9,7.4,6.7,10.5
					L37.5,215.5z"/>
			</g>
		</g>
	</g>
	<g>
		<g>
			<path fill="#1D1D1B" d="M35.7,192c0,0,0.1,11.4,4.5,17.6c4.5,6.2,11,2.1,4.4-12C44.6,197.6,39.3,191,35.7,192z"/>
		</g>
	</g>
	<path fill="#F0F0F0" d="M21.8,225.8c0,0-1.7-13.2,51.1-20.2c52.9-7,47.6,51.2,17.6,55.9C60.6,266.2,15.5,243,21.8,225.8z"/>
	<path fill="#E0E1E1" d="M89,205.6c17.3,14.3,8.6,46.1-13.2,49.5c-10.6,1.7-23-0.1-34.4-3.9c14.4,7.7,33.7,12.7,49.1,10.2
		C117.1,257.3,124.3,211.4,89,205.6z"/>
	<g>
		<g>
			<path fill="#1D1D1B" d="M137.8,189.1c-0.2-6.1-1.1-12.1-3.3-17.7c-2.1-5.6-5.6-10.7-10.6-13.7c-2.5-1.5-5.2-2.5-8.1-3.1
				c-2.9-0.5-5.8-0.6-8.8-0.4c-5.9,0.5-11.8,1.9-17.2,4.2c-5.5,2.1-10.6,5.4-13.7,10.3c-3.2,4.7-3.8,11.3-1,16.1
				c0.7,1.2,1.8,1.9,2.4,1.5c0.9-0.7,2-1.9,2.9-3.1c1.8-2.4,3.6-4.9,5.7-7.2c4.2-4.5,10.2-7.4,16.3-7.7c-3,0.5-5.9,1.5-8.5,2.9
				c-2.6,1.4-4.9,3.4-6.8,5.7c-2,2.2-3.6,4.8-5.4,7.3c-1,1.3-1.8,2.5-3.2,3.6c-1,0.7-2.4,0.5-3.1,0c-0.9-0.5-1.4-1.2-1.9-1.9
				c-3.7-5.7-2.8-13.1,0.6-18.5c3.4-5.5,9.1-9.1,14.8-11.4c5.8-2.3,11.9-3.6,18.1-4.1c3.1-0.1,6.3,0,9.4,0.6
				c3.1,0.6,6.1,1.9,8.7,3.6c5.3,3.5,8.8,9.1,10.7,15C137.5,176.9,138.2,183,137.8,189.1z"/>
		</g>
	</g>
	<g>
		<g>
			<path fill="#1D1D1B" d="M34.6,186.5c2.3,0.3,4.5,1.2,6.6,2.3c1,0.5,2,1.2,3,1.9c0.5,0.4,1,0.7,1.4,1.1l0.7,0.6l0.6,0.4
				c0.7,0.4,1.3,0.4,1.9-0.1c0.6-0.5,1-1.4,1.3-2.3c0.5-1.9,0.3-4-0.6-5.7c-0.9-1.7-2.5-3-4.5-3.6c-1.9-0.8-4.2-1.2-6.3-1.4
				c-4.3-0.4-8.9,0.4-12.8,2.9c3.2-3.4,8.1-5.1,12.9-5c2.4,0,4.7,0.4,7.1,1.1c2.4,0.8,4.7,2.4,6,4.7c1.2,2.4,1.4,5.1,0.7,7.7
				c-0.5,1.2-1.1,2.5-2.3,3.4c-0.6,0.4-1.4,0.8-2.3,0.8c-0.4,0.1-0.8-0.1-1.2-0.2c-0.4-0.1-0.7-0.3-1-0.5l-0.8-0.7l-0.6-0.6
				c-0.4-0.4-0.8-0.8-1.2-1.2c-0.8-0.7-1.7-1.5-2.6-2.1C38.7,188.5,36.7,187.4,34.6,186.5z"/>
		</g>
	</g>
	<g opacity="0.78">
		<g>
			
				<ellipse transform="matrix(0.9782 0.2078 -0.2078 0.9782 40.8664 -19.3172)" fill="#FFFFFF" cx="112.4" cy="184.9" rx="4.2" ry="6.3"/>
		</g>
	</g>
	<g opacity="0.78">
		<g>
			<ellipse transform="matrix(0.938 -0.3468 0.3468 0.938 -67.0036 27.2795)" fill="#FFFFFF" cx="42.7" cy="200.9" rx="2" ry="4"/>
		</g>
	</g>
	<g>
		<g>
			<path fill="#1D1D1B" d="M40.1,235c2.4,2.7,5.4,5.2,8.6,7c3.2,1.8,6.9,2.9,10.6,2.7c3.7-0.2,7.3-1.6,10.2-4.1
				c0.8-0.5,1.5-1.2,2.1-1.9l2-2l3.4-4.6l-3.2,4.8l-1.9,2.2c-0.6,0.7-1.3,1.5-2.1,2.1c-2.8,2.7-6.6,4.4-10.6,4.9
				c-4,0.5-8-0.5-11.6-2.3c-3.6-1.8-6.8-4.1-9.7-7L40.1,235z"/>
		</g>
	</g>
	<g>
		<g>
			<path fill="#1F1411" d="M28.5,226.1c0,0,15.8-7.1,29.7-5c14,2.1-17.7,8.9-17.4,14.2C41.2,240.7,25.7,233.4,28.5,226.1z"/>
		</g>
	</g>
	<g>
		<g>
			<path fill="#1D1D1B" d="M51,243.4c0,1.1-0.1,2-0.4,3c-0.3,1-0.8,2-1.7,2.6c-0.9,0.7-2,0.9-2.9,0.7c-0.9-0.1-1.8-0.5-2.6-0.8
				c0.9,0.2,1.8,0.3,2.6,0.2c0.8-0.1,1.6-0.5,2-1c0.4-0.6,0.6-1.3,0.6-2.1c0-0.7-0.1-1.6-0.2-2.3L51,243.4z"/>
		</g>
	</g>
	<g opacity="0.78">
		<g>
			<path fill="#FFFFFF" d="M30.8,230.6c0,0-4.5-2.4,0.4-4.4c4.9-2,18.1-5,24.8-3.8c6.7,1.2-20.4-0.2-24.7,6.1
				C30.9,229,30.8,230.6,30.8,230.6z"/>
		</g>
	</g>
	<g>
		<path fill="#3A2000" d="M132,388.8c-4.2,0.3-9.6,0.1-15-1.8c-5,12.7-10.1,24.8-10.1,24.8s-13.4-6.2-16.9,11c0,0,13.4,9.6,26.5,0
			C116.6,422.8,122.4,405.4,132,388.8z"/>
	</g>
	<g>
		<path fill="#6E4832" d="M172.3,396.6c-4.9-0.3-9.2-1.6-12.5-2.9c-1.4,13.9-3.5,28-6.7,29.1c-4.8,1.7-13.4-2.8-15.8,11.7
			c0,0,15.8,11.4,25.8,2.1C163.1,436.6,167.1,414.7,172.3,396.6z"/>
	</g>
	<g>
		<path fill="#6E4832" d="M241.8,434.2c2.8,7.6,19.6,6.2,21.7,0c2.1-6.2,1.7-18.9-4.1-29.6c-2.1-3.8-3.9-9.5-5.2-15.9
			c-5.2,2.2-11.1,2.4-15.3,2.2c4.9,8.5,11.2,22.8,8.8,28.5C244.9,425.9,239.1,426.6,241.8,434.2z"/>
	</g>
	<g>
		<path fill="#F0F0F0" d="M309.9,99c-1.9-11.2,23.5-33,23.5-33c-25.9,17.4-43.3,34.5-54.8,51c0,7,1.2,13.8,4.9,18.1
			c10.8,12.5,18.7-9.5,31.4,5.9c12.7,15.3,5.6,32.7,19.8,39.9c3.1,1.6,6.7,2.2,10.2,2.3c-0.4-21.7-5-45.2,1.6-74.4
			c13.2-58.7,78.3-13.4,78.3-13.4C386.3,29.9,309.9,99,309.9,99z"/>
	</g>
	<g>
		<path fill="#DDDDDD" d="M309.9,99c-1.9-11.2,23.5-33,23.5-33c-11.5,7.7-21.3,15.4-29.7,23c-1.7,16.7-1.1,32-0.1,46.4
			c3.4-0.5,7.1,0.5,11.3,5.5c12.7,15.3,5.6,32.7,19.8,39.9c3.1,1.6,6.7,2.2,10.2,2.3c-0.4-21.7-5-45.2,1.6-74.4
			c13.2-58.7,78.3-13.4,78.3-13.4C386.3,29.9,309.9,99,309.9,99z"/>
	</g>
	<g>
		<g>
			<path fill="#CBCCCC" d="M315.4,94.5c-2.3,16.8-1.6,32-0.7,46.2c0.1,0.1,0.2,0.2,0.3,0.3c12.7,15.3,5.6,32.7,19.8,39.9
				c3.1,1.6,6.7,2.2,10.2,2.3c-0.4-21.7-5-45.2,1.6-74.4c13.2-58.7,78.3-13.4,78.3-13.4C392.5,40.4,333.5,80.3,315.4,94.5z"/>
		</g>
	</g>
	<path fill="#63412C" d="M171.7,260.2c0,0,12.4-1.8,14.6,8.5c2.2,10.3-22.7,71.6-71.6,80.9c-48.9,9.3-55.4,31.5-55.4,31.5
		s-24.6-14.7-14-44.8c0,0,15.5-19.7,61-22.8C151.7,310.3,170.3,271.5,171.7,260.2z"/>
	<g>
		<path fill="#86583E" d="M172.8,260.1c-0.7,0-1.1,0.1-1.1,0.1c-0.1,0.6-0.2,1.4-0.4,2.2C171.8,261.7,172.3,260.9,172.8,260.1z"/>
		<path fill="#86583E" d="M123.5,331c-48.9,9.3-55.4,31.5-55.4,31.5s-17.5-10.5-16.6-31.8c-4.3,3.2-6.2,5.6-6.2,5.6
			c-10.6,30.1,14,44.8,14,44.8s6.5-22.3,55.4-31.5c37.4-7.1,60.7-44.5,68.6-66.4C171.6,303.3,151.5,325.7,123.5,331z"/>
	</g>
	<path fill="#63412C" d="M154.9,247.3c0,0,22,5.2,16,19.2c-6,14-44.2,30.5-62.1,26.6c0,0-8.7-14.7,6.3-26.9
		C115.2,266.3,148.7,259.6,154.9,247.3z"/>
	<path fill="#86583E" d="M114.1,280.2c0,0-2.6-4.4-2.5-10.5c-9.9,11.4-2.8,23.4-2.8,23.4c17.9,3.9,56.1-12.6,62.1-26.6
		c1.1-2.6,1.2-4.8,0.8-6.8C159.6,271.9,129.4,283.5,114.1,280.2z"/>
	<polygon fill="#C1D98D" points="71.5,337 68.2,343.8 70.3,351 66.2,347.9 62.9,354.7 63.6,346.1 59.4,343.1 64,340.8 64.7,332.2 
		66.9,339.3 	"/>
	<polygon fill="#C1D98D" points="84.5,330 82.5,334.2 83.8,338.7 81.2,336.9 79.1,341.1 79.6,335.7 77,333.8 79.9,332.4 80.3,327 
		81.6,331.5 	"/>
	<polygon fill="#C1D98D" points="96.5,327.2 95,330.1 96,333.2 94.2,331.9 92.7,334.8 93,331.1 91.2,329.8 93.2,328.8 93.5,325.1 
		94.5,328.2 	"/>
	<path fill="#DF7D1D" d="M246.6,350c-2,11.3-0.5,28,2.7,40.3c1.6-0.3,3.3-0.8,4.9-1.5c-2.5-11.6-3.4-25.8-1.6-35.7
		c2.5-14.3,29.5-65.8-8.8-81.8C273.1,289.9,249,336.4,246.6,350z"/>
</g>
</svg>
