<?xml version="1.0" encoding="utf-8"?>
<!-- Generator: Adobe Illustrator 17.1.0, SVG Export Plug-In . SVG Version: 6.00 Build 0)  -->
<!DOCTYPE svg PUBLIC "-//W3C//DTD SVG 1.1//EN" "http://www.w3.org/Graphics/SVG/1.1/DTD/svg11.dtd">
<svg version="1.1" id="Layer_1" xmlns="http://www.w3.org/2000/svg" xmlns:xlink="http://www.w3.org/1999/xlink" x="0px" y="0px"
	 width="450.2px" height="505.7px" viewBox="0 0 450.2 505.7" enable-background="new 0 0 450.2 505.7" xml:space="preserve">
<g>
	<ellipse fill="#D4D4D4" cx="208.7" cy="467.6" rx="198.3" ry="38.1"/>
	<ellipse fill="#C7C8C8" cx="208.7" cy="467.6" rx="142.3" ry="27.3"/>
	<g>
		<g>
			<path fill="#F0F0F0" d="M48,251.8c-0.5,11.6,22.4,19.7,22.4,19.7c-8.1-31.5,65.1-60.2,65.1-60.2c-12.5,6.1-12.3,36.4-12.3,36.4
				c63.4-6.6,71.7,62.4,71.7,62.4c-17.9-38.7-79.3-5-96.2,33c-12.2-1.2-21.4-3.9-22.7-9.2c-4.3-17.6,0.6-38.5-33.2-33.5
				c-11.5,1.7-21.8,4.1-30.7,6.1C26.2,274.7,48,251.8,48,251.8z"/>
		</g>
		<g>
			<path fill="#FF8812" d="M201.2,418.9c0,0-99.8-7.6-106.5-52.1c-1.2-8.1,0.6-16.6,4.5-24.9c-0.2,0.4-0.4,0.8-0.6,1.2
				c-12.2-1.2-21.4-3.9-22.7-9.2c-4.3-17.6,0.6-38.5-33.2-33.5c-11.5,1.7-21.8,4.1-30.7,6.1c-15.9,35.4-22.4,81.6,21.9,118.4
				c83.7,69.6,176.8,6.2,176.8,6.2L201.2,418.9z"/>
		</g>
		<g>
			<path fill="#E27F1D" d="M56.1,299.7c-3.6-0.4-8-0.3-13.4,0.5c-11.5,1.7-21.8,4.1-30.7,6.1c0.9-1.9,1.8-3.9,2.7-5.7
				c-17.8,36-27.5,85.3,19.2,124.1c41.3,34.4,84.9,36.3,118.5,29.5c-24.4-2.1-50.7-10.9-76.3-32.1C30.2,383.8,38.9,335.5,56.1,299.7
				z"/>
		</g>
		<path fill="#DF7D1D" d="M321.4,113.1c0,0,66.3-25.2,128.9-7l-106,91.1L321.4,113.1z"/>
		<path fill="#744407" d="M450.2,106c-13.5-3.9-27.2-5.8-40.3-6.4l9.1,33.3L450.2,106z"/>
		<path fill="#FACFC7" d="M351.7,141.4c0,0,56.6-28.2,85-28.6l-85.9,70.6L351.7,141.4z"/>
		<g>
			<path fill="#DD7C1C" d="M209.6,429.5c-31.1,14.6-97.5,35-158.8-16c-40.9-34-38.5-76.1-25.3-110.2c-4.7,0.9-9.2,1.9-13.4,2.8
				c-16,35.4-22.5,81.7,21.8,118.5c83.7,69.6,176.8,6.2,176.8,6.2L209.6,429.5z"/>
		</g>
		<g>
			<g>
				<path fill="#E2E2E2" d="M187.8,285.9c5.8,12.9,7.1,24.1,7.1,24.1c-17.9-38.7-79.3-5-96.2,33c-12.2-1.2-21.4-3.9-22.7-9.2
					c-0.3-1.1-0.5-2.2-0.7-3.3C94.8,286.8,163.3,248,187.8,285.9z"/>
			</g>
		</g>
		<g>
			<path fill="#AC6214" d="M283.7,451.9c5.9-2.8,21.4-12.4,18.9-37.1c-4-39.3-35.4-34.6-35.4-34.6l-14.6,79.3
				c2.5-1.4,5.8-2.7,10-3.2C270,455.4,278.3,453.4,283.7,451.9z"/>
			<path fill="#3A2000" d="M309.4,462.7V456c-2.1-11.5-28-3.2-28-3.2s0.9-0.3,2.2-0.9c-5.4,1.5-13.7,3.5-21.1,4.4
				c-4.2,0.5-7.5,1.8-10,3.2l-0.6,3.2H309.4z"/>
		</g>
		<g>
			<path fill="#D97A1C" d="M284.5,443.6c-0.1-10.3,1-22.9,3.6-32.7c5.4-20.1,16.8-63.7,17.5-67.5c0,0-18.7,1.4-29.1,38.4
				c-5.4,19.3-4,43.6-1.5,62.3C277.1,443.5,280.7,442.8,284.5,443.6z"/>
		</g>
		<g>
			<path fill="#CD7419" d="M283.4,404.9c3.9-14,9-22.9,13.9-28.5c4.2-16.1,8-30.8,8.4-33c0,0-18.7,1.4-29.1,38.4
				c-10.4,37,4.2,92.1,4.2,92.1h2.2C279.8,454.5,277.3,426.6,283.4,404.9z"/>
		</g>
		<path fill="#FF8812" d="M319.5,309c-12.5-33.7-19.4-41.2-3.5-62.7c15.9-21.5-52.6-5-52.6-5s13.1,29.4,0,42.1
			c-13.1,12.7-26.3,43.9-27,60.1c-0.7,16.2-53.6,39-54.7,75.9c-0.8,29.4,13.8,42.7,31.2,47.6c0.1,1.7,0,3.7-0.4,5.4
			c-1,4.2,50.3,1.6,50.3,1.6s10.1-3.3,0.4-11.5c16.4-10.4-3-61.8,16.1-75.9C298.7,372.1,331.9,342.7,319.5,309z"/>
		<g>
			<path fill="#D97A1C" d="M316.7,301.6c-0.4-0.9-0.7-1.9-1.1-2.8c9.1,0.7,11.3-10,11.3-10c-11.1,0.3-17.7-14-20.1-20.8
				c0.2-6.7,2.9-13.1,9.2-21.7c7.6-10.2-3.9-11.9-18.1-10.8c-9.4,16.5-2.7,25.8,8.3,55.5c12.5,33.7-20.8,63.2-40.1,77.6
				c-19,14.1-20.1,58.9-16.1,75.9c9.7,8.1-0.4,11.5-0.4,11.5s-18.7-0.4-49.9-7c-5.3-1.5-10.3-3.8-14.8-7c5.1,14.1,15.8,21.6,27.9,25
				c2-1.2,4.5-2.1,7.2-2.1c6.4,0,31.7-6.1,43.3-2.4c16.2-10.5-3-61.7,16-75.8c18.3-13.6,49-40.7,41.7-72.2c4.1-1.1,5.8-5.9,5.8-5.9
				C321.5,309.9,318.2,304.9,316.7,301.6z"/>
			<path fill="#3A2000" d="M220,464.7c-2.7,0-5.2,0.9-7.2,2.1c0.1,0,0.1,0,0.1,0c0.1,1.7,0,3.7-0.4,5.4c-1,4.2,50.3,1.6,50.3,1.6
				s10.1-3.3,0.4-11.5c0,0,0.1,0,0.1-0.1C251.7,458.6,226.4,464.7,220,464.7z"/>
		</g>
		<path fill="#FF8812" d="M255,443.6c-1.1-5.8-2.4-11.1-3.9-14c-4.7-9,14.4-34,22.7-67.5c8.3-33.5-9.7-63.3-9.7-63.3l-24.2,71.5
			c1.4,19.6-7.6,34.4-3.5,51.3c1.5,6,3.8,15.1,6.1,24.4C245.5,444.7,250.3,443.2,255,443.6z"/>
		<path fill="#FF8812" d="M210.1,140.9c0,0-24.1-32.2,13.8-71.9C261.8,29.3,343.1,0,343.1,0l-54.8,116
			C288.3,116,235.7,147.7,210.1,140.9z"/>
		<path fill="#744407" d="M307.2,50.1c3.5,0.9,7.5,1.1,11.8,0.8l24-50.9c0,0-19.1,6.9-43.1,18.5C297.8,37.6,307.2,50.1,307.2,50.1z"
			/>
		<path fill="#FF8812" d="M235.7,109.3c0,0,25.8-12.1,57.9-11.1c32.1,0.9,52.9-10.6,52.9-10.6s-8.1,17.7-16.5,17.7
			c0,0,16.3,19.7,28.9,12.1c0,0-2.4,14.8-7.5,11.2c0,0,33.2,51.4,22.1,79.6c-11.1,28.2-44.3,42.7-72,44.5
			c-27.7,1.7-97.8-15-100.1-48.5C199,170.8,199.6,124.7,235.7,109.3z"/>
		<path fill="#E6801E" d="M343.9,232.3c-27.7,1.7-97.8-15-100.1-48.5c-1.9-26.8-1.8-61.5,16.6-82.3c-15,3.3-24.7,7.9-24.7,7.9
			c-36,15.4-36.6,61.4-34.3,94.9c2.3,33.5,72.4,50.3,100.1,48.5c19.2-1.2,41.1-8.6,56.4-22.4C353.1,231.3,348.4,232,343.9,232.3z"/>
		<path fill="#D37719" d="M323.1,241.1c-31.1,2-109.9-16.9-112.6-54.6c-1.2-17.9-1.7-38.9,2.4-57.9c-13.4,21-13.2,51.5-11.6,75.6
			c2.3,33.5,72.4,50.3,100.1,48.5c16.5-1,35-6.7,49.6-17C341.7,238.8,332.1,240.5,323.1,241.1z"/>
		<path fill="#1D1D1B" d="M257.1,176.9c2.2-2.8,5.1-5,8.3-6.6c3.2-1.6,6.7-2.7,10.3-3.1c3.6-0.3,7.2-0.3,10.7,0.6
			c1.8,0.3,3.4,1,5.1,1.5c1.6,0.7,3.2,1.4,4.8,2.3c-1.8-0.3-3.4-0.7-5.1-1c-1.7-0.2-3.4-0.6-5.1-0.7c-0.8-0.1-1.7-0.1-2.5-0.2
			c-0.8,0-1.7,0-2.5,0c-1.7-0.1-3.4,0.1-5,0.3c-3.3,0.4-6.6,1.2-9.8,2.3C263,173.4,260,174.9,257.1,176.9z"/>
		<path fill="#1D1D1B" d="M332.9,169.9c1.9-1.7,4.3-2.8,6.8-3.3c2.5-0.6,5.2-0.6,7.8-0.2c2.5,0.5,5.1,1.3,7.2,2.7
			c1.1,0.6,2.1,1.5,3.1,2.2c0.9,0.9,1.8,1.8,2.6,2.7c-1.2-0.5-2.3-1.1-3.4-1.6c-1.1-0.5-2.2-1.1-3.3-1.4c-2.2-0.9-4.5-1.5-6.8-2
			c-2.3-0.4-4.6-0.5-7-0.4C337.7,168.8,335.3,169.2,332.9,169.9z"/>
		<path fill="#1D1D1B" d="M229.3,168.3c3.4-5.3,7.7-10,12.5-14.2c4.8-4.2,10.2-7.7,16.1-10.2c5.9-2.4,12.5-3.8,18.9-3
			c6.4,0.6,12.5,3.1,17.6,6.7c-2.9-1.3-5.7-2.6-8.7-3.3c-3-0.8-6-1.4-9.1-1.4c-6.1-0.2-12.1,1.1-17.8,3.5
			c-5.7,2.3-10.9,5.6-15.8,9.3c-2.5,1.9-4.8,3.9-7.1,6C233.6,163.7,231.4,166,229.3,168.3z"/>
		<path fill="#1D1D1B" d="M332.9,149.5c2.8-1.9,6.5-2.3,9.8-1.8c3.4,0.5,6.6,1.8,9.5,3.6c1.5,0.8,2.8,1.9,4.1,2.9
			c1.2,1.1,2.5,2.2,3.7,3.4c1.1,1.2,2.2,2.5,3.3,3.8c1,1.3,1.9,2.7,2.8,4.1c-1.3-1-2.5-2.1-3.8-3.2c-1.2-1.1-2.5-2.1-3.7-3.1l-3.8-3
			c-1.3-0.9-2.6-1.9-4-2.6c-2.7-1.7-5.5-3-8.5-3.9C339.3,149,336.1,148.6,332.9,149.5z"/>
		<path fill="#F0F0F0" d="M315.1,174c0,0-22.8-0.9-24.9,17c-2.1,17.9,16.1,31.4,34.3,27.5c18.2-3.9,21.5-21.3,20.8-31.4
			C344.4,177,329.3,174.3,315.1,174z"/>
		<path fill="#DBDBDC" d="M331.6,208.8c-18.2,3.9-36.3-9.6-34.3-27.5c0.1-1,0.3-1.9,0.6-2.8c-3.8,2.5-7,6.4-7.7,12.6
			c-2.1,17.9,16.1,31.4,34.3,27.5c9.8-2.1,15.3-8.1,18.1-14.8C339.7,206,336.1,207.8,331.6,208.8z"/>
		<path fill="#1D1D1B" d="M313.7,183.9c-1.9-3,0.3-6.9,3.8-7c3.9-0.1,11.6,0,14.4,2.4c3.9,3.4-5.2,10.4-8.8,10.9
			C320.9,190.5,315.7,187.2,313.7,183.9z"/>
		<path fill="#1D1D1B" d="M324.3,186.9c-0.2,2.5-0.7,4.8-1.6,7.1c-0.9,2.2-2.4,4.6-4.9,5.5c-2.5,0.9-5-0.1-7.1-1.1
			c-1-0.7-2-1.3-2.9-2l-2.7-2.3l2.8,2c1,0.6,2,1.1,3,1.7c2.1,0.8,4.4,1.4,6.3,0.5c1.9-0.9,2.9-2.9,3.6-4.9c0.6-2.1,0.9-4.4,0.9-6.5
			L324.3,186.9z"/>
		<path fill="#1D1D1B" d="M324.2,185c-0.4,1.9-0.5,3.9-0.5,5.8c0.1,1.9,0.4,3.9,1.5,5.4c1,1.5,3,2.3,5,2c1,0,2-0.4,3-0.6l2.9-1.1
			l-2.7,1.4c-1,0.3-1.9,0.8-3,0.9c-2,0.5-4.6-0.1-6.1-1.8c-1.5-1.7-2.1-3.9-2.4-6c-0.3-2.1-0.4-4.2-0.2-6.4L324.2,185z"/>
		<path fill="#FACFC7" d="M231.7,121.5c0,0-8.9-36.6,43-68.8c51.9-32.2,54.1-37.3,54.1-37.3l-47.5,95.9c0,0-18.4-2.1-10.9-17.9
			c0,0-15.7,10.2-12.7,18c3,7.8-15.3-6.5-15.3-6.5S248.1,118.5,231.7,121.5z"/>
		<g>
			<path fill="#DAB7B0" d="M265.4,97.1c-2-2.7-2.7-6.6,0-12.4c0,0-15.7,10.2-12.7,18c3,7.8-15.3-6.5-15.3-6.5s4.5,10.8-6.1,15.3
				c-0.5,6.1,0.4,9.9,0.4,9.9c16.4-3,10.7-16.7,10.7-16.7s18.3,14.3,15.3,6.5C255.9,106.5,261.1,100.8,265.4,97.1z"/>
			<path fill="#DAB7B0" d="M313.6,27.5l-37.3,75.2c0,0-4.1-0.5-7.6-2.7c-0.1,9.7,12.7,11.2,12.7,11.2l47.5-95.9
				C328.8,15.4,327.9,17.5,313.6,27.5z"/>
		</g>
		<path fill="#1D1D1B" d="M267.5,277.1c-0.5,2,0.1,4,0.5,6c0.6,1.9,1.3,3.8,2.2,5.7c1.8,3.6,3.8,7.2,6,10.6
			c4.5,6.8,9.5,13.2,14.6,19.5c2.6,3.1,5.2,6.3,8,9.3l4,4.6c1.4,1.5,2.7,3.2,3.9,4.9c2.5,3.4,4.6,7,6.3,10.8c1.7,3.8,2.8,8,2.7,12.3
			l-1.7-0.5c2.2-3.9,3.8-8.2,5-12.5c1.3-4.4,2-8.9,2.5-13.5c0,2.3,0,4.6-0.3,6.9c-0.2,2.3-0.6,4.6-1.1,6.8c-0.4,2.3-1.1,4.5-1.9,6.7
			c-0.8,2.2-1.6,4.3-2.7,6.5l-1.6,3.1l-0.1-3.6c-0.3-7.9-4.4-15.2-9.1-21.6c-1.2-1.6-2.5-3.1-3.8-4.6l-4.1-4.6
			c-2.7-3.1-5.3-6.3-7.9-9.5c-5.1-6.4-10-13-14.1-20.2c-2.1-3.6-4-7.2-5.5-11.1c-0.7-1.9-1.3-3.9-1.8-5.9
			C267.1,281.2,266.8,279,267.5,277.1z"/>
		
			<ellipse transform="matrix(0.9958 9.159350e-002 -9.159350e-002 0.9958 35.6386 -27.1671)" fill="#FFE878" cx="313.8" cy="374.7" rx="9.5" ry="17.1"/>
		<path fill="#F4DE75" d="M316.1,381.9c-5.2-0.5-8.7-8.5-7.9-17.9c0.1-0.8,0.2-1.6,0.3-2.4c-2.2,2.9-3.8,7.3-4.2,12.3
			c-0.9,9.4,2.7,17.4,7.9,17.9c4.8,0.4,9.3-5.6,10.7-13.8C321,380.6,318.6,382.1,316.1,381.9z"/>
		<path fill="#CEBD64" d="M313.7,391.1c-5.2-0.5-8.7-8.5-7.9-17.9c0.7-7.2,3.7-13.2,7.5-15.3c-4.4,1.3-8.2,7.8-8.9,16
			c-0.9,9.4,2.7,17.4,7.9,17.9c1.2,0.1,2.4-0.2,3.5-0.9C315.1,391.1,314.4,391.2,313.7,391.1z"/>
		<path fill="#CEBD64" d="M311.9,372.7c0,0,5.2-2.9,4.2-7.5l1.8-0.5l-1,17.2l2.6-0.5v1.2l-7.3,2.1v-1.6l3.1-0.8l0.7-11.2l-2.1,2
			L311.9,372.7z"/>
		<path fill="#6E4832" d="M280.7,480.1c-1.4-16.6-22.1-9-22.1-9s-1.3-15.1-3.6-27.5c-4.7-0.4-9.5,1.1-12.5,2.4
			c4.2,16.8,8.6,34.1,8.6,34.1H280.7z"/>
		<path fill="#D97A1C" d="M236.4,421.6c1.5,6,3.8,15.1,6.1,24.4v0c1-0.4,2.2-0.9,3.5-1.3c-2.5-9.8-4.9-19.7-6.5-26
			c-4.2-16.9,4.8-31.8,3.5-51.3l22.4-66.1c-0.8-1.5-1.3-2.4-1.3-2.4l-24.2,71.5C241.3,389.8,232.3,404.7,236.4,421.6z"/>
		<path fill="#6E4832" d="M305.6,473.9c1.4-12.5-13.2-11.1-17.5-11.3c-2.2-0.1-3.6-8.3-3.6-19c-3.8-0.8-7.4-0.1-9.4,0.5
			c2.3,17.2,5.6,29.7,5.6,29.7H305.6z"/>
	</g>
</g>
</svg>
