<?xml version="1.0" encoding="utf-8"?>
<!-- Generator: Adobe Illustrator 17.1.0, SVG Export Plug-In . SVG Version: 6.00 Build 0)  -->
<!DOCTYPE svg PUBLIC "-//W3C//DTD SVG 1.1//EN" "http://www.w3.org/Graphics/SVG/1.1/DTD/svg11.dtd">
<svg version="1.1" id="Layer_1" xmlns="http://www.w3.org/2000/svg" xmlns:xlink="http://www.w3.org/1999/xlink" x="0px" y="0px"
	 width="461.9px" height="443.5px" viewBox="0 0 461.9 443.5" enable-background="new 0 0 461.9 443.5" xml:space="preserve">
<g>
	<ellipse fill="#D4D4D4" cx="230.9" cy="405.3" rx="230.9" ry="38.2"/>
	<ellipse fill="#C7C8C8" cx="230.9" cy="405.3" rx="172" ry="28.4"/>
	<path fill="#FF8812" d="M98.2,350.3c-2-7.2-2.2-13.5-1.2-19l0,0c-6.4-0.6-12.8-2.8-18.1-7.7c-17.5-16.2-8-26.1-30.7-17.1
		c-11.9,4.7-20.2-1.8-25.5-9.1v0C3.7,332.3,7.7,376.7,48.3,403.4c45.9,30.1,131.4-23.6,131.4-23.6l-0.1-15.5
		C179.6,364.3,111.4,398.3,98.2,350.3z"/>
	<path fill="#DB7B1C" d="M119.2,373.7c24.7,8.3,60.4-9.5,60.4-9.5l0.1,15.5c0,0-2.1,1.3-5.7,3.4C156.2,388.2,131.6,391,119.2,373.7z
		"/>
	<path fill="#F0F0F0" d="M166.5,291.6c0,0-8-24.6-22.9-12.2c-14.9,12.4,5.4,15.3,5.4,15.3s-46.1,5.5-52,36.5
		c-6.4-0.6-12.8-2.8-18.1-7.7c-17.5-16.2-8-26.1-30.7-17.1c-11.9,4.7-20.2-1.8-25.5-9.1c15.1-27.5,44.6-49.1,81.9-51
		C189.3,242,166.5,291.6,166.5,291.6z"/>
	<path fill="#D8D8D8" d="M116.6,263.3c-34.4,1.8-62.2,20.3-78.1,44.8c-6.8-0.8-12-5.5-15.6-10.6c15.1-27.5,44.6-49.1,81.9-51
		c47.8-2.5,61.3,12.3,64,25.6C159.4,265.9,143.4,261.9,116.6,263.3z"/>
	<path fill="#BB6A16" d="M386.3,384.2c-5.3-10.7-44.4,0-44.4,0s26.2-40,0-63.7c-23.4-21.1-37,3-39.6,8.4
		c-33.4-12.8-58.1-82.1-58.1-82.1L194,258.5c0,0,5.2,39.3-5.8,58.6c-11,19.3-29.9,72.5-13.9,78.7c16,6.2,66.3,0.8,86.6,4.2
		c9.1,1.5,20.7,2.5,30.4,2.4l0,0l0.7,0c0.9,0,1.8,0,2.7-0.1l88.2-2.3C382.9,400.1,391.6,394.9,386.3,384.2z"/>
	<g>
		<path fill="#A55F13" d="M386.4,394.6l-88.2,2.3c-0.9,0-1.7,0.1-2.7,0.1l-0.7,0l0,0c-9.6,0.1-21.2-0.9-30.4-2.4
			c-20.4-3.4-70.6,2-86.6-4.2c-16-6.2,2.9-59.3,13.9-78.7c8.7-15.3,7.2-43.3,6.3-54.2l-4,0.9c0,0,5.2,39.3-5.8,58.6
			c-11,19.3-29.9,72.5-13.9,78.7c16,6.2,66.3,0.8,86.6,4.2c9.1,1.5,20.7,2.5,30.4,2.4l0,0l0.7,0c0.9,0,1.8,0,2.7-0.1l88.2-2.3
			c0,0,3.5-2.1,4.7-6.3C386.9,394.3,386.4,394.6,386.4,394.6z"/>
		<path fill="#A55F13" d="M306.7,321.8c-0.4,0.5-0.8,1-1.1,1.5c0.1,0,0.2,0.1,0.3,0.1C306.1,323,306.4,322.5,306.7,321.8z"/>
	</g>
	<path fill="#3A2000" d="M341.9,384.2c0,0,0.1-0.1,0.2-0.3c-7.3,4.4-15.4,10.3-21.7,17.8l62.5-1.6c0,0,8.7-5.2,3.4-15.9
		C381,373.5,341.9,384.2,341.9,384.2z"/>
	<g>
		<path fill="#FF8812" d="M306.6,247.3c-0.1,0.1-0.3,0.3-0.5,0.5C306.3,247.6,306.5,247.4,306.6,247.3z"/>
		<path fill="#FF8812" d="M306.6,247.3c0.2-0.2,0.3-0.3,0.3-0.3C306.8,247.1,306.7,247.2,306.6,247.3z"/>
		<path fill="#FF8812" d="M348.4,392.8c-10.9-4.9-37.7-87.8-52.5-110c-1.4-2.1-2.8-4.2-4.3-6.4c5.7-3.1,8.8-11.4,8.8-11.4
			c-7.6,2.8-14.8-5.2-14.8-5.2c9.1-1.1,17.9-9.5,20.5-12.1c-6.3,5.6-25.6,0.8-35.4-2.2c-4.1-6.1-6.9-10.2-6.9-10.2l-52.7,22.9
			c0,0,5,51.4,9.4,82.6c4.4,31.2-5.1,67-5.1,67s-22.2-8.2-26.6,9.1c-4.4,17.3,13.1,12.5,28.4,10.4c15.3-2.1,17.5-21.9,23.3-55.9
			c5.8-34,32.8-59.9,49.5-33.7c16.7,26.2,32,51,34.2,68.7c2.2,17.8,41.2,15.6,42-0.2C367,390.7,359.3,397.7,348.4,392.8z"/>
	</g>
	<g>
		<path fill="#D5781B" d="M217.8,397.6c4.3-0.9,8.3,1.2,8.3,1.2s8.1-33.8,4.5-65.1c-3-26.2-8.3-62.6-9.9-73.8l-10.6,4.3
			c0,0,6.9,45.9,10.4,77.3C222.9,362.9,219.9,385.4,217.8,397.6z"/>
		<path fill="#D5781B" d="M334.2,398.6c-2.2-17.8-17.5-42.5-34.2-68.7c-10-15.6-23.6-12.7-34.2-0.6c8.3-4.2,17.2-2.5,24.3,8.6
			c16.7,26.2,32,51,34.2,68.7c2.1,16.9,37.3,15.8,42,2C352.1,413.7,335.7,411.2,334.2,398.6z"/>
		<path fill="#D5781B" d="M227.1,419.5c-15.3,2.1-32.8,6.9-28.4-10.4c0.4-1.4,0.3-1.5,0.8-2.7c-4,0.2-8.3,1.4-10.7,10.7
			c-4.4,17.3,13.1,12.5,28.4,10.4c5.3-0.7,9-3.6,11.8-8.4C228.5,419.3,227.8,419.4,227.1,419.5z"/>
	</g>
	<path fill="#A55F13" d="M277.8,247.5c0,0-19.1,41.2-64.4,39.6l-3.3-23l51.9-21.4L277.8,247.5z"/>
	<path fill="#BB6A16" d="M234.3,113.3c0,0,66.3-81.3,64.4-113.3c0,0,11.6-0.5,12.8,10.4c1.1,10.9,35.4,107.6,4.7,133.5
		C285.6,169.7,234.3,113.3,234.3,113.3z"/>
	<path fill="#AA6214" d="M311.5,10.4C310.3-0.5,298.7,0,298.7,0c0,0.5,0,1,0,1.5c5.5,22.1,31.9,105.3,3.8,129
		c-20.7,17.5-50.7-2.5-68.1-17.4c-0.1,0.1-0.1,0.2-0.1,0.2s51.2,56.4,81.9,30.5C346.8,118,312.6,21.3,311.5,10.4z"/>
	<path fill="#FF8812" d="M304.2,95.8C290.8,81,275,74,260.7,70.9c4.2-6.3,12.5-20.2,12.4-30.8c0,0-18.6,19-25.3,18.5
		c0,0-1.4-12.4-4-19c0,0-4.9,15.4-11.6,17.5c-6.7,2.1-28.8-14.2-32.1-21.2c0,0-2.9,14.3,6,25.1c5.3,6.5-9.9,6.5-23.5,5
		c-11.1-10.2-26.8-22.1-47.5-31.9C89,12.2,68,18.9,68,18.9s29.9,108.1,67.4,136c-2.1,10.3-4.3,21.1-8.2,32.2
		c-11.6,33.4,37.8,63.7,81.4,75c43.7,11.3,98.4-14.3,122-42.2C354.3,192,338,133.4,304.2,95.8z"/>
	<g>
		<path fill="#E6801E" d="M259.4,237.8c-43.7-11.3-111-45-99.4-78.3c3.8-11.1,6-21.8,8.2-32.2c-23-17.1-25.2-61.2-37.3-95.2
			C87.7,12.6,68,18.9,68,18.9s29.9,108.1,67.4,136c-2.1,10.3-4.3,21.1-8.2,32.2c-11.6,33.4,37.8,63.7,81.4,75
			c34.8,9,76.6-5.5,104.1-25.8C295,241,276.3,242.2,259.4,237.8z"/>
		<path fill="#E6801E" d="M243.8,39.5c0,0-0.4,1.1-1,2.8c0.7,0,1.3,0,2,0.1C244.4,41.4,244.1,40.4,243.8,39.5z"/>
	</g>
	<g>
		<path fill="#D57819" d="M244.5,41.7c-0.2-0.8-0.5-1.5-0.7-2.1c0,0-0.2,0.7-0.6,1.7C243.6,41.4,244.1,41.6,244.5,41.7z"/>
		<path fill="#D57819" d="M225.7,247.2c-43.7-11.3-93-41.6-81.4-75c3.8-11.1,6-21.8,8.2-32.2c-28.9-21.5-53.2-90.4-62.9-121.1
			C75,16.7,68,18.9,68,18.9s29.9,108.1,67.4,136c-2.1,10.3-4.3,21.1-8.2,32.2c-11.6,33.4,37.8,63.7,81.4,75
			c42.4,10.9,95.1-12.8,119.8-39.7C300.9,242.2,260,256,225.7,247.2z"/>
	</g>
	<path fill="#F0F0F0" d="M241.4,196.4c0,0-8.8-2.5-22.7,9.2c-13.9,11.7-13.9,36.9,3.1,45.5c17,8.6,52.7,8.8,58.9-17.2
		C287,207.9,255.5,193.2,241.4,196.4z"/>
	<path fill="#D8D8D8" d="M230.8,243.2c-15.2-7.7-16.8-28.7-7-41.4c-1.6,1.1-3.3,2.3-5.1,3.9c-13.9,11.7-13.9,36.9,3.1,45.5
		c14.7,7.4,43.1,8.5,54.7-7.9C262.9,251,242.5,249.1,230.8,243.2z"/>
	<path fill="#1D1D1B" d="M235.2,207.2c0,0,6.7-5.5,19.6-2.6c12.9,2.9-8.4,12.8-8.4,12.8S237.8,215.8,235.2,207.2z"/>
	<path fill="#1D1D1B" d="M247.8,217.2c0,1.9-0.5,3.6-1.4,5.3c-0.9,1.7-2.5,3-4.4,3.5c-1.8,0.5-3.6,0.4-5.3,0
		c-1.7-0.4-3.2-0.9-4.8-1.5c-6.2-2.2-8.8-3.5-14.3-7c5.7,3.1,8.5,3.9,14.7,5.7c3.1,0.8,6.3,1.8,9,0.8c2.6-0.8,3.7-4,3.6-6.7
		L247.8,217.2z"/>
	<path fill="#1D1D1B" d="M247.5,214.5c-0.1,2,0.3,4.3,1.5,5.9c1.1,1.7,3.2,2.6,5.5,2.6c2.2,0.1,4.5-0.4,6.8-1.1
		c2.2-0.7,4.4-1.7,6.5-2.6c-4.1,2.3-8.3,4.7-13.3,5.1c-2.4,0.2-5.3-0.6-7.1-2.7c-1.8-2.1-2.6-4.6-2.7-7.3L247.5,214.5z"/>
	<g>
		
			<ellipse transform="matrix(0.9933 -0.1153 0.1153 0.9933 -20.1905 23.6289)" fill="#FFFFFF" cx="194.2" cy="186.4" rx="22.3" ry="27"/>
		<path fill="#1D1E1B" d="M216.2,183.9c-1.3-12.9-12.7-24.2-25-23.1c-6.1,0.4-11.8,4.3-15.1,9.8c-3.3,5.5-4.3,12.2-3.3,18.4
			c1,6.2,3.8,12.1,8.1,16.5c4.2,4.4,10.3,7,16.2,6.3c6-0.6,11.3-4.5,14.7-9.7C215.3,196.9,216.9,190.3,216.2,183.9z M216.5,183.8
			c0.7,6.4,0,13.2-3,19.2c-2.9,6-8.9,10.9-15.9,11.7c-3.5,0.4-7-0.1-10.2-1.5c-3.2-1.4-6-3.5-8.3-6c-4.6-5-7.1-11.6-7.7-18.2
			c-0.5-6.6,0.8-13.3,4-19c1.6-2.9,3.7-5.5,6.3-7.6c2.6-2.1,5.8-3.5,9.2-4c6.9-1,13.9,2.3,18.1,7.5
			C213.5,171,215.7,177.4,216.5,183.8z"/>
	</g>
	
		<ellipse transform="matrix(0.9933 -0.1153 0.1153 0.9933 -20.8674 24.444)" fill="#1D1E1B" cx="200.9" cy="192.7" rx="14" ry="17"/>
	<g>
		
			<ellipse transform="matrix(0.9933 -0.1153 0.1153 0.9933 -18.6953 33.5881)" fill="#FFFFFF" cx="281.1" cy="178.5" rx="20.6" ry="25"/>
		<path fill="#1D1E1B" d="M301.4,176.1c-1.2-11.9-11.8-22.2-23-21.3c-5.6,0.4-10.9,3.9-13.9,9c-3,5-3.9,11.2-3,17
			c1,5.7,3.5,11.2,7.5,15.2c3.9,4.1,9.5,6.4,14.9,5.8c5.5-0.6,10.3-4.1,13.5-8.9C300.6,188.1,302.1,182,301.4,176.1z M301.7,176.1
			c0.6,5.9,0.1,12.2-2.7,17.8c-2.7,5.6-8.2,10.1-14.8,10.9c-3.2,0.4-6.6-0.1-9.5-1.4c-3-1.3-5.5-3.2-7.7-5.5
			c-4.3-4.6-6.6-10.8-7.1-16.9c-0.4-6.1,0.8-12.3,3.8-17.6c1.5-2.6,3.4-5.1,5.9-7c2.4-1.9,5.4-3.3,8.6-3.8c6.4-1,12.9,2.2,16.8,6.9
			C299,164.2,300.9,170.2,301.7,176.1z"/>
	</g>
	
		<ellipse transform="matrix(0.9933 -0.1152 0.1152 0.9933 -19.3709 33.0148)" fill="#1D1E1B" cx="275.9" cy="184" rx="13" ry="15.7"/>
	<g opacity="0.78">
		<g>
			<g>
				
					<ellipse transform="matrix(0.9644 -0.2643 0.2643 0.9644 -42.7018 61.8617)" fill="#FFFFFF" cx="208.5" cy="189.6" rx="4.2" ry="6.3"/>
			</g>
		</g>
	</g>
	<g opacity="0.78">
		<g>
			<g>
				
					<ellipse transform="matrix(0.9644 -0.2643 0.2643 0.9644 -39.2541 77.7327)" fill="#FFFFFF" cx="269.2" cy="184.7" rx="3.9" ry="5.9"/>
			</g>
		</g>
	</g>
	<path opacity="0.69" fill="#F0F0F0" d="M238.7,209.5c0,0,3.4-4.8,8.3-4.6c4.9,0.1,10.3,0.4,9.4,2.6c-0.9,2.2-10.3-2.5-11.9-0.4
		C242.9,209.2,240.6,211.2,238.7,209.5z"/>
	<path fill="#744407" d="M324.1,62.5c-5-25.2-12.1-47.3-12.6-52.1C310.3-0.5,298.7,0,298.7,0c0.6,10.4-5.9,25.9-15.1,42.2
		C294.8,51.2,309.8,60.8,324.1,62.5z"/>
	<path fill="#6E4832" d="M220.5,377.1c0,0,10.7-3.9,18.9,1c0,0-4,31.4-10.4,41c-6.4,9.6-10.3,10.4-29.1,10.7
		c-18.7,0.3-10.7-11.9-9-18.3c1.6-6.4,13.5-7.5,24.5-3.5C215.5,408,219.8,388.6,220.5,377.1z"/>
	<path fill="#6E4832" d="M312.2,374.5c0,0,3.1-10.2,20-9.8c0,0,9.1,20,11.7,23.3c2.6,3.4,4.7,5.9,14.7,7c10,1.1,8.8,6.7,8.2,12.3
		c-0.6,5.6-9.1,13-24,11.8c-14.9-1.3-18.2-6.7-19.2-14.5C322.6,396.8,312.2,374.5,312.2,374.5z"/>
	<g>
		<path fill="#FF8812" d="M247.8,164.6c0,0,37.8,11.7,57.2-26L247.8,164.6z"/>
		<path fill="#1D1D1B" d="M247.8,164.6c5.6,0.9,11.3,1,16.9,0.5c5.5-0.6,11-1.9,16-4.2c5-2.3,9.7-5.3,13.7-9.2
			c2.2-1.8,3.8-4.1,5.7-6.2c1.8-2.2,3.2-4.6,5-6.9c-1.2,2.6-2.4,5.2-3.9,7.7c-1.7,2.3-3.1,4.9-5.2,6.9c-3.8,4.4-8.8,7.8-14.1,10.3
			c-5.3,2.4-11.2,3.7-17,3.9C259,167.5,253.2,166.6,247.8,164.6z"/>
	</g>
	<g>
		<path fill="#FF8812" d="M167.3,151.7c0,0,24.3,31.2,61.8,11.4L167.3,151.7z"/>
		<path fill="#1D1D1B" d="M167.3,151.7c4.1,4,8.7,7.3,13.5,10.1c4.9,2.7,10.1,4.7,15.5,5.7c5.4,1,11,1.2,16.5,0.2
			c2.8-0.2,5.4-1.2,8.2-1.8c2.7-0.7,5.3-1.9,8-2.8c-2.5,1.4-4.9,2.9-7.6,4.1c-2.7,1-5.4,2.2-8.3,2.7c-5.6,1.5-11.7,1.4-17.4,0.4
			c-5.8-1.1-11.3-3.3-16.1-6.6C174.9,160.4,170.6,156.4,167.3,151.7z"/>
	</g>
	<g>
		<polygon fill="#814D44" points="136,434.2 274.8,440.8 289.5,440.8 411.1,420.3 411.1,413.3 289.9,434.6 273.6,434.6 136,427.1 		
			"/>
		<polygon fill="#A86359" points="136,427.1 161.2,413.3 273.6,420.2 361.1,406 411.1,413.3 289.9,434.6 273.6,434.6 		"/>
		<g>
			<path fill="#DBDBDC" d="M289.9,434.6c0,0,9.3-7.9,34.9-9.2c25.6-1.4,77.8-15.4,77.8-15.4l-40.8-7.7c0,0-34.1,5.6-46.2,3.6
				c-12.1-2-41.1,8.7-42,14.3L289.9,434.6z"/>
			<path fill="#1D1D1B" d="M289.9,434.6c3.9-2.9,8.5-4.6,13.1-6c4.7-1.3,9.4-2.2,14.2-2.8c4.8-0.6,9.7-0.7,14.4-1.3
				c4.8-0.5,9.6-1.3,14.3-2.1c9.5-1.6,19-3.6,28.4-5.7c9.4-2.1,18.8-4.3,28.2-6.9l0,0.2l-40.8-7.5l0.1,0c-7.6,1.3-15.2,2.3-22.9,3.1
				c-7.7,0.7-15.3,1.5-23.1,0.7c-3.8-0.6-7.6-0.1-11.4,0.5c-3.8,0.7-7.5,1.6-11.1,2.7c-3.7,1.1-7.3,2.5-10.7,4.1
				c-1.7,0.8-3.4,1.7-5.1,2.7c-1.5,1-3.3,2.2-3.9,3.9l-0.1-0.1L289.9,434.6z M289.9,434.6l-16.4-14.3l-0.1-0.1l0-0.1
				c0.6-2,2.5-3.1,4-4.2c1.6-1.1,3.3-2,5.1-2.8c3.5-1.6,7.1-3,10.8-4.2c3.7-1.2,7.4-2.2,11.2-2.9c3.8-0.6,7.7-1.1,11.6-0.5
				c7.6,0.9,15.3,0,22.9-0.6c7.6-0.8,15.3-1.8,22.8-3l0.1,0l0,0l40.7,7.8l0.6,0.1l-0.5,0.1c-18.7,4.9-37.5,9.5-56.5,12.9
				c-4.8,0.8-9.5,1.6-14.4,2.1c-4.8,0.6-9.7,0.6-14.4,1.2c-4.8,0.5-9.6,1.4-14.2,2.7C298.4,430.2,293.8,431.8,289.9,434.6z"/>
		</g>
		<g>
			<path fill="#A6A7A7" d="M273.6,420.2c0,0-16.8-12.5-61.6-6.9c-44.8,5.7-55.4-7.4-55.4-7.4l-23.5,12.5c0,0,30.8,15.2,61.9,11.8
				c31.2-3.4,70.6-5.5,94.8,4.3L273.6,420.2z"/>
			<path fill="#1D1D1B" d="M273.5,420.2c-8.6-5.2-18.8-6.9-28.7-7.7c-10-0.8-20-0.3-30,0.8c-9.9,1.2-20,2-30,1.5
				c-5-0.3-10-0.9-14.9-2.2c-4.8-1.3-9.7-3-13.4-6.6l0.2,0l-23.5,12.5l0-0.3c12.1,5.5,24.9,9.3,38.1,11.1c6.6,0.9,13.2,1.2,19.8,0.8
				c3.3-0.2,6.6-0.6,9.9-0.9l9.9-0.9c13.3-1.1,26.6-1.7,39.9-1.1c13.2,0.7,26.7,2.2,39.1,7.1l-0.1,0.2L273.5,420.2z M273.6,420.2
				l16.4,14.3l0.5,0.5l-0.7-0.3c-12.4-4.8-25.8-6.1-39.1-6.7c-13.3-0.5-26.6,0-39.8,1.1L201,430c-3.3,0.3-6.6,0.7-9.9,0.9
				c-6.7,0.4-13.3,0-19.9-0.9c-13.2-1.9-26-5.8-38.1-11.4l-0.3-0.1l0.3-0.1l23.5-12.5l0.1,0l0.1,0.1c3.6,3.4,8.5,5.1,13.3,6.4
				c4.8,1.2,9.8,1.8,14.8,2.1c10,0.5,20-0.5,29.9-1.6c10-1.1,20.1-1.4,30.1-0.6C254.7,413.2,264.9,414.9,273.6,420.2z"/>
		</g>
	</g>
	<path fill="#744407" d="M135.1,34C89,12.2,68,18.9,68,18.9s8,29,21,60.9c15.9-8.1,29.5-18.5,38.6-29.2c3.9-4.6,6.7-10,8.5-16
		C135.8,34.4,135.4,34.2,135.1,34z"/>
	<g>
		<path fill="#FACFC7" d="M74.3,23.2c0,0,86.4,33.9,94.7,60.7c8.3,26.7-18.4,17.4-32.1,1.6c0,0,0.8,16.6,11.6,27.4
			c0,0-13.5,1.1-18.7-6.2c0,0,4.3,11.1,12.3,17.2c0,0,0.2,24.2-20.3,3.2C101.3,106,74.3,23.2,74.3,23.2z"/>
	</g>
	<g>
		<path fill="#E5BFB9" d="M128.6,93.4c3.9,4.5,8.9,8.5,13.8,11.3c1.5,2.9,3.5,5.7,6,8.3c0,0-9.8,0.8-15.9-3.5
			C129,101.1,128.6,93.4,128.6,93.4z"/>
		<path fill="#E5BFB9" d="M160.7,91.8c-6.3-20.3-57.4-44.7-81.8-55.3c-2.9-8.1-4.5-13.3-4.5-13.3s86.4,33.9,94.7,60.7
			c3.9,12.7,0,17.3-6.8,16.8C162.3,98.3,161.8,95.4,160.7,91.8z"/>
		<path fill="#E5BFB9" d="M133.8,131.8c-8-6.1-12.3-17.2-12.3-17.2c4.1,5.9,13.8,6.3,17.3,6.3c1,1.1,2.1,2.1,3.3,3
			c0,0,0.1,13.7-8.6,11.5C133.8,133.4,133.8,131.8,133.8,131.8z"/>
	</g>
	<path fill="#DB7B1C" d="M38.3,308c-6.7-0.9-11.8-5.5-15.5-10.6l0,0C3.7,332.3,7.7,376.7,48.3,403.4c1.2,0.8,2.5,1.6,3.8,2.3
		C22.2,378.6,20.9,339.3,38.3,308z"/>
</g>
</svg>
