<?xml version="1.0" encoding="utf-8"?>
<!-- Generator: Adobe Illustrator 17.1.0, SVG Export Plug-In . SVG Version: 6.00 Build 0)  -->
<!DOCTYPE svg PUBLIC "-//W3C//DTD SVG 1.1//EN" "http://www.w3.org/Graphics/SVG/1.1/DTD/svg11.dtd">
<svg version="1.1" id="Layer_1" xmlns="http://www.w3.org/2000/svg" xmlns:xlink="http://www.w3.org/1999/xlink" x="0px" y="0px"
	 width="450px" height="456.5px" viewBox="0 0 450 456.5" enable-background="new 0 0 450 456.5" xml:space="preserve">
<g>
	<g>
		<ellipse fill="#D4D4D4" cx="187.4" cy="426.8" rx="187.4" ry="29.7"/>
		<ellipse fill="#C7C8C8" cx="187.4" cy="426.8" rx="138.4" ry="21.9"/>
	</g>
	<path fill="#ED841F" d="M346.8,330.1c-1.6-5.8-2.3-12.6-1.1-18.6c2.5-12.4,2.4-23-15.7-50.9c-4.6-7.1-5-13.1-3-18.1
		c-4.6,0.3-7.3,0.7-7.3,0.7c-2.7-5.9,14.8-22.6,14.8-22.6c-38.3,3.2-102.4,67-90.9,106.8c11.8,40.9-30.1,61-30.1,61
		s-7.2,4.5,7.6,16.8c14.8,12.3,48-1,75.2-38C307,352.6,326.2,340,346.8,330.1L346.8,330.1z"/>
	<path fill="#DD7B1C" d="M346.8,330.1c-1.6-5.8-2.3-12.6-1.1-18.6c1.4-6.7,1.9-12.9-0.7-21.5c-26.6,14-52.3,32.3-65.5,52.6
		c-21.5,33.1-46.9,51.7-66,54.5c1.4,2.2,3.7,4.9,7.6,8.1c14.8,12.3,48-1,75.2-38C307,352.6,326.2,340,346.8,330.1L346.8,330.1z"/>
	<path fill="#D67819" d="M346.8,330.1c-1.3-4.7-2-10.1-1.6-15.2c-21.4,10-41.7,23.1-52.8,38.2c-27.3,37.1-60.4,50.4-75.2,38
		c-1.3-1-2.3-2-3.3-2.9c-0.3,0.1-0.4,0.2-0.4,0.2s-7.2,4.5,7.6,16.8c14.8,12.3,48-1,75.2-38C307,352.6,326.2,340,346.8,330.1
		L346.8,330.1z"/>
	<g>
		<path fill="#BB6A16" d="M158.1,359c0,0-9.7,29.3-5.4,38.1c0,0-31.2,14.6-36.1,12.7c-4.9-1.9-14.6-6.8-18.5,4.4
			c-3.9,11.2,22.9,9.3,22.9,9.3s33.7-19.6,43.6-21c9.9-1.4,7.6-11.3,7.6-11.3L158.1,359z"/>
	</g>
	<g>
		<path fill="#BB6A16" d="M158.8,295c0,0-32-3.9-37.8,16.4c-5.9,20.3,0.1,31.8-19.2,34.9c-19.3,3.1-42.2,16.1-37.3,28.2
			c4.9,12.2,30.3,0.9,21.2-13.4c0,0,0.7-8.2,24.2-3.8c23.5,4.4,31.3-13.6,31.3-13.6L158.8,295z"/>
	</g>
	<path fill="#FF8812" d="M227.8,379.6c0-0.3-0.1-0.5-0.1-0.8c0.7-11.8-4.4-24.8-16.3-42.9c-20.1-30.5-35-79.2-10.9-99.4l-43,15.2
		c0,0-11.7,34.1-26.6,43.9c-14.9,9.7-19.5,25.4-19.5,30.6c0,0,5.8-8.5,14.3-11.1c0,0-11,16.2-8.4,29.2c0,0,1.3-2.1,10.4-2.7
		c8.7-0.6,25.9,37.8,37.6,52.3c-2.2,26.3,4.4,29.6,4.4,29.6l-12.4,5.1l0,0c4,1.8,8.3,4.6,9.5,8.5c15.9-6.9,30.4-13.6,30.4-13.6
		S229.8,403,227.8,379.6z"/>
	<g>
		<g>
			<path fill="#EC831F" d="M149.6,276c8.7-5.7,16.5-17.9,22.5-29.4l-14.6,5.2c0,0-5.2,15.1-13.1,28.1
				C146,278.5,147.7,277.2,149.6,276z"/>
		</g>
		<g>
			<path fill="#EC831F" d="M172.3,391.1c-14.8-18.4-15.8-57.4-26.9-56.7c-11.5,0.7-13.2,3.4-13.2,3.4c-3.3-16.5,10.7-37,10.7-37
				c-10.7,3.3-18.1,14-18.1,14c0-3.6,1.8-11.3,6.5-19.5c-0.2,0.1-0.4,0.3-0.6,0.4c-14.9,9.7-19.5,25.4-19.5,30.6
				c0,0,5.8-8.5,14.3-11.1c0,0-11,16.2-8.4,29.2c0,0,1.3-2.1,10.4-2.7c8.7-0.6,25.9,37.8,37.6,52.3c-2.2,26.3,4.4,29.6,4.4,29.6
				S166.4,404.2,172.3,391.1z"/>
		</g>
	</g>
	<path fill="#E4801E" d="M227.8,379.6c0-0.3-0.1-0.5-0.1-0.8c0.7-11.8-4.4-24.8-16.3-42.9c-20.1-30.5-35-79.2-10.9-99.4l-15.1,5.3
		c-12.6,23.3,0.9,63.6,18.4,90.2c11.9,18.1,17,31.2,16.3,42.9c0,0.3,0.1,0.5,0.1,0.8c2,23.4-30.7,43.9-30.7,43.9
		s-12.5,5.8-27.1,12.2c1.9,1.5,3.5,3.3,4.2,5.4c15.9-6.9,30.4-13.6,30.4-13.6S229.8,403,227.8,379.6z"/>
	<path fill="#FF8812" d="M174.2,326.4l-14.6-33.5c0,0-29.2,24.8-21.9,50.2c5.5,19.1-18.4,29.9-37.3,40.1l0,0
		c3.2,1.8,6.6,4.8,7.5,10.1c5-2,10.6-3.8,16.6-4.9c22.4-3.9,41.9-21.5,41.9-21.5S156.2,337.5,174.2,326.4z"/>
	<path fill="#D97A1C" d="M174.2,326.4l-4.9-4.9c-18,11.1-7.8,40.5-7.8,40.5s-19.5,17.5-41.9,21.5c-5.1,0.9-9.8,2.3-14.2,3.9
		c1.1,1.5,2,3.4,2.5,5.8c5-2,10.6-3.8,16.6-4.8c22.4-3.9,41.9-21.5,41.9-21.5S156.2,337.5,174.2,326.4z"/>
	<g>
		<path fill="#3A2000" d="M108.2,357.1c-0.8-4-3.5-7.8-6.5-10.8c-19.3,3.1-42,16.1-37.1,28.2c4.9,12.2,30.3,0.9,21.2-13.4
			C85.7,361.2,86.5,353.5,108.2,357.1z"/>
	</g>
	<g>
		<path fill="#3A2000" d="M144.5,410.8c-1.1-3.1-3.5-5.7-5.8-7.4c-8.9,3.7-19.3,7.5-22,6.5c-4.9-1.9-14.6-6.8-18.5,4.4
			c-3.9,11.2,22.9,9.3,22.9,9.3S132.8,416.6,144.5,410.8z"/>
	</g>
	<g>
		<path fill="#6E4832" d="M87.5,421c11.7-10.2-2.8-14.6-2.8-14.6s9.4-7.6,23.2-13.1c-0.9-5.3-4.3-8.3-7.5-10.1
			c-6.2,3.3-11.8,6.6-15.7,10.1C69,407.3,75.8,431.2,87.5,421z"/>
	</g>
	<g>
		<path fill="#6E4832" d="M166.7,437.1c-1.2-3.9-5.5-6.7-9.5-8.5l-15.6,6.4c0,0-22.4-7.7-24.8,11.3c0,0,0.9,5.4,11.4,4.9
			C133.4,450.9,150.7,444,166.7,437.1z"/>
	</g>
	<g>
		<path fill="#BB6A16" d="M122.1,106.3c0,0,14.8-44.4,17.3-66.6c2.4-22.2,9.1-34.1,9.1-34.1s-33,33-52.7,54.7
			C76,82,56.9,112.4,58.9,118.9C61,125.5,122.1,106.3,122.1,106.3z"/>
	</g>
	<path fill="#744407" d="M139.3,39.7c2.4-22.2,9.1-34.1,9.1-34.1s-15.1,15.1-30.9,31.6c-3.1,6-4.6,10.6-4,12.7
		c0.8,2.7,11.9,1,24.5-1.9C138.6,45,139,42.2,139.3,39.7z"/>
	<g>
		<path fill="#FF8812" d="M187.4,85.8c-35.7-9.7-62.4-8.4-62.4-8.4s-61,9.7-77.2,51.7c-8.1,10.7-21.6,25.6-31,22.1
			c0,0,8.8,15.5,19,9.9c0,0,6,31.2-12.2,37.4c0,0,10.1-0.7,19.8-6.1c5.3,23.6,19.1,43.6,42.3,53.9c41.2,18.2,136.1,6.2,152.3-47.7
			C254.3,144.6,223.1,95.6,187.4,85.8z"/>
	</g>
	<g>
		<g>
			<path fill="#EA821F" d="M187.4,85.8c-7.3-2-14.2-3.5-20.5-4.7c30.2,25.7,49.5,74.4,33.8,126.6c-5.3,17.6-17.2,31.6-32.8,42.4
				c32.2-7,61.8-23.7,70.2-51.7C254.3,144.6,223.1,95.6,187.4,85.8z"/>
		</g>
	</g>
	<g>
		<g>
			<path fill="#D7791A" d="M180.8,84.1c-0.7-0.2-1.4-0.4-2-0.5c0.9,0.6,1.8,1.2,2.7,1.9C181.3,85,181,84.6,180.8,84.1z"/>
		</g>
		<g>
			<path fill="#D7791A" d="M217.4,104.6c10.8,25.2,14.1,56.1,4.4,88.2c-8.4,27.8-32.8,47.1-62.6,58.7c-0.2,0.1-0.3,0.3-0.5,0.4
				c35.6-5.8,70.1-22.8,79.3-53.4C249.3,161,237.6,125.8,217.4,104.6z"/>
		</g>
	</g>
	<g>
		<path fill="#FF8812" d="M140.9,89.7c0,0,17.5-35.9,61.3-64.6C246-3.7,268.4,0.2,268.4,0.2s-17,128.1-55.7,153.2
			C192.4,166.5,143.8,126.6,140.9,89.7z"/>
	</g>
	<path fill="#744407" d="M215.6,16.8c7.6,19.1,24.6,36.7,40.8,45.1c8.2-33,12-61.8,12-61.8S250.6-2.9,215.6,16.8z"/>
	<g>
		<path fill="#BB6A16" d="M192.6,246.5c0-2.6,0.2-5.1,0.7-7.4l-35.9,12.7c0,0-3.2,9.4-8.4,19.7c12.9-2,27.1-5.4,39.5-11.3
			C189.2,255.2,190.5,250.6,192.6,246.5z"/>
	</g>
	<g>
		<g>
			<path fill="#FFFFFF" d="M116.7,240.4c0,0-20.6-17.7-11.4-34c6-10.6,13.1-17.4,22.8-14.1c15.7,5.3,15.7,29.5,15.7,29.5
				L116.7,240.4z"/>
		</g>
		<g>
			<path fill="#1D1D1B" d="M115.9,241.4c-3.3-3-6.1-6.4-8.5-10.1c-2.4-3.7-4.3-7.8-5-12.3c-0.8-4.4,0.1-9.2,2.4-13
				c2.2-3.7,4.7-7.4,8-10.4c1.6-1.5,3.5-2.8,5.6-3.6c2.1-0.8,4.4-1.1,6.6-0.8c4.4,0.6,8.5,2.9,11.3,6.3c2.9,3.3,4.6,7.4,5.8,11.6
				c1.1,4.2,1.8,8.5,1.8,12.8c-0.2-4.3-0.9-8.6-2.1-12.7c-1.3-4.1-3.1-8.1-6-11.3c-2.8-3.2-6.8-5.4-10.9-5.8
				c-4.2-0.5-8.3,1.5-11.2,4.5c-3,2.9-5.4,6.5-7.5,10.3c-2,3.6-2.7,7.9-1.9,12c0.8,4.1,2.7,7.9,5,11.4c2.4,3.5,5.2,6.7,8.3,9.4
				L115.9,241.4z"/>
		</g>
	</g>
	<g>
		<path fill="#1D1D1B" d="M106.6,203.7c0,0,25.9,9.3,26.4,27.8c0.5,18.5-18.5,6.7-18.5,6.7S96.7,219.2,106.6,203.7z"/>
	</g>
	<g>
		<path fill="#F0F0F0" d="M70.9,254.4c0,0,12.2-12.8,33.6-14c21.4-1.1,25.3-18.2,65-27.9c1.7-0.4,3.4-0.8,5.1-1.2
			c25.4-5.9,36.6,30.9,12.3,40.1c-0.3,0.1-0.7,0.3-1,0.4c-34.6,12.4-55.1,23.1-60.9,20.7c-5.8-2.4,8.1-9.1,5.2-15.9
			c-2.9-6.8-11.5,11-32.5,9.5C76.8,264.6,70.9,254.4,70.9,254.4z"/>
	</g>
	<g>
		<path fill="#D2D3D3" d="M130.2,256.5c0,0,0.7-1.6,0.7-1.6c1.4-2.2,2.2-4.5,1.2-6.6c-2.9-6.8-12.2,12.7-33.1,11.2
			c-13.4-0.9-20.6-5.5-24.1-8.6c-2.6,1.9-4,3.4-4,3.4s5.8,10.2,26.8,11.7C118.7,267.5,127.3,249.7,130.2,256.5z"/>
	</g>
	<g>
		<path fill="#1D1D1B" d="M70.9,254.4c0,0,6.7-8.8,17.5-10.4c10.8-1.6-5.5,11.3-5.9,14.5c-0.4,3.2-0.3,4.3-2.5,3.9
			C77.9,262,72,257.7,70.9,254.4z"/>
	</g>
	<g opacity="0.78">
		<g>
			
				<ellipse transform="matrix(0.8375 -0.5464 0.5464 0.8375 -107.4747 99.5898)" fill="#FFFFFF" cx="113.7" cy="230.5" rx="4" ry="5.9"/>
		</g>
	</g>
	<g>
		<path fill="#1D1D1B" d="M88.4,207.6c1-9.3,4.1-18.5,10.1-26c1.5-1.9,3.2-3.6,5.1-5.1c1.9-1.5,4.1-2.7,6.3-3.6
			c4.5-1.8,9.5-2.5,14.3-2c4.8,0.4,9.5,1.6,13.9,3.6c4.3,2.1,8.3,5.2,11,9.3c5.4,8.1,6.3,18.3,4.5,27.3c0.4-4.6,0.3-9.3-0.7-13.8
			c-0.9-4.5-2.6-8.8-5.3-12.4c-2.7-3.6-6.3-6.4-10.4-8.3c-4.1-1.8-8.6-2.9-13.1-3.3c-4.5-0.4-9,0.2-13.2,1.7c-2.1,0.8-4,1.9-5.9,3.2
			c-1.8,1.3-3.5,2.9-5,4.5c-3,3.4-5.4,7.4-7.2,11.6C90.7,198.5,89.3,203,88.4,207.6z"/>
	</g>
	<g>
		<path fill="#DDDDDD" d="M185.9,251.7c0.5-0.2,1-0.4,1.5-0.6c15.8-6.3,16.1-24.4,7.1-34.1c-8.8,12.7-22.6,26.7-43.3,34.1
			c-7.3,2.6-14,5.2-20.3,7.6c-0.1,0.3-0.2,0.5-0.3,0.8c-0.1,0.1-0.1,0.3-0.2,0.4c-0.1,0.3-0.3,0.5-0.4,0.8c-0.1,0.1-0.1,0.3-0.2,0.4
			c-0.2,0.3-0.3,0.6-0.5,0.8c0,0.1-0.1,0.1-0.1,0.2c-1.3,1.9-2.9,3.8-4.1,5.4c0,0,0,0.1-0.1,0.1c-0.2,0.3-0.5,0.7-0.7,1c0,0,0,0,0,0
			c-0.2,0.3-0.4,0.6-0.5,0.9c0,0,0,0.1,0,0.1c-0.1,0.2-0.2,0.5-0.2,0.7c0,0.1,0,0.2,0,0.2c0,0.2,0,0.3,0,0.5c0,0.1,0,0.2,0.1,0.2
			c0.1,0.1,0.2,0.3,0.3,0.4c0.1,0.1,0.1,0.1,0.2,0.2c0.2,0.2,0.5,0.3,0.8,0.5c0,0,0,0,0,0c0.7,0.3,1.7,0.4,2.9,0.3
			C136.2,272.1,155.6,262.6,185.9,251.7C185.9,251.7,185.9,251.7,185.9,251.7z"/>
	</g>
	<g>
		<path fill="#C4C4C4" d="M185.9,251.7c0.5-0.2,1-0.4,1.5-0.6c6.2-2.5,10-6.8,11.8-11.7c-3.6,2.2-7.6,4.2-12,5.8
			c-34.5,12.4-54.9,23-60.8,20.7c-0.2,0.3-0.4,0.6-0.6,0.8c-0.1,0.1-0.2,0.3-0.3,0.4c-0.2,0.2-0.3,0.4-0.4,0.6
			c-0.1,0.2-0.2,0.3-0.3,0.5c-0.1,0.2-0.2,0.4-0.3,0.5c-0.1,0.2-0.2,0.3-0.2,0.5c-0.1,0.2-0.2,0.3-0.2,0.5c-0.1,0.1-0.1,0.3-0.1,0.4
			c0,0.1-0.1,0.3-0.1,0.4c0,0.1,0,0.3,0,0.4c0,0.1,0,0.2,0.1,0.3c0.1,0.1,0.2,0.3,0.3,0.4c0.1,0.1,0.1,0.2,0.2,0.2
			c0.2,0.2,0.5,0.4,0.8,0.5c0,0,0,0,0,0c0.7,0.3,1.7,0.4,2.9,0.3C136.2,272.1,155.6,262.6,185.9,251.7
			C185.9,251.7,185.9,251.7,185.9,251.7z"/>
	</g>
	<g>
		<path fill="#FACFC7" d="M262.6,5.5c0,0-83.2,46.7-87.9,75.1c-4.7,28.4,21.2,15.1,32.9-2.9c0,0,1.6,17-7.9,29.6c0,0,14-0.8,18.2-9
			c0,0-2.8,11.9-10.1,19.2c0,0,3.2,24.7,21.1,0.4C246.7,93.7,262.6,5.5,262.6,5.5z"/>
	</g>
	<g>
		<path fill="#E5BFB9" d="M217.1,84.6c-3.4,5.2-7.9,9.9-12.5,13.4c-1.2,3.2-2.8,6.3-5,9.3c0,0,10-0.6,15.7-5.8
			C217.8,92.5,217.1,84.6,217.1,84.6z"/>
		<path fill="#E5BFB9" d="M184.2,87.5c3.6-21.5,52.2-53.6,75.6-67.8c1.8-8.7,2.8-14.2,2.8-14.2s-83.2,46.7-87.9,75.1
			c-2.2,13.5,2.5,17.6,9.3,16.2C183.5,94.4,183.6,91.3,184.2,87.5z"/>
		<path fill="#E5BFB9" d="M217.2,124.5c7.3-7.3,10.1-19.2,10.1-19.2c-3.4,6.6-13.1,8.4-16.8,8.9c-0.9,1.2-1.9,2.4-3,3.5
			c0,0,1.8,14,10.4,10.5C217.4,126.1,217.2,124.5,217.2,124.5z"/>
	</g>
	<g>
		<path fill="#F0F0F0" d="M327,242.5c-2,5-1.6,11,3,18.1c18,27.9,18.2,38.4,15.7,50.9c-1.2,6-0.4,12.8,1.1,18.6
			c32-15.4,67.3-24.1,79.2-22.5c19.7,2.6,21.5,24.7,21.5,24.7s13.6-22.9-22.6-60.7C395.9,241.2,345.7,241.3,327,242.5z"/>
	</g>
	<g>
		<g>
			<path fill="#E4E4E4" d="M422.1,268.7c-14-0.4-46,7.6-77.1,21.3c2.6,8.6,2,14.8,0.7,21.5c-1.2,6-0.4,12.8,1.1,18.6
				c32-15.4,67.3-24.1,79.2-22.5c19.7,2.6,21.5,24.7,21.5,24.7s13.6-22.9-22.6-60.7C424,270.6,423.1,269.6,422.1,268.7z"/>
		</g>
	</g>
	<g>
		<g>
			<path fill="#D2D2D2" d="M443.8,318.1c0,0-1.8-22.1-21.5-24.7c-11.7-1.5-45.7,6.7-77.1,21.5c-0.4,5.1,0.3,10.5,1.6,15.2
				c32-15.4,67.3-24.1,79.2-22.5c19.7,2.6,21.5,24.7,21.5,24.7s6.5-10.9-1.4-30.1C447.1,312.4,443.8,318.1,443.8,318.1z"/>
		</g>
	</g>
	<g>
		<path fill="#1D1D1B" d="M65.7,364.2c-0.8,1-1.6,1.8-2.6,2.5c-0.9,0.7-1.9,1.4-3.1,1.8c-1.1,0.4-2.4,0.6-3.6,0.3
			c-1.2-0.3-2-1.1-2.8-1.9c0.9,0.6,1.9,1.2,2.9,1.2c1,0,2-0.3,2.8-0.8c0.8-0.5,1.6-1.3,2.2-2.1c0.6-0.8,1.2-1.7,1.7-2.5L65.7,364.2z
			"/>
		<circle fill="#1D1D1B" cx="53.7" cy="366.8" r="1.3"/>
		<path fill="#1D1D1B" d="M65.8,363.1c0,1.3-0.2,2.4-0.5,3.6c-0.3,1.1-0.7,2.3-1.3,3.3c-0.6,1-1.5,1.9-2.6,2.4
			c-1.1,0.5-2.3,0.4-3.4,0.3c1.1-0.1,2.2-0.2,3-0.9c0.8-0.6,1.4-1.5,1.7-2.4c0.3-0.9,0.5-2,0.5-3c0-1-0.1-2.1-0.3-3L65.8,363.1z"/>
		<circle fill="#1D1D1B" cx="58" cy="372.6" r="1.3"/>
		<g>
			<path fill="#E30613" d="M64.5,367.7c0,0-7.7-13.3,2.5-19.9c10.2-6.6,19.6,2.7,19.6,2.7S77.2,365.9,64.5,367.7z"/>
			
				<ellipse transform="matrix(0.9069 0.4213 -0.4213 0.9069 155.1824 5.7581)" fill="#1D1D1B" cx="64.6" cy="354.1" rx="1.5" ry="2.8"/>
			
				<ellipse transform="matrix(0.7073 0.7069 -0.7069 0.7073 276.2122 57.2894)" fill="#1D1D1B" cx="68.9" cy="362.2" rx="1.5" ry="2.8"/>
			
				<ellipse transform="matrix(0.8133 0.5818 -0.5818 0.8133 221.9073 20.1928)" fill="#1D1D1B" cx="79.5" cy="355.9" rx="1.5" ry="2.8"/>
			
				<ellipse transform="matrix(0.8134 0.5818 -0.5818 0.8134 218.3436 19.0478)" fill="#1D1D1B" cx="79.5" cy="349.8" rx="1.1" ry="2.1"/>
			
				<ellipse transform="matrix(0.8135 0.5816 -0.5816 0.8135 217.477 23.7287)" fill="#1D1D1B" cx="71.7" cy="350.9" rx="2" ry="3.9"/>
		</g>
	</g>
</g>
</svg>
