<?xml version="1.0" encoding="utf-8"?>
<!-- Generator: Adobe Illustrator 17.1.0, SVG Export Plug-In . SVG Version: 6.00 Build 0)  -->
<!DOCTYPE svg PUBLIC "-//W3C//DTD SVG 1.1//EN" "http://www.w3.org/Graphics/SVG/1.1/DTD/svg11.dtd">
<svg version="1.1" id="Layer_1" xmlns="http://www.w3.org/2000/svg" xmlns:xlink="http://www.w3.org/1999/xlink" x="0px" y="0px"
	 width="526.5px" height="458.3px" viewBox="0 0 526.5 458.3" enable-background="new 0 0 526.5 458.3" xml:space="preserve">
<g>
	<ellipse fill="#D4D4D4" cx="236.2" cy="420.1" rx="236.2" ry="38.2"/>
	<ellipse fill="#C7C8C8" cx="236.2" cy="420.1" rx="176" ry="28.4"/>
	<path fill="#BB6A16" d="M216.2,389c0,0-6.2,8.4,0,17.1c6.2,8.7-39.1-6.2-39,14.3c0,10.2,75.4,0,75.4,0l-5.7-31.4H216.2z"/>
	<path fill="#3A2000" d="M216.7,407.7c-1.2,5-39.6-6.2-39.6,12.7c0,7.9,45.6,3.5,65.8,1.2C235.8,414.4,226.6,409.8,216.7,407.7z"/>
	<path fill="#BB6A16" d="M157.2,330.5c0,0-48.6,35.5-48.1,45.9c0.5,10.4,6,32.2,19.7,24c13.7-8.2,14.2-21.8,4.4-21.8
		c0,0,1.1-9.1,12-12.2c10.9-3.1,25.4-10.2,25.4-10.2L157.2,330.5z"/>
	<path fill="#FF8812" d="M292.7,342c-21.1-18.2-83.7-8.2-82.3-45.2c1.5-37,36.4-65.1,36.4-78L180.6,238c0,0-5.6,7.7-12.3,18.7
		c-8.2,2.5-23,8.3-28.5,18.3c0,0,8.2-1.7,12.8,0c0,0-24.8,4.9-26.6,21.7c0,0,11.3-5.3,15.9-1.4c0,0-12.8,13.4-12.5,30.3
		c0,0,11.2-9.7,17.2-7.7c2.1,26.3,16.7,64.3,44.9,73.3c30.6,9.8,49.5,11.3,51.7,16.7c2.2,5.4,0,8.3,0,8.3s-0.1,0-0.1,0l0,0
		c6.6,3.1,13.6,7.2,18.6,12.5c15.2-1,26.6-2.3,26.6-2.3s-3.6-14.6,5.8-27.7C303.6,385.7,313.8,360.2,292.7,342z"/>
	<g>
		<path fill="#E4801E" d="M297.4,393.4c-1.2,1.7-2.2,3.3-3,5c1.4-2,2.8-4.2,4.1-6.6C298.1,392.4,297.7,392.9,297.4,393.4z"/>
		<path fill="#E4801E" d="M225.9,253.7c7.1-11.3,14.8-20.6,18.5-27.7C239.5,233.5,232.2,242.8,225.9,253.7z"/>
		<path fill="#E4801E" d="M155.8,269.7c-3.6-1.3-9.2-0.6-11.6-0.2c-1.8,1.7-3.3,3.5-4.4,5.6c0,0,1.1-0.2,2.7-0.4
			C149.2,271,155.8,269.7,155.8,269.7z"/>
		<path fill="#E4801E" d="M141.3,294.9c2.2-3.1,3.9-5,3.9-5c-4.6-3.8-15.9,1.4-15.9,1.4c0.2-1.6,0.6-3.1,1.2-4.5
			c-2.3,2.7-4,6-4.4,9.9C126,296.8,136.3,292,141.3,294.9z"/>
		<path fill="#E4801E" d="M243.1,407.9c0.4,0.9,0.6,1.7,0.7,2.5c1.6,0.3,2.5,0.5,2.5,0.5s2.2-2.9,0-8.3c-2.2-5.4-21.1-6.9-51.7-16.7
			c-28.2-9-42.8-46.9-44.9-73.3c-6-2-17.2,7.7-17.2,7.7c-0.1-7.6,2.4-14.5,5.2-19.8c-3.7,5.4-8.6,14.6-8.5,25.2
			c0,0,11.2-9.7,17.2-7.7c2.1,26.3,16.7,64.3,44.9,73.3C222,401,241,402.5,243.1,407.9z"/>
	</g>
	<path fill="#FF8812" d="M180.6,275c0,0-26.3,24-19.8,42.2c4.1,11.5,1.3,43.2-6.1,66.6c4.6,3.5,10.2,7.1,15.1,8.4
		c3.5-7,7.2-13.4,10.8-17.7c10.1-12.1,22.5-20.5,35.6-20.3L180.6,275z"/>
	<path fill="#E4801E" d="M210.8,342.3c-11.1,1.8-21.5,9.4-30.2,19.9c-5.4,6.5-11,17.5-15.7,28.2c1.7,0.8,3.3,1.5,4.9,1.9
		c3.5-7,7.2-13.4,10.8-17.7c10.1-12.1,22.5-20.5,35.6-20.3L210.8,342.3z"/>
	<path fill="#EA821F" d="M473.9,192.6c-22.6-14.9-46.5-17.6-67.5-15.3l0,0c8.7,9.2,19.2,22,22.2,33.1c5.4,20-15.8,15.8-21.2,25.5
		c-5.4,9.7-4.5,9.4,5.9,47.9c8.3,30.6,0.6,27.6-11.1,31.1l0,0c12.8,15.9-21.8,40.4-60,37c-38.6-3.5-47.3,6.7-47.3,6.7l-6.6,15.7
		c0,0,5.8-2.9,32,0c26.2,2.9,109.9,29.9,168.9-10.8C548.2,322.8,532.9,231.6,473.9,192.6z"/>
	<path fill="#DB791C" d="M473.9,192.6c-22.6-14.9-46.5-17.6-67.5-15.3c0.7,0.7,1.4,1.5,2.1,2.3c0.9,0.6,1.8,1.1,2.7,1.7
		c59,38.9,74.3,130.1,15.3,170.8c-42.8,29.5-98.7,23.4-136.1,16.7l-2.3,5.4c0,0,5.8-2.9,32,0c26.2,2.9,109.9,29.9,168.9-10.8
		C548.2,322.8,532.9,231.6,473.9,192.6z"/>
	<path fill="#D17519" d="M473.9,192.6c-7.2-4.8-14.5-8.3-21.9-10.8c58.3,39.2,73.2,129.8,14.5,170.3c-59,40.7-142.7,13.7-168.9,10.8
		c-1.6-0.2-3-0.3-4.5-0.5l-4.9,11.8c0,0,5.8-2.9,32,0c26.2,2.9,109.9,29.9,168.9-10.8C548.2,322.8,532.9,231.6,473.9,192.6z"/>
	<path fill="#DD7B1D" d="M201.6,89.4c0,0-78.6-69.4-135.4-68.6c0,0,49.5-38.5,135.4-10.8C287.6,37.7,317.8,95.5,306,147.8
		C294.1,200,201.6,89.4,201.6,89.4z"/>
	<path fill="#744407" d="M66.2,20.8c26.5-0.4,57.7,14.5,83.5,30.5c2.6-17.1,0.8-34.6-6-51.3C93.9-0.7,66.2,20.8,66.2,20.8z"/>
	<g>
		<path fill="#EA821F" d="M292.7,342c-21.1-18.2-83.7-8.2-82.3-45.2c1.5-37,36.4-65.1,36.4-78L180.6,238c0,0-1.4,1.9-3.5,5
			l47.3-13.8c0,12.9-34.9,41-36.4,78c-1.5,37,61.2,27,82.3,45.2c21.1,18.2,10.9,43.7,1.5,56.8c-4.9,6.7-6.3,13.8-6.5,19.1
			c13.3-1,23-2,23-2s-3.6-14.6,5.8-27.7C303.6,385.7,313.8,360.2,292.7,342z"/>
	</g>
	<path fill="#BB6A16" d="M228,250.5c8.7-13.2,17.5-23.5,18.7-30.3c-0.4-0.4-0.7-0.7-1.1-1.1L180.6,238c0,0-3.7,5-8.6,12.7
		C190.6,251.5,209.3,251.4,228,250.5z"/>
	<path fill="#BB6A16" d="M150.7,64.6c0,0-83-19.8-123-8.1c0,0,90.3,20.7,96.1,40.6C129.6,117,182.7,85.7,150.7,64.6z"/>
	<path fill="#744407" d="M27.6,56.5c0,0,37.8,8.7,66.1,20.2c5.7-6.1,8.4-14,3.3-21.5C72.9,52.4,45.8,51.2,27.6,56.5z"/>
	<path fill="#FF8812" d="M264.3,58.8c0,0-134.7-15.8-160.2,36.2c-25.5,51.9-51,28.2-51,28.2s14.6,19.6,35.7,11.1
		c0,0,0,27.3-24.8,25.5c0,0,16,8.9,23.3,6.8c7.3-2.1,2.9,18.3-6.6,18.3c0,0,13.8,5.1,18.2,0c0,0,9.5,57.3,71.3,58.1
		c61.9,0.8,121.6-38.7,131.8-76.5C312.3,128.7,315.2,74.1,264.3,58.8z"/>
	<path fill="#EC831F" d="M264.3,58.8c0,0-87.6-10.2-134.8,13C152.2,72.1,169,74,169,74c51,15.3,48.1,69.9,37.9,107.7
		c-5.8,21.6-27.8,43.7-57.1,58.6c6.1,1.6,12.9,2.6,20.6,2.7c61.9,0.8,121.6-38.7,131.8-76.5C312.3,128.7,315.2,74.1,264.3,58.8z"/>
	<path fill="#DD7B1D" d="M264.3,58.8c0,0-42-4.9-83.5-0.2c19.1,0.5,32.4,2.1,32.4,2.1c51,15.3,48.1,69.9,37.9,107.7
		c-8.3,30.6-49.1,62.4-97.2,72.9c5,1,10.5,1.6,16.5,1.7c61.9,0.8,121.6-38.7,131.8-76.5C312.3,128.7,315.2,74.1,264.3,58.8z"/>
	<g>
		<path fill="#FFFFFF" d="M139.7,218.7c0,0-28.3-28.1-13-49.1c15.3-21,31.2,2.7,30.9,28.8L139.7,218.7z"/>
		<path fill="#1D1D1B" d="M138.7,219.7c-6.6-7.2-12.2-15.3-15.5-24.6c-1.5-4.6-2.4-9.6-1.7-14.6c0.3-2.5,1-4.9,2.1-7.1
			c1.1-2.2,2.5-4.3,4.1-6.1c1.6-1.8,3.5-3.5,5.6-4.8c2.2-1.3,4.8-1.8,7.3-1.3c5.1,1.1,8.5,5.3,10.8,9.4c4.6,8.5,6.3,18.3,6.2,27.8
			c-0.1-9.5-2-19.2-6.8-27.5c-2.4-4-5.8-7.9-10.4-8.7c-2.2-0.3-4.6,0.1-6.5,1.3c-2,1.2-3.7,2.8-5.2,4.6c-1.5,1.8-2.8,3.8-3.7,5.9
			c-0.9,2.1-1.5,4.4-1.8,6.7c-0.5,4.6,0.4,9.3,2,13.7c3.3,8.8,9,16.6,15.5,23.3L138.7,219.7z"/>
	</g>
	<path fill="#1D1D1B" d="M135.2,226.4c0.8-3.6,2.3-6.4,4-9.3c1.8-2.8,3.7-5.4,5.9-7.8c4.4-4.8,9.3-9.1,14.6-12.8
		c2.6-2,5.4-3.5,8.1-5.3c2.8-1.6,5.6-3.2,8.5-4.7c2.9-1.4,5.8-2.8,8.7-4.2l8.9-3.8l-8.7,4.1c-2.9,1.4-5.7,3-8.5,4.5
		c-2.8,1.6-5.5,3.3-8.2,4.9c-2.6,1.9-5.4,3.5-7.8,5.5c-5.1,3.8-9.8,8.2-13.9,13c-2,2.4-3.8,5-5.4,7.7c-1.5,2.7-2.8,5.7-3.3,8.4
		L135.2,226.4z"/>
	<path fill="#F0F0F0" d="M105.9,233.3c0,0-1.9-14.4,14.7-14.6c16.7-0.2,51.3-1.2,57.4,11.9c6.1,13.1,0.6,19.3-7.6,23.3
		C158.9,259.5,109.1,258.5,105.9,233.3z"/>
	<path fill="#D9DADA" d="M178,230.6c-0.8-1.7-2-3.1-3.6-4.3c4.2,11.3-1.1,16.9-8.7,20.6c-9.4,4.6-44.6,4.7-58.7-9.2
		c8,20.9,52.6,21.5,63.5,16.3C178.6,250,184.1,243.7,178,230.6z"/>
	<path fill="#1D1D1B" d="M124.3,194.4c0,0,1.6-7.8,8.7-5.8c7.1,2,15.1,18.4,15.1,18.4l-8.5,11.8
		C139.7,218.7,126.5,205.7,124.3,194.4z"/>
	<path fill="#1D1D1B" d="M111.6,194.8c-3.7-6.7-5.8-14.3-6.1-22.1c-0.2-3.9,0.4-7.8,1.2-11.6c0.6-1.9,1.1-3.8,2-5.6l1.2-2.7l1.5-2.5
		c4.1-6.7,10.7-12,18.2-14.3c7.5-2.4,15.6-2.1,22.8,0.2c-3.8-0.6-7.6-0.9-11.3-0.5c-3.7,0.2-7.4,1-10.9,2.3
		c-6.9,2.6-12.8,7.5-16.6,13.8l-1.5,2.3l-1.2,2.5c-0.9,1.6-1.3,3.4-1.9,5.1c-1,3.5-1.5,7.2-1.6,10.9c-0.1,3.7,0.3,7.5,1,11.2
		C109.3,187.6,110.3,191.3,111.6,194.8z"/>
	<g opacity="0.78">
		<g>
			
				<ellipse transform="matrix(0.8435 -0.5372 0.5372 0.8435 -89.9564 105.3741)" fill="#FFFFFF" cx="135.8" cy="207" rx="3.5" ry="7.1"/>
		</g>
	</g>
	<path fill="#1D1D1B" d="M118.5,218.7c0,0-22.4-0.1-20.5,6.6c1.9,6.7,7.2,10.5,10.2,10.6C111.1,236.1,108.9,223.5,118.5,218.7z"/>
	<path fill="#1D1D1B" d="M109.3,232.5c1.9,2.5,4.5,4.8,7.3,6.6c2.8,1.7,6.1,2.8,9.4,2.9c3.3,0,6.7-0.7,9.7-2.4
		c1.6-0.7,2.9-1.8,4.3-2.8c1.3-1.1,2.6-2.3,3.9-3.4c-1.2,1.2-2.4,2.5-3.7,3.7c-1.4,1-2.7,2.3-4.2,3.1c-2.9,1.9-6.5,3-10,3.2
		c-3.6,0.2-7.2-0.8-10.4-2.5c-3.2-1.7-6-3.9-8.5-6.7L109.3,232.5z"/>
	<path fill="#FACFC7" d="M198.2,86.4c0,0-53.1-60.6-91.6-65.6c0,0,32.4-17,93.2,7.4c60.8,24.4,95,81.3,89.9,106.9
		c-5.1,25.6-40.4,3.2-40.4-5.1c0-8.2,6.2-17.7-3.3-37c0,0,2.6,19.2-8,21.8c-10.6,2.6,2.4-24.4-11.9-44.8c0,0,2.4,30.2-7,26.6
		C209.7,93,198.2,86.4,198.2,86.4z"/>
	<g>
		<path fill="#E5BFB9" d="M212.3,63.9c0,0,2.3,28.3-6.2,26.8c3.9,2,8.6,4.3,13,5.9c0.2,0.1,0.3,0.1,0.5,0.1
			C219.8,87.6,220,74.8,212.3,63.9z"/>
		<path fill="#E5BFB9" d="M109.4,19.6c-1.9,0.7-2.8,1.2-2.8,1.2c3.4,0.4,6.9,1.3,10.4,2.5C114.5,22,111.9,20.7,109.4,19.6z"/>
		<path fill="#E5BFB9" d="M199.8,28.2c-0.4-0.2-0.8-0.3-1.3-0.5c52.9,26.7,82.1,77.4,77.4,101.2c-2.2,10.9-9.8,13.1-17.8,11.4
			c10.8,7.4,28.2,12.2,31.7-5.2C294.8,109.5,260.6,52.6,199.8,28.2z"/>
		<path fill="#E5BFB9" d="M232.9,88.3c1.9,14.2-1.9,26.7,3.8,26.7C237.8,108.6,238.5,100.4,232.9,88.3z"/>
	</g>
	<path opacity="0.78" fill="#FFFFFF" d="M99.9,226.6c0,0-3.1-3.2,0-4.2c3.1-1,12.5-1.9,12.5-1.9s1,0.8,0,1.2
		c-1,0.4-11.4,1.2-11.9,2.5C99.9,225.6,101.1,225.8,99.9,226.6z"/>
	<path fill="#F0F0F0" d="M413.3,283.8c-10.4-38.4-11.3-38.2-5.9-47.9c5.4-9.7,26.6-5.5,21.2-25.5c-3-11.1-13.5-23.9-22.2-33.1
		c-33.8,3.7-59.8,20.4-59.8,20.4c-42.9-6.9-58.3,25.7-58.3,25.7c17.4-15.3,30.7-9.6,35.3-6.7c-9.1,7.1-22.7,21.7-19.3,43.2
		c0,0,3.1-5.8,8.7-11.7c-7.8,39.2,18.2,66.3,18.2,66.3c1.5-54.7,56.8-15.9,70.6,0c0.1,0.1,0.2,0.3,0.3,0.4
		C413.9,311.4,421.6,314.4,413.3,283.8z"/>
	<g>
		<path fill="#DFDFDF" d="M404,314.4c-15.3-17.6-71-57.5-85.7-20.5c5.7,13,13,20.7,13,20.7c1.5-54.7,56.8-15.9,70.6,0
			c0.1,0.1,0.2,0.3,0.3,0.4C402.8,314.7,403.4,314.6,404,314.4C404,314.4,404,314.4,404,314.4z"/>
	</g>
	<path fill="#6E4832" d="M154.7,383.9c-4.3,13.6-10.2,24.5-17.2,26.9c-15.5,5.5-18.4,1.3-19.1,15.8c-0.7,14.6,32.5,11.5,36.9-0.1
		c2.8-7.5,8.3-21.8,14.5-34.3C165,391,159.4,387.4,154.7,383.9z"/>
	<path fill="#3A2000" d="M145.2,366.4c1.4-0.4,2.9-0.9,4.5-1.4c-1.3-6.8-8.3-13.3-14-17.6c-12.9,10.7-26.8,23.5-26.5,29.1
		c0.5,10.4,6,32.2,19.7,24c13.7-8.2,14.2-21.8,4.4-21.8C133.1,378.6,134.2,369.5,145.2,366.4z"/>
	<path fill="#6E4832" d="M243,416.2c-2.1-0.4-54.5-10.6-55.2,5.1c-0.5,10.6,43.9,9.4,73.8,7.4C256.6,423.4,249.6,419.3,243,416.2z"
		/>
	<g>
		<g>
			<path fill="#40761E" d="M58.9,422.2l-2.6-0.3c0.1-1,10.3-105-27.7-144.7l1.9-1.8C69.2,316,59.3,417.9,58.9,422.2z"/>
		</g>
		<path fill="#D1D0D1" d="M56.4,276.1c0-1.1-3.9-2-9.2-2.3c5.1-1.7,8.5-3.6,8.3-4.6c-0.3-1.1-4.2-0.9-9.5,0.1
			c4.4-2.9,7.3-5.7,6.8-6.6c-0.5-0.9-4.3,0.2-9.1,2.6c3.5-4,5.6-7.4,4.8-8.1c-0.8-0.8-4.1,1.3-8.1,4.8c2.4-4.8,3.5-8.6,2.6-9.1
			c-0.9-0.5-3.7,2.3-6.6,6.8c1.1-5.2,1.2-9.2,0.1-9.5c-1.1-0.3-2.9,3.2-4.6,8.3c-0.3-5.3-1.3-9.2-2.3-9.2c-1.1,0-2,3.9-2.3,9.2
			c-1.7-5.1-3.6-8.5-4.6-8.3c-1.1,0.3-0.9,4.2,0.1,9.5c-2.9-4.4-5.7-7.3-6.6-6.8c-0.9,0.5,0.2,4.3,2.6,9.1c-4-3.5-7.4-5.6-8.1-4.8
			c-0.8,0.8,1.3,4.1,4.8,8.1c-4.8-2.4-8.6-3.5-9.1-2.6c-0.5,0.9,2.3,3.7,6.8,6.6c-5.2-1.1-9.2-1.2-9.5-0.1c-0.3,1.1,3.2,2.9,8.3,4.6
			c-5.3,0.3-9.2,1.3-9.2,2.3c0,1.1,3.9,2,9.2,2.3c-5.1,1.7-8.5,3.6-8.3,4.6c0.3,1.1,4.2,0.9,9.5-0.1c-4.4,2.9-7.3,5.7-6.8,6.6
			c0.5,0.9,4.3-0.2,9.1-2.6c-3.5,4-5.6,7.4-4.8,8.1c0.8,0.8,4.1-1.3,8.1-4.8c-2.4,4.8-3.5,8.6-2.6,9.1c0.9,0.5,3.7-2.3,6.6-6.8
			c-1.1,5.2-1.2,9.2-0.1,9.5c1.1,0.3,2.9-3.2,4.6-8.3c0.3,5.3,1.3,9.2,2.3,9.2c1.1,0,2-3.9,2.3-9.2c1.7,5.1,3.6,8.5,4.6,8.3
			c1.1-0.3,0.9-4.2-0.1-9.5c2.9,4.4,5.7,7.3,6.6,6.8c0.9-0.5-0.2-4.3-2.6-9.1c4,3.5,7.4,5.6,8.1,4.8c0.8-0.8-1.3-4.1-4.8-8.1
			c4.8,2.4,8.6,3.5,9.1,2.6c0.5-0.9-2.3-3.7-6.8-6.6c5.2,1.1,9.2,1.2,9.5,0.1c0.3-1.1-3.2-2.9-8.3-4.6
			C52.6,278.2,56.4,277.2,56.4,276.1z"/>
		<g>
			<path fill="#B6B6B6" d="M28.6,257.1c0.7-2.2,1.5-4.1,2.2-5.5c-0.4-1.6-0.9-2.5-1.4-2.5c-0.5,0-1,0.9-1.4,2.5
				C28.3,253.2,28.5,255,28.6,257.1z"/>
			<path fill="#B6B6B6" d="M19.4,258.3c-0.3-1.3-0.5-2.6-0.6-3.7c-1.3-1.4-2.3-2.1-2.8-1.8c-0.2,0.1-0.3,0.3-0.3,0.7
				C16.7,254.6,18,256.3,19.4,258.3z"/>
			<path fill="#B6B6B6" d="M23.9,257.1c0.1-1.9,0.3-3.6,0.6-5c-0.8-1.4-1.5-2.2-2-2.1c-0.4,0.1-0.6,0.7-0.7,1.7
				C22.4,253.1,23.2,255,23.9,257.1z"/>
			<path fill="#B6B6B6" d="M52.2,268.4c-0.6,1.1-3.8,2.7-8.2,4.2c1.9,0.1,3.5,0.3,4.9,0.6c4.1-1.5,6.7-3.1,6.5-4
				C55.3,268.6,54.1,268.4,52.2,268.4z"/>
			<path fill="#B6B6B6" d="M42.9,268.1c2.3-0.5,4.4-0.7,6-0.8c2.8-2.1,4.4-3.9,3.9-4.6c-0.3-0.5-1.7-0.4-3.7,0.3
				C48.1,264.2,45.9,266.1,42.9,268.1z"/>
			<path fill="#B6B6B6" d="M33.1,258.3c1.4-2.2,2.8-4,4-5.2c0.1-1.8-0.2-3-0.7-3.1c-0.6-0.2-1.5,1-2.5,2.9
				C33.8,254.5,33.6,256.3,33.1,258.3z"/>
			<path fill="#B6B6B6" d="M37.2,260.7c2.1-1.8,3.9-3.2,5.4-4.1c0.7-2.1,0.9-3.5,0.3-3.8c-0.6-0.3-1.8,0.6-3.4,2.4
				C39,256.7,38.2,258.6,37.2,260.7z"/>
			<path fill="#B6B6B6" d="M40.5,264c2.4-1.2,4.5-2.1,6.1-2.5c1.6-2.2,2.4-3.9,1.9-4.4c-0.5-0.5-1.9,0.1-3.8,1.4
				C43.8,259.9,42.4,261.9,40.5,264z"/>
			<path fill="#B6B6B6" d="M40.5,285.9c3.5,4,5.6,7.4,4.8,8.1c0,0-0.1,0.1-0.2,0.1c1.7,1.1,2.9,1.5,3.3,1.1c0.7-0.7-1.2-3.9-4.5-7.8
				C42.9,287,41.8,286.5,40.5,285.9z"/>
			<path fill="#B6B6B6" d="M37.2,289.2c1.9,3.9,3,7.1,2.8,8.5c1.3,1.4,2.3,2.1,2.9,1.8c0.8-0.5,0.1-3.3-1.6-7
				C40.1,291.6,38.7,290.5,37.2,289.2z"/>
			<path fill="#B6B6B6" d="M33.1,291.6c0.7,3.3,1,6.1,0.8,7.8c1,1.9,1.8,3,2.5,2.9c0.8-0.2,0.9-2.4,0.5-5.7
				C35.8,295.3,34.5,293.6,33.1,291.6z"/>
			<path fill="#B6B6B6" d="M47.6,278.6c3,1.3,4.9,2.5,4.7,3.3c-0.3,1.1-4.2,0.9-9.5-0.1c4.4,2.9,7.3,5.7,6.8,6.6
				c-0.3,0.5-1.5,0.4-3.4-0.2c3.5,1.5,6.1,2.1,6.5,1.4c0.5-0.9-2.3-3.7-6.8-6.6c5.2,1.1,9.2,1.2,9.5,0.1
				C55.8,282.1,52.5,280.3,47.6,278.6z"/>
			<path fill="#B6B6B6" d="M3.4,282.7c-0.1,0.2-0.1,0.3-0.1,0.5c0.2,0.6,1.5,0.8,3.5,0.7c0.8-0.6,1.8-1.3,2.8-2
				C7.2,282.3,5.1,282.6,3.4,282.7z"/>
			<path fill="#B6B6B6" d="M53,274.5c0.1,0.1,0.2,0.3,0.2,0.4c0,1.1-3.9,2-9.2,2.3c1.2,0.4,2.2,0.8,3.2,1.2c5.3-0.3,9.1-1.3,9.1-2.3
				C56.4,275.5,55.1,274.9,53,274.5z"/>
			<path fill="#B6B6B6" d="M15.3,289.2c-1.6,1.4-3.1,2.6-4.3,3.4c-0.7,1.3-1,2.2-0.7,2.6c0.4,0.4,1.4,0.1,2.8-0.7
				C13.6,293,14.3,291.2,15.3,289.2z"/>
			<path fill="#B6B6B6" d="M9,289.6c0.8-1.1,1.8-2.4,3-3.7c-2.1,1-3.9,1.8-5.4,2.3c-0.5,0.6-0.7,1.1-0.5,1.4
				C6.3,290.1,7.4,290.1,9,289.6z"/>
			<path fill="#B6B6B6" d="M28.6,292.8c-0.2,2.7-0.5,5-0.9,6.6c0.4,2.3,1,3.7,1.7,3.7c0.7,0,1.3-1.6,1.8-4.2
				C30.4,297.5,29.5,295.3,28.6,292.8z"/>
			<path fill="#B6B6B6" d="M23.9,292.8c-0.7,2.1-1.5,3.9-2.2,5.4c-0.2,2.4,0,3.9,0.7,4.1c0.6,0.2,1.5-0.9,2.4-2.8
				C24.4,297.8,24.1,295.5,23.9,292.8z"/>
			<path fill="#B6B6B6" d="M19.4,291.6c-1.1,1.7-2.2,3.2-3.2,4.3c-0.6,2-0.8,3.3-0.2,3.6c0.5,0.3,1.4-0.3,2.6-1.6
				C18.6,296.3,18.9,294.1,19.4,291.6z"/>
		</g>
		<circle fill="#F7A400" cx="29.4" cy="276.1" r="7.6"/>
		<path fill="#C58500" d="M32.7,269.3c0.5,1,0.8,2.1,0.8,3.3c0,4.2-3.4,7.6-7.6,7.6c-1.2,0-2.3-0.3-3.3-0.8c1.2,2.5,3.8,4.3,6.8,4.3
			c4.2,0,7.6-3.4,7.6-7.6C37,273.1,35.3,270.6,32.7,269.3z"/>
		<path fill="#40761E" d="M57.3,436.5c0,0-16.7-63.1-2.3-90.3c14.4-27.2,8.1-35,8.1-35s14.4,22.2-1.7,51
			C45.3,391,57.3,436.5,57.3,436.5z"/>
		<path fill="#40761E" d="M57.3,436.5c0,0-5.6-29.4,7.6-52c13.2-22.6,14.9-28,14.9-28s1.1,26.5-9.2,39.4
			C60.2,408.7,57.3,436.5,57.3,436.5z"/>
	</g>
</g>
</svg>
