<?xml version="1.0" encoding="utf-8"?>
<!-- Generator: Adobe Illustrator 17.1.0, SVG Export Plug-In . SVG Version: 6.00 Build 0)  -->
<!DOCTYPE svg PUBLIC "-//W3C//DTD SVG 1.1//EN" "http://www.w3.org/Graphics/SVG/1.1/DTD/svg11.dtd">
<svg version="1.1" id="Layer_1" xmlns="http://www.w3.org/2000/svg" xmlns:xlink="http://www.w3.org/1999/xlink" x="0px" y="0px"
	 width="634.5px" height="549.7px" viewBox="0 0 634.5 549.7" enable-background="new 0 0 634.5 549.7" xml:space="preserve">
<g>
	<ellipse fill="#D4D4D4" cx="259" cy="493" rx="259" ry="56.7"/>
	<ellipse fill="#C7C8C8" cx="259" cy="493" rx="183.3" ry="40.1"/>
	<path fill="#BB6A16" d="M383.4,439.8c-1-1.1-1.9-2.1-2.7-3.1c-7.9-10.1-25.6-18.6-25.6-18.6l-46.6-17l3.9,23.9
		c0,0,30.2,12.9,45.3,15.4c3.3,0.5,6.8,1.8,10.3,3.6C373.2,443.4,379,442.1,383.4,439.8z"/>
	<path fill="#BB6A16" d="M257.3,400.8l-28.4,4.6c0.2,1.1,10.4,20.8,7.9,23.4c-0.8,0.9-3.1,4.7-5.8,9.6l0,0c2.7,1.9,5.9,3.6,9.7,4.7
		l0,0c3.1-5.1,6.6-9.8,10.8-13C263.8,420.4,257.3,400.8,257.3,400.8z"/>
	<path fill="#FF8812" d="M474.1,361c-9.5-8.5-14-17.2-15.3-25.6c-22,6.8-47.3,13.9-60.9,19.1c-23.6,9-70.9,40.4-81.9,31.8
		c-11-8.6-29.4-31.2-59.3-47.5c-29.9-16.3-37.9-42.5-28.5-75.7c9.4-33.1-52.4,24.6-52.4,24.6s10.7,19.2-0.6,44.9
		c-11.3,25.8-32.8,24.6-32.8,24.6s7.7,6.4,14,4.6c0,0,0.9,9.9-4.8,11.3c0,0,14.3,4.9,20.5,0.9c0,0,64.2,53.2,95.7,52.1
		c0,0-3.5,19.4,11.3,24c14.7,4.5,58.9,27,58.9,27s0,0.1,0,0.2c4.5-2.9,9.4-6.4,13.2-10l0,0c-0.1-0.5-0.2-1-0.3-1.4
		c0,0-39.2-14.3-37.1-28.6c2.1-14.3-0.9-28.6-0.9-28.6s89.2,41.4,166,12.7C475.5,404.7,514.3,397,474.1,361z"/>
	<path fill="#D67919" d="M261,418.3c-31.5,1.2-95.7-52.1-95.7-52.1c-2.3,1.5-5.8,1.7-9.2,1.5c-0.6,2.4-1.8,4.9-4.4,5.6
		c0,0,14.3,4.9,20.5,0.9c0,0,55.3,45.9,88.5,51.5C260.4,421.5,261,418.3,261,418.3z"/>
	<path fill="#D67919" d="M149.5,356.4c-4.2,1.1-7,0.9-7,0.9s2.7,2.2,6.3,3.7C149.3,359.5,149.5,357.8,149.5,356.4z"/>
	<path fill="#D67919" d="M221.3,255.3c-7.5,26.6-3.9,48.7,13.3,64.8c-11-15.2-12.6-34.4-6.3-56.9c2.7-9.6-0.6-11.6-6.6-9.5
		C221.5,254.2,221.4,254.7,221.3,255.3z"/>
	<path fill="#D67919" d="M526.4,325.1c5.1-7.1,22-16.2,22-16.2s-11.7,1.1-24.6,3.7C517.2,318.3,513.9,324,526.4,325.1z"/>
	<path fill="#D67919" d="M331.2,469.2c0,0-44.2-22.4-58.9-27c-1-0.3-2-0.7-2.8-1.2c1.6,3.9,4.5,7.5,9.8,9.1
		c11.2,3.4,39.3,17.1,52.2,23.6C331.3,471,331.2,469.2,331.2,469.2z"/>
	<path fill="#FF8812" d="M216.4,362.8l-25.3-51.4c0,0-39.8,38.9-20.8,80.1c8.2,17.8,6.2,34.8,1.2,48.4c3.6,3.6,8.7,7.3,15,8.7
		c3.2-4.1,6-7.7,8.2-10.4c9.2-11.6,17.3-34.3,21.2-42.3C219.7,387.8,208.1,375.4,216.4,362.8z"/>
	<path fill="#E27F1D" d="M216.4,362.8l-5.1-10.4c-8.3,13.4,3.8,26.6-0.3,35.1c-4.2,8.6-12.9,33.1-22.8,45.6
		c-2.5,3.1-5.8,7.4-9.6,12.2c2.4,1.4,5,2.5,7.9,3.2c3.2-4.1,6-7.7,8.2-10.4c9.2-11.6,17.3-34.3,21.2-42.3
		C219.7,387.8,208.1,375.4,216.4,362.8z"/>
	<path fill="#BB6A16" d="M229.9,312.4c-6.7-13.8-7-30.4-1.7-49.2c1.5-5.3,1.2-8.3-0.5-9.5l-4.6-0.4c-14,3.4-47.3,34.5-47.3,34.5
		s4.1,7.3,4.5,18.9C192.9,309.9,214.5,314.4,229.9,312.4z"/>
	<path fill="#BB6A16" d="M229,122.1c0,0,33.1-55.5,25.3-94.8c0,0,38.1,110,15.2,147.3C246.6,211.9,229,122.1,229,122.1z"/>
	<path fill="#744407" d="M270.3,85.7c-6.7-31.6-15.9-58.4-15.9-58.4c2.9,14.8,0,31.9-4.7,47.5C255.4,86,262.4,92.8,270.3,85.7z"/>
	<path fill="#FF8812" d="M248.7,120.6c-0.1-7.2-0.4-14.8-1-22.6C243.3,35.5,171,0,171,0s3.3,48.2-6.8,99.9
		c-25.1,3.7-55,13.3-68,37.8c-0.4,0.7-0.7,1.3-1.1,2c-7.4,6-17.2,12.4-23.6,10.4c0,0-2.7,8.8,8.9,10.4
		c-20.4,22.1-40.2,20.4-40.2,20.4s5.1,15,20,12.7c0,0,3.3,22.4-9.8,21.5c0,0,16,5.6,24-0.5c0,0,15.3,75.7,64.8,80.6
		c49.5,4.9,130.3-14.4,136.9-98.7C279,158.9,265.1,135.3,248.7,120.6z"/>
	<path fill="#ED841F" d="M248.7,120.6c-0.1-7.2-0.4-14.8-1-22.6C243.3,35.5,171,0,171,0s1,14.7,0.2,36.6
		C185.7,52.4,198.3,73,200.1,98c0.5,7.8,0.9,15.4,1,22.6c16.4,14.7,30.3,38.2,27.4,75.8c-5,63.7-52.3,90.3-96.6,97.3
		c2.4,0.6,4.8,1.1,7.3,1.3c49.5,4.9,130.3-14.4,136.9-98.7C279,158.9,265.1,135.3,248.7,120.6z"/>
	<g>
		<path fill="#DD7C1B" d="M248.7,120.6c-0.1-7.2-0.4-14.8-1-22.6C243.3,35.5,171,0,171,0s0.1,1.2,0.2,3.3
			c21.4,14.1,58.7,44.8,61.8,89.2c0.5,7.8,0.9,15.4,1,22.6c16.4,14.7,30.3,38.2,27.4,75.8c-6.6,84.3-87.4,103.6-136.9,98.7
			c-1.6-0.2-3.2-0.4-4.8-0.7c5.8,3.3,12.3,5.5,19.5,6.3c49.5,4.9,130.3-14.4,136.9-98.7C279,158.9,265.1,135.3,248.7,120.6z"/>
	</g>
	<path fill="#F0F0F0" d="M90.1,271.4c0,0,11.3-13.7,38.6,0s35.2,17.1,30.9,25.4C155.2,305.1,95.9,314.9,90.1,271.4z"/>
	<path fill="#E0E1E1" d="M146.7,280.5c0.9,1.9,0.7,3.9-0.5,6.3c-2.8,5.4-29.1,11.5-48.6,2.9c17.6,21.7,58.4,13.9,62,7.1
		C162.7,290.7,159.3,287.2,146.7,280.5z"/>
	<path fill="#FFFFFF" d="M128.7,257.7c0,0-24.4-26.9-14.2-40.8c10.2-13.8,37.1,18.6,37.1,18.6S133.5,250,128.7,257.7z"/>
	<path fill="#1D1D1B" d="M127.6,258.7c-5-6-9.5-12.4-12.8-19.5c-1.6-3.5-3-7.3-3.5-11.2c-0.5-3.9,0.1-8.3,2.7-11.5
		c1.2-1.6,3.1-2.9,5.1-3.3c2-0.4,4.1-0.1,6,0.5c3.8,1.2,7,3.4,10.1,5.7c6.1,4.7,11.5,10.3,16.4,16.2c-5.1-5.7-10.6-11.1-16.8-15.6
		c-3.1-2.2-6.4-4.2-10-5.3c-1.8-0.5-3.7-0.7-5.4-0.3c-1.7,0.4-3.2,1.5-4.3,2.9c-2.2,2.9-2.6,6.8-2.1,10.4c0.6,3.7,2,7.2,3.6,10.6
		c3.4,6.7,8,12.9,13,18.5L127.6,258.7z"/>
	<path fill="#1F1411" d="M100.9,265.9c0,0-12.3,2-10.8,7.2c1.5,5.2,1.3,6.1,3.1,9.6c1.9,3.6,2.4-5.3,6.5-9.6
		C103.8,268.7,103.6,265.3,100.9,265.9z"/>
	<path fill="#1F1411" d="M114.4,235.6c0,0,0.4-12.6,8.8-6.6c8.5,6,17.2,16,15.5,17.6c0,0-7.6,9.5-10,11.1
		C126.4,259.3,114.4,235.6,114.4,235.6z"/>
	<path fill="#1D1D1B" d="M160.6,227.4c0.3-5.8,0-11.6-1.1-17.3c-1.1-5.6-2.9-11.2-6.1-15.8c-3.2-4.6-7.6-8.4-12.9-10.2
		c-5.2-2-11-2.3-16.6-2c-5.6,0.5-11.2,1.8-15.9,4.9c-4.7,3-8.3,7.5-10.4,12.7c-2,5.2-2.9,11-1.8,16.5c1.1,5.6,4,10.7,6.9,15.7
		c-3.5-4.6-7.1-9.5-8.6-15.3c-0.8-2.9-1-6-0.8-9c0.2-3,0.9-6,2-8.8c2.1-5.7,6.1-10.7,11.2-14c5.1-3.4,11.1-5,17.1-5.4
		c5.9-0.3,12,0.2,17.7,2.4c5.7,2.1,10.6,6.3,13.7,11.4c3.2,5.1,4.9,10.9,5.7,16.8C161.5,215.8,161.6,221.7,160.6,227.4z"/>
	<g opacity="0.78">
		<g>
			
				<ellipse transform="matrix(0.8487 -0.5289 0.5289 0.8487 -109.5835 102.2018)" fill="#FFFFFF" cx="123.8" cy="242.6" rx="4" ry="5.9"/>
		</g>
	</g>
	<path fill="#1D1D1B" d="M95.6,280.7c1.5,2.9,3.6,5.8,6.2,8c2.6,2.2,5.7,3.9,9.1,4c3.4,0.2,6.9-0.7,10.2-1.9
		c3.2-1.3,6.5-3.1,8.4-6.2c-1.6,3.2-4.9,5.4-8.1,6.9c-1.6,0.8-3.4,1.3-5.1,1.8c-1.7,0.4-3.6,0.9-5.4,0.8c-3.8,0-7.4-1.6-10.4-3.8
		c-3-2.3-5.4-5.1-7.4-8.4L95.6,280.7z"/>
	<path fill="#F0F0F0" d="M634.5,348.7c0,0-10-25.6-77.2-16.9c-67.2,8.6-8.9-22.8-8.9-22.8s-37,3.6-52.5,12.7
		c-6.6,3.9-20.9,8.7-37.1,13.8c1.3,8.4,5.8,17,15.3,25.6c40.2,36,1.4,43.7,4.9,60.5c13.3-5,26.3-12,38.3-21.8
		C598.9,333.8,634.5,348.7,634.5,348.7z"/>
	<g>
		<path fill="#E7E7E7" d="M572.9,330.3c-16.8,7.8-37.7,20.5-63.1,41.1c-5.9,4.8-12,8.9-18.3,12.4c5.7,17.8-15.1,25.3-12.4,37.8
			c13.3-5,26.3-12,38.3-21.8c81.5-66,117.1-51.1,117.1-51.1S626,327.2,572.9,330.3z"/>
	</g>
	<g>
		<path fill="#DFDFDF" d="M526.4,325.2c5.1-7.1,22.1-16.2,22.1-16.2s-12.2,1.2-25.5,3.9C516.4,318.5,513.3,324.2,526.4,325.2z"/>
		<path fill="#DFDFDF" d="M626.6,340.2c0.2,0.4,0.3,0.6,0.3,0.6s-35.6-14.9-117.1,51.1c-8.3,6.8-17.1,12.2-26.1,16.6
			c-3.1,4.2-5.6,8.3-4.5,13.1c13.3-5,26.3-12,38.3-21.8c81.5-66,117.1-51.1,117.1-51.1S632.9,344.6,626.6,340.2z"/>
	</g>
	<path fill="#DFDFDF" d="M92.5,273.8c0,0-1.5-3.9,1.8-4.8c3.4-0.9,6.7-1.9,6.4-0.5c-0.4,1.4-6.5,1.4-6.9,2.8
		C93.4,272.8,94.6,273.4,92.5,273.8z"/>
	<path fill="#902326" d="M178.2,293.5c0,0-11.8,21.9,0.5,29.5c12.2,7.5,55.9-2.9,55.9-2.9s1.3-15.4-9.5-24.3
		C225.1,295.8,192.9,301.9,178.2,293.5z"/>
	<path fill="#6C1918" d="M225.1,295.8c0,0-1.5,0.3-3.9,0.6c4.1,8.1,3.4,16.7,3.4,16.7s-33.8,8.1-50.2,4.9c0.9,2,2.2,3.7,4.3,5
		c12.2,7.5,55.9-2.9,55.9-2.9S235.9,304.7,225.1,295.8z"/>
	<path fill="#902326" d="M177.7,326.5c0,0-12.4,3.9-7.1,14.8c5.2,10.9,106.3,43.1,147.8,6c41.5-37.1,128.9-48.4,146.3-37.7
		c0,0,13.1-41,0-51.9s-138.8,8.9-158.6,42.7C286.3,334.2,246.7,353,177.7,326.5z"/>
	<path fill="#6C1918" d="M464.7,257.7c-2.1-1.8-7.1-2.7-14.2-2.9c2.6,16.2-5.3,40.9-5.3,40.9c-17.5-10.7-104.8,0.5-146.3,37.7
		c-31.5,28.2-97.3,16.4-129.5,4.3c0.2,1.1,0.5,2.3,1.2,3.6c5.2,10.9,106.3,43.1,147.8,6c41.5-37.1,128.9-48.4,146.3-37.7
		C464.7,309.6,477.8,268.7,464.7,257.7z"/>
	<g opacity="0.35">
		<defs>
			<path id="SVGID_1_" opacity="0.35" d="M177.7,326.5c0,0-12.4,3.9-7.1,14.8c5.2,10.9,106.3,43.1,147.8,6
				c41.5-37.1,128.9-48.4,146.3-37.7c0,0,13.1-41,0-51.9s-138.8,8.9-158.6,42.7C286.3,334.2,246.7,353,177.7,326.5z"/>
		</defs>
		<clipPath id="SVGID_2_">
			<use xlink:href="#SVGID_1_"  overflow="visible"/>
		</clipPath>
		<g clip-path="url(#SVGID_2_)">
			<g>
				<polygon fill="#FFED00" points="98.8,407.4 96.2,405.2 222,260.5 224.6,262.7 				"/>
			</g>
			<g>
				<polygon fill="#FFED00" points="118.5,404.6 115.9,402.4 241.7,257.7 244.2,259.9 				"/>
			</g>
			<g>
				<polygon fill="#FFED00" points="138.1,401.8 135.6,399.6 261.4,254.9 263.9,257.1 				"/>
			</g>
			<g>
				<polygon fill="#FFED00" points="157.8,399 155.3,396.8 281,252 283.6,254.2 				"/>
			</g>
			<g>
				<polygon fill="#FFED00" points="177.5,396.1 174.9,393.9 300.7,249.2 303.3,251.4 				"/>
			</g>
			<g>
				<polygon fill="#FFED00" points="197.2,393.3 194.6,391.1 320.4,246.4 322.9,248.6 				"/>
			</g>
			<g>
				<polygon fill="#FFED00" points="216.8,390.5 214.3,388.3 340.1,243.5 342.6,245.7 				"/>
			</g>
			<g>
				<polygon fill="#FFED00" points="236.5,387.6 234,385.4 359.7,240.7 362.3,242.9 				"/>
			</g>
			<g>
				<polygon fill="#FFED00" points="256.2,384.8 253.6,382.6 379.4,237.9 382,240.1 				"/>
			</g>
			<g>
				<polygon fill="#FFED00" points="275.9,382 273.3,379.8 399.1,235.1 401.6,237.3 				"/>
			</g>
			<g>
				<polygon fill="#FFED00" points="295.5,379.2 293,377 418.8,232.2 421.3,234.4 				"/>
			</g>
			<g>
				<polygon fill="#FFED00" points="315.2,376.3 312.7,374.1 438.4,229.4 441,231.6 				"/>
			</g>
			<g>
				<polygon fill="#FFED00" points="334.9,373.5 332.3,371.3 458.1,226.6 460.7,228.8 				"/>
			</g>
			<g>
				<polygon fill="#FFED00" points="354.5,370.7 352,368.5 477.8,223.7 480.3,225.9 				"/>
			</g>
			<g>
				<polygon fill="#FFED00" points="374.2,367.8 371.7,365.6 497.5,220.9 500,223.1 				"/>
			</g>
		</g>
	</g>
	<g opacity="0.35">
		<defs>
			<path id="SVGID_3_" opacity="0.35" d="M178.2,293.5c0,0-11.8,21.9,0.5,29.5c12.2,7.5,55.9-2.9,55.9-2.9s1.3-15.4-9.5-24.3
				C225.1,295.8,192.9,301.9,178.2,293.5z"/>
		</defs>
		<clipPath id="SVGID_4_">
			<use xlink:href="#SVGID_3_"  overflow="visible"/>
		</clipPath>
		<g clip-path="url(#SVGID_4_)">
			<g>
				<polygon fill="#FFED00" points="98.8,407.4 96.2,405.2 222,260.5 224.6,262.7 				"/>
			</g>
			<g>
				<polygon fill="#FFED00" points="118.5,404.6 115.9,402.4 241.7,257.7 244.2,259.9 				"/>
			</g>
			<g>
				<polygon fill="#FFED00" points="138.1,401.8 135.6,399.6 261.4,254.9 263.9,257.1 				"/>
			</g>
			<g>
				<polygon fill="#FFED00" points="157.8,399 155.3,396.8 281,252 283.6,254.2 				"/>
			</g>
			<g>
				<polygon fill="#FFED00" points="177.5,396.1 174.9,393.9 300.7,249.2 303.3,251.4 				"/>
			</g>
			<g>
				<polygon fill="#FFED00" points="197.2,393.3 194.6,391.1 320.4,246.4 322.9,248.6 				"/>
			</g>
			<g>
				<polygon fill="#FFED00" points="216.8,390.5 214.3,388.3 340.1,243.5 342.6,245.7 				"/>
			</g>
			<g>
				<polygon fill="#FFED00" points="236.5,387.6 234,385.4 359.7,240.7 362.3,242.9 				"/>
			</g>
			<g>
				<polygon fill="#FFED00" points="256.2,384.8 253.6,382.6 379.4,237.9 382,240.1 				"/>
			</g>
			<g>
				<polygon fill="#FFED00" points="275.9,382 273.3,379.8 399.1,235.1 401.6,237.3 				"/>
			</g>
			<g>
				<polygon fill="#FFED00" points="295.5,379.2 293,377 418.8,232.2 421.3,234.4 				"/>
			</g>
			<g>
				<polygon fill="#FFED00" points="315.2,376.3 312.7,374.1 438.4,229.4 441,231.6 				"/>
			</g>
			<g>
				<polygon fill="#FFED00" points="334.9,373.5 332.3,371.3 458.1,226.6 460.7,228.8 				"/>
			</g>
			<g>
				<polygon fill="#FFED00" points="354.5,370.7 352,368.5 477.8,223.7 480.3,225.9 				"/>
			</g>
			<g>
				<polygon fill="#FFED00" points="374.2,367.8 371.7,365.6 497.5,220.9 500,223.1 				"/>
			</g>
		</g>
	</g>
	<path fill="#744407" d="M171,0.3c0.2,2.5,1.3,22.8-0.5,50.2c13.6-3.9,27.1-11.1,39.7-22.6c-18.3-17.1-36.8-26.6-39-27.8
		C171.2,0.2,171.1,0.2,171,0.3z"/>
	<path fill="#FACFC7" d="M162.6,137.7c0,0,21.2-76.5,17.8-110.4c0,0,44.7,45.5,44.7,83.4c0,37.9-5.8,57.5-16.7,54.2
		c-10.9-3.2,1.2-16.4-3.4-34.2c0,0-6.8,20.8-18.4,16.1c-11.6-4.7-6.1-21.5-6.1-21.5S174.3,144.3,162.6,137.7z"/>
	<g>
		<path fill="#E4BEB8" d="M169.4,120.9c0,0-1.6,5-4.8,9c-1.3,4.9-2.1,7.8-2.1,7.8c3,1.7,5.7,1.7,8,0.7
			C165.9,131.7,169.4,120.9,169.4,120.9z"/>
		<path fill="#E4BEB8" d="M194,126.3c0,0-4.5,13.9-12.6,16.4c1.1,1.7,2.8,3.1,5.1,4.1c2.7,1.1,5.1,0.8,7.3-0.3
			C194.9,140.9,196,134,194,126.3z"/>
		<path fill="#E4BEB8" d="M180.4,27.3c0.3,2.6,0.4,5.5,0.3,8.5c13.2,16.2,33.4,45.1,33.4,70.5c0,29.7-3.6,48.1-10.4,53.1
			c0.2,2.6,1.4,4.5,4.7,5.5c10.9,3.2,16.7-16.3,16.7-54.2C225.1,72.8,180.4,27.3,180.4,27.3z"/>
	</g>
	<path fill="#6E4832" d="M171.5,439.8c-6.6,17.9-18.2,29.9-18.2,29.9s-18.1-6.8-17.8,3.7c0.2,10.6,11.7,12.8,19.9,9.1
		c6.3-2.9,20.6-20.7,31.1-34C180.2,447.1,175.1,443.4,171.5,439.8z"/>
	<path fill="#6E4832" d="M323,520.1c-19.2,0.2-10.1,12.7-10.1,12.7s18.5,2.9,25.5-4.1c6.8-6.9,17.2-39.4,13-61.3
		c-3.7,3.5-8.7,7.1-13.2,10C338.5,480.7,341.4,519.9,323,520.1z"/>
	<path fill="#3A2000" d="M240.6,443.1c-3.7-1.2-6.9-2.8-9.7-4.7c-5.5,9.9-12.8,23.6-12.8,23.6s-13.8-1-12.9,6.9
		c0.9,8,12.5,8.7,19.6,1.3C229.6,465.2,234.3,453.4,240.6,443.1z"/>
	<path fill="#3A2000" d="M383.4,439.8c-4.4,2.3-10.2,3.6-15.4,4.2c12.6,6.3,25,18.7,25.1,25.7c0.2,8.9-11.3,9-3.8,15.7
		c7.5,6.7,18,1,18.5-12.1C408.1,461.5,392.3,449.5,383.4,439.8z"/>
	<path fill="#E4801E" d="M491.4,383.3c-1.8,1.4-3.7,2.9-5.5,4.4c-35.9,29.1-78.5,38.3-118,38.4c31.8,6.7,73.1,9.8,111.3-4.5
		C476.4,408.9,497.6,401.5,491.4,383.3z"/>
	<path fill="#D67919" d="M479.1,421.6c-1-4.6,1.2-8.6,4.1-12.6c-79,37.5-177.1-8-177.1-8s3,14.3,0.9,28.6c-0.7,4.6,2.9,9.1,8,13.2
		c-0.9-1.7-1.2-3.5-1-5.3c2.1-14.3-0.9-28.6-0.9-28.6S402.3,450.2,479.1,421.6z"/>
</g>
</svg>
