<?xml version="1.0" encoding="utf-8"?>
<!-- Generator: Adobe Illustrator 17.1.0, SVG Export Plug-In . SVG Version: 6.00 Build 0)  -->
<!DOCTYPE svg PUBLIC "-//W3C//DTD SVG 1.1//EN" "http://www.w3.org/Graphics/SVG/1.1/DTD/svg11.dtd">
<svg version="1.1" id="Layer_1" xmlns="http://www.w3.org/2000/svg" xmlns:xlink="http://www.w3.org/1999/xlink" x="0px" y="0px"
	 width="86.3px" height="86.3px" viewBox="0 0 86.3 86.3" enable-background="new 0 0 86.3 86.3" xml:space="preserve">
<g>
	<circle fill="#FFCB55" cx="43.2" cy="43.2" r="43.2"/>
	<circle fill="#FFEE94" cx="41.6" cy="40.4" r="39.8"/>
	<path fill="#7F4E14" d="M51.6,14.6l-2.4,4.3c-0.1,0.1,0,0.3,0.2,0.3l22.4,5c0.2,0,0.3-0.1,0.3-0.2l-0.5-7.9c0-0.1-0.1-0.2-0.2-0.2
		l-19.5-1.5C51.8,14.5,51.7,14.5,51.6,14.6z"/>
	<path fill="#7F4E14" d="M35.3,15.6l2,4.2c0.1,0.2,0,0.5-0.3,0.6L14.7,24c-0.3,0-0.5-0.2-0.5-0.5l0.9-7.4c0-0.2,0.2-0.4,0.4-0.4
		l19.4-0.3C35.1,15.4,35.2,15.5,35.3,15.6z"/>
	<g>
		<g>
			<path fill="#7F4E14" d="M19.4,54.8c0,0,0,0.2,0.2,0.6c0.1,0.4,0.3,1,0.7,1.7c0.6,1.4,1.8,3.4,3.6,5.3c0.9,1,2,1.9,3.3,2.7
				c1.3,0.8,2.7,1.5,4.3,2.1c1.6,0.6,3.2,1,5,1.2c1.7,0.2,3.5,0.3,5.3,0.3c1.9,0,3.6-0.1,5.3-0.4c1.7-0.3,3.4-0.7,5-1.3
				c1.6-0.6,3-1.3,4.3-2.1c1.3-0.8,2.4-1.7,3.3-2.7c1.9-1.9,3.1-3.8,3.7-5.2c0.3-0.7,0.6-1.3,0.7-1.7c0.1-0.4,0.2-0.6,0.2-0.6
				l0.6,0.1c0,0,0,0.2-0.2,0.7c-0.1,0.4-0.3,1-0.6,1.8c-0.6,1.5-1.7,3.6-3.6,5.7c-1.9,2.1-4.6,4.1-8,5.4c-1.7,0.6-3.4,1.1-5.3,1.4
				c-1.8,0.3-3.8,0.5-5.6,0.5c-1.9,0-3.8-0.1-5.6-0.4c-1.8-0.3-3.6-0.8-5.3-1.4c-3.3-1.2-6.1-3.3-7.9-5.5c-1.9-2.1-2.9-4.3-3.5-5.8
				c-0.6-1.5-0.7-2.5-0.7-2.5L19.4,54.8z"/>
		</g>
	</g>
	<path fill="#FFFFFF" d="M58.7,24c-6.5,0.1-11.6,5.4-11.5,11.8h0c0,1.7,0.4,3.4,1.1,4.8c1.9,4,6,6.7,10.7,6.7
		c4.1-0.1,7.7-2.2,9.7-5.5c1.2-1.8,1.8-4,1.8-6.4l0,0C70.5,29.1,65.2,23.9,58.7,24z"/>
	<g>
		<line fill="#FDFDF7" x1="25.6" y1="35.6" x2="32.4" y2="35.7"/>
	</g>
	<path fill="#FFFFF8" d="M70.5,35.7c0-6.5-5.2-11.7-11.7-11.7s-11.7,5.2-11.7,11.7H70.5z"/>
	<circle fill="#4C3213" cx="59.5" cy="36.7" r="5.9"/>
	<circle fill="#FDFDF7" cx="54" cy="34.6" r="3.9"/>
	<path fill="#ECD17C" d="M48.3,40.7c1.9,4,6,6.7,10.7,6.7c4.1-0.1,7.7-2.2,9.7-5.5c0.1-0.2,0.2-0.3,0.3-0.5c0.1-0.2,0.2-0.4,0.3-0.6
		L48.3,40.7z"/>
	<path fill="#FFFFFF" d="M25.4,24c-6.5,0.1-11.6,5.4-11.5,11.8h0c0,1.7,0.4,3.4,1.1,4.8c1.9,4,6,6.7,10.7,6.7
		c4.1-0.1,7.7-2.2,9.7-5.5c1.2-1.8,1.8-4,1.8-6.4l0,0C37.2,29.1,31.9,23.9,25.4,24z"/>
	<path fill="#FFFFF8" d="M37.3,35.7c0-6.5-5.2-11.7-11.7-11.7s-11.7,5.2-11.7,11.7H37.3z"/>
	<circle fill="#4C3213" cx="26.3" cy="36.7" r="5.9"/>
	<path fill="#FDFDF7" d="M24.7,34.6c0.6,4-1.6,4.5-3.9,3.9c-2.1-0.5-3.9-1.8-3.9-3.9s1.8-3.9,3.9-3.9S24.4,32.5,24.7,34.6z"/>
	<path fill="#ECD17C" d="M15,40.7c1.9,4,6,6.7,10.7,6.7c4.1-0.1,7.7-2.2,9.7-5.5c0.1-0.2,0.2-0.3,0.3-0.5c0.1-0.2,0.2-0.4,0.3-0.6
		L15,40.7z"/>
</g>
</svg>
