<?xml version="1.0" encoding="utf-8"?>
<!-- Generator: Adobe Illustrator 17.1.0, SVG Export Plug-In . SVG Version: 6.00 Build 0)  -->
<!DOCTYPE svg PUBLIC "-//W3C//DTD SVG 1.1//EN" "http://www.w3.org/Graphics/SVG/1.1/DTD/svg11.dtd">
<svg version="1.1" id="Layer_1" xmlns="http://www.w3.org/2000/svg" xmlns:xlink="http://www.w3.org/1999/xlink" x="0px" y="0px"
	 width="86.3px" height="86.3px" viewBox="0 0 86.3 86.3" enable-background="new 0 0 86.3 86.3" xml:space="preserve">
<g>
	<circle fill="#FFCB55" cx="43.2" cy="43.2" r="43.2"/>
	<circle fill="#FFEE94" cx="41.6" cy="40.4" r="39.8"/>
	<g>
		<circle fill="#FFFFF8" cx="60.6" cy="31.7" r="11.7"/>
		<circle fill="#4C3213" cx="61.6" cy="31.7" r="5.9"/>
		<circle fill="#FDFDF7" cx="56.1" cy="29.7" r="3.9"/>
	</g>
	<path fill="#7F4E14" d="M46.2,21.1l-0.1,5c0,0.2,0.1,0.3,0.3,0.2l22.1-6.2c0.2,0,0.2-0.2,0.1-0.3l-4.1-6.7
		c-0.1-0.1-0.2-0.1-0.3-0.1l-17.9,7.9C46.3,21,46.2,21,46.2,21.1z"/>
	<g>
		<circle fill="#FFFFF8" cx="26.3" cy="31.1" r="11.7"/>
		<circle fill="#4C3213" cx="27.3" cy="31.1" r="5.9"/>
		<circle fill="#FDFDF7" cx="21.7" cy="29.1" r="3.9"/>
	</g>
	<path fill="#7F4E14" d="M40.8,21.3l0,4.6c0,0.3-0.3,0.5-0.5,0.4l-21.7-6.3c-0.3-0.1-0.4-0.4-0.2-0.6l4-6.3c0.1-0.2,0.3-0.2,0.5-0.2
		l17.7,8C40.7,21,40.8,21.2,40.8,21.3z"/>
	<g>
		<g>
			<path fill="#7F4E14" d="M21.3,61.5c0,0,0.7-0.1,2-0.4c1.3-0.2,3.1-0.5,5.2-0.9c2.2-0.3,4.7-0.6,7.4-0.9c1.4-0.1,2.8-0.1,4.2-0.2
				c1.4,0,2.9-0.2,4.4-0.2c1.4,0.1,2.9,0.1,4.3,0.2c1.4,0.1,2.8,0.1,4.2,0.2c1.4,0.2,2.7,0.3,3.9,0.4c1.2,0.2,2.4,0.3,3.5,0.4
				c2.2,0.4,4,0.6,5.2,0.8c1.3,0.2,2,0.4,2,0.4l-0.2,1c0,0-0.7-0.1-2-0.3c-1.3-0.2-3-0.4-5.2-0.7c-1.1-0.1-2.2-0.2-3.5-0.4
				c-1.2-0.1-2.5-0.2-3.9-0.4c-1.3-0.1-2.8-0.1-4.2-0.2c-1.4-0.1-2.9-0.1-4.3-0.2c-1.4,0-2.9,0.1-4.3,0.1c-1.4,0.1-2.8,0.1-4.2,0.2
				c-2.7,0.3-5.2,0.5-7.4,0.8c-2.1,0.3-3.9,0.5-5.2,0.7c-1.3,0.2-2,0.3-2,0.3L21.3,61.5z"/>
		</g>
	</g>
</g>
</svg>
