<?xml version="1.0" encoding="utf-8"?>
<!-- Generator: Adobe Illustrator 17.1.0, SVG Export Plug-In . SVG Version: 6.00 Build 0)  -->
<!DOCTYPE svg PUBLIC "-//W3C//DTD SVG 1.1//EN" "http://www.w3.org/Graphics/SVG/1.1/DTD/svg11.dtd">
<svg version="1.1" id="Layer_1" xmlns="http://www.w3.org/2000/svg" xmlns:xlink="http://www.w3.org/1999/xlink" x="0px" y="0px"
	 width="86.3px" height="86.3px" viewBox="0 0 86.3 86.3" enable-background="new 0 0 86.3 86.3" xml:space="preserve">
<g>
	<circle fill="#FFCB55" cx="43.2" cy="43.2" r="43.2"/>
	<circle fill="#FFEE94" cx="41.6" cy="40.4" r="39.8"/>
	<g>
		<circle fill="#FFFFF8" cx="60.6" cy="31.7" r="11.7"/>
		<circle fill="#4C3213" cx="61.6" cy="31.7" r="5.9"/>
		<circle fill="#FDFDF7" cx="56.1" cy="29.7" r="3.9"/>
	</g>
	<path fill="#7F4E14" d="M47,25l1,4.9c0,0.2,0.2,0.2,0.3,0.2l20.3-10.7c0.1-0.1,0.2-0.3,0.1-0.4l-5.5-5.7c-0.1-0.1-0.2-0.1-0.3,0
		L47.1,24.8C47,24.8,47,24.9,47,25z"/>
	<g>
		<circle fill="#FFFFF8" cx="26.3" cy="31.1" r="11.7"/>
		<circle fill="#4C3213" cx="27.3" cy="31.1" r="5.9"/>
		<circle fill="#FDFDF7" cx="21.7" cy="29.1" r="3.9"/>
	</g>
	<path fill="#7F4E14" d="M39.6,24.6l-0.2,4.6c0,0.3-0.3,0.5-0.5,0.4l-21.3-7.5c-0.3-0.1-0.4-0.4-0.2-0.6l4.4-6.1
		c0.1-0.2,0.3-0.2,0.5-0.1l17.2,9C39.5,24.3,39.6,24.5,39.6,24.6z"/>
	<g>
		<g>
			<path fill="#7F4E14" d="M23.3,57.5c0,0,0.2,0.1,0.5,0.1c0.3,0.1,0.8,0.3,1.4,0.4c0.3,0.1,0.6,0.2,1,0.2c0.4,0.1,0.7,0.1,1.1,0.2
				c0.4,0.1,0.8,0.1,1.3,0.1l0.2,0c0,0,0.1,0,0.1,0l0.4,0c0.3,0,0.5-0.1,0.8-0.1c0.5-0.1,1-0.2,1.5-0.4c0.5-0.2,1.1-0.4,1.6-0.6
				c1.1-0.5,2.2-1.1,3.3-1.7c2.3-1.3,4.7-2.8,7.2-4.2c1.2-0.7,2.5-1.3,3.8-1.9c1.3-0.6,2.6-1.1,4-1.4c0.7-0.2,1.3-0.3,2-0.4
				c0.7-0.1,1.3-0.1,2-0.2c0.7,0,1.2,0,1.9,0.1c0.6,0.1,1.2,0.2,1.7,0.4c0.5,0.2,1,0.4,1.5,0.6c0.4,0.2,0.9,0.4,1.3,0.7
				c0.4,0.2,0.7,0.5,1.1,0.7c0.3,0.2,0.6,0.5,0.8,0.7c0.5,0.4,0.8,0.8,1.1,1c0.2,0.2,0.4,0.4,0.4,0.4l-0.7,0.7c0,0-0.1-0.1-0.4-0.3
				c-0.3-0.2-0.6-0.5-1.1-0.9c-0.2-0.2-0.5-0.4-0.8-0.6c-0.3-0.2-0.6-0.4-1-0.6c-0.4-0.2-0.8-0.4-1.2-0.6c-0.4-0.1-0.9-0.3-1.4-0.5
				c-0.5-0.1-1-0.2-1.5-0.3c-0.5-0.1-1.2-0.1-1.7-0.1c-0.6,0-1.2,0.1-1.8,0.1c-0.6,0.1-1.2,0.2-1.8,0.4c-1.2,0.3-2.5,0.8-3.7,1.3
				c-1.3,0.5-2.5,1.2-3.7,1.8c-2.5,1.3-4.9,2.8-7.2,4.1c-1.2,0.6-2.3,1.2-3.5,1.7c-0.6,0.3-1.2,0.4-1.7,0.6
				c-0.6,0.2-1.2,0.3-1.7,0.4c-0.3,0-0.5,0-0.8,0.1l-0.4,0l-0.2,0l-0.2,0c-0.5,0-1-0.1-1.4-0.1c-0.4-0.1-0.8-0.2-1.2-0.2
				c-0.4-0.1-0.7-0.2-1-0.3c-0.6-0.2-1.1-0.3-1.4-0.4c-0.3-0.1-0.5-0.2-0.5-0.2L23.3,57.5z"/>
		</g>
	</g>
</g>
</svg>
