<?xml version="1.0" encoding="utf-8"?>
<!-- Generator: Adobe Illustrator 17.1.0, SVG Export Plug-In . SVG Version: 6.00 Build 0)  -->
<!DOCTYPE svg PUBLIC "-//W3C//DTD SVG 1.1//EN" "http://www.w3.org/Graphics/SVG/1.1/DTD/svg11.dtd">
<svg version="1.1" id="Layer_1" xmlns="http://www.w3.org/2000/svg" xmlns:xlink="http://www.w3.org/1999/xlink" x="0px" y="0px"
	 width="86.3px" height="86.3px" viewBox="0 0 86.3 86.3" enable-background="new 0 0 86.3 86.3" xml:space="preserve">
<g>
	<circle fill="#FFCB55" cx="43.2" cy="43.2" r="43.2"/>
	<circle fill="#FFEE94" cx="41.6" cy="40.4" r="39.8"/>
	<g>
		<circle fill="#FFFFF8" cx="60.6" cy="31.7" r="11.7"/>
		<circle fill="#4C3213" cx="61.6" cy="31.7" r="5.9"/>
		<circle fill="#FDFDF7" cx="56.1" cy="29.7" r="3.9"/>
	</g>
	<path fill="#7F4E14" d="M49.1,20.6l-0.7,4.9c0,0.2,0.1,0.3,0.3,0.3l22.7-3.2c0.2,0,0.2-0.2,0.2-0.3l-3.2-7.2c0-0.1-0.2-0.2-0.3-0.1
		l-18.8,5.5C49.2,20.4,49.1,20.5,49.1,20.6z"/>
	<g>
		<circle fill="#FFFFF8" cx="26.3" cy="31.1" r="11.7"/>
		<circle fill="#4C3213" cx="27.3" cy="31.1" r="5.9"/>
		<circle fill="#FDFDF7" cx="21.7" cy="29.1" r="3.9"/>
	</g>
	<path fill="#7F4E14" d="M38.3,13.7l0.4,4.6c0,0.3-0.2,0.5-0.5,0.4l-22.1-4.6c-0.3-0.1-0.4-0.3-0.3-0.6l3.5-6.6
		c0.1-0.2,0.3-0.3,0.5-0.2l18.2,6.6C38.2,13.4,38.3,13.6,38.3,13.7z"/>
	<path fill="none" stroke="#7F4E14" stroke-width="1.4249" stroke-miterlimit="10" d="M44.5,59.8c0,0,3.1-3,7.8-1.9s5.8,5.6,5.8,5.6
		"/>
</g>
</svg>
