<?xml version="1.0" encoding="utf-8"?>
<!-- Generator: Adobe Illustrator 17.1.0, SVG Export Plug-In . SVG Version: 6.00 Build 0)  -->
<!DOCTYPE svg PUBLIC "-//W3C//DTD SVG 1.1//EN" "http://www.w3.org/Graphics/SVG/1.1/DTD/svg11.dtd">
<svg version="1.1" id="Layer_1" xmlns="http://www.w3.org/2000/svg" xmlns:xlink="http://www.w3.org/1999/xlink" x="0px" y="0px"
	 width="86.3px" height="86.3px" viewBox="0 0 86.3 86.3" enable-background="new 0 0 86.3 86.3" xml:space="preserve">
<g>
	<circle fill="#FFCB55" cx="43.2" cy="43.2" r="43.2"/>
	<circle fill="#FFEE94" cx="41.6" cy="40.4" r="39.8"/>
	<path fill="#FFFFF8" d="M49.5,34.5c-1.9,6.2,1.6,12.7,7.7,14.6c6.2,1.9,12.7-1.6,14.6-7.7L49.5,34.5z"/>
	<g>
		<circle fill="#4C3213" cx="59.7" cy="42.2" r="5.9"/>
		<circle fill="#FDFDF7" cx="55" cy="38.6" r="3.9"/>
	</g>
	<path fill="#ECD17C" d="M71.8,41.4c1.9-6.2-1.6-12.7-7.7-14.6c-6.2-1.9-12.7,1.6-14.6,7.7L71.8,41.4z"/>
	<path fill="#FFFFF8" d="M36.2,34.5c1.9,6.2-1.6,12.7-7.7,14.6s-12.7-1.6-14.6-7.7L36.2,34.5z"/>
	<g>
		<circle fill="#4C3213" cx="26" cy="42.2" r="5.9"/>
		<circle fill="#FDFDF7" cx="30.7" cy="38.6" r="3.9"/>
	</g>
	<path fill="#ECD17C" d="M13.8,41.4c-1.9-6.2,1.6-12.7,7.7-14.6c6.2-1.9,12.7,1.6,14.6,7.7L13.8,41.4z"/>
	<path fill="#7F4E14" d="M56.1,22.3l-3.4,3.6c-0.1,0.1-0.1,0.3,0.1,0.4l20.5,10.4c0.1,0.1,0.3,0,0.3-0.2l1.5-7.7
		c0-0.1,0-0.2-0.2-0.3l-18.5-6.2C56.3,22.2,56.2,22.2,56.1,22.3z"/>
	<path fill="#7F4E14" d="M31.2,20.7l3.2,3.4c0.2,0.2,0.1,0.5-0.2,0.7L11.8,35.9c-0.3,0.1-0.6,0-0.6-0.3l-1-7.5
		c0-0.2,0.1-0.4,0.3-0.5l20.3-7C30.9,20.5,31.1,20.6,31.2,20.7z"/>
	<path fill="none" stroke="#7F4E14" stroke-width="1.4249" stroke-miterlimit="10" d="M41.9,58.8c0,0,2.2-3.7,7.1-3.9
		c4.8-0.1,7.1,3.9,7.1,3.9"/>
</g>
</svg>
