<?xml version="1.0" encoding="utf-8"?>
<!-- Generator: Adobe Illustrator 17.1.0, SVG Export Plug-In . SVG Version: 6.00 Build 0)  -->
<!DOCTYPE svg PUBLIC "-//W3C//DTD SVG 1.1//EN" "http://www.w3.org/Graphics/SVG/1.1/DTD/svg11.dtd">
<svg version="1.1" id="Layer_1" xmlns="http://www.w3.org/2000/svg" xmlns:xlink="http://www.w3.org/1999/xlink" x="0px" y="0px"
	 width="86.3px" height="86.3px" viewBox="0 0 86.3 86.3" enable-background="new 0 0 86.3 86.3" xml:space="preserve">
<g>
	<circle fill="#FFCB55" cx="43.2" cy="43.2" r="43.2"/>
	<circle fill="#FFEE94" cx="41.6" cy="40.4" r="39.8"/>
	<g>
		<path fill="#FFFFF8" d="M48.9,31.7c0,6.5,5.2,11.7,11.7,11.7c6.5,0,11.7-5.2,11.7-11.7H48.9z"/>
		<path fill="#ECD17C" d="M72.3,31.7c0-6.5-5.2-11.7-11.7-11.7c-6.5,0-11.7,5.2-11.7,11.7H72.3z"/>
		<path fill="#4C3213" d="M55.7,31.7c0,3.3,2.6,5.9,5.9,5.9c3.3,0,5.9-2.6,5.9-5.9H55.7"/>
		<path fill="#FDFDF7" d="M52.6,31.6c0.7,1.2,2,2,3.4,2c1.4,0,2.7-0.8,3.4-1.9L52.6,31.6z"/>
	</g>
	<g>
		<path fill="#FFFFF8" d="M14.5,31.7c0,6.5,5.2,11.7,11.7,11.7c6.5,0,11.7-5.2,11.7-11.7H14.5z"/>
		<path fill="#ECD17C" d="M37.8,31.7c0-6.5-5.2-11.7-11.7-11.7c-6.5,0-11.7,5.2-11.7,11.7H37.8z"/>
		<path fill="#4C3213" d="M21.2,31.7c0,3.3,2.6,5.9,5.9,5.9c3.3,0,5.9-2.6,5.9-5.9H21.2"/>
		<path fill="#FDFDF7" d="M18.2,31.6c0.7,1.2,2,2,3.4,2c1.4,0,2.7-0.8,3.4-1.9L18.2,31.6z"/>
	</g>
	<path fill="#7F4E14" d="M49.8,18.8l-1.1,4.9c0,0.2,0.1,0.3,0.2,0.3l22.9-1.4c0.2,0,0.3-0.2,0.2-0.3l-2.6-7.4c0-0.1-0.2-0.2-0.3-0.2
		l-19.1,4C49.9,18.6,49.8,18.7,49.8,18.8z"/>
	<path fill="#7F4E14" d="M38.8,19l1.3,4.5c0.1,0.3-0.2,0.5-0.5,0.5l-25.1-0.6c-0.3,0-0.5-0.3-0.4-0.5l2.6-7.1
		c0.1-0.2,0.3-0.3,0.5-0.3l21.2,3.3C38.6,18.7,38.8,18.9,38.8,19z"/>
	<g>
		<g>
			<path fill="#7F4E14" d="M20.9,61.5c0,0,0.1-0.2,0.3-0.6c0.2-0.4,0.6-0.9,1-1.5c0.9-1.3,2.4-3,4.5-4.8c2.1-1.7,4.8-3.4,8-4.7
				c3.1-1.3,6.7-2.1,10.3-2.4c1.8-0.1,3.6-0.2,5.4,0c1.8,0.2,3.6,0.5,5.2,1.1c3.3,1.2,5.9,3.2,7.7,5.2c1.9,2,3,4,3.7,5.4
				c0.4,0.7,0.6,1.3,0.7,1.7c0.2,0.4,0.2,0.6,0.2,0.6l-1,0.3c0,0-0.1-0.2-0.2-0.6c-0.2-0.4-0.4-0.9-0.8-1.6
				c-0.7-1.3-1.9-3.2-3.6-5.1c-1.8-1.9-4.2-3.8-7.2-4.8c-1.5-0.5-3.2-0.9-4.8-1c-1.7-0.1-3.4,0-5.2,0.1c-3.5,0.3-6.9,1-9.9,2.2
				c-3,1.2-5.7,2.8-7.7,4.4c-2,1.6-3.5,3.2-4.4,4.4c-0.5,0.6-0.8,1.1-1,1.4c-0.2,0.3-0.3,0.5-0.3,0.5L20.9,61.5z"/>
		</g>
	</g>
</g>
</svg>
