<?xml version="1.0" encoding="utf-8"?>
<!-- Generator: Adobe Illustrator 17.1.0, SVG Export Plug-In . SVG Version: 6.00 Build 0)  -->
<!DOCTYPE svg PUBLIC "-//W3C//DTD SVG 1.1//EN" "http://www.w3.org/Graphics/SVG/1.1/DTD/svg11.dtd">
<svg version="1.1" id="Layer_1" xmlns="http://www.w3.org/2000/svg" xmlns:xlink="http://www.w3.org/1999/xlink" x="0px" y="0px"
	 width="86.3px" height="86.3px" viewBox="0 0 86.3 86.3" enable-background="new 0 0 86.3 86.3" xml:space="preserve">
<g>
	<circle fill="#FFCB55" cx="43.2" cy="43.2" r="43.2"/>
	<circle fill="#FFEE94" cx="41.6" cy="40.4" r="39.8"/>
	<path fill="#FFFFF8" d="M50,33.2c-2.6,5.9,0,12.8,5.9,15.5c5.9,2.6,12.8,0,15.5-5.9L50,33.2z"/>
	<g>
		<circle fill="#4C3213" cx="59.2" cy="42.1" r="5.9"/>
		<circle fill="#FDFDF7" cx="54.9" cy="37.9" r="3.9"/>
	</g>
	<path fill="#ECD17C" d="M71.3,42.8c2.6-5.9,0-12.8-5.9-15.4c-5.9-2.6-12.8,0-15.4,5.9L71.3,42.8z"/>
	<path fill="#FFFFF8" d="M36,34.1c2.1,6.1-1.1,12.8-7.2,14.9c-6.1,2.1-12.8-1.1-14.9-7.2L36,34.1z"/>
	<g>
		<circle fill="#4C3213" cx="26.1" cy="42.2" r="5.9"/>
		<circle fill="#FDFDF7" cx="30.7" cy="38.4" r="3.9"/>
	</g>
	<path fill="#ECD17C" d="M14,41.8c-2.1-6.1,1.1-12.8,7.2-14.9c6.1-2.1,12.8,1.1,14.9,7.2L14,41.8z"/>
	<path fill="#7F4E14" d="M53.8,11.9l-3.4,3.6c-0.1,0.1-0.1,0.3,0.1,0.4l20.5,10.4c0.1,0.1,0.3,0,0.3-0.2l1.5-7.7
		c0-0.1,0-0.2-0.2-0.3L54,11.9C53.9,11.8,53.8,11.9,53.8,11.9z"/>
	<path fill="#7F4E14" d="M29.1,13l3.2,3.4c0.2,0.2,0.1,0.5-0.2,0.7L9.6,28.2c-0.3,0.1-0.6,0-0.6-0.3l-1-7.5c0-0.2,0.1-0.4,0.3-0.5
		l20.3-7C28.8,12.8,29,12.9,29.1,13z"/>
	<path fill="#00D6F9" d="M27,49.5c0,0-8-0.6-11,0.9c-1.5,0.7-3.5,2.7-2.2,4.9c1.7,2.8,4.4,1.1,5.2,0C21.3,52.1,27,49.5,27,49.5z"/>
	<path fill="#00D6F9" d="M58.8,49.5c0,0,8-0.6,11,0.9c1.5,0.7,3.5,2.7,2.2,4.9c-1.7,2.8-4.4,1.1-5.2,0
		C64.5,52.1,58.8,49.5,58.8,49.5z"/>
	<path fill="#00D6F9" d="M69.1,60c0,0,4.7,2,5.9,3.7c0.6,0.8,1.1,2.6-0.2,3.4c-1.7,1.1-2.8-0.5-3.2-1.2C70.5,63.8,69.1,60,69.1,60z"
		/>
	<path fill="none" stroke="#7F4E14" stroke-width="1.3984" stroke-miterlimit="10" d="M38.2,60.1c0,0,1.8-4.5,5.7-4.7
		c3.9-0.2,5.7,4.7,5.7,4.7"/>
</g>
</svg>
