<?xml version="1.0" encoding="utf-8"?>
<!-- Generator: Adobe Illustrator 17.1.0, SVG Export Plug-In . SVG Version: 6.00 Build 0)  -->
<!DOCTYPE svg PUBLIC "-//W3C//DTD SVG 1.1//EN" "http://www.w3.org/Graphics/SVG/1.1/DTD/svg11.dtd">
<svg version="1.1" id="Layer_1" xmlns="http://www.w3.org/2000/svg" xmlns:xlink="http://www.w3.org/1999/xlink" x="0px" y="0px"
	 width="86.3px" height="86.3px" viewBox="0 0 86.3 86.3" enable-background="new 0 0 86.3 86.3" xml:space="preserve">
<g>
	<circle fill="#FFCB55" cx="43.2" cy="43.2" r="43.2"/>
	<circle fill="#FFEE94" cx="41.6" cy="40.4" r="39.8"/>
	<path fill="#7F4E14" d="M51.5,8.1l-2.4,4.4c-0.1,0.1,0,0.3,0.2,0.3l22.5,4.7c0.2,0,0.3-0.1,0.3-0.2l-0.6-7.9c0-0.1-0.1-0.2-0.2-0.2
		L51.8,8C51.7,8,51.6,8,51.5,8.1z"/>
	<path fill="#7F4E14" d="M32.9,9.1l2.2,4.1c0.1,0.2,0,0.5-0.3,0.6l-24.6,4.9c-0.3,0.1-0.6-0.2-0.5-0.4l1-7.5c0-0.2,0.2-0.4,0.4-0.4
		l21.4-1.5C32.7,8.9,32.9,9,32.9,9.1z"/>
	<path fill="#F3574B" stroke="#FFCB55" stroke-width="1.5235" stroke-miterlimit="10" d="M64.1,49c0,16.3-9.4,29.5-20.9,29.5
		c-11.5,0-20.9-13.2-20.9-29.5H64.1z"/>
	<path fill="#FFFFFF" d="M63.1,58c0.6-2.8,1-5.9,1-9H22.3c0,2.9,0.3,5.6,0.8,8.2L45.8,58c0.2,0,0.5-0.2,0.5-0.4l0.2-5l0.9,5.1
		c0,0.2,0.2,0.4,0.5,0.4H63.1z"/>
	<path fill="none" stroke="#FFCB55" stroke-width="1.5235" stroke-miterlimit="10" d="M64.1,49c0,16.3-9.4,29.5-20.9,29.5
		c-11.5,0-20.9-13.2-20.9-29.5H64.1z"/>
	<g>
		<circle fill="#FFFFF8" cx="60.3" cy="31.1" r="11.7"/>
		<circle fill="#4C3213" cx="61.3" cy="31.1" r="5.9"/>
		<circle fill="#FDFDF7" cx="55.8" cy="29.1" r="3.9"/>
	</g>
	<g>
		<circle fill="#FFFFF8" cx="26" cy="30.5" r="11.7"/>
		<circle fill="#4C3213" cx="27" cy="30.5" r="5.9"/>
		<circle fill="#FDFDF7" cx="21.4" cy="28.5" r="3.9"/>
	</g>
</g>
</svg>
