<?xml version="1.0" encoding="utf-8"?>
<!-- Generator: Adobe Illustrator 17.1.0, SVG Export Plug-In . SVG Version: 6.00 Build 0)  -->
<!DOCTYPE svg PUBLIC "-//W3C//DTD SVG 1.1//EN" "http://www.w3.org/Graphics/SVG/1.1/DTD/svg11.dtd">
<svg version="1.1" id="Layer_1" xmlns="http://www.w3.org/2000/svg" xmlns:xlink="http://www.w3.org/1999/xlink" x="0px" y="0px"
	 width="86.3px" height="86.3px" viewBox="0 0 86.3 86.3" enable-background="new 0 0 86.3 86.3" xml:space="preserve">
<g>
	<circle fill="#FFCB55" cx="43.2" cy="43.2" r="43.2"/>
	<circle fill="#FFEE94" cx="41.6" cy="40.4" r="39.8"/>
	<circle fill="#FFFFF8" cx="60.6" cy="31.7" r="11.7"/>
	<circle fill="#4C3213" cx="61.5" cy="31.7" r="7.8"/>
	<circle fill="#FDFDF7" cx="57.6" cy="28.1" r="3.9"/>
	<circle fill="#FDFDF7" cx="62.3" cy="33.3" r="1.7"/>
	<circle fill="#FFFFF8" cx="25.4" cy="31.7" r="11.7"/>
	<circle fill="#4C3213" cx="26.3" cy="31.7" r="7.8"/>
	<circle fill="#FDFDF7" cx="22.3" cy="28.1" r="3.9"/>
	<circle fill="#FDFDF7" cx="27.1" cy="33.3" r="1.7"/>
	<path fill="#7F4E14" d="M54.5,9.3l-3.2,3.8c-0.1,0.1-0.1,0.3,0.1,0.4l21,9.3c0.1,0.1,0.3,0,0.3-0.2l1.1-7.8c0-0.1-0.1-0.2-0.2-0.3
		L54.7,9.2C54.6,9.2,54.5,9.2,54.5,9.3z"/>
	<path fill="#7F4E14" d="M28.9,9.7l3.2,3.3c0.2,0.2,0.1,0.5-0.1,0.6l-20,10.5c-0.2,0.1-0.5,0-0.6-0.3L10,16.6c0-0.2,0.1-0.4,0.3-0.5
		l18.3-6.5C28.6,9.6,28.8,9.6,28.9,9.7z"/>
	<g>
		<g>
			<path fill="#7F4E14" d="M36.5,54.4c0,0,0.1,0.3,0.3,0.7c0.2,0.4,0.6,1,1.2,1.6c0.6,0.6,1.4,1.1,2.4,1.4c0.5,0.2,1,0.3,1.5,0.4
				c0.5,0.1,1.1,0.1,1.6,0.1l0.9,0c0.3,0,0.5-0.1,0.8-0.1c0.5-0.1,1.1-0.2,1.5-0.4c0.2-0.1,0.5-0.2,0.7-0.3c0.2-0.1,0.4-0.2,0.6-0.3
				c0.4-0.2,0.8-0.5,1.1-0.8c0.6-0.6,1-1.1,1.3-1.6c0.2-0.4,0.3-0.7,0.3-0.7l0.6,0.1c0,0,0,0.1,0,0.2c0,0.2-0.1,0.4-0.2,0.6
				c-0.2,0.5-0.5,1.3-1.1,2.1c-0.3,0.4-0.7,0.8-1.2,1.1c-0.2,0.2-0.5,0.4-0.7,0.5c-0.3,0.2-0.5,0.3-0.8,0.4
				c-0.3,0.1-0.6,0.2-0.9,0.3c-0.3,0.1-0.6,0.2-1,0.2c-0.3,0-0.7,0.1-1,0.1l-0.9,0.1c-0.7,0-1.3,0-2-0.1c-0.6-0.1-1.3-0.3-1.8-0.5
				c-1.2-0.5-2.1-1.3-2.7-2.1c-0.6-0.8-0.9-1.6-1.1-2.1c-0.2-0.5-0.2-0.9-0.2-0.9L36.5,54.4z"/>
		</g>
	</g>
</g>
</svg>
