<?xml version="1.0" encoding="utf-8"?>
<!-- Generator: Adobe Illustrator 17.1.0, SVG Export Plug-In . SVG Version: 6.00 Build 0)  -->
<!DOCTYPE svg PUBLIC "-//W3C//DTD SVG 1.1//EN" "http://www.w3.org/Graphics/SVG/1.1/DTD/svg11.dtd">
<svg version="1.1" id="Layer_1" xmlns="http://www.w3.org/2000/svg" xmlns:xlink="http://www.w3.org/1999/xlink" x="0px" y="0px"
	 width="86.3px" height="86.3px" viewBox="0 0 86.3 86.3" enable-background="new 0 0 86.3 86.3" xml:space="preserve">
<g>
	<circle fill="#FFCB55" cx="43.2" cy="43.2" r="43.2"/>
	<circle fill="#FFEE94" cx="41.6" cy="40.4" r="39.8"/>
	<circle fill="#FFFFF8" cx="60.6" cy="31.7" r="11.7"/>
	<circle fill="#4C3213" cx="63" cy="25.9" r="5.9"/>
	<circle fill="#FDFDF7" cx="58.5" cy="29" r="3.9"/>
	<path fill="#7F4E14" d="M48.6,10.8l-1.8,4.6c-0.1,0.1,0,0.3,0.2,0.3l22.9,1.9c0.2,0,0.3-0.1,0.2-0.3l-1.5-7.7
		c0-0.1-0.1-0.2-0.2-0.2l-19.5,1.2C48.7,10.7,48.7,10.7,48.6,10.8z"/>
	<circle fill="#FFFFF8" cx="26.3" cy="31.1" r="11.7"/>
	<circle fill="#4C3213" cx="29.4" cy="26.2" r="5.9"/>
	<circle fill="#FDFDF7" cx="25.5" cy="29" r="3.9"/>
	<path fill="#7F4E14" d="M34.7,10.5l2.8,3.7c0.2,0.2,0.1,0.5-0.2,0.6l-21.1,8c-0.3,0.1-0.5-0.1-0.5-0.3L15,15c0-0.2,0.1-0.4,0.3-0.4
		l18.9-4.2C34.4,10.3,34.6,10.4,34.7,10.5z"/>
	<g>
		<g>
			<path fill="#7F4E14" d="M19.5,54.2c0,0,0.1,0.5,0.4,1.2c0.3,0.8,0.8,1.9,1.6,3c0.8,1.2,1.9,2.4,3.4,3.4c1.4,1,3.2,1.8,5,2.1
				c0.5,0.1,0.9,0.2,1.4,0.2c0.5,0.1,1,0.1,1.4,0.1c0.9,0,1.8,0,2.7-0.1c1.7-0.2,3.3-0.7,4.5-1.5c1.2-0.8,1.9-1.7,2.4-2.4
				c0.2-0.3,0.4-0.6,0.5-0.8c0.1-0.2,0.1-0.3,0.1-0.3l0.5,0.1c0,0,0,0.1-0.1,0.4c-0.1,0.2-0.2,0.6-0.4,1c-0.4,0.8-1.1,1.9-2.4,2.9
				c-1.2,0.9-3,1.7-4.9,1.9c-1,0.1-1.9,0.2-3,0.1c-0.5,0-1-0.1-1.5-0.1c-0.5-0.1-1-0.1-1.5-0.3c-2-0.4-4-1.3-5.5-2.5
				c-1.5-1.2-2.7-2.6-3.4-3.9c-0.8-1.3-1.2-2.5-1.5-3.4c-0.2-0.8-0.3-1.4-0.3-1.4L19.5,54.2z"/>
		</g>
	</g>
</g>
</svg>
