<?xml version="1.0" encoding="utf-8"?>
<!-- Generator: Adobe Illustrator 17.1.0, SVG Export Plug-In . SVG Version: 6.00 Build 0)  -->
<!DOCTYPE svg PUBLIC "-//W3C//DTD SVG 1.1//EN" "http://www.w3.org/Graphics/SVG/1.1/DTD/svg11.dtd">
<svg version="1.1" id="Layer_1" xmlns="http://www.w3.org/2000/svg" xmlns:xlink="http://www.w3.org/1999/xlink" x="0px" y="0px"
	 width="86.3px" height="86.3px" viewBox="0 0 86.3 86.3" enable-background="new 0 0 86.3 86.3" xml:space="preserve">
<g>
	<circle fill="#FFCB55" cx="43.2" cy="43.2" r="43.2"/>
	<circle fill="#FFEE94" cx="41.6" cy="40.4" r="39.8"/>
	<path fill="#7F4E14" d="M52.7,12.6l-2.9,4c-0.1,0.1,0,0.3,0.1,0.4l21.7,7.5c0.1,0.1,0.3-0.1,0.3-0.2l0.4-7.9c0-0.1-0.1-0.2-0.2-0.2
		L53,12.5C52.9,12.5,52.8,12.5,52.7,12.6z"/>
	<path fill="#7F4E14" d="M29.5,12.7l2.7,3.8c0.2,0.2,0.1,0.5-0.2,0.6l-21.3,7.5c-0.3,0.1-0.5-0.1-0.5-0.4l-0.4-7.5
		c0-0.2,0.1-0.4,0.3-0.4l19-3.8C29.3,12.5,29.4,12.5,29.5,12.7z"/>
	<g>
		<g>
			<path fill="#7F4E14" d="M37.5,52.9c0,0,0.1,0.2,0.3,0.6c0.2,0.4,0.5,1,0.9,1.5c0.4,0.6,1.1,1.1,1.8,1.5c0.4,0.2,0.8,0.3,1.3,0.4
				c0.4,0.1,0.9,0.1,1.4,0.1l0.4,0l0.3,0c0.2,0,0.5-0.1,0.7-0.1c0.4-0.1,0.9-0.2,1.3-0.4c0.8-0.4,1.4-0.9,1.9-1.5
				c0.5-0.6,0.8-1.1,0.9-1.5c0.1-0.2,0.2-0.4,0.2-0.5c0-0.1,0.1-0.2,0.1-0.2l0.6,0.1c0,0,0,0.3-0.1,0.8c-0.1,0.5-0.3,1.2-0.7,1.9
				c-0.4,0.8-1.1,1.6-2.1,2.1c-0.5,0.3-1,0.5-1.6,0.7c-0.3,0.1-0.6,0.1-0.9,0.2l-0.5,0l-0.4,0c-0.6,0-1.2-0.1-1.8-0.2
				c-0.6-0.1-1.1-0.4-1.6-0.6c-1-0.6-1.7-1.4-2.1-2.2c-0.4-0.8-0.6-1.5-0.7-1.9c-0.1-0.5-0.1-0.8-0.1-0.8L37.5,52.9z"/>
		</g>
	</g>
	<g>
		<line fill="#FDFDF7" x1="25.6" y1="35.6" x2="32.4" y2="35.7"/>
	</g>
	<path fill="#F14941" d="M23.6,28.8c0,0-7.9-6.6-14.3-0.7C2.8,34,21.1,48.9,25.5,47.7c4.4-1.2,17.4-15.1,11.7-22.1
		C32.6,19.8,23.6,28.8,23.6,28.8z"/>
	<path fill="#F14941" d="M63,28.8c0,0-6.3-8.1-13.9-3.7s7.2,21.6,11.7,22.5c3.8,0.8,20.2-11,16.2-19.1C73.7,21.9,63,28.8,63,28.8z"
		/>
</g>
</svg>
