<?xml version="1.0" encoding="utf-8"?>
<!-- Generator: Adobe Illustrator 17.1.0, SVG Export Plug-In . SVG Version: 6.00 Build 0)  -->
<!DOCTYPE svg PUBLIC "-//W3C//DTD SVG 1.1//EN" "http://www.w3.org/Graphics/SVG/1.1/DTD/svg11.dtd">
<svg version="1.1" id="Layer_1" xmlns="http://www.w3.org/2000/svg" xmlns:xlink="http://www.w3.org/1999/xlink" x="0px" y="0px"
	 width="86.3px" height="86.3px" viewBox="0 0 86.3 86.3" enable-background="new 0 0 86.3 86.3" xml:space="preserve">
<g>
	<circle fill="#FFCB55" cx="43.2" cy="43.2" r="43.2"/>
	<circle fill="#FFEE94" cx="41.6" cy="40.4" r="39.8"/>
	<circle fill="#FFFFF8" cx="60.6" cy="31.7" r="11.7"/>
	<circle fill="#4C3213" cx="61.6" cy="31.7" r="5.9"/>
	<circle fill="#FDFDF7" cx="56.1" cy="29.7" r="3.9"/>
	<path fill="#7F4E14" d="M49.1,19.1l-1,4.9c0,0.2,0.1,0.3,0.2,0.3l22.9-1.9c0.2,0,0.3-0.2,0.2-0.3l-2.8-7.4c0-0.1-0.2-0.2-0.3-0.1
		l-19,4.4C49.2,19,49.1,19,49.1,19.1z"/>
	<g>
		<circle fill="#FFFFF8" cx="26.3" cy="31.1" r="11.7"/>
		<circle fill="#4C3213" cx="27.3" cy="31.1" r="5.9"/>
		<circle fill="#FDFDF7" cx="21.7" cy="29.1" r="3.9"/>
	</g>
	<path fill="#7F4E14" d="M38,19.2l0.9,4.5c0.1,0.3-0.2,0.5-0.4,0.5L16,22.3c-0.3,0-0.4-0.3-0.3-0.6l2.7-7c0.1-0.2,0.3-0.3,0.5-0.3
		l18.9,4.4C37.8,18.9,37.9,19.1,38,19.2z"/>
	<g>
		<g>
			<path fill="#7F4E14" d="M8,41.9c0,0,0.1,0.3,0.3,0.9c0.2,0.6,0.5,1.5,1,2.6c1,2.2,2.7,5.2,5.5,8.1c1.4,1.5,3.1,2.9,5,4.2
				c2,1.3,4.2,2.3,6.6,3.2c2.4,0.9,5,1.5,7.6,1.9c2.6,0.4,5.4,0.5,8.1,0.5l2.1,0l2-0.1c0.7,0,1.3-0.1,2-0.2c0.7-0.1,1.3-0.2,2-0.3
				c2.6-0.4,5.2-1.1,7.6-1.9c2.4-0.9,4.6-2,6.6-3.2c2-1.3,3.7-2.7,5.1-4.1c2.9-2.9,4.7-5.9,5.7-8c0.5-1.1,0.9-2,1.1-2.6
				c0.1-0.3,0.2-0.5,0.2-0.7c0-0.1,0.1-0.2,0.1-0.2l1,0.2c0,0,0,0.1-0.1,0.3c0,0.2-0.1,0.4-0.2,0.8c-0.2,0.7-0.4,1.6-0.9,2.8
				c-0.9,2.3-2.6,5.6-5.5,8.8C68,57.9,63.9,61,58.8,63c-2.5,1-5.3,1.7-8.1,2.2c-0.7,0.1-1.4,0.2-2.1,0.3c-0.7,0.1-1.4,0.2-2.1,0.2
				l-2.2,0.2l-2.1,0.1c-2.9,0-5.8-0.2-8.6-0.6c-2.8-0.4-5.5-1.2-8.1-2.1c-5.1-1.9-9.3-5.1-12.2-8.4c-2.9-3.3-4.4-6.6-5.3-9
				c-0.4-1.2-0.7-2.1-0.8-2.8c-0.1-0.3-0.1-0.6-0.2-0.8C7,42.1,7,42,7,42L8,41.9z"/>
		</g>
	</g>
</g>
</svg>
