<?xml version="1.0" encoding="utf-8"?>
<!-- Generator: Adobe Illustrator 17.1.0, SVG Export Plug-In . SVG Version: 6.00 Build 0)  -->
<!DOCTYPE svg PUBLIC "-//W3C//DTD SVG 1.1//EN" "http://www.w3.org/Graphics/SVG/1.1/DTD/svg11.dtd">
<svg version="1.1" id="Layer_1" xmlns="http://www.w3.org/2000/svg" xmlns:xlink="http://www.w3.org/1999/xlink" x="0px" y="0px"
	 width="86.3px" height="86.3px" viewBox="0 0 86.3 86.3" enable-background="new 0 0 86.3 86.3" xml:space="preserve">
<g>
	<circle fill="#FFCB55" cx="43.2" cy="43.2" r="43.2"/>
	<circle fill="#FFEE94" cx="41.6" cy="40.4" r="39.8"/>
	<g>
		<path fill="#FFFFF8" d="M48.9,31.7c0,6.5,5.2,11.7,11.7,11.7c6.5,0,11.7-5.2,11.7-11.7H48.9z"/>
		<path fill="#ECD17C" d="M72.3,31.7c0-6.5-5.2-11.7-11.7-11.7c-6.5,0-11.7,5.2-11.7,11.7H72.3z"/>
		<path fill="#4C3213" d="M55.7,31.7c0,3.3,2.6,5.9,5.9,5.9c3.3,0,5.9-2.6,5.9-5.9H55.7"/>
		<path fill="#FDFDF7" d="M52.6,31.6c0.7,1.2,2,2,3.4,2c1.4,0,2.7-0.8,3.4-1.9L52.6,31.6z"/>
	</g>
	<g>
		<path fill="#FFFFF8" d="M14.5,31.7c0,6.5,5.2,11.7,11.7,11.7c6.5,0,11.7-5.2,11.7-11.7H14.5z"/>
		<path fill="#ECD17C" d="M37.8,31.7c0-6.5-5.2-11.7-11.7-11.7c-6.5,0-11.7,5.2-11.7,11.7H37.8z"/>
		<path fill="#4C3213" d="M21.2,31.7c0,3.3,2.6,5.9,5.9,5.9c3.3,0,5.9-2.6,5.9-5.9H21.2"/>
		<path fill="#FDFDF7" d="M18.2,31.6c0.7,1.2,2,2,3.4,2c1.4,0,2.7-0.8,3.4-1.9L18.2,31.6z"/>
	</g>
	<path fill="#7F4E14" d="M48.2,23.5l-0.1,5c0,0.2,0.1,0.3,0.3,0.2l22.2-6c0.2,0,0.2-0.2,0.1-0.3l-4.1-6.7c-0.1-0.1-0.2-0.1-0.3-0.1
		l-18,7.7C48.3,23.4,48.2,23.5,48.2,23.5z"/>
	<path fill="#7F4E14" d="M39.3,23l0.6,4.6c0,0.3-0.2,0.5-0.5,0.4l-24.7-4.4c-0.3-0.1-0.5-0.3-0.3-0.6l3.7-6.7
		c0.1-0.2,0.3-0.3,0.5-0.2L39,22.7C39.2,22.7,39.3,22.9,39.3,23z"/>
	<g>
		<g>
			<path fill="#7F4E14" d="M67.9,48.6c0,0,0,0.1,0,0.2c0,0.1,0,0.3,0.1,0.5c0,0.4,0,1.1-0.2,1.9c-0.2,0.8-0.7,1.7-1.5,2.5
				c-0.7,0.8-1.7,1.6-2.9,2.3c-2.3,1.3-5.3,2.2-8.5,2.8c-3.2,0.6-6.7,0.9-10.1,0.9c-0.9,0-1.7,0-2.6,0c-0.9,0-1.7,0-2.6-0.1
				c-1.7-0.1-3.4-0.2-5-0.5c-3.2-0.5-6.2-1.3-8.6-2.6c-2.4-1.2-4-3-4.7-4.4c-0.4-0.7-0.5-1.3-0.6-1.8c-0.1-0.4-0.1-0.7-0.1-0.7l1,0
				c0-0.1,0,0.8,0.6,2c0.3,0.6,0.8,1.3,1.6,2c0.7,0.7,1.6,1.3,2.7,1.9c2.2,1.1,5.1,1.9,8.2,2.3c1.6,0.2,3.2,0.4,4.9,0.4
				c0.8,0,1.7,0,2.5,0.1c0.8,0,1.7,0,2.5,0c3.4-0.1,6.8-0.3,9.9-0.9c1.6-0.3,3-0.6,4.4-1c1.4-0.4,2.6-0.9,3.7-1.5
				c1.1-0.6,2-1.3,2.6-2c0.7-0.7,1.1-1.4,1.3-2.1c0.2-0.6,0.3-1.2,0.3-1.5c0-0.4,0-0.5,0-0.5L67.9,48.6z"/>
		</g>
	</g>
</g>
</svg>
