<?xml version="1.0" encoding="utf-8"?>
<!-- Generator: Adobe Illustrator 17.1.0, SVG Export Plug-In . SVG Version: 6.00 Build 0)  -->
<!DOCTYPE svg PUBLIC "-//W3C//DTD SVG 1.1//EN" "http://www.w3.org/Graphics/SVG/1.1/DTD/svg11.dtd">
<svg version="1.1" id="Layer_1" xmlns="http://www.w3.org/2000/svg" xmlns:xlink="http://www.w3.org/1999/xlink" x="0px" y="0px"
	 width="86.3px" height="86.3px" viewBox="0 0 86.3 86.3" enable-background="new 0 0 86.3 86.3" xml:space="preserve">
<g>
	<circle fill="#FFCB55" cx="43.2" cy="43.2" r="43.2"/>
	<circle fill="#FFEE94" cx="41.6" cy="40.4" r="39.8"/>
	<g>
		<path fill="#FFFFF8" d="M48.9,31.7c0,6.5,5.2,11.7,11.7,11.7s11.7-5.2,11.7-11.7H48.9z"/>
		<path fill="#ECD17C" d="M72.3,31.7c0-6.5-5.2-11.7-11.7-11.7s-11.7,5.2-11.7,11.7H72.3z"/>
		<path fill="#4C3213" d="M55.7,31.7c0,3.3,2.6,5.9,5.9,5.9c3.3,0,5.9-2.6,5.9-5.9H55.7"/>
		<path fill="#FDFDF7" d="M52.6,31.6c0.7,1.2,2,2,3.4,2c1.4,0,2.7-0.8,3.4-1.9L52.6,31.6z"/>
	</g>
	<g>
		<path fill="#FFFFF8" d="M14.5,31.7c0,6.5,5.2,11.7,11.7,11.7s11.7-5.2,11.7-11.7H14.5z"/>
		<path fill="#ECD17C" d="M37.8,31.7c0-6.5-5.2-11.7-11.7-11.7s-11.7,5.2-11.7,11.7H37.8z"/>
		<path fill="#4C3213" d="M21.2,31.7c0,3.3,2.6,5.9,5.9,5.9S33,35,33,31.7H21.2"/>
		<path fill="#FDFDF7" d="M18.2,31.6c0.7,1.2,2,2,3.4,2c1.4,0,2.7-0.8,3.4-1.9L18.2,31.6z"/>
	</g>
	<path fill="#7F4E14" d="M49.3,19.3l-1.6,4.7c-0.1,0.1,0.1,0.3,0.2,0.3l22.9,0.9c0.2,0,0.3-0.1,0.2-0.3l-1.9-7.6
		c0-0.1-0.1-0.2-0.3-0.2l-19.4,2C49.4,19.2,49.4,19.3,49.3,19.3z"/>
	<path fill="#7F4E14" d="M39.4,15.5l0.4,4.6c0,0.3-0.3,0.5-0.5,0.4L14.8,15c-0.3-0.1-0.4-0.4-0.3-0.6l4-6.5c0.1-0.2,0.3-0.2,0.6-0.2
		l20.2,7.3C39.3,15.2,39.4,15.3,39.4,15.5z"/>
	<g>
		<g>
			<path fill="#7F4E14" d="M69.6,47.6c0,0,0,0.2,0.1,0.5c0,0.3,0.1,0.8,0,1.3c0,1.1-0.4,2.8-1.4,4.4c-1,1.7-2.6,3.3-4.5,4.7
				c-2,1.3-4.2,2.4-6.6,3.2c-0.6,0.2-1.2,0.4-1.8,0.6c-0.6,0.2-1.2,0.3-1.8,0.5c-1.2,0.3-2.4,0.5-3.6,0.6c-2.3,0.3-4.5,0.3-6.4,0.1
				c-1.9-0.2-3.4-0.5-4.4-0.7c-0.5-0.1-0.9-0.3-1.2-0.3c-0.3-0.1-0.4-0.1-0.4-0.1l0.3-0.9c0,0,0.1,0,0.4,0.1
				c0.3,0.1,0.7,0.2,1.2,0.3c1,0.2,2.5,0.4,4.3,0.5c0.9,0.1,1.9,0.1,2.9,0c1,0,2.1-0.1,3.2-0.3c1.1-0.1,2.3-0.4,3.4-0.6
				c0.6-0.1,1.2-0.3,1.7-0.5c0.6-0.1,1.1-0.4,1.7-0.5c1.1-0.4,2.2-0.8,3.3-1.3c1.1-0.5,2.1-1,3-1.7c1.8-1.2,3.3-2.7,4.2-4.2
				c0.9-1.5,1.3-2.9,1.4-3.9c0-0.5,0-0.9,0-1.1c0-0.3,0-0.4,0-0.4L69.6,47.6z"/>
		</g>
	</g>
</g>
</svg>
