<?xml version="1.0" encoding="utf-8"?>
<!-- Generator: Adobe Illustrator 17.1.0, SVG Export Plug-In . SVG Version: 6.00 Build 0)  -->
<!DOCTYPE svg PUBLIC "-//W3C//DTD SVG 1.1//EN" "http://www.w3.org/Graphics/SVG/1.1/DTD/svg11.dtd">
<svg version="1.1" id="Layer_1" xmlns="http://www.w3.org/2000/svg" xmlns:xlink="http://www.w3.org/1999/xlink" x="0px" y="0px"
	 width="86.3px" height="86.3px" viewBox="0 0 86.3 86.3" enable-background="new 0 0 86.3 86.3" xml:space="preserve">
<g>
	<circle fill="#FFCB55" cx="43.2" cy="43.2" r="43.2"/>
	<circle fill="#FFEE94" cx="41.6" cy="40.4" r="39.8"/>
	<path fill="#D5BB69" d="M74.5,32.8c0-7.1-5.7-12.8-12.8-12.8s-12.8,5.7-12.8,12.8h0c0,7.1,5.7,12.8,12.8,12.8S74.5,39.8,74.5,32.8
		L74.5,32.8z"/>
	<path fill="#D5BB69" d="M37.9,32.8c0-7.1-5.7-12.8-12.8-12.8s-12.8,5.7-12.8,12.8h0c0,7.1,5.7,12.8,12.8,12.8
		C32.2,45.5,37.9,39.8,37.9,32.8L37.9,32.8z"/>
	<g>
		<path fill="#FFFFF8" d="M48.9,31.7c0,6.5,5.2,11.7,11.7,11.7s11.7-5.2,11.7-11.7H48.9z"/>
		<path fill="#ECD17C" d="M72.3,31.7c0-6.5-5.2-11.7-11.7-11.7c-6.5,0-11.7,5.2-11.7,11.7H72.3z"/>
		<path fill="#4C3213" d="M55.7,31.7c0,3.3,2.6,5.9,5.9,5.9c3.3,0,5.9-2.6,5.9-5.9H55.7"/>
		<path fill="#FDFDF7" d="M52.6,31.6c0.7,1.2,2,2,3.4,2c1.4,0,2.7-0.8,3.4-1.9L52.6,31.6z"/>
	</g>
	<g>
		<path fill="#FFFFF8" d="M14.5,31.7c0,6.5,5.2,11.7,11.7,11.7c6.5,0,11.7-5.2,11.7-11.7H14.5z"/>
		<path fill="#ECD17C" d="M37.8,31.7c0-6.5-5.2-11.7-11.7-11.7c-6.5,0-11.7,5.2-11.7,11.7H37.8z"/>
		<path fill="#4C3213" d="M21.2,31.7c0,3.3,2.6,5.9,5.9,5.9c3.3,0,5.9-2.6,5.9-5.9H21.2"/>
		<path fill="#FDFDF7" d="M18.2,31.6c0.7,1.2,2,2,3.4,2c1.4,0,2.7-0.8,3.4-1.9L18.2,31.6z"/>
	</g>
	<path fill="#7F4E14" d="M50,17.3l-1.8,4.6c-0.1,0.1,0,0.3,0.2,0.3l22.9,1.9c0.2,0,0.3-0.1,0.2-0.3L70,16.1c0-0.1-0.1-0.2-0.2-0.2
		l-19.5,1.2C50.1,17.1,50,17.2,50,17.3z"/>
	<path fill="#7F4E14" d="M37.5,14.5l2.3,4.1c0.1,0.2,0,0.5-0.3,0.6l-24.6,5.2c-0.3,0.1-0.6-0.1-0.5-0.4l0.9-7.6
		c0-0.2,0.2-0.4,0.4-0.4l21.4-1.7C37.3,14.2,37.5,14.3,37.5,14.5z"/>
	<line fill="none" stroke="#7F4E14" stroke-width="1.4249" stroke-miterlimit="10" x1="45.3" y1="60.6" x2="59.4" y2="60.6"/>
</g>
</svg>
