<?xml version="1.0" encoding="utf-8"?>
<!-- Generator: Adobe Illustrator 17.1.0, SVG Export Plug-In . SVG Version: 6.00 Build 0)  -->
<!DOCTYPE svg PUBLIC "-//W3C//DTD SVG 1.1//EN" "http://www.w3.org/Graphics/SVG/1.1/DTD/svg11.dtd">
<svg version="1.1" id="Layer_1" xmlns="http://www.w3.org/2000/svg" xmlns:xlink="http://www.w3.org/1999/xlink" x="0px" y="0px"
	 width="481.4px" height="521px" viewBox="0 0 481.4 521" enable-background="new 0 0 481.4 521" xml:space="preserve">
<path fill="#DBDACB" d="M232.2,470.4c-18.4,0-36.2,0.5-52.7,1.3l-4.6,12.8c-0.3,0.9-0.9,1.7-1.6,2.2c-0.5,0.4-4.8,3.6-13.3,4.2
	c-0.1,0-0.2,0-0.3,0c-2.6,0-4.8-2-5-4.7c-0.2-2.8,1.9-5.1,4.7-5.3c3.4-0.2,5.6-1,6.8-1.5l2.6-7.1c-60.6,3.8-103.2,12.9-103.2,23.4
	c0,14,74.7,25.3,166.8,25.3s166.8-11.3,166.8-25.3c0-11.6-51.6-21.4-121.9-24.4l-1.7,8.7c1.3,0.4,3,0.8,5.2,0.9
	c2.8,0.2,4.8,2.6,4.7,5.3c-0.2,2.6-2.4,4.7-5,4.7c-0.1,0-0.2,0-0.3,0c-8.5-0.6-12.8-3.8-13.3-4.2c-1.5-1.2-2.2-3-1.8-4.9l2.1-10.9
	C255.8,470.6,244.2,470.4,232.2,470.4"/>
<path fill="#133441" d="M26,363.2c-2,0-3.9-1.2-4.7-3.1c-1-2.6,0.2-5.5,2.8-6.5c8.9-3.5,33.6-34.4,47.2-53.1c1.6-2.2,4.8-2.7,7-1.1
	c2.2,1.6,2.7,4.8,1.1,7c-6.1,8.4-37.5,50.8-51.6,56.5C27.3,363.1,26.6,363.2,26,363.2"/>
<path fill="#133441" d="M20.2,372.4c-1.4,0-2.8-0.6-3.8-1.7c-1.1-1.3-1.5-3.1-1-4.6C8,366.9,3.7,365.2,3,364.9
	c-2.5-1.1-3.7-4-2.6-6.6c1.1-2.5,3.9-3.7,6.5-2.7c0.4,0.1,6.4,2.2,17.3-2.2c1.8-0.7,3.8-0.3,5.2,1c1.4,1.3,2,3.3,1.4,5.1
	c-0.2,0.7-2.3,7.2-7.4,11.6C22.5,372,21.3,372.4,20.2,372.4z"/>
<path fill="#133441" d="M419.6,325.2h-0.2c-12-0.1-22.6-10.6-31.3-31.2c-1.1-2.5,0.1-5.5,2.7-6.6c2.6-1.1,5.5,0.1,6.6,2.7
	c4.8,11.4,12.6,25,22.2,25.1l0.1,0c13.3,0,27.3-25,31.2-33.8c1.1-2.5,4.1-3.7,6.6-2.6c2.5,1.1,3.7,4.1,2.6,6.6
	C458.2,289.5,441.8,325.2,419.6,325.2"/>
<path fill="#133441" d="M477.3,282.1c0.5-0.2,1-0.4,1.4-0.7c2.5-1.3,3.4-4.3,2.2-6.8c-1.3-2.5-4.3-3.4-6.8-2.2
	c-4.1,2.1-8.4,2.7-11.2,2.8c-1.8,0.1-3.4-0.1-4.3-0.2c-1.6-1.5-2.6-3.1-2.8-4.6c-0.2-1.2,0.2-2.1,0.2-2.3c1.2-2.4,0.2-5.4-2.2-6.7
	c-2.5-1.3-5.5-0.3-6.8,2.1c-0.3,0.5-1.6,3.2-1.3,7c0.2,3.2,1.5,7.8,6.4,12.2c1.2,3.1,2.7,5.9,4.5,8.4c1.7,2.4,3.7,4.5,5.8,6.3
	c3.8,3.1,6.9,4.3,7.3,4.4c0.6,0.2,1.1,0.3,1.7,0.3c2.1,0,4-1.3,4.7-3.3c0.9-2.6-0.4-5.5-3.1-6.4c0,0-1-0.4-2.4-1.3
	c1.8,0.4,3.5,0.7,5.1,0.9c0.2,0,0.3,0,0.5,0c2.6,0,4.7-1.9,5-4.5C481.5,284.9,479.7,282.6,477.3,282.1z"/>
<path fill="#133441" d="M280.3,490.9c-0.1,0-0.2,0-0.3,0c-8.5-0.6-12.8-3.8-13.3-4.2c-1.5-1.2-2.2-3-1.8-4.9l11.4-58.9
	c0.5-2.7,3.1-4.5,5.9-4c2.7,0.5,4.5,3.2,4,5.9L275.4,480c1.3,0.4,3,0.8,5.2,0.9c2.8,0.2,4.8,2.6,4.7,5.3
	C285.1,488.9,282.9,490.9,280.3,490.9"/>
<path fill="#133441" d="M159.7,490.9c-2.6,0-4.8-2-5-4.7c-0.2-2.8,1.9-5.1,4.7-5.3c3.4-0.2,5.6-1,6.8-1.5l20.5-57.2
	c0.9-2.6,3.8-4,6.4-3c2.6,0.9,4,3.8,3,6.4l-21.1,58.9c-0.3,0.9-0.9,1.7-1.6,2.2c-0.5,0.4-4.8,3.6-13.3,4.2
	C159.9,490.9,159.8,490.9,159.7,490.9"/>
<path fill="#8BC34A" d="M285.7,19.3c-28.1,9.5-33.1,34-33.7,38.4c-3.2,2.2-11.1,7.9-13.2,13.1l-0.4,4.6c0,0,8-12.5,14.4-16.3
	c27.3,22.1,83.7-1.9,97.2-38.6c-3.7,1.4-10.1-0.4-18.6-2.2C319.4,15.7,303.7,13.2,285.7,19.3"/>
<path fill="#5F9E28" d="M349.9,20.5c0,0-25.7,17.2-49.2,25.5S252,57.7,252,57.7l0,0c-2.4,1.6-7.3,5.2-10.6,9
	c-0.5,2.1-0.9,4.2-1.3,6.2c2.7-3.8,8.1-11,12.6-13.8c7.2,5.9,16.5,8.5,26.5,8.5C306.9,67.5,340,47.4,349.9,20.5"/>
<path fill="#8BC34A" d="M232.6,93.5c-2.5-32.7,5.1-67,21.6-88.6c6.6-8.6,17.8-3.8,17.8-0.4s-6.6,5-11,11.4
	c-19.1,27.6-24.6,79.3-24.6,79.3S234.1,112.6,232.6,93.5"/>
<path fill="#5F9E28" d="M263.8,1.5c-3,0-5.3,0.9-5.4,2c-0.1,1.2,2.6,2.4,5.8,2.5c0.2,0,0.5,0,0.7,0c3,0,5.3-0.9,5.4-2
	c0.1-1.2-2.6-2.4-5.8-2.5C264.2,1.5,264,1.5,263.8,1.5"/>
<path fill="#AB3689" d="M274.3,80.9c-15.3,0-32.7,8.5-39.8,8.5c-8.5,0-25.9-8.5-39.8-8.5c-71.7,0-129.8,79.8-129.8,178.1
	c0,98.4,58.1,178.1,129.8,178.1c13.9,0,31.9-8.5,39.8-8.5c7.9,0,25.9,8.5,39.8,8.5c71.7,0,129.8-79.8,129.8-178.1
	C404.2,160.7,346,80.9,274.3,80.9"/>
<path fill="#BFBFC2" d="M294.2,83C294.2,83,294.2,83,294.2,83C294.2,83,294.2,83,294.2,83 M174.8,83C174.8,83,174.8,83,174.8,83
	C174.8,83,174.8,83,174.8,83 M293.9,83C293.9,83,293.9,83,293.9,83C293.9,83,293.9,83,293.9,83 M175.1,83
	C175.1,83,175.1,83,175.1,83C175.1,83,175.1,83,175.1,83 M292.6,82.7C292.6,82.7,292.6,82.7,292.6,82.7
	C292.6,82.7,292.6,82.7,292.6,82.7 M176.4,82.7C176.4,82.7,176.4,82.7,176.4,82.7C176.4,82.7,176.4,82.7,176.4,82.7 M292.3,82.6
	C292.3,82.6,292.3,82.6,292.3,82.6C292.3,82.6,292.3,82.6,292.3,82.6 M176.8,82.6C176.7,82.6,176.7,82.6,176.8,82.6
	C176.7,82.6,176.7,82.6,176.8,82.6 M177.7,82.5C177.7,82.5,177.7,82.5,177.7,82.5C177.7,82.5,177.7,82.5,177.7,82.5 M291.4,82.5
	C291.4,82.5,291.4,82.5,291.4,82.5C291.4,82.5,291.4,82.5,291.4,82.5 M291,82.4c0,0,0.1,0,0.1,0C291.1,82.4,291,82.4,291,82.4
	 M178,82.4c0,0-0.1,0-0.1,0C178,82.4,178,82.4,178,82.4 M290.6,82.3C290.7,82.3,290.7,82.3,290.6,82.3
	C290.7,82.3,290.7,82.3,290.6,82.3 M178.4,82.3C178.4,82.3,178.3,82.3,178.4,82.3C178.3,82.3,178.4,82.3,178.4,82.3 M289.7,82.2
	C289.8,82.2,289.8,82.2,289.7,82.2C289.8,82.2,289.8,82.2,289.7,82.2 M179.3,82.2C179.3,82.2,179.2,82.2,179.3,82.2
	C179.2,82.2,179.3,82.2,179.3,82.2 M289.4,82.1c0,0,0.1,0,0.1,0C289.4,82.1,289.4,82.1,289.4,82.1 M179.7,82.1c0,0-0.1,0-0.1,0
	C179.6,82.1,179.6,82.1,179.7,82.1 M289,82.1c0,0,0.1,0,0.1,0C289.1,82.1,289,82.1,289,82.1 M180,82.1c0,0-0.1,0-0.1,0
	C179.9,82.1,180,82.1,180,82.1 M288.1,81.9c0,0,0.1,0,0.2,0C288.2,81.9,288.1,81.9,288.1,81.9 M180.9,81.9c-0.1,0-0.1,0-0.2,0
	C180.8,81.9,180.9,81.9,180.9,81.9 M287.7,81.9c0.1,0,0.1,0,0.2,0C287.8,81.9,287.8,81.9,287.7,81.9 M181.3,81.9c-0.1,0-0.1,0-0.2,0
	C181.2,81.9,181.3,81.9,181.3,81.9 M287.3,81.8c0.1,0,0.1,0,0.2,0C287.5,81.8,287.4,81.8,287.3,81.8 M181.7,81.8c-0.1,0-0.1,0-0.2,0
	C181.6,81.8,181.6,81.8,181.7,81.8 M286.8,81.8c0.1,0,0.2,0,0.3,0C287,81.8,286.9,81.8,286.8,81.8 M182.2,81.8c-0.1,0-0.2,0-0.3,0
	C182,81.8,182.1,81.8,182.2,81.8 M286.4,81.7c0.1,0,0.1,0,0.2,0C286.6,81.7,286.5,81.7,286.4,81.7 M182.6,81.7c-0.1,0-0.1,0-0.2,0
	C182.5,81.7,182.5,81.7,182.6,81.7 M286.1,81.7c0.1,0,0.1,0,0.2,0C286.2,81.7,286.1,81.7,286.1,81.7 M183,81.7c-0.1,0-0.1,0-0.2,0
	C182.8,81.7,182.9,81.7,183,81.7 M285.7,81.6c0.1,0,0.1,0,0.2,0C285.8,81.6,285.8,81.6,285.7,81.6 M183.4,81.6c-0.1,0-0.1,0-0.2,0
	C183.2,81.6,183.3,81.6,183.4,81.6 M285.2,81.6c0.1,0,0.1,0,0.2,0C285.3,81.6,285.3,81.6,285.2,81.6 M183.9,81.6c-0.1,0-0.1,0-0.2,0
	C183.7,81.6,183.8,81.6,183.9,81.6 M184.2,81.5c-0.1,0-0.1,0-0.2,0C184.1,81.5,184.2,81.5,184.2,81.5 M284.8,81.5c0.1,0,0.1,0,0.2,0
	C284.9,81.5,284.9,81.5,284.8,81.5 M284.4,81.5c0.1,0,0.1,0,0.2,0C284.6,81.5,284.5,81.5,284.4,81.5 M184.6,81.5c-0.1,0-0.1,0-0.2,0
	C184.5,81.5,184.5,81.5,184.6,81.5 M284,81.4c0.1,0,0.2,0,0.3,0C284.2,81.4,284.1,81.4,284,81.4 M185,81.4c-0.1,0-0.2,0-0.3,0
	C184.9,81.4,184.9,81.4,185,81.4 M185.5,81.4c-0.1,0-0.2,0-0.3,0C185.3,81.4,185.4,81.4,185.5,81.4 M283.5,81.4c0.1,0,0.2,0,0.3,0
	C283.7,81.4,283.6,81.4,283.5,81.4 M185.9,81.3c-0.1,0-0.2,0-0.2,0C185.7,81.4,185.8,81.4,185.9,81.3 M283.2,81.3c0.1,0,0.2,0,0.2,0
	C283.3,81.4,283.2,81.4,283.2,81.3 M282.8,81.3c0.1,0,0.2,0,0.2,0C282.9,81.3,282.8,81.3,282.8,81.3 M186.3,81.3c-0.1,0-0.2,0-0.2,0
	C186.1,81.3,186.2,81.3,186.3,81.3 M186.7,81.3c-0.1,0-0.2,0-0.3,0C186.5,81.3,186.6,81.3,186.7,81.3 M282.3,81.3c0.1,0,0.2,0,0.3,0
	C282.5,81.3,282.4,81.3,282.3,81.3 M281.9,81.2c0.1,0,0.2,0,0.3,0C282.1,81.3,282,81.2,281.9,81.2 M187.2,81.2c-0.1,0-0.2,0-0.3,0
	C187,81.3,187.1,81.2,187.2,81.2 M281.5,81.2c0.1,0,0.2,0,0.2,0C281.7,81.2,281.6,81.2,281.5,81.2 M187.5,81.2c-0.1,0-0.2,0-0.2,0
	C187.4,81.2,187.5,81.2,187.5,81.2 M281.1,81.2c0.1,0,0.2,0,0.3,0C281.3,81.2,281.2,81.2,281.1,81.2 M187.9,81.2c-0.1,0-0.2,0-0.3,0
	C187.8,81.2,187.9,81.2,187.9,81.2 M280.6,81.1c0.1,0,0.2,0,0.4,0C280.8,81.2,280.7,81.2,280.6,81.1 M188.4,81.1c-0.1,0-0.2,0-0.4,0
	C188.2,81.2,188.3,81.2,188.4,81.1 M188.8,81.1c-0.1,0-0.2,0-0.3,0C188.6,81.1,188.7,81.1,188.8,81.1 M280.2,81.1c0.1,0,0.2,0,0.3,0
	C280.4,81.1,280.3,81.1,280.2,81.1 M189.2,81.1c-0.1,0-0.2,0-0.2,0C189,81.1,189.1,81.1,189.2,81.1 M279.8,81.1c0.1,0,0.2,0,0.2,0
	C280,81.1,279.9,81.1,279.8,81.1 M189.6,81.1c-0.1,0-0.2,0-0.3,0C189.4,81.1,189.5,81.1,189.6,81.1 M279.4,81.1c0.1,0,0.2,0,0.3,0
	C279.6,81.1,279.5,81.1,279.4,81.1 M190.1,81c-0.1,0-0.2,0-0.4,0C189.8,81.1,190,81.1,190.1,81 M278.9,81c0.1,0,0.2,0,0.4,0
	C279.2,81.1,279.1,81.1,278.9,81 M278.6,81c0.1,0,0.2,0,0.3,0C278.7,81,278.7,81,278.6,81 M190.5,81c-0.1,0-0.2,0-0.3,0
	C190.3,81,190.4,81,190.5,81 M190.9,81c-0.1,0-0.2,0-0.2,0C190.7,81,190.8,81,190.9,81 M278.2,81c0.1,0,0.2,0,0.2,0
	C278.3,81,278.3,81,278.2,81 M277.7,81c0.1,0,0.2,0,0.3,0C277.9,81,277.8,81,277.7,81 M191.3,81c-0.1,0-0.2,0-0.3,0
	C191.1,81,191.2,81,191.3,81 M191.8,81c-0.1,0-0.2,0-0.4,0C191.5,81,191.6,81,191.8,81 M277.3,81c0.1,0,0.2,0,0.4,0
	C277.5,81,277.4,81,277.3,81 M192.1,81c-0.1,0-0.2,0-0.3,0C192,81,192,81,192.1,81 M276.9,81c0.1,0,0.2,0,0.3,0
	C277.1,81,277,81,276.9,81 M192.5,81c-0.1,0-0.2,0-0.2,0C192.4,81,192.4,81,192.5,81 M276.5,81c0.1,0,0.2,0,0.2,0
	C276.7,81,276.6,81,276.5,81 M276,81c0.1,0,0.2,0,0.3,0C276.3,81,276.1,81,276,81 M193,81c-0.1,0-0.2,0-0.3,0
	C192.8,81,192.9,81,193,81 M193.4,80.9c-0.1,0-0.3,0-0.4,0C193.2,81,193.3,80.9,193.4,80.9 M275.6,80.9c0.1,0,0.3,0,0.4,0
	C275.9,81,275.7,80.9,275.6,80.9 M275.2,80.9c0.1,0,0.2,0,0.3,0C275.4,80.9,275.3,80.9,275.2,80.9 M193.8,80.9c-0.1,0-0.2,0-0.3,0
	C193.6,80.9,193.7,80.9,193.8,80.9 M194.2,80.9c-0.1,0-0.2,0-0.3,0C194,80.9,194.1,80.9,194.2,80.9 M274.8,80.9c0.1,0,0.2,0,0.3,0
	C275,80.9,274.9,80.9,274.8,80.9 M194.7,80.9c-0.1,0-0.3,0-0.4,0C194.5,80.9,194.6,80.9,194.7,80.9c12.8,0,28.6,7.2,37.6,8.4l0,0
	C223.3,88.2,207.5,80.9,194.7,80.9 M274.3,80.9c-13.6,0-28.9,6.8-37.1,8.3l0,0C245.4,87.7,260.7,80.9,274.3,80.9c0.1,0,0.3,0,0.4,0
	C274.6,80.9,274.4,80.9,274.3,80.9"/>
<path fill="#BD55A3" d="M274.3,80.9c-13.6,0-28.9,6.8-37.1,8.3c-1,0.2-1.9,0.3-2.7,0.3c-0.7,0-1.4-0.1-2.2-0.2
	c-9.1-1.1-24.8-8.4-37.6-8.4c-0.1,0-0.3,0-0.4,0c0,0-0.1,0-0.1,0c-0.1,0-0.2,0-0.3,0c0,0-0.1,0-0.1,0c-0.1,0-0.2,0-0.3,0
	c0,0-0.1,0-0.1,0c-0.1,0-0.3,0-0.4,0c0,0,0,0,0,0c-0.1,0-0.2,0-0.3,0c0,0-0.1,0-0.1,0c-0.1,0-0.2,0-0.2,0c-0.1,0-0.1,0-0.1,0
	c-0.1,0-0.2,0-0.3,0c0,0-0.1,0-0.1,0c-0.1,0-0.3,0-0.4,0c0,0-0.1,0-0.1,0c-0.1,0-0.2,0-0.3,0c0,0-0.1,0-0.1,0c-0.1,0-0.2,0-0.2,0
	c0,0-0.1,0-0.1,0c-0.1,0-0.2,0-0.3,0c0,0-0.1,0-0.1,0c-0.1,0-0.2,0-0.4,0c0,0-0.1,0-0.1,0c-0.1,0-0.2,0-0.3,0c-0.1,0-0.1,0-0.2,0
	c-0.1,0-0.2,0-0.2,0c0,0-0.1,0-0.1,0c-0.1,0-0.2,0-0.3,0c0,0-0.1,0-0.1,0c-0.1,0-0.2,0-0.4,0c0,0-0.1,0-0.1,0c-0.1,0-0.2,0-0.3,0
	c0,0-0.1,0-0.1,0c-0.1,0-0.2,0-0.2,0c0,0-0.1,0-0.1,0c-0.1,0-0.2,0-0.3,0c0,0-0.1,0-0.1,0c-0.1,0-0.2,0-0.3,0c0,0-0.1,0-0.1,0
	c-0.1,0-0.2,0-0.2,0c-0.1,0-0.1,0-0.2,0c-0.1,0-0.2,0-0.2,0c-0.1,0-0.1,0-0.2,0c-0.1,0-0.2,0-0.3,0c-0.1,0-0.1,0-0.2,0
	c-0.1,0-0.2,0-0.3,0c-0.1,0-0.1,0-0.2,0c-0.1,0-0.1,0-0.2,0c-0.1,0-0.1,0-0.2,0c-0.1,0-0.1,0-0.2,0s-0.1,0-0.2,0c-0.1,0-0.1,0-0.2,0
	c-0.1,0-0.2,0-0.3,0c-0.1,0-0.1,0-0.2,0c-0.1,0-0.1,0-0.2,0c-0.1,0-0.1,0-0.2,0c-0.1,0-0.1,0-0.2,0c-0.1,0-0.1,0-0.2,0
	c-0.1,0-0.1,0-0.2,0c-0.1,0-0.2,0-0.3,0c-0.1,0-0.1,0-0.2,0c-0.1,0-0.1,0-0.2,0c-0.1,0-0.1,0-0.2,0c-0.1,0-0.1,0-0.2,0
	c-0.1,0-0.1,0-0.2,0c-0.1,0-0.1,0-0.2,0c-0.3,0-0.5,0.1-0.7,0.1c-0.1,0-0.1,0-0.1,0c-0.1,0-0.1,0-0.2,0c0,0-0.1,0-0.1,0
	c-0.1,0-0.2,0-0.2,0c0,0-0.1,0-0.1,0c-0.3,0-0.6,0.1-0.8,0.1c0,0-0.1,0-0.1,0c-0.1,0-0.2,0-0.2,0c0,0-0.1,0-0.1,0
	c-0.1,0-0.2,0-0.3,0c0,0,0,0,0,0c-0.3,0.1-0.6,0.1-0.9,0.2c0,0-0.1,0-0.1,0c-0.1,0-0.2,0-0.3,0.1c0,0,0,0,0,0
	c-0.4,0.1-0.8,0.2-1.2,0.2c0,0,0,0,0,0c-0.1,0-0.2,0-0.3,0.1c0,0,0,0,0,0c-48,10.1-87.3,56.4-102.8,117.8
	c20.1-63.8,67.2-108.6,122-108.6c14.2,0,31.9,8.5,40.6,8.5c7.2,0,25-8.5,40.6-8.5c54.8,0,101.8,44.8,121.9,108.6
	C381.6,139.4,342.2,93.2,294.2,83c0,0,0,0,0,0c-0.1,0-0.2,0-0.3-0.1c0,0,0,0,0,0c-0.4-0.1-0.8-0.2-1.2-0.2c0,0,0,0,0,0
	c-0.1,0-0.2,0-0.3-0.1c0,0,0,0-0.1,0c-0.3-0.1-0.6-0.1-0.9-0.2c0,0,0,0,0,0c-0.1,0-0.2,0-0.3,0c0,0-0.1,0-0.1,0c-0.1,0-0.2,0-0.2,0
	c0,0-0.1,0-0.1,0c-0.3,0-0.6-0.1-0.8-0.1c0,0-0.1,0-0.1,0c-0.1,0-0.2,0-0.2,0c0,0-0.1,0-0.1,0c-0.1,0-0.1,0-0.2,0c0,0-0.1,0-0.1,0
	c-0.3,0-0.5-0.1-0.8-0.1c0,0-0.1,0-0.2,0c-0.1,0-0.1,0-0.2,0c-0.1,0-0.1,0-0.2,0c-0.1,0-0.1,0-0.2,0c-0.1,0-0.1,0-0.2,0
	c-0.1,0-0.1,0-0.2,0c-0.1,0-0.2,0-0.3,0c-0.1,0-0.1,0-0.2,0c-0.1,0-0.1,0-0.2,0c-0.1,0-0.1,0-0.2,0c-0.1,0-0.1,0-0.2,0
	c-0.1,0-0.1,0-0.2,0c-0.1,0-0.1,0-0.2,0c-0.1,0-0.2,0-0.3,0c-0.1,0-0.1,0-0.2,0c-0.1,0-0.1,0-0.2,0c-0.1,0-0.1,0-0.2,0
	c-0.1,0-0.1,0-0.2,0c-0.1,0-0.1,0-0.2,0c-0.1,0-0.1,0-0.2,0c-0.1,0-0.2,0-0.3,0c-0.1,0-0.1,0-0.2,0c-0.1,0-0.2,0-0.3,0
	c-0.1,0-0.1,0-0.2,0c-0.1,0-0.2,0-0.2,0c-0.1,0-0.1,0-0.2,0c-0.1,0-0.2,0-0.2,0c-0.1,0-0.1,0-0.1,0c-0.1,0-0.2,0-0.3,0
	c0,0-0.1,0-0.1,0c-0.1,0-0.2,0-0.3,0c0,0-0.1,0-0.1,0c-0.1,0-0.2,0-0.2,0c0,0-0.1,0-0.1,0c-0.1,0-0.2,0-0.3,0c0,0-0.1,0-0.1,0
	c-0.1,0-0.2,0-0.4,0c0,0-0.1,0-0.1,0c-0.1,0-0.2,0-0.3,0c0,0-0.1,0-0.1,0c-0.1,0-0.2,0-0.2,0c-0.1,0-0.1,0-0.2,0c-0.1,0-0.2,0-0.3,0
	c0,0-0.1,0-0.1,0c-0.1,0-0.2,0-0.4,0c0,0-0.1,0-0.1,0c-0.1,0-0.2,0-0.3,0c0,0-0.1,0-0.1,0c-0.1,0-0.2,0-0.2,0c0,0-0.1,0-0.1,0
	c-0.1,0-0.2,0-0.3,0c0,0-0.1,0-0.1,0c-0.1,0-0.2,0-0.4,0c0,0-0.1,0-0.1,0c-0.1,0-0.2,0-0.3,0c-0.1,0-0.1,0-0.1,0c-0.1,0-0.2,0-0.2,0
	c0,0-0.1,0-0.1,0c-0.1,0-0.2,0-0.3,0c0,0,0,0,0,0c-0.1,0-0.3,0-0.4,0c0,0-0.1,0-0.1,0c-0.1,0-0.2,0-0.3,0c0,0-0.1,0-0.1,0
	c-0.1,0-0.2,0-0.3,0c0,0-0.1,0-0.1,0C274.6,80.9,274.4,80.9,274.3,80.9"/>
<path fill="#E3B6D6" d="M64.9,258.4C64.9,258.4,64.9,258.5,64.9,258.4C64.9,258.5,64.9,258.4,64.9,258.4 M404.2,258.3
	C404.2,258.4,404.2,258.4,404.2,258.3C404.2,258.4,404.2,258.4,404.2,258.3 M64.9,257.9C64.9,257.9,64.9,257.9,64.9,257.9
	L64.9,257.9 M404.2,257.8C404.2,257.8,404.2,257.8,404.2,257.8C404.2,257.8,404.2,257.8,404.2,257.8"/>
<path fill="#982773" d="M234.5,428.7c7.8,0,25.2,8.2,39,8.5C259.7,436.9,242.3,428.7,234.5,428.7 M403.3,238.4
	c-8.1,89.4-78.7,160.3-145.7,160.3c-13.6,0-27.9-9.2-36-9.5c0.2,1.3,0.4,2.5,0.5,3.6c1.2,8.1,1.5,12.8,0.8,12.9l0,0
	c-0.7,0-2.3-4.4-4.5-12.1c-0.4-1.2-0.7-2.6-1.1-4c-8.4,1.7-21.2,7.8-33.2,7.8c-66.6,0-112.4-68.8-118.6-157.3
	c-0.5,5.8-0.7,11.7-0.7,17.7v0c0,0.2,0,0.4,0,0.5c0,0,0,0,0,0.1c0,0.2,0,0.4,0,0.6l0,0l0,0c0-2.9,0.1-5.7,0.2-8.5
	c3.4,94.2,60.2,169.2,129.7,169.2c13.9,0,31.9-8.5,39.8-8.5c7.9,0,25.9,8.5,39.8,8.5c69.4,0,126.1-74.8,129.7-168.8
	c0.1,2.7,0.2,5.4,0.2,8.2l0,0l0,0c0-0.2,0-0.4,0-0.6c0,0,0-0.1,0-0.1c0-0.2,0-0.4,0-0.6c0,0,0,0,0,0
	C404.1,251.2,403.8,244.8,403.3,238.4"/>
<path fill="#871C61" d="M65,250.6c-0.1,2.8-0.2,5.6-0.2,8.5c0,98.4,58.1,178.1,129.8,178.1c13.9,0,31.9-8.5,39.8-8.5l0,0
	c7.8,0,25.2,8.2,39,8.5c0.3,0,0.5,0,0.8,0c71.7,0,129.8-79.8,129.8-178.1c0-2.8-0.1-5.5-0.2-8.2c-3.5,94.1-60.2,168.8-129.7,168.8
	c-13.9,0-31.9-8.5-39.8-8.5c-7.9,0-25.9,8.5-39.8,8.5C125.2,419.7,68.4,344.8,65,250.6"/>
<path fill="#982773" d="M223,110.9c-0.7,0-2.7,4.3-5.2,11.9c-2.4,7.8-5.5,19.2-8.1,33c-5.5,27.6-9.2,65-8.9,102.5l0,3.5l0.1,3.5
	c0.1,2.3,0.2,4.7,0.2,7c0.2,4.7,0.3,9.3,0.5,13.9c0.6,9.2,1.4,18.2,2.2,27c0.1,2.2,0.5,4.3,0.7,6.5c0.3,2.1,0.6,4.3,0.8,6.3
	c0.6,4.2,1.1,8.3,1.6,12.3c0.3,2,0.5,4,0.8,5.9c0.3,1.9,0.7,3.8,1,5.7c0.7,3.7,1.4,7.3,2,10.8c0.7,3.4,1.3,6.7,1.9,9.9
	c0.3,1.6,0.6,3.1,0.9,4.6c0.4,1.5,0.7,2.9,1.1,4.3c1,3.8,1.9,7.2,2.7,10.3c1.4-0.3,2.6-0.4,3.7-0.4c0.2,0,0.3,0,0.5,0
	c-0.5-3.2-1.1-6.9-1.8-10.8c-0.2-1.4-0.5-2.8-0.8-4.3c-0.2-1.5-0.4-3-0.6-4.6c-0.4-3.1-0.9-6.4-1.3-9.9c-0.5-3.4-1-7-1.5-10.7
	c-0.3-1.9-0.5-3.7-0.8-5.6c-0.2-1.9-0.4-3.9-0.6-5.9c-0.4-4-0.8-8-1.3-12.2c-0.2-2.1-0.4-4.2-0.7-6.3c-0.2-2.1-0.5-4.3-0.6-6.4
	c-0.5-8.7-1.2-17.6-1.7-26.7c-0.1-4.5-0.3-9.1-0.4-13.7c-0.1-2.3-0.1-4.6-0.2-6.9l-0.1-3.5l0-3.5c-0.3-37,2.7-73.9,6.7-101.4
	c1.9-13.8,4.1-25.1,5.4-33.1C222.9,115.7,223.7,111.1,223,110.9L223,110.9"/>
<path fill="#871C61" d="M221.1,389.2c-1.1,0-2.4,0.2-3.7,0.4c0.4,1.4,0.8,2.8,1.1,4c2.2,7.7,3.7,12.1,4.5,12.1l0,0
	c0.7-0.2,0.3-4.9-0.8-12.9c-0.2-1.1-0.3-2.4-0.5-3.6C221.5,389.2,221.3,389.2,221.1,389.2"/>
<path fill="#CF73BB" d="M163.8,107.3c-8.4,0-18.5,4.2-27.1,12c-14,12.7-18.9,30.1-10.8,38.9c3.1,3.4,7.6,5,12.9,5
	c8.4,0,18.5-4.2,27.1-12c14-12.7,18.9-30.1,10.8-38.9C173.5,108.9,169,107.3,163.8,107.3"/>
<path fill="#FFFFFF" d="M88,253.5c0.9,20,17.8,35.6,37.9,34.7c20.1-0.9,35.6-17.8,34.8-37.9s-17.8-35.6-37.9-34.7
	C102.7,216.5,87.1,233.4,88,253.5z"/>
<path fill="#133441" d="M153.6,251.7c-0.6-13.8-12.3-24.5-26.1-23.9c-13.8,0.6-24.6,12.3-24,26.1c0.6,13.8,12.3,24.5,26.1,23.9
	C143.5,277.2,154.2,265.5,153.6,251.7z M125.5,250.2c-3.9,4.4-10,5.4-13.6,2.2c-3.7-3.2-3.5-9.4,0.4-13.8c3.9-4.4,10-5.4,13.6-2.2
	C129.5,239.6,129.4,245.8,125.5,250.2z M144.8,266.8c-2.2,2.5-5.8,3.1-7.9,1.2c-2.1-1.9-2-5.4,0.2-8c2.2-2.5,5.8-3.1,7.9-1.2
	C147.1,260.7,147,264.3,144.8,266.8z"/>
<path fill="#FFFFFF" d="M244.5,253.5c0.9,20,17.8,35.6,37.9,34.7c20.1-0.9,35.6-17.8,34.8-37.9c-0.9-20-17.8-35.6-37.9-34.7
	C259.2,216.5,243.6,233.4,244.5,253.5z"/>
<path fill="#133441" d="M305.9,250.8c-0.6-13.8-12.3-24.5-26.1-23.9c-13.8,0.6-24.6,12.3-24,26.1c0.6,13.8,12.3,24.5,26.1,23.9
	C295.8,276.3,306.5,264.6,305.9,250.8z M278.1,247.9c-4.4,3.9-10.6,4.1-13.8,0.4c-3.2-3.6-2.3-9.7,2.1-13.6
	c4.4-3.9,10.6-4.1,13.8-0.4C283.5,237.9,282.5,244,278.1,247.9z M298.7,265.1c-2.2,2.5-5.8,3.1-7.9,1.2c-2.1-1.9-2-5.4,0.2-8
	c2.2-2.5,5.8-3.1,7.9-1.2C301.1,259,301,262.5,298.7,265.1z"/>
<path fill="#133441" d="M254.4,183.5c-0.8,6.4,10.4,10.1,22.9,11.5c11.2,1.2,22.1,3.5,24.7-4.7C307.3,173.5,257,164.3,254.4,183.5z"
	/>
<path fill="#133441" d="M103.2,190.1c2.5,8.2,13.4,6,24.6,4.9c12.6-1.3,23.8-5,23-11.4C148.4,164.4,98,173.3,103.2,190.1z"/>
<ellipse fill="#EE927E" cx="304.2" cy="297.8" rx="15.8" ry="8.4"/>
<ellipse fill="#EE927E" cx="97.9" cy="297.8" rx="15.8" ry="8.4"/>
<path fill="#133441" d="M182.1,275.9c2.2,8.9,12.3,12.9,20.7,13.4c6.9,0.4,24-3.4,22.8-13.1c-0.2-1.6-1.7-3.5-3.6-2.7
	c-3.3,1.2-4.6,4.4-7.5,6.3c-3.3,2-7.2,2.8-11,2.7c-6.9-0.1-14.2-2.6-18.6-8.1C183.8,272.9,181.7,274.4,182.1,275.9z"/>
</svg>
