<?xml version="1.0" encoding="utf-8"?>
<!-- Generator: Adobe Illustrator 17.1.0, SVG Export Plug-In . SVG Version: 6.00 Build 0)  -->
<!DOCTYPE svg PUBLIC "-//W3C//DTD SVG 1.1//EN" "http://www.w3.org/Graphics/SVG/1.1/DTD/svg11.dtd">
<svg version="1.1" id="Layer_1" xmlns="http://www.w3.org/2000/svg" xmlns:xlink="http://www.w3.org/1999/xlink" x="0px" y="0px"
	 width="460.2px" height="525.9px" viewBox="0 0 460.2 525.9" enable-background="new 0 0 460.2 525.9" xml:space="preserve">
<path fill="#DBDACB" d="M261.5,475.2c-12.4,0-24.4,0.2-36,0.6l0.6,13.9c0.1,1.6-0.6,3.2-1.9,4.2c-0.5,0.4-4.8,3.6-13.3,4.2
	c-0.1,0-0.2,0-0.3,0c-2.6,0-4.8-2-5-4.7c-0.2-2.8,1.9-5.1,4.7-5.3c2.5-0.2,4.4-0.6,5.7-1.1l-0.5-10.8c-69.7,3-120.8,12.8-120.8,24.4
	c0,14,74.7,25.3,166.8,25.3s166.8-11.3,166.8-25.3c0-11.7-52.3-21.6-123.3-24.5l-0.5,10.9c1.3,0.5,3.2,0.9,5.7,1.1
	c2.8,0.2,4.8,2.6,4.7,5.3c-0.2,2.6-2.4,4.7-5,4.7c-0.1,0-0.2,0-0.3,0c-8.5-0.6-12.8-3.8-13.3-4.2c-1.3-1-2-2.5-1.9-4.2l0.6-14
	C284.2,475.4,273,475.2,261.5,475.2"/>
<path fill="#133441" d="M424.6,396.6c-3.7,0-7.4-0.6-11.1-1.9c-2.6-0.9-4-3.7-3.1-6.4c0.9-2.6,3.7-4,6.4-3.1
	c14.3,4.9,25.8-4.3,30.5-15c7.3-16.4,1.8-40-26.7-55.6c-2.4-1.3-3.3-4.4-2-6.8c1.3-2.4,4.4-3.3,6.8-2c34.1,18.7,40.2,47.9,31.1,68.5
	C450.2,388.4,438,396.6,424.6,396.6"/>
<path fill="#133441" d="M422.4,390.9c2.3-10.1-2.4-15.1-7.2-16.3c-2.8-0.7-5.9-0.2-8.6,1.2c-4.4-0.2-8.3,1-11.1,3.5
	c-3.3,3-4.7,7.4-3.5,11.5c1.7,5.8,6.6,10.6,12.2,12.2c1.5,0.4,3,0.6,4.5,0.6C415.5,403.5,420.6,398.8,422.4,390.9"/>
<path fill="#133441" d="M309.9,498.1c-0.1,0-0.2,0-0.3,0c-8.5-0.6-12.8-3.8-13.3-4.2c-1.3-1-2-2.5-1.9-4.2l2.6-58.9
	c0.1-2.8,2.5-4.9,5.2-4.8c2.8,0.1,4.9,2.5,4.8,5.2l-2.5,55.7c1.3,0.5,3.2,0.9,5.7,1.1c2.8,0.2,4.8,2.6,4.7,5.3
	C314.7,496,312.5,498.1,309.9,498.1"/>
<path fill="#133441" d="M210.5,498.1c-2.6,0-4.8-2-5-4.7c-0.2-2.8,1.9-5.1,4.7-5.3c2.5-0.2,4.4-0.6,5.7-1.1l-2.5-55.7
	c-0.1-2.8,2-5.1,4.8-5.2c2.8-0.1,5.1,2,5.2,4.8l2.6,58.9c0.1,1.6-0.6,3.2-1.9,4.2c-0.5,0.4-4.8,3.6-13.3,4.2
	C210.8,498.1,210.7,498.1,210.5,498.1"/>
<path fill="#133441" d="M110.2,279.8c-0.7,0-1.4-0.1-2.1-0.4c-2.1-1-52.4-23.9-88.2-63c-1.9-2-1.7-5.2,0.3-7.1
	c2-1.9,5.2-1.7,7.1,0.3c34.4,37.6,84.4,60.4,84.9,60.6c2.5,1.1,3.6,4.1,2.5,6.6C114,278.7,112.1,279.8,110.2,279.8"/>
<path fill="#133441" d="M17.4,198.2c-3.2-4.2-5.6-7.5-5.6-7.5c-2.1-2.9-6.2-3.5-9.1-1.4c-2.9,2.1-3.5,6.2-1.4,9.1c0,0.1,3,4,6.6,8.8
	c-1.1,2-1.7,4.1-1.6,6c0.4,8.9,25.3,14.8,29.3-1.5c1-4-0.2-8-3.3-10.8C27.9,196.9,22.6,196,17.4,198.2z"/>
<path fill="#8BC34A" d="M314.4,19.3c-28.1,9.5-33.1,34-33.7,38.4c-3.2,2.2-11.1,7.9-13.2,13.1l-0.4,4.6c0,0,8-12.5,14.4-16.3
	c27.3,22.1,83.7-1.9,97.2-38.6c-3.7,1.4-10.1-0.4-18.6-2.2C348.1,15.7,332.4,13.2,314.4,19.3"/>
<path fill="#5F9E28" d="M378.6,20.5c0,0-25.7,17.2-49.2,25.5c-23.5,8.3-48.7,11.7-48.7,11.7l0,0c-2.4,1.6-7.3,5.2-10.6,9
	c-0.5,2.1-0.9,4.2-1.3,6.2c2.7-3.8,8.1-11.1,12.7-13.8c7.2,5.9,16.5,8.5,26.5,8.5C335.6,67.5,368.7,47.4,378.6,20.5 M378.6,20.5
	L378.6,20.5L378.6,20.5L378.6,20.5"/>
<path fill="#8BC34A" d="M261.3,93.5c-2.5-32.7,5.1-67,21.6-88.6c6.6-8.6,17.8-3.8,17.8-0.4c0,3.4-6.6,5-11,11.4
	c-19.1,27.6-24.6,79.3-24.6,79.3S262.8,112.6,261.3,93.5"/>
<path fill="#5F9E28" d="M292.5,1.5c-3,0-5.3,0.9-5.4,2c-0.1,1.2,2.6,2.4,5.8,2.5c0.2,0,0.5,0,0.7,0c3,0,5.3-0.9,5.4-2
	c0.1-1.2-2.6-2.4-5.8-2.5C292.9,1.5,292.7,1.5,292.5,1.5"/>
<path fill="#AB3689" d="M303,80.9c-15.3,0-32.7,8.5-39.8,8.5c-8.5,0-25.9-8.5-39.8-8.5c-71.7,0-129.8,79.8-129.8,178.1
	c0,98.4,58.1,178.1,129.8,178.1c13.9,0,31.9-8.5,39.8-8.5c7.9,0,25.9,8.5,39.8,8.5c71.7,0,129.8-79.8,129.8-178.1
	C432.9,160.7,374.7,80.9,303,80.9"/>
<path fill="#BFBFC2" d="M206.7,82.4C206.7,82.4,206.7,82.4,206.7,82.4C206.7,82.4,206.7,82.4,206.7,82.4 M319.7,82.4
	C319.7,82.4,319.7,82.4,319.7,82.4C319.7,82.4,319.7,82.4,319.7,82.4 M207,82.3C207,82.3,207,82.3,207,82.3
	C207,82.3,207,82.3,207,82.3 M319.4,82.3C319.4,82.3,319.4,82.3,319.4,82.3C319.4,82.3,319.4,82.3,319.4,82.3 M318.4,82.2
	C318.4,82.2,318.4,82.2,318.4,82.2C318.4,82.2,318.4,82.2,318.4,82.2 M208.3,82.1C208.3,82.1,208.3,82.1,208.3,82.1
	C208.3,82.1,208.3,82.1,208.3,82.1 M318.1,82.1C318.1,82.1,318.1,82.1,318.1,82.1C318.1,82.1,318.1,82.1,318.1,82.1 M208.7,82.1
	C208.7,82.1,208.6,82.1,208.7,82.1C208.6,82.1,208.7,82.1,208.7,82.1 M317.7,82.1C317.8,82.1,317.8,82.1,317.7,82.1
	C317.8,82.1,317.8,82.1,317.7,82.1 M209.6,81.9C209.6,81.9,209.6,81.9,209.6,81.9C209.6,81.9,209.6,81.9,209.6,81.9 M316.8,81.9
	C316.8,81.9,316.9,81.9,316.8,81.9C316.9,81.9,316.8,81.9,316.8,81.9 M210,81.9c0,0-0.1,0-0.1,0C209.9,81.9,210,81.9,210,81.9
	 M316.4,81.9c0.1,0,0.1,0,0.1,0C316.5,81.9,316.5,81.9,316.4,81.9 M210.3,81.8c0,0-0.1,0-0.1,0C210.3,81.8,210.3,81.8,210.3,81.8
	 M316.1,81.8c0,0,0.1,0,0.1,0C316.2,81.8,316.1,81.8,316.1,81.8 M211.3,81.7c0,0-0.1,0-0.1,0C211.2,81.7,211.2,81.7,211.3,81.7
	 M315.1,81.7c0.1,0,0.1,0,0.1,0C315.2,81.7,315.2,81.7,315.1,81.7 M211.6,81.7c0,0-0.1,0-0.1,0C211.5,81.7,211.6,81.7,211.6,81.7
	 M314.8,81.7c0.1,0,0.1,0,0.2,0C314.9,81.7,314.8,81.7,314.8,81.7 M212,81.6c-0.1,0-0.1,0-0.2,0C211.9,81.6,211.9,81.6,212,81.6
	 M314.4,81.6c0.1,0,0.1,0,0.2,0C314.5,81.6,314.5,81.6,314.4,81.6 M212.5,81.6C212.5,81.6,212.5,81.6,212.5,81.6
	C212.5,81.6,212.5,81.6,212.5,81.6 M313.9,81.6c0,0,0.1,0,0.1,0C314,81.6,313.9,81.6,313.9,81.6 M212.9,81.5c0,0-0.1,0-0.1,0
	C212.8,81.5,212.9,81.5,212.9,81.5 M313.5,81.5c0.1,0,0.1,0,0.2,0C313.6,81.5,313.6,81.5,313.5,81.5 M213.3,81.5c-0.1,0-0.1,0-0.2,0
	C213.2,81.5,213.2,81.5,213.3,81.5 M313.1,81.5c0.1,0,0.1,0,0.2,0C313.2,81.5,313.2,81.5,313.1,81.5 M213.7,81.4c-0.1,0-0.1,0-0.2,0
	C213.5,81.4,213.6,81.4,213.7,81.4 M312.7,81.4c0.1,0,0.1,0,0.2,0C312.9,81.4,312.8,81.4,312.7,81.4 M214.2,81.4c-0.1,0-0.1,0-0.2,0
	C214.1,81.4,214.1,81.4,214.2,81.4 M312.2,81.4c0.1,0,0.1,0,0.2,0C312.4,81.4,312.3,81.4,312.2,81.4 M214.6,81.3c-0.1,0-0.1,0-0.2,0
	C214.4,81.4,214.5,81.4,214.6,81.3 M311.8,81.3c0.1,0,0.1,0,0.2,0C312,81.4,311.9,81.4,311.8,81.3 M215,81.3c-0.1,0-0.1,0-0.2,0
	C214.8,81.3,214.9,81.3,215,81.3 M311.5,81.3c0.1,0,0.1,0,0.2,0C311.6,81.3,311.5,81.3,311.5,81.3 M215.4,81.3c-0.1,0-0.2,0-0.3,0
	C215.2,81.3,215.3,81.3,215.4,81.3 M311,81.3c0.1,0,0.2,0,0.3,0C311.2,81.3,311.1,81.3,311,81.3 M215.8,81.2c-0.1,0-0.2,0-0.3,0
	C215.7,81.2,215.8,81.2,215.8,81.2 M310.6,81.2c0.1,0,0.2,0,0.3,0C310.7,81.2,310.7,81.2,310.6,81.2 M216.2,81.2c-0.1,0-0.2,0-0.2,0
	C216.1,81.2,216.1,81.2,216.2,81.2 M310.2,81.2c0.1,0,0.2,0,0.2,0C310.3,81.2,310.3,81.2,310.2,81.2 M216.6,81.2c-0.1,0-0.2,0-0.3,0
	C216.5,81.2,216.5,81.2,216.6,81.2 M309.8,81.2c0.1,0,0.2,0,0.3,0C310,81.2,309.9,81.2,309.8,81.2 M217.1,81.1c-0.1,0-0.2,0-0.4,0
	C216.9,81.2,217,81.2,217.1,81.1 M309.3,81.1c0.1,0,0.2,0,0.4,0C309.5,81.2,309.4,81.2,309.3,81.1 M217.5,81.1c-0.1,0-0.2,0-0.3,0
	C217.3,81.1,217.4,81.1,217.5,81.1 M308.9,81.1c0.1,0,0.2,0,0.3,0C309.1,81.1,309,81.1,308.9,81.1 M217.9,81.1c-0.1,0-0.2,0-0.2,0
	C217.7,81.1,217.8,81.1,217.9,81.1 M308.5,81.1c0.1,0,0.2,0,0.2,0C308.7,81.1,308.6,81.1,308.5,81.1 M218.3,81.1c-0.1,0-0.2,0-0.3,0
	C218.1,81.1,218.2,81.1,218.3,81.1 M308.1,81.1c0.1,0,0.2,0,0.3,0C308.3,81.1,308.2,81.1,308.1,81.1 M218.8,81c-0.1,0-0.2,0-0.4,0
	C218.5,81.1,218.7,81.1,218.8,81 M307.6,81c0.1,0,0.2,0,0.4,0C307.9,81.1,307.8,81.1,307.6,81 M219.2,81c-0.1,0-0.2,0-0.3,0
	C219,81,219.1,81,219.2,81 M307.3,81c0.1,0,0.2,0,0.3,0C307.4,81,307.3,81,307.3,81 M219.5,81c-0.1,0-0.2,0-0.2,0
	C219.4,81,219.5,81,219.5,81 M306.9,81c0.1,0,0.2,0,0.2,0C307,81,306.9,81,306.9,81 M220,81c-0.1,0-0.2,0-0.3,0
	C219.8,81,219.9,81,220,81 M306.4,81c0.1,0,0.2,0,0.3,0C306.6,81,306.5,81,306.4,81 M220.4,81c-0.1,0-0.2,0-0.4,0
	C220.2,81,220.3,81,220.4,81 M306,81c0.1,0,0.3,0,0.4,0C306.2,81,306.1,81,306,81 M220.8,81c-0.1,0-0.2,0-0.3,0
	C220.7,81,220.7,81,220.8,81 M305.6,81c0.1,0,0.2,0,0.3,0C305.8,81,305.7,81,305.6,81 M221.2,81c-0.1,0-0.2,0-0.2,0
	C221.1,81,221.1,81,221.2,81 M305.2,81c0.1,0,0.2,0,0.2,0C305.4,81,305.3,81,305.2,81 M221.7,81c-0.1,0-0.2,0-0.3,0
	C221.5,81,221.6,81,221.7,81 M304.7,81c0.1,0,0.2,0,0.3,0C304.9,81,304.8,81,304.7,81 M222.1,80.9c-0.1,0-0.3,0-0.4,0
	C221.9,80.9,222,80.9,222.1,80.9 M304.3,80.9c0.1,0,0.3,0,0.4,0C304.6,80.9,304.4,80.9,304.3,80.9 M222.5,80.9c-0.1,0-0.2,0-0.3,0
	C222.3,80.9,222.4,80.9,222.5,80.9 M303.9,80.9c0.1,0,0.2,0,0.3,0C304.1,80.9,304,80.9,303.9,80.9 M303.5,80.9c0.1,0,0.2,0,0.3,0
	C303.7,80.9,303.6,80.9,303.5,80.9 M222.9,80.9c-0.1,0-0.2,0-0.3,0C222.7,80.9,222.8,80.9,222.9,80.9 M223.4,80.9
	c-0.1,0-0.3,0-0.4,0C223.2,80.9,223.3,80.9,223.4,80.9c12.8,0,28.6,7.2,37.6,8.4l0,0C252,88.2,236.2,80.9,223.4,80.9 M303,80.9
	c-13.6,0-28.9,6.8-37.1,8.3l0,0C274.1,87.7,289.4,80.9,303,80.9c0.1,0,0.3,0,0.4,0C303.3,80.9,303.1,80.9,303,80.9"/>
<path fill="#BD55A3" d="M303,80.9c-13.6,0-28.9,6.8-37.1,8.3c-1,0.2-1.9,0.3-2.7,0.3c-0.7,0-1.4-0.1-2.2-0.2
	c-9.1-1.1-24.8-8.4-37.6-8.4c-0.1,0-0.3,0-0.4,0c0,0-0.1,0-0.1,0c-0.1,0-0.2,0-0.3,0c0,0-0.1,0-0.1,0c-0.1,0-0.2,0-0.3,0
	c0,0-0.1,0-0.1,0c-0.1,0-0.3,0-0.4,0c0,0,0,0,0,0c-0.1,0-0.2,0-0.3,0c0,0-0.1,0-0.1,0c-0.1,0-0.2,0-0.2,0c-0.1,0-0.1,0-0.1,0
	c-0.1,0-0.2,0-0.3,0c0,0-0.1,0-0.1,0c-0.1,0-0.2,0-0.4,0c0,0-0.1,0-0.1,0c-0.1,0-0.2,0-0.3,0c0,0-0.1,0-0.1,0c-0.1,0-0.2,0-0.2,0
	c0,0-0.1,0-0.1,0c-0.1,0-0.2,0-0.3,0c0,0-0.1,0-0.1,0c-0.1,0-0.2,0-0.4,0c0,0-0.1,0-0.1,0c-0.1,0-0.2,0-0.3,0c-0.1,0-0.1,0-0.2,0
	c-0.1,0-0.2,0-0.2,0c0,0-0.1,0-0.1,0c-0.1,0-0.2,0-0.3,0c0,0-0.1,0-0.1,0c-0.1,0-0.2,0-0.4,0c0,0-0.1,0-0.1,0c-0.1,0-0.2,0-0.3,0
	c-0.1,0-0.1,0-0.2,0c-0.1,0-0.2,0-0.2,0c-0.1,0-0.1,0-0.2,0c-0.1,0-0.2,0-0.3,0c-0.1,0-0.1,0-0.2,0c-0.1,0-0.2,0-0.3,0
	c-0.1,0-0.1,0-0.2,0c-0.1,0-0.1,0-0.2,0c-0.1,0-0.1,0-0.2,0c-0.1,0-0.1,0-0.2,0c-0.1,0-0.1,0-0.2,0c-0.1,0-0.1,0-0.2,0
	c-0.1,0-0.2,0-0.3,0c-0.1,0-0.1,0-0.2,0c-0.1,0-0.1,0-0.2,0c-0.1,0-0.1,0-0.2,0c-0.1,0-0.1,0-0.2,0c0,0-0.1,0-0.1,0
	c-0.1,0-0.2,0-0.2,0c0,0-0.1,0-0.1,0c-0.1,0-0.3,0-0.4,0.1c0,0-0.1,0-0.2,0c-0.1,0-0.1,0-0.2,0c0,0-0.1,0-0.1,0c-0.1,0-0.1,0-0.2,0
	c0,0-0.1,0-0.1,0c-0.3,0-0.5,0.1-0.8,0.1c0,0-0.1,0-0.1,0c-0.1,0-0.2,0-0.2,0c0,0-0.1,0-0.1,0c-0.1,0-0.2,0-0.2,0c0,0-0.1,0-0.1,0
	c-0.3,0-0.6,0.1-0.9,0.1c0,0,0,0-0.1,0c-0.1,0-0.2,0-0.3,0c0,0,0,0-0.1,0c-0.4,0.1-0.8,0.1-1.3,0.2c0,0,0,0,0,0
	c-0.1,0-0.2,0-0.3,0.1c0,0,0,0,0,0c-49.5,8.7-90.2,55.6-106,118.5c20.1-63.8,67.2-108.6,122-108.6c14.2,0,31.9,8.5,40.6,8.5
	c7.2,0,25-8.5,40.6-8.5c54.8,0,101.8,44.8,121.9,108.6c-15.8-62.8-56.6-109.7-106-118.4c0,0,0,0,0,0c-0.1,0-0.2,0-0.3-0.1
	c0,0,0,0,0,0c-0.3-0.1-0.6-0.1-0.9-0.2c0,0,0,0,0,0c-0.1,0-0.2,0-0.3,0c0,0-0.1,0-0.1,0c-0.1,0-0.2,0-0.3,0c0,0-0.1,0-0.1,0
	c-0.3,0-0.6-0.1-0.8-0.1c0,0-0.1,0-0.1,0c-0.1,0-0.2,0-0.2,0c-0.1,0-0.1,0-0.1,0c-0.1,0-0.1,0-0.2,0c0,0-0.1,0-0.1,0
	c-0.3,0-0.5-0.1-0.8-0.1c-0.1,0-0.1,0-0.1,0c-0.1,0-0.1,0-0.2,0c-0.1,0-0.1,0-0.2,0c-0.1,0-0.1,0-0.2,0c-0.1,0-0.1,0-0.2,0
	c-0.1,0-0.3,0-0.4,0c0,0-0.1,0-0.1,0c-0.1,0-0.1,0-0.2,0c-0.1,0-0.1,0-0.2,0c-0.1,0-0.1,0-0.2,0c-0.1,0-0.1,0-0.2,0
	c-0.1,0-0.1,0-0.2,0c-0.1,0-0.1,0-0.2,0c-0.1,0-0.2,0-0.3,0c-0.1,0-0.1,0-0.2,0c-0.1,0-0.1,0-0.2,0c-0.1,0-0.1,0-0.2,0
	c-0.1,0-0.1,0-0.2,0c-0.1,0-0.1,0-0.2,0c-0.1,0-0.1,0-0.1,0c-0.1,0-0.2,0-0.3,0c-0.1,0-0.1,0-0.2,0c-0.1,0-0.2,0-0.3,0
	c-0.1,0-0.1,0-0.2,0c-0.1,0-0.2,0-0.2,0c0,0-0.1,0-0.2,0c-0.1,0-0.2,0-0.3,0c0,0-0.1,0-0.1,0c-0.1,0-0.2,0-0.4,0c0,0-0.1,0-0.1,0
	c-0.1,0-0.2,0-0.3,0c0,0-0.1,0-0.1,0c-0.1,0-0.2,0-0.2,0c-0.1,0-0.1,0-0.2,0c-0.1,0-0.2,0-0.3,0c0,0-0.1,0-0.1,0c-0.1,0-0.2,0-0.4,0
	c0,0-0.1,0-0.1,0c-0.1,0-0.2,0-0.3,0c0,0-0.1,0-0.1,0c-0.1,0-0.2,0-0.2,0c0,0-0.1,0-0.1,0c-0.1,0-0.2,0-0.3,0c0,0-0.1,0-0.1,0
	c-0.1,0-0.3,0-0.4,0c0,0-0.1,0-0.1,0c-0.1,0-0.2,0-0.3,0c-0.1,0-0.1,0-0.1,0c-0.1,0-0.2,0-0.2,0c0,0-0.1,0-0.1,0c-0.1,0-0.2,0-0.3,0
	c0,0,0,0,0,0c-0.1,0-0.3,0-0.4,0c0,0-0.1,0-0.1,0c-0.1,0-0.2,0-0.3,0c0,0-0.1,0-0.1,0c-0.1,0-0.2,0-0.3,0c0,0-0.1,0-0.1,0
	C303.3,80.9,303.1,80.9,303,80.9"/>
<path fill="#E3B6D6" d="M432.9,258.3C432.9,258.4,432.9,258.4,432.9,258.3C432.9,258.4,432.9,258.4,432.9,258.3 M432.9,257.8
	L432.9,257.8C432.9,257.8,432.9,257.8,432.9,257.8"/>
<path fill="#982773" d="M432,238.4c-8.1,89.4-78.7,160.3-145.7,160.3c-13.6,0-27.9-9.2-36-9.5c0.2,1.3,0.4,2.5,0.5,3.6
	c1.2,8.1,1.5,12.8,0.8,12.9l0,0c-0.7,0-2.3-4.4-4.5-12.1c-0.4-1.2-0.7-2.6-1.1-4c-8.4,1.7-21.2,7.8-33.2,7.8
	c-66.6,0-112.4-68.8-118.6-157.3c-0.5,6.2-0.7,12.5-0.7,18.9l0,0l0,0c0-2.8,0.1-5.7,0.2-8.5c3.4,94.2,60.2,169.2,129.7,169.2
	c13.9,0,31.9-8.5,39.8-8.5c7.9,0,25.9,8.5,39.8,8.5c69.4,0,126.1-74.8,129.7-168.8c0.1,2.7,0.2,5.4,0.2,8.2
	c0,96.8-56.3,175.6-126.5,178.1c70.2-2.4,126.5-81.2,126.5-178.1l0,0c0-0.2,0-0.4,0-0.6c0,0,0,0,0-0.1c0-0.2,0-0.4,0-0.6v0
	C432.8,251.2,432.5,244.8,432,238.4"/>
<path fill="#871C61" d="M93.7,250.6c-0.1,2.8-0.2,5.6-0.2,8.5c0,98.4,58.1,178.1,129.8,178.1c13.9,0,31.9-8.5,39.8-8.5
	c7.9,0,25.9,8.5,39.8,8.5c1.1,0,2.2,0,3.4-0.1c70.2-2.4,126.5-81.2,126.5-178.1c0-2.7-0.1-5.5-0.2-8.2
	c-3.5,94.1-60.2,168.8-129.7,168.8c-13.9,0-31.9-8.5-39.8-8.5c-7.9,0-25.9,8.5-39.8,8.5C153.9,419.7,97.1,344.8,93.7,250.6"/>
<path fill="#982773" d="M251.7,110.9c-0.7,0-2.7,4.3-5.2,11.9c-2.4,7.8-5.5,19.2-8.1,33c-5.5,27.6-9.2,65-8.9,102.5l0,3.5l0.1,3.5
	c0.1,2.3,0.2,4.7,0.2,7c0.2,4.7,0.3,9.3,0.5,13.9c0.6,9.2,1.4,18.2,2.2,27c0.1,2.2,0.5,4.3,0.7,6.5c0.3,2.1,0.6,4.3,0.8,6.4
	c0.6,4.2,1.1,8.3,1.6,12.3c0.3,2,0.5,4,0.8,5.9c0.3,1.9,0.7,3.8,1,5.7c0.7,3.7,1.4,7.3,2,10.8c0.7,3.4,1.3,6.7,1.9,9.9
	c0.3,1.6,0.6,3.1,0.9,4.6c0.4,1.5,0.7,2.9,1.1,4.3c1,3.8,1.9,7.2,2.7,10.3c1.4-0.3,2.6-0.4,3.7-0.4c0.2,0,0.3,0,0.5,0
	c-0.5-3.2-1.1-6.8-1.8-10.8c-0.2-1.4-0.5-2.8-0.8-4.3c-0.2-1.5-0.4-3-0.6-4.6c-0.4-3.1-0.9-6.4-1.3-9.9c-0.5-3.4-1-7-1.5-10.7
	c-0.3-1.9-0.5-3.7-0.8-5.6c-0.2-1.9-0.4-3.9-0.6-5.9c-0.4-4-0.8-8-1.3-12.2c-0.2-2.1-0.4-4.2-0.7-6.3c-0.2-2.1-0.5-4.3-0.6-6.4
	c-0.5-8.7-1.2-17.6-1.7-26.7c-0.1-4.6-0.3-9.1-0.4-13.7c-0.1-2.3-0.1-4.6-0.2-6.9l-0.1-3.5l0-3.5c-0.3-37,2.7-73.9,6.7-101.4
	c1.9-13.7,4.1-25.1,5.4-33.1C251.6,115.7,252.4,111.1,251.7,110.9L251.7,110.9"/>
<path fill="#871C61" d="M249.8,389.2c-1.1,0-2.4,0.2-3.7,0.4c0.4,1.4,0.8,2.8,1.1,4c2.2,7.7,3.7,12.1,4.5,12.1l0,0
	c0.7-0.2,0.3-4.9-0.8-12.9c-0.2-1.1-0.3-2.4-0.5-3.6C250.2,389.2,250,389.2,249.8,389.2"/>
<path fill="#CF73BB" d="M192.5,107.3c-8.4,0-18.5,4.2-27.1,12c-14,12.7-18.9,30.1-10.8,38.9c3.1,3.4,7.6,5,12.9,5
	c8.4,0,18.5-4.2,27.1-12c14-12.7,18.9-30.1,10.8-38.9C202.2,108.9,197.7,107.3,192.5,107.3"/>
<path fill="#FFFFFF" d="M123.9,286.4c0.9,20,17.8,35.6,37.9,34.7c20.1-0.9,35.6-17.8,34.8-37.9c-0.9-20-17.8-35.6-37.9-34.7
	C138.6,249.4,123.1,266.3,123.9,286.4z"/>
<path fill="#133441" d="M188.8,285.5c-0.6-13.8-12.3-24.5-26.1-23.9c-13.8,0.6-24.6,12.3-24,26.1c0.6,13.8,12.3,24.5,26.1,23.9
	C178.7,310.9,189.4,299.3,188.8,285.5z M160.7,284c-3.9,4.4-10,5.4-13.6,2.2c-3.7-3.2-3.5-9.4,0.4-13.8c3.9-4.4,10-5.4,13.6-2.2
	C164.7,273.4,164.6,279.6,160.7,284z M180,300.6c-2.2,2.5-5.8,3.1-7.9,1.2c-2.1-1.9-2-5.4,0.2-8c2.2-2.5,5.8-3.1,7.9-1.2
	C182.3,294.5,182.2,298.1,180,300.6z"/>
<path fill="#FFFFFF" d="M280.4,286.4c0.9,20,17.8,35.6,37.9,34.7c20.1-0.9,35.6-17.8,34.8-37.9c-0.9-20-17.9-35.6-37.9-34.7
	C295.1,249.4,279.6,266.3,280.4,286.4z"/>
<path fill="#133441" d="M341.8,283.7c-0.6-13.8-12.3-24.5-26.1-23.9c-13.8,0.6-24.6,12.3-24,26.1c0.6,13.8,12.3,24.5,26.1,23.9
	C331.7,309.2,342.4,297.5,341.8,283.7z M314,280.8c-4.4,3.9-10.6,4.1-13.8,0.4c-3.2-3.6-2.3-9.7,2.1-13.6s10.6-4.1,13.8-0.4
	C319.4,270.8,318.4,276.9,314,280.8z M334.7,298c-2.2,2.5-5.8,3.1-7.9,1.2c-2.1-1.9-2-5.4,0.2-8c2.2-2.5,5.8-3.1,7.9-1.2
	C337,291.9,336.9,295.4,334.7,298z"/>
<path fill="#133441" d="M290.3,216.4c-0.8,6.4,10.4,10.1,22.9,11.5c11.2,1.2,22.1,3.5,24.7-4.7C343.3,206.4,292.9,197.2,290.3,216.4
	z"/>
<path fill="#133441" d="M139.1,223c2.5,8.2,13.4,6,24.6,4.9c12.6-1.3,23.8-5,23-11.4C184.3,197.3,133.9,206.2,139.1,223z"/>
<ellipse fill="#EE927E" cx="340.1" cy="330.7" rx="15.8" ry="8.5"/>
<ellipse fill="#EE927E" cx="133.9" cy="330.7" rx="15.8" ry="8.5"/>
<path fill="#133441" d="M216.8,308.8c2.2,8.9,12.3,12.9,20.7,13.4c6.9,0.4,24-3.4,22.8-13.1c-0.2-1.6-1.7-3.5-3.6-2.7
	c-3.3,1.2-4.6,4.4-7.5,6.3c-3.3,2-7.2,2.8-11,2.7c-6.9-0.1-14.2-2.6-18.6-8.1C218.5,305.8,216.4,307.3,216.8,308.8z"/>
</svg>
