<?xml version="1.0" encoding="utf-8"?>
<!-- Generator: Adobe Illustrator 17.1.0, SVG Export Plug-In . SVG Version: 6.00 Build 0)  -->
<!DOCTYPE svg PUBLIC "-//W3C//DTD SVG 1.1//EN" "http://www.w3.org/Graphics/SVG/1.1/DTD/svg11.dtd">
<svg version="1.1" id="Layer_1" xmlns="http://www.w3.org/2000/svg" xmlns:xlink="http://www.w3.org/1999/xlink" x="0px" y="0px"
	 width="433px" height="519.3px" viewBox="0 0 433 519.3" enable-background="new 0 0 433 519.3" xml:space="preserve">
<path fill="#DBDACB" d="M186.7,468.6c-9.9,0-19.5,0.1-28.9,0.4l0.6,13.9c0.1,1.6-0.6,3.2-1.9,4.2c-0.5,0.4-4.8,3.6-13.3,4.2
	c-0.1,0-0.2,0-0.3,0c-2.6,0-4.8-2-5-4.7c-0.2-2.8,1.9-5.1,4.7-5.3c2.5-0.2,4.4-0.6,5.7-1.1l-0.5-10.8C74.4,472,19.9,482,19.9,494
	c0,14,74.7,25.3,166.8,25.3S353.5,508,353.5,494c0-11.2-47.4-20.6-113.3-24l-0.5,10.2c1.3,0.5,3.2,0.9,5.7,1.1
	c2.8,0.2,4.8,2.6,4.7,5.3c-0.2,2.6-2.4,4.7-5,4.7c-0.1,0-0.2,0-0.3,0c-8.5-0.6-12.8-3.8-13.3-4.2c-1.3-1-2-2.5-1.9-4.2l0.6-13.4
	C216.3,468.9,201.8,468.6,186.7,468.6"/>
<path fill="#133441" d="M245.1,491.3c-0.1,0-0.2,0-0.3,0c-8.5-0.6-12.8-3.8-13.3-4.2c-1.3-1-2-2.5-1.9-4.2l2.6-58.9
	c0.1-2.8,2.5-4.9,5.2-4.8c2.8,0.1,4.9,2.5,4.8,5.2l-2.5,55.7c1.3,0.5,3.2,0.9,5.7,1.1c2.8,0.2,4.8,2.6,4.7,5.3
	C250,489.2,247.8,491.3,245.1,491.3"/>
<path fill="#133441" d="M34.5,388.9c-15.9,0-29.1-10.4-33.2-26.5c-5.5-21.7,5.8-51.2,43.6-68.1c2.5-1.1,5.5,0,6.6,2.5
	c1.1,2.5,0,5.5-2.5,6.6C16.5,317.9,6.5,342.2,11,359.9c3.2,12.4,13.2,19.8,25.6,18.9c2.7-0.2,5.2,1.8,5.4,4.6
	c0.2,2.8-1.8,5.2-4.6,5.4C36.4,388.8,35.5,388.9,34.5,388.9"/>
<path fill="#133441" d="M43.8,399.2c-1.4,0-2.7-0.2-4-0.6c-6.5-1.9-10.2-7.8-10-15.8c0.3-10.4,6.2-13.9,11-13.9c2.9,0,5.7,1.3,8,3.3
	c4.3,0.9,7.8,3,9.9,6.2c2.5,3.7,2.7,8.3,0.5,12C56,395.8,49.8,399.2,43.8,399.2"/>
<path fill="#133441" d="M142.9,491.3c-2.6,0-4.8-2-5-4.7c-0.2-2.8,1.9-5.1,4.7-5.3c2.5-0.2,4.4-0.6,5.7-1.1l-2.5-55.7
	c-0.1-2.8,2-5.1,4.8-5.2c2.8-0.1,5.1,2,5.2,4.8l2.6,58.9c0.1,1.6-0.6,3.2-1.9,4.2c-0.5,0.4-4.8,3.6-13.3,4.2
	C143.1,491.3,143,491.3,142.9,491.3"/>
<path fill="#133441" d="M366.6,304c-5.6,0-11.5-0.9-17.7-2.8c-2.6-0.8-4.2-3.6-3.4-6.2c0.8-2.7,3.6-4.2,6.2-3.4
	c14.1,4.2,25.8,2.8,34.8-4.1c11.3-8.7,17.5-25.6,17-46.6c-0.1-2.8,2.1-5.1,4.9-5.1c2.8,0,5.1,2.1,5.1,4.9c0.6,24.2-7,44.1-20.9,54.8
	C385.2,301.2,376.4,304,366.6,304"/>
<path fill="#133441" d="M430.5,220.8c-2.4-1.4-5.4-0.7-6.9,1.7l0,0c-0.1,0.2-1.8,2.8-4.3,5.5c0.2-1.4,0.3-2.7,0.4-3.8
	c0.2-2.4,0.2-4.1,0.2-4.2c0-2.8-2.2-5-4.9-5.1c-2.8,0-5,2.2-5.1,4.9l0,0c0,0.2,0,1.5-0.1,3.2c-0.1,1.3-0.2,2.9-0.4,4.5
	c-0.1,0.9-0.3,1.8-0.4,2.6c-0.2-1-0.4-2.1-0.5-3.2c-0.3-2.1-0.4-4-0.4-5.2c0-0.4,0-0.7,0-0.9l0-0.2l0,0v0c0-2.8-2.3-5-5.1-4.9
	c-2.8,0-5,2.3-4.9,5.1c0,0,0,0.6,0,1.4c0.1,1.1,0.2,2.8,0.4,4.8c0.2,1.5,0.4,3.1,0.7,4.7c0.1,0.4,0.2,0.8,0.3,1.2
	c-1-0.5-1.8-1-2.3-1.5c-0.5-0.4-0.8-0.7-0.9-0.9l-0.1-0.2l0,0l0,0c-1.5-2.2-4.6-2.9-6.9-1.4c-2.3,1.5-3,4.6-1.5,6.9
	c0.3,0.4,1.8,2.7,5.2,4.8c1.7,1.1,3.8,2.1,6.4,2.8c2.6,0.7,5.6,1.1,9,0.9c0.4,0,0.7,0,1.1-0.1l0.1,0c0.3,0,0.6-0.1,1-0.1
	c3.3-0.4,6.3-1.7,8.8-3.2c4.2-2.5,7.3-5.9,9.6-8.6c2.2-2.7,3.5-4.8,3.6-5C433.7,225.3,432.9,222.2,430.5,220.8z"/>
<path fill="#8BC34A" d="M243.9,19.3c-28.1,9.5-33.1,34-33.7,38.4c-3.2,2.2-11.1,7.9-13.2,13.1l-0.4,4.6c0,0,8-12.5,14.4-16.3
	c27.3,22.1,83.7-1.9,97.2-38.6c-3.7,1.4-10.1-0.4-18.6-2.2C277.6,15.7,261.8,13.2,243.9,19.3"/>
<path fill="#5F9E28" d="M308,20.5c0,0-25.7,17.2-49.2,25.5c-23.5,8.3-48.7,11.7-48.7,11.7l0,0c-2.4,1.6-7.3,5.2-10.6,9
	c-0.5,2.1-0.9,4.2-1.3,6.2c2.7-3.8,8.1-11,12.7-13.8c7.2,5.9,16.5,8.5,26.5,8.5C265.1,67.5,298.1,47.4,308,20.5"/>
<path fill="#8BC34A" d="M190.8,93.5c-2.5-32.7,5.1-67,21.6-88.6c6.6-8.6,17.8-3.8,17.8-0.4c0,3.4-6.6,5-11,11.5
	c-19.1,27.6-24.6,79.3-24.6,79.3S192.3,112.6,190.8,93.5"/>
<path fill="#5F9E28" d="M221.9,1.5c-3,0-5.3,0.9-5.4,2c-0.1,1.2,2.6,2.4,5.8,2.5c0.2,0,0.5,0,0.7,0c3,0,5.3-0.9,5.4-2
	c0.1-1.2-2.6-2.4-5.8-2.5C222.4,1.5,222.2,1.5,221.9,1.5"/>
<path fill="#AB3689" d="M232.5,80.9c-15.3,0-32.7,8.5-39.8,8.5c-8.5,0-25.9-8.5-39.8-8.5C81.2,80.9,23,160.7,23,259.1
	s58.1,178.1,129.8,178.1c13.9,0,31.9-8.5,39.8-8.5c7.9,0,25.9,8.5,39.8,8.5c71.7,0,129.8-79.8,129.8-178.1S304.2,80.9,232.5,80.9"/>
<path fill="#BFBFC2" d="M249.2,82.4C249.2,82.4,249.2,82.4,249.2,82.4C249.2,82.4,249.2,82.4,249.2,82.4 M248.9,82.3
	C248.9,82.3,248.9,82.3,248.9,82.3C248.9,82.3,248.9,82.3,248.9,82.3 M247.9,82.2C247.9,82.2,247.9,82.2,247.9,82.2L247.9,82.2
	 M247.5,82.1C247.6,82.1,247.6,82.1,247.5,82.1C247.6,82.1,247.6,82.1,247.5,82.1 M247.2,82.1C247.2,82.1,247.2,82.1,247.2,82.1
	C247.2,82.1,247.2,82.1,247.2,82.1 M246.3,81.9C246.3,81.9,246.3,81.9,246.3,81.9C246.3,81.9,246.3,81.9,246.3,81.9 M139.4,81.9
	C139.4,81.9,139.4,81.9,139.4,81.9C139.4,81.9,139.4,81.9,139.4,81.9 M245.9,81.9c0,0,0.1,0,0.1,0C246,81.9,245.9,81.9,245.9,81.9
	 M139.7,81.8C139.7,81.8,139.7,81.8,139.7,81.8C139.7,81.8,139.7,81.8,139.7,81.8 M245.5,81.8c0,0,0.1,0,0.1,0
	C245.6,81.8,245.6,81.8,245.5,81.8 M140.7,81.7C140.7,81.7,140.7,81.7,140.7,81.7C140.7,81.7,140.7,81.7,140.7,81.7 M244.6,81.7
	c0,0,0.1,0,0.1,0C244.7,81.7,244.7,81.7,244.6,81.7 M141.1,81.7C141,81.7,141,81.7,141.1,81.7C141,81.7,141,81.7,141.1,81.7
	 M244.2,81.7c0,0,0.1,0,0.2,0C244.3,81.7,244.3,81.7,244.2,81.7 M141.4,81.6C141.4,81.6,141.4,81.6,141.4,81.6
	C141.4,81.6,141.4,81.6,141.4,81.6 M243.9,81.6c0.1,0,0.1,0,0.2,0C244,81.6,243.9,81.6,243.9,81.6 M243.3,81.6c0,0,0.1,0,0.1,0
	C243.4,81.6,243.4,81.6,243.3,81.6 M142.3,81.5C142.3,81.5,142.3,81.5,142.3,81.5C142.3,81.5,142.3,81.5,142.3,81.5 M243,81.5
	c0,0,0.1,0,0.1,0C243.1,81.5,243,81.5,243,81.5 M142.7,81.5c0,0-0.1,0-0.1,0C142.6,81.5,142.7,81.5,142.7,81.5 M242.6,81.5
	c0.1,0,0.1,0,0.2,0C242.7,81.5,242.7,81.5,242.6,81.5 M143.1,81.4c0,0-0.1,0-0.1,0C143,81.4,143,81.4,143.1,81.4 M242.2,81.4
	c0.1,0,0.1,0,0.2,0C242.3,81.4,242.3,81.4,242.2,81.4 M143.6,81.4c0,0-0.1,0-0.1,0C143.6,81.4,143.6,81.4,143.6,81.4 M241.7,81.4
	c0.1,0,0.1,0,0.2,0C241.8,81.4,241.8,81.4,241.7,81.4 M144,81.3c-0.1,0-0.1,0-0.2,0C143.9,81.4,144,81.4,144,81.3 M241.3,81.3
	c0.1,0,0.1,0,0.2,0C241.5,81.4,241.4,81.4,241.3,81.3 M144.4,81.3c-0.1,0-0.1,0-0.2,0C144.3,81.3,144.3,81.3,144.4,81.3 M240.9,81.3
	c0.1,0,0.1,0,0.2,0C241.1,81.3,241,81.3,240.9,81.3 M144.8,81.3c-0.1,0-0.1,0-0.2,0C144.7,81.3,144.7,81.3,144.8,81.3 M240.5,81.3
	c0.1,0,0.2,0,0.3,0C240.7,81.3,240.6,81.3,240.5,81.3 M145.3,81.2c-0.1,0-0.1,0-0.2,0C145.2,81.2,145.2,81.2,145.3,81.2 M240,81.2
	c0.1,0,0.2,0,0.3,0C240.2,81.2,240.1,81.2,240,81.2 M145.7,81.2c-0.1,0-0.1,0-0.2,0C145.5,81.2,145.6,81.2,145.7,81.2 M239.7,81.2
	c0.1,0,0.2,0,0.2,0C239.8,81.2,239.7,81.2,239.7,81.2 M146.1,81.2c-0.1,0-0.2,0-0.2,0C145.9,81.2,146,81.2,146.1,81.2 M239.3,81.2
	c0.1,0,0.2,0,0.3,0C239.4,81.2,239.3,81.2,239.3,81.2 M146.6,81.1c-0.1,0-0.2,0-0.4,0C146.3,81.2,146.5,81.2,146.6,81.1 M238.8,81.1
	c0.1,0,0.2,0,0.4,0C239,81.2,238.9,81.2,238.8,81.1 M147,81.1c-0.1,0-0.2,0-0.3,0C146.8,81.1,146.9,81.1,147,81.1 M238.4,81.1
	c0.1,0,0.2,0,0.3,0C238.6,81.1,238.5,81.1,238.4,81.1 M147.3,81.1c-0.1,0-0.1,0-0.2,0C147.2,81.1,147.3,81.1,147.3,81.1 M238,81.1
	c0.1,0,0.2,0,0.2,0C238.2,81.1,238.1,81.1,238,81.1 M147.7,81.1c-0.1,0-0.2,0-0.2,0C147.6,81.1,147.7,81.1,147.7,81.1 M237.6,81.1
	c0.1,0,0.2,0,0.3,0C237.8,81.1,237.7,81.1,237.6,81.1 M148.2,81.1c-0.1,0-0.2,0-0.4,0C148,81.1,148.1,81.1,148.2,81.1 M237.1,81.1
	c0.1,0,0.2,0,0.4,0C237.3,81.1,237.2,81.1,237.1,81.1 M148.6,81c-0.1,0-0.2,0-0.2,0C148.5,81,148.5,81,148.6,81 M236.7,81
	c0.1,0,0.2,0,0.3,0C236.9,81,236.8,81,236.7,81 M149,81c-0.1,0-0.2,0-0.2,0C148.9,81,148.9,81,149,81 M236.3,81c0.1,0,0.2,0,0.2,0
	C236.5,81,236.4,81,236.3,81 M149.4,81c-0.1,0-0.2,0-0.3,0C149.3,81,149.4,81,149.4,81 M235.9,81c0.1,0,0.2,0,0.3,0
	C236.1,81,236,81,235.9,81 M149.9,81c-0.1,0-0.2,0-0.4,0C149.7,81,149.8,81,149.9,81 M235.4,81c0.1,0,0.2,0,0.4,0
	C235.7,81,235.6,81,235.4,81 M150.3,81c-0.1,0-0.2,0-0.3,0C150.1,81,150.2,81,150.3,81 M235.1,81c0.1,0,0.2,0,0.3,0
	C235.2,81,235.1,81,235.1,81 M150.7,81c-0.1,0-0.2,0-0.2,0C150.5,81,150.6,81,150.7,81 M234.7,81c0.1,0,0.2,0,0.2,0
	C234.8,81,234.7,81,234.7,81 M151.2,81c-0.1,0-0.2,0-0.3,0C150.9,81,151,81,151.2,81 M234.2,81c0.1,0,0.2,0,0.3,0
	C234.4,81,234.3,81,234.2,81 M151.6,80.9c-0.1,0-0.3,0-0.4,0C151.3,81,151.5,80.9,151.6,80.9 M233.8,80.9c0.1,0,0.3,0,0.4,0
	C234,81,233.9,80.9,233.8,80.9 M152,80.9c-0.1,0-0.2,0-0.3,0C151.8,80.9,151.9,80.9,152,80.9 M233.4,80.9c0.1,0,0.2,0,0.3,0
	C233.6,80.9,233.5,80.9,233.4,80.9 M152.4,80.9c-0.1,0-0.2,0-0.3,0C152.2,80.9,152.3,80.9,152.4,80.9 M233,80.9c0.1,0,0.2,0,0.3,0
	C233.2,80.9,233.1,80.9,233,80.9 M152.9,80.9c-0.1,0-0.3,0-0.4,0C152.6,80.9,152.7,80.9,152.9,80.9c12.8,0,28.6,7.2,37.6,8.4l0,0
	C181.4,88.2,165.7,80.9,152.9,80.9 M232.5,80.9c-13.6,0-28.9,6.8-37.1,8.3l0,0C203.6,87.7,218.9,80.9,232.5,80.9c0.1,0,0.3,0,0.4,0
	C232.7,80.9,232.6,80.9,232.5,80.9"/>
<path fill="#BD55A3" d="M232.5,80.9c-13.6,0-28.9,6.8-37.1,8.3c-1,0.2-1.9,0.3-2.7,0.3c-0.7,0-1.4-0.1-2.2-0.2
	c-9.1-1.1-24.8-8.4-37.6-8.4c-0.1,0-0.3,0-0.4,0c0,0-0.1,0-0.1,0c-0.1,0-0.2,0-0.3,0c0,0-0.1,0-0.1,0c-0.1,0-0.2,0-0.3,0
	c0,0-0.1,0-0.1,0c-0.1,0-0.3,0-0.4,0c0,0,0,0-0.1,0c-0.1,0-0.2,0-0.3,0c0,0-0.1,0-0.1,0c-0.1,0-0.2,0-0.2,0c-0.1,0-0.1,0-0.1,0
	c-0.1,0-0.2,0-0.3,0c0,0-0.1,0-0.1,0c-0.1,0-0.2,0-0.4,0c0,0-0.1,0-0.1,0c-0.1,0-0.2,0-0.3,0c0,0-0.1,0-0.2,0c-0.1,0-0.2,0-0.2,0
	c-0.1,0-0.1,0-0.2,0c-0.1,0-0.2,0-0.2,0c0,0-0.1,0-0.1,0c-0.1,0-0.2,0-0.4,0c0,0-0.1,0-0.1,0c-0.1,0-0.2,0-0.2,0c-0.1,0-0.1,0-0.2,0
	c-0.1,0-0.1,0-0.2,0c-0.1,0-0.1,0-0.2,0c-0.1,0-0.2,0-0.3,0c0,0-0.1,0-0.1,0c-0.1,0-0.2,0-0.4,0c0,0-0.1,0-0.1,0c-0.1,0-0.2,0-0.2,0
	c-0.1,0-0.1,0-0.2,0c-0.1,0-0.1,0-0.2,0c-0.1,0-0.1,0-0.2,0c-0.1,0-0.1,0-0.2,0c-0.1,0-0.2,0-0.3,0c-0.1,0-0.1,0-0.2,0
	c-0.1,0-0.1,0-0.2,0c-0.1,0-0.1,0-0.2,0c-0.1,0-0.1,0-0.2,0c-0.1,0-0.1,0-0.2,0c-0.1,0-0.1,0-0.2,0c0,0-0.1,0-0.1,0
	c-0.2,0-0.3,0-0.4,0c0,0-0.1,0-0.1,0c-0.1,0-0.2,0-0.2,0c0,0-0.1,0-0.1,0c-0.1,0-0.2,0-0.3,0c0,0-0.1,0-0.1,0
	c-0.3,0-0.6,0.1-0.9,0.1c0,0,0,0-0.1,0c-0.1,0-0.2,0-0.3,0c0,0-0.1,0-0.1,0c-0.1,0-0.2,0-0.3,0c0,0,0,0-0.1,0
	c-0.3,0-0.6,0.1-0.9,0.1c0,0,0,0,0,0c-0.1,0-0.2,0-0.3,0c0,0,0,0-0.1,0c-50.9,7.2-93.1,54.8-109.2,119
	C50.3,137,97.3,92.3,152.1,92.3c14.2,0,31.9,8.5,40.6,8.5c7.2,0,25-8.5,40.6-8.5c54.8,0,101.8,44.8,122,108.6
	c-15.8-62.8-56.6-109.7-106-118.4c0,0,0,0,0,0c-0.1,0-0.2,0-0.3-0.1c0,0,0,0,0,0c-0.3-0.1-0.6-0.1-1-0.2c0,0,0,0,0,0
	c-0.1,0-0.2,0-0.3,0c0,0,0,0-0.1,0c-0.1,0-0.2,0-0.3,0c0,0,0,0-0.1,0c-0.3,0-0.6-0.1-0.9-0.1c0,0-0.1,0-0.1,0c-0.1,0-0.2,0-0.2,0
	c0,0-0.1,0-0.1,0c-0.1,0-0.2,0-0.2,0c0,0-0.1,0-0.1,0c-0.3,0-0.5-0.1-0.8-0.1c0,0-0.1,0-0.1,0c-0.1,0-0.1,0-0.2,0c0,0-0.1,0-0.2,0
	c-0.1,0-0.1,0-0.2,0c-0.1,0-0.1,0-0.2,0c-0.1,0-0.3,0-0.4-0.1c0,0-0.1,0-0.1,0c-0.1,0-0.1,0-0.2,0c0,0-0.1,0-0.1,0
	c-0.1,0-0.1,0-0.2,0c-0.1,0-0.1,0-0.2,0c-0.1,0-0.1,0-0.2,0c-0.1,0-0.1,0-0.2,0c-0.1,0-0.2,0-0.3,0c-0.1,0-0.1,0-0.2,0
	c-0.1,0-0.1,0-0.2,0c-0.1,0-0.1,0-0.2,0c-0.1,0-0.1,0-0.2,0c-0.1,0-0.1,0-0.2,0c-0.1,0-0.1,0-0.2,0c-0.1,0-0.2,0-0.3,0
	c-0.1,0-0.1,0-0.2,0c-0.1,0-0.2,0-0.3,0c-0.1,0-0.1,0-0.2,0c-0.1,0-0.2,0-0.2,0c-0.1,0-0.1,0-0.2,0c-0.1,0-0.2,0-0.3,0
	c0,0-0.1,0-0.1,0c-0.1,0-0.2,0-0.4,0c0,0-0.1,0-0.1,0c-0.1,0-0.2,0-0.3,0c0,0-0.1,0-0.1,0c-0.1,0-0.2,0-0.2,0c-0.1,0-0.1,0-0.2,0
	c-0.1,0-0.2,0-0.3,0c0,0-0.1,0-0.1,0c-0.1,0-0.2,0-0.4,0c0,0-0.1,0-0.1,0c-0.1,0-0.2,0-0.3,0c0,0-0.1,0-0.1,0c-0.1,0-0.2,0-0.2,0
	c0,0-0.1,0-0.1,0c-0.1,0-0.2,0-0.3,0c0,0-0.1,0-0.1,0c-0.1,0-0.2,0-0.4,0c0,0-0.1,0-0.1,0c-0.1,0-0.2,0-0.3,0c-0.1,0-0.1,0-0.1,0
	c-0.1,0-0.2,0-0.2,0c0,0-0.1,0-0.1,0c-0.1,0-0.2,0-0.3,0c0,0,0,0,0,0c-0.1,0-0.3,0-0.4,0c0,0-0.1,0-0.1,0c-0.1,0-0.2,0-0.3,0
	c0,0-0.1,0-0.1,0c-0.1,0-0.2,0-0.3,0c0,0-0.1,0-0.1,0C232.7,80.9,232.6,80.9,232.5,80.9"/>
<path fill="#E3B6D6" d="M192.7,428.7C192.7,428.7,192.7,428.7,192.7,428.7c6.9,0,21.4,6.5,34.3,8.1
	C214.1,435.1,199.6,428.7,192.7,428.7 M60.7,384.5C60.7,384.5,60.7,384.5,60.7,384.5c22.1,30.6,52.2,50.2,85.7,52.5l0,0
	C112.9,434.7,82.8,415,60.7,384.5 M29.6,315.1L29.6,315.1c5.3,21.8,13.5,41.6,24,58.8c0,0,0,0,0,0C43.1,356.8,34.8,336.9,29.6,315.1
	"/>
<path fill="#112537" d="M53.6,373.9c2.2,3.7,4.6,7.2,7,10.6c0,0,0,0,0,0C58.2,381.1,55.9,377.6,53.6,373.9
	C53.6,373.9,53.6,373.9,53.6,373.9"/>
<path fill="#112537" d="M146.3,437L146.3,437c2.2,0.1,4.3,0.2,6.5,0.2l0,0C150.7,437.2,148.5,437.1,146.3,437"/>
<path fill="#E3B6D6" d="M362.3,258.3c0,0,0,0.1,0,0.1C362.3,258.4,362.3,258.4,362.3,258.3 M362.3,257.7
	C362.3,257.7,362.3,257.8,362.3,257.7C362.3,257.8,362.3,257.7,362.3,257.7"/>
<path fill="#982773" d="M192.7,428.7c-7.9,0-25.9,8.5-39.8,8.5c0,0,0,0,0,0C166.8,437.2,184.7,428.7,192.7,428.7
	C192.7,428.7,192.7,428.7,192.7,428.7 M361.4,238.4c-8.1,89.4-78.7,160.3-145.7,160.3c-13.6,0-27.9-9.2-36-9.5
	c0.2,1.3,0.4,2.5,0.5,3.6c1.2,8.1,1.5,12.8,0.8,12.9l0,0c-0.7,0-2.3-4.4-4.5-12.1c-0.4-1.2-0.7-2.6-1.1-4
	c-8.4,1.7-21.3,7.8-33.2,7.8c-66.6,0-112.4-68.8-118.6-157.3c-0.5,6.2-0.7,12.5-0.7,18.9l0,0l0,0c0-2.9,0.1-5.7,0.2-8.5
	c3.4,94.2,60.2,169.2,129.7,169.2c13.9,0,31.9-8.5,39.8-8.5c7.9,0,25.9,8.5,39.8,8.5c69.4,0,126.1-74.8,129.7-168.8
	c0.1,2.7,0.2,5.4,0.2,8.2l0,0l0,0c0-0.2,0-0.4,0-0.6c0,0,0-0.1,0-0.1c0-0.2,0-0.4,0-0.5c0,0,0,0,0-0.1
	C362.3,251.2,362,244.8,361.4,238.4"/>
<path fill="#871C61" d="M23.2,250.6c-0.1,2.8-0.2,5.6-0.2,8.5c0,98.4,58.1,178.1,129.8,178.1c13.9,0,31.9-8.5,39.8-8.5c0,0,0,0,0,0
	c0,0,0,0,0,0c7.9,0,25.9,8.5,39.8,8.5c71.7,0,129.8-79.8,129.8-178.1c0-2.8-0.1-5.5-0.2-8.2c-3.5,94.1-60.2,168.8-129.7,168.8
	c-13.9,0-31.9-8.5-39.8-8.5c-7.9,0-25.9,8.5-39.8,8.5C83.4,419.7,26.6,344.8,23.2,250.6"/>
<path fill="#982773" d="M181.1,110.9c-0.7,0-2.7,4.3-5.2,11.9c-2.4,7.8-5.5,19.2-8.1,33c-5.5,27.6-9.2,65-8.9,102.5l0,3.5l0.1,3.5
	c0.1,2.3,0.2,4.7,0.2,7c0.2,4.7,0.3,9.3,0.5,13.9c0.6,9.2,1.4,18.2,2.2,27c0.1,2.2,0.5,4.3,0.7,6.5c0.3,2.1,0.6,4.3,0.8,6.4
	c0.6,4.2,1.1,8.3,1.6,12.3c0.3,2,0.5,4,0.8,5.9c0.4,1.9,0.7,3.8,1,5.7c0.7,3.7,1.4,7.3,2,10.8c0.7,3.4,1.3,6.7,1.9,9.9
	c0.3,1.6,0.6,3.1,0.9,4.6c0.4,1.5,0.7,2.9,1.1,4.3c1,3.8,1.9,7.2,2.7,10.3c1.4-0.3,2.6-0.4,3.7-0.4c0.2,0,0.3,0,0.5,0
	c-0.5-3.2-1.1-6.8-1.8-10.8c-0.2-1.4-0.5-2.8-0.8-4.3c-0.2-1.5-0.4-3-0.6-4.6c-0.4-3.1-0.9-6.4-1.3-9.9c-0.5-3.4-1-7-1.5-10.7
	c-0.3-1.9-0.5-3.7-0.8-5.7c-0.2-1.9-0.4-3.9-0.6-5.9c-0.4-4-0.8-8-1.3-12.2c-0.2-2.1-0.4-4.2-0.7-6.3c-0.2-2.1-0.5-4.3-0.6-6.4
	c-0.5-8.7-1.2-17.6-1.7-26.7c-0.1-4.5-0.3-9.1-0.4-13.7c-0.1-2.3-0.1-4.6-0.2-6.9l-0.1-3.5l0-3.5c-0.3-37,2.7-73.9,6.7-101.4
	c1.9-13.7,4.1-25.1,5.4-33.1C181.1,115.7,181.8,111.1,181.1,110.9L181.1,110.9"/>
<path fill="#871C61" d="M179.3,389.2c-1.1,0-2.4,0.2-3.7,0.4c0.4,1.4,0.8,2.8,1.1,4c2.2,7.7,3.7,12.1,4.5,12.1l0,0
	c0.7-0.2,0.3-4.9-0.8-12.9c-0.2-1.1-0.3-2.4-0.5-3.6C179.6,389.2,179.5,389.2,179.3,389.2"/>
<path fill="#CF73BB" d="M121.9,107.3c-8.4,0-18.5,4.2-27.1,12c-14,12.7-18.9,30.1-10.8,38.9c3.1,3.4,7.6,5,12.9,5
	c8.4,0,18.5-4.2,27.1-12c14-12.7,18.9-30.1,10.8-38.9C131.7,108.9,127.1,107.3,121.9,107.3"/>
<path fill="#FFFFFF" d="M50.2,278.5c0.9,20,17.8,35.6,37.9,34.7c20.1-0.9,35.6-17.8,34.8-37.9s-17.8-35.6-37.9-34.7
	C64.9,241.5,49.3,258.4,50.2,278.5z"/>
<path fill="#133441" d="M115.3,275.8c-0.6-13.8-12.3-24.5-26.1-23.9c-13.8,0.6-24.6,12.3-24,26.1c0.6,13.8,12.3,24.5,26.1,23.9
	C105.1,301.3,115.9,289.6,115.3,275.8z M87.1,274.3c-3.9,4.4-10,5.4-13.6,2.2c-3.7-3.2-3.5-9.4,0.4-13.8c3.9-4.4,10-5.4,13.6-2.2
	C91.2,263.8,91,269.9,87.1,274.3z M106.4,291c-2.2,2.5-5.8,3.1-7.9,1.2c-2.1-1.9-2-5.4,0.2-8c2.2-2.5,5.8-3.1,7.9-1.2
	C108.8,284.9,108.7,288.4,106.4,291z"/>
<path fill="#FFFFFF" d="M206.7,278.5c0.9,20,17.8,35.6,37.9,34.7c20.1-0.9,35.6-17.8,34.8-37.9s-17.8-35.6-37.9-34.7
	C221.4,241.5,205.8,258.4,206.7,278.5z"/>
<path fill="#133441" d="M268.1,275.8c-0.6-13.8-12.3-24.5-26.1-23.9c-13.8,0.6-24.6,12.3-24,26.1c0.6,13.8,12.3,24.5,26.1,23.9
	C258,301.3,268.7,289.6,268.1,275.8z M240.3,272.9c-4.4,3.9-10.6,4.1-13.8,0.4c-3.2-3.6-2.3-9.7,2.1-13.6c4.4-3.9,10.6-4.1,13.8-0.4
	C245.7,262.9,244.7,269,240.3,272.9z M260.9,290.1c-2.2,2.5-5.8,3.1-7.9,1.2c-2.1-1.9-2-5.4,0.2-8c2.2-2.5,5.8-3.1,7.9-1.2
	C263.3,284,263.2,287.5,260.9,290.1z"/>
<path fill="#133441" d="M217.2,214.7c0.8,6.4,12.6,7.2,25.1,5.3c11.2-1.6,22.3-2.2,22.7-10.8C265.8,191.6,214.8,195.4,217.2,214.7z"
	/>
<path fill="#133441" d="M64.7,209.2c0.4,8.5,11.5,9.1,22.7,10.8c12.5,1.8,24.3,1.1,25.1-5.3C114.9,195.4,63.8,191.6,64.7,209.2z"/>
<ellipse fill="#EE927E" cx="266.4" cy="322.8" rx="15.8" ry="8.4"/>
<ellipse fill="#EE927E" cx="60.1" cy="322.8" rx="15.8" ry="8.4"/>
<path fill="#AB1700" d="M189.9,298.8c6.9,8.4,0.2,23.9-22.5,23.9c-22.7,0-28.3-16.8-22.5-23.9c3.3-4.1,11-2,22.5-2
	S186.5,294.6,189.9,298.8z"/>
<path fill="#FFFFFF" d="M186.7,300.3c0,1.9-8.4,3.4-18.7,3.4s-18.7-1.5-18.7-3.4c0-1.9,8.4-1.4,18.7-1.4S186.7,298.4,186.7,300.3z"
	/>
<path fill="#FD6C6C" d="M152,316.4c3.5,2.2,8.6,3.7,15.5,3.7c7.7,0,13.3-1.8,17-4.3C171.3,303.1,158.9,310.1,152,316.4z"/>
</svg>
