<?xml version="1.0" encoding="utf-8"?>
<!-- Generator: Adobe Illustrator 17.1.0, SVG Export Plug-In . SVG Version: 6.00 Build 0)  -->
<!DOCTYPE svg PUBLIC "-//W3C//DTD SVG 1.1//EN" "http://www.w3.org/Graphics/SVG/1.1/DTD/svg11.dtd">
<svg version="1.1" id="Layer_1" xmlns="http://www.w3.org/2000/svg" xmlns:xlink="http://www.w3.org/1999/xlink" x="0px" y="0px"
	 width="485.9px" height="527.5px" viewBox="0 0 485.9 527.5" enable-background="new 0 0 485.9 527.5" xml:space="preserve">
<path fill="#DBDACB" d="M255.5,476.8c-9.5,0-18.8,0.1-27.8,0.3c3,7.8,6.6,12.8,6.6,12.9c1.6,2.2,1.2,5.2-0.9,6.9
	c-0.5,0.4-4.8,3.6-13.3,4.2c-0.1,0-0.2,0-0.3,0c-2.6,0-4.8-2-5-4.7c-0.2-2.8,1.9-5.1,4.7-5.3c1.4-0.1,2.5-0.3,3.5-0.5
	c-1.8-3.2-4-7.7-5.8-13.2c-76.7,2.6-134,12.7-134,24.7c0,14,77.2,25.3,172.4,25.3c95.2,0,172.4-11.3,172.4-25.3
	C427.9,488.2,350.8,476.8,255.5,476.8"/>
<path fill="#133441" d="M388.8,311.3c-2.1,0-4-1.3-4.7-3.3c-0.9-2.6,0.4-5.5,3-6.4c45.7-16.4,67.5-54.4,67.8-54.8
	c1.4-2.4,4.4-3.3,6.8-1.9c2.4,1.4,3.3,4.4,1.9,6.8c-1,1.7-23.9,41.6-73.1,59.3C389.9,311.2,389.4,311.3,388.8,311.3"/>
<path fill="#133441" d="M480.3,248.2L480.3,248.2c0,0-0.2,0-0.5,0c-1.2,0.1-4.1,0.2-7.4-0.2c1.9-1.5,3.6-3.1,4.9-4.4
	c1.6-1.6,2.7-2.7,2.7-2.8c1.9-2,1.8-5.2-0.3-7.1c-2-1.9-5.2-1.8-7.1,0.3l0,0c-0.1,0.1-2.3,2.5-5.1,4.9c-1.1,1-2.3,1.9-3.4,2.7
	c0.1-0.1,0.1-0.2,0.2-0.4c1.1-2.1,2.6-4.3,3.7-5.9c0.6-0.8,1.1-1.5,1.5-2c0.2-0.2,0.3-0.4,0.4-0.5l0.1-0.1l0,0l0,0
	c1.7-2.2,1.4-5.3-0.8-7c-2.2-1.7-5.3-1.4-7,0.8c-0.1,0.1-2.5,3.2-5,7.1c-0.7,1.1-1.4,2.3-2,3.5c-0.1-0.2-0.2-0.4-0.4-0.6
	c-1.3-2.4-1.9-4.6-2.2-5.7c-0.1-0.3-0.1-0.6-0.1-0.7l0-0.1v0l0,0c-0.3-2.7-2.7-4.7-5.4-4.5c-2.8,0.3-4.8,2.7-4.5,5.5
	c0,0.2,0.1,0.9,0.3,2c0.4,1.9,1.3,5,3.2,8.4c1.9,3.5,4.9,7.4,9.4,10.8l0.2,0.1c0.2,0.2,0.4,0.3,0.6,0.4c2.5,1.8,5.2,3,7.8,3.8
	c4.4,1.4,8.6,1.7,11.7,1.8c3.2,0.1,5.3-0.2,5.5-0.2c2.7-0.3,4.7-2.8,4.4-5.6C485.5,249.8,483,247.9,480.3,248.2z"/>
<path fill="#133441" d="M106.4,346.3c-0.2,0-0.5,0-0.7-0.1c-56.8-8.1-82.1-43.5-83.2-45.1c-1.6-2.3-1-5.4,1.2-7c2.3-1.6,5.4-1,7,1.2
	c0.2,0.3,24.1,33.4,76.4,40.9c2.7,0.4,4.6,2.9,4.3,5.7C111,344.5,108.9,346.3,106.4,346.3"/>
<path fill="#133441" d="M34.8,273c-2.7,0.1-4.9,2.4-4.8,5.1h0c0,0.1,0,1.5-0.5,3.5c-0.3,1.1-0.7,2.5-1.3,4l-0.2-0.2
	c-1.8-2.5-3.8-4.8-5.4-6.5c-1.6-1.7-2.8-2.8-2.8-2.9c-2-1.9-5.2-1.8-7.1,0.2c-1.9,2-1.8,5.2,0.2,7.1v0c0.1,0.1,2.9,2.8,5.4,5.9
	c0.6,0.7,1.2,1.5,1.7,2.2c-2.2-1.2-4.6-2.8-6.4-4.2c-0.9-0.7-1.7-1.3-2.2-1.7c-0.3-0.2-0.5-0.4-0.6-0.5l-0.2-0.1l0,0l0,0
	c-2.1-1.8-5.3-1.5-7,0.7c-1.8,2.1-1.5,5.3,0.7,7c0.1,0.1,2.5,2.1,5.8,4.3c0.9,0.6,1.8,1.2,2.8,1.8c-1.3,0.3-2.6,0.6-3.8,0.8
	c-1.3,0.2-2.3,0.3-3,0.3c-0.4,0-0.6,0-0.8,0l-0.2,0l0,0v0c-2.8,0-5,2.3-4.9,5.1c0,2.8,2.3,5,5.1,4.9c0.2,0,4-0.1,8.9-1.2
	c2.5-0.6,5.2-1.4,8-2.7c2.5-1.1,4.9-2.7,7.2-4.7c0.1-0.1,0.2-0.2,0.4-0.3c0.1-0.1,0.3-0.3,0.5-0.4c2.9-2.9,5-6,6.5-8.9
	c1.5-2.9,2.3-5.6,2.8-7.8c0.8-3.4,0.7-5.7,0.7-6C39.9,275.1,37.6,272.9,34.8,273z M30,278.2L30,278.2L30,278.2L30,278.2z M30,278.2
	L30,278.2z"/>
<path fill="#133441" d="M385.1,446.5c-0.5,0-1-0.1-1.5-0.2c-1.3-0.4-2.4-1.4-3-2.6c-0.4-0.9-11.2-22.3-41.8-25.4
	c-2.8-0.3-4.8-2.7-4.5-5.5c0.3-2.8,2.8-4.7,5.5-4.5c26.2,2.7,40.2,17,46.2,25.3c0.5-0.8,1.1-1.7,1.6-2.8c1.2-2.5,4.3-3.5,6.7-2.2
	c2.5,1.2,3.5,4.3,2.2,6.7c-3.8,7.6-8.5,10.3-9,10.6C386.8,446.3,385.9,446.5,385.1,446.5"/>
<path fill="#133441" d="M219.8,501.1c-2.6,0-4.8-2-5-4.7c-0.2-2.8,1.9-5.1,4.7-5.3c1.4-0.1,2.5-0.3,3.5-0.5
	c-4.9-8.7-12.8-27.2-7.6-48.3c0.7-2.7,3.3-4.3,6.1-3.7c2.7,0.7,4.3,3.4,3.7,6.1c-5.9,24.2,9.2,45.1,9.3,45.3
	c1.6,2.2,1.2,5.2-0.9,6.9c-0.5,0.4-4.8,3.6-13.3,4.2C220,501.1,219.9,501.1,219.8,501.1"/>
<path fill="#8BC34A" d="M246.8,15.4c-26,14.2-26.7,39.1-26.6,43.6c-2.8,2.7-9.6,9.7-10.8,15.1l0.4,4.6c0,0,5.8-13.7,11.3-18.6
	c30.7,17.1,82.1-16.3,89.1-54.7c-3,1.8-8.5,1.5-15.8,1.1C282.1,6.1,264.9,5.5,246.8,15.4"/>
<path fill="#5F9E28" d="M310.2,5.5c0,0-22.4,21.4-44,33.6c-21.7,12.2-46,19.9-46,19.9l0,0l0,0c-2,2-6.3,6.3-8.9,10.7
	c-0.1,2.2-0.2,4.3-0.2,6.3c2-4.3,6.1-12.3,10.1-15.8c5.7,3.2,12.1,4.6,18.7,4.6C269.4,64.8,304.6,36.9,310.2,5.5 M310.2,5.5
	L310.2,5.5L310.2,5.5L310.2,5.5"/>
<path fill="#8BC34A" d="M207.3,97.6c-8.1-31.7-6.5-66.9,6-91c5-9.6,16.9-6.8,17.5-3.5c0.6,3.3-5.6,6.1-8.9,13.2
	c-14.1,30.4-10.6,82.4-10.6,82.4S212.1,116.2,207.3,97.6"/>
<path fill="#5F9E28" d="M224.8,1.4c-0.6,0-1.3,0-1.9,0.1c-3.3,0.4-5.8,1.8-5.6,3c0.1,1,1.9,1.6,4.3,1.6c0.6,0,1.3,0,1.9-0.1
	c3.3-0.4,5.8-1.8,5.6-3C228.9,2.1,227.1,1.4,224.8,1.4"/>
<path fill="#AB3689" d="M246.2,78.1c-15.1,2.6-30.8,14-37.7,15.3c-3.9,0.7-10.1-0.1-17-1c-7.8-0.9-16.4-1.9-23.7-0.6
	C97.2,104.1,53.6,192.7,70.6,289.6c16.9,96.9,87.9,165.5,158.6,153.1c13.7-2.4,29.9-13.9,37.7-15.3c3.6-0.6,9.7,0.2,16.6,1
	c7.9,0.9,16.8,1.9,24.1,0.6c70.6-12.3,114.2-100.9,97.2-197.8C387.9,134.3,316.9,65.8,246.2,78.1"/>
<path fill="#BFBFC2" d="M137.4,102.6C137.4,102.6,137.4,102.6,137.4,102.6C137.4,102.6,137.4,102.6,137.4,102.6 M138.5,102
	C138.5,102,138.5,102,138.5,102C138.5,102,138.5,102,138.5,102 M138.8,101.8C138.8,101.8,138.8,101.8,138.8,101.8
	C138.8,101.8,138.8,101.8,138.8,101.8 M139.2,101.6C139.1,101.7,139.1,101.7,139.2,101.6C139.1,101.7,139.1,101.7,139.2,101.6
	 M139.7,101.4C139.6,101.4,139.6,101.4,139.7,101.4C139.6,101.4,139.6,101.4,139.7,101.4 M140,101.2c0,0-0.1,0-0.1,0.1
	C139.9,101.2,139.9,101.2,140,101.2 M140.3,101c0,0-0.1,0-0.1,0.1C140.2,101.1,140.3,101.1,140.3,101 M140.7,100.9
	c0,0-0.1,0-0.1,0.1C140.6,100.9,140.6,100.9,140.7,100.9 M141.1,100.6c-0.1,0-0.1,0.1-0.2,0.1C141,100.7,141.1,100.7,141.1,100.6
	 M141.5,100.4c-0.1,0-0.1,0.1-0.2,0.1C141.3,100.5,141.4,100.5,141.5,100.4 M141.8,100.3c-0.1,0-0.1,0.1-0.2,0.1
	C141.7,100.3,141.8,100.3,141.8,100.3 M142.3,100.1c-0.1,0-0.2,0.1-0.3,0.1C142.1,100.2,142.2,100.1,142.3,100.1 M142.6,99.9
	c-0.1,0-0.2,0.1-0.3,0.1C142.4,100,142.5,99.9,142.6,99.9 M143,99.7c-0.1,0-0.1,0.1-0.2,0.1C142.8,99.8,142.9,99.8,143,99.7
	 M143.3,99.6c-0.1,0-0.2,0.1-0.2,0.1C143.2,99.6,143.2,99.6,143.3,99.6 M143.8,99.3c-0.1,0.1-0.2,0.1-0.3,0.2
	C143.5,99.5,143.7,99.4,143.8,99.3 M144.1,99.2c-0.1,0-0.2,0.1-0.3,0.1C143.9,99.3,144,99.2,144.1,99.2 M144.5,99
	c-0.1,0-0.2,0.1-0.3,0.1C144.3,99.1,144.4,99.1,144.5,99 M144.8,98.9c-0.1,0-0.2,0.1-0.3,0.1C144.7,98.9,144.8,98.9,144.8,98.9
	 M145.3,98.7c-0.1,0.1-0.2,0.1-0.3,0.2C145,98.8,145.1,98.7,145.3,98.7 M145.6,98.5c-0.1,0-0.2,0.1-0.3,0.1
	C145.4,98.6,145.5,98.6,145.6,98.5 M146,98.4c-0.1,0-0.2,0.1-0.3,0.1C145.8,98.4,145.9,98.4,146,98.4 M146.4,98.2
	c-0.1,0-0.2,0.1-0.3,0.1C146.2,98.3,146.3,98.2,146.4,98.2 M146.8,98c-0.1,0.1-0.2,0.1-0.4,0.2C146.5,98.1,146.7,98.1,146.8,98
	 M147.1,97.9c-0.1,0-0.2,0.1-0.3,0.1C146.9,98,147,97.9,147.1,97.9 M147.5,97.7c-0.1,0-0.2,0.1-0.3,0.1
	C147.3,97.8,147.4,97.8,147.5,97.7 M148.3,97.4c-0.2,0.1-0.5,0.2-0.7,0.3C147.8,97.6,148.1,97.5,148.3,97.4 M148.7,97.2
	c-0.1,0-0.2,0.1-0.3,0.1C148.4,97.3,148.6,97.3,148.7,97.2 M149,97.1c-0.1,0-0.2,0.1-0.3,0.1C148.8,97.2,148.9,97.1,149,97.1
	 M149.8,96.8c-0.3,0.1-0.5,0.2-0.7,0.3C149.3,97,149.6,96.9,149.8,96.8 M150.2,96.6c-0.1,0-0.2,0.1-0.3,0.1
	C150,96.7,150.1,96.7,150.2,96.6 M150.6,96.5c-0.1,0-0.2,0.1-0.3,0.1C150.4,96.6,150.5,96.5,150.6,96.5 M151.4,96.2
	c-0.3,0.1-0.5,0.2-0.8,0.3C150.9,96.4,151.1,96.3,151.4,96.2 M151.8,96.1c-0.1,0-0.2,0.1-0.4,0.1C151.5,96.1,151.6,96.1,151.8,96.1
	 M152.9,95.7c-0.4,0.1-0.8,0.3-1.1,0.4C152.2,95.9,152.5,95.8,152.9,95.7 M153.3,95.5c-0.1,0-0.2,0.1-0.4,0.1
	C153.1,95.6,153.2,95.6,153.3,95.5 M154.5,95.1c-0.4,0.1-0.8,0.3-1.2,0.4C153.7,95.4,154.1,95.3,154.5,95.1 M154.9,95
	c-0.1,0-0.2,0.1-0.4,0.1C154.6,95.1,154.8,95,154.9,95 M156.1,94.6c-0.4,0.1-0.8,0.2-1.2,0.4C155.3,94.9,155.7,94.7,156.1,94.6
	 M156.5,94.5c-0.1,0-0.2,0.1-0.4,0.1C156.2,94.6,156.3,94.5,156.5,94.5 M157.3,94.3c-0.3,0.1-0.5,0.2-0.8,0.2
	C156.7,94.4,157,94.3,157.3,94.3 M157.6,94.2c-0.1,0-0.2,0.1-0.4,0.1C157.4,94.2,157.5,94.2,157.6,94.2 M158.1,94
	c-0.1,0-0.2,0.1-0.4,0.1C157.8,94.1,157.9,94.1,158.1,94 M158.9,93.8c-0.3,0.1-0.5,0.1-0.8,0.2C158.3,94,158.6,93.9,158.9,93.8
	 M159.2,93.7c-0.1,0-0.2,0.1-0.4,0.1C159,93.8,159.1,93.7,159.2,93.7 M160.5,93.4c-0.4,0.1-0.8,0.2-1.2,0.3
	C159.7,93.6,160.1,93.5,160.5,93.4 M160.8,93.3c-0.1,0-0.2,0.1-0.3,0.1C160.6,93.3,160.7,93.3,160.8,93.3 M161.3,93.2
	c-0.1,0-0.2,0.1-0.4,0.1C161,93.2,161.1,93.2,161.3,93.2 M162.1,93c-0.3,0.1-0.5,0.1-0.8,0.2C161.5,93.1,161.8,93.1,162.1,93
	 M162.4,92.9c-0.1,0-0.2,0-0.3,0.1C162.2,92.9,162.3,92.9,162.4,92.9 M162.9,92.8c-0.1,0-0.2,0.1-0.4,0.1
	C162.6,92.9,162.8,92.8,162.9,92.8 M163.3,92.7c-0.1,0-0.3,0.1-0.4,0.1C163,92.8,163.2,92.7,163.3,92.7 M163.7,92.6
	c-0.1,0-0.2,0.1-0.4,0.1C163.4,92.7,163.6,92.6,163.7,92.6 M164.1,92.5c-0.1,0-0.2,0-0.3,0.1C163.9,92.6,164,92.6,164.1,92.5
	 M164.9,92.4c-0.3,0.1-0.5,0.1-0.8,0.2C164.4,92.5,164.7,92.4,164.9,92.4 M165.3,92.3c-0.1,0-0.2,0-0.3,0.1
	C165.1,92.3,165.2,92.3,165.3,92.3 M165.7,92.2c-0.1,0-0.2,0-0.3,0.1C165.5,92.2,165.6,92.2,165.7,92.2 M166.5,92
	c-0.3,0-0.5,0.1-0.8,0.1C166,92.1,166.3,92.1,166.5,92 M166.9,92c-0.1,0-0.2,0-0.3,0.1C166.7,92,166.8,92,166.9,92 M167.3,91.9
	c-0.1,0-0.2,0-0.3,0.1C167.1,91.9,167.2,91.9,167.3,91.9 M175.8,91.2c-2.8,0-5.5,0.2-8,0.6c-0.1,0-0.3,0-0.4,0.1
	c0.1,0,0.3,0,0.4-0.1C170.4,91.4,173.1,91.2,175.8,91.2c5.2,0,10.6,0.6,15.7,1.2c5.1,0.6,9.8,1.2,13.4,1.2c0.5,0,0.9,0,1.4,0l0,0
	c-0.4,0-0.9,0-1.4,0c-3.7,0-8.4-0.6-13.4-1.2C186.5,91.8,181,91.2,175.8,91.2 M246.7,78c-0.2,0-0.3,0.1-0.5,0.1
	c-13.4,2.3-27.3,11.6-35.1,14.5l0,0c7.8-2.9,21.7-12.2,35.1-14.5C246.4,78.1,246.6,78,246.7,78 M259,76.7c-4.1,0.2-8.2,0.6-12.3,1.3
	C250.9,77.3,255,76.9,259,76.7 M266,76.7C266,76.7,266,76.7,266,76.7C266,76.7,266,76.7,266,76.7 M264.9,76.7
	C264.9,76.7,264.9,76.7,264.9,76.7C264.9,76.7,264.9,76.7,264.9,76.7 M264.6,76.7C264.6,76.7,264.6,76.7,264.6,76.7
	C264.6,76.7,264.6,76.7,264.6,76.7 M263.7,76.7C263.7,76.7,263.7,76.7,263.7,76.7C263.7,76.7,263.7,76.7,263.7,76.7 M263.3,76.7
	C263.4,76.7,263.4,76.7,263.3,76.7C263.4,76.7,263.4,76.7,263.3,76.7 M263.1,76.7C263.1,76.7,263.1,76.7,263.1,76.7
	C263.1,76.7,263.1,76.7,263.1,76.7"/>
<path fill="#BD55A3" d="M262.8,76.7c-1.2,0-2.5,0-3.8,0.1c-4.1,0.2-8.2,0.6-12.3,1.3c0,0,0,0,0,0c-0.2,0-0.3,0.1-0.5,0.1
	c-13.4,2.3-27.3,11.6-35.1,14.5c-1,0.4-1.8,0.6-2.6,0.7c-0.7,0.1-1.4,0.2-2.2,0.2c-0.4,0-0.9,0-1.4,0c-3.7,0-8.4-0.6-13.4-1.2
	c-5.1-0.6-10.5-1.2-15.7-1.2c-2.8,0-5.5,0.2-8,0.6c-0.1,0-0.3,0-0.4,0.1c0,0-0.1,0-0.1,0c-0.1,0-0.2,0-0.3,0.1c0,0-0.1,0-0.1,0
	c-0.1,0-0.2,0-0.3,0.1c0,0-0.1,0-0.1,0c-0.3,0-0.5,0.1-0.8,0.1c0,0-0.1,0-0.1,0c-0.1,0-0.2,0-0.3,0.1c0,0-0.1,0-0.1,0
	c-0.1,0-0.2,0-0.3,0.1c0,0,0,0,0,0c-0.3,0.1-0.5,0.1-0.8,0.2c0,0-0.1,0-0.1,0c-0.1,0-0.2,0-0.3,0.1c0,0-0.1,0-0.1,0
	c-0.1,0-0.2,0.1-0.4,0.1c0,0,0,0,0,0c-0.1,0-0.3,0.1-0.4,0.1c0,0,0,0,0,0c-0.1,0-0.2,0.1-0.4,0.1c0,0-0.1,0-0.1,0
	c-0.1,0-0.2,0-0.3,0.1c0,0,0,0-0.1,0c-0.3,0.1-0.5,0.1-0.8,0.2l0,0c-0.1,0-0.2,0.1-0.4,0.1c0,0,0,0-0.1,0c-0.1,0-0.2,0.1-0.3,0.1
	c0,0,0,0,0,0c-0.4,0.1-0.8,0.2-1.2,0.3c0,0,0,0-0.1,0c-0.1,0-0.2,0.1-0.4,0.1c0,0,0,0,0,0c-0.3,0.1-0.5,0.1-0.8,0.2c0,0,0,0,0,0
	c-0.1,0-0.2,0.1-0.4,0.1c0,0,0,0-0.1,0c-0.1,0-0.2,0.1-0.4,0.1c0,0,0,0,0,0c-0.3,0.1-0.5,0.2-0.8,0.2c0,0,0,0,0,0
	c-0.1,0-0.2,0.1-0.4,0.1c0,0,0,0,0,0c-0.4,0.1-0.8,0.2-1.2,0.4c0,0,0,0,0,0c-0.1,0-0.2,0.1-0.4,0.1c0,0,0,0,0,0
	c-0.4,0.1-0.8,0.3-1.2,0.4c0,0,0,0,0,0c-0.1,0-0.2,0.1-0.4,0.1c0,0,0,0,0,0c-0.4,0.1-0.8,0.3-1.1,0.4c0,0,0,0,0,0
	c-0.1,0-0.2,0.1-0.4,0.1c0,0,0,0,0,0c-0.3,0.1-0.5,0.2-0.8,0.3c0,0,0,0,0,0c-0.1,0-0.2,0.1-0.3,0.1c0,0,0,0,0,0
	c-0.1,0-0.2,0.1-0.3,0.1c0,0,0,0,0,0c-0.2,0.1-0.5,0.2-0.7,0.3c0,0,0,0,0,0c-0.1,0-0.2,0.1-0.3,0.1c0,0,0,0,0,0
	c-0.1,0-0.2,0.1-0.3,0.1c0,0,0,0,0,0c-0.2,0.1-0.5,0.2-0.7,0.3c0,0-0.1,0-0.1,0c-0.1,0-0.2,0.1-0.3,0.1c0,0-0.1,0-0.1,0
	c-0.1,0-0.2,0.1-0.3,0.1c0,0,0,0,0,0c-0.1,0.1-0.2,0.1-0.4,0.2c0,0,0,0,0,0c-0.1,0-0.2,0.1-0.3,0.1c0,0-0.1,0-0.1,0
	c-0.1,0-0.2,0.1-0.3,0.1c0,0,0,0-0.1,0c-0.1,0-0.2,0.1-0.3,0.1c0,0,0,0-0.1,0c-0.1,0.1-0.2,0.1-0.3,0.2c0,0,0,0-0.1,0
	c-0.1,0-0.2,0.1-0.3,0.1c0,0-0.1,0-0.1,0c-0.1,0-0.2,0.1-0.3,0.1c0,0-0.1,0-0.1,0c-0.1,0-0.2,0.1-0.3,0.1c0,0,0,0,0,0
	c-0.1,0.1-0.2,0.1-0.3,0.2c0,0-0.1,0-0.1,0c-0.1,0-0.2,0.1-0.2,0.1c0,0-0.1,0-0.1,0.1c-0.1,0-0.2,0.1-0.2,0.1c0,0-0.1,0-0.1,0.1
	c-0.1,0-0.2,0.1-0.3,0.1c0,0,0,0-0.1,0c-0.1,0.1-0.2,0.1-0.3,0.1c0,0-0.1,0-0.1,0.1c-0.1,0-0.1,0.1-0.2,0.1c0,0-0.1,0-0.1,0.1
	c-0.1,0-0.1,0.1-0.2,0.1c0,0-0.1,0-0.1,0.1c-0.1,0-0.1,0.1-0.2,0.1c-0.1,0-0.2,0.1-0.3,0.1c0,0-0.1,0-0.1,0.1
	c-0.1,0-0.1,0.1-0.2,0.1c0,0-0.1,0-0.1,0.1c-0.1,0-0.1,0.1-0.2,0.1c0,0-0.1,0-0.1,0.1c-0.1,0-0.1,0.1-0.2,0.1c0,0-0.1,0-0.1,0
	c-0.1,0.1-0.3,0.1-0.4,0.2c0,0-0.1,0-0.1,0.1c-0.1,0-0.1,0.1-0.2,0.1c0,0-0.1,0-0.1,0c-0.1,0-0.2,0.1-0.2,0.1c0,0,0,0,0,0
	c-0.4,0.2-0.7,0.4-1.1,0.6c0,0,0,0,0,0C98,124.4,71.8,173.2,67.5,231.1C76.4,164.7,115,112.5,169,103.1c2.7-0.5,5.5-0.6,8.4-0.6
	c5.2,0,10.7,0.6,15.8,1.2c5.1,0.6,9.8,1.2,13.6,1.2c1.4,0,2.6-0.1,3.7-0.3c7.1-1.2,23.1-12.7,38.5-15.4c5.7-1,11.5-1.5,17.2-1.5
	c48,0,94,34.4,121.6,87.4c-25.9-58-72.7-96.7-121.7-98.4c0,0,0,0,0,0c-0.4,0-0.8,0-1.2,0c0,0,0,0,0,0c-0.1,0-0.2,0-0.3,0
	c0,0,0,0,0,0c-0.3,0-0.6,0-0.8,0c0,0,0,0-0.1,0c-0.1,0-0.2,0-0.2,0c0,0,0,0-0.1,0c-0.1,0-0.2,0-0.3,0c0,0,0,0,0,0
	C263,76.7,262.9,76.7,262.8,76.7"/>
<path fill="#E3B6D6" d="M338.2,418.1c-9.5,5.3-19.7,9-30.6,10.9C318.4,427.1,328.7,423.4,338.2,418.1L338.2,418.1 M406.3,304.2
	L406.3,304.2c-6.4,45.3-26.5,83.8-55.8,105.9l0,0C379.8,388,399.9,349.5,406.3,304.2 M406.1,239.7c1.6,11.3,2.3,22.4,2.3,33.3
	c0,6.4-0.3,12.8-0.8,19v0C409.1,275.3,408.6,257.7,406.1,239.7"/>
<path fill="#112537" d="M407.7,292L407.7,292c-0.3,4.1-0.8,8.2-1.4,12.2l0,0C406.9,300.2,407.3,296.1,407.7,292"/>
<path fill="#112537" d="M350.4,410.1c-3.9,3-8,5.6-12.3,8h0C342.4,415.8,346.5,413.1,350.4,410.1L350.4,410.1"/>
<path fill="#E3B6D6" d="M86,342.1c26.1,61.3,75.3,102.1,126.6,102.1h0C161.3,444.2,112,403.3,86,342.1L86,342.1 M79.8,325.8
	c0.5,1.4,1,2.8,1.5,4.3l0,0C80.7,328.6,80.2,327.2,79.8,325.8"/>
<path fill="#112537" d="M81.2,330c1.5,4.1,3.1,8.1,4.7,12l0,0C84.3,338.1,82.7,334.1,81.2,330L81.2,330"/>
<path fill="#E3B6D6" d="M70.3,288c0.1,0.5,0.2,1.1,0.3,1.6C70.5,289.1,70.4,288.5,70.3,288 M70.2,287.5c0,0.1,0,0.3,0.1,0.4
	C70.3,287.8,70.2,287.7,70.2,287.5 M70.1,287.1c0,0.1,0,0.2,0,0.3C70.2,287.2,70.2,287.1,70.1,287.1 M70.1,286.6
	C70.1,286.6,70.1,286.7,70.1,286.6C70.1,286.7,70.1,286.6,70.1,286.6"/>
<path fill="#982773" d="M263.7,428.4c-8.5,3.1-22.5,12.3-34.5,14.4c-5.5,1-11.1,1.4-16.6,1.4h0c5.5,0,11-0.5,16.6-1.4
	C241.2,440.6,255.2,431.5,263.7,428.4 M400.4,211c7.4,89.5-49.9,171.5-115.9,183c-2.1,0.4-4.2,0.5-6.3,0.5c-5.4,0-10.8-1-15.8-1.9
	c-5-1-9.6-1.9-13.1-1.9c-0.7,0-1.3,0-1.9,0.1c0.4,1.2,0.8,2.4,1.2,3.5c2.5,7.7,3.7,12.3,3,12.6l0,0c0,0,0,0,0,0c-0.7,0-3-4-6.4-11.2
	c-0.6-1.2-1.2-2.4-1.8-3.8c-8,3.1-19.6,11.4-31.3,13.4c-5.4,0.9-10.8,1.4-16,1.4c-58.7,0-108.3-56.9-127.9-136
	c0.5,5.2,1.2,10.5,2,15.8c0,0,0,0.1,0,0.1c0,0.1,0,0.2,0.1,0.4c0,0.1,0,0.2,0,0.3c0,0.1,0,0.1,0,0.2c0,0.1,0,0.3,0.1,0.4
	c0,0,0,0,0,0.1c0.1,0.5,0.2,1.1,0.3,1.6l0,0c-0.5-2.8-0.9-5.6-1.3-8.4C87.3,366,146.9,427,209.6,427c5.5,0,11-0.5,16.6-1.4
	c13.7-2.4,29.9-13.9,37.7-15.3c0.9-0.2,2-0.2,3.2-0.2c3.6,0,8.3,0.6,13.4,1.2c5.1,0.6,10.7,1.2,15.9,1.2c2.9,0,5.6-0.2,8.2-0.6
	c68.4-12,111.4-95.4,98.7-188.6c0.6,2.7,1.1,5.3,1.6,8l0,0C403.6,224.3,402.1,217.6,400.4,211"/>
<path fill="#871C61" d="M403.2,223.2c12.7,93.3-30.3,176.7-98.7,188.6c-2.6,0.5-5.3,0.6-8.2,0.6c-5.3,0-10.8-0.6-15.9-1.2
	c-5.1-0.6-9.8-1.2-13.4-1.2c-1.2,0-2.3,0.1-3.2,0.2c-7.8,1.4-24.1,12.9-37.7,15.3c-5.5,1-11.1,1.4-16.6,1.4
	c-62.7,0-122.3-61-140.3-145.7c0.4,2.8,0.8,5.6,1.3,8.4l0,0c15.6,89.3,77.1,154.6,142,154.6c5.5,0,11-0.5,16.6-1.4
	c12-2.1,26-11.2,34.5-14.4c1.2-0.4,2.2-0.7,3.2-0.9c0.9-0.2,2-0.2,3.2-0.2c3.6,0,8.3,0.6,13.4,1.2c5.1,0.6,10.7,1.2,15.9,1.2
	c2.9,0,5.6-0.2,8.2-0.6c60.3-10.5,100.8-76.6,100.9-156c0-13.6-1.2-27.6-3.7-41.8l0,0C404.3,228.5,403.8,225.8,403.2,223.2"/>
<path fill="#982773" d="M200.9,116.4L200.9,116.4c-0.8,0.1-2,4.7-3.1,12.6c-1.1,8.1-2.1,19.8-2.3,33.9c-0.6,28.1,2.1,65.6,8.9,102.5
	l0.6,3.5l0.7,3.4c0.5,2.3,1,4.6,1.4,6.9c1,4.6,1.9,9.1,2.9,13.6c2.2,9,4.6,17.7,6.8,26.2c0.5,2.1,1.2,4.2,1.8,6.3
	c0.6,2.1,1.3,4.1,1.9,6.1c1.3,4,2.5,8,3.7,11.8c0.6,1.9,1.2,3.8,1.8,5.7c0.7,1.8,1.3,3.6,2,5.4c1.3,3.5,2.6,7,3.8,10.3
	c1.2,3.3,2.4,6.4,3.6,9.4c0.6,1.5,1.1,2.9,1.7,4.3c0.6,1.4,1.2,2.7,1.8,4c1.6,3.6,3.1,6.8,4.4,9.6c1.3-0.5,2.5-0.9,3.6-1.1
	c0.2,0,0.3-0.1,0.5-0.1c-1-3.1-2.3-6.6-3.6-10.4c-0.5-1.3-1-2.7-1.5-4.1c-0.5-1.4-0.9-2.9-1.4-4.4c-1-3-2-6.2-3-9.5
	c-1.1-3.3-2.2-6.7-3.3-10.3c-0.6-1.8-1.2-3.6-1.8-5.4c-0.5-1.9-1.1-3.8-1.6-5.7c-1.1-3.8-2.2-7.8-3.3-11.8c-0.6-2-1.2-4-1.7-6.1
	c-0.6-2-1.2-4.1-1.7-6.2c-2-8.4-4.2-17.1-6.3-26c-0.9-4.5-1.8-9-2.8-13.5c-0.5-2.3-0.9-4.5-1.4-6.8l-0.7-3.4l-0.6-3.4
	c-6.6-36.4-10.1-73.3-10.9-101c-0.5-13.9-0.3-25.4-0.3-33.6C201.6,121.2,201.5,116.6,200.9,116.4"/>
<path fill="#871C61" d="M247.4,390.9c-0.2,0-0.3,0-0.5,0.1c-1.1,0.2-2.3,0.6-3.6,1.1c0.6,1.3,1.2,2.6,1.8,3.8
	c3.4,7.1,5.7,11.2,6.4,11.2c0,0,0,0,0,0l0,0c0.7-0.3-0.5-4.8-3-12.6C248.2,393.2,247.8,392.1,247.4,390.9"/>
<path fill="#CF73BB" d="M145.7,122.8c-9.1,0-20.2,6.2-28.5,16.8c-11.6,14.9-13.4,32.9-4,40.2c2.7,2.1,6,3.1,9.7,3.1
	c9.1,0,20.2-6.2,28.5-16.8c11.6-14.9,13.4-32.9,4-40.2C152.7,123.7,149.4,122.8,145.7,122.8"/>
<path fill="#AB1700" d="M247.4,305c9.8,7.6,6.3,26.6-19,32.3c-25.3,5.8-35.8-11.5-31.1-20.9c2.7-5.4,11.7-5.1,24.5-8
	C234.7,305.5,242.5,301.3,247.4,305z"/>
<path fill="#FFFFFF" d="M244.2,307.5c0.5,2.1-8.4,6-19.9,8.6c-11.5,2.6-21.2,3-21.6,0.9c-0.5-2.1,8.9-3.7,20.4-6.3
	C234.5,308.1,243.7,305.4,244.2,307.5z"/>
<path fill="#FD6C6C" d="M209.6,334.3c4.5,1.5,10.5,1.9,18.2,0.2c8.6-2,14.4-5.3,17.8-9C227.8,314.6,215.8,325.5,209.6,334.3z"/>
<path fill="#FFFFFF" d="M102.2,305.7c4.4,19.6,23.9,31.8,43.5,27.4c19.6-4.4,31.9-23.9,27.4-43.5s-23.9-31.8-43.5-27.4
	C110.1,266.7,97.8,286.2,102.2,305.7z"/>
<path fill="#133441" d="M164.8,293.1c-3.1-13.5-16.5-21.9-30-18.9c-13.5,3.1-22,16.5-18.9,29.9c3.1,13.5,16.5,21.9,30,18.9
	C159.4,320,167.8,306.6,164.8,293.1z M136.9,296.7c-3,5-8.9,7.1-13,4.6c-4.2-2.5-5.1-8.6-2.1-13.6c3-5,8.9-7.1,13-4.6
	C139,285.6,139.9,291.7,136.9,296.7z M158.8,309.6c-1.8,2.9-5.1,4.1-7.5,2.6c-2.4-1.5-3-5-1.2-7.9s5.1-4.1,7.5-2.6
	C160,303.2,160.6,306.7,158.8,309.6z"/>
<path fill="#FFFFFF" d="M256.2,277.8c4.4,19.6,23.9,31.8,43.5,27.4s31.9-23.9,27.4-43.5s-23.9-31.8-43.5-27.4
	C264,238.7,251.8,258.2,256.2,277.8z"/>
<path fill="#133441" d="M315.7,265.5c-3.1-13.5-16.5-21.9-30-18.9c-13.5,3.1-22,16.5-18.9,29.9c3.1,13.5,16.5,21.9,30,18.9
	C310.3,292.4,318.7,279,315.7,265.5z M287.8,267.6c-3.6,4.6-9.7,5.9-13.5,2.9c-3.8-3-4-9.2-0.3-13.8c3.6-4.6,9.7-5.9,13.5-2.9
	C291.3,256.8,291.5,263,287.8,267.6z M311.2,280.8c-1.8,2.9-5.1,4.1-7.5,2.6c-2.4-1.5-3-5-1.2-7.9c1.8-2.9,5.1-4.1,7.5-2.6
	C312.4,274.4,313,277.9,311.2,280.8z"/>
<path fill="#133441" d="M255.1,213.1c1.9,6.1,13.7,4.8,25.6,0.8c10.7-3.6,21.5-6.2,20.4-14.7C298.9,181.8,249.3,194.6,255.1,213.1z"
	/>
<path fill="#133441" d="M104.1,235c2,8.3,12.9,6.9,24.3,6.6c12.6-0.4,24.1-3.3,23.7-9.7C151,212.5,100,217.9,104.1,235z"/>
<ellipse transform="matrix(0.9839 -0.1787 0.1787 0.9839 -50.2699 62.9051)" fill="#EE927E" cx="324.1" cy="310.5" rx="15.8" ry="8.4"/>
<ellipse transform="matrix(0.9839 -0.1787 0.1787 0.9839 -60.1234 27.2382)" fill="#EE927E" cx="121.1" cy="347.4" rx="15.8" ry="8.4"/>
</svg>
