<?xml version="1.0" encoding="utf-8"?>
<!-- Generator: Adobe Illustrator 17.1.0, SVG Export Plug-In . SVG Version: 6.00 Build 0)  -->
<!DOCTYPE svg PUBLIC "-//W3C//DTD SVG 1.1//EN" "http://www.w3.org/Graphics/SVG/1.1/DTD/svg11.dtd">
<svg version="1.1" id="Layer_1" xmlns="http://www.w3.org/2000/svg" xmlns:xlink="http://www.w3.org/1999/xlink" x="0px" y="0px"
	 width="399px" height="530px" viewBox="0 0 399 530" enable-background="new 0 0 399 530" xml:space="preserve">
<path fill="#DBDACB" d="M166.8,479.3C74.7,479.3,0,490.7,0,504.7c0,14,74.7,25.3,166.8,25.3s166.8-11.3,166.8-25.3
	C333.6,490.7,258.9,479.3,166.8,479.3"/>
<path fill="#133441" d="M354.9,385.4c-0.3,0-0.6,0-0.9,0c-14.2-0.9-22.1-20.7-23.7-59c-0.1-2.8,2-5.1,4.8-5.2c2.8-0.1,5.1,2,5.2,4.8
	c1.5,36,8.6,49.1,14.3,49.5c7.2,0.5,19.5-16.8,22.8-36.9c0.4-2.7,3-4.6,5.7-4.1c2.7,0.4,4.6,3,4.1,5.7
	C383.7,362.3,369.9,385.4,354.9,385.4"/>
<path fill="#133441" d="M392.7,318.5c-3.2-2.7-7.8-3.3-11.9-1.5c-3.5,1.6-6.2,4.6-7.8,8.7c-2.4,1.9-4.1,4.5-4.6,7.3
	c-0.9,4.8,1.7,11.2,11.9,13.2c1.5,0.3,2.9,0.4,4.3,0.4c5.9,0,10.6-2.7,13-7.6C400.6,332.5,398.5,323.5,392.7,318.5z"/>
<path fill="#133441" d="M47.6,235.7c-1.5,0-3-0.7-4-2c-48.5-63.7-22-117.8-20.9-120c1.2-2.5,4.3-3.5,6.7-2.2
	c2.5,1.2,3.5,4.3,2.2,6.7c-1,2-24.6,50.9,19.9,109.4c1.7,2.2,1.2,5.3-1,7C49.7,235.4,48.6,235.7,47.6,235.7"/>
<path fill="#133441" d="M37.5,95.3c-7.5-1.7-15.9,2-19.3,8.5c-3.1,6-1.4,12.8,4.6,18.1c3.8,3.4,7.4,4.7,10.4,4.7
	c3.1,0,5.6-1.4,7.3-3.2c2-2.1,3-5.1,3.1-8.1c2.3-3.7,3.2-7.7,2.3-11.5C44.9,99.5,41.7,96.3,37.5,95.3z"/>
<path fill="#133441" d="M178.5,467.4c-2.5,0-4.7-1.9-5-4.5c-1-8.9,4.4-13.3,5-13.8c1-0.8,2.3-1.1,3.5-1c26.2,2.4,29.3-3.1,29.5-3.7
	c1.6-3.8-5.8-13.8-13.5-20.4c-2.1-1.8-2.3-5-0.5-7.1c1.8-2.1,4.9-2.4,7.1-0.6c3.6,3.1,21.5,19.3,16.2,31.9
	c-3.6,8.5-15.3,11.7-36.9,10c-0.3,0.8-0.6,1.9-0.4,3.5c0.3,2.7-1.7,5.2-4.4,5.5C178.8,467.4,178.7,467.4,178.5,467.4"/>
<path fill="#133441" d="M96.2,460.2c-1.7,0-3.3-0.8-4.2-2.3c-1.5-2.3-0.8-5.4,1.5-6.9c1.5-1,2.3-2,2.6-2.8
	c-9.2-13.1-12.5-25.4-9.7-36.8c4.2-17.1,20.7-25,21.4-25.3c2.5-1.2,5.5-0.1,6.7,2.4c1.2,2.5,0.1,5.5-2.4,6.7
	c-0.3,0.1-12.9,6.4-16,18.8c-2.2,8.8,1,19,9.3,30.2c0.6,0.8,1,1.8,1,2.9c0,0.8,0,7.7-7.6,12.5C98,460,97.1,460.2,96.2,460.2"/>
<path fill="#8BC34A" d="M301.5,23.6c-29.4,3.6-39.3,26.5-40.9,30.7c-3.6,1.5-12.5,5.5-15.6,10.1l-1.3,4.5c0,0,10.4-10.5,17.4-13.1
	c22.2,27.3,82.3,15.3,103-17.8c-4.4,0.7-11.4-3.3-21-7.4C332.4,26.1,318.6,21.6,301.5,23.6"/>
<path fill="#5F9E28" d="M364.1,37.9c0,0-28.7,11.6-53.3,14.9c-11.6,1.6-23.3,2-32.5,2c-10.4,0-17.6-0.5-17.6-0.5l0,0
	c-2.6,1.1-8.2,3.6-12.2,6.6c-0.9,2-1.8,3.9-2.6,5.8c3.4-3.2,10.2-9.1,15.2-10.9c8.5,10.4,22.4,15.1,37.6,15.1
	C323.3,70.8,351.2,58.5,364.1,37.9"/>
<path fill="#8BC34A" d="M234.3,85.4c4.2-32.5,18.7-64.5,39.3-82.3c8.2-7.1,18.2-0.1,17.5,3.2c-0.7,3.3-7.5,3.6-13.1,8.9
	c-24.3,23.1-40.3,72.6-40.3,72.6S231.9,104.3,234.3,85.4"/>
<path fill="#5F9E28" d="M281,1.4c-1.6,0-2.8,0.4-3,1.2c-0.3,1.2,2,2.8,5.2,3.7c1.2,0.3,2.3,0.4,3.3,0.4c1.6,0,2.8-0.4,3-1.2
	c0.3-1.2-2-2.8-5.2-3.7C283.2,1.6,282,1.4,281,1.4"/>
<path fill="#AB3689" d="M277.7,81.6c-8.4-1.8-18-1-26-0.3c-6.3,0.6-11.7,1.1-14.7,0.5c-8.3-1.7-23.6-13.7-37.2-16.5
	C129.6,50.6,56.4,116.8,36.2,213C16,309.3,56.6,399.3,126.8,414c7.4,1.6,16.5,0.9,24.5,0.2c6.7-0.6,12.7-1.1,16.2-0.4
	c7.8,1.6,23.6,13.7,37.2,16.5c70.2,14.7,143.4-51.4,163.6-147.7C388.5,186.3,347.9,96.3,277.7,81.6"/>
<path fill="#BFBFC2" d="M298,88.3C298,88.3,298,88.3,298,88.3C298,88.3,298,88.3,298,88.3 M296.8,87.8
	C296.8,87.8,296.8,87.8,296.8,87.8C296.8,87.8,296.8,87.8,296.8,87.8 M296.4,87.6C296.5,87.6,296.5,87.6,296.4,87.6
	C296.5,87.6,296.5,87.6,296.4,87.6 M296.2,87.5C296.2,87.5,296.2,87.5,296.2,87.5C296.2,87.5,296.2,87.5,296.2,87.5 M295.6,87.2
	C295.6,87.2,295.6,87.3,295.6,87.2C295.6,87.3,295.6,87.2,295.6,87.2 M295.2,87.1c0,0,0.1,0,0.1,0C295.3,87.1,295.3,87.1,295.2,87.1
	 M294.9,87c0,0,0.1,0,0.1,0.1C295,87,294.9,87,294.9,87 M294.6,86.8c0,0,0.1,0,0.1,0.1C294.7,86.9,294.6,86.8,294.6,86.8
	 M294.1,86.6c0.1,0,0.1,0,0.1,0.1C294.2,86.6,294.1,86.6,294.1,86.6 M293.7,86.5c0.1,0,0.1,0,0.2,0.1
	C293.8,86.5,293.8,86.5,293.7,86.5 M293.4,86.3c0.1,0,0.1,0,0.2,0.1C293.5,86.4,293.4,86.4,293.4,86.3 M293,86.2
	c0.1,0,0.1,0,0.2,0.1C293.1,86.2,293.1,86.2,293,86.2 M292.5,86c0.1,0,0.1,0,0.2,0.1C292.6,86,292.6,86,292.5,86 M292.2,85.9
	c0.1,0,0.1,0,0.2,0.1C292.3,85.9,292.2,85.9,292.2,85.9 M291.8,85.7c0.1,0,0.1,0,0.2,0.1C291.9,85.8,291.9,85.8,291.8,85.7
	 M291.3,85.6c0.1,0,0.2,0.1,0.3,0.1C291.5,85.6,291.4,85.6,291.3,85.6 M291,85.4c0.1,0,0.2,0.1,0.2,0.1
	C291.1,85.5,291,85.5,291,85.4 M290.6,85.3c0.1,0,0.1,0,0.2,0.1C290.8,85.3,290.7,85.3,290.6,85.3 M290.2,85.2
	c0.1,0,0.2,0.1,0.2,0.1C290.4,85.2,290.3,85.2,290.2,85.2 M289.8,85c0.1,0,0.2,0.1,0.3,0.1C290,85.1,289.9,85,289.8,85 M289.4,84.9
	c0.1,0,0.2,0.1,0.2,0.1C289.6,84.9,289.5,84.9,289.4,84.9 M289,84.7c0.1,0,0.2,0.1,0.2,0.1C289.2,84.8,289.1,84.8,289,84.7
	 M288.6,84.6c0.1,0,0.2,0.1,0.3,0.1C288.8,84.7,288.7,84.6,288.6,84.6 M288.2,84.5c0.1,0,0.2,0.1,0.4,0.1
	C288.4,84.5,288.3,84.5,288.2,84.5 M287.9,84.3c0.1,0,0.2,0.1,0.2,0.1C288,84.4,287.9,84.4,287.9,84.3 M287.5,84.2
	c0.1,0,0.2,0.1,0.2,0.1C287.6,84.3,287.6,84.2,287.5,84.2 M287,84.1c0.1,0,0.2,0.1,0.3,0.1C287.2,84.1,287.1,84.1,287,84.1
	 M286.6,84c0.1,0,0.2,0.1,0.4,0.1C286.9,84,286.8,84,286.6,84 M286.3,83.8c0.1,0,0.2,0,0.2,0.1C286.4,83.9,286.3,83.9,286.3,83.8
	 M285.9,83.7c0.1,0,0.2,0.1,0.3,0.1C286.1,83.8,286,83.8,285.9,83.7 M285.4,83.6c0.1,0,0.2,0.1,0.4,0.1
	C285.7,83.7,285.5,83.6,285.4,83.6 M285,83.5c0.1,0,0.2,0.1,0.3,0.1C285.3,83.5,285.2,83.5,285,83.5 M284.7,83.4
	c0.1,0,0.2,0.1,0.3,0.1C284.9,83.4,284.8,83.4,284.7,83.4 M284.3,83.3c0.1,0,0.2,0.1,0.3,0.1C284.5,83.3,284.4,83.3,284.3,83.3
	 M283.8,83.1c0.1,0,0.3,0.1,0.4,0.1C284.1,83.2,283.9,83.2,283.8,83.1 M283.5,83c0.1,0,0.2,0.1,0.3,0.1
	C283.7,83.1,283.6,83.1,283.5,83 M283.1,82.9c0.1,0,0.2,0,0.3,0.1C283.3,83,283.2,82.9,283.1,82.9 M282.7,82.8
	c0.1,0,0.2,0.1,0.3,0.1C282.9,82.9,282.8,82.8,282.7,82.8 M282.2,82.7c0.1,0,0.2,0.1,0.4,0.1C282.5,82.8,282.3,82.7,282.2,82.7
	 M281.8,82.6c0.1,0,0.2,0.1,0.3,0.1C282,82.6,281.9,82.6,281.8,82.6 M281.5,82.5c0.1,0,0.2,0,0.3,0.1
	C281.6,82.5,281.6,82.5,281.5,82.5 M281,82.4c0.1,0,0.2,0.1,0.3,0.1C281.2,82.4,281.1,82.4,281,82.4 M280.6,82.3
	c0.1,0,0.3,0.1,0.4,0.1C280.9,82.4,280.7,82.3,280.6,82.3 M280.2,82.2c0.1,0,0.2,0,0.3,0.1C280.4,82.2,280.3,82.2,280.2,82.2
	 M279.8,82.1c0.1,0,0.2,0,0.3,0.1C280,82.2,279.9,82.1,279.8,82.1 M279.4,82c0.1,0,0.2,0.1,0.3,0.1C279.6,82.1,279.5,82,279.4,82
	 M279,81.9c0.1,0,0.3,0.1,0.4,0.1C279.2,82,279.1,81.9,279,81.9 M278.6,81.8c0.1,0,0.2,0,0.3,0.1C278.8,81.9,278.7,81.8,278.6,81.8
	 M278.2,81.7c0.1,0,0.2,0,0.3,0.1C278.4,81.8,278.3,81.8,278.2,81.7 M265.7,80.6c-4.8,0-9.6,0.4-13.9,0.8c-4.3,0.4-8.2,0.8-11.2,0.8
	c-0.3,0-0.6,0-0.8,0l0,0c0.3,0,0.5,0,0.8,0c3,0,6.9-0.4,11.2-0.8C256.1,80.9,260.9,80.6,265.7,80.6c4.1,0,8.2,0.3,12,1.1
	c0.1,0,0.3,0.1,0.4,0.1c-0.1,0-0.3-0.1-0.4-0.1C273.9,80.8,269.8,80.6,265.7,80.6 M199.1,65.2c0.2,0,0.5,0.1,0.7,0.1
	c12.5,2.6,26.5,13,35.1,15.9l0,0c-8.6-3-22.6-13.3-35.1-15.9C199.6,65.3,199.3,65.2,199.1,65.2 M197.9,64.9c0.1,0,0.2,0,0.4,0.1
	C198.1,65,198,65,197.9,64.9"/>
<path fill="#BD55A3" d="M180.1,63.3c-49.1,0-97.2,37.2-125,94.3c28.6-50.9,74.3-83.4,121.1-83.4c6.8,0,13.7,0.7,20.5,2.1
	c13.9,2.9,29.5,14.9,38,16.7c1,0.2,2.3,0.3,3.7,0.3c3,0,6.9-0.4,11.2-0.7c4.3-0.4,9.1-0.7,13.9-0.7c4.3,0,8.6,0.3,12.6,1.1
	c53.6,11.2,90.5,64.7,97.1,131.3c-2.5-62.8-31.1-115.7-75.3-135.9c0,0,0,0,0,0c-0.4-0.2-0.8-0.3-1.1-0.5c0,0,0,0-0.1,0
	c-0.1,0-0.2-0.1-0.2-0.1c0,0-0.1,0-0.1,0c-0.1,0-0.2-0.1-0.2-0.1c0,0,0,0,0,0c-0.2-0.1-0.3-0.2-0.5-0.2c0,0,0,0,0,0
	c-0.1,0-0.1-0.1-0.2-0.1c0,0-0.1,0-0.1,0c-0.1,0-0.1-0.1-0.2-0.1c0,0-0.1,0-0.1-0.1c-0.1,0-0.1-0.1-0.2-0.1c0,0-0.1,0-0.1-0.1
	c-0.1-0.1-0.2-0.1-0.4-0.1c-0.1,0-0.1,0-0.1-0.1c-0.1,0-0.1,0-0.2-0.1c-0.1,0-0.1,0-0.2-0.1c-0.1,0-0.1,0-0.2-0.1
	c-0.1,0-0.1,0-0.2-0.1c-0.1,0-0.1,0-0.2-0.1c-0.1,0-0.1,0-0.2-0.1c-0.1,0-0.2-0.1-0.3-0.1c-0.1,0-0.1,0-0.2-0.1
	c-0.1,0-0.1,0-0.2-0.1c-0.1,0-0.1,0-0.2-0.1c-0.1,0-0.1,0-0.2-0.1c-0.1,0-0.1,0-0.2-0.1c-0.1,0-0.1,0-0.2-0.1
	c-0.1,0-0.2-0.1-0.3-0.1c0,0-0.1,0-0.1,0c-0.1,0-0.1-0.1-0.2-0.1c0,0-0.1,0-0.2-0.1c-0.1,0-0.1,0-0.2-0.1c0,0-0.1,0-0.1-0.1
	c-0.1,0-0.2-0.1-0.2-0.1c0,0-0.1,0-0.1,0c-0.1,0-0.2-0.1-0.3-0.1c0,0-0.1,0-0.1,0c-0.1,0-0.2-0.1-0.2-0.1c0,0-0.1,0-0.1,0
	c-0.1,0-0.2-0.1-0.2-0.1c0,0-0.1,0-0.1,0c-0.1,0-0.2-0.1-0.3-0.1c0,0,0,0-0.1,0c-0.1,0-0.2-0.1-0.4-0.1c0,0-0.1,0-0.1,0
	c-0.1,0-0.2-0.1-0.2-0.1c0,0-0.1,0-0.1,0c-0.1,0-0.2-0.1-0.2-0.1c0,0-0.1,0-0.1,0c-0.1,0-0.2-0.1-0.3-0.1c0,0,0,0,0,0
	c-0.1,0-0.2-0.1-0.4-0.1c0,0-0.1,0-0.1,0c-0.1,0-0.2,0-0.2-0.1c0,0-0.1,0-0.1,0c-0.1,0-0.2-0.1-0.3-0.1c0,0-0.1,0-0.1,0
	c-0.1,0-0.2-0.1-0.4-0.1c0,0,0,0,0,0c-0.1,0-0.2-0.1-0.3-0.1c0,0-0.1,0-0.1,0c-0.1,0-0.2-0.1-0.3-0.1c0,0-0.1,0-0.1,0
	c-0.1,0-0.2-0.1-0.3-0.1c0,0-0.1,0-0.1,0c-0.1,0-0.2-0.1-0.4-0.1c0,0,0,0-0.1,0c-0.1,0-0.2-0.1-0.3-0.1c0,0-0.1,0-0.1,0
	c-0.1,0-0.2,0-0.3-0.1c0,0-0.1,0-0.1,0c-0.1,0-0.2-0.1-0.3-0.1c0,0-0.1,0-0.1,0c-0.1,0-0.2-0.1-0.4-0.1c0,0,0,0-0.1,0
	c-0.1,0-0.2-0.1-0.3-0.1c0,0-0.1,0-0.1,0c-0.1,0-0.2,0-0.3-0.1c0,0-0.1,0-0.1,0c-0.1,0-0.2-0.1-0.3-0.1c0,0,0,0,0,0
	c-0.1,0-0.3-0.1-0.4-0.1c0,0-0.1,0-0.1,0c-0.1,0-0.2,0-0.3-0.1c0,0-0.1,0-0.1,0c-0.1,0-0.2,0-0.3-0.1c0,0-0.1,0-0.1,0
	c-0.1,0-0.2-0.1-0.3-0.1c0,0,0,0,0,0c-0.1,0-0.3-0.1-0.4-0.1c0,0-0.1,0-0.1,0c-0.1,0-0.2,0-0.3-0.1c0,0-0.1,0-0.1,0
	c-0.1,0-0.2,0-0.3-0.1c0,0-0.1,0-0.1,0c-0.1,0-0.3-0.1-0.4-0.1c-3.8-0.8-7.9-1.1-12-1.1c-4.8,0-9.6,0.4-13.9,0.8
	c-4.3,0.4-8.2,0.8-11.2,0.8c-0.3,0-0.6,0-0.8,0c-1,0-1.9-0.1-2.7-0.3c-0.7-0.1-1.4-0.3-2.1-0.6c-8.6-3-22.6-13.3-35.1-15.9
	c-0.2,0-0.5-0.1-0.7-0.1c-0.3-0.1-0.6-0.1-0.9-0.2c-0.1,0-0.2,0-0.4-0.1C191.9,63.8,186,63.3,180.1,63.3"/>
<path fill="#E3B6D6" d="M100.8,404.5L100.8,404.5c8.1,4.4,16.8,7.6,26,9.5C117.6,412.1,108.9,408.9,100.8,404.5 M34.7,220.9
	C21.3,297.1,45.6,368,92.1,399.3v0C54.2,373.8,31,321.9,31,262.3C31,248.8,32.2,235,34.7,220.9"/>
<path fill="#112537" d="M92.1,399.3L92.1,399.3c2.8,1.9,5.7,3.6,8.6,5.2l0,0C97.8,402.9,94.9,401.2,92.1,399.3"/>
<path fill="#E3B6D6" d="M368.5,281.8c0,0.1,0,0.2,0,0.2C368.4,281.9,368.4,281.9,368.5,281.8 M368.6,281.2c0,0.1,0,0.1,0,0.2
	C368.6,281.3,368.6,281.3,368.6,281.2 M368.7,280.7C368.7,280.7,368.7,280.7,368.7,280.7C368.7,280.7,368.7,280.7,368.7,280.7"/>
<path fill="#112537" d="M36.4,212c0,0.2-0.1,0.3-0.1,0.5C36.4,212.4,36.4,212.2,36.4,212 M36.5,211.5c0,0.2-0.1,0.3-0.1,0.5
	C36.5,211.9,36.5,211.7,36.5,211.5 M36.6,211c0,0.2-0.1,0.3-0.1,0.5C36.6,211.3,36.6,211.2,36.6,211 M36.7,210.5
	c0,0.2-0.1,0.3-0.1,0.5C36.7,210.8,36.7,210.7,36.7,210.5 M36.9,210c0,0.1-0.1,0.3-0.1,0.4C36.8,210.3,36.8,210.2,36.9,210
	 M37,209.5c0,0.1,0,0.2-0.1,0.3C36.9,209.7,37,209.6,37,209.5"/>
<path fill="#982773" d="M216.7,432.1c0.1,0,0.1,0,0.2,0C216.9,432.1,216.8,432.1,216.7,432.1 M216.1,432
	C216.1,432,216.1,432,216.1,432C216.1,432,216.1,432,216.1,432 M215.8,432L215.8,432L215.8,432 M215.2,431.9c0.2,0,0.3,0,0.5,0
	C215.5,432,215.3,431.9,215.2,431.9 M214.9,431.9c0.1,0,0.1,0,0.2,0C215,431.9,214.9,431.9,214.9,431.9 M214.6,431.9
	c0.1,0,0.1,0,0.2,0C214.7,431.9,214.6,431.9,214.6,431.9 M214.3,431.8c0.1,0,0.1,0,0.2,0C214.4,431.8,214.3,431.8,214.3,431.8
	 M213.2,431.7c0.3,0,0.7,0.1,1,0.1C213.9,431.8,213.6,431.8,213.2,431.7 M210.9,431.4C210.9,431.4,210.9,431.4,210.9,431.4
	C210.9,431.4,210.9,431.4,210.9,431.4 M209.4,431.2c0.5,0.1,0.9,0.1,1.4,0.2C210.4,431.3,209.9,431.3,209.4,431.2 M208.7,431.1
	C208.7,431.1,208.7,431.1,208.7,431.1C208.7,431.1,208.7,431.1,208.7,431.1 M208.3,431c0.1,0,0.2,0,0.4,0.1
	C208.6,431.1,208.5,431,208.3,431 M40.8,194.7c-1.4,4.9-2.7,9.8-3.8,14.8c0,0.1,0,0.2-0.1,0.3c0,0.1,0,0.1,0,0.2
	c0,0.1-0.1,0.3-0.1,0.4c0,0,0,0.1,0,0.1c0,0.2-0.1,0.3-0.1,0.5c0,0,0,0,0,0c0,0.2-0.1,0.3-0.1,0.5c0,0,0,0,0,0
	c0,0.2-0.1,0.3-0.1,0.5c0,0,0,0,0,0c0,0.2-0.1,0.3-0.1,0.5c0,0.2-0.1,0.3-0.1,0.5l0,0c0.6-2.8,1.2-5.5,1.9-8.3
	c-16,92.9,24.2,177.9,92.3,192.1c3.3,0.7,7,0.9,10.7,0.9c4.6,0,9.4-0.4,13.8-0.7c4.4-0.4,8.5-0.7,11.8-0.7c1.7,0,3.2,0.1,4.4,0.4
	c7.8,1.6,23.6,13.7,37.2,16.5c6.6,1.4,13.2,2,19.8,2c61.5,0,121.2-58.2,141.8-140.7l0,0l0,0c-0.5,2.7-0.9,5.4-1.5,8.1
	c-18.3,87.3-80.2,149.8-143.8,149.8c-2.5,0-4.9-0.1-7.4-0.3c2.5,0.2,4.9,0.3,7.4,0.3c63.7,0,125.6-62.5,143.8-149.8
	c0-0.2,0.1-0.4,0.1-0.6c0-0.1,0-0.2,0-0.2c0-0.1,0.1-0.3,0.1-0.4c0-0.1,0-0.1,0-0.2c0-0.2,0.1-0.3,0.1-0.5c0,0,0,0,0,0
	c1.2-6.2,2.2-12.3,3-18.4c-23.6,77-93.3,129.2-154.7,129.2c-7.1,0-14-0.7-20.7-2.1c-13.3-2.8-25.5-14.7-33.3-16.7
	c-0.1,1.3-0.1,2.5-0.2,3.7c-0.5,8.1-1.1,12.8-1.8,12.8l0,0c-0.7-0.1-1.3-4.8-1.9-12.8c-0.1-1.3-0.2-2.7-0.3-4.1c-0.1,0-0.1,0-0.2,0
	c-3.1,0-7,0.4-11.1,0.9c-4.2,0.4-8.6,0.9-13.1,0.9c-3.3,0-6.6-0.2-9.7-0.9C59.5,359.3,28.7,282.6,40.8,194.7"/>
<path fill="#871C61" d="M38.1,204.8c-0.7,2.7-1.3,5.5-1.9,8.3l0,0c-3.5,16.7-5.2,33.3-5.2,49.3c0,76,37.8,139.5,95.7,151.7
	c3.3,0.7,7,0.9,10.7,0.9c4.6,0,9.4-0.4,13.8-0.7c4.4-0.4,8.5-0.7,11.8-0.7c1.7,0,3.2,0.1,4.4,0.4c7.8,1.6,23.6,13.7,37.2,16.5
	c1.2,0.3,2.4,0.5,3.6,0.7c0.1,0,0.2,0,0.4,0.1c0,0,0,0,0,0c0,0,0,0,0,0c0.2,0,0.5,0.1,0.7,0.1c0.5,0.1,0.9,0.1,1.4,0.2c0,0,0,0,0,0
	c0,0,0,0,0.1,0c0.8,0.1,1.5,0.2,2.3,0.3c0.3,0,0.7,0.1,1,0.1c0,0,0,0,0,0c0.1,0,0.1,0,0.2,0c0,0,0.1,0,0.1,0c0.1,0,0.1,0,0.2,0
	c0,0,0.1,0,0.1,0c0.1,0,0.1,0,0.2,0c0,0,0.1,0,0.1,0c0.2,0,0.3,0,0.5,0c0,0,0.1,0,0.1,0l0,0c0.1,0,0.2,0,0.3,0c0,0,0,0,0,0
	c0.2,0,0.4,0,0.6,0c0.1,0,0.1,0,0.2,0c0,0,0.1,0,0.1,0c2.5,0.2,4.9,0.3,7.4,0.3c63.7,0,125.6-62.5,143.8-149.8
	c0.6-2.7,1-5.4,1.5-8.1c-20.5,82.5-80.3,140.7-141.8,140.7c-6.6,0-13.2-0.7-19.8-2c-13.6-2.8-29.4-14.9-37.2-16.5
	c-1.2-0.3-2.7-0.4-4.4-0.4c-3.3,0-7.4,0.4-11.8,0.7c-4.4,0.4-9.2,0.7-13.8,0.7c-3.7,0-7.4-0.2-10.7-0.9
	C62.3,382.7,22.1,297.7,38.1,204.8"/>
<path fill="#982773" d="M221.3,100.4c-0.8,0-3.6,3.8-7.5,10.6c-4,7.2-9.3,17.6-14.7,30.6c-11,25.9-22.3,61.8-29.7,98.5l-0.7,3.4
	L168,247c-0.4,2.3-0.8,4.6-1.2,6.9c-0.8,4.6-1.6,9.2-2.4,13.7c-1.3,9.1-2.3,18.1-3.4,26.9c-0.3,2.2-0.4,4.4-0.6,6.5
	c-0.2,2.2-0.3,4.3-0.5,6.4c-0.3,4.2-0.6,8.3-0.9,12.3c-0.1,2-0.3,4-0.4,5.9c-0.1,2-0.1,3.9-0.2,5.8c-0.1,3.8-0.2,7.4-0.2,10.9
	c-0.1,3.5-0.1,6.9-0.2,10.1c0,1.6,0,3.2,0,4.7c0.1,1.5,0.1,3,0.2,4.4c0.2,3.9,0.3,7.4,0.5,10.6c1.4,0,2.7,0.1,3.7,0.3
	c0.2,0,0.3,0.1,0.5,0.1c0.2-3.3,0.3-6.9,0.5-11c0-1.4,0.1-2.9,0.1-4.4c0.1-1.5,0.2-3,0.3-4.6c0.2-3.2,0.5-6.5,0.7-10
	c0.2-3.5,0.5-7.1,0.7-10.8c0.1-1.9,0.2-3.8,0.4-5.7c0.2-1.9,0.4-3.9,0.6-5.9c0.4-4,0.8-8,1.3-12.2c0.2-2.1,0.4-4.2,0.6-6.3
	c0.2-2.1,0.4-4.3,0.7-6.4c1.3-8.6,2.4-17.5,3.8-26.5c0.8-4.5,1.6-9,2.4-13.5c0.4-2.3,0.8-4.5,1.2-6.8l0.6-3.4l0.7-3.4
	c7.3-36.3,17.8-71.8,27.3-97.9c4.7-13.1,9.1-23.8,12.1-31.3C220.3,105.1,222,100.8,221.3,100.4L221.3,100.4
	C221.3,100.4,221.3,100.4,221.3,100.4"/>
<path fill="#871C61" d="M158.7,372.1c0.1,1.5,0.2,2.8,0.3,4.1c0.6,8,1.2,12.6,1.9,12.8l0,0c0.7,0,1.3-4.7,1.8-12.8
	c0.1-1.2,0.1-2.4,0.2-3.7c-0.2,0-0.3-0.1-0.5-0.1C161.4,372.2,160.1,372.1,158.7,372.1"/>
<path fill="#CF73BB" d="M158.1,84.2c-7.1,0-15.2,2.2-23,6.8c-16.3,9.5-24.6,25.6-18.6,35.9c3.2,5.4,9.7,8.1,17.5,8.1
	c7.1,0,15.2-2.2,23-6.8c16.3-9.5,24.6-25.6,18.6-35.9C172.5,86.9,166,84.2,158.1,84.2"/>
<path fill="#FFFFFF" d="M55.1,231.4c-2.9,19.9,10.8,38.3,30.7,41.3c19.9,2.9,38.4-10.8,41.3-30.6c2.9-19.9-10.8-38.3-30.7-41.3
	C76.5,197.9,58,211.6,55.1,231.4z"/>
<path fill="#133441" d="M118,241.3c2-13.7-7.4-26.4-21.1-28.4c-13.7-2-26.4,7.4-28.4,21.1c-2,13.7,7.5,26.4,21.1,28.4
	C103.3,264.4,116,255,118,241.3z M90.7,234.5c-4.6,3.6-10.8,3.4-13.8-0.5c-3-3.8-1.6-9.9,3-13.5c4.6-3.6,10.8-3.4,13.8,0.5
	C96.7,224.9,95.3,231,90.7,234.5z M106.5,254.5c-2.7,2.1-6.3,2-8-0.3c-1.7-2.2-1-5.7,1.7-7.8c2.7-2.1,6.3-2,8,0.3
	C110,249,109.2,252.5,106.5,254.5z"/>
<path fill="#FFFFFF" d="M208.8,261c-2.9,19.9,10.8,38.3,30.7,41.3c19.9,2.9,38.4-10.8,41.3-30.6c2.9-19.9-10.8-38.3-30.7-41.3
	C230.2,227.4,211.7,241.1,208.8,261z"/>
<path fill="#133441" d="M269.5,269.9c2-13.7-7.4-26.4-21.1-28.4c-13.7-2-26.4,7.4-28.4,21.1c-2,13.7,7.5,26.4,21.1,28.4
	C254.8,293,267.5,283.6,269.5,269.9z M242.8,261.8c-5.1,3-11.2,2-13.6-2.2c-2.5-4.2-0.4-10,4.7-13c5.1-3,11.2-2,13.6,2.2
	C250,253,247.9,258.8,242.8,261.8z M259.8,282.6c-2.7,2.1-6.3,2-8-0.3c-1.7-2.2-1-5.7,1.7-7.8c2.7-2.1,6.3-2,8,0.3
	C263.3,277,262.5,280.5,259.8,282.6z"/>
<path fill="#133441" d="M231.1,200.3c-0.4,6.4,11,9.4,23.6,10c11.3,0.5,22.3,2,24.3-6.3C283.2,186.8,232.4,180.9,231.1,200.3z"/>
<path fill="#133441" d="M82.4,166.2c-1.2,8.5,9.6,11.1,20.2,14.9c11.9,4.2,23.7,5.6,25.6-0.5C134.2,162.1,84.8,148.7,82.4,166.2z"/>
<ellipse transform="matrix(0.982 0.1886 -0.1886 0.982 64.2113 -43.1882)" fill="#EE927E" cx="259" cy="315.8" rx="15.8" ry="8.4"/>
<ellipse transform="matrix(0.9821 0.1886 -0.1886 0.9821 53.2351 -5.6826)" fill="#EE927E" cx="56.5" cy="276.9" rx="15.8" ry="8.4"/>
<path fill="#AB1700" d="M188.5,277.7c5.2,9.5-4.3,23.5-26.7,19.2c-22.3-4.3-24.6-21.9-17.6-27.8c4-3.4,11.2,0.1,22.5,2.2
	C178,273.7,185.9,273,188.5,277.7z"/>
<path fill="#FFFFFF" d="M185,278.6c-0.4,1.9-8.9,1.8-19-0.1c-10.1-1.9-18-5-17.7-6.9c0.4-1.9,8.5,0.2,18.6,2.1
	C177,275.6,185.3,276.8,185,278.6z"/>
<path fill="#FD6C6C" d="M147.8,287.9c3,2.8,7.8,5.3,14.5,6.6c7.6,1.5,13.4,0.8,17.5-1C169.3,278.5,155.8,283,147.8,287.9z"/>
</svg>
