<?xml version="1.0" encoding="utf-8"?>
<!-- Generator: Adobe Illustrator 17.1.0, SVG Export Plug-In . SVG Version: 6.00 Build 0)  -->
<!DOCTYPE svg PUBLIC "-//W3C//DTD SVG 1.1//EN" "http://www.w3.org/Graphics/SVG/1.1/DTD/svg11.dtd">
<svg version="1.1" id="Layer_1" xmlns="http://www.w3.org/2000/svg" xmlns:xlink="http://www.w3.org/1999/xlink" x="0px" y="0px"
	 width="450.6px" height="521.6px" viewBox="0 0 450.6 521.6" enable-background="new 0 0 450.6 521.6" xml:space="preserve">
<path fill="#DBDACB" d="M212.5,470.9c-24.2,0-47.1,0.8-67.8,2.2c-3.8,12.6-5.6,13.7-6.8,14.3c-3.9,2.3-11.6,3.8-13.1,4.1
	c-0.3,0.1-0.6,0.1-0.9,0.1c-2.4,0-4.5-1.7-4.9-4.1c-0.5-2.7,1.3-5.3,4-5.8c2.7-0.5,6.9-1.5,9.1-2.5c0.5-1,1.2-2.9,1.9-5.3
	c-52.5,4.3-88.3,12.7-88.3,22.4c0,14,74.7,25.3,166.8,25.3s166.8-11.3,166.8-25.3c0-11.9-54-21.9-126.8-24.6l-1.1,8.6
	c1.3,0.4,3.1,0.9,5.4,1c2.8,0.2,4.8,2.6,4.7,5.3c-0.2,2.6-2.4,4.7-5,4.7c-0.1,0-0.2,0-0.3,0c-8.5-0.6-12.8-3.8-13.3-4.2
	c-1.4-1.1-2.1-2.8-1.9-4.6l1.4-11.2C232.7,471.1,222.7,470.9,212.5,470.9"/>
<path fill="#133441" d="M397.3,353.7c-11.3,0-30.2-6-44.6-40.7c-1.1-2.6,0.2-5.5,2.7-6.5c2.5-1.1,5.5,0.2,6.5,2.7
	c10.2,24.5,24.5,37,39.3,34.2c14.7-2.8,27-19.6,27.4-37.6c0.1-2.7,2.3-4.9,5-4.9l0.1,0c2.8,0.1,5,2.3,4.9,5.1
	c-0.5,22.8-16.1,43.5-35.5,47.2C401.5,353.4,399.6,353.7,397.3,353.7"/>
<path fill="#133441" d="M434.7,314.7c-1.2,0-2.4-0.2-3.6-0.5c-2.8-0.9-9.3-4.3-8.6-16.3c0.5-9.6-0.7-13.4-0.8-13.8
	c-1.5-3.1-0.3-6.9,2.7-8.6c3.2-1.7,7.1-0.6,8.9,2.6c0.5,1,2,4.2,2.3,11.5c2.3-0.3,4.4-0.3,6.2,0c4,0.6,6.1,2.7,7.2,4.2
	c2.4,3.5,2.2,8.1-0.7,12.6c-1.8,2.8-4.3,5.2-7.1,6.6C439.1,314.2,436.8,314.7,434.7,314.7z M421.8,284.4L421.8,284.4L421.8,284.4z
	 M421.8,284.4L421.8,284.4L421.8,284.4z M421.6,284.1L421.6,284.1z"/>
<path fill="#133441" d="M42.5,367.3c-17.8,0-35.5-12.6-40.9-30.6c-2.8-9.3-7.8-41.5,46.4-62.5c2.6-1,5.5,0.3,6.5,2.9
	c1,2.6-0.3,5.5-2.9,6.5c-31.1,12.1-46.2,30.9-40.4,50.3c4.7,15.7,21.7,26.2,37,22.8c2.7-0.6,5.4,1.1,6,3.8c0.6,2.7-1.1,5.4-3.8,6
	C47.7,367.1,45.1,367.3,42.5,367.3"/>
<path fill="#133441" d="M58.5,375.9c-1.5,0.3-3,0.3-4.5,0.1c-6.7-0.9-11.2-6.3-12.1-14.2c-1.2-10.3,4.1-14.7,9-15.3
	c2.9-0.4,5.9,0.5,8.4,2.2c4.4,0.3,8.1,1.9,10.7,4.8c3,3.4,3.8,7.9,2.2,11.8C69.8,370.7,64.3,374.9,58.5,375.9"/>
<path fill="#133441" d="M256.5,491.3c-0.1,0-0.2,0-0.3,0c-8.5-0.6-12.8-3.8-13.3-4.2c-1.4-1.1-2.1-2.8-1.9-4.6l7.6-58.9
	c0.4-2.7,2.8-4.7,5.6-4.3c2.7,0.4,4.7,2.9,4.3,5.6l-7.2,55.4c1.3,0.4,3.1,0.9,5.4,1c2.8,0.2,4.8,2.6,4.7,5.3
	C261.3,489.2,259.1,491.3,256.5,491.3"/>
<path fill="#133441" d="M123.9,491.6c-2.4,0-4.5-1.7-4.9-4.1c-0.5-2.7,1.3-5.3,4-5.8c2.7-0.5,6.9-1.5,9.1-2.5
	c2.6-5.4,9.3-32.1,14.6-56c0.6-2.7,3.3-4.4,6-3.8c2.7,0.6,4.4,3.3,3.8,6c-12.8,58.8-16.5,61-18.5,62.2c-3.9,2.3-11.6,3.8-13.1,4.1
	C124.5,491.6,124.2,491.6,123.9,491.6"/>
<path fill="#8BC34A" d="M266,19.3c-28.1,9.5-33.1,34-33.7,38.4c-3.2,2.2-11.1,7.9-13.2,13.1l-0.4,4.6c0,0,8-12.5,14.4-16.3
	c27.3,22.1,83.7-1.9,97.2-38.6c-3.7,1.4-10.1-0.4-18.6-2.2C299.7,15.7,283.9,13.2,266,19.3"/>
<path fill="#5F9E28" d="M330.1,20.5c0,0-25.7,17.2-49.2,25.5c-23.5,8.3-48.7,11.7-48.7,11.7l0,0c-2.4,1.6-7.3,5.2-10.6,9
	c-0.5,2.1-0.9,4.2-1.3,6.2c2.7-3.8,8.1-11,12.6-13.8c7.2,5.9,16.5,8.5,26.5,8.5C287.2,67.5,320.2,47.4,330.1,20.5"/>
<path fill="#8BC34A" d="M212.9,93.5c-2.5-32.7,5.1-67,21.6-88.6c6.6-8.6,17.8-3.8,17.8-0.4c0,3.4-6.6,5-11,11.5
	c-19.1,27.6-24.6,79.3-24.6,79.3S214.4,112.6,212.9,93.5"/>
<path fill="#5F9E28" d="M244,1.5c-3,0-5.3,0.9-5.4,2c-0.1,1.2,2.6,2.4,5.8,2.5c0.2,0,0.5,0,0.7,0c3,0,5.3-0.9,5.4-2
	c0.1-1.2-2.6-2.4-5.8-2.5C244.5,1.5,244.3,1.5,244,1.5"/>
<path fill="#AB3689" d="M254.6,80.9c-15.3,0-32.7,8.5-39.8,8.5c-8.5,0-25.9-8.5-39.8-8.5c-71.7,0-129.8,79.8-129.8,178.1
	S103.3,437.2,175,437.2c13.9,0,31.9-8.5,39.8-8.5c7.9,0,25.9,8.5,39.8,8.5c71.7,0,129.8-79.8,129.8-178.1S326.3,80.9,254.6,80.9"/>
<path fill="#BFBFC2" d="M271.3,82.4C271.3,82.4,271.3,82.4,271.3,82.4C271.3,82.4,271.3,82.4,271.3,82.4 M158.3,82.4
	C158.3,82.4,158.3,82.4,158.3,82.4C158.3,82.4,158.3,82.4,158.3,82.4 M271,82.3L271,82.3L271,82.3 M158.6,82.3
	C158.6,82.3,158.6,82.3,158.6,82.3C158.6,82.3,158.6,82.3,158.6,82.3 M269.7,82.1C269.7,82.1,269.7,82.1,269.7,82.1
	C269.7,82.1,269.7,82.1,269.7,82.1 M159.9,82.1C159.9,82.1,159.9,82.1,159.9,82.1C159.9,82.1,159.9,82.1,159.9,82.1 M269.3,82.1
	C269.4,82.1,269.4,82.1,269.3,82.1C269.4,82.1,269.4,82.1,269.3,82.1 M160.3,82.1C160.2,82.1,160.2,82.1,160.3,82.1
	C160.2,82.1,160.2,82.1,160.3,82.1 M268.4,81.9C268.4,81.9,268.4,81.9,268.4,81.9C268.4,81.9,268.4,81.9,268.4,81.9 M161.2,81.9
	C161.2,81.9,161.2,81.9,161.2,81.9C161.2,81.9,161.2,81.9,161.2,81.9 M268,81.9c0,0,0.1,0,0.1,0C268.1,81.9,268.1,81.9,268,81.9
	 M161.6,81.9c0,0-0.1,0-0.1,0C161.5,81.9,161.5,81.9,161.6,81.9 M267.7,81.8c0,0,0.1,0,0.1,0C267.7,81.8,267.7,81.8,267.7,81.8
	 M161.9,81.8c0,0-0.1,0-0.1,0C161.8,81.8,161.9,81.8,161.9,81.8 M266.7,81.7c0,0,0.1,0,0.1,0C266.8,81.7,266.8,81.7,266.7,81.7
	 M162.8,81.7c0,0-0.1,0-0.1,0C162.8,81.7,162.8,81.7,162.8,81.7 M266.4,81.7c0,0,0.1,0,0.1,0C266.5,81.7,266.4,81.7,266.4,81.7
	 M163.2,81.7c0,0-0.1,0-0.1,0C163.1,81.7,163.2,81.7,163.2,81.7 M266,81.6c0,0,0.1,0,0.1,0C266.1,81.6,266.1,81.6,266,81.6
	 M163.6,81.6c-0.1,0-0.1,0-0.2,0C163.5,81.6,163.5,81.6,163.6,81.6 M265.5,81.6C265.5,81.6,265.5,81.6,265.5,81.6
	C265.5,81.6,265.5,81.6,265.5,81.6 M164.1,81.6C164.1,81.6,164.1,81.6,164.1,81.6C164.1,81.6,164.1,81.6,164.1,81.6 M164.5,81.5
	c0,0-0.1,0-0.1,0C164.4,81.5,164.4,81.5,164.5,81.5 M265.1,81.5c0,0,0.1,0,0.1,0C265.2,81.5,265.1,81.5,265.1,81.5 M264.7,81.5
	c0.1,0,0.1,0,0.2,0C264.8,81.5,264.8,81.5,264.7,81.5 M164.9,81.5c-0.1,0-0.1,0-0.2,0C164.8,81.5,164.8,81.5,164.9,81.5 M264.3,81.4
	c0.1,0,0.1,0,0.2,0C264.5,81.4,264.4,81.4,264.3,81.4 M165.3,81.4c-0.1,0-0.1,0-0.2,0C165.1,81.4,165.2,81.4,165.3,81.4 M165.8,81.4
	c-0.1,0-0.1,0-0.2,0C165.6,81.4,165.7,81.4,165.8,81.4 M263.8,81.4c0.1,0,0.1,0,0.2,0C263.9,81.4,263.9,81.4,263.8,81.4 M166.1,81.3
	c-0.1,0-0.1,0-0.2,0C166,81.4,166.1,81.4,166.1,81.3 M263.4,81.3c0.1,0,0.1,0,0.2,0C263.6,81.4,263.5,81.4,263.4,81.3 M263,81.3
	c0.1,0,0.1,0,0.2,0C263.2,81.3,263.1,81.3,263,81.3 M166.5,81.3c-0.1,0-0.1,0-0.2,0C166.4,81.3,166.5,81.3,166.5,81.3 M167,81.3
	c-0.1,0-0.2,0-0.3,0C166.8,81.3,166.9,81.3,167,81.3 M262.6,81.3c0.1,0,0.2,0,0.3,0C262.8,81.3,262.7,81.3,262.6,81.3 M262.2,81.2
	c0.1,0,0.2,0,0.3,0C262.3,81.2,262.2,81.2,262.2,81.2 M167.4,81.2c-0.1,0-0.2,0-0.3,0C167.3,81.2,167.3,81.2,167.4,81.2 M261.8,81.2
	c0.1,0,0.2,0,0.2,0C261.9,81.2,261.8,81.2,261.8,81.2 M167.8,81.2c-0.1,0-0.2,0-0.2,0C167.7,81.2,167.7,81.2,167.8,81.2 M261.4,81.2
	c0.1,0,0.2,0,0.3,0C261.5,81.2,261.5,81.2,261.4,81.2 M168.2,81.2c-0.1,0-0.2,0-0.3,0C168,81.2,168.1,81.2,168.2,81.2 M260.9,81.1
	c0.1,0,0.2,0,0.4,0C261.1,81.2,261,81.2,260.9,81.1 M168.7,81.1c-0.1,0-0.2,0-0.4,0C168.5,81.2,168.6,81.2,168.7,81.1 M169.1,81.1
	c-0.1,0-0.2,0-0.3,0C168.9,81.1,169,81.1,169.1,81.1 M260.5,81.1c0.1,0,0.2,0,0.3,0C260.7,81.1,260.6,81.1,260.5,81.1 M169.5,81.1
	c-0.1,0-0.2,0-0.2,0C169.3,81.1,169.4,81.1,169.5,81.1 M260.1,81.1c0.1,0,0.2,0,0.2,0C260.3,81.1,260.2,81.1,260.1,81.1 M169.9,81.1
	c-0.1,0-0.2,0-0.3,0C169.7,81.1,169.8,81.1,169.9,81.1 M259.7,81.1c0.1,0,0.2,0,0.3,0C259.9,81.1,259.8,81.1,259.7,81.1 M170.4,81.1
	c-0.1,0-0.2,0-0.4,0C170.1,81.1,170.2,81.1,170.4,81.1 M259.2,81.1c0.1,0,0.2,0,0.4,0C259.5,81.1,259.3,81.1,259.2,81.1 M258.8,81
	c0.1,0,0.2,0,0.3,0C259,81,258.9,81,258.8,81 M170.7,81c-0.1,0-0.2,0-0.3,0C170.6,81,170.7,81,170.7,81 M171.1,81
	c-0.1,0-0.2,0-0.2,0C171,81,171.1,81,171.1,81 M258.5,81c0.1,0,0.2,0,0.2,0C258.6,81,258.5,81,258.5,81 M258,81c0.1,0,0.2,0,0.3,0
	C258.2,81,258.1,81,258,81 M171.6,81c-0.1,0-0.2,0-0.3,0C171.4,81,171.5,81,171.6,81 M172,81c-0.1,0-0.2,0-0.4,0
	C171.8,81,171.9,81,172,81 M257.6,81c0.1,0,0.2,0,0.4,0C257.8,81,257.7,81,257.6,81 M172.4,81c-0.1,0-0.2,0-0.3,0
	C172.2,81,172.3,81,172.4,81 M257.2,81c0.1,0,0.2,0,0.3,0C257.3,81,257.3,81,257.2,81 M172.8,81c-0.1,0-0.2,0-0.2,0
	C172.6,81,172.7,81,172.8,81 M256.8,81c0.1,0,0.2,0,0.2,0C256.9,81,256.9,81,256.8,81 M256.3,81c0.1,0,0.2,0,0.3,0
	C256.5,81,256.4,81,256.3,81 M173.3,81c-0.1,0-0.2,0-0.3,0C173.1,81,173.2,81,173.3,81 M173.7,80.9c-0.1,0-0.3,0-0.4,0
	C173.4,81,173.6,80.9,173.7,80.9 M255.9,80.9c0.1,0,0.3,0,0.4,0C256.1,81,256,80.9,255.9,80.9 M255.5,80.9c0.1,0,0.2,0,0.3,0
	C255.7,80.9,255.6,80.9,255.5,80.9 M174.1,80.9c-0.1,0-0.2,0-0.3,0C173.9,80.9,174,80.9,174.1,80.9 M174.5,80.9c-0.1,0-0.2,0-0.3,0
	C174.3,80.9,174.4,80.9,174.5,80.9 M255.1,80.9c0.1,0,0.2,0,0.3,0C255.3,80.9,255.2,80.9,255.1,80.9 M175,80.9c-0.1,0-0.3,0-0.4,0
	C174.7,80.9,174.9,80.9,175,80.9c12.8,0,28.6,7.2,37.6,8.4l0,0C203.6,88.2,187.8,80.9,175,80.9 M254.6,80.9
	c-13.6,0-28.9,6.8-37.1,8.3l0,0C225.7,87.7,241,80.9,254.6,80.9c0.1,0,0.3,0,0.4,0C254.8,80.9,254.7,80.9,254.6,80.9"/>
<path fill="#BD55A3" d="M254.6,80.9c-13.6,0-28.9,6.8-37.1,8.3c-1,0.2-1.9,0.3-2.7,0.3c-0.7,0-1.4-0.1-2.2-0.2
	c-9.1-1.1-24.8-8.4-37.6-8.4c-0.1,0-0.3,0-0.4,0c0,0-0.1,0-0.1,0c-0.1,0-0.2,0-0.3,0c0,0-0.1,0-0.1,0c-0.1,0-0.2,0-0.3,0
	c0,0-0.1,0-0.1,0c-0.1,0-0.3,0-0.4,0c0,0,0,0,0,0c-0.1,0-0.2,0-0.3,0c0,0-0.1,0-0.1,0c-0.1,0-0.2,0-0.2,0c-0.1,0-0.1,0-0.1,0
	c-0.1,0-0.2,0-0.3,0c0,0-0.1,0-0.1,0c-0.1,0-0.3,0-0.4,0c0,0-0.1,0-0.1,0c-0.1,0-0.2,0-0.3,0c0,0-0.1,0-0.1,0c-0.1,0-0.2,0-0.2,0
	c0,0-0.1,0-0.1,0c-0.1,0-0.2,0-0.3,0c0,0-0.1,0-0.1,0c-0.1,0-0.2,0-0.4,0c0,0-0.1,0-0.1,0c-0.1,0-0.2,0-0.3,0c-0.1,0-0.1,0-0.2,0
	c-0.1,0-0.2,0-0.2,0c0,0-0.1,0-0.1,0c-0.1,0-0.2,0-0.3,0c0,0-0.1,0-0.1,0c-0.1,0-0.2,0-0.4,0c0,0-0.1,0-0.1,0c-0.1,0-0.2,0-0.3,0
	c-0.1,0-0.1,0-0.2,0c-0.1,0-0.2,0-0.2,0c-0.1,0-0.1,0-0.2,0c-0.1,0-0.2,0-0.3,0c-0.1,0-0.1,0-0.2,0c-0.1,0-0.2,0-0.3,0
	c-0.1,0-0.1,0-0.2,0c-0.1,0-0.1,0-0.2,0c-0.1,0-0.1,0-0.2,0c-0.1,0-0.1,0-0.2,0c-0.1,0-0.1,0-0.2,0c-0.1,0-0.1,0-0.2,0
	c-0.1,0-0.2,0-0.3,0c-0.1,0-0.1,0-0.2,0c-0.1,0-0.1,0-0.2,0c-0.1,0-0.1,0-0.2,0c-0.1,0-0.1,0-0.2,0c0,0-0.1,0-0.1,0
	c-0.1,0-0.2,0-0.2,0c0,0-0.1,0-0.1,0c-0.1,0-0.3,0-0.4,0.1c0,0-0.1,0-0.2,0c-0.1,0-0.1,0-0.2,0c0,0-0.1,0-0.1,0c-0.1,0-0.1,0-0.2,0
	c0,0-0.1,0-0.1,0c-0.3,0-0.5,0.1-0.8,0.1c0,0-0.1,0-0.1,0c-0.1,0-0.2,0-0.2,0c0,0-0.1,0-0.1,0c-0.1,0-0.2,0-0.2,0c0,0-0.1,0-0.1,0
	c-0.3,0-0.6,0.1-0.9,0.1c0,0,0,0-0.1,0c-0.1,0-0.2,0-0.3,0c0,0,0,0-0.1,0c-0.4,0.1-0.8,0.1-1.3,0.2c0,0,0,0,0,0
	c-0.1,0-0.2,0-0.3,0.1c0,0,0,0,0,0c-49.5,8.7-90.2,55.6-106,118.4c20.1-63.8,67.2-108.6,122-108.6c14.2,0,31.9,8.5,40.6,8.5
	c7.2,0,25-8.5,40.6-8.5c54.8,0,101.8,44.8,121.9,108.6c-15.8-62.8-56.6-109.7-106-118.5c0,0,0,0,0,0c-0.1,0-0.2,0-0.3-0.1l0,0
	c-0.4-0.1-0.8-0.1-1.3-0.2c0,0,0,0-0.1,0c-0.1,0-0.2,0-0.3,0c0,0,0,0-0.1,0c-0.3,0-0.6-0.1-0.9-0.1c0,0,0,0-0.1,0
	c-0.1,0-0.2,0-0.2,0c0,0-0.1,0-0.1,0c-0.1,0-0.2,0-0.2,0c0,0-0.1,0-0.1,0c-0.3,0-0.5-0.1-0.8-0.1c0,0-0.1,0-0.1,0
	c-0.1,0-0.2,0-0.2,0c0,0-0.1,0-0.1,0c-0.1,0-0.1,0-0.2,0c0,0-0.1,0-0.1,0c-0.1,0-0.3,0-0.5-0.1c0,0-0.1,0-0.1,0c-0.1,0-0.2,0-0.2,0
	c0,0-0.1,0-0.1,0c-0.1,0-0.1,0-0.2,0c-0.1,0-0.1,0-0.2,0c-0.1,0-0.1,0-0.2,0c-0.1,0-0.1,0-0.2,0c-0.1,0-0.2,0-0.3,0
	c-0.1,0-0.1,0-0.2,0c-0.1,0-0.1,0-0.2,0c-0.1,0-0.1,0-0.2,0c-0.1,0-0.1,0-0.2,0c-0.1,0-0.1,0-0.2,0c-0.1,0-0.1,0-0.2,0
	c-0.1,0-0.2,0-0.3,0c-0.1,0-0.1,0-0.2,0c-0.1,0-0.2,0-0.3,0c-0.1,0-0.1,0-0.2,0c-0.1,0-0.1,0-0.2,0c-0.1,0-0.1,0-0.2,0
	c-0.1,0-0.2,0-0.3,0c0,0-0.1,0-0.1,0c-0.1,0-0.2,0-0.4,0c0,0-0.1,0-0.1,0c-0.1,0-0.2,0-0.3,0c0,0-0.1,0-0.1,0c-0.1,0-0.2,0-0.2,0
	c-0.1,0-0.1,0-0.2,0c-0.1,0-0.2,0-0.3,0c0,0-0.1,0-0.1,0c-0.1,0-0.2,0-0.4,0c0,0-0.1,0-0.1,0c-0.1,0-0.2,0-0.3,0c0,0-0.1,0-0.1,0
	c-0.1,0-0.2,0-0.2,0c0,0-0.1,0-0.1,0c-0.1,0-0.2,0-0.3,0c0,0-0.1,0-0.1,0c-0.1,0-0.2,0-0.4,0c0,0-0.1,0-0.1,0c-0.1,0-0.2,0-0.3,0
	c-0.1,0-0.1,0-0.1,0c-0.1,0-0.2,0-0.2,0c0,0-0.1,0-0.1,0c-0.1,0-0.2,0-0.3,0c0,0,0,0,0,0c-0.1,0-0.3,0-0.4,0c0,0-0.1,0-0.1,0
	c-0.1,0-0.2,0-0.3,0c0,0-0.1,0-0.1,0c-0.1,0-0.2,0-0.3,0c0,0-0.1,0-0.1,0C254.8,80.9,254.7,80.9,254.6,80.9"/>
<path fill="#E3B6D6" d="M45.1,258.4C45.1,258.4,45.1,258.5,45.1,258.4C45.1,258.5,45.1,258.4,45.1,258.4 M384.4,258.3
	C384.4,258.4,384.4,258.4,384.4,258.3C384.4,258.4,384.4,258.4,384.4,258.3 M45.1,257.9C45.1,257.9,45.1,257.9,45.1,257.9
	L45.1,257.9 M384.4,257.8C384.4,257.8,384.4,257.8,384.4,257.8C384.4,257.8,384.4,257.8,384.4,257.8"/>
<path fill="#982773" d="M214.8,428.7c7.8,0,25.2,8.2,39,8.5C240,436.9,222.6,428.7,214.8,428.7 M383.6,238.4
	c-8.1,89.4-78.7,160.3-145.7,160.3c-13.6,0-27.9-9.2-36-9.5c0.2,1.3,0.4,2.5,0.5,3.6c1.2,8.1,1.5,12.8,0.8,12.9l0,0
	c-0.7,0-2.3-4.4-4.5-12.1c-0.4-1.2-0.7-2.6-1.1-4c-8.4,1.7-21.2,7.8-33.2,7.8c-66.6,0-112.4-68.8-118.6-157.3
	c-0.5,5.8-0.7,11.7-0.7,17.7v0c0,0.2,0,0.4,0,0.5c0,0,0,0,0,0.1c0,0.2,0,0.4,0,0.6l0,0l0,0c0-2.9,0.1-5.7,0.2-8.5
	c3.4,94.2,60.2,169.2,129.7,169.2c13.9,0,31.9-8.5,39.8-8.5c7.9,0,25.9,8.5,39.8,8.5c69.4,0,126.1-74.8,129.7-168.8
	c0.1,2.7,0.2,5.4,0.2,8.2l0,0l0,0c0-0.2,0-0.4,0-0.6c0,0,0-0.1,0-0.1c0-0.2,0-0.4,0-0.6c0,0,0,0,0,0
	C384.4,251.2,384.1,244.8,383.6,238.4"/>
<path fill="#871C61" d="M45.3,250.6c-0.1,2.8-0.2,5.6-0.2,8.5c0,98.4,58.1,178.1,129.8,178.1c13.9,0,31.9-8.5,39.8-8.5l0,0
	c7.8,0,25.2,8.2,39,8.5c0.3,0,0.5,0,0.8,0c71.7,0,129.8-79.8,129.8-178.1c0-2.8-0.1-5.5-0.2-8.2c-3.5,94.1-60.2,168.8-129.7,168.8
	c-13.9,0-31.9-8.5-39.8-8.5c-7.9,0-25.9,8.5-39.8,8.5C105.5,419.7,48.7,344.8,45.3,250.6"/>
<path fill="#982773" d="M189.1,350c0.7,3.7,1.4,7.2,2,10.6c0.7,3.4,1.3,6.7,1.9,9.9c0.3,1.6,0.6,3.1,0.9,4.6
	c0.4,1.5,0.7,2.9,1.1,4.3c1,3.8,1.9,7.2,2.7,10.3c1.4-0.3,2.6-0.4,3.7-0.4c0.2,0,0.3,0,0.5,0c-0.5-3.2-1.1-6.9-1.8-10.8
	c-0.2-1.4-0.5-2.8-0.8-4.3c-0.2-1.5-0.4-3-0.6-4.6c-0.4-3.1-0.9-6.4-1.3-9.9c-0.4-2.8-0.8-5.6-1.2-8.5
	C193.6,350.9,191.2,350.5,189.1,350 M203.2,110.9c-0.7,0-2.7,4.3-5.2,11.9c-2.4,7.8-5.5,19.2-8.1,33c-5.5,27.6-9.2,65-8.9,102.5
	l0,3.5l0.1,3.5c0.1,2.3,0.2,4.7,0.2,7c0.2,4.7,0.3,9.3,0.5,13.9c0.6,9.2,1.4,18.2,2.2,27c0.1,2.2,0.5,4.3,0.7,6.5
	c0.3,2.1,0.6,4.3,0.8,6.4c0.2,1.5,0.4,3.1,0.6,4.6c2.2,0.2,4.8,0.6,7.7,0.8c-0.2-2.1-0.4-4.2-0.6-6.3c-0.2-2.1-0.4-4.2-0.7-6.3
	c-0.2-2.1-0.5-4.3-0.6-6.4c-0.5-8.7-1.2-17.6-1.7-26.7c-0.1-4.5-0.3-9.1-0.4-13.7c-0.1-2.3-0.1-4.6-0.2-6.9l-0.1-3.5l0-3.5
	c-0.3-37,2.7-73.9,6.7-101.4c1.9-13.7,4.1-25.1,5.4-33.1C203.2,115.7,204,111.1,203.2,110.9L203.2,110.9"/>
<path fill="#871C61" d="M201.4,389.2c-1.1,0-2.4,0.2-3.7,0.4c0.4,1.4,0.8,2.8,1.1,4c2.2,7.7,3.7,12.1,4.5,12.1l0,0
	c0.7-0.2,0.3-4.9-0.8-12.9c-0.2-1.1-0.3-2.4-0.5-3.6C201.7,389.2,201.6,389.2,201.4,389.2"/>
<path fill="#CF73BB" d="M144,107.3c-8.4,0-18.5,4.2-27.1,12c-14,12.7-18.9,30.1-10.8,38.9c3.1,3.4,7.6,5,12.9,5
	c8.4,0,18.5-4.2,27.1-12c14-12.7,18.9-30.1,10.8-38.9C153.8,108.9,149.3,107.3,144,107.3"/>
<path fill="#FFFFFF" d="M223.4,332.3c-3.5-3.8-11.1-0.5-22.9-0.5c-11.8,0-19.6-3.2-23,0.5c-1.5,1.6-2,3.9-1.7,6.4
	c0.1,0.5,0.2,1,0.3,1.5c1.8,6.9,9.8,10.6,23.1,11.1c0.4,0,0.8,0,1.2,0c2.4,0,4.6-0.2,6.7-0.6c10.5-2,17.1-4.5,18.3-10.6
	c0.1-0.5,0.2-1,0.2-1.5C225.7,336.2,225,334,223.4,332.3"/>
<path fill="#B9B9B9" d="M217.9,330.4c-4.1,0-9.9,1.3-17.4,1.3c-2.3,0-4.5-0.1-6.6-0.3c-2.9-0.3-5.5-0.6-7.7-0.8
	c-1.2-0.1-2.2-0.2-3.2-0.2c-2.4,0-4.3,0.4-5.5,1.8c-1.2,1.3-1.8,3.1-1.8,5.1c0,0.4,0,0.8,0.1,1.3c0.9,0.3,2.2,0.6,3.7,1
	c-5.1-5.7-1.7-7,4.2-7c5,0,11.7,0.9,16.8,0.9c4.8,0,8.8,0,12.1,0c11.8,0,13.9,0.6,8,6.4c2.2-0.5,3.9-0.9,5-1.3c0-0.1,0-0.3,0-0.4
	c0-2.2-0.7-4.2-2.2-5.8C222.1,330.9,220.2,330.4,217.9,330.4"/>
<path fill="#B9B9B9" d="M176.1,340.2c1.8,6.9,9.8,10.6,23.1,11.1c-18.1-2-18.8-8.4-18.7-10.6C179.1,340.6,177.6,340.4,176.1,340.2"
	/>
<path fill="#B9B9B9" d="M225.4,340.1c-2.1,0.4-4.3,0.6-6.2,0.7c5.5,6.2-3.6,7.1-12.1,9.9C217.6,348.7,224.2,346.2,225.4,340.1"/>
<path fill="#231F20" d="M220.6,339.8c-1.8,0.4-3.9,0.8-6.4,1.2c0,0,2.1,0,5-0.2c-0.1-0.2-0.3-0.3-0.4-0.5
	C218.8,340.3,219.6,340.3,220.6,339.8z"/>
<path fill="#231F20" d="M218.8,340.3c0.2,0.2,0.3,0.3,0.4,0.5c1.9-0.1,4.1-0.3,6.2-0.7c0.1-0.5,0.2-1,0.2-1.5
	c-1.1,0.3-2.8,0.8-5,1.3C219.6,340.3,218.8,340.3,218.8,340.3z"/>
<path fill="#231F20" d="M180.5,340.7c3.5,0.3,6.3,0.3,6.3,0.3c-3-0.5-5.4-0.9-7.3-1.4c0.3,0.3,0.6,0.5,1,0.7
	C180.5,340.3,180.5,340.4,180.5,340.7z"/>
<path fill="#231F20" d="M180.5,340.3c-0.4-0.2-0.7-0.4-1-0.7c-1.6-0.4-2.8-0.7-3.7-1c0.1,0.5,0.2,1,0.3,1.5c1.5,0.2,3,0.4,4.4,0.5
	C180.5,340.4,180.5,340.3,180.5,340.3z"/>
<path fill="#9D317A" d="M228.6,329.3c-0.2,0-0.4,0-0.6,0c0,0,3.1,1.7,2.7,5.5C230.6,334.8,234.6,329.3,228.6,329.3"/>
<path fill="#9D317A" d="M172.7,329.3c-6,0-2.1,5.5-2.1,5.5c-0.4-3.8,2.7-5.5,2.7-5.5C173.1,329.3,172.9,329.3,172.7,329.3"/>
<path fill="#00111A" d="M378.7,237.7c-1.5,2.1-6.6,4.9-10.4,6.9c0.1,1.6,0.3,9.9,0.3,11.6c0,30.9,3.8,86-74.6,86
	c-53.8,0-77.4-38.7-81.3-76.8c-0.1,0-0.2,0-0.2,0s-2.1-11.2-11.8-11.2c-9.7,0-11.8,11.2-11.8,11.2s-0.1,0-0.2,0
	c-3.9,38.1-27.4,76.8-81.3,76.8c-78.4,0-74.6-55.1-74.6-86c0-1.7,0.1-10,0.2-11.6c-3.8-1.9-8.9-4.8-10.4-6.9c-2.4-3.2-3.1-9-1.6-9.8
	c5.2-3,18.3-9.2,37.7-13.3c19.9-4.2,68.2-6.8,111.6,5.1c13.5,3.7,46.6,3.9,60.6,0c43.3-12,91.7-9.3,111.6-5.1
	c19.4,4.1,32.5,10.3,37.7,13.3C381.7,228.7,381,234.5,378.7,237.7z"/>
<path fill="#353B42" d="M177.4,257.5c0-22.8-24.4-34.1-67.2-34.1c-42.8,0-65.4,7.4-65.4,36.1c0,26.2-3.2,72.8,63.2,72.8
	C158.2,332.3,177.4,292.5,177.4,257.5z"/>
<path fill="#353B42" d="M356.5,259.5c0-28.7-22.7-36.1-65.4-36.1c-42.8,0-67.2,11.3-67.2,34.1c0,35,19.2,74.9,69.4,74.9
	C359.7,332.3,356.5,285.7,356.5,259.5z"/>
<path fill="#292E33" d="M162,272.6c-9-14.4-24.3-2.4-43.6,9.6c-19.3,12-35.2,19.6-26.2,34c9,14.4,31.9,16.4,51.2,4.3
	C162.7,308.4,171,287,162,272.6z"/>
<path fill="#292E33" d="M347.2,272.6c9,14.4,0.7,35.9-18.6,47.9c-19.3,12-42.2,10.1-51.2-4.3c-9-14.4,6.9-22,26.2-34
	C322.9,270.1,338.2,258.1,347.2,272.6z"/>
<path fill="#FFFFFF" d="M61.8,237.9c4.3,0.2,3.6,8.6,2.2,18.2c-1.4,9.6-2.8,16.7-7.1,16.5c-4.3-0.2-6.7-8.2-5.3-17.7
	S57.5,237.7,61.8,237.9z"/>
<ellipse transform="matrix(0.9885 -0.1514 0.1514 0.9885 -43.0949 12.1137)" fill="#FFFFFF" cx="58" cy="289.1" rx="4.8" ry="7"/>
<path fill="#FFFFFF" d="M245.7,236.8c4.3,0.2,3.6,8.6,2.2,18.2c-1.4,9.6-2.8,16.7-7.1,16.5c-4.3-0.2-6.7-8.2-5.3-17.7
	S241.4,236.6,245.7,236.8z"/>
<ellipse transform="matrix(0.9885 -0.1514 0.1514 0.9885 -40.8115 39.9427)" fill="#FFFFFF" cx="241.9" cy="288" rx="4.8" ry="7"/>
</svg>
