<?xml version="1.0" encoding="utf-8"?>
<!-- Generator: Adobe Illustrator 17.1.0, SVG Export Plug-In . SVG Version: 6.00 Build 0)  -->
<!DOCTYPE svg PUBLIC "-//W3C//DTD SVG 1.1//EN" "http://www.w3.org/Graphics/SVG/1.1/DTD/svg11.dtd">
<svg version="1.1" id="Layer_1" xmlns="http://www.w3.org/2000/svg" xmlns:xlink="http://www.w3.org/1999/xlink" x="0px" y="0px"
	 width="503.3px" height="551.5px" viewBox="0 0 503.3 551.5" enable-background="new 0 0 503.3 551.5" xml:space="preserve">
<path fill="#DBDACB" d="M277.2,500.8c-92.1,0-166.8,11.3-166.8,25.3c0,14,74.7,25.3,166.8,25.3S444,540.2,444,526.2
	C444,512.2,369.3,500.8,277.2,500.8"/>
<path fill="#133441" d="M280.4,473.1c-0.3,0-0.7,0-1-0.1c-2.7-0.6-4.4-3.2-3.9-5.9c1.4-6.9,4.2-11.8,4.3-12c1.3-2.3,4.3-3.2,6.6-2
	c4.9,2.5,19.3,7.8,26.7,2.6c6.4-4.5,6.3-16.4,5-25.5c-0.4-2.7,1.6-5.3,4.3-5.6c2.7-0.4,5.3,1.6,5.6,4.3c2.3,17.3-0.8,29.1-9.2,35
	c-10.1,7.2-24.7,3.1-32.2,0.3c-0.5,1.4-1,3.1-1.4,5C284.8,471.5,282.7,473.1,280.4,473.1"/>
<path fill="#133441" d="M142.4,476.2c-0.8,0-1.6-0.2-2.3-0.6c-0.2-0.1-5.2-2.7-10.2-7.8c-1.9-2-1.9-5.1,0-7.1c2-1.9,5.1-1.9,7.1,0
	c0.8,0.8,1.6,1.5,2.3,2.1c5.8-18.5,21.3-43.8,50.3-40.5c2.8,0.3,4.7,2.8,4.4,5.6c-0.3,2.7-2.8,4.7-5.5,4.4
	c-32.2-3.7-40.8,38-41.2,39.7c-0.3,1.5-1.3,2.9-2.7,3.5C143.9,476.1,143.1,476.2,142.4,476.2"/>
<path fill="#133441" d="M407.4,296.1c-1.4,0-2.8-0.6-3.7-1.7c-1.8-2.1-1.7-5.2,0.4-7.1c49.4-44,68.7-58.3,69.5-58.8
	c2.2-1.6,5.4-1.1,7,1.1c1.6,2.2,1.2,5.4-1.1,7c-0.2,0.1-19.9,14.7-68.8,58.2C409.8,295.7,408.6,296.1,407.4,296.1"/>
<path fill="#133441" d="M498.7,235.5L498.7,235.5c0,0-0.2,0-0.5-0.1c-1.1-0.1-4-0.6-7.2-1.6c2.1-1.1,4.1-2.3,5.6-3.4
	c1.9-1.3,3.2-2.2,3.3-2.2c2.2-1.6,2.7-4.8,1.1-7c-1.6-2.2-4.8-2.7-7-1.1c-0.1,0.1-2.8,2-6,3.9c-1.2,0.7-2.6,1.4-3.8,2
	c0.1-0.1,0.2-0.2,0.3-0.4c1.5-1.8,3.3-3.7,4.8-5.1c0.7-0.7,1.4-1.3,1.8-1.7c0.2-0.2,0.4-0.3,0.5-0.4l0.1-0.1l0,0l0,0h0
	c2.1-1.8,2.4-4.9,0.6-7.1c-1.8-2.1-4.9-2.4-7.1-0.6c-0.1,0.1-3.1,2.6-6.2,6c-0.9,1-1.8,2-2.7,3.2c-0.1-0.4-0.2-0.7-0.3-1
	c-0.8-2.7-1-5-1-6c0-0.2,0-0.4,0-0.5l0-0.1l0,0c0.2-2.7-1.8-5.2-4.5-5.4c-2.8-0.3-5.2,1.8-5.5,4.5c0,0.1-0.1,0.7-0.1,1.5
	c0,1.8,0.2,5,1.4,8.9c1.2,3.9,3.4,8.5,7.4,13l0.1,0.1c0.2,0.2,0.4,0.4,0.6,0.6c2.1,2.2,4.6,3.9,7,5.2c4,2.2,8.1,3.3,11.2,4
	c3.1,0.7,5.2,0.8,5.4,0.8c2.8,0.2,5.2-1.9,5.4-4.6C503.5,238.1,501.5,235.7,498.7,235.5z"/>
<path fill="#133441" d="M105.2,323.9c-0.9,0-1.8-0.2-2.6-0.7c-56-33.9-78-44.6-78.3-44.7c-2.5-1.2-3.5-4.2-2.3-6.7s4.2-3.5,6.7-2.3
	c0.9,0.4,22.5,10.9,79.1,45.2c2.4,1.4,3.1,4.5,1.7,6.9C108.5,323,106.9,323.9,105.2,323.9"/>
<path fill="#133441" d="M27.9,247.6c-2.6,0.8-4.2,3.5-3.4,6.2l0,0l0,0c0,0.1,0.4,1.6,0.4,4c0,1.1-0.1,2.3-0.3,3.7l-0.1-0.1
	c-2.3-2-4.8-3.8-6.8-5.1c-2-1.3-3.4-2.1-3.4-2.1c-2.4-1.4-5.5-0.5-6.8,1.9c-1.4,2.4-0.5,5.5,1.9,6.8h0c0.1,0.1,3.5,2,6.7,4.5
	c0.7,0.6,1.5,1.2,2.1,1.7l-0.1,0c-2.4-0.6-5.1-1.6-7.2-2.5c-1-0.4-1.9-0.8-2.5-1.1c-0.3-0.1-0.5-0.2-0.7-0.3L7.2,265l0,0l0,0
	c-2.5-1.2-5.5-0.1-6.7,2.3c-1.2,2.5-0.1,5.5,2.3,6.7c0.1,0,2.8,1.4,6.5,2.7c1,0.4,2.1,0.8,3.3,1.1c-1.2,0.7-2.4,1.2-3.5,1.7
	C8,280,7,280.4,6.3,280.6c-0.3,0.1-0.6,0.2-0.8,0.2l-0.2,0.1l0,0v0c-2.7,0.7-4.3,3.4-3.6,6.1c0.7,2.7,3.4,4.3,6.1,3.6
	c0.2-0.1,3.8-1,8.3-3.3c2.2-1.1,4.7-2.6,7.1-4.5c2.1-1.7,4.1-3.8,5.8-6.3c0.2-0.3,0.4-0.6,0.6-0.9l0,0c2-3.4,3.3-6.7,4.1-9.7
	c0.8-3,1-5.8,1-8.1c0-3.9-0.7-6.4-0.8-6.7C33.3,248.4,30.5,246.9,27.9,247.6z M24.4,253.8L24.4,253.8z"/>
<path fill="#8BC34A" d="M307.6,19.3c-28.1,9.5-33.1,34-33.7,38.4c-3.2,2.2-11.1,7.9-13.2,13.1l-0.4,4.6c0,0,8-12.5,14.4-16.3
	c27.3,22.1,83.7-1.9,97.2-38.6c-3.7,1.4-10.1-0.4-18.6-2.2C341.3,15.7,325.5,13.2,307.6,19.3"/>
<path fill="#5F9E28" d="M371.7,20.5c0,0-25.7,17.2-49.2,25.5c-23.5,8.3-48.7,11.7-48.7,11.7l0,0c-2.4,1.6-7.3,5.2-10.6,9
	c-0.5,2.1-0.9,4.2-1.3,6.2c2.7-3.8,8.1-11,12.7-13.8c7.2,5.9,16.5,8.5,26.5,8.5C328.8,67.5,361.8,47.4,371.7,20.5"/>
<path fill="#8BC34A" d="M254.5,93.5c-2.5-32.7,5.1-67,21.6-88.6c6.6-8.6,17.8-3.8,17.8-0.4c0,3.4-6.6,5-11,11.4
	c-19.1,27.6-24.6,79.3-24.6,79.3S256,112.6,254.5,93.5"/>
<path fill="#5F9E28" d="M285.6,1.5c-3,0-5.3,0.9-5.4,2c-0.1,1.2,2.6,2.4,5.8,2.5c0.2,0,0.5,0,0.7,0c3,0,5.3-0.9,5.4-2
	c0.1-1.2-2.6-2.4-5.8-2.5C286.1,1.5,285.9,1.5,285.6,1.5"/>
<path fill="#AB3689" d="M296.2,80.9c-15.3,0-32.7,8.5-39.8,8.5c-8.5,0-25.9-8.5-39.8-8.5c-71.7,0-129.8,79.8-129.8,178.1
	c0,98.4,58.1,178.1,129.8,178.1c13.9,0,31.9-8.5,39.8-8.5c7.9,0,25.9,8.5,39.8,8.5c71.7,0,129.8-79.8,129.8-178.1
	C426,160.7,367.9,80.9,296.2,80.9"/>
<path fill="#BFBFC2" d="M195.4,83.3L195.4,83.3L195.4,83.3 M316.1,83C316.1,83,316.1,83,316.1,83C316.1,83,316.1,83,316.1,83
	 M196.7,83C196.7,83,196.6,83,196.7,83C196.6,83,196.7,83,196.7,83 M315.8,83C315.8,83,315.8,83,315.8,83
	C315.8,83,315.8,83,315.8,83 M197,82.9C197,83,197,83,197,82.9C197,83,197,83,197,82.9 M314.5,82.7
	C314.5,82.7,314.5,82.7,314.5,82.7C314.5,82.7,314.5,82.7,314.5,82.7 M198.3,82.7C198.3,82.7,198.2,82.7,198.3,82.7
	C198.2,82.7,198.3,82.7,198.3,82.7 M314.1,82.6C314.2,82.6,314.2,82.6,314.1,82.6C314.2,82.6,314.2,82.6,314.1,82.6 M198.6,82.6
	C198.6,82.6,198.6,82.6,198.6,82.6C198.6,82.6,198.6,82.6,198.6,82.6 M313.2,82.5C313.2,82.5,313.2,82.5,313.2,82.5
	C313.2,82.5,313.2,82.5,313.2,82.5 M199.6,82.5C199.5,82.5,199.5,82.5,199.6,82.5C199.5,82.5,199.5,82.5,199.6,82.5 M312.8,82.4
	c0,0,0.1,0,0.1,0C312.9,82.4,312.9,82.4,312.8,82.4 M199.9,82.4c0,0-0.1,0-0.1,0C199.8,82.4,199.9,82.4,199.9,82.4 M312.5,82.3
	c0,0,0.1,0,0.1,0C312.6,82.3,312.5,82.3,312.5,82.3 M200.3,82.3c0,0-0.1,0-0.1,0C200.2,82.3,200.2,82.3,200.3,82.3 M311.6,82.2
	C311.6,82.2,311.7,82.2,311.6,82.2C311.6,82.2,311.6,82.2,311.6,82.2 M201.2,82.2c0,0-0.1,0-0.1,0C201.1,82.2,201.1,82.2,201.2,82.2
	 M311.2,82.1c0,0,0.1,0,0.1,0C311.3,82.1,311.3,82.1,311.2,82.1 M201.5,82.1c0,0-0.1,0-0.1,0C201.5,82.1,201.5,82.1,201.5,82.1
	 M310.9,82.1c0.1,0,0.1,0,0.1,0C311,82.1,310.9,82.1,310.9,82.1 M201.9,82.1c-0.1,0-0.1,0-0.2,0C201.8,82.1,201.9,82.1,201.9,82.1
	 M309.9,81.9c0.1,0,0.1,0,0.2,0C310.1,81.9,310,81.9,309.9,81.9 M202.8,81.9c-0.1,0-0.1,0-0.2,0C202.7,81.9,202.8,81.9,202.8,81.9
	 M309.6,81.9c0.1,0,0.1,0,0.2,0C309.7,81.9,309.6,81.9,309.6,81.9 M203.2,81.9c-0.1,0-0.1,0-0.2,0C203.1,81.9,203.1,81.9,203.2,81.9
	 M309.2,81.8c0.1,0,0.1,0,0.2,0C309.3,81.8,309.3,81.8,309.2,81.8 M203.6,81.8c-0.1,0-0.1,0-0.2,0C203.4,81.8,203.5,81.8,203.6,81.8
	 M308.7,81.8c0.1,0,0.2,0,0.3,0C308.9,81.8,308.8,81.8,308.7,81.8 M204.1,81.8c-0.1,0-0.2,0-0.3,0C203.9,81.8,204,81.8,204.1,81.8
	 M308.3,81.7c0.1,0,0.1,0,0.2,0C308.4,81.7,308.4,81.7,308.3,81.7 M204.5,81.7c-0.1,0-0.1,0-0.2,0C204.3,81.7,204.4,81.7,204.5,81.7
	 M307.9,81.7c0.1,0,0.1,0,0.2,0C308.1,81.7,308,81.7,307.9,81.7 M204.8,81.7c-0.1,0-0.1,0-0.2,0C204.7,81.7,204.8,81.7,204.8,81.7
	 M307.5,81.6c0.1,0,0.1,0,0.2,0C307.7,81.6,307.6,81.6,307.5,81.6 M205.2,81.6c-0.1,0-0.1,0-0.2,0C205.1,81.6,205.1,81.6,205.2,81.6
	 M307,81.6c0.1,0,0.2,0,0.2,0C307.2,81.6,307.1,81.6,307,81.6 M205.7,81.6c-0.1,0-0.1,0-0.2,0C205.6,81.6,205.6,81.6,205.7,81.6
	 M206.1,81.5c-0.1,0-0.1,0-0.2,0C206,81.5,206,81.5,206.1,81.5 M306.7,81.5c0.1,0,0.1,0,0.2,0C306.8,81.5,306.7,81.5,306.7,81.5
	 M306.3,81.5c0.1,0,0.1,0,0.2,0C306.4,81.5,306.4,81.5,306.3,81.5 M206.5,81.5c-0.1,0-0.1,0-0.2,0C206.3,81.5,206.4,81.5,206.5,81.5
	 M305.9,81.4c0.1,0,0.2,0,0.3,0C306,81.4,306,81.4,305.9,81.4 M206.9,81.4c-0.1,0-0.2,0-0.3,0C206.7,81.4,206.8,81.4,206.9,81.4
	 M207.4,81.4c-0.1,0-0.2,0-0.3,0C207.2,81.4,207.3,81.4,207.4,81.4 M305.4,81.4c0.1,0,0.2,0,0.3,0C305.6,81.4,305.5,81.4,305.4,81.4
	 M305,81.3c0.1,0,0.2,0,0.2,0C305.2,81.4,305.1,81.4,305,81.3 M207.7,81.3c-0.1,0-0.2,0-0.2,0C207.6,81.4,207.7,81.4,207.7,81.3
	 M304.6,81.3c0.1,0,0.2,0,0.2,0C304.8,81.3,304.7,81.3,304.6,81.3 M208.1,81.3c-0.1,0-0.2,0-0.2,0C208,81.3,208.1,81.3,208.1,81.3
	 M208.6,81.3c-0.1,0-0.2,0-0.3,0C208.4,81.3,208.5,81.3,208.6,81.3 M304.2,81.3c0.1,0,0.2,0,0.3,0C304.4,81.3,304.3,81.3,304.2,81.3
	 M303.7,81.2c0.1,0,0.2,0,0.3,0C303.9,81.3,303.8,81.2,303.7,81.2 M209,81.2c-0.1,0-0.2,0-0.3,0C208.8,81.3,208.9,81.2,209,81.2
	 M303.4,81.2c0.1,0,0.2,0,0.2,0C303.5,81.2,303.4,81.2,303.4,81.2 M209.4,81.2c-0.1,0-0.2,0-0.2,0C209.2,81.2,209.3,81.2,209.4,81.2
	 M302.9,81.2c0.1,0,0.2,0,0.3,0C303.1,81.2,303,81.2,302.9,81.2 M209.8,81.2c-0.1,0-0.2,0-0.3,0C209.6,81.2,209.7,81.2,209.8,81.2
	 M302.5,81.1c0.1,0,0.2,0,0.4,0C302.7,81.2,302.6,81.2,302.5,81.1 M210.3,81.1c-0.1,0-0.2,0-0.4,0C210.1,81.2,210.2,81.2,210.3,81.1
	 M302.1,81.1c0.1,0,0.2,0,0.3,0C302.3,81.1,302.2,81.1,302.1,81.1 M210.7,81.1c-0.1,0-0.2,0-0.3,0C210.5,81.1,210.6,81.1,210.7,81.1
	 M211.1,81.1c-0.1,0-0.2,0-0.2,0C210.9,81.1,211,81.1,211.1,81.1 M301.7,81.1c0.1,0,0.2,0,0.2,0C301.9,81.1,301.8,81.1,301.7,81.1
	 M301.3,81.1c0.1,0,0.2,0,0.3,0C301.5,81.1,301.4,81.1,301.3,81.1 M211.5,81.1c-0.1,0-0.2,0-0.3,0C211.3,81.1,211.4,81.1,211.5,81.1
	 M212,81c-0.1,0-0.2,0-0.4,0C211.7,81.1,211.8,81.1,212,81 M300.8,81c0.1,0,0.2,0,0.4,0C301.1,81.1,300.9,81.1,300.8,81 M300.4,81
	c0.1,0,0.2,0,0.3,0C300.6,81,300.5,81,300.4,81 M212.3,81c-0.1,0-0.2,0-0.3,0C212.2,81,212.2,81,212.3,81 M212.7,81
	c-0.1,0-0.2,0-0.2,0C212.6,81,212.6,81,212.7,81 M300,81c0.1,0,0.2,0,0.2,0C300.2,81,300.1,81,300,81 M299.6,81c0.1,0,0.2,0,0.3,0
	C299.8,81,299.7,81,299.6,81 M213.2,81c-0.1,0-0.2,0-0.3,0C213,81,213.1,81,213.2,81 M299.1,81c0.1,0,0.2,0,0.4,0
	C299.4,81,299.3,81,299.1,81 M213.6,81c-0.1,0-0.2,0-0.4,0C213.4,81,213.5,81,213.6,81 M214,81c-0.1,0-0.2,0-0.3,0
	C213.8,81,213.9,81,214,81 M298.8,81c0.1,0,0.2,0,0.3,0C298.9,81,298.8,81,298.8,81 M214.4,81c-0.1,0-0.2,0-0.2,0
	C214.2,81,214.3,81,214.4,81 M298.4,81c0.1,0,0.2,0,0.2,0C298.5,81,298.5,81,298.4,81 M297.9,81c0.1,0,0.2,0,0.3,0
	C298.1,81,298,81,297.9,81 M214.9,81c-0.1,0-0.2,0-0.3,0C214.6,81,214.8,81,214.9,81 M215.3,80.9c-0.1,0-0.3,0-0.4,0
	C215,81,215.2,80.9,215.3,80.9 M297.5,80.9c0.1,0,0.3,0,0.4,0C297.7,81,297.6,80.9,297.5,80.9 M297.1,80.9c0.1,0,0.2,0,0.3,0
	C297.3,80.9,297.2,80.9,297.1,80.9 M215.7,80.9c-0.1,0-0.2,0-0.3,0C215.5,80.9,215.6,80.9,215.7,80.9 M216.1,80.9
	c-0.1,0-0.2,0-0.3,0C215.9,80.9,216,80.9,216.1,80.9 M296.7,80.9c0.1,0,0.2,0,0.3,0C296.9,80.9,296.8,80.9,296.7,80.9 M216.6,80.9
	c-0.1,0-0.3,0-0.4,0C216.3,80.9,216.5,80.9,216.6,80.9c12.8,0,28.6,7.2,37.6,8.4l0,0C245.2,88.2,229.4,80.9,216.6,80.9 M296.2,80.9
	c-13.6,0-28.9,6.8-37.1,8.3l0,0C267.3,87.7,282.6,80.9,296.2,80.9c0.1,0,0.3,0,0.4,0C296.4,80.9,296.3,80.9,296.2,80.9"/>
<path fill="#BD55A3" d="M296.2,80.9c-13.6,0-28.9,6.8-37.1,8.3c-1,0.2-1.9,0.3-2.7,0.3c-0.7,0-1.4-0.1-2.2-0.2
	c-9.1-1.1-24.8-8.4-37.6-8.4c-0.1,0-0.3,0-0.4,0c0,0-0.1,0-0.1,0c-0.1,0-0.2,0-0.3,0c0,0-0.1,0-0.1,0c-0.1,0-0.2,0-0.3,0
	c0,0-0.1,0-0.1,0c-0.1,0-0.3,0-0.4,0c0,0,0,0,0,0c-0.1,0-0.2,0-0.3,0c0,0-0.1,0-0.1,0c-0.1,0-0.2,0-0.2,0c-0.1,0-0.1,0-0.1,0
	c-0.1,0-0.2,0-0.3,0c0,0-0.1,0-0.1,0c-0.1,0-0.2,0-0.4,0c0,0-0.1,0-0.1,0c-0.1,0-0.2,0-0.3,0c0,0-0.1,0-0.1,0c-0.1,0-0.2,0-0.2,0
	c0,0-0.1,0-0.1,0c-0.1,0-0.2,0-0.3,0c0,0-0.1,0-0.1,0c-0.1,0-0.2,0-0.4,0c0,0-0.1,0-0.1,0c-0.1,0-0.2,0-0.3,0c-0.1,0-0.1,0-0.2,0
	c-0.1,0-0.2,0-0.2,0c0,0-0.1,0-0.1,0c-0.1,0-0.2,0-0.3,0c0,0-0.1,0-0.1,0c-0.1,0-0.2,0-0.4,0c0,0-0.1,0-0.1,0c-0.1,0-0.2,0-0.3,0
	c0,0-0.1,0-0.1,0c-0.1,0-0.2,0-0.2,0c0,0-0.1,0-0.1,0c-0.1,0-0.2,0-0.3,0c0,0-0.1,0-0.1,0c-0.1,0-0.2,0-0.3,0c0,0-0.1,0-0.1,0
	c-0.1,0-0.2,0-0.2,0c-0.1,0-0.1,0-0.2,0c-0.1,0-0.2,0-0.2,0c-0.1,0-0.1,0-0.2,0c-0.1,0-0.2,0-0.3,0c-0.1,0-0.1,0-0.2,0
	c-0.1,0-0.2,0-0.3,0c-0.1,0-0.1,0-0.2,0c-0.1,0-0.1,0-0.2,0c-0.1,0-0.1,0-0.2,0c-0.1,0-0.1,0-0.2,0s-0.1,0-0.2,0c-0.1,0-0.2,0-0.2,0
	c-0.1,0-0.2,0-0.3,0c-0.1,0-0.1,0-0.2,0c-0.1,0-0.1,0-0.2,0c-0.1,0-0.1,0-0.2,0c-0.1,0-0.1,0-0.2,0c-0.1,0-0.1,0-0.2,0
	c-0.1,0-0.1,0-0.2,0c-0.1,0-0.2,0-0.3,0c-0.1,0-0.1,0-0.2,0c-0.1,0-0.1,0-0.2,0c-0.1,0-0.1,0-0.2,0c-0.1,0-0.1,0-0.2,0
	c-0.1,0-0.1,0-0.2,0c-0.1,0-0.1,0-0.2,0c-0.2,0-0.5,0.1-0.7,0.1c-0.1,0-0.1,0-0.2,0c-0.1,0-0.1,0-0.2,0c0,0-0.1,0-0.1,0
	c-0.1,0-0.1,0-0.2,0c0,0-0.1,0-0.1,0c-0.3,0-0.5,0.1-0.8,0.1c0,0-0.1,0-0.1,0c-0.1,0-0.2,0-0.2,0c0,0-0.1,0-0.1,0
	c-0.1,0-0.2,0-0.2,0c0,0,0,0,0,0c-0.3,0.1-0.6,0.1-0.9,0.2c0,0-0.1,0-0.1,0c-0.1,0-0.2,0-0.3,0c0,0,0,0-0.1,0
	c-0.4,0.1-0.8,0.2-1.2,0.2c0,0,0,0-0.1,0c-0.1,0-0.2,0-0.3,0.1c0,0,0,0,0,0c-0.4,0.1-0.8,0.2-1.2,0.3l0,0
	C148,94,109.2,139.9,93.8,200.9C114,137,161,92.3,215.8,92.3c14.2,0,31.9,8.5,40.6,8.5c7.2,0,25-8.5,40.6-8.5
	c54.8,0,101.8,44.8,122,108.6C403.4,139.4,364.1,93.2,316.1,83c0,0,0,0,0,0c-0.1,0-0.2,0-0.3-0.1c0,0,0,0,0,0
	c-0.4-0.1-0.8-0.2-1.2-0.2c0,0,0,0-0.1,0c-0.1,0-0.2,0-0.3-0.1c0,0-0.1,0-0.1,0c-0.3-0.1-0.6-0.1-0.9-0.2c0,0,0,0,0,0
	c-0.1,0-0.2,0-0.3,0c0,0-0.1,0-0.1,0c-0.1,0-0.2,0-0.2,0c0,0-0.1,0-0.1,0c-0.3,0-0.5-0.1-0.8-0.1c0,0-0.1,0-0.1,0
	c-0.1,0-0.2,0-0.2,0c0,0-0.1,0-0.1,0c-0.1,0-0.1,0-0.2,0c-0.1,0-0.1,0-0.1,0c-0.2,0-0.5-0.1-0.7-0.1c-0.1,0-0.1,0-0.2,0
	c-0.1,0-0.1,0-0.2,0c-0.1,0-0.1,0-0.2,0c-0.1,0-0.1,0-0.2,0c-0.1,0-0.1,0-0.2,0c-0.1,0-0.1,0-0.2,0c-0.1,0-0.2,0-0.3,0
	c-0.1,0-0.1,0-0.2,0c-0.1,0-0.1,0-0.2,0c-0.1,0-0.1,0-0.2,0c-0.1,0-0.1,0-0.2,0c-0.1,0-0.1,0-0.2,0c-0.1,0-0.1,0-0.2,0
	c-0.1,0-0.2,0-0.3,0c-0.1,0-0.2,0-0.2,0c-0.1,0-0.1,0-0.2,0c-0.1,0-0.1,0-0.2,0c-0.1,0-0.1,0-0.2,0c-0.1,0-0.1,0-0.2,0
	c-0.1,0-0.1,0-0.2,0c-0.1,0-0.2,0-0.3,0c-0.1,0-0.1,0-0.2,0c-0.1,0-0.2,0-0.3,0c-0.1,0-0.1,0-0.2,0c-0.1,0-0.2,0-0.2,0
	c-0.1,0-0.1,0-0.2,0c-0.1,0-0.2,0-0.2,0c0,0-0.1,0-0.1,0c-0.1,0-0.2,0-0.3,0c0,0-0.1,0-0.1,0c-0.1,0-0.2,0-0.3,0c0,0-0.1,0-0.1,0
	c-0.1,0-0.2,0-0.2,0c0,0-0.1,0-0.1,0c-0.1,0-0.2,0-0.3,0c0,0-0.1,0-0.1,0c-0.1,0-0.2,0-0.4,0c0,0-0.1,0-0.1,0c-0.1,0-0.2,0-0.3,0
	c0,0-0.1,0-0.1,0c-0.1,0-0.2,0-0.2,0c-0.1,0-0.1,0-0.2,0c-0.1,0-0.2,0-0.3,0c0,0-0.1,0-0.1,0c-0.1,0-0.2,0-0.4,0c0,0-0.1,0-0.1,0
	c-0.1,0-0.2,0-0.3,0c0,0-0.1,0-0.1,0c-0.1,0-0.2,0-0.2,0c0,0-0.1,0-0.1,0c-0.1,0-0.2,0-0.3,0c0,0-0.1,0-0.1,0c-0.1,0-0.2,0-0.4,0
	c0,0-0.1,0-0.1,0c-0.1,0-0.2,0-0.3,0c-0.1,0-0.1,0-0.1,0c-0.1,0-0.2,0-0.2,0c0,0-0.1,0-0.1,0c-0.1,0-0.2,0-0.3,0c0,0,0,0,0,0
	c-0.1,0-0.3,0-0.4,0c0,0-0.1,0-0.1,0c-0.1,0-0.2,0-0.3,0c0,0-0.1,0-0.1,0c-0.1,0-0.2,0-0.3,0c0,0-0.1,0-0.1,0
	C296.4,80.9,296.3,80.9,296.2,80.9"/>
<path fill="#E3B6D6" d="M318.7,434.5c-7.3,1.7-14.8,2.7-22.5,2.7C303.9,437.2,311.4,436.3,318.7,434.5L318.7,434.5 M379.4,395.8
	c-14.6,16.7-31.9,29.1-50.9,35.8v0C347.5,425,364.8,412.6,379.4,395.8"/>
<path fill="#112537" d="M328.5,431.6c-3.2,1.1-6.5,2.1-9.8,2.9l0,0C322,433.7,325.2,432.8,328.5,431.6L328.5,431.6"/>
<path fill="#982773" d="M86.7,259.1L86.7,259.1L86.7,259.1c0,98.4,58.1,178.1,129.8,178.1c13.9,0,31.9-8.5,39.8-8.5
	c7.9,0,25.9,8.5,39.8,8.5l0,0c7.7,0,15.2-0.9,22.5-2.7c3.3-0.8,6.6-1.8,9.8-2.9c19-6.7,36.3-19.1,50.9-35.8l0,0
	c-22.5,25.8-51.5,41.4-83.2,41.4c-13.9,0-31.9-8.5-39.8-8.5c-7.9,0-25.9,8.5-39.8,8.5C144.9,437.2,86.7,357.4,86.7,259.1"/>
<path fill="#E3B6D6" d="M86.7,258.4C86.7,258.4,86.7,258.5,86.7,258.4C86.7,258.5,86.7,258.4,86.7,258.4 M426,258.3
	C426,258.4,426,258.4,426,258.3C426,258.4,426,258.4,426,258.3 M86.7,257.9C86.7,257.9,86.7,257.9,86.7,257.9L86.7,257.9 M426,257.8
	C426,257.8,426,257.8,426,257.8C426,257.8,426,257.8,426,257.8"/>
<path fill="#982773" d="M425.2,238.4c-8.1,89.4-78.7,160.3-145.7,160.3c-13.6,0-27.9-9.2-36-9.5c0.2,1.3,0.4,2.5,0.5,3.6
	c1.2,8.1,1.5,12.8,0.8,12.9l0,0c-0.7,0-2.3-4.4-4.5-12.1c-0.4-1.2-0.7-2.6-1.1-4c-8.4,1.7-21.2,7.8-33.2,7.8
	c-66.6,0-112.4-68.8-118.6-157.3c-0.4,5.8-0.7,11.7-0.7,17.7v0c0,0.2,0,0.4,0,0.5c0,0,0,0,0,0.1c0,0.2,0,0.4,0,0.6l0,0l0,0
	c0-2.9,0.1-5.7,0.2-8.5c3.4,94.2,60.2,169.2,129.7,169.2c13.9,0,31.9-8.5,39.8-8.5c7.9,0,25.9,8.5,39.8,8.5
	c69.4,0,126.1-74.8,129.7-168.8c0.1,2.7,0.2,5.4,0.2,8.2c0,55-18.1,104.1-46.7,136.8C407.9,363.2,426,314,426,259.1l0,0
	c0-0.2,0-0.4,0-0.6c0,0,0-0.1,0-0.1c0-0.2,0-0.4,0-0.6c0,0,0,0,0,0C426,251.2,425.7,244.8,425.2,238.4"/>
<path fill="#871C61" d="M86.9,250.6c-0.1,2.8-0.2,5.6-0.2,8.5c0,98.4,58.1,178.1,129.8,178.1c13.9,0,31.9-8.5,39.8-8.5
	c7.9,0,25.9,8.5,39.8,8.5c31.7,0,60.7-15.5,83.2-41.4C407.9,363.2,426,314,426,259.1c0-2.8-0.1-5.5-0.2-8.2
	c-3.5,94.1-60.2,168.8-129.7,168.8c-13.9,0-31.9-8.5-39.8-8.5c-7.9,0-25.9,8.5-39.8,8.5C147.1,419.7,90.3,344.8,86.9,250.6"/>
<path fill="#982773" d="M244.8,110.9c-0.7,0-2.7,4.3-5.2,11.9c-2.4,7.8-5.5,19.2-8.1,33c-5.5,27.6-9.2,65-8.9,102.5l0,3.5l0.1,3.5
	c0.1,2.3,0.2,4.7,0.2,7c0.2,4.7,0.3,9.3,0.5,13.9c0.6,9.2,1.4,18.2,2.2,27c0.1,2.2,0.5,4.3,0.7,6.5c0.3,2.1,0.6,4.3,0.8,6.3
	c0.6,4.2,1.1,8.3,1.6,12.3c0.3,2,0.5,4,0.8,5.9c0.4,1.9,0.7,3.8,1,5.7c0.7,3.7,1.4,7.3,2,10.8c0.7,3.4,1.3,6.7,1.9,9.9
	c0.3,1.6,0.6,3.1,0.9,4.6c0.4,1.5,0.7,2.9,1.1,4.3c1,3.8,1.9,7.2,2.7,10.3c1.4-0.3,2.6-0.4,3.7-0.4c0.2,0,0.3,0,0.5,0
	c-0.5-3.2-1.1-6.8-1.8-10.8c-0.2-1.4-0.5-2.8-0.8-4.3c-0.2-1.5-0.4-3-0.6-4.6c-0.4-3.1-0.9-6.4-1.3-9.9c-0.5-3.4-1-7-1.5-10.7
	c-0.3-1.9-0.5-3.7-0.8-5.6c-0.2-1.9-0.4-3.9-0.6-5.9c-0.4-4-0.8-8-1.3-12.2c-0.2-2.1-0.4-4.2-0.7-6.3c-0.2-2.1-0.5-4.3-0.6-6.4
	c-0.5-8.7-1.2-17.6-1.7-26.7c-0.1-4.5-0.3-9.1-0.4-13.7c-0.1-2.3-0.1-4.6-0.2-6.9l-0.1-3.5l0-3.5c-0.3-37,2.7-73.9,6.7-101.4
	c1.9-13.8,4.1-25.1,5.4-33.1C244.8,115.7,245.6,111.1,244.8,110.9L244.8,110.9"/>
<path fill="#871C61" d="M243,389.2c-1.1,0-2.4,0.2-3.7,0.4c0.4,1.4,0.8,2.8,1.1,4c2.2,7.7,3.7,12.1,4.5,12.1l0,0
	c0.7-0.2,0.3-4.9-0.8-12.9c-0.2-1.1-0.3-2.4-0.5-3.6C243.3,389.2,243.2,389.2,243,389.2"/>
<path fill="#CF73BB" d="M185.6,107.3c-8.4,0-18.5,4.2-27.1,12c-14,12.7-18.9,30.1-10.8,38.9c3.1,3.4,7.6,5,12.9,5
	c8.4,0,18.5-4.2,27.1-12c14-12.7,18.9-30.1,10.8-38.9C195.4,108.9,190.9,107.3,185.6,107.3"/>
<path fill="#AB1700" d="M256.5,326.1c6.9,8.4,0.2,23.9-22.5,23.9c-22.7,0-28.3-16.8-22.5-23.9c3.3-4.1,11-2,22.5-2
	C245.5,324.1,253.1,322,256.5,326.1z"/>
<path fill="#FFFFFF" d="M253.3,327.7c0,1.9-8.4,3.4-18.7,3.4c-10.3,0-18.7-1.5-18.7-3.4c0-1.9,8.4-1.4,18.7-1.4
	C244.9,326.2,253.3,325.8,253.3,327.7z"/>
<path fill="#FD6C6C" d="M218.5,343.8c3.5,2.2,8.6,3.7,15.5,3.7c7.7,0,13.3-1.8,17-4.3C237.9,330.5,225.5,337.5,218.5,343.8z"/>
<path fill="#133441" d="M182.8,297.4c-0.2-11.6-12.3-18.2-22.7-19.6c-12.9-1.8-25.2,2.7-32.9,13.3c-6.4,8.9,8.7,17.9,14.8,8.7
	c7.1-10.8,25.8-6.5,34.2,0.3C178.7,302.1,182.9,301,182.8,297.4z"/>
<path fill="#133441" d="M292.2,300.1c8.4-6.8,27.1-11.2,34.2-0.3c6.1,9.3,21.2,0.2,14.8-8.7c-7.7-10.7-20-15.1-32.9-13.3
	c-10.4,1.4-22.5,8-22.7,19.6C285.5,301,289.7,302.1,292.2,300.1z"/>
<path fill="#133441" d="M298.7,234.3c-1.4,6.3,9.4,11,21.8,13.6c11.1,2.3,21.7,5.5,25-2.4C352.3,229.3,303,215.4,298.7,234.3z"/>
<path fill="#133441" d="M122.9,245.5c3.3,7.9,13.9,4.7,25,2.4c12.4-2.6,23.2-7.3,21.8-13.6C165.3,215.4,116.1,229.3,122.9,245.5z"/>
<ellipse fill="#EE927E" cx="337.3" cy="324.6" rx="15.8" ry="8.4"/>
<ellipse fill="#EE927E" cx="131.1" cy="324.6" rx="15.8" ry="8.4"/>
</svg>
