<?xml version="1.0" encoding="utf-8"?>
<!-- Generator: Adobe Illustrator 17.1.0, SVG Export Plug-In . SVG Version: 6.00 Build 0)  -->
<!DOCTYPE svg PUBLIC "-//W3C//DTD SVG 1.1//EN" "http://www.w3.org/Graphics/SVG/1.1/DTD/svg11.dtd">
<svg version="1.1" id="Layer_1" xmlns="http://www.w3.org/2000/svg" xmlns:xlink="http://www.w3.org/1999/xlink" x="0px" y="0px"
	 width="424.9px" height="528.2px" viewBox="0 0 424.9 528.2" enable-background="new 0 0 424.9 528.2" xml:space="preserve">
<path fill="#DBDACB" d="M203.3,477.5c-14.8,0-29.2,0.3-42.8,0.8l0.5,11.4c0.1,1.6-0.6,3.2-1.9,4.2c-0.5,0.4-4.8,3.6-13.3,4.2
	c-0.1,0-0.2,0-0.3,0c-2.6,0-4.8-2-5-4.7c-0.2-2.8,1.9-5.1,4.7-5.3c2.5-0.2,4.4-0.6,5.7-1.1l-0.4-8.1c-66.2,3.4-114,12.9-114,24
	c0,14,74.7,25.3,166.8,25.3s166.8-11.3,166.8-25.3c0-11.3-48.4-20.8-115.2-24.1l-0.4,8.2c1.3,0.5,3.2,0.9,5.7,1.1
	c2.8,0.2,4.8,2.6,4.7,5.3c-0.2,2.6-2.4,4.7-5,4.7c-0.1,0-0.2,0-0.3,0c-8.5-0.6-12.8-3.8-13.3-4.2c-1.3-1-2-2.5-1.9-4.2l0.5-11.4
	C231.5,477.8,217.6,477.5,203.3,477.5"/>
<path fill="#133441" d="M38.4,361.8c-18.9,0-35.1-16.2-38-38.4c-2.8-21.5,8.3-49.8,48.9-58.6c2.7-0.6,5.4,1.1,6,3.8
	c0.6,2.7-1.1,5.4-3.8,6C17.5,282,8,304,10.3,322.2c2,14.9,12.9,30.4,29.1,29.6c2.9-0.1,5.1,2,5.2,4.8c0.1,2.8-2,5.1-4.8,5.2
	C39.4,361.8,38.9,361.8,38.4,361.8"/>
<path fill="#133441" d="M46.6,372.4c-1.5,0-3-0.2-4.5-0.7c-6.4-2-10-8.1-9.6-16.1c0.6-10.4,6.5-13.8,11.4-13.6
	c2.9,0.1,5.7,1.5,7.9,3.5c4.3,1,7.7,3.2,9.7,6.5c2.4,3.8,2.4,8.4,0.2,12C58.5,369.2,52.4,372.4,46.6,372.4"/>
<path fill="#133441" d="M259.9,498.1c-0.1,0-0.2,0-0.3,0c-8.5-0.6-12.8-3.8-13.3-4.2c-1.3-1-2-2.5-1.9-4.2l2.6-58.9
	c0.1-2.8,2.5-4.9,5.2-4.8c2.8,0.1,4.9,2.5,4.8,5.2l-2.5,55.7c1.3,0.5,3.2,0.9,5.7,1.1c2.8,0.2,4.8,2.6,4.7,5.3
	C264.7,496,262.5,498.1,259.9,498.1"/>
<path fill="#133441" d="M145.4,498.1c-2.6,0-4.8-2-5-4.7c-0.2-2.8,1.9-5.1,4.7-5.3c2.5-0.2,4.4-0.6,5.7-1.1l-2.5-55.7
	c-0.1-2.8,2-5.1,4.8-5.2c2.7-0.1,5.1,2,5.2,4.8l2.6,58.9c0.1,1.6-0.6,3.2-1.9,4.2c-0.5,0.4-4.8,3.6-13.3,4.2
	C145.6,498.1,145.5,498.1,145.4,498.1"/>
<path fill="#133441" d="M388.5,305.1c-7.6,0-16.3-2.3-25.6-7.9c-2.4-1.4-3.1-4.5-1.7-6.9s4.5-3.1,6.9-1.7c15.1,9.1,29.6,8.5,39-1.4
	c8.4-8.9,11.6-25.7,1.5-40.6c-1.6-2.3-1-5.4,1.3-7c2.3-1.6,5.4-1,7,1.3c11.6,17,10.6,39.3-2.4,53.1
	C408.5,300.3,399.6,305.1,388.5,305.1"/>
<path fill="#133441" d="M414.2,252.5c-1.1,0.2-2.2,0.3-3.3,0.3c-0.1,0-0.2,0-0.3,0.1c-3.2,0.6-13,2.3-15-5.2c-0.7-2.6,0-6.1,1.5-9.3
	c-0.9-2-1.8-3-2.2-3.1c0,0-0.2,0-0.5,0.2c-3.4,1.3-7.1-0.3-8.5-3.7s0.3-7.1,3.7-8.5c3.9-1.5,7.8-1.4,11.2,0.3
	c2.4,1.2,4.3,3.1,5.8,5.3c3.8-1.4,7.9-1,11.8,1.3c3.6,2.1,5.6,5.7,5.5,9.9c-0.1,4.6-3.1,9.6-6.8,11.5
	C416.2,252,415.2,252.3,414.2,252.5z"/>
<path fill="#8BC34A" d="M257.3,19.3c-28.1,9.5-33.1,34-33.7,38.4c-3.2,2.2-11.1,7.9-13.2,13.1l-0.4,4.6c0,0,8-12.5,14.4-16.3
	c27.3,22.1,83.7-1.9,97.2-38.6c-3.7,1.4-10.1-0.4-18.6-2.2C291.1,15.7,275.3,13.2,257.3,19.3"/>
<path fill="#5F9E28" d="M321.5,20.5c0,0-25.7,17.2-49.2,25.5c-23.5,8.3-48.7,11.7-48.7,11.7l0,0c-2.4,1.6-7.3,5.2-10.6,9
	c-0.5,2.1-0.9,4.2-1.3,6.2c2.7-3.8,8.1-11.1,12.7-13.8c7.2,5.9,16.5,8.5,26.5,8.5C278.5,67.5,311.6,47.4,321.5,20.5"/>
<path fill="#8BC34A" d="M204.2,93.5c-2.5-32.7,5.1-67,21.6-88.6c6.6-8.6,17.8-3.8,17.8-0.4c0,3.4-6.6,5-11,11.4
	c-19.1,27.6-24.6,79.3-24.6,79.3S205.7,112.6,204.2,93.5"/>
<path fill="#5F9E28" d="M235.4,1.5c-3,0-5.3,0.9-5.4,2c-0.1,1.2,2.6,2.4,5.8,2.5c0.2,0,0.5,0,0.7,0c3,0,5.3-0.9,5.4-2
	c0.1-1.2-2.6-2.4-5.8-2.5C235.9,1.5,235.6,1.5,235.4,1.5"/>
<path fill="#AB3689" d="M245.9,80.9c-15.3,0-32.7,8.5-39.8,8.5c-8.5,0-25.9-8.5-39.8-8.5c-71.7,0-129.8,79.8-129.8,178.1
	c0,98.4,58.1,178.1,129.8,178.1c13.9,0,31.9-8.5,39.8-8.5c7.9,0,25.9,8.5,39.8,8.5c71.7,0,129.8-79.8,129.8-178.1
	C375.8,160.7,317.7,80.9,245.9,80.9"/>
<path fill="#BFBFC2" d="M149.6,82.4C149.6,82.4,149.6,82.4,149.6,82.4C149.6,82.4,149.6,82.4,149.6,82.4 M150,82.3
	C150,82.3,150,82.3,150,82.3C150,82.3,150,82.3,150,82.3 M151.3,82.1C151.3,82.1,151.2,82.1,151.3,82.1
	C151.2,82.1,151.3,82.1,151.3,82.1 M151.6,82.1C151.6,82.1,151.6,82.1,151.6,82.1C151.6,82.1,151.6,82.1,151.6,82.1 M152.6,81.9
	C152.5,81.9,152.5,81.9,152.6,81.9C152.5,81.9,152.5,81.9,152.6,81.9 M259.4,81.9C259.4,81.9,259.4,81.9,259.4,81.9
	C259.4,81.9,259.4,81.9,259.4,81.9 M152.9,81.9c0,0-0.1,0-0.1,0C152.8,81.9,152.9,81.9,152.9,81.9 M259.1,81.8
	C259.1,81.8,259.1,81.8,259.1,81.8C259.1,81.8,259.1,81.8,259.1,81.8 M153.3,81.8c0,0-0.1,0-0.1,0C153.2,81.8,153.2,81.8,153.3,81.8
	 M258.1,81.7C258.1,81.7,258.1,81.7,258.1,81.7C258.1,81.7,258.1,81.7,258.1,81.7 M154.2,81.7c0,0-0.1,0-0.1,0
	C154.1,81.7,154.2,81.7,154.2,81.7 M257.8,81.7C257.8,81.7,257.8,81.7,257.8,81.7C257.8,81.7,257.8,81.7,257.8,81.7 M154.6,81.7
	c0,0-0.1,0-0.2,0C154.5,81.7,154.5,81.7,154.6,81.7 M257.4,81.6C257.4,81.6,257.5,81.6,257.4,81.6C257.5,81.6,257.4,81.6,257.4,81.6
	 M154.9,81.6c-0.1,0-0.1,0-0.2,0C154.8,81.6,154.9,81.6,154.9,81.6 M155.5,81.6C155.4,81.6,155.4,81.6,155.5,81.6
	C155.4,81.6,155.4,81.6,155.5,81.6 M256.5,81.5C256.5,81.5,256.5,81.5,256.5,81.5C256.5,81.5,256.5,81.5,256.5,81.5 M155.8,81.5
	c0,0-0.1,0-0.1,0C155.7,81.5,155.8,81.5,155.8,81.5 M256.1,81.5c0,0,0.1,0,0.1,0C256.2,81.5,256.1,81.5,256.1,81.5 M156.2,81.5
	c-0.1,0-0.1,0-0.2,0C156.1,81.5,156.2,81.5,156.2,81.5 M255.7,81.4c0,0,0.1,0,0.1,0C255.8,81.4,255.8,81.4,255.7,81.4 M156.6,81.4
	c-0.1,0-0.1,0-0.2,0C156.5,81.4,156.5,81.4,156.6,81.4 M255.2,81.4c0,0,0.1,0,0.1,0C255.3,81.4,255.2,81.4,255.2,81.4 M157.1,81.4
	c-0.1,0-0.1,0-0.2,0C157,81.4,157.1,81.4,157.1,81.4 M254.8,81.3c0.1,0,0.1,0,0.2,0C254.9,81.4,254.9,81.4,254.8,81.3 M157.5,81.3
	c-0.1,0-0.1,0-0.2,0C157.4,81.4,157.4,81.4,157.5,81.3 M254.4,81.3c0.1,0,0.1,0,0.2,0C254.5,81.3,254.5,81.3,254.4,81.3 M157.9,81.3
	c-0.1,0-0.1,0-0.2,0C157.7,81.3,157.8,81.3,157.9,81.3 M254,81.3c0.1,0,0.1,0,0.2,0C254.2,81.3,254.1,81.3,254,81.3 M158.3,81.3
	c-0.1,0-0.2,0-0.3,0C158.1,81.3,158.2,81.3,158.3,81.3 M253.5,81.2c0.1,0,0.1,0,0.2,0C253.7,81.2,253.6,81.2,253.5,81.2 M158.8,81.2
	c-0.1,0-0.2,0-0.3,0C158.6,81.2,158.7,81.2,158.8,81.2 M253.1,81.2c0.1,0,0.1,0,0.2,0C253.3,81.2,253.2,81.2,253.1,81.2 M159.2,81.2
	c-0.1,0-0.2,0-0.2,0C159,81.2,159.1,81.2,159.2,81.2 M252.7,81.2c0.1,0,0.2,0,0.2,0C252.9,81.2,252.8,81.2,252.7,81.2 M159.6,81.2
	c-0.1,0-0.2,0-0.3,0C159.4,81.2,159.5,81.2,159.6,81.2 M252.2,81.1c0.1,0,0.2,0,0.4,0C252.5,81.2,252.3,81.2,252.2,81.1 M160.1,81.1
	c-0.1,0-0.2,0-0.4,0C159.8,81.2,159.9,81.2,160.1,81.1 M251.9,81.1c0.1,0,0.2,0,0.3,0C252,81.1,251.9,81.1,251.9,81.1 M160.4,81.1
	c-0.1,0-0.2,0-0.3,0C160.3,81.1,160.3,81.1,160.4,81.1 M251.5,81.1c0.1,0,0.1,0,0.2,0C251.6,81.1,251.6,81.1,251.5,81.1 M160.8,81.1
	c-0.1,0-0.2,0-0.2,0C160.7,81.1,160.7,81.1,160.8,81.1 M251.1,81.1c0.1,0,0.2,0,0.2,0C251.2,81.1,251.2,81.1,251.1,81.1 M161.2,81.1
	c-0.1,0-0.2,0-0.3,0C161.1,81.1,161.1,81.1,161.2,81.1 M250.6,81c0.1,0,0.2,0,0.4,0C250.8,81.1,250.7,81.1,250.6,81 M161.7,81
	c-0.1,0-0.2,0-0.4,0C161.5,81.1,161.6,81.1,161.7,81 M250.2,81c0.1,0,0.2,0,0.2,0C250.4,81,250.3,81,250.2,81 M162.1,81
	c-0.1,0-0.2,0-0.3,0C161.9,81,162,81,162.1,81 M249.8,81c0.1,0,0.2,0,0.2,0C250,81,249.9,81,249.8,81 M162.5,81c-0.1,0-0.2,0-0.2,0
	C162.3,81,162.4,81,162.5,81 M249.4,81c0.1,0,0.2,0,0.3,0C249.6,81,249.5,81,249.4,81 M162.9,81c-0.1,0-0.2,0-0.3,0
	C162.7,81,162.8,81,162.9,81 M248.9,81c0.1,0,0.2,0,0.4,0C249.2,81,249,81,248.9,81 M163.4,81c-0.1,0-0.2,0-0.4,0
	C163.1,81,163.3,81,163.4,81 M248.5,81c0.1,0,0.2,0,0.3,0C248.7,81,248.6,81,248.5,81 M163.8,81c-0.1,0-0.2,0-0.3,0
	C163.6,81,163.7,81,163.8,81 M248.1,81c0.1,0,0.2,0,0.2,0C248.3,81,248.2,81,248.1,81 M164.2,81c-0.1,0-0.2,0-0.2,0
	C164,81,164.1,81,164.2,81 M247.7,81c0.1,0,0.2,0,0.3,0C247.9,81,247.8,81,247.7,81 M164.6,81c-0.1,0-0.2,0-0.3,0
	C164.4,81,164.5,81,164.6,81 M247.2,80.9c0.1,0,0.3,0,0.4,0C247.5,80.9,247.4,80.9,247.2,80.9 M165,80.9c-0.1,0-0.3,0-0.4,0
	C164.8,80.9,164.9,80.9,165,80.9 M246.8,80.9c0.1,0,0.2,0,0.3,0C247,80.9,246.9,80.9,246.8,80.9 M165.4,80.9c-0.1,0-0.2,0-0.3,0
	C165.3,80.9,165.4,80.9,165.4,80.9 M246.5,80.9c0.1,0,0.2,0,0.3,0C246.6,80.9,246.5,80.9,246.5,80.9 M165.8,80.9c-0.1,0-0.2,0-0.3,0
	C165.7,80.9,165.7,80.9,165.8,80.9 M166.3,80.9c-0.1,0-0.3,0-0.4,0C166.1,80.9,166.2,80.9,166.3,80.9c12.8,0,28.6,7.2,37.6,8.4l0,0
	C194.9,88.2,179.1,80.9,166.3,80.9 M245.9,80.9c-13.6,0-28.9,6.8-37.1,8.3l0,0C217,87.7,232.3,80.9,245.9,80.9c0.1,0,0.3,0,0.4,0
	C246.2,80.9,246.1,80.9,245.9,80.9"/>
<path fill="#BD55A3" d="M245.9,80.9c-13.6,0-28.9,6.8-37.1,8.3c-1,0.2-1.9,0.3-2.7,0.3c-0.7,0-1.4-0.1-2.2-0.2
	c-9.1-1.1-24.8-8.4-37.6-8.4c-0.1,0-0.3,0-0.4,0c0,0-0.1,0-0.1,0c-0.1,0-0.2,0-0.3,0c0,0-0.1,0-0.1,0c-0.1,0-0.2,0-0.3,0
	c0,0-0.1,0-0.1,0c-0.1,0-0.3,0-0.4,0c0,0,0,0,0,0c-0.1,0-0.2,0-0.3,0c0,0-0.1,0-0.1,0c-0.1,0-0.2,0-0.2,0c-0.1,0-0.1,0-0.1,0
	c-0.1,0-0.2,0-0.3,0c0,0-0.1,0-0.1,0c-0.1,0-0.2,0-0.4,0c0,0-0.1,0-0.1,0c-0.1,0-0.2,0-0.3,0c0,0-0.1,0-0.1,0c-0.1,0-0.2,0-0.2,0
	c0,0-0.1,0-0.1,0c-0.1,0-0.2,0-0.3,0c0,0-0.1,0-0.1,0c-0.1,0-0.2,0-0.4,0c0,0-0.1,0-0.1,0c-0.1,0-0.2,0-0.3,0c-0.1,0-0.1,0-0.2,0
	c-0.1,0-0.2,0-0.2,0c0,0-0.1,0-0.1,0c-0.1,0-0.2,0-0.3,0c0,0-0.1,0-0.1,0c-0.1,0-0.2,0-0.4,0c0,0-0.1,0-0.1,0c-0.1,0-0.2,0-0.3,0
	c-0.1,0-0.1,0-0.2,0c-0.1,0-0.2,0-0.2,0c-0.1,0-0.1,0-0.2,0c-0.1,0-0.2,0-0.3,0c-0.1,0-0.1,0-0.2,0c-0.1,0-0.2,0-0.3,0
	c-0.1,0-0.1,0-0.2,0c-0.1,0-0.1,0-0.2,0c-0.1,0-0.1,0-0.2,0c-0.1,0-0.1,0-0.2,0c-0.1,0-0.1,0-0.2,0c-0.1,0-0.1,0-0.2,0
	c-0.1,0-0.2,0-0.3,0c-0.1,0-0.1,0-0.2,0c-0.1,0-0.1,0-0.2,0c-0.1,0-0.1,0-0.2,0c-0.1,0-0.1,0-0.2,0c0,0-0.1,0-0.1,0
	c-0.1,0-0.2,0-0.2,0c0,0-0.1,0-0.1,0c-0.1,0-0.3,0-0.4,0.1c-0.1,0-0.1,0-0.2,0c-0.1,0-0.1,0-0.2,0c0,0-0.1,0-0.2,0
	c-0.1,0-0.1,0-0.2,0c0,0-0.1,0-0.1,0c-0.3,0-0.5,0.1-0.8,0.1c0,0-0.1,0-0.1,0c-0.1,0-0.2,0-0.2,0c0,0-0.1,0-0.1,0
	c-0.1,0-0.2,0-0.2,0c0,0-0.1,0-0.1,0c-0.3,0-0.6,0.1-0.9,0.1c0,0,0,0-0.1,0c-0.1,0-0.2,0-0.3,0c0,0,0,0-0.1,0
	c-0.4,0.1-0.8,0.1-1.2,0.2c0,0,0,0,0,0c-0.1,0-0.2,0-0.3,0.1c0,0,0,0,0,0c-49.4,8.7-90.2,55.6-106,118.4
	c20.1-63.8,67.2-108.6,122-108.6c14.2,0,31.9,8.5,40.6,8.5c7.2,0,25-8.5,40.6-8.5c54.8,0,101.8,44.8,121.9,108.6
	c-16.2-64.2-58.3-111.7-109.2-119c0,0,0,0-0.1,0c-0.1,0-0.2,0-0.3,0c0,0,0,0,0,0c-0.3,0-0.6-0.1-0.9-0.1c0,0,0,0-0.1,0
	c-0.1,0-0.2,0-0.3,0c0,0-0.1,0-0.1,0c-0.1,0-0.2,0-0.3,0c0,0,0,0-0.1,0c-0.3,0-0.6-0.1-0.9-0.1c0,0-0.1,0-0.1,0c-0.1,0-0.2,0-0.2,0
	c0,0-0.1,0-0.1,0c-0.1,0-0.2,0-0.2,0c0,0-0.1,0-0.1,0c-0.1,0-0.3,0-0.4,0c0,0-0.1,0-0.1,0c-0.1,0-0.1,0-0.2,0c-0.1,0-0.1,0-0.2,0
	c-0.1,0-0.1,0-0.2,0c-0.1,0-0.1,0-0.2,0c-0.1,0-0.1,0-0.2,0c-0.1,0-0.1,0-0.2,0c-0.1,0-0.2,0-0.3,0c-0.1,0-0.1,0-0.2,0
	c-0.1,0-0.1,0-0.2,0c-0.1,0-0.1,0-0.2,0c-0.1,0-0.1,0-0.2,0c-0.1,0-0.2,0-0.2,0c-0.1,0-0.1,0-0.1,0c-0.1,0-0.2,0-0.4,0
	c0,0-0.1,0-0.1,0c-0.1,0-0.2,0-0.3,0c-0.1,0-0.1,0-0.2,0c-0.1,0-0.1,0-0.2,0c-0.1,0-0.1,0-0.2,0c-0.1,0-0.2,0-0.2,0c0,0-0.1,0-0.1,0
	c-0.1,0-0.2,0-0.4,0c0,0-0.1,0-0.1,0c-0.1,0-0.2,0-0.2,0c-0.1,0-0.1,0-0.2,0c-0.1,0-0.2,0-0.2,0c0,0-0.1,0-0.2,0c-0.1,0-0.2,0-0.3,0
	c0,0-0.1,0-0.1,0c-0.1,0-0.2,0-0.4,0c0,0-0.1,0-0.1,0c-0.1,0-0.2,0-0.3,0c-0.1,0-0.1,0-0.1,0c-0.1,0-0.2,0-0.2,0c0,0-0.1,0-0.1,0
	c-0.1,0-0.2,0-0.3,0c0,0,0,0-0.1,0c-0.1,0-0.3,0-0.4,0c0,0-0.1,0-0.1,0c-0.1,0-0.2,0-0.3,0c0,0-0.1,0-0.1,0c-0.1,0-0.2,0-0.3,0
	c0,0-0.1,0-0.1,0C246.2,80.9,246.1,80.9,245.9,80.9"/>
<path fill="#E3B6D6" d="M375.8,258.3C375.8,258.4,375.8,258.4,375.8,258.3C375.8,258.4,375.8,258.4,375.8,258.3 M375.8,257.8
	L375.8,257.8C375.8,257.8,375.8,257.8,375.8,257.8"/>
<path fill="#982773" d="M374.9,238.4c-8.1,89.4-78.7,160.3-145.7,160.3c-13.6,0-27.9-9.2-36-9.5c0.2,1.3,0.4,2.5,0.5,3.6
	c1.2,8.1,1.5,12.8,0.8,12.9l0,0c-0.7,0-2.3-4.4-4.5-12.1c-0.4-1.2-0.7-2.6-1.1-4c-8.4,1.7-21.2,7.8-33.2,7.8
	c-66.6,0-112.4-68.8-118.6-157.3c-0.5,6.2-0.7,12.5-0.7,18.9l0,0c0,95.3,54.6,173.1,123.2,177.9c-68.6-4.8-123.2-82.6-123.2-177.9
	c0-2.8,0.1-5.7,0.2-8.5c3.4,94.2,60.2,169.2,129.7,169.2c13.9,0,31.9-8.5,39.8-8.5c7.9,0,25.9,8.5,39.8,8.5
	c69.4,0,126.1-74.8,129.7-168.8c0.1,2.7,0.2,5.4,0.2,8.2c0,96.8-56.3,175.6-126.5,178.1c70.2-2.4,126.5-81.2,126.5-178.1l0,0
	c0-0.2,0-0.4,0-0.6c0,0,0,0,0-0.1c0-0.2,0-0.4,0-0.6v0C375.8,251.2,375.5,244.8,374.9,238.4"/>
<path fill="#871C61" d="M36.7,250.6c-0.1,2.8-0.2,5.6-0.2,8.5c0,95.3,54.6,173.1,123.2,177.9c2.2,0.2,4.4,0.2,6.7,0.2
	c13.9,0,31.9-8.5,39.8-8.5c7.9,0,25.9,8.5,39.8,8.5c1.1,0,2.2,0,3.4-0.1c70.2-2.4,126.5-81.2,126.5-178.1c0-2.7-0.1-5.5-0.2-8.2
	c-3.5,94.1-60.2,168.8-129.7,168.8c-13.9,0-31.9-8.5-39.8-8.5c-7.9,0-25.9,8.5-39.8,8.5C96.8,419.7,40.1,344.8,36.7,250.6"/>
<path fill="#982773" d="M194.6,110.9c-0.7,0-2.7,4.3-5.2,11.9c-2.4,7.8-5.5,19.2-8.1,33c-5.5,27.6-9.2,65-8.9,102.5l0,3.5l0.1,3.5
	c0.1,2.3,0.2,4.7,0.2,7c0.2,4.7,0.3,9.3,0.5,13.9c0.6,9.2,1.4,18.2,2.2,27c0.1,2.2,0.5,4.3,0.7,6.5c0.3,2.1,0.6,4.3,0.8,6.4
	c0.6,4.2,1.1,8.3,1.6,12.3c0.3,2,0.5,4,0.8,5.9c0.4,1.9,0.7,3.8,1,5.7c0.7,3.7,1.4,7.3,2,10.8c0.7,3.4,1.3,6.7,1.9,9.9
	c0.3,1.6,0.6,3.1,0.9,4.6c0.4,1.5,0.7,2.9,1.1,4.3c1,3.8,1.9,7.2,2.7,10.3c1.4-0.3,2.6-0.4,3.7-0.4c0.2,0,0.3,0,0.5,0
	c-0.5-3.2-1.1-6.8-1.8-10.8c-0.2-1.4-0.5-2.8-0.8-4.3c-0.2-1.5-0.4-3-0.6-4.6c-0.4-3.1-0.9-6.4-1.3-9.9c-0.5-3.4-1-7-1.5-10.7
	c-0.3-1.9-0.5-3.7-0.8-5.6c-0.2-1.9-0.4-3.9-0.6-5.9c-0.4-4-0.8-8-1.3-12.2c-0.2-2.1-0.4-4.2-0.7-6.3c-0.2-2.1-0.5-4.3-0.6-6.4
	c-0.5-8.7-1.2-17.6-1.7-26.7c-0.1-4.6-0.3-9.1-0.4-13.7c-0.1-2.3-0.1-4.6-0.2-6.9l-0.1-3.5l0-3.5c-0.3-37,2.7-73.9,6.7-101.4
	c1.9-13.7,4.1-25.1,5.4-33.1C194.5,115.7,195.3,111.1,194.6,110.9L194.6,110.9"/>
<path fill="#871C61" d="M192.8,389.2c-1.1,0-2.4,0.2-3.7,0.4c0.4,1.4,0.8,2.8,1.1,4c2.2,7.7,3.7,12.1,4.5,12.1l0,0
	c0.7-0.2,0.3-4.9-0.8-12.9c-0.2-1.1-0.3-2.4-0.5-3.6C193.1,389.2,192.9,389.2,192.8,389.2"/>
<path fill="#CF73BB" d="M135.4,107.3c-8.4,0-18.5,4.2-27.1,12c-14,12.7-18.9,30.1-10.8,38.9c3.1,3.4,7.6,5,12.9,5
	c8.4,0,18.5-4.2,27.1-12c14-12.7,18.9-30.1,10.8-38.9C145.2,108.9,140.6,107.3,135.4,107.3"/>
<path fill="#FFFFFF" d="M64.2,255.2c0.9,20,17.8,35.6,37.9,34.7c20.1-0.9,35.6-17.8,34.8-37.9C136,232,119,216.4,99,217.3
	C78.9,218.2,63.3,235.1,64.2,255.2z"/>
<path fill="#133441" d="M127.7,253.5c-0.6-13.8-12.3-24.5-26.1-23.9c-13.8,0.6-24.6,12.3-24,26.1c0.6,13.8,12.3,24.5,26.1,23.9
	C117.6,278.9,128.3,267.3,127.7,253.5z M99.6,252c-3.9,4.4-10,5.4-13.6,2.2c-3.7-3.2-3.5-9.4,0.4-13.8c3.9-4.4,10-5.4,13.6-2.2
	C103.7,241.4,103.5,247.6,99.6,252z M118.9,268.6c-2.2,2.5-5.8,3.1-7.9,1.2c-2.1-1.9-2-5.4,0.2-8c2.2-2.5,5.8-3.1,7.9-1.2
	C121.3,262.5,121.2,266.1,118.9,268.6z"/>
<path fill="#FFFFFF" d="M220.7,255.2c0.9,20,17.8,35.6,37.9,34.7c20.1-0.9,35.6-17.8,34.8-37.9c-0.9-20-17.8-35.6-37.9-34.7
	C235.4,218.2,219.8,235.1,220.7,255.2z"/>
<path fill="#133441" d="M282,252.5c-0.6-13.8-12.3-24.5-26.1-23.9c-13.8,0.6-24.6,12.3-24,26.1c0.6,13.8,12.3,24.5,26.1,23.9
	C271.9,278,282.6,266.3,282,252.5z M254.3,249.6c-4.4,3.9-10.6,4.1-13.8,0.4c-3.2-3.6-2.3-9.7,2.1-13.6s10.6-4.1,13.8-0.4
	C259.6,239.6,258.7,245.7,254.3,249.6z M274.9,266.8c-2.2,2.5-5.8,3.1-7.9,1.2c-2.1-1.9-2-5.4,0.2-8c2.2-2.5,5.8-3.1,7.9-1.2
	C277.3,260.7,277.2,264.2,274.9,266.8z"/>
<path fill="#133441" d="M230.6,185.2c-0.8,6.4,10.4,10.1,22.9,11.5c11.2,1.2,22.1,3.5,24.7-4.7C283.5,175.2,233.1,166,230.6,185.2z"
	/>
<path fill="#133441" d="M79.3,191.8c2.5,8.2,13.4,6,24.6,4.9c12.6-1.3,23.8-5,23-11.4C124.6,166.1,74.1,175,79.3,191.8z"/>
<ellipse fill="#EE927E" cx="280.4" cy="299.5" rx="15.8" ry="8.5"/>
<ellipse fill="#EE927E" cx="74.1" cy="299.5" rx="15.8" ry="8.5"/>
<path fill="#133441" d="M198.7,286.5c-2.2-8.9-12.3-12.9-20.7-13.4c-6.9-0.4-24,3.4-22.8,13.1c0.2,1.6,1.7,3.5,3.6,2.7
	c3.3-1.2,4.6-4.4,7.5-6.3c3.3-2,7.2-2.8,11-2.7c6.9,0.1,14.2,2.6,18.6,8.1C197,289.5,199.1,288,198.7,286.5z"/>
</svg>
