<?xml version="1.0" encoding="utf-8"?>
<!-- Generator: Adobe Illustrator 17.1.0, SVG Export Plug-In . SVG Version: 6.00 Build 0)  -->
<!DOCTYPE svg PUBLIC "-//W3C//DTD SVG 1.1//EN" "http://www.w3.org/Graphics/SVG/1.1/DTD/svg11.dtd">
<svg version="1.1" id="Layer_1" xmlns="http://www.w3.org/2000/svg" xmlns:xlink="http://www.w3.org/1999/xlink" x="0px" y="0px"
	 width="433.1px" height="580.4px" viewBox="0 0 433.1 580.4" enable-background="new 0 0 433.1 580.4" xml:space="preserve">
<g>
	<path fill="#DBDACB" d="M210.2,529.7c-92.1,0-166.8,11.3-166.8,25.3s74.7,25.3,166.8,25.3S377,569,377,555S302.3,529.7,210.2,529.7
		"/>
	<path fill="#133441" d="M244.1,497.9c-1.5,0-2.9-0.7-3.9-1.9c-3.7-5-3.3-16-3-20.5c0.1-1.3,0.7-2.6,1.8-3.4c1-0.9,2.3-1.3,3.7-1.2
		c10.9,0.9,43,0.7,46.6-12.5c4.4-16-21.4-29.3-21.6-29.5c-2.5-1.3-3.4-4.3-2.2-6.7c1.3-2.5,4.2-3.4,6.7-2.2
		c1.4,0.7,33.3,17.2,26.7,41.1c-5.4,19.7-38.4,20.6-51.9,20.1c0,4.1,0.5,7.8,1.2,8.8c1.5,2.3,1,5.4-1.2,7
		C246.1,497.6,245.1,497.9,244.1,497.9"/>
	<path fill="#133441" d="M182.4,498c-1,0-2.1-0.3-3-1c-2.2-1.7-2.7-4.8-1-7c0.7-1,1.1-4.7,1.2-8.8c-13.5,0.5-46.4-0.4-51.9-20.1
		c-6.5-23.8,25.4-40.4,26.7-41.1c2.5-1.2,5.5-0.3,6.7,2.2c1.3,2.5,0.3,5.5-2.2,6.7c-0.3,0.1-26,13.5-21.6,29.5
		c3.6,13.1,35.7,13.4,46.6,12.5c1.3-0.1,2.7,0.3,3.7,1.2c1,0.9,1.6,2.1,1.8,3.4c0.3,4.5,0.8,15.5-3,20.5
		C185.4,497.3,183.9,498,182.4,498"/>
	<path fill="#133441" d="M374.6,415.2c-20.2,0-34.6-33.5-36.2-37.5c-1.1-2.6,0.2-5.5,2.7-6.5c2.6-1.1,5.5,0.2,6.5,2.7
		c3.6,8.8,16.8,33.5,28.6,31.2c12.2-2.4,17.8-29.4,18.8-38.7c0.3-2.8,2.8-4.7,5.5-4.5c2.7,0.3,4.7,2.8,4.5,5.5
		c-0.5,4.4-5.2,43.3-26.8,47.4C377,415.1,375.8,415.2,374.6,415.2"/>
	<path fill="#133441" d="M402.1,370c-0.8,0-1.6,0-2.3-0.1c-12.8-1.1-15.5-7.3-16-10.8c-0.8-6.5,4.7-12.6,10.6-14.7
		c2.6-0.9,5.5,0.4,6.4,3c0.9,2.6-0.4,5.5-3,6.4c-2.7,1-4.1,3.4-4,4c0.1,0.3,1.7,1.7,6.9,2.1c6.2,0.5,11.6-2.5,13.1-4.4
		c-0.7-0.4-2-0.9-4.6-1.3c-2.7-0.4-4.6-3-4.2-5.7c0.4-2.7,3-4.6,5.7-4.2c13.5,2,13.6,9.6,13.4,11.8C423.2,363.8,412.9,370,402.1,370
		z"/>
	<path fill="#133441" d="M423.5,381.2l-0.2,0c-12.5-0.6-26.4-9.2-27.9-13.2c-0.7-1.9-0.2-4.1,1.2-5.5c0.6-0.6,2.7-2.3,5.8-1
		c5.3,2.1,17.9,0.2,24.6-1.4c2.7-0.7,5.4,1,6.1,3.6c0.7,2.7-0.9,5.4-3.6,6.1c-0.7,0.2-3.1,0.8-6.4,1.4c0.3,0,0.6,0,0.9,0.1
		c2.8,0.1,4.9,2.5,4.8,5.2C428.4,379.1,426.2,381.2,423.5,381.2z"/>
	<path fill="#133441" d="M58.5,411.1c-1.2,0-2.3-0.1-3.5-0.3c-21.6-4.2-26.3-43-26.8-47.4c-0.3-2.7,1.7-5.2,4.4-5.5
		c2.7-0.3,5.2,1.7,5.5,4.4c1,9.3,6.6,36.3,18.8,38.7c11.9,2.3,24.9-22.4,28.6-31.2c1.1-2.6,4-3.8,6.5-2.7c2.6,1.1,3.8,4,2.7,6.5
		C93.1,377.6,78.7,411.1,58.5,411.1"/>
	<path fill="#133441" d="M31,365.9c-10.7,0-21.1-6.3-21.9-13.8c-0.3-2.3-0.1-9.8,13.4-11.8c2.7-0.4,5.3,1.5,5.7,4.2
		c0.4,2.7-1.5,5.3-4.2,5.7c-2.5,0.4-3.9,0.9-4.6,1.3c1.5,1.9,6.9,4.9,13.1,4.4c5.2-0.5,6.8-1.8,6.9-2.2c0.1-0.6-1.3-3-4-4
		c-2.6-0.9-4-3.8-3-6.4c0.9-2.6,3.8-4,6.4-3c5.9,2.1,11.4,8.2,10.6,14.7c-0.5,3.6-3.2,9.7-16,10.8C32.5,365.9,31.8,365.9,31,365.9z"
		/>
	<path fill="#133441" d="M9.6,377.1c-2.7,0-4.9-2.1-5-4.8c-0.1-2.8,2-5.1,4.8-5.2c0.3,0,0.6,0,0.9-0.1c-3.3-0.6-5.8-1.2-6.4-1.4
		c-2.7-0.7-4.3-3.4-3.6-6.1c0.7-2.7,3.4-4.3,6.1-3.6c6.7,1.7,19.3,3.6,24.6,1.4c3.1-1.3,5.2,0.4,5.8,1c1.4,1.4,1.9,3.6,1.2,5.5
		c-1.5,4-15.4,12.6-27.9,13.2L9.6,377.1z"/>
	<path fill="#8BC34A" d="M267.7,19.3c-28.1,9.5-33.1,34-33.7,38.4c-3.2,2.2-11.1,7.9-13.2,13.1l-0.4,4.6c0,0,8-12.5,14.4-16.3
		c27.3,22.1,83.7-1.9,97.2-38.6c-3.7,1.4-10.1-0.4-18.6-2.2C301.4,15.7,285.7,13.2,267.7,19.3"/>
	<path fill="#5F9E28" d="M331.9,20.5c0,0-25.7,17.2-49.2,25.5C259.2,54.3,234,57.7,234,57.7l0,0c-2.4,1.6-7.3,5.2-10.6,9
		c-0.5,2.1-0.9,4.2-1.3,6.2c2.7-3.8,8.1-11,12.7-13.8c7.2,5.9,16.5,8.5,26.5,8.5C288.9,67.5,322,47.4,331.9,20.5"/>
	<path fill="#8BC34A" d="M214.6,93.5c-2.5-32.7,5.1-67,21.6-88.6C242.8-3.8,254,1,254,4.4s-6.6,5-11,11.5
		c-19.1,27.6-24.6,79.3-24.6,79.3S216.1,112.6,214.6,93.5"/>
	<path fill="#5F9E28" d="M245.8,1.5c-3,0-5.3,0.9-5.4,2c-0.1,1.2,2.6,2.4,5.8,2.5c0.2,0,0.5,0,0.7,0c3,0,5.3-0.9,5.4-2
		c0.1-1.2-2.6-2.4-5.8-2.5C246.2,1.5,246,1.5,245.8,1.5"/>
	<path fill="#AB3689" d="M256.3,80.9c-15.3,0-32.7,8.5-39.8,8.5c-8.5,0-25.9-8.5-39.8-8.5c-71.7,0-129.8,79.8-129.8,178.1
		c0,98.4,58.1,178.1,129.8,178.1c13.9,0,31.9-8.5,39.8-8.5c7.9,0,25.9,8.5,39.8,8.5c71.7,0,129.8-79.8,129.8-178.1
		C386.2,160.7,328,80.9,256.3,80.9"/>
	<path fill="#BFBFC2" d="M155.5,83.3C155.5,83.3,155.5,83.3,155.5,83.3C155.5,83.3,155.5,83.3,155.5,83.3 M276.2,83
		C276.2,83,276.2,83,276.2,83C276.2,83,276.2,83,276.2,83 M156.8,83C156.8,83,156.8,83,156.8,83C156.8,83,156.8,83,156.8,83
		 M275.9,83C275.9,83,275.9,83,275.9,83C275.9,83,275.9,83,275.9,83 M157.2,82.9C157.1,83,157.1,83,157.2,82.9
		C157.1,83,157.1,83,157.2,82.9 M157.4,82.9C157.4,82.9,157.4,82.9,157.4,82.9C157.4,82.9,157.4,82.9,157.4,82.9 M274.6,82.7
		C274.6,82.7,274.6,82.7,274.6,82.7C274.6,82.7,274.6,82.7,274.6,82.7 M158.4,82.7C158.4,82.7,158.4,82.7,158.4,82.7
		C158.4,82.7,158.4,82.7,158.4,82.7 M274.3,82.6C274.3,82.6,274.3,82.6,274.3,82.6C274.3,82.6,274.3,82.6,274.3,82.6 M158.8,82.6
		c0,0-0.1,0-0.1,0C158.7,82.6,158.7,82.6,158.8,82.6 M159,82.6C159,82.6,159,82.6,159,82.6C159,82.6,159,82.6,159,82.6 M273.3,82.5
		C273.3,82.5,273.4,82.5,273.3,82.5C273.4,82.5,273.3,82.5,273.3,82.5 M159.7,82.5C159.7,82.5,159.6,82.5,159.7,82.5
		C159.6,82.5,159.7,82.5,159.7,82.5 M273,82.4c0,0,0.1,0,0.1,0C273,82.4,273,82.4,273,82.4 M160.1,82.4c0,0-0.1,0-0.1,0
		C160,82.4,160,82.4,160.1,82.4 M272.6,82.3C272.7,82.3,272.7,82.3,272.6,82.3C272.7,82.3,272.7,82.3,272.6,82.3 M160.4,82.3
		c0,0-0.1,0-0.1,0C160.3,82.3,160.4,82.3,160.4,82.3 M160.6,82.3L160.6,82.3L160.6,82.3 M271.7,82.2
		C271.7,82.2,271.8,82.2,271.7,82.2C271.8,82.2,271.7,82.2,271.7,82.2 M161.3,82.2c0,0-0.1,0-0.1,0
		C161.2,82.2,161.3,82.2,161.3,82.2 M271.4,82.1c0,0,0.1,0,0.1,0C271.4,82.1,271.4,82.1,271.4,82.1 M161.7,82.1c-0.1,0-0.1,0-0.2,0
		C161.6,82.1,161.6,82.1,161.7,82.1 M271,82.1c0,0,0.1,0,0.1,0C271.1,82.1,271,82.1,271,82.1 M162.1,82.1c-0.1,0-0.1,0-0.2,0
		C161.9,82.1,162,82.1,162.1,82.1 M162.6,82c-0.1,0-0.2,0-0.3,0C162.4,82,162.5,82,162.6,82 M270.1,81.9c0,0,0.1,0,0.2,0
		C270.2,81.9,270.1,81.9,270.1,81.9 M162.9,81.9c-0.1,0-0.1,0-0.2,0C162.8,81.9,162.9,81.9,162.9,81.9 M269.7,81.9
		c0.1,0,0.1,0,0.2,0C269.8,81.9,269.8,81.9,269.7,81.9 M163.3,81.9c-0.1,0-0.1,0-0.2,0C163.2,81.9,163.3,81.9,163.3,81.9
		 M269.3,81.8c0.1,0,0.1,0,0.2,0C269.5,81.8,269.4,81.8,269.3,81.8 M163.7,81.8c-0.1,0-0.1,0-0.2,0
		C163.6,81.8,163.6,81.8,163.7,81.8 M268.8,81.8c0.1,0,0.2,0,0.3,0C269,81.8,268.9,81.8,268.8,81.8 M164.2,81.8c-0.1,0-0.2,0-0.3,0
		C164,81.8,164.1,81.8,164.2,81.8 M268.4,81.7c0.1,0,0.1,0,0.2,0C268.6,81.7,268.5,81.7,268.4,81.7 M164.6,81.7c-0.1,0-0.1,0-0.2,0
		C164.4,81.7,164.5,81.7,164.6,81.7 M268.1,81.7c0.1,0,0.1,0,0.2,0C268.2,81.7,268.1,81.7,268.1,81.7 M165,81.7c-0.1,0-0.1,0-0.2,0
		C164.8,81.7,164.9,81.7,165,81.7 M267.7,81.6c0.1,0,0.1,0,0.2,0C267.8,81.6,267.7,81.6,267.7,81.6 M165.4,81.6c-0.1,0-0.2,0-0.2,0
		C165.2,81.6,165.3,81.6,165.4,81.6 M267.2,81.6c0.1,0,0.1,0,0.2,0C267.3,81.6,267.2,81.6,267.2,81.6 M165.8,81.6
		c-0.1,0-0.2,0-0.3,0C165.7,81.6,165.8,81.6,165.8,81.6 M266.8,81.5c0.1,0,0.1,0,0.2,0C266.9,81.5,266.9,81.5,266.8,81.5
		 M166.2,81.5c-0.1,0-0.1,0-0.2,0C166.1,81.5,166.2,81.5,166.2,81.5 M266.4,81.5c0.1,0,0.1,0,0.2,0
		C266.5,81.5,266.5,81.5,266.4,81.5 M166.6,81.5c-0.1,0-0.1,0-0.2,0C166.5,81.5,166.5,81.5,166.6,81.5 M266,81.4c0.1,0,0.2,0,0.3,0
		C266.2,81.4,266.1,81.4,266,81.4 M167,81.4c-0.1,0-0.2,0-0.3,0C166.9,81.4,167,81.4,167,81.4 M265.5,81.4c0.1,0,0.2,0,0.3,0
		C265.7,81.4,265.6,81.4,265.5,81.4 M167.5,81.4c-0.1,0-0.2,0-0.3,0C167.3,81.4,167.4,81.4,167.5,81.4 M265.1,81.3
		c0.1,0,0.2,0,0.2,0C265.3,81.4,265.2,81.4,265.1,81.3 M167.9,81.3c-0.1,0-0.2,0-0.2,0C167.7,81.4,167.8,81.4,167.9,81.3
		 M264.8,81.3c0.1,0,0.2,0,0.2,0C264.9,81.3,264.8,81.3,264.8,81.3 M168.3,81.3c-0.1,0-0.2,0-0.2,0
		C168.1,81.3,168.2,81.3,168.3,81.3 M264.3,81.3c0.1,0,0.2,0,0.3,0C264.5,81.3,264.4,81.3,264.3,81.3 M168.7,81.3
		c-0.1,0-0.2,0-0.3,0C168.5,81.3,168.6,81.3,168.7,81.3 M263.9,81.2c0.1,0,0.2,0,0.3,0C264.1,81.3,264,81.2,263.9,81.2 M169.2,81.2
		c-0.1,0-0.2,0-0.3,0C169,81.3,169.1,81.2,169.2,81.2 M263.5,81.2c0.1,0,0.2,0,0.2,0C263.6,81.2,263.6,81.2,263.5,81.2 M169.5,81.2
		c-0.1,0-0.2,0-0.2,0C169.4,81.2,169.5,81.2,169.5,81.2 M263.1,81.2c0.1,0,0.2,0,0.3,0C263.3,81.2,263.2,81.2,263.1,81.2
		 M169.9,81.2c-0.1,0-0.2,0-0.3,0C169.8,81.2,169.9,81.2,169.9,81.2 M262.6,81.1c0.1,0,0.2,0,0.4,0
		C262.8,81.2,262.7,81.2,262.6,81.1 M170.4,81.1c-0.1,0-0.3,0-0.4,0C170.2,81.2,170.3,81.2,170.4,81.1 M262.2,81.1
		c0.1,0,0.2,0,0.3,0C262.4,81.1,262.3,81.1,262.2,81.1 M170.8,81.1c-0.1,0-0.2,0-0.3,0C170.6,81.1,170.7,81.1,170.8,81.1
		 M261.8,81.1c0.1,0,0.2,0,0.2,0C262,81.1,261.9,81.1,261.8,81.1 M171.2,81.1c-0.1,0-0.2,0-0.2,0C171,81.1,171.1,81.1,171.2,81.1
		 M261.4,81.1c0.1,0,0.2,0,0.3,0C261.6,81.1,261.5,81.1,261.4,81.1 M171.6,81.1c-0.1,0-0.2,0-0.3,0
		C171.4,81.1,171.5,81.1,171.6,81.1 M260.9,81.1c0.1,0,0.2,0,0.4,0C261.2,81.1,261.1,81.1,260.9,81.1 M172.1,81.1
		c-0.1,0-0.2,0-0.4,0C171.8,81.1,172,81.1,172.1,81.1 M260.6,81c0.1,0,0.2,0,0.3,0C260.7,81,260.6,81,260.6,81 M172.5,81
		c-0.1,0-0.2,0-0.3,0C172.3,81,172.4,81,172.5,81 M260.2,81c0.1,0,0.2,0,0.2,0C260.3,81,260.3,81,260.2,81 M172.9,81
		c-0.1,0-0.2,0-0.2,0C172.7,81,172.8,81,172.9,81 M259.7,81c0.1,0,0.2,0,0.3,0C259.9,81,259.8,81,259.7,81 M173.3,81
		c-0.1,0-0.2,0-0.3,0C173.1,81,173.2,81,173.3,81 M259.3,81c0.1,0,0.2,0,0.4,0C259.5,81,259.4,81,259.3,81 M173.7,81
		c-0.1,0-0.2,0-0.4,0C173.5,81,173.6,81,173.7,81 M258.9,81c0.1,0,0.2,0,0.3,0C259.1,81,259,81,258.9,81 M174.1,81
		c-0.1,0-0.2,0-0.3,0C174,81,174,81,174.1,81 M258.5,81c0.1,0,0.2,0,0.2,0C258.7,81,258.6,81,258.5,81 M174.5,81c-0.1,0-0.2,0-0.2,0
		C174.4,81,174.4,81,174.5,81 M258,81c0.1,0,0.2,0,0.3,0C258.3,81,258.1,81,258,81 M175,81c-0.1,0-0.2,0-0.3,0
		C174.8,81,174.9,81,175,81 M175.4,80.9c-0.1,0-0.3,0-0.4,0C175.2,81,175.3,80.9,175.4,80.9 M257.6,80.9c0.1,0,0.3,0,0.4,0
		C257.9,81,257.7,80.9,257.6,80.9 M257.2,80.9c0.1,0,0.2,0,0.3,0C257.4,80.9,257.3,80.9,257.2,80.9 M175.8,80.9c-0.1,0-0.2,0-0.3,0
		C175.6,80.9,175.7,80.9,175.8,80.9 M176.2,80.9c-0.1,0-0.2,0-0.3,0C176,80.9,176.1,80.9,176.2,80.9 M256.8,80.9c0.1,0,0.2,0,0.3,0
		C257,80.9,256.9,80.9,256.8,80.9 M176.7,80.9c-0.1,0-0.3,0-0.4,0C176.5,80.9,176.6,80.9,176.7,80.9c12.8,0,28.6,7.2,37.6,8.4l0,0
		C205.3,88.2,189.5,80.9,176.7,80.9 M256.3,80.9c-13.6,0-28.9,6.8-37.1,8.3l0,0C227.4,87.7,242.7,80.9,256.3,80.9c0.1,0,0.3,0,0.4,0
		C256.6,80.9,256.4,80.9,256.3,80.9"/>
	<path fill="#BD55A3" d="M256.3,80.9c-13.6,0-28.9,6.8-37.1,8.3c-1,0.2-1.9,0.3-2.7,0.3c-0.7,0-1.4-0.1-2.2-0.2
		c-9.1-1.1-24.8-8.4-37.6-8.4c-0.1,0-0.3,0-0.4,0c0,0-0.1,0-0.1,0c-0.1,0-0.2,0-0.3,0c0,0-0.1,0-0.1,0c-0.1,0-0.2,0-0.3,0
		c0,0-0.1,0-0.1,0c-0.1,0-0.3,0-0.4,0c0,0,0,0,0,0c-0.1,0-0.2,0-0.3,0c0,0-0.1,0-0.1,0c-0.1,0-0.2,0-0.2,0c-0.1,0-0.1,0-0.1,0
		c-0.1,0-0.2,0-0.3,0c0,0-0.1,0-0.1,0c-0.1,0-0.3,0-0.4,0c0,0-0.1,0-0.1,0c-0.1,0-0.2,0-0.3,0c0,0-0.1,0-0.1,0c-0.1,0-0.2,0-0.2,0
		c0,0-0.1,0-0.1,0c-0.1,0-0.2,0-0.3,0c0,0-0.1,0-0.1,0c-0.1,0-0.2,0-0.4,0c0,0-0.1,0-0.1,0c-0.1,0-0.2,0-0.3,0c-0.1,0-0.1,0-0.2,0
		c-0.1,0-0.2,0-0.2,0c0,0-0.1,0-0.1,0c-0.1,0-0.2,0-0.3,0c0,0-0.1,0-0.1,0c-0.1,0-0.2,0-0.4,0c0,0-0.1,0-0.1,0c-0.1,0-0.2,0-0.3,0
		c0,0-0.1,0-0.1,0c-0.1,0-0.2,0-0.2,0c0,0-0.1,0-0.1,0c-0.1,0-0.2,0-0.3,0c0,0-0.1,0-0.1,0c-0.1,0-0.2,0-0.3,0c0,0-0.1,0-0.1,0
		c-0.1,0-0.2,0-0.2,0c-0.1,0-0.1,0-0.2,0c-0.1,0-0.2,0-0.2,0c-0.1,0-0.1,0-0.1,0c-0.1,0-0.2,0-0.3,0c-0.1,0-0.1,0-0.2,0
		c-0.1,0-0.2,0-0.3,0c-0.1,0-0.1,0-0.2,0c-0.1,0-0.1,0-0.2,0c-0.1,0-0.1,0-0.2,0c-0.1,0-0.1,0-0.2,0c-0.1,0-0.1,0-0.2,0
		c-0.1,0-0.2,0-0.3,0c-0.1,0-0.2,0-0.2,0c-0.1,0-0.2,0-0.2,0c-0.1,0-0.1,0-0.2,0c-0.1,0-0.1,0-0.2,0c-0.1,0-0.1,0-0.2,0
		c-0.1,0-0.1,0-0.2,0c-0.1,0-0.1,0-0.2,0c-0.1,0-0.2,0-0.3,0c-0.1,0-0.1,0-0.2,0c-0.1,0-0.1,0-0.2,0c-0.1,0-0.1,0-0.2,0
		c-0.1,0-0.1,0-0.2,0c-0.1,0-0.1,0-0.2,0c-0.1,0-0.1,0-0.2,0c-0.1,0-0.1,0-0.2,0c-0.1,0-0.2,0-0.3,0c-0.1,0-0.1,0-0.2,0
		c-0.1,0-0.1,0-0.2,0c-0.1,0-0.1,0-0.2,0c-0.1,0-0.1,0-0.2,0c-0.1,0-0.1,0-0.2,0c0,0-0.1,0-0.1,0c-0.2,0-0.4,0.1-0.5,0.1l0,0
		c-0.1,0-0.2,0-0.2,0c0,0-0.1,0-0.1,0c-0.1,0-0.2,0-0.2,0c0,0-0.1,0-0.1,0c-0.1,0-0.2,0-0.2,0c0,0,0,0-0.1,0c-0.2,0-0.4,0.1-0.6,0.1
		c0,0,0,0,0,0c-0.1,0-0.2,0-0.3,0c0,0-0.1,0-0.1,0c-0.1,0-0.2,0-0.3,0c0,0-0.1,0-0.1,0c-0.3,0.1-0.6,0.1-0.9,0.2c0,0,0,0,0,0
		c-0.1,0-0.2,0-0.3,0.1c0,0,0,0-0.1,0c-0.1,0-0.2,0-0.3,0.1c0,0,0,0-0.1,0c-0.4,0.1-0.8,0.2-1.2,0.3c0,0,0,0,0,0
		C108.1,94,69.3,139.9,54,200.9c20.1-63.8,67.2-108.6,122-108.6c14.2,0,31.9,8.5,40.6,8.5c7.2,0,25-8.5,40.6-8.5
		c54.8,0,101.8,44.8,122,108.6C363.6,139.4,324.2,93.2,276.2,83c0,0,0,0,0,0c-0.1,0-0.2,0-0.3-0.1c0,0,0,0,0,0
		c-0.4-0.1-0.8-0.2-1.2-0.2c0,0,0,0,0,0c-0.1,0-0.2,0-0.3-0.1c0,0,0,0-0.1,0c-0.3-0.1-0.6-0.1-0.9-0.2c0,0,0,0,0,0
		c-0.1,0-0.2,0-0.3,0c0,0-0.1,0-0.1,0c-0.1,0-0.2,0-0.2,0c0,0-0.1,0-0.1,0c-0.3,0-0.6-0.1-0.8-0.1c0,0-0.1,0-0.1,0
		c-0.1,0-0.2,0-0.2,0c0,0-0.1,0-0.1,0c-0.1,0-0.2,0-0.2,0c0,0-0.1,0-0.1,0c-0.3,0-0.5-0.1-0.8-0.1c0,0-0.1,0-0.2,0
		c-0.1,0-0.1,0-0.2,0c-0.1,0-0.1,0-0.2,0c-0.1,0-0.1,0-0.2,0c-0.1,0-0.1,0-0.2,0c-0.1,0-0.1,0-0.2,0c-0.1,0-0.2,0-0.3,0
		c-0.1,0-0.1,0-0.2,0c-0.1,0-0.1,0-0.2,0c-0.1,0-0.1,0-0.2,0c-0.1,0-0.1,0-0.2,0c-0.1,0-0.1,0-0.2,0c-0.1,0-0.1,0-0.2,0
		c-0.1,0-0.2,0-0.3,0c-0.1,0-0.1,0-0.2,0c-0.1,0-0.1,0-0.2,0c-0.1,0-0.1,0-0.2,0c-0.1,0-0.1,0-0.2,0c-0.1,0-0.1,0-0.2,0
		c-0.1,0-0.1,0-0.2,0c-0.1,0-0.2,0-0.3,0c-0.1,0-0.1,0-0.2,0c-0.1,0-0.2,0-0.3,0c-0.1,0-0.1,0-0.2,0c-0.1,0-0.2,0-0.2,0
		c-0.1,0-0.1,0-0.2,0c-0.1,0-0.2,0-0.2,0c-0.1,0-0.1,0-0.1,0c-0.1,0-0.2,0-0.3,0c0,0-0.1,0-0.1,0c-0.1,0-0.2,0-0.3,0
		c0,0-0.1,0-0.1,0c-0.1,0-0.2,0-0.2,0c0,0-0.1,0-0.1,0c-0.1,0-0.2,0-0.3,0c0,0-0.1,0-0.1,0c-0.1,0-0.2,0-0.4,0c0,0-0.1,0-0.1,0
		c-0.1,0-0.2,0-0.3,0c0,0-0.1,0-0.1,0c-0.1,0-0.2,0-0.2,0c-0.1,0-0.1,0-0.2,0c-0.1,0-0.2,0-0.3,0c0,0-0.1,0-0.1,0
		c-0.1,0-0.2,0-0.4,0c0,0-0.1,0-0.1,0c-0.1,0-0.2,0-0.3,0c0,0-0.1,0-0.1,0c-0.1,0-0.2,0-0.2,0c0,0-0.1,0-0.1,0c-0.1,0-0.2,0-0.3,0
		c0,0-0.1,0-0.1,0c-0.1,0-0.2,0-0.4,0c0,0-0.1,0-0.1,0c-0.1,0-0.2,0-0.3,0c-0.1,0-0.1,0-0.1,0c-0.1,0-0.2,0-0.2,0c0,0-0.1,0-0.1,0
		c-0.1,0-0.2,0-0.3,0c0,0,0,0,0,0c-0.1,0-0.3,0-0.4,0c0,0-0.1,0-0.1,0c-0.1,0-0.2,0-0.3,0c0,0-0.1,0-0.1,0c-0.1,0-0.2,0-0.3,0
		c0,0-0.1,0-0.1,0C256.6,80.9,256.4,80.9,256.3,80.9"/>
	<path fill="#E3B6D6" d="M46.9,258.4C46.9,258.4,46.9,258.5,46.9,258.4C46.9,258.5,46.9,258.4,46.9,258.4 M386.2,258.3
		c0,0,0,0.1,0,0.1C386.2,258.4,386.2,258.4,386.2,258.3 M46.9,257.9C46.9,257.9,46.9,257.9,46.9,257.9L46.9,257.9 M386.2,257.7
		C386.2,257.7,386.2,257.8,386.2,257.7C386.2,257.8,386.2,257.7,386.2,257.7"/>
	<path fill="#982773" d="M47,268.2c3.5,94.1,60.2,169,129.7,169c13.7,0,31.3-8.3,39.4-8.5c-8.1,0.3-25.8,8.5-39.4,8.5
		C107.2,437.2,50.5,362.3,47,268.2 M386,268.2c-3.5,94.1-60.2,169-129.7,169c-13.7,0-31.3-8.3-39.4-8.5c8.1,0.3,25.8,8.5,39.4,8.5
		C325.8,437.2,382.5,362.3,386,268.2 M385.3,238.4c-8.1,89.4-78.7,160.3-145.7,160.3c-13.6,0-27.9-9.2-36-9.5
		c0.2,1.3,0.4,2.5,0.5,3.6c1.2,8.1,1.5,12.8,0.8,12.9l0,0c-0.7,0-2.3-4.4-4.5-12.1c-0.4-1.2-0.7-2.6-1.1-4
		c-8.4,1.7-21.2,7.8-33.2,7.8c-66.6,0-112.4-68.8-118.6-157.3c-0.5,5.8-0.7,11.7-0.7,17.7v0c0,0.2,0,0.4,0,0.5c0,0,0,0,0,0.1
		c0,0.2,0,0.4,0,0.6l0,0l0,0c0-2.9,0.1-5.7,0.2-8.5c3.4,94.2,60.2,169.2,129.7,169.2c13.9,0,31.9-8.5,39.8-8.5
		c7.9,0,25.9,8.5,39.8,8.5c69.4,0,126.1-74.8,129.7-168.8c0.1,2.7,0.2,5.4,0.2,8.2l0,0l0,0c0-0.2,0-0.4,0-0.6c0,0,0-0.1,0-0.1
		c0-0.2,0-0.4,0-0.5c0,0,0,0,0-0.1C386.1,251.2,385.8,244.8,385.3,238.4"/>
	<path fill="#871C61" d="M47,250.6c-0.1,2.8-0.2,5.6-0.2,8.5c0,3.1,0.1,6.1,0.2,9.2c3.5,94.1,60.2,169,129.7,169
		c13.7,0,31.3-8.3,39.4-8.5c0.1,0,0.3,0,0.4,0s0.3,0,0.4,0c8.1,0.3,25.8,8.5,39.4,8.5c69.5,0,126.2-74.8,129.7-169
		c0.1-3,0.2-6.1,0.2-9.2c0-2.8-0.1-5.5-0.2-8.2c-3.5,94.1-60.2,168.8-129.7,168.8c-13.9,0-31.9-8.5-39.8-8.5
		c-7.9,0-25.9,8.5-39.8,8.5C107.2,419.7,50.4,344.8,47,250.6"/>
	<path fill="#982773" d="M205,110.9c-0.7,0-2.7,4.3-5.2,11.9c-2.4,7.8-5.5,19.2-8.1,33c-5.5,27.6-9.2,65-8.9,102.5l0,3.5l0.1,3.5
		c0.1,2.3,0.2,4.7,0.2,7c0.2,4.7,0.3,9.3,0.5,13.9c0.6,9.2,1.4,18.2,2.2,27c0.1,2.2,0.5,4.3,0.7,6.5c0.3,2.1,0.6,4.3,0.8,6.3
		c0.6,4.2,1.1,8.3,1.6,12.3c0.3,2,0.5,4,0.8,5.9c0.4,1.9,0.7,3.8,1,5.7c0.7,3.7,1.4,7.3,2,10.8c0.7,3.4,1.3,6.7,1.9,9.9
		c0.3,1.6,0.6,3.1,0.9,4.6c0.4,1.5,0.7,2.9,1.1,4.3c1,3.8,1.9,7.2,2.7,10.3c1.4-0.3,2.6-0.4,3.7-0.4c0.2,0,0.3,0,0.5,0
		c-0.5-3.2-1.1-6.8-1.8-10.8c-0.2-1.4-0.5-2.8-0.8-4.3c-0.2-1.5-0.4-3-0.6-4.6c-0.4-3.1-0.9-6.4-1.3-9.9c-0.5-3.4-1-7-1.5-10.7
		c-0.3-1.9-0.5-3.7-0.8-5.6c-0.2-1.9-0.4-3.9-0.6-5.9c-0.4-4-0.8-8-1.3-12.2c-0.2-2.1-0.4-4.2-0.7-6.3c-0.2-2.1-0.5-4.3-0.6-6.4
		c-0.5-8.7-1.2-17.6-1.7-26.7c-0.1-4.5-0.3-9.1-0.4-13.7c-0.1-2.3-0.1-4.6-0.2-6.9l-0.1-3.5l0-3.5c-0.3-37,2.7-73.9,6.7-101.4
		c1.9-13.8,4.1-25.1,5.4-33.1C204.9,115.7,205.7,111.1,205,110.9L205,110.9"/>
	<path fill="#871C61" d="M203.1,389.2c-1.1,0-2.4,0.2-3.7,0.4c0.4,1.4,0.8,2.8,1.1,4c2.2,7.7,3.7,12.1,4.5,12.1l0,0
		c0.7-0.2,0.3-4.9-0.8-12.9c-0.2-1.1-0.3-2.4-0.5-3.6C203.5,389.2,203.3,389.2,203.1,389.2"/>
	<path fill="#CF73BB" d="M145.8,107.3c-8.4,0-18.5,4.2-27.1,12c-14,12.7-18.9,30.1-10.8,38.9c3.1,3.4,7.6,5,12.9,5
		c8.4,0,18.5-4.2,27.1-12c14-12.7,18.9-30.1,10.8-38.9C155.5,108.9,151,107.3,145.8,107.3"/>
	<path fill="#133441" d="M218.2,372.6c-11.3-9.4-33-9.4-44.3,0c-3.7,3.1,1.6,8.4,5.3,5.3c7.9-6.6,25.7-6.6,33.6,0
		C216.6,381,221.9,375.7,218.2,372.6z"/>
	<path fill="#133441" d="M240.5,328.8c0.2,10,10.5,15.6,19.4,16.9c11.2,1.6,21.8-2.2,28.6-11.3c5.6-7.5-7.4-15.4-12.8-7.5
		c-6.3,9.2-22.2,5.4-29.5-0.5C244.1,324.8,240.5,325.7,240.5,328.8z"/>
	<path fill="#133441" d="M145.9,326.5c-7.3,5.8-23.2,9.7-29.5,0.5c-5.4-7.9-18.5-0.1-12.8,7.5c6.8,9.1,17.3,13,28.6,11.3
		c9-1.3,19.2-7,19.4-16.9C151.6,325.7,148,324.8,145.9,326.5z"/>
	<path fill="#133441" d="M248,295.7c0.2,6.4,11.8,8.4,24.4,7.8c11.3-0.5,22.4,0,23.6-8.5C298.7,277.6,247.5,276.3,248,295.7z"/>
	<path fill="#133441" d="M96,294.8c1.2,8.5,12.3,8.1,23.6,8.7c12.6,0.7,24.3-1.2,24.5-7.6C144.7,276.5,93.5,277.3,96,294.8z"/>
</g>
</svg>
