<?xml version="1.0" encoding="UTF-8" ?>
<!DOCTYPE svg PUBLIC "-//W3C//DTD SVG 1.1//EN" "http://www.w3.org/Graphics/SVG/1.1/DTD/svg11.dtd">
<svg width="1064pt" height="1044pt" viewBox="0 0 1064 1044" version="1.1" xmlns="http://www.w3.org/2000/svg">
<g id="#f2b61bff">
<path fill="#f2b61b" opacity="1.00" d=" M 471.95 49.97 C 478.95 44.82 486.92 39.65 495.96 39.86 C 500.45 39.85 504.56 41.89 508.21 44.32 L 508.27 44.55 C 509.20 49.09 511.43 53.30 511.92 57.95 C 513.40 90.33 509.16 122.81 501.23 154.18 C 500.12 157.21 502.37 159.73 504.31 161.75 C 509.89 167.43 514.36 174.06 518.75 180.67 C 527.41 193.40 533.85 207.53 542.93 219.99 C 548.69 228.11 555.62 235.35 563.24 241.74 C 569.08 246.65 574.44 252.61 576.59 260.10 C 580.37 272.73 577.95 286.12 575.18 298.70 C 563.00 312.34 547.54 323.16 530.09 328.89 C 498.39 339.89 461.62 332.39 435.85 311.20 C 426.55 303.82 419.51 294.17 411.72 285.32 C 398.21 270.40 381.53 257.53 361.96 251.86 C 347.42 247.44 332.01 247.49 316.99 248.50 C 299.25 249.87 281.84 255.99 267.56 266.67 C 259.43 272.69 251.94 279.60 245.36 287.29 C 239.64 293.91 234.29 300.89 227.87 306.88 C 210.17 323.48 186.26 333.21 162.03 333.92 C 137.72 334.63 113.50 325.59 95.04 309.87 C 90.96 306.46 87.35 302.54 83.63 298.75 C 80.76 285.70 78.19 271.66 82.68 258.67 C 85.25 251.01 91.23 245.29 97.27 240.25 C 109.97 229.48 120.29 216.26 129.72 202.62 C 131.53 199.81 134.09 197.33 135.04 194.06 C 135.34 188.95 134.47 183.86 134.08 178.77 C 132.77 166.17 130.64 153.67 129.14 141.09 C 127.14 123.49 126.62 105.75 126.13 88.06 C 126.00 78.67 125.47 68.92 128.73 59.95 C 130.98 53.50 136.39 47.97 143.21 46.60 L 144.09 46.65 C 158.64 50.22 169.65 60.85 180.75 70.22 C 190.08 77.83 198.19 86.76 206.77 95.18 C 214.29 102.73 220.84 111.17 227.74 119.28 C 229.42 121.81 232.39 120.34 234.65 119.65 C 241.00 117.43 247.61 116.08 254.22 114.88 C 273.63 111.57 293.37 110.67 313.04 110.75 C 341.15 110.97 369.21 113.24 397.09 116.76 C 401.00 113.08 404.79 109.29 408.58 105.49 C 418.11 95.93 427.61 86.34 437.94 77.63 C 448.97 68.05 460.36 58.87 471.95 49.97 M 465.84 89.86 C 455.38 100.66 445.03 111.57 435.25 122.99 C 453.20 127.92 470.24 135.77 486.14 145.40 C 488.71 131.32 490.61 117.12 492.16 102.89 C 492.70 97.24 493.11 91.01 489.91 86.02 C 487.74 82.36 483.35 79.95 479.08 80.86 C 473.64 81.92 469.59 86.09 465.84 89.86 M 154.27 93.12 C 152.27 99.65 154.14 106.47 155.01 113.04 C 157.64 128.84 160.00 144.75 164.15 160.25 C 178.96 147.23 195.50 136.20 213.43 127.96 C 202.73 115.92 191.24 104.58 179.52 93.55 C 175.27 89.58 170.06 85.68 163.93 86.01 C 159.60 85.98 155.51 88.95 154.27 93.12 M 417.17 152.30 C 414.32 152.79 412.21 155.82 413.55 158.61 C 415.27 162.21 419.88 162.34 422.95 164.24 C 427.48 166.91 432.68 168.87 438.02 168.27 C 441.05 167.26 439.38 163.74 438.10 161.97 C 433.64 155.39 425.30 150.25 417.17 152.30 M 216.43 154.62 C 208.70 156.04 204.24 163.37 200.87 169.78 C 199.61 171.65 200.64 174.44 203.02 174.61 C 211.10 175.23 218.86 170.96 224.51 165.47 C 227.14 163.05 228.24 158.27 225.35 155.66 C 222.75 153.91 219.37 154.23 216.43 154.62 M 401.98 182.06 C 397.42 184.97 392.70 188.05 389.76 192.72 C 384.45 199.74 382.89 209.09 384.44 217.64 C 384.95 219.65 385.64 222.38 388.07 222.75 C 392.92 223.85 397.93 223.98 402.89 224.07 C 403.81 228.41 406.38 232.51 410.35 234.65 C 415.11 237.24 420.73 238.13 426.09 237.62 C 430.28 237.20 433.83 234.30 435.85 230.72 C 440.71 230.92 446.05 231.98 450.46 229.35 C 455.71 226.49 458.02 220.05 457.51 214.33 C 455.80 198.81 444.19 186.00 430.61 179.24 C 421.45 174.61 410.44 177.02 401.98 182.06 M 191.02 198.95 C 186.47 205.76 182.56 213.66 183.08 222.07 C 183.32 227.82 187.04 233.81 192.93 235.08 C 197.12 236.46 201.53 235.53 205.74 234.82 C 207.32 240.47 212.34 244.58 217.95 245.87 C 223.51 247.23 230.26 247.98 234.95 243.98 C 239.61 239.80 241.48 233.15 240.96 227.04 C 245.38 226.97 250.13 227.32 254.19 225.26 C 257.97 219.26 256.97 211.53 254.94 205.06 C 252.89 197.47 247.07 191.57 240.65 187.37 C 233.29 182.35 224.02 179.55 215.14 181.24 C 205.32 184.08 197.25 191.06 191.02 198.95 Z" />
<path fill="#f2b61b" opacity="1.00" d=" M 829.12 321.16 C 860.69 307.03 898.71 312.31 927.46 330.65 C 939.12 338.26 950.12 347.71 956.97 360.02 C 961.90 368.81 963.19 379.12 962.92 389.06 C 962.48 404.47 959.85 419.91 954.27 434.32 C 949.79 446.81 938.97 455.52 933.29 467.36 C 932.12 469.88 931.17 473.26 933.34 475.55 C 937.81 480.85 944.37 483.79 949.07 488.87 C 953.12 493.25 956.62 498.13 959.85 503.16 C 963.58 508.83 965.02 515.58 966.97 521.99 C 970.45 534.61 973.94 547.25 976.30 560.14 C 977.22 567.71 977.16 575.36 977.06 582.98 C 977.80 605.60 973.23 628.02 966.61 649.54 C 958.84 675.07 948.33 699.64 939.75 724.89 C 930.87 749.35 926.59 775.32 926.25 801.31 L 925.98 801.72 C 924.46 803.83 923.40 806.23 922.77 808.75 C 919.49 820.84 913.62 832.18 905.91 842.02 C 900.89 848.37 894.78 854.42 886.91 856.97 C 881.23 858.86 874.97 857.89 869.67 855.33 C 860.23 850.81 852.75 843.13 843.30 838.62 C 832.66 833.25 819.73 830.63 808.34 835.17 C 801.73 837.66 796.48 842.70 792.66 848.53 C 780.13 824.10 766.35 800.35 752.50 776.66 C 750.74 773.30 748.88 770.00 746.96 766.74 C 742.65 759.27 738.38 751.76 734.44 744.08 C 722.04 746.21 709.79 749.09 697.38 751.16 C 702.11 732.53 704.68 713.45 706.59 694.36 C 712.17 708.35 717.11 723.34 728.05 734.22 C 726.42 728.08 723.52 722.41 721.60 716.38 C 715.87 699.13 712.54 681.13 711.13 663.03 C 710.90 654.66 709.73 646.33 710.09 637.96 C 710.25 634.44 709.89 630.94 709.29 627.49 C 709.22 585.15 709.92 542.63 704.66 500.52 C 701.03 470.55 694.46 440.78 683.26 412.68 C 680.31 405.24 676.71 397.94 671.47 391.84 C 688.55 392.90 705.63 394.15 722.65 395.93 C 722.97 419.17 729.03 442.70 741.69 462.34 C 753.00 479.68 770.02 493.75 790.06 499.60 C 809.14 504.79 829.54 504.04 848.70 499.60 C 862.30 496.51 874.97 489.69 884.89 479.88 C 893.19 471.70 900.74 461.81 902.92 450.11 C 904.54 442.23 901.57 433.34 894.63 428.95 C 886.59 425.95 877.81 426.17 869.70 423.40 C 859.75 420.45 848.46 416.20 843.90 406.04 C 839.78 398.57 840.30 389.04 845.04 381.98 C 848.20 376.78 854.00 373.66 859.99 373.16 C 867.82 372.48 876.40 372.30 883.27 376.73 C 893.03 382.57 897.94 395.75 893.35 406.35 C 891.57 411.53 887.30 415.11 883.85 419.14 C 892.20 416.75 897.04 408.81 900.26 401.30 C 904.80 390.85 905.78 378.18 899.98 368.01 C 896.09 360.56 887.95 356.47 880.03 354.79 C 868.29 352.66 855.94 354.23 845.02 358.99 C 838.15 361.96 832.44 367.11 827.96 373.03 C 821.61 381.81 819.01 393.73 822.87 404.08 C 825.98 413.41 833.88 420.18 842.34 424.65 C 857.26 431.99 874.07 434.11 890.53 434.30 C 878.94 448.39 862.82 459.44 844.59 462.45 C 827.17 465.33 807.95 460.52 795.49 447.60 C 783.22 434.74 777.30 416.61 777.68 399.00 C 778.53 366.25 799.11 334.57 829.12 321.16 M 953.16 574.04 C 953.12 578.90 952.97 583.77 953.50 588.61 C 954.48 597.62 953.68 606.69 954.40 615.71 C 955.45 615.52 957.13 616.14 957.49 614.67 C 959.34 605.91 959.27 596.90 958.98 588.00 C 958.58 583.39 958.29 578.65 956.60 574.31 C 955.98 572.67 954.31 573.92 953.16 574.04 M 937.08 657.89 C 935.19 665.09 936.28 672.62 936.09 679.98 C 935.71 681.82 937.26 682.67 938.73 683.21 C 941.10 675.88 943.19 668.05 941.62 660.33 C 940.98 658.35 938.77 658.22 937.08 657.89 M 896.51 771.34 C 893.72 782.73 894.09 795.20 898.98 805.99 C 899.37 807.00 900.07 807.73 901.08 808.19 C 902.62 807.54 903.20 805.81 902.59 804.31 C 899.85 793.86 898.99 782.96 899.40 772.20 C 899.19 770.99 897.34 770.45 896.51 771.34 Z" />
</g>
<g id="#f0a11cff">
<path fill="#f0a11c" opacity="1.00" d=" M 144.04 46.28 C 154.21 43.30 164.78 46.93 174.21 50.74 C 191.79 58.19 207.77 69.03 222.20 81.45 C 231.57 89.48 240.38 98.17 248.36 107.59 C 250.36 109.98 252.30 112.42 254.22 114.88 C 247.61 116.08 241.00 117.43 234.65 119.65 C 232.39 120.34 229.42 121.81 227.74 119.28 C 220.84 111.17 214.29 102.73 206.77 95.18 C 198.19 86.76 190.08 77.83 180.75 70.22 C 169.65 60.85 158.64 50.22 144.09 46.65 L 144.04 46.28 Z" />
<path fill="#f0a11c" opacity="1.00" d=" M 508.27 44.55 C 514.11 48.75 517.75 55.29 520.21 61.91 C 527.47 82.32 528.76 104.35 527.88 125.84 C 527.16 138.81 525.58 151.75 522.81 164.45 C 521.61 169.89 520.00 175.24 518.75 180.67 C 514.36 174.06 509.89 167.43 504.31 161.75 C 502.37 159.73 500.12 157.21 501.23 154.18 C 509.16 122.81 513.40 90.33 511.92 57.95 C 511.43 53.30 509.20 49.09 508.27 44.55 Z" />
<path fill="#f0a11c" opacity="1.00" d=" M 401.98 182.06 C 410.44 177.02 421.45 174.61 430.61 179.24 C 444.19 186.00 455.80 198.81 457.51 214.33 C 458.02 220.05 455.71 226.49 450.46 229.35 C 446.05 231.98 440.71 230.92 435.85 230.72 C 438.61 225.42 439.79 218.68 436.85 213.22 C 434.39 208.65 429.00 206.84 424.14 206.36 C 417.52 205.72 410.06 207.39 405.67 212.74 C 403.03 215.86 402.53 220.14 402.89 224.07 C 397.93 223.98 392.92 223.85 388.07 222.75 C 385.64 222.38 384.95 219.65 384.44 217.64 C 382.89 209.09 384.45 199.74 389.76 192.72 C 392.70 188.05 397.42 184.97 401.98 182.06 Z" />
<path fill="#f0a11c" opacity="1.00" d=" M 191.02 198.95 C 197.25 191.06 205.32 184.08 215.14 181.24 C 224.02 179.55 233.29 182.35 240.65 187.37 C 247.07 191.57 252.89 197.47 254.94 205.06 C 256.97 211.53 257.97 219.26 254.19 225.26 C 250.13 227.32 245.38 226.97 240.96 227.04 C 240.15 223.18 238.07 219.34 234.34 217.64 C 226.88 214.16 217.31 214.54 210.58 219.49 C 205.83 222.93 204.35 229.32 205.74 234.82 C 201.53 235.53 197.12 236.46 192.93 235.08 C 187.04 233.81 183.32 227.82 183.08 222.07 C 182.56 213.66 186.47 205.76 191.02 198.95 Z" />
<path fill="#f0a11c" opacity="1.00" d=" M 845.02 358.99 C 855.94 354.23 868.29 352.66 880.03 354.79 C 887.95 356.47 896.09 360.56 899.98 368.01 C 905.78 378.18 904.80 390.85 900.26 401.30 C 897.04 408.81 892.20 416.75 883.85 419.14 C 887.30 415.11 891.57 411.53 893.35 406.35 C 897.94 395.75 893.03 382.57 883.27 376.73 C 876.40 372.30 867.82 372.48 859.99 373.16 C 854.00 373.66 848.20 376.78 845.04 381.98 C 840.30 389.04 839.78 398.57 843.90 406.04 C 848.46 416.20 859.75 420.45 869.70 423.40 C 877.81 426.17 886.59 425.95 894.63 428.95 C 893.28 430.75 891.94 432.55 890.53 434.30 C 874.07 434.11 857.26 431.99 842.34 424.65 C 833.88 420.18 825.98 413.41 822.87 404.08 C 819.01 393.73 821.61 381.81 827.96 373.03 C 832.44 367.11 838.15 361.96 845.02 358.99 Z" />
<path fill="#f0a11c" opacity="1.00" d=" M 953.16 574.04 C 954.31 573.92 955.98 572.67 956.60 574.31 C 958.29 578.65 958.58 583.39 958.98 588.00 C 959.27 596.90 959.34 605.91 957.49 614.67 C 957.13 616.14 955.45 615.52 954.40 615.71 C 953.68 606.69 954.48 597.62 953.50 588.61 C 952.97 583.77 953.12 578.90 953.16 574.04 Z" />
<path fill="#f0a11c" opacity="1.00" d=" M 709.29 627.49 C 709.89 630.94 710.25 634.44 710.09 637.96 C 709.73 646.33 710.90 654.66 711.13 663.03 C 712.54 681.13 715.87 699.13 721.60 716.38 C 723.52 722.41 726.42 728.08 728.05 734.22 C 717.11 723.34 712.17 708.35 706.59 694.36 C 708.33 672.10 708.66 649.78 709.29 627.49 Z" />
<path fill="#f0a11c" opacity="1.00" d=" M 937.08 657.89 C 938.77 658.22 940.98 658.35 941.62 660.33 C 943.19 668.05 941.10 675.88 938.73 683.21 C 937.26 682.67 935.71 681.82 936.09 679.98 C 936.28 672.62 935.19 665.09 937.08 657.89 Z" />
<path fill="#f0a11c" opacity="1.00" d=" M 684.86 788.04 C 705.68 781.31 726.30 773.96 746.96 766.74 C 748.88 770.00 750.74 773.30 752.50 776.66 C 752.10 781.75 751.44 786.84 750.70 791.89 C 746.92 798.14 745.22 805.35 741.69 811.72 C 736.21 822.03 729.10 831.66 720.04 839.08 C 713.80 844.11 705.51 847.62 697.43 845.48 C 687.13 842.78 679.90 834.43 671.62 828.32 C 661.52 820.71 648.86 815.27 636.00 816.96 C 627.27 818.03 619.47 823.17 614.28 830.17 C 614.00 829.64 613.42 828.59 613.14 828.07 C 611.57 824.96 610.40 821.67 608.95 818.51 C 617.40 815.75 625.91 813.00 634.67 811.38 C 644.65 811.77 654.61 810.97 664.57 810.31 C 669.05 810.00 673.71 808.32 676.36 804.49 C 679.94 799.43 682.25 793.63 684.86 788.04 Z" />
<path fill="#f0a11c" opacity="1.00" d=" M 896.51 771.34 C 897.34 770.45 899.19 770.99 899.40 772.20 C 898.99 782.96 899.85 793.86 902.59 804.31 C 903.20 805.81 902.62 807.54 901.08 808.19 C 900.07 807.73 899.37 807.00 898.98 805.99 C 894.09 795.20 893.72 782.73 896.51 771.34 Z" />
</g>
<g id="#8fbc64ff">
<path fill="#8fbc64" opacity="1.00" d=" M 224.98 83.68 C 263.37 68.51 304.71 60.48 346.04 61.47 C 377.27 62.03 408.39 67.53 437.94 77.63 C 427.61 86.34 418.11 95.93 408.58 105.49 C 402.97 102.37 396.86 100.34 390.91 97.98 C 375.15 92.13 358.82 87.37 342.01 85.88 C 326.73 84.59 311.61 88.01 296.97 92.05 C 280.60 96.65 263.94 100.65 248.36 107.59 C 240.38 98.17 231.57 89.48 222.20 81.45 C 223.12 82.20 224.04 82.93 224.98 83.68 Z" />
<path fill="#8fbc64" opacity="1.00" d=" M 522.81 164.45 C 525.58 151.75 527.16 138.81 527.88 125.84 C 527.86 126.61 527.82 128.14 527.80 128.91 C 554.98 151.76 578.58 178.41 601.90 205.08 C 612.78 217.62 623.16 231.34 627.60 247.61 C 633.99 270.52 630.36 295.14 621.79 316.98 C 615.17 333.52 605.93 349.05 594.60 362.79 C 569.06 388.97 552.18 421.91 529.29 450.20 C 523.88 457.08 517.51 463.13 511.27 469.23 C 500.34 478.84 487.72 486.36 474.66 492.69 C 452.97 502.84 429.05 508.87 405.00 507.98 C 396.52 508.03 388.24 506.07 379.88 505.04 C 405.49 520.11 436.06 526.55 465.61 523.57 C 483.09 521.25 500.31 515.78 515.21 506.20 C 530.99 496.76 543.69 482.76 553.08 467.06 C 558.06 459.17 562.23 450.81 566.62 442.60 C 570.79 433.02 575.64 423.75 580.37 414.45 C 585.45 405.44 590.18 395.93 597.76 388.71 C 602.19 384.20 608.48 381.93 614.67 381.35 C 621.13 391.79 628.19 402.10 632.09 413.87 C 645.27 451.22 650.42 490.78 654.29 530.01 C 656.78 557.98 659.74 585.92 661.15 613.97 C 662.45 629.94 662.09 645.98 662.14 661.99 C 662.25 700.59 655.31 738.87 644.99 775.95 C 641.78 787.83 638.23 799.61 634.67 811.38 C 625.91 813.00 617.40 815.75 608.95 818.51 C 591.66 824.32 574.73 831.39 556.85 835.26 C 560.12 820.16 564.96 805.47 569.90 790.85 C 565.69 794.92 562.17 799.62 558.24 803.95 C 565.07 770.99 560.95 735.31 544.15 705.89 C 543.56 712.94 544.32 719.99 544.74 727.02 C 545.50 758.71 544.43 790.44 541.03 821.96 C 539.28 837.27 537.95 853.66 528.63 866.56 C 522.29 875.49 511.30 879.22 500.95 880.97 C 487.80 883.68 474.37 884.33 460.99 884.81 C 443.97 884.21 426.96 883.09 410.05 881.04 C 399.73 879.75 389.33 879.06 379.08 877.29 C 375.28 862.68 369.73 848.50 362.65 835.16 C 354.33 818.83 343.47 803.90 335.62 787.31 C 333.75 782.82 334.07 777.69 331.72 773.36 C 322.94 756.74 316.05 739.10 311.37 720.89 C 310.50 728.28 311.99 735.65 311.90 743.05 C 311.84 751.35 313.31 759.56 314.95 767.67 C 297.78 764.14 281.10 758.62 264.34 753.58 C 237.64 744.94 210.38 735.52 188.07 717.95 C 182.81 714.10 179.07 708.52 173.52 705.05 C 164.04 688.47 154.96 671.46 149.66 653.01 C 136.32 608.63 139.16 561.13 148.57 516.28 C 154.20 510.94 161.15 506.82 168.92 505.66 C 181.34 503.54 193.79 506.92 205.66 510.32 C 227.25 516.31 248.56 524.22 271.03 526.21 C 286.19 527.89 301.94 526.22 316.05 520.26 C 309.24 518.86 302.26 519.32 295.39 518.59 C 277.94 516.84 260.57 513.63 243.92 508.10 C 226.93 502.42 211.87 492.53 196.57 483.44 C 188.36 478.63 180.35 473.46 171.99 468.92 C 168.70 467.07 165.48 465.01 161.84 463.94 C 136.41 458.76 110.00 453.70 88.03 439.06 C 58.95 419.88 40.28 387.71 33.11 354.06 C 27.27 327.64 29.05 299.91 36.52 274.01 C 43.28 250.22 54.54 227.87 68.42 207.46 C 85.37 182.59 106.19 160.51 129.14 141.09 C 130.64 153.67 132.77 166.17 134.08 178.77 C 126.28 185.04 119.13 192.05 111.80 198.85 C 97.85 212.61 83.14 226.14 73.33 243.33 C 66.94 254.45 63.37 267.20 63.54 280.05 C 63.26 296.54 68.13 312.60 74.50 327.64 C 82.03 344.72 91.57 360.82 101.49 376.60 C 115.43 398.70 130.75 420.19 149.62 438.40 C 167.79 456.69 189.91 471.13 214.25 479.77 C 225.14 483.63 236.39 486.43 247.77 488.43 C 254.30 489.44 260.85 490.79 267.50 490.46 C 279.12 493.97 290.83 497.84 303.09 498.11 C 324.68 499.09 346.46 499.58 367.94 496.82 C 393.90 490.94 418.98 481.25 442.42 468.66 C 447.40 468.77 451.83 466.21 456.35 464.47 C 474.67 456.96 492.01 446.96 507.41 434.50 C 532.00 414.50 551.11 388.82 568.49 362.56 C 577.13 349.11 586.00 335.78 593.83 321.84 C 601.09 308.51 606.90 293.45 605.05 278.00 C 603.32 262.71 594.54 249.48 585.31 237.63 C 573.73 223.24 561.91 209.03 550.23 194.72 C 541.50 184.27 533.20 173.34 522.81 164.45 M 334.45 534.51 C 331.61 537.44 329.93 541.55 331.06 545.64 C 319.97 553.99 310.65 564.60 303.61 576.55 C 298.19 585.79 293.78 596.11 293.86 607.00 C 293.97 614.01 296.25 621.58 301.96 626.06 C 306.05 629.37 312.12 629.19 316.47 626.46 C 322.66 622.71 326.43 616.27 330.30 610.36 C 335.70 601.99 339.90 592.95 343.80 583.81 C 346.62 603.37 351.37 622.71 359.06 640.96 C 363.32 650.91 366.48 661.88 374.22 669.81 C 375.77 672.17 380.27 671.06 379.68 668.00 C 378.74 662.85 375.41 658.61 373.15 654.00 C 361.71 631.56 354.26 607.07 351.23 582.07 C 361.15 610.42 383.50 633.60 410.34 646.61 C 413.48 648.06 416.60 649.72 420.02 650.41 C 423.22 650.12 424.09 645.10 421.39 643.61 C 418.91 642.27 416.19 641.49 413.62 640.38 C 396.84 633.24 381.84 621.77 370.91 607.14 C 360.92 593.92 354.83 578.15 351.42 562.04 C 350.92 559.72 351.30 557.35 351.74 555.06 C 358.06 565.18 365.87 574.31 374.45 582.59 C 382.15 589.68 390.37 596.54 400.05 600.76 C 405.54 603.11 411.89 604.60 417.70 602.52 C 425.51 599.50 430.21 590.00 427.54 581.98 C 425.27 575.15 420.01 569.87 414.63 565.33 C 401.24 554.46 385.57 546.54 369.11 541.48 C 368.36 538.16 367.47 534.55 364.67 532.33 C 356.03 525.23 342.08 526.46 334.45 534.51 Z" />
<path fill="#8fbc64" opacity="1.00" d=" M 307.46 581.61 C 313.95 569.13 323.34 558.27 334.32 549.52 C 336.58 552.07 339.34 554.09 342.40 555.59 C 342.44 560.46 343.12 565.49 341.43 570.19 C 336.44 585.93 329.42 601.19 319.52 614.46 C 316.88 617.67 313.80 622.40 308.93 621.05 C 303.23 620.18 300.74 614.07 300.47 608.95 C 299.92 599.38 303.17 590.02 307.46 581.61 Z" />
<path fill="#8fbc64" opacity="1.00" d=" M 367.43 549.15 C 376.57 551.87 385.32 555.72 393.75 560.14 C 402.49 564.65 411.57 569.45 417.77 577.33 C 421.19 581.63 422.79 587.98 419.97 592.99 C 417.79 596.71 412.99 597.47 409.06 597.04 C 399.84 596.18 392.20 590.39 385.14 584.89 C 375.09 576.71 365.34 567.95 357.68 557.43 C 361.54 555.47 365.00 552.78 367.43 549.15 Z" />
</g>
<g id="#fbddb3ff">
<path fill="#fbddb3" opacity="1.00" d=" M 465.84 89.86 C 469.59 86.09 473.64 81.92 479.08 80.86 C 483.35 79.95 487.74 82.36 489.91 86.02 C 493.11 91.01 492.70 97.24 492.16 102.89 C 490.61 117.12 488.71 131.32 486.14 145.40 C 470.24 135.77 453.20 127.92 435.25 122.99 C 445.03 111.57 455.38 100.66 465.84 89.86 Z" />
<path fill="#fbddb3" opacity="1.00" d=" M 154.27 93.12 C 155.51 88.95 159.60 85.98 163.93 86.01 C 170.06 85.68 175.27 89.58 179.52 93.55 C 191.24 104.58 202.73 115.92 213.43 127.96 C 195.50 136.20 178.96 147.23 164.15 160.25 C 160.00 144.75 157.64 128.84 155.01 113.04 C 154.14 106.47 152.27 99.65 154.27 93.12 Z" />
<path fill="#fbddb3" opacity="1.00" d=" M 417.17 152.30 C 425.30 150.25 433.64 155.39 438.10 161.97 C 439.38 163.74 441.05 167.26 438.02 168.27 C 432.68 168.87 427.48 166.91 422.95 164.24 C 419.88 162.34 415.27 162.21 413.55 158.61 C 412.21 155.82 414.32 152.79 417.17 152.30 Z" />
<path fill="#fbddb3" opacity="1.00" d=" M 216.43 154.62 C 219.37 154.23 222.75 153.91 225.35 155.66 C 228.24 158.27 227.14 163.05 224.51 165.47 C 218.86 170.96 211.10 175.23 203.02 174.61 C 200.64 174.44 199.61 171.65 200.87 169.78 C 204.24 163.37 208.70 156.04 216.43 154.62 Z" />
<path fill="#fbddb3" opacity="1.00" d=" M 267.56 266.67 C 281.84 255.99 299.25 249.87 316.99 248.50 C 332.01 247.49 347.42 247.44 361.96 251.86 C 381.53 257.53 398.21 270.40 411.72 285.32 C 419.51 294.17 426.55 303.82 435.85 311.20 C 461.62 332.39 498.39 339.89 530.09 328.89 C 547.54 323.16 563.00 312.34 575.18 298.70 C 566.17 339.14 546.29 376.89 519.07 408.03 C 497.51 432.71 471.25 453.15 442.42 468.66 C 418.98 481.25 393.90 490.94 367.94 496.82 C 346.46 499.58 324.68 499.09 303.09 498.11 C 290.83 497.84 279.12 493.97 267.50 490.46 C 214.76 473.47 166.12 442.04 131.66 398.34 C 108.60 369.22 91.70 335.06 83.63 298.75 C 87.35 302.54 90.96 306.46 95.04 309.87 C 113.50 325.59 137.72 334.63 162.03 333.92 C 186.26 333.21 210.17 323.48 227.87 306.88 C 234.29 300.89 239.64 293.91 245.36 287.29 C 251.94 279.60 259.43 272.69 267.56 266.67 M 295.45 269.51 C 290.17 271.21 285.08 274.74 283.00 280.06 C 280.65 285.97 283.38 292.97 288.36 296.63 C 292.70 299.82 298.28 300.35 303.00 302.80 C 309.75 306.25 312.38 314.44 319.27 317.71 C 321.49 318.99 324.39 319.13 326.21 321.01 C 326.81 322.97 326.20 325.05 325.99 327.03 C 324.33 336.07 321.18 345.12 315.22 352.25 C 308.16 360.74 298.16 367.16 287.09 368.62 C 278.65 369.86 269.93 369.28 261.69 371.81 C 265.32 373.17 269.23 373.41 273.04 373.95 C 277.07 384.98 284.72 394.94 295.16 400.57 C 293.50 408.63 294.18 416.94 294.68 425.08 C 295.63 435.92 297.08 446.87 300.86 457.13 C 304.59 467.19 313.95 474.17 324.00 477.15 C 332.68 479.65 342.50 480.75 350.95 476.85 C 362.64 471.19 369.96 459.20 373.21 446.98 C 377.36 430.90 376.05 413.98 373.83 397.71 C 384.68 393.85 394.59 385.35 396.70 373.56 C 401.24 372.55 405.89 371.71 410.09 369.61 C 400.44 368.15 390.70 369.84 381.02 369.15 C 371.85 368.59 363.04 364.82 355.87 359.15 C 345.52 351.17 339.94 338.52 337.83 325.90 C 337.34 322.62 337.57 318.41 340.99 316.81 C 345.92 313.84 348.50 308.45 352.79 304.79 C 358.08 300.31 365.76 300.54 371.07 296.12 C 376.23 291.96 378.47 284.01 374.89 278.14 C 371.05 271.55 363.26 268.90 356.12 267.80 C 342.20 265.62 328.01 265.47 313.97 266.46 C 307.73 266.98 301.44 267.64 295.45 269.51 Z" />
<path fill="#fbddb3" opacity="1.00" d=" M 866.96 251.02 C 885.96 249.83 905.08 250.16 924.02 252.14 C 941.10 254.10 958.19 258.14 973.46 266.26 C 1000.39 280.16 1021.48 304.68 1031.69 333.17 C 1040.23 356.79 1040.04 382.60 1035.95 407.11 C 1033.70 421.17 1030.21 434.99 1026.52 448.74 C 1019.98 473.52 1013.47 498.50 1002.64 521.83 C 996.17 535.98 987.71 549.44 976.30 560.14 C 973.94 547.25 970.45 534.61 966.97 521.99 C 965.02 515.58 963.58 508.83 959.85 503.16 C 956.62 498.13 953.12 493.25 949.07 488.87 C 944.37 483.79 937.81 480.85 933.34 475.55 C 931.17 473.26 932.12 469.88 933.29 467.36 C 938.97 455.52 949.79 446.81 954.27 434.32 C 959.85 419.91 962.48 404.47 962.92 389.06 C 963.19 379.12 961.90 368.81 956.97 360.02 C 950.12 347.71 939.12 338.26 927.46 330.65 C 898.71 312.31 860.69 307.03 829.12 321.16 C 799.11 334.57 778.53 366.25 777.68 399.00 C 777.30 416.61 783.22 434.74 795.49 447.60 C 807.95 460.52 827.17 465.33 844.59 462.45 C 862.82 459.44 878.94 448.39 890.53 434.30 C 891.94 432.55 893.28 430.75 894.63 428.95 C 901.57 433.34 904.54 442.23 902.92 450.11 C 900.74 461.81 893.19 471.70 884.89 479.88 C 874.97 489.69 862.30 496.51 848.70 499.60 C 829.54 504.04 809.14 504.79 790.06 499.60 C 770.02 493.75 753.00 479.68 741.69 462.34 C 729.03 442.70 722.97 419.17 722.65 395.93 C 721.51 359.06 733.05 320.79 758.63 293.58 C 771.91 279.63 788.79 269.44 806.80 262.83 C 826.05 255.67 846.53 252.35 866.96 251.02 M 824.24 272.43 C 820.76 273.04 817.20 273.46 813.88 274.71 C 811.80 276.00 813.53 278.95 815.69 278.45 C 820.76 277.82 825.84 277.16 830.96 277.00 C 833.01 277.27 834.99 275.25 833.67 273.29 C 830.85 271.52 827.35 272.08 824.24 272.43 M 918.94 271.90 C 918.98 272.57 919.07 273.91 919.11 274.58 C 931.16 277.75 943.11 281.80 953.90 288.14 C 955.91 289.94 958.16 286.23 956.13 284.86 C 945.47 276.99 932.40 271.29 918.94 271.90 M 781.38 288.40 C 776.12 290.77 771.95 294.99 768.40 299.44 C 763.07 306.49 759.18 315.09 759.01 324.02 C 759.46 323.98 760.37 323.91 760.82 323.88 C 764.72 316.64 768.78 309.41 774.09 303.07 C 777.36 298.74 781.26 294.91 784.50 290.57 C 785.32 288.70 782.91 287.32 781.38 288.40 M 795.55 309.63 C 794.00 310.54 794.09 312.36 793.92 313.92 C 797.40 315.58 800.09 312.37 802.87 310.79 C 806.32 308.41 810.55 307.38 813.84 304.74 C 815.78 303.70 813.49 301.23 811.97 301.42 C 805.67 301.94 800.33 305.82 795.55 309.63 M 963.17 305.22 C 963.54 309.43 966.97 312.34 969.65 315.25 C 972.01 317.55 974.00 320.37 976.96 321.96 C 978.02 321.33 979.02 320.59 980.05 319.88 C 977.67 316.03 974.96 312.40 972.33 308.72 C 970.68 306.45 968.75 304.15 966.02 303.20 C 964.85 303.49 963.87 304.27 963.17 305.22 M 950.23 327.94 C 952.91 336.58 960.01 342.60 966.19 348.77 C 968.17 350.54 970.14 353.70 973.16 352.00 C 968.97 341.99 963.82 331.78 955.15 324.91 C 953.21 322.93 949.37 325.35 950.23 327.94 M 993.88 334.98 C 995.33 345.17 999.71 354.75 1000.97 365.00 C 1001.00 367.21 1002.16 369.01 1003.90 370.29 C 1004.52 368.56 1005.16 366.81 1005.21 364.96 C 1005.72 354.19 1004.85 342.56 998.50 333.44 C 997.12 331.49 993.40 332.27 993.88 334.98 M 781.34 338.31 C 775.23 345.87 772.06 355.45 770.99 365.01 C 770.55 366.45 772.02 367.28 772.81 368.18 C 775.19 362.93 776.32 357.20 778.99 352.07 C 781.74 346.48 786.44 342.11 788.92 336.35 C 788.15 335.59 787.38 334.83 786.63 334.08 C 784.71 335.27 782.74 336.50 781.34 338.31 M 746.89 354.86 C 744.06 363.57 743.69 373.37 747.00 381.99 C 747.34 383.91 749.41 383.83 750.91 384.14 C 751.28 377.41 749.94 370.76 750.06 364.04 C 749.96 358.89 750.76 353.78 750.99 348.64 C 748.36 349.60 747.76 352.53 746.89 354.86 M 989.02 396.04 C 988.67 397.99 988.31 399.99 988.68 401.97 C 989.80 410.32 993.17 418.11 995.52 426.15 C 996.41 425.61 997.77 425.33 997.60 423.98 C 998.11 417.80 997.77 411.53 996.61 405.43 C 995.86 402.24 995.03 398.83 992.78 396.33 C 991.52 396.18 990.27 396.08 989.02 396.04 M 741.49 407.62 C 742.23 414.45 744.67 421.09 747.82 427.18 C 749.87 430.54 752.55 435.06 757.20 434.16 C 756.91 431.93 756.59 429.64 755.21 427.80 C 751.51 422.27 747.93 416.62 745.56 410.38 C 744.95 408.71 743.60 405.93 741.49 407.62 M 1006.08 417.01 C 1004.16 423.48 1004.84 430.33 1004.75 436.99 C 1004.86 440.26 1004.39 443.65 1005.32 446.84 C 1006.64 447.82 1008.25 447.26 1009.71 447.00 C 1010.62 437.06 1012.21 427.00 1010.73 417.05 C 1010.33 414.96 1006.57 414.96 1006.08 417.01 M 767.89 437.95 C 771.18 442.30 774.45 446.86 779.00 449.99 C 780.78 451.26 783.08 450.75 785.13 450.88 C 785.13 448.75 785.02 446.29 782.99 445.06 C 778.62 441.95 774.12 439.02 769.89 435.71 C 769.25 436.48 768.58 437.23 767.89 437.95 M 976.04 438.99 C 972.52 447.58 970.27 456.64 968.16 465.67 C 968.56 465.97 969.34 466.59 969.74 466.89 C 975.65 458.93 978.98 449.04 978.82 439.11 C 979.19 437.55 976.19 437.53 976.04 438.99 M 763.16 456.05 C 760.81 458.23 763.89 461.06 765.08 463.05 C 769.94 469.72 775.95 476.56 784.31 478.49 C 785.86 479.08 786.34 476.58 785.11 475.92 C 779.81 470.54 773.39 466.37 768.27 460.80 C 766.67 459.10 765.12 457.33 763.16 456.05 M 861.35 460.44 C 857.79 461.89 855.08 464.71 852.04 466.96 C 849.45 469.06 846.46 470.71 844.28 473.26 C 842.93 475.19 844.96 478.58 847.24 477.26 C 852.72 474.13 858.29 471.05 863.37 467.29 C 864.67 465.87 867.56 464.22 866.18 462.00 C 865.47 459.91 863.12 459.79 861.35 460.44 M 991.38 462.30 C 987.90 465.99 986.52 471.08 984.67 475.68 C 982.77 481.79 980.19 487.70 978.90 493.98 C 982.78 494.94 984.53 491.01 986.30 488.37 C 990.79 481.39 994.46 473.50 994.61 465.05 C 994.78 463.29 992.98 462.10 991.38 462.30 M 826.35 473.46 C 819.30 474.36 812.52 476.96 806.31 480.34 C 803.68 481.42 805.34 485.59 807.98 484.87 C 813.63 484.29 819.29 483.34 824.73 481.69 C 827.43 480.64 831.03 479.45 831.71 476.23 C 831.14 473.81 828.54 473.00 826.35 473.46 Z" />
<path fill="#fbddb3" opacity="1.00" d=" M 346.72 536.68 C 348.46 536.08 350.28 536.52 351.98 537.04 C 357.63 538.75 363.47 539.71 369.11 541.48 C 385.57 546.54 401.24 554.46 414.63 565.33 C 420.01 569.87 425.27 575.15 427.54 581.98 C 430.21 590.00 425.51 599.50 417.70 602.52 C 411.89 604.60 405.54 603.11 400.05 600.76 C 390.37 596.54 382.15 589.68 374.45 582.59 C 365.87 574.31 358.06 565.18 351.74 555.06 C 351.30 557.35 350.92 559.72 351.42 562.04 C 354.83 578.15 360.92 593.92 370.91 607.14 C 381.84 621.77 396.84 633.24 413.62 640.38 C 416.19 641.49 418.91 642.27 421.39 643.61 C 424.09 645.10 423.22 650.12 420.02 650.41 C 416.60 649.72 413.48 648.06 410.34 646.61 C 383.50 633.60 361.15 610.42 351.23 582.07 C 354.26 607.07 361.71 631.56 373.15 654.00 C 375.41 658.61 378.74 662.85 379.68 668.00 C 380.27 671.06 375.77 672.17 374.22 669.81 C 366.48 661.88 363.32 650.91 359.06 640.96 C 351.37 622.71 346.62 603.37 343.80 583.81 C 339.90 592.95 335.70 601.99 330.30 610.36 C 326.43 616.27 322.66 622.71 316.47 626.46 C 312.12 629.19 306.05 629.37 301.96 626.06 C 296.25 621.58 293.97 614.01 293.86 607.00 C 293.78 596.11 298.19 585.79 303.61 576.55 C 310.65 564.60 319.97 553.99 331.06 545.64 C 335.87 542.03 340.84 538.31 346.72 536.68 M 334.32 549.52 C 323.34 558.27 313.95 569.13 307.46 581.61 C 303.17 590.02 299.92 599.38 300.47 608.95 C 300.74 614.07 303.23 620.18 308.93 621.05 C 313.80 622.40 316.88 617.67 319.52 614.46 C 329.42 601.19 336.44 585.93 341.43 570.19 C 343.12 565.49 342.44 560.46 342.40 555.59 C 342.81 551.35 343.86 547.23 345.25 543.22 C 341.17 544.48 337.80 547.16 334.32 549.52 M 348.63 544.79 C 348.73 545.55 348.94 547.07 349.04 547.84 C 352.57 550.39 354.62 554.38 357.68 557.43 C 365.34 567.95 375.09 576.71 385.14 584.89 C 392.20 590.39 399.84 596.18 409.06 597.04 C 412.99 597.47 417.79 596.71 419.97 592.99 C 422.79 587.98 421.19 581.63 417.77 577.33 C 411.57 569.45 402.49 564.65 393.75 560.14 C 385.32 555.72 376.57 551.87 367.43 549.15 C 361.27 547.28 354.98 545.86 348.63 544.79 Z" />
<path fill="#fbddb3" opacity="1.00" d=" M 697.38 751.16 C 709.79 749.09 722.04 746.21 734.44 744.08 C 738.38 751.76 742.65 759.27 746.96 766.74 C 726.30 773.96 705.68 781.31 684.86 788.04 C 690.06 776.12 694.14 763.74 697.38 751.16 Z" />
<path fill="#fbddb3" opacity="1.00" d=" M 741.69 811.72 C 745.22 805.35 746.92 798.14 750.70 791.89 C 749.26 805.22 748.80 818.65 748.61 832.05 C 748.47 838.72 748.81 845.41 748.20 852.06 C 748.47 875.14 746.66 898.27 742.68 921.02 C 740.34 932.56 737.85 944.50 731.50 954.59 C 728.46 959.72 722.96 962.46 717.48 964.21 C 704.26 968.48 690.30 970.24 676.44 970.22 C 676.89 967.74 677.42 965.11 676.22 962.76 C 673.02 955.60 670.95 947.81 671.22 939.93 C 671.44 935.81 672.40 931.79 672.85 927.71 C 666.95 936.92 666.07 948.38 667.18 959.02 C 667.50 962.98 669.03 966.69 670.87 970.18 C 661.66 969.24 651.38 968.27 644.37 961.55 C 641.14 958.54 640.87 954.02 641.31 949.92 C 641.52 941.22 642.51 932.46 645.09 924.12 C 646.62 919.03 649.33 914.44 651.70 909.72 C 641.72 916.69 635.39 928.01 632.59 939.69 C 631.68 942.98 632.11 946.42 632.82 949.71 C 625.78 948.63 619.54 944.12 616.10 937.93 C 612.22 931.00 610.96 922.58 612.72 914.83 C 614.24 907.02 618.28 900.03 622.48 893.39 C 625.03 889.00 627.64 884.26 627.39 879.01 C 627.26 865.92 622.84 853.39 618.58 841.17 C 616.98 836.71 615.19 832.33 613.14 828.07 C 613.42 828.59 614.00 829.64 614.28 830.17 C 619.47 823.17 627.27 818.03 636.00 816.96 C 648.86 815.27 661.52 820.71 671.62 828.32 C 679.90 834.43 687.13 842.78 697.43 845.48 C 705.51 847.62 713.80 844.11 720.04 839.08 C 729.10 831.66 736.21 822.03 741.69 811.72 Z" />
<path fill="#fbddb3" opacity="1.00" d=" M 922.77 808.75 C 923.40 806.23 924.46 803.83 925.98 801.72 C 925.63 826.87 927.64 851.94 929.09 877.03 C 929.49 900.42 929.41 924.06 924.64 947.06 C 922.38 955.99 919.97 966.42 911.55 971.58 C 900.29 977.90 887.44 980.35 874.90 982.75 C 867.31 970.14 860.72 956.04 861.56 940.97 C 858.26 952.68 858.73 965.05 860.14 977.02 C 860.35 979.72 861.44 982.38 863.84 983.86 C 854.53 983.85 844.73 984.11 836.12 980.00 C 831.12 977.69 827.32 972.12 828.61 966.50 C 829.92 959.99 827.96 953.49 828.10 946.97 C 827.96 939.08 829.81 931.37 831.89 923.83 C 825.85 930.71 822.42 939.48 820.42 948.32 C 819.39 954.22 818.44 960.38 819.92 966.30 C 813.56 965.65 807.50 962.53 803.58 957.43 C 797.27 949.11 795.45 937.82 798.28 927.82 C 800.32 918.22 807.11 910.48 809.22 900.95 C 810.15 891.36 806.81 882.03 803.74 873.10 C 800.44 864.75 797.09 856.36 792.66 848.53 C 796.48 842.70 801.73 837.66 808.34 835.17 C 819.73 830.63 832.66 833.25 843.30 838.62 C 852.75 843.13 860.23 850.81 869.67 855.33 C 874.97 857.89 881.23 858.86 886.91 856.97 C 894.78 854.42 900.89 848.37 905.91 842.02 C 913.62 832.18 919.49 820.84 922.77 808.75 Z" />
<path fill="#fbddb3" opacity="1.00" d=" M 223.22 892.79 C 223.58 892.35 224.30 891.47 224.66 891.03 C 237.60 901.74 253.79 907.49 269.99 911.11 C 289.34 915.31 309.07 917.51 328.83 918.54 C 328.94 919.07 329.17 920.14 329.28 920.67 L 329.37 921.09 C 325.01 927.90 321.48 935.22 316.76 941.81 C 308.83 953.55 298.85 964.10 286.62 971.39 C 270.94 981.05 251.45 984.65 233.47 980.26 C 234.78 973.32 233.23 965.94 236.35 959.36 C 239.32 951.25 246.10 945.57 253.03 940.86 C 239.50 944.41 227.81 954.65 222.73 967.72 C 221.65 970.37 220.79 973.11 219.95 975.85 C 211.37 972.16 203.45 966.66 197.66 959.27 C 195.36 955.85 193.12 951.60 194.47 947.39 C 200.08 938.96 208.13 931.89 218.04 929.14 C 207.01 927.62 195.50 932.93 189.11 941.97 L 188.94 942.18 C 185.44 937.15 182.73 931.28 182.82 925.04 C 182.66 917.26 186.58 908.95 193.87 905.57 C 200.84 901.96 209.12 902.58 216.16 899.16 C 219.00 897.64 221.24 895.28 223.22 892.79 Z" />
<path fill="#fbddb3" opacity="1.00" d=" M 408.74 942.76 C 443.02 952.80 479.56 955.06 514.79 949.07 C 511.38 962.29 505.74 975.18 496.69 985.54 C 487.05 997.08 473.50 1005.07 458.95 1008.62 C 460.55 1005.56 458.25 1002.77 456.86 1000.18 C 452.53 992.88 451.99 983.66 454.62 975.67 C 455.90 971.92 457.73 968.40 459.10 964.69 C 446.83 976.09 441.70 994.43 446.40 1010.55 C 437.13 1011.09 427.58 1009.91 419.09 1005.98 C 415.40 1004.01 411.54 1001.19 410.60 996.86 C 411.13 990.85 412.80 984.93 415.56 979.56 C 417.46 975.85 420.45 972.89 423.07 969.71 C 412.18 973.04 405.66 983.68 402.39 993.97 C 395.31 990.36 389.57 983.82 387.82 975.97 C 385.91 968.84 388.52 960.93 394.05 956.11 C 398.99 951.71 404.90 948.28 408.74 942.76 Z" />
</g>
<g id="#64954dff">
<path fill="#64954d" opacity="1.00" d=" M 296.97 92.05 C 311.61 88.01 326.73 84.59 342.01 85.88 C 358.82 87.37 375.15 92.13 390.91 97.98 C 396.86 100.34 402.97 102.37 408.58 105.49 C 404.79 109.29 401.00 113.08 397.09 116.76 C 369.21 113.24 341.15 110.97 313.04 110.75 C 293.37 110.67 273.63 111.57 254.22 114.88 C 252.30 112.42 250.36 109.98 248.36 107.59 C 263.94 100.65 280.60 96.65 296.97 92.05 Z" />
<path fill="#64954d" opacity="1.00" d=" M 518.75 180.67 C 520.00 175.24 521.61 169.89 522.81 164.45 C 533.20 173.34 541.50 184.27 550.23 194.72 C 561.91 209.03 573.73 223.24 585.31 237.63 C 594.54 249.48 603.32 262.71 605.05 278.00 C 606.90 293.45 601.09 308.51 593.83 321.84 C 586.00 335.78 577.13 349.11 568.49 362.56 C 551.11 388.82 532.00 414.50 507.41 434.50 C 492.01 446.96 474.67 456.96 456.35 464.47 C 451.83 466.21 447.40 468.77 442.42 468.66 C 471.25 453.15 497.51 432.71 519.07 408.03 C 546.29 376.89 566.17 339.14 575.18 298.70 C 577.95 286.12 580.37 272.73 576.59 260.10 C 574.44 252.61 569.08 246.65 563.24 241.74 C 555.62 235.35 548.69 228.11 542.93 219.99 C 533.85 207.53 527.41 193.40 518.75 180.67 Z" />
<path fill="#64954d" opacity="1.00" d=" M 111.80 198.85 C 119.13 192.05 126.28 185.04 134.08 178.77 C 134.47 183.86 135.34 188.95 135.04 194.06 C 134.09 197.33 131.53 199.81 129.72 202.62 C 120.29 216.26 109.97 229.48 97.27 240.25 C 91.23 245.29 85.25 251.01 82.68 258.67 C 78.19 271.66 80.76 285.70 83.63 298.75 C 91.70 335.06 108.60 369.22 131.66 398.34 C 166.12 442.04 214.76 473.47 267.50 490.46 C 260.85 490.79 254.30 489.44 247.77 488.43 C 236.39 486.43 225.14 483.63 214.25 479.77 C 189.91 471.13 167.79 456.69 149.62 438.40 C 130.75 420.19 115.43 398.70 101.49 376.60 C 91.57 360.82 82.03 344.72 74.50 327.64 C 68.13 312.60 63.26 296.54 63.54 280.05 C 63.37 267.20 66.94 254.45 73.33 243.33 C 83.14 226.14 97.85 212.61 111.80 198.85 Z" />
<path fill="#64954d" opacity="1.00" d=" M 630.69 387.22 C 636.97 385.25 643.67 386.06 649.99 387.38 C 653.53 388.16 657.14 388.96 660.37 390.67 C 661.88 391.09 661.83 392.71 662.21 393.95 C 655.70 393.43 649.55 391.06 643.11 390.15 C 638.95 389.30 634.45 389.42 630.69 387.22 Z" />
<path fill="#64954d" opacity="1.00" d=" M 640.72 398.47 C 650.32 400.60 660.71 400.58 669.41 405.67 C 671.18 406.53 672.35 408.14 673.20 409.88 C 667.25 409.16 661.84 406.34 656.07 404.86 C 650.90 402.98 644.89 402.35 640.72 398.47 Z" />
<path fill="#64954d" opacity="1.00" d=" M 647.91 422.21 C 657.74 422.90 667.07 426.75 675.69 431.32 C 680.03 433.99 684.79 436.53 687.82 440.76 C 686.50 442.92 683.93 441.41 682.24 440.64 C 670.66 434.76 659.24 428.56 647.91 422.21 Z" />
<path fill="#64954d" opacity="1.00" d=" M 658.66 454.26 C 667.37 456.76 676.06 459.64 684.08 463.93 C 685.42 464.39 685.74 465.78 686.23 466.95 C 677.60 465.18 669.82 460.90 661.96 457.14 C 660.56 456.55 659.54 455.44 658.66 454.26 Z" />
<path fill="#64954d" opacity="1.00" d=" M 664.96 487.24 C 672.60 487.61 681.15 488.26 687.25 493.36 C 685.95 494.25 684.59 495.43 682.89 494.83 C 676.51 493.48 670.53 490.56 664.96 487.24 Z" />
<path fill="#64954d" opacity="1.00" d=" M 334.45 534.51 C 342.08 526.46 356.03 525.23 364.67 532.33 C 367.47 534.55 368.36 538.16 369.11 541.48 C 363.47 539.71 357.63 538.75 351.98 537.04 C 350.28 536.52 348.46 536.08 346.72 536.68 C 340.84 538.31 335.87 542.03 331.06 545.64 C 329.93 541.55 331.61 537.44 334.45 534.51 Z" />
<path fill="#64954d" opacity="1.00" d=" M 334.32 549.52 C 337.80 547.16 341.17 544.48 345.25 543.22 C 343.86 547.23 342.81 551.35 342.40 555.59 C 339.34 554.09 336.58 552.07 334.32 549.52 Z" />
<path fill="#64954d" opacity="1.00" d=" M 348.63 544.79 C 354.98 545.86 361.27 547.28 367.43 549.15 C 365.00 552.78 361.54 555.47 357.68 557.43 C 354.62 554.38 352.57 550.39 349.04 547.84 C 348.94 547.07 348.73 545.55 348.63 544.79 Z" />
<path fill="#64954d" opacity="1.00" d=" M 682.06 694.16 C 688.01 692.31 693.86 689.30 700.29 690.03 C 699.90 694.35 695.42 696.25 692.06 698.00 C 685.89 700.30 678.64 701.12 672.38 698.76 C 672.37 698.43 672.34 697.79 672.32 697.46 C 675.46 696.07 678.81 695.26 682.06 694.16 Z" />
<path fill="#64954d" opacity="1.00" d=" M 683.71 715.66 C 685.86 714.66 688.32 713.14 690.74 714.26 C 692.68 717.92 688.06 720.16 685.32 721.28 C 680.60 722.89 675.07 725.65 670.24 723.06 C 674.29 719.85 679.23 718.16 683.71 715.66 Z" />
<path fill="#64954d" opacity="1.00" d=" M 676.35 741.29 C 680.00 739.54 684.03 738.79 688.07 739.01 C 687.66 740.17 687.84 741.75 686.67 742.52 C 680.78 747.07 672.93 748.56 665.63 747.89 C 668.38 744.56 672.59 743.13 676.35 741.29 Z" />
<path fill="#64954d" opacity="1.00" d=" M 671.26 763.24 C 674.60 761.62 677.95 759.59 681.74 759.31 C 684.33 761.16 681.30 763.49 679.58 764.63 C 673.68 768.23 666.61 770.01 659.71 769.81 C 663.17 766.99 667.38 765.38 671.26 763.24 Z" />
<path fill="#64954d" opacity="1.00" d=" M 223.05 773.51 C 228.50 778.21 234.03 782.84 239.79 787.17 C 262.79 805.02 289.24 817.59 315.63 829.53 C 330.37 835.50 346.91 838.70 362.65 835.16 C 369.73 848.50 375.28 862.68 379.08 877.29 C 379.18 879.49 379.11 881.70 378.92 883.91 C 372.09 892.04 365.03 900.00 358.16 908.10 C 355.01 911.75 351.70 915.66 347.00 917.29 C 341.74 919.17 336.03 918.86 330.54 918.62 C 330.14 919.30 329.72 919.98 329.28 920.67 C 329.17 920.14 328.94 919.07 328.83 918.54 C 309.07 917.51 289.34 915.31 269.99 911.11 C 253.79 907.49 237.60 901.74 224.66 891.03 C 224.30 891.47 223.58 892.35 223.22 892.79 C 223.42 892.29 223.81 891.29 224.01 890.79 C 219.53 885.91 214.26 881.36 211.87 875.00 C 210.48 871.28 211.32 867.24 212.42 863.57 C 221.20 834.47 224.62 803.83 223.05 773.51 Z" />
<path fill="#64954d" opacity="1.00" d=" M 674.79 778.71 C 676.51 778.05 678.38 778.14 680.21 778.12 C 674.94 787.07 663.14 788.65 653.65 788.70 C 654.41 787.82 655.19 786.91 656.33 786.52 C 662.48 783.90 668.50 780.97 674.79 778.71 Z" />
<path fill="#64954d" opacity="1.00" d=" M 656.10 799.16 C 663.39 797.12 669.60 792.21 677.14 790.96 C 676.27 794.87 672.18 796.32 669.15 798.23 C 661.42 802.29 652.51 805.43 643.69 803.63 C 647.27 800.86 651.96 800.61 656.10 799.16 Z" />
<path fill="#64954d" opacity="1.00" d=" M 391.26 889.19 C 391.59 888.90 392.25 888.33 392.58 888.04 C 395.23 898.47 395.78 909.32 395.07 920.03 C 394.74 923.16 394.53 926.41 393.30 929.36 C 391.60 931.71 388.66 929.40 389.07 927.04 C 388.42 914.39 389.89 901.75 391.26 889.19 Z" />
<path fill="#64954d" opacity="1.00" d=" M 492.19 892.78 C 496.66 897.81 496.63 905.01 497.52 911.33 C 498.25 919.81 500.88 928.43 498.93 936.93 C 498.55 939.73 493.64 939.75 493.24 936.95 C 491.33 930.48 492.20 923.64 491.99 916.99 C 491.88 908.93 489.65 900.67 492.19 892.78 Z" />
<path fill="#64954d" opacity="1.00" d=" M 505.27 893.04 C 506.74 892.13 507.45 893.90 507.73 895.01 C 510.43 904.91 511.01 915.19 512.53 925.30 C 513.12 929.47 512.79 933.71 511.73 937.78 C 510.99 937.93 509.51 938.22 508.76 938.36 C 505.40 932.50 505.45 925.57 505.10 919.03 C 504.77 910.39 503.45 901.60 505.27 893.04 Z" />
<path fill="#64954d" opacity="1.00" d=" M 405.28 894.23 C 405.64 894.20 406.34 894.13 406.69 894.09 C 409.07 905.87 409.62 918.12 407.70 930.02 C 406.39 930.20 405.05 930.83 403.74 930.35 C 401.79 925.49 402.39 920.05 402.38 914.93 C 402.87 907.99 403.39 900.95 405.28 894.23 Z" />
<path fill="#64954d" opacity="1.00" d=" M 519.05 893.65 C 522.39 897.33 523.30 902.41 524.62 907.04 C 525.96 914.26 527.85 921.77 526.29 929.11 C 526.18 930.90 524.65 931.72 523.15 932.21 C 520.67 926.10 520.80 919.45 519.96 913.03 C 519.24 906.60 518.45 900.12 519.05 893.65 Z" />
</g>
<g id="#5b4b40ff">
<path fill="#5b4b40" opacity="1.00" d=" M 405.67 212.74 C 410.06 207.39 417.52 205.72 424.14 206.36 C 429.00 206.84 434.39 208.65 436.85 213.22 C 439.79 218.68 438.61 225.42 435.85 230.72 C 433.83 234.30 430.28 237.20 426.09 237.62 C 420.73 238.13 415.11 237.24 410.35 234.65 C 406.38 232.51 403.81 228.41 402.89 224.07 C 402.53 220.14 403.03 215.86 405.67 212.74 M 415.45 210.52 C 411.41 212.11 408.94 216.77 409.79 221.02 C 410.06 223.08 412.64 224.67 414.49 223.47 C 416.13 221.69 416.44 219.03 418.15 217.27 C 419.21 215.85 420.99 214.82 421.40 212.99 C 421.21 210.18 417.55 209.71 415.45 210.52 Z" />
<path fill="#5b4b40" opacity="1.00" d=" M 210.58 219.49 C 217.31 214.54 226.88 214.16 234.34 217.64 C 238.07 219.34 240.15 223.18 240.96 227.04 C 241.48 233.15 239.61 239.80 234.95 243.98 C 230.26 247.98 223.51 247.23 217.95 245.87 C 212.34 244.58 207.32 240.47 205.74 234.82 C 204.35 229.32 205.83 222.93 210.58 219.49 M 218.44 219.51 C 213.96 220.91 211.16 226.09 212.39 230.62 C 212.88 232.48 215.08 233.59 216.86 232.77 C 218.66 230.78 218.98 227.81 221.00 225.97 C 222.13 224.58 224.25 223.40 223.70 221.30 C 222.83 219.32 220.28 219.13 218.44 219.51 Z" />
<path fill="#5b4b40" opacity="1.00" d=" M 295.45 269.51 C 301.44 267.64 307.73 266.98 313.97 266.46 C 328.01 265.47 342.20 265.62 356.12 267.80 C 363.26 268.90 371.05 271.55 374.89 278.14 C 378.47 284.01 376.23 291.96 371.07 296.12 C 365.76 300.54 358.08 300.31 352.79 304.79 C 348.50 308.45 345.92 313.84 340.99 316.81 C 337.57 318.41 337.34 322.62 337.83 325.90 C 339.94 338.52 345.52 351.17 355.87 359.15 C 363.04 364.82 371.85 368.59 381.02 369.15 C 390.70 369.84 400.44 368.15 410.09 369.61 C 405.89 371.71 401.24 372.55 396.70 373.56 C 394.59 385.35 384.68 393.85 373.83 397.71 C 372.53 390.51 368.52 382.76 360.92 380.76 C 351.96 378.06 342.91 382.84 336.63 389.00 C 333.52 386.52 330.32 383.44 326.06 383.47 C 318.64 383.17 310.61 383.16 304.04 387.11 C 299.19 389.97 296.45 395.26 295.16 400.57 C 284.72 394.94 277.07 384.98 273.04 373.95 C 269.23 373.41 265.32 373.17 261.69 371.81 C 269.93 369.28 278.65 369.86 287.09 368.62 C 298.16 367.16 308.16 360.74 315.22 352.25 C 321.18 345.12 324.33 336.07 325.99 327.03 C 326.20 325.05 326.81 322.97 326.21 321.01 C 324.39 319.13 321.49 318.99 319.27 317.71 C 312.38 314.44 309.75 306.25 303.00 302.80 C 298.28 300.35 292.70 299.82 288.36 296.63 C 283.38 292.97 280.65 285.97 283.00 280.06 C 285.08 274.74 290.17 271.21 295.45 269.51 Z" />
</g>
<g id="#ffffffff">
<path fill="#ffffff" opacity="1.00" d=" M 415.45 210.52 C 417.55 209.71 421.21 210.18 421.40 212.99 C 420.99 214.82 419.21 215.85 418.15 217.27 C 416.44 219.03 416.13 221.69 414.49 223.47 C 412.64 224.67 410.06 223.08 409.79 221.02 C 408.94 216.77 411.41 212.11 415.45 210.52 Z" />
<path fill="#ffffff" opacity="1.00" d=" M 218.44 219.51 C 220.28 219.13 222.83 219.32 223.70 221.30 C 224.25 223.40 222.13 224.58 221.00 225.97 C 218.98 227.81 218.66 230.78 216.86 232.77 C 215.08 233.59 212.88 232.48 212.39 230.62 C 211.16 226.09 213.96 220.91 218.44 219.51 Z" />
</g>
<g id="#faebd4ff">
<path fill="#faebd4" opacity="1.00" d=" M 824.24 272.43 C 827.35 272.08 830.85 271.52 833.67 273.29 C 834.99 275.25 833.01 277.27 830.96 277.00 C 825.84 277.16 820.76 277.82 815.69 278.45 C 813.53 278.95 811.80 276.00 813.88 274.71 C 817.20 273.46 820.76 273.04 824.24 272.43 Z" />
<path fill="#faebd4" opacity="1.00" d=" M 918.94 271.90 C 932.40 271.29 945.47 276.99 956.13 284.86 C 958.16 286.23 955.91 289.94 953.90 288.14 C 943.11 281.80 931.16 277.75 919.11 274.58 C 919.07 273.91 918.98 272.57 918.94 271.90 Z" />
<path fill="#faebd4" opacity="1.00" d=" M 781.38 288.40 C 782.91 287.32 785.32 288.70 784.50 290.57 C 781.26 294.91 777.36 298.74 774.09 303.07 C 768.78 309.41 764.72 316.64 760.82 323.88 C 760.37 323.91 759.46 323.98 759.01 324.02 C 759.18 315.09 763.07 306.49 768.40 299.44 C 771.95 294.99 776.12 290.77 781.38 288.40 Z" />
<path fill="#faebd4" opacity="1.00" d=" M 795.55 309.63 C 800.33 305.82 805.67 301.94 811.97 301.42 C 813.49 301.23 815.78 303.70 813.84 304.74 C 810.55 307.38 806.32 308.41 802.87 310.79 C 800.09 312.37 797.40 315.58 793.92 313.92 C 794.09 312.36 794.00 310.54 795.55 309.63 Z" />
<path fill="#faebd4" opacity="1.00" d=" M 963.17 305.22 C 963.87 304.27 964.85 303.49 966.02 303.20 C 968.75 304.15 970.68 306.45 972.33 308.72 C 974.96 312.40 977.67 316.03 980.05 319.88 C 979.02 320.59 978.02 321.33 976.96 321.96 C 974.00 320.37 972.01 317.55 969.65 315.25 C 966.97 312.34 963.54 309.43 963.17 305.22 Z" />
<path fill="#faebd4" opacity="1.00" d=" M 950.23 327.94 C 949.37 325.35 953.21 322.93 955.15 324.91 C 963.82 331.78 968.97 341.99 973.16 352.00 C 970.14 353.70 968.17 350.54 966.19 348.77 C 960.01 342.60 952.91 336.58 950.23 327.94 Z" />
<path fill="#faebd4" opacity="1.00" d=" M 993.88 334.98 C 993.40 332.27 997.12 331.49 998.50 333.44 C 1004.85 342.56 1005.72 354.19 1005.21 364.96 C 1005.16 366.81 1004.52 368.56 1003.90 370.29 C 1002.16 369.01 1001.00 367.21 1000.97 365.00 C 999.71 354.75 995.33 345.17 993.88 334.98 Z" />
<path fill="#faebd4" opacity="1.00" d=" M 781.34 338.31 C 782.74 336.50 784.71 335.27 786.63 334.08 C 787.38 334.83 788.15 335.59 788.92 336.35 C 786.44 342.11 781.74 346.48 778.99 352.07 C 776.32 357.20 775.19 362.93 772.81 368.18 C 772.02 367.28 770.55 366.45 770.99 365.01 C 772.06 355.45 775.23 345.87 781.34 338.31 Z" />
<path fill="#faebd4" opacity="1.00" d=" M 746.89 354.86 C 747.76 352.53 748.36 349.60 750.99 348.64 C 750.76 353.78 749.96 358.89 750.06 364.04 C 749.94 370.76 751.28 377.41 750.91 384.14 C 749.41 383.83 747.34 383.91 747.00 381.99 C 743.69 373.37 744.06 363.57 746.89 354.86 Z" />
<path fill="#faebd4" opacity="1.00" d=" M 989.02 396.04 C 990.27 396.08 991.52 396.18 992.78 396.33 C 995.03 398.83 995.86 402.24 996.61 405.43 C 997.77 411.53 998.11 417.80 997.60 423.98 C 997.77 425.33 996.41 425.61 995.52 426.15 C 993.17 418.11 989.80 410.32 988.68 401.97 C 988.31 399.99 988.67 397.99 989.02 396.04 Z" />
<path fill="#faebd4" opacity="1.00" d=" M 741.49 407.62 C 743.60 405.93 744.95 408.71 745.56 410.38 C 747.93 416.62 751.51 422.27 755.21 427.80 C 756.59 429.64 756.91 431.93 757.20 434.16 C 752.55 435.06 749.87 430.54 747.82 427.18 C 744.67 421.09 742.23 414.45 741.49 407.62 Z" />
<path fill="#faebd4" opacity="1.00" d=" M 1006.08 417.01 C 1006.57 414.96 1010.33 414.96 1010.73 417.05 C 1012.21 427.00 1010.62 437.06 1009.71 447.00 C 1008.25 447.26 1006.64 447.82 1005.32 446.84 C 1004.39 443.65 1004.86 440.26 1004.75 436.99 C 1004.84 430.33 1004.16 423.48 1006.08 417.01 Z" />
<path fill="#faebd4" opacity="1.00" d=" M 767.89 437.95 C 768.58 437.23 769.25 436.48 769.89 435.71 C 774.12 439.02 778.62 441.95 782.99 445.06 C 785.02 446.29 785.13 448.75 785.13 450.88 C 783.08 450.75 780.78 451.26 779.00 449.99 C 774.45 446.86 771.18 442.30 767.89 437.95 Z" />
<path fill="#faebd4" opacity="1.00" d=" M 976.04 438.99 C 976.19 437.53 979.19 437.55 978.82 439.11 C 978.98 449.04 975.65 458.93 969.74 466.89 C 969.34 466.59 968.56 465.97 968.16 465.67 C 970.27 456.64 972.52 447.58 976.04 438.99 Z" />
<path fill="#faebd4" opacity="1.00" d=" M 763.16 456.05 C 765.12 457.33 766.67 459.10 768.27 460.80 C 773.39 466.37 779.81 470.54 785.11 475.92 C 786.34 476.58 785.86 479.08 784.31 478.49 C 775.95 476.56 769.94 469.72 765.08 463.05 C 763.89 461.06 760.81 458.23 763.16 456.05 Z" />
<path fill="#faebd4" opacity="1.00" d=" M 861.35 460.44 C 863.12 459.79 865.47 459.91 866.18 462.00 C 867.56 464.22 864.67 465.87 863.37 467.29 C 858.29 471.05 852.72 474.13 847.24 477.26 C 844.96 478.58 842.93 475.19 844.28 473.26 C 846.46 470.71 849.45 469.06 852.04 466.96 C 855.08 464.71 857.79 461.89 861.35 460.44 Z" />
<path fill="#faebd4" opacity="1.00" d=" M 991.38 462.30 C 992.98 462.10 994.78 463.29 994.61 465.05 C 994.46 473.50 990.79 481.39 986.30 488.37 C 984.53 491.01 982.78 494.94 978.90 493.98 C 980.19 487.70 982.77 481.79 984.67 475.68 C 986.52 471.08 987.90 465.99 991.38 462.30 Z" />
<path fill="#faebd4" opacity="1.00" d=" M 826.35 473.46 C 828.54 473.00 831.14 473.81 831.71 476.23 C 831.03 479.45 827.43 480.64 824.73 481.69 C 819.29 483.34 813.63 484.29 807.98 484.87 C 805.34 485.59 803.68 481.42 806.31 480.34 C 812.52 476.96 819.30 474.36 826.35 473.46 Z" />
</g>
<g id="#83aa5aff">
<path fill="#83aa5a" opacity="1.00" d=" M 529.29 450.20 C 552.18 421.91 569.06 388.97 594.60 362.79 C 601.79 365.93 609.21 368.53 616.42 371.66 C 619.19 372.71 621.89 374.41 624.96 374.24 C 634.88 374.03 644.67 376.53 653.78 380.30 C 660.27 383.07 666.65 386.58 671.47 391.84 C 676.71 397.94 680.31 405.24 683.26 412.68 C 694.46 440.78 701.03 470.55 704.66 500.52 C 709.92 542.63 709.22 585.15 709.29 627.49 C 708.66 649.78 708.33 672.10 706.59 694.36 C 704.68 713.45 702.11 732.53 697.38 751.16 C 694.14 763.74 690.06 776.12 684.86 788.04 C 682.25 793.63 679.94 799.43 676.36 804.49 C 673.71 808.32 669.05 810.00 664.57 810.31 C 654.61 810.97 644.65 811.77 634.67 811.38 C 638.23 799.61 641.78 787.83 644.99 775.95 C 655.31 738.87 662.25 700.59 662.14 661.99 C 662.09 645.98 662.45 629.94 661.15 613.97 C 659.74 585.92 656.78 557.98 654.29 530.01 C 650.42 490.78 645.27 451.22 632.09 413.87 C 628.19 402.10 621.13 391.79 614.67 381.35 C 608.48 381.93 602.19 384.20 597.76 388.71 C 590.18 395.93 585.45 405.44 580.37 414.45 C 575.64 423.75 570.79 433.02 566.62 442.60 C 562.23 450.81 558.06 459.17 553.08 467.06 C 543.69 482.76 530.99 496.76 515.21 506.20 C 500.31 515.78 483.09 521.25 465.61 523.57 C 436.06 526.55 405.49 520.11 379.88 505.04 C 388.24 506.07 396.52 508.03 405.00 507.98 C 429.05 508.87 452.97 502.84 474.66 492.69 C 487.72 486.36 500.34 478.84 511.27 469.23 C 517.51 463.13 523.88 457.08 529.29 450.20 M 630.69 387.22 C 634.45 389.42 638.95 389.30 643.11 390.15 C 649.55 391.06 655.70 393.43 662.21 393.95 C 661.83 392.71 661.88 391.09 660.37 390.67 C 657.14 388.96 653.53 388.16 649.99 387.38 C 643.67 386.06 636.97 385.25 630.69 387.22 M 640.72 398.47 C 644.89 402.35 650.90 402.98 656.07 404.86 C 661.84 406.34 667.25 409.16 673.20 409.88 C 672.35 408.14 671.18 406.53 669.41 405.67 C 660.71 400.58 650.32 400.60 640.72 398.47 M 647.91 422.21 C 659.24 428.56 670.66 434.76 682.24 440.64 C 683.93 441.41 686.50 442.92 687.82 440.76 C 684.79 436.53 680.03 433.99 675.69 431.32 C 667.07 426.75 657.74 422.90 647.91 422.21 M 658.66 454.26 C 659.54 455.44 660.56 456.55 661.96 457.14 C 669.82 460.90 677.60 465.18 686.23 466.95 C 685.74 465.78 685.42 464.39 684.08 463.93 C 676.06 459.64 667.37 456.76 658.66 454.26 M 664.96 487.24 C 670.53 490.56 676.51 493.48 682.89 494.83 C 684.59 495.43 685.95 494.25 687.25 493.36 C 681.15 488.26 672.60 487.61 664.96 487.24 M 682.06 694.16 C 678.81 695.26 675.46 696.07 672.32 697.46 C 672.34 697.79 672.37 698.43 672.38 698.76 C 678.64 701.12 685.89 700.30 692.06 698.00 C 695.42 696.25 699.90 694.35 700.29 690.03 C 693.86 689.30 688.01 692.31 682.06 694.16 M 683.71 715.66 C 679.23 718.16 674.29 719.85 670.24 723.06 C 675.07 725.65 680.60 722.89 685.32 721.28 C 688.06 720.16 692.68 717.92 690.74 714.26 C 688.32 713.14 685.86 714.66 683.71 715.66 M 676.35 741.29 C 672.59 743.13 668.38 744.56 665.63 747.89 C 672.93 748.56 680.78 747.07 686.67 742.52 C 687.84 741.75 687.66 740.17 688.07 739.01 C 684.03 738.79 680.00 739.54 676.35 741.29 M 671.26 763.24 C 667.38 765.38 663.17 766.99 659.71 769.81 C 666.61 770.01 673.68 768.23 679.58 764.63 C 681.30 763.49 684.33 761.16 681.74 759.31 C 677.95 759.59 674.60 761.62 671.26 763.24 M 674.79 778.71 C 668.50 780.97 662.48 783.90 656.33 786.52 C 655.19 786.91 654.41 787.82 653.65 788.70 C 663.14 788.65 674.94 787.07 680.21 778.12 C 678.38 778.14 676.51 778.05 674.79 778.71 M 656.10 799.16 C 651.96 800.61 647.27 800.86 643.69 803.63 C 652.51 805.43 661.42 802.29 669.15 798.23 C 672.18 796.32 676.27 794.87 677.14 790.96 C 669.60 792.21 663.39 797.12 656.10 799.16 Z" />
<path fill="#83aa5a" opacity="1.00" d=" M 161.84 463.94 C 165.48 465.01 168.70 467.07 171.99 468.92 C 180.35 473.46 188.36 478.63 196.57 483.44 C 211.87 492.53 226.93 502.42 243.92 508.10 C 260.57 513.63 277.94 516.84 295.39 518.59 C 302.26 519.32 309.24 518.86 316.05 520.26 C 301.94 526.22 286.19 527.89 271.03 526.21 C 248.56 524.22 227.25 516.31 205.66 510.32 C 193.79 506.92 181.34 503.54 168.92 505.66 C 161.15 506.82 154.20 510.94 148.57 516.28 C 149.77 504.26 152.53 492.45 155.74 480.82 C 157.45 475.09 158.99 469.24 161.84 463.94 Z" />
<path fill="#83aa5a" opacity="1.00" d=" M 173.52 705.05 C 179.07 708.52 182.81 714.10 188.07 717.95 C 210.38 735.52 237.64 744.94 264.34 753.58 C 281.10 758.62 297.78 764.14 314.95 767.67 C 313.31 759.56 311.84 751.35 311.90 743.05 C 311.99 735.65 310.50 728.28 311.37 720.89 C 316.05 739.10 322.94 756.74 331.72 773.36 C 334.07 777.69 333.75 782.82 335.62 787.31 C 343.47 803.90 354.33 818.83 362.65 835.16 C 346.91 838.70 330.37 835.50 315.63 829.53 C 289.24 817.59 262.79 805.02 239.79 787.17 C 234.03 782.84 228.50 778.21 223.05 773.51 C 215.85 766.83 208.50 760.19 202.78 752.15 C 191.89 737.20 182.24 721.35 173.52 705.05 Z" />
<path fill="#83aa5a" opacity="1.00" d=" M 544.15 705.89 C 560.95 735.31 565.07 770.99 558.24 803.95 C 562.17 799.62 565.69 794.92 569.90 790.85 C 564.96 805.47 560.12 820.16 556.85 835.26 C 552.63 853.91 549.89 872.91 548.80 892.01 C 548.02 902.04 548.68 912.15 547.38 922.14 C 546.44 928.94 543.81 935.85 538.41 940.34 C 531.81 945.89 523.06 947.65 514.79 949.07 C 479.56 955.06 443.02 952.80 408.74 942.76 C 400.12 939.75 390.34 938.02 383.71 931.26 C 376.50 923.39 376.27 911.92 377.10 901.88 C 377.55 895.87 378.55 889.92 378.92 883.91 C 379.11 881.70 379.18 879.49 379.08 877.29 C 389.33 879.06 399.73 879.75 410.05 881.04 C 426.96 883.09 443.97 884.21 460.99 884.81 C 474.37 884.33 487.80 883.68 500.95 880.97 C 511.30 879.22 522.29 875.49 528.63 866.56 C 537.95 853.66 539.28 837.27 541.03 821.96 C 544.43 790.44 545.50 758.71 544.74 727.02 C 544.32 719.99 543.56 712.94 544.15 705.89 M 391.26 889.19 C 389.89 901.75 388.42 914.39 389.07 927.04 C 388.66 929.40 391.60 931.71 393.30 929.36 C 394.53 926.41 394.74 923.16 395.07 920.03 C 395.78 909.32 395.23 898.47 392.58 888.04 C 392.25 888.33 391.59 888.90 391.26 889.19 M 492.19 892.78 C 489.65 900.67 491.88 908.93 491.99 916.99 C 492.20 923.64 491.33 930.48 493.24 936.95 C 493.64 939.75 498.55 939.73 498.93 936.93 C 500.88 928.43 498.25 919.81 497.52 911.33 C 496.63 905.01 496.66 897.81 492.19 892.78 M 505.27 893.04 C 503.45 901.60 504.77 910.39 505.10 919.03 C 505.45 925.57 505.40 932.50 508.76 938.36 C 509.51 938.22 510.99 937.93 511.73 937.78 C 512.79 933.71 513.12 929.47 512.53 925.30 C 511.01 915.19 510.43 904.91 507.73 895.01 C 507.45 893.90 506.74 892.13 505.27 893.04 M 405.28 894.23 C 403.39 900.95 402.87 907.99 402.38 914.93 C 402.39 920.05 401.79 925.49 403.74 930.35 C 405.05 930.83 406.39 930.20 407.70 930.02 C 409.62 918.12 409.07 905.87 406.69 894.09 C 406.34 894.13 405.64 894.20 405.28 894.23 M 519.05 893.65 C 518.45 900.12 519.24 906.60 519.96 913.03 C 520.80 919.45 520.67 926.10 523.15 932.21 C 524.65 931.72 526.18 930.90 526.29 929.11 C 527.85 921.77 525.96 914.26 524.62 907.04 C 523.30 902.41 522.39 897.33 519.05 893.65 Z" />
</g>
<g id="#e75952ff">
<path fill="#e75952" opacity="1.00" d=" M 336.63 389.00 C 342.91 382.84 351.96 378.06 360.92 380.76 C 368.52 382.76 372.53 390.51 373.83 397.71 C 376.05 413.98 377.36 430.90 373.21 446.98 C 369.96 459.20 362.64 471.19 350.95 476.85 C 342.50 480.75 332.68 479.65 324.00 477.15 C 313.95 474.17 304.59 467.19 300.86 457.13 C 297.08 446.87 295.63 435.92 294.68 425.08 C 294.18 416.94 293.50 408.63 295.16 400.57 C 296.45 395.26 299.19 389.97 304.04 387.11 C 310.61 383.16 318.64 383.17 326.06 383.47 C 330.32 383.44 333.52 386.52 336.63 389.00 Z" />
</g>
<g id="#f4c79eff">
<path fill="#f4c79e" opacity="1.00" d=" M 632.59 939.69 C 635.39 928.01 641.72 916.69 651.70 909.72 C 649.33 914.44 646.62 919.03 645.09 924.12 C 642.51 932.46 641.52 941.22 641.31 949.92 C 640.09 950.28 638.87 950.65 637.67 951.05 C 636.05 950.59 634.44 950.11 632.82 949.71 C 632.11 946.42 631.68 942.98 632.59 939.69 Z" />
<path fill="#f4c79e" opacity="1.00" d=" M 820.42 948.32 C 822.42 939.48 825.85 930.71 831.89 923.83 C 829.81 931.37 827.96 939.08 828.10 946.97 C 827.96 953.49 829.92 959.99 828.61 966.50 C 825.76 966.93 822.50 968.13 819.92 966.30 C 818.44 960.38 819.39 954.22 820.42 948.32 Z" />
<path fill="#f4c79e" opacity="1.00" d=" M 667.18 959.02 C 666.07 948.38 666.95 936.92 672.85 927.71 C 672.40 931.79 671.44 935.81 671.22 939.93 C 670.95 947.81 673.02 955.60 676.22 962.76 C 677.42 965.11 676.89 967.74 676.44 970.22 C 674.57 970.21 672.72 970.20 670.87 970.18 C 669.03 966.69 667.50 962.98 667.18 959.02 Z" />
<path fill="#f4c79e" opacity="1.00" d=" M 189.11 941.97 C 195.50 932.93 207.01 927.62 218.04 929.14 C 208.13 931.89 200.08 938.96 194.47 947.39 C 192.13 946.16 190.13 944.45 189.11 941.97 Z" />
<path fill="#f4c79e" opacity="1.00" d=" M 222.73 967.72 C 227.81 954.65 239.50 944.41 253.03 940.86 C 246.10 945.57 239.32 951.25 236.35 959.36 C 233.23 965.94 234.78 973.32 233.47 980.26 C 229.16 980.60 225.03 979.45 221.02 978.01 C 220.66 977.27 220.30 976.56 219.95 975.85 C 220.79 973.11 221.65 970.37 222.73 967.72 Z" />
<path fill="#f4c79e" opacity="1.00" d=" M 860.14 977.02 C 858.73 965.05 858.26 952.68 861.56 940.97 C 860.72 956.04 867.31 970.14 874.90 982.75 C 871.23 983.04 867.45 984.59 863.84 983.86 C 861.44 982.38 860.35 979.72 860.14 977.02 Z" />
<path fill="#f4c79e" opacity="1.00" d=" M 446.40 1010.55 C 441.70 994.43 446.83 976.09 459.10 964.69 C 457.73 968.40 455.90 971.92 454.62 975.67 C 451.99 983.66 452.53 992.88 456.86 1000.18 C 458.25 1002.77 460.55 1005.56 458.95 1008.62 C 456.08 1010.80 452.44 1011.28 448.97 1011.67 C 447.85 1011.87 447.00 1011.49 446.40 1010.55 Z" />
<path fill="#f4c79e" opacity="1.00" d=" M 402.39 993.97 C 405.66 983.68 412.18 973.04 423.07 969.71 C 420.45 972.89 417.46 975.85 415.56 979.56 C 412.80 984.93 411.13 990.85 410.60 996.86 C 407.66 996.54 404.95 995.41 402.38 994.02 L 402.39 993.97 Z" />
</g>
</svg>
