<?xml version="1.0" encoding="UTF-8" ?>
<!DOCTYPE svg PUBLIC "-//W3C//DTD SVG 1.1//EN" "http://www.w3.org/Graphics/SVG/1.1/DTD/svg11.dtd">
<svg width="940pt" height="1264pt" viewBox="0 0 940 1264" version="1.1" xmlns="http://www.w3.org/2000/svg">
<g id="#f2b61bff">
<path fill="#f2b61b" opacity="1.00" d=" M 608.21 91.23 C 616.42 84.90 624.71 77.83 635.06 75.43 C 641.61 73.83 648.63 75.49 653.97 79.54 C 655.37 84.37 657.59 88.99 658.18 94.03 C 659.86 104.63 658.24 115.32 658.05 125.96 C 656.71 147.66 653.50 169.24 648.43 190.39 C 647.71 193.56 646.53 196.65 646.25 199.90 C 646.86 202.23 648.75 203.92 650.28 205.69 C 656.00 211.54 660.38 218.48 665.36 224.92 C 673.76 238.24 680.85 252.36 689.72 265.38 C 695.99 274.54 703.46 282.90 711.95 290.06 C 717.73 294.94 723.44 300.38 726.33 307.53 C 730.81 318.40 729.99 330.56 728.11 341.90 C 727.39 345.35 727.09 348.95 725.84 352.25 C 703.22 378.61 667.47 393.66 632.77 389.31 C 610.65 386.73 589.34 377.23 572.80 362.29 C 562.03 352.65 554.12 340.33 543.62 330.43 C 530.92 318.11 515.94 307.67 498.88 302.46 C 483.09 297.40 466.27 297.24 449.89 298.39 C 437.41 299.41 425.02 302.29 413.66 307.62 C 401.00 313.50 389.87 322.20 380.01 331.99 C 370.55 341.26 363.15 352.42 353.40 361.40 C 333.42 379.91 306.22 390.35 278.99 390.01 C 248.55 389.59 218.68 375.13 199.17 351.81 C 195.91 337.78 193.34 322.54 198.46 308.63 C 201.50 300.07 208.54 293.98 215.27 288.31 C 230.94 274.79 242.81 257.67 254.53 240.80 C 253.74 218.72 249.12 197.02 247.14 175.06 C 246.06 162.08 245.47 149.07 245.03 136.06 C 245.07 123.68 243.46 111.00 246.74 98.88 C 248.75 91.28 254.36 84.14 262.28 82.33 C 268.28 83.37 274.29 85.08 279.39 88.52 C 291.98 97.03 303.26 107.26 314.64 117.27 C 327.15 129.13 338.82 141.85 349.75 155.17 C 351.55 157.38 353.02 159.96 355.38 161.64 C 356.88 162.21 358.46 161.19 359.95 160.88 C 367.11 158.20 374.63 156.70 382.11 155.23 C 411.78 150.14 442.05 150.29 472.03 151.55 C 493.12 152.62 514.16 154.57 535.11 157.22 C 547.89 145.31 559.59 132.28 572.69 120.71 C 584.26 110.57 596.10 100.72 608.21 91.23 M 610.15 127.10 C 598.46 139.09 586.93 151.26 576.02 163.96 C 595.28 169.26 613.68 177.54 630.61 188.12 C 633.02 174.16 635.05 160.13 636.62 146.04 C 637.24 140.20 638.15 134.14 636.49 128.38 C 635.00 123.32 630.64 118.57 625.05 118.59 C 618.99 118.73 614.21 123.06 610.15 127.10 M 274.62 133.01 C 273.02 139.96 274.93 147.05 275.84 153.97 C 278.67 170.70 281.10 187.58 285.59 203.97 C 300.75 190.37 317.83 178.86 336.34 170.32 C 337.63 170.04 338.58 168.83 337.20 167.87 C 325.85 155.57 314.06 143.67 301.82 132.24 C 297.24 127.97 291.55 123.81 284.95 124.34 C 280.00 124.40 275.63 128.21 274.62 133.01 M 556.37 195.45 C 553.06 196.05 551.37 199.87 553.09 202.75 C 555.42 206.30 560.22 206.19 563.52 208.42 C 567.78 211.25 572.88 212.60 577.98 212.63 C 580.12 212.70 581.71 210.27 580.51 208.39 C 576.40 199.71 566.12 192.84 556.37 195.45 M 340.12 198.16 C 332.61 200.37 328.34 207.65 324.85 214.11 C 323.54 216.01 324.58 218.93 326.98 219.20 C 332.59 219.94 338.19 217.77 342.99 215.02 C 346.41 212.86 350.01 210.53 352.06 206.94 C 353.69 204.08 353.17 199.59 349.85 198.20 C 346.71 197.25 343.28 197.41 340.12 198.16 M 526.59 239.62 C 521.29 247.18 519.71 257.11 521.87 266.03 C 522.45 267.81 522.90 270.32 525.04 270.82 C 530.33 272.35 535.93 272.05 541.38 271.97 C 542.16 276.55 544.80 280.87 548.85 283.26 C 553.97 286.35 560.21 287.27 566.10 286.78 C 570.85 286.40 574.76 282.96 576.93 278.90 C 583.24 280.81 590.61 280.16 595.70 275.69 C 599.80 270.82 600.89 263.94 599.28 257.87 C 596.11 244.99 587.27 233.82 575.97 227.02 C 570.52 223.97 564.51 221.00 558.11 221.29 C 545.79 222.93 533.88 229.43 526.59 239.62 M 319.32 239.26 C 311.86 247.69 305.06 258.21 305.91 269.96 C 305.92 275.84 309.48 281.86 315.29 283.63 C 319.99 285.84 325.25 284.65 330.11 283.71 C 331.78 290.08 337.58 294.52 343.86 295.80 C 349.48 297.02 356.16 297.76 360.98 293.91 C 366.14 289.61 368.31 282.49 367.87 275.94 C 371.77 275.26 375.77 275.31 379.67 274.59 C 383.96 273.55 384.08 268.49 384.64 264.94 C 385.14 253.45 380.11 241.16 370.18 234.84 C 362.08 229.09 352.19 224.50 342.02 226.05 C 333.16 227.62 325.69 233.20 319.32 239.26 Z" />
<path fill="#f2b61b" opacity="1.00" d=" M 682.02 472.51 C 685.08 482.91 687.29 493.54 689.98 504.04 C 695.36 524.76 700.90 545.44 706.54 566.08 C 708.07 571.44 709.22 576.92 711.51 582.03 C 711.43 582.21 711.27 582.58 711.19 582.76 L 710.84 582.74 C 718.32 615.79 729.32 648.03 734.44 681.60 C 737.61 699.90 739.31 718.40 740.75 736.91 C 741.45 751.38 742.85 765.90 741.51 780.38 C 739.65 810.69 733.59 840.50 728.46 870.36 C 724.99 893.43 719.60 916.20 712.44 938.40 C 708.40 952.27 703.09 965.71 698.34 979.34 C 696.74 984.22 694.30 988.85 693.39 993.93 L 693.37 994.20 C 682.00 997.32 671.70 1003.93 659.85 1005.34 C 651.34 1006.45 642.78 1003.47 635.85 998.66 C 635.55 993.80 633.45 989.35 632.37 984.67 C 629.22 971.82 625.87 958.90 625.43 945.61 C 624.92 931.06 623.01 916.61 622.56 902.07 C 621.54 894.09 622.72 886.11 623.34 878.16 C 625.31 862.37 631.45 847.54 636.65 832.63 C 641.00 820.23 645.75 807.97 649.33 795.32 C 650.21 791.74 652.18 788.03 650.87 784.31 C 670.35 713.30 683.91 640.55 689.62 567.10 C 692.07 535.67 690.40 503.66 681.65 473.24 L 682.02 472.51 Z" />
<path fill="#f2b61b" opacity="1.00" d=" M 250.96 546.90 C 254.17 535.56 256.75 524.01 260.28 512.78 C 260.29 526.24 261.64 539.66 263.11 553.03 C 267.80 591.18 273.32 629.27 281.52 666.84 C 290.04 706.85 301.13 746.28 314.04 785.09 C 313.79 786.48 313.13 787.92 313.56 789.37 C 320.54 816.21 332.57 841.43 339.56 868.26 C 345.28 894.26 340.00 920.81 339.03 947.00 C 338.64 963.22 332.92 978.60 330.01 994.41 C 329.53 994.75 329.06 995.10 328.58 995.45 C 322.03 1000.06 313.91 1002.71 305.86 1001.82 C 294.73 1000.69 284.71 995.29 273.99 992.52 C 260.60 962.97 247.13 933.30 237.94 902.13 C 226.00 863.00 222.33 821.80 222.84 781.04 C 222.87 724.81 228.46 668.70 236.20 613.04 C 236.92 606.06 238.83 599.19 238.57 592.14 C 242.67 577.09 246.92 562.00 250.96 546.90 Z" />
<path fill="#f2b61b" opacity="1.00" d=" M 208.25 696.32 C 209.30 699.82 208.45 703.45 208.14 707.00 C 199.35 800.53 209.16 895.72 236.39 985.63 C 238.11 990.66 239.03 996.03 241.77 1000.67 C 241.47 1000.99 240.85 1001.64 240.55 1001.96 C 243.33 1016.58 246.10 1031.22 249.43 1045.73 C 245.11 1045.42 241.16 1043.32 236.88 1042.70 C 236.55 1042.62 235.91 1042.45 235.58 1042.37 C 235.10 1040.70 234.08 1039.29 232.81 1038.14 C 226.71 1032.27 220.85 1026.15 214.37 1020.69 C 201.51 1008.20 188.89 995.47 176.25 982.76 C 158.38 963.80 141.26 944.02 126.61 922.43 C 117.27 909.09 109.31 894.69 103.68 879.39 C 97.93 861.93 93.47 844.05 89.90 826.02 C 85.79 803.76 84.73 779.94 93.57 758.64 C 95.52 753.35 99.14 748.90 100.97 743.56 C 126.77 716.56 166.87 705.07 203.28 712.47 C 204.96 707.09 206.52 701.68 208.25 696.32 M 128.33 793.31 C 127.05 793.70 126.88 795.30 126.32 796.35 C 122.39 807.59 124.54 819.63 127.18 830.90 C 127.47 832.53 128.68 835.36 130.74 833.79 C 131.56 828.90 130.70 823.92 131.10 819.01 C 131.85 811.07 132.51 803.06 131.89 795.11 C 131.91 793.28 129.77 792.49 128.33 793.31 M 115.29 848.21 C 115.05 848.48 114.58 849.03 114.34 849.30 C 114.36 856.03 116.96 862.42 119.22 868.67 C 120.02 870.56 120.50 872.74 122.03 874.22 C 124.53 874.47 124.16 871.62 123.89 870.00 C 122.66 863.26 121.90 856.30 119.06 849.99 C 118.60 848.50 116.76 847.14 115.29 848.21 M 158.20 903.12 C 157.90 903.61 157.30 904.58 157.00 905.06 C 158.32 910.63 162.19 915.07 165.28 919.74 C 166.75 921.63 168.01 924.64 170.93 924.21 C 173.00 924.44 174.81 922.26 173.72 920.33 C 171.30 916.17 167.94 912.61 165.72 908.31 C 164.10 905.74 161.88 901.56 158.20 903.12 M 143.54 919.35 C 145.93 924.96 149.50 930.03 153.40 934.70 C 154.20 935.95 155.71 936.05 157.06 936.08 C 157.17 931.20 154.47 926.93 152.34 922.74 C 150.40 919.53 148.51 915.79 145.02 914.07 C 142.32 914.28 142.76 917.56 143.54 919.35 M 186.22 938.13 C 185.37 941.09 187.52 943.74 188.59 946.35 C 191.62 952.99 195.82 958.98 200.25 964.75 C 202.01 966.88 203.28 969.74 205.93 970.92 C 208.14 970.80 208.33 968.31 206.99 967.00 C 200.82 958.25 196.44 948.39 190.14 939.73 C 189.30 938.38 187.82 937.32 186.22 938.13 M 181.68 966.30 C 185.79 975.44 191.94 984.40 201.08 989.07 C 201.65 988.29 202.23 987.53 202.82 986.78 C 199.56 979.31 194.49 972.83 189.76 966.26 C 188.19 964.24 186.76 961.52 183.93 961.24 C 181.68 961.53 180.40 964.38 181.68 966.30 M 207.15 995.94 C 210.23 1001.57 214.65 1006.35 219.23 1010.80 C 220.10 1011.97 221.55 1012.02 222.89 1011.99 C 223.62 1008.91 221.33 1006.52 219.94 1004.06 C 217.24 999.88 214.81 995.23 210.63 992.33 C 208.52 990.93 206.14 993.88 207.15 995.94 Z" />
<path fill="#f2b61b" opacity="1.00" d=" M 749.99 710.30 C 780.90 703.45 814.72 710.06 840.36 728.76 C 845.67 732.60 850.61 736.94 855.23 741.59 C 855.80 745.49 858.32 748.60 860.03 752.04 C 869.81 772.54 870.09 796.10 866.33 818.12 C 863.05 836.90 858.53 855.50 852.67 873.65 C 846.44 893.27 835.37 910.85 823.45 927.47 C 811.91 943.09 799.65 958.21 786.26 972.29 C 773.92 986.26 760.29 999.04 747.12 1012.22 C 737.89 1019.67 730.55 1029.18 720.96 1036.20 C 722.67 1024.89 724.48 1013.59 726.04 1002.26 C 730.02 985.76 734.25 969.32 737.54 952.66 C 748.83 897.56 756.03 841.38 755.10 785.06 C 755.36 760.05 752.93 735.12 749.99 710.30 M 844.20 807.03 C 842.01 816.68 841.02 826.55 839.45 836.32 C 838.84 840.23 837.77 844.15 838.14 848.16 C 841.03 845.09 842.49 841.04 844.44 837.38 C 848.56 829.23 850.41 820.09 850.71 811.02 C 850.34 808.44 850.71 805.17 848.66 803.29 C 846.10 801.98 844.59 804.97 844.20 807.03 M 780.87 881.77 C 776.21 887.82 775.90 895.74 775.25 903.04 C 775.01 906.07 775.83 909.03 776.53 911.96 C 778.83 903.74 782.71 896.03 784.57 887.68 C 784.85 885.68 785.64 883.40 784.42 881.58 C 783.31 881.04 781.76 880.64 780.87 881.77 M 797.16 919.28 C 792.37 927.58 787.81 936.02 783.67 944.67 C 782.80 945.81 783.43 947.02 784.14 948.06 C 787.83 945.45 790.09 941.41 792.97 938.01 C 800.28 928.63 807.22 918.61 810.76 907.14 C 809.81 906.35 808.88 905.56 807.96 904.79 C 803.12 908.54 800.55 914.32 797.16 919.28 M 756.74 948.71 C 753.36 952.04 750.41 955.79 747.78 959.73 C 747.09 960.74 746.86 961.87 747.07 963.12 C 752.65 960.31 757.31 956.01 762.12 952.10 C 766.78 947.90 772.81 944.52 774.86 938.19 C 773.56 936.99 772.10 935.23 770.12 936.09 C 764.27 938.59 761.10 944.43 756.74 948.71 M 745.02 982.98 C 744.23 983.79 744.02 985.99 745.72 985.55 C 749.12 983.93 751.75 980.98 754.75 978.71 C 758.65 974.96 763.66 972.14 766.39 967.32 C 767.61 965.64 765.77 964.27 764.81 963.10 C 755.68 966.61 750.10 975.11 745.02 982.98 Z" />
<path fill="#f2b61b" opacity="1.00" d=" M 355.24 888.52 C 376.26 933.54 399.92 977.37 427.07 1019.01 C 439.22 1037.35 452.80 1055.12 469.98 1069.06 C 477.92 1075.39 487.54 1080.60 497.97 1080.30 C 508.71 1080.16 518.44 1074.25 525.81 1066.82 C 533.32 1059.41 539.20 1050.55 544.44 1041.44 C 564.51 1005.88 582.51 969.17 598.76 931.71 C 597.78 941.91 597.76 952.20 599.36 962.34 C 600.15 1014.28 594.26 1066.82 576.86 1115.98 C 571.74 1116.01 566.62 1115.97 561.50 1116.03 C 532.99 1116.06 504.50 1114.81 476.04 1113.46 C 449.92 1114.71 423.79 1115.89 397.64 1115.99 C 390.88 1098.75 385.02 1081.14 380.88 1063.08 C 372.70 1028.24 368.93 992.54 365.93 956.94 C 366.21 946.06 366.75 935.05 364.61 924.32 C 363.46 916.68 361.34 909.25 359.10 901.89 C 357.77 897.44 355.56 893.22 355.24 888.52 Z" />
</g>
<g id="#f0a11cff">
<path fill="#f0a11c" opacity="1.00" d=" M 653.97 79.54 C 663.52 86.62 667.62 98.38 670.45 109.45 C 676.12 132.17 676.47 155.89 674.45 179.10 C 672.83 194.59 670.36 210.14 665.36 224.92 C 660.38 218.48 656.00 211.54 650.28 205.69 C 648.75 203.92 646.86 202.23 646.25 199.90 C 646.53 196.65 647.71 193.56 648.43 190.39 C 653.50 169.24 656.71 147.66 658.05 125.96 C 658.24 115.32 659.86 104.63 658.18 94.03 C 657.59 88.99 655.37 84.37 653.97 79.54 Z" />
<path fill="#f0a11c" opacity="1.00" d=" M 261.72 82.22 C 272.23 78.62 283.49 81.43 293.47 85.37 C 309.70 91.76 324.61 101.13 338.39 111.75 C 354.65 124.40 369.49 138.93 382.11 155.23 C 374.63 156.70 367.11 158.20 359.95 160.88 C 358.46 161.19 356.88 162.21 355.38 161.64 C 353.02 159.96 351.55 157.38 349.75 155.17 C 338.82 141.85 327.15 129.13 314.64 117.27 C 303.26 107.26 291.98 97.03 279.39 88.52 C 274.29 85.08 268.28 83.37 262.28 82.33 L 261.72 82.22 Z" />
<path fill="#f0a11c" opacity="1.00" d=" M 526.59 239.62 C 533.88 229.43 545.79 222.93 558.11 221.29 C 564.51 221.00 570.52 223.97 575.97 227.02 C 587.27 233.82 596.11 244.99 599.28 257.87 C 600.89 263.94 599.80 270.82 595.70 275.69 C 590.61 280.16 583.24 280.81 576.93 278.90 C 579.72 273.24 580.92 266.08 577.59 260.39 C 575.11 255.92 569.90 254.05 565.11 253.39 C 558.10 252.48 550.21 253.96 545.15 259.22 C 541.89 262.54 540.80 267.44 541.38 271.97 C 535.93 272.05 530.33 272.35 525.04 270.82 C 522.90 270.32 522.45 267.81 521.87 266.03 C 519.71 257.11 521.29 247.18 526.59 239.62 Z" />
<path fill="#f0a11c" opacity="1.00" d=" M 319.32 239.26 C 325.69 233.20 333.16 227.62 342.02 226.05 C 352.19 224.50 362.08 229.09 370.18 234.84 C 380.11 241.16 385.14 253.45 384.64 264.94 C 384.08 268.49 383.96 273.55 379.67 274.59 C 375.77 275.31 371.77 275.26 367.87 275.94 C 367.22 271.03 364.13 266.38 359.32 264.74 C 350.59 261.44 339.16 262.41 332.77 269.83 C 329.52 273.61 329.02 279.00 330.11 283.71 C 325.25 284.65 319.99 285.84 315.29 283.63 C 309.48 281.86 305.92 275.84 305.91 269.96 C 305.06 258.21 311.86 247.69 319.32 239.26 Z" />
<path fill="#f0a11c" opacity="1.00" d=" M 711.19 582.76 C 712.29 583.39 712.60 584.77 713.13 585.85 C 721.75 608.35 729.92 631.01 737.44 653.90 C 740.88 664.43 744.16 675.06 745.93 686.03 C 747.49 694.08 748.59 702.22 749.99 710.30 C 752.93 735.12 755.36 760.05 755.10 785.06 C 756.03 841.38 748.83 897.56 737.54 952.66 C 734.25 969.32 730.02 985.76 726.04 1002.26 C 721.43 998.12 716.18 994.33 709.98 993.14 C 704.47 991.84 698.83 992.87 693.39 993.93 C 694.30 988.85 696.74 984.22 698.34 979.34 C 703.09 965.71 708.40 952.27 712.44 938.40 C 719.60 916.20 724.99 893.43 728.46 870.36 C 733.59 840.50 739.65 810.69 741.51 780.38 C 742.85 765.90 741.45 751.38 740.75 736.91 C 739.31 718.40 737.61 699.90 734.44 681.60 C 729.32 648.03 718.32 615.79 710.84 582.74 L 711.19 582.76 Z" />
<path fill="#f0a11c" opacity="1.00" d=" M 238.56 591.37 L 238.57 592.14 C 238.83 599.19 236.92 606.06 236.20 613.04 C 228.46 668.70 222.87 724.81 222.84 781.04 C 222.33 821.80 226.00 863.00 237.94 902.13 C 247.13 933.30 260.60 962.97 273.99 992.52 C 267.61 990.90 260.70 990.33 254.37 992.50 C 249.56 994.09 245.31 997.07 241.77 1000.67 C 239.03 996.03 238.11 990.66 236.39 985.63 C 209.16 895.72 199.35 800.53 208.14 707.00 C 208.45 703.45 209.30 699.82 208.25 696.32 C 210.89 688.46 210.48 679.98 212.88 672.04 C 219.99 644.72 229.05 617.94 238.56 591.37 Z" />
<path fill="#f0a11c" opacity="1.00" d=" M 855.23 741.59 C 869.99 755.86 881.82 773.42 888.10 793.06 C 896.58 819.32 895.88 847.98 888.62 874.44 C 879.16 909.16 859.96 940.18 839.19 969.20 C 826.65 986.71 813.31 1003.65 799.24 1019.95 C 789.77 1030.78 780.39 1041.85 768.95 1050.69 C 760.64 1044.72 750.67 1041.24 740.59 1039.78 C 734.09 1038.00 727.39 1037.05 720.66 1037.84 C 720.74 1037.43 720.88 1036.61 720.96 1036.20 C 730.55 1029.18 737.89 1019.67 747.12 1012.22 C 760.29 999.04 773.92 986.26 786.26 972.29 C 799.65 958.21 811.91 943.09 823.45 927.47 C 835.37 910.85 846.44 893.27 852.67 873.65 C 858.53 855.50 863.05 836.90 866.33 818.12 C 870.09 796.10 869.81 772.54 860.03 752.04 C 858.32 748.60 855.80 745.49 855.23 741.59 Z" />
<path fill="#f0a11c" opacity="1.00" d=" M 80.24 768.38 C 86.14 759.34 92.98 750.83 100.97 743.56 C 99.14 748.90 95.52 753.35 93.57 758.64 C 84.73 779.94 85.79 803.76 89.90 826.02 C 93.47 844.05 97.93 861.93 103.68 879.39 C 109.31 894.69 117.27 909.09 126.61 922.43 C 141.26 944.02 158.38 963.80 176.25 982.76 C 188.89 995.47 201.51 1008.20 214.37 1020.69 C 220.85 1026.15 226.71 1032.27 232.81 1038.14 C 234.08 1039.29 235.10 1040.70 235.58 1042.37 C 225.35 1039.26 214.14 1040.03 203.99 1043.09 C 197.85 1045.07 192.35 1048.52 187.06 1052.14 C 186.09 1052.98 184.96 1051.67 184.04 1051.38 C 173.60 1043.04 165.06 1032.68 156.25 1022.71 C 136.67 999.98 118.39 976.10 101.91 951.02 C 88.91 931.04 77.35 909.90 69.82 887.21 C 63.26 867.57 59.89 846.67 61.49 825.96 C 62.85 805.62 69.09 785.50 80.24 768.38 Z" />
<path fill="#f0a11c" opacity="1.00" d=" M 650.87 784.31 C 652.18 788.03 650.21 791.74 649.33 795.32 C 645.75 807.97 641.00 820.23 636.65 832.63 C 631.45 847.54 625.31 862.37 623.34 878.16 C 622.72 886.11 621.54 894.09 622.56 902.07 C 623.01 916.61 624.92 931.06 625.43 945.61 C 625.87 958.90 629.22 971.82 632.37 984.67 C 633.45 989.35 635.55 993.80 635.85 998.66 C 621.38 988.99 612.51 973.44 599.36 962.34 C 597.76 952.20 597.78 941.91 598.76 931.71 C 601.28 910.58 609.17 890.69 617.09 871.12 C 623.56 854.88 630.02 838.63 636.51 822.40 C 641.28 809.70 647.16 797.39 650.87 784.31 Z" />
<path fill="#f0a11c" opacity="1.00" d=" M 313.56 789.37 C 313.13 787.92 313.79 786.48 314.04 785.09 C 318.93 799.56 324.52 813.77 330.25 827.93 C 338.45 848.18 346.05 868.68 355.24 888.52 C 355.56 893.22 357.77 897.44 359.10 901.89 C 361.34 909.25 363.46 916.68 364.61 924.32 C 366.75 935.05 366.21 946.06 365.93 956.94 C 352.39 967.91 344.17 984.11 330.01 994.41 C 332.92 978.60 338.64 963.22 339.03 947.00 C 340.00 920.81 345.28 894.26 339.56 868.26 C 332.57 841.43 320.54 816.21 313.56 789.37 Z" />
<path fill="#f0a11c" opacity="1.00" d=" M 128.33 793.31 C 129.77 792.49 131.91 793.28 131.89 795.11 C 132.51 803.06 131.85 811.07 131.10 819.01 C 130.70 823.92 131.56 828.90 130.74 833.79 C 128.68 835.36 127.47 832.53 127.18 830.90 C 124.54 819.63 122.39 807.59 126.32 796.35 C 126.88 795.30 127.05 793.70 128.33 793.31 Z" />
<path fill="#f0a11c" opacity="1.00" d=" M 844.20 807.03 C 844.59 804.97 846.10 801.98 848.66 803.29 C 850.71 805.17 850.34 808.44 850.71 811.02 C 850.41 820.09 848.56 829.23 844.44 837.38 C 842.49 841.04 841.03 845.09 838.14 848.16 C 837.77 844.15 838.84 840.23 839.45 836.32 C 841.02 826.55 842.01 816.68 844.20 807.03 Z" />
<path fill="#f0a11c" opacity="1.00" d=" M 115.29 848.21 C 116.76 847.14 118.60 848.50 119.06 849.99 C 121.90 856.30 122.66 863.26 123.89 870.00 C 124.16 871.62 124.53 874.47 122.03 874.22 C 120.50 872.74 120.02 870.56 119.22 868.67 C 116.96 862.42 114.36 856.03 114.34 849.30 C 114.58 849.03 115.05 848.48 115.29 848.21 Z" />
<path fill="#f0a11c" opacity="1.00" d=" M 780.87 881.77 C 781.76 880.64 783.31 881.04 784.42 881.58 C 785.64 883.40 784.85 885.68 784.57 887.68 C 782.71 896.03 778.83 903.74 776.53 911.96 C 775.83 909.03 775.01 906.07 775.25 903.04 C 775.90 895.74 776.21 887.82 780.87 881.77 Z" />
<path fill="#f0a11c" opacity="1.00" d=" M 158.20 903.12 C 161.88 901.56 164.10 905.74 165.72 908.31 C 167.94 912.61 171.30 916.17 173.72 920.33 C 174.81 922.26 173.00 924.44 170.93 924.21 C 168.01 924.64 166.75 921.63 165.28 919.74 C 162.19 915.07 158.32 910.63 157.00 905.06 C 157.30 904.58 157.90 903.61 158.20 903.12 Z" />
<path fill="#f0a11c" opacity="1.00" d=" M 797.16 919.28 C 800.55 914.32 803.12 908.54 807.96 904.79 C 808.88 905.56 809.81 906.35 810.76 907.14 C 807.22 918.61 800.28 928.63 792.97 938.01 C 790.09 941.41 787.83 945.45 784.14 948.06 C 783.43 947.02 782.80 945.81 783.67 944.67 C 787.81 936.02 792.37 927.58 797.16 919.28 Z" />
<path fill="#f0a11c" opacity="1.00" d=" M 143.54 919.35 C 142.76 917.56 142.32 914.28 145.02 914.07 C 148.51 915.79 150.40 919.53 152.34 922.74 C 154.47 926.93 157.17 931.20 157.06 936.08 C 155.71 936.05 154.20 935.95 153.40 934.70 C 149.50 930.03 145.93 924.96 143.54 919.35 Z" />
<path fill="#f0a11c" opacity="1.00" d=" M 756.74 948.71 C 761.10 944.43 764.27 938.59 770.12 936.09 C 772.10 935.23 773.56 936.99 774.86 938.19 C 772.81 944.52 766.78 947.90 762.12 952.10 C 757.31 956.01 752.65 960.31 747.07 963.12 C 746.86 961.87 747.09 960.74 747.78 959.73 C 750.41 955.79 753.36 952.04 756.74 948.71 Z" />
<path fill="#f0a11c" opacity="1.00" d=" M 186.22 938.13 C 187.82 937.32 189.30 938.38 190.14 939.73 C 196.44 948.39 200.82 958.25 206.99 967.00 C 208.33 968.31 208.14 970.80 205.93 970.92 C 203.28 969.74 202.01 966.88 200.25 964.75 C 195.82 958.98 191.62 952.99 188.59 946.35 C 187.52 943.74 185.37 941.09 186.22 938.13 Z" />
<path fill="#f0a11c" opacity="1.00" d=" M 181.68 966.30 C 180.40 964.38 181.68 961.53 183.93 961.24 C 186.76 961.52 188.19 964.24 189.76 966.26 C 194.49 972.83 199.56 979.31 202.82 986.78 C 202.23 987.53 201.65 988.29 201.08 989.07 C 191.94 984.40 185.79 975.44 181.68 966.30 Z" />
<path fill="#f0a11c" opacity="1.00" d=" M 745.02 982.98 C 750.10 975.11 755.68 966.61 764.81 963.10 C 765.77 964.27 767.61 965.64 766.39 967.32 C 763.66 972.14 758.65 974.96 754.75 978.71 C 751.75 980.98 749.12 983.93 745.72 985.55 C 744.02 985.99 744.23 983.79 745.02 982.98 Z" />
<path fill="#f0a11c" opacity="1.00" d=" M 207.15 995.94 C 206.14 993.88 208.52 990.93 210.63 992.33 C 214.81 995.23 217.24 999.88 219.94 1004.06 C 221.33 1006.52 223.62 1008.91 222.89 1011.99 C 221.55 1012.02 220.10 1011.97 219.23 1010.80 C 214.65 1006.35 210.23 1001.57 207.15 995.94 Z" />
</g>
<g id="#fbddb3ff">
<path fill="#fbddb3" opacity="1.00" d=" M 610.15 127.10 C 614.21 123.06 618.99 118.73 625.05 118.59 C 630.64 118.57 635.00 123.32 636.49 128.38 C 638.15 134.14 637.24 140.20 636.62 146.04 C 635.05 160.13 633.02 174.16 630.61 188.12 C 613.68 177.54 595.28 169.26 576.02 163.96 C 586.93 151.26 598.46 139.09 610.15 127.10 Z" />
<path fill="#fbddb3" opacity="1.00" d=" M 274.62 133.01 C 275.63 128.21 280.00 124.40 284.95 124.34 C 291.55 123.81 297.24 127.97 301.82 132.24 C 314.06 143.67 325.85 155.57 337.20 167.87 C 338.58 168.83 337.63 170.04 336.34 170.32 C 317.83 178.86 300.75 190.37 285.59 203.97 C 281.10 187.58 278.67 170.70 275.84 153.97 C 274.93 147.05 273.02 139.96 274.62 133.01 Z" />
<path fill="#fbddb3" opacity="1.00" d=" M 556.37 195.45 C 566.12 192.84 576.40 199.71 580.51 208.39 C 581.71 210.27 580.12 212.70 577.98 212.63 C 572.88 212.60 567.78 211.25 563.52 208.42 C 560.22 206.19 555.42 206.30 553.09 202.75 C 551.37 199.87 553.06 196.05 556.37 195.45 Z" />
<path fill="#fbddb3" opacity="1.00" d=" M 340.12 198.16 C 343.28 197.41 346.71 197.25 349.85 198.20 C 353.17 199.59 353.69 204.08 352.06 206.94 C 350.01 210.53 346.41 212.86 342.99 215.02 C 338.19 217.77 332.59 219.94 326.98 219.20 C 324.58 218.93 323.54 216.01 324.85 214.11 C 328.34 207.65 332.61 200.37 340.12 198.16 Z" />
<path fill="#fbddb3" opacity="1.00" d=" M 449.89 298.39 C 466.27 297.24 483.09 297.40 498.88 302.46 C 515.94 307.67 530.92 318.11 543.62 330.43 C 554.12 340.33 562.03 352.65 572.80 362.29 C 589.34 377.23 610.65 386.73 632.77 389.31 C 667.47 393.66 703.22 378.61 725.84 352.25 C 718.87 383.20 705.94 412.70 688.46 439.15 C 688.64 441.15 688.72 443.17 688.82 445.19 C 688.42 442.56 687.94 439.94 687.21 437.39 C 680.27 449.59 672.06 461.12 662.07 471.01 C 637.43 495.95 605.84 512.61 573.69 525.79 C 540.68 539.04 506.46 550.20 470.98 554.22 C 448.99 556.75 426.57 556.20 404.88 551.60 C 389.53 548.32 374.33 543.78 360.26 536.72 C 344.95 529.23 330.88 519.55 316.61 510.30 C 303.07 501.50 289.28 493.10 276.01 483.90 C 270.44 479.61 265.17 474.90 260.23 469.91 C 231.44 437.08 209.97 397.53 200.06 354.89 C 199.78 353.86 199.49 352.83 199.17 351.81 C 218.68 375.13 248.55 389.59 278.99 390.01 C 306.22 390.35 333.42 379.91 353.40 361.40 C 363.15 352.42 370.55 341.26 380.01 331.99 C 389.87 322.20 401.00 313.50 413.66 307.62 C 425.02 302.29 437.41 299.41 449.89 298.39 M 443.97 317.85 C 437.44 318.58 430.79 319.19 424.61 321.55 C 419.23 323.62 414.21 327.69 412.50 333.37 C 410.64 339.83 413.92 346.99 419.44 350.57 C 424.41 353.78 430.59 354.26 435.61 357.34 C 441.54 361.09 444.29 368.21 450.34 371.82 C 452.82 373.57 455.89 373.99 458.57 375.31 C 459.53 394.20 449.12 413.36 432.19 422.18 C 419.29 429.68 403.71 426.36 389.90 430.62 C 393.87 432.01 398.10 432.26 402.24 432.82 C 406.46 444.69 414.75 455.37 425.94 461.39 C 423.67 474.11 425.22 487.16 426.76 499.88 C 428.70 511.01 430.31 523.17 438.09 531.96 C 447.30 542.09 461.59 546.34 474.98 545.79 C 484.95 545.45 493.68 539.27 499.64 531.63 C 508.79 519.86 512.14 504.63 512.36 489.98 C 512.44 479.42 511.93 468.80 510.22 458.36 C 521.78 454.17 532.55 445.14 534.65 432.45 C 539.53 431.31 544.59 430.53 549.10 428.23 C 537.48 426.50 525.70 428.92 514.08 427.33 C 505.19 426.01 496.80 421.92 489.95 416.16 C 477.95 406.13 471.85 390.35 471.14 374.99 C 473.19 372.32 476.49 371.13 478.76 368.71 C 482.24 365.20 484.76 360.76 488.83 357.86 C 494.29 354.01 501.53 353.93 506.84 349.82 C 512.59 345.48 515.25 336.85 511.47 330.41 C 507.79 323.86 500.29 320.75 493.22 319.49 C 476.98 316.64 460.36 316.57 443.97 317.85 Z" />
<path fill="#fbddb3" opacity="1.00" d=" M 657.26 507.12 C 665.81 496.15 674.71 485.35 681.65 473.24 C 690.40 503.66 692.07 535.67 689.62 567.10 C 683.91 640.55 670.35 713.30 650.87 784.31 C 647.16 797.39 641.28 809.70 636.51 822.40 C 630.02 838.63 623.56 854.88 617.09 871.12 C 609.17 890.69 601.28 910.58 598.76 931.71 C 582.51 969.17 564.51 1005.88 544.44 1041.44 C 539.20 1050.55 533.32 1059.41 525.81 1066.82 C 518.44 1074.25 508.71 1080.16 497.97 1080.30 C 487.54 1080.60 477.92 1075.39 469.98 1069.06 C 452.80 1055.12 439.22 1037.35 427.07 1019.01 C 399.92 977.37 376.26 933.54 355.24 888.52 C 346.05 868.68 338.45 848.18 330.25 827.93 C 324.52 813.77 318.93 799.56 314.04 785.09 C 301.13 746.28 290.04 706.85 281.52 666.84 C 273.32 629.27 267.80 591.18 263.11 553.03 C 261.64 539.66 260.29 526.24 260.28 512.78 C 260.37 505.58 260.58 498.39 261.38 491.23 C 279.22 516.75 297.34 542.45 320.13 563.87 C 342.74 585.38 371.49 599.15 400.76 609.15 C 423.51 616.66 447.28 621.73 471.32 621.92 C 467.78 625.20 465.81 630.17 466.92 634.98 C 467.40 638.33 469.93 640.76 472.36 642.88 C 466.81 642.91 460.74 644.34 455.68 641.33 C 450.51 638.29 445.21 634.68 438.95 634.76 C 432.84 634.39 426.24 638.69 425.57 645.06 C 425.07 649.69 428.38 653.31 430.72 656.92 C 433.45 661.71 438.50 664.43 443.57 666.13 C 438.89 670.82 434.65 677.03 435.52 683.99 C 435.71 688.00 438.37 691.13 440.44 694.35 C 441.95 696.84 444.06 699.23 447.05 699.89 C 452.65 701.30 458.49 698.29 461.87 693.88 C 465.11 689.98 466.50 685.05 468.64 680.56 C 469.51 678.35 471.99 677.70 474.14 677.67 C 488.78 677.31 503.42 677.14 518.06 676.71 C 520.69 676.71 523.66 676.34 525.81 678.22 C 531.75 682.75 538.46 686.65 545.91 687.88 C 549.68 688.60 553.73 687.13 556.04 684.03 C 560.77 678.14 559.96 669.22 555.40 663.46 C 552.97 659.47 550.15 655.50 545.81 653.42 C 552.64 647.71 554.67 636.90 549.20 629.60 C 547.12 626.76 545.54 623.44 542.70 621.26 C 537.48 617.35 529.53 617.13 524.44 621.39 C 520.54 624.64 518.50 629.43 515.28 633.26 C 512.89 636.14 509.04 636.92 505.69 638.13 C 506.77 631.26 505.29 623.32 498.87 619.51 C 513.44 617.15 527.56 612.32 540.75 605.73 C 556.14 598.03 570.38 588.28 584.47 578.45 C 612.42 558.82 636.04 533.72 657.26 507.12 M 309.26 585.24 L 308.64 585.64 C 306.34 590.48 306.60 596.11 306.62 601.36 C 307.01 605.26 314.23 605.21 313.92 601.08 C 313.97 596.16 314.31 591.01 312.53 586.33 C 312.11 585.05 310.38 584.72 309.26 585.24 M 660.29 600.26 C 657.33 602.48 657.47 606.68 657.08 610.01 C 656.92 618.31 658.35 626.55 659.21 634.79 C 660.76 635.14 662.67 634.81 662.87 632.91 C 665.26 623.22 669.31 613.12 666.76 603.05 C 666.24 600.34 662.61 598.34 660.29 600.26 M 323.33 634.39 C 321.37 635.55 322.08 638.13 322.27 639.99 C 323.44 646.03 325.21 651.93 326.32 657.99 C 326.71 659.26 326.97 662.03 328.98 661.18 C 330.98 660.98 330.88 658.49 331.07 657.03 C 331.35 650.04 331.28 642.55 327.74 636.31 C 326.98 634.77 325.01 633.31 323.33 634.39 M 639.14 650.31 C 637.35 651.30 636.89 653.47 636.41 655.30 C 634.57 664.10 636.02 673.16 637.21 681.95 C 637.53 684.06 640.93 683.00 640.72 681.05 C 641.46 671.34 645.12 661.63 643.23 651.88 C 643.17 649.72 640.64 649.52 639.14 650.31 M 297.90 667.93 C 298.04 672.90 300.26 677.48 301.91 682.09 C 305.48 690.87 308.67 699.82 311.27 708.95 C 311.65 710.37 312.42 711.64 313.15 712.92 C 313.61 712.64 314.54 712.09 315.01 711.81 C 314.49 702.76 312.58 693.84 310.66 685.00 C 308.89 678.68 306.97 672.20 303.30 666.70 C 302.07 664.18 297.98 665.30 297.90 667.93 M 353.42 675.05 C 353.88 684.71 354.72 694.38 356.24 703.93 C 356.31 705.70 358.56 704.94 359.57 704.55 C 359.69 695.33 359.22 686.09 358.40 676.90 C 357.92 675.03 358.44 672.47 356.65 671.25 C 354.48 670.81 352.97 673.08 353.42 675.05 M 596.09 680.99 C 591.13 690.37 590.29 701.69 592.14 712.02 C 593.50 712.16 595.61 712.86 596.11 710.98 C 599.39 702.37 602.04 692.95 600.43 683.68 C 600.19 681.41 598.02 680.83 596.09 680.99 M 647.42 714.40 C 641.39 727.42 638.81 741.70 634.36 755.28 C 634.14 756.47 632.95 759.28 635.11 759.26 C 636.91 758.23 637.42 756.04 638.39 754.34 C 644.22 742.47 649.68 730.13 651.64 716.95 C 652.59 714.50 649.19 712.75 647.42 714.40 M 340.38 732.93 C 341.72 742.42 347.36 750.61 353.22 757.93 C 353.61 757.68 354.37 757.18 354.75 756.93 C 352.90 750.36 351.17 743.71 348.55 737.40 C 347.12 734.31 345.63 730.51 341.92 729.67 C 341.10 730.59 339.93 731.50 340.38 732.93 M 609.76 740.78 C 607.29 748.00 605.66 755.47 603.77 762.86 C 603.22 764.82 603.07 766.85 603.08 768.90 C 603.73 768.87 605.02 768.83 605.66 768.81 C 607.86 760.83 609.94 752.81 611.62 744.71 C 612.04 742.83 612.05 740.92 611.91 739.03 C 610.77 739.13 610.05 739.72 609.76 740.78 M 546.42 766.41 C 545.13 774.91 545.45 783.55 546.21 792.10 C 546.32 793.33 546.80 794.50 547.19 795.69 C 547.85 795.70 549.16 795.72 549.82 795.72 C 550.44 790.51 549.80 785.25 550.05 780.02 C 550.00 775.42 550.79 770.86 550.70 766.27 C 550.10 764.15 546.82 764.33 546.42 766.41 M 368.30 777.01 C 368.72 782.61 371.17 787.76 372.85 793.05 C 374.79 798.09 376.19 803.45 379.28 807.96 C 380.15 807.18 381.78 806.53 381.32 805.07 C 380.86 798.93 379.02 793.01 377.85 786.99 C 376.90 782.69 376.10 778.16 373.56 774.47 C 371.83 772.15 367.42 774.16 368.30 777.01 M 339.20 780.19 C 337.41 790.20 343.10 799.57 348.44 807.58 C 349.03 809.03 350.64 808.71 351.91 808.91 C 351.81 805.11 349.73 801.83 348.60 798.31 C 346.44 792.89 345.35 787.12 343.32 781.67 C 342.85 779.65 340.76 780.02 339.20 780.19 M 614.25 796.44 C 612.76 796.54 611.59 797.65 611.15 799.04 C 608.61 805.41 608.21 812.34 606.69 818.98 C 605.99 822.90 604.64 826.71 604.28 830.70 C 605.25 833.45 608.55 832.81 609.29 830.28 C 613.28 820.93 618.67 811.50 618.17 801.00 C 618.39 798.70 616.57 796.45 614.25 796.44 M 574.87 803.98 C 574.10 809.28 573.74 814.67 573.81 820.02 C 574.27 822.54 578.52 822.42 578.94 819.92 C 580.02 815.36 580.09 810.63 580.71 806.00 C 581.18 803.75 580.17 801.72 578.81 800.02 C 576.77 800.37 574.96 801.76 574.87 803.98 M 369.30 838.34 C 367.24 839.45 367.87 842.10 368.31 843.96 C 370.64 851.93 375.54 858.86 380.83 865.14 C 382.17 866.87 384.45 864.78 383.71 863.03 C 381.80 854.46 378.78 845.79 373.13 838.93 C 372.28 837.67 370.52 837.77 369.30 838.34 M 404.10 853.13 C 402.64 859.87 406.11 866.66 410.77 871.34 C 411.76 872.45 413.94 873.67 414.76 871.72 C 414.76 869.17 413.20 866.96 412.29 864.67 C 410.59 861.27 409.79 857.48 407.88 854.20 C 407.13 852.76 405.41 853.04 404.10 853.13 M 585.45 871.32 C 580.10 885.32 575.04 899.45 571.01 913.90 C 572.07 914.52 573.30 915.62 574.39 914.32 C 577.12 908.43 578.99 902.16 581.14 896.04 C 584.24 886.50 587.91 877.08 589.87 867.23 C 587.02 866.02 586.32 869.42 585.45 871.32 M 510.19 879.14 C 508.56 884.35 510.33 889.76 511.33 894.92 C 512.97 895.47 514.51 895.23 515.69 893.91 C 514.64 889.67 514.17 885.33 513.70 881.01 C 513.79 879.25 511.50 877.30 510.19 879.14 M 433.50 887.50 C 431.79 903.51 436.90 919.36 443.06 933.93 C 444.09 937.01 449.62 935.25 447.88 932.11 C 442.29 917.60 440.30 902.13 436.83 887.07 C 435.71 887.16 434.60 887.30 433.50 887.50 M 534.30 912.17 C 531.92 921.62 532.12 931.42 531.83 941.08 C 532.03 942.32 531.40 944.48 533.01 945.00 C 535.35 944.51 535.26 941.81 535.65 939.96 C 536.71 931.36 538.54 922.72 537.85 914.02 C 537.97 912.04 535.71 911.84 534.30 912.17 M 410.20 929.20 C 410.11 929.66 409.95 930.58 409.87 931.04 C 411.83 942.98 419.90 952.57 427.74 961.29 C 429.11 962.53 430.58 964.70 432.71 963.73 C 433.28 962.13 432.12 960.86 431.28 959.66 C 427.23 954.26 423.56 948.57 420.36 942.64 C 418.11 938.49 416.83 933.83 414.03 929.99 C 413.23 928.49 411.52 928.24 410.20 929.20 M 496.29 931.10 C 491.49 943.00 490.98 956.50 493.96 968.92 C 493.98 970.47 495.96 971.34 496.79 969.85 C 497.81 962.59 497.67 955.21 498.13 947.90 C 498.33 942.94 499.13 938.01 498.95 933.04 C 499.31 931.35 497.34 931.37 496.29 931.10 M 563.84 953.98 C 559.86 963.23 559.18 973.45 557.40 983.26 C 556.86 984.78 557.57 986.17 558.80 987.08 C 560.67 984.21 561.50 980.88 562.60 977.68 C 565.13 970.05 568.23 962.39 568.44 954.26 C 568.61 951.37 564.32 951.36 563.84 953.98 M 536.26 980.25 C 532.21 986.74 529.20 993.84 525.62 1000.60 C 522.51 1007.39 518.43 1013.79 516.07 1020.89 C 518.74 1021.87 520.26 1019.33 521.47 1017.45 C 528.69 1006.21 535.50 994.57 540.14 982.01 C 541.27 979.68 537.37 978.13 536.26 980.25 M 450.52 999.57 C 452.85 1007.11 457.46 1013.64 461.73 1020.18 C 462.87 1021.73 463.78 1023.93 466.04 1023.99 C 465.80 1020.52 463.93 1017.51 462.64 1014.38 C 459.99 1008.84 457.55 1003.07 453.72 998.23 C 452.71 996.46 449.44 997.46 450.52 999.57 M 493.22 1017.34 C 491.29 1021.25 492.29 1025.86 492.27 1030.07 C 492.87 1035.84 492.42 1042.20 495.74 1047.25 C 496.72 1049.05 500.00 1047.92 499.94 1046.03 C 500.29 1037.94 498.05 1030.03 497.15 1022.04 C 496.80 1020.02 496.23 1015.77 493.22 1017.34 Z" />
<path fill="#fbddb3" opacity="1.00" d=" M 483.26 624.39 C 487.51 622.80 493.13 623.05 496.16 626.85 C 498.83 629.99 498.91 635.01 496.10 638.11 C 492.97 641.99 487.40 641.24 482.98 641.05 C 479.77 641.32 476.96 638.96 476.16 635.95 C 474.41 630.87 478.63 625.91 483.26 624.39 Z" />
<path fill="#fbddb3" opacity="1.00" d=" M 576.86 1115.98 C 594.26 1066.82 600.15 1014.28 599.36 962.34 C 612.51 973.44 621.38 988.99 635.85 998.66 C 642.78 1003.47 651.34 1006.45 659.85 1005.34 C 671.70 1003.93 682.00 997.32 693.37 994.20 C 693.67 997.33 692.35 1000.22 691.24 1003.08 C 683.87 1023.14 676.78 1043.32 669.21 1063.31 C 663.74 1077.57 655.63 1090.78 645.11 1101.88 C 654.77 1100.88 664.68 1100.23 674.17 1102.80 C 690.43 1106.55 705.49 1118.53 710.07 1134.95 C 711.97 1140.81 710.40 1148.49 704.43 1151.33 C 699.94 1153.44 695.38 1150.67 691.28 1148.98 C 690.85 1153.82 690.09 1158.95 686.76 1162.76 C 680.62 1170.41 671.04 1173.90 662.13 1177.19 C 653.04 1180.38 642.16 1181.88 633.64 1176.34 C 628.01 1173.30 624.77 1167.35 623.63 1161.23 C 614.46 1177.57 595.64 1187.60 577.04 1187.07 C 572.39 1186.99 567.92 1185.52 563.31 1185.21 C 559.60 1180.38 557.01 1174.37 557.63 1168.19 C 558.47 1158.51 563.34 1149.90 567.17 1141.18 C 570.84 1133.00 573.99 1124.60 576.95 1116.14 C 571.65 1116.08 566.35 1116.26 561.06 1116.04 L 561.50 1116.03 C 566.62 1115.97 571.74 1116.01 576.86 1115.98 Z" />
<path fill="#fbddb3" opacity="1.00" d=" M 254.37 992.50 C 260.70 990.33 267.61 990.90 273.99 992.52 C 284.71 995.29 294.73 1000.69 305.86 1001.82 C 313.91 1002.71 322.03 1000.06 328.58 995.45 C 330.22 999.07 329.35 1003.19 330.15 1007.02 C 334.12 1031.31 350.58 1052.04 351.67 1077.02 C 351.74 1080.48 351.97 1085.61 347.89 1086.91 C 340.23 1089.63 331.96 1089.52 324.02 1090.89 C 315.11 1092.12 305.59 1095.26 300.03 1102.79 C 327.86 1095.44 359.32 1106.33 376.94 1129.00 C 380.91 1134.47 384.86 1140.28 386.17 1147.04 C 387.80 1153.91 384.85 1162.10 378.37 1165.38 C 373.42 1167.52 367.52 1165.91 363.65 1162.36 C 359.13 1158.82 357.08 1153.30 355.53 1147.98 C 354.36 1153.65 352.64 1159.36 348.91 1163.92 C 339.89 1175.98 323.64 1180.93 309.09 1178.70 C 301.93 1177.58 294.18 1175.49 289.43 1169.61 C 283.79 1162.34 282.34 1152.94 281.53 1144.04 C 279.62 1150.46 276.74 1157.04 271.07 1161.01 C 265.98 1164.92 259.22 1165.81 253.01 1164.96 C 249.43 1164.42 246.30 1162.49 242.98 1161.20 C 242.57 1161.43 241.75 1161.88 241.35 1162.10 L 240.94 1162.33 C 238.68 1158.63 237.51 1154.39 237.45 1150.07 C 238.39 1138.23 246.45 1128.82 251.74 1118.67 C 257.25 1108.85 258.64 1097.16 257.28 1086.12 C 255.90 1072.43 251.96 1059.20 249.43 1045.73 C 246.10 1031.22 243.33 1016.58 240.55 1001.96 C 240.85 1001.64 241.47 1000.99 241.77 1000.67 C 245.31 997.07 249.56 994.09 254.37 992.50 Z" />
<path fill="#fbddb3" opacity="1.00" d=" M 720.66 1037.84 C 727.39 1037.05 734.09 1038.00 740.59 1039.78 C 744.21 1043.01 748.40 1045.63 751.47 1049.46 C 761.26 1060.74 769.53 1074.10 771.72 1089.11 C 772.45 1095.75 772.79 1103.11 769.06 1109.00 C 765.96 1113.77 759.50 1114.93 754.29 1113.65 C 750.74 1113.00 747.98 1110.58 745.39 1108.27 C 743.82 1112.63 742.04 1117.23 738.19 1120.11 C 734.35 1122.99 729.89 1125.39 725.10 1126.09 C 722.53 1124.65 721.43 1121.48 719.78 1119.14 C 712.63 1107.46 712.02 1093.19 713.66 1079.95 C 715.54 1065.84 718.44 1051.89 720.66 1037.84 Z" />
<path fill="#fbddb3" opacity="1.00" d=" M 203.99 1043.09 C 214.14 1040.03 225.35 1039.26 235.58 1042.37 C 235.91 1042.45 236.55 1042.62 236.88 1042.70 C 238.64 1045.87 240.38 1049.26 240.10 1053.03 C 239.66 1067.78 237.00 1082.35 235.67 1097.03 C 234.86 1103.22 234.61 1109.48 233.52 1115.63 C 232.66 1120.53 229.06 1124.89 224.19 1126.19 C 214.03 1129.11 202.73 1122.99 198.50 1113.54 C 196.03 1108.65 196.20 1103.07 195.87 1097.75 C 189.13 1106.24 183.02 1115.98 172.98 1120.98 C 168.43 1123.32 162.15 1123.68 158.41 1119.67 C 153.94 1114.49 154.64 1107.27 153.47 1100.99 C 154.32 1095.21 157.24 1089.97 159.28 1084.54 C 164.86 1071.58 175.03 1061.34 186.19 1053.00 C 185.65 1052.60 184.58 1051.79 184.04 1051.38 C 184.96 1051.67 186.09 1052.98 187.06 1052.14 C 192.35 1048.52 197.85 1045.07 203.99 1043.09 Z" />
</g>
<g id="#5b4b40ff">
<path fill="#5b4b40" opacity="1.00" d=" M 545.15 259.22 C 550.21 253.96 558.10 252.48 565.11 253.39 C 569.90 254.05 575.11 255.92 577.59 260.39 C 580.92 266.08 579.72 273.24 576.93 278.90 C 574.76 282.96 570.85 286.40 566.10 286.78 C 560.21 287.27 553.97 286.35 548.85 283.26 C 544.80 280.87 542.16 276.55 541.38 271.97 C 540.80 267.44 541.89 262.54 545.15 259.22 M 555.49 257.52 C 550.77 258.97 547.73 264.28 548.79 269.09 C 549.15 271.40 552.44 273.25 554.22 271.22 C 555.81 269.09 556.02 266.08 558.20 264.34 C 559.58 262.94 561.97 261.38 560.88 259.07 C 559.62 257.48 557.37 257.10 555.49 257.52 Z" />
<path fill="#5b4b40" opacity="1.00" d=" M 332.77 269.83 C 339.16 262.41 350.59 261.44 359.32 264.74 C 364.13 266.38 367.22 271.03 367.87 275.94 C 368.31 282.49 366.14 289.61 360.98 293.91 C 356.16 297.76 349.48 297.02 343.86 295.80 C 337.58 294.52 331.78 290.08 330.11 283.71 C 329.02 279.00 329.52 273.61 332.77 269.83 M 343.37 267.48 C 338.88 269.11 336.08 274.28 337.09 278.93 C 337.50 281.11 340.29 282.80 342.22 281.32 C 344.12 279.34 344.17 276.15 346.34 274.33 C 347.66 272.85 350.25 271.40 349.22 269.03 C 348.06 267.10 345.33 266.86 343.37 267.48 Z" />
<path fill="#5b4b40" opacity="1.00" d=" M 443.97 317.85 C 460.36 316.57 476.98 316.64 493.22 319.49 C 500.29 320.75 507.79 323.86 511.47 330.41 C 515.25 336.85 512.59 345.48 506.84 349.82 C 501.53 353.93 494.29 354.01 488.83 357.86 C 484.76 360.76 482.24 365.20 478.76 368.71 C 476.49 371.13 473.19 372.32 471.14 374.99 C 471.85 390.35 477.95 406.13 489.95 416.16 C 496.80 421.92 505.19 426.01 514.08 427.33 C 525.70 428.92 537.48 426.50 549.10 428.23 C 544.59 430.53 539.53 431.31 534.65 432.45 C 532.55 445.14 521.78 454.17 510.22 458.36 C 509.02 452.65 506.81 446.71 502.05 443.04 C 496.21 438.49 487.90 438.48 481.34 441.38 C 477.09 443.12 473.63 446.19 470.13 449.06 C 467.20 446.55 464.24 443.34 460.12 443.19 C 451.94 442.76 443.09 442.55 435.76 446.78 C 430.41 449.81 427.27 455.55 425.94 461.39 C 414.75 455.37 406.46 444.69 402.24 432.82 C 398.10 432.26 393.87 432.01 389.90 430.62 C 403.71 426.36 419.29 429.68 432.19 422.18 C 449.12 413.36 459.53 394.20 458.57 375.31 C 455.89 373.99 452.82 373.57 450.34 371.82 C 444.29 368.21 441.54 361.09 435.61 357.34 C 430.59 354.26 424.41 353.78 419.44 350.57 C 413.92 346.99 410.64 339.83 412.50 333.37 C 414.21 327.69 419.23 323.62 424.61 321.55 C 430.79 319.19 437.44 318.58 443.97 317.85 Z" />
</g>
<g id="#ffffffff">
<path fill="#ffffff" opacity="1.00" d=" M 555.49 257.52 C 557.37 257.10 559.62 257.48 560.88 259.07 C 561.97 261.38 559.58 262.94 558.20 264.34 C 556.02 266.08 555.81 269.09 554.22 271.22 C 552.44 273.25 549.15 271.40 548.79 269.09 C 547.73 264.28 550.77 258.97 555.49 257.52 Z" />
<path fill="#ffffff" opacity="1.00" d=" M 343.37 267.48 C 345.33 266.86 348.06 267.10 349.22 269.03 C 350.25 271.40 347.66 272.85 346.34 274.33 C 344.17 276.15 344.12 279.34 342.22 281.32 C 340.29 282.80 337.50 281.11 337.09 278.93 C 336.08 274.28 338.88 269.11 343.37 267.48 Z" />
</g>
<g id="#e75952ff">
<path fill="#e75952" opacity="1.00" d=" M 662.07 471.01 C 672.06 461.12 680.27 449.59 687.21 437.39 C 687.94 439.94 688.42 442.56 688.82 445.19 C 689.95 454.78 686.36 464.14 682.02 472.51 L 681.65 473.24 C 674.71 485.35 665.81 496.15 657.26 507.12 C 636.04 533.72 612.42 558.82 584.47 578.45 C 570.38 588.28 556.14 598.03 540.75 605.73 C 527.56 612.32 513.44 617.15 498.87 619.51 C 490.26 614.82 479.25 616.66 471.32 621.92 C 447.28 621.73 423.51 616.66 400.76 609.15 C 371.49 599.15 342.74 585.38 320.13 563.87 C 297.34 542.45 279.22 516.75 261.38 491.23 C 260.44 489.95 259.50 488.58 259.58 486.93 C 259.25 481.25 259.74 475.56 260.23 469.91 C 265.17 474.90 270.44 479.61 276.01 483.90 C 289.28 493.10 303.07 501.50 316.61 510.30 C 330.88 519.55 344.95 529.23 360.26 536.72 C 374.33 543.78 389.53 548.32 404.88 551.60 C 426.57 556.20 448.99 556.75 470.98 554.22 C 506.46 550.20 540.68 539.04 573.69 525.79 C 605.84 512.61 637.43 495.95 662.07 471.01 Z" />
<path fill="#e75952" opacity="1.00" d=" M 481.34 441.38 C 487.90 438.48 496.21 438.49 502.05 443.04 C 506.81 446.71 509.02 452.65 510.22 458.36 C 511.93 468.80 512.44 479.42 512.36 489.98 C 512.14 504.63 508.79 519.86 499.64 531.63 C 493.68 539.27 484.95 545.45 474.98 545.79 C 461.59 546.34 447.30 542.09 438.09 531.96 C 430.31 523.17 428.70 511.01 426.76 499.88 C 425.22 487.16 423.67 474.11 425.94 461.39 C 427.27 455.55 430.41 449.81 435.76 446.78 C 443.09 442.55 451.94 442.76 460.12 443.19 C 464.24 443.34 467.20 446.55 470.13 449.06 C 473.63 446.19 477.09 443.12 481.34 441.38 Z" />
</g>
<g id="#faebd4ff">
<path fill="#faebd4" opacity="1.00" d=" M 309.26 585.24 C 310.38 584.72 312.11 585.05 312.53 586.33 C 314.31 591.01 313.97 596.16 313.92 601.08 C 314.23 605.21 307.01 605.26 306.62 601.36 C 306.60 596.11 306.34 590.48 308.64 585.64 L 309.26 585.24 Z" />
<path fill="#faebd4" opacity="1.00" d=" M 660.29 600.26 C 662.61 598.34 666.24 600.34 666.76 603.05 C 669.31 613.12 665.26 623.22 662.87 632.91 C 662.67 634.81 660.76 635.14 659.21 634.79 C 658.35 626.55 656.92 618.31 657.08 610.01 C 657.47 606.68 657.33 602.48 660.29 600.26 Z" />
<path fill="#faebd4" opacity="1.00" d=" M 323.33 634.39 C 325.01 633.31 326.98 634.77 327.74 636.31 C 331.28 642.55 331.35 650.04 331.07 657.03 C 330.88 658.49 330.98 660.98 328.98 661.18 C 326.97 662.03 326.71 659.26 326.32 657.99 C 325.21 651.93 323.44 646.03 322.27 639.99 C 322.08 638.13 321.37 635.55 323.33 634.39 Z" />
<path fill="#faebd4" opacity="1.00" d=" M 639.14 650.31 C 640.64 649.52 643.17 649.72 643.23 651.88 C 645.12 661.63 641.46 671.34 640.72 681.05 C 640.93 683.00 637.53 684.06 637.21 681.95 C 636.02 673.16 634.57 664.10 636.41 655.30 C 636.89 653.47 637.35 651.30 639.14 650.31 Z" />
<path fill="#faebd4" opacity="1.00" d=" M 297.90 667.93 C 297.98 665.30 302.07 664.18 303.30 666.70 C 306.97 672.20 308.89 678.68 310.66 685.00 C 312.58 693.84 314.49 702.76 315.01 711.81 C 314.54 712.09 313.61 712.64 313.15 712.92 C 312.42 711.64 311.65 710.37 311.27 708.95 C 308.67 699.82 305.48 690.87 301.91 682.09 C 300.26 677.48 298.04 672.90 297.90 667.93 Z" />
<path fill="#faebd4" opacity="1.00" d=" M 353.42 675.05 C 352.97 673.08 354.48 670.81 356.65 671.25 C 358.44 672.47 357.92 675.03 358.40 676.90 C 359.22 686.09 359.69 695.33 359.57 704.55 C 358.56 704.94 356.31 705.70 356.24 703.93 C 354.72 694.38 353.88 684.71 353.42 675.05 Z" />
<path fill="#faebd4" opacity="1.00" d=" M 596.09 680.99 C 598.02 680.83 600.19 681.41 600.43 683.68 C 602.04 692.95 599.39 702.37 596.11 710.98 C 595.61 712.86 593.50 712.16 592.14 712.02 C 590.29 701.69 591.13 690.37 596.09 680.99 Z" />
<path fill="#faebd4" opacity="1.00" d=" M 647.42 714.40 C 649.19 712.75 652.59 714.50 651.64 716.95 C 649.68 730.13 644.22 742.47 638.39 754.34 C 637.42 756.04 636.91 758.23 635.11 759.26 C 632.95 759.28 634.14 756.47 634.36 755.28 C 638.81 741.70 641.39 727.42 647.42 714.40 Z" />
<path fill="#faebd4" opacity="1.00" d=" M 340.38 732.93 C 339.93 731.50 341.10 730.59 341.92 729.67 C 345.63 730.51 347.12 734.31 348.55 737.40 C 351.17 743.71 352.90 750.36 354.75 756.93 C 354.37 757.18 353.61 757.68 353.22 757.93 C 347.36 750.61 341.72 742.42 340.38 732.93 Z" />
<path fill="#faebd4" opacity="1.00" d=" M 609.76 740.78 C 610.05 739.72 610.77 739.13 611.91 739.03 C 612.05 740.92 612.04 742.83 611.62 744.71 C 609.94 752.81 607.86 760.83 605.66 768.81 C 605.02 768.83 603.73 768.87 603.08 768.90 C 603.07 766.85 603.22 764.82 603.77 762.86 C 605.66 755.47 607.29 748.00 609.76 740.78 Z" />
<path fill="#faebd4" opacity="1.00" d=" M 546.42 766.41 C 546.82 764.33 550.10 764.15 550.70 766.27 C 550.79 770.86 550.00 775.42 550.05 780.02 C 549.80 785.25 550.44 790.51 549.82 795.72 C 549.16 795.72 547.85 795.70 547.19 795.69 C 546.80 794.50 546.32 793.33 546.21 792.10 C 545.45 783.55 545.13 774.91 546.42 766.41 Z" />
<path fill="#faebd4" opacity="1.00" d=" M 368.30 777.01 C 367.42 774.16 371.83 772.15 373.56 774.47 C 376.10 778.16 376.90 782.69 377.85 786.99 C 379.02 793.01 380.86 798.93 381.32 805.07 C 381.78 806.53 380.15 807.18 379.28 807.96 C 376.19 803.45 374.79 798.09 372.85 793.05 C 371.17 787.76 368.72 782.61 368.30 777.01 Z" />
<path fill="#faebd4" opacity="1.00" d=" M 339.20 780.19 C 340.76 780.02 342.85 779.65 343.32 781.67 C 345.35 787.12 346.44 792.89 348.60 798.31 C 349.73 801.83 351.81 805.11 351.91 808.91 C 350.64 808.71 349.03 809.03 348.44 807.58 C 343.10 799.57 337.41 790.20 339.20 780.19 Z" />
<path fill="#faebd4" opacity="1.00" d=" M 614.25 796.44 C 616.57 796.45 618.39 798.70 618.17 801.00 C 618.67 811.50 613.28 820.93 609.29 830.28 C 608.55 832.81 605.25 833.45 604.28 830.70 C 604.64 826.71 605.99 822.90 606.69 818.98 C 608.21 812.34 608.61 805.41 611.15 799.04 C 611.59 797.65 612.76 796.54 614.25 796.44 Z" />
<path fill="#faebd4" opacity="1.00" d=" M 574.87 803.98 C 574.96 801.76 576.77 800.37 578.81 800.02 C 580.17 801.72 581.18 803.75 580.71 806.00 C 580.09 810.63 580.02 815.36 578.94 819.92 C 578.52 822.42 574.27 822.54 573.81 820.02 C 573.74 814.67 574.10 809.28 574.87 803.98 Z" />
<path fill="#faebd4" opacity="1.00" d=" M 369.30 838.34 C 370.52 837.77 372.28 837.67 373.13 838.93 C 378.78 845.79 381.80 854.46 383.71 863.03 C 384.45 864.78 382.17 866.87 380.83 865.14 C 375.54 858.86 370.64 851.93 368.31 843.96 C 367.87 842.10 367.24 839.45 369.30 838.34 Z" />
<path fill="#faebd4" opacity="1.00" d=" M 404.10 853.13 C 405.41 853.04 407.13 852.76 407.88 854.20 C 409.79 857.48 410.59 861.27 412.29 864.67 C 413.20 866.96 414.76 869.17 414.76 871.72 C 413.94 873.67 411.76 872.45 410.77 871.34 C 406.11 866.66 402.64 859.87 404.10 853.13 Z" />
<path fill="#faebd4" opacity="1.00" d=" M 585.45 871.32 C 586.32 869.42 587.02 866.02 589.87 867.23 C 587.91 877.08 584.24 886.50 581.14 896.04 C 578.99 902.16 577.12 908.43 574.39 914.32 C 573.30 915.62 572.07 914.52 571.01 913.90 C 575.04 899.45 580.10 885.32 585.45 871.32 Z" />
<path fill="#faebd4" opacity="1.00" d=" M 510.19 879.14 C 511.50 877.30 513.79 879.25 513.70 881.01 C 514.17 885.33 514.64 889.67 515.69 893.91 C 514.51 895.23 512.97 895.47 511.33 894.92 C 510.33 889.76 508.56 884.35 510.19 879.14 Z" />
<path fill="#faebd4" opacity="1.00" d=" M 433.50 887.50 C 434.60 887.30 435.71 887.16 436.83 887.07 C 440.30 902.13 442.29 917.60 447.88 932.11 C 449.62 935.25 444.09 937.01 443.06 933.93 C 436.90 919.36 431.79 903.51 433.50 887.50 Z" />
<path fill="#faebd4" opacity="1.00" d=" M 534.30 912.17 C 535.71 911.84 537.97 912.04 537.85 914.02 C 538.54 922.72 536.71 931.36 535.65 939.96 C 535.26 941.81 535.35 944.51 533.01 945.00 C 531.40 944.48 532.03 942.32 531.83 941.08 C 532.12 931.42 531.92 921.62 534.30 912.17 Z" />
<path fill="#faebd4" opacity="1.00" d=" M 410.20 929.20 C 411.52 928.24 413.23 928.49 414.03 929.99 C 416.83 933.83 418.11 938.49 420.36 942.64 C 423.56 948.57 427.23 954.26 431.28 959.66 C 432.12 960.86 433.28 962.13 432.71 963.73 C 430.58 964.70 429.11 962.53 427.74 961.29 C 419.90 952.57 411.83 942.98 409.87 931.04 C 409.95 930.58 410.11 929.66 410.20 929.20 Z" />
<path fill="#faebd4" opacity="1.00" d=" M 496.29 931.10 C 497.34 931.37 499.31 931.35 498.95 933.04 C 499.13 938.01 498.33 942.94 498.13 947.90 C 497.67 955.21 497.81 962.59 496.79 969.85 C 495.96 971.34 493.98 970.47 493.96 968.92 C 490.98 956.50 491.49 943.00 496.29 931.10 Z" />
<path fill="#faebd4" opacity="1.00" d=" M 563.84 953.98 C 564.32 951.36 568.61 951.37 568.44 954.26 C 568.23 962.39 565.13 970.05 562.60 977.68 C 561.50 980.88 560.67 984.21 558.80 987.08 C 557.57 986.17 556.86 984.78 557.40 983.26 C 559.18 973.45 559.86 963.23 563.84 953.98 Z" />
<path fill="#faebd4" opacity="1.00" d=" M 536.26 980.25 C 537.37 978.13 541.27 979.68 540.14 982.01 C 535.50 994.57 528.69 1006.21 521.47 1017.45 C 520.26 1019.33 518.74 1021.87 516.07 1020.89 C 518.43 1013.79 522.51 1007.39 525.62 1000.60 C 529.20 993.84 532.21 986.74 536.26 980.25 Z" />
<path fill="#faebd4" opacity="1.00" d=" M 450.52 999.57 C 449.44 997.46 452.71 996.46 453.72 998.23 C 457.55 1003.07 459.99 1008.84 462.64 1014.38 C 463.93 1017.51 465.80 1020.52 466.04 1023.99 C 463.78 1023.93 462.87 1021.73 461.73 1020.18 C 457.46 1013.64 452.85 1007.11 450.52 999.57 Z" />
<path fill="#faebd4" opacity="1.00" d=" M 493.22 1017.34 C 496.23 1015.77 496.80 1020.02 497.15 1022.04 C 498.05 1030.03 500.29 1037.94 499.94 1046.03 C 500.00 1047.92 496.72 1049.05 495.74 1047.25 C 492.42 1042.20 492.87 1035.84 492.27 1030.07 C 492.29 1025.86 491.29 1021.25 493.22 1017.34 Z" />
</g>
<g id="#f5cf17ff">
<path fill="#f5cf17" opacity="1.00" d=" M 471.32 621.92 C 479.25 616.66 490.26 614.82 498.87 619.51 C 505.29 623.32 506.77 631.26 505.69 638.13 C 509.04 636.92 512.89 636.14 515.28 633.26 C 518.50 629.43 520.54 624.64 524.44 621.39 C 529.53 617.13 537.48 617.35 542.70 621.26 C 545.54 623.44 547.12 626.76 549.20 629.60 C 548.94 633.86 549.30 638.40 547.27 642.31 C 545.27 646.30 541.51 648.91 538.09 651.59 C 540.68 652.09 543.29 652.60 545.81 653.42 C 550.15 655.50 552.97 659.47 555.40 663.46 C 555.90 667.96 556.45 672.89 554.04 676.98 C 552.17 680.15 548.95 683.04 545.07 683.03 C 540.10 683.08 535.43 681.00 531.04 678.90 C 527.10 677.01 524.07 673.53 519.90 672.13 C 515.31 671.43 510.65 672.03 506.04 671.98 C 493.68 672.01 481.31 672.29 468.98 673.02 C 465.53 673.14 464.69 677.02 463.54 679.57 C 461.39 685.41 457.98 691.44 452.01 694.04 C 448.36 695.81 444.25 694.87 440.44 694.35 C 438.37 691.13 435.71 688.00 435.52 683.99 C 434.65 677.03 438.89 670.82 443.57 666.13 C 444.76 664.83 445.92 663.51 447.09 662.19 C 441.31 661.54 435.83 659.63 430.72 656.92 C 428.38 653.31 425.07 649.69 425.57 645.06 C 426.24 638.69 432.84 634.39 438.95 634.76 C 445.21 634.68 450.51 638.29 455.68 641.33 C 460.74 644.34 466.81 642.91 472.36 642.88 C 469.93 640.76 467.40 638.33 466.92 634.98 C 465.81 630.17 467.78 625.20 471.32 621.92 M 483.26 624.39 C 478.63 625.91 474.41 630.87 476.16 635.95 C 476.96 638.96 479.77 641.32 482.98 641.05 C 487.40 641.24 492.97 641.99 496.10 638.11 C 498.91 635.01 498.83 629.99 496.16 626.85 C 493.13 623.05 487.51 622.80 483.26 624.39 M 434.94 641.98 C 431.42 645.26 432.31 651.37 436.60 653.55 C 436.84 651.00 437.24 648.14 439.55 646.59 C 442.57 644.06 446.62 645.22 450.08 645.94 C 447.52 640.67 439.52 637.21 434.94 641.98 M 449.50 665.47 C 446.19 668.94 443.66 673.28 442.65 677.99 C 441.57 682.76 445.57 687.53 450.37 687.76 C 449.24 685.01 447.89 682.06 448.73 679.03 C 450.19 672.26 454.91 666.88 459.43 661.88 C 456.02 662.66 451.99 662.62 449.50 665.47 Z" />
</g>
<g id="#f2b41aff">
<path fill="#f2b41a" opacity="1.00" d=" M 549.20 629.60 C 554.67 636.90 552.64 647.71 545.81 653.42 C 543.29 652.60 540.68 652.09 538.09 651.59 C 541.51 648.91 545.27 646.30 547.27 642.31 C 549.30 638.40 548.94 633.86 549.20 629.60 Z" />
<path fill="#f2b41a" opacity="1.00" d=" M 430.72 656.92 C 435.83 659.63 441.31 661.54 447.09 662.19 C 445.92 663.51 444.76 664.83 443.57 666.13 C 438.50 664.43 433.45 661.71 430.72 656.92 Z" />
<path fill="#f2b41a" opacity="1.00" d=" M 555.40 663.46 C 559.96 669.22 560.77 678.14 556.04 684.03 C 553.73 687.13 549.68 688.60 545.91 687.88 C 538.46 686.65 531.75 682.75 525.81 678.22 C 523.66 676.34 520.69 676.71 518.06 676.71 C 503.42 677.14 488.78 677.31 474.14 677.67 C 471.99 677.70 469.51 678.35 468.64 680.56 C 466.50 685.05 465.11 689.98 461.87 693.88 C 458.49 698.29 452.65 701.30 447.05 699.89 C 444.06 699.23 441.95 696.84 440.44 694.35 C 444.25 694.87 448.36 695.81 452.01 694.04 C 457.98 691.44 461.39 685.41 463.54 679.57 C 464.69 677.02 465.53 673.14 468.98 673.02 C 481.31 672.29 493.68 672.01 506.04 671.98 C 510.65 672.03 515.31 671.43 519.90 672.13 C 524.07 673.53 527.10 677.01 531.04 678.90 C 535.43 681.00 540.10 683.08 545.07 683.03 C 548.95 683.04 552.17 680.15 554.04 676.98 C 556.45 672.89 555.90 667.96 555.40 663.46 Z" />
</g>
<g id="#fae889ff">
<path fill="#fae889" opacity="1.00" d=" M 434.94 641.98 C 439.52 637.21 447.52 640.67 450.08 645.94 C 446.62 645.22 442.57 644.06 439.55 646.59 C 437.24 648.14 436.84 651.00 436.60 653.55 C 432.31 651.37 431.42 645.26 434.94 641.98 Z" />
<path fill="#fae889" opacity="1.00" d=" M 449.50 665.47 C 451.99 662.62 456.02 662.66 459.43 661.88 C 454.91 666.88 450.19 672.26 448.73 679.03 C 447.89 682.06 449.24 685.01 450.37 687.76 C 445.57 687.53 441.57 682.76 442.65 677.99 C 443.66 673.28 446.19 668.94 449.50 665.47 Z" />
</g>
<g id="#f4c79eff">
<path fill="#f4c79e" opacity="1.00" d=" M 330.01 994.41 C 344.17 984.11 352.39 967.91 365.93 956.94 C 368.93 992.54 372.70 1028.24 380.88 1063.08 C 385.02 1081.14 390.88 1098.75 397.64 1115.99 C 401.08 1124.73 405.32 1133.13 409.69 1141.44 C 413.70 1149.37 417.62 1158.18 415.89 1167.28 C 414.07 1175.94 407.30 1182.77 399.50 1186.48 C 384.75 1193.37 365.83 1189.22 355.00 1177.17 C 341.28 1192.87 317.07 1196.97 298.35 1188.43 C 290.89 1185.20 284.07 1180.25 279.33 1173.58 C 267.59 1178.33 253.71 1174.54 244.44 1166.38 C 243.26 1165.11 241.61 1163.86 241.35 1162.10 C 241.75 1161.88 242.57 1161.43 242.98 1161.20 C 246.30 1162.49 249.43 1164.42 253.01 1164.96 C 259.22 1165.81 265.98 1164.92 271.07 1161.01 C 276.74 1157.04 279.62 1150.46 281.53 1144.04 C 282.34 1152.94 283.79 1162.34 289.43 1169.61 C 294.18 1175.49 301.93 1177.58 309.09 1178.70 C 323.64 1180.93 339.89 1175.98 348.91 1163.92 C 352.64 1159.36 354.36 1153.65 355.53 1147.98 C 357.08 1153.30 359.13 1158.82 363.65 1162.36 C 367.52 1165.91 373.42 1167.52 378.37 1165.38 C 384.85 1162.10 387.80 1153.91 386.17 1147.04 C 384.86 1140.28 380.91 1134.47 376.94 1129.00 C 359.32 1106.33 327.86 1095.44 300.03 1102.79 C 305.59 1095.26 315.11 1092.12 324.02 1090.89 C 331.96 1089.52 340.23 1089.63 347.89 1086.91 C 351.97 1085.61 351.74 1080.48 351.67 1077.02 C 350.58 1052.04 334.12 1031.31 330.15 1007.02 C 329.35 1003.19 330.22 999.07 328.58 995.45 C 329.06 995.10 329.53 994.75 330.01 994.41 Z" />
<path fill="#f4c79e" opacity="1.00" d=" M 693.39 993.93 C 698.83 992.87 704.47 991.84 709.98 993.14 C 716.18 994.33 721.43 998.12 726.04 1002.26 C 724.48 1013.59 722.67 1024.89 720.96 1036.20 C 720.88 1036.61 720.74 1037.43 720.66 1037.84 C 718.44 1051.89 715.54 1065.84 713.66 1079.95 C 712.02 1093.19 712.63 1107.46 719.78 1119.14 C 721.43 1121.48 722.53 1124.65 725.10 1126.09 C 729.89 1125.39 734.35 1122.99 738.19 1120.11 C 742.04 1117.23 743.82 1112.63 745.39 1108.27 C 747.98 1110.58 750.74 1113.00 754.29 1113.65 C 759.50 1114.93 765.96 1113.77 769.06 1109.00 C 772.79 1103.11 772.45 1095.75 771.72 1089.11 C 769.53 1074.10 761.26 1060.74 751.47 1049.46 C 748.40 1045.63 744.21 1043.01 740.59 1039.78 C 750.67 1041.24 760.64 1044.72 768.95 1050.69 C 790.90 1065.72 804.14 1091.67 805.52 1118.00 C 805.39 1122.73 804.61 1127.80 801.47 1131.55 C 798.62 1134.96 794.18 1136.51 789.92 1137.22 C 779.61 1138.99 769.11 1139.86 758.65 1139.57 C 753.48 1147.28 743.11 1146.33 735.03 1147.24 C 736.79 1153.56 735.07 1160.72 730.57 1165.51 C 722.00 1175.26 707.34 1179.90 694.92 1175.58 C 685.90 1189.31 669.16 1196.92 652.97 1196.69 C 642.41 1196.47 631.76 1193.04 623.56 1186.29 C 622.07 1185.12 620.87 1183.54 619.07 1182.83 C 606.05 1199.55 577.41 1201.77 563.31 1185.21 C 567.92 1185.52 572.39 1186.99 577.04 1187.07 C 595.64 1187.60 614.46 1177.57 623.63 1161.23 C 624.77 1167.35 628.01 1173.30 633.64 1176.34 C 642.16 1181.88 653.04 1180.38 662.13 1177.19 C 671.04 1173.90 680.62 1170.41 686.76 1162.76 C 690.09 1158.95 690.85 1153.82 691.28 1148.98 C 695.38 1150.67 699.94 1153.44 704.43 1151.33 C 710.40 1148.49 711.97 1140.81 710.07 1134.95 C 705.49 1118.53 690.43 1106.55 674.17 1102.80 C 664.68 1100.23 654.77 1100.88 645.11 1101.88 C 655.63 1090.78 663.74 1077.57 669.21 1063.31 C 676.78 1043.32 683.87 1023.14 691.24 1003.08 C 692.35 1000.22 693.67 997.33 693.37 994.20 L 693.39 993.93 Z" />
<path fill="#f4c79e" opacity="1.00" d=" M 236.88 1042.70 C 241.16 1043.32 245.11 1045.42 249.43 1045.73 C 251.96 1059.20 255.90 1072.43 257.28 1086.12 C 258.64 1097.16 257.25 1108.85 251.74 1118.67 C 246.45 1128.82 238.39 1138.23 237.45 1150.07 C 228.63 1150.27 219.80 1149.89 211.01 1149.11 C 205.73 1148.49 199.72 1147.08 196.77 1142.19 C 185.08 1142.34 173.30 1141.66 161.88 1139.02 C 155.82 1137.61 151.20 1132.13 150.38 1126.03 C 148.96 1117.35 151.23 1108.58 153.33 1100.20 L 153.47 1100.99 C 154.64 1107.27 153.94 1114.49 158.41 1119.67 C 162.15 1123.68 168.43 1123.32 172.98 1120.98 C 183.02 1115.98 189.13 1106.24 195.87 1097.75 C 196.20 1103.07 196.03 1108.65 198.50 1113.54 C 202.73 1122.99 214.03 1129.11 224.19 1126.19 C 229.06 1124.89 232.66 1120.53 233.52 1115.63 C 234.61 1109.48 234.86 1103.22 235.67 1097.03 C 237.00 1082.35 239.66 1067.78 240.10 1053.03 C 240.38 1049.26 238.64 1045.87 236.88 1042.70 Z" />
</g>
</svg>
