<?xml version="1.0" encoding="UTF-8" ?>
<!DOCTYPE svg PUBLIC "-//W3C//DTD SVG 1.1//EN" "http://www.w3.org/Graphics/SVG/1.1/DTD/svg11.dtd">
<svg width="1035pt" height="733pt" viewBox="0 0 1035 733" version="1.1" xmlns="http://www.w3.org/2000/svg">
<g id="#f0a11cff">
<path fill="#f0a11c" opacity="1.00" d=" M 699.89 54.83 C 704.26 52.21 709.27 50.50 714.42 50.73 C 710.92 53.07 706.95 54.90 704.18 58.18 C 693.13 71.18 683.17 85.14 675.20 100.26 C 672.85 103.99 671.38 108.23 668.80 111.81 C 663.13 112.43 657.43 111.69 651.76 111.83 C 657.93 98.43 666.34 86.11 676.11 75.09 C 683.08 67.32 690.88 60.17 699.89 54.83 Z" />
<path fill="#f0a11c" opacity="1.00" d=" M 470.31 113.81 C 470.94 110.11 472.45 106.61 474.59 103.52 C 474.76 106.02 474.86 108.52 474.93 111.03 C 474.92 117.35 477.26 123.31 478.58 129.41 C 482.81 144.85 488.88 159.76 496.04 174.06 C 497.16 175.76 495.72 177.47 495.05 179.02 C 492.45 183.79 489.97 188.63 488.16 193.76 C 487.07 190.71 485.25 187.99 483.92 185.04 C 477.45 171.41 472.90 156.84 470.62 141.92 C 469.29 132.63 468.68 123.10 470.31 113.81 Z" />
<path fill="#f0a11c" opacity="1.00" d=" M 681.33 150.34 C 690.67 148.12 700.51 152.30 706.84 159.20 C 711.80 163.66 715.22 170.49 713.64 177.25 C 701.70 169.13 685.34 171.44 673.44 178.45 C 670.54 179.91 669.44 183.07 668.31 185.87 C 665.85 180.90 663.11 175.41 664.48 169.70 C 666.13 160.76 673.22 153.83 681.33 150.34 Z" />
<path fill="#f0a11c" opacity="1.00" d=" M 539.35 186.39 C 543.56 181.34 548.89 175.76 556.01 175.94 C 563.50 176.20 571.44 178.74 576.33 184.71 C 580.94 189.02 581.82 195.83 580.81 201.78 C 577.42 203.05 574.01 204.26 570.48 205.07 C 570.08 201.40 567.98 197.77 564.36 196.49 C 558.90 194.60 552.18 195.84 548.11 200.06 C 544.70 204.10 546.46 209.97 549.37 213.77 C 546.46 215.31 542.93 216.62 539.68 215.35 C 536.59 213.91 533.99 211.10 533.39 207.67 C 531.83 200.13 535.09 192.48 539.35 186.39 Z" />
<path fill="#f0a11c" opacity="1.00" d=" M 234.88 246.68 C 244.75 244.67 255.33 246.05 264.24 250.80 C 271.61 255.35 277.35 263.22 278.00 272.02 C 278.76 279.91 274.75 287.75 268.73 292.68 C 261.71 298.14 253.30 301.55 244.71 303.65 C 240.03 304.99 235.09 304.89 230.41 306.19 C 229.17 304.95 227.95 303.69 226.73 302.44 C 237.11 297.98 249.60 297.28 257.89 288.81 C 265.34 282.27 265.35 269.55 258.17 262.83 C 251.20 257.65 241.55 258.63 234.02 262.02 C 227.82 264.75 224.52 271.57 224.09 278.04 C 224.46 284.48 228.39 290.06 233.12 294.19 C 227.52 292.70 223.84 287.68 221.01 282.96 C 216.88 275.47 215.11 265.97 218.96 258.00 C 221.76 251.68 228.38 248.08 234.88 246.68 Z" />
<path fill="#f0a11c" opacity="1.00" d=" M 726.13 398.14 C 741.21 397.67 755.74 393.03 769.76 387.80 C 769.63 390.44 769.83 393.22 768.69 395.69 C 765.77 402.58 758.85 406.68 755.67 413.40 C 753.87 417.28 753.96 422.05 756.27 425.71 C 759.25 430.63 764.09 433.95 768.46 437.54 C 777.09 444.56 784.44 452.94 792.19 460.88 C 776.12 469.14 759.58 476.50 742.93 483.54 C 733.80 487.31 724.48 490.85 714.71 492.52 C 716.55 484.11 718.19 475.65 719.44 467.13 C 720.07 462.71 720.70 458.30 721.64 453.93 C 725.45 435.62 726.91 416.83 726.13 398.14 Z" />
<path fill="#f0a11c" opacity="1.00" d=" M 152.90 392.48 C 157.36 393.43 161.87 394.20 166.26 395.44 C 167.28 395.72 168.29 396.03 169.29 396.40 C 172.33 401.73 177.29 405.65 182.00 409.45 C 183.01 423.12 186.06 436.57 189.47 449.80 C 188.41 451.60 186.47 452.64 184.82 453.84 C 175.88 459.51 166.59 464.72 156.71 468.56 C 148.44 472.31 139.83 475.20 131.29 478.24 C 123.48 474.39 116.25 469.50 108.91 464.85 C 111.61 463.31 114.33 461.76 116.65 459.66 C 120.74 456.08 123.62 451.23 128.22 448.21 C 136.36 442.78 146.77 442.42 154.85 436.88 C 159.22 434.03 162.77 429.41 162.98 424.04 C 163.87 412.67 158.86 401.85 152.90 392.48 Z" />
<path fill="#f0a11c" opacity="1.00" d=" M 357.70 502.68 C 365.02 486.87 371.20 470.54 375.90 453.76 C 375.72 461.06 375.82 468.37 375.92 475.68 C 371.51 489.27 367.05 503.10 359.21 515.17 C 352.54 526.92 342.86 536.60 332.21 544.76 C 349.98 551.33 368.77 555.09 387.65 556.59 C 387.85 556.20 388.26 555.42 388.46 555.03 C 390.19 561.76 392.05 568.46 393.98 575.14 C 362.80 571.44 331.70 566.91 300.89 560.81 C 309.16 556.15 317.18 551.07 325.38 546.27 C 330.90 543.03 335.31 538.31 339.79 533.82 C 348.18 525.02 352.76 513.58 357.70 502.68 Z" />
<path fill="#f0a11c" opacity="1.00" d=" M 588.77 520.87 C 598.82 509.03 610.56 498.31 624.30 490.92 C 622.46 495.35 617.37 496.98 615.16 501.17 C 609.16 508.97 605.57 518.39 604.31 528.12 C 603.82 532.94 602.18 537.88 603.25 542.72 C 606.50 545.31 610.51 546.74 613.79 549.32 C 614.68 549.74 615.73 552.19 613.89 551.95 C 609.63 551.79 606.10 548.68 602.20 547.18 C 602.40 552.96 601.06 559.17 603.40 564.64 C 606.80 566.40 610.57 567.31 614.09 568.81 C 616.73 570.00 620.14 570.70 621.22 573.77 C 615.33 573.09 609.67 571.25 603.88 570.10 C 604.22 575.97 605.72 582.62 611.05 585.98 C 608.71 585.99 606.37 585.98 604.05 585.78 C 589.26 584.93 574.56 583.08 559.89 581.08 C 563.92 558.91 574.41 538.14 588.77 520.87 Z" />
</g>
<g id="#f2b61bff">
<path fill="#f2b61b" opacity="1.00" d=" M 714.42 50.73 C 718.19 51.12 721.95 52.62 724.40 55.62 C 728.53 60.49 729.81 66.95 731.11 73.02 C 733.78 86.25 736.34 99.54 737.66 112.99 C 738.84 124.22 738.98 135.65 741.47 146.70 C 751.00 155.86 761.07 164.76 772.85 170.95 C 778.00 173.54 783.12 176.90 785.83 182.19 C 789.81 189.94 790.56 199.08 790.05 207.61 C 782.21 221.56 769.69 232.95 754.66 238.65 C 733.13 246.99 707.53 242.79 689.49 228.49 C 679.13 220.16 667.67 212.68 654.61 209.49 C 646.29 207.43 637.57 207.34 629.11 208.56 C 618.77 210.20 608.34 212.74 599.34 218.30 C 585.61 226.55 576.24 240.23 569.36 254.39 C 561.90 269.86 548.38 282.26 532.29 288.28 C 511.45 296.52 487.06 292.32 469.02 279.45 C 464.57 271.47 461.17 262.15 462.11 252.85 C 462.97 244.41 469.85 238.67 473.70 231.59 C 480.81 219.94 483.23 206.32 488.16 193.76 C 489.97 188.63 492.45 183.79 495.05 179.02 C 495.72 177.47 497.16 175.76 496.04 174.06 C 488.88 159.76 482.81 144.85 478.58 129.41 C 477.26 123.31 474.92 117.35 474.93 111.03 C 474.86 108.52 474.76 106.02 474.59 103.52 C 476.79 100.95 479.54 98.62 482.96 97.95 C 488.48 96.76 494.07 98.66 499.09 100.86 C 509.04 105.39 518.80 110.35 528.44 115.53 C 537.86 120.56 546.67 126.62 555.73 132.24 C 556.72 132.77 557.65 133.59 558.82 133.71 C 588.92 123.36 619.79 113.71 651.76 111.83 C 657.43 111.69 663.13 112.43 668.80 111.81 C 671.38 108.23 672.85 103.99 675.20 100.26 C 683.17 85.14 693.13 71.18 704.18 58.18 C 706.95 54.90 710.92 53.07 714.42 50.73 M 697.68 86.71 C 691.53 95.67 685.74 104.89 680.35 114.33 C 693.21 117.28 705.60 121.97 717.23 128.22 C 717.84 118.46 716.99 108.69 716.58 98.94 C 716.20 94.04 716.35 88.95 714.64 84.27 C 713.55 81.24 710.32 79.10 707.09 79.68 C 702.90 80.12 699.93 83.46 697.68 86.71 M 496.31 123.39 C 492.24 126.11 492.09 131.79 493.45 136.04 C 496.53 146.05 500.50 155.77 504.24 165.55 C 513.54 157.38 523.17 149.38 534.27 143.71 C 526.36 137.15 517.54 131.73 509.01 125.99 C 505.38 123.60 500.57 120.93 496.31 123.39 M 680.39 132.50 C 678.58 132.90 676.09 133.62 675.99 135.86 C 675.72 138.01 677.23 139.88 679.00 140.88 C 683.34 143.41 688.64 144.80 693.62 143.57 C 695.02 143.30 696.09 141.27 694.82 140.20 C 691.41 135.85 686.40 131.20 680.39 132.50 M 681.33 150.34 C 673.22 153.83 666.13 160.76 664.48 169.70 C 663.11 175.41 665.85 180.90 668.31 185.87 C 667.81 187.55 666.29 189.65 667.68 191.29 C 670.21 193.21 673.49 193.68 676.50 194.42 C 684.24 195.87 692.23 196.45 700.06 195.50 C 691.81 194.66 683.50 193.29 675.78 190.19 C 674.78 189.48 672.40 189.20 673.27 187.52 C 684.88 184.28 696.90 182.37 708.96 182.11 C 712.19 182.03 715.35 182.83 718.50 183.47 C 717.23 181.14 715.73 178.90 713.64 177.25 C 715.22 170.49 711.80 163.66 706.84 159.20 C 700.51 152.30 690.67 148.12 681.33 150.34 M 537.79 173.41 C 543.96 174.14 548.06 168.75 552.70 165.68 C 554.90 164.25 553.88 159.93 551.06 160.19 C 544.05 159.63 537.66 166.60 537.79 173.41 M 539.35 186.39 C 535.09 192.48 531.83 200.13 533.39 207.67 C 533.99 211.10 536.59 213.91 539.68 215.35 C 542.93 216.62 546.46 215.31 549.37 213.77 C 551.70 216.53 555.50 218.07 559.05 216.94 C 564.82 215.87 570.66 211.45 570.48 205.07 C 574.01 204.26 577.42 203.05 580.81 201.78 C 581.82 195.83 580.94 189.02 576.33 184.71 C 571.44 178.74 563.50 176.20 556.01 175.94 C 548.89 175.76 543.56 181.34 539.35 186.39 Z" />
<path fill="#f2b61b" opacity="1.00" d=" M 204.44 227.35 C 221.50 217.12 242.59 212.97 262.04 217.83 C 288.72 224.23 309.25 249.69 310.35 277.01 C 310.73 288.67 307.38 300.73 299.88 309.80 C 291.73 319.57 278.55 324.21 266.04 323.43 C 252.49 322.61 239.81 315.77 230.41 306.19 C 235.09 304.89 240.03 304.99 244.71 303.65 C 253.30 301.55 261.71 298.14 268.73 292.68 C 274.75 287.75 278.76 279.91 278.00 272.02 C 277.35 263.22 271.61 255.35 264.24 250.80 C 255.33 246.05 244.75 244.67 234.88 246.68 C 228.38 248.08 221.76 251.68 218.96 258.00 C 215.11 265.97 216.88 275.47 221.01 282.96 C 223.84 287.68 227.52 292.70 233.12 294.19 C 228.39 290.06 224.46 284.48 224.09 278.04 C 224.52 271.57 227.82 264.75 234.02 262.02 C 241.55 258.63 251.20 257.65 258.17 262.83 C 265.35 269.55 265.34 282.27 257.89 288.81 C 249.60 297.28 237.11 297.98 226.73 302.44 C 220.97 306.94 220.34 315.41 223.35 321.69 C 228.21 332.19 237.50 340.12 247.59 345.45 C 258.50 350.88 271.00 352.06 283.03 351.60 C 296.51 351.04 310.35 347.67 321.17 339.26 C 336.15 328.08 345.69 310.48 348.52 292.14 C 373.75 289.97 399.01 288.17 424.32 287.29 C 408.61 320.53 392.84 354.11 384.20 390.02 C 380.30 405.89 378.10 422.16 377.22 438.47 C 376.57 443.55 376.34 448.66 375.90 453.76 C 371.20 470.54 365.02 486.87 357.70 502.68 C 352.76 513.58 348.18 525.02 339.79 533.82 C 335.31 538.31 330.90 543.03 325.38 546.27 C 317.18 551.07 309.16 556.15 300.89 560.81 C 293.27 565.11 285.31 568.98 276.83 571.24 C 266.80 574.02 256.26 574.38 245.95 573.38 C 217.69 570.71 189.79 564.99 161.47 562.93 L 161.70 562.53 C 163.95 558.73 165.79 554.49 165.70 550.00 C 165.86 541.25 160.36 533.52 153.88 528.14 C 147.94 523.01 139.98 520.26 135.26 513.74 C 131.60 508.76 132.15 502.01 134.48 496.60 C 138.66 486.87 145.59 478.38 154.04 472.03 C 155.21 471.11 156.46 470.13 156.71 468.56 C 166.59 464.72 175.88 459.51 184.82 453.84 C 186.47 452.64 188.41 451.60 189.47 449.80 C 186.06 436.57 183.01 423.12 182.00 409.45 C 181.75 379.50 190.62 349.06 209.13 325.27 C 202.81 324.47 196.56 322.37 191.51 318.41 C 183.18 312.12 178.08 302.26 176.50 292.06 C 174.54 280.19 171.61 267.36 176.88 255.90 C 182.65 243.71 193.10 234.31 204.44 227.35 M 248.27 310.21 C 248.60 311.45 249.41 311.64 250.68 310.80 C 250.34 309.56 249.54 309.36 248.27 310.21 Z" />
<path fill="#f2b61b" opacity="1.00" d=" M 359.21 515.17 C 367.05 503.10 371.51 489.27 375.92 475.68 C 377.09 502.51 381.84 529.05 388.46 555.03 C 388.26 555.42 387.85 556.20 387.65 556.59 C 368.77 555.09 349.98 551.33 332.21 544.76 C 342.86 536.60 352.54 526.92 359.21 515.17 Z" />
<path fill="#f2b61b" opacity="1.00" d=" M 624.30 490.92 C 633.54 485.48 643.78 481.75 654.32 479.82 C 662.12 484.77 670.53 488.66 678.78 492.79 C 689.18 497.96 699.82 502.70 710.69 506.83 C 717.69 509.41 724.74 511.94 732.02 513.63 C 730.29 516.82 728.15 520.15 728.51 523.95 C 728.99 531.07 732.42 538.36 729.61 545.42 C 725.51 556.82 714.41 563.07 706.88 571.90 C 703.61 575.56 701.25 579.91 699.66 584.54 C 670.11 582.70 640.61 586.19 611.05 585.98 C 605.72 582.62 604.22 575.97 603.88 570.10 C 609.67 571.25 615.33 573.09 621.22 573.77 C 620.14 570.70 616.73 570.00 614.09 568.81 C 610.57 567.31 606.80 566.40 603.40 564.64 C 601.06 559.17 602.40 552.96 602.20 547.18 C 606.10 548.68 609.63 551.79 613.89 551.95 C 615.73 552.19 614.68 549.74 613.79 549.32 C 610.51 546.74 606.50 545.31 603.25 542.72 C 602.18 537.88 603.82 532.94 604.31 528.12 C 605.57 518.39 609.16 508.97 615.16 501.17 C 617.37 496.98 622.46 495.35 624.30 490.92 Z" />
</g>
<g id="#fbddb3ff">
<path fill="#fbddb3" opacity="1.00" d=" M 697.68 86.71 C 699.93 83.46 702.90 80.12 707.09 79.68 C 710.32 79.10 713.55 81.24 714.64 84.27 C 716.35 88.95 716.20 94.04 716.58 98.94 C 716.99 108.69 717.84 118.46 717.23 128.22 C 705.60 121.97 693.21 117.28 680.35 114.33 C 685.74 104.89 691.53 95.67 697.68 86.71 Z" />
<path fill="#fbddb3" opacity="1.00" d=" M 496.31 123.39 C 500.57 120.93 505.38 123.60 509.01 125.99 C 517.54 131.73 526.36 137.15 534.27 143.71 C 523.17 149.38 513.54 157.38 504.24 165.55 C 500.50 155.77 496.53 146.05 493.45 136.04 C 492.09 131.79 492.24 126.11 496.31 123.39 Z" />
<path fill="#fbddb3" opacity="1.00" d=" M 680.39 132.50 C 686.40 131.20 691.41 135.85 694.82 140.20 C 696.09 141.27 695.02 143.30 693.62 143.57 C 688.64 144.80 683.34 143.41 679.00 140.88 C 677.23 139.88 675.72 138.01 675.99 135.86 C 676.09 133.62 678.58 132.90 680.39 132.50 Z" />
<path fill="#fbddb3" opacity="1.00" d=" M 537.79 173.41 C 537.66 166.60 544.05 159.63 551.06 160.19 C 553.88 159.93 554.90 164.25 552.70 165.68 C 548.06 168.75 543.96 174.14 537.79 173.41 Z" />
<path fill="#fbddb3" opacity="1.00" d=" M 206.95 173.23 C 233.82 169.64 261.98 168.78 287.90 177.90 C 305.11 183.81 320.41 195.15 330.76 210.15 C 347.17 233.72 353.26 263.93 348.52 292.14 C 345.69 310.48 336.15 328.08 321.17 339.26 C 310.35 347.67 296.51 351.04 283.03 351.60 C 271.00 352.06 258.50 350.88 247.59 345.45 C 237.50 340.12 228.21 332.19 223.35 321.69 C 220.34 315.41 220.97 306.94 226.73 302.44 C 227.95 303.69 229.17 304.95 230.41 306.19 C 239.81 315.77 252.49 322.61 266.04 323.43 C 278.55 324.21 291.73 319.57 299.88 309.80 C 307.38 300.73 310.73 288.67 310.35 277.01 C 309.25 249.69 288.72 224.23 262.04 217.83 C 242.59 212.97 221.50 217.12 204.44 227.35 C 193.10 234.31 182.65 243.71 176.88 255.90 C 171.61 267.36 174.54 280.19 176.50 292.06 C 178.08 302.26 183.18 312.12 191.51 318.41 C 196.56 322.37 202.81 324.47 209.13 325.27 C 190.62 349.06 181.75 379.50 182.00 409.45 C 177.29 405.65 172.33 401.73 169.29 396.40 C 168.29 396.03 167.28 395.72 166.26 395.44 C 166.58 395.30 167.23 395.01 167.55 394.87 C 155.13 378.11 145.73 359.37 137.75 340.16 C 131.10 323.81 124.75 307.24 120.87 289.98 C 117.24 273.77 116.20 256.62 120.74 240.48 C 127.00 217.48 142.85 197.20 163.83 185.82 C 177.14 178.68 192.07 175.23 206.95 173.23 M 217.73 185.61 C 215.80 186.78 216.88 189.82 219.01 189.73 C 227.08 189.86 235.02 187.60 243.13 188.06 C 243.77 186.51 244.27 184.27 242.04 183.80 C 234.13 181.69 224.78 180.61 217.73 185.61 M 259.83 185.74 C 260.38 186.10 261.49 186.82 262.04 187.18 C 266.63 187.12 271.25 187.38 275.82 186.88 C 276.67 184.40 273.65 184.09 271.96 183.93 C 267.94 183.51 262.97 182.45 259.83 185.74 M 197.23 189.50 C 187.72 190.80 178.74 195.36 171.84 201.98 C 171.32 203.70 173.44 204.82 174.61 203.53 C 181.48 198.10 189.82 195.10 197.73 191.58 C 199.20 190.94 198.77 189.33 197.23 189.50 M 292.20 197.39 C 290.94 197.85 290.52 199.44 291.71 200.27 C 294.42 203.00 298.04 204.59 300.84 207.22 C 303.80 209.64 305.92 212.94 309.04 215.16 C 311.19 214.53 309.95 212.01 309.29 210.69 C 305.77 204.25 299.83 198.19 292.20 197.39 M 277.05 204.07 C 277.09 204.74 277.19 206.09 277.24 206.77 C 282.01 208.25 286.65 210.11 290.81 212.93 C 291.69 211.80 292.82 209.86 291.17 208.84 C 286.96 206.19 282.26 203.25 277.05 204.07 M 234.31 205.44 C 232.56 205.81 230.85 206.42 229.33 207.37 C 227.24 208.23 227.82 211.74 230.02 212.06 C 234.71 212.79 239.32 210.53 244.03 211.27 C 246.61 211.40 249.26 212.57 251.81 211.68 C 251.74 211.37 251.59 210.77 251.51 210.47 C 246.68 206.90 240.37 204.63 234.31 205.44 M 165.28 216.25 C 162.09 218.88 160.42 222.88 158.36 226.38 C 157.21 227.72 157.73 230.78 159.99 229.88 C 163.10 226.59 166.23 223.09 168.03 218.89 C 169.05 217.04 167.15 214.76 165.28 216.25 M 141.33 219.27 C 137.20 224.62 133.60 231.00 133.17 237.90 C 133.23 240.56 137.04 241.96 138.20 239.17 C 140.82 233.82 141.67 227.80 142.96 222.03 C 143.57 220.95 143.04 217.58 141.33 219.27 M 326.92 222.74 C 327.77 228.88 329.77 234.82 330.22 241.04 C 330.65 242.98 330.37 245.52 332.19 246.80 C 333.88 246.33 334.43 244.49 334.77 242.97 C 335.75 237.90 335.13 232.31 332.12 227.99 C 330.69 225.99 329.53 223.38 326.92 222.74 M 175.19 231.21 C 169.86 236.14 167.44 243.25 164.67 249.77 C 163.54 251.30 166.36 252.78 167.19 251.13 C 171.33 246.26 175.85 241.53 178.55 235.65 C 179.43 233.88 179.20 231.92 178.85 230.06 C 177.56 230.22 176.09 230.07 175.19 231.21 M 313.54 235.53 C 316.09 241.04 315.89 247.13 317.14 252.93 C 317.36 254.87 319.56 253.89 320.78 253.89 C 322.38 246.82 320.04 239.59 316.24 233.65 C 315.14 232.13 312.40 233.95 313.54 235.53 M 142.41 245.31 C 140.54 252.39 140.64 260.29 143.18 267.15 C 145.29 265.79 144.81 263.12 145.12 260.97 C 145.65 253.62 148.17 246.49 147.94 239.07 C 144.03 238.13 143.29 242.57 142.41 245.31 M 327.43 272.98 C 328.14 279.40 325.53 285.64 326.23 292.05 C 330.86 290.95 332.00 285.12 332.07 281.03 C 331.73 276.96 331.87 272.04 328.99 268.85 C 326.28 268.48 327.58 271.38 327.43 272.98 M 159.35 278.91 C 157.55 287.66 157.17 297.73 162.86 305.21 C 163.63 306.54 166.36 305.51 165.96 303.94 C 165.81 299.74 164.28 295.77 163.36 291.72 C 162.20 287.66 161.72 283.46 160.74 279.36 C 160.39 279.25 159.70 279.02 159.35 278.91 M 335.96 288.94 C 334.93 296.94 329.82 303.48 326.98 310.82 C 327.98 311.10 329.16 312.13 330.17 311.27 C 336.73 305.95 339.02 297.13 339.05 289.00 C 338.72 287.66 339.62 285.35 337.97 284.76 C 336.07 285.21 336.40 287.50 335.96 288.94 M 138.00 296.01 C 137.85 303.69 139.95 311.50 143.97 318.05 C 145.71 320.31 147.62 323.65 150.99 322.99 C 150.62 318.80 147.91 315.41 146.35 311.63 C 144.22 306.56 141.78 301.56 140.58 296.17 C 139.94 296.13 138.65 296.05 138.00 296.01 M 311.25 310.34 C 308.96 312.41 307.49 315.27 304.97 317.10 C 302.83 318.87 300.15 320.08 298.47 322.34 C 297.78 323.58 298.77 324.57 299.96 324.83 C 305.34 323.55 308.31 318.48 311.37 314.34 C 312.06 313.11 313.69 310.55 311.25 310.34 M 178.22 323.36 C 177.24 324.04 177.07 325.27 177.67 326.26 C 179.05 329.46 180.58 332.61 182.40 335.58 C 183.63 337.31 185.40 339.60 187.83 338.86 C 189.58 337.16 188.11 334.59 187.22 332.83 C 184.98 329.47 182.92 325.79 179.70 323.24 C 179.33 323.27 178.59 323.33 178.22 323.36 M 313.20 325.42 C 309.63 326.99 306.33 329.12 302.75 330.70 C 299.64 332.28 296.18 333.17 293.26 335.11 C 292.55 336.63 295.08 336.81 296.02 336.78 C 302.89 336.63 309.37 332.96 314.12 328.17 C 315.31 327.45 314.80 324.60 313.20 325.42 M 254.02 325.97 C 253.70 326.89 253.37 327.82 253.03 328.75 C 258.63 334.33 267.29 335.76 274.87 334.82 C 275.90 330.97 271.61 330.84 268.99 330.27 C 263.81 329.42 259.35 326.06 254.02 325.97 M 161.35 343.47 C 158.82 344.57 159.80 348.05 161.45 349.57 C 166.27 354.83 169.25 361.52 174.28 366.57 C 176.27 368.29 178.89 365.37 177.57 363.37 C 175.02 356.81 170.14 351.52 165.74 346.14 C 164.48 345.06 163.31 342.68 161.35 343.47 Z" />
<path fill="#fbddb3" opacity="1.00" d=" M 599.34 218.30 C 608.34 212.74 618.77 210.20 629.11 208.56 C 637.57 207.34 646.29 207.43 654.61 209.49 C 667.67 212.68 679.13 220.16 689.49 228.49 C 707.53 242.79 733.13 246.99 754.66 238.65 C 769.69 232.95 782.21 221.56 790.05 207.61 C 790.10 244.45 776.63 280.83 754.23 309.92 C 744.05 323.31 731.83 335.04 718.64 345.45 C 709.57 352.73 699.56 358.81 689.32 364.30 C 680.74 369.12 670.97 371.04 661.52 373.42 C 651.77 375.51 641.98 377.91 631.98 378.38 C 614.27 378.18 596.64 375.40 579.59 370.70 C 550.87 362.41 523.89 347.51 502.54 326.48 C 489.49 313.68 478.31 298.84 470.28 282.39 C 469.84 281.42 469.42 280.43 469.02 279.45 C 487.06 292.32 511.45 296.52 532.29 288.28 C 548.38 282.26 561.90 269.86 569.36 254.39 C 576.24 240.23 585.61 226.55 599.34 218.30 M 634.57 219.77 C 623.96 221.49 613.23 223.79 603.54 228.59 C 598.49 231.06 594.25 237.32 597.17 242.87 C 599.40 247.88 605.23 248.97 610.14 249.18 C 614.52 249.29 617.77 252.41 621.08 254.85 C 626.85 259.25 635.88 257.97 640.44 252.42 C 642.76 249.58 643.70 245.86 646.09 243.06 C 649.36 239.49 654.83 238.42 657.20 233.95 C 659.56 229.87 658.58 224.10 654.48 221.52 C 648.62 217.56 641.14 219.04 634.57 219.77 M 682.01 263.94 C 671.22 273.66 658.82 281.93 644.97 286.55 C 633.90 289.50 622.45 290.90 611.02 291.52 C 605.98 291.50 600.44 292.14 595.95 289.37 C 597.04 293.12 599.34 296.33 601.64 299.42 C 609.98 310.12 621.50 318.53 634.63 322.21 C 642.16 323.93 649.98 323.03 657.54 324.58 C 664.96 326.35 672.58 329.34 677.62 335.31 C 680.31 338.41 681.60 343.11 685.91 344.44 C 693.17 347.20 701.64 342.68 704.60 335.77 C 708.20 327.69 705.91 318.11 700.77 311.23 C 696.01 304.84 689.84 299.02 682.15 296.47 C 688.13 283.19 688.06 268.37 688.49 254.11 C 687.16 257.86 685.04 261.32 682.01 263.94 Z" />
<path fill="#fbddb3" opacity="1.00" d=" M 839.76 339.94 C 844.84 336.25 850.50 332.80 856.91 332.29 C 862.02 332.06 867.62 334.26 870.13 338.94 C 871.63 341.44 872.22 344.36 872.40 347.25 C 870.51 345.19 868.60 342.66 865.61 342.36 C 859.55 341.54 853.89 344.66 849.04 347.93 C 833.41 358.76 817.45 369.54 799.67 376.58 C 797.64 377.52 795.41 377.81 793.20 377.67 C 797.90 374.17 802.89 371.06 807.49 367.41 C 818.67 358.76 828.28 348.23 839.76 339.94 Z" />
<path fill="#fbddb3" opacity="1.00" d=" M 842.98 369.85 C 850.82 365.46 859.86 359.79 869.17 363.00 C 874.20 364.94 879.32 368.18 881.41 373.40 C 882.33 377.27 881.13 381.35 879.28 384.77 C 877.53 381.33 875.80 377.74 872.82 375.18 C 868.57 371.15 862.37 369.79 856.67 370.51 C 846.51 371.74 837.32 376.53 827.84 379.99 C 832.05 375.53 837.88 373.12 842.98 369.85 Z" />
<path fill="#fbddb3" opacity="1.00" d=" M 131.29 478.24 C 139.83 475.20 148.44 472.31 156.71 468.56 C 156.46 470.13 155.21 471.11 154.04 472.03 C 145.59 478.38 138.66 486.87 134.48 496.60 C 132.15 502.01 131.60 508.76 135.26 513.74 C 139.98 520.26 147.94 523.01 153.88 528.14 C 160.36 533.52 165.86 541.25 165.70 550.00 C 165.79 554.49 163.95 558.73 161.70 562.53 C 150.33 562.29 138.55 560.96 127.46 564.34 C 121.82 566.35 118.83 571.98 114.66 575.89 C 109.26 581.27 101.56 584.93 93.82 583.74 C 89.01 583.11 84.59 580.24 82.21 575.99 C 90.73 571.83 100.32 567.38 104.23 558.05 C 101.17 560.03 98.31 562.34 95.00 563.91 C 89.95 566.32 84.33 567.26 79.38 569.90 C 76.66 571.70 72.95 571.59 70.40 569.53 C 65.10 565.53 62.74 559.06 60.22 553.17 C 65.89 553.57 71.13 551.19 76.31 549.27 C 79.13 548.21 81.73 546.69 84.22 545.01 C 75.55 546.66 66.76 546.36 58.00 545.84 C 56.37 537.22 54.31 528.38 55.68 519.57 C 57.15 512.99 63.15 508.90 68.32 505.24 C 87.66 492.81 109.61 485.42 131.29 478.24 Z" />
<path fill="#fbddb3" opacity="1.00" d=" M 766.63 508.61 C 769.52 505.40 773.65 502.90 778.11 503.24 C 784.59 503.67 790.23 508.39 792.74 514.25 C 786.38 516.94 778.10 519.39 776.08 526.88 C 780.95 522.32 787.65 520.60 794.17 520.31 C 799.25 522.03 800.70 528.14 801.50 532.86 C 802.45 537.17 800.99 541.66 801.97 545.90 C 797.92 543.09 792.77 542.70 788.00 543.03 C 781.40 543.72 774.80 546.21 769.94 550.84 C 775.40 549.05 781.07 546.75 786.91 548.27 C 791.58 548.66 794.55 553.12 799.24 553.39 C 794.62 567.50 782.93 578.76 768.98 583.58 C 754.25 589.03 738.20 587.74 722.88 586.31 C 715.15 585.58 707.42 584.89 699.66 584.54 C 701.25 579.91 703.61 575.56 706.88 571.90 C 714.41 563.07 725.51 556.82 729.61 545.42 C 732.42 538.36 728.99 531.07 728.51 523.95 C 728.15 520.15 730.29 516.82 732.02 513.63 C 739.85 515.34 747.80 517.84 755.93 516.76 C 760.58 515.85 763.45 511.73 766.63 508.61 Z" />
</g>
<g id="#5b4b40ff">
<path fill="#5b4b40" opacity="1.00" d=" M 673.44 178.45 C 685.34 171.44 701.70 169.13 713.64 177.25 C 715.73 178.90 717.23 181.14 718.50 183.47 C 715.35 182.83 712.19 182.03 708.96 182.11 C 696.90 182.37 684.88 184.28 673.27 187.52 C 672.40 189.20 674.78 189.48 675.78 190.19 C 683.50 193.29 691.81 194.66 700.06 195.50 C 692.23 196.45 684.24 195.87 676.50 194.42 C 673.49 193.68 670.21 193.21 667.68 191.29 C 666.29 189.65 667.81 187.55 668.31 185.87 C 669.44 183.07 670.54 179.91 673.44 178.45 Z" />
<path fill="#5b4b40" opacity="1.00" d=" M 548.11 200.06 C 552.18 195.84 558.90 194.60 564.36 196.49 C 567.98 197.77 570.08 201.40 570.48 205.07 C 570.66 211.45 564.82 215.87 559.05 216.94 C 555.50 218.07 551.70 216.53 549.37 213.77 C 546.46 209.97 544.70 204.10 548.11 200.06 M 558.13 198.25 C 555.65 199.03 556.84 201.55 558.66 202.25 C 560.92 203.16 561.99 207.85 564.79 205.83 C 567.13 202.02 562.18 196.63 558.13 198.25 Z" />
<path fill="#5b4b40" opacity="1.00" d=" M 634.57 219.77 C 641.14 219.04 648.62 217.56 654.48 221.52 C 658.58 224.10 659.56 229.87 657.20 233.95 C 654.83 238.42 649.36 239.49 646.09 243.06 C 643.70 245.86 642.76 249.58 640.44 252.42 C 635.88 257.97 626.85 259.25 621.08 254.85 C 617.77 252.41 614.52 249.29 610.14 249.18 C 605.23 248.97 599.40 247.88 597.17 242.87 C 594.25 237.32 598.49 231.06 603.54 228.59 C 613.23 223.79 623.96 221.49 634.57 219.77 Z" />
<path fill="#5b4b40" opacity="1.00" d=" M 682.01 263.94 C 685.04 261.32 687.16 257.86 688.49 254.11 C 688.06 268.37 688.13 283.19 682.15 296.47 C 675.19 294.33 667.09 297.06 663.58 303.59 C 654.55 302.86 645.11 305.27 638.01 310.98 C 634.61 313.66 633.62 318.14 634.63 322.21 C 621.50 318.53 609.98 310.12 601.64 299.42 C 599.34 296.33 597.04 293.12 595.95 289.37 C 600.44 292.14 605.98 291.50 611.02 291.52 C 622.45 290.90 633.90 289.50 644.97 286.55 C 658.82 281.93 671.22 273.66 682.01 263.94 Z" />
</g>
<g id="#faebd4ff">
<path fill="#faebd4" opacity="1.00" d=" M 217.73 185.61 C 224.78 180.61 234.13 181.69 242.04 183.80 C 244.27 184.27 243.77 186.51 243.13 188.06 C 235.02 187.60 227.08 189.86 219.01 189.73 C 216.88 189.82 215.80 186.78 217.73 185.61 Z" />
<path fill="#faebd4" opacity="1.00" d=" M 259.83 185.74 C 262.97 182.45 267.94 183.51 271.96 183.93 C 273.65 184.09 276.67 184.40 275.82 186.88 C 271.25 187.38 266.63 187.12 262.04 187.18 C 261.49 186.82 260.38 186.10 259.83 185.74 Z" />
<path fill="#faebd4" opacity="1.00" d=" M 197.23 189.50 C 198.77 189.33 199.20 190.94 197.73 191.58 C 189.82 195.10 181.48 198.10 174.61 203.53 C 173.44 204.82 171.32 203.70 171.84 201.98 C 178.74 195.36 187.72 190.80 197.23 189.50 Z" />
<path fill="#faebd4" opacity="1.00" d=" M 292.20 197.39 C 299.83 198.19 305.77 204.25 309.29 210.69 C 309.95 212.01 311.19 214.53 309.04 215.16 C 305.92 212.94 303.80 209.64 300.84 207.22 C 298.04 204.59 294.42 203.00 291.71 200.27 C 290.52 199.44 290.94 197.85 292.20 197.39 Z" />
<path fill="#faebd4" opacity="1.00" d=" M 277.05 204.07 C 282.26 203.25 286.96 206.19 291.17 208.84 C 292.82 209.86 291.69 211.80 290.81 212.93 C 286.65 210.11 282.01 208.25 277.24 206.77 C 277.19 206.09 277.09 204.74 277.05 204.07 Z" />
<path fill="#faebd4" opacity="1.00" d=" M 234.31 205.44 C 240.37 204.63 246.68 206.90 251.51 210.47 C 251.59 210.77 251.74 211.37 251.81 211.68 C 249.26 212.57 246.61 211.40 244.03 211.27 C 239.32 210.53 234.71 212.79 230.02 212.06 C 227.82 211.74 227.24 208.23 229.33 207.37 C 230.85 206.42 232.56 205.81 234.31 205.44 Z" />
<path fill="#faebd4" opacity="1.00" d=" M 165.28 216.25 C 167.15 214.76 169.05 217.04 168.03 218.89 C 166.23 223.09 163.10 226.59 159.99 229.88 C 157.73 230.78 157.21 227.72 158.36 226.38 C 160.42 222.88 162.09 218.88 165.28 216.25 Z" />
<path fill="#faebd4" opacity="1.00" d=" M 141.33 219.27 C 143.04 217.58 143.57 220.95 142.96 222.03 C 141.67 227.80 140.82 233.82 138.20 239.17 C 137.04 241.96 133.23 240.56 133.17 237.90 C 133.60 231.00 137.20 224.62 141.33 219.27 Z" />
<path fill="#faebd4" opacity="1.00" d=" M 326.92 222.74 C 329.53 223.38 330.69 225.99 332.12 227.99 C 335.13 232.31 335.75 237.90 334.77 242.97 C 334.43 244.49 333.88 246.33 332.19 246.80 C 330.37 245.52 330.65 242.98 330.22 241.04 C 329.77 234.82 327.77 228.88 326.92 222.74 Z" />
<path fill="#faebd4" opacity="1.00" d=" M 175.19 231.21 C 176.09 230.07 177.56 230.22 178.85 230.06 C 179.20 231.92 179.43 233.88 178.55 235.65 C 175.85 241.53 171.33 246.26 167.19 251.13 C 166.36 252.78 163.54 251.30 164.67 249.77 C 167.44 243.25 169.86 236.14 175.19 231.21 Z" />
<path fill="#faebd4" opacity="1.00" d=" M 313.54 235.53 C 312.40 233.95 315.14 232.13 316.24 233.65 C 320.04 239.59 322.38 246.82 320.78 253.89 C 319.56 253.89 317.36 254.87 317.14 252.93 C 315.89 247.13 316.09 241.04 313.54 235.53 Z" />
<path fill="#faebd4" opacity="1.00" d=" M 142.41 245.31 C 143.29 242.57 144.03 238.13 147.94 239.07 C 148.17 246.49 145.65 253.62 145.12 260.97 C 144.81 263.12 145.29 265.79 143.18 267.15 C 140.64 260.29 140.54 252.39 142.41 245.31 Z" />
<path fill="#faebd4" opacity="1.00" d=" M 327.43 272.98 C 327.58 271.38 326.28 268.48 328.99 268.85 C 331.87 272.04 331.73 276.96 332.07 281.03 C 332.00 285.12 330.86 290.95 326.23 292.05 C 325.53 285.64 328.14 279.40 327.43 272.98 Z" />
<path fill="#faebd4" opacity="1.00" d=" M 159.35 278.91 C 159.70 279.02 160.39 279.25 160.74 279.36 C 161.72 283.46 162.20 287.66 163.36 291.72 C 164.28 295.77 165.81 299.74 165.96 303.94 C 166.36 305.51 163.63 306.54 162.86 305.21 C 157.17 297.73 157.55 287.66 159.35 278.91 Z" />
<path fill="#faebd4" opacity="1.00" d=" M 335.96 288.94 C 336.40 287.50 336.07 285.21 337.97 284.76 C 339.62 285.35 338.72 287.66 339.05 289.00 C 339.02 297.13 336.73 305.95 330.17 311.27 C 329.16 312.13 327.98 311.10 326.98 310.82 C 329.82 303.48 334.93 296.94 335.96 288.94 Z" />
<path fill="#faebd4" opacity="1.00" d=" M 138.00 296.01 C 138.65 296.05 139.94 296.13 140.58 296.17 C 141.78 301.56 144.22 306.56 146.35 311.63 C 147.91 315.41 150.62 318.80 150.99 322.99 C 147.62 323.65 145.71 320.31 143.97 318.05 C 139.95 311.50 137.85 303.69 138.00 296.01 Z" />
<path fill="#faebd4" opacity="1.00" d=" M 311.25 310.34 C 313.69 310.55 312.06 313.11 311.37 314.34 C 308.31 318.48 305.34 323.55 299.96 324.83 C 298.77 324.57 297.78 323.58 298.47 322.34 C 300.15 320.08 302.83 318.87 304.97 317.10 C 307.49 315.27 308.96 312.41 311.25 310.34 Z" />
<path fill="#faebd4" opacity="1.00" d=" M 178.22 323.36 C 178.59 323.33 179.33 323.27 179.70 323.24 C 182.92 325.79 184.98 329.47 187.22 332.83 C 188.11 334.59 189.58 337.16 187.83 338.86 C 185.40 339.60 183.63 337.31 182.40 335.58 C 180.58 332.61 179.05 329.46 177.67 326.26 C 177.07 325.27 177.24 324.04 178.22 323.36 Z" />
<path fill="#faebd4" opacity="1.00" d=" M 313.20 325.42 C 314.80 324.60 315.31 327.45 314.12 328.17 C 309.37 332.96 302.89 336.63 296.02 336.78 C 295.08 336.81 292.55 336.63 293.26 335.11 C 296.18 333.17 299.64 332.28 302.75 330.70 C 306.33 329.12 309.63 326.99 313.20 325.42 Z" />
<path fill="#faebd4" opacity="1.00" d=" M 254.02 325.97 C 259.35 326.06 263.81 329.42 268.99 330.27 C 271.61 330.84 275.90 330.97 274.87 334.82 C 267.29 335.76 258.63 334.33 253.03 328.75 C 253.37 327.82 253.70 326.89 254.02 325.97 Z" />
<path fill="#faebd4" opacity="1.00" d=" M 161.35 343.47 C 163.31 342.68 164.48 345.06 165.74 346.14 C 170.14 351.52 175.02 356.81 177.57 363.37 C 178.89 365.37 176.27 368.29 174.28 366.57 C 169.25 361.52 166.27 354.83 161.45 349.57 C 159.80 348.05 158.82 344.57 161.35 343.47 Z" />
</g>
<g id="#ffffffff">
<path fill="#ffffff" opacity="1.00" d=" M 558.13 198.25 C 562.18 196.63 567.13 202.02 564.79 205.83 C 561.99 207.85 560.92 203.16 558.66 202.25 C 556.84 201.55 555.65 199.03 558.13 198.25 Z" />
</g>
<g id="#e75952ff">
<path fill="#e75952" opacity="1.00" d=" M 424.32 287.29 C 425.11 285.65 425.93 284.01 426.75 282.38 C 441.16 284.54 455.87 284.50 470.28 282.39 C 478.31 298.84 489.49 313.68 502.54 326.48 C 523.89 347.51 550.87 362.41 579.59 370.70 C 580.66 371.84 581.71 373.02 582.97 373.99 C 599.33 385.72 619.09 392.14 639.03 394.01 C 659.84 396.23 681.23 392.93 700.40 384.52 C 706.01 382.06 711.56 379.18 716.14 375.06 C 719.36 372.33 720.33 368.05 722.25 364.46 C 724.54 375.54 725.60 386.85 726.13 398.14 C 726.91 416.83 725.45 435.62 721.64 453.93 C 720.70 458.30 720.07 462.71 719.44 467.13 C 719.18 466.89 718.67 466.40 718.41 466.16 C 715.16 474.31 709.19 481.37 701.36 485.43 C 694.30 489.15 686.46 490.89 678.78 492.79 C 670.53 488.66 662.12 484.77 654.32 479.82 C 658.53 478.84 662.79 478.14 667.09 477.64 C 656.71 468.86 647.53 458.78 637.81 449.29 C 631.29 441.45 624.09 434.16 616.25 427.64 C 606.85 418.27 595.89 410.70 585.46 402.55 C 567.06 389.36 547.78 376.32 525.62 370.44 C 513.88 368.50 502.08 371.52 490.90 374.90 C 475.53 379.28 462.77 391.82 458.28 407.18 C 456.56 411.97 456.00 417.03 455.47 422.06 L 454.67 420.89 C 450.83 429.77 449.79 439.53 449.43 449.11 C 449.24 467.64 453.11 485.93 458.38 503.60 C 459.47 506.75 460.49 509.93 461.19 513.20 C 454.31 513.21 447.75 510.95 441.38 508.61 C 433.07 505.61 425.57 500.74 418.56 495.44 C 412.38 490.33 406.05 485.23 401.26 478.74 C 399.93 477.16 400.26 474.95 400.14 473.05 C 400.51 453.27 402.66 433.54 406.35 414.11 C 412.08 384.25 418.48 353.71 434.20 327.26 C 439.17 319.87 443.18 311.90 447.10 303.91 C 444.02 306.20 441.41 309.02 438.99 311.98 C 423.87 329.21 413.76 350.58 409.12 372.98 C 404.51 395.03 401.49 417.38 398.57 439.71 C 397.17 449.91 396.73 460.25 395.03 470.41 C 393.61 469.00 392.24 467.54 391.22 465.82 C 386.57 458.46 382.44 450.74 379.32 442.61 C 378.72 441.17 377.98 439.81 377.22 438.47 C 378.10 422.16 380.30 405.89 384.20 390.02 C 392.84 354.11 408.61 320.53 424.32 287.29 M 713.46 385.47 C 701.69 395.27 688.90 405.63 673.12 407.39 C 653.94 409.68 634.85 404.07 617.41 396.54 C 612.42 394.71 608.05 391.46 602.91 390.04 C 605.15 393.16 608.31 395.40 611.43 397.58 C 627.48 408.92 647.53 413.40 666.96 413.29 C 678.99 413.53 691.61 412.34 702.22 406.21 C 712.54 399.38 720.15 388.11 721.91 375.82 C 718.97 378.94 717.03 382.95 713.46 385.47 Z" />
<path fill="#e75952" opacity="1.00" d=" M 663.58 303.59 C 667.09 297.06 675.19 294.33 682.15 296.47 C 689.84 299.02 696.01 304.84 700.77 311.23 C 705.91 318.11 708.20 327.69 704.60 335.77 C 701.64 342.68 693.17 347.20 685.91 344.44 C 681.60 343.11 680.31 338.41 677.62 335.31 C 672.58 329.34 664.96 326.35 657.54 324.58 C 649.98 323.03 642.16 323.93 634.63 322.21 C 633.62 318.14 634.61 313.66 638.01 310.98 C 645.11 305.27 654.55 302.86 663.58 303.59 Z" />
</g>
<g id="#cb4848ff">
<path fill="#cb4848" opacity="1.00" d=" M 438.99 311.98 C 441.41 309.02 444.02 306.20 447.10 303.91 C 443.18 311.90 439.17 319.87 434.20 327.26 C 418.48 353.71 412.08 384.25 406.35 414.11 C 402.66 433.54 400.51 453.27 400.14 473.05 C 400.26 474.95 399.93 477.16 401.26 478.74 C 406.05 485.23 412.38 490.33 418.56 495.44 C 425.57 500.74 433.07 505.61 441.38 508.61 C 447.75 510.95 454.31 513.21 461.19 513.20 C 460.49 509.93 459.47 506.75 458.38 503.60 C 453.11 485.93 449.24 467.64 449.43 449.11 C 449.79 439.53 450.83 429.77 454.67 420.89 L 455.47 422.06 C 453.97 431.67 454.78 441.49 456.26 451.06 C 458.62 466.92 463.63 482.29 469.89 497.02 C 473.89 506.56 478.69 515.83 484.91 524.13 C 491.57 532.53 497.39 541.55 503.80 550.14 C 506.88 554.17 509.68 558.47 513.50 561.88 C 519.48 542.96 529.32 525.25 542.05 510.04 C 549.69 501.32 557.69 492.33 568.29 487.17 C 570.47 485.98 572.87 485.29 575.31 484.88 C 571.14 489.25 565.93 492.46 561.81 496.88 C 542.01 517.25 530.45 543.96 522.30 570.79 C 525.27 572.48 528.24 575.86 531.68 575.70 C 537.25 562.84 543.20 550.13 549.64 537.67 C 560.20 517.16 573.88 497.14 593.94 484.91 C 600.52 481.06 607.45 477.30 615.07 476.10 C 609.30 479.72 602.92 482.31 597.40 486.34 C 572.18 503.06 555.23 530.05 546.63 558.69 C 544.39 565.96 542.73 573.40 541.30 580.87 C 547.11 582.86 553.26 584.06 559.43 583.59 C 559.54 582.96 559.78 581.71 559.89 581.08 C 574.56 583.08 589.26 584.93 604.05 585.78 C 602.39 585.71 600.70 585.59 599.11 586.15 C 533.80 606.78 462.63 604.43 397.19 585.56 C 395.94 582.14 394.99 578.63 393.98 575.14 C 392.05 568.46 390.19 561.76 388.46 555.03 C 381.84 529.05 377.09 502.51 375.92 475.68 C 375.82 468.37 375.72 461.06 375.90 453.76 C 376.34 448.66 376.57 443.55 377.22 438.47 C 377.98 439.81 378.72 441.17 379.32 442.61 C 382.44 450.74 386.57 458.46 391.22 465.82 C 392.24 467.54 393.61 469.00 395.03 470.41 C 396.73 460.25 397.17 449.91 398.57 439.71 C 401.49 417.38 404.51 395.03 409.12 372.98 C 413.76 350.58 423.87 329.21 438.99 311.98 Z" />
<path fill="#cb4848" opacity="1.00" d=" M 689.32 364.30 C 699.56 358.81 709.57 352.73 718.64 345.45 C 721.27 351.46 721.67 358.03 722.25 364.46 C 720.33 368.05 719.36 372.33 716.14 375.06 C 711.56 379.18 706.01 382.06 700.40 384.52 C 681.23 392.93 659.84 396.23 639.03 394.01 C 619.09 392.14 599.33 385.72 582.97 373.99 C 581.71 373.02 580.66 371.84 579.59 370.70 C 596.64 375.40 614.27 378.18 631.98 378.38 C 641.98 377.91 651.77 375.51 661.52 373.42 C 670.97 371.04 680.74 369.12 689.32 364.30 Z" />
<path fill="#cb4848" opacity="1.00" d=" M 713.46 385.47 C 717.03 382.95 718.97 378.94 721.91 375.82 C 720.15 388.11 712.54 399.38 702.22 406.21 C 691.61 412.34 678.99 413.53 666.96 413.29 C 647.53 413.40 627.48 408.92 611.43 397.58 C 608.31 395.40 605.15 393.16 602.91 390.04 C 608.05 391.46 612.42 394.71 617.41 396.54 C 634.85 404.07 653.94 409.68 673.12 407.39 C 688.90 405.63 701.69 395.27 713.46 385.47 Z" />
<path fill="#cb4848" opacity="1.00" d=" M 718.41 466.16 C 718.67 466.40 719.18 466.89 719.44 467.13 C 718.19 475.65 716.55 484.11 714.71 492.52 C 713.56 497.34 712.20 502.11 710.69 506.83 C 699.82 502.70 689.18 497.96 678.78 492.79 C 686.46 490.89 694.30 489.15 701.36 485.43 C 709.19 481.37 715.16 474.31 718.41 466.16 Z" />
</g>
<g id="#fbe1a9ff">
<path fill="#fbe1a9" opacity="1.00" d=" M 248.27 310.21 C 249.54 309.36 250.34 309.56 250.68 310.80 C 249.41 311.64 248.60 311.45 248.27 310.21 Z" />
</g>
<g id="#f4c79eff">
<path fill="#f4c79e" opacity="1.00" d=" M 849.04 347.93 C 853.89 344.66 859.55 341.54 865.61 342.36 C 868.60 342.66 870.51 345.19 872.40 347.25 C 872.86 352.69 872.33 358.36 869.17 363.00 C 859.86 359.79 850.82 365.46 842.98 369.85 C 837.88 373.12 832.05 375.53 827.84 379.99 C 837.32 376.53 846.51 371.74 856.67 370.51 C 862.37 369.79 868.57 371.15 872.82 375.18 C 875.80 377.74 877.53 381.33 879.28 384.77 C 876.17 388.62 871.97 391.32 867.82 393.89 C 872.37 400.13 871.54 408.95 867.15 415.03 C 862.42 421.83 855.08 426.00 848.15 430.19 C 829.90 441.14 811.16 451.24 792.19 460.88 C 784.44 452.94 777.09 444.56 768.46 437.54 C 764.09 433.95 759.25 430.63 756.27 425.71 C 753.96 422.05 753.87 417.28 755.67 413.40 C 758.85 406.68 765.77 402.58 768.69 395.69 C 769.83 393.22 769.63 390.44 769.76 387.80 C 774.54 385.97 779.18 383.81 783.92 381.89 C 787.04 380.61 790.35 379.67 793.12 377.67 L 793.20 377.67 C 795.41 377.81 797.64 377.52 799.67 376.58 C 817.45 369.54 833.41 358.76 849.04 347.93 Z" />
<path fill="#f4c79e" opacity="1.00" d=" M 90.65 389.72 C 99.26 384.51 109.95 385.17 119.52 386.63 C 130.65 388.59 141.67 391.14 152.90 392.48 C 158.86 401.85 163.87 412.67 162.98 424.04 C 162.77 429.41 159.22 434.03 154.85 436.88 C 146.77 442.42 136.36 442.78 128.22 448.21 C 123.62 451.23 120.74 456.08 116.65 459.66 C 114.33 461.76 111.61 463.31 108.91 464.85 C 101.04 460.06 92.38 455.70 82.95 455.68 C 76.42 455.65 69.77 458.95 63.35 456.51 C 55.43 453.19 52.10 443.43 53.63 435.44 C 55.43 426.45 61.95 419.47 68.56 413.56 C 76.85 406.50 82.17 396.58 90.65 389.72 Z" />
<path fill="#f4c79e" opacity="1.00" d=" M 792.74 514.25 L 792.84 514.21 C 793.63 516.15 794.31 518.17 794.17 520.31 C 787.65 520.60 780.95 522.32 776.08 526.88 C 778.10 519.39 786.38 516.94 792.74 514.25 Z" />
<path fill="#f4c79e" opacity="1.00" d=" M 769.94 550.84 C 774.80 546.21 781.40 543.72 788.00 543.03 C 792.77 542.70 797.92 543.09 801.97 545.90 C 801.76 548.61 800.85 551.19 799.24 553.39 C 794.55 553.12 791.58 548.66 786.91 548.27 C 781.07 546.75 775.40 549.05 769.94 550.84 Z" />
<path fill="#f4c79e" opacity="1.00" d=" M 58.00 545.84 C 66.76 546.36 75.55 546.66 84.22 545.01 C 81.73 546.69 79.13 548.21 76.31 549.27 C 71.13 551.19 65.89 553.57 60.22 553.17 C 59.01 550.89 58.51 548.34 58.00 545.84 Z" />
<path fill="#f4c79e" opacity="1.00" d=" M 95.00 563.91 C 98.31 562.34 101.17 560.03 104.23 558.05 C 100.32 567.38 90.73 571.83 82.21 575.99 C 80.53 574.34 79.74 572.17 79.38 569.90 C 84.33 567.26 89.95 566.32 95.00 563.91 Z" />
</g>
<g id="#ea665aff">
<path fill="#ea665a" opacity="1.00" d=" M 490.90 374.90 C 502.08 371.52 513.88 368.50 525.62 370.44 C 547.78 376.32 567.06 389.36 585.46 402.55 C 595.89 410.70 606.85 418.27 616.25 427.64 C 624.09 434.16 631.29 441.45 637.81 449.29 C 647.53 458.78 656.71 468.86 667.09 477.64 C 662.79 478.14 658.53 478.84 654.32 479.82 C 643.78 481.75 633.54 485.48 624.30 490.92 C 610.56 498.31 598.82 509.03 588.77 520.87 C 574.41 538.14 563.92 558.91 559.89 581.08 C 559.78 581.71 559.54 582.96 559.43 583.59 C 553.26 584.06 547.11 582.86 541.30 580.87 C 542.73 573.40 544.39 565.96 546.63 558.69 C 555.23 530.05 572.18 503.06 597.40 486.34 C 602.92 482.31 609.30 479.72 615.07 476.10 C 607.45 477.30 600.52 481.06 593.94 484.91 C 573.88 497.14 560.20 517.16 549.64 537.67 C 543.20 550.13 537.25 562.84 531.68 575.70 C 528.24 575.86 525.27 572.48 522.30 570.79 C 530.45 543.96 542.01 517.25 561.81 496.88 C 565.93 492.46 571.14 489.25 575.31 484.88 C 572.87 485.29 570.47 485.98 568.29 487.17 C 557.69 492.33 549.69 501.32 542.05 510.04 C 529.32 525.25 519.48 542.96 513.50 561.88 C 509.68 558.47 506.88 554.17 503.80 550.14 C 497.39 541.55 491.57 532.53 484.91 524.13 C 478.69 515.83 473.89 506.56 469.89 497.02 C 463.63 482.29 458.62 466.92 456.26 451.06 C 454.78 441.49 453.97 431.67 455.47 422.06 C 456.00 417.03 456.56 411.97 458.28 407.18 C 462.77 391.82 475.53 379.28 490.90 374.90 Z" />
</g>
</svg>
