<?xml version="1.0" encoding="UTF-8" ?>
<!DOCTYPE svg PUBLIC "-//W3C//DTD SVG 1.1//EN" "http://www.w3.org/Graphics/SVG/1.1/DTD/svg11.dtd">
<svg width="950pt" height="787pt" viewBox="0 0 950 787" version="1.1" xmlns="http://www.w3.org/2000/svg">
<g id="#fbddb3ff">
<path fill="#fbddb3" opacity="1.00" d=" M 662.86 49.46 C 678.10 47.20 693.58 46.82 708.96 47.60 C 726.36 48.44 744.18 51.44 759.47 60.26 C 778.94 71.32 793.93 89.99 800.42 111.43 C 806.01 129.99 804.63 149.83 800.87 168.60 C 796.94 187.45 791.54 206.01 784.64 223.98 C 779.98 235.73 774.77 247.35 767.76 257.91 C 758.67 242.86 748.41 228.44 736.46 215.52 C 730.62 209.76 725.38 203.38 719.00 198.20 C 728.96 196.15 737.97 189.84 742.83 180.83 C 748.86 170.64 748.51 158.42 749.08 146.99 C 749.48 137.25 746.45 127.34 739.94 119.99 C 720.16 97.14 686.30 86.85 657.43 96.52 C 630.18 105.41 611.37 134.79 614.75 163.25 C 616.26 174.94 621.57 186.59 630.96 194.00 C 641.00 201.76 654.75 203.82 666.91 200.69 C 678.53 197.71 688.69 190.36 696.29 181.20 C 697.38 179.84 698.42 178.43 699.48 177.03 C 704.33 180.49 706.64 186.74 705.43 192.55 C 703.39 202.72 696.26 211.03 688.52 217.55 C 678.40 226.16 665.04 229.66 652.06 230.77 C 638.23 231.90 623.62 230.56 611.41 223.48 C 592.88 213.10 580.77 193.57 576.71 173.04 C 572.22 151.11 573.90 127.81 582.44 107.05 C 588.88 91.09 599.77 76.74 614.17 67.16 C 628.63 57.33 645.69 52.02 662.86 49.46 M 675.71 60.67 C 673.41 62.11 670.19 63.17 669.68 66.21 C 674.24 65.86 678.51 64.10 682.97 63.25 C 686.03 62.69 689.02 61.86 691.94 60.79 C 691.76 59.55 692.27 57.79 690.64 57.41 C 685.48 56.25 680.27 58.42 675.71 60.67 M 639.86 65.22 C 640.37 69.11 644.41 67.08 647.02 67.14 C 649.97 66.66 653.48 67.51 655.76 65.07 C 654.67 64.14 653.64 62.83 652.04 63.06 C 647.88 62.97 643.82 64.07 639.86 65.22 M 717.06 63.07 C 717.09 63.47 717.15 64.29 717.17 64.69 C 724.28 67.14 731.75 68.77 738.31 72.62 C 740.43 73.51 743.41 76.28 745.10 73.33 C 743.09 71.45 740.87 69.82 738.39 68.65 C 731.85 65.22 724.59 62.24 717.06 63.07 M 681.03 78.22 C 679.87 78.65 679.61 80.05 678.93 80.93 C 681.13 82.21 683.65 81.54 686.03 81.34 C 694.00 80.51 701.98 81.52 709.95 81.65 C 711.84 81.93 712.76 78.69 711.00 77.97 C 701.68 73.22 690.49 74.65 681.03 78.22 M 638.40 84.46 C 633.87 85.47 629.58 87.95 626.44 91.37 C 625.22 92.52 627.42 94.45 628.69 93.66 C 631.72 92.06 634.52 90.03 637.67 88.62 C 638.86 87.86 640.60 87.43 641.08 85.94 C 640.78 84.67 639.61 84.05 638.40 84.46 M 750.20 86.10 C 748.44 87.24 749.53 89.32 750.50 90.58 C 752.49 93.17 754.83 95.49 757.16 97.78 C 758.07 98.93 759.50 99.31 760.92 98.94 C 761.28 95.54 758.06 93.25 756.47 90.56 C 754.79 88.69 753.22 85.24 750.20 86.10 M 599.18 95.28 C 595.57 99.58 595.24 105.63 594.99 111.01 C 595.10 114.55 594.61 118.38 596.29 121.65 C 597.30 121.95 598.12 121.67 598.75 120.81 C 599.50 117.26 599.25 113.59 599.85 110.01 C 600.41 105.01 602.57 100.21 601.96 95.10 C 601.27 95.14 599.87 95.23 599.18 95.28 M 739.94 104.08 C 742.14 109.96 746.85 114.41 751.22 118.74 C 752.53 120.13 754.09 121.26 755.84 122.06 C 755.82 120.64 756.02 119.10 755.19 117.85 C 751.95 112.04 749.12 105.46 743.44 101.61 C 741.89 100.06 739.14 102.12 739.94 104.08 M 771.30 108.03 C 773.07 116.64 775.86 125.01 777.51 133.65 C 777.88 133.73 778.62 133.89 778.98 133.97 C 781.15 125.79 779.79 116.50 775.95 108.98 C 775.21 106.85 772.85 106.68 771.30 108.03 M 609.64 119.57 C 606.54 125.28 607.60 132.36 609.39 138.34 C 610.65 135.76 610.27 132.81 610.75 130.06 C 611.23 125.92 613.38 122.11 613.19 117.87 C 611.90 118.21 610.16 118.02 609.64 119.57 M 596.39 136.31 C 593.68 143.11 593.55 150.69 595.44 157.72 C 595.61 158.96 596.58 159.72 597.73 160.07 C 597.88 152.08 598.24 144.12 598.83 136.15 C 598.22 136.19 597.00 136.27 596.39 136.31 M 767.03 162.97 C 766.49 167.73 767.43 172.54 768.84 177.08 C 769.05 178.16 769.71 178.83 770.80 179.11 C 770.36 172.66 770.85 165.93 768.90 159.72 C 768.01 160.63 766.96 161.57 767.03 162.97 M 781.08 169.98 C 780.73 174.35 781.62 178.69 782.33 182.99 C 782.79 185.43 782.94 188.08 784.53 190.12 C 785.04 184.09 785.27 178.02 784.87 171.99 C 784.82 170.07 783.77 168.44 782.84 166.85 C 782.01 167.73 780.96 168.62 781.08 169.98 M 590.88 183.65 C 591.70 194.05 597.98 203.74 606.69 209.34 C 609.22 210.63 611.93 212.56 614.92 211.90 C 615.00 210.53 614.08 209.60 613.08 208.84 C 605.32 202.61 598.13 195.29 593.71 186.27 C 593.13 185.04 592.26 183.98 590.88 183.65 M 745.76 194.76 C 744.55 196.54 743.36 198.35 742.69 200.41 C 743.90 199.84 745.26 199.34 746.10 198.20 C 748.73 194.99 752.15 191.31 750.92 186.78 C 748.54 188.97 747.55 192.14 745.76 194.76 M 616.15 197.83 C 620.17 203.98 626.49 209.07 634.00 209.85 C 636.23 209.98 639.80 210.54 640.08 207.44 C 635.55 206.31 630.99 205.18 626.74 203.22 C 622.59 201.31 619.19 198.21 615.50 195.59 C 615.55 196.39 615.76 197.14 616.15 197.83 M 762.18 201.20 C 757.25 205.51 755.09 211.94 753.12 217.97 C 757.93 213.73 762.92 208.62 764.19 202.12 C 763.69 201.89 762.68 201.43 762.18 201.20 M 671.32 206.60 C 671.30 207.19 671.25 208.36 671.23 208.95 C 673.66 208.46 676.53 208.30 678.22 206.21 C 679.09 205.29 679.84 203.00 677.95 202.70 C 675.69 203.93 673.62 205.46 671.32 206.60 M 776.27 210.40 C 771.86 216.05 769.69 223.00 766.36 229.27 C 765.51 230.80 765.14 232.52 764.95 234.25 C 768.02 231.80 769.96 228.32 772.22 225.18 C 775.27 220.57 778.37 215.65 778.97 210.02 C 778.30 210.12 776.95 210.31 776.27 210.40 M 638.85 213.33 C 639.13 214.58 640.10 215.39 641.37 215.56 C 646.10 216.59 651.14 217.14 655.87 215.79 C 658.24 215.09 661.37 214.16 661.04 211.07 C 653.60 211.59 646.38 214.03 638.85 213.33 Z" />
<path fill="#fbddb3" opacity="1.00" d=" M 361.68 320.68 C 363.40 317.64 365.49 314.32 368.97 313.14 C 371.96 312.14 375.21 313.64 377.16 315.94 C 379.81 319.02 380.46 323.18 381.20 327.06 C 382.79 336.39 384.36 345.74 385.22 355.18 C 372.78 351.79 359.90 350.16 347.01 350.15 C 351.62 340.19 356.49 330.35 361.68 320.68 Z" />
<path fill="#fbddb3" opacity="1.00" d=" M 338.75 375.94 C 339.45 373.23 342.51 372.21 344.97 371.86 C 350.35 371.57 356.39 373.83 358.98 378.83 C 354.35 382.58 348.15 380.03 342.88 379.62 C 340.80 379.63 338.70 378.19 338.75 375.94 Z" />
<path fill="#fbddb3" opacity="1.00" d=" M 155.97 380.98 C 159.61 377.26 165.50 378.22 169.72 380.33 C 180.15 385.44 190.34 391.06 200.28 397.06 C 190.43 406.12 181.52 416.22 174.44 427.59 C 174.21 427.63 173.76 427.72 173.54 427.76 C 167.03 416.84 161.67 405.26 156.23 393.78 C 154.46 389.87 152.72 384.59 155.97 380.98 Z" />
<path fill="#fbddb3" opacity="1.00" d=" M 209.36 413.59 C 212.48 411.77 216.80 414.08 215.83 417.89 C 214.06 423.38 209.36 427.95 203.97 429.95 C 202.44 430.81 199.68 430.08 200.20 427.93 C 201.05 422.28 203.25 415.42 209.36 413.59 Z" />
<path fill="#fbddb3" opacity="1.00" d=" M 440.41 474.53 C 455.53 467.50 467.77 454.78 474.64 439.64 C 477.32 477.64 466.22 516.01 445.42 547.74 C 437.54 559.50 428.60 570.59 418.42 580.43 C 412.81 585.51 409.29 592.45 406.43 599.34 C 404.18 607.18 402.66 615.37 398.61 622.57 C 398.17 623.60 397.85 624.70 397.35 625.72 C 396.93 625.40 396.10 624.78 395.68 624.46 C 374.67 628.62 353.28 630.85 331.87 631.15 C 320.91 631.34 309.95 630.63 299.08 629.24 C 293.97 628.67 289.12 626.82 284.05 626.02 C 254.84 621.87 226.14 611.80 201.82 594.92 C 179.97 579.71 160.83 560.12 148.00 536.66 C 161.65 545.02 178.00 549.09 193.96 547.13 C 214.59 544.72 233.66 532.21 244.48 514.54 C 247.38 509.84 249.53 504.73 251.73 499.68 C 256.37 488.81 262.69 478.47 271.35 470.34 C 282.24 460.09 296.71 454.76 311.09 451.65 C 324.87 448.82 339.36 451.07 352.05 456.99 C 360.16 460.41 367.30 465.63 374.68 470.34 C 394.05 482.58 419.66 484.29 440.41 474.53 M 322.46 462.24 C 311.15 463.83 300.09 467.08 289.61 471.58 C 284.64 473.80 279.16 476.65 277.16 482.08 C 275.42 486.33 277.48 491.37 281.33 493.66 C 285.82 496.64 291.52 494.65 296.35 496.49 C 300.05 498.03 302.92 501.14 306.79 502.33 C 308.89 502.92 311.09 502.90 313.25 503.09 C 315.76 511.37 315.36 520.63 311.31 528.37 C 308.01 535.36 301.72 540.28 295.28 544.24 C 285.92 548.57 275.38 549.05 265.23 549.31 C 266.66 554.72 269.25 559.83 272.98 564.04 C 281.76 573.99 294.33 579.39 306.53 583.89 C 319.16 588.28 333.13 588.84 345.97 584.96 C 360.80 580.66 374.03 570.81 381.94 557.48 C 390.22 543.31 393.04 526.03 389.25 510.02 C 386.07 517.60 378.33 522.43 370.44 523.70 C 364.97 524.71 359.71 527.14 354.04 526.75 C 341.68 526.08 330.16 518.74 323.77 508.22 C 322.04 505.31 318.94 501.02 322.15 498.06 C 324.66 495.26 325.63 491.58 327.36 488.33 C 329.97 483.33 336.46 482.06 338.98 477.00 C 341.02 473.17 340.48 467.93 337.04 465.08 C 333.05 461.66 327.41 461.54 322.46 462.24 Z" />
<path fill="#fbddb3" opacity="1.00" d=" M 612.97 499.05 C 627.15 487.35 638.89 473.00 649.06 457.76 C 652.85 463.39 656.54 469.08 660.44 474.63 C 651.61 492.83 639.72 509.40 626.39 524.54 C 607.64 545.62 586.17 564.63 561.66 578.76 C 568.80 561.93 574.29 543.16 570.53 524.82 C 585.06 516.91 600.33 509.94 612.97 499.05 Z" />
<path fill="#fbddb3" opacity="1.00" d=" M 763.61 511.63 C 768.72 503.65 769.65 493.75 775.41 486.12 C 775.37 497.42 773.76 508.64 773.32 519.93 C 772.46 530.95 773.93 541.99 773.49 553.02 C 773.38 563.57 772.74 574.20 770.34 584.50 C 768.99 589.63 767.32 595.52 762.40 598.34 C 755.53 602.22 747.65 603.67 740.01 605.17 C 737.24 600.68 734.80 595.96 733.24 590.91 C 732.04 587.18 732.18 583.21 731.45 579.40 C 729.97 586.83 729.63 594.57 731.02 602.04 C 731.20 603.45 732.04 604.64 732.96 605.70 C 726.93 605.96 720.45 605.99 715.06 602.91 C 712.34 601.44 710.76 598.20 711.40 595.17 C 712.00 590.10 710.71 585.04 711.20 579.97 C 711.49 576.51 712.28 573.11 712.77 569.68 C 706.80 576.69 705.62 586.06 705.30 594.92 C 702.03 594.36 698.86 592.95 696.66 590.42 C 691.54 584.78 690.73 576.26 693.17 569.26 C 694.54 564.96 697.09 561.18 698.73 557.00 C 700.19 553.42 699.37 549.51 698.61 545.88 C 696.80 538.20 693.49 531.00 690.14 523.90 C 689.42 522.81 689.43 521.72 690.17 520.63 C 693.84 515.62 699.82 512.47 706.05 512.47 C 714.73 512.27 722.67 516.62 729.37 521.74 C 734.26 525.33 740.12 529.20 746.50 527.64 C 754.40 525.42 759.49 518.27 763.61 511.63 Z" />
<path fill="#fbddb3" opacity="1.00" d=" M 122.45 634.25 C 139.02 630.92 155.39 625.80 170.35 617.87 C 184.90 626.95 193.22 643.64 209.04 650.93 C 221.35 656.67 235.16 651.06 247.89 654.22 C 253.40 655.70 254.34 662.06 254.68 666.88 C 232.46 675.33 210.02 683.33 187.01 689.39 C 169.99 693.80 152.64 697.59 134.99 698.05 C 131.02 697.89 126.60 698.27 123.21 695.78 C 119.52 693.48 117.70 689.15 117.42 684.94 C 111.84 687.38 105.61 690.34 99.44 688.35 C 93.53 686.57 91.44 678.48 95.16 673.74 C 90.92 673.96 86.48 673.65 82.79 671.34 C 77.71 668.68 74.93 662.52 76.04 656.93 C 77.44 649.61 83.08 643.51 89.85 640.66 C 100.14 636.16 111.62 636.54 122.45 634.25 M 104.76 654.72 C 100.17 658.12 94.95 663.04 95.61 669.27 C 99.86 664.63 103.84 659.52 109.38 656.35 C 116.84 651.53 125.50 649.14 134.12 647.43 C 123.90 645.17 112.77 647.98 104.76 654.72 M 129.38 668.43 C 124.91 672.01 119.53 676.56 120.16 682.92 C 126.66 672.70 137.09 665.87 148.03 661.17 C 141.20 661.22 134.86 664.63 129.38 668.43 Z" />
<path fill="#fbddb3" opacity="1.00" d=" M 438.99 653.98 C 456.28 653.86 470.53 640.51 488.01 641.51 C 495.66 641.56 502.71 645.91 506.63 652.40 C 478.56 678.90 447.31 702.08 413.51 720.74 C 403.52 726.25 393.30 731.35 382.78 735.75 C 375.79 738.47 368.48 740.83 360.92 741.03 C 357.08 741.18 353.70 739.24 350.40 737.57 C 346.50 735.79 342.50 733.08 341.73 728.53 C 336.42 731.63 330.61 735.55 324.14 734.33 C 318.08 733.19 315.19 725.53 318.08 720.32 C 313.65 721.48 308.76 721.59 304.60 719.46 C 299.83 717.33 296.64 712.23 296.78 707.01 C 296.92 700.08 300.94 693.59 306.50 689.63 C 312.52 685.30 319.79 683.35 326.83 681.38 C 350.18 675.71 371.52 661.94 386.28 642.99 C 391.49 642.53 396.80 642.55 401.92 643.79 C 414.41 646.65 425.88 653.95 438.99 653.98 M 326.41 699.40 C 322.88 704.32 319.09 709.71 319.04 716.03 C 322.07 712.32 324.29 708.03 327.30 704.31 C 330.38 700.10 334.05 696.40 337.41 692.43 C 339.68 689.69 342.88 687.90 344.96 684.98 C 337.17 686.96 330.94 692.97 326.41 699.40 M 351.15 707.15 C 346.35 711.71 342.54 718.31 344.17 725.15 C 351.54 717.81 356.60 708.35 364.48 701.44 C 367.71 698.61 371.02 695.85 374.23 692.99 C 365.27 694.93 357.29 700.43 351.15 707.15 Z" />
</g>
<g id="#faebd4ff">
<path fill="#faebd4" opacity="1.00" d=" M 675.71 60.67 C 680.27 58.42 685.48 56.25 690.64 57.41 C 692.27 57.79 691.76 59.55 691.94 60.79 C 689.02 61.86 686.03 62.69 682.97 63.25 C 678.51 64.10 674.24 65.86 669.68 66.21 C 670.19 63.17 673.41 62.11 675.71 60.67 Z" />
<path fill="#faebd4" opacity="1.00" d=" M 639.86 65.22 C 643.82 64.07 647.88 62.97 652.04 63.06 C 653.64 62.83 654.67 64.14 655.76 65.07 C 653.48 67.51 649.97 66.66 647.02 67.14 C 644.41 67.08 640.37 69.11 639.86 65.22 Z" />
<path fill="#faebd4" opacity="1.00" d=" M 717.06 63.07 C 724.59 62.24 731.85 65.22 738.39 68.65 C 740.87 69.82 743.09 71.45 745.10 73.33 C 743.41 76.28 740.43 73.51 738.31 72.62 C 731.75 68.77 724.28 67.14 717.17 64.69 C 717.15 64.29 717.09 63.47 717.06 63.07 Z" />
<path fill="#faebd4" opacity="1.00" d=" M 681.03 78.22 C 690.49 74.65 701.68 73.22 711.00 77.97 C 712.76 78.69 711.84 81.93 709.95 81.65 C 701.98 81.52 694.00 80.51 686.03 81.34 C 683.65 81.54 681.13 82.21 678.93 80.93 C 679.61 80.05 679.87 78.65 681.03 78.22 Z" />
<path fill="#faebd4" opacity="1.00" d=" M 638.40 84.46 C 639.61 84.05 640.78 84.67 641.08 85.94 C 640.60 87.43 638.86 87.86 637.67 88.62 C 634.52 90.03 631.72 92.06 628.69 93.66 C 627.42 94.45 625.22 92.52 626.44 91.37 C 629.58 87.95 633.87 85.47 638.40 84.46 Z" />
<path fill="#faebd4" opacity="1.00" d=" M 750.20 86.10 C 753.22 85.24 754.79 88.69 756.47 90.56 C 758.06 93.25 761.28 95.54 760.92 98.94 C 759.50 99.31 758.07 98.93 757.16 97.78 C 754.83 95.49 752.49 93.17 750.50 90.58 C 749.53 89.32 748.44 87.24 750.20 86.10 Z" />
<path fill="#faebd4" opacity="1.00" d=" M 599.18 95.28 C 599.87 95.23 601.27 95.14 601.96 95.10 C 602.57 100.21 600.41 105.01 599.85 110.01 C 599.25 113.59 599.50 117.26 598.75 120.81 C 598.12 121.67 597.30 121.95 596.29 121.65 C 594.61 118.38 595.10 114.55 594.99 111.01 C 595.24 105.63 595.57 99.58 599.18 95.28 Z" />
<path fill="#faebd4" opacity="1.00" d=" M 739.94 104.08 C 739.14 102.12 741.89 100.06 743.44 101.61 C 749.12 105.46 751.95 112.04 755.19 117.85 C 756.02 119.10 755.82 120.64 755.84 122.06 C 754.09 121.26 752.53 120.13 751.22 118.74 C 746.85 114.41 742.14 109.96 739.94 104.08 Z" />
<path fill="#faebd4" opacity="1.00" d=" M 771.30 108.03 C 772.85 106.68 775.21 106.85 775.95 108.98 C 779.79 116.50 781.15 125.79 778.98 133.97 C 778.62 133.89 777.88 133.73 777.51 133.65 C 775.86 125.01 773.07 116.64 771.30 108.03 Z" />
<path fill="#faebd4" opacity="1.00" d=" M 609.64 119.57 C 610.16 118.02 611.90 118.21 613.19 117.87 C 613.38 122.11 611.23 125.92 610.75 130.06 C 610.27 132.81 610.65 135.76 609.39 138.34 C 607.60 132.36 606.54 125.28 609.64 119.57 Z" />
<path fill="#faebd4" opacity="1.00" d=" M 596.39 136.31 C 597.00 136.27 598.22 136.19 598.83 136.15 C 598.24 144.12 597.88 152.08 597.73 160.07 C 596.58 159.72 595.61 158.96 595.44 157.72 C 593.55 150.69 593.68 143.11 596.39 136.31 Z" />
<path fill="#faebd4" opacity="1.00" d=" M 767.03 162.97 C 766.96 161.57 768.01 160.63 768.90 159.72 C 770.85 165.93 770.36 172.66 770.80 179.11 C 769.71 178.83 769.05 178.16 768.84 177.08 C 767.43 172.54 766.49 167.73 767.03 162.97 Z" />
<path fill="#faebd4" opacity="1.00" d=" M 781.08 169.98 C 780.96 168.62 782.01 167.73 782.84 166.85 C 783.77 168.44 784.82 170.07 784.87 171.99 C 785.27 178.02 785.04 184.09 784.53 190.12 C 782.94 188.08 782.79 185.43 782.33 182.99 C 781.62 178.69 780.73 174.35 781.08 169.98 Z" />
<path fill="#faebd4" opacity="1.00" d=" M 590.88 183.65 C 592.26 183.98 593.13 185.04 593.71 186.27 C 598.13 195.29 605.32 202.61 613.08 208.84 C 614.08 209.60 615.00 210.53 614.92 211.90 C 611.93 212.56 609.22 210.63 606.69 209.34 C 597.98 203.74 591.70 194.05 590.88 183.65 Z" />
<path fill="#faebd4" opacity="1.00" d=" M 616.15 197.83 C 615.76 197.14 615.55 196.39 615.50 195.59 C 619.19 198.21 622.59 201.31 626.74 203.22 C 630.99 205.18 635.55 206.31 640.08 207.44 C 639.80 210.54 636.23 209.98 634.00 209.85 C 626.49 209.07 620.17 203.98 616.15 197.83 Z" />
<path fill="#faebd4" opacity="1.00" d=" M 762.18 201.20 C 762.68 201.43 763.69 201.89 764.19 202.12 C 762.92 208.62 757.93 213.73 753.12 217.97 C 755.09 211.94 757.25 205.51 762.18 201.20 Z" />
<path fill="#faebd4" opacity="1.00" d=" M 671.32 206.60 C 673.62 205.46 675.69 203.93 677.95 202.70 C 679.84 203.00 679.09 205.29 678.22 206.21 C 676.53 208.30 673.66 208.46 671.23 208.95 C 671.25 208.36 671.30 207.19 671.32 206.60 Z" />
<path fill="#faebd4" opacity="1.00" d=" M 776.27 210.40 C 776.95 210.31 778.30 210.12 778.97 210.02 C 778.37 215.65 775.27 220.57 772.22 225.18 C 769.96 228.32 768.02 231.80 764.95 234.25 C 765.14 232.52 765.51 230.80 766.36 229.27 C 769.69 223.00 771.86 216.05 776.27 210.40 Z" />
<path fill="#faebd4" opacity="1.00" d=" M 638.85 213.33 C 646.38 214.03 653.60 211.59 661.04 211.07 C 661.37 214.16 658.24 215.09 655.87 215.79 C 651.14 217.14 646.10 216.59 641.37 215.56 C 640.10 215.39 639.13 214.58 638.85 213.33 Z" />
</g>
<g id="#f2b61bff">
<path fill="#f2b61b" opacity="1.00" d=" M 657.43 96.52 C 686.30 86.85 720.16 97.14 739.94 119.99 C 746.45 127.34 749.48 137.25 749.08 146.99 C 748.51 158.42 748.86 170.64 742.83 180.83 C 737.97 189.84 728.96 196.15 719.00 198.20 C 725.38 203.38 730.62 209.76 736.46 215.52 C 748.41 228.44 758.67 242.86 767.76 257.91 C 776.16 273.22 781.74 289.96 785.35 307.01 C 790.33 330.97 791.52 355.58 790.68 379.99 C 789.92 406.23 786.60 432.35 781.57 458.10 C 779.60 467.45 778.08 476.96 775.41 486.12 C 769.65 493.75 768.72 503.65 763.61 511.63 C 759.49 518.27 754.40 525.42 746.50 527.64 C 740.12 529.20 734.26 525.33 729.37 521.74 C 722.67 516.62 714.73 512.27 706.05 512.47 C 699.82 512.47 693.84 515.62 690.17 520.63 C 681.74 504.38 670.89 489.60 660.44 474.63 C 656.54 469.08 652.85 463.39 649.06 457.76 C 638.89 473.00 627.15 487.35 612.97 499.05 C 600.33 509.94 585.06 516.91 570.53 524.82 C 574.29 543.16 568.80 561.93 561.66 578.76 C 548.86 606.89 528.80 631.14 506.63 652.40 C 502.71 645.91 495.66 641.56 488.01 641.51 C 470.53 640.51 456.28 653.86 438.99 653.98 C 425.88 653.95 414.41 646.65 401.92 643.79 C 396.80 642.55 391.49 642.53 386.28 642.99 C 390.34 637.48 394.16 631.79 397.35 625.72 C 397.85 624.70 398.17 623.60 398.61 622.57 C 402.66 615.37 404.18 607.18 406.43 599.34 C 409.29 592.45 412.81 585.51 418.42 580.43 C 428.60 570.59 437.54 559.50 445.42 547.74 C 446.18 547.45 446.92 547.11 447.63 546.72 C 459.13 537.12 467.24 524.20 473.93 510.97 C 478.02 501.14 482.87 491.46 484.66 480.88 C 486.75 467.72 487.47 454.35 486.75 441.05 C 485.88 431.62 485.72 422.03 483.21 412.85 C 482.81 411.00 480.84 410.40 479.39 409.59 C 474.14 407.23 468.78 405.10 463.73 402.32 C 456.32 398.22 448.00 396.27 440.39 392.64 C 438.26 391.64 436.08 390.76 433.86 389.99 C 440.29 396.69 448.68 401.08 457.03 404.91 C 462.26 407.29 466.92 411.20 469.66 416.29 C 473.14 423.55 474.12 431.69 474.64 439.64 C 467.77 454.78 455.53 467.50 440.41 474.53 C 419.66 484.29 394.05 482.58 374.68 470.34 C 367.30 465.63 360.16 460.41 352.05 456.99 C 339.36 451.07 324.87 448.82 311.09 451.65 C 296.71 454.76 282.24 460.09 271.35 470.34 C 262.69 478.47 256.37 488.81 251.73 499.68 C 249.53 504.73 247.38 509.84 244.48 514.54 C 233.66 532.21 214.59 544.72 193.96 547.13 C 178.00 549.09 161.65 545.02 148.00 536.66 C 143.39 529.68 139.84 521.54 139.04 513.10 C 138.34 506.48 141.30 500.28 144.95 494.98 C 152.68 483.40 157.14 470.10 161.44 456.98 C 156.50 442.21 148.82 428.56 143.43 413.97 C 140.10 405.03 137.02 396.01 134.16 386.92 C 131.98 379.75 129.21 372.06 131.38 364.54 C 133.14 358.56 139.10 355.06 144.94 354.07 C 155.86 352.16 167.01 354.83 177.15 358.87 C 192.35 365.10 206.47 373.68 220.02 382.89 C 251.27 366.81 286.09 359.53 320.45 353.54 C 327.10 341.87 332.99 329.75 340.49 318.57 C 346.86 309.01 353.08 299.29 360.36 290.39 C 364.91 284.77 372.60 280.50 379.84 283.54 C 382.60 287.14 385.34 290.91 386.62 295.33 C 392.36 314.38 395.87 334.10 396.92 353.97 C 397.08 356.12 396.79 358.38 397.48 360.45 C 402.98 364.23 409.03 367.38 413.73 372.22 C 414.17 362.06 412.56 351.91 411.01 341.88 L 411.21 341.56 C 423.09 322.95 434.41 303.98 446.65 285.61 C 464.90 259.04 485.37 233.92 508.28 211.22 C 520.30 199.70 532.90 188.13 548.40 181.50 C 557.43 177.48 567.00 174.83 576.71 173.04 C 580.77 193.57 592.88 213.10 611.41 223.48 C 623.62 230.56 638.23 231.90 652.06 230.77 C 665.04 229.66 678.40 226.16 688.52 217.55 C 696.26 211.03 703.39 202.72 705.43 192.55 C 706.64 186.74 704.33 180.49 699.48 177.03 C 689.28 174.29 678.11 173.96 669.04 167.95 C 660.47 162.77 657.98 150.02 663.92 142.01 C 668.75 136.11 677.35 135.47 684.38 136.52 C 693.93 137.94 701.31 147.80 699.47 157.36 C 698.80 162.01 695.71 165.66 693.00 169.28 C 700.05 166.03 703.38 158.35 705.39 151.31 C 706.78 144.94 706.63 137.71 702.88 132.13 C 699.01 125.72 691.18 123.17 684.10 122.58 C 672.82 121.97 660.70 125.25 652.88 133.80 C 648.39 139.46 645.02 146.63 646.02 154.02 C 646.63 162.15 652.79 168.43 659.17 172.79 C 670.37 179.29 683.59 180.72 696.29 181.20 C 688.69 190.36 678.53 197.71 666.91 200.69 C 654.75 203.82 641.00 201.76 630.96 194.00 C 621.57 186.59 616.26 174.94 614.75 163.25 C 611.37 134.79 630.18 105.41 657.43 96.52 M 361.68 320.68 C 356.49 330.35 351.62 340.19 347.01 350.15 C 359.90 350.16 372.78 351.79 385.22 355.18 C 384.36 345.74 382.79 336.39 381.20 327.06 C 380.46 323.18 379.81 319.02 377.16 315.94 C 375.21 313.64 371.96 312.14 368.97 313.14 C 365.49 314.32 363.40 317.64 361.68 320.68 M 338.75 375.94 C 338.70 378.19 340.80 379.63 342.88 379.62 C 348.15 380.03 354.35 382.58 358.98 378.83 C 356.39 373.83 350.35 371.57 344.97 371.86 C 342.51 372.21 339.45 373.23 338.75 375.94 M 155.97 380.98 C 152.72 384.59 154.46 389.87 156.23 393.78 C 161.67 405.26 167.03 416.84 173.54 427.76 C 173.76 427.72 174.21 427.63 174.44 427.59 C 181.52 416.22 190.43 406.12 200.28 397.06 C 190.34 391.06 180.15 385.44 169.72 380.33 C 165.50 378.22 159.61 377.26 155.97 380.98 M 350.39 388.42 C 341.31 389.83 333.80 396.99 330.46 405.35 C 327.76 412.25 329.56 420.05 333.43 426.14 C 332.28 427.97 331.59 430.04 330.84 432.06 C 337.26 428.04 344.70 426.23 351.99 424.53 C 362.89 422.08 374.21 421.50 385.27 423.16 C 383.91 420.52 382.63 417.63 380.03 415.97 C 382.77 408.35 377.49 400.87 371.76 396.30 C 365.79 391.42 358.17 388.25 350.39 388.42 M 209.36 413.59 C 203.25 415.42 201.05 422.28 200.20 427.93 C 199.68 430.08 202.44 430.81 203.97 429.95 C 209.36 427.95 214.06 423.38 215.83 417.89 C 216.80 414.08 212.48 411.77 209.36 413.59 M 212.81 431.83 C 204.87 436.51 199.80 445.06 198.06 453.96 C 197.18 460.17 197.58 467.64 203.27 471.54 C 202.03 474.45 202.61 477.64 202.89 480.68 C 214.67 469.71 229.47 462.45 244.91 458.26 C 247.40 457.59 249.97 457.40 252.53 457.11 C 250.80 455.66 248.96 454.28 246.83 453.51 C 247.88 444.48 241.73 435.57 233.35 432.49 C 226.91 429.97 219.28 428.78 212.81 431.83 M 544.09 464.30 C 547.00 466.58 550.18 468.56 552.74 471.26 C 562.54 482.24 568.53 496.44 570.08 511.04 C 570.57 515.12 569.19 519.40 570.70 523.34 C 575.04 515.40 575.82 505.77 574.06 496.97 C 571.67 482.76 561.45 470.41 548.37 464.61 C 547.03 463.85 545.51 464.09 544.09 464.30 Z" />
<path fill="#f2b61b" opacity="1.00" d=" M 170.35 617.87 C 181.81 611.71 192.87 604.48 201.82 594.92 C 226.14 611.80 254.84 621.87 284.05 626.02 C 289.12 626.82 293.97 628.67 299.08 629.24 C 309.95 630.63 320.91 631.34 331.87 631.15 C 307.00 644.80 281.12 656.63 254.68 666.88 C 254.34 662.06 253.40 655.70 247.89 654.22 C 235.16 651.06 221.35 656.67 209.04 650.93 C 193.22 643.64 184.90 626.95 170.35 617.87 Z" />
</g>
<g id="#f0a11cff">
<path fill="#f0a11c" opacity="1.00" d=" M 652.88 133.80 C 660.70 125.25 672.82 121.97 684.10 122.58 C 691.18 123.17 699.01 125.72 702.88 132.13 C 706.63 137.71 706.78 144.94 705.39 151.31 C 703.38 158.35 700.05 166.03 693.00 169.28 C 695.71 165.66 698.80 162.01 699.47 157.36 C 701.31 147.80 693.93 137.94 684.38 136.52 C 677.35 135.47 668.75 136.11 663.92 142.01 C 657.98 150.02 660.47 162.77 669.04 167.95 C 678.11 173.96 689.28 174.29 699.48 177.03 C 698.42 178.43 697.38 179.84 696.29 181.20 C 683.59 180.72 670.37 179.29 659.17 172.79 C 652.79 168.43 646.63 162.15 646.02 154.02 C 645.02 146.63 648.39 139.46 652.88 133.80 Z" />
<path fill="#f0a11c" opacity="1.00" d=" M 379.84 283.54 C 385.74 285.59 390.07 290.44 393.41 295.53 C 402.67 309.36 407.29 325.57 411.21 341.56 L 411.01 341.88 C 412.56 351.91 414.17 362.06 413.73 372.22 C 409.03 367.38 402.98 364.23 397.48 360.45 C 396.79 358.38 397.08 356.12 396.92 353.97 C 395.87 334.10 392.36 314.38 386.62 295.33 C 385.34 290.91 382.60 287.14 379.84 283.54 Z" />
<path fill="#f0a11c" opacity="1.00" d=" M 350.39 388.42 C 358.17 388.25 365.79 391.42 371.76 396.30 C 377.49 400.87 382.77 408.35 380.03 415.97 C 372.69 411.10 363.29 411.26 355.05 413.40 C 346.88 415.45 338.25 418.81 333.43 426.14 C 329.56 420.05 327.76 412.25 330.46 405.35 C 333.80 396.99 341.31 389.83 350.39 388.42 Z" />
<path fill="#f0a11c" opacity="1.00" d=" M 433.86 389.99 C 436.08 390.76 438.26 391.64 440.39 392.64 C 448.00 396.27 456.32 398.22 463.73 402.32 C 468.78 405.10 474.14 407.23 479.39 409.59 C 480.84 410.40 482.81 411.00 483.21 412.85 C 485.72 422.03 485.88 431.62 486.75 441.05 C 487.47 454.35 486.75 467.72 484.66 480.88 C 482.87 491.46 478.02 501.14 473.93 510.97 C 467.24 524.20 459.13 537.12 447.63 546.72 C 446.92 547.11 446.18 547.45 445.42 547.74 C 466.22 516.01 477.32 477.64 474.64 439.64 C 474.12 431.69 473.14 423.55 469.66 416.29 C 466.92 411.20 462.26 407.29 457.03 404.91 C 448.68 401.08 440.29 396.69 433.86 389.99 Z" />
<path fill="#f0a11c" opacity="1.00" d=" M 212.81 431.83 C 219.28 428.78 226.91 429.97 233.35 432.49 C 241.73 435.57 247.88 444.48 246.83 453.51 C 238.06 450.34 228.59 452.94 220.29 456.30 C 213.08 459.17 206.36 464.22 203.27 471.54 C 197.58 467.64 197.18 460.17 198.06 453.96 C 199.80 445.06 204.87 436.51 212.81 431.83 Z" />
<path fill="#f0a11c" opacity="1.00" d=" M 544.09 464.30 C 545.51 464.09 547.03 463.85 548.37 464.61 C 561.45 470.41 571.67 482.76 574.06 496.97 C 575.82 505.77 575.04 515.40 570.70 523.34 C 569.19 519.40 570.57 515.12 570.08 511.04 C 568.53 496.44 562.54 482.24 552.74 471.26 C 550.18 468.56 547.00 466.58 544.09 464.30 Z" />
</g>
<g id="#fae8ceff">
<path fill="#fae8ce" opacity="1.00" d=" M 745.76 194.76 C 747.55 192.14 748.54 188.97 750.92 186.78 C 752.15 191.31 748.73 194.99 746.10 198.20 C 745.26 199.34 743.90 199.84 742.69 200.41 C 743.36 198.35 744.55 196.54 745.76 194.76 Z" />
</g>
<g id="#5b4b40ff">
<path fill="#5b4b40" opacity="1.00" d=" M 355.05 413.40 C 363.29 411.26 372.69 411.10 380.03 415.97 C 382.63 417.63 383.91 420.52 385.27 423.16 C 374.21 421.50 362.89 422.08 351.99 424.53 C 344.70 426.23 337.26 428.04 330.84 432.06 C 331.59 430.04 332.28 427.97 333.43 426.14 C 338.25 418.81 346.88 415.45 355.05 413.40 Z" />
<path fill="#5b4b40" opacity="1.00" d=" M 220.29 456.30 C 228.59 452.94 238.06 450.34 246.83 453.51 C 248.96 454.28 250.80 455.66 252.53 457.11 C 249.97 457.40 247.40 457.59 244.91 458.26 C 229.47 462.45 214.67 469.71 202.89 480.68 C 202.61 477.64 202.03 474.45 203.27 471.54 C 206.36 464.22 213.08 459.17 220.29 456.30 Z" />
<path fill="#5b4b40" opacity="1.00" d=" M 322.46 462.24 C 327.41 461.54 333.05 461.66 337.04 465.08 C 340.48 467.93 341.02 473.17 338.98 477.00 C 336.46 482.06 329.97 483.33 327.36 488.33 C 325.63 491.58 324.66 495.26 322.15 498.06 C 318.94 501.02 322.04 505.31 323.77 508.22 C 330.16 518.74 341.68 526.08 354.04 526.75 C 359.71 527.14 364.97 524.71 370.44 523.70 C 378.33 522.43 386.07 517.60 389.25 510.02 C 393.04 526.03 390.22 543.31 381.94 557.48 C 372.23 552.43 360.37 553.26 350.56 557.59 C 346.49 559.31 343.20 562.37 340.53 565.84 C 331.82 564.10 322.24 565.61 315.11 571.10 C 310.90 574.28 308.69 579.24 306.53 583.89 C 294.33 579.39 281.76 573.99 272.98 564.04 C 269.25 559.83 266.66 554.72 265.23 549.31 C 275.38 549.05 285.92 548.57 295.28 544.24 C 301.72 540.28 308.01 535.36 311.31 528.37 C 315.36 520.63 315.76 511.37 313.25 503.09 C 311.09 502.90 308.89 502.92 306.79 502.33 C 302.92 501.14 300.05 498.03 296.35 496.49 C 291.52 494.65 285.82 496.64 281.33 493.66 C 277.48 491.37 275.42 486.33 277.16 482.08 C 279.16 476.65 284.64 473.80 289.61 471.58 C 300.09 467.08 311.15 463.83 322.46 462.24 Z" />
</g>
<g id="#e75952ff">
<path fill="#e75952" opacity="1.00" d=" M 350.56 557.59 C 360.37 553.26 372.23 552.43 381.94 557.48 C 374.03 570.81 360.80 580.66 345.97 584.96 C 333.13 588.84 319.16 588.28 306.53 583.89 C 308.69 579.24 310.90 574.28 315.11 571.10 C 322.24 565.61 331.82 564.10 340.53 565.84 C 343.20 562.37 346.49 559.31 350.56 557.59 Z" />
</g>
<g id="#f4c79eff">
<path fill="#f4c79e" opacity="1.00" d=" M 705.30 594.92 C 705.62 586.06 706.80 576.69 712.77 569.68 C 712.28 573.11 711.49 576.51 711.20 579.97 C 710.71 585.04 712.00 590.10 711.40 595.17 C 709.36 595.60 707.29 595.71 705.28 595.14 L 705.30 594.92 Z" />
<path fill="#f4c79e" opacity="1.00" d=" M 731.02 602.04 C 729.63 594.57 729.97 586.83 731.45 579.40 C 732.18 583.21 732.04 587.18 733.24 590.91 C 734.80 595.96 737.24 600.68 740.01 605.17 C 737.84 605.52 735.67 605.87 733.54 606.35 L 732.96 605.70 C 732.04 604.64 731.20 603.45 731.02 602.04 Z" />
<path fill="#f4c79e" opacity="1.00" d=" M 104.76 654.72 C 112.77 647.98 123.90 645.17 134.12 647.43 C 125.50 649.14 116.84 651.53 109.38 656.35 C 103.84 659.52 99.86 664.63 95.61 669.27 C 94.95 663.04 100.17 658.12 104.76 654.72 Z" />
<path fill="#f4c79e" opacity="1.00" d=" M 326.41 699.40 C 330.94 692.97 337.17 686.96 344.96 684.98 C 342.88 687.90 339.68 689.69 337.41 692.43 C 334.05 696.40 330.38 700.10 327.30 704.31 C 324.29 708.03 322.07 712.32 319.04 716.03 C 319.09 709.71 322.88 704.32 326.41 699.40 Z" />
<path fill="#f4c79e" opacity="1.00" d=" M 351.15 707.15 C 357.29 700.43 365.27 694.93 374.23 692.99 C 371.02 695.85 367.71 698.61 364.48 701.44 C 356.60 708.35 351.54 717.81 344.17 725.15 C 342.54 718.31 346.35 711.71 351.15 707.15 Z" />
</g>
<g id="#f5caa0ff">
<path fill="#f5caa0" opacity="1.00" d=" M 129.38 668.43 C 134.86 664.63 141.20 661.22 148.03 661.17 C 137.09 665.87 126.66 672.70 120.16 682.92 C 119.53 676.56 124.91 672.01 129.38 668.43 Z" />
</g>
</svg>
