<?xml version="1.0" encoding="UTF-8" ?>
<!DOCTYPE svg PUBLIC "-//W3C//DTD SVG 1.1//EN" "http://www.w3.org/Graphics/SVG/1.1/DTD/svg11.dtd">
<svg width="1067pt" height="797pt" viewBox="0 0 1067 797" version="1.1" xmlns="http://www.w3.org/2000/svg">
<g id="#f2b61bff">
<path fill="#f2b61b" opacity="1.00" d=" M 264.55 74.64 C 267.18 72.78 270.46 72.49 273.58 72.39 C 277.01 75.96 281.12 78.88 283.97 83.00 C 296.09 99.53 305.80 117.76 313.34 136.81 C 318.92 137.25 324.53 136.97 330.09 137.66 C 362.12 141.97 392.59 153.67 422.06 166.49 C 433.42 160.78 444.32 154.13 456.05 149.15 C 466.56 144.62 477.04 139.90 487.97 136.46 C 494.70 134.22 503.11 135.19 507.40 141.41 C 507.28 146.51 507.33 151.72 505.74 156.64 C 499.99 176.14 491.35 194.68 480.94 212.12 C 483.05 218.40 486.12 224.33 487.91 230.73 C 490.20 238.43 491.69 246.33 493.75 254.09 C 495.17 259.74 497.22 265.23 499.81 270.44 C 500.79 272.39 501.87 274.31 503.02 276.18 C 506.09 280.97 509.42 286.02 509.64 291.90 C 510.14 301.23 505.71 309.85 501.31 317.78 C 489.54 324.91 475.82 328.99 462.00 328.38 C 440.54 327.69 420.07 315.51 408.58 297.48 C 402.75 288.45 400.06 277.81 394.22 268.78 C 387.05 256.58 376.29 246.29 363.03 241.03 C 350.42 236.19 336.76 232.87 323.19 234.67 C 310.73 236.31 299.10 241.81 288.76 248.76 C 283.25 252.45 277.62 256.06 271.39 258.41 C 252.62 265.77 230.44 264.31 213.11 253.84 C 201.16 246.82 191.86 235.90 185.82 223.50 C 186.04 214.36 187.41 204.52 192.91 196.89 C 196.67 191.62 202.94 189.34 208.58 186.72 C 219.68 181.44 229.36 173.74 238.88 166.07 C 242.29 152.88 243.47 139.25 246.14 125.91 C 248.73 113.69 251.86 101.59 255.39 89.61 C 257.17 84.04 259.47 78.01 264.55 74.64 M 271.51 103.56 C 268.57 106.64 268.27 111.15 267.62 115.14 C 266.12 126.56 264.50 137.99 264.05 149.51 C 276.15 144.21 288.82 140.06 301.98 138.39 C 297.79 129.37 293.01 120.63 288.11 111.98 C 286.20 108.69 284.30 105.12 281.00 103.02 C 278.17 101.18 273.95 100.93 271.51 103.56 M 294.38 156.54 C 291.02 157.82 288.22 160.25 285.78 162.83 C 284.47 163.85 284.98 166.10 286.60 166.45 C 291.54 168.14 297.07 166.96 301.64 164.69 C 304.02 163.65 305.90 160.33 303.97 158.07 C 301.36 155.94 297.54 155.50 294.38 156.54 M 467.61 164.61 C 460.20 168.96 452.54 172.96 445.57 177.97 C 455.97 184.65 465.51 192.73 473.59 202.10 C 477.77 194.56 481.12 186.59 484.62 178.71 C 486.41 174.39 488.77 169.81 487.68 165.00 C 487.04 161.87 484.30 159.16 481.00 159.21 C 476.01 159.22 471.85 162.40 467.61 164.61 M 279.28 176.28 C 274.49 178.50 270.62 182.28 267.40 186.37 C 264.86 190.07 262.90 194.88 264.62 199.33 C 266.62 203.72 271.89 205.34 276.39 205.09 C 276.11 212.37 283.49 217.13 290.02 217.68 C 295.57 217.68 299.42 212.36 300.57 207.40 C 303.85 208.01 308.48 210.40 310.99 206.99 C 314.13 201.75 314.84 195.02 312.53 189.31 C 309.70 182.39 304.20 176.31 297.07 173.77 C 291.12 171.79 284.69 173.57 279.28 176.28 M 424.54 195.99 C 424.43 198.85 427.54 199.96 429.20 201.74 C 432.09 204.51 435.64 208.07 440.01 207.14 C 440.30 201.43 436.32 195.98 431.18 193.79 C 428.88 192.88 424.79 192.66 424.54 195.99 M 398.81 217.83 C 395.88 221.99 393.45 227.64 395.46 232.63 C 398.39 234.55 401.84 235.45 405.06 236.79 C 404.40 243.61 410.79 248.38 416.82 249.62 C 419.95 250.49 423.19 249.04 425.39 246.83 C 429.57 250.38 437.29 250.33 440.24 245.19 C 443.49 240.11 442.56 233.54 441.06 228.02 C 438.55 220.21 433.31 212.73 425.60 209.40 C 416.11 207.34 404.94 209.88 398.81 217.83 Z" />
<path fill="#f2b61b" opacity="1.00" d=" M 694.45 263.62 C 724.57 256.25 758.10 269.85 775.84 294.99 C 781.90 303.30 783.64 313.99 782.11 324.03 C 780.52 334.49 779.77 345.65 773.69 354.70 C 768.03 363.88 758.04 370.05 747.31 371.08 C 765.88 394.85 774.82 425.39 774.40 455.37 C 773.59 465.80 771.83 476.14 769.36 486.31 C 768.61 489.49 767.42 492.58 767.07 495.86 C 767.68 496.60 768.38 497.26 769.19 497.84 C 778.80 504.53 789.20 510.05 800.02 514.53 C 800.08 516.28 801.77 517.13 802.92 518.18 C 810.86 524.27 817.40 532.27 821.58 541.38 C 824.15 546.96 825.13 554.04 821.37 559.33 C 816.58 566.12 808.30 568.87 802.23 574.24 C 795.62 579.79 790.22 587.94 790.82 596.90 C 790.93 601.14 792.81 605.03 795.03 608.56 C 771.07 610.67 747.36 614.74 723.52 617.75 C 709.72 619.51 695.51 621.04 681.84 617.60 C 672.59 615.38 663.85 611.39 655.68 606.58 C 648.78 602.77 642.14 598.53 635.35 594.54 C 633.62 593.48 631.66 592.99 629.73 592.51 C 627.53 588.41 623.08 586.34 619.94 583.08 C 608.42 572.37 602.75 557.40 596.49 543.36 C 589.49 527.48 583.01 511.22 579.68 494.13 C 578.99 490.39 578.31 486.64 577.40 482.95 C 575.08 505.00 581.16 526.92 589.82 547.00 C 595.09 558.13 601.21 569.17 610.15 577.81 C 614.62 582.32 619.19 586.81 624.47 590.39 C 588.38 604.07 548.96 605.05 510.92 601.95 C 490.92 600.41 471.03 597.68 451.07 595.82 C 438.00 613.05 416.97 621.66 396.37 625.87 C 383.02 628.44 369.57 630.74 355.96 631.30 C 322.90 633.13 289.88 628.12 256.83 630.38 C 254.36 622.37 248.64 615.96 242.47 610.54 C 236.05 604.67 228.93 598.55 226.44 589.88 C 224.32 582.85 227.87 575.94 227.99 568.93 C 228.09 565.27 225.99 562.13 224.03 559.23 C 236.41 557.03 247.99 551.86 259.51 547.03 C 264.98 544.72 270.36 542.16 275.73 539.63 C 276.45 539.27 277.88 538.55 278.60 538.20 C 284.99 535.05 291.30 531.75 297.62 528.47 C 298.95 527.73 300.28 526.99 301.62 526.26 C 325.38 513.45 348.42 499.36 371.79 485.86 C 375.46 483.63 378.36 480.40 381.68 477.72 C 394.83 466.48 409.51 457.04 421.74 444.73 C 437.53 429.02 448.69 409.19 456.39 388.42 C 468.62 376.52 479.27 362.83 486.63 347.36 C 504.68 346.70 521.92 340.23 538.40 333.28 C 561.60 334.38 584.80 335.82 607.93 337.99 C 610.42 353.67 617.68 368.78 629.19 379.84 C 638.73 389.34 651.57 395.10 664.89 396.63 C 681.77 398.68 700.31 397.65 714.79 387.80 C 722.82 382.31 730.28 375.12 733.77 365.85 C 736.12 359.87 734.98 352.22 729.67 348.18 C 719.36 344.07 707.40 342.92 698.90 335.13 C 691.84 328.81 690.59 316.46 697.63 309.66 C 702.50 304.29 710.49 304.46 717.04 305.81 C 725.82 307.37 732.97 315.95 732.12 325.00 C 732.09 330.65 728.07 334.93 724.98 339.24 C 732.64 336.26 736.39 328.00 738.65 320.65 C 741.42 312.61 738.97 303.02 732.57 297.41 C 725.99 292.13 717.13 291.35 709.01 291.81 C 700.34 291.93 691.89 295.73 685.77 301.81 C 680.57 307.46 677.52 315.42 678.64 323.11 C 679.98 332.37 687.51 339.35 695.40 343.55 C 705.18 348.31 716.01 351.40 726.96 351.17 C 717.93 360.50 706.02 367.50 692.98 369.02 C 679.88 370.56 665.70 366.15 656.95 356.01 C 649.04 346.69 645.58 334.09 646.18 322.00 C 647.64 294.98 668.04 269.95 694.45 263.62 M 705.53 356.19 C 705.01 358.34 709.82 356.66 707.26 355.71 C 706.83 355.83 705.96 356.07 705.53 356.19 M 450.11 510.95 C 453.21 515.48 456.79 519.67 459.60 524.39 C 464.29 531.47 468.94 539.23 469.08 547.98 C 469.35 559.76 465.99 571.40 461.00 581.98 C 459.15 586.11 456.13 589.67 454.88 594.08 C 458.94 592.87 461.99 589.71 465.27 587.19 C 470.55 582.12 476.25 577.13 479.37 570.35 C 485.95 558.48 486.17 542.47 477.47 531.59 C 470.48 522.42 460.71 515.35 450.11 510.95 Z" />
</g>
<g id="#f0a11cff">
<path fill="#f0a11c" opacity="1.00" d=" M 273.58 72.39 C 278.03 72.82 282.28 74.50 285.98 77.00 C 295.06 83.08 302.60 91.17 309.27 99.76 C 318.11 111.35 325.41 124.13 330.68 137.73 L 330.09 137.66 C 324.53 136.97 318.92 137.25 313.34 136.81 C 305.80 117.76 296.09 99.53 283.97 83.00 C 281.12 78.88 277.01 75.96 273.58 72.39 Z" />
<path fill="#f0a11c" opacity="1.00" d=" M 507.40 141.41 C 511.80 147.66 512.05 155.61 511.69 162.97 C 510.00 187.12 501.06 210.52 487.91 230.73 C 486.12 224.33 483.05 218.40 480.94 212.12 C 491.35 194.68 499.99 176.14 505.74 156.64 C 507.33 151.72 507.28 146.51 507.40 141.41 Z" />
<path fill="#f0a11c" opacity="1.00" d=" M 279.28 176.28 C 284.69 173.57 291.12 171.79 297.07 173.77 C 304.20 176.31 309.70 182.39 312.53 189.31 C 314.84 195.02 314.13 201.75 310.99 206.99 C 308.48 210.40 303.85 208.01 300.57 207.40 C 301.63 199.17 291.92 194.91 285.02 195.93 C 280.28 196.30 276.74 200.48 276.39 205.09 C 271.89 205.34 266.62 203.72 264.62 199.33 C 262.90 194.88 264.86 190.07 267.40 186.37 C 270.62 182.28 274.49 178.50 279.28 176.28 Z" />
<path fill="#f0a11c" opacity="1.00" d=" M 398.81 217.83 C 404.94 209.88 416.11 207.34 425.60 209.40 C 433.31 212.73 438.55 220.21 441.06 228.02 C 442.56 233.54 443.49 240.11 440.24 245.19 C 437.29 250.33 429.57 250.38 425.39 246.83 C 428.59 243.30 430.78 237.64 427.77 233.34 C 423.97 228.70 417.13 226.92 411.45 228.62 C 407.83 229.71 405.62 233.19 405.06 236.79 C 401.84 235.45 398.39 234.55 395.46 232.63 C 393.45 227.64 395.88 221.99 398.81 217.83 Z" />
<path fill="#f0a11c" opacity="1.00" d=" M 685.77 301.81 C 691.89 295.73 700.34 291.93 709.01 291.81 C 717.13 291.35 725.99 292.13 732.57 297.41 C 738.97 303.02 741.42 312.61 738.65 320.65 C 736.39 328.00 732.64 336.26 724.98 339.24 C 728.07 334.93 732.09 330.65 732.12 325.00 C 732.97 315.95 725.82 307.37 717.04 305.81 C 710.49 304.46 702.50 304.29 697.63 309.66 C 690.59 316.46 691.84 328.81 698.90 335.13 C 707.40 342.92 719.36 344.07 729.67 348.18 C 728.76 349.18 727.87 350.19 726.96 351.17 C 716.01 351.40 705.18 348.31 695.40 343.55 C 687.51 339.35 679.98 332.37 678.64 323.11 C 677.52 315.42 680.57 307.46 685.77 301.81 Z" />
<path fill="#f0a11c" opacity="1.00" d=" M 788.16 441.55 C 793.26 440.50 798.31 439.24 803.45 438.37 C 797.80 447.57 792.85 457.94 793.45 469.01 C 793.53 473.82 795.99 478.36 799.77 481.29 C 807.72 487.93 818.76 488.20 827.44 493.49 C 831.97 496.18 834.92 500.67 838.59 504.32 C 841.17 506.95 844.38 508.84 847.55 510.69 C 840.17 515.27 833.01 520.26 825.16 524.03 C 816.73 521.00 808.22 518.14 800.02 514.53 C 789.20 510.05 778.80 504.53 769.19 497.84 C 768.38 497.26 767.68 496.60 767.07 495.86 C 767.42 492.58 768.61 489.49 769.36 486.31 C 771.83 476.14 773.59 465.80 774.40 455.37 C 779.52 451.35 784.29 446.81 788.16 441.55 Z" />
<path fill="#f0a11c" opacity="1.00" d=" M 237.52 466.85 C 238.01 494.82 244.80 523.04 259.51 547.03 C 247.99 551.86 236.41 557.03 224.03 559.23 C 216.10 561.08 207.93 563.73 199.71 562.25 C 200.15 555.13 201.92 548.19 202.59 541.10 C 203.12 535.88 201.94 529.82 197.29 526.72 C 189.79 521.50 179.73 524.53 172.00 519.88 C 170.05 518.79 168.72 516.94 167.33 515.25 C 178.09 511.12 188.75 506.56 198.42 500.24 C 204.25 496.60 209.30 491.91 214.47 487.43 C 222.23 480.66 229.77 473.64 237.52 466.85 Z" />
<path fill="#f0a11c" opacity="1.00" d=" M 589.82 547.00 C 581.16 526.92 575.08 505.00 577.40 482.95 C 578.31 486.64 578.99 490.39 579.68 494.13 C 583.01 511.22 589.49 527.48 596.49 543.36 C 602.75 557.40 608.42 572.37 619.94 583.08 C 623.08 586.34 627.53 588.41 629.73 592.51 C 627.91 591.95 626.14 591.29 624.47 590.39 C 619.19 586.81 614.62 582.32 610.15 577.81 C 601.21 569.17 595.09 558.13 589.82 547.00 Z" />
<path fill="#f0a11c" opacity="1.00" d=" M 450.11 510.95 C 460.71 515.35 470.48 522.42 477.47 531.59 C 486.17 542.47 485.95 558.48 479.37 570.35 C 476.25 577.13 470.55 582.12 465.27 587.19 C 461.99 589.71 458.94 592.87 454.88 594.08 C 456.13 589.67 459.15 586.11 461.00 581.98 C 465.99 571.40 469.35 559.76 469.08 547.98 C 468.94 539.23 464.29 531.47 459.60 524.39 C 456.79 519.67 453.21 515.48 450.11 510.95 Z" />
</g>
<g id="#fbddb3ff">
<path fill="#fbddb3" opacity="1.00" d=" M 271.51 103.56 C 273.95 100.93 278.17 101.18 281.00 103.02 C 284.30 105.12 286.20 108.69 288.11 111.98 C 293.01 120.63 297.79 129.37 301.98 138.39 C 288.82 140.06 276.15 144.21 264.05 149.51 C 264.50 137.99 266.12 126.56 267.62 115.14 C 268.27 111.15 268.57 106.64 271.51 103.56 Z" />
<path fill="#fbddb3" opacity="1.00" d=" M 294.38 156.54 C 297.54 155.50 301.36 155.94 303.97 158.07 C 305.90 160.33 304.02 163.65 301.64 164.69 C 297.07 166.96 291.54 168.14 286.60 166.45 C 284.98 166.10 284.47 163.85 285.78 162.83 C 288.22 160.25 291.02 157.82 294.38 156.54 Z" />
<path fill="#fbddb3" opacity="1.00" d=" M 467.61 164.61 C 471.85 162.40 476.01 159.22 481.00 159.21 C 484.30 159.16 487.04 161.87 487.68 165.00 C 488.77 169.81 486.41 174.39 484.62 178.71 C 481.12 186.59 477.77 194.56 473.59 202.10 C 465.51 192.73 455.97 184.65 445.57 177.97 C 452.54 172.96 460.20 168.96 467.61 164.61 Z" />
<path fill="#fbddb3" opacity="1.00" d=" M 424.54 195.99 C 424.79 192.66 428.88 192.88 431.18 193.79 C 436.32 195.98 440.30 201.43 440.01 207.14 C 435.64 208.07 432.09 204.51 429.20 201.74 C 427.54 199.96 424.43 198.85 424.54 195.99 Z" />
<path fill="#fbddb3" opacity="1.00" d=" M 648.00 233.96 C 665.87 221.89 687.69 217.32 708.95 216.59 C 728.11 216.18 747.34 217.92 766.07 221.98 C 783.62 225.79 800.49 233.97 813.03 247.01 C 827.95 262.13 837.50 282.66 838.63 303.95 C 839.73 324.61 834.04 344.88 827.16 364.16 C 817.22 391.30 805.74 418.37 788.16 441.55 C 784.29 446.81 779.52 451.35 774.40 455.37 C 774.82 425.39 765.88 394.85 747.31 371.08 C 758.04 370.05 768.03 363.88 773.69 354.70 C 779.77 345.65 780.52 334.49 782.11 324.03 C 783.64 313.99 781.90 303.30 775.84 294.99 C 758.10 269.85 724.57 256.25 694.45 263.62 C 668.04 269.95 647.64 294.98 646.18 322.00 C 645.58 334.09 649.04 346.69 656.95 356.01 C 665.70 366.15 679.88 370.56 692.98 369.02 C 706.02 367.50 717.93 360.50 726.96 351.17 C 727.87 350.19 728.76 349.18 729.67 348.18 C 734.98 352.22 736.12 359.87 733.77 365.85 C 730.28 375.12 722.82 382.31 714.79 387.80 C 700.31 397.65 681.77 398.68 664.89 396.63 C 651.57 395.10 638.73 389.34 629.19 379.84 C 617.68 368.78 610.42 353.67 607.93 337.99 C 604.51 317.60 606.83 296.33 614.39 277.10 C 621.17 259.93 632.52 244.25 648.00 233.96 M 682.09 230.19 C 680.27 229.88 680.21 233.51 682.05 232.95 C 686.67 233.06 691.30 233.19 695.92 232.85 C 695.87 232.20 695.77 230.89 695.72 230.24 C 691.32 228.67 686.54 229.21 682.09 230.19 M 714.89 232.09 C 715.03 233.22 715.62 233.95 716.67 234.28 C 723.13 236.52 730.31 238.16 737.05 236.08 C 736.76 234.90 737.39 232.63 735.62 232.47 C 728.77 231.46 721.77 231.54 714.89 232.09 M 758.03 235.13 C 757.40 237.35 759.83 237.85 761.35 238.58 C 768.75 241.39 775.81 245.06 782.36 249.49 C 783.54 250.54 784.54 248.93 785.13 248.08 C 777.58 241.32 768.26 236.08 758.03 235.13 M 722.93 248.14 C 723.05 251.07 726.25 251.51 728.38 252.58 C 735.28 255.21 742.35 258.87 749.97 257.81 C 751.68 257.80 752.98 255.62 751.80 254.22 C 749.46 252.11 746.28 251.30 743.30 250.58 C 736.58 249.26 729.74 248.71 722.93 248.14 M 664.17 255.32 C 664.47 256.44 664.53 258.05 666.03 258.26 C 669.36 256.88 672.37 254.79 675.87 253.78 C 677.46 253.07 680.33 252.58 679.76 250.22 C 674.04 248.56 668.80 252.52 664.17 255.32 M 646.20 251.25 C 641.54 254.09 637.74 258.23 634.73 262.74 C 632.92 265.70 630.96 269.05 631.41 272.66 C 632.43 275.29 636.08 274.30 637.30 272.32 C 640.81 267.69 643.41 262.44 646.65 257.62 C 647.72 255.58 649.89 253.59 648.95 251.09 C 648.26 251.13 646.89 251.21 646.20 251.25 M 788.09 263.98 C 789.79 268.21 792.99 271.69 795.89 275.16 C 796.97 276.83 798.36 275.03 799.16 274.09 C 796.97 270.24 795.04 266.17 792.18 262.77 C 790.96 261.00 787.41 261.39 788.09 263.98 M 778.23 276.18 C 776.15 277.04 777.28 279.48 777.89 280.96 C 780.80 287.45 785.33 293.33 790.79 297.85 C 792.61 297.08 791.48 295.28 791.10 293.94 C 788.88 288.47 786.57 282.86 782.70 278.32 C 781.60 277.07 780.07 275.41 778.23 276.18 M 640.74 285.83 C 636.29 293.55 632.13 301.92 632.00 311.03 C 633.40 311.12 634.92 310.79 635.36 309.25 C 639.00 302.18 641.21 294.49 644.08 287.10 C 644.76 285.41 645.13 283.62 644.99 281.80 C 642.73 281.97 641.80 284.18 640.74 285.83 M 809.28 285.12 L 808.58 285.57 C 808.11 289.10 809.31 292.61 809.79 296.10 C 810.91 301.36 811.18 306.75 812.10 312.04 C 812.54 311.97 813.42 311.83 813.86 311.75 C 815.94 304.34 815.80 296.07 813.35 288.74 C 812.69 287.16 811.53 283.69 809.28 285.12 M 619.91 313.97 C 618.81 319.00 618.85 324.24 619.58 329.32 C 620.10 332.07 620.42 335.21 622.72 337.14 C 622.58 333.07 621.78 329.07 621.63 325.01 C 621.42 320.68 621.93 316.35 621.84 312.02 C 620.60 312.06 619.96 312.71 619.91 313.97 M 631.62 338.30 C 633.00 341.96 634.95 347.67 639.89 346.87 C 640.03 343.16 636.31 341.12 635.14 337.89 C 634.08 335.79 633.99 333.10 632.09 331.51 C 629.44 332.72 631.25 336.17 631.62 338.30 M 817.33 333.38 C 815.71 334.27 815.40 336.37 814.77 337.95 C 812.38 346.43 811.43 355.28 808.65 363.67 C 808.02 365.74 806.99 367.75 806.94 369.95 C 807.26 372.19 810.08 371.09 810.66 369.62 C 817.02 360.01 823.52 349.00 821.83 336.99 C 821.94 334.70 819.61 332.43 817.33 333.38 M 793.31 339.24 C 791.55 342.88 791.51 347.03 790.98 350.96 C 790.54 356.34 788.99 361.60 789.02 367.03 C 790.25 367.08 792.50 367.70 792.87 365.93 C 795.53 357.58 799.00 348.95 797.88 340.03 C 797.77 337.71 794.19 337.19 793.31 339.24 M 628.10 353.91 C 628.00 355.28 628.16 356.75 629.28 357.71 C 633.93 362.63 639.38 367.38 646.07 369.11 C 647.60 369.67 648.84 368.58 650.02 367.80 C 647.77 363.84 642.99 362.83 639.32 360.68 C 635.34 358.81 632.26 355.41 628.10 353.91 M 772.78 370.81 C 768.79 374.77 763.74 377.34 759.18 380.55 C 759.40 381.36 759.79 382.08 760.35 382.70 C 764.13 382.32 767.64 380.66 771.04 379.05 C 777.12 375.95 783.00 371.14 784.80 364.26 C 784.09 363.56 783.39 362.87 782.70 362.18 C 778.67 364.12 775.97 367.81 772.78 370.81 M 658.21 375.14 C 658.18 375.85 658.13 377.27 658.11 377.98 C 665.28 380.86 673.32 382.23 680.97 380.77 C 682.88 380.63 683.75 377.85 682.39 376.66 C 679.15 375.19 675.50 375.21 672.03 375.13 C 667.42 375.17 662.81 374.89 658.21 375.14 M 792.17 380.19 C 788.05 384.13 784.96 388.99 781.00 393.08 C 779.64 394.83 777.09 396.54 778.25 399.06 C 782.52 397.44 785.52 393.80 788.79 390.78 C 791.89 387.44 795.54 383.90 796.03 379.12 C 794.66 379.12 793.13 379.04 792.17 380.19 M 795.39 408.41 C 791.21 412.22 789.19 417.76 786.66 422.70 C 786.28 423.71 784.95 426.09 787.03 426.13 C 791.31 422.00 795.10 417.12 797.69 411.74 C 798.98 410.11 797.34 407.66 795.39 408.41 Z" />
<path fill="#fbddb3" opacity="1.00" d=" M 185.82 223.50 C 191.86 235.90 201.16 246.82 213.11 253.84 C 230.44 264.31 252.62 265.77 271.39 258.41 C 277.62 256.06 283.25 252.45 288.76 248.76 C 299.10 241.81 310.73 236.31 323.19 234.67 C 336.76 232.87 350.42 236.19 363.03 241.03 C 376.29 246.29 387.05 256.58 394.22 268.78 C 400.06 277.81 402.75 288.45 408.58 297.48 C 420.07 315.51 440.54 327.69 462.00 328.38 C 475.82 328.99 489.54 324.91 501.31 317.78 C 500.53 319.16 499.75 320.55 498.95 321.92 C 483.26 347.91 460.14 369.17 433.38 383.40 C 413.25 394.08 391.11 400.86 368.52 403.73 C 366.45 403.93 364.38 404.12 362.33 404.42 C 353.59 405.31 344.78 405.57 336.00 405.33 C 326.49 405.27 317.36 402.30 308.27 399.84 C 298.74 396.94 289.06 394.20 280.06 389.85 C 264.49 380.93 250.19 369.79 237.54 357.07 C 234.40 353.80 231.17 350.60 228.45 346.96 C 199.37 313.21 182.52 268.24 185.82 223.50 M 318.90 247.81 C 314.93 250.73 314.56 256.78 317.28 260.67 C 319.74 264.29 324.23 265.71 326.90 269.12 C 329.26 272.32 329.84 276.50 332.41 279.57 C 333.67 281.14 335.39 282.24 337.05 283.37 C 334.07 294.80 324.60 304.44 312.87 306.74 C 303.67 309.01 294.83 304.17 285.66 304.21 C 293.92 309.10 303.82 312.14 313.45 310.32 C 323.12 308.43 331.46 302.28 337.58 294.75 C 338.81 304.98 343.35 315.00 350.89 322.12 C 359.08 329.71 370.80 332.21 381.68 331.59 C 376.47 328.70 370.41 328.12 364.85 326.19 C 357.66 323.95 351.54 318.83 347.65 312.44 C 343.50 305.74 342.89 297.52 343.48 289.85 C 343.75 287.61 344.43 284.70 347.07 284.32 C 350.88 283.40 353.69 280.51 357.15 278.86 C 361.83 276.65 367.50 278.84 372.02 276.09 C 375.82 273.96 378.05 269.11 376.43 264.93 C 374.58 259.59 369.27 256.76 364.44 254.58 C 354.68 250.33 344.38 247.24 333.87 245.55 C 328.84 244.77 323.13 244.49 318.90 247.81 Z" />
<path fill="#fbddb3" opacity="1.00" d=" M 379.33 435.25 C 407.20 423.76 434.27 409.19 456.39 388.42 C 448.69 409.19 437.53 429.02 421.74 444.73 C 409.51 457.04 394.83 466.48 381.68 477.72 C 378.36 480.40 375.46 483.63 371.79 485.86 C 348.42 499.36 325.38 513.45 301.62 526.26 C 299.85 523.13 298.33 519.72 295.61 517.28 C 294.70 517.46 293.80 517.67 292.92 517.92 C 293.77 521.63 293.72 526.50 297.62 528.47 C 291.30 531.75 284.99 535.05 278.60 538.20 C 276.15 534.68 273.87 531.05 271.62 527.41 C 270.70 526.15 269.96 524.45 268.28 524.13 C 266.70 525.34 267.60 527.37 268.07 528.91 C 269.61 533.07 271.85 537.22 275.73 539.63 C 270.36 542.16 264.98 544.72 259.51 547.03 C 244.80 523.04 238.01 494.82 237.52 466.85 C 237.48 463.02 237.22 459.19 237.28 455.36 C 265.67 460.49 294.99 458.97 323.11 452.94 C 321.43 457.12 319.17 461.69 321.03 466.23 C 325.38 462.22 327.84 456.69 330.14 451.36 C 346.93 447.32 363.36 441.83 379.33 435.25 M 357.05 452.00 C 354.62 456.13 351.28 460.17 350.86 465.11 C 353.30 464.88 354.45 462.54 355.92 460.91 C 358.89 456.99 363.39 454.09 364.83 449.17 C 361.93 446.42 358.55 449.28 357.05 452.00 M 296.64 459.60 C 292.33 465.01 292.69 472.51 293.34 479.01 C 295.74 477.97 295.62 474.76 296.70 472.70 C 298.15 468.15 300.93 463.96 301.09 459.08 C 299.62 458.05 297.71 457.98 296.64 459.60 M 249.96 466.00 C 250.28 470.58 250.22 475.71 253.04 479.59 C 254.91 476.07 254.10 471.88 254.30 468.06 C 253.99 466.10 254.75 463.37 252.79 462.13 C 250.49 461.29 249.78 464.34 249.96 466.00 M 264.92 479.02 C 264.57 483.19 265.03 487.79 267.85 491.11 C 268.67 489.83 269.59 488.50 269.59 486.92 C 269.77 482.97 270.29 478.54 267.86 475.12 C 265.49 474.38 265.38 477.48 264.92 479.02 Z" />
<path fill="#fbddb3" opacity="1.00" d=" M 802.92 518.18 C 801.77 517.13 800.08 516.28 800.02 514.53 C 808.22 518.14 816.73 521.00 825.16 524.03 C 838.59 528.64 852.18 532.87 865.11 538.80 C 875.11 543.36 885.14 548.24 893.73 555.18 C 896.96 558.01 900.38 561.40 900.88 565.90 C 901.87 574.38 900.31 582.86 898.62 591.15 C 890.02 592.77 881.26 592.31 872.67 591.02 C 879.60 595.69 887.78 598.02 895.86 599.79 C 893.66 605.21 891.30 610.94 886.76 614.84 C 884.16 617.11 880.13 617.92 877.27 615.63 C 872.45 613.07 866.94 612.33 862.04 609.95 C 858.28 608.39 855.29 605.57 852.09 603.15 C 852.84 606.48 855.45 608.92 857.69 611.34 C 862.33 616.12 868.41 619.08 874.56 621.43 C 872.24 625.23 868.63 628.36 864.18 629.25 C 855.69 631.25 846.93 627.11 841.14 621.01 C 837.06 616.93 833.93 611.16 827.89 609.78 C 817.18 607.04 805.94 607.74 795.03 608.56 C 792.81 605.03 790.93 601.14 790.82 596.90 C 790.22 587.94 795.62 579.79 802.23 574.24 C 808.30 568.87 816.58 566.12 821.37 559.33 C 825.13 554.04 824.15 546.96 821.58 541.38 C 817.40 532.27 810.86 524.27 802.92 518.18 Z" />
<path fill="#fbddb3" opacity="1.00" d=" M 119.99 525.22 C 127.71 525.06 135.35 523.89 143.02 523.20 C 140.38 526.39 136.07 527.02 132.37 528.33 C 116.05 533.52 99.01 535.88 82.04 537.79 C 75.92 538.49 69.16 539.97 65.03 544.95 C 62.89 547.24 63.44 550.51 63.97 553.29 C 60.47 549.73 58.23 544.39 59.67 539.42 C 61.13 534.48 65.16 530.63 69.83 528.66 C 75.86 526.09 82.51 525.66 88.98 525.28 C 99.31 525.07 109.65 525.33 119.99 525.22 Z" />
<path fill="#fbddb3" opacity="1.00" d=" M 99.41 550.49 C 106.58 549.09 113.78 547.61 121.09 547.22 C 111.69 550.55 101.89 553.11 93.20 558.15 C 87.96 561.23 83.32 565.93 81.90 572.01 C 80.53 576.42 82.03 580.95 82.64 585.35 C 77.87 583.65 72.81 579.56 73.01 574.02 C 73.08 570.43 73.92 566.80 75.80 563.73 C 77.47 560.87 79.24 557.86 82.21 556.17 C 87.43 553.01 93.55 551.89 99.41 550.49 Z" />
<path fill="#fbddb3" opacity="1.00" d=" M 163.17 560.62 C 165.96 553.27 173.86 547.44 181.91 549.18 C 189.58 550.91 192.55 559.58 199.71 562.25 C 207.93 563.73 216.10 561.08 224.03 559.23 C 225.99 562.13 228.09 565.27 227.99 568.93 C 227.87 575.94 224.32 582.85 226.44 589.88 C 228.93 598.55 236.05 604.67 242.47 610.54 C 248.64 615.96 254.36 622.37 256.83 630.38 C 238.18 630.84 219.56 635.00 200.90 632.61 C 186.56 630.80 172.37 623.92 163.83 611.98 C 161.05 608.18 159.06 603.89 157.21 599.59 L 157.56 599.45 C 161.94 598.13 165.37 594.58 169.99 593.99 C 175.17 592.92 180.29 594.57 185.25 595.88 C 177.29 588.39 165.10 587.19 155.04 590.60 C 154.39 584.05 154.07 577.08 156.91 570.97 C 157.92 568.81 159.48 566.44 162.04 566.09 C 168.63 565.79 174.81 568.64 180.41 571.83 C 177.00 565.39 170.11 561.84 163.17 560.62 Z" />
<path fill="#fbddb3" opacity="1.00" d=" M 624.47 590.39 C 626.14 591.29 627.91 591.95 629.73 592.51 C 631.66 592.99 633.62 593.48 635.35 594.54 C 642.14 598.53 648.78 602.77 655.68 606.58 C 642.61 608.68 629.61 611.38 616.50 613.33 C 565.28 621.22 513.68 626.86 461.92 629.63 C 440.02 630.73 418.01 629.36 396.37 625.87 C 416.97 621.66 438.00 613.05 451.07 595.82 C 471.03 597.68 490.92 600.41 510.92 601.95 C 548.96 605.05 588.38 604.07 624.47 590.39 Z" />
</g>
<g id="#5b4b40ff">
<path fill="#5b4b40" opacity="1.00" d=" M 276.39 205.09 C 276.74 200.48 280.28 196.30 285.02 195.93 C 291.92 194.91 301.63 199.17 300.57 207.40 C 299.42 212.36 295.57 217.68 290.02 217.68 C 283.49 217.13 276.11 212.37 276.39 205.09 M 285.40 198.57 C 283.26 199.45 281.60 201.57 281.49 203.92 C 281.15 205.49 283.62 207.39 284.66 205.73 C 286.31 203.78 288.46 202.44 290.53 200.99 C 290.91 198.27 287.31 197.49 285.40 198.57 Z" />
<path fill="#5b4b40" opacity="1.00" d=" M 411.45 228.62 C 417.13 226.92 423.97 228.70 427.77 233.34 C 430.78 237.64 428.59 243.30 425.39 246.83 C 423.19 249.04 419.95 250.49 416.82 249.62 C 410.79 248.38 404.40 243.61 405.06 236.79 C 405.62 233.19 407.83 229.71 411.45 228.62 M 414.45 230.57 C 411.53 231.41 408.62 235.56 411.10 238.20 C 412.90 239.33 413.94 237.01 415.08 236.07 C 416.28 234.52 419.25 234.39 419.21 232.01 C 418.26 230.41 416.12 229.83 414.45 230.57 Z" />
<path fill="#5b4b40" opacity="1.00" d=" M 318.90 247.81 C 323.13 244.49 328.84 244.77 333.87 245.55 C 344.38 247.24 354.68 250.33 364.44 254.58 C 369.27 256.76 374.58 259.59 376.43 264.93 C 378.05 269.11 375.82 273.96 372.02 276.09 C 367.50 278.84 361.83 276.65 357.15 278.86 C 353.69 280.51 350.88 283.40 347.07 284.32 C 344.43 284.70 343.75 287.61 343.48 289.85 C 342.89 297.52 343.50 305.74 347.65 312.44 C 351.54 318.83 357.66 323.95 364.85 326.19 C 370.41 328.12 376.47 328.70 381.68 331.59 C 370.80 332.21 359.08 329.71 350.89 322.12 C 343.35 315.00 338.81 304.98 337.58 294.75 C 331.46 302.28 323.12 308.43 313.45 310.32 C 303.82 312.14 293.92 309.10 285.66 304.21 C 294.83 304.17 303.67 309.01 312.87 306.74 C 324.60 304.44 334.07 294.80 337.05 283.37 C 335.39 282.24 333.67 281.14 332.41 279.57 C 329.84 276.50 329.26 272.32 326.90 269.12 C 324.23 265.71 319.74 264.29 317.28 260.67 C 314.56 256.78 314.93 250.73 318.90 247.81 Z" />
</g>
<g id="#ffffffff">
<path fill="#ffffff" opacity="1.00" d=" M 285.40 198.57 C 287.31 197.49 290.91 198.27 290.53 200.99 C 288.46 202.44 286.31 203.78 284.66 205.73 C 283.62 207.39 281.15 205.49 281.49 203.92 C 281.60 201.57 283.26 199.45 285.40 198.57 Z" />
<path fill="#ffffff" opacity="1.00" d=" M 414.45 230.57 C 416.12 229.83 418.26 230.41 419.21 232.01 C 419.25 234.39 416.28 234.52 415.08 236.07 C 413.94 237.01 412.90 239.33 411.10 238.20 C 408.62 235.56 411.53 231.41 414.45 230.57 Z" />
</g>
<g id="#7d86beff">
<path fill="#7d86be" opacity="1.00" d=" M 493.96 253.33 C 512.79 233.13 541.50 225.12 568.44 225.54 L 568.17 226.59 C 564.98 233.25 559.24 238.03 553.75 242.73 C 538.61 256.52 519.61 265.60 499.81 270.44 C 497.22 265.23 495.17 259.74 493.75 254.09 L 493.96 253.33 Z" />
<path fill="#7d86be" opacity="1.00" d=" M 503.02 276.18 C 509.49 276.48 515.93 275.82 522.38 275.48 C 523.95 275.78 525.53 275.86 527.13 275.71 C 549.59 273.60 573.07 281.23 589.39 296.94 L 588.67 297.27 C 579.91 301.40 571.37 306.08 562.15 309.17 C 541.81 316.11 520.73 323.01 498.95 321.92 C 499.75 320.55 500.53 319.16 501.31 317.78 C 505.71 309.85 510.14 301.23 509.64 291.90 C 509.42 286.02 506.09 280.97 503.02 276.18 Z" />
<path fill="#7d86be" opacity="1.00" d=" M 228.45 346.96 C 231.17 350.60 234.40 353.80 237.54 357.07 C 237.45 358.73 237.25 360.45 237.78 362.07 C 240.02 369.57 243.75 376.52 247.87 383.14 C 253.43 392.25 260.16 400.95 269.22 406.81 C 280.87 414.51 295.27 416.74 309.01 416.01 C 322.50 415.35 335.61 411.87 348.64 408.58 C 353.25 407.34 358.13 406.85 362.33 404.42 C 364.38 404.12 366.45 403.93 368.52 403.73 C 363.77 408.34 357.53 410.86 351.64 413.63 C 330.01 422.98 306.28 425.82 282.95 427.15 C 276.25 427.66 269.49 427.43 262.84 428.46 C 286.72 434.44 311.36 429.27 335.04 424.89 C 351.86 421.84 368.39 417.37 385.16 414.10 C 379.89 417.75 374.11 420.56 368.30 423.23 C 347.79 432.28 325.89 437.62 303.98 442.00 C 285.04 445.84 265.89 448.62 246.66 450.53 C 240.66 451.16 234.59 451.23 228.68 452.54 L 228.63 452.55 C 226.14 442.23 226.02 431.54 225.38 421.00 C 224.21 396.33 223.50 371.30 228.45 346.96 Z" />
</g>
<g id="#5770b1ff">
<path fill="#5770b1" opacity="1.00" d=" M 553.75 242.73 C 559.24 238.03 564.98 233.25 568.17 226.59 C 570.46 242.94 560.04 258.36 546.62 266.72 C 539.34 271.52 530.82 273.74 522.38 275.48 C 515.93 275.82 509.49 276.48 503.02 276.18 C 501.87 274.31 500.79 272.39 499.81 270.44 C 519.61 265.60 538.61 256.52 553.75 242.73 Z" />
<path fill="#5770b1" opacity="1.00" d=" M 562.15 309.17 C 571.37 306.08 579.91 301.40 588.67 297.27 C 584.94 303.20 579.71 308.02 574.18 312.25 C 563.06 320.53 550.98 327.48 538.40 333.28 C 521.92 340.23 504.68 346.70 486.63 347.36 C 479.27 362.83 468.62 376.52 456.39 388.42 C 434.27 409.19 407.20 423.76 379.33 435.25 C 363.36 441.83 346.93 447.32 330.14 451.36 C 327.80 451.91 325.46 452.44 323.11 452.94 C 294.99 458.97 265.67 460.49 237.28 455.36 C 234.50 454.42 230.57 455.08 228.68 452.54 C 234.59 451.23 240.66 451.16 246.66 450.53 C 265.89 448.62 285.04 445.84 303.98 442.00 C 325.89 437.62 347.79 432.28 368.30 423.23 C 374.11 420.56 379.89 417.75 385.16 414.10 C 368.39 417.37 351.86 421.84 335.04 424.89 C 311.36 429.27 286.72 434.44 262.84 428.46 C 269.49 427.43 276.25 427.66 282.95 427.15 C 306.28 425.82 330.01 422.98 351.64 413.63 C 357.53 410.86 363.77 408.34 368.52 403.73 C 391.11 400.86 413.25 394.08 433.38 383.40 C 460.14 369.17 483.26 347.91 498.95 321.92 C 520.73 323.01 541.81 316.11 562.15 309.17 Z" />
<path fill="#5770b1" opacity="1.00" d=" M 237.78 362.07 C 237.25 360.45 237.45 358.73 237.54 357.07 C 250.19 369.79 264.49 380.93 280.06 389.85 C 289.06 394.20 298.74 396.94 308.27 399.84 C 317.36 402.30 326.49 405.27 336.00 405.33 C 344.78 405.57 353.59 405.31 362.33 404.42 C 358.13 406.85 353.25 407.34 348.64 408.58 C 335.61 411.87 322.50 415.35 309.01 416.01 C 295.27 416.74 280.87 414.51 269.22 406.81 C 260.16 400.95 253.43 392.25 247.87 383.14 C 243.75 376.52 240.02 369.57 237.78 362.07 Z" />
</g>
<g id="#faebd4ff">
<path fill="#faebd4" opacity="1.00" d=" M 682.09 230.19 C 686.54 229.21 691.32 228.67 695.72 230.24 C 695.77 230.89 695.87 232.20 695.92 232.85 C 691.30 233.19 686.67 233.06 682.05 232.95 C 680.21 233.51 680.27 229.88 682.09 230.19 Z" />
<path fill="#faebd4" opacity="1.00" d=" M 714.89 232.09 C 721.77 231.54 728.77 231.46 735.62 232.47 C 737.39 232.63 736.76 234.90 737.05 236.08 C 730.31 238.16 723.13 236.52 716.67 234.28 C 715.62 233.95 715.03 233.22 714.89 232.09 Z" />
<path fill="#faebd4" opacity="1.00" d=" M 758.03 235.13 C 768.26 236.08 777.58 241.32 785.13 248.08 C 784.54 248.93 783.54 250.54 782.36 249.49 C 775.81 245.06 768.75 241.39 761.35 238.58 C 759.83 237.85 757.40 237.35 758.03 235.13 Z" />
<path fill="#faebd4" opacity="1.00" d=" M 722.93 248.14 C 729.74 248.71 736.58 249.26 743.30 250.58 C 746.28 251.30 749.46 252.11 751.80 254.22 C 752.98 255.62 751.68 257.80 749.97 257.81 C 742.35 258.87 735.28 255.21 728.38 252.58 C 726.25 251.51 723.05 251.07 722.93 248.14 Z" />
<path fill="#faebd4" opacity="1.00" d=" M 664.17 255.32 C 668.80 252.52 674.04 248.56 679.76 250.22 C 680.33 252.58 677.46 253.07 675.87 253.78 C 672.37 254.79 669.36 256.88 666.03 258.26 C 664.53 258.05 664.47 256.44 664.17 255.32 Z" />
<path fill="#faebd4" opacity="1.00" d=" M 646.20 251.25 C 646.89 251.21 648.26 251.13 648.95 251.09 C 649.89 253.59 647.72 255.58 646.65 257.62 C 643.41 262.44 640.81 267.69 637.30 272.32 C 636.08 274.30 632.43 275.29 631.41 272.66 C 630.96 269.05 632.92 265.70 634.73 262.74 C 637.74 258.23 641.54 254.09 646.20 251.25 Z" />
<path fill="#faebd4" opacity="1.00" d=" M 788.09 263.98 C 787.41 261.39 790.96 261.00 792.18 262.77 C 795.04 266.17 796.97 270.24 799.16 274.09 C 798.36 275.03 796.97 276.83 795.89 275.16 C 792.99 271.69 789.79 268.21 788.09 263.98 Z" />
<path fill="#faebd4" opacity="1.00" d=" M 778.23 276.18 C 780.07 275.41 781.60 277.07 782.70 278.32 C 786.57 282.86 788.88 288.47 791.10 293.94 C 791.48 295.28 792.61 297.08 790.79 297.85 C 785.33 293.33 780.80 287.45 777.89 280.96 C 777.28 279.48 776.15 277.04 778.23 276.18 Z" />
<path fill="#faebd4" opacity="1.00" d=" M 640.74 285.83 C 641.80 284.18 642.73 281.97 644.99 281.80 C 645.13 283.62 644.76 285.41 644.08 287.10 C 641.21 294.49 639.00 302.18 635.36 309.25 C 634.92 310.79 633.40 311.12 632.00 311.03 C 632.13 301.92 636.29 293.55 640.74 285.83 Z" />
<path fill="#faebd4" opacity="1.00" d=" M 809.28 285.12 C 811.53 283.69 812.69 287.16 813.35 288.74 C 815.80 296.07 815.94 304.34 813.86 311.75 C 813.42 311.83 812.54 311.97 812.10 312.04 C 811.18 306.75 810.91 301.36 809.79 296.10 C 809.31 292.61 808.11 289.10 808.58 285.57 L 809.28 285.12 Z" />
<path fill="#faebd4" opacity="1.00" d=" M 619.91 313.97 C 619.96 312.71 620.60 312.06 621.84 312.02 C 621.93 316.35 621.42 320.68 621.63 325.01 C 621.78 329.07 622.58 333.07 622.72 337.14 C 620.42 335.21 620.10 332.07 619.58 329.32 C 618.85 324.24 618.81 319.00 619.91 313.97 Z" />
<path fill="#faebd4" opacity="1.00" d=" M 631.62 338.30 C 631.25 336.17 629.44 332.72 632.09 331.51 C 633.99 333.10 634.08 335.79 635.14 337.89 C 636.31 341.12 640.03 343.16 639.89 346.87 C 634.95 347.67 633.00 341.96 631.62 338.30 Z" />
<path fill="#faebd4" opacity="1.00" d=" M 817.33 333.38 C 819.61 332.43 821.94 334.70 821.83 336.99 C 823.52 349.00 817.02 360.01 810.66 369.62 C 810.08 371.09 807.26 372.19 806.94 369.95 C 806.99 367.75 808.02 365.74 808.65 363.67 C 811.43 355.28 812.38 346.43 814.77 337.95 C 815.40 336.37 815.71 334.27 817.33 333.38 Z" />
<path fill="#faebd4" opacity="1.00" d=" M 793.31 339.24 C 794.19 337.19 797.77 337.71 797.88 340.03 C 799.00 348.95 795.53 357.58 792.87 365.93 C 792.50 367.70 790.25 367.08 789.02 367.03 C 788.99 361.60 790.54 356.34 790.98 350.96 C 791.51 347.03 791.55 342.88 793.31 339.24 Z" />
<path fill="#faebd4" opacity="1.00" d=" M 628.10 353.91 C 632.26 355.41 635.34 358.81 639.32 360.68 C 642.99 362.83 647.77 363.84 650.02 367.80 C 648.84 368.58 647.60 369.67 646.07 369.11 C 639.38 367.38 633.93 362.63 629.28 357.71 C 628.16 356.75 628.00 355.28 628.10 353.91 Z" />
<path fill="#faebd4" opacity="1.00" d=" M 772.78 370.81 C 775.97 367.81 778.67 364.12 782.70 362.18 C 783.39 362.87 784.09 363.56 784.80 364.26 C 783.00 371.14 777.12 375.95 771.04 379.05 C 767.64 380.66 764.13 382.32 760.35 382.70 C 759.79 382.08 759.40 381.36 759.18 380.55 C 763.74 377.34 768.79 374.77 772.78 370.81 Z" />
<path fill="#faebd4" opacity="1.00" d=" M 658.21 375.14 C 662.81 374.89 667.42 375.17 672.03 375.13 C 675.50 375.21 679.15 375.19 682.39 376.66 C 683.75 377.85 682.88 380.63 680.97 380.77 C 673.32 382.23 665.28 380.86 658.11 377.98 C 658.13 377.27 658.18 375.85 658.21 375.14 Z" />
<path fill="#faebd4" opacity="1.00" d=" M 792.17 380.19 C 793.13 379.04 794.66 379.12 796.03 379.12 C 795.54 383.90 791.89 387.44 788.79 390.78 C 785.52 393.80 782.52 397.44 778.25 399.06 C 777.09 396.54 779.64 394.83 781.00 393.08 C 784.96 388.99 788.05 384.13 792.17 380.19 Z" />
<path fill="#faebd4" opacity="1.00" d=" M 795.39 408.41 C 797.34 407.66 798.98 410.11 797.69 411.74 C 795.10 417.12 791.31 422.00 787.03 426.13 C 784.95 426.09 786.28 423.71 786.66 422.70 C 789.19 417.76 791.21 412.22 795.39 408.41 Z" />
<path fill="#faebd4" opacity="1.00" d=" M 357.05 452.00 C 358.55 449.28 361.93 446.42 364.83 449.17 C 363.39 454.09 358.89 456.99 355.92 460.91 C 354.45 462.54 353.30 464.88 350.86 465.11 C 351.28 460.17 354.62 456.13 357.05 452.00 Z" />
<path fill="#faebd4" opacity="1.00" d=" M 323.11 452.94 C 325.46 452.44 327.80 451.91 330.14 451.36 C 327.84 456.69 325.38 462.22 321.03 466.23 C 319.17 461.69 321.43 457.12 323.11 452.94 Z" />
<path fill="#faebd4" opacity="1.00" d=" M 296.64 459.60 C 297.71 457.98 299.62 458.05 301.09 459.08 C 300.93 463.96 298.15 468.15 296.70 472.70 C 295.62 474.76 295.74 477.97 293.34 479.01 C 292.69 472.51 292.33 465.01 296.64 459.60 Z" />
<path fill="#faebd4" opacity="1.00" d=" M 249.96 466.00 C 249.78 464.34 250.49 461.29 252.79 462.13 C 254.75 463.37 253.99 466.10 254.30 468.06 C 254.10 471.88 254.91 476.07 253.04 479.59 C 250.22 475.71 250.28 470.58 249.96 466.00 Z" />
<path fill="#faebd4" opacity="1.00" d=" M 264.92 479.02 C 265.38 477.48 265.49 474.38 267.86 475.12 C 270.29 478.54 269.77 482.97 269.59 486.92 C 269.59 488.50 268.67 489.83 267.85 491.11 C 265.03 487.79 264.57 483.19 264.92 479.02 Z" />
<path fill="#faebd4" opacity="1.00" d=" M 292.92 517.92 C 293.80 517.67 294.70 517.46 295.61 517.28 C 298.33 519.72 299.85 523.13 301.62 526.26 C 300.28 526.99 298.95 527.73 297.62 528.47 C 293.72 526.50 293.77 521.63 292.92 517.92 Z" />
<path fill="#faebd4" opacity="1.00" d=" M 268.28 524.13 C 269.96 524.45 270.70 526.15 271.62 527.41 C 273.87 531.05 276.15 534.68 278.60 538.20 C 277.88 538.55 276.45 539.27 275.73 539.63 C 271.85 537.22 269.61 533.07 268.07 528.91 C 267.60 527.37 266.70 525.34 268.28 524.13 Z" />
</g>
<g id="#f9db94ff">
<path fill="#f9db94" opacity="1.00" d=" M 705.53 356.19 C 705.96 356.07 706.83 355.83 707.26 355.71 C 709.82 356.66 705.01 358.34 705.53 356.19 Z" />
</g>
<g id="#f4c79eff">
<path fill="#f4c79e" opacity="1.00" d=" M 817.97 436.08 C 829.52 433.98 841.09 430.60 852.94 431.58 C 858.15 432.20 863.79 433.29 867.72 437.06 C 874.31 443.27 879.25 450.99 885.69 457.35 C 892.03 462.93 898.55 468.95 901.63 477.03 C 904.46 484.08 903.41 492.73 898.41 498.55 C 895.62 501.84 891.24 503.56 886.96 503.22 C 881.97 502.85 877.11 501.20 872.07 501.53 C 863.15 501.92 855.00 506.10 847.55 510.69 C 844.38 508.84 841.17 506.95 838.59 504.32 C 834.92 500.67 831.97 496.18 827.44 493.49 C 818.76 488.20 807.72 487.93 799.77 481.29 C 795.99 478.36 793.53 473.82 793.45 469.01 C 792.85 457.94 797.80 447.57 803.45 438.37 C 808.24 437.32 813.16 437.08 817.97 436.08 Z" />
<path fill="#f4c79e" opacity="1.00" d=" M 148.91 521.64 C 154.97 519.28 161.25 517.54 167.33 515.25 C 168.72 516.94 170.05 518.79 172.00 519.88 C 179.73 524.53 189.79 521.50 197.29 526.72 C 201.94 529.82 203.12 535.88 202.59 541.10 C 201.92 548.19 200.15 555.13 199.71 562.25 C 192.55 559.58 189.58 550.91 181.91 549.18 C 173.86 547.44 165.96 553.27 163.17 560.62 C 170.11 561.84 177.00 565.39 180.41 571.83 C 174.81 568.64 168.63 565.79 162.04 566.09 C 159.48 566.44 157.92 568.81 156.91 570.97 C 154.07 577.08 154.39 584.05 155.04 590.60 C 165.10 587.19 177.29 588.39 185.25 595.88 C 180.29 594.57 175.17 592.92 169.99 593.99 C 165.37 594.58 161.94 598.13 157.56 599.45 C 156.64 598.12 155.77 596.76 154.97 595.36 C 145.71 597.17 136.47 599.17 127.13 600.58 C 120.61 601.53 113.57 601.58 107.58 598.49 C 102.36 595.86 98.06 590.78 97.69 584.76 C 92.76 585.76 87.70 586.28 82.68 585.62 L 82.64 585.35 C 82.03 580.95 80.53 576.42 81.90 572.01 C 83.32 565.93 87.96 561.23 93.20 558.15 C 101.89 553.11 111.69 550.55 121.09 547.22 C 113.78 547.61 106.58 549.09 99.41 550.49 C 93.55 551.89 87.43 553.01 82.21 556.17 C 79.24 557.86 77.47 560.87 75.80 563.73 C 75.79 563.39 75.77 562.71 75.76 562.37 C 70.82 560.99 66.68 557.60 63.97 553.29 C 63.44 550.51 62.89 547.24 65.03 544.95 C 69.16 539.97 75.92 538.49 82.04 537.79 C 99.01 535.88 116.05 533.52 132.37 528.33 C 136.07 527.02 140.38 526.39 143.02 523.20 L 143.14 523.08 C 145.12 522.85 147.07 522.42 148.91 521.64 Z" />
<path fill="#f4c79e" opacity="1.00" d=" M 872.67 591.02 C 881.26 592.31 890.02 592.77 898.62 591.15 C 897.98 594.11 897.40 597.14 895.86 599.79 C 887.78 598.02 879.60 595.69 872.67 591.02 Z" />
<path fill="#f4c79e" opacity="1.00" d=" M 857.69 611.34 C 855.45 608.92 852.84 606.48 852.09 603.15 C 855.29 605.57 858.28 608.39 862.04 609.95 C 866.94 612.33 872.45 613.07 877.27 615.63 C 876.74 617.72 876.12 619.85 874.56 621.43 C 868.41 619.08 862.33 616.12 857.69 611.34 Z" />
</g>
</svg>
