<?xml version="1.0" encoding="UTF-8" ?>
<!DOCTYPE svg PUBLIC "-//W3C//DTD SVG 1.1//EN" "http://www.w3.org/Graphics/SVG/1.1/DTD/svg11.dtd">
<svg width="1276pt" height="1172pt" viewBox="0 0 1276 1172" version="1.1" xmlns="http://www.w3.org/2000/svg">
<g id="#f2b61bff">
<path fill="#f2b61b" opacity="1.00" d=" M 580.22 141.15 C 586.73 136.35 593.88 131.70 602.10 130.72 C 607.84 129.93 613.61 132.00 618.14 135.45 C 619.14 140.37 621.67 144.90 621.99 149.97 C 623.36 181.36 619.63 212.83 612.44 243.38 C 611.69 246.57 610.53 249.69 610.22 252.96 C 611.13 255.14 612.98 256.74 614.45 258.53 C 619.84 264.39 624.58 270.82 629.00 277.43 C 639.17 292.93 646.87 310.05 658.61 324.51 C 663.90 331.17 670.07 337.08 676.57 342.56 C 682.37 347.46 687.50 353.57 689.64 361.00 C 693.20 372.69 691.51 385.15 689.17 396.91 C 688.69 398.62 688.72 400.58 687.72 402.10 C 677.73 412.61 666.31 421.93 653.09 428.08 C 634.56 437.04 613.32 440.32 592.97 437.03 C 572.46 433.78 552.87 424.49 537.63 410.34 C 527.71 401.19 520.24 389.78 510.49 380.48 C 499.40 369.71 486.66 360.32 472.12 354.79 C 459.05 349.71 444.92 347.96 430.97 348.33 C 413.57 348.31 395.85 351.24 380.28 359.29 C 368.95 365.04 358.95 373.09 349.98 382.03 C 341.61 390.34 334.87 400.13 326.45 408.40 C 307.57 426.90 281.45 437.78 255.03 438.24 C 229.42 438.83 203.99 428.97 184.78 412.17 C 181.09 409.04 177.89 405.40 174.32 402.16 C 171.97 395.09 171.15 387.48 170.49 380.07 C 169.91 370.58 171.06 360.50 176.42 352.42 C 180.58 346.02 186.91 341.59 192.40 336.43 C 206.00 324.06 216.58 308.90 226.99 293.87 C 228.26 292.56 227.72 290.69 227.72 289.09 C 226.54 266.61 221.61 244.53 220.17 222.08 C 219.35 209.39 218.67 196.68 218.50 183.96 C 218.47 172.83 217.26 161.18 221.51 150.60 C 223.96 144.10 229.68 139.38 236.23 137.35 L 237.04 137.71 C 240.87 139.58 245.20 140.12 248.96 142.14 C 254.58 145.28 259.67 149.26 264.65 153.33 C 287.68 171.55 308.28 192.74 326.28 215.92 C 334.80 213.09 343.42 210.53 352.30 209.08 C 381.90 204.08 412.08 204.16 441.99 205.58 C 461.98 206.66 481.93 208.47 501.79 211.05 C 515.29 198.48 527.58 184.63 541.63 172.65 C 554.17 161.76 567.02 151.23 580.22 141.15 M 574.86 181.82 C 563.56 193.50 552.25 205.22 541.79 217.67 C 560.58 222.72 578.44 230.93 594.99 241.12 C 597.46 227.52 599.34 213.82 600.90 200.09 C 601.52 194.01 602.57 187.60 600.36 181.72 C 598.67 177.09 594.29 173.01 589.11 173.33 C 583.28 173.71 578.79 177.93 574.86 181.82 M 248.58 184.53 C 245.49 190.95 247.37 198.28 248.25 205.00 C 251.09 222.26 253.65 239.63 258.14 256.56 C 273.69 242.94 291.01 231.35 309.83 222.72 C 298.70 210.69 287.23 198.96 275.26 187.76 C 270.97 183.73 266.11 179.52 259.99 178.96 C 255.54 178.36 250.61 180.37 248.58 184.53 M 522.29 248.44 C 519.47 249.10 517.73 252.30 519.14 254.96 C 520.94 258.82 525.91 258.70 529.12 260.80 C 533.52 263.69 538.75 265.21 544.01 265.10 C 545.92 264.97 547.20 262.71 546.12 261.04 C 542.16 252.45 531.85 245.66 522.29 248.44 M 311.13 251.11 C 303.94 253.37 299.88 260.41 296.50 266.63 C 295.14 268.70 296.57 271.57 299.06 271.61 C 307.37 272.12 315.28 267.76 321.16 262.19 C 324.18 259.57 325.36 253.92 321.65 251.40 C 318.37 249.93 314.53 250.20 311.13 251.11 M 519.37 274.42 C 508.98 277.20 499.28 283.17 493.03 292.02 C 487.91 300.64 486.05 311.75 490.22 321.11 C 487.55 323.31 485.24 325.99 483.74 329.12 C 489.30 327.26 495.16 326.55 501.02 326.65 C 523.23 326.26 545.83 329.76 565.98 339.43 C 565.04 335.12 564.64 330.38 561.52 326.96 C 563.51 322.54 565.86 318.03 565.03 312.99 C 563.57 299.78 554.81 288.31 544.22 280.76 C 537.17 275.56 528.13 272.40 519.37 274.42 M 295.84 286.89 C 286.80 294.49 279.43 304.95 277.99 316.91 C 277.29 322.17 279.05 327.42 282.15 331.64 C 278.92 335.24 278.62 340.20 277.67 344.70 C 295.98 335.34 316.51 330.98 336.98 330.23 C 344.58 329.80 352.35 329.74 359.68 332.10 C 358.08 328.97 355.63 326.37 352.90 324.21 C 357.45 313.37 354.28 300.09 346.30 291.67 C 339.30 284.50 330.06 279.16 320.01 277.99 C 311.04 277.00 302.69 281.57 295.84 286.89 Z" />
<path fill="#f2b61b" opacity="1.00" d=" M 989.84 400.83 C 1020.12 388.67 1055.27 392.33 1084.00 407.05 C 1098.77 414.73 1112.42 425.16 1122.33 438.64 C 1129.45 448.18 1132.76 460.13 1132.73 471.95 C 1132.86 492.16 1129.43 512.64 1121.18 531.17 C 1115.46 542.35 1105.86 551.05 1100.34 562.37 C 1098.97 565.19 1098.05 569.02 1100.50 571.56 C 1105.82 577.65 1113.61 580.99 1118.79 587.25 C 1123.73 593.07 1128.32 599.27 1131.89 606.04 C 1134.99 613.42 1136.84 621.26 1139.07 628.94 C 1142.16 640.53 1145.30 652.14 1147.39 663.96 C 1148.68 674.59 1148.21 685.33 1148.31 696.02 C 1148.06 719.89 1142.69 743.36 1135.49 766.02 C 1127.67 790.75 1117.72 814.72 1109.16 839.19 C 1103.50 855.07 1098.60 871.30 1096.04 888.00 C 1094.12 899.88 1093.08 911.89 1092.72 923.92 C 1092.51 925.44 1092.90 927.18 1092.13 928.58 C 1089.30 932.28 1088.82 937.01 1087.29 941.28 C 1082.80 954.53 1075.69 966.95 1066.30 977.35 C 1060.91 983.21 1054.16 988.43 1046.12 989.77 C 1038.86 991.00 1031.65 988.18 1025.57 984.42 C 1017.97 979.75 1011.25 973.73 1003.28 969.64 C 993.14 964.26 981.34 961.11 969.87 963.24 C 960.08 965.01 951.44 971.35 946.38 979.86 C 932.85 953.13 917.65 927.30 902.64 901.38 C 900.38 897.67 898.69 893.57 895.68 890.37 C 895.69 890.08 895.73 889.50 895.74 889.21 C 891.15 881.29 886.87 873.18 882.30 865.25 C 807.72 880.22 732.83 894.42 657.06 901.82 C 653.96 920.48 650.81 939.20 649.13 958.03 C 648.26 969.96 647.41 981.89 646.91 993.84 C 646.75 994.80 646.59 995.76 646.41 996.74 C 635.39 998.82 625.80 1005.24 617.43 1012.44 C 608.91 1019.95 600.97 1028.28 591.23 1034.26 C 584.87 1038.16 577.57 1040.99 570.02 1040.80 C 559.98 1040.64 550.95 1035.21 540.98 1034.65 C 535.48 1034.52 530.44 1037.10 525.82 1039.78 C 525.65 1039.32 525.33 1038.39 525.16 1037.92 C 515.87 1001.55 495.02 969.84 476.65 937.58 C 464.49 916.03 452.54 894.01 445.94 870.01 C 444.22 864.09 441.10 858.71 439.22 852.85 C 432.56 833.79 429.17 813.00 433.18 793.00 C 434.88 784.51 438.38 776.44 443.31 769.34 C 457.21 748.09 475.18 729.82 494.54 713.50 C 518.64 692.94 545.82 675.84 567.18 652.18 C 590.36 627.04 606.37 596.23 618.52 564.50 C 624.79 548.43 629.50 531.80 635.75 515.72 C 637.36 511.47 638.97 507.23 640.46 502.94 C 646.82 493.14 654.26 483.97 659.56 473.50 C 711.07 473.93 762.55 476.22 813.95 479.67 C 832.55 481.04 851.18 482.20 869.73 484.23 C 870.01 507.90 875.86 531.77 887.74 552.34 C 901.49 576.00 924.86 594.96 952.20 599.75 C 972.67 603.20 993.98 601.90 1013.88 595.99 C 1031.70 590.80 1047.11 578.86 1057.89 563.91 C 1063.02 556.57 1067.27 548.11 1067.48 538.99 C 1067.70 531.75 1064.21 524.21 1057.92 520.41 C 1050.29 517.14 1041.79 517.59 1033.92 515.24 C 1023.86 512.46 1013.10 509.16 1006.13 500.89 C 1000.58 493.97 997.62 484.27 1000.57 475.62 C 1002.36 470.37 1005.23 464.93 1010.40 462.33 C 1017.87 458.45 1026.65 458.42 1034.83 459.24 C 1042.07 460.62 1049.35 464.18 1053.44 470.55 C 1059.53 478.87 1059.94 490.81 1054.75 499.66 C 1052.79 503.35 1049.34 505.87 1046.88 509.17 C 1054.15 507.76 1058.28 500.80 1061.89 494.99 C 1067.27 484.46 1070.19 471.89 1066.63 460.31 C 1064.30 452.10 1058.25 444.98 1050.34 441.70 C 1042.35 438.64 1033.64 437.24 1025.12 438.36 C 1012.37 439.54 999.35 443.84 990.19 453.13 C 981.64 460.90 977.08 472.63 977.59 484.12 C 978.26 496.63 986.70 507.66 997.38 513.68 C 1014.31 523.49 1034.22 525.91 1053.46 526.27 C 1043.16 538.78 1029.74 549.00 1014.32 554.26 C 997.94 559.90 979.24 559.12 963.72 551.27 C 953.83 546.35 945.81 538.17 940.32 528.66 C 931.43 513.45 928.27 495.18 930.71 477.78 C 935.28 444.27 958.14 413.32 989.84 400.83 M 1122.19 679.11 C 1121.39 689.44 1123.21 699.69 1123.00 710.00 C 1123.20 714.33 1123.00 718.67 1123.21 723.00 C 1122.92 724.92 1126.22 725.64 1126.60 723.77 C 1129.55 709.61 1129.98 694.73 1126.33 680.67 C 1125.99 678.49 1123.76 678.83 1122.19 679.11 M 852.30 715.10 C 849.57 730.26 847.40 745.56 847.02 760.96 C 846.49 786.30 850.71 812.12 862.00 834.98 C 866.03 842.00 869.99 849.36 875.92 854.96 C 874.42 848.96 871.29 843.51 869.43 837.61 C 858.65 806.35 855.36 772.97 856.07 740.06 C 855.71 734.36 857.06 728.76 856.98 723.07 C 857.08 715.04 859.18 707.13 858.84 699.10 C 854.84 703.47 853.57 709.49 852.30 715.10 M 1104.73 771.74 C 1103.26 774.58 1103.21 777.92 1103.08 781.06 C 1103.09 786.65 1103.16 792.25 1103.28 797.86 C 1104.39 797.83 1105.52 797.82 1106.66 797.83 C 1108.85 790.26 1111.05 782.29 1109.62 774.38 C 1109.32 772.18 1106.76 769.95 1104.73 771.74 M 668.09 803.94 C 669.82 811.19 671.39 818.57 671.08 826.08 C 671.26 838.73 670.56 851.39 668.68 863.90 C 666.82 876.24 661.89 887.82 659.39 900.01 C 660.61 899.38 661.89 898.78 662.79 897.69 C 666.95 893.03 670.41 887.76 673.14 882.15 C 683.55 859.02 681.95 831.49 671.28 808.75 C 670.55 806.94 669.62 805.18 668.09 803.94 M 1081.87 825.89 C 1080.76 830.32 1079.11 834.60 1078.03 839.04 C 1077.32 840.55 1079.23 841.29 1080.01 842.23 C 1083.52 839.88 1083.99 835.33 1085.81 831.83 C 1087.37 827.47 1091.01 822.81 1088.78 818.06 C 1084.38 817.63 1083.04 822.63 1081.87 825.89 M 1063.05 829.03 C 1058.57 836.29 1056.74 844.73 1054.30 852.80 C 1054.96 853.49 1055.62 854.20 1056.30 854.91 C 1059.39 853.13 1059.75 849.27 1061.32 846.38 C 1063.80 841.49 1066.30 836.44 1067.02 830.94 C 1067.32 829.50 1066.55 828.25 1065.94 827.05 C 1064.96 827.68 1063.64 827.95 1063.05 829.03 M 1061.24 893.87 C 1057.94 899.95 1057.93 907.21 1058.04 913.96 C 1058.73 921.07 1060.34 928.24 1063.40 934.70 C 1064.10 936.30 1065.78 935.17 1066.94 934.91 C 1065.40 923.66 1062.52 912.45 1063.10 901.00 C 1063.00 898.52 1063.80 895.36 1061.24 893.87 M 617.15 901.07 C 616.55 911.39 615.36 921.66 614.00 931.91 C 614.12 934.22 612.90 937.35 615.01 939.05 C 616.80 938.46 617.24 936.50 617.76 934.92 C 621.01 923.93 621.54 912.32 620.87 900.95 C 619.62 900.99 618.38 901.03 617.15 901.07 M 628.19 935.02 C 627.55 947.33 627.07 960.06 631.06 971.92 C 631.23 973.37 632.61 973.65 633.78 974.05 C 634.78 967.38 632.90 960.76 632.58 954.12 C 631.47 948.21 632.29 942.19 631.70 936.25 C 630.98 934.96 629.39 935.25 628.19 935.02 Z" />
<path fill="#f2b61b" opacity="1.00" d=" M 388.92 901.21 C 393.27 903.03 397.44 905.26 401.41 907.82 C 397.11 905.90 392.86 903.78 388.92 901.21 Z" />
</g>
<g id="#f0a11cff">
<path fill="#f0a11c" opacity="1.00" d=" M 236.36 137.40 C 243.49 135.36 251.12 136.14 258.15 138.24 C 267.52 141.03 276.41 145.23 284.92 150.00 C 300.91 159.11 315.57 170.44 328.89 183.10 C 337.26 191.22 345.38 199.68 352.30 209.08 C 343.42 210.53 334.80 213.09 326.28 215.92 C 308.28 192.74 287.68 171.55 264.65 153.33 C 259.67 149.26 254.58 145.28 248.96 142.14 C 245.20 140.12 240.87 139.58 237.04 137.71 L 236.36 137.40 Z" />
<path fill="#f0a11c" opacity="1.00" d=" M 618.14 135.45 C 627.16 142.20 631.03 153.38 633.79 163.86 C 639.70 187.40 640.01 212.03 637.45 236.06 C 635.85 250.06 633.28 263.99 629.00 277.43 C 624.58 270.82 619.84 264.39 614.45 258.53 C 612.98 256.74 611.13 255.14 610.22 252.96 C 610.53 249.69 611.69 246.57 612.44 243.38 C 619.63 212.83 623.36 181.36 621.99 149.97 C 621.67 144.90 619.14 140.37 618.14 135.45 Z" />
<path fill="#f0a11c" opacity="1.00" d=" M 519.37 274.42 C 528.13 272.40 537.17 275.56 544.22 280.76 C 554.81 288.31 563.57 299.78 565.03 312.99 C 565.86 318.03 563.51 322.54 561.52 326.96 C 553.56 316.92 540.36 313.01 528.01 312.43 C 515.05 311.72 500.71 312.55 490.22 321.11 C 486.05 311.75 487.91 300.64 493.03 292.02 C 499.28 283.17 508.98 277.20 519.37 274.42 Z" />
<path fill="#f0a11c" opacity="1.00" d=" M 295.84 286.89 C 302.69 281.57 311.04 277.00 320.01 277.99 C 330.06 279.16 339.30 284.50 346.30 291.67 C 354.28 300.09 357.45 313.37 352.90 324.21 C 342.17 315.98 327.85 315.57 314.93 316.63 C 302.75 317.54 289.96 321.74 282.15 331.64 C 279.05 327.42 277.29 322.17 277.99 316.91 C 279.43 304.95 286.80 294.49 295.84 286.89 Z" />
<path fill="#f0a11c" opacity="1.00" d=" M 990.19 453.13 C 999.35 443.84 1012.37 439.54 1025.12 438.36 C 1033.64 437.24 1042.35 438.64 1050.34 441.70 C 1058.25 444.98 1064.30 452.10 1066.63 460.31 C 1070.19 471.89 1067.27 484.46 1061.89 494.99 C 1058.28 500.80 1054.15 507.76 1046.88 509.17 C 1049.34 505.87 1052.79 503.35 1054.75 499.66 C 1059.94 490.81 1059.53 478.87 1053.44 470.55 C 1049.35 464.18 1042.07 460.62 1034.83 459.24 C 1026.65 458.42 1017.87 458.45 1010.40 462.33 C 1005.23 464.93 1002.36 470.37 1000.57 475.62 C 997.62 484.27 1000.58 493.97 1006.13 500.89 C 1013.10 509.16 1023.86 512.46 1033.92 515.24 C 1041.79 517.59 1050.29 517.14 1057.92 520.41 C 1056.48 522.40 1055.03 524.38 1053.46 526.27 C 1034.22 525.91 1014.31 523.49 997.38 513.68 C 986.70 507.66 978.26 496.63 977.59 484.12 C 977.08 472.63 981.64 460.90 990.19 453.13 Z" />
<path fill="#f0a11c" opacity="1.00" d=" M 1122.19 679.11 C 1123.76 678.83 1125.99 678.49 1126.33 680.67 C 1129.98 694.73 1129.55 709.61 1126.60 723.77 C 1126.22 725.64 1122.92 724.92 1123.21 723.00 C 1123.00 718.67 1123.20 714.33 1123.00 710.00 C 1123.21 699.69 1121.39 689.44 1122.19 679.11 Z" />
<path fill="#f0a11c" opacity="1.00" d=" M 852.30 715.10 C 853.57 709.49 854.84 703.47 858.84 699.10 C 859.18 707.13 857.08 715.04 856.98 723.07 C 857.06 728.76 855.71 734.36 856.07 740.06 C 855.36 772.97 858.65 806.35 869.43 837.61 C 871.29 843.51 874.42 848.96 875.92 854.96 C 869.99 849.36 866.03 842.00 862.00 834.98 C 850.71 812.12 846.49 786.30 847.02 760.96 C 847.40 745.56 849.57 730.26 852.30 715.10 Z" />
<path fill="#f0a11c" opacity="1.00" d=" M 231.86 754.82 C 240.01 740.88 249.83 727.51 262.86 717.77 C 265.50 737.73 269.25 757.68 276.46 776.56 C 289.68 812.50 313.13 844.31 342.44 868.81 C 344.14 870.19 345.69 871.75 347.17 873.37 C 344.82 871.99 342.79 870.17 340.76 868.37 C 334.64 871.01 328.54 874.02 323.63 878.62 C 314.77 886.62 309.38 898.02 307.89 909.80 C 307.61 911.89 307.49 914.00 307.35 916.12 C 301.87 921.50 298.71 928.86 292.57 933.60 C 282.17 941.95 267.94 944.44 255.01 942.10 C 243.67 940.15 233.63 933.14 221.95 932.84 C 217.00 932.62 212.28 934.41 208.12 936.94 C 202.19 916.90 200.74 895.79 201.04 874.99 C 201.63 854.20 204.13 833.46 208.62 813.16 C 213.55 792.75 221.44 773.04 231.86 754.82 Z" />
<path fill="#f0a11c" opacity="1.00" d=" M 1104.73 771.74 C 1106.76 769.95 1109.32 772.18 1109.62 774.38 C 1111.05 782.29 1108.85 790.26 1106.66 797.83 C 1105.52 797.82 1104.39 797.83 1103.28 797.86 C 1103.16 792.25 1103.09 786.65 1103.08 781.06 C 1103.21 777.92 1103.26 774.58 1104.73 771.74 Z" />
<path fill="#f0a11c" opacity="1.00" d=" M 668.09 803.94 C 669.62 805.18 670.55 806.94 671.28 808.75 C 681.95 831.49 683.55 859.02 673.14 882.15 C 670.41 887.76 666.95 893.03 662.79 897.69 C 661.89 898.78 660.61 899.38 659.39 900.01 C 661.89 887.82 666.82 876.24 668.68 863.90 C 670.56 851.39 671.26 838.73 671.08 826.08 C 671.39 818.57 669.82 811.19 668.09 803.94 Z" />
<path fill="#f0a11c" opacity="1.00" d=" M 1081.87 825.89 C 1083.04 822.63 1084.38 817.63 1088.78 818.06 C 1091.01 822.81 1087.37 827.47 1085.81 831.83 C 1083.99 835.33 1083.52 839.88 1080.01 842.23 C 1079.23 841.29 1077.32 840.55 1078.03 839.04 C 1079.11 834.60 1080.76 830.32 1081.87 825.89 Z" />
<path fill="#f0a11c" opacity="1.00" d=" M 1063.05 829.03 C 1063.64 827.95 1064.96 827.68 1065.94 827.05 C 1066.55 828.25 1067.32 829.50 1067.02 830.94 C 1066.30 836.44 1063.80 841.49 1061.32 846.38 C 1059.75 849.27 1059.39 853.13 1056.30 854.91 C 1055.62 854.20 1054.96 853.49 1054.30 852.80 C 1056.74 844.73 1058.57 836.29 1063.05 829.03 Z" />
<path fill="#f0a11c" opacity="1.00" d=" M 741.59 938.45 C 794.00 926.04 844.94 908.27 895.68 890.37 C 898.69 893.57 900.38 897.67 902.64 901.38 C 901.34 907.22 901.44 913.36 900.12 919.13 C 897.11 922.25 896.30 926.59 894.69 930.46 C 889.29 943.73 881.19 955.93 870.88 965.90 C 864.89 971.56 857.48 976.51 849.01 977.05 C 841.97 977.48 835.30 974.30 829.72 970.28 C 822.91 965.47 817.05 959.45 810.04 954.91 C 800.62 948.66 789.48 944.30 778.02 944.87 C 767.63 945.27 757.58 950.68 751.57 959.17 C 751.22 958.93 750.53 958.46 750.19 958.22 C 747.28 951.65 744.48 945.03 741.59 938.45 Z" />
<path fill="#f0a11c" opacity="1.00" d=" M 1061.24 893.87 C 1063.80 895.36 1063.00 898.52 1063.10 901.00 C 1062.52 912.45 1065.40 923.66 1066.94 934.91 C 1065.78 935.17 1064.10 936.30 1063.40 934.70 C 1060.34 928.24 1058.73 921.07 1058.04 913.96 C 1057.93 907.21 1057.94 899.95 1061.24 893.87 Z" />
<path fill="#f0a11c" opacity="1.00" d=" M 617.15 901.07 C 618.38 901.03 619.62 900.99 620.87 900.95 C 621.54 912.32 621.01 923.93 617.76 934.92 C 617.24 936.50 616.80 938.46 615.01 939.05 C 612.90 937.35 614.12 934.22 614.00 931.91 C 615.36 921.66 616.55 911.39 617.15 901.07 Z" />
<path fill="#f0a11c" opacity="1.00" d=" M 628.19 935.02 C 629.39 935.25 630.98 934.96 631.70 936.25 C 632.29 942.19 631.47 948.21 632.58 954.12 C 632.90 960.76 634.78 967.38 633.78 974.05 C 632.61 973.65 631.23 973.37 631.06 971.92 C 627.07 960.06 627.55 947.33 628.19 935.02 Z" />
</g>
<g id="#fbddb3ff">
<path fill="#fbddb3" opacity="1.00" d=" M 574.86 181.82 C 578.79 177.93 583.28 173.71 589.11 173.33 C 594.29 173.01 598.67 177.09 600.36 181.72 C 602.57 187.60 601.52 194.01 600.90 200.09 C 599.34 213.82 597.46 227.52 594.99 241.12 C 578.44 230.93 560.58 222.72 541.79 217.67 C 552.25 205.22 563.56 193.50 574.86 181.82 Z" />
<path fill="#fbddb3" opacity="1.00" d=" M 248.58 184.53 C 250.61 180.37 255.54 178.36 259.99 178.96 C 266.11 179.52 270.97 183.73 275.26 187.76 C 287.23 198.96 298.70 210.69 309.83 222.72 C 291.01 231.35 273.69 242.94 258.14 256.56 C 253.65 239.63 251.09 222.26 248.25 205.00 C 247.37 198.28 245.49 190.95 248.58 184.53 Z" />
<path fill="#fbddb3" opacity="1.00" d=" M 522.29 248.44 C 531.85 245.66 542.16 252.45 546.12 261.04 C 547.20 262.71 545.92 264.97 544.01 265.10 C 538.75 265.21 533.52 263.69 529.12 260.80 C 525.91 258.70 520.94 258.82 519.14 254.96 C 517.73 252.30 519.47 249.10 522.29 248.44 Z" />
<path fill="#fbddb3" opacity="1.00" d=" M 311.13 251.11 C 314.53 250.20 318.37 249.93 321.65 251.40 C 325.36 253.92 324.18 259.57 321.16 262.19 C 315.28 267.76 307.37 272.12 299.06 271.61 C 296.57 271.57 295.14 268.70 296.50 266.63 C 299.88 260.41 303.94 253.37 311.13 251.11 Z" />
<path fill="#fbddb3" opacity="1.00" d=" M 1016.13 326.50 C 1041.37 324.10 1066.88 324.20 1092.08 327.02 C 1114.66 329.65 1137.15 336.31 1156.09 349.17 C 1188.67 370.68 1211.32 407.04 1214.88 446.07 C 1217.56 471.79 1213.34 497.65 1207.37 522.63 C 1201.88 544.22 1196.38 565.83 1189.70 587.09 C 1183.60 605.78 1176.50 624.33 1166.05 641.08 C 1160.84 649.46 1154.65 657.27 1147.39 663.96 C 1145.30 652.14 1142.16 640.53 1139.07 628.94 C 1136.84 621.26 1134.99 613.42 1131.89 606.04 C 1128.32 599.27 1123.73 593.07 1118.79 587.25 C 1113.61 580.99 1105.82 577.65 1100.50 571.56 C 1098.05 569.02 1098.97 565.19 1100.34 562.37 C 1105.86 551.05 1115.46 542.35 1121.18 531.17 C 1129.43 512.64 1132.86 492.16 1132.73 471.95 C 1132.76 460.13 1129.45 448.18 1122.33 438.64 C 1112.42 425.16 1098.77 414.73 1084.00 407.05 C 1055.27 392.33 1020.12 388.67 989.84 400.83 C 958.14 413.32 935.28 444.27 930.71 477.78 C 928.27 495.18 931.43 513.45 940.32 528.66 C 945.81 538.17 953.83 546.35 963.72 551.27 C 979.24 559.12 997.94 559.90 1014.32 554.26 C 1029.74 549.00 1043.16 538.78 1053.46 526.27 C 1055.03 524.38 1056.48 522.40 1057.92 520.41 C 1064.21 524.21 1067.70 531.75 1067.48 538.99 C 1067.27 548.11 1063.02 556.57 1057.89 563.91 C 1047.11 578.86 1031.70 590.80 1013.88 595.99 C 993.98 601.90 972.67 603.20 952.20 599.75 C 924.86 594.96 901.49 576.00 887.74 552.34 C 875.86 531.77 870.01 507.90 869.73 484.23 C 868.81 453.94 875.53 423.09 890.79 396.76 C 900.41 380.00 913.79 365.38 929.89 354.65 C 955.32 337.42 985.88 329.59 1016.13 326.50 M 1085.22 348.23 C 1083.39 349.30 1084.39 351.45 1086.26 351.62 C 1098.54 355.30 1111.04 359.00 1122.01 365.84 C 1123.31 367.04 1125.74 367.14 1126.11 364.99 C 1126.18 362.17 1123.10 361.16 1121.21 359.80 C 1110.58 352.80 1098.02 348.22 1085.22 348.23 M 971.07 351.08 C 968.21 351.18 968.04 355.99 971.10 355.65 C 977.38 354.77 983.71 354.33 990.03 353.79 C 991.89 353.61 991.58 351.44 991.98 350.14 C 985.32 347.22 977.79 349.46 971.07 351.08 M 934.31 366.39 C 923.22 371.62 915.57 382.37 911.73 393.76 C 910.56 397.59 909.10 401.49 909.40 405.55 C 909.95 405.58 911.04 405.64 911.59 405.67 C 917.66 392.22 926.99 380.68 936.75 369.74 C 939.06 368.20 936.46 364.84 934.31 366.39 M 951.84 387.85 C 950.12 389.37 946.85 391.05 948.19 393.81 C 949.54 395.71 952.23 395.12 953.68 393.64 C 958.20 389.76 963.91 387.85 969.04 384.98 C 970.55 384.29 969.78 382.41 969.94 381.15 C 963.16 379.94 957.09 384.15 951.84 387.85 M 1134.29 383.41 C 1132.72 384.46 1132.80 386.73 1133.75 388.18 C 1136.26 392.54 1140.38 395.63 1143.46 399.56 C 1144.89 401.14 1146.43 403.67 1148.98 402.94 C 1150.86 402.73 1151.40 400.17 1150.23 398.89 C 1147.28 394.50 1144.08 390.27 1140.76 386.16 C 1139.19 384.39 1136.83 382.00 1134.29 383.41 M 1120.29 406.24 C 1117.87 407.77 1118.99 410.89 1119.99 412.95 C 1123.12 419.18 1127.76 424.53 1132.83 429.27 C 1135.72 431.97 1138.36 435.12 1141.99 436.86 C 1144.05 436.65 1143.95 434.26 1142.97 432.95 C 1138.17 424.08 1133.80 414.57 1126.08 407.79 C 1124.50 406.53 1122.29 404.97 1120.29 406.24 M 1167.40 415.33 C 1165.63 417.19 1167.01 419.66 1167.40 421.76 C 1170.04 432.82 1173.86 443.61 1175.28 454.94 C 1176.42 454.92 1177.56 454.92 1178.73 454.92 C 1179.77 441.53 1179.50 426.94 1171.57 415.47 C 1170.40 414.34 1168.69 414.78 1167.40 415.33 M 938.38 417.31 C 928.01 425.28 924.07 438.84 922.56 451.30 C 922.20 453.26 925.22 453.64 925.59 451.72 C 927.74 445.39 929.43 438.78 933.17 433.14 C 935.73 428.79 939.43 425.16 941.60 420.58 C 942.73 418.58 940.39 416.05 938.38 417.31 M 897.97 434.97 C 893.23 445.91 891.85 458.96 896.96 470.01 C 897.48 471.78 899.53 470.86 900.83 470.88 C 900.37 458.23 898.73 445.48 901.00 432.89 C 899.60 432.89 898.27 433.51 897.97 434.97 M 1162.29 484.29 C 1160.29 485.91 1160.77 488.77 1160.97 491.03 C 1162.37 499.84 1165.65 508.22 1168.41 516.67 C 1170.25 517.78 1170.80 515.41 1170.78 514.03 C 1170.97 505.40 1170.99 496.40 1167.60 488.29 C 1166.72 486.11 1165.07 483.34 1162.29 484.29 M 890.11 497.06 C 891.73 504.96 893.98 512.89 898.18 519.85 C 899.75 522.24 901.47 524.81 904.12 526.10 C 905.58 526.87 906.78 525.58 907.88 524.82 C 906.99 522.03 905.78 519.35 904.03 516.99 C 899.77 511.21 896.68 504.68 893.82 498.13 C 893.43 496.15 891.46 496.97 890.11 497.06 M 1181.09 506.13 C 1179.61 507.67 1179.27 509.87 1179.02 511.90 C 1177.90 520.86 1178.17 529.94 1178.91 538.91 C 1179.27 541.09 1182.53 541.52 1183.71 539.80 C 1184.90 536.31 1184.73 532.58 1185.05 528.96 C 1185.60 521.69 1186.74 514.20 1184.91 507.03 C 1184.49 505.34 1182.28 505.60 1181.09 506.13 M 920.13 528.02 C 919.81 529.45 919.81 531.02 920.78 532.24 C 922.96 535.63 925.83 538.51 928.72 541.30 C 931.16 543.62 934.73 545.30 938.07 543.94 C 938.16 542.50 938.41 540.86 937.34 539.70 C 934.55 536.32 930.37 534.60 926.98 531.95 C 924.83 530.40 923.03 527.99 920.13 528.02 M 1146.89 531.96 C 1143.45 539.26 1142.12 547.29 1139.91 554.99 C 1139.48 557.21 1138.01 559.80 1139.91 561.75 C 1141.36 560.24 1142.72 558.62 1143.63 556.72 C 1147.88 548.54 1150.98 539.27 1149.81 529.95 C 1148.53 530.12 1147.25 530.60 1146.89 531.96 M 913.49 553.59 C 919.29 562.44 926.51 571.50 937.02 574.75 C 939.17 575.23 939.27 572.17 937.74 571.35 C 929.86 564.42 921.55 557.94 914.62 550.01 C 913.41 550.76 912.37 552.25 913.49 553.59 M 1023.29 554.44 C 1018.43 555.48 1014.93 559.31 1011.11 562.18 C 1008.57 564.31 1005.62 565.93 1003.22 568.22 C 1000.85 570.07 1003.63 574.78 1006.28 573.27 C 1010.76 570.81 1015.00 567.93 1019.43 565.39 C 1022.18 563.60 1025.42 561.98 1026.93 558.90 C 1028.06 556.53 1025.57 554.25 1023.29 554.44 M 1163.26 557.32 C 1156.73 566.95 1154.92 578.78 1150.53 589.40 C 1149.39 591.92 1153.74 592.73 1154.72 590.70 C 1161.20 581.71 1167.28 571.38 1167.23 559.96 C 1167.61 557.71 1165.12 556.32 1163.26 557.32 M 961.30 576.36 C 959.37 577.02 960.31 579.36 960.09 580.88 C 961.45 581.28 962.88 581.73 964.34 581.46 C 972.16 580.37 980.44 579.63 987.29 575.30 C 989.99 573.87 988.92 569.49 986.01 569.19 C 977.19 568.55 969.23 573.20 961.30 576.36 Z" />
<path fill="#fbddb3" opacity="1.00" d=" M 380.28 359.29 C 395.85 351.24 413.57 348.31 430.97 348.33 C 444.92 347.96 459.05 349.71 472.12 354.79 C 486.66 360.32 499.40 369.71 510.49 380.48 C 520.24 389.78 527.71 401.19 537.63 410.34 C 552.87 424.49 572.46 433.78 592.97 437.03 C 613.32 440.32 634.56 437.04 653.09 428.08 C 666.31 421.93 677.73 412.61 687.72 402.10 C 682.27 427.23 672.20 451.17 659.56 473.50 C 654.26 483.97 646.82 493.14 640.46 502.94 C 636.67 505.21 633.48 508.28 630.24 511.26 C 602.72 534.93 569.49 551.10 535.09 562.11 C 510.62 570.20 485.36 575.66 460.01 580.14 C 442.56 583.49 424.78 584.97 407.02 584.95 C 397.34 585.04 387.66 584.90 377.98 585.15 C 362.62 585.46 347.06 585.62 331.99 582.14 C 326.16 580.98 320.60 578.85 314.94 577.09 C 318.96 581.18 323.95 584.12 328.65 587.34 C 361.15 607.58 400.06 615.52 438.00 614.75 C 452.03 614.07 466.06 613.08 479.91 610.66 C 504.64 606.79 528.77 599.92 552.65 592.57 C 574.01 585.34 595.23 577.23 614.65 565.64 C 615.80 564.88 617.16 564.60 618.52 564.50 C 606.37 596.23 590.36 627.04 567.18 652.18 C 545.82 675.84 518.64 692.94 494.54 713.50 C 475.18 729.82 457.21 748.09 443.31 769.34 C 438.38 776.44 434.88 784.51 433.18 793.00 C 429.17 813.00 432.56 833.79 439.22 852.85 C 441.10 858.71 444.22 864.09 445.94 870.01 C 452.54 894.01 464.49 916.03 476.65 937.58 C 476.26 937.08 475.87 936.59 475.48 936.11 C 450.00 929.01 424.98 919.86 401.41 907.82 C 397.44 905.26 393.27 903.03 388.92 901.21 C 374.22 893.24 360.05 884.06 347.17 873.37 C 345.69 871.75 344.14 870.19 342.44 868.81 C 313.13 844.31 289.68 812.50 276.46 776.56 C 269.25 757.68 265.50 737.73 262.86 717.77 C 262.18 703.85 260.28 689.99 260.34 676.04 C 260.51 670.51 259.51 665.00 260.23 659.48 C 260.45 624.15 265.30 588.77 275.50 554.91 C 225.50 517.81 188.09 463.10 174.32 402.16 C 177.89 405.40 181.09 409.04 184.78 412.17 C 203.99 428.97 229.42 438.83 255.03 438.24 C 281.45 437.78 307.57 426.90 326.45 408.40 C 334.87 400.13 341.61 390.34 349.98 382.03 C 358.95 373.09 368.95 365.04 380.28 359.29 M 409.06 368.23 C 403.12 369.01 397.00 369.77 391.57 372.50 C 387.30 374.66 383.51 378.28 382.12 382.97 C 380.30 389.07 383.32 395.87 388.40 399.46 C 393.49 403.00 400.07 403.30 405.20 406.75 C 410.33 410.25 412.93 416.33 418.05 419.85 C 421.00 422.04 424.58 423.06 428.11 423.87 C 428.13 440.54 419.90 457.65 405.65 466.71 C 397.50 472.16 387.75 474.19 378.98 478.25 C 387.81 480.42 397.24 478.50 405.06 474.06 C 417.60 467.08 426.75 455.11 431.96 441.89 C 432.06 441.06 433.15 439.26 433.64 440.99 C 440.64 456.32 452.31 470.30 468.20 476.80 C 477.05 480.41 487.73 481.81 496.51 477.34 C 487.39 475.34 477.94 474.44 469.26 470.80 C 457.57 465.99 448.05 456.17 443.50 444.39 C 440.82 437.77 439.84 430.66 438.36 423.72 C 440.08 422.25 442.00 421.07 443.91 419.86 C 449.06 416.40 451.69 410.32 456.79 406.80 C 460.85 404.03 465.83 403.28 470.27 401.32 C 474.79 399.49 478.40 395.58 479.82 390.92 C 481.41 385.99 479.89 380.42 476.27 376.79 C 470.84 371.01 462.63 369.52 455.11 368.51 C 439.84 366.62 424.36 366.63 409.06 368.23 M 279.63 615.61 C 276.86 621.63 276.67 628.56 277.12 635.08 C 277.70 638.47 277.45 642.51 280.25 644.99 C 281.30 644.10 282.54 643.29 282.92 641.88 C 285.53 635.34 287.69 628.63 289.77 621.90 C 290.36 618.77 290.95 614.23 287.64 612.40 C 284.58 610.91 280.89 612.52 279.63 615.61 M 340.46 641.33 C 339.12 644.70 338.58 648.36 338.29 651.96 C 338.26 654.41 342.23 655.98 343.24 653.25 C 344.74 649.10 347.58 644.63 345.79 640.14 C 343.99 639.81 341.53 639.43 340.46 641.33 M 303.44 644.32 C 299.74 650.87 299.95 658.71 300.70 665.97 C 301.11 668.90 300.78 672.09 302.23 674.78 C 304.05 677.07 307.82 674.73 307.07 672.04 C 306.93 662.37 310.23 652.68 307.69 643.10 C 306.22 643.15 304.09 642.48 303.44 644.32 M 396.89 676.95 C 394.42 681.89 393.57 687.49 394.16 692.97 C 395.43 692.80 397.16 693.44 397.93 692.03 C 402.76 685.00 407.02 677.55 410.89 669.96 C 412.49 667.70 411.06 663.33 407.90 663.97 C 402.11 665.86 398.93 671.56 396.89 676.95 M 462.37 664.39 C 459.82 665.10 457.54 666.74 456.05 668.94 C 452.11 674.51 448.48 680.32 445.33 686.38 C 444.52 688.03 443.50 689.87 444.23 691.76 C 445.48 692.67 447.28 692.29 448.16 691.05 C 451.39 686.97 454.51 682.78 458.25 679.14 C 461.32 675.86 465.12 672.84 466.46 668.38 C 467.31 666.05 464.51 663.95 462.37 664.39 M 353.13 686.19 C 348.96 694.00 348.56 703.24 349.34 711.90 C 349.35 713.33 350.12 714.55 351.07 715.58 C 354.85 707.59 356.92 698.86 360.84 690.89 C 361.93 688.01 363.92 682.49 359.70 681.42 C 356.50 680.44 354.65 684.02 353.13 686.19 M 281.31 687.44 C 278.38 688.56 278.54 692.37 278.38 695.01 C 278.89 701.99 279.65 709.15 282.41 715.65 C 283.68 716.74 284.62 715.11 284.77 714.00 C 286.05 707.45 285.82 700.72 285.62 694.10 C 285.43 691.36 284.89 687.34 281.31 687.44 M 305.18 709.28 C 302.55 712.95 302.49 717.79 303.09 722.10 C 303.68 726.05 303.91 730.33 306.43 733.63 C 306.87 734.57 307.59 734.93 308.59 734.70 C 310.11 732.45 310.77 729.73 310.76 727.05 C 310.77 721.44 311.41 715.46 308.69 710.32 C 308.15 708.88 306.42 708.25 305.18 709.28 M 351.24 778.35 C 349.94 779.00 348.98 780.44 349.37 781.93 C 351.06 791.43 355.29 800.91 362.75 807.27 C 364.50 808.89 367.33 806.30 366.59 804.34 C 364.75 795.44 360.66 787.09 355.15 779.89 C 354.32 778.56 352.78 777.77 351.24 778.35 M 308.21 790.23 C 306.89 790.91 306.83 792.62 307.24 793.88 C 309.74 804.93 317.50 813.84 325.81 821.12 C 327.34 822.58 330.43 824.25 331.82 821.74 C 332.98 820.25 331.13 818.86 330.31 817.78 C 322.82 809.93 317.37 800.50 311.64 791.38 C 311.08 790.10 309.41 789.45 308.21 790.23 M 388.03 798.11 C 385.68 800.89 386.36 804.66 386.19 808.03 C 386.15 818.01 386.90 828.07 389.19 837.80 C 390.67 837.93 392.34 838.68 393.71 837.72 C 395.63 836.44 395.01 833.85 394.80 831.94 C 393.05 821.08 392.10 810.11 390.70 799.20 C 389.80 798.83 388.92 798.46 388.03 798.11 M 376.19 859.28 C 374.21 860.31 373.76 862.74 374.47 864.72 C 376.57 870.92 381.44 875.90 387.09 879.06 C 388.49 879.78 390.41 877.77 389.49 876.46 C 387.01 872.20 384.35 868.03 382.48 863.46 C 381.42 861.11 379.22 857.60 376.19 859.28 Z" />
<path fill="#fbddb3" opacity="1.00" d=" M 657.06 901.82 C 732.83 894.42 807.72 880.22 882.30 865.25 C 886.87 873.18 891.15 881.29 895.74 889.21 C 895.73 889.50 895.69 890.08 895.68 890.37 C 844.94 908.27 794.00 926.04 741.59 938.45 C 715.47 944.26 689.22 949.70 662.62 952.79 C 658.39 953.17 654.16 954.06 649.91 953.71 C 649.74 955.16 649.48 956.60 649.13 958.03 C 650.81 939.20 653.96 920.48 657.06 901.82 Z" />
<path fill="#fbddb3" opacity="1.00" d=" M 307.35 916.12 C 307.49 914.00 307.61 911.89 307.89 909.80 C 307.05 918.16 307.63 927.02 311.72 934.52 C 313.84 938.60 318.55 940.68 323.02 940.40 C 333.14 940.60 341.05 932.78 350.93 931.86 C 358.44 931.45 364.91 936.72 368.87 942.66 C 366.25 944.17 367.42 947.53 367.00 950.00 C 367.23 955.53 363.26 959.98 359.18 963.18 C 348.86 970.93 335.67 973.71 322.96 973.45 C 327.91 975.88 333.60 975.13 338.94 975.21 C 348.13 974.85 358.26 972.89 364.81 965.89 C 365.77 964.92 366.73 963.96 367.66 962.97 C 367.37 965.58 369.23 967.66 370.21 969.93 C 374.10 977.93 375.86 987.94 371.22 996.03 C 366.47 1003.71 357.83 1007.89 349.35 1010.07 C 333.20 1014.21 316.35 1013.37 299.87 1012.47 C 285.33 1011.19 270.33 1010.12 256.81 1004.20 C 242.97 996.31 231.59 984.47 223.13 971.05 C 216.37 960.55 211.84 948.81 208.12 936.94 C 212.28 934.41 217.00 932.62 221.95 932.84 C 233.63 933.14 243.67 940.15 255.01 942.10 C 267.94 944.44 282.17 941.95 292.57 933.60 C 298.71 928.86 301.87 921.50 307.35 916.12 Z" />
<path fill="#fbddb3" opacity="1.00" d=" M 894.69 930.46 C 896.30 926.59 897.11 922.25 900.12 919.13 C 898.45 939.78 897.81 960.50 898.17 981.21 L 897.68 981.84 C 898.14 1005.02 896.38 1028.21 893.01 1051.14 C 891.07 1063.11 888.66 1075.11 884.28 1086.46 C 881.78 1092.38 878.75 1098.61 873.22 1102.26 C 867.02 1105.97 859.92 1107.82 852.94 1109.44 C 841.86 1111.87 830.52 1112.97 819.19 1113.14 C 819.94 1110.46 820.38 1107.56 818.98 1105.01 C 814.93 1096.59 812.95 1087.16 813.55 1077.83 C 813.82 1073.43 815.12 1069.20 815.97 1064.91 C 811.61 1071.09 809.66 1078.64 808.82 1086.06 C 807.67 1095.05 808.83 1104.34 812.33 1112.72 C 803.63 1112.18 794.58 1110.77 787.05 1106.11 C 782.16 1103.16 779.37 1097.23 780.65 1091.59 L 780.49 1090.80 C 780.80 1081.29 782.05 1071.75 784.70 1062.60 C 786.18 1057.40 788.87 1052.70 791.20 1047.87 C 787.26 1049.48 784.76 1053.04 782.16 1056.23 C 777.42 1062.03 774.21 1068.96 772.08 1076.12 C 770.81 1080.84 769.39 1086.11 771.96 1090.68 C 763.65 1089.41 755.94 1084.14 752.43 1076.41 C 747.72 1067.32 747.35 1056.42 750.79 1046.84 C 753.62 1037.08 760.82 1029.45 764.40 1020.04 C 766.71 1011.82 764.65 1003.19 762.99 995.05 C 759.80 982.44 755.60 970.04 750.19 958.22 C 750.53 958.46 751.22 958.93 751.57 959.17 C 757.58 950.68 767.63 945.27 778.02 944.87 C 789.48 944.30 800.62 948.66 810.04 954.91 C 817.05 959.45 822.91 965.47 829.72 970.28 C 835.30 974.30 841.97 977.48 849.01 977.05 C 857.48 976.51 864.89 971.56 870.88 965.90 C 881.19 955.93 889.29 943.73 894.69 930.46 Z" />
<path fill="#fbddb3" opacity="1.00" d=" M 1087.29 941.28 C 1088.82 937.01 1089.30 932.28 1092.13 928.58 C 1092.18 951.74 1093.38 974.88 1094.99 998.00 C 1096.46 1020.64 1096.34 1043.37 1094.16 1065.98 C 1092.77 1078.73 1091.03 1091.71 1085.70 1103.51 C 1083.65 1108.15 1080.44 1112.43 1075.83 1114.78 C 1063.61 1121.37 1049.84 1124.39 1036.23 1126.50 C 1028.09 1112.69 1021.01 1097.36 1021.64 1080.97 C 1018.45 1093.40 1018.66 1106.41 1020.10 1119.08 C 1020.43 1122.01 1021.34 1124.83 1022.21 1127.66 C 1012.56 1128.30 1002.33 1127.67 993.50 1123.37 C 988.35 1120.89 984.12 1114.91 985.83 1109.08 C 987.35 1104.53 985.62 1099.75 985.57 1095.12 C 984.32 1083.86 985.91 1072.42 989.87 1061.83 C 984.36 1067.20 981.04 1074.40 978.66 1081.62 C 975.75 1090.26 975.01 1099.58 976.19 1108.61 C 969.20 1107.92 962.28 1104.49 958.13 1098.71 C 950.63 1088.93 949.30 1075.32 953.28 1063.83 C 955.52 1056.09 960.09 1049.36 963.11 1041.96 C 966.26 1034.44 964.16 1026.12 962.32 1018.55 C 958.34 1005.18 953.05 992.09 946.38 979.86 C 951.44 971.35 960.08 965.01 969.87 963.24 C 981.34 961.11 993.14 964.26 1003.28 969.64 C 1011.25 973.73 1017.97 979.75 1025.57 984.42 C 1031.65 988.18 1038.86 991.00 1046.12 989.77 C 1054.16 988.43 1060.91 983.21 1066.30 977.35 C 1075.69 966.95 1082.80 954.53 1087.29 941.28 Z" />
<path fill="#fbddb3" opacity="1.00" d=" M 646.41 996.74 C 646.59 995.76 646.75 994.80 646.91 993.84 C 646.30 1007.53 646.13 1021.23 646.24 1034.94 C 646.43 1057.10 646.35 1079.90 638.68 1101.00 C 632.20 1119.89 619.35 1136.91 601.82 1146.78 C 595.81 1150.03 589.50 1152.98 582.79 1154.35 L 582.28 1154.01 C 580.98 1147.87 576.39 1143.06 575.29 1136.87 C 574.13 1130.23 574.55 1123.25 576.86 1116.90 C 578.17 1113.05 580.45 1109.65 582.08 1105.95 C 577.99 1108.99 575.43 1113.50 572.64 1117.65 C 565.30 1129.27 563.65 1143.90 567.24 1157.08 C 557.17 1157.69 546.82 1156.41 537.60 1152.18 C 533.37 1150.02 528.83 1146.79 527.99 1141.80 C 528.70 1134.92 531.04 1128.25 534.03 1122.05 C 536.03 1118.21 539.27 1115.26 542.02 1111.98 C 530.33 1116.04 521.99 1127.39 519.74 1139.32 C 511.27 1135.23 504.55 1127.30 502.82 1117.96 C 501.66 1112.48 502.91 1106.56 506.09 1101.97 C 511.39 1093.99 521.44 1090.62 526.25 1082.22 C 529.61 1076.40 528.88 1069.46 528.88 1063.03 C 528.45 1054.57 527.34 1046.11 525.16 1037.92 C 525.33 1038.39 525.65 1039.32 525.82 1039.78 C 530.44 1037.10 535.48 1034.52 540.98 1034.65 C 550.95 1035.21 559.98 1040.64 570.02 1040.80 C 577.57 1040.99 584.87 1038.16 591.23 1034.26 C 600.97 1028.28 608.91 1019.95 617.43 1012.44 C 625.80 1005.24 635.39 998.82 646.41 996.74 Z" />
</g>
<g id="#5b4b40ff">
<path fill="#5b4b40" opacity="1.00" d=" M 490.22 321.11 C 500.71 312.55 515.05 311.72 528.01 312.43 C 540.36 313.01 553.56 316.92 561.52 326.96 C 564.64 330.38 565.04 335.12 565.98 339.43 C 545.83 329.76 523.23 326.26 501.02 326.65 C 495.16 326.55 489.30 327.26 483.74 329.12 C 485.24 325.99 487.55 323.31 490.22 321.11 Z" />
<path fill="#5b4b40" opacity="1.00" d=" M 282.15 331.64 C 289.96 321.74 302.75 317.54 314.93 316.63 C 327.85 315.57 342.17 315.98 352.90 324.21 C 355.63 326.37 358.08 328.97 359.68 332.10 C 352.35 329.74 344.58 329.80 336.98 330.23 C 316.51 330.98 295.98 335.34 277.67 344.70 C 278.62 340.20 278.92 335.24 282.15 331.64 Z" />
<path fill="#5b4b40" opacity="1.00" d=" M 409.06 368.23 C 424.36 366.63 439.84 366.62 455.11 368.51 C 462.63 369.52 470.84 371.01 476.27 376.79 C 479.89 380.42 481.41 385.99 479.82 390.92 C 478.40 395.58 474.79 399.49 470.27 401.32 C 465.83 403.28 460.85 404.03 456.79 406.80 C 451.69 410.32 449.06 416.40 443.91 419.86 C 442.00 421.07 440.08 422.25 438.36 423.72 C 439.84 430.66 440.82 437.77 443.50 444.39 C 448.05 456.17 457.57 465.99 469.26 470.80 C 477.94 474.44 487.39 475.34 496.51 477.34 C 487.73 481.81 477.05 480.41 468.20 476.80 C 452.31 470.30 440.64 456.32 433.64 440.99 C 433.15 439.26 432.06 441.06 431.96 441.89 C 426.75 455.11 417.60 467.08 405.06 474.06 C 397.24 478.50 387.81 480.42 378.98 478.25 C 387.75 474.19 397.50 472.16 405.65 466.71 C 419.90 457.65 428.13 440.54 428.11 423.87 C 424.58 423.06 421.00 422.04 418.05 419.85 C 412.93 416.33 410.33 410.25 405.20 406.75 C 400.07 403.30 393.49 403.00 388.40 399.46 C 383.32 395.87 380.30 389.07 382.12 382.97 C 383.51 378.28 387.30 374.66 391.57 372.50 C 397.00 369.77 403.12 369.01 409.06 368.23 Z" />
</g>
<g id="#faebd4ff">
<path fill="#faebd4" opacity="1.00" d=" M 1085.22 348.23 C 1098.02 348.22 1110.58 352.80 1121.21 359.80 C 1123.10 361.16 1126.18 362.17 1126.11 364.99 C 1125.74 367.14 1123.31 367.04 1122.01 365.84 C 1111.04 359.00 1098.54 355.30 1086.26 351.62 C 1084.39 351.45 1083.39 349.30 1085.22 348.23 Z" />
<path fill="#faebd4" opacity="1.00" d=" M 971.07 351.08 C 977.79 349.46 985.32 347.22 991.98 350.14 C 991.58 351.44 991.89 353.61 990.03 353.79 C 983.71 354.33 977.38 354.77 971.10 355.65 C 968.04 355.99 968.21 351.18 971.07 351.08 Z" />
<path fill="#faebd4" opacity="1.00" d=" M 934.31 366.39 C 936.46 364.84 939.06 368.20 936.75 369.74 C 926.99 380.68 917.66 392.22 911.59 405.67 C 911.04 405.64 909.95 405.58 909.40 405.55 C 909.10 401.49 910.56 397.59 911.73 393.76 C 915.57 382.37 923.22 371.62 934.31 366.39 Z" />
<path fill="#faebd4" opacity="1.00" d=" M 951.84 387.85 C 957.09 384.15 963.16 379.94 969.94 381.15 C 969.78 382.41 970.55 384.29 969.04 384.98 C 963.91 387.85 958.20 389.76 953.68 393.64 C 952.23 395.12 949.54 395.71 948.19 393.81 C 946.85 391.05 950.12 389.37 951.84 387.85 Z" />
<path fill="#faebd4" opacity="1.00" d=" M 1134.29 383.41 C 1136.83 382.00 1139.19 384.39 1140.76 386.16 C 1144.08 390.27 1147.28 394.50 1150.23 398.89 C 1151.40 400.17 1150.86 402.73 1148.98 402.94 C 1146.43 403.67 1144.89 401.14 1143.46 399.56 C 1140.38 395.63 1136.26 392.54 1133.75 388.18 C 1132.80 386.73 1132.72 384.46 1134.29 383.41 Z" />
<path fill="#faebd4" opacity="1.00" d=" M 1120.29 406.24 C 1122.29 404.97 1124.50 406.53 1126.08 407.79 C 1133.80 414.57 1138.17 424.08 1142.97 432.95 C 1143.95 434.26 1144.05 436.65 1141.99 436.86 C 1138.36 435.12 1135.72 431.97 1132.83 429.27 C 1127.76 424.53 1123.12 419.18 1119.99 412.95 C 1118.99 410.89 1117.87 407.77 1120.29 406.24 Z" />
<path fill="#faebd4" opacity="1.00" d=" M 1167.40 415.33 C 1168.69 414.78 1170.40 414.34 1171.57 415.47 C 1179.50 426.94 1179.77 441.53 1178.73 454.92 C 1177.56 454.92 1176.42 454.92 1175.28 454.94 C 1173.86 443.61 1170.04 432.82 1167.40 421.76 C 1167.01 419.66 1165.63 417.19 1167.40 415.33 Z" />
<path fill="#faebd4" opacity="1.00" d=" M 938.38 417.31 C 940.39 416.05 942.73 418.58 941.60 420.58 C 939.43 425.16 935.73 428.79 933.17 433.14 C 929.43 438.78 927.74 445.39 925.59 451.72 C 925.22 453.64 922.20 453.26 922.56 451.30 C 924.07 438.84 928.01 425.28 938.38 417.31 Z" />
<path fill="#faebd4" opacity="1.00" d=" M 897.97 434.97 C 898.27 433.51 899.60 432.89 901.00 432.89 C 898.73 445.48 900.37 458.23 900.83 470.88 C 899.53 470.86 897.48 471.78 896.96 470.01 C 891.85 458.96 893.23 445.91 897.97 434.97 Z" />
<path fill="#faebd4" opacity="1.00" d=" M 1162.29 484.29 C 1165.07 483.34 1166.72 486.11 1167.60 488.29 C 1170.99 496.40 1170.97 505.40 1170.78 514.03 C 1170.80 515.41 1170.25 517.78 1168.41 516.67 C 1165.65 508.22 1162.37 499.84 1160.97 491.03 C 1160.77 488.77 1160.29 485.91 1162.29 484.29 Z" />
<path fill="#faebd4" opacity="1.00" d=" M 890.11 497.06 C 891.46 496.97 893.43 496.15 893.82 498.13 C 896.68 504.68 899.77 511.21 904.03 516.99 C 905.78 519.35 906.99 522.03 907.88 524.82 C 906.78 525.58 905.58 526.87 904.12 526.10 C 901.47 524.81 899.75 522.24 898.18 519.85 C 893.98 512.89 891.73 504.96 890.11 497.06 Z" />
<path fill="#faebd4" opacity="1.00" d=" M 1181.09 506.13 C 1182.28 505.60 1184.49 505.34 1184.91 507.03 C 1186.74 514.20 1185.60 521.69 1185.05 528.96 C 1184.73 532.58 1184.90 536.31 1183.71 539.80 C 1182.53 541.52 1179.27 541.09 1178.91 538.91 C 1178.17 529.94 1177.90 520.86 1179.02 511.90 C 1179.27 509.87 1179.61 507.67 1181.09 506.13 Z" />
<path fill="#faebd4" opacity="1.00" d=" M 920.13 528.02 C 923.03 527.99 924.83 530.40 926.98 531.95 C 930.37 534.60 934.55 536.32 937.34 539.70 C 938.41 540.86 938.16 542.50 938.07 543.94 C 934.73 545.30 931.16 543.62 928.72 541.30 C 925.83 538.51 922.96 535.63 920.78 532.24 C 919.81 531.02 919.81 529.45 920.13 528.02 Z" />
<path fill="#faebd4" opacity="1.00" d=" M 1146.89 531.96 C 1147.25 530.60 1148.53 530.12 1149.81 529.95 C 1150.98 539.27 1147.88 548.54 1143.63 556.72 C 1142.72 558.62 1141.36 560.24 1139.91 561.75 C 1138.01 559.80 1139.48 557.21 1139.91 554.99 C 1142.12 547.29 1143.45 539.26 1146.89 531.96 Z" />
<path fill="#faebd4" opacity="1.00" d=" M 913.49 553.59 C 912.37 552.25 913.41 550.76 914.62 550.01 C 921.55 557.94 929.86 564.42 937.74 571.35 C 939.27 572.17 939.17 575.23 937.02 574.75 C 926.51 571.50 919.29 562.44 913.49 553.59 Z" />
<path fill="#faebd4" opacity="1.00" d=" M 1023.29 554.44 C 1025.57 554.25 1028.06 556.53 1026.93 558.90 C 1025.42 561.98 1022.18 563.60 1019.43 565.39 C 1015.00 567.93 1010.76 570.81 1006.28 573.27 C 1003.63 574.78 1000.85 570.07 1003.22 568.22 C 1005.62 565.93 1008.57 564.31 1011.11 562.18 C 1014.93 559.31 1018.43 555.48 1023.29 554.44 Z" />
<path fill="#faebd4" opacity="1.00" d=" M 1163.26 557.32 C 1165.12 556.32 1167.61 557.71 1167.23 559.96 C 1167.28 571.38 1161.20 581.71 1154.72 590.70 C 1153.74 592.73 1149.39 591.92 1150.53 589.40 C 1154.92 578.78 1156.73 566.95 1163.26 557.32 Z" />
<path fill="#faebd4" opacity="1.00" d=" M 961.30 576.36 C 969.23 573.20 977.19 568.55 986.01 569.19 C 988.92 569.49 989.99 573.87 987.29 575.30 C 980.44 579.63 972.16 580.37 964.34 581.46 C 962.88 581.73 961.45 581.28 960.09 580.88 C 960.31 579.36 959.37 577.02 961.30 576.36 Z" />
<path fill="#faebd4" opacity="1.00" d=" M 279.63 615.61 C 280.89 612.52 284.58 610.91 287.64 612.40 C 290.95 614.23 290.36 618.77 289.77 621.90 C 287.69 628.63 285.53 635.34 282.92 641.88 C 282.54 643.29 281.30 644.10 280.25 644.99 C 277.45 642.51 277.70 638.47 277.12 635.08 C 276.67 628.56 276.86 621.63 279.63 615.61 Z" />
<path fill="#faebd4" opacity="1.00" d=" M 340.46 641.33 C 341.53 639.43 343.99 639.81 345.79 640.14 C 347.58 644.63 344.74 649.10 343.24 653.25 C 342.23 655.98 338.26 654.41 338.29 651.96 C 338.58 648.36 339.12 644.70 340.46 641.33 Z" />
<path fill="#faebd4" opacity="1.00" d=" M 303.44 644.32 C 304.09 642.48 306.22 643.15 307.69 643.10 C 310.23 652.68 306.93 662.37 307.07 672.04 C 307.82 674.73 304.05 677.07 302.23 674.78 C 300.78 672.09 301.11 668.90 300.70 665.97 C 299.95 658.71 299.74 650.87 303.44 644.32 Z" />
<path fill="#faebd4" opacity="1.00" d=" M 396.89 676.95 C 398.93 671.56 402.11 665.86 407.90 663.97 C 411.06 663.33 412.49 667.70 410.89 669.96 C 407.02 677.55 402.76 685.00 397.93 692.03 C 397.16 693.44 395.43 692.80 394.16 692.97 C 393.57 687.49 394.42 681.89 396.89 676.95 Z" />
<path fill="#faebd4" opacity="1.00" d=" M 462.37 664.39 C 464.51 663.95 467.31 666.05 466.46 668.38 C 465.12 672.84 461.32 675.86 458.25 679.14 C 454.51 682.78 451.39 686.97 448.16 691.05 C 447.28 692.29 445.48 692.67 444.23 691.76 C 443.50 689.87 444.52 688.03 445.33 686.38 C 448.48 680.32 452.11 674.51 456.05 668.94 C 457.54 666.74 459.82 665.10 462.37 664.39 Z" />
<path fill="#faebd4" opacity="1.00" d=" M 353.13 686.19 C 354.65 684.02 356.50 680.44 359.70 681.42 C 363.92 682.49 361.93 688.01 360.84 690.89 C 356.92 698.86 354.85 707.59 351.07 715.58 C 350.12 714.55 349.35 713.33 349.34 711.90 C 348.56 703.24 348.96 694.00 353.13 686.19 Z" />
<path fill="#faebd4" opacity="1.00" d=" M 281.31 687.44 C 284.89 687.34 285.43 691.36 285.62 694.10 C 285.82 700.72 286.05 707.45 284.77 714.00 C 284.62 715.11 283.68 716.74 282.41 715.65 C 279.65 709.15 278.89 701.99 278.38 695.01 C 278.54 692.37 278.38 688.56 281.31 687.44 Z" />
<path fill="#faebd4" opacity="1.00" d=" M 305.18 709.28 C 306.42 708.25 308.15 708.88 308.69 710.32 C 311.41 715.46 310.77 721.44 310.76 727.05 C 310.77 729.73 310.11 732.45 308.59 734.70 C 307.59 734.93 306.87 734.57 306.43 733.63 C 303.91 730.33 303.68 726.05 303.09 722.10 C 302.49 717.79 302.55 712.95 305.18 709.28 Z" />
<path fill="#faebd4" opacity="1.00" d=" M 351.24 778.35 C 352.78 777.77 354.32 778.56 355.15 779.89 C 360.66 787.09 364.75 795.44 366.59 804.34 C 367.33 806.30 364.50 808.89 362.75 807.27 C 355.29 800.91 351.06 791.43 349.37 781.93 C 348.98 780.44 349.94 779.00 351.24 778.35 Z" />
<path fill="#faebd4" opacity="1.00" d=" M 308.21 790.23 C 309.41 789.45 311.08 790.10 311.64 791.38 C 317.37 800.50 322.82 809.93 330.31 817.78 C 331.13 818.86 332.98 820.25 331.82 821.74 C 330.43 824.25 327.34 822.58 325.81 821.12 C 317.50 813.84 309.74 804.93 307.24 793.88 C 306.83 792.62 306.89 790.91 308.21 790.23 Z" />
<path fill="#faebd4" opacity="1.00" d=" M 388.03 798.11 C 388.92 798.46 389.80 798.83 390.70 799.20 C 392.10 810.11 393.05 821.08 394.80 831.94 C 395.01 833.85 395.63 836.44 393.71 837.72 C 392.34 838.68 390.67 837.93 389.19 837.80 C 386.90 828.07 386.15 818.01 386.19 808.03 C 386.36 804.66 385.68 800.89 388.03 798.11 Z" />
<path fill="#faebd4" opacity="1.00" d=" M 376.19 859.28 C 379.22 857.60 381.42 861.11 382.48 863.46 C 384.35 868.03 387.01 872.20 389.49 876.46 C 390.41 877.77 388.49 879.78 387.09 879.06 C 381.44 875.90 376.57 870.92 374.47 864.72 C 373.76 862.74 374.21 860.31 376.19 859.28 Z" />
</g>
<g id="#f4c79eff">
<path fill="#f4c79e" opacity="1.00" d=" M 630.24 511.26 C 633.48 508.28 636.67 505.21 640.46 502.94 C 638.97 507.23 637.36 511.47 635.75 515.72 C 629.50 531.80 624.79 548.43 618.52 564.50 C 617.16 564.60 615.80 564.88 614.65 565.64 C 595.23 577.23 574.01 585.34 552.65 592.57 C 528.77 599.92 504.64 606.79 479.91 610.66 C 466.06 613.08 452.03 614.07 438.00 614.75 C 400.06 615.52 361.15 607.58 328.65 587.34 C 323.95 584.12 318.96 581.18 314.94 577.09 C 320.60 578.85 326.16 580.98 331.99 582.14 C 347.06 585.62 362.62 585.46 377.98 585.15 C 387.66 584.90 397.34 585.04 407.02 584.95 C 424.78 584.97 442.56 583.49 460.01 580.14 C 485.36 575.66 510.62 570.20 535.09 562.11 C 569.49 551.10 602.72 534.93 630.24 511.26 Z" />
<path fill="#f4c79e" opacity="1.00" d=" M 367.00 950.00 C 367.42 947.53 366.25 944.17 368.87 942.66 C 372.67 948.83 372.01 957.28 367.66 962.97 C 366.73 963.96 365.77 964.92 364.81 965.89 C 358.26 972.89 348.13 974.85 338.94 975.21 C 333.60 975.13 327.91 975.88 322.96 973.45 C 335.67 973.71 348.86 970.93 359.18 963.18 C 363.26 959.98 367.23 955.53 367.00 950.00 Z" />
<path fill="#f4c79e" opacity="1.00" d=" M 782.16 1056.23 C 784.76 1053.04 787.26 1049.48 791.20 1047.87 C 788.87 1052.70 786.18 1057.40 784.70 1062.60 C 782.05 1071.75 780.80 1081.29 780.49 1090.80 C 777.73 1092.15 774.72 1091.73 771.96 1090.68 C 769.39 1086.11 770.81 1080.84 772.08 1076.12 C 774.21 1068.96 777.42 1062.03 782.16 1056.23 Z" />
<path fill="#f4c79e" opacity="1.00" d=" M 978.66 1081.62 C 981.04 1074.40 984.36 1067.20 989.87 1061.83 C 985.91 1072.42 984.32 1083.86 985.57 1095.12 C 985.62 1099.75 987.35 1104.53 985.83 1109.08 C 982.66 1109.23 978.96 1110.82 976.19 1108.61 C 975.01 1099.58 975.75 1090.26 978.66 1081.62 Z" />
<path fill="#f4c79e" opacity="1.00" d=" M 808.82 1086.06 C 809.66 1078.64 811.61 1071.09 815.97 1064.91 C 815.12 1069.20 813.82 1073.43 813.55 1077.83 C 812.95 1087.16 814.93 1096.59 818.98 1105.01 C 820.38 1107.56 819.94 1110.46 819.19 1113.14 C 816.88 1113.16 814.60 1112.98 812.33 1112.72 C 808.83 1104.34 807.67 1095.05 808.82 1086.06 Z" />
<path fill="#f4c79e" opacity="1.00" d=" M 1020.10 1119.08 C 1018.66 1106.41 1018.45 1093.40 1021.64 1080.97 C 1021.01 1097.36 1028.09 1112.69 1036.23 1126.50 L 1036.50 1126.96 C 1031.70 1126.99 1026.97 1128.93 1022.21 1127.66 C 1021.34 1124.83 1020.43 1122.01 1020.10 1119.08 Z" />
<path fill="#f4c79e" opacity="1.00" d=" M 572.64 1117.65 C 575.43 1113.50 577.99 1108.99 582.08 1105.95 C 580.45 1109.65 578.17 1113.05 576.86 1116.90 C 574.55 1123.25 574.13 1130.23 575.29 1136.87 C 576.39 1143.06 580.98 1147.87 582.28 1154.01 L 581.97 1154.65 C 578.05 1157.16 573.56 1157.97 569.04 1158.62 C 568.59 1158.24 567.69 1157.46 567.24 1157.08 C 563.65 1143.90 565.30 1129.27 572.64 1117.65 Z" />
<path fill="#f4c79e" opacity="1.00" d=" M 519.74 1139.32 C 521.99 1127.39 530.33 1116.04 542.02 1111.98 C 539.27 1115.26 536.03 1118.21 534.03 1122.05 C 531.04 1128.25 528.70 1134.92 527.99 1141.80 C 524.96 1142.09 522.27 1140.76 519.74 1139.32 Z" />
</g>
</svg>
