<?xml version="1.0" encoding="UTF-8" ?>
<!DOCTYPE svg PUBLIC "-//W3C//DTD SVG 1.1//EN" "http://www.w3.org/Graphics/SVG/1.1/DTD/svg11.dtd">
<svg width="1128pt" height="1268pt" viewBox="0 0 1128 1268" version="1.1" xmlns="http://www.w3.org/2000/svg">
<g id="#779a55ff">
<path fill="#779a55" opacity="1.00" d=" M 655.42 67.10 C 656.70 63.92 659.34 60.82 663.04 60.84 C 669.80 60.13 676.53 67.69 673.21 74.20 C 667.48 84.28 663.39 95.38 662.08 106.94 C 660.31 120.49 662.61 134.67 669.30 146.66 C 670.15 148.03 670.75 149.74 672.24 150.59 C 674.78 156.62 679.79 161.16 683.97 166.06 C 685.08 167.74 687.09 166.99 688.67 166.56 C 699.80 163.25 711.44 161.80 723.04 161.63 C 727.15 161.60 731.34 161.22 735.35 162.38 C 719.75 164.37 704.36 167.62 688.91 170.56 C 694.89 177.16 702.16 182.38 708.90 188.15 C 710.26 189.44 712.02 190.20 713.92 189.67 C 727.69 187.47 741.33 184.47 755.11 182.40 C 761.12 182.20 767.46 182.32 773.12 184.57 C 766.06 184.22 758.90 183.34 751.93 184.95 C 739.66 187.69 727.26 189.77 715.00 192.51 C 723.01 200.08 732.27 206.21 740.29 213.78 C 741.97 215.11 743.51 217.39 745.96 216.87 C 762.92 215.21 780.04 215.13 797.02 216.49 C 780.62 217.26 764.08 217.13 747.87 220.19 C 758.59 230.84 769.00 241.92 777.60 254.40 C 780.92 259.60 784.80 264.51 787.16 270.25 C 786.04 269.25 784.92 268.25 783.94 267.12 C 771.26 250.79 757.60 235.09 741.83 221.67 C 736.31 229.32 732.05 237.84 728.60 246.61 C 727.39 249.64 725.89 252.55 724.10 255.28 C 724.64 241.95 731.40 229.89 738.55 218.99 C 728.67 210.25 717.62 202.92 706.76 195.47 C 700.35 203.30 694.76 211.76 689.21 220.21 C 686.31 224.54 684.18 229.37 680.78 233.35 C 681.60 228.66 684.53 224.80 686.66 220.65 C 691.71 211.19 697.89 202.40 704.43 193.92 C 696.38 187.45 687.74 181.63 680.55 174.15 C 677.51 176.59 674.99 179.56 672.36 182.40 C 666.21 189.25 659.91 195.97 654.15 203.16 C 650.93 206.82 648.47 211.15 644.78 214.40 C 646.53 209.11 650.26 204.84 653.14 200.15 C 660.25 189.77 668.70 180.34 678.23 172.12 C 672.40 166.23 667.98 159.15 662.35 153.11 C 662.51 153.02 662.84 152.83 663.00 152.73 C 653.67 138.26 647.72 121.34 647.37 104.04 C 647.04 91.31 649.92 78.56 655.42 67.10 Z" />
</g>
<g id="#8fbc64ff">
<path fill="#8fbc64" opacity="1.00" d=" M 672.24 150.59 C 691.43 144.47 710.72 137.37 731.02 136.28 C 766.44 134.56 800.78 157.69 814.56 190.00 C 816.32 188.47 818.09 186.95 819.92 185.50 C 818.25 187.05 816.60 188.60 814.88 190.07 C 816.75 196.06 818.94 201.98 819.79 208.22 C 823.46 231.06 818.33 253.95 816.71 276.71 C 816.22 282.67 816.08 288.65 816.32 294.63 C 816.40 298.28 816.82 301.92 817.40 305.53 C 817.61 307.14 817.81 308.75 818.02 310.38 C 814.11 308.23 810.31 305.89 806.28 303.99 C 796.16 298.92 785.48 295.03 774.59 291.98 C 766.46 289.60 758.20 287.70 749.89 286.05 C 712.82 278.49 674.32 275.59 639.11 260.78 C 624.44 254.72 609.97 245.86 601.75 231.84 C 595.89 222.06 594.39 209.75 598.16 198.95 C 602.72 185.37 613.51 174.90 625.27 167.25 C 636.46 159.91 649.55 156.48 662.35 153.11 C 667.98 159.15 672.40 166.23 678.23 172.12 C 668.70 180.34 660.25 189.77 653.14 200.15 C 650.26 204.84 646.53 209.11 644.78 214.40 C 648.47 211.15 650.93 206.82 654.15 203.16 C 659.91 195.97 666.21 189.25 672.36 182.40 C 674.99 179.56 677.51 176.59 680.55 174.15 C 687.74 181.63 696.38 187.45 704.43 193.92 C 697.89 202.40 691.71 211.19 686.66 220.65 C 684.53 224.80 681.60 228.66 680.78 233.35 C 684.18 229.37 686.31 224.54 689.21 220.21 C 694.76 211.76 700.35 203.30 706.76 195.47 C 717.62 202.92 728.67 210.25 738.55 218.99 C 731.40 229.89 724.64 241.95 724.10 255.28 C 725.89 252.55 727.39 249.64 728.60 246.61 C 732.05 237.84 736.31 229.32 741.83 221.67 C 757.60 235.09 771.26 250.79 783.94 267.12 C 784.92 268.25 786.04 269.25 787.16 270.25 C 784.80 264.51 780.92 259.60 777.60 254.40 C 769.00 241.92 758.59 230.84 747.87 220.19 C 764.08 217.13 780.62 217.26 797.02 216.49 C 780.04 215.13 762.92 215.21 745.96 216.87 C 743.51 217.39 741.97 215.11 740.29 213.78 C 732.27 206.21 723.01 200.08 715.00 192.51 C 727.26 189.77 739.66 187.69 751.93 184.95 C 758.90 183.34 766.06 184.22 773.12 184.57 C 767.46 182.32 761.12 182.20 755.11 182.40 C 741.33 184.47 727.69 187.47 713.92 189.67 C 712.02 190.20 710.26 189.44 708.90 188.15 C 702.16 182.38 694.89 177.16 688.91 170.56 C 704.36 167.62 719.75 164.37 735.35 162.38 C 731.34 161.22 727.15 161.60 723.04 161.63 C 711.44 161.80 699.80 163.25 688.67 166.56 C 687.09 166.99 685.08 167.74 683.97 166.06 C 679.79 161.16 674.78 156.62 672.24 150.59 Z" />
</g>
<g id="#f2b61bff">
<path fill="#f2b61b" opacity="1.00" d=" M 864.31 152.25 C 871.66 147.29 879.78 142.01 889.03 142.33 C 894.06 142.27 898.60 144.88 902.32 148.05 C 902.21 152.82 904.47 157.27 904.18 162.06 C 904.24 182.80 900.93 203.42 896.55 223.64 C 894.03 234.17 891.37 244.69 887.81 254.92 C 887.49 256.30 886.56 257.96 887.86 259.14 C 892.88 265.42 898.38 271.36 904.59 276.51 C 911.28 282.26 918.71 287.06 926.43 291.33 C 933.21 295.11 938.96 300.92 941.80 308.24 C 945.93 318.55 946.38 329.96 945.82 340.92 C 930.23 369.66 898.81 389.34 866.00 389.99 C 846.05 390.57 825.89 384.92 809.36 373.68 C 800.49 367.68 792.77 360.13 783.78 354.28 C 772.28 346.71 759.64 340.52 746.05 337.86 C 732.46 335.07 718.35 336.05 704.90 339.17 C 689.94 342.16 675.26 347.76 663.13 357.19 C 648.89 368.18 638.43 383.26 630.17 399.06 C 623.53 411.77 614.54 423.35 603.12 432.09 C 587.94 443.94 569.19 451.31 549.92 452.36 C 526.80 453.64 503.49 445.97 485.26 431.79 C 483.83 430.16 483.36 427.90 482.46 425.96 C 478.05 414.99 474.43 402.83 477.36 391.01 C 479.55 382.18 486.33 375.73 491.34 368.47 C 499.76 356.70 505.90 343.54 511.72 330.34 C 503.69 316.48 494.53 303.27 487.19 289.01 C 480.14 275.50 473.36 261.84 467.16 247.92 C 464.47 241.62 462.07 234.91 462.48 227.95 C 462.56 222.36 465.45 217.06 469.75 213.57 C 476.47 212.73 483.38 212.27 490.04 213.83 C 510.14 218.47 529.82 224.92 548.72 233.24 C 558.16 237.13 567.01 242.32 576.31 246.50 C 583.83 242.17 590.95 236.98 598.87 233.26 C 599.82 232.77 600.78 232.30 601.75 231.84 C 609.97 245.86 624.44 254.72 639.11 260.78 C 674.32 275.59 712.82 278.49 749.89 286.05 C 749.36 292.45 751.11 298.72 754.19 304.29 C 752.22 306.78 750.83 309.66 749.79 312.65 C 753.06 310.82 756.46 309.16 760.14 308.32 C 775.20 304.66 790.79 302.91 806.28 303.99 C 810.31 305.89 814.11 308.23 818.02 310.38 C 817.81 308.75 817.61 307.14 817.40 305.53 C 820.14 306.04 822.88 306.62 825.60 307.28 C 823.92 303.34 822.44 299.02 818.85 296.37 C 822.56 290.05 820.51 282.46 816.71 276.71 C 818.33 253.95 823.46 231.06 819.79 208.22 C 818.94 201.98 816.75 196.06 814.88 190.07 C 816.60 188.60 818.25 187.05 819.92 185.50 C 834.06 173.59 849.13 162.80 864.31 152.25 M 868.30 181.48 C 862.19 184.24 857.76 189.49 852.80 193.82 C 846.10 200.34 838.89 206.44 832.80 213.54 C 849.35 219.59 862.42 231.99 874.71 244.17 C 878.04 229.72 880.99 215.18 883.31 200.53 C 884.19 194.87 884.25 188.29 880.14 183.79 C 877.30 180.38 872.23 179.63 868.30 181.48 M 499.74 242.69 C 495.86 247.26 497.84 253.84 500.58 258.47 C 508.28 271.21 516.73 283.48 525.21 295.71 C 525.85 296.70 526.72 297.52 527.63 298.27 C 537.07 282.88 549.21 269.19 562.93 257.49 C 548.27 250.98 533.30 245.18 518.11 240.02 C 512.13 237.95 504.29 237.51 499.74 242.69 M 586.16 271.24 C 577.05 272.59 573.03 282.13 571.06 290.00 C 570.46 292.24 572.86 293.81 574.87 293.31 C 581.86 292.17 587.67 287.33 591.90 281.88 C 594.03 279.30 595.04 275.14 592.70 272.38 C 591.09 270.48 588.33 270.94 586.16 271.24 M 582.73 299.75 C 571.24 307.67 563.99 321.17 563.13 335.03 C 563.38 340.86 565.80 346.33 569.40 350.86 C 567.41 354.47 568.14 358.70 568.05 362.63 C 582.04 351.54 598.72 344.27 615.94 339.89 C 623.62 338.03 631.48 335.93 639.45 336.92 C 637.30 334.55 634.82 332.46 631.93 331.06 C 632.96 322.83 630.98 313.92 625.21 307.75 C 619.36 300.46 610.04 297.06 601.07 295.61 C 594.74 294.36 587.88 295.83 582.73 299.75 Z" />
<path fill="#f2b61b" opacity="1.00" d=" M 466.49 594.50 C 488.21 565.27 509.33 535.51 533.16 507.94 C 537.73 514.65 545.52 518.08 552.72 521.23 C 557.06 522.87 560.42 526.15 564.16 528.77 C 577.43 538.32 591.60 546.65 606.46 553.47 C 608.00 554.21 609.48 555.08 610.82 556.17 C 624.97 567.93 638.11 580.90 649.96 594.98 C 654.85 600.51 658.99 606.68 663.79 612.25 C 676.05 617.91 685.08 628.26 694.03 638.04 C 713.40 659.60 729.07 684.69 738.57 712.14 C 749.70 743.75 752.11 777.50 754.14 810.69 C 756.11 866.28 750.88 921.85 742.65 976.78 C 742.36 976.94 741.77 977.28 741.48 977.45 C 733.26 981.54 727.73 989.07 722.06 995.99 C 715.93 1003.49 709.93 1011.30 702.09 1017.12 C 696.33 1021.43 689.23 1024.27 681.95 1023.84 C 671.95 1023.45 663.22 1018.00 654.09 1014.54 C 639.74 1008.93 623.09 1008.53 609.01 1015.17 C 609.19 1008.43 608.00 1001.76 608.04 995.03 C 607.86 987.67 608.15 980.30 607.32 972.97 C 606.59 959.67 607.46 946.31 606.15 933.03 C 605.95 917.03 605.88 901.01 605.76 885.01 C 604.76 874.71 605.31 864.36 605.14 854.04 C 604.92 846.68 606.18 839.36 605.83 832.00 C 606.03 795.18 608.72 758.38 613.69 721.89 C 610.19 725.86 608.05 730.75 605.22 735.18 C 594.83 752.60 584.95 770.40 577.13 789.15 C 573.12 798.28 570.90 808.03 568.81 817.75 C 559.25 806.56 547.69 796.97 534.35 790.64 C 519.12 782.86 502.25 778.86 485.40 776.52 C 475.57 775.75 465.69 774.37 455.84 775.59 C 433.60 776.88 410.43 783.27 393.85 798.84 C 413.12 800.07 431.69 792.37 450.95 792.89 C 461.51 792.51 471.83 795.15 481.87 798.12 C 496.60 802.62 510.14 810.35 522.44 819.52 C 541.41 834.61 555.56 855.32 564.19 877.89 C 569.59 891.05 572.77 905.00 575.22 918.98 C 577.66 933.21 578.14 947.65 578.88 962.03 C 579.15 970.03 578.73 978.01 578.15 985.98 C 578.67 998.93 574.59 1011.40 571.87 1023.90 C 560.76 1019.65 549.56 1015.64 538.40 1011.50 C 530.37 1008.63 521.63 1006.13 513.11 1008.23 C 505.90 1010.01 500.52 1015.92 497.34 1022.38 C 491.06 1034.57 491.07 1049.38 482.66 1060.57 C 477.36 1067.81 468.52 1070.69 460.47 1073.67 C 451.13 1076.92 443.14 1083.37 437.08 1091.09 C 433.14 1096.05 430.86 1102.51 431.77 1108.88 C 432.26 1113.79 434.83 1118.12 437.42 1122.21 C 420.01 1117.48 403.13 1110.07 388.55 1099.36 C 385.85 1097.21 382.89 1095.28 380.70 1092.60 C 374.85 1083.44 370.69 1073.29 367.14 1063.05 C 361.15 1045.26 358.05 1026.27 359.95 1007.51 C 338.52 1014.15 316.32 1017.94 294.10 1020.74 C 279.20 1022.43 264.12 1024.66 249.16 1022.34 C 235.48 1020.25 221.71 1016.99 209.40 1010.51 C 197.49 1004.24 189.65 992.50 184.73 980.31 C 174.63 955.73 173.82 927.49 182.46 902.36 C 187.89 886.56 197.27 871.97 210.11 861.19 C 234.50 840.88 270.36 834.93 299.75 847.24 C 314.54 853.52 327.62 864.72 334.55 879.37 C 341.78 894.81 339.96 913.35 332.17 928.21 C 323.31 945.18 306.86 957.13 289.07 963.41 C 294.58 947.83 298.65 931.23 296.47 914.62 C 295.14 904.66 290.83 894.53 282.59 888.37 C 277.80 884.72 271.78 883.11 265.90 882.27 C 251.56 881.16 237.66 888.87 229.32 900.28 C 221.67 910.74 216.37 923.87 218.12 937.02 C 219.03 944.22 223.59 950.44 229.29 954.71 C 237.51 960.75 248.14 961.92 258.04 960.90 C 265.04 960.15 272.92 958.13 277.10 951.95 C 272.53 953.81 268.10 956.57 262.96 956.22 C 247.76 958.10 234.26 942.04 237.41 927.39 C 238.90 920.49 241.25 913.45 246.16 908.20 C 251.29 902.56 259.78 900.59 266.98 902.92 C 277.70 905.73 285.46 916.04 286.05 926.98 C 286.31 935.44 286.36 944.03 284.45 952.33 C 283.43 956.58 282.77 960.94 282.92 965.33 C 284.53 973.80 292.68 979.64 300.94 980.55 C 314.49 982.15 327.91 977.20 339.54 970.60 C 351.48 963.92 360.83 953.45 367.75 941.78 C 377.33 925.44 384.33 907.02 385.00 887.93 C 385.58 856.33 367.11 826.44 341.30 809.15 C 354.12 772.34 372.22 737.60 392.19 704.21 C 414.95 666.32 440.38 630.13 466.49 594.50 M 460.37 626.43 C 450.40 634.52 443.16 645.27 435.46 655.40 C 434.41 656.41 434.53 659.61 436.62 658.71 C 445.80 649.85 454.98 640.77 462.21 630.19 C 463.87 628.75 462.63 625.40 460.37 626.43 M 417.71 729.83 C 411.82 736.89 407.19 744.90 403.05 753.08 C 400.35 759.66 396.88 765.99 394.98 772.87 C 395.20 773.24 395.63 773.98 395.84 774.35 C 404.90 760.55 414.44 747.01 422.68 732.68 C 423.46 731.15 424.63 729.23 423.38 727.63 C 421.21 725.75 419.12 728.31 417.71 729.83 M 387.44 737.39 C 383.42 743.21 379.77 749.29 376.63 755.63 C 374.21 759.69 371.97 763.87 370.50 768.38 C 369.94 770.28 368.92 772.33 369.67 774.35 C 374.78 769.28 377.60 762.55 381.57 756.65 C 384.63 751.46 388.73 746.98 391.73 741.75 C 393.23 739.06 395.45 736.44 394.98 733.15 C 391.56 731.85 389.23 734.98 387.44 737.39 M 620.27 829.29 C 614.71 841.40 611.58 855.62 615.54 868.66 C 616.59 868.56 618.38 869.20 618.71 867.69 C 620.41 863.68 619.73 859.20 619.90 854.98 C 619.69 844.43 622.53 834.18 624.68 823.95 C 621.97 824.17 621.47 827.37 620.27 829.29 M 636.39 849.30 C 633.54 860.33 631.08 871.57 630.92 883.01 C 629.67 892.90 629.46 903.42 633.24 912.81 C 635.40 913.39 637.87 912.84 638.42 910.36 C 640.22 899.96 637.62 889.43 637.98 878.97 C 638.27 869.98 637.57 860.93 638.81 852.00 C 638.97 849.82 639.31 847.46 638.06 845.53 C 637.40 846.73 636.74 847.95 636.39 849.30 M 408.96 879.02 C 405.56 887.22 404.86 896.23 404.03 904.97 C 403.28 907.33 406.73 909.21 407.32 906.29 C 409.39 896.62 414.18 887.14 412.84 877.04 C 411.18 876.83 409.47 877.23 408.96 879.02 M 649.12 934.10 C 648.87 942.37 648.74 950.72 649.83 958.95 C 650.21 962.97 650.07 967.22 652.08 970.87 C 652.96 970.47 653.85 970.09 654.75 969.71 C 655.52 963.44 653.98 957.24 653.86 950.98 C 653.16 945.41 652.37 939.84 651.57 934.28 C 651.54 932.99 648.77 932.17 649.12 934.10 M 419.98 936.97 C 416.26 946.18 416.66 956.27 417.20 966.00 C 417.74 969.23 417.75 972.70 419.28 975.66 C 419.94 975.75 421.26 975.93 421.91 976.01 C 422.25 967.72 421.41 959.38 422.37 951.11 C 422.92 946.73 423.15 942.33 423.53 937.94 C 424.08 935.97 420.47 934.96 419.98 936.97 M 385.30 973.95 C 387.17 983.23 390.93 992.67 398.39 998.87 C 398.98 998.23 399.58 997.61 400.18 996.99 C 394.76 984.84 389.37 972.63 385.44 959.90 C 384.24 964.47 384.84 969.30 385.30 973.95 M 376.35 1004.32 C 374.90 1004.56 375.51 1006.33 375.52 1007.32 C 377.23 1017.96 378.80 1029.07 384.56 1038.42 C 386.58 1041.05 388.91 1045.24 392.85 1043.89 C 394.16 1038.05 390.83 1032.70 388.39 1027.67 C 385.43 1020.72 381.95 1014.02 379.26 1006.96 C 378.73 1005.85 378.07 1003.28 376.35 1004.32 M 432.05 1015.93 C 431.94 1017.73 431.79 1019.62 432.67 1021.29 C 435.73 1027.89 439.46 1034.18 442.22 1040.93 C 443.38 1043.73 444.16 1046.72 445.71 1049.35 C 446.71 1050.80 448.75 1049.54 448.11 1047.96 C 445.69 1037.88 442.78 1027.67 437.20 1018.82 C 436.09 1017.01 434.28 1015.57 432.05 1015.93 Z" />
</g>
<g id="#f0a11cff">
<path fill="#f0a11c" opacity="1.00" d=" M 902.32 148.05 C 907.93 153.31 911.05 160.61 912.90 167.95 C 917.35 185.24 917.70 203.31 916.36 221.03 C 914.81 239.91 911.01 258.66 904.59 276.51 C 898.38 271.36 892.88 265.42 887.86 259.14 C 886.56 257.96 887.49 256.30 887.81 254.92 C 891.37 244.69 894.03 234.17 896.55 223.64 C 900.93 203.42 904.24 182.80 904.18 162.06 C 904.47 157.27 902.21 152.82 902.32 148.05 Z" />
<path fill="#f0a11c" opacity="1.00" d=" M 469.75 213.57 C 477.96 206.31 489.54 205.47 500.00 205.18 C 521.54 205.15 542.86 209.82 563.13 216.88 C 575.51 221.24 587.52 226.65 598.87 233.26 C 590.95 236.98 583.83 242.17 576.31 246.50 C 567.01 242.32 558.16 237.13 548.72 233.24 C 529.82 224.92 510.14 218.47 490.04 213.83 C 483.38 212.27 476.47 212.73 469.75 213.57 Z" />
<path fill="#f0a11c" opacity="1.00" d=" M 816.32 294.63 C 816.08 288.65 816.22 282.67 816.71 276.71 C 820.51 282.46 822.56 290.05 818.85 296.37 C 818.01 295.77 817.17 295.19 816.32 294.63 Z" />
<path fill="#f0a11c" opacity="1.00" d=" M 749.89 286.05 C 758.20 287.70 766.46 289.60 774.59 291.98 C 766.95 294.37 759.32 297.92 754.19 304.29 C 751.11 298.72 749.36 292.45 749.89 286.05 Z" />
<path fill="#f0a11c" opacity="1.00" d=" M 582.73 299.75 C 587.88 295.83 594.74 294.36 601.07 295.61 C 610.04 297.06 619.36 300.46 625.21 307.75 C 630.98 313.92 632.96 322.83 631.93 331.06 C 620.67 325.43 607.54 327.72 595.96 331.03 C 585.14 334.07 574.33 340.32 569.40 350.86 C 565.80 346.33 563.38 340.86 563.13 335.03 C 563.99 321.17 571.24 307.67 582.73 299.75 Z" />
<path fill="#f0a11c" opacity="1.00" d=" M 460.37 626.43 C 462.63 625.40 463.87 628.75 462.21 630.19 C 454.98 640.77 445.80 649.85 436.62 658.71 C 434.53 659.61 434.41 656.41 435.46 655.40 C 443.16 645.27 450.40 634.52 460.37 626.43 Z" />
<path fill="#f0a11c" opacity="1.00" d=" M 893.04 638.86 C 893.26 638.83 893.70 638.76 893.92 638.72 C 903.29 647.78 912.29 657.22 921.20 666.75 C 927.59 673.41 933.70 680.39 940.67 686.47 L 940.39 686.88 C 934.19 695.55 932.06 706.46 931.98 716.95 C 931.83 734.74 937.54 752.17 936.01 770.01 C 935.54 776.37 933.11 783.03 927.67 786.78 C 920.64 791.77 911.43 793.88 906.15 801.17 C 902.49 805.45 901.77 811.17 899.55 816.15 L 898.98 815.75 C 895.81 812.67 892.55 809.69 889.29 806.72 C 890.92 782.19 891.46 757.60 892.14 733.03 C 892.84 703.02 893.38 672.99 892.34 642.98 C 892.26 641.55 892.49 640.17 893.04 638.86 Z" />
<path fill="#f0a11c" opacity="1.00" d=" M 605.22 735.18 C 608.05 730.75 610.19 725.86 613.69 721.89 C 608.72 758.38 606.03 795.18 605.83 832.00 C 606.18 839.36 604.92 846.68 605.14 854.04 C 605.31 864.36 604.76 874.71 605.76 885.01 C 605.88 901.01 605.95 917.03 606.15 933.03 C 607.46 946.31 606.59 959.67 607.32 972.97 C 608.15 980.30 607.86 987.67 608.04 995.03 C 608.00 1001.76 609.19 1008.43 609.01 1015.17 C 609.73 1042.80 611.31 1070.41 612.70 1098.02 C 613.65 1114.70 614.80 1131.84 621.57 1147.35 C 620.74 1147.79 619.92 1148.23 619.09 1148.67 C 614.76 1149.88 610.32 1150.80 605.85 1151.21 C 604.99 1150.86 604.16 1150.50 603.35 1150.13 C 610.56 1142.03 611.90 1130.20 609.70 1119.92 C 607.66 1110.63 604.77 1101.52 601.43 1092.62 C 598.27 1084.05 593.08 1076.49 587.93 1069.02 C 580.60 1058.43 575.95 1045.92 575.14 1033.04 C 574.92 1029.76 574.85 1025.98 571.87 1023.90 C 574.59 1011.40 578.67 998.93 578.15 985.98 C 578.73 978.01 579.15 970.03 578.88 962.03 C 578.14 947.65 577.66 933.21 575.22 918.98 C 572.77 905.00 569.59 891.05 564.19 877.89 C 555.56 855.32 541.41 834.61 522.44 819.52 C 510.14 810.35 496.60 802.62 481.87 798.12 C 471.83 795.15 461.51 792.51 450.95 792.89 C 431.69 792.37 413.12 800.07 393.85 798.84 C 410.43 783.27 433.60 776.88 455.84 775.59 C 465.69 774.37 475.57 775.75 485.40 776.52 C 502.25 778.86 519.12 782.86 534.35 790.64 C 547.69 796.97 559.25 806.56 568.81 817.75 C 570.90 808.03 573.12 798.28 577.13 789.15 C 584.95 770.40 594.83 752.60 605.22 735.18 Z" />
<path fill="#f0a11c" opacity="1.00" d=" M 417.71 729.83 C 419.12 728.31 421.21 725.75 423.38 727.63 C 424.63 729.23 423.46 731.15 422.68 732.68 C 414.44 747.01 404.90 760.55 395.84 774.35 C 395.63 773.98 395.20 773.24 394.98 772.87 C 396.88 765.99 400.35 759.66 403.05 753.08 C 407.19 744.90 411.82 736.89 417.71 729.83 Z" />
<path fill="#f0a11c" opacity="1.00" d=" M 387.44 737.39 C 389.23 734.98 391.56 731.85 394.98 733.15 C 395.45 736.44 393.23 739.06 391.73 741.75 C 388.73 746.98 384.63 751.46 381.57 756.65 C 377.60 762.55 374.78 769.28 369.67 774.35 C 368.92 772.33 369.94 770.28 370.50 768.38 C 371.97 763.87 374.21 759.69 376.63 755.63 C 379.77 749.29 383.42 743.21 387.44 737.39 Z" />
<path fill="#f0a11c" opacity="1.00" d=" M 620.27 829.29 C 621.47 827.37 621.97 824.17 624.68 823.95 C 622.53 834.18 619.69 844.43 619.90 854.98 C 619.73 859.20 620.41 863.68 618.71 867.69 C 618.38 869.20 616.59 868.56 615.54 868.66 C 611.58 855.62 614.71 841.40 620.27 829.29 Z" />
<path fill="#f0a11c" opacity="1.00" d=" M 636.39 849.30 C 636.74 847.95 637.40 846.73 638.06 845.53 C 639.31 847.46 638.97 849.82 638.81 852.00 C 637.57 860.93 638.27 869.98 637.98 878.97 C 637.62 889.43 640.22 899.96 638.42 910.36 C 637.87 912.84 635.40 913.39 633.24 912.81 C 629.46 903.42 629.67 892.90 630.92 883.01 C 631.08 871.57 633.54 860.33 636.39 849.30 Z" />
<path fill="#f0a11c" opacity="1.00" d=" M 408.96 879.02 C 409.47 877.23 411.18 876.83 412.84 877.04 C 414.18 887.14 409.39 896.62 407.32 906.29 C 406.73 909.21 403.28 907.33 404.03 904.97 C 404.86 896.23 405.56 887.22 408.96 879.02 Z" />
<path fill="#f0a11c" opacity="1.00" d=" M 229.32 900.28 C 237.66 888.87 251.56 881.16 265.90 882.27 C 271.78 883.11 277.80 884.72 282.59 888.37 C 290.83 894.53 295.14 904.66 296.47 914.62 C 298.65 931.23 294.58 947.83 289.07 963.41 C 287.04 964.11 284.98 964.72 282.92 965.33 C 282.77 960.94 283.43 956.58 284.45 952.33 C 286.36 944.03 286.31 935.44 286.05 926.98 C 285.46 916.04 277.70 905.73 266.98 902.92 C 259.78 900.59 251.29 902.56 246.16 908.20 C 241.25 913.45 238.90 920.49 237.41 927.39 C 234.26 942.04 247.76 958.10 262.96 956.22 C 268.10 956.57 272.53 953.81 277.10 951.95 C 272.92 958.13 265.04 960.15 258.04 960.90 C 248.14 961.92 237.51 960.75 229.29 954.71 C 223.59 950.44 219.03 944.22 218.12 937.02 C 216.37 923.87 221.67 910.74 229.32 900.28 Z" />
<path fill="#f0a11c" opacity="1.00" d=" M 649.12 934.10 C 648.77 932.17 651.54 932.99 651.57 934.28 C 652.37 939.84 653.16 945.41 653.86 950.98 C 653.98 957.24 655.52 963.44 654.75 969.71 C 653.85 970.09 652.96 970.47 652.08 970.87 C 650.07 967.22 650.21 962.97 649.83 958.95 C 648.74 950.72 648.87 942.37 649.12 934.10 Z" />
<path fill="#f0a11c" opacity="1.00" d=" M 419.98 936.97 C 420.47 934.96 424.08 935.97 423.53 937.94 C 423.15 942.33 422.92 946.73 422.37 951.11 C 421.41 959.38 422.25 967.72 421.91 976.01 C 421.26 975.93 419.94 975.75 419.28 975.66 C 417.75 972.70 417.74 969.23 417.20 966.00 C 416.66 956.27 416.26 946.18 419.98 936.97 Z" />
<path fill="#f0a11c" opacity="1.00" d=" M 385.30 973.95 C 384.84 969.30 384.24 964.47 385.44 959.90 C 389.37 972.63 394.76 984.84 400.18 996.99 C 399.58 997.61 398.98 998.23 398.39 998.87 C 390.93 992.67 387.17 983.23 385.30 973.95 Z" />
<path fill="#f0a11c" opacity="1.00" d=" M 376.35 1004.32 C 378.07 1003.28 378.73 1005.85 379.26 1006.96 C 381.95 1014.02 385.43 1020.72 388.39 1027.67 C 390.83 1032.70 394.16 1038.05 392.85 1043.89 C 388.91 1045.24 386.58 1041.05 384.56 1038.42 C 378.80 1029.07 377.23 1017.96 375.52 1007.32 C 375.51 1006.33 374.90 1004.56 376.35 1004.32 Z" />
<path fill="#f0a11c" opacity="1.00" d=" M 432.05 1015.93 C 434.28 1015.57 436.09 1017.01 437.20 1018.82 C 442.78 1027.67 445.69 1037.88 448.11 1047.96 C 448.75 1049.54 446.71 1050.80 445.71 1049.35 C 444.16 1046.72 443.38 1043.73 442.22 1040.93 C 439.46 1034.18 435.73 1027.89 432.67 1021.29 C 431.79 1019.62 431.94 1017.73 432.05 1015.93 Z" />
</g>
<g id="#fbddb3ff">
<path fill="#fbddb3" opacity="1.00" d=" M 868.30 181.48 C 872.23 179.63 877.30 180.38 880.14 183.79 C 884.25 188.29 884.19 194.87 883.31 200.53 C 880.99 215.18 878.04 229.72 874.71 244.17 C 862.42 231.99 849.35 219.59 832.80 213.54 C 838.89 206.44 846.10 200.34 852.80 193.82 C 857.76 189.49 862.19 184.24 868.30 181.48 Z" />
<path fill="#fbddb3" opacity="1.00" d=" M 499.74 242.69 C 504.29 237.51 512.13 237.95 518.11 240.02 C 533.30 245.18 548.27 250.98 562.93 257.49 C 549.21 269.19 537.07 282.88 527.63 298.27 C 526.72 297.52 525.85 296.70 525.21 295.71 C 516.73 283.48 508.28 271.21 500.58 258.47 C 497.84 253.84 495.86 247.26 499.74 242.69 Z" />
<path fill="#fbddb3" opacity="1.00" d=" M 586.16 271.24 C 588.33 270.94 591.09 270.48 592.70 272.38 C 595.04 275.14 594.03 279.30 591.90 281.88 C 587.67 287.33 581.86 292.17 574.87 293.31 C 572.86 293.81 570.46 292.24 571.06 290.00 C 573.03 282.13 577.05 272.59 586.16 271.24 Z" />
<path fill="#fbddb3" opacity="1.00" d=" M 704.90 339.17 C 718.35 336.05 732.46 335.07 746.05 337.86 C 759.64 340.52 772.28 346.71 783.78 354.28 C 792.77 360.13 800.49 367.68 809.36 373.68 C 825.89 384.92 846.05 390.57 866.00 389.99 C 898.81 389.34 930.23 369.66 945.82 340.92 C 944.12 404.46 915.01 465.92 869.36 509.72 C 869.69 510.56 870.34 512.26 870.67 513.11 C 868.50 512.73 866.04 511.54 864.02 512.98 C 858.92 516.20 854.31 520.16 849.03 523.12 C 814.60 544.65 774.33 555.80 733.94 558.02 C 723.96 558.83 713.92 558.99 703.91 558.67 C 701.82 558.58 699.75 558.90 697.73 559.37 C 709.02 561.67 720.59 561.92 732.05 562.89 C 762.04 563.84 792.08 563.25 822.01 561.13 C 835.64 560.71 849.43 558.41 862.98 560.93 C 869.44 562.12 875.53 565.18 880.32 569.68 C 882.46 571.67 883.84 574.53 886.61 575.80 L 886.94 575.99 C 889.17 593.95 890.77 612.00 891.63 630.09 C 891.75 633.03 891.29 636.27 893.04 638.86 C 892.49 640.17 892.26 641.55 892.34 642.98 C 893.38 672.99 892.84 703.02 892.14 733.03 C 891.46 757.60 890.92 782.19 889.29 806.72 C 885.50 867.51 878.55 928.70 859.73 986.89 C 856.21 988.93 854.13 992.53 851.28 995.30 C 844.81 1002.00 837.71 1008.66 828.71 1011.69 C 821.29 1014.36 812.57 1014.67 805.65 1010.44 C 797.80 1005.76 794.08 996.86 791.36 988.56 C 778.82 950.80 780.85 910.42 773.47 871.68 C 769.51 850.66 762.58 830.29 754.14 810.69 C 752.11 777.50 749.70 743.75 738.57 712.14 C 729.07 684.69 713.40 659.60 694.03 638.04 C 685.08 628.26 676.05 617.91 663.79 612.25 C 658.99 606.68 654.85 600.51 649.96 594.98 C 638.11 580.90 624.97 567.93 610.82 556.17 C 609.48 555.08 608.00 554.21 606.46 553.47 C 591.60 546.65 577.43 538.32 564.16 528.77 C 560.42 526.15 557.06 522.87 552.72 521.23 C 545.52 518.08 537.73 514.65 533.16 507.94 C 530.55 504.40 529.51 500.10 527.80 496.20 C 510.30 477.19 495.60 455.50 485.26 431.79 C 503.49 445.97 526.80 453.64 549.92 452.36 C 569.19 451.31 587.94 443.94 603.12 432.09 C 614.54 423.35 623.53 411.77 630.17 399.06 C 638.43 383.26 648.89 368.18 663.13 357.19 C 675.26 347.76 689.94 342.16 704.90 339.17 M 709.47 355.66 C 699.54 357.79 689.52 360.06 680.25 364.30 C 674.92 366.76 669.92 371.10 668.58 377.03 C 667.15 383.30 671.20 389.77 676.91 392.25 C 682.08 394.52 688.01 393.61 693.20 395.82 C 698.07 397.93 701.36 402.39 706.03 404.82 C 709.16 406.79 713.00 406.65 716.40 407.39 C 719.93 423.85 714.23 442.27 700.84 452.80 C 695.08 457.49 688.11 460.29 682.06 464.51 C 691.23 465.05 700.11 460.92 706.65 454.67 C 716.08 446.00 721.45 433.77 723.76 421.34 C 723.93 421.32 724.29 421.27 724.47 421.25 C 732.77 432.74 744.12 442.68 757.99 446.59 C 767.73 449.47 779.19 449.30 787.65 443.10 C 778.81 442.85 769.86 443.69 761.15 441.76 C 752.20 439.86 744.01 434.86 738.01 427.99 C 732.62 421.25 728.29 413.44 725.99 405.11 C 727.41 403.53 728.96 402.06 730.46 400.54 C 734.38 396.50 735.60 390.61 739.63 386.65 C 743.62 382.72 749.42 381.31 753.32 377.26 C 757.48 372.88 758.88 365.61 755.47 360.40 C 751.94 354.98 745.18 352.81 739.00 352.63 C 729.08 352.36 719.21 353.92 709.47 355.66 M 656.45 568.31 C 655.67 570.24 658.14 570.86 659.36 571.67 C 666.96 575.48 675.11 580.26 683.94 578.81 C 684.49 575.43 681.26 573.57 678.69 572.32 C 672.76 569.60 666.32 568.20 659.89 567.26 C 658.75 567.10 656.75 566.74 656.45 568.31 M 703.19 570.22 C 703.07 570.66 702.82 571.54 702.69 571.98 C 707.30 576.93 713.59 580.02 718.91 584.16 C 721.36 585.81 725.10 588.37 727.81 585.85 C 730.06 583.75 727.50 580.73 725.85 579.14 C 719.56 573.84 711.44 570.47 703.19 570.22 M 657.89 586.28 C 666.93 591.92 674.87 599.10 682.29 606.72 C 691.42 614.70 700.45 622.88 710.34 629.92 C 712.61 628.73 712.13 626.10 710.51 624.58 C 703.83 616.26 696.00 608.99 687.97 602.00 C 681.11 596.42 674.52 590.15 666.26 586.69 C 663.59 585.99 660.44 584.53 657.89 586.28 M 807.96 591.82 C 808.28 596.05 810.93 599.53 812.65 603.27 C 814.50 606.61 816.16 610.53 819.73 612.39 C 820.74 613.13 821.70 611.96 822.32 611.28 C 823.58 609.47 822.15 607.36 821.21 605.78 C 818.66 602.02 815.88 598.41 812.80 595.07 C 811.45 593.65 810.08 591.93 807.96 591.82 M 852.85 594.01 C 854.29 601.01 856.82 607.83 857.22 615.03 C 857.78 618.42 857.29 622.60 860.31 624.96 C 861.61 624.02 863.07 622.88 862.84 621.07 C 863.07 611.95 859.86 603.14 856.00 595.01 C 855.47 593.56 853.62 591.47 852.85 594.01 M 701.97 598.20 C 704.14 601.52 708.49 602.03 711.22 604.73 C 719.43 612.02 722.65 623.08 729.83 631.18 C 732.27 633.23 735.27 629.91 734.49 627.31 C 731.96 613.26 720.94 600.72 706.98 597.21 C 705.17 596.64 703.35 596.88 701.97 598.20 M 748.87 613.11 C 750.97 619.49 752.54 626.57 757.84 631.19 C 759.70 633.01 763.63 631.57 763.67 628.90 C 763.66 625.08 761.47 621.72 759.49 618.62 C 756.43 614.26 753.48 609.78 749.61 606.08 C 746.64 607.45 748.21 610.75 748.87 613.11 M 794.08 648.95 C 793.38 653.93 793.69 658.97 793.62 663.99 C 793.67 675.64 793.38 687.34 794.82 698.93 C 795.76 706.02 796.17 713.43 799.13 720.03 C 800.69 719.48 803.34 719.36 803.02 717.02 C 804.24 695.22 800.66 673.58 798.24 651.99 C 798.33 649.54 796.24 648.48 794.08 648.95 M 866.00 662.11 C 865.35 668.07 866.22 674.09 865.75 680.08 C 865.86 682.94 864.95 687.51 868.66 688.43 C 870.26 689.13 871.65 687.32 871.97 685.92 C 874.27 679.11 871.73 672.00 869.51 665.54 C 868.85 664.10 868.21 661.22 866.00 662.11 M 832.10 670.05 C 832.52 673.48 834.06 676.65 835.26 679.87 C 835.93 679.88 837.26 679.89 837.93 679.90 C 838.24 676.11 837.72 672.22 836.36 668.67 C 834.99 667.49 832.32 668.09 832.10 670.05 M 745.16 669.20 C 744.27 670.81 745.24 672.67 745.58 674.33 C 748.86 684.37 752.30 694.74 759.06 703.05 C 760.49 705.37 764.77 703.78 763.87 700.99 C 761.64 690.19 755.06 680.98 748.86 672.10 C 747.80 670.91 747.12 668.76 745.16 669.20 M 842.35 720.39 C 840.77 722.31 841.97 724.87 842.03 727.06 C 843.66 737.90 842.27 748.95 844.27 759.75 C 845.97 761.23 849.02 760.48 849.26 758.06 C 851.71 746.34 848.92 734.36 846.17 722.95 C 845.98 721.03 844.30 719.30 842.35 720.39 M 787.31 749.34 C 786.67 754.19 787.35 759.11 787.20 763.99 C 787.53 778.33 787.57 793.04 792.23 806.78 C 793.41 806.78 794.60 806.80 795.80 806.83 C 798.79 792.72 796.28 778.16 794.60 764.02 C 793.70 758.74 793.62 753.27 791.86 748.18 C 790.33 748.22 788.15 747.62 787.31 749.34 M 865.05 822.93 C 865.04 829.71 863.17 836.23 861.54 842.75 C 861.15 844.90 860.27 848.18 863.00 849.16 C 865.77 849.79 867.79 847.04 868.89 844.89 C 871.47 838.53 870.06 831.33 867.85 825.07 C 867.54 823.65 866.48 822.84 865.05 822.93 M 830.18 851.27 C 829.93 851.48 829.43 851.90 829.18 852.11 C 828.40 855.69 829.12 859.41 829.05 863.06 C 829.08 872.05 829.35 881.08 828.43 890.04 C 827.98 895.03 827.92 900.05 828.09 905.06 C 828.19 906.83 828.21 909.06 829.98 910.08 C 831.57 911.26 833.82 909.97 834.35 908.27 C 835.92 903.36 836.03 898.13 836.16 893.01 C 836.21 880.01 836.02 866.96 834.18 854.07 C 834.30 851.94 832.15 850.37 830.18 851.27 Z" />
<path fill="#fbddb3" opacity="1.00" d=" M 931.98 716.95 C 932.06 706.46 934.19 695.55 940.39 686.88 C 947.38 693.53 952.58 701.75 959.17 708.77 C 963.76 713.87 969.50 717.77 974.25 722.72 C 989.41 737.96 999.78 757.41 1006.16 777.81 C 1015.86 809.79 1017.33 843.97 1012.57 876.94 C 1009.87 898.26 998.13 917.27 983.79 932.80 C 978.38 939.04 972.09 944.43 965.84 949.80 C 961.19 953.50 956.81 957.96 950.92 959.61 C 940.92 962.72 930.37 964.41 919.89 963.98 C 913.94 963.85 908.61 960.21 905.69 955.15 L 906.09 954.81 C 910.29 951.69 912.73 946.97 915.86 942.90 C 925.97 929.28 936.08 915.39 942.61 899.62 C 943.72 897.14 944.51 894.53 945.06 891.88 C 939.22 900.01 933.20 908.04 926.42 915.43 C 919.91 923.44 911.22 929.88 901.01 932.15 C 892.52 932.59 886.43 923.88 885.95 916.10 C 885.68 906.32 890.59 897.48 894.61 888.88 C 900.13 877.52 906.09 866.37 912.68 855.58 C 915.12 851.43 917.87 846.99 917.49 841.97 C 917.68 835.76 913.07 831.04 909.47 826.53 C 906.24 823.08 903.42 819.10 899.39 816.54 L 899.55 816.15 C 901.77 811.17 902.49 805.45 906.15 801.17 C 911.43 793.88 920.64 791.77 927.67 786.78 C 933.11 783.03 935.54 776.37 936.01 770.01 C 937.54 752.17 931.83 734.74 931.98 716.95 Z" />
<path fill="#fbddb3" opacity="1.00" d=" M 228.14 784.78 C 255.09 779.61 283.50 781.98 309.07 792.05 C 320.47 796.40 331.15 802.41 341.30 809.15 C 367.11 826.44 385.58 856.33 385.00 887.93 C 384.33 907.02 377.33 925.44 367.75 941.78 C 360.83 953.45 351.48 963.92 339.54 970.60 C 327.91 977.20 314.49 982.15 300.94 980.55 C 292.68 979.64 284.53 973.80 282.92 965.33 C 284.98 964.72 287.04 964.11 289.07 963.41 C 306.86 957.13 323.31 945.18 332.17 928.21 C 339.96 913.35 341.78 894.81 334.55 879.37 C 327.62 864.72 314.54 853.52 299.75 847.24 C 270.36 834.93 234.50 840.88 210.11 861.19 C 197.27 871.97 187.89 886.56 182.46 902.36 C 173.82 927.49 174.63 955.73 184.73 980.31 C 189.65 992.50 197.49 1004.24 209.40 1010.51 C 221.71 1016.99 235.48 1020.25 249.16 1022.34 C 264.12 1024.66 279.20 1022.43 294.10 1020.74 C 316.32 1017.94 338.52 1014.15 359.95 1007.51 C 358.05 1026.27 361.15 1045.26 367.14 1063.05 C 370.69 1073.29 374.85 1083.44 380.70 1092.60 C 370.86 1094.47 361.03 1096.48 351.05 1097.48 C 322.46 1100.43 293.64 1099.18 265.05 1096.86 C 238.03 1094.69 210.64 1092.18 184.94 1083.02 C 160.71 1074.58 138.82 1059.17 123.42 1038.58 C 112.94 1024.85 105.58 1008.88 101.28 992.18 C 93.60 961.56 96.57 929.28 104.46 899.02 C 109.26 880.27 117.05 862.16 128.43 846.45 C 140.21 830.03 155.61 816.34 172.97 806.05 C 190.02 796.00 208.60 788.26 228.14 784.78 M 212.97 802.97 C 209.40 805.02 205.10 806.50 202.78 810.12 C 209.27 808.85 215.39 806.11 221.97 805.13 C 231.77 802.67 242.22 804.74 251.88 801.82 C 251.91 800.06 252.20 797.58 249.96 797.10 C 237.52 793.13 224.16 797.17 212.97 802.97 M 301.24 807.24 C 300.07 807.77 299.47 809.42 300.69 810.30 C 303.27 812.48 306.30 814.05 309.16 815.83 C 314.41 818.98 319.80 822.53 326.03 823.20 C 327.79 823.63 329.95 821.11 328.34 819.71 C 323.20 814.15 315.55 812.12 308.74 809.38 C 306.26 808.70 303.85 806.95 301.24 807.24 M 265.06 822.18 C 265.07 822.84 265.10 824.17 265.11 824.83 C 275.21 824.68 285.23 827.27 295.32 826.43 C 298.48 826.74 300.53 821.91 296.96 820.93 C 286.74 816.84 275.27 819.29 265.06 822.18 M 215.40 821.48 C 204.14 824.31 194.73 831.68 186.40 839.47 C 185.54 840.30 185.49 841.59 185.11 842.68 C 185.65 842.94 186.74 843.46 187.29 843.72 C 192.73 840.49 198.34 837.52 204.32 835.42 C 212.83 831.86 222.04 829.76 229.89 824.79 C 229.53 823.63 229.35 822.40 228.69 821.38 C 224.43 819.63 219.75 820.76 215.40 821.48 M 145.06 851.97 C 141.98 859.62 139.77 867.86 139.99 876.16 C 142.80 876.33 142.88 873.29 143.47 871.34 C 145.47 863.47 148.53 855.87 152.86 848.99 C 154.13 846.56 156.70 843.27 153.81 841.02 C 149.36 843.03 147.20 847.85 145.06 851.97 M 343.23 846.28 C 341.32 847.14 340.47 849.55 341.65 851.35 C 346.29 859.95 348.60 869.53 350.70 879.01 C 351.18 880.38 351.07 882.85 353.11 882.87 C 355.22 883.19 356.92 881.00 356.81 879.03 C 357.68 868.00 353.80 857.17 348.25 847.80 C 347.36 845.96 344.98 845.37 343.23 846.28 M 167.78 872.79 C 160.34 883.47 155.66 895.98 153.12 908.69 C 154.47 909.53 156.47 910.06 157.31 908.20 C 161.11 897.70 165.90 887.59 170.38 877.37 C 171.25 875.31 172.30 873.21 172.23 870.93 C 170.72 869.17 168.67 871.47 167.78 872.79 M 121.18 906.17 C 116.86 921.95 115.30 939.29 120.73 955.03 C 121.22 956.84 122.47 959.24 124.75 958.68 C 126.90 957.64 125.94 954.84 126.04 952.98 C 124.69 938.02 122.86 922.94 124.56 907.93 C 124.81 906.12 122.57 905.11 121.18 906.17 M 142.41 944.34 C 140.64 950.37 142.89 956.49 144.67 962.23 C 147.28 970.27 149.30 978.75 154.21 985.77 C 155.48 987.67 158.00 987.01 159.90 986.86 C 161.32 982.63 159.42 978.25 158.67 974.07 C 157.09 966.55 152.55 960.16 150.21 952.92 C 149.06 949.78 149.78 946.46 149.69 943.24 C 147.82 940.84 143.43 941.36 142.41 944.34 M 144.19 1000.11 C 142.10 1001.77 143.79 1004.44 144.46 1006.39 C 148.06 1015.32 152.15 1025.08 160.81 1030.25 C 162.79 1031.80 167.29 1031.39 166.74 1028.09 C 164.84 1022.07 160.28 1017.37 156.52 1012.44 C 153.46 1008.75 151.20 1004.49 148.31 1000.68 C 147.43 999.31 145.47 999.49 144.19 1000.11 M 210.10 1033.18 C 210.17 1034.47 209.79 1036.05 211.18 1036.83 C 221.90 1045.97 238.31 1048.95 250.85 1041.74 C 250.83 1040.09 251.31 1037.47 249.01 1037.22 C 238.78 1035.32 228.21 1035.86 218.01 1033.62 C 215.40 1033.15 212.68 1031.86 210.10 1033.18 M 282.07 1043.22 C 279.42 1043.80 279.99 1046.88 280.16 1048.89 C 284.79 1049.51 289.43 1048.63 294.03 1048.10 C 302.75 1046.93 311.58 1044.87 319.16 1040.24 C 321.23 1039.22 321.58 1035.65 318.98 1035.14 C 306.13 1033.54 293.74 1038.49 282.07 1043.22 M 183.18 1053.19 C 181.72 1054.21 182.16 1056.47 183.42 1057.48 C 193.00 1064.92 204.65 1070.68 217.05 1070.30 C 222.57 1070.43 227.93 1068.51 232.57 1065.62 C 234.86 1064.42 234.90 1060.62 232.73 1059.32 C 228.96 1058.04 224.91 1058.27 220.99 1058.12 C 210.74 1058.08 200.20 1058.00 190.43 1054.55 C 188.12 1053.85 185.61 1051.78 183.18 1053.19 M 336.35 1054.41 C 326.52 1055.39 317.55 1059.91 307.95 1061.94 C 305.72 1062.44 303.43 1062.69 301.23 1063.35 C 298.95 1064.00 299.72 1067.98 302.08 1067.65 C 312.73 1067.83 323.70 1069.25 334.09 1066.21 C 337.91 1064.67 342.31 1063.23 344.70 1059.66 C 345.79 1054.98 339.91 1053.32 336.35 1054.41 Z" />
<path fill="#fbddb3" opacity="1.00" d=" M 722.06 995.99 C 727.73 989.07 733.26 981.54 741.48 977.45 C 742.50 981.30 741.30 985.21 740.78 989.04 C 737.42 1012.12 733.14 1035.06 729.30 1058.06 C 728.44 1064.04 726.25 1070.07 727.67 1076.14 C 729.20 1083.76 731.49 1091.26 734.64 1098.37 C 736.50 1102.86 740.23 1106.18 744.18 1108.84 C 748.44 1111.66 752.59 1114.67 757.19 1116.95 C 759.08 1119.72 762.48 1120.90 764.83 1123.25 C 772.14 1128.88 775.30 1138.06 776.77 1146.85 C 778.01 1155.51 777.37 1165.48 770.90 1172.06 C 764.95 1177.27 756.72 1178.43 749.11 1178.94 C 744.15 1179.53 739.22 1178.50 734.26 1178.62 C 732.43 1169.75 725.93 1163.16 720.75 1156.12 C 711.54 1144.98 701.77 1133.98 689.91 1125.62 C 692.09 1129.76 695.57 1132.96 698.31 1136.72 C 704.04 1144.56 709.22 1152.82 713.40 1161.60 C 715.71 1166.15 716.93 1171.30 720.26 1175.30 C 721.51 1182.55 715.92 1189.39 709.06 1191.04 C 703.43 1192.45 697.51 1191.60 691.89 1190.58 C 678.73 1188.00 665.43 1184.92 653.45 1178.70 C 639.86 1172.39 628.06 1161.53 622.15 1147.61 C 621.13 1147.96 620.11 1148.32 619.09 1148.67 C 619.92 1148.23 620.74 1147.79 621.57 1147.35 C 614.80 1131.84 613.65 1114.70 612.70 1098.02 C 611.31 1070.41 609.73 1042.80 609.01 1015.17 C 623.09 1008.53 639.74 1008.93 654.09 1014.54 C 663.22 1018.00 671.95 1023.45 681.95 1023.84 C 689.23 1024.27 696.33 1021.43 702.09 1017.12 C 709.93 1011.30 715.93 1003.49 722.06 995.99 Z" />
<path fill="#fbddb3" opacity="1.00" d=" M 497.34 1022.38 C 500.52 1015.92 505.90 1010.01 513.11 1008.23 C 521.63 1006.13 530.37 1008.63 538.40 1011.50 C 549.56 1015.64 560.76 1019.65 571.87 1023.90 C 574.85 1025.98 574.92 1029.76 575.14 1033.04 C 575.95 1045.92 580.60 1058.43 587.93 1069.02 C 593.08 1076.49 598.27 1084.05 601.43 1092.62 C 604.77 1101.52 607.66 1110.63 609.70 1119.92 C 611.90 1130.20 610.56 1142.03 603.35 1150.13 C 604.16 1150.50 604.99 1150.86 605.85 1151.21 C 604.87 1152.07 603.34 1151.48 602.18 1151.59 C 595.01 1160.36 583.24 1165.25 571.98 1163.84 C 572.35 1157.02 568.70 1150.96 566.07 1144.93 C 561.17 1134.72 555.06 1125.02 547.43 1116.63 C 542.84 1111.16 537.79 1105.98 531.79 1102.07 C 534.43 1106.66 538.33 1110.37 540.87 1115.04 C 546.51 1124.06 550.73 1133.89 554.16 1143.94 C 556.05 1149.31 556.87 1155.07 559.58 1160.14 C 558.13 1168.27 551.67 1175.20 543.76 1177.45 C 535.14 1179.88 525.65 1178.73 517.87 1174.31 C 492.64 1159.38 468.32 1142.99 443.88 1126.80 C 441.49 1125.59 439.87 1123.24 437.42 1122.21 C 434.83 1118.12 432.26 1113.79 431.77 1108.88 C 430.86 1102.51 433.14 1096.05 437.08 1091.09 C 443.14 1083.37 451.13 1076.92 460.47 1073.67 C 468.52 1070.69 477.36 1067.81 482.66 1060.57 C 491.07 1049.38 491.06 1034.57 497.34 1022.38 Z" />
</g>
<g id="#5b4b40ff">
<path fill="#5b4b40" opacity="1.00" d=" M 774.59 291.98 C 785.48 295.03 796.16 298.92 806.28 303.99 C 790.79 302.91 775.20 304.66 760.14 308.32 C 756.46 309.16 753.06 310.82 749.79 312.65 C 750.83 309.66 752.22 306.78 754.19 304.29 C 759.32 297.92 766.95 294.37 774.59 291.98 Z" />
<path fill="#5b4b40" opacity="1.00" d=" M 816.32 294.63 C 817.17 295.19 818.01 295.77 818.85 296.37 C 822.44 299.02 823.92 303.34 825.60 307.28 C 822.88 306.62 820.14 306.04 817.40 305.53 C 816.82 301.92 816.40 298.28 816.32 294.63 Z" />
<path fill="#5b4b40" opacity="1.00" d=" M 595.96 331.03 C 607.54 327.72 620.67 325.43 631.93 331.06 C 634.82 332.46 637.30 334.55 639.45 336.92 C 631.48 335.93 623.62 338.03 615.94 339.89 C 598.72 344.27 582.04 351.54 568.05 362.63 C 568.14 358.70 567.41 354.47 569.40 350.86 C 574.33 340.32 585.14 334.07 595.96 331.03 Z" />
<path fill="#5b4b40" opacity="1.00" d=" M 709.47 355.66 C 719.21 353.92 729.08 352.36 739.00 352.63 C 745.18 352.81 751.94 354.98 755.47 360.40 C 758.88 365.61 757.48 372.88 753.32 377.26 C 749.42 381.31 743.62 382.72 739.63 386.65 C 735.60 390.61 734.38 396.50 730.46 400.54 C 728.96 402.06 727.41 403.53 725.99 405.11 C 728.29 413.44 732.62 421.25 738.01 427.99 C 744.01 434.86 752.20 439.86 761.15 441.76 C 769.86 443.69 778.81 442.85 787.65 443.10 C 779.19 449.30 767.73 449.47 757.99 446.59 C 744.12 442.68 732.77 432.74 724.47 421.25 C 724.29 421.27 723.93 421.32 723.76 421.34 C 721.45 433.77 716.08 446.00 706.65 454.67 C 700.11 460.92 691.23 465.05 682.06 464.51 C 688.11 460.29 695.08 457.49 700.84 452.80 C 714.23 442.27 719.93 423.85 716.40 407.39 C 713.00 406.65 709.16 406.79 706.03 404.82 C 701.36 402.39 698.07 397.93 693.20 395.82 C 688.01 393.61 682.08 394.52 676.91 392.25 C 671.20 389.77 667.15 383.30 668.58 377.03 C 669.92 371.10 674.92 366.76 680.25 364.30 C 689.52 360.06 699.54 357.79 709.47 355.66 Z" />
</g>
<g id="#f4c79eff">
<path fill="#f4c79e" opacity="1.00" d=" M 864.02 512.98 C 866.04 511.54 868.50 512.73 870.67 513.11 L 871.02 513.19 C 879.43 533.07 884.41 554.36 886.61 575.80 C 883.84 574.53 882.46 571.67 880.32 569.68 C 875.53 565.18 869.44 562.12 862.98 560.93 C 849.43 558.41 835.64 560.71 822.01 561.13 C 792.08 563.25 762.04 563.84 732.05 562.89 C 720.59 561.92 709.02 561.67 697.73 559.37 C 699.75 558.90 701.82 558.58 703.91 558.67 C 713.92 558.99 723.96 558.83 733.94 558.02 C 774.33 555.80 814.60 544.65 849.03 523.12 C 854.31 520.16 858.92 516.20 864.02 512.98 Z" />
<path fill="#f4c79e" opacity="1.00" d=" M 754.14 810.69 C 762.58 830.29 769.51 850.66 773.47 871.68 C 780.85 910.42 778.82 950.80 791.36 988.56 C 794.08 996.86 797.80 1005.76 805.65 1010.44 C 812.57 1014.67 821.29 1014.36 828.71 1011.69 C 837.71 1008.66 844.81 1002.00 851.28 995.30 C 854.13 992.53 856.21 988.93 859.73 986.89 C 849.52 1014.57 829.70 1037.08 815.37 1062.55 C 809.87 1071.09 802.42 1078.14 795.29 1085.29 C 784.11 1095.86 772.60 1106.11 760.21 1115.25 C 759.24 1115.87 758.36 1116.75 757.19 1116.95 C 752.59 1114.67 748.44 1111.66 744.18 1108.84 C 740.23 1106.18 736.50 1102.86 734.64 1098.37 C 731.49 1091.26 729.20 1083.76 727.67 1076.14 C 726.25 1070.07 728.44 1064.04 729.30 1058.06 C 733.14 1035.06 737.42 1012.12 740.78 989.04 C 741.30 985.21 742.50 981.30 741.48 977.45 C 741.77 977.28 742.36 976.94 742.65 976.78 C 750.88 921.85 756.11 866.28 754.14 810.69 Z" />
<path fill="#f4c79e" opacity="1.00" d=" M 926.42 915.43 C 933.20 908.04 939.22 900.01 945.06 891.88 C 944.51 894.53 943.72 897.14 942.61 899.62 C 936.08 915.39 925.97 929.28 915.86 942.90 C 912.73 946.97 910.29 951.69 906.09 954.81 C 904.32 954.23 903.38 952.70 903.02 950.98 C 901.34 944.90 899.29 938.46 901.01 932.15 C 911.22 929.88 919.91 923.44 926.42 915.43 Z" />
<path fill="#f4c79e" opacity="1.00" d=" M 531.79 1102.07 C 537.79 1105.98 542.84 1111.16 547.43 1116.63 C 555.06 1125.02 561.17 1134.72 566.07 1144.93 C 568.70 1150.96 572.35 1157.02 571.98 1163.84 C 567.64 1164.08 562.37 1164.08 559.58 1160.14 C 556.87 1155.07 556.05 1149.31 554.16 1143.94 C 550.73 1133.89 546.51 1124.06 540.87 1115.04 C 538.33 1110.37 534.43 1106.66 531.79 1102.07 Z" />
<path fill="#f4c79e" opacity="1.00" d=" M 689.91 1125.62 C 701.77 1133.98 711.54 1144.98 720.75 1156.12 C 725.93 1163.16 732.43 1169.75 734.26 1178.62 C 729.46 1178.52 724.72 1176.95 720.26 1175.30 C 716.93 1171.30 715.71 1166.15 713.40 1161.60 C 709.22 1152.82 704.04 1144.56 698.31 1136.72 C 695.57 1132.96 692.09 1129.76 689.91 1125.62 Z" />
</g>
<g id="#faebd4ff">
<path fill="#faebd4" opacity="1.00" d=" M 656.45 568.31 C 656.75 566.74 658.75 567.10 659.89 567.26 C 666.32 568.20 672.76 569.60 678.69 572.32 C 681.26 573.57 684.49 575.43 683.94 578.81 C 675.11 580.26 666.96 575.48 659.36 571.67 C 658.14 570.86 655.67 570.24 656.45 568.31 Z" />
<path fill="#faebd4" opacity="1.00" d=" M 703.19 570.22 C 711.44 570.47 719.56 573.84 725.85 579.14 C 727.50 580.73 730.06 583.75 727.81 585.85 C 725.10 588.37 721.36 585.81 718.91 584.16 C 713.59 580.02 707.30 576.93 702.69 571.98 C 702.82 571.54 703.07 570.66 703.19 570.22 Z" />
<path fill="#faebd4" opacity="1.00" d=" M 657.89 586.28 C 660.44 584.53 663.59 585.99 666.26 586.69 C 674.52 590.15 681.11 596.42 687.97 602.00 C 696.00 608.99 703.83 616.26 710.51 624.58 C 712.13 626.10 712.61 628.73 710.34 629.92 C 700.45 622.88 691.42 614.70 682.29 606.72 C 674.87 599.10 666.93 591.92 657.89 586.28 Z" />
<path fill="#faebd4" opacity="1.00" d=" M 807.96 591.82 C 810.08 591.93 811.45 593.65 812.80 595.07 C 815.88 598.41 818.66 602.02 821.21 605.78 C 822.15 607.36 823.58 609.47 822.32 611.28 C 821.70 611.96 820.74 613.13 819.73 612.39 C 816.16 610.53 814.50 606.61 812.65 603.27 C 810.93 599.53 808.28 596.05 807.96 591.82 Z" />
<path fill="#faebd4" opacity="1.00" d=" M 852.85 594.01 C 853.62 591.47 855.47 593.56 856.00 595.01 C 859.86 603.14 863.07 611.95 862.84 621.07 C 863.07 622.88 861.61 624.02 860.31 624.96 C 857.29 622.60 857.78 618.42 857.22 615.03 C 856.82 607.83 854.29 601.01 852.85 594.01 Z" />
<path fill="#faebd4" opacity="1.00" d=" M 701.97 598.20 C 703.35 596.88 705.17 596.64 706.98 597.21 C 720.94 600.72 731.96 613.26 734.49 627.31 C 735.27 629.91 732.27 633.23 729.83 631.18 C 722.65 623.08 719.43 612.02 711.22 604.73 C 708.49 602.03 704.14 601.52 701.97 598.20 Z" />
<path fill="#faebd4" opacity="1.00" d=" M 748.87 613.11 C 748.21 610.75 746.64 607.45 749.61 606.08 C 753.48 609.78 756.43 614.26 759.49 618.62 C 761.47 621.72 763.66 625.08 763.67 628.90 C 763.63 631.57 759.70 633.01 757.84 631.19 C 752.54 626.57 750.97 619.49 748.87 613.11 Z" />
<path fill="#faebd4" opacity="1.00" d=" M 794.08 648.95 C 796.24 648.48 798.33 649.54 798.24 651.99 C 800.66 673.58 804.24 695.22 803.02 717.02 C 803.34 719.36 800.69 719.48 799.13 720.03 C 796.17 713.43 795.76 706.02 794.82 698.93 C 793.38 687.34 793.67 675.64 793.62 663.99 C 793.69 658.97 793.38 653.93 794.08 648.95 Z" />
<path fill="#faebd4" opacity="1.00" d=" M 866.00 662.11 C 868.21 661.22 868.85 664.10 869.51 665.54 C 871.73 672.00 874.27 679.11 871.97 685.92 C 871.65 687.32 870.26 689.13 868.66 688.43 C 864.95 687.51 865.86 682.94 865.75 680.08 C 866.22 674.09 865.35 668.07 866.00 662.11 Z" />
<path fill="#faebd4" opacity="1.00" d=" M 832.10 670.05 C 832.32 668.09 834.99 667.49 836.36 668.67 C 837.72 672.22 838.24 676.11 837.93 679.90 C 837.26 679.89 835.93 679.88 835.26 679.87 C 834.06 676.65 832.52 673.48 832.10 670.05 Z" />
<path fill="#faebd4" opacity="1.00" d=" M 745.16 669.20 C 747.12 668.76 747.80 670.91 748.86 672.10 C 755.06 680.98 761.64 690.19 763.87 700.99 C 764.77 703.78 760.49 705.37 759.06 703.05 C 752.30 694.74 748.86 684.37 745.58 674.33 C 745.24 672.67 744.27 670.81 745.16 669.20 Z" />
<path fill="#faebd4" opacity="1.00" d=" M 842.35 720.39 C 844.30 719.30 845.98 721.03 846.17 722.95 C 848.92 734.36 851.71 746.34 849.26 758.06 C 849.02 760.48 845.97 761.23 844.27 759.75 C 842.27 748.95 843.66 737.90 842.03 727.06 C 841.97 724.87 840.77 722.31 842.35 720.39 Z" />
<path fill="#faebd4" opacity="1.00" d=" M 787.31 749.34 C 788.15 747.62 790.33 748.22 791.86 748.18 C 793.62 753.27 793.70 758.74 794.60 764.02 C 796.28 778.16 798.79 792.72 795.80 806.83 C 794.60 806.80 793.41 806.78 792.23 806.78 C 787.57 793.04 787.53 778.33 787.20 763.99 C 787.35 759.11 786.67 754.19 787.31 749.34 Z" />
<path fill="#faebd4" opacity="1.00" d=" M 212.97 802.97 C 224.16 797.17 237.52 793.13 249.96 797.10 C 252.20 797.58 251.91 800.06 251.88 801.82 C 242.22 804.74 231.77 802.67 221.97 805.13 C 215.39 806.11 209.27 808.85 202.78 810.12 C 205.10 806.50 209.40 805.02 212.97 802.97 Z" />
<path fill="#faebd4" opacity="1.00" d=" M 301.24 807.24 C 303.85 806.95 306.26 808.70 308.74 809.38 C 315.55 812.12 323.20 814.15 328.34 819.71 C 329.95 821.11 327.79 823.63 326.03 823.20 C 319.80 822.53 314.41 818.98 309.16 815.83 C 306.30 814.05 303.27 812.48 300.69 810.30 C 299.47 809.42 300.07 807.77 301.24 807.24 Z" />
<path fill="#faebd4" opacity="1.00" d=" M 265.06 822.18 C 275.27 819.29 286.74 816.84 296.96 820.93 C 300.53 821.91 298.48 826.74 295.32 826.43 C 285.23 827.27 275.21 824.68 265.11 824.83 C 265.10 824.17 265.07 822.84 265.06 822.18 Z" />
<path fill="#faebd4" opacity="1.00" d=" M 215.40 821.48 C 219.75 820.76 224.43 819.63 228.69 821.38 C 229.35 822.40 229.53 823.63 229.89 824.79 C 222.04 829.76 212.83 831.86 204.32 835.42 C 198.34 837.52 192.73 840.49 187.29 843.72 C 186.74 843.46 185.65 842.94 185.11 842.68 C 185.49 841.59 185.54 840.30 186.40 839.47 C 194.73 831.68 204.14 824.31 215.40 821.48 Z" />
<path fill="#faebd4" opacity="1.00" d=" M 865.05 822.93 C 866.48 822.84 867.54 823.65 867.85 825.07 C 870.06 831.33 871.47 838.53 868.89 844.89 C 867.79 847.04 865.77 849.79 863.00 849.16 C 860.27 848.18 861.15 844.90 861.54 842.75 C 863.17 836.23 865.04 829.71 865.05 822.93 Z" />
<path fill="#faebd4" opacity="1.00" d=" M 145.06 851.97 C 147.20 847.85 149.36 843.03 153.81 841.02 C 156.70 843.27 154.13 846.56 152.86 848.99 C 148.53 855.87 145.47 863.47 143.47 871.34 C 142.88 873.29 142.80 876.33 139.99 876.16 C 139.77 867.86 141.98 859.62 145.06 851.97 Z" />
<path fill="#faebd4" opacity="1.00" d=" M 343.23 846.28 C 344.98 845.37 347.36 845.96 348.25 847.80 C 353.80 857.17 357.68 868.00 356.81 879.03 C 356.92 881.00 355.22 883.19 353.11 882.87 C 351.07 882.85 351.18 880.38 350.70 879.01 C 348.60 869.53 346.29 859.95 341.65 851.35 C 340.47 849.55 341.32 847.14 343.23 846.28 Z" />
<path fill="#faebd4" opacity="1.00" d=" M 830.18 851.27 C 832.15 850.37 834.30 851.94 834.18 854.07 C 836.02 866.96 836.21 880.01 836.16 893.01 C 836.03 898.13 835.92 903.36 834.35 908.27 C 833.82 909.97 831.57 911.26 829.98 910.08 C 828.21 909.06 828.19 906.83 828.09 905.06 C 827.92 900.05 827.98 895.03 828.43 890.04 C 829.35 881.08 829.08 872.05 829.05 863.06 C 829.12 859.41 828.40 855.69 829.18 852.11 C 829.43 851.90 829.93 851.48 830.18 851.27 Z" />
<path fill="#faebd4" opacity="1.00" d=" M 167.78 872.79 C 168.67 871.47 170.72 869.17 172.23 870.93 C 172.30 873.21 171.25 875.31 170.38 877.37 C 165.90 887.59 161.11 897.70 157.31 908.20 C 156.47 910.06 154.47 909.53 153.12 908.69 C 155.66 895.98 160.34 883.47 167.78 872.79 Z" />
<path fill="#faebd4" opacity="1.00" d=" M 121.18 906.17 C 122.57 905.11 124.81 906.12 124.56 907.93 C 122.86 922.94 124.69 938.02 126.04 952.98 C 125.94 954.84 126.90 957.64 124.75 958.68 C 122.47 959.24 121.22 956.84 120.73 955.03 C 115.30 939.29 116.86 921.95 121.18 906.17 Z" />
<path fill="#faebd4" opacity="1.00" d=" M 142.41 944.34 C 143.43 941.36 147.82 940.84 149.69 943.24 C 149.78 946.46 149.06 949.78 150.21 952.92 C 152.55 960.16 157.09 966.55 158.67 974.07 C 159.42 978.25 161.32 982.63 159.90 986.86 C 158.00 987.01 155.48 987.67 154.21 985.77 C 149.30 978.75 147.28 970.27 144.67 962.23 C 142.89 956.49 140.64 950.37 142.41 944.34 Z" />
<path fill="#faebd4" opacity="1.00" d=" M 144.19 1000.11 C 145.47 999.49 147.43 999.31 148.31 1000.68 C 151.20 1004.49 153.46 1008.75 156.52 1012.44 C 160.28 1017.37 164.84 1022.07 166.74 1028.09 C 167.29 1031.39 162.79 1031.80 160.81 1030.25 C 152.15 1025.08 148.06 1015.32 144.46 1006.39 C 143.79 1004.44 142.10 1001.77 144.19 1000.11 Z" />
<path fill="#faebd4" opacity="1.00" d=" M 210.10 1033.18 C 212.68 1031.86 215.40 1033.15 218.01 1033.62 C 228.21 1035.86 238.78 1035.32 249.01 1037.22 C 251.31 1037.47 250.83 1040.09 250.85 1041.74 C 238.31 1048.95 221.90 1045.97 211.18 1036.83 C 209.79 1036.05 210.17 1034.47 210.10 1033.18 Z" />
<path fill="#faebd4" opacity="1.00" d=" M 282.07 1043.22 C 293.74 1038.49 306.13 1033.54 318.98 1035.14 C 321.58 1035.65 321.23 1039.22 319.16 1040.24 C 311.58 1044.87 302.75 1046.93 294.03 1048.10 C 289.43 1048.63 284.79 1049.51 280.16 1048.89 C 279.99 1046.88 279.42 1043.80 282.07 1043.22 Z" />
<path fill="#faebd4" opacity="1.00" d=" M 183.18 1053.19 C 185.61 1051.78 188.12 1053.85 190.43 1054.55 C 200.20 1058.00 210.74 1058.08 220.99 1058.12 C 224.91 1058.27 228.96 1058.04 232.73 1059.32 C 234.90 1060.62 234.86 1064.42 232.57 1065.62 C 227.93 1068.51 222.57 1070.43 217.05 1070.30 C 204.65 1070.68 193.00 1064.92 183.42 1057.48 C 182.16 1056.47 181.72 1054.21 183.18 1053.19 Z" />
<path fill="#faebd4" opacity="1.00" d=" M 336.35 1054.41 C 339.91 1053.32 345.79 1054.98 344.70 1059.66 C 342.31 1063.23 337.91 1064.67 334.09 1066.21 C 323.70 1069.25 312.73 1067.83 302.08 1067.65 C 299.72 1067.98 298.95 1064.00 301.23 1063.35 C 303.43 1062.69 305.72 1062.44 307.95 1061.94 C 317.55 1059.91 326.52 1055.39 336.35 1054.41 Z" />
</g>
</svg>
