<?xml version="1.0" encoding="UTF-8" ?>
<!DOCTYPE svg PUBLIC "-//W3C//DTD SVG 1.1//EN" "http://www.w3.org/Graphics/SVG/1.1/DTD/svg11.dtd">
<svg width="1174pt" height="752pt" viewBox="0 0 1174 752" version="1.1" xmlns="http://www.w3.org/2000/svg">
<g id="#fbddb3ff">
<path fill="#fbddb3" opacity="1.00" d=" M 844.19 109.21 C 850.67 107.13 857.85 108.83 863.36 112.61 C 870.88 117.44 875.93 125.05 880.59 132.48 C 888.52 145.64 895.08 159.73 899.21 174.56 C 901.10 181.88 902.18 189.59 900.88 197.12 C 899.58 205.06 896.01 212.34 893.53 219.94 C 888.91 233.26 886.16 247.15 884.10 261.07 C 883.71 263.64 883.88 266.23 883.82 268.82 C 873.05 263.23 870.34 250.48 863.23 241.60 C 852.69 228.82 834.59 226.10 819.00 228.02 C 806.85 229.29 794.03 235.31 782.10 229.89 C 773.28 225.80 771.34 215.24 770.17 206.59 C 785.42 195.31 800.60 183.44 812.33 168.38 C 817.40 161.66 821.80 153.53 820.85 144.83 C 820.38 139.50 816.39 135.24 815.97 129.90 C 816.03 122.39 825.24 116.92 831.86 120.58 C 833.52 114.85 838.50 110.65 844.19 109.21 M 831.95 127.97 C 833.08 134.79 836.09 141.28 840.10 146.88 C 841.65 149.21 843.87 150.95 846.30 152.29 C 844.29 148.45 841.63 144.97 839.82 141.02 C 837.06 135.20 835.76 128.83 833.40 122.86 C 832.42 124.38 831.43 126.08 831.95 127.97 Z" />
<path fill="#fbddb3" opacity="1.00" d=" M 317.12 177.21 C 322.74 172.86 330.18 172.45 336.99 171.94 C 341.96 171.91 347.87 171.45 351.64 175.35 C 355.83 179.69 356.05 186.12 356.54 191.78 C 353.57 190.46 350.34 188.62 347.00 189.81 C 340.33 191.24 335.44 196.52 332.13 202.19 C 328.51 207.98 326.20 214.50 324.91 221.19 C 329.68 213.49 335.51 205.84 344.05 202.10 C 348.41 199.95 354.14 198.93 356.32 193.99 C 360.13 194.65 363.29 197.40 364.60 201.01 C 366.71 206.30 364.44 212.01 362.05 216.80 C 356.66 226.91 350.63 236.68 344.01 246.04 C 341.70 249.30 339.99 253.60 341.77 257.51 C 344.09 262.71 347.99 267.01 351.71 271.25 C 350.28 275.53 348.66 280.09 344.95 282.95 C 339.42 287.56 330.37 287.80 327.17 295.07 C 323.64 303.95 325.26 313.76 325.73 323.03 C 326.74 334.30 325.98 346.53 318.95 355.91 C 313.34 349.18 309.30 341.18 302.82 335.18 C 289.98 323.15 282.29 306.55 278.65 289.54 C 274.90 271.80 275.02 253.40 277.67 235.52 C 278.99 227.57 280.42 219.45 284.21 212.25 C 291.47 197.65 303.91 186.41 317.12 177.21 Z" />
<path fill="#fbddb3" opacity="1.00" d=" M 652.00 251.07 C 674.32 249.44 696.78 250.21 719.00 252.82 C 729.07 253.79 739.04 255.64 748.96 257.66 C 780.49 264.19 811.61 275.19 837.94 294.10 C 856.48 307.49 873.16 324.32 883.70 344.77 C 888.56 355.03 893.05 365.55 895.93 376.54 C 891.94 372.03 887.10 368.40 882.44 364.62 C 877.01 360.47 871.70 355.99 865.40 353.21 C 846.87 345.45 827.70 339.00 807.89 335.46 C 788.16 331.82 767.96 331.42 747.98 332.83 C 729.54 333.79 711.23 337.09 693.69 342.89 C 666.42 351.86 640.08 363.76 615.42 378.47 C 600.08 387.67 585.38 398.02 571.95 409.87 C 568.46 412.84 565.48 416.91 560.72 417.84 C 520.03 428.54 481.91 453.98 461.38 491.36 C 459.68 494.88 456.65 498.57 458.16 502.70 C 467.49 537.30 467.58 574.71 456.43 608.90 C 450.61 626.76 442.21 643.80 431.02 658.91 C 433.61 641.94 429.71 624.03 420.25 609.69 C 407.42 590.22 384.29 578.10 360.98 578.55 C 350.52 578.80 339.95 578.83 329.73 576.34 C 314.91 573.19 301.93 564.23 292.16 552.86 C 283.38 543.46 276.63 531.90 274.33 519.13 C 271.85 506.47 273.06 493.46 275.37 480.87 C 278.38 463.69 274.59 445.52 265.16 430.87 C 252.77 410.97 229.59 399.10 206.34 398.94 C 241.72 379.90 283.84 374.36 323.14 382.06 C 354.37 391.24 383.98 406.21 409.44 426.54 C 417.15 432.77 424.68 439.37 430.80 447.22 C 433.19 450.32 435.56 453.44 438.18 456.37 C 435.73 448.30 431.25 441.11 427.34 433.71 C 409.38 401.17 383.80 371.88 350.65 354.30 C 365.93 339.94 382.11 326.35 400.07 315.43 C 433.30 294.43 470.12 279.61 507.97 269.31 C 531.46 262.65 555.73 259.31 579.96 256.76 C 603.93 254.33 627.98 252.86 652.00 251.07 M 695.71 268.49 C 701.54 270.30 707.73 270.13 713.68 271.38 C 724.97 272.97 735.87 276.70 747.20 277.94 C 747.21 275.94 746.31 274.28 744.32 273.71 C 729.18 267.08 711.91 265.59 695.71 268.49 M 650.69 270.65 C 650.55 271.24 650.26 272.41 650.11 273.00 C 658.57 273.21 667.24 273.19 675.43 270.83 C 674.31 270.23 673.32 269.29 672.03 269.11 C 664.91 267.98 657.65 269.01 650.69 270.65 M 556.43 278.57 C 554.76 278.89 555.02 280.67 554.71 281.94 C 563.49 280.36 572.59 279.57 580.86 275.99 C 580.86 275.24 580.86 273.73 580.86 272.98 C 572.34 272.24 564.19 275.49 556.43 278.57 M 474.28 302.28 C 472.90 303.26 472.01 304.71 471.48 306.30 C 476.04 305.04 479.95 302.29 484.02 299.99 C 490.59 296.19 497.28 292.61 503.82 288.77 C 505.05 288.21 507.27 285.81 504.76 285.48 C 493.63 288.99 483.41 295.06 474.28 302.28 M 578.24 294.48 C 578.23 295.11 578.22 296.35 578.22 296.98 C 585.44 295.57 592.57 293.67 599.59 291.47 C 602.12 290.57 605.19 289.85 606.32 287.08 C 596.41 286.53 587.42 291.55 578.24 294.48 M 521.95 293.92 C 516.49 296.60 511.30 299.87 506.70 303.85 C 507.06 304.41 507.79 305.51 508.15 306.07 C 516.46 302.42 525.13 299.48 533.03 294.97 C 534.79 294.24 534.99 292.30 535.38 290.68 C 530.66 290.10 526.13 291.95 521.95 293.92 M 428.90 318.96 C 429.22 319.45 429.86 320.41 430.18 320.90 C 436.44 316.91 443.06 313.44 448.93 308.87 C 450.33 308.01 450.78 306.43 451.23 304.96 C 441.93 305.67 434.42 311.91 428.90 318.96 M 632.23 318.23 C 632.22 318.92 632.21 320.31 632.20 321.01 C 637.30 319.73 642.18 317.73 647.26 316.39 C 653.08 314.74 659.03 313.63 664.85 311.97 C 664.61 311.49 664.13 310.53 663.89 310.05 C 652.97 310.88 642.21 313.74 632.23 318.23 M 531.88 319.88 C 526.89 322.02 521.45 323.75 517.62 327.79 C 518.47 328.41 519.35 329.00 520.26 329.55 C 523.19 328.64 525.63 326.69 528.29 325.22 C 531.69 323.12 535.58 321.75 538.48 318.91 C 536.30 317.76 533.98 319.27 531.88 319.88 M 568.33 322.37 C 561.66 325.72 555.68 330.28 549.92 334.99 C 548.59 335.89 548.09 337.41 547.69 338.89 C 555.62 334.95 563.41 330.68 570.83 325.84 C 572.38 324.57 574.86 323.52 574.82 321.19 C 572.60 320.28 570.35 321.49 568.33 322.37 M 406.26 327.28 C 400.34 331.70 394.15 336.38 390.69 343.10 C 395.66 339.66 399.92 335.29 405.11 332.16 C 408.11 330.11 411.95 328.64 413.37 325.00 C 410.81 325.00 408.27 325.61 406.26 327.28 M 470.71 332.71 C 469.06 334.23 466.39 335.51 466.78 338.18 C 469.25 337.93 471.48 336.80 473.56 335.53 C 477.42 333.15 481.68 331.02 484.26 327.12 C 483.20 326.61 482.12 326.18 481.01 325.86 C 477.06 327.23 474.03 330.28 470.71 332.71 M 409.67 353.45 C 414.80 350.50 418.66 345.83 423.71 342.75 C 426.29 340.58 431.07 339.11 429.99 334.90 C 420.80 336.94 411.66 343.94 409.67 353.45 M 479.24 354.24 C 476.64 356.84 473.08 359.17 472.81 363.20 C 477.09 362.39 480.35 359.34 483.65 356.72 C 487.30 353.56 491.14 350.35 493.27 345.91 C 487.54 346.34 483.34 350.69 479.24 354.24 M 451.40 352.57 C 446.43 355.31 442.53 359.63 439.13 364.10 C 435.44 369.31 431.94 374.94 430.88 381.34 C 435.11 377.66 437.82 372.65 441.68 368.61 C 445.35 364.03 449.76 360.11 453.41 355.53 C 455.29 354.23 453.16 351.45 451.40 352.57 M 525.59 362.61 C 518.48 367.70 512.25 373.93 506.71 380.68 C 505.74 381.61 505.61 382.95 505.60 384.22 C 513.82 379.60 520.85 373.16 527.31 366.36 C 528.64 364.82 530.42 363.21 530.06 360.95 C 528.34 360.58 526.92 361.74 525.59 362.61 M 452.13 409.84 C 452.54 410.08 453.36 410.56 453.77 410.80 C 458.33 405.03 462.65 399.06 467.55 393.56 C 469.34 391.38 472.17 388.65 470.03 385.71 C 461.13 391.03 456.39 400.80 452.13 409.84 M 555.20 391.15 C 551.20 395.55 547.22 400.02 543.82 404.90 C 542.14 406.68 545.34 410.05 547.10 408.09 C 550.04 405.33 552.42 402.05 555.10 399.05 C 558.32 394.99 562.05 390.98 563.26 385.77 C 559.79 386.11 557.46 388.82 555.20 391.15 M 495.04 422.00 C 486.01 428.49 479.34 437.98 475.42 448.34 C 474.62 450.39 473.97 452.67 474.67 454.86 C 480.47 447.83 484.69 439.62 490.83 432.83 C 493.27 429.65 496.79 427.02 498.07 423.11 C 498.10 421.28 496.21 420.95 495.04 422.00 M 328.10 462.30 C 331.76 469.29 336.70 475.90 337.97 483.88 C 340.13 495.68 334.62 507.97 325.51 515.44 C 321.19 513.53 316.46 514.17 311.90 513.93 C 306.36 513.58 302.56 508.35 297.02 508.03 C 292.44 507.57 287.58 510.49 286.54 515.11 C 285.07 520.83 288.08 526.33 291.12 530.96 C 297.30 540.18 304.62 548.65 312.90 556.05 C 317.02 559.68 322.11 563.35 327.93 562.56 C 332.64 562.08 336.08 557.56 336.20 552.98 C 336.43 547.96 332.72 543.85 332.44 538.92 C 332.41 535.24 333.62 531.67 333.52 528.00 C 333.45 525.39 332.26 523.01 331.25 520.68 C 337.22 514.85 345.82 512.24 354.02 511.94 C 363.79 511.75 372.03 517.54 380.32 521.88 C 377.39 516.19 372.05 512.06 366.02 510.10 C 356.62 506.83 346.26 507.91 337.03 511.23 C 341.41 501.59 343.80 490.57 341.19 480.11 C 339.55 472.70 335.05 465.71 328.10 462.30 Z" />
<path fill="#fbddb3" opacity="1.00" d=" M 579.93 415.02 C 600.80 408.86 622.71 406.28 644.44 407.34 C 656.34 407.96 669.06 409.69 678.71 417.31 C 688.59 425.23 693.25 437.76 695.57 449.85 C 697.31 459.29 697.64 469.87 692.28 478.27 C 688.47 484.49 680.07 488.47 673.22 484.75 C 670.94 490.19 667.11 495.13 661.74 497.78 C 657.11 500.19 651.69 500.63 646.60 499.87 C 637.21 497.71 630.97 489.91 625.36 482.70 C 620.55 475.78 610.64 475.63 603.51 478.50 C 594.93 482.78 587.95 489.58 581.10 496.15 C 577.96 497.38 575.63 494.24 574.04 492.02 C 569.20 484.58 566.32 476.10 563.05 467.90 C 559.94 460.46 561.44 451.60 566.15 445.17 C 568.98 441.11 573.77 438.46 575.41 433.60 C 576.94 428.75 574.56 423.90 574.52 419.05 C 574.99 416.49 577.83 415.75 579.93 415.02 M 654.88 442.87 C 659.07 446.01 663.55 449.08 666.18 453.76 C 671.59 461.92 672.68 471.88 673.37 481.39 C 674.52 480.43 675.41 479.18 675.57 477.66 C 677.22 468.18 675.07 457.78 668.73 450.38 C 665.13 446.44 660.38 443.11 654.88 442.87 Z" />
<path fill="#fbddb3" opacity="1.00" d=" M 977.14 470.57 C 1005.65 486.50 1038.47 494.06 1071.02 494.26 C 1079.49 494.47 1088.15 493.08 1096.46 495.35 C 1103.87 497.29 1109.66 504.28 1110.34 511.88 C 1110.21 517.49 1105.87 521.67 1101.50 524.56 C 1106.49 527.01 1107.86 533.01 1107.67 538.10 C 1107.42 541.02 1107.25 544.10 1105.83 546.73 C 1104.28 548.84 1101.95 550.16 1099.90 551.72 C 1101.48 553.52 1103.30 555.36 1103.71 557.83 C 1105.31 565.45 1100.57 573.69 1093.49 576.73 C 1086.29 580.00 1078.12 579.54 1070.44 578.85 C 1035.90 575.53 1000.82 577.11 966.86 584.30 C 965.51 577.22 964.62 569.65 960.28 563.66 C 956.05 557.81 949.00 555.10 944.14 549.90 C 937.69 543.09 936.73 531.75 941.95 523.95 C 946.87 516.71 955.49 513.71 962.92 509.81 C 968.71 506.96 974.67 502.55 975.78 495.74 C 976.93 487.38 974.76 478.82 977.14 470.57 M 1059.82 516.58 C 1063.49 517.32 1067.24 517.59 1070.98 517.81 C 1081.29 518.55 1091.34 521.13 1101.21 524.08 C 1100.87 521.50 1101.81 517.18 1098.04 517.04 C 1085.46 514.98 1072.38 513.82 1059.82 516.58 M 1054.88 549.62 C 1060.92 550.03 1067.01 550.00 1073.02 550.89 C 1081.46 551.84 1089.56 554.42 1097.71 556.68 C 1097.53 554.54 1097.64 552.27 1096.61 550.32 C 1094.06 548.98 1091.10 548.89 1088.31 548.52 C 1077.21 547.55 1065.72 546.24 1054.88 549.62 Z" />
<path fill="#fbddb3" opacity="1.00" d=" M 138.74 533.72 C 147.51 527.58 156.42 521.60 165.73 516.30 C 167.58 529.20 171.52 541.77 177.05 553.56 C 165.65 553.40 154.24 553.10 142.87 552.26 C 138.73 551.95 133.45 550.59 132.28 545.98 C 131.09 540.89 134.84 536.43 138.74 533.72 Z" />
<path fill="#fbddb3" opacity="1.00" d=" M 197.98 530.48 C 203.88 533.27 204.08 540.57 205.94 546.01 C 207.16 548.73 203.73 551.84 201.24 549.87 C 194.90 545.90 194.44 536.51 197.98 530.48 Z" />
<path fill="#fbddb3" opacity="1.00" d=" M 292.37 646.37 C 297.39 644.25 303.15 646.81 307.50 649.50 C 309.24 650.83 312.33 653.09 310.53 655.50 C 304.42 657.80 295.84 658.45 291.68 652.35 C 289.95 650.60 290.18 647.59 292.37 646.37 Z" />
<path fill="#fbddb3" opacity="1.00" d=" M 281.22 668.54 C 293.82 674.24 307.25 678.05 320.97 679.79 C 314.88 688.92 307.67 697.23 300.71 705.69 C 297.61 709.19 294.86 713.29 290.64 715.53 C 287.82 717.12 284.09 716.53 281.91 714.16 C 278.73 711.01 278.55 706.23 278.66 702.04 C 279.05 690.85 280.01 679.67 281.22 668.54 Z" />
</g>
<g id="#f4c79eff">
<path fill="#f4c79e" opacity="1.00" d=" M 831.95 127.97 C 831.43 126.08 832.42 124.38 833.40 122.86 C 835.76 128.83 837.06 135.20 839.82 141.02 C 841.63 144.97 844.29 148.45 846.30 152.29 C 843.87 150.95 841.65 149.21 840.10 146.88 C 836.09 141.28 833.08 134.79 831.95 127.97 Z" />
<path fill="#f4c79e" opacity="1.00" d=" M 347.00 189.81 C 350.34 188.62 353.57 190.46 356.54 191.78 C 356.50 192.52 356.43 193.26 356.32 193.99 C 354.14 198.93 348.41 199.95 344.05 202.10 C 335.51 205.84 329.68 213.49 324.91 221.19 C 326.20 214.50 328.51 207.98 332.13 202.19 C 335.44 196.52 340.33 191.24 347.00 189.81 Z" />
<path fill="#f4c79e" opacity="1.00" d=" M 332.54 371.98 C 338.27 365.79 344.20 359.75 350.65 354.30 C 383.80 371.88 409.38 401.17 427.34 433.71 C 431.25 441.11 435.73 448.30 438.18 456.37 C 435.56 453.44 433.19 450.32 430.80 447.22 C 424.68 439.37 417.15 432.77 409.44 426.54 C 383.98 406.21 354.37 391.24 323.14 382.06 C 326.23 378.66 329.45 375.38 332.54 371.98 Z" />
<path fill="#f4c79e" opacity="1.00" d=" M 654.88 442.87 C 660.38 443.11 665.13 446.44 668.73 450.38 C 675.07 457.78 677.22 468.18 675.57 477.66 C 675.41 479.18 674.52 480.43 673.37 481.39 C 672.68 471.88 671.59 461.92 666.18 453.76 C 663.55 449.08 659.07 446.01 654.88 442.87 Z" />
<path fill="#f4c79e" opacity="1.00" d=" M 1059.82 516.58 C 1072.38 513.82 1085.46 514.98 1098.04 517.04 C 1101.81 517.18 1100.87 521.50 1101.21 524.08 C 1091.34 521.13 1081.29 518.55 1070.98 517.81 C 1067.24 517.59 1063.49 517.32 1059.82 516.58 Z" />
<path fill="#f4c79e" opacity="1.00" d=" M 1054.88 549.62 C 1065.72 546.24 1077.21 547.55 1088.31 548.52 C 1091.10 548.89 1094.06 548.98 1096.61 550.32 C 1097.64 552.27 1097.53 554.54 1097.71 556.68 C 1089.56 554.42 1081.46 551.84 1073.02 550.89 C 1067.01 550.00 1060.92 550.03 1054.88 549.62 Z" />
</g>
<g id="#f2b61bff">
<path fill="#f2b61b" opacity="1.00" d=" M 719.00 252.82 C 732.54 233.93 751.66 220.20 770.17 206.59 C 771.34 215.24 773.28 225.80 782.10 229.89 C 794.03 235.31 806.85 229.29 819.00 228.02 C 834.59 226.10 852.69 228.82 863.23 241.60 C 856.27 259.78 846.97 276.90 837.94 294.10 C 811.61 275.19 780.49 264.19 748.96 257.66 C 739.04 255.64 729.07 253.79 719.00 252.82 Z" />
<path fill="#f2b61b" opacity="1.00" d=" M 747.98 332.83 C 767.96 331.42 788.16 331.82 807.89 335.46 C 827.70 339.00 846.87 345.45 865.40 353.21 C 865.30 359.45 867.82 365.26 870.13 370.93 C 876.84 386.95 887.17 401.35 899.72 413.32 C 910.56 424.66 923.16 434.13 935.90 443.21 C 942.02 447.20 947.48 452.36 954.44 454.92 C 961.52 460.81 969.09 466.07 977.14 470.57 C 974.76 478.82 976.93 487.38 975.78 495.74 C 974.67 502.55 968.71 506.96 962.92 509.81 C 955.49 513.71 946.87 516.71 941.95 523.95 C 936.73 531.75 937.69 543.09 944.14 549.90 C 949.00 555.10 956.05 557.81 960.28 563.66 C 964.62 569.65 965.51 577.22 966.86 584.30 C 938.02 590.57 909.83 599.45 881.43 607.37 C 872.89 607.41 864.59 609.63 856.12 610.37 C 819.08 614.16 781.19 612.51 745.15 602.71 C 719.69 596.05 693.83 588.25 672.00 573.06 C 666.71 569.52 662.22 564.89 656.59 561.86 C 660.78 568.40 667.05 573.16 672.26 578.82 C 682.47 588.31 692.94 597.67 704.71 605.21 C 651.14 609.55 597.57 602.82 544.01 601.98 C 536.35 602.42 528.68 603.07 521.00 602.61 C 507.64 601.65 494.38 603.98 481.10 604.94 C 472.83 605.92 464.61 607.33 456.43 608.90 C 467.58 574.71 467.49 537.30 458.16 502.70 C 456.65 498.57 459.68 494.88 461.38 491.36 C 481.91 453.98 520.03 428.54 560.72 417.84 C 565.48 416.91 568.46 412.84 571.95 409.87 C 585.38 398.02 600.08 387.67 615.42 378.47 C 640.08 363.76 666.42 351.86 693.69 342.89 C 711.23 337.09 729.54 333.79 747.98 332.83 M 579.93 415.02 C 577.83 415.75 574.99 416.49 574.52 419.05 C 574.56 423.90 576.94 428.75 575.41 433.60 C 573.77 438.46 568.98 441.11 566.15 445.17 C 561.44 451.60 559.94 460.46 563.05 467.90 C 566.32 476.10 569.20 484.58 574.04 492.02 C 575.63 494.24 577.96 497.38 581.10 496.15 C 576.89 501.64 571.68 506.48 568.84 512.90 C 564.41 521.56 564.65 531.51 563.95 540.96 C 562.20 556.04 563.60 571.42 560.38 586.34 C 559.38 591.13 556.59 595.21 553.94 599.22 C 563.08 597.71 571.71 592.61 576.99 584.95 C 581.47 578.54 580.18 570.32 579.99 562.99 C 578.63 547.61 575.72 531.45 581.48 516.59 C 586.09 504.08 597.51 495.01 609.96 491.02 C 616.71 488.74 623.35 492.59 628.82 496.20 C 633.98 499.39 640.57 502.75 646.60 499.87 C 651.69 500.63 657.11 500.19 661.74 497.78 C 667.11 495.13 670.94 490.19 673.22 484.75 C 680.07 488.47 688.47 484.49 692.28 478.27 C 697.64 469.87 697.31 459.29 695.57 449.85 C 693.25 437.76 688.59 425.23 678.71 417.31 C 669.06 409.69 656.34 407.96 644.44 407.34 C 622.71 406.28 600.80 408.86 579.93 415.02 M 916.68 457.03 C 916.58 460.27 919.91 460.84 922.36 461.57 C 929.46 463.46 936.64 465.34 944.02 465.68 C 946.86 465.82 949.82 465.58 952.42 464.29 C 953.07 463.41 953.03 462.58 952.29 461.80 C 948.83 460.04 944.82 460.19 941.06 459.89 C 932.86 459.59 924.83 457.82 916.68 457.03 M 900.35 589.48 C 897.52 590.57 894.44 591.24 891.95 593.05 C 891.07 594.54 892.11 596.20 893.85 595.71 C 900.33 594.12 906.65 591.90 913.13 590.29 C 918.06 588.83 923.50 588.30 927.65 584.96 C 926.49 584.27 925.51 582.81 924.01 583.06 C 915.77 583.55 908.07 586.85 900.35 589.48 Z" />
<path fill="#f2b61b" opacity="1.00" d=" M 184.12 417.05 C 189.00 408.58 197.71 402.98 206.34 398.94 C 229.59 399.10 252.77 410.97 265.16 430.87 C 274.59 445.52 278.38 463.69 275.37 480.87 C 273.06 493.46 271.85 506.47 274.33 519.13 C 276.63 531.90 283.38 543.46 292.16 552.86 C 301.93 564.23 314.91 573.19 329.73 576.34 C 339.95 578.83 350.52 578.80 360.98 578.55 C 384.29 578.10 407.42 590.22 420.25 609.69 C 429.71 624.03 433.61 641.94 431.02 658.91 C 426.28 665.99 420.38 672.74 412.77 676.82 C 406.99 679.99 400.16 679.68 393.86 678.60 C 380.11 676.39 366.15 677.85 352.41 679.39 C 340.51 690.55 330.84 703.81 319.15 715.17 C 311.25 722.95 303.15 730.54 294.77 737.80 C 290.27 741.58 285.12 745.26 279.05 745.63 C 275.22 745.91 271.75 744.07 268.65 742.06 C 267.70 736.04 265.93 730.13 265.90 724.00 C 265.70 709.86 265.58 695.65 267.54 681.61 C 268.07 676.02 269.75 670.57 269.91 664.95 C 270.20 662.99 268.24 662.03 266.99 660.98 C 263.22 658.33 259.25 655.98 255.68 653.06 C 243.35 642.88 232.48 631.05 222.30 618.76 C 211.18 605.27 200.87 591.12 191.20 576.56 C 178.13 575.25 164.96 574.99 151.97 572.89 C 140.30 571.05 128.58 569.30 117.13 566.39 C 110.16 564.67 102.94 559.90 102.12 552.17 C 104.11 545.83 108.83 540.97 113.81 536.82 C 126.54 526.21 140.16 516.63 154.74 508.75 C 158.12 506.81 161.94 505.54 164.92 502.96 C 166.82 496.49 167.02 489.59 169.12 483.14 C 173.11 469.15 179.61 455.76 180.84 441.09 C 181.85 433.09 179.89 424.38 184.12 417.05 M 223.55 495.89 C 216.63 496.61 211.85 502.71 209.79 508.91 C 207.18 516.13 207.13 524.29 209.42 531.60 C 211.99 539.54 220.31 543.65 227.96 545.23 C 237.29 547.46 247.47 542.61 252.11 534.30 C 254.43 534.54 256.76 534.32 259.09 534.24 C 256.71 532.58 254.30 530.91 252.29 528.81 C 241.31 517.17 232.30 503.34 227.98 487.82 C 226.17 490.29 224.06 492.76 223.55 495.89 M 138.74 533.72 C 134.84 536.43 131.09 540.89 132.28 545.98 C 133.45 550.59 138.73 551.95 142.87 552.26 C 154.24 553.10 165.65 553.40 177.05 553.56 C 171.52 541.77 167.58 529.20 165.73 516.30 C 156.42 521.60 147.51 527.58 138.74 533.72 M 197.98 530.48 C 194.44 536.51 194.90 545.90 201.24 549.87 C 203.73 551.84 207.16 548.73 205.94 546.01 C 204.08 540.57 203.88 533.27 197.98 530.48 M 314.42 595.11 C 314.03 597.92 313.39 600.78 313.79 603.65 C 310.68 602.46 308.22 605.20 306.18 607.14 C 301.45 611.72 299.25 618.52 300.01 625.03 C 300.79 632.45 303.64 640.60 310.59 644.35 C 320.44 649.42 333.04 649.43 342.55 643.55 C 345.67 641.68 347.71 638.49 348.26 634.92 C 351.53 634.79 354.31 632.94 357.08 631.41 C 346.15 627.02 336.34 620.19 327.92 612.01 C 322.79 606.93 317.53 601.73 314.42 595.11 M 292.37 646.37 C 290.18 647.59 289.95 650.60 291.68 652.35 C 295.84 658.45 304.42 657.80 310.53 655.50 C 312.33 653.09 309.24 650.83 307.50 649.50 C 303.15 646.81 297.39 644.25 292.37 646.37 M 281.22 668.54 C 280.01 679.67 279.05 690.85 278.66 702.04 C 278.55 706.23 278.73 711.01 281.91 714.16 C 284.09 716.53 287.82 717.12 290.64 715.53 C 294.86 713.29 297.61 709.19 300.71 705.69 C 307.67 697.23 314.88 688.92 320.97 679.79 C 307.25 678.05 293.82 674.24 281.22 668.54 Z" />
</g>
<g id="#f0a11cff">
<path fill="#f0a11c" opacity="1.00" d=" M 863.23 241.60 C 870.34 250.48 873.05 263.23 883.82 268.82 C 883.67 294.10 877.57 319.77 883.70 344.77 C 873.16 324.32 856.48 307.49 837.94 294.10 C 846.97 276.90 856.27 259.78 863.23 241.60 Z" />
<path fill="#f0a11c" opacity="1.00" d=" M 351.71 271.25 C 366.32 287.58 384.23 300.39 400.07 315.43 C 382.11 326.35 365.93 339.94 350.65 354.30 C 344.20 359.75 338.27 365.79 332.54 371.98 C 328.09 366.55 323.64 361.13 318.95 355.91 C 325.98 346.53 326.74 334.30 325.73 323.03 C 325.26 313.76 323.64 303.95 327.17 295.07 C 330.37 287.80 339.42 287.56 344.95 282.95 C 348.66 280.09 350.28 275.53 351.71 271.25 Z" />
<path fill="#f0a11c" opacity="1.00" d=" M 870.13 370.93 C 867.82 365.26 865.30 359.45 865.40 353.21 C 871.70 355.99 877.01 360.47 882.44 364.62 C 887.10 368.40 891.94 372.03 895.93 376.54 C 903.96 394.54 916.23 410.23 928.57 425.45 C 936.98 435.46 944.91 445.93 954.44 454.92 C 947.48 452.36 942.02 447.20 935.90 443.21 C 923.16 434.13 910.56 424.66 899.72 413.32 C 887.17 401.35 876.84 386.95 870.13 370.93 Z" />
<path fill="#f0a11c" opacity="1.00" d=" M 916.68 457.03 C 924.83 457.82 932.86 459.59 941.06 459.89 C 944.82 460.19 948.83 460.04 952.29 461.80 C 953.03 462.58 953.07 463.41 952.42 464.29 C 949.82 465.58 946.86 465.82 944.02 465.68 C 936.64 465.34 929.46 463.46 922.36 461.57 C 919.91 460.84 916.58 460.27 916.68 457.03 Z" />
<path fill="#f0a11c" opacity="1.00" d=" M 603.51 478.50 C 610.64 475.63 620.55 475.78 625.36 482.70 C 630.97 489.91 637.21 497.71 646.60 499.87 C 640.57 502.75 633.98 499.39 628.82 496.20 C 623.35 492.59 616.71 488.74 609.96 491.02 C 597.51 495.01 586.09 504.08 581.48 516.59 C 575.72 531.45 578.63 547.61 579.99 562.99 C 580.18 570.32 581.47 578.54 576.99 584.95 C 571.71 592.61 563.08 597.71 553.94 599.22 C 556.59 595.21 559.38 591.13 560.38 586.34 C 563.60 571.42 562.20 556.04 563.95 540.96 C 564.65 531.51 564.41 521.56 568.84 512.90 C 571.68 506.48 576.89 501.64 581.10 496.15 C 587.95 489.58 594.93 482.78 603.51 478.50 Z" />
<path fill="#f0a11c" opacity="1.00" d=" M 133.96 504.86 C 144.70 496.19 156.45 488.69 169.12 483.14 C 167.02 489.59 166.82 496.49 164.92 502.96 C 161.94 505.54 158.12 506.81 154.74 508.75 C 140.16 516.63 126.54 526.21 113.81 536.82 C 108.83 540.97 104.11 545.83 102.12 552.17 C 101.41 546.00 103.61 539.96 106.79 534.77 C 113.81 523.16 123.53 513.43 133.96 504.86 Z" />
<path fill="#f0a11c" opacity="1.00" d=" M 209.79 508.91 C 211.85 502.71 216.63 496.61 223.55 495.89 C 222.45 503.79 225.48 511.61 230.19 517.84 C 235.69 525.21 242.66 532.55 252.11 534.30 C 247.47 542.61 237.29 547.46 227.96 545.23 C 220.31 543.65 211.99 539.54 209.42 531.60 C 207.13 524.29 207.18 516.13 209.79 508.91 Z" />
<path fill="#f0a11c" opacity="1.00" d=" M 656.59 561.86 C 662.22 564.89 666.71 569.52 672.00 573.06 C 693.83 588.25 719.69 596.05 745.15 602.71 C 781.19 612.51 819.08 614.16 856.12 610.37 C 864.59 609.63 872.89 607.41 881.43 607.37 C 852.74 616.57 823.10 623.70 792.91 625.20 C 771.65 626.26 750.30 622.74 730.19 615.88 C 721.55 612.72 712.67 609.89 704.71 605.21 C 692.94 597.67 682.47 588.31 672.26 578.82 C 667.05 573.16 660.78 568.40 656.59 561.86 Z" />
<path fill="#f0a11c" opacity="1.00" d=" M 900.35 589.48 C 908.07 586.85 915.77 583.55 924.01 583.06 C 925.51 582.81 926.49 584.27 927.65 584.96 C 923.50 588.30 918.06 588.83 913.13 590.29 C 906.65 591.90 900.33 594.12 893.85 595.71 C 892.11 596.20 891.07 594.54 891.95 593.05 C 894.44 591.24 897.52 590.57 900.35 589.48 Z" />
<path fill="#f0a11c" opacity="1.00" d=" M 306.18 607.14 C 308.22 605.20 310.68 602.46 313.79 603.65 C 314.93 612.57 321.07 619.72 327.35 625.70 C 332.95 631.08 340.33 635.01 348.26 634.92 C 347.71 638.49 345.67 641.68 342.55 643.55 C 333.04 649.43 320.44 649.42 310.59 644.35 C 303.64 640.60 300.79 632.45 300.01 625.03 C 299.25 618.52 301.45 611.72 306.18 607.14 Z" />
<path fill="#f0a11c" opacity="1.00" d=" M 255.68 653.06 C 259.25 655.98 263.22 658.33 266.99 660.98 C 268.24 662.03 270.20 662.99 269.91 664.95 C 269.75 670.57 268.07 676.02 267.54 681.61 C 265.58 695.65 265.70 709.86 265.90 724.00 C 265.93 730.13 267.70 736.04 268.65 742.06 C 262.68 736.94 259.77 729.41 257.59 722.08 C 251.35 699.70 251.25 675.78 255.68 653.06 Z" />
</g>
<g id="#faebd4ff">
<path fill="#faebd4" opacity="1.00" d=" M 695.71 268.49 C 711.91 265.59 729.18 267.08 744.32 273.71 C 746.31 274.28 747.21 275.94 747.20 277.94 C 735.87 276.70 724.97 272.97 713.68 271.38 C 707.73 270.13 701.54 270.30 695.71 268.49 Z" />
<path fill="#faebd4" opacity="1.00" d=" M 650.69 270.65 C 657.65 269.01 664.91 267.98 672.03 269.11 C 673.32 269.29 674.31 270.23 675.43 270.83 C 667.24 273.19 658.57 273.21 650.11 273.00 C 650.26 272.41 650.55 271.24 650.69 270.65 Z" />
<path fill="#faebd4" opacity="1.00" d=" M 556.43 278.57 C 564.19 275.49 572.34 272.24 580.86 272.98 C 580.86 273.73 580.86 275.24 580.86 275.99 C 572.59 279.57 563.49 280.36 554.71 281.94 C 555.02 280.67 554.76 278.89 556.43 278.57 Z" />
<path fill="#faebd4" opacity="1.00" d=" M 474.28 302.28 C 483.41 295.06 493.63 288.99 504.76 285.48 C 507.27 285.81 505.05 288.21 503.82 288.77 C 497.28 292.61 490.59 296.19 484.02 299.99 C 479.95 302.29 476.04 305.04 471.48 306.30 C 472.01 304.71 472.90 303.26 474.28 302.28 Z" />
<path fill="#faebd4" opacity="1.00" d=" M 578.24 294.48 C 587.42 291.55 596.41 286.53 606.32 287.08 C 605.19 289.85 602.12 290.57 599.59 291.47 C 592.57 293.67 585.44 295.57 578.22 296.98 C 578.22 296.35 578.23 295.11 578.24 294.48 Z" />
<path fill="#faebd4" opacity="1.00" d=" M 521.95 293.92 C 526.13 291.95 530.66 290.10 535.38 290.68 C 534.99 292.30 534.79 294.24 533.03 294.97 C 525.13 299.48 516.46 302.42 508.15 306.07 C 507.79 305.51 507.06 304.41 506.70 303.85 C 511.30 299.87 516.49 296.60 521.95 293.92 Z" />
<path fill="#faebd4" opacity="1.00" d=" M 428.90 318.96 C 434.42 311.91 441.93 305.67 451.23 304.96 C 450.78 306.43 450.33 308.01 448.93 308.87 C 443.06 313.44 436.44 316.91 430.18 320.90 C 429.86 320.41 429.22 319.45 428.90 318.96 Z" />
<path fill="#faebd4" opacity="1.00" d=" M 632.23 318.23 C 642.21 313.74 652.97 310.88 663.89 310.05 C 664.13 310.53 664.61 311.49 664.85 311.97 C 659.03 313.63 653.08 314.74 647.26 316.39 C 642.18 317.73 637.30 319.73 632.20 321.01 C 632.21 320.31 632.22 318.92 632.23 318.23 Z" />
<path fill="#faebd4" opacity="1.00" d=" M 531.88 319.88 C 533.98 319.27 536.30 317.76 538.48 318.91 C 535.58 321.75 531.69 323.12 528.29 325.22 C 525.63 326.69 523.19 328.64 520.26 329.55 C 519.35 329.00 518.47 328.41 517.62 327.79 C 521.45 323.75 526.89 322.02 531.88 319.88 Z" />
<path fill="#faebd4" opacity="1.00" d=" M 568.33 322.37 C 570.35 321.49 572.60 320.28 574.82 321.19 C 574.86 323.52 572.38 324.57 570.83 325.84 C 563.41 330.68 555.62 334.95 547.69 338.89 C 548.09 337.41 548.59 335.89 549.92 334.99 C 555.68 330.28 561.66 325.72 568.33 322.37 Z" />
<path fill="#faebd4" opacity="1.00" d=" M 406.26 327.28 C 408.27 325.61 410.81 325.00 413.37 325.00 C 411.95 328.64 408.11 330.11 405.11 332.16 C 399.92 335.29 395.66 339.66 390.69 343.10 C 394.15 336.38 400.34 331.70 406.26 327.28 Z" />
<path fill="#faebd4" opacity="1.00" d=" M 470.71 332.71 C 474.03 330.28 477.06 327.23 481.01 325.86 C 482.12 326.18 483.20 326.61 484.26 327.12 C 481.68 331.02 477.42 333.15 473.56 335.53 C 471.48 336.80 469.25 337.93 466.78 338.18 C 466.39 335.51 469.06 334.23 470.71 332.71 Z" />
<path fill="#faebd4" opacity="1.00" d=" M 409.67 353.45 C 411.66 343.94 420.80 336.94 429.99 334.90 C 431.07 339.11 426.29 340.58 423.71 342.75 C 418.66 345.83 414.80 350.50 409.67 353.45 Z" />
<path fill="#faebd4" opacity="1.00" d=" M 479.24 354.24 C 483.34 350.69 487.54 346.34 493.27 345.91 C 491.14 350.35 487.30 353.56 483.65 356.72 C 480.35 359.34 477.09 362.39 472.81 363.20 C 473.08 359.17 476.64 356.84 479.24 354.24 Z" />
<path fill="#faebd4" opacity="1.00" d=" M 451.40 352.57 C 453.16 351.45 455.29 354.23 453.41 355.53 C 449.76 360.11 445.35 364.03 441.68 368.61 C 437.82 372.65 435.11 377.66 430.88 381.34 C 431.94 374.94 435.44 369.31 439.13 364.10 C 442.53 359.63 446.43 355.31 451.40 352.57 Z" />
<path fill="#faebd4" opacity="1.00" d=" M 525.59 362.61 C 526.92 361.74 528.34 360.58 530.06 360.95 C 530.42 363.21 528.64 364.82 527.31 366.36 C 520.85 373.16 513.82 379.60 505.60 384.22 C 505.61 382.95 505.74 381.61 506.71 380.68 C 512.25 373.93 518.48 367.70 525.59 362.61 Z" />
<path fill="#faebd4" opacity="1.00" d=" M 452.13 409.84 C 456.39 400.80 461.13 391.03 470.03 385.71 C 472.17 388.65 469.34 391.38 467.55 393.56 C 462.65 399.06 458.33 405.03 453.77 410.80 C 453.36 410.56 452.54 410.08 452.13 409.84 Z" />
<path fill="#faebd4" opacity="1.00" d=" M 555.20 391.15 C 557.46 388.82 559.79 386.11 563.26 385.77 C 562.05 390.98 558.32 394.99 555.10 399.05 C 552.42 402.05 550.04 405.33 547.10 408.09 C 545.34 410.05 542.14 406.68 543.82 404.90 C 547.22 400.02 551.20 395.55 555.20 391.15 Z" />
<path fill="#faebd4" opacity="1.00" d=" M 495.04 422.00 C 496.21 420.95 498.10 421.28 498.07 423.11 C 496.79 427.02 493.27 429.65 490.83 432.83 C 484.69 439.62 480.47 447.83 474.67 454.86 C 473.97 452.67 474.62 450.39 475.42 448.34 C 479.34 437.98 486.01 428.49 495.04 422.00 Z" />
</g>
<g id="#5b4b40ff">
<path fill="#5b4b40" opacity="1.00" d=" M 328.10 462.30 C 335.05 465.71 339.55 472.70 341.19 480.11 C 343.80 490.57 341.41 501.59 337.03 511.23 C 346.26 507.91 356.62 506.83 366.02 510.10 C 372.05 512.06 377.39 516.19 380.32 521.88 C 372.03 517.54 363.79 511.75 354.02 511.94 C 345.82 512.24 337.22 514.85 331.25 520.68 C 332.26 523.01 333.45 525.39 333.52 528.00 C 333.62 531.67 332.41 535.24 332.44 538.92 C 332.72 543.85 336.43 547.96 336.20 552.98 C 336.08 557.56 332.64 562.08 327.93 562.56 C 322.11 563.35 317.02 559.68 312.90 556.05 C 304.62 548.65 297.30 540.18 291.12 530.96 C 288.08 526.33 285.07 520.83 286.54 515.11 C 287.58 510.49 292.44 507.57 297.02 508.03 C 302.56 508.35 306.36 513.58 311.90 513.93 C 316.46 514.17 321.19 513.53 325.51 515.44 C 334.62 507.97 340.13 495.68 337.97 483.88 C 336.70 475.90 331.76 469.29 328.10 462.30 Z" />
<path fill="#5b4b40" opacity="1.00" d=" M 223.55 495.89 C 224.06 492.76 226.17 490.29 227.98 487.82 C 232.30 503.34 241.31 517.17 252.29 528.81 C 254.30 530.91 256.71 532.58 259.09 534.24 C 256.76 534.32 254.43 534.54 252.11 534.30 C 242.66 532.55 235.69 525.21 230.19 517.84 C 225.48 511.61 222.45 503.79 223.55 495.89 Z" />
<path fill="#5b4b40" opacity="1.00" d=" M 314.42 595.11 C 317.53 601.73 322.79 606.93 327.92 612.01 C 336.34 620.19 346.15 627.02 357.08 631.41 C 354.31 632.94 351.53 634.79 348.26 634.92 C 340.33 635.01 332.95 631.08 327.35 625.70 C 321.07 619.72 314.93 612.57 313.79 603.65 C 313.39 600.78 314.03 597.92 314.42 595.11 Z" />
</g>
</svg>
