<?xml version="1.0" encoding="utf-8"?>
<!-- Generator: Adobe Illustrator 17.1.0, SVG Export Plug-In . SVG Version: 6.00 Build 0)  -->
<!DOCTYPE svg PUBLIC "-//W3C//DTD SVG 1.1//EN" "http://www.w3.org/Graphics/SVG/1.1/DTD/svg11.dtd">
<svg version="1.1" id="Layer_1" xmlns="http://www.w3.org/2000/svg" xmlns:xlink="http://www.w3.org/1999/xlink" x="0px" y="0px"
	 width="422.9px" height="535.5px" viewBox="0 0 422.9 535.5" enable-background="new 0 0 422.9 535.5" xml:space="preserve">
<g>
	<path fill="#60423E" d="M193,515c1.3,0,5.6,0.5,7,3.1c0.5,1,1.2,2.5,0.6,3.8c1.5,1.5,0.2,4.6-0.2,5.1c-1.2,1.1-1.1,1-3.3,1.2
		c0.6,0.3,0.1,3.3-1.7,4.4c-3.3,1.9-8.8,0.5-12.4-0.6c-6-1.8-6.6-5.5-7.1-8s-0.2-5.2,0.3-7.7c0.3-1.8,0.8-3.7,2.1-5
		c1.2-1.3,3-1.9,4.8-1.9c2.1,0.1,7.7-1.4,7.6,0.9C190.5,511.3,189.2,514.9,193,515z"/>
	<path fill="#60423E" d="M190.3,519.4c0,1,0,2.1-0.6,3.1c-0.9,1.6-3,2.1-4.9,2.4c-1.7,0.3-3.4,0.5-5-0.1c-1.7-0.7-2.9-2.3-3.5-4.1
		c-0.6-1.7-0.7-3.6-0.7-5.5c-0.4-15.3,0.2-30.7-1.4-46c-0.4-3.6-0.8-7.5,1.2-10.5c1.5-2.3,4.2-3.5,6.8-4.3c3-0.9,6.3-1.3,9.1,0
		c7.7,3.4,2.9,15.6,2.2,21.7c-1.2,9.2-2.1,18.5-2.6,27.8C190.6,509.1,190.4,514.2,190.3,519.4z"/>
	<path fill="#382624" d="M197,528.1c0,0-0.1-2.9-2.6-4c-2.5-1.1-3.8-1.3-3.8-1.3s2.5-0.9,5.3,0.6c2.8,1.5,3.1,4.5,3.1,4.5L197,528.1
		L197,528.1z"/>
	<path fill="#382624" d="M200.5,521.9c0,0-1.1-1.3-2.4-1.9c-1.8-0.8-4.3-1-4.3-1s1.9-0.3,3.6,0.1c2.3,0.4,3.4,1.5,3.4,1.5
		s0,0.3-0.1,0.8C200.6,521.8,200.5,521.9,200.5,521.9L200.5,521.9z"/>
	<path fill="#FFA912" d="M71.7,293.5c-16.6,9.4-22.4,14.6-31.3,23.9c-4.9,5.2-9.8,10.3-14.7,15.5c-2.6-2.9-5.1-5.8-7.7-8.7
		c5.6-12.8,12-25.2,19-37.2c7.1-12.1,15.1-24,26.5-32.2c6.3-4.5,13.7-7.8,21.4-8c7.7-0.2,15.8,2.9,20.3,9.1
		C123.5,280.7,88.9,283.8,71.7,293.5z"/>
	<path fill="#FFA912" d="M304.8,337.8c19.7,14.1,34.3,34,52.3,50.1c18,16.1,42.2,28.8,65.7,23.4c-7.5,12.8-21.9,19.9-36.2,24.1
		c-51.6,15.3-109.1,1.9-154-27.8c-14-9.3-27.4-20.4-35.4-35.2c-6.3-11.7-8.9-26.2-5.1-39.1c4-13.4,19.7-14.3,32.2-15.8
		C252.4,314.4,281.8,321.3,304.8,337.8z"/>
	<path fill="#F2881D" d="M400.2,411.4c-1.2,0.4-2.4,0.8-3.6,1.1c-51.6,15.3-109.1,1.9-154-27.8c-14-9.3-27.4-20.4-35.4-35.2
		c-4.3-7.9-6.9-17.2-6.9-26.3c-3.7,2.2-6.6,5.4-8,10.1c-3.9,12.9-1.3,27.4,5.1,39.1c8,14.8,21.4,26,35.4,35.2
		c45,29.6,102.4,43.1,154,27.8c14.2-4.2,28.7-11.3,36.2-24.1C415.3,413.1,407.7,412.9,400.2,411.4z"/>
	<path fill="#FFA912" d="M195.9,460.3c-8,7.1-20.1,6.1-21.6,4.7c-1.1-1.1-1.8-2.4-2.3-3.8c-3.8-9.1-6.5-18.5-10.6-27.5
		c-4.1-9-10.1-11.5-23.8-12.4c-4.9-0.3,0-21.9,0.9-23c5.8-7.4,15.1-12.1,23.5-17.2c13.2-8,25.1-17.5,35.3-28.3
		c5.4-5.7,12.6-7,16,4.3C215.9,365.9,199.6,457,195.9,460.3z"/>
	<path fill="#60423E" d="M85.4,517.3c-1.3,0.2-5.5,1-6.7,3.7c-0.5,1-1,2.6-0.2,3.8c-1.3,1.6,0.2,4.6,0.7,5c1.2,1,1.1,0.9,3.4,0.9
		c-0.6,0.4,0.1,3.3,2.1,4.2c3.5,1.6,8.8-0.3,12.3-1.7c5.8-2.3,6.1-6,6.4-8.6c0.3-2.6-0.3-5.2-1-7.6c-0.5-1.8-1.1-3.6-2.5-4.8
		c-1.3-1.2-3.2-1.7-5-1.4c-2.1,0.3-7.8-0.7-7.5,1.5C87.5,513.4,89.1,516.8,85.4,517.3z"/>
	<path fill="#60423E" d="M88.5,521.4c0.1,1,0.2,2.1,0.8,3c1.1,1.5,3.2,1.8,5,1.9c1.7,0.1,3.5,0.2,5-0.5c1.7-0.8,2.7-2.6,3.1-4.3
		c0.4-1.8,0.3-3.7,0.2-5.5c-1-15.3-2.9-30.6-2.6-45.9c0.1-3.6,0.2-7.5-2.1-10.4c-1.7-2.1-4.5-3.1-7.2-3.7c-3-0.6-6.3-0.7-9.1,0.8
		c-7.4,4-1.6,15.8-0.3,21.8c2,9.1,3.7,18.3,5.1,27.5C87.3,511.1,87.9,516.3,88.5,521.4z"/>
	<path fill="#FFA912" d="M78,466.9c8.9,6.2,20.8,3.9,22.1,2.4c1-1.2,1.4-2.6,1.8-4c2.5-9.4,3.9-19.1,6.7-28.5
		c2.8-9.4,10.5-13.3,24-15.7c4.8-0.8-5.1-20.9-6.2-21.9c-6.8-6.7-16.6-10.4-25.7-14.6c-14.2-6.5-27.3-14.7-39-24.3
		c-6.1-5.1-13.5-5.6-15.3,5.9C45,375.4,73.9,464.1,78,466.9z"/>
	<path fill="#FFA912" d="M200.4,245.2c18.7-3.6,25.9-6.7,37.2-12.7c6.3-3.3,12.6-6.7,18.9-10c1.5,3.6,3,7.1,4.6,10.7
		c-9.4,10.3-19.4,20.1-29.9,29.2c-10.6,9.2-22,18-35.4,22.1c-7.4,2.3-15.4,3-22.8,0.8c-7.4-2.2-14-7.7-16.4-15.1
		C147.2,240.8,181,248.9,200.4,245.2z"/>
	<path fill="#FFA912" d="M183.9,252.1c-8.8-24.3-9.5-38.8-9.5-38.8L130,228.6l-44.4-15.3c0,0-0.7,14.5-9.5,38.8
		c-8.8,24.3-41.1,89.6-26.6,130.4c6.1,17.3,45.9,37.1,83.1,38.6c41.7,1.7,71.7-16.1,77.7-34.7C223.6,345.2,192.8,276.4,183.9,252.1z
		"/>
	<path fill="#F2881D" d="M142.7,258.9c9.9-2.2,18.4-8.6,26.1-15.2c3.6-3.1,7.4-6.6,8.4-11.3c0.1-0.6,0.2-1.2,0.2-1.8
		c-0.6-2.4-1.1-4.7-1.5-6.6c-1.9-3.7-5.2-6.7-9-8.5c-0.1-0.1-0.3-0.1-0.4-0.2L129.9,228l-37-12.7c-2.7,1.1-5.9,2.6-8.3,4.7
		c-0.4,2.7-1.1,6.1-2.1,10.1c2.1,4.3,6.6,8.8,9.4,11.6c4.4,4.5,9.6,8.3,15.2,11.2c6.2,3.3,12.9,5.5,19.9,6.4
		C132.2,260,137.5,260,142.7,258.9z"/>
	<path fill="#FFB845" d="M219,333c1.1,3.6,4.6,5.9,8.2,6.9c3.6,1,7.4,0.8,11.1,1c10.3,0.5,20.4,3.5,29.2,8.8
		c5.9,3.5,11.3,8,17.8,10.1c2.9,0.9,6.2,1.2,8.8-0.4c3.7-2.3,4.3-7.8,2.3-11.7c-2-3.9-5.8-6.5-9.6-8.7
		c-11.6-6.7-24.4-11.1-37.7-13.2C243.1,324.8,214.9,319.7,219,333z"/>
	<path fill="#FCD8BE" d="M90.5,281.3c-4.1,11.9-7,24.1-8.8,36.5c-2.2,15.5-1.9,33.3,9.2,44.3c8.5,8.5,21.3,10.7,33.3,11.8
		c9.6,0.9,19.4,1.2,28.8-0.9c9.4-2.1,18.5-6.9,24.2-14.7c8.5-11.6,8-27.7,3.5-41.4c-4.5-13.7-12.3-26-17.8-39.2
		c-4.6-11.1-7.6-22.9-8.7-34.9c-0.3-2.9,0.4-14.8-2-16.5c-1.6-1.1-46.3-5.4-49.7,2.8c-1.2,3-0.6,15.4-1.2,18.7
		c-0.7,3.8-1.7,7.4-2.8,11.1C96,266.5,93.1,273.8,90.5,281.3z"/>
	<path fill="#EFC8AC" d="M155.2,253.5c-0.7-3.5-1.2-7.1-1.5-10.7c-0.3-2.9,0.4-14.8-2-16.5c-0.5-0.4-5.7-1.1-12.6-1.6l-9.5,3.3
		l-10.7-3.7c-8.5,0.4-15.6,1.7-16.8,4.7c-1.2,3-0.6,15.4-1.2,18.7c-0.1,0.5-0.2,1-0.3,1.4c2,1.4,4,2.6,6.2,3.7
		c6.2,3.3,12.9,5.5,19.9,6.4c5.2,0.7,10.6,0.7,15.7-0.5C146.8,257.8,151.1,255.9,155.2,253.5z"/>
	<path fill="#60423E" d="M0.4,23.5C-0.5,16.3-0.3,7.2,5.9,3.7C10.7,1,16.4,3.6,21.2,6.2c11.1,6,22.3,12.1,33.4,18.1
		c11.3,6.1,23,12.5,31.2,22.8c8.3,10.3,12.5,25.5,6.9,38c-5.9,13.2-20.3,19.4-33.6,22.7c-7.5,1.8-15,3.1-22.6,3.8
		c-18.4,1.8-20.3-17.1-24.8-32.4C6.6,61,2.7,42.4,0.4,23.5z"/>
	<path fill="#FFA912" d="M16.7,76.3c-4.2-12.1-6.2-25-6-37.8c0.1-4.9,1.1-10.8,5.5-12.8c1.8-0.8,3.8-0.9,5.7-0.8
		c16.4,0.7,29.1,6.7,41,18.1c7.8,7.5,7.5,17.7,10.4,21.2c3.7,4.5,9.8-1.6,9,4.2c-0.8,5.8-4.1,11.2-8.9,14.6
		c-3.3,2.4-7.3,3.7-11.2,4.9c-7.8,2.5-15.8,4.7-23.8,6.5c-5,1.2-8.6,12.6-12,8C22.8,97.8,18.6,81.8,16.7,76.3z"/>
	<path fill="#FCD8BE" d="M37,88.7c6.5-4.8,13.7-8.7,21.2-11.7c3.7-1.5,7.6-2.7,11.1-4.7c2.7-1.6,5.2-3.7,6.8-6.4
		c-1-0.2-1.9-0.7-2.8-1.7c-2.9-3.6-2.6-13.8-10.4-21.2c-5.5-5.3-11.2-9.4-17.4-12.4c-3.4-0.1-6.6-0.4-10,0.4c-1.9,0.4-3.7,1-5.4,1.8
		c-1.1,0.5-3.9,3-4.9,2.9c2.7,0.1,5.4,0.8,7.7,2.1c-4,2.3-7,6.2-8.2,10.6c5.6,0.1,11.2,2.1,15.6,5.6c-3,1-5.9,1.9-8.9,2.9
		c1.6,0.7,3.1,1.3,4.7,2c-4.6,0.4-9,2.2-12.6,5c2.6,1.4,5,3.2,7.1,5.3c-2.5,0.7-4.7,2-6.5,3.9C30.4,76.1,35.3,81.9,37,88.7z"/>
	<path fill="#60423E" d="M267.8,21.7c1.5-7.1,2-16.3-3.9-20.2c-4.6-3.1-10.6-1-15.5,1.2c-11.6,5.1-23.2,10.2-34.8,15.4
		c-11.8,5.2-23.9,10.6-33,20.2c-9.1,9.6-14.5,24.4-9.9,37.3c4.8,13.7,18.6,21,31.7,25.3c7.3,2.4,14.7,4.3,22.2,5.6
		c18.2,3.2,21.6-15.5,27.3-30.3C258.7,58.6,264,40.4,267.8,21.7z"/>
	<path fill="#FFA912" d="M247.4,73c5.1-11.7,8.2-24.4,9-37.2c0.3-4.9-0.2-10.8-4.5-13.2c-1.7-1-3.7-1.2-5.6-1.3
		c-16.4-0.7-29.6,4.4-42.3,14.8c-8.4,6.8-8.9,17-12.1,20.3c-4.1,4.2-9.7-2.4-9.3,3.5c0.3,5.9,3.2,11.5,7.7,15.3
		c3.1,2.6,7,4.3,10.7,5.8c7.6,3.1,15.3,5.9,23.2,8.4c4.9,1.6,7.6,13.2,11.4,9C239.5,94,245,78.4,247.4,73z"/>
	<path fill="#FCD8BE" d="M226.1,83.7c-6.1-5.3-12.9-9.8-20.2-13.3c-3.6-1.8-7.4-3.3-10.7-5.6c-2.6-1.8-4.9-4.1-6.2-6.9
		c1-0.1,2-0.5,2.9-1.5c3.2-3.3,3.7-13.5,12.1-20.3c5.9-4.8,11.9-8.5,18.3-11c3.4,0.1,6.6,0.1,9.9,1.2c1.8,0.6,3.6,1.3,5.3,2.3
		c1,0.6,3.7,3.3,4.7,3.3c-2.7-0.2-5.4,0.4-7.9,1.5c3.8,2.6,6.5,6.7,7.3,11.2c-5.6-0.4-11.4,1.2-16,4.3c2.9,1.2,5.8,2.4,8.6,3.6
		c-1.6,0.5-3.2,1-4.8,1.6c4.5,0.8,8.8,2.9,12.1,6c-2.7,1.2-5.3,2.8-7.5,4.7c2.4,0.9,4.5,2.4,6.1,4.4
		C233.7,71.7,228.4,77.2,226.1,83.7z"/>
	<path fill="#FCD8BE" d="M189.2,47.5c-30.9-9-60.5-7.1-60.5-7.1s-29.6-1.9-60.5,7.1c-30.9,9-55.9,44.9-51.4,77.2
		c3.1,22.1,10.9,60.3,35.9,85.6c25,25.4,75.9,29.1,75.9,29.1s50.9-3.7,75.9-29.1c25-25.4,32.8-63.6,35.9-85.6
		C245.2,92.5,220.2,56.5,189.2,47.5z"/>
	<path fill="#FCD8BE" d="M2.4,182c4.7,0.7,9.5,1.4,14.2,2.1c-2.5,4.5-5.6,8.6-9,12.4c5.8,0.6,11.6,0.9,17.4,0.7
		c-1.2,4.4-4.4,8.2-8.5,10.1c25.4,12.3,52.8,20.4,80.7,24c5,0.6,10.7,1,14.6-2.3c3.4-2.9,4.3-8,3.3-12.4c-1-4.4-3.6-8.2-6.3-11.9
		c-14.1-19.1-31.8-35.2-49.2-51.3c-5-4.6-10.1-9.2-16.1-12.3c-4.1-2.1-13-5.5-17.1-1.6c-3.1,2.9-2.1,10.1-2.9,13.9
		c-1.3,6-3.9,11.8-7.6,16.7C13.9,172.8,6.2,182.6,2.4,182z"/>
	<path fill="#FCD8BE" d="M256.7,181.2c-4.7,0.8-9.4,1.5-14.2,2.3c2.6,4.4,5.7,8.5,9.2,12.3c-5.8,0.7-11.6,1-17.4,0.9
		c1.2,4.4,4.5,8.2,8.7,10c-25.2,12.6-52.5,21.1-80.4,25c-5,0.7-10.7,1.1-14.6-2.1c-3.5-2.9-4.4-8-3.5-12.4c1-4.4,3.5-8.3,6.2-11.9
		c13.9-19.2,31.3-35.6,48.6-51.9c4.9-4.6,9.9-9.3,15.9-12.5c4.1-2.2,12.9-5.6,17.1-1.8c3.1,2.9,2.2,10.1,3.1,13.9
		c1.4,6,4.1,11.7,7.8,16.6C245.1,172.2,252.9,181.8,256.7,181.2z"/>
	<g>
		<path fill="#60423E" d="M49.7,126.6c6.1-3.6,11.2-5.3,18.4-5.2c7.1,0.1,14.4,2.3,19.6,7.3c4.7,4.5,7.2,10.8,9.6,16.8
			c1.3,3.4,2.7,6.8,3.5,10.3c0.1,0.6,0.2,1.4-0.2,1.9c-0.3,0.3-0.7,0.4-1,0.5c-3.4,0.9-6.9,1.2-10.4,1.3
			c-12.6,0.5-26.1-1.2-36.1-8.9c-5.5-4.2-9.6-10-13.3-15.9c-0.9-1.5-1.9-3-2.7-4.5c-0.8-1.4-1.4-2.2,0.3-2.5
			C38.9,127.5,42.5,130.8,49.7,126.6z"/>
		<path fill="#FFFFFF" d="M54.4,128.4c3.6-3.4,10.9-4.9,14.1-4.8c24.3,1,29.4,27.3,27.8,32.1c-0.9,2.7-13.5,2.8-15.8,2.7
			c-6.3-0.2-23.6-2.8-29.1-12.2C49.8,143.5,47.5,134.9,54.4,128.4z"/>
		<path fill="#EDEDED" d="M96.3,151.4c-0.9,2.7-13.5,2.8-15.8,2.7c-6.3-0.2-23.6-2.8-29.1-12.2c-0.6-0.9-1.2-2.6-1.5-4.6
			c-0.6,4.1,0.5,7.8,1.5,9.4c5.5,9.4,22.8,12,29.1,12.2c2.3,0.1,14.9,0,15.8-2.7c0.3-1,0.4-2.8,0.1-5.1
			C96.4,151.2,96.4,151.3,96.3,151.4z"/>
		<g>
			<circle fill="#231F20" cx="73.2" cy="142" r="12.4"/>
			<path fill="#FFFFFF" d="M64.8,137.8c-0.2,0.6-0.3,1.3-0.1,2c0.2,0.6,0.6,1.2,1.3,1.4c0.8,0.3,1.7-0.1,2.3-0.7
				c0.6-0.6,1.1-1.3,1.8-1.8c0.6-0.6,1.4-0.9,2.2-1.1c0.9-0.2,1.8-0.2,2.5-0.8c0.7-0.7,0.6-2-0.1-2.7
				C71.7,130.7,65.8,134.4,64.8,137.8z"/>
		</g>
	</g>
	<g>
		<path fill="#60423E" d="M207.8,129.1c-6-3.8-11-5.8-18.1-6c-7.1-0.2-14.5,1.8-19.8,6.5c-4.9,4.3-7.6,10.5-10.3,16.5
			c-1.5,3.3-2.9,6.7-3.9,10.2c-0.2,0.6-0.3,1.4,0.1,1.9c0.3,0.3,0.6,0.4,1,0.5c3.3,1,6.8,1.5,10.3,1.7c12.6,1,26.1-0.1,36.4-7.4
			c5.7-4,10-9.6,13.9-15.3c1-1.4,2-2.9,2.9-4.4c0.8-1.4,1.5-2.1-0.2-2.5C218.6,130.5,214.8,133.6,207.8,129.1z"/>
		<path fill="#FFFFFF" d="M203.1,130.7c-3.5-3.6-10.7-5.3-13.9-5.3c-24.3,0-30.5,26.1-29,30.9c0.8,2.8,13.3,3.3,15.7,3.3
			c6.3,0,23.7-1.9,29.6-11C207.1,146,209.7,137.5,203.1,130.7z"/>
		<path fill="#EDEDED" d="M160.2,152c0.8,2.8,13.3,3.3,15.7,3.3c6.3,0,23.7-1.9,29.6-11c0.6-0.9,1.3-2.5,1.7-4.5
			c0.5,4.1-0.8,7.8-1.9,9.4c-5.9,9.1-23.3,11-29.6,11c-2.3,0-14.9-0.6-15.7-3.3c-0.3-1-0.3-2.8,0.1-5.1
			C160.2,151.9,160.2,151.9,160.2,152z"/>
		<g>
			<circle fill="#231F20" cx="183.8" cy="143.5" r="12.4"/>
			<path fill="#FFFFFF" d="M192.2,139.7c0.2,0.6,0.2,1.3,0,2c-0.2,0.6-0.7,1.2-1.3,1.4c-0.8,0.2-1.7-0.2-2.3-0.8
				c-0.6-0.6-1.1-1.3-1.7-1.9c-0.6-0.6-1.4-1-2.2-1.2c-0.9-0.2-1.8-0.3-2.4-0.9c-0.7-0.7-0.5-2,0.2-2.7
				C185.7,132.4,191.4,136.2,192.2,139.7z"/>
		</g>
	</g>
	<path fill="#EFC8AC" d="M70.3,111.1c26.3,5.6,41,36.8,46.6,48.9c0.9,1.9,2.3,4.2,4.4,3.8c4.7-15.8-2.8-32.7-12.3-46.1
		c-3.9-5.5-8.2-10.7-13.7-14.5c-14.5-10.1-34.4-8.5-50.5-1.4c-5,2.2-27,24.2-13.1,16.3C42.9,111.7,57.1,108.3,70.3,111.1z"/>
	<path fill="#EFC8AC" d="M187.2,109.4c-26.5,4.9-41.9,35.7-47.9,47.6c-0.9,1.9-2.4,4.1-4.5,3.7c-4.2-15.9,3.6-32.6,13.5-45.7
		c4-5.3,8.5-10.5,14.1-14.2c14.7-9.7,34.6-7.5,50.6-0.1c4.9,2.3,26.3,24.9,12.7,16.6C214.5,110.7,200.4,106.9,187.2,109.4z"/>
	<path fill="#F7E9E2" d="M23.9,178.5c5.5-2.6,11.6-3.9,17.7-3.7c-6.1,2.7-11.7,6.3-16.6,10.8c8.5-3.1,19.3-6.2,28-3.7
		c-7.4,4.2-16.5,11.5-20.7,18.9c14.4-10.9,36.6-18.9,54.7-18.9c-2,0-17.4-18.7-44.3-12.8C35.1,170.8,27.3,174.7,23.9,178.5z"/>
	<path fill="#F7E9E2" d="M227.2,173.8c-5.8-1.9-12-2.3-18-1.3c6.4,1.8,12.5,4.7,17.9,8.5c-8.8-1.9-19.9-3.5-28.2,0.2
		c7.9,3.1,17.9,9.1,23.1,15.8c-15.8-8.8-38.8-13.7-56.8-11.2c2-0.3,14.7-20.9,42.1-18.8C215.1,167.6,223.3,170.5,227.2,173.8z"/>
	<path fill="#D86964" d="M121.4,219.9c1.2,1.1,2.8,1.8,4.3,2.2c1.9,0.5,3.9,0.7,5.8,0.4c4.5-0.8,8.2-5.2,8.2-9.8
		c0-0.2,0-0.5-0.1-0.7c-0.2-0.2-0.4-0.3-0.7-0.4c-1.4-0.5-2.8-1.2-4-2.3c-3.3-3-3.7-7.9-5.9-11.7c-0.1-0.2-0.3-0.4-0.5-0.3
		c-0.1,0-0.2,0.2-0.2,0.3c-0.5,1.2-0.7,2.6-1,3.8c-1,3.8-3.3,7.1-6.4,9.5c-1.7,1.3-2.4,1.4-1.9,3.6
		C119.4,216.4,119.9,218.5,121.4,219.9z"/>
	<g>
		<path fill="#60423E" d="M127.8,184.9c0,3.7-0.1,7.3-0.5,11c-0.3,3.5-0.7,7.4-2.5,10.5c-2.8,4.8-8.9,7.1-14.2,5.5
			c-1-0.3-1.5,1.3-0.4,1.6c5.7,1.7,12.1-0.6,15.5-5.4c2.1-3,2.6-6.8,3.1-10.3c0.5-4.3,0.7-8.6,0.7-12.9
			C129.5,183.8,127.8,183.8,127.8,184.9L127.8,184.9z"/>
	</g>
	<path fill="#382624" d="M82.5,530.7c0,0-0.1-2.9,2.2-4.3c2.4-1.3,3.7-1.6,3.7-1.6s-2.6-0.7-5.2,1.1c-2.6,1.8-2.6,4.8-2.6,4.8
		L82.5,530.7L82.5,530.7z"/>
	<path fill="#382624" d="M78.5,524.8c0,0,1-1.4,2.2-2.1c1.7-0.9,4.2-1.4,4.2-1.4s-1.9-0.1-3.6,0.4c-2.3,0.6-3.2,1.8-3.2,1.8
		s0,0.3,0.2,0.8C78.4,524.7,78.5,524.8,78.5,524.8L78.5,524.8z"/>
	<path fill="#60423E" d="M259.8,206.6c-0.1-1.5-0.3-3-0.1-4.5c0.2-1.5,0.9-3,2.2-3.8c1.3-0.7,3.3-0.3,3.9,1.1
		c-0.3-2.3,1.3-4.9,3.7-5.3c2.3-0.4,4.8,1.9,4.3,4.2c0.7-1.2,2.5-1.5,3.7-0.8c1.2,0.6,2,2,2.2,3.4c0.2,1.4,0,2.8-0.3,4.2
		c-1.5,7.3-4.3,14.5-9.1,20.2c-4.3,5.1-10.3,9.4-11.4,10c-6,3-9.8-2.1-10.1-5.3c-0.2-2.2,0.8-3.6,4.4-6.1
		C258.4,220.3,260.2,212.9,259.8,206.6z"/>
	<path fill="#D86964" d="M266.6,205.4c-0.9,0.6-1.4,1.7-1.7,2.7c-0.5,1.7-0.4,3.5,0.3,5.1c0.3,0.7,0.8,1.4,1.5,1.7
		c1.4,0.8,3.2,0.2,4.2-0.9c1.1-1.1,1.5-2.7,1.7-4.3c0.1-1.1,0.1-2.2-0.3-3.2C271.4,204.6,268.2,204.2,266.6,205.4z"/>
	<path fill="#D86964" d="M261.8,202.9c0.2,0.4,0.5,0.9,0.9,1.1c0.4,0.3,1,0.3,1.4,0.1c0.3-0.2,0.5-0.5,0.6-0.8
		c0.2-0.5,0.3-1.1,0.2-1.7c-0.1-1-1.1-2.2-2.2-1.8C261.6,200.3,261.4,201.9,261.8,202.9z"/>
	<path fill="#D86964" d="M268.2,197.3c-0.4,0.6-0.6,1.4-0.6,2.1c0,0.5,0,1,0.2,1.4c0.2,0.5,0.5,0.9,0.9,1.1c0.7,0.3,1.6,0,2.1-0.6
		c0.5-0.6,0.7-1.4,0.8-2.1C271.9,197.1,269.8,194.9,268.2,197.3z"/>
	<path fill="#D86964" d="M274.6,200.1c-0.4,0.6-0.7,1.2-0.8,1.9c-0.2,0.8,0,1.8,0.7,2.3c0.8,0.4,1.8,0,2.2-0.8
		c0.5-0.7,0.5-1.6,0.5-2.5C277.3,199.5,275.6,198.8,274.6,200.1z"/>
	<path fill="#F2881D" d="M189.7,280c0,0,3.6,1.5,21.8-9.7c18.2-11.3,45.5-32.7,45.5-32.7s-12.1,16.4-27.5,28.2
		c-15.4,11.8-31.3,21.9-32.1,22.5S189.7,280,189.7,280z"/>
	<path fill="#F2881D" d="M189.7,280c0,0,4.3,8.3,8.1,18.6c3.8,10.3,13.5,39.9,13.4,39.3c-0.1-0.6-4.1-24.4-6.5-32.8
		c-2.4-8.4-4.8-18.3-4.8-18.3L189.7,280z"/>
	<path fill="#F2881D" d="M27.2,325.8c0.2-0.9,7.3-12.4,17.4-20.4c10.1-8,21.8-15.6,21.8-15.6l-9.8,13.1c0,0-11,9.1-17.2,15.6
		c-6.1,6.5-12.2,12.8-12.2,12.8V325.8z"/>
	<path fill="#60423E" d="M27.6,349.1c0.6,1.4,1.3,2.8,1.6,4.3c0.3,1.5,0.1,3.2-0.9,4.3c-1,1.1-3,1.4-4,0.2c1,2.1,0.3,5.1-1.8,6.2
		c-2.1,1.1-5.2-0.3-5.4-2.6c-0.3,1.4-1.9,2.2-3.2,2c-1.4-0.2-2.5-1.3-3.2-2.5c-0.6-1.2-0.9-2.6-1.1-4c-1-7.4-0.6-15.1,2.2-22.1
		c2.4-6.1,6.7-12.2,7.6-13.1c4.7-4.8,10-1.1,11.2,1.8c0.9,2.1,0.4,3.7-2.2,7.1C24.6,335.6,25.3,343.2,27.6,349.1z"/>
	<path fill="#F2881D" d="M56.6,302.9c0,0-4.1,9.2-6.9,20.4C47,334.2,45.9,353,45.9,353s3.8-19.8,9.3-33.8
		c5.5-13.9,11.2-29.5,11.2-29.5L56.6,302.9z"/>
	<path fill="#F2881D" d="M207.3,411.4c-3.1,11.4-6.3,22.8-9.4,34.1c-1.2,4.2-2.5,8.7-5.7,11.7c-4.4,4.1-10.5,3.9-16.1,3.3
		c-1.5-0.2-2.8-0.1-3.9,0.2c0.1,0.2,0.2,0.4,0.2,0.6c0.6,1.4,1.2,2.8,2.3,3.8c1.4,1.3,13.5,2.4,21.6-4.7
		C198.1,458.7,203.1,435.5,207.3,411.4z"/>
	<path fill="#F2881D" d="M60.1,418.7c3.1,11.4,18.8,41,22,44c4.4,4.1,14.7,5.9,19.8,2.6c0,2.3-1,4.6-3.1,5.7
		c-1.7,0.9-13.2,3.6-21.2-3.5C75.7,465.8,67.1,443.6,60.1,418.7z"/>
	<path fill="#FFA912" d="M186.5,46.1c31.2,8,57.3,43.1,53.8,75.5c-0.5,4.5-4.4,25-5.3,30.6c0,0,4.3-46.9-36.7-51.2
		c-26-2.7-39.3,7.1-47.1,25.4c-6.9,16.3-9.3,56.4-9.3,56.4l-16.1,0.1v-142C125.9,40.9,155.3,38.1,186.5,46.1z"/>
	<path fill="#E08119" d="M206.1,75.3c1.6,1,3.3,2.8,2.6,4.5c-0.7,1.7-3,1.9-4.9,1.6c-3.7-0.6-7.4-1.8-11.2-2.1
		c-3.6-0.3-7.3,0.2-10.9-0.1c-1.1-0.1-2.5-0.5-2.7-1.6c-0.1-0.4,0-0.8,0.2-1.1c0.7-1.8,2.4-3.1,4.2-3.7
		C190.9,70,199.6,71.3,206.1,75.3z"/>
	<path fill="#FFA912" d="M68.3,47.7c-30.9,9-55.9,44.9-51.4,77.2c0.6,4.5,5.1,24.8,6.3,30.4c0,0-5.8-46.7,35-52.3
		c25.9-3.6,39.5,5.9,47.9,23.9c7.4,16.1,11.1,56.1,11.1,56.1l18.2-0.1l-6.6-142.3C128.8,40.6,99.2,38.7,68.3,47.7z"/>
	<path fill="#E08119" d="M52.7,77.6c-1.6,1-3.3,2.7-2.6,4.5c0.7,1.7,3,1.8,4.8,1.5c3.7-0.6,7.3-1.8,11-2.2c3.6-0.3,7.2,0.2,10.8-0.2
		c1.1-0.1,2.5-0.5,2.6-1.6c0.1-0.4-0.1-0.8-0.2-1.1c-0.7-1.8-2.4-3-4.2-3.6C67.7,72.3,59.2,73.6,52.7,77.6z"/>
	<path fill="#60423E" d="M149.2,176c-0.7-2.4-2.6-4.4-4.8-5.6c-2.2-1.2-4.7-1.7-7.3-1.9c-2.8-0.3-14-0.3-16.8,0
		c-2.5,0.2-5,0.7-7.3,1.9c-2.2,1.2-4.1,3.1-4.8,5.6c-0.7,2.4,0,5.3,2.1,6.8c1,0.7,2.2,1.1,3.3,1.6c1.5,0.7,2.8,1.7,3.8,3
		c1.2,1.5,2,3.3,3.3,4.8c2,2.1,5,3.1,7.9,3.5c2.9-0.4,5.9-1.3,7.9-3.5c1.3-1.4,2.1-3.3,3.3-4.8c1-1.3,2.3-2.3,3.8-3
		c1.1-0.5,2.3-0.9,3.3-1.6C149.2,181.3,149.9,178.4,149.2,176z"/>
	<path fill="#FFFFFF" d="M114.3,174.6c-0.6,1.2-0.3,2.9,0.9,3.5c0.8,0.4,1.7,0.2,2.5-0.1c0.8-0.4,1.5-0.9,2.2-1.3
		c2.3-1.3,5.1-1.5,7.8-1.6c0.7,0,1.5-0.1,2.1-0.4c0.7-0.3,1.2-1,1.1-1.7c-0.4-2.4-6.3-2.2-8.1-2.1
		C120,171.1,115.6,171.9,114.3,174.6z"/>
	<g>
		<path fill="#60423E" d="M127.3,189c0.3,3.5,0.8,7,1.7,10.4c0.7,2.9,1.6,6,3.4,8.5c4.1,5.4,11.2,5.3,17.3,4.8
			c1.1-0.1,1.1-1.8,0-1.7c-5.6,0.4-12.7,0.7-16.3-4.6c-1.5-2.3-2.3-5.2-2.9-7.9c-0.8-3.1-1.3-6.3-1.5-9.5
			C128.9,187.9,127.2,187.9,127.3,189L127.3,189z"/>
	</g>
	<path fill="#FFB845" d="M81.1,52.7c-1.9,0.6-3.8,1.2-5.3,2.4c-1.5,1.2-2.6,3.2-2.2,5.1c0.5,2.3,3,3.8,5.4,3.9
		c2.4,0.1,4.7-0.8,6.9-1.5c7.8-2.6,16-4,24.3-3.9c7.3,0.1,14.8,1.2,21.9-0.8c3.6-1,7.5-3.8,7-7.5c-0.3-2.3-2.2-4.1-4.4-4.9
		c-2.1-0.8-4.5-0.8-6.8-0.8C111.9,44.9,96.4,47.9,81.1,52.7z"/>
	<path fill="#F7E9E2" d="M106.1,302.9c-0.7-9.1,1.8-18.2,6-26.3c-3.6,2.6-6.5,6.2-8.2,10.3c-2.5-3-4.2-7.9-6.9-10.3
		c-1.3,3.2,1.7,10.2,2.9,13.5c0.8,2.3,1.8,4.5,2.8,6.7C103.4,298.4,105.9,301.3,106.1,302.9z"/>
	<path fill="#F7E9E2" d="M139.2,287.8c-0.7-9.1,1.8-18.2,6-26.3c-3.6,2.6-6.5,6.2-8.2,10.3c-2.5-3-4.2-7.9-6.9-10.3
		c-1.3,3.2,1.7,10.2,2.9,13.5c0.8,2.3,1.8,4.5,2.8,6.7C136.6,283.3,139.1,286.2,139.2,287.8z"/>
	<path fill="#F7E9E2" d="M121.3,337.1c-0.7-9.1,1.8-18.2,6-26.3c-3.6,2.6-6.5,6.2-8.2,10.3c-2.5-3-4.2-7.9-6.9-10.3
		c-1.3,3.2,1.7,10.2,2.9,13.5c0.8,2.3,1.8,4.5,2.8,6.7C118.6,332.6,121.1,335.5,121.3,337.1z"/>
	<path fill="#F7E9E2" d="M154.7,324c-0.7-9.1,1.8-18.2,6-26.3c-3.6,2.6-6.5,6.2-8.2,10.3c-2.5-3-4.2-7.9-6.9-10.3
		c-1.3,3.2,1.7,10.2,2.9,13.5c0.8,2.3,1.8,4.5,2.8,6.7C152.1,319.5,154.6,322.3,154.7,324z"/>
	<path fill="#F7E9E2" d="M138.9,366.2c-0.6-7.4,1.5-14.9,4.9-21.5c-3,2.1-5.3,5-6.7,8.4c-2.1-2.5-3.5-6.4-5.7-8.4
		c-1.1,2.6,1.4,8.4,2.4,11.1c0.7,1.9,1.5,3.7,2.3,5.5C136.8,362.5,138.8,364.8,138.9,366.2z"/>
	<path fill="#F7E9E2" d="M100.2,357.3c-0.6-7.4,1.5-14.9,4.9-21.5c-3,2.1-5.3,5-6.7,8.4c-2.1-2.5-3.5-6.4-5.7-8.4
		c-1.1,2.6,1.4,8.4,2.4,11.1c0.7,1.9,1.5,3.7,2.3,5.5C98.1,353.6,100.1,355.9,100.2,357.3z"/>
	<path fill="#F7E9E2" d="M168.5,348.5c-0.6-7.4,1.5-14.9,4.9-21.5c-3,2.1-5.3,5-6.7,8.4c-2.1-2.5-3.5-6.4-5.7-8.4
		c-1.1,2.6,1.4,8.4,2.4,11.1c0.7,1.9,1.5,3.7,2.3,5.5C166.4,344.9,168.4,347.2,168.5,348.5z"/>
	<path fill="#F2881D" d="M75.8,407.4c0.7,0.4,34.9,15.3,58.1,15.3c40.1,0,61.2-17.3,60.8-17.1c-0.4,0.3-29.3,12.8-59.2,11.9
		C105.5,416.5,75.8,407.4,75.8,407.4z"/>
	<path fill="#FCD8BE" d="M386.8,435.4c14.2-4.2,28.7-11.3,36.2-24.1c-23.6,5.4-47.7-7.3-65.7-23.4c-4-3.6-7.8-7.3-11.6-11.2
		c-1.1,0.3-2.2,0.8-3.4,1.7c-5.2,3.8-5.1,10.7-9.1,15.4c-3.7,4.2-9.8,5.2-14.5,8.4c-4.1,2.8-7,7.4-7.7,12.4
		c-0.5,3.6,0.1,7.4-0.8,10.9c-1.2,4.4-4.7,8-6.7,12.1C331,443.6,359.7,443.5,386.8,435.4z"/>
	<path fill="#EFC8AC" d="M422.9,411.4c-0.5,0.1-0.9,0.2-1.4,0.3c0,0,0,0-0.1,0c-0.4,0.1-0.9,0.2-1.3,0.2c0,0-0.1,0-0.1,0
		c-1.4,0.2-2.8,0.4-4.2,0.5c0,0,0,0,0,0c-5.2,0.4-10.4,0-15.6-1c-1.2,0.4-2.4,0.8-3.6,1.1c-27.8,8.3-57.3,8.2-85.7,1.7
		c0,0.1,0,0.2-0.1,0.4c-0.5,3.6,0.1,7.4-0.8,10.9c-1.2,4.4-4.7,8-6.7,12.1c0.1,0,14.9,8,64.6,3.1
		C395.3,438.2,415.5,424.2,422.9,411.4z"/>
</g>
</svg>
