<?xml version="1.0" encoding="utf-8"?>
<!-- Generator: Adobe Illustrator 17.1.0, SVG Export Plug-In . SVG Version: 6.00 Build 0)  -->
<!DOCTYPE svg PUBLIC "-//W3C//DTD SVG 1.1//EN" "http://www.w3.org/Graphics/SVG/1.1/DTD/svg11.dtd">
<svg version="1.1" id="Layer_1" xmlns="http://www.w3.org/2000/svg" xmlns:xlink="http://www.w3.org/1999/xlink" x="0px" y="0px"
	 width="525.4px" height="703.2px" viewBox="0 0 525.4 703.2" enable-background="new 0 0 525.4 703.2" xml:space="preserve">
<g>
	<path fill="#F2881D" d="M156.9,532.7c-17.8,16.4-29.8,38-45.7,56.2c-15.9,18.2-38.2,33.8-62.3,31.4c9,11.8,24.2,17,38.9,19.4
		C141,648.5,196.3,628,237.2,593c12.8-10.9,24.7-23.7,30.8-39.4c4.8-12.4,5.6-27.1,0.1-39.4c-5.7-12.8-21.3-11.8-33.9-11.6
		C206,502.9,177.7,513.5,156.9,532.7z"/>
	<path fill="#E27B1E" d="M71.4,617.6c1.2,0.2,2.5,0.5,3.7,0.7c53.2,8.8,108.5-11.7,149.4-46.8c12.8-10.9,24.7-23.7,30.8-39.4
		c3.3-8.4,4.7-17.9,3.5-27c3.9,1.7,7.2,4.5,9.2,9c5.5,12.3,4.7,27-0.1,39.4c-6.1,15.7-18,28.4-30.8,39.4
		c-40.9,35-96.2,55.5-149.4,46.8c-14.7-2.4-29.9-7.6-38.9-19.4C56.6,621.1,64.2,620,71.4,617.6z"/>
	<path fill="#FCD8BE" d="M87.8,639.7c-14.7-2.4-29.9-7.6-38.9-19.4c24.1,2.4,46.4-13.2,62.3-31.4c3.5-4,6.8-8.2,10.1-12.5
		c1.1,0.2,2.3,0.5,3.6,1.3c5.6,3.2,6.4,10,11,14.1c4.2,3.8,10.4,4,15.4,6.5c4.5,2.3,7.9,6.5,9.2,11.3c0.9,3.5,0.8,7.3,2.2,10.7
		c1.7,4.3,5.6,7.4,8.1,11.2C144.1,640.9,115.6,644.3,87.8,639.7z"/>
	<path fill="#EFC8AC" d="M48.9,620.4c0.5,0,1,0.1,1.4,0.1c0,0,0,0,0.1,0c0.4,0,0.9,0.1,1.3,0.1c0,0,0.1,0,0.1,0
		c1.4,0.1,2.8,0.1,4.2,0c0,0,0,0,0,0c5.2-0.2,10.4-1.3,15.3-2.9c1.2,0.2,2.5,0.5,3.7,0.7c28.6,4.7,57.9,0.9,85.2-9
		c0,0.1,0.1,0.2,0.1,0.4c0.9,3.5,0.8,7.3,2.2,10.7c1.7,4.3,5.6,7.4,8.1,11.2c-0.1,0-13.8,9.8-63.7,11.2
		C79.7,643.5,57.9,632.2,48.9,620.4z"/>
	<path fill="#FFA912" d="M378.5,393.9c18.2,5.6,26,6.2,38.8,6.2c7.1,0,14.2,0,21.3,0c-0.3,3.9-0.6,7.7-0.9,11.6
		c-13.1,4.7-26.5,8.7-40.1,11.9c-13.6,3.2-27.8,5.6-41.6,3c-7.6-1.4-15-4.5-20.5-9.9c-5.5-5.4-8.8-13.4-7.4-21
		C333.5,365.2,359.6,388.2,378.5,393.9z"/>
	<path fill="#60423E" d="M449.1,387.5c0.6-1.4,1.1-2.8,2-4.1c0.9-1.2,2.2-2.3,3.7-2.3c1.5,0,3.1,1.2,2.9,2.7c0.9-2.2,3.5-3.7,5.7-3
		c2.2,0.7,3.4,3.9,1.8,5.7c1.2-0.7,2.9-0.2,3.7,1c0.8,1.1,0.8,2.7,0.4,4c-0.4,1.3-1.3,2.5-2.2,3.6c-4.7,5.8-10.6,10.9-17.5,13.7
		c-6.1,2.5-13.5,3.6-14.8,3.5c-6.7-0.1-7.7-6.4-6.5-9.3c0.9-2.1,2.4-2.8,6.7-3.3C441.5,399,446.5,393.2,449.1,387.5z"/>
	<path fill="#D86964" d="M455.7,389.5c-1.1,0.1-2,0.8-2.8,1.6c-1.2,1.2-2,2.9-2.1,4.6c0,0.8,0.1,1.6,0.5,2.3
		c0.9,1.3,2.7,1.7,4.2,1.2c1.5-0.5,2.6-1.7,3.5-3c0.6-0.9,1.2-1.9,1.2-3C460.3,391.1,457.6,389.3,455.7,389.5z"/>
	<path fill="#D86964" d="M452.6,385.1c0,0.5,0,1,0.3,1.4c0.2,0.4,0.7,0.8,1.2,0.7c0.3,0,0.7-0.2,0.9-0.4c0.4-0.4,0.8-0.9,1-1.4
		c0.3-0.9,0.1-2.4-1.1-2.6C453.6,382.7,452.7,384,452.6,385.1z"/>
	<path fill="#D86964" d="M460.9,383.1c-0.7,0.4-1.1,1-1.5,1.6c-0.2,0.4-0.4,0.9-0.5,1.4c-0.1,0.5,0,1,0.3,1.4
		c0.5,0.6,1.4,0.7,2.1,0.4c0.7-0.3,1.3-0.9,1.7-1.5C464.3,384.7,463.4,381.8,460.9,383.1z"/>
	<path fill="#D86964" d="M465.2,388.6c-0.6,0.3-1.2,0.8-1.6,1.3c-0.5,0.7-0.9,1.6-0.4,2.3c0.5,0.7,1.6,0.8,2.3,0.4
		c0.8-0.4,1.2-1.2,1.6-2C467.8,389.3,466.7,387.9,465.2,388.6z"/>
	<path fill="#F2881D" d="M352.9,419.7c0,0,2.5,3.1,23.8,1.6c21.3-1.5,55.5-7.7,55.5-7.7s-18.4,8.9-37.5,12.1
		c-19.1,3.3-37.9,4.8-38.9,5C355,430.8,352.9,419.7,352.9,419.7z"/>
	<path fill="#FFA912" d="M218.9,405.5c-19.1,0-26.7-1.8-38.9-5.6c-6.8-2.1-13.6-4.2-20.4-6.3c-0.8,3.8-1.7,7.6-2.5,11.3
		c11.1,8.4,22.8,16.1,34.8,23.2c12.1,7.1,24.9,13.6,38.9,15.1c7.7,0.9,15.7,0.1,22.6-3.5c6.9-3.6,12.3-10.2,13.3-17.9
		C270.3,391.3,238.6,405.5,218.9,405.5z"/>
	<path fill="#60423E" d="M153.3,378.5c-0.2-1.5-0.3-3-0.7-4.5c-0.5-1.4-1.4-2.8-2.9-3.3c-1.4-0.5-3.3,0.3-3.6,1.8
		c-0.2-2.4-2.2-4.6-4.6-4.5c-2.4,0.1-4.4,2.8-3.4,4.9c-0.9-1-2.7-1-3.8-0.1c-1.1,0.9-1.6,2.3-1.5,3.7c0,1.4,0.5,2.7,1,4
		c2.8,6.9,6.9,13.5,12.7,18.2c5.1,4.2,11.8,7.4,13.1,7.7c6.4,1.9,9.2-3.9,8.9-7c-0.2-2.2-1.5-3.4-5.4-5.1
		C157.2,391.7,154.1,384.8,153.3,378.5z"/>
	<path fill="#D86964" d="M146.4,378.6c1,0.5,1.7,1.4,2.2,2.3c0.8,1.5,1.1,3.4,0.6,5c-0.2,0.8-0.6,1.5-1.2,2c-1.2,1-3.1,0.8-4.3-0.1
		c-1.3-0.9-2-2.4-2.5-3.9c-0.3-1-0.5-2.2-0.3-3.2C141.6,378.7,144.6,377.8,146.4,378.6z"/>
	<path fill="#D86964" d="M150.7,375.3c-0.1,0.5-0.3,0.9-0.7,1.3c-0.3,0.3-0.9,0.5-1.3,0.4c-0.3-0.1-0.6-0.4-0.8-0.7
		c-0.3-0.5-0.5-1-0.5-1.6c0-1,0.6-2.3,1.8-2.1C150.5,372.7,150.9,374.2,150.7,375.3z"/>
	<path fill="#D86964" d="M143.4,370.9c0.5,0.5,0.8,1.3,1,2c0.1,0.5,0.2,1,0.1,1.5c-0.1,0.5-0.3,1-0.7,1.2c-0.6,0.4-1.5,0.3-2.1-0.2
		c-0.6-0.5-1-1.2-1.2-1.9C139.6,371.4,141.3,368.9,143.4,370.9z"/>
	<path fill="#D86964" d="M137.6,374.9c0.5,0.5,0.9,1.1,1.2,1.7c0.3,0.8,0.3,1.8-0.3,2.4c-0.7,0.6-1.7,0.3-2.3-0.3
		c-0.6-0.6-0.8-1.5-1-2.4C134.9,374.8,136.4,373.8,137.6,374.9z"/>
	<path fill="#F2881D" d="M235.8,437.6c0,0-3.3,2.2-23.2-5.5c-20-7.7-50.8-23.7-50.8-23.7s14.9,13.9,32.2,22.6
		c17.3,8.8,34.8,15.8,35.7,16.2C230.5,447.6,235.8,437.6,235.8,437.6z"/>
	<path fill="#60423E" d="M261,682.2c-1.5,0.2-6.4,1.2-7.8,4.2c-0.5,1.2-1.1,3-0.3,4.4c-1.5,1.9,0.2,5.3,0.8,5.8
		c1.4,1.2,1.3,1.1,3.9,1c-0.7,0.4,0.2,3.8,2.4,4.8c4,1.8,10.1-0.3,14.2-1.9c6.7-2.6,7.1-7,7.4-9.9c0.3-3-1.8-12.7-2.5-16.7
		c-0.3-2.1-5.2,0.4-7.3,0.6c-2.4,0.3-9-0.8-8.7,1.8C263.4,677.7,265.3,681.7,261,682.2z"/>
	<path fill="#382624" d="M257.7,697.7c0,0-0.2-3.4,2.6-4.9s4.3-1.9,4.3-1.9s-3-0.8-6,1.3c-3.1,2.1-3.1,5.5-3.1,5.5L257.7,697.7
		L257.7,697.7z"/>
	<path fill="#382624" d="M253,690.9c0,0,1.1-1.6,2.6-2.4c2-1.1,4.9-1.6,4.9-1.6s-2.2-0.1-4.1,0.4c-2.6,0.7-3.7,2.1-3.7,2.1
		s0,0.3,0.2,0.9C252.9,690.7,253,690.9,253,690.9L253,690.9z"/>
	<path fill="#60423E" d="M395.4,628.4c0.5,1.4,2.2,6.1,0.2,8.8c-0.8,1.1-2.1,2.5-3.7,2.4c-0.9,2.3-4.7,2.5-5.4,2.2
		c-1.8-0.7-1.6-0.6-2.8-2.9c-0.1,0.8-3.4,1.8-5.4,0.3c-3.6-2.6-4.8-8.9-5.5-13.3c-1.1-7.1,2-11.8,4.8-15.4
		c1.8-2.4,11.8-6.5,12.6-4.6c1,2.2,8.3,1.6,5.8,5C395.2,612.1,392.6,619.7,395.4,628.4z"/>
	<path fill="#382624" d="M383.6,639c0,0,3-1.5,3-4.7c0-3.1-0.5-4.6-0.5-4.6s2.1,2.2,1.9,5.8c-0.3,3.7-3.3,5.4-3.3,5.4L383.6,639
		L383.6,639z"/>
	<path fill="#382624" d="M391.9,639.6c0,0,0.8-1.8,0.8-3.4c-0.1-2.3-1-5-1-5s1.2,1.9,1.7,3.8c0.7,2.6,0,4.3,0,4.3s-0.3,0.2-0.9,0.3
		C392,639.7,391.9,639.6,391.9,639.6L391.9,639.6z"/>
	<path fill="#FFA912" d="M355.7,400.5c-8.8-24.3-9.5-38.8-9.5-38.8l-44.4,15.3l-44.4-15.3c0,0-0.7,14.5-9.5,38.8
		c-8.8,24.3-41.1,89.6-26.6,130.4c6.1,17.3,45.9,37.1,83.1,38.6c41.7,1.7,71.7-16.1,77.7-34.7C395.4,493.5,364.5,424.8,355.7,400.5z
		"/>
	<path fill="#F2881D" d="M314.4,407.2c9.9-2.2,18.4-8.6,26.1-15.2c3.6-3.1,7.4-6.6,8.4-11.3c0.1-0.6,0.2-1.2,0.2-1.8
		c-0.6-2.4-1.1-4.7-1.5-6.6c-1.9-3.7-5.2-6.7-9-8.5c-0.1-0.1-0.3-0.1-0.4-0.2l-36.7,12.6l-37-12.7c-2.7,1.1-5.9,2.6-8.3,4.7
		c-0.4,2.7-7.6,28.1-8.5,32.2c2.1,4.3,18.8,8.8,24.3,11.7c6.2,3.3,19.6-5.4,26.5-4.5C303.9,408.4,309.3,408.4,314.4,407.2z"/>
	<path fill="#FCD8BE" d="M262.3,429.7c-4.1,11.9-7,24.1-8.8,36.5c-2.2,15.5-1.9,33.3,9.2,44.3c8.5,8.5,21.3,10.7,33.3,11.8
		c9.6,0.9,19.4,1.2,28.8-0.9c9.4-2.1,18.5-6.9,24.2-14.7c8.5-11.6,8-27.7,3.5-41.4c-4.5-13.7-12.3-26-17.8-39.2
		c-4.6-11.1-7.6-22.9-8.7-34.9c-0.3-2.9,0.4-14.8-2-16.5c-1.6-1.1-46.3-5.4-49.7,2.8c-1.2,3-0.6,15.4-1.2,18.7
		c-0.7,3.8-1.7,7.4-2.8,11.1C267.8,414.8,264.8,422.2,262.3,429.7z"/>
	<path fill="#EFC8AC" d="M327.4,401.9c-0.7-3.5-1.2-7.1-1.5-10.7c-0.3-2.9,0.7-15.2-1.7-16.9c-0.5-0.4-7.1-0.7-14-1.2l-9.5,3.3
		l-10.7-3.7c-8.5,0.4-15.6,1.7-16.8,4.7c-1.2,3-0.6,15.4-1.2,18.7c-0.1,0.5-2.8,14-2.9,14.5C271.7,412.4,314,414,327.4,401.9z"/>
	<path fill="#60423E" d="M119.1,229.8c-3.3-6.5-6.2-15.1-1.6-20.5c3.6-4.2,9.9-3.7,15.3-2.9c12.5,1.9,25.1,3.7,37.6,5.6
		c12.8,1.9,25.9,3.9,37.1,10.7c11.3,6.8,20.4,19.7,19.5,33.3c-1,14.4-12.4,25.2-23.8,32.8c-6.4,4.3-13.1,8-19.9,11.3
		c-16.7,8-25-9.2-34.4-22C137.7,263,127.7,246.8,119.1,229.8z"/>
	<path fill="#FFA912" d="M152.4,273.8c-8-10-14.4-21.3-18.6-33.4c-1.6-4.6-2.7-10.5,0.8-13.9c1.4-1.4,3.2-2.1,5.1-2.7
		c15.7-5,29.7-3.6,44.7,3c9.9,4.4,13.1,14,17.1,16.4c5,3,8.7-4.8,9.9,0.9c1.2,5.7,0,12-3.4,16.8c-2.3,3.4-5.6,6-8.8,8.5
		c-6.5,5-13.2,9.8-20.1,14.2c-4.3,2.8-3.8,14.7-8.6,11.7C165.6,292,156.1,278.4,152.4,273.8z"/>
	<path fill="#FCD8BE" d="M175.7,278.5c4.5-6.7,9.9-12.9,16-18.2c3-2.7,6.2-5.1,8.8-8.2c2-2.4,3.6-5.3,4.2-8.3c-1,0.1-2.1,0-3.2-0.7
		c-4-2.4-7.2-12-17.1-16.4c-7-3.1-13.8-5-20.6-5.7c-3.2,1-6.3,1.9-9.3,3.8c-1.6,1-3.1,2.2-4.5,3.6c-0.8,0.8-2.7,4.1-3.6,4.4
		c2.6-0.9,5.3-1.1,8-0.6c-3,3.5-4.5,8.2-4.1,12.8c5.3-1.9,11.3-1.9,16.6-0.1c-2.5,1.9-4.9,3.9-7.4,5.8c1.7,0.1,3.4,0.2,5.1,0.2
		c-4.1,1.9-7.7,5.1-10.1,9c3,0.4,5.8,1.3,8.5,2.6c-2.1,1.5-3.7,3.5-4.8,5.9C165.3,268.9,171.8,272.8,175.7,278.5z"/>
	<path fill="#60423E" d="M369.8,136.7c-1.1-7.2-3.7-16-10.5-17.6c-5.4-1.3-10.2,2.7-14.2,6.5c-9.1,8.8-18.3,17.6-27.4,26.3
		c-9.3,8.9-18.8,18.2-24.1,30.3c-5.2,12.1-5.3,27.9,3.4,38.5c9.2,11.2,24.7,13.3,38.4,12.9c7.7-0.2,15.3-1,22.8-2.3
		c18.2-3.2,15-21.9,15.3-37.8C373.8,174.5,372.5,155.5,369.8,136.7z"/>
	<path fill="#FFA912" d="M368.1,191.9c0.8-12.8-0.7-25.7-4.2-38c-1.4-4.7-3.9-10.1-8.7-10.9c-1.9-0.3-3.9,0.2-5.7,0.7
		c-15.7,5-26.3,14.2-34.7,28.3c-5.5,9.3-2.5,19-4.4,23.3c-2.4,5.4-9.9,1.1-7.6,6.5c2.3,5.4,6.9,9.7,12.5,11.7
		c3.8,1.4,8,1.6,12.1,1.8c8.2,0.3,16.4,0.3,24.7,0c5.2-0.2,11.6,9.8,13.7,4.5C367.9,214.3,367.7,197.7,368.1,191.9z"/>
	<path fill="#FCD8BE" d="M351.8,209.2c-7.6-2.9-15.5-4.8-23.6-5.6c-4-0.4-8-0.6-11.9-1.6c-3-0.8-6-2.2-8.2-4.3
		c0.9-0.5,1.7-1.2,2.2-2.4c1.9-4.2-1.1-14,4.4-23.3c3.9-6.6,8.3-12.1,13.5-16.6c3.2-1,6.2-2.1,9.7-2.3c1.9-0.1,3.8,0,5.7,0.3
		c1.2,0.2,4.6,1.8,5.5,1.5c-2.6,0.8-5,2.2-6.9,4.1c4.4,1.1,8.4,4.1,10.7,8c-5.4,1.6-10.3,5-13.6,9.6c3.1,0.1,6.2,0.3,9.4,0.4
		c-1.3,1-2.7,2.1-4,3.1c4.5-0.8,9.2-0.3,13.5,1.5c-2.2,2.1-4,4.4-5.5,7c2.5,0,5.1,0.7,7.3,2C354.8,195.3,351.6,202.3,351.8,209.2z"
		/>
	<path fill="#FCD8BE" d="M304.7,187.8c-32.1,2.1-59.3,14-59.3,14s-28.4,8.4-54.4,27.4c-26,19-37.2,61.3-21.9,90.1
		c10.5,19.7,30.9,52.9,63,68.2c32.2,15.3,81.3,1.4,81.3,1.4s46.6-20.9,61.4-53.3c14.8-32.4,9.1-71,4.5-92.8
		C372.7,210.9,336.9,185.7,304.7,187.8z"/>
	<path fill="#FCD8BE" d="M175.2,378.1c4.7-1,9.4-1.9,14.1-2.9c-0.9,5-2.3,10-4.2,14.7c5.7-1.4,11.2-3.1,16.6-5.3
		c0.4,4.5-1.3,9.2-4.6,12.4c28,2.8,56.5,1.1,84-5.1c5-1.1,10.4-2.8,12.9-7.2c2.2-3.9,1.3-9-1.1-12.8c-2.5-3.8-6.2-6.5-10-9
		c-19.8-13.1-41.9-22.2-63.8-31.3c-6.3-2.6-12.6-5.2-19.3-6.1c-4.6-0.6-14.1-0.7-16.6,4.3c-1.9,3.8,1.5,10.2,2,14.1
		c0.8,6.1,0.3,12.4-1.4,18.3C182.9,365.5,179,377.3,175.2,378.1z"/>
	<path fill="#FCD8BE" d="M413.8,290.3c-4.2,2.3-8.4,4.7-12.5,7c3.9,3.3,8.2,6.1,12.8,8.4c-5.2,2.6-10.5,4.9-16.1,6.8
		c2.6,3.7,7,6.1,11.6,6.4c-19.4,20.4-42.1,37.7-67,51c-4.5,2.4-9.7,4.7-14.5,3c-4.2-1.5-6.9-6-7.5-10.5c-0.6-4.5,0.5-9,1.7-13.3
		c6.5-22.8,17.2-44.2,27.9-65.4c3-6,6.1-12.2,10.7-17.2c3.1-3.4,10.2-9.7,15.4-7.6c3.9,1.6,5.5,8.7,7.7,12c3.3,5.2,7.8,9.6,13,13
		C399.8,285.8,410.5,292.2,413.8,290.3z"/>
	<path fill="#EFC8AC" d="M214.7,288.3c26.7-3.7,51.1,20.6,60.5,30c1.5,1.5,3.6,3.1,5.4,2.1c-1-16.4-13.8-29.7-27.3-39.1
		c-5.5-3.8-11.4-7.2-17.9-9c-17-4.5-35.2,3.8-48,16c-3.9,3.7-17.1,31.9-6.8,19.8C189.2,298.1,201.3,290.1,214.7,288.3z"/>
	<path fill="#EFC8AC" d="M323.9,246.7c-23.2,13.7-27.2,47.9-28.7,61.1c-0.2,2.1-0.9,4.7-3,5c-9.4-13.5-7.7-31.8-2.9-47.6
		c2-6.4,4.4-12.8,8.4-18.1c10.5-14.1,29.9-18.9,47.5-17.4c5.4,0.5,33.2,14.4,17.6,11.3C350,238.5,335.6,239.8,323.9,246.7z"/>
	<path fill="#F7E9E2" d="M394.4,287.2c-6.6-1.7-13.7-1.9-20.6-0.6c7.3,1.6,14.2,4.2,20.4,7.9c-10.1-1.6-22.7-2.8-32.2,1.2
		c9,2.8,20.4,8.5,26.3,15.1c-18-8.3-44.3-12.4-64.8-9.2c2.2-0.3,16.9-21.5,48.2-20.3C380.6,281.5,390,284,394.4,287.2z"/>
	<path fill="#FFA912" d="M301.7,187.4c32-3.1,68.6,20.9,76.4,52.6c1.1,4.4,4.5,25,5.5,30.5c0,0-12-45.5-52-35.6
		c-25.4,6.3-34.5,20.2-35.5,40c-0.9,17.7,8.9,50.4,8.9,50.4l-13.5,11.4l-48.6-133.4C242.9,203.3,269.7,190.6,301.7,187.4z"/>
	<path fill="#E08119" d="M335.9,216.8c1.6,1,3.3,2.9,2.5,4.6c-0.7,1.7-3.1,1.8-4.9,1.4c-3.7-0.7-7.3-2.1-11.1-2.5
		c-3.6-0.4-7.3,0-10.9-0.4c-1.1-0.1-2.5-0.6-2.6-1.7c0-0.4,0.1-0.8,0.2-1.1c0.8-1.8,2.5-3,4.4-3.6
		C320.8,211,329.5,212.6,335.9,216.8z"/>
	<path fill="#FFA912" d="M191.2,229.3c-26,19-37.2,61.3-21.9,90.1c2.1,4,13.3,21.6,16.3,26.4c0,0-21.4-41.9,15-61.2
		c23.1-12.2,39.2-8,53.1,6.1c12.5,12.6,26.9,43.5,26.9,43.5l19.7-0.8l-54.8-131.5C245.5,201.9,217.1,210.3,191.2,229.3z"/>
	<path fill="#E08119" d="M186.8,276.2c-0.4,1.8-0.4,4.3,1.3,5c1.7,0.7,3.4-0.8,4.5-2.3c2.2-3,3.9-6.4,6.3-9.2
		c2.3-2.7,5.3-4.9,7.6-7.6c0.7-0.8,1.4-2.1,0.8-3c-0.2-0.3-0.6-0.5-0.9-0.7c-1.8-0.7-3.8-0.5-5.5,0.3
		C193.8,262,188.6,268.8,186.8,276.2z"/>
	<path fill="#FFB845" d="M204.9,229.7c-1.5,1.2-3.1,2.4-4.1,4.1c-1,1.7-1.3,3.9-0.3,5.5c1.3,2,4.1,2.5,6.4,1.8
		c2.3-0.7,4.1-2.3,6-3.8c6.4-5.1,13.7-9.2,21.5-11.9c6.9-2.4,14.3-3.9,20.3-8.3c3-2.2,5.7-6.2,4-9.5c-1-2-3.5-3.1-5.8-3.1
		c-2.3,0-4.5,0.8-6.6,1.6C231.2,211.8,217.6,219.9,204.9,229.7z"/>
	<path fill="#60423E" d="M322.9,263.3c4.1-3.8,15.4-6.8,22.5-4.5c2.1,0.7,11.6,3.3,13.6,2.4c0.7-0.3,1.5-0.8,2.2-0.7
		c1,0.1,1.6,1.2,1.6,2.2c0,1-0.5,1.9-1,2.7c-1.3,2.3-2.7,4.6-4.2,6.8c-4.7-3.8-11.7-5.1-18.5-3.7c-20,4.1-22.4,20.3-22.3,29.9
		c0,0.7-1,0.9-1.2,0.2c-0.5-1.6-0.9-3.2-1-4C314.2,290.5,312.5,273,322.9,263.3z"/>
	<path fill="#F7E9E2" d="M202.2,370.4c3.2-6,7.8-11.5,13.3-15.8c-3.7,6.5-6.3,13.4-7.8,20.5c5.6-8.6,13.1-18.8,22.3-23.2
		c-3.9,8.6-7.3,20.9-6.3,29.6c5.8-18.9,20.3-41.2,36.3-54.4c-1.7,1.4-27.3-1.7-47.3,22.3C207.1,356.3,202.7,365,202.2,370.4z"/>
	<path fill="#60423E" d="M221.8,302.9c-5.4,1.4-13.4,6.3-15.9,16.5c-0.5,2.1-3.6,11.5-5.4,12.8c-0.7,0.4-1.5,0.8-1.8,1.5
		c-0.4,0.9,0.2,2,1,2.5c0.8,0.5,1.9,0.6,2.8,0.7c2.7,0.2,5.3,0.2,8,0.2c-0.6-6.1,2.1-12.6,6.9-17.5c14.3-14.6,29.2-7.9,37.2-2.6
		c0.6,0.4,1.3-0.4,0.8-0.9c-1.1-1.3-2.2-2.5-2.8-3C249.5,310.3,235.7,299.4,221.8,302.9z"/>
	<path fill="#F7E9E2" d="M324.3,309.9c-5.4-5.6-16.7-4.1-19-4.1c-2.9,0-5.7,1-8.3,1.9c-10.4,3.8-24.1,11.8-24.2,11.8
		c0,0-8.4,4.7-9.6,13.1c-0.7,4.6,1.1,9.5,5.3,12.4c3.3,2.2,7.8,3,12.1,3.2c13.9,0.7,33.4-5.4,41.9-15.6
		C329.1,324.7,328.7,314.4,324.3,309.9z"/>
	<path fill="#60423E" d="M309.5,305.9c-1.5-2-3.9-3.2-6.4-3.6c-2.5-0.4-5,0-7.5,0.7c-2.7,0.7-13.3,4.5-15.8,5.7
		c-2.3,1.1-4.5,2.4-6.2,4.3c-1.7,1.9-2.8,4.4-2.6,6.9c0.2,2.5,1.9,5,4.3,5.7c1.2,0.3,2.5,0.3,3.7,0.4c1.6,0.2,3.2,0.7,4.6,1.5
		c1.7,1,3,2.5,4.8,3.3c2.6,1.3,5.7,1.2,8.6,0.6c2.6-1.3,5.1-3.3,6.2-6c0.8-1.8,0.9-3.8,1.5-5.6c0.5-1.5,1.4-3,2.5-4.1
		c0.9-0.9,1.9-1.6,2.6-2.7C311.2,310.9,310.9,308,309.5,305.9z"/>
	<path fill="#FFFFFF" d="M276.2,316.6c-0.2,1.3,0.7,2.8,2,3c0.9,0.1,1.7-0.4,2.3-1c0.6-0.6,1.1-1.4,1.6-2c1.7-2,4.3-3.2,6.7-4.2
		c0.7-0.3,1.4-0.6,1.9-1.1c0.5-0.5,0.8-1.4,0.4-2c-1.2-2.1-6.7,0.1-8.3,0.8C280.4,311.4,276.5,313.6,276.2,316.6z"/>
	<path fill="#60423E" d="M260,363.6c0,0,20.7,19.7,53.2,10c33.1-10,31.1-41.7,31.1-41.7s-15.7,14-36.3,20.8
		C287.2,359.6,260,363.6,260,363.6z"/>
	<path fill="#D86964" d="M312.9,373.6c9.4-2.8,16-7.4,20.6-12.6c-0.3-0.5-0.6-1-0.9-1.4c-1.8-2.3-4.6-3.5-7.4-4.2
		c-2.7-0.6-5.7-0.7-8.3,0.1c-2.7,0.9-5,2.9-6,5.5c-5.1-1.9-11.3-0.7-15.3,3.1c-3.8,3.7-5.1,7.9-4.6,12
		C297.5,376.6,304.8,376,312.9,373.6z"/>
	<path fill="#EFC8AC" d="M259,371.2c-2.7-1.9-4.4-5.3-3.9-8.6c0.5-3.3,3.3-6.1,6.6-6.4c-0.7,0-2,2.8-2.3,3.4c-0.5,1-0.9,2.2-1.3,3.3
		C257.4,365.7,257.6,368.7,259,371.2z"/>
	<path fill="#EFC8AC" d="M351.4,338.4c1-3.1,0.3-6.9-2.1-9.2c-2.4-2.3-6.4-2.9-9.1-1.1c0.6-0.4,3.3,1.1,3.9,1.4c1,0.5,2.1,1.2,3,1.9
		C349.4,333.1,351,335.6,351.4,338.4z"/>
	<path fill="#FFA912" d="M411.9,479.6c8.6,0,18,1.5,23.6,8c6.2,7.2,5.5,17.8,3.9,27.2c-1.7,9.9-4.1,19.8-7.1,29.4
		c-4,12.7-10.4,26.2-22.9,31c-1.7,0.6-3.5,1.1-5.3,1c-4.9-0.4-10.9,1.8-9.8-6.5c2.3-16.2-16.5-15.2-34.9-9.1
		c-11.5,3.8-25.6,7.3-37.6,5.9c-1.3-2.1,0.2-4.7,1.7-6.7c14.5-19.2,30.7-37.9,43.4-58.3C377.1,485.1,392.6,479.6,411.9,479.6z"/>
	<path fill="#FFA912" d="M195.9,536.9c-3.3,5.1-7.4,27.8,11,55.4c9.8,14.6,26.9,28.6,37.1,43c0.6,0.9,2,2.8,3,3.3
		c1.3,0.6,1,0,2.3-0.3c4.1-0.8,8.2-1.6,12.3-2.4c-0.9-10.6-5.1-20.6-7.4-31c-2.3-10.4-1.1-21.2,3.7-30.7c5.1-9.9,15.4-7.5,37.3-5.5
		c1.3,0.1-40.9-31.9-54.6-37.8C228.8,526,204.7,523.2,195.9,536.9z"/>
	<path fill="#60423E" d="M250.8,646c5.4,9.1,10.1,18.6,12.2,28.5c0.6,3,1.1,6.2,3.4,8.6c2.4,2.5,7.4,3.8,10.6,1.9
		c2.3-1.4,2.7-3.9,2.7-6.1c-0.1-5.6-1.7-11-3.3-16.5c-3.9-13.3-8-26.8-17.2-38.6c-1.3-1.6-3.5-3.5-5.9-2.8c-1.9,0.5-2.5,2.3-3.6,3.5
		c-1.5,1.7-3.9,2.6-6.4,3.3c-4.2,1.2-3.6,1.2-1.4,4.3C245,636.6,248,641.3,250.8,646z"/>
	<path fill="#F2881D" d="M257.8,559.8c2.1,1.2,36.2,11.8,59.3,9.5c39.9-3.9,59.2-23.2,58.8-22.9c-0.3,0.3-27.9,15.6-57.8,17.6
		C288.3,566,257.8,559.8,257.8,559.8z"/>
	<path fill="#F2881D" d="M379.5,498.7c-2.4,8.3-4.8,16.7-7.2,25c2.7-5.6,5.7-11,8.8-16.3c6.3-10.4,14.1-20.9,25.6-25
		c5.9-2.1,12.5-2.3,18.6-0.5c-10-2.9-16.8-5.1-29.6-3.1c-3.2,0.5-12.1,6.8-12.1,6.8S380.3,495.9,379.5,498.7z"/>
	<path fill="#F2881D" d="M370.3,558.1c4-0.9,8.1-1.7,12.1-1.2c4,0.5,8.1,2.4,10.1,6c2,3.5,1.6,7.9,2.8,11.8c1.2-0.3,1.8-1.7,2.2-3
		c1.4-4.6,2-9.6,0.9-14.3c-1.1-4.7-4.2-9.1-8.6-11c-4.1-1.8-7.5-2.6-11.8-1.1c-4.2,1.5-9.5,5.2-13.6,7.2
		c-10.7,5.2-35.9,7.8-44.5,16.5c16.2-1,23-4.4,29.5-6.1C356.4,561.2,363.3,559.6,370.3,558.1z"/>
	<path fill="#F2881D" d="M291.3,565.4c-8.3-1.3-16.9-1.5-25-3.9c-11.9-3.5-13.6-0.7-17.5,6.1c-2.9,5.2-2.9,11.6-2,17.5
		c1.3,8.8,4.2,17.3,8.6,25c0-0.2,0-0.4-0.1-0.6c-0.4-1.5-0.8-3-1.1-4.6c-2.3-10.4-1.1-21.2,3.7-30.7c5.1-9.9,15.4-7.5,37.3-5.5
		C295.5,568.8,294,567.5,291.3,565.4z"/>
	<path fill="#60423E" d="M388.6,592.3c-4.5,7.9-10.5,15.4-13.3,23.8c-1,3-0.6,7.4,3.1,7.9c1.6,0.2,3.1-0.5,4.4-1.2
		c8.7-4.8,14-12.8,19.1-20.5c7.8-11.9,15.7-23.9,22.3-36.3c0.8-1.5,1.5-3.4,0.2-4.6c-0.6-0.6-1.5-0.8-2.3-0.9
		c-5.5-0.8-10.1,3.7-15.6,4.4c-9.8,1.3-11.9-1.5-12.4,7.2C393.7,579.5,392.4,585.6,388.6,592.3z"/>
	<path fill="#FFB845" d="M198.3,547.8c-0.8,3.6,0.8,7.3,2.2,10.6c1.2,2.7,2.4,5.5,3.6,8.2c1,2.3,2.1,4.7,4,6.2c2,1.6,5.1,2,6.8,0.2
		c1.4-1.4,1.5-3.7,0.9-5.6c-0.6-1.9-1.8-3.5-2.7-5.3c-2-3.8-3.1-8.1-2.9-12.4c0.1-1.6,0.3-3.2-0.3-4.6
		C208,539.5,199.2,543.1,198.3,547.8z"/>
	<path fill="#FFB845" d="M413.1,500.4c0.3,2.7,1.1,5.3,1.5,7.9c0.5,2.9,0.5,5.8,0.1,8.7c-0.4,3.1-1.1,6.8,1.4,8.7
		c1.4,1.1,3.4,1,5,0.2c1.6-0.8,2.7-2.2,3.6-3.7c2.7-4.5,3.4-9.8,3.8-15c0.3-3.2,0.5-6.4-0.4-9.5
		C424.7,486.3,411.7,488.3,413.1,500.4z"/>
	<path fill="#B9DFEA" d="M203.3,221l-5.6-119.7c-0.2-5.2,6.2-7.9,9.7-4l82.5,92.1c0,0-4.5,19.8-37.6,35.7
		C225.8,238,203.3,221,203.3,221z"/>
	<path fill="#9ACEE8" d="M279.5,206.1c8.7-9.3,10.3-16.5,10.3-16.5l-82.5-92.1c-0.3-0.3-0.5-0.5-0.8-0.8l-2.7-1.1
		c-1.2-0.1-2.3,0.1-3.3,0.7C211.7,111.4,262.1,181.7,279.5,206.1z"/>
	<g>
		<path fill="#FFD41D" d="M233.5,198.3c11.7-11.7,21-25.9,27.1-41.4l-6.1-6.8c-5.3,18.4-17,34.9-32.7,45.8c-5.8,4-12.4,7.3-19.3,8
			l0.7,14.4C214.7,214.3,224.9,206.9,233.5,198.3z"/>
		<path fill="#FFD41D" d="M199.5,138.4c10-4.8,18.1-13.3,23.9-23l-4.5-5c-1.4,2.1-2.9,4.1-4.6,5.9c-4.4,4.8-9.6,8.3-15.4,11.3
			L199.5,138.4z"/>
		<path fill="#FFD41D" d="M244.6,139l-6-6.7c-2.6,7.5-7.3,14.3-13.4,19.4c-6.9,5.8-15.7,9.4-24.7,10.2l0.9,19
			c5.2-1.5,10.1-4.4,14.5-7.7C228,164.3,237.9,152.5,244.6,139z"/>
	</g>
	<path fill="#E8B628" d="M249.3,163.6c1.7,2.3,3.3,4.6,5,6.9c2.4-4.4,4.5-9,6.4-13.6l-6.1-6.8C253.1,154.7,251.4,159.2,249.3,163.6z
		"/>
	<path fill="#E8B628" d="M214.9,115.8c1.4,1.9,2.8,3.9,4.3,5.9c1.5-2,3-4.1,4.3-6.3l-4.5-5C217.7,112.3,216.3,114.1,214.9,115.8z"/>
	<path fill="#E8B628" d="M233.8,142.1c1.7,2.3,3.3,4.6,5,7c2.1-3.2,4.1-6.6,5.8-10l-6-6.7C237.4,135.8,235.8,139,233.8,142.1z"/>
	<path fill="#FFD41D" d="M257.8,222.1c10.2-13.3,17.4-28.8,21.1-45.1l-6.2-6.9c-2.4,11.2-8.3,21.5-14.3,31.4
		c-4,6.6-8.1,13.1-13.2,18.8c-3.5,3.9-7.4,6.7-11.6,9.4c5.8-0.2,12.1-1.6,18.7-4.7C254.2,224,256.1,223,257.8,222.1z"/>
	<path fill="#E8B628" d="M272.8,170.1c-1.3,6-3.6,11.7-6.4,17.2c2.3,3.2,4.4,6.1,6.4,8.9c2.6-6.2,4.7-12.7,6.2-19.2L272.8,170.1z"/>
	<path opacity="0.37" fill="#FFFFFF" d="M208.8,175.4c0.3,2.6,0.6,5.3,2.3,7.3c1.8,2,5.5,2.8,7.4,0.9c0.9-0.9,1.2-2.1,1.3-3.2
		c0.3-3.2-0.6-6.3-1.4-9.4c-2.6-10.1-4.3-20.5-5-30.9c-0.2-2.4-0.3-4.9-1.3-7.2c-1.2-2.7-6.1-7-7.8-2.5c-1.4,3.7,1,11.1,1.4,15
		C206.7,155.5,207.8,165.4,208.8,175.4z"/>
	<path opacity="0.37" fill="#FFFFFF" d="M210.7,193.6c-0.7,1.2-1.1,2.6-1.1,4c-0.1,3,1.1,6.1,3.4,7.9c2.4,1.8,5.9,2.2,8.4,0.7
		c2-1.2,3.2-3.4,3.8-5.6c0.7-2.9,0.1-6.4-2.3-8.2C219.1,189.5,213.3,189,210.7,193.6z"/>
	<g>
		<path fill="#FFD41D" d="M521.3,300c-1-1-2.6-2-4.5-3c0.9-3,2.2-5.9,4.1-8.4c0.9-1.1,1.8-2.2,2.9-3.2c-4,2.7-7.3,6.3-9.5,10.5
			c-3.1-1.2-6.5-2.1-8.9-2.1c0,0,0,0,0,0c-1.7-0.2-3.5-0.2-5.2-0.2c-11.2,0.4-23.1,4.9-28.6,14.6c-8.9,0.2-17.8,2.8-25.3,7.8
			c-12.5,8.4-20.4,23-20.7,38l14.6-1.1c-2-18.6,11.9-37.4,30-41.7c-2.6,6.7-1.8,14.7,2.1,20.8c4,6.1,11.5,10.2,18.7,9
			c7.2-1.2,13.3-8.4,12.2-15.6c-1-6.8-7.4-11.6-13.8-14.1c-3-1.2-6.2-2-9.4-2.5c1-1.3,2.2-2.5,3.4-3.6c6-5,14.1-6.8,21.8-6.5
			c2.5,0.1,5,0.5,7.4,1.2c0,0,0,0,0,0c0.1,0.1,0.3,0.1,0.4,0.2c-0.2,0-0.3-0.1-0.5-0.1c-0.6,1.9-1,3.9-1,6c-0.1,3.5,0.7,7.3,3.3,9.8
			c2.6,2.4,7.3,2.6,9.4-0.2c0.8-1,1.1-2.3,1-3.5C526,305.2,522.4,301,521.3,300z M494.3,317.5c4.4,6,1.9,16.7-5.5,18
			c-5.7,1-11.1-3.9-12.6-9.4c-1.5-5.3-0.2-11,2.8-15.6C485,310.6,490.9,312.7,494.3,317.5z M517.6,313.4c-1.5-1.1-1.9-3.2-2-5.1
			c-0.1-2.4,0-4.8,0.3-7.1c1.4,0.6,2.8,1.4,3.8,2.4c2.4,2.4,3.7,5.1,4.4,7.2c-0.1,0.2-0.1,0.4-0.2,0.5
			C522.8,313.7,519.6,315,517.6,313.4z"/>
	</g>
	<g>
		<path fill="#FFD41D" d="M390.3,28.7c-1.2-0.7-3.1-1.2-5.1-1.6c0-3.1,0.5-6.3,1.6-9.2c0.5-1.3,1.1-2.6,1.9-3.9
			c-3.1,3.7-5.3,8.1-6.2,12.7c-3.3-0.3-6.8-0.2-9.1,0.4c0,0,0,0,0,0c-1.7,0.3-3.4,0.7-5,1.3c-10.6,3.4-20.8,11.1-23.4,22
			c-8.5,2.6-16.4,7.7-22.1,14.5c-9.7,11.5-13.3,27.8-9.4,42.3l13.7-5.1c-7-17.4,1.1-39.2,17.3-48.4c-0.6,7.2,2.3,14.6,7.8,19.4
			c5.5,4.8,13.8,6.6,20.4,3.5c6.6-3.1,10.4-11.7,7.4-18.3c-2.9-6.3-10.3-9.1-17.2-9.7c-3.3-0.3-6.5-0.2-9.8,0.2
			c0.6-1.5,1.4-3,2.3-4.4c4.4-6.4,11.6-10.4,19.2-12.2c2.4-0.6,4.9-0.9,7.4-0.9c0,0,0,0,0,0c0.2,0,0.3,0,0.5,0.1c-0.2,0-0.3,0-0.5,0
			c0,2,0.2,4,0.7,6c0.9,3.4,2.7,6.9,5.9,8.5c3.2,1.6,7.8,0.5,9-2.8c0.4-1.2,0.4-2.5,0-3.7C396.2,32.5,391.6,29.5,390.3,28.7z
			 M369.2,53c5.9,4.6,6.4,15.5-0.3,18.8c-5.2,2.5-11.7-0.7-14.7-5.5c-2.9-4.7-3.3-10.5-1.7-15.8C358.3,49.1,364.6,49.4,369.2,53z
			 M390.4,42.7c-1.8-0.7-2.7-2.6-3.3-4.3c-0.8-2.2-1.4-4.6-1.7-6.9c1.5,0.2,3.1,0.6,4.4,1.3c3,1.6,5,3.9,6.2,5.7
			c0,0.2,0,0.4-0.1,0.6C395.5,41.5,392.8,43.6,390.4,42.7z"/>
	</g>
	<g>
		<path fill="#FFD41D" d="M12.5,324.4c0.6,1.1,1.5,2,2.7,2.5c3.3,1.4,7.2-1.3,8.2-4.7c1-3.4-0.3-7.1-2.2-10c-1.1-1.7-2.5-3.3-4-4.6
			c-0.1,0.1-0.2,0.2-0.3,0.4c0.1-0.1,0.2-0.3,0.3-0.4c0,0,0,0,0,0c1.7-1.8,3.7-3.4,5.7-4.8c6.4-4.3,14.3-6.9,22-5.8
			c1.6,0.2,3.2,0.7,4.8,1.3c-2.5,2.1-4.8,4.5-6.7,7.1c-4.2,5.5-7.2,12.8-4.5,19.2c2.8,6.7,11.7,9.7,18.5,7
			c6.8-2.7,11.1-10.1,11.3-17.4c0.2-7.2-3.3-14.4-9-18.8c17.7-5.7,39.3,3.1,47.3,20.1l13-6.6c-8-12.7-22.4-21.1-37.4-21.7
			c-8.9-0.4-17.9,2-25.7,6.4c-9.7-5.4-22.3-3.1-32,2.4c-1.5,0.8-2.9,1.8-4.3,2.8c0,0,0,0,0,0c-2.1,1.3-4.5,3.7-6.5,6.4
			c-4-2.4-8.7-3.8-13.5-4c1.4,0.3,2.8,0.7,4.1,1.2c2.9,1.2,5.6,2.9,7.9,5c-1.1,1.8-2,3.5-2.3,4.8C9.4,313.5,8.5,319,12.5,324.4z
			 M51.3,298.9c5,2.4,9,6.6,10.5,11.9c1.5,5.5-0.5,12.5-5.9,14.6c-7,2.7-14.7-5-14-12.5C42.3,307.1,46.3,302.2,51.3,298.9z
			 M13.4,323.2c-0.2-0.1-0.3-0.2-0.5-0.3c-0.4-2.1-0.8-5.2,0-8.4c0.4-1.4,1.1-2.8,2-4.1c1.5,1.8,2.9,3.8,4,5.9
			c0.9,1.7,1.6,3.6,0.9,5.4C19,324,15.6,324.5,13.4,323.2z"/>
	</g>
	<polygon fill="#FFA515" points="34.9,157.5 26.8,158.3 22.9,165.4 19.6,157.9 11.6,156.4 17.7,151 16.7,142.9 23.8,147 31.1,143.6 
		29.4,151.5 	"/>
	<polygon fill="#FFA515" points="146.5,180.9 136.1,166.2 118.1,166.4 128.9,152 123.2,134.9 140.2,140.7 154.7,130 154.4,148 
		169.1,158.4 151.9,163.8 	"/>
	<polygon fill="#FFA515" points="173.5,64.6 163.1,61.6 154.8,68.5 154.4,57.7 145.3,51.9 155.4,48.2 158.2,37.8 164.8,46.3 
		175.6,45.6 169.5,54.6 	"/>
	<polygon fill="#FFA515" points="279.7,110.4 267.8,96.9 250,99.1 259.2,83.6 251.7,67.4 269.2,71.3 282.3,59.1 284,77 299.6,85.7 
		283.1,92.8 	"/>
	<polygon fill="#FFA515" points="425.3,238.8 412,230.3 397.5,236.5 401.5,221.2 391.1,209.3 406.9,208.3 415,194.8 420.8,209.5 
		436.1,213 424,223.1 	"/>
	<polygon fill="#B9DFEA" points="413,78.4 408,68.1 396.7,66.5 404.9,58.5 402.9,47.3 413,52.6 423.1,47.3 421.2,58.5 429.3,66.5 
		418.1,68.1 	"/>
	<polygon fill="#B9DFEA" points="86.7,253.4 75.5,248.6 65.2,255.1 66.3,243 56.9,235.2 68.8,232.5 73.3,221.1 79.6,231.6 
		91.7,232.4 83.7,241.6 	"/>
	<polygon fill="#B9DFEA" points="215.1,37.8 203.5,30.6 191.1,36.1 194.3,22.9 185.3,12.7 198.8,11.7 205.7,0 210.8,12.6 
		224.1,15.5 213.7,24.3 	"/>
	<path opacity="0.65" fill="#FFA912" d="M151.2,550.4c-1,2-2,4-2.1,6.3c-0.1,2.2,1.1,4.6,3.1,5.4c3.1,1.2,6.3-1.5,8.5-4.2
		c9.1-11.2,16.5-24.7,29.4-31.1c4.5-2.3,9.6-3.5,13.6-6.6c1.3-1,2.7-2.6,2.2-4.2c-0.4-1.4-2-2.1-3.4-2.5c-9.5-2.3-21.5,6.2-29,11.6
		C164.3,531.6,156.5,540.3,151.2,550.4z"/>
	<path fill="#F7E9E2" d="M277.1,451.7c-0.7-9.1,1.8-18.2,6-26.3c-3.6,2.6-6.5,6.2-8.2,10.3c-2.5-3-4.2-7.9-6.9-10.3
		c-1.3,3.2,1.7,10.2,2.9,13.5c0.8,2.3,1.8,4.5,2.8,6.7C274.5,447.2,277,450,277.1,451.7z"/>
	<path fill="#F7E9E2" d="M310.3,436.6c-0.7-9.1,1.8-18.2,6-26.3c-3.6,2.6-6.5,6.2-8.2,10.3c-2.5-3-4.2-7.9-6.9-10.3
		c-1.3,3.2,1.7,10.2,2.9,13.5c0.8,2.3,1.8,4.5,2.8,6.7C307.6,432.1,310.1,434.9,310.3,436.6z"/>
	<path fill="#F7E9E2" d="M292.3,485.9c-0.7-9.1,1.8-18.2,6-26.3c-3.6,2.6-6.5,6.2-8.2,10.3c-2.5-3-4.2-7.9-6.9-10.3
		c-1.3,3.2,1.7,10.2,2.9,13.5c0.8,2.3,1.8,4.5,2.8,6.7C289.7,481.4,292.2,484.2,292.3,485.9z"/>
	<path fill="#F7E9E2" d="M325.7,472.7c-0.7-9.1,1.8-18.2,6-26.3c-3.6,2.6-6.5,6.2-8.2,10.3c-2.5-3-4.2-7.9-6.9-10.3
		c-1.3,3.2,1.7,10.2,2.9,13.5c0.8,2.3,1.8,4.5,2.8,6.7C323.1,468.2,325.6,471.1,325.7,472.7z"/>
	<path fill="#F7E9E2" d="M309.9,514.9c-0.6-7.4,1.5-14.9,4.9-21.5c-3,2.1-5.3,5-6.7,8.4c-2.1-2.5-3.5-6.4-5.7-8.4
		c-1.1,2.6,1.4,8.4,2.4,11.1c0.7,1.9,1.5,3.7,2.3,5.5C307.8,511.2,309.8,513.6,309.9,514.9z"/>
	<path fill="#F7E9E2" d="M271.3,506c-0.6-7.4,1.5-14.9,4.9-21.5c-3,2.1-5.3,5-6.7,8.4c-2.1-2.5-3.5-6.4-5.7-8.4
		c-1.1,2.6,1.4,8.4,2.4,11.1c0.7,1.9,1.5,3.7,2.3,5.5C269.1,502.3,271.1,504.7,271.3,506z"/>
	<path fill="#F7E9E2" d="M339.5,497.3c-0.6-7.4,1.5-14.9,4.9-21.5c-3,2.1-5.3,5-6.7,8.4c-2.1-2.5-3.5-6.4-5.7-8.4
		c-1.1,2.6,1.4,8.4,2.4,11.1c0.7,1.9,1.5,3.7,2.3,5.5C337.4,493.6,339.4,495.9,339.5,497.3z"/>
</g>
</svg>
