<?xml version="1.0" encoding="utf-8"?>
<!-- Generator: Adobe Illustrator 17.1.0, SVG Export Plug-In . SVG Version: 6.00 Build 0)  -->
<!DOCTYPE svg PUBLIC "-//W3C//DTD SVG 1.1//EN" "http://www.w3.org/Graphics/SVG/1.1/DTD/svg11.dtd">
<svg version="1.1" id="Layer_1" xmlns="http://www.w3.org/2000/svg" xmlns:xlink="http://www.w3.org/1999/xlink" x="0px" y="0px"
	 width="551.2px" height="946.4px" viewBox="0 0 551.2 946.4" enable-background="new 0 0 551.2 946.4" xml:space="preserve">
<g>
	<path fill="#FFA912" d="M160.4,811.7c-14.1,19.6-21.6,43.2-33.5,64.2C115,897,96.2,916.7,72.1,919.2c11.2,9.8,27.2,11.8,42,11.2
		c53.8-2,103.9-33.2,137-75.7c10.3-13.3,19.4-28.1,22.3-44.7c2.3-13.1,0.1-27.6-7.7-38.6c-8.1-11.4-23.3-7.3-35.5-4.6
		C202.5,772.7,176.9,788.7,160.4,811.7z"/>
	<path fill="#F2881D" d="M93.6,912c1.3,0,2.5,0,3.8-0.1c53.8-2,93.7-43.1,121.6-137.4c4.8-16.1,34.9,33.6,37.7,17
		c1.5-8.9,1-18.5-1.9-27.1c4.2,0.9,8,3,10.9,7c7.8,11,10,25.5,7.7,38.6c-2.9,16.6-11.9,31.4-22.3,44.7
		c-33.1,42.5-83.2,73.7-137,75.7c-14.8,0.6-30.8-1.5-42-11.2C79.8,918.4,87,915.8,93.6,912z"/>
	<path fill="#FCD8BE" d="M114.1,930.4c-14.8,0.6-30.8-1.5-42-11.2c24.1-2.4,42.8-22.2,54.8-43.2c2.6-4.7,5.1-9.4,7.4-14.3
		c1.1-0.1,2.4,0.1,3.8,0.5c6.1,2,8.3,8.5,13.6,11.7c4.8,2.8,11,1.8,16.4,3.3c4.8,1.3,9,4.8,11.3,9.2c1.6,3.3,2.3,7,4.3,10.1
		c2.5,3.8,7,6.1,10.2,9.3C169.5,920.3,142.3,929.3,114.1,930.4z"/>
	<path fill="#EFC8AC" d="M72.1,919.2c0.5,0,1-0.1,1.4-0.2c0,0,0,0,0.1,0c0.4-0.1,0.9-0.1,1.3-0.2c0,0,0.1,0,0.1,0
		c1.4-0.2,2.8-0.5,4.2-0.9c0,0,0,0,0,0c5.1-1.3,9.9-3.3,14.4-5.9c1.3,0,2.5,0,3.8-0.1c29-1.1,47.5-12,71.7-34.8
		c0.1,0.1,6.8,0,10.1,5c3.8,5.7,2.3,11.2,4.3,14.3c2.5,3.8,7,6.1,10.2,9.3c-0.1,0.1-11.6,12.4-60.2,23.7
		C106.9,935.7,83.3,929,72.1,919.2z"/>
	<path fill="#60423E" d="M396.5,864.4c-0.2,1-0.3,2.1-1,3c-1.1,1.5-3.3,1.7-5.1,1.7c-1.7,0-3.5,0-4.9-0.8c-1.6-0.9-2.6-2.7-2.9-4.5
		c-0.4-1.8-0.2-3.7,0-5.5c1.7-15.3,4.3-30.4,4.8-45.8c0.1-3.6,0.2-7.5,2.6-10.2c1.8-2.1,4.6-2.9,7.4-3.3c3.1-0.5,10.2-7.5,11.5-4.7
		c2.3,5.1-1.7,21.8-3.3,27.6c-2.4,9-4.6,18.1-6.3,27.2C398.2,854.2,397.3,859.3,396.5,864.4z"/>
	<g>
		<path fill="#60423E" d="M397.3,865.1c1.2,0.6,4.9,2.8,5.1,5.7c0.1,1.1,0,2.8-1.1,3.7c0.7,2-1.7,4.3-2.3,4.5
			c-1.5,0.5-1.4,0.5-3.5-0.3c0.4,0.6-1.3,3.1-3.4,3.2c-3.8,0.3-8.2-3.2-11-5.7c-4.7-4.1-3.7-7.8-3.1-10.3c0.6-2.5,3.3-5.3,5.9-17.9
			c0.4-1.8-0.1,8.1,1.6,7.4c1.6-0.7,3.6-0.5,5.2,0.3c1.9,1,7.6,2,6.5,4C396.7,860.7,394,863.5,397.3,865.1z"/>
		<path fill="#382624" d="M395.5,878.7c0,0,1.1-2.7-0.6-4.8c-1.8-2.1-2.9-2.8-2.9-2.8s2.6,0.3,4.5,2.8c1.9,2.6,0.9,5.4,0.9,5.4
			L395.5,878.7L395.5,878.7z"/>
		<path fill="#382624" d="M401.3,874.6c0,0-0.5-1.7-1.4-2.7c-1.3-1.5-3.5-2.8-3.5-2.8s1.9,0.6,3.2,1.6c1.9,1.4,2.4,2.8,2.4,2.8
			s-0.1,0.3-0.4,0.7C401.4,874.5,401.3,874.6,401.3,874.6L401.3,874.6z"/>
	</g>
	<path fill="#FFA912" d="M390.1,704c9.6,2.6,18.4,9,22.8,17.9c3.2,6.5,3.9,13.9,4.2,21.2c0.7,22.5-3,45.1-10.9,66.2
		c-1.5,3.9-4,8.5-8.2,8.6c-2,0.1-3.9-0.9-5.4-2.2c-7-6-9.2-15-10.2-24.2c-1.6-14.1-9.6-21.6-17.8-19.7c-7.3,1.7-20.1,15.7-26.5,19.1
		c-2.6,1.4-6.2,0.1-8.1-2.2c-2-2.5-1.6-6.1-0.9-9.2c4.2-20.2,11-39.9,20.4-58.3c3.1-6.1,3-6,9.7-8.7
		C367.4,709.1,381.6,701.7,390.1,704z"/>
	<g>
		<path fill="#4C4446" d="M381.1,342.7c-10.1,17.7-19.5,35.9-27.2,54.9c-7.6,18.9-13.4,38.5-16.1,58.7c-0.7,5.5-1.2,11-0.9,16.6
			c0.3,5.2,1.4,10.3,3,15.2c3.3,9.9,7.9,19.3,10.6,29.4c2.6,10.1,3.8,20.6,3.6,31.1c-0.2,10.9-2.5,21.4-4.8,32
			c-2.2,10.3-3.7,20.5-3.4,31c0.4,10.1,2.1,20.2,5.3,29.8c0.8,2.5,1.7,4.9,2.7,7.3c0.4,1.1,2.2,0.6,1.7-0.5c-8-19.3-9.9-40.4-6-60.9
			c2-10.3,4.8-20.4,5.7-30.9c0.9-10.2,0.5-20.6-1.3-30.7c-1.8-10.2-5.3-19.7-9.2-29.3c-1.9-4.8-3.8-9.7-5-14.7
			c-1.3-5.3-1.6-10.8-1.3-16.3c0.5-10.4,2.5-20.8,5-30.9c2.4-9.9,5.5-19.6,9-29.1c7.1-19.1,16.2-37.4,26.1-55.2
			c1.3-2.3,2.5-4.5,3.8-6.7C383.3,342.6,381.7,341.7,381.1,342.7L381.1,342.7z"/>
	</g>
	<g>
		<path fill="#4C4446" d="M375.9,341.8c3.4,0,6.7,0.6,9.8,1.9c0.5,0.2,1-0.2,1.1-0.6c0.1-0.5-0.2-0.9-0.6-1.1
			c-3.3-1.3-6.8-2-10.3-1.9C374.8,340,374.8,341.8,375.9,341.8L375.9,341.8z"/>
	</g>
	<g>
		<path fill="#4C4446" d="M376.2,339.9c3.7,0.1,7.4,0.6,10.9,1.7c1.1,0.3,1.6-1.4,0.5-1.7c-3.7-1.1-7.5-1.7-11.4-1.8
			C375,338.1,375,339.9,376.2,339.9L376.2,339.9z"/>
	</g>
	<path fill="#FFA912" d="M217.1,706.9c-11.1,15.5-14.2,22.6-18.3,34.8c-2.3,6.7-4.6,13.5-6.8,20.2c-3.5-1.5-7.1-3.1-10.6-4.6
		c-0.3-13.9,0.3-27.9,1.6-41.8c1.3-13.9,3.6-28.2,10.5-40.4c3.8-6.7,9.1-12.8,16-16.3c6.9-3.5,15.5-4,22.3-0.3
		C258.8,673.5,228.7,690.9,217.1,706.9z"/>
	<path fill="#60423E" d="M243.9,926c0,1,0,2.1,0.6,3.1c0.9,1.6,3,2.1,4.9,2.4c1.7,0.3,3.4,0.5,5-0.1c1.7-0.7,2.9-2.3,3.5-4.1
		c0.6-1.7,0.7-3.6,0.7-5.5c0.4-15.3-0.2-30.7,1.4-46c0.4-3.6,0.8-7.5-1.2-10.5c-1.5-2.3-4.2-3.5-6.8-4.3c-3-0.9-6.2-1.3-9.1,0
		c-7.7,3.4-3,15.6-2.2,21.7c1.2,9.2,2.1,18.5,2.6,27.8C243.6,915.6,243.8,920.8,243.9,926z"/>
	<path fill="#FFA912" d="M238.4,870.4c7.8,7.6,19.8,7.4,21.3,6.1c1.2-1,1.8-2.3,2.4-3.7c4.1-8.9,5-25.1,8.6-34.2
		c5.3-13.4,13.9-33.2,27.6-33.2c4.9,0-23.9-6.6-32.2-12.3c-12.8-8.8-24.4-19.1-34.2-30.6c-5.2-6-17.1-1-13,11.9
		C224.1,790.5,234.8,866.9,238.4,870.4z"/>
	<path fill="#FFA912" d="M307,577.2c11.9-14.9,15.4-21.9,20.1-33.8c2.6-6.6,5.3-13.2,7.9-19.8c3.5,1.7,6.9,3.4,10.4,5.2
		c-0.5,13.9-1.7,27.9-3.8,41.6c-2.1,13.9-5.1,27.9-12.6,39.7c-4.2,6.5-12.7,28.5-19.7,31.6c-7.1,3.1-12.8-13.1-19.4-17.1
		C263.7,608.3,294.7,592.5,307,577.2z"/>
	<path fill="#FFA912" d="M301.6,622.2c-18.2-18.4-25-31.3-25-31.3l-33.9,32.5l-46.7,4.8c0,0,5.5,13.5,7.7,39.3
		c2.2,25.8,0.3,98.6,30.6,129.5c12.8,13.1,57.3,14.4,91.7,0.1c38.6-16,52.7-43.8,51.3-63.3C373.6,681.7,319.9,640.5,301.6,622.2z"/>
	<path fill="#F2881D" d="M267,645.6c8.1-6.2,13.1-15.5,17.3-24.8c2-4.3,3.9-9.1,2.9-13.8c-0.1-0.6-0.3-1.2-0.5-1.7
		c-1.6-2-2.9-3.8-4.1-5.4c-4.9-7.3-5.3-14.5-9.5-14.5c-0.1,0-2.6,10.6-2.7,10.6l-28,26.9l-38.9,4c-2,2.1-4.3,4.9-5.6,7.8
		c0.7,2.6,1.6,6,2.4,10.1c3.7,3.1,9.7,5.2,13.4,6.6c5.9,2.2,12.2,3.5,18.5,3.8c7,0.4,14-0.5,20.7-2.5
		C258,651.1,262.8,648.8,267,645.6z"/>
	<path fill="#FCD8BE" d="M229.1,687.9c1.3,12.5,3.8,24.8,7.4,36.9c4.5,15,12.2,31,27,36.3c11.3,4.1,23.8,0.8,35.2-3.3
		c9.1-3.3,18.1-7,25.7-12.9c7.6-5.9,13.9-14,15.8-23.5c2.8-14.1-4.4-28.5-14.2-39c-9.8-10.5-22.1-18.4-32.7-28.1
		c-8.9-8.2-16.5-17.6-22.6-28c-1.5-2.5-5.9-13.6-8.8-14.1c-1.9-0.4-44.2,14.6-43.9,23.4c0.1,3.2,5.9,14.2,6.8,17.5
		c0.9,3.7,1.6,7.5,2.1,11.2C227.9,672.1,228.3,680,229.1,687.9z"/>
	<path fill="#EFC8AC" d="M276.1,635.5c-2.1-2.9-4-6-5.9-9.1c-1.5-2.5-5.9-13.6-8.8-14.1c-0.6-0.1-5.7,1.4-12.1,3.9l-7.3,7l-11.3,1.2
		c-7.5,3.9-13.4,8.1-13.3,11.4c0.1,3.2,5.9,14.2,6.8,17.5c0.1,0.5,0.2,0.9,0.3,1.4c2.4,0.4,4.8,0.7,7.1,0.8c7,0.4,14-0.5,20.7-2.5
		c5-1.6,9.9-3.8,14.1-7C270.4,642.9,273.4,639.4,276.1,635.5z"/>
	<g>
		<path fill="#60423E" d="M238.7,929.8c-1.1,0.7-4.7,3-4.8,6c0,1.1,0.1,2.8,1.3,3.6c-0.6,2,1.9,4.2,2.5,4.4c1.5,0.5,1.4,0.4,3.5-0.5
			c-0.4,0.6,1.4,3,3.5,3.1c3.8,0.1,9.3-4.9,11.2-8.2c3.6-6.4,2.8-14.7,2.7-17.7c-0.1-2.6-2.7,4.6-4.3,2.6
			c-1.1-1.4-11.7-7.3-10.6-5.4C244.2,918.6,242.2,927.6,238.7,929.8z"/>
		<path fill="#382624" d="M241.2,943.3c0,0-1.2-2.7,0.4-4.8c1.7-2.1,2.8-2.9,2.8-2.9s-2.6,0.4-4.4,3c-1.8,2.7-0.6,5.4-0.6,5.4
			L241.2,943.3L241.2,943.3z"/>
		<path fill="#382624" d="M235.2,939.4c0,0,0.4-1.7,1.3-2.8c1.2-1.5,3.4-2.9,3.4-2.9s-1.8,0.7-3.2,1.7c-1.8,1.5-2.3,2.9-2.3,2.9
			s0.1,0.3,0.4,0.7C235.1,939.3,235.2,939.4,235.2,939.4L235.2,939.4z"/>
	</g>
	<path fill="#F2881D" d="M306.6,636.8c0,0,18.6-27.5,25.2-47.9c6.6-20.4,13.4-54.4,13.4-54.4s1.4,20.3-2.6,39.3
		c-4,19-18.2,70.2-18.4,71.2C324,645.9,306.6,636.8,306.6,636.8z"/>
	<path fill="#F2881D" d="M308.8,638.1c0,0,17.1,12.6,24.9,20.3c7.8,7.7,25.8,26.3,25.4,25.8s-10.8-16.2-16.5-22.8
		c-5.7-6.6-17.2-20.9-17.2-20.9L308.8,638.1z"/>
	<path fill="#F2881D" d="M190.4,754.8c-0.2-0.9,1.5-14.3,7.2-25.8c5.8-11.5,13.2-23.3,13.2-23.3l-3.4,16c0,0-6.2,12.9-9.1,21.4
		c-2.9,8.5-5.7,16.8-5.7,16.8L190.4,754.8z"/>
	<path fill="#60423E" d="M181.3,754.3c-1.7,2.8-1.8,6.3-1.9,9.6c-0.1,4.8-0.2,9.7-0.3,14.5c-0.1,4.8-0.1,9.9,2,14.3
		c2.1,4.4,7.1,7.8,11.7,6.4c3-0.9,5.4-4.3,4.1-7.1c1.1-0.7,0.7-2.5-0.3-3.2c-1.1-0.7-2.4-0.7-3.7-0.8c-1.3-0.1-2.7-0.3-3.5-1.3
		c-0.8-1-0.6-2.5-0.3-3.8c1.8-8.3,5.4-16.4,4.9-24.9C193.5,751.3,185.2,748,181.3,754.3z"/>
	<path fill="#F2881D" d="M207.4,721.7c0,0,0.1,10.1,2.3,21.4c2.1,11.1,9.1,28.7,9.1,28.7s-4.9-19.6-5.7-34.5
		c-0.9-15-2.2-31.5-2.2-31.5L207.4,721.7z"/>
	<path fill="#F7E9E2" d="M252.3,701c-4.5-7.9-6-17.3-5.6-26.3c-2.2,3.8-3.3,8.3-3.1,12.8c-3.5-1.7-7.1-5.4-10.6-6.4
		c0.2,3.4,5.9,8.6,8.3,11c1.7,1.7,3.5,3.4,5.4,4.9C248,698,251.5,699.6,252.3,701z"/>
	<path fill="#F7E9E2" d="M276.1,673.4c-4.5-7.9-6-17.3-5.6-26.3c-2.2,3.8-3.3,8.3-3.1,12.8c-3.5-1.7-7.1-5.4-10.6-6.4
		c0.2,3.4,5.9,8.6,8.3,11c1.7,1.7,3.5,3.4,5.4,4.9C271.8,670.4,275.2,671.9,276.1,673.4z"/>
	<path fill="#F7E9E2" d="M280.5,725.6c-4.5-7.9-6-17.3-5.6-26.3c-2.2,3.8-3.3,8.3-3.1,12.8c-3.5-1.7-7.1-5.4-10.6-6.4
		c0.2,3.4,5.9,8.6,8.3,11c1.7,1.7,3.5,3.4,5.4,4.9C276.2,722.7,279.7,724.2,280.5,725.6z"/>
	<path fill="#F7E9E2" d="M305.3,699.7c-4.5-7.9-6-17.3-5.6-26.3c-2.2,3.8-3.3,8.3-3.1,12.8c-3.5-1.7-7.1-5.4-10.6-6.4
		c0.2,3.4,5.9,8.6,8.3,11c1.7,1.7,3.5,3.4,5.4,4.9C301,696.7,304.5,698.2,305.3,699.7z"/>
	<path fill="#F7E9E2" d="M308.7,744.6c-3.7-6.5-4.9-14.1-4.6-21.6c-1.8,3.2-2.7,6.8-2.6,10.4c-2.9-1.4-5.8-4.4-8.7-5.2
		c0.1,2.8,4.8,7,6.8,9c1.4,1.4,2.9,2.8,4.4,4C305.2,742.2,308,743.4,308.7,744.6z"/>
	<path fill="#F7E9E2" d="M269.8,752.8c-3.7-6.5-4.9-14.1-4.6-21.6c-1.8,3.2-2.7,6.8-2.6,10.4c-2.9-1.4-5.8-4.4-8.7-5.2
		c0.1,2.8,4.8,7,6.8,9c1.4,1.4,2.9,2.8,4.4,4C266.3,750.3,269.2,751.6,269.8,752.8z"/>
	<path fill="#F7E9E2" d="M328.1,716.2c-3.7-6.5-4.9-14.1-4.6-21.6c-1.8,3.2-2.7,6.8-2.6,10.4c-2.9-1.4-5.8-4.4-8.7-5.2
		c0.1,2.8,4.8,7,6.8,9c1.4,1.4,2.9,2.8,4.4,4C324.6,713.7,327.5,715,328.1,716.2z"/>
	<path fill="#F2881D" d="M243,802.6c0.8,0.2,37.4,7.1,60,2c39.1-8.9,63.7-35,63.3-35c-1,0-33.5,23.9-62.9,29.6
		C274,804.9,243,802.6,243,802.6z"/>
	<path fill="#60423E" d="M9.5,554c-5.4-4.9-11.3-11.9-8.9-18.5c1.9-5.2,7.9-7.1,13.2-8.3c12.4-2.8,24.7-5.6,37.1-8.4
		c12.6-2.8,25.5-5.7,38.5-3.4c13,2.3,26.2,11,30.2,24c4.3,13.8-2.5,28-10.3,39.2c-4.4,6.3-9.3,12.2-14.5,17.8
		c-12.7,13.5-26.6,0.5-40-8.1C38.8,578.2,23.6,566.7,9.5,554z"/>
	<path fill="#FFA912" d="M56.5,583c-11.1-6.4-21.1-14.7-29.4-24.5c-3.2-3.7-6.3-8.8-4.3-13.3c0.8-1.8,2.3-3.1,3.8-4.4
		c12.8-10.3,26.3-14.1,42.8-13.4c10.8,0.5,17.3,8.4,21.8,9.1c5.8,1,6.4-7.7,9.6-2.8c3.2,4.9,4.3,11.2,2.9,16.9c-1,4-3,7.6-5.2,11.1
		c-4.3,7-8.8,13.9-13.6,20.6c-3,4.2,1.8,15.1-3.8,14C75.3,595.1,61.6,585.9,56.5,583z"/>
	<path fill="#FCD8BE" d="M79.9,578.9c1.8-7.9,4.6-15.6,8.3-22.8c1.9-3.6,3.9-7,5.2-10.8c1-3,1.5-6.2,0.9-9.2
		c-0.9,0.5-1.9,0.8-3.2,0.5c-4.5-0.8-11-8.6-21.8-9.1c-7.6-0.3-14.7,0.3-21.3,2.1c-2.6,2.1-5.2,4-7.3,6.9c-1.1,1.5-2.1,3.2-2.9,5
		c-0.5,1.1-1,4.8-1.8,5.4c2.1-1.7,4.6-2.9,7.2-3.5c-1.5,4.3-1.2,9.2,0.8,13.4c4.3-3.7,9.8-5.8,15.5-6.1c-1.6,2.7-3.2,5.4-4.8,8.1
		c1.6-0.5,3.2-1.1,4.8-1.6c-3.2,3.3-5.3,7.5-6.2,12c2.9-0.7,5.9-0.9,8.9-0.7c-1.4,2.1-2.2,4.6-2.3,7.2
		C66.7,573.8,74.2,575,79.9,578.9z"/>
	<path fill="#60423E" d="M209.6,376.6c-3.6-6.3-9.2-13.5-16.2-12.6c-5.5,0.7-8.6,6.2-10.9,11.2c-5.4,11.5-10.7,23-16.1,34.5
		c-5.4,11.7-11,23.7-11.5,36.9c-0.5,13.2,5.2,27.9,17.1,34.6c12.6,7.1,27.8,3.5,40.5-1.8c7.1-3,13.9-6.5,20.4-10.4
		c15.8-9.6,6.1-25.9,0.6-40.8C227,410.4,219,393.1,209.6,376.6z"/>
	<path fill="#FFA912" d="M227.9,428.6c-3.9-12.2-9.9-23.7-17.7-33.9c-3-3.9-7.3-8-12.1-7c-1.9,0.4-3.6,1.5-5.1,2.8
		c-12.8,10.3-19.4,22.7-22.1,39c-1.8,10.7,4.5,18.7,4.3,23.3c-0.3,5.9-8.8,4.6-4.7,8.8c4.1,4.2,10,6.6,15.9,6.4
		c4.1-0.1,8-1.4,11.9-2.7c7.8-2.7,15.4-5.7,23-9c4.7-2.1,14.4,5,14.4-0.7C235.8,449.6,229.7,434.2,227.9,428.6z"/>
	<path fill="#FCD8BE" d="M219,450.7c-8.1,0-16.2,1.2-24,3.3c-3.9,1.1-7.7,2.4-11.7,2.8c-3.1,0.4-6.4,0.1-9.2-1.1
		c0.7-0.7,1.2-1.7,1.2-3c0.2-4.6-6.1-12.6-4.3-23.3c1.3-7.5,3.4-14.3,6.6-20.3c2.6-2.1,5.1-4.2,8.3-5.6c1.8-0.8,3.6-1.4,5.5-1.8
		c1.1-0.2,4.9,0,5.7-0.6c-2.1,1.7-3.9,3.9-4.9,6.3c4.5-0.5,9.3,0.8,12.9,3.6c-4.5,3.4-7.8,8.4-9.2,13.8c3-1,5.9-2,8.9-3
		c-0.9,1.5-1.7,2.9-2.6,4.4c3.9-2.4,8.5-3.6,13.1-3.5c-1.3,2.7-2.1,5.6-2.6,8.5c2.4-0.9,5-1.2,7.5-0.8
		C216.8,436.7,216.4,444.3,219,450.7z"/>
	<path fill="#FCD8BE" d="M167.4,447.7c-29.2,13.6-50.2,34.4-50.2,34.4s-23.5,18.1-40.8,45.2C59,554.5,63.9,598,88.5,619.3
		c16.9,14.6,47.9,38.2,83.4,40.8c35.5,2.6,76.3-28.1,76.3-28.1s35.9-36.3,38-71.9c2.1-35.6-17.2-69.4-29.4-88.1
		C239.1,444.7,196.6,434.1,167.4,447.7z"/>
	<path fill="#FCD8BE" d="M115.4,671.9c4-2.6,8.1-5.2,12.1-7.8c1,5,1.5,10.1,1.4,15.3c4.8-3.3,9.3-7,13.6-11c2,4.1,2.1,9.1,0.2,13.2
		c27.2-7.5,53.1-19.4,76.5-35.1c4.2-2.8,8.7-6.3,9.4-11.4c0.7-4.5-2-8.9-5.7-11.5c-3.7-2.6-8.2-3.8-12.6-4.8
		c-23.2-5-47.1-5.6-70.8-6.2c-6.8-0.2-13.6-0.3-20.2,1.3c-4.5,1.1-13.4,4.5-14,10c-0.4,4.2,5.1,9,7,12.4c3,5.4,4.8,11.5,5.3,17.6
		C118,657.5,118.6,669.9,115.4,671.9z"/>
	<path fill="#FCD8BE" d="M306.1,503.9c-3.1,3.7-6.1,7.4-9.2,11.1c4.9,1.6,9.9,2.7,15,3.2c-3.9,4.3-8.1,8.4-12.5,12.1
		c3.8,2.5,8.8,3.2,13.1,1.8c-10.7,26.1-25.6,50.4-44,71.8c-3.3,3.8-7.3,7.9-12.4,8c-4.5,0.1-8.6-3.1-10.8-7c-2.2-3.9-2.8-8.6-3.2-13
		c-2.2-23.6,0.1-47.4,2.4-71c0.7-6.7,1.3-13.6,3.8-19.9c1.7-4.3,6-12.8,11.7-12.6c4.3,0.1,8.3,6.1,11.5,8.4c5,3.6,10.8,6.1,16.8,7.4
		C291.5,504.8,303.7,506.9,306.1,503.9z"/>
	<g>
		<path fill="#60423E" d="M114.5,599.1c2.3-6.8,5-11.4,10.4-16c5.4-4.6,12.4-7.7,19.5-7.4c6.5,0.3,12.5,3.4,18.3,6.4
			c3.2,1.7,6.5,3.4,9.4,5.5c0.5,0.4,1.1,0.9,1.1,1.5c0,0.4-0.2,0.7-0.4,1.1c-2,2.9-4.4,5.4-6.9,7.8c-9.2,8.7-20.4,16.3-33,17.1
			c-6.9,0.4-13.8-1.2-20.4-3.2c-1.7-0.5-3.3-1-5-1.6c-1.5-0.6-2.5-0.7-1.4-2.1C106.9,606.9,111.8,607,114.5,599.1z"/>
		<path fill="#FFFFFF" d="M119.2,597.4c0.5-5,4.9-10.9,7.5-12.9c18.9-15.3,40.1,1.2,42,5.8c1.1,2.7-8.3,11-10.1,12.5
			c-4.9,4-19.6,13.4-30,10C125.6,611.8,118.3,606.8,119.2,597.4z"/>
		<path fill="#EDEDED" d="M165.9,587.1c1.1,2.7-8.3,11-10.1,12.5c-4.9,4-19.6,13.4-30,10c-1-0.3-2.6-1.2-4.1-2.5
			c2.2,3.5,5.5,5.5,7.3,6.1c10.3,3.4,25.1-6,30-10c1.8-1.5,11.2-9.8,10.1-12.5c-0.4-0.9-1.5-2.3-3.3-3.9
			C165.8,586.9,165.8,587,165.9,587.1z"/>
		<g>
			<circle fill="#231F20" cx="151.7" cy="590" r="12.4"/>
			<path fill="#FFFFFF" d="M142.8,592.4c0.3,0.6,0.7,1.2,1.2,1.5c0.6,0.4,1.3,0.5,1.9,0.3c0.8-0.3,1.2-1.2,1.3-2.1
				c0.1-0.8,0-1.7,0.1-2.6c0.1-0.8,0.4-1.6,0.9-2.3c0.5-0.7,1.3-1.3,1.3-2.2c0.1-1-0.9-1.9-1.9-2
				C143.2,582.5,141.2,589.1,142.8,592.4z"/>
		</g>
	</g>
	<g>
		<path fill="#60423E" d="M235.1,496.9c-7,1.1-12.1,2.9-17.6,7.4c-5.5,4.5-9.8,10.9-10.7,17.9c-0.8,6.5,1.1,12.9,3.1,19.1
			c1.1,3.5,2.2,6.9,3.8,10.2c0.3,0.6,0.7,1.2,1.3,1.3c0.4,0.1,0.8-0.1,1.1-0.3c3.2-1.4,6.1-3.4,8.9-5.5
			c10.2-7.5,19.6-17.3,22.5-29.6c1.6-6.8,1.2-13.8,0.4-20.7c-0.2-1.7-0.4-3.5-0.7-5.2c-0.3-1.6-0.3-2.6-1.8-1.8
			C244.1,490.8,243.3,495.7,235.1,496.9z"/>
		<path fill="#FFFFFF" d="M232.6,501.2c-5-0.4-11.6,3-14,5.2c-18.3,16-5.8,39.7-1.5,42.4c2.4,1.5,12.2-6.3,14-7.8
			c4.8-4.2,16.6-17,15-27.8C245.6,510.1,242,502,232.6,501.2z"/>
		<path fill="#EDEDED" d="M214.4,545.5c2.4,1.5,12.2-6.3,14-7.8c4.8-4.2,16.6-17,15-27.8c-0.2-1.1-0.7-2.7-1.7-4.5
			c3.1,2.8,4.5,6.4,4.8,8.3c1.6,10.8-10.3,23.6-15,27.8c-1.8,1.5-11.6,9.4-14,7.8c-0.9-0.5-2-1.9-3.2-3.9
			C214.2,545.4,214.3,545.4,214.4,545.5z"/>
		<g>
			<circle fill="#231F20" cx="233.8" cy="514.6" r="12.4"/>
			<path fill="#FFFFFF" d="M237.7,506.2c0.5,0.4,1,0.9,1.3,1.5c0.3,0.6,0.3,1.4-0.1,1.9c-0.5,0.7-1.4,1-2.3,0.9
				c-0.9,0-1.7-0.3-2.5-0.3c-0.8,0-1.7,0.1-2.4,0.5c-0.8,0.4-1.5,1-2.4,0.9c-1-0.1-1.7-1.2-1.6-2.2
				C227.9,504.9,234.8,504.1,237.7,506.2z"/>
		</g>
	</g>
	<path fill="#EFC8AC" d="M119.7,573.9c23.5-13.1,55.1,0.7,67.3,6.1c1.9,0.8,4.5,1.6,5.8,0c-6.9-14.9-23.6-22.8-39.6-26.6
		c-6.5-1.5-13.2-2.6-19.9-1.9c-17.5,1.9-31.5,16.3-39,32.2c-2.3,4.9-4.4,35.9,0.8,20.9C99.5,592.4,108,580.5,119.7,573.9z"/>
	<path fill="#EFC8AC" d="M206.6,495.7c-16.7,21.2-8,54.5-4.7,67.4c0.5,2,0.9,4.7-1,5.7c-13.7-9.2-18.7-26.9-19.9-43.3
		c-0.5-6.7-0.5-13.5,1.3-19.9c4.7-17,21.1-28.5,38-33.3c5.2-1.5,36.2,1.4,20.5,4.2C228,478.6,214.9,485.1,206.6,495.7z"/>
	<path fill="#F7E9E2" d="M129.3,655.2c2.4-5.6,6.2-10.6,10.9-14.5c-2.8,6-4.6,12.5-5.3,19.1c4.4-7.9,10.4-17.3,18.6-21.2
		c-2.8,8-4.9,19.5-3.2,27.8c3.7-17.7,15.1-38.3,28.7-50.2c-1.5,1.3-25.4-2.6-41.8,19.5C132.5,642,129.3,650.1,129.3,655.2z"/>
	<path fill="#F7E9E2" d="M279.1,517.8c-5.6,2.4-10.6,6.2-14.4,10.9c6-2.9,12.5-4.7,19.1-5.4c-7.9,4.4-17.3,10.5-21.1,18.7
		c8-2.9,19.5-4.9,27.8-3.3c-17.7,3.8-38.2,15.2-50.1,28.9c1.3-1.5-2.7-25.4,19.3-41.8C265.9,521.1,274,517.8,279.1,517.8z"/>
	<path fill="#FFA912" d="M164.5,448.5c28.7-14.5,71.5-5.3,90.2,21.4c2.6,3.7,13.2,21.7,16.1,26.5c0,0-27.6-38.1-61.3-14.4
		c-21.4,15.1-24.9,31.3-18.7,50.1c5.5,16.8,30.2,48.6,30.2,48.6l-12.1,10.7l-93.5-106.9C115.4,484.5,135.7,463,164.5,448.5z"/>
	<path fill="#E08119" d="M212.8,461.7c1.9,0.3,4.1,1.3,4.1,3.2c0,1.8-2.1,2.9-3.9,3.3c-3.7,0.8-7.5,1-11.2,2.1
		c-3.5,1-6.7,2.9-10.2,3.9c-1.1,0.3-2.5,0.5-3.1-0.5c-0.2-0.3-0.2-0.7-0.2-1.1c0-1.9,1.1-3.7,2.6-5
		C196.7,462.4,205.2,460.4,212.8,461.7z"/>
	<path fill="#FFA912" d="M76.5,527.5c-17.4,27.1-12.5,70.6,12.2,91.9c3.4,2.9,20.2,15.3,24.7,18.7c0,0-35.1-31.4-8.1-62.4
		c17.2-19.7,33.6-21.6,51.8-13.5c16.2,7.2,45.3,34.9,45.3,34.9l13.7-12l-98.7-102.8C117.3,482.3,93.8,500.4,76.5,527.5z"/>
	<path fill="#E08119" d="M89.4,576.5c0.2,1.9,1.1,4.1,2.9,4.2c1.8,0.1,2.9-1.9,3.5-3.7c1.1-3.6,1.5-7.3,2.8-10.8
		c1.2-3.4,3.3-6.4,4.5-9.8c0.4-1,0.6-2.5-0.3-3.1c-0.3-0.2-0.7-0.3-1.1-0.3c-1.9-0.1-3.7,0.9-5.1,2.2
		C91.2,560.7,88.6,568.9,89.4,576.5z"/>
	<path fill="#FFB845" d="M89.4,522.9c-1,1.7-2,3.4-2.4,5.3c-0.3,1.9,0.2,4.1,1.7,5.3c1.9,1.4,4.7,0.9,6.6-0.6c1.9-1.5,3-3.6,4.2-5.7
		c4.1-7.1,9.5-13.5,15.7-18.9c5.6-4.8,12-8.9,15.9-15c2-3.2,3.1-7.8,0.3-10.3c-1.7-1.5-4.3-1.6-6.5-0.8c-2.1,0.8-3.9,2.4-5.6,3.9
		C107.5,496.6,97.7,509.2,89.4,522.9z"/>
	<path fill="#60423E" d="M330.5,530.3c5-12.2,8.4-24.9,10.2-37.7c0.4-2.6,1.6-6,4.6-5.9c1.9,0,3.3,1.5,4,3c1.8,3.3,1.8,7.1,1.8,10.8
		c-0.2,14.1-1.8,28.2-4.8,42.1c-0.5,2.1-1.1,4.5-3.3,5.7c-1.4,0.8-3.2,0.8-4.9,0.5C328.2,546.8,327.7,537,330.5,530.3z"/>
	<g>
		<path fill="#4C4446" d="M340.9,286.9c-1.5,20.7-2.7,41.5-3.5,62.2c-0.8,20.8-1.3,41.5-1.4,62.3c-0.1,10.3,0,20.7,0.1,31
			c0.1,10.4,0.2,20.8,1.1,31.1c0.8,10.1,3,20.1,2.9,30.3c-0.1,10.3-2.9,20.3-4.4,30.4c-2.8,19.2-2,38.9,2.4,57.8
			c0.5,2.4,1.1,4.7,1.8,7.1c0.3,1.1,2.1,0.6,1.7-0.5c-5.2-18.9-6.9-38.8-4.9-58.4c1-9.9,3.6-19.6,4.7-29.5
			c1.1-10.2-0.6-20.1-1.8-30.2c-1.2-10.2-1.5-20.5-1.7-30.7c-0.2-10.4-0.2-20.9-0.2-31.3c0-20.7,0.4-41.4,1.1-62
			c0.7-20.7,1.8-41.3,3.2-61.9c0.2-2.6,0.4-5.2,0.6-7.7C342.8,285.7,341,285.7,340.9,286.9L340.9,286.9z"/>
	</g>
	<g>
		<path fill="#4C4446" d="M405.1,260.6c-0.6,27.5-7.7,54.7-15.9,80.8c-8.4,26.6-18.7,52.6-28.8,78.6c-4.1,10.6-8.3,21.3-12,32.1
			c-2.7,7.8-5.3,15.7-6.5,23.8c-0.4,2.6-0.6,5.2-1.1,7.7c-0.8,4-2.1,7.8-3.6,11.6c-3,7.5-6.9,14.6-10.5,21.9
			c-3.5,7.2-6.4,14.5-8.2,22.3c-2.1,8.9-3.5,18-4.1,27.1c-1.3,18.3,0.6,36.6,5.6,54.2c4.9,17.3,12.2,34.7,12.1,53
			c0,4.5-0.6,8.9-1.7,13.3c-0.3,1.1,1.5,1.6,1.7,0.5c4.3-17.5-0.6-35.1-5.7-51.8c-2.7-8.8-5.6-17.5-7.5-26.5
			c-1.9-9.2-3-18.5-3.2-27.9c-0.2-9.4,0.4-18.8,1.8-28.1c1.3-8.7,3.1-17.5,6.3-25.7c5.8-14.8,15.6-28.2,18.7-44.1
			c0.8-4.2,1.1-8.4,2-12.6c0.9-4,2.1-8,3.3-12c3.3-10.3,7.1-20.4,11-30.4c9.9-25.7,20.2-51.2,28.9-77.3
			c8.8-26.3,16.5-53.5,18.6-81.3c0.2-3.1,0.4-6.2,0.5-9.2C406.9,259.5,405.1,259.5,405.1,260.6L405.1,260.6z"/>
	</g>
	<g>
		<path fill="#75D9EF" d="M436.7,225.8c-3.4,2.5-42-108.2-42.1-144.5c0-36.3,31.2-88.1,89.9-80.6c64.7,8.2,72.8,65,63.5,93.7
			C531.5,145.3,436.7,225.8,436.7,225.8z"/>
		<path fill="#6BC7D6" d="M511.6,24.2c12.6,17.4,14.9,41.4,11.2,56C512,123,441.1,203.6,442,203c0,0,79.4-67.5,93.3-110.2
			C541.4,74.1,538.6,41.2,511.6,24.2z"/>
		<path opacity="0.38" fill="#FFFFFF" d="M436.6,20c-8.7,6.2-15.2,16.2-15,26.8c0.1,5.5,2.3,11.4,7.3,13.7
			c5.6,2.7,12.4-0.2,16.7-4.7c4.3-4.4,7-10.2,10.7-15.1c3.9-5.1,8.9-9.2,14.6-12.1c4.1-2,9.1-4.1,10-8.5
			C485.2-1.1,442.6,15.7,436.6,20z"/>
		<path opacity="0.38" fill="#FFFFFF" d="M409.6,85.8c1,4.1,2.8,8.6,6.7,10.3c5.1,2.2,11-1.6,13.9-6.3c2.7-4.4,3.8-10,1.8-14.8
			C425,57.1,406.1,70.3,409.6,85.8z"/>
		<polygon fill="#75D9EF" points="435,218.8 428.4,233.5 443.9,237.3 442,218.8 		"/>
	</g>
	<g>
		<path fill="#F297B5" d="M341.8,290.4c-2.2,3.6-80.2-83.9-94.1-117.5c-13.9-33.5-4.9-93.3,52.3-108.8
			c62.9-17.1,92.2,32.3,94.5,62.3C398.6,179.8,341.8,290.4,341.8,290.4z"/>
		<path fill="#D687A5" d="M333.9,75.5c18.3,11.3,29.6,32.6,31.8,47.4c6.3,43.7-28.3,145.3-27.7,144.4c0,0,47.6-92.7,44.2-137.5
			C380.6,110.2,365.4,80.9,333.9,75.5z"/>
		<path opacity="0.38" fill="#FFFFFF" d="M263,100.3c-5.6,9-7.8,20.7-3.6,30.5c2.2,5,6.5,9.6,12,9.9c6.2,0.3,11.3-5,13.6-10.7
			c2.3-5.7,2.6-12,4.1-18c1.6-6.2,4.7-11.9,8.9-16.8c3-3.4,6.8-7.2,6-11.7C299.8,62.2,266.9,94,263,100.3z"/>
		<path opacity="0.38" fill="#FFFFFF" d="M263.2,171.3c2.5,3.5,5.9,6.9,10.1,7c5.6,0.1,9.6-5.7,10.4-11.2c0.8-5.1-0.4-10.7-4-14.4
			C266.4,139.1,254,158.4,263.2,171.3z"/>
		<polygon fill="#F297B5" points="337.5,284.6 337,300.7 352.8,298.3 344,281.9 		"/>
	</g>
	<g>
		<path fill="#A9D84C" d="M380.7,345c-3.4,2.5-43.6-107.6-44.2-143.9c-0.6-36.3,29.9-88.5,88.7-81.9c64.8,7.3,73.8,64,64.9,92.7
			C474.2,263.1,380.7,345,380.7,345z"/>
		<path fill="#9CBF45" d="M452.6,142.3c12.8,17.3,15.5,41.2,12,55.8c-10.2,42.9-79.8,124.6-79,124c0,0,78.5-68.6,91.7-111.5
			C483.2,191.8,479.9,158.9,452.6,142.3z"/>
		<path opacity="0.38" fill="#FFFFFF" d="M377.6,139.2c-8.6,6.3-14.9,16.4-14.6,27c0.2,5.5,2.5,11.4,7.5,13.6
			c5.6,2.6,12.4-0.4,16.6-4.9c4.2-4.5,6.8-10.3,10.5-15.2c3.8-5.1,8.8-9.4,14.5-12.3c4-2.1,9-4.2,9.9-8.7
			C425.8,117.4,383.5,134.8,377.6,139.2z"/>
		<path opacity="0.38" fill="#FFFFFF" d="M351.6,205.3c1,4.1,2.9,8.5,6.8,10.2c5.1,2.1,11-1.7,13.8-6.5c2.6-4.5,3.6-10.1,1.6-14.9
			C366.5,176.5,347.8,189.9,351.6,205.3z"/>
		<polygon fill="#A9D84C" points="378.8,338 372.5,352.8 388.1,356.3 385.9,337.9 		"/>
	</g>
	<g>
		<path fill="#4C4446" d="M335.2,288.7c3.9-2.5,8.3-4.2,12.9-4.8c0.5-0.1,0.7-0.7,0.6-1.1c-0.1-0.5-0.6-0.7-1.1-0.6
			c-4.8,0.7-9.3,2.4-13.4,5C333.3,287.8,334.2,289.4,335.2,288.7L335.2,288.7z"/>
	</g>
	<g>
		<path fill="#4C4446" d="M337.3,290c3.8-0.9,7.7-1.9,11.5-2.8c1.1-0.3,0.7-2-0.5-1.7c-3.8,0.9-7.7,1.9-11.5,2.8
			C335.7,288.5,336.2,290.3,337.3,290L337.3,290z"/>
	</g>
	<path fill="#875D59" d="M350.3,494c-0.7-3.7-2-7.3-4.3-10.2c-2.3-2.9-5.8-5.1-9.5-5.1c-2.1,0-4.3,0.6-5.7,2.2
		c-1.3,1.4-1.8,3.5-1.3,5.4c0.5,1.9,1.9,3.5,3.6,4.2c-1.6,1.8-0.8,5.2,1.5,6c-1.1,0.6-1.4,2.2-0.8,3.4c0.6,1.1,1.8,1.8,3.1,2.1
		c1.3,0.3,2.5,0.3,3.8,0.3c4,0.3,8.3,2,10,5.7c0.9-6.1,0.4-12.5-1.4-18.4L350.3,494z"/>
	<path fill="#F2881D" d="M395.1,815.1c-5-2.4-7.8-8-8.8-13.4c-1-5.5-1.4-24.9-1.6-28.7c-0.9-11.1-9.3-23-15.6-16
		c-4.3,4.9-7,10.2-15.8,18.8c-2.3,2.2-10.5,8.1-12.7,10.5c-1.8,1.9-4.6,2.4-5.8,4.8c-0.1,0.2-0.2,0.4-0.3,0.6c1.1,0.2,2.3,0,3.3-0.5
		c6.4-3.4,19.2-17.4,26.5-19.1c8.1-1.9,16.2,5.6,17.8,19.7c1,9.1,3.2,18.2,10.2,24.2c1.5,1.3,3.4,2.3,5.4,2.2c0-0.1,0.1-0.1,0.1-0.2
		C398.2,816.6,396.4,815.7,395.1,815.1z"/>
	<path fill="#60423E" d="M185.3,632.5c0,0,26,12,53.6-7.8c28.1-20.1,16-49.6,16-49.6s-10.3,18.3-27.6,31.4
		C209.7,619.9,185.3,632.5,185.3,632.5z"/>
	<path fill="#D86964" d="M238.6,624.8c8-5.7,12.7-12.2,15.4-18.6c-0.4-0.4-0.8-0.7-1.3-1c-2.4-1.5-5.5-1.8-8.4-1.5
		c-2.8,0.3-5.6,1.1-7.8,2.8c-2.2,1.7-3.9,4.3-3.9,7.1c-5.5-0.2-10.9,3-13.5,7.9c-2.4,4.7-2.2,9.2-0.4,12.8
		C225,632.7,231.7,629.7,238.6,624.8z"/>
	<path fill="#60423E" d="M218.6,564.2c-2.1-1.4-4.8-1.6-7.3-1c-2.5,0.6-4.7,1.9-6.7,3.3c-2.3,1.6-10.7,9-12.6,11
		c-1.7,1.8-3.3,3.9-4.2,6.2c-0.9,2.4-1,5.1,0,7.3c1.1,2.3,3.5,4,6,3.7c1.2-0.1,2.4-0.7,3.6-1c1.6-0.4,3.2-0.5,4.8-0.2
		c1.9,0.3,3.7,1.2,5.7,1.4c2.9,0.3,5.8-0.9,8.2-2.6c2-2.2,3.6-4.9,3.7-7.8c0.1-1.9-0.5-3.8-0.6-5.8c-0.1-1.6,0.2-3.3,0.9-4.8
		c0.5-1.1,1.2-2.2,1.5-3.4C222.1,568.2,220.7,565.5,218.6,564.2z"/>
	<path fill="#FFFFFF" d="M191.4,586.1c0.3,1.3,1.7,2.4,3,2.1c0.8-0.2,1.5-1,1.8-1.7c0.4-0.8,0.5-1.7,0.8-2.5
		c0.9-2.5,2.8-4.5,4.8-6.3c0.5-0.5,1.1-1,1.4-1.7c0.3-0.7,0.2-1.6-0.3-2c-1.9-1.5-6.2,2.5-7.5,3.8
		C193.4,579.7,190.6,583.2,191.4,586.1z"/>
</g>
</svg>
