<?xml version="1.0" encoding="utf-8"?>
<!-- Generator: Adobe Illustrator 17.1.0, SVG Export Plug-In . SVG Version: 6.00 Build 0)  -->
<!DOCTYPE svg PUBLIC "-//W3C//DTD SVG 1.1//EN" "http://www.w3.org/Graphics/SVG/1.1/DTD/svg11.dtd">
<svg version="1.1" id="Layer_1" xmlns="http://www.w3.org/2000/svg" xmlns:xlink="http://www.w3.org/1999/xlink" x="0px" y="0px"
	 width="424.7px" height="577.9px" viewBox="0 0 424.7 577.9" enable-background="new 0 0 424.7 577.9" xml:space="preserve">
<g>
	<path fill="#FFA912" d="M378.2,417c3.7,6.7,6,14.6,4.2,22.1c-1.8,7.5-8.4,14-16.1,13.9c-5.2-0.1-10.1-3.2-13.3-7.3
		s-5.1-9.2-6.5-14.2c-2.1-7.7-10-38.1,1.4-41.4c5.7-1.7,12.3,6.1,16,9.5C369.4,404.7,374.5,410.4,378.2,417z"/>
	<path fill="#F2881D" d="M137.7,462.9c-23.7,5-45.1,17.3-68.1,24.8c-23,7.5-50.2,9.4-69.6-5c1.7,14.8,12.1,27,23.4,36.6
		c41.1,34.8,99.1,45.6,152.2,36.5c16.6-2.8,33.3-7.7,46.6-18c10.5-8.2,18.7-20.4,20.3-33.7c1.7-13.9-12.3-21.1-23.1-27.4
		C195.1,462.6,165.5,457.1,137.7,462.9z"/>
	<path fill="#E27B1E" d="M20.8,491.9c0.9,0.8,1.9,1.7,2.8,2.5c41.1,34.8,99.1,45.6,152.2,36.5c16.6-2.8,33.3-7.7,46.6-18
		c7.1-5.5,13.2-12.9,16.9-21.3c2.5,3.5,3.9,7.6,3.3,12.5c-1.6,13.4-9.8,25.6-20.3,33.7c-13.3,10.3-30,15.2-46.6,18
		c-53.1,9-111.1-1.7-152.2-36.5C12.1,509.7,1.7,497.4,0,482.7C6.3,487.3,13.3,490.3,20.8,491.9z"/>
	<path fill="#FCD8BE" d="M23.4,519.3C12.1,509.7,1.7,497.4,0,482.7c19.4,14.4,46.6,12.5,69.6,5c5.1-1.7,10.1-3.6,15.1-5.6
		c0.9,0.7,1.7,1.6,2.4,2.9c3.2,5.6,0.3,11.9,2.2,17.8c1.7,5.4,6.9,8.7,9.9,13.5c2.7,4.2,3.4,9.6,2.1,14.4c-1,3.5-3.1,6.7-3.6,10.3
		c-0.7,4.5,1,9.2,1.2,13.8C71.2,549.2,45,537.6,23.4,519.3z"/>
	<path fill="#EFC8AC" d="M0,482.8c0.4,0.3,0.8,0.6,1.2,0.8c0,0,0,0,0,0c0.4,0.3,0.7,0.5,1.1,0.8c0,0,0.1,0,0.1,0.1
		c1.2,0.8,2.4,1.5,3.6,2.2c0,0,0,0,0,0c4.6,2.5,9.5,4.2,14.7,5.3c0.9,0.8,1.9,1.7,2.8,2.5c22.2,18.8,49.2,30.5,77.8,36
		c0,0.1-0.1,0.2-0.1,0.4c-1,3.5-3.1,6.7-3.6,10.3c-0.7,4.5,1,9.2,1.2,13.8c-0.1,0-16.9,1.3-60.4-23.1C14.6,518.4,1.7,497.5,0,482.8z
		"/>
	<path fill="#FFA912" d="M370.2,474.7c8.4,1.5,11.8,24.9,10.2,33.3c-9.1,47.8-4.9,37.8-20.2,50.7c-4,3.4-8.1,7.1-13.1,8.5
		c-4,1.1-3,0-11.2-7.7c-15.1-14.1-43.2-0.7-43.3-3.6c-0.1-9.9,6.9-23.3,13.8-30.5C323.4,507.9,346,470.3,370.2,474.7z"/>
	<path fill="#FFA912" d="M163.5,479.8c-8.3,2-10.5,25.5-8.5,33.8c11.6,47.2,6.9,37.5,22.8,49.6c4.2,3.2,8.4,6.7,13.6,7.8
		c4.1,0.9,3-0.1,10.8-8.3c14.3-14.9,43.1-2.9,43-5.9c-0.4-9.9-8.1-22.9-15.4-29.7C212,510.5,187.5,474.1,163.5,479.8z"/>
	<path fill="#FFA912" d="M193,430c-18.5,4.4-25.6,7.8-36.6,14.4c-6.1,3.6-12.3,7.2-18.4,10.8c-1.7-3.5-3.4-7-5-10.5
		c8.9-10.7,18.5-20.9,28.5-30.6c10.1-9.7,21.1-19,34.3-23.7c7.3-2.6,15.3-3.7,22.8-1.8c7.5,1.9,14.4,7.1,17,14.3
		C246.3,431.9,212.2,425.4,193,430z"/>
	<path fill="#FFA912" d="M314.8,391.1c-8.8-24.3-9.5-38.8-9.5-38.8l-44.4,15.3l-44.4-15.3c0,0-0.7,14.5-9.5,38.8
		c-8.8,24.3-41.1,89.6-26.6,130.4c6.1,17.3,45.9,37.1,83.1,38.6c41.7,1.7,71.7-16.1,77.7-34.7C354.5,484.1,323.6,415.4,314.8,391.1z
		"/>
	<path fill="#F2881D" d="M273.6,397.8c9.9-2.2,18.4-8.6,26.1-15.2c3.6-3.1,7.4-6.6,8.4-11.3c0.1-0.6,0.2-1.2,0.2-1.8
		c-0.6-2.4-1.1-4.7-1.5-6.6c-1.9-3.7-5.2-6.7-9-8.5c-0.1-0.1-0.3-0.1-0.4-0.2l-36.7,12.6l-37-12.7c-2.7,1.1-5.9,2.6-8.3,4.7
		c-0.4,2.7-7.6,28.1-8.5,32.2c2.1,4.3,18.8,8.8,24.3,11.7c6.2,3.3,19.6-5.4,26.5-4.5C263.1,399,268.4,399,273.6,397.8z"/>
	<path fill="#FCD8BE" d="M221.4,420.2c-4.1,11.9-7,24.1-8.8,36.5c-2.2,15.5-1.9,33.3,9.2,44.3c8.5,8.5,21.3,10.7,33.3,11.8
		c9.6,0.9,19.4,1.2,28.8-0.9c9.4-2.1,18.5-6.9,24.2-14.7c8.5-11.6,8-27.7,3.5-41.4c-4.5-13.7-12.3-26-17.8-39.2
		c-4.6-11.1-7.6-22.9-8.7-34.9c-0.3-2.9,0.4-14.8-2-16.5c-1.6-1.1-46.3-5.4-49.7,2.8c-1.2,3-0.6,15.4-1.2,18.7
		c-0.7,3.8-1.7,7.4-2.8,11.1C226.9,405.4,223.9,412.8,221.4,420.2z"/>
	<path fill="#EFC8AC" d="M286.5,392.4c-0.7-3.5-1.2-7.1-1.5-10.7c-0.3-2.9,0.7-15.2-1.7-16.9c-0.5-0.4-7.1-0.7-14-1.2l-9.5,3.3
		l-10.7-3.7c-8.5,0.4-15.6,1.7-16.8,4.7c-1.2,3-0.6,15.4-1.2,18.7c-0.1,0.5-2.8,14-2.9,14.5C230.8,403,273.1,404.5,286.5,392.4z"/>
	<path fill="#F2881D" d="M141.3,448.7c0.5-0.8,10.9-9,22.4-14.8c22.6-11.5,37.1-11.5,37.1-11.5l-8.5,7.5l-16.4,4.9
		c0,0-13.1,5.7-20.8,10.3c-7.7,4.5-15.2,9-15.2,9L141.3,448.7z"/>
	<path fill="#60423E" d="M89.8,222.3c-4.4-5.8-8.9-13.7-5.4-19.8c2.8-4.8,9.1-5.5,14.5-5.7c12.7-0.5,25.3-1,38-1.4
		c12.9-0.5,26.1-0.9,38.5,3.7c12.3,4.6,23.7,15.6,25.3,29.2c1.7,14.4-7.5,27-17.4,36.6c-5.5,5.4-11.4,10.3-17.5,14.8
		c-14.9,10.9-26.2-4.4-37.8-15.3C114.2,251.4,101.4,237.4,89.8,222.3z"/>
	<path fill="#FFA912" d="M130.7,259.4c-9.7-8.3-18-18.3-24.4-29.4c-2.4-4.3-4.6-9.8-1.8-13.9c1.1-1.6,2.8-2.7,4.5-3.6
		c14.5-7.8,28.5-9,44.5-5.3c10.5,2.5,15.5,11.4,19.8,13c5.5,2,7.7-6.4,9.9-1c2.3,5.4,2.2,11.8-0.2,17.1c-1.7,3.7-4.4,6.9-7.1,9.9
		c-5.5,6.1-11.2,12-17.2,17.7c-3.8,3.6-1,15.2-6.3,13C146.9,274.8,135.1,263.2,130.7,259.4z"/>
	<path fill="#FCD8BE" d="M154.5,259.7c3.2-7.4,7.3-14.5,12.3-20.8c2.5-3.2,5.2-6.2,7.1-9.7c1.5-2.7,2.6-5.8,2.6-8.9
		c-0.9,0.3-2,0.4-3.3-0.1c-4.3-1.6-9.2-10.5-19.8-13c-7.4-1.7-14.5-2.4-21.3-1.8c-3,1.6-5.9,3-8.4,5.4c-1.4,1.3-2.6,2.8-3.7,4.3
		c-0.7,1-1.9,4.6-2.7,5c2.4-1.3,5.1-2.1,7.8-2.1c-2.3,4-2.9,8.9-1.7,13.3c4.9-2.8,10.7-3.9,16.3-3.1c-2.1,2.3-4.1,4.7-6.2,7
		c1.7-0.2,3.4-0.5,5-0.7c-3.7,2.7-6.6,6.4-8.3,10.7c3-0.1,6,0.2,8.9,1c-1.8,1.8-3,4.2-3.6,6.6C142.4,252.2,149.6,254.8,154.5,259.7z
		"/>
	<path fill="#60423E" d="M397.6,195.1c3.1-6.6,5.7-15.4,0.9-20.5c-3.8-4.1-10-3.4-15.4-2.4c-12.5,2.3-24.9,4.6-37.4,6.9
		c-12.7,2.3-25.7,4.8-36.7,12c-11,7.2-19.7,20.4-18.3,34c1.5,14.4,13.3,24.7,24.9,31.9c6.5,4,13.3,7.6,20.3,10.6
		c17,7.4,24.6-10,33.6-23.2C380.1,228.8,389.5,212.3,397.6,195.1z"/>
	<path fill="#FFA912" d="M365.8,240.2c7.7-10.2,13.6-21.8,17.4-34.1c1.5-4.7,2.3-10.6-1.3-13.9c-1.4-1.3-3.3-2-5.2-2.5
		c-15.8-4.4-29.8-2.6-44.6,4.6c-9.7,4.7-12.6,14.5-16.5,17c-4.9,3.2-8.9-4.5-9.9,1.2c-1,5.8,0.4,12,4,16.6c2.5,3.3,5.8,5.8,9.1,8.1
		c6.7,4.8,13.6,9.3,20.6,13.5c4.4,2.7,4.3,14.6,9,11.3C353.3,258.8,362.3,244.9,365.8,240.2z"/>
	<path fill="#FCD8BE" d="M342.6,245.7c-4.7-6.6-10.3-12.5-16.6-17.7c-3.1-2.5-6.4-4.9-9.1-7.9c-2.1-2.3-3.8-5.1-4.5-8.1
		c1,0.1,2.1,0,3.2-0.8c3.9-2.5,6.7-12.3,16.5-17c6.9-3.3,13.6-5.5,20.4-6.4c3.3,0.9,6.4,1.7,9.4,3.5c1.6,1,3.2,2.1,4.6,3.4
		c0.9,0.8,2.8,4,3.8,4.3c-2.6-0.8-5.4-0.9-8-0.4c3.1,3.4,4.8,8,4.5,12.6c-5.4-1.7-11.3-1.5-16.6,0.5c2.5,1.8,5,3.7,7.6,5.5
		c-1.7,0.1-3.4,0.3-5.1,0.4c4.2,1.8,7.9,4.8,10.4,8.6c-2.9,0.5-5.8,1.5-8.4,2.9c2.1,1.4,3.9,3.4,5,5.7
		C352.8,235.8,346.4,239.9,342.6,245.7z"/>
	<path fill="#FCD8BE" d="M296.5,184.3c-31.8-5.1-60.9,0.4-60.9,0.4s-29.6,1.8-59.1,14.5c-29.6,12.7-50,51.5-41.5,82.9
		c5.8,21.5,18.2,58.5,46.2,80.6c27.9,22.1,78.9,19.5,78.9,19.5s50.1-9.9,71.8-38.2c21.7-28.3,24.7-67.1,25.1-89.4
		C357.5,222,328.2,189.4,296.5,184.3z"/>
	<path fill="#FCD8BE" d="M127.6,340.7c4.8,0.1,9.6,0.2,14.4,0.4c-2,4.7-4.5,9.2-7.4,13.4c5.8-0.1,11.6-0.6,17.4-1.5
		c-0.6,4.5-3.3,8.7-7.2,11.1c26.7,9,54.9,13.7,83,13.9c5.1,0,10.8-0.4,14.2-4.1c3-3.3,3.3-8.5,1.8-12.7c-1.5-4.2-4.6-7.7-7.7-11
		c-16.4-17.2-35.8-31-55.2-44.8c-5.5-3.9-11.1-7.9-17.5-10.2c-4.4-1.6-13.6-3.8-17.2,0.5c-2.7,3.3-0.8,10.3-1.2,14.2
		c-0.5,6.2-2.4,12.2-5.5,17.6C137.9,330.2,131.5,340.8,127.6,340.7z"/>
	<path fill="#FCD8BE" d="M379.8,308.6c-4.6,1.3-9.2,2.7-13.8,4c3.1,4.1,6.7,7.8,10.6,11.1c-5.6,1.4-11.4,2.4-17.2,3
		c1.7,4.2,5.5,7.6,9.8,8.8c-23.5,15.6-49.5,27.4-76.7,34.7c-4.9,1.3-10.5,2.4-14.8-0.3c-3.8-2.4-5.4-7.4-5-11.9
		c0.4-4.5,2.5-8.6,4.6-12.6c11.4-20.8,26.7-39.2,41.8-57.5c4.3-5.2,8.7-10.5,14.3-14.4c3.8-2.7,12.2-7.2,16.7-3.9
		c3.5,2.5,3.5,9.7,4.8,13.4c2.1,5.8,5.5,11.1,9.8,15.6C367.2,301.1,376.1,309.7,379.8,308.6z"/>
	<path fill="#EFC8AC" d="M186.2,262c26.8,2.4,45.2,31.5,52.3,42.8c1.1,1.8,2.8,3.8,4.8,3.2c2.7-16.2-6.8-32.1-17.9-44.2
		c-4.5-4.9-9.5-9.6-15.4-12.7c-15.6-8.2-35.2-4.2-50.3,4.8c-4.6,2.8-23.8,27.3-11,17.8C159.1,265.9,172.8,260.9,186.2,262z"/>
	<path fill="#EFC8AC" d="M302,245.9c-25.7,8.2-37.2,40.6-41.6,53.2c-0.7,2-1.9,4.4-4,4.2c-6.2-15.3-0.4-32.8,7.8-47
		c3.3-5.8,7.2-11.4,12.2-15.8c13.4-11.4,33.4-11.8,50.2-6.3c5.1,1.7,29.2,21.4,14.6,14.9C329.3,243.8,314.9,241.8,302,245.9z"/>
	<path fill="#F7E9E2" d="M360.6,298.6c-6.4-2.4-13.5-3.3-20.4-2.8c7.1,2.3,13.7,5.7,19.5,10c-9.9-2.6-22.3-5.2-32.1-2.3
		c8.7,3.8,19.4,10.6,24.5,17.8c-17-10.2-42.7-17-63.4-16.1c2.3-0.1,19.1-19.6,50.1-15C347.5,291.4,356.6,295,360.6,298.6z"/>
	<path fill="#FFA912" d="M293.6,183.2c31.9,4.1,62.2,35.8,62.7,68.3c0.1,4.5-1.2,25.3-1.5,31c0,0-1.5-47.1-42.7-46.3
		c-26.1,0.5-38.2,11.9-43.6,31c-4.9,17.1-2.6,51.1-2.6,51.1l-15.7,8.1l-17.5-140.9C232.8,185.5,261.7,179.1,293.6,183.2z"/>
	<path fill="#E08119" d="M320.4,219.5c1.3,1.4,2.5,3.5,1.4,5.1c-1.1,1.5-3.4,1-5.1,0.3c-3.5-1.5-6.7-3.6-10.2-4.9
		c-3.4-1.2-7.1-1.6-10.5-2.9c-1.1-0.4-2.3-1.1-2.2-2.3c0-0.4,0.2-0.7,0.5-1.1c1.2-1.5,3.1-2.3,5-2.5
		C307,210.5,315,213.9,320.4,219.5z"/>
	<path fill="#FFA912" d="M176.5,199.3c-29.6,12.7-50,51.5-41.5,82.9c1.2,4.3,8.2,24,10,29.4c0,0-11.5-45.7,28.3-56.2
		c25.3-6.7,40,1,50.4,17.8c9.4,15.1,16.5,48.4,16.5,48.4l19.4,3.6l-24-140.4C235.6,184.8,206,186.6,176.5,199.3z"/>
	<path fill="#E08119" d="M161.7,244c-0.8,1.7-1.4,4,0.1,5.2c1.5,1.1,3.5,0,4.9-1.2c2.8-2.4,5.2-5.4,8.2-7.6c2.9-2.1,6.2-3.6,9.1-5.7
		c0.9-0.7,1.8-1.7,1.4-2.8c-0.1-0.4-0.4-0.6-0.8-0.9c-1.5-1.1-3.6-1.3-5.5-0.9C171.7,231.7,165.1,237.2,161.7,244z"/>
	<path fill="#FFB845" d="M189.8,202.7c-1.8,0.8-3.6,1.7-4.9,3.1c-1.4,1.4-2.2,3.5-1.5,5.3c0.8,2.2,3.4,3.4,5.8,3.2
		c2.4-0.2,4.5-1.3,6.7-2.4c7.4-3.6,15.4-5.9,23.6-6.8c7.3-0.8,14.9-0.6,21.6-3.5c3.4-1.5,7-4.7,6-8.3c-0.6-2.2-2.7-3.8-4.9-4.3
		c-2.2-0.5-4.6-0.2-6.8,0.1C219.4,191.1,204.3,196.1,189.8,202.7z"/>
	<path fill="#F7E9E2" d="M237,441.9c-0.7-9.1,1.8-18.2,6-26.3c-3.6,2.6-6.5,6.2-8.2,10.3c-2.5-3-4.2-7.9-6.9-10.3
		c-1.3,3.2,1.7,10.2,2.9,13.5c0.8,2.3,1.8,4.5,2.8,6.7C234.3,437.4,236.8,440.2,237,441.9z"/>
	<path fill="#F7E9E2" d="M270.1,426.8c-0.7-9.1,1.8-18.2,6-26.3c-3.6,2.6-6.5,6.2-8.2,10.3c-2.5-3-4.2-7.9-6.9-10.3
		c-1.3,3.2,1.7,10.2,2.9,13.5c0.8,2.3,1.8,4.5,2.8,6.7C267.5,422.3,270,425.1,270.1,426.8z"/>
	<path fill="#F7E9E2" d="M252.2,476.1c-0.7-9.1,1.8-18.2,6-26.3c-3.6,2.6-6.5,6.2-8.2,10.3c-2.5-3-4.2-7.9-6.9-10.3
		c-1.3,3.2,1.7,10.2,2.9,13.5c0.8,2.3,1.8,4.5,2.8,6.7C249.5,471.6,252,474.4,252.2,476.1z"/>
	<path fill="#F7E9E2" d="M285.6,462.9c-0.7-9.1,1.8-18.2,6-26.3c-3.6,2.6-6.5,6.2-8.2,10.3c-2.5-3-4.2-7.9-6.9-10.3
		c-1.3,3.2,1.7,10.2,2.9,13.5c0.8,2.3,1.8,4.5,2.8,6.7C282.9,458.4,285.4,461.3,285.6,462.9z"/>
	<path fill="#F7E9E2" d="M269.8,505.1c-0.6-7.4,1.5-14.9,4.9-21.5c-3,2.1-5.3,5-6.7,8.4c-2.1-2.5-3.5-6.4-5.7-8.4
		c-1.1,2.6,1.4,8.4,2.4,11.1c0.7,1.9,1.5,3.7,2.3,5.5C267.6,501.4,269.7,503.8,269.8,505.1z"/>
	<path fill="#F7E9E2" d="M231.1,496.2c-0.6-7.4,1.5-14.9,4.9-21.5c-3,2.1-5.3,5-6.7,8.4c-2.1-2.5-3.5-6.4-5.7-8.4
		c-1.1,2.6,1.4,8.4,2.4,11.1c0.7,1.9,1.5,3.7,2.3,5.5C228.9,492.5,231,494.9,231.1,496.2z"/>
	<path fill="#F7E9E2" d="M299.4,487.5c-0.6-7.4,1.5-14.9,4.9-21.5c-3,2.1-5.3,5-6.7,8.4c-2.1-2.5-3.5-6.4-5.7-8.4
		c-1.1,2.6,1.4,8.4,2.4,11.1c0.7,1.9,1.5,3.7,2.3,5.5C297.2,483.8,299.3,486.2,299.4,487.5z"/>
	<path fill="#F2881D" d="M206.7,546.3c0.7,0.4,34.9,15.3,58.1,15.3c40.1,0,61.2-17.3,60.8-17.1c-0.4,0.3-29.3,12.8-59.2,11.9
		C236.4,555.5,206.7,546.3,206.7,546.3z"/>
	<path fill="#60423E" d="M126.7,506.6c-7.2-6.3-19.1-10.6-17-19.8c1.7-3.8,6.2-3.6,8.1-3.7c-1.2-2.5-2.7-6.4,1-8.7
		c3.5-2.1,6.7,0.1,8.6,2.1c-0.1-1.7-0.3-6.7,3.8-7.7c6.6-2.5,11.3,10.2,12.9,13.9c10.6,23.7,28.5,43.2,44.3,63.8
		c5.3,6.9,13.9,21.1,3.6,27.8c-7.4,4.8-17.4-1.3-22.2-7c-7.9-9.4-11.6-22.7-18.5-32.9C144.3,524.2,136.1,514.8,126.7,506.6z"/>
	<path fill="#60423E" d="M408.3,499.7c6.8-6.6,18.5-11.6,16-20.7c-1.9-3.7-6.3-3.2-8.3-3.2c1.1-2.6,2.4-6.5-1.4-8.6
		c-3.6-2-6.7,0.4-8.5,2.6c0-1.7,0-6.7-4.2-7.5c-6.7-2.2-10.7,10.8-12.1,14.5c-9.4,24.2-26.2,44.6-40.9,66c-4.9,7.2-12.8,21.7-2.1,28
		c7.6,4.5,17.3-2.2,21.8-8.1c7.4-9.8,10.4-23.3,16.8-33.9C391.7,518.1,399.4,508.3,408.3,499.7z"/>
	<path fill="#60423E" d="M298.2,263.3c4.8-2.8,16.5-3.2,22.9,0.7c1.9,1.1,10.6,5.8,12.8,5.4c0.8-0.2,1.6-0.5,2.3-0.2
		c0.9,0.4,1.3,1.5,1,2.5c-0.2,1-0.9,1.7-1.6,2.5c-1.8,2-3.7,3.9-5.6,5.7c-3.8-4.8-10.3-7.6-17.2-7.7c-20.4-0.5-26.4,14.8-28.4,24.2
		c-0.2,0.7-1.2,0.6-1.2-0.1c-0.1-1.7-0.2-3.3-0.1-4.1C283.6,287.9,285.8,270.5,298.2,263.3z"/>
	<path fill="#F7E9E2" d="M154.9,336.5c4.8-4.8,10.8-8.6,17.4-11.1c-5.5,5.1-10.1,10.9-13.5,17.2c7.9-6.5,18.1-14,28.3-15.5
		c-6.3,7.1-13.2,17.7-14.9,26.4c11.2-16.3,31.7-33.3,50.9-41c-2.1,0.8-25.5-9.8-51.8,7.2C163.8,324.5,157,331.5,154.9,336.5z"/>
	<path fill="#60423E" d="M189.7,280.8c-5.6,0.1-14.5,3.2-19.2,12.5c-1,2-6.1,10.5-8.1,11.2c-0.7,0.3-1.6,0.4-2.1,1.1
		c-0.6,0.8-0.3,2,0.4,2.7c0.7,0.7,1.7,1,2.6,1.3c2.6,0.7,5.1,1.4,7.7,2c0.7-6,4.9-11.8,10.6-15.5c17.2-11,30.2-1.1,36.8,5.8
		c0.5,0.5,1.3-0.1,1-0.7c-0.8-1.5-1.6-2.9-2-3.5C215,294.2,204,280.5,189.7,280.8z"/>
	<path fill="#F7E9E2" d="M286.1,317c-4-6.6-15.3-7.8-17.6-8.2c-2.8-0.6-5.7-0.3-8.6,0c-11,1.4-26.2,6.1-26.2,6.1
		c0,0-9.3,2.7-12.3,10.6c-1.7,4.3-1.1,9.6,2.4,13.3c2.7,2.9,6.9,4.7,11.1,5.9c13.4,3.8,33.8,2.2,44.3-5.9
		C287.4,332.5,289.3,322.4,286.1,317z"/>
	<path fill="#60423E" d="M272.5,309.8c-1-2.3-3.1-4-5.5-4.9c-2.3-0.9-4.9-1.1-7.4-1c-2.8,0.1-13.9,1.5-16.6,2.1
		c-2.5,0.5-4.9,1.3-7,2.8c-2.1,1.4-3.7,3.6-4.1,6.1c-0.4,2.5,0.7,5.3,2.9,6.5c1.1,0.6,2.3,0.8,3.5,1.2c1.5,0.5,3,1.4,4.1,2.5
		c1.4,1.4,2.4,3.1,3.9,4.3c2.2,1.9,5.3,2.5,8.2,2.5c2.9-0.7,5.7-2,7.4-4.4c1.1-1.6,1.7-3.5,2.7-5.1c0.9-1.4,2-2.6,3.4-3.5
		c1-0.7,2.2-1.2,3.1-2C273.1,315.1,273.4,312.2,272.5,309.8z"/>
	<path fill="#FFFFFF" d="M237.6,312.8c-0.4,1.3,0,2.9,1.3,3.4c0.8,0.3,1.7,0,2.5-0.4c0.7-0.5,1.4-1.1,2-1.6c2.1-1.6,4.9-2.1,7.5-2.6
		c0.7-0.1,1.5-0.2,2.1-0.6c0.6-0.4,1.1-1.2,0.8-1.9c-0.7-2.3-6.5-1.4-8.3-1C242.9,308.6,238.6,309.9,237.6,312.8z"/>
	<path fill="#60423E" d="M242.3,359.8c0,0,18.2,0.1,27.3-3.6c12.7-5.1,22.1-15.8,22.1-15.8s-6.4,16.5-19.2,21.2
		C260.3,366.2,242.3,359.8,242.3,359.8z"/>
	<path fill="#FFA912" d="M318.3,446.7c0.6-20.2-1.4-40.5-5.8-60.2c3.7,5.4,8.6,9.8,12.7,14.8c11,13.4,16.1,30.8,17.7,48.1
		c0.7,7.7,0.7,15.6-1.6,22.9c-2.3,7.4-7.1,14.2-14.1,17.6c-2.1,1-4.6,1.7-6.7,0.5c-5.1-2.8-6.7-13.4-5.9-18.7
		C315.9,463.2,318.1,455.4,318.3,446.7z"/>
	<path fill="#F2881D" d="M343.2,449.4c-1.2-13.2-4.5-26.6-10.9-38.1c4,9.6,6.2,20,7.1,30.3c0.7,7.7,0.7,15.6-1.6,22.9
		c-2.3,7.4-7.1,14.2-14.1,17.6c-2.1,1-4.6,1.7-6.7,0.5c-0.5-0.3-1-0.7-1.5-1.1c0.9,3.8,2.6,7.4,5.2,8.9c2,1.1,4.6,0.5,6.7-0.5
		c7-3.3,11.8-10.2,14.1-17.6C343.9,465,343.9,457.1,343.2,449.4z"/>
	<path fill="#F2881D" d="M314.1,462.4c0.1-3.6,0.9-7.1,1.6-10.6c0.8-4.3,1.4-8.7,1.2-13.1c-0.3-5.1-1.6-10.1-3.8-14.6
		c5.4,7.7,8.6,17.6,6.3,26.8c-0.5,2.2-1.4,4.3-1.9,6.5c-1.2,4.9-0.7,9.6-0.8,14.5C314.1,471.6,314.1,464.2,314.1,462.4z"/>
	<path fill="#F2881D" d="M347.8,509.9c1.9-0.1-10.4,32.4-8.9,52.5c-3.9-3.1-12.5-7.4-17.4-8.1c-3.5-0.5-7-0.6-10.5-0.5
		c-1.4,0-16.4,1.3-15.2,0.7c7.1-3.2,17.7-10,19.5-11.1C334.7,531.2,345.1,507.7,347.8,509.9z"/>
	<path fill="#F2881D" d="M211.2,557c8-2.6,23.6-1.5,31.9,0c-10.2-1.3-23.9-8.9-34.4-17.1c-8.1-6.3-12.6-16.1-17.5-25.1
		c-1.3-2.4-2.6-4.8-4.4-6.9c-0.4-0.4-0.9-0.8-1.4-0.7c-1.1,0.2-0.9,1.8-0.4,2.7c4.6,10,8.5,20.3,11.9,30.8
		c1.6,5.2,3.1,10.4,4.4,15.7c0.8,3.1,0.6,6.5,0.6,6.5S206.1,558.6,211.2,557z"/>
	<path fill="#F2881D" d="M182.8,457.5c0,0,0.1-0.5,0.4-1.3c0.9-3.1,5.5-20.4,7.3-25.7c2.3-6.7,10.4-8.1,10.4-8.1l-20,42.9
		L182.8,457.5z"/>
	<path fill="#382624" d="M116.5,478.8c0.1,2.7,3.9,11.7,7.1,7.7c1.4,2.1,3,3.3,5.8,2.8c2.3-0.4,5-2.8,4-5.4c2.6,2,6,1.2,6.7-2.3
		c0.7-3.6-1.5-6.1-3.2-9c-1-1.7-1.5-3-3.5-3.6c-2.3-0.7-6.2-0.9-8.5-0.1c-2.4,0.9-5.2,2.6-6.9,4.7c-1.4,1.7-1,3.1-1.4,5.1
		C116.8,478.6,116.8,478.5,116.5,478.8z"/>
	<path fill="#875D59" d="M135.3,471.3c0.1,1.5,0.4,3,0.3,4.5c-0.1,1.5-0.7,3.1-2,3.9c-1.3,0.8-3.3,0.5-3.9-0.9
		c0.4,2.3-1.1,4.9-3.4,5.4c-2.3,0.5-4.9-1.7-4.4-4c-0.7,1.2-2.4,1.6-3.7,1c-1.3-0.6-2.1-1.9-2.4-3.3c-0.3-1.4-0.1-2.8,0.1-4.2
		c1.1-7.4,3.6-14.7,8.2-20.6c4-5.2,9.8-9.9,11-10.5c5.8-3.3,9.9,1.7,10.3,4.8c0.3,2.2-0.7,3.7-4.1,6.3
		C136.1,457.5,134.7,465,135.3,471.3z"/>
	<path fill="#E2441A" d="M223.8,54.7c7.2-12.4,16.1-24.8,29.2-30.8c1.4-0.6,2.9-1.2,4.4-0.7c2.2,0.7,3.1,3.3,3.7,5.5
		c3.8,14.8,4.4,42.4,6.8,57.5c6.7,42,14.8,64.5,29.4,99.5c0.7,1.7,0.5,3.9-0.6,5.5c-1,1.5-2.9,2.1-4.6,2.6
		c-16.6,4.7-33.6,7.7-50.8,9.1c-9.1,0.7-18.3,1-27.4,0.8c-4.9-0.1-21.4,1.6-25-1.8c-3.5-3.2-1.2-17.5-1-22.1
		c0.3-8.3,1-16.6,2.1-24.8c2.1-16.5,5.8-32.8,10.9-48.6C206.6,88.4,214.3,71,223.8,54.7z"/>
	<path fill="#C13317" d="M297.2,185.7c-14.6-35-22.7-57.5-29.4-99.5c-2.4-15.1-3-42.7-6.8-57.5c-0.6-2.2-1.5-4.8-3.7-5.5
		c-0.3-0.1-0.6-0.1-0.9-0.2c1.7,1.1,2.2,3.5,2.5,5.6c1.9,15.2-1,42.6-0.5,57.9c1.4,42.5,6.5,65.9,16.6,102.5c0.5,1.8,0,4-1.3,5.4
		c-1.2,1.4-3.1,1.7-4.9,2c-17,2.5-34.3,3.4-51.5,2.6c-9.1-0.4-18.3-1.3-27.3-2.6c-0.8-0.1-1.8-0.2-3.1-0.3c0.2,2.6,0.7,4.8,1.8,5.9
		c3.6,3.4,20.1,1.7,25,1.8c9.2,0.2,18.3-0.1,27.4-0.8c17.2-1.4,34.2-4.4,50.8-9.1c1.7-0.5,3.6-1.1,4.6-2.6
		C297.7,189.6,297.9,187.4,297.2,185.7z"/>
	<path fill="#B9DFEA" d="M159,195c-0.5,4.8,0.6,10.1,4.3,13.2c3.7,3,9.3,3.3,13.6,1.3c-1.2,5.8,2.6,12.1,8.1,14.4
		c5.5,2.3,12.1,1,16.9-2.6c0.6-0.4,1.2-0.9,1.9-0.9c0.7,0,1.3,0.5,1.9,1c4.2,3.4,10,4.8,15.3,3.6c5.3-1.2,10-4.9,12.3-9.8
		c2.8,4.9,8.3,8.4,14,8c5.7-0.3,11-4.8,11.7-10.4c2.6,5.7,9.6,9.3,15.5,7.3c5.9-2,9.2-10.1,5.6-15.2c1.8,2.5,5.5,3.4,8.2,2
		c2.7-1.4,4.2-4.9,3.3-7.8c1.6,3.8,5.2,6.5,9.2,7.4c4,0.9,8.3,0,11.8-2.2c2.9-1.7,5.4-5.4,3.6-8.2c2.2,1.6,5.1-0.2,7.2-1.9
		c3.2-2.7,6.8-6.1,6.5-10.3c-0.1-2-1.1-3.9-2.5-5.5c-3.6-4.2-9.5-6.1-14.9-4.9c0-4.6-5.3-7.2-9.9-7.9c-3.3-0.5-6.8-0.7-10,0.4
		c-3.2,1-6.1,3.4-7.1,6.6c-3.4-3.6-9.3-4.2-13.9-2.1c-4.5,2.1-7.8,6.3-9.7,10.9c-2.8-3.8-7.3-5.8-11.9-6.7
		c-4.2-0.8-8.6-0.9-12.5,0.8c-3.9,1.7-7.1,5.3-7.6,9.5c-5.1-5.1-15-3.8-18.6,2.4c0.3-5.4-5.1-10-10.5-10c-5.4,0-10.3,3.6-13.3,8.1
		c-0.2-4.1-3.1-6.6-7.1-7.3c-5.1-0.9-7,4-7,4S160.3,181.8,159,195z"/>
	<path opacity="0.37" fill="#FFFFFF" d="M204.4,198.7c2-4.6,7.8-7.1,12.5-5.4c4.7,1.7,7.6,7.3,6.3,12.1c-2.1-2.8-5.6-4.7-9.1-4.3
		c-3.5,0.4-6.6,3.6-6.5,7.1c-0.1-2.6-7.8-5.8-9.9-5.6c-3.2,0.2-6.2,5.3-8.2,1.7C185.4,197.1,200.1,193.3,204.4,198.7z"/>
	<path opacity="0.37" fill="#FFFFFF" d="M235.1,199.4c0-1.4,0.2-2.7,0.6-4c1-2.7,3.4-4.9,6.2-5.6c2.8-0.7,6,0.1,8.1,2
		c-0.2-2.1,1.1-4.2,2.8-5.4c1.8-1.2,4-1.6,6.1-1.5c1.5,0.1,2.9,0.3,4.2,1c2.6,1.4,4.2,4.5,3.7,7.5c-1.9-2-5.2-2.6-7.7-1.3
		c-2.5,1.3-3.9,4.3-3.3,7.1c-3.7-2.8-9.3-3.3-13.1-0.6c-3.6,2.5-5,7.9-2.7,11.8C237.3,206.8,235.1,204.2,235.1,199.4z"/>
	<path opacity="0.37" fill="#FFFFFF" d="M164.4,199.9c-0.7-2.3-0.2-5,1.5-6.6c1.7-1.7,4.5-2.1,6.6-0.9c-0.6-2.4,1-5.1,3.4-5.8
		c2.4-0.7,5.2,0.8,6,3.1c-1.8-0.8-4.1,0-5,1.6c-1,1.7-0.5,4,1,5.2c-1.8-1.2-4.1-1.7-6.2-1.1c-2.1,0.6-3.8,2.3-4.4,4.3
		c-0.4,1.7,0.1,3.4,1.1,4.7C166.4,203.7,165,201.8,164.4,199.9z"/>
	<path fill="#B9DFEA" d="M239.8,32.6c-3-1.9-4.8-5.7-4-9.2c0.8-3.5,4.4-6.2,7.9-5.8c-1.8-3.8-1.9-8.6,0.3-12.2
		c2.2-3.7,6.6-6,10.8-5.2c4.2,0.7,7.7,4.6,7.6,8.9c2.3-4.6,9-5,13.8-3.2c4.1,1.6,7.8,4.4,9.6,8.4c3,6.7-0.6,15-6.8,18.9
		c3.3,2,4.5,6.6,3.3,10.3c-1.2,3.7-4.3,6.5-7.9,8.2c-4.6,2.2-10.7,2.4-14.4-1.1c0,3.4-4,5.5-7.4,5.4c-5.7-0.3-10.7-5.3-11-11
		c-0.2-4.5,2.4-8.6,6.2-10.9C245,34.1,242.2,34.1,239.8,32.6z"/>
	<path opacity="0.37" fill="#FFFFFF" d="M271.2,12.5c-2.9-1.2-6.6-0.3-8.6,2.2c-1.8-2.5-5.3-3.6-8.1-2.5c-2.8,1.1-4.5,4.7-3.3,7.5
		c-2.3-0.7-4.9,0.7-5.7,3c-0.8,2.2,0.1,4.9,1.9,6.3c1.9,1.5,4.5,1.7,6.7,0.9c-1-0.6-2-1.1-2.7-2.1c-0.6-0.9-0.7-2.4,0.1-3.1
		c0.5-0.5,1.2-0.6,1.9-0.6c1.6-0.1,3.3,0.1,4.5,1.2c-1.7-1.1-1.5-4.2,0.4-5c1.9-0.9,4.3,1,3.9,3c0.2-2.2,2.7-3.8,4.8-3.3
		c2.1,0.5,3.6,2.8,3.6,5c-0.1,2.2-1.4,4.3-3.3,5.5C272.8,26.9,282,16.8,271.2,12.5z"/>
	<g>
		<path fill="#60423E" d="M250.4,511.3c-3.3,1.7-31.5,51-31.5,51l30.1,15.6l21.1-58.4L250.4,511.3z"/>
		<path fill="#6EC48A" d="M185.6,468.1c-3.4,1.3-7,2.8-8.6,5.7c-2.4,4.4,1.2,10.3,6.3,13.3c5.1,3,11.3,3.9,17.2,4.7
			c-8.8,3.4-8.4,15.7-0.5,21.8c8,6.1,20.1,6,28.3,1.7c-0.1,8.3,6.5,17.1,15.8,20.9c9.2,3.8,20.5,2.4,26.9-3.4
			c0.2,7.8,6.4,15.8,14.9,19.4s19,2.5,25.3-2.5c2.5,5,6.8,10.5,13,11.1c9.4,0.8,12-9.8,11.3-17.7c-2.1-26.4-7.6-52.9-16.4-78.9
			c-1.4-4.1-2.9-8.4-6-12c-15.9-18.6-41.3-11.6-59.6-6.5C230.4,452,207.7,459.6,185.6,468.1z"/>
		<path fill="#55996D" d="M198.1,443.8c-3.4,1.2-6.9,2.6-8.4,5.4c-2.3,4.2,1.4,9.8,6.5,12.7c5.1,2.9,11.3,3.8,17.2,4.6
			c-8.7,3.2-8.1,15-0.1,20.8c8,5.9,20.1,5.9,28.1,1.8c0.1,8,6.8,16.4,16,20s20.4,2.4,26.6-3.1c0.3,7.4,6.6,15.1,15.2,18.6
			c8.6,3.5,18.9,2.6,25-2.2c2.5,4.8,6.9,10.1,13.1,10.6c9.3,0.8,11.7-9.2,10.9-16.9c-2.6-25.2-8.5-50.6-17.7-75.5
			c-1.5-4-3.1-8-6.2-11.5c-16.1-17.9-41.2-11.4-59.2-6.6C242.3,428.8,219.9,435.8,198.1,443.8z"/>
		<path fill="#6EC48A" d="M224.1,421.5c-2.8,1.7-5.7,3.6-6.8,6.5c-1.7,4.4,1.9,9.5,6.5,11.7c4.6,2.2,10,2.2,15.1,2.2
			c-7.3,4.3-5.9,15.9,1.4,20.5c7.3,4.7,17.7,3,24.3-2.1c0.6,7.8,7,15.2,15.2,17.6c8.2,2.4,17.7-0.4,22.6-6.7
			c0.8,7.3,6.8,14,14.4,16.3c7.6,2.3,16.4-0.1,21.3-5.6c2.5,4.4,6.7,9,12,8.7c8-0.5,9.4-10.7,8.2-18.1c-4-24.5-10.9-48.7-20.6-72
			c-1.5-3.7-3.2-7.5-6.1-10.5c-15.1-15.4-36.2-5.6-51.3,1.6C261,400.7,242.2,410.7,224.1,421.5z"/>
		<path fill="#55996D" d="M243.1,392.1c-2.6,1.7-5.3,3.6-6.4,6.6c-1.6,4.4,1.6,9.4,5.8,11.5c4.2,2.1,9.1,2.1,13.8,2
			c-6.7,4.4-5.7,15.9,1,20.4c6.7,4.5,16.2,2.8,22.4-2.4c0.5,7.8,6.2,15.1,13.7,17.3c7.5,2.2,16.3-0.7,20.9-7c0.7,7.3,6,13.9,13,16
			c7,2.1,15.1-0.3,19.7-5.9c2.3,4.3,6,8.9,10.9,8.5c7.4-0.6,8.8-10.8,7.8-18.2c-3.3-24.4-9.3-48.4-17.9-71.5
			c-1.4-3.7-2.8-7.4-5.5-10.4c-13.7-15.2-33.2-5-47.3,2.4C277.3,370.7,259.9,381,243.1,392.1z"/>
		<path fill="#E2441A" d="M339.7,324.9L323,310.3c-1.1-1-2.8-0.2-2.8,1.3l0.5,20.7c0,0.6-0.3,1.2-0.9,1.5l-16.4,8.9
			c-1.3,0.7-1.2,2.5,0.2,3.1l18.8,7.8c0.8,0.3,1.3,1.3,0.9,2.1l-4.7,13.1c-0.5,1.4,0.9,2.7,2.3,2.1l18.8-8.4
			c0.7-0.3,1.4-0.1,1.9,0.4l10.6,11.3c1,1,2.7,0.5,2.9-0.9l2.6-19.5c0.1-0.7,0.7-1.3,1.4-1.4l15.7-2.8c1.5-0.3,1.9-2.2,0.7-3.1
			l-14.5-10.2c-0.6-0.4-0.8-1.1-0.7-1.8l4.5-18c0.4-1.4-1.1-2.6-2.4-1.9l-20.8,10.5C340.9,325.5,340.2,325.4,339.7,324.9z"/>
	</g>
	<path fill="#60423E" d="M326.5,457.5c-3.8,1.4-10.2-1-11.3,3.6c-1.7,4.4,3.1,5.5,5.5,6c-2,0.1-4.2,0.3-5.9,1.3
		c-1.8,1-3,3.2-2.4,5.1c0.9,2.7,4.5,3,7.4,2.9c-2.4-0.2-6.6,0.4-6,3.2c0.9,2.6,4.1,3.9,6.8,3.6c2.8-0.4,5.2-1.9,7.5-3.5
		c12.4-8.3,24.7-16.5,37.1-24.8c4.1-2.7,7.9-5.7,11.1-9.5c2.6-3,2.5-7.7,1-12.4c-4.4-14.3-11.7-5.8-13.4-4
		C355.6,437.7,337.9,453.5,326.5,457.5z"/>
	<g>
		<path fill="#6EC48A" d="M257.6,401.6c3.2-2.2,6.3-4.5,9.5-6.7c0.5-0.4,0.9-0.8,1.1-1.4c0.2-0.6,0.1-1.3-0.2-1.8
			c-0.6-1-2.2-1.6-3.2-0.8c-3.2,2.2-6.3,4.5-9.5,6.7c-0.5,0.4-0.9,0.8-1.1,1.4c-0.2,0.6-0.1,1.3,0.2,1.8
			C255,401.8,256.5,402.4,257.6,401.6L257.6,401.6z"/>
	</g>
	<g>
		<path fill="#6EC48A" d="M265.2,422.3c1-1.5,2-3,3.1-4.4c-0.1,0.2-0.2,0.3-0.4,0.5c0.6-0.8,1.2-1.6,1.9-2.3c0.4-0.5,0.7-1,0.7-1.7
			c0-0.6-0.3-1.3-0.7-1.7c-0.5-0.4-1-0.7-1.7-0.7c-0.6,0-1.3,0.2-1.7,0.7c-1.9,2.3-3.7,4.7-5.3,7.2c-0.7,1.1-0.3,2.7,0.9,3.2
			C263.2,423.7,264.5,423.4,265.2,422.3L265.2,422.3z"/>
	</g>
	<g>
		<path fill="#6EC48A" d="M282.5,393c2.2-2.5,4.4-4.9,6.6-7.4c0.4-0.5,0.7-1,0.7-1.7c0-0.6-0.3-1.3-0.7-1.7c-0.9-0.8-2.5-1-3.3,0
			c-2.2,2.5-4.4,4.9-6.6,7.4c-0.4,0.5-0.7,1-0.7,1.7c0,0.6,0.3,1.3,0.7,1.7C280.1,393.9,281.7,394,282.5,393L282.5,393z"/>
	</g>
	<g>
		<path fill="#6EC48A" d="M291.4,426.6c0.2-0.9,0.6-1.8,0.9-2.7c-0.1,0.2-0.2,0.4-0.2,0.6c0.6-1.4,1.4-2.8,2.3-4
			c0.3-0.5,0.4-1.3,0.2-1.8c-0.2-0.5-0.6-1.1-1.1-1.4c-0.5-0.3-1.2-0.4-1.8-0.2c-0.6,0.2-1,0.6-1.4,1.1c-1.6,2.2-2.7,4.7-3.4,7.3
			c-0.3,1.2,0.4,2.6,1.7,2.9C289.7,428.5,291,427.9,291.4,426.6L291.4,426.6z"/>
	</g>
	<g>
		<path fill="#6EC48A" d="M313.2,432.2c1.3-4.1,2.7-8.2,4-12.3c0.4-1.2-0.4-2.6-1.7-2.9c-1.3-0.3-2.5,0.4-2.9,1.7
			c-1.3,4.1-2.7,8.2-4,12.3c-0.4,1.2,0.4,2.6,1.7,2.9C311.6,434.2,312.8,433.5,313.2,432.2L313.2,432.2z"/>
	</g>
	<g>
		<path fill="#6EC48A" d="M309.3,403.5c1.8-3.9,3.2-8,4.1-12.2c0.3-1.2-0.4-2.6-1.7-2.9c-1.2-0.3-2.6,0.4-2.9,1.7
			c-0.4,2-1,3.9-1.6,5.8c-0.3,0.9-0.6,1.9-1,2.8c-0.2,0.5-0.4,1-0.6,1.4c0.2-0.4-0.1,0.2-0.1,0.2c-0.1,0.3-0.2,0.5-0.4,0.8
			c-0.5,1.1-0.4,2.6,0.8,3.2C307.1,404.9,308.7,404.7,309.3,403.5L309.3,403.5z"/>
	</g>
	<g>
		<path fill="#6EC48A" d="M329.5,438.8c0.1-3.8,0.3-7.5,0.4-11.3c0-1.2-1.1-2.4-2.4-2.4c-1.3,0.1-2.3,1-2.4,2.4
			c-0.1,3.8-0.3,7.5-0.4,11.3c0,1.2,1.1,2.4,2.4,2.4C328.4,441.1,329.4,440.1,329.5,438.8L329.5,438.8z"/>
	</g>
	<g>
		<path fill="#6EC48A" d="M353.7,425.3c-0.7-3.9-1.3-7.8-2-11.6c-0.2-1.2-1.8-2-2.9-1.7c-1.3,0.4-1.9,1.6-1.7,2.9
			c0.7,3.9,1.3,7.8,2,11.6c0.2,1.2,1.8,2,2.9,1.7C353.3,427.8,353.9,426.7,353.7,425.3L353.7,425.3z"/>
	</g>
	<g>
		<path fill="#6EC48A" d="M335.5,400.4c0.2-4,0.1-8-0.3-12c-0.1-1.2-1-2.4-2.4-2.4c-1.2,0.1-2.5,1-2.4,2.4c0.4,4,0.5,8,0.3,12
			c-0.1,1.2,1.1,2.4,2.4,2.4C334.5,402.7,335.5,401.8,335.5,400.4L335.5,400.4z"/>
	</g>
	<g>
		<path fill="#6EC48A" d="M302.5,373.5c1.8-2.1,3.6-4.2,5.4-6.3c0.4-0.5,0.7-1,0.7-1.7c0-0.6-0.3-1.3-0.7-1.7
			c-0.5-0.4-1-0.7-1.7-0.7c-0.6,0-1.3,0.2-1.7,0.7c-1.8,2.1-3.6,4.2-5.4,6.3c-0.4,0.5-0.7,1-0.7,1.7c0,0.6,0.3,1.3,0.7,1.7
			c0.5,0.4,1,0.7,1.7,0.7C301.4,374.2,302.1,374,302.5,373.5L302.5,373.5z"/>
	</g>
	<g>
		<path fill="#6EC48A" d="M208,455.5c1.9-1.3,3.9-2.4,6-3.4c0.5-0.2,0.9-0.9,1.1-1.4c0.2-0.6,0.1-1.3-0.2-1.8
			c-0.3-0.5-0.8-1-1.4-1.1c-0.2,0-0.4-0.1-0.6-0.1c-0.4,0-0.8,0.1-1.2,0.3c-2.1,0.9-4.1,2-6,3.4c-0.5,0.4-0.9,0.8-1.1,1.4
			c-0.2,0.6-0.1,1.3,0.2,1.8c0.3,0.5,0.8,1,1.4,1.1C206.8,455.9,207.5,455.9,208,455.5L208,455.5z"/>
	</g>
	<g>
		<path fill="#6EC48A" d="M219.8,477.9c1.4-2.1,2.8-4.2,4.2-6.4c0.7-1,0.2-2.7-0.8-3.2c-1.2-0.6-2.5-0.3-3.2,0.8
			c-1.4,2.1-2.8,4.2-4.2,6.4c-0.7,1-0.2,2.7,0.8,3.2C217.7,479.4,219,479.1,219.8,477.9L219.8,477.9z"/>
	</g>
	<g>
		<path fill="#6EC48A" d="M256.2,488.7c1-2.9,1.9-5.8,2.9-8.7c0.4-1.2-0.5-2.6-1.7-2.9c-1.3-0.3-2.5,0.4-2.9,1.7
			c-1,2.9-1.9,5.8-2.9,8.7c-0.4,1.2,0.5,2.6,1.7,2.9C254.6,490.7,255.8,490,256.2,488.7L256.2,488.7z"/>
	</g>
	<g>
		<path fill="#6EC48A" d="M272.4,504.9c1-3,2-6,3.1-9c0.4-1.2-0.5-2.6-1.7-2.9c-1.3-0.3-2.5,0.4-2.9,1.7c-1,3-2,6-3.1,9
			c-0.4,1.2,0.5,2.6,1.7,2.9C270.8,506.8,271.9,506.1,272.4,504.9L272.4,504.9z"/>
	</g>
	<g>
		<path fill="#6EC48A" d="M301.3,497.8c0-0.8,0-1.6,0.1-2.4c0-0.4,0.1-0.8,0.1-1.2c0-0.2,0-0.4,0.1-0.6c0-0.1,0-0.7,0-0.1
			c0-0.8,0.3-1.6,0.4-2.4c0.2-0.8,0.4-1.6,0.6-2.3c0.3-1.2-0.4-2.6-1.7-2.9c-1.3-0.3-2.6,0.4-2.9,1.7c-0.9,3.4-1.4,6.9-1.4,10.4
			c0,1.2,1.1,2.4,2.4,2.4C300.2,500.1,301.3,499.2,301.3,497.8L301.3,497.8z"/>
	</g>
	<g>
		<path fill="#6EC48A" d="M312.2,512.5c0.2-2.3,0.3-4.5,0.5-6.8c0.1-1.2-1.1-2.4-2.4-2.4c-1.4,0.1-2.3,1-2.4,2.4
			c-0.2,2.3-0.3,4.5-0.5,6.8c-0.1,1.2,1.1,2.4,2.4,2.4C311.2,514.8,312.2,513.8,312.2,512.5L312.2,512.5z"/>
	</g>
	<g>
		<path fill="#6EC48A" d="M333.9,515.7c0.5-4.1,0.9-8.2,1-12.3c0-1.2-1.1-2.4-2.4-2.4c-1.3,0.1-2.3,1-2.4,2.4c0,1.9-0.1,3.8-0.3,5.7
			c-0.1,0.9-0.2,1.8-0.2,2.7c0,0.5-0.1,0.9-0.2,1.4c0,0.3-0.1,0.5-0.1,0.8c0,0.1-0.1,0.9,0,0.4c-0.1,0.7-0.1,1.2,0.2,1.8
			c0.3,0.5,0.9,1,1.4,1.1C332.1,517.7,333.7,517.1,333.9,515.7L333.9,515.7z"/>
	</g>
	<g>
		<path fill="#55996D" d="M232.1,429.9c3-1.6,6-3.2,9-4.9c1.1-0.6,1.5-2.2,0.8-3.2c-0.7-1.1-2.1-1.5-3.2-0.8c-3,1.6-6,3.2-9,4.9
			c-1.1,0.6-1.5,2.2-0.8,3.2C229.6,430.2,230.9,430.6,232.1,429.9L232.1,429.9z"/>
	</g>
	<g>
		<path fill="#55996D" d="M246.5,453.5c0.7-1.4,1.5-2.7,2.4-4c0.2-0.3,0.4-0.6,0.6-0.9c0.1-0.1,0.1-0.2,0.2-0.3c0-0.1,0.3-0.3,0,0
			c-0.2,0.3,0,0,0,0c0.1-0.1,0.1-0.1,0.2-0.2c0.5-0.6,1-1.2,1.6-1.8c0.8-0.9,1-2.5,0-3.4c-0.9-0.8-2.5-1-3.3,0
			c-2.3,2.5-4.2,5.3-5.8,8.3c-0.6,1.1-0.3,2.6,0.8,3.2C244.3,454.9,245.9,454.7,246.5,453.5L246.5,453.5z"/>
	</g>
	<g>
		<path fill="#55996D" d="M279.5,458.3c0-0.1,0-0.2,0-0.3c0,0.2-0.1,0.4-0.1,0.6c0.2-1.5,0.6-3.1,1.2-4.5c-0.1,0.2-0.2,0.4-0.2,0.6
			c0.5-1.1,1-2.1,1.7-3.1c0.7-1,0.2-2.7-0.8-3.2c-1.2-0.6-2.5-0.2-3.2,0.8c-1.9,2.7-2.9,5.8-3.3,9.1c-0.1,0.6,0.3,1.3,0.7,1.7
			c0.4,0.4,1.1,0.7,1.7,0.7c0.6,0,1.2-0.2,1.7-0.7C279.3,459.5,279.5,459,279.5,458.3L279.5,458.3z"/>
	</g>
	<g>
		<path fill="#55996D" d="M307.8,456.5c0.8-1.3,1.4-2.8,1.8-4.3c0.2-0.6,0.1-1.3-0.2-1.8c-0.3-0.5-0.9-1-1.4-1.1
			c-0.6-0.1-1.3-0.1-1.8,0.2c-0.5,0.3-0.9,0.8-1.1,1.4c-0.2,0.6-0.4,1.2-0.6,1.8c0.1-0.2,0.2-0.4,0.2-0.6c-0.3,0.7-0.6,1.3-1,1.9
			c-0.3,0.5-0.4,1.2-0.2,1.8c0.2,0.5,0.6,1.1,1.1,1.4c0.5,0.3,1.2,0.4,1.8,0.2C306.9,457.4,307.4,457.1,307.8,456.5L307.8,456.5z"/>
	</g>
	<g>
		<path fill="#55996D" d="M193.1,480.7c1.8-1.5,3.5-3,5.3-4.5c0.4-0.4,0.7-1.1,0.7-1.7c0-0.6-0.3-1.3-0.7-1.7
			c-0.5-0.4-1-0.7-1.7-0.7c-0.2,0-0.4,0.1-0.6,0.1c-0.4,0.1-0.8,0.3-1,0.6c-1.8,1.5-3.5,3-5.3,4.5c-0.4,0.4-0.7,1.1-0.7,1.7
			c0,0.6,0.3,1.3,0.7,1.7c0.5,0.4,1,0.7,1.7,0.7c0.2,0,0.4-0.1,0.6-0.1C192.4,481.1,192.8,480.9,193.1,480.7L193.1,480.7z"/>
	</g>
	<g>
		<path fill="#55996D" d="M208.9,505.2c1.7-1.7,3.5-3.3,5.2-5c0.4-0.4,0.7-1.1,0.7-1.7c0-0.6-0.3-1.3-0.7-1.7c-1-0.9-2.4-0.9-3.3,0
			c-1.7,1.7-3.5,3.3-5.2,5c-0.4,0.4-0.7,1.1-0.7,1.7c0,0.6,0.3,1.3,0.7,1.7C206.6,506.1,208,506.1,208.9,505.2L208.9,505.2z"/>
	</g>
	<g>
		<path fill="#55996D" d="M242.7,516.7c1.1-2.6,2.4-5.1,3.8-7.5c0.6-1.1,0.3-2.6-0.9-3.2c-1.1-0.6-2.6-0.3-3.2,0.9
			c-1.4,2.4-2.7,4.9-3.8,7.5c-0.3,0.6-0.4,1.2-0.2,1.8c0.2,0.5,0.6,1.1,1.1,1.4c0.5,0.3,1.2,0.4,1.8,0.2
			C241.9,517.6,242.5,517.2,242.7,516.7L242.7,516.7z"/>
	</g>
	<g>
		<path fill="#55996D" d="M261.9,528.2c0.8-2.1,1.7-4.3,2.5-6.4c0.2-0.5,0-1.3-0.2-1.8c-0.3-0.5-0.9-1-1.4-1.1
			c-0.6-0.1-1.3-0.1-1.8,0.2c-0.5,0.4-0.8,0.8-1.1,1.4c-0.8,2.1-1.7,4.3-2.5,6.4c-0.2,0.5,0,1.3,0.2,1.8c0.3,0.5,0.9,1,1.4,1.1
			c0.6,0.1,1.3,0.1,1.8-0.2C261.3,529.3,261.6,528.8,261.9,528.2L261.9,528.2z"/>
	</g>
	<g>
		<path fill="#55996D" d="M288.9,537.6c0.5-2.8,1-5.5,1.4-8.3c0.1-0.6,0.1-1.2-0.2-1.8c-0.3-0.5-0.9-1-1.4-1.1
			c-1.1-0.3-2.7,0.3-2.9,1.7c-0.5,2.8-1,5.5-1.4,8.3c-0.1,0.6-0.1,1.2,0.2,1.8c0.3,0.5,0.9,1,1.4,1.1
			C287.1,539.5,288.6,538.9,288.9,537.6L288.9,537.6z"/>
	</g>
	<g>
		<path fill="#55996D" d="M322,543c0-2.5,0-5,0-7.5c0-1.2-1.1-2.4-2.4-2.4c-1.3,0.1-2.4,1-2.4,2.4c0,2.5,0,5,0,7.5
			c0,1.2,1.1,2.4,2.4,2.4C320.9,545.3,322,544.3,322,543L322,543z"/>
	</g>
</g>
</svg>
