<?xml version="1.0" encoding="utf-8"?>
<!-- Generator: Adobe Illustrator 17.1.0, SVG Export Plug-In . SVG Version: 6.00 Build 0)  -->
<!DOCTYPE svg PUBLIC "-//W3C//DTD SVG 1.1//EN" "http://www.w3.org/Graphics/SVG/1.1/DTD/svg11.dtd">
<svg version="1.1" id="Layer_1" xmlns="http://www.w3.org/2000/svg" xmlns:xlink="http://www.w3.org/1999/xlink" x="0px" y="0px"
	 width="761.1px" height="557.6px" viewBox="0 0 761.1 557.6" enable-background="new 0 0 761.1 557.6" xml:space="preserve">
<g>
	<g>
		<path fill="#231F20" d="M600.7,269.9c-4.1,6.5-6.4,14.1-6.6,21.8c0,0.8,1.2,0.8,1.2,0c0.2-7.5,2.4-14.8,6.5-21.2
			C602.2,269.9,601.2,269.3,600.7,269.9L600.7,269.9z"/>
	</g>
	<g>
		<path fill="#231F20" d="M600.3,271c-4-2.7-9.7-6.6-10-12c0-0.6,0-1.4,0.4-1.9c0.7-0.9,1.7-0.5,2.5,0.1c1.2,0.9,2.1,2.4,2.8,3.7
			c1.6,2.7,2.7,5.6,3.4,8.6c0.1,0.7,1.2,0.5,1.2-0.2c-0.1-3.8,0.5-7.7,1.7-11.3c0.6-1.8,1.3-3.5,2.2-5.2c0.5-0.8,1-1.8,2-2.1
			c1.7-0.5,2,1.1,1.8,2.4c-1.2,6.8-4.9,13.2-9.7,18.1c-0.5,0.5,0.3,1.4,0.8,0.8c2-2,5.3-0.7,7.5,0.2c2.4,1,4.7,2.3,6.8,3.9
			c4.3,3.2,7.7,7.3,10.5,11.8c0.2-0.3,0.4-0.6,0.7-0.9c-0.3-0.1-0.6-0.2-0.9-0.4c-0.7-0.3-1,0.9-0.3,1.1c0.3,0.1,0.6,0.2,0.9,0.4
			c0.5,0.2,0.9-0.5,0.7-0.9c-3.1-5-7-9.6-11.8-12.9c-2.3-1.6-4.9-2.9-7.6-3.8c-2.4-0.8-5.3-1.3-7.2,0.7c0.3,0.3,0.6,0.6,0.8,0.8
			c4.7-4.8,8.1-10.8,9.7-17.3c0.3-1.2,0.8-2.8,0.2-4c-0.5-1.1-1.8-1.5-3-1.3c-1.4,0.3-2.2,1.5-2.9,2.6c-0.8,1.5-1.5,3.2-2.1,4.8
			c-1.4,3.9-2,8.1-2,12.3c0.4-0.1,0.8-0.1,1.2-0.2c-0.9-3.8-2.4-7.5-4.7-10.7c-0.9-1.2-1.9-2.6-3.5-3c-1.3-0.3-2.5,0.4-3.1,1.6
			c-1.2,2.7,0.8,6.2,2.4,8.3c2.1,2.7,5,4.8,7.8,6.7C600.4,272.4,601,271.4,600.3,271L600.3,271z"/>
	</g>
	<path fill="#75D9EF" d="M501.7,465.6c-4.7,1.4-10.3,4.4-9.9,9.3c0.2,2.1,1.5,4,2.1,6.1c2.5,9.5-11.1,14.1-20.9,15
		c-19.9,1.8-39.5,7.4-57.4,16.3c-6.8,3.4-14.1,8.6-14.2,16.1c-0.1,8.7,9.4,14.1,17.7,16.8c28.6,9.4,59.2,11.1,89.3,11.8
		c47.6,1.2,95.3,0.4,142.9-2.4c20.5-1.2,41.4-2.9,60.1-11.3c2.5-1.1,5.2-2.6,6.3-5.2c2.1-5.2-3.6-10-8.5-12.8
		c-9.1-5.1-18.3-10.2-27.4-15.3c14.8-21.8,53.9-2.4,73.7-19.9c3.2-2.8,5.7-6.7,5.8-10.9c0.2-11.1-14.1-15.6-25.2-16.7
		c-25-2.4-50-4.8-75.1-7.3c-5.7-0.6-11.4-1.1-17.1-1.7c-27.1-2.6-52.8-12.1-79.8-8c-40.4,2.8-9.6,13.8-16,15.8
		C531.8,466.3,515.2,461.6,501.7,465.6z"/>
	<polygon fill="#875D59" points="286.5,462.9 346.5,444.3 346.5,451.1 284.8,474.8 	"/>
	<path fill="#875D59" d="M227.8,457c0.5-0.8,39.8-13.6,39.8-13.6v6.8l-39.4,17.7L227.8,457z"/>
	<path fill="#875D59" d="M262.8,431.4c-0.4,0,0,30,0,30h7l3-30H262.8z"/>
	<path fill="#FFA912" d="M124,380.4c-20.8,12.3-37.1,30.9-56.5,45.4c-19.4,14.5-44.5,25-67.5,17.6c6.3,13.4,20.1,21.7,33.9,27.2
		c50.1,19.8,108.5,11.3,155.9-14.3c14.8-8,29.1-18,38.4-32c7.3-11.1,11.2-25.3,8.4-38.5c-2.9-13.7-18.4-16-30.7-18.5
		C178.3,361.6,148.5,366,124,380.4z"/>
	<path fill="#F2881D" d="M22.6,445.4c1.2,0.5,2.3,1,3.5,1.4c50.1,19.8,108.5,11.3,155.9-14.3c14.8-8,29.1-18,38.4-32
		c5-7.5,8.3-16.5,9.1-25.6c3.5,2.5,6.1,5.9,7.1,10.8c2.8,13.2-1.1,27.4-8.4,38.5c-9.3,14-23.6,24-38.4,32
		c-47.4,25.6-105.8,34-155.9,14.3C20.1,465.1,6.3,456.8,0,443.3C7.4,445.7,15,446.3,22.6,445.4z"/>
	<path fill="#FFB845" d="M210,383.1c-1.4,3.4-5.1,5.5-8.8,6.2c-3.7,0.6-7.4,0.2-11.1,0c-10.3-0.4-20.6,1.7-29.9,6.2
		c-6.2,3-11.9,7-18.6,8.5c-2.9,0.6-6.3,0.7-8.7-1.1c-3.5-2.6-3.6-8.2-1.3-11.9c2.3-3.7,6.4-6,10.3-7.8c12.1-5.7,25.3-9,38.7-9.9
		C186.7,372.8,215.3,370.1,210,383.1z"/>
	<path fill="#FCD8BE" d="M33.9,470.5C20.1,465.1,6.3,456.8,0,443.3c23,7.4,48.2-3.1,67.5-17.6c4.3-3.2,8.4-6.6,12.5-10.1
		c1.1,0.4,2.1,1,3.2,2c4.8,4.3,4.1,11.1,7.8,16.1c3.3,4.5,9.3,6.1,13.7,9.6c3.9,3.1,6.3,8,6.6,13c0.2,3.7-0.8,7.4-0.1,11
		c0.8,4.5,3.9,8.4,5.6,12.6C88.8,483.5,60.2,480.9,33.9,470.5z"/>
	<path fill="#EFC8AC" d="M0,443.4c0.5,0.1,0.9,0.3,1.4,0.4c0,0,0,0,0.1,0c0.4,0.1,0.9,0.2,1.3,0.4c0,0,0.1,0,0.1,0
		c1.4,0.4,2.8,0.7,4.2,0.9c0,0,0,0,0,0c5.2,0.9,10.4,0.9,15.6,0.3c1.2,0.5,2.3,1,3.5,1.4c27,10.6,56.4,13.1,85.2,9.1
		c0,0.1,0,0.2,0,0.4c0.2,3.7-0.8,7.4-0.1,11c0.8,4.5,3.9,8.4,5.6,12.6c-0.1,0-15.6,6.7-64.6-2.5C25.2,472.5,6.3,456.9,0,443.4z"/>
	<path fill="#60423E" d="M342.8,415c-0.6,1,2.4,62.2,2.4,62.2l4.9-2.4v-63.3L342.8,415z"/>
	<path fill="#60423E" d="M277,431.4c-0.7,1.5,3.5,65.2,3.5,65.2h9.5v-62.7L277,431.4z"/>
	<polygon fill="#60423E" points="221.2,422.2 221.2,489.3 228.6,492.4 235.3,424 221.2,419.4 	"/>
	<polygon fill="#60423E" points="213.1,401.8 213.1,428.2 284.3,439.5 356.5,415.6 354.5,390.5 	"/>
	<path fill="#60423E" d="M415.1,469.6c0.2,1.1,0.4,2.2,0,3.3c-0.6,1.9-2.7,2.8-4.5,3.4c-1.7,0.6-3.4,1.2-5.2,0.9
		c-1.9-0.3-3.5-1.8-4.4-3.5c-1-1.7-1.4-3.6-1.8-5.5c-3.5-15.8-5.9-31.9-10.7-47.4c-1.1-3.6-2.4-7.6-0.9-11.1
		c1.1-2.7,3.6-4.5,6.2-5.8c2.9-1.5,6.2-2.6,9.4-1.9c8.7,1.9,6.2,15.6,6.6,22c0.6,9.8,1.6,19.6,2.9,29.4
		C413.3,458.8,414.1,464.2,415.1,469.6z"/>
	<g>
		<path fill="#60423E" d="M417,464.5c1.4-0.2,5.9-0.6,7.9,1.7c0.8,0.9,1.7,2.4,1.3,3.8c1.8,1.3,1.2,4.7,0.8,5.3
			c-1,1.4-0.9,1.3-3.2,1.9c0.7,0.2,0.8,3.4-0.9,4.9c-3.1,2.6-9,2.3-13,2c-6.6-0.6-8-4.3-9-6.8c-1-2.5-1.2-5.3-1.2-8
			c0-1.9,0.1-4,1.1-5.6c1-1.6,2.8-2.6,4.6-2.9c2.2-0.4,7.7-3,8.1-0.7C413.7,461.1,413.1,465.1,417,464.5z"/>
		<path fill="#382624" d="M423.9,477.2c0,0-0.8-3-3.6-3.5c-2.8-0.5-4.2-0.4-4.2-0.4s2.4-1.5,5.6-0.6c3.2,0.9,4.3,3.9,4.3,3.9
			L423.9,477.2L423.9,477.2z"/>
		<path fill="#382624" d="M426.1,470.1c0,0-1.5-1.1-2.9-1.3c-2-0.4-4.7,0-4.7,0s1.9-0.7,3.7-0.8c2.5-0.1,3.8,0.7,3.8,0.7
			s0.1,0.3,0.1,0.8C426.2,469.9,426.1,470.1,426.1,470.1L426.1,470.1z"/>
	</g>
	<path fill="#F2881D" d="M275.4,322.7c-4.2,20.8-7.6,44.8,5.9,61.1c10,12,26.6,16.1,42.2,17.7c15.6,1.6,31.7,1.5,46.1,7.7
		c10.6,4.6,16.9,11.7,20.2,24.1c1.3,4.9,8.5,5.2,11.5,4.9c6.2-0.8,9.7-5.1,10.2-10c2.4-19.5-1.7-41.7-15.4-55.7
		c-6.2-6.4-14.3-10.6-22.4-14.2c-19.8-8.9-40.7-15.4-62-19.3c-12.6-2.3-26.5-3.4-37.3,3.6L275.4,322.7z"/>
	<path fill="#FFA912" d="M393.4,313.9c1.9,2.7,3.9,5.5,4.3,8.8c0.4,3.3-1.3,7.1-4.5,7.9c-2.3,0.6-4.7-0.5-6.8-1.6
		c-20.8-11.2-37.5-30-46.1-52c-1.7-4.3-3.1-8.8-3.2-13.5c-0.1-4.6,1.4-9.5,4.8-12.7c6-5.7,16.3-4.5,22.6,0.8
		c9.1,7.7,8.1,16.6,9.9,26.9C376.8,291.6,385.8,303.4,393.4,313.9z"/>
	<path fill="#FFA912" d="M222.7,270.1c-10,31.1-29.7,71-18.9,100c10.7,28.7,42.4,49.5,78.3,49.7c35.9,0.2,73.7-21.1,88.1-50.9
		c7.4-15.3,8.7-31.6,9.1-47.6c0.8-37.2-34.6-137.2-45.3-147.2c-13.8-12.9-23.4-17.2-44.8-14.5c-22,2.8-31.8,2.8-32.3,25.6
		C256.1,213.1,231.5,242.5,222.7,270.1z"/>
	<path fill="#FCD8BE" d="M334.1,175.3c-0.6-0.2-1.2-0.4-1.8-0.6c-8.6-2.4-18.2-1.2-27.3,1c-7.3,1.8-14.8,4.5-20.3,9.4
		c-3.7,3.3-7.4,9-6.7,13.6c0.8,5,4.9,4.2,7.5,9c6.3,11.7,9.1,25.2,9.6,38.5c0.6,16.7-2.4,33.7-6.7,50.3c-4.4,17.2-9.9,36.3-0.6,50.9
		c4.2,6.5,10.9,11.3,17.4,15.9c3.6,2.5,7.3,5.1,11.6,6.5c8.2,2.6,17.6,0.8,26.5-1.1c8.2-1.8,16.5-3.6,23.7-7.8
		c2.8-1.6,6.6-5.6,8.9-7.8C391.9,284.9,345.7,189.5,334.1,175.3z"/>
	<path fill="#60423E" d="M344.1,491.4c0.2,1.1,0.4,2.2,0,3.3c-0.6,1.9-2.7,2.8-4.5,3.4c-1.7,0.6-3.4,1.2-5.2,0.9
		c-1.9-0.3-3.5-1.8-4.4-3.5s-1.4-3.6-1.8-5.5c-3.5-15.8-5.9-31.9-10.7-47.4c-1.1-3.6-2.4-7.6-0.9-11.1c1.1-2.7,3.6-4.5,6.2-5.8
		c2.9-1.5,6.2-2.6,9.4-1.9c8.7,1.9,6.2,15.6,6.6,22c0.6,9.8,1.6,19.6,2.9,29.4C342.4,480.6,343.2,486,344.1,491.4z"/>
	<g>
		<path fill="#60423E" d="M346,486.3c1.4-0.2,5.9-0.6,7.9,1.7c0.8,0.9,1.7,2.4,1.3,3.8c1.8,1.3,1.2,4.7,0.8,5.3
			c-1,1.4-0.9,1.3-3.2,1.9c0.7,0.2,0.8,3.4-0.9,4.9c-3.1,2.6-9,2.3-13,2c-6.6-0.6-8-4.3-9-6.8c-1-2.5-1.2-5.3-1.2-8
			c0-1.9,0.1-4,1.1-5.6c1-1.6,2.8-2.6,4.6-2.9c2.2-0.4,7.7-3,8.1-0.7C342.8,483,342.1,487,346,486.3z"/>
		<path fill="#382624" d="M353,499c0,0-0.8-3-3.6-3.5c-2.8-0.5-4.2-0.4-4.2-0.4s2.4-1.5,5.6-0.6c3.2,0.9,4.2,3.9,4.2,3.9L353,499
			L353,499z"/>
		<path fill="#382624" d="M355.2,491.9c0,0-1.5-1.1-2.9-1.3c-2-0.4-4.7,0-4.7,0s1.9-0.7,3.7-0.8c2.5-0.1,3.8,0.7,3.8,0.7
			s0.1,0.3,0.1,0.8C355.3,491.8,355.2,491.9,355.2,491.9L355.2,491.9z"/>
	</g>
	<path fill="#F2881D" d="M263.8,224.6c5.6,3.2,10.4,7.8,15.2,12.1c9.9,8.9,20.9,17.2,33.7,21c17.7,5.3,37.2,1.1,53.8-7.1
		c-3.6-10.8-7.1-21.7-10.7-32.5c-2-6.1-4-12.2-7.6-17.5c-5.8-8.6-15.2-14.4-25.3-17c-10.1-2.5-20.7-2-30.9,0.1
		c-10.5,2.2-20.7,6.2-29.3,12.6c-6.5,4.8-12.6,11.2-16.1,18.6c-2.6,5.6-0.1,5.2,4.9,5.7C255.9,221,260.1,222.4,263.8,224.6z"/>
	<path fill="#EFC8AC" d="M295.1,249.8c5.5,3.6,12.6,6.8,18.9,8.7c17.7,5.3,36.9,0.7,53.5-7.5c-3.2-11.3-10.2-36.8-17.8-50.5
		c0-0.1-0.1-0.1-0.1-0.2c-5.8-8.6-15.2-14.4-25.3-17c-10.1-2.5-20.7-2-30.9,0.1c-2.8,0.6-5.6,1.3-8.3,2.2c-3.4,3.3-6.5,8.5-5.8,12.8
		c0.8,5,4.9,4.2,7.5,9c6.3,11.7,7.9,24.5,8.4,37.8C295.1,246.1,295.1,248.7,295.1,249.8z"/>
	<path fill="#EFC8AC" d="M420.9,166.5c-3.7-0.6-7.4-1.2-11.1-1.8c5.6,5.6,9.6,13.3,11,21.6c-5.7-0.7-11.4-1.7-17.1-3
		c8.5,8.6,13.7,21.1,14.2,33.9c-9.1-5-18.3-10-28.2-12.7c-14.5-3.9-29.9-2.5-44.4,1.9c0.1-7.2,3.1-14,6.3-20.3
		c6.2-12.1,13.6-23.5,22-33.9c5.3-6.5,16-20.3,24.5-13.9c4.5,3.4,8.5,8.7,12.2,13.2c1.9,2.4,3.7,4.8,5.5,7.3
		C416.7,159.9,419.8,166.3,420.9,166.5z"/>
	<path fill="#FCD8BE" d="M392.7,178c4-8.2,6.7-17.3,9.1-26.2c3.6-13.8,6.6-28.1,4.3-42.2c-1-5.6-2.8-11.1-6-15.9
		c-3.3-4.9-7.9-8.8-12.7-12.1c-17.5-11.9-39-17-60.2-16.8c-21.2,0.2-42,5.3-61.9,12.4c-20.8,7.4-41,17.4-56.8,33.1
		c-8.7,8.7-9.3,21-6.9,33c-3.9,4.5-7.6,9.1-10.7,14.3c-4.2,7.2-7.3,14.9-9.2,23c5.6-2.5,11.7-4,17.9-4.4c-2.7,9.3-4.5,18.8-5.3,28.4
		c11.2-3.6,23.1-5.4,35-5.4c-3.8,7.4-6.6,15.2-8.3,23.3c14.2-4.8,31.2-4,46.8-1.8c6.7,2.3,13.6,3.9,20.7,4.8
		c15.2,3.6,32.5,6.4,45.3,4.9c60.2-6.8,59.9-30.9,66.3-43C401.8,184.2,398.6,181,392.7,178z"/>
	<path fill="#60423E" d="M387,5.6c3-2.9,6.7-6,11.2-5.5c6.3,0.6,8.8,7.5,9.1,13c0.7,13.8-2.6,27.4-5.9,40.9
		c-2.9,11.7-5.8,23.4-8.7,35.1c-0.5,1.9-0.9,3.8-2.1,5.4c-2.3,3.3-6.8,4.9-11.3,5.1c-4.4,0.1-8.8-1.1-12.9-2.4
		c-10-3.2-19.9-7.2-27.4-13.8c-5.3-4.7-11.7-13.2-10.6-20.1c1-6.2,10.6-11.9,15.3-16.4C358.2,33,372.6,19.3,387,5.6z"/>
	<path fill="#FFA912" d="M393.6,12.6c1.2-1.8,2.8-3.8,4.9-3.5c3,0.4,3.2,4.7,2.6,7.7C397,36,393,55.2,389,74.3
		c-0.5,2.5-1.1,5.1-2.6,7.2c-2.6,3.5-7.5,4.8-11.7,4c-4.3-0.8-8-3.4-11.2-6.4c-12.5-11.6-6.1-20.3,3-30.7
		C376.2,37,385.3,25.1,393.6,12.6z"/>
	<path fill="#FCD8BE" d="M359.5,74.7c3.2,0.9,6.9,0.4,9.7-1.5c1.8-1.3,3.3-3.1,4.6-4.9c4-5.5,7.3-11.4,11.8-16.4
		c-1.3,0.6-2.7,1.1-4,1.7c2-2.4,4.2-4.5,6.7-6.4c-3.1-0.4-6.3,0.1-9.1,1.6c2.6-3.4,5.8-6.4,9.4-8.7c-3.7-0.4-7.3,1.1-10.7,2.5
		c2.9-3.3,6.3-6.3,10-8.7c-4.1,0.3-8.1,1.3-11.8,2.9c-3.1,3.9-6.3,7.8-9.6,11.6C358.5,57.5,352.7,65.2,359.5,74.7z"/>
	<path fill="#F7E9E2" d="M346.4,172.4c-3.5,1.1-6.8,3.2-8.7,6.3c-1.6,2.7-2.1,6-2.1,9.1c0,2.4,0.3,4.8,1.1,7.1
		c1.5,4,4.7,7.1,8.5,9.1c3.8,2,8.1,2.4,12.2,2.9c12.9,1.7,31.5,4.5,41.5-14.9c1.7-3.3,1.8-12.4-0.3-15.4c-2.8-4-7.7-5.8-12.5-6.9
		c-6.9-1.6-14.3-2.2-21.3-0.6C358.8,170.5,352.2,170.5,346.4,172.4z"/>
	<path fill="#EFC8AC" d="M385.5,133c4.8,0.6,9.8,2.9,14.1,0.6c1.4-0.7,2.6-1.9,3.5-3.2c6-7.8,4.2-23.2-2.8-30
		c-7-6.8-18.2-4.6-26.3,0.8c-2.9,1.9-5.3,4.5-7.4,7.3c-4.2,5.6-13,22.7-6.9,29.5c2.8,3.1,7.1,1.3,10.1-0.4
		C374.9,134.9,379.2,132.2,385.5,133z"/>
	<path fill="#EFC8AC" d="M231.2,128.9c18.9,10.2,41.8,6.5,63.1,9.2c14.7,1.9,29,7,41.6,14.8c-6.3-10.4-12.6-20.8-19.9-30.5
		c-3.6-4.9-7.5-9.6-12.2-13.4c-8.1-6.4-18.3-9.8-28.6-10.6c-10.3-0.8-20.6,0.9-30.6,3.6c-7.1,1.9-17.6,4.9-22.3,11
		C217.4,119.6,225.9,126.1,231.2,128.9z"/>
	<path fill="#60423E" d="M377.8,115.6c6.2-2.6,13.9-1.9,18.9,2.6c1.8,1.6,3.2,4,4,6.3c1.7,4.6,3.3,1.3,3.7,2.4
		c-1.5,7.1-5.3,16-11.6,19.6c-6.3,3.6-13.6,3.3-20.7,2.4c-3.9-0.5-8.6-2.6-11-5.8c-1.7-2.2-2.2-3.9-1.8-6.6
		C360.9,127.2,369.4,119,377.8,115.6z"/>
	<path fill="#FFFFFF" d="M385.9,117.4c2.8,0,5.7,0.5,8,2c2,1.3,4.4,4.7,4.2,10.2c-0.4,8.3-7.7,12.8-9.6,13.9
		c-3.5,2.1-13.8,3.8-18.9,2.3c-2.7-0.8-4-1.7-5-4.3c-1-2.6-0.9-5.5-0.2-8.2c0.5-2.1,1.5-4.2,1.7-6.4c0-0.4-0.2-0.9,0-1.3
		c0.1-0.4,0.7-0.7,1-0.9c0.7-0.6,1.5-1.2,2.3-1.8c3.1-2.2,6.7-3.8,10.4-4.7C381.7,117.6,383.8,117.4,385.9,117.4z"/>
	<path fill="#EDEDED" d="M398.1,129.6c0-0.5,0-1,0-1.5c-1.1,2.4-2.6,4.7-4.5,6.6c-2.7,2.7-6.3,4.6-10.1,4.8c-3.8,0.2-7.8-1.4-10-4.4
		c-2.1-2.9-2.6-6.7-2-10.2c0.2-1.4,0.6-2.7,1-4c-1.1,0.6-2.3,1.3-3.3,2c-0.8,0.6-1.5,1.2-2.3,1.8c-0.3,0.2-0.8,0.6-1,0.9
		c-0.1,0.4,0.1,0.9,0,1.3c-0.1,2.2-1.1,4.3-1.7,6.4c-0.7,2.7-0.8,5.6,0.2,8.2c1,2.6,1.9,4,4.5,4.8c5.1,1.5,17.7,1,21.4-0.8
		C393.6,143.9,398.8,140,398.1,129.6z"/>
	<path fill="#FFA912" d="M238.4,105.5c22.1-8.6,51.4-11.8,71.3,9.2c12.9,13.6,22.4,36.8,32.7,47.3c10.8,11,37.3,28.5,45.9,24
		c-1.7-3.1,10.2-5.3,6.7-8.2c-10.3-8.9-27.5-24.1-29.4-43.6c-0.8-7.9,6.7-23.8,12.6-29c10.8-9.6,23.4-10,28.5,12
		c-2.9-31.2-16.3-45.4-27.6-56c-26.9-25.2-74.8-26.6-97.4-22.9c-23,3.8-44.8,15.8-59.8,33.6c-11,13-26.6,45.8-20.5,71.5
		C210.5,118.4,230.1,108.8,238.4,105.5z"/>
	<path fill="#60423E" d="M376.4,177.3c-2.3,0.5-4.7,1.1-6.4,2.8c-2.2,2.1-2.7,5.7-1.2,8.3c1.5,2.6,5,3.9,7.9,3
		c1.2-0.4,2.2-1.1,3.4-1.5c1.2-0.4,2.6-0.4,3.5,0.4c1.2,1.1,1,3.2,2.1,4.4c0.9,1,2.6,1,3.7,0.3c1.2-0.7,1.9-1.9,2.4-3.2
		c0.5-1.3,0.8-2.6,1.3-3.8c0.2-0.4,0.5-0.9,0.9-0.8c0.3,0.1,0.4,0.4,0.6,0.6c0.5,0.5,1.5,0.3,1.9-0.3c0.5-0.6,0.6-1.3,0.7-2.1
		c0.2-2.7-0.2-5.8-2.3-7.5c-1.5-1.3-3.7-1.6-5.7-1.7C384.8,175.9,380.7,176.3,376.4,177.3z"/>
	<g>
		
			<ellipse transform="matrix(0.9951 9.841882e-002 -9.841882e-002 0.9951 14.7543 -37.3426)" fill="#231F20" cx="385.9" cy="130.9" rx="11.4" ry="12.5"/>
		<path fill="#FFFFFF" d="M378.7,126c-0.2,0.6-0.4,1.3-0.3,2c0.1,0.7,0.4,1.3,1,1.6c0.7,0.3,1.6,0,2.2-0.5c0.6-0.5,1.2-1.2,1.8-1.7
			c0.6-0.5,1.4-0.8,2.1-0.9c0.8-0.1,1.7,0,2.3-0.6c0.7-0.6,0.7-1.9,0.2-2.7C385.7,119.5,379.9,122.6,378.7,126z"/>
	</g>
	<path fill="#60423E" d="M185.1,19.3c-0.8-3.9-1.4-8.3,1.1-11.4c1.3-1.7,3.3-2.6,5.4-3.1c7.4-1.8,15,2.1,21.4,6.3
		c12.7,8.3,24.1,18.3,35.4,28.4c4.1,3.7,8.4,7.7,9.4,13.1c0.7,4.2-0.8,8.5-2.8,12.3c-8.6,16-25.2,25-38.9,35.9
		c-1.9,1.5-6.9,9.7-11.8,7.3c-2.6-1.3-4-12.9-4.4-15.7c-2.1-12.8-4-23-6.7-34.6C190.3,45.1,187.6,32.2,185.1,19.3z"/>
	<path fill="#FFA912" d="M193.5,14.5c-0.7,2.5,0,5.2,0.7,7.7c1.7,6.3,3.3,12.5,5,18.8c3.5,13.3,7.1,26.7,13.3,39
		c2,4,4.5,8.1,8.3,10.3c4.5,2.6,10.1,2.4,15,0.9c10-3.1,18.5-11.9,19.7-22.4c1.3-11.8-6.2-22.7-14.9-30.7
		c-7.5-7-16.1-12.7-24.9-17.9C211.2,17.7,196,5.4,193.5,14.5z"/>
	<path fill="#FCD8BE" d="M240.8,38.2c-1.1-1-2.3-2-3.4-3c-1.3-0.4-2.8-0.8-4.5-1.1c-4.1-0.7-8.4-0.7-12.5,0.1
		c-2.1,0.4-4.1,0.9-6,1.7c-1.5,0.6-3.9,2.5-5.4,2.7c4-0.3,8.1,0,12,1.1c-4.6,1.9-8.6,4.9-11.8,8.7c8-1.3,16.5,0.6,23,5.4
		c-7.1,0.6-14.1,2.9-20.2,6.5c4.3,0,8.6,0.8,12.6,2.4c-4.4,2-7.8,5.9-9.4,10.5c8.5-3.5,18.1-6.9,26.6-3.5c2.2,0.9,4.5,2.3,6.9,1.8
		c2.1-0.4,3.7-2.2,4.9-4c0.8-1.3,1.5-2.6,1.9-4C254.5,53.8,248,45,240.8,38.2z"/>
	<path fill="#E08119" d="M256.7,87c-1.3,1.3-2.5,2.9-2.2,4.6c0.4,2.3,3.4,3.3,5.8,2.8c2.4-0.5,4.4-2,6.5-3.2c3.8-2,8.1-2.7,12.3-3.1
		c1.4-0.2,2.9-0.3,4.2-0.8c1.3-0.6,2.5-1.6,2.8-3c0.3-1.6-0.8-3.2-2.2-4c-1.4-0.8-3.2-1-4.9-1C271.6,79.3,262.1,81.7,256.7,87z"/>
	<path fill="#E08119" d="M375.3,79.1c-1.5,0.4-3.2,1.3-3.9,2.9c-0.9,2.2,0.6,4.5,2.4,5.2c1.9,0.7,4,0.4,6,0.5
		c3.6,0.1,6.8,1.6,9.9,3.3c1,0.6,2.1,1.2,3.3,1.3c1.2,0.2,2.6-0.2,3.4-1.2c1-1.2,1.1-3.1,0.6-4.5c-0.6-1.4-1.6-2.4-2.8-3.2
		C389.4,79.7,381.7,77.2,375.3,79.1z"/>
	<g>
		<path fill="#60423E" d="M255.7,127.5c5.8-5.6,10.9-8.8,18.7-10.6c7.8-1.8,16.4-1.3,23.3,2.8c6.3,3.7,10.8,9.9,15,15.9
			c2.3,3.3,4.7,6.7,6.5,10.4c0.3,0.7,0.6,1.5,0.3,2.1c-0.2,0.4-0.6,0.6-1,0.8c-3.5,1.9-7.2,3.1-11,4.2c-13.7,4-28.8,5.6-41.8-0.1
			c-7.2-3.2-13.2-8.4-18.7-13.8c-1.4-1.4-2.8-2.7-4.1-4.2c-1.2-1.4-2.1-2-0.3-2.8C244.1,131.4,248.9,134,255.7,127.5z"/>
		<path fill="#FFFFFF" d="M261.2,128.2c3.1-4.7,10.6-8.3,14.2-9c26.8-5.4,39.4,22,38.9,27.7c-0.3,3.2-14,6.6-16.6,7.2
			c-7,1.4-26.6,3.2-35.1-5.6C260.2,145.9,255.5,137.1,261.2,128.2z"/>
		<path fill="#EDEDED" d="M313.1,142.2c-0.3,3.2-14,6.6-16.6,7.2c-7,1.4-26.6,3.2-35.1-5.6c-0.8-0.9-2-2.5-2.8-4.6
			c0.4,4.7,2.7,8.4,4.1,9.9c8.5,8.8,28.1,7,35.1,5.6c2.6-0.5,16.3-3.9,16.6-7.2c0.1-1.1-0.3-3.1-1.3-5.6
			C313.2,142,313.2,142.1,313.1,142.2z"/>
		<g>
			
				<ellipse transform="matrix(0.9718 -0.2359 0.2359 0.9718 -24.4737 73.4047)" fill="#231F20" cx="294.5" cy="139" rx="12.7" ry="14"/>
			<path fill="#FFFFFF" d="M285.1,136.5c0,0.7,0.1,1.5,0.4,2.2c0.3,0.7,0.9,1.2,1.6,1.3c0.9,0.1,1.7-0.5,2.2-1.3
				c0.5-0.8,0.8-1.7,1.3-2.4c0.5-0.8,1.1-1.4,1.9-1.8c0.8-0.4,1.8-0.6,2.2-1.5c0.5-0.9,0.1-2.3-0.8-3
				C290.1,127.1,285.2,132.4,285.1,136.5z"/>
		</g>
	</g>
	<path fill="#FFB845" d="M342,128c-0.9,1.2-1,2.9-0.9,4.4c0.5,8.9,7,16.1,13.1,22.6c2.1,2.3,4.3,4.5,6.4,6.8c2,2.2,4.5,4.5,7.5,4.3
		c0.7-2.2-0.1-4.6-1.4-6.5c-1.3-1.9-3.1-3.4-4.6-5.2c-2.6-3-4.6-6.6-5.7-10.5c-0.9-3.5-1.2-7.1-2.6-10.4
		C352.5,130.1,345.3,123.5,342,128z"/>
	<path fill="#60423E" d="M352.7,227.4c-0.8,0-16.5-0.6-24.1-7c-5.4-4.5-8.6-9.8-8.6-9.8s1.5,5.8,6.4,11.8c5,6.1,15.4,6.7,16.3,6.6
		C348.9,228.2,352.7,227.4,352.7,227.4z"/>
	<g>
		<path fill="#60423E" d="M386.9,188.9c-0.3,3.8-0.7,7.8-2.7,11.1c-2,3.2-5.5,4.6-9,5.3c-4,0.8-8.2,1-12.2,1
			c-4.4-0.1-8.9-0.7-13-2.4c-2-0.9-3.7,2.1-1.7,2.9c7.2,3.2,15.2,3.3,22.9,2.5c6.6-0.6,13.7-2.5,16.8-8.9c1.7-3.6,2.1-7.6,2.5-11.5
			C390.5,186.7,387.1,186.7,386.9,188.9L386.9,188.9z"/>
	</g>
	<g>
		<path fill="#60423E" d="M387.4,192c-0.6,1.8-1,3.7-1.1,5.7c0,1,0,2,0.1,3c0.1,1,0.7,2.1,1.4,2.9c1.5,1.7,5.8-3,7.1-4.6
			c0.8-1,1.6-2.5,1.5-2.6c-0.8-0.6-1.1,0.2-2.4,1.2c-1.1,0.9-3.2,3.8-4,3.1c-0.3-0.3-0.3-1.9-0.2-3.5c0-0.4,0.1-0.7,0.1-1.1
			c0-0.2,0.1-0.4,0.1-0.5c0,0.3,0-0.2,0.1-0.3c0.2-0.8,0.4-1.5,0.6-2.3c0.3-0.8-0.2-1.9-1.1-2.1C388.6,190.7,387.7,191.1,387.4,192
			L387.4,192z"/>
	</g>
	<path fill="#F7E9E2" d="M232,177.9c6.4-1.2,12.9-2.5,19.5-2.2c-5.1,4.5-9.3,10.1-12,16.3c7.3-5.1,15.9-8.1,24.8-8.6
		c-4.8,4-8.4,9.3-10.3,15.2c15.2-19.1,40.2-30.1,64.6-28.4c-21.3-10.6-47.4-11.7-69.3-2.3c-3.1,1.3-6,2.8-8.9,4.5
		C238,173.6,234.4,177.5,232,177.9z"/>
	<path fill="#60423E" d="M435.1,328.8c2.1,0.8,4.4,2.1,4.3,4.8c-0.1,2.4-2.3,4.9-4.5,5.8c-2.2,1-4.4,0.8-6.5,0.6
		c-15.7-1.5-31.3-4.1-44-12.2c-4.2-2.7-6.5-9,0.4-13.5c4.8-3.1,8.1,0.7,11.5,2.6C407.9,323.7,422.5,324.1,435.1,328.8z"/>
	<path fill="#F2881D" d="M268.1,300.8c-5.3-35.1-16.1-36-19.5-35.1c-1.1,0.3,6.5,10.8,6,12.4c-1.1,4.1-0.7,9-0.1,13.6
		c1.5,11.3,4,22.5,7.4,33.1c2.3,7,5.2,14,9.6,18c1.6,1.5,4.3,2.6,5.3-0.5c0.7-2.5-0.9-6.5-1.5-8.9
		C273.2,324.6,269.5,309.8,268.1,300.8z"/>
	<path fill="#FFA912" d="M270.6,332.6c1.2,3.1,2.4,6.3,2,9.6c-0.4,3.3-3,6.6-6.3,6.5c-2.4,0-4.4-1.7-6.2-3.3
		c-17.4-16-28.9-38.3-31.9-61.8c-0.6-4.6-0.8-9.3,0.2-13.9c1.1-4.5,3.7-8.8,7.7-11.1c7.2-4.1,16.9-0.4,21.7,6.3
		c6.9,9.7,3.7,18.1,3,28.5C260.1,306.8,265.9,320.5,270.6,332.6z"/>
	<path fill="#F2881D" d="M269.1,343.3c-17.4-16-28.9-38.3-31.9-61.8c-0.6-4.6-0.8-9.3,0.2-13.9c1-4.2,3.4-8.2,6.9-10.6
		c-2.6-0.2-5.3,0.3-7.6,1.6c-4,2.3-6.7,6.6-7.7,11.1c-1.1,4.5-0.8,9.2-0.2,13.9c3,23.5,14.5,45.7,31.9,61.8c1.7,1.6,3.8,3.2,6.2,3.3
		c2.1,0,4-1.4,5.1-3.2C270.9,344.9,270,344.1,269.1,343.3z"/>
	<path fill="#F2881D" d="M250.7,363.7c5.4-3,11.8-3.9,18-3.9c17.9,0.1,35,7.9,49.3,18.6c5.5,4.1,10.8,8.8,13.8,14.9
		c3,6.1,3.3,14-0.9,19.5c-3,3.9-7.8,6-12.5,7.1c-16.1,3.9-33.1-1.7-47.4-9.9c-7.8-4.5-15.2-9.8-22-15.7
		c-4.3-3.8-10.9-10.1-10.1-16.4C239.7,372.3,246.2,366.2,250.7,363.7z"/>
	<path fill="#FFA912" d="M202.9,340.4c-4.2,20.8-7.6,44.8,5.9,61.1c10,12,26.6,16.1,42.2,17.7c15.6,1.6,31.7,1.5,46.1,7.7
		c10.6,4.6,17.7,11.3,21.6,23.5c0.9,2.9,7.1,4.9,10.1,5.4c4.9,0.8,10.4-5.3,11-10.2c2.4-19.5-2.4-41.4-16.1-55.5
		c-6.2-6.4-14.3-10.6-22.4-14.2c-19.8-8.9-40.7-15.4-62-19.3c-12.6-2.3-26.5-3.4-37.3,3.6L202.9,340.4z"/>
	<path fill="#231F20" d="M382.6,347.5c0.7,0,231.1-84.5,231.1-84.5l1.8,4.3l-232.3,85.6L382.6,347.5z"/>
	<path fill="#875D59" d="M421.3,330.6c1-1.6,3.5-2,5-0.7c-1.4-1.5-0.9-4.3,0.8-5.4c1.7-1.1,4.3-0.6,5.6,1c-0.7-1,0.4-2.5,1.6-2.6
		c1.2-0.2,2.4,0.6,3.2,1.4c2.5,2.5,3.7,6.3,3.1,9.8c-0.5,3.5-2.6,6.7-5.6,8.7c-1.3,0.9-2.7,1.5-4.2,1.7c-2.1,0.1-4.1-0.8-5.6-2.2
		C423.3,340.4,419.6,333.4,421.3,330.6z"/>
	<path fill="#60423E" d="M309,367.6c1.6,1.6,3.1,3.7,2,6.1c-1.1,2.2-4.1,3.5-6.5,3.5c-2.4,0-4.4-1.1-6.2-2.1
		c-13.7-7.8-26.9-16.6-35.1-29.1c-2.7-4.2-2.3-10.9,5.9-12.2c5.6-0.8,7.1,3.9,9.4,7.1C286.3,351.8,299.5,358.1,309,367.6z"/>
	<path fill="#60423E" d="M299.8,379.4c0.4,1.1,0.7,2.3,1.3,3.3c0.6,1,1.6,1.9,2.7,2c1.2,0.1,2.4-0.9,2.2-2.1c0.5,2,2.2,3.8,4.3,3.9
		c2,0.1,4.1-1.9,3.6-3.9c0.5,0.5,0.7,1.3,1.1,1.8c0.5,0.6,1.3,0.9,1.9,0.4c0.2-0.2,0.3-0.5,0.4-0.8c0.4-2-0.3-4-1.2-5.8
		c-1.8-3.9-4.3-7.6-7.4-10.7c-1-1-2.1-2-3.4-2.5c-1-0.5-2.2-0.6-3.3-0.7c-1.5-0.2-3.1-0.2-4.5,0.2c-2.8,0.8-4.9,4-3.4,6.8
		c0.7,1.2,1.9,2.2,2.8,3.2C298.1,375.9,299.1,377.5,299.8,379.4z"/>
	<g>
		<path fill="#231F20" d="M598.7,269c2.8,28.6,4.7,57.2,5.7,85.9c1.1,28.6,1.3,57.2,0.7,85.8c-0.4,16.1-1,32.2-1.9,48.3
			c-0.1,2.3,3.4,2.3,3.6,0c1.6-28.7,2.3-57.4,2.2-86.1c-0.1-28.6-1.1-57.2-2.9-85.8c-1-16.1-2.3-32.2-3.9-48.2
			C602.1,266.8,598.5,266.7,598.7,269L598.7,269z"/>
	</g>
	<g>
		<path fill="#E2441A" d="M622.1,501c0,0,1.6-14.4,6.2-18.9c4.2-4.2,7.6-5.8,7.6-5.8s8.3,3.7,10.9,9.7c3.1,7.2,3.6,15,3.6,15
			s-4.2,4.4-12.9,4.8C628.8,506.3,622.1,501,622.1,501z"/>
		<path fill="#FFFFFF" d="M625,487.9c0,0,5.1,3.2,10.9,2.9c6.3-0.3,11.7-2.4,11.7-2.4l0.7,2.1c0,0-7.6,2.6-12.4,2.6
			c-8.2,0-11.7-2.8-11.7-2.8L625,487.9L625,487.9z"/>
		<path fill="#FFFFFF" d="M635.3,476.6c0,0,1-9.4,1-9.4h0.7v9.6L635.3,476.6L635.3,476.6z"/>
		<path opacity="0.37" fill="#FFFFFF" d="M626.7,492.1c0,0.8,0,1.5,0.2,2.2c0.3,0.7,0.9,1.3,1.7,1.3c1.1,0,1.9-1,2.1-2
			c0.3-1,0.1-2.1,0.4-3.2c0.4-1.6,1.6-2.8,2.7-4c1.2-1.3,2.9-3.4,2-5.3c-1-2-3.1-0.7-4.2,0.3C628.6,484.1,626.9,488.2,626.7,492.1z"
			/>
	</g>
	<g>
		<path fill="#B9DFEA" d="M615.8,497.3c-4.1,0.7-8.1,2-11.8,3.9c-1.5,0.7-3,1.6-3.2,3.4c-0.2,1.7,0.7,3.2,2,4.2
			c2.9,2.3,7,2.9,10.6,3.2c4.4,0.4,8.9,0.4,13.3,0.5c1.5,0.1,1.5-2.3,0-2.4c-3.6-0.1-7.2-0.2-10.8-0.4c-3.2-0.2-6.6-0.5-9.6-1.8
			c-1.2-0.5-2.9-1.3-3.1-2.7c-0.3-1.6,2.5-2.4,3.6-2.9c3.1-1.3,6.4-2.3,9.7-2.9C617.9,499.3,617.3,497,615.8,497.3L615.8,497.3z"/>
	</g>
	<g>
		<path fill="#B9DFEA" d="M588.8,500.7c-4.1,1.7-10,7.6-6,12.1c1.7,1.9,4.5,2.6,6.8,3.2c2.9,0.8,5.9,1.3,8.9,1.5
			c1.5,0.1,1.5-2.3,0-2.4c-2.5-0.2-5-0.6-7.5-1.2c-2-0.5-4.3-1-6-2.3c-1.8-1.4-1.1-3.5,0-5.2c1.2-1.7,3-3,4.9-3.8
			c0.6-0.3,0.7-1.1,0.4-1.6C590.1,500.5,589.4,500.5,588.8,500.7L588.8,500.7z"/>
	</g>
	<g>
		<path fill="#B9DFEA" d="M655.2,493.5c2.5,0.3,5.2,1.1,6.7,3.3c1.5,2.2,1,4.6-0.8,6.4c-3.9,3.8-10,4.9-15.2,5.1
			c-1.5,0.1-1.5,2.4,0,2.4c5.2-0.2,10.7-1.2,15-4.3c1.9-1.3,3.7-3.2,4.2-5.5c0.4-2.4-0.5-4.7-2.1-6.4c-2-2.1-5-2.9-7.8-3.2
			C653.7,491,653.7,493.3,655.2,493.5L655.2,493.5z"/>
	</g>
	<g>
		<path fill="#B9DFEA" d="M657.7,513.8c3.5-1.5,7.3-2,10.6-4c2.9-1.8,5.3-4.8,5-8.4c-0.1-1.5-2.5-1.5-2.4,0c0.3,3.2-2.1,5.5-4.7,6.8
			c-3.1,1.6-6.6,2.1-9.8,3.5c-0.6,0.2-0.7,1.1-0.4,1.6C656.4,514,657.1,514.1,657.7,513.8L657.7,513.8z"/>
	</g>
	<g>
		<path fill="#B9DFEA" d="M525.8,493.2c1.2-2.6,5.6-2.8,8-3.2c3.6-0.6,7.3-0.7,10.9-0.5c6.8,0.4,13.9,3.5,20.7,1.5
			c1.5-0.4,0.8-2.7-0.6-2.3c-3.7,1.1-7.6,0.4-11.3-0.3c-3.7-0.7-7.4-1.3-11.2-1.3c-3.8-0.1-7.6,0.3-11.2,1c-2.7,0.5-6,1.2-7.3,3.9
			C523.1,493.4,525.2,494.6,525.8,493.2L525.8,493.2z"/>
	</g>
	<g>
		<path fill="#B9DFEA" d="M567.8,479c5-0.4,10-0.4,15-0.1c1.5,0.1,1.5-2.3,0-2.4c-5-0.3-10-0.3-15,0.1
			C566.3,476.7,566.3,479.1,567.8,479L567.8,479z"/>
	</g>
	<g>
		<path fill="#B9DFEA" d="M424.1,529.1c2-0.1,3.6,1.2,5.5,1.6c2,0.5,4,0.3,6-0.1c2-0.4,4-0.9,6.1-1.2c2.2-0.3,4.4-0.4,6.6-0.3
			c4.4,0.1,8.7,0.7,13,1.3c4.4,0.6,8.9,1.3,13.3,1.9c1.5,0.2,2.1-2.1,0.6-2.3c-4.4-0.6-8.9-1.3-13.3-1.9c-4.4-0.6-8.7-1.3-13.2-1.4
			c-4.4-0.1-8.6,0.5-12.9,1.4c-2.1,0.5-4.3,0.8-6.4,0.1c-1.8-0.6-3.3-1.6-5.3-1.5C422.6,526.8,422.6,529.2,424.1,529.1L424.1,529.1z
			"/>
	</g>
	<g>
		<path fill="#B9DFEA" d="M503.4,535.5c8.6-1.1,17.3-1.2,25.9-0.4c1.5,0.2,1.5-2.2,0-2.4c-8.6-0.9-17.3-0.8-25.9,0.4
			C501.9,533.3,501.8,535.7,503.4,535.5L503.4,535.5z"/>
	</g>
	<g>
		<path fill="#B9DFEA" d="M615.2,535.9c2.7-0.9,5.6-1.2,8.4-0.7c0.6,0.1,1.3-0.2,1.5-0.8c0.2-0.6-0.2-1.3-0.8-1.5
			c-3.2-0.6-6.5-0.4-9.7,0.7c-0.6,0.2-1,0.8-0.8,1.5C613.9,535.6,614.6,536.1,615.2,535.9L615.2,535.9z"/>
	</g>
	<g>
		<path fill="#B9DFEA" d="M541.7,515.1c3.3-0.1,6.6-0.5,9.8-1.2c0.6-0.1,1-0.9,0.8-1.5c-0.2-0.6-0.8-1-1.5-0.8
			c-3,0.7-6.1,1.1-9.2,1.1C540.2,512.7,540.2,515.1,541.7,515.1L541.7,515.1z"/>
	</g>
	<g>
		<path fill="#B9DFEA" d="M673.2,475.3c6.7-3.4,14.4-1.5,21.4-0.2c3.7,0.7,7.5,1.1,11.3,1c4-0.1,7.9-0.7,11.9-1.2
			c1.5-0.2,0.9-2.5-0.6-2.3c-4.1,0.6-8.3,1.1-12.5,1.2c-4,0-7.8-0.7-11.7-1.4c-6.9-1.3-14.3-2.5-20.9,0.9
			C670.7,473.9,671.9,475.9,673.2,475.3L673.2,475.3z"/>
	</g>
	<g>
		<path fill="#B9DFEA" d="M724,481.4c3.4,0.2,6.9,0,10.3-0.6c0.6-0.1,1-0.9,0.8-1.5c-0.2-0.7-0.8-0.9-1.5-0.8
			c-3.2,0.5-6.4,0.7-9.6,0.5c-0.6,0-1.2,0.6-1.2,1.2C722.8,480.9,723.3,481.3,724,481.4L724,481.4z"/>
	</g>
	<g>
		<path fill="#B9DFEA" d="M567.1,455.5c3.4-0.2,6.8-0.1,10.2,0.4c0.6,0.1,1.3-0.2,1.5-0.8c0.2-0.6-0.2-1.4-0.8-1.5
			c-3.6-0.5-7.2-0.7-10.8-0.4c-0.6,0-1.2,0.5-1.2,1.2C565.9,454.9,566.5,455.6,567.1,455.5L567.1,455.5z"/>
	</g>
	<g>
		<path fill="#B9DFEA" d="M563.1,546c6.5-0.6,13-0.6,19.4,0.1c1.5,0.2,1.5-2.2,0-2.4c-6.5-0.7-13-0.7-19.4-0.1
			C561.6,543.8,561.6,546.1,563.1,546L563.1,546z"/>
	</g>
	<g>
		<path fill="#B9DFEA" d="M666.2,544.6c3.6,0.2,7.3,0.4,10.9,0.6c0.6,0,1.2-0.6,1.2-1.2c0-0.7-0.5-1.1-1.2-1.2
			c-3.6-0.2-7.3-0.4-10.9-0.6c-0.6,0-1.2,0.6-1.2,1.2C665,544,665.6,544.5,666.2,544.6L666.2,544.6z"/>
	</g>
</g>
</svg>
