<?xml version="1.0" encoding="utf-8"?>
<!-- Generator: Adobe Illustrator 17.1.0, SVG Export Plug-In . SVG Version: 6.00 Build 0)  -->
<!DOCTYPE svg PUBLIC "-//W3C//DTD SVG 1.1//EN" "http://www.w3.org/Graphics/SVG/1.1/DTD/svg11.dtd">
<svg version="1.1" id="Layer_1" xmlns="http://www.w3.org/2000/svg" xmlns:xlink="http://www.w3.org/1999/xlink" x="0px" y="0px"
	 width="436.7px" height="535.5px" viewBox="0 0 436.7 535.5" enable-background="new 0 0 436.7 535.5" xml:space="preserve">
<g>
	<path fill="#FFA912" d="M236.8,237.3c-13.3-15.7-27.5-24.3-47.8-28c-2.6-0.5-7.9,7.1-10.2,8.2c-2.8,1.3-4.3,4.5-5.2,7.4
		c-1.3,3.9-2,7.9-2.2,12c-0.2,3.3,0.1,6.9,1.9,9.7c1.3,2,3,4.6,5.3,4.6c8.7,0.1,18.2,3.3,28.3,8.6c8.1,4.3,18.8,16.4,22,25.3
		c2.9,8.1-1,16.8,6.9,22.6c18.9,13.9,20.5-19.6,18.7-30.4C252.5,265.8,244.3,246.1,236.8,237.3z"/>
	<path fill="#FFA912" d="M33,239.6c13.9-15.2,28.4-23.3,48.7-26.3c2.6-0.4,7.6,7.3,9.9,8.5c2.8,1.4,4.1,4.6,5,7.6
		c1.1,3.9,1.7,8,1.8,12.1c0.1,3.4-0.3,6.9-2.3,9.6c-1.4,1.9-3.1,4.5-5.5,4.4c-8.7-0.2-18.3,2.6-28.5,7.6c-8.3,4-19.4,15.8-22.9,24.5
		c-3.2,8,0.4,16.8-7.7,22.3c-19.4,13.2-19.8-20.3-17.6-31.1C16.3,267.5,25.1,248.2,33,239.6z"/>
	<path fill="#60423E" d="M198.9,515c1.3,0,5.6,0.5,7,3.1c0.5,1,1.2,2.5,0.6,3.8c1.5,1.5,0.2,4.6-0.2,5.1c-1.2,1.1-1.1,1-3.3,1.2
		c0.6,0.3,0.1,3.3-1.7,4.4c-3.3,1.9-8.8,0.5-12.4-0.6c-6-1.8-6.6-5.5-7.1-8c-0.5-2.5-0.2-5.2,0.3-7.7c0.3-1.8,0.8-3.7,2.1-5
		c1.2-1.3,3-1.9,4.8-1.9c2.1,0.1,7.7-1.4,7.6,0.9C196.4,511.3,195.2,514.9,198.9,515z"/>
	<path fill="#60423E" d="M196.2,519.4c0,1,0,2.2-0.6,3.1c-0.9,1.6-3,2.1-4.9,2.4c-1.7,0.3-3.4,0.5-5-0.1c-1.7-0.7-2.9-2.3-3.5-4.1
		c-0.6-1.7-0.7-3.6-0.7-5.5c-0.4-15.3,0.2-30.7-1.4-46c-0.4-3.6-0.8-7.5,1.2-10.5c1.5-2.3,4.2-3.5,6.8-4.3c3-0.9,6.3-1.3,9.1,0
		c7.7,3.4,2.9,15.6,2.2,21.7c-1.2,9.2-2.1,18.5-2.6,27.8C196.5,509.1,196.3,514.2,196.2,519.4z"/>
	<path fill="#382624" d="M202.9,528.1c0,0-0.1-2.9-2.6-4c-2.5-1.1-3.8-1.3-3.8-1.3s2.5-0.9,5.3,0.6c2.8,1.5,3.1,4.5,3.1,4.5
		L202.9,528.1L202.9,528.1z"/>
	<path fill="#382624" d="M206.4,521.9c0,0-1.1-1.3-2.4-1.9c-1.8-0.8-4.3-1-4.3-1s1.9-0.3,3.6,0.1c2.3,0.4,3.4,1.5,3.4,1.5
		s0,0.3-0.1,0.8C206.5,521.8,206.4,521.9,206.4,521.9L206.4,521.9z"/>
	<path fill="#FFA912" d="M290.7,332c24.1,2,46.9,11.7,70.6,16.3c23.7,4.6,51,3.2,68.5-13.5c0.1,14.8-8.7,28.3-18.7,39.2
		c-36.5,39.6-92.8,57.4-146.6,54.9c-16.8-0.8-34-3.5-48.5-12.1c-11.4-6.8-21.1-17.9-24.3-31c-3.4-13.6,9.6-22.4,19.6-30
		C233.7,338.6,262.5,329.6,290.7,332z"/>
	<path fill="#F2881D" d="M410.3,346.4c-0.8,1-1.7,1.9-2.5,2.8c-36.5,39.6-92.8,57.4-146.6,54.9c-16.8-0.8-34-3.5-48.5-12.1
		c-7.8-4.6-14.7-11.2-19.4-19.1c-2.1,3.8-2.9,8-1.7,12.8c3.3,13.1,12.9,24.2,24.3,31c14.5,8.6,31.7,11.4,48.5,12.1
		c53.8,2.5,110-15.3,146.6-54.9c10.1-10.9,18.9-24.4,18.7-39.2C424.2,340.1,417.5,343.9,410.3,346.4z"/>
	<path fill="#FFA912" d="M201.8,460.3c-8,7.1-20.1,6.1-21.6,4.7c-1.1-1.1-1.8-2.4-2.3-3.8c-3.8-9.1-6.5-18.5-10.6-27.5
		c-4.1-9-10.1-11.5-23.8-12.4c-4.9-0.3,0-21.9,0.9-23c5.8-7.4,15.1-12.1,23.5-17.2c13.2-8,25.1-17.5,35.3-28.3
		c5.4-5.7,12.6-7,16,4.3C221.8,365.9,205.5,457,201.8,460.3z"/>
	<path fill="#60423E" d="M91.3,517.3c-1.3,0.2-5.5,1-6.7,3.7c-0.5,1-1,2.6-0.2,3.8c-1.3,1.6,0.2,4.6,0.7,5c1.2,1,1.1,0.9,3.4,0.9
		c-0.6,0.4,0.1,3.3,2.1,4.2c3.5,1.6,8.8-0.3,12.3-1.7c5.8-2.3,6.1-6,6.4-8.6c0.3-2.6-0.3-5.2-1-7.6c-0.5-1.8-1.1-3.6-2.5-4.8
		c-1.3-1.2-3.2-1.7-5-1.5c-2.1,0.3-7.8-0.7-7.5,1.5C93.4,513.4,95,516.8,91.3,517.3z"/>
	<path fill="#60423E" d="M94.4,521.4c0.1,1,0.2,2.1,0.8,3c1.1,1.5,3.2,1.8,5,1.9c1.7,0.1,3.5,0.2,5-0.5c1.7-0.8,2.7-2.6,3.1-4.3
		c0.4-1.8,0.3-3.7,0.2-5.5c-1-15.3-2.9-30.6-2.6-45.9c0.1-3.6,0.2-7.5-2.1-10.4c-1.7-2.1-4.5-3.1-7.2-3.7c-3-0.6-6.3-0.7-9.1,0.8
		c-7.4,4-1.6,15.8-0.3,21.8c2,9.1,3.7,18.3,5.1,27.5C93.2,511.1,93.8,516.3,94.4,521.4z"/>
	<path fill="#FFA912" d="M84,466.9c8.9,6.2,20.8,3.9,22.1,2.4c1-1.2,1.4-2.6,1.8-4c2.5-9.4,3.9-19.1,6.7-28.5
		c2.8-9.4,10.5-13.3,24-15.7c4.8-0.8-5.1-20.9-6.2-21.9c-6.8-6.7-16.6-10.4-25.7-14.6c-14.2-6.5-27.3-14.7-39-24.3
		c-6.1-5-13.5-5.6-15.3,5.9C50.9,375.4,79.8,464.1,84,466.9z"/>
	<path fill="#FFA912" d="M189.9,252.1c-8.8-24.3-9.5-38.8-9.5-38.8l-44.4,15.3l-44.4-15.3c0,0-0.7,14.5-9.5,38.8
		c-8.8,24.3-41.1,89.6-26.6,130.4c6.1,17.3,45.9,37.1,83.1,38.6c41.7,1.7,71.7-16.1,77.7-34.7C229.5,345.2,198.7,276.4,189.9,252.1z
		"/>
	<path fill="#F2881D" d="M148.6,258.9c9.9-2.2,18.4-8.6,26.1-15.2c3.6-3.1,7.4-6.6,8.4-11.3c0.1-0.6,0.2-1.2,0.2-1.8
		c-0.6-2.4-1.1-4.7-1.5-6.6c-1.9-3.7-5.2-6.7-9-8.5c-0.1-0.1-0.3-0.1-0.4-0.2L135.8,228l-37-12.7c-2.7,1.1-5.9,2.6-8.3,4.7
		c-0.4,2.7-1.1,6.1-2.1,10.1c2.1,4.3,6.6,8.8,9.4,11.6c4.4,4.5,9.6,8.3,15.2,11.2c6.2,3.3,12.9,5.5,19.9,6.4
		C138.1,260,143.4,260,148.6,258.9z"/>
	<path fill="#FFB845" d="M214.5,371.8c2.8,2.5,7,2.7,10.6,1.7c3.6-1,6.8-3.1,10-4.8c9.1-4.9,19.3-7.4,29.6-7.4
		c6.8,0,13.8,1.1,20.4-0.5c2.9-0.7,5.9-2.1,7.4-4.8c2.1-3.9-0.3-8.9-4-11.3c-3.7-2.3-8.3-2.6-12.7-2.6c-13.4,0.2-26.7,2.9-39.1,7.9
		C231,352.4,204.1,362.4,214.5,371.8z"/>
	<path fill="#FCD8BE" d="M96.4,281.3c-4.1,11.9-7,24.1-8.8,36.5c-2.2,15.5-1.9,33.3,9.2,44.3c8.5,8.5,21.3,10.7,33.3,11.8
		c9.6,0.9,19.4,1.2,28.8-0.9c9.4-2.1,18.5-6.9,24.2-14.7c8.5-11.6,8-27.7,3.5-41.4c-4.5-13.7-12.3-26-17.8-39.2
		c-4.6-11.1-7.6-22.9-8.7-34.9c-0.3-2.9,0.4-14.8-2-16.5c-1.6-1.1-46.3-5.4-49.7,2.8c-1.2,3-0.6,15.4-1.2,18.7
		c-0.7,3.8-1.7,7.4-2.8,11.1C102,266.5,99,273.8,96.4,281.3z"/>
	<path fill="#EFC8AC" d="M161.1,253.5c-0.7-3.5-1.2-7.1-1.5-10.7c-0.3-2.9,0.4-14.8-2-16.5c-0.5-0.4-5.7-1.1-12.6-1.6l-9.5,3.3
		l-10.7-3.7c-8.5,0.4-15.6,1.7-16.8,4.7c-1.2,3-0.6,15.4-1.2,18.7c-0.1,0.5-0.2,1-0.3,1.4c2,1.4,4,2.6,6.2,3.7
		c6.2,3.3,12.9,5.5,19.9,6.4c5.2,0.7,10.6,0.7,15.7-0.5C152.8,257.8,157,255.9,161.1,253.5z"/>
	<path fill="#60423E" d="M6.3,23.5C5.4,16.3,5.6,7.2,11.8,3.7C16.6,1,22.4,3.6,27.1,6.2c11.1,6,22.3,12.1,33.4,18.1
		c11.3,6.1,23,12.5,31.2,22.8c8.3,10.3,12.5,25.5,6.9,38c-5.9,13.2-20.3,19.4-33.6,22.7c-7.5,1.8-15,3.1-22.6,3.8
		c-18.4,1.8-20.3-17.1-24.8-32.4C12.5,61,8.6,42.4,6.3,23.5z"/>
	<path fill="#FFA912" d="M22.6,76.3c-4.2-12.1-6.2-25-6-37.8c0.1-4.9,1.1-10.8,5.5-12.8c1.8-0.8,3.8-0.9,5.7-0.8
		c16.4,0.7,29.1,6.7,41,18.1c7.8,7.5,7.5,17.7,10.4,21.3c3.7,4.5,9.8-1.6,9,4.2c-0.8,5.8-4.1,11.2-8.9,14.6C76,85.4,72,86.8,68.1,88
		c-7.8,2.5-15.8,4.7-23.8,6.5c-5,1.2-8.6,12.6-12,8C28.7,97.8,24.5,81.8,22.6,76.3z"/>
	<path fill="#FCD8BE" d="M42.9,88.7c6.5-4.8,13.7-8.7,21.2-11.7c3.7-1.5,7.6-2.7,11.1-4.7c2.7-1.6,5.2-3.7,6.8-6.4
		c-1-0.2-1.9-0.7-2.8-1.7c-2.9-3.6-2.6-13.8-10.4-21.3c-5.5-5.3-11.2-9.4-17.4-12.4c-3.4-0.1-6.6-0.4-10,0.4c-1.9,0.4-3.7,1-5.4,1.8
		c-1.1,0.5-3.9,3-4.9,2.9c2.7,0.1,5.4,0.8,7.7,2.1c-4,2.3-7,6.2-8.2,10.6c5.6,0.1,11.2,2.1,15.6,5.6c-3,1-5.9,1.9-8.9,2.9
		c1.6,0.7,3.1,1.3,4.7,2c-4.6,0.4-9,2.2-12.6,5c2.6,1.4,5,3.2,7.1,5.3c-2.5,0.7-4.7,2-6.5,3.9C36.4,76.1,41.2,81.9,42.9,88.7z"/>
	<path fill="#60423E" d="M273.7,21.7c1.5-7.1,2-16.3-3.9-20.2c-4.6-3.1-10.6-1-15.5,1.2c-11.6,5.1-23.2,10.2-34.8,15.4
		c-11.8,5.2-23.9,10.6-33,20.2c-9.1,9.6-14.5,24.4-9.9,37.3c4.8,13.7,18.6,21,31.7,25.3c7.3,2.4,14.7,4.3,22.2,5.6
		c18.2,3.2,21.6-15.5,27.3-30.3C264.6,58.6,269.9,40.4,273.7,21.7z"/>
	<path fill="#FFA912" d="M253.3,73c5.1-11.7,8.2-24.4,9-37.2c0.3-4.9-0.2-10.8-4.5-13.2c-1.7-1-3.7-1.2-5.6-1.3
		c-16.4-0.7-29.6,4.4-42.3,14.8c-8.4,6.8-8.9,17-12.1,20.3c-4.1,4.2-9.7-2.4-9.3,3.5c0.3,5.9,3.2,11.5,7.7,15.3
		c3.1,2.6,7,4.3,10.7,5.8c7.6,3.1,15.3,5.9,23.2,8.4c4.9,1.6,7.6,13.2,11.4,9C245.4,94,250.9,78.4,253.3,73z"/>
	<path fill="#FCD8BE" d="M232,83.7c-6.1-5.3-12.9-9.8-20.2-13.3c-3.6-1.8-7.4-3.3-10.7-5.6c-2.6-1.8-4.9-4.1-6.2-6.9
		c1-0.1,2-0.5,2.9-1.5c3.2-3.3,3.7-13.5,12.1-20.3c5.9-4.8,11.9-8.5,18.3-11c3.4,0.1,6.6,0.1,9.9,1.2c1.8,0.6,3.6,1.3,5.3,2.3
		c1,0.6,3.7,3.3,4.7,3.3c-2.7-0.2-5.4,0.4-7.9,1.5c3.8,2.6,6.5,6.7,7.3,11.2c-5.6-0.4-11.4,1.2-16,4.3c2.9,1.2,5.8,2.4,8.6,3.6
		c-1.6,0.5-3.2,1-4.8,1.6c4.5,0.8,8.8,2.9,12.1,6c-2.7,1.2-5.3,2.8-7.5,4.7c2.4,0.9,4.5,2.4,6.1,4.4C239.6,71.7,234.3,77.2,232,83.7
		z"/>
	<path fill="#FCD8BE" d="M195.2,47.5c-30.9-9-60.5-7.1-60.5-7.1s-29.6-1.9-60.5,7.1c-30.9,9-55.9,44.9-51.4,77.2
		c3.1,22.1,10.9,60.3,35.9,85.6c25,25.4,75.9,29.1,75.9,29.1s50.9-3.7,75.9-29.1c25-25.4,32.8-63.6,35.9-85.6
		C251.1,92.5,226.1,56.5,195.2,47.5z"/>
	<g>
		<path fill="#60423E" d="M55.6,126.6c6.1-3.6,11.2-5.3,18.4-5.2c7.1,0.1,14.4,2.3,19.6,7.3c4.7,4.5,7.2,10.8,9.6,16.8
			c1.3,3.4,2.6,6.8,3.5,10.3c0.1,0.6,0.2,1.4-0.2,1.9c-0.3,0.3-0.7,0.4-1,0.5c-3.4,0.9-6.9,1.2-10.4,1.3
			c-12.6,0.5-26.1-1.2-36.1-8.9c-5.5-4.2-9.6-10-13.3-15.9c-0.9-1.5-1.9-3-2.7-4.5c-0.8-1.4-1.4-2.2,0.3-2.5
			C44.8,127.5,48.5,130.8,55.6,126.6z"/>
		<path fill="#FFFFFF" d="M60.3,128.4c3.6-3.4,10.9-4.9,14.1-4.8c24.3,1,29.4,27.3,27.8,32.1c-0.9,2.7-13.5,2.8-15.8,2.7
			c-6.3-0.2-23.6-2.8-29.1-12.2C55.7,143.5,53.4,134.9,60.3,128.4z"/>
		<path fill="#EDEDED" d="M102.2,151.4c-0.9,2.7-13.5,2.8-15.8,2.7c-6.3-0.2-23.6-2.8-29.1-12.2c-0.5-0.9-1.2-2.6-1.5-4.6
			c-0.6,4.1,0.5,7.8,1.5,9.4c5.5,9.4,22.8,12,29.1,12.2c2.3,0.1,14.9,0,15.8-2.7c0.3-1,0.4-2.8,0.1-5.1
			C102.3,151.2,102.3,151.3,102.2,151.4z"/>
		<g>
			<circle fill="#231F20" cx="79.1" cy="142" r="12.4"/>
			<path fill="#FFFFFF" d="M70.8,137.8c-0.2,0.6-0.3,1.3-0.1,2c0.2,0.6,0.6,1.2,1.3,1.4c0.8,0.3,1.7-0.1,2.3-0.7
				c0.6-0.6,1.1-1.3,1.8-1.8c0.6-0.6,1.4-0.9,2.2-1.1c0.9-0.2,1.8-0.2,2.5-0.8c0.7-0.7,0.6-2-0.1-2.7
				C77.6,130.7,71.7,134.4,70.8,137.8z"/>
		</g>
	</g>
	<path fill="#EFC8AC" d="M76.2,111.1c26.3,5.6,41,36.8,46.6,48.9c0.9,1.9,2.3,4.2,4.4,3.8c4.7-15.8-2.8-32.7-12.3-46.1
		c-3.9-5.5-8.2-10.7-13.7-14.5c-14.5-10.1-34.4-8.5-50.5-1.4c-5,2.2-27,24.2-13.1,16.3C48.8,111.7,63,108.3,76.2,111.1z"/>
	<path fill="#EFC8AC" d="M193.1,109.4c-26.5,4.9-41.9,35.7-47.9,47.6c-0.9,1.9-2.4,4.1-4.5,3.7c-4.2-15.9,3.6-32.6,13.5-45.7
		c4-5.3,8.5-10.5,14.1-14.2c14.7-9.7,34.6-7.5,50.6-0.1c4.9,2.3,26.3,24.9,12.7,16.6C220.4,110.7,206.3,106.9,193.1,109.4z"/>
	<path fill="#382624" d="M88.4,530.7c0,0-0.1-2.9,2.2-4.3c2.4-1.3,3.7-1.6,3.7-1.6s-2.6-0.7-5.2,1.1c-2.6,1.8-2.6,4.8-2.6,4.8
		L88.4,530.7L88.4,530.7z"/>
	<path fill="#382624" d="M84.4,524.8c0,0,1-1.4,2.2-2.1c1.7-0.9,4.2-1.4,4.2-1.4s-1.9-0.1-3.6,0.4c-2.3,0.6-3.2,1.8-3.2,1.8
		s0,0.3,0.2,0.8C84.3,524.7,84.4,524.8,84.4,524.8L84.4,524.8z"/>
	<path fill="#F2881D" d="M213.2,411.4c-3.1,11.4-6.3,22.8-9.4,34.2c-1.2,4.2-2.5,8.7-5.7,11.7c-4.4,4.1-10.5,3.9-16.1,3.3
		c-1.5-0.2-2.8-0.1-3.9,0.2c0.1,0.2,0.2,0.4,0.2,0.6c0.6,1.4,1.2,2.8,2.3,3.8c1.4,1.3,13.5,2.4,21.6-4.7
		C204,458.7,209,435.5,213.2,411.4z"/>
	<path fill="#F2881D" d="M66,418.7c3.1,11.4,18.8,41,22,44c4.4,4.1,14.7,5.9,19.8,2.6c0,2.3-1,4.6-3.1,5.7
		c-1.7,0.9-13.2,3.6-21.2-3.5C81.7,465.8,73,443.6,66,418.7z"/>
	<path fill="#FFA912" d="M192.4,46.1c31.2,8,57.3,43.1,53.8,75.5c-0.5,4.5-4.4,25-5.3,30.6c0,0,4.3-46.9-36.7-51.2
		c-26-2.7-39.3,7.1-47.1,25.4c-6.9,16.3-9.3,56.4-9.3,56.4l-16.1,0.1v-142C131.8,40.9,161.3,38.1,192.4,46.1z"/>
	<path fill="#FFA912" d="M74.2,47.7c-30.9,9-55.9,44.9-51.4,77.2c0.6,4.5,5.1,24.8,6.3,30.4c0,0-5.8-46.7,35-52.3
		c25.9-3.6,39.5,5.9,47.9,23.9c7.4,16.1,11.1,56.1,11.1,56.1l18.2-0.1l-6.6-142.3C134.7,40.6,105.1,38.7,74.2,47.7z"/>
	<path fill="#E08119" d="M73.7,79.3c-2.7,0.1-6.1,1-6.5,3.7c-0.4,2.6,2.4,4.5,4.8,5.4c5,2,10.4,3.1,15.2,5.4
		c4.7,2.2,8.8,5.5,13.5,7.7c1.5,0.7,3.4,1.2,4.5-0.1c0.4-0.4,0.5-1,0.6-1.5c0.4-2.7-0.8-5.5-2.5-7.6C96.2,83.8,84.7,79.1,73.7,79.3z
		"/>
	<path fill="#E08119" d="M199.7,83.6c2.7,0.4,5.9,1.7,6,4.4c0.1,2.6-2.9,4.2-5.4,4.9c-5.2,1.4-10.6,1.9-15.7,3.6
		c-4.9,1.7-9.4,4.5-14.2,6.2c-1.5,0.5-3.6,0.8-4.4-0.6c-0.3-0.5-0.4-1-0.4-1.6c-0.1-2.7,1.4-5.4,3.4-7.3
		C176.9,85.6,188.9,82.2,199.7,83.6z"/>
	<path fill="#F7E9E2" d="M112,302.9c-0.7-9.1,1.8-18.2,6-26.3c-3.6,2.6-6.5,6.2-8.2,10.3c-2.5-3-4.2-7.9-6.9-10.3
		c-1.3,3.2,1.7,10.2,2.9,13.5c0.8,2.3,1.8,4.5,2.8,6.7C109.4,298.4,111.9,301.3,112,302.9z"/>
	<path fill="#F7E9E2" d="M145.1,287.8c-0.7-9.1,1.8-18.2,6-26.3c-3.6,2.6-6.5,6.2-8.2,10.3c-2.5-3-4.2-7.9-6.9-10.3
		c-1.3,3.2,1.7,10.2,2.9,13.5c0.8,2.3,1.8,4.5,2.8,6.7C142.5,283.3,145,286.2,145.1,287.8z"/>
	<path fill="#F7E9E2" d="M127.2,337.1c-0.7-9.1,1.8-18.2,6-26.3c-3.6,2.6-6.5,6.2-8.2,10.3c-2.5-3-4.2-7.9-6.9-10.3
		c-1.3,3.2,1.7,10.2,2.9,13.5c0.8,2.3,1.8,4.5,2.8,6.7C124.6,332.6,127.1,335.5,127.2,337.1z"/>
	<path fill="#F7E9E2" d="M160.6,324c-0.7-9.1,1.8-18.2,6-26.3c-3.6,2.6-6.5,6.2-8.2,10.3c-2.5-3-4.2-7.9-6.9-10.3
		c-1.3,3.2,1.7,10.2,2.9,13.5c0.8,2.3,1.8,4.5,2.8,6.7C158,319.5,160.5,322.3,160.6,324z"/>
	<path fill="#F7E9E2" d="M144.8,366.2c-0.6-7.4,1.5-14.9,4.9-21.5c-3,2.1-5.3,5-6.7,8.4c-2.1-2.5-3.5-6.4-5.7-8.4
		c-1.1,2.6,1.4,8.4,2.4,11.1c0.7,1.9,1.5,3.7,2.3,5.5C142.7,362.5,144.7,364.8,144.8,366.2z"/>
	<path fill="#F7E9E2" d="M106.1,357.3c-0.6-7.4,1.5-14.9,4.9-21.5c-3,2.1-5.3,5-6.7,8.4c-2.1-2.5-3.5-6.4-5.7-8.4
		c-1.1,2.6,1.4,8.4,2.4,11.1c0.7,1.9,1.5,3.7,2.3,5.5C104,353.6,106,355.9,106.1,357.3z"/>
	<path fill="#F7E9E2" d="M174.4,348.5c-0.6-7.4,1.5-14.9,4.9-21.5c-3,2.1-5.3,5-6.7,8.4c-2.1-2.5-3.5-6.4-5.7-8.4
		c-1.1,2.6,1.4,8.4,2.4,11.1c0.7,1.9,1.5,3.7,2.3,5.5C172.3,344.9,174.3,347.2,174.4,348.5z"/>
	<path fill="#F2881D" d="M81.7,407.4c0.7,0.4,34.9,15.3,58.1,15.3c40.1,0,61.2-17.3,60.8-17.1c-0.4,0.3-29.3,12.8-59.2,11.9
		C111.4,416.5,81.7,407.4,81.7,407.4z"/>
	<path fill="#FCD8BE" d="M411.1,373.9c10.1-10.9,18.9-24.4,18.7-39.2c-17.5,16.7-44.7,18.1-68.5,13.5c-5.3-1-10.5-2.3-15.7-3.7
		c-0.8,0.8-1.5,1.8-2.1,3.2c-2.5,6,1.1,11.8,0,17.9c-1,5.5-5.8,9.5-8.2,14.6c-2.1,4.5-2.2,10-0.3,14.6c1.4,3.4,3.9,6.3,4.9,9.8
		c1.3,4.4,0.1,9.3,0.5,13.8C367.3,409.5,391.9,394.7,411.1,373.9z"/>
	<path fill="#EFC8AC" d="M429.8,334.8c-0.3,0.3-0.7,0.7-1.1,1c0,0,0,0,0,0c-0.3,0.3-0.7,0.6-1,0.9c0,0-0.1,0-0.1,0.1
		c-1.1,0.9-2.2,1.8-3.4,2.6c0,0,0,0,0,0c-4.3,3-8.9,5.4-13.9,7.1c-0.8,1-1.7,1.9-2.5,2.8c-19.7,21.3-45.1,36.3-72.8,45.3
		c0,0.1,0.1,0.2,0.1,0.3c1.4,3.4,3.9,6.3,4.9,9.8c1.3,4.4,0.1,9.3,0.5,13.8c0.1,0,16.9-0.8,57.1-30.3
		C419.8,371.9,430,349.6,429.8,334.8z"/>
	<path fill="#F7E9E2" d="M169.9,175.3c-3.2-7.4-14.7-10.2-17-11.1c-2.8-1-5.9-1.2-8.8-1.3c-11.5-0.3-27.9,2.3-28,2.3
		c0,0-9.9,1.4-14.3,9c-2.4,4.2-2.5,9.6,0.6,13.9c2.4,3.4,6.4,5.8,10.6,7.6c13.2,5.9,34.5,7.3,46.6,0.7
		C169.1,191.2,172.5,181.2,169.9,175.3z"/>
	<path fill="#60423E" d="M85.8,139.8c4.5,2.7,8.4,6.2,12,10c2.3,2.3,4.4,4.7,6.5,7.2c0.5-1.3,0.3-2.8,0-4.2
		c-2-10.4-6.7-21-15.7-26.7c-6.1-3.9-13.8-5-20.8-3.2c-3.4,0.9-6.5,2.5-9.3,4.6c-1.4,1-7.2,5.7-6.4,7.8c0.4,1,8.4-1,10.1-1.1
		c3.8-0.2,7.7,0.1,11.5,0.9C78,135.9,82.1,137.5,85.8,139.8z"/>
	<g>
		<path fill="#60423E" d="M217.5,131.9c-5.7-4.3-10.6-6.5-17.7-7.2c-7.1-0.7-14.6,0.7-20.2,5.1c-5.2,4-8.4,9.9-11.4,15.7
			c-1.7,3.2-3.4,6.4-4.6,9.9c-0.2,0.6-0.4,1.4,0,1.9c0.2,0.3,0.6,0.5,1,0.6c3.3,1.2,6.7,1.9,10.2,2.5c12.5,1.9,26,1.7,36.9-4.8
			c6-3.6,10.7-8.9,14.9-14.3c1.1-1.4,2.2-2.7,3.2-4.1c0.9-1.3,1.6-2,0-2.5C228.1,134,224.1,136.9,217.5,131.9z"/>
		<path fill="#FFFFFF" d="M212.6,133.2c-3.2-3.8-10.3-6.1-13.5-6.3c-24.3-1.7-32.2,23.9-31.2,28.8c0.6,2.8,13.1,4.3,15.4,4.4
			c6.3,0.5,23.8-0.2,30.3-8.9C215.5,148.7,218.7,140.4,212.6,133.2z"/>
		<path fill="#EDEDED" d="M168.4,151.4c0.6,2.8,13.1,4.3,15.4,4.4c6.3,0.5,23.8-0.2,30.3-8.9c0.7-0.9,1.5-2.4,2-4.4
			c0.2,4.2-1.4,7.7-2.5,9.2c-6.5,8.7-24,9.4-30.3,8.9c-2.3-0.2-14.8-1.6-15.4-4.4c-0.2-1-0.1-2.8,0.5-5
			C168.4,151.3,168.4,151.3,168.4,151.4z"/>
		<g>
			<circle fill="#231F20" cx="192.5" cy="144.6" r="12.4"/>
			<path fill="#FFFFFF" d="M201.2,141.4c0.1,0.7,0.1,1.3-0.1,2c-0.2,0.6-0.8,1.2-1.4,1.3c-0.8,0.2-1.7-0.3-2.3-0.9
				c-0.6-0.6-1-1.4-1.6-2c-0.6-0.6-1.3-1.1-2.1-1.4c-0.8-0.3-1.8-0.4-2.4-1.1c-0.6-0.8-0.4-2,0.4-2.7
				C195.2,133.6,200.6,137.9,201.2,141.4z"/>
		</g>
	</g>
	<path fill="#60423E" d="M186,141.7c-4.7,2.2-9,5.3-13.1,8.6c-2.5,2-4.9,4.2-7.3,6.4c-0.3-1.4,0-2.8,0.4-4.2
		c3.1-10.1,9-20.1,18.5-24.8c6.5-3.2,14.3-3.5,21-0.9c3.2,1.3,6.2,3.2,8.7,5.6c1.2,1.2,6.6,6.5,5.5,8.4c-0.5,1-8.3-1.9-9.9-2.2
		c-3.8-0.7-7.7-0.8-11.5-0.4C194.2,138.7,189.9,139.9,186,141.7z"/>
	<path fill="#60423E" d="M155.1,170.3c-0.7-2.4-2.6-4.4-4.8-5.6c-2.2-1.2-4.7-1.7-7.3-1.9c-2.8-0.3-14-0.3-16.8,0
		c-2.5,0.2-5,0.7-7.3,1.9c-2.2,1.2-4.1,3.1-4.8,5.6c-0.7,2.4,0,5.3,2.1,6.8c1,0.7,2.2,1.1,3.3,1.6c1.5,0.7,2.8,1.7,3.8,3
		c1.2,1.5,2,3.3,3.3,4.8c2,2.1,5,3.1,7.9,3.5c2.9-0.4,5.9-1.3,7.9-3.5c1.3-1.4,2.1-3.3,3.3-4.8c1-1.3,2.3-2.3,3.8-3
		c1.1-0.5,2.3-0.9,3.3-1.6C155.1,175.6,155.8,172.7,155.1,170.3z"/>
	<path fill="#FFFFFF" d="M120.2,168.9c-0.6,1.2-0.3,2.9,0.9,3.5c0.8,0.4,1.7,0.2,2.5-0.1c0.8-0.4,1.5-0.9,2.2-1.3
		c2.3-1.3,5.1-1.5,7.8-1.6c0.7,0,1.5-0.1,2.1-0.4c0.7-0.3,1.2-1,1.1-1.7c-0.4-2.4-6.3-2.2-8.1-2.1
		C125.9,165.4,121.5,166.2,120.2,168.9z"/>
	<path fill="#60423E" d="M171.9,206.7c-12.4,0.6-26.9,0.4-39.1,2.7c-23.7,4.5-31.1,13.2-30.6,8.4c0.5-4.4,11.2-6.6,14.4-7.5
		C140.3,204.3,167.4,204.2,171.9,206.7z"/>
	<path fill="#FCD8BE" d="M0,158.4c6.7,6,14.2,11.1,22.3,15c-6.1,7.9-12.2,15.9-18.3,23.8c6.1-3.1,12.7-5.2,19.5-6.1
		c-4.4,11.1-7.6,22.5-9.7,34.2c6.1-5.3,13.3-9.5,20.9-12.2c0.1,10.7,2.9,21.3,8.1,30.7c2.6-9.1,7.7-17.5,14.6-23.9
		c0.8,6.9,2.8,13.7,6,19.9c1.8-9,10.8-16,20-15.5c-8.8-8.5-16.9-17.8-24.1-27.7c-7.6-10.3-14.2-21.2-20.9-32.1
		c-3.7-6.1-5.3-10.6-12.9-9C16.9,157.3,8.9,158.9,0,158.4z"/>
	<path fill="#FCD8BE" d="M267.4,151.2c-6.2,6.5-13.3,12.2-21.1,16.7c6.7,7.5,13.4,14.9,20,22.4c-6.3-2.7-13.1-4.2-19.9-4.6
		c5.2,10.7,9.3,21.9,12.3,33.4c-6.5-4.9-13.9-8.5-21.8-10.6c0.7,10.7-1.3,21.5-5.8,31.2c-3.3-8.9-9-16.8-16.4-22.8
		c-0.3,7-1.8,13.9-4.4,20.3c-2.5-8.8-12-15.1-21.1-14c8.1-9.2,15.5-19,22-29.4c6.8-10.8,12.6-22.2,18.4-33.6c3.3-6.3,4.5-11,12.2-10
		C250.5,151.4,258.6,152.4,267.4,151.2z"/>
	<path fill="#FFA912" d="M116.8,13.6c1.7,7.9,6.7,15,13.5,19.3c1.5-5.6,5.4-10.6,10.6-13.2c-1.4,4.8-1.2,10,0.5,14.7
		c2.9-5,7.6-8.9,13.1-10.7c-2.4,5.5-2.5,12-0.1,17.6c0.5,1.2,1.1,2.4,0.8,3.6c-0.5,2-3.1,2.6-5.2,2.7c-6.2,0.4-12.4,0.3-18.6-0.4
		c-4.9-0.5-13.3-0.7-17.5-3.6C106.7,38.6,114.1,19.7,116.8,13.6z"/>
	<path fill="#FFB845" d="M87,52.7c-1.9,0.6-3.8,1.2-5.3,2.4c-1.5,1.2-2.6,3.2-2.2,5.1c0.5,2.3,3,3.8,5.4,3.9
		c2.4,0.1,4.7-0.8,6.9-1.5c7.8-2.6,16-4,24.3-3.9c7.3,0.1,14.8,1.2,21.9-0.8c3.6-1,7.5-3.8,7-7.5c-0.3-2.3-2.2-4.1-4.4-4.9
		c-2.1-0.8-4.5-0.8-6.8-0.8C117.8,44.9,102.3,47.9,87,52.7z"/>
	<path fill="#F7E9E2" d="M27.5,162.6c6.4,2.5,12.6,5.3,18.7,8.5c-4.1,3-8.3,5.9-12.4,8.9c3.8-0.9,7.7-1.5,11.6-1.7
		c-5.4,7.4-11.1,15.2-12.3,24.3c5.1-6.2,12.1-10.8,19.9-12.9c-4,7.2-6.4,15.4-6.8,23.7c4-9.6,7-19.1,16.5-23.3
		c-5.4,5.6-3.2,15.4-2.1,23.1c2.9-8,6.2-16,11.1-23c4.9-7,11.4-13.1,19.3-16.3c-1.3,0.5-6.3-1.8-7.7-2.2c-1.9-0.6-3.7-1.4-5.6-2
		c-5.4-1.6-11-2.9-16.5-3.9C50,163.4,38.7,162.5,27.5,162.6z"/>
	<path fill="#F7E9E2" d="M245.1,156c-6,3.2-11.9,6.7-17.6,10.5c4.4,2.5,8.9,4.9,13.3,7.4c-3.9-0.4-7.8-0.6-11.7-0.4
		c6.3,6.7,12.7,13.8,15,22.7c-5.8-5.6-13.3-9.4-21.2-10.6c4.9,6.7,8.1,14.6,9.5,22.7c-5.1-9-9.1-18.2-19-21.2c6,4.9,5,14.9,4.8,22.7
		c-3.8-7.7-8-15.2-13.7-21.6c-5.7-6.4-12.8-11.7-21-14c1.3,0.3,6.1-2.5,7.4-3.1c1.8-0.8,3.5-1.8,5.4-2.6c5.2-2.3,10.6-4.1,16-5.8
		C222.9,159.4,233.9,157.2,245.1,156z"/>
	<path fill="#60423E" d="M51.1,318.4c1.5,0.1,3,0.1,4.5,0.5c1.5,0.4,2.9,1.3,3.4,2.7c0.5,1.4-0.1,3.3-1.6,3.7c2.4,0.1,4.6,2,4.7,4.4
		c0,2.4-2.6,4.5-4.8,3.6c1.1,0.9,1.1,2.7,0.3,3.8c-0.8,1.1-2.3,1.7-3.7,1.7c-1.4,0-2.8-0.4-4.1-0.9c-7-2.5-13.7-6.4-18.7-12
		c-4.4-4.9-7.8-11.5-8.2-12.8c-2.1-6.4,3.5-9.4,6.7-9.2c2.2,0.1,3.5,1.3,5.4,5.2C37.7,315,44.8,317.8,51.1,318.4z"/>
	<path fill="#60423E" d="M215.9,315.4c-1.5,0.1-3,0-4.5,0.4c-1.5,0.4-2.9,1.2-3.5,2.6c-0.6,1.4,0,3.3,1.5,3.7
		c-2.4,0-4.7,1.9-4.8,4.2c-0.1,2.4,2.4,4.6,4.7,3.8c-1.1,0.9-1.2,2.6-0.4,3.8c0.8,1.2,2.2,1.7,3.6,1.8c1.4,0.1,2.8-0.3,4.1-0.7
		c7.1-2.3,14-5.9,19.1-11.3c4.6-4.8,8.2-11.2,8.7-12.5c2.3-6.3-3.2-9.5-6.3-9.4c-2.2,0.1-3.5,1.2-5.5,5
		C229.4,312.5,222.2,315,215.9,315.4z"/>
	<path fill="#F2881D" d="M42.2,282.1c0,0,7.4-17,18.2-23c10.8-6,27-10.1,27-10.1S78,272.2,72.7,283c-5.3,10.8-10.4,20.4-10.2,19.9
		c0.2-0.5,17.8-46.4,17.8-46.4s-11.5,3.3-20.8,8.1C50.7,269.3,42.2,282.1,42.2,282.1L42.2,282.1z"/>
	<path fill="#F2881D" d="M180.4,251.2c0,0,0.2,0.2,0.4,0.5c2.4,2.8,13.7,16.3,16.1,20.9c2.7,5.1,4.4,9.9,4.4,9.9l-11.6-30.5
		L180.4,251.2z"/>
	<path fill="#F2881D" d="M180.9,251.7c0,0,6.5-5.2,14.9-4.7c8.4,0.5,24.2,23.9,24.2,23.9s-9.6-12.3-19.6-14.4
		C190.4,254.5,180.9,251.7,180.9,251.7z"/>
	<path fill="#FFA912" d="M268.1,323.9c-1.4,0.8-2.4,2.3-2.5,3.9c5.7-3,11.4-6.1,17.1-9.2c-0.6,2.9-1.7,5.7-3.1,8.3
		c7.3-4.7,15.2-8.6,23.3-11.6c-2.4,4.1-4.7,8.3-7.1,12.4c8.1-4.1,16.6-7.6,25.2-10.4c-4.6,7.3-8.7,14.8-12.3,22.6
		c7.6-5.4,16.1-9.5,25.2-11.9c-4.5,8-8.5,16.3-11.9,24.8c1.3-3.1-33.6-12.2-36.9-12.7c-6.5-1-13-1.4-19.5-1.3
		c-5.8,0.1-13.9,2.9-19.3,1.8C245.9,334.5,263.3,326.1,268.1,323.9z"/>
	<path fill="#F2881D" d="M244,433.2c-0.6-1.5-1.3-2.9-1.9-4.4c9.8,5.8,20.7,9.8,31.9,11.8c-1.8-3-3-6.4-3.7-9.9
		c3.9,2.2,8.1,3.9,12.5,4.9c-0.7-1.9-1.4-3.7-2.1-5.6c11,5.7,23.4,8.6,35.8,8.4c-2.9-3.4-5.8-6.8-8.7-10.2c9.1,2,18.7,1.9,27.8-0.1
		c-2.8-2-5.5-4.1-8.3-6.1c3.3-0.3,6.5-0.5,9.8-0.8c-8.8-4.9-17.7-9.8-27.6-11.6c-7.4-1.3-15-0.9-22.5-0.6
		c-12.4,0.4-24.8,0.2-37.2-0.7c-5.2-0.4-29.2-3.8-27.6,5C223.6,421.7,237.1,430.2,244,433.2z"/>
	<path fill="#FCD8BE" d="M360,354.3c6-2.8,11.6-6.7,16.2-11.5c0.4,1.9,0.9,3.9,1.3,5.8c5-5.5,8.8-12.1,11.1-19.2
		c1.3,4.8,2.3,9.6,2.9,14.5c4-2.9,7.6-6.3,10.6-10.3c-0.8,2.7-1,5.5-0.6,8.3c3.7-3.5,7-7.5,9.9-11.7c-3.8,20.9-22.7,38.1-43.9,39.8
		c-9.6,0.8-17.7-4.5-18.5-14.8c-0.8-9.1,9-15.8,15.6-20.3C364.6,338.1,363.1,352.8,360,354.3z"/>
	<path fill="#EFC8AC" d="M436.7,342c-3.7,9.5-8.9,18.5-15.3,26.5c3.3-1.2,6.7-2.3,10.1-3.4c-5,5.4-10.5,10.4-16.5,14.8
		c5.3,1.4,10.3,3.7,14.9,6.7c-6.5,0.3-13,0.6-19.5,0.9c5,3.6,9.1,8.4,12,13.8c-9.1-0.3-18.2-0.6-27.3-0.9c4,3.3,7.4,7.1,10.2,11.4
		c-7.9-2.7-16.2-4.3-24.5-4.6c4.2,4.5,7.4,9.8,9.3,15.6c-8.8-2.6-17.9-3.9-27.1-4.1c3.5,2.2,6.5,5.2,8.7,8.7
		c-10.1-3.6-20.2-7.3-30.4-10.9c5.4-6.6,11-13.1,17.9-18.1c8.3-6,18.1-9.4,27.1-14.2c9.6-5.1,18.4-11.8,25.9-19.7
		c3.4-3.6,6-8.4,9.6-11.8C426.2,348.7,432.1,345.9,436.7,342z"/>
</g>
</svg>
