<?xml version="1.0" encoding="utf-8"?>
<!-- Generator: Adobe Illustrator 17.1.0, SVG Export Plug-In . SVG Version: 6.00 Build 0)  -->
<!DOCTYPE svg PUBLIC "-//W3C//DTD SVG 1.1//EN" "http://www.w3.org/Graphics/SVG/1.1/DTD/svg11.dtd">
<svg version="1.1" id="Layer_1" xmlns="http://www.w3.org/2000/svg" xmlns:xlink="http://www.w3.org/1999/xlink" x="0px" y="0px"
	 width="481.6px" height="512.4px" viewBox="0 0 481.6 512.4" enable-background="new 0 0 481.6 512.4" xml:space="preserve">
<g>
	<path fill="#9ACEE8" d="M286.1,250.1c7,1.7,14.3,3.9,19.4,8.9c1.5,1.5,2.9,3.5,2.6,5.6c-0.6,4.5-7.1,5-10.2,8.3
		c-3.5,3.8-1.7,9.8,0.1,14.7c12.2,32.3,16,67.7,10.8,101.8c-1,6.7-2.5,13.5-6.7,18.8c-5,6.2-13,9.1-20.8,11
		c-33.3,8.2-68.3,3.7-102.4,0.4c-18-1.7-36.2-3.1-53.6-8.2c-17.4-5.1-34.1-14.3-44.8-28.9c-10.7-14.6-14.2-35.2-5.7-51.2
		c2-3.8,4.7-7.3,8.3-9.5c3.6-2.3,7.8-3.1,11.9-4.2c23.1-5.9,44-18.2,64.4-30.7c11.5-7,22.9-14.1,34.3-21.2c4.8-3,10.6-5.7,14.6-9.8
		c3.1-3.3,3-7.9,5.6-11c5.4-6.7,24.2-2.4,32-1.6C259.4,244.6,272.9,246.9,286.1,250.1z"/>
	<path fill="#9ACEE8" d="M45.8,327.9c1.1-3.6,2.3-7.8,0.1-10.7c-1.7-2.2-4.8-3-6.6-5.1c-3.2-3.9-0.5-9.9,3.3-13.3
		c4.3-3.8,9.6-6.1,14.8-8.3c18.8-7.9,37.9-15,57.3-21.1c13.5-4.3,27.3-8.1,41.4-7.9c14.1,0.2,28.7,4.9,38.1,15.4
		c12.4,13.9,13.3,34.9,9.4,53.2c-5.2,24.8-17.9,47.9-36,65.7c-18.1,17.7-41.5,29.9-66.4,34.6c-11.4,2.2-21.1,1.4-32.1-1.9
		c-5.8-1.8-13.1-2.4-18-6.2c-13.3-10.2-12.7-40.9-12.2-55.7C39.6,353.3,41.8,340.3,45.8,327.9z"/>
	<path fill="#FFA912" d="M143.2,335.1c-14.6,12.3-19.3,18.5-26.3,29.3c-3.9,6-7.7,12-11.6,17.9c-3.1-2.4-6.1-4.7-9.2-7.1
		c3.1-13.6,7.1-27,11.8-40.1c4.7-13.2,10.4-26.4,20-36.6c5.3-5.6,12-10.2,19.5-11.9c7.5-1.7,16-0.1,21.7,5.2
		C191.7,312.9,158.3,322.4,143.2,335.1z"/>
	<path fill="#F2881D" d="M353,386.6c21.7,10.6,39.5,27.8,59.9,40.8c20.4,12.9,46.3,21.4,68.7,12.2c-5.2,13.9-18.3,23.2-31.7,29.8
		c-48.4,23.7-107.3,19.9-156.5-1.9c-15.4-6.8-30.4-15.6-40.8-28.9c-8.2-10.5-13.1-24.3-11.4-37.7c1.8-13.9,17.1-17.4,29.1-20.9
		C297.4,372.2,327.5,374.2,353,386.6z"/>
	<path fill="#E27B1E" d="M459.3,443.4c-1.1,0.6-2.2,1.2-3.4,1.7c-48.4,23.7-107.3,19.9-156.5-1.9c-15.4-6.8-30.4-15.6-40.8-28.9
		c-5.6-7.1-9.6-15.8-11.1-24.8c-3.3,2.8-5.6,6.4-6.3,11.3c-1.7,13.4,3.3,27.2,11.4,37.7c10.4,13.3,25.4,22.1,40.8,28.9
		c49.3,21.8,108.1,25.6,156.5,1.9c13.3-6.5,26.4-15.9,31.7-29.8C474.4,442.5,466.9,443.7,459.3,443.4z"/>
	<path fill="#FCD8BE" d="M449.9,469.3c13.3-6.5,26.4-15.9,31.7-29.8c-22.4,9.2-48.2,0.7-68.7-12.2c-4.5-2.9-8.9-5.9-13.3-9.1
		c-1,0.5-2,1.2-3.1,2.3c-4.5,4.6-3.3,11.4-6.5,16.7c-2.9,4.8-8.8,6.8-12.9,10.6c-3.6,3.4-5.7,8.5-5.6,13.5c0.1,3.7,1.3,7.3,1,10.9
		c-0.4,4.6-3.3,8.7-4.6,13C396.3,486.6,424.6,481.7,449.9,469.3z"/>
	<path fill="#EFC8AC" d="M481.6,439.7c-0.4,0.2-0.9,0.4-1.3,0.5c0,0,0,0-0.1,0c-0.4,0.2-0.8,0.3-1.3,0.5c0,0-0.1,0-0.1,0
		c-1.3,0.5-2.7,0.9-4.1,1.2c0,0,0,0,0,0c-5.1,1.3-10.3,1.8-15.5,1.6c-1.1,0.6-2.2,1.2-3.4,1.7c-26.1,12.7-55.2,17.5-84.2,15.8
		c0,0.1,0,0.2,0,0.4c0.1,3.7,1.3,7.3,1,10.9c-0.4,4.6-3.3,8.7-4.6,13c0.1,0,16.1,5.4,64.2-7.6C458.8,470.6,476.4,453.5,481.6,439.7z
		"/>
	<path fill="#FFA912" d="M310.3,398.4c8.4,1.5,11.8,24.9,10.2,33.3c-9.1,47.8-4.9,37.8-20.2,50.7c-4,3.4-8.1,7.1-13.1,8.5
		c-4,1.1-3,0-11.2-7.7c-15.1-14.1-43.2-0.7-43.3-3.6c-0.1-9.9,6.9-23.3,13.8-30.5C263.5,431.6,286,394,310.3,398.4z"/>
	<path fill="#FFA912" d="M103.6,403.5c-8.3,2-10.5,25.5-8.5,33.8c11.6,47.2,6.9,37.5,22.8,49.6c4.2,3.2,8.4,6.7,13.6,7.8
		c4.1,0.9,3-0.1,10.8-8.3c14.3-14.9,43.1-2.9,43-5.9c-0.4-9.9-8.1-22.9-15.4-29.7C152,434.2,127.6,397.8,103.6,403.5z"/>
	<path fill="#FFA912" d="M254.9,314.8c-8.8-24.3-9.5-38.8-9.5-38.8L201,291.2l-44.4-15.3c0,0-0.7,14.5-9.5,38.8
		c-8.8,24.3-41.1,89.6-26.6,130.4c6.1,17.3,45.9,37.1,83.1,38.6c41.7,1.7,71.7-16.1,77.7-34.7C294.5,407.8,263.7,339.1,254.9,314.8z
		"/>
	<path fill="#F2881D" d="M213.6,321.5c9.9-2.2,18.4-8.6,26.1-15.2c3.6-3.1,7.4-6.6,8.4-11.3c0.1-0.6,0.2-1.2,0.2-1.8
		c-0.6-2.4-1.1-4.7-1.5-6.6c-1.9-3.7-5.2-6.7-9-8.5c-0.1-0.1-0.3-0.1-0.4-0.2l-36.7,12.6l-37-12.7c-2.7,1.1-5.9,2.6-8.3,4.7
		c-0.4,2.7-7.6,28.1-8.5,32.2c2.1,4.3,18.8,8.8,24.3,11.7c6.2,3.3,19.6-5.4,26.5-4.5C203.1,322.7,208.5,322.7,213.6,321.5z"/>
	<path fill="#FCD8BE" d="M161.5,344c-4.1,11.9-7,24.1-8.8,36.5c-2.2,15.5-1.9,33.3,9.2,44.3c8.5,8.5,21.3,10.7,33.3,11.8
		c9.6,0.9,19.4,1.2,28.8-0.9c9.4-2.1,18.5-6.9,24.2-14.7c8.5-11.6,8-27.7,3.5-41.4c-4.5-13.7-12.3-26-17.8-39.2
		c-4.6-11.1-7.6-22.9-8.7-34.9c-0.3-2.9,0.4-14.8-2-16.5c-1.6-1.1-46.3-5.4-49.7,2.8c-1.2,3-0.6,15.4-1.2,18.7
		c-0.7,3.8-1.7,7.4-2.8,11.1C167,329.1,164,336.5,161.5,344z"/>
	<path fill="#EFC8AC" d="M226.6,316.2c-0.7-3.5-1.2-7.1-1.5-10.7c-0.3-2.9,0.7-15.2-1.7-16.9c-0.5-0.4-7.1-0.7-14-1.2l-9.5,3.3
		l-10.7-3.7c-8.5,0.4-15.6,1.7-16.8,4.7c-1.2,3-0.6,15.4-1.2,18.7c-0.1,0.5-2.8,14-2.9,14.5C170.9,326.7,213.2,328.3,226.6,316.2z"
		/>
	<path fill="#60423E" d="M7.6,170.8c-4.8-5.5-9.8-13.1-6.6-19.4c2.5-5,8.7-6.1,14.1-6.6c12.6-1.3,25.2-2.6,37.8-3.9
		c12.8-1.3,26-2.6,38.6,1.2c12.6,3.8,24.7,14,27.1,27.5c2.6,14.2-5.8,27.5-15,37.6c-5.1,5.7-10.7,11-16.5,15.9
		c-14.2,11.8-26.4-2.7-38.7-12.8C33.8,198.3,20.2,185.1,7.6,170.8z"/>
	<path fill="#FFA912" d="M50.8,205.3c-10.3-7.7-19.2-17.1-26.2-27.8c-2.7-4.1-5.2-9.5-2.7-13.7c1-1.7,2.6-2.9,4.3-3.9
		c13.9-8.7,27.8-10.8,44-8.1c10.7,1.8,16.2,10.4,20.6,11.7c5.6,1.7,7.2-6.8,9.9-1.6c2.6,5.3,2.9,11.6,0.9,17.1
		c-1.4,3.8-3.9,7.2-6.5,10.4C90,195.7,84.6,202,79,208c-3.5,3.8,0,15.2-5.4,13.4C68,219.6,55.5,208.8,50.8,205.3z"/>
	<path fill="#FCD8BE" d="M74.6,204c2.7-7.6,6.4-14.9,11-21.6c2.3-3.3,4.8-6.5,6.5-10.1c1.3-2.8,2.2-6,2-9.1c-0.9,0.4-2,0.5-3.3,0.2
		c-4.4-1.3-9.9-9.9-20.6-11.7c-7.5-1.3-14.6-1.5-21.4-0.5c-2.9,1.8-5.7,3.4-8,6c-1.3,1.4-2.5,2.9-3.4,4.6c-0.6,1-1.6,4.7-2.4,5.2
		c2.3-1.5,4.9-2.4,7.6-2.6c-2,4.1-2.3,9-0.8,13.4c4.7-3.1,10.5-4.6,16.1-4.2c-1.9,2.5-3.8,4.9-5.7,7.4c1.7-0.3,3.3-0.7,5-1
		c-3.5,2.9-6.2,6.8-7.6,11.2c3-0.3,6-0.2,8.9,0.4c-1.6,1.9-2.7,4.3-3.2,6.8C62,197.3,69.4,199.4,74.6,204z"/>
	<path fill="#60423E" d="M311.6,91.8c1.9-7,2.9-16.1-2.7-20.4c-4.4-3.4-10.5-1.6-15.6,0.3c-11.9,4.4-23.8,8.9-35.6,13.3
		c-12.1,4.5-24.5,9.2-34.1,18.2c-9.6,9-15.9,23.5-12.1,36.7c4,13.9,17.4,22,30.1,27.1c7.1,2.8,14.4,5.1,21.9,6.9
		c18,4.3,22.5-14.2,29-28.7C300.3,128.1,306.7,110.2,311.6,91.8z"/>
	<path fill="#FFA912" d="M288.1,141.8c5.8-11.4,9.6-23.9,11.2-36.6c0.6-4.9,0.4-10.8-3.7-13.5c-1.6-1.1-3.6-1.4-5.6-1.6
		c-16.4-1.6-29.8,2.6-43.1,12.2c-8.8,6.3-9.9,16.5-13.3,19.6c-4.3,4-9.5-2.9-9.5,2.9c0,5.9,2.5,11.7,6.8,15.7
		c3,2.8,6.7,4.7,10.4,6.4c7.4,3.5,15,6.8,22.7,9.7c4.8,1.9,6.8,13.6,10.8,9.6C279.1,162.2,285.5,147,288.1,141.8z"/>
	<path fill="#FCD8BE" d="M266.3,151.2c-5.8-5.6-12.3-10.5-19.4-14.5c-3.5-2-7.2-3.7-10.3-6.2c-2.5-1.9-4.6-4.4-5.8-7.2
		c1-0.1,2-0.4,3-1.3c3.4-3.1,4.5-13.3,13.3-19.6c6.2-4.5,12.4-7.8,19-9.9c3.4,0.3,6.6,0.5,9.9,1.8c1.8,0.7,3.5,1.5,5.1,2.6
		c1,0.6,3.5,3.5,4.5,3.6c-2.7-0.3-5.5,0-8,1c3.6,2.8,6.1,7.1,6.7,11.6c-5.6-0.7-11.4,0.5-16.3,3.4c2.8,1.4,5.6,2.7,8.4,4.1
		c-1.6,0.4-3.3,0.9-4.9,1.3c4.5,1,8.6,3.4,11.8,6.7c-2.8,1-5.4,2.5-7.8,4.3c2.3,1,4.4,2.7,5.9,4.7
		C274.5,139.7,268.9,144.8,266.3,151.2z"/>
	<path fill="#FCD8BE" d="M203.9,102.1c-32.1,2.1-59.3,14-59.3,14s-28.4,8.4-54.4,27.4c-26,19-37.2,61.3-21.9,90.1
		c10.5,19.7,30.9,52.9,63,68.2c32.2,15.3,81.3,1.4,81.3,1.4s46.6-20.9,61.4-53.3c14.8-32.4,9.1-71,4.5-92.8
		C271.9,125.2,236.1,100,203.9,102.1z"/>
	<path fill="#FCD8BE" d="M74.4,292.3c4.7-1,9.4-1.9,14.1-2.9c-0.9,5-2.3,10-4.2,14.7c5.7-1.4,11.2-3.1,16.6-5.3
		c0.4,4.5-1.3,9.2-4.6,12.4c28,2.8,56.5,1.1,84-5.1c5-1.1,10.4-2.8,12.9-7.2c2.2-3.9,1.3-9-1.1-12.8c-2.5-3.8-6.2-6.5-10-9
		c-19.8-13.1-41.9-22.2-63.8-31.3c-6.3-2.6-12.6-5.2-19.3-6.1c-4.6-0.6-14.1-0.7-16.6,4.3c-1.9,3.8,1.5,10.2,2,14.1
		c0.8,6.1,0.3,12.4-1.4,18.3C82,279.8,78.1,291.6,74.4,292.3z"/>
	<path fill="#FCD8BE" d="M313,204.6c-4.2,2.3-8.4,4.7-12.5,7c3.9,3.3,8.2,6.1,12.8,8.4c-5.2,2.6-10.5,4.9-16.1,6.8
		c2.6,3.7,7,6.1,11.6,6.4c-19.4,20.4-42.1,37.7-67,51c-4.5,2.4-9.7,4.7-14.5,3c-4.2-1.5-6.9-6-7.5-10.5c-0.6-4.5,0.5-9,1.7-13.3
		c6.5-22.8,17.2-44.2,27.9-65.4c3-6,6.1-12.2,10.7-17.2c3.1-3.4,10.2-9.7,15.4-7.6c3.9,1.6,5.1,8.2,7.2,11.4
		c3.3,5.2,8.3,10.2,13.5,13.5C299,200.1,309.6,206.5,313,204.6z"/>
	<path fill="#EFC8AC" d="M113.9,202.6c26.7-3.7,51.1,20.6,60.5,30c1.5,1.5,3.6,3.1,5.4,2.1c-1-16.4-13.8-29.7-27.3-39.1
		c-5.5-3.8-11.4-7.2-17.9-9c-17-4.5-35.2,3.8-48,16c-3.9,3.7-17.1,31.9-6.8,19.8C88.4,212.4,100.5,204.4,113.9,202.6z"/>
	<path fill="#EFC8AC" d="M223.1,160.9c-23.2,13.7-27.2,47.9-28.7,61.1c-0.2,2.1-0.9,4.7-3,5c-9.4-13.5-7.7-31.8-2.9-47.6
		c2-6.4,4.4-12.8,8.4-18.1c10.5-14.1,29.9-18.9,47.5-17.4c5.4,0.5,33.2,14.4,17.6,11.3C249.2,152.8,234.7,154.1,223.1,160.9z"/>
	<path fill="#F7E9E2" d="M299.2,207.1c-6.8-0.9-13.9-0.3-20.5,1.8c7.4,0.7,14.6,2.5,21.2,5.4c-10.2-0.4-22.9-0.1-31.8,5
		c9.3,1.8,21.3,6,27.9,11.9c-18.9-6.1-45.4-7.1-65.4-1.5c2.2-0.6,14.3-23.4,45.4-25.9C284.8,203,294.4,204.5,299.2,207.1z"/>
	<path fill="#FFA912" d="M200.9,101.7c32-3.1,70.6,21.1,78.4,52.7c1.1,4.4,2.4,24.8,3.5,30.4c0,0-12-45.5-52-35.6
		c-25.4,6.3-34.5,20.2-35.5,40c-0.9,17.7,8.9,50.4,8.9,50.4L190.7,251l-48.6-133.4C142.1,117.6,168.9,104.9,200.9,101.7z"/>
	<path fill="#E08119" d="M235.1,131.1c1.6,1,3.3,2.9,2.5,4.6c-0.7,1.7-3.1,1.8-4.9,1.4c-3.7-0.7-7.3-2.1-11.1-2.5
		c-3.6-0.4-7.3,0-10.9-0.4c-1.1-0.1-2.5-0.6-2.6-1.7c0-0.4,0.1-0.8,0.2-1.1c0.8-1.8,2.5-3,4.4-3.6
		C220,125.3,228.7,126.8,235.1,131.1z"/>
	<path fill="#FFA912" d="M90.3,143.6c-26,19-37.2,61.3-21.9,90.1c2.1,4,13.3,21.6,16.3,26.4c0,0-21.4-41.9,15-61.2
		c23.1-12.2,39.2-8,53.1,6.1c12.5,12.6,26.9,43.5,26.9,43.5l19.7-0.8l-54.8-131.5C144.7,116.2,116.3,124.6,90.3,143.6z"/>
	<path fill="#E08119" d="M85.9,190.5c-0.4,1.8-0.4,4.3,1.3,5c1.7,0.7,3.4-0.8,4.5-2.3c2.2-3,3.9-6.4,6.3-9.2
		c2.3-2.7,5.3-4.9,7.6-7.6c0.7-0.8,1.4-2.1,0.8-3c-0.2-0.3-0.6-0.5-0.9-0.7c-1.8-0.7-3.8-0.5-5.5,0.3
		C93,176.2,87.8,183.1,85.9,190.5z"/>
	<path fill="#F7E9E2" d="M177,365.6c-0.7-9.1,1.8-18.2,6-26.3c-3.6,2.6-6.5,6.2-8.2,10.3c-2.5-3-4.2-7.9-6.9-10.3
		c-1.3,3.2,1.7,10.2,2.9,13.5c0.8,2.3,1.8,4.5,2.8,6.7C174.4,361.1,176.9,364,177,365.6z"/>
	<path fill="#F7E9E2" d="M210.2,350.5c-0.7-9.1,1.8-18.2,6-26.3c-3.6,2.6-6.5,6.2-8.2,10.3c-2.5-3-4.2-7.9-6.9-10.3
		c-1.3,3.2,1.7,10.2,2.9,13.5c0.8,2.3,1.8,4.5,2.8,6.7C207.6,346,210.1,348.9,210.2,350.5z"/>
	<path fill="#F7E9E2" d="M192.2,399.8c-0.7-9.1,1.8-18.2,6-26.3c-3.6,2.6-6.5,6.2-8.2,10.3c-2.5-3-4.2-7.9-6.9-10.3
		c-1.3,3.2,1.7,10.2,2.9,13.5c0.8,2.3,1.8,4.5,2.8,6.7C189.6,395.3,192.1,398.1,192.2,399.8z"/>
	<path fill="#F7E9E2" d="M225.6,386.6c-0.7-9.1,1.8-18.2,6-26.3c-3.6,2.6-6.5,6.2-8.2,10.3c-2.5-3-4.2-7.9-6.9-10.3
		c-1.3,3.2,1.7,10.2,2.9,13.5c0.8,2.3,1.8,4.5,2.8,6.7C223,382.1,225.5,385,225.6,386.6z"/>
	<path fill="#F7E9E2" d="M209.9,428.8c-0.6-7.4,1.5-14.9,4.9-21.5c-3,2.1-5.3,5-6.7,8.4c-2.1-2.5-3.5-6.4-5.7-8.4
		c-1.1,2.6,1.4,8.4,2.4,11.1c0.7,1.9,1.5,3.7,2.3,5.5C207.7,425.2,209.8,427.5,209.9,428.8z"/>
	<path fill="#F7E9E2" d="M171.2,419.9c-0.6-7.4,1.5-14.9,4.9-21.5c-3,2.1-5.3,5-6.7,8.4c-2.1-2.5-3.5-6.4-5.7-8.4
		c-1.1,2.6,1.4,8.4,2.4,11.1c0.7,1.9,1.5,3.7,2.3,5.5C169,416.2,171.1,418.6,171.2,419.9z"/>
	<path fill="#F7E9E2" d="M239.5,411.2c-0.6-7.4,1.5-14.9,4.9-21.5c-3,2.1-5.3,5.1-6.7,8.4c-2.1-2.5-3.5-6.4-5.7-8.4
		c-1.1,2.6,1.4,8.4,2.4,11.1c0.7,1.9,1.5,3.7,2.3,5.5C237.3,407.5,239.4,409.9,239.5,411.2z"/>
	<path fill="#F2881D" d="M146.8,470c0.7,0.4,34.9,15.3,58.1,15.3c40.1,0,61.2-17.3,60.8-17.1c-0.4,0.3-29.3,12.8-59.2,11.9
		C176.5,479.2,146.8,470,146.8,470z"/>
	<path fill="#60423E" d="M66.8,430.4c-7.2-6.3-19.1-10.6-17-19.8c1.7-3.8,6.2-3.6,8.1-3.7c-1.2-2.5-2.7-6.4,1-8.7
		c3.5-2.1,6.7,0.1,8.6,2.1c-0.1-1.7-0.3-6.7,3.8-7.7c6.6-2.5,11.3,10.2,12.9,13.9c10.6,23.7,28.5,43.2,44.3,63.8
		c5.3,6.9,13.9,21.1,3.6,27.8c-7.4,4.8-17.4-1.4-22.2-7c-7.9-9.4-11.6-22.7-18.5-32.9C84.4,447.9,76.1,438.5,66.8,430.4z"/>
	<path fill="#60423E" d="M348.4,423.4c6.8-6.6,18.5-11.6,16-20.7c-1.9-3.7-6.3-3.2-8.3-3.2c1.1-2.6,2.4-6.5-1.4-8.6
		c-3.6-2-6.7,0.4-8.5,2.6c0-1.7,0-6.7-4.2-7.5c-6.7-2.2-10.7,10.8-12.1,14.5c-9.4,24.2-26.2,44.6-40.9,66c-4.9,7.2-12.8,21.7-2.1,28
		c7.6,4.5,17.3-2.2,21.8-8.1c7.4-9.8,10.4-23.3,16.8-33.9C331.7,441.8,339.5,432,348.4,423.4z"/>
	<path fill="#60423E" d="M131.5,249.6c-4.8,2.6-16.7,2.9-23.4-0.8c-2-1.1-11-5.4-13.2-5.1c-0.8,0.1-1.6,0.4-2.4,0.2
		c-0.9-0.3-1.4-1.4-1.1-2.3c0.2-0.9,0.9-1.6,1.5-2.3c1.8-1.8,3.6-3.6,5.5-5.3c4,4.5,10.7,7.1,17.7,7.3c20.8,0.6,26.3-13.6,28.1-22.4
		c0.1-0.7,1.2-0.6,1.2,0.1c0.2,1.6,0.3,3.1,0.2,3.8C145.5,226.6,143.8,242.9,131.5,249.6z"/>
	<path fill="#60423E" d="M249.2,207.6c5-2.3,12.4-11.5,13.6-19c0.3-2.2,2.4-12,4-13.5c0.6-0.5,1.3-1,1.6-1.8c0.3-1-0.3-2-1.1-2.3
		c-0.8-0.4-1.8-0.3-2.7-0.2c-2.5,0.3-5,0.7-7.5,1.1c1.1,5.9-0.9,12.8-5,18.5C239.7,207.2,225,203,217,199c-0.6-0.3-1.2,0.6-0.7,1
		c1.1,1.1,2.3,2.1,2.9,2.5C222.5,204.8,236.4,213.4,249.2,207.6z"/>
	<path fill="#F7E9E2" d="M95.7,291c3.6-5.8,8.6-10.9,14.5-14.7c-4.2,6.2-7.4,12.9-9.3,19.8c6.2-8.1,14.5-17.7,24.1-21.4
		c-4.6,8.3-8.9,20.2-8.6,29.1c7.3-18.4,23.5-39.5,40.5-51.4c-1.9,1.3-27.1-3.9-48.9,18.6C101.7,277.3,96.7,285.7,95.7,291z"/>
	<path fill="#F7E9E2" d="M223.5,233.8c-5.4-5.6-16.7-4.1-19-4.1c-2.9,0-5.7,1-8.3,1.9c-10.4,3.8-24.1,11.8-24.2,11.8
		c0,0-8.4,4.7-9.6,13.1c-0.7,4.6,1.1,9.5,5.3,12.4c3.3,2.2,7.8,3,12.1,3.2c13.9,0.7,33.4-5.4,41.9-15.6
		C228.3,248.6,227.9,238.3,223.5,233.8z"/>
	<path fill="#60423E" d="M208.7,229.9c-1.5-2-3.9-3.2-6.4-3.6c-2.5-0.4-5,0-7.5,0.7c-2.7,0.7-13.3,4.5-15.8,5.7
		c-2.3,1.1-4.5,2.4-6.2,4.3c-1.7,1.9-2.8,4.4-2.6,6.9c0.2,2.5,1.9,5,4.3,5.7c1.2,0.3,2.5,0.3,3.7,0.4c1.6,0.2,3.2,0.7,4.6,1.5
		c1.7,1,3,2.5,4.8,3.3c2.6,1.3,5.7,1.2,8.6,0.6c2.6-1.3,5.1-3.3,6.2-6c0.8-1.8,0.9-3.8,1.5-5.6c0.5-1.5,1.4-3,2.5-4.1
		c0.9-0.9,1.9-1.6,2.6-2.7C210.4,234.8,210.1,231.9,208.7,229.9z"/>
	<path fill="#FFFFFF" d="M175.3,240.5c-0.2,1.3,0.7,2.8,2,3c0.9,0.1,1.7-0.4,2.3-1c0.6-0.6,1.1-1.4,1.6-2c1.7-2,4.3-3.2,6.7-4.2
		c0.7-0.3,1.4-0.6,1.9-1.1c0.5-0.5,0.8-1.4,0.4-2c-1.2-2.1-6.7,0.1-8.3,0.8C179.5,235.3,175.7,237.5,175.3,240.5z"/>
	<path fill="#FFA912" d="M258.4,370.4c0.6-20.2-1.4-40.5-5.8-60.2c3.7,5.4,8.6,9.8,12.7,14.8c11,13.4,16.1,30.8,17.7,48.1
		c0.7,7.7,0.7,15.6-1.6,22.9c-2.3,7.4-7.1,14.2-14.1,17.6c-2.1,1-4.6,1.7-6.7,0.5c-5.1-2.8-6.7-13.4-5.9-18.7
		C256,386.9,258.2,379.1,258.4,370.4z"/>
	<path fill="#F2881D" d="M283.3,373.1c-1.2-13.2-4.5-26.6-10.9-38.1c4,9.6,6.2,20,7.1,30.3c0.7,7.7,0.7,15.6-1.6,22.9
		c-2.3,7.4-7.1,14.2-14.1,17.6c-2.1,1-4.6,1.7-6.7,0.5c-0.5-0.3-1-0.7-1.5-1.1c0.9,3.8,2.6,7.4,5.2,8.9c2,1.1,4.6,0.5,6.7-0.5
		c7-3.3,11.8-10.2,14.1-17.6C283.9,388.7,284,380.8,283.3,373.1z"/>
	<path fill="#F2881D" d="M254.2,386.1c0.1-3.6,0.9-7.1,1.6-10.6c0.8-4.3,1.4-8.7,1.2-13.1c-0.3-5.1-1.6-10.1-3.8-14.6
		c5.4,7.7,8.6,17.6,6.3,26.8c-0.5,2.2-1.4,4.3-1.9,6.5c-1.2,4.9-0.7,9.6-0.8,14.5C254.2,395.3,254.2,387.9,254.2,386.1z"/>
	<path fill="#60423E" d="M226.2,431.4c-3.3,2.2-10.2,1.4-10.2,6.2c-0.6,4.7,4.3,4.7,6.8,4.5c-1.9,0.6-4,1.3-5.4,2.7
		c-1.5,1.4-2.2,3.8-1.1,5.5c1.5,2.4,5.1,1.9,7.8,1c-2.4,0.4-6.3,2-5.1,4.5c1.5,2.4,4.9,2.9,7.5,1.8c2.6-1,4.6-3.1,6.4-5.2
		c10-11,20.1-22,30.1-32.9c3.3-3.6,6.3-7.5,8.5-11.8c1.8-3.5,0.6-8.1-2-12.3c-7.7-12.8-12.7-2.9-14-0.7
		C249.7,405.2,236.3,424.7,226.2,431.4z"/>
	<path fill="#F2881D" d="M287.9,433.7c1.9-0.1-10.4,32.4-8.9,52.5c-3.9-3.1-12.5-7.4-17.4-8.1c-3.5-0.5-7-0.6-10.5-0.5
		c-1.4,0-16.4,1.3-15.2,0.7c7.1-3.2,17.7-10,19.5-11.1C274.8,454.9,285.2,431.4,287.9,433.7z"/>
	<path fill="#F2881D" d="M151.2,480.7c8-2.6,23.6-1.5,31.9,0c-10.1-1.3-23.9-8.9-34.4-17.1c-8.1-6.3-12.6-16.1-17.5-25.1
		c-1.3-2.4-2.6-4.8-4.4-6.9c-0.4-0.4-0.9-0.8-1.4-0.7c-1.1,0.2-0.9,1.8-0.4,2.7c4.6,10,8.6,20.3,11.9,30.8
		c1.6,5.2,3.1,10.4,4.4,15.7c0.8,3.1,0.6,6.5,0.6,6.5S146.2,482.3,151.2,480.7z"/>
	<path fill="#F2881D" d="M122.8,381.2c0,0,0.1-0.5,0.4-1.3c0.9-3.1,5.5-20.4,7.3-25.7c2.3-6.7,10.4-8.1,10.4-8.1l-20,42.9
		L122.8,381.2z"/>
	
		<ellipse transform="matrix(0.9549 -0.2971 0.2971 0.9549 -74.2241 74.6364)" fill="#60423E" cx="208.4" cy="281.5" rx="6.5" ry="9.3"/>
	<path fill="#B9DFEA" d="M106.7,71.4c8-22.6,21.3-44.1,41.1-57.7C167.4,0,194.2-4.7,216,5.4c8.7,4.1,16.3,10.3,23.4,16.8
		c20.6,19,37.9,41.6,50.8,66.5c2.4,4.6,4.7,9.8,3.5,14.9s-7.7,9-11.8,5.7c-1.3-1-2.1-2.6-2.9-4c-16.1-29.7-46.7-51.2-80.1-56.4
		c8.5,17.8,17.1,35.7,25.6,53.5c1.2,2.6,2.5,5.3,2,8.1c-0.4,2.2-1.9,4.1-3.4,5.8c-21.4,24.4-54.7,35.4-87,38.4
		c-13.2,1.2-43.3,1.6-43.4-16.5C92.5,116.8,99.6,91.4,106.7,71.4z"/>
	<path fill="#9ACEE8" d="M293.1,95.7c-4.2,3-10.7,1.4-14.7-2.2c-4.2-3.8-6.5-9.3-9.6-14.2c-9-14.6-24.6-23.7-40.4-30.6
		c-7.6-3.3-15.6-6.3-23.9-6.3c-12.1,0-23.4,6.4-32.7,14.2c-7.6,6.4-14.4,14.2-17.3,23.7c9.2-10.5,21.5-18.3,35-22.2
		c1.1-0.3,2.4-0.6,3.3,0c0.8,0.5,1.2,1.5,1.5,2.5c3.1,9.7,6.2,19.5,9.1,29.2c1.9,6.3,3.8,12.8,3.6,19.5c-0.4,10.3-6,19.7-13.4,26.6
		c-1.9,1.7-4.1,3.5-5.9,5.3c13.3-6,25.3-14.3,34.9-25.3c1.5-1.7,3-3.6,3.4-5.8c0.5-2.8-0.7-5.6-2-8.1c-8.5-17.8-17.1-35.7-25.6-53.5
		c33.4,5.2,63.9,26.7,80.1,56.4c0.8,1.5,1.6,3,2.9,4c4.1,3.2,10.6-0.6,11.8-5.7C294.1,100.7,293.8,98.2,293.1,95.7z"/>
	<path fill="#9ACEE8" d="M173.7,40.3c-8.4-0.7-17.2,0.1-24.9,3.4c13.7-0.5,28.4,0.2,39.5,8.2c0.6,0.4,1.3,0.9,2,1
		c1,0.1,1.8-0.6,2.5-1.3c4.2-4.1,5-6.7-1-8.2C185.8,41.9,179.7,40.8,173.7,40.3z"/>
	<path opacity="0.37" fill="#FFFFFF" d="M114.2,94.5c0.2,4.7,1.4,10.2,5.7,11.9c3.3,1.3,7.1-0.3,9.6-2.8c5.8-5.8,5.9-15.1,6.5-23.3
		c0.8-10.5,3-20.9,6.8-30.8c1-2.7,2.1-5.4,2-8.3c-0.2-6.6-6.2-8.1-10.3-4c-4.8,4.9-8.5,11.2-11.6,17.3
		C116.8,66.8,113.6,80.7,114.2,94.5z"/>
	<path opacity="0.37" fill="#FFFFFF" d="M104.7,127.3c-0.6,2.7-0.7,5.7,0.8,8c1.1,1.8,2.9,2.9,4.8,3.7c2.8,1.1,5.9,1.5,8.9,1.1
		c3.6-0.4,7.1-2.1,9.5-4.8c2.8-3.4,3.6-8.3,2.1-12.4c-1.7-4.6-8-11-13.4-10C111.1,114.1,106.1,121.5,104.7,127.3z"/>
	<path fill="#B9DFEA" d="M56,364.2c-17.1,9.3-50.7,18-51.6,27.1c-0.1,17.2,10.2,14.2,11.2,22.8c0.9,8.7-0.2,17.4-0.5,26.1
		c-0.7,19.7,2.8,39.5,10.2,57.8c-3.6-0.3-6.4,4-5.5,7.5c0.9,3.5,4.3,5.9,7.9,6.6c3.6,0.7,7.2,0.1,10.8-0.5
		c51.1-8.8,103.1-12.6,155-11.4c16,0.4,32,1.2,48,2.1c2.2-1.4,1-5-1.1-6.4c-2.2-1.4-4.9-1.5-7.2-2.7c-3.8-2-5.7-6.5-5.9-10.8
		c-0.2-4.3,1.1-8.5,2.1-12.7c8.6-35.7-0.8-75.3-24.6-103.2c-3.9-4.5-8.3-9.2-9.1-15.1c-0.3-2.2-0.2-4.6-1.3-6.5
		c-1.4-2.4-4.5-3.3-7.3-3.7c-9.6-1.4-20.1-0.2-29.8-0.6c-11.9-0.5-23.8,0.1-35.6,1.8C98.7,345.8,76.4,353.1,56,364.2z"/>
	<path fill="#9ACEE8" d="M193.6,500.2c16,0.4,32,1.2,48,2.1c2.2-1.4,1-5-1.1-6.4s-4.9-1.5-7.2-2.7c-3.8-2-5.7-6.5-5.9-10.8
		c-0.2-4.3,1.1-8.5,2.1-12.7c8.6-35.7-0.8-75.3-24.6-103.2c-3.9-4.5-8.3-9.2-9.1-15.1c-0.3-2.2-0.2-4.6-1.3-6.5
		c-1.4-2.4-4.5-3.3-7.3-3.7c-5.5-0.8-11.2-0.8-17-0.6c0.1,0.4,0.3,0.7,0.7,1.1c3.6,0.5,7.4,1,10.4,3c3,2,5.1,6,3.6,9.4
		c-1.4,3.2-5.1,4.5-8.4,5.5c-16.2,4.7-32.3,9.4-48.5,14.1c-5.7,1.7-12.8,5.7-11.2,11.4c24.5-0.2,45.9-16.2,69.5-22.9
		c3.4-1,7.1-1.7,10.4-0.4c2.6,1.1,4.4,3.3,6.1,5.5c15.7,20.7,21.2,50,10.1,73.4c-10,21.2-31.7,34.8-54.3,41.1
		c-22.6,6.2-46.3,6.1-69.7,6.7c-21.5,0.5-43.4,1.7-63.6,8.8c0.1,0.3,0.2,0.6,0.3,0.9c-3.6-0.3-6.4,4-5.5,7.5
		c0.9,3.5,4.3,5.9,7.9,6.6c3.6,0.7,7.2,0.1,10.8-0.5C89.7,502.8,141.7,499,193.6,500.2z"/>
	<path opacity="0.37" fill="#FFFFFF" d="M36.1,378.8c-4.6,1.4-9.4,2.9-12.5,6.4c-0.9,1-1.7,2.3-1.8,3.7c-0.3,3.1,2.9,5.7,6.1,5.8
		c3.1,0.2,6.1-1.3,8.9-2.7c16.2-7.9,33-14.4,50.3-19.5c12-3.5,24.5-6.3,35-13c9.7-6.2-5.3-8.4-10.4-6.4c-6.4,2.5-11.2,6.4-18.2,8.4
		C74.4,367.4,55.2,373.1,36.1,378.8z"/>
	<path opacity="0.37" fill="#FFFFFF" d="M41.2,409.1c-3.1,1.6-6.2,3.4-8.1,6.3c-2.1,3.2-2.4,7.2-2.4,11.1c0,7.5,1.1,15.1,3,22.4
		c1.2,4.5,2.9,9.1,6.6,11.9c4.7,3.5,11.4,2.9,16.8,0.5c8-3.6,14-10.8,18.1-18.6c2.6-5.1,4.6-10.6,8.5-14.8
		c11.5-12.7,34.4-8.8,45.6-21.8c1.5-1.8,2.8-4.1,2.2-6.4c-1.1-3.8-6.2-4.1-10.1-3.6c-3.9,0.5-8.9,0.7-10.5-2.9c-0.5-1-0.6-2.2-1.3-3
		c-0.8-0.9-2.1-1.1-3.4-1.2c-10.3-0.4-23,4.9-32.9,7.7C62.2,400,51.3,403.8,41.2,409.1z"/>
	<path fill="#F2881D" d="M105.5,375.1c0.1-0.9,5.7-12.9,13.3-23.3c15-20.4,28-26.9,28-26.9l-4.3,10.6l-12.5,11.7c0,0-9.2,11-14,18.5
		c-4.8,7.5-9.6,14.9-9.6,14.9L105.5,375.1z"/>
	<path fill="#FFA912" d="M92.9,377.6c-0.7-1.2-0.4-2.7-0.1-4c2.7-12.5,10-34.7,17.6-44.9c2.3-3.1,2.2,3.8,5.8,2.6
		c3.7-1.3,8.4-0.2,10.2,3.2c1.5,2.9,0.6,6.4-0.5,9.5c-3.1,8.7-7.6,16.9-12,25c-1.8,3.3-3.6,6.6-6.1,9.6c-1.7,2.1-3.9,4-6.5,4.3
		c-1.8,0.2-3.8-0.7-4.8-2.2c-0.6-0.9-0.5-1.4-1.2-1.8C94.5,378.2,93.5,378.8,92.9,377.6z"/>
	<path fill="#875D59" d="M110,395.1c0.8,1.3,1.8,2.5,2.3,3.9c0.6,1.4,0.7,3.1-0.1,4.4c-0.8,1.3-2.7,1.9-3.9,1
		c1.4,1.9,1.2,4.9-0.6,6.4c-1.8,1.5-5.1,0.7-5.8-1.6c0,1.4-1.4,2.5-2.8,2.6c-1.4,0-2.7-0.8-3.6-1.9c-0.9-1.1-1.4-2.4-1.8-3.8
		c-2.3-7.1-3.4-14.8-2-22.1c1.2-6.5,4.3-13.2,5.1-14.3c3.7-5.6,9.6-3,11.3-0.3c1.3,1.9,1.1,3.6-0.8,7.4
		C104.5,382.5,106.6,389.8,110,395.1z"/>
</g>
</svg>
