<?xml version="1.0" encoding="utf-8"?>
<!-- Generator: Adobe Illustrator 17.1.0, SVG Export Plug-In . SVG Version: 6.00 Build 0)  -->
<!DOCTYPE svg PUBLIC "-//W3C//DTD SVG 1.1//EN" "http://www.w3.org/Graphics/SVG/1.1/DTD/svg11.dtd">
<svg version="1.1" id="Layer_1" xmlns="http://www.w3.org/2000/svg" xmlns:xlink="http://www.w3.org/1999/xlink" x="0px" y="0px"
	 width="507.7px" height="528.9px" viewBox="0 0 507.7 528.9" enable-background="new 0 0 507.7 528.9" xml:space="preserve">
<g>
	<path fill="#FFA912" d="M456.3,289.5c3.1,1.2,6.3,2.5,8.5,5c2.2,2.5,2.9,6.6,0.6,9.1c-1.6,1.7-4.2,2.1-6.6,2.3
		c-23.6,2.1-47.8-4.4-67.1-18c-3.8-2.7-7.5-5.7-10.1-9.5c-2.6-3.8-4-8.7-3-13.2c1.8-8,11.1-12.7,19.3-11.8
		c11.9,1.4,15.9,9.4,23.1,17C430.1,279.9,444.2,284.8,456.3,289.5z"/>
	<path fill="#60423E" d="M412.6,496.4c-0.3,1-0.6,2.1-1.4,2.8c-1.3,1.3-3.5,1.2-5.3,0.9c-1.7-0.2-3.4-0.4-4.8-1.5
		c-1.5-1.1-2.2-3-2.3-4.9c-0.1-1.8,0.4-3.7,0.8-5.4c3.9-14.9,8.7-29.5,11.3-44.6c0.6-3.5,1.3-7.4,4-9.8c2.1-1.8,5-2.2,7.8-2.2
		c3.1,0,6.4,0.5,8.7,2.5c6.5,5.4-1.5,15.8-3.9,21.4c-3.7,8.6-7.1,17.2-10.2,26C415.8,486.5,414.1,491.4,412.6,496.4z"/>
	<g>
		<path fill="#60423E" d="M416.4,492.9c1.2,0.4,5.2,2,5.9,4.9c0.3,1.1,0.4,2.8-0.5,3.8c1,1.8-1,4.5-1.6,4.8
			c-1.4,0.8-1.3,0.7-3.5,0.2c0.5,0.5-0.8,3.2-2.8,3.7c-3.7,0.9-8.6-1.9-11.8-4c-5.3-3.4-4.9-7.1-4.6-9.7c0.2-2.6,1.3-5,2.4-7.3
			c0.8-1.6,1.8-3.3,3.3-4.2c1.5-0.9,3.5-1,5.2-0.5c2,0.6,7.8,0.8,7.1,2.9C415.1,488.7,412.9,491.8,416.4,492.9z"/>
		<path fill="#382624" d="M416.8,506.6c0,0,0.6-2.9-1.6-4.5c-2.1-1.7-3.4-2.2-3.4-2.2s2.6-0.3,5,1.9c2.4,2.2,1.9,5.1,1.9,5.1
			L416.8,506.6L416.8,506.6z"/>
		<path fill="#382624" d="M421.7,501.6c0,0-0.8-1.5-1.9-2.4c-1.6-1.2-4-2-4-2s1.9,0.2,3.5,0.9c2.1,1,2.9,2.3,2.9,2.3s0,0.3-0.3,0.7
			C421.8,501.5,421.7,501.6,421.7,501.6L421.7,501.6z"/>
	</g>
	<path fill="#F2881D" d="M408.7,445c5,0.6,19.2,0.5,22.8-3c4.6-4.4,2.1-13.8-0.2-19.7c-5.2-13.3-43.4-53-47.1-57.6
		c-3.4-4.2-7.8-7.5-12.6-10.1c-15.1-8.3-34.8-9.6-49.3-0.3c-21.9,14.1-22.4,44.5-0.9,57.5C350.2,429.3,375.2,440.7,408.7,445z"/>
	<path fill="#FFA912" d="M272.3,255.2c-19,26.5-50.1,58.4-48.7,89.3c1.4,30.6,25.2,60.2,59.3,71.4c34.1,11.2,76.6,2.6,99.5-21.4
		c11.7-12.3,18-27.4,23.3-42.5c12.2-35.2,9.2-141.2,2.1-154c-9.2-16.5-17-23.5-38.2-27.5c-21.7-4.1-31.1-7.1-38.7,14.5
		C321.6,211.3,289.2,231.7,272.3,255.2z"/>
	<path fill="#FCD8BE" d="M407.4,199.2c-0.5-0.4-1-0.8-1.6-1.1c-7.4-5-17-6.8-26.3-7.4c-7.5-0.5-15.4-0.3-22.2,2.7
		c-4.5,2-9.8,6.2-10.5,10.8c-0.8,5,3.3,5.5,4.3,10.9c2.4,13.1,1,26.7-2.7,39.5c-4.6,16.1-12.7,31.3-21.9,45.8
		c-9.5,15-20.6,31.5-16.3,48.2c2,7.5,6.9,14.1,11.7,20.5c2.6,3.5,5.3,7.1,9.1,9.7c7,5,16.6,6.2,25.6,7.1c8.3,0.8,16.8,1.6,25-0.1
		c3.2-0.7,8-3.3,10.9-4.7C428.8,321.2,414.1,216.3,407.4,199.2z"/>
	<path fill="#60423E" d="M188.7,515.8c-1,0.5-2,1.1-3.1,1c-2,0-3.5-1.7-4.7-3.3c-1.1-1.4-2.2-2.9-2.5-4.6c-0.3-1.9,0.6-3.9,1.9-5.3
		c1.3-1.4,3-2.5,4.7-3.5c14-8.2,28.5-15.6,41.7-24.9c3.1-2.2,6.5-4.6,10.3-4.3c2.9,0.2,5.4,2.1,7.5,4.1c2.3,2.3,4.4,5.1,4.7,8.3
		c0.9,8.8-12.9,10.7-18.9,13.1c-9.1,3.6-18.2,7.6-27,11.9C198.4,510.7,193.5,513.2,188.7,515.8z"/>
	<g>
		<path fill="#60423E" d="M194.1,516c0.6,1.2,2.4,5.4,0.8,8c-0.6,1-1.7,2.4-3.2,2.5c-0.6,2.1-4.1,2.6-4.8,2.4
			c-1.6-0.5-1.5-0.4-2.8-2.4c0,0.7-3,1.8-4.9,0.7c-3.4-2.1-5-7.8-5.9-11.7c-1.5-6.4,1.6-8.9,3.7-10.7c2.1-1.8,4.7-2.8,7.3-3.7
			c1.8-0.6,3.8-1.1,5.7-0.7c1.8,0.4,3.4,1.8,4.2,3.5c1,2,5.2,6.4,3.1,7.5C196.3,511.8,192.3,512.5,194.1,516z"/>
		<path fill="#382624" d="M184.2,526.5c0,0,2.6-1.7,2.2-4.6c-0.4-2.8-1-4.1-1-4.1s2.2,1.8,2.3,5.1c0.2,3.4-2.4,5.3-2.4,5.3
			L184.2,526.5L184.2,526.5z"/>
		<path fill="#382624" d="M191.7,526.4c0,0,0.6-1.7,0.4-3.2c-0.3-2.1-1.5-4.5-1.5-4.5s1.3,1.6,2,3.3c0.9,2.3,0.5,3.9,0.5,3.9
			s-0.2,0.2-0.7,0.4C191.8,526.4,191.7,526.4,191.7,526.4L191.7,526.4z"/>
	</g>
	<path fill="#FFA912" d="M139.1,293.6c-24.1,2.2-46.8,12-70.5,16.7c-23.7,4.8-50.9,3.5-68.5-13.1c-0.1,14.9,8.8,28.3,19,39.1
		c36.8,39.4,93.1,56.8,146.9,54c16.8-0.9,34-3.7,48.4-12.4c11.4-6.9,21-18,24.1-31.1c3.3-13.6-9.7-22.3-19.8-29.9
		C196.2,299.9,167.3,291.1,139.1,293.6z"/>
	<path fill="#F2881D" d="M19.6,308.8c0.8,1,1.7,1.9,2.5,2.8c36.8,39.4,93.1,56.8,146.9,54c16.8-0.9,34-3.7,48.4-12.4
		c7.7-4.7,14.6-11.3,19.2-19.2c2.1,3.8,3,8,1.8,12.8c-3.2,13.1-12.8,24.3-24.1,31.1c-14.4,8.7-31.6,11.6-48.4,12.4
		c-53.8,2.8-110.1-14.7-146.9-54C8.9,325.5,0,312.1,0,297.2C5.7,302.5,12.4,306.3,19.6,308.8z"/>
	<path fill="#FFB845" d="M215.6,332.9c-2.7,2.5-7,2.8-10.5,1.8c-3.6-1-6.8-3-10.1-4.8c-9.1-4.8-19.4-7.3-29.7-7.2
		c-6.8,0.1-13.8,1.2-20.4-0.3c-2.9-0.7-6-2.1-7.4-4.7c-2.1-3.9,0.2-8.9,3.9-11.3c3.7-2.4,8.3-2.7,12.7-2.6
		c13.4,0.1,26.7,2.8,39.2,7.7C199,313.6,225.9,323.5,215.6,332.9z"/>
	<path fill="#FCD8BE" d="M19,336.3C8.9,325.5,0,312.1,0,297.2c17.6,16.6,44.8,17.9,68.5,13.1c5.3-1.1,10.5-2.4,15.6-3.8
		c0.8,0.8,1.5,1.8,2.1,3.2c2.5,5.9-1,11.8,0.1,17.9c1,5.5,5.8,9.5,8.3,14.6c2.2,4.5,2.3,9.9,0.4,14.6c-1.4,3.4-3.8,6.3-4.8,9.8
		c-1.2,4.4-0.1,9.3-0.4,13.8C63,371.6,38.3,357,19,336.3z"/>
	<path fill="#EFC8AC" d="M0,297.3c0.3,0.3,0.7,0.6,1.1,1c0,0,0,0,0,0c0.3,0.3,0.7,0.6,1,0.9c0,0,0.1,0,0.1,0.1
		c1.1,0.9,2.2,1.8,3.4,2.6c0,0,0,0,0,0c4.3,3,9,5.3,13.9,7c0.8,1,1.7,1.9,2.5,2.8c19.8,21.2,45.3,36.1,73.1,44.8
		c0,0.1-0.1,0.2-0.1,0.4c-1.4,3.4-3.8,6.3-4.8,9.8c-1.2,4.4-0.1,9.3-0.4,13.8c-0.1,0-16.9-0.7-57.3-30C10.3,334.4-0.1,312.1,0,297.3
		z"/>
	<path fill="#F2881D" d="M286.3,341.9c11.6,15.7,19.5,37.7,13.8,73.7c-0.1,0.8,26.1,5.2,63.8-4.6c-15.4,9-33.4,12.5-51.2,13.5
		c-7,0.4-29.3,2.4-29.8-8c-0.3-5.9,1.7-12.2,1.9-18.1c0.3-7.2-0.1-14.5-0.7-21.7C283.4,368.5,287.4,350.1,286.3,341.9z"/>
	<path fill="#FFA912" d="M217.9,381.9c-0.4,33.3,20.9,70.2,5.7,95.5c-1,1.7,0.4,6.6,2.1,9c2,2.7,8.4,7.9,11.7,7.5
		c24.6-2.8,51.3-69,54-78.1c6.3-21.2,5.8-44.3-1.5-65.1c-3-8.5-7.1-16.7-13.5-22.9C244.5,296.7,218.7,305.5,217.9,381.9z"/>
	<path fill="#F2881D" d="M325.5,224.5c4.4,4.8,7.5,10.6,10.8,16.2c6.7,11.5,14.6,22.8,25.6,30.4c15.3,10.5,35,12.5,53.4,9.8
		c-0.1-11.4-0.1-22.8-0.2-34.2c0-6.4-0.1-12.9-1.8-19c-2.8-10-10-18.4-18.8-23.9c-8.8-5.5-19.1-8.3-29.4-9.4
		c-10.7-1.1-21.6-0.5-31.8,2.9c-7.7,2.6-15.5,6.8-21.1,12.8c-4.2,4.5-1.7,4.9,3,6.9C319,218.7,322.5,221.3,325.5,224.5z"/>
	<path fill="#EFC8AC" d="M347.5,258.1c4.1,5.1,9.9,10.3,15.3,14c15.3,10.5,34.9,12,53.3,9.3c0.4-11.7,1.7-38.2-1.4-53.5
		c0-0.1,0-0.1-0.1-0.2c-2.8-10-10-18.4-18.8-23.9c-8.8-5.5-19.1-8.3-29.4-9.4c-2.8-0.3-5.7-0.5-8.6-0.5c-4.2,2.1-8.8,6.1-9.5,10.3
		c-0.8,5,3.3,5.5,4.3,10.9c2.4,13.1,0,25.7-3.6,38.5C348.6,254.6,347.8,257.1,347.5,258.1z"/>
	<path fill="#EFC8AC" d="M489.6,176.4c-3.7-0.8-7.3-1.7-11-2.5c5.3,5.9,8.7,13.9,9.6,22.2c-5.7-1.1-11.3-2.4-16.9-4.1
		c7.9,9.2,12.3,21.9,12,34.8c-8.8-5.6-17.6-11.2-27.3-14.5c-14.2-4.9-29.7-4.4-44.4-1c0.6-7.2,4-13.8,7.6-19.9
		c7-11.7,15.1-22.6,24.1-32.4c5.7-6.1,17.3-19.2,25.4-12.3c4.3,3.7,8,9.2,11.3,14c1.7,2.5,3.4,5,5,7.6
		C485.9,169.6,488.6,176.1,489.6,176.4z"/>
	<path fill="#FCD8BE" d="M460.7,186c4.5-8,7.8-16.8,10.7-25.5c4.5-13.5,8.4-27.6,7-41.8c-0.6-5.7-2.1-11.3-4.9-16.2
		c-3-5.1-7.3-9.3-11.9-12.9c-16.7-13-37.9-19.5-59-20.7c-21.1-1.2-42.3,2.6-62.6,8.4c-21.3,6.1-42,14.7-58.8,29.4
		c-9.3,8.1-10.6,20.3-9.1,32.5c-4.2,4.3-8.2,8.6-11.6,13.6c-4.7,6.9-8.3,14.4-10.6,22.3c5.7-2.1,11.9-3.2,18.2-3.3
		c-3.3,9.1-5.7,18.5-7.1,28c11.4-2.8,23.4-3.9,35.3-3.1c-4.2,7.1-7.5,14.8-9.8,22.7c14.5-3.9,31.4-2,46.8,1.3
		c6.5,2.7,13.3,4.8,20.3,6.1c14.9,4.6,32,8.4,44.9,7.8c60.5-2.9,61.8-27,69-38.6C469.4,192.8,466.4,189.4,460.7,186z"/>
	<path fill="#60423E" d="M466.1,13.6c3.2-2.7,7.1-5.5,11.5-4.8c6.3,1,8.3,8.1,8.3,13.6c-0.2,13.8-4.4,27.2-8.5,40.4
		c-3.6,11.5-7.3,23-10.9,34.4c-0.6,1.8-1.2,3.7-2.4,5.3c-2.5,3.1-7.1,4.5-11.6,4.3c-4.4-0.2-8.7-1.6-12.7-3.2
		c-9.8-3.8-19.4-8.5-26.5-15.5c-5-5-10.8-13.9-9.3-20.8c1.4-6.1,11.3-11.2,16.4-15.4C435.6,39.1,450.9,26.4,466.1,13.6z"/>
	<path fill="#FFA912" d="M472.3,21.1c1.3-1.7,3-3.6,5.1-3.1c3,0.6,2.9,4.9,2.1,7.8c-5.3,18.8-10.5,37.7-15.8,56.5
		c-0.7,2.5-1.4,5-3.1,7c-2.8,3.4-7.7,4.3-12,3.2c-4.2-1.1-7.8-3.9-10.8-7.1c-11.7-12.4-4.8-20.6,5-30.5
		C453.3,44.3,463.2,33,472.3,21.1z"/>
	<path fill="#FCD8BE" d="M434.2,80.8c3.2,1.2,6.8,0.9,9.7-0.9c1.9-1.2,3.4-2.9,4.9-4.6c4.3-5.2,8-10.9,12.9-15.6
		c-1.4,0.5-2.7,0.9-4.1,1.4c2.1-2.2,4.5-4.2,7.1-5.9c-3.1-0.6-6.3-0.3-9.2,1c2.8-3.2,6.2-6,9.9-8.1c-3.6-0.6-7.3,0.6-10.8,1.8
		c3.1-3.1,6.7-5.9,10.6-8.1c-4.2,0.1-8.2,0.8-12,2.1c-3.4,3.7-6.8,7.4-10.3,10.9C434.4,63.6,428,70.9,434.2,80.8z"/>
	<path fill="#F7E9E2" d="M414.8,177.4c-3.5,0.9-6.9,2.8-9,5.7c-1.8,2.6-2.5,5.8-2.7,9c-0.2,2.4,0,4.8,0.7,7.2c1.2,4,4.2,7.4,7.8,9.6
		c3.6,2.2,7.9,2.9,12,3.7c12.7,2.5,31.2,6.5,42.4-12.2c1.9-3.2,2.6-12.2,0.7-15.4c-2.5-4.2-7.3-6.3-12-7.7c-6.8-2.1-14.1-3.1-21.2-2
		C427.4,176.3,420.8,175.9,414.8,177.4z"/>
	<path fill="#EFC8AC" d="M456.4,140.7c4.7,0.9,9.6,3.5,14,1.6c1.5-0.6,2.7-1.7,3.7-2.9c6.5-7.4,5.7-22.8-0.9-30.1
		c-6.6-7.3-17.8-5.8-26.3-0.9c-3,1.7-5.6,4.2-7.9,6.8c-4.6,5.4-14.4,21.8-8.8,29c2.6,3.3,7,1.7,10.1,0.3
		C445.8,141.8,450.2,139.4,456.4,140.7z"/>
	<path fill="#EFC8AC" d="M302.7,126.6c18.2,11.4,41.3,9.2,62.4,13.3c14.6,2.8,28.5,8.8,40.6,17.5c-5.6-10.8-11.3-21.5-17.8-31.7
		c-3.3-5.1-6.9-10.1-11.3-14.2c-7.6-6.9-17.6-10.9-27.9-12.4c-10.2-1.4-20.6-0.5-30.8,1.6c-7.2,1.5-17.9,3.7-23,9.6
		C289.5,116.4,297.6,123.4,302.7,126.6z"/>
	<path fill="#60423E" d="M449.9,122.8c6.4-2.1,14-1,18.7,3.8c1.7,1.7,2.9,4.2,3.6,6.5c1.4,4.7,3.2,1.5,3.5,2.6
		c-2,7-6.3,15.6-12.8,18.8c-6.5,3.2-13.8,2.4-20.8,1.1c-3.9-0.7-8.4-3.2-10.6-6.5c-1.5-2.3-2-4-1.4-6.7
		C432.2,133.3,441.3,125.7,449.9,122.8z"/>
	<path fill="#FFFFFF" d="M457.9,125.1c2.8,0.2,5.6,0.8,7.8,2.5c1.9,1.5,4.1,5,3.5,10.4c-0.9,8.3-8.5,12.2-10.5,13.2
		c-3.7,1.9-14,2.9-19,1.1c-2.6-0.9-3.9-1.9-4.7-4.6c-0.8-2.7-0.6-5.6,0.3-8.2c0.7-2.1,1.8-4.1,2.1-6.3c0.1-0.4-0.1-0.9,0-1.3
		c0.1-0.3,0.7-0.7,1-0.9c0.8-0.6,1.6-1.1,2.4-1.7c3.3-2,6.9-3.4,10.7-4C453.6,125.1,455.8,125,457.9,125.1z"/>
	<path fill="#EDEDED" d="M469.2,138.1c0-0.5,0.1-1,0.1-1.5c-1.3,2.3-2.9,4.5-4.9,6.3c-2.9,2.5-6.6,4.2-10.4,4.1
		c-3.8,0-7.7-1.9-9.7-5.1c-1.9-3-2.1-6.8-1.4-10.3c0.3-1.4,0.7-2.7,1.3-4c-1.2,0.5-2.3,1.1-3.4,1.8c-0.8,0.5-1.6,1.1-2.4,1.7
		c-0.3,0.2-0.9,0.5-1,0.9c-0.1,0.4,0,0.9,0,1.3c-0.3,2.2-1.4,4.2-2.1,6.3c-0.9,2.6-1.1,5.5-0.3,8.2c0.8,2.7,1.6,4.2,4.2,5.1
		c5,1.8,17.6,2.1,21.4,0.5C463.8,152.1,469.3,148.5,469.2,138.1z"/>
	<path fill="#FFA912" d="M311.4,103.8c22.6-7.2,52.1-8.4,70.5,13.8c12,14.4,20,38.2,29.5,49.3c10,11.7,35.4,30.9,44.3,27
		c-1.5-3.2,10.5-4.6,7.2-7.8c-9.7-9.5-25.8-25.8-26.5-45.4c-0.3-7.9,8.2-23.3,14.5-28.2c11.4-8.9,24-8.5,27.7,13.8
		c-0.9-31.3-13.3-46.4-24-57.7c-25.2-26.9-73-31.4-95.7-29.2c-23.2,2.3-45.7,12.9-61.9,29.7c-11.8,12.3-29.5,44-25.1,70
		C282.8,114.8,302.9,106.5,311.4,103.8z"/>
	<path fill="#60423E" d="M444.5,184.3c-2.3,0.4-4.8,0.8-6.6,2.3c-2.3,1.9-3.1,5.5-1.7,8.2c1.4,2.7,4.7,4.2,7.7,3.5
		c1.2-0.3,2.3-0.9,3.5-1.2c1.2-0.3,2.6-0.3,3.5,0.6c1.1,1.2,0.8,3.3,1.9,4.5c0.9,1,2.5,1.1,3.7,0.5c1.2-0.6,2-1.8,2.6-3
		c0.6-1.2,1-2.5,1.5-3.7c0.2-0.4,0.6-0.9,1-0.7c0.3,0.1,0.4,0.4,0.6,0.6c0.5,0.5,1.5,0.4,2-0.2c0.5-0.5,0.7-1.3,0.8-2
		c0.4-2.7,0.2-5.8-1.8-7.6c-1.5-1.4-3.6-1.8-5.5-2.1C453,183.4,448.9,183.6,444.5,184.3z"/>
	<g>
		
			<ellipse transform="matrix(0.9867 0.1624 -0.1624 0.9867 28.5784 -72.3847)" fill="#231F20" cx="457" cy="138.6" rx="11.4" ry="12.5"/>
		<path fill="#FFFFFF" d="M450.1,133.2c-0.3,0.6-0.5,1.3-0.4,1.9c0,0.7,0.4,1.3,0.9,1.6c0.7,0.4,1.6,0.1,2.2-0.3
			c0.7-0.5,1.2-1.1,1.9-1.6c0.7-0.5,1.4-0.7,2.2-0.8c0.8-0.1,1.7,0.1,2.4-0.4c0.8-0.6,0.9-1.9,0.4-2.7
			C457.5,127.2,451.6,129.9,450.1,133.2z"/>
	</g>
	<path fill="#60423E" d="M263.8,14.3c-0.5-3.9-0.8-8.4,1.8-11.3c1.4-1.6,3.5-2.4,5.6-2.8c7.5-1.3,14.8,3.1,21,7.7
		c12.1,9.1,22.9,19.8,33.5,30.6c3.9,3.9,7.9,8.3,8.5,13.7c0.5,4.3-1.3,8.5-3.6,12.1c-9.6,15.4-26.8,23.3-41.1,33.4
		c-2,1.4-7.5,9.2-12.2,6.5c-2.5-1.4-3.1-13.2-3.4-16c-1.3-12.9-2.6-23.2-4.4-34.9C267.4,40.4,265.5,27.4,263.8,14.3z"/>
	<path fill="#FFA912" d="M272.5,10.1c-0.8,2.5-0.3,5.2,0.2,7.8c1.3,6.4,2.5,12.7,3.8,19.1c2.7,13.5,5.4,27.1,10.7,39.8
		c1.8,4.1,3.9,8.3,7.6,10.8c4.3,2.9,9.9,3.1,14.9,1.9c10.1-2.4,19.2-10.6,21.1-21c2.1-11.7-4.8-23.1-12.8-31.6
		c-7.1-7.5-15.2-13.7-23.7-19.5C289.9,14.4,275.5,1.2,272.5,10.1z"/>
	<path fill="#FCD8BE" d="M318.2,36.8c-1-1.1-2.1-2.2-3.2-3.2c-1.3-0.5-2.7-1-4.4-1.4c-4.1-1-8.3-1.2-12.5-0.7
		c-2.1,0.2-4.1,0.7-6.1,1.3c-1.5,0.5-4.1,2.3-5.5,2.3c4-0.1,8.1,0.6,11.9,1.9c-4.7,1.6-8.9,4.3-12.3,7.9c8-0.8,16.4,1.7,22.6,6.8
		c-7.1,0.2-14.2,2-20.6,5.2c4.3,0.3,8.5,1.4,12.4,3.2c-4.5,1.8-8.2,5.4-10,9.8c8.7-2.9,18.5-5.8,26.8-1.8c2.2,1,4.4,2.5,6.7,2.3
		c2.1-0.3,3.9-1.9,5.1-3.7c0.9-1.2,1.6-2.5,2.2-3.9C330.9,53.2,324.9,44,318.2,36.8z"/>
	<path fill="#E08119" d="M330.9,86.4c-1.4,1.2-2.7,2.8-2.4,4.5c0.3,2.3,3.2,3.5,5.6,3.2c2.4-0.4,4.5-1.7,6.7-2.7
		c3.9-1.7,8.2-2.2,12.5-2.3c1.4-0.1,2.9-0.1,4.3-0.6c1.4-0.5,2.6-1.5,3-2.8c0.4-1.6-0.6-3.2-2-4.1c-1.4-0.9-3.1-1.2-4.8-1.3
		C346.3,79.7,336.6,81.5,330.9,86.4z"/>
	<path fill="#E08119" d="M449.8,86.2c-1.5,0.3-3.3,1.1-4,2.6c-1,2.1,0.3,4.5,2.1,5.3c1.8,0.8,4,0.6,6,0.8c3.5,0.4,6.7,2,9.7,3.9
		c1,0.6,2,1.3,3.2,1.5c1.2,0.2,2.6,0,3.5-1c1.1-1.1,1.3-3,0.9-4.4c-0.5-1.4-1.5-2.5-2.6-3.3C463.8,87.7,456.3,84.7,449.8,86.2z"/>
	<g>
		<path fill="#60423E" d="M327.2,126.8c6.1-5.2,11.4-8.1,19.3-9.4c7.9-1.3,16.4-0.2,23.1,4.3c6.1,4.1,10.1,10.5,13.9,16.8
			c2.1,3.5,4.3,7,5.8,10.8c0.3,0.7,0.5,1.5,0.1,2.1c-0.2,0.4-0.6,0.6-1,0.8c-3.6,1.6-7.4,2.7-11.2,3.5c-13.9,3.1-29.1,3.8-41.7-2.8
			c-6.9-3.6-12.6-9.2-17.8-15c-1.3-1.5-2.6-2.9-3.9-4.4c-1.1-1.4-2-2.2-0.2-2.8C315.4,129.9,320.1,132.9,327.2,126.8z"/>
		<path fill="#FFFFFF" d="M332.7,127.9c3.4-4.5,11.1-7.6,14.7-8c27.1-3.7,37.9,24.5,37,30.1c-0.5,3.2-14.4,5.7-17,6.1
			c-7,1-26.7,1.5-34.6-7.9C330.6,145.5,326.4,136.4,332.7,127.9z"/>
		<path fill="#EDEDED" d="M383.6,145.2c-0.5,3.2-14.4,5.7-17,6.1c-7,1-26.7,1.5-34.6-7.9c-0.8-0.9-1.8-2.6-2.5-4.8
			c0.1,4.7,2.1,8.5,3.5,10.1c7.9,9.3,27.6,8.8,34.6,7.9c2.6-0.4,16.5-2.9,17-6.1c0.2-1.1-0.1-3.1-0.9-5.6
			C383.7,145,383.7,145.1,383.6,145.2z"/>
		<g>
			
				<ellipse transform="matrix(0.985 -0.1728 0.1728 0.985 -18.8265 65.2191)" fill="#231F20" cx="365.2" cy="140.8" rx="12.7" ry="14"/>
			<path fill="#FFFFFF" d="M356.1,137.7c-0.1,0.7,0,1.5,0.3,2.2c0.3,0.7,0.9,1.3,1.5,1.4c0.9,0.2,1.7-0.4,2.2-1.2
				c0.5-0.7,0.9-1.6,1.4-2.4c0.5-0.7,1.2-1.3,2-1.6c0.8-0.4,1.8-0.5,2.3-1.3c0.6-0.9,0.2-2.3-0.6-3
				C361.6,128.6,356.4,133.6,356.1,137.7z"/>
		</g>
	</g>
	<path fill="#FFB845" d="M413.3,132.9c-1,1.2-1.2,2.8-1.2,4.3c0,8.9,6,16.5,11.6,23.4c2,2.4,4,4.8,6,7.2c1.9,2.3,4.2,4.8,7.2,4.7
		c0.8-2.2,0.2-4.6-1-6.6c-1.2-2-2.8-3.6-4.2-5.5c-2.4-3.2-4.2-6.9-5-10.8c-0.7-3.5-0.7-7.2-1.9-10.6
		C423.7,135.7,417,128.6,413.3,132.9z"/>
	<path fill="#60423E" d="M417.7,232.8c-0.8-0.1-16.4-1.7-23.6-8.6c-5.1-4.9-7.9-10.3-7.9-10.3s1.2,5.9,5.6,12.2
		c4.6,6.4,14.9,7.7,15.8,7.6C413.8,233.4,417.7,232.8,417.7,232.8z"/>
	<g>
		<path fill="#60423E" d="M454.3,196.2c-0.6,3.7-1.1,7.8-3.3,11c-2.2,3.2-6,4.5-9.6,5c-4.1,0.6-8.4,0.5-12.5,0.1
			c-4.3-0.4-8.7-1.3-12.5-3.3c-1.9-1-3.7,1.9-1.7,2.9c6.8,3.5,14.6,4.1,22.1,4c6.7-0.1,14.1-1.5,17.7-7.8c2-3.3,2.6-7.2,3.2-11
			c0.1-0.9-0.2-1.8-1.2-2.1C455.6,194.8,454.4,195.3,454.3,196.2L454.3,196.2z"/>
	</g>
	<g>
		<path fill="#60423E" d="M454.5,199.7c-0.7,1.8-1.2,3.7-1.5,5.6c-0.1,1-0.1,2-0.1,3c0,1,0.5,2.2,1.2,3c1.4,1.8,6-2.6,7.4-4.2
			c0.8-1,1.8-2.4,1.6-2.5c-0.8-0.6-1.1,0.1-2.5,1c-1.2,0.8-3.5,3.6-4.2,2.8c-0.3-0.3-0.2-1.9,0.1-3.5c0.1-0.4,0.1-0.7,0.2-1.1
			c0-0.2,0.1-0.4,0.1-0.5c-0.1,0.3,0.1-0.2,0.1-0.3c0.2-0.8,0.5-1.5,0.8-2.3c0.3-0.8-0.1-1.9-1-2.2
			C455.8,198.4,454.9,198.8,454.5,199.7L454.5,199.7z"/>
	</g>
	<path fill="#F7E9E2" d="M300.3,175.6c6.5-0.8,13.1-1.7,19.6-0.9c-5.4,4.1-9.9,9.4-13.1,15.5c7.6-4.6,16.4-7.1,25.3-7
		c-5,3.6-9,8.7-11.3,14.5c16.4-18.1,42-27.5,66.3-24.2c-20.6-12-46.5-14.7-69-6.7c-3.1,1.1-6.2,2.4-9.2,3.9
		C306.6,171.7,302.7,175.3,300.3,175.6z"/>
	<path fill="#60423E" d="M499.3,278.9c2.2-0.5,4.8-0.7,6.2,1.6c1.3,2.1,0.8,5.3-0.5,7.4c-1.3,2-3.3,3.1-5.1,4.1
		c-13.9,7.4-28.4,13.8-43.4,14c-5,0.1-10.4-3.9-7.1-11.5c2.3-5.2,7.2-3.9,11.1-4.1C473.8,289.6,486.2,281.9,499.3,278.9z"/>
	<path fill="#875D59" d="M492.1,291.5c-1.4-1.3-1.2-3.9,0.4-5c-1.8,1.1-4.4,0-5.1-1.9c-0.7-1.9,0.3-4.3,2.1-5.3
		c-1.1,0.4-2.4-0.9-2.2-2.1c0.1-1.2,1.1-2.2,2.1-2.8c3-1.9,6.9-2.3,10.2-1c3.3,1.3,6,4,7.4,7.3c0.6,1.4,0.9,3,0.7,4.5
		c-0.3,2-1.6,3.8-3.3,5C502.1,291.7,494.4,293.8,492.1,291.5z"/>
	<path fill="#875D59" d="M370.8,332.1c0.2-0.9,0.9-1.6,1.7-2c0.8-0.4,1.8-0.4,2.7-0.4c2,0.1,4,0.7,5.8,1.8c1.1,0.7,2.2,1.6,2.8,2.8
		c0.7,1.2,0.9,2.6,0.5,3.8c-0.6,1.7-2.4,2.8-4.2,3.2c-2.3,0.5-4.8,0-6.6-1.4c-1.1-0.9-2-2.1-2.4-3.5c-0.2-0.7-0.3-1.4-0.3-2.1
		C370.9,333.5,370.7,332.8,370.8,332.1z"/>
	<path fill="#60423E" d="M384.8,334.6c0.9,1.3,1.2,2.9,1.3,4.4c0.3,3.7-0.7,7.8-3.8,9.7c-1.3,0.8-2.8,1.1-4.3,1.4
		c-3.1,0.6-11.6-0.4-14.6-1.5c-5-1.9-5.7-4.9-4.4-9.6c0.8-2.9-0.3-5,2.7-5.4c4.5-0.6,9.2-1.3,12.2-1.5
		C377.6,331.8,382.4,331.1,384.8,334.6z"/>
	<path fill="#F2881D" d="M325.8,276.2c1.9-23-8.4-25.9-11.9-26.1c-1.1,0,4.1,8.2,3.4,9c-1.9,2.3-2.5,5.4-2.9,8.4
		c-0.9,7.4-0.7,14.9,0.6,22.2c0.8,4.8,2.2,9.8,5.7,13.3c1.3,1.3,3.7,2.6,5.2,0.8c1.2-1.4,0.4-4.3,0.3-5.9
		C325.9,292.1,325.4,282.1,325.8,276.2z"/>
	<path fill="#FFA912" d="M334.6,317.9c1.5,3,3,6.1,2.9,9.4c-0.1,3.3-2.3,6.8-5.6,7.1c-2.4,0.2-4.5-1.2-6.4-2.7
		c-18.8-14.3-32.4-35.4-37.6-58.5c-1-4.5-1.7-9.2-1.1-13.8c0.7-4.6,2.9-9.1,6.7-11.8c6.8-4.7,16.8-2,22.2,4.3
		c7.8,9,5.4,17.6,5.7,28.1C321.7,293.2,328.8,306.3,334.6,317.9z"/>
	<path fill="#F2881D" d="M334.1,328.7c-18.8-14.3-32.4-35.4-37.6-58.5c-1-4.5-1.7-9.2-1.1-13.8c0.6-4.3,2.6-8.5,5.9-11.2
		c-2.6,0.1-5.2,0.8-7.5,2.4c-3.8,2.7-6,7.2-6.7,11.8c-0.7,4.6,0,9.3,1.1,13.8c5.2,23.1,18.7,44.2,37.6,58.5c1.9,1.4,4.1,2.9,6.4,2.7
		c2.1-0.2,3.8-1.7,4.8-3.7C336.1,330.2,335.1,329.5,334.1,328.7z"/>
	<path fill="#60423E" d="M373.6,339c2,1.1,4,2.7,3.5,5.4c-0.5,2.4-3,4.5-5.3,5.1c-2.3,0.6-4.5,0.1-6.6-0.4
		c-15.3-3.9-30.3-8.9-41.6-18.9c-3.7-3.3-5.1-9.9,2.5-13.3c5.2-2.3,7.9,1.9,11,4.4C347.5,329.8,361.8,332.4,373.6,339z"/>
	<path fill="#FFA912" d="M394.1,393.1c0.2,4.8,5,7.9,9,10.7c7.5,5.2,13.8,12.2,18.3,20.2c0.5,0.9,1,1.9,1.8,2.5
		c0.8,0.6,2.1,0.8,2.9,0.1c0.5-0.4,0.7-1.1,0.7-1.7c0.3-2.8-1.2-5.5-2.7-8c-4.7-7.6-10.1-14.8-16-21.6
		C405.9,392.7,393.8,383.8,394.1,393.1z"/>
</g>
</svg>
