<?xml version="1.0" encoding="utf-8"?>
<!-- Generator: Adobe Illustrator 17.1.0, SVG Export Plug-In . SVG Version: 6.00 Build 0)  -->
<!DOCTYPE svg PUBLIC "-//W3C//DTD SVG 1.1//EN" "http://www.w3.org/Graphics/SVG/1.1/DTD/svg11.dtd">
<svg version="1.1" id="Layer_1" xmlns="http://www.w3.org/2000/svg" xmlns:xlink="http://www.w3.org/1999/xlink" x="0px" y="0px"
	 width="424.7px" height="436px" viewBox="0 0 424.7 436" enable-background="new 0 0 424.7 436" xml:space="preserve">
<g>
	<path fill="#F2881D" d="M339.2,231.4c11.1,2.6,22.1,5.6,32.4,10.5c10.2,5,19.7,12,26,21.5c3,4.5,5.3,9.6,5.3,15
		c0,5.4-2.8,11-7.7,13.2c-2.9,1.3-6.1,1.4-9.3,1.1c-22-1.6-40.6-16-60.5-25.6c-6.9-3.3-14.1-6.2-20.3-10.7c-5-3.6-9.5-8.6-11.4-14.6
		c-1.4-4.4-2-12.1,3.3-14.2c4.7-1.8,13.1-0.7,17.9-0.4C323.2,227.9,331.3,229.5,339.2,231.4z"/>
	<path fill="#F2881D" d="M215.3,223.4c3.3-0.7,6.8-1.3,9.9-0.1c3.6,1.4,6,5,6.6,8.7c0.6,3.8-0.4,7.7-2.3,11
		c-5.1,9.5-15.8,14.6-26.3,17.4c-12.6,3.3-25.9,4.1-38.8,2.3c-3.7-0.5-7.4-1.2-11.1-1.4c-2-0.1-7.8,1.1-9.2-0.8
		c-2.1-2.9,10.1-10.1,12.7-11.9c11.3-7.8,23.6-14.2,36.6-18.9C200.6,227.1,207.9,225,215.3,223.4z"/>
	<path fill="#F2881D" d="M405.8,282.4c0.6-3.1-0.2-6.4-1.6-9.3c-1.7-3.7-4.5-7.1-8.3-8.7s-8.7-0.8-11.1,2.4c-1.1,1.4-1.6,3.1-2,4.8
		c-0.6,2.6-0.8,5.3,0.3,7.7c0.5,1.1,1.3,2.1,2.2,3.1C390.3,287.9,403.5,293.5,405.8,282.4z"/>
	<path fill="#F2881D" d="M139.3,262.1c2.4-1.6,5.1-2.9,7.9-2.7c2.5,0.2,4.7,1.7,6.4,3.5c2.5,2.7,3.9,6.8,2.6,10.2
		c-1.4,3.5-5,5.5-7.9,7.9c-4.4,3.7-17.7,20.6-23.4,8.4C120.9,280.7,132.7,266.7,139.3,262.1z"/>
	<path fill="#F2881D" d="M137.7,322.8c-23.7,5-45.1,17.3-68.1,24.8c-23,7.5-50.2,9.4-69.6-5c1.7,14.8,12.1,27,23.4,36.6
		c41.1,34.8,99.1,45.6,152.2,36.5c16.6-2.8,33.3-7.7,46.6-18c10.5-8.2,18.7-20.4,20.3-33.7c1.7-13.9-12.3-21.1-23.1-27.4
		C195.1,322.5,165.5,317,137.7,322.8z"/>
	<path fill="#E27B1E" d="M20.8,351.8c0.9,0.8,1.9,1.7,2.8,2.5c41.1,34.8,99.1,45.6,152.2,36.5c16.6-2.8,33.3-7.7,46.6-18
		c7.1-5.5,13.2-12.9,16.9-21.3c2.5,3.5,3.9,7.6,3.3,12.5c-1.6,13.4-9.8,25.6-20.3,33.7c-13.3,10.3-30,15.2-46.6,18
		c-53.1,9-111.1-1.7-152.2-36.5C12.1,369.6,1.7,357.3,0,342.6C6.3,347.2,13.3,350.2,20.8,351.8z"/>
	<path fill="#FCD8BE" d="M23.4,379.2C12.1,369.6,1.7,357.3,0,342.6c19.4,14.4,46.6,12.5,69.6,5c5.1-1.7,10.1-3.6,15.1-5.6
		c0.9,0.7,1.7,1.6,2.4,2.9c3.2,5.6,0.3,11.9,2.2,17.8c1.7,5.4,6.9,8.7,9.9,13.5c2.7,4.2,3.4,9.6,2.1,14.4c-1,3.5-3.1,6.7-3.6,10.3
		c-0.7,4.5,1,9.2,1.2,13.8C71.2,409.1,45,397.5,23.4,379.2z"/>
	<path fill="#EFC8AC" d="M0,342.7c0.4,0.3,0.8,0.6,1.2,0.8c0,0,0,0,0,0c0.4,0.3,0.7,0.5,1.1,0.8c0,0,0.1,0,0.1,0.1
		c1.2,0.8,2.4,1.5,3.6,2.2c0,0,0,0,0,0c4.6,2.5,9.5,4.2,14.7,5.3c0.9,0.8,1.9,1.7,2.8,2.5c22.2,18.8,49.2,30.5,77.8,36
		c0,0.1-0.1,0.2-0.1,0.4c-1,3.5-3.1,6.7-3.6,10.3c-0.7,4.5,1,9.2,1.2,13.8c-0.1,0-16.9,1.3-60.4-23.1C14.6,378.3,1.7,357.4,0,342.7z
		"/>
	<path fill="#FFA912" d="M370.2,334.6c8.4,1.5,11.8,24.9,10.2,33.3c-9.1,47.8-4.9,37.8-20.2,50.7c-4,3.4-8.1,7.1-13.1,8.5
		c-4,1.1-3,0-11.2-7.7c-15-14.1-43.2-0.7-43.3-3.6c-0.1-9.9,6.9-23.3,13.8-30.5C323.4,367.8,346,330.2,370.2,334.6z"/>
	<path fill="#FFA912" d="M163.5,339.6c-8.3,2-10.5,25.5-8.5,33.8c11.6,47.2,6.9,37.5,22.8,49.6c4.2,3.2,8.4,6.7,13.6,7.8
		c4.1,0.9,3-0.1,10.8-8.3c14.3-14.9,43.1-2.9,43-5.9c-0.4-9.9-8.1-22.9-15.4-29.7C212,370.3,187.5,334,163.5,339.6z"/>
	<path fill="#FFA912" d="M314.8,250.9c-8.8-24.3-9.5-38.8-9.5-38.8l-44.4,15.3l-44.4-15.3c0,0-0.7,14.5-9.5,38.8
		c-8.8,24.3-41.1,89.6-26.6,130.4c6.1,17.3,45.9,37.1,83.1,38.6c41.7,1.7,71.7-16.1,77.7-34.7C354.5,344,323.6,275.3,314.8,250.9z"
		/>
	<path fill="#F2881D" d="M273.6,257.7c9.9-2.2,18.4-8.6,26.1-15.2c3.6-3.1,7.4-6.6,8.4-11.3c0.1-0.6,0.2-1.2,0.2-1.8
		c-0.6-2.4-1.1-4.7-1.5-6.6c-1.9-3.7-5.2-6.7-9-8.5c-0.1-0.1-0.3-0.1-0.4-0.2l-36.7,12.6l-37-12.7c-2.7,1.1-5.9,2.6-8.3,4.7
		c-0.4,2.7-7.6,28.1-8.5,32.2c2.1,4.3,18.8,8.8,24.3,11.7c6.2,3.3,19.6-5.4,26.5-4.5C263.1,258.9,268.4,258.9,273.6,257.7z"/>
	<path fill="#FCD8BE" d="M221.4,280.1c-4.1,11.9-7,24.1-8.8,36.5c-2.2,15.5-1.9,33.3,9.2,44.3c8.5,8.5,21.3,10.7,33.3,11.8
		c9.6,0.9,19.4,1.2,28.8-0.9c9.4-2.1,18.5-6.9,24.2-14.7c8.5-11.6,8-27.7,3.5-41.4c-4.5-13.7-12.3-26-17.8-39.2
		c-4.6-11.1-7.6-22.9-8.7-34.9c-0.3-2.9,0.4-14.8-2-16.5c-1.6-1.1-46.3-5.4-49.7,2.8c-1.2,3-0.6,15.4-1.2,18.7
		c-0.7,3.8-1.7,7.4-2.8,11.1C226.9,265.3,223.9,272.6,221.4,280.1z"/>
	<path fill="#EFC8AC" d="M286.5,252.3c-0.7-3.5-1.2-7.1-1.5-10.7c-0.3-2.9,0.7-15.2-1.7-16.9c-0.5-0.4-7.1-0.7-14-1.2l-9.5,3.3
		l-10.7-3.7c-8.5,0.4-15.6,1.7-16.8,4.7c-1.2,3-0.6,15.4-1.2,18.7c-0.1,0.5-2.8,14-2.9,14.5C230.8,262.8,273.1,264.4,286.5,252.3z"
		/>
	<path fill="#F7E9E2" d="M237,301.8c-0.7-9.1,1.8-18.2,6-26.3c-3.6,2.6-6.5,6.2-8.2,10.3c-2.5-3-4.2-7.9-6.9-10.3
		c-1.3,3.2,1.7,10.2,2.9,13.5c0.8,2.3,1.8,4.5,2.8,6.7C234.3,297.3,236.8,300.1,237,301.8z"/>
	<path fill="#F7E9E2" d="M252.2,335.9c-0.7-9.1,1.8-18.2,6-26.3c-3.6,2.6-6.5,6.2-8.2,10.3c-2.5-3-4.2-7.9-6.9-10.3
		c-1.3,3.2,1.7,10.2,2.9,13.5c0.8,2.3,1.8,4.5,2.8,6.7C249.5,331.4,252,334.3,252.2,335.9z"/>
	<path fill="#F7E9E2" d="M285.6,322.8c-0.7-9.1,1.8-18.2,6-26.3c-3.6,2.6-6.5,6.2-8.2,10.3c-2.5-3-4.2-7.9-6.9-10.3
		c-1.3,3.2,1.7,10.2,2.9,13.5c0.8,2.3,1.8,4.5,2.8,6.7C282.9,318.3,285.4,321.2,285.6,322.8z"/>
	<path fill="#F7E9E2" d="M269.8,365c-0.6-7.4,1.5-14.9,4.9-21.5c-3,2.1-5.3,5-6.7,8.4c-2.1-2.5-3.5-6.4-5.7-8.4
		c-1.1,2.6,1.4,8.4,2.4,11.1c0.7,1.9,1.5,3.7,2.3,5.5C267.6,361.3,269.7,363.7,269.8,365z"/>
	<path fill="#F7E9E2" d="M231.1,356.1c-0.6-7.4,1.5-14.9,4.9-21.5c-3,2.1-5.3,5-6.7,8.4c-2.1-2.5-3.5-6.4-5.7-8.4
		c-1.1,2.6,1.4,8.4,2.4,11.1c0.7,1.9,1.5,3.7,2.3,5.5C229,352.4,231,354.7,231.1,356.1z"/>
	<path fill="#F7E9E2" d="M299.4,347.4c-0.6-7.4,1.5-14.9,4.9-21.5c-3,2.1-5.3,5-6.7,8.4c-2.1-2.5-3.5-6.4-5.7-8.4
		c-1.1,2.6,1.4,8.4,2.4,11.1c0.7,1.9,1.5,3.7,2.3,5.5C297.2,343.7,299.3,346,299.4,347.4z"/>
	<path fill="#F2881D" d="M206.7,406.2c0.7,0.4,34.9,15.3,58.1,15.3c40.1,0,61.2-17.3,60.8-17.1c-0.4,0.3-29.3,12.8-59.2,11.9
		C236.4,415.3,206.7,406.2,206.7,406.2z"/>
	<path fill="#60423E" d="M126.7,366.5c-7.2-6.3-19.1-10.6-17-19.8c1.7-3.8,6.2-3.6,8.1-3.7c-1.2-2.5-2.7-6.4,1-8.7
		c3.5-2.1,6.7,0.1,8.6,2.1c-0.1-1.7-0.3-6.7,3.8-7.7c6.6-2.5,11.3,10.2,12.9,13.9c10.6,23.7,28.5,43.2,44.3,63.8
		c5.3,6.9,13.9,21.1,3.6,27.8c-7.4,4.8-17.4-1.4-22.2-7c-7.9-9.4-11.6-22.7-18.5-32.9C144.3,384.1,136.1,374.7,126.7,366.5z"/>
	<path fill="#60423E" d="M408.3,359.6c6.8-6.6,18.5-11.6,16-20.7c-1.9-3.7-6.3-3.2-8.3-3.2c1.1-2.6,2.4-6.5-1.4-8.6
		c-3.6-2-6.7,0.4-8.5,2.6c0-1.7,0-6.7-4.2-7.5c-6.7-2.2-10.7,10.8-12.1,14.5c-9.4,24.2-26.2,44.6-40.9,66c-4.9,7.2-12.8,21.7-2.1,28
		c7.6,4.5,17.3-2.2,21.8-8.1c7.4-9.8,10.4-23.3,16.8-33.9C391.7,378,399.4,368.2,408.3,359.6z"/>
	<path fill="#F2881D" d="M347.8,369.8c1.9-0.1-10.4,32.4-8.9,52.5c-3.9-3.1-12.5-7.4-17.4-8.1c-3.5-0.5-7-0.6-10.5-0.5
		c-1.4,0-16.4,1.3-15.2,0.7c7.1-3.2,17.7-10,19.5-11.1C334.7,391.1,345.1,367.6,347.8,369.8z"/>
	<path fill="#F2881D" d="M211.2,416.9c8-2.6,23.6-1.5,31.9,0c-10.1-1.3-23.9-8.9-34.4-17.1c-8.1-6.3-12.6-16.1-17.5-25.1
		c-1.3-2.4-2.6-4.8-4.4-6.9c-0.4-0.4-0.9-0.8-1.4-0.7c-1.1,0.2-0.9,1.8-0.4,2.7c4.6,10,8.5,20.3,11.9,30.8
		c1.6,5.2,3.1,10.4,4.4,15.7c0.8,3.1,0.6,6.5,0.6,6.5S206.1,418.5,211.2,416.9z"/>
	<path fill="#60423E" d="M135.9,20.8c-0.7-7.2-0.3-16.4,5.9-19.7c4.9-2.6,10.6,0.1,15.3,2.8c11,6.3,22,12.5,33.1,18.8
		c11.2,6.4,22.7,13,30.8,23.4c8.1,10.4,12,25.7,6.2,38.1c-6.1,13.1-20.6,19-34,22c-7.5,1.7-15.1,2.8-22.7,3.4
		c-18.5,1.4-20-17.5-24.1-32.9C141.3,58.4,137.8,39.7,135.9,20.8z"/>
	<path fill="#FFA912" d="M151.1,73.8c-3.9-12.2-5.7-25.1-5.3-37.9c0.2-4.9,1.3-10.7,5.8-12.7c1.8-0.8,3.8-0.8,5.7-0.7
		c16.4,1,29,7.3,40.6,18.9c7.7,7.6,7.1,17.8,10,21.5c3.6,4.6,9.9-1.4,9,4.4c-0.9,5.8-4.3,11.2-9.2,14.4c-3.4,2.3-7.4,3.5-11.3,4.7
		c-7.9,2.3-15.9,4.3-23.9,6c-5.1,1.1-8.8,12.4-12.2,7.8C156.8,95.5,152.9,79.4,151.1,73.8z"/>
	<path fill="#FCD8BE" d="M171.1,86.6c6.6-4.7,13.9-8.4,21.5-11.2c3.8-1.4,7.6-2.5,11.2-4.5c2.7-1.5,5.3-3.6,6.9-6.2
		c-1-0.2-1.9-0.7-2.7-1.8c-2.8-3.6-2.3-13.8-10-21.5c-5.4-5.4-11-9.7-17.1-12.8c-3.4-0.2-6.6-0.5-10,0.2c-1.9,0.4-3.7,1-5.5,1.7
		c-1.1,0.5-4,2.9-5,2.8c2.7,0.1,5.4,0.9,7.7,2.3c-4,2.2-7.1,6-8.4,10.4c5.6,0.2,11.2,2.3,15.5,5.9c-3,0.9-6,1.8-9,2.7
		c1.5,0.7,3.1,1.4,4.7,2c-4.6,0.3-9,2-12.7,4.7c2.6,1.5,5,3.3,7,5.5c-2.5,0.6-4.8,1.9-6.5,3.7C164.8,73.9,169.6,79.9,171.1,86.6z"/>
	<path fill="#60423E" d="M403.3,24.4c1.6-7.1,2.3-16.2-3.5-20.3c-4.6-3.2-10.5-1.2-15.6,0.9c-11.7,4.9-23.4,9.8-35.1,14.7
		c-11.9,5-24.1,10.2-33.4,19.5c-9.3,9.4-15,24.1-10.7,37.1c4.5,13.8,18.2,21.4,31.1,25.9c7.2,2.5,14.6,4.6,22.1,6.1
		c18.1,3.6,21.9-15,27.9-29.8C393.4,61.1,399.1,42.9,403.3,24.4z"/>
	<path fill="#FFA912" d="M381.8,75.2c5.3-11.6,8.7-24.2,9.8-37c0.4-4.9,0-10.8-4.2-13.3c-1.7-1-3.7-1.3-5.6-1.4
		c-16.4-1-29.6,3.8-42.6,13.9c-8.5,6.7-9.2,16.8-12.5,20.1c-4.1,4.2-9.6-2.6-9.4,3.3c0.2,5.9,3,11.6,7.4,15.4
		c3.1,2.7,6.9,4.4,10.6,6c7.5,3.3,15.2,6.2,23,8.9c4.9,1.7,7.3,13.4,11.2,9.2C373.5,96,379.3,80.6,381.8,75.2z"/>
	<path fill="#FCD8BE" d="M360.3,85.5c-6-5.4-12.7-10-19.9-13.7c-3.6-1.8-7.3-3.4-10.5-5.8c-2.5-1.8-4.8-4.2-6.1-7
		c1-0.1,2-0.5,2.9-1.4c3.3-3.3,4-13.4,12.5-20.1c6-4.7,12.1-8.3,18.6-10.6c3.4,0.2,6.6,0.3,9.9,1.4c1.8,0.6,3.6,1.4,5.2,2.4
		c1,0.6,3.6,3.3,4.6,3.4c-2.7-0.2-5.4,0.3-7.9,1.4c3.7,2.7,6.3,6.8,7.1,11.4c-5.6-0.5-11.4,1-16.1,4c2.9,1.3,5.7,2.5,8.6,3.8
		c-1.6,0.5-3.2,1-4.9,1.5c4.5,0.9,8.7,3,12,6.2c-2.8,1.1-5.3,2.7-7.6,4.6c2.4,0.9,4.5,2.5,6.1,4.5C368.1,73.6,362.7,79,360.3,85.5z"
		/>
	<path fill="#FCD8BE" d="M324.2,48.6c-30.7-9.6-60.3-8.4-60.3-8.4s-29.5-2.4-60.6,5.9c-31.1,8.4-56.8,43.8-52.9,76.1
		c2.7,22.1,9.7,60.5,34.2,86.3c24.5,25.9,75.3,30.6,75.3,30.6s51-2.7,76.5-27.5c25.5-24.9,34.1-62.9,37.6-84.9
		C379.2,94.6,354.9,58.2,324.2,48.6z"/>
	<path fill="#FCD8BE" d="M134.7,179.2c4.7,0.8,9.4,1.6,14.2,2.4c-2.6,4.4-5.7,8.5-9.2,12.2c5.8,0.8,11.6,1.1,17.4,1
		c-1.2,4.4-4.5,8.1-8.7,9.9c25.1,12.8,52.3,21.5,80.2,25.6c5,0.8,10.7,1.2,14.6-2c3.5-2.9,4.5-7.9,3.6-12.4c-0.9-4.4-3.5-8.3-6.1-12
		c-13.8-19.3-31-35.9-48.2-52.3c-4.9-4.7-9.9-9.4-15.8-12.6c-4.1-2.2-12.9-5.7-17.1-2c-3.2,2.8-2.3,10.1-3.2,13.9
		c-1.4,6-4.2,11.7-7.9,16.6C146.4,170.3,138.5,179.9,134.7,179.2z"/>
	<path fill="#FCD8BE" d="M388.9,183.6c-4.7,0.7-9.5,1.3-14.2,2c2.5,4.5,5.5,8.7,8.9,12.5c-5.8,0.6-11.6,0.8-17.4,0.6
		c1.1,4.4,4.3,8.3,8.5,10.2c-25.5,12.1-52.9,20-80.9,23.4c-5,0.6-10.7,0.9-14.6-2.4c-3.4-3-4.3-8.1-3.2-12.5c1-4.4,3.7-8.2,6.4-11.8
		c14.3-18.9,32-35,49.6-50.9c5-4.5,10.1-9.1,16.2-12.2c4.2-2.1,13.1-5.4,17.1-1.5c3.1,2.9,2,10.1,2.8,14c1.3,6,3.8,11.8,7.5,16.8
		C377.5,174.3,385.1,184.1,388.9,183.6z"/>
	<g>
		<path fill="#60423E" d="M183.1,124.8c6.2-3.5,11.3-5.1,18.5-4.9c7.1,0.2,14.4,2.6,19.4,7.7c4.6,4.6,7,10.9,9.3,17
			c1.3,3.4,2.5,6.8,3.3,10.4c0.1,0.6,0.2,1.4-0.2,1.9c-0.3,0.3-0.7,0.4-1,0.5c-3.4,0.8-6.9,1-10.4,1.1c-12.7,0.3-26-1.7-35.9-9.6
			c-5.4-4.4-9.4-10.2-12.9-16.1c-0.9-1.5-1.8-3-2.6-4.5c-0.8-1.4-1.4-2.2,0.4-2.5C172.3,125.5,175.8,128.9,183.1,124.8z"/>
		<path fill="#FFFFFF" d="M187.7,126.7c3.7-3.4,11-4.7,14.2-4.5c24.3,1.4,28.9,27.9,27.1,32.6c-1,2.7-13.5,2.5-15.9,2.4
			c-6.3-0.4-23.6-3.3-28.9-12.8C182.8,141.7,180.7,133.1,187.7,126.7z"/>
		<path fill="#EDEDED" d="M229.2,150.5c-1,2.7-13.5,2.5-15.9,2.4c-6.3-0.4-23.6-3.3-28.9-12.8c-0.5-0.9-1.1-2.6-1.4-4.6
			c-0.7,4.1,0.4,7.8,1.3,9.4c5.3,9.5,22.6,12.4,28.9,12.8c2.3,0.1,14.9,0.3,15.9-2.4c0.3-0.9,0.4-2.8,0.2-5.1
			C229.2,150.4,229.2,150.4,229.2,150.5z"/>
		<g>
			<circle fill="#231F20" cx="206.2" cy="140.6" r="12.4"/>
			<path fill="#FFFFFF" d="M198,136.3c-0.2,0.6-0.3,1.3-0.1,2c0.2,0.6,0.6,1.2,1.2,1.5c0.8,0.3,1.7-0.1,2.4-0.6
				c0.7-0.5,1.2-1.3,1.8-1.8c0.6-0.5,1.4-0.9,2.3-1.1c0.9-0.2,1.8-0.1,2.5-0.7c0.7-0.7,0.6-2,0-2.7C205,129.4,199,132.9,198,136.3z"
				/>
		</g>
	</g>
	<g>
		<path fill="#60423E" d="M341.1,130.5c-5.9-4-10.9-6-18-6.3c-7.1-0.4-14.5,1.5-20,6.1c-5,4.2-7.9,10.3-10.6,16.2
			c-1.5,3.3-3.1,6.6-4.1,10.1c-0.2,0.6-0.3,1.4,0.1,1.9c0.2,0.3,0.6,0.4,1,0.6c3.3,1.1,6.8,1.6,10.3,2c12.6,1.3,26.1,0.4,36.6-6.7
			c5.8-3.9,10.2-9.4,14.2-15c1-1.4,2-2.8,3-4.3c0.9-1.4,1.5-2.1-0.2-2.5C351.8,132.1,348,135.2,341.1,130.5z"/>
		<path fill="#FFFFFF" d="M336.3,132c-3.4-3.7-10.6-5.6-13.8-5.6c-24.3-0.5-31,25.5-29.7,30.4c0.8,2.8,13.3,3.6,15.6,3.7
			c6.3,0.1,23.8-1.4,29.8-10.4C340,147.4,342.8,138.9,336.3,132z"/>
		<path fill="#EDEDED" d="M293.1,152.5c0.8,2.8,13.3,3.6,15.6,3.7c6.3,0.1,23.8-1.4,29.8-10.4c0.6-0.9,1.3-2.5,1.8-4.5
			c0.4,4.1-1,7.8-2,9.3c-6.1,9-23.5,10.6-29.8,10.4c-2.3,0-14.9-0.9-15.6-3.7c-0.3-1-0.2-2.8,0.2-5.1
			C293,152.3,293.1,152.4,293.1,152.5z"/>
		<g>
			<circle fill="#231F20" cx="316.8" cy="144.4" r="12.4"/>
			<path fill="#FFFFFF" d="M325.3,140.8c0.1,0.6,0.2,1.3,0,2c-0.2,0.6-0.7,1.2-1.3,1.4c-0.8,0.2-1.7-0.2-2.3-0.8
				c-0.6-0.6-1.1-1.3-1.7-1.9c-0.6-0.6-1.3-1-2.2-1.3c-0.8-0.2-1.8-0.3-2.4-0.9c-0.7-0.7-0.5-2,0.3-2.7
				C318.9,133.3,324.6,137.3,325.3,140.8z"/>
		</g>
	</g>
	<path fill="#EFC8AC" d="M203.9,109.8c26.2,6.2,40.2,37.6,45.6,49.8c0.8,1.9,2.2,4.2,4.3,3.9c5-15.7-2.1-32.7-11.4-46.3
		c-3.8-5.5-8-10.9-13.4-14.8c-14.2-10.4-34.2-9.2-50.5-2.4c-5,2.1-27.4,23.6-13.5,16C176.6,109.8,190.8,106.7,203.9,109.8z"/>
	<path fill="#EFC8AC" d="M320.9,110.4c-26.6,4.4-42.6,34.9-48.8,46.7c-1,1.9-2.5,4.1-4.6,3.6c-3.9-16,4.3-32.5,14.5-45.4
		c4.1-5.3,8.7-10.3,14.4-13.9c14.9-9.4,34.8-6.8,50.5,1c4.8,2.4,25.8,25.4,12.4,16.9C348.1,112.2,334.2,108.2,320.9,110.4z"/>
	<path fill="#F7E9E2" d="M156.3,176.2c5.5-2.5,11.7-3.7,17.8-3.4c-6.1,2.5-11.8,6.1-16.8,10.5c8.6-2.9,19.4-5.8,28-3.1
		c-7.5,4-16.7,11.1-21.1,18.4c14.7-10.6,37-18.2,55.1-17.7c-2,0-17-19.1-44-13.7C167.6,168.7,159.7,172.5,156.3,176.2z"/>
	<path fill="#F7E9E2" d="M359.6,175.6c-5.8-2-12-2.5-18-1.6c6.4,1.9,12.4,4.9,17.7,8.8c-8.8-2.1-19.9-3.9-28.2-0.4
		c7.9,3.3,17.7,9.5,22.8,16.3c-15.6-9.1-38.5-14.5-56.5-12.3c2-0.2,15.1-20.6,42.4-17.9C347.6,169.2,355.8,172.2,359.6,175.6z"/>
	<g>
		<path fill="#60423E" d="M260,184.7c-0.1,3.7-0.3,7.3-0.7,11c-0.4,3.5-0.9,7.4-2.7,10.5c-2.9,4.7-9.1,6.9-14.3,5.2
			c-1-0.3-1.5,1.3-0.4,1.6c5.6,1.9,12.1-0.3,15.6-5.1c2.2-3,2.8-6.9,3.3-10.5c0.6-4.2,0.8-8.4,0.9-12.6
			C261.7,183.6,260,183.6,260,184.7L260,184.7z"/>
	</g>
	<path fill="#FFA912" d="M321.5,47.1c31,8.6,56.4,44.3,52.3,76.6c-0.6,4.5-4.9,24.9-5.9,30.5c0,0,6.2-49.7-34.7-54.8
		c-25.9-3.3-41.7,4.7-49.8,22.8c-7.2,16.2-2.1,58.2-2.1,58.2l-23.2,2.3l2.9-142C261,40.7,290.5,38.5,321.5,47.1z"/>
	<path fill="#E08119" d="M340.5,76.6c1.6,1,3.3,2.8,2.5,4.6c-0.7,1.7-3.1,1.8-4.9,1.5c-3.7-0.6-7.3-2-11.1-2.3
		c-3.6-0.4-7.3,0.1-10.9-0.3c-1.1-0.1-2.5-0.6-2.7-1.7c-0.1-0.4,0.1-0.8,0.2-1.1c0.8-1.8,2.5-3,4.3-3.6
		C325.4,71.1,334,72.5,340.5,76.6z"/>
	<path fill="#FFA912" d="M203.3,46.3c-31.1,8.4-56.8,43.8-52.9,76.1c0.5,4.5,4.6,24.9,5.6,30.5c0,0-4.9-48.8,36-53.6
		c26-3,39.5,8.7,47.4,26.8c7.1,16.2,1,51.7,1,51.7l27.2,4.9l-3.7-142.4C263.9,40.4,234.4,37.9,203.3,46.3z"/>
	<path fill="#E08119" d="M187.1,75.9c-1.6,1-3.3,2.7-2.7,4.4c0.7,1.7,3,1.9,4.8,1.6c3.7-0.5,7.3-1.7,11-2c3.6-0.3,7.2,0.3,10.8,0.1
		c1.1-0.1,2.5-0.5,2.7-1.6c0.1-0.4,0-0.8-0.2-1.1c-0.7-1.8-2.3-3-4.1-3.7C202.2,70.9,193.6,72,187.1,75.9z"/>
	<path fill="#60423E" d="M281.6,176.2c-0.6-2.4-2.5-4.4-4.7-5.7c-2.2-1.2-4.7-1.8-7.2-2.1c-2.8-0.3-14-0.6-16.8-0.3
		c-2.5,0.2-5,0.6-7.3,1.8c-2.2,1.1-4.2,3.1-4.9,5.5c-0.7,2.4-0.1,5.3,1.9,6.8c1,0.8,2.2,1.1,3.3,1.7c1.5,0.7,2.7,1.8,3.7,3.1
		c1.2,1.5,1.9,3.4,3.2,4.8c2,2.2,4.9,3.2,7.8,3.6c2.9-0.3,5.9-1.2,8-3.3c1.4-1.4,2.2-3.2,3.4-4.7c1-1.2,2.4-2.3,3.8-2.9
		c1.1-0.5,2.4-0.8,3.4-1.6C281.4,181.5,282.2,178.6,281.6,176.2z"/>
	<path fill="#FFFFFF" d="M246.7,174.1c-0.6,1.2-0.4,2.9,0.8,3.5c0.8,0.4,1.7,0.3,2.5-0.1c0.8-0.3,1.5-0.9,2.3-1.3
		c2.3-1.3,5.1-1.4,7.8-1.5c0.7,0,1.5,0,2.1-0.3c0.7-0.3,1.2-1,1.1-1.7c-0.4-2.4-6.2-2.4-8.1-2.2
		C252.5,170.7,248.1,171.4,246.7,174.1z"/>
	<g>
		<path fill="#60423E" d="M259.4,188.8c0.2,3.5,0.7,6.9,1.4,10.3c0.7,3.1,1.5,6.3,3.5,8.8c4,5.3,11,5.2,17,4.9
			c1.1-0.1,1.1-1.7,0-1.7c-5.5,0.3-12.5,0.5-16-4.7c-1.6-2.4-2.3-5.3-2.9-8c-0.7-3.2-1.2-6.4-1.3-9.6
			C261,187.7,259.3,187.7,259.4,188.8L259.4,188.8z"/>
	</g>
	<path fill="#FFB845" d="M215.9,51.6c-1.9,0.5-3.8,1.1-5.3,2.3c-1.5,1.2-2.6,3.1-2.3,5c0.4,2.3,2.9,3.8,5.3,4
		c2.4,0.2,4.7-0.7,6.9-1.4c7.8-2.5,16.1-3.6,24.3-3.4c7.3,0.2,14.8,1.5,21.9-0.4c3.6-1,7.6-3.7,7.2-7.4c-0.2-2.3-2.1-4.1-4.3-4.9
		c-2.1-0.8-4.5-0.9-6.8-0.9C246.9,44.4,231.3,47.1,215.9,51.6z"/>
	<circle opacity="0.58" fill="#6A727A" cx="197.8" cy="139.1" r="46.4"/>
	<circle opacity="0.58" fill="#6A727A" cx="320.9" cy="139.9" r="46.4"/>
	<g>
		<path fill="#231F20" d="M200.3,192.2c-29.1,0-52.8-23.7-52.8-52.8c0-29.1,23.7-52.8,52.8-52.8c29.1,0,52.8,23.7,52.8,52.8
			C253.1,168.5,229.4,192.2,200.3,192.2z M200.3,99.3c-22.1,0-40.1,18-40.1,40.1s18,40.1,40.1,40.1c22.1,0,40.1-18,40.1-40.1
			S222.4,99.3,200.3,99.3z"/>
	</g>
	<g>
		<path fill="#231F20" d="M320.9,192.2c-29.1,0-52.8-23.7-52.8-52.8c0-29.1,23.7-52.8,52.8-52.8c29.1,0,52.8,23.7,52.8,52.8
			C373.7,168.5,350,192.2,320.9,192.2z M320.9,99.3c-22.1,0-40.1,18-40.1,40.1s18,40.1,40.1,40.1c22.1,0,40.1-18,40.1-40.1
			S343,99.3,320.9,99.3z"/>
	</g>
	<path opacity="0.52" fill="#FFFFFF" d="M288.3,124.6c-1,2.8-1.3,6.4,1.1,8.2c2.2,1.6,5.5,0.6,7.4-1.5c1.9-2,2.8-4.7,4.1-7.1
		c3.5-6.6,10.3-11.4,17.6-12.5c1.2-0.2,2.7-0.5,2.9-1.7c0.1-0.7-0.3-1.4-0.9-1.9c-4.7-4.2-14.1-1.4-18.9,1.1
		C295.6,112.5,290.6,118,288.3,124.6z"/>
	<path opacity="0.52" fill="#FFFFFF" d="M168.1,124.6c-1,2.8-1.3,6.4,1.1,8.2c2.2,1.6,5.5,0.6,7.4-1.5c1.9-2,2.8-4.7,4.1-7.1
		c3.5-6.6,10.3-11.4,17.6-12.5c1.2-0.2,2.7-0.5,2.9-1.7c0.1-0.7-0.3-1.4-0.9-1.9c-4.7-4.2-14.1-1.4-18.9,1.1
		C175.4,112.5,170.4,118,168.1,124.6z"/>
	<path fill="#231F20" d="M269.4,130.8c1.5,0.6,3,1.4,4,2.6c1.2,1.3,1.8,3.1,2.3,4.7c1.4,4.2,2.9,8.9,1.5,13.1
		c-2.7-1.5-4.5-4.2-6.9-6.1c-2.9-2.2-6.8-3-10.4-2.6c-3.6,0.5-7,2.2-9.7,4.7c-1.2,1.1-2.5,2.5-4.2,2.3c-4.9-0.4-3.4-10.1-1.7-12.8
		c2.8-4.5,9.8-6.9,14.7-7.4C262.5,129.1,266.1,129.5,269.4,130.8z"/>
	<path fill="#F7E9E2" d="M134.7,250.9c0.4,0.1,21.6-19.9,21.6-19.9s29.8,2.6,52.2,14c22.5,11.5,55.1,34.6,55.1,34.6
		s17.4-20.7,40.9-28.1c23.5-7.4,67.3-20.6,67.3-20.6l21.1,17c0,0-100.4,51.1-100.2,51.3c0.2,0.2-60.9,21.3-60.9,21.3L134.7,250.9z"
		/>
	<path fill="#685E61" d="M126.9,253.6l4.4-4l115.5,38.1c0,0,7.1,7.7,17.4,8.2c11.7,0.6,16.7-8.4,16.7-8.4l115.7-41.2l3.1,3.3
		l-101.2,48.6L232.8,311L126.9,253.6z"/>
	<polygon fill="#231F20" points="126.9,253.6 245.5,292.5 256.3,407.6 155.4,356.1 	"/>
	<polygon fill="#231F20" points="399.6,249.6 281.7,292.5 274.7,407.3 374,352.9 	"/>
	<path fill="#4C4446" d="M245.5,292.5c0,0,6.3,7.2,17.2,7c13.2-0.3,19-7,19-7l-7,114.8c0,0-1.6,3.3-8.2,3
		c-6.7-0.3-10.3-2.7-10.3-2.7L245.5,292.5z"/>
	<path fill="#685E61" d="M251.4,286.4h24.7c0,0-3.5,6.5-11.9,6.9C257.3,293.8,251.4,286.4,251.4,286.4z"/>
	<path fill="#FFFFFF" d="M160.6,236.7c0.7,0.2,34,6.4,55.7,16.9c21.7,10.5,40.1,29.1,39.2,28.7c-0.8-0.4-25-19.4-45.7-28.7
		c-12.4-5.6-58.5-13.6-58.5-13.6L160.6,236.7z"/>
	<path fill="#FFFFFF" d="M268.1,283.8c-0.4-0.6,12.1-18.8,28.4-24.3c16.3-5.5,72.3-23.8,72.3-23.8l5.8,3c0,0-67.9,18.6-76.7,22
		C280.1,267.7,268.1,283.8,268.1,283.8z"/>
	<path fill="#FFFFFF" d="M273.1,282.3c0,0,14.7-15,39-21c24.3-6,71-17.7,71-17.7l3.5,2.6c0,0-63.6,14.7-72.9,17.1
		C292.7,268.6,273.1,282.3,273.1,282.3z"/>
	<path fill="#FFFFFF" d="M146.6,246.3c0,0,40.9,5.5,59.6,13.5c18.7,8,46.6,24.1,46.6,24.1s-34.6-17.2-51.8-23
		c-21.3-7.2-60.5-11.9-60.5-11.9L146.6,246.3z"/>
	<path fill="#875D59" d="M152.1,301.1c1.4,0.5,2.9,0.9,4.2,1.6c1.3,0.7,2.5,2,2.7,3.5c0.2,1.5-0.9,3.2-2.4,3.2
		c2.3,0.6,4,3.1,3.5,5.4c-0.5,2.3-3.6,3.7-5.5,2.3c0.8,1.1,0.4,2.9-0.6,3.8c-1.1,0.9-2.6,1.1-4,0.7c-1.4-0.3-2.6-1.1-3.7-1.8
		c-6.2-4.1-11.8-9.5-15.3-16.1c-3.1-5.9-4.8-13.1-4.9-14.4c-0.5-6.7,5.7-8.3,8.7-7.3c2.1,0.7,3,2.1,3.9,6.3
		C139.9,294.6,146.2,299,152.1,301.1z"/>
	<path fill="#875D59" d="M377.5,295.8c-1.4,0.5-2.9,0.8-4.3,1.6c-1.3,0.7-2.5,1.9-2.7,3.4c-0.2,1.5,0.9,3.2,2.4,3.2
		c-2.3,0.6-4.1,3-3.6,5.4c0.5,2.3,3.6,3.8,5.5,2.4c-0.8,1.1-0.5,2.8,0.6,3.8c1.1,0.9,2.6,1.1,4,0.8c1.4-0.3,2.6-1,3.8-1.8
		c6.3-4.1,11.9-9.3,15.5-15.9c3.1-5.8,5-13,5.1-14.3c0.6-6.7-5.6-8.3-8.6-7.4c-2.1,0.7-3.1,2.1-4,6.3
		C389.7,289.4,383.5,293.8,377.5,295.8z"/>
</g>
</svg>
