<?xml version="1.0" encoding="utf-8"?>
<!-- Generator: Adobe Illustrator 17.1.0, SVG Export Plug-In . SVG Version: 6.00 Build 0)  -->
<!DOCTYPE svg PUBLIC "-//W3C//DTD SVG 1.1//EN" "http://www.w3.org/Graphics/SVG/1.1/DTD/svg11.dtd">
<svg version="1.1" id="Layer_1" xmlns="http://www.w3.org/2000/svg" xmlns:xlink="http://www.w3.org/1999/xlink" x="0px" y="0px"
	 width="425.1px" height="538.4px" viewBox="0 0 425.1 538.4" enable-background="new 0 0 425.1 538.4" xml:space="preserve">
<g>
	<path fill="#F2881D" d="M220.3,261.1c12.7,12.8,20.3,30.4,20.8,48.4c0.1,2.6,0,5.2-0.9,7.5c-1.3,3.3-4.2,5.9-7.6,6.8
		c-3.4,0.9-7.3,0-10-2.2c-4.1-3.4-5.2-9-6.5-14.1c-2.2-9-5.6-18.2-12.5-24.3c-5.5-4.8-12.6-7.1-18.7-11c-4.6-2.9-8.6-6.7-11.8-11.1
		c-3.2-4.3-7.1-12.2-3.6-17.4c2.9-4.5,9.4-3.5,13.8-2.6C197.1,244,210.2,251,220.3,261.1z"/>
	<path fill="#F2881D" d="M31.4,315.9c-1.2-15,4-29.9,12-42.6c18.4-29.5,42.5-33.1,44.4-32.9c2.8,0.3-1,4.7,0,7.4
		c4.2,11,0.9,23.3-3.9,34c-1.9,4.3-4.2,8.5-7.1,12.2c-4.7,5.9-11.1,10.4-16,16.2c-3.2,3.8-5.8,8.1-8.4,12.3c-2.5,3.9-7.1,9-12.4,7.9
		C33.9,328.9,31.8,321.2,31.4,315.9z"/>
	<g>
		<path fill="#FFA912" d="M307,362.5c19.7,14.1,34.3,34,52.3,50.1c18,16.1,42.2,28.8,65.7,23.4c-7.5,12.8-21.9,19.9-36.2,24.1
			c-51.6,15.3-109.1,1.9-154-27.8c-14-9.3-27.4-20.4-35.4-35.2c-6.3-11.7-8.9-26.2-5-39.1c4-13.4,19.7-14.3,32.2-15.8
			C254.6,339.1,284,346,307,362.5z"/>
		<path fill="#F2881D" d="M402.4,436.1c-1.2,0.4-2.4,0.8-3.6,1.1c-51.6,15.3-109.1,1.9-154-27.8c-14-9.3-27.4-20.4-35.4-35.2
			c-4.3-7.9-6.9-17.2-6.9-26.3c-3.7,2.2-6.6,5.4-8,10.1c-3.9,12.9-1.3,27.4,5.1,39.1c8,14.8,21.4,26,35.4,35.2
			c45,29.6,102.4,43.1,154,27.8c14.2-4.2,28.7-11.3,36.2-24.1C417.5,437.7,409.9,437.6,402.4,436.1z"/>
		<path fill="#FFB845" d="M221.2,357.7c1.1,3.6,4.6,5.9,8.2,6.9c3.6,1,7.4,0.8,11.1,1c10.3,0.5,20.4,3.5,29.2,8.8
			c5.9,3.5,11.3,8,17.8,10.1c2.9,0.9,6.2,1.2,8.8-0.4c3.7-2.3,4.3-7.8,2.3-11.7c-2-3.9-5.8-6.5-9.6-8.7
			c-11.6-6.7-24.4-11.1-37.7-13.2C245.2,349.5,217.1,344.4,221.2,357.7z"/>
		<path fill="#FCD8BE" d="M389,460.1c14.2-4.2,28.7-11.3,36.2-24.1c-23.6,5.4-47.7-7.3-65.7-23.4c-4-3.6-7.8-7.3-11.6-11.2
			c-1.1,0.3-2.2,0.8-3.4,1.7c-5.2,3.8-5.1,10.7-9.1,15.4c-3.7,4.2-9.8,5.2-14.5,8.4c-4.1,2.8-7,7.4-7.7,12.4
			c-0.5,3.6,0.1,7.4-0.8,10.9c-1.2,4.4-4.7,8-6.7,12.1C333.2,468.3,361.9,468.2,389,460.1z"/>
		<path fill="#EFC8AC" d="M425.1,436.1c-0.5,0.1-0.9,0.2-1.4,0.3c0,0,0,0-0.1,0c-0.4,0.1-0.9,0.2-1.3,0.2c0,0-0.1,0-0.1,0
			c-1.4,0.2-2.8,0.4-4.2,0.5c0,0,0,0,0,0c-5.2,0.4-10.4,0-15.6-1c-1.2,0.4-2.4,0.8-3.6,1.1c-27.8,8.3-57.3,8.2-85.7,1.7
			c0,0.1,0,0.2-0.1,0.4c-0.5,3.6,0.1,7.4-0.8,10.9c-1.2,4.4-4.7,8-6.7,12.1c0.1,0,14.9,8,64.6,3.1
			C397.4,462.9,417.7,448.9,425.1,436.1z"/>
	</g>
	<path fill="#60423E" d="M195.2,518c1.3,0.1,5.6,0.5,7,3.1c0.5,1,1.2,2.5,0.6,3.8c1.5,1.5,0.2,4.6-0.2,5.1c-1.2,1.1-1.1,1-3.3,1.2
		c0.6,0.3,0.1,3.3-1.7,4.4c-3.3,1.9-8.8,0.5-12.4-0.6c-6-1.8-6.6-5.5-7.1-8s-0.2-5.2,0.3-7.7c0.3-1.8,0.8-3.7,2.1-5
		c1.2-1.3,3-1.9,4.8-1.9c2.1,0.1,7.7-1.4,7.6,0.9C192.7,514.2,191.4,517.8,195.2,518z"/>
	<path fill="#60423E" d="M192.5,522.3c0,1,0,2.1-0.6,3.1c-0.9,1.6-3,2.1-4.9,2.4c-1.7,0.3-3.4,0.5-5-0.1c-1.7-0.7-2.9-2.3-3.5-4.1
		c-0.6-1.7-0.7-3.6-0.7-5.5c-0.4-15.3,0.2-30.7-1.4-46c-0.4-3.6-0.8-7.5,1.2-10.5c1.5-2.3,4.2-3.5,6.8-4.3c3-0.9,6.3-1.3,9.1,0
		c7.7,3.4,2.9,15.6,2.2,21.7c-1.2,9.2-2.1,18.5-2.6,27.8C192.8,512,192.6,517.1,192.5,522.3z"/>
	<path fill="#382624" d="M199.2,531c0,0-0.1-2.9-2.6-4c-2.5-1.1-3.8-1.3-3.8-1.3s2.5-0.9,5.3,0.6c2.8,1.5,3.1,4.5,3.1,4.5L199.2,531
		L199.2,531z"/>
	<path fill="#382624" d="M202.7,524.8c0,0-1.1-1.3-2.4-1.9c-1.8-0.8-4.3-1-4.3-1s1.9-0.3,3.6,0.1c2.3,0.4,3.4,1.5,3.4,1.5
		s0,0.3-0.1,0.8C202.8,524.7,202.7,524.8,202.7,524.8L202.7,524.8z"/>
	<path fill="#FFA912" d="M198.1,463.2c-8,7.1-20.1,6.1-21.6,4.7c-1.1-1.1-1.8-2.4-2.3-3.8c-3.8-9.1-6.5-18.5-10.6-27.5
		c-4.1-9-10.1-11.5-23.8-12.4c-4.9-0.3,0-21.9,0.9-23c5.8-7.4,15.1-12.1,23.5-17.2c13.2-8,25.1-17.5,35.3-28.3
		c5.4-5.7,12.6-7,16,4.3C218.1,368.8,201.8,459.9,198.1,463.2z"/>
	<path fill="#60423E" d="M87.6,520.2c-1.3,0.2-5.5,1-6.7,3.7c-0.5,1-1,2.6-0.2,3.8c-1.3,1.6,0.2,4.6,0.7,5c1.2,1,1.1,0.9,3.4,0.9
		c-0.6,0.4,0.1,3.3,2.1,4.2c3.5,1.6,8.8-0.3,12.3-1.7c5.8-2.3,6.1-6,6.4-8.6c0.3-2.6-0.3-5.2-1-7.6c-0.5-1.8-1.1-3.6-2.5-4.8
		c-1.3-1.2-3.2-1.7-5-1.4c-2.1,0.3-7.8-0.7-7.5,1.5C89.7,516.3,91.3,519.7,87.6,520.2z"/>
	<path fill="#60423E" d="M90.7,524.3c0.1,1,0.2,2.1,0.8,3c1.1,1.5,3.2,1.8,5,1.9c1.7,0.1,3.5,0.2,5-0.5c1.7-0.8,2.7-2.6,3.1-4.3
		c0.4-1.8,0.3-3.7,0.2-5.5c-1-15.3-2.9-30.6-2.6-45.9c0.1-3.6,0.2-7.5-2.1-10.4c-1.7-2.1-4.5-3.1-7.2-3.7c-3-0.6-6.3-0.7-9.1,0.8
		c-7.4,4-1.6,15.8-0.3,21.8c2,9.1,3.7,18.3,5.1,27.5C89.5,514,90.1,519.2,90.7,524.3z"/>
	<path fill="#FFA912" d="M80.2,469.8c8.9,6.2,20.8,3.9,22.1,2.4c1-1.2,1.4-2.6,1.8-4c2.5-9.4,3.9-19.1,6.7-28.5
		c2.8-9.4,10.5-13.3,24-15.7c4.8-0.8-5.1-20.9-6.2-21.9c-6.8-6.7-16.6-10.4-25.7-14.6c-14.2-6.5-27.3-14.7-39-24.3
		c-6.1-5-13.5-5.6-15.3,5.9C47.2,378.3,76.1,467,80.2,469.8z"/>
	<path fill="#FFA912" d="M186.1,255c-8.8-24.3-9.5-38.8-9.5-38.8l-44.4,15.3l-44.4-15.3c0,0-0.7,14.5-9.5,38.8
		c-8.8,24.3-41.1,89.6-26.6,130.4c6.1,17.3,45.9,37.1,83.1,38.6c41.7,1.7,71.7-16.1,77.7-34.7C225.8,348.1,195,279.3,186.1,255z"/>
	<path fill="#F2881D" d="M144.9,261.8c9.9-2.2,18.4-8.6,26.1-15.2c3.6-3.1,7.4-6.6,8.4-11.3c0.1-0.6,0.2-1.2,0.2-1.8
		c-0.6-2.4-1.1-4.7-1.5-6.6c-1.9-3.7-5.2-6.7-9-8.5c-0.1-0.1-0.3-0.1-0.4-0.2l-36.7,12.6l-37-12.7c-2.7,1.1-5.9,2.6-8.3,4.7
		c-0.4,2.7-1.1,6.1-2.1,10.1c2.1,4.3,6.6,8.8,9.4,11.6c4.4,4.5,9.6,8.3,15.2,11.2c6.2,3.3,12.9,5.5,19.9,6.4
		C134.4,262.9,139.7,262.9,144.9,261.8z"/>
	<path fill="#FCD8BE" d="M92.7,284.2c-4.1,11.9-7,24.1-8.8,36.5c-2.2,15.5-1.9,33.3,9.2,44.3c8.5,8.5,21.3,10.7,33.3,11.8
		c9.6,0.9,19.4,1.2,28.8-0.9c9.4-2.1,18.5-6.9,24.2-14.7c8.5-11.6,8-27.7,3.5-41.4c-4.5-13.7-12.3-26-17.8-39.2
		c-4.6-11.1-7.6-22.9-8.7-34.9c-0.3-2.9,0.4-14.8-2-16.5c-1.6-1.1-46.3-5.4-49.7,2.8c-1.2,3-0.6,15.4-1.2,18.7
		c-0.7,3.8-1.7,7.4-2.8,11.1C98.2,269.4,95.3,276.7,92.7,284.2z"/>
	<path fill="#EFC8AC" d="M157.8,256.4c-0.7-3.5-1.2-7.1-1.5-10.7c-0.3-2.9,0.8-15.1-1.6-16.8c-0.5-0.4-6.6-0.8-13.5-1.3l-9.5,3.3
		l-10.7-3.7c-8.5,0.4-15.6,1.7-16.8,4.7c-1.2,3-0.6,15.4-1.2,18.7c-0.1,0.5-0.2,1-0.3,1.4c2,1.4,4,2.6,6.2,3.7
		c6.2,3.3,12.9,5.5,19.9,6.4c5.2,0.7,10.6,0.7,15.7-0.5C149,260.7,153.7,258.8,157.8,256.4z"/>
	<path fill="#382624" d="M84.7,533.6c0,0-0.1-2.9,2.2-4.3c2.4-1.3,3.7-1.6,3.7-1.6s-2.6-0.7-5.2,1.1c-2.6,1.8-2.6,4.8-2.6,4.8
		L84.7,533.6L84.7,533.6z"/>
	<path fill="#382624" d="M80.7,527.7c0,0,1-1.4,2.2-2.1c1.7-0.9,4.2-1.4,4.2-1.4s-1.9-0.1-3.6,0.4c-2.3,0.6-3.2,1.8-3.2,1.8
		s0,0.3,0.2,0.8C80.6,527.6,80.7,527.7,80.7,527.7L80.7,527.7z"/>
	<path fill="#F2881D" d="M191.9,282.9c0,0,4.3,8.3,8.1,18.6c3.8,10.3,13.5,39.9,13.4,39.3c-0.1-0.6-4.1-24.4-6.5-32.8
		c-2.4-8.4-4.8-18.3-4.8-18.3L191.9,282.9z"/>
	<path fill="#F2881D" d="M58.8,305.8c0,0-4.1,9.2-6.9,20.4c-2.7,10.9-3.8,29.8-3.8,29.8s3.8-19.8,9.3-33.8
		c5.5-13.9,11.2-29.5,11.2-29.5L58.8,305.8z"/>
	<path fill="#F2881D" d="M209.5,414.3c-3.1,11.4-6.3,22.8-9.4,34.1c-1.2,4.2-2.5,8.7-5.7,11.7c-4.4,4.1-10.5,3.9-16.1,3.3
		c-1.5-0.2-2.8-0.1-3.9,0.2c0.1,0.2,0.2,0.4,0.2,0.6c0.6,1.4,1.2,2.8,2.3,3.8c1.4,1.3,13.5,2.4,21.6-4.7
		C200.3,461.6,205.3,438.4,209.5,414.3z"/>
	<path fill="#F2881D" d="M62.3,421.6c3.1,11.4,18.8,41,22,44c4.4,4.1,14.7,5.9,19.8,2.6c0,2.3-1,4.6-3.1,5.7
		c-1.7,0.9-13.2,3.6-21.2-3.5C77.9,468.7,69.3,446.5,62.3,421.6z"/>
	<path fill="#F7E9E2" d="M108.3,305.8c-0.7-9.1,1.8-18.2,6-26.3c-3.6,2.6-6.5,6.2-8.2,10.3c-2.5-3-4.2-7.9-6.9-10.3
		c-1.3,3.2,1.7,10.2,2.9,13.5c0.8,2.3,1.8,4.5,2.8,6.7C105.6,301.3,108.1,304.2,108.3,305.8z"/>
	<path fill="#F7E9E2" d="M123.5,340c-0.7-9.1,1.8-18.2,6-26.3c-3.6,2.6-6.5,6.2-8.2,10.3c-2.5-3-4.2-7.9-6.9-10.3
		c-1.3,3.2,1.7,10.2,2.9,13.5c0.8,2.3,1.8,4.5,2.8,6.7C120.8,335.5,123.3,338.4,123.5,340z"/>
	<path fill="#F7E9E2" d="M156.9,326.9c-0.7-9.1,1.8-18.2,6-26.3c-3.6,2.6-6.5,6.2-8.2,10.3c-2.5-3-4.2-7.9-6.9-10.3
		c-1.3,3.2,1.7,10.2,2.9,13.5c0.8,2.3,1.8,4.5,2.8,6.7C154.3,322.4,156.8,325.2,156.9,326.9z"/>
	<path fill="#F7E9E2" d="M141.1,369.1c-0.6-7.4,1.5-14.9,4.9-21.5c-3,2.1-5.3,5-6.7,8.4c-2.1-2.5-3.5-6.4-5.7-8.4
		c-1.1,2.6,1.4,8.4,2.4,11.1c0.7,1.9,1.5,3.7,2.3,5.5C139,365.4,141,367.7,141.1,369.1z"/>
	<path fill="#F7E9E2" d="M102.4,360.2c-0.6-7.4,1.5-14.9,4.9-21.5c-3,2.1-5.3,5-6.7,8.4c-2.1-2.5-3.5-6.4-5.7-8.4
		c-1.1,2.6,1.4,8.4,2.4,11.1c0.7,1.9,1.5,3.7,2.3,5.5C100.3,356.5,102.3,358.8,102.4,360.2z"/>
	<path fill="#F7E9E2" d="M170.7,351.5c-0.6-7.4,1.5-14.9,4.9-21.5c-3,2.1-5.3,5-6.7,8.4c-2.1-2.5-3.5-6.4-5.7-8.4
		c-1.1,2.6,1.4,8.4,2.4,11.1c0.7,1.9,1.5,3.7,2.3,5.5C168.5,347.8,170.6,350.1,170.7,351.5z"/>
	<path fill="#F2881D" d="M78,410.3c0.7,0.4,34.9,15.3,58.1,15.3c40.1,0,61.2-17.3,60.8-17.1c-0.4,0.3-29.3,12.8-59.2,11.9
		C107.7,419.4,78,410.3,78,410.3z"/>
	<path fill="#60423E" d="M0.4,22.8C-0.5,15.6-0.3,6.4,5.9,3c4.9-2.7,10.6-0.1,15.4,2.5c11.1,6.1,22.3,12.1,33.4,18.2
		C66,29.9,77.6,36.3,85.8,46.6c8.2,10.3,12.4,25.5,6.8,38C86.7,97.8,72.3,104,59,107.2c-7.5,1.8-15,3-22.6,3.7
		C18,112.6,16.1,93.7,11.7,78.4C6.4,60.3,2.6,41.7,0.4,22.8z"/>
	<path fill="#FFA912" d="M16.5,75.6c-4.1-12.1-6.1-25-5.9-37.8c0.1-4.9,1.1-10.7,5.5-12.8c1.8-0.8,3.8-0.9,5.7-0.8
		c16.4,0.7,29.1,6.8,40.9,18.2c7.8,7.5,7.5,17.7,10.4,21.3c3.7,4.6,9.8-1.5,9,4.3c-0.8,5.8-4.1,11.2-8.9,14.6
		c-3.4,2.3-7.3,3.7-11.2,4.9c-7.8,2.5-15.8,4.6-23.8,6.4c-5,1.2-8.6,12.5-12.1,8C22.6,97.1,18.4,81.2,16.5,75.6z"/>
	<path fill="#FCD8BE" d="M36.8,88c6.5-4.8,13.7-8.7,21.3-11.6c3.7-1.5,7.6-2.7,11.1-4.7c2.7-1.6,5.2-3.7,6.8-6.3
		c-1-0.2-1.9-0.7-2.8-1.7c-2.9-3.6-2.6-13.8-10.4-21.3c-5.5-5.3-11.2-9.5-17.4-12.5c-3.4-0.2-6.6-0.4-10,0.4c-1.9,0.4-3.7,1-5.4,1.8
		c-1.1,0.5-4,3-4.9,2.9c2.7,0.1,5.4,0.8,7.7,2.2c-4,2.3-7,6.1-8.2,10.6c5.6,0.1,11.2,2.1,15.6,5.7c-3,1-5.9,1.9-8.9,2.9
		c1.6,0.7,3.1,1.3,4.7,2c-4.6,0.4-9,2.1-12.6,4.9c2.6,1.4,5,3.2,7.1,5.4c-2.5,0.7-4.7,2-6.5,3.9C30.3,75.4,35.1,81.3,36.8,88z"/>
	<path fill="#60423E" d="M267.8,21.8c1.5-7.1,2-16.3-3.8-20.2c-4.6-3.1-10.6-1-15.5,1.2c-11.6,5.1-23.2,10.2-34.8,15.3
		c-11.8,5.2-23.9,10.6-33,20.1c-9.1,9.5-14.5,24.4-10,37.3c4.8,13.7,18.6,21,31.6,25.4c7.3,2.4,14.7,4.3,22.2,5.7
		c18.2,3.3,21.7-15.4,27.4-30.3C258.6,58.6,263.9,40.4,267.8,21.8z"/>
	<path fill="#FFA912" d="M247.2,73c5.1-11.7,8.2-24.4,9.1-37.1c0.3-4.9-0.2-10.8-4.4-13.3c-1.7-1-3.7-1.2-5.6-1.3
		c-16.4-0.7-29.6,4.3-42.3,14.6c-8.4,6.8-8.9,17-12.1,20.3c-4.1,4.2-9.7-2.4-9.4,3.5s3.2,11.5,7.7,15.3c3.1,2.6,6.9,4.3,10.7,5.8
		c7.6,3.1,15.3,5.9,23.2,8.5c4.9,1.6,7.5,13.2,11.3,9C239.3,93.9,244.8,78.4,247.2,73z"/>
	<path fill="#FCD8BE" d="M225.9,83.6c-6.1-5.3-12.9-9.8-20.2-13.4c-3.6-1.8-7.3-3.3-10.6-5.6c-2.6-1.8-4.9-4.1-6.2-6.9
		c1-0.1,2-0.5,2.9-1.5c3.2-3.3,3.7-13.5,12.1-20.3c5.9-4.8,12-8.5,18.4-10.9c3.4,0.1,6.6,0.2,9.9,1.2c1.8,0.6,3.6,1.3,5.3,2.3
		c1,0.6,3.7,3.3,4.7,3.3c-2.7-0.2-5.4,0.4-7.9,1.5c3.8,2.6,6.5,6.7,7.3,11.2c-5.6-0.4-11.4,1.1-16,4.3c2.9,1.2,5.8,2.4,8.6,3.6
		c-1.6,0.5-3.2,1-4.8,1.6c4.5,0.8,8.8,2.9,12.1,6c-2.7,1.2-5.3,2.8-7.6,4.7c2.4,0.9,4.5,2.4,6.1,4.4
		C233.5,71.6,228.2,77.1,225.9,83.6z"/>
	<path fill="#FCD8BE" d="M189.1,47.3c-30.9-9.1-60.4-7.3-60.4-7.3s-29.5-1.9-60.5,7c-30.9,8.9-56.1,44.8-51.6,77
		c3,22.1,10.7,60.3,35.7,85.7c24.9,25.4,75.8,29.3,75.8,29.3s50.9-3.6,76-28.9c25.1-25.3,33-63.5,36.2-85.5
		C244.9,92.4,220,56.4,189.1,47.3z"/>
	<path fill="#FCD8BE" d="M2,181.3c4.7,0.7,9.5,1.4,14.2,2.2c-2.5,4.4-5.6,8.6-9,12.4c5.8,0.7,11.6,0.9,17.4,0.7
		c-1.2,4.4-4.4,8.2-8.6,10.1c25.3,12.3,52.7,20.5,80.6,24.2c5,0.7,10.7,1,14.6-2.3c3.4-2.9,4.4-8,3.4-12.4c-1-4.4-3.6-8.2-6.3-11.9
		c-14.1-19.1-31.6-35.3-49.1-51.4c-5-4.6-10-9.2-16-12.3c-4.1-2.1-13-5.5-17.1-1.7c-3.1,2.9-2.1,10.1-3,13.9c-1.3,6-4,11.8-7.6,16.7
		C13.5,172.1,5.8,181.9,2,181.3z"/>
	<path fill="#FCD8BE" d="M256.2,181.2c-4.7,0.8-9.5,1.5-14.2,2.3c2.6,4.4,5.6,8.6,9.1,12.3c-5.8,0.7-11.6,1-17.4,0.9
		c1.2,4.4,4.5,8.2,8.6,10c-25.3,12.5-52.5,20.9-80.5,24.8c-5,0.7-10.7,1.1-14.6-2.2c-3.5-2.9-4.4-8-3.4-12.4c1-4.4,3.5-8.3,6.2-11.9
		c14-19.2,31.4-35.5,48.7-51.8c4.9-4.6,10-9.3,16-12.5c4.1-2.2,13-5.6,17.1-1.8c3.1,2.9,2.2,10.1,3.1,13.9c1.4,6,4,11.7,7.8,16.7
		C244.6,172.1,252.4,181.8,256.2,181.2z"/>
	<path fill="#EFC8AC" d="M70,110.6c26.3,5.7,40.9,36.9,46.5,49c0.9,1.9,2.3,4.2,4.4,3.8c4.7-15.8-2.7-32.7-12.2-46.1
		c-3.9-5.5-8.2-10.7-13.7-14.6c-14.4-10.1-34.4-8.6-50.5-1.5c-5,2.2-27,24.1-13.2,16.3C42.6,111.1,56.8,107.7,70,110.6z"/>
	<path fill="#EFC8AC" d="M186.9,109.2c-26.5,4.9-42,35.6-48,47.5c-0.9,1.9-2.5,4.1-4.5,3.7c-4.2-15.9,3.7-32.6,13.7-45.7
		c4-5.3,8.5-10.5,14.1-14.1c14.7-9.6,34.6-7.5,50.6,0.1c4.9,2.3,26.2,24.9,12.6,16.7C214.2,110.5,200.2,106.7,186.9,109.2z"/>
	<path fill="#F7E9E2" d="M238.3,168.9c-6-3.2-12.9-5-19.9-5.4c6.7,3.2,12.9,7.4,18,12.4c-9.4-3.9-21.5-8-31.6-6.3
		c8.1,4.9,17.9,13,22.1,20.8c-15.6-12.2-40.2-22.3-60.9-24c2.3,0.2,21.4-17,51.6-8.6C226.3,160.1,234.8,164.8,238.3,168.9z"/>
	<path fill="#FFA912" d="M186.4,45.9c31.2,8.1,57.2,43.3,53.6,75.7c-0.5,4.5-4.4,25-5.4,30.5c0,0,4.4-46.9-36.5-51.3
		c-26-2.8-39.4,7-47.1,25.3c-7,16.3-9,50.4-9,50.4l-16.6,6l0.4-142C125.8,40.6,155.3,37.8,186.4,45.9z"/>
	<path fill="#E08119" d="M208.4,85.3c1.1,1.5,2.1,3.8,0.7,5.2c-1.3,1.3-3.5,0.6-5.1-0.3c-3.3-1.9-6.2-4.4-9.5-6.2
		c-3.2-1.6-6.8-2.5-10.1-4.2c-1-0.5-2.1-1.4-1.9-2.5c0.1-0.4,0.3-0.7,0.6-1c1.3-1.4,3.4-1.9,5.3-1.9
		C196.3,74.7,203.8,79.1,208.4,85.3z"/>
	<path fill="#FFA912" d="M68.2,47.1c-30.9,8.9-56.1,44.8-51.6,77c0.6,4.5,5.1,24.9,6.2,30.4c0,0-5.7-46.8,35.2-52.2
		c25.9-3.5,39.5,6,47.8,24c7.4,16.1,10.3,50.1,10.3,50.1l18.8,6l-6.2-142.3C128.7,40.2,99.2,38.2,68.2,47.1z"/>
	<path fill="#E08119" d="M47.9,89.7c-1.1,1.6-1.9,3.8-0.5,5.1c1.3,1.3,3.5,0.4,5-0.6c3.1-2.1,5.9-4.7,9.1-6.5
		c3.1-1.8,6.6-2.8,9.8-4.5c1-0.5,2-1.5,1.7-2.6c-0.1-0.4-0.4-0.7-0.6-0.9C71,78.4,69,78,67.1,78.1C59.4,78.7,52.2,83.4,47.9,89.7z"
		/>
	<path fill="#FFB845" d="M81,52.2c-1.9,0.6-3.8,1.2-5.3,2.4c-1.5,1.2-2.6,3.2-2.2,5.1c0.5,2.3,3,3.8,5.4,3.9
		c2.4,0.1,4.7-0.8,6.9-1.5c7.8-2.6,16.1-3.9,24.3-3.8c7.3,0.1,14.8,1.2,21.9-0.8c3.6-1,7.5-3.8,7-7.5c-0.3-2.3-2.2-4.1-4.3-4.9
		c-2.1-0.8-4.5-0.8-6.8-0.8C111.8,44.5,96.3,47.4,81,52.2z"/>
	<path fill="#60423E" d="M180.9,126c5.2-2.2,16.8-1.1,22.7,3.6c1.7,1.4,9.8,7.1,12,6.9c0.8-0.1,1.6-0.3,2.3,0.1
		c0.9,0.5,1.1,1.7,0.7,2.6c-0.4,0.9-1.1,1.6-1.9,2.2c-2,1.7-4.1,3.4-6.3,5c-3.1-5.2-9.3-8.8-16.1-9.8c-20.2-3-28,11.3-31.2,20.4
		c-0.2,0.7-1.2,0.5-1.2-0.2c0.1-1.7,0.2-3.3,0.4-4.1C163.3,148.6,167.7,131.5,180.9,126z"/>
	<path fill="#F7E9E2" d="M29.5,180.5c5.4-4.2,11.8-7.2,18.6-8.8c-6.1,4.4-11.3,9.6-15.6,15.3c8.6-5.5,19.7-11.6,30-11.8
		c-7.1,6.2-15.3,15.9-18.1,24.3c13.2-14.8,35.7-29,55.7-34.3c-2.2,0.6-24.1-13-52.3,0.6C39.9,169.8,32.3,175.9,29.5,180.5z"/>
	<path fill="#60423E" d="M71.1,129.7c-5.6-0.6-14.7,1.3-20.6,10c-1.2,1.8-7.3,9.6-9.5,10.1c-0.8,0.2-1.6,0.2-2.2,0.8
		c-0.7,0.7-0.5,1.9,0.1,2.7c0.6,0.8,1.5,1.2,2.4,1.6c2.4,1.1,4.9,2,7.4,2.9c1.5-5.9,6.3-11.1,12.5-14.1c18.4-8.8,30.1,2.7,35.8,10.4
		c0.4,0.6,1.3,0.1,1.1-0.6c-0.6-1.6-1.2-3.1-1.6-3.8C94.5,146.2,85.3,131.1,71.1,129.7z"/>
	<path fill="#F7E9E2" d="M162.1,177.8c-3.2-7.1-14.2-9.6-16.5-10.4c-2.7-0.9-5.6-1.1-8.5-1.1c-11,0-26.7,2.7-26.8,2.8
		c0,0-9.5,1.5-13.6,9c-2.2,4.1-2.2,9.3,0.7,13.5c2.3,3.2,6.2,5.5,10.3,7.2c12.8,5.4,33.2,6.4,44.7-0.3
		C161.5,193.2,164.7,183.5,162.1,177.8z"/>
	<path fill="#60423E" d="M149.5,168.9c-0.7-2.4-2.6-4.4-4.8-5.6c-2.2-1.2-4.7-1.7-7.2-1.9c-2.8-0.3-14-0.3-16.8,0
		c-2.5,0.2-5,0.7-7.3,1.9c-2.2,1.2-4.1,3.1-4.8,5.5c-0.7,2.4,0,5.3,2.1,6.8c1,0.7,2.2,1.1,3.3,1.6c1.5,0.7,2.8,1.7,3.8,3
		c1.2,1.5,2,3.4,3.3,4.8c2,2.2,4.9,3.1,7.9,3.5c2.9-0.3,5.9-1.3,7.9-3.4c1.3-1.4,2.1-3.2,3.4-4.8c1-1.3,2.3-2.3,3.8-3
		c1.1-0.5,2.3-0.9,3.4-1.6C149.5,174.2,150.2,171.3,149.5,168.9z"/>
	<path fill="#FFFFFF" d="M114.6,167.4c-0.6,1.2-0.3,2.9,0.9,3.5c0.8,0.4,1.7,0.2,2.5-0.1c0.8-0.4,1.5-0.9,2.2-1.3
		c2.3-1.3,5.1-1.5,7.8-1.6c0.7,0,1.5,0,2.1-0.4c0.7-0.3,1.2-1,1.1-1.7c-0.4-2.4-6.3-2.2-8.1-2.1C120.3,164,116,164.7,114.6,167.4z"
		/>
	<path fill="#60423E" d="M90.6,198.7c-0.2-0.3,0.3-0.7,0.5-0.4c5.1,6.3,17.6,17.7,42,18.6c26.6,1,37.4-17,40.8-24.9
		c0.2-0.4,0.7-0.2,0.6,0.2c-2.2,8.6-10.5,28.8-40.6,30.1C108.5,223.5,95.5,207,90.6,198.7z"/>
	<path fill="#EFC8AC" d="M85,205.7c-1.4-3-1.1-6.8,0.9-9.4c2.1-2.6,6-3.6,8.9-2.2c-0.7-0.3-3.2,1.4-3.7,1.8
		c-0.9,0.7-1.9,1.4-2.8,2.2C86.4,200.2,85,202.9,85,205.7z"/>
	<path fill="#EFC8AC" d="M181,198.6c1-3.1,0.3-6.9-2.1-9.2c-2.4-2.3-6.4-2.9-9.1-1.1c0.6-0.4,3.3,1.1,3.9,1.4c1,0.5,2.1,1.2,3,1.9
		C179,193.3,180.6,195.8,181,198.6z"/>
	<path fill="#F2881D" d="M57.9,359c6.4,9.9,16,17.2,25.8,23.7c16.2,10.7,43.1,25.8,52.4,25.8c6.2,0,51.2-22.2,68.9-36
		c3-2.4,6.1-4.8,8-8.2c3.3-5.9,2.2-13.2,1-19.9c-1.1-6-2.6-12.7-7.6-16.3c-3.9-2.7-8.9-2.9-13.7-2.6c-9.2,0.6-18.2,2.6-27.3,3.7
		c-20.5,2.3-41.1-0.4-61.6-2.3c-10.5-1-21-1.8-31.5-1.6c-5.5,0.1-17.7-1.4-20.8,4.3C47.2,337.8,53.4,352.1,57.9,359z"/>
	<g>
		<path fill="#E2441A" d="M224.3,285.8c-26.9-51.5-86.9-10.3-86.9-10.3v0.2c0,0-59.9-41.2-86.9,10.3
			c-30.3,57.9,86.9,107.8,86.9,107.8v-0.2C137.4,393.6,254.6,343.8,224.3,285.8z"/>
		<path fill="#C13317" d="M224.3,285.8c-1.4-2.6-2.8-5-4.4-7.2c18.2,55-89.8,100.9-89.8,100.9v0.2c0,0-58.2-24.7-81.9-59.6
			c15,42.1,89.2,73.7,89.2,73.7v-0.2C137.4,393.6,254.6,343.8,224.3,285.8z"/>
		<path opacity="0.38" fill="#FFFFFF" d="M87,275.1c-0.6,1.6-0.8,3.5,0.3,4.8c0.8,0.9,2.1,1.3,3.3,1.6c8,1.8,16,3.7,24,5.5
			c1.7,0.4,3.6,0.8,5.3,0.1c2.1-0.9,3.2-3.4,3-5.7c-0.2-2.3-1.5-4.3-3.2-6c-3.3-3.3-7.7-5.2-12.3-6.1
			C100.3,267.9,90.2,266.6,87,275.1z"/>
	</g>
	<path fill="#60423E" d="M66.3,324c1.5-0.3,2.9-0.8,4.4-0.9c1.5-0.1,3.1,0.4,4.1,1.5c1,1.2,0.9,3.2-0.4,4c2.3-0.7,5,0.5,5.8,2.7
		c0.8,2.2-1.1,5.1-3.4,4.9c1.3,0.5,1.9,2.2,1.5,3.5c-0.4,1.3-1.6,2.3-3,2.7c-1.3,0.5-2.7,0.5-4.1,0.4c-7.5-0.2-15-1.7-21.5-5.5
		c-5.7-3.3-11-8.5-11.8-9.5c-4-5.4,0.4-10,3.5-10.8c2.2-0.6,3.7,0.2,6.7,3.3C52.5,324.9,60.2,325.4,66.3,324z"/>
	<path fill="#60423E" d="M207.3,322.2c-1.5-0.1-3-0.3-4.5-0.1c-1.5,0.2-3,0.9-3.8,2.2c-0.7,1.3-0.4,3.3,1,3.9
		c-2.3-0.3-4.9,1.3-5.3,3.6c-0.4,2.3,1.9,4.8,4.2,4.3c-1.2,0.7-1.5,2.5-0.9,3.7c0.6,1.2,2,2,3.4,2.2c1.4,0.2,2.8,0,4.2-0.3
		c7.3-1.4,14.6-4.2,20.3-9c5.1-4.2,9.5-10.2,10.1-11.4c3-6-2.1-9.8-5.2-10.1c-2.2-0.2-3.6,0.8-6.1,4.3
		C221,320.9,213.5,322.6,207.3,322.2z"/>
	<path fill="#FFA912" d="M48.4,271.5c-0.4,1.2-0.5,3,0.7,3.4c0.7,0.2,1.5-0.1,2.1-0.6c2.1-1.5,3.5-3.9,5.2-5.8
		c4.9-5.3,13-7.3,16.5-13.6c0.5-0.9,0.9-2,0.3-2.9c-0.4-0.6-1-0.9-1.7-1c-5-1.3-11.7,3.6-14.6,7.4C54.8,261.4,48.4,267.5,48.4,271.5
		z"/>
</g>
</svg>
