<?xml version="1.0" encoding="utf-8"?>
<!-- Generator: Adobe Illustrator 17.1.0, SVG Export Plug-In . SVG Version: 6.00 Build 0)  -->
<!DOCTYPE svg PUBLIC "-//W3C//DTD SVG 1.1//EN" "http://www.w3.org/Graphics/SVG/1.1/DTD/svg11.dtd">
<svg version="1.1" id="Layer_1" xmlns="http://www.w3.org/2000/svg" xmlns:xlink="http://www.w3.org/1999/xlink" x="0px" y="0px"
	 width="424.7px" height="466.8px" viewBox="0 0 424.7 466.8" enable-background="new 0 0 424.7 466.8" xml:space="preserve">
<g>
	<path fill="#F2881D" d="M137.7,353.6c-23.7,5-45.1,17.3-68.1,24.8c-23,7.5-50.2,9.4-69.6-5c1.7,14.8,12.1,27,23.4,36.6
		c41.1,34.8,99.1,45.6,152.2,36.5c16.6-2.8,33.3-7.7,46.6-18c10.5-8.2,18.7-20.4,20.3-33.7c1.7-13.9-12.3-21.1-23.1-27.4
		C195.1,353.2,165.5,347.8,137.7,353.6z"/>
	<path fill="#E27B1E" d="M20.8,382.5c0.9,0.8,1.9,1.7,2.8,2.5c41.1,34.8,99.1,45.6,152.2,36.5c16.6-2.8,33.3-7.7,46.6-18
		c7.1-5.5,13.2-12.9,16.9-21.3c2.5,3.5,3.9,7.6,3.3,12.5c-1.6,13.4-9.8,25.6-20.3,33.7c-13.3,10.3-30,15.2-46.6,18
		c-53.1,9-111.1-1.7-152.2-36.5C12.1,400.4,1.7,388.1,0,373.3C6.3,378,13.3,380.9,20.8,382.5z"/>
	<path fill="#FCD8BE" d="M23.4,410C12.1,400.4,1.7,388.1,0,373.3c19.4,14.4,46.6,12.5,69.6,5c5.1-1.7,10.1-3.6,15.1-5.6
		c0.9,0.7,1.7,1.6,2.4,2.9c3.2,5.6,0.3,11.9,2.2,17.8c1.7,5.4,6.9,8.7,9.9,13.5c2.7,4.2,3.4,9.6,2.1,14.4c-1,3.5-3.1,6.7-3.6,10.3
		c-0.7,4.5,1,9.2,1.2,13.8C71.2,439.9,45,428.2,23.4,410z"/>
	<path fill="#EFC8AC" d="M0,373.4c0.4,0.3,0.8,0.6,1.2,0.8c0,0,0,0,0,0c0.4,0.3,0.7,0.5,1.1,0.8c0,0,0.1,0,0.1,0.1
		c1.2,0.8,2.4,1.5,3.6,2.2c0,0,0,0,0,0c4.6,2.5,9.5,4.2,14.7,5.3c0.9,0.8,1.9,1.7,2.8,2.5c22.2,18.8,49.2,30.5,77.8,36
		c0,0.1-0.1,0.2-0.1,0.4c-1,3.5-3.1,6.7-3.6,10.3c-0.7,4.5,1,9.2,1.2,13.8c-0.1,0-16.9,1.3-60.4-23.1C14.6,409.1,1.7,388.2,0,373.4z
		"/>
	<path fill="#FFA912" d="M370.2,365.4c8.4,1.5,11.8,24.9,10.2,33.3c-9.1,47.8-4.9,37.8-20.2,50.7c-4,3.4-8.1,7.1-13.1,8.5
		c-4,1.1-3,0-11.2-7.7c-15-14.1-43.2-0.7-43.3-3.6c-0.1-9.9,6.9-23.3,13.8-30.5C323.4,398.5,346,361,370.2,365.4z"/>
	<path fill="#FFA912" d="M163.5,370.4c-8.3,2-10.5,25.5-8.5,33.8c11.6,47.2,6.9,37.5,22.8,49.6c4.2,3.2,8.4,6.7,13.6,7.8
		c4.1,0.9,3-0.1,10.8-8.3c14.3-14.9,43.1-2.9,43-5.9c-0.4-9.9-8.1-22.9-15.4-29.7C212,401.1,187.5,364.7,163.5,370.4z"/>
	<path fill="#FFA912" d="M193,320.6c-18.5,4.4-25.6,7.8-36.6,14.4c-6.1,3.6-12.3,7.2-18.4,10.8c-1.7-3.5-3.4-7-5-10.5
		c8.9-10.7,18.5-20.9,28.5-30.6c10.1-9.7,21.1-19,34.3-23.7c7.3-2.6,15.3-3.7,22.8-1.8c7.5,1.9,14.4,7.1,17,14.3
		C246.3,322.6,212.2,316,193,320.6z"/>
	<path fill="#FFA912" d="M314.8,281.7c-8.8-24.3-9.5-38.8-9.5-38.8l-44.4,15.3l-44.4-15.3c0,0-0.7,14.5-9.5,38.8
		c-8.8,24.3-41.1,89.6-26.6,130.4c6.1,17.3,45.9,37.1,83.1,38.6c41.7,1.7,71.7-16.1,77.7-34.7C354.5,374.7,323.6,306,314.8,281.7z"
		/>
	<path fill="#F2881D" d="M273.6,288.5c9.9-2.2,18.4-8.6,26.1-15.2c3.6-3.1,7.4-6.6,8.4-11.3c0.1-0.6,0.2-1.2,0.2-1.8
		c-0.6-2.4-1.1-4.7-1.5-6.6c-1.9-3.7-5.2-6.7-9-8.5c-0.1-0.1-0.3-0.1-0.4-0.2l-36.7,12.6l-37-12.7c-2.7,1.1-5.9,2.6-8.3,4.7
		c-0.4,2.7-7.6,28.1-8.5,32.2c2.1,4.3,18.8,8.8,24.3,11.7c6.2,3.3,19.6-5.4,26.5-4.5C263.1,289.6,268.4,289.6,273.6,288.5z"/>
	<path fill="#FCD8BE" d="M221.4,310.9c-4.1,11.9-7,24.1-8.8,36.5c-2.2,15.5-1.9,33.3,9.2,44.3c8.5,8.5,21.3,10.7,33.3,11.8
		c9.6,0.9,19.4,1.2,28.8-0.9c9.4-2.1,18.5-6.9,24.2-14.7c8.5-11.6,8-27.7,3.5-41.4c-4.5-13.7-12.3-26-17.8-39.2
		c-4.6-11.1-7.6-22.9-8.7-34.9c-0.3-2.9,0.4-14.8-2-16.5c-1.6-1.1-46.3-5.4-49.7,2.8c-1.2,3-0.6,15.4-1.2,18.7
		c-0.7,3.8-1.7,7.4-2.8,11.1C226.9,296,223.9,303.4,221.4,310.9z"/>
	<path fill="#EFC8AC" d="M286.5,283.1c-0.7-3.5-1.2-7.1-1.5-10.7c-0.3-2.9,0.7-15.2-1.7-16.9c-0.5-0.4-7.1-0.7-14-1.2l-9.5,3.3
		l-10.7-3.7c-8.5,0.4-15.6,1.7-16.8,4.7c-1.2,3-0.6,15.4-1.2,18.7c-0.1,0.5-2.8,14-2.9,14.5C230.8,293.6,273.1,295.2,286.5,283.1z"
		/>
	<path fill="#F2881D" d="M141.3,339.4c0.5-0.8,10.9-9,22.4-14.8c22.6-11.5,37.1-11.5,37.1-11.5l-8.5,7.5l-16.4,4.9
		c0,0-13.1,5.7-20.8,10.3c-7.7,4.5-15.2,9-15.2,9L141.3,339.4z"/>
	<path fill="#60423E" d="M78.2,111c-3.3-6.5-6.2-15.1-1.6-20.5c3.6-4.2,9.9-3.7,15.3-2.9c12.5,1.9,25.1,3.7,37.6,5.6
		c12.8,1.9,25.9,3.9,37.1,10.7c11.3,6.8,20.4,19.7,19.5,33.3c-1,14.4-12.4,25.2-23.8,32.8c-6.4,4.3-13.1,8-19.9,11.3
		c-16.7,8-25-9.2-34.4-22C96.8,144.2,86.8,128,78.2,111z"/>
	<path fill="#FFA912" d="M111.5,155.1c-8-10-14.4-21.3-18.6-33.4c-1.6-4.6-2.7-10.5,0.8-13.9c1.4-1.4,3.2-2.1,5.1-2.7
		c15.7-5,29.7-3.6,44.7,3c9.9,4.4,13.1,14,17.1,16.4c5,3,8.7-4.8,9.9,0.9c1.2,5.7,0,12-3.4,16.8c-2.3,3.4-5.6,6-8.8,8.5
		c-6.5,5-13.2,9.8-20.1,14.2c-4.3,2.8-3.8,14.7-8.6,11.7C124.7,173.2,115.2,159.6,111.5,155.1z"/>
	<path fill="#FCD8BE" d="M134.9,159.7c4.5-6.7,9.9-12.9,16-18.2c3-2.7,6.2-5.1,8.8-8.2c2-2.4,3.6-5.3,4.2-8.3c-1,0.1-2.1,0-3.2-0.7
		c-4-2.4-7.2-12-17.1-16.4c-7-3.1-13.8-5-20.6-5.7c-3.2,1-6.3,1.9-9.3,3.8c-1.6,1-3.1,2.2-4.5,3.6c-0.8,0.8-2.7,4.1-3.6,4.4
		c2.6-0.9,5.3-1.1,8-0.6c-3,3.5-4.5,8.2-4.1,12.8c5.3-1.9,11.3-1.9,16.6-0.1c-2.5,1.9-4.9,3.9-7.4,5.8c1.7,0.1,3.4,0.2,5.1,0.2
		c-4.1,1.9-7.7,5.1-10.1,9c3,0.4,5.8,1.3,8.5,2.6c-2.1,1.5-3.7,3.5-4.8,5.9C124.4,150.1,131,154,134.9,159.7z"/>
	<path fill="#60423E" d="M328.9,17.9c-1.1-7.2-3.7-16-10.5-17.6C313-1.1,308.1,3,304.2,6.7c-9.1,8.8-18.3,17.6-27.4,26.3
		c-9.3,8.9-18.8,18.2-24.1,30.3c-5.2,12.1-5.3,27.9,3.4,38.5c9.2,11.2,24.7,13.3,38.4,12.9c7.7-0.2,15.3-1,22.8-2.3
		c18.2-3.2,15-21.9,15.3-37.8C332.9,55.7,331.7,36.7,328.9,17.9z"/>
	<path fill="#FFA912" d="M327.2,73.1c0.8-12.8-0.7-25.7-4.2-38c-1.4-4.7-3.9-10.1-8.7-10.9c-1.9-0.3-3.9,0.2-5.7,0.7
		c-15.7,5-26.3,14.2-34.7,28.3c-5.5,9.3-2.5,19-4.4,23.3c-2.4,5.4-9.9,1.1-7.6,6.5c2.3,5.4,6.9,9.7,12.5,11.7
		c3.8,1.4,8,1.6,12.1,1.8c8.2,0.3,16.4,0.3,24.7-0.1c5.2-0.2,11.6,9.8,13.7,4.5C327,95.5,326.8,79,327.2,73.1z"/>
	<path fill="#FCD8BE" d="M310.9,90.4c-7.6-2.9-15.5-4.8-23.6-5.6c-4-0.4-8-0.6-11.9-1.6c-3-0.8-6-2.2-8.2-4.3
		c0.9-0.5,1.7-1.2,2.2-2.4c1.9-4.2-1.1-14,4.4-23.3c3.9-6.6,8.3-12.1,13.5-16.6c3.2-1,6.2-2.1,9.7-2.3c1.9-0.1,3.8,0,5.7,0.3
		c1.2,0.2,4.6,1.8,5.5,1.5c-2.6,0.8-5,2.2-6.9,4.1c4.4,1.1,8.4,4.1,10.7,8c-5.4,1.6-10.3,5-13.6,9.6c3.1,0.1,6.2,0.3,9.4,0.4
		c-1.3,1-2.7,2.1-4,3.1c4.5-0.8,9.2-0.3,13.5,1.5c-2.2,2.1-4,4.4-5.5,7c2.5,0,5.1,0.7,7.3,2C313.9,76.5,310.8,83.5,310.9,90.4z"/>
	<path fill="#FCD8BE" d="M263.9,69c-32.1,2.1-59.3,14-59.3,14s-28.4,8.4-54.4,27.4c-26,19-37.2,61.3-21.9,90.1
		c10.5,19.7,30.9,52.9,63,68.2c32.2,15.3,81.3,1.4,81.3,1.4s46.6-20.9,61.4-53.3c14.8-32.4,9.1-71,4.5-92.8
		C331.8,92.1,296,66.9,263.9,69z"/>
	<path fill="#FCD8BE" d="M134.3,259.3c4.7-1,9.4-1.9,14.1-2.9c-0.9,5-2.3,10-4.2,14.7c5.7-1.4,11.2-3.1,16.6-5.3
		c0.4,4.5-1.3,9.2-4.6,12.4c28,2.8,56.5,1.1,84-5.1c5-1.1,10.4-2.8,12.9-7.2c2.2-3.9,1.3-9-1.1-12.8c-2.5-3.8-6.2-6.5-10-9
		c-19.8-13.1-41.9-22.2-63.8-31.3c-6.3-2.6-12.6-5.2-19.3-6.1c-4.6-0.6-14.1-0.7-16.6,4.3c-1.9,3.8,1.5,10.2,2,14.1
		c0.8,6.1,0.3,12.4-1.4,18.3C142,246.7,138.1,258.5,134.3,259.3z"/>
	<path fill="#FCD8BE" d="M372.9,171.6c-4.2,2.3-8.4,4.7-12.5,7c3.9,3.3,8.2,6.1,12.8,8.4c-5.2,2.6-10.5,4.9-16.1,6.8
		c2.6,3.7,7,6.1,11.6,6.4c-19.4,20.4-42.1,37.7-67,51c-4.5,2.4-9.7,4.7-14.5,3c-4.2-1.5-6.9-6-7.5-10.5c-0.6-4.5,0.5-9,1.7-13.3
		c6.5-22.8,17.2-44.2,27.9-65.4c3-6,6.1-12.2,10.7-17.2c3.1-3.4,10.2-9.7,15.4-7.6c3.9,1.6,5.5,8.7,7.7,12c3.3,5.2,7.8,9.6,13,13
		C358.9,167,369.6,173.4,372.9,171.6z"/>
	<path fill="#EFC8AC" d="M173.8,169.5c26.7-3.7,51.1,20.6,60.5,30c1.5,1.5,3.6,3.1,5.4,2.1c-1-16.4-13.8-29.7-27.3-39.1
		c-5.5-3.8-11.4-7.2-17.9-9c-17-4.5-35.2,3.8-48,16c-3.9,3.7-17.1,31.9-6.8,19.8C148.3,179.4,160.4,171.3,173.8,169.5z"/>
	<path fill="#EFC8AC" d="M283.1,127.9c-23.2,13.7-27.2,47.9-28.7,61.1c-0.2,2.1-0.9,4.7-3,5c-9.4-13.5-7.7-31.8-2.9-47.6
		c2-6.4,4.4-12.8,8.4-18.1c10.5-14.1,29.9-18.9,47.5-17.4c5.4,0.5,33.2,14.4,17.6,11.3C309.2,119.7,294.7,121,283.1,127.9z"/>
	<path fill="#F7E9E2" d="M351.9,166.1c-6.8-0.9-13.9-0.3-20.5,1.8c7.4,0.7,14.6,2.5,21.2,5.4c-10.2-0.4-22.9-0.1-31.8,5
		c9.3,1.8,21.3,6,27.9,11.9c-18.9-6.1-45.4-7.1-65.4-1.5c2.2-0.6,14.3-23.4,45.4-25.9C337.6,162.1,347.2,163.5,351.9,166.1z"/>
	<path fill="#FFA912" d="M260.8,68.6c32-3.1,68.6,20.9,76.4,52.6c1.1,4.4,4.5,25,5.5,30.5c0,0-12-45.5-52-35.6
		c-25.4,6.3-34.5,20.2-35.5,40c-0.9,17.7,8.9,50.4,8.9,50.4l-13.5,11.4L202.1,84.5C202.1,84.5,228.8,71.8,260.8,68.6z"/>
	<path fill="#E08119" d="M295,98c1.6,1,3.3,2.9,2.5,4.6c-0.7,1.7-3.1,1.8-4.9,1.4c-3.7-0.7-7.3-2.1-11.1-2.5
		c-3.6-0.4-7.3,0-10.9-0.4c-1.1-0.1-2.5-0.6-2.6-1.7c0-0.4,0.1-0.8,0.2-1.1c0.8-1.8,2.5-3,4.4-3.6C280,92.2,288.6,93.8,295,98z"/>
	<path fill="#FFA912" d="M150.3,110.5c-26,19-37.2,61.3-21.9,90.1c2.1,4,13.3,21.6,16.3,26.4c0,0-21.4-41.9,15-61.2
		c23.1-12.2,39.2-8,53.1,6.1c12.5,12.6,26.9,43.5,26.9,43.5l19.7-0.8L204.6,83.1C204.6,83.1,176.2,91.5,150.3,110.5z"/>
	<path fill="#E08119" d="M145.9,157.4c-0.4,1.8-0.4,4.3,1.3,5c1.7,0.7,3.4-0.8,4.5-2.3c2.2-3,3.9-6.4,6.3-9.2
		c2.3-2.7,5.3-4.9,7.6-7.6c0.7-0.8,1.4-2.1,0.8-3c-0.2-0.3-0.6-0.5-0.9-0.7c-1.8-0.7-3.8-0.5-5.5,0.3
		C152.9,143.2,147.7,150.1,145.9,157.4z"/>
	<path fill="#FFB845" d="M164,110.9c-1.5,1.2-3.1,2.4-4.1,4.1c-1,1.7-1.3,3.9-0.3,5.5c1.3,2,4.1,2.5,6.4,1.8c2.3-0.7,4.1-2.3,6-3.8
		c6.4-5.1,13.7-9.2,21.5-11.9c6.9-2.4,14.3-3.9,20.3-8.3c3-2.2,5.7-6.2,4-9.5c-1-2-3.5-3.1-5.8-3.1c-2.3,0-4.5,0.8-6.6,1.6
		C190.3,93,176.7,101.1,164,110.9z"/>
	<path fill="#F7E9E2" d="M237,332.5c-0.7-9.1,1.8-18.2,6-26.3c-3.6,2.6-6.5,6.2-8.2,10.3c-2.5-3-4.2-7.9-6.9-10.3
		c-1.3,3.2,1.7,10.2,2.9,13.5c0.8,2.3,1.8,4.5,2.8,6.7C234.3,328,236.8,330.9,237,332.5z"/>
	<path fill="#F7E9E2" d="M270.1,317.4c-0.7-9.1,1.8-18.2,6-26.3c-3.6,2.6-6.5,6.2-8.2,10.3c-2.5-3-4.2-7.9-6.9-10.3
		c-1.3,3.2,1.7,10.2,2.9,13.5c0.8,2.3,1.8,4.5,2.8,6.7C267.5,312.9,270,315.8,270.1,317.4z"/>
	<path fill="#F7E9E2" d="M252.2,366.7c-0.7-9.1,1.8-18.2,6-26.3c-3.6,2.6-6.5,6.2-8.2,10.3c-2.5-3-4.2-7.9-6.9-10.3
		c-1.3,3.2,1.7,10.2,2.9,13.5c0.8,2.3,1.8,4.5,2.8,6.7C249.5,362.2,252,365.1,252.2,366.7z"/>
	<path fill="#F7E9E2" d="M285.6,353.6c-0.7-9.1,1.8-18.2,6-26.3c-3.6,2.6-6.5,6.2-8.2,10.3c-2.5-3-4.2-7.9-6.9-10.3
		c-1.3,3.2,1.7,10.2,2.9,13.5c0.8,2.3,1.8,4.5,2.8,6.7C282.9,349.1,285.4,351.9,285.6,353.6z"/>
	<path fill="#F7E9E2" d="M269.8,395.8c-0.6-7.4,1.5-14.9,4.9-21.5c-3,2.1-5.3,5-6.7,8.4c-2.1-2.5-3.5-6.4-5.7-8.4
		c-1.1,2.6,1.4,8.4,2.4,11.1c0.7,1.9,1.5,3.7,2.3,5.5C267.6,392.1,269.7,394.4,269.8,395.8z"/>
	<path fill="#F7E9E2" d="M231.1,386.9c-0.6-7.4,1.5-14.9,4.9-21.5c-3,2.1-5.3,5-6.7,8.4c-2.1-2.5-3.5-6.4-5.7-8.4
		c-1.1,2.6,1.4,8.4,2.4,11.1c0.7,1.9,1.5,3.7,2.3,5.5C229,383.2,231,385.5,231.1,386.9z"/>
	<path fill="#F7E9E2" d="M299.4,378.1c-0.6-7.4,1.5-14.9,4.9-21.5c-3,2.1-5.3,5-6.7,8.4c-2.1-2.5-3.5-6.4-5.7-8.4
		c-1.1,2.6,1.4,8.4,2.4,11.1c0.7,1.9,1.5,3.7,2.3,5.5C297.2,374.5,299.3,376.8,299.4,378.1z"/>
	<path fill="#F2881D" d="M206.7,437c0.7,0.4,34.9,15.3,58.1,15.3c40.1,0,61.2-17.3,60.8-17.1c-0.4,0.3-29.3,12.8-59.2,11.9
		C236.4,446.1,206.7,437,206.7,437z"/>
	<path fill="#60423E" d="M126.7,397.3c-7.2-6.3-19.1-10.6-17-19.8c1.7-3.8,6.2-3.6,8.1-3.7c-1.2-2.5-2.7-6.4,1-8.7
		c3.5-2.1,6.7,0.1,8.6,2.1c-0.1-1.7-0.3-6.7,3.8-7.7c6.6-2.5,11.3,10.2,12.9,13.9c10.6,23.7,28.5,43.2,44.3,63.8
		c5.3,6.9,13.9,21.1,3.6,27.8c-7.4,4.8-17.4-1.4-22.2-7c-7.9-9.4-11.6-22.7-18.5-32.9C144.3,414.8,136.1,405.4,126.7,397.3z"/>
	<path fill="#60423E" d="M408.3,390.3c6.8-6.6,18.5-11.6,16-20.7c-1.9-3.7-6.3-3.2-8.3-3.2c1.1-2.6,2.4-6.5-1.4-8.6
		c-3.6-2-6.7,0.4-8.5,2.6c0-1.7,0-6.7-4.2-7.5c-6.7-2.2-10.7,10.8-12.1,14.5c-9.4,24.2-26.2,44.6-40.9,66c-4.9,7.2-12.8,21.7-2.1,28
		c7.6,4.5,17.3-2.2,21.8-8.1c7.4-9.8,10.4-23.3,16.8-33.9C391.7,408.7,399.4,399,408.3,390.3z"/>
	<path fill="#60423E" d="M283.2,145.7c4.1-3.8,15.4-6.8,22.5-4.5c2.1,0.7,11.6,3.3,13.6,2.4c0.7-0.3,1.5-0.8,2.2-0.7
		c1,0.1,1.6,1.2,1.6,2.2c0,1-0.5,1.9-1,2.7c-1.3,2.3-2.7,4.6-4.2,6.8c-4.7-3.8-11.7-5.1-18.5-3.7c-20,4.1-22.4,20.3-22.3,29.9
		c0,0.7-1,0.9-1.2,0.2c-0.5-1.6-0.9-3.2-1-4C274.5,173,272.7,155.4,283.2,145.7z"/>
	<path fill="#F7E9E2" d="M159.9,249.1c3.6-5.8,8.6-10.9,14.5-14.7c-4.2,6.2-7.4,12.9-9.3,19.8c6.2-8.1,14.5-17.7,24.1-21.4
		c-4.6,8.3-8.9,20.2-8.6,29.1c7.3-18.4,23.5-39.5,40.5-51.4c-1.9,1.3-27.1-3.9-48.9,18.6C165.9,235.4,160.9,243.8,159.9,249.1z"/>
	<path fill="#60423E" d="M181.4,187c-5.4,1.4-13.4,6.3-15.9,16.5c-0.5,2.1-3.6,11.5-5.4,12.8c-0.7,0.4-1.5,0.8-1.8,1.5
		c-0.4,0.9,0.2,2,1,2.5c0.8,0.5,1.9,0.6,2.8,0.7c2.7,0.2,5.3,0.2,8,0.2c-0.6-6.1,2.1-12.6,6.9-17.5c14.3-14.6,29.2-7.9,37.2-2.6
		c0.6,0.4,1.3-0.4,0.8-0.9c-1.1-1.3-2.2-2.5-2.8-3C209.1,194.4,195.3,183.5,181.4,187z"/>
	<path fill="#F7E9E2" d="M283.4,200.8c-5.4-5.6-16.7-4.1-19-4.1c-2.9,0-5.7,1-8.3,1.9c-10.4,3.8-24.1,11.8-24.2,11.8
		c0,0-8.4,4.7-9.6,13.1c-0.7,4.6,1.1,9.5,5.3,12.4c3.3,2.2,7.8,3,12.1,3.2c13.9,0.7,33.4-5.4,41.9-15.6
		C288.2,215.5,287.8,205.3,283.4,200.8z"/>
	<path fill="#60423E" d="M268.6,196.8c-1.5-2-3.9-3.2-6.4-3.6c-2.5-0.4-5,0-7.5,0.7c-2.7,0.7-13.3,4.5-15.8,5.7
		c-2.3,1.1-4.5,2.4-6.2,4.3c-1.7,1.9-2.8,4.4-2.6,6.9c0.2,2.5,1.9,5,4.3,5.7c1.2,0.3,2.5,0.3,3.7,0.4c1.6,0.2,3.2,0.7,4.6,1.5
		c1.7,1,3,2.5,4.8,3.3c2.6,1.3,5.7,1.2,8.6,0.6c2.6-1.3,5.1-3.3,6.2-6c0.8-1.8,0.9-3.8,1.5-5.6c0.5-1.5,1.4-3,2.5-4.1
		c0.9-0.9,1.9-1.6,2.6-2.7C270.3,201.8,270,198.8,268.6,196.8z"/>
	<path fill="#FFFFFF" d="M235.3,207.4c-0.2,1.3,0.7,2.8,2,3c0.9,0.1,1.7-0.4,2.3-1c0.6-0.6,1.1-1.4,1.6-2c1.7-2,4.3-3.2,6.7-4.2
		c0.7-0.3,1.4-0.6,1.9-1.1c0.5-0.5,0.8-1.4,0.4-2c-1.2-2.1-6.7,0.1-8.3,0.8C239.5,202.2,235.6,204.4,235.3,207.4z"/>
	<path fill="#60423E" d="M242.3,250.5c0,0,18.2,0.1,27.3-3.6c12.7-5.1,22.1-15.8,22.1-15.8s-6.4,16.5-19.2,21.2
		C260.3,256.8,242.3,250.5,242.3,250.5z"/>
	<path fill="#FFA912" d="M318.3,337.3c0.6-20.2-1.4-40.5-5.8-60.2c3.7,5.4,8.6,9.8,12.7,14.8c11,13.4,16.1,30.8,17.7,48.1
		c0.7,7.7,0.7,15.6-1.6,22.9c-2.3,7.4-7.1,14.2-14.1,17.6c-2.1,1-4.6,1.7-6.7,0.5c-5.1-2.8-6.7-13.4-5.9-18.7
		C315.9,353.8,318.1,346,318.3,337.3z"/>
	<path fill="#F2881D" d="M343.2,340c-1.2-13.2-4.5-26.6-10.9-38.1c4,9.6,6.2,20,7.1,30.3c0.7,7.7,0.7,15.6-1.6,22.9
		c-2.3,7.4-7.1,14.2-14.1,17.6c-2.1,1-4.6,1.7-6.7,0.5c-0.5-0.3-1-0.7-1.5-1.1c0.9,3.8,2.6,7.4,5.2,8.9c2,1.1,4.6,0.5,6.7-0.5
		c7-3.3,11.8-10.2,14.1-17.6C343.9,355.6,343.9,347.7,343.2,340z"/>
	<path fill="#F2881D" d="M314.1,353c0.1-3.6,0.9-7.1,1.6-10.6c0.8-4.3,1.4-8.7,1.2-13.1c-0.3-5.1-1.6-10.1-3.8-14.6
		c5.4,7.7,8.6,17.6,6.3,26.8c-0.5,2.2-1.4,4.3-1.9,6.5c-1.2,4.9-0.7,9.6-0.8,14.5C314.1,362.2,314.1,354.9,314.1,353z"/>
	<path fill="#60423E" d="M286.2,398.3c-3.3,2.2-10.2,1.4-10.2,6.2c-0.6,4.7,4.3,4.7,6.8,4.5c-1.9,0.6-4,1.3-5.4,2.7
		c-1.5,1.4-2.2,3.8-1.1,5.5c1.5,2.4,5.1,1.8,7.8,1c-2.4,0.4-6.3,2-5.1,4.5c1.5,2.4,4.9,2.9,7.5,1.8c2.6-1,4.6-3.1,6.4-5.2
		c10-11,20.1-22,30.1-32.9c3.3-3.6,6.3-7.5,8.5-11.8c1.8-3.5,0.6-8.1-2-12.3c-7.7-12.8-12.7-2.9-14-0.7
		C309.6,372.1,296.2,391.6,286.2,398.3z"/>
	<path fill="#F2881D" d="M347.8,400.6c1.9-0.1-10.4,32.4-8.9,52.5c-3.9-3.1-12.5-7.4-17.4-8.1c-3.5-0.5-7-0.6-10.5-0.5
		c-1.4,0-16.4,1.3-15.2,0.7c7.1-3.2,17.7-10,19.5-11.1C334.7,421.9,345.1,398.4,347.8,400.6z"/>
	<path fill="#F2881D" d="M211.2,447.6c8-2.6,23.6-1.5,31.9,0c-10.1-1.3-23.9-8.9-34.4-17.1c-8.1-6.3-12.6-16.1-17.5-25.1
		c-1.3-2.4-2.6-4.8-4.4-6.9c-0.4-0.4-0.9-0.8-1.4-0.7c-1.1,0.2-0.9,1.8-0.4,2.7c4.6,10,8.6,20.3,11.9,30.8
		c1.6,5.2,3.1,10.4,4.4,15.7c0.8,3.1,0.6,6.5,0.6,6.5S206.1,449.3,211.2,447.6z"/>
	<path fill="#F2881D" d="M182.8,348.1c0,0,0.1-0.5,0.4-1.3c0.9-3.1,5.5-20.4,7.3-25.7c2.3-6.7,10.4-8.1,10.4-8.1l-20,42.9
		L182.8,348.1z"/>
	<path fill="#382624" d="M116.5,369.5c0.1,2.7,3.9,11.7,7.1,7.7c1.4,2.1,3,3.3,5.8,2.8c2.3-0.4,5-2.8,4-5.4c2.6,2,6,1.2,6.7-2.3
		c0.7-3.6-1.5-6.1-3.2-9c-1-1.7-1.5-3-3.5-3.6c-2.3-0.7-6.2-0.9-8.5-0.1c-2.4,0.9-5.2,2.6-6.9,4.7c-1.4,1.7-1,3.1-1.4,5.1
		C116.8,369.3,116.8,369.1,116.5,369.5z"/>
	<path fill="#875D59" d="M135.3,361.9c0.1,1.5,0.4,3,0.3,4.5c-0.1,1.5-0.7,3.1-2,3.9c-1.3,0.8-3.3,0.5-3.9-0.9
		c0.4,2.3-1.1,4.9-3.4,5.4c-2.3,0.5-4.9-1.7-4.4-4c-0.7,1.2-2.4,1.6-3.7,1c-1.3-0.6-2.1-1.9-2.4-3.3c-0.3-1.4-0.1-2.8,0.1-4.2
		c1.1-7.4,3.6-14.7,8.2-20.6c4-5.2,9.8-9.9,11-10.5c5.8-3.3,9.9,1.7,10.3,4.8c0.3,2.2-0.7,3.7-4.1,6.3
		C136.1,348.2,134.7,355.7,135.3,361.9z"/>
</g>
</svg>
