<?xml version="1.0" encoding="utf-8"?>
<!-- Generator: Adobe Illustrator 17.1.0, SVG Export Plug-In . SVG Version: 6.00 Build 0)  -->
<!DOCTYPE svg PUBLIC "-//W3C//DTD SVG 1.1//EN" "http://www.w3.org/Graphics/SVG/1.1/DTD/svg11.dtd">
<svg version="1.1" id="Layer_1" xmlns="http://www.w3.org/2000/svg" xmlns:xlink="http://www.w3.org/1999/xlink" x="0px" y="0px"
	 width="307.6px" height="513.4px" viewBox="0 0 307.6 513.4" enable-background="new 0 0 307.6 513.4" xml:space="preserve">
<g>
	<path fill="#FFA912" d="M56.2,261.8c4-22.7,23.8-41.7,46.6-44.8c1.4-0.2,2.9-0.3,4.2,0.2c2,0.7,3.3,2.6,3.9,4.6
		c1.6,4.8,0.3,10.1-2.3,14.4c-2.6,4.3-6.5,7.6-10.3,10.9c-9,7.6-18.4,14.7-28,21.5c-2.7,1.9-7.1,6.1-10.7,5
		C55.1,272.1,55.6,265.3,56.2,261.8z"/>
	<path fill="#F2881D" d="M90.5,254.8c-5.1,0.3-9.9,2.4-14.6,4.4c1.5-0.6,3.7-7.8,4.6-9.4c1.7-3.2,3.5-6.3,5.5-9.4
		c3.6-5.7,7.9-13.1,13.2-17.2c0.8,3.6-3.6,11.1-4.8,15C92.8,243.7,91.5,249.2,90.5,254.8z"/>
	<path fill="#60423E" d="M213.5,493c1.3,0,5.6,0.5,7,3.1c0.5,1,1.2,2.5,0.6,3.8c1.5,1.5,0.2,4.6-0.2,5.1c-1.2,1.1-1.1,1-3.3,1.2
		c0.6,0.3,0.1,3.3-1.7,4.4c-3.3,1.9-8.8,0.5-12.4-0.6c-6-1.8-6.6-5.5-7.1-8c-0.5-2.5-0.2-5.2,0.3-7.7c0.3-1.8,0.8-3.7,2.1-5
		c1.2-1.3,3-1.9,4.8-1.9c2.1,0.1,7.7-1.4,7.6,0.9C211,489.3,209.8,492.9,213.5,493z"/>
	<path fill="#60423E" d="M210.8,497.4c0,1,0,2.2-0.6,3.1c-0.9,1.6-3,2.1-4.9,2.4c-1.7,0.3-3.4,0.5-5-0.1c-1.7-0.7-2.9-2.3-3.5-4.1
		c-0.6-1.7-0.7-3.6-0.7-5.5c-0.4-15.3,0.2-30.7-1.4-46c-0.4-3.6-0.8-7.5,1.2-10.5c1.5-2.3,4.2-3.5,6.8-4.3c3-0.9,6.3-1.3,9.1,0
		c7.7,3.4,2.9,15.6,2.2,21.7c-1.2,9.2-2.1,18.5-2.6,27.8C211.1,487,210.9,492.2,210.8,497.4z"/>
	<path fill="#382624" d="M217.5,506.1c0,0-0.1-2.9-2.6-4c-2.5-1.1-3.8-1.3-3.8-1.3s2.5-0.9,5.3,0.6c2.8,1.5,3.1,4.5,3.1,4.5
		L217.5,506.1L217.5,506.1z"/>
	<path fill="#382624" d="M221,499.9c0,0-1.1-1.3-2.4-1.9c-1.8-0.8-4.3-1-4.3-1s1.9-0.3,3.6,0.1c2.3,0.4,3.4,1.5,3.4,1.5
		s0,0.3-0.1,0.8C221.1,499.7,221,499.9,221,499.9L221,499.9z"/>
	<path fill="#FFA912" d="M216.4,438.2c-8,7.1-20.1,6.1-21.6,4.7c-1.1-1.1-1.8-2.4-2.3-3.8c-3.8-9.1-6.5-18.5-10.6-27.5
		c-4.1-9-10.1-11.5-23.8-12.4c-4.9-0.3,0-21.9,0.9-23c5.8-7.4,15.1-12.1,23.5-17.2c13.2-8,25.1-17.5,35.3-28.3
		c5.4-5.7,12.6-7,16,4.3C236.5,343.9,220.1,434.9,216.4,438.2z"/>
	<path fill="#60423E" d="M105.9,495.3c-1.3,0.2-5.5,1-6.7,3.7c-0.5,1-1,2.6-0.2,3.8c-1.3,1.6,0.2,4.6,0.7,5c1.2,1,1.1,0.9,3.4,0.9
		c-0.6,0.4,0.1,3.3,2.1,4.2c3.5,1.6,8.8-0.3,12.3-1.7c5.8-2.3,6.1-6,6.4-8.6c0.3-2.6-0.3-5.2-1-7.6c-0.5-1.8-1.1-3.6-2.5-4.8
		c-1.3-1.2-3.2-1.7-5-1.5c-2.1,0.3-7.8-0.7-7.5,1.5C108,491.3,109.6,494.8,105.9,495.3z"/>
	<path fill="#60423E" d="M109,499.4c0.1,1,0.2,2.1,0.8,3c1.1,1.5,3.2,1.8,5,1.9c1.7,0.1,3.5,0.2,5-0.5c1.7-0.8,2.7-2.6,3.1-4.3
		c0.4-1.8,0.3-3.7,0.2-5.5c-1-15.3-2.9-30.6-2.6-45.9c0.1-3.6,0.2-7.5-2.1-10.4c-1.7-2.1-4.5-3.1-7.2-3.7c-3-0.6-6.3-0.7-9.1,0.8
		c-7.4,4-1.6,15.8-0.3,21.8c2,9.1,3.7,18.3,5.1,27.5C107.8,489.1,108.4,494.2,109,499.4z"/>
	<path fill="#FFA912" d="M98.6,444.9c8.9,6.2,20.8,3.9,22.1,2.4c1-1.2,1.4-2.6,1.8-4c2.5-9.4,3.9-19.1,6.7-28.5
		c2.8-9.4,10.5-13.3,24-15.7c4.8-0.8-5.1-20.9-6.2-21.9c-6.8-6.7-16.6-10.4-25.7-14.6c-14.2-6.5-27.3-14.7-39-24.3
		c-6.1-5-13.5-5.6-15.3,5.9C65.6,353.3,94.4,442,98.6,444.9z"/>
	<path fill="#FFA912" d="M204.5,230.1c-8.8-24.3-9.5-38.8-9.5-38.8l-44.4,15.3l-44.4-15.3c0,0-0.7,14.5-9.5,38.8
		c-8.8,24.3-41.1,89.6-26.6,130.4c6.1,17.3,45.9,37.1,83.1,38.6c41.7,1.7,71.7-16.1,77.7-34.7C244.1,323.1,213.3,254.4,204.5,230.1z
		"/>
	<path fill="#F2881D" d="M163.2,236.8c9.9-2.2,18.4-8.6,26.1-15.2c3.6-3.1,7.4-6.6,8.4-11.3c0.1-0.6,0.2-1.2,0.2-1.8
		c-0.6-2.4-1.1-4.7-1.5-6.6c-1.9-3.7-5.2-6.7-9-8.5c-0.1-0.1-0.3-0.1-0.4-0.2l-36.7,12.6l-37-12.7c-2.7,1.1-5.9,2.6-8.3,4.7
		c-0.4,2.7-1.1,6.1-2.1,10.1c2.1,4.3,6.6,8.8,9.4,11.6c4.4,4.5,9.6,8.3,15.2,11.2c6.2,3.3,12.9,5.5,19.9,6.4
		C152.7,238,158,238,163.2,236.8z"/>
	<path fill="#FCD8BE" d="M111,259.2c-4.1,11.9-7,24.1-8.8,36.5c-2.2,15.5-1.9,33.3,9.2,44.3c8.5,8.5,21.3,10.7,33.3,11.8
		c9.6,0.9,19.4,1.2,28.8-0.9c9.4-2.1,18.5-6.9,24.2-14.7c8.5-11.6,8-27.7,3.5-41.4c-4.5-13.7-12.3-26-17.8-39.2
		c-4.6-11.1-7.6-22.9-8.7-34.9c-0.3-2.9,0.4-14.8-2-16.5c-1.6-1.1-46.3-5.4-49.7,2.8c-1.2,3-0.6,15.4-1.2,18.7
		c-0.7,3.8-1.7,7.4-2.8,11.1C116.6,244.4,113.6,251.7,111,259.2z"/>
	<path fill="#EFC8AC" d="M175.7,231.4c-0.7-3.5-1.2-7.1-1.5-10.7c-0.3-2.9,0.4-14.8-2-16.5c-0.5-0.4-5.7-1.1-12.6-1.6l-9.5,3.3
		l-10.7-3.7c-8.5,0.4-15.6,1.7-16.8,4.7c-1.2,3-0.6,15.4-1.2,18.7c-0.1,0.5-0.2,1-0.3,1.4c2,1.4,4,2.6,6.2,3.7
		c6.2,3.3,12.9,5.5,19.9,6.4c5.2,0.7,10.6,0.7,15.7-0.5C167.4,235.8,171.6,233.8,175.7,231.4z"/>
	<path fill="#60423E" d="M3.9,23.9C0.6,17.4-2.2,8.7,2.4,3.4c3.7-4.2,10-3.6,15.3-2.8c12.5,2,25,4,37.6,5.9c12.7,2,25.8,4.2,37,11.1
		c11.2,6.9,20.2,19.9,19.2,33.5c-1.1,14.4-12.6,25.1-24.1,32.5c-6.4,4.2-13.1,7.9-20.1,11.1c-16.8,7.8-24.9-9.4-34.2-22.3
		C22.2,57.2,12.4,40.9,3.9,23.9z"/>
	<path fill="#FFA912" d="M36.8,68.2c-7.9-10-14.2-21.5-18.2-33.6C17,29.9,16,24.1,19.5,20.7c1.4-1.4,3.3-2.1,5.1-2.7
		c15.7-4.8,29.7-3.4,44.7,3.4c9.9,4.5,13,14.2,16.9,16.6c5,3.1,8.8-4.8,9.9,1c1.2,5.7-0.1,12-3.5,16.7c-2.4,3.3-5.6,5.9-8.9,8.4
		c-6.6,5-13.3,9.6-20.3,14c-4.4,2.8-3.9,14.7-8.7,11.6C49.8,86.4,40.4,72.8,36.8,68.2z"/>
	<path fill="#FCD8BE" d="M60.1,73.1c4.6-6.7,10-12.8,16.1-18.1c3-2.6,6.3-5.1,8.9-8.1c2-2.4,3.7-5.2,4.3-8.3c-1,0.1-2.1,0-3.2-0.7
		c-3.9-2.4-7-12.1-16.9-16.6c-7-3.2-13.7-5.2-20.5-5.9c-3.2,1-6.3,1.8-9.3,3.7c-1.6,1-3.1,2.2-4.5,3.5c-0.8,0.8-2.7,4.1-3.7,4.4
		c2.6-0.8,5.4-1,8-0.6c-3,3.5-4.5,8.1-4.2,12.7c5.3-1.8,11.3-1.8,16.6,0.1c-2.5,1.9-5,3.8-7.4,5.7c1.7,0.1,3.4,0.2,5.1,0.3
		c-4.2,1.9-7.8,5-10.2,8.9c2.9,0.5,5.8,1.4,8.5,2.7c-2.1,1.5-3.8,3.5-4.8,5.8C49.7,63.4,56.2,67.3,60.1,73.1z"/>
	<path fill="#60423E" d="M303.3,24.2c3.4-6.4,6.5-15,2.1-20.4c-3.5-4.3-9.8-3.9-15.2-3.3c-12.6,1.6-25.2,3.2-37.7,4.8
		c-12.8,1.6-25.9,3.4-37.4,9.9c-11.4,6.6-20.8,19.2-20.2,32.9c0.7,14.5,11.9,25.4,23.1,33.3c6.3,4.4,12.9,8.3,19.7,11.7
		c16.5,8.3,25.1-8.6,34.8-21.3C284,56.9,294.3,41,303.3,24.2z"/>
	<path fill="#FFA912" d="M269.1,67.5c8.3-9.8,14.8-21,19.3-33c1.7-4.6,2.9-10.4-0.5-14c-1.3-1.4-3.2-2.2-5-2.8
		c-15.6-5.3-29.6-4.3-44.7,2c-10,4.2-13.4,13.8-17.4,16c-5.1,2.9-8.6-5-10,0.7c-1.4,5.7-0.2,12,3,16.8c2.3,3.4,5.4,6.1,8.6,8.6
		c6.4,5.2,13,10,19.8,14.7c4.3,2.9,3.5,14.8,8.3,11.8C255.5,85.3,265.3,72,269.1,67.5z"/>
	<path fill="#FCD8BE" d="M246.5,71.8c-4.6-6.7-10-12.8-16.2-18c-3-2.6-6.3-5.1-8.9-8.1c-2-2.4-3.7-5.2-4.3-8.2c1,0.1,2.1,0,3.2-0.7
		c3.9-2.4,7-12.1,16.9-16.6c7-3.2,13.7-5.2,20.5-6c3.2,1,6.3,1.8,9.3,3.7c1.6,1,3.1,2.2,4.5,3.5c0.8,0.8,2.7,4.1,3.7,4.4
		c-2.6-0.8-5.4-1-8-0.5c3,3.5,4.6,8.1,4.2,12.7c-5.3-1.8-11.3-1.8-16.6,0.1c2.5,1.9,5,3.8,7.4,5.7c-1.7,0.1-3.4,0.2-5.1,0.3
		c4.2,1.9,7.8,5,10.2,8.9c-2.9,0.5-5.8,1.4-8.5,2.7c2.1,1.5,3.8,3.5,4.8,5.8C256.8,62.1,250.3,66.1,246.5,71.8z"/>
	<path fill="#FCD8BE" d="M209.8,25.5c-30.9-9-60.5-7.1-60.5-7.1s-29.6-1.9-60.5,7.1c-30.9,9-55.9,44.9-51.4,77.2
		c3.1,22.1,10.9,60.3,35.9,85.6c25,25.4,77.2,36.4,77.2,36.4s49.7-11,74.7-36.4c25-25.4,32.8-63.6,35.9-85.6
		C265.7,70.4,240.7,34.5,209.8,25.5z"/>
	<path fill="#FCD8BE" d="M23,160c4.7,0.7,9.5,1.4,14.2,2.1c-2.5,4.5-5.6,8.6-9,12.4c5.8,0.6,11.6,0.9,17.4,0.7
		c-1.2,4.4-4.4,8.2-8.5,10.1c25.4,12.3,52.8,20.4,80.7,24c5,0.6,10.7,1,14.6-2.3c3.4-2.9,4.3-8,3.3-12.4c-1-4.4-3.6-8.2-6.3-11.9
		c-14.1-19.1-31.8-35.2-49.2-51.3c-5-4.6-10.1-9.2-16.1-12.3c-4.1-2.1-13-5.5-17.1-1.6c-3.1,2.9-2.1,10.1-2.9,13.9
		c-1.3,6-3.9,11.8-7.6,16.7C34.4,150.8,26.8,160.5,23,160z"/>
	<path fill="#FCD8BE" d="M277.2,159.1c-4.7,0.8-9.4,1.5-14.2,2.3c2.6,4.4,5.7,8.5,9.2,12.3c-5.8,0.7-11.6,1-17.4,0.9
		c1.2,4.4,4.5,8.2,8.7,10c-25.2,12.6-52.5,21.1-80.4,25c-5,0.7-10.7,1.1-14.6-2.1c-3.5-2.9-4.4-8-3.5-12.4c1-4.4,3.5-8.3,6.2-11.9
		c13.9-19.2,31.3-35.6,48.6-51.9c4.9-4.6,9.9-9.3,15.9-12.5c4.1-2.2,12.9-5.6,17.1-1.8c3.1,2.9,2.2,10.1,3.1,13.9
		c1.4,6,4.1,11.7,7.8,16.6C265.6,150.1,273.4,159.7,277.2,159.1z"/>
	<g>
		<path fill="#60423E" d="M70.2,104.6c6.1-3.6,11.2-5.3,18.4-5.2c7.1,0.1,14.4,2.3,19.6,7.3c4.7,4.5,7.2,10.8,9.6,16.9
			c1.3,3.4,2.6,6.8,3.5,10.3c0.1,0.6,0.2,1.4-0.2,1.9c-0.3,0.3-0.7,0.4-1,0.5c-3.4,0.9-6.9,1.2-10.4,1.3
			c-12.6,0.5-26.1-1.2-36.1-8.9c-5.5-4.2-9.6-10-13.3-15.8c-0.9-1.5-1.9-3-2.7-4.5c-0.8-1.4-1.4-2.2,0.3-2.5
			C59.4,105.5,63.1,108.8,70.2,104.6z"/>
		<path fill="#FFFFFF" d="M74.9,106.3c3.6-3.4,10.9-4.9,14.1-4.8c24.3,1,29.4,27.3,27.8,32.1c-0.9,2.7-13.5,2.8-15.8,2.7
			c-6.3-0.2-23.6-2.8-29.1-12.2C70.3,121.4,68,112.8,74.9,106.3z"/>
		<path fill="#EDEDED" d="M116.8,129.3c-0.9,2.7-13.5,2.8-15.8,2.7c-6.3-0.2-23.6-2.8-29.1-12.2c-0.5-0.9-1.2-2.6-1.5-4.6
			c-0.6,4.1,0.5,7.8,1.5,9.4c5.5,9.4,22.8,12,29.1,12.2c2.3,0.1,14.9,0,15.8-2.7c0.3-1,0.4-2.8,0.1-5.1
			C116.9,129.2,116.9,129.3,116.8,129.3z"/>
		<g>
			<circle fill="#231F20" cx="94.4" cy="119.2" r="17.2"/>
			<path fill="#FFFFFF" d="M82.9,113.4c-0.2,0.9-0.4,1.8-0.1,2.7c0.2,0.9,0.9,1.7,1.7,2c1.1,0.4,2.4-0.2,3.3-0.9
				c0.9-0.8,1.6-1.8,2.5-2.6c0.9-0.8,1.9-1.3,3.1-1.6c1.2-0.3,2.5-0.3,3.4-1.1c1-1,0.8-2.7-0.1-3.8
				C92.4,103.6,84.2,108.6,82.9,113.4z"/>
		</g>
	</g>
	<g>
		<path fill="#60423E" d="M228.3,107.1c-6-3.8-11-5.8-18.1-6c-7.1-0.2-14.5,1.8-19.8,6.5c-4.9,4.3-7.6,10.5-10.3,16.5
			c-1.5,3.3-2.9,6.7-3.9,10.2c-0.2,0.6-0.3,1.4,0.1,1.9c0.3,0.3,0.6,0.4,1,0.5c3.3,1,6.8,1.5,10.3,1.7c12.6,1,26.1-0.1,36.4-7.4
			c5.7-4,10-9.6,13.9-15.3c1-1.4,2-2.9,2.9-4.4c0.8-1.4,1.5-2.1-0.2-2.5C239.1,108.4,235.3,111.6,228.3,107.1z"/>
		<path fill="#FFFFFF" d="M223.6,108.7c-3.5-3.6-10.7-5.3-13.9-5.3c-24.3,0-30.5,26.1-29,30.9c0.8,2.8,13.3,3.3,15.7,3.3
			c6.3,0,23.7-1.9,29.6-11C227.6,123.9,230.2,115.4,223.6,108.7z"/>
		<path fill="#EDEDED" d="M180.8,130c0.8,2.8,13.3,3.3,15.7,3.3c6.3,0,23.7-1.9,29.6-11c0.6-0.9,1.3-2.5,1.7-4.5
			c0.5,4.1-0.8,7.8-1.9,9.4c-5.9,9.1-23.3,11-29.6,11c-2.3,0-14.9-0.6-15.7-3.3c-0.3-1-0.3-2.8,0.1-5.1
			C180.7,129.8,180.7,129.9,180.8,130z"/>
		<g>
			<circle fill="#231F20" cx="205.7" cy="120.1" r="16.9"/>
			<path fill="#FFFFFF" d="M217.2,115c0.2,0.9,0.3,1.8,0,2.7c-0.3,0.9-0.9,1.6-1.8,1.9c-1.1,0.3-2.3-0.3-3.2-1.1
				c-0.8-0.8-1.5-1.8-2.3-2.6c-0.8-0.8-1.9-1.4-3-1.7c-1.2-0.3-2.5-0.3-3.3-1.2c-0.9-1-0.7-2.7,0.3-3.7
				C208.3,105,216.1,110.2,217.2,115z"/>
		</g>
	</g>
	<path fill="#EFC8AC" d="M90.8,89.1c26.3,5.6,41,36.8,46.6,48.9c0.9,1.9,2.3,4.2,4.4,3.8c4.7-15.8-2.8-32.7-12.3-46.1
		c-3.9-5.5-8.2-10.7-13.7-14.5c-14.5-10.1-34.4-8.5-50.5-1.4c-5,2.2-27,24.2-13.1,16.3C63.4,89.6,77.6,86.3,90.8,89.1z"/>
	<path fill="#EFC8AC" d="M207.7,87.3c-26.5,4.9-41.9,35.7-47.9,47.6c-0.9,1.9-2.4,4.1-4.5,3.7c-4.2-15.9,3.6-32.6,13.5-45.7
		c4-5.3,8.5-10.5,14.1-14.2c14.7-9.7,34.6-7.5,50.6-0.1c4.9,2.3,26.3,24.9,12.7,16.6C235,88.6,220.9,84.9,207.7,87.3z"/>
	<path fill="#F7E9E2" d="M253.2,142.5c-5.7-1.1-11.9-1.2-17.9-0.2c6.3,1,12.2,2.8,17.5,5.3c-8.7-1-19.7-1.7-28,1.2
		c7.7,1.9,17.4,5.8,22.3,10.4c-15.4-5.6-38.1-8.2-56-5.7c2-0.3,15.5-15.5,42.6-15C241.4,138.6,249.5,140.3,253.2,142.5z"/>
	<path fill="#F7E9E2" d="M48,145.1c5.5-1.7,11.7-2.5,17.8-2.2c-6.1,1.7-11.8,4.2-16.8,7.2c8.5-2,19.4-3.9,28-1.9
		c-7.5,2.8-16.7,7.7-21,12.8c14.6-7.3,36.9-12.4,55-11.9c-2-0.1-17.1-13.6-44-10.2C59.3,139.9,51.4,142.5,48,145.1z"/>
	<path fill="#382624" d="M103.1,508.6c0,0-0.1-2.9,2.2-4.3c2.4-1.3,3.7-1.6,3.7-1.6s-2.6-0.7-5.2,1.1c-2.6,1.8-2.6,4.8-2.6,4.8
		L103.1,508.6L103.1,508.6z"/>
	<path fill="#382624" d="M99,502.8c0,0,1-1.4,2.2-2.1c1.7-0.9,4.2-1.4,4.2-1.4s-1.9-0.1-3.6,0.4c-2.3,0.6-3.2,1.8-3.2,1.8
		s0,0.3,0.2,0.8C98.9,502.6,99,502.8,99,502.8L99,502.8z"/>
	<path fill="#F2881D" d="M210.2,257.9c0,0,4.3,8.3,8.1,18.6c3.8,10.3,13.5,39.9,13.4,39.3c-0.1-0.6-4.1-24.4-6.5-32.8
		c-2.4-8.4-4.8-18.3-4.8-18.3L210.2,257.9z"/>
	<path fill="#F2881D" d="M77.1,280.8c0,0-4.1,9.2-6.9,20.4c-2.7,10.9-3.8,29.8-3.8,29.8s3.8-19.8,9.3-33.8
		c5.5-13.9,11.2-29.5,11.2-29.5L77.1,280.8z"/>
	<path fill="#F2881D" d="M227.8,389.3c-3.1,11.4-6.3,22.8-9.4,34.2c-1.2,4.2-2.5,8.7-5.7,11.7c-4.4,4.1-10.5,3.9-16.1,3.3
		c-1.5-0.2-2.8-0.1-3.9,0.2c0.1,0.2,0.2,0.4,0.2,0.6c0.6,1.4,1.2,2.8,2.3,3.8c1.4,1.3,13.5,2.4,21.6-4.7
		C218.7,436.7,223.6,413.4,227.8,389.3z"/>
	<path fill="#F2881D" d="M80.6,396.6c3.1,11.4,18.8,41,22,44c4.4,4.1,14.7,5.9,19.8,2.6c0,2.3-1,4.6-3.1,5.7
		c-1.7,0.9-13.2,3.6-21.2-3.5C96.3,443.8,87.6,421.6,80.6,396.6z"/>
	<path fill="#FFA912" d="M207.1,24.1c31.2,8,57.3,43.1,53.8,75.5c-0.5,4.5-4.4,25-5.3,30.6c0,0,4.3-46.9-36.7-51.2
		c-26-2.7-39.3,7.1-47.1,25.4c-6.9,16.3-9.3,56.4-9.3,56.4l-16.1,0.1v-142C146.4,18.9,175.9,16.1,207.1,24.1z"/>
	<path fill="#E08119" d="M226.7,53.2c1.6,1,3.3,2.8,2.6,4.5c-0.7,1.7-3,1.9-4.9,1.6c-3.7-0.6-7.4-1.8-11.2-2.1
		c-3.6-0.3-7.3,0.2-10.9-0.1c-1.1-0.1-2.5-0.5-2.7-1.6c-0.1-0.4,0-0.8,0.2-1.1c0.7-1.8,2.4-3.1,4.2-3.7
		C211.4,48,220.1,49.2,226.7,53.2z"/>
	<path fill="#FFA912" d="M88.8,25.6c-30.9,9-55.9,44.9-51.4,77.2c0.6,4.5,5.1,24.8,6.3,30.4c0,0-5.8-46.7,35-52.3
		c25.9-3.6,39.5,5.9,47.9,23.9c7.4,16.1,11.1,56.1,11.1,56.1l18.2-0.1l-6.6-142.3C149.3,18.5,119.7,16.7,88.8,25.6z"/>
	<path fill="#E08119" d="M73.2,55.5c-1.6,1-3.3,2.7-2.6,4.5c0.7,1.7,3,1.8,4.8,1.5c3.7-0.6,7.3-1.8,11-2.2c3.6-0.3,7.2,0.2,10.8-0.2
		c1.1-0.1,2.5-0.5,2.6-1.6c0.1-0.4-0.1-0.8-0.2-1.1c-0.7-1.8-2.4-3-4.2-3.6C88.2,50.2,79.7,51.5,73.2,55.5z"/>
	<path fill="#FFB845" d="M101.6,30.7c-1.9,0.6-3.8,1.2-5.3,2.4c-1.5,1.2-2.6,3.2-2.2,5.1c0.5,2.3,3,3.8,5.4,3.9
		c2.4,0.1,4.7-0.8,6.9-1.5c7.8-2.6,16-4,24.3-3.9c7.3,0.1,14.8,1.2,21.9-0.8c3.6-1,7.5-3.8,7-7.5c-0.3-2.3-2.2-4.1-4.4-4.9
		c-2.1-0.8-4.5-0.8-6.8-0.8C132.4,22.8,116.9,25.8,101.6,30.7z"/>
	<path fill="#F7E9E2" d="M126.6,280.9c-0.7-9.1,1.8-18.2,6-26.3c-3.6,2.6-6.5,6.2-8.2,10.3c-2.5-3-4.2-7.9-6.9-10.3
		c-1.3,3.2,1.7,10.2,2.9,13.5c0.8,2.3,1.8,4.5,2.8,6.7C124,276.4,126.5,279.2,126.6,280.9z"/>
	<path fill="#F7E9E2" d="M159.7,265.8c-0.7-9.1,1.8-18.2,6-26.3c-3.6,2.6-6.5,6.2-8.2,10.3c-2.5-3-4.2-7.9-6.9-10.3
		c-1.3,3.2,1.7,10.2,2.9,13.5c0.8,2.3,1.8,4.5,2.8,6.7C157.1,261.3,159.6,264.1,159.7,265.8z"/>
	<path fill="#F7E9E2" d="M141.8,315.1c-0.7-9.1,1.8-18.2,6-26.3c-3.6,2.6-6.5,6.2-8.2,10.3c-2.5-3-4.2-7.9-6.9-10.3
		c-1.3,3.2,1.7,10.2,2.9,13.5c0.8,2.3,1.8,4.5,2.8,6.7C139.2,310.6,141.7,313.4,141.8,315.1z"/>
	<path fill="#F7E9E2" d="M175.2,301.9c-0.7-9.1,1.8-18.2,6-26.3c-3.6,2.6-6.5,6.2-8.2,10.3c-2.5-3-4.2-7.9-6.9-10.3
		c-1.3,3.2,1.7,10.2,2.9,13.5c0.8,2.3,1.8,4.5,2.8,6.7C172.6,297.4,175.1,300.3,175.2,301.9z"/>
	<path fill="#F7E9E2" d="M159.4,344.1c-0.6-7.4,1.5-14.9,4.9-21.5c-3,2.1-5.3,5-6.7,8.4c-2.1-2.5-3.5-6.4-5.7-8.4
		c-1.1,2.6,1.4,8.4,2.4,11.1c0.7,1.9,1.5,3.7,2.3,5.5C157.3,340.4,159.3,342.8,159.4,344.1z"/>
	<path fill="#F7E9E2" d="M120.7,335.2c-0.6-7.4,1.5-14.9,4.9-21.5c-3,2.1-5.3,5-6.7,8.4c-2.1-2.5-3.5-6.4-5.7-8.4
		c-1.1,2.6,1.4,8.4,2.4,11.1c0.7,1.9,1.5,3.7,2.3,5.5C118.6,331.5,120.6,333.9,120.7,335.2z"/>
	<path fill="#F7E9E2" d="M189,326.5c-0.6-7.4,1.5-14.9,4.9-21.5c-3,2.1-5.3,5-6.7,8.4c-2.1-2.5-3.5-6.4-5.7-8.4
		c-1.1,2.6,1.4,8.4,2.4,11.1c0.7,1.9,1.5,3.7,2.3,5.5C186.9,322.8,188.9,325.2,189,326.5z"/>
	<path fill="#F2881D" d="M96.3,385.3c0.7,0.4,34.9,15.3,58.1,15.3c40.1,0,61.2-17.3,60.8-17.1c-0.4,0.3-29.3,12.8-59.2,11.9
		C126,394.5,96.3,385.3,96.3,385.3z"/>
	<path fill="#F7E9E2" d="M183.7,147.5c-2.9-7.2-13.9-10-16.1-10.9c-2.7-1-5.6-1.2-8.5-1.3c-11-0.3-26.8,2-26.9,2
		c0,0-9.6,1.2-13.8,8.6c-2.3,4-2.5,9.3,0.3,13.5c2.2,3.3,6.1,5.7,10.1,7.5c12.6,5.8,33,7.4,44.7,1.1
		C182.6,163,186.1,153.3,183.7,147.5z"/>
	<path fill="#60423E" d="M170.6,141.7c-0.7-2.4-2.6-4.4-4.8-5.6c-2.2-1.2-4.7-1.7-7.3-1.9c-2.8-0.3-14-0.3-16.8,0
		c-2.5,0.2-5,0.7-7.3,1.9c-2.2,1.2-4.1,3.1-4.8,5.6c-0.7,2.4,0,5.3,2.1,6.8c1,0.7,2.2,1.1,3.3,1.6c1.5,0.7,2.8,1.7,3.8,3
		c1.2,1.5,2,3.3,3.3,4.8c2,2.1,5,3.1,7.9,3.5c2.9-0.4,5.9-1.3,7.9-3.5c1.3-1.4,2.1-3.3,3.3-4.8c1-1.3,2.3-2.3,3.8-3
		c1.1-0.5,2.3-0.9,3.3-1.6C170.6,147,171.3,144.2,170.6,141.7z"/>
	<path fill="#FFFFFF" d="M135.7,140.4c-0.6,1.2-0.3,2.9,0.9,3.5c0.8,0.4,1.7,0.2,2.5-0.1c0.8-0.4,1.5-0.9,2.2-1.3
		c2.3-1.3,5.1-1.5,7.8-1.6c0.7,0,1.5-0.1,2.1-0.4c0.7-0.3,1.2-1,1.1-1.7c-0.4-2.4-6.3-2.2-8.1-2.1
		C141.4,136.9,137,137.6,135.7,140.4z"/>
	<ellipse fill="#60423E" cx="151.7" cy="195.7" rx="9.8" ry="13.5"/>
	<path fill="#F2881D" d="M115.2,398.7c23.5-18.2,57-16.7,83.1-31.1c16.2-8.9,29.2-24.8,31.7-43.2c2.5-18.3-7.1-38.5-24.2-45.6
		c-7.7-3.2-16.3-3.7-24.6-3c-15.6,1.4-30.6,6.8-44.9,13.3c-13.9,6.2-27.4,13.5-39,23.4c-11.5,9.9-21,22.6-25.3,37.2
		c-7,24.1,1.1,50.4,15.2,71.1c1.1,1.6,4.8,9.8,7.3,8.4c1-0.5,1.7-4.7,2.1-5.7c0.8-2,1.7-3.9,2.7-5.8
		C103.1,410.4,108.6,403.8,115.2,398.7z"/>
	<path fill="#FFB845" d="M166.4,217.9c-10.6,8-23.4,12.3-36,16.5c-22.8,7.6-46.3,15.9-64.1,32c-28.7,26-37.6,69.2-28.6,106.9
		c3.1,13.1,8.3,26,17,36.4c8.7,10.4,22.7,18,36.2,19c-4.5-13.2-1-28.2,8.3-38.5c9.3-10.3,22.2-16.7,35.2-21.6
		c16.1-6.2,32.9-10.7,48.7-17.7c15.8-7,30.8-17,40.1-31.6c12.5-19.6,12.7-45.2,5.4-67.3c-7.3-22.1-21.4-41.2-36.3-59.1
		c-2-2.4-3.9-4.8-6.5-6.6c-3.6,4-3.7,12-6.7,17.2C176,209.2,171.5,214.1,166.4,217.9z"/>
	<path fill="#FFC571" d="M82.9,275c-8.7,5.8-17,12.4-23,20.9c-8.7,12.3-12.1,27.6-13,42.6c-0.4,6-0.2,12.5,3.2,17.4
		c1.3,2,3.5,3.8,5.9,3.5c3.3-0.3,5-4.1,6-7.3c3.5-11.2,6.7-22.9,13.5-32.4c10.5-14.6,28-22,42.5-32.6c6.4-4.7,12.9-11.7,11.4-19.5
		C124.9,244.9,91.9,269,82.9,275z"/>
	<path fill="#60423E" d="M84.8,275.6c1.4,0.5,2.9,1,4.2,1.8c1.3,0.8,2.4,2.1,2.5,3.6c0.1,1.5-1,3.1-2.6,3.1c2.2,0.7,3.9,3.2,3.3,5.5
		c-0.6,2.3-3.7,3.6-5.6,2.1c0.8,1.2,0.3,2.9-0.8,3.7c-1.1,0.9-2.6,1-4,0.6c-1.3-0.4-2.5-1.2-3.7-2c-6.1-4.4-11.5-9.9-14.7-16.6
		c-2.9-6-4.4-13.2-4.4-14.5c-0.3-6.7,6-8.1,8.9-7c2.1,0.8,3,2.2,3.7,6.5C72.9,268.7,79,273.3,84.8,275.6z"/>
	<path fill="#FFA912" d="M220.1,328.8c3.5-3.5,6.7-7.4,8.7-11.9c2.4-5.7,2.8-12,3.4-18.1c0.1-0.8,0.2-1.6,0.8-2.1
		c0.8-0.5,1.9,0,2.7,0.6c3.2,2.5,4.3,6.8,4.8,10.8c1.7,13.6-1.8,27.7-9.8,38.8c-2.4,3.3-5.4,6.5-9.4,7.3c-4,0.7-8.8-2.3-8.5-6.3
		c0.2-2.1,1.4-3.8,1.2-5.9c-0.1-1.3-1-2.1-0.9-3.6C213.4,334.7,217.6,331.3,220.1,328.8z"/>
	<path fill="#F2881D" d="M240.4,308.9c-0.5-4-1.7-8.3-4.8-10.8c-0.2-0.1-0.3-0.3-0.5-0.4c1.4,2.3,2.1,5.2,2.4,7.9
		c1.7,13.6-1.8,27.7-9.8,38.8c-2.4,3.3-5.4,6.5-9.4,7.3c-1.8,0.3-3.7-0.1-5.2-0.9c1.1,2.9,4.9,4.8,8.2,4.2c4-0.7,7.1-4,9.4-7.3
		C238.5,336.6,242.1,322.5,240.4,308.9z"/>
	<path fill="#60423E" d="M194.2,336.8c-1.3-0.7-2.6-1.6-4-2c-1.4-0.5-3.1-0.5-4.4,0.4c-1.2,0.9-1.7,2.8-0.7,4c-2-1.2-5-0.9-6.3,1.1
		c-1.3,1.9-0.3,5.2,2,5.6c-1.4,0.1-2.4,1.6-2.3,3c0.1,1.4,1,2.6,2.1,3.4c1.2,0.8,2.5,1.2,3.9,1.5c7.3,1.8,15,2.3,22.2,0.4
		c6.4-1.7,12.9-5.3,13.9-6.1c5.3-4.1,2.2-9.8-0.5-11.3c-1.9-1.1-3.6-0.8-7.3,1.4C207.2,341.4,199.7,339.8,194.2,336.8z"/>
	<path fill="#F7E9E2" d="M168.3,213c-10.1,9-28.8,17.3-41.2,22.5c4.9,1.3,15.6,1,20.5,2.3c-5.2,7.7-10.3,14.1-15.5,21.8
		c7.7-3,15.7-5.2,23.9-6.4c-2.4,12.6-7.3,24.5-12.2,36.3c11.1-6.3,22.2-12.7,33.2-19c1.6,9.9,0,20.1-1.6,30
		c11.5-11.1,23-22.2,34.5-33.3c-1.7,14.8-3.3,29.7-5,44.5c7.5-9.2,14.6-18.8,21.2-28.6c0.5,11.3-0.1,22.7-1.8,34
		c5-6.3,10.1-12.8,12.8-20.4c2.8-8.1,0.1-30.2-1.5-38.7c-5.4-29.6-37.7-68.6-51.2-75.7c-1.3,1.8-1.1,5.7-1.7,8.1
		c-0.8,2.9-1.9,5.7-3.2,8.3C176.8,204.1,172.8,209,168.3,213z"/>
	<path fill="#FFFFFF" d="M158.6,281.1c2-6.4,4-12.7,7-18.7c4.6-9.2,11.4-17.2,16.4-26.2c4.8-8.7,7.9-18.5,8.2-28.4
		c0.2-4.8-0.3-9.7-1.5-14.4c-0.9-3.5-2.1-7.8-4.2-10.9c-1.2,1.9-1,5.6-1.6,7.9c-0.8,2.9-1.9,5.7-3.2,8.3
		c-2.8,5.5-6.7,10.3-11.3,14.4c-10.1,9-28.8,17.3-41.2,22.5c4.9,1.3,15.6,1,20.5,2.3c-5.2,7.7-10.3,14.1-15.5,21.8
		c7.7-3,15.7-5.2,23.9-6.4c-2.4,12.6-7.3,24.5-12.2,36.3C148.7,286.7,153.6,283.9,158.6,281.1z"/>
</g>
</svg>
