<?xml version="1.0" encoding="utf-8"?>
<!-- Generator: Adobe Illustrator 17.1.0, SVG Export Plug-In . SVG Version: 6.00 Build 0)  -->
<!DOCTYPE svg PUBLIC "-//W3C//DTD SVG 1.1//EN" "http://www.w3.org/Graphics/SVG/1.1/DTD/svg11.dtd">
<svg version="1.1" id="Layer_1" xmlns="http://www.w3.org/2000/svg" xmlns:xlink="http://www.w3.org/1999/xlink" x="0px" y="0px"
	 width="387.4px" height="608px" viewBox="0 0 387.4 608" enable-background="new 0 0 387.4 608" xml:space="preserve">
<g>
	<path fill="#FFA912" d="M267.4,270.8c19,0.9,26.7-0.5,39.2-3.7c6.9-1.8,13.8-3.6,20.7-5.3c0.7,3.8,1.3,7.6,2,11.4
		c-11.5,7.8-23.5,15-35.9,21.5c-12.4,6.5-25.6,12.4-39.5,13.3c-7.7,0.5-15.7-0.7-22.4-4.5c-6.7-3.9-11.8-10.8-12.4-18.5
		C216.7,254.2,247.7,269.9,267.4,270.8z"/>
	<path fill="#60423E" d="M334.2,247c0.3-1.5,0.4-3,0.9-4.4c0.5-1.4,1.6-2.7,3-3.2c1.5-0.4,3.3,0.4,3.5,1.9c0.3-2.3,2.4-4.4,4.8-4.3
		c2.4,0.2,4.2,3,3.2,5.1c1-1,2.7-0.9,3.8,0c1.1,0.9,1.5,2.4,1.4,3.8c-0.1,1.4-0.7,2.7-1.2,4c-3.1,6.8-7.5,13.1-13.5,17.6
		c-5.3,3.9-12.2,6.8-13.4,7.1c-6.5,1.5-9-4.3-8.6-7.4c0.3-2.2,1.6-3.3,5.7-4.9C329.7,260,333.1,253.2,334.2,247z"/>
	<path fill="#D86964" d="M341.1,247.4c-1,0.4-1.8,1.3-2.3,2.2c-0.8,1.5-1.2,3.3-0.9,5c0.2,0.8,0.5,1.5,1.1,2.1
		c1.2,1.1,3,0.9,4.3,0.1c1.3-0.9,2.1-2.3,2.6-3.8c0.4-1,0.7-2.1,0.4-3.2C345.9,247.7,342.9,246.7,341.1,247.4z"/>
	<path fill="#D86964" d="M337,243.9c0.1,0.5,0.3,1,0.6,1.3c0.3,0.4,0.9,0.6,1.3,0.4c0.3-0.1,0.6-0.3,0.8-0.6c0.3-0.5,0.5-1,0.6-1.6
		c0.1-1-0.5-2.4-1.7-2.2C337.3,241.3,336.8,242.8,337,243.9z"/>
	<path fill="#D86964" d="M344.5,239.9c-0.6,0.5-0.9,1.2-1.1,1.9c-0.1,0.5-0.2,1-0.2,1.4c0.1,0.5,0.3,1,0.7,1.3
		c0.6,0.5,1.5,0.3,2.2-0.1c0.6-0.4,1-1.2,1.3-1.9C348.2,240.5,346.6,237.9,344.5,239.9z"/>
	<path fill="#D86964" d="M350.1,244.1c-0.5,0.5-1,1-1.3,1.7c-0.3,0.8-0.4,1.8,0.2,2.4c0.6,0.6,1.7,0.4,2.3-0.2
		c0.6-0.6,0.9-1.5,1.1-2.3C352.8,244.1,351.3,243.1,350.1,244.1z"/>
	<path fill="#FFA912" d="M92.4,242.5c-18.5-4.7-25.4-8.2-36.4-14.9c-6.1-3.7-12.2-7.4-18.2-11.1c-1.7,3.5-3.5,6.9-5.2,10.4
		c8.8,10.9,18.1,21.2,28.1,31c10,9.8,20.9,19.3,34,24.2c7.2,2.7,15.2,3.9,22.7,2.2c7.5-1.8,14.5-6.9,17.2-14.1
		C145.8,241.3,111.6,247.3,92.4,242.5z"/>
	<path fill="#60423E" d="M35.4,200.4c0.2-1.5,0.5-3,0.4-4.5c-0.1-1.5-0.7-3.1-2-3.9c-1.3-0.8-3.3-0.5-3.9,0.8c0.4-2.3-1-5-3.3-5.5
		c-2.3-0.5-4.9,1.6-4.5,4c-0.6-1.2-2.4-1.6-3.7-1.1c-1.3,0.6-2.1,1.9-2.4,3.3c-0.3,1.4-0.2,2.8,0,4.2c1,7.4,3.4,14.8,7.9,20.8
		c3.9,5.3,9.7,10,10.8,10.7c5.8,3.4,9.9-1.5,10.4-4.6c0.3-2.2-0.6-3.7-4-6.3C36,214.1,34.7,206.6,35.4,200.4z"/>
	<path fill="#D86964" d="M28.7,198.7c0.9,0.7,1.3,1.7,1.6,2.8c0.4,1.7,0.2,3.5-0.6,5c-0.4,0.7-0.9,1.3-1.6,1.7
		c-1.4,0.7-3.2,0-4.2-1.2c-1-1.2-1.3-2.8-1.4-4.4c-0.1-1.1,0-2.2,0.5-3.2C24,197.6,27.1,197.5,28.7,198.7z"/>
	<path fill="#D86964" d="M33.6,196.5c-0.2,0.4-0.5,0.8-0.9,1.1c-0.4,0.2-1,0.3-1.4,0c-0.3-0.2-0.5-0.5-0.6-0.8
		c-0.2-0.5-0.2-1.1-0.1-1.7c0.2-1,1.2-2.1,2.3-1.6C34,194,34.1,195.5,33.6,196.5z"/>
	<path fill="#D86964" d="M27.6,190.6c0.4,0.6,0.5,1.4,0.4,2.2c0,0.5-0.1,1-0.3,1.4c-0.2,0.4-0.5,0.8-1,1c-0.7,0.3-1.6-0.1-2-0.7
		c-0.5-0.6-0.6-1.4-0.7-2.2C23.9,190.1,26.1,188.1,27.6,190.6z"/>
	<path fill="#F2881D" d="M107,277.6c0,0-9.8,1.5-27.3-10.8c-17.5-12.3-43.5-35.4-43.5-35.4s11.1,17.1,25.8,29.8
		c14.6,12.7,35.7,27.2,41.3,27.6C104.3,288.9,107,277.6,107,277.6z"/>
	<path fill="#60423E" d="M176.2,577.3c0.2,1,0.5,2.1,1.2,2.9c1.2,1.4,3.4,1.4,5.2,1.3c1.7-0.1,3.5-0.2,4.9-1.1
		c1.5-1,2.4-2.9,2.6-4.7c0.2-1.8-0.1-3.7-0.4-5.5c-2.8-15.1-6.5-30-8.1-45.3c-0.4-3.6-0.7-7.5-3.3-10c-2-1.9-4.8-2.6-7.6-2.8
		c-3.1-0.2-6.4,0-8.9,1.8c-6.9,4.9,0.3,15.9,2.3,21.6c3.1,8.8,5.9,17.7,8.3,26.7C173.8,567.3,175,572.3,176.2,577.3z"/>
	<g>
		<path fill="#60423E" d="M171.9,582.2c-0.9,0.9-4,4-3.5,6.8c0.2,1.1,0.7,2.7,2,3.3c-0.2,2.1,2.7,3.7,3.4,3.8
			c1.6,0.1,1.5,0.1,3.3-1.2c-0.3,0.6,2,2.7,4.1,2.3c3.8-0.7,8.1-6.7,9.3-10.4c2.2-7-0.3-15-1-17.8c-0.6-2.5-1.7,5.1-3.7,3.4
			c-1.4-1.2-12.9-4.7-11.4-3.1C175,570.1,174.8,579.3,171.9,582.2z"/>
		<path fill="#382624" d="M177.1,594.8c0,0-1.8-2.3-0.6-4.8c1.2-2.4,2.1-3.4,2.1-3.4s-2.5,0.9-3.7,3.8c-1.2,3,0.5,5.5,0.5,5.5
			L177.1,594.8L177.1,594.8z"/>
		<path fill="#382624" d="M170.4,592.3c0,0,0-1.7,0.7-3c0.9-1.8,2.7-3.5,2.7-3.5s-1.7,1-2.8,2.3c-1.5,1.8-1.6,3.3-1.6,3.3
			s0.1,0.2,0.6,0.5C170.3,592.2,170.4,592.3,170.4,592.3L170.4,592.3z"/>
	</g>
	<path fill="#60423E" d="M361,467.6c1,0.2,2.1,0.4,3.1,0.1c1.8-0.6,2.7-2.5,3.3-4.2c0.6-1.6,1.2-3.2,0.9-4.9
		c-0.3-1.8-1.6-3.3-3.2-4.3c-1.6-0.9-3.4-1.4-5.2-1.8c-14.9-3.6-30.1-6.2-44.7-11c-3.4-1.1-7.2-2.4-10.5-1c-2.6,1-4.3,3.4-5.6,5.8
		c-1.5,2.7-2.5,5.8-1.9,8.9c1.7,8.3,14.7,6.2,20.7,6.6c9.3,0.8,18.6,1.8,27.8,3.3C350.8,465.7,355.9,466.6,361,467.6z"/>
	<g>
		<path fill="#60423E" d="M363.6,473.5c0.5,1.2,2,5.3,4.8,5.9c1.1,0.3,2.8,0.5,3.8-0.5c1.8,1,4.5-1,4.8-1.6c0.8-1.4,0.7-1.3,0.2-3.5
			c0.5,0.5,3.2-0.7,3.7-2.8c0.9-3.7-2.8-10.2-5.7-12.7c-5.5-4.8-13.8-5.8-16.7-6.3c-2.5-0.4,4,3.6,1.6,4.8c-1.6,0.8-9.6,9.9-7.5,9.2
			C353.9,465.8,362.2,469.7,363.6,473.5z"/>
		<path fill="#382624" d="M377.3,473.9c0,0-2.9,0.7-4.6-1.4c-1.7-2.1-2.3-3.3-2.3-3.3s-0.2,2.6,2,4.9c2.2,2.3,5.2,1.7,5.2,1.7
			L377.3,473.9L377.3,473.9z"/>
		<path fill="#382624" d="M372.3,479c0,0-1.6-0.7-2.4-1.8c-1.2-1.5-2.1-3.9-2.1-3.9s0.3,1.9,1,3.5c1,2.1,2.4,2.8,2.4,2.8
			s0.3,0,0.7-0.3C372.2,479.1,372.3,479,372.3,479L372.3,479z"/>
	</g>
	<path fill="#FFA912" d="M250.8,300.8c8.5,31.5,26.4,72.3,14.2,100.7c-12,28.2-44.7,47.5-80.6,46.1c-35.9-1.4-72.6-24.4-85.6-54.9
		c-6.6-15.6-7.3-32-6.9-47.9c1-37.2,40.9-135.5,52-145c14.4-12.2,24.2-16.1,45.4-12.4c21.8,3.8,31.6,4.3,31.1,27.1
		C220,242.4,243.3,272.9,250.8,300.8z"/>
	<path fill="#FCD8BE" d="M143.9,201c0.6-0.2,1.2-0.4,1.8-0.5c8.7-2,18.3-0.4,27.2,2.3c7.2,2.2,14.6,5.1,19.8,10.3
		c3.5,3.4,7,9.3,6.1,13.9c-1,4.9-5,4-7.9,8.7c-6.9,11.4-10.3,24.7-11.4,38c-1.4,16.7,0.9,33.7,4.4,50.6c3.6,17.4,8.3,36.7-1.7,50.9
		c-4.5,6.3-11.4,10.8-18.2,15.1c-3.7,2.3-7.5,4.7-11.9,5.9c-8.3,2.2-17.7,0-26.4-2.3c-8.1-2.1-16.4-4.4-23.4-8.9
		c-2.7-1.7-6.4-5.9-8.5-8.2C81.1,307.8,131.6,214.6,143.9,201z"/>
	<path fill="#F2881D" d="M211.8,253.5c-5.8,3-10.7,7.3-15.8,11.4c-10.3,8.4-21.6,16.3-34.6,19.5c-18,4.4-37.2-0.6-53.4-9.5
		c4.1-10.7,8.1-21.3,12.2-32c2.3-6,4.6-12,8.4-17.2c6.1-8.4,15.9-13.7,26-15.8c10.2-2.1,20.8-1.1,30.8,1.5
		c10.4,2.7,20.4,7.1,28.7,13.9c6.3,5.1,12.1,11.8,15.2,19.4c2.4,5.7-0.1,5.2-5.2,5.4C219.9,250.3,215.7,251.5,211.8,253.5z"/>
	<path fill="#EFC8AC" d="M179.4,277.2c-5.7,3.3-12.9,6.2-19.2,7.8c-18,4.4-36.9-1-53.1-10c3.7-11.1,11.8-36.3,20.1-49.6
		c0-0.1,0.1-0.1,0.1-0.2c6.1-8.4,15.9-13.7,26-15.8c10.2-2.1,20.8-1.1,30.8,1.5c2.8,0.7,5.5,1.6,8.2,2.5c3.2,3.5,6.1,8.8,5.3,13
		c-1,4.9-5,4-7.9,8.7c-6.9,11.4-9,24.1-10.1,37.3C179.5,273.5,179.5,276.2,179.4,277.2z"/>
	<g>
		<path fill="#EFC8AC" d="M73.1,155.3c3.7,0.4,7.5,0.7,11.2,1.1c-6.9,4-12.6,10.4-16.1,18.1c5.7,0.8,11.5,1.3,17.3,1.5
			C75,182.1,66.8,192.8,63,205.1c10.1-2.5,20.2-5,30.5-5.1c15-0.1,29.6,5.2,42.5,13.1c1.7-7,0.6-14.3-1-21.3
			c-2.9-13.3-7.2-26.2-12.7-38.4c-3.4-7.6-10.3-23.7-20.2-19.7c-5.3,2.2-10.5,6.2-15.2,9.7c-2.4,1.8-4.8,3.7-7.1,5.7
			C78.8,150,74.2,155.4,73.1,155.3z"/>
		<path fill="#FCD8BE" d="M97.5,173.6c-1.8-9-2.1-18.4-2.1-27.6c0-14.2,0.7-28.9,6.6-41.9c2.4-5.2,5.5-10.1,9.8-13.8
			c4.4-3.9,9.8-6.5,15.4-8.5c19.9-7.1,42.1-6.5,62.5-0.9c20.4,5.6,39.3,15.9,56.7,27.8c18.2,12.5,35.2,27.2,46.5,46.5
			c6.2,10.6,3.6,22.7-1.7,33.6c2.6,5.4,5,10.8,6.7,16.5c2.2,8,3.3,16.3,3,24.5c-4.8-3.8-10.3-6.8-16.2-8.8
			c0.2,9.7-0.5,19.3-2.1,28.8c-9.9-6.3-20.9-11.1-32.5-14.1c1.8,8.1,2.5,16.4,2.1,24.6c-12.5-8.3-29.2-11.8-44.8-13.6
			c-7.1,0.5-14.2,0.3-21.2-0.6c-15.6-0.4-33-2.1-45.1-6.8c-56.5-21.9-50-45.2-53.2-58.5C87.1,177.3,91,175,97.5,173.6z"/>
		<path fill="#60423E" d="M146.9,8.3c-2.2-3.5-5-7.5-9.4-8.2c-6.3-1-10.4,5-12.1,10.3c-4.2,13.1-4.5,27.2-4.7,41
			c-0.2,12-0.4,24.1-0.6,36.1c0,1.9-0.1,3.9,0.6,5.8c1.3,3.8,5.3,6.5,9.6,7.8c4.2,1.2,8.7,1.2,13.1,1c10.5-0.5,21.1-1.9,30.1-6.4
			c6.3-3.2,14.7-9.8,15.4-16.8c0.6-6.3-7.2-14.2-10.6-19.8C167.8,42.2,157.3,25.3,146.9,8.3z"/>
		<path fill="#FFA912" d="M138.7,13.5c-0.7-2-1.8-4.3-3.9-4.6c-3-0.4-4.3,3.7-4.5,6.8c-1,19.5-2,39.1-2.9,58.6
			c-0.1,2.6-0.2,5.2,0.7,7.6c1.6,4.1,6,6.5,10.3,6.8c4.3,0.3,8.6-1.3,12.5-3.3c15-8.1,11.1-18,4.9-30.5
			C149.3,41.5,143.6,27.6,138.7,13.5z"/>
		<path fill="#FCD8BE" d="M155.9,82.2c-3.4,0.1-6.8-1.4-9-3.9c-1.5-1.7-2.4-3.8-3.2-5.9c-2.4-6.3-4.2-12.9-7.3-18.9
			c1.1,0.9,2.3,1.7,3.4,2.6c-1.3-2.8-2.9-5.4-4.8-7.9c3.1,0.4,6.1,1.8,8.4,3.9c-1.6-4-4-7.6-6.9-10.8c3.6,0.6,6.8,2.9,9.7,5.1
			c-2-4-4.5-7.7-7.5-11c3.9,1.4,7.5,3.4,10.7,5.8c2,4.6,4.1,9.1,6.3,13.7C161.2,65.8,164.9,74.7,155.9,82.2z"/>
		<path fill="#F7E9E2" d="M143.7,179.9c3.1,2,5.7,4.8,6.8,8.3c0.9,3,0.5,6.3-0.3,9.4c-0.6,2.3-1.5,4.6-2.9,6.6
			c-2.5,3.5-6.4,5.7-10.5,6.6c-4.1,0.9-8.4,0.2-12.6-0.3c-12.9-1.7-31.6-3.7-36.3-24.9c-0.8-3.6,1.4-12.4,4.2-14.8
			c3.7-3.2,8.9-3.7,13.8-3.5c7.1,0.2,14.4,1.5,20.8,4.9C132.2,175,138.5,176.7,143.7,179.9z"/>
		<path fill="#EFC8AC" d="M115.9,131.9c-4.8-0.6-10.2,0.3-13.8-3c-1.2-1.1-2-2.5-2.6-4c-3.8-9.1,1.8-23.5,10.4-28.3
			c8.5-4.8,18.7,0.2,25.2,7.5c2.3,2.6,4,5.7,5.3,9c2.7,6.5,6.8,25.3-0.8,30.3c-3.5,2.3-7.2-0.6-9.6-2.9
			C125.6,136.4,122.2,132.7,115.9,131.9z"/>
		<path fill="#EFC8AC" d="M266.2,167.3c-20.8,5.1-42.1-4.3-63.4-7.1c-14.7-1.9-29.9-0.6-44,3.8c8.7-8.4,17.5-16.9,27-24.4
			c4.7-3.8,9.7-7.4,15.3-9.9c9.4-4.2,20.2-4.8,30.3-2.9c10.1,1.9,19.7,6.1,28.7,11.3c6.3,3.7,15.8,9.2,18.8,16.3
			C281.9,161.8,272,165.9,266.2,167.3z"/>
		<path fill="#60423E" d="M127.7,117c-5.4-4.1-13-5.4-18.9-2.3c-2.1,1.1-4.1,3-5.5,5c-2.8,4-3.5,0.4-4.2,1.4
			c-0.3,7.2,1,16.8,6.2,21.9c5.2,5.1,12.3,6.6,19.4,7.6c3.9,0.5,9-0.4,12.1-2.8c2.2-1.7,3.1-3.2,3.4-5.9
			C141.2,132.6,135,122.5,127.7,117z"/>
		<path fill="#FFFFFF" d="M119.4,116.7c-2.7-0.7-5.6-1-8.2-0.1c-2.2,0.8-5.5,3.4-6.7,8.8c-1.8,8.1,4.2,14.3,5.8,15.9
			c2.9,2.9,12.4,7.2,17.7,7c2.8-0.1,4.3-0.6,5.9-2.9c1.6-2.3,2.3-5.1,2.3-7.9c0-2.2-0.4-4.5,0-6.6c0.1-0.4,0.4-0.9,0.4-1.2
			c0-0.4-0.5-0.9-0.7-1.2c-0.5-0.8-1.1-1.6-1.7-2.3c-2.4-3-5.5-5.4-8.9-7.2C123.5,118,121.5,117.2,119.4,116.7z"/>
		<path fill="#EDEDED" d="M104.5,125.4c0.2-0.5,0.3-1,0.4-1.5c0.5,2.6,1.3,5.2,2.6,7.5c1.9,3.3,4.9,6,8.5,7.2
			c3.6,1.2,7.9,0.7,10.8-1.7c2.8-2.2,4.2-5.8,4.6-9.3c0.1-1.4,0.1-2.8,0.1-4.2c1,0.9,1.9,1.8,2.7,2.8c0.6,0.7,1.2,1.5,1.7,2.3
			c0.2,0.3,0.6,0.8,0.7,1.2c0,0.4-0.3,0.9-0.4,1.2c-0.4,2.2,0,4.4,0,6.6c0,2.8-0.7,5.6-2.3,7.9c-1.6,2.3-2.8,3.4-5.6,3.5
			c-5.4,0.1-17.4-3.5-20.5-6.3C105.3,140.4,101.2,135.3,104.5,125.4z"/>
		<path fill="#FFA912" d="M265.1,142.8c-19.2-13.9-46.7-24.5-71.3-9.2c-15.9,9.9-31,29.9-43.6,37.4c-13.2,7.9-43.4,18.1-50.5,11.6
			c2.5-2.6-8.5-7.7-4.4-9.7c12.2-6,32.7-16.3,39.5-34.7c2.8-7.4-0.5-24.7-4.8-31.3c-8-12-20.1-15.7-30.6,4.3
			c10.8-29.4,27.3-39.8,41-47.1c32.4-17.5,79.1-6.7,100,2.6c21.3,9.5,39.3,26.7,49.3,47.8c7.3,15.4,14,51.1,1.6,74.3
			C288.8,162.3,272.4,148.1,265.1,142.8z"/>
		<path fill="#60423E" d="M113.4,177.1c2.1,1.1,4.3,2.3,5.5,4.3c1.6,2.6,1.2,6.2-1,8.4c-2.2,2.1-5.8,2.5-8.4,0.9
			c-1-0.7-1.9-1.6-2.9-2.3c-1-0.7-2.4-1.1-3.5-0.5c-1.5,0.8-1.8,2.8-3.2,3.7c-1.2,0.7-2.7,0.3-3.7-0.7c-0.9-1-1.4-2.3-1.5-3.7
			c-0.2-1.3-0.1-2.7-0.3-4c-0.1-0.4-0.3-1-0.7-1c-0.3,0-0.5,0.2-0.8,0.4c-0.6,0.3-1.5-0.1-1.8-0.8s-0.2-1.4-0.1-2.2
			c0.5-2.7,1.7-5.5,4.2-6.7c1.8-0.8,3.9-0.6,5.9-0.2C105.6,173.5,109.4,175,113.4,177.1z"/>
		<g>
			
				<ellipse transform="matrix(-0.9874 -0.1583 0.1583 -0.9874 210.0648 276.261)" fill="#231F20" cx="116" cy="129.8" rx="11.4" ry="12.5"/>
			<path fill="#FFFFFF" d="M124.2,126.9c0.1,0.7,0,1.4-0.2,2c-0.3,0.6-0.8,1.1-1.4,1.3c-0.8,0.2-1.5-0.4-2-1
				c-0.5-0.6-0.8-1.4-1.3-2.1c-0.5-0.6-1.1-1.1-1.8-1.4c-0.7-0.3-1.6-0.4-2.1-1.2c-0.5-0.8-0.2-2.1,0.5-2.7
				C119.1,118.8,123.9,123.3,124.2,126.9z"/>
		</g>
		<path fill="#60423E" d="M338.6,73.1c1.7-3.6,3.4-7.7,1.8-11.3c-0.8-1.9-2.5-3.4-4.4-4.4c-6.7-3.6-15-1.8-22.3,0.6
			c-14.4,4.8-28,11.6-41.5,18.4c-4.9,2.5-10.1,5.3-12.4,10.3c-1.8,3.9-1.4,8.5-0.4,12.6c4.2,17.6,18,30.6,28.4,44.7
			c1.4,2,4.2,11.1,9.5,10c2.8-0.6,7.1-11.5,8.3-14.1c5.3-11.8,9.8-21.2,15.2-31.7C327,96.6,332.9,84.9,338.6,73.1z"/>
		<path fill="#FFA912" d="M331.7,66.3c0,2.6-1.3,5-2.6,7.3c-3.2,5.6-6.4,11.3-9.6,16.9c-6.8,12-13.7,24-22.8,34.3
			c-3,3.4-6.4,6.7-10.7,7.9c-5,1.4-10.4-0.2-14.8-2.9c-8.9-5.5-14.8-16.2-13.3-26.6c1.7-11.7,11.8-20.4,22.2-25.9
			c9.1-4.8,18.8-8.2,28.6-11C313.8,64.8,331.6,56.8,331.7,66.3z"/>
		<path fill="#FCD8BE" d="M279.9,77.2c1.3-0.7,2.7-1.4,4.1-2c1.4-0.1,2.9-0.1,4.6,0.1c4.2,0.4,8.3,1.5,12,3.3c1.9,0.9,3.7,2,5.4,3.2
			c1.3,0.9,3.1,3.5,4.5,3.9c-3.8-1.4-7.9-2-11.9-2c3.9,3,7.1,6.9,9.1,11.4c-7.4-3.3-16.1-3.6-23.6-0.7c6.7,2.4,12.9,6.4,17.9,11.5
			c-4.2-1.1-8.5-1.4-12.8-0.9c3.7,3.1,6.1,7.7,6.4,12.5c-7.4-5.5-15.7-11.3-24.8-10.2c-2.4,0.3-4.9,1-7.1,0c-2-0.9-3-3-3.7-5.1
			c-0.4-1.4-0.7-2.9-0.8-4.4C262.7,88.7,271.2,81.8,279.9,77.2z"/>
		<path fill="#E08119" d="M252.2,120.2c0.9,1.5,1.7,3.5,0.9,5c-1,2.1-4.2,2.3-6.3,1.2c-2.2-1.1-3.7-3.1-5.5-4.7
			c-3.2-2.9-7.1-4.7-11.1-6.2c-1.4-0.5-2.7-1-3.9-1.9c-1.1-0.9-2-2.2-1.9-3.6c0.1-1.6,1.6-2.9,3.2-3.3c1.6-0.4,3.3-0.1,5,0.3
			C239.7,109,248.3,113.7,252.2,120.2z"/>
		<path fill="#E08119" d="M139.4,82.3c1.4,0.8,2.8,2.1,3,3.8c0.3,2.3-1.7,4.2-3.7,4.4c-2,0.2-4-0.7-6-1.1c-3.5-0.8-7-0.2-10.4,0.6
			c-1.2,0.3-2.3,0.6-3.5,0.4c-1.2-0.1-2.4-0.8-3-2.1c-0.7-1.4-0.3-3.3,0.6-4.5c0.9-1.2,2.2-1.9,3.5-2.4
			C125.7,79.4,133.7,78.9,139.4,82.3z"/>
		<g>
			<path fill="#60423E" d="M242.8,159.7c-4.1-6.9-8.3-11.3-15.4-15c-7.1-3.7-15.5-5.4-23.2-3.3c-7.1,1.9-12.9,6.8-18.5,11.5
				c-3.1,2.6-6.2,5.3-8.9,8.4c-0.5,0.6-1,1.3-0.8,2c0.1,0.4,0.4,0.7,0.8,1c2.9,2.7,6.2,4.9,9.6,6.9c12.2,7.3,26.4,12.8,40.5,10.5
				c7.7-1.2,14.8-4.7,21.6-8.6c1.7-1,3.4-1.9,5.1-3c1.5-1,2.6-1.4,1-2.6C253,166.3,247.7,167.7,242.8,159.7z"/>
			<path fill="#FFFFFF" d="M237.3,158.9c-1.8-5.4-8.1-10.7-11.4-12.3c-24.6-12.1-43.7,11.3-44.6,16.9c-0.5,3.2,11.8,10,14.2,11.1
				c6.4,3.1,24.9,9.8,35.3,3.5C233.7,176.3,240.6,169,237.3,158.9z"/>
			<path fill="#EDEDED" d="M183.5,159.2c-0.5,3.2,11.8,10,14.2,11.1c6.4,3.1,24.9,9.8,35.3,3.5c1-0.6,2.5-1.9,3.9-3.7
				c-1.6,4.4-4.7,7.4-6.5,8.5c-10.5,6.3-29-0.4-35.3-3.5c-2.4-1.2-14.7-7.9-14.2-11.1c0.2-1.1,1.1-2.9,2.6-5.1
				C183.5,159.1,183.5,159.1,183.5,159.2z"/>
			<g>
				
					<ellipse transform="matrix(-0.8796 -0.4757 0.4757 -0.8796 303.8051 398.6279)" fill="#231F20" cx="202.3" cy="160.9" rx="12.7" ry="14"/>
				<path fill="#FFFFFF" d="M212,160.8c-0.2,0.7-0.5,1.4-1,2c-0.5,0.6-1.2,0.9-1.9,0.8c-0.9-0.1-1.5-0.9-1.8-1.8
					c-0.3-0.9-0.3-1.8-0.6-2.7c-0.3-0.9-0.8-1.6-1.4-2.2c-0.7-0.6-1.6-1.1-1.8-2c-0.3-1,0.5-2.2,1.5-2.7
					C209.7,150.5,213,156.9,212,160.8z"/>
			</g>
		</g>
		<path fill="#FFB845" d="M159.2,138.1c0.6,1.4,0.3,3-0.2,4.5c-2.8,8.4-10.9,13.8-18.4,18.5c-2.7,1.6-5.3,3.3-8,4.9
			c-2.5,1.6-5.5,3.2-8.3,2.2c-0.1-2.3,1.3-4.4,3-6c1.7-1.5,3.8-2.6,5.8-3.8c3.3-2.2,6.1-5.2,8.1-8.7c1.8-3.1,3-6.6,5.2-9.4
			C148.5,137.6,157.1,132.9,159.2,138.1z"/>
		<path fill="#60423E" d="M123.5,231.6c0.8,0.2,16.1,3.6,25.1-0.7c6.3-3,10.8-7.3,10.8-7.3s-3,5.2-9.2,9.8
			c-6.4,4.6-16.6,2.6-17.4,2.2C127,233.3,123.5,231.6,123.5,231.6z"/>
		<g>
			<path fill="#60423E" d="M97,184.7c-1.2,6.8-1.8,14.3,3.8,19.4c2.4,2.1,5.3,3.6,8.2,4.7c3.5,1.4,7.1,2.5,10.8,3.3
				c4.4,1,8.9,1.3,13.4,0.6c0.9-0.1,1.4-1.3,1.2-2.1c-0.3-1-1.2-1.3-2.1-1.2c-4.5,0.7-9,0.1-13.4-1c-3.8-1-7.7-2.2-11.3-3.9
				c-3-1.5-6-3.6-7.3-6.9c-1.5-3.8-0.7-8.1,0-12C100.6,183.5,97.4,182.5,97,184.7L97,184.7z"/>
		</g>
		<g>
			<path fill="#60423E" d="M99,188.5c0.1,1.9,0,3.9-0.4,5.8c-0.2,1-0.5,2-0.9,2.9c-0.4,1-1.2,1.9-2.1,2.5c-1.9,1.3-4.9-4.4-5.7-6.3
				c-0.5-1.2-0.9-2.8-0.8-2.9c0.9-0.3,1,0.5,2,1.8c0.9,1.1,2.1,4.5,3.1,4c0.4-0.2,0.8-1.8,1-3.3c0.1-0.4,0.1-0.7,0.2-1.1
				c0-0.2,0-0.4,0.1-0.5c0,0.3,0-0.2,0-0.3c0-0.8,0-1.6,0-2.4c-0.1-0.9,0.7-1.8,1.6-1.8C98.2,186.9,98.9,187.6,99,188.5L99,188.5z"
				/>
		</g>
		<path fill="#F7E9E2" d="M252.9,214.5c-5.9-2.8-11.9-5.7-18.3-7.1c3.8,5.6,6.4,12.1,7.5,18.8c-5.7-6.8-13.3-11.9-21.8-14.7
			c3.6,5,5.8,11.1,6.1,17.3c-9.9-22.4-31.2-39.3-55.2-43.9c23.3-4.8,48.8,0.8,67.6,15.5c2.6,2,5.1,4.2,7.5,6.6
			C248.1,208.8,250.7,213.4,252.9,214.5z"/>
	</g>
	<path fill="#FFA912" d="M150.4,516.1c4,7.7,10,16.5,18.6,15.8c6.4-0.5,11.3-6.4,12.8-12.7c1.5-6.2,0.5-12.8-0.3-19.2
		c-1.6-13.8-1.6-27.8-0.1-41.6c0.7-6.7,1.8-13.7-0.5-20.1c-3.1-8.7-11.6-14.1-20-17.9c-11.1-5.1-22.9-8.7-34.1-13.6
		c-11.3-4.9-19.5-14.2-29.7-19.4c2.1,21,15.4,45.4,23.5,64.9C129.8,474,139.7,495.3,150.4,516.1z"/>
	<path fill="#FFA912" d="M305.7,462.4c5.1,1.3,14.7,1.1,17.7-3.6c2.2-3.4,1.4-8.3-0.9-11.8c-2.2-3.4-5.5-5.8-8.5-8.4
		c-16.2-14.2-46-72.3-49.9-92.5c-2.6-13.4-19.8,10.7-31.1,16.8c-11.3,6-19.4,17.8-23.7,30.7c-8.6,25.7,5.6,35.3,24.4,43.6
		C258,447.9,280.3,456,305.7,462.4z"/>
	<path fill="#F2881D" d="M239,298.3c0,0,13.1,6.1,33.4-0.6c20.3-6.7,51.8-21.3,51.8-21.3s-15.6,13.1-33.3,21.1
		c-17.7,7.9-35.6,14.1-36.4,14.5C253.8,312.4,239,298.3,239,298.3z"/>
	<path fill="#F2881D" d="M239,298.3c0,0,9.6,13.4,13.9,25.3c4.2,12,16.3,38.3,16.3,38.3s-6.2-30.3-8.7-37.7
		c-2.5-7.4-3.7-16.2-3.7-16.2L239,298.3z"/>
	<path fill="#9ACEE8" d="M4.3,388.7c1.4,5.8-4.6,12.1-1.7,17.3c3.3,6,13.4,2.6,18.4,7.3c5,4.7,1.8,14.6,7.3,18.6
		c4.9,3.5,12-0.9,17.5,1.6c7.5,3.4,5.9,16.5,13.5,19.7c8.6,3.6,17.4-10.1,26-6.5c6,2.5,6.5,11.5,12.1,14.9c9.1,5.5,19.7-9,30.1-6.4
		c7.5,1.8,11.5,12,19.2,12.1c5.8,0.1,10.4-5.9,16.2-5.8c8.5,0.2,11.8,12.5,19.9,15.1c11.1,3.6,19.9-12.9,31.6-12.6
		c4.2,0.1,8,2.5,12,3.9c13.9,5.1,31.3-2.2,37.3-15.8c0.7-1.7,1.4-3.5,2.7-4.8c5.1-5,13.8,2,20.5-0.2c9.8-3.1,6.3-20.5,15.5-25.1
		c4-2,8.9-0.6,13.1-2c7-2.3,9.4-10.9,10.8-18.2c1.4-7.3,4.2-15.9,11.4-17.7c1.6-0.4,3.3-0.4,4.6-1.3c4-2.8,0.6-9.7,3.5-13.6
		c2.5-3.3,8.1-2.5,10.6-5.8c2.3-3,1-8.2,4.2-10.2c1-0.6,2.3-0.8,3.2-1.5c2.1-1.6,1.3-5.2-0.9-6.6c-2.2-1.5-5-1.4-7.6-1
		c-32.6,5-51.6,44.5-84.3,49.3c-14,2.1-28.5-2.7-42.5-0.3c-8.9,1.6-17,6-25.2,9.7c-12.3,5.5-25.6,9.5-39,8.4
		c-13.8-1.2-26.8-7.8-40.6-8.7c-9.3-0.7-18.6,1.2-27.9,0.6c-8.8-0.6-17.2-3.3-25.6-6.1c-16.1-5.3-32.2-10.5-48.2-15.8
		c-3.6-1.2-7.3-2.2-10.8-3.7c-2.1-0.8-5.2-3.1-7.6-2.8C-4.4,375.8,3.5,385.3,4.3,388.7z"/>
	<path fill="#B9DFEA" d="M4.7,373.8c7.3,3.1,2.5,15.3,7.5,21.5c5.5,6.7,16.9,0.8,24.8,4.5c8.4,3.9,8.4,15.8,13.3,23.7
		c4,6.4,11.8,10.1,19.2,9.1c5.8-0.7,11.5-4,17-2.2c7.8,2.6,9.5,13.5,16.7,17.4c10.2,5.6,21.8-6.2,33.4-5.7
		c10.3,0.5,17.5,10.2,26.8,14.5c6.1,2.8,13.2,3.3,19.6,1.2c7.2-2.3,13.3-7.7,20.7-9.3c8.7-1.9,17.6,1.5,26.5,1.3
		c9.2-0.2,18.1-4.6,24-11.7c3.4-4.1,6-9.3,11-11.3c6.2-2.4,13.5,1.3,19.6-1.3c11.5-4.8,8.4-26.4,20.4-29.5c2.7-0.7,5.6-0.2,8.3-0.8
		c11.3-2.7,9.9-20.9,19.3-27.6c5.5-4,13.9-3.3,18.2-8.6c2.1-2.7,2.6-6.2,3.9-9.4c1.3-3.1,4.2-6.2,7.6-5.6c-29.7-6-59.8-9.6-90-10.9
		c-3.1-0.1-6.3-0.2-9.3,0.3c-3.4,0.6-6.6,1.9-9.7,3.2c-17.1,7-34.8,13.1-53,16.6c-34.6,6.6-69.1,3.3-103.8,1.2
		c-13.7-0.8-28.7,7.2-42.2,10.5c-8.4,2-16.9,3.8-25.5,5.3C23.5,371.1,9.6,375.9,4.7,373.8z"/>
	<path fill="#9ACEE8" d="M92,344.8l-9.2,11c0,0,43.2,16.4,97.8,9c63.4-8.7,91.9-31.8,91.9-31.8l-11-5.5c0,0-39.5,23.7-84.9,26.4
		C103.5,358.3,92,344.8,92,344.8z"/>
	<path fill="#9ACEE8" d="M41.1,378.6c-4.2,1.9-9,4.6-9.2,9.2c23.2-7.9,45.9-17.2,68-27.6c1.5-0.7,3.4-0.2,4.1,1.4
		c0.7,1.7-0.8,3.2-2.1,4.2c-9.6,7.8-18.4,16.6-26.2,26.2c-2.8,3.4-5.5,7.3-5.2,11.7c17.4-9,24.2-32.9,42.7-39.3
		c-3.9,8.3-8.3,16.4-13.4,24.1c11.2-4.2,15.8-17.3,23.8-26.2c0.4-0.5,1-0.9,1.6-1c2.4-0.4,3.1,3.3,2.5,5.6
		c-5.4,23.1-23.5,42.4-25.4,66c5.8-1.3,9.1-7.3,11.6-12.7l26.3-56.2c0.4-0.8,1.1-1.5,2-1.7c2.7-0.6,3.3,3.5,2.6,6.1
		c-1.1,4.6-2.2,9.1-3.4,13.7c4.1,0.1,6.4-4.5,7.6-8.4c1.1-3.9,14-11.1,18-11.7c3.9,22.3-1.9,46.8,4.7,68.5c0.7,2.3,1.4,4.6,3.1,6.4
		c1.6,1.8,3.5-17.8,2.6-26.4c-1.5-15.1,4.6-31.7,1.7-46.6c2.4-2,6.3-1.2,8.5,1c2.2,2.2,3.1,5.4,3.7,8.5c1.9,9.8,4.4,33.7,9,27.9
		c3.4-8.7-2-24.9-3-37.3c-0.1-1.4-0.2-3.1,1.2-3.9c1-0.6,2.2-0.5,3.2,0.2c1.8,1.2,2.3,3.2,2.7,5.2c5.6,23.6,29.9,78.4,31.3,64.3
		c1.8-5.3,0.5-11.3-2-16.3c-2.5-5-6.1-9.4-9.2-14.1c-7.8-11.9-12.1-26.1-12.3-40.4c0-0.7,0.1-1.4,0.5-2c1.7-2.8,5.8-0.7,8,1.6
		c11.6,11.6,23.2,23.3,34.9,34.9c4.3,4.3,11.1,17,14.2,11c0.3-6.2-5.1-11-9.8-15.1c-12.2-10.6-22.5-23.3-30.3-37.4
		c-0.4-0.6-0.7-1.3-0.5-2c0.2-0.9,1.3-1.4,2.2-1.6c5.8-1.2,11.2,3.1,15.7,7c11.1,9.6,33.8,35.3,35.8,25.2c0.5-3.4-1.6-6.8-4.3-9
		c-2.7-2.1-6.1-3.4-9.2-4.9c-9.6-4.7-17.5-12.8-22-22.6c10.7-2.8,20.6,9.4,31.5,7.8c7.7-0.4-12-11.7-20.1-13.3
		c6.4,1.4,43,9.8,46.4,5.3c5.4-3.8-35.8-9.4-42.1-8.8c-6.3,0.6-11.9,4.1-17.6,6.9c-10.5,5.2-21.9,8.3-33.3,11.4
		c-17.9,4.8-36.3,9.7-54.8,8.4c-11.5-0.9-22.6-4.1-34.1-5.3c-13-1.4-25.9-4.1-37.8,1.9C71.3,365.8,56,371.9,41.1,378.6z"/>
	<path opacity="0.37" fill="#FFFFFF" d="M75.6,374.6c-9.5,5.5-19,11-28.6,16.6c-1.9,1.1-4.2,3-3.4,5.1c0.3,0.7,0.8,1.2,1.5,1.5
		c3.1,1.6,6.6-0.7,9.4-2.8c10.2-8,22.8-14.3,32.3-23C83.5,370.6,78.7,372.8,75.6,374.6z"/>
	<path opacity="0.37" fill="#FFFFFF" d="M111.8,384.9c-4,6.1-9.8,10.8-15,16c-5.2,5.2-10,11.2-11.2,18.5c-0.4,2.2-0.3,4.8,1.3,6.4
		c2.5,2.5,7,1,9.1-1.8c2.1-2.8,2.5-6.5,3.5-9.9c0.9-3.3,2.4-6.4,4-9.5c4.4-8.4,9.7-16.2,15.9-23.4c1.6-1.8,4.2-7.3-0.5-6.4
		C116.1,375.3,113.2,382.7,111.8,384.9z"/>
	<path opacity="0.37" fill="#FFFFFF" d="M148,390.9c-1.6,10.9-4.6,21.5-9,31.5c-1.1,2.4-2.2,4.9-2.6,7.5c-0.3,2.6,0.3,5.6,2.3,7.3
		c1.9,1.7,4.6,2,7.1,2.2c0.8,0.1,1.6,0.1,2.3-0.1c2.9-0.9,2.8-4.9,2.3-7.9c-2.3-14.2,0.7-28.6,4.4-42.4c0.7-2.7,5.4-13.4-1.4-12.6
		C148.8,377.3,148.5,387.4,148,390.9z"/>
	<path opacity="0.37" fill="#FFFFFF" d="M185.9,434.7c0.1,2.7,0.2,5.4,1.3,7.8c1.1,2.4,3.5,4.5,6.1,4.4c3.9-0.1,6.3-4.7,5.9-8.5
		c-0.4-3.9-2.6-7.2-4.2-10.7c-6.1-13-4.3-27.8-6.3-41.7c-0.3-1.8-0.6-8.5-2.5-9.4c-3.6-1.7-2.2,5.4-2.2,7.2
		c0.3,8.1,0.6,16.1,0.9,24.2C185.2,416.9,185.5,425.8,185.9,434.7z"/>
	<path opacity="0.37" fill="#FFFFFF" d="M207.8,406.6c5.1,8.7,9.2,18,12.4,27.5c0.8,2.4,1.5,4.9,3,7c1.4,2.1,3.7,3.8,6.2,3.9
		c2.5,0.1,5.2-1.9,5.2-4.4c0-2.2-1.7-3.9-3.2-5.5c-5.6-5.8-10.2-12.6-14.1-19.7c-3.6-6.6-6-15.4-10.5-21.2
		C202.4,396.7,206,403.7,207.8,406.6z"/>
	<path opacity="0.37" fill="#FFFFFF" d="M280.2,346.8c0.1,1.6,1.5,3,3,3.5c1.6,0.6,3.2,0.5,4.9,0.6c8.5,0.5,16.3,5,24.6,6.7
		c4.9,1,10,1.1,15.1,1.2c4.2,0.1,9-0.1,11.7-3.3c0.3-0.4,0.6-0.8,0.6-1.3c0-1.3-1.7-1.7-3-1.7c-7.8,0-15.8,1.2-23.2-1.1
		c-3.7-1.1-7-3.1-10.7-4.1c-4.7-1.3-9.7-0.8-14.5-1.6C286.7,345.3,280.1,342,280.2,346.8z"/>
	<path fill="#9ACEE8" d="M166.4,589.7c-1.8,4.8-2.3,10.4-0.4,15.2c0.5,1.2,1.2,2.4,2.4,2.9c0.6,0.2,1.3,0.3,1.9,0.3
		c3.9-0.1,7.5-2,10.4-4.6c2.9-2.6,5-5.9,7-9.2c1.9-3.2,3.7-6.6,5.4-10c0.6-1.3,1.2-2.6,1.5-4.1c0.2-1.4,0-3-1-4.1
		c-0.9-1-2.7-3.3-3.9-5.8c-1.1,5.8-8.4,19.6-15.1,17.4c-3-1-2.3-5.3-0.7-9.8c-1.7,1-3.2,3.9-4.2,5.6
		C168.3,585.4,167.2,587.5,166.4,589.7z"/>
	<path fill="#9ACEE8" d="M368,481.5c3.6,3.7,8.5,6.4,13.6,6.7c1.3,0.1,2.7-0.1,3.6-0.9c0.5-0.4,0.8-1,1-1.6
		c1.5-3.6,1.3-7.7,0.1-11.4c-1.2-3.7-3.3-7-5.5-10.2c-2.1-3.1-4.4-6.1-6.8-9c-0.9-1.1-1.9-2.2-3.1-3c-1.2-0.8-2.7-1.2-4.1-0.8
		c-1.3,0.4-4.1,1.1-6.9,1.1c4.8,3.4,14.3,15.8,9.5,21c-2.2,2.3-5.3,0.1-8.8-3.2c0.2,2,1.8,4.3,2.9,6C365,478,366.4,479.8,368,481.5z
		"/>
	<polygon fill="#9ACEE8" points="172.9,564.1 189.5,573.5 189.5,571 172.4,562.3 	"/>
	<path fill="#9ACEE8" d="M168.9,550.3l17.9,5.8c0,0-0.4-1.8-0.4-2c0-0.2-18.1-5.7-18.1-5.7L168.9,550.3z"/>
	<path fill="#9ACEE8" d="M174.5,571.8c0.1-0.3,13.1-11.9,13.1-11.9l0.3,1.6l-13.4,12V571.8z"/>
	<polygon fill="#9ACEE8" points="171.6,559.2 184.2,542.7 184.5,544.6 171.9,560.4 	"/>
	<polygon fill="#9ACEE8" points="360.1,452.3 344.2,464.7 345.7,464.9 362.2,453.3 	"/>
	<polygon fill="#9ACEE8" points="348.4,449.8 332.1,463.1 333.6,463.3 350.4,450.3 	"/>
	<path fill="#9ACEE8" d="M352.1,450.6c0,0,7.1,18.5,7.1,18.5l1.7,0.9l-7.6-19.1L352.1,450.6z"/>
	<polygon fill="#9ACEE8" points="335.9,447.1 341.8,464.3 343.3,464.5 337.3,447.4 	"/>
</g>
</svg>
