<?xml version="1.0" encoding="utf-8"?>
<!-- Generator: Adobe Illustrator 17.1.0, SVG Export Plug-In . SVG Version: 6.00 Build 0)  -->
<!DOCTYPE svg PUBLIC "-//W3C//DTD SVG 1.1//EN" "http://www.w3.org/Graphics/SVG/1.1/DTD/svg11.dtd">
<svg version="1.1" id="Layer_1" xmlns="http://www.w3.org/2000/svg" xmlns:xlink="http://www.w3.org/1999/xlink" x="0px" y="0px"
	 width="552.6px" height="519.1px" viewBox="0 0 552.6 519.1" enable-background="new 0 0 552.6 519.1" xml:space="preserve">
<g>
	<path fill="#9CBF45" d="M519.1,519.1c0.4-2,0.5-4.1,0.4-6.2c7.3-1.2,14.7-1.4,22-0.8c-0.4-2.7-1.4-5.2-2.9-7.5
		c4.7-0.9,9.4-2,14-3.2c-5.7-3.7-12.5-5.3-19.2-5.4c-6.7-0.1-13.4,1.2-20,2.9c-2.4,0.6-4.9,1.4-7,2.9c-2,1.5-3.6,3.9-3.4,6.4
		C503.6,515.3,514.3,516.4,519.1,519.1z"/>
	<g>
		<path fill="#231F20" d="M357.1,346.8c1.1-8.4,2.3-16.7,3.4-25.1c0.4-3.1,0.7-6.3,2.1-9.2c1-2.1,2.8-4.5,5.4-3.6
			c-0.3-0.4-0.6-0.8-0.9-1.1c0.9,18.5,1.7,36.9,2.6,55.4c0.4,9.2,0.9,18.5,1.3,27.7c0.4,8.8,0.9,17.6,2,26.4
			c2,15.7,6.2,31.4,15.3,44.7c4.2,6.1,9.2,11.4,15.3,15.7c6.4,4.5,13.6,7.6,21,10c7.5,2.4,15.3,4.1,23.1,5.7c9,1.8,18,3.7,27.1,5.5
			c2.3,0.5,4.6,0.9,6.9,1.4c1.5,0.3,2.1-2,0.6-2.3c-9-1.8-18-3.7-26.9-5.5c-7.9-1.6-15.8-3.1-23.5-5.2c-7.5-2-14.9-4.5-21.6-8.3
			c-6.6-3.7-12.3-8.6-16.9-14.4c-9.7-12.1-14.6-27.3-17-42.4c-1.4-8.7-2-17.5-2.5-26.2c-0.5-8.9-0.9-17.8-1.3-26.7
			c-0.9-18.2-1.7-36.4-2.6-54.7c-0.1-2.2-0.2-4.5-0.3-6.7c0-0.6-0.4-1-0.9-1.1c-6.5-2.2-9.4,6.8-10,11.5c-1.3,9.3-2.5,18.7-3.8,28
			C354.6,347.6,356.9,348.3,357.1,346.8L357.1,346.8z"/>
	</g>
	<path fill="#60423E" d="M294.8,472c-1.3,0.1-5.6,0.5-7,3.1c-0.5,1-1.2,2.5-0.5,3.8c-1.5,1.5-0.2,4.6,0.2,5.1c1.2,1.1,1.1,1,3.3,1.1
		c-0.6,0.3-0.1,3.3,1.7,4.3c3.3,1.8,8.8,0.5,12.4-0.6c6-1.8,6.6-5.5,7.1-8c0.5-2.5,0.2-5.2-0.3-7.7c-0.4-1.8-0.8-3.7-2.1-5
		c-1.2-1.3-3.1-1.9-4.8-1.9c-2.1,0.1-7.7-1.3-7.6,0.9C297.2,468.3,298.6,471.9,294.8,472z"/>
	<path fill="#60423E" d="M297.5,476.4c0,1,0.1,2.1,0.6,3.1c0.9,1.6,3,2.1,4.9,2.3c1.7,0.3,3.4,0.5,5-0.1c1.7-0.7,2.9-2.3,3.5-4.1
		c0.6-1.8,0.6-3.6,0.7-5.5c0.3-15.3-0.4-30.7,1.2-46c0.4-3.6,0.8-7.5-1.2-10.5c-1.5-2.3-4.2-3.5-6.9-4.3c-3-0.9-6.3-1.2-9.1,0
		c-7.7,3.4-2.9,15.6-2.1,21.7c1.3,9.2,2.2,18.5,2.8,27.8C297.2,466,297.4,471.2,297.5,476.4z"/>
	<path fill="#382624" d="M290.8,485.1c0,0,0.1-2.9,2.6-4.1c2.5-1.1,3.8-1.3,3.8-1.3s-2.5-0.9-5.3,0.7c-2.8,1.6-3,4.6-3,4.6
		L290.8,485.1L290.8,485.1z"/>
	<path fill="#382624" d="M287.3,478.9c0,0,1.1-1.3,2.4-1.9c1.8-0.8,4.3-1.1,4.3-1.1s-1.9-0.3-3.6,0.1c-2.3,0.4-3.4,1.6-3.4,1.6
		s0,0.3,0.1,0.8C287.2,478.8,287.3,478.9,287.3,478.9L287.3,478.9z"/>
	<path fill="#FFA912" d="M316.8,228c8.9,22.5,15.2,46.2,28.1,66.7c1.2,1.8,2.4,3.8,2.3,6c-0.1,2.8-2.6,5-5.1,6.1
		c-4.5,2-9.9,1.6-14.2-0.9c-5.7-3.4-8.6-9.9-11.1-16c-5.9-14.2-11.7-28.4-17.6-42.6c-3.4-8.2-17.1-34.3-8.5-41.8
		C302.4,195.1,313.9,220.6,316.8,228z"/>
	<path fill="#F2881D" d="M311.2,228.3c-2.3-5.9-10.4-23.9-19.6-25c-6.3,8.7,6.3,32.8,9.6,40.7c5.9,14.2,11.7,28.4,17.6,42.6
		c2.5,6.1,5.3,16.8,10.9,20.2c3,1.8,8.5,1.7,11.9,1.2c1-1.1-0.1-5.7,0-7.1c0.1-2.2-1.1-4.1-2.3-6
		C326.4,274.5,320.1,250.7,311.2,228.3z"/>
	<path fill="#FFA912" d="M184.1,257c-13.5,13.5-17.6,20.1-23.6,31.5c-3.3,6.3-6.6,12.6-9.9,18.9c-3.3-2.1-6.5-4.2-9.8-6.2
		c2-13.8,4.7-27.5,8.2-41c3.5-13.6,10.7-23.6,19.4-34.6c5.9-7.5,21.2-17.7,28.5-20c7.4-2.3,3.2,1.4,9.3,6.2
		C230.4,230.6,198,243,184.1,257z"/>
	<path fill="#60423E" d="M156.7,322.4c0.9,1.2,2,2.3,2.7,3.7c0.7,1.3,1,3,0.3,4.4c-0.7,1.4-2.5,2.1-3.8,1.3c1.5,1.8,1.7,4.8-0.1,6.4
		c-1.7,1.6-5.1,1.1-5.9-1.1c0.1,1.4-1.2,2.6-2.6,2.8c-1.4,0.2-2.8-0.5-3.7-1.6c-1-1-1.6-2.3-2.1-3.6c-2.9-6.9-4.7-14.4-3.9-21.9
		c0.7-6.6,3.1-13.6,3.8-14.7c3.2-5.9,9.3-3.8,11.3-1.3c1.4,1.7,1.4,3.5-0.2,7.5C150.1,310.3,152.9,317.4,156.7,322.4z"/>
	<path fill="#FFA912" d="M104.1,371.6c-17,17.2-28.1,39.3-43.2,58.2C45.8,448.7,24.2,465.2,0,463.9c9.5,11.4,25,15.9,39.7,17.7
		c53.5,6.4,107.8-16.5,147.2-53.2c12.3-11.5,23.6-24.7,29-40.7c4.3-12.6,4.4-27.3-1.6-39.4c-6.2-12.5-21.8-10.8-34.4-10.1
		C151.8,339.7,124.1,351.5,104.1,371.6z"/>
	<path fill="#F2881D" d="M22.4,460.1c1.3,0.2,2.5,0.4,3.8,0.5c53.5,6.4,107.8-16.5,147.2-53.2c12.3-11.5,23.6-24.7,29-40.7
		c2.9-8.5,3.9-18.1,2.4-27.1c4,1.5,7.4,4.2,9.6,8.6c6,12.1,5.9,26.8,1.6,39.4c-5.4,15.9-16.7,29.2-29,40.7
		c-39.4,36.8-93.7,59.7-147.2,53.2C25,479.8,9.5,475.2,0,463.8C7.8,464.3,15.3,462.9,22.4,460.1z"/>
	<path fill="#FFB845" d="M187.9,352.4c-0.5,3.7-3.5,6.6-6.9,8.2c-3.4,1.6-7.1,2-10.8,2.8c-10,2.2-19.5,6.9-27.4,13.6
		c-5.2,4.4-9.8,9.8-15.9,12.9c-2.7,1.4-5.9,2.2-8.7,1.1c-4.1-1.6-5.6-7-4.3-11.2c1.3-4.2,4.6-7.4,8-10.2
		c10.3-8.5,22.2-15.1,34.9-19.3C162.8,348.3,189.7,338.6,187.9,352.4z"/>
	<path fill="#FCD8BE" d="M39.7,481.5C25,479.8,9.5,475.2,0,463.8c24.1,1.4,45.8-15.2,60.9-34.1c3.3-4.2,6.5-8.5,9.5-13
		c1.1,0.1,2.3,0.4,3.6,1.1c5.8,2.9,6.8,9.7,11.6,13.6c4.3,3.6,10.6,3.5,15.7,5.8c4.6,2.1,8.2,6.1,9.7,10.9c1.1,3.5,1.1,7.3,2.6,10.6
		c1.9,4.2,5.9,7.1,8.6,10.8C96,480.2,67.7,484.9,39.7,481.5z"/>
	<path fill="#EFC8AC" d="M0,463.9c0.5,0,1,0,1.4,0.1c0,0,0,0,0.1,0c0.5,0,0.9,0,1.3,0c0,0,0.1,0,0.1,0c1.4,0,2.8-0.1,4.2-0.2
		c0,0,0,0,0,0c5.2-0.5,10.3-1.7,15.2-3.6c1.3,0.2,2.5,0.4,3.7,0.5c28.8,3.5,57.9-1.6,84.7-12.7c0,0.1,0.1,0.2,0.1,0.4
		c1.1,3.5,1.1,7.3,2.6,10.6c1.9,4.2,5.9,7.1,8.6,10.8c-0.1,0-13.4,10.4-63.2,13.9C31.8,485.7,9.5,475.3,0,463.9z"/>
	<path fill="#60423E" d="M215,472.9c1.3,0.1,5.6,0.5,7,3.1c0.5,1,1.2,2.5,0.6,3.8c1.5,1.5,0.2,4.6-0.2,5.1c-1.2,1.1-1.1,1-3.3,1.2
		c0.6,0.3,0.1,3.3-1.7,4.4c-3.3,1.9-8.8,0.5-12.4-0.6c-6-1.8-6.6-5.5-7.1-8c-0.5-2.5-0.2-5.2,0.3-7.7c0.3-1.8,0.8-3.7,2.1-5
		c1.2-1.3,3-1.9,4.8-1.9c2.1,0.1,7.7-1.4,7.6,0.9C212.6,469.2,211.3,472.8,215,472.9z"/>
	<path fill="#60423E" d="M212.4,477.3c0,1,0,2.1-0.6,3.1c-0.9,1.6-3,2.1-4.9,2.4c-1.7,0.3-3.4,0.5-5-0.1c-1.7-0.7-2.9-2.3-3.5-4.1
		c-0.6-1.7-0.7-3.6-0.7-5.5c-0.4-15.3,0.2-30.7-1.4-46c-0.4-3.6-0.8-7.5,1.2-10.5c1.5-2.3,4.2-3.5,6.8-4.3c3-0.9,6.3-1.3,9.1,0
		c7.7,3.4,2.9,15.6,2.2,21.7c-1.2,9.2-2.1,18.5-2.6,27.8C212.7,466.9,212.5,472.1,212.4,477.3z"/>
	<path fill="#382624" d="M219.1,486c0,0-0.1-2.9-2.6-4c-2.5-1.1-3.8-1.3-3.8-1.3s2.5-0.9,5.3,0.6c2.8,1.5,3.1,4.5,3.1,4.5L219.1,486
		L219.1,486z"/>
	<path fill="#382624" d="M222.6,479.8c0,0-1.1-1.3-2.4-1.9c-1.8-0.8-4.3-1-4.3-1s1.9-0.3,3.6,0.1c2.3,0.4,3.4,1.5,3.4,1.5
		s0,0.3-0.1,0.8C222.7,479.7,222.6,479.8,222.6,479.8L222.6,479.8z"/>
	<path fill="#FFA912" d="M313,420c-8,7.1-20.1,6.1-21.6,4.7c-1.1-1.1-1.8-2.4-2.3-3.8c-3.8-9.1-6.5-18.5-10.6-27.5
		c-4.1-9-10.1-11.5-23.8-12.4c-4.9-0.3,0-21.9,0.9-23c5.8-7.4,15.1-12.1,23.5-17.2c13.2-8,25.1-17.5,35.3-28.3
		c5.4-5.7,12.6-7,16,4.3C333.1,325.7,316.7,416.8,313,420z"/>
	<path fill="#FFA912" d="M195.2,426.7c8.9,6.2,20.8,3.9,22.1,2.4c1-1.2,1.4-2.6,1.8-4c2.5-9.4,3.9-19.1,6.7-28.5
		c2.8-9.4,10.5-13.3,24-15.7c4.8-0.8-5.1-20.9-6.2-21.9c-6.8-6.7-16.6-10.4-25.7-14.6c-14.2-6.5-27.3-14.7-39-24.3
		c-6.1-5.1-13.5-5.6-15.3,5.9C162.2,335.1,191.1,423.8,195.2,426.7z"/>
	<path fill="#FFA912" d="M301.1,211.9c-8.8-24.3-9.5-38.8-9.5-38.8l-44.4,15.3L202.8,173c0,0-0.7,14.5-9.5,38.8
		c-8.8,24.3-41.1,89.6-26.6,130.4c6.1,17.3,45.9,37.1,83.1,38.6c41.7,1.7,71.7-16.1,77.7-34.7C340.8,304.9,309.9,236.2,301.1,211.9z
		"/>
	<path fill="#F2881D" d="M259.9,218.6c9.9-2.2,18.4-8.6,26.1-15.2c3.6-3.1,7.4-6.6,8.4-11.3c0.1-0.6,0.2-1.2,0.2-1.8
		c-0.6-2.4-1.1-4.7-1.5-6.6c-1.9-3.7-5.2-6.7-9-8.5c-0.1-0.1-0.3-0.1-0.4-0.2l-36.7,12.6l-37-12.7c-2.7,1.1-5.9,2.6-8.3,4.7
		c-0.4,2.7-1.1,6.1-2.1,10.1c2.1,4.3,6.6,8.8,9.4,11.6c4.4,4.5,9.6,8.3,15.2,11.2c6.2,3.3,12.9,5.5,19.9,6.4
		C249.3,219.8,254.7,219.8,259.9,218.6z"/>
	<path fill="#FCD8BE" d="M207.7,241.1c-4.1,11.9-7,24.1-8.8,36.5c-2.2,15.5-1.9,33.3,9.2,44.3c8.5,8.5,21.3,10.7,33.3,11.8
		c9.6,0.9,19.4,1.2,28.8-0.9c9.4-2.1,18.5-6.9,24.2-14.7c8.5-11.6,8-27.7,3.5-41.4c-4.5-13.7-12.3-26-17.8-39.2
		c-4.6-11.1-7.6-22.9-8.7-34.9c-0.3-2.9,0.4-14.8-2-16.5c-1.6-1.1-46.3-5.4-49.7,2.8c-1.2,3-0.6,15.4-1.2,18.7
		c-0.7,3.8-1.7,7.4-2.8,11.1C213.2,226.2,210.2,233.6,207.7,241.1z"/>
	<path fill="#EFC8AC" d="M272.9,213.2c-0.7-3.5-1.1-7.1-1.4-10.7c-0.3-2.9-0.3-14.7-2.7-16.4c-0.5-0.4-5.7-1.1-12.6-1.6l-9.5,3.3
		l-10.7-3.7c-8.5,0.4-15.6,1.7-16.8,4.7c-1.2,3-0.6,15.4-1.2,18.7c-0.1,0.5-0.2,1-0.3,1.4c2,1.4,4,2.6,6.2,3.7
		c6.2,3.3,12.9,5.5,19.9,6.4c5.2,0.7,10.6,0.7,15.7-0.5C264,217.6,268.9,215.6,272.9,213.2z"/>
	<path fill="#60423E" d="M74.8,35.8C70,30.3,65,22.6,68.2,16.3c2.5-5,8.7-6.1,14.1-6.6c12.6-1.3,25.2-2.5,37.8-3.8
		c12.8-1.3,70.6,4.5,73.1,18c2.6,14.2-13.2,38.3-22.4,48.5c-5.2,5.7-10.7,11-16.6,15.9c-14.2,11.8-26.4-2.8-38.7-12.9
		C100.9,63.3,87.3,50.1,74.8,35.8z"/>
	<path fill="#FFA912" d="M117.9,70.3c-10.2-7.7-19.1-17.2-26.2-27.9c-2.7-4.1-5.2-9.5-2.7-13.7c1-1.7,2.6-2.8,4.3-3.9
		c14-8.7,27.9-10.8,44.1-8c10.7,1.8,16.1,10.4,20.5,11.7c5.6,1.7,7.3-6.8,9.9-1.6c2.6,5.3,2.9,11.6,0.8,17.1
		c-1.4,3.8-3.9,7.1-6.5,10.4c-5.1,6.5-10.4,12.7-16,18.7c-3.5,3.8-0.1,15.2-5.5,13.4C135,84.6,122.6,73.8,117.9,70.3z"/>
	<path fill="#FCD8BE" d="M141.6,69.1c2.7-7.6,6.4-14.9,11-21.6c2.3-3.3,4.8-6.5,6.5-10.1c1.4-2.8,2.2-6,2-9.1
		c-0.9,0.4-2,0.5-3.3,0.2c-4.4-1.3-9.9-9.9-20.5-11.7c-7.5-1.3-14.6-1.5-21.4-0.5c-2.9,1.8-5.7,3.4-8.1,5.9
		c-1.3,1.4-2.5,2.9-3.5,4.6c-0.6,1-1.6,4.7-2.4,5.2c2.3-1.5,4.9-2.4,7.6-2.6c-2,4.1-2.3,9-0.9,13.4c4.7-3.1,10.5-4.6,16.1-4.1
		c-1.9,2.5-3.8,4.9-5.7,7.4c1.7-0.3,3.3-0.7,5-1c-3.5,2.9-6.2,6.8-7.6,11.2c3-0.3,6-0.2,8.9,0.4c-1.6,1.9-2.8,4.3-3.2,6.8
		C129.1,62.4,136.4,64.5,141.6,69.1z"/>
	<path fill="#60423E" d="M409.6,34.9c5-5.3,10.1-12.9,7.2-19.2c-2.3-5-8.5-6.3-13.9-7c-12.6-1.6-25.1-3.3-37.7-4.9
		c-12.8-1.7-78.2,6-81,19.4c-3,14.2,19.5,35.1,28.4,45.5c5,5.8,10.4,11.3,16.1,16.3c13.9,12.2,26.5-2,39.1-11.7
		C382.6,61.7,396.7,48.9,409.6,34.9z"/>
	<path fill="#FFA912" d="M365.5,68.1c10.5-7.4,19.6-16.6,27-27.1c2.8-4,5.4-9.3,3.1-13.6c-0.9-1.7-2.5-2.9-4.2-4
		c-13.7-9.1-27.5-11.6-43.8-9.4c-10.7,1.5-16.4,9.9-20.9,11.1c-5.7,1.5-7-7-9.8-1.9c-2.8,5.2-3.3,11.5-1.3,17.1
		c1.3,3.9,3.7,7.3,6.2,10.5c4.9,6.6,10.1,13,15.5,19.2c3.4,3.9-0.4,15.2,5.1,13.6C347.9,81.9,360.7,71.5,365.5,68.1z"/>
	<path fill="#FCD8BE" d="M342.5,66.6c-2.7-7.6-6.5-14.9-11.1-21.5c-2.3-3.3-4.8-6.5-6.5-10.1c-1.4-2.8-2.2-6-2.1-9.1
		c0.9,0.4,2,0.5,3.3,0.1c4.4-1.3,9.9-10,20.5-11.8c7.5-1.3,14.6-1.5,21.4-0.6c2.9,1.8,5.7,3.4,8.1,5.9c1.3,1.4,2.5,2.9,3.5,4.6
		c0.6,1,1.6,4.7,2.4,5.2c-2.3-1.5-4.9-2.4-7.6-2.6c2,4.1,2.4,9,0.9,13.4c-4.7-3.1-10.5-4.6-16.1-4.1c1.9,2.5,3.8,4.9,5.8,7.4
		c-1.7-0.3-3.3-0.7-5-1c3.5,2.9,6.2,6.8,7.6,11.2c-3-0.3-6-0.2-8.9,0.4c1.6,1.9,2.8,4.3,3.2,6.8C355,59.8,347.7,62,342.5,66.6z"/>
	<path fill="#FCD8BE" d="M306.4,7.3c-30.9-9-60.5-7.1-60.5-7.1s-29.6-1.9-60.5,7.1s-55.9,44.9-51.4,77.2
		c3.1,22.1,10.9,60.3,35.9,85.6s77.2,36.4,77.2,36.4s49.7-11,74.7-36.4c25-25.4,32.8-63.6,35.9-85.6
		C362.3,52.2,337.3,16.3,306.4,7.3z"/>
	<path fill="#FCD8BE" d="M119.6,141.8c4.7,0.7,9.5,1.4,14.2,2.1c-2.5,4.5-5.6,8.6-9,12.4c5.8,0.6,11.6,0.9,17.4,0.7
		c-1.2,4.4-4.4,8.2-8.5,10.1c25.4,12.3,52.8,20.4,80.7,24c5,0.6,10.7,1,14.6-2.3c3.4-2.9,4.3-8,3.3-12.4c-1-4.4-3.6-8.2-6.3-11.9
		c-14.1-19.1-31.8-35.2-49.2-51.3c-5-4.6-10.1-9.2-16.1-12.3c-4.1-2.1-13-5.5-17.1-1.6c-3.1,2.9-2.1,10.1-2.9,13.9
		c-1.3,6-3.9,11.8-7.6,16.7C131.1,132.6,123.4,142.3,119.6,141.8z"/>
	<path fill="#FCD8BE" d="M373.8,140.9c-4.7,0.8-9.4,1.5-14.2,2.3c2.6,4.4,5.7,8.5,9.2,12.3c-5.8,0.7-11.6,1-17.4,0.9
		c1.2,4.4,4.5,8.2,8.7,10c-25.2,12.6-52.5,21.1-80.4,25c-5,0.7-10.7,1.1-14.6-2.1c-3.5-2.9-4.4-8-3.5-12.4c1-4.4,3.5-8.3,6.2-11.9
		c13.9-19.2,31.3-35.6,48.6-51.9c4.9-4.6,9.9-9.3,15.9-12.5c4.1-2.2,12.9-5.6,17.1-1.8c3.1,2.9,2.2,10.1,3.1,13.9
		c1.4,6,4.1,11.7,7.8,16.6C362.2,131.9,370,141.6,373.8,140.9z"/>
	<path fill="#EFC8AC" d="M187.4,70.9c26.3,5.6,41,36.8,46.6,48.9c0.9,1.9,2.3,4.2,4.4,3.8c4.7-15.8-2.8-32.7-12.3-46.1
		c-3.9-5.5-8.2-10.7-13.7-14.5c-14.5-10.1-34.4-8.5-50.5-1.4c-5,2.2-27,24.2-13.1,16.3C160.1,71.5,174.2,68.1,187.4,70.9z"/>
	<path fill="#EFC8AC" d="M304.3,69.2c-26.5,4.9-41.9,35.7-47.9,47.6c-0.9,1.9-2.4,4.1-4.5,3.7c-4.2-15.9,3.6-32.6,13.5-45.7
		c4-5.3,8.5-10.5,14.1-14.2c14.7-9.7,34.6-7.5,50.6-0.1c4.9,2.3,26.3,24.9,12.7,16.6C331.7,70.4,317.6,66.7,304.3,69.2z"/>
	<path fill="#F7E9E2" d="M356.1,142.5c-4.8-3.3-10.4-5.9-16.3-7.4c5.3,3.5,10,7.5,13.9,11.9c-7.6-4.4-17.3-9.5-26.2-10.2
		c6.3,4.9,13.6,12.3,16.3,18.5c-11.8-11.4-31.5-22.8-49-27.8c1.9,0.5,20.4-7.9,45,3.4C346.8,134.2,353.6,139,356.1,142.5z"/>
	<path fill="#F7E9E2" d="M141,145.7c4.7-3.4,10.3-6.1,16.1-7.8c-5.2,3.6-9.8,7.8-13.5,12.3c7.5-4.6,17.1-9.9,25.9-10.9
		c-6.2,5-13.3,12.7-15.8,18.9c11.5-11.7,30.9-23.7,48.2-29.1c-1.9,0.6-20.6-7.4-44.9,4.6C150,137.2,143.4,142.2,141,145.7z"/>
	<path fill="#F2881D" d="M324.5,371.2c-3.1,11.4-6.3,22.8-9.4,34.1c-1.2,4.2-2.5,8.7-5.7,11.7c-4.4,4.1-10.5,3.9-16.1,3.3
		c-1.5-0.2-2.8-0.1-3.9,0.2c0.1,0.2,0.2,0.4,0.2,0.6c0.6,1.4,1.2,2.8,2.3,3.8c1.4,1.3,13.5,2.4,21.6-4.7
		C315.3,418.5,320.3,395.3,324.5,371.2z"/>
	<path fill="#F2881D" d="M177.3,378.4c3.1,11.4,18.8,41,22,44c4.4,4.1,14.7,5.9,19.8,2.6c0,2.3-1,4.6-3.1,5.7
		c-1.7,0.9-13.2,3.6-21.2-3.5C192.9,425.6,184.2,403.4,177.3,378.4z"/>
	<path fill="#FFA912" d="M303.7,5.9c31.2,8,58.1,43.4,54.6,75.8c-0.5,4.5-5.2,24.7-6.1,30.3c0,0,4.3-46.9-36.7-51.2
		c-26-2.7-39.3,7.1-47.1,25.4c-6.9,16.3-9.3,56.4-9.3,56.4l-16.1,0.1V0.7C243,0.7,272.5-2.1,303.7,5.9z"/>
	<path fill="#E08119" d="M326.1,32.1c1.3,1.4,2.4,3.6,1.2,5.1c-1.2,1.4-3.4,0.9-5.1,0.1c-3.4-1.6-6.5-3.9-10.1-5.3
		c-3.4-1.3-7-1.9-10.4-3.2c-1.1-0.4-2.3-1.2-2.1-2.3c0.1-0.4,0.3-0.7,0.5-1c1.2-1.5,3.2-2.2,5.1-2.3C313,22.7,320.9,26.4,326.1,32.1
		z"/>
	<path fill="#FFA912" d="M185.5,7.5c-30.9,9-55.9,44.9-51.4,77.2c0.6,4.5,5.1,24.8,6.3,30.4c0,0-5.8-46.7,35-52.3
		c25.9-3.6,39.5,5.9,47.9,23.9c7.4,16.1,11.1,56.1,11.1,56.1l18.2-0.1L245.9,0.3C245.9,0.3,216.4-1.5,185.5,7.5z"/>
	<path fill="#E08119" d="M167.4,36.5c-1.2,1.5-2.2,3.7-0.9,5.1c1.2,1.4,3.4,0.7,5-0.2c3.3-1.8,6.2-4.2,9.6-5.7
		c3.3-1.5,6.8-2.2,10.1-3.7c1-0.5,2.2-1.3,1.9-2.4c-0.1-0.4-0.3-0.7-0.6-1c-1.3-1.4-3.3-2-5.2-2C179.7,26.6,172.1,30.6,167.4,36.5z"
		/>
	<path fill="#FFB845" d="M198.3,12.5c-1.9,0.6-3.8,1.2-5.3,2.4c-1.5,1.2-2.6,3.2-2.2,5.1c0.5,2.3,3,3.8,5.4,3.9
		c2.4,0.1,4.7-0.8,6.9-1.5c7.8-2.6,16-4,24.3-3.9c7.3,0.1,14.8,1.2,21.9-0.8c3.6-1,7.5-3.8,7-7.5c-0.3-2.3-2.2-4.1-4.4-4.9
		c-2.1-0.8-4.5-0.8-6.8-0.8C229.1,4.6,213.5,7.7,198.3,12.5z"/>
	<path fill="#F7E9E2" d="M223.3,262.7c-0.7-9.1,1.8-18.2,6-26.3c-3.6,2.6-6.5,6.2-8.2,10.3c-2.5-3-4.2-7.9-6.9-10.3
		c-1.3,3.2,1.7,10.2,2.9,13.5c0.8,2.3,1.8,4.5,2.8,6.7C220.6,258.2,223.1,261,223.3,262.7z"/>
	<path fill="#F7E9E2" d="M256.4,247.6c-0.7-9.1,1.8-18.2,6-26.3c-3.6,2.6-6.5,6.2-8.2,10.3c-2.5-3-4.2-7.9-6.9-10.3
		c-1.3,3.2,1.7,10.2,2.9,13.5c0.8,2.3,1.8,4.5,2.8,6.7C253.8,243.1,256.3,246,256.4,247.6z"/>
	<path fill="#F7E9E2" d="M238.4,296.9c-0.7-9.1,1.8-18.2,6-26.3c-3.6,2.6-6.5,6.2-8.2,10.3c-2.5-3-4.2-7.9-6.9-10.3
		c-1.3,3.2,1.7,10.2,2.9,13.5c0.8,2.3,1.8,4.5,2.8,6.7C235.8,292.4,238.3,295.2,238.4,296.9z"/>
	<path fill="#F7E9E2" d="M271.9,283.7c-0.7-9.1,1.8-18.2,6-26.3c-3.6,2.6-6.5,6.2-8.2,10.3c-2.5-3-4.2-7.9-6.9-10.3
		c-1.3,3.2,1.7,10.2,2.9,13.5c0.8,2.3,1.8,4.5,2.8,6.7C269.2,279.2,271.7,282.1,271.9,283.7z"/>
	<path fill="#F7E9E2" d="M256.1,325.9c-0.6-7.4,1.5-14.9,4.9-21.5c-3,2.1-5.3,5-6.7,8.4c-2.1-2.5-3.5-6.4-5.7-8.4
		c-1.1,2.6,1.4,8.4,2.4,11.1c0.7,1.9,1.5,3.7,2.3,5.5C253.9,322.2,256,324.6,256.1,325.9z"/>
	<path fill="#F7E9E2" d="M217.4,317c-0.6-7.4,1.5-14.9,4.9-21.5c-3,2.1-5.3,5-6.7,8.4c-2.1-2.5-3.5-6.4-5.7-8.4
		c-1.1,2.6,1.4,8.4,2.4,11.1c0.7,1.9,1.5,3.7,2.3,5.5C215.2,313.3,217.3,315.7,217.4,317z"/>
	<path fill="#F7E9E2" d="M285.7,308.3c-0.6-7.4,1.5-14.9,4.9-21.5c-3,2.1-5.3,5-6.7,8.4c-2.1-2.5-3.5-6.4-5.7-8.4
		c-1.1,2.6,1.4,8.4,2.4,11.1c0.7,1.9,1.5,3.7,2.3,5.5C283.5,304.6,285.6,307,285.7,308.3z"/>
	<path fill="#F2881D" d="M193,367.1c0.7,0.4,34.9,15.3,58.1,15.3c40.1,0,61.2-17.3,60.8-17.1c-0.4,0.3-29.3,12.8-59.2,11.9
		C222.7,376.3,193,367.1,193,367.1z"/>
	<path fill="#60423E" d="M187.8,115c-5.1,0.6-14.9-3.4-18.9-9c-1.2-1.6-6.7-8.7-8.7-9.2c-0.7-0.2-1.5-0.2-2-0.7
		c-0.6-0.6-0.5-1.7,0-2.5c0.5-0.7,1.4-1.1,2.2-1.5c2.2-1,4.5-1.9,6.8-2.7c1.4,5.4,5.8,10.1,11.5,12.7c16.8,7.9,27.4-2.6,32.5-9.7
		c0.4-0.5,1.2-0.1,1,0.5c-0.5,1.4-1.1,2.8-1.4,3.4C209,99.9,200.8,113.6,187.8,115z"/>
	<path fill="#F7E9E2" d="M172.1,83.4c-0.8,1.5-1,3.6,0.2,4.7c1.1,1,2.9,0.8,4.2,0.2c1.5-0.7,2.8-1.7,4.2-2.6
		c3.2-2.1,6.9-3.3,10.8-3.6c1.4-0.1,3.1-0.2,3.7-1.5c0.6-1.3-0.4-2.7-1.6-3.5c-3.3-2.2-7.2-1.4-10.7-0.1
		C179.1,78.5,174.3,79.6,172.1,83.4z"/>
	<path fill="#60423E" d="M307.1,116.6c5,0.9,15.1-2.4,19.4-7.8c1.3-1.6,7.3-8.3,9.2-8.6c0.7-0.1,1.5-0.1,2.1-0.6
		c0.7-0.6,0.6-1.7,0.1-2.5c-0.5-0.7-1.3-1.2-2.1-1.6c-2.1-1.1-4.3-2.2-6.6-3.1c-1.7,5.3-6.5,9.7-12.3,12
		c-17.3,6.8-27.2-4.4-31.8-11.8c-0.3-0.6-1.2-0.2-1,0.5c0.4,1.5,0.9,2.9,1.2,3.5C287,100.1,294.3,114.4,307.1,116.6z"/>
	<path fill="#F7E9E2" d="M324.9,86.1c0.8,1.5,0.8,3.7-0.6,4.7c-1.2,0.9-2.9,0.6-4.2-0.1c-1.5-0.8-2.7-1.9-4-2.9
		c-3.1-2.3-6.7-3.8-10.5-4.2c-1.4-0.2-3.1-0.4-3.6-1.7c-0.5-1.3,0.6-2.7,1.8-3.4c3.5-2,7.3-1,10.7,0.6
		C318.3,80.7,323,82.1,324.9,86.1z"/>
	<path fill="#60423E" d="M228.6,181.6c-0.4,0.4-1-0.2-0.7-0.6c2.9-4.7,10-13.9,19.2-13.4c8.7,0.5,15.6,9.2,18.8,14.1
		c0.3,0.5-0.3,1.1-0.8,0.7c-3.8-3.3-11-8.6-18.7-8.6C238.9,173.8,232,178.7,228.6,181.6z"/>
	<path fill="#F2881D" d="M173.6,262.9c0,0-4.1,9.2-6.9,20.4c-2.7,10.9-3.8,29.8-3.8,29.8s3.8-19.8,9.3-33.8
		c5.5-13.9,13.3-40.9,13.3-40.9L173.6,262.9z"/>
	<path fill="#F2881D" d="M150,300.1c0-0.9,3.7-13.9,11.2-24.4c7.5-10.5,24.3-37.3,24.3-37.3l-13.5,31.7c0,0-8.2,11.8-12.3,19.7
		c-4.2,7.9-8.2,15.6-8.2,15.6L150,300.1z"/>
	<path fill="#60423E" d="M364,310.3c1.5,0,3-0.1,4.5,0.2c1.5,0.3,3,1.1,3.6,2.5c0.6,1.4,0.1,3.3-1.3,3.8c2.4-0.1,4.8,1.7,5,4.1
		c0.2,2.4-2.3,4.7-4.5,3.9c1.1,0.8,1.3,2.6,0.6,3.8c-0.7,1.2-2.2,1.8-3.5,1.9c-1.4,0.1-2.8-0.2-4.1-0.6c-7.2-2-14.2-5.4-19.5-10.6
		c-4.7-4.6-8.6-10.9-9.1-12.1c-2.6-6.2,2.9-9.6,6-9.6c2.2,0,3.6,1.1,5.7,4.8C350.4,307.9,357.7,310.2,364,310.3z"/>
	<path fill="#A9D84C" d="M550.9,497.8c-7.2,0.8-14.3,1.6-21.5,2.4c6.9,2.1,13.9,4.2,20.8,6.3c-10.6,0.7-21.2,1.5-31.9,2.2
		c4.1,3.5,8.3,6.9,12.4,10.3c-7.1-1.4-14.1-3.6-20.8-6.7c1.2,2.5,3,4.7,5.2,6.4c-4.8-3.6-54.5-15.5-27.1-24.1
		C507.1,488.7,532,494.7,550.9,497.8z"/>
	<path fill="#A9D84C" d="M474.3,492.9c-1,1.9-2.7,3.2-4.2,4.6c-1.5,1.4-3,3.1-3.3,5.2c0.1-0.7,8.2-1.5,9.1-1.7
		c2.3-0.3,7.3,0.4,9.2-0.8c2.8-1.8-0.6-3.3-2.2-3.8C480,495.5,477.1,494.3,474.3,492.9z"/>
	<path fill="#F7E9E2" d="M281.5,135.1c-2.9-7.2-13.9-10-16.1-10.9c-2.7-1-5.6-1.2-8.5-1.3c-11-0.3-26.8,2-26.9,2
		c0,0-9.6,1.2-13.8,8.6c-2.3,4-2.5,9.3,0.3,13.5c2.2,3.3,6.1,5.7,10.1,7.5c12.6,5.8,33,7.4,44.7,1.1
		C280.4,150.6,283.9,140.9,281.5,135.1z"/>
	<path fill="#60423E" d="M267.3,129.2c-0.7-2.4-2.6-4.4-4.8-5.6c-2.2-1.2-4.7-1.7-7.2-1.9c-2.8-0.3-14-0.3-16.8,0
		c-2.5,0.2-5,0.7-7.3,1.9c-2.2,1.2-4.1,3.1-4.8,5.6c-0.7,2.4,0,5.3,2.1,6.8c1,0.7,2.2,1.1,3.3,1.6c1.5,0.7,2.8,1.7,3.8,3
		c1.2,1.5,2,3.3,3.3,4.8c2,2.1,5,3.1,7.9,3.5c2.9-0.4,5.9-1.3,7.9-3.5c1.3-1.4,2.1-3.3,3.3-4.8c1-1.3,2.3-2.3,3.8-3
		c1.1-0.5,2.3-0.9,3.3-1.6C267.2,134.5,268,131.7,267.3,129.2z"/>
	<path fill="#FFFFFF" d="M232.3,127.9c-0.6,1.2-0.3,2.9,0.9,3.5c0.8,0.4,1.7,0.2,2.5-0.1c0.8-0.4,1.5-0.9,2.2-1.3
		c2.3-1.3,5.1-1.5,7.8-1.6c0.7,0,1.5-0.1,2.1-0.4c0.7-0.3,1.2-1,1.1-1.7c-0.4-2.4-6.3-2.2-8.1-2.1
		C238.1,124.4,233.7,125.1,232.3,127.9z"/>
</g>
</svg>
