<?xml version="1.0" encoding="utf-8"?>
<!-- Generator: Adobe Illustrator 17.1.0, SVG Export Plug-In . SVG Version: 6.00 Build 0)  -->
<!DOCTYPE svg PUBLIC "-//W3C//DTD SVG 1.1//EN" "http://www.w3.org/Graphics/SVG/1.1/DTD/svg11.dtd">
<svg version="1.1" id="Layer_1" xmlns="http://www.w3.org/2000/svg" xmlns:xlink="http://www.w3.org/1999/xlink" x="0px" y="0px"
	 width="189.2px" height="187.9px" viewBox="0 0 189.2 187.9" enable-background="new 0 0 189.2 187.9" xml:space="preserve">
<g>
	<path fill="#FF9255" d="M130.3,172.2c-0.1-0.1-0.2-0.1-0.4-0.2l-0.9,14.6c19.6,0.5,19.8-14.5,19.8-14.5
		C139.7,178.3,135.5,175.3,130.3,172.2z"/>
	<path fill="#FF9255" d="M127.5,187.9c7.2-10.1,15.8-39.5-4.9-44.9l-7.5-36.9l-56.7,15.3l14.1,66.5H127.5z"/>
	<path fill="#FFC37B" d="M74.1,187.9c2.3-9.6,1.5-23.9-4-34.6c-1.2-2.4,0.4-19.9,0.4-19.9l-17.3-20.2c0,0,0.6,35.1,1.9,43.9
		c0,0,12.2,14.5,11,30.9H74.1z"/>
	<path fill="#FFA35F" d="M73,164.5c1,3.5,1.8,6.8,2.2,10c-0.3-7.1-1.4-15.3-4.7-21.6c-1.2-2.4,1.4-19.4,1.4-19.4L52,112.4
		c0,0,1.3,15.2,1.9,27.8C60,138.5,68.5,149.3,73,164.5z"/>
	<path fill="#FFC37B" d="M74.1,187.9H59.2c0,0,0.9-6.1,3-6.8c2.1-0.7,8.7,1.7,8.7,1.7L74.1,187.9z"/>
	<path fill="#FFC37B" d="M101.2,187.9c-2.1-9.5-1.5-26.5,4.3-37.2c1.3-2.4,0.6-17,0.6-17l16.2-23.7c0,0,2.6,36.7,1.1,45.4
		c0,0-15,16.1-14.3,32.4H101.2z"/>
	<path fill="#FFA35F" d="M100.1,175.1c0.5-4.5,1.6-9.4,3.3-14.3c5.2-14.4,14.2-22.9,20.2-20.7c0,0,0.1,0,0.1,0.1
		c-0.3-13.5-0.1-32.7-0.1-32.7l-19.4,25c0,0,2,15.4,0.7,17.8C101.3,156.9,100.3,166.8,100.1,175.1z"/>
	<path fill="#FFB469" d="M84.7,160c-12.6-5.7-44.9-39.5-45.4-63.9c0,0,21.2-46.7,36.1-55.1c11.9-6.7,29.1,0.1,34.1,6.1
		c5,6,18.7,40.5,21.4,52.9C130.9,99.9,101.5,151.7,84.7,160z"/>
	<path fill="#FFC37B" d="M84.7,158.7c-11.4-5.7-38.3-39.1-38.7-63.3c0,0,16.8-46.2,30.3-54.5c10.8-6.6,26.4,0.1,30.9,6
		c4.5,6,15,40,17.5,52.3C124.7,99.3,100,150.5,84.7,158.7z"/>
	<g>
		<path fill="#FFB469" d="M62.8,56.1c-7.2,3.7-11.5,9.3-11.5,9.3l9.3-2.9L62.8,56.1z"/>
		<path fill="#FFB469" d="M58,62.2c-6.8,4-10.7,9.6-10.7,9.6l9-3.3L58,62.2z"/>
		<path fill="#FFB469" d="M54,67.7c-6,4.5-9,10.6-9,10.6l8.2-4.1L54,67.7z"/>
		<path fill="#FFB469" d="M50.4,74.6c-5.6,4.8-8.1,10.9-8.1,10.9l7.7-4.4L50.4,74.6z"/>
		<path fill="#FFB469" d="M46.2,84.1c-5.4,4.7-8,10.8-8,10.8l7.5-4.2L46.2,84.1z"/>
		<path fill="#FFB469" d="M42.8,90.4c-4.2,5.6-5.4,12.1-5.4,12.1l6.3-5.6L42.8,90.4z"/>
		<path fill="#FFB469" d="M40.6,98.4c-1.3,6.8,0.4,13.2,0.4,13.2l3.2-7.6L40.6,98.4z"/>
	</g>
	<g>
		<path fill="#FFB469" d="M111.8,55.1c6.7,4.3,10.5,10.3,10.5,10.3l-8.9-3.7L111.8,55.1z"/>
		<path fill="#FFB469" d="M116,61.6c6.4,4.5,9.7,10.5,9.7,10.5l-8.6-4.1L116,61.6z"/>
		<path fill="#FFB469" d="M119.4,67.5c5.5,5,8,11.3,8,11.3l-7.7-4.8L119.4,67.5z"/>
		<path fill="#FFB469" d="M122.4,74.6c5.1,5.2,7.1,11.5,7.1,11.5l-7.2-5L122.4,74.6z"/>
		<path fill="#FFB469" d="M125.7,84.4c4.9,5.1,6.9,11.5,6.9,11.5l-7-4.9L125.7,84.4z"/>
		<path fill="#FFB469" d="M128.5,91c3.7,6,4.2,12.6,4.2,12.6l-5.7-6.1L128.5,91z"/>
		<path fill="#FFB469" d="M129.9,99.2c0.7,6.9-1.5,13.1-1.5,13.1l-2.5-7.9L129.9,99.2z"/>
	</g>
	<path fill="#FFE8CA" d="M104.3,81.3l-42.8-5.1c-11.9,8.4-14.9,22.7-14.9,22.7c-0.6,9.6,2.5,21,7.4,31.7
		c10.4,14.2,23.4,24.4,30.5,27.6c6.7-3.3,15.5-11.5,23.5-22.5c6.8-15.8,10-30.7,10-30.7C115.3,94.3,104.3,81.3,104.3,81.3z"/>
	<path fill="#EFCEA8" d="M110,130.4c-8.7,11-18.1,21.1-25.3,24.3c-7.5-3.1-21.3-14.5-32.4-28.2c0.5,1.3,1.1,2.7,1.7,4
		c10.4,14.2,23.6,26.2,30.7,29.4c6.7-3.3,15.3-13.4,23.3-24.3c1-2.2,1.8-4.4,2.7-6.6C110.4,129.5,110.2,130,110,130.4z"/>
	<path fill="#4F2A28" d="M74.1,89c0,1.2-0.2,3.1,2.8,4.1c3,1,6.3,1.4,7,1.2c0.7-0.2,3.6-3.3,3.6-3.3l-5.7-3.3L74.1,89z"/>
	<path fill="#FFC37B" d="M68.9,46.5c-1.7-0.8-4.3-2.6-5-5.2C62.6,36.9,71.6,4.5,78.3,0c0,0,8.1,27.2,5.9,39.5L68.9,46.5z"/>
	<path fill="#E25E54" d="M69.3,42.5c-1.3-0.6-3.2-2-3.8-3.9c-1-3.4,5.9-27.8,10.9-31.2c0,0,6.1,20.6,4.5,29.8L69.3,42.5z"/>
	<path fill="#FFC37B" d="M94.2,39.1C91.4,34.7,99,8.6,97.3,0.1c0,0,9.1,6.1,12,17.2c2.9,11.1,6.6,33.2,2.4,32.5
		C107.5,49.1,94.2,39.1,94.2,39.1z"/>
	<path fill="#CE413E" d="M96.1,37.1c-2.3-3.6,4-25.5,2.6-32.6c0,0,6.6,4.3,9.1,13.6c2.4,9.3,5.6,28.3,2.1,27.7
		C106.4,45.2,96.1,37.1,96.1,37.1z"/>
	<path fill="#AA533F" d="M0,76.5l0.4,7.1c0,0,46.9,1.5,74.3,9.7c27.4,8.2,44.6,7.9,61.5,4.6c20.1-3.9,41.4,1.2,51.7,5.5l1.3-0.6
		c-21.4-9.5-42.8-8.4-62-5.6C108,100,70,89.8,63.6,87.5C47.6,81.9,0,76.5,0,76.5z"/>
	<path fill="#913A2C" d="M59.2,86.2c-2.2,0.7-3.9,1.5-5.1,2.6c7.3,1.2,14.5,2.7,20.6,4.6c12.2,3.7,22.4,5.6,31.4,6.4
		c0.1-1-0.1-2-0.7-3c-18-2.2-37.4-7.6-41.9-9.2C62.3,87.1,60.8,86.6,59.2,86.2z"/>
	<path fill="#AA533F" d="M113.4,99.7c5.9,0.9,19.6,5.5,23.6,9.6c8.2,8.2,14.1,26.8,21.5,29.8v-0.5c-8.9-7.6-10.8-21.6-19-30.3
		c-2.8-2.9-17.1-9.8-17.1-9.8L113.4,99.7z"/>
	<path fill="#EFCEA8" d="M83.5,88.4c-2.9,2.9-12.4,4.3-18.1-0.9c-5.7-5.2-5.4-9-2.2-12.3c3.2-3.3,17.1-0.8,19.1,1.6
		C84.3,79.3,83.5,88.4,83.5,88.4z"/>
	<path fill="#EFCEA8" d="M79.4,88c1.7,3.7,10.1,10.8,17.2,7.8c7.1-3,9.6-11.4,7.7-15.6c-1.9-4.2-16.2-4-18.9-2.4
		C82.5,79.4,79.4,88,79.4,88z"/>
	<path fill="#FFE8CA" d="M84.2,87.3c-2.9,2.8-12.4,4.1-18.1-0.8c-5.7-4.9-5.4-8.5-2.2-11.6c3.2-3.2,17.1-0.8,19.1,1.5
		C85.1,78.7,84.2,87.3,84.2,87.3z"/>
	<path fill="#FFE8CA" d="M80.1,86.9c1.7,3.5,10.1,10.2,17.2,7.4c7.1-2.8,9.6-10.7,7.7-14.7c-1.9-4-16.2-3.8-18.9-2.3
		C83.3,78.8,80.1,86.9,80.1,86.9z"/>
	<path fill="#FFC37B" d="M82.1,79.2c3.2,1.5,14.6,7.1,21.1,5.1c6.4-2,1.8-9-1.7-10.7c-3.5-1.7-16.5-0.4-18.8,0.6
		C80.3,75.1,82.1,79.2,82.1,79.2z"/>
	<path fill="#FFC37B" d="M85,78.2c-3.3,1.2-14.5,2.3-20.7-0.5c-6.2-2.8-2.9-6.3,0.8-7.7c3.7-1.4,17.7,1.5,19.9,2.7
		C87.2,74,85,78.2,85,78.2z"/>
	<path fill="#68413C" d="M98.5,66.4c0.4-1.6,0.2-3-0.4-3.2c-0.6-0.1-1.5,1.1-1.9,2.7c-0.4,1.6-0.2,3,0.4,3.2
		C97.2,69.2,98.1,68,98.5,66.4z"/>
	<path fill="#68413C" d="M75.6,62.9c0.2-1.7-0.2-3-0.9-3.1c-0.7,0-1.3,1.3-1.5,2.9c-0.2,1.7,0.2,3,0.9,3.1
		C74.7,65.9,75.4,64.6,75.6,62.9z"/>
	<path fill="#EFCEA8" d="M72.6,96.6c0,0,3.7,6.5,13.6,3C79.9,99.6,76.8,98.9,72.6,96.6z"/>
	<path fill="#FFA35F" d="M116.4,187.9h14.9c0,0-0.7-6-2.8-6.8c-2.1-0.7-8.7,1.7-8.7,1.7L116.4,187.9z"/>
	<path fill="#FFC37B" d="M101.2,187.9h14.9c0,0-0.7-6-2.8-6.8c-2.1-0.7-8.7,1.7-8.7,1.7L101.2,187.9z"/>
	<path opacity="0.5" fill="#FFE8CA" d="M67.4,55.8c-1.1,0.9,0.1,3.8,2.1,2.1c5-4.2,8.7-0.6,8.6-2.5C78,53.5,71.4,52.6,67.4,55.8z"/>
	<path opacity="0.5" fill="#FFE8CA" d="M106.5,60.4c0.8,1.1-1,3.7-2.5,1.5c-3.5-5.3-7.8-2.6-7.2-4.4
		C97.5,55.7,103.7,56.4,106.5,60.4z"/>
	<path fill="#68413C" d="M83.1,86.3c-4.3-0.6-10.9-6.6-10.3-10.5c0.6-4,21.6-0.5,22.6,1.2C96.5,78.7,88.9,87.1,83.1,86.3z"/>
	<path fill="#4F2A28" d="M84.3,79c-4.9-0.6-9.1-1.9-11.5-3.4c0,0.1,0,0.1-0.1,0.2c-0.6,4,6,9.9,10.3,10.5c4.7,0.7,10.5-4.6,12-7.6
		C92.5,79.3,88.6,79.5,84.3,79z"/>
	<path fill="#331717" d="M79.8,83.6c-2.3-0.7-5.9-4.1-4.9-4.8c1-0.7,3.9,0.6,4.5,1.2C79.9,80.6,79.8,83.6,79.8,83.6z"/>
	<path fill="#331717" d="M84.9,84.8c2.7-0.2,7.3-2.7,6.4-3.6c-0.9-0.9-4.5-0.3-5.2,0.2C85.4,81.8,84.9,84.8,84.9,84.8z"/>
	<path fill="#895B58" d="M94,77.6c0-0.6-1.3-1.2-3.3-1.5c-2.5-0.3-4.8,0.1-4.3,1c0.4,0.8,2.7,1.4,4.8,1.4C92.8,78.6,94,78.2,94,77.6
		z"/>
	<path fill="#895B58" d="M84.6,76.9c0-0.4-0.8-0.8-2.1-1c-1.6-0.2-3,0.1-2.7,0.7c0.2,0.5,1.7,0.9,3,0.9
		C83.9,77.5,84.6,77.2,84.6,76.9z"/>
	<path fill="#CE413E" d="M76.4,7.4c-1.2,0.8-2.4,2.7-3.7,5.3c0,0,0,0,0,0c2.8,0.5,6.7,14.4,6.2,25.4l1.9-0.9
		C82.5,28,76.4,7.4,76.4,7.4z"/>
	<path fill="#E25E54" d="M107.8,18.1c-1.1-4.1-2.9-7.2-4.7-9.4c-3.1,4-4.2,17.6-1.4,29.4c0.3,1.3,0.6,2.6,1,3.8
		c2.7,1.9,5.7,3.7,7.2,3.9C113.4,46.4,110.2,27.4,107.8,18.1z"/>
</g>
</svg>
