<?xml version="1.0" encoding="utf-8"?>
<!-- Generator: Adobe Illustrator 17.1.0, SVG Export Plug-In . SVG Version: 6.00 Build 0)  -->
<!DOCTYPE svg PUBLIC "-//W3C//DTD SVG 1.1//EN" "http://www.w3.org/Graphics/SVG/1.1/DTD/svg11.dtd">
<svg version="1.1" id="Layer_1" xmlns="http://www.w3.org/2000/svg" xmlns:xlink="http://www.w3.org/1999/xlink" x="0px" y="0px"
	 width="326.6px" height="160.7px" viewBox="0 0 326.6 160.7" enable-background="new 0 0 326.6 160.7" xml:space="preserve">
<g>
	<path fill="#FFC37B" d="M154.6,50.3c3.9-6.8,22.8-27.3,29.9-27.3c1.7,0-11.1,29.1-18.5,41.7L154.6,50.3z"/>
	<path fill="#FFB469" d="M153.9,48.7C157.5,42.4,178,23,184.5,23c1.6,0-18.3,31.4-23.6,36.1L153.9,48.7z"/>
	<path fill="#FFA35F" d="M20.9,82.7c-5.4-4.3-9.3-18.9,4.5-28.1c0,0-1.8,16.1,12.8,23.6L20.9,82.7z"/>
	<path fill="#FFA35F" d="M33.3,159.4h6.9c0,0,0.3-6.5,13.3-19c3.8-3.7-10.1-25.2-20-14.9C27.6,131.8,33.3,159.4,33.3,159.4z"/>
	<path fill="#FFA35F" d="M33.5,159.4h11.2c0,0-0.6-4.5-4.2-4.1C36.8,155.7,33.5,159.4,33.5,159.4z"/>
	<polygon fill="#845E4F" points="228.8,70.7 242.6,72.4 231.2,43.5 203.9,42.2 223.1,48.1 	"/>
	<path fill="#FFC37B" d="M107.5,61.9C64.1,93.5,39.7,61,22.6,76.2c-39.6,35.2-16.2,70.4-11.5,83.2h7.3c-0.3-9.6,13.9-24.1,13.9-24.1
		c52.3,25.7,95.2,2.6,95.2,2.6S119.7,52.9,107.5,61.9z"/>
	<path fill="#FFA35F" d="M107.5,61.9c-8.7,6.4-16.7,10.1-24,12.2c-2.5,5.3-5,13.3-3,38c1.4,16.8-10.9,24.8-31.4,20.7
		c-6.7-1.3-12.6-4-17.6-7.6c-9.1,9.2-20,13.1-28.1,8.9c-0.8-0.4-1.5-0.8-2.1-1.4c2.5,11.7,7.8,21.2,9.8,26.6h7.3
		c-0.3-9.6,14.5-22.8,14.5-22.8c52.3,25.7,94.6,1.3,94.6,1.3S119.7,52.9,107.5,61.9z"/>
	<path fill="#FFA35F" d="M66.2,140.1c0,0-0.6-9.8,3.2-18.2l3,22L66.2,140.1z"/>
	<path fill="#FFC37B" d="M87.3,159.4h9.6c0,0-5.5-17.6-5.7-23.8c-0.2-6.3-6.3-36.6-11.5-36.8c-5.2-0.2-12.4,30.2-11.3,40.6
		C68.3,139.3,83.2,152.2,87.3,159.4z"/>
	<path fill="#FFA35F" d="M91.1,135.6c-0.2-6.3-5.8-40.1-10.9-40.3c-2.4,4.5,7.8,36.7,2,57.6c2.1,2.4,4,4.7,5,6.6h9.6
		C96.8,159.4,91.3,141.8,91.1,135.6z"/>
	<path fill="#FFA35F" d="M115.6,159.4h9.2c0,0,15.8-27.6,13.8-32.5c-2-4.8-22.8-4.7-23.5-0.9C114.3,129.8,115.6,159.4,115.6,159.4z"
		/>
	<path fill="#FFB469" d="M112.9,154.4c-22.8-7.9-42.3-44-16-97.5c0,0,34.4-15.9,43.5-15.8c10.4,0.2,26.3,21.5,26.6,26.5
		c0.4,5-2.5,40.1-4.5,47C158.5,128.7,112.9,154.4,112.9,154.4z"/>
	<path fill="#FFC37B" d="M115.3,147.9c-21.6-7.3-40.1-40.6-15.2-90.1c0,0,32.6-14.7,41.3-14.6c9.9,0.2,24.7,20.2,25.1,24.9
		c0.3,4.6-2.2,36.8-4.1,43.1C158.6,124.1,115.3,147.9,115.3,147.9z"/>
	<path fill="#FFE8CA" d="M126.6,85.9c-9-2.2-40.2,26.8-36.4,48.4c5.6,10.8,14.1,17.6,22.4,20.4c0,0,39.7-20.4,47.7-36
		c-6.4-4.2-13.1-14.2-22.1-19.4C126.3,92.4,134.9,87.9,126.6,85.9z"/>
	<path fill="#F7D9B5" d="M115.3,150.5c-8.8-3-18.3-16.7-24.2-28c-0.5,2.9-1.4,9.1-0.9,11.8c5.6,10.8,14.1,17.6,22.4,20.4
		c0,0,35.8-18.4,46.3-33.6C144.3,135.6,115.3,150.5,115.3,150.5z"/>
	<path fill="#FFC37B" d="M178.9,108.8c-1.5-6-14.7-11.7-13.7-19.1c0,0-20.9,1.2-7.5,26.3L178.9,108.8z"/>
	<path fill="#FFC37B" d="M124.3,55.5c-3.6-2.4,5.2-28.1,8.9-55.5c3.1-1,18.3,26.2,10.7,48.5L124.3,55.5z"/>
	<path fill="#CE413E" d="M126.3,47c-0.4-4.3,4.2-18.2,7.7-38.3c2.3-0.5,13.8,21.6,7.5,37.6L126.3,47z"/>
	<path fill="#FFE8CA" d="M128.1,112.7c5.4,8.5,28,11.8,37.7,8c0,0,8-13.5,2.3-12.2c-12,2.6-32.2-10-38.7-15.6
		C123.8,88.2,124.6,107.2,128.1,112.7z"/>
	<path fill="#68413C" d="M165.3,120.8c-3.7,0-9.5-8.9-8.9-13.5c0.7-4.7,20.4-1.6,22.3,0.9C180.6,110.6,168.6,120.8,165.3,120.8z"/>
	<path fill="#593431" d="M170.1,111.1c-6.6,0-12.1-1.6-13.6-3.8c-0.6,4.7,5.2,13.5,8.9,13.5c2.7,0,11.3-6.9,13.2-10.7
		C176.2,110.7,173.2,111.1,170.1,111.1z"/>
	<path fill="#3A1E1C" d="M165,118.2c-2.1-0.8-6.9-4.9-5.8-6.3c1.1-1.4,5.4,0.8,6.9,2.2C167.6,115.4,166.5,118.7,165,118.2z"/>
	<g>
		<path fill="#68413C" d="M150.8,116.4c-14.4-3.5-29.8-15-26.1-29.7l2.2,1.6c-3.4,13.4,9.1,24,24,27.6L150.8,116.4z"/>
	</g>
	<path fill="#68413C" d="M162.2,90.3c0.9-0.5,0.9-1.6,0-2.3c-0.9-0.8-2.3-1-3.2-0.5c-0.9,0.5-0.9,1.6,0,2.3
		C159.9,90.5,161.4,90.8,162.2,90.3z"/>
	<path fill="#68413C" d="M145.8,86.7c0.8-0.5,0.8-1.6-0.1-2.3c-0.9-0.7-2.3-0.9-3.2-0.4c-0.8,0.5-0.8,1.6,0.1,2.3
		C143.6,87.1,145,87.2,145.8,86.7z"/>
	<path fill="#B28D74" d="M167.3,158.8l147.3,0c0,0,18.9-44,7.7-83.1c0,0-94,1-132.4-20.7C189.9,55,155.2,106.9,167.3,158.8z"/>
	<path fill="#936C61" d="M322.3,75.7c0,0-1,0-2.9,0c-24.9,85-134.1,72.6-154.7,57c-0.2,8.5,0.5,17.3,2.5,26.1l147.3,0
		C314.6,158.8,333.4,114.7,322.3,75.7z"/>
	<polygon fill="#C69F85" points="202.8,66.2 203.9,42.2 216.3,43.2 210.4,69.5 	"/>
	<path fill="#936C61" d="M304.5,83.6c-10.6,3.6-106.7-3.1-118.5-7.3c0,0,2-6.2,2.7-9C222.1,80.4,308,81.6,304.5,83.6z"/>
	<path fill="#936C61" d="M301.4,96.4c-10.5,3.7-107.2-2.9-122.7-3.9c0,0,1.2-6,1.6-8.8C214,91,304.7,94.3,301.4,96.4z"/>
	<path fill="#936C61" d="M284.5,112.7c-9.3,4.9-96.6,0.2-110.8,0.4c0,0,0.8-6.6,1-9.6C205.7,108.5,287.4,110.2,284.5,112.7z"/>
	<path fill="#936C61" d="M261.1,132.9c-6.7,5-78,0.7-89.4,1c0,0-0.5-6.6-0.8-9.6C196.8,129,263.1,130.3,261.1,132.9z"/>
	<path fill="#FFC37B" d="M87.3,159.4h13.4c0,0-0.8-4.4-5.2-4.6C88.6,154.5,87.3,159.4,87.3,159.4z"/>
	<path fill="#FFA35F" d="M119.9,159.4h13.4c0,0-0.7-4.5-5.1-4.1C123.9,155.7,119.9,159.4,119.9,159.4z"/>
	<path fill="#68413C" d="M128.1,90.2l0.5,0.2c0.2-4.6-4.3-5.3-6.4-2.4c0,0,0,0,0,0l0.6,0.2C124.7,86.7,127.5,87.3,128.1,90.2z"/>
	<path opacity="0.5" fill="#FFE8CA" d="M138.3,79.4c-2.5,1-3-4.2,0-4.8c3.1-0.6,11.2,1.4,11.7,3.8c0.5,2.4-0.5,2.7-2.5,1.8
		C145.6,79.3,140.3,78.7,138.3,79.4z"/>
	<path opacity="0.5" fill="#FFE8CA" d="M163.4,86.8c0.9,2.1,3.2-2.1,1.9-4.2c-1.4-2.1-6.4-4.2-7.6-2.4c-1.2,1.8-0.8,2.6,0.6,2.7
		C159.7,83.1,162.7,85.2,163.4,86.8z"/>
	<path fill="#936C61" d="M200.7,60.1c-2.8-1.2-5.4-2.5-7.8-3.9c0,0-33.1,51.3-21.5,102.5l8.5,0C170.8,113.9,195,69.7,200.7,60.1z"/>
	<path fill="#DBB79E" d="M198.6,57.1c-3-1.3-5.9-2.6-8.4-4.1c0,0-36,53.8-23.4,107.6l9.3,0C166.1,113.7,192.4,67.2,198.6,57.1z"/>
	<path fill="#7A544B" d="M325.7,118.3c2.8-22.7-1.6-42.3-3.4-42.6c-1.8-0.3-7.7,19.1-10.5,41.9c-2.8,22.7,0.8,40.9,2.6,41.1
		C316.2,158.9,322.9,141,325.7,118.3z"/>
	<path opacity="0.45" fill="#B28D74" d="M309.8,156.8c-1.5-3-3.2-10.2-3.2-10.2l-89.8,7.9L309.8,156.8z"/>
	<path fill="#C69F85" d="M176.8,111.9c-3.4-0.4-6.6-1.2-9.6-2.5c-3.4,15.8-4.5,33.5-0.4,51.3l9.3,0
		C172.5,143.8,173.6,127,176.8,111.9z"/>
	<path fill="#FFC37B" d="M11,159.4h11.2c0,0-0.6-4.5-4.2-4.1C14.3,155.7,11,159.4,11,159.4z"/>
	<path fill="#FFC37B" d="M21.2,131.1c-0.3,6.8-1.4,18.7-6.7,19.9S1.2,136.1,1.9,131.1C2.6,126.1,21.2,131.1,21.2,131.1z"/>
	<path fill="#FFA35F" d="M31,136.7c5.1-2.8,8.5-15.9,6.5-27.1c0,0-0.2,15.4-14.9,23.2L31,136.7z"/>
	<path fill="#E25E54" d="M128.5,46.9c-0.3-3.7,3.4-16.5,6.3-33.9c1.8-0.5,10.5,19.2,5.5,33.2L128.5,46.9z"/>
	<path opacity="0.33" fill="#DBB79E" d="M240.3,74.3c-37.5,30.7-38.6,65-38.6,65l21.3-0.3c40-40.6,82.6-60.5,82.6-60.5L240.3,74.3z"
		/>
	<polygon opacity="0.96" fill="#DBB79E" points="191.6,55.5 196.3,57.4 182.3,72.5 	"/>
</g>
</svg>
