<?xml version="1.0" encoding="utf-8"?>
<!-- Generator: Adobe Illustrator 17.1.0, SVG Export Plug-In . SVG Version: 6.00 Build 0)  -->
<!DOCTYPE svg PUBLIC "-//W3C//DTD SVG 1.1//EN" "http://www.w3.org/Graphics/SVG/1.1/DTD/svg11.dtd">
<svg version="1.1" id="Layer_1" xmlns="http://www.w3.org/2000/svg" xmlns:xlink="http://www.w3.org/1999/xlink" x="0px" y="0px"
	 width="235.6px" height="122.1px" viewBox="0 0 235.6 122.1" enable-background="new 0 0 235.6 122.1" xml:space="preserve">
<g>
	<polygon fill="#F2D4BB" points="65.2,43.9 58.9,69.4 73.3,66.1 76.8,40.9 	"/>
	<polygon fill="#D3AC8C" points="62.8,61.8 59.8,64.6 60,70.2 72.3,65.9 	"/>
	<path fill="#D3AC8C" d="M33.1,70.7c0,0,6.9,10.9,9.2,11.3c2.3,0.4,9.6-2.7,9.6-2.7l-0.3,7.1l-23.2,0.9L24,75.8L33.1,70.7z"/>
	<path fill="#D3AC8C" d="M210.6,106.7c-0.7-8-6.7-14.5-13.4-14.5c-6.7,0-11.6,6.4-11,14.4s6.7,14.5,13.4,14.5
		C206.4,121.1,211.3,114.7,210.6,106.7z"/>
	<polygon fill="#D3AC8C" points="226,93.2 197.2,92.2 199.7,121.1 220.4,121.1 	"/>
	<path fill="#F2D4BB" d="M235.6,107.2c0.8-7.8-4-14.1-10.8-14.1c-6.7,0-12.8,6.2-13.6,14c-0.8,7.8,4,14.1,10.8,14.1
		C228.7,121.2,234.8,115,235.6,107.2z"/>
	<path fill="#996152" d="M228.8,107.5c0.3-3.2-1.5-5.8-3.9-5.8c-2.4,0-4.7,2.6-4.9,5.8c-0.3,3.2,1.5,5.8,3.9,5.8
		C226.3,113.3,228.5,110.7,228.8,107.5z"/>
	<path fill="#FFE1CA" d="M196,117.4c8.9-1.1,13.9-20.9,26.7-24.1l-28.4-0.7c-11.4,2-13.4,28.2-19.8,28.4L196,117.4z"/>
	<path fill="#D3AC8C" d="M164.2,89c8.1-3.2,11.5,31.2,31.8,28.4c0,0-16.3,6.7-27,4.1c-10.7-2.6-15.8-18.8-15.8-18.8L164.2,89z"/>
	<path fill="#F2D4BB" d="M165.8,88.8c-3,1-0.2,30.1-2.9,31.2c-2.7,1.1-18.9-0.6-19.7-1.5c0,0,3-2.5,2.6-6.8
		c-0.4-4.3,2.9-16.7,4.3-18.6C151.6,91.2,163.4,87.9,165.8,88.8z"/>
	<path fill="#D3AC8C" d="M108.3,37.8c10.4,0,24.3,13.6,28.6,25.8c4.3,12.1,18.8,59.2,26.2,56.3c0,0-6.1,4-18.7-0.9
		c-11.2-4.4-17.2-49.8-23.9-53.9C113.9,60.9,108.3,37.8,108.3,37.8z"/>
	<path fill="#FFC37B" d="M147.6,121.8l-55.8-0.2c0,0,10.2-11.3,22.9-11.1c12.7,0.2,21.3,5.2,21.3,5.2S146.4,111.8,147.6,121.8z"/>
	<path fill="#FFA35F" d="M7.7,121.2l108.2,0.4c0,0,10-25.1,6.5-37.3c-3.5-12.1-42.2-36.8-49.4-25.6c-7.2,11.2-12.5,21.9-29.3,19.9
		C26.8,76.8,8.7,76.6,2.5,89.2C-5.3,105.3,7.7,121.2,7.7,121.2z"/>
	<path fill="#FFB469" d="M58.3,121.5l12.2-9.3c0,0-9.5-9.9-14.8-7.1C46.2,110.2,58.3,121.5,58.3,121.5z"/>
	<path fill="#FFB469" d="M32.7,118.9c-0.1-6.5-6.2-44.2-14-34.3c-22.3,28.2,4.8,36.7,4.8,36.7L32.7,118.9z"/>
	<path fill="#FFB469" d="M45.8,121.4c0,0-0.6-6.3-5.5-6.8c-4.9-0.6-16.9,6.8-16.9,6.8L45.8,121.4z"/>
	<path fill="#FFB469" d="M93.6,38c0,0-6.7-33.4-4.4-37.9c0.7-1.3,24.1,14.5,23,44.3C112,47.9,93.6,38,93.6,38z"/>
	<path fill="#E25E54" d="M103.2,39.1c0,0-11.4-31.3-9.8-35.1c0.5-1.1,18,14.5,17.6,38.1C111.1,45.1,103.2,39.1,103.2,39.1z"/>
	<path fill="#CE413E" d="M93.5,4c-0.3,0.7-0.1,2.5,0.3,4.9c4.3,3.6,14.9,16.3,15.8,33.9c0.9,0.2,1.5,0.1,1.5-0.7
		C111.5,18.5,94,2.9,93.5,4z"/>
	<path fill="#FFC37B" d="M83.7,34.6c-5.3,2.8-23.4,21.6-23.4,60c0,0,5.6,18.8,49.4,24.3c0,0,14.8-10.8,20.1-23.7
		c0,0,4.6-39.5-19.4-56.3C104.4,34.6,91.8,30.2,83.7,34.6z"/>
	<path fill="#FFB469" d="M67,94c0-31.3,10.1-50.7,17.4-59.8c-0.3,0.1-0.5,0.2-0.8,0.3c-5.3,2.8-23.4,21.6-23.4,60
		c0,0,4.9,16.2,40.8,22.9C71.3,109.4,67,94,67,94z"/>
	<path fill="#FFE8CA" d="M94,79.9c-10.5,7.5-19.6,20.6-18.7,29c13.7,8.8,25.8,8.8,34.4,9.8c0,0,15.2-10.8,20.6-23.5
		C135.8,83.1,108,91.2,94,79.9z"/>
	<path fill="#EFCEA8" d="M110.5,115.5c-8.7-1.1-21.1-2.4-34.9-10.7c-0.3,1.5-0.4,2.9-0.3,4.2c13.7,8.8,25.9,9.8,34.4,10.8
		c0,0,15.1-11.8,20.6-24.5c0.6-1.3,0.8-2.3,0.7-3.2C124.9,104.2,110.5,115.5,110.5,115.5z"/>
	<path fill="#EFCEA8" d="M80.2,111.3l0-0.2l-4.8-2.4c0.5,2.3,5.2,5.7,5.2,5.7L80.2,111.3z"/>
	<path fill="#EFCEA8" d="M126.7,100.3l-0.1-0.2l3.1-4.1c0.6,2.3-2,7.4-2,7.4L126.7,100.3z"/>
	<path fill="#EFCEA8" d="M124.1,104.3l-0.1-0.2l3.1-4.1c0.6,2.3-2,7.4-2,7.4L124.1,104.3z"/>
	<path fill="#EFCEA8" d="M121.5,107.7l0-0.2l3.7-3.7c0.2,2.4-3,7-3,7L121.5,107.7z"/>
	<path fill="#EFCEA8" d="M118.5,110.7l0-0.2l3.7-3.7c0.2,2.4-3,7-3,7L118.5,110.7z"/>
	<path fill="#EFCEA8" d="M115.4,113.8l0-0.2l3.7-3.7c0.2,2.4-3,7-3,7L115.4,113.8z"/>
	<path fill="#EFCEA8" d="M112.1,117.2l0-0.2l3.7-3.7c0.2,2.4-3,7-3,7L112.1,117.2z"/>
	<path fill="#FFC37B" d="M75.9,45.6c3.3,1.5,20.6-1.7,14.7-12.5C88.1,28.5,62.5,2.2,59,3.8C56.6,5,66.1,41.1,75.9,45.6z"/>
	<path fill="#E25E54" d="M75.2,41.7c2.6,1.2,16.2-1.3,11.5-9.9c-1.9-3.6-22.1-24.3-24.9-23C60,9.8,67.5,38.2,75.2,41.7z"/>
	<path fill="#FFC37B" d="M114,121.6l-55.8-0.2c0,0,5.8-11,18.5-10.8c12.7,0.2,21.3,5.2,21.3,5.2S112.8,111.7,114,121.6z"/>
	<path fill="#FFB469" d="M74.2,113.8c-0.1-1.1,0.4-2.2,1.3-3.2c-11.8,0.5-17.2,10.8-17.2,10.8l55.8,0.2c0-0.2-0.1-0.4-0.1-0.6
		C101.8,121.9,74.5,118.5,74.2,113.8z"/>
	<path fill="#68413C" d="M105.7,64.9c0-1.4-0.7-3.2-1.6-3.2c-0.9,0-1.6,1.8-1.6,3.2c0,1.4,0.8,1.8,1.7,1.9
		C105.1,66.7,105.7,66.3,105.7,64.9z"/>
	<path fill="#68413C" d="M118.5,63.5c0-1.4-0.7-2.6-1.5-2.6c-0.8,0-1.4,1.1-1.4,2.5c0,1.4,0.6,1.7,1.4,1.7
		C117.8,65.2,118.5,65,118.5,63.5z"/>
	<path fill="#FFA35F" d="M3.1,73.2C-0.7,78.9,1.2,87.3,5,88.6l7.2-4.9C8.9,83.1,3.1,73.2,3.1,73.2z"/>
	<path fill="#FFC37B" d="M125,71.1c0,0,12.5,7.3,13.2,10.4c0.6,2.4-21.6-2.1-21.6-2.1S121.7,70,125,71.1z"/>
	<path fill="#FFE8CA" d="M94,79.9c0.7,6.9,21.1,22.7,32.2,9.8c3.4-3.9-3.7-8.4-3.7-8.4S109.6,86.4,94,79.9z"/>
	<path fill="#FFE8CA" d="M120.7,89.6c0.7,4.7,6.4,6.6,10.3,4.5c3.9-2.2,8.7-8,5.6-13.1C134,76.6,120,84.9,120.7,89.6z"/>
	<path fill="#68413C" d="M130.5,91.3c-3.3,0.4-14.1-6.7-13.2-9.1c0.9-2.4,11.8-4.1,14.6-3.7c4.7,0.7,7.8,2.4,8.5,4.3
		C141.6,85.8,135.9,90.6,130.5,91.3z"/>
	<path fill="#FFE1CA" d="M51.1,66.5c0,0-11.8,23-11,41l18-5.1c0,0-1.2-22.3,4.8-40.5L51.1,66.5z"/>
	<path fill="#FFA35F" d="M25.4,119.1c0.8-10.7,6.7-33.4,9.7-41.4l-11.7-0.7c0,0-16,22.3-15,43.2L25.4,119.1z"/>
	<g>
		<path fill="#AA533F" d="M90.3,76.2l2.4-1.4c0.1,0.2,5.5,20.8,27.1,20.1l0,0.6C104.5,96,93.8,85.9,90.3,76.2z"/>
	</g>
	<path fill="#4F2A28" d="M117.7,81.6c-0.2,0.2-0.3,0.3-0.4,0.5c-0.9,2.4,9.9,9.5,13.2,9.1c5-0.6,10.1-4.7,10.1-7.7
		C136.6,85,121.2,84.8,117.7,81.6z"/>
	<path fill="#381C1B" d="M129.8,90c-1.5,0.3-7-2.5-6.2-3.5c0.8-1,7.5-0.7,8.6,0C133.2,87.4,130.5,89.9,129.8,90z"/>
	
		<ellipse transform="matrix(1 3.993138e-003 -3.993138e-003 1 0.3295 -0.5374)" fill="#89615D" cx="134.7" cy="82.2" rx="3.8" ry="1.2"/>
	<path fill="#703D33" d="M224.1,107.8c1.3-0.7,2.5-1.2,3.7-1.5c-0.2-2.3-1.6-4-3.4-4c-2.2,0-4.1,2.3-4.4,5.1c-0.1,1,0.1,2,0.4,2.8
		C221.5,109.3,222.8,108.5,224.1,107.8z"/>
	<path fill="#CE413E" d="M86.7,31.9c-1.9-3.6-22.1-24.3-24.9-23c-0.2,0.1-0.3,0.7-0.3,1.6c4,0.8,21,21.2,22.7,24.7
		c0.9,1.9,0.9,3.5,0.4,4.7C87.3,38.3,88.8,35.7,86.7,31.9z"/>
	<path fill="#AA533F" d="M87.7,76.7c0,0,4.2,0.6,6.8-3.9l-1.8-1.2c0,0-1.9,3.8-4.7,4.5L87.7,76.7z"/>
	<path opacity="0.5" fill="#FFE8CA" d="M105.3,55.6c-2.1,0.1-7,2.5-8,7.1l-3.6-2c0,0,1.4-7.7,11.1-6.7L105.3,55.6z"/>
	<path opacity="0.5" fill="#FFE8CA" d="M110.3,56.1c1.7-0.8,7.9-1.1,10.6,2.7l0.6-3.4c0,0-5.1-4.8-11.4-1L110.3,56.1z"/>
	<path fill="#FFB469" d="M72.8,106.3l0-0.2l-4.8-2.4c0.5,2.3,5.2,5.7,5.2,5.7L72.8,106.3z"/>
	<path fill="#FFB469" d="M69,103.6l0-0.2l-4.4-3.5c0.4,2.2,3.8,6.9,3.8,6.9L69,103.6z"/>
	<path fill="#FFB469" d="M65.6,100.2l-5.3-6.1c0.4,3.8,5,10.4,5,10.4L65.6,100.2z"/>
	<path fill="#FFB469" d="M62.7,82.4l0.9-13.5c-1.5,3.3-4.3,16.6-4.3,16.6L62.7,82.4z"/>
	<path fill="#FFB469" d="M63,92.5l-1.9-9.6c-1.1,3.5-1.8,14.4-1.8,14.4L63,92.5z"/>
	<path fill="#FFE1CA" d="M21.2,118c0.8-10.7,8.8-39.3,11.8-47.3l-13.1,2.6c0,0-16.7,24.9-15.7,45.8L21.2,118z"/>
</g>
</svg>
