<?xml version="1.0" encoding="utf-8"?>
<!-- Generator: Adobe Illustrator 17.1.0, SVG Export Plug-In . SVG Version: 6.00 Build 0)  -->
<!DOCTYPE svg PUBLIC "-//W3C//DTD SVG 1.1//EN" "http://www.w3.org/Graphics/SVG/1.1/DTD/svg11.dtd">
<svg version="1.1" id="Layer_1" xmlns="http://www.w3.org/2000/svg" xmlns:xlink="http://www.w3.org/1999/xlink" x="0px" y="0px"
	 width="187.8px" height="120.5px" viewBox="0 0 187.8 120.5" enable-background="new 0 0 187.8 120.5" xml:space="preserve">
<g>
	<path fill="#FFA35F" d="M53.8,56.1c0,0-12.4-3.7-16.4,10l10.3,2.5C46.8,64.6,47.5,58.8,53.8,56.1z"/>
	<path fill="#FFC37B" d="M127.9,51.5C128,26.5,146.2,11.4,145,0c0,0,13,16.3,0.6,48.9L127.9,51.5z"/>
	<path fill="#E25E54" d="M129.3,50.7c2-20.9,16.4-34.9,17.3-42.4c0,0,4.6,15.3-4.6,40.3L129.3,50.7z"/>
	<path fill="#CE413E" d="M147.4,13c-0.3-3.1-0.8-4.8-0.8-4.8c-0.9,7.6-15.3,21.6-17.3,42.4l1.8-0.3C133.7,33,144.5,20.7,147.4,13z"
		/>
	<path fill="#FFC37B" d="M161.7,47c10.2-8.1,11.8-28.4,14.8-34.1c0,0,15.8,19.6-4.7,50.4L161.7,47z"/>
	<path fill="#E25E54" d="M163,48.2c8.6-6.3,11.3-23.2,14-27.8c0,0,9.6,15.9-6.4,41.5L163,48.2z"/>
	<path fill="#CE413E" d="M177.7,21.9c-0.4-0.9-0.7-1.4-0.7-1.4c-2.7,4.5-5.4,21.5-14,27.8l2.4,4.2C172.6,46.5,175.2,28.8,177.7,21.9
		z"/>
	<path fill="#FFA35F" d="M19.7,97.1c-5.4-5.6,8.2-32.9,18.7-34.7C49,60.6,58,72.5,61.8,74.8c3.9,2.3,18.5,7.7,41.3-7.2
		c22.8-14.9-3.6,50.1-3.6,50.1L19.7,97.1z"/>
	<path fill="#FFC37B" d="M55.9,69.7c6.2,9.5,5.7,29.6,14.3,31.8c8.6,2.2,22.7-28.2,22.7-28.2C74.8,79.8,64.9,78.6,55.9,69.7z"/>
	<path fill="#FFC37B" d="M58.1,104.5c3.5-11.6,3.7-34.3-11.6-41.1c-13-5.8-21.3,7.8-24.7,17.7C16,98.1,58.1,104.5,58.1,104.5z"/>
	<path fill="#FFC37B" d="M90.9,119.4c-5.9-10-5.1-34.9,10.5-57.5c0,0,28.5-19.5,44.4-19.3c15.9,0.3,23.6,3.3,26.2,12.6
		c2.6,9.2,9.5,33.4,8,44.9C178.4,111.7,101.1,122.3,90.9,119.4z"/>
	<path fill="#FFB469" d="M172.3,56.5c1.8,12.2,3.1,29.1,2,37.5c-1.4,10.7-67.8,20.5-85.8,19.7c0.6,2.2,1.3,4.2,2.3,5.8
		c10.3,2.8,87.5-7.7,89.1-19.3C181.4,89.1,175.1,66.6,172.3,56.5z"/>
	<path fill="#FFE8CA" d="M145.7,94.1c-4.1,10.4-17.8,10-21.1,10.5c-3.2,0.5-17.3-5.1-19.3-9c-1.9-3.9-4.5-6.9-14.1-2.2
		c-1.4,0.7-2.5,1.7-3.4,3.1c-1.2,9.8,0.1,18,3,22.8c8.2,2.3,59.6-4.1,80.4-12.6C167,85.3,149.7,83.8,145.7,94.1z"/>
	<path fill="#F94343" d="M19,120.5h151c0,0,23.9-21.6,16.4-26c-7.5-4.4-41.5,22.2-64.4,20.9C99,114.1,58.6,109.6,38,95.7
		s-36.6-20.6-37.9-9C-1.6,101.8,19,120.5,19,120.5z"/>
	<path fill="#E52525" d="M88.2,111.9l-3.3,8.7H72c0,0-4.1-3,4.3-9.6L88.2,111.9z"/>
	<g>
		<path fill="#E52525" d="M3.1,81.5c-1.7,0.9-2.7,2.5-3,5.1C-1.6,101.8,19,120.5,19,120.5h22.5C28.3,117.9-3.6,94.7,3.1,81.5z"/>
		<path fill="#E52525" d="M186.3,94.5c-0.8-0.5-1.9-0.6-3.2-0.4c7.3,5.4-17.4,22.8-30.9,26.4h17.7C169.9,120.5,193.8,99,186.3,94.5z
			"/>
	</g>
	<path fill="#68413C" d="M112.7,110.1c-2.4-0.7-14.5-9.3-13.3-11.7c2.4-4.6,11.2-5.2,14.2-4c3.1,1.2,11.6,8.1,11.6,10.2
		C125.3,106.7,115.7,111,112.7,110.1z"/>
	<g>
		<path fill="#68413C" d="M128.9,85.9l0.2-0.3c0,0.1,4.8,5.4,13.1,2.7l0,1.8C135.8,91.5,130.9,88.8,128.9,85.9z"/>
	</g>
	<g>
		<path fill="#68413C" d="M109.2,79.4l0.7-2.2c0,0.1,3.8,7.5,12.2,5.7l0.1,0.4C115.9,84.6,111.2,82.3,109.2,79.4z"/>
	</g>
	<g>
		<path fill="#68413C" d="M122,110.5c-2.3,0-4.4-0.2-6.3-0.7l0.2-0.7c9.1,2.1,25.1-0.8,30.5-11.7l0.7,0.3
			C142.7,106.7,131.2,110.5,122,110.5z"/>
	</g>
	<path fill="#68413C" d="M146.1,97.4c0.6,0.1,0.9,1.5,0.8,3.1c0,0.1,0.1,0.2,0.2,0.3c0.1,0,0.2,0,0.3-0.2c0.2-0.6,0.3-1.2,0.3-1.7
		c0-1.7-0.8-2.8-1.4-2.8c-0.2,0-0.5,0.2-0.7,0.6c-0.1,0.1-0.1,0.3,0,0.5S146,97.4,146.1,97.4C146.1,97.4,146.1,97.4,146.1,97.4z"/>
	<path fill="#4F2A28" d="M106.8,103.5c-1.9-0.4-3.8-1-5.5-1.6c3.3,3.4,9.7,7.8,11.4,8.3c3,0.8,12.5-3.5,12.5-5.6
		c0-0.6-0.6-1.4-1.5-2.4C120.4,104.4,113.9,105,106.8,103.5z"/>
	<path fill="#351817" d="M114.2,109.4c-1.7,0-6.8-3.4-5.7-3.9c1.2-0.6,8.5,1.8,8.5,1.8S116.5,109.4,114.2,109.4z"/>
	<path fill="#9B6D6A" d="M109.9,95.3c0-1.4-3.5-0.2-6.1,0.6c-2.2,0.7-3.4,2-3.1,3c0.3,0.9,1.9,1.4,3.8,1
		C106.8,99.6,109.9,96.6,109.9,95.3z"/>
	<path opacity="0.5" fill="#FFE8CA" d="M130.8,76.6c0,0,5.9,7.9,15.7,6.1c0.1-1.3,0.7-4.3,0.7-4.3s-7.9,2-15.1-3.6L130.8,76.6z"/>
	<path opacity="0.5" fill="#FFE8CA" d="M124.9,73.3c0,0-9.4,3.1-16.3-4.1c0.5-1.4,1.9-3.9,1.9-3.9s5.3,6.2,14.3,5.8L124.9,73.3z"/>
	<path fill="#FFC37B" d="M63.5,110.9c0.3,5.4,8.7,10.9,14.5,5.3c3.1-3,7.1-4.1,10.1-4.3c0,0-0.9-6.9-0.9-6.9
		C74.5,103,63.3,106.8,63.5,110.9z"/>
	<path fill="#FFB469" d="M87.4,104.9c-1.7-0.2-3.3-0.4-4.9-0.5c-0.6,2.6-1.5,5.3-2.8,8c-0.8,1.7-1.7,3.2-2.7,4.6
		c0.4-0.3,0.8-0.6,1.1-0.9c3.1-3,7.1-4.1,10.1-4.3C88.2,111.9,87.4,104.9,87.4,104.9z"/>
	<g>
		<path fill="#AC6DC6" d="M56.5,15.9c-0.1,0.1-0.3,0.4-0.4,0.5c-0.1,0.1-0.1,0.1-0.1,0.1c-0.1,0.1-0.3,0.3-0.5,0.6
			c-0.1,0.2-0.3,0.3-0.3,0.4c-0.1,0.1-0.1,0-0.2,0c-0.1-0.1-0.2-0.1-0.4-0.3c-0.2-0.1,0-0.2,0.1-0.4c0.2-0.3,0.6-0.7,0.9-1.1
			c0.3-0.3,1.1-1.2,1.3-1.4c0.1-0.1,0.2-0.3,0.4-0.5c0.3-0.3,0.6-0.7,0.7-0.9c0,0,0,0,0-0.1c0.1-0.1,0.2,0,0.2,0
			c0.1,0.1,0.3,0.2,0.4,0.5c0.1,0.2,0.5,2,0.7,2.6c0.1,0.4,0.3,1.3,0.5,2.3l0.4,1.8c0.1-0.1,0.2-0.2,0.3-0.3
			c0.2-0.2,0.4-0.4,0.6-0.6c0.3-0.4,0.5-0.6,0.8-0.9c0.3-0.3,1-1.3,1.2-1.5c0.2-0.2,0.3,0,0.4,0.1c0.1,0.1,0.5,0.4,0.6,0.6
			c0,0,0,0,0.1,0c0.1,0.1,0.1,0.1,0,0.2c-0.1,0.1-0.2,0.3-0.5,0.7c-0.1,0.1-0.2,0.3-0.4,0.5c-0.3,0.4-0.8,0.8-1,1.1L60.5,22
			c-0.3,0.3-0.4,0.1-0.5,0c-0.1-0.1-0.6-0.6-0.7-0.7c-0.1-0.1-0.1-0.4-0.2-0.8c-0.1-0.3-0.5-2.2-0.6-2.6c-0.1-0.4-0.4-1.6-0.5-2
			c-0.1-0.2-0.2-0.5-0.3-0.8l-0.2-0.4c0,0,0,0.1-0.1,0.1L57.3,15L56.5,15.9z"/>
		<path fill="#AC6DC6" d="M66.6,33.5c-0.3,0.1-1.6,0.6-2.5,0.9c-0.3,0.1-0.6,0.2-0.7,0.3c-0.4,0.2-0.5,0.1-0.5,0
			c0-0.1-0.1-0.2-0.1-0.4c0-0.1,0-0.1,0.1-0.1c0.1,0,0.3,0,0.4-0.1l1.1-0.4c0.3-0.1,0.9-0.3,1.3-0.5c0.4-0.1,1.2-0.5,1.6-0.6
			c0.3-0.1,0.7-0.2,1-0.3c0.1,0,0.2-0.1,0.2-0.1c0,0,0.1,0,0.1,0c0.2-0.1,0.1,0,0.2,0.1c0,0.1,0.1,0.2,0.1,0.4
			c0.1,0.2-0.2,0.6-0.3,1c-0.1,0.4-0.4,1.6-0.5,2c-0.1,0.4-0.5,1.8-0.6,2.1c-0.1,0.3-0.3,1.1-0.5,1.5c-0.1,0.2-0.1,0.5-0.2,0.8
			l-0.1,0.6c0.6-0.2,1.1-0.4,1.5-0.5c0.8-0.3,1.5-0.6,1.6-0.6c0.2-0.1,0.8-0.3,1.1-0.3l0.8-0.3c0,0,0,0,0,0c0.1,0,0.1,0,0.1,0.1
			c0,0,0.1,0.2,0.2,0.3c0,0.1,0,0.1-0.1,0.2c0,0-0.1,0-0.2,0c-0.2,0.1-0.5,0.1-0.8,0.3c-0.3,0.1-2.3,0.9-2.7,1.1
			c-0.4,0.2-1.8,0.7-2,0.8c0,0-0.1,0-0.1,0c-0.2,0.1-0.2-0.1-0.2-0.1c0-0.1,0-0.3,0-0.5c0.1-0.2,0.6-2.2,0.8-2.6
			c0.2-0.4,0.7-2.2,1-3.1c0.2-0.4,0.3-1,0.4-1.5l0.2-0.8l-0.7,0.3C67.2,33.2,66.8,33.4,66.6,33.5z"/>
		<path fill="#AC6DC6" d="M89.2,39.6c-0.2,0.2-0.5,0.5-0.8,0.7c-0.1,0.1-0.2,0.1-0.3,0.2c-0.1,0.1-0.6,0.4-1,0.7
			c-0.3,0.2-0.5,0.4-0.6,0.4c-0.2,0.1-0.2,0-0.3-0.1c-0.1-0.1-0.2-0.3-0.4-0.5c-0.2-0.2,0.1-0.3,0.3-0.5c0.4-0.3,1.1-0.9,1.6-1.4
			c0.5-0.4,2-1.5,2.3-1.7c0.1-0.1,0.4-0.3,0.8-0.6c0.5-0.4,1.2-0.9,1.3-1.1c0,0,0.1-0.1,0.1-0.1c0.2-0.2,0.3,0,0.3,0.1
			c0.1,0.1,0.4,0.5,0.4,0.8c0,0.3,0.2,3,0.2,4.1c0,0.6,0.1,2.1,0.1,3.5l0.1,2.7c0.2-0.1,0.4-0.2,0.6-0.4c0.3-0.2,0.7-0.5,1-0.7
			c0.6-0.5,0.9-0.8,1.4-1.2c0.5-0.4,1.9-1.6,2.2-1.8c0.3-0.2,0.4,0,0.6,0.2c0.2,0.2,0.6,0.8,0.7,1c0,0,0,0.1,0.1,0.1
			c0.1,0.2,0.1,0.2,0,0.3c-0.1,0.2-0.4,0.3-0.9,0.9c-0.2,0.2-0.4,0.4-0.8,0.6c-0.6,0.5-1.4,1-1.7,1.3l-3.3,2.6
			c-0.5,0.4-0.6,0.1-0.8-0.1c-0.1-0.2-0.7-1-0.9-1.2c-0.2-0.2-0.1-0.7-0.1-1.3c0-0.5-0.1-3.4-0.1-4c-0.1-0.6-0.1-2.4-0.1-3.1
			c0-0.4-0.1-0.8-0.2-1.2L91,38.2c0,0-0.1,0.1-0.1,0.1l-0.3,0.2L89.2,39.6z"/>
	</g>
</g>
</svg>
