<?xml version="1.0" encoding="utf-8"?>
<!-- Generator: Adobe Illustrator 17.1.0, SVG Export Plug-In . SVG Version: 6.00 Build 0)  -->
<!DOCTYPE svg PUBLIC "-//W3C//DTD SVG 1.1//EN" "http://www.w3.org/Graphics/SVG/1.1/DTD/svg11.dtd">
<svg version="1.1" id="Layer_1" xmlns="http://www.w3.org/2000/svg" xmlns:xlink="http://www.w3.org/1999/xlink" x="0px" y="0px"
	 width="125.5px" height="188.9px" viewBox="0 0 125.5 188.9" enable-background="new 0 0 125.5 188.9" xml:space="preserve">
<g>
	<path fill="#FFC37B" d="M80,2.6c3.2,10.3-8.9,25.1-6.1,39.2L92,54.6C103.4,24.1,80,2.6,80,2.6z"/>
	<path fill="#E25E54" d="M82.6,11c2,7.9-8.7,18.7-7.2,29.4l13.1,10.4C96.9,27.5,82.6,11,82.6,11z"/>
	<path fill="#CE413E" d="M82.2,9.7c1.1,6.1-6.7,18.2-7,28c2.7-8,8-16.6,8.3-22c0,0,10.7,15.9,4.8,34.9l0.1,0
		C96.9,27.5,82.2,9.7,82.2,9.7z"/>
	<path fill="#FFC37B" d="M45.2,47.8c-5.4-1.4-10.2-15.3-5.6-27c4.5-11.7,5.2-19.7,4.5-20.8C43.4-1,60,13.9,59,37.7L45.2,47.8z"/>
	<path fill="#E25E54" d="M45.7,46.1c-4.2-1.1-7.4-12.2-3.4-21.4c3.9-9.3,4.7-15.7,4.2-16.5c-0.5-0.8,11.8,11,10.3,29.9L45.7,46.1z"
		/>
	<path fill="#CE413E" d="M46.1,7.3c-0.1,1.4,0,8-3.9,17.3c-1.1,2.6-1.6,5.3-1.7,7.9c1.5-6,7.6-13.1,7.8-20c1.4,2.5,8,10.6,7.3,26.4
		l1.2-0.9C58.3,19.2,47.4,8.5,46.1,7.3z"/>
	<path fill="#FF8E55" d="M14.4,188.7c-15-15.4-22.9-44.2,0-51.7c0,0,6.3-41.3,17.1-47.5s49.2,14.2,52.9,25.8
		c3.8,11.7-2.5,73.3-2.5,73.3H14.4z"/>
	<path fill="#FFA35F" d="M17.1,188.7L17.1,188.7h17.3c0,0-5.9-8-11.9-8.3C13.5,179.8,17.1,188.7,17.1,188.7z"/>
	<path fill="#FFA35F" d="M37.4,188.9c-2.4-8.9-9.5-36.3-15.5-41.7c0,0,0-23.4,5.8-36.2l18.2,23.3c0,0-3.3,33.9,1.6,54.5H37.4z"/>
	<path fill="#FF8E55" d="M44.4,165.8c0.2,0.6,0.4,1.2,0.6,1.8c-0.7-16.9,0.9-33.3,0.9-33.3L27.7,111c-3,6.5-4.4,15.8-5.1,23.3
		C29.1,135.1,38.4,148.2,44.4,165.8z"/>
	<path fill="#FFB469" d="M57.1,158.7c-17.1-9-35.3-41.3-35.7-63.3c0,0-8.8-10.2-6.1-22.3C18.1,61,31.5,57,34,56.8
		c0,0,6.1-19.8,25.2-20c19.2-0.2,42.1,4.6,44.6,64C99.1,127.2,83.4,144.1,57.1,158.7z"/>
	<g>
		<path fill="#FFB469" d="M43.2,43.1c0,0-5.8,3-8,5.4l4.2-0.5L43.2,43.1z"/>
		<path fill="#FFB469" d="M39.6,47.4c0,0-5.1,2-8.2,6.8l4.3-0.8L39.6,47.4z"/>
		<path fill="#FFB469" d="M36.1,52.8c0,0-4.8,2.5-7.3,7.8l4.2-1.2L36.1,52.8z"/>
		<path fill="#FFB469" d="M49.9,39c0,0-4-0.6-12.4,5.8l5.9-1L49.9,39z"/>
	</g>
	<path fill="#FFC37B" d="M57.3,155c-16.1-8.4-33.1-38.8-33.5-59.5c0,0-8.2-9.6-5.7-20.9c2.5-11.4,15.1-15.1,17.4-15.3
		c0,0,7.6-22.3,25.7-22.5c18-0.2,37.6,8,40,63.8C96.7,125.5,82,141.3,57.3,155z"/>
	<path fill="#FFE8CA" d="M62.8,74.1C51,57.1,39.9,56.9,34,56.8C22.2,56.5,3.7,75.5,21.1,94.2c-0.4,4,5.7,48.6,36,64.5
		c24.8-13.7,40.1-29.5,45.8-53.5C100.9,94.5,96,83,94.2,81.3C91.6,78.8,74.7,91,62.8,74.1z"/>
	<path fill="#EFCEA8" d="M101.6,99.5c-5.7,23.2-21.2,41.6-43.7,55C29.5,138.6,22.6,95.8,23,91.8c-8.6-9.9-6.7-21.6-2.4-28.7
		c-7.1,7.1-11.1,20.1,0,32c-0.4,4,6.1,49,36.5,64.9c24.8-13.7,40.2-30.9,45.9-54.8C102.4,102.6,102.3,102,101.6,99.5z"/>
	<path fill="#EFCEA8" d="M35.3,136.6c0,0-0.9,5.1,6.1,14.3l-0.6-6.6L35.3,136.6z"/>
	<path fill="#EFCEA8" d="M30.7,127.7c0,0-1.6,4.9,4.3,15l0.3-6.6L30.7,127.7z"/>
	<path fill="#EFCEA8" d="M28.1,118.7c0,0-2.4,4.6,1.7,15.5l1.4-6.5L28.1,118.7z"/>
	<path fill="#EFCEA8" d="M25,110.4c0,0-2.6,4.5,0.8,15.6l1.7-6.4L25,110.4z"/>
	<path fill="#EFCEA8" d="M22,101.3c0,0-2.6,4.5,0.8,15.6l1.7-6.4L22,101.3z"/>
	<path fill="#EFCEA8" d="M22.8,91.4c0,0-3.8,3.6-3.6,15.2l3.4-5.6L22.8,91.4z"/>
	<path fill="#EFCEA8" d="M40.7,145.3c0,0-0.4,5.2,7.5,13.7l-1.2-6.5L40.7,145.3z"/>
	<path fill="#68413C" d="M76.6,90.8c4.7,0.4,12.5-6.3,11.7-10C87.4,77,81,72.5,64,74.2C61.5,74.4,69.9,90.2,76.6,90.8z"/>
	<path fill="#68413C" d="M54.4,86.1c-5.4-2.1-11-9.2-10.2-18c0,0-14.5,4.8-8.7,15.4C41.7,94.9,54.4,86.1,54.4,86.1z"/>
	<g>
		<path fill="#68413C" d="M88.4,69.1c-2.8-0.4-3.9-7.4-4.6-7.6c-0.8-0.3-3.1,5-7.3,4L76.3,65c4,1,5.8-5.4,7.6-4.9
			c2.2,0.5,1.5,7.6,4.5,8.6L88.4,69.1z"/>
	</g>
	<g>
		<path fill="#68413C" d="M70.5,63.8c-2.8,0.3-5.4-5.9-6.2-5.9c-0.9-0.1-1.9,5.4-6.2,5.4L57.9,63c4.1-0.1,4.4-6.3,6.3-6.4
			c2.2-0.1,3.2,6.7,6.3,6.9L70.5,63.8z"/>
	</g>
	<path fill="#A0463A" d="M43.2,165.5c-2-3.2-0.7-6.4,1.5-6.5c0,0-1.1-2.3,0.5-3.9c1.6-1.6,3.1-0.4,3.1-0.4s-0.5-2.1,1.2-2.5
		c1.8-0.4,3.3,1.1,3.3,1.1s0.3-1.6,2.3-2.1c2-0.5,3.5,0.9,3.5,0.9s0.5-4.3,3.7-3.3c0,0-2.7-2.8-1.6-5.2c1.1-2.4,3.7-2,3.7-2
		s-0.3-2.8,1.5-3.1c1.8-0.3,3.3,0.1,3.3,0.1s0.3-3.2,2.3-3.7c2-0.5,3.3-0.1,3.3-0.1s-1.1-4.1,1.2-5.6c2.3-1.5,3.8-0.3,3.8-0.3
		s0.5-3.7,3.3-3.5c2.7,0.3,3.5,3.3,3.5,3.3s0.3-2.5,2.5-0.7c2.2,1.9,1,3.5,1,3.5s1.5-1.9,3.4-1.3c1.9,0.5,1.6,1.7,1.6,1.7
		s1.1-2.3,3,0c1.9,2.3,0.7,3.5,0.7,3.5s1.2,0.7,1.5,2.9c0.3,2.3-1.9,3.1-1.9,3.1s0.3,0.7,0.8,3.5c0.5,2.8-2.9,2.8-2.9,2.8
		s2-0.4,1.8,2.3c0,0,1-2,2.9-0.9c1.9,1.1,0.4,3.2,0.4,3.2s1.6-1.5,2.6,0.8c1,2.3-1.2,3.6-1.2,3.6s0.5-0.3,2,0.8
		c1.5,1.1-0.5,2.5-0.5,2.5s1.5-0.3,2.6,1.3c1.1,1.6,0,3.5,0,3.5L43.2,165.5z"/>
	<g>
		<path fill="#8C342A" d="M64.4,141.1c0,0.2,0,0.4,0,0.4c0.1,0,0.1-0.1,0.1-0.1S64.5,141.3,64.4,141.1z"/>
		<path fill="#8C342A" d="M104.2,159.9c0,0,2-1.5,0.5-2.5c-1.5-1.1-2-0.8-2-0.8s2.2-1.3,1.2-3.6c-1-2.3-2.6-0.8-2.6-0.8
			s1.5-2.1-0.4-3.2c-1.9-1.1-2.9,0.9-2.9,0.9c0.2-2-0.9-2.3-1.4-2.3c0.8-0.1,3-0.5,2.5-2.8c-0.3-1.7-0.6-2.7-0.7-3.1
			c-1.4,0.1-2.4,0-2.4,0s0,3.2-2.2,3.9c-2.2,0.7-3.5,0.4-3.5,0.4s1.5,4-0.9,5.7c-2.4,1.7-4.1,0.6-4.1,0.6s-0.3,3.8-3.2,3.7
			c-2.9,0-4.1-3-4.1-3s-0.1,2.5-2.6,0.9c-2.5-1.7-1.3-3.4-1.3-3.4s-1.5,2-3.5,1.6c-2.1-0.4-1.9-1.6-1.9-1.6c-3,2.7-5.6-1-4.2-3.1
			c0,0-1.4-0.6-1.8-2.8c-0.4-1.9,1.2-2.9,1.7-3.2c0,0-2.6-0.4-3.7,2c-1.1,2.4,1.6,5.2,1.6,5.2c-3.1-0.9-3.7,3.3-3.7,3.3
			s-1.5-1.5-3.5-0.9c-2,0.5-2.3,2.1-2.3,2.1s-1.5-1.5-3.3-1.1c-1.8,0.4-1.2,2.5-1.2,2.5s-1.5-1.2-3.1,0.4c-1.6,1.6-0.5,3.9-0.5,3.9
			c-2.2,0.1-3.5,3.3-1.5,6.5l63.6-0.8c0,0,1.1-1.9,0-3.5C105.7,159.6,104.2,159.9,104.2,159.9z"/>
	</g>
	
		<ellipse transform="matrix(0.9492 -0.3146 0.3146 0.9492 -40.2762 37.8163)" fill="#A0463A" cx="97" cy="143.7" rx="2.6" ry="3.1"/>
	<path fill="#A0463A" d="M96.8,149.6c-0.6-1.3-2.1-2.1-3.4-1.6c-1.2,0.4-1.8,1.8-1.1,3.1c0.6,1.3,2.1,2.1,3.4,1.6
		C97,152.3,97.5,150.9,96.8,149.6z"/>
	<path fill="#A0463A" d="M62.2,152.8c1.1-0.9,1.5-2.5,0.9-3.5c-0.6-1-2.1-1-3.2-0.1c-1.1,0.9-1.5,2.5-0.9,3.5
		C59.7,153.7,61.1,153.7,62.2,152.8z"/>
	<path fill="#A0463A" d="M55.9,155.3c1.2-0.8,1.8-2.3,1.3-3.3c-0.5-1-1.9-1.3-3.2-0.5c-1.2,0.8-1.8,2.3-1.3,3.3
		C53.3,155.8,54.7,156,55.9,155.3z"/>
	<path fill="#A0463A" d="M69.2,156.7c1.4,0.1,2.8-0.7,3-1.9c0.2-1.1-0.8-2.2-2.2-2.3c-1.4-0.1-2.8,0.7-3,1.9
		C66.7,155.6,67.7,156.6,69.2,156.7z"/>
	<path fill="#A0463A" d="M61.1,158.9c1-0.4,1.7-1.4,1.4-2.2c-0.2-0.8-1.3-1.2-2.3-0.7c-1,0.4-1.7,1.4-1.4,2.2
		C59,159,60,159.3,61.1,158.9z"/>
	<path fill="#EA4B62" d="M28.7,188.8c0,0,96.5-0.3,96.8,0c0.6-3.6-11-22.6-18.3-25H40.1C34.3,171.2,31.1,177,28.7,188.8z"/>
	<path fill="#D83050" d="M107.5,163.9c-0.7,9.8-15.5,17.7-33.6,17.7c-18.2,0-33-7.9-33.6-17.8h-0.2c-5.8,7.4-9,13.2-11.4,25
		c0,0,96.5-0.3,96.8,0C126,185.3,114.8,166.7,107.5,163.9z"/>
	<ellipse fill="#A0463A" cx="52" cy="103.1" rx="2.4" ry="2.4"/>
	<ellipse fill="#A0463A" cx="8.1" cy="120.4" rx="2.4" ry="2.4"/>
	<ellipse fill="#A0463A" cx="9.6" cy="86.5" rx="2.5" ry="2.5"/>
	<ellipse fill="#A0463A" cx="31.9" cy="65.7" rx="1.7" ry="1.7"/>
	<path fill="#FFF4E1" d="M52.9,86.2c-4.6-1.8-10.2-9-9.5-16.4c0,0-12.1,4.4-7.2,13.3C41.4,92.6,52.9,86.2,52.9,86.2z"/>
	<path fill="#68413C" d="M36.3,74.6c1.1-1.7,2.7-1.6,3-1.1c0.3,0.5,0.8,2.6,0.8,2.6s0.9-3.2,3.6-3.6l0.1-3.4
		C40.4,70,38.4,71.6,36.3,74.6z"/>
	<path fill="#4C2E2C" d="M78.3,81.7c-6.9-1.4-12.6-4.1-14.7-6.7c0,3.1,7.2,15.4,13,15.8c4.1,0.3,10.5-4.6,11.6-8.4
		C85.3,82.6,81.9,82.4,78.3,81.7z"/>
	<path fill="#301B1B" d="M75.5,83.2c1.3,2.2-1.3,4.9-2.6,4.1c-1.3-0.8-5.5-5.7-5.1-6.5C68.1,80.1,74.6,81.7,75.5,83.2z"/>
	<path fill="#301B1B" d="M80.2,88.5c-2.3,0.7-0.2-2.9,1.3-3.6c1.5-0.7,3.8-1.3,3.5,0C84.7,86.3,82.7,87.8,80.2,88.5z"/>
	<path fill="#875B58" d="M86.7,80.1c-0.2-1.3-1.9-2.8-3.7-3.4c-1.8-0.6-3.1-0.1-2.9,1.1c0.2,1.3,1.9,2.8,3.7,3.4
		C85.6,81.9,86.9,81.4,86.7,80.1z"/>
	<path fill="#EFCEA8" d="M31.4,85c-1.8-3.3-1.7-11.3,4.6-15.2c0,0-5.3-0.1-7,6.8C27.9,80.8,31.4,85,31.4,85z"/>
	
		<ellipse transform="matrix(-0.6816 -0.7317 0.7317 -0.6816 3.3358 192.9117)" fill="#A0463A" cx="43.6" cy="95.7" rx="1.7" ry="1.7"/>
	<path fill="#68413C" d="M41.6,81.3c-1.5-0.5-2.3-4.3-1.5-6.2C41,73.3,39.4,77.8,41.6,81.3z"/>
	<path fill="#FF6986" d="M103.2,165.1c0-0.7-11-0.2-24.5-0.2s-24.5-0.5-24.5,0.2s11,2.3,24.5,2.3S103.2,165.8,103.2,165.1z"/>
	<path fill="#FFB469" d="M97.1,62.3c0,0,4.3,6.6,5.6,10.6L99,70.1L97.1,62.3z"/>
	<path fill="#FFB469" d="M99,69.3c0,0,4,5,5.1,12.2l-3.7-3.1L99,69.3z"/>
	<path fill="#FFB469" d="M100.9,77.8c0,0,3.5,5.4,4,12.6l-3.4-3.5L100.9,77.8z"/>
	<path fill="#FFB469" d="M102.1,86.4c0,0,3.5,5.4,4,12.6l-3.4-3.5L102.1,86.4z"/>
	<path fill="#FFB469" d="M102.9,93.2c0,0,3.3,4,1.6,15.5l-1.5-4.9L102.9,93.2z"/>
	<path fill="#EFCEA8" d="M102.5,104c0,0,2.2,4.7-2.5,15.4l-1-6.5L102.5,104z"/>
	<path fill="#EFCEA8" d="M99.3,113.7c0,0,1.7,4.9-4,15.1l-0.4-6.6L99.3,113.7z"/>
	<path fill="#FFB469" d="M92.7,53.3c0,0,6.6,9.1,9,14L96.6,63L92.7,53.3z"/>
	<path opacity="0.5" fill="#FFE8CA" d="M61,52.5c-3.4,3.2-9.5,2.7-7.2-1c2.3-3.7,13.2-3.9,14.6-1.8C69.8,51.8,64,49.7,61,52.5z"/>
	<path opacity="0.5" fill="#FFE8CA" d="M88.2,58.8c2.5,4.2,5.9,4.9,5.6,1.2c-0.4-4.2-10.3-7.3-12.2-5.4
		C79.9,56.3,86.3,55.5,88.2,58.8z"/>
	<path fill="#EA4B62" d="M109.3,166.2c0,0,9.9,8.1,14.4,20.8h-17.1C106.6,187,112.5,177.6,109.3,166.2z"/>
</g>
</svg>
