<?xml version="1.0" encoding="utf-8"?>
<!-- Generator: Adobe Illustrator 17.1.0, SVG Export Plug-In . SVG Version: 6.00 Build 0)  -->
<!DOCTYPE svg PUBLIC "-//W3C//DTD SVG 1.1//EN" "http://www.w3.org/Graphics/SVG/1.1/DTD/svg11.dtd">
<svg version="1.1" id="Layer_1" xmlns="http://www.w3.org/2000/svg" xmlns:xlink="http://www.w3.org/1999/xlink" x="0px" y="0px"
	 width="124.8px" height="176.7px" viewBox="0 0 124.8 176.7" enable-background="new 0 0 124.8 176.7" xml:space="preserve">
<g>
	<path fill="#FFC37B" d="M83.3,0c3,8.8-5.7,21.4-1.6,31.3L101.2,43C101.4,6.9,83.3,0,83.3,0z"/>
	<path fill="#E25E54" d="M87.5,5.1c1.7,8,0.4,19.6,2.8,28.6L99.6,44C99.3,11.4,87.5,5.1,87.5,5.1z"/>
	<path fill="#CE413E" d="M94.2,38.1l5.4,6c-0.3-32.7-12.1-39-12.1-39c0.1,0.7,0.3,1.4,0.4,2.1C90.5,10.5,95.1,19.1,94.2,38.1z"/>
	<path fill="#A54242" d="M4.3,164.4c0-1-2.1-2.7-2.7-3.1c-2.5-1.6,0.6,7.4,1.5,7.9C3.7,169.6,4.4,165.4,4.3,164.4z"/>
	<path fill="#A54242" d="M3.6,145.1c-1,0.2-2.1,0.9-2.4,1.5c-0.3,0.6,0.3,1,1.3,0.8c1-0.2,2.1-0.9,2.4-1.5
		C5.3,145.3,4.7,144.9,3.6,145.1z"/>
	
		<ellipse transform="matrix(0.9434 -0.3316 0.3316 0.9434 -47.9387 13.6908)" fill="#A54242" cx="16.1" cy="147.3" rx="1.3" ry="2.9"/>
	<path fill="#A54242" d="M107,157.5c-0.1,3.7-1.8,10.4-4,9.2C100.8,165.7,107,157.5,107,157.5z"/>
	<path fill="#FF8E55" d="M14.7,147c6.2,0.2,26.5-29,27.3-59.1l66.1,13.5l-11.6,75.4H37.6L14.7,147z"/>
	<path fill="#FFA35F" d="M38.7,159.4c4.5-26.4,34.9-41.5,54-51L42,87.8C41.2,118,20.9,147.2,14.7,147l22.4,29.1
		C37.3,170.7,37.8,165.1,38.7,159.4z"/>
	<path fill="#FF8E55" d="M17.8,147.8c0,0,13.1,1.1,23.5,11.1l-2.7,7L17.8,147.8z"/>
	<path fill="#FFC37B" d="M111,104l-10.2,19.8l-10.5,52.9h9.3c0.8-4.6,18.9-45.1,18.8-47.3C118.1,127.3,111,104,111,104z"/>
	<path fill="#FFA35F" d="M92.2,173.1c9.4-42.1,23.3-53.8,20.6-63c-0.7-2.4-1.9-6.1-1.9-6.1s-18.6,9.6-14.9,17.9
		c2.8,6.3-5.9,54.8-5.9,54.8h1.3C91.7,175.5,92,174.3,92.2,173.1z"/>
	<path fill="#FFA35F" d="M12,176.7c-10.8-9-16.1-23.9-8.2-31c7.9-7.1,32.3,10.5,47.1,31H12z"/>
	<path fill="#A54242" d="M32.9,171.1c-4.6-2.4,0.6-13.5-3.4-15.8c-4-2.3-5.1,1.4-11.2-3.4c-6.1-4.8-1.3-7.1-3-7.3
		c-1.7-0.2-4.2,8.9-8.6,8.6c-4.3-0.3-2.6-9.4-5.1-7c-2.5,2.4,2.4,13.4,3.3,17.2c0.7,2.9-2.1,2.3-3.1,0.2c-0.1-0.3-0.1,1.2,0.1,2.2
		c0.8,4,2.6,6.4,9.5,10.8h40.6C49.6,171.6,37.5,173.5,32.9,171.1z"/>
	<path fill="#FFC37B" d="M80.5,176.4h-9.7c0,0-21-23.9-23.4-27.3c-1.8-2.4-4.6-29.8,2.7-25.3C65.1,133.4,75.5,149,80.5,176.4z"/>
	<path fill="#FFA35F" d="M52.4,132.7c2-0.8,13.5,6.9,16.5,10.5c-2.9-6.5-3.3-14.6-6.3-19.3c-8.5-13-19.2-15.7-20.4-9.1
		c-2.6,13.2,3.4,32,5.2,34.4c1.5,2,9.2,11,15.4,18.1C51.7,150,48.1,134.3,52.4,132.7z"/>
	<path fill="#FFC37B" d="M35.6,169.2c-11.8-2.1-8,7.5-8,7.5H45C45,176.7,41.9,170.4,35.6,169.2z"/>
	<path fill="#FFC37B" d="M63.8,176.7H79c0,0-2.8-5.6-8.2-6.7C60.5,168.1,63.8,176.7,63.8,176.7z"/>
	<path fill="#FFC37B" d="M107.4,176.7H91.9c0,0,2.8-5.6,8.4-6.7C110.7,168.1,107.4,176.7,107.4,176.7z"/>
	<path fill="#FFC37B" d="M83,144.9c-16.1-8.2-43.8-50-46.8-62.8c0,0,7.3-45.4,30.1-52.3c22.8-6.9,42.9,9.1,58.5,48.6
		C123.4,92.9,95.7,137.6,83,144.9z"/>
	<path fill="#FFE8CA" d="M68.8,74.2c-7.2,1-23.4,26.9-23.4,26.9c3.2,5.7,19.2,34.6,37.4,43.8c9.9-5.6,28.9-33.8,37.5-52.9
		c-1.9-7-4.9-17.5-5.9-18.7C113.1,71.5,76.1,73.2,68.8,74.2z"/>
	<path fill="#A54242" d="M35.8,82.4c-0.6,6.4,1.8,16.9,6.9,20.7s6.7,7.3,9.6,14.5c2.9,7.2,8.7,10,12.2,13.5
		c3.5,3.5,14,12.6,16.3,15.8c2.3,3.2,5.9-3.7,9.4-5.5c3.5-1.8,6.4-10.7,11.3-15.1c4.9-4.4,8.7-10.7,9.3-14.2
		c0.6-3.5-6.1-7.2-5.2-11.9c0.9-4.7-14.7,6.1-20.9-4.4c-6.2-10.5-14.3-9-14.9-14.8c-0.6-5.8,1.3-14.8-4.3-17.4
		c-5.6-2.6-12.2-0.2-12.5-5.8c-0.3-5.6-2.4-16-5.5-12c-3,4-5.5,9.9-6.5,15.1C39.7,66.2,36.6,73.4,35.8,82.4z"/>
	<path fill="#EFCEA8" d="M100.9,123.3c0.3,0.5,0.5,1.3-0.2,2.5c-1.1,1.9-4.6,3.9-2.8,0C98.6,124.1,100.5,122.5,100.9,123.3z"/>
	<path fill="#EFCEA8" d="M98.1,117.8c0.1,2.8,0.8,5.8-1.4,7.1c-1.2,0.7-5.9-0.2-6.5-3.5C89.3,116.1,97.7,105.3,98.1,117.8z"/>
	<path fill="#EFCEA8" d="M76.1,86.1c4.2,4.1,10.3,13.8,13.2,14.4c3,0.6,7-0.1,7-0.1c1.4-0.9,9.9-16.3,9.9-16.3l-14.5-6.2L76.1,86.1z
		"/>
	<path fill="#FFC37B" d="M53.1,42.6C43.1,43,30.7,19,28.5,14c6.4,0.2,25.8-2.7,39.9,17.8L53.1,42.6z"/>
	<path fill="#68413C" d="M74,61.2l4.5-0.8c0,0,0-8.8-1.8-8.7C74.1,51.9,74,61.2,74,61.2z"/>
	<path fill="#68413C" d="M97.4,60.1l3.5,1c0,0-0.5-7.4-2.6-7.9C96.2,52.8,97.4,60.1,97.4,60.1z"/>
	<path fill="#843636" d="M76.4,84.1c4.2,3.8,10.5,12.7,13.5,13.2c3,0.6,7-0.1,7-0.1c1.4-0.8,9.6-15.1,9.6-15.1l-14.6-5.7L76.4,84.1z
		"/>
	<path fill="#FFE8CA" d="M68,77.8c-0.2,3.1,3.7,8.2,7.1,8.7c3.4,0.5,17.2-0.5,19.7-4c2.5-3.5-7.2-7.6-7.2-7.6S68.4,69.8,68,77.8z"/>
	<path fill="#FFE8CA" d="M107.6,85.7c-3,1-15-1.8-16.3-5c-1.9-4.4,8.3-7.6,10.9-7.4c2.6,0.1,10.6-2,12.3,0
		C117.4,76.7,115.5,83,107.6,85.7z"/>
	<path fill="#68413C" d="M96.1,81c-3,1.1-14.4-5.7-14.4-7.8s10.1-5,14.5-4.9c2.7,0.1,9.6,3.2,10.2,4.7C107.5,76,99.4,79.8,96.1,81z"
		/>
	<path opacity="0.64" fill="#A54242" d="M86.5,95.1c1.5,2.3-2.9,10.8-2,12.7c0.9,1.9,7.4,5.8,9.3,5.4c1.9-0.4,5.4-2.9,5.4-4.5
		c0.1-1.6-1.5-10-2.2-10.9C94.7,94.8,84.9,92.7,86.5,95.1z"/>
	<path fill="#E55A5A" d="M86.3,93.9c2.2,1.6,1.1,11.2,2.7,12.6c1.6,1.4,9,2.7,10.6,1.7c1.6-1.1,4-4.6,3.5-6.2s-5-8.8-5.9-9.4
		C93.9,90.7,84,92.2,86.3,93.9z"/>
	<path fill="#A54242" d="M82.9,149.8c-1.8,3-1.3,8.6,0.5,7.9C85.1,157,82.9,149.8,82.9,149.8z"/>
	<path fill="#A54242" d="M46.5,111.4c2.9,2.6,3.3,8.6,1,8.3C45.2,119.4,46.5,111.4,46.5,111.4z"/>
	<path fill="#A54242" d="M92.8,142.1c-2,2-1.3,5.9,0.5,5.4C95.2,147,92.8,142.1,92.8,142.1z"/>
	<path fill="#D64141" d="M95.7,95c0.9-0.5,1.7-0.9,2.6-1.2c-0.5-0.7-0.9-1.2-1.1-1.3c-3.2-1.9-13.1-0.4-10.8,1.3
		c1.6,1.2,1.5,6.3,1.9,9.7C89.1,100.4,91.8,97.2,95.7,95z"/>
	<path fill="#A54242" d="M108.4,107.1c2.3,1.7,3.9,0.1,4.9-2c0.9-2.1,0.2-5.5,1.9-6.8c1.8-1.3,3.1-1.5,3.5-3.7
		c0.5-2.2-0.9-5.9,0.7-7.1c1.7-1.1,3.1,1.3,2.1,4.1s-2.4,4.2-2.6,6.2c-0.2,2-3.3,3.3-3.3,4.5c0,1.3-4.9,14-8,16.5
		C104.5,121.4,108.4,107.1,108.4,107.1z"/>
	<path fill="#542F2D" d="M96.6,73.1c-6.5,0-12.7,1.2-14.7-0.3c-0.1,0.2-0.2,0.3-0.2,0.5c0,2.2,11.4,9,14.4,7.8
		c2.9-1.1,9.4-4.1,10.3-6.8C103.7,74.9,100.7,73.1,96.6,73.1z"/>
	<path fill="#FFC37B" d="M51.4,53.1c0.6,6.1,2.1,10-2.7,14.7c-4.8,4.7-8.9,6.1-7.9,0.2C41.8,62.3,50.1,40.1,51.4,53.1z"/>
	<path fill="#FFC37B" d="M68.8,72.5c-0.4,4.6-5.5,9.1-6.9,6.4c-1.4-2.7,3.1-14,5.2-12.7C67.6,66.6,69.1,68.6,68.8,72.5z"/>
	<path fill="#FFE8CA" d="M111,110.3c-0.4,4.8-6.8,11.9-9.5,9.5c-2.8-2.4,1.1-12.6,3.1-10.6C107.7,112.5,111.2,107.9,111,110.3z"/>
	<path fill="#A54242" d="M110.4,113.9c-0.9,4.5-0.8,6.3-2.5,9.2c-1.8,2.9-2.8,9-1.9,12.6c0.9,3.7-3.7,5-1.8-2.9
		c1.9-7.9,0.5-10.7,0.5-10.7L110.4,113.9z"/>
	<path fill="#A54242" d="M89.6,176.7h19.5c0,0,0.6-3.2-1.3-3.4c-1.9-0.2-2.2,2.7-4.8,2.1c-2.5-0.6-5.2-1.4-3.7-6
		c1.4-4.6,0.8-4.9-1.5-6.6c-2.4-1.8-2.8-5-1.8-8.4c1.1-3.3-1.5-6.8-1.5-6.8s-3.1,24.4-4.9,25C87.7,173.2,88.1,175.5,89.6,176.7z"/>
	<path fill="#A54242" d="M103.2,162.8c-1,2-5.2,1.3-2.5-0.9c2.7-2.2,4.4-2.9,5.7-6c1.3-3.1,2.5-8.6,4.6-10.1c2.2-1.5,2-4.1,2.6-4.7
		c0.6-0.7,2.1,0.3,1.5,2.2c-0.6,1.8-4.6,4.5-5,7.2c-0.5,2.7-0.8,6.3-3.1,7.8C104.7,159.7,103.9,161.5,103.2,162.8z"/>
	<path fill="#E25E54" d="M52.8,39.8c-8.2,0.4-18.3-19.3-20.2-23.4c5.2,0.2,21.1-2.2,32.7,14.6L52.8,39.8z"/>
	<path fill="#CE413E" d="M44.6,20c7.4,3.9,13.1,9.7,15.2,15l5.5-3.9C55.1,16.2,41.5,16.4,34.9,16.5C37.9,17,41.2,18.2,44.6,20z"/>
	<path fill="#A54242" d="M31.3,168.9c-2.2,0.9-4,3.7-1.1,4.1s3.8-2.7,5.1-0.8c1.3,1.8,4.6,0,5.9,4.5H25.7c0,0-1.6-4.5,0.8-6.9
		C29.6,166.9,31.3,168.9,31.3,168.9z"/>
	<path fill="#A54242" d="M52.7,156c-2.2,0.9-3.9-0.8-4.9-3.7c-1.1-2.9-4.2-4.4-4.3-7.2c-0.1-2.8-1.1-10.5-2.7-13.1
		c-1.6-2.6-7.4-6.3-9.8-1.4c-2.4,4.9-3.6,7.3-5.3,6c-1.7-1.3,2.5-4.2,4.3-8.3c1.8-4.1,1.2-6.7,2.4-9.1c1.1-2.4,4.9-4.6,5.9-10.9
		c1-6.3,0.5-10.7,0.5-10.7l7.4,6.1c0,0-4.2,7.9-4,13.7c0.2,5.8,3.8,12.3,5.9,13.2c2.1,1-2.5,5.6-1.9,9c0.6,3.4,0.9,8.4,2.2,10.6
		C50.6,154.1,54.9,155.1,52.7,156z"/>
	<path fill="#D8B18B" d="M52.3,109.1c-2.7-0.8-6.1-3-5.1-8.1C48.5,94.6,52.3,109.1,52.3,109.1z"/>
	<path opacity="0.5" fill="#FFE8CA" d="M71.1,51.2c-2.3,2.8-6.3-0.5-3.8-3.2c2.5-2.7,7.9-5.4,10.4-3.7
		C80.1,46.1,74.7,46.8,71.1,51.2z"/>
	<path opacity="0.5" fill="#FFE8CA" d="M102.7,51.5c2.8,2.2,5.9-1.8,2.9-3.9c-3-2.1-8.8-3.5-10.8-1.3C92.9,48.4,98.2,48,102.7,51.5z
		"/>
	<path fill="#3D1E1D" d="M92.3,79.5c-3.3-1-8.1-4.2-6.4-4.6c1.7-0.4,6.2,0.7,7.2,1.4C94.1,77,93.4,79.8,92.3,79.5z"/>
	<path fill="#3D1E1D" d="M99.7,78.6c-1.9,1.1-4.3,0-0.5-1.9C103.1,74.7,105.1,75.4,99.7,78.6z"/>
	<path fill="#875955" d="M103.3,73.7c-1.5,0.2-6.6-2.7-5.8-3.8C98.3,68.7,108.8,73.1,103.3,73.7z"/>
	<path fill="#A54242" d="M41,34.4c-3.3-1-4.3-1.4-5.9-5.5c-1.7-4.1-2.3-6.4-4.5-7.8c-2.2-1.4-6.9-6-3-7.9c2.4-1.1,3.3,1.4,3.7,3
		c0.5,1.5,3.6,1.4,4.9,4.9c1.3,3.5,1.7,4.1,4.8,7.5C44,32.1,44.6,35.6,41,34.4z"/>
	<path fill="#A54242" d="M40.5,28.8c-3.7-3.3-3.4-6.6-0.9-9.2c2.5-2.6,5.4-4,3-5.6c-2.4-1.7-2.9-0.4-3.7,0.8s-1.9,5.4-4.6,4.7
		c-2.7-0.7,2.3,8.7,2.3,8.7L40.5,28.8z"/>
	<path fill="#A54242" d="M30,24.3c1.4,6.1,2.8,11.6-0.1,10.6C26.9,34,30,24.3,30,24.3z"/>
	<path fill="#8C2F2F" d="M84,99.8L75.7,92C75.7,92,76.5,98.2,84,99.8z"/>
</g>
</svg>
