<?xml version="1.0" encoding="utf-8"?>
<!-- Generator: Adobe Illustrator 17.1.0, SVG Export Plug-In . SVG Version: 6.00 Build 0)  -->
<!DOCTYPE svg PUBLIC "-//W3C//DTD SVG 1.1//EN" "http://www.w3.org/Graphics/SVG/1.1/DTD/svg11.dtd">
<svg version="1.1" id="Layer_1" xmlns="http://www.w3.org/2000/svg" xmlns:xlink="http://www.w3.org/1999/xlink" x="0px" y="0px"
	 width="154.3px" height="132.8px" viewBox="0 0 154.3 132.8" enable-background="new 0 0 154.3 132.8" xml:space="preserve">
<g>
	<path fill="#F7D9B5" d="M143.3,99.4c-0.7-0.3-1.6-3-0.8-3.6c0.8-0.6,3.2,0.7,1.9,3.6L143.3,99.4z"/>
	<path fill="#9E826F" d="M144.9,101.4c-1.7,0.5-3.8-1.3-1.8-2.4C145.1,97.9,147.4,100.8,144.9,101.4z"/>
	<path fill="#F7D9B5" d="M144.4,99.8c-0.6-0.6,0.4-3.4,1.8-3.5c1.5-0.1,3.3,2.2-0.5,4.1L144.4,99.8z"/>
	<path fill="#F7D9B5" d="M118.1,112.7c-0.7,0.3-3.3-0.8-3.2-1.8c0.1-1,2.6-2,4,0.9L118.1,112.7z"/>
	<path fill="#FF8650" d="M15.4,127.9C4.9,129.1-1.4,123,0.3,115.7c0,0,6.4,5.7,14.8,1.8L15.4,127.9z"/>
	<path fill="#FFC37B" d="M28.4,19.7C22.2,23.6,0.4,53,0.1,49.3c-0.3-3.7,5-31.1,18-43.1c10.6-9.8,26.2-4.7,26.2-4.7L28.4,19.7z"/>
	<path fill="#CE413E" d="M26.5,20.4C21.4,23.7,3.3,48,3.1,44.9C2.8,41.9,9,21.2,19.7,11.2c2.5-2.3,5.1-3.8,7.6-4.6
		c1.9-0.7,4,0,5.2,1.5c1.2,1.6,1.1,3.7-0.2,5.2L26.5,20.4z"/>
	<path fill="#FFC37B" d="M78.3,21c6,4.1,25.9,33.9,26.4,30.3c0.5-3.7-3.4-31.8-15.7-44.6c-10.3-10.6-26-5.1-26-5.1L78.3,21z"/>
	<path fill="#CE413E" d="M81.3,22.5c4.7,3.3,20.5,26.8,20.9,23.9c0.4-2.9-3.4-23.4-13.1-33.5c-2.1-2.2-4.3-3.6-6.4-4.5
		c-1.9-0.8-4.1-0.3-5.5,1.3s-1.5,3.9-0.4,5.6L81.3,22.5z"/>
	<path fill="#E25E54" d="M82.5,9.1c-0.7-0.3-1.6-0.1-2.1,0.6c-0.5,0.7-0.5,1.6,0,2.3c6.4,8.8,14.8,19.5,16.9,21.1
		c-1.1-5.9-3.6-13.7-8.3-19.2C86.9,11.6,84.7,10.1,82.5,9.1z"/>
	<path fill="#E25E54" d="M27,7.7c0.7-0.3,1.6-0.1,2.1,0.6c0.5,0.6,0.5,1.5,0,2.2c-6.6,8.4-15,18.6-17.2,20.2
		c1.2-5.6,3.8-13.1,8.6-18.3C22.6,10.1,24.9,8.7,27,7.7z"/>
	<path fill="#FFA35F" d="M82.7,92.2c0,0-0.8-28.7-8.2-44.7c-7.4-16-34.7-19.7-44.3-4.5c-9.6,15.2-14.4,51.7-14.4,51.7
		c-11.7,16.6-8.6,18.9,0,37.5h69.5C103.8,93.1,82.7,92.2,82.7,92.2z"/>
	<path fill="#FFC37B" d="M63.2,93.7l14.2-24c0,0,4.4,30.6,3.9,36.7c-7.1,9.7-11,16.5-15,25.8h-7C59.4,132.2,65.9,115.4,63.2,93.7z"
		/>
	<path fill="#FFAC61" d="M86.5,68.3L63.2,93.7c0.9,7.5,0.8,14.4,0.1,20.3c5.7-7.6,12.1-12,15.2-10.1c1.1,0.7,1.6,2.1,1.7,4
		c0.4-0.5,0.7-1,1.1-1.5C81.8,100.4,86.5,68.3,86.5,68.3z"/>
	<path fill="#FFC37B" d="M42.4,93.7l-15.1-24c0,0-4.6,30.6-4.1,36.7c7.5,9.7,12.2,16.5,16.3,25.8h7C46.5,132.2,39.5,115.4,42.4,93.7
		z"/>
	<path fill="#FFAC61" d="M25.8,100.3c3.5-2.4,10.1,1.6,16,9.1c-0.3-4.8-0.2-10.1,0.5-15.8l-23-21.2c0,0,3.2,27.8,3.7,33.8
		c0.1,0.2,0.3,0.3,0.4,0.5C23.4,103.8,24.2,101.5,25.8,100.3z"/>
	<path fill="#FFB469" d="M54,112.3C42.7,107,10.8,73,11.2,52.2c0,0,18.4-44.6,29.7-49.1C52.1-1.4,64.6,0,70.6,5.6
		c5.9,5.5,23.4,24.3,24.8,49.5C95.4,55.1,91.3,93.7,54,112.3z"/>
	<path fill="#FFC37B" d="M53.9,111.2c-10-5.3-38.5-39.2-38.1-59.8c0,0,14-44.2,24-48.7c10-4.5,26.2-3.2,31.5,2.4
		c5.3,5.5,18.2,24.1,19.5,49.2C90.8,54.2,87.1,92.7,53.9,111.2z"/>
	<path fill="#FFE8CA" d="M73.5,57.4c3.3-3.3,1.4-8.7-2.4-7.9c-9,1.7-8.6,6.4-17.4,6.1c-5.3-0.2-1.8-1.6-11-6.1
		c-9.2-4.5-4.8,5.1-4.8,5.1C26.3,39,21.1,68.1,21.3,78.5C31.5,94.2,46.9,109,54,112.3c22.4-11.2,32.9-29.6,37.6-42.6
		C92.9,38.3,73.5,57.4,73.5,57.4z"/>
	<path fill="#F7D9B5" d="M91.4,62.1c-4.7,12.9-14.5,33.7-37,44.9c-7-3.3-22.5-20-32.8-35.3c-0.3,2.6-0.4,5-0.4,6.8
		C31.5,94.2,46.9,110,54,113.4c22.4-11.2,32.9-30.7,37.6-43.6C91.7,66.8,91.6,64.3,91.4,62.1z"/>
	<path fill="#68413C" d="M45.8,38.3l2.8,0c0,0-0.3-4.7-2.4-4C44.2,35.1,45.8,38.3,45.8,38.3z"/>
	<path fill="#68413C" d="M62.7,39.6l3,0.1c0,0,1.9-3.7-0.4-3.7C63.1,35.8,62.7,39.6,62.7,39.6z"/>
	<g>
		<path fill="#CC7236" d="M30.9,46.6l0,0.4c-2.1-0.8-5,1-5.5,3.4l-1.1-0.6C24.8,47.1,28,45.5,30.9,46.6z"/>
	</g>
	<path fill="#8C4137" d="M118.4,132.8h33.1c6.9-4.4-0.5-8.6-3.4-7.2c0,0-1.3-6.7-11.2-4.6c0,0-16.8-5.7-14.5,3.8
		C119.1,123,112,127.7,118.4,132.8z"/>
	<path fill="#772D28" d="M128.5,130.2c-0.4-1.8,9.2,0.6,22.1-4.7c-0.9-0.2-1.9-0.2-2.6,0.1c0,0-0.1-0.3-0.3-0.9
		c-2.3,2-6.9,3.3-12.2,3.3c-6.4,0-11.8-2-13.4-4.6c0,0.4,0.1,0.9,0.2,1.4c-0.6-0.3-1.3-0.5-2.1-0.4c3.1,0.7,8.8,4,7.8,4.6
		c-1.8,1.1-6.2,3.1-10.1,2.8c-0.3,0-0.5-0.1-0.8-0.1c0.3,0.3,0.7,0.7,1.1,1h33.1c0.6-0.4,1.2-0.8,1.6-1.2
		C147.5,132.5,128.9,132,128.5,130.2z"/>
	<path fill="#8C4137" d="M137,116.3c-2.6-1.8-1.5-4.4-0.6-5.8c0,0-4.4,2.2-3.3,5.5c1.1,3.3-0.6,3.9-0.6,3.9l3.7,1.3
		C139.2,119.9,139.6,118.1,137,116.3z"/>
	<path fill="#9E826F" d="M120.7,112.8c-0.8,1.6-3.5,2-3-0.2C118.2,110.4,121.9,110.5,120.7,112.8z"/>
	<path fill="#F7D9B5" d="M119.2,112.2c-0.9,0-2.3-2.5-1.4-3.7c0.9-1.2,3.8-1.1,2.8,3L119.2,112.2z"/>
	<path fill="#68413C" d="M55.7,60c-1.5-0.1-10.4-6.9-9.6-8.6c0.8-1.6,13.3-3.5,18.4,0C67.5,53.5,55.7,60,55.7,60z"/>
	<path fill="#FFC37B" d="M60.3,29.9c0,0,2.7,9.6,12.7,11.4c0.5-1.2,2.2-3.8,2.2-3.8s-8.2-1-13-8.8L60.3,29.9z"/>
	<path fill="#FFC37B" d="M52.6,27.2c0,0-2.6,9.6-12.5,11.5c-0.9-1.2-2.2-3.8-2.2-3.8S46,33.9,50.7,26L52.6,27.2z"/>
	<path opacity="0.5" fill="#FFE8CA" d="M61.5,24.6c0,0,2.7,9.6,12.7,11.4c0.5-1.2,2.2-3.8,2.2-3.8s-8.2-1-13-8.8L61.5,24.6z"/>
	<path opacity="0.5" fill="#FFE8CA" d="M52.3,21.9c0,0-2.6,9.6-12.5,11.5c-0.9-1.2-2.2-3.8-2.2-3.8s8.2-1.1,12.8-8.9L52.3,21.9z"/>
	<path fill="#CC7236" d="M50.3,61.1c-6.6,0.4-10.9-3-13.1-8.2c-2.6-6.3-14-2.2-7.5,2.6l1-0.4c-5.4-4,3.6-7.1,6.6-0.7
		c2.1,6,7.6,7.1,13.1,6.9L50.3,61.1z"/>
	<path fill="#56302D" d="M56.1,54.3c-4,0-7.5-0.6-9.6-1.6c1.7,2.5,8,7.2,9.2,7.3c0,0,7.6-4.2,9.1-6.9C62.7,53.8,59.6,54.3,56.1,54.3
		z"/>
	<path fill="#3D1E1C" d="M53.5,57.9c0.9,0.4,1.6-1.4,0.9-2c-0.7-0.7-5.1-2.1-4.9-1.2C49.7,55.4,52.4,57.5,53.5,57.9z"/>
	<path fill="#3D1E1C" d="M57.7,57.8c-0.9,0.2-1.3-1.5-0.6-2.1c0.7-0.6,4.7-1.5,4.5-0.7C61.4,55.8,58.7,57.5,57.7,57.8z"/>
	<path fill="#F7D9B5" d="M36.5,60.2c0.5,2,3.5,6.1,12.4,4.9c0,0-5.5,4-10.9,0.5C33.8,62.9,36.5,60.2,36.5,60.2z"/>
	<ellipse fill="#966E6B" cx="61" cy="52.3" rx="2.4" ry="0.9"/>
	<ellipse fill="#966E6B" cx="57.5" cy="50.9" rx="1.8" ry="0.5"/>
	<path fill="#FFC37B" d="M73.1,132.2H60.2c0,0,5.1-3.9,9.3-3.9S73.1,132.2,73.1,132.2z"/>
	<path fill="#FFC37B" d="M93.3,132.2H77.7c0,0,6.1-5.7,11.2-5.7C94.1,126.5,93.3,132.2,93.3,132.2z"/>
	<path fill="#FFC37B" d="M31.7,132.2h11.9c0,0-4-3.9-7.9-3.9C31.7,128.3,31.7,132.2,31.7,132.2z"/>
	<path fill="#FFC37B" d="M7.6,132.2h16.7c0,0-5.6-5.9-11.1-5.9S7.6,132.2,7.6,132.2z"/>
	<g>
		<path fill="#772D28" d="M135,116.6c1.5,3.3-0.3,3.7-2,3.5l3.5,1.1c2.9-1.2,3.7-3.2,1.1-5c-2.3-1.6-2.1-3.7-1.4-5.2
			C135.1,112.3,133.9,114.4,135,116.6z"/>
	</g>
	<path fill="#772D28" d="M131.2,119.6c0.8,0.9,3.1,1.7,5.2,1.8s3.8-0.8,3.8-0.8l-3.7,0.2L131.2,119.6z"/>
	<path fill="#FFB469" d="M26.5,21.7l3.6-7.2c0,0-4.9,3.1-7.5,8.6L26.5,21.7z"/>
	<path fill="#FFB469" d="M23.9,27l3.7-7.2c0,0-5,3-7.5,8.6L23.9,27z"/>
	<path fill="#FFB469" d="M21.9,32.7l2.9-7.5c0,0-5.1,3.2-7,9L21.9,32.7z"/>
	<path fill="#FFB469" d="M18.9,38.8l2.9-7.5c0,0-4.6,3.5-6.6,9.3L18.9,38.8z"/>
	<path fill="#FFB469" d="M15.3,45.9l2.9-7.5c0,0-4.6,3.5-6.6,9.3L15.3,45.9z"/>
	<path fill="#FFB469" d="M13.2,52.2l2.2-7.7c0,0-4.3,4-5.7,9.9L13.2,52.2z"/>
	<path fill="#FFB469" d="M13.3,59.8l-1.2-7.9c0,0-2.2,5.4-1,11.3L13.3,59.8z"/>
	<path fill="#FFB469" d="M16,66l-3.3-7.4c0,0-0.7,5.8,1.9,11.2L16,66z"/>
	<path fill="#FFB469" d="M84,23.5L80.6,17c0,0,4.6,2.7,7,7.6L84,23.5z"/>
	<path fill="#FFB469" d="M86.4,28.2L83,21.8c0,0,4.7,2.6,7,7.6L86.4,28.2z"/>
	<path fill="#FFB469" d="M88.3,33.4l-2.7-6.7c0,0,4.7,2.8,6.6,8L88.3,33.4z"/>
	<path fill="#FFB469" d="M91.1,38.8l-2.7-6.7c0,0,4.3,3.1,6.2,8.3L91.1,38.8z"/>
	<path fill="#FFB469" d="M93.8,45.4l-2.7-6.7c0,0,4.3,3.1,6.2,8.3L93.8,45.4z"/>
	<path fill="#FFB469" d="M94.8,50.8l-2-7c0,0,4,3.5,5.3,8.8L94.8,50.8z"/>
	<path fill="#FFB469" d="M94.4,56l0.2-7.4c0,0,2.7,4.5,2.3,10.1L94.4,56z"/>
	<path fill="#FFB469" d="M93.3,62.4l1.9-7.2c0,0,1.6,5-0.1,10.5L93.3,62.4z"/>
</g>
</svg>
