<?xml version="1.0" encoding="utf-8"?>
<!-- Generator: Adobe Illustrator 17.1.0, SVG Export Plug-In . SVG Version: 6.00 Build 0)  -->
<!DOCTYPE svg PUBLIC "-//W3C//DTD SVG 1.1//EN" "http://www.w3.org/Graphics/SVG/1.1/DTD/svg11.dtd">
<svg version="1.1" id="Layer_1" xmlns="http://www.w3.org/2000/svg" xmlns:xlink="http://www.w3.org/1999/xlink" x="0px" y="0px"
	 width="160.9px" height="161.2px" viewBox="0 0 160.9 161.2" enable-background="new 0 0 160.9 161.2" xml:space="preserve">
<g>
	<path fill="#68413C" d="M69.3,22.9C65.4,23.5,55.9,3.6,57.1,1.4c1.1-2.3,14.4-1.5,15.7,0.9C74.1,4.7,71,22.6,69.3,22.9z"/>
	<path fill="#FFA35F" d="M145.3,141l-4.3,11.4c4.7,2.7,16.4,1.1,20-13C160.9,139.4,153.2,145,145.3,141z"/>
	<path fill="#FFA35F" d="M24.8,161.2h112.6c0,0,17.2-26.5,1.8-35.9c-9.9-6-21.3-1.8-30.9-9.9c-9.6-8.2-24.9-23.1-27.3-33.7
		C78.4,71,20.5,119.6,24.8,161.2z"/>
	<path fill="#FFA35F" d="M92.9,100.5c3.8,2.9,8.9,6.7,10.9,8.3c0,0-4.1-0.5-5.8-0.9C96.3,107.6,92.9,100.5,92.9,100.5z"/>
	<path fill="#FFA35F" d="M87.6,94.7c3.8,2.9,8.9,6.7,10.9,8.3c0,0-4.1-0.5-5.8-0.9C91.1,101.8,87.6,94.7,87.6,94.7z"/>
	<path fill="#FFA35F" d="M97.2,106.4c4.1,2.3,9.6,5.6,11.9,6.9c0,0-4.1,0.1-5.9-0.1C101.5,112.9,97.2,106.4,97.2,106.4z"/>
	<path fill="#FFA35F" d="M103.6,111.8c4.3,2,10.1,4.7,12.4,5.8c0,0-4.1,0.4-5.9,0.4C108.5,118,103.6,111.8,103.6,111.8z"/>
	<path fill="#FFA35F" d="M109.8,117.6c4.9,0.7,10.5,1.5,12.5,1.8c0,0-3.1,1.6-4.6,2.1C116.1,122.1,109.8,117.6,109.8,117.6z"/>
	<path fill="#FFA35F" d="M117.9,120.2c4.7,0.2,11.1,0.5,13.7,0.6c0,0-3.6,2-5.3,2.6S117.9,120.2,117.9,120.2z"/>
	<path fill="#FFC37B" d="M80.1,121.5c-2.4,1.2-32.6,35.9-36.2,39.7h19.4c0,0,9-5.3,12.1-10c6-9,8.3-20.9,10.1-24.5
		C88.3,121.2,82.6,120.3,80.1,121.5z"/>
	<path fill="#FFB469" d="M75.5,151.2c5.9-9,10.8-23.5,11.2-26.3c0.8-6.1-4.4-5.4-6.9-4.2c-2,1-21.7,24.7-30.7,34.5
		C60.2,151.2,72.8,151.5,75.5,151.2z"/>
	<path fill="#FFC37B" d="M22.3,132c-1.5,0.8-7.7,27.4-9.3,29.1h17.7c0,0,2.9-21.1,2.2-25C32.1,132.2,23.7,131.2,22.3,132z"/>
	<path fill="#FFB469" d="M32.9,136.1c-0.7-4-9.1-5-10.6-4.1c-0.8,0.5-3.2,9-5.3,16.8c3.9,2.1,7.8,6.4,10.5,12.1
		c0,0.1,0.1,0.2,0.1,0.3h3.1C30.7,161.2,33.6,140.1,32.9,136.1z"/>
	<path fill="#FFC37B" d="M77.8,64.9c10.1,2.3,28.4,22.2,30.5,31.2c0.7,3-17.7,1.3-22.6-1.9C82.1,90,77.8,64.9,77.8,64.9z"/>
	<path fill="#CE413E" d="M78.3,67.3c8.2,1.9,23.1,18.1,24.9,25.5c0.6,2.5-14.4,1.1-18.5-1.5C81.7,87.7,78.3,67.3,78.3,67.3z"/>
	<path fill="#E25E54" d="M77.7,68.9c8,2.3,21.4,15.7,22.5,21.3c0.4,1.8-14.4-1-18.2-3.3C79.4,84,77.7,68.9,77.7,68.9z"/>
	<path fill="#FFC37B" d="M31.5,157.3c-12.1-7.8-39.8-50.8-29.1-79.2C13,49.7,46.8,4.2,50.7,2.1C54.6,0,68.8,2.5,68.8,5.6
		c0,3.2,1.1,28.8,2.5,34.4c1.4,5.7,14.3,45.2,14.6,55.7C86,104.5,53.9,151.9,31.5,157.3z"/>
	<g>
		<path fill="#FFB469" d="M68.9,8.3c0-1.2-0.1-2.2-0.1-2.6c0-0.1,0-0.3-0.1-0.4C68.7,6.2,68.8,7.2,68.9,8.3z"/>
		<path fill="#FFB469" d="M84.9,89.2c-4.2,13.1-33.2,53.9-53.8,58.9c-9.3-6-27.9-33-31-58c-1.2,27.2,21,60.5,31.4,67.2
			c22.4-5.3,54.5-52.8,54.3-61.5C85.8,94.2,85.5,91.9,84.9,89.2z"/>
	</g>
	<path fill="#FFE8CA" d="M68.8,63.4C65,46.7,66,30.9,69.4,19.6C69,13,68.8,7.1,68.8,5.6c0-3.2-14.2-5.7-18.1-3.6
		C46.8,4.2,13,49.7,2.4,78.1c-10.7,28.4,17,71.4,29.1,79.2c5.6-1.3,11.8-5.3,18-10.7C64.3,117.7,72.1,77.7,68.8,63.4z"/>
	<g>
		<path fill="#EFCEA8" d="M30.7,152.7c-7.2-4.5-20-22.3-27.4-40.4c6.4,20.7,20.5,41,28.2,46c5.6-1.3,11.8-6.4,18-11.7
			c2.7-3.8,4.3-8.8,5.9-13C48.4,142.9,36.6,151.3,30.7,152.7z"/>
	</g>
	<path fill="#68413C" d="M49.3,8.5c-2.8,2.3-8.1,5.9-6.1,8s6.1-0.8,3.9-2.4C45.8,13.3,49.3,8.5,49.3,8.5z"/>
	<path fill="#FFB469" d="M103.4,161.2h33c0,0,15.5-27.5,2.3-33.1C125.4,122.5,103.4,161.2,103.4,161.2z"/>
	<path fill="#FFB469" d="M108.8,161.2H89.6c0,0,1.5-5.2,6.3-6.3c4.8-1.1,14.8,0.9,14.8,0.9L108.8,161.2z"/>
	<path fill="#FFC37B" d="M52.1,161.2H38.6c0,0,0.2-5.2,16.3-6.6L52.1,161.2z"/>
	<path fill="#FFC37B" d="M17.8,161.2H4.3c0,0,0.2-5.2,16.3-6.6L17.8,161.2z"/>
</g>
</svg>
