<?xml version="1.0" encoding="utf-8"?>
<!-- Generator: Adobe Illustrator 17.1.0, SVG Export Plug-In . SVG Version: 6.00 Build 0)  -->
<!DOCTYPE svg PUBLIC "-//W3C//DTD SVG 1.1//EN" "http://www.w3.org/Graphics/SVG/1.1/DTD/svg11.dtd">
<svg version="1.1" id="Layer_1" xmlns="http://www.w3.org/2000/svg" xmlns:xlink="http://www.w3.org/1999/xlink" x="0px" y="0px"
	 width="181.4px" height="196.4px" viewBox="0 0 181.4 196.4" enable-background="new 0 0 181.4 196.4" xml:space="preserve">
<g>
	<path fill="#FFA35F" d="M41.2,50.4c-18.3-11-4.3-21.8-5.1-25.6c-0.5-2.8-7.6-8.2-4.2-13.3c3.4-5.1,6.9-3.1,8.5-0.9
		c1.6,2.2-2.4,10.5-0.4,12C42.1,24.2,66.8,45,41.2,50.4z"/>
	<path fill="#FFC37B" d="M42.8,35.2c3.8-9.1,8.6-16.8,22.5-14c-8.9,5.7-7.7,10.1-7,15.6C52.7,40.5,44.2,39.5,42.8,35.2z"/>
	<path fill="#FFA35F" d="M35.9,82.1c-7.5,0.8-20.8-10-23-24.5c-1.2-7.9,2.7-18.1-0.3-22c-2.2-2.9-6.9,4.4-9.7,2.8
		c-3.5-2-4-5.4-0.3-7.9c3.7-2.5,11.2-5.5,13-3.3c1.8,2.1,3.1,5.5,7.2,7c4.1,1.6,18.6-7.2,22.8,8.9C49.8,59.3,35.9,82.1,35.9,82.1z"
		/>
	<path fill="#FFC37B" d="M102.1,155.7c-2.9,4-5.1,13.2-1.2,16.4s11.6,4.1,15.8-6.8c4.1-10.9-1.7-26.8-1.7-26.8L102.1,155.7z"/>
	<path fill="#FFA35F" d="M105.7,159.2c4-3.4,8.6-5.1,12.3-4.9c-0.4-8.2-3.2-15.8-3.2-15.8l-12.8,17.1c-2.2,3.1-4,9.3-3,13.5
		C99.9,165.8,102.2,162.1,105.7,159.2z"/>
	<path fill="#FFC37B" d="M97.6,190.3c3.2-3.4,0.5-10.2-2.9-12.7c-3.4-2.5-13.7-13.6-8.8-31.5l-25.3-10.3c0,0,1.7,27.5,16.8,44.3
		c2.9,3.3,2.8,9.6,6.8,10.5C88.2,191.6,95.6,192.5,97.6,190.3z"/>
	<path fill="#FFA35F" d="M80.3,159.1c1.8,0.9,3.4,1.9,5,3c-1-4.5-1.1-9.8,0.6-15.9l-25.3-10.3c0,0,0.5,8.2,3.5,18.4
		C68.6,154.4,74.2,155.9,80.3,159.1z"/>
	<path fill="#FFC37B" d="M60.5,142C48,128.5,32,92.9,34.8,70.4c2.8-22.5,17.6-36.6,21.5-35.9c3.9,0.7,2.8,18.1,21.5,22.2
		c18.8,4.2,56.7,46.8,50.5,62.3C122.1,134.6,80.1,163.1,60.5,142z"/>
	<path fill="#FFA35F" d="M72,54.8c-16.5,17.9-8,52.5-18.2,52.5c-9.2,0-16.7-20.5-16.7-45.9c0-0.5,0-1.1,0-1.6
		c-1,3.3-2.4,7.3-2.9,11.1C31.4,93.3,48,128.5,60.5,142c19.6,21.1,61.6-7.4,67.9-22.9c4.5-11.1-13.8-36.3-31.5-51.1
		C80.9,54.5,76.8,56.2,72,54.8z"/>
	<path fill="#4FC5E0" d="M63.3,196.4h70.2c0,0,4.9-7.6,10.4-11.1c5.6-3.5,22.5-6.9,23.6-12c1.2-5.1-18.1,2.5-26.4,9.7
		c-8.3,7.2-14.6,11.3-14.1,7.6c0.5-3.7,10-7.4,6.7-10.2c-3.2-2.8-11.3,12-14.4,8.1c-3-3.9,7.6-19.9,18.8-23.2
		c11.1-3.2,19.9-19.2,10.4-19.7c-9.5-0.5-28.5,35.9-31.5,31.7s8.8-9,4.4-12.5c-4.4-3.5-10.4,27.1-19.7,25.9s-7.6-14.4-12.3-14.8
		c-4.6-0.5,5.4,13.1,2.5,12.7c-7.8-0.9-6.5-10.4-9.6-10c-3.6,0.5,4.9,4.9-0.8,6.3C78,186,70.7,168.9,67,170.5
		c-3.7,1.6,7.9,11.1,1.6,10.7c-6.3-0.5-6.9-9-11.3-9.3s-21.1-31.5-25.5-25.9c-4.4,5.6,36.4,36.8,32.4,38.9
		c-3.9,2.1-23.9-16.7-25.9-11.8c-2.1,4.9,32.6,16.6,23.6,20c-6.5,2.5-15.9-7.7-17.1-4.9C42.4,193.5,55.6,194.4,63.3,196.4z"/>
	<path fill="#4FC5E0" d="M30.9,165.6c-8.8-1.9-28.6-10.2-28.4-13.7C2.8,145.7,30.9,165.6,30.9,165.6z"/>
	<path fill="#4FC5E0" d="M26.2,179.8c-6.9,0.5-18.5,0.2-18.8-3.9C7,171.9,26.2,179.8,26.2,179.8z"/>
	<path fill="#4FC5E0" d="M164.7,141.2c1.5-3.6,13.3-17.8,16.5-13.9C183.7,130.2,164.7,141.2,164.7,141.2z"/>
	<path fill="#4FC5E0" d="M148.2,192.8c2.4-2.2,13.8-7.8,13.1-2.7C160.7,194,148.2,192.8,148.2,192.8z"/>
	<path fill="#4FC5E0" d="M122.3,155.1c3.5-3.1,8.9-5.7,5.8-7.9C125.3,145.1,122.3,155.1,122.3,155.1z"/>
	<path fill="#FFA35F" d="M112.6,32.9C110.1,31,109.7,0,109.7,0s20.6,19.2,17.6,42.4L112.6,32.9z"/>
	<path fill="#FFC37B" d="M109.7,0c0,0,0,0.2,0,0.5c3.9,4.9,6.5,14.7,6.5,26c0,2.9-0.2,5.7-0.5,8.4l11.6,7.5
		C130.4,19.2,109.7,0,109.7,0z"/>
	<path fill="#FFC37B" d="M84.5,45.4c-3.8-0.9,0.2-31.7,9.4-42.8c0,0,7.1,26.5,6.4,29C99.6,34.1,84.5,45.4,84.5,45.4z"/>
	<path fill="#FFC37B" d="M100.1,156.3c-6.4-4.1-41-47.9-30.8-87.7c0,0,19.5-40.5,37.3-40.1C124.4,29,152.2,51,143,104.7
		C143,104.7,114,146.8,100.1,156.3z"/>
	<path fill="#FFE8CA" d="M100.1,156.3c0,0-32.4-26.8-21.9-60c5.6-17.7,17.4-17.1,17.4-17.1s3.3-12.4,16.1-12.7
		c2.7,5.3,12.9,16.1,20.8,24.3c0,0,7.7,13.3,4.2,22.7C127.1,131.2,115.7,145.3,100.1,156.3z"/>
	<path fill="#EFCEA8" d="M123.1,110c-3.6,1.6-9.8,1.2-11.9-2.3c-2.8-4.6-4.2-29.9-6.8-35l20.5,6.6c0,0-4.7,5.2-5.3,12.4
		C119.2,99.1,130.6,106.7,123.1,110z"/>
	<path fill="#68413C" d="M125.1,107.8c-3.6,1.5-9.6,1.4-11.7-2.2c-2.8-4.6-4.3-25.8-6.9-30.9l16.7,3c0.8,0.1,1.5,0.7,1.8,1.5
		c0.3,0.8,0.3,1.7-0.2,2.3c-1.3,2-2.8,5-3,8.6C121.2,97.4,127.9,106.6,125.1,107.8z"/>
	<path fill="#FF6161" d="M118.6,103.1c6.2,3.3,12.6,3.3,14.6,0.5c2.1-2.9-6.8-0.4-9.5-6.8c-1.7-4.2-2.2-10.7-1.4-13.3l-13.3-6.1
		C109.1,77.4,111.5,99.3,118.6,103.1z"/>
	<path fill="#F44D4D" d="M123.3,95.5c-1.3-4.1-1.7-9.7-0.9-12l-13.3-6.1c0,0,1.2,10.3,4.1,18C115.8,94.7,119.4,94.7,123.3,95.5z"/>
	<path fill="#FFE8CA" d="M129,81.8c-4.2-8.2-12.3-16.9-18.8-15.2c-2.6,0.7-9.2,2.2-4.4,9.8c4.8,7.7,24.8,15,28.4,14.3
		C137.3,88.2,130.8,85.1,129,81.8z"/>
	<path fill="#EFCEA8" d="M105,74.2c-0.2-0.3-0.4-0.6-0.6-0.9c0.2,1,0.7,2.1,1.5,3.4c4.8,7.9,24.6,15.4,28.2,14.7
		c0.9-0.8-0.3-0.6-0.7-1.5C126.4,88.9,109.7,81.1,105,74.2z"/>
	<g>
		<path fill="#68413C" d="M136,60c-1.5-8.4-8.4-4.1-8.8-1.8l-0.3,0c0.5-3.3,8.7-7.6,10.4,1.8L136,60z"/>
	</g>
	<g>
		<path fill="#68413C" d="M108.9,58l-1.7-0.8c2.1-5.7,11.4-6.8,13.8,0.4l-0.3,0.1C118.3,50.8,110.4,53.8,108.9,58z"/>
	</g>
	<path fill="#FFC37B" d="M139.3,71.7c0,0,9.2,8.6,9.4,9.8c0.2,1.2-5.6,6.7-8.2,5.9C138,86.5,139.3,71.7,139.3,71.7z"/>
	<path fill="#68413C" d="M140.4,91.3c-3.7,1.3-7.6,1.1-10.2-2.2c-2.2-2.7-4.6-8.5-1.1-11.3c3.6-2.8,18.4,1.8,19.6,3.6
		C150,83.4,146,89.3,140.4,91.3z"/>
	<path fill="#FFC37B" d="M50.8,73.7c6.2-8.2,9-29.5,1-35.6c-8-6-27.4-5.4-33.6,2.8s-0.9,27,7.1,33C33.3,79.9,44.6,81.8,50.8,73.7z"
		/>
	<path fill="#FFA35F" d="M56.1,134.1c-4.4-1.7-11.5-9-12.4-12.2l6.9,1.5L56.1,134.1z"/>
	<path fill="#FFA35F" d="M50,125.3c-4.1-2.6-10.7-11.6-11.1-14.9l7.2,3.3L50,125.3z"/>
	<path fill="#FFA35F" d="M45.8,115.5c-3.9-2.9-10.9-14.5-11.1-17.9l7.9,6L45.8,115.5z"/>
	<path fill="#FFA35F" d="M41.9,104c-3.7-3.2-8.8-14.1-9.7-18.7l7.4,6.6L41.9,104z"/>
	<path fill="#FFA35F" d="M38.2,85.2c-5.5,0-10.7-2.8-11.7-3.6l9.7-0.7L38.2,85.2z"/>
	<path fill="#FFA35F" d="M61.6,141.9c-4.5-1.8-12.1-9-13.1-12.3l7,1.6L61.6,141.9z"/>
	<path fill="#FFA35F" d="M67.5,147.7c-4.7-1.2-13.1-7.5-14.5-10.6l7.1,0.7L67.5,147.7z"/>
	<path fill="#68413C" d="M108.9,83.3c-1.6-1.5-4.3-5-4.5-9.9c0,0,0.8,3.7,4.9,7.1L108.9,83.3z"/>
	<path fill="#4F2A28" d="M139,84.1c-5.5-0.5-10-2.2-11.3-4.2c-1.1,3,0.8,7.1,2.5,9.3c2.6,3.2,6.5,3.5,10.2,2.2
		c4.4-1.6,7.8-5.6,8.4-8.2C146.5,84,143,84.4,139,84.1z"/>
	<path fill="#351817" d="M134,88.6c-1.8,0.3-4.5-3.8-3.4-4.5c1.1-0.6,5.7,0.1,6.2,1.1C137.2,86.1,134.8,88.4,134,88.6z"/>
	<ellipse transform="matrix(0.989 0.1482 -0.1482 0.989 13.6744 -20.3661)" fill="#9B6D6A" cx="143.5" cy="81.6" rx="4" ry="1.4"/>
	<path opacity="0.5" fill="#FFE8CA" d="M106.4,49.7c-2.2,1.9-3.5-1.3-2.3-2.2c4.3-3.4,11.3-2.5,11.5-0.4
		C115.7,49,111.8,45.1,106.4,49.7z"/>
	<path opacity="0.5" fill="#FFE8CA" d="M134.7,48.5c1.2,1,0.9,4.3-1.3,2.3c-5.3-4.9-7.6-0.9-7.9-2.9
		C125.2,45.7,130.6,44.8,134.7,48.5z"/>
	<path fill="#E25E54" d="M84.9,42.6c-3.1-0.7,2.2-29.5,7.4-35.4c0,0,4.3,23.2,3.8,25.2C95.6,34.4,84.9,42.6,84.9,42.6z"/>
	<path fill="#CE413E" d="M92.3,7.2c-0.1,0.1-0.1,0.2-0.2,0.3c0.7,4.3,0.6,10.6-0.4,17.6c-0.8,5.9-2.1,11.2-3.6,15
		c3.2-2.6,7.7-6.3,8-7.6C96.7,30.4,92.3,7.2,92.3,7.2z"/>
	<path fill="#FFC37B" d="M85.2,43.5c-6.7,4-10.9,9.9-10.9,9.9l8.9-3.4L85.2,43.5z"/>
	<path fill="#FFC37B" d="M79.9,50.1c-6.1,4.9-9.5,11.2-9.5,11.2l8.3-4.6L79.9,50.1z"/>
	<path fill="#FFC37B" d="M76.3,57c-5.9,5.2-8.9,11.7-8.9,11.7l8.1-5L76.3,57z"/>
	<path fill="#FFC37B" d="M70.7,65.3c-4.4,6.5-5.6,13.6-5.6,13.6l6.6-6.9L70.7,65.3z"/>
	<path fill="#FFC37B" d="M68.5,73.6c-3.5,7-3.9,14.2-3.9,14.2l5.7-7.6L68.5,73.6z"/>
	<path fill="#FFC37B" d="M67.7,82.6C65.8,90.2,67,97.3,67,97.3l3.9-8.7L67.7,82.6z"/>
	<path fill="#FFC37B" d="M68.6,93.3c-1.1,7.8,0.9,14.7,0.9,14.7l2.9-9.1L68.6,93.3z"/>
	<path fill="#FFC37B" d="M70.6,104.1c-0.1,7.8,2.7,14.4,2.7,14.4l1.8-9.3L70.6,104.1z"/>
	<path fill="#4FC5E0" d="M84.4,175.9c-3.2-2.1-6-5.1-4-6.7C82.3,167.6,84.4,175.9,84.4,175.9z"/>
</g>
</svg>
