<?xml version="1.0" encoding="utf-8"?>
<!-- Generator: Adobe Illustrator 17.1.0, SVG Export Plug-In . SVG Version: 6.00 Build 0)  -->
<!DOCTYPE svg PUBLIC "-//W3C//DTD SVG 1.1//EN" "http://www.w3.org/Graphics/SVG/1.1/DTD/svg11.dtd">
<svg version="1.1" id="Layer_1" xmlns="http://www.w3.org/2000/svg" xmlns:xlink="http://www.w3.org/1999/xlink" x="0px" y="0px"
	 width="197px" height="168.5px" viewBox="0 0 197 168.5" enable-background="new 0 0 197 168.5" xml:space="preserve">
<g>
	<path fill="#FFC37B" d="M114.1,24.2c-2.7-4.1-5.3-17.7-14.7-21.5c-2.8-1.1-2.2-3.6,4.5-2.4c6.8,1.2,23.3,6.1,33,25.8L114.1,24.2z"
		/>
	<path fill="#CE413E" d="M125.2,27.6C120,13.8,102.3,1.7,104.8,1.5c3.2,0.2,22.3,7.7,30.8,26.4L125.2,27.6z"/>
	<path fill="#E25E54" d="M121.7,23.2c-4.1-10.9-18.1-20.5-16.2-20.6c2.5,0.1,17,7.2,23.6,22L121.7,23.2z"/>
	<path fill="#FFC37B" d="M95.6,38.2c-1.7-0.7-5.4-19.6-20.7-27.1c-7.6-3.7,25.9-6.3,38.8,16.7L95.6,38.2z"/>
	<path fill="#CE413E" d="M97.4,36.2c-1.4-0.7-5-16.3-17.3-23.6c-6.2-3.7,21.9-1.4,31.1,18.9L97.4,36.2z"/>
	<path fill="#E25E54" d="M96.8,35.6c-1.3-0.8-3.7-14.2-15.7-22.1c-6-3.9,18.2,1.8,26.8,20.3L96.8,35.6z"/>
	<path fill="#FFA35F" d="M41,168.5c0-3.1,3.5-13.1,14.1-20.3l-10.3-14.1l-13,5.7c0,0-1.4,16.5,4.7,28.7H41z"/>
	<path fill="#FFA35F" d="M36.9,168.5h9c0,0-0.5-4.3-3.4-3.9C39.6,165,36.9,168.5,36.9,168.5z"/>
	<path fill="#FFC37B" d="M22.2,150.1c7.9,0,93.9,8.4,107.5-14.1c13.5-22.5-10.3-70.1-11.1-70.1c-0.8,0-33.3-4.1-33.3-4.1
		S72.5,76.7,60.9,82.7c-19.4,10.1-52,8.7-50.1,24.9C12.7,123.9,22.2,150.1,22.2,150.1z"/>
	<path fill="#FFA35F" d="M118.6,65.9c-0.8,0-33.3-4.1-33.3-4.1S72.5,76.7,60.9,82.7c-0.4,0.2-0.9,0.4-1.3,0.7
		c7.2,8,14.4,29.6,14.4,35.6c0,12.6-5.5,23.2-25.1,22.8c-12.9-0.2-24.2-6-32.9-11.1c3.1,10.6,6.3,19.5,6.3,19.5
		c7.9,0,93.9,8.4,107.5-14.1C143.2,113.6,119.4,65.9,118.6,65.9z"/>
	<path fill="#FFC37B" d="M101.3,138.1c0,0-9,27.7-9.5,30.4h-5.5c0,0-3.8-15.4-9-28.8c-2.3-5.8-0.9-21.8,9.2-24.9
		C93.1,112.8,101.3,138.1,101.3,138.1z"/>
	<path fill="#FFA35F" d="M84.7,145.1c3.4-0.8,7.8,5.2,9.8,13.4c0,0.2,0.1,0.3,0.1,0.5c2.8-9,6.7-20.9,6.7-20.9s-8.2-25.3-14.9-23.2
		c-10.1,3.1-11.4,19-9.2,24.9c1.5,3.8,2.8,7.7,4,11.5C81.7,147.9,82.9,145.6,84.7,145.1z"/>
	<path fill="#FFC37B" d="M127.7,135c0,0-13.6,30.8-14.2,33.5H108c0,0-2.6-22.3-6.5-27.2c-3.9-4.9-2.8-22.2,7.3-25.3
		C115.4,114,127.7,135,127.7,135z"/>
	<path fill="#FFA35F" d="M109.9,163.7c2.6-4.8,6.2-8.2,9.2-8.8c4-9.3,8.7-19.9,8.7-19.9s-12.3-21-18.9-19
		c-10.1,3.1-11.2,20.4-7.3,25.3c3.7,4.6,6.2,24.7,6.5,27C108.4,166.8,109,165.2,109.9,163.7z"/>
	<path fill="#FFC37B" d="M112.1,152.7c0,0-45.1-46.1-42.1-76.1c3-30,25-40.7,30.7-45.6c5.7-4.9,21.1-12.2,28.4-9.2
		c7.3,3,31.1,7.3,25.4,67.4C147.8,118.6,135.3,141.2,112.1,152.7z"/>
	<path fill="#FFB469" d="M112.1,152.7c0,0-45.1-46.1-42.1-76.1c3-30,25-40.7,30.7-45.6c5.7-4.9,20.7-10.5,28-7.5
		c7.3,3,31.5,5.6,25.8,65.7C147.8,118.6,135.3,141.2,112.1,152.7z"/>
	<path fill="#FFC37B" d="M115.9,142.5c0,0-42.4-36.3-40-63.3c2.6-30.1,21.5-45.1,26.7-49.5c5.2-4.4,22.4-9.6,29-6.9
		c6.6,2.7,28,8.6,22.9,62.7C148.2,111.9,136.9,132.1,115.9,142.5z"/>
	<path fill="#FFE8CA" d="M130.3,55.5c-22.7-21.4-23.6,19.4-23.6,19.4c-16,11.5-22.5,26.5-22.4,42.6c12.2,19.2,27.8,35.2,27.8,35.2
		c23.2-11.5,35.7-34,42.5-63.5c0.9-9.8,1.1-18,0.6-25.1C147.3,67,138.2,62.9,130.3,55.5z"/>
	<path fill="#F7D9B5" d="M116.8,145c0,0-18.1-18.9-31.8-37c-0.5,3.1-0.8,6.3-0.8,9.5c12.2,19.2,27.8,36.5,27.8,36.5
		c12.8-6.3,22.3-17.4,29.4-29.7C135.6,132.3,126.7,140.6,116.8,145z"/>
	<path fill="#FFB469" d="M9.1,106.9c-3.8-1.3-9.5-10.8-5.2-18.3c0,0,5.2,9.1,14.1,9.1L9.1,106.9z"/>
	<g>
		<path fill="#68413C" d="M137.8,70.6c-0.5-0.2-12.9-4.1-16.2-7.2c-2.7-2.5-3.9-8.7-0.2-12.8l1.6,1.5c-3.3,3.7-2.2,8.7,0,10.8
			c3.1,2.9,14.9,7.1,15,7.2L137.8,70.6z"/>
	</g>
	<path fill="#A53C66" d="M139.5,68.6c-10.4,3.4-24.4,14.5-15.6,20c8.8,5.5,27.5,2.2,37.2-3.5c9.7-5.7,42.2-24.9,33.6-33.3
		c-8.7-8.4-21.3-4.9-30.4,3.1C155.1,63,150,65.3,139.5,68.6z"/>
	<path fill="#C6587F" d="M139.5,67.2c-10.4,3.4-24.4,14.5-15.6,20c8.8,5.5,27.5,2.2,37.2-3.5c9.7-5.7,42.2-24.9,33.6-33.3
		s-21.3-4.9-30.4,3.1C155.1,61.5,150,63.8,139.5,67.2z"/>
	<path fill="#B54774" d="M174.6,75.6c0,0-13.9-6.6-15.7-5.9c-1.8,0.7-18.5,7.1-25.8,0.3l33.7-18.1l9.8,7.9l-0.1,14.5L174.6,75.6z"/>
	<g opacity="0.4">
		<path fill="#FFC7E0" d="M139.8,67.1l9.2,21.3c4.6-1.1,8.9-2.8,12.2-4.7c0.2-0.1,0.4-0.2,0.6-0.3l-15.6-18.5
			C144.2,65.6,142.1,66.3,139.8,67.1z"/>
		<path fill="#FFC7E0" d="M127.8,73.4l1.5,15.9c3.3,0.8,7.2,0.9,11.2,0.5L133,70.1C131.2,71.1,129.4,72.2,127.8,73.4z"/>
	</g>
	<path fill="#ED629A" d="M174.6,75.4c1.8-5.6-2.3-21.5-11.4-21.6c0,0,9.8-8.9,16.3-9.5c6.5-0.6,12.6,0.9,15.2,3.5
		C205.4,58.6,174.6,75.4,174.6,75.4z"/>
	<path fill="#DD5292" d="M179.5,72.4c0.4-7.3-3.7-20.1-11.7-22.4c-2.7,2-4.7,3.8-4.7,3.8c9.1,0.1,13.3,16,11.4,21.6
		C174.6,75.4,176.7,74.3,179.5,72.4z"/>
	<polygon fill="#FFC37B" points="148.1,41.2 166.7,50.1 156,60.9 	"/>
	<path fill="#FFE8CA" d="M123.8,57.1c2.3,5.8,11.4,13.4,18.2,13.7c4.9,0.2,20.6-3.8,21.4-6.4c0.3-0.8-11.4-7.1-15.7-4.9
		c-3.8,1.9-14.8-2.2-20.1-6.4C124.6,50.8,122.1,52.9,123.8,57.1z"/>
	<path fill="#68413C" d="M162.9,65.4c-3.1,2-16.2-3.8-15.3-6.6c0.9-2.8,17.3-11,20.6-9.2S168.1,62.1,162.9,65.4z"/>
	<path fill="#4F2A28" d="M159.6,59c-4.8,1.2-9.3,0.8-11.7-0.8c-0.1,0.2-0.2,0.4-0.3,0.5c-0.9,2.8,12.2,8.6,15.3,6.6
		c3.6-2.3,6.4-8.3,6.5-12.3C168,55.5,164.3,57.9,159.6,59z"/>
	<path fill="#351817" d="M160.6,64.8c-2.4,0.4-7.9-1.6-7.1-2.9c0.8-1.3,5.7-0.9,7.5,0C162.9,62.7,161.8,64.6,160.6,64.8z"/>
	<path fill="#9B6D6A" d="M168.5,50.8c-0.9-0.8-3.3-1.3-4.7,0.1c-1.4,1.4-1.4,4-0.5,4.9c0.9,0.8,2.8,0.4,4.2-1
		C168.9,53.4,169.4,51.7,168.5,50.8z"/>
	
		<ellipse transform="matrix(0.5616 0.8274 -0.8274 0.5616 114.0891 -109.6816)" fill="#9B6D6A" cx="160.5" cy="52.8" rx="0.9" ry="1.4"/>
	<path fill="#68413C" d="M132,43.5c-2.8,1.2-4.3-0.9-2.3-1.5C131.8,41.5,136.4,41.6,132,43.5z"/>
	<path fill="#68413C" d="M145.4,41.1c-2,0.6-2.7-1.9-1.3-2C145.5,39.1,148.6,40.2,145.4,41.1z"/>
	<path fill="#ED629A" d="M176,75.2c0.2-0.5,0-0.8-0.5-0.8c-0.5,0-1.2,0.4-1.4,0.9c-0.2,0.5,0,0.8,0.5,0.8
		C175.1,76.1,175.7,75.7,176,75.2z"/>
	<path fill="#A53C66" d="M175.6,75.4c0.1-0.2,0-0.4-0.3-0.4c-0.3,0-0.6,0.2-0.7,0.5c-0.1,0.2,0,0.4,0.3,0.4
		C175.1,75.9,175.5,75.6,175.6,75.4z"/>
	<path fill="#FFC37B" d="M87.4,168.5h9c0,0,0.9-3.2-3.3-3.1C89.9,165.5,87.4,168.5,87.4,168.5z"/>
	<path fill="#FFC37B" d="M108.4,168.5h9c0,0,0.9-3.2-3.3-3.1C110.8,165.5,108.4,168.5,108.4,168.5z"/>
	<path fill="#FFC37B" d="M16.2,168.5h5.4c0,0-0.5-7.6,1.1-10.8c1.6-3.2,14.1-13.3,14.1-13.3s-7-50.9-16-49.3
		c-8.9,1.6-23,22.5-20.6,34.9C2.7,142.5,16.2,168.5,16.2,168.5z"/>
	<path fill="#FFA35F" d="M16.4,153.9c-6.1-1.2-15.1-15.4-16-30.4c-0.4,2.4-0.4,4.6,0,6.6c2.4,12.5,16,38.4,16,38.4h5.4
		c0,0-0.5-7.6,1.1-10.8c1.6-3.2,15-13.3,15-13.3s-0.7-2.2-0.9-3.2C29.2,148.3,20.3,154.6,16.4,153.9z"/>
	<path fill="#FFA35F" d="M16.7,168.5h10.1c0,0-0.5-4.3-3.8-3.9C19.7,165,16.7,168.5,16.7,168.5z"/>
	<path opacity="0.5" fill="#FFE8CA" d="M125.7,39.7c-2.3,2.8-4.3-1.4-3.2-2.5c1.1-1.1,5.2-3.9,6.8-3.6c1.6,0.3,1.2,1.6,0.8,1.9
		C129.5,35.9,126.8,38.3,125.7,39.7z"/>
	<path opacity="0.5" fill="#FFE8CA" d="M142.5,34.2c4.1,1,1.9-3.2,0.5-3.4c-1.3-0.1-5.4,0.1-6.4,1c-1.1,1-0.3,1.6,0.2,1.6
		C137.3,33.5,140.7,33.7,142.5,34.2z"/>
	<path fill="#FFA35F" d="M29.2,148.1c4.3-3.2,5.3-11.5,2.2-22.3c0,0,6.8,6.4,6.3,14.6C37.3,148.5,29.2,148.1,29.2,148.1z"/>
	<g>
		<path fill="#FFB469" d="M88.5,42.9l6-7.5c0,0-6.9,1.6-11.2,7.6L88.5,42.9z"/>
		<path fill="#FFB469" d="M84.4,48.2l5.8-7.1c0,0-6.9,1.6-10.9,7.3L84.4,48.2z"/>
		<path fill="#FFB469" d="M81.1,53.9l4.7-7.5c0,0-6.9,1.7-10,7.6L81.1,53.9z"/>
		<path fill="#FFB469" d="M76.7,59.4l4.4-7.1c0,0-6.2,2.3-9.1,7.8L76.7,59.4z"/>
		<path fill="#FFB469" d="M72.7,65.9l4.1-6.6c0,0-6,2.3-8.8,7.4L72.7,65.9z"/>
		<path fill="#FFB469" d="M71,71.1l3.1-6.7c0,0-5.5,2.7-7.3,7.8L71,71.1z"/>
		<path fill="#FFB469" d="M71.2,76.1l0.1-7.1c0,0-3.7,3.9-3.3,9.1L71.2,76.1z"/>
		<path fill="#FFB469" d="M72.2,81.8l-1.9-6.6c0,0-2.6,6.5-0.8,11.2L72.2,81.8z"/>
	</g>
	<g>
		<path fill="#FFB469" d="M74.8,90.1l-2.7-9.2c0,0-2.7,6.4-0.2,13.3L74.8,90.1z"/>
		<path fill="#FFB469" d="M76.7,96.5l-2.5-8.9c0,0-2.7,6.3-0.3,12.9L76.7,96.5z"/>
		<path fill="#FFB469" d="M79.5,102.5l-3.4-8.2c0,0-2.6,6.5,0.5,12.5L79.5,102.5z"/>
		<path fill="#FFB469" d="M81.6,109.2l-3.3-7.7c0,0-1.7,6.3,1.2,11.9L81.6,109.2z"/>
		<path fill="#FFB469" d="M84.2,113.5l-2.8-4.4c0,0-0.9,5.4,3,11.6L84.2,113.5z"/>
	</g>
	<g>
		<path fill="#F7D9B5" d="M92.3,126.5l-7.9-12.4c0,0-0.4,9.3,6,17.6L92.3,126.5z"/>
		<path fill="#F7D9B5" d="M97.1,133.8l-6.5-10.3c0,0-0.7,8.1,4.6,15L97.1,133.8z"/>
		<path fill="#F7D9B5" d="M102.1,139.7l-6.5-8.2c0,0-0.7,7.3,4.6,12.7L102.1,139.7z"/>
		<path fill="#F7D9B5" d="M106.4,144.1l-6-5.2c0,0,0,6.2,4.3,10.7L106.4,144.1z"/>
		<path fill="#F7D9B5" d="M110.5,148l-6.1-5.7c0,0,1.7,8.1,6.7,12.3L110.5,148z"/>
	</g>
</g>
</svg>
