<?xml version="1.0" encoding="utf-8"?>
<!-- Generator: Adobe Illustrator 17.1.0, SVG Export Plug-In . SVG Version: 6.00 Build 0)  -->
<!DOCTYPE svg PUBLIC "-//W3C//DTD SVG 1.1//EN" "http://www.w3.org/Graphics/SVG/1.1/DTD/svg11.dtd">
<svg version="1.1" id="Layer_1" xmlns="http://www.w3.org/2000/svg" xmlns:xlink="http://www.w3.org/1999/xlink" x="0px" y="0px"
	 width="219.2px" height="135.1px" viewBox="0 0 219.2 135.1" enable-background="new 0 0 219.2 135.1" xml:space="preserve">
<g>
	<path fill="#FF8E55" d="M87.9,84.4c-2.5-5.4-4.1-10.8,2.5-16.1c-0.9,6.4,1.5,7.7,4.1,9.5C94.1,81.9,90.3,85.4,87.9,84.4z"/>
	<path fill="#A04B40" d="M45.8,92.6c-4.7,1.2-11.1,0-11.5-2.9C34,86.7,45.8,92.6,45.8,92.6z"/>
	<path fill="#A04B40" d="M203.6,95.4c-0.7,2.9-7.5,3.2-12.3,1.4C191.4,96.8,204.4,92.5,203.6,95.4z"/>
	<path fill="#A04B40" d="M174.3,95.1c7.2-1.4,14.5-7.8,12.9-10.5C185.6,81.9,174.3,95.1,174.3,95.1z"/>
	<path fill="#A04B40" d="M65.7,82.9c-6.9-1.7-13.9-8.4-12.3-11.1C55,69.2,65.7,82.9,65.7,82.9z"/>
	<path fill="#FFA35F" d="M105.2,131.3c-12.2-9.1-19.7-18-21.5-29.3c-1.1-7.6,3.1-19.6,7.5-24.5c6.2-6.9,8.7-20.4,15.3-21.4
		C119.2,54.2,170,59.9,163,89c-5.3,22.4-21.7,35.8-26.4,42.3l-9.1,0.8l0.4-9.5l-16.3,1.3l4,8.6L105.2,131.3z"/>
	<path fill="#A04B40" d="M78.1,112.3c-6.3-0.6-21.1-5.1-19.9-9.2C59.6,97.7,78.1,112.3,78.1,112.3z"/>
	<polygon fill="#FFC37B" points="139.3,99.1 138.1,133.5 146,134.3 157.5,96.5 	"/>
	<path fill="#FFB469" d="M152.4,113l5-16.5l-18.2,2.6l-0.9,26.5C142.9,119.1,148.2,114.5,152.4,113z"/>
	<path fill="#FFC37B" d="M123.3,128.9c-3.9,4.9-13.2-3.7-16.1-9.3c-2.9-5.7-8.8-9.9-8.8-9.9c-2.8-1.8-0.2-31.1-0.2-31.1L117.2,97
		c0,0-2.9,13-1.6,15.7C117.1,115.5,129,121.7,123.3,128.9z"/>
	<path fill="#FFB469" d="M115.3,110.4c0-4.7,1.9-13.4,1.9-13.4L97.6,71.5c0,0-1,24.6-0.5,33.4C100.4,101.7,108,104.2,115.3,110.4z"
		/>
	<path fill="#A04B40" d="M0,135.1h219.2c0,0-18.4-30-33.3-27.8c-14.9,2.2-49.6,24.9-63.8,24.5c-14.2-0.4-54-18.3-61-17.6
		C47.3,115.7,0,135.1,0,135.1z"/>
	<path fill="#93312A" d="M204.9,116.9c-13.6,5.4-31.4,10.3-44.4,13.5c-13.6,3.3-28,3.6-38.6,1.4c-3.4-0.1-8.2-1.2-13.5-2.8
		c-13.2,3.4-40.6,3.3-58.6-0.8c-7.4-1.7-12.4-3.8-15.7-6.2c-16.7,5.9-34,13-34,13h219.2C219.2,135.1,213,125,204.9,116.9z"/>
	<path fill="#FFC37B" d="M129,116.1c-8.4-4.5-36.5-30.4-37.6-69.5c6.1-6.2,24.8-20.2,34.7-20.7c22-0.9,36.8,6.8,42.9,15
		c9.7,13.2,6.7,30.1,6.7,30.1S164.4,110.4,129,116.1z"/>
	<path fill="#FFB469" d="M129,116.1c-8.4-4.5-36.5-30.4-37.6-69.5c6.1-6.2,24.8-20.2,34.7-20.7c22-0.9,36.8,6.8,42.9,15
		c9.7,13.2,6.7,30.1,6.7,30.1S164.4,110.4,129,116.1z"/>
	<path fill="#FFC37B" d="M129.5,110.8C122,106.5,96.8,82.1,95.7,45c5.4-5.9,22.2-19.1,31.1-19.5c19.8-0.9,35,5.6,40.4,13.4
		c8.7,12.5,4.1,29.2,4.1,29.2S161.3,105.4,129.5,110.8z"/>
	<path fill="#FFE8CA" d="M163.6,81c-5.1-1.7-12.1,13.7-14.1,14.7c-2,1.1-10.5-0.1-17-3c-6.5-2.9-9.8-12.5-10.7-21.3
		c-0.9-8.8-16.5-4.8-20.9,3.6c-0.8,1.5-1.2,3.5-1.1,5.8c9.3,19.6,23.7,32.2,29.3,35.2c19.8-3.2,32-16.9,39-28.4
		C166.9,84.4,165.5,81.7,163.6,81z"/>
	<path fill="#EFCEA8" d="M130.3,112.9c-5.6-3-19.4-19.3-28.7-38.9c0,0,0,0,0,0c-0.3,0.4-0.5,0.8-0.7,1.2c-0.8,1.5-1.2,3.5-1.1,5.8
		c9.3,19.6,23.7,32.2,29.3,35.2c19.8-3.2,32-16.9,39-28.4c-0.3-0.9-0.6-1.8-1-2.6C159.7,95.5,147.6,110.1,130.3,112.9z"/>
	<path fill="#68413C" d="M132.3,75.3c0.1-0.6-0.8-1.4-2.2-1.7c-1.3-0.3-2.5,0-2.6,0.7c-0.1,0.6,0.8,1.4,2.2,1.7
		C131,76.3,132.1,76,132.3,75.3z"/>
	<path fill="#68413C" d="M153.9,78.4c0.1-0.7-1-1.3-2.3-1.4c-1.3-0.1-2.5,0.3-2.5,1c-0.1,0.7,1,1.3,2.3,1.4S153.8,79.1,153.9,78.4z"
		/>
	<path fill="#68413C" d="M126.2,91.6c0.1,2.9,7.2,12.3,10.7,12.2c3.5-0.1,15.4-4.3,14.4-8.5C150.2,91.2,126,88.7,126.2,91.6z"/>
	<g>
		<path fill="#68413C" d="M127.1,93.2c-8-5.1-4.2-22.4-11.3-13.2l-0.8-1.4c8-10.4,4.8,9.5,12.3,14.3L127.1,93.2z"/>
	</g>
	<path opacity="0.5" fill="#FFE8CA" d="M137.2,70.8c-3.8,0.5-14.1-0.4-13.6-2.3c0.5-2,0-4.3,2.3-3.7c2.3,0.6,11.8,3.9,12.3,4.8
		C138.6,70.5,137.2,70.8,137.2,70.8z"/>
	<path opacity="0.5" fill="#FFE8CA" d="M145.5,71.1c3.3,1.2,12.6,2.9,12.6,1.1c0-1.8,1.4-3-0.7-3c-2.1,0-11.8,0-12.4,0.6
		C144.3,70.5,145.5,71.1,145.5,71.1z"/>
	<path fill="#4F2A28" d="M139.5,99.9c-6.6-0.8-12-4.8-13.1-8.7c-0.1,0.1-0.2,0.3-0.2,0.4c0.1,2.9,7.2,12.3,10.7,12.2
		c2.8,0,11.2-2.8,13.7-6.1C147.9,99.5,143.9,100.5,139.5,99.9z"/>
	<ellipse fill="#895B58" cx="144.5" cy="95.9" rx="4.8" ry="2.7"/>
	<path fill="#895B58" d="M139.1,98.3c0.4-0.5-0.2-1.5-1.5-2.2c-1.3-0.7-2.7-0.9-3.1-0.3c-0.4,0.5,0.2,1.5,1.5,2.2
		C137.3,98.7,138.7,98.8,139.1,98.3z"/>
	<path fill="#A04B40" d="M117.5,129.6c2,1.3,5.2,1.9,7.1,0.4c2.3-1.8,3.3-7.2,0.4-8.5s-2.2,1.8-1.4,2.8c0.8,1,0.1,4.3-1.5,4.1
		C119.1,128,116,128.7,117.5,129.6z"/>
	<path fill="#A04B40" d="M123.5,120.8c-1.4-0.2-4.2-1.4-3.1-2.5C121.5,117.2,123.5,120.8,123.5,120.8z"/>
	<path fill="#A04B40" d="M210,127.2c0.8,5-11,7.7-14.2,3.2c-3.2-4.5,6.2-9.9,8.6-9.5C206.6,121.4,209.5,123.8,210,127.2z"/>
	<path fill="#A04B40" d="M194.9,123.7c1.3,1.1-3.9,6.1-6.3,6.1s1.1-5.1,2.4-5.8C192.1,123.3,194,122.9,194.9,123.7z"/>
	<path fill="#A04B40" d="M183.5,131.9c-0.1,1.6-3.9,1.4-4.5-0.2c-0.6-1.6,2.6-2.4,3.3-2.1C182.9,129.9,183.6,130.8,183.5,131.9z"/>
	<path fill="#93312A" d="M198.9,116c-0.2,2.1-5.8,1.7-6.8-0.5c-1-2.2,3.8-3.2,4.9-2.7C197.9,113.2,199,114.6,198.9,116z"/>
	<path fill="#93312A" d="M159,128.9c0.6,1-4.8,2-6.5,1.2c-1.7-0.8,2.4-2.3,3.6-2.3C157.1,127.9,158.6,128.3,159,128.9z"/>
	<path fill="#93312A" d="M147.5,130.4c0.4,1-3.2,1.9-4.5,1.1c-1.2-0.9,1.6-2.3,2.4-2.2C146.1,129.3,147.2,129.7,147.5,130.4z"/>
	<path fill="#93312A" d="M99.4,127.9c0.4,1-3.2,1.9-4.5,1.1c-1.2-0.9,1.6-2.3,2.4-2.2C98.1,126.8,99.1,127.2,99.4,127.9z"/>
	<path fill="#A04B40" d="M106.2,131.9c0.3,0.9-2.4,1.6-3.3,0.9c-0.9-0.8,1.2-2,1.8-1.9C105.2,130.9,106,131.3,106.2,131.9z"/>
	<path fill="#93312A" d="M138.7,131.6c0.9,1.4-7,2.9-9.5,1.8c-2.5-1.1,3.6-3.2,5.2-3.3C135.9,130.1,138.1,130.7,138.7,131.6z"/>
	<path fill="#A04B40" d="M41,128.2c2.4,2.1-4.7,3.9-8.6,2.2c-3.9-1.7,0.6-4.6,2.4-4.6C36.5,125.9,39.4,126.8,41,128.2z"/>
	<path fill="#93312A" d="M59.9,127.7c1.6,1.8-4.5,1.7-7.4-0.2c-2.9-1.9,1.2-2.9,2.7-2.5C56.5,125.3,58.8,126.4,59.9,127.7z"/>
	<path fill="#93312A" d="M49.9,125.6c0.2,1-2,2-2.7,1.2c-0.7-0.8,1-2.3,1.5-2.3C49.1,124.5,49.7,124.9,49.9,125.6z"/>
	<path fill="#A04B40" d="M156.2,111.6c0.4,3-5.7,6.1-10.7,6.5C145.5,118.1,155.8,108.7,156.2,111.6z"/>
	<g>
		<path fill="#FFB469" d="M103.2,38l7.4-5.1c0,0-7.3-0.7-12.6,3.5L103.2,38z"/>
		<path fill="#FFB469" d="M98.1,41.6l7.2-4.8c0,0-7.2-0.7-12.3,3.3L98.1,41.6z"/>
		<path fill="#FFB469" d="M93.7,46l6.1-5.5c0,0-7.2-0.6-11.5,4L93.7,46z"/>
		<path fill="#FFB469" d="M92.8,50.8l0.3-8c0,0-4.5,5.2-4.2,11.2L92.8,50.8z"/>
		<path fill="#FFB469" d="M92.5,58.1l0.3-7.5c0,0-4.3,5.1-4.1,10.7L92.5,58.1z"/>
		<path fill="#FFB469" d="M93.7,63.2l-0.7-7c0,0-3.5,5.1-2.6,10.2L93.7,63.2z"/>
		<path fill="#FFB469" d="M96.4,67l-3.6-5.7c0,0-1.1,8.6,1.9,12.6L96.4,67z"/>
		<path fill="#FFB469" d="M100.1,78.2l-4.4-9.8c0,0,0.3,10.6,3.5,14.5L100.1,78.2z"/>
	</g>
	<g>
		<path fill="#FFB469" d="M172.7,48.6l-4.2-7.9c0,0,5.6,3.2,8.3,9.2L172.7,48.6z"/>
		<path fill="#FFB469" d="M174.7,55l-2.9-8.1c0,0,4.9,3.9,6.7,9.9L174.7,55z"/>
		<path fill="#FFB469" d="M175.1,62.1l-0.3-8.2c0,0,4,4.8,3.9,10.8L175.1,62.1z"/>
		<path fill="#FFB469" d="M175.2,68.2l0-7.3c0,0,3.4,5.8,3.1,11.3L175.2,68.2z"/>
		<path fill="#FFB469" d="M173.5,73.1l1.9-6.8c0,0,2,6.4,0.3,11.5L173.5,73.1z"/>
		<path fill="#FFB469" d="M170.5,77.2l4.2-6.5c0,0,0,8.9-2.6,13.3L170.5,77.2z"/>
		<path fill="#FFB469" d="M167.7,83.8l4-7.5c0,0,0.1,8.4-2.9,14.1L167.7,83.8z"/>
	</g>
	<path fill="#FFC37B" d="M107.8,35.1c-3.8-9.7,0.3-29.4,4.3-34.9c1.3-1.8,12.1,12.9,16.3,24.7c1.2,3.3-1.2,10.4-0.8,12
		C129.6,44.1,111.2,43.8,107.8,35.1z"/>
	<path fill="#CE413E" d="M108.7,32.6c-2.7-7.4,0.3-23.3,3.4-28.2c1.4-2.1,10.1,25.2,11.4,30.9C124.8,41,111.1,39.2,108.7,32.6z"/>
	<path fill="#E25E54" d="M111,33c-2.3-6.3,0.2-19.7,2.9-23.9c1.1-1.8,8.6,21.4,9.7,26.2C124.6,40.1,113,38.6,111,33z"/>
	<path fill="#FFC37B" d="M171.9,45.3c4.1-7.4,5.7-28.7,4.2-36.1c-0.5-2.4-14.8,10.7-20.6,21.7c-2,3.8-0.1,10.2,0.5,12.2
		C158.1,50.2,168.1,52.1,171.9,45.3z"/>
	<path fill="#CE413E" d="M171.5,43.8c3.5-6.2,4.8-24,3.5-30.1c-0.6-2.7-13.4,20.5-15.8,25.9C156.8,45.2,168.4,49.5,171.5,43.8z"/>
	<path fill="#E25E54" d="M169.1,43.5c2.9-5.1,3.9-19.6,2.8-24.6c-0.5-2.2-10.9,16.8-12.8,21.1C157.2,44.5,166.5,48.1,169.1,43.5z"/>
</g>
</svg>
