<?xml version="1.0" encoding="utf-8"?>
<!-- Generator: Adobe Illustrator 17.1.0, SVG Export Plug-In . SVG Version: 6.00 Build 0)  -->
<!DOCTYPE svg PUBLIC "-//W3C//DTD SVG 1.1//EN" "http://www.w3.org/Graphics/SVG/1.1/DTD/svg11.dtd">
<svg version="1.1" id="Layer_1" xmlns="http://www.w3.org/2000/svg" xmlns:xlink="http://www.w3.org/1999/xlink" x="0px" y="0px"
	 width="205.2px" height="153.1px" viewBox="0 0 205.2 153.1" enable-background="new 0 0 205.2 153.1" xml:space="preserve">
<g>
	<path fill="#FFA35F" d="M131.6,26.1c-4.6-4.4-15.9-21.1-15.7-25.9c0.1-2.5,25.8,11.6,33.8,26.7L131.6,26.1z"/>
	<path fill="#FFC37B" d="M143.7,26.7l7.2,1C143,12.8,116.7-1.8,115.9,0.2C121.6,2.9,137.1,14.6,143.7,26.7z"/>
	<path fill="#FFC37B" d="M121.2,110.8c8.5,4.8,40.3,19.9,52.3,18.5c5.3-0.6,10.1-9.5,7.8-12.4c-1.7-2.1-8.5-0.8-11.7,3.5
		c0,0-21-10.9-27.1-22.6C124,92.2,121.2,110.8,121.2,110.8z"/>
	<path fill="#FFA35F" d="M158.7,113.8c-6.1-4.2-13.1-10-16.2-15.9c-18.4-5.6-21.2,13-21.2,13c8.5,4.8,40.3,19.9,52.3,18.5
		c3.4-0.4,6.5-4.1,7.8-7.5C172.6,133.4,149.2,122.1,158.7,113.8z"/>
	<path fill="#FF7D43" d="M32.6,101.9c-0.4,3.3,4,6.5,2.5,9.4c-1.5,2.9-5,3.9-8.2,0.7c-2.4-2.4-2.8-11.4,0.4-15s6.6-1.9,10.9-7.3
		l4.4,5.7C42.6,95.4,33.2,97.9,32.6,101.9z"/>
	<path fill="#FFC37B" d="M45,91.6c8,14.3,38.6,43.2,75.8,35.2s22.5-75.4-11.1-67c-33.6,8.4-36.6,3.6-43-0.6
		c-6.4-4.2-24.5-12.9-27.1-3C37,66.1,45,91.6,45,91.6z"/>
	<path fill="#FFA35F" d="M109.6,59.8c-7.6,1.9-13.7,3.1-18.6,3.8c11.7,13.3,13.7,40.8,6.3,49.5c-8.6,10.2-37-4.1-42.9-21.6
		c-1.8-5.3-9.2-5.2-12-9.3c1.3,5.4,1.5,10.4,1.5,10.4c8,14.3,39.6,42.1,76.8,34.1S143.2,51.4,109.6,59.8z"/>
	<path fill="#FFC37B" d="M8.6,109.7c1.9,7.7,1.4,15.3-4.3,15c-4.6-0.3-5.6-14.6-2.2-18.4c3.4-3.8,7.7-7.6,8.8-13.5
		c1.5-8.3,14.2-34.6,31.6-40.3c22.7-7.5,14.7,44,7.7,46.3C43,101.1,5.8,98.3,8.6,109.7z"/>
	<path fill="#FFA35F" d="M54.5,85.2c-10,12.9-31.1,16.9-39.7,10.3c-1.5-1.2-2.8-2.7-3.7-4.4c-0.2,0.6-0.3,1.2-0.4,1.7
		c-1,5.9-5.4,9.7-8.8,13.5c-3.4,3.8-2.4,18.1,2.2,18.4c5.7,0.3,6.2-7.3,4.3-15c-2.8-11.3,35.6-7.5,42.6-9.7c2.5-0.8,4-9.2,5.3-17.8
		C55.9,83.2,55.3,84.2,54.5,85.2z"/>
	<path fill="#FFC37B" d="M94.3,118.6c7.1,7.3,41,33.4,50.5,34.5c5.3,0.6,11.5-9.5,10.6-12.3c-0.9-2.8-6.5-4-11.1,0.6
		c0,0-12.7-8.5-18.3-26.4C109.1,104.9,94.3,118.6,94.3,118.6z"/>
	<path fill="#FFA35F" d="M147,149.3c-5.7,0-38-18.3-38.2-27.1c-0.1-2.6,10.3-5,23,5.3c-2.2-3.5-3.9-8.2-5.4-13.1
		c-16.9-10.2-34.5,3.6-34.5,3.6c7.1,7.3,43.4,34,52.9,35.1c3,0.3,6.2-2.7,8.4-5.9C151.5,148.5,149.3,149.3,147,149.3z"/>
	<circle fill="#5796B5" cx="197.1" cy="67.4" r="8.2"/>
	<path fill="#FFA35F" d="M38.9,54.3c-3.6-2.4-6.1-10.3,0.4-17.8c0,0,1.5,11.1,8.2,15.1L38.9,54.3z"/>
	<path fill="#FFC37B" d="M148,25.3c11.2,5.7,19.9,13.5,18.1,44c-1.5,26.1-18.9,54.1-23.9,58.9c0,0-45-41.1-41-66.6
		C110.1,37.4,134.1,18.2,148,25.3z"/>
	<path fill="#FFB469" d="M110.6,60.7c0.8-10.2,8-30.4,27.8-36.5c-14,2.2-31.8,18.6-38.9,38c-4,25.5,42.7,66.1,42.7,66.1
		c0.1-0.1,0.3-0.3,0.4-0.4C127.1,112.6,109,80.2,110.6,60.7z"/>
	<path fill="#FFE8CA" d="M143,125.8c-9.6-8.4-20.4-32.2-18.7-44.9s12.2-18.6,12.2-18.6s3.2-12.6,11.3-15.7c0,0,4.5,4,10.7,4.7
		c0,0,5.4,4.5,4,14.6c0,0,3.8,5.9,3.2,10.4C162.4,100.3,154.4,112.8,143,125.8z"/>
	<path fill="#EFCEA8" d="M159.2,80.4c-13-0.4-9.6-19.5-16-23.9c0,0,19.6-2.1,16.7,2.4c-2.6,4-3.4,11.1,0.5,17.1
		C161.4,77.4,161,80.5,159.2,80.4z"/>
	<path fill="#EFCEA8" d="M145.2,58.1c-3.1-0.6-3.9-6.2-1.9-6.3C145.3,51.7,145.2,58.1,145.2,58.1z"/>
	<path fill="#68413C" d="M159.7,78.4c-10.9-0.4-7.3-19.1-14.4-21.2c0,0,18.7-3.8,15.8,0.7c-2.6,4-3.6,11.9-0.8,17.2
		C161.1,76.6,161.5,78.5,159.7,78.4z"/>
	<path fill="#FFC37B" d="M146.3,56.6c2.7,1.2,19.9,6.6,23.7,4.7c3.8-1.9,8.1-10.6,6.3-12.8c-0.8-1-10.2-6.4-14.4-8
		C152.4,37,138,52.9,146.3,56.6z"/>
	<path fill="#FFE8CA" d="M163.6,52.2c-7.6-0.5-14.1-2.4-17.8-4.8c-2.9,3.6-2.7,7.7-0.1,9.2c2.7,1.2,20.5,6.6,24.4,4.7
		c2.8-1.3,5.8-6.3,6.5-9.8C172.9,52.3,168.4,52.5,163.6,52.2z"/>
	<path fill="#68413C" d="M169.5,61.6c-1.7-0.1-9.1-7.5-7.6-11.1c1.5-3.7,15-4.2,16-0.8C178.7,52.7,171.8,61.7,169.5,61.6z"/>
	<path fill="#68413C" d="M142.5,38.4c1.2-0.2,2,0.3,2.6,1.1c0,0,0-0.1,0-0.1c-0.4-1-1.3-2.1-2.7-1.8c-1.4,0.3-2.8,1.9-2.5,2.9
		C140.4,39.5,141.5,38.6,142.5,38.4z"/>
	<path fill="#68413C" d="M155.1,35.9c1.2-0.2,2,0.3,2.6,1.1c0,0,0-0.1,0-0.1c-0.4-1-1.3-2.1-2.7-1.8c-1.4,0.3-2.8,1.9-2.5,2.9
		C152.9,37,154,36.1,155.1,35.9z"/>
	<path fill="#FFC37B" d="M113.5,41.5C105.8,33.4,97.1,19,98,11.9c0.3-2.5,19.7,6.8,30.1,20.1C128,32,116.9,40.3,113.5,41.5z"/>
	<path fill="#E25E54" d="M113.1,39.3c-2.9-2.2-15.2-20.3-14.6-25.8c0.2-1.9,15.3,8.7,24.4,19L113.1,39.3z"/>
	<path fill="#CE413E" d="M119.7,34.7l3.7-2.5c-9.1-10.4-24.7-20.7-24.9-18.8c0,0,0,0,0,0C103,17.1,112.8,27,119.7,34.7z"/>
	<path fill="#68413C" d="M151.4,61.2c-1.1-0.7-4-2.1-5.6-3.2c-3.5-2.5-2.5-9.7-1.3-4.7c0.6,2.6,2.1,3.6,3.3,4
		c0.7,0.3,1.4,0.8,1.9,1.4C150.2,59.5,151.1,60.6,151.4,61.2z"/>
	<path fill="#C93632" d="M146.9,58.7c1.3-0.3,4.7,0.1,5.9,2.5c1.2,2.4-2.2,4.3-2.2,4.3l-1.8-4.3C148.3,60.2,147.8,59.3,146.9,58.7z"
		/>
	<path fill="#4F2A28" d="M170.2,52.5c-3.7,0-6.9-0.8-8.3-1.8c-1.2,3.7,5.9,10.9,7.6,11c2,0.1,7.5-6.8,8.4-10.5
		C176.2,52,173.4,52.5,170.2,52.5z"/>
	<path fill="#FF6161" d="M155.1,66.8c0.1,3.5-2.8,9.8-6.9,9.2c-4.1-0.6-7.7-3.5-4.4-7.7c3.3-4.2,6.3-4.3,6.6-7.9
		C150.5,56.9,154.9,63.4,155.1,66.8z"/>
	<path fill="#F44D4D" d="M152.9,69.7c0.2,1.1,0.3,2.2,0.3,3.2c1.2-1.9,1.9-4.4,1.8-6.1c-0.1-3.5-4.5-9.9-4.7-6.4
		c-0.1,0.8-0.3,1.5-0.6,2C151.1,64.2,152.3,66.7,152.9,69.7z"/>
	<path fill="#4085A0" d="M200.2,68.2c-4.2,0-7.7-3.2-8.1-7.3c-2,1.5-3.2,3.8-3.2,6.5c0,4.5,3.7,8.2,8.2,8.2s8.2-3.7,8.2-8.2
		c0-0.3,0-0.6,0-0.9C203.8,67.6,202.1,68.2,200.2,68.2z"/>
	<path fill="#FFA35F" d="M62.9,116.1c3.9,3.7,14.7,6.6,19.7,7.1l-8.7-6.1L62.9,116.1z"/>
	<path fill="#FFA35F" d="M56.3,111.6c3.9,3.7,14.7,6.6,19.7,7.1l-8.7-6.1L56.3,111.6z"/>
	<path fill="#FFA35F" d="M50.7,105.4c3.4,4.2,13.7,8.4,18.6,9.6l-7.8-7.2L50.7,105.4z"/>
	<path fill="#FFA35F" d="M73.9,123c4.6,2.8,15.8,3.3,20.7,2.7l-9.7-4.1L73.9,123z"/>
	<path fill="#351817" d="M168.9,57.2c-1.4,0.7-4.6-2.1-3.8-2.9c0.8-0.8,4.8-1.2,5.4-0.5C171,54.4,169.5,56.8,168.9,57.2z"/>
	<ellipse fill="#9B6D6A" cx="174.2" cy="49.7" rx="2.7" ry="1"/>
	<path fill="#8BC2D8" d="M198.4,61.2c-0.6,0.6,0.1,2.2,1.5,3.6c1.4,1.3,3.1,1.9,3.7,1.2c0.6-0.6-0.1-2.2-1.5-3.6
		C200.7,61.1,199,60.6,198.4,61.2z"/>
	<path fill="#8BC2D8" d="M193.9,61.4c0.2,0.4,1,0.7,2,0.5s1.6-0.7,1.4-1.2c-0.2-0.4-1-0.7-2-0.5S193.7,61,193.9,61.4z"/>
	<path fill="#5796B5" d="M198.1,72.7c-4,0-7.4-2.9-8.2-6.7c-0.1,0.4-0.1,0.9-0.1,1.4c0,4,3.3,7.3,7.3,7.3c2.9,0,5.4-1.7,6.6-4.1
		C202.2,71.9,200.2,72.7,198.1,72.7z"/>
	<path fill="#FFB469" d="M101.4,58c-2,3.7-3.4,9.1-3.2,11.5l3.6-5.8L101.4,58z"/>
	<path fill="#FFB469" d="M99.4,65.5c-0.8,4.1-0.6,9.6,0.3,12l1.7-6.6L99.4,65.5z"/>
	<path fill="#FFB469" d="M100.6,71.8c-0.2,4.2,0.9,9.6,2.2,11.8l0.7-6.8L100.6,71.8z"/>
	<path fill="#FFB469" d="M103,78.6c0.3,4.2,1.9,9.5,3.4,11.5l0-6.8L103,78.6z"/>
	<path fill="#FFB469" d="M106.2,84.8c0.4,4.2,2.3,9.4,3.9,11.3l-0.3-6.8L106.2,84.8z"/>
	<path fill="#FFB469" d="M109.5,88.8c0.7,4.1,3,9.2,4.7,11.1l-0.8-6.8L109.5,88.8z"/>
	<path fill="#FFE8CA" d="M125,87c-0.6,4.2-0.1,9.7,0.9,12l1.4-6.7L125,87z"/>
	<path fill="#FFE8CA" d="M125,80.9c-1.4,4-1.8,9.5-1.2,12l2.6-6.3L125,80.9z"/>
	<path fill="#FFE8CA" d="M126.7,73.8c-2.2,3.6-3.8,8.9-3.8,11.4l3.9-5.6L126.7,73.8z"/>
	<path fill="#FFE8CA" d="M130.4,67.4c-2.9,3-5.7,7.8-6.2,10.3l5-4.6L130.4,67.4z"/>
	<path opacity="0.5" fill="#FFE8CA" d="M135.4,36.9c-0.7,1.8-3.1,0.4-2.7-0.6c1.4-3.4,6.8-5.1,7.9-3.9
		C141.7,33.5,137.1,32.5,135.4,36.9z"/>
	<path opacity="0.5" fill="#FFE8CA" d="M152.4,29.6c-4.8-1.2-7.2,1.2-6.1,2c1.4,1.1,0.5-1.9,6.7-0.2
		C155.5,32.1,153.7,29.9,152.4,29.6z"/>
</g>
</svg>
