# 3ds Max Wavefront OBJ Exporter v0.97b - (c)2007 guruware
# File Created: 20.10.2021 08:29:37

#
# object glass_FRONT
#

v  -110.7204 332.1000 571.2917
v  -110.7204 158.6286 571.2917
v  -46.0449 158.6286 571.2917
v  -46.0449 332.1000 571.2917
v  -37.1215 332.1000 571.2917
v  -37.1215 158.6286 571.2917
v  27.5540 158.6286 571.2917
v  27.5540 332.1000 571.2917
v  419.5509 251.0404 421.3938
v  419.5509 67.3583 421.3938
v  478.5640 67.3583 421.3938
v  478.5640 251.0404 421.3938
v  493.2883 251.0404 421.3938
v  493.2883 67.3583 421.3938
v  552.3014 67.3583 421.3938
v  552.3014 251.0404 421.3938
# 16 vertices

vn 0.0000 -0.0000 1.0000
# 1 vertex normals

vt 0.0000 1.0000 0.0000
vt 0.0000 0.0000 0.0000
vt 1.0000 0.0000 0.0000
vt 1.0000 1.0000 0.0000
# 4 texture coords

o glass_FRONT
g glass_FRONT
s 1
f 1/1/1 2/2/1 3/3/1 4/4/1 
f 5/1/1 6/2/1 7/3/1 8/4/1 
f 9/1/1 10/2/1 11/3/1 12/4/1 
f 13/1/1 14/2/1 15/3/1 16/4/1 
# 4 polygons

#
# object glass_RIGHT
#

v  747.5020 261.9208 206.3324
v  747.5020 97.8418 206.3324
v  747.5020 97.8418 12.8800
v  747.5020 261.9208 12.8800
v  591.9547 251.0404 -381.4841
v  591.9546 67.3583 -381.4841
v  591.9547 67.3583 -514.2347
v  591.9547 251.0404 -514.2347
# 8 vertices

vn 1.0000 -0.0000 -0.0000
vn 1.0000 0.0000 -0.0000
vn 1.0000 -0.0000 0.0000
vn 1.0000 0.0000 0.0000
# 4 vertex normals

vt 0.0000 1.0000 0.0000
vt 0.0000 0.0000 0.0000
vt 1.0000 0.0000 0.0000
vt 1.0000 1.0000 0.0000
# 4 texture coords

o glass_RIGHT
g glass_RIGHT
s 1
f 17/5/2 18/6/2 19/7/3 20/8/3 
f 21/5/2 22/6/4 23/7/5 24/8/3 
# 2 polygons

#
# object glass_BACK
#

v  452.8510 332.1000 -727.3575
v  452.8510 158.6286 -727.3575
v  -6.9029 158.6286 -727.3575
v  -6.9029 332.1000 -727.3575
v  -202.2791 262.1797 -727.3575
v  -202.2791 158.6286 -727.3575
v  -657.5773 158.6286 -727.3575
v  -657.5773 262.1797 -727.3575
# 8 vertices

vn -0.0000 -0.0000 -1.0000
vn -0.0000 0.0000 -1.0000
# 2 vertex normals

vt 0.0000 1.0000 0.0000
vt 0.0000 0.0000 0.0000
vt 1.0000 0.0000 0.0000
vt 1.0000 1.0000 0.0000
# 4 texture coords

o glass_BACK
g glass_BACK
s 1
f 25/9/6 26/10/6 27/11/7 28/12/7 
f 29/9/6 30/10/6 31/11/6 32/12/6 
# 2 polygons

#
# object glass_LEFT
#

v  -864.2532 331.8107 -82.9447
v  -864.2531 158.3393 -82.9447
v  -864.2531 158.3393 86.8026
v  -864.2531 331.8107 86.8026
v  -201.4813 261.2004 287.9177
v  -201.4813 158.6286 287.9177
v  -201.4813 158.6286 490.4385
v  -201.4813 261.2004 490.4385
# 8 vertices

vn -1.0000 -0.0000 0.0000
vn -1.0000 -0.0000 -0.0000
# 2 vertex normals

vt 0.0000 1.0000 0.0000
vt 0.0000 0.0000 0.0000
vt 1.0000 0.0000 0.0000
vt 1.0000 1.0000 0.0000
# 4 texture coords

o glass_LEFT
g glass_LEFT
s 1
f 33/13/8 34/14/9 35/15/9 36/16/8 
f 37/13/8 38/14/8 39/15/8 40/16/8 
# 2 polygons

