
        <svg width="100%" height="auto" id="Layer_1" data-name="Layer 1" xmlns="http://www.w3.org/2000/svg" xmlns:xlink="http://www.w3.org/1999/xlink" viewBox="0 0 878.88 624.72">
    <defs>
        <style>
            .cls-1 {
                fill: #b6fcd2;
            margin: 0 auto;
            }

            .cls-12,
            .cls-15,
            .cls-2,
            .cls-21 {
                fill: none;
            }

            .cls-2,
            .cls-21,
            .cls-3,
            .cls-4 {
                stroke: #1d1d1b;
            }

            .cls-12,
            .cls-2,
            .cls-21,
            .cls-3,
            .cls-4 {
                stroke-miterlimit: 10;
            }

            .cls-3,
            .cls-4 {
                fill: #1d1d1b;
            }

            .cls-3 {
                stroke-width: 0.65px;
            }

            .cls-5 {
                fill: grey;
            
            }

            .cls-6 {
                fill: url(#linear-gradient);
            }

            .cls-7 {
                fill: #3c3c3b;
            }

            .cls-8 {
                fill: url(#linear-gradient-2);
            }

            .cls-9 {
                fill: url(#linear-gradient-3);
            }

            .cls-10 {
                fill: #efb79a;          
            }

            .cls-11 {
                fill: #d3486e;
            
            }

            .cls-12 {
                stroke: #6c6b8a;
            }

            .cls-13 {
                fill: #0a0828;
            }

            .cls-14 {
                opacity: 0.48;
                fill: url(#linear-gradient-4);
            }

            .cls-16 {
                fill: #0072b0;
            }

            .cls-17 {
                fill: #fff;
            }

            .cls-18 {
                fill: #eca582;
            }

            .cls-19 {
                fill: #36a9e1;
            }

            .cls-20 {
                fill: #07a3e0;
            }

            .cls-21 {
                stroke-linecap: round;
                stroke-width: 7px;
            }

            .cls-22 {
                fill: #ce205f;
            }

            .cls-23 {
                fill: #009fe3;
            }

            .cls-24 {
                fill: #98d7ea;
            }

            .cls-25 {
                fill: url(#linear-gradient-5);
            }
            
            
             #Girl {
                animation: floatAnim 6s ease-in-out infinite;
              }


              @keyframes floatAnim {
                0% {
                  transform: translate(0,-23px);
                }
                50% {
                  transform: translate(0,-48px);
                }
                100% {
                  transform: translate(0,-23px);
                }
              }
                
            
             #shadow {
                animation: floatAnim1 6s ease-in-out infinite;
              }


              @keyframes floatAnim1 {
                0% {
                  rx:250.29px; ry:5.76; 
         
                  
                }
                50% {
                  rx:20px; ry:1.76; 
                  
                }
                100% {
                  rx:250.29px; ry:5.76; 
                 
                }
              }
                       
            
            
        </style>
        
       
        <linearGradient id="linear-gradient" x1="576" y1="665.04" x2="931.05" y2="665.04" gradientUnits="userSpaceOnUse">
            <stop offset="0" stop-color="#878787" />
            <stop offset="1" stop-color="#575756" />
        </linearGradient>
        <linearGradient id="linear-gradient-2" x1="1204.74" y1="937.46" x2="1587.71" y2="937.46" gradientTransform="translate(1446.89 -1090.98) rotate(69.46)" xlink:href="#linear-gradient" />
        <linearGradient id="linear-gradient-3" x1="1607.29" y1="818.06" x2="1962.33" y2="818.06" gradientTransform="translate(2207.86 -977.69) rotate(96.28)" xlink:href="#linear-gradient" />
        <linearGradient id="linear-gradient-4" x1="1238.15" y1="820.63" x2="1002.22" y2="473.67" gradientUnits="userSpaceOnUse">
            <stop offset="0" stop-color="#eca582" />
            <stop offset="0.03" stop-color="#c68a6d" stop-opacity="0.84" />
            <stop offset="0.08" stop-color="#9d6e56" stop-opacity="0.66" />
            <stop offset="0.13" stop-color="#775342" stop-opacity="0.5" />
            <stop offset="0.18" stop-color="#573d30" stop-opacity="0.37" />
            <stop offset="0.24" stop-color="#3b2a21" stop-opacity="0.25" />
            <stop offset="0.31" stop-color="#251a15" stop-opacity="0.16" />
            <stop offset="0.39" stop-color="#140e0b" stop-opacity="0.09" />
            <stop offset="0.49" stop-color="#090605" stop-opacity="0.04" />
            <stop offset="0.62" stop-color="#020101" stop-opacity="0.01" />
            <stop offset="1" stop-opacity="0" />
        </linearGradient>
        <linearGradient id="linear-gradient-5" x1="706.44" y1="628.51" x2="911.57" y2="628.51" gradientUnits="userSpaceOnUse">
            <stop offset="0" stop-color="#eca582" stop-opacity="0.6" />
            <stop offset="0.04" stop-color="#c58a6c" stop-opacity="0.5" />
            <stop offset="0.09" stop-color="#90654f" stop-opacity="0.37" />
            <stop offset="0.16" stop-color="#634537" stop-opacity="0.25" />
            <stop offset="0.23" stop-color="#3e2c22" stop-opacity="0.16" />
            <stop offset="0.32" stop-color="#221813" stop-opacity="0.09" />
            <stop offset="0.43" stop-color="#0e0a08" stop-opacity="0.04" />
            <stop offset="0.58" stop-color="#030202" stop-opacity="0.01" />
            <stop offset="1" stop-opacity="0" />
        </linearGradient>
    </defs>
    <path id="bubble" class="cls-1" d="M984.09,827.49c-439.72,96.36-518.56-138.4-299.57-373.15s497.54-259.28,679.73,22.78S1423.82,731.14,984.09,827.49Z" transform="translate(-566.72 -271.93)" />
    <g id="background">
        <g id="leaf_branch2">
            <path class="cls-2" d="M962.84,662.72c-96.1,0-177-62.5-201.81-147.89-.76-2.63-1.47-5.29-2.13-8a198.12,198.12,0,0,1-5.71-47.33" transform="translate(-566.72 -271.93)" />
            <path class="cls-2" d="M784.83,567s-40.88-37.83-78.31-.4" transform="translate(-566.72 -271.93)" />
            <path class="cls-3" d="M873.31,643.34S826.52,632,823.23,657.42,873.31,643.34,873.31,643.34Z" transform="translate(-566.72 -271.93)" />
            <path class="cls-3" d="M816.14,604.75s-18.62-49.44,6.94-57.91S816.14,604.75,816.14,604.75Z" transform="translate(-566.72 -271.93)" />
            <path class="cls-3" d="M755,486.26s13.09-35.43,29.84-26.72S755,486.26,755,486.26Z" transform="translate(-566.72 -271.93)" />
            <path class="cls-4" d="M706.5,566.55s-31.06,7.06-27.3,16.94S706.5,566.55,706.5,566.55Z" transform="translate(-566.72 -271.93)" />
            <path class="cls-4" d="M721.9,554.56s-34.08,1.48-27.49-12.17S721.9,554.56,721.9,554.56Z" transform="translate(-566.72 -271.93)" />
            <path class="cls-4" d="M742.63,550.72s-17.63,17-4.21,23.13S742.63,550.72,742.63,550.72Z" transform="translate(-566.72 -271.93)" />
            <path class="cls-4" d="M759.78,511s-34.17,18.53-37.88-2.12S759.78,511,759.78,511Z" transform="translate(-566.72 -271.93)" />
            <path class="cls-4" d="M753.45,459.84s-21.26-20.47-5-29.65S753.45,459.84,753.45,459.84Z" transform="translate(-566.72 -271.93)" />
        </g>
        <ellipse id="shadow" class="cls-5" cx="409.36" cy="609.9" rx="401.29" ry="13.76" />
        <g id="leaf1">
            <path class="cls-6" d="M931,800.32s-278.76,45.07-355-270C576,530.37,935.88,480.35,931,800.32Z" transform="translate(-566.72 -271.93)" />
            <path class="cls-7" d="M936.71,811.06c-11.59-15.07-24-29.51-36.78-43.54s-26-27.73-39.57-41a981.16,981.16,0,0,0-86-74.59c-15-11.6-30.47-22.62-46.15-33.31-7.94-5.19-15.77-10.55-23.87-15.48-4-2.49-8-5.08-12.11-7.49l-12.22-7.29c-4-2.48-8.24-4.7-12.37-7l-6.21-3.48c-2.07-1.16-4.14-2.32-6.26-3.4-8.41-4.38-16.77-8.89-25.36-13-16.93-8.62-34.44-16-52-23.47l13.35,5,6.67,2.55c2.22.85,4.39,1.82,6.59,2.72l13.17,5.53c2.21.89,4.35,1.93,6.52,2.9l6.5,3c8.7,3.88,17.15,8.26,25.69,12.49,2.14,1,4.24,2.17,6.34,3.3l6.3,3.37c4.18,2.27,8.43,4.42,12.54,6.83L694,592.8c2.08,1.15,4.1,2.42,6.14,3.66l6.09,3.73c8.19,4.87,16.11,10.18,24.14,15.32,15.81,10.63,31.35,21.68,46.48,33.28s29.79,23.79,44.1,36.37l10.64,9.54,10.48,9.72c3.48,3.25,6.88,6.58,10.32,9.88s6.75,6.72,10.13,10.07C889.26,751.47,914.69,780,936.71,811.06Z" transform="translate(-566.72 -271.93)" />
            <path class="cls-7" d="M810,677.51c-.44-8.69-1.21-17.22-2.18-25.72s-2.12-16.94-3.61-25.34-3.08-16.77-5.07-25.09c-.86-4.2-2-8.32-3-12.53-.42-2.12-1.08-4.17-1.58-6.27s-1-4.21-1.49-6.35c1.06,1.89,2.06,3.83,3,5.77s2,3.89,2.81,5.9c1.68,4,3.39,8,4.71,12.19.68,2.07,1.4,4.14,2,6.23s1.14,4.21,1.71,6.32,1,4.25,1.47,6.38.93,4.27,1.25,6.43a162.86,162.86,0,0,1,2.4,26.07A109.22,109.22,0,0,1,810,677.51Z" transform="translate(-566.72 -271.93)" />
            <path class="cls-7" d="M640.22,634c8.71.2,17.27.07,25.82-.27s17.05-.86,25.53-1.72,16.95-1.83,25.4-3.2c4.25-.54,8.45-1.39,12.71-2,2.15-.26,4.24-.76,6.38-1.11s4.27-.73,6.44-1c-2,.92-4,1.77-6,2.61s-4,1.68-6.1,2.36c-4.12,1.39-8.27,2.79-12.51,3.8-2.11.53-4.22,1.1-6.36,1.54s-4.28.83-6.43,1.24-4.31.69-6.47,1-4.33.61-6.5.77a162.35,162.35,0,0,1-26.18.45A108.61,108.61,0,0,1,640.22,634Z" transform="translate(-566.72 -271.93)" />
            <path class="cls-7" d="M750.67,724.37c8.7.2,17.26.07,25.81-.26s17-.87,25.53-1.73,17-1.83,25.4-3.2c4.25-.54,8.45-1.39,12.71-2,2.15-.26,4.24-.77,6.38-1.11s4.27-.73,6.44-1c-2,.92-4,1.78-6,2.62s-4,1.67-6.09,2.36c-4.13,1.38-8.27,2.79-12.51,3.79-2.12.53-4.23,1.1-6.36,1.55s-4.29.82-6.43,1.23-4.31.69-6.48,1-4.32.61-6.5.77a162.31,162.31,0,0,1-26.18.46A109.05,109.05,0,0,1,750.67,724.37Z" transform="translate(-566.72 -271.93)" />
        </g>
        <g id="leaf2">
            <path class="cls-8" d="M989.5,775.88s-151-264.51,138.3-460.75C1127.8,315.13,1314.54,659.7,989.5,775.88Z" transform="translate(-566.72 -271.93)" />
            <path class="cls-7" d="M980.81,785.71c10.84-17.42,20.73-35.39,30.06-53.63,2.34-4.56,4.62-9.14,6.92-13.72s4.51-9.2,6.68-13.83c4.38-9.27,8.68-18.56,12.78-27.94a1048.78,1048.78,0,0,0,42.84-115c6-19.57,11.32-39.34,16.17-59.22,2.24-10,4.69-19.93,6.61-30l1.52-7.52c.51-2.51,1-5,1.46-7.54l2.71-15.11c1-5,1.62-10.11,2.42-15.16l1.15-7.6.58-3.79c.19-1.27.33-2.54.49-3.81,1.27-10.16,2.68-20.31,3.55-30.51,2.3-20.37,3.16-40.86,4-61.36a751.42,751.42,0,0,1-8.91,122.77l-2.47,15.21c-.38,2.55-.9,5.06-1.38,7.59l-1.45,7.57c-1.83,10.11-4.19,20.12-6.34,30.17-4.76,20-10,39.88-16,59.55s-12.75,39.09-20,58.31l-5.61,14.36-5.85,14.26c-2,4.75-4,9.44-6.07,14.16s-4.22,9.37-6.33,14.06q-12.84,28-27.58,55.09-7.43,13.5-15.34,26.71C992.12,768.58,986.66,777.28,980.81,785.71Z" transform="translate(-566.72 -271.93)" />
            <path class="cls-7" d="M1067.74,607.13c8.61-3.74,16.93-7.74,25.16-11.93s16.3-8.56,24.22-13.24c2-1.09,3.93-2.37,5.91-3.54s4-2.34,5.89-3.6,3.88-2.47,5.85-3.68,3.83-2.55,5.77-3.8c3.92-2.45,7.65-5.18,11.54-7.73,2-1.23,3.8-2.66,5.74-4s3.85-2.65,5.85-3.91c-1.52,1.79-3.09,3.53-4.68,5.27s-3.19,3.46-4.9,5.06c-3.41,3.22-6.83,6.47-10.53,9.38-1.83,1.47-3.64,3-5.53,4.39s-3.82,2.74-5.74,4.11-3.91,2.63-5.89,3.91l-3,1.88c-1,.63-2,1.24-3,1.82A175,175,0,0,1,1095,599.83C1086.17,603.18,1077.1,606,1067.74,607.13Z" transform="translate(-566.72 -271.93)" />
            <path class="cls-7" d="M1047.42,419.23c3.09,8.86,6.47,17.46,10,26s7.33,16.89,11.41,25.13c.94,2.1,2.07,4.11,3.09,6.17s2,4.12,3.16,6.13,2.17,4.06,3.23,6.11,2.26,4,3.36,6c2.16,4.09,4.6,8,6.86,12.07,1.07,2.08,2.37,4,3.53,6s2.36,4,3.47,6.13c-1.68-1.64-3.3-3.34-4.91-5.06s-3.22-3.43-4.69-5.26c-3-3.64-6-7.29-8.57-11.2-1.33-1.93-2.71-3.85-4-5.84s-2.45-4-3.68-6-2.33-4.1-3.45-6.16l-1.65-3.13c-.56-1-1.1-2.08-1.6-3.15a175.49,175.49,0,0,1-10.36-26.27A117.66,117.66,0,0,1,1047.42,419.23Z" transform="translate(-566.72 -271.93)" />
            <path class="cls-7" d="M998,565c3.09,8.87,6.47,17.46,10,26s7.32,16.9,11.4,25.14c1,2.1,2.08,4.1,3.1,6.16s2,4.12,3.16,6.13,2.17,4.06,3.23,6.11,2.26,4,3.36,6c2.16,4.09,4.6,8,6.86,12.08,1.07,2.07,2.37,4,3.53,6s2.35,4,3.47,6.12c-1.68-1.64-3.3-3.34-4.91-5s-3.22-3.44-4.69-5.26c-3-3.65-6-7.3-8.57-11.2-1.33-1.94-2.71-3.86-4-5.84s-2.45-4-3.68-6-2.33-4.09-3.46-6.16l-1.65-3.12c-.56-1-1.09-2.09-1.59-3.16a176.93,176.93,0,0,1-10.37-26.26C1000.54,583.65,998.43,574.4,998,565Z" transform="translate(-566.72 -271.93)" />
        </g>
        <g id="leaf3">
            <path class="cls-9" d="M1045.45,868.45s-14.28-282,307.19-323.32C1352.64,545.13,1363,908.33,1045.45,868.45Z" transform="translate(-566.72 -271.93)" />
            <path class="cls-7" d="M1034.15,873c16.26-9.87,32-20.6,47.3-31.8s30.41-22.77,45.06-34.84A980.39,980.39,0,0,0,1210.07,729c13.16-13.66,25.82-27.81,38.15-42.22,6-7.33,12.22-14.53,18-22,2.92-3.74,5.93-7.41,8.77-11.21l8.58-11.36c2.91-3.75,5.58-7.67,8.36-11.52l4.13-5.79c1.39-1.93,2.77-3.86,4.07-5.85,5.28-7.88,10.68-15.7,15.66-23.79,10.42-15.88,19.71-32.47,29-49.06l-6.46,12.71-3.27,6.35c-1.08,2.12-2.29,4.17-3.43,6.26L1324.72,584c-1.13,2.1-2.39,4.11-3.6,6.16l-3.65,6.14c-4.81,8.22-10.09,16.15-15.23,24.17-1.27,2-2.62,4-4,5.94l-4,5.89c-2.71,3.91-5.32,7.9-8.17,11.72l-8.39,11.57c-1.38,1.95-2.86,3.81-4.31,5.7l-4.37,5.65c-5.75,7.61-11.89,14.9-17.87,22.31q-18.45,21.84-38.17,42.56-19.9,20.52-41,39.86l-10.64,9.53-10.81,9.35c-3.61,3.1-7.3,6.13-11,9.18s-7.42,6-11.12,9C1098.58,832.31,1067.43,854.46,1034.15,873Z" transform="translate(-566.72 -271.93)" />
            <path class="cls-7" d="M1180.78,761.58c8.69.51,17.25.68,25.8.65s17.07-.26,25.58-.81,17-1.23,25.5-2.3c4.27-.39,8.49-1.09,12.77-1.57,2.16-.18,4.27-.61,6.41-.88s4.3-.58,6.48-.79c-2,.85-4,1.63-6.07,2.4s-4.09,1.53-6.18,2.14c-4.17,1.24-8.36,2.5-12.63,3.35-2.13.45-4.26,1-6.41,1.32s-4.31.67-6.47,1-4.33.54-6.51.77-4.34.46-6.53.54a162.21,162.21,0,0,1-26.17-.47A109.4,109.4,0,0,1,1180.78,761.58Z" transform="translate(-566.72 -271.93)" />
            <path class="cls-7" d="M1242.59,597.63c-1.16,8.62-2,17.15-2.57,25.68s-1,17-1.08,25.57,0,17,.4,25.6c.08,4.28.46,8.55.62,12.85,0,2.17.3,4.3.41,6.46s.26,4.33.31,6.52c-.71-2.06-1.33-4.14-2-6.23s-1.23-4.19-1.68-6.32c-.92-4.25-1.87-8.52-2.4-12.85-.3-2.16-.63-4.32-.84-6.49s-.35-4.35-.53-6.53-.21-4.36-.28-6.54-.13-4.37,0-6.55a162.66,162.66,0,0,1,2.41-26.07A108.33,108.33,0,0,1,1242.59,597.63Z" transform="translate(-566.72 -271.93)" />
            <path class="cls-7" d="M1140.69,697.52c-1.16,8.62-2,17.15-2.57,25.68s-1,17-1.08,25.57,0,17.05.41,25.6c.07,4.28.45,8.55.62,12.85,0,2.17.29,4.3.4,6.46s.26,4.33.31,6.52c-.71-2.06-1.33-4.15-2-6.24s-1.23-4.18-1.68-6.31c-.92-4.25-1.87-8.52-2.4-12.85-.29-2.16-.63-4.32-.84-6.49s-.35-4.35-.52-6.53-.22-4.36-.29-6.54-.13-4.37,0-6.55a162.66,162.66,0,0,1,2.41-26.07A108.33,108.33,0,0,1,1140.69,697.52Z" transform="translate(-566.72 -271.93)" />
        </g>
        <g id="Leaf_branch1">
            <path class="cls-2" d="M1072,667.33c94.22-18.88,161.26-96.06,168.8-184.67.24-2.73.41-5.47.53-8.22a198,198,0,0,0-3.71-47.53" transform="translate(-566.72 -271.93)" />
            <path class="cls-2" d="M1227.69,538.47s32.66-45.13,76.71-15.79" transform="translate(-566.72 -271.93)" />
            <path class="cls-3" d="M1156,630.74s43.65-20.31,51.87,4S1156,630.74,1156,630.74Z" transform="translate(-566.72 -271.93)" />
            <path class="cls-3" d="M1204.42,581.66s8.54-52.14-18.19-55.42S1204.42,581.66,1204.42,581.66Z" transform="translate(-566.72 -271.93)" />
            <path class="cls-3" d="M1241.09,453.46s-19.8-32.16-34.51-20.33S1241.09,453.46,1241.09,453.46Z" transform="translate(-566.72 -271.93)" />
            <path class="cls-4" d="M1304.42,522.66s31.84.82,30.09,11.25S1304.42,522.66,1304.42,522.66Z" transform="translate(-566.72 -271.93)" />
            <path class="cls-4" d="M1287,513.93s33.71-5.25,24.57-17.33S1287,513.93,1287,513.93Z" transform="translate(-566.72 -271.93)" />
            <path class="cls-4" d="M1265.88,514.24s20.62,13.22,8.68,21.85S1265.88,514.24,1265.88,514.24Z" transform="translate(-566.72 -271.93)" />
            <path class="cls-4" d="M1241.26,478.68s37.15,11.45,36.73-9.53S1241.26,478.68,1241.26,478.68Z" transform="translate(-566.72 -271.93)" />
            <path class="cls-4" d="M1237.41,427.25s16.82-24.25-.9-30.05S1237.41,427.25,1237.41,427.25Z" transform="translate(-566.72 -271.93)" />
        </g>
        <g id="Girl">
            <g id="Girl-2" data-name="Girl">
                <path class="cls-10" d="M1071.24,744.4a6,6,0,0,1,.67,3.46c-.31,1.7-3.28,1.44-3.28,1.44Z" transform="translate(-566.72 -271.93)" />
                <path class="cls-10" d="M895.3,736.76s-3.26,9.08.93,13.14,10.37-11.12,10.37-11.12Z" transform="translate(-566.72 -271.93)" />
                <path class="cls-11" d="M1071.86,747a2,2,0,0,0,.1-.22L1074,756l2.24,14s43.53,2.36,69.65,6.24c14.18,1.07,28.88,2.73,42.32,8.14l.35.27.14.1c4,3,16.48,11.15,18.74,11.67a20.16,20.16,0,0,1,8,1.48c.31.11.61.23.9.35h0c2.18,1.25,3.8,2.21,4.88,2.81,6.46,3.57,10.06,21.27,10.06,21.27s-1.15,30.7-8.83,39.7S1197,872.9,1197,872.9s-.08,1.85-3.88,3.79-10.06-1.41-11.91.09c-1.38,1.12-7.48,2.23-11.14,2.8l23.9-10.48c1.41-14.36-70.91-49.38-82-55.26-13.42-.47-42.83,10.35-56.24,16.47-9.52,4.34-27,7.74-36.32,9.34-3.74-2.47-9.59-5.54-16.15-6.16a19.59,19.59,0,0,0-7.58,1C990.48,828,984.78,822.75,980,823c-8.58.48-20.61,6.09-27.29,9.55h0l-1.49-.74-3-1.51-1.55-.76L943.49,828c-13.62-6.84-28.34-14.5-38.24-20.39-.2-.35-.4-.69-.62-1s-.4-.68-.63-1c-.64-1-1.32-2-2-3l-.09-.13c-.44-.6-.9-1.19-1.37-1.77q-1.12-1.41-2.34-2.73c-.26-.3-.53-.59-.81-.88-.55-.58-1.1-1.16-1.67-1.72l-.86-.83c-1.17-1.13-2.39-2.21-3.62-3.25-.27-.24-.55-.46-.82-.68q-1.83-1.5-3.71-2.88c-.52-.39-1-.76-1.56-1.13l-.32-.22c-.31-.23-.62-.44-.94-.65s-.63-.44-1-.64-.63-.42-.94-.62c-.57-.38-1.14-.74-1.7-1.09-2.26-1.41-4.5-2.7-6.67-3.87-.6-.33-1.19-.64-1.78-.94-1.18-.61-2.32-1.18-3.43-1.72l-.82-.39-1-.47-1.39-.64c-2-.92-3.88-1.7-5.45-2.35l-.57-.23-1.06-.43-1.65-.65-.13,0-.61-.24-.59-.24h0c-11.65.71-30.12,3.42-44.7-.35s-27.3,4.71-29.06,6a3,3,0,0,0-.5.47l-.35.4c-.06.08-.12.15-.17.23-.17.24-.35.49-.52.76l-.33.55a39.54,39.54,0,0,0-2.12,4.3h0a11.94,11.94,0,0,0-3,2.21c-.37.37-.76.78-1.15,1.25a17.53,17.53,0,0,0-3,5.41,22.74,22.74,0,0,0-1.13,8.07,9.83,9.83,0,0,0,.19,1.66,16,16,0,0,0,.48,1.76,18.42,18.42,0,0,0,.74,1.86c.29.63.61,1.27,1,1.92h0c3.24,5.87,9.29,12.53,15,18.14l1,.93,1.85,1.77c.32.29.63.59.94.86.56.53,1.12,1,1.66,1.52l0,.06,0,0-4.92-1.82s-11.12-4.23-15.17-5.47c-10.58-8.35-17.49-16.75-21.86-24.75-13.27-24.32-2.42-46.45.15-50.93l.23-.16c3.83-2.58,4.49-4.24,10.21-3.44,5.34.76,10.67-4,12.79-6.7.7.27,1.94-.18,3.27-1.28a45.88,45.88,0,0,0,5.25-6c1.86-1.23,5.66-.86,8.45-1.66l2.18-.23a48.39,48.39,0,0,1,9.83.58,95.72,95.72,0,0,1,12.05,2.42c6.89,1.94,76.86,25,77.21,25.23.12.09.32,0,.48-.35a3.75,3.75,0,0,0-.13-3.18c-1-2.2,2.51-6,2.51-6l5.67-.28h.24a26,26,0,0,0,2.71,1.15c1.5.54,3.11,1,4.73,1.41.43.12.85.22,1.27.32,1.53.38,3,.71,4.43,1l1.18.29.16,0,.63.17a18.8,18.8,0,0,1,3.4,1.15l.32.17a3.07,3.07,0,0,1,.53.36l.2.18a1.45,1.45,0,0,1,.17.19,1.65,1.65,0,0,0,.23.26c4.18,3.81,45.61,20.13,62.32,9.36,17.12-11,57.79-9,70.41-5.47,5.6,1.56,9.95-.73,13.06-3.76a25.94,25.94,0,0,0,4.27-5.62.08.08,0,0,1,0,0l0-.06A6.27,6.27,0,0,0,1071.86,747Z" transform="translate(-566.72 -271.93)" />
                <path class="cls-10" d="M1052,555.45l-26.11,35-1.77,2.38s-78.25-9.48-80-10.59a12,12,0,0,1-1.32-3.5v0c-3.5-12.1-11.78-51.35-11.17-54.36.71-3.53,12.71-134.12,12.71-134.12,4.22-8.81,21.22-39.77,21.22-40.59,0-.56,23.39-3.44,33.84-4.7l4.94-.59,26.47,25.76,17.29,52.25-13.41,64.93Z" transform="translate(-566.72 -271.93)" />
                <path class="cls-12" d="M888.74,575.14S896.33,594.67,898,596s18.62,42,18.62,42l-14.82.44" transform="translate(-566.72 -271.93)" />
                <path class="cls-13" d="M938.2,642.43a23.52,23.52,0,0,0,2.19-10.95C941.22,634.85,940.69,638.43,938.2,642.43Z" transform="translate(-566.72 -271.93)" />
                <path class="cls-13" d="M1057.07,382a2.07,2.07,0,0,0,.65,1.47,12.27,12.27,0,0,0,2.23,1.94c1.8,1.27,3.91,2.39,6,3.76s4,2.52,6.06,3.82a40.56,40.56,0,0,1,6.06,4.4,17.93,17.93,0,0,1,4.48,6.25,14.23,14.23,0,0,1,1,7.53,14.46,14.46,0,0,1-3,6.77,19,19,0,0,1-5.51,4.69,18.5,18.5,0,0,0,4.92-5.1,13.37,13.37,0,0,0,2.16-6.5,12.4,12.4,0,0,0-1.52-6.47,15.4,15.4,0,0,0-4.37-5c-3.6-2.68-8.16-4.35-12.45-6.72-2-1.05-4.26-2-6.52-3.28a17.19,17.19,0,0,1-3.42-2.49,8.64,8.64,0,0,1-1.56-2,6.94,6.94,0,0,1-.86-2.85Z" transform="translate(-566.72 -271.93)" />
                <path class="cls-10" d="M1262.68,795.25c-1,1.12-3.65,5.12-13,.59-5.06.36-8.35.53-8.35.53s-5.06,6.59-9.71,5.18-5.06-2.77-7.88-2.18-4.18.81-4.18.81a12.22,12.22,0,0,0-3.17-1.8h0c-.29-.12-.59-.24-.9-.35a20.16,20.16,0,0,0-8-1.48c-2.26-.52-14.75-8.63-18.74-11.67l-.14-.1-.35-.27c-4.43-3.23-21-12.94-25.82-14.31-5-1.42-38.24-24.36-47.42-31.53s-22.11-19.18-31.46-36.24c-4-17.23-13.71-58.16-13.91-59h0c-.15-7.17-.36-21.18.08-23.1.59-2.59,2.47-7.06,1.65-8.82-.75-1.6-1-7.64,2.63-12.22h0a43.59,43.59,0,0,1-6.82-2.37,30.08,30.08,0,0,0-1.6-7.7c28.29-38.76-9.7-54.85,0-82.8l9.22,2.9,0,0c13.14,4.69,30,13.2,33.28,26.64,5.47,22.59,7.41,46.76,4.24,64.24,1.53,18.35,9,56.29,9.35,67.94s9,21.17,20.29,28.94,32.76,48.24,63.31,62.59c8.62-3.14,12.28-5.31,35.69-4.42,2.77-.53,7.47.36,10.53-.94s14.94-3.76,17,1-9.17,8.53-9.7,8.71c1.06.65,3.41-1.12-3.65,20.06.18,1.12,3.77,2.06,3.77,2.06s8.58-3.06,12.82,1.29C1271.74,787.43,1274.09,790.72,1262.68,795.25Z" transform="translate(-566.72 -271.93)" />
                <path class="cls-14" d="M1262.65,795.21c-1,1.12-3.65,5.12-13,.59-5.06.36-8.35.53-8.35.53s-5.06,6.59-9.71,5.18-5.06-2.77-7.88-2.18-4.18.81-4.18.81-1.12-.65-3.17-1.8h0c-.29-.12-.59-.24-.9-.35a20.16,20.16,0,0,0-8-1.48c-2.26-.52-14.75-8.63-18.74-11.67l-.14-.1-.35-.27c-4.43-3.23-21-12.94-25.82-14.31s-38.24-24.36-47.42-31.53-22.11-19.18-31.46-36.24c-4-17.23-13.71-58.16-13.91-59h0c-.15-7.17-.36-21.18.08-23.1.59-2.59,2.47-7.06,1.65-8.82-.75-1.6-1-7.64,2.63-12.22h0a43.59,43.59,0,0,1-6.82-2.37,30.08,30.08,0,0,0-1.6-7.7c28.29-38.76-9.7-54.85,0-82.8l9.22,2.9,0,0c13.14,4.69,30,13.2,33.28,26.64,5.47,22.59,7.41,46.76,4.24,64.24,1.53,18.35,9,56.29,9.35,67.94s9,21.17,20.29,28.94,32.76,48.24,63.31,62.59c8.62-3.14,12.28-5.31,35.69-4.42,2.77-.53,7.47.36,10.53-.94s14.94-3.76,17,1-9.17,8.53-9.7,8.71c1.06.65,3.41-1.12-3.65,20.06.18,1.12,3.77,2.06,3.77,2.06s8.58-3.06,12.82,1.29C1271.71,787.39,1274.06,790.68,1262.65,795.21Z" transform="translate(-566.72 -271.93)" />
                <path class="cls-10" d="M901.22,614.54c1.35-2.83-1.24-4.71-.18-5.77.58-.58-.32-4.31-1.32-7.69-.83-2.8-1.46-5.18-1.62-5.47s1-4.22,4.41-8.45c-1.38-3.19-3.14-7.14-3.26-10.89-.55-17,16.21-46,10.32-54.61-2.12-3.08-3.79-8.11-4.81-13.75-13.83,1-43.16,5.94-45.31,28.92,0,0-7.76,18-4.41,36.35,3,16.18-2.18,83.72-5,102.45l-.06,0c-8.06,3.5-29.12,12.81-34.61,16.87-6.82,5.06-32.94,8.36-32.94,8.36s-8.23,3.17-17.65-3.89c-6-1.88-26.35-2.7-26.35-2.7s-22.35,2-17.76,9.41c2.4,3.89,3.42,4.63,3.84,4.47-1,3.84-4.09,16.87-3.49,19.18.71,2.7-1,2.82-1,2.82s-10.32-13.76-13.74-4.47a124.53,124.53,0,0,0,6.24,14.59s3.76,1.41,4.47,1.29,8.23-4.59,11.29-2.82a31.67,31.67,0,0,1,8.12,6.29c2.77,2.94,8.35-.23,10.24,0a12.76,12.76,0,0,0,3.29,3.06s-.13.19-.34.56c-.06.1-.13.21-.2.34l.23-.16c3.83-2.58,8-4.45,10.72-3.09C766.8,749,771.92,742,774,739.33c.7.27,1.87-.4,3.2-1.5a19.19,19.19,0,0,1,6-6.35,24.92,24.92,0,0,1,6.93-3.12,36.23,36.23,0,0,1,7.3-1.29c20.12,4,44.82-.12,49.29-.83,3.18.47,19.65-5.17,23.65-7.41,4.47,1.18,9.77-2.12,9.77-2.12s8.11-13.17,11.29-14.94c.68-.37,1.53-3.5,2.44-8.2,3.36-17.1,7.59-55,7.68-55.7h0c-.35-.89-.59-1.45-.59-1.45l1.06-12.87S899.86,617.36,901.22,614.54ZM724.51,708.18c.16-.67.26-1.06.26-1.06S724.87,708,724.51,708.18Z" transform="translate(-566.72 -271.93)" />
                <path class="cls-15" d="M1071.49,746.2h0c.07-.21.13-.42.19-.64s.09-.45.13-.68c1.41-8.31-5.81-22.36-6.88-24.49,13.59-12.53,2-21.66-.75-25.15,7.15-7.58-4.27-13.23-5.51-16.45a8.7,8.7,0,0,1,2.56-9.22c2.38-2,3-12.75,2.16-15,4.28-3.39,4.24-7.32,3.75-8.64.56,0,1.63-1.38,2.45-2.53h0c-.15-7.17-.36-21.18.08-23.1.59-2.59,2.47-7.06,1.65-8.82-.75-1.6-1-7.64,2.63-12.22h0a43.59,43.59,0,0,1-6.82-2.37,31.88,31.88,0,0,1-6.22,22.21c-4.07,5.45-10.59,10.73-20.79,14.91-7.06,9.53-24.5,31.46-29.3,28.23,3,2,23.83-21.06,17.29-62.1a7.16,7.16,0,0,0-1.62-3.53,37.41,37.41,0,0,1-4-5.86,42.28,42.28,0,0,1-4.81-14.08c-10.79,2.88-34.09,4.17-49.2-1.63a33.21,33.21,0,0,1-18.61-17.62c-4.06,6.29-8.68,12.88-10.45,21.6v0c-1.18,5.76-1.12,12.44,1.17,20.59,7.76,27.62,2,42.38-8.94,52.15a35,35,0,0,0,6.51-9.31s0,0,0-.05a23.52,23.52,0,0,0,2.19-10.95l-.15-.56c-.08-.27-.17-.55-.27-.82s-.21-.56-.33-.83l0-.08a6.28,6.28,0,0,0-.27-.59,9.51,9.51,0,0,0-.46-.9c0-.1-.11-.2-.17-.3-.15-.28-.32-.55-.49-.82-6.87-11.4-26.52-25.86-36.08-39.38h0c-3.37,4.23-4.34,8.36-4.12,8.77s1.06,2.86,1.89,5.66c1,3.38,1.9,7.11,1.32,7.69-1.06,1.06,1.53,2.94.18,5.77s.88,9,.88,9L901.21,637s.24.56.59,1.45h0a41.92,41.92,0,0,1,2.35,7.9,4.78,4.78,0,0,0-.42.34c-5.15,4.53,3.1,14.42,6.54,21.07-5.39,5.39-4,16-2.45,22.61a56.78,56.78,0,0,0,1.61,5.6s-9.22,9.93-13.63,15.44,4,11.21,3.26,12.4-5.2,10.45-3.35,18.4a5.3,5.3,0,0,0,.89,1.91,2.35,2.35,0,0,0,.19.25,3.82,3.82,0,0,0,.27.32,9.09,9.09,0,0,0,1.41,1.26l.27.18c.21.15.42.28.64.41l.41.24.43.23" transform="translate(-566.72 -271.93)" />
                <path class="cls-15" d="M1070.52,748.16l0-.06" transform="translate(-566.72 -271.93)" />
                <polyline class="cls-12" points="157.96 436.79 157.95 436.79 157.96 436.79" />
                <path class="cls-13" d="M987.85,331.68a26.19,26.19,0,0,0-10.84-2.8C980.91,328.37,984.74,329,987.85,331.68Z" transform="translate(-566.72 -271.93)" />
                <path class="cls-10" d="M1055,886.33a10.66,10.66,0,0,1-2.5,5.83c-13.09-.41-43.15.48-61.87-.79-20.53.17-23.15-4.77-28.09-6.88l-.41-.13a145,145,0,0,0-17.33-4.58h0L937,877.24h0l-50.65-16.57L867.79,854s-15.55-1.39-29.34-2.87h0l-.56-.49c-28.42-6.35-34.59-15.35-34.59-15.35l-9.8-3.62-1.5-.55h0l0,0c-.56-.5-1.13-1-1.71-1.58-.31-.27-.62-.57-.94-.86l-1.85-1.77-1-.93c-5.71-5.59-11.76-12.26-15-18.14h0c-.36-.65-.69-1.29-1-1.92a18.42,18.42,0,0,1-.74-1.86,12.53,12.53,0,0,1-.48-1.76,9.87,9.87,0,0,1-.2-1.66,22.74,22.74,0,0,1,1.13-8.07,17.33,17.33,0,0,1,3-5.41,16.08,16.08,0,0,1,1.15-1.25,11.94,11.94,0,0,1,3-2.21,38.53,38.53,0,0,1,2.13-4.3l.33-.55c.17-.27.35-.52.52-.76.05-.08.11-.15.17-.23l.35-.4a3,3,0,0,1,.5-.47c1.76-1.29,14.47-9.76,29.06-6s33,1.06,44.7.35h0l.5.21.09,0,.61.24.13,0,1.65.65,1.06.43.57.23c1.57.65,3.41,1.43,5.45,2.35l1.39.64,1,.47.82.39c1.11.54,2.25,1.11,3.43,1.72l1.78.94c2.17,1.17,4.41,2.46,6.67,3.87l1.7,1.09.94.62.95.64.94.65.32.22,1.56,1.13q1.88,1.38,3.71,2.88l.82.68c1.23,1,2.45,2.12,3.62,3.25l.86.83c.57.56,1.12,1.14,1.67,1.72l.81.88q1.21,1.32,2.34,2.73c.47.58.92,1.17,1.37,1.77l.09.13q1.07,1.45,2,3c.21.34.43.68.63,1l.61,1h0c9.9,5.89,24.62,13.55,38.24,20.39l3.11,1.57,1.55.76,3,1.51,1.49.74h0c5.8,2.87,11.1,5.45,15.34,7.51l.9.43,2.75,1.33,1.26.6,4.07,2L978,845l.53-.47h0a27.57,27.57,0,0,1,8.78,1.65c9.21,3.52,15.39-1.24,26.51,2.47,9.2,3.06,22.15,2.86,30.84,11.43l.49.49c.32.34.64.69,1,1a26.51,26.51,0,0,1,3.35,5C1053.08,873.62,1055.7,880.71,1055,886.33Z" transform="translate(-566.72 -271.93)" />
                <path class="cls-16" d="M1106.07,885.82c-.47,0-.84,0-1.13,0-1,2.18-3,3.29-8.47,6.12-8.58,7.76-17.41,3.11-17.41,3.11s-12.82-1.94-23-2.73l-.63-.05c-.84,0-1.83-.1-2.94-.13a10.62,10.62,0,0,0,2.5-5.84c.69-5.62-1.93-12.71-5.52-19.65a26.07,26.07,0,0,0-3.36-5c-.31-.37-.63-.72-1-1a5.66,5.66,0,0,0-.49-.49c-8.69-8.57-21.64-8.37-30.84-11.43-11.12-3.71-17.3,1.05-26.51-2.47a27.57,27.57,0,0,0-8.78-1.65l.44-.37.26-.21.6-.48.41-.32.71-.56a63.08,63.08,0,0,1,5.36-3.66l1-.61a42.48,42.48,0,0,1,7.43-3.48l.85-.28a19.59,19.59,0,0,1,7.58-1c6.56.62,12.41,3.69,16.15,6.16a38.85,38.85,0,0,1,4.32,3.25s13.29,5.65,41.65,3.18c10.11,1.64,17.53,3.88,23.06,9.88,8.7,4.94,13.64,7.06,17.17,26A35,35,0,0,1,1106.07,885.82Z" transform="translate(-566.72 -271.93)" />
                <path class="cls-17" d="M1053,892.65a10.72,10.72,0,0,0,2-6,20.13,20.13,0,0,0-.87-6.25,57.21,57.21,0,0,0-5.11-11.74,27.49,27.49,0,0,0-3.47-5.11c-.34-.4-.71-.76-1.06-1.14-.18-.19-.33-.31-.49-.48l-.59-.53a23.6,23.6,0,0,0-2.42-1.86,35.18,35.18,0,0,0-11.41-4.76c-4.11-1.11-8.43-1.77-12.8-2.94-1.07-.3-2.21-.66-3.24-1a25.65,25.65,0,0,0-3-.86,30.61,30.61,0,0,0-6.16-.74c-2.1-.06-4.27.11-6.51.1a26.53,26.53,0,0,1-6.79-.7,20.22,20.22,0,0,1-3.23-1.12c-1-.45-2-.86-3-1.25a30.64,30.64,0,0,0-6.3-1.68,25.35,25.35,0,0,1,6.6.67c1.08.23,2.17.55,3.21.87a19.64,19.64,0,0,0,3.08.65c4.16.6,8.34-.42,12.9-.63a29.17,29.17,0,0,1,6.9.41,32.62,32.62,0,0,1,3.38.82c1,.32,2,.58,3.06.82,4.13,1,8.48,1.64,12.85,2.73a37.72,37.72,0,0,1,12.6,5.54,26.35,26.35,0,0,1,8.64,10.8A50.16,50.16,0,0,1,1056,880a20.42,20.42,0,0,1,0,6.8A11.71,11.71,0,0,1,1055,890,10,10,0,0,1,1053,892.65Z" transform="translate(-566.72 -271.93)" />
                <path class="cls-16" d="M995.63,834.58l-.85.28a42.48,42.48,0,0,0-7.43,3.48l-1,.61a63.08,63.08,0,0,0-5.36,3.66l-.71.56-.41.32-.6.48-.26.21-.44.37L978,845l-1.08-.51-4.07-2-1.26-.6-2.75-1.33-.9-.43c-4.24-2.06-9.54-4.64-15.34-7.51,6.68-3.46,18.71-9.07,27.29-9.55C984.74,822.87,990.44,828.08,995.63,834.58Z" transform="translate(-566.72 -271.93)" />
                <path class="cls-18" d="M1193.88,869.22,1170,879.7c-1.26.19-2.24.32-2.62.37-37.73,7-55.82,5.82-61.29,5.75a35,35,0,0,0-.51-3.74c-3.53-18.94-8.47-21.06-17.17-26-5.53-6-13-8.24-23.06-9.88-14.94,1.3-25.69.35-32.53-.85a46.29,46.29,0,0,1-9.12-2.33,38.85,38.85,0,0,0-4.32-3.25c9.33-1.6,26.8-5,36.32-9.34,13.41-6.12,42.82-16.94,56.24-16.47,9.53,5.07,64.69,31.84,78.73,48.32C1192.88,864.89,1194.07,867.25,1193.88,869.22Z" transform="translate(-566.72 -271.93)" />
                <path class="cls-15" d="M944.79,879.78c-2.91-.59-5.8-1.08-8.66-1.5l.91-1Z" transform="translate(-566.72 -271.93)" />
                <path class="cls-15" d="M978.57,844.55,978,845l-1.08-.51C977.48,844.51,978,844.52,978.57,844.55Z" transform="translate(-566.72 -271.93)" />
                <path class="cls-18" d="M1083,567.91s-3.48,14.63-4.91,19.43c-.91,3-4.14,11.93-4.14,11.93-.44.26-2.8.14-2.76.88.17,3.21-.28,3.75-.87,6.88-.76,4-.36,7.94-1.51,12a51.6,51.6,0,0,0-1.92,12.41c-.1,2.27-.24,4.53-.3,6.79,0,.23,0,.46,0,.68a4.91,4.91,0,0,1,1.33,1.61,8,8,0,0,1,.56,1.35c.18-.67.35-1.28.49-1.79.16.72,7.5,36.65,12.4,53.8C1080,686.83,1076.51,643.11,1083,567.91Z" transform="translate(-566.72 -271.93)" />
                <path class="cls-18" d="M894.12,694.11c.92-1.36,1.5-46.1-12.79-126.26l18.56,33.77,5.67,10.31v0l6.54,11.89s0,1.34.1,3.63c.06,2.54.14,6.25.22,10.61.34,18.92.59,50.1-1.5,51.17a25.7,25.7,0,0,1-3.11,1.08c-1.54-6.56-2.94-17.22,2.45-22.61-3.53-6.82-12.12-17.05-6.12-21.41a41.92,41.92,0,0,0-2.35-7.9c-.09.75-4.32,38.6-7.68,55.7Z" transform="translate(-566.72 -271.93)" />
                <path class="cls-19" d="M1071.49,746.2h0q.09-.3.18-.63c0-.22.09-.45.13-.68,1.41-8.31-5.81-22.36-6.88-24.49,13.59-12.53,2-21.66-.75-25.15,7.15-7.58-4.27-13.23-5.51-16.45a8.7,8.7,0,0,1,2.56-9.22c2.38-2,3-12.75,2.16-15,4.28-3.39,4.24-7.32,3.75-8.64.56,0,1.63-1.38,2.45-2.53h0c-.15-7.17-.36-21.18.08-23.1.59-2.59,2.47-7.06,1.65-8.82-.75-1.6-1-7.64,2.63-12.22h0a43.59,43.59,0,0,1-6.82-2.37,31.88,31.88,0,0,1-6.22,22.21c-4.07,5.45-10.59,10.73-20.79,14.91-7.06,9.53-24.5,31.46-29.3,28.23,3,2,23.83-21.06,17.29-62.1a7.16,7.16,0,0,0-1.62-3.53,37.41,37.41,0,0,1-4-5.86,42.28,42.28,0,0,1-4.81-14.08c-10.79,2.88-34.09,4.17-49.2-1.63a33.21,33.21,0,0,1-18.61-17.62c-4.06,6.29-8.68,12.88-10.45,21.6v0c-1.18,5.76-1.12,12.44,1.17,20.59,7.76,27.62,2,42.38-8.94,52.15a35,35,0,0,0,6.51-9.31s0,0,0-.05a23.52,23.52,0,0,0,2.19-10.95l-.15-.56c-.08-.27-.17-.55-.27-.82s-.21-.56-.33-.83l0-.08a6.28,6.28,0,0,0-.27-.59,9.51,9.51,0,0,0-.46-.9c0-.1-.11-.2-.17-.3-.15-.28-.32-.55-.49-.82-6.87-11.4-26.52-25.86-36.08-39.38h0c-3.37,4.23-4.34,8.36-4.12,8.77s1.06,2.86,1.89,5.66c1,3.38,1.9,7.11,1.32,7.69-1.06,1.06,1.53,2.94.18,5.77s.88,9,.88,9L901.21,637s.24.56.59,1.45h0a41.92,41.92,0,0,1,2.35,7.9,4.78,4.78,0,0,0-.42.34c-5.15,4.53,3.1,14.42,6.54,21.07-5.39,5.39-4,16-2.45,22.61a56.78,56.78,0,0,0,1.61,5.6s-9.22,9.93-13.63,15.44,4,11.21,3.26,12.4-5.2,10.45-3.35,18.4a5.3,5.3,0,0,0,.89,1.91,2.35,2.35,0,0,0,.19.25,2.69,2.69,0,0,0,.27.32,9.09,9.09,0,0,0,1.41,1.26l.27.18c.21.15.42.28.64.41l.41.24c.14.08.28.16.43.23l.21.11a26,26,0,0,0,2.71,1.15c6.65,2.4,15.49,3.22,17,5.32,2.38,3.26,45.44,20.65,62.56,9.62s57.79-9,70.41-5.47c9,2.5,14.74-4.9,17.32-9.38,0,0,0,0,0,0a.83.83,0,0,0,.07-.13l0-.06Z" transform="translate(-566.72 -271.93)" />
                <path class="cls-18" d="M855.3,771.46c-1.12,1.52-2.94,1.45-5,2.2-5.81,2.15-24.12,1.71-44.59,1.71s-17.89,8.71-21.61,10.12-8,10.35-7.57,20,14.69,25.09,15.13,25.58c-9.16-8.31-22.67-22-22.9-30.52-.35-12.94,8.24-16.94,8.24-16.94s2.23-5.41,4-6.71,14.47-9.76,29.06-6,33,1.06,44.7.35Z" transform="translate(-566.72 -271.93)" />
                <path class="cls-20" d="M1056.14,667.87c-2.18-.29-101.54.23-107.35,15.83-5.88,15.76-21.65,12.94-21.65,12.94s-19.57,4-14.49,12.23,18.26,15.3,13.55,18.36-14.1,13.64,38.59,30.11c2.63.83-62.12-16-60.47-10.83.29.91-.19,1.45-1.19,1.72a26,26,0,0,1-2.71-1.15c-2.42-1.22-4.22-2.79-4.72-4.91-1.85-7.95,2.65-17.21,3.35-18.4s-7.67-6.88-3.26-12.4,13.63-15.44,13.63-15.44a56.78,56.78,0,0,1-1.61-5.6c-1.54-6.56-2.94-17.22,2.45-22.61-3.44-6.65-11.69-16.54-6.54-21.07,5.84,11.48,14,21.59,24.51,21.28,24.09-.7,87-.94,87-.94Z" transform="translate(-566.72 -271.93)" />
                <path class="cls-21" d="M1052.79,880.17" transform="translate(-566.72 -271.93)" />
                <path class="cls-16" d="M944.79,879.78c-2.91-.59-5.8-1.08-8.66-1.5-16.74-2.46-32.84-2.45-49.1-3.32-23.82-3.36-19.5-3.53-21.09-6.36-7.46,0-24.22-14.58-27.49-17.51,13.79,1.48,29.34,2.87,29.34,2.87l18.59,6.71L937,877.24h0Z" transform="translate(-566.72 -271.93)" />
                <path class="cls-18" d="M1055,886.33a10.66,10.66,0,0,1-2.5,5.83c-13.09-.41-43.15.48-61.87-.79-20.53.17-23.15-4.77-28.09-6.88l-.41-.13a145,145,0,0,0-17.33-4.58h0L937,877.24h0l-50.65-16.57L867.79,854s-15.55-1.39-29.34-2.87h0l-.56-.49c-28.42-6.35-34.59-15.35-34.59-15.35l-9.8-3.62c-.66-.25-.89-.33-1.54-.59-1-.42-1.13-1.64-1.85-1.89L790,829l0,0h0a16.76,16.76,0,0,0-2.93-3.14c-1.48-1.14-3-3.31-4.71-5a2.29,2.29,0,0,0-.23-.21,6,6,0,0,0-1.48-2.22,9.35,9.35,0,0,0-1-.77l0,0a12.4,12.4,0,0,0-1.34-1.72l-.14-.11c-1-2.12-1.91-4.26-3.05-6.34-2.51-4.55-4.1-8.1-.62-12.65a3.9,3.9,0,0,0,.63-4.21h4s29.24,44,75.93,44.28c2.49,2.8,61.11,38.23,96.41,34.7,8.82,3.53,15,14.21,46.62,16.84,10.54.88,23.91.87,41.14-.6Z" transform="translate(-566.72 -271.93)" />
                <path class="cls-10" d="M1190.65,862.28c-6.74-3.4,3.25-5-49-18.35,0,0,2.82-7.74-30-16.7-27.78-7.58-59.11,14.16-78.81,18.12a46.29,46.29,0,0,1-9.12-2.33,38.85,38.85,0,0,0-4.32-3.25c9.33-1.6,26.8-5,36.32-9.34,13.41-6.12,42.82-16.94,56.24-16.47C1121.45,819,1176.61,845.8,1190.65,862.28Z" transform="translate(-566.72 -271.93)" />
                <path class="cls-18" d="M1037.26,554.52,1021,563.93s-14.23-18.7-15.88-34.82L998,487.46a244.25,244.25,0,0,0-17.91-26.86s3.62,1.06,12,1.06c21.28-2.56,29.69-16.75,31.86-21.3.26-.55.44-1,.53-1.19l-.11.31s-8.21,35.95-13.37,57.38l9.61,12.44Z" transform="translate(-566.72 -271.93)" />
                <path class="cls-10" d="M1029,419.75s-3.1,20-4.41,24.83-9.78,15.17-26.59,20.35-36.71-9.53-40.17-11.18-7.25-14.09-8.35-19.64c-1-4.94-2.79-20.12-2.32-23.18S950,391.4,950,391.4s75.14-.47,78.35,11.53S1029,419.75,1029,419.75Z" transform="translate(-566.72 -271.93)" />
                <path class="cls-22" d="M910.9,789.79l-29.58-26.62a72.8,72.8,0,0,0,3.7,7.21c-7.32-7.88-23.6-21.84-49.11-30-15.54-4.95-29.38-8.94-36.65-11.52a153.54,153.54,0,0,1,15.18,2.79c6.89,1.94,76.86,25,77.21,25.23.12.09.32,0,.48-.35l18.8,10.24s58.56,35.65,58.21,56.34c-13.06-14.26-55.63-43.9-66.46-47.79C892.11,771.55,910,788.94,910.9,789.79Z" transform="translate(-566.72 -271.93)" />
                <path class="cls-23" d="M1055,846.61a41.69,41.69,0,0,1,30.24,6.47c14.7,10,11.87,9.53,16.7,13.53,6.58,5.44,5.3,19.18,5.3,19.18a31,31,0,0,1-13.18,10.82c-3.41,0-11.61.32-15-1.54,1.77-3.77,7,.36,10.87-17.28-.7-4.24-1.88-8.12-7.17-14.83C1082.76,863,1072.46,848.67,1055,846.61Z" transform="translate(-566.72 -271.93)" />
                <path class="cls-23" d="M837.88,850.6,867.79,854s-5.17,7.54-1.85,14.64S837.88,850.6,837.88,850.6Z" transform="translate(-566.72 -271.93)" />
                <path class="cls-24" d="M906.47,637c.71,41.29,64,30.77,80.65,30.24C987.12,667.19,925.71,673.5,906.47,637Z" transform="translate(-566.72 -271.93)" />
                <path class="cls-24" d="M1068,641.84c-.71,41.29-64,30.77-80.65,30.24C987.38,672.08,1048.79,678.39,1068,641.84Z" transform="translate(-566.72 -271.93)" />
                <path class="cls-22" d="M750.67,757.11S734,790.76,764.32,812.4c1.41-5.64-5.56-27.76,4.75-39.06s-15.81.71-15.81.71S744.32,770.28,750.67,757.11Z" transform="translate(-566.72 -271.93)" />
                <path class="cls-22" d="M1112.09,811.7c1.41-.47,38.58-14.73,62.58-10-23.06,2.37-31.17,10.66-28.7,13.84s22,14.12,22,14.12-24.78-13.05-34.31-14.47S1112.09,811.7,1112.09,811.7Z" transform="translate(-566.72 -271.93)" />
                <path class="cls-22" d="M1076,770.1s-76.84,29.83-80.38,57.6c12.46-12.47,38.45-37.65,68.28-40.47s-21.59,31-21.59,31,42.47-33.88,47.18-28.7-2.36,14.53-2.36,14.53,19.65-24.88,47.89-17.83,41.86-5.57,41.86-5.57S1137,771.56,1076,770.1Z" transform="translate(-566.72 -271.93)" />
                <path class="cls-13" d="M935.36,562.31a126.64,126.64,0,0,0,3.6,15.81,105.64,105.64,0,0,0,5.7,15.23A58.62,58.62,0,0,0,953.39,607a29.34,29.34,0,0,0,13.35,9,29.73,29.73,0,0,1-13.9-8.51A59.72,59.72,0,0,1,943.32,594a108.56,108.56,0,0,1-6.51-15.21,130.61,130.61,0,0,1-4.41-16Z" transform="translate(-566.72 -271.93)" />
                <path class="cls-25" d="M901.28,614.51c1.35-2.83-1.24-4.71-.18-5.77.58-.58-.32-4.31-1.32-7.69-.83-2.8-1.73-5.37-1.89-5.66s.66-4.16,3.65-8.17a1.3,1.3,0,0,0,.17-1.29,34.52,34.52,0,0,1-2.4-9.69c-1.69-17.09,18.45-45.68,10.32-54.61-2.35-2.57-3.6-7.37-4.64-12.53a1.33,1.33,0,0,0-1.4-1.07c-14.21,1.2-41.84,6.39-44.07,28.58a1.37,1.37,0,0,1-.08.35c-.75,1.81-7.51,18.85-4.34,36.19,2.91,16-2.06,82.05-4.91,101.73l-.78,1c-8.47,3.68-28.64,12.64-34,16.6-6.54,4.85-30.8,8.08-32.81,8.34l-.26.06c-1,.34-7.83,2.35-15.89-2.8a12.52,12.52,0,0,0-4.44-1.78c-7.57-1.36-22.24-2-23.46-2.05h-.17c-1.5.14-22.1,2.26-17.67,9.4a18.59,18.59,0,0,0,3.12,4.2,1.25,1.25,0,0,1,.47,1.28c-1.15,4.72-3.8,16-3.24,18.17l0,.08a1.32,1.32,0,0,1-2.29,1.15c-2.82-3.25-9.47-9.83-12.26-3.35a1.27,1.27,0,0,0,0,.94,126,126,0,0,0,5.84,13.66,1.28,1.28,0,0,0,.73.64,17.72,17.72,0,0,0,4,1.11c.71-.11,8.23-4.59,11.29-2.82a31.67,31.67,0,0,1,8.12,6.29c2.42,2.58,7,.46,9.37.05a1.31,1.31,0,0,1,1.24.47,13.94,13.94,0,0,0,2.92,2.54s-.13.19-.34.56c-.06.1-.13.21-.2.34l.23-.16c3.83-2.58,8-4.45,10.72-3.09,6.05,3,10.94-3,13.26-5.92a1.4,1.4,0,0,1,1-.47,6.08,6.08,0,0,0,2.48-1.4,1.27,1.27,0,0,0,.3-.35,19.27,19.27,0,0,1,5.93-6.15,24.92,24.92,0,0,1,6.93-3.12,35.39,35.39,0,0,1,7.11-1.27,1.08,1.08,0,0,1,.36,0c19.88,3.89,44.13-.07,49-.85h.3c3.41.27,18.55-4.88,23.08-7.21a1.31,1.31,0,0,1,.87-.11c3.73.73,7.89-1.42,9-2.06a1.24,1.24,0,0,0,.47-.44c1.18-1.9,8.21-13,11.12-14.67.68-.37,1.53-3.5,2.44-8.2,3.36-17.1,7.59-54.95,7.68-55.7h0c-.2-.51-.37-.91-.47-1.16a1.27,1.27,0,0,1-.1-.61l1-12.27a1.19,1.19,0,0,0-.06-.53C901.67,622.06,900.08,617,901.28,614.51ZM724.57,708.15c.16-.67.26-1.06.26-1.06S724.93,708,724.57,708.15Z" transform="translate(-566.72 -271.93)" />
                <path class="cls-10" d="M720.38,734.12s0-31.87,7.17-29.34,4.12,30.5,4.12,30.5S723.2,739.3,720.38,734.12Z" transform="translate(-566.72 -271.93)" />
                <path class="cls-10" d="M733.53,734.69s-2.85-31.35,4.28-29.49,6.69,29.63,6.69,29.63S736.71,739.53,733.53,734.69Z" transform="translate(-566.72 -271.93)" />
                <path class="cls-10" d="M749.21,740.74s-9.25-28.42-2.55-28.11,12.27,26.08,12.27,26.08S753.06,744.59,749.21,740.74Z" transform="translate(-566.72 -271.93)" />
                <path class="cls-10" d="M715,740s-13.26-14.4-7.59-17.51,15.34,11.34,15.34,11.34S719,740.64,715,740Z" transform="translate(-566.72 -271.93)" />
                <path class="cls-17" d="M978,845a41.19,41.19,0,0,1,5.5-4.71,43.47,43.47,0,0,1,6.18-3.81,30.48,30.48,0,0,1,6.83-2.54,15.64,15.64,0,0,1,1.79-.33l.91-.14.91,0a17.49,17.49,0,0,1,3.62.23c-.61,0-1.21.05-1.8.05a13,13,0,0,0-1.77.21l-.88.12-.87.2c-.57.16-1.16.24-1.72.45s-1.12.38-1.69.55l-1.65.66c-.55.2-1.09.47-1.63.71s-1.08.49-1.6.78a67.86,67.86,0,0,0-6.2,3.54c-1,.63-2,1.3-3,2S979,844.3,978,845Z" transform="translate(-566.72 -271.93)" />
                <path class="cls-17" d="M956.9,830.27a41.87,41.87,0,0,1,6.28-3.58,42.64,42.64,0,0,1,6.79-2.55,29.59,29.59,0,0,1,7.18-1.17,16,16,0,0,1,1.83,0l.91,0,.91.14a16.87,16.87,0,0,1,3.49,1l-1.77-.32a11.77,11.77,0,0,0-1.78-.15l-.88-.07-.89,0a17.5,17.5,0,0,0-1.77.1c-.59.08-1.17.15-1.76.21l-1.75.32c-.58.09-1.15.24-1.73.38s-1.16.27-1.72.45a68,68,0,0,0-6.76,2.29c-1.11.43-2.21.9-3.3,1.39S958,829.75,956.9,830.27Z" transform="translate(-566.72 -271.93)" />
                <path class="cls-10" d="M1209.67,785.54s12.62-13.68,16.06-10.06-9.27,19.15-9.27,19.15S1205.61,798.6,1209.67,785.54Z" transform="translate(-566.72 -271.93)" />
                <path class="cls-10" d="M1228.46,780.83c.21-.25,10.5-21.09,16.06-18.88,2.3.71,4.06-.44,0,9-3.09,9.88-1.59,13.85-19.76,27.79C1223.61,799.36,1214.26,798.3,1228.46,780.83Z" transform="translate(-566.72 -271.93)" />
                <path class="cls-10" d="M1241.08,783.77c-.56-2.18,11-21.44,15.18-20.82,5.29.79,4-.26-2.74,23.82C1252.2,788.45,1244,795.07,1241.08,783.77Z" transform="translate(-566.72 -271.93)" />
                <path class="cls-10" d="M1271.41,786.36s3.58,3.47-10.12,9.3-3.71-9.71-3.71-9.71S1269.11,782,1271.41,786.36Z" transform="translate(-566.72 -271.93)" />
                <path class="cls-13" d="M1077.53,488.43c21.35-31.06-21.36-68.12-21.36-68.12,7.62-13.64,8-23.59,5.59-31-3.52-10.57-12.94-15.89-15.64-19.32-18.93-35.37-46.62-37.12-55.73-36.65l-.87.05a13.22,13.22,0,0,0-1.67-1.74,26.19,26.19,0,0,0-10.84-2.8h0c-9.89,1.32-20.2,9.85-20.28,9.87s-35.15,21.12-37,70.53c-5.61,11-11.31,17.51-15.26,23.27a37,37,0,0,0-11.21,20.86,49.24,49.24,0,0,0,1.93,24,77.85,77.85,0,0,0,8.76,18.19,62.41,62.41,0,0,0,1,12.89,44.67,44.67,0,0,0,4.86,13.69c4.72,8.39-12,37.52-10.32,54.61a34.56,34.56,0,0,0,2.7,10.38h0a40.35,40.35,0,0,0,4.26,7.52c9.44,13.36,25.59,22.09,31.82,31.86.17.27.34.54.49.82.06.1.12.2.17.3a9.51,9.51,0,0,1,.46.9,6.28,6.28,0,0,1,.27.59l0,.08c.12.27.23.55.33.83s.19.55.27.82l.15.56c.83,3.37.3,6.95-2.19,10.95,0,0,0,0,0,.05a35,35,0,0,1-6.51,9.31c10.91-9.77,16.7-24.53,8.94-52.15-2.29-8.15-2.35-14.83-1.17-20.59v0c1.77-8.72,6.39-15.31,10.45-21.6,4.57-7.09,8.43-13.8,6.72-22.73-3.32-17.34,8.11-24,4.48-42.93-1-5.22-3.15-11.38-7.07-19a88,88,0,0,0,2.13-10.05h0c3.08-20.89-5.92-25.94-7.07-39.35s-7.4-26.15,6.84-54c9.14-12.44,11.9-15.68,32.41-16.61,38.53-1.74,41.8,46.33,38.61,70.55.47,9.18-5.88,20.24-15.77,35.3-16.23,35.64,3.53,77.64,11.3,88.59-5.3,11.63-6,21.57-4.77,29.48a42.28,42.28,0,0,0,4.81,14.08,37.41,37.41,0,0,0,4,5.86,7.16,7.16,0,0,1,1.62,3.53c6.54,41-14.31,64.1-17.29,62.1,4.8,3.23,22.24-18.7,29.3-28.23,10.2-4.18,16.72-9.46,20.79-14.91a31.88,31.88,0,0,0,6.22-22.21,30.08,30.08,0,0,0-1.6-7.7c28.29-38.76-9.7-54.85,0-82.8C1067.44,501,1071.15,495,1077.53,488.43Zm-171.27-6.21A38.45,38.45,0,0,0,904,493.58a75,75,0,0,1-7.2-16.65,47,47,0,0,1-1.17-23,37.27,37.27,0,0,1,3.8-10.21c-.95,6.31,1.09,14.21,8.05,27.42C907.46,471.11,902.68,474.81,906.26,482.22Z" transform="translate(-566.72 -271.93)" />
            </g>
        </g>
        <path class="cls-2" d="M720.38,838.11" transform="translate(-566.72 -271.93)" />
    </g>
</svg>
