<svg width="480" height="340" viewBox="0 0 890 749" fill="none" xmlns="http://www.w3.org/2000/svg">

<style>
* {
    top: 0;
    bottom: 0;
    left: 0;
    right: 0;
    position: absolute;
    margin: auto;
    padding: 0;
    box-sizing: border-box;
}
body {
    text-align: center;
    background-color: #f5f5f5;
}

svg {
  z-index: 1;
}

#right-wheel,
#left-wheel1
{
    animation: wheel 2s linear infinite;
    transform-origin: 50% 50%;
    transform-box: fill-box;
}

/* Animation Wheels */
@-webkit-keyframes wheel {
    from {
        transform: rotate(0deg);
    }
    to{
        transform: rotate(360deg);
    }
}
@-o-keyframes wheel {
    from {
        transform: rotate(0deg);
    }
    to{
        transform: rotate(360deg);
    }
}
@-moz-keyframes wheel {
    from {
        transform: rotate(0deg);
    }
    to{
        transform: rotate(360deg);
    }
}
@keyframes wheel {
    from{
        transform: rotate(0deg);
    }
    to{
        transform: rotate(360deg);
    }
}
#man-bike,
#head
{
    animation: bike 1s ease-in-out infinite alternate;
    transform-origin: center;
}

#hat {
    animation: hat 1s ease-in-out infinite alternate;
    transform-origin: 50% 50%;
    transform-box: fill-box;
}
#Bird1 {
    animation: bird 2s ease-in-out infinite alternate;
    transform-origin: 50% 50%;
    transform-box: fill-box;
}
#Bird2 {
    animation: bird 2.5s linear infinite alternate;
    transform-origin: 50% 50%;
    transform-box: fill-box;
}
#Bird3 {
    animation: bird 3s ease-in infinite alternate;
    transform-origin: 50% 50%;
    transform-box: fill-box;
}

#tree-left {
    animation: tree 1.5s ease-in-out infinite alternate;
    transform-origin: bottom right;
    transform-box: fill-box;
}

#tree-right {
    animation: tree 2s ease-in-out infinite alternate;
    transform-origin: bottom left;
    transform-box: fill-box;
}

/*************
ANIMATIONS 
**************/


/* Animation Bike */
@-webkit-keyframes bike {
    from {
    transform: rotateX(0deg);
    }
    to { 
    transform: rotateX(20deg);
    }
}
@-o-keyframes bike {
    from { 
    transform: rotateX(0deg);
    }
    to { 
    transform: rotateX(20deg);
    }
}
@-moz-keyframes bike {
    from { 
    transform: rotateX(0deg);
    }
    to { 
    transform: rotateX(20deg);
    }
}
@keyframes bike {
    from { 
        
    transform: rotateX(0deg);
        
    }
    to { 
        
    transform: rotateX(20deg);
        
    }
}

/* Animation Hat */
@-webkit-keyframes hat{
    from {
    transform: translateY(0%);
    }
    to { 
    transform: translateY(20%);
    }
}
@-o-keyframes hat {
    from { 
    transform: translateY(0%);
    }
    to { 
   transform: translateY(20%);
    }
}
@-moz-keyframes hat {
    from { 
    transform: translateY(0%);
    }
    to { 
    transform: translateY(20%);
    }
}
@keyframes hat {
    from { 
        
    transform: translateY(0%);
        
    }
    to { 
        
    transform: translateY(20%);
        
    }
}

/* Animation Birds */
@-webkit-keyframes bird{
    from {
    transform: translateY(0%);
    }
    to { 
    transform: translateY(80%);
    }
}
@-o-keyframes birdt {
    from { 
    transform: translateY(0%);
    }
    to { 
   transform: translateY(80%);
    }
}
@-moz-keyframes bird {
    from { 
    transform: translateY(0%);
    }
    to { 
    transform: translateY(80%);
    }
}
@keyframes bird {
    from { 
        
    transform: translateY(0%);
        
    }
    to { 
        
    transform: translateY(80%);
        
    }
}

/* Animation Trees */

@-webkit-keyframes tree{
    from {
    transform: rotateZ(0);
    }
    to { 
    transform: rotateZ(2deg);
    }
}
@-o-keyframes tree {
    from { 
    transform: rotateZ(0);
    }
    to { 
   transform: rotateZ(2deg);
    }
}
@-moz-keyframes tree {
    from { 
    transform: rotateZ(0);
    }
    to { 
    transform: rotateZ(2deg);
    }
}
@keyframes tree {
    from { 
        
    transform: rotateZ(0);
        
    }
    to { 
        
    transform: rotateZ(2deg);
        
    }
}

</style>

  <g id="undraw nature m5ll 1">
    <path id="Vector" d="M889.377 308.791C889.591 308.761 889.751 308.645 890 308.675C889.891 308.348 889.749 308.029 889.575 307.72C889.267 308.047 888.953 308.381 888.677 308.673L889.377 308.791Z" fill="white"/>
    <path id="Vector 2" d="M239.824 431.019C240.389 447.467 243.928 463.772 250.337 479.452C250.483 479.815 250.637 480.174 250.79 480.538H290.025C289.983 480.212 289.941 479.848 289.899 479.452C287.283 456.039 272.2 313.542 290.234 289.173C288.658 291.15 236.782 356.626 239.824 431.019Z" fill="#E6E6E6"/>
    <path id="Vector 3" d="M242.767 479.452C243.095 479.815 243.437 480.179 243.786 480.538H273.219C272.996 480.228 272.738 479.864 272.438 479.452C267.575 472.619 253.183 452.194 239.824 431.019C225.466 408.263 212.295 384.644 213.404 376.095C213.062 378.023 203.128 436.797 242.767 479.452Z" fill="#E6E6E6"/>
    <path id="Vector 4" d="M548.617 483.368C548.124 497.708 545.039 511.923 539.452 525.593C539.324 525.91 539.19 526.223 539.056 526.54H504.851C504.887 526.256 504.924 525.939 504.96 525.593C507.241 505.181 520.391 380.95 504.668 359.705C506.043 361.429 551.269 418.511 548.617 483.368Z" fill="#E6E6E6"/>
    <path id="Vector 5" d="M546.051 525.593C545.765 525.91 545.467 526.227 545.163 526.54H519.503C519.697 526.27 519.922 525.953 520.184 525.593C524.423 519.637 536.97 501.829 548.617 483.368C561.134 463.53 572.617 442.938 571.65 435.486C571.948 437.166 580.609 488.406 546.051 525.593Z" fill="#E6E6E6"/>
    <path id="Bird1" d="M157.52 61.1946L173.472 51.2626C161.08 50.1983 155.988 55.4595 153.904 59.6238C144.223 56.4943 133.684 60.5957 133.684 60.5957L165.6 69.6156C163.99 66.2677 161.187 63.3465 157.52 61.1946Z" fill="#3F3D56"/>
    <path id="Bird3" d="M637.963 10.0711L653.914 0.139093C641.522 -0.925226 636.431 4.336 634.347 8.5003C624.666 5.37084 614.127 9.47215 614.127 9.47215L646.042 18.4921C644.432 15.1442 641.63 12.223 637.963 10.0711Z" fill="gray"/>
    <path id="Vector 6" d="M872.658 402.833C872.658 411.062 872.29 419.225 871.553 427.32C865.872 491.184 837.426 552.55 789.413 604.523C783.138 611.34 776.55 617.966 769.648 624.401C751.765 641.098 731.909 656.453 710.341 670.263L615.801 627.077L559.277 524.374C559.277 524.374 643.614 391.439 872.508 393.85C872.604 396.833 872.654 399.828 872.658 402.833Z" fill="#3F3D56"/>
    <path id="Vector 7" d="M871.553 427.32C867.204 475.044 850.195 521.548 821.601 563.898C793.006 606.248 753.446 643.524 705.417 673.374L617.588 633.257L567.461 542.171C567.461 542.171 648.688 414.142 871.553 427.32Z" fill="#10CD3E"/>
    <path id="Vector 8" d="M789.413 604.523C783.138 611.34 776.55 617.966 769.648 624.401C723.4 667.658 664.307 701.488 597.483 722.963C583.952 727.306 570.103 731.136 555.935 734.453C453.635 755.631 345.256 750.274 247.219 719.194C150.261 685.504 71.9086 626.007 26.2355 551.387C20.0975 541.342 14.5778 531.042 9.67645 520.487C95.1589 471.737 263.601 401.93 447.183 469.762C497.965 488.525 543.309 505.628 583.215 521.071C684.479 560.148 751.875 588.319 789.413 604.523Z" fill="#3F3D56"/>
    <path id="Vector 9" d="M769.648 624.401C721.841 669.004 660.393 703.532 590.958 724.807C521.522 746.082 446.328 753.422 372.295 746.151C298.261 738.88 227.766 717.231 167.293 683.197C106.821 649.163 58.3141 603.837 26.2355 551.387C97.6277 507.437 262.291 428.456 442.995 495.215C489.467 512.385 530.956 528.037 567.461 542.17C673.881 583.233 739.435 611.138 769.648 624.401Z" fill="#10CD3E"/>
    <path id="Vector 10" d="M643.641 705.644C628.691 712.096 613.28 717.879 597.483 722.963C543.725 740.209 486.135 749.056 427.991 749C359.19 748.979 291.332 736.541 229.746 712.663C168.16 688.785 114.523 654.117 73.0483 611.383C179.25 602.665 472.812 590.91 643.641 705.644Z" fill="#3F3D56"/>
    <path id="Vector 11" d="M597.483 722.963C514.124 749.646 422.324 756.002 334.225 741.19C246.126 726.378 165.877 691.096 104.093 640.011C142.722 635.593 445.996 605.256 597.483 722.963Z" fill="#10CD3E"/>
    <g id="tree-left">
      <path id="tree" d="M139.435 409.544C193.148 402.005 220.673 326.728 200.913 241.409C181.153 156.09 121.591 93.0364 67.8781 100.576C14.165 108.115 -13.3595 183.391 6.4005 268.71C26.1604 354.03 85.7221 417.083 139.435 409.544Z" fill="#3F3D56"/>
      <path id="Vector 12" d="M153.239 509.186C150.055 321.782 69.5107 145.916 68.6978 144.163L61.3523 146.225C62.1613 147.97 142.263 322.915 145.431 509.268L153.239 509.186Z" fill="#10CD3E"/>
      <path id="Vector 13" d="M10.3382 233.859L7.93494 239.644L104.362 263.921L106.765 258.136L10.3382 233.859Z" fill="#10CD3E"/>
      <path id="Vector 14" d="M191.726 227.342L112.276 276.326L117.125 281.092L196.575 232.109L191.726 227.342Z" fill="#10CD3E"/>
    </g>
    <g id="tree-right">
      <path id="tree right 2" d="M397.708 382.526C456.768 382.526 504.645 306.477 504.645 212.665C504.645 118.853 456.768 42.8034 397.708 42.8034C338.648 42.8034 290.771 118.853 290.771 212.665C290.771 306.477 338.648 382.526 397.708 382.526Z" fill="#3F3D56"/>
      <path id="Vector 15" d="M387.833 490.701C430.662 290.655 388.264 91.3313 387.831 89.3429L379.5 90.4415C379.931 92.4203 422.086 290.696 379.498 489.621L387.833 490.701Z" fill="#10CD3E"/>
      <path id="Vector 16" d="M303.56 176.139L299.574 181.941L396.274 222.207L400.26 216.405L303.56 176.139Z" fill="#10CD3E"/>
      <path id="Vector 17" d="M498.331 196.31L401.643 236.598L405.631 242.399L502.319 202.11L498.331 196.31Z" fill="#10CD3E"/>
    </g>
    <path id="Bird2" d="M546.109 141.873L562.061 131.941C549.669 130.877 544.577 136.138 542.493 140.302C532.812 137.173 522.273 141.274 522.273 141.274L554.189 150.294C552.579 146.946 549.776 144.025 546.109 141.873Z" fill="#3F3D56"/>
    <g id="undraw Ride a bicycle 2yok (1) 1">
      <path id="Vector 90" d="M269.282 544.086C269.282 544.086 396.888 507.764 407.213 521.624C417.538 535.485 428.478 553.992 396.303 560.596C364.128 567.2 266.875 549.361 266.875 549.361L269.282 544.086Z" fill="#10CD3E"/>
      <path id="Vector 77" d="M371.363 387.481H355.565V536.797H371.363V387.481Z" fill="#10CD3E"/>
      <path id="Vector 92" d="M265.031 536.797L360.423 428.442L363.468 453.546L269.89 546.703L265.031 536.797Z" fill="#10CD3E"/>
      <path id="Vector 80" d="M367.112 428.442L532.996 372.283L538.462 386.16L368.327 449.583L367.112 428.442Z" fill="#10CD3E"/>
      <path id="background-fog" opacity="0.1" d="M164.709 154.289C160.548 159.779 158.946 167.497 157.155 174.753C142.73 233.232 107.185 280.268 66.7043 313.866C49.5617 328.098 28.6915 347.183 32.4419 372.7C34.4614 386.403 43.3212 396.49 49.9034 407.651C63.7131 431.021 68.1924 462.786 61.6101 490.762C54.1245 522.594 33.2011 552.295 39.677 584.481C43.6704 604.293 57.2296 618.393 70.265 630.511C90.6012 649.404 111.585 667.103 133.217 683.607C147.718 694.669 163.145 705.433 180.044 706.837C194.925 708.075 209.501 701.925 223.63 695.858C235.974 690.55 248.63 685.027 258.598 674.395C265.105 667.452 270.29 658.495 277.517 652.816C294.493 639.476 316.297 647.929 335.763 653.642C381.694 667.048 430.852 662.152 474.559 639.823C541.603 605.565 592.705 533.622 658.284 495.022C686.48 478.421 717.152 468.119 743.26 446.739C757.97 434.565 770.61 419.692 780.613 402.789C800.352 369.678 811.026 327.462 807.944 286.138C804.862 244.813 787.59 204.991 760.464 181.663C731.425 156.691 694.748 152.027 661.708 137.036C627.59 121.55 597.237 94.9357 563.445 78.3185C536.102 64.9096 506.345 58.3272 476.356 59.0543C446.368 59.7814 416.91 67.7995 390.144 82.5202C353.369 102.745 316.092 149.93 275.134 153.513C245.95 155.99 187.5 124.224 164.709 154.289Z" fill="#10CD3E"/>
      <g id="man-bike">
        <path id="Vector 19" opacity="0.05" d="M415.002 397.973C415.002 397.973 450.684 398.798 459.794 407.053L455.239 307.168H405.892L415.002 397.973Z" fill="black"/>
        <path id="Vector 20" opacity="0.05" d="M501.413 252.206L500.502 264.746C500.297 267.892 500.338 271.051 500.624 274.189C500.859 276.971 500.624 281.842 498.119 289.28C494.902 298.77 493.239 308.8 493.207 318.915V347.205L475.745 343.903C475.745 343.903 476.504 304.279 473.468 297.675C471.319 292.994 473.354 262.228 474.728 244.67C475.297 237.446 475.745 232.46 475.745 232.46L502.317 239.89L501.413 252.206Z" fill="black"/>
        <path id="Vector 21" d="M415.776 429.755L409.209 470.369C408.381 475.792 407.111 481.124 405.413 486.301C401.564 497.743 404.024 513.782 405.892 522.532C406.719 526.396 407.41 528.839 407.41 528.839L387.671 540.396L381.597 535.443V532.141L380.838 458.672C376.283 447.115 377.801 429.779 380.838 423.175C381.702 421.006 382.309 418.726 382.645 416.39C384.163 407.54 384.634 395.108 384.634 395.108C384.634 395.108 396.781 372.82 411.206 387.679C416.52 393.152 418.54 400.309 418.965 407.161C419.709 418.891 415.776 429.755 415.776 429.755Z" fill="#DB8B8B"/>
        <path id="Vector 22" d="M444.611 386.829C436.537 391.503 428.908 397.034 421.835 403.339C409.688 414.07 379.32 414.896 379.32 414.896V402.513C380.079 387.654 367.173 371.144 349.711 324.916C338.559 295.396 341.649 278.688 345.338 270.433C347.434 265.769 349.711 263.829 349.711 263.829L444.611 283.641L448.004 294.703L455.239 318.312C455.239 318.312 428.667 319.963 424.112 322.44C419.557 324.916 422.594 347.205 422.594 347.205C418.039 370.319 444.611 386.829 444.611 386.829Z" fill="#ABB1D1"/>
        <path id="Torso" d="M512.543 207.654C510.562 224.453 509.901 245.627 509.901 245.627C492.44 260.486 478.774 241.5 478.774 241.5C462.285 246.312 454.533 262.005 450.882 275.7C448.926 283.108 447.839 290.755 447.647 298.459C447.647 298.459 443.031 302.587 434.528 303.412C426.489 304.147 414.964 301.868 400.577 290.204C370.969 266.265 344.397 272.869 344.397 272.869C344.397 272.869 349.711 239.849 361.858 229.943C374.005 220.037 383.116 207.654 398.3 169.681C413.484 131.708 444.611 140.789 444.611 140.789C444.611 140.789 446.129 133.359 474.219 140.789C481.061 142.739 487.394 146.387 492.721 151.446C507.745 165.182 515.033 186.488 512.543 207.654Z" fill="white"/>
        <path id="Vector 23" d="M484.37 159.404C484.332 160.502 484.248 161.723 484.111 163.086C482.593 177.945 481.075 176.294 464.372 179.596C453.987 181.651 448.589 172.216 445.992 164.786C445.053 162.095 444.343 159.315 443.874 156.482L480.315 149.878C480.315 149.878 484.681 148.549 484.37 159.404Z" fill="#DB8B8B"/>
        <path id="Vector 24" d="M397.54 215.95L414.243 259.702C414.243 259.702 415.761 272.91 423.353 280.339C423.353 280.339 434.741 293.547 436.259 300.977C437.778 308.406 459.035 328.218 459.035 328.218C459.035 328.218 478.774 348.03 480.293 355.46C480.293 355.46 498.513 361.238 496.236 372.795C496.236 372.795 509.901 357.936 496.236 343.903C482.57 329.869 464.35 300.977 464.35 300.977C464.35 300.977 453.721 270.433 443.851 261.353L440.815 252.272C440.815 252.272 445.37 225.856 430.186 213.474C415.002 201.091 397.54 215.95 397.54 215.95Z" fill="#DB8B8B"/>
        <path id="Vector 25" d="M430.186 179.629L440.815 225.031C440.815 225.031 408.169 230.809 401.336 225.031C394.504 219.252 381.597 217.601 381.597 217.601C381.597 217.601 395.263 174.676 402.855 169.723C410.447 164.77 430.186 179.629 430.186 179.629Z" fill="white"/>
        <path id="Vector 26" d="M489.403 140.83C489.403 148.493 486.603 155.842 481.62 161.26C476.637 166.679 469.878 169.723 462.831 169.723C455.784 169.723 449.025 166.679 444.042 161.26C439.059 155.842 436.259 148.493 436.259 140.83C436.259 140.351 436.259 139.872 436.259 139.394C436.435 131.731 439.402 124.458 444.509 119.174C449.616 113.89 456.444 111.029 463.492 111.219C470.539 111.41 477.228 114.637 482.087 120.19C486.947 125.743 489.578 133.167 489.403 140.83Z" fill="#DB8B8B"/>
        <path id="Vector 27" opacity="0.05" d="M365.275 229.571C365.275 229.571 385.014 235.35 391.087 250.209C397.161 265.068 413.59 267.784 413.59 267.784" fill="black"/>
        <path id="Vector 28" d="M400.964 527.362C405.041 524.885 408.617 522.409 408.928 521.385C408.928 521.385 419.215 533.19 428.379 536.855C431.46 538.092 434.41 539.687 437.178 541.61C440.807 544.086 445.985 547 450.684 547C450.684 547 461.313 556.906 440.815 558.557C420.316 560.208 372.487 554.43 372.487 554.43L375.524 533.792C384.397 534.358 393.231 532.125 400.964 527.362Z" fill="#FFFF00"/>
        <path id="Vector 18" d="M342.499 436.771L322.38 451.218L381.294 504.875C381.294 504.875 389.949 499.097 385.393 492.493C385.393 492.493 370.209 478.459 369.45 458.647L364.895 452.043H362.321C357.97 452.044 353.725 450.575 350.174 447.839C346.623 445.103 343.941 441.236 342.499 436.771Z" fill="#FFFF00"/>
      </g>
      <path id="Vector 29" d="M712.318 406.088C712.318 406.088 725.604 434.443 714.777 449.955C703.951 465.466 715.764 507.739 715.764 507.739" stroke="#10CD3E" stroke-miterlimit="10"/>
      <path id="Vector 30" d="M716.25 397.263C716.25 402.728 712.561 407.169 712.561 407.169C712.561 407.169 708.871 402.736 708.871 397.263C708.871 391.79 712.561 387.357 712.561 387.357C712.561 387.357 716.25 391.798 716.25 397.263Z" fill="#10CD3E"/>
      <path id="Vector 31" d="M719.204 406.088C719.204 406.088 705.918 434.443 716.744 449.955C727.57 465.466 715.757 507.739 715.757 507.739" stroke="#10CD3E" stroke-miterlimit="10"/>
      <path id="Vector 32" d="M715.271 397.263C715.271 402.728 718.961 407.169 718.961 407.169C718.961 407.169 722.65 402.736 722.65 397.263C722.65 391.79 718.961 387.357 718.961 387.357C718.961 387.357 715.271 391.798 715.271 397.263Z" fill="#10CD3E"/>
      <path id="Vector 33" opacity="0.1" d="M715.271 397.263C715.271 402.728 718.961 407.169 718.961 407.169C718.961 407.169 722.65 402.736 722.65 397.263C722.65 391.79 718.961 387.357 718.961 387.357C718.961 387.357 715.271 391.798 715.271 397.263Z" fill="black"/>
      <path id="Vector 34" d="M724.617 406.088C724.617 406.088 737.903 434.443 727.076 449.955C716.25 465.466 728.063 507.739 728.063 507.739" stroke="#10CD3E" stroke-miterlimit="10"/>
      <path id="Vector 35" d="M728.549 397.263C728.549 402.728 724.86 407.169 724.86 407.169C724.86 407.169 721.17 402.736 721.17 397.263C721.17 391.79 724.86 387.357 724.86 387.357C724.86 387.357 728.549 391.798 728.549 397.263Z" fill="#10CD3E"/>
      <path id="Vector 36" d="M726.484 419.981C723 423.918 717.511 424.331 717.511 424.331C717.511 424.331 717.678 418.355 721.162 414.425C724.647 410.496 730.136 410.075 730.136 410.075C730.136 410.075 729.969 416.043 726.484 419.981Z" fill="#10CD3E"/>
      <path id="Vector 37" d="M726.833 439.545C723.349 443.483 717.86 443.895 717.86 443.895C717.86 443.895 718.027 437.919 721.512 433.989C724.996 430.06 730.485 429.639 730.485 429.639C730.485 429.639 730.349 435.599 726.833 439.545Z" fill="#10CD3E"/>
      <path id="Vector 38" d="M707.93 450.301C711.224 454.429 711.111 460.405 711.111 460.405C711.111 460.405 705.652 459.687 702.357 455.56C699.062 451.432 699.176 445.456 699.176 445.456C699.176 445.456 704.635 446.174 707.93 450.301Z" fill="#10CD3E"/>
      <path id="Vector 39" d="M710.989 408.589C715.18 411.61 716.539 417.405 716.539 417.405C716.539 417.405 711.103 418.305 706.912 415.284C702.721 412.262 701.362 406.467 701.362 406.467C701.362 406.467 706.814 405.568 710.989 408.589Z" fill="#10CD3E"/>
      <path id="Vector 40" opacity="0.1" d="M710.989 408.589C715.18 411.61 716.539 417.405 716.539 417.405C716.539 417.405 711.103 418.305 706.912 415.284C702.721 412.262 701.362 406.467 701.362 406.467C701.362 406.467 706.814 405.568 710.989 408.589Z" fill="black"/>
      <path id="Vector 41" d="M731.503 406.088C731.503 406.088 718.201 434.443 729.043 449.979C739.884 465.515 728.056 507.764 728.056 507.764" stroke="#10CD3E" stroke-miterlimit="10"/>
      <path id="Vector 42" d="M727.57 397.263C727.57 402.728 731.26 407.169 731.26 407.169C731.26 407.169 734.949 402.736 734.949 397.263C734.949 391.79 731.26 387.357 731.26 387.357C731.26 387.357 727.57 391.798 727.57 397.263Z" fill="#10CD3E"/>
      <path id="Vector 43" opacity="0.1" d="M727.57 397.263C727.57 402.728 731.26 407.169 731.26 407.169C731.26 407.169 734.949 402.736 734.949 397.263C734.949 391.79 731.26 387.357 731.26 387.357C731.26 387.357 727.57 391.798 727.57 397.263Z" fill="black"/>
      <path id="Vector 44" d="M728.633 420.402C725.103 424.298 724.837 430.308 724.837 430.308C724.837 430.308 730.326 429.969 733.856 426.073C737.386 422.177 737.652 416.167 737.652 416.167C737.652 416.167 732.155 416.505 728.633 420.402Z" fill="#10CD3E"/>
      <path id="Vector 45" opacity="0.1" d="M728.633 420.402C725.103 424.298 724.837 430.308 724.837 430.308C724.837 430.308 730.326 429.969 733.856 426.073C737.386 422.177 737.652 416.167 737.652 416.167C737.652 416.167 732.155 416.505 728.633 420.402Z" fill="black"/>
      <path id="Vector 46" d="M735.549 447.503C732.019 451.399 731.753 457.409 731.753 457.409C731.753 457.409 737.242 457.07 740.772 453.174C744.303 449.278 744.568 443.268 744.568 443.268C744.568 443.268 739.079 443.59 735.549 447.503Z" fill="#10CD3E"/>
      <path id="Vector 47" d="M725.368 441.535C725.368 441.535 733.363 427.831 744.591 427.501" stroke="#10CD3E" stroke-miterlimit="10"/>
      <path id="Vector 48" d="M719.143 433.255C719.143 433.255 711.149 419.551 699.92 419.221" stroke="#10CD3E" stroke-miterlimit="10"/>
      <path id="Vector 49" d="M718.103 452.819C718.103 452.819 726.097 439.116 737.326 438.786" stroke="#10CD3E" stroke-miterlimit="10"/>
      <path id="Vector 50" d="M744.227 429.68C745.371 429.68 746.299 428.671 746.299 427.427C746.299 426.182 745.371 425.173 744.227 425.173C743.082 425.173 742.154 426.182 742.154 427.427C742.154 428.671 743.082 429.68 744.227 429.68Z" fill="#10CD3E"/>
      <path id="Vector 51" d="M700.117 421.59C701.262 421.59 702.19 420.581 702.19 419.337C702.19 418.092 701.262 417.083 700.117 417.083C698.973 417.083 698.045 418.092 698.045 419.337C698.045 420.581 698.973 421.59 700.117 421.59Z" fill="#10CD3E"/>
      <path id="Vector 52" d="M723.987 457.335C723.987 457.335 715.992 443.631 704.764 443.301" stroke="#10CD3E" stroke-miterlimit="10"/>
      <path id="Vector 53" d="M704.961 445.67C706.106 445.67 707.034 444.661 707.034 443.417C707.034 442.172 706.106 441.163 704.961 441.163C703.816 441.163 702.888 442.172 702.888 443.417C702.888 444.661 703.816 445.67 704.961 445.67Z" fill="#10CD3E"/>
      <path id="Vector 54" d="M737.477 441.155C738.622 441.155 739.55 440.146 739.55 438.901C739.55 437.657 738.622 436.648 737.477 436.648C736.333 436.648 735.405 437.657 735.405 438.901C735.405 440.146 736.333 441.155 737.477 441.155Z" fill="#10CD3E"/>
      <path id="Vector 55" d="M768.187 491.254C768.187 491.254 748.918 487.061 743.779 481.472C738.639 475.884 715.514 466.134 712.948 473.093C710.382 480.052 678.26 503.827 700.102 508.02C721.944 512.214 751.492 513.609 757.915 510.81C764.338 508.012 768.187 491.254 768.187 491.254Z" fill="#A8A8A8"/>
      <path id="Vector 56" opacity="0.2" d="M700.095 505.445C721.937 509.638 751.485 511.033 757.907 508.235C762.797 506.105 766.198 495.852 767.541 491.13L768.187 491.279C768.187 491.279 764.33 508.045 757.907 510.835C751.485 513.625 721.937 512.23 700.095 508.045C693.793 506.831 691.986 503.992 692.67 500.401C693.209 502.737 695.426 504.545 700.095 505.445Z" fill="black"/>
      <path id="Vector 57" d="M124.056 521.517C124.056 521.517 130.418 530.598 121.118 544.218C111.818 557.839 104.15 569.404 107.255 577.932C107.255 577.932 121.285 552.564 132.703 552.209C144.121 551.854 136.613 536.772 124.056 521.517Z" fill="#10CD3E"/>
      <path id="Vector 58" opacity="0.1" d="M124.056 521.517C124.61 522.392 125.047 523.348 125.354 524.357C136.499 538.588 142.428 551.871 131.724 552.209C121.748 552.523 109.783 571.914 106.913 576.817C107.008 577.195 107.122 577.567 107.255 577.932C107.255 577.932 121.285 552.564 132.703 552.209C144.121 551.854 136.613 536.772 124.056 521.517Z" fill="black"/>
      <path id="Vector 59" d="M135.899 533.041C135.899 536.227 135.573 538.82 135.14 538.82C134.707 538.82 134.381 536.236 134.381 533.041C134.381 529.846 134.791 531.39 135.193 531.39C135.596 531.39 135.899 529.863 135.899 533.041Z" fill="#FFD037"/>
      <path id="Vector 60" d="M139.938 536.847C137.365 538.374 135.125 539.323 134.935 538.902C134.745 538.481 136.666 536.962 139.24 535.443C141.813 533.924 140.796 535.031 140.993 535.443C141.191 535.856 142.512 535.319 139.938 536.847Z" fill="#FFD037"/>
      <path id="Vector 61" d="M90.4463 521.517C90.4463 521.517 84.0843 530.598 93.3844 544.218C102.685 557.839 110.352 569.404 107.247 577.923C107.247 577.923 93.2174 552.556 81.7991 552.201C70.3808 551.846 77.8892 536.772 90.4463 521.517Z" fill="#10CD3E"/>
      <path id="Vector 62" opacity="0.1" d="M90.4463 521.517C89.8919 522.392 89.4548 523.348 89.1481 524.357C78.0107 538.588 72.0738 551.871 82.7557 552.201C92.7315 552.515 104.696 571.906 107.566 576.809C107.471 577.187 107.357 577.559 107.225 577.923C107.225 577.923 93.1946 552.556 81.7763 552.201C70.358 551.846 77.8892 536.772 90.4463 521.517Z" fill="black"/>
      <path id="Vector 63" d="M78.6256 533.041C78.6256 536.227 78.9521 538.82 79.3848 538.82C79.8176 538.82 80.144 536.236 80.144 533.041C80.144 529.846 79.7341 531.39 79.3317 531.39C78.9293 531.39 78.6256 529.863 78.6256 533.041Z" fill="#FFD037"/>
      <path id="Vector 64" d="M74.564 536.847C77.1376 538.374 79.3772 539.323 79.567 538.902C79.7568 538.481 77.8361 536.962 75.2624 535.443C72.6887 533.924 73.7061 535.031 73.5087 535.443C73.3113 535.856 71.9903 535.319 74.564 536.847Z" fill="#FFD037"/>
      <path id="Vector 65" d="M80.6451 576.735C80.6451 576.735 98.433 576.14 103.793 571.988C109.153 567.836 131.124 562.908 132.483 569.512C133.842 576.116 159.214 602.622 139.133 602.796C119.053 602.969 92.4733 599.395 87.1286 595.878C81.7839 592.361 80.6451 576.735 80.6451 576.735Z" fill="#A8A8A8"/>
      <path id="Vector 66" opacity="0.2" d="M139.498 600.509C119.417 600.682 92.8378 597.108 87.4854 593.567C83.4086 590.867 81.7839 581.184 81.2449 576.718H80.6527C80.6527 576.718 81.7763 592.32 87.1286 595.861C92.4809 599.403 119.06 602.986 139.141 602.804C144.941 602.754 146.938 600.509 146.832 597.191C146.027 599.221 143.81 600.468 139.498 600.509Z" fill="black"/>
      <path id="Vector 67" d="M366.808 493.577L334.385 458.787L324.253 469.951L356.676 504.741L366.808 493.577Z" fill="#10CD3E"/>
      <path id="Vector 68" opacity="0.1" d="M366.808 493.577L334.385 458.787L324.253 469.951L356.676 504.741L366.808 493.577Z" fill="black"/>
      <path id="Vector 69" d="M342.119 442.137C342.119 442.137 360.94 431.34 368.213 424.389C372.591 420.224 377.299 416.486 382.281 413.22L405.892 397.593L455.239 393.466L457.517 402.546C457.517 402.546 461.313 415.754 423.353 427.311C385.393 438.868 366.414 457.029 366.414 457.029C366.414 457.029 342.119 466.077 342.119 442.137Z" fill="#DB8B8B"/>
      <path id="Vector 72" opacity="0.1" d="M456.803 407.103C444.656 400.722 415.002 400.037 415.002 400.037L414.683 396.825L455.239 393.433L457.517 402.513C457.517 402.513 458.026 404.288 456.803 407.103Z" fill="black"/>
      <path id="Vector 73" d="M411.11 401.805C411.11 401.805 446.792 402.63 455.902 410.885L451.347 311H402L411.11 401.805Z" fill="#ABB1D1"/>
      <path id="Vector 75" d="M443.669 337.266C443.669 337.266 532.988 333.964 534.81 346.52C536.633 359.075 445.491 353.784 445.491 353.784C445.491 353.784 438.203 345.851 443.669 337.266Z" fill="#535461"/>
      <path id="Vector 76" opacity="0.05" d="M443.669 337.266C443.669 337.266 532.988 333.964 534.81 346.52C536.633 359.075 445.491 353.784 445.491 353.784C445.491 353.784 438.203 345.851 443.669 337.266Z" fill="black"/>
      <path id="Vector 78" opacity="0.1" d="M371.363 387.473V398.972C366.11 399.715 360.735 400.185 355.565 400.367V387.473H371.363Z" fill="black"/>
      <path id="Vector 79" d="M370.179 375.098C367.962 374.912 365.757 374.589 363.574 374.133C355.01 372.349 333.419 368.61 327.611 374.958C320.323 382.883 322.752 396.759 342.195 398.741C361.638 400.722 395.058 395.439 401.746 387.506C401.746 387.473 389.652 376.725 370.179 375.098Z" fill="#535461"/>
      <path id="Vector 81" d="M416.331 516.977L536.033 388.802L542.714 399.368L428.478 528.864L416.331 516.977Z" fill="#10CD3E"/>
      <path id="Vector 82" opacity="0.1" d="M569.194 473.39C565.402 474.457 561.703 475.885 558.14 477.658L550.883 455.609C554.692 453.804 558.614 452.295 562.62 451.094L569.194 473.39Z" fill="black"/>
      <path id="Vector 83" d="M589.503 538.118L581 543.401L521.676 363.17L519.019 355.105L532.996 346.511L536.496 358.382L589.503 538.118Z" fill="#10CD3E"/>
      <path id="Vector 84" opacity="0.1" d="M536.496 358.382L521.676 363.17L519.019 355.105L532.996 346.511L536.496 358.382Z" fill="black"/>
      <path id="Vector 85" d="M446.099 372.283L529.344 341.228C529.344 341.228 543.928 343.209 538.455 356.426L454.609 383.51C454.609 383.51 441.855 384.831 446.099 372.283Z" fill="#535461"/>
      <g id="left-wheel">
        <path id="left-wheel1" d="M266.769 627.874L262.009 547.025L261.91 546.852L257.112 548.668L235.035 618.711L199.922 591.643L255.852 547.553L255.905 547.38L256.224 547.256L259.83 544.408L201.19 508.656L186.826 525.826L189.104 541.923L256.535 543.261V544.912L187.843 543.574L185.247 525.298L204.91 501.804L234.329 464.492L234.853 466.035L241.078 458.606L264.203 463.113V462.114L265.722 462.164V463.41L300.159 470.113L268.052 539.959L263.368 543.649V544.061V544.524L337.617 516.391L328.803 591.684L265.79 548.04L263.573 546.687L300.728 611.802L266.769 627.874ZM263.732 549.997L268.174 625.431L298.579 611.084L263.732 549.997ZM202.557 591.627L234.283 616.086L255.04 550.261L202.557 591.627ZM265.053 545.679L266.64 546.645L327.641 588.911L335.841 518.851L265.053 545.679ZM259.663 539.736L261.569 543.079L261.903 542.815L264.18 464.781L241.602 460.389L235.407 467.818L259.663 539.736ZM202.405 507.492L259.223 542.163L258.236 540.404L234.261 469.189L206.026 502.927L202.405 507.492ZM265.722 465.07L263.444 541.61L266.875 538.902L297.934 471.36L265.722 465.07Z" fill="#535461"/>
        <path id="Vector 87" d="M350.045 523.003C347 508.293 340.836 494.56 332.045 482.9C328.781 478.567 325.182 474.546 321.287 470.881C306.311 456.822 287.465 448.567 267.708 447.413C247.951 446.259 228.401 452.27 212.125 464.504C195.85 476.737 183.771 494.501 177.784 515.006C171.797 535.511 172.241 557.597 179.047 577.798C185.852 597.999 198.633 615.171 215.385 626.62C232.136 638.068 251.91 643.145 271.602 641.053C291.293 638.961 309.789 629.819 324.186 615.061C338.583 600.304 348.065 580.766 351.146 559.515C351.863 554.511 352.223 549.455 352.224 544.392C352.229 537.196 351.498 530.023 350.045 523.003ZM262.594 617.399C248.752 617.383 235.25 612.732 223.925 604.079C212.6 595.426 204.001 583.19 199.296 569.035C194.592 554.88 194.011 539.493 197.633 524.967C201.255 510.441 208.903 497.48 219.538 487.846C230.173 478.213 243.278 472.375 257.072 471.126C270.866 469.876 284.679 473.277 296.633 480.865C308.587 488.453 318.102 499.859 323.884 513.534C329.665 527.209 331.433 542.488 328.947 557.294C326.1 574.17 317.901 589.426 305.778 600.408C293.654 611.39 278.373 617.402 262.594 617.399Z" fill="#535461"/>
      </g>
      <path id="Vector 88" opacity="0.1" d="M352.224 544.392C352.223 549.455 351.863 554.511 351.146 559.515C343.858 558.945 336.327 558.12 328.947 557.294C330.587 547.478 330.383 537.403 328.347 527.675C335.537 526.024 342.878 524.448 350.045 523.019C351.497 530.034 352.228 537.202 352.224 544.392Z" fill="black"/>
      <path id="Vector 89" opacity="0.1" d="M371.363 519.23V536.789H355.565V521.93C361.031 520.898 366.345 519.982 371.363 519.23Z" fill="black"/>
      <path id="Vector 91" opacity="0.1" d="M332.045 482.9L315.828 499.039C312.957 495.03 309.71 491.356 306.141 488.076L321.279 470.881C325.177 474.546 328.779 478.567 332.045 482.9Z" fill="black"/>
      <path id="Vector 93" opacity="0.1" d="M263.816 554.636C269.187 554.636 273.541 549.902 273.541 544.061C273.541 538.221 269.187 533.487 263.816 533.487C258.445 533.487 254.091 538.221 254.091 544.061C254.091 549.902 258.445 554.636 263.816 554.636Z" fill="black"/>
      <path id="Vector 94" d="M262.594 554.636C267.965 554.636 272.319 549.902 272.319 544.061C272.319 538.221 267.965 533.487 262.594 533.487C257.223 533.487 252.868 538.221 252.868 544.061C252.868 549.902 257.223 554.636 262.594 554.636Z" fill="#535461"/>
      <path id="Vector 95" opacity="0.1" d="M585.555 553.646C590.926 553.646 595.28 548.911 595.28 543.071C595.28 537.231 590.926 532.496 585.555 532.496C580.184 532.496 575.83 537.231 575.83 543.071C575.83 548.911 580.184 553.646 585.555 553.646Z" fill="black"/>
      <g id="right-wheel">
        <path id="Vector 96" d="M590.33 628.205L585.578 547.388L585.479 547.215L580.681 549.031L558.596 619.042L523.483 591.965L579.428 547.875L579.481 547.702L579.8 547.578L583.406 544.73L524.766 508.978L510.395 526.148L512.672 542.245L580.089 543.55V545.201L511.397 543.863L508.816 525.612L528.471 502.126L557.867 464.838L558.391 466.382L564.616 458.953L587.802 463.468V462.469L589.321 462.519V463.765L623.758 470.468L591.621 540.347L586.937 544.037V544.449V544.912L661.193 516.779L652.379 592.072L589.366 548.428L587.149 547.075L624.304 612.198L590.33 628.205ZM587.294 550.327L591.735 625.761L622.141 611.414L587.294 550.327ZM526.125 591.965L557.852 616.425L578.608 550.599L526.125 591.965ZM588.622 546.018L590.209 546.984L651.21 589.249L659.409 519.189L588.622 546.018ZM583.232 540.074L585.137 543.418L585.471 543.153L587.749 465.119L565.171 460.711L558.976 468.14L583.232 540.074ZM525.996 507.839L582.814 542.51L581.827 540.751L557.852 469.535L529.61 503.282L525.996 507.839ZM589.29 465.416L587.013 541.932L590.444 539.224L621.503 471.682L589.29 465.416Z" fill="#535461"/>
        <path id="Vector 97" d="M586.162 554.966C591.533 554.966 595.888 550.232 595.888 544.392C595.888 538.551 591.533 533.817 586.162 533.817C580.791 533.817 576.437 538.551 576.437 544.392C576.437 550.232 580.791 554.966 586.162 554.966Z" fill="#535461"/>
      </g>
      <path id="Vector 98" opacity="0.1" d="M413.286 554.636C424.024 554.636 432.729 545.171 432.729 533.495C432.729 521.819 424.024 512.354 413.286 512.354C402.548 512.354 393.843 521.819 393.843 533.495C393.843 545.171 402.548 554.636 413.286 554.636Z" fill="black"/>
      <path id="Vector 99" d="M414.508 554.636C425.247 554.636 433.951 545.171 433.951 533.495C433.951 521.819 425.247 512.354 414.508 512.354C403.77 512.354 395.065 521.819 395.065 533.495C395.065 545.171 403.77 554.636 414.508 554.636Z" fill="#535461"/>
      <path id="Vector 100" d="M409.317 531.907L409.311 531.912C407.028 533.768 406.561 537.286 408.269 539.769L423.7 562.206C425.408 564.689 428.643 565.197 430.926 563.34L430.932 563.335C433.216 561.478 433.682 557.961 431.975 555.478L416.543 533.041C414.836 530.558 411.601 530.05 409.317 531.907Z" fill="#10CD3E"/>
      <path id="Vector 101" d="M502.309 239.89L500.502 264.746C500.294 267.894 500.333 271.056 500.616 274.198C500.852 276.98 500.616 281.85 498.111 289.28C494.894 298.77 493.232 308.8 493.199 318.915V347.205L475.737 343.903C475.737 343.903 476.497 304.279 473.46 297.675C470.423 291.071 475.737 232.46 475.737 232.46L502.309 239.89Z" fill="#DB8B8B"/>
      <path id="Vector 106" opacity="0.1" d="M407.41 528.814L387.671 540.371L381.597 535.418V532.116C388.418 531.59 395.045 529.415 400.995 525.752C402.817 524.629 404.533 523.523 405.907 522.549C406.704 526.371 407.41 528.814 407.41 528.814Z" fill="black"/>
      <g id="head">
        <path id="Vector 109" opacity="0.1" d="M489.403 140.83C489.405 143.493 489.068 146.143 488.401 148.705C486.347 149.192 484.205 148.979 482.267 148.094C479.427 146.881 476.99 144.792 474.265 143.29C466.589 139.064 457.456 139.897 448.953 141.292C444.732 141.986 439.941 142.63 436.624 139.707C436.51 139.61 436.401 139.505 436.297 139.394C436.473 131.731 439.44 124.458 444.547 119.174C449.654 113.89 456.482 111.029 463.53 111.219C470.577 111.41 477.266 114.637 482.125 120.19C486.985 125.743 489.616 133.167 489.441 140.83H489.403Z" fill="black"/>
      </g>
      <path id="hat" d="M417.037 122.958C418.654 128.472 426.42 128.646 430.406 132.707C432.479 134.82 433.443 137.941 435.72 139.823C438.886 142.448 443.457 141.87 447.488 141.243C455.604 139.988 464.319 139.237 471.638 143.042C474.234 144.388 476.565 146.27 479.275 147.368C481.986 148.466 485.349 148.598 487.551 146.65C489.312 145.09 489.957 142.522 491.552 140.805C492.789 139.452 494.512 138.692 495.924 137.503C499.022 134.961 500.358 130.817 501.239 126.854C503.061 118.698 503.585 109.907 500.48 102.172C497.374 94.4371 489.904 88.1385 481.75 88.543C479.253 88.6668 476.816 89.3685 474.325 89.6657C467.834 90.3839 461.419 88.0147 454.905 87.6102C453.016 87.3602 451.099 87.6445 449.34 88.4357C448.014 89.2371 446.87 90.3513 445.992 91.6964C443.01 95.9439 440.968 100.882 440.025 106.126C439.266 110.08 439.228 113.663 434.771 114.274C429.708 115 413.613 111.294 417.037 122.958Z" fill="#472727"/>
      <path id="Vector 110" d="M439.676 556.469H394.124V572.153H439.676V556.469Z" fill="#10CD3E"/>
      <path id="Vector 111" opacity="0.1" d="M439.676 556.469H394.124V572.153H439.676V556.469Z" fill="black"/>
      <path id="Vector 74" d="M586.466 447.602C578.408 447.592 570.387 448.77 562.62 451.102C558.614 452.303 554.692 453.812 550.883 455.618C530.589 465.183 514.279 482.592 505.109 504.477C495.938 526.362 494.557 551.168 501.235 574.096C507.912 597.024 522.173 616.444 541.258 628.6C560.343 640.755 582.895 644.783 604.554 639.903C626.212 635.023 645.436 621.583 658.507 602.182C671.578 582.781 677.567 558.799 675.316 534.874C673.065 510.949 662.733 488.782 646.319 472.661C629.906 456.54 608.577 447.612 586.458 447.602H586.466ZM586.162 617.729C570.765 617.722 555.833 611.989 543.847 601.481C531.86 590.973 523.54 576.322 520.268 559.963C516.996 543.603 518.969 526.519 525.86 511.547C532.751 496.576 544.144 484.617 558.148 477.658C561.71 475.885 565.409 474.457 569.202 473.39C578.473 470.774 588.151 470.334 597.591 472.101C607.031 473.867 616.016 477.8 623.95 483.636C631.883 489.473 638.582 497.079 643.602 505.95C648.621 514.821 651.845 524.753 653.06 535.084C654.274 545.415 653.451 555.909 650.645 565.867C647.84 575.826 643.116 585.02 636.787 592.839C630.459 600.658 622.672 606.921 613.945 611.213C605.217 615.504 595.749 617.726 586.17 617.729H586.162Z" fill="#535461"/>
    </g>
  </g>
</svg>
