<svg width="687" height="788" viewBox="0 0 687 788" fill="none" xmlns="http://www.w3.org/2000/svg">

<style>


#cursor {
  
  animation: cursor 5s infinite;
}

#card1 {
  transform-origin: 36% 37%;
  transform: scale(0);
  animation: card1 5s infinite;
}

#card2 {
  transform-origin: 54% 51%;
  transform: scale(0);
  animation: card2 5s infinite;
}

#dot1 {
  animation: dot1 5s infinite;
}
#dot2 {
  animation: dot2 5s infinite;
}

/* Cards */

@keyframes cursor {
  20% {
    transform: translate3d(-51px, -146px, 0px);
  }
  
  40% {
    transform: translate3d(-51px, -146px, 0px);
  }
  
  60% {
    transform: translate3d(65px, -45px, 0px);
  }
  
  80% {
    transform: translate3d(65px, -45px, 0px);
  }
  
  100% {
    transform: translate3d(0px, 0px, 0px);
  }
}

@keyframes card1 {
  20% {
    transform: scale(0);
  }
  
  40% {
    transform: scale(1);
  }
  
  50%{
    transform: scale(1);
  }
  
  80% {
    transform: scale(1);
  }
  
  100% {
    transform: scale(0);
  }
}

@keyframes card2 {
  20% {
    transform: scale(0);
  }
  
  40% {
    transform: scale(0);
  }
  
  60% {
    transform: scale(0);
  }
  
  80% {
    transform: scale(1);
  }
  
  100% {
    transform: scale(0);
  }
}

@keyframes dot1 {
  20% {
    r: 3;
  }
  
  40% {
    r: 5;
  }
  
  60% {
    r: 3;
  }
  
  80% {
    r: 3;
  }
  
  100% {
    r: 3;
  }
}

@keyframes dot2 {
  20% {
    r: 3;
  }
  
  40% {
    r: 3;
  }
  
  60% {
    r: 3;
  }
  
  80% {
    r: 5;
  }
  
  100% {
    r: 3;
  }
}
</style>


<rect x="106" y="92" width="345" height="457" fill="#F4F4F4"/>
<circle cx="96.5" cy="623.5" r="15" stroke="white" stroke-width="3"/>
<circle cx="533" cy="355" r="111" fill="#1DC9FF"/>
<path d="M42.4092 108C311.409 141.167 805.109 234.1 627.909 340.5C450.709 446.9 176.909 307.5 13.9092 396.5C-53.2574 421.333 -155.191 478 -25.5908 506C104.009 534 502.409 599.333 685.409 628.5" stroke="white" stroke-width="2" stroke-miterlimit="1.86218" stroke-linecap="round" stroke-dasharray="4 7"/>
<path d="M151 365.174L164.904 350.21C164.904 350.21 180.198 326.695 191.321 333.108C202.444 339.521 175.332 354.485 175.332 354.485L161.428 378L151 365.174Z" fill="#A0616A"/>
<path d="M105.764 653C105.764 653 94.9985 673.31 102.893 674.71C110.787 676.111 149.542 678.212 150.26 676.111C150.977 674.01 156.719 667.007 152.413 664.205C148.107 661.404 130.882 659.303 130.882 659.303L125.141 653.7L105.764 653Z" fill="#2F2E41"/>
<path d="M100.448 453.188C100.448 453.188 77.8087 481.357 96.2035 510.229L100.448 558.819C100.448 558.819 92.666 625.719 102.571 648.254L103.986 656H128.748L122.381 596.847C122.381 596.847 123.088 589.805 125.211 588.396C127.333 586.988 162 510.933 162 510.933C162 510.933 156.34 500.37 158.463 498.258C160.585 496.145 156.34 453.893 154.218 452.484C152.095 451.076 100.448 453.188 100.448 453.188Z" fill="#2F2E41"/>
<path d="M141.128 646.815L144 663L116 661.593L119.59 644L141.128 646.815Z" fill="#A0616A"/>
<path d="M136 358C124.402 358 115 348.598 115 337C115 325.402 124.402 316 136 316C147.598 316 157 325.402 157 337C157 348.598 147.598 358 136 358Z" fill="#A0616A"/>
<path d="M117.062 340L115 365.412L137 376C137 376 133.219 352.353 135.969 346L117.062 340Z" fill="#A0616A"/>
<path d="M140.18 375.057L138.071 366.587L109.238 356C109.238 356 106.425 356 107.129 360.941C107.832 365.881 107.832 365.175 107.832 365.175C107.832 365.175 97.9866 369.41 97.2833 376.468C96.5801 383.526 85.3284 385.644 86.0316 396.231C86.7348 406.818 90.251 412.464 90.251 412.464C90.251 412.464 86.7348 420.934 92.3607 425.875C92.3607 425.875 97.9866 435.756 95.1736 442.814C92.3607 449.872 88.8445 461.87 96.5801 459.753C104.316 457.636 157.761 454.107 157.761 454.107C157.761 454.107 165.497 425.169 157.058 414.582C157.058 414.582 157.058 408.229 150.729 395.525C144.4 382.821 140.18 375.057 140.18 375.057Z" fill="#575A89"/>
<path d="M103 454.678C103 454.678 112.194 493.717 123.511 497.976C123.511 497.976 125.633 526.368 137.656 524.948C149.68 523.529 137.656 497.976 137.656 497.976L124.218 449L103 454.678Z" fill="#A0616A"/>
<path d="M139 377.351C139 377.351 149.348 360.509 152.108 363.316C154.867 366.123 168.665 374.544 167.975 380.158C167.285 385.772 161.076 385.772 161.076 385.772L146.589 397L139 377.351Z" fill="#575A89"/>
<path d="M153.718 504L162.287 510.074L168 570.192C168 570.192 147.292 651.875 141.579 652.579C135.866 653.283 112.302 653.283 113.016 651.171C113.73 649.058 117.3 640.608 117.3 638.496C117.3 636.383 124.748 619.489 124.748 619.489L134.438 580.05L132.296 549.067L153.718 504Z" fill="#2F2E41"/>
<path d="M142.953 657.184C142.953 657.184 113.042 648.246 111.617 650.309C110.193 652.372 100.693 673.16 113.989 675.485C127.285 677.81 175 681.935 175 675.748C175 669.56 173.576 665.435 169.303 665.435C165.03 665.435 145.801 656.497 144.377 654.434C142.953 652.372 142.953 657.184 142.953 657.184Z" fill="#2F2E41"/>
<path d="M115.461 338.11C115.26 337.716 115.191 337.268 115.263 336.832C115.336 336.397 115.548 335.995 115.867 335.684C116.186 335.374 116.597 335.171 117.041 335.104C117.485 335.038 117.939 335.111 118.338 335.314L118.376 335.335C119.002 335.709 119.502 336.256 119.813 336.908C120.125 337.56 120.235 338.287 120.128 339C122.718 336.459 120.809 331.362 123.607 329.044C124.902 327.972 127.004 327.736 127.67 326.204C128.057 325.313 127.794 324.256 128.135 323.346C128.642 321.996 130.261 321.432 131.709 321.22C136.262 320.552 140.866 321.688 145.323 322.816C146.963 323.23 148.686 323.691 149.88 324.871C151.138 326.113 151.575 327.919 152.346 329.5C153.117 331.081 158.175 330.938 159.943 330.714C160.558 328.997 156.018 328.867 155.647 327.084C154.635 322.208 158.162 317.024 156.431 312.348C155.389 309.53 152.665 307.665 149.923 306.355C142.305 302.753 133.609 302.023 125.481 304.303C124.653 304.483 123.88 304.851 123.223 305.377C122.18 306.335 121.986 307.874 121.291 309.1C119.708 311.895 115.952 312.559 113.419 314.567C109.584 317.609 109.152 323.1 109.028 327.944C108.965 330.384 108.921 332.918 109.937 335.145C110.953 337.371 113.36 339.185 115.795 338.719C115.68 338.535 115.569 338.329 115.461 338.11Z" fill="#2F2E41"/>
<path d="M118.995 383.703C116.272 381.793 113 380.85 109.689 381.02C106.379 381.19 103.218 382.464 100.701 384.642C95.8531 388.805 90.6379 394.769 91.0198 400.943C91.7232 412.316 95.9436 459.228 101.571 459.939C107.198 460.65 127.597 454.964 127.597 451.41C127.597 447.856 122.673 443.591 122.673 443.591L128.652 407.344C129.405 402.949 128.931 398.429 127.28 394.293C125.63 390.156 122.87 386.567 119.311 383.93C119.206 383.854 119.101 383.778 118.995 383.703Z" fill="#575A89"/>
<rect x="188" y="176" width="345" height="457" fill="#8BDCFF"/>
<g id="card2">  
  <rect x="361" y="397" width="132" height="59" rx="5" fill="white"/>
  <rect x="367" y="404" width="16" height="16" rx="2" fill="#D9D9D9"/>
  <rect x="392" y="404" width="92" height="6" rx="2" fill="#F0F0F0"/>
  <rect x="392" y="415" width="92" height="6" rx="2" fill="#F0F0F0"/>
  <rect x="392" y="426" width="92" height="6" rx="2" fill="#F0F0F0"/>
  <rect x="392" y="437" width="47" height="6" rx="2" fill="#F0F0F0"/>
</g>
<path d="M494 734L494.704 751.067V766H513V734H494Z" fill="#FFB9B9"/>
<path d="M596 717.857L596.704 735V750H615L611.481 715L596 717.857Z" fill="#FFB9B9"/>
<path d="M577 441L571.261 486.196L552.609 540L544 509.152L554.761 489.783L552.609 448.891L577 441Z" fill="#FFB9B9"/>
<path d="M488.135 437C488.135 437 472.007 464.696 474.206 467.536C476.405 470.377 477.872 486 477.872 486H483.976L494 461.855L488.135 437Z" fill="#2F2E41"/>
<path d="M527 363C540.807 363 552 351.807 552 338C552 324.193 540.807 313 527 313C513.193 313 502 324.193 502 338C502 351.807 513.193 363 527 363Z" fill="#FFB9B9"/>
<path d="M518 358.315C518 358.315 531.38 376.701 527.155 385.894C522.93 395.087 568 380.944 568 380.944C568 380.944 545.465 355.486 544.761 347L518 358.315Z" fill="#FFB9B9"/>
<path d="M568.356 440.729C566.758 443.129 565.188 445.805 563.668 448.63C562.951 449.972 562.248 451.349 561.552 452.74C553.299 469.365 547.049 489 547.049 489L481 486.87L483.053 480.851L492.363 453.507C476.029 443.569 491.653 424.402 500.176 406.656C508.002 390.357 524.223 379.517 526.808 377.856C527.043 377.714 527.164 377.636 527.164 377.636L527.462 377.587L539.315 375.592L560.664 372H560.671C564.422 372.631 568.015 373.981 571.253 375.975C573.953 377.678 576.236 379.962 577.936 382.662C580.529 386.779 581.743 391.734 581.963 397.037C582.603 412.562 574.762 431.125 568.356 440.729Z" fill="#D0CDE1"/>
<path d="M572.244 382C572.244 382 585.174 397.021 585.892 409.897C586.611 422.772 583.737 447.093 577.272 447.093C570.807 447.093 559.314 451.384 560.032 447.093C560.75 442.801 572.244 382 572.244 382Z" fill="#D0CDE1"/>
<path d="M560 409.579L552.043 411C549.344 389.777 533.733 381.229 526 378.267C526.239 378.124 526.362 378.046 526.362 378.046L526.666 377.997L538.739 376C554.69 384.079 560 409.579 560 409.579Z" fill="#2F2E41"/>
<path d="M612.991 715.734C612.28 720.01 591.652 727.849 585.961 727.136C580.27 726.423 524.075 588.882 524.075 588.882C524.075 588.882 524.075 742.102 522.653 744.952C521.23 747.803 497.045 744.952 488.509 734.975C479.973 724.998 474.282 568.928 470.726 542.56C467.169 516.192 477.839 481.985 477.839 481.985L482.385 481.287L496.334 479.134C496.334 479.134 496.334 475.571 517.673 458.468C539.013 441.364 551.817 410.72 551.817 410.72L553.951 406.444L559.642 409.295C565.745 397.985 569.565 386.868 570.724 376C573.428 377.709 575.715 380.003 577.418 382.713C576.877 384.21 576.337 385.827 575.782 387.559C570.987 402.518 565.553 425.686 560.147 448.498C559.976 449.21 559.812 449.923 559.642 450.629C560.157 451.406 560.613 452.221 561.008 453.066C562.444 456.109 563.967 461.283 559.642 464.169C553.24 468.445 551.106 489.824 551.106 489.824C563.198 500.514 566.044 551.112 564.621 554.675C563.198 558.238 563.198 557.526 566.755 559.664C570.312 561.802 570.312 579.618 570.312 579.618C570.312 579.618 613.703 711.458 612.991 715.734Z" fill="#2F2E41"/>
<path d="M504.334 757.206C504.334 757.206 500.04 761.466 497.178 759.336C494.315 757.206 494.203 748.146 494.203 748.146C494.203 748.146 461.397 745.137 467.838 766.436C474.278 787.734 519.361 790.574 520.792 786.314C522.224 782.054 515.783 755.077 515.783 755.077L504.334 757.206Z" fill="#2F2E41"/>
<path d="M606.334 742.206C606.334 742.206 602.04 746.466 599.178 744.336C596.315 742.206 596.203 733.146 596.203 733.146C596.203 733.146 563.397 730.137 569.838 751.436C576.278 772.734 621.361 775.574 622.792 771.314C624.224 767.054 617.783 740.077 617.783 740.077L606.334 742.206Z" fill="#2F2E41"/>
<path d="M506.363 425L503.516 462.857L467.224 503.571C467.224 503.571 455.126 509.286 462.242 519.286C469.358 529.286 472.205 530 472.205 530L472.917 517.143L522.019 477.857L527 425H506.363Z" fill="#FFB9B9"/>
<path d="M529.062 409.378C529.062 409.378 531.876 377.331 517.807 380.179C503.738 383.028 503.034 396.559 503.034 396.559C503.034 396.559 496.703 429.319 502.331 430.743C507.959 432.168 526.952 435.016 529.062 430.743C531.172 426.47 529.062 409.378 529.062 409.378Z" fill="#D0CDE1"/>
<path d="M590.979 359.456C588.192 358.081 582.038 355.306 576.795 351.963C577.163 341.087 575.818 331.213 571.883 325.98C569.674 320.983 565.035 315.981 561.402 312.041C552.48 302.367 532.751 296.966 529.252 301.8C502.786 302.321 500 322.986 500 322.986C500.138 331.63 509.156 331.904 517.056 331.589C516.348 337.49 518.234 343.622 523.693 346.341C534.133 351.541 537.265 358.301 532.045 362.981C526.825 367.661 517.429 380.14 529.957 383.26C542.485 386.38 544.051 392.62 540.397 395.22C536.743 397.82 548.749 390.54 548.749 390.54C548.749 390.54 550.837 403.02 561.798 399.9C562.948 399.494 563.962 398.779 564.728 397.833C567.688 401.073 570.329 402.989 572.32 403C583.72 403.06 582.353 390.482 582.353 390.482C582.353 390.482 595.885 394.267 591.662 392.745C587.44 391.223 587.259 384.793 598.479 378.424C609.698 372.055 597.272 362.561 590.979 359.456Z" fill="#2F2E41"/>
<g id="card1">
  <rect x="244" y="297" width="132" height="59" rx="5" fill="white"/>
  <rect x="251" y="304" width="16" height="16" rx="2" fill="#D9D9D9"/>
  <rect x="275" y="304" width="92" height="6" rx="2" fill="#F0F0F0"/>
  <rect x="275" y="315" width="92" height="6" rx="2" fill="#F0F0F0"/>
  <rect x="275" y="326" width="92" height="6" rx="2" fill="#F0F0F0"/>
  <rect x="275" y="337" width="47" height="6" rx="2" fill="#F0F0F0"/>
</g>
<circle cx="241" cy="293" r="3" fill="#007DC3" id="dot1"/>
<circle cx="358" cy="394" r="3" fill="#007DC3" id="dot2"/>
<circle cx="606.5" cy="170.5" r="15" stroke="white" stroke-width="3"/>
<circle cx="416" cy="11" r="9.5" stroke="white" stroke-width="3"/>
<circle cx="105" cy="279" r="9.5" stroke="white" stroke-width="3"/>
<circle cx="653" cy="521" r="7.5" fill="white" stroke="white" stroke-width="3"/>
<circle cx="55" cy="466" r="7.5" fill="white" stroke="white" stroke-width="3"/>
<rect x="53.2525" y="46.9361" width="23" height="23" rx="3.5" transform="rotate(-30.5297 53.2525 46.9361)" stroke="white" stroke-width="3"/>
<rect x="339.935" y="698.776" width="28.6189" height="28.6189" rx="5" transform="rotate(-10.4105 339.935 698.776)" fill="white"/>
<g filter="url(#filter0_d)" id="cursor">
<path d="M293 456V441L304 451.027H297.415L293 456Z" stroke="black" stroke-width="2"/>
</g>
<defs>
<filter id="filter0_d" x="290" y="437.735" width="18.5815" height="23.8971" filterUnits="userSpaceOnUse" color-interpolation-filters="sRGB">
<feFlood flood-opacity="0" result="BackgroundImageFix"/>
<feColorMatrix in="SourceAlpha" type="matrix" values="0 0 0 0 0 0 0 0 0 0 0 0 0 0 0 0 0 0 127 0"/>
<feOffset dy="1"/>
<feGaussianBlur stdDeviation="1"/>
<feColorMatrix type="matrix" values="0 0 0 0 0 0 0 0 0 0 0 0 0 0 0 0 0 0 0.25 0"/>
<feBlend mode="normal" in2="BackgroundImageFix" result="effect1_dropShadow"/>
<feBlend mode="normal" in="SourceGraphic" in2="effect1_dropShadow" result="shape"/>
</filter>
</defs>
</svg>
