<?xml version="1.0" encoding="utf-8"?>
<!-- Generator: Adobe Illustrator 17.1.0, SVG Export Plug-In . SVG Version: 6.00 Build 0)  -->
<!DOCTYPE svg PUBLIC "-//W3C//DTD SVG 1.1//EN" "http://www.w3.org/Graphics/SVG/1.1/DTD/svg11.dtd">
<svg version="1.1" id="Layer_1" xmlns="http://www.w3.org/2000/svg" xmlns:xlink="http://www.w3.org/1999/xlink" x="0px" y="0px"
	 width="867.4px" height="747.6px" viewBox="0 0 867.4 747.6" enable-background="new 0 0 867.4 747.6" xml:space="preserve">
<g>
	<g>
		<g>
			<path fill="#CD2606" d="M752.4,369.3c0,0,22.9-38.3,51.3-44.3c28.4-6,31.5,23.2-6.6,41.9C759.1,385.6,752.4,369.3,752.4,369.3z"
				/>
			<path fill="#BC1A04" d="M752.4,369.3c0,0,6.7,16.3,44.7-2.4c4.3-2.1,8.1-4.4,11.4-6.7c-9.7-0.8-21.8-2.6-24.5-7.5
				c-2.6-5-0.5-13.4,1.8-19.7C766.3,346.1,752.4,369.3,752.4,369.3z"/>
			<path fill="#CD2606" d="M718.8,396c0,0,70.9-37.4,61.1-74.2C773.9,299.6,712.6,338.6,718.8,396z"/>
			<path fill="#BC1A04" d="M718.8,396c0,0,0.6-0.3,1.7-0.9c0.1-50.1,50.2-83.5,60.2-68.8c-0.1-1.5-0.4-3-0.8-4.5
				C773.9,299.6,712.6,338.6,718.8,396z"/>
			<path fill="#CD2606" d="M718.8,396c0,0,25-33.1,64.1-34.9C822,359.2,833.2,407.3,718.8,396z"/>
			<path fill="#BC1A04" d="M783.3,367c13.7-0.7,23.9,4.8,26.6,11.7c2.4-9.4-9.5-18.5-27-17.6c-39.1,1.9-64.1,34.9-64.1,34.9
				c1.8,0.2,3.4,0.3,5.2,0.4C733,387,754.2,368.4,783.3,367z"/>
			<path fill="#E22C14" d="M738,389.5c0,0,25.4-19.6,47.7-17.5C832.5,376.2,772.6,400.6,738,389.5z"/>
			<path fill="#E22C14" d="M728.2,379.5c0,0,42.7-26.1,45.3-46.4C776,312.9,734.3,343.3,728.2,379.5z"/>
			<path fill="#E22C14" d="M790.7,346.4c0,0,0.2-11.6,10.2-16.4c10-4.7,21-2.3,19.5,7.4C817.5,357.6,791.7,358.8,790.7,346.4z"/>
		</g>
		<path fill="#CD2606" d="M346.8,95.8c0,0-2.5-69.7,80.8-92.1C511-18.7,559.8,66.3,565,113.8c0,0,122.9-5.5,99.1,117.7
			c0,0,73.2,58.4,3,97.9C597,368.9,336.5,157.2,336.5,157.2L346.8,95.8z"/>
		<path fill="#BC1A04" d="M695.5,299.9C644.9,269.8,555.4,106,485.9,91.7c-75.4-15.6-111.4,34.1-113.2-11.8
			c-0.9-22.7,14.6-47.7,30.6-67.3c-58.5,27.9-56.6,83.2-56.6,83.2l-10.3,61.4c0,0,260.5,211.7,330.7,172.2
			C683.4,320.3,691.9,310.1,695.5,299.9z"/>
		<path fill="#FECE00" d="M346.8,95.8c0,0,6.9,36.2,40.1,29.3c33.2-6.9,41.8-32.2,108.1-10.6s155.5,163.3,180,209.7
			c24.4,46.4,33.8,63.4,57.8,57.8c0,0,11.2,90.2-185.7,132.4c-196.9,42.1-436.5-55.7-436.5-55.7S62.6,203.3,346.8,95.8z"/>
		<path fill="#FFDA3E" d="M331.7,143.7c0,0,26.5,23.6,84.3,4.7c57.7-18.8,123.4,13.1,150.6,61.2C593.8,257.8,658.8,369.9,679,382
			c20.2,12-44.4,44-63.3,43c-18.8-1-138.4-60.5-153.2-60.9c-14.7-0.4-52.2,34.9-64.9,41.5c-12.7,6.6-73.3-28.8-82.2-27.1
			c-8.9,1.7-16.7,16.2-24.1,17.5c-7.4,1.3-59.8-50.5-70.2-45.4c-10.3,5.1-33.3,18.1-38.5-10.3C174,293.6,294.3,120.8,331.7,143.7z"
			/>
		<path fill="#FCC000" d="M346.8,95.8C62.6,203.3,110.6,458.6,110.6,458.6s155.3,63.4,318.6,66.1c25.5-44.7,52.8-107.9,24.3-94.1
			c-41,19.8-141.7-25-141.7-25L262,458.3L182.6,394c0,0-54.6,25.1-25.3-92.4C187.7,179.6,346.8,95.8,346.8,95.8z"/>
		<g>
			<path fill="#FFC19A" d="M65.3,405.6l73.6,38l80.2-58.6l71.2,41.9l21.5-21.2l77.2,53l73.6-76.7l154.3,76.7l131.6-61.1
				c0,0,72.6,350.1-322.7,350.1S65.3,405.6,65.3,405.6z"/>
			<path fill="#FFB48A" d="M467.5,697.5c-277.3,0-342.9-168.3-357.4-268.8l-44.8-23.1c0,0-34.8,342,360.5,342
				c160.4,0,243.7-57.6,286.2-126.1C663,665.8,586.5,697.5,467.5,697.5z"/>
			<path fill="#FCA57A" d="M359.3,547.5L315.4,591l27.7-12.9c0,0,28.7,30.3,28.2,29.1c-0.5-1.2-19.1-34.4-19.1-34.4l22.9-22
				l-22.9-34.4L462.5,382L389,458.6l-50.2,58.8L359.3,547.5z"/>
			<path fill="#FFCBAE" d="M160.2,472.1c0,0,29.2-31.8,40.3-31.3c11.1,0.5,55.4,34.1,65.3,35.6c9.9,1.4,36.5-39.2,45.4-38.6
				c8.9,0.7,30.5,18.7,36.2,25.1c5.7,6.4-40.4,43.6-36.9,52.5c3.5,8.9,31.5,8.9,23.4,24.1c-8.2,15.2-45.4,62.9-46.1,67.8
				c-0.7,4.9,43.6-21,49.6-14.6c6,6.4,46.7,36.5,50.8,36.2c4.1-0.4-20.7-52.5-15.4-56c5.3-3.5,32.3-20.2,33.3-26.9
				c1.1-6.7-30.5-34.4-25.5-41.1c5-6.7,76.9-94.6,90-91.4c13.1,3.2,119.5,84.7,135.4,81.3c16-3.4,106-58.3,118.4-50.9
				s18.1,240.3-236.8,231.8C232.9,667.1,138.9,506.9,160.2,472.1z"/>
		</g>
		<g>
			<ellipse fill="#FECE00" cx="588.2" cy="430.6" rx="60.6" ry="52.1"/>
			<path fill="#FCC000" d="M604.9,465c-33.4,0-60.6-23.3-60.6-52.1c0-8.3,2.3-16.1,6.3-23.1c-14,9.5-23.1,24.3-23.1,40.9
				c0,28.8,27.1,52.1,60.6,52.1c23.8,0,44.3-11.8,54.2-29C632.1,460.8,619.1,465,604.9,465z"/>
			<path fill="#FFDA3E" d="M627.3,446.4c-14.2,11.3-38.5,8.6-54.2-6.1c-15.7-14.7-17-35.7-2.8-47c14.2-11.3,38.5-8.6,54.2,6.1
				C640.2,414.1,641.5,435.1,627.3,446.4z"/>
		</g>
		<path fill="#FECE00" d="M278.4,433.8c-0.4,1.1,1.9-44.9-31.2-63.5c-33.2-18.6-83.8,7.7-71.2,42.1c12.6,34.4,65.8,48.7,85.9,45.9
			C277.4,456.2,278.4,433.8,278.4,433.8z"/>
		<path fill="#FFDA3E" d="M269.6,420.9c-0.2,0.7,1.3-30.6-20.7-43.2c-21.9-12.7-55.5,5.3-47.1,28.7c8.4,23.4,43.5,33.2,56.9,31.3
			C268.9,436.1,269.6,420.9,269.6,420.9z"/>
		<path fill="#FCC000" d="M191.3,403.6c-5.2-14.1,0.4-26.8,10.9-35.6c-19.5,7.3-33.5,24.5-26.2,44.4c12.6,34.4,65.8,48.7,85.9,45.9
			c5.7-0.8,9.5-4.4,11.9-8.5C251.8,450.8,203.3,436.2,191.3,403.6z"/>
		<g>
			<path fill="#660000" d="M393.5,315c0,0,2.3-8.6,10-9.8s27.8,0.7,30.3,5.6c2.5,4.9-1,24-17.3,26
				C400.1,338.9,392.5,319.4,393.5,315z"/>
			<path fill="#540000" d="M420.3,329.9c-9.1,0-16.4-5.6-16.4-12.6c0-5.8,5.1-10.6,12-12.1c-4.8-0.4-9.5-0.4-12.4,0.1
				c-7.7,1.2-10,9.8-10,9.8c-0.9,4.4,6.7,23.9,23,21.8c7.4-0.9,12.1-5.3,14.9-10.3C428.4,328.6,424.5,329.9,420.3,329.9z"/>
			<path fill="#FF8B00" d="M395.2,307.8c0,0,4.8,28.6,20.1,27.1c15.3-1.6,18.9-27.1,18.9-27.1l6.4-0.3c0,0,2.2,41.1-24.8,41.3
				c-27,0.2-28.9-41.9-28.9-41.9L395.2,307.8z"/>
			<path fill="#FF7300" d="M418.9,345.4c-22,0.1-27.3-27.7-28.5-38.1l-3.4-0.4c0,0,1.9,42.1,28.9,41.9c8,0,13.3-3.7,17-8.8
				C429.4,343.2,424.9,345.3,418.9,345.4z"/>
			<path fill="#FF8B00" d="M440.9,306.3c0,5.2-12.1,9.4-27,9.4c-14.9,0-27-4.2-27-9.4s12.1-18.9,27-18.9
				C428.8,287.4,440.9,301.1,440.9,306.3z"/>
			<path fill="#FFA039" d="M432.9,301.5c0,2.7-7.9,5-17.7,5s-17.7-2.2-17.7-5c0-2.7,7.9-9.9,17.7-9.9S432.9,298.8,432.9,301.5z"/>
			<path fill="#FF7300" d="M419,311.3c-14.9,0-27-4.2-27-9.4c0-2,1.7-5.1,4.7-8.3c-5.9,4.3-9.8,9.8-9.8,12.7c0,5.2,12.1,9.4,27,9.4
				c13.7,0,25-3.6,26.7-8.2C435.7,309.8,427.9,311.3,419,311.3z"/>
			<path fill="#FFA039" d="M396.6,320.8c0,0,4.7,18.9,20.7,15.9c16-3,16.7-20.8,18.9-20.9s1.1,22.5-13.1,26.5
				c-14.2,4-23.3-8.8-26.5-15.8C393.5,319.4,395.1,316.6,396.6,320.8z"/>
			<path fill="#770101" d="M409.9,318.4c0,0,9.2,0.6,15.1-1.3c5.9-2,0.9,9.9-6.8,9.7C410.4,326.7,405.7,318.3,409.9,318.4z"/>
		</g>
		<g>
			<path d="M577.2,315.8c-3.7,0-6.8-3-6.8-6.8c0-3.1-2-10.8-6.7-14.7c-2.5-2-5.2-2.7-8.7-2.1c-11.5,2.1-12.1,16.3-12.1,16.9
				c-0.1,3.7-3.4,6.6-6.9,6.6c-3.7-0.1-6.7-3.1-6.6-6.9c0.2-8.9,5.2-26.7,23.2-30c7.4-1.4,14.3,0.4,19.8,5
				c8.4,7,11.6,19.1,11.6,25.1C584,312.7,581,315.8,577.2,315.8z"/>
		</g>
		<ellipse fill="#FF9999" cx="620.6" cy="340.4" rx="21.8" ry="16.2"/>
		<g>
			<path d="M295.1,315.8c-3.7,0-6.8-3-6.8-6.8c0-3.1-2-10.8-6.7-14.7c-2.5-2-5.2-2.7-8.7-2.1c-11.5,2.1-12.1,16.3-12.1,16.9
				c-0.1,3.7-3.4,6.6-6.9,6.6c-3.7-0.1-6.7-3.1-6.6-6.9c0.2-8.9,5.2-26.7,23.2-30c7.4-1.4,14.3,0.4,19.8,5
				c8.4,7,11.6,19.1,11.6,25.1C301.9,312.7,298.9,315.8,295.1,315.8z"/>
		</g>
		<ellipse fill="#FF9999" cx="204.4" cy="340.4" rx="21.8" ry="16.2"/>
		<path fill="#E22C14" d="M561.1,119.7c0,0-49.1-102.6-100.1-103.9c-51-1.3-72.5,48.7-70.4,58.6c2.1,9.9,45.1-1.7,79.8,0
			c34.7,1.7,111.4,69.5,141.6,114.6s58,87.7,68.1,87.5c10.1-0.2-27.8-46-27.8-46s8.6-50.2-10.7-78.8
			C622.5,123.1,561.1,119.7,561.1,119.7z"/>
	</g>
	<polygon fill="#F98E00" points="134.6,64.7 171.6,45.7 201.4,105.4 177.2,119.2 	"/>
	<polygon fill="#F98E00" points="13.2,109.1 46,85.9 86.6,136 69.3,147.4 	"/>
	<polygon fill="#F98E00" points="0,220.3 29.6,199.8 86.6,223.5 61.5,255.9 	"/>
	<polygon fill="#F98E00" points="677.2,90.2 726.5,31.7 755.6,48.4 712,106.5 	"/>
	<polygon fill="#F98E00" points="785.5,193.2 858.1,185.3 867.4,220.3 792.5,231.5 	"/>
</g>
</svg>
