<?xml version="1.0" encoding="utf-8"?>
<!-- Generator: Adobe Illustrator 17.1.0, SVG Export Plug-In . SVG Version: 6.00 Build 0)  -->
<!DOCTYPE svg PUBLIC "-//W3C//DTD SVG 1.1//EN" "http://www.w3.org/Graphics/SVG/1.1/DTD/svg11.dtd">
<svg version="1.1" id="Layer_1" xmlns="http://www.w3.org/2000/svg" xmlns:xlink="http://www.w3.org/1999/xlink" x="0px" y="0px"
	 width="1061.2px" height="975.8px" viewBox="0 0 1061.2 975.8" enable-background="new 0 0 1061.2 975.8" xml:space="preserve">
<g>
	<g>
		<path fill="#CD2606" d="M79.8,803.1c0,0-31.2-61.1-59.9-51.5C-8.8,761.1-19.4,818,79.8,803.1z"/>
		<path fill="#BC1A04" d="M76.7,797.5c-10.4-5.1-45.9-2.7-61.1-9.6c-6.9-3.1-12-8.2-15.4-12.8c-2.1,17.9,16.6,37.4,79.6,28
			C79.8,803.1,78.7,800.9,76.7,797.5z"/>
		<path fill="#CD2606" d="M79.8,803.1c0,0,15-67-18.3-74.7C28.2,720.7,9.1,771.1,79.8,803.1z"/>
		<path fill="#E22C14" d="M75.4,778c0,0,4.8-40-13.2-44.5C44.1,729,36.4,759.2,75.4,778z"/>
		<path fill="#BC1A04" d="M39.2,733.3c-14.8,13.2-11.1,46.4,40.6,69.8c0,0,1.2-5.4,2.1-13.1C45.1,771.9,35.1,748.7,39.2,733.3z"/>
		<path fill="#CD2606" d="M79.8,803.1c0,0-53.8-15.1-67.8,1.5C-1.9,821.3,30.7,873.1,79.8,803.1z"/>
		<path fill="#BC1A04" d="M10.9,806.3c-10.7,18.1,21.4,64.5,69-3.2c0,0-1.8-0.5-4.7-1.2C38.5,847.5,12.4,825,10.9,806.3z"/>
		<path fill="#E22C14" d="M62,804.6c0,0-31.4-8.8-41.9,0.6S38.7,840.5,62,804.6z"/>
		<path fill="#E22C14" d="M46,785.5c0,0-12.9-13.5-17.9-23.3c-5-9.8-18.7,3.2-21.1,9.7c-2.3,6.4,17,16.7,29.1,17
			C48.2,789.2,48.4,788.2,46,785.5z"/>
	</g>
	<path fill="#CD2606" d="M436.2,276.1c0,0-17.2-70.9-119.5-67C214.5,213,212,312.9,212,312.9s-65.9-0.4-112.5,52.1
		s15.5,116.7,27.2,118.7c0,0-43.4,13.9-44.3,63.2c-0.8,49.3,78,83.9,78,83.9S469.5,393,468.7,391.7
		C467.8,390.4,436.2,276.1,436.2,276.1z"/>
	<path fill="#BC1A04" d="M436.2,276.1c0,0-17.2-70.9-119.5-67C214.5,213,212,312.9,212,312.9s-65.9-0.4-112.5,52.1
		c-46.6,52.5,15.5,116.7,27.2,118.7c0,0-47.6-75.6-3.4-116.2c44.2-40.6,101.1-37.5,107.2-39.5c6.1-2,12.7-76.4,87.2-90.7
		c53.6-10.2,100.6,30.2,122.7,53.6C437.8,281.9,436.2,276.1,436.2,276.1z"/>
	<path fill="#FF8B00" d="M396.9,919.1c0,0,32,64.3,62.5,55.9c30.5-8.5,42.8-85.9,42.8-85.9s80,63.3,103.5,58.2s33.1-92.2,33.1-92.2
		S479.2,855.2,396.9,919.1z"/>
	<g>
		<g>
			<g>
				<path fill="#FF7300" d="M465.1,965.2c-25.8,7.2-52.7-37.8-60.3-51.8c-2.7,1.9-5.3,3.8-7.9,5.8c0,0,32,64.3,62.5,55.9
					c10-2.8,18.1-13,24.4-25.4C478.5,957.4,472.3,963.2,465.1,965.2z"/>
			</g>
			<g>
				<path fill="#FF7300" d="M611.4,937.6c-23.5,5.1-103.5-58.2-103.5-58.2s-0.8,4.9-2.4,12.4c15.3,11.8,79.6,60.1,100.2,55.7
					c6-1.3,11-7.9,15.3-17C618.1,934.2,614.9,936.8,611.4,937.6z"/>
			</g>
		</g>
	</g>
	<path fill="#FECE00" d="M425.9,333.2c0,0-123.7-45.1-228.2,87.3S165.3,748.2,72,797.5c0,0,45.8,149.9,308.6,149.9
		S837.2,849.3,772,596.6c-44.2-171.1-251-324.5-335.8-320.6C436.2,276.1,439.6,296.3,425.9,333.2z"/>
	<path fill="#FCC000" d="M273.2,719.7c0,0,64.2,50.1,105,2.2c0,0-2.6,40.1-46.5,40.1C294.7,762,273.2,719.7,273.2,719.7z"/>
	<path fill="#FCC000" d="M639.6,649.9c0,0,11.5,60.1,75.7,44.1c0,0-9.3,18.8-40.7,15.3C643.1,705.7,631.7,674.1,639.6,649.9z"/>
	<path fill="#FFDA3E" d="M673.2,611.7c50-5.5,50.1-30.6,48.1-40.4c-44-161.8-221.1-247.1-240.9-243.1c-20,4-23.7,50.4-35.6,59.1
		c-11.9,8.6-63.1-16.2-100.3,0c-37.2,16.2-78.7,109.4-87.3,181.1c-8.6,71.7-44.5,165.4-44.5,165.4c-19.1,54.9,40.4,116.5,241,117
		c100,0.3,177.6-27.5,225-75.7c0.3-0.3,0.6-0.7,1-1c0,0,0,0,0,0c1.7-1.7,3.3-3.4,4.9-5.2c12.3-16.1,0.1-33.1-40.7-47.8
		C598.6,704.7,610.7,618.6,673.2,611.7z M353.7,790.5C271,801,244.9,749.1,258,727.1c0,0,24.6-63.2,100.8-68.6
		C435,653,436.4,779.9,353.7,790.5z"/>
	<path fill="#FCC000" d="M380.6,947.4c169,0,309.4-40.6,370.8-136.7c-45.2,31.8-134.6,77.8-288.5,80.1
		c-242.2,3.5-299.1-70.8-298.1-116.9c1-46.1,28.7-114.9,34.7-247.6c3.7-83.6,74.7-153.9,126.6-194.5c-39.5,9.9-85.6,34.4-128.4,88.7
		C93.3,552.9,165.3,748.2,72,797.5C72,797.5,117.9,947.4,380.6,947.4z"/>
	<g>
		<circle fill="#EFEFEF" cx="931.5" cy="229.1" r="129.6"/>
		<path fill="#DDDDDD" d="M929.9,311.3c-69.5-17.3-111.8-87.6-94.5-157c1.6-6.4,3.6-12.5,6-18.3c-16.9,16.3-29.6,37.4-35.7,61.9
			c-17.3,69.5,25.1,139.8,94.5,157c63.1,15.7,126.9-17.8,151-76.2C1020.2,308.7,974.9,322.5,929.9,311.3z"/>
		
			<ellipse transform="matrix(0.8743 0.4854 -0.4854 0.8743 217.8211 -435.4879)" fill="#FFFFFF" cx="949.8" cy="202.8" rx="94.4" ry="76.3"/>
	</g>
	<g>
		<ellipse fill="#EFEFEF" cx="601.4" cy="122.6" rx="142.4" ry="122.6"/>
		<path fill="#DDDDDD" d="M621.5,198.4c-78.7,0-142.4-54.9-142.4-122.6c0-6.2,0.5-12.3,1.6-18.2c-13.7,18.8-21.6,41.1-21.6,65
			c0,67.7,63.8,122.6,142.4,122.6c71.5,0,130.7-45.3,140.9-104.4C717.1,175.4,672.4,198.4,621.5,198.4z"/>
		<path fill="#FFFFFF" d="M714.1,117.6C702,156.1,647.4,176.9,592,164c-55.4-12.8-90.5-54.5-78.4-93c12.1-38.5,66.7-59.3,122.1-46.5
			C691,37.4,726.1,79.1,714.1,117.6z"/>
	</g>
	<circle cx="297.3" cy="562.8" r="24.1"/>
	<circle fill="#FFFFFF" cx="304" cy="554.7" r="7.8"/>
	<ellipse fill="#FF9999" cx="248.1" cy="607.2" rx="22.4" ry="20.3"/>
	<circle cx="595.1" cy="518.3" r="24.1"/>
	<circle fill="#FFFFFF" cx="601.8" cy="510.3" r="7.8"/>
	<ellipse fill="#FF9999" cx="673.2" cy="554.7" rx="22.4" ry="20.3"/>
	<g>
		<circle fill="#FF8B00" cx="465.5" cy="579.2" r="25.9"/>
		<path fill="#FF7300" d="M471.3,599.5c-14.3,0-25.9-11.6-25.9-25.9c0-5.8,1.9-11.1,5.1-15.4c-6.6,4.7-10.8,12.4-10.8,21.1
			c0,14.3,11.6,25.9,25.9,25.9c8.5,0,16.1-4.1,20.8-10.5C482.1,597.7,476.9,599.5,471.3,599.5z"/>
		<path fill="#FF8B00" d="M433.1,578.8c0,0,2.3-35.6,30.8-38c29.3-2.5,34,36.3,34,36.3S471.6,592.1,433.1,578.8z"/>
		<path fill="#FF7300" d="M450.2,568.5c-4.1-9.5-0.7-18.6,3.3-25c-18.7,8.9-20.4,35.3-20.4,35.3c38.5,13.3,64.9-1.7,64.9-1.7
			s-0.3-2.3-1.1-5.8C481.7,576.8,455.7,581.2,450.2,568.5z"/>
		<path fill="#FFA039" d="M486.3,567.2c-3.5,5.4-17,7.9-25,2.6c-8-5.2-7.6-16.2-4.1-21.6c3.5-5.4,12.9-5.5,20.9-0.3
			C486.2,553.1,489.9,561.8,486.3,567.2z"/>
		<path fill="#FFA039" d="M456.3,586.1c0,0,15.3,2.3,26.1-1.4c10.8-3.7-1.2,13.8-13.1,11.8S449.4,585.4,456.3,586.1z"/>
	</g>
	<path fill="#F99300" d="M273.2,719.7c0,0,33.3,50.6,72.9,36.1c39.6-14.5,26.2-70.6,26.2-70.6s29.1,55.6-21,78.8
		C301.2,787.3,273.2,719.7,273.2,719.7z"/>
	<path fill="#F99300" d="M639.6,649.9c0,0-7.6,38.4,31.8,53.3c39.4,14.9,65.9-36.3,65.9-36.3s-14.3,61.1-67.4,46
		C616.9,697.7,639.6,649.9,639.6,649.9z"/>
	<g>
		<circle fill="#EFEFEF" cx="480.4" cy="296.3" r="21.5"/>
		<path fill="#DDDDDD" d="M483.5,309.6c-11.9,0-21.5-9.6-21.5-21.5c0-1.1,0.1-2.2,0.2-3.2c-2.1,3.3-3.3,7.2-3.3,11.4
			c0,11.9,9.6,21.5,21.5,21.5c10.8,0,19.7-8,21.3-18.3C497.9,305.6,491.2,309.6,483.5,309.6z"/>
		
			<ellipse transform="matrix(0.9656 0.2602 -0.2602 0.9656 92.404 -115.4556)" fill="#FFFFFF" cx="482.3" cy="291.3" rx="15.7" ry="12.7"/>
	</g>
	<g>
		<circle fill="#EFEFEF" cx="690.9" cy="328.1" r="21.5"/>
		<path fill="#DDDDDD" d="M693.9,341.4c-11.9,0-21.5-9.6-21.5-21.5c0-1.1,0.1-2.2,0.2-3.2c-2.1,3.3-3.3,7.2-3.3,11.4
			c0,11.9,9.6,21.5,21.5,21.5c10.8,0,19.7-8,21.3-18.3C708.4,337.4,701.6,341.4,693.9,341.4z"/>
		
			<ellipse transform="matrix(0.9656 0.2602 -0.2602 0.9656 107.9324 -169.1135)" fill="#FFFFFF" cx="692.8" cy="323.2" rx="15.7" ry="12.7"/>
	</g>
	<g>
		<circle fill="#EFEFEF" cx="512.6" cy="223" r="31"/>
		<path fill="#DDDDDD" d="M516.9,242.2c-17.1,0-31-13.9-31-31c0-1.6,0.1-3.1,0.3-4.6c-3,4.8-4.7,10.4-4.7,16.4c0,17.1,13.9,31,31,31
			c15.5,0,28.4-11.4,30.6-26.4C537.7,236.4,528,242.2,516.9,242.2z"/>
		
			<ellipse transform="matrix(0.9656 0.2602 -0.2602 0.9656 73.9106 -126.6283)" fill="#FFFFFF" cx="515.3" cy="215.9" rx="22.6" ry="18.2"/>
	</g>
	<g>
		<circle fill="#EFEFEF" cx="820.4" cy="291.3" r="31"/>
		<path fill="#DDDDDD" d="M824.8,310.5c-17.1,0-31-13.9-31-31c0-1.6,0.1-3.1,0.3-4.6c-3,4.8-4.7,10.4-4.7,16.4c0,17.1,13.9,31,31,31
			c15.5,0,28.4-11.4,30.6-26.4C845.6,304.7,835.9,310.5,824.8,310.5z"/>
		
			<ellipse transform="matrix(0.9656 0.2602 -0.2602 0.9656 102.2811 -204.366)" fill="#FFFFFF" cx="823.1" cy="284.2" rx="22.6" ry="18.2"/>
	</g>
	<g>
		<path fill="#DD0000" d="M620.4,145.5h-31.2c-0.4-6.5-0.1-12,1.1-16.4c1.2-4.4,2.8-8.1,4.7-11c2-2.9,4.2-5.3,6.7-7.1
			c2.5-1.8,4.9-3.4,7.3-4.7c2.4-1.3,4.5-2.6,6.3-3.8c1.8-1.2,3.1-2.8,3.7-4.6c0.4-1.1,0.6-2.4,0.4-3.8c-0.2-1.4-0.8-2.8-1.9-4.1
			c-1.1-1.3-2.7-2.4-4.8-3.3c-2.1-0.9-4.9-1.3-8.3-1.3c-2.2,0-4.8,0.2-7.9,0.6c-3,0.4-6.2,1-9.5,1.8s-6.6,1.8-9.8,3
			c-3.2,1.2-6.1,2.6-8.7,4.1l-4.1-36.2c2.3-1.4,4.8-2.8,7.7-4.2c2.9-1.4,6-2.7,9.5-3.9c3.4-1.1,7.2-2.1,11.3-2.8
			c4.1-0.7,8.4-1.1,13.1-1.1c7.6,0,14.7,1,21.4,3.1c6.7,2.1,12.6,5.2,17.7,9.2c5,4.1,9,9.1,12,15s4.4,12.7,4.4,20.4
			c0,5.8-0.8,10.5-2.5,14.1c-1.7,3.5-3.8,6.4-6.4,8.7c-2.6,2.3-5.5,4.2-8.7,5.7c-3.2,1.5-6.3,3.2-9.4,5c-3,1.8-5.8,4-8.4,6.7
			C623.7,137.4,621.7,141,620.4,145.5z"/>
		<g>
			<circle fill="#DD0000" cx="600.5" cy="181.9" r="19.3"/>
			<path fill="#C40000" d="M603.3,193.9c-10.6,0-19.3-8.6-19.3-19.3c0-1,0.1-1.9,0.2-2.9c-1.9,3-2.9,6.5-2.9,10.2
				c0,10.6,8.6,19.3,19.3,19.3c9.7,0,17.7-7.1,19.1-16.4C616.2,190.2,610.1,193.9,603.3,193.9z"/>
			
				<ellipse transform="matrix(0.9656 0.2602 -0.2602 0.9656 66.9125 -150.566)" fill="#FF2C2C" cx="602.2" cy="177.5" rx="14" ry="11.4"/>
		</g>
		<g>
			<path fill="#C40000" d="M601,128.5c-1-14.4,34.8-19.7,28.4-39.2c-6.5-19.4-44-8-49.5-18.3c-2.5-4.7-4.2-11.5-5.4-17.6
				c-0.8,0.4-1.6,0.7-2.3,1.1c-2.9,1.4-5.4,2.8-7.7,4.2l4.1,36.2c2.6-1.5,5.5-2.9,8.7-4.1c3.2-1.2,6.5-2.2,9.8-3
				c3.3-0.8,6.5-1.4,9.5-1.8c3-0.4,5.7-0.6,7.9-0.6c3.4,0,6.1,0.4,8.3,1.3c2.1,0.9,3.7,2,4.8,3.3c1.1,1.3,1.7,2.7,1.9,4.1
				c0.2,1.4,0.1,2.7-0.4,3.8c-0.7,1.8-1.9,3.4-3.7,4.6c-1.8,1.2-3.9,2.5-6.3,3.8c-2.4,1.3-4.8,2.9-7.3,4.7c-2.5,1.8-4.7,4.2-6.7,7.1
				c-2,2.9-3.6,6.6-4.7,11c-1.2,4.4-1.5,9.9-1.1,16.4h31.2c0.9-3.1,2.2-5.8,3.7-8C613,137.5,601.5,135.9,601,128.5z"/>
		</g>
		<path fill="#FF2C2C" d="M597.3,69.4c0,0,24.8,0.4,35.2,15.3c10.4,14.9-8.6,26.4-15.5,32.1c-6.9,5.7-6.5,10.4,0.7,11.8
			c7.3,1.4,36-16.7,36.2-36.8c0.2-20.1-18.4-37.3-45.4-39.2C581.6,50.7,587,68.1,597.3,69.4z"/>
	</g>
	<g>
		<path fill="#DD0000" d="M953.9,259.1l-30.3,7.2c-1.9-6.2-2.8-11.6-2.7-16.2c0.1-4.5,0.8-8.5,2.1-11.8c1.3-3.3,2.9-6.1,4.9-8.5
			c2-2.3,4-4.4,6-6.3c2-1.8,3.7-3.6,5.2-5.2c1.5-1.6,2.3-3.4,2.6-5.3c0.2-1.2,0-2.4-0.5-3.8c-0.5-1.4-1.4-2.5-2.8-3.6
			c-1.3-1-3.2-1.7-5.4-2.1c-2.3-0.4-5-0.2-8.3,0.6c-2.2,0.5-4.7,1.3-7.5,2.4c-2.9,1.1-5.8,2.4-8.9,4s-6,3.3-8.9,5.2
			c-2.9,1.9-5.4,3.9-7.5,6l-12.3-34.2c1.9-1.8,4.1-3.8,6.5-5.9c2.4-2.1,5.2-4,8.3-5.9c3.1-1.9,6.5-3.7,10.3-5.3
			c3.8-1.7,7.9-3,12.5-4.1c7.4-1.7,14.6-2.4,21.6-1.9s13.5,2.1,19.3,4.9c5.8,2.8,10.9,6.7,15.1,11.8c4.2,5.1,7.2,11.4,9,18.9
			c1.3,5.7,1.6,10.4,0.8,14.3c-0.8,3.8-2.2,7.1-4.2,9.9c-2,2.8-4.4,5.3-7.1,7.6c-2.8,2.2-5.4,4.6-8,7c-2.5,2.5-4.8,5.3-6.6,8.4
			S954.2,254.4,953.9,259.1z"/>
		<g>
			<circle fill="#DD0000" cx="943" cy="299.1" r="19.3"/>
			<path fill="#C40000" d="M948.4,310.1c-10.4,2.5-20.7-4-23.2-14.3c-0.2-0.9-0.4-1.9-0.5-2.8c-1.1,3.3-1.4,7-0.5,10.6
				c2.5,10.4,12.8,16.8,23.2,14.3c9.4-2.2,15.6-11,14.8-20.4C960.1,303.6,955.1,308.5,948.4,310.1z"/>
			
				<ellipse transform="matrix(0.9995 3.093717e-002 -3.093717e-002 0.9995 9.5589 -29.0519)" fill="#FF2C2C" cx="943.6" cy="294.4" rx="14" ry="11.4"/>
		</g>
		<g>
			<path fill="#C40000" d="M931.1,247c-4.3-13.8,29.4-27.2,18.6-44.6c-10.8-17.4-44.6,2.4-52.3-6.4c-3.5-4-6.8-10.3-9.3-15.9
				c-0.7,0.5-1.4,1.1-2,1.6c-2.4,2.1-4.6,4-6.5,5.9l12.3,34.2c2.2-2.1,4.7-4.1,7.5-6c2.9-1.9,5.8-3.7,8.9-5.2c3-1.6,6-2.9,8.9-4
				c2.9-1.1,5.4-1.9,7.5-2.4c3.3-0.8,6.1-1,8.3-0.6c2.3,0.4,4.1,1.1,5.4,2.1c1.3,1,2.3,2.2,2.8,3.6c0.5,1.4,0.7,2.6,0.5,3.8
				c-0.2,2-1.1,3.7-2.6,5.3c-1.5,1.6-3.2,3.3-5.2,5.2c-2,1.8-4,3.9-6,6.3c-2,2.3-3.6,5.2-4.9,8.5c-1.3,3.3-2,7.2-2.1,11.8
				c-0.1,4.5,0.8,9.9,2.7,16.2l30.3-7.2c0.2-3.3,0.8-6.2,1.8-8.7C944.9,253,933.3,254.1,931.1,247z"/>
		</g>
		<path fill="#FF2C2C" d="M914,190.3c0,0,24.2-5.4,37.8,6.8c13.5,12.1-2.3,27.7-7.7,34.8s-4,11.6,3.4,11.3s31.2-24.6,26.8-44.1
			c-4.4-19.6-26.5-32.1-53.2-27.7C894.4,175.8,903.7,191.5,914,190.3z"/>
	</g>
	<path fill="#FFA039" d="M445.9,949.8c0,0,29.8-4.5,31.5-2.8c1.7,1.7-8.4,14.3-17,14.4C451.9,961.4,438.2,950.9,445.9,949.8z"/>
	<path fill="#FFA039" d="M594.4,924c0,0,22.9-8.9,25.2-8.5c2.3,0.3-3.4,15.8-10.5,17.3C602,934.3,588.6,926.2,594.4,924z"/>
	<path fill="#FFDA3E" d="M653.5,647.7c0,0,65.2-5.4,74,0c8.7,5.4-8,42.7-39.2,40.9C657.1,686.7,643,648.4,653.5,647.7z"/>
	<path fill="#FFDA3E" d="M289.3,707.9c0.4-0.2,46.1-31.6,64.5-28.6c18.4,3,19.4,46.7-12.4,53.9C312.7,739.8,275.5,716.8,289.3,707.9
		z"/>
	<path fill="#E22C14" d="M128.8,491c-3,2.4-29.2,21.8-31.4,47.6c-2.2,25.8,24.4,47.4,29,45.8s-2-48.1,43.7-141.1
		s131.2-116.6,165.3-122.8c34.2-6.2,68.6,0.1,76.3-2.7c7.7-2.8,5.9-60.3-65.2-67.2c-71.1-7-101.9,72.5-103.3,81.1
		c-1.4,8.7-68.4,11.1-108.5,41.7s-2.8,85.8,0.4,95.4C138.3,478.3,135.1,486,128.8,491z"/>
</g>
</svg>
