<?xml version="1.0" encoding="utf-8"?>
<!-- Generator: Adobe Illustrator 17.1.0, SVG Export Plug-In . SVG Version: 6.00 Build 0)  -->
<!DOCTYPE svg PUBLIC "-//W3C//DTD SVG 1.1//EN" "http://www.w3.org/Graphics/SVG/1.1/DTD/svg11.dtd">
<svg version="1.1" id="Layer_1" xmlns="http://www.w3.org/2000/svg" xmlns:xlink="http://www.w3.org/1999/xlink" x="0px" y="0px"
	 width="693.7px" height="951.4px" viewBox="0 0 693.7 951.4" enable-background="new 0 0 693.7 951.4" xml:space="preserve">
<g>
	<path fill="#CD2606" d="M593,387.9c0,0-33-49.4-21.4-73.7c11.7-24.3,93.2-17.6,113.4,16.7C705.3,365.1,637.7,382.2,593,387.9z"/>
	<path fill="#BC1A04" d="M593,387.9c23-3,52.1-8.9,72.2-18.7c-6.6-1.4-14.8-2.6-22.8-2c-18,1.2-32,4.7-40,0
		c-7.9-4.7-19.5-19.6-20-40.7c-0.3-10.4,4.6-18.9,9.5-24.9c-9.8,2.2-17.3,6.4-20.3,12.6C560,338.6,593,387.9,593,387.9z"/>
	<path fill="#CD2606" d="M593,387.9c0,0-10.5-56.4-51.9-54.7C499.7,334.9,503.2,419.5,593,387.9z"/>
	<path fill="#BC1A04" d="M525,339.5c-22,19.3-7.5,75,68,48.5c0,0-0.6-3-1.9-7.6C533.9,396.4,516.3,361.7,525,339.5z"/>
	<g>
		<path fill="#FF8B00" d="M577.8,798c0,0,63.8,41,62.6,57.4c-1.1,16.4-43.1,15.2-57,11.5c-13.9-3.8-52.1-42.3-52.1-42.3L577.8,798z"
			/>
	</g>
	<path fill="#FF7300" d="M640.4,855.3c0.1-1.1-0.2-2.4-0.6-3.7c-9.3,3.9-21.2,8-28,6.8c-12.4-2.1-47.8-30.7-47.7-31.6
		c0,0-19.2-5.6-25.2-2.1c-1.8,1.1-2.7,2.6-2.9,4.5c10.6,10.4,36.5,34.7,47.4,37.7C597.3,870.6,639.2,871.7,640.4,855.3z"/>
	<g>
		<path fill="#FF8B00" d="M554,829c0,0,63.8,41,62.6,57.4c-1.1,16.4-43.1,15.2-57,11.5c-13.9-3.8-52.1-42.3-52.1-42.3L554,829z"/>
		<path fill="#FF7300" d="M561.2,887.4c-10.5-2.8-34.6-25.3-46-36.3l-7.8,4.4c0,0,38.2,38.5,52.1,42.3c13.9,3.8,55.9,4.9,57-11.5
			c0.1-1.4-0.3-2.9-1-4.6C606,891.9,573.2,890.6,561.2,887.4z"/>
		<path fill="#FFA039" d="M549.1,864.6c0,0,13.6-17.4,17.9-17.3c4.3,0.1,36.9,25.7,35.3,29.6c-1.6,3.9-24.1,5.9-34.7,3.7
			C556.9,878.4,546.5,867.9,549.1,864.6z"/>
	</g>
	<path fill="#FF8B00" d="M65.9,833c0,0-47.3,39.9-46.5,50.9c0.8,11,101.6,0,101.6,0L65.9,833z"/>
	<path fill="#FF7300" d="M77.1,887.6c2.5-3.7-2.4-5.7-2.4-5.7v-22.7c0,0-20.5,24.7-24.1,25.4c-3.6,0.7-22.8,0.4-25.2-2.7
		c-1-1.3-1.4-4.4-1.5-7.7c-2.9,4-4.7,7.3-4.5,9.6C19.9,889.9,49.9,889.4,77.1,887.6z"/>
	<path fill="#FF8B00" d="M84.2,854.4c-0.8,1-45.3,44.3-37.7,55.3c7.6,11,126.1-5.9,125.2-6.4C170.9,902.7,84.2,854.4,84.2,854.4z"/>
	<path fill="#FF7300" d="M54.1,899.9c-2.4-3.5,0.3-10.3,5.1-17.9c-8.9,11.2-16.1,22.7-12.6,27.7c7.6,11,126.1-5.9,125.2-6.4
		c-0.2-0.1-5-2.8-12.3-6.9C125.6,901,59.7,908.3,54.1,899.9z"/>
	<path fill="#FECE00" d="M11.1,582.3c0,0-72.3,264.8,152.6,332.9s377.6-25,429.4-118.4c51.7-93.5,50.1-352.2,0-408.8
		c0,0-107.6,15.6-188.9-14.8S148.6,326.5,11.1,582.3z"/>
	<path fill="#FFDA3E" d="M113.1,644.4c0,0,26.6,6.7,56-16.9c29.4-23.5,7.4-78.8,18.8-87.8c11.4-9,45.5-47,51.5-69
		c6.1-21.9,44.5-43.9,79.4-65c34.9-21.2,154.8,17.7,212.4,13.4s61.1,44.6,66.6,102.8c5.5,58.2-12.9,235.3-62.7,281.9
		c-49.8,46.6-96.4,3.5-145.8,11.8c-49.4,8.2-36.1,30.8-108.9,34.6c-72.9,3.8-140.7-38.5-168.5-104.3S93.5,643.2,113.1,644.4z"/>
	<path fill="#FCC000" d="M216.8,877.4C-8.1,809.2,64.2,544.5,64.2,544.5c37-68.8,76.7-117.9,116.4-152.4
		c-57,32.3-116.1,90.7-169.6,190.2c0,0-72.3,264.8,152.6,332.9c175.1,53.1,306.5,8.3,380.5-58.2
		C467.1,900.1,355.7,919.5,216.8,877.4z"/>
	<g>
		<path fill="#CD2606" d="M11.1,582.3c0,0,24.5-15.9,49,8.3c24.5,24.2,54.2,25.7,85.4,6.9c31.1-18.7,21.9-68.9,0-79
			c0,0,38.6-5.2,53.1-36.3c14.4-31.1,0-55.9,0-55.9s49,3.7,57.1-27.7c8.1-31.4-31.1-79.3-119.4-43.8C48,390.2-11.7,471.6,11.1,582.3
			z"/>
		<g>
			<path fill="#9B0D02" d="M163.6,513.3c-24.3-2.1-41.6-16.4-41.6-16.4c8.8,16,23.4,21.6,23.4,21.6S153.5,517.4,163.6,513.3z"/>
			<path fill="#9B0D02" d="M192.6,411.9c-0.8,7.6,5.9,14.3,5.9,14.3s5.1,0.4,12.3-0.1C196.9,420.5,192.6,411.9,192.6,411.9z"/>
		</g>
		<path fill="#BC1A04" d="M61.8,433.3c32.8-45.7,84.1-74.8,119.6-90.5c-13.3,1.4-28.3,5.1-45.2,11.9C48,390.2-11.7,471.6,11.1,582.3
			c0,0,24.5-15.9,49,8.3c24.5,24.2,54.2,25.7,85.4,6.9C45.3,587.4,8.1,508.2,61.8,433.3z"/>
		<path fill="#E22C14" d="M114.2,478.3c0,0,25.5,24.7,54.9,11.7c29.3-13,16.1-59,12.3-78.1c-3.8-19.1,28.1,3.3,48.7-3.5
			c20.6-6.9,7.5-55.6-40.5-55.6S67.7,436.5,55.9,472.2C44,507.8,65.5,554.8,96,570.9c30.5,16.1,60.9,2.1,52.5-18.5
			c-8.4-20.6-29.8-38.4-40.5-60.4C97.4,470.1,108.7,474,114.2,478.3z"/>
	</g>
	<g>
		<g>
			<path d="M159.6,796.8c0,0-0.1,0-0.1,0c-21.3-0.1-36.6-19-37.2-19.8c-2-2.5-1.5-6,0.9-8c2.5-1.9,6-1.6,8,0.9
				c0.1,0.2,12.6,15.5,28.4,15.5c0,0,0,0,0,0c9.1,0,18-5.2,26.2-15.5c2-2.5,5.6-2.8,8-0.9c2.5,2,2.8,5.6,0.9,8
				C184.2,790.1,172.4,796.8,159.6,796.8z"/>
		</g>
	</g>
	
		<ellipse transform="matrix(0.9938 -0.1109 0.1109 0.9938 -89.719 30.8186)" fill="#FF9999" cx="232.2" cy="821.8" rx="30.5" ry="27.4"/>
	<g>
		<path fill="#FECE00" d="M504.1,928.7c0,0-52.4-55.7-79-69.8c-26.6-14.1-66.8-15-82.3,29.4C327.3,932.5,374.2,981,504.1,928.7z"/>
		<path fill="#FFDA3E" d="M473.2,912.3c0,0-39.9-38.3-55.3-46.5c-15.4-8.2-38.8-8.7-47.8,17.1C361.1,908.6,397.7,942.7,473.2,912.3z
			"/>
		<path fill="#FCC000" d="M359.5,870.7c1.7-5,3.8-9.3,6.1-13.2c-9.4,5.9-17.5,15.7-22.7,30.7c-15.5,44.3,31.3,92.8,161.3,40.5
			c0,0-3.1-3.3-8.1-8.4C384.9,957.2,345,912.1,359.5,870.7z"/>
	</g>
	<path fill="#FFA039" d="M60.1,893.6c0,0,11.4-17.5,15.6-18.1c4.2-0.6,28.5,17.5,28.3,20.1C103.7,898.1,54.6,901.5,60.1,893.6z"/>
	<path fill="#FFA039" d="M30.7,872.3c0,0,17.4-19.1,20.2-19.4c2.7-0.3,14.1,8.3,13.8,10.4c-0.2,2.1-12.9,14.7-16,16.4
		C45.5,881.5,24.9,880.1,30.7,872.3z"/>
	<path fill="#FFA039" d="M580.2,828.5c0.2-0.4,7.7-12.8,10.8-13.7c3.1-0.9,39.7,27.8,38.8,31.6c-0.9,3.8-14.3,6.4-18.8,5.6
		C606.4,851,577.9,832,580.2,828.5z"/>
	<path fill="#E22C14" d="M578.6,371.2c0,0-12.7-30.9-37.9-30.1C515.4,342,531.2,389,578.6,371.2z"/>
	<path fill="#CD2606" d="M593,387.9c0,0,29.8-21.1,66.1-12.8c36.3,8.3,44.8,70.6,21.9,79.6c-22.9,8.9-33.8-7.1-42.4-24.4
		S615.4,389.8,593,387.9z"/>
	<path fill="#BC1A04" d="M665.2,444.6c-14.6-7.1-14.8-18.1-34-41.8c-6.7-8.2-14-18.3-17.8-24.7c-12.6,4.3-20.4,9.8-20.4,9.8
		c22.4,1.9,37,25,45.6,42.4c8.6,17.3,19.4,33.4,42.4,24.4c5.1-2,8.7-6.7,10.7-12.8C683.7,445.4,673.2,448.5,665.2,444.6z"/>
	<path fill="#E22C14" d="M629.3,382.8c0,0,25.4-4.9,40,5.4c14.6,10.3,18.4,37.6,14,46.4c-4.4,8.8-24-2.3-31.3-14.6
		C644.7,407.8,622.4,383.7,629.3,382.8z"/>
	<path fill="#E22C14" d="M593.8,331.3c0-0.6-0.8-17.6,8.2-22.2c9-4.6,62.2-0.8,77.6,24.1c6.6,10.7-7.3,20.7-11.8,23.4
		c-4.5,2.7-20.8,3.5-35.6,4.1S596.1,363.5,593.8,331.3z"/>
	<g>
		<path d="M372.4,47.6L309.5,111l50.6,9l-4.5,28.1l-86.9-9l1.6-38.5l71.4-59.9L283.7,39l5.2-39l86.7,12.5L372.4,47.6z"/>
		<path d="M404.2,141.5c-0.3,1.9-0.9,3.7-1.9,5.3c-1,1.6-2.2,2.9-3.6,4c-1.4,1.1-3,1.9-4.8,2.3c-1.8,0.5-3.6,0.6-5.5,0.3
			c-1.9-0.3-3.7-0.9-5.3-1.9c-1.6-1-2.9-2.2-4-3.6c-1.1-1.4-1.9-3-2.3-4.8c-0.5-1.8-0.6-3.6-0.3-5.6c0.3-1.9,0.9-3.6,1.9-5.3
			c1-1.6,2.2-3,3.6-4c1.4-1.1,3-1.9,4.8-2.4s3.6-0.6,5.6-0.3c1.9,0.3,3.6,0.9,5.2,1.9c1.6,1,2.9,2.2,4,3.6c1.1,1.4,1.9,3.1,2.4,4.9
			C404.4,137.8,404.5,139.7,404.2,141.5z"/>
		<path d="M454.4,148.8c-0.3,1.9-0.9,3.7-1.9,5.3c-1,1.6-2.2,2.9-3.6,4c-1.4,1.1-3,1.9-4.8,2.3c-1.8,0.5-3.6,0.6-5.5,0.3
			c-1.9-0.3-3.7-0.9-5.3-1.9c-1.6-1-2.9-2.2-4-3.6c-1.1-1.4-1.9-3-2.3-4.8c-0.5-1.8-0.6-3.6-0.3-5.6c0.3-1.9,0.9-3.6,1.9-5.3
			c1-1.6,2.2-3,3.6-4c1.4-1.1,3-1.9,4.8-2.4c1.8-0.5,3.6-0.6,5.6-0.3c1.9,0.3,3.6,0.9,5.2,1.9c1.6,1,2.9,2.2,4,3.6
			c1.1,1.4,1.9,3.1,2.4,4.9C454.5,145,454.6,146.9,454.4,148.8z"/>
		<path d="M505.9,156.2c-0.3,1.9-0.9,3.7-1.9,5.3c-1,1.6-2.2,2.9-3.6,4c-1.4,1.1-3,1.9-4.8,2.3s-3.6,0.6-5.5,0.3
			c-1.9-0.3-3.7-0.9-5.3-1.9c-1.6-1-2.9-2.2-4-3.6c-1.1-1.4-1.9-3-2.3-4.8c-0.5-1.8-0.6-3.6-0.3-5.6c0.3-1.9,0.9-3.6,1.9-5.3
			c1-1.6,2.2-3,3.6-4c1.4-1.1,3-1.9,4.8-2.4c1.8-0.5,3.6-0.6,5.6-0.3c1.9,0.3,3.6,0.9,5.2,1.9c1.6,1,2.9,2.2,4,3.6
			c1.1,1.4,1.9,3.1,2.4,4.9C506,152.4,506.1,154.3,505.9,156.2z"/>
	</g>
	<g>
		<path d="M143.6,144.4l-43,61.1l43,0.4l0.2,23.8L71,234.4l-4-32l50.6-59.4l-48.2,6.6l-1.1-32.9l73.3-1.8L143.6,144.4z"/>
		<path d="M183,217.5c0,1.6-0.2,3.2-0.8,4.6c-0.6,1.4-1.4,2.7-2.5,3.8c-1,1.1-2.3,2-3.7,2.6c-1.4,0.6-2.9,1-4.5,1
			c-1.6,0-3.2-0.2-4.6-0.8c-1.4-0.6-2.7-1.4-3.8-2.4c-1.1-1-2-2.3-2.6-3.7c-0.6-1.4-1-2.9-1-4.6c0-1.6,0.2-3.1,0.8-4.6
			c0.6-1.5,1.4-2.7,2.4-3.8c1-1.1,2.3-2,3.7-2.6c1.4-0.7,2.9-1,4.6-1.1c1.6,0,3.1,0.2,4.5,0.8c1.4,0.6,2.7,1.4,3.8,2.5
			c1.1,1,2,2.3,2.6,3.7C182.6,214.4,182.9,215.9,183,217.5z"/>
		<path d="M225.4,216.5c0,1.6-0.2,3.2-0.8,4.6c-0.6,1.4-1.4,2.7-2.5,3.8c-1,1.1-2.3,2-3.7,2.6c-1.4,0.6-2.9,1-4.5,1
			c-1.6,0-3.2-0.2-4.6-0.8c-1.4-0.6-2.7-1.4-3.8-2.4c-1.1-1-2-2.3-2.6-3.7c-0.6-1.4-1-2.9-1-4.6c0-1.6,0.2-3.1,0.8-4.6
			c0.6-1.5,1.4-2.7,2.4-3.8c1-1.1,2.3-2,3.7-2.6c1.4-0.7,2.9-1,4.6-1.1c1.6,0,3.1,0.2,4.5,0.8c1.4,0.6,2.7,1.4,3.8,2.5
			c1.1,1,2,2.3,2.6,3.7C225,213.3,225.3,214.9,225.4,216.5z"/>
		<path d="M268.9,215.4c0,1.6-0.2,3.2-0.8,4.6c-0.6,1.4-1.4,2.7-2.5,3.8c-1,1.1-2.3,2-3.7,2.6c-1.4,0.6-2.9,1-4.5,1
			c-1.6,0-3.2-0.2-4.6-0.8c-1.4-0.6-2.7-1.4-3.8-2.4c-1.1-1-2-2.3-2.6-3.7c-0.6-1.4-1-2.9-1-4.6c0-1.6,0.2-3.1,0.8-4.6
			c0.6-1.5,1.4-2.7,2.4-3.8c1-1.1,2.3-2,3.7-2.6c1.4-0.7,2.9-1,4.6-1.1c1.6,0,3.1,0.2,4.5,0.8c1.4,0.6,2.7,1.4,3.8,2.5
			s2,2.3,2.6,3.7C268.5,212.3,268.8,213.8,268.9,215.4z"/>
	</g>
	<g>
		<path d="M391.9,239.9L347,285.2l36.1,6.4l-3.2,20.1l-62-6.4l1.1-27.5l51-42.8l-41.5-1.3l3.7-27.8l61.9,8.9L391.9,239.9z"/>
		<path d="M414.6,307c-0.2,1.4-0.7,2.6-1.4,3.8c-0.7,1.1-1.6,2.1-2.6,2.8c-1,0.8-2.2,1.3-3.4,1.7c-1.3,0.3-2.6,0.4-3.9,0.2
			c-1.4-0.2-2.6-0.6-3.8-1.3c-1.1-0.7-2.1-1.5-2.8-2.6c-0.8-1-1.3-2.2-1.7-3.4c-0.3-1.3-0.4-2.6-0.2-4c0.2-1.4,0.6-2.6,1.3-3.8
			c0.7-1.2,1.6-2.1,2.6-2.9s2.2-1.3,3.4-1.7c1.3-0.4,2.6-0.4,4-0.2c1.4,0.2,2.6,0.6,3.7,1.4c1.1,0.7,2.1,1.6,2.8,2.6
			c0.8,1,1.3,2.2,1.7,3.5C414.7,304.3,414.8,305.6,414.6,307z"/>
		<path d="M450.4,312.1c-0.2,1.4-0.7,2.6-1.4,3.8c-0.7,1.1-1.6,2.1-2.6,2.8s-2.2,1.3-3.4,1.7c-1.3,0.3-2.6,0.4-3.9,0.2
			c-1.4-0.2-2.6-0.6-3.8-1.3c-1.1-0.7-2.1-1.5-2.8-2.6c-0.8-1-1.3-2.2-1.7-3.4c-0.3-1.3-0.4-2.6-0.2-4c0.2-1.4,0.6-2.6,1.3-3.8
			c0.7-1.2,1.6-2.1,2.6-2.9c1-0.8,2.2-1.3,3.4-1.7c1.3-0.4,2.6-0.4,4-0.2c1.4,0.2,2.6,0.6,3.7,1.4c1.1,0.7,2.1,1.6,2.8,2.6
			c0.8,1,1.3,2.2,1.7,3.5C450.5,309.4,450.6,310.8,450.4,312.1z"/>
		<path d="M487.2,317.4c-0.2,1.4-0.7,2.6-1.4,3.8c-0.7,1.1-1.6,2.1-2.6,2.8s-2.2,1.3-3.4,1.7c-1.3,0.3-2.6,0.4-3.9,0.2
			c-1.4-0.2-2.6-0.6-3.8-1.3c-1.1-0.7-2.1-1.5-2.8-2.6c-0.8-1-1.3-2.2-1.7-3.4c-0.3-1.3-0.4-2.6-0.2-4c0.2-1.4,0.6-2.6,1.3-3.8
			c0.7-1.2,1.6-2.1,2.6-2.9c1-0.8,2.2-1.3,3.4-1.7c1.3-0.4,2.6-0.4,4-0.2c1.4,0.2,2.6,0.6,3.7,1.4c1.1,0.7,2.1,1.6,2.8,2.6
			c0.8,1,1.3,2.2,1.7,3.5C487.3,314.7,487.4,316.1,487.2,317.4z"/>
	</g>
</g>
</svg>
