<?xml version="1.0" encoding="utf-8"?>
<!-- Generator: Adobe Illustrator 17.1.0, SVG Export Plug-In . SVG Version: 6.00 Build 0)  -->
<!DOCTYPE svg PUBLIC "-//W3C//DTD SVG 1.1//EN" "http://www.w3.org/Graphics/SVG/1.1/DTD/svg11.dtd">
<svg version="1.1" id="Layer_1" xmlns="http://www.w3.org/2000/svg" xmlns:xlink="http://www.w3.org/1999/xlink" x="0px" y="0px"
	 width="1101.5px" height="830.4px" viewBox="0 0 1101.5 830.4" enable-background="new 0 0 1101.5 830.4" xml:space="preserve">
<g>
	<g>
		<g>
			<path fill="#CD2606" d="M857.7,416.4c0,0,36.3-26,64.7-20.2c28.4,5.8,19.7,33.9-22.7,35.8C857.3,434,857.7,416.4,857.7,416.4z"/>
			<path fill="#BC1A04" d="M857.7,416.4c0,0-0.4,17.6,42,15.6c4.8-0.2,9.2-0.8,13.1-1.6c-8.6-4.6-19-11.1-19.4-16.6
				c-0.5-5.6,4.9-12.5,9.5-17.3C879.7,400.7,857.7,416.4,857.7,416.4z"/>
			<path fill="#CD2606" d="M816.2,427.5c0,0,79.9-6.1,85.6-43.7C905.2,361.1,833.4,372.4,816.2,427.5z"/>
			<path fill="#BC1A04" d="M816.2,427.5c0,0,0.7-0.1,1.9-0.2c20-45.9,79.3-56.6,82.6-39.1c0.5-1.4,0.9-2.9,1.1-4.4
				C905.2,361.1,833.4,372.4,816.2,427.5z"/>
			<path fill="#CD2606" d="M816.2,427.5c0,0,36.1-20.4,72.8-6.5C925.5,434.9,916.6,483.5,816.2,427.5z"/>
			<path fill="#BC1A04" d="M886.9,426.6c12.8,4.9,20,14,19.7,21.3c5.9-7.6-1.3-20.7-17.7-26.9c-36.6-13.9-72.8,6.5-72.8,6.5
				c1.6,0.9,3,1.6,4.6,2.5C832.8,424.9,859.7,416.3,886.9,426.6z"/>
			<path fill="#E22C14" d="M836.4,429.1c0,0,31.1-7.8,50.7,2.9C928.4,454.7,863.8,453.2,836.4,429.1z"/>
			<path fill="#E22C14" d="M831.4,416.2c0,0,49.6-6.9,60-24.5C901.8,374.1,851.5,385.4,831.4,416.2z"/>
			<path fill="#E22C14" d="M901.9,410.7c0,0,4.8-10.6,15.9-10.9c11-0.4,20.2,6.2,15,14.6C922,431.7,897.9,422.4,901.9,410.7z"/>
		</g>
		<path fill="#CD2606" d="M322.2,131.4c0,0-13.4-70.1,78.2-113.3c91.7-43.2,155.8-0.3,128.5,35c0,0,107.1-42,141.8,0.6
			c34.7,42.6-21.9,60.1-21.9,60.1s66.6-13.1,94.9,17.5s-21.6,56.6-21.6,56.6s42,12.9,38.5,50c-3.5,37-60.7,67.2-111.8,63.5
			C597.8,297.8,322.2,131.4,322.2,131.4z"/>
		<path fill="#BC1A04" d="M571.3,117.9c-103.9-64.4-215.4-27-190.6-64.1c13.7-20.5,49-39.7,78-52.9c-17.4,1.9-37.1,7.3-58.3,17.3
			c-91.7,43.2-78.2,113.3-78.2,113.3s275.6,166.4,326.7,170.1c24.9,1.8,51.2-4.5,72.1-15.7C686.6,255.4,659.1,172.2,571.3,117.9z"/>
		<path fill="#FECE00" d="M133.2,346c0,0-12.6-5.6-18.2-35.5c-4.5-24-66.5-8.8-68,60.1c-1.4,68.9,98.4,75,98.4,75L133.2,346z"/>
		<path fill="#FCC000" d="M59.2,356.4c0.4-18.8,5.4-33.5,12.4-44.6c-12.9,11.2-23.9,30.3-24.5,58.7c-1.4,68.9,98.4,75,98.4,75l-2-16
			C116.1,425,58.1,409,59.2,356.4z"/>
		<path fill="#FECE00" d="M816.2,427.5c0,0-74.2-14.6-130.2-150.9c-56-136.3-179.1-212.1-341.1-167.3
			c-162,44.8-241.3,210.8-238.3,347.5c3,136.7,170.9,278.1,402.3,265.6S834.3,483.5,816.2,427.5z"/>
		<path fill="#FFDA3E" d="M772,451c0,0-90.9-47.2-130.7-143.8c-39.7-96.6-138.6-181.3-253.5-149.5s-164,147-161.9,243.9
			c2.1,96.9,125.7,230.5,289.8,221.6C679.9,614.4,784.9,490.7,772,451z"/>
		<path fill="#FCC000" d="M580.7,675.7c-231.4,12.5-399.3-128.9-402.3-265.6c-2.2-98.2,38.2-211.5,121.1-284.2
			c-131.4,60.6-195.7,207.6-193,330.9c3,136.7,170.9,278.1,402.3,265.6c82.8-4.5,147.9-36.4,196.7-78
			C669.5,661.5,628,673.2,580.7,675.7z"/>
		<g>
			<path fill="#FECE00" d="M674.3,535.1c0,0-14.5-14.9-72.9-10.4c-48.7,3.8-56.2-84.1,7.4-89S683.7,476.7,674.3,535.1z"/>
			<path fill="#FFDA3E" d="M667.2,508.1c0,0-13.4-7.4-54.2-4.4c-34,2.5-39.2-54.4,5.2-57.5C662.6,442.9,668.9,474.8,667.2,508.1z"/>
			<path fill="#FCC000" d="M610.1,511.3c-32.8,0.6-44.6-39-29.4-65.4c-31.2,24.2-18.9,82,20.8,78.8c58.4-4.6,72.9,10.4,72.9,10.4
				c0.7-4.6,1.3-9,1.8-13.4C667.5,517.1,648.5,510.6,610.1,511.3z"/>
		</g>
		<g>
			<circle fill="#FFFFFF" cx="256.4" cy="232.4" r="36.6"/>
			<circle cx="256.4" cy="232.4" r="25.1"/>
		</g>
		<ellipse fill="#FF9999" cx="548.6" cy="389.4" rx="22.7" ry="19.2"/>
		
			<ellipse transform="matrix(0.9168 0.3994 -0.3994 0.9168 120.3847 -46.6612)" fill="#FF9999" cx="172.2" cy="265.6" rx="22.7" ry="19.2"/>
		<g>
			<path fill="#660000" d="M313.3,383.4c0,0,35.6-30.9,27.3-66.8c0,0,28.6,2,34.9,28.7C381.7,371.9,356.5,411.1,313.3,383.4z"/>
			<path fill="#540000" d="M334.4,367.4c13.4-21.5,16.2-39.5,16.6-48.4c-5.9-2.1-10.5-2.5-10.5-2.5c8.3,36-27.3,66.8-27.3,66.8
				c25.6,16.4,44.9,9.4,55-4.6C347.8,383.6,322.4,386.6,334.4,367.4z"/>
			<path fill="#FF8B00" d="M321.1,320.9c0,0,38.1-8.2,47.6,24.2c9.6,32.4-28.7,59.3-62.2,27.9c0,0-0.4,29.2,26.8,36.4
				c27.2,7.3,68.9-22,61.3-67.4C387.2,296.8,341.6,293.1,321.1,320.9z"/>
			<path fill="#FF7300" d="M333.4,409.5c26.3,7,65.8-20.1,61.8-62.7c-5.2,24.1-21.4,53.7-50.3,55.1c-38.1,1.9-38.3-28.8-38.3-28.8
				S306.1,402.3,333.4,409.5z"/>
			<path fill="#FFA039" d="M315.4,384.4c0,0,19.6,17.2,46,0.8c26.3-16.4,14-67.3-17.8-67.4c-31.8-0.1,16.2-20.2,32.1-2.1
				c15.9,18.1,15.7,45,2.6,61.3c-13.2,16.4-27.2,22.5-46.4,19.9C312.6,394.3,309.5,379.2,315.4,384.4z"/>
			<path fill="#770101" d="M340.8,367.9c0,0,11.2-17.1,13.4-28.1c2.2-11,9.6,4.9,10,14.9c0.4,9.9-5.3,17.3-16.3,21
				C337.1,379.3,338.2,372,340.8,367.9z"/>
		</g>
		<g>
			<g>
				<path d="M569.9,289.5c-0.5,0-1-0.1-1.5-0.2c-51.6-11.9-59.1-56.8-59.4-58.7c-0.6-3.7,2-7.1,5.6-7.7c3.7-0.6,7.1,1.9,7.7,5.6
					c0.3,1.6,6.6,37.8,49.1,47.6c3.6,0.8,5.9,4.5,5.1,8.1C575.7,287.3,573,289.5,569.9,289.5z"/>
			</g>
			<g>
				<path d="M261.2,170.1c-13.4,0-21.8-3.3-22.4-3.5c-3.5-1.4-5.1-5.3-3.7-8.8c1.4-3.4,5.3-5.1,8.8-3.7c1,0.4,24.3,9.2,56.3-7.9
					c3.3-1.8,7.4-0.5,9.1,2.8c1.7,3.3,0.5,7.4-2.8,9.1C288.8,167.5,273.1,170.1,261.2,170.1z"/>
			</g>
		</g>
		<g>
			<g>
				<path fill="#8A0000" d="M531,301.5c-1.1,0-2-0.9-2-2V147.1c0-1.1,0.9-2,2-2s2,0.9,2,2v152.4C533,300.6,532.1,301.5,531,301.5z"
					/>
			</g>
			<g>
				<path fill="#8A0000" d="M559.9,296.8c-1.1,0-2-0.9-2-2V181.4c0-1.1,0.9-2,2-2c1.1,0,2,0.9,2,2v113.4
					C561.9,295.9,561,296.8,559.9,296.8z"/>
			</g>
			<g>
				<path fill="#8A0000" d="M585.2,278.5c-1.1,0-2-0.9-2-2v-71.6c0-1.1,0.9-2,2-2s2,0.9,2,2v71.6
					C587.2,277.6,586.3,278.5,585.2,278.5z"/>
			</g>
			<g>
				<path fill="#8A0000" d="M603.5,321.4c-1.1,0-2-0.9-2-2V147.1c0-1.1,0.9-2,2-2s2,0.9,2,2v172.3
					C605.6,320.5,604.7,321.4,603.5,321.4z"/>
			</g>
			<g>
				<path fill="#8A0000" d="M632.8,307c-1.1,0-2-0.9-2-2c-0.1-99.6-0.1-150.5,0-151.3c0.2-1.1,1.3-1.8,2.4-1.6
					c1,0.2,1.7,1.2,1.6,2.2c-0.1,3.2-0.1,99.9,0,150.7C634.8,306.1,633.9,307,632.8,307L632.8,307z"/>
			</g>
			<g>
				<path fill="#8A0000" d="M659.3,284.8c-1.1,0-2-0.9-2-2V181.4c0-1.1,0.9-2,2-2c1.1,0,2,0.9,2,2v101.4
					C661.3,283.9,660.4,284.8,659.3,284.8z"/>
			</g>
		</g>
		<g>
			<path fill="#6EB8E5" d="M631.1,184c0,0,59.6,93.8,6.9,106.7C585.9,303.4,590.5,226.5,631.1,184z"/>
			<path fill="#7ECBF2" d="M630.4,201.6c0,0,34.4,52,9.4,62C615.1,273.4,613,228.3,630.4,201.6z"/>
			<path fill="#56ABD6" d="M647.4,276.5c-43.8,10.7-47.5-42-23.5-84.2c-33.8,43.4-34.8,110.3,14.1,98.3c11.9-2.9,18-9.9,20.5-19
				C655.5,273.8,651.9,275.5,647.4,276.5z"/>
		</g>
		<g>
			<circle fill="#FFFFFF" cx="497.6" cy="313.2" r="36.6"/>
			<circle cx="497.6" cy="313.2" r="25.1"/>
		</g>
		<path fill="#FFDA3E" d="M109.2,340.4c0,0-1.7-19.9-4.1-27.1c-2.3-7.2-32.1-1.5-36,28.3c-4,29.8,14.1,56.5,25.2,56.8
			C105.4,398.8,110,347.9,109.2,340.4z"/>
		<path fill="#E22C14" d="M520,60.4c0,0,2.1-31-13.3-43.6c-15.5-12.6-79.7,10.7-94.2,29.6s51.7,7.7,128.8,42.2
			c77.1,34.5,141.9,109.4,159.5,144.7c17.7,35.3,46.4,14.5,47.6-3.7c1.2-18.2-44.2-43.1-44.2-43.1s35.4-27.2,29.9-41.4
			c-5.4-14.2-74.1-27.5-100.1-24.2c0,0,43.6-40.9,25.3-60.2C632.7,32.6,520,60.4,520,60.4z"/>
		<g>
			<path d="M892.8,243.1H787.3c-1.9,0-3.4-1.5-3.4-3.4s1.5-3.4,3.4-3.4h105.5c1.9,0,3.4,1.5,3.4,3.4S894.7,243.1,892.8,243.1z"/>
		</g>
		<g>
			<path d="M1090.3,274.9H777.3c-1.9,0-3.4-1.5-3.4-3.4s1.5-3.4,3.4-3.4h312.9c1.9,0,3.4,1.5,3.4,3.4S1092.1,274.9,1090.3,274.9z"/>
		</g>
		<g>
			<path d="M1031.3,538.5H846.6c-1.9,0-3.4-1.5-3.4-3.4c0-1.9,1.5-3.4,3.4-3.4h184.7c1.9,0,3.4,1.5,3.4,3.4
				C1034.7,537,1033.2,538.5,1031.3,538.5z"/>
		</g>
		<g>
			<path d="M1098.2,573.8H821.7c-1.9,0-3.4-1.5-3.4-3.4c0-1.9,1.5-3.4,3.4-3.4h276.5c1.9,0,3.4,1.5,3.4,3.4
				C1101.5,572.3,1100,573.8,1098.2,573.8z"/>
		</g>
		<g>
			<path d="M957.2,630.3H757.9c-1.9,0-3.4-1.5-3.4-3.4c0-1.9,1.5-3.4,3.4-3.4h199.3c1.9,0,3.4,1.5,3.4,3.4
				C960.6,628.8,959.1,630.3,957.2,630.3z"/>
		</g>
		<g>
			<g>
				<path fill="#8A0000" d="M96.3,609.8c-0.6,0-1.3-0.2-1.9-0.6c-74.6-49.9-73-124.1-70.7-145.6l0.1-0.8c0.1-1.8,1.7-3.1,3.5-3.2
					c1.8,0.1,3.3,1.5,3.3,3.3c0,0.2,0,0.7-0.1,1.4c-2.2,20.6-3.8,91.5,67.7,139.3c1.6,1,2,3.1,0.9,4.7
					C98.4,609.2,97.3,609.8,96.3,609.8z"/>
			</g>
			<g>
				<path fill="#8A0000" d="M61.3,616.7c-0.7,0-1.5-0.2-2.1-0.7C-2.6,568-0.1,518,0,515.9c0.1-1.9,1.7-3.4,3.6-3.1
					c1.9,0.1,3.3,1.7,3.2,3.6c0,0.5-2.3,48.7,56.5,94.4c1.5,1.1,1.7,3.3,0.6,4.7C63.3,616.3,62.3,616.7,61.3,616.7z"/>
			</g>
			<g>
				<path fill="#8A0000" d="M782.6,710.7c-1.4,0-2.7-0.8-3.2-2.2c-0.7-1.7,0.2-3.7,2-4.4c0.4-0.1,39.3-14.9,63.2-33.3
					c1.5-1.1,3.6-0.9,4.7,0.6c1.1,1.5,0.9,3.6-0.6,4.7c-24.7,19.1-63.3,33.7-64.9,34.3C783.4,710.6,783,710.7,782.6,710.7z"/>
			</g>
			<g>
				<path fill="#8A0000" d="M784.7,739.5c-1.4,0-2.7-0.9-3.2-2.3c-0.6-1.8,0.3-3.7,2.1-4.3c0.7-0.3,72.8-25.3,97.7-51.3
					c1.3-1.3,3.4-1.4,4.8-0.1c1.3,1.3,1.4,3.4,0.1,4.8c-26.1,27.3-97.4,52-100.4,53C785.4,739.4,785,739.5,784.7,739.5z"/>
			</g>
		</g>
		<g>
			<circle fill="#FECE00" cx="350.6" cy="786.5" r="39.6"/>
			<path fill="#FCC000" d="M361.6,812.6c-21.9,0-39.6-17.7-39.6-39.6c0-6.3,1.5-12.3,4.2-17.6c-9.2,7.3-15.1,18.5-15.1,31.1
				c0,21.9,17.7,39.6,39.6,39.6c15.6,0,29-9,35.5-22C379.3,809.4,370.8,812.6,361.6,812.6z"/>
			
				<ellipse transform="matrix(0.6788 0.7343 -0.7343 0.6788 686.3651 -12.563)" fill="#FFDA3E" cx="357.5" cy="778.3" rx="27.5" ry="22.9"/>
		</g>
		<g>
			<circle fill="#FECE00" cx="236.2" cy="738.7" r="39.6"/>
			<path fill="#FCC000" d="M247.1,764.8c-21.9,0-39.6-17.7-39.6-39.6c0-6.3,1.5-12.3,4.2-17.6c-9.2,7.3-15.1,18.5-15.1,31.1
				c0,21.9,17.7,39.6,39.6,39.6c15.6,0,29-9,35.5-22C264.9,761.6,256.4,764.8,247.1,764.8z"/>
			
				<ellipse transform="matrix(0.6788 0.7343 -0.7343 0.6788 614.4966 56.118)" fill="#FFDA3E" cx="243.1" cy="730.5" rx="27.5" ry="22.9"/>
		</g>
		<g>
			<circle fill="#FECE00" cx="132.5" cy="668" r="39.6"/>
			<path fill="#FCC000" d="M143.5,694.1c-21.9,0-39.6-17.7-39.6-39.6c0-6.3,1.5-12.3,4.2-17.6c-9.2,7.3-15.1,18.5-15.1,31.1
				c0,21.9,17.7,39.6,39.6,39.6c15.6,0,29-9,35.5-22C161.2,690.9,152.7,694.1,143.5,694.1z"/>
			
				<ellipse transform="matrix(0.6788 0.7343 -0.7343 0.6788 529.2888 109.5295)" fill="#FFDA3E" cx="139.4" cy="659.8" rx="27.5" ry="22.9"/>
		</g>
		<g>
			<circle fill="#FECE00" cx="478.2" cy="790.7" r="39.6"/>
			<path fill="#FCC000" d="M489.2,816.9c-21.9,0-39.6-17.7-39.6-39.6c0-6.3,1.5-12.3,4.2-17.6c-9.2,7.3-15.1,18.5-15.1,31.1
				c0,21.9,17.7,39.6,39.6,39.6c15.6,0,29-9,35.5-22C507,813.6,498.5,816.9,489.2,816.9z"/>
			
				<ellipse transform="matrix(0.6788 0.7343 -0.7343 0.6788 730.4905 -104.9085)" fill="#FFDA3E" cx="485.2" cy="782.5" rx="27.5" ry="22.9"/>
		</g>
		<g>
			<circle fill="#FECE00" cx="597.6" cy="778.3" r="39.6"/>
			<path fill="#FCC000" d="M608.5,804.4c-21.9,0-39.6-17.7-39.6-39.6c0-6.3,1.5-12.3,4.2-17.6c-9.2,7.3-15.1,18.5-15.1,31.1
				c0,21.9,17.7,39.6,39.6,39.6c15.6,0,29-9,35.5-22C626.3,801.2,617.8,804.4,608.5,804.4z"/>
			
				<ellipse transform="matrix(0.6788 0.7343 -0.7343 0.6788 759.6713 -196.5479)" fill="#FFDA3E" cx="604.5" cy="770.1" rx="27.5" ry="22.9"/>
		</g>
		<g>
			<circle fill="#FECE00" cx="716.8" cy="735.9" r="39.6"/>
			<path fill="#FCC000" d="M727.8,762c-21.9,0-39.6-17.7-39.6-39.6c0-6.3,1.5-12.3,4.2-17.6c-9.2,7.3-15.1,18.5-15.1,31.1
				c0,21.9,17.7,39.6,39.6,39.6c15.6,0,29-9,35.5-22C745.5,758.8,737,762,727.8,762z"/>
			
				<ellipse transform="matrix(0.6788 0.7343 -0.7343 0.6788 766.8257 -297.7427)" fill="#FFDA3E" cx="723.8" cy="727.7" rx="27.5" ry="22.9"/>
		</g>
		<g>
			<path fill="#6EB8E5" d="M809,136.5c0,0,22.3-2.1,43.5,23.9c21.2,25.9,53.2-3.5,20.2-30.2C835.8,100.1,809,136.5,809,136.5z"/>
			<path fill="#56ABD6" d="M886.6,151.9c-4.6,8-15.9,10.8-34-4.3c-12.2-10.1-26.9-14.8-38.2-16.9c-3.5,3.2-5.4,5.8-5.4,5.8
				s22.3-2.1,43.5,23.9C867.7,179,888.4,169,886.6,151.9z"/>
			<path fill="#7ECBF2" d="M823.9,129.2c0,0,16.6,2.4,32.9,15.7c16.3,13.3,23.7,6,17.7-3.9C868.5,131.1,845.9,114.6,823.9,129.2z"/>
		</g>
		<g>
			<path fill="#6EB8E5" d="M256.6,72.7c0,0-12.7-14.5-47.9-14.3c-35.2,0.1-31.4-33-4.1-38.4S263.1,41.9,256.6,72.7z"/>
			<path fill="#56ABD6" d="M214.6,51.7c-23.5,0.1-29.6-14.6-22.9-26c-14.5,11.1-11.6,32.8,17,32.7c35.2-0.1,47.9,14.3,47.9,14.3
				c0.8-3.7,1-7.3,0.8-10.8C250.8,57.6,237.4,51.6,214.6,51.7z"/>
			<path fill="#7ECBF2" d="M249.4,51.3c0,0-16.6-6.7-37.4-7.3c-20.9-0.6-19.5-19.5,2-19.9C235.4,23.8,249.4,51.3,249.4,51.3z"/>
		</g>
		<g>
			<path fill="#6EB8E5" d="M193.8,147.1c0,0-16.6-9.8-50,1.1c-33.5,11-40-21.7-15.7-35.2S190.5,115.8,193.8,147.1z"/>
			<path fill="#56ABD6" d="M147.3,140c-22.3,7.3-32.6-4.8-29.8-17.7c-10.3,15-0.9,34.8,26.2,25.9c33.5-11,50-1.1,50-1.1
				c-0.4-3.7-1.3-7.2-2.6-10.5C183.6,134.5,169,132.9,147.3,140z"/>
			<path fill="#7ECBF2" d="M180.3,128.9c0,0-17.8-1.3-37.9,4.6c-20,5.9-24.6-12.5-4.2-19.5S180.3,128.9,180.3,128.9z"/>
		</g>
	</g>
</g>
</svg>
