<?xml version="1.0" encoding="utf-8"?>
<!-- Generator: Adobe Illustrator 17.1.0, SVG Export Plug-In . SVG Version: 6.00 Build 0)  -->
<!DOCTYPE svg PUBLIC "-//W3C//DTD SVG 1.1//EN" "http://www.w3.org/Graphics/SVG/1.1/DTD/svg11.dtd">
<svg version="1.1" id="Layer_1" xmlns="http://www.w3.org/2000/svg" xmlns:xlink="http://www.w3.org/1999/xlink" x="0px" y="0px"
	 width="1021.5px" height="1039.7px" viewBox="0 0 1021.5 1039.7" enable-background="new 0 0 1021.5 1039.7" xml:space="preserve">
<g>
	<g>
		<path fill="#DD0000" d="M677.9,773.3c-3,3-54.7,92.7-54.7,92.7l67.6-14l29.2,77.4l61.4-82.7l95.9,32.7L860.7,794L996,765.3
			l-69.7-39.6l95.2-33.8l-170.8-90.7L677.9,773.3z"/>
		<path fill="#C40000" d="M854.3,855.2c-6,2-66.6-20.4-73.9-19.5c-7.3,0.9-51,65.7-55.7,62.9S702.8,841.3,698,841
			c-4.8-0.4-39.6,5-40.5-3.2c-0.9-8.2,29.4-58.6,29.4-58.6s14.7-20.4,6.7-21.5l-15.7,15.6c-3,3-54.7,92.7-54.7,92.7l67.6-14
			l29.2,77.4l61.4-82.7l95.9,32.7L860.7,794L996,765.3c0,0-144,17-146,19.9C848.1,788,860.3,853.2,854.3,855.2z"/>
		<path fill="#FF2C2C" d="M692.8,785.5c0,0-14.6,34.6-12.1,40.1c2.5,5.4,37.9-4,41.3-1.6c3.4,2.5,2.2,41.3,8.4,44.1
			c6.2,2.8,39.5-44.9,48.2-44.4c8.7,0.5,62.8,18.3,65.9,16.8c3.1-1.6-18-61.7-11.8-65.9c6.2-4.2,116.8-14,119-16.9
			c2.2-3-55.8-36.2-50-41.8c5.7-5.6,81.1-22.8,78-29.5c-3.1-6.7-126.2-75.5-135.8-69.6S692.8,785.5,692.8,785.5z"/>
	</g>
	<polygon fill="#FF9D00" points="712,765.3 686.9,820.1 731.1,807.1 737.1,856.6 774.1,808 829.6,825 807,769.6 896.6,744 
		861.6,715 933,682 846.3,626.4 	"/>
	<path fill="#FF8B00" d="M811.5,809.1c-3.4-0.8-32-11.2-36.7-10.6c-4.7,0.6-24.6,31-27,30.1c-2.4-0.9-4.3-32.1-7-33.4
		c-2.7-1.4-23.4,6.1-27.2,2.1c-2.1-2.2,3.8-24.3,9.8-43.7L712,765.3l-25.1,54.8l44.1-13l6,49.5l37.1-48.6l55.5,17.1L807,769.6
		l89.6-25.6c0,0-94.5,16.2-96.9,19C797.3,765.7,814.9,809.9,811.5,809.1z"/>
	<g>
		<path fill="#DD0000" d="M138.6,154.7V12.1l103.1,82.3L304.6,0l44.1,126.5l108-43.8L432,225L235.3,409.2l-101.3,63.4
			c0,0,0-125.3,0.9-124.5c0.8,0.8-135-8.9-135-8.9l88.7-69.4L8.9,195L138.6,154.7z"/>
		<path fill="#C40000" d="M8.9,195l79.8,74.9L0,339.3c0,0,135.8,9.7,135,8.9c-0.8-0.8-0.9,124.5-0.9,124.5l82.4-51.6
			c0.4-2.6,0.7-4.3,0.7-4.3s-47.4,7.9-48.9,0c-1.5-7.9-1.9-63.4-5.5-72.9c-3.6-9.5-93.1-21.3-92.6-28.1c0.6-6.7,43.5-38.7,44.9-45.8
			c1.4-7.1-74.3-65.9-68.4-69.2c5.9-3.4,105.8-29.2,111.7-35.9c5.9-6.7-19.7-152.7-19.7-152.7v142.6L8.9,195z"/>
		<path fill="#FF2C2C" d="M178,154c0,0-16.5-80.3-13.3-89.3c3.2-9,70.7,52.4,80.3,53.2c9.6,0.8,47.3-75.5,53.7-75.5
			c6.4,0,34.6,98.4,42,103.7c7.4,5.3,82.2-31.9,86.7-29.8c4.5,2.1-21.3,46.8-24.5,53.7c-3.2,6.9-85.9,35.4-134.5,74.4
			c-48.7,39.1-71.5,147.8-77.6,151c-6.1,3.2-1.9-59.3-6.4-69.1c-4.5-9.8-76.8-10.4-83.5-16.5c-6.6-6.1,40.9-35.6,42.5-44.7
			c1.6-9-59.8-44.1-59-52.6s86.4-25.8,91.5-29.8C180.9,178.7,180.4,166,178,154z"/>
	</g>
	<polygon fill="#FF9D00" points="173,269.9 98.8,308.8 193.7,334.3 180.3,405 252.9,392.3 380.4,225.8 398.2,155.6 319.3,185.8 
		283.6,82.8 248.5,167.3 173,105.2 186.9,197.3 85.3,196.8 	"/>
	<path fill="#FF8B00" d="M98.8,308.8l94.9,25.5L180.3,405l72.6-12.8l127.5-166.4l12-47.5c-30.9,13.2-75.6,35.8-110.4,67.6
		c-58.9,53.9-75,120.8-79,118.4c-3.9-2.4,5.8-43.7,0-47.4c-5.8-3.6-53.2-8.5-53.7-15.8c-0.5-7.3,47.9-28,44.4-34.6
		c-3.5-6.7-108.4-69.7-108.4-69.7l87.8,73.1L98.8,308.8z"/>
	<g>
		<path fill="#FECE00" d="M191.5,488.9c0,0-47.3-36-69.4-27c-22.1,9-3.3,101.1,69.4,145.6C191.5,607.5,204.5,531.5,191.5,488.9z"/>
		<path fill="#FCC000" d="M125.8,460.8c-1.3,0.2-2.5,0.6-3.7,1.1c-22.1,9-3.3,101.1,69.4,145.6c0,0,1-5.9,2.2-15.3
			C137.9,552.9,117.6,485.5,125.8,460.8z"/>
		<path fill="#CD2606" d="M428.4,185.8c0,0-10.1-64,54.3-87.1S585,154.1,585,154.1s60.1-53.9,108.4-16.6
			c48.4,37.3,23.4,80.7,23.4,80.7s89,31.7,45.2,140.5C718.3,467.4,427.8,244,427.8,244L428.4,185.8z"/>
		<path fill="#BC1A04" d="M612.7,199.7c-97.3-21.6-141.4,17.9-157.1-13.9c-7.6-15.5-7.2-43.2-4.8-67.7
			c-28.6,28.1-22.3,67.7-22.3,67.7l-0.6,58.3c0,0,185.8,142.8,282.6,144.4l19.4-2c14.7-3.6,26-12.4,32.2-27.9
			c5.9-14.6,9.4-27.9,11-39.9C741.3,279.7,679.7,214.5,612.7,199.7z"/>
		<g>
			<path fill="#CD2606" d="M877.2,587.8c0,0,23.8,8.6,60.7,5.9c37-2.8,69.4-30.4,54.2-51.6C964.8,504.1,887.2,555.9,877.2,587.8z"/>
			<path fill="#BC1A04" d="M919.6,562.9c4.4-6.5,14.7-20.2,22.2-30c-28.9,10-58.6,35.9-64.5,54.9c0,0,23.8,8.6,60.7,5.9
				c5.9-0.4,11.7-1.5,17.2-3.1C940.9,574.6,912.3,573.8,919.6,562.9z"/>
			<path fill="#CD2606" d="M877.2,587.8c0,0,82.4-55.5,52-82.5C898.8,478.3,845.2,521.1,877.2,587.8z"/>
			<path fill="#BC1A04" d="M915.2,497.9c-29.9-6.9-65.4,32.7-38,89.9c0,0,3.4-2.3,8.7-6.2C867.1,535.1,890.1,501.6,915.2,497.9z"/>
			<path fill="#E22C14" d="M891.5,565.8c0,0,48.2-29.3,33.9-52.1C917.7,501.4,881.4,523.6,891.5,565.8z"/>
			<path fill="#CD2606" d="M877.2,587.8c0,0,23.3-14.4,52.6-8.2s36.1,58.1,10.1,61.1C913.8,643.8,883.9,605.3,877.2,587.8z"/>
			<path fill="#BC1A04" d="M947.7,637.8c-23.8-2-51.4-27.1-52.1-42.9c-0.3-7,3.2-12.2,7.7-15.9c-15.6,2.4-26,8.8-26,8.8
				c6.6,17.5,36.6,56,62.6,52.9C942.9,640.4,945.5,639.4,947.7,637.8z"/>
			<path fill="#E22C14" d="M906.1,590.1c0,0,15.1-8.4,27.5-2.7c12.5,5.7,19,30.5,12,37.9C938.6,632.7,894.7,599.8,906.1,590.1z"/>
			<path fill="#E22C14" d="M933.2,561.7c0,0,6.2-20.4,33-23.3c16.5-1.8,23.3,17,18.5,24.3c-4.8,7.3-22.6,15.1-28.9,15
				C949.4,577.4,931,570.2,933.2,561.7z"/>
		</g>
		<path fill="#FECE00" d="M428.4,185.8c0,0,6.4,37.1,23.6,36.6c17.2-0.5,138.8-59.6,250.7,48.8S822.3,498,822.3,498
			s17.8,57.6,61.4,81.1c0,0,0.2,224.8-342.3,240.3C198.9,834.9,155.5,589,178,489.7C199.5,394.8,262.7,209.2,428.4,185.8z"/>
		<path fill="#FCC000" d="M762.1,524.7c0,0,56.9-19.2,67.5,4.2l-1.2-25.9C828.4,502.9,818.7,495.4,762.1,524.7z"/>
		<path fill="#FFDA3E" d="M348.8,313.9c3.2-2.4,162.6-106.6,290.3-25.2s62.6,193.3,78.9,261.6c16.3,68.3,96.1,68.1,93.5,103.9
			c-2.6,35.8-306.9,112.3-447.6,1.7C233.6,553.4,273,370.8,348.8,313.9z"/>
		<path fill="#FCC000" d="M428.4,185.8c-165.7,23.5-228.9,209-250.4,303.9c-22.6,99.3,20.9,345.2,363.4,329.7
			c165.4-7.5,250.8-63.8,295-120C640.1,794,271.8,777.7,242,554.5C205.9,283.9,428.4,185.8,428.4,185.8z"/>
		<path d="M385.5,376.9c-2.5-2.8-6.7-3.1-9.5-0.6l-26.6,23.4L326,373.1c-2.5-2.8-6.7-3.1-9.5-0.6c-1.5,1.3-2.3,3.2-2.3,5.1
			c0,1.6,0.6,3.2,1.7,4.5l23.4,26.6L312.6,432c-2.8,2.5-3.1,6.7-0.6,9.5c1.3,1.5,3.2,2.3,5.1,2.3c1.6,0,3.2-0.6,4.5-1.7l26.6-23.4
			l23.4,26.6c2.5,2.8,6.7,3.1,9.5,0.6c2.8-2.5,3.1-6.7,0.6-9.5l-23.4-26.6l26.6-23.4C387.7,384,388,379.7,385.5,376.9z"/>
		<path d="M675.8,373.3c-2.5-2.8-6.7-3.1-9.5-0.6L639.7,396l-23.4-26.6c-2.5-2.8-6.7-3.1-9.5-0.6c-1.5,1.3-2.3,3.2-2.3,5.1
			c0,1.6,0.6,3.2,1.7,4.5l23.4,26.6l-26.6,23.4c-2.8,2.5-3.1,6.7-0.6,9.5c1.3,1.5,3.2,2.3,5.1,2.3c1.6,0,3.2-0.6,4.5-1.7l26.6-23.4
			l23.4,26.6c2.5,2.8,6.7,3.1,9.5,0.6c2.8-2.5,3.1-6.7,0.6-9.5l-23.4-26.6l26.6-23.4C678,380.4,678.3,376.1,675.8,373.3z"/>
		<ellipse fill="#FF9999" cx="273" cy="461.9" rx="25.1" ry="20.1"/>
		<ellipse fill="#FF9999" cx="712" cy="461.9" rx="25.1" ry="20.1"/>
		<g>
			<path fill="#660000" d="M456.8,488.2c0,0-2.2-41.7,17.5-52.6c19.6-10.9,59.3,18.9,62.9,28.4c3.6,9.4-9.8,44.2-9.8,44.2
				l-32.5,16.6c0,0-16.3,2.4-19.9-1.1C471.3,520.2,456.8,488.2,456.8,488.2z"/>
			<path fill="#540000" d="M537.1,464c-0.3-0.8-0.9-1.7-1.6-2.8c0.4,2.1,0.7,4.3,0.7,6.6c0,19.1-16.2,34.5-36.1,34.5
				c-20,0-36.1-15.4-36.1-34.5c0-16.4,12-30.1,28-33.6c-6.5-1.4-12.7-1.2-17.6,1.5c-19.6,10.9-17.5,52.6-17.5,52.6
				s14.5,32,18.1,35.5c3.6,3.5,19.9,1.1,19.9,1.1l32.5-16.6C527.3,508.2,540.7,473.4,537.1,464z"/>
			<path fill="#FF8B00" d="M458.4,467.9c-0.7,0.4,2.9,43.7,35.8,44.6c32.9,0.9,37.6-49.8,37.6-49.8s10.9,13.8,9.4,39.3
				c-1.5,25.5-23.6,54.9-70.4,39.1c-40.7-13.8-13.9-78.4-13.9-78.4L458.4,467.9z"/>
			<g>
				<path fill="#FF7300" d="M476.1,534.7c-29.9-10.1-23.3-47.8-17.7-67l-1.4-5c0,0-26.8,64.7,13.9,78.4
					c31.4,10.7,51.7,0.8,62.1-14.5C521.6,538,502.9,543.8,476.1,534.7z"/>
			</g>
			<path fill="#FF8B00" d="M462.2,471.3c0,0,11.6-19.8,35-18.5c23.4,1.3,28,26.2,39.2,26.2c11.2,0,4.7-61.6-41.8-59.7
				C448.2,421.1,443.7,496.6,462.2,471.3z"/>
			<path fill="#FF7300" d="M530.6,470.5c-4.7-3.9-16.8-22.9-36.7-21.4c-20,1.5-26.2,12.8-33.4,15.1c-3.2,1-6,0.2-8.1-1
				c-1.6,11.8,2.1,18.6,9.8,8.1c0,0,11.6-19.8,35-18.5c23.4,1.3,28,26.2,39.2,26.2c2.1,0,3.6-2.1,4.3-5.6
				C537.5,474,533.9,473.2,530.6,470.5z"/>
			<path fill="#FFA039" d="M461.8,452.1c0,0,6-20.9,26.9-26.6c20.9-5.7,44.4,17.7,48.2,34.6c3.8,16.9-13.7-12.7-34.2-15.5
				c-20.4-2.8-38.9,12.5-40.9,13.8C459.9,459.8,460.7,455.3,461.8,452.1z"/>
			<path fill="#FFA039" d="M460.6,493.2c0,0,11.3,29.7,39.1,25.7c27.8-4,28.5-31.7,34.2-32c5.7-0.3,6.5,39.6-19.8,46.1
				c-26.3,6.5-47.7-6.4-53.5-19C454.9,501.4,456.1,484.8,460.6,493.2z"/>
			
				<ellipse transform="matrix(0.9875 0.1578 -0.1578 0.9875 81.4863 -72.4411)" fill="#770101" cx="496.9" cy="476.9" rx="24.8" ry="17.4"/>
		</g>
		<g>
			<path fill="#FF8B00" d="M280.9,616.6c0,0,27.4-19.9,50.9-0.9c23.6,19,12.4,78.1-11.9,84.8S243.6,645.1,280.9,616.6z"/>
			<path fill="#FFA039" d="M301.8,625.9c0,0,12.3-9.7,27.8,5c15.4,14.7,3.9,55.1-9.5,58C308.2,691.5,274,643.7,301.8,625.9z"/>
			<path fill="#FF7300" d="M293.9,619.8c0,0,13.7-10,30.1-9.1c-21.4-9.9-43.1,5.8-43.1,5.8c-36,27.5,11.1,86,36.3,84.3
				C292.3,688.4,263.5,643.1,293.9,619.8z"/>
		</g>
		<g>
			<path fill="#FF8B00" d="M693.5,633.6c0,0,32.5-9.3,48.1,16.6c15.6,25.9-15.2,77.6-40.3,75.5C676.1,723.5,648.6,647.5,693.5,633.6
				z"/>
			<path fill="#FFA039" d="M709.9,649.5c0,0,14.9-4.8,24.3,14.3c9.4,19.1-15.3,53.1-28.8,51.2C693.4,713.3,677.7,656.6,709.9,649.5z
				"/>
			<path fill="#FF7300" d="M704.6,641.1c0,0,16.3-4.7,31.4,1.8c-16.7-16.7-42.4-9.3-42.4-9.3c-43.2,13.4-19.2,84.6,5.1,91.6
				C679.5,704.9,668.1,652.4,704.6,641.1z"/>
		</g>
		<path fill="#F99300" d="M762.1,524.7c0,0,49.5-24,62.5-9.2c13,14.8-29.7,78.3-29.7,78.3s50.7-47.5,44.3-87.7
			C834.8,479.2,762.1,524.7,762.1,524.7z"/>
		<path fill="#FFDA3E" d="M764.8,536.2c0,0,29.5-16,43.3-7.3c13.8,8.7-11.7,54.8-21.7,58.6C776.5,591.2,748.7,548.2,764.8,536.2z"/>
		<path fill="#E22C14" d="M581.4,165.3c0,0-48.1-63.8-86.4-53.7c-38.3,10.1-24.5,61.3-19.6,67.5c4.9,6.2,85.1-6.9,166.5,21.9
			c81.4,28.9,116.3,89.7,121.6,89.1c5.2-0.5-19.2-51.8-55-69.9c0,0,14.4-54.4-30.1-74.6C633.9,125.4,581.4,165.3,581.4,165.3z"/>
		<path fill="#FFDA3E" d="M165,487.1c0,0-17-18.4-30.9-14.4c-13.8,4,14,59,24.8,68.6C169.7,551,170.4,492.2,165,487.1z"/>
	</g>
	<path fill="#FFB243" d="M262.2,180.1c0,0,14.2-46.9,17.7-49c3.5-2.1,22.2,67.9,27.4,68.4c5.2,0.5,45-16.2,49.3-16.5
		c4.4-0.3-58.5,35.2-84.2,54.2c-25.6,19-54.8,79.3-56.7,81.6c-1.9,2.3,5.3-20,0-21.9c-5.3-1.9-38.5-5.3-38.4-7.7
		c0.2-2.4,40.1-23.4,42.9-29.3c2.7-6-75-43.9-73.8-47.7c1.1-3.9,51.8,2.4,57.4,0c5.6-2.4-8.9-64.2-4.8-66.7
		C203,142.7,258.3,199.7,262.2,180.1z"/>
	<path fill="#FFB243" d="M742.1,781.4c0,0,37.2-16.1,72.8-48.9c35.6-32.8,53.9-70.6,58.7-71.5s38.6,16.8,37.2,20.9
		c-1.4,4.1-59.7,27.2-61.3,31.5c-1.7,4.3,24.6,22.6,21.1,26.1c-3.5,3.5-73,17.7-76.2,21.3c-3.1,3.6,6.8,27.9,3.9,31.5
		c-2.9,3.5-22.6-4.3-26.5-2.3c-3.9,1.9-16.2,22.4-18.5,22.4c-2.2,0,0.9-24.7-3.6-24.7c-4.5,0-20.7,3.9-22.9,2.6
		C724.5,789,736.1,784.3,742.1,781.4z"/>
	<g>
		<polygon fill="#DD0000" points="433.5,903.7 477.1,836.8 486.3,905.9 572.3,884.6 509.8,939.1 550.5,984.8 495.6,984.8 
			494.7,1039.7 452.8,1001.1 403.7,1039.7 408.3,978.9 346.7,960 401.6,935.3 381.5,890.4 		"/>
		<path fill="#FF2C2C" d="M451.6,915c0,0,19.9-52.9,21.8-53.1c1.9-0.2,7.1,49.2,9.2,50.8c2.1,1.5,58.3-17,60.7-15.8
			c2.3,1.2-40.2,40.4-41,44c-0.8,3.5,35.6,32.5,33.3,34.9c-2.3,2.4-43.7,1.6-45.2,2.3c-1.4,0.7-1,36.9-3.1,38.3
			c-2.1,1.4-29.3-30-31.9-30.2c-2.6-0.3-29.1,20.1-31.7,19.4c-2.6-0.6,1.7-29.7,0-34.2s-33.4-14.8-33.3-16.6
			c0.1-1.8,27.8-11.6,28.3-15.6c0.5-4.1-9.8-25-8.5-25.9C411.6,912.2,449.7,920.2,451.6,915z"/>
		<path fill="#C40000" d="M453.8,993.8c-5.6-1-36.4,26.4-38.1,22.9c-1.8-3.5,0.7-39.6-1.1-42.5c-1.8-2.9-36.8-12-37.9-16.6
			c-1.1-4.6,32.8-16.9,34.6-19.3c1.8-2.4-15-30.7-10.9-32.3c4.1-1.6,33.6,9,39.2,6.7c5.6-2.3,37.4-75.8,37.4-75.8l-43.6,66.9
			l-52-13.3l20.1,44.9L346.7,960l61.6,18.9l-4.6,60.8l49.1-38.6l41.9,38.6C494.7,1039.7,459.4,994.7,453.8,993.8z"/>
		<polygon fill="#FF9D00" points="426.4,939.5 416.3,916.9 439,921.9 459.9,890.4 463.3,927.3 504.7,912.7 479.6,942.4 514.9,972.2 
			476.7,965.5 481.7,1001.1 458.7,977.2 426.8,999 435.2,965.1 401.6,955.4 		"/>
		<path fill="#FF8B00" d="M439,921.9l-22.6-5l10.1,22.6l-24.7,15.9l33.5,9.6l-8.4,34l31.9-21.8l23.1,23.9l-2.1-15.1
			c-8.1-5.2-20.4-14.8-21.4-15.2c-1.3-0.6-20.5,14-21.4,11.4c-0.9-2.6,3.8-19.9,2.1-21.9c-1.7-1.9-21.2-6.3-20.1-9.3
			c1.1-3.1,10.8-6.7,13-9.8c2.2-3.1-6.4-14.5-4.3-16C429.6,923.9,439,921.9,439,921.9z"/>
		<path fill="#FFB243" d="M444.1,923.8c0,0,9.6-17.3,11.3-17.9c1.7-0.6,4,25.5,5.9,26.4c1.9,0.8,26.6-11.1,27.9-10
			c1.3,1.1-15.8,19.1-15.9,20.7c-0.1,1.5,25.7,18.7,24.5,21c-1.2,2.2-25.2-4.5-26.1-3.4c-0.8,1.1,2.9,14.4,2.2,15.1
			c-0.7,0.7-11.8-11.8-13.6-11.7c-1.8,0.1-16.4,12.6-17.6,11.8c-1.2-0.8,5.6-19.5,4-20.4c-1.6-0.9-17.4-2.5-16.8-5.1
			c0.5-2.5,8.6-6.9,8.8-8.5c0.2-1.6-6.5-15.1-4.5-16C436.2,924.8,442.9,925.9,444.1,923.8z"/>
	</g>
</g>
</svg>
