<?xml version="1.0" encoding="utf-8"?>
<!-- Generator: Adobe Illustrator 17.1.0, SVG Export Plug-In . SVG Version: 6.00 Build 0)  -->
<!DOCTYPE svg PUBLIC "-//W3C//DTD SVG 1.1//EN" "http://www.w3.org/Graphics/SVG/1.1/DTD/svg11.dtd">
<svg version="1.1" id="Layer_1" xmlns="http://www.w3.org/2000/svg" xmlns:xlink="http://www.w3.org/1999/xlink" x="0px" y="0px"
	 width="888px" height="931.8px" viewBox="0 0 888 931.8" enable-background="new 0 0 888 931.8" xml:space="preserve">
<g>
	<g>
		<path fill="#FF7900" d="M101.7,522.3c0,0-20.3-107.8,79.1-215.6c0,0-6.1,55.9,26,102.3c0,0,12.3-151.4,105.6-212.4
			C405.6,135.6,466.7,71.7,484.7,0c0,0,32.2,43.5,29.4,115.3c0,0,21.4-57.1,50-85.9c0,0-0.8,163.4,118.9,233.4
			c0,0-9.6-38.2,6.2-71.7c0,0,40,90.3,99.7,168.2c59.6,78,55.1,163.8,43.8,187.6l45.2-33.9c0,0,45.8,109.4-58.4,230.7
			c0,0,29.6-7.1,48.3-27.9c0,0-21.7,126.1-136.8,167.9c-115.2,41.8-211.6,14.7-307.5,4.5c-95.8-10.2-155.8,39.1-247.3-11.8
			C84.7,825.4,76.3,689.1,0,676.7c0,0,26.6-22.7,79.1,0c0,0-50.3-100.7-23.7-205.1C55.4,471.7,69.5,508.5,101.7,522.3z"/>
		<path fill="#FF4E00" d="M312.4,196.6C219.1,257.6,206.8,409,206.8,409c-32.2-46.4-26-102.3-26-102.3
			c-99.4,107.8-79.1,215.6-79.1,215.6c-32.2-13.8-46.3-50.7-46.3-50.7C28.8,576.1,79.1,676.7,79.1,676.7c-52.5-22.7-79.1,0-79.1,0
			c76.3,12.3,84.7,148.7,176.2,199.6c78.6,43.7,133.9,13.5,208.7,10.6l12.6-41.8c0,0-124.9,54.6-202.2,13.3
			C117.9,817.1,84,695.7,84,695.7c13.4-5.9,29.7,0,29.7,0C74.3,623.7,75,534.8,75,534.8c24.3,39.9,62.4,30.2,62.4,30.2
			c-26.7-92.9,30.2-179.8,30.2-179.8c14.6,44.3,59.4,41.6,59.4,41.6c1.1-63.1,47.9-167.2,158.5-249.6S484.7,0,484.7,0
			C466.7,71.7,405.6,135.6,312.4,196.6z"/>
		<path fill="#FF8F33" d="M247.7,443.5c0,0,1.5-97.9,78.5-178.4C403,184.5,473.4,150.2,485.1,78.6c0,0,20.5,34,19.7,71.3
			c0,0,23-37.7,47.6-57.6c0,0,26.9,157.1,148.2,207.8c0,0-0.2-24.7,0-43.2c0,0,38.7,83.9,88.4,155c49.7,71.1,19.3,164.6,19.3,164.6
			s37.3-9.3,54.4-26.1c0,0-21.4,146.9-83.6,204.8c0,0,26.1,5.7,50.8,4.4c0,0-66.3,139.8-261.5,120.1
			c-195.2-19.7-233.3-45.4-233.3-45.4s-108.7,25-162.7-23.3c-54.1-48.4-58.2-103.6-58.2-103.6s22.5-7.1,34.3,0.7
			c0,0-44.2-92.3-47.3-123.5c0,0,43.8-1.5,57.4-12c0,0-4.2-92.5,9-136.8C167.6,436,215.8,459.3,247.7,443.5z"/>
		<g>
			<path fill="#FF7900" d="M454.5,171.9c0,0,28,43.3,17,80.8c0,0,43.6-31.3,63.8-62.5c0,0,15,28.7,26.7,80.8
				c11.7,52.1,92.4,156.9,128.9,173.2c0,0,34.9-32.6,29.8-78.1c0,0,43.7,69.1,8,189.7c0,0,29.5-14.6,41.8-33.5
				c0,0,10.4,92.5-82.1,233.1c0,0,43.2,9.2,82.1-7.8c0,0,24,97.8-242.3,122.5c-266.3,24.7-399.7-127.7-399.7-127.7
				s65.6-1.2,98.8-26.6c0,0-86.2-119.3-34.6-242.7c0,0,27.5,78.8,76.3,112.2c48.8,33.4,33.6-102.4,33.6-102.4s-52.6-77.2-22.9-131.2
				S423.9,222.7,454.5,171.9z"/>
			<g>
				<path fill="#FF4E00" d="M277.3,743.6c0,0-9.1-17.6-57.9-93.1c-48.8-75.5-26.8-177.5-26.8-177.5
					c-51.6,123.4,34.6,242.7,34.6,242.7c-0.7,0.5-1.4,1.1-2.1,1.6L277.3,743.6z"/>
				<path fill="#FF4E00" d="M690.9,444.1c-21.6-9.7-58.9-50.5-88-93L562,491c0,0,18.8,189.5,18.8,192.4
					c-0.1,2.9-74.8,82.4-200.6,108.6s-251.7-49.6-251.7-49.6s133.4,152.4,399.7,127.7c59-5.5,103.7-14.5,137.6-25.3
					c38.3-33,66.6-67.9,83-90.3c-31.7,6.9-60.4,0.8-60.4,0.8C722.1,704,742.2,659,754,622.7c-42.2-33-85.3-99.3-56.1-151
					c37.7-66.6,22.7-105.7,22.7-105.7C725.7,411.5,690.9,444.1,690.9,444.1z"/>
				<path fill="#FF4E00" d="M352.3,616.5L363,507.9c0,0-104.6-119.2-36.2-186.2c48.1-47.2,91.8-102.2,113.4-130.6
					c-42.5,49.2-134.5,113-160.6,160.5c-29.7,54.1,22.9,131.2,22.9,131.2s4.6,41,0.7,72.4C329.9,588.4,352.3,616.5,352.3,616.5z"/>
			</g>
			<path fill="#FF8F33" d="M729,399.9c0,0,8.6,60.3,0,109.2c-8.6,48.9-2.9,54.6,1.9,55.3c4.8,0.6,27.4-18.4,30-16.8
				c2.7,1.6-7,44.6-13.1,48.3c-6.1,3.7-36.6-31.5-45.4-69.2c-8.8-37.7,16.4-66.7,20-85.5C725.9,422.4,727.6,388.1,729,399.9z"/>
			<path fill="#FF8F33" d="M346.2,325.4c0,0,82.2-91,98.6-116c16.4-25,10.6,52,21.3,61.4c10.6,9.4,47.4-41.6,62.4-41.1
				c15,0.5,29.1,82.2,50.4,114.8c21.4,32.6-212.8,68.9-234.6,64C322.6,403.7,317,358.3,346.2,325.4z"/>
			<path fill="#FF8F33" d="M226.7,565.2c0,0-20.2-32.6-27-53.7c-6.8-21-8,46.8,11.1,83C230,630.8,226.7,565.2,226.7,565.2z"/>
			<path fill="#FF8F33" d="M195.3,738c0,0-22,5.7-40.6,8.9c-18.6,3.3,113.5,26.3,112.6,26.8C266.5,774.3,195.3,738,195.3,738z"/>
		</g>
		<g>
			<g>
				<path fill="#CD2606" d="M774.7,671.1c0,0,16.1-2.5,36.1-15.5c20-13,29.7-38.6,14.6-45.8C798.2,596.9,770.5,650.1,774.7,671.1z"
					/>
				<path fill="#BC1A04" d="M790.9,644c0.5-5,2-15.9,3.2-23.8c-13.2,14.6-21.9,38.4-19.4,50.9c0,0,16.1-2.5,36.1-15.5
					c3.2-2.1,6.1-4.5,8.7-7.1C806.5,644,790.1,652.4,790.9,644z"/>
				<path fill="#CD2606" d="M774.7,671.1c0,0,29.3-56.8,3.8-62.6C753,602.7,736,643.4,774.7,671.1z"/>
				<path fill="#BC1A04" d="M768.3,608.7c-19,5.3-26.8,38.7,6.4,62.5c0,0,1.2-2.4,3-6.2C752.7,644.6,755.3,618.6,768.3,608.7z"/>
				<path fill="#E22C14" d="M775.9,654.3c0,0,18.1-31.4,3-39.8C770.8,609.9,757.2,633.6,775.9,654.3z"/>
				<path fill="#CD2606" d="M774.7,671.1c0,0,8.7-15.3,27.1-20.9s38.3,21.6,24.6,31.3C812.7,691.4,783.9,678.9,774.7,671.1z"/>
				<path fill="#BC1A04" d="M829.9,677.6c-14,6.2-37.4,0.6-42.6-8.1c-2.4-3.9-2-7.9-0.6-11.4c-8.1,6.2-11.9,13-11.9,13
					c9.1,7.8,37.9,20.2,51.7,10.5C828,680.5,829.2,679.1,829.9,677.6z"/>
				<path fill="#E22C14" d="M791.7,663.5c0,0,5.9-9.4,14.7-10c8.8-0.6,20.2,11.3,18.5,17.7C823.2,677.4,788.2,672.5,791.7,663.5z"/>
				<path fill="#E22C14" d="M798.2,639.1c0,0-2.8-13.4,11.4-23.4c8.8-6.1,18.4,2.4,18,8c-0.4,5.6-8,15.5-11.7,17.4
					C812.2,643,799.6,644.6,798.2,639.1z"/>
			</g>
			<g>
				<path fill="#CD2606" d="M411.9,374c0,0-30-87.4-3.4-106.2c26.7-18.8,56.7,19.3,69.1,58.4c0,0,8.6-63,55.5-57.5
					c46.9,5.5,30.3,80.9,30.3,80.9s30.1-38.4,56.5-22.5c26.4,15.9,4.6,80.4,4.6,80.4s39.1-9.4,55.2,31.7
					c16.1,41.1-31.7,95.6-31.7,95.6L446.7,459c0,0-49.3-47.8-49.3-49.7C397.5,407.5,411.9,374,411.9,374z"/>
				<path fill="#B51702" d="M673.1,496.1c-16-7.1-39.1-26-66.3-60.1c-40.4-50.8-97.4-57.4-130.9-53c-33.6,4.4-46.2-8.7-58.4-63.4
					c-5.5-24.4-5.8-42.2-4.3-54.5c-1.5,0.7-3.1,1.6-4.6,2.7c-26.7,18.8,3.4,106.2,3.4,106.2s-14.4,33.5-14.4,35.4
					c0,1.8,49.3,49.7,49.3,49.7L648,534.8C648,534.8,662.7,518.1,673.1,496.1z"/>
				<path fill="#E22C14" d="M477.6,342.4c0,0-32.8-65.8-49-63.3c-16.2,2.5,10.1,79.3,21.2,88.1c11.1,8.7,77.1-4.9,117.7,23.3
					c40.6,28.2,81.5,79.7,97.6,81.2c16.1,1.5,18.6-56.6-49.7-59.2c0,0,18.5-65.8-4.5-74.8s-57.4,27.8-57.4,27.8s5.2-77.6-26.2-82
					C496,278.9,477.6,342.4,477.6,342.4z"/>
			</g>
			<path fill="#FECE00" d="M197.2,636c0,0-45.1-19.7-60.5-11.3c-15.4,8.4-15.2,82.9,50.7,106.2l19.4-47.7L197.2,636z"/>
			<path fill="#FCC000" d="M142,623c-2,0.3-3.8,0.9-5.3,1.7c-15.4,8.4-15.2,82.9,50.7,106.2l5.2-12.8
				C142.8,696.7,134.7,644.5,142,623z"/>
			<path fill="#FF8B00" d="M301,858.3c0,0,9.2,76,32.1,73.4c22.9-2.6,52.3-55.4,52.3-55.4L301,858.3z"/>
			<path fill="#FF7300" d="M340.3,922.7c-18.3,2-28.2-41.9-31.9-62.7l-7.4-1.6c0,0,9.2,76,32.1,73.4c9.7-1.1,20.6-11.3,29.9-22.6
				C355.5,916.4,347.6,921.9,340.3,922.7z"/>
			<path fill="#FECE00" d="M411.9,374c0,0,5.3,25.8,30.3,41.1c0,0,78.1-79.5,179.9,54.8s89,171.4,157,199.4
				c0,0-73.7,222.4-324.6,232.1c-250.9,9.7-297.7-162.9-272.1-274.1S305.4,376.4,411.9,374z"/>
			<path fill="#FFDA3E" d="M406.8,441.9c0,0,10,22.7,28.5,20.8c18.5-2,67.4-42.3,108.5-16.5c41.1,25.8,127.9,189.5,170.8,229.4
				c42.9,39.9-102.6,158.7-237.1,145C343.2,806.8,287.3,719,287.1,637.9C286.8,539.6,384.1,406.3,406.8,441.9z"/>
			<path fill="#FCC000" d="M239.4,670.5C239.9,484.8,411.9,374,411.9,374c-106.5,2.4-204,142.2-229.5,253.4
				c-25.5,111.2,21.3,283.8,272.1,274.1c68.5-2.7,123.8-21.2,168-46.7C427.1,880.5,239,839.5,239.4,670.5z"/>
			<g>
				<path fill="#660000" d="M421.6,616.8c0,0,9.4,16.1,10.6,27.9c1.1,11.8-11.5,30.8-11.5,30.8s26.3-5.4,28.9-6.7
					s11.9-12.3,11.9-15.1c0-2.8-1.1-7.6-0.9-9.8c0.3-2.2-1.5-4.9-4.8-9.5C452.4,629.6,430.9,614.3,421.6,616.8z"/>
				<path fill="#540000" d="M421.6,616.8c0,0,9.4,16.1,10.5,27.9c1.1,11.8-11.5,30.8-11.5,30.8s15-3.1,23.4-5.2c4.8-3.9,8-7,4.2-5.7
					c-8.9,3.1-10.5-4.5-11.8-18.7c-1-11.3-6-21.8-8-25.7c-0.1-0.3-0.9-1.7-2-3.6C424.7,616.4,423,616.4,421.6,616.8z"/>
				<path fill="#FF8B00" d="M399.7,620.3c0,0,39.8-9.8,54.9,30c0,0-10,22.9-42.6,23.3c0,0,3.9,17.1,28.4,14.1
					c24.6-3,36.2-39.5,36.2-39.5s-6.7-48.8-37.4-57.5C408.4,582,397.7,611.8,399.7,620.3z"/>
				<path fill="#FF7300" d="M413.4,607.5c-0.8-6,2.5-12.2,5.9-16.9c-15.5,5.3-21,23.4-19.6,29.7c0,0,39.8-9.8,54.9,30
					C447.2,610.8,414.9,619.4,413.4,607.5z"/>
				<path fill="#FFA039" d="M429.8,612.2c0,0,19,4.7,25.7,27.5c6.6,22.8-16.2,31.4-25.7,34.8c-9.4,3.4,0.5,11.9,13.4,7.7
					c12.9-4.2,27.6-28.1,28.3-36.8c0.7-8.7-13.9-47.7-33.5-50.5S417.5,608.2,429.8,612.2z"/>
				<path fill="#770101" d="M441.1,651.3c0,0-1.8-10.6-3.1-16.5c-1.4-5.9,12,10.3,12,14.2C450.1,652.9,442.5,659.4,441.1,651.3z"/>
			</g>
			<path d="M591.9,560.3c-1.9-2.1-5.1-2.3-7.2-0.5l-20.1,17.7l-17.7-20.1c-1.9-2.1-5.1-2.3-7.2-0.5c-1.1,1-1.7,2.4-1.7,3.8
				c0,1.2,0.4,2.4,1.3,3.4l17.7,20.1L536.7,602c-2.1,1.9-2.3,5.1-0.5,7.2c1,1.1,2.4,1.7,3.8,1.7c1.2,0,2.4-0.4,3.4-1.3l20.1-17.7
				l17.7,20.1c1.9,2.1,5.1,2.3,7.2,0.5c2.1-1.9,2.3-5.1,0.5-7.2l-17.7-20.1l20.1-17.7C593.6,565.7,593.8,562.5,591.9,560.3z"/>
			<ellipse fill="#FF9999" cx="619.3" cy="627.4" rx="19" ry="15.2"/>
			<path d="M344,560.3c-1.9-2.1-5.1-2.3-7.2-0.5l-20.1,17.7L299,557.4c-1.9-2.1-5.1-2.3-7.2-0.5c-1.1,1-1.7,2.4-1.7,3.8
				c0,1.2,0.4,2.4,1.3,3.4l17.7,20.1L288.8,602c-2.1,1.9-2.3,5.1-0.5,7.2c1,1.1,2.4,1.7,3.8,1.7c1.2,0,2.4-0.4,3.4-1.3l20.1-17.7
				l17.7,20.1c1.9,2.1,5.1,2.3,7.2,0.5c2.1-1.9,2.3-5.1,0.5-7.2l-17.7-20.1l20.1-17.7C345.7,565.7,345.9,562.5,344,560.3z"/>
			<ellipse fill="#FF9999" cx="258.4" cy="627.4" rx="19" ry="15.2"/>
			<g>
				<path fill="#FF8B00" d="M579.4,825.3c0,0,33.8,0,41.7,29.2c7.9,29.2-36,70.5-59.5,61.5C538,907.1,532.5,826.4,579.4,825.3z"/>
				<path fill="#FFA039" d="M590.9,845.1c0,0,15.7-0.5,19.5,20.4c3.8,20.9-29.3,46.8-41.8,41.3C557.4,902,557.9,843.1,590.9,845.1z"
					/>
				<path fill="#FF7300" d="M588,835.6c0,0,17,0,29.6,10.4c-11.4-20.6-38.2-20.6-38.2-20.6c-45.3,1-41.7,76.1-20.3,89.5
					C546.4,890,549.8,836.4,588,835.6z"/>
			</g>
			<path fill="#F99300" d="M641.2,679.4c0,0,8.3,13,18.2,11.4c9.9-1.5,47.1-15.6,53,4.2c5.9,19.8-42.5,60.3-42.5,60.3
				s42.3-18.5,49.7-51.8c7.4-33.3-23.3-28.9-46-24.1C650.9,684.2,641.2,679.4,641.2,679.4z"/>
			<path fill="#FFA039" d="M330,893.8c0,0,26.2,3.2,27.6,7.1c1.4,3.9-10.6,14.9-17.9,14.7C332.4,915.3,321.3,893.2,330,893.8z"/>
			<path fill="#FFDA3E" d="M169.3,635.5c0,0-15.9-4.4-22.7-2c-6.8,2.4,7.1,49.9,17.7,52.5C172.6,688,175,636.9,169.3,635.5z"/>
		</g>
		<path fill="#FF8F33" d="M692.9,828.2c-0.9,0.3,44.2-43.6,56.4-67.9l15.4-2.7C764.8,757.6,757,802.4,692.9,828.2z"/>
	</g>
</g>
</svg>
