<?xml version="1.0" encoding="utf-8"?>
<!-- Generator: Adobe Illustrator 17.1.0, SVG Export Plug-In . SVG Version: 6.00 Build 0)  -->
<!DOCTYPE svg PUBLIC "-//W3C//DTD SVG 1.1//EN" "http://www.w3.org/Graphics/SVG/1.1/DTD/svg11.dtd">
<svg version="1.1" id="Layer_1" xmlns="http://www.w3.org/2000/svg" xmlns:xlink="http://www.w3.org/1999/xlink" x="0px" y="0px"
	 width="954.7px" height="940.8px" viewBox="0 0 954.7 940.8" enable-background="new 0 0 954.7 940.8" xml:space="preserve">
<g>
	<g>
		<path fill="#9E9E9E" d="M382,4.3L382,4.3C-1.9,114.9,5.1,556.8,5.1,556.8S5,556.9,4.8,557c-0.5,40.7-1.6,83-3.9,123.8
			c-6.1,110.7,13.8,187.3,139.1,227.3l375-83.3L386.9,3.9C385.2,4,383.6,4.2,382,4.3z"/>
		<path fill="#7C7C7C" d="M105.4,895c67.2,30.3,174.3,45.8,342.3,45.8l89.9-1.1c196.6-4.9,284.2-25.9,327.6-48.5L382,791.6
			L105.4,895z"/>
		<g>
			<path fill="#BABABA" d="M482.5,0C449.1-0.1,415.3,1.3,382,4.3v787.3l483.1,99.7c27.2-14.1,37.1-28.8,45.5-40.4
				c23.9-32.8,47.6-97.8,43.6-224.3C950.8,519.3,715.3,0.4,482.5,0z"/>
		</g>
		<g>
			<g>
				<path d="M236.9,277.3c-1.3,0-2.6-0.8-3.1-2.1c-0.7-1.7,0.1-3.7,1.8-4.4L470.5,173c1.7-0.7,3.7,0.1,4.4,1.8
					c0.7,1.7-0.1,3.7-1.8,4.4l-234.9,97.8C237.8,277.2,237.4,277.3,236.9,277.3z"/>
			</g>
			<g>
				<path d="M176.5,346.3c-1.3,0-2.6-0.8-3.1-2.1c-0.7-1.7,0.1-3.7,1.8-4.4L482,212.1c1.7-0.7,3.7,0.1,4.4,1.8
					c0.7,1.7-0.1,3.7-1.8,4.4L177.8,346C177.4,346.2,176.9,346.3,176.5,346.3z"/>
			</g>
			<g>
				<path d="M107.6,412.8c-1.3,0-2.6-0.8-3.1-2.1c-0.7-1.7,0.1-3.7,1.8-4.4l306.8-127.7c1.7-0.7,3.7,0.1,4.4,1.8
					c0.7,1.7-0.1,3.7-1.8,4.4L108.9,412.5C108.5,412.7,108,412.8,107.6,412.8z"/>
			</g>
			<g>
				<path d="M106.4,452.7c-1.3,0-2.6-0.8-3.1-2.1c-0.7-1.7,0.1-3.7,1.8-4.4l306.8-127.7c1.7-0.7,3.7,0.1,4.4,1.8
					c0.7,1.7-0.1,3.7-1.8,4.4L107.7,452.5C107.3,452.7,106.8,452.7,106.4,452.7z"/>
			</g>
			<g>
				<path d="M86.6,496.5c-1.3,0-2.6-0.8-3.1-2.1c-0.7-1.7,0.1-3.7,1.8-4.4l306.8-127.7c1.7-0.7,3.7,0.1,4.4,1.8
					c0.7,1.7-0.1,3.7-1.8,4.4L87.9,496.2C87.5,496.4,87.1,496.5,86.6,496.5z"/>
			</g>
			<g>
				<path d="M68.1,535.1c-1.3,0-2.6-0.8-3.1-2.1c-0.7-1.7,0.1-3.7,1.8-4.4l306.8-127.7c1.7-0.7,3.7,0.1,4.4,1.8
					c0.7,1.7-0.1,3.7-1.8,4.4L69.4,534.8C68.9,535,68.5,535.1,68.1,535.1z"/>
			</g>
			<g>
				<path d="M47.6,575c-1.3,0-2.6-0.8-3.1-2.1c-0.7-1.7,0.1-3.7,1.8-4.4l306.8-127.7c1.7-0.7,3.7,0.1,4.4,1.8
					c0.7,1.7-0.1,3.7-1.8,4.4L48.9,574.8C48.5,575,48,575,47.6,575z"/>
			</g>
			<g>
				<path d="M41.5,627.3c-1.3,0-2.6-0.8-3.1-2.1c-0.7-1.7,0.1-3.7,1.8-4.4L347,493.1c1.7-0.7,3.7,0.1,4.4,1.8
					c0.7,1.7-0.1,3.7-1.8,4.4L42.8,627.1C42.4,627.2,41.9,627.3,41.5,627.3z"/>
			</g>
			<g>
				<path d="M41.5,672.8c-1.3,0-2.6-0.8-3.1-2.1c-0.7-1.7,0.1-3.7,1.8-4.4L347,538.6c1.7-0.7,3.7,0.1,4.4,1.8
					c0.7,1.7-0.1,3.7-1.8,4.4L42.8,672.6C42.4,672.8,41.9,672.8,41.5,672.8z"/>
			</g>
			<g>
				<path d="M47.6,708.4c-1.3,0-2.6-0.8-3.1-2.1c-0.7-1.7,0.1-3.7,1.8-4.4l306.8-127.7c1.7-0.7,3.7,0.1,4.4,1.8
					c0.7,1.7-0.1,3.7-1.8,4.4L48.9,708.1C48.5,708.3,48,708.4,47.6,708.4z"/>
			</g>
			<g>
				<path d="M47.6,748.1c-1.3,0-2.6-0.8-3.1-2.1c-0.7-1.7,0.1-3.7,1.8-4.4l306.8-127.7c1.7-0.7,3.7,0.1,4.4,1.8
					c0.7,1.7-0.1,3.7-1.8,4.4L48.9,747.8C48.5,748,48,748.1,47.6,748.1z"/>
			</g>
			<g>
				<path d="M92.4,772.2c-1.3,0-2.6-0.8-3.1-2.1c-0.7-1.7,0.1-3.7,1.8-4.4L397.9,638c1.7-0.7,3.7,0.1,4.4,1.8
					c0.7,1.7-0.1,3.7-1.8,4.4L93.7,772C93.3,772.1,92.8,772.2,92.4,772.2z"/>
			</g>
			<g>
				<path d="M124.4,793.3c-1.3,0-2.6-0.8-3.1-2.1c-0.7-1.7,0.1-3.7,1.8-4.4l306.8-127.7c1.7-0.7,3.7,0.1,4.4,1.8
					c0.7,1.7-0.1,3.7-1.8,4.4L125.7,793.1C125.3,793.2,124.8,793.3,124.4,793.3z"/>
			</g>
			<g>
				<path d="M107.6,836.1c-1.3,0-2.6-0.8-3.1-2.1c-0.7-1.7,0.1-3.7,1.8-4.4l306.8-127.7c1.7-0.7,3.7,0.1,4.4,1.8
					c0.7,1.7-0.1,3.7-1.8,4.4L108.9,835.8C108.5,836,108,836.1,107.6,836.1z"/>
			</g>
			<g>
				<path d="M178.5,857.2c-1.3,0-2.6-0.8-3.1-2.1c-0.7-1.7,0.1-3.7,1.8-4.4L484,723c1.7-0.7,3.7,0.1,4.4,1.8
					c0.7,1.7-0.1,3.7-1.8,4.4L179.8,856.9C179.4,857.1,179,857.2,178.5,857.2z"/>
			</g>
			<g>
				<path d="M181.5,896.6c-1.3,0-2.6-0.8-3.1-2.1c-0.7-1.7,0.1-3.7,1.8-4.4L487,762.4c1.7-0.7,3.7,0.1,4.4,1.8
					c0.7,1.7-0.1,3.7-1.8,4.4L182.8,896.3C182.4,896.5,181.9,896.6,181.5,896.6z"/>
			</g>
			<g>
				<path d="M245.8,899.9c-1.3,0-2.6-0.8-3.1-2.1c-0.7-1.7,0.1-3.7,1.8-4.4l306.8-127.7c1.7-0.7,3.7,0.1,4.4,1.8
					c0.7,1.7-0.1,3.7-1.8,4.4L247.1,899.7C246.7,899.8,246.2,899.9,245.8,899.9z"/>
			</g>
			<g>
				<path d="M330,896.6c-1.3,0-2.6-0.8-3.1-2.1c-0.7-1.7,0.1-3.7,1.8-4.4l306.8-127.7c1.7-0.7,3.7,0.1,4.4,1.8
					c0.7,1.7-0.1,3.7-1.8,4.4L331.3,896.3C330.9,896.5,330.4,896.6,330,896.6z"/>
			</g>
			<g>
				<path d="M354.4,921c-1.3,0-2.6-0.8-3.1-2.1c-0.7-1.7,0.1-3.7,1.8-4.4l306.8-127.7c1.7-0.7,3.7,0.1,4.4,1.8
					c0.7,1.7-0.1,3.7-1.8,4.4L355.7,920.8C355.3,920.9,354.8,921,354.4,921z"/>
			</g>
			<g>
				<path d="M431.2,921c-1.3,0-2.6-0.8-3.1-2.1c-0.7-1.7,0.1-3.7,1.8-4.4l306.8-127.7c1.7-0.7,3.7,0.1,4.4,1.8
					c0.7,1.7-0.1,3.7-1.8,4.4L432.5,920.8C432.1,920.9,431.6,921,431.2,921z"/>
			</g>
			<g>
				<path d="M542.1,912.7c-1.3,0-2.6-0.8-3.1-2.1c-0.7-1.7,0.1-3.7,1.8-4.4L770,810.8c1.7-0.7,3.7,0.1,4.4,1.8
					c0.7,1.7-0.1,3.7-1.8,4.4l-229.2,95.4C543,912.6,542.6,912.7,542.1,912.7z"/>
			</g>
			<g>
				<path d="M611.3,924.5c-1.3,0-2.6-0.8-3.1-2.1c-0.7-1.7,0.1-3.7,1.8-4.4l229.2-95.4c1.7-0.7,3.7,0.1,4.4,1.8
					c0.7,1.7-0.1,3.7-1.8,4.4l-229.2,95.4C612.1,924.4,611.7,924.5,611.3,924.5z"/>
			</g>
			<g>
				<path d="M751.1,896.6c-1.3,0-2.6-0.8-3.1-2.1c-0.7-1.7,0.1-3.7,1.8-4.4l101.5-42.2c1.7-0.7,3.7,0.1,4.4,1.8
					c0.7,1.7-0.1,3.7-1.8,4.4l-101.5,42.2C752,896.5,751.5,896.6,751.1,896.6z"/>
			</g>
		</g>
		<g>
			<path fill="#FF8B00" d="M344.1,782.3c0,0-6.5,75.3,49.8,78.7c56.3,3.4,84.5-78.7,84.5-78.7s17.6,88.3,85.2,82.1
				c67.6-6.2,58.9-96.8,58.9-96.8S426.4,737,344.1,782.3z"/>
			<g>
				<g>
					<g>
						<path fill="#FF7300" d="M402.5,852.4c-48.1-2.9-50.4-58.1-50-74.3c-2.9,1.3-5.7,2.7-8.4,4.2c0,0-6.5,75.3,49.8,78.7
							c22.4,1.3,40.3-10.8,53.8-25.9C435.4,845.9,420.4,853.5,402.5,852.4z"/>
					</g>
					<g>
						<path fill="#FF7300" d="M572.2,855.8c-67.6,6.2-85.2-82.1-85.2-82.1s-2.2,6.5-6.7,15.8c6,21,27.7,79.9,83.4,74.8
							c18.7-1.7,31.5-9.9,40.3-20.8C596,850,585.6,854.5,572.2,855.8z"/>
					</g>
				</g>
			</g>
			<path fill="#FECE00" d="M184.5,539c-1.4,0.5-45.2,54.7-45.4,123.6c-0.2,68.9,78.9,7.1,78.9,7.1L184.5,539z"/>
			<path fill="#FCC000" d="M145.7,646.4c0.1-23.5,5.2-45.2,12-63.8c-9.8,21.4-18.5,49.2-18.6,79.8c-0.2,68.9,78.9,7.1,78.9,7.1
				l-2.5-9.6C194.7,673.8,145.5,700.8,145.7,646.4z"/>
			<path fill="#CD2606" d="M842,580.4c0,0,19.1-27.3,40.4-27.2c21.3,0.1,40.4,25.4,18.7,38C879.4,603.7,842,580.4,842,580.4z"/>
			<path fill="#BC1A04" d="M842,580.4c0,0,37.4,23.3,59.1,10.8c5.3-3.1,8.2-6.9,9.2-10.9c-8.1,4.5-19.5-2.8-31.6-7.8
				c-9-3.8-21.6-2.5-28.9-1.2C844.9,576.2,842,580.4,842,580.4z"/>
			<path fill="#CD2606" d="M852.3,577.2c0,0,26.8-10.3,52.8,15.5c26.1,25.8-5.3,37.9-26.4,33.8C857.6,622.5,843.8,583.1,852.3,577.2
				z"/>
			<path fill="#BC1A04" d="M915,611.5c-5.6,6.6-16.6,10-20.8,7.5c-5.1-3-5.8-13.9-19.1-28.2c-8-8.6-13.1-13-15.9-15.2
				c-4.4,0.6-6.9,1.6-6.9,1.6c-8.5,5.9,5.3,45.3,26.4,49.3C893.7,629.3,913.9,624,915,611.5z"/>
			<path fill="#CD2606" d="M844.8,581.3c0,0,21.5-4.6,36.7,26.4c15.2,30.9-3.3,51.6-23.2,46.4C838.4,648.9,844.8,581.3,844.8,581.3z
				"/>
			<path fill="#BC1A04" d="M863.5,644.6c-15.3-4-15-44.8-14.1-63.5c-2.9-0.2-4.6,0.2-4.6,0.2s-6.4,67.6,13.5,72.8
				c12.1,3.1,23.7-3.3,27.5-15.7C880.3,644.3,872,646.8,863.5,644.6z"/>
			<path fill="#CD2606" d="M367.6,255.5c0,0,36.2-95.9,126.3-113.1c90.1-17.3,90.6,75.3,90.6,75.3s95.3-10.3,121.5,79.7
				c0,0,109.4,55.3,35.3,135.9C667.2,513.9,328.9,365,328.9,365L367.6,255.5z"/>
			<path fill="#BC1A04" d="M561.2,242.5c-105.4-21.1-173,39.6-162.7-4.6c4.3-18.5,18.3-44.1,33.4-67.5
				c-45.1,34.3-64.3,85.1-64.3,85.1L328.9,365c0,0,338.3,149,412.4,68.3c8-8.7,13.9-17.1,18-25.2C700,313.8,655.1,261.3,561.2,242.5
				z"/>
			<path fill="#FECE00" d="M371.3,311.6c0,0,68.5-76.3,173-63.6c104.5,12.7,156.5,65.8,213,190.8c56.5,124.9,68.8,138.8,95,138.4
				c0,0-19.1,166.8-145.9,217.7c-126.8,50.9-292.6,73.4-435.7-9.7c-164.1-95.2-102.5-461.6,96.9-529.6
				C367.6,255.5,361.6,284.7,371.3,311.6z"/>
			<path fill="#FFDA3E" d="M575.9,656.7c0,0,13.1,83.5,71.1,69.6c58-14,71.4-100,85.1-109.4c13.7-9.4,78.4-22.8,85.7-12.2
				c7.3,10.6-14.7,98.7-117.6,133.8c-102.9,35-298.2,27.1-373.4-104.8c-65.2-114.3,56.9-333.4,156.8-355.8
				c99.9-22.5,187.5,58.3,223.6,120.9s51,135.2,42.5,147.7c-8.5,12.4-80.5,17.9-91.8,29.8c-11.2,11.8,1.8,70.2-15.8,77.2
				C624.5,660.3,569.2,615.6,575.9,656.7z"/>
			<path fill="#FCC000" d="M706.5,794.9c30.4-12.2,54.7-31.1,73.9-52.8c-167.4,59.5-439.3,72.2-500.8-109
				c-76.3-224.6,88-377.6,88-377.6c-199.4,68.1-261,434.4-96.9,529.6C413.9,868.2,579.7,845.7,706.5,794.9z"/>
			<path fill="#FCC000" d="M604.8,663.2c0,0,34.3,34,67.4,4.4c0,0-4,29.7-28,35.4C620.1,708.6,604.6,676.7,604.8,663.2z"/>
			<path fill="#660000" d="M378,498.1l18.2,45.7l20.8-14.5c0,0,4-2.4,2.9-7.2c-1.1-4.8-2-13-3.7-14.6c-1.7-1.6-0.5-3.8-9.2-4.6
				C398.3,502.1,378,498.1,378,498.1z"/>
			<path fill="#540000" d="M396.2,543.8l18.2-12.7c-0.8,0-1.8,0-2.9,0.1c-16.5,1.8-25.6-25.9-27.3-32c-3.7-0.7-6.2-1.2-6.2-1.2
				L396.2,543.8z"/>
			<circle cx="544.3" cy="476.8" r="31.5"/>
			<g>
				<path d="M599.8,476.9c-0.3,0-0.7,0-1-0.1c-50.6-10.3-70.7-51.6-71.5-53.3c-1.2-2.5-0.1-5.5,2.4-6.7c2.5-1.2,5.6-0.1,6.8,2.4
					c0.2,0.4,18.9,38.4,64.4,47.7c2.7,0.6,4.5,3.2,4,6C604.2,475.3,602.1,476.9,599.8,476.9z"/>
			</g>
			<g>
				<path d="M226.5,457.2c-2.7,0-4.9-2.1-5.1-4.7c-0.2-2.8,1.9-5.2,4.7-5.4c0.4,0,38.3-2.9,62.8-35.7c1.7-2.3,4.9-2.7,7.1-1
					c2.2,1.7,2.7,4.9,1,7.1c-27.4,36.6-68.5,39.6-70.3,39.7C226.7,457.2,226.6,457.2,226.5,457.2z"/>
			</g>
			<circle fill="#FFFFFF" cx="553.2" cy="465.2" r="6.1"/>
			<circle fill="#FFFFFF" cx="538.7" cy="484" r="12.7"/>
			<circle cx="270.7" cy="471.3" r="31.5"/>
			<circle fill="#FFFFFF" cx="279.6" cy="459.6" r="6.1"/>
			<circle fill="#FFFFFF" cx="265.1" cy="478.4" r="12.7"/>
			<g>
				<ellipse fill="#6EB8E5" cx="567.3" cy="505.1" rx="17.9" ry="14.3"/>
				<path fill="#56ABD6" d="M570.4,514.5c-9.9,0-17.9-6.4-17.9-14.3c0-1.4,0.2-2.7,0.7-4c-2.4,2.4-3.9,5.5-3.9,8.8
					c0,7.9,8,14.3,17.9,14.3c8.2,0,15-4.4,17.2-10.3C581.2,512.4,576.1,514.5,570.4,514.5z"/>
				
					<ellipse transform="matrix(0.9238 0.383 -0.383 0.9238 235.7159 -180.1637)" fill="#7ECBF2" cx="570.3" cy="501.9" rx="12.3" ry="8"/>
			</g>
			<g>
				<ellipse fill="#6EB8E5" cx="236.9" cy="501.9" rx="17.9" ry="14.3"/>
				<path fill="#56ABD6" d="M240.1,511.3c-9.9,0-17.9-6.4-17.9-14.3c0-1.4,0.2-2.7,0.7-4c-2.4,2.4-3.9,5.5-3.9,8.9
					c0,7.9,8,14.3,17.9,14.3c8.2,0,15-4.4,17.2-10.3C250.8,509.2,245.8,511.3,240.1,511.3z"/>
				
					<ellipse transform="matrix(0.9238 0.383 -0.383 0.9238 209.3148 -53.8984)" fill="#7ECBF2" cx="240" cy="498.7" rx="12.3" ry="8"/>
			</g>
			<g>
				<path fill="#FF8B00" d="M362.7,508.4c0,0,38.6-9.1,45.5,12.5c6.9,21.6-31.5,25.6-31.5,25.6s46.6,7.3,56.4-23.9
					C444.1,487.3,373.1,457.6,362.7,508.4z"/>
				<path fill="#FF7300" d="M376.7,546.4c26.9,0.3,47.2-18.4,31.8-35.2c-15.5-16.8-29.7-4.7-31.6-14.1c-1-4.9,2.3-10.2,5.8-14.1
					c-9.3,3.2-17,11.1-19.9,25.4c0,0,38.6-9.1,45.5,12.5C415,542.4,376.7,546.4,376.7,546.4z"/>
				<path fill="#FFA039" d="M389.2,497.8c0,0,13.3-2.3,24.6,13.2c11.4,15.5-1.6,25.6-7.1,29c-5.6,3.4,13.1,3.3,21.8-17.2
					c8.7-20.5-19.2-39.1-32.5-38C382.7,486,380.2,498.1,389.2,497.8z"/>
			</g>
			<path fill="#770101" d="M393.9,510.9c0,0,10.7,3.5,12.5,13.6C408.3,534.4,384.9,508.5,393.9,510.9z"/>
			<path fill="#F99300" d="M604.8,663.2c0,0,11.7,42.7,42,33.3C677,687,674,601,674,601s21.9,77.6-17.2,104.2
				C617.8,731.8,600,676,604.8,663.2z"/>
			<path fill="#E22C14" d="M419.8,226.6c0,0,14.3-57.2,70.2-68.5c55.9-11.3,71,39.2,77.5,57.9c6.5,18.8,61.4,9.5,93.4,30.6
				c32,21,28.8,48.8,43.2,58.8s49.6,37.7,51.8,57.9c2.2,20.2-9.2,1.8-60.4-54.7c-51.2-56.5-119.3-77.7-162.7-80.8
				S413.6,242.7,419.8,226.6z"/>
			<path fill="#E22C14" d="M857.6,622.5c-0.1-0.4-7.1-23.2-2.1-28.6c4.9-5.4,20,6.8,25.2,26.4C886,639.9,864.3,647.2,857.6,622.5z"
				/>
			<path fill="#E22C14" d="M892.7,610.2c0,0-15.3-22.7-22.9-29.1c-7.6-6.4,14.8-0.8,26.8,9.6c12,10.4,12.8,18.1,9.9,21.2
				S897,616.4,892.7,610.2z"/>
			<path fill="#E22C14" d="M864.3,565.9c0,0,19.7,2.7,28.8,8.2c9.1,5.6,15.1-1.9,10.6-8.2c-4.6-6.3-15.5-10.7-26-8.6
				C867.2,559.4,858.7,565.1,864.3,565.9z"/>
			<path fill="#FFDA3E" d="M174.8,657.3c0,0-5.2-52.9-5.5-69.2c-0.2-16.3-19.3,19.2-16.6,56.1C155.5,681.1,176,669.6,174.8,657.3z"
				/>
			<path fill="#FFA039" d="M380.1,832.8c0,0,41.8,6.6,42.2,10.3c0.4,3.7-11.2,7.2-26.5,3.9C380.5,843.7,369.1,830.9,380.1,832.8z"/>
			<path fill="#FFA039" d="M545.7,841.1c0,0,50.9-9.9,54.9-8.5s-5,14.9-29.5,17.8C546.7,853.3,535.9,843,545.7,841.1z"/>
		</g>
		<ellipse fill="#FF9999" cx="612.4" cy="519.4" rx="22.5" ry="20"/>
		<ellipse fill="#FF9999" cx="194.9" cy="521" rx="22.5" ry="20"/>
	</g>
</g>
</svg>
