<?xml version="1.0" encoding="utf-8"?>
<!-- Generator: Adobe Illustrator 17.1.0, SVG Export Plug-In . SVG Version: 6.00 Build 0)  -->
<!DOCTYPE svg PUBLIC "-//W3C//DTD SVG 1.1//EN" "http://www.w3.org/Graphics/SVG/1.1/DTD/svg11.dtd">
<svg version="1.1" id="Layer_1" xmlns="http://www.w3.org/2000/svg" xmlns:xlink="http://www.w3.org/1999/xlink" x="0px" y="0px"
	 width="781px" height="739.9px" viewBox="0 0 781 739.9" enable-background="new 0 0 781 739.9" xml:space="preserve">
<g>
	<path fill="#CD2606" d="M516.6,136c0,0,40.3-69,12.1-109.1c-28.3-40.1-144.5-36-169.5,17.3c0,0-34.6-57-95-36.5
		c-60.4,20.5-59.9,105.7-30.8,141.3c0,0-49.7-12.8-83.9,30.7c-34.2,43.6,12,85,12,85s-32.1,12.6-37.5,43.7
		c-5.4,31.1,37.5,83.7,37.5,83.7l357.2-186.7L516.6,136z"/>
	<path fill="#B51702" d="M359.1,44.2c0,0-34.6-57-95-36.5c-60.4,20.5-59.9,105.7-30.8,141.3c0,0-49.7-12.8-83.9,30.7
		c-34.2,43.6,12,85,12,85s-32.1,12.6-37.5,43.7c-5.4,31.1,37.5,83.7,37.5,83.7l11.6-6.1c-2.3-3.9-5.3-8.1-9-12.7
		c-48-59,1.5-98.9,7.9-104.4c6.4-5.5-35.1-55.9-3-83.2c32-27.3,70.5-21,76-26.1c5.5-5.2-37.7-107.9,25.5-123.3
		c63.2-15.5,82.3,32.2,89.9,28c7.6-4.3,34.3-43.4,108.7-37.7c34.9,2.7,56.5,21.6,69.5,40.9c0.8-14.4-1.5-28.8-9.9-40.6
		C500.4-13.3,384.2-9.2,359.1,44.2z"/>
	<g>
		<path fill="#CD2606" d="M69.4,495.9c0,0,7.9-68.2-21.3-76.1C18.9,411.8-21.4,453.2,69.4,495.9z"/>
		<path fill="#BC1A04" d="M70,489.5c-5.8-10-36.7-27.7-45.6-41.9c-4-6.4-5.4-13.4-5.7-19.2c-11.7,13.8-6.9,40.3,50.8,67.4
			C69.4,495.9,69.7,493.5,70,489.5z"/>
		<path fill="#CD2606" d="M69.4,495.9c0,0,49.6-47.4,26.2-72.3C72.2,398.7,28.3,430.1,69.4,495.9z"/>
		<path fill="#E22C14" d="M79.6,472.6c0,0,26.1-30.6,13.7-44.4C80.8,414.5,57.6,435.3,79.6,472.6z"/>
		<path fill="#BC1A04" d="M74.3,415.3c-19.6,2.8-35,32.4-4.9,80.6c0,0,3.9-3.8,9-9.7C57.8,450.7,62.3,425.8,74.3,415.3z"/>
		<path fill="#CD2606" d="M69.4,495.9c0,0-36.4-42.4-57.3-36.3C-8.7,465.7-10.3,526.9,69.4,495.9z"/>
		<path fill="#BC1A04" d="M10.2,460.3c-18.9,9.2-18,65.6,59.2,35.6c0,0-1.2-1.4-3.2-3.6C10.3,509.9,1.2,476.8,10.2,460.3z"/>
		<path fill="#E22C14" d="M53.8,487.3c0,0-21.2-24.7-35.2-22.7C4.5,466.5,14.5,504.2,53.8,487.3z"/>
		<path fill="#E22C14" d="M51,462.5c0,0-3.2-18.4-1.9-29.3c1.3-10.9-17.4-7.7-22.9-3.6c-5.5,4.1,4.9,23.3,14.8,30.3
			S51.5,466.1,51,462.5z"/>
	</g>
	<path fill="#FECE00" d="M700.1,412.7c0,0,20.5-0.8,57.2-18.6c36.7-17.8,34.6,87-32,120.8C725.2,515,690.1,462.1,700.1,412.7z"/>
	<path fill="#FCC000" d="M774.8,455.7c-31.9-9.4-42.1-32.8-45.1-50c-19.2,6.7-29.7,7.1-29.7,7.1c-9.9,49.3,25.2,102.2,25.2,102.2
		C750.8,502,766.8,478.6,774.8,455.7z"/>
	<path fill="#FECE00" d="M65.1,490.4c0,0,57.5-16.8,84.9-127.7c27.4-110.9,126.6-221.2,194.4-237.9c67.8-16.7,131.7,57.1,131.7,57.1
		s28.6-20.6,40.5-46c0,0,119.8,23.9,185.7,226.8s44,309.2-210.3,366C237.7,785.4,48.4,614.8,65.1,490.4z"/>
	<path fill="#FFDA3E" d="M224.8,414.5c0,0,64.1-176.5,133.9-220.5c69.8-44,96.8,27.1,110.3,31.3c13.5,4.1,60.7-42.1,82-38.9
		c21.4,3.2,104.9,72.6,138.7,221.4c33.8,148.8-14.6,222.8-108.4,244.2s-232.8,7-255.8-12.8c-23-19.8,41.5-91.8,45.8-133.1
		c4.3-41.3-48.7-62.3-57.9-85.8c-9.2-23.4-39.2-23.4-52.9-17.7C246.8,408.3,210.2,451.2,224.8,414.5z"/>
	<path fill="#FCC000" d="M357.8,682c-184.1-27.3-263.1-153-235.8-183.6c27.3-30.6,62.1-70.7,101.2-172.8
		c31-80.9,121.9-164.7,177.6-196.5c-17.5-6.3-36.8-9.1-56.4-4.3c-67.8,16.7-167,127-194.4,237.9S65.1,490.4,65.1,490.4
		C48.4,614.8,237.7,785.4,492,728.7c86.5-19.3,146.1-44.3,184.5-77C620.4,669.8,494.3,702.2,357.8,682z"/>
	<path fill="#FCC000" d="M195,475.5c0,0,23.1,14.2,46.1,6.4c23-7.8,27.4-32.5,33-29.9c5.6,2.6,0.3,21.4,6.1,24.8
		c5.8,3.4,45.4-3.7,53,13.6c0,0-5.4-33.7-38.1-33.3c0,0-13.8-36.5-25.8-32.3C257.3,429.1,256.7,471.4,195,475.5z"/>
	<path fill="#231F20" d="M289.3,373.4v-23.7c0,0-27.8-25-79.2-24v26.9C210.1,352.6,256.4,355.8,289.3,373.4z"/>
	<path fill="#231F20" d="M551.1,387.8v-23.7c0,0,27.8-25,79.2-24V367C630.3,367,583.9,370.2,551.1,387.8z"/>
	<ellipse fill="#FF9999" cx="667.3" cy="407.8" rx="22.5" ry="20"/>
	<ellipse fill="#FF9999" cx="184" cy="407.8" rx="22.5" ry="20"/>
	<path fill="#F99300" d="M195,475.5c0,0,35.3,2.3,51.1-11.2s15.6-30.1,24-33.7c8.4-3.6,18.2,16.6,19.2,32.7c0,0,31.6-9.5,38.5,29.1
		c6.9,38.6-66.4,101.7-66.4,101.7s57.2-24.8,75.1-79.7c17.9-54.9-30.8-64.6-39.3-60.8c0,0-8.6-39.1-29.5-35.3
		C246.9,422.2,271.9,456.9,195,475.5z"/>
	<g>
		<ellipse fill="#660000" cx="422.2" cy="417.8" rx="34.9" ry="27.2"/>
		<path fill="#540000" d="M434.1,433.8c-19.3,0-34.9-12.2-34.9-27.2c0-3.9,1.1-7.7,3-11.1c-9,4.9-14.9,13.1-14.9,22.3
			c0,15,15.6,27.2,34.9,27.2c14.2,0,26.5-6.6,31.9-16.1C448.4,432,441.5,433.8,434.1,433.8z"/>
		<path fill="#FF8B00" d="M387.6,406.5c0,0,15.6,37.9,39,34.9s27.3-41.6,27.3-41.6l12.2,8.6c0,0,3.6,59.2-38.1,64.6
			c-41.7,5.3-54-63.8-54-63.8L387.6,406.5z"/>
		<g>
			<g>
				<g>
					<path fill="#FF7300" d="M432.4,464.4c-33.2,4.2-47.7-38.7-52.3-56.4l-6,1.2c0,0,12.3,69.1,54,63.8c17.4-2.2,27-13.9,32.1-26.7
						C454.5,455.3,445.8,462.6,432.4,464.4z"/>
				</g>
				<path fill="#FFA039" d="M392.6,424.5c0,0,11.3,25,33.7,22.1c22.4-2.8,26.7-27.3,32.1-25.5c5.4,1.8-0.9,34.9-27.2,37.1
					c-26.3,2.2-39.6-26.6-41.5-34.3S390.8,421.3,392.6,424.5z"/>
			</g>
		</g>
		<path fill="#FF8B00" d="M469,410.8c0,9.6-21.9-2.1-48.8-2.1c-27,0-48.8,11.7-48.8,2.1s21.9-48,48.8-48
			C447.2,362.8,469,401.2,469,410.8z"/>
		<path fill="#FF7300" d="M469,410.8c0-1.1-0.3-2.5-0.8-4.2c-30.4-15.6-76.3,1-77.1-10.5c-0.5-7.6,6.2-19.7,12.1-28.4
			c-18.6,10.7-31.9,35.6-31.9,43.1c0,9.6,21.9-2.1,48.8-2.1C447.2,408.7,469,420.3,469,410.8z"/>
		<path fill="#FFA039" d="M402.5,387.2c0,0,5.4-17.6,18.5-17.8c13.1-0.3,32.4,18.4,32.9,22.6c0.5,4.2-11.6-0.3-27.7,1.2
			C410.1,394.5,400.4,394.6,402.5,387.2z"/>
		<path fill="#770101" d="M412.7,412.4c0,0,23.2-1,27,2.6c3.8,3.6,4.9,11.9-8.4,14.3C417.9,431.7,400.3,412.8,412.7,412.4z"/>
	</g>
	<path fill="#FFDA3E" d="M184,513.5c0,0,47.7-17.6,77.5-23.1s48.3,5.2,47.8,20c-0.4,14.8-48.3,65.5-77.4,79.6
		C202.8,604.2,142.8,527.3,184,513.5z"/>
	<g>
		<path fill="#FF8B00" d="M189.8,643.1c0,0,27.4-19.9,50.9-0.9c23.6,19,12.4,78.1-11.9,84.8C204.5,733.5,152.5,671.6,189.8,643.1z"
			/>
		<path fill="#FFA039" d="M210.7,652.3c0,0,12.3-9.7,27.8,5c15.4,14.7,3.9,55.1-9.5,58C217.2,718,182.9,670.2,210.7,652.3z"/>
		<path fill="#FF7300" d="M202.8,646.3c0,0,13.7-10,30.1-9.1c-21.4-9.9-43.1,5.8-43.1,5.8c-36,27.5,11.1,86,36.3,84.3
			C201.2,714.8,172.4,669.5,202.8,646.3z"/>
	</g>
	<g>
		<path fill="#FF8B00" d="M647.2,604.1c0,0,32.4-9.8,48.4,15.9c16,25.7-13.9,77.9-39.1,76.1C631.3,694.4,602.6,618.8,647.2,604.1z"
			/>
		<path fill="#FFA039" d="M663.9,619.8c0,0,14.8-5.1,24.6,13.9c9.7,18.9-14.4,53.3-28,51.7C648.4,683.9,631.7,627.4,663.9,619.8z"/>
		<path fill="#FF7300" d="M658.4,611.4c0,0,16.2-4.9,31.4,1.3c-16.9-16.4-42.6-8.6-42.6-8.6c-43,14.2-17.8,84.9,6.6,91.5
			C634.4,675.7,622.1,623.4,658.4,611.4z"/>
	</g>
	<path fill="#FFDA3E" d="M743,408.5c0,0,14.7-9.5,23.5-6.8c8.8,2.7,8.6,25.3,2.9,32.8C763.7,442,731.1,419,743,408.5z"/>
	<path fill="#F98E00" d="M52.5,334.6c0,0,38.8-10.7,38.8-38.8c0,0,9,38.8,38.8,38.8c0,0-38.8,12.7-38.8,38.8
		C91.3,373.4,84.1,334.6,52.5,334.6z"/>
	<path fill="#E22C14" d="M386,65.3c0,0,37.6-26.5,82.6-23.6s51,40.5,48.8,55.8s-32.7,53.9-36.7,56.8c-4,2.9-69.2-52.9-131.4-42.1
		C287.2,123,195.5,236.4,185.1,258.3c-10.4,21.8-23.8-50.7-2.2-67.6c21.5-16.9,59.3-17.7,70.2-27.7c10.8-10-23.8-82.1,15.6-108.7
		c39.4-26.6,77.3,22.3,85.5,23.3C362.3,78.4,378.6,69.9,386,65.3z"/>
	<path fill="#E22C14" d="M169.8,286.9c-0.3,0.8-15,45.1-17.3,47.7c-2.3,2.6-6.6-17,0.8-33.6C160.6,284.4,174.6,273.3,169.8,286.9z"
		/>
</g>
</svg>
