<?xml version="1.0" encoding="utf-8"?>
<!-- Generator: Adobe Illustrator 17.1.0, SVG Export Plug-In . SVG Version: 6.00 Build 0)  -->
<!DOCTYPE svg PUBLIC "-//W3C//DTD SVG 1.1//EN" "http://www.w3.org/Graphics/SVG/1.1/DTD/svg11.dtd">
<svg version="1.1" id="Layer_1" xmlns="http://www.w3.org/2000/svg" xmlns:xlink="http://www.w3.org/1999/xlink" x="0px" y="0px"
	 width="880.4px" height="890.9px" viewBox="0 0 880.4 890.9" enable-background="new 0 0 880.4 890.9" xml:space="preserve">
<g>
	<path fill="#CD2606" d="M403.5,805.9c-0.5,1.2-45.1,32.2-29.3,58.1c15.8,25.9,59.8-2.9,59.8-2.9s-2.4,36.2,36.7,28.8
		s25.4-37.4,25.4-37.4s15.4,25.2,46.6,11.5c31.2-13.7-9.6-73.9-9.6-73.9L403.5,805.9z"/>
	<g>
		<g>
			<path fill="#BC1A04" d="M386.4,850.7c-4.1-23.9,17.9-39.5,17.9-39.5s-0.9-1.6-2.4-3.8c-7.8,6.4-41.9,33.6-27.7,56.7
				c15.8,25.9,59.8-2.9,59.8-2.9S390.6,874.5,386.4,850.7z"/>
			<path fill="#BC1A04" d="M457.8,879.4c-12.8-10.5-11.2-38.9-11.2-38.9l-12.7,20.6c0,0-2.4,36.2,36.7,28.8
				c10.1-1.9,16.7-5.3,20.9-9.4C480.9,883.4,465.7,885.8,457.8,879.4z"/>
			<path fill="#BC1A04" d="M542.7,864c7.2-3.1,10.5-8.7,11.5-15.5c-26.8,7.9-63.4-8-63.4-8l14,17.6l-0.3,3.1
				C512,866.9,524.7,871.9,542.7,864z"/>
		</g>
	</g>
	<path fill="#FECE00" d="M733.9,493c0,0,42.4-5.2,72.3-16.5c29.9-11.2,53.3,84.4-60.8,148.6C745.4,625.1,719.6,521,733.9,493z"/>
	<path fill="#FCC000" d="M815.4,561.1c-40-12.5-47.1-53.5-48.1-73.9c-18.4,3.9-33.4,5.7-33.4,5.7c-14.3,28,11.5,132.2,11.5,132.2
		C780.4,605.4,802.5,582.8,815.4,561.1z"/>
	<path fill="#FECE00" d="M135.9,475.4c0,0-32-6.1-61.9-26.8C44,427.9,5.2,514,118.6,590.3L135.9,475.4z"/>
	<path fill="#FCC000" d="M59.2,446.5c-23.8,9.4-35.4,79.9,59.4,143.7l2.7-17.7C52.8,522.7,46.9,470,59.2,446.5z"/>
	<path fill="#CD2606" d="M350.3,201.2c0,0-23.5-54.5,25.9-82.8c49.4-28.3,76.4,4,79.6,17.5c0,0,23.9-31.7,74-28.8
		s65.6,53.9,61.5,75.7c0,0,108.9-14.5,87.4,96.3c0,0,73.7,38.7,20.7,101.7c-53,63-336-128.8-336-128.8L350.3,201.2z"/>
	<path fill="#BC1A04" d="M717.7,345.8c-9.8,0.5-22.1-3.4-32.7-21.3c-21.6-36.3-102.8-127.4-177.9-137.8c-75.2-10.4-119.7,37.5-136,0
		c-9.8-22.5-1.6-50.3,6.5-69c-0.4,0.2-0.9,0.5-1.3,0.7c-49.4,28.3-25.9,82.8-25.9,82.8l13.1,51c0,0,283,191.8,336,128.8
		C710.2,368.2,715.7,356.4,717.7,345.8z"/>
	<path fill="#FECE00" d="M380.4,229.5c0,0,50.8-45.1,136.1-30c85.3,15,205,155.3,236.8,283.3S752.8,787,487.3,817.9
		c-269.2,31.3-379-161.7-382.5-257.1c-3.5-95.4,76.9-275.2,245.6-359.6C350.3,201.2,356,217.1,380.4,229.5z"/>
	<path fill="#FFDA3E" d="M358.3,274.6c0,0,9.1,12.7,26.9,17.2c17.8,4.5,43.4-47.1,116.4-48.7c73.1-1.7,184,132.1,205.9,258.4
		c22,126.3-55,229.5-247.9,214.7S199.2,541.7,231.9,428.6C254.3,350.9,334.6,253.2,358.3,274.6z"/>
	<path fill="#FCC000" d="M350.3,201.2c-168.7,84.4-249.1,264.2-245.6,359.6c3.5,95.4,113.4,288.4,382.5,257.1
		c89.3-10.4,152.2-37.2,195.1-73.1c-174,42.9-391.3,51.2-494.8-162.3C105.1,412.2,350.3,201.2,350.3,201.2z"/>
	<g>
		<path fill="#FF8B00" d="M182.4,651.4c0,0,4.6-32.6,33.9-36.3c29.3-3.6,63.1,44.3,51.3,65.8S177,696.8,182.4,651.4z"/>
		<path fill="#FFA039" d="M203,643c0,0,1.6-15.2,22.3-16c20.7-0.8,41.2,34.6,34.2,45.9C253.3,683,196.6,674.6,203,643z"/>
		<path fill="#FF7300" d="M193.4,644.5c0,0,2.3-16.4,14-27.2c-21.4,8.2-25.1,34.1-25.1,34.1c-5.1,43.8,67.7,50.6,83.6,31.7
			C240.3,692,189.1,681.5,193.4,644.5z"/>
	</g>
	<g>
		<path fill="#FF8B00" d="M654.5,612.6c0,0,32.5,5.3,35.5,34.7c3,29.3-45.7,62.1-66.9,49.8C601.8,684.7,609.2,606.3,654.5,612.6z"/>
		<path fill="#FFA039" d="M662.4,633.5c0,0,15.2,1.9,15.5,22.7c0.4,20.7-35.5,40.4-46.7,33.2C621.3,682.8,631,626.4,662.4,633.5z"/>
		<path fill="#FF7300" d="M661.2,623.8c0,0,16.3,2.7,26.9,14.7c-7.7-21.6-33.5-25.9-33.5-25.9c-43.7-6.1-52.1,66.6-33.6,82.8
			C612.5,669.6,624.3,618.6,661.2,623.8z"/>
	</g>
	<g>
		<path fill="#FF5A5A" d="M302.8,395.2c-26.1-23.9-42.9,15.3-42.9,15.3s-23.1-35.8-44.8-7.8s24.8,64.9,50.8,78
			C289.3,463.4,328.9,419,302.8,395.2z"/>
		<path fill="#FF2E2E" d="M231.9,428.6c-10.6-22.3,0.7-32.3,6.6-35.8c-7.2-2-15.3-0.4-23.3,9.9c-21.7,27.9,24.8,64.9,50.8,78
			c5-3.7,10.7-8.6,16.4-14.3C263.6,464.1,241.7,449.3,231.9,428.6z"/>
		<path fill="#FF7D7D" d="M262,424.7c0,0-9.8-18.9-17-18.5c-7.2,0.4-9.2,7-3.5,19.1c5.7,12,30.1,33,39.4,25.4
			c9.4-7.6,24.3-29.8,19.4-40.7C295.6,399,280.9,385.4,262,424.7z"/>
	</g>
	<g>
		<path fill="#FF5A5A" d="M657.3,390.1c-24-26-44,11.6-44,11.6s-20-37.6-44-11.6c-24,26,19.2,66.8,44,82
			C638.1,456.9,681.3,416.1,657.3,390.1z"/>
		<path fill="#FF2E2E" d="M583.8,417.4c-8.6-23.1,3.4-32.2,9.6-35.2c-7-2.6-15.2-1.7-24.1,7.9c-24,26,19.2,66.8,44,82
			c5.3-3.2,11.4-7.7,17.5-12.9C612.4,455.4,591.8,438.9,583.8,417.4z"/>
		<path fill="#FF7D7D" d="M614.2,416.1c0,0-8.2-19.7-15.4-19.9c-7.2-0.2-9.7,6.2-5.1,18.7s27.2,35.4,37.1,28.6
			c10-6.8,26.7-27.7,22.8-39C649.8,393.3,636.3,378.5,614.2,416.1z"/>
	</g>
	<ellipse fill="#FF9999" cx="187.6" cy="479.1" rx="19.5" ry="15.2"/>
	<ellipse fill="#FF9999" cx="688.1" cy="467.5" rx="19.5" ry="15.2"/>
	<g>
		<path fill="#660000" d="M418.5,446c0,0-0.5-7.3,1.3-9.7c1.8-2.4,47.3-3.8,49.4-0.4c2.1,3.4,0.4,26.4-17.2,31.2
			c-17.6,4.9-30.3-3.9-32.6-20.8"/>
		<path fill="#540000" d="M425.7,434.9c-3.4,0.4-5.6,0.8-6,1.3c-1.8,2.4-1.3,9.7-1.3,9.7l0.8,0.4c2.3,16.9,15,25.6,32.6,20.8
			c4.3-1.2,7.7-3.5,10.3-6.3c-1.4,0-3,0.1-4.9,0.3C433.9,463.7,427.1,442.1,425.7,434.9z"/>
		<path fill="#FF8B00" d="M419.8,436.3c0,0,5.7,29.3,23.5,29c17.8-0.3,22.6-23.9,22.9-29c0.3-5.1,6.6-2.3,6.6-2.3
			s19.4,55.2-27.8,55.7c-44.4,0.5-31-56.9-31-56.9L419.8,436.3z"/>
		<path fill="#FF7300" d="M448.6,484.1c-34.7,0.4-34.1-34.7-32.2-49.9l-2.4-1.5c0,0-13.4,57.4,31,56.9c15.9-0.2,24.2-6.5,28.3-14.9
			C468.5,480.2,460.7,484,448.6,484.1z"/>
		<path fill="#FF8B00" d="M443.1,409c0,0,15.3-1.1,25.1,10.9c9.8,12,7.4,21.9-21.4,21.9c-28.7,0-36.9-3.2-36.6-12.4
			C410.4,422.7,421.4,409,443.1,409z"/>
		<path fill="#FFA039" d="M444.6,412.7c0,0,10.7-0.3,17.2,7.1c6.5,7.5,4.7,13.4-15.2,12.8c-19.9-0.6-25.5-2.8-25.2-8.3
			C421.7,420.3,429.6,412.2,444.6,412.7z"/>
		<path fill="#FF7300" d="M452,437.1c-28.7,0-36.9-3.2-36.6-12.4c0.1-2.3,1.4-5.5,4-8.6c-6,4.4-9.1,9.8-9.2,13.4
			c-0.3,9.2,7.9,12.4,36.6,12.4c16.1,0,23.9-3.1,26-8C468.6,435.9,461.8,437.1,452,437.1z"/>
		<path fill="#FFA039" d="M423.1,453.7c0,0,4.5,15.3,21.3,15.4c16.8,0,22.9-18.2,24.5-22.3c1.5-4.1,6.7,2.5,4.9,14.4
			c-1.8,11.9-14.9,20.3-29.8,19c-15-1.3-23.4-17.3-24.4-24.8C418.5,447.8,421.3,448.8,423.1,453.7z"/>
		<path fill="#770101" d="M437.5,444.9c0,0,15.5,0.6,20.4,0c4.9-0.6-1.3,10.4-7.9,12.2C443.4,458.9,429.5,444.7,437.5,444.9z"/>
	</g>
	<path fill="#E22C14" d="M456.4,148.1c0,0-25.6-37.6-57.8-27.1c-32.2,10.5-18.1,55.5-5.1,61.7c13,6.2,50.3-9.8,112.7-7.7
		s147.7,92.3,161,108.7c13.3,16.5,29.5,48.1,35.1,49.2c5.7,1.1,7.2-15.4-29-52.8c0,0-3-63.5-32.6-81.3c-29.6-17.8-59.8-7.7-59.8-7.7
		s-4-63.3-46.8-73.3C491.4,107.7,456.4,148.1,456.4,148.1z"/>
	<path fill="#FFDA3E" d="M103.5,476.8c0,0-14.5-3.7-29.5-16.5c-15-12.8-18,42.4,10.9,63.9C97.3,533.5,112.3,480.1,103.5,476.8z"/>
	<path fill="#FFDA3E" d="M784.8,494.6c0,0,18.6-8.8,27.9-5.1c9.3,3.7,8.2,43-2.6,48.4C794.8,545.6,770.2,502.1,784.8,494.6z"/>
	<g>
		<g>
			<path fill="#990E00" d="M436.4,875.7c0.6-18.1,10.2-35.2,10.2-35.2c-8.6,8.7-12.7,20.6-12.7,20.6S433.5,868.3,436.4,875.7z"/>
			<path fill="#990E00" d="M490.7,840.5l5.4,12c0,0,12.5,20.5,37.9,14.5C512.1,857.8,490.7,840.5,490.7,840.5z"/>
		</g>
	</g>
	<path fill="#E22C14" d="M413.3,829.4c0.6,0,85.7-4.7,107.9-9c22.2-4.3,24,14.1,19,20.6c-5.1,6.5-54.8-5.3-54.8-5.3s14.8,35.2-9,39
		c-23.8,3.9-28.7-40.2-28.7-40.2s-11.2,17-23.4,20.7c-12.2,3.7-25.6-0.7-28.2-9.6C393.5,836.8,400.2,829.4,413.3,829.4z"/>
	<path fill="#F98E00" d="M42.5,612.2c0,0,5,67.3,63.7,105.4C106.2,717.7,24.3,703.2,42.5,612.2z"/>
	<path fill="#F98E00" d="M24.1,567c1.6-2-23.4,83.1,22.4,128.5C46.5,695.5-41.1,648.8,24.1,567z"/>
	<path fill="#F98E00" d="M787.4,719.8c0,0,27.7-25,24.5-80.1C811.9,639.7,848.8,673.2,787.4,719.8z"/>
	<path fill="#F98E00" d="M815.4,722.9c0,0,32.3-37.7,27.3-76.5C842.7,646.4,876,673.9,815.4,722.9z"/>
	<g>
		<path fill="#FF5A5A" d="M183.1,216.2c-22.8-17-33.1,15.6-33.1,15.6s-21.3-26.8-36.5-2.7c-15.2,24.1,25,50,46.8,58.4
			C177.8,271.9,205.9,233.3,183.1,216.2z"/>
		<path fill="#FF2E2E" d="M129,248.6c-10.2-17-2-25.9,2.4-29.2c-5.9-1.1-12.3,0.9-17.9,9.8c-15.2,24.1,25,50,46.8,58.4
			c3.7-3.3,7.9-7.8,12-12.8C157.2,274.5,138.5,264.4,129,248.6z"/>
		<path fill="#FF7D7D" d="M152.9,243.1c0,0-9.4-14.3-15.1-13.4s-6.8,6.4-1.3,15.5c5.5,9.2,26.7,24,33.6,17.2
			c6.9-6.9,17.1-25.8,12.3-34.1C177.7,219.9,164.9,210.2,152.9,243.1z"/>
	</g>
	<g>
		<path fill="#FF5A5A" d="M315.4,5.7c-26.5-19.8-38.5,18.2-38.5,18.2s-24.8-31.2-42.5-3.1c-17.6,28,29.1,58.2,54.5,67.9
			C309.2,70.5,342,25.5,315.4,5.7z"/>
		<path fill="#FF2E2E" d="M252.5,43.4c-11.9-19.8-2.4-30.2,2.8-34c-6.8-1.2-14.3,1-20.8,11.4c-17.6,28,29.1,58.2,54.5,67.9
			c4.3-3.9,9.2-9,14-14.9C285.3,73.5,263.5,61.8,252.5,43.4z"/>
		<path fill="#FF7D7D" d="M280.2,37c0,0-10.9-16.7-17.5-15.6c-6.7,1.1-7.9,7.4-1.5,18.1c6.4,10.7,31,28,39.1,20
			c8-8,19.9-30,14.4-39.7C309.1,10,294.2-1.4,280.2,37z"/>
	</g>
	<g>
		<path fill="#FF5A5A" d="M777.4,57.7c-22.9-27-44.4,9.8-44.4,9.8s-18.4-38.4-43.5-13.4c-25,25,16.4,67.5,40.6,83.7
			C755.5,123.6,800.3,84.6,777.4,57.7z"/>
		<path fill="#FF2E2E" d="M702.9,81.9c-7.7-23.4,4.7-32,11-34.7c-6.8-2.9-15.2-2.3-24.4,6.9c-25,25,16.4,67.5,40.6,83.7
			c5.4-3,11.7-7.2,18.1-12.1C729.9,121.1,710,103.7,702.9,81.9z"/>
		<path fill="#FF7D7D" d="M733.3,81.9c0,0-7.4-20-14.6-20.5c-7.2-0.5-10,5.8-5.8,18.5c4.2,12.6,25.7,36.5,35.9,30.1
			c10.3-6.4,27.8-26.5,24.4-38C769.8,60.6,757,45.2,733.3,81.9z"/>
	</g>
	<g>
		<path fill="#FF5A5A" d="M876.6,280.6c-18.1-30.4-45.4,2.3-45.4,2.3s-11.8-40.9-40.7-20.4c-28.8,20.5,5.1,69.3,26.2,89.3
			C844.1,342.1,894.7,311,876.6,280.6z"/>
		<path fill="#FF2E2E" d="M799.1,292.3c-3.7-24.4,9.9-30.8,16.6-32.4c-6.3-4-14.6-4.8-25.2,2.8c-28.8,20.5,5.1,69.3,26.2,89.3
			c5.8-2.1,12.8-5.2,19.8-9C819.2,335.3,802.5,314.9,799.1,292.3z"/>
		<path fill="#FF7D7D" d="M829.1,297.2c0,0-4-20.9-11-22.6c-7-1.7-10.8,4.1-8.8,17.2c2,13.2,19.3,40.2,30.4,35.6
			c11.2-4.6,31.8-21.6,30.3-33.4C868.6,282.3,858.5,265,829.1,297.2z"/>
	</g>
</g>
</svg>
