<?xml version="1.0" encoding="utf-8"?>
<!-- Generator: Adobe Illustrator 17.1.0, SVG Export Plug-In . SVG Version: 6.00 Build 0)  -->
<!DOCTYPE svg PUBLIC "-//W3C//DTD SVG 1.1//EN" "http://www.w3.org/Graphics/SVG/1.1/DTD/svg11.dtd">
<svg version="1.1" id="Layer_1" xmlns="http://www.w3.org/2000/svg" xmlns:xlink="http://www.w3.org/1999/xlink" x="0px" y="0px"
	 width="964.4px" height="924.5px" viewBox="0 0 964.4 924.5" enable-background="new 0 0 964.4 924.5" xml:space="preserve">
<g>
	<g>
		<path fill="#CD2606" d="M861.5,486.6c0,0,19.5,2.5,47.1-5.8c27.6-8.4,47.5-34.8,32.4-48.3C913.7,408.3,863.6,460.7,861.5,486.6z"
			/>
		<path fill="#BC1A04" d="M889.4,460.6c2.2-5.7,7.7-17.8,11.7-26.5c-20.2,12.5-38.4,37.2-39.7,52.6c0,0,19.5,2.5,47.1-5.8
			c4.4-1.3,8.6-3.1,12.5-5.3C907.6,465.8,885.7,470.1,889.4,460.6z"/>
		<path fill="#CD2606" d="M861.5,486.6c0,0,53.1-56.1,25.5-71.4C859.3,399.9,825.9,441.4,861.5,486.6z"/>
		<path fill="#BC1A04" d="M875,411.9c-23.8-0.2-44.1,35.9-13.6,74.7c0,0,2.2-2.3,5.5-6.2C844.8,448.3,856.6,419.1,875,411.9z"/>
		<path fill="#E22C14" d="M866.3,465.8c0,0,31.6-30.4,16.9-45.2C875.2,412.5,851.4,435.4,866.3,465.8z"/>
		<path fill="#CD2606" d="M861.5,486.6c0,0,15.3-14.9,38.5-15.1c23.2-0.2,37.3,37.9,18,44.7C898.7,522.9,869.5,498.8,861.5,486.6z"
			/>
		<path fill="#BC1A04" d="M923.4,512.6c-18.4,2.5-43.6-11.9-46.8-23.7c-1.4-5.3,0.3-9.8,3.1-13.4c-11.4,4.5-18.2,11.1-18.2,11.1
			c8,12.2,37.2,36.3,56.5,29.5C920.2,515.4,922,514.2,923.4,512.6z"/>
		<path fill="#E22C14" d="M883.7,483.5c0,0,10-9,20.4-6.7c10.4,2.2,19.6,20,15.5,26.7C915.7,510.3,876.7,492.8,883.7,483.5z"/>
		<path fill="#E22C14" d="M899.5,457.3c0,0,1.2-16.5,21-23.3c12.2-4.2,20.6,8.9,18.2,15.3c-2.4,6.4-14.6,15.3-19.4,16.3
			C914.5,466.5,899.3,464.2,899.5,457.3z"/>
	</g>
	<path fill="#FECE00" d="M726.6,412.8c0,0,32.8-18.3,62.1-44c29.4-25.7,72.4,63,41.1,126.1C829.8,494.9,748.8,496,726.6,412.8z"/>
	<path fill="#FCC000" d="M829.8,494.9c7.5-15.1,10.7-31.6,10.9-47.7c-38.4-4.6-64.5-36.9-77.7-58c-20,14.5-36.4,23.7-36.4,23.7
		C748.8,496,829.8,494.9,829.8,494.9z"/>
	<path fill="#FF8B00" d="M357.2,844c-1.4,3.3-44.2,51.7-27.1,71.3c21.9,25.2,154.8-39.5,154.8-39.5L357.2,844z"/>
	<path fill="#FF7300" d="M336.3,904.1c-7-8-4-20.9,2.2-33.5c-9.6,15.6-17.5,34.2-8.4,44.7c21.9,25.2,154.8-39.5,154.8-39.5
		l-11.8-2.9C436,889.5,353.1,923.5,336.3,904.1z"/>
	<path fill="#FECE00" d="M196.7,607.7c0,0-71.5-31.9-98.7-8.4C67.9,625.5,150.9,747.6,234.4,756L196.7,607.7z"/>
	<path fill="#FCC000" d="M102.5,596.2c-1.6,0.9-3.1,2-4.4,3.2C67.9,625.5,150.9,747.6,234.4,756l-3.7-14.6
		C159.5,724.1,93.2,631.8,102.5,596.2z"/>
	<path fill="#CD2606" d="M287.4,326.9c0,0-88.7-80.6-23.3-151.4c65.3-70.7,142-19.4,173.9,10.8c0,0,23.8-60.5,95.1-54
		c71.3,6.5,60.5,71.3,60.5,71.3S749,202,689.6,360.2C630.2,518.5,297.7,432.3,287.4,326.9z"/>
	<path fill="#BC1A04" d="M488.3,243.6c-86.8,0.7-133.3,43.6-148.2,50.8c-14.9,7.3-53.4,2.9-66.8-58.8c-7.2-33.1,11.7-65.8,30.8-89
		c-13.5,5.5-27,14.8-40.1,28.9c-65.3,70.7,23.3,151.3,23.3,151.3c10.4,105.4,342.8,191.6,402.2,33.4c4.5-12.1,7.8-23.3,10-33.6
		C655.4,294.4,557.8,243,488.3,243.6z"/>
	<path fill="#FECE00" d="M866.4,481.2c0,0-28.2,24.3-93.6-54.6s-202.4-179-305.1-168.2c-102.7,10.8-131.8,85.8-131.8,85.8
		s-24.7,3.5-48.5-17.3c0,0-144.8,113.5-111.8,311.2s193.7,300.8,429.9,228C841.7,793.2,897.6,591.7,866.4,481.2z"/>
	<path fill="#FFDA3E" d="M839.7,516.8c0,0-63.7,225.7-279.8,249.5c-216,23.8-284.5-137.6-285.9-209.8
		C271.6,431,358,320.8,485.5,315.9C612.9,311.1,726.9,497.9,839.7,516.8z"/>
	<path fill="#FCC000" d="M652.9,794.9c-236.2,72.8-397-30.3-429.9-228c-14.2-85.1,4.6-154.7,30.6-206.2
		C213,408,153.1,503.6,175.5,638c32.9,197.6,193.7,300.8,429.9,228c123.8-38.2,198.1-111.7,236.2-188.9
		C799.1,726.1,737.6,768.8,652.9,794.9z"/>
	<g>
		<path d="M270.6,529.1c-0.7,0-1.4-0.1-2-0.4c-2.6-1.1-3.7-4.1-2.6-6.7c4.7-10.6,14.2-18.3,22.1-23.3c-10.7-0.5-23.2,1.7-28.6,3.1
			c-2.7,0.7-5.5-1-6.1-3.7c-0.7-2.7,1-5.5,3.7-6.1c3.2-0.8,32.2-7.6,48,0.4c1.8,0.9,2.9,2.8,2.8,4.8c-0.1,2-1.4,3.8-3.3,4.5
			c-0.2,0.1-22.4,8.7-29.4,24.5C274.4,528,272.6,529.1,270.6,529.1z"/>
	</g>
	<g>
		<path d="M569.2,422.8c-1.3,0-2.6-0.5-3.6-1.5c-1.5-1.5-1.9-3.7-1.1-5.7c12.5-28,46.8-39.5,48.3-40c2.7-0.9,5.5,0.6,6.4,3.2
			c0.9,2.7-0.6,5.5-3.2,6.4c-0.3,0.1-21.6,7.2-35,23.1c10.2-2.5,24.9-4.2,39.8,0.3c2.7,0.8,4.2,3.6,3.4,6.3
			c-0.8,2.7-3.6,4.2-6.3,3.4c-23.1-6.9-46.4,3.7-46.6,3.8C570.7,422.7,569.9,422.8,569.2,422.8z"/>
	</g>
	
		<ellipse transform="matrix(0.9957 -9.236240e-002 9.236240e-002 0.9957 -50.5212 25.6345)" fill="#FF9999" cx="251.7" cy="558.6" rx="22.5" ry="17.5"/>
	
		<ellipse transform="matrix(0.9957 -9.236261e-002 9.236261e-002 0.9957 -36.1944 63.5436)" fill="#FF9999" cx="668.4" cy="422.8" rx="22.5" ry="17.5"/>
	<g>
		<path fill="#660000" d="M416.4,531.4c0,0-12.2-20.1,6.8-39.9c19-19.8,73.1-34.5,92.1-14.1c18.9,20.4,11.1,90.1-16,101.4
			C472.3,590.1,424.6,552.5,416.4,531.4z"/>
		<path fill="#540000" d="M517.7,547.5c-63.7,15-87.7-32.7-95.3-55.2c-17.9,19.5-6.1,39-6.1,39c8.2,21.1,55.9,58.7,82.9,47.4
			c10.2-4.3,17.7-16.9,22-32.1C520.2,547,519,547.3,517.7,547.5z"/>
		<path fill="#FF8B00" d="M413.1,513.6c0,0,36.1,69.4,74.5,56.7c38.4-12.7,14.7-100,14.7-100s15.8,3.4,19.5,6.7
			c0,0,32.7,107.6-16.9,123.8c-49.6,16.2-97.2-72.7-97.2-72.7L413.1,513.6z"/>
		<path fill="#FF8B00" d="M407.6,528c0,0,42.1-69.5,114.1-51.1c0,0-37.8-36.8-75.6-19.9C407.2,474.3,407.6,528,407.6,528z"/>
		<path fill="#FF7300" d="M467,474.7c-39.1,14.5-47.8,34.6-49.9,23.3c-1-5.5,3.2-15.5,7.9-24.3c-17.6,22.6-17.4,54.3-17.4,54.3
			s42.1-69.5,114.1-51.1c0,0-3.4-3.3-9.1-7.4C499,468.2,482.9,468.9,467,474.7z"/>
		<path fill="#FFA039" d="M424.7,487c0,0,6.3-16.7,23.6-26.2c17.3-9.5,49.3,1.3,49.1,3.5c-0.2,2.2-17.6,1.3-35.8,7.7
			c-18.3,6.4-34.2,21.2-36.9,22.7C422,496.2,423.5,489.6,424.7,487z"/>
		<path fill="#FF7300" d="M504.8,593.6c-44.3,14.5-86.9-54.7-95.6-69.8l-1.6,4.2c0,0,47.5,88.9,97.2,72.7
			c22.4-7.3,28.1-33.3,27.5-59.6C531.7,564.8,525.2,586.9,504.8,593.6z"/>
		<path fill="#FFA039" d="M425.1,540c0,0,28,43.7,67,38c39-5.7,18.3-90,20.1-92.2s11.9,7,14.4,43.1c2.5,36.2-7.1,57-32.7,61.1
			c-25.6,4-51.1-24.2-63-39.2C418.9,535.9,421.2,534.6,425.1,540z"/>
		<path fill="#770101" d="M449.7,501.3c0,0,33.4-17.1,41.6-14.8c8.1,2.3,13.5,46.5-0.4,52.7C478.5,544.7,430.7,513.6,449.7,501.3z"
			/>
	</g>
	<g>
		<path fill="#FF8B00" d="M693,710.4c0,0,15-35.9,49.5-31.2c34.5,4.6,58.7,69.4,38.7,90.4C761.3,790.6,673.3,760.7,693,710.4z"/>
		<path fill="#FFA039" d="M719.1,707.1c0,0,6.4-16.9,30.3-11.6c23.9,5.3,36.6,51.8,25.2,62.7C764.5,767.8,702.3,741.2,719.1,707.1z"
			/>
		<path fill="#FF7300" d="M707.7,705.9c0,0,7.5-18,24.2-26.8c-26.9,3-38.8,31.4-38.8,31.4c-19,48.5,62.1,78,85.8,61.3
			C746.9,774.2,691.7,746.8,707.7,705.9z"/>
	</g>
	<path fill="#E22C14" d="M438.4,200.9c0,0-63.1-53.8-110.1-39.6c-46.9,14.1-35.3,91.4-13.2,103c22.1,11.6,51.7-27.3,163.6-32.8
		c111.9-5.5,191.6,64.3,204.2,58.8c12.5-5.5-11.6-69.7-102.1-78.8c0,0-3.2-56.5-56.5-62.9C471,142.2,438.4,200.9,438.4,200.9z"/>
	<path fill="#FFDA3E" d="M175.1,688.6c0,0-9.2-48.8-12.5-69.2c-3.4-20.4-48.7-20.3-51.3-12.3C103.7,630.4,181,720.8,175.1,688.6z"/>
	<path fill="#FFA039" d="M350.3,876.1c0,0,30.2,11.9,51.7,13.8c21.5,1.9-41.3,17.9-54.1,11.5C335,895,342.6,873.3,350.3,876.1z"/>
	<path fill="#FFDA3E" d="M783.6,390.4c0,0,9.2-12.7,19.5-14.8c10.3-2.1,28.9,36.3,25.2,50.7C824.7,440.7,775,403.9,783.6,390.4z"/>
	<g>
		<path d="M98.1,183.1l-20,18.7l-13.6-15.7l-10.6,7.2l13,16.3l-18.7,15.9L0,165.6l20.6-16l19,24.3l10-6.5l-22.9-27l19.4-15.7
			L98.1,183.1z"/>
		<path d="M150.3,138.1L134,154.1l-10.1-7.9l-9.9,7.5l5.3,11.5l-21.2,13.1l-26.8-71.7L83,96.8L150.3,138.1z M112.2,134.1l-14.8-12.6
			l8.3,17.6L112.2,134.1z"/>
	</g>
	<g>
		<path d="M377.5,82l-26.7,6L347,67.6l-12.8,0.8l3,20.7l-24.1,4.2l-11.3-76.1l25.8-3.3l4.1,30.6l11.9-0.5l-6-34.8l24.7-3.7L377.5,82
			z"/>
		<path d="M445.3,69.7l-22.2,5.6l-4.7-11.9l-12.4,1.5l-1.3,12.6L379.9,78l13.3-75.4L408.3,0L445.3,69.7z M414.5,47l-6.4-18.4
			L406.4,48L414.5,47z"/>
	</g>
	<g>
		<path d="M639.4,97.8l-24.7-11.9l9.7-18.4L614,60.3l-10.5,18.1l-21.6-11.7L620.3,0l22.3,13.4L626.8,40l9.6,7l16.9-31.1L675,28.3
			L639.4,97.8z"/>
		<path d="M700.3,130.2l-20.9-9.4l3.7-12.2l-10.6-6.5l-8.8,9.1l-19.8-15.1l57.2-50.9l13.5,7.4L700.3,130.2z M690.2,93.3l6.4-18.4
			L683.2,89L690.2,93.3z"/>
	</g>
	<g>
		<g>
			<path fill="#F98E00" d="M49,465.8c-0.1,0-0.1,0-0.2,0c-1.8-0.1-3.1-1.5-3.2-3.2l-0.1-0.8c-4.3-30.2-9-135.3,108.1-217.1
				c1.5-1.1,3.6-0.7,4.7,0.8c1.1,1.5,0.7,3.6-0.8,4.7C43.5,329.8,48.1,431.5,52.2,460.8c0.1,1,0.2,1.6,0.2,1.8
				C52.3,464.4,50.8,465.8,49,465.8z"/>
		</g>
		<g>
			<path fill="#F98E00" d="M155.6,303.4c-0.4,0-0.9-0.1-1.3-0.3c-46.5-19-63-52.8-63.7-54.2c-0.8-1.7-0.1-3.7,1.6-4.5
				c1.7-0.8,3.7-0.1,4.5,1.6c0.2,0.3,16.2,32.9,60.2,50.9c1.7,0.7,2.6,2.7,1.8,4.4C158.2,302.6,156.9,303.4,155.6,303.4z"/>
		</g>
		<g>
			<path fill="#F98E00" d="M98.1,403.2c-0.6,0-1.2-0.2-1.7-0.5c-32.8-19.5-74.6-21.8-75-21.8c-1.9-0.1-3.3-1.7-3.2-3.5
				c0.1-1.9,1.7-3.4,3.5-3.2c1.8,0.1,43.8,2.4,78.2,22.8c1.6,1,2.1,3,1.2,4.6C100.4,402.6,99.2,403.2,98.1,403.2z"/>
		</g>
		<g>
			<path fill="#F98E00" d="M87.7,431.1c-0.5,0-1-0.1-1.5-0.3C51.1,414,8.4,422.5,8,422.5c-1.8,0.4-3.6-0.8-4-2.6
				c-0.4-1.8,0.8-3.6,2.6-4c1.8-0.4,45.2-9.1,82.5,8.8c1.7,0.8,2.4,2.8,1.6,4.5C90.1,430.4,88.9,431.1,87.7,431.1z"/>
		</g>
		<g>
			<path fill="#F98E00" d="M110.8,883.6c-0.7,0-1.3-0.2-1.9-0.6c-71.8-49.9-82.6-137.1-82.7-138c-0.2-1.9,1.1-3.5,3-3.7
				c1.9-0.2,3.5,1.1,3.7,3c0.1,0.8,10.6,85.1,79.8,133.2c1.5,1.1,1.9,3.2,0.8,4.7C112.9,883.1,111.8,883.6,110.8,883.6z"/>
		</g>
		<g>
			<path fill="#F98E00" d="M26.6,855c-1.4,0-2.7-0.9-3.2-2.3c-0.6-1.8,0.4-3.7,2.1-4.3c0.6-0.2,58.5-19.7,97.3-59.4
				c1.3-1.3,3.4-1.4,4.8-0.1c1.3,1.3,1.4,3.4,0.1,4.8c-40,40.9-97.6,60.3-100,61.1C27.3,854.9,27,855,26.6,855z"/>
		</g>
		<g>
			<path fill="#F98E00" d="M229.7,924.5c-0.3,0-0.6,0-1-0.1C129,894.4,79.4,777.8,78.9,776.6c-0.7-1.7,0.1-3.7,1.8-4.4
				c1.7-0.7,3.7,0.1,4.4,1.8c0.5,1.1,48.9,114.9,145.6,143.9c1.8,0.5,2.8,2.4,2.3,4.2C232.5,923.6,231.2,924.5,229.7,924.5z"/>
		</g>
		<g>
			<path fill="#F98E00" d="M153.9,924.5c-1,0-2-0.4-2.6-1.3c-1.2-1.5-0.9-3.6,0.5-4.7c0.3-0.3,31.1-25.2,41.3-49.2
				c0.7-1.7,2.7-2.5,4.4-1.8c1.7,0.7,2.5,2.7,1.8,4.4c-10.9,25.6-41.9,50.8-43.3,51.8C155.4,924.3,154.7,924.5,153.9,924.5z"/>
		</g>
		<g>
			<path fill="#F98E00" d="M948.8,779.8c-0.3,0-0.6,0-0.9-0.1c-43.4-11.3-58-43.5-58.6-44.9c-0.8-1.7,0-3.7,1.7-4.4
				c1.7-0.8,3.7,0,4.5,1.7c0.1,0.3,14.1,30.6,54.1,41c1.8,0.5,2.9,2.3,2.4,4.1C951.7,778.8,950.3,779.8,948.8,779.8z"/>
		</g>
		<g>
			<path fill="#F98E00" d="M857.3,818.7c-1.1,0-2.1-0.5-2.8-1.5c-1.1-1.5-0.7-3.6,0.9-4.7c0.9-0.6,85.5-59.9,102.3-147.3
				c0.4-1.8,2.1-3,4-2.7c1.8,0.4,3,2.1,2.7,4c-17.3,90.2-104.2,151-105.1,151.6C858.7,818.5,858,818.7,857.3,818.7z"/>
		</g>
		<g>
			<path fill="#F98E00" d="M741.4,246.2c-1.2,0-2.4-0.7-3-1.8c-0.9-1.7-0.2-3.7,1.4-4.6c0.7-0.3,66.9-35.7,82.8-97.1
				c0.5-1.8,2.3-2.9,4.1-2.4c1.8,0.5,2.9,2.3,2.4,4.1c-16.6,64.3-83.3,100-86.2,101.4C742.4,246.1,741.9,246.2,741.4,246.2z"/>
		</g>
		<g>
			<path fill="#F98E00" d="M879.6,284.1c-1.2,0-2.4-0.7-3-1.8c-58.1-110.8-150-135.2-150.9-135.4c-1.8-0.5-2.9-2.3-2.4-4.1
				c0.5-1.8,2.3-2.9,4.1-2.4c1,0.2,95.7,25.3,155.2,138.9c0.9,1.7,0.2,3.7-1.4,4.6C880.7,284,880.1,284.1,879.6,284.1z"/>
		</g>
		<g>
			<path fill="#F98E00" d="M882.9,358.7c-1.3,0-2.5-0.7-3.1-2c-51.7-113.9-147.6-155.9-148.5-156.3c-1.7-0.7-2.5-2.7-1.8-4.4
				c0.7-1.7,2.7-2.5,4.4-1.8c1,0.4,99.2,43.3,152,159.7c0.8,1.7,0,3.7-1.7,4.5C883.8,358.6,883.4,358.7,882.9,358.7z"/>
		</g>
	</g>
</g>
</svg>
