<?xml version="1.0" encoding="utf-8"?>
<!-- Generator: Adobe Illustrator 17.1.0, SVG Export Plug-In . SVG Version: 6.00 Build 0)  -->
<!DOCTYPE svg PUBLIC "-//W3C//DTD SVG 1.1//EN" "http://www.w3.org/Graphics/SVG/1.1/DTD/svg11.dtd">
<svg version="1.1" id="Layer_1" xmlns="http://www.w3.org/2000/svg" xmlns:xlink="http://www.w3.org/1999/xlink" x="0px" y="0px"
	 width="835.6px" height="846.5px" viewBox="0 0 835.6 846.5" enable-background="new 0 0 835.6 846.5" xml:space="preserve">
<g>
	<path fill="#FF8B00" d="M175.4,764.2c0,0-60.7,17.1-62.1,50.3c-1.4,33.2,106.8,27.6,152.9-16.8H516c0,0,49.2,58.3,104.7,47.5
		c55.5-10.8-16.1-94.2-16.1-94.2L175.4,764.2z"/>
	<path fill="#FF7300" d="M620.7,845.2c12.8-2.5,18.8-8.9,20.5-17.3c-71.3,18.5-110.1-40.1-110.1-40.1s-250.9-14.1-272.5,5.9
		c-21.6,20-112.8,47.5-122.4,17.7c-3.6-11.2-0.9-22.2,3.8-31.8c-13.6,8.3-26.1,19.9-26.8,34.7c-1.4,33.2,106.8,27.6,152.9-16.8H516
		C516,797.7,565.2,856,620.7,845.2z"/>
	<path fill="#CD2606" d="M286.6,152.6c0,0-43.7-133.2,32.7-150.5c76.5-17.3,94.8,79.6,94.8,79.6S444.6-3.5,502,15.9
		c57.4,19.4,40.1,115.6,40.1,115.6s49.1-30.1,85.8,2.1c36.7,32.2,0,82.3,0,82.3s51.5-9.7,70.6,55.4c19,65-62.3,124.2-62.3,124.2
		S293,292,292.3,287.1C291.6,282.3,286.6,152.6,286.6,152.6z"/>
	<path fill="#BC1A04" d="M651.5,326.9c-17.6-20.3-70.8-139.2-160.9-174.4c-90.1-35.1-156.1,11.9-163.6,2.2
		c-7.6-9.6-24.8-49.2-28.8-97.8c-1.8-22.3,9.8-41.2,23.1-55.3c-0.7,0.1-1.3,0.2-2,0.4c-76.5,17.3-32.7,150.5-32.7,150.5
		s5.1,129.7,5.8,134.6c0.7,4.8,343.9,108.3,343.9,108.3s35.9-26.2,54.4-62.9C677,336.2,660.6,337.4,651.5,326.9z"/>
	<g>
		<path fill="#CD2606" d="M760,501c0,0,21.3-4.8,46.9-24.1c25.6-19.2,36.3-54.5,15.4-62.8C784.6,399.3,752.3,473.1,760,501z"/>
		<path fill="#BC1A04" d="M779.2,463.1c0.1-6.8,1.3-21.5,2.1-32.2c-16.4,20.8-25.9,53.5-21.3,70c0,0,21.3-4.8,46.9-24.1
			c4.1-3.1,7.8-6.6,11.1-10.3C800.1,461.7,778.9,474.4,779.2,463.1z"/>
		<path fill="#CD2606" d="M760,501c0,0,34-78.8-0.7-84.3C724.6,411.2,705.5,467.4,760,501z"/>
		<path fill="#BC1A04" d="M745.6,417.8c-25,8.9-32.4,54.3,14.3,83.1c0,0,1.4-3.3,3.4-8.6C728,467.3,729.1,432.3,745.6,417.8z"/>
		<path fill="#E22C14" d="M760.1,478.3c0,0,21.4-43.8,0.4-53.7C749.1,419.3,733,452.3,760.1,478.3z"/>
		<path fill="#CD2606" d="M760,501c0,0,10.2-21.4,34.4-30.5c24.2-9.1,53.4,25.4,35.8,39.8C812.7,524.6,772.9,510.6,760,501z"/>
		<path fill="#BC1A04" d="M834.5,504.5c-18.2,9.6-50,4.2-57.9-6.9c-3.5-5-3.4-10.4-1.9-15.2c-10.2,9-14.8,18.6-14.8,18.6
			c13,9.6,52.7,23.7,70.3,9.3C832.3,508.6,833.7,506.6,834.5,504.5z"/>
		<path fill="#E22C14" d="M782,489.2c0,0,7-13.2,18.8-14.8c11.7-1.6,28.1,13.4,26.4,22C825.5,505,778.2,501.6,782,489.2z"/>
		<path fill="#E22C14" d="M788.5,455.8c0,0-5-17.7,13.1-32.4c11.2-9,24.9,1.5,24.8,9c0,7.6-9.4,21.5-14.1,24.4
			C807.6,459.8,790.9,463.1,788.5,455.8z"/>
	</g>
	<path fill="#FECE00" d="M314.7,194.8c0,0,98.9-95,217.6,0c118.8,95,141.4,295.2,229.8,302.8c0,0,69.9,280.5-249.2,320.3
		C193.7,857.6,27.6,729,2.4,556c-25.9-177.8,166-378.9,284.2-403.5C286.6,152.6,296.3,176.7,314.7,194.8z"/>
	<path fill="#FFDA3E" d="M731.2,527.3c-15-27.4-59.7-1.3-88.7-49.4c-29-48.1-92.2-248.1-172.5-270.6c-80.2-22.5-108,28.4-139.9,33
		c-31.9,4.6-33.7-54.2-82-24.6c-48.3,29.6-118.3,220.2-118.3,220.2c-20.9,52.8,13.3,195.8,134.7,259.7
		c121.4,63.9,341.8,50.1,395.6,10.5C713.9,666.4,746.3,554.8,731.2,527.3z M485.1,678.1c-4.6,28-54.2,3-80.9,0
		c-26.7-3-65.9,28.8-98.7,13.1c-32.8-15.7-99.8-99.3-54.7-120.2c0,0,52.1-22.7,94.2-11.8c42.1,10.9,84-22.3,111.1-10.9
		C483.3,559.8,489.7,650.1,485.1,678.1z"/>
	<path fill="#FCC000" d="M286.6,593c0,0,76.7-5.3,93,57.7l9.2-8.8l-5.6-20.1l-8.6-13.2c0,0,6.3-32.1,63.4-37.5c0,0-39.7,16-45,33.1
		c-5.2,17.1,9.5,37.3,9.5,37.3l-11.1-3.9l-10.7-14.9c0,0-17.2-28.7-33.2-34.3C331.4,582.7,309.2,582.9,286.6,593z"/>
	<path fill="#FCC000" d="M598.6,760.7c-319.1,39.8-485.3-88.8-510.5-261.8c-17.6-121,65.6-252.7,157.9-332.3
		C129.4,220.5-20.7,397.5,2.4,556c25.2,173,191.4,301.6,510.5,261.8c93.5-11.7,153.6-44,191.9-83.9
		C675.3,746.2,640.3,755.5,598.6,760.7z"/>
	<g>
		<rect x="319.2" y="395.5" fill="#161616" width="102" height="27"/>
		<path d="M347.4,416.6c-3.4,0-6.2-2.8-6.2-6.2v-14.7c0-0.1,0-0.2,0-0.2h-22.1v27h102v-5.9H347.4z"/>
		<g>
			<path fill="#161616" d="M619.1,376.8v27c0,45.8-37.1,82.9-82.9,82.9h-46.7c-45.8,0-82.9-37.1-82.9-82.9v-27H619.1z"/>
			<path fill="#282828" d="M605.5,390.4v15.8c0,26.7-27.5,48.4-61.4,48.4h-34.6c-33.9,0-61.4-21.7-61.4-48.4v-15.8H605.5z"/>
			<path d="M552.8,470.1h-46.7c-45.8,0-82.9-37.1-82.9-82.9v-10.4h-16.6v27c0,45.8,37.1,82.9,82.9,82.9h46.7
				c27.1,0,51.1-13.1,66.2-33.2C588.6,463.8,571.5,470.1,552.8,470.1z"/>
		</g>
		<g opacity="0.15">
			<path fill="#FFFFFF" d="M536.2,486.7c45.8,0,82.9-37.1,82.9-82.9v-27L504.9,486.7H536.2z"/>
			<path fill="#FFFFFF" d="M483,376.8c-23.9,20.3-50.3,42.7-69.9,59.1c5.3,12.7,13.7,23.8,24.3,32.3c29.2-29.8,62.8-64.1,89.6-91.4
				H483z"/>
		</g>
		<g>
			<path fill="#161616" d="M335.9,376.8v27c0,45.8-37.1,82.9-82.9,82.9h-46.7c-45.8,0-82.9-37.1-82.9-82.9v-27H335.9z"/>
			<path fill="#282828" d="M322.3,390.4v15.8c0,26.7-27.5,48.4-61.4,48.4h-34.6c-33.9,0-61.4-21.7-61.4-48.4v-15.8H322.3z"/>
			<path d="M269.6,470.1h-46.7c-45.8,0-82.9-37.1-82.9-82.9v-10.4h-16.6v27c0,45.8,37.1,82.9,82.9,82.9H253
				c27.1,0,51.1-13.1,66.2-33.2C305.4,463.8,288.3,470.1,269.6,470.1z"/>
		</g>
		<g opacity="0.15">
			<path fill="#FFFFFF" d="M253,486.7c45.8,0,82.9-37.1,82.9-82.9v-27L221.7,486.7H253z"/>
			<path fill="#FFFFFF" d="M199.8,376.8c-23.9,20.3-50.3,42.7-69.9,59.1c5.3,12.7,13.7,23.8,24.3,32.3
				c29.2-29.8,62.8-64.1,89.6-91.4H199.8z"/>
		</g>
		<path fill="#282828" d="M397.9,412.6h-47.5c-2.9,0-5.3-2.4-5.3-5.3v-2.8c0-2.9,2.4-5.3,5.3-5.3h47.5c2.9,0,5.3,2.4,5.3,5.3v2.8
			C403.2,410.2,400.8,412.6,397.9,412.6z"/>
	</g>
	<g>
		<path fill="#F98E00" d="M2.4,302c0,0,38.8-10.7,38.8-38.8c0,0,9,38.8,38.8,38.8c0,0-38.8,12.7-38.8,38.8
			C41.2,340.8,34,302,2.4,302z"/>
		<path fill="#F98E00" d="M736.1,198.6c0,0,38.8-10.7,38.8-38.8c0,0,9,38.8,38.8,38.8c0,0-38.8,12.7-38.8,38.8
			C774.9,237.4,767.7,198.6,736.1,198.6z"/>
		<path fill="#F98E00" d="M70.4,373.8c0,0,53.1-14.6,53.1-53.1c0,0,12.3,53.1,53.1,53.1c0,0-53.1,17.4-53.1,53.1
			C123.5,426.9,113.7,373.8,70.4,373.8z"/>
	</g>
	<ellipse fill="#FF9999" cx="642.5" cy="486.7" rx="25.1" ry="20.1"/>
	<ellipse fill="#FF9999" cx="79.9" cy="486.7" rx="25.1" ry="20.1"/>
	<g>
		<path fill="#FF8B00" d="M356,503.2c0,0,5.2,33,17.4,33.1c12.2,0.1,25.1-25.1,25.1-25.1S376.6,495,356,503.2z"/>
		<path fill="#FF7300" d="M376.8,531.6c-9.8-0.1-15.1-21.4-16.8-29.7c-1.3,0.3-2.7,0.8-4,1.3c0,0,5.2,33,17.4,33.1
			c7.2,0,14.6-8.7,19.5-15.8C388.3,526.2,382.5,531.7,376.8,531.6z"/>
		<path fill="#FF8B00" d="M356,503.2c0,0,7.3-26,25.2-26c10.6,0,30.2,33.5,28.9,50.2C410.2,527.3,380.7,506.3,356,503.2z"/>
		<path fill="#FF7300" d="M368.9,494.7c0-5.1,3.6-11.5,7.4-16.7c-14.3,4.2-20.2,25.3-20.2,25.3c24.7,3.1,54.1,24.2,54.1,24.2
			c0.1-1.4,0-2.9-0.1-4.5C396.8,508,368.9,503.4,368.9,494.7z"/>
		<path fill="#FFA039" d="M375.2,492.9c0,0,2-8.8,7.9-10.2c5.9-1.4,20.6,25.1,21.2,29.8C404.3,512.5,374.2,498.3,375.2,492.9z"/>
		<path fill="#FFA039" d="M368.3,509.3c0,0,16.5,3.5,19.9,8.2c3.3,4.7-8.7,10.2-12.3,9.9C370.6,526.8,362.3,508.3,368.3,509.3z"/>
	</g>
	<path fill="#F99300" d="M447.9,678.1c0,0-3.5-33.4-54.9-41.8c-1.4-7.2-6.1-18.9-14.5-29.8l0-0.1c5.7-22.8,60.8-35.3,59.3-35.4
		c-43.4-3-61.3,20.1-66,27.8c-17.1-16.9-44.8-27.6-85.3-5.9c0,0,44.3-16.3,71.3,7.4c27,23.6,29.4,41,22.9,44.7
		c-6.5,3.7-50.3,7-60.6,28.8c0,0,21.2-13.3,38.4-15.5c16.9-2.2,31.3-6,34.5-15.8C404.3,645,435.4,653.9,447.9,678.1z"/>
	<path fill="#FFDA3E" d="M296.9,604.9c0,0,44.5,3.3,59.1,21.1c14.6,17.8-19.8,20.2-36.8,29.8C302.4,665.4,273.3,601.1,296.9,604.9z"
		/>
	<path fill="#FFDA3E" d="M439.9,578.2c-0.8,0.3-24.7,8.4-34.3,26.5c-9.6,18.1,3.5,24.9,12.8,29.1c9.4,4.2,26.3,16.7,31.8,27.7
		c5.5,11,9.1-17.5,6.7-39.4C454.7,600.4,451.2,574.4,439.9,578.2z"/>
	<path fill="#E22C14" d="M413.9,95.3c0,0-42-91.5-79.4-78.4c-37.5,13.1-0.3,111,7.3,114.6c7.7,3.7,90.1-23.8,174.5,21
		c84.5,44.8,133.6,157.5,145.3,164c11.7,6.4,39.9-28.9,12.2-66.2c-27.7-37.3-56.4-26.1-56.4-26.1s29.1-61.3-1-86.1
		c-30.1-24.7-82.6,3.5-82.6,3.5s-9.6-108.9-46-113.9S413.9,95.3,413.9,95.3z"/>
	<path fill="#FFA039" d="M160.5,782.5c0,0,50.9,17.5,50.9,23.6c0,6.1-50,15.7-62,5C137.5,800.4,144.4,778.5,160.5,782.5z"/>
	<path fill="#FFA039" d="M584.1,810.9c0,0,34.2-14.6,39.4-13.4c5.1,1.2,14.2,17.4,8.4,21.7C618.5,828.9,568.9,818,584.1,810.9z"/>
</g>
</svg>
