<?xml version="1.0" encoding="utf-8"?>
<!-- Generator: Adobe Illustrator 17.1.0, SVG Export Plug-In . SVG Version: 6.00 Build 0)  -->
<!DOCTYPE svg PUBLIC "-//W3C//DTD SVG 1.1//EN" "http://www.w3.org/Graphics/SVG/1.1/DTD/svg11.dtd">
<svg version="1.1" id="Layer_1" xmlns="http://www.w3.org/2000/svg" xmlns:xlink="http://www.w3.org/1999/xlink" x="0px" y="0px"
	 width="985.8px" height="795.7px" viewBox="0 0 985.8 795.7" enable-background="new 0 0 985.8 795.7" xml:space="preserve">
<g>
	<path fill="#98DAEA" d="M771.1,441c0,0,32.3-3.5,64.8-49.7s107.7-60.3,141.3-1.1c36.7,64.7-51.9,114.6-114.9,102.1
		C791,478.2,771.1,441,771.1,441z"/>
	<path fill="#8CD2DD" d="M821.5,442.9c-4.3-8.7-6.3-17.8-6.9-26.7c-24,22.7-43.5,24.8-43.5,24.8s19.9,37.2,91.2,51.3
		c33.2,6.6,73.5-4.2,98.9-25.3C907.8,487,836.3,473.2,821.5,442.9z"/>
	<path fill="#A5E5EF" d="M836.6,413.3c0,0,22.3-41.2,78.1-45.5c36.5-2.8,69.6,33.9,50.6,69.8c-12.6,23.8-86.8,31.1-110.9,14.3
		C832.1,436.5,833.3,416.8,836.6,413.3z"/>
	<path fill="#CD2606" d="M429.1,0c-37.3,0-69.2,22.7-82.8,55.1c-13.6-8.3-29.5-13.2-46.6-13.2c-49.6,0-89.7,40.2-89.7,89.7
		c0,2.9,0.2,5.7,0.4,8.4c-36.1,2.8-64.5,32.9-64.5,69.6c0,38.6,31.3,69.9,69.9,69.9c35.1,0,64.1-25.9,69.1-59.6
		c4.8,0.8,9.7,1.3,14.8,1.3c37.3,0,69.2-22.7,82.8-55.1c13.6,8.3,29.5,13.2,46.6,13.2c49.6,0,89.7-40.2,89.7-89.7
		C518.8,40.2,478.6,0,429.1,0z"/>
	<path fill="#B51702" d="M511.5,54.3C497.8,22.4,466,0,429.1,0c-37.3,0-69.2,22.7-82.8,55.1c-13.6-8.3-29.5-13.2-46.6-13.2
		c-49.6,0-89.7,40.2-89.7,89.7c0,2.9,0.2,5.7,0.4,8.4c-36.1,2.8-64.5,32.9-64.5,69.6c0,35.7,26.8,65.1,61.3,69.3
		c1.7-18.3,0.3-38.6-11.9-34.7c-19.7,6.4-41.4-23.6-28.9-55.1c12.5-31.4,52.8-35.3,57.3-41.7c4.4-6.4-9.5-55.3,37.3-75.1
		c46.7-19.7,81.8,0.3,87.9-1.7c6.1-1.9,18.5-46.2,81.8-53.9C468.3,12.3,495.6,35.1,511.5,54.3z"/>
	<path fill="#FF8B00" d="M725.7,403.9c0,0,50.9,30,53.7,37.6c2.9,7.7-43.1,47.5-43.1,47.5L725.7,403.9z"/>
	<path fill="#FF7300" d="M736.3,489c0,0,18.6-16.1,31.3-29.8c-20.7-5.8-27.3-32.6-29.3-47.6c-7.3-4.5-12.7-7.7-12.7-7.7L736.3,489z"
		/>
	<path fill="#FF8B00" d="M404,708.2c0,0,7.2,87.9,40.9,87.5c33.7-0.5,46.5-90.7,46.5-90.7L404,708.2z"/>
	<path fill="#FF7300" d="M452.9,786.6c-27.2,0.4-37.1-56.5-40-78.7l-8.9,0.3c0,0,7.2,87.9,40.9,87.5c8.6-0.1,15.8-6.1,21.8-14.9
		C462.6,784.4,458,786.6,452.9,786.6z"/>
	<path fill="#FECE00" d="M49,452.8c0,0,58.6-1.7,79-68.6S197.4,144.1,389,105.9s327.3,170,351.5,368S621.4,763,394.7,749
		S71.9,578.8,49,452.8z"/>
	<path fill="#FFDA3E" d="M698.8,421.8c-23.2-144.3-135.8-244.7-226-242.3c-90.2,2.4-213,89-234.1,148
		c-21.1,58.9-49.6,131.7-49.6,131.7c-15.5,40.2-0.2,99.4,48.2,147.8s192.4,97,308.9,72.6C644.1,659,721.9,566.1,698.8,421.8z
		 M393.1,609.6c-34.9,9.8-114.2-16.1-103.2-54.6c0,0,28-69.8,60.7-86.9c32.8-17.1,120.2,14.9,126.3,43.4
		C482.9,540,428,599.8,393.1,609.6z"/>
	<path fill="#FCC000" d="M350.4,512c0,0-11.5,32.8-8.8,45.1c2.7,12.3,69.6,4.3,69.6,4.3s-4.8,10.5-32.7,13.6
		c-27.9,3-55.1,6.7-57.1-5.4C319.4,557.6,350.4,512,350.4,512z"/>
	
		<ellipse transform="matrix(0.9938 -0.1109 0.1109 0.9938 -51.1779 58.3956)" fill="#FF9999" cx="499.3" cy="489.2" rx="27.2" ry="24.4"/>
	<g>
		<circle cx="572" cy="405.5" r="47.3"/>
		<circle fill="#FFFFFF" cx="577.7" cy="429.4" r="11.6"/>
		<path fill="#FCAE00" d="M616.7,389.8c-6.5-18.4-24-31.7-44.6-31.7c-26.1,0-47.3,21.2-47.3,47.3c0,1,0.1,1.9,0.1,2.8
			C541,411.2,578,414,616.7,389.8z"/>
		<path fill="#F99300" d="M616.7,389.8c-0.9-2.6-2.1-5-3.4-7.3c-19.2,17.9-68.3,25.8-74.2,12.2c-2.6-6.1-1.6-15,0.7-23.8
			c-9.3,8.6-15.1,20.9-15.1,34.6c0,1,0.1,1.9,0.1,2.8C541,411.2,578,414,616.7,389.8z"/>
		<path fill="#FFC145" d="M546.3,386.3c0,0-1.9-13.3,10.2-20.3c12.1-7,43.3,1,44.2,12.4C601.5,389.8,550,407.7,546.3,386.3z"/>
	</g>
	<path fill="#F99300" d="M350.4,512c-1.4,0.5-25.3,47.2-25,56.9c0.3,9.7,65.7,0.6,73.7-2.5c8-3.1,43.7-38.1,43.7-38.1
		s-15.8,28.3-34,41.7c-18.2,13.4-85.1,17.9-93.4,6.9C307,566,350.4,512,350.4,512z"/>
	<path fill="#FCC000" d="M426.5,715.2C202.5,694.3,87,512.8,135.7,452.8c48.7-60,53.6-228.7,212.8-292.7
		c81.5-32.7,170-20.1,237.6-0.1c-54.8-45.8-121.6-69.2-197.2-54.1C197.4,144.1,148.3,317.3,128,384.2c-20.4,66.9-79,68.6-79,68.6
		c22.9,126,119.1,282.2,345.7,296.2c97.5,6,179.5-7.4,239.4-40.4C583.8,717.8,515.2,723.4,426.5,715.2z"/>
	<path fill="#FFDA3E" d="M350.7,545c0,0,9.9-36,13.1-40c3.2-4,69.7,4,71.6,9c1.9,5-27.5,34.4-34.2,38.5S347.5,556.5,350.7,545z"/>
	<path fill="#FFA039" d="M441.9,756.3c0,0,26.7-2.4,29.6,0c2.9,2.4-6.9,23.2-18.3,23.6C441.8,780.3,429.6,757.1,441.9,756.3z"/>
	<path fill="#FFA039" d="M751.7,425c0,0,18.2,10.1,19.8,13.9c1.6,3.8-4.1,10.4-9.2,10.4C757.3,449.3,734.6,416.8,751.7,425z"/>
	<path fill="#E02810" d="M369.4,66.1c0,0,30.6-36.1,79-35.6c48.4,0.5,61,52.2,57.9,62.6c-3.1,10.4-48.9-19-138.9,3.9
		c-90,22.9-164.7,103.7-176.1,119.7c-11.3,16-27-18.8-11-34.8c16-16,54-28.4,59.9-33.6c5.9-5.3-5.1-38.5,22.3-59.5
		c27.4-20.9,71.8-7.4,81.8-9C354.3,78.2,364.2,71.4,369.4,66.1z"/>
	<g>
		<g>
			<path fill="#CD2606" d="M49.1,452.8c0,0,5.2-61.7-21.9-69.4C0.1,375.8-4.7,424.9,49.1,452.8z"/>
			<path fill="#E02810" d="M45,433c0,0-1.5-38.7-14.9-42.5C16.7,386.8,18.4,419.2,45,433z"/>
			<path fill="#B51702" d="M22.9,382.7c-23.1-1.5-24.6,43.7,26.2,70.1c0,0,0.2-2.9,0.3-7.3C14.2,423.1,10.4,391.5,22.9,382.7z"/>
		</g>
		<g>
			<path fill="#CD2606" d="M49,452.8c0,0,32.2-17.8,29.9-45.2C76.7,380.3,34.5,384.6,49,452.8z"/>
			<path fill="#B51702" d="M49.6,405.3c-4,9.8-5.3,25.3-0.6,47.6c0,0,7.1-3.9,14.4-11c-10.3-14.9-9.7-34.4-7.5-45.9
				C53.6,398.1,51.4,401.2,49.6,405.3z"/>
			<path fill="#E02810" d="M64.3,431c0,0,17.6-20,8.8-30.5C64.2,389.9,51.3,407.3,64.3,431z"/>
		</g>
		<g>
			<path fill="#CD2606" d="M49.1,452.8c0,0-27.6-26.1-44.3-8.7C-12.1,461.6,19.1,478.5,49.1,452.8z"/>
			<path fill="#B51702" d="M2.8,446.5c-12,16.5,17.6,30.9,46.2,6.3c0,0-0.8-0.7-2-1.7C23,468.4-0.1,459.6,2.8,446.5z"/>
			<path fill="#E02810" d="M38.1,450.4c0,0-13.6-9.8-23.5-8c-9.9,1.8-9.1,10-3.9,13.2C16,458.7,32.4,456.7,38.1,450.4z"/>
		</g>
	</g>
	<ellipse transform="matrix(0.866 -0.5 0.5 0.866 -73.3238 494.0916)" fill="#FFFFFF" cx="885.3" cy="383.9" rx="30.3" ry="15"/>
</g>
</svg>
