<?xml version="1.0" encoding="utf-8"?>
<!-- Generator: Adobe Illustrator 17.1.0, SVG Export Plug-In . SVG Version: 6.00 Build 0)  -->
<!DOCTYPE svg PUBLIC "-//W3C//DTD SVG 1.1//EN" "http://www.w3.org/Graphics/SVG/1.1/DTD/svg11.dtd">
<svg version="1.1" id="Layer_1" xmlns="http://www.w3.org/2000/svg" xmlns:xlink="http://www.w3.org/1999/xlink" x="0px" y="0px"
	 width="1085.7px" height="769.6px" viewBox="0 0 1085.7 769.6" enable-background="new 0 0 1085.7 769.6" xml:space="preserve">
<g>
	<g>
		<path fill="#FECE00" d="M729,313.9c0,0,41.5,45.3,109.7,55s-5.4,69.8-85.7,64.6S729,313.9,729,313.9z"/>
		<path fill="#FCC000" d="M857.5,401.5c-17.1,6.2-56.1,17.7-63.9-3.1c-5.3-14.1-13.1-34.6-19.4-51c-28.9-15.7-45.2-33.4-45.2-33.4
			s-56.4,114.5,23.9,119.6C797.6,436.5,840.2,419.2,857.5,401.5z"/>
		<path fill="#FFDA3E" d="M800.4,367.4c0,0,26,7.7,45.4,10.8c19.4,3,6.2,22.3-13.4,23.8c-19.6,1.5-28.4-3.7-30.7-7.6
			C799.3,390.5,786.1,363.4,800.4,367.4z"/>
	</g>
	<g>
		<path fill="#FF8B00" d="M508.4,702c0,0,27.8,50.3,42.5,54.6c14.7,4.4,29.5-66.7,29.5-66.7L508.4,702z"/>
		<path fill="#FF7300" d="M551,756.6c4.6,1.4,9.2-4.6,13.3-13.5c-25.1-1.7-39.7-29.8-45.2-42.9l-10.7,1.8
			C508.4,702,536.2,752.3,551,756.6z"/>
		<path fill="#FFA039" d="M543.3,719.2c0,0,18.4-6.5,22.1-5.5c3.6,0.9-0.8,19.9-6,21.7C554.1,737.2,535.4,721.8,543.3,719.2z"/>
	</g>
	<g>
		<path fill="#FF8B00" d="M427.3,711c0,0,23.1,52.6,37.4,58.3c14.3,5.7,35.5-63.7,35.5-63.7L427.3,711z"/>
		<path fill="#FF7300" d="M464.7,769.3c4.5,1.8,9.6-3.8,14.5-12.2c-24.8-4-36.8-33.3-41.1-46.9l-10.8,0.8
			C427.3,711,450.4,763.6,464.7,769.3z"/>
		<path fill="#FFA039" d="M460.5,731.4c0,0,18.9-4.7,22.5-3.5c3.5,1.3-2.6,19.8-8,21C469.6,750.2,452.4,733.2,460.5,731.4z"/>
	</g>
	<path fill="#CD2606" d="M492.6,109.7c0,0,7.7-61.1-32.6-68.5c-40.2-7.5-62.9,27.3-62.9,27.3S367.3-18.2,290.7,3.5
		c-76.6,21.7-78.8,90.5-69.4,120.1c0,0-131.7,12.7-66.9,131.7c0,0-50.3,3.9-57.7,48.7c-7.5,44.8,64.9,82.6,64.9,82.6l220.3-100.8
		c0,0,50.3-54.8,61.5-59.1c11.2-4.2,39.5-50.3,39.2-54.5C482.1,168,492.6,109.7,492.6,109.7z"/>
	<path fill="#BC1A04" d="M144.8,376.3l2.5-1.9c0,0-40.6-30.9-41.6-65.6c-1.1-34.7,48.7-53.6,48.7-53.6c0,0-50.3,3.9-57.7,48.7
		C91.5,334.7,123.9,362.1,144.8,376.3z"/>
	<path fill="#E22C14" d="M154.4,267.9c0,0-31.5,11.7-38.6,34.1c-7.1,22.4,15.6,45,18.1,43S167,263.2,154.4,267.9z"/>
	<path fill="#BC1A04" d="M460.1,41.1c-40.2-7.5-62.9,27.3-62.9,27.3S367.3-18.2,290.7,3.5c-76.6,21.7-78.8,90.5-69.4,120.1
		c0,0-131.7,12.7-66.9,131.7c0,0-17.5-50.6,6.6-84.1c24.1-33.4,77.9-19.5,77.1-47.8c-0.8-28.2,3.2-91.2,56.6-104.8
		s94.9,66.5,97.8,64.1c2.9-2.4,31.6-33.1,59-32c27.4,1.1,41.2,59,41.2,59S500.3,48.6,460.1,41.1z"/>
	<path fill="#E22C14" d="M399.8,92.2c0,0,30.8-27.3,51.8-24.1c21,3.2,28.5,34,23.3,45.1c-5.1,11.1-29.5,29.8-35.2,31.6
		c-5.7,1.8-65-37.2-129.3-17.1C209.9,159.1,182.8,221.4,173.3,240c-9.5,18.6-17-52.2,10.7-71.6c27.7-19.4,65.4-25.5,75.5-38.7
		c10.1-13.2-1.8-76.1,40.3-91.3S382.1,105.2,399.8,92.2z"/>
	<g>
		<path fill="#CD2606" d="M74.7,527.6c0,0,2.5-19.5-5.8-47.1C60.5,453,34,433,20.5,448.2C-3.6,475.4,48.8,525.5,74.7,527.6z"/>
		<path fill="#BC1A04" d="M48.6,499.7c-5.7-2.2-17.8-7.7-26.5-11.7c12.5,20.2,37.2,38.4,52.6,39.7c0,0,2.5-19.5-5.8-47.1
			c-1.3-4.4-3.1-8.6-5.3-12.5C53.9,481.5,58.1,503.4,48.6,499.7z"/>
		<path fill="#CD2606" d="M74.7,527.6c0,0-56.1-53.1-71.4-25.5C-12.1,529.8,29.5,563.2,74.7,527.6z"/>
		<path fill="#BC1A04" d="M0,514c-0.2,23.8,35.9,44.1,74.7,13.6c0,0-2.3-2.2-6.2-5.5C36.4,544.3,7.1,532.5,0,514z"/>
		<path fill="#E22C14" d="M55.6,520.5c0,0-30.4-31.6-45.2-16.9C2.3,511.5,25.2,535.4,55.6,520.5z"/>
		<path fill="#CD2606" d="M74.7,527.6c0,0-14.9-15.3-15.1-38.5c-0.2-23.2,37.9-37.3,44.7-18C110.9,490.4,86.8,519.6,74.7,527.6z"/>
		<path fill="#BC1A04" d="M100.7,465.7c2.5,18.4-11.9,43.6-23.7,46.8c-5.3,1.4-9.8-0.3-13.4-3.1c4.5,11.4,11.1,18.2,11.1,18.2
			c12.2-8,36.3-37.2,29.5-56.5C103.4,468.9,102.2,467.1,100.7,465.7z"/>
		<path fill="#E22C14" d="M71.5,505.4c0,0-9-10-6.7-20.4c2.2-10.4,20-19.6,26.7-15.5C98.3,473.4,80.8,512.4,71.5,505.4z"/>
		<path fill="#E22C14" d="M45.4,489.6c0,0-16.5-1.2-23.3-21c-4.2-12.2,8.9-20.6,15.3-18.2c6.4,2.4,15.3,14.6,16.3,19.4
			C54.6,474.6,52.2,489.8,45.4,489.6z"/>
	</g>
	<path fill="#FECE00" d="M438.9,163.5c0,0-88.4-61-183.9,0s-124.3,216-129.1,294.7c-4.8,78.7-56.6,64.3-56.6,64.3
		s85.4,194.4,337.9,203.5c252.5,9.1,388.4-152.9,376.3-294.8c-12-142-160.8-303.3-290.9-321.5C492.6,109.7,476.8,137.5,438.9,163.5z
		"/>
	<path fill="#FFDA3E" d="M216.8,389.2c0,0,15.5-127.4,82.3-164.8s125.2-9.1,153-13.7s67-52.4,93-49.2c26,3.2,184.6,96.1,202.3,256.5
		c17.8,160.5-129.4,209.7-247.9,222c-118.5,12.3-253.4-31.9-266.1-54.7c-12.8-22.8,61.1-29.6,56.5-64.7
		C285.4,485.6,207.2,436,216.8,389.2z"/>
	<ellipse fill="#FF9999" cx="333.6" cy="416.1" rx="34.5" ry="26.9"/>
	
		<ellipse transform="matrix(0.9977 -6.732094e-002 6.732094e-002 0.9977 -20.3174 50.6607)" fill="#FF9999" cx="741.5" cy="326.8" rx="34.5" ry="26.9"/>
	<g>
		<path d="M389.1,381.4c-3.3,0-6.1-2.4-6.7-5.7c-0.2-1.5-5.6-36.6,19.6-44.4c20.5-6.3,35.4,17.3,40.9,32.3c1.3,3.5-0.5,7.4-4,8.7
			c-3.5,1.3-7.4-0.5-8.7-4c-0.1-0.3-11.1-28.2-24.2-24.1c-14,4.3-10.3,29.1-10.3,29.3c0.6,3.7-1.9,7.1-5.6,7.7
			C389.8,381.4,389.5,381.4,389.1,381.4z"/>
	</g>
	<g>
		<path d="M639.7,317.6c-3.3,0-6.1-2.4-6.7-5.7c-0.2-1.5-5.6-36.6,19.6-44.4c20.5-6.3,35.4,17.3,40.9,32.3c1.3,3.5-0.5,7.4-4,8.7
			c-3.5,1.3-7.4-0.5-8.7-4c-0.1-0.3-11.1-28.2-24.2-24.1c-14,4.3-10.3,29.1-10.3,29.3c0.6,3.7-1.9,7.1-5.6,7.7
			C640.5,317.6,640.1,317.6,639.7,317.6z"/>
	</g>
	<path fill="#FF8B00" d="M594.5,350.5c0,0-27,12-28.9,30.9c0,0,16.7,18.7,39.1,15.3c0,0-31.3,30.3-61.5,6.1
		C513.5,379.2,550.5,317.5,594.5,350.5z"/>
	<path fill="#FF7300" d="M596.9,397.1c-11.8,6.8-31.3,13.2-50.4-2c-10.7-8.5-12.7-22-8.9-34.2c-7.6,13.8-7.5,31.5,5.6,41.9
		c30.3,24.1,61.5-6.1,61.5-6.1C602,397.2,599.4,397.2,596.9,397.1z"/>
	<path fill="#FFA039" d="M580.7,351c0,0-20.5,14.2-22,32.4c0,0,8.5,10.9,21.2,13.4c0,0-24.5,7.6-36.3-14.8
		C532.5,360.9,567.5,339.7,580.7,351z"/>
	<path fill="#FCC000" d="M202.9,466.3c0,0,2.6,26.6-16.9,45.9c-19.5,19.4,14.3,32.1,14.3,32.1s-38-3.8-44.7-12.6
		c-6.7-8.9,17.8-29.1,17.8-29.1S194.8,485.7,202.9,466.3z"/>
	<path fill="#F99300" d="M202.9,466.3c0,0-14.4,22-48.4,47.1c-33.9,25.1,33.3,56.2,100.5,20.7c0,0-71.1,17.3-88.5-2.5
		C152,515.3,195,508.4,202.9,466.3z"/>
	<path fill="#FFDA3E" d="M194.1,517.3c0,0,13.1-23.1,16.8-36.5c3.7-13.4,35.3,38.4,31.8,45.8c-3.5,7.4-43.8,8.7-48.6,4.7
		C189.2,527.3,190,524.9,194.1,517.3z"/>
	<path fill="#FCC000" d="M715.7,614.5c-48.8,22.7-121.8,45.4-228.8,57.1c-260.4,28.5-353.2-110.7-363.7-138
		c-10.5-27.3,30.6-41.7,40.1-81.3c9.5-39.5,33.2-187.1,107.5-243.5c74.3-56.4,168.1-45.3,168.1-45.3s-88.4-61-183.9,0
		s-124.3,216-129.1,294.7c-4.8,78.7-56.6,64.3-56.6,64.3s85.4,194.4,337.9,203.5C548.2,731.1,652.9,682.9,715.7,614.5z"/>
	<g>
		<path d="M907.6,306.1c-0.9,0-1.7,0-2.6-0.1c-10.8-0.8-17-6.3-22-10.8c-4.6-4.1-7.8-7.1-13.5-6.4c-12.8,1.4-22.6,15.6-22.7,15.7
			c-1,1.5-3.2,1.9-4.7,0.9c-1.5-1.1-1.9-3.2-0.9-4.7c0.5-0.7,11.7-16.8,27.6-18.6c8.6-0.9,13.8,3.6,18.8,8.1
			c4.7,4.2,9.5,8.5,17.9,9.1c6.8,0.5,12-1.2,15.6-4.9c4.4-4.6,6.3-12.2,5.4-21.6c-0.2-1.9,1.2-3.5,3-3.7c1.8-0.2,3.5,1.2,3.7,3
			c1.2,11.4-1.4,21-7.2,27C921.4,303.7,915.1,306.1,907.6,306.1z"/>
	</g>
	<g>
		<path fill="#191919" d="M776.4,24.8L733.3,7.3v73.2c-3.5-1.9-7.7-3-12.2-3c-12.6,0-22.9,8.5-22.9,19.1c0,10.5,10.2,19.1,22.9,19.1
			c11.7,0,21.3-7.4,22.6-16.9l0.1-1l0.1-53.2L776.4,24.8z"/>
		<g>
			<path d="M742.9,101.9c-9.2,11.9-28.6,7.9-34.8-0.9c-4.7-6.7-3.3-14.1-1-19.3c-5.4,3.5-8.9,8.9-8.9,15c0,10.5,10.2,19.1,22.9,19.1
				C731.5,115.7,740.2,109.8,742.9,101.9z"/>
			<polygon points="733.3,7.3 733.3,80.5 739.5,9.8 			"/>
		</g>
		<path fill="#2D2D2D" d="M764.3,25.8l-22.1-7.9l-6.3,71.7c0,0-6.1-6.9-16.5-5.8c-10.4,1-12.7,11.4-3.6,16.8
			c9.1,5.3,25.4,2.5,25.4-7.1c0-9.7,0.3-53.9,0.3-53.9L764.3,25.8z"/>
	</g>
	<g>
		<path fill="#191919" d="M960.8,340.5l29.4,75.7c-4.4-0.5-9.2,0-13.8,1.8c-13.1,5.1-20.2,18-16,28.9c4.2,10.9,18.2,15.6,31.3,10.5
			c12.1-4.7,19-16.2,16.6-26.5l-0.3-1.1l-33.7-87.2L960.8,340.5z"/>
		<g>
			<path d="M967.4,445.4c-5.8-7.7-2.8-16.7-0.3-21.7c-6.8,6.3-9.8,15.2-6.7,23.1c4.2,10.9,18.2,15.6,31.3,10.5
				c7-2.7,12.1-7.7,14.9-13.4C991.8,457.3,974.1,454.3,967.4,445.4z"/>
			<polygon points="960.8,340.5 990.2,416.2 965.7,341.2 			"/>
		</g>
		<path fill="#2D2D2D" d="M971.5,348.1l25,74.7c0,0-10-2.7-18.1,1.3c-8.1,4-10.7,14.2-2.5,20.1c8.2,5.9,32.7-1.3,28.4-14.3
			c-4.5-11.6-29.7-79.2-29.7-79.2L971.5,348.1z"/>
	</g>
	<g>
		<path fill="#191919" d="M1059.2,175.5l-0.5,0.2l-84.9,21.9l9.4,30.1l0,0l11.6,37c-3.8-0.7-7.9-0.5-12,0.8
			c-11.6,3.6-18.5,14.4-15.5,24c3,9.6,14.8,14.5,26.4,10.9c10.8-3.4,17.4-12.9,15.9-21.9l-0.1-1.1L993.1,225l65.3-17.4l12.4,39.6
			c-3.8-0.7-7.9-0.5-12,0.8c-11.6,3.6-18.5,14.4-15.5,24c3,9.6,14.8,14.5,26.4,10.9c10.8-3.4,17.4-12.9,15.9-21.9l-0.3-1.5
			l-16.9-54.4l0.1,0L1059.2,175.5z"/>
		<g>
			<path d="M1009.2,285c-9.5,9.8-23.8,12.1-31.8,5.8c-6.4-5-7-12.7-6.7-17.2c-3.6,4.6-5.1,10.3-3.4,15.7c3,9.6,14.8,14.5,26.4,10.9
				C1001.7,297.8,1007.5,291.7,1009.2,285z"/>
			<polygon points="973.8,197.6 983.2,227.6 994.7,264.6 979.6,196 			"/>
		</g>
		<g>
			<path d="M1084,270.6c-12.4,10-28.5,7.6-33.6,1.4c-4.2-5.2-4.1-12.1-3.5-16.3c-3.9,4.7-5.5,10.6-3.8,16.2
				c3,9.6,14.8,14.5,26.4,10.9C1076.4,280.6,1081.6,276,1084,270.6z"/>
			<path d="M1070.7,247.1c-2-0.4-4.1-0.5-6.3-0.3L1070.7,247.1z"/>
			<polygon points="1070.7,247.1 1060.6,203.3 993.1,225 1058.3,207.5 			"/>
		</g>
		<path fill="#2D2D2D" d="M997.1,267.7L985,200l72.7-19.3l23.6,76.1c0,0,1.5,11.3-8.6,14.7c-10.1,3.4-19.2-3.3-20-8.6
			c-0.8-5.3,2.5-10.9,9.2-11.9c6.6-1.1,13.1,2.1,13.1,2.1l-13-54l-71,24.8l14.2,48.9c0,0,2.9,10.2-6.2,14.5
			c-9.1,4.3-19.8-0.3-21.1-6.6c-1.3-6.3,5.7-12.4,11.1-13.3C994.4,266.4,997.1,267.7,997.1,267.7z"/>
	</g>
</g>
</svg>
