<?xml version="1.0" encoding="utf-8"?>
<!-- Generator: Adobe Illustrator 17.1.0, SVG Export Plug-In . SVG Version: 6.00 Build 0)  -->
<!DOCTYPE svg PUBLIC "-//W3C//DTD SVG 1.1//EN" "http://www.w3.org/Graphics/SVG/1.1/DTD/svg11.dtd">
<svg version="1.1" id="Layer_1" xmlns="http://www.w3.org/2000/svg" xmlns:xlink="http://www.w3.org/1999/xlink" x="0px" y="0px"
	 width="1074.5px" height="839px" viewBox="0 0 1074.5 839" enable-background="new 0 0 1074.5 839" xml:space="preserve">
<g>
	<g>
		<polygon points="765.8,581 948.7,795.6 937,805 764.8,582.1 		"/>
		<polygon points="343.1,252.6 194.9,12.8 207.9,5.3 344.3,251.7 		"/>
		<polygon points="406.8,311.3 280,59.4 293.6,53.1 408,310.4 		"/>
		<polygon points="461.4,299 372.4,31.5 386.8,27.2 462.8,298.3 		"/>
		<polygon points="493.4,277.7 430.2,2.9 444.8,0 494.9,277.2 		"/>
		<polygon points="510.8,319.7 510.8,37.8 525.8,38.2 512.3,319.5 		"/>
		<polygon points="554,295.2 584.9,14.9 599.7,17 555.5,295.2 		"/>
		<polygon points="582.5,276.2 660.6,5.3 674.9,9.9 584,276.5 		"/>
		<polygon points="619.4,263.2 756.2,16.7 769.1,24.4 620.8,263.8 		"/>
		<polygon points="636.4,281.2 811.5,60.3 823,69.9 637.7,282 		"/>
		<polygon points="687.4,279.4 900.4,94.7 909.9,106.3 688.5,280.4 		"/>
		<polygon points="698.2,307.9 927.6,144 936,156.5 699.2,309 		"/>
		<polygon points="733.6,324 992.9,213.3 998.3,227.2 734.3,325.3 		"/>
		<polygon points="794.8,343.1 1072.3,293.4 1074.5,308.2 795.3,344.6 		"/>
		<polygon points="782.6,404.1 1064.5,405.8 1063.9,420.8 782.7,405.6 		"/>
		<polygon points="775.1,445.3 1049,512.3 1045,526.7 774.9,446.9 		"/>
		<polygon points="787.7,504.6 1052.4,601.7 1046.8,615.6 787.3,506.1 		"/>
		<polygon points="787.5,580 1031,722 1023.1,734.7 786.8,581.4 		"/>
		<polygon points="728.9,570.1 827.6,834.2 813.5,839 727.6,570.7 		"/>
		<polygon points="314.6,606.3 50,703.6 45.3,689.4 313.9,605 		"/>
		<polygon points="288.1,561.5 13.9,627.1 10.8,612.5 287.6,560.1 		"/>
		<polygon points="288.4,501.9 11.5,555 9.1,540.2 287.9,500.4 		"/>
		<polygon points="281.5,482.1 0,467 1.3,452.1 281.4,480.6 		"/>
		<polygon points="285.6,451.6 12.2,382.5 16.3,368.1 285.8,450.1 		"/>
		<polygon points="288.4,417.6 29.7,305.4 36.1,291.9 288.8,416.2 		"/>
		<polygon points="290.2,382.8 67.4,210.1 76.9,198.5 291,381.5 		"/>
		<polygon points="271.5,318.1 76.5,114.4 87.7,104.4 272.5,316.9 		"/>
		<polygon points="289.9,266.5 120.6,41 132.9,32.4 291,265.4 		"/>
		<polygon points="416.3,289.4 314.9,26.3 329.1,21.3 417.6,288.7 		"/>
	</g>
	<path fill="#DD0000" d="M624.6,40.5c0,0,49.4,78.5,168.1,25.2c0,0,9.9,79.8,78.5,110.6c0,0-80.2,50.2-56,120.1
		c0,0-80-13.8-105.2,34.1c0,0-117.9-97.5-170.4-88.2c0,0,22.3-57.7-15.2-99.3C524.4,143.1,600.5,119.6,624.6,40.5z"/>
	<path fill="#FF2C2C" d="M661.8,97.3c0,0,48.4,14.7,100.8-2.2c0,0,20.4,57.9,63.5,79c0,0-42.8,51.1-36.9,95.5c0,0-38,3.3-53.3,11.5
		c0,0-90.8-66.5-137.6-82.6c0,0,0.4-25.9-4.9-48.4C593.5,150,637.9,132.6,661.8,97.3z"/>
	<path fill="#C40000" d="M568.8,150c41.4-15.7,65.9-56.3,79-86.5c-15.9-11.3-23.3-23-23.3-23c-24.1,79.2-100.2,102.6-100.2,102.6
		c37.5,41.5,15.2,99.3,15.2,99.3C592.1,233,710,330.5,710,330.5c5.5-10.4,13.6-17.9,22.8-23.3c-48.6-49-162-97.5-162-97.5
		C577.4,194.7,568.8,150,568.8,150z"/>
	<g>
		<path fill="#CD2606" d="M171.6,607.8c0,0-13.8-67.2-44.1-65.6C97.3,543.7,71.9,595.7,171.6,607.8z"/>
		<path fill="#BC1A04" d="M170.1,601.5c-8.6-7.6-43.5-14.8-56.4-25.5c-5.9-4.9-9.4-11.1-11.5-16.4c-6.8,16.7,6,40.5,69.3,48.1
			C171.6,607.8,171.1,605.4,170.1,601.5z"/>
		<path fill="#CD2606" d="M171.6,607.8c0,0,32.3-60.6,2.2-76.9C143.8,514.6,111.9,558.1,171.6,607.8z"/>
		<path fill="#E22C14" d="M174,582.4c0,0,15.2-37.3-0.9-46.4S141.4,553.8,174,582.4z"/>
		<path fill="#BC1A04" d="M151,529.7c-17.8,8.8-23.1,41.8,20.6,78.1c0,0,2.6-4.8,5.5-12.1C146.4,568.4,142.9,543.4,151,529.7z"/>
		<path fill="#CD2606" d="M171.6,607.8c0,0-47.9-28.9-65.7-16.5C88,603.5,105.6,662.2,171.6,607.8z"/>
		<path fill="#BC1A04" d="M104.2,592.5c-15.1,14.6,3.5,67.9,67.4,15.2c0,0-1.6-0.9-4.2-2.4C119.9,639.6,100.8,611,104.2,592.5z"/>
		<path fill="#E22C14" d="M154,604.4c0,0-27.9-16.8-40.6-10.6C100.8,600.1,122,632.9,154,604.4z"/>
		<path fill="#E22C14" d="M143.6,581.8c0,0-8.8-16.5-11-27.2c-2.2-10.7-18.9-1.9-22.9,3.7c-4,5.6,12,20.6,23.5,24.1
			C144.8,585.9,145.3,585,143.6,581.8z"/>
	</g>
	<path fill="#CD2606" d="M499.6,209.7c0,0-12-109.4-79.9-124S308.2,134.3,324,188.3c0,0-40.9-16.2-82.6,10.8
		c-41.7,27-33.6,98.8,0,125c0,0-44.8,7.3-42.4,51.7c2.3,44.4,75.6,84.9,75.6,84.9l214.7-114.1l52.5-64.2L499.6,209.7z"/>
	<g>
		<g>
			<path fill="#BC1A04" d="M419.7,85.7C351.8,71,308.2,134.3,324,188.3c0,0,6.3-61.8,57.6-82c31.1-12.2,67.9,6.5,92,23
				C461.6,108.8,444.4,91,419.7,85.7z"/>
			<path fill="#BC1A04" d="M199,375.9c2.3,44.4,75.6,84.9,75.6,84.9l1.8-1c2.4-12.7-3.2-26.7-24.7-40.7c-68.3-44.1-10.3-95-10.3-95
				S196.7,331.5,199,375.9z"/>
			<path fill="#BC1A04" d="M241.4,199.1c-41.7,27-33.6,98.8,0,125c0,0-33.3-51.8-6.2-92.3c27.1-40.5,88.8-43.6,88.8-43.6
				S283.1,172.1,241.4,199.1z"/>
		</g>
	</g>
	<path fill="#FECE00" d="M480.4,262.6c0,0-77.6-31.9-148.9,13.7c-71.3,45.6-90.4,151.6-95.4,215.5s-32.8,104.4-67.4,112.6
		c0,0,10.1,173.2,250.7,216.9C659.9,865,823.5,730.6,844.9,582c21.4-148.6-144.3-321.3-345.3-372.3
		C499.6,209.7,500.5,233.4,480.4,262.6z"/>
	<path fill="#FFDA3E" d="M819.6,510.7c-3.2-80.3-213.9-243.6-260.6-249.8c-46.7-6.2-45.8,18.6-98.7,35.4
		c-52.8,16.8-115.4,73.8-128.8,132.3c-13.4,58.5-24,135.9-33.8,165.1c-9.7,29.2,10.1,72,33.8,87.2c0,0,94.2,76.9,250.4,45.5
		C738,695,822.8,591,819.6,510.7z M687.1,591c-29.2,11.5-96.5-32.7-110.9-31c-14.4,1.8-21.4,44.7-54.9,67.3
		c-33.4,22.6-102.1-7.1-102.1-7.1c-29.7-15-51.2-50.4-41.9-73c9.3-22.6,75.2-40.3,89.8-61.4c13.3-19.3-24.7-86.4,13.2-101.8
		c37.9-15.5,87.7,39.8,101.5,50.9c13.8,11.1,53.1-7.1,88.5,2.2C705.7,446.3,716.3,579.5,687.1,591z"/>
	<path fill="#FCC000" d="M639.2,463.3c0,0-33.7,9.6-40.7,29.9c-7.1,20.3,17.1,47.5,17.1,47.5s-36.6-21.9-39.1-42
		C573.9,478.6,606.7,466,639.2,463.3z"/>
	<path fill="#FCC000" d="M331.5,346.7c40-69.6,148.9-84.1,148.9-84.1s-77.6-31.9-148.9,13.7c-71.3,45.6-90.4,151.6-95.4,215.5
		c-5,63.9-32.8,104.4-67.4,112.6c0,0,10.1,173.2,250.7,216.9c196.9,35.8,342.2-47.8,400.2-160.8c-53.3,41.2-136.9,89.2-247.9,102.2
		C367.2,786.6,219.8,667.6,257,597C294.3,526.3,291.5,416.3,331.5,346.7z"/>
	<g>
		<path fill="#660000" d="M489.8,452.5c0,0,5.4-14.1,26-17c20.6-2.9,32.1,2.3,37.3,17c5.2,14.6,3.5,38.2-19.9,39.2
			C509.8,492.7,485.2,459.3,489.8,452.5z"/>
		<path fill="#540000" d="M526.6,474.3c-17.3-2.7-29.5-17.8-34.6-25.4c-0.7,1-1.2,1.9-1.6,2.5c-0.1,2.3,0.9,7.6,2.1,12.3
			c6.9,12.1,24.1,28.7,40.7,28c21.5-0.9,24.7-20.9,21-35.5C548.5,466,539.4,476.3,526.6,474.3z"/>
		<g>
			<path fill="#FF8B00" d="M490.7,455.9c0,0,30.8,36.3,48.2,27.7C556.3,475,541,437,541,437l20.6,13.3c0,0,11.1,50.4-17.7,59.4
				c-28.9,9-57.8-42.7-57.8-42.7L490.7,455.9z"/>
			<path fill="#FF7300" d="M545.7,502.2c-26.3,8.2-52.5-33.8-57-41.4l-2.6,6.2c0,0,28.9,51.6,57.8,42.7
				c11.8-3.7,16.8-14.2,18.8-25.4C559.9,492.4,554.8,499.3,545.7,502.2z"/>
			<path fill="#FFA039" d="M505,475.5c0,0,19.2,19.7,35.2,14c16-5.8,9.1-34.1,12.5-34.9c3.4-0.8,8.8,17.6,5,31.2
				c-3.8,13.7-22.7,17.8-37.6,6.1C505.1,480.2,491.8,463.1,505,475.5z"/>
		</g>
		<path fill="#FF8B00" d="M488.3,466.3c0,0,13-22.7,28.2-25.2c15.1-2.4,38.5,10.4,45.2,9.1c6.7-1.3-32.4-49.4-61.1-41
			C471.9,417.7,479.6,478.3,488.3,466.3z"/>
		<path fill="#FF7300" d="M511,438.1c-21.3,7.7-22.7,28.2-25.2,7.8c-1.4-11.5,3.4-24.2,8.2-33.3c-20.7,15.1-13.6,64.7-5.7,53.7
			c0,0,13-22.7,28.2-25.2c15.1-2.4,38.5,10.4,45.2,9.1c1.3-0.2,0.9-2.2-0.7-5C545.6,439.6,523.9,433.5,511,438.1z"/>
		<path fill="#FFA039" d="M488.9,439.8c0,0,0.2-18.9,12.8-25.7c12.6-6.8,50.3,21.8,49.5,24.1c-0.8,2.3-18.3-10-41.5-4.6
			C497.9,436.2,488.9,451.4,488.9,439.8z"/>
		<path fill="#770101" d="M507.1,452.2c0,0,5.3-4.2,11.4-5.2c6-1,20,0,22.6,4.8c2.5,4.8-2.1,16.5-11.7,17.5
			C519.6,470.3,500,457.6,507.1,452.2z"/>
	</g>
	<path fill="#F99300" d="M639.2,463.3c0,0-54.6,8.7-54.6,37.3c0,28.6,80.7,63.8,80.7,63.8s-73.9-19.3-89-50.5
		C551,461.3,639.2,463.3,639.2,463.3z"/>
	<g>
		<circle fill="#FFFFFF" cx="356.6" cy="463.3" r="36.6"/>
		<circle cx="356.6" cy="463.3" r="25.1"/>
	</g>
	<g>
		<circle fill="#FFFFFF" cx="618.5" cy="371.7" r="36.6"/>
		<circle cx="618.5" cy="371.7" r="25.1"/>
	</g>
	
		<ellipse transform="matrix(0.9938 -0.1109 0.1109 0.9938 -55.8246 36.89)" fill="#FF9999" cx="303.7" cy="520.2" rx="22.6" ry="20.3"/>
	
		<ellipse transform="matrix(0.9938 -0.1109 0.1109 0.9938 -38.6826 80.5408)" fill="#FF9999" cx="704.6" cy="388" rx="22.6" ry="20.3"/>
	<g>
		<path fill="#FF8B00" d="M372.3,709.5c0,0,11.2-31,40.6-28.5c29.4,2.5,52.6,56.3,36.6,75C433.4,774.6,357.7,752.9,372.3,709.5z"/>
		<path fill="#FFA039" d="M394.2,705.6c0,0,4.7-14.5,25.2-11.1c20.4,3.5,33.2,42.4,24,52C435.2,755.1,381.5,735.2,394.2,705.6z"/>
		<path fill="#FF7300" d="M384.5,705c0,0,5.6-15.5,19.4-23.7c-22.7,3.6-31.6,28.2-31.6,28.2c-14.1,41.8,55.8,63.5,75.2,48.3
			C420.6,761.3,372.6,740.4,384.5,705z"/>
	</g>
	<g>
		<path fill="#FF8B00" d="M747.5,573.3c0,0,26.6-19.4,49.6-0.9c23,18.5,12.1,76.1-11.6,82.6C761.9,661.4,711.2,601.1,747.5,573.3z"
			/>
		<path fill="#FFA039" d="M767.9,582.3c0,0,12-9.4,27,4.9c15,14.3,3.8,53.7-9.2,56.5C774.2,646.3,740.8,599.7,767.9,582.3z"/>
		<path fill="#FF7300" d="M760.2,576.4c0,0,13.4-9.7,29.3-8.9c-20.8-9.7-42,5.7-42,5.7c-35,26.8,10.8,83.8,35.4,82.1
			C758.7,643.2,730.6,599.1,760.2,576.4z"/>
	</g>
	<path fill="#FCC000" d="M411.9,539.6c0,0,15.3,16.2,49.3,1c34-15.2,54.3-17.7,61.2-8.4c0,0-10.2-28.2-28.3-23.4
		C476.1,513.6,439.9,540,411.9,539.6z"/>
	<path fill="#F99300" d="M411.9,539.6c0,0,25.8,1.8,45.1-8.6c19.3-10.4,35.5-21.9,48.6-14.6c13.1,7.3,20.5,49.8,14.5,65.6
		c0,0,11.1-18.8,9.2-40.5c-1.8-21.7-21.7-44.4-40.4-37.5C470.2,510.9,457.3,527.6,411.9,539.6z"/>
	<path fill="#FFDA3E" d="M411.9,557.2c1.1,0,41.4,0.6,74.2-14.8c32.8-15.4,40.4,41.9,8,66.8C461.6,634.1,383.2,557.7,411.9,557.2z"
		/>
	<path fill="#FFDA3E" d="M652.7,469.4c0,0-28.4,1.8-41.3,24.2c-12.8,22.3,43.1,62.8,61,58.3C690.3,547.4,670.2,468.9,652.7,469.4z"
		/>
	<path fill="#E22C14" d="M472.7,215.5c0,0,8.3-73.2-41.4-91.2c-49.7-18-96,46.6-95,67.1c1,20.5-41.3,7.7-79.2,34.4
		c-37.9,26.7-9.9,86.6-4.9,95c5,8.3-25,25.5-26.1,43c-1.1,17.5,10.3,26.5,15.2,27.3c4.9,0.7,9-68.4,71.2-117.4
		c62.1-48.9,144.2-31.6,150.3-33.3C469.1,238.8,472.7,215.5,472.7,215.5z"/>
	<g>
		<path fill="#FFDD4D" d="M664.1,124.6l-21.8,76.1l-27.2-5.5l13-77.9L664.1,124.6z M638.9,223.6c-0.4,2.2-1.3,4.1-2.5,5.8
			c-1.2,1.7-2.7,3.1-4.3,4.2c-1.7,1.1-3.5,1.9-5.6,2.3c-2,0.4-4.1,0.4-6.2,0c-2.2-0.4-4.1-1.3-5.8-2.4c-1.7-1.2-3.1-2.6-4.2-4.3
			c-1.1-1.7-1.9-3.5-2.3-5.6c-0.4-2-0.4-4.1,0-6.3c0.4-2.1,1.2-4,2.4-5.8c1.2-1.7,2.6-3.2,4.3-4.3c1.7-1.1,3.5-1.9,5.6-2.3
			c2-0.5,4.1-0.5,6.3,0c2.1,0.4,4,1.3,5.7,2.5c1.7,1.2,3.1,2.7,4.2,4.3c1.1,1.7,1.9,3.6,2.3,5.6
			C639.3,219.4,639.3,221.5,638.9,223.6z"/>
		<path fill="#FFBF3E" d="M626.3,233.9c-2.2-0.4-4.1-1.3-5.8-2.4c-1.7-1.2-3.1-2.6-4.2-4.3c-1.1-1.7-1.9-3.5-2.3-5.6
			c-0.4-2-0.4-4.1,0-6.3c0.4-2.1,1.2-4,2.4-5.8c1.2-1.7,2.6-3.2,4.3-4.3c0.3-0.2,0.7-0.4,1-0.6c-0.5,0.1-1,0.1-1.5,0.2
			c-2,0.5-3.9,1.2-5.6,2.3c-1.7,1.1-3.1,2.5-4.3,4.3c-1.2,1.7-2,3.7-2.4,5.8c-0.4,2.2-0.4,4.2,0,6.3c0.4,2,1.2,3.9,2.3,5.6
			c1.1,1.7,2.5,3.1,4.2,4.3c1.7,1.2,3.6,2,5.8,2.4c2.1,0.4,4.2,0.4,6.2,0c1.7-0.4,3.2-0.9,4.7-1.8
			C629.6,234.3,627.9,234.2,626.3,233.9z"/>
		
			<ellipse transform="matrix(0.4557 0.8901 -0.8901 0.4557 536.4041 -440.1874)" fill="#FFEA83" cx="628.2" cy="218.5" rx="11.5" ry="7.7"/>
		<path fill="#FFBF3E" d="M642.3,200.7l1.4-4.8c-7.5-2.2-17.9-5.7-19-8.8c-1.2-3.8,6.5-48.2,10.1-68.4l-6.8-1.4l-13,77.9
			L642.3,200.7z"/>
		<path fill="#FFEA83" d="M641.6,124.6c0,0,14,2.2,14.6,5c0.7,2.7-13.6,57.9-15.2,59.2c-1.6,1.3-10-1.7-10.8-3.7
			C628.6,181.2,635.9,125.2,641.6,124.6z"/>
		<path fill="#FFDD4D" d="M736,123.8l-37.2,89.1l-32.2-10.6l26.8-92.6L736,123.8z M691.3,240.1c-0.8,2.6-2.1,4.8-3.8,6.6
			c-1.7,1.9-3.7,3.4-5.9,4.5c-2.2,1.1-4.6,1.8-7.1,2c-2.5,0.2-5-0.1-7.5-0.9c-2.6-0.8-4.8-2.1-6.7-3.8c-1.9-1.7-3.4-3.6-4.5-5.8
			c-1.1-2.2-1.8-4.6-2-7.1c-0.2-2.5,0.1-5.1,0.9-7.6c0.8-2.5,2.1-4.7,3.8-6.7c1.7-1.9,3.6-3.5,5.8-4.6c2.2-1.1,4.6-1.8,7.1-2.1
			c2.5-0.3,5.1,0,7.6,0.9c2.5,0.8,4.7,2.1,6.6,3.8c1.9,1.7,3.4,3.7,4.5,5.9c1.1,2.2,1.8,4.6,2,7.2
			C692.4,235.1,692.1,237.6,691.3,240.1z"/>
		<path fill="#FFBF3E" d="M674.6,250.8c-2.6-0.8-4.8-2.1-6.7-3.8c-1.9-1.7-3.4-3.6-4.5-5.8c-1.1-2.2-1.8-4.6-2-7.1
			c-0.2-2.5,0.1-5.1,0.9-7.6c0.8-2.5,2.1-4.7,3.8-6.7c1.7-1.9,3.6-3.5,5.8-4.6c0.4-0.2,0.9-0.4,1.3-0.6c-0.6,0-1.2,0-1.8,0.1
			c-2.5,0.3-4.9,0.9-7.1,2.1c-2.2,1.1-4.1,2.6-5.8,4.6c-1.7,1.9-3,4.2-3.8,6.7c-0.8,2.6-1.1,5.1-0.9,7.6c0.2,2.5,0.9,4.9,2,7.1
			c1.1,2.2,2.6,4.1,4.5,5.8c1.9,1.7,4.1,2.9,6.7,3.8c2.5,0.8,5,1.1,7.5,0.9c2.1-0.2,4-0.7,5.9-1.5
			C678.5,251.8,676.6,251.5,674.6,250.8z"/>
		
			<ellipse transform="matrix(0.3488 0.9372 -0.9372 0.3488 660.0804 -485.0046)" fill="#FFEA83" cx="679.1" cy="232.5" rx="14.1" ry="9.4"/>
		<path fill="#FFBF3E" d="M698.7,212.9l2.4-5.7c-8.7-3.7-20.9-9.4-21.7-13.4c-1-4.8,14.8-57.5,22-81.4l-8-2.6l-26.8,92.6
			L698.7,212.9z"/>
		<path fill="#FFEA83" d="M708.7,120.6c0,0,16.6,4.7,17,8.1c0.4,3.4-24.7,68.2-26.9,69.5c-2.1,1.3-11.8-3.5-12.6-6.1
			C684.9,187.3,701.7,120.5,708.7,120.6z"/>
		<path fill="#FFDD4D" d="M779.4,165.8L740,235.9L714.4,224l31.2-73.9L779.4,165.8z M731.2,257.7c-0.9,2-2.2,3.7-3.8,5.1
			c-1.6,1.4-3.4,2.4-5.3,3.1c-1.9,0.7-3.9,1-6,1c-2.1-0.1-4.1-0.5-6.1-1.5c-2-0.9-3.7-2.2-5.1-3.8c-1.4-1.6-2.4-3.3-3.2-5.2
			c-0.7-1.9-1-3.9-1-6c0.1-2.1,0.6-4.2,1.5-6.2c0.9-2,2.2-3.7,3.8-5.1c1.6-1.4,3.4-2.5,5.3-3.2c1.9-0.7,3.9-1,6.1-1s4.2,0.5,6.2,1.5
			c2,0.9,3.7,2.2,5.1,3.8c1.4,1.6,2.4,3.4,3.1,5.3c0.7,1.9,1,4,1,6.1C732.6,253.6,732.1,255.7,731.2,257.7z"/>
		<path fill="#FFBF3E" d="M716.3,264.9c-2-0.9-3.7-2.2-5.1-3.8c-1.4-1.6-2.4-3.3-3.2-5.2c-0.7-1.9-1-3.9-1-6
			c0.1-2.1,0.6-4.2,1.5-6.2c0.9-2,2.2-3.7,3.8-5.1c1.6-1.4,3.4-2.5,5.3-3.2c0.4-0.1,0.8-0.3,1.1-0.4c-0.5-0.1-1-0.1-1.5-0.1
			c-2.1,0-4.1,0.3-6.1,1c-1.9,0.7-3.7,1.8-5.3,3.2c-1.6,1.4-2.9,3.2-3.8,5.1c-0.9,2-1.4,4.1-1.5,6.2c-0.1,2.1,0.3,4.1,1,6
			c0.7,1.9,1.8,3.7,3.2,5.2c1.4,1.6,3.1,2.8,5.1,3.8c2,0.9,4,1.4,6.1,1.5c1.7,0,3.4-0.2,5-0.6C719.5,266,717.9,265.6,716.3,264.9z"
			/>
		
			<ellipse transform="matrix(0.2369 0.9715 -0.9715 0.2369 793.8448 -510.3513)" fill="#FFEA83" cx="721.8" cy="250.1" rx="11.7" ry="7.8"/>
		<path fill="#FFBF3E" d="M740,235.9l2.5-4.4c-6.9-3.9-16.4-9.8-16.7-13.2c-0.3-4.1,17.8-46.1,26.1-65.2l-6.4-3L714.4,224L740,235.9
			z"/>
		<path fill="#FFEA83" d="M757.2,160.5c0,0,13.3,5.5,13.3,8.4c0,2.8-27.1,54-29,54.9c-1.9,0.9-9.5-4-9.8-6.2
			C731,213.4,751.4,159.8,757.2,160.5z"/>
	</g>
</g>
</svg>
