<?xml version="1.0" encoding="utf-8"?>
<!-- Generator: Adobe Illustrator 17.1.0, SVG Export Plug-In . SVG Version: 6.00 Build 0)  -->
<!DOCTYPE svg PUBLIC "-//W3C//DTD SVG 1.1//EN" "http://www.w3.org/Graphics/SVG/1.1/DTD/svg11.dtd">
<svg version="1.1" id="Layer_1" xmlns="http://www.w3.org/2000/svg" xmlns:xlink="http://www.w3.org/1999/xlink" x="0px" y="0px"
	 width="1125.3px" height="940.8px" viewBox="0 0 1125.3 940.8" enable-background="new 0 0 1125.3 940.8" xml:space="preserve">
<g>
	<g>
		<path fill="#CD2606" d="M945.8,685.1c0,0,20.6,2.6,49.6-6.2c29.1-8.8,50.1-36.7,34.1-50.9C1000.9,602.5,948,657.8,945.8,685.1z"/>
		<path fill="#BC1A04" d="M975.2,657.6c2.3-6,8.1-18.8,12.4-28c-21.3,13.2-40.5,39.2-41.8,55.4c0,0,20.6,2.6,49.6-6.2
			c4.6-1.4,9.1-3.3,13.2-5.6C994.4,663.2,971.3,667.6,975.2,657.6z"/>
		<path fill="#CD2606" d="M945.8,685.1c0,0,56-59.2,26.9-75.3C943.5,593.6,908.2,637.4,945.8,685.1z"/>
		<path fill="#BC1A04" d="M965.8,607.1c-27.3-6.6-54.6,34.1-20,78c0,0,2.7-2.8,6.5-7.4C930.1,643.1,945.1,612.1,965.8,607.1z"/>
		<path fill="#E22C14" d="M953.3,664.9c0,0,33.4-32,17.8-47.7C962.7,608.8,937.6,633,953.3,664.9z"/>
		<path fill="#CD2606" d="M945.8,685.1c0,0,16.1-15.7,40.6-15.9c24.5-0.2,39.3,40,19,47.1C985,723.3,954.2,697.9,945.8,685.1z"/>
		<path fill="#BC1A04" d="M1011.1,712.5c-19.4,2.6-45.9-12.5-49.3-25c-1.5-5.6,0.4-10.3,3.3-14.1c-12.1,4.7-19.2,11.7-19.2,11.7
			c8.4,12.8,39.3,38.2,59.6,31.2C1007.7,715.4,1009.6,714.1,1011.1,712.5z"/>
		<path fill="#E22C14" d="M969.2,681.8c0,0,10.6-9.4,21.6-7.1c11,2.4,20.7,21,16.4,28.2C1002.9,710,961.9,691.6,969.2,681.8z"/>
		<path fill="#E22C14" d="M985.9,654.2c0,0,1.3-17.4,22.2-24.6c12.9-4.4,21.7,9.4,19.2,16.1c-2.5,6.7-15.4,16.1-20.5,17.1
			C1001.6,663.9,985.7,661.4,985.9,654.2z"/>
		<path fill="#FF8B00" d="M320.9,835.3c-4.4,1.5-61.6,43-55.9,61.5s91.8,12.3,149.1-17.7c57.3-30,252.4,31.9,252.1,35.4
			c-0.4,3.5,64.6,18.8,103.7,20c39.2,1.2-11.7-65-11.7-65L320.9,835.3z"/>
		<path fill="#FF7300" d="M783.5,914.6c-48.1,16.8-104.2-11.8-104.2-11.8s-3.2,6.2-7.1,14.8c17,5.7,65.8,16,97.6,16.9
			C784.5,934.9,786.6,925.9,783.5,914.6z"/>
		<path fill="#FF7300" d="M383.3,881.3c-24.7,10.4-89,23.4-100.7,3.6c-2.5-4.2-3.4-9.6-3.3-15.5c-9.6,10.2-16.4,20.5-14.3,27.4
			c5.1,16.4,73.4,13.4,128.7-8.4C394.2,881.7,391.8,877.8,383.3,881.3z"/>
		<path fill="#CD2606" d="M336.7,388.2c0,0-82.4-56.5-95.2-143.7c0,0,73.2-9.9,133.4,29.8c0,0-32.4-134.1,16.4-188.8
			c0,0,84.1,38.6,118.3,118.1c0,0,40.1-89.4,93.7-122.5c0,0,52.5,52.4,47.6,142.4c0,0,80.4-23.2,136-3.3c0,0,3.5,44-32.3,98.7
			c0,0,74,11.7,99.4,48.1c0,0-27.4,59.6-171,93.8C539.3,495.1,366.4,458.5,336.7,388.2z"/>
		<path fill="#BC1A04" d="M650.8,223.6c5-90-47.6-142.4-47.6-142.4c-53.6,33.1-93.7,122.5-93.7,122.5
			C475.3,124.2,391.3,85.6,391.3,85.6c-48.7,54.6-16.4,188.8-16.4,188.8c-60.2-39.7-133.4-29.8-133.4-29.8
			c12.9,87.2,95.2,143.7,95.2,143.7c11.1,26.2,42,47.7,83.9,62.6c22.7-19.1,64.1-58.1,17.1-54c-61.9,5.4-172.1-110.9-152.9-125.7
			c19.2-14.9,119.9,33,113.7,15.9c-6.2-17-22.5-145.3,9.4-149.3c31.9-4,101.4,110.9,115.9,90.6c14.5-20.3,58.7-105.4,73.2-106.5
			c14.5-1.1,16.3,21.7,31.2,62.3c14.9,40.6-1.1,71.7,36,55.1c37-16.7,122.6-19,122.6-19C731.3,200.4,650.8,223.6,650.8,223.6z"/>
		<path fill="#FECE00" d="M226.8,610.4c0,0-46.8,33.4-104.7,64.2c-58,30.8,107.2,85.1,149.1,93.9L226.8,610.4z"/>
		<path fill="#FCC000" d="M136.6,666.7c-4.8,2.6-9.6,5.3-14.6,7.9c-58,30.8,107.2,85.1,149.1,93.9l-9-32.2
			C199.2,725.4,106.4,700,136.6,666.7z"/>
		<path fill="#FECE00" d="M394.9,423.4c0,0,106.5-114,230.1-103S846.2,510,871.7,587.7c25.5,77.7,66.4,90.9,79.2,94.4
			c0,0-29.3,152.2-221.8,228.7s-427.7-0.4-514-148.7s79.3-352.8,121.6-373.9C336.7,388.2,379.5,415.1,394.9,423.4z"/>
		<path fill="#FCC000" d="M730.1,744.3c0,0,101.4,29.3,131.6,4.2c0,0,10.4,21.7-26.3,31.8C798.8,790.4,748.5,763.4,730.1,744.3z"/>
		<path fill="#FFDA3E" d="M718.1,802.8c-1.6-2.2-42.6-47.1-32.4-85.6c10.2-38.4,94.8-83.3,115.1-78.5c20.2,4.8,39.8,59,70.6,63.3
			c30.8,4.3-28.2-64.4-41.7-110.7c-13.5-46.3-124.7-251-258.9-233.4c-134.2,17.6-242.8,211.5-234,287.8
			c8.8,76.4,72.7,169.5,197.8,197.1C659.6,870.5,741.7,836.3,718.1,802.8z"/>
		<path fill="#FCC000" d="M883.4,805.3C637.2,985.1,325.7,846,290.9,695.6C255.2,541,394.9,423.4,394.9,423.4
			c-15.4-8.4-58.2-35.2-58.2-35.2C294.3,409.4,128.8,613.9,215,762.1c86.3,148.2,321.5,225.2,514,148.7
			C800.9,882.2,850,843.1,883.4,805.3z"/>
		<ellipse fill="#FF9999" cx="215" cy="591.4" rx="26.4" ry="23.5"/>
		<ellipse fill="#FF9999" cx="712.1" cy="606.8" rx="26.4" ry="23.5"/>
		<g>
			<path fill="#720000" d="M674.9,498l-124.2,60.8c0,0,31.4,41.9,81.4,27.2C682,571.2,674.9,498,674.9,498z"/>
			<path fill="#590000" d="M632.1,585.9c34-10,41.5-47.1,42.9-69.8c-5.3,14.4-17.9,37.5-46,48.5c-30.7,12-52.5-3.9-62.3-13.7
				l-16.1,7.9C550.7,558.8,582.1,600.6,632.1,585.9z"/>
			<path fill="#8A0000" d="M657.5,517.5l-69.6,32.8C587.9,550.3,633.5,574.2,657.5,517.5z"/>
			<path d="M614.2,581.2c45.7-10,51.7-58.6,55.8-80.8l4.9-2.4c0,0,7.1,73.3-42.8,88c-23.9,7-43.5,1.1-57.5-6.9
				C583.4,581.7,596.7,585,614.2,581.2z"/>
		</g>
		<g>
			<path fill="#720000" d="M254.9,492.6l108.7,82.6c0,0-38.4,34.6-84,10.8C234.1,562.3,254.9,492.6,254.9,492.6z"/>
			<path fill="#590000" d="M349.2,584.9c-11.7-0.4-26.5-3.3-42.8-12c-27.2-14.4-28-44.4-26.1-61.1l-25.3-19.2
				c0,0-20.9,69.6,24.7,93.4C308.2,600.9,333.9,593,349.2,584.9z"/>
			<path d="M297.9,584.8c-42.3-18.5-38.9-66.7-38.7-88.9l-4.3-3.2c0,0-20.9,69.6,24.7,93.4c21.8,11.4,41.9,9.4,57,4.3
				C327.6,591.2,314.1,591.9,297.9,584.8z"/>
			<path fill="#8A0000" d="M290.9,529.6l59.9,45.7C350.8,575.2,296,580.1,290.9,529.6z"/>
		</g>
		<g>
			<path fill="#FF8B00" d="M408.9,614.8c0,0,29.2-26.8,40.4-27.1c11.3-0.3,36.4,29.3,36.4,29.3s-19.1,32.5-38.4,34.3
				C434.4,652.5,408.9,614.8,408.9,614.8z"/>
			<path fill="#FF7300" d="M430.9,606.4c-0.8-3.4,3.4-9.8,6.9-14.1c-12.9,7.7-28.9,22.5-28.9,22.5s4,5.9,9.6,13
				c0,0,36.1,1.2,59.4,0.6c4.8-6.3,7.8-11.4,7.8-11.4s-2-2.3-5-5.6C458.8,610.9,431.7,609.7,430.9,606.4z"/>
			<path fill="#FF8B00" d="M447.4,651.3c19.4-1.8,38.4-34.3,38.4-34.3c-38.7-4.1-76.9-2.2-76.9-2.2S434.4,652.5,447.4,651.3z"/>
			<path fill="#FF7300" d="M450,643.9c-8.9,0.2-22.3-17.9-30-29.5c-6.9,0.1-11.1,0.3-11.1,0.3s25.4,37.7,38.4,36.5
				c13.4-1.3,26.7-17.3,33.6-27C473,633.1,461.2,643.6,450,643.9z"/>
			<path fill="#FFA039" d="M439.5,601.9c0,0,4.3-8.8,8.6-9.5c4.4-0.8,19.7,8.8,19.9,12.6C468.3,608.6,438.2,606.8,439.5,601.9z"/>
			<path fill="#FFA039" d="M439.1,619.5c0,0,32-0.1,34.4,2.1c2.4,2.2-14.5,18.8-22.7,17.1C442.7,637,429.8,619.4,439.1,619.5z"/>
		</g>
		<path fill="#F99300" d="M730.1,744.3c0,0,53.9,28.7,94.4,31.1c40.4,2.5,37-27.3,17.2-41.1c-19.9-13.8-43.3-53-44.7-69.1
			c0,0,23.7,39.5,59,67.3s6.9,67.9-53.6,53.3S730.1,744.3,730.1,744.3z"/>
		<path fill="#FFDA3E" d="M742.3,732c0,0,31.7-44.2,42.2-44.7c10.6-0.4,28.9,35.1,43.6,48.2C855.7,760.1,731.2,746.6,742.3,732z"/>
		<path fill="#FFDA3E" d="M148.3,671.9c0,0,17.3-10.8,22.9-11.3c5.6-0.6,11.9,35.3,8.2,38.1C172.2,704,129.6,683.3,148.3,671.9z"/>
		<path fill="#E22C14" d="M419.6,277.5c0,0-14-86.4,0-98.5c14-12.1,83,86.4,106.4,78.5c23.4-7.9,50.6-98,66.9-101.1
			c16.3-3.2,29,71.6,34.2,95.3c5.3,23.7,94.1-13.2,117.9-10c23.8,3.2-5.6,65,0,81.6c5.6,16.6,77.5,30,81.2,41.6
			c3.7,11.6-30.1,21.8-39.4,26.9c-9.3,5.1-84.6-103.5-202.9-89c-118.2,14.5-146.4,54.5-165.4,61.1c-19,6.6-99.3-53.7-98-68.5
			c1.3-14.7,68.2,19.5,84.8,15.3C422,306.5,421.2,288.3,419.6,277.5z"/>
		<g>
			<path fill="#FFFFFF" d="M681.2,329.5c0,0,13.5-17.8,31.4-7.1c5.1,21.6,19,55.4,64.7,49c3.9,7.5,5.2,28.4-1.4,32.2
				c-23.8,5.8-46.3,12.8-36.5,60.3c-19,7.1-37.9,4.8-40.1,1.4c-2.6-17.1,1.2-57-49.1-44.8c-7.3-7.6-8.6-30-4.3-32
				c21.5-4,29.8-8,34.4-13.8C685.1,369,681.5,338.5,681.2,329.5z"/>
			<g>
				<path d="M643.5,395.5c-3.7,0.1-6.8-2.9-6.9-6.6c-0.1-3.8,2.8-6.9,6.6-7c15-0.4,25.3-4.7,30.5-12.6c9.9-15,0.4-39.3,0.3-39.5
					c-1.4-3.5,0.3-7.4,3.8-8.8c3.5-1.4,7.4,0.3,8.8,3.8c0.5,1.3,12.2,31-1.5,52C677.3,388.6,663.3,394.9,643.5,395.5
					C643.6,395.5,643.6,395.5,643.5,395.5z"/>
			</g>
			<g>
				<path d="M767.8,377.5c-11.5,1.5-21.9-0.5-31.1-6.1c-23.8-14.6-29.8-48.1-30.1-49.5c-0.6-3.7,1.8-7.2,5.5-7.8
					c4.1-0.8,7.2,1.8,7.9,5.5c0.1,0.3,5.3,28.9,23.8,40.2c8.6,5.3,18.7,6,30.8,2.3c3.5-1,7.4,0.9,8.5,4.5c1.1,3.6-0.9,7.4-4.5,8.5
					C775,376.2,771.3,377,767.8,377.5z"/>
			</g>
			<g>
				<path d="M700.4,470.7c-0.2,0-0.4,0-0.6,0.1c-3.8,0.2-6.9-2.7-7.1-6.4c-0.8-16.1-5.3-27.3-13.5-33.1c-11.2-8-26.2-3.8-26.4-3.8
					c-3.5,1-7.4-1-8.4-4.6c-1-3.6,1-7.3,4.6-8.4c0.8-0.3,21.4-6.1,38,5.7c11.8,8.4,18.3,23,19.3,43.6
					C706.5,467.2,703.9,470.2,700.4,470.7z"/>
			</g>
			<g>
				<path d="M740.8,470.8c-3.2,0.4-6.4-1.5-7.4-4.7c-7-22.7-5.6-40.4,4-52.8c13.8-17.6,39-16.4,40.1-16.4c3.7,0.2,6.6,3.4,6.4,7.1
					s-3.4,6.6-7.1,6.4c-0.2,0-19.3-0.8-28.7,11.3c-6.7,8.6-7.2,22.2-1.7,40.3c1.1,3.6-0.9,7.4-4.5,8.5
					C741.5,470.7,741.2,470.8,740.8,470.8z"/>
			</g>
		</g>
		<path fill="#FFA039" d="M287.3,873.7c0,0,4.5-7.4,9.2-8.9s44.4,18.9,39.1,21.5C320.3,893.9,280.1,888,287.3,873.7z"/>
		<path fill="#FFA039" d="M740.4,910c0,0,23.8-11.3,27.7-11.6s10.4,10.4,6.6,13.4C770.8,914.8,729.6,916.2,740.4,910z"/>
	</g>
	<g>
		<g>
			<g>
				<path fill="#8A0000" d="M3.5,530.5C1.6,530.5,0,529,0,527V264c0-1.9,1.6-3.5,3.5-3.5c1.9,0,3.5,1.6,3.5,3.5v263
					C6.9,529,5.4,530.5,3.5,530.5z"/>
			</g>
			<g>
				<path fill="#8A0000" d="M53.3,522.4c-1.9,0-3.5-1.6-3.5-3.5V323.2c0-1.9,1.6-3.5,3.5-3.5c1.9,0,3.5,1.6,3.5,3.5v195.7
					C56.7,520.8,55.2,522.4,53.3,522.4z"/>
			</g>
			<g>
				<path fill="#8A0000" d="M97,490.7c-1.9,0-3.5-1.6-3.5-3.5V363.6c0-1.9,1.6-3.5,3.5-3.5c1.9,0,3.5,1.6,3.5,3.5v123.6
					C100.5,489.1,98.9,490.7,97,490.7z"/>
			</g>
			<g>
				<path fill="#8A0000" d="M128.6,564.9c-1.9,0-3.5-1.6-3.5-3.5V264c0-1.9,1.6-3.5,3.5-3.5c1.9,0,3.5,1.6,3.5,3.5v297.4
					C132.1,563.3,130.6,564.9,128.6,564.9z"/>
			</g>
			<g>
				<path fill="#8A0000" d="M179.1,540c-1.9,0-3.5-1.6-3.5-3.5c-0.2-171.9-0.2-259.8,0.1-261.1c0.4-1.9,2.2-3.1,4.1-2.7
					c1.8,0.4,3,2,2.8,3.7c-0.2,5.5-0.1,172.4,0,260.1C182.6,538.4,181,540,179.1,540L179.1,540z"/>
			</g>
			<g>
				<path fill="#8A0000" d="M224.9,501.6c-1.9,0-3.5-1.6-3.5-3.5V323.2c0-1.9,1.6-3.5,3.5-3.5s3.5,1.6,3.5,3.5v174.9
					C228.3,500.1,226.8,501.6,224.9,501.6z"/>
			</g>
		</g>
		<g>
			<path fill="#8A0000" d="M881,552.8c-1.9,0-3.5-1.5-3.5-3.4c-2.1-265.7-0.2-268,0.8-269.2c1.2-1.5,3.4-1.7,4.9-0.4
				c1.1,0.9,1.5,2.5,1.1,3.8c-1.4,9.3-0.6,163.7,0.2,265.9C884.5,551.2,882.9,552.7,881,552.8C881,552.8,881,552.8,881,552.8z"/>
		</g>
		<g>
			<path fill="#8A0000" d="M926.7,601.7c-1.9,0-3.5-1.6-3.5-3.5V252.5c0-1.9,1.6-3.5,3.5-3.5s3.5,1.6,3.5,3.5v345.7
				C930.2,600.2,928.6,601.7,926.7,601.7z"/>
		</g>
		<g>
			<path fill="#8A0000" d="M975,560.8c-1.9,0-3.5-1.6-3.5-3.5V288c0-1.9,1.6-3.5,3.5-3.5s3.5,1.6,3.5,3.5v269.4
				C978.5,559.3,976.9,560.8,975,560.8z"/>
		</g>
		<g>
			<path fill="#8A0000" d="M1025,552.8c-1.9,0-3.5-1.6-3.5-3.5V309.2c0-1.9,1.6-3.5,3.5-3.5s3.5,1.6,3.5,3.5v240.1
				C1028.5,551.2,1026.9,552.8,1025,552.8z"/>
		</g>
		<g>
			<path fill="#8A0000" d="M1078.4,534c-1.9,0-3.5-1.6-3.5-3.5V341.9c0-1.9,1.6-3.5,3.5-3.5s3.5,1.6,3.5,3.5v188.6
				C1081.9,532.5,1080.3,534,1078.4,534z"/>
		</g>
		<g>
			<path fill="#8A0000" d="M1121.8,589.9c-1.9,0-3.5-1.6-3.5-3.5V304.6c0-1.9,1.6-3.5,3.5-3.5s3.5,1.6,3.5,3.5v281.8
				C1125.3,588.4,1123.7,589.9,1121.8,589.9z"/>
		</g>
		<g>
			<path fill="#EFEFEF" d="M796.1,129.5c0,0,23.3,1.5,29.9-22.4c6.6-24-14.1-27.7-16.9-31.9c-2.8-4.2,21.8-48.6-13.2-67.4
				c-35-18.9-53.8,1-61.4,13c-7.6,12.1-3.6,22.9-9.1,24c-5.5,1.2-22.1-1.4-29.7,21c-7.6,22.4-4.3,38.6,12.6,48.4
				c10,5.8,18,2.4,19.6,5.6c1.6,3.2-5,13.8-3.1,21.6c2,7.9,50.8,11.9,52.7,9.8c1.9-2.1,2.9-16,4.3-19.4
				C783.3,128.5,791.4,129.8,796.1,129.5z"/>
			<path fill="#E2E2E2" d="M760.6,1c-25.4,19.2-19,50.4-28.5,51.6c-10.7,1.4-30.9,12.1-27,32.9c3.8,20.7,28,21.2,33.5,28
				c5.5,6.7-0.6,16.9,4.9,22.6c3.2,3.3,21,8.1,35.6,11.2c-0.4,1.9-0.9,3.4-1.4,4c-1.9,2.1-50.7-1.9-52.7-9.8
				c-2-7.9,4.7-18.4,3.1-21.6c-1.6-3.2-9.6,0.2-19.6-5.6c-16.9-9.8-20.2-26-12.6-48.4c7.6-22.4,24.1-19.9,29.7-21
				c5.5-1.2,1.5-12,9.1-24C738.9,13.7,747.3,4,760.6,1z"/>
			<path fill="#FFFFFF" d="M786.9,118.1c0,0,29.7,0.2,31.7-17.3s-19.4-16.7-20.8-26.6c-1.4-9.8,9.8-33.5,2.2-47.8
				c-7.6-14.4-26.6-17.8-38.7-11s-9.9,31.7-15.9,38s-22.5,6.9-26.6,21.5c-4.1,14.6,24.5,20.8,28.7,28.8s2.5,18.8,5.1,23.6
				c2.7,4.7,18.1,8.2,21.1,6.6C776.7,132.3,776.1,119.2,786.9,118.1z"/>
		</g>
		<g>
			<path fill="#EFEFEF" d="M158.2,360.9c0,0,10.4-18.1-6.3-32.8c-16.7-14.7-27.8,0.4-32.3,1.1c-4.5,0.6-30.5-36.6-59.4-15.9
				c-28.9,20.7-20.4,43.6-13.7,54.5c6.7,10.9,17,11.9,15.7,16.8c-1.2,4.9-9.8,17.2,5.2,32.1c15.1,14.9,29.3,18.6,43.9,8.9
				c8.6-5.7,9-13.5,12.2-13.6c3.2,0,9.1,9.5,16.2,11c7.1,1.5,29.5-36.2,28.6-38.5c-0.9-2.3-11.8-8.6-13.9-11.1
				C152.3,370.8,156.5,364.8,158.2,360.9z"/>
			<path fill="#E2E2E2" d="M40.8,338.9c5.4,28,33,35.1,30.3,43.3c-3.1,9.1-2.4,29.6,15.8,34.7c18.2,5.1,28.1-14.2,35.7-15.9
				c7.6-1.7,13.4,7.1,20.1,5c3.9-1.2,14.8-13.7,23-24.2c1.4,1.1,2.4,2,2.7,2.7c0.9,2.3-21.5,40-28.6,38.5c-7.1-1.5-13-11-16.2-11
				c-3.2,0-3.6,7.8-12.2,13.6c-14.6,9.7-28.8,6-43.9-8.9c-15.1-14.9-6.5-27.2-5.2-32.1c1.2-4.9-9-5.9-15.7-16.8
				C42.6,361.3,38,350.7,40.8,338.9z"/>
			<path fill="#FFFFFF" d="M145.4,363.8c0,0,11.8-23.8-1.4-32.3c-13.3-8.5-21.1,9-29.6,6.3c-8.5-2.7-23.1-21-37.6-20.6
				c-14.5,0.4-24.8,14.4-24,26.8c0.8,12.5,21.6,20.4,24.3,27.7c2.7,7.3-3.3,20.8,6.8,29.9c10.1,9,26.4-11.5,34.5-11.8
				c8.1-0.2,16.1,5.4,21,5.1c4.9-0.3,13.7-11.3,13.6-14.4C152.7,377.6,142,372.9,145.4,363.8z"/>
		</g>
		<g>
			<path fill="#EFEFEF" d="M1003.1,475.8c0,0,17.4,15.9,37.7,1.2c20.3-14.7,6.4-30.7,6.8-35.8c0.4-5.1,47.8-24.5,32.2-61.4
				s-43-33.2-56.6-28.6c-13.6,4.7-17.3,15.7-22.4,13.2s-16.5-15.1-36.7-2.2c-20.1,12.9-27.8,27.7-20.6,46.1
				c4.2,10.9,12.7,13.2,11.9,16.8c-0.8,3.6-12.7,7.7-16.1,15.1c-3.4,7.4,32.5,41.4,35.3,41c2.8-0.4,12.4-10.8,15.7-12.5
				C993.6,466.9,999.2,473,1003.1,475.8z"/>
			<path fill="#E2E2E2" d="M1056.3,352.1c-32.1-0.9-46.8,27.7-55.1,22.6c-9.3-5.6-32-10-42.1,8.8c-10.1,18.8,8.6,34.4,8.7,43.2
				c0,8.8-11.1,13-10.5,20.9c0.4,4.6,11.4,19.7,20.9,31.3c-1.5,1.3-2.8,2.2-3.6,2.3c-2.8,0.4-38.7-33.6-35.3-41
				c3.4-7.4,15.3-11.5,16.1-15.1c0.8-3.6-7.7-5.9-11.9-16.8c-7.1-18.4,0.5-33.2,20.6-46.1c20.1-12.9,31.6-0.4,36.7,2.2
				c5.1,2.6,8.8-8.5,22.4-13.2C1031.2,348.5,1044,346.1,1056.3,352.1z"/>
			<path fill="#FFFFFF" d="M1003,461c0,0,23.2,18.9,35.9,6.4c12.6-12.5-4.7-25.5,0.4-34.1s28.8-20.2,31.9-36.3s-9.7-30.8-23.6-33.1
				c-13.9-2.3-27.8,18.7-36.6,19.9c-8.7,1.2-22.1-8.8-34.5,0.1c-12.5,8.9,6.1,31.9,4.4,40.9c-1.7,9-10,16.4-10.9,21.8
				c-0.9,5.4,9,17.9,12.5,18.5C986,465.7,993.8,455,1003,461z"/>
		</g>
	</g>
</g>
</svg>
