<?xml version="1.0" encoding="utf-8"?>
<!-- Generator: Adobe Illustrator 17.1.0, SVG Export Plug-In . SVG Version: 6.00 Build 0)  -->
<!DOCTYPE svg PUBLIC "-//W3C//DTD SVG 1.1//EN" "http://www.w3.org/Graphics/SVG/1.1/DTD/svg11.dtd">
<svg version="1.1" id="Layer_1" xmlns="http://www.w3.org/2000/svg" xmlns:xlink="http://www.w3.org/1999/xlink" x="0px" y="0px"
	 width="264.8px" height="321.4px" viewBox="0 0 264.8 321.4" enable-background="new 0 0 264.8 321.4" xml:space="preserve">
<g>
	<path fill="#4A0C03" d="M228.6,206.4v12.2h12.2V200L228.6,206.4z M15.1,217.2h11.3v-19.4l-11.3,4.1V217.2z"/>
	<g>
		<g>
			<path fill="#FDC2A9" d="M227.4,219.5c0.4-3.7,2.6-7.3,5.9-9.1c3.3-1.9,7.5-2,10.9-0.4c6.2,2.9,8.5,10.5,9.2,17.2
				c0.5,5.9,0.2,11.8-0.9,17.6c-0.5,2.3-1.1,4.6-2.4,6.5c-1.2,1.7-3,3-4.7,4.2c-4.1,2.9-8.2,5.7-12.3,8.6c-3.3,2.3-7.3,4.7-11,3.2
				c-2.6-1.1-4.2-3.9-4.5-6.7c-0.3-2.8,0.3-5.6,1-8.4c1.9-7.9,3.8-15.7,5.7-23.6L227.4,219.5z"/>
			<linearGradient id="SVGID_1_" gradientUnits="userSpaceOnUse" x1="243.9318" y1="212.1353" x2="239.8706" y2="226.1239">
				<stop  offset="0" style="stop-color:#FFDFCC"/>
				<stop  offset="0.6013" style="stop-color:#FECFB8"/>
				<stop  offset="1" style="stop-color:#FDC2A9"/>
			</linearGradient>
			<path fill="url(#SVGID_1_)" d="M244.2,210c-3.4-1.6-7.6-1.5-10.9,0.4c-3.3,1.9-5.6,5.4-5.9,9.1l-1,2.8l4.5,3
				c0,0,4.5-8.6,13.1-6.3c5.5,1.5,8.3,6.5,9.5,10.5c0-0.8-0.1-1.5-0.2-2.3C252.7,220.4,250.3,212.9,244.2,210z"/>
			<linearGradient id="SVGID_2_" gradientUnits="userSpaceOnUse" x1="245.1924" y1="257.5762" x2="228.0451" y2="231.4039">
				<stop  offset="0" style="stop-color:#FDC2A9"/>
				<stop  offset="1" style="stop-color:#E57D6E"/>
			</linearGradient>
			<path fill="url(#SVGID_2_)" d="M246.3,251c0,0,6.8-12.6,3.6-21.7c-3.2-9-10.4-4.1-17.1,5.9c-6.8,9.9-10.8,15.8-10.8,15.8
				l-0.5,6.3c0,0,8.6-2.7,11.7-2.3C236.3,255.6,242.2,256,246.3,251z"/>
			<linearGradient id="SVGID_3_" gradientUnits="userSpaceOnUse" x1="245.1924" y1="257.5762" x2="228.045" y2="231.4039">
				<stop  offset="0" style="stop-color:#F0AE91"/>
				<stop  offset="1" style="stop-color:#D86A5A"/>
			</linearGradient>
			<path fill="url(#SVGID_3_)" d="M249.9,229.4c-3.2-9-10.4-4.1-17.1,5.9c-6.8,9.9-10.8,15.8-10.8,15.8l-0.5,6.3
				c0,0,8.2-2.6,11.5-2.3c0.5-2.8-0.3-6.3-0.3-7.2l-0.9-4.1c0-0.2-0.1-0.3-0.1-0.4c0.6-1.4,1.3-2.8,2-4.1c0.9,0.1,9.2,1,6.2,11.3
				c0,0,3.2-4.1,1.8-9c-0.9-3.2-3.6-5.4-5.4-6.6c1.3-2,2.7-3.6,4.1-4.6c6.3-4.8,10.2,0.9,9.9,9.1C250.9,236.1,251,232.5,249.9,229.4
				z"/>
			<linearGradient id="SVGID_4_" gradientUnits="userSpaceOnUse" x1="228.5958" y1="238.1873" x2="255.6707" y2="237.736">
				<stop  offset="0" style="stop-color:#943D30"/>
				<stop  offset="1" style="stop-color:#E57D6E"/>
			</linearGradient>
			<path fill="url(#SVGID_4_)" d="M227.6,219.5c1.1-5.7,5.7-9.9,11.6-9.8c5.6,0.1,9.5,4.5,11.3,9.4c1.7,4.6,2,9.5,2,14.4
				c0,5.3-0.1,12.4-3,17c-2.8,4.4-9.1,7.6-13.3,10.6c-4.4,3.1-11.8,9.7-16.3,3.1c-3.5-5.2-0.7-12.3,0.6-17.8
				c1.4-5.9,2.9-11.8,4-17.8c0.1-0.5-0.7-0.8-0.8-0.2c-1.9,6.5-3.4,13.1-5,19.6c-1.2,4.8-3.6,10.7-1.6,15.5
				c4.4,10.6,16.7,0.5,22.2-3.2c3.9-2.7,9.2-5.2,11.8-9.4c2.6-4.2,3-10.1,3.3-14.9c0.5-8.4-0.1-19.9-7.5-25.5
				c-7.8-6-19-0.8-19.7,8.9C227.2,219.7,227.5,219.7,227.6,219.5L227.6,219.5z"/>
		</g>
		<g>
			<path fill="#FDC2A9" d="M31,219.5c-0.4-3.7-2.6-7.3-5.9-9.1c-3.3-1.9-7.5-2-10.9-0.4c-6.2,2.9-8.5,10.5-9.2,17.2
				C4.6,233.1,4.9,239,6,244.8c0.5,2.3,1.1,4.6,2.4,6.5c1.2,1.7,3,3,4.7,4.2c4.1,2.9,8.2,5.7,12.3,8.6c3.3,2.3,7.3,4.7,11,3.2
				c2.6-1.1,4.2-3.9,4.5-6.7c0.3-2.8-0.3-5.6-1-8.4c-1.9-7.9-3.8-15.7-5.7-23.6L31,219.5z"/>
			
				<linearGradient id="SVGID_5_" gradientUnits="userSpaceOnUse" x1="836.5637" y1="212.1353" x2="832.5024" y2="226.1239" gradientTransform="matrix(-1 0 0 1 851.0773 0)">
				<stop  offset="0" style="stop-color:#FFDFCC"/>
				<stop  offset="0.6013" style="stop-color:#FECFB8"/>
				<stop  offset="1" style="stop-color:#FDC2A9"/>
			</linearGradient>
			<path fill="url(#SVGID_5_)" d="M14.3,210c3.4-1.6,7.6-1.5,10.9,0.4c3.3,1.9,5.6,5.4,5.9,9.1l1,2.8l-4.5,3c0,0-4.5-8.6-13.1-6.3
				c-5.5,1.5-8.3,6.5-9.5,10.5c0-0.8,0.1-1.5,0.2-2.3C5.7,220.4,8.1,212.9,14.3,210z"/>
			
				<linearGradient id="SVGID_6_" gradientUnits="userSpaceOnUse" x1="837.8243" y1="257.5762" x2="820.6769" y2="231.4039" gradientTransform="matrix(-1 0 0 1 851.0773 0)">
				<stop  offset="0" style="stop-color:#FDC2A9"/>
				<stop  offset="1" style="stop-color:#E57D6E"/>
			</linearGradient>
			<path fill="url(#SVGID_6_)" d="M12.2,251c0,0-6.8-12.6-3.6-21.7c3.2-9,10.4-4.1,17.1,5.9c6.8,9.9,10.8,15.8,10.8,15.8l0.5,6.3
				c0,0-8.6-2.7-11.7-2.3C22.1,255.6,16.2,256,12.2,251z"/>
			
				<linearGradient id="SVGID_7_" gradientUnits="userSpaceOnUse" x1="837.8243" y1="257.5762" x2="820.6769" y2="231.4038" gradientTransform="matrix(-1 0 0 1 851.0773 0)">
				<stop  offset="0" style="stop-color:#F0AE91"/>
				<stop  offset="1" style="stop-color:#D86A5A"/>
			</linearGradient>
			<path fill="url(#SVGID_7_)" d="M8.6,229.4c3.2-9,10.4-4.1,17.1,5.9c6.8,9.9,10.8,15.8,10.8,15.8l0.5,6.3c0,0-8.2-2.6-11.5-2.3
				c-0.5-2.8,0.3-6.3,0.3-7.2l0.9-4.1c0-0.2,0.1-0.3,0.1-0.4c-0.6-1.4-1.3-2.8-2-4.1c-0.9,0.1-9.2,1-6.2,11.3c0,0-3.2-4.1-1.8-9
				c0.9-3.2,3.6-5.4,5.4-6.6c-1.3-2-2.7-3.6-4.1-4.6c-6.3-4.8-10.2,0.9-9.9,9.1C7.6,236.1,7.5,232.5,8.6,229.4z"/>
			
				<linearGradient id="SVGID_8_" gradientUnits="userSpaceOnUse" x1="821.2277" y1="238.1873" x2="848.3025" y2="237.736" gradientTransform="matrix(-1 0 0 1 851.0773 0)">
				<stop  offset="0" style="stop-color:#943D30"/>
				<stop  offset="1" style="stop-color:#E57D6E"/>
			</linearGradient>
			<path fill="url(#SVGID_8_)" d="M30.9,219.5c-1.1-5.7-5.7-9.9-11.6-9.8c-5.6,0.1-9.5,4.5-11.3,9.4c-1.7,4.6-2,9.5-2,14.4
				c0,5.3,0.1,12.4,3,17c2.8,4.4,9.1,7.6,13.3,10.6c4.4,3.1,11.8,9.7,16.3,3.1c3.5-5.2,0.7-12.3-0.6-17.8c-1.4-5.9-2.9-11.8-4-17.8
				c-0.1-0.5,0.7-0.8,0.8-0.2c1.9,6.5,3.4,13.1,5,19.6c1.2,4.8,3.6,10.7,1.6,15.5c-4.4,10.6-16.7,0.5-22.2-3.2
				c-3.9-2.7-9.2-5.2-11.8-9.4c-2.6-4.2-3-10.1-3.3-14.9c-0.5-8.4,0.1-19.9,7.5-25.5c7.8-6,19-0.8,19.7,8.9
				C31.2,219.7,30.9,219.7,30.9,219.5L30.9,219.5z"/>
		</g>
	</g>
	<g>
		<linearGradient id="SVGID_9_" gradientUnits="userSpaceOnUse" x1="128.3174" y1="274.955" x2="128.3174" y2="323.7654">
			<stop  offset="0" style="stop-color:#943D30"/>
			<stop  offset="1" style="stop-color:#E57D6E"/>
		</linearGradient>
		<path fill="url(#SVGID_9_)" d="M123.9,321.4c0,0-0.1,0-0.1,0c-34.5-2.7-65.1-27-80.8-47c-14.6-18.6-9.7-44.3-9.1-47l-2-35.7
			c0,0,0-0.1,0-0.1c0.7-13.6,2-39.6,2-41.2c0-1,0-1.9,23.1-22.4c11.2-10,22.6-19.8,22.7-19.9c0.2-0.2,0.4-0.3,0.7-0.3l42.2-7.1v-0.3
			c0-0.4,0.2-0.8,0.5-1c0.2-0.2,0.6-0.3,0.9-0.3c0.1,0,0.2,0,0.2,0l4.2,0.7l4.2-0.7c0.1,0,0.2,0,0.2,0c0.3,0,0.6,0.1,0.9,0.3
			c0.3,0.3,0.5,0.6,0.5,1v0.3l42.2,7.1c0.2,0,0.5,0.1,0.7,0.3c0.1,0.1,11.5,9.9,22.7,19.9c23.1,20.5,23.1,21.5,23.1,22.4
			c0,1.6,1.3,27.7,2,41.2c0,0,0,0.1,0,0.1l-2,35.7c0.6,2.7,5.5,28.4-9.1,47c-15.7,20-46.3,44.3-80.8,47c0,0-0.1,0-0.1,0H123.9z"/>
		<path fill="#FDC2A9" d="M223.4,191.7c0,0-2-39.3-2-41.3c0-2-45.4-41.3-45.4-41.3l-43.3-7.3v-1.5l-4.4,0.7l-4.4-0.7v1.5l-43.3,7.3
			c0,0-45.4,39.3-45.4,41.3s-2,41.3-2,41.3l2,35.9c0,0-6.1,27.1,8.8,46c14.1,17.9,44.5,43.7,79.9,46.5h8.8
			c35.3-2.7,65.8-28.5,79.9-46.5c14.9-19,8.8-46,8.8-46L223.4,191.7z"/>
		
			<radialGradient id="SVGID_10_" cx="407.5103" cy="1461.9376" r="55.1485" gradientTransform="matrix(0.7837 2.600000e-003 0 0.3168 -192.112 -194.6197)" gradientUnits="userSpaceOnUse">
			<stop  offset="0" style="stop-color:#FFDFCC"/>
			<stop  offset="0.6013" style="stop-color:#FECFB8"/>
			<stop  offset="1" style="stop-color:#FDC2A9"/>
		</radialGradient>
		<path fill="url(#SVGID_10_)" d="M179,270.5c0,11.3-22.6,20.4-50.5,20.3c-27.9-0.1-50.5-9.3-50.5-20.6c0-11.3,22.6-20.4,50.5-20.3
			C156.3,250,179,259.3,179,270.5z"/>
		
			<radialGradient id="SVGID_11_" cx="1014.342" cy="399.2006" r="46.5002" gradientTransform="matrix(0.5388 0.342 -0.58 0.9136 -95.6157 -462.2073)" gradientUnits="userSpaceOnUse">
			<stop  offset="0" style="stop-color:#FDA09B"/>
			<stop  offset="1" style="stop-color:#FDC2A9"/>
		</radialGradient>
		<path fill="url(#SVGID_11_)" d="M212.6,273.6c14.9-19,8.8-46,8.8-46l1.2-20.3c-10,4.6-20.3,13.8-28.2,26.3
			c-14.9,23.5-15.8,49.6-1.9,58.4c0.5,0.3,0.9,0.6,1.4,0.8C201.6,286.2,208,279.5,212.6,273.6z"/>
		
			<radialGradient id="SVGID_12_" cx="946.3751" cy="424.6436" r="46.4999" gradientTransform="matrix(-0.5388 0.342 0.58 0.9136 303.9608 -462.2073)" gradientUnits="userSpaceOnUse">
			<stop  offset="0" style="stop-color:#FDA09B"/>
			<stop  offset="1" style="stop-color:#FDC2A9"/>
		</radialGradient>
		<path fill="url(#SVGID_12_)" d="M65.4,233.5C56.6,219.7,45,209.9,34,206l1.2,21.6c0,0-6.1,27.1,8.8,46c4.8,6.1,11.6,13.2,19.8,20
			c1.2-0.4,2.4-1,3.5-1.7C81.2,283.1,80.3,257,65.4,233.5z"/>
		<path fill="#F79183" d="M221.4,227.6l0.1-2.4c-1.6,0.5-2.8,1-2.8,1c2.3,28.8-8,48.3-17.4,59.8c4.5-4.3,8.3-8.5,11.3-12.4
			C227.5,254.6,221.4,227.6,221.4,227.6z M38.7,226.2c0,0-1.7-0.7-3.6-1.3l0.1,2.6c0,0-6.1,27.1,8.8,46c4,5,9.2,10.7,15.5,16.3
			C49.4,279.1,36.2,258.5,38.7,226.2z"/>
		
			<radialGradient id="SVGID_13_" cx="395.4554" cy="576.4617" r="57.1704" gradientTransform="matrix(0.6769 0 0 0.6769 -140.448 -264.7701)" gradientUnits="userSpaceOnUse">
			<stop  offset="0" style="stop-color:#FFDFCC"/>
			<stop  offset="0.6013" style="stop-color:#FECFB8"/>
			<stop  offset="1" style="stop-color:#FDC2A9"/>
		</radialGradient>
		<path fill="url(#SVGID_13_)" d="M208.3,137.6c-13.9,25.2-44,42.7-79,42.7c-35.5,0-66-18-79.6-43.9c13.3-12,30.9-27.3,30.9-27.3
			l43.3-7.3v-1.5l4.4,0.7l4.4-0.7v1.5l43.3,7.3C176,109.1,194.9,125.4,208.3,137.6z"/>
		
			<radialGradient id="SVGID_14_" cx="1019.8187" cy="778.9561" r="14.0162" gradientTransform="matrix(-0.5181 0.2674 0.2463 0.4771 436.2393 -412.6631)" gradientUnits="userSpaceOnUse">
			<stop  offset="0" style="stop-color:#FFDFCC"/>
			<stop  offset="1" style="stop-color:#FDC2A9"/>
		</radialGradient>
		<path fill="url(#SVGID_14_)" d="M89.5,238.2c2.6,5.1,9.2,6.9,14.8,4.1c5.5-2.9,7.9-9.3,5.3-14.4c-2.6-5.1-9.2-6.9-14.8-4.1
			C89.2,226.6,86.9,233.1,89.5,238.2z"/>
		
			<radialGradient id="SVGID_15_" cx="2043.9355" cy="204.9698" r="14.0161" gradientTransform="matrix(0.5181 0.2674 -0.2463 0.4771 -849.5825 -412.6631)" gradientUnits="userSpaceOnUse">
			<stop  offset="0" style="stop-color:#FFDFCC"/>
			<stop  offset="1" style="stop-color:#FDC2A9"/>
		</radialGradient>
		<path fill="url(#SVGID_15_)" d="M169.1,238.2c-2.6,5.1-9.2,6.9-14.8,4.1c-5.5-2.9-7.9-9.3-5.3-14.4c2.6-5.1,9.2-6.9,14.8-4.1
			C169.4,226.6,171.7,233.1,169.1,238.2z"/>
		<g>
			<g>
				<linearGradient id="SVGID_16_" gradientUnits="userSpaceOnUse" x1="181.6944" y1="199.1945" x2="188.2575" y2="136.1887">
					<stop  offset="0" style="stop-color:#FDC2A9"/>
					<stop  offset="1" style="stop-color:#E57D6E"/>
				</linearGradient>
				<path fill="url(#SVGID_16_)" d="M152.4,231.7c0,0-9.9-48.2,6.4-77.3c0,0,42.6-3.8,53.8,15.7c8.4,14.6-1.1,36.6-2.4,47l-14.6,7
					L152.4,231.7z"/>
				<g>
					<path fill="#F4866F" d="M209.7,215.9c0.2-10.9-4.8-24.3-14.4-31.6c-6.5-4.9-15.2-4.8-21.6-2.4c-9.9,3.7-17,12.7-18.7,23.2
						c0,0-2.9,13.7-1.8,26.8c0,0,19.9-7.8,19-6.4C171.3,227,209.7,215.9,209.7,215.9z"/>
					<path fill="#B14F43" d="M155,205.2c3-13.8,15.1-25.9,30.6-23.8c16,2.2,22.4,21.3,23.4,34.4c0.1,0.7,1.2,0.9,1.2,0.2
						c1.3-13.7-7.9-33.7-23.6-36.3c-16.3-2.7-29.8,10.7-31.9,25.4C154.8,205.2,154.9,205.3,155,205.2L155,205.2z"/>
				</g>
				
					<radialGradient id="SVGID_17_" cx="467.9477" cy="714.9175" r="35.0315" gradientTransform="matrix(0.6969 0 0 0.6969 -151.0659 -262.8012)" gradientUnits="userSpaceOnUse">
					<stop  offset="0" style="stop-color:#D89393"/>
					<stop  offset="1" style="stop-color:#000000"/>
				</radialGradient>
				<path fill="url(#SVGID_17_)" d="M155.8,221.2c0,0-2.8-29.4,22-36.2c0,0,24.6-5.6,31.7,31.8c0,0-0.3,6.5-12.9,15.4
					c-10.8,7.6-31.6,2.3-34.6-0.3C159.7,229.8,155.8,221.2,155.8,221.2z"/>
				<g>
					<path fill="#FFFFFF" d="M205.9,216.8c-2.8-13.8-6.8-26.4-21.5-29.2c-7.7-1.5-14.9,2.1-19.6,7c-8,8.5-9.4,22.1-9.9,33.8
						c0,0-2.2,4.1-0.2,4.9l4.1-1.1c0,0,13.4,4.2,26.4,3.2c12.9-1,20.7-16.5,20.7-16.5L205.9,216.8z"/>
				</g>
				<path d="M154.9,228.5c1.1-15.4,3.8-35.4,21-39.9c7.6-2,16.7,1.1,21.8,8.1c4.4,6,5.8,13.4,7.4,20.1c0.2,1.1,2,1.1,1.7,0
					c-1.4-7.3-3.2-15.4-8.2-21.7c-4.9-6.2-13-9.4-20.3-8.4C158.4,189.4,155.2,211.9,154.9,228.5
					C154.8,228.5,154.9,228.5,154.9,228.5L154.9,228.5z"/>
				<path d="M204.9,222.1c0,0,1.5-9.6-6.7-25c0,0,5.9,6.1,9.1,22.1L204.9,222.1z"/>
			</g>
		</g>
		<g>
			<g>
				
					<linearGradient id="SVGID_18_" gradientUnits="userSpaceOnUse" x1="-440.6657" y1="199.2354" x2="-434.1105" y2="136.3051" gradientTransform="matrix(-1 0 0 1 -365.2253 0)">
					<stop  offset="0" style="stop-color:#FDC2A9"/>
					<stop  offset="1" style="stop-color:#E57D6E"/>
				</linearGradient>
				<path fill="url(#SVGID_18_)" d="M104.7,231.7c0,0,9.9-48.2-6.4-77.3c0,0-42-3.8-53.7,16.3c-8.5,14.6,1,36,2.2,46.3l14.6,7
					L104.7,231.7z"/>
				<g>
					<path fill="#F4866F" d="M47.5,215.9c-0.2-10.9,4.8-24.3,14.4-31.6c6.5-4.9,15.2-4.8,21.6-2.4c9.9,3.7,17,12.7,18.7,23.2
						c0,0,2.9,13.7,1.8,26.8c0,0-19.9-7.8-19-6.4C85.8,227,47.5,215.9,47.5,215.9z"/>
					<path fill="#B14F43" d="M102.2,205.2c-3-13.8-15.1-25.9-30.6-23.8c-16,2.2-22.4,21.3-23.4,34.4c-0.1,0.7-1.2,0.9-1.2,0.2
						c-1.3-13.7,7.9-33.7,23.6-36.3c16.3-2.7,29.8,10.7,31.9,25.4C102.3,205.2,102.2,205.3,102.2,205.2L102.2,205.2z"/>
				</g>
				
					<radialGradient id="SVGID_19_" cx="-659.4481" cy="714.9175" r="35.0315" gradientTransform="matrix(-0.6969 0 0 0.6969 -377.4978 -262.8012)" gradientUnits="userSpaceOnUse">
					<stop  offset="0" style="stop-color:#D89393"/>
					<stop  offset="1" style="stop-color:#000000"/>
				</radialGradient>
				<path fill="url(#SVGID_19_)" d="M101.3,221.2c0,0,2.8-29.4-22-36.2c0,0-24.6-5.6-31.7,31.8c0,0,0.3,6.5,12.9,15.4
					c10.8,7.6,31.6,2.3,34.6-0.3C97.5,229.8,101.3,221.2,101.3,221.2z"/>
				<g>
					<path fill="#FFFFFF" d="M51.2,216.8c2.8-13.8,6.8-26.4,21.5-29.2c7.7-1.5,14.9,2.1,19.6,7c8,8.5,9.4,22.1,9.9,33.8
						c0,0,2.2,4.1,0.2,4.9l-4.1-1.1c0,0-13.4,4.2-26.4,3.2c-12.9-1-20.7-16.5-20.7-16.5L51.2,216.8z"/>
				</g>
				<path d="M102.2,228.5c-1.1-15.4-3.8-35.4-21-39.9c-7.6-2-16.7,1.1-21.8,8.1c-4.4,6-5.8,13.4-7.4,20.1c-0.2,1.1-2,1.1-1.7,0
					c1.4-7.3,3.2-15.4,8.2-21.7c4.9-6.2,13-9.4,20.3-8.4C98.8,189.4,101.9,211.9,102.2,228.5C102.3,228.5,102.2,228.5,102.2,228.5
					L102.2,228.5z"/>
				<path d="M52.2,222.1c0,0-1.5-9.6,6.7-25c0,0-5.9,6.1-9.1,22.1L52.2,222.1z"/>
			</g>
		</g>
		<linearGradient id="SVGID_20_" gradientUnits="userSpaceOnUse" x1="128.3173" y1="317.7961" x2="128.3173" y2="102.3662">
			<stop  offset="0" style="stop-color:#FCAC8A"/>
			<stop  offset="1" style="stop-color:#C66755"/>
		</linearGradient>
		<path fill="url(#SVGID_20_)" d="M221.4,227.6l2-35.9c0,0-2-39.3-2-41.3S176,109.1,176,109.1l-43.3-7.3v-1.5l-4.4,0.7l-4.4-0.7v1.5
			l-43.3,7.3c0,0-45.4,39.3-45.4,41.3s-2,41.3-2,41.3l2,35.9c0,0-1.5,6.7-1.2,15.9c0.5-1.5,0.9-3,1.2-4.6c0.3,2.2,0.4,4.4,0.3,6.7
			c0,0.7,1,0.8,1.2,0.2c2.7-10.6,2.6-21.6-0.4-32.1c1.1,0.8,2.1,1.5,3.2,2.3c0.4,0.3,1-0.2,0.8-0.6c-3.1-8.5-4.9-17.6-4.2-26.7
			c0.7-9.4,4.1-18.3,8.2-26.7c0.1-0.1,0-0.2-0.1-0.3l0.1-0.2c21.7-11,41.8-26.5,50.6-49.6l-1,9.6c0,0-0.1,0-0.1,0.1
			c-2.8,9.1-7.9,17.5-15,23.8c-0.4,0.3,0,0.9,0.4,0.8c14.6-3.1,27.9-16.4,32.2-30.7l0,7.4c-0.1,0-0.1,0-0.1,0.1
			c1,4.4,2,8.9,3.1,13.3c0.1,0.3,0.6,0.4,0.7,0c0.5-3.7,1.1-7.3,1.6-11c6.1,24.8,28.2,41.7,51.5,49.7c0.5,0.2,1-0.6,0.5-0.9
			c-16.8-13.8-27.2-33-32.2-53.7c10.8,14.3,28.1,24.7,44.9,30.2c7.7,2.5,15.8,4.1,23.8,4.7c1.6,2,3.3,3.8,5.1,5.5l1.5,1.7
			c-0.1,0.1-0.1,0.2-0.1,0.3c4.1,8.3,7.5,17,8.2,26.3c0.7,9-1.2,17.9-4.3,26.4c-0.2,0.4,0.4,0.9,0.8,0.6c1.1-0.8,2.1-1.5,3.2-2.3
			c-3.1,10.5-3.2,21.5-0.5,32.1c0.2,0.6,1.2,0.5,1.2-0.2c-0.1-2.3,0.1-4.5,0.4-6.7c0.4,2.1,1,4.1,1.7,6
			C223.1,235.1,221.4,227.6,221.4,227.6z"/>
		<linearGradient id="SVGID_21_" gradientUnits="userSpaceOnUse" x1="166.7924" y1="150.9102" x2="173.3303" y2="163.2978">
			<stop  offset="0" style="stop-color:#651507"/>
			<stop  offset="1" style="stop-color:#4A0C03"/>
		</linearGradient>
		<path fill="url(#SVGID_21_)" d="M142.7,167.7c0,0,0.7,11.7,6.3,14.3c0,0,5-2.7,11-8.3c6-5.7,13.7-12.7,23-15.7
			c9.3-3,24.3,5,29.7,12.3c0,0-6.7-16.3-23-22c-16.3-5.7-26.3,2-26.3,2s-11.7,10-14.3,15.3c-1.8,3.6-3,9.3-3,9.3
			S143.7,173,142.7,167.7z"/>
		
			<linearGradient id="SVGID_22_" gradientUnits="userSpaceOnUse" x1="-152.6633" y1="150.9102" x2="-146.1254" y2="163.2978" gradientTransform="matrix(-1 0 0 1 -62.3334 0)">
			<stop  offset="0" style="stop-color:#651507"/>
			<stop  offset="1" style="stop-color:#4A0C03"/>
		</linearGradient>
		<path fill="url(#SVGID_22_)" d="M114.4,167.7c0,0-0.7,11.7-6.3,14.3c0,0-5-2.7-11-8.3c-6-5.7-13.7-12.7-23-15.7
			c-9.3-3-24.3,5-29.7,12.3c0,0,6.7-16.3,23-22c16.3-5.7,26.3,2,26.3,2s11.7,10,14.3,15.3c1.8,3.6,3,9.3,3,9.3
			S113.4,173,114.4,167.7z"/>
		<g>
			<linearGradient id="SVGID_23_" gradientUnits="userSpaceOnUse" x1="176.7658" y1="220.5779" x2="176.7658" y2="206.9729">
				<stop  offset="0" style="stop-color:#580107"/>
				<stop  offset="1" style="stop-color:#3A0003"/>
			</linearGradient>
			<circle fill="url(#SVGID_23_)" cx="176.8" cy="213.8" r="16.2"/>
			<linearGradient id="SVGID_24_" gradientUnits="userSpaceOnUse" x1="176.7658" y1="220.5778" x2="176.7658" y2="206.9728">
				<stop  offset="0" style="stop-color:#7C2314"/>
				<stop  offset="1" style="stop-color:#61170D"/>
			</linearGradient>
			<circle fill="url(#SVGID_24_)" cx="176.8" cy="213.8" r="13.8"/>
			<circle cx="176.8" cy="213.8" r="8.3"/>
			<linearGradient id="SVGID_25_" gradientUnits="userSpaceOnUse" x1="176.7658" y1="221.0291" x2="176.7658" y2="214.5633">
				<stop  offset="0" style="stop-color:#AC6363"/>
				<stop  offset="1" style="stop-color:#000000"/>
			</linearGradient>
			<circle fill="url(#SVGID_25_)" cx="176.8" cy="213.8" r="6.8"/>
			<linearGradient id="SVGID_26_" gradientUnits="userSpaceOnUse" x1="176.7658" y1="209.7479" x2="176.7658" y2="204.0893">
				<stop  offset="0" style="stop-color:#AC6363"/>
				<stop  offset="1" style="stop-color:#FFFFFF"/>
			</linearGradient>
			<circle fill="url(#SVGID_26_)" cx="176.8" cy="207.9" r="3.6"/>
			<circle fill="#FFFFFF" cx="176.8" cy="220.1" r="1.8"/>
			<linearGradient id="SVGID_27_" gradientUnits="userSpaceOnUse" x1="176.7658" y1="222.3828" x2="176.7658" y2="227.7977">
				<stop  offset="0" style="stop-color:#AD4230"/>
				<stop  offset="0.9988" style="stop-color:#E5837E"/>
			</linearGradient>
			<path fill="url(#SVGID_27_)" d="M181,224.5c0,1.2-1.9,2.2-4.2,2.2c-2.3,0-4.2-1-4.2-2.2C172.5,223.3,181,223.3,181,224.5z"/>
		</g>
		<g>
			<linearGradient id="SVGID_28_" gradientUnits="userSpaceOnUse" x1="80.0856" y1="220.1266" x2="80.0856" y2="206.5217">
				<stop  offset="0" style="stop-color:#580107"/>
				<stop  offset="1" style="stop-color:#3A0003"/>
			</linearGradient>
			<circle fill="url(#SVGID_28_)" cx="80.1" cy="213.3" r="16.2"/>
			<linearGradient id="SVGID_29_" gradientUnits="userSpaceOnUse" x1="80.0856" y1="220.1266" x2="80.0856" y2="206.5217">
				<stop  offset="0" style="stop-color:#7C2314"/>
				<stop  offset="1" style="stop-color:#61170D"/>
			</linearGradient>
			<circle fill="url(#SVGID_29_)" cx="80.1" cy="213.3" r="13.8"/>
			<circle cx="80.1" cy="213.3" r="8.3"/>
			<linearGradient id="SVGID_30_" gradientUnits="userSpaceOnUse" x1="80.0855" y1="220.5778" x2="80.0855" y2="214.112">
				<stop  offset="0" style="stop-color:#AC6363"/>
				<stop  offset="1" style="stop-color:#000000"/>
			</linearGradient>
			<circle fill="url(#SVGID_30_)" cx="80.1" cy="213.3" r="6.8"/>
			<linearGradient id="SVGID_31_" gradientUnits="userSpaceOnUse" x1="80.0855" y1="209.2966" x2="80.0855" y2="203.638">
				<stop  offset="0" style="stop-color:#AC6363"/>
				<stop  offset="1" style="stop-color:#FFFFFF"/>
			</linearGradient>
			<circle fill="url(#SVGID_31_)" cx="80.1" cy="207.5" r="3.6"/>
			<circle fill="#FFFFFF" cx="80.1" cy="219.7" r="1.8"/>
			<linearGradient id="SVGID_32_" gradientUnits="userSpaceOnUse" x1="80.0855" y1="221.9316" x2="80.0855" y2="227.3465">
				<stop  offset="0" style="stop-color:#AD4230"/>
				<stop  offset="0.9988" style="stop-color:#E5837E"/>
			</linearGradient>
			<path fill="url(#SVGID_32_)" d="M84.3,224.1c0,1.2-1.9,2.2-4.2,2.2s-4.2-1-4.2-2.2C75.8,222.9,84.3,222.9,84.3,224.1z"/>
		</g>
		<g>
			<linearGradient id="SVGID_33_" gradientUnits="userSpaceOnUse" x1="148.3011" y1="221.5855" x2="110.1931" y2="242.0614">
				<stop  offset="0" style="stop-color:#FDC2A9"/>
				<stop  offset="1" style="stop-color:#E57D6E"/>
			</linearGradient>
			<path fill="url(#SVGID_33_)" d="M151.6,241.8c0,0-13.3-9.6-13.9-15.8c-0.6-6.2,0.6-20.9,0.6-20.9S149.3,220.3,151.6,241.8z"/>
			
				<linearGradient id="SVGID_34_" gradientUnits="userSpaceOnUse" x1="807.8091" y1="221.5855" x2="769.7009" y2="242.0615" gradientTransform="matrix(-1 0 0 1 918.1466 0)">
				<stop  offset="0" style="stop-color:#FDC2A9"/>
				<stop  offset="1" style="stop-color:#E57D6E"/>
			</linearGradient>
			<path fill="url(#SVGID_34_)" d="M107,241.8c0,0,13.3-9.6,13.9-15.8c0.6-6.2-0.6-20.9-0.6-20.9S109.4,220.3,107,241.8z"/>
			<linearGradient id="SVGID_35_" gradientUnits="userSpaceOnUse" x1="129.3981" y1="231.5257" x2="129.3981" y2="251.6627">
				<stop  offset="0" style="stop-color:#FDC2A9"/>
				<stop  offset="0.9981" style="stop-color:#FFA79C"/>
			</linearGradient>
			<path fill="url(#SVGID_35_)" d="M148.1,240.6c-2.9-2.4-7.3-5.2-16.5-5.5v0h-4.4v0c-9.2,0.3-13.7,3.1-16.5,5.5
				c-3,2.5-6.1,8.9-6.1,8.9l1.7,6.4l12.6,1.7l8.3,1.7v0.9l2.2-0.4l2.2,0.4v-0.9l8.3-1.7l12.6-1.7l1.7-6.4
				C154.2,249.5,151.2,243.2,148.1,240.6z"/>
			<linearGradient id="SVGID_36_" gradientUnits="userSpaceOnUse" x1="128.7452" y1="213.5083" x2="128.7452" y2="244.4739">
				<stop  offset="0" style="stop-color:#FDC2A9"/>
				<stop  offset="0.9981" style="stop-color:#FFC9BF"/>
			</linearGradient>
			<path fill="url(#SVGID_36_)" d="M137.6,237.3L137.6,237.3c0.1,0-5.1-6.8-5.6-32.2c0,0,0.3-1-1.3-1.5v-0.2h-3.9v0.2
				c-1.6,0.4-1.3,1.5-1.3,1.5c-0.4,25.4-5.7,32.2-5.7,32.2l0.1,0c-1.2,1.4-1.8,3.1-1.8,4.9c0,4.8,4.8,8.7,10.7,8.7
				c5.9,0,10.7-3.9,10.7-8.7C139.4,240.3,138.7,238.6,137.6,237.3z"/>
			<ellipse fill="#FFDCD3" cx="128.7" cy="238.7" rx="4.8" ry="2.7"/>
			<g>
				<path fill="#DA6B5A" d="M147.4,250c-2.7-0.8-9.6,0-12.1,2.3s-4.5,2.5-6.3,2.5h-0.3c-1.7,0-3.8-0.3-6.1-2.5
					c-2.3-2.3-9-3.1-11.6-2.3c-2.6,0.8-5.8-0.3-5.8-0.3l0.3,4.9c5.7,11.8,19.7,12.5,23.4,12.4c3.8,0.1,17.2-0.4,23.1-12.2l1.5-5.1
					C153.4,249.8,150.1,250.9,147.4,250z"/>
				<linearGradient id="SVGID_37_" gradientUnits="userSpaceOnUse" x1="129.2939" y1="274.2726" x2="129.2939" y2="259.2696">
					<stop  offset="0" style="stop-color:#FDC2A9"/>
					<stop  offset="1" style="stop-color:#E57D6E"/>
				</linearGradient>
				<path fill="url(#SVGID_37_)" d="M147.4,252.8c-2.7-0.8-9.6,0-12.1,2.3c-2.4,2.3-4.5,2.5-6.3,2.5h-0.3c-1.7,0-3.8-0.3-6.1-2.5
					c-2.3-2.3-9-3.1-11.6-2.3c-2.6,0.8-5.8-0.3-5.8-0.3l1.5,5.1c5.7,11.8,18.6,12.3,22.2,12.2c3.8,0.1,17.2-0.4,23.1-12.2l1.5-5.1
					C153.4,252.5,150.1,253.6,147.4,252.8z"/>
				<path d="M139,259.3c4.5,0.4,6.5-1.9,6.5-1.9C142,257,139,259.3,139,259.3z M112.6,257.4c0,0,2,2.3,6.5,1.9
					C119.2,259.3,116.2,257,112.6,257.4z"/>
				<linearGradient id="SVGID_38_" gradientUnits="userSpaceOnUse" x1="129.108" y1="252.5106" x2="129.108" y2="246.1515">
					<stop  offset="0" style="stop-color:#943D30"/>
					<stop  offset="1" style="stop-color:#E57D6E"/>
				</linearGradient>
				<path fill="url(#SVGID_38_)" d="M146.8,256.5c-2.7-0.1-6.5,0.3-8.6,2.1c-1.1,0.9-1.4,2.3-2.2,3.4c-1.7,2.3-4.4,2.9-7.2,2.8
					c0,0,0,0,0,0c-2.2,0-4.4-0.5-6-2.1c-1.2-1.2-1.4-3-2.7-4.1c-2.1-1.8-5.9-2.2-8.6-2.1c-0.5,0-0.6,0.8-0.1,0.8
					c2.8,0.4,6.9,0.4,8.8,2.9c0.9,1.2,1.1,2.4,2.3,3.4c1.9,1.6,4.3,2.2,6.7,1.5c2.4,0.7,4.8,0.1,6.7-1.5c1.2-1,1.4-2.4,2.3-3.4
					c2.1-2.4,5.8-2.5,8.8-2.9C147.4,257.3,147.3,256.5,146.8,256.5z M151.5,245.4c-0.3-0.3-0.8,0.1-0.5,0.4
					c3.7,5.1,1.5,15.1-6.4,14.1c-0.1,0-0.2,0.2,0,0.2c3.6,0.8,7.6-0.2,9.5-3.5C156.3,252.6,154.4,248.3,151.5,245.4z M113.7,259.8
					c-7.9,1-10.2-8.9-6.4-14.1c0.2-0.3-0.3-0.7-0.5-0.4c-3,3-4.8,7.2-2.5,11.2c1.9,3.3,5.9,4.3,9.5,3.5
					C113.9,260,113.9,259.8,113.7,259.8z"/>
			</g>
		</g>
	</g>
	<g>
		<linearGradient id="SVGID_39_" gradientUnits="userSpaceOnUse" x1="132.4395" y1="138.6352" x2="132.4395" y2="187.4097">
			<stop  offset="0" style="stop-color:#7C2314"/>
			<stop  offset="1" style="stop-color:#61170D"/>
		</linearGradient>
		<path fill="url(#SVGID_39_)" d="M248.5,128.3c8.3,12.4,14.4,28.3,10.2,42.6c-0.9-5.4-2.9-10.7-5.8-15.3l-3.5-8.2
			c3.2,14.9,2.4,30.6-2.3,45c-1.9,5.9-4.5,12.5-2,18.5l-0.6,0.3c-2.3-1.4-4.6-2.7-6.9-4.1c0.4-1.1,0.6-2.4,0.4-3.6
			c-2.9,0.6-4.7,4.9-6,7.7c-5.4,11.2-7.3,24.5-5.1,37.3c-3.1-5.4-5.1-11.5-6-17.6c-0.8,3.2-1.1,6.6-1,10c-2.9-11.1-2.5-22.9,1-33.4
			c-1.5,1.1-3,2.2-4.5,3.3c7.3-19.7,5.5-34.8-4.2-52.9l-1.8-2.2c0,0-1.2-1.2-2.5-2.9c-0.9-1-1.8-2-2.7-3.1l0.6,0c0,0,0,0,0,0
			c-26.8-1.7-53.3-14.9-70.4-36.6c4.2,21.8,16.1,42.4,33.3,56.6c-12-4.2-23.4-10.3-32.8-19.1c-9.3-8.7-16.4-20.2-19-32.8
			c-0.6,4.6-1.2,9.1-1.8,13.7c-1.1-4.4-2.2-8.9-3.3-13.3l0-10.1c-4.5,15.5-17.2,28.4-32.4,32.9c7-6.4,12.2-14.9,14.8-24.2l1.1-11.3
			c0,0-0.1,0-0.1,0.1c-5.6,14.6-16.1,27-28.4,36.7c-6.9,5.4-14.3,9.9-22,13.9l-0.5,0.9c-9.8,18.1-11.6,33.9-4.4,53.6
			c-1.5-1.1-3-2.2-4.5-3.3c3.5,10.5,3.8,22.3,0.9,33.4c0.2-3.4-0.1-6.7-0.9-10c-0.9,6.2-2.9,12.2-6,17.6c2.2-12.9,0.4-26.2-5-37.3
			c-1.3-2.8-3.1-7.1-6-7.7c-0.2,1.2,0,2.5,0.4,3.6c-2.3,1.4-4.6,2.7-6.9,4.1l0-2.5c3.9-19.7-7.2-39.2-3.3-58.3
			c-2.3,4.8-3.6,10.1-3.9,15.4c-2.7-16.7-4.8-35.4,5-48.9c-4.5,3.5-7.9,8.8-9.1,14.5c0.2-12.5,1.9-25.2,7.3-36.4
			c4.2-8.7,10.8-16.3,19-20.7C29,73,31.4,72,34,71.4l0-2.4c-8.4-0.1-16.9,3.5-22.9,9.9c7.8-10.8,17-20.7,28.1-27.5
			c11-6.8,24.1-10.5,36.7-8.7c-5.7-6.5-15.6-8.7-23.7-5.3c11.4-8.9,27.7-10.6,40.4-4.3l0.6-2.1c-0.9-3.9-1.5-8.3,0.6-11.8
			c1.3-2.2,3.6-3.7,5.5-5.3c3.2-2.7,5.8-6.1,7.6-9.8c-1,4.2-2,8.5-2,12.8c0,4.3,1.2,8.8,4,12.1c-1.1-4.3,1.6-8.8,5.1-11.4
			c3.5-2.6,7.8-3.9,11.8-5.7c6.5-2.8,12.4-6.9,17.9-11.4c-6.5,8.7-13,17.4-19.4,26.2l2.7,0.7c5.5-6.6,14.2-9.5,22.6-10.5
			c8.4-0.9,17-0.2,25.4-0.7c8.5-0.5,17.2-2.5,23.4-8.1c-8.8,11.9-18.1,24.2-31.3,31.3l1.2,0.5c45.8-7,59.1,14.9,59.1,14.9
			c-10.3-7.5-25.6-6.5-34.5,2.2c10.1,2.6,20.5,5.3,29.3,11.4c10.5,7.2,17.7,18.5,24.6,29.7c0,0,0,0,0,0c0.2,0.4,0.5,0.7,0.7,1.1
			c-4.6-3.7-10-6.4-15.6-7.8l-1.8,0.6c17,12.8,29.4,32.4,34.1,53.9C259.5,139.5,254.2,133.7,248.5,128.3z"/>
		<linearGradient id="SVGID_40_" gradientUnits="userSpaceOnUse" x1="130.3585" y1="159.4887" x2="130.3585" y2="177.8547">
			<stop  offset="0" style="stop-color:#A65857"/>
			<stop  offset="1" style="stop-color:#984539"/>
		</linearGradient>
		<path fill="url(#SVGID_40_)" d="M247.4,154.8c-2.7,23.4-9.5,34.2-9.1,38.2c0.3,4.1,3.7,11.8,3.7,11.8c-0.7-3,1.4-11.2,1.4-11.2
			C249.5,177.1,247.4,154.8,247.4,154.8z M13.6,171.4c0,0-1.4,7.8,0,12.2c1.4,4.4,1.7,19,1.7,19s1.7-3,3.4-2.7
			c1.7,0.3,8.8,9.8,8.8,9.8c-0.7-3.4-8.1-21-10.5-25.4C14.6,179.9,13.6,171.4,13.6,171.4z"/>
		<linearGradient id="SVGID_41_" gradientUnits="userSpaceOnUse" x1="129.0856" y1="138.6351" x2="129.0856" y2="187.4097">
			<stop  offset="0" style="stop-color:#9B4841"/>
			<stop  offset="1" style="stop-color:#923A2D"/>
		</linearGradient>
		<path fill="url(#SVGID_41_)" d="M222.7,105.3c18.5,14.9,21.2,31.6,21.2,31.6c-15.8-21.2-55-32.5-55-32.5
			c4.1,32.9,32.5,40.6,32.5,40.6l-9.9-0.5C162.7,143.2,132,89,132,89l-0.9,11.3c-1.4,35.7,20.3,58.2,20.3,58.2
			c-12.3-6.8-23.8-22.6-28.6-35.5c-2.5-6.8-4.5-14.1-5.3-21.3l-2.3,4.1l-2.7-17.1c-5.3,27.1-18.1,37.1-18.5,37.4
			c7.2-14.4,3.2-46.5,3.2-46.5s-6.8,27.5-29.8,52.3c-23,24.8-56.4,32.9-56.4,32.9c2.7-3.6,6.3-11.7,6.3-11.7
			c5.4-19.9,14-37.9,14-37.9c-14,7.7-20.3,21.2-20.3,21.2c4.1-26.2,27.1-42.9,27.1-42.9c-15.3,2.7-29.3,14-29.3,14
			c1.6-16.8,14.9-30.4,17.9-33.3C29,73,31.4,72,34,71.4l0-2.4c-8.4-0.1-16.9,3.5-22.9,9.9c3.3-4.6,6.9-9,10.8-13.2c0,0,0,0,0,0
			c5.2-5.5,11-10.4,17.3-14.4c3.6-2.2,7.4-4.1,11.3-5.6c8.2-3.1,16.9-4.3,25.4-3.1c-5.7-6.5-15.6-8.7-23.7-5.3
			c3.6-2.8,7.6-4.9,11.9-6.2c7.8-2.5,16.3-2.5,23.9,0c0,0,0,0,0,0c1.6,0.5,3.1,1.1,4.6,1.9l0.6-2.1c-0.9-3.9-1.5-8.3,0.6-11.8
			c0.9-1.6,2.3-2.7,3.8-3.9c0.6-0.5,1.2-0.9,1.8-1.4c3.2-2.7,5.8-6.1,7.6-9.8c-1,4.2-2,8.5-2,12.8c0,4.3,1.2,8.8,4,12.1
			c-1.1-4.3,1.6-8.8,5.1-11.4c3.5-2.6,7.8-3.9,11.8-5.7c6.5-2.8,12.4-6.9,17.9-11.4c-0.6,0.8-1.2,1.6-1.8,2.4
			c-5.9,7.9-11.8,15.8-17.6,23.8l2.7,0.7c5.5-6.6,14.2-9.5,22.6-10.5c6.3-0.7,12.6-0.4,18.9-0.5c0,0,0,0,0,0c2.2,0,4.3-0.1,6.5-0.2
			c8.5-0.5,17.2-2.5,23.4-8.1c-2.2,2.9-4.4,5.9-6.7,8.8c-7,8.8-14.7,17.2-24.6,22.5l1.2,0.5c18.2-2.8,31.2-1,40.3,2.1c0,0,0,0,0,0
			c13.9,4.8,18.7,12.7,18.7,12.7c-5.8-4.2-13.2-5.8-20.2-4.7c-5.4,0.8-10.5,3.1-14.3,6.9c10.1,2.6,20.5,5.3,29.3,11.4
			c1.1,0.8,2.2,1.6,3.2,2.4c4.8,3.9,8.8,8.6,12.5,13.7c3.1,4.3,6,9,8.9,13.6c-0.1-0.1-0.3-0.3-0.4-0.4c-13.5-14-32.9-11.7-32.9-11.7
			c25.7,12.6,35.6,36.6,35.6,36.6C238.2,110,223.2,105.4,222.7,105.3z"/>
		<linearGradient id="SVGID_42_" gradientUnits="userSpaceOnUse" x1="126.8305" y1="-54.0063" x2="126.8305" y2="156.0379">
			<stop  offset="0" style="stop-color:#D18175"/>
			<stop  offset="1" style="stop-color:#A6524B"/>
		</linearGradient>
		<path fill="url(#SVGID_42_)" d="M180.8,18.4c-4.7,1.4-19.6,3.4-19.6,3.4c-29.8,6.1-35.9,21.7-35.9,21.7
			c6.1-9.5,27.1-12.9,34.5-16.2C167.2,23.8,180.8,18.4,180.8,18.4z M112.4,24.5c-2.7,6.8,2,11.5,2,11.5c0-2,0-12.9,8.1-19
			C122.5,17.1,116,15.5,112.4,24.5z M102.2,15.9c0,0-3.6,6.3-3.6,10.8c0,4.5,1.8,11.3,1.8,11.3s3.6-9.9,2.7-13.1
			C102.2,21.8,102.2,15.9,102.2,15.9z M81,33.5c0,0,12.2,7.2,15.3,12.6C96.4,46.2,97.7,37.1,81,33.5z M36.4,57.5
			c0,0,29.3-8.1,51.4-2.7c0,0-6.8-6.8-25.3-6.8C45.9,48,36.4,57.5,36.4,57.5z M24.2,89.9c0,0,24.4-17.1,49.2-20.8
			C73.4,69.2,44.9,64.7,24.2,89.9z M210.1,46.2c0,0-8.1-5-23-2.3c-14.9,2.7-26.6,8.6-26.6,8.6S196.1,44.4,210.1,46.2z M193.4,68.3
			c0,0,25.7,4.1,36.1,11.3C229.5,79.6,228.1,65.1,193.4,68.3z M151.9,84.1c0,0,18.5,15.3,22.1,21.2c3.6,5.9,14.4,25.3,21.7,31.1
			c0,0-9.9-14.9-13.5-27.1C178.5,97.2,160.4,88.1,151.9,84.1z M87.3,74.6c-24.4,36.6-40.2,53.7-40.2,53.7
			C80.6,103.9,87.3,74.6,87.3,74.6z"/>
		<linearGradient id="SVGID_43_" gradientUnits="userSpaceOnUse" x1="129.0856" y1="139.0236" x2="129.0856" y2="187.0753">
			<stop  offset="0" style="stop-color:#933931"/>
			<stop  offset="1" style="stop-color:#892A1C"/>
		</linearGradient>
		<path fill="url(#SVGID_43_)" d="M249.3,122.4c0,0-9.9-23.9-35.6-36.6c0,0,19.4-2.3,32.9,11.7c0.1,0.1,0.3,0.3,0.4,0.4
			c-2.8-4.6-5.7-9.2-8.9-13.6c-17.3-7.4-41.9-2.4-41.9-2.4c29.1,8.8,40.6,27.1,40.6,27.1c-6.7-6-27.1-14-27.7-14.2
			c9.3,7.3,16.7,20.6,16.9,21c-12.2-9.5-44-23.7-44-23.7c3.4,35.2,22.3,49.4,22.3,49.4c-14.9-2-45.4-32.5-54.8-46
			s-25.7-25.7-25.7-25.7c4.7,14.2,1.4,28.4,1.4,28.4c-2-11.5-17.6-37.2-17.6-37.2c4.7,26.4-5.4,44-5.4,44
			c0.7-21.7-7.4-35.9-7.4-35.9C77.2,128.7,25.1,145,25.1,145c4.1-22.3,18.3-40.6,18.3-40.6c-9.3,2-20,11.2-20.3,11.5
			c10.8-19.6,36.5-31.8,36.5-31.8c-20.3,0-46,14.9-46,14.9c12.2-25.7,55.5-38.6,55.5-38.6c-17.5-7-41,2.6-47.2,5.4c0,0,0,0,0,0
			c-3.9,4.1-7.5,8.5-10.8,13.2C17,72.5,25.6,68.9,34,69l0,2.4c-2.5,0.7-5,1.7-7.3,2.9c-3,2.9-16.3,16.5-17.9,33.3
			c0,0,14-11.3,29.3-14c0,0-23,16.7-27.1,42.9c0,0,6.3-13.5,20.3-21.2c0,0-8.6,18.1-14,37.9c0,0-3.6,8.1-6.3,11.7
			c0,0,33.4-8.1,56.4-32.9c23-24.8,29.8-52.3,29.8-52.3s4.1,32-3.2,46.5c0.4-0.3,13.2-10.4,18.5-37.4l2.7,17.1l2.3-4.1
			c0.8,7.2,2.7,14.5,5.3,21.3c4.8,13,16.3,28.7,28.6,35.5c0,0-21.7-22.6-20.3-58.2L132,89c0,0,30.7,54.1,79.4,55.5l9.9,0.5
			c0,0-28.4-7.7-32.5-40.6c0,0,39.3,11.3,55,32.5c0,0-2.7-16.7-21.2-31.6C223.2,105.4,238.2,110,249.3,122.4z M50.5,45.8
			c7.8-0.9,32.3-2.8,43.6,8.5c0,0-1.3-17-30-23.1c-4.3,1.4-8.3,3.4-11.9,6.2c8.1-3.4,18-1.2,23.7,5.3C67.4,41.5,58.7,42.8,50.5,45.8
			z M88,31.2c3.1,2.6,5.7,5.6,9.2,7.6c-1.3-6.1-2.8-16.7,0.4-23.5c-1.4,1.2-2.8,2.3-3.8,3.9c-2.1,3.4-1.5,7.8-0.6,11.8l-0.6,2.1
			C91.1,32.3,89.6,31.7,88,31.2z M164.9,17.4c1.3-0.3,2.5-0.6,3.8-1c-6.3,0-12.7-0.2-18.9,0.5c-8.4,0.9-17.1,3.9-22.6,10.5l-2.7-0.7
			c5.9-8,11.7-15.9,17.6-23.8C130,13.7,112.7,25.2,120,43.9C128.2,27,148.7,21.6,164.9,17.4z M150.9,50.7c7.5-9.7,28.4-8,39.4-8.6
			c6.1-0.3,12.3-1.3,18.4-0.2c0.1,0,0.2,0,0.3,0.1c-9.1-3.1-22.2-4.9-40.3-2.1l-1.2-0.5C177.3,34,185,25.7,192,16.9l-0.4,0.2
			c-6.7,4.8-12.4,10.9-19.7,15.2C164.4,36.7,154,41.8,150.9,50.7z M207.5,50l-2.4-1.1c-9.8,0.1-19.8,9.7-26.1,16.3
			c10.7-5.1,32.7-1.7,46.7,5.6c-1-0.9-2.1-1.7-3.2-2.4c-8.8-6-19.1-8.8-29.3-11.4C197.1,53.1,202.2,50.8,207.5,50z"/>
		<linearGradient id="SVGID_44_" gradientUnits="userSpaceOnUse" x1="132.4163" y1="138.635" x2="132.4163" y2="187.4096">
			<stop  offset="0" style="stop-color:#651507"/>
			<stop  offset="1" style="stop-color:#4A0C03"/>
		</linearGradient>
		<path fill="url(#SVGID_44_)" d="M94.8,105c-12.8,30.1-40.7,47.2-69.5,60c-0.1,0.1,0,0.3,0.1,0.2c28.7-11.5,59.3-29,70.2-59.9
			C95.8,104.9,95,104.5,94.8,105z M111,107.9c-2.9,7.5-6.5,14.3-12.2,20.2c-5.1,5.2-11.1,8.8-17.7,11.6c6.1-6.6,10.6-14.1,13-22.9
			c0-0.1-0.1-0.1-0.2,0c-2.8,9.1-7.9,17.5-15,23.8c-0.4,0.3,0,0.9,0.4,0.8c15.4-3.3,29.4-17.9,32.9-33.1
			C112.5,107.4,111.3,107.1,111,107.9z M232,171.2c-2.1-7.2-4-14.5-6.3-21.6c4.4-0.7,8.8-1.7,13.1-3c0.8-0.2,0.9-1.6,0-1.7
			c-22.5-3.2-41-19.6-49.1-40.5c-0.3-0.8-1.5-0.5-1.3,0.3c6.6,20.7,25,36.9,46.2,41.2c-17.1,4.7-35.4,4-52.3-1.3
			c-9-2.8-17.6-6.9-25.4-12.2c-7.8-5.2-14.2-11.7-20.6-18.5c-0.6-2.7-1.1-5.4-1.5-8.1c-0.1-0.7-1.4-0.6-1.3,0.2
			c2,23.9,14.7,46.1,32.3,62c-22.9-9.1-42.8-25.4-48.6-50.4c-0.1-0.6-0.9-0.4-1,0.1c-0.5,4-1,7.9-1.4,11.8c-1-3.8-2-7.6-3.1-11.4
			c0-0.1-0.2-0.1-0.2,0.1c1,4.4,2,8.9,3.1,13.3c0.1,0.3,0.6,0.4,0.7,0c0.5-3.7,1.1-7.3,1.6-11c6.1,24.8,28.2,41.7,51.5,49.7
			c0.5,0.2,1-0.6,0.5-0.9c-16.8-13.8-27.2-33-32.2-53.7c10.8,14.3,28.1,24.7,44.9,30.2c7.7,2.5,15.8,4.1,23.8,4.7
			c6.9,8.9,17.1,14.3,25.6,21.4C231.5,172.1,232.2,171.8,232,171.2z M206,150.4c6.2,0.4,12.5,0.2,18.7-0.7c1.7,6.7,3.7,13.4,5.7,20
			C222.2,163.2,213.4,157.9,206,150.4z M44,156.9c-4.5,8-8,16.6-8.9,25.8c-0.9,9.1,0.7,17.9,3.6,26.4c-1-0.8-2.1-1.5-3.1-2.3
			c-0.4-0.3-1,0.2-0.8,0.6c2.9,9.2,3.5,18.8,1.9,28.3c-0.2-1.7-0.4-3.4-0.8-5.1c-0.1-0.5-1.1-0.6-1.1,0c-0.8,5.1-2.2,9.9-4.4,14.5
			c0.9-8.1,0.4-16.4-1.8-24.3c-1.1-4-2.6-7.8-4.4-11.5c-1.3-2.6-2.7-5.5-5.7-6.5c-0.4-0.1-0.8,0.2-0.8,0.6c-0.1,1.8,0.4,2.7-1,4
			c-1.4,1.2-3.6,2.1-5.2,3.1c-0.7,0.5-0.1,1.6,0.7,1.2c2.3-1.3,4.6-2.7,6.9-4.1c0.2-0.2,0.4-0.5,0.3-0.8c-0.3-0.8-0.5-1.6-0.5-2.5
			c2.6,1.4,4,5,5.1,7.6c1.7,3.7,3,7.5,4,11.5c1.9,8.2,2.1,16.6,0.8,24.9c-0.1,0.6,0.7,1.1,1.1,0.5c2.6-4.6,4.4-9.5,5.5-14.6
			c0.3,2.2,0.4,4.4,0.3,6.7c0,0.7,1,0.8,1.2,0.2c2.7-10.6,2.6-21.6-0.4-32.1c1.1,0.8,2.1,1.5,3.2,2.3c0.4,0.3,1-0.2,0.8-0.6
			c-3.1-8.5-4.9-17.6-4.2-26.7c0.7-9.4,4.1-18.3,8.2-26.7C44.5,156.9,44.1,156.7,44,156.9z M248.9,147.5c1.9,11.7,2.1,23.4-0.4,35.1
			c-1.9,9.2-7.6,18.5-3.8,27.9c-1.6-1-3.7-1.8-5.1-3.1c-1.5-1.3-0.9-2.1-1-4c0-0.4-0.4-0.8-0.8-0.6c-2.8,0.9-4.2,3.6-5.5,6.1
			c-1.9,3.8-3.5,7.8-4.7,11.9c-2.2,7.9-2.7,16.2-1.9,24.3c-2.2-4.6-3.6-9.4-4.4-14.5c-0.1-0.6-1-0.5-1.1,0c-0.4,1.7-0.7,3.4-0.8,5.1
			c-1.6-9.4-1-19.1,1.9-28.3c0.1-0.4-0.4-0.9-0.8-0.6c-1,0.8-2.1,1.5-3.1,2.3c2.9-8.4,4.6-17.1,3.7-26c-0.9-9.1-4.4-17.5-8.8-25.5
			c-0.1-0.3-0.5,0-0.4,0.2c4.1,8.3,7.5,17,8.2,26.3c0.7,9-1.2,17.9-4.3,26.4c-0.2,0.4,0.4,0.9,0.8,0.6c1.1-0.8,2.1-1.5,3.2-2.3
			c-3.1,10.5-3.2,21.5-0.5,32.1c0.2,0.6,1.2,0.5,1.2-0.2c-0.1-2.3,0.1-4.5,0.4-6.7c1.1,5.1,2.9,10,5.5,14.6c0.3,0.6,1.2,0.2,1.1-0.5
			c-1.3-8.3-1.1-16.7,0.8-24.9c0.9-3.8,2.2-7.4,3.8-11c1.2-2.7,2.6-6.7,5.4-8.1c0,0.8-0.2,1.7-0.5,2.5c-0.1,0.3,0.1,0.6,0.3,0.8
			c2.3,1.4,4.6,2.8,6.9,4.1c0.6,0.3,1.1-0.2,1-0.7c0.1,0,0.2-0.1,0.1-0.2c-1.7-5.7,0.8-11.6,2.6-17c1.6-5.1,2.9-10.2,3.6-15.5
			c1.4-10.3,0.9-20.9-1.6-31C249.7,146.7,248.8,146.9,248.9,147.5z M264.8,145.7c-4.6-21.5-16.8-40.9-34.3-54.2
			c-0.5-0.4-0.9,0.4-0.5,0.8c16.7,12.9,28.3,31.5,33.5,51.8c-4.6-5.7-9.6-11-14.9-15.9c-0.2-0.2-0.5,0.1-0.3,0.3
			c7.9,11.7,13.4,26.4,10.4,40.5c-1.1-4.8-3-9.2-5.7-13.5c-0.1-0.2-0.4,0-0.3,0.1c2.8,4.8,4.6,9.9,5.5,15.4c0.1,0.4,0.7,0.4,0.8,0
			c2.9-10.3,0.7-20.8-3.5-30.4c-1.2-2.6-2.5-5.2-3.9-7.7c-0.4-0.7-1.1-2.4-1.9-3.3c0.5,0.6,1.2,1.4,1.5,1.8
			c4.5,4.6,8.7,9.5,12.7,14.6C264.4,146.4,264.9,146,264.8,145.7z M168.5,39.5c-0.4,0.1-0.3,0.8,0.1,0.7c15.4-1.9,32.2-2.3,46.4,4.9
			c3.4,1.7,7.1,4,9.8,7c-10.4-5.4-23.6-4-32.3,4.2c-0.5,0.4-0.2,1.3,0.4,1.5c11.8,3.1,23.9,6.3,33.4,14.3c8.3,7,14.3,16.3,20,25.4
			c-4.3-3-8.9-5.2-14.1-6.4c-0.2-0.1-0.3,0.3-0.1,0.4c5.6,1.6,10.8,4.3,15.4,7.9c0.3,0.3,0.9-0.1,0.6-0.5
			c-6.2-10.1-12.5-20.7-21.7-28.4c-9-7.6-20.2-11-31.4-14c9.1-7.6,22.5-7.9,32.3-1.2c0.6,0.4,1.3-0.4,1-1c-2.9-4.6-8.2-8-12.9-10.3
			C201.1,36.9,183.9,36.8,168.5,39.5z M11.6,208.6c0,0.2,0.2,0.2,0.2,0.1c1.9-9.3,1.2-18.1-0.5-27.3c-1.9-10.2-4.1-20.5-2.3-30.9
			c0.1-0.6-0.8-1.1-1.1-0.5c-1.8,4-2.9,8.1-3.4,12.3c-2.2-15.3-3.7-32,5.5-45.3c0.3-0.5-0.4-0.9-0.7-0.6c-3.8,3.2-6.4,7-8.1,11.4
			c1.6-22.5,9.2-48.4,33-56c0.8-0.3,0.5-1.5-0.4-1.3C7.5,77.4-0.3,107.8,0,131.4c0,0.5,0.8,0.6,0.9,0.1c1-4.5,3.2-8.5,6.3-11.8
			c-7.9,13.8-5.7,31.1-3.1,46.2c0.1,0.5,0.8,0.3,0.8-0.1c0.2-3.6,1-7.2,2.2-10.6C5.5,173.1,14.6,190.7,11.6,208.6z M11.4,79.2
			c6.1-6.1,13.9-9.7,22.6-10.1c0.2,0,0.2-0.3,0-0.3c-7.2-0.3-14.1,2.1-19.6,6.5c15-18.8,36.4-34.5,61.6-32.1c0.5,0.1,0.7-0.7,0.4-1
			c-5.3-5.7-13.1-8.1-20.5-6.6c11-6.7,24.6-7.5,36.6-2.3c0.5,0.2,1-0.5,0.4-0.8c-13.1-6.7-29.4-4.5-40.9,4.2
			c-0.5,0.4-0.2,1.4,0.5,1.1c7.5-3,15.9-1.5,21.8,3.9c-26.9-3.5-48.9,16.4-63.5,36.8C10.5,79.1,11.1,79.5,11.4,79.2z M93.4,30.9
			c-0.6-2.9-1-6.2-0.1-9.1c0.9-3.1,3.3-4.9,5.6-6.8c2.7-2.2,4.9-4.7,6.8-7.5c-1.6,7.5-2.3,15.5,3,21.8c0.3,0.4,0.8,0,0.7-0.4
			c-1.8-9.8,9.3-13.4,16.3-16.3c5.7-2.4,10.8-5.8,15.7-9.6c-5.9,7.8-11.8,15.6-17.4,23.6c-0.3,0.5,0.4,0.9,0.8,0.4
			c6.6-8.7,13-17.5,19.4-26.2c0.3-0.4-0.3-0.8-0.7-0.5c-3.9,3.2-8.1,6.2-12.5,8.7c-3.8,2.1-7.9,3.6-11.9,5.3
			c-5.5,2.4-10.9,6.8-10.7,13.1c-4.3-7-2.7-15.4-0.9-23.1c0.1-0.6-0.7-1-1-0.4c-1.5,3-3.4,5.8-5.8,8.2c-2.1,2.1-4.8,3.6-6.6,6
			c-3,3.9-2.1,8.6-1.1,13.1C93.1,31.2,93.4,31.1,93.4,30.9z M127.1,27.2c-0.1,0.1,0.1,0.3,0.2,0.2c17.7-19,47.4-3.4,67.9-15.9
			c-8.1,10.6-16.5,20.3-28,27.5c-0.5,0.3-0.1,0.9,0.4,0.7c13.5-6.4,23-19.6,31.7-31.3c0.5-0.7-0.6-1.4-1.1-0.9
			C178,24.7,145,5.6,127.1,27.2z"/>
	</g>
	<g>
		
			<linearGradient id="SVGID_45_" gradientUnits="userSpaceOnUse" x1="123.0518" y1="320.5972" x2="123.0518" y2="314.6964" gradientTransform="matrix(0.9997 -2.440000e-002 2.440000e-002 0.9997 -2.5151 -2.1317)">
			<stop  offset="0" style="stop-color:#FDC2A9"/>
			<stop  offset="1" style="stop-color:#E57D6E"/>
		</linearGradient>
		<path fill="url(#SVGID_45_)" d="M122.5,311.1c0,0,5.3-1.4,11.4,0.2C133.9,311.3,126.4,316,122.5,311.1z"/>
		<g>
			<g>
				<path fill="#F34D57" d="M165.6,268.9c-6.6-4.2-14.5-1.3-20.5,2.3c-6,3.5-10.4,6.3-17.4,6.5c-7-0.2-11.4-2.9-17.4-6.5
					c-6-3.5-13.9-6.5-20.5-2.3c-8.5,5.5-2.3,17-2.3,17l40.1-1.7l40.1,1.7C167.8,285.9,174.1,274.4,165.6,268.9z"/>
				<path fill="#F34D57" d="M128.1,302.1l-39.3-13.9c3.9,10.9,13.4,23,25.5,22c6.6-0.5,10.1-1,13.8-1.1c3.7,0,7.2,0.5,13.8,1.1
					c12.1,1,21.6-11.1,25.5-22L128.1,302.1z"/>
				<path fill="#FD666E" d="M128.1,301.3l-39.3-13.1c3.9,10.3,13.4,21.6,25.5,20.8c6.6-0.5,10.1-1,13.8-1c3.7,0,7.2,0.5,13.8,1
					c12.1,0.9,21.6-10.5,25.5-20.8L128.1,301.3z"/>
				
					<radialGradient id="SVGID_46_" cx="4.668502e-002" cy="604.1475" r="5.6563" gradientTransform="matrix(2.5803 0 0 0.3698 127.8971 82.4112)" gradientUnits="userSpaceOnUse">
					<stop  offset="0" style="stop-color:#FD8BA1"/>
					<stop  offset="1" style="stop-color:#FD666E"/>
				</radialGradient>
				<ellipse fill="url(#SVGID_46_)" cx="127.9" cy="306" rx="13.9" ry="2"/>
			</g>
			<g>
				<path fill="#FFFFFF" d="M168.4,272.9c-1.6-2.1-4.2-3-6.8-3.2c-7.3-0.6-14.2,3.1-20.3,7.1c-1.7,1.1-3.5,2.3-5.5,2.7
					c-2.6,0.5-5.4-0.3-7.9,0.4c-2.5-0.7-5.3,0.1-7.9-0.4c-2-0.4-3.8-1.6-5.5-2.7c-6.1-4-13-7.7-20.3-7.1c-2.6,0.2-5.3,1.1-6.8,3.2
					c-2.4,3.3-0.7,9.4,0.7,13.3l1,2c3.8,8.7,13.2,17.5,22.7,17.5c5.5,0,7.7-1.3,16.2-1.4c8.4,0.1,10.6,1.4,16.2,1.4
					c9.5,0,18.9-8.8,22.7-17.5l1-2C169.1,282.4,170.8,276.2,168.4,272.9z"/>
			</g>
			<radialGradient id="SVGID_47_" cx="128.0612" cy="292.6909" r="29.5381" gradientUnits="userSpaceOnUse">
				<stop  offset="2.523180e-003" style="stop-color:#C2C4D1"/>
				<stop  offset="0.3894" style="stop-color:#C0C2CF"/>
				<stop  offset="0.5287" style="stop-color:#BABCC8"/>
				<stop  offset="0.6281" style="stop-color:#AFB1BD"/>
				<stop  offset="0.7084" style="stop-color:#9FA1AC"/>
				<stop  offset="0.7772" style="stop-color:#8B8C96"/>
				<stop  offset="0.8382" style="stop-color:#72737A"/>
				<stop  offset="0.8934" style="stop-color:#53545A"/>
				<stop  offset="0.944" style="stop-color:#303134"/>
				<stop  offset="0.9891" style="stop-color:#0A0A0B"/>
				<stop  offset="1" style="stop-color:#000000"/>
			</radialGradient>
			<path fill="url(#SVGID_47_)" d="M168,285.5c-8.2,4.2-23.1,7-39.9,7c-17.1,0-32.2-2.9-40.3-7.2c0.1,0.3,0.2,0.6,0.3,0.9l0.2,0.5
				c8.5,4.1,23,6.8,39.8,6.8c16.5,0,30.8-2.6,39.3-6.6l0.3-0.7C167.8,286,167.9,285.7,168,285.5z"/>
			<g>
				<path fill="#FF7F9D" d="M99.7,279.4c0.5-5.6,6.2-4.5,8.3-0.5c1.8-4,4.9-3.1,8-0.8c0-0.1,0.1-0.2,0.1-0.2c-0.5-0.3-1.1-0.7-1.6-1
					c-6.1-4-13-7.7-20.3-7.1c-2.6,0.2-5.3,1.1-6.8,3.2c-2.4,3.3-0.7,9.4,0.7,13.3l0.1,0.1l1.6-2.6c0.1-2.6-0.3-7.3,2.4-8.8
					C95.4,273.1,97.8,277.5,99.7,279.4z M119.7,299.9c-2.5,4.4-6.9,8-9.1-0.8c-0.8,0.9-3.6,4.9-6.5,3.5c-1.8-0.9-2-4.2-1.5-5.8
					c-1.6,1.2-4,4-7.1,0.8l0,0c4.5,4.6,10.3,8,16.2,8c4.1,0,6.4-0.7,10.8-1.1C121.2,303.8,120.4,301.4,119.7,299.9z M128.3,301.3
					l-0.3-0.4l-0.2,0.4c-0.5,0.9-2.2,2.4-3.3,3.1c1-0.1,2.1-0.1,3.4-0.1c1.4,0,2.6,0.1,3.8,0.1C130.5,303.7,128.8,302.2,128.3,301.3
					z M168.4,272.9c-1.6-2.1-4.2-3-6.8-3.2c-7.3-0.6-14.2,3.1-20.3,7.1c-0.5,0.3-0.9,0.6-1.4,0.9c0.1,0.1,0.2,0.2,0.2,0.4
					c3-2.2,6.1-3.1,8,0.8c2.1-4,7.8-5.1,8.3,0.5c1.9-1.9,4.3-6.3,7.5-4.5c2.8,1.5,2.4,6.2,2.4,8.8l1.5,2.3
					C169.2,282.2,170.8,276.1,168.4,272.9z M153.4,296.9c0.5,1.5,0.3,4.9-1.5,5.8c-2.9,1.4-5.6-2.6-6.5-3.5
					c-2.2,8.7-6.5,5.2-9.1,0.8c-0.7,1.4-1.5,3.9-2.8,4.6c4.2,0.4,6.5,1.1,10.5,1.1c5.4,0,10.8-2.9,15.1-6.9
					C156.7,300.1,154.8,297.9,153.4,296.9z"/>
				<path fill="#FF6488" d="M122,304.1c-0.1-0.1-0.1-0.2-0.2-0.2c-0.1-0.1-0.2-0.3-0.3-0.5c-1.7,0.2-3.3,0.3-5,0.4h0
					c-0.1,0.1-0.3,0.2-0.4,0.3c-0.5,0.3-1,0.4-1.5,0.4c-0.5,0-1-0.2-1.5-0.6h0c-1.6,0-3-0.1-4.2-0.3c-0.9-0.2-1.8-0.5-2.6-0.8l0,0
					c-0.2,0-0.3,0.1-0.5,0.1c0,0,0,0,0,0c-0.2,0-0.3,0-0.5,0c-0.1,0-0.1,0-0.2,0c-0.1,0-0.2,0-0.4-0.1c-0.2,0-0.3-0.1-0.5-0.2
					c-0.1-0.1-0.3-0.2-0.4-0.2c0,0-0.1-0.1-0.1-0.1c-0.1-0.1-0.2-0.2-0.3-0.3c0,0,0,0-0.1-0.1c-0.2-0.3-0.4-0.6-0.5-0.9
					c-1.3-0.8-2.4-1.6-3.1-2.2c-0.1,0-0.1,0-0.2,0.1c-0.1,0-0.1,0.1-0.2,0.1c-0.1,0-0.2,0-0.2,0c-0.1,0-0.1,0-0.2,0
					c-0.1,0-0.2,0-0.3,0c0,0-0.1,0-0.1,0c-0.1,0-0.2,0-0.3,0c0,0,0,0-0.1,0c-0.5-0.1-1.1-0.3-1.7-0.8l0,0l-0.1,0l0,0
					c0.3,0.2,0.5,0.5,0.8,0.7c0,0,0.1,0,0.1,0.1c0.2,0.2,0.5,0.4,0.7,0.7c0,0,0.1,0.1,0.1,0.1c0.2,0.2,0.5,0.4,0.7,0.6
					c0.1,0.1,0.1,0.1,0.2,0.2c0.2,0.2,0.5,0.4,0.7,0.5c0.1,0.1,0.2,0.1,0.2,0.2c0.2,0.2,0.4,0.3,0.7,0.5c0.1,0.1,0.2,0.1,0.3,0.2
					c0.2,0.1,0.4,0.3,0.7,0.4c0.1,0.1,0.2,0.1,0.3,0.2c0.2,0.1,0.4,0.2,0.6,0.4c0.1,0.1,0.2,0.1,0.4,0.2c0.2,0.1,0.4,0.2,0.6,0.3
					c0.1,0.1,0.3,0.1,0.4,0.2c0.2,0.1,0.4,0.2,0.6,0.3c0.1,0.1,0.3,0.1,0.4,0.2c0.2,0.1,0.4,0.2,0.6,0.2c0.2,0.1,0.3,0.1,0.5,0.2
					c0.2,0.1,0.4,0.1,0.5,0.2c0.2,0.1,0.3,0.1,0.5,0.2c0.2,0.1,0.3,0.1,0.5,0.1c0.2,0,0.4,0.1,0.6,0.1c0.2,0,0.3,0.1,0.5,0.1
					c0.2,0,0.4,0.1,0.6,0.1c0.2,0,0.3,0.1,0.5,0.1c0.2,0,0.5,0.1,0.7,0.1c0.1,0,0.3,0,0.4,0c0.4,0,0.7,0,1.1,0
					c4.1,0,6.4-0.7,10.8-1.1c-0.1-0.1-0.3-0.2-0.4-0.3C122.1,304.2,122,304.2,122,304.1z M113.4,276.6
					C113.4,276.6,113.4,276.6,113.4,276.6c0.8,0.3,1.6,0.8,2.4,1.4c0.1-0.1,0.1-0.1,0.2-0.2c-0.5-0.3-1-0.6-1.5-0.9
					c-6.1-4-13-7.7-20.3-7.1c-2.6,0.2-5.3,1.1-6.8,3.2c-0.2,0.3-0.3,0.5-0.5,0.8c0,0.1-0.1,0.2-0.1,0.2c-0.1,0.2-0.2,0.5-0.3,0.7
					c0,0.1,0,0.1-0.1,0.2c-0.1,0.3-0.1,0.7-0.2,1c0,0.1,0,0.1,0,0.2c0,0.3-0.1,0.6-0.1,0.9c0,0.1,0,0.2,0,0.3c0,0.8,0.1,1.5,0.2,2.3
					c0,0.1,0,0.1,0,0.2c0.1,0.4,0.1,0.8,0.2,1.1c0,0,0,0,0,0c0.1,0.4,0.2,0.8,0.3,1.3v0l1-0.8c0,0-0.5-8,4.3-9.3
					c4.6-1.2,13.3,0.4,17.7,4.5C110.8,276,112.1,276.1,113.4,276.6z M130.9,303.9c0,0-0.1-0.1-0.1-0.1c-0.1-0.1-0.3-0.2-0.4-0.4
					c0,0,0,0,0,0c-0.2-0.1-0.3-0.3-0.5-0.4c0,0,0,0,0,0c-0.4,0-0.9-0.1-1.3-0.1v0c-0.2,0-0.5,0-0.7,0c-0.3,0-0.5,0-0.7,0v0
					c-0.3,0-0.5,0-0.8,0c-0.3,0.3-0.6,0.5-0.9,0.8c0,0-0.1,0.1-0.1,0.1c-0.1,0.1-0.2,0.2-0.3,0.2c-0.2,0.1-0.3,0.2-0.4,0.3
					c0.4,0,0.7,0,1.1-0.1c0.1,0,0.1,0,0.2,0c0.4,0,0.8,0,1.3,0h0c0.3,0,0.5,0,0.8,0c0.2,0,0.4,0,0.7,0c0.6,0,1.1,0,1.6,0
					c0,0,0.1,0,0.1,0c0.5,0,1,0,1.4,0.1c-0.1-0.1-0.3-0.2-0.4-0.3C131.1,304.1,131,304,130.9,303.9z M169.6,277.2
					c0-0.3,0-0.6-0.1-0.9c0-0.1,0-0.2,0-0.2c0-0.4-0.1-0.7-0.2-1c0,0,0-0.1,0-0.1c-0.1-0.3-0.2-0.6-0.3-0.8c0-0.1-0.1-0.2-0.1-0.2
					c-0.1-0.3-0.3-0.6-0.5-0.8c-1.6-2.1-4.2-3-6.8-3.2c-7.3-0.6-14.2,3.1-20.3,7.1c-0.5,0.3-0.9,0.6-1.4,0.9
					c0.1,0.1,0.2,0.2,0.2,0.4c0.2-0.2,0.5-0.3,0.7-0.5c0.1,0,0.1-0.1,0.2-0.1c0.2-0.1,0.4-0.2,0.5-0.3c0.1,0,0.1-0.1,0.2-0.1
					c0.2-0.1,0.5-0.2,0.7-0.4c0,0,0,0,0.1,0c0.2-0.1,0.4-0.2,0.6-0.2c0.1,0,0.1,0,0.2,0c0.2-0.1,0.4-0.1,0.6-0.1c0,0,0.1,0,0.1,0
					c0.2,0,0.5-0.1,0.7,0c0,0,0,0,0.1,0c0.2,0,0.4,0,0.6,0.1c0,0,0.1,0,0.1,0c0.2,0.1,0.4,0.1,0.6,0.2v0c4.5-4,13-5.5,17.5-4.3
					c4.8,1.3,4.3,9.3,4.3,9.3l1.1,1l0,0c0.2-0.8,0.4-1.7,0.5-2.5c0,0,0-0.1,0-0.1c0.1-0.4,0.1-0.8,0.1-1.1c0,0,0-0.1,0-0.1
					c0-0.4,0-0.8,0-1.2C169.6,277.3,169.6,277.2,169.6,277.2z M158.6,299c-0.1,0-0.2,0.1-0.3,0.1c-0.1,0-0.1,0-0.2,0
					c-0.1,0-0.1,0-0.2,0c-0.1,0-0.2,0-0.2,0c-0.1,0-0.1,0-0.2,0c-0.1,0-0.2,0-0.3,0c0,0-0.1,0-0.1,0c-0.1,0-0.2,0-0.3-0.1
					c0,0-0.1,0-0.1,0c-0.1,0-0.2-0.1-0.3-0.1c0,0,0,0,0,0c-0.1,0-0.2-0.1-0.3-0.1l0,0c-0.6,0.5-1.6,1.2-2.7,2v0
					c-0.1,0.2-0.1,0.4-0.2,0.6c0,0,0,0,0,0c-0.1,0.2-0.2,0.3-0.3,0.5c0,0,0,0,0,0c-0.1,0.1-0.2,0.3-0.4,0.4c0,0-0.1,0-0.1,0.1
					c-0.1,0.1-0.3,0.2-0.4,0.3c-0.2,0.1-0.4,0.2-0.6,0.2c0,0-0.1,0-0.1,0c-0.2,0-0.3,0.1-0.5,0.1c0,0-0.1,0-0.1,0
					c-0.2,0-0.3,0-0.5,0c0,0,0,0,0,0c-0.2,0-0.4-0.1-0.5-0.1h0c-0.9,0.4-1.9,0.7-2.8,0.9c-1.1,0.2-2.4,0.3-3.7,0.3
					c-0.4,0.3-0.8,0.5-1.2,0.5l0,0c-0.4,0.1-0.9,0-1.3-0.2c0,0,0,0,0,0c-0.3-0.1-0.6-0.3-0.9-0.5l0,0l0,0c-1.6-0.1-3.4-0.3-5-0.4
					c-0.1,0.2-0.2,0.3-0.3,0.5c-0.1,0.1-0.1,0.2-0.2,0.2c0,0-0.1,0.1-0.1,0.1c-0.1,0.1-0.3,0.2-0.4,0.3c4.2,0.4,6.5,1.1,10.5,1.1
					c5.4,0,10.8-2.9,15.1-6.9c-0.1,0.1-0.3,0.2-0.4,0.2C158.7,299,158.6,299,158.6,299z"/>
			</g>
			<g>
				<path d="M86.3,278.2l-0.1-0.1c0.1,2.8,1.1,5.9,1.9,8.1l1,2c1.5,3.3,3.7,6.7,6.5,9.6c0.2-2.8,1.1-5.6,2.7-8
					C93.5,286.8,89.4,282.8,86.3,278.2z M169.3,278.2c-3.1,4.7-7.2,8.6-12,11.6c1.6,2.4,2.5,5.3,2.7,8.1c2.9-2.9,5.2-6.3,6.7-9.7
					l1-2c0.8-2.3,1.8-5.4,1.9-8.3L169.3,278.2z"/>
			</g>
			<path fill="#DE4245" d="M161.6,269c-5.2-0.5-10.3,1.3-14.8,3.7c-2.9,1.5-5.5,3.9-8.5,5.2c-3.4,1.5-6.9,0.8-10.4,1.4
				c-3.6-0.6-6.9,0.2-10.4-1.4c-2.7-1.3-5.1-3.3-7.7-4.8c-4.7-2.6-10.1-4.6-15.6-4.1c-10,1-9.4,9.8-6.3,17.2
				c0.1,0.2,0.4,0.1,0.4-0.1c-1.5-5.2-3.6-13.2,3.6-15.3c4.9-1.4,10.5,0.3,14.9,2.4c3.5,1.7,6.6,4.2,10,5.9
				c3.5,1.7,6.9,0.9,10.5,1.5c0.1,0.1,0.3,0.2,0.6,0.1c0,0,0,0,0.1,0c0,0,0,0,0.1,0c0.2,0,0.4,0,0.6-0.1c3.7-0.5,7.1,0.3,10.5-1.5
				c3.5-1.7,6.5-4.2,10-5.9c4.4-2.1,10-3.8,14.9-2.4c7.2,2.1,5.1,10,3.6,15.3c-0.1,0.2,0.3,0.3,0.4,0.1
				C171,278.8,171.6,270.1,161.6,269z M166.7,288.2c-4.3,7.8-11.8,16-21.2,16.9c-5.6,0.5-11.2-1.1-16.9-1.2c0,0,0,0-0.1,0
				c-0.2,0-0.4,0-0.6,0c-0.2,0-0.4,0-0.7,0c0,0,0,0-0.1,0c-5.6,0.2-11.3,1.8-16.9,1.2c-9.4-0.9-16.9-9.1-21.2-16.9
				c0-0.1-0.2,0-0.1,0.1c2.9,7.4,8.7,13.9,16.3,16.7c7.1,2.7,15.3,0.3,22.6-0.1c7.4,0.4,15.5,2.8,22.6,0.1
				c7.6-2.9,13.4-9.3,16.3-16.7C166.8,288.1,166.7,288.1,166.7,288.2z"/>
		</g>
	</g>
	<g>
		<g>
			<g>
				<path d="M47.9,218.7C47.9,218.7,47.9,218.7,47.9,218.7c0,0,7.1,0.3,25.2,4.3s30.3,10.7,30.3,10.7s-23.9-4.7-30-6
					C68.6,226.6,55.7,223,47.9,218.7z"/>
			</g>
			<path fill="#FDC2A9" d="M103.4,233.7c0,0-12.1-5-30.3-9s-25.2-6-25.2-6s2.5,10,17.7,17.5c0,0,10.1,2,22.7,0L103.4,233.7z"/>
			
				<linearGradient id="SVGID_48_" gradientUnits="userSpaceOnUse" x1="-204.1746" y1="248.9576" x2="-204.1746" y2="251.903" gradientTransform="matrix(-1 0 0 1 -124 0)">
				<stop  offset="0" style="stop-color:#F59384"/>
				<stop  offset="1" style="stop-color:#FDC2A9"/>
			</linearGradient>
			<path fill="url(#SVGID_48_)" d="M95.3,233c0,0-11.8-4.3-30.3-8.3c0,0,18.8,7,27.3,9.3L95.3,233z"/>
			
				<linearGradient id="SVGID_49_" gradientUnits="userSpaceOnUse" x1="-201.3917" y1="218.6092" x2="-194.9105" y2="246.5282" gradientTransform="matrix(-1 0 0 1 -124 0)">
				<stop  offset="0" style="stop-color:#F59384"/>
				<stop  offset="1" style="stop-color:#FDC2A9"/>
			</linearGradient>
			<path fill="url(#SVGID_49_)" d="M88.3,236.2c-12.6,2-22.7,0-22.7,0c-15.1-7.5-17.7-17.5-17.7-17.5s1.6,0.4,5.1,1.3
				c3.2,7.3,9.9,13.4,15.6,15.2c10.3,3.2,23.3-2.1,29.5-3.5c3.4,1.2,5.3,2,5.3,2L88.3,236.2z"/>
		</g>
		<g>
			<g>
				<path d="M209.1,218.7C209.1,218.7,209.1,218.7,209.1,218.7c0,0-7,0.3-25,4.3s-30,10.7-30,10.7s23.7-4.7,29.7-6
					C188.5,226.6,201.3,223,209.1,218.7z"/>
			</g>
			<path fill="#FDC2A9" d="M154.1,233.7c0,0,12-5,30-9s25-6,25-6s-2.5,10-17.5,17.5c0,0-10,2-22.5,0L154.1,233.7z"/>
			<linearGradient id="SVGID_50_" gradientUnits="userSpaceOnUse" x1="177.0612" y1="248.9576" x2="177.0612" y2="251.903">
				<stop  offset="0" style="stop-color:#F59384"/>
				<stop  offset="1" style="stop-color:#FDC2A9"/>
			</linearGradient>
			<path fill="url(#SVGID_50_)" d="M162.1,233c0,0,11.7-4.3,30-8.3c0,0-18.7,7-27,9.3L162.1,233z"/>
			<linearGradient id="SVGID_51_" gradientUnits="userSpaceOnUse" x1="179.7833" y1="218.5322" x2="186.2832" y2="246.5322">
				<stop  offset="0" style="stop-color:#F59384"/>
				<stop  offset="1" style="stop-color:#FDC2A9"/>
			</linearGradient>
			<path fill="url(#SVGID_51_)" d="M169.1,236.2c12.5,2,22.5,0,22.5,0c15-7.5,17.5-17.5,17.5-17.5s-1.5,0.4-5.1,1.3
				c-3.1,7.3-9.8,13.4-15.4,15.2c-10.2,3.2-23-2.1-29.2-3.5c-3.4,1.2-5.3,2-5.3,2L169.1,236.2z"/>
		</g>
	</g>
</g>
</svg>
