<?xml version="1.0" encoding="utf-8"?>
<!-- Generator: Adobe Illustrator 17.1.0, SVG Export Plug-In . SVG Version: 6.00 Build 0)  -->
<!DOCTYPE svg PUBLIC "-//W3C//DTD SVG 1.1//EN" "http://www.w3.org/Graphics/SVG/1.1/DTD/svg11.dtd">
<svg version="1.1" id="Layer_1" xmlns="http://www.w3.org/2000/svg" xmlns:xlink="http://www.w3.org/1999/xlink" x="0px" y="0px"
	 width="105.9px" height="86.9px" viewBox="0 0 105.9 86.9" enable-background="new 0 0 105.9 86.9" xml:space="preserve">
<g>
	<g>
		<ellipse fill="#A67C52" cx="89.8" cy="17.3" rx="16.1" ry="16.1"/>
		<ellipse fill="#A67C52" cx="16.1" cy="17.3" rx="16.1" ry="16.1"/>
		<path opacity="0.1" fill="#332F2F" enable-background="new    " d="M10.1,17.3c0-7.1,4.6-13.1,11.1-15.2c-1.6-0.5-3.3-0.8-5.1-0.8
			C7.2,1.3,0,8.4,0,17.3s7.2,16.1,16.1,16.1c1.8,0,3.5-0.3,5.1-0.8C14.8,30.4,10.1,24.4,10.1,17.3z"/>
	</g>
	<g>
		<ellipse fill="#C69C6D" cx="53" cy="43.4" rx="43.6" ry="43.4"/>
		<path opacity="0.1" fill="#332F2F" enable-background="new    " d="M16.5,43.4c0-22.8,17.6-41.4,40-43.2C55.3,0.1,54.1,0,53,0
			C28.9,0,9.4,19.4,9.4,43.4c0,24,19.5,43.4,43.6,43.4c1.2,0,2.4-0.1,3.6-0.1C34.1,84.8,16.5,66.2,16.5,43.4z"/>
	</g>
	<ellipse fill="#A67C52" cx="53" cy="65.4" rx="21.6" ry="21.5"/>
	<ellipse fill="#5C4736" cx="53" cy="50.5" rx="8.3" ry="7.1"/>
	<g>
		<path fill="#FAFAFA" d="M33.8,61.9c0,0,4.8,14.9,19.1,14.9c14.4,0,19.1-14.9,19.1-14.9H53H33.8z"/>
		<path fill="#FAFAFA" d="M53,78c-15.1,0-20.2-15.5-20.3-15.7c-0.1-0.4-0.1-0.8,0.2-1.1c0.2-0.3,0.6-0.5,1-0.5h38.2
			c0.4,0,0.7,0.2,1,0.5c0.2,0.3,0.3,0.7,0.2,1.1C73.2,62.4,68,78,53,78z M35.6,63.1c1.6,3.7,6.6,12.5,17.4,12.5
			c10.6,0,15.7-8.8,17.4-12.5H35.6z"/>
	</g>
	<g>
		<g>
			<path fill="#5C4736" d="M80,38.9c-0.3,0-0.6-0.1-0.9-0.3l0,0c0,0-1.2-0.8-4.4-0.8c-3.3,0-4.4,0.8-4.4,0.9
				c-0.6,0.4-1.4,0.3-1.8-0.2c-0.4-0.5-0.4-1.3,0.1-1.8c0.3-0.2,1.9-1.5,6.1-1.5c4.2,0,5.8,1.2,6.1,1.5c0.5,0.5,0.6,1.3,0.1,1.8
				C80.7,38.7,80.3,38.9,80,38.9z"/>
		</g>
		<g>
			<path fill="#5C4736" d="M36.4,38.9c-0.3,0-0.6-0.1-0.9-0.3l0,0c0,0-1.2-0.8-4.4-0.8c-3.3,0-4.4,0.8-4.4,0.9
				c-0.6,0.4-1.4,0.3-1.8-0.2c-0.4-0.5-0.4-1.3,0.1-1.8c0.3-0.2,1.9-1.5,6.1-1.5c4.2,0,5.8,1.2,6.1,1.5c0.5,0.5,0.6,1.3,0.1,1.8
				C37.1,38.7,36.8,38.9,36.4,38.9z"/>
		</g>
	</g>
	<g>
		<g>
			<path fill="#A67C52" d="M23.8,33.2c-0.2,0-0.4-0.1-0.6-0.2c-0.6-0.3-0.8-1.1-0.5-1.7c0.1-0.2,1.3-2.3,6.2-5
				c4.9-2.7,7.3-2.7,7.6-2.7c0.7,0,1.3,0.7,1.2,1.4c0,0.7-0.6,1.3-1.4,1.2c0,0-1.9,0-6.1,2.4c-4.2,2.3-5.2,4-5.2,4
				C24.7,33,24.3,33.2,23.8,33.2z"/>
		</g>
		<g>
			<path fill="#A67C52" d="M82.1,33.2c-0.5,0-0.9-0.2-1.1-0.7c0-0.1-1.1-1.7-5.2-4c-4.2-2.3-6.1-2.4-6.2-2.4h0
				c-0.7,0-1.3-0.5-1.3-1.3c0-0.7,0.5-1.3,1.2-1.3c0.3,0,2.7-0.1,7.6,2.7c4.9,2.7,6.1,4.8,6.2,5c0.3,0.6,0.1,1.4-0.5,1.8
				C82.5,33.2,82.3,33.2,82.1,33.2z"/>
		</g>
	</g>
</g>
</svg>
