<?xml version="1.0" encoding="utf-8"?>
<!-- Generator: Adobe Illustrator 17.1.0, SVG Export Plug-In . SVG Version: 6.00 Build 0)  -->
<!DOCTYPE svg PUBLIC "-//W3C//DTD SVG 1.1//EN" "http://www.w3.org/Graphics/SVG/1.1/DTD/svg11.dtd">
<svg version="1.1" id="Layer_1" xmlns="http://www.w3.org/2000/svg" xmlns:xlink="http://www.w3.org/1999/xlink" x="0px" y="0px"
	 width="105.9px" height="86.9px" viewBox="0 0 105.9 86.9" enable-background="new 0 0 105.9 86.9" xml:space="preserve">
<g>
	<g>
		<ellipse fill="#A67C52" cx="89.8" cy="17.3" rx="16.1" ry="16.1"/>
		<ellipse fill="#A67C52" cx="16.1" cy="17.3" rx="16.1" ry="16.1"/>
		<path opacity="0.1" fill="#332F2F" enable-background="new    " d="M10.1,17.3c0-7.1,4.6-13.1,11.1-15.2c-1.6-0.5-3.3-0.8-5.1-0.8
			C7.2,1.3,0,8.4,0,17.3c0,8.9,7.2,16.1,16.1,16.1c1.8,0,3.5-0.3,5.1-0.8C14.8,30.4,10.1,24.4,10.1,17.3z"/>
	</g>
	<ellipse fill="#C69C6D" cx="53" cy="43.4" rx="43.6" ry="43.4"/>
	<path opacity="0.1" fill="#332F2F" enable-background="new    " d="M16.5,43.4c0-22.8,17.6-41.4,40-43.2C55.3,0.1,54.1,0,53,0
		C28.9,0,9.4,19.4,9.4,43.4c0,24,19.5,43.4,43.6,43.4c1.2,0,2.4-0.1,3.6-0.1C34.1,84.8,16.5,66.2,16.5,43.4z"/>
	<ellipse fill="#A67C52" cx="53" cy="65.4" rx="21.6" ry="21.5"/>
	<ellipse fill="#5C4736" cx="53" cy="50.5" rx="8.3" ry="7.1"/>
	<g>
		<path fill="#5C4736" d="M39.2,68.9c0,0,3.4,6.7,13.8,6.7c10.3,0,13.8-6.7,13.8-6.7H53H39.2z"/>
		<path fill="#5C4736" d="M53,77c-11,0-14.8-7.2-14.9-7.5c-0.2-0.4-0.2-0.9,0.1-1.3c0.2-0.4,0.7-0.6,1.1-0.6h27.5
			c0.5,0,0.9,0.2,1.1,0.6c0.2,0.4,0.3,0.9,0.1,1.3C67.7,69.8,64,77,53,77z M41.8,70.2C43.5,72,47,74.4,53,74.4c6,0,9.4-2.4,11.1-4.1
			H41.8z"/>
	</g>
	<path fill="#C1272D" d="M39.6,31.1c-2.3-2.3-5.9-2.3-8.2,0l0,0l0,0c-2.3-2.3-5.9-2.3-8.2,0s-2.3,5.9,0,8.2l8.2,8.2l0,0l0,0l8.2-8.2
		C41.8,37,41.8,33.3,39.6,31.1z"/>
	<path fill="#C1272D" d="M83.1,31.1c-2.3-2.3-5.9-2.3-8.2,0l0,0l0,0c-2.3-2.3-5.9-2.3-8.2,0c-2.3,2.3-2.3,5.9,0,8.2l8.2,8.2l0,0l0,0
		l8.2-8.2C85.3,37,85.3,33.3,83.1,31.1z"/>
</g>
</svg>
