<?xml version="1.0" encoding="utf-8"?>
<!-- Generator: Adobe Illustrator 17.1.0, SVG Export Plug-In . SVG Version: 6.00 Build 0)  -->
<!DOCTYPE svg PUBLIC "-//W3C//DTD SVG 1.1//EN" "http://www.w3.org/Graphics/SVG/1.1/DTD/svg11.dtd">
<svg version="1.1" id="Layer_1" xmlns="http://www.w3.org/2000/svg" xmlns:xlink="http://www.w3.org/1999/xlink" x="0px" y="0px"
	 width="105.9px" height="86.9px" viewBox="0 0 105.9 86.9" enable-background="new 0 0 105.9 86.9" xml:space="preserve">
<g>
	<g>
		<ellipse fill="#A67C52" cx="89.8" cy="17.3" rx="16.1" ry="16.1"/>
		<ellipse fill="#A67C52" cx="16.1" cy="17.3" rx="16.1" ry="16.1"/>
		<path opacity="0.1" fill="#332F2F" enable-background="new    " d="M10.1,17.3c0-7.1,4.6-13.1,11.1-15.2c-1.6-0.5-3.3-0.8-5.1-0.8
			C7.2,1.3,0,8.4,0,17.3c0,8.9,7.2,16.1,16.1,16.1c1.8,0,3.5-0.3,5.1-0.8C14.8,30.4,10.1,24.4,10.1,17.3z"/>
	</g>
	<g>
		<ellipse fill="#C69C6D" cx="53" cy="43.4" rx="43.6" ry="43.4"/>
		<path opacity="0.1" fill="#332F2F" enable-background="new    " d="M16.5,43.4c0-22.8,17.6-41.4,40-43.2C55.3,0.1,54.1,0,53,0
			C28.9,0,9.4,19.4,9.4,43.4c0,24,19.5,43.4,43.6,43.4c1.2,0,2.4-0.1,3.6-0.1C34.1,84.8,16.5,66.2,16.5,43.4z"/>
	</g>
	<ellipse fill="#A67C52" cx="53" cy="65.4" rx="21.6" ry="21.5"/>
	<g>
		<ellipse fill="#5C4736" cx="31" cy="38.4" rx="4.8" ry="4.7"/>
		<ellipse fill="#5C4736" cx="74.9" cy="38.4" rx="4.8" ry="4.7"/>
	</g>
	<ellipse fill="#5C4736" cx="53" cy="50.5" rx="8.3" ry="7.1"/>
	<g>
		<path fill="#5C4736" d="M41.7,68.9c0,0,2.8,6.7,11.2,6.7c8.4,0,11.2-6.7,11.2-6.7s-6.2,1.3-11.2,1.3C48,70.2,41.7,68.9,41.7,68.9z
			"/>
		<path fill="#5C4736" d="M53,76.8c-9.1,0-12.2-7.2-12.3-7.5c-0.2-0.4-0.1-0.9,0.2-1.2c0.3-0.3,0.7-0.5,1.1-0.4
			c0.1,0,6.2,1.3,11,1.3c4.8,0,10.9-1.3,11-1.3c0.4-0.1,0.9,0.1,1.1,0.4c0.3,0.3,0.3,0.8,0.2,1.2C65.1,69.7,62.1,76.8,53,76.8z
			 M44.2,70.6c1.4,1.7,4.2,3.9,8.8,3.9c4.6,0,7.4-2.2,8.8-3.9c-2.3,0.4-5.8,0.9-8.8,0.9C49.9,71.4,46.5,70.9,44.2,70.6z"/>
	</g>
	<g>
		<g>
			<path fill="#5C4736" d="M22.5,38c-0.5,0-0.9-0.3-1.1-0.7c-0.2-0.6,0-1.3,0.7-1.5L36,30c0.6-0.3,1.3,0,1.5,0.7
				c0.2,0.6,0,1.3-0.7,1.5l-14,5.7C22.8,37.9,22.7,38,22.5,38z"/>
		</g>
		<g>
			<path fill="#5C4736" d="M83.4,38c-0.1,0-0.3,0-0.4-0.1l-14-5.7c-0.6-0.2-0.9-0.9-0.7-1.5c0.2-0.6,0.9-0.9,1.5-0.7l14,5.7
				c0.6,0.2,0.9,0.9,0.7,1.5C84.3,37.7,83.9,38,83.4,38z"/>
		</g>
	</g>
	<path fill="#FAFAFA" d="M95.4,23.6c0,4.2-3.4,7.5-7.5,7.5c-4.2,0-7.5-3.4-7.5-7.5c0-4.2,7.5-13.9,7.5-13.9S95.4,19.4,95.4,23.6z"/>
</g>
</svg>
