<?xml version="1.0" encoding="utf-8"?>
<!-- Generator: Adobe Illustrator 17.1.0, SVG Export Plug-In . SVG Version: 6.00 Build 0)  -->
<!DOCTYPE svg PUBLIC "-//W3C//DTD SVG 1.1//EN" "http://www.w3.org/Graphics/SVG/1.1/DTD/svg11.dtd">
<svg version="1.1" id="Layer_1" xmlns="http://www.w3.org/2000/svg" xmlns:xlink="http://www.w3.org/1999/xlink" x="0px" y="0px"
	 width="105.9px" height="86.9px" viewBox="0 0 105.9 86.9" enable-background="new 0 0 105.9 86.9" xml:space="preserve">
<g>
	<g>
		<ellipse fill="#A67C52" cx="89.8" cy="17.3" rx="16.1" ry="16.1"/>
		<ellipse fill="#A67C52" cx="16.1" cy="17.3" rx="16.1" ry="16.1"/>
		<path opacity="0.1" fill="#332F2F" enable-background="new    " d="M10.1,17.3c0-7.1,4.6-13.1,11.1-15.2c-1.6-0.5-3.3-0.8-5.1-0.8
			C7.2,1.3,0,8.4,0,17.3c0,8.9,7.2,16.1,16.1,16.1c1.8,0,3.5-0.3,5.1-0.8C14.8,30.4,10.1,24.4,10.1,17.3z"/>
	</g>
	<ellipse fill="#C69C6D" cx="53" cy="43.4" rx="43.6" ry="43.4"/>
	<path opacity="0.1" fill="#332F2F" enable-background="new    " d="M16.5,43.4c0-22.8,17.6-41.4,40-43.2C55.3,0.1,54.1,0,53,0
		C28.9,0,9.4,19.4,9.4,43.4c0,24,19.5,43.4,43.6,43.4c1.2,0,2.4-0.1,3.6-0.1C34.1,84.8,16.5,66.2,16.5,43.4z"/>
	<ellipse fill="#A67C52" cx="53" cy="65.4" rx="21.6" ry="21.5"/>
	<g>
		<ellipse fill="#5C4736" cx="31" cy="38.4" rx="4.8" ry="4.7"/>
		<ellipse fill="#5C4736" cx="74.9" cy="38.4" rx="4.8" ry="4.7"/>
	</g>
	<ellipse fill="#5C4736" cx="53" cy="50.5" rx="8.3" ry="7.1"/>
	<g>
		<path fill="#5C4736" d="M64.2,75.7c0,0-2.8-6.7-11.2-6.7c-8.4,0-11.2,6.7-11.2,6.7S48,74.3,53,74.3C57.9,74.3,64.2,75.7,64.2,75.7
			z"/>
		<path fill="#5C4736" d="M41.7,76.8c-0.3,0-0.7-0.2-0.9-0.4c-0.3-0.3-0.3-0.8-0.2-1.2c0.1-0.3,3.2-7.5,12.3-7.5
			c9.1,0,12.2,7.2,12.3,7.5c0.2,0.4,0.1,0.9-0.2,1.2c-0.3,0.3-0.7,0.5-1.1,0.4c-0.1,0-6.2-1.3-11-1.3c-4.8,0-10.9,1.3-11,1.3
			C41.9,76.8,41.8,76.8,41.7,76.8z M53,70.1c-4.6,0-7.4,2.2-8.8,3.9c2.3-0.4,5.8-0.9,8.8-0.9c3,0,6.5,0.5,8.8,0.9
			C60.3,72.3,57.6,70.1,53,70.1z"/>
	</g>
</g>
<path fill="#FAFAFA" d="M76.6,54.6c0,3.6-2.9,6.5-6.5,6.5c-3.6,0-6.5-2.9-6.5-6.5c0-3.6,6.5-12,6.5-12S76.6,51.1,76.6,54.6z"/>
</svg>
